<?xml version="1.0" encoding="UTF-8" standalone="no"?>
<!DOCTYPE svg PUBLIC "-//W3C//DTD SVG 1.1//EN"
"http://www.w3.org/Graphics/SVG/1.1/DTD/svg11.dtd">
<svg viewBox="0 0 811 1133" version="1.1" xmlns="http://www.w3.org/2000/svg" xmlns:xlink="http://www.w3.org/1999/xlink">
<defs>
<style type="text/css"><![CDATA[
.g0_71{
fill: none;
stroke: #000000;
stroke-width: 0.7665778;
stroke-linecap: round;
stroke-linejoin: miter;
}
.g1_71{
fill: none;
stroke: #000000;
stroke-width: 0.7585111;
stroke-linecap: round;
stroke-linejoin: miter;
}
.g2_71{
fill: none;
stroke: #000000;
stroke-width: 0.7638889;
stroke-linecap: round;
stroke-linejoin: miter;
}
.g3_71{
fill: none;
stroke: #000000;
stroke-width: 0.15277778;
stroke-linecap: round;
stroke-linejoin: miter;
}
.g4_71{
}
.g5_71{
fill: none;
stroke: #000000;
stroke-width: 0.7609555;
stroke-linecap: round;
stroke-linejoin: miter;
}
.g6_71{
fill: none;
stroke: #000000;
stroke-width: 0.3823111;
stroke-linecap: round;
stroke-linejoin: miter;
}
.g7_71{
fill: none;
stroke: #000000;
stroke-width: 0.7646222;
stroke-linecap: round;
stroke-linejoin: miter;
}
.g8_71{
fill: none;
stroke: #000000;
stroke-width: 0.76486665;
stroke-linecap: round;
stroke-linejoin: miter;
}
.g9_71{
fill: none;
stroke: #000000;
stroke-width: 0.38194445;
stroke-linecap: round;
stroke-linejoin: miter;
}
]]></style>
</defs>
<g fill="#D4D4D4" fill-opacity="0.56" >
<use xlink:href="#f0_1f" transform="matrix(50.9,-50.9,50.9,50.9,199.9,924.1)" />
<use xlink:href="#f0_2a" transform="matrix(50.9,-50.9,50.9,50.9,260.4,863.6)" />
<use xlink:href="#f0_28" transform="matrix(50.9,-50.9,50.9,50.9,303.7,820.3)" />
<use xlink:href="#f0_25" transform="matrix(50.9,-50.9,50.9,50.9,320.9,803.1)" />
<use xlink:href="#f0_2a" transform="matrix(50.9,-50.9,50.9,50.9,338.2,785.8)" />
<use xlink:href="#f0_21" transform="matrix(50.9,-50.9,50.9,50.9,381.4,742.5)" />
<use xlink:href="#f0_2k" transform="matrix(50.9,-50.9,50.9,50.9,424.7,699.3)" />
<use xlink:href="#f0_1x" transform="matrix(50.9,-50.9,50.9,50.9,463.6,660.4)" />
<use xlink:href="#f0_29" transform="matrix(50.9,-50.9,50.9,50.9,506.8,617.2)" />
<use xlink:href="#f0_2c" transform="matrix(50.9,-50.9,50.9,50.9,571.6,552.4)" />
<use xlink:href="#f0_2b" transform="matrix(50.9,-50.9,50.9,50.9,614.9,509.1)" />
<use xlink:href="#f0_25" transform="matrix(50.9,-50.9,50.9,50.9,658.1,465.9)" />
<use xlink:href="#f0_2a" transform="matrix(50.9,-50.9,50.9,50.9,675.4,448.6)" />
<use xlink:href="#f0_2g" transform="matrix(50.9,-50.9,50.9,50.9,718.6,405.4)" />
</g>
<g fill="#000000" >
<use xlink:href="#f1_b" transform="matrix(10.4,0,0,10.4,180.7,83.8)" />
<use xlink:href="#f1_2h" transform="matrix(10.4,0,0,10.4,186.1,83.8)" />
<use xlink:href="#f1_24" transform="matrix(10.4,0,0,10.4,194,83.8)" />
<use xlink:href="#f1_24" transform="matrix(10.4,0,0,10.4,197.6,83.8)" />
<use xlink:href="#f1_c" transform="matrix(10.4,0,0,10.4,201.1,83.8)" />
</g>
<path d="M228,74.9h10.1" class="g0_71" />
<g fill="#000000" >
<use xlink:href="#f1_l" transform="matrix(7.9,0,0,7.9,251.9,69.6)" />
<use xlink:href="#f1_k" transform="matrix(10.6,0,0,10.5,229.3,68.7)" />
<use xlink:href="#f1_2f" transform="matrix(10.6,0,0,10.5,272.9,79.2)" />
<use xlink:href="#f1_1w" transform="matrix(10.6,0,0,10.5,277.7,79.2)" />
<use xlink:href="#f1_29" transform="matrix(10.6,0,0,10.5,287.1,79.2)" />
<use xlink:href="#f1_h" transform="matrix(10.6,0,0,10.5,340.6,79.2)" />
<use xlink:href="#f1_l" transform="matrix(10.6,0,0,10.5,228.7,94.8)" />
<use xlink:href="#f2_2j" transform="matrix(7.9,0,0,7.9,259.1,69.6)" />
<use xlink:href="#f2_20" transform="matrix(10.6,0,0,10.5,241.7,79.2)" />
<use xlink:href="#f2_2j" transform="matrix(10.6,0,0,10.5,300.1,79.2)" />
<use xlink:href="#f2_1y" transform="matrix(10.6,0,0,10.5,331.9,79.2)" />
<use xlink:href="#f3_f" transform="matrix(10.6,0,0,10.5,316.9,79.2)" />
<use xlink:href="#f1_b" transform="matrix(10.4,0,0,10.4,452.3,83.8)" />
<use xlink:href="#f1_2h" transform="matrix(10.4,0,0,10.4,457.6,83.8)" />
<use xlink:href="#f1_24" transform="matrix(10.4,0,0,10.4,465.5,83.8)" />
<use xlink:href="#f1_24" transform="matrix(10.4,0,0,10.4,469.1,83.8)" />
<use xlink:href="#f1_24" transform="matrix(10.4,0,0,10.4,472.6,83.8)" />
<use xlink:href="#f1_c" transform="matrix(10.4,0,0,10.4,476.2,83.8)" />
</g>
<path d="M503,77.5h20.3" class="g1_71" />
<g fill="#000000" >
<use xlink:href="#f1_h" transform="matrix(10.6,0,0,10.6,553.9,81.7)" />
<use xlink:href="#f1_l" transform="matrix(10.6,0,0,10.6,503.6,97.4)" />
<use xlink:href="#f2_2j" transform="matrix(8,0,0,7.9,513.1,61.6)" />
<use xlink:href="#f2_20" transform="matrix(10.6,0,0,10.6,502.8,71.2)" />
<use xlink:href="#f2_1y" transform="matrix(10.6,0,0,10.6,545.2,81.7)" />
<use xlink:href="#f2_2j" transform="matrix(10.6,0,0,10.6,512.6,97.4)" />
<use xlink:href="#f3_f" transform="matrix(10.6,0,0,10.6,530.5,81.7)" />
<use xlink:href="#f1_b" transform="matrix(10.4,0,0,10.4,184.2,158.6)" />
<use xlink:href="#f1_24" transform="matrix(10.4,0,0,10.4,189.5,158.6)" />
<use xlink:href="#f1_2j" transform="matrix(10.4,0,0,10.4,193.1,158.6)" />
<use xlink:href="#f1_c" transform="matrix(10.4,0,0,10.4,201.1,158.6)" />
</g>
<path d="M228,151.3h42.4" class="g2_71" />
<path d="M275.7,149.2l1.5,-1.2l4,8.9l4.2,-23.4h69.8" class="g3_71" />
<path fill-rule="evenodd" d="M275.5,149l2.1,-1.6l3.6,7.4l3.9,-21.7h70.1v.8H285.7l-4.2,23h-.7l-4,-8.3l-1,.8l-.3,-.4Z" class="g4_71" />
<path d="M378.3,151.3h19m52.5,0h42.4" class="g2_71" />
<g fill="#000000" >
<use xlink:href="#f1_l" transform="matrix(7.9,0,0,7.9,388.2,135.5)" />
<use xlink:href="#f1_l" transform="matrix(7.9,0,0,7.9,346,146)" />
<use xlink:href="#f1_k" transform="matrix(7.9,0,0,7.9,429.7,146)" />
<use xlink:href="#f1_l" transform="matrix(10.5,0,0,10.5,285.7,155.6)" />
<use xlink:href="#f1_2e" transform="matrix(10.5,0,0,10.5,402,155.6)" />
<use xlink:href="#f1_24" transform="matrix(10.5,0,0,10.5,410.3,155.6)" />
<use xlink:href="#f1_29" transform="matrix(10.5,0,0,10.5,414.1,155.6)" />
<use xlink:href="#f1_l" transform="matrix(10.5,0,0,10.5,244.6,171.2)" />
<use xlink:href="#f1_l" transform="matrix(10.5,0,0,10.5,383.5,171.2)" />
<use xlink:href="#f3_h" transform="matrix(7.9,0,0,7.9,423,146)" />
<use xlink:href="#f3_h" transform="matrix(10.5,0,0,10.5,245.2,145.1)" />
<use xlink:href="#f3_h" transform="matrix(10.5,0,0,10.5,467.4,145.1)" />
<use xlink:href="#f3_4o" transform="matrix(10.5,0,0,10.5,440.2,146.3)" />
<use xlink:href="#f3_54" transform="matrix(10.5,0,0,10.5,494.1,146.3)" />
<use xlink:href="#f3_h" transform="matrix(10.5,0,0,10.5,320.1,155.6)" />
<use xlink:href="#f3_h" transform="matrix(10.5,0,0,10.5,362.3,155.6)" />
<use xlink:href="#f3_f" transform="matrix(10.5,0,0,10.5,508.6,155.6)" />
<use xlink:href="#f3_4p" transform="matrix(10.5,0,0,10.5,440.2,161.2)" />
<use xlink:href="#f3_55" transform="matrix(10.5,0,0,10.5,494.1,161.2)" />
<use xlink:href="#f3_4q" transform="matrix(10.5,0,0,10.5,440.2,167.8)" />
<use xlink:href="#f3_56" transform="matrix(10.5,0,0,10.5,494.1,167.8)" />
<use xlink:href="#f2_2j" transform="matrix(10.5,0,0,10.5,228.7,145.1)" />
<use xlink:href="#f2_1w" transform="matrix(10.5,0,0,10.5,260.2,145.1)" />
<use xlink:href="#f2_1w" transform="matrix(10.5,0,0,10.5,378.5,145.1)" />
<use xlink:href="#f2_2j" transform="matrix(10.5,0,0,10.5,450.9,145.1)" />
<use xlink:href="#f2_1w" transform="matrix(10.5,0,0,10.5,482.4,145.1)" />
<use xlink:href="#f2_1w" transform="matrix(10.5,0,0,10.5,294.2,155.6)" />
<use xlink:href="#f2_2j" transform="matrix(10.5,0,0,10.5,303.6,155.6)" />
<use xlink:href="#f2_2j" transform="matrix(10.5,0,0,10.5,335.8,155.6)" />
<use xlink:href="#f2_1y" transform="matrix(10.5,0,0,10.5,523.6,155.6)" />
<use xlink:href="#f2_1w" transform="matrix(10.5,0,0,10.5,466.3,171.2)" />
<use xlink:href="#f1_b" transform="matrix(10.4,0,0,10.4,187.9,235.6)" />
<use xlink:href="#f1_2j" transform="matrix(10.4,0,0,10.4,193.2,235.6)" />
<use xlink:href="#f1_c" transform="matrix(10.4,0,0,10.4,201.4,235.6)" />
</g>
<path d="M259.7,227.4h39" class="g5_71" />
<g fill="#000000" >
<use xlink:href="#f1_k" transform="matrix(10.4,0,0,10.4,291.7,221.2)" />
<use xlink:href="#f1_h" transform="matrix(10.4,0,0,10.4,338.4,231.6)" />
<use xlink:href="#f1_k" transform="matrix(10.4,0,0,10.4,291.8,247.1)" />
<use xlink:href="#f2_2j" transform="matrix(7.8,0,0,7.8,236.9,222.1)" />
<use xlink:href="#f2_2j" transform="matrix(10.4,0,0,10.4,260.9,221.2)" />
<use xlink:href="#f2_20" transform="matrix(10.4,0,0,10.4,226.6,231.6)" />
<use xlink:href="#f2_1y" transform="matrix(10.4,0,0,10.4,329.7,231.6)" />
<use xlink:href="#f2_2j" transform="matrix(10.4,0,0,10.4,260.8,247.1)" />
<use xlink:href="#f3_h" transform="matrix(10.4,0,0,10.4,277.6,221.2)" />
<use xlink:href="#f3_4o" transform="matrix(10.4,0,0,10.4,250.1,222.4)" />
<use xlink:href="#f3_54" transform="matrix(10.4,0,0,10.4,300.5,222.4)" />
<use xlink:href="#f3_f" transform="matrix(10.4,0,0,10.4,314.9,231.6)" />
<use xlink:href="#f3_4p" transform="matrix(10.4,0,0,10.4,250.1,236.9)" />
<use xlink:href="#f3_55" transform="matrix(10.4,0,0,10.4,300.5,236.9)" />
<use xlink:href="#f3_4q" transform="matrix(10.4,0,0,10.4,250.1,243.5)" />
<use xlink:href="#f3_56" transform="matrix(10.4,0,0,10.4,300.5,243.5)" />
<use xlink:href="#f3_f" transform="matrix(10.4,0,0,10.4,277.4,247.1)" />
<use xlink:href="#f1_b" transform="matrix(10.4,0,0,10.4,184.2,284.4)" />
<use xlink:href="#f1_2j" transform="matrix(10.4,0,0,10.4,189.5,284.4)" />
<use xlink:href="#f1_24" transform="matrix(10.4,0,0,10.4,197.8,284.4)" />
<use xlink:href="#f1_c" transform="matrix(10.4,0,0,10.4,201.3,284.4)" />
<use xlink:href="#f2_20" transform="matrix(10.4,0,0,10.4,224.9,284.4)" />
<use xlink:href="#f2_2j" transform="matrix(7.4,0,0,7.4,233.7,279)" />
<use xlink:href="#f1_2f" transform="matrix(10.4,0,0,10.4,246.2,284.4)" />
<use xlink:href="#f1_1w" transform="matrix(10.4,0,0,10.4,250.6,284.4)" />
<use xlink:href="#f1_29" transform="matrix(10.4,0,0,10.4,259.5,284.4)" />
<use xlink:href="#f2_2j" transform="matrix(10.4,0,0,10.4,275,284.4)" />
<use xlink:href="#f1_e" transform="matrix(10.4,0,0,10.4,289.8,284.4)" />
<use xlink:href="#f2_1y" transform="matrix(10.4,0,0,10.4,306.1,284.4)" />
<use xlink:href="#f1_h" transform="matrix(10.4,0,0,10.4,314.2,284.4)" />
<use xlink:href="#f1_b" transform="matrix(10.4,0,0,10.4,180.7,337.9)" />
<use xlink:href="#f1_2j" transform="matrix(10.4,0,0,10.4,186.1,337.9)" />
<use xlink:href="#f1_24" transform="matrix(10.4,0,0,10.4,194,337.9)" />
<use xlink:href="#f1_24" transform="matrix(10.4,0,0,10.4,197.6,337.9)" />
<use xlink:href="#f1_c" transform="matrix(10.4,0,0,10.4,201.1,337.9)" />
</g>
<path d="M268,323.8v18.3m41.1,-18.3v18.3m24.7,-8.9h37" class="g2_71" />
<g fill="#000000" >
<use xlink:href="#f1_27" transform="matrix(10.7,0,0,10.6,241.4,337.5)" />
<use xlink:href="#f1_2a" transform="matrix(10.7,0,0,10.6,245.1,337.5)" />
<use xlink:href="#f1_22" transform="matrix(10.7,0,0,10.6,254.5,337.5)" />
<use xlink:href="#f1_27" transform="matrix(10.7,0,0,10.6,270.5,337.5)" />
<use xlink:href="#f1_2a" transform="matrix(10.7,0,0,10.6,274.3,337.5)" />
<use xlink:href="#f1_22" transform="matrix(10.7,0,0,10.6,283.7,337.5)" />
<use xlink:href="#f1_99" transform="matrix(10.7,0,0,10.6,317.5,337.5)" />
<use xlink:href="#f1_h" transform="matrix(10.7,0,0,10.6,401.9,337.5)" />
<use xlink:href="#f1_27" transform="matrix(10.7,0,0,10.6,334.2,353.2)" />
<use xlink:href="#f1_2a" transform="matrix(10.7,0,0,10.6,338,353.2)" />
<use xlink:href="#f1_22" transform="matrix(10.7,0,0,10.6,347.3,353.2)" />
<use xlink:href="#f2_2j" transform="matrix(10.7,0,0,10.6,347.6,327)" />
<use xlink:href="#f2_2j" transform="matrix(10.7,0,0,10.6,227.7,337.5)" />
<use xlink:href="#f2_2j" transform="matrix(10.7,0,0,10.6,296.6,337.5)" />
<use xlink:href="#f2_1y" transform="matrix(10.7,0,0,10.6,393.2,337.5)" />
<use xlink:href="#f2_2j" transform="matrix(10.7,0,0,10.6,360.2,353.2)" />
<use xlink:href="#f3_f" transform="matrix(10.6,0,0,10.6,378.3,337.5)" />
<use xlink:href="#f1_1q" transform="matrix(10.4,0,0,10.4,408.4,337.9)" />
<use xlink:href="#f4_17" transform="matrix(10.4,0,0,10.4,412.8,337.9)" />
<use xlink:href="#f4_24" transform="matrix(10.4,0,0,10.4,424.4,337.9)" />
<use xlink:href="#f4_29" transform="matrix(10.4,0,0,10.4,428.8,337.9)" />
<use xlink:href="#f4_2f" transform="matrix(10.4,0,0,10.4,438.5,337.9)" />
<use xlink:href="#f4_t" transform="matrix(10.4,0,0,10.4,450.5,337.9)" />
<use xlink:href="#f1_2b" transform="matrix(10.4,0,0,10.4,462.5,337.9)" />
<use xlink:href="#f1_2g" transform="matrix(10.4,0,0,10.4,471.4,337.9)" />
<use xlink:href="#f1_2f" transform="matrix(10.4,0,0,10.4,480.3,337.9)" />
<use xlink:href="#f1_27" transform="matrix(10.4,0,0,10.4,491.5,337.9)" />
<use xlink:href="#f1_2a" transform="matrix(10.4,0,0,10.4,495,337.9)" />
<use xlink:href="#f1_22" transform="matrix(10.4,0,0,10.4,503.9,337.9)" />
<use xlink:href="#f2_2j" transform="matrix(10.4,0,0,10.4,519.2,337.9)" />
<use xlink:href="#f1_w" transform="matrix(10.4,0,0,10.4,534,337.9)" />
<use xlink:href="#f2_2f" transform="matrix(10.4,0,0,10.4,550.2,337.9)" />
<use xlink:href="#f3_4g" transform="matrix(10.4,0,0,10.4,561.3,337.9)" />
<use xlink:href="#f2_2j" transform="matrix(10.4,0,0,10.4,583.9,337.9)" />
<use xlink:href="#f1_w" transform="matrix(10.4,0,0,10.4,598.7,337.9)" />
<use xlink:href="#f2_20" transform="matrix(10.4,0,0,10.4,614.9,337.9)" />
<use xlink:href="#f2_2f" transform="matrix(7.4,0,0,7.4,623.7,332.6)" />
<use xlink:href="#f1_1s" transform="matrix(10.4,0,0,10.4,627.7,337.9)" />
<use xlink:href="#f1_b" transform="matrix(10.4,0,0,10.4,177.3,419.3)" />
<use xlink:href="#f1_2j" transform="matrix(10.4,0,0,10.4,182.6,419.3)" />
<use xlink:href="#f1_24" transform="matrix(10.4,0,0,10.4,190.5,419.3)" />
<use xlink:href="#f1_24" transform="matrix(10.4,0,0,10.4,194.1,419.3)" />
<use xlink:href="#f1_24" transform="matrix(10.4,0,0,10.4,197.6,419.3)" />
<use xlink:href="#f1_c" transform="matrix(10.4,0,0,10.4,201.2,419.3)" />
<use xlink:href="#f3_c" transform="matrix(10.5,0,0,16.3,249.2,417)" />
<use xlink:href="#f3_d" transform="matrix(10.5,0,0,16.3,339.9,417)" />
</g>
<path d="M355.6,395.5l-3.8,12" class="g6_71" />
<path d="M266.3,452.7h47.9" class="g7_71" />
<path d="M319.6,450.7l1.5,-1.2l4,8.8l4.2,-23.4h83.5" class="g3_71" />
<path fill-rule="evenodd" d="M319.4,450.5l2.1,-1.7l3.6,7.4L329,434.6h83.8v.7H329.6l-4.2,23h-.7l-4,-8.2l-1,.8l-.3,-.4Z" class="g4_71" />
<path d="M436.2,452.7h19.6m52.6,0h47.9" class="g7_71" />
<g fill="#000000" >
<use xlink:href="#f1_m" transform="matrix(7.9,0,0,7.9,345.3,404.9)" />
<use xlink:href="#f1_l" transform="matrix(7.9,0,0,7.9,356.4,404.9)" />
<use xlink:href="#f1_l" transform="matrix(7.9,0,0,7.9,330,410.7)" />
<use xlink:href="#f1_l" transform="matrix(7.9,0,0,7.9,403.7,447.5)" />
<use xlink:href="#f1_k" transform="matrix(7.9,0,0,7.9,488.2,447.5)" />
<use xlink:href="#f1_l" transform="matrix(10.5,0,0,10.5,236.7,420.4)" />
<use xlink:href="#f1_p" transform="matrix(10.5,0,0,10.5,256.1,420.4)" />
<use xlink:href="#f1_l" transform="matrix(10.5,0,0,10.5,267,446.7)" />
<use xlink:href="#f1_k" transform="matrix(10.5,0,0,10.5,307.3,446.7)" />
<use xlink:href="#f1_l" transform="matrix(10.5,0,0,10.5,437,446.7)" />
<use xlink:href="#f1_o" transform="matrix(10.5,0,0,10.5,446.3,446.7)" />
<use xlink:href="#f1_l" transform="matrix(10.5,0,0,10.5,509.2,446.7)" />
<use xlink:href="#f1_k" transform="matrix(10.5,0,0,10.5,549.5,446.7)" />
<use xlink:href="#f1_r" transform="matrix(10.5,0,0,10.5,244.6,457.1)" />
<use xlink:href="#f1_p" transform="matrix(10.5,0,0,10.5,329.8,457.1)" />
<use xlink:href="#f1_2e" transform="matrix(10.5,0,0,10.5,460.5,457.1)" />
<use xlink:href="#f1_24" transform="matrix(10.5,0,0,10.5,468.9,457.1)" />
<use xlink:href="#f1_29" transform="matrix(10.5,0,0,10.5,472.6,457.1)" />
<use xlink:href="#f1_n" transform="matrix(10.5,0,0,10.5,285.9,472.7)" />
<use xlink:href="#f1_r" transform="matrix(10.5,0,0,10.5,441.7,472.7)" />
<use xlink:href="#f1_o" transform="matrix(10.5,0,0,10.5,528.1,472.7)" />
<use xlink:href="#f3_h" transform="matrix(7.9,0,0,7.9,481.5,447.5)" />
<use xlink:href="#f3_h" transform="matrix(10.5,0,0,10.5,227.7,420.4)" />
<use xlink:href="#f3_f" transform="matrix(10.5,0,0,10.5,271.6,420.4)" />
<use xlink:href="#f3_h" transform="matrix(10.5,0,0,10.5,304.1,420.4)" />
<use xlink:href="#f3_h" transform="matrix(10.5,0,0,10.5,292.8,446.7)" />
<use xlink:href="#f3_h" transform="matrix(10.5,0,0,10.5,535,446.7)" />
<use xlink:href="#f3_4r" transform="matrix(10.5,0,0,10.5,258,446.7)" />
<use xlink:href="#f3_57" transform="matrix(10.5,0,0,10.5,567.9,446.7)" />
<use xlink:href="#f3_4o" transform="matrix(10.5,0,0,10.5,498.7,447.8)" />
<use xlink:href="#f3_54" transform="matrix(10.5,0,0,10.5,558.2,447.8)" />
<use xlink:href="#f3_f" transform="matrix(10.5,0,0,10.5,227.7,457.1)" />
<use xlink:href="#f3_f" transform="matrix(10.5,0,0,10.5,345.3,457.1)" />
<use xlink:href="#f3_h" transform="matrix(10.5,0,0,10.5,377.7,457.1)" />
<use xlink:href="#f3_f" transform="matrix(10.5,0,0,10.5,420,457.1)" />
<use xlink:href="#f3_f" transform="matrix(10.5,0,0,10.5,580.9,457.1)" />
<use xlink:href="#f3_4s" transform="matrix(10.5,0,0,10.5,258,462.2)" />
<use xlink:href="#f3_58" transform="matrix(10.5,0,0,10.5,567.9,462.2)" />
<use xlink:href="#f3_4p" transform="matrix(10.5,0,0,10.5,498.7,462.7)" />
<use xlink:href="#f3_55" transform="matrix(10.5,0,0,10.5,558.2,462.7)" />
<use xlink:href="#f3_4q" transform="matrix(10.5,0,0,10.5,498.7,469.3)" />
<use xlink:href="#f3_56" transform="matrix(10.5,0,0,10.5,558.2,469.3)" />
<use xlink:href="#f3_4t" transform="matrix(10.5,0,0,10.5,258,473.9)" />
<use xlink:href="#f3_59" transform="matrix(10.5,0,0,10.5,567.9,473.9)" />
<use xlink:href="#f2_2j" transform="matrix(10.5,0,0,10.5,287.6,420.4)" />
<use xlink:href="#f2_2j" transform="matrix(10.5,0,0,10.5,319.8,420.4)" />
<use xlink:href="#f2_2j" transform="matrix(10.5,0,0,10.5,276.3,446.7)" />
<use xlink:href="#f2_2j" transform="matrix(10.5,0,0,10.5,518.5,446.7)" />
<use xlink:href="#f2_2j" transform="matrix(10.5,0,0,10.5,361.2,457.1)" />
<use xlink:href="#f2_2j" transform="matrix(10.5,0,0,10.5,393.5,457.1)" />
<use xlink:href="#f2_1y" transform="matrix(10.5,0,0,10.5,595.8,457.1)" />
<use xlink:href="#f1_b" transform="matrix(10.4,0,0,10.4,176.2,539)" />
<use xlink:href="#f1_2j" transform="matrix(10.4,0,0,10.4,181.5,539)" />
<use xlink:href="#f1_24" transform="matrix(10.4,0,0,10.4,189.4,539)" />
<use xlink:href="#f1_2h" transform="matrix(10.4,0,0,10.4,193,539)" />
<use xlink:href="#f1_c" transform="matrix(10.4,0,0,10.4,201,539)" />
</g>
<path d="M228,533.6h10.3" class="g8_71" />
<g fill="#000000" >
<use xlink:href="#f3_c" transform="matrix(10.4,0,0,11.1,242.7,535.8)" />
<use xlink:href="#f3_d" transform="matrix(10.4,0,0,11.1,292.4,535.8)" />
</g>
<path d="M302,531.6l1.5,-1.2l4,8.8L311.7,516h50.8" class="g3_71" />
<path fill-rule="evenodd" d="M301.8,531.4l2.1,-1.6l3.6,7.3l4,-21.5h51v.8H312.1l-4.2,22.8h-.8l-4,-8.2l-1,.8l-.3,-.4Z" class="g4_71" />
<path d="M385.7,533.6H396" class="g8_71" />
<path d="M462.9,531.6l1.5,-1.2l4,8.8L472.6,516h50.8" class="g3_71" />
<path fill-rule="evenodd" d="M462.8,531.4l2.1,-1.6l3.5,7.3l4,-21.5h51v.8H473l-4.2,22.8H468L464,531l-1,.8l-.2,-.4Z" class="g4_71" />
<path d="M426.8,514.5v25.8m99.7,-25.8v25.8" class="g8_71" />
<g fill="#000000" >
<use xlink:href="#f1_l" transform="matrix(7.8,0,0,7.8,322.5,528.3)" />
<use xlink:href="#f1_l" transform="matrix(7.8,0,0,7.8,483.5,528.3)" />
<use xlink:href="#f1_k" transform="matrix(10.4,0,0,10.4,229.4,527.5)" />
<use xlink:href="#f1_m" transform="matrix(10.4,0,0,10.4,386.3,527.5)" />
<use xlink:href="#f1_l" transform="matrix(10.4,0,0,10.4,281.8,537.9)" />
<use xlink:href="#f1_s" transform="matrix(10.4,0,0,10.4,352.9,537.9)" />
<use xlink:href="#f1_27" transform="matrix(10.4,0,0,10.4,400,537.9)" />
<use xlink:href="#f1_2a" transform="matrix(10.4,0,0,10.4,403.8,537.9)" />
<use xlink:href="#f1_22" transform="matrix(10.4,0,0,10.4,413.1,537.9)" />
<use xlink:href="#f1_s" transform="matrix(10.4,0,0,10.4,513.8,537.9)" />
<use xlink:href="#f1_l" transform="matrix(10.4,0,0,10.4,228.6,553.3)" />
<use xlink:href="#f1_l" transform="matrix(10.4,0,0,10.4,386.3,553.3)" />
<use xlink:href="#f3_f" transform="matrix(10.5,0,0,10.4,266.1,537.9)" />
<use xlink:href="#f3_h" transform="matrix(10.5,0,0,10.4,337.7,537.9)" />
<use xlink:href="#f3_h" transform="matrix(10.5,0,0,10.4,369.7,537.9)" />
<use xlink:href="#f3_f" transform="matrix(10.5,0,0,10.4,446.5,537.9)" />
<use xlink:href="#f3_h" transform="matrix(10.5,0,0,10.4,498.6,537.9)" />
<use xlink:href="#f3_f" transform="matrix(10.5,0,0,10.4,534.5,537.9)" />
<use xlink:href="#f2_2j" transform="matrix(10.4,0,0,10.4,249.6,537.9)" />
<use xlink:href="#f2_2j" transform="matrix(10.4,0,0,10.4,312.3,537.9)" />
<use xlink:href="#f2_2j" transform="matrix(10.4,0,0,10.4,429.9,537.9)" />
<use xlink:href="#f2_2j" transform="matrix(10.4,0,0,10.4,473.3,537.9)" />
<use xlink:href="#f2_1y" transform="matrix(10.4,0,0,10.4,549.4,537.9)" />
<use xlink:href="#f1_b" transform="matrix(10.4,0,0,10.4,179.6,619.5)" />
<use xlink:href="#f1_2j" transform="matrix(10.4,0,0,10.4,185,619.5)" />
<use xlink:href="#f1_2h" transform="matrix(10.4,0,0,10.4,193.2,619.5)" />
<use xlink:href="#f1_c" transform="matrix(10.4,0,0,10.4,201.2,619.5)" />
</g>
<path d="M228,611.6h10.2" class="g2_71" />
<g fill="#000000" >
<use xlink:href="#f3_c" transform="matrix(10.5,0,0,16.2,242.4,612.6)" />
<use xlink:href="#f3_d" transform="matrix(10.5,0,0,16.2,342.2,612.6)" />
</g>
<path d="M358.7,589.8l-10.7,15" class="g9_71" />
<path d="M392.8,611.6h42.4" class="g2_71" />
<path d="M449.5,609.6l1.5,-1.3l4,8.9l4.3,-23.3h92.3" class="g3_71" />
<path fill-rule="evenodd" d="M449.4,609.4l2.1,-1.7l3.5,7.4l4,-21.6h92.6v.8h-92l-4.2,22.9h-.8L450.7,609l-1,.8l-.3,-.4Z" class="g4_71" />
<path d="M241.6,659.7h10.3" class="g2_71" />
<path d="M349.7,657.6l1.5,-1.2l4,8.8L359.4,642h92.4" class="g3_71" />
<path fill-rule="evenodd" d="M349.5,657.4l2.1,-1.6l3.6,7.4l3.9,-21.6h92.7v.7h-92l-4.2,22.9h-.8l-4,-8.2l-1,.8l-.3,-.4Z" class="g4_71" />
<path d="M282.7,640.5v25.8M454.9,640.5v25.8" class="g2_71" />
<g fill="#000000" >
<use xlink:href="#f1_m" transform="matrix(6.3,0,0,6.3,347.5,597.2)" />
<use xlink:href="#f1_l" transform="matrix(6.3,0,0,6.3,353.9,604.8)" />
<use xlink:href="#f1_l" transform="matrix(7.9,0,0,7.8,259.6,606.3)" />
<use xlink:href="#f1_l" transform="matrix(7.9,0,0,7.8,470.3,606.3)" />
<use xlink:href="#f1_l" transform="matrix(7.9,0,0,7.8,370.3,654.3)" />
<use xlink:href="#f1_l" transform="matrix(10.5,0,0,10.4,228.6,605.5)" />
<use xlink:href="#f1_l" transform="matrix(10.5,0,0,10.4,425.9,605.5)" />
<use xlink:href="#f1_n" transform="matrix(10.5,0,0,10.4,290.2,615.8)" />
<use xlink:href="#f1_m" transform="matrix(10.5,0,0,10.4,331.7,615.8)" />
<use xlink:href="#f1_n" transform="matrix(10.5,0,0,10.4,500.9,615.8)" />
<use xlink:href="#f1_m" transform="matrix(10.5,0,0,10.4,542.4,615.8)" />
<use xlink:href="#f1_m" transform="matrix(10.5,0,0,10.4,228.6,631.3)" />
<use xlink:href="#f1_l" transform="matrix(10.5,0,0,10.4,409.7,631.3)" />
<use xlink:href="#f1_k" transform="matrix(10.5,0,0,10.4,243,653.5)" />
<use xlink:href="#f1_27" transform="matrix(10.5,0,0,10.4,255.9,663.9)" />
<use xlink:href="#f1_2a" transform="matrix(10.5,0,0,10.4,259.7,663.9)" />
<use xlink:href="#f1_22" transform="matrix(10.5,0,0,10.4,269,663.9)" />
<use xlink:href="#f1_l" transform="matrix(10.5,0,0,10.4,317.8,663.9)" />
<use xlink:href="#f1_n" transform="matrix(10.5,0,0,10.4,400.9,663.9)" />
<use xlink:href="#f1_m" transform="matrix(10.5,0,0,10.4,442.4,663.9)" />
<use xlink:href="#f1_l" transform="matrix(10.5,0,0,10.4,242.2,679.4)" />
<use xlink:href="#f3_h" transform="matrix(10.5,0,0,10.4,410.4,605.5)" />
<use xlink:href="#f3_4o" transform="matrix(10.5,0,0,10.4,383.1,606.6)" />
<use xlink:href="#f3_54" transform="matrix(10.5,0,0,10.4,437.1,606.6)" />
<use xlink:href="#f3_h" transform="matrix(10.5,0,0,10.4,274.7,615.8)" />
<use xlink:href="#f3_f" transform="matrix(10.5,0,0,10.4,316,615.8)" />
<use xlink:href="#f3_h" transform="matrix(10.5,0,0,10.4,367.8,615.8)" />
<use xlink:href="#f3_h" transform="matrix(10.5,0,0,10.4,485.4,615.8)" />
<use xlink:href="#f3_f" transform="matrix(10.5,0,0,10.4,526.7,615.8)" />
<use xlink:href="#f3_4p" transform="matrix(10.5,0,0,10.4,383.1,621.2)" />
<use xlink:href="#f3_55" transform="matrix(10.5,0,0,10.4,437.1,621.2)" />
<use xlink:href="#f3_4q" transform="matrix(10.5,0,0,10.4,383.1,627.7)" />
<use xlink:href="#f3_56" transform="matrix(10.5,0,0,10.4,437.1,627.7)" />
<use xlink:href="#f3_f" transform="matrix(10.5,0,0,10.4,227.6,663.9)" />
<use xlink:href="#f3_h" transform="matrix(10.5,0,0,10.4,302.3,663.9)" />
<use xlink:href="#f3_f" transform="matrix(10.5,0,0,10.4,333.3,663.9)" />
<use xlink:href="#f3_h" transform="matrix(10.5,0,0,10.4,385.5,663.9)" />
<use xlink:href="#f3_f" transform="matrix(10.5,0,0,10.4,426.7,663.9)" />
<use xlink:href="#f3_f" transform="matrix(10.5,0,0,10.4,463.1,663.9)" />
<use xlink:href="#f2_2j" transform="matrix(10.5,0,0,10.4,393.9,605.5)" />
<use xlink:href="#f2_2j" transform="matrix(10.5,0,0,10.4,249.5,615.8)" />
<use xlink:href="#f2_2j" transform="matrix(10.5,0,0,10.4,299.5,615.8)" />
<use xlink:href="#f2_2j" transform="matrix(10.5,0,0,10.4,460.1,615.8)" />
<use xlink:href="#f2_2j" transform="matrix(10.5,0,0,10.4,510.2,615.8)" />
<use xlink:href="#f2_2j" transform="matrix(10.5,0,0,10.4,285.8,663.9)" />
<use xlink:href="#f2_2j" transform="matrix(10.5,0,0,10.4,360.2,663.9)" />
<use xlink:href="#f2_2j" transform="matrix(10.5,0,0,10.4,410.2,663.9)" />
<use xlink:href="#f2_1y" transform="matrix(10.5,0,0,10.4,478,663.9)" />
<use xlink:href="#f1_b" transform="matrix(10.4,0,0,10.4,176.2,742.3)" />
<use xlink:href="#f1_2j" transform="matrix(10.4,0,0,10.4,181.5,742.3)" />
<use xlink:href="#f1_2h" transform="matrix(10.4,0,0,10.4,189.4,742.3)" />
<use xlink:href="#f1_24" transform="matrix(10.4,0,0,10.4,197.7,742.3)" />
<use xlink:href="#f1_c" transform="matrix(10.4,0,0,10.4,201.2,742.3)" />
</g>
<path d="M237,734h42.4" class="g2_71" />
<path d="M293.7,732l1.6,-1.2l3.9,8.7l4.3,-23.1h92.3" class="g3_71" />
<path fill-rule="evenodd" d="M293.6,731.8l2.1,-1.7l3.5,7.4l4,-21.5h92.6v.8h-92l-4.2,22.8h-.8l-3.9,-8.2l-1,.8l-.3,-.4Z" class="g4_71" />
<g fill="#000000" >
<use xlink:href="#f3_c" transform="matrix(10.4,0,0,11.1,460.6,736.1)" />
<use xlink:href="#f3_d" transform="matrix(10.4,0,0,11.1,510,736.1)" />
</g>
<path d="M537.8,732l1.5,-1.2l4,8.7l4.2,-23.1h92.4" class="g3_71" />
<path fill-rule="evenodd" d="M537.6,731.8l2.1,-1.7l3.6,7.4L547.2,716h92.7v.8h-92l-4.2,22.8h-.8l-4,-8.2l-1,.8l-.3,-.4Z" class="g4_71" />
<path d="M457.8,714.9v25.7M643,714.9v25.7" class="g2_71" />
<g fill="#000000" >
<use xlink:href="#f1_l" transform="matrix(7.8,0,0,7.8,314.3,728.7)" />
<use xlink:href="#f1_l" transform="matrix(7.8,0,0,7.8,558.6,728.7)" />
<use xlink:href="#f1_l" transform="matrix(10.4,0,0,10.4,269.8,727.9)" />
<use xlink:href="#f1_n" transform="matrix(10.4,0,0,10.4,344.8,738.2)" />
<use xlink:href="#f1_r" transform="matrix(10.4,0,0,10.4,386.3,738.2)" />
<use xlink:href="#f1_l" transform="matrix(10.4,0,0,10.4,418.8,738.2)" />
<use xlink:href="#f1_27" transform="matrix(10.4,0,0,10.4,431.2,738.2)" />
<use xlink:href="#f1_2a" transform="matrix(10.4,0,0,10.4,435,738.2)" />
<use xlink:href="#f1_22" transform="matrix(10.4,0,0,10.4,444.3,738.2)" />
<use xlink:href="#f1_l" transform="matrix(10.4,0,0,10.4,499.6,738.2)" />
<use xlink:href="#f1_n" transform="matrix(10.4,0,0,10.4,589.2,738.2)" />
<use xlink:href="#f1_r" transform="matrix(10.4,0,0,10.4,630.7,738.2)" />
<use xlink:href="#f1_l" transform="matrix(10.4,0,0,10.4,253.7,753.7)" />
<use xlink:href="#f3_h" transform="matrix(10.5,0,0,10.4,254.3,727.9)" />
<use xlink:href="#f3_4o" transform="matrix(10.5,0,0,10.4,227.1,729)" />
<use xlink:href="#f3_54" transform="matrix(10.5,0,0,10.4,281.1,729)" />
<use xlink:href="#f3_h" transform="matrix(10.5,0,0,10.4,329.4,738.2)" />
<use xlink:href="#f3_f" transform="matrix(10.5,0,0,10.4,370.7,738.2)" />
<use xlink:href="#f3_f" transform="matrix(10.5,0,0,10.4,403.1,738.2)" />
<use xlink:href="#f3_h" transform="matrix(10.5,0,0,10.4,484.2,738.2)" />
<use xlink:href="#f3_f" transform="matrix(10.5,0,0,10.4,521.7,738.2)" />
<use xlink:href="#f3_h" transform="matrix(10.5,0,0,10.4,573.8,738.2)" />
<use xlink:href="#f3_f" transform="matrix(10.5,0,0,10.4,615.1,738.2)" />
<use xlink:href="#f3_f" transform="matrix(10.5,0,0,10.4,651.4,738.2)" />
<use xlink:href="#f3_4p" transform="matrix(10.5,0,0,10.4,227.1,743.5)" />
<use xlink:href="#f3_55" transform="matrix(10.5,0,0,10.4,281.1,743.5)" />
<use xlink:href="#f3_4q" transform="matrix(10.5,0,0,10.4,227.1,750.1)" />
<use xlink:href="#f3_56" transform="matrix(10.5,0,0,10.4,281.1,750.1)" />
<use xlink:href="#f2_2j" transform="matrix(10.4,0,0,10.4,237.8,727.9)" />
<use xlink:href="#f2_2j" transform="matrix(10.4,0,0,10.4,304.1,738.2)" />
<use xlink:href="#f2_2j" transform="matrix(10.4,0,0,10.4,354.1,738.2)" />
<use xlink:href="#f2_2j" transform="matrix(10.4,0,0,10.4,467.7,738.2)" />
<use xlink:href="#f2_2j" transform="matrix(10.4,0,0,10.4,548.5,738.2)" />
<use xlink:href="#f2_2j" transform="matrix(10.4,0,0,10.4,598.5,738.2)" />
<use xlink:href="#f2_1y" transform="matrix(10.4,0,0,10.4,666.3,738.2)" />
<use xlink:href="#f1_n" transform="matrix(10.4,0,0,10.4,138.9,807.2)" />
<use xlink:href="#f1_o" transform="matrix(10.4,0,0,10.4,147.8,807.2)" />
<use xlink:href="#f1_h" transform="matrix(10.4,0,0,10.4,157,807.2)" />
<use xlink:href="#f1_b" transform="matrix(10.4,0,0,10.4,192.5,807.2)" />
<use xlink:href="#f1_24" transform="matrix(10.4,0,0,10.4,197.8,807.2)" />
<use xlink:href="#f1_c" transform="matrix(10.4,0,0,10.4,201.3,807.2)" />
</g>
<path d="M228,798.3h19.6" class="g2_71" />
<g fill="#000000" >
<use xlink:href="#f1_k" transform="matrix(10.5,0,0,10.5,234,792.2)" />
<use xlink:href="#f1_27" transform="matrix(10.5,0,0,10.5,251.7,802.6)" />
<use xlink:href="#f1_2a" transform="matrix(10.5,0,0,10.5,255.5,802.6)" />
<use xlink:href="#f1_22" transform="matrix(10.5,0,0,10.5,264.8,802.6)" />
<use xlink:href="#f1_m" transform="matrix(10.5,0,0,10.5,277.6,802.6)" />
<use xlink:href="#f1_h" transform="matrix(10.5,0,0,10.5,286.9,802.6)" />
<use xlink:href="#f1_l" transform="matrix(10.5,0,0,10.5,228.7,818.2)" />
<use xlink:href="#f1_j" transform="matrix(10.5,0,0,10.5,238.1,818.2)" />
<use xlink:href="#f1_b" transform="matrix(10.4,0,0,10.4,463.8,807.2)" />
<use xlink:href="#f1_24" transform="matrix(10.4,0,0,10.4,469.1,807.2)" />
<use xlink:href="#f1_24" transform="matrix(10.4,0,0,10.4,472.7,807.2)" />
<use xlink:href="#f1_c" transform="matrix(10.4,0,0,10.4,476.2,807.2)" />
</g>
<path d="M517.2,801.3h10.7" class="g2_71" />
<g fill="#000000" >
<use xlink:href="#f3_2c" transform="matrix(10.5,0,0,10.5,518.2,795.1)" />
<use xlink:href="#f1_99" transform="matrix(10.5,0,0,10.5,503,805.5)" />
<use xlink:href="#f1_n" transform="matrix(10.5,0,0,10.5,518.2,821.1)" />
<use xlink:href="#f5_l" transform="matrix(8,0,0,8,723.2,1122.4)" />
<use xlink:href="#f5_q" transform="matrix(8,0,0,8,730,1122.4)" />
</g>
<g fill="#0080FF" fill-opacity="0.5" >
<use xlink:href="#f0_1c" transform="matrix(42.3,0,0,42.3,202.9,1095.2)" />
<use xlink:href="#f0_21" transform="matrix(42.3,0,0,42.3,238.8,1095.2)" />
<use xlink:href="#f0_1x" transform="matrix(42.3,0,0,42.3,274.7,1095.2)" />
<use xlink:href="#f0_2e" transform="matrix(42.3,0,0,42.3,310.7,1095.2)" />
<use xlink:href="#f0_2a" transform="matrix(42.3,0,0,42.3,332.2,1095.2)" />
<use xlink:href="#f0_17" transform="matrix(42.3,0,0,42.3,368.1,1095.2)" />
<use xlink:href="#f0_2h" transform="matrix(42.3,0,0,42.3,418.4,1095.2)" />
<use xlink:href="#f0_25" transform="matrix(42.3,0,0,42.3,454.3,1095.2)" />
<use xlink:href="#f0_20" transform="matrix(42.3,0,0,42.3,468.7,1095.2)" />
<use xlink:href="#f0_21" transform="matrix(42.3,0,0,42.3,504.6,1095.2)" />
<use xlink:href="#f0_i" transform="matrix(42.3,0,0,42.3,540.5,1095.2)" />
<use xlink:href="#f0_25" transform="matrix(42.3,0,0,42.3,558.5,1095.2)" />
<use xlink:href="#f0_2a" transform="matrix(42.3,0,0,42.3,572.8,1095.2)" />
</g>
<defs>
<path d="M593,101c0,0,182,0,279,112c0,0,98,113,98,318c0,0,0,196,-98,308c0,0,-98,112,-277,112c0,0,-181,0,-279,-110c0,0,-99,-111,-99,-310c0,0,0,-198,100,-314c0,0,99,-116,276,-116Zm0,-115c0,0,-162,0,-279,65c0,0,-118,66,-180,190c0,0,-62,124,-62,290c0,0,0,252,138,394c0,0,138,142,385,142c0,0,160,0,278,-64c0,0,118,-64,180,-185c0,0,62,-122,62,-287c0,0,0,-165,-63,-289c0,0,-63,-124,-181,-190c0,0,-118,-66,-278,-66Z" 
id="f0_1f"
transform="scale(0.001,-0.001)" />

<path d="M106,0V635c0,0,0,141,-5,173H228c0,0,1,-4,2,-21c0,0,1,-16,2,-37c0,0,1,-22,2,-81h2c0,0,47,84,108,119c0,0,60,34,151,34c0,0,132,0,194,-66c0,0,61,-66,61,-218V0H615V512c0,0,0,80,-15,124c0,0,-16,44,-50,63c0,0,-35,20,-101,20c0,0,-97,0,-153,-67c0,0,-56,-66,-56,-184V0Z" 
id="f0_2a"
transform="scale(0.001,-0.001)" />

<path d="M103,0V1107H237V0Z" 
id="f0_28"
transform="scale(0.001,-0.001)" />

<path d="M102,0V808H236V0Zm0,979v128H236V979Z" 
id="f0_25"
transform="scale(0.001,-0.001)" />

<path d="M643,478c0,0,-11,128,-65,187c0,0,-54,59,-154,59c0,0,-98,0,-155,-66c0,0,-57,-65,-62,-180ZM431,-14c0,0,-179,0,-272,106c0,0,-94,107,-94,317c0,0,0,200,94,307c0,0,93,106,267,106c0,0,356,0,356,-429V375H206c0,0,0,-138,57,-213c0,0,58,-75,168,-75c0,0,87,0,140,35c0,0,53,35,71,88L760,177c0,0,-72,-191,-329,-191Z" 
id="f0_21"
transform="scale(0.001,-0.001)" />

<path d="M17,0L304,415L31,808H179L380,493L580,808H730L457,417L747,0H598L380,331L162,0Z" 
id="f0_2k"
transform="scale(0.001,-0.001)" />

<path d="M339,87c0,0,74,0,132,34c0,0,57,33,90,91c0,0,34,59,34,121v66L448,396c0,0,-95,-2,-144,-19c0,0,-49,-18,-75,-55c0,0,-26,-38,-26,-98c0,0,0,-65,35,-101c0,0,36,-36,101,-36ZM309,-14c0,0,-122,0,-183,64c0,0,-61,64,-61,176c0,0,0,125,82,192c0,0,83,67,266,72l182,3v44c0,0,0,98,-42,141c0,0,-42,43,-132,43c0,0,-90,0,-131,-31c0,0,-41,-31,-49,-98L101,604c0,0,34,218,323,218c0,0,153,0,229,-70c0,0,77,-69,77,-202V202c0,0,0,-59,16,-90c0,0,16,-30,60,-30c0,0,19,0,44,5V4C850,4,799,-7,746,-7c0,0,-75,0,-109,38c0,0,-33,40,-38,124h-4C595,155,543,62,475,24c0,0,-68,-38,-166,-38Z" 
id="f0_1x"
transform="scale(0.001,-0.001)" />

<path d="M106,0V635c0,0,0,141,-5,173H228c0,0,1,-4,2,-21c0,0,1,-16,2,-37c0,0,1,-22,2,-81h2c0,0,44,86,100,120c0,0,56,33,136,33c0,0,92,0,145,-36c0,0,54,-37,75,-117h2c0,0,42,82,101,117c0,0,59,36,143,36c0,0,123,0,178,-66c0,0,56,-67,56,-218V0H1039V512c0,0,0,117,-32,162c0,0,-32,45,-116,45c0,0,-88,0,-136,-66c0,0,-49,-65,-49,-185V0H573V512c0,0,0,117,-32,162c0,0,-32,45,-116,45c0,0,-86,0,-136,-66c0,0,-50,-66,-50,-185V0Z" 
id="f0_29"
transform="scale(0.001,-0.001)" />

<path d="M453,84c0,0,100,0,146,74c0,0,46,73,46,247c0,0,0,169,-46,241c0,0,-45,73,-145,73c0,0,-80,0,-125,-34c0,0,-45,-34,-68,-105c0,0,-24,-71,-24,-186c0,0,0,-159,51,-234c0,0,51,-76,165,-76ZM103,-316V643c0,0,0,124,-5,165H228c0,0,1,-3,3,-22c0,0,1,-18,3,-56c0,0,2,-38,2,-52h3c0,0,36,75,94,110c0,0,59,34,156,34c0,0,149,0,223,-100c0,0,74,-100,74,-314c0,0,0,-422,-297,-422c0,0,-187,0,-251,140h-4c0,0,3,-6,3,-126V-316Z" 
id="f0_2c"
transform="scale(0.001,-0.001)" />

<path d="M420,84c0,0,121,0,173,78c0,0,52,77,52,243c0,0,0,167,-50,243c0,0,-50,76,-167,76c0,0,-118,0,-170,-78c0,0,-53,-77,-53,-241c0,0,0,-160,52,-241c0,0,52,-80,163,-80Zm1,-98c0,0,-176,0,-267,107c0,0,-90,108,-90,312c0,0,0,417,362,417c0,0,185,0,272,-102c0,0,88,-101,88,-315c0,0,0,-212,-94,-316C692,89,599,-14,421,-14Z" 
id="f0_2b"
transform="scale(0.001,-0.001)" />

<path d="M278,-11c0,0,-162,0,-162,182V710H23v98h99l39,181h90V808H400V710H251V200c0,0,0,-58,19,-82c0,0,19,-23,66,-23c0,0,27,0,77,10V6c0,0,-66,-17,-135,-17Z" 
id="f0_2g"
transform="scale(0.001,-0.001)" />

<path d="M365,-315c0,0,-136,187,-199,359c0,0,-62,172,-62,359c0,0,0,186,62,358c0,0,63,172,199,360h92c0,0,-110,-192,-160,-365c0,0,-51,-172,-51,-353c0,0,0,-183,51,-355c0,0,50,-172,160,-363Z" 
id="f1_b"
transform="scale(0.001,-0.001)" />

<path d="M310,0L12,799H168L383,145L604,799H752L454,0Z" 
id="f1_2h"
transform="scale(0.001,-0.001)" />

<path d="M104,0V799H238V0Zm-2,946v152H239V946Z" 
id="f1_24"
transform="scale(0.001,-0.001)" />

<path d="M52,-315c0,0,109,192,160,363c0,0,50,173,50,354c0,0,0,183,-50,355c0,0,-51,173,-160,364h92c0,0,135,-188,198,-360c0,0,63,-172,63,-359c0,0,0,-187,-63,-359c0,0,-63,-171,-198,-358Z" 
id="f1_c"
transform="scale(0.001,-0.001)" />

<path d="M39,0V0c0,0,0,170,84,277c0,0,85,108,317,236c0,0,113,62,154,115c0,0,41,52,41,134c0,0,0,86,-62,141c0,0,-61,54,-156,54c0,0,-101,0,-158,-68c0,0,-57,-68,-60,-194H67c0,0,-2,178,95,279c0,0,98,101,273,101c0,0,149,0,245,-89c0,0,94,-88,94,-228c0,0,0,-118,-60,-195c0,0,-61,-76,-229,-169C485,394,303,294,237,212c0,0,-28,-36,-46,-81H774V0Z" 
id="f1_l"
transform="scale(0.001,-0.001)" />

<path d="M406,0V763H155V870h2c16,0,114,2,178,48c0,0,70,51,104,157H549V0Z" 
id="f1_k"
transform="scale(0.001,-0.001)" />

<path d="M292,-9c0,0,-88,0,-124,38c0,0,-36,39,-36,134V689H22V799H132v224H266V799H392V689H266V163c0,0,0,-27,21,-43c0,0,21,-15,57,-15h48V1C392,1,324,-9,292,-9Z" 
id="f1_2f"
transform="scale(0.001,-0.001)" />

<path d="M335,90c0,0,106,0,179,57c0,0,50,41,67,91c0,0,3,10,4,31c0,0,3,21,3,47v87c0,0,-38,-18,-83,-25L381,360c0,0,-97,-13,-142,-45c0,0,-44,-31,-44,-86c0,0,0,-67,36,-103c0,0,37,-36,104,-36ZM309,-20c0,0,-117,0,-186,61c0,0,-68,63,-68,169c0,0,0,108,64,171c0,0,65,64,189,79l183,23c0,0,22,3,42,8c0,0,26,7,40,27c0,0,15,20,15,51v6c0,0,0,64,-49,101c0,0,-48,36,-135,36c0,0,-83,0,-130,-38c0,0,-46,-39,-56,-115H94c0,0,10,131,92,197c0,0,83,66,238,66c0,0,145,0,222,-63c0,0,76,-63,76,-184V137c0,0,0,-21,12,-33c0,0,12,-12,33,-12c0,0,6,0,18,1c0,0,11,2,25,5V1c0,0,-20,-7,-41,-11c0,0,-22,-5,-37,-5c0,0,-76,0,-110,41c0,0,-22,28,-32,79c0,0,-15,-19,-34,-36c0,0,-101,-89,-247,-89Z" 
id="f1_1w"
transform="scale(0.001,-0.001)" />

<path d="M99,0V799H226V681l30,39c0,0,87,102,219,102c0,0,132,0,203,-71c0,0,72,-72,72,-204V0H616V502c0,0,0,105,-41,151c0,0,-40,47,-132,47c0,0,-97,0,-154,-73c0,0,-56,-74,-56,-199V0Z" 
id="f1_29"
transform="scale(0.001,-0.001)" />

<path d="M133,0V162H292V0Z" 
id="f1_h"
transform="scale(0.001,-0.001)" />

<path d="M17,0L389,412L201,800H376L500,518L742,800H904L554,410L750,0H580L448,303L187,0Z" 
id="f2_2j"
transform="scale(0.001,-0.001)" />

<path d="M748,462c0,0,3,31,3,63c0,0,0,86,-45,132c0,0,-46,45,-134,45c0,0,-100,0,-180,-85c0,0,-58,-63,-90,-155ZM419,-20c0,0,-136,0,-213,73c0,0,-77,74,-78,206c0,0,0,25,4,58c0,0,4,32,10,63c0,0,44,208,169,326c0,0,125,117,305,117c0,0,128,0,198,-73c0,0,71,-73,71,-207c0,0,1,-100,-24,-189H278l-4,-25c0,0,-3,-30,-3,-55c0,0,0,-90,44,-134c0,0,44,-45,133,-45c0,0,87,0,156,44c0,0,68,45,95,117H830C830,256,782,126,674,52c0,0,-108,-72,-255,-72Z" 
id="f2_20"
transform="scale(0.001,-0.001)" />

<path d="M398,-20c0,0,-133,0,-209,72c0,0,-76,74,-76,202v3c0,0,0,27,4,60c0,0,4,33,10,63c0,0,43,208,168,326c0,0,126,117,306,117c0,0,131,0,192,-75c0,0,49,-61,50,-168l-3,-52H710c0,0,4,87,-33,131c0,0,-37,45,-113,45c0,0,-110,0,-184,-81c0,0,-75,-82,-107,-238c0,0,-6,-28,-9,-56c0,0,-3,-28,-3,-50c0,0,0,-88,43,-136c0,0,43,-48,121,-48c0,0,76,0,137,49c0,0,61,48,92,136H788C788,280,737,138,633,58c0,0,-103,-78,-235,-78Z" 
id="f2_1y"
transform="scale(0.001,-0.001)" />

<path d="M355,0V355H0v72H355V784h72V427H782V355H427V0Z" 
id="f3_f"
transform="scale(0.001,-0.001)" />

<path d="M17,0L301,412L32,799H205L389,514L574,799H740L471,410L749,0H581L382,305L186,0Z" 
id="f1_2j"
transform="scale(0.001,-0.001)" />

<path d="M393,-20c0,0,-169,0,-252,65c0,0,-83,67,-92,210H178c0,0,10,-85,61,-123c0,0,50,-38,154,-38c0,0,90,0,136,34c0,0,47,35,47,100c0,0,0,42,-31,64c0,0,-30,21,-123,43L283,368c0,0,-112,27,-160,75c0,0,-48,48,-48,135c0,0,0,112,80,178c0,0,81,66,218,66c0,0,140,0,222,-68c0,0,82,-67,88,-187H557c0,0,-6,67,-55,103c0,0,-48,37,-129,37c0,0,-84,0,-127,-29c0,0,-44,-29,-44,-85c0,0,0,-43,31,-65c0,0,30,-21,121,-43L493,452c0,0,117,-28,167,-78c0,0,49,-49,49,-138c0,0,0,-119,-86,-188c0,0,-85,-68,-230,-68Z" 
id="f1_2e"
transform="scale(0.001,-0.001)" />

<path d="M0,356v74H784V356Z" 
id="f3_h"
transform="scale(0.001,-0.001)" />

<path d="M62,-123V268c0,0,0,230,56,452c0,0,47,190,134,334c0,0,87,144,204,242c0,0,85,73,194,119l18,-16c0,0,-211,-145,-335,-339c0,0,-98,-156,-149,-374c0,0,-50,-218,-50,-403V-123Z" 
id="f3_4o"
transform="scale(0.001,-0.001)" />

<path d="M617,-123V283c0,0,0,236,-63,459c0,0,-63,223,-188,392c0,0,-108,146,-282,265l17,16c0,0,180,-76,320,-248c0,0,139,-172,204,-417c0,0,64,-245,64,-482V-123Z" 
id="f3_54"
transform="scale(0.001,-0.001)" />

<path d="M62,-123V1415h72V-123Z" 
id="f3_4p"
transform="scale(0.001,-0.001)" />

<path d="M617,-123V1415h72V-123Z" 
id="f3_55"
transform="scale(0.001,-0.001)" />

<path d="M650,-123c0,0,-180,75,-319,246c0,0,-140,172,-205,418c0,0,-64,245,-64,481v393h72V1007c0,0,0,-236,63,-459c0,0,63,-223,189,-391c0,0,108,-145,282,-265l-18,-15Z" 
id="f3_4q"
transform="scale(0.001,-0.001)" />

<path d="M101,-123l-17,15c0,0,210,144,334,339c0,0,99,156,149,373c0,0,50,218,50,403v408h72V1022c0,0,0,-230,-56,-451c0,0,-48,-191,-134,-335C499,236,412,92,295,-5c0,0,-84,-73,-194,-118Z" 
id="f3_56"
transform="scale(0.001,-0.001)" />

<path d="M354,90c0,0,107,0,192,57c0,0,60,41,87,95c0,0,5,12,11,33c0,0,6,20,11,44l18,88c0,0,-62,-26,-132,-37L414,352c0,0,-84,-11,-131,-56c0,0,-47,-45,-47,-113c0,0,0,-44,31,-69c0,0,31,-24,87,-24ZM306,-20c0,0,-99,0,-156,47c0,0,-57,49,-57,134c0,0,1,117,81,198c0,0,80,81,211,98l164,20l70,10c0,0,35,6,59,30c0,0,23,24,31,66l1,2c0,0,13,64,-25,94c0,0,-39,31,-132,31c0,0,-83,0,-137,-37c0,0,-54,-37,-84,-114H210c0,0,46,137,138,201c0,0,92,63,245,63c0,0,149,0,211,-59c0,0,45,-44,44,-116c0,0,1,-30,-6,-63L749,136c0,0,-4,-19,6,-32c0,0,10,-12,30,-12c0,0,6,0,19,1c0,0,12,2,25,5L809,1c0,0,-19,-6,-43,-11c0,0,-22,-5,-36,-5c0,0,-73,0,-100,43c0,0,-16,27,-17,75C612,102,594,85,573,69c0,0,-120,-89,-267,-89Z" 
id="f2_1w"
transform="scale(0.001,-0.001)" />

<path d="M390,-1V329H60V441H390V771H503V441H833V329H503V-1Z" 
id="f1_e"
transform="scale(0.001,-0.001)" />

<path d="M103,0V1097H237V0Z" 
id="f1_27"
transform="scale(0.001,-0.001)" />

<path d="M424,94c0,0,107,0,169,83c0,0,63,83,63,223c0,0,0,140,-63,224c0,0,-62,83,-169,83c0,0,-106,0,-168,-83c0,0,-62,-84,-62,-224c0,0,0,-140,62,-223c0,0,62,-83,168,-83Zm0,-114c0,0,-165,0,-268,115C156,95,54,211,54,400c0,0,0,189,102,306c0,0,103,116,268,116c0,0,168,0,270,-116c0,0,102,-117,102,-306c0,0,0,-189,-102,-305C694,95,592,-20,424,-20Z" 
id="f1_2a"
transform="scale(0.001,-0.001)" />

<path d="M418,95c0,0,98,0,158,73c0,0,59,73,59,193c0,0,0,170,-54,254c0,0,-54,85,-163,85c0,0,-113,0,-165,-72c0,0,-52,-71,-52,-227c0,0,0,-147,57,-227c0,0,56,-79,160,-79ZM394,-336c0,0,-136,0,-216,62c0,0,-79,63,-96,182H219c0,0,12,-64,57,-98c0,0,45,-35,116,-35c0,0,116,0,176,73c0,0,61,73,61,211V85l-1,-1C628,84,545,-20,412,-20c0,0,-161,0,-256,118c0,0,-94,120,-94,324c0,0,0,179,93,290c0,0,93,110,244,110c0,0,144,0,228,-124l10,-14V799H763V59c0,0,-1,-201,-91,-298c0,0,-91,-97,-278,-97Z" 
id="f1_22"
transform="scale(0.001,-0.001)" />

<path d="M0,368V478H849V368Z" 
id="f1_99"
transform="scale(0.001,-0.001)" />

<path d="M96,-299V1104H382V995H217V-191H382V-299Z" 
id="f1_1q"
transform="scale(0.001,-0.001)" />

<path d="M109,0V1097H337V685H767v412H995V0H767V497H337V0Z" 
id="f4_17"
transform="scale(0.001,-0.001)" />

<path d="M108,0V812H322V0Zm-2,906v199H324V906Z" 
id="f4_24"
transform="scale(0.001,-0.001)" />

<path d="M99,0V812H302V691c0,0,13,22,28,41c0,0,79,101,230,101c0,0,128,0,201,-76c0,0,73,-76,73,-211V0H620V507c0,0,0,76,-33,112c0,0,-32,36,-99,36c0,0,-85,0,-130,-51c0,0,-45,-50,-45,-146V0Z" 
id="f4_29"
transform="scale(0.001,-0.001)" />

<path d="M340,-8c0,0,-114,0,-163,40c0,0,-50,41,-50,133V662H15V812H127v219H341V812H472V662H341V201c0,0,0,-29,17,-38c0,0,17,-8,70,-8h44V-3c0,0,-54,-5,-132,-5Z" 
id="f4_2f"
transform="scale(0.001,-0.001)" />

<path d="M140,0V222H369V0Zm0,561V783H369V561Z" 
id="f4_t"
transform="scale(0.001,-0.001)" />

<path d="M436,95c0,0,105,0,160,79c0,0,54,80,54,232c0,0,0,150,-52,222c0,0,-52,72,-161,72c0,0,-112,0,-163,-81c0,0,-51,-82,-51,-258c0,0,0,-127,55,-197c0,0,55,-69,158,-69ZM89,-315V799H216V685l7,10c0,0,86,127,228,127c0,0,156,0,248,-108c0,0,91,-107,91,-291c0,0,0,-208,-92,-326C698,97,606,-20,442,-20c0,0,-135,0,-215,102l-4,6V-315Z" 
id="f1_2b"
transform="scale(0.001,-0.001)" />

<path d="M375,-20c0,0,-136,0,-203,66c0,0,-68,68,-68,204V799H238V284c0,0,0,-101,38,-146c0,0,39,-44,127,-44c0,0,97,0,153,75c0,0,57,75,57,203V799H747V0H620V122c0,0,-14,-22,-30,-41C590,81,504,-20,375,-20Z" 
id="f1_2g"
transform="scale(0.001,-0.001)" />

<path d="M60,174V286H832V174Zm0,309V595H832V483Z" 
id="f1_w"
transform="scale(0.001,-0.001)" />

<path d="M281,-9c0,0,-86,0,-115,42c0,0,-30,43,-11,139L263,688H157l23,112H285l47,224H467L420,800H548L525,688H398L290,172c0,0,-6,-35,11,-51c0,0,16,-16,58,-16h46L383,0c0,0,-68,-9,-102,-9Z" 
id="f2_2f"
transform="scale(0.001,-0.001)" />

<path d="M945,-20c0,0,47,75,125,153H57v74H1147l108,91c0,0,23,19,95,72c0,0,-134,103,-203,166H57v72H1070c0,0,-78,78,-125,154h85c0,0,88,-107,217,-217c0,0,130,-110,206,-154V349c0,0,-101,-58,-219,-162c0,0,-118,-103,-204,-207Z" 
id="f3_4g"
transform="scale(0.001,-0.001)" />

<path d="M42,-299v108H207V995H42v109H329V-299Z" 
id="f1_1s"
transform="scale(0.001,-0.001)" />

<path d="M412,-328c0,0,-195,96,-303,284C109,-44,0,142,0,365c0,0,0,232,114,422c0,0,114,191,298,273v-31c0,0,-92,-51,-151,-139c0,0,-59,-88,-88,-223c0,0,-29,-136,-29,-282c0,0,0,-167,27,-301c0,0,26,-133,82,-221c0,0,55,-89,159,-159v-32Z" 
id="f3_c"
transform="scale(0.001,-0.001)" />

<path d="M34,-328v32c0,0,92,50,151,138c0,0,59,88,88,222c0,0,29,135,29,283c0,0,0,165,-27,300c0,0,-26,134,-82,222c0,0,-56,89,-159,160v31c0,0,194,-96,303,-284c0,0,108,-187,108,-410c0,0,0,-232,-114,-422c0,0,-114,-191,-297,-272Z" 
id="f3_d"
transform="scale(0.001,-0.001)" />

<path d="M424,-28c0,0,-180,0,-272,86c0,0,-92,87,-100,266H192c0,0,12,-126,66,-180c0,0,55,-54,170,-54c0,0,100,0,163,57c0,0,64,57,64,147c0,0,0,94,-61,149c0,0,-52,48,-135,54c0,0,-38,2,-72,2c0,0,-34,0,-45,-3V613c0,0,17,-3,51,-3c0,0,35,0,68,4c0,0,66,8,106,43c0,0,55,45,55,125c0,0,0,77,-58,125c0,0,-58,48,-148,48c0,0,-96,0,-147,-58c0,0,-51,-59,-56,-175H82c0,0,0,168,89,260c0,0,88,93,250,93c0,0,153,0,247,-77c0,0,94,-76,94,-202c0,0,0,-124,-95,-201c0,0,-18,-15,-39,-27c0,0,39,-17,69,-41c0,0,101,-79,101,-214c0,0,0,-151,-105,-246c0,0,-104,-95,-269,-95Z" 
id="f1_m"
transform="scale(0.001,-0.001)" />

<path d="M432,92c0,0,96,0,156,66c0,0,61,65,61,169c0,0,0,103,-61,169c0,0,-60,66,-156,66c0,0,-95,0,-156,-66c0,0,-61,-66,-61,-169c0,0,0,-104,61,-169c0,0,61,-66,156,-66ZM425,-28c0,0,-176,0,-271,135c0,0,-95,136,-95,388c0,0,0,278,103,429c0,0,103,151,293,151c0,0,142,0,226,-77c0,0,84,-76,90,-211H638c0,0,-8,80,-56,123c0,0,-47,43,-127,43c0,0,-125,0,-192,-119c0,0,-58,-102,-64,-278c0,0,100,127,255,127c0,0,152,0,245,-98c0,0,93,-98,93,-258c0,0,0,-161,-101,-259c0,0,-101,-96,-266,-96Z" 
id="f1_p"
transform="scale(0.001,-0.001)" />

<path d="M417,-28c0,0,-161,0,-259,79c0,0,-98,81,-109,223H189c0,0,11,-90,72,-139c0,0,61,-49,162,-49c0,0,96,0,158,68c0,0,61,68,61,175c0,0,0,112,-64,178c0,0,-64,66,-173,66c0,0,-59,0,-115,-28c0,0,-55,-29,-84,-73L93,480l77,573H727V922H271L225,629l4,3c0,0,89,60,188,60c0,0,169,0,269,-94c0,0,99,-93,99,-253c0,0,0,-165,-103,-269C682,76,579,-28,417,-28Z" 
id="f1_o"
transform="scale(0.001,-0.001)" />

<path d="M424,92c0,0,98,0,161,58c0,0,62,58,62,149c0,0,0,92,-62,151c0,0,-63,58,-161,58c0,0,-98,0,-160,-58c0,0,-63,-59,-63,-151c0,0,0,-91,63,-149c0,0,62,-58,160,-58Zm0,533c0,0,82,0,134,46c0,0,52,45,52,118c0,0,0,72,-52,118c0,0,-52,46,-134,46c0,0,-82,0,-134,-46c0,0,-52,-46,-52,-118c0,0,0,-73,52,-119c0,0,52,-45,134,-45Zm0,-653c0,0,-165,0,-265,90C159,62,59,154,59,305c0,0,0,134,100,216c0,0,35,28,78,47c0,0,-27,15,-52,33c0,0,-90,70,-90,185c0,0,0,130,90,209c0,0,91,80,239,80c0,0,148,0,238,-80c0,0,91,-79,91,-209c0,0,0,-115,-91,-185c0,0,-24,-19,-52,-32c0,0,44,-20,79,-49c0,0,101,-81,101,-215c0,0,0,-151,-101,-243c0,0,-100,-90,-265,-90Z" 
id="f1_r"
transform="scale(0.001,-0.001)" />

<path d="M511,373V863L169,383l-7,-10ZM511,0V258H38V383l496,691H646V373H799V258H646V0Z" 
id="f1_n"
transform="scale(0.001,-0.001)" />

<path d="M0,-123V1415H525v-72H72V-123Z" 
id="f3_4r"
transform="scale(0.001,-0.001)" />

<path d="M478,-123V1343H26v72H550V-123Z" 
id="f3_57"
transform="scale(0.001,-0.001)" />

<path d="M0,-123V1415H72V-123Z" 
id="f3_4s"
transform="scale(0.001,-0.001)" />

<path d="M0,-123V1415H72V-123Z" 
id="f3_58"
transform="scale(0.001,-0.001)" />

<path d="M0,-123V1415H72V-51H525v-72Z" 
id="f3_4t"
transform="scale(0.001,-0.001)" />

<path d="M26,-123v72H478V1415h72V-123Z" 
id="f3_59"
transform="scale(0.001,-0.001)" />

<path d="M419,483c0,0,93,0,152,66c0,0,59,66,59,169c0,0,0,103,-59,169c0,0,-59,65,-152,65c0,0,-94,0,-153,-65c0,0,-59,-66,-59,-169c0,0,0,-103,59,-169c0,0,59,-66,153,-66ZM397,-28c0,0,-143,0,-227,75c0,0,-85,77,-91,211H209c0,0,8,-83,57,-128c0,0,49,-45,131,-45c0,0,121,0,186,135c0,0,48,101,62,265C645,485,545,362,397,362c0,0,-150,0,-241,98c0,0,-91,98,-91,258c0,0,0,160,99,258c0,0,99,98,262,98c0,0,173,0,266,-123c0,0,94,-123,94,-349c0,0,0,-303,-101,-467C685,135,583,-28,397,-28Z" 
id="f1_s"
transform="scale(0.001,-0.001)" />

<path d="M424,92c0,0,114,0,170,107c0,0,57,108,56,323c0,0,1,216,-56,324c0,0,-56,107,-170,107c0,0,-112,0,-168,-107c0,0,-56,-108,-57,-324c0,0,1,-215,57,-323c0,0,56,-107,168,-107Zm0,-120c0,0,-176,0,-271,142c0,0,-96,143,-96,408c0,0,0,265,96,409c0,0,95,144,271,144c0,0,178,0,273,-144c0,0,96,-144,96,-409c0,0,0,-265,-96,-408c0,0,-95,-142,-273,-142Z" 
id="f1_j"
transform="scale(0.001,-0.001)" />

<path d="M140,-21c0,0,-26,0,-44,17C96,-4,79,13,79,40c0,0,0,19,6,33c0,0,8,20,34,55c0,0,46,60,64,126c0,0,32,114,41,321H190c0,0,-55,0,-81,-18c0,0,-44,-26,-80,-89H0c0,0,42,129,98,178c0,0,43,37,120,37H743V575H562c0,0,-27,-171,-27,-327c0,0,0,-77,27,-110c0,0,27,-33,67,-33c0,0,33,0,56,22c0,0,24,22,31,65h27C743,192,730,74,686,26c0,0,-44,-47,-98,-47c0,0,-58,0,-97,51c0,0,-39,53,-39,198c0,0,0,91,28,347H286c0,0,-23,-390,-56,-494c0,0,-33,-102,-90,-102Z" 
id="f3_2c"
transform="scale(0.001,-0.001)" />

<path d="M435,0V856c0,0,-48,-47,-127,-93c0,0,-79,-46,-142,-69V824c0,0,113,52,197,128c0,0,85,75,120,146h86V0Z" 
id="f5_l"
transform="scale(0.001,-0.001)" />

<path d="M435,92c0,0,86,0,147,69c0,0,60,68,60,186c0,0,0,114,-60,179c0,0,-60,66,-152,66c0,0,-91,0,-154,-66c0,0,-64,-65,-64,-171c0,0,0,-70,30,-133c0,0,29,-64,82,-97c0,0,52,-33,111,-33Zm3,-110c0,0,-168,0,-274,123C164,105,58,228,58,512c0,0,0,317,117,461c0,0,102,125,275,125c0,0,129,0,212,-72c0,0,82,-72,99,-200L627,815c0,0,-18,79,-51,115c0,0,-54,58,-134,58c0,0,-64,0,-113,-36c0,0,-63,-46,-99,-135c0,0,-37,-89,-38,-253c0,0,48,74,118,110c0,0,70,36,147,36c0,0,135,0,229,-99c0,0,94,-99,94,-256c0,0,0,-103,-44,-191C736,164,691,75,614,28c0,0,-78,-46,-176,-46Z" 
id="f5_q"
transform="scale(0.001,-0.001)" />

<path d="M125,0V1051H268V115H799V0Z" 
id="f0_1c"
transform="scale(0.001,-0.001)" />

<path d="M106,0V620c0,0,0,85,-5,188H228c0,0,6,-138,6,-165h3c0,0,32,103,74,141c0,0,42,38,118,38c0,0,27,0,54,-7V692c0,0,-26,7,-71,7c0,0,-84,0,-128,-72c0,0,-44,-72,-44,-206V0Z" 
id="f0_2e"
transform="scale(0.001,-0.001)" />

<path d="M606,-14c0,0,-164,0,-284,65c0,0,-119,66,-182,189c0,0,-63,123,-63,291c0,0,0,255,137,396c0,0,137,140,386,140c0,0,174,0,283,-59c0,0,109,-59,168,-189L915,779c0,0,-44,90,-123,131c0,0,-79,41,-196,41c0,0,-182,0,-278,-110c0,0,-96,-110,-96,-310c0,0,0,-200,102,-315c0,0,102,-115,282,-115c0,0,103,0,193,31c0,0,89,31,144,85V407H629V526h445V164c0,0,-83,-85,-205,-132c0,0,-121,-46,-263,-46Z" 
id="f0_17"
transform="scale(0.001,-0.001)" />

<path d="M355,-14c0,0,-133,0,-194,65c0,0,-62,66,-62,219V808H234V296c0,0,0,-80,16,-124c0,0,16,-44,50,-64c0,0,34,-19,101,-19c0,0,97,0,153,66c0,0,55,67,55,185V808H744V172c0,0,0,-141,4,-172H621c0,0,0,4,-1,20c0,0,-1,17,-2,38c0,0,-1,21,-3,80h-2C613,138,567,55,506,20c0,0,-61,-34,-151,-34Z" 
id="f0_2h"
transform="scale(0.001,-0.001)" />

<path d="M395,89c0,0,115,0,166,79c0,0,51,79,51,246c0,0,0,160,-51,235c0,0,-51,75,-164,75c0,0,-102,0,-147,-75c0,0,-45,-75,-45,-244c0,0,0,-170,45,-243c0,0,45,-73,145,-73ZM361,-14c0,0,-153,0,-225,102c0,0,-72,103,-72,312c0,0,0,422,297,422c0,0,92,0,153,-33c0,0,61,-34,98,-107h2l-2,90v335H747V166c0,0,0,-126,4,-166H623c0,0,-2,12,-5,55c0,0,-3,44,-3,75h-3c0,0,-37,-78,-98,-111c0,0,-62,-33,-153,-33Z" 
id="f0_20"
transform="scale(0.001,-0.001)" />

<path d="M140,0V163H285V0Z" 
id="f0_i"
transform="scale(0.001,-0.001)" />


</defs>
</svg>