<?xml version="1.0" encoding="UTF-8" standalone="no"?>
<!DOCTYPE svg PUBLIC "-//W3C//DTD SVG 1.1//EN"
"http://www.w3.org/Graphics/SVG/1.1/DTD/svg11.dtd">
<svg viewBox="0 0 677 1056" version="1.1" xmlns="http://www.w3.org/2000/svg" xmlns:xlink="http://www.w3.org/1999/xlink">
<defs>
<style type="text/css"><![CDATA[
.g0_38{
fill: none;
stroke: #000000;
stroke-width: 1.0479945;
stroke-linecap: round;
stroke-linejoin: miter;
}
.g1_38{
fill: none;
stroke: #000000;
stroke-width: 0.7656;
stroke-linecap: round;
stroke-linejoin: miter;
}
]]></style>
</defs>
<g fill="#D4D4D4" fill-opacity="0.56" >
<use xlink:href="#f0_1f" transform="matrix(50.9,-50.9,50.9,50.9,65.9,924.1)" />
<use xlink:href="#f0_2a" transform="matrix(50.9,-50.9,50.9,50.9,126.4,863.6)" />
<use xlink:href="#f0_28" transform="matrix(50.9,-50.9,50.9,50.9,169.6,820.3)" />
<use xlink:href="#f0_25" transform="matrix(50.9,-50.9,50.9,50.9,186.9,803.1)" />
<use xlink:href="#f0_2a" transform="matrix(50.9,-50.9,50.9,50.9,204.2,785.8)" />
<use xlink:href="#f0_21" transform="matrix(50.9,-50.9,50.9,50.9,247.4,742.5)" />
<use xlink:href="#f0_2k" transform="matrix(50.9,-50.9,50.9,50.9,290.7,699.3)" />
<use xlink:href="#f0_1x" transform="matrix(50.9,-50.9,50.9,50.9,329.6,660.4)" />
<use xlink:href="#f0_29" transform="matrix(50.9,-50.9,50.9,50.9,372.8,617.2)" />
<use xlink:href="#f0_2c" transform="matrix(50.9,-50.9,50.9,50.9,437.6,552.4)" />
<use xlink:href="#f0_2b" transform="matrix(50.9,-50.9,50.9,50.9,480.8,509.1)" />
<use xlink:href="#f0_25" transform="matrix(50.9,-50.9,50.9,50.9,524.1,465.9)" />
<use xlink:href="#f0_2a" transform="matrix(50.9,-50.9,50.9,50.9,541.3,448.6)" />
<use xlink:href="#f0_2g" transform="matrix(50.9,-50.9,50.9,50.9,584.6,405.4)" />
</g>
<g fill="#000000" >
<use xlink:href="#f1_1l" transform="matrix(12,0,0,12,49.2,296.9)" />
<use xlink:href="#f1_14" transform="matrix(12,0,0,12,63.1,296.9)" />
<use xlink:href="#f1_1h" transform="matrix(12,0,0,12,74.2,296.9)" />
<use xlink:href="#f1_1o" transform="matrix(12,0,0,12,87.1,296.9)" />
<use xlink:href="#f1_1i" transform="matrix(12,0,0,12,109.5,296.9)" />
<use xlink:href="#f1_17" transform="matrix(12,0,0,12,119.3,296.9)" />
<use xlink:href="#f1_1e" transform="matrix(12,0,0,12,134.2,296.9)" />
<use xlink:href="#f1_1h" transform="matrix(12,0,0,12,150.8,296.9)" />
<use xlink:href="#f1_1j" transform="matrix(12,0,0,12,163.6,296.9)" />
<use xlink:href="#f1_10" transform="matrix(12,0,0,12,185.2,296.9)" />
<use xlink:href="#f1_1d" transform="matrix(12,0,0,12,199.4,296.9)" />
<use xlink:href="#f1_1i" transform="matrix(12,0,0,12,214.9,296.9)" />
<use xlink:href="#f1_1m" transform="matrix(12,0,0,12,224.7,296.9)" />
<use xlink:href="#f1_14" transform="matrix(12,0,0,12,242.6,296.9)" />
<use xlink:href="#f1_1h" transform="matrix(12,0,0,12,253.8,296.9)" />
<use xlink:href="#f1_1j" transform="matrix(12,0,0,12,276.9,296.9)" />
<use xlink:href="#f1_1o" transform="matrix(12,0,0,12,288.4,296.9)" />
<use xlink:href="#f1_1f" transform="matrix(12,0,0,12,300.6,296.9)" />
<use xlink:href="#f1_14" transform="matrix(12,0,0,12,312.4,296.9)" />
<use xlink:href="#f1_1g" transform="matrix(12,0,0,12,333.8,296.9)" />
<use xlink:href="#f1_1k" transform="matrix(12,0,0,12,350.4,296.9)" />
<use xlink:href="#f1_14" transform="matrix(12,0,0,12,365.2,296.9)" />
<use xlink:href="#f1_1i" transform="matrix(12,0,0,12,376.4,296.9)" />
<use xlink:href="#f1_1j" transform="matrix(12,0,0,12,386.2,296.9)" />
<use xlink:href="#f1_18" transform="matrix(12,0,0,12,397.7,296.9)" />
<use xlink:href="#f1_1e" transform="matrix(12,0,0,12,404.8,296.9)" />
<use xlink:href="#f1_1d" transform="matrix(12,0,0,12,421.3,296.9)" />
<use xlink:href="#f1_1i" transform="matrix(12,0,0,12,436.9,296.9)" />
<use xlink:href="#f1_b" transform="matrix(12,0,0,12,456.8,296.9)" />
<use xlink:href="#f1_k" transform="matrix(12,0,0,12,465.9,296.9)" />
<use xlink:href="#f1_1c" transform="matrix(12,0,0,12,488.3,296.9)" />
<use xlink:href="#f1_10" transform="matrix(12,0,0,12,506.3,296.9)" />
<use xlink:href="#f1_1h" transform="matrix(12,0,0,12,520.4,296.9)" />
<use xlink:href="#f1_1a" transform="matrix(12,0,0,12,533.3,296.9)" />
<use xlink:href="#f1_c" transform="matrix(12,0,0,12,546.8,296.9)" />
<use xlink:href="#f2_k" transform="matrix(10.4,0,0,10.4,50.2,339.1)" />
<use xlink:href="#f2_h" transform="matrix(10.4,0,0,10.4,59.1,339.1)" />
<use xlink:href="#f2_15" transform="matrix(10.4,0,0,10.4,81.9,339.1)" />
<use xlink:href="#f2_2a" transform="matrix(10.4,0,0,10.4,91.7,339.1)" />
<use xlink:href="#f2_2d" transform="matrix(10.4,0,0,10.4,100.5,339.1)" />
<use xlink:href="#f2_2i" transform="matrix(10.4,0,0,10.4,112.8,339.1)" />
<use xlink:href="#f2_23" transform="matrix(10.4,0,0,10.4,124.3,339.1)" />
<use xlink:href="#f2_1w" transform="matrix(10.4,0,0,10.4,133.2,339.1)" />
<use xlink:href="#f2_2f" transform="matrix(10.4,0,0,10.4,142.1,339.1)" />
<use xlink:href="#f2_2h" transform="matrix(10.4,0,0,10.4,153.5,339.1)" />
<use xlink:href="#f2_1w" transform="matrix(10.4,0,0,10.4,161.4,339.1)" />
<use xlink:href="#f2_27" transform="matrix(10.4,0,0,10.4,170.3,339.1)" />
<use xlink:href="#f2_2g" transform="matrix(10.4,0,0,10.4,173.9,339.1)" />
<use xlink:href="#f2_20" transform="matrix(10.4,0,0,10.4,182.7,339.1)" />
<use xlink:href="#f2_2a" transform="matrix(10.4,0,0,10.4,198.6,339.1)" />
<use xlink:href="#f2_21" transform="matrix(10.4,0,0,10.4,207.4,339.1)" />
<use xlink:href="#f3_2j" transform="matrix(10.4,0,0,10.4,218.3,339.1)" />
<use xlink:href="#f3_f" transform="matrix(10.4,0,0,10.4,226.3,339.1)" />
<use xlink:href="#f3_21" transform="matrix(10.4,0,0,10.4,237.8,339.1)" />
<use xlink:href="#f2_b" transform="matrix(10.4,0,0,10.4,242.2,339.1)" />
<use xlink:href="#f3_2j" transform="matrix(10.4,0,0,10.4,247.5,339.1)" />
<use xlink:href="#f2_c" transform="matrix(10.4,0,0,10.4,255.5,339.1)" />
<use xlink:href="#f2_w" transform="matrix(10.4,0,0,10.4,267.8,339.1)" />
<use xlink:href="#f2_2n" transform="matrix(10.4,0,0,10.4,284.3,339.1)" />
<use xlink:href="#f2_l" transform="matrix(10.4,0,0,10.4,288.4,339.1)" />
<use xlink:href="#f3_2j" transform="matrix(10.4,0,0,10.4,297.3,339.1)" />
<use xlink:href="#f2_99" transform="matrix(10.4,0,0,10.4,312.4,339.1)" />
<use xlink:href="#f2_q" transform="matrix(10.4,0,0,10.4,328.2,339.1)" />
<use xlink:href="#f2_2n" transform="matrix(10.4,0,0,10.4,337.1,339.1)" />
<use xlink:href="#f2_24" transform="matrix(10.4,0,0,10.4,348.4,339.1)" />
<use xlink:href="#f2_2e" transform="matrix(10.4,0,0,10.4,351.9,339.1)" />
<use xlink:href="#f2_29" transform="matrix(10.4,0,0,10.4,366.9,339.1)" />
<use xlink:href="#f2_2a" transform="matrix(10.4,0,0,10.4,375.7,339.1)" />
<use xlink:href="#f2_2f" transform="matrix(10.4,0,0,10.4,384.6,339.1)" />
<use xlink:href="#f2_1z" transform="matrix(10.4,0,0,10.4,396,339.1)" />
<use xlink:href="#f2_20" transform="matrix(10.4,0,0,10.4,404.9,339.1)" />
<use xlink:href="#f2_2d" transform="matrix(10.4,0,0,10.4,413.7,339.1)" />
<use xlink:href="#f2_24" transform="matrix(10.4,0,0,10.4,419.1,339.1)" />
<use xlink:href="#f2_2h" transform="matrix(10.4,0,0,10.4,422.6,339.1)" />
<use xlink:href="#f2_1w" transform="matrix(10.4,0,0,10.4,430.6,339.1)" />
<use xlink:href="#f2_1x" transform="matrix(10.4,0,0,10.4,439.4,339.1)" />
<use xlink:href="#f2_27" transform="matrix(10.4,0,0,10.4,448.3,339.1)" />
<use xlink:href="#f2_20" transform="matrix(10.4,0,0,10.4,451.8,339.1)" />
<use xlink:href="#f2_h" transform="matrix(10.4,0,0,10.4,460.7,339.1)" />
<use xlink:href="#f2_l" transform="matrix(10.4,0,0,10.4,50.2,373)" />
<use xlink:href="#f2_h" transform="matrix(10.4,0,0,10.4,59.1,373)" />
<use xlink:href="#f2_1m" transform="matrix(10.4,0,0,10.4,81.9,373)" />
<use xlink:href="#f2_2d" transform="matrix(10.4,0,0,10.4,97,373)" />
<use xlink:href="#f2_24" transform="matrix(10.4,0,0,10.4,102.3,373)" />
<use xlink:href="#f2_2f" transform="matrix(10.4,0,0,10.4,105.8,373)" />
<use xlink:href="#f2_20" transform="matrix(10.4,0,0,10.4,110.3,373)" />
<use xlink:href="#f2_2f" transform="matrix(10.4,0,0,10.4,126.1,373)" />
<use xlink:href="#f2_23" transform="matrix(10.4,0,0,10.4,130.5,373)" />
<use xlink:href="#f2_20" transform="matrix(10.4,0,0,10.4,139.4,373)" />
<use xlink:href="#f2_2e" transform="matrix(10.4,0,0,10.4,155,373)" />
<use xlink:href="#f2_20" transform="matrix(10.4,0,0,10.4,163,373)" />
<use xlink:href="#f2_2f" transform="matrix(10.4,0,0,10.4,171.9,373)" />
<use xlink:href="#f2_2a" transform="matrix(10.4,0,0,10.4,183.3,373)" />
<use xlink:href="#f2_21" transform="matrix(10.4,0,0,10.4,192.2,373)" />
<use xlink:href="#f2_2b" transform="matrix(10.4,0,0,10.4,203.6,373)" />
<use xlink:href="#f2_2a" transform="matrix(10.4,0,0,10.4,212.4,373)" />
<use xlink:href="#f2_24" transform="matrix(10.4,0,0,10.4,221.3,373)" />
<use xlink:href="#f2_29" transform="matrix(10.4,0,0,10.4,224.8,373)" />
<use xlink:href="#f2_2f" transform="matrix(10.4,0,0,10.4,233.7,373)" />
<use xlink:href="#f2_2e" transform="matrix(10.4,0,0,10.4,238.1,373)" />
<use xlink:href="#f2_2a" transform="matrix(10.4,0,0,10.4,253.1,373)" />
<use xlink:href="#f2_21" transform="matrix(10.4,0,0,10.4,262,373)" />
<use xlink:href="#f2_1y" transform="matrix(10.4,0,0,10.4,273.2,373)" />
<use xlink:href="#f2_2a" transform="matrix(10.4,0,0,10.4,281.2,373)" />
<use xlink:href="#f2_29" transform="matrix(10.4,0,0,10.4,290,373)" />
<use xlink:href="#f2_2f" transform="matrix(10.4,0,0,10.4,298.9,373)" />
<use xlink:href="#f2_24" transform="matrix(10.4,0,0,10.4,303.3,373)" />
<use xlink:href="#f2_29" transform="matrix(10.4,0,0,10.4,306.9,373)" />
<use xlink:href="#f2_2g" transform="matrix(10.4,0,0,10.4,315.7,373)" />
<use xlink:href="#f2_24" transform="matrix(10.4,0,0,10.4,324.6,373)" />
<use xlink:href="#f2_2f" transform="matrix(10.4,0,0,10.4,328.1,373)" />
<use xlink:href="#f2_2k" transform="matrix(10.4,0,0,10.4,332.6,373)" />
<use xlink:href="#f2_2a" transform="matrix(10.4,0,0,10.4,347.5,373)" />
<use xlink:href="#f2_21" transform="matrix(10.4,0,0,10.4,356.4,373)" />
<use xlink:href="#f3_22" transform="matrix(10.4,0,0,10.4,366.6,373)" />
<use xlink:href="#f2_b" transform="matrix(10.4,0,0,10.4,375.4,373)" />
<use xlink:href="#f3_2j" transform="matrix(10.4,0,0,10.4,380.8,373)" />
<use xlink:href="#f2_c" transform="matrix(10.4,0,0,10.4,388.8,373)" />
<use xlink:href="#f2_w" transform="matrix(10.4,0,0,10.4,401.1,373)" />
<use xlink:href="#f2_2n" transform="matrix(10.4,0,0,10.4,417.4,373)" />
<use xlink:href="#f3_2j" transform="matrix(10.4,0,0,10.4,421.6,373)" />
<use xlink:href="#f2_99" transform="matrix(10.4,0,0,10.4,436.5,373)" />
<use xlink:href="#f2_k" transform="matrix(10.4,0,0,10.4,452.3,373)" />
<use xlink:href="#f2_2n" transform="matrix(10.4,0,0,10.4,461.2,373)" />
<use xlink:href="#f2_e" transform="matrix(10.4,0,0,10.4,472.3,373)" />
<use xlink:href="#f2_2n" transform="matrix(10.4,0,0,10.4,488.6,373)" />
<use xlink:href="#f3_2j" transform="matrix(10.4,0,0,10.4,492.8,373)" />
<use xlink:href="#f2_e" transform="matrix(10.4,0,0,10.4,507.8,373)" />
<use xlink:href="#f2_k" transform="matrix(10.4,0,0,10.4,524.1,373)" />
<use xlink:href="#f2_2n" transform="matrix(10.4,0,0,10.4,533,373)" />
<use xlink:href="#f2_h" transform="matrix(10.4,0,0,10.4,537.1,373)" />
<use xlink:href="#f2_m" transform="matrix(10.4,0,0,10.4,50.2,406.9)" />
<use xlink:href="#f2_h" transform="matrix(10.4,0,0,10.4,59.1,406.9)" />
<use xlink:href="#f2_1m" transform="matrix(10.4,0,0,10.4,81.9,406.9)" />
<use xlink:href="#f2_23" transform="matrix(10.4,0,0,10.4,97,406.9)" />
<use xlink:href="#f2_1w" transform="matrix(10.4,0,0,10.4,105.8,406.9)" />
<use xlink:href="#f2_2f" transform="matrix(10.4,0,0,10.4,114.7,406.9)" />
<use xlink:href="#f2_24" transform="matrix(10.4,0,0,10.4,126.1,406.9)" />
<use xlink:href="#f2_2e" transform="matrix(10.4,0,0,10.4,129.7,406.9)" />
<use xlink:href="#f2_1z" transform="matrix(10.4,0,0,10.4,144.4,406.9)" />
<use xlink:href="#f2_20" transform="matrix(10.4,0,0,10.4,153.3,406.9)" />
<use xlink:href="#f2_2d" transform="matrix(10.4,0,0,10.4,162.1,406.9)" />
<use xlink:href="#f2_24" transform="matrix(10.4,0,0,10.4,167.5,406.9)" />
<use xlink:href="#f2_2h" transform="matrix(10.4,0,0,10.4,171,406.9)" />
<use xlink:href="#f2_1w" transform="matrix(10.4,0,0,10.4,179,406.9)" />
<use xlink:href="#f2_2f" transform="matrix(10.4,0,0,10.4,187.8,406.9)" />
<use xlink:href="#f2_24" transform="matrix(10.4,0,0,10.4,192.3,406.9)" />
<use xlink:href="#f2_2h" transform="matrix(10.4,0,0,10.4,195.8,406.9)" />
<use xlink:href="#f2_20" transform="matrix(10.4,0,0,10.4,203.8,406.9)" />
<use xlink:href="#f2_2a" transform="matrix(10.4,0,0,10.4,219.6,406.9)" />
<use xlink:href="#f2_21" transform="matrix(10.4,0,0,10.4,228.5,406.9)" />
<use xlink:href="#f2_2n" transform="matrix(10.4,0,0,10.4,239.9,406.9)" />
<use xlink:href="#f3_2j" transform="matrix(10.4,0,0,10.4,243.6,406.9)" />
<use xlink:href="#f2_99" transform="matrix(10.4,0,0,10.4,258.5,406.9)" />
<use xlink:href="#f2_m" transform="matrix(10.4,0,0,10.4,274.3,406.9)" />
<use xlink:href="#f2_2n" transform="matrix(10.4,0,0,10.4,283.2,406.9)" />
<use xlink:href="#f2_1w" transform="matrix(10.4,0,0,10.4,294.2,406.9)" />
<use xlink:href="#f2_2f" transform="matrix(10.4,0,0,10.4,303.1,406.9)" />
<use xlink:href="#f3_2j" transform="matrix(10.4,0,0,10.4,314.4,406.9)" />
<use xlink:href="#f2_w" transform="matrix(10.4,0,0,10.4,329.4,406.9)" />
<use xlink:href="#f2_99" transform="matrix(10.4,0,0,10.4,345.7,406.9)" />
<use xlink:href="#f2_k" transform="matrix(10.4,0,0,10.4,361.5,406.9)" />
<use xlink:href="#f2_h" transform="matrix(10.4,0,0,10.4,370.4,406.9)" />
<use xlink:href="#f2_n" transform="matrix(10.4,0,0,10.4,50.2,461.7)" />
<use xlink:href="#f2_h" transform="matrix(10.4,0,0,10.4,59.1,461.7)" />
<use xlink:href="#f2_1m" transform="matrix(10.4,0,0,10.4,81.9,461.7)" />
<use xlink:href="#f2_23" transform="matrix(10.4,0,0,10.4,97,461.7)" />
<use xlink:href="#f2_1w" transform="matrix(10.4,0,0,10.4,105.8,461.7)" />
<use xlink:href="#f2_2f" transform="matrix(10.4,0,0,10.4,114.7,461.7)" />
<use xlink:href="#f2_1w" transform="matrix(10.4,0,0,10.4,126.3,461.7)" />
<use xlink:href="#f2_2d" transform="matrix(10.4,0,0,10.4,135.2,461.7)" />
<use xlink:href="#f2_20" transform="matrix(10.4,0,0,10.4,140.5,461.7)" />
<use xlink:href="#f2_2f" transform="matrix(10.4,0,0,10.4,156.7,461.7)" />
<use xlink:href="#f2_23" transform="matrix(10.4,0,0,10.4,161.1,461.7)" />
<use xlink:href="#f2_20" transform="matrix(10.4,0,0,10.4,170,461.7)" />
<use xlink:href="#f2_2b" transform="matrix(10.4,0,0,10.4,186,461.7)" />
<use xlink:href="#f2_2a" transform="matrix(10.4,0,0,10.4,194.9,461.7)" />
<use xlink:href="#f2_24" transform="matrix(10.4,0,0,10.4,203.7,461.7)" />
<use xlink:href="#f2_29" transform="matrix(10.4,0,0,10.4,207.3,461.7)" />
<use xlink:href="#f2_2f" transform="matrix(10.4,0,0,10.4,216.1,461.7)" />
<use xlink:href="#f2_2e" transform="matrix(10.4,0,0,10.4,220.6,461.7)" />
<use xlink:href="#f2_2a" transform="matrix(10.4,0,0,10.4,235.9,461.7)" />
<use xlink:href="#f2_21" transform="matrix(10.4,0,0,10.4,244.8,461.7)" />
<use xlink:href="#f2_1z" transform="matrix(10.4,0,0,10.4,256.3,461.7)" />
<use xlink:href="#f2_24" transform="matrix(10.4,0,0,10.4,265.2,461.7)" />
<use xlink:href="#f2_2e" transform="matrix(10.4,0,0,10.4,268.7,461.7)" />
<use xlink:href="#f2_1y" transform="matrix(10.4,0,0,10.4,276.7,461.7)" />
<use xlink:href="#f2_2a" transform="matrix(10.4,0,0,10.4,284.7,461.7)" />
<use xlink:href="#f2_29" transform="matrix(10.4,0,0,10.4,293.6,461.7)" />
<use xlink:href="#f2_2f" transform="matrix(10.4,0,0,10.4,302.4,461.7)" />
<use xlink:href="#f2_24" transform="matrix(10.4,0,0,10.4,306.9,461.7)" />
<use xlink:href="#f2_29" transform="matrix(10.4,0,0,10.4,310.4,461.7)" />
<use xlink:href="#f2_2g" transform="matrix(10.4,0,0,10.4,319.3,461.7)" />
<use xlink:href="#f2_24" transform="matrix(10.4,0,0,10.4,328.1,461.7)" />
<use xlink:href="#f2_2f" transform="matrix(10.4,0,0,10.4,331.7,461.7)" />
<use xlink:href="#f2_2k" transform="matrix(10.4,0,0,10.4,336.1,461.7)" />
<use xlink:href="#f2_2a" transform="matrix(10.4,0,0,10.4,351.4,461.7)" />
<use xlink:href="#f2_21" transform="matrix(10.4,0,0,10.4,360.3,461.7)" />
<use xlink:href="#f4_c" transform="matrix(10.4,0,0,11.9,383.3,459)" />
<use xlink:href="#f4_d" transform="matrix(10.4,0,0,11.9,401.9,459)" />
<use xlink:href="#f4_c" transform="matrix(10.4,0,0,11.9,433.7,448.6)" />
<use xlink:href="#f4_d" transform="matrix(10.4,0,0,11.9,479.7,448.6)" />
<use xlink:href="#f4_c" transform="matrix(10.4,0,0,11.9,506.6,448.6)" />
<use xlink:href="#f4_d" transform="matrix(10.4,0,0,11.9,552.5,448.6)" />
<use xlink:href="#f4_c" transform="matrix(10.4,0,0,11.9,439.1,471.4)" />
<use xlink:href="#f4_d" transform="matrix(10.4,0,0,11.9,488.8,471.4)" />
<use xlink:href="#f4_c" transform="matrix(10.5,0,0,12.1,497.5,471.6)" />
<use xlink:href="#f4_d" transform="matrix(10.5,0,0,12.1,547.2,471.6)" />
</g>
<path d="M433,456.7H558.3" class="g0_38" />
<g fill="#000000" >
<use xlink:href="#f2_k" transform="matrix(10.5,0,0,10.5,471.8,450.6)" />
<use xlink:href="#f2_k" transform="matrix(10.5,0,0,10.5,544.6,450.6)" />
<use xlink:href="#f2_h" transform="matrix(10.5,0,0,10.5,562.2,461)" />
<use xlink:href="#f2_q" transform="matrix(10.5,0,0,10.5,478.4,473.4)" />
<use xlink:href="#f2_p" transform="matrix(10.5,0,0,10.5,536.8,473.4)" />
<use xlink:href="#f3_2j" transform="matrix(10.5,0,0,10.5,440.7,450.6)" />
<use xlink:href="#f3_2j" transform="matrix(10.5,0,0,10.5,513.5,450.6)" />
<use xlink:href="#f3_21" transform="matrix(10.5,0,0,10.5,372.4,461)" />
<use xlink:href="#f3_2j" transform="matrix(10.5,0,0,10.5,390.3,461)" />
<use xlink:href="#f3_2j" transform="matrix(10.5,0,0,10.5,446,473.4)" />
<use xlink:href="#f3_2j" transform="matrix(10.5,0,0,10.5,504.4,473.4)" />
<use xlink:href="#f4_h" transform="matrix(10.5,0,0,10.5,457.6,450.6)" />
<use xlink:href="#f4_f" transform="matrix(10.5,0,0,10.5,491.2,450.6)" />
<use xlink:href="#f4_f" transform="matrix(10.5,0,0,10.5,530.2,450.6)" />
<use xlink:href="#f4_x" transform="matrix(10.5,0,0,10.5,415.1,461)" />
<use xlink:href="#f4_h" transform="matrix(10.5,0,0,10.5,462.9,473.4)" />
<use xlink:href="#f4_h" transform="matrix(10.5,0,0,10.5,521.3,473.4)" />
<use xlink:href="#f2_o" transform="matrix(10.4,0,0,10.4,50.2,512.3)" />
<use xlink:href="#f2_h" transform="matrix(10.4,0,0,10.4,59.1,512.3)" />
<use xlink:href="#f2_1m" transform="matrix(10.4,0,0,10.4,81.9,512.3)" />
<use xlink:href="#f2_2d" transform="matrix(10.4,0,0,10.4,97,512.3)" />
<use xlink:href="#f2_24" transform="matrix(10.4,0,0,10.4,102.3,512.3)" />
<use xlink:href="#f2_2f" transform="matrix(10.4,0,0,10.4,105.8,512.3)" />
<use xlink:href="#f2_20" transform="matrix(10.4,0,0,10.4,110.3,512.3)" />
<use xlink:href="#f2_2f" transform="matrix(10.4,0,0,10.4,126.3,512.3)" />
<use xlink:href="#f2_23" transform="matrix(10.4,0,0,10.4,130.7,512.3)" />
<use xlink:href="#f2_20" transform="matrix(10.4,0,0,10.4,139.6,512.3)" />
<use xlink:href="#f2_29" transform="matrix(10.4,0,0,10.4,155.4,512.3)" />
<use xlink:href="#f2_2g" transform="matrix(10.4,0,0,10.4,164.3,512.3)" />
<use xlink:href="#f2_28" transform="matrix(10.4,0,0,10.4,173.1,512.3)" />
<use xlink:href="#f2_1x" transform="matrix(10.4,0,0,10.4,186.4,512.3)" />
<use xlink:href="#f2_20" transform="matrix(10.4,0,0,10.4,195.3,512.3)" />
<use xlink:href="#f2_2d" transform="matrix(10.4,0,0,10.4,204.2,512.3)" />
<use xlink:href="#f2_2a" transform="matrix(10.4,0,0,10.4,216.6,512.3)" />
<use xlink:href="#f2_21" transform="matrix(10.4,0,0,10.4,225.5,512.3)" />
<use xlink:href="#f2_2b" transform="matrix(10.4,0,0,10.4,236.9,512.3)" />
<use xlink:href="#f2_2a" transform="matrix(10.4,0,0,10.4,245.8,512.3)" />
<use xlink:href="#f2_24" transform="matrix(10.4,0,0,10.4,254.6,512.3)" />
<use xlink:href="#f2_29" transform="matrix(10.4,0,0,10.4,258.2,512.3)" />
<use xlink:href="#f2_2f" transform="matrix(10.4,0,0,10.4,267,512.3)" />
<use xlink:href="#f2_2e" transform="matrix(10.4,0,0,10.4,271.5,512.3)" />
<use xlink:href="#f2_2a" transform="matrix(10.4,0,0,10.4,286.6,512.3)" />
<use xlink:href="#f2_21" transform="matrix(10.4,0,0,10.4,295.5,512.3)" />
<use xlink:href="#f2_1z" transform="matrix(10.4,0,0,10.4,307.1,512.3)" />
<use xlink:href="#f2_24" transform="matrix(10.4,0,0,10.4,315.9,512.3)" />
<use xlink:href="#f2_2e" transform="matrix(10.4,0,0,10.4,319.5,512.3)" />
<use xlink:href="#f2_1y" transform="matrix(10.4,0,0,10.4,327.4,512.3)" />
<use xlink:href="#f2_2a" transform="matrix(10.4,0,0,10.4,335.4,512.3)" />
<use xlink:href="#f2_29" transform="matrix(10.4,0,0,10.4,344.3,512.3)" />
<use xlink:href="#f2_2f" transform="matrix(10.4,0,0,10.4,353.2,512.3)" />
<use xlink:href="#f2_24" transform="matrix(10.4,0,0,10.4,357.6,512.3)" />
<use xlink:href="#f2_29" transform="matrix(10.4,0,0,10.4,361.1,512.3)" />
<use xlink:href="#f2_2g" transform="matrix(10.4,0,0,10.4,370,512.3)" />
<use xlink:href="#f2_24" transform="matrix(10.4,0,0,10.4,378.9,512.3)" />
<use xlink:href="#f2_2f" transform="matrix(10.4,0,0,10.4,382.4,512.3)" />
<use xlink:href="#f2_2k" transform="matrix(10.4,0,0,10.4,386.8,512.3)" />
<use xlink:href="#f2_2a" transform="matrix(10.4,0,0,10.4,401.8,512.3)" />
<use xlink:href="#f2_21" transform="matrix(10.4,0,0,10.4,410.7,512.3)" />
<use xlink:href="#f3_21" transform="matrix(10.4,0,0,10.4,420.7,512.3)" />
<use xlink:href="#f2_b" transform="matrix(10.4,0,0,10.4,425.1,512.3)" />
<use xlink:href="#f3_2j" transform="matrix(10.4,0,0,10.4,430.4,512.3)" />
<use xlink:href="#f2_c" transform="matrix(10.4,0,0,10.4,438.5,512.3)" />
<use xlink:href="#f2_w" transform="matrix(10.4,0,0,10.4,450.8,512.3)" />
<use xlink:href="#f2_1q" transform="matrix(10.4,0,0,10.4,467.3,512.3)" />
<use xlink:href="#f3_2j" transform="matrix(10.4,0,0,10.4,471.7,512.3)" />
<use xlink:href="#f2_1s" transform="matrix(10.4,0,0,10.4,479.8,512.3)" />
<use xlink:href="#f2_24" transform="matrix(10.4,0,0,10.4,491.3,512.3)" />
<use xlink:href="#f2_29" transform="matrix(10.4,0,0,10.4,494.9,512.3)" />
<use xlink:href="#f2_1q" transform="matrix(10.4,0,0,10.4,510.9,512.3)" />
<use xlink:href="#f2_m" transform="matrix(10.4,0,0,10.4,515.3,512.3)" />
<use xlink:href="#f2_f" transform="matrix(10.4,0,0,10.4,524.2,512.3)" />
<use xlink:href="#f2_q" transform="matrix(10.4,0,0,10.4,535.8,512.3)" />
<use xlink:href="#f2_1s" transform="matrix(10.4,0,0,10.4,544.6,512.3)" />
<use xlink:href="#f2_h" transform="matrix(10.4,0,0,10.4,549.1,512.3)" />
<use xlink:href="#f2_p" transform="matrix(10.4,0,0,10.4,50.2,583.8)" />
<use xlink:href="#f2_h" transform="matrix(10.4,0,0,10.4,59.1,583.8)" />
<use xlink:href="#f2_1j" transform="matrix(10.4,0,0,10.4,81.9,583.8)" />
<use xlink:href="#f2_23" transform="matrix(10.4,0,0,10.4,91.8,583.8)" />
<use xlink:href="#f2_20" transform="matrix(10.4,0,0,10.4,101,583.8)" />
<use xlink:href="#f2_21" transform="matrix(10.4,0,0,10.4,118.8,583.8)" />
<use xlink:href="#f2_2g" transform="matrix(10.4,0,0,10.4,123.3,583.8)" />
<use xlink:href="#f2_29" transform="matrix(10.4,0,0,10.4,132.4,583.8)" />
<use xlink:href="#f2_1y" transform="matrix(10.4,0,0,10.4,141.3,583.8)" />
<use xlink:href="#f2_2f" transform="matrix(10.4,0,0,10.4,149.6,583.8)" />
<use xlink:href="#f2_24" transform="matrix(10.4,0,0,10.4,154.3,583.8)" />
<use xlink:href="#f2_2a" transform="matrix(10.4,0,0,10.4,157.9,583.8)" />
<use xlink:href="#f2_29" transform="matrix(10.4,0,0,10.4,166.7,583.8)" />
<use xlink:href="#f2_f" transform="matrix(10.4,0,0,10.4,175.6,583.8)" />
<use xlink:href="#f4_c" transform="matrix(10.5,0,0,11.5,200.5,581.5)" />
<use xlink:href="#f4_d" transform="matrix(10.5,0,0,11.5,217,581.4)" />
<use xlink:href="#f2_m" transform="matrix(10.5,0,0,10.5,282.7,559.6)" />
<use xlink:href="#f2_24" transform="matrix(10.5,0,0,10.5,306.5,559.6)" />
<use xlink:href="#f2_21" transform="matrix(10.5,0,0,10.5,310.1,559.6)" />
<use xlink:href="#f2_l" transform="matrix(10.5,0,0,10.5,346.4,559.6)" />
<use xlink:href="#f2_n" transform="matrix(10.5,0,0,10.5,282.7,583.6)" />
<use xlink:href="#f2_24" transform="matrix(10.5,0,0,10.5,306,583.6)" />
<use xlink:href="#f2_21" transform="matrix(10.5,0,0,10.5,309.6,583.6)" />
<use xlink:href="#f2_l" transform="matrix(10.5,0,0,10.5,346.4,583.6)" />
<use xlink:href="#f2_l" transform="matrix(10.5,0,0,10.5,272.4,607.7)" />
<use xlink:href="#f2_24" transform="matrix(10.5,0,0,10.5,306.5,607.7)" />
<use xlink:href="#f2_21" transform="matrix(10.5,0,0,10.5,310.1,607.7)" />
<use xlink:href="#f2_l" transform="matrix(10.5,0,0,10.5,346.4,607.7)" />
<use xlink:href="#f3_2j" transform="matrix(10.5,0,0,10.5,257.1,559.6)" />
<use xlink:href="#f3_2j" transform="matrix(10.5,0,0,10.5,318.9,559.6)" />
<use xlink:href="#f3_21" transform="matrix(10.5,0,0,10.5,191.9,583.6)" />
<use xlink:href="#f3_2j" transform="matrix(10.5,0,0,10.5,206.4,583.6)" />
<use xlink:href="#f3_2j" transform="matrix(10.5,0,0,10.5,318.5,583.6)" />
<use xlink:href="#f3_2j" transform="matrix(10.5,0,0,10.5,281.4,607.7)" />
<use xlink:href="#f3_2j" transform="matrix(10.5,0,0,10.5,318.9,607.7)" />
<use xlink:href="#f4_28" transform="matrix(10.5,0,0,10.5,248.3,559.6)" />
<use xlink:href="#f4_h" transform="matrix(10.5,0,0,10.5,270.6,559.6)" />
<use xlink:href="#f4_w" transform="matrix(10.5,0,0,10.5,333.1,559.6)" />
<use xlink:href="#f4_4u" transform="matrix(10.5,0,0,10.5,240,560.6)" />
<use xlink:href="#f4_4x" transform="matrix(10.5,0,0,10.5,240,573.8)" />
<use xlink:href="#f4_x" transform="matrix(10.5,0,0,10.5,226.3,583.6)" />
<use xlink:href="#f4_x" transform="matrix(10.5,0,0,10.5,332.9,583.6)" />
<use xlink:href="#f4_4v" transform="matrix(10.5,0,0,10.5,240,586)" />
<use xlink:href="#f4_4x" transform="matrix(10.5,0,0,10.5,240,601.5)" />
<use xlink:href="#f4_y" transform="matrix(10.5,0,0,10.5,333.1,607.7)" />
<use xlink:href="#f4_4w" transform="matrix(10.5,0,0,10.5,240,611.2)" />
<use xlink:href="#f2_24" transform="matrix(10.4,0,0,10.4,367.7,583.8)" />
<use xlink:href="#f2_2e" transform="matrix(10.4,0,0,10.4,371.6,583.8)" />
<use xlink:href="#f2_1w" transform="matrix(10.4,0,0,10.4,388.8,583.8)" />
<use xlink:href="#f2_1y" transform="matrix(10.4,0,0,10.4,406.9,583.8)" />
<use xlink:href="#f2_2a" transform="matrix(10.4,0,0,10.4,415.2,583.8)" />
<use xlink:href="#f2_29" transform="matrix(10.4,0,0,10.4,424.4,583.8)" />
<use xlink:href="#f2_2f" transform="matrix(10.4,0,0,10.4,433.2,583.8)" />
<use xlink:href="#f2_24" transform="matrix(10.4,0,0,10.4,437.7,583.8)" />
<use xlink:href="#f2_29" transform="matrix(10.4,0,0,10.4,441.5,583.8)" />
<use xlink:href="#f2_2g" transform="matrix(10.4,0,0,10.4,450.4,583.8)" />
<use xlink:href="#f2_2a" transform="matrix(10.4,0,0,10.4,459.2,583.8)" />
<use xlink:href="#f2_2g" transform="matrix(10.4,0,0,10.4,468.4,583.8)" />
<use xlink:href="#f2_2e" transform="matrix(10.4,0,0,10.4,477.3,583.8)" />
<use xlink:href="#f2_21" transform="matrix(10.4,0,0,10.4,494.7,583.8)" />
<use xlink:href="#f2_2g" transform="matrix(10.4,0,0,10.4,499.1,583.8)" />
<use xlink:href="#f2_29" transform="matrix(10.4,0,0,10.4,508.3,583.8)" />
<use xlink:href="#f2_1y" transform="matrix(10.4,0,0,10.4,517.2,583.8)" />
<use xlink:href="#f2_2f" transform="matrix(10.4,0,0,10.4,525.4,583.8)" />
<use xlink:href="#f2_24" transform="matrix(10.4,0,0,10.4,530.2,583.8)" />
<use xlink:href="#f2_2a" transform="matrix(10.4,0,0,10.4,533.7,583.8)" />
<use xlink:href="#f2_29" transform="matrix(10.4,0,0,10.4,542.6,583.8)" />
<use xlink:href="#f2_21" transform="matrix(10.4,0,0,10.4,560.8,583.8)" />
<use xlink:href="#f2_2a" transform="matrix(10.4,0,0,10.4,565.2,583.8)" />
<use xlink:href="#f2_2d" transform="matrix(10.4,0,0,10.4,574.4,583.8)" />
<use xlink:href="#f2_1w" transform="matrix(10.4,0,0,10.4,588.8,583.8)" />
<use xlink:href="#f2_27" transform="matrix(10.4,0,0,10.4,598,583.8)" />
<use xlink:href="#f2_27" transform="matrix(10.4,0,0,10.4,601.6,583.8)" />
<use xlink:href="#f3_2j" transform="matrix(10.4,0,0,10.4,81.9,638.6)" />
<use xlink:href="#f4_40" transform="matrix(10.4,0,0,10.4,96.7,638.6)" />
<use xlink:href="#f3_1h" transform="matrix(10.4,0,0,10.4,114.9,638.6)" />
<use xlink:href="#f3_f" transform="matrix(10.4,0,0,10.4,126.4,638.6)" />
<use xlink:href="#f2_21" transform="matrix(10.4,0,0,10.4,137.6,638.6)" />
<use xlink:href="#f2_24" transform="matrix(10.4,0,0,10.4,142.1,638.6)" />
<use xlink:href="#f2_29" transform="matrix(10.4,0,0,10.4,145.6,638.6)" />
<use xlink:href="#f2_1z" transform="matrix(10.4,0,0,10.4,154.5,638.6)" />
<use xlink:href="#f4_28" transform="matrix(10.4,0,0,10.4,169.9,638.6)" />
<use xlink:href="#f2_h" transform="matrix(10.4,0,0,10.4,178.7,638.6)" />
<use xlink:href="#f2_q" transform="matrix(10.4,0,0,10.4,50.2,707.6)" />
<use xlink:href="#f2_h" transform="matrix(10.4,0,0,10.4,59,707.6)" />
<use xlink:href="#f2_15" transform="matrix(10.4,0,0,10.4,81.9,707.6)" />
<use xlink:href="#f2_2a" transform="matrix(10.4,0,0,10.4,91.6,707.6)" />
<use xlink:href="#f2_2d" transform="matrix(10.4,0,0,10.4,100.5,707.6)" />
<use xlink:href="#f2_2i" transform="matrix(10.4,0,0,10.4,112.8,707.6)" />
<use xlink:href="#f2_23" transform="matrix(10.4,0,0,10.4,124.3,707.6)" />
<use xlink:href="#f2_1w" transform="matrix(10.4,0,0,10.4,133.2,707.6)" />
<use xlink:href="#f2_2f" transform="matrix(10.4,0,0,10.4,142,707.6)" />
<use xlink:href="#f2_2h" transform="matrix(10.4,0,0,10.4,153.5,707.6)" />
<use xlink:href="#f2_1w" transform="matrix(10.4,0,0,10.4,161.4,707.6)" />
<use xlink:href="#f2_27" transform="matrix(10.4,0,0,10.4,170.3,707.6)" />
<use xlink:href="#f2_2g" transform="matrix(10.4,0,0,10.4,173.8,707.6)" />
<use xlink:href="#f2_20" transform="matrix(10.4,0,0,10.4,182.7,707.6)" />
<use xlink:href="#f2_2a" transform="matrix(10.4,0,0,10.4,198.7,707.6)" />
<use xlink:href="#f2_21" transform="matrix(10.4,0,0,10.4,207.6,707.6)" />
<use xlink:href="#f3_1a" transform="matrix(10.4,0,0,10.4,218.5,707.6)" />
<use xlink:href="#f2_f" transform="matrix(10.4,0,0,10.4,229.1,707.6)" />
<use xlink:href="#f4_c" transform="matrix(10.4,0,0,11.4,251,705.8)" />
<use xlink:href="#f4_d" transform="matrix(10.4,0,0,11.4,267.5,705.7)" />
</g>
<path d="M299,692.6h45.1" class="g1_38" />
<g fill="#000000" >
<use xlink:href="#f2_2f" transform="matrix(10.5,0,0,10.4,300,686.5)" />
<use xlink:href="#f2_1w" transform="matrix(10.5,0,0,10.4,304.5,686.5)" />
<use xlink:href="#f2_29" transform="matrix(10.5,0,0,10.4,313.4,686.5)" />
<use xlink:href="#f2_m" transform="matrix(10.5,0,0,10.4,323.9,686.5)" />
<use xlink:href="#f2_f" transform="matrix(10.5,0,0,10.4,345.7,696.9)" />
<use xlink:href="#f2_j" transform="matrix(10.5,0,0,10.4,392.4,696.9)" />
<use xlink:href="#f2_2e" transform="matrix(10.5,0,0,10.4,301,709.2)" />
<use xlink:href="#f2_24" transform="matrix(10.5,0,0,10.4,309.1,709.2)" />
<use xlink:href="#f2_29" transform="matrix(10.5,0,0,10.4,312.6,709.2)" />
<use xlink:href="#f2_l" transform="matrix(10.5,0,0,10.4,323.1,709.2)" />
<use xlink:href="#f2_l" transform="matrix(10.5,0,0,10.4,311.7,729.8)" />
<use xlink:href="#f2_f" transform="matrix(10.5,0,0,10.4,332.5,729.8)" />
<use xlink:href="#f2_j" transform="matrix(10.5,0,0,10.4,392.4,729.8)" />
<use xlink:href="#f3_2j" transform="matrix(10.5,0,0,10.4,333.3,686.5)" />
<use xlink:href="#f3_2j" transform="matrix(10.5,0,0,10.4,364.5,696.9)" />
<use xlink:href="#f3_21" transform="matrix(10.5,0,0,10.4,242.4,707.9)" />
<use xlink:href="#f3_2j" transform="matrix(10.5,0,0,10.4,256.9,707.9)" />
<use xlink:href="#f3_2j" transform="matrix(10.5,0,0,10.4,332,709.2)" />
<use xlink:href="#f3_1a" transform="matrix(10.5,0,0,10.4,319.7,729.8)" />
<use xlink:href="#f3_2j" transform="matrix(10.5,0,0,10.4,364.5,729.8)" />
<use xlink:href="#f4_4u" transform="matrix(10.5,0,0,10.4,290.4,687.5)" />
<use xlink:href="#f4_3f" transform="matrix(10.5,0,0,10.4,378.9,696.9)" />
<use xlink:href="#f4_4x" transform="matrix(10.5,0,0,10.4,290.4,698.4)" />
<use xlink:href="#f4_x" transform="matrix(10.5,0,0,10.4,276.7,707.9)" />
<use xlink:href="#f4_4v" transform="matrix(10.5,0,0,10.4,290.4,710.5)" />
<use xlink:href="#f4_4x" transform="matrix(10.5,0,0,10.4,290.4,725.9)" />
<use xlink:href="#f4_x" transform="matrix(10.5,0,0,10.4,378.9,729.8)" />
<use xlink:href="#f4_4w" transform="matrix(10.5,0,0,10.4,290.4,733.3)" />
<use xlink:href="#f2_24" transform="matrix(10.4,0,0,10.4,411.5,707.6)" />
<use xlink:href="#f2_2e" transform="matrix(10.4,0,0,10.4,415.1,707.6)" />
<use xlink:href="#f2_1y" transform="matrix(10.4,0,0,10.4,430,707.6)" />
<use xlink:href="#f2_2a" transform="matrix(10.4,0,0,10.4,438,707.6)" />
<use xlink:href="#f2_29" transform="matrix(10.4,0,0,10.4,446.9,707.6)" />
<use xlink:href="#f2_2f" transform="matrix(10.4,0,0,10.4,455.7,707.6)" />
<use xlink:href="#f2_24" transform="matrix(10.4,0,0,10.4,460.2,707.6)" />
<use xlink:href="#f2_29" transform="matrix(10.4,0,0,10.4,463.7,707.6)" />
<use xlink:href="#f2_2g" transform="matrix(10.4,0,0,10.4,472.6,707.6)" />
<use xlink:href="#f2_2a" transform="matrix(10.4,0,0,10.4,481.4,707.6)" />
<use xlink:href="#f2_2g" transform="matrix(10.4,0,0,10.4,490.3,707.6)" />
<use xlink:href="#f2_2e" transform="matrix(10.4,0,0,10.4,499.2,707.6)" />
<use xlink:href="#f2_h" transform="matrix(10.5,0,0,10.5,575.6,707.6)" />
<use xlink:href="#f3_2j" transform="matrix(10.5,0,0,10.5,532.5,707.6)" />
<use xlink:href="#f3_1h" transform="matrix(10.5,0,0,10.5,563.3,707.6)" />
<use xlink:href="#f4_6" transform="matrix(10.5,0,0,10.5,516.5,707.6)" />
<use xlink:href="#f4_40" transform="matrix(10.5,0,0,10.5,546.4,707.6)" />
<use xlink:href="#f2_r" transform="matrix(10.4,0,0,10.4,50.2,774.5)" />
<use xlink:href="#f2_h" transform="matrix(10.4,0,0,10.4,59.1,774.5)" />
<use xlink:href="#f2_1m" transform="matrix(10.4,0,0,10.4,81.9,774.5)" />
<use xlink:href="#f2_2d" transform="matrix(10.4,0,0,10.4,97,774.5)" />
<use xlink:href="#f2_24" transform="matrix(10.4,0,0,10.4,102.3,774.5)" />
<use xlink:href="#f2_2f" transform="matrix(10.4,0,0,10.4,105.8,774.5)" />
<use xlink:href="#f2_20" transform="matrix(10.4,0,0,10.4,110.3,774.5)" />
<use xlink:href="#f2_1z" transform="matrix(10.4,0,0,10.4,126.1,774.5)" />
<use xlink:href="#f2_20" transform="matrix(10.4,0,0,10.4,135,774.5)" />
<use xlink:href="#f2_2d" transform="matrix(10.4,0,0,10.4,143.8,774.5)" />
<use xlink:href="#f2_24" transform="matrix(10.4,0,0,10.4,149.1,774.5)" />
<use xlink:href="#f2_2h" transform="matrix(10.4,0,0,10.4,152.7,774.5)" />
<use xlink:href="#f2_1w" transform="matrix(10.4,0,0,10.4,160.7,774.5)" />
<use xlink:href="#f2_2f" transform="matrix(10.4,0,0,10.4,169.5,774.5)" />
<use xlink:href="#f2_24" transform="matrix(10.4,0,0,10.4,174,774.5)" />
<use xlink:href="#f2_2h" transform="matrix(10.4,0,0,10.4,177.5,774.5)" />
<use xlink:href="#f2_20" transform="matrix(10.4,0,0,10.4,185.5,774.5)" />
<use xlink:href="#f2_2a" transform="matrix(10.4,0,0,10.4,201.3,774.5)" />
<use xlink:href="#f2_21" transform="matrix(10.4,0,0,10.4,210.2,774.5)" />
<use xlink:href="#f2_2e" transform="matrix(10.4,0,0,10.4,221.8,774.5)" />
<use xlink:href="#f2_24" transform="matrix(10.4,0,0,10.4,229.7,774.5)" />
<use xlink:href="#f2_29" transform="matrix(10.4,0,0,10.4,233.3,774.5)" />
<use xlink:href="#f3_2j" transform="matrix(10.4,0,0,10.4,248.6,774.5)" />
<use xlink:href="#f3_2i" transform="matrix(10.4,0,0,10.4,263.6,774.5)" />
<use xlink:href="#f3_h" transform="matrix(10.4,0,0,10.4,275.1,774.5)" />
<use xlink:href="#f3_2d" transform="matrix(10.4,0,0,10.4,279.6,774.5)" />
<use xlink:href="#f3_h" transform="matrix(10.4,0,0,10.4,284.9,774.5)" />
<use xlink:href="#f3_2f" transform="matrix(10.4,0,0,10.4,289.3,774.5)" />
<use xlink:href="#f3_h" transform="matrix(10.4,0,0,10.4,293.7,774.5)" />
<use xlink:href="#f2_1y" transform="matrix(10.4,0,0,10.4,305,774.5)" />
<use xlink:href="#f2_2a" transform="matrix(10.4,0,0,10.4,313,774.5)" />
<use xlink:href="#f2_2e" transform="matrix(10.4,0,0,10.4,321.9,774.5)" />
<use xlink:href="#f3_2j" transform="matrix(10.4,0,0,10.4,337.1,774.5)" />
<use xlink:href="#f2_h" transform="matrix(10.4,0,0,10.4,345.2,774.5)" />
<use xlink:href="#f2_s" transform="matrix(10.4,0,0,10.4,50.2,808.4)" />
<use xlink:href="#f2_h" transform="matrix(10.4,0,0,10.4,59.1,808.4)" />
<use xlink:href="#f2_18" transform="matrix(10.4,0,0,10.4,81.9,808.4)" />
<use xlink:href="#f2_21" transform="matrix(10.4,0,0,10.4,86.3,808.4)" />
<use xlink:href="#f3_21" transform="matrix(10.4,0,0,10.4,97.5,808.4)" />
<use xlink:href="#f2_b" transform="matrix(10.4,0,0,10.4,101.9,808.4)" />
<use xlink:href="#f3_2j" transform="matrix(10.4,0,0,10.4,107.2,808.4)" />
<use xlink:href="#f2_c" transform="matrix(10.4,0,0,10.4,115.3,808.4)" />
<use xlink:href="#f2_w" transform="matrix(10.4,0,0,10.4,127.6,808.4)" />
<use xlink:href="#f3_2j" transform="matrix(10.4,0,0,10.4,143.9,808.4)" />
<use xlink:href="#f2_l" transform="matrix(7.4,0,0,7.4,151.9,803.1)" />
<use xlink:href="#f3_22" transform="matrix(10.4,0,0,10.4,158.2,808.4)" />
<use xlink:href="#f2_b" transform="matrix(10.4,0,0,10.4,167,808.4)" />
<use xlink:href="#f3_2j" transform="matrix(10.4,0,0,10.4,172.3,808.4)" />
<use xlink:href="#f2_c" transform="matrix(10.4,0,0,10.4,180.4,808.4)" />
<use xlink:href="#f2_1w" transform="matrix(10.4,0,0,10.4,192.6,808.4)" />
<use xlink:href="#f2_29" transform="matrix(10.4,0,0,10.4,201.5,808.4)" />
<use xlink:href="#f2_1z" transform="matrix(10.4,0,0,10.4,210.4,808.4)" />
<use xlink:href="#f3_22" transform="matrix(10.4,0,0,10.4,226,808.4)" />
<use xlink:href="#f2_b" transform="matrix(10.4,0,0,10.4,234.8,808.4)" />
<use xlink:href="#f2_k" transform="matrix(10.4,0,0,10.4,240.1,808.4)" />
<use xlink:href="#f2_c" transform="matrix(10.4,0,0,10.4,249,808.4)" />
<use xlink:href="#f2_w" transform="matrix(10.4,0,0,10.4,261.3,808.4)" />
<use xlink:href="#f2_p" transform="matrix(10.4,0,0,10.4,277.6,808.4)" />
<use xlink:href="#f2_f" transform="matrix(10.4,0,0,10.4,286.4,808.4)" />
<use xlink:href="#f3_22" transform="matrix(10.4,0,0,10.4,297.7,808.4)" />
<use xlink:href="#f2_3e" transform="matrix(10.4,0,0,10.4,306.5,808.4)" />
<use xlink:href="#f2_b" transform="matrix(10.4,0,0,10.4,311.8,808.4)" />
<use xlink:href="#f2_k" transform="matrix(10.4,0,0,10.4,317.1,808.4)" />
<use xlink:href="#f2_c" transform="matrix(10.4,0,0,10.4,326,808.4)" />
<use xlink:href="#f2_w" transform="matrix(10.4,0,0,10.4,338.3,808.4)" />
<use xlink:href="#f2_m" transform="matrix(10.4,0,0,10.4,354.6,808.4)" />
<use xlink:href="#f2_21" transform="matrix(10.4,0,0,10.4,370.4,808.4)" />
<use xlink:href="#f2_24" transform="matrix(10.4,0,0,10.4,374.8,808.4)" />
<use xlink:href="#f2_29" transform="matrix(10.4,0,0,10.4,378.4,808.4)" />
<use xlink:href="#f2_1z" transform="matrix(10.4,0,0,10.4,387.2,808.4)" />
<use xlink:href="#f2_2h" transform="matrix(10.4,0,0,10.4,403.1,808.4)" />
<use xlink:href="#f2_1w" transform="matrix(10.4,0,0,10.4,411.1,808.4)" />
<use xlink:href="#f2_27" transform="matrix(10.4,0,0,10.4,419.9,808.4)" />
<use xlink:href="#f2_2g" transform="matrix(10.4,0,0,10.4,423.5,808.4)" />
<use xlink:href="#f2_20" transform="matrix(10.4,0,0,10.4,432.3,808.4)" />
<use xlink:href="#f2_2a" transform="matrix(10.4,0,0,10.4,448.2,808.4)" />
<use xlink:href="#f2_21" transform="matrix(10.4,0,0,10.4,457,808.4)" />
<use xlink:href="#f3_21" transform="matrix(10.4,0,0,10.4,467.8,808.4)" />
<use xlink:href="#f3_3e" transform="matrix(10.4,0,0,10.4,472.3,808.4)" />
<use xlink:href="#f2_b" transform="matrix(10.4,0,0,10.4,477.6,808.4)" />
<use xlink:href="#f2_k" transform="matrix(10.4,0,0,10.4,482.9,808.4)" />
<use xlink:href="#f2_c" transform="matrix(10.4,0,0,10.4,491.7,808.4)" />
<use xlink:href="#f2_h" transform="matrix(10.4,0,0,10.4,497.1,808.4)" />
<use xlink:href="#f2_k" transform="matrix(10.4,0,0,10.4,41.2,842.3)" />
<use xlink:href="#f2_j" transform="matrix(10.4,0,0,10.4,50.1,842.3)" />
<use xlink:href="#f2_h" transform="matrix(10.4,0,0,10.4,59.3,842.3)" />
<use xlink:href="#f2_1m" transform="matrix(10.4,0,0,10.4,81.9,842.3)" />
<use xlink:href="#f2_2d" transform="matrix(10.4,0,0,10.4,97,842.3)" />
<use xlink:href="#f2_24" transform="matrix(10.4,0,0,10.4,102.3,842.3)" />
<use xlink:href="#f2_2f" transform="matrix(10.4,0,0,10.4,105.8,842.3)" />
<use xlink:href="#f2_20" transform="matrix(10.4,0,0,10.4,110.3,842.3)" />
<use xlink:href="#f2_2f" transform="matrix(10.4,0,0,10.4,126.5,842.3)" />
<use xlink:href="#f2_23" transform="matrix(10.4,0,0,10.4,130.9,842.3)" />
<use xlink:href="#f2_20" transform="matrix(10.4,0,0,10.4,139.8,842.3)" />
<use xlink:href="#f2_1z" transform="matrix(10.4,0,0,10.4,156,842.3)" />
<use xlink:href="#f2_20" transform="matrix(10.4,0,0,10.4,164.8,842.3)" />
<use xlink:href="#f2_2d" transform="matrix(10.4,0,0,10.4,173.7,842.3)" />
<use xlink:href="#f2_24" transform="matrix(10.4,0,0,10.4,179,842.3)" />
<use xlink:href="#f2_2h" transform="matrix(10.4,0,0,10.4,182.6,842.3)" />
<use xlink:href="#f2_1w" transform="matrix(10.4,0,0,10.4,190.5,842.3)" />
<use xlink:href="#f2_2f" transform="matrix(10.4,0,0,10.4,199.4,842.3)" />
<use xlink:href="#f2_24" transform="matrix(10.4,0,0,10.4,203.8,842.3)" />
<use xlink:href="#f2_2h" transform="matrix(10.4,0,0,10.4,207.4,842.3)" />
<use xlink:href="#f2_20" transform="matrix(10.4,0,0,10.4,215.4,842.3)" />
<use xlink:href="#f2_2a" transform="matrix(10.4,0,0,10.4,231.6,842.3)" />
<use xlink:href="#f2_21" transform="matrix(10.4,0,0,10.4,240.4,842.3)" />
<use xlink:href="#f2_2f" transform="matrix(10.4,0,0,10.4,252,842.3)" />
<use xlink:href="#f2_23" transform="matrix(10.4,0,0,10.4,256.4,842.3)" />
<use xlink:href="#f2_20" transform="matrix(10.4,0,0,10.4,265.3,842.3)" />
<use xlink:href="#f2_21" transform="matrix(10.4,0,0,10.4,281.5,842.3)" />
<use xlink:href="#f2_2a" transform="matrix(10.4,0,0,10.4,286,842.3)" />
<use xlink:href="#f2_27" transform="matrix(10.4,0,0,10.4,294.8,842.3)" />
<use xlink:href="#f2_27" transform="matrix(10.4,0,0,10.4,298.4,842.3)" />
<use xlink:href="#f2_2a" transform="matrix(10.4,0,0,10.4,301.9,842.3)" />
<use xlink:href="#f2_2i" transform="matrix(10.4,0,0,10.4,310.8,842.3)" />
<use xlink:href="#f2_24" transform="matrix(10.4,0,0,10.4,322.3,842.3)" />
<use xlink:href="#f2_29" transform="matrix(10.4,0,0,10.4,325.8,842.3)" />
<use xlink:href="#f2_22" transform="matrix(10.4,0,0,10.4,334.7,842.3)" />
<use xlink:href="#f2_21" transform="matrix(10.4,0,0,10.4,350.9,842.3)" />
<use xlink:href="#f2_2g" transform="matrix(10.4,0,0,10.4,355.3,842.3)" />
<use xlink:href="#f2_29" transform="matrix(10.4,0,0,10.4,364.2,842.3)" />
<use xlink:href="#f2_1y" transform="matrix(10.4,0,0,10.4,373.1,842.3)" />
<use xlink:href="#f2_2f" transform="matrix(10.4,0,0,10.4,381,842.3)" />
<use xlink:href="#f2_24" transform="matrix(10.4,0,0,10.4,385.5,842.3)" />
<use xlink:href="#f2_2a" transform="matrix(10.4,0,0,10.4,389,842.3)" />
<use xlink:href="#f2_29" transform="matrix(10.4,0,0,10.4,397.9,842.3)" />
<use xlink:href="#f2_2e" transform="matrix(10.4,0,0,10.4,406.8,842.3)" />
<use xlink:href="#f2_t" transform="matrix(10.4,0,0,10.4,422.1,842.3)" />
<use xlink:href="#f2_b" transform="matrix(10.4,0,0,10.4,104.5,880.3)" />
<use xlink:href="#f2_24" transform="matrix(10.4,0,0,10.4,109.8,880.3)" />
<use xlink:href="#f2_c" transform="matrix(10.4,0,0,10.4,113.3,880.3)" />
<use xlink:href="#f2_27" transform="matrix(10.4,0,0,10.4,136.9,880.3)" />
<use xlink:href="#f2_2a" transform="matrix(10.4,0,0,10.4,140.5,880.3)" />
<use xlink:href="#f2_22" transform="matrix(10.4,0,0,10.4,149.3,880.3)" />
<use xlink:href="#f2_m" transform="matrix(7.4,0,0,7.4,158,885.6)" />
<use xlink:href="#f2_b" transform="matrix(10.4,0,0,10.4,171.2,880.3)" />
<use xlink:href="#f2_m" transform="matrix(10.4,0,0,10.4,176.5,880.3)" />
<use xlink:href="#f3_2j" transform="matrix(10.4,0,0,10.4,185.3,880.3)" />
<use xlink:href="#f2_e" transform="matrix(10.4,0,0,10.4,200.4,880.3)" />
<use xlink:href="#f2_o" transform="matrix(10.4,0,0,10.4,216.6,880.3)" />
<use xlink:href="#f2_c" transform="matrix(10.4,0,0,10.4,225.5,880.3)" />
<use xlink:href="#f2_b" transform="matrix(10.4,0,0,10.4,430.8,880.3)" />
<use xlink:href="#f2_24" transform="matrix(10.4,0,0,10.4,436.1,880.3)" />
<use xlink:href="#f2_24" transform="matrix(10.4,0,0,10.4,439.7,880.3)" />
<use xlink:href="#f2_c" transform="matrix(10.4,0,0,10.4,443.2,880.3)" />
<use xlink:href="#f2_l" transform="matrix(6.8,0,0,6.8,498.1,874.2)" />
<use xlink:href="#f2_27" transform="matrix(7.8,0,0,7.9,480.2,870.9)" />
<use xlink:href="#f2_2a" transform="matrix(7.8,0,0,7.9,482.8,870.9)" />
<use xlink:href="#f2_22" transform="matrix(7.8,0,0,7.9,489.5,870.9)" />
<use xlink:href="#f3_2j" transform="matrix(7.8,0,0,7.9,508.6,870.9)" />
<use xlink:href="#f3_20" transform="matrix(10.6,0,0,10.5,468.3,880.8)" />
<use xlink:href="#f2_b" transform="matrix(10.4,0,0,10.4,97.3,924.6)" />
<use xlink:href="#f2_24" transform="matrix(10.4,0,0,10.4,102.6,924.6)" />
<use xlink:href="#f2_24" transform="matrix(10.4,0,0,10.4,106.2,924.6)" />
<use xlink:href="#f2_24" transform="matrix(10.4,0,0,10.4,109.7,924.6)" />
<use xlink:href="#f2_c" transform="matrix(10.4,0,0,10.4,113.2,924.6)" />
<use xlink:href="#f4_c" transform="matrix(6.9,0,0,7.6,176.7,917.3)" />
<use xlink:href="#f4_d" transform="matrix(6.9,0,0,7.6,198.5,917.2)" />
<use xlink:href="#f2_p" transform="matrix(7,0,0,7,148.6,918.7)" />
<use xlink:href="#f2_27" transform="matrix(7,0,0,7,156.9,918.7)" />
<use xlink:href="#f2_2a" transform="matrix(7,0,0,7,159.3,918.7)" />
<use xlink:href="#f2_22" transform="matrix(7,0,0,7,165.2,918.7)" />
<use xlink:href="#f2_k" transform="matrix(7,0,0,7,194,918.7)" />
<use xlink:href="#f2_f" transform="matrix(10.5,0,0,10.5,203.1,926.2)" />
<use xlink:href="#f2_k" transform="matrix(10.5,0,0,10.5,237.2,926.2)" />
<use xlink:href="#f3_20" transform="matrix(5,0,0,5,170.7,921.5)" />
<use xlink:href="#f3_2j" transform="matrix(7,0,0,7,180.8,918.7)" />
<use xlink:href="#f3_20" transform="matrix(10.5,0,0,10.5,138.4,926.2)" />
<use xlink:href="#f3_2j" transform="matrix(10.5,0,0,10.5,211,926.2)" />
<use xlink:href="#f4_h" transform="matrix(7,0,0,7,188.3,918.7)" />
<use xlink:href="#f4_y" transform="matrix(10.5,0,0,10.5,225.2,926.2)" />
<use xlink:href="#f5_12" transform="matrix(13,0,0,13,256.1,148.2)" />
<use xlink:href="#f5_17" transform="matrix(13,0,0,13,270.4,148.2)" />
<use xlink:href="#f5_10" transform="matrix(13,0,0,13,284.7,148.2)" />
<use xlink:href="#f5_1f" transform="matrix(13,0,0,13,299,148.2)" />
<use xlink:href="#f5_1j" transform="matrix(13,0,0,13,312.2,148.2)" />
<use xlink:href="#f5_14" transform="matrix(13,0,0,13,324.3,148.2)" />
<use xlink:href="#f5_1h" transform="matrix(13,0,0,13,337.5,148.2)" />
<use xlink:href="#f5_o" transform="matrix(13,0,0,13,360.1,148.2)" />
<use xlink:href="#f5_12" transform="matrix(16,0,0,16,93,202.1)" />
<use xlink:href="#f5_1e" transform="matrix(16,0,0,16,110.6,202.1)" />
<use xlink:href="#f5_1d" transform="matrix(16,0,0,16,129.5,202.1)" />
<use xlink:href="#f5_1j" transform="matrix(16,0,0,16,147.1,202.1)" />
<use xlink:href="#f5_18" transform="matrix(16,0,0,16,162,202.1)" />
<use xlink:href="#f5_1d" transform="matrix(16,0,0,16,168.8,202.1)" />
<use xlink:href="#f5_1k" transform="matrix(16,0,0,16,186.4,202.1)" />
<use xlink:href="#f5_18" transform="matrix(16,0,0,16,204,202.1)" />
<use xlink:href="#f5_1j" transform="matrix(16,0,0,16,210.8,202.1)" />
<use xlink:href="#f5_1o" transform="matrix(16,0,0,16,225.7,202.1)" />
<use xlink:href="#f5_10" transform="matrix(16,0,0,16,252.2,202.1)" />
<use xlink:href="#f5_1d" transform="matrix(16,0,0,16,269.8,202.1)" />
<use xlink:href="#f5_13" transform="matrix(16,0,0,16,287.5,202.1)" />
<use xlink:href="#f5_13" transform="matrix(16,0,0,16,315.3,202.1)" />
<use xlink:href="#f5_18" transform="matrix(16,0,0,16,332.9,202.1)" />
<use xlink:href="#f5_15" transform="matrix(16,0,0,16,339.7,202.1)" />
<use xlink:href="#f5_15" transform="matrix(16,0,0,16,354.6,202.1)" />
<use xlink:href="#f5_14" transform="matrix(16,0,0,16,369.5,202.1)" />
<use xlink:href="#f5_1h" transform="matrix(16,0,0,16,385.8,202.1)" />
<use xlink:href="#f5_14" transform="matrix(16,0,0,16,403.4,202.1)" />
<use xlink:href="#f5_1d" transform="matrix(16,0,0,16,419.6,202.1)" />
<use xlink:href="#f5_1j" transform="matrix(16,0,0,16,437.2,202.1)" />
<use xlink:href="#f5_18" transform="matrix(16,0,0,16,452.1,202.1)" />
<use xlink:href="#f5_10" transform="matrix(16,0,0,16,458.9,202.1)" />
<use xlink:href="#f5_1j" transform="matrix(16,0,0,16,476.5,202.1)" />
<use xlink:href="#f5_18" transform="matrix(16,0,0,16,491.4,202.1)" />
<use xlink:href="#f5_1e" transform="matrix(16,0,0,16,498.2,202.1)" />
<use xlink:href="#f5_1d" transform="matrix(16,0,0,16,517.2,202.1)" />
<use xlink:href="#f6_l" transform="matrix(12,0,0,12,638.6,1041.1)" />
</g>
<g fill="#0080FF" fill-opacity="0.5" >
<use xlink:href="#f0_1c" transform="matrix(35.3,0,0,35.3,169.4,1052.8)" />
<use xlink:href="#f0_21" transform="matrix(35.3,0,0,35.3,199.4,1052.8)" />
<use xlink:href="#f0_1x" transform="matrix(35.3,0,0,35.3,229.4,1052.8)" />
<use xlink:href="#f0_2e" transform="matrix(35.3,0,0,35.3,259.4,1052.8)" />
<use xlink:href="#f0_2a" transform="matrix(35.3,0,0,35.3,277.3,1052.8)" />
<use xlink:href="#f0_17" transform="matrix(35.3,0,0,35.3,307.3,1052.8)" />
<use xlink:href="#f0_2h" transform="matrix(35.3,0,0,35.3,349.3,1052.8)" />
<use xlink:href="#f0_25" transform="matrix(35.3,0,0,35.3,379.3,1052.8)" />
<use xlink:href="#f0_20" transform="matrix(35.3,0,0,35.3,391.3,1052.8)" />
<use xlink:href="#f0_21" transform="matrix(35.3,0,0,35.3,421.3,1052.8)" />
<use xlink:href="#f0_i" transform="matrix(35.3,0,0,35.3,451.2,1052.8)" />
<use xlink:href="#f0_25" transform="matrix(35.3,0,0,35.3,466.2,1052.8)" />
<use xlink:href="#f0_2a" transform="matrix(35.3,0,0,35.3,478.2,1052.8)" />
</g>
<defs>
<path d="M593,101c0,0,182,0,279,112c0,0,98,113,98,318c0,0,0,196,-98,308c0,0,-98,112,-277,112c0,0,-181,0,-279,-110c0,0,-99,-111,-99,-310c0,0,0,-198,100,-314c0,0,99,-116,276,-116Zm0,-115c0,0,-162,0,-279,65c0,0,-118,66,-180,190c0,0,-62,124,-62,290c0,0,0,252,138,394c0,0,138,142,385,142c0,0,160,0,278,-64c0,0,118,-64,180,-185c0,0,62,-122,62,-287c0,0,0,-165,-63,-289c0,0,-63,-124,-181,-190c0,0,-118,-66,-278,-66Z" 
id="f0_1f"
transform="scale(0.001,-0.001)" />

<path d="M106,0V635c0,0,0,141,-5,173H228c0,0,1,-4,2,-21c0,0,1,-16,2,-37c0,0,1,-22,2,-81h2c0,0,47,84,108,119c0,0,60,34,151,34c0,0,132,0,194,-66c0,0,61,-66,61,-218V0H615V512c0,0,0,80,-15,124c0,0,-16,44,-50,63c0,0,-35,20,-101,20c0,0,-97,0,-153,-67c0,0,-56,-66,-56,-184V0Z" 
id="f0_2a"
transform="scale(0.001,-0.001)" />

<path d="M103,0V1107H237V0Z" 
id="f0_28"
transform="scale(0.001,-0.001)" />

<path d="M102,0V808H236V0Zm0,979v128H236V979Z" 
id="f0_25"
transform="scale(0.001,-0.001)" />

<path d="M643,478c0,0,-11,128,-65,187c0,0,-54,59,-154,59c0,0,-98,0,-155,-66c0,0,-57,-65,-62,-180ZM431,-14c0,0,-179,0,-272,106c0,0,-94,107,-94,317c0,0,0,200,94,307c0,0,93,106,267,106c0,0,356,0,356,-429V375H206c0,0,0,-138,57,-213c0,0,58,-75,168,-75c0,0,87,0,140,35c0,0,53,35,71,88L760,177c0,0,-72,-191,-329,-191Z" 
id="f0_21"
transform="scale(0.001,-0.001)" />

<path d="M17,0L304,415L31,808H179L380,493L580,808H730L457,417L747,0H598L380,331L162,0Z" 
id="f0_2k"
transform="scale(0.001,-0.001)" />

<path d="M339,87c0,0,74,0,132,34c0,0,57,33,90,91c0,0,34,59,34,121v66L448,396c0,0,-95,-2,-144,-19c0,0,-49,-18,-75,-55c0,0,-26,-38,-26,-98c0,0,0,-65,35,-101c0,0,36,-36,101,-36ZM309,-14c0,0,-122,0,-183,64c0,0,-61,64,-61,176c0,0,0,125,82,192c0,0,83,67,266,72l182,3v44c0,0,0,98,-42,141c0,0,-42,43,-132,43c0,0,-90,0,-131,-31c0,0,-41,-31,-49,-98L101,604c0,0,34,218,323,218c0,0,153,0,229,-70c0,0,77,-69,77,-202V202c0,0,0,-59,16,-90c0,0,16,-30,60,-30c0,0,19,0,44,5V4C850,4,799,-7,746,-7c0,0,-75,0,-109,38c0,0,-33,40,-38,124h-4C595,155,543,62,475,24c0,0,-68,-38,-166,-38Z" 
id="f0_1x"
transform="scale(0.001,-0.001)" />

<path d="M106,0V635c0,0,0,141,-5,173H228c0,0,1,-4,2,-21c0,0,1,-16,2,-37c0,0,1,-22,2,-81h2c0,0,44,86,100,120c0,0,56,33,136,33c0,0,92,0,145,-36c0,0,54,-37,75,-117h2c0,0,42,82,101,117c0,0,59,36,143,36c0,0,123,0,178,-66c0,0,56,-67,56,-218V0H1039V512c0,0,0,117,-32,162c0,0,-32,45,-116,45c0,0,-88,0,-136,-66c0,0,-49,-65,-49,-185V0H573V512c0,0,0,117,-32,162c0,0,-32,45,-116,45c0,0,-86,0,-136,-66c0,0,-50,-66,-50,-185V0Z" 
id="f0_29"
transform="scale(0.001,-0.001)" />

<path d="M453,84c0,0,100,0,146,74c0,0,46,73,46,247c0,0,0,169,-46,241c0,0,-45,73,-145,73c0,0,-80,0,-125,-34c0,0,-45,-34,-68,-105c0,0,-24,-71,-24,-186c0,0,0,-159,51,-234c0,0,51,-76,165,-76ZM103,-316V643c0,0,0,124,-5,165H228c0,0,1,-3,3,-22c0,0,1,-18,3,-56c0,0,2,-38,2,-52h3c0,0,36,75,94,110c0,0,59,34,156,34c0,0,149,0,223,-100c0,0,74,-100,74,-314c0,0,0,-422,-297,-422c0,0,-187,0,-251,140h-4c0,0,3,-6,3,-126V-316Z" 
id="f0_2c"
transform="scale(0.001,-0.001)" />

<path d="M420,84c0,0,121,0,173,78c0,0,52,77,52,243c0,0,0,167,-50,243c0,0,-50,76,-167,76c0,0,-118,0,-170,-78c0,0,-53,-77,-53,-241c0,0,0,-160,52,-241c0,0,52,-80,163,-80Zm1,-98c0,0,-176,0,-267,107c0,0,-90,108,-90,312c0,0,0,417,362,417c0,0,185,0,272,-102c0,0,88,-101,88,-315c0,0,0,-212,-94,-316C692,89,599,-14,421,-14Z" 
id="f0_2b"
transform="scale(0.001,-0.001)" />

<path d="M278,-11c0,0,-162,0,-162,182V710H23v98h99l39,181h90V808H400V710H251V200c0,0,0,-58,19,-82c0,0,19,-23,66,-23c0,0,27,0,77,10V6c0,0,-66,-17,-135,-17Z" 
id="f0_2g"
transform="scale(0.001,-0.001)" />

<path d="M431,0L102,922c0,0,-19,55,-51,110c0,0,-31,56,-86,135H386c0,0,-7,-41,-6,-71c0,0,1,-31,11,-63L581,398l219,635c0,0,12,33,14,63c0,0,3,30,-3,71h378c0,0,-33,-44,-61,-99c0,0,-29,-55,-67,-146L694,0Z" 
id="f1_1l"
transform="scale(0.001,-0.001)" />

<path d="M102,0c0,0,22,54,31,110c0,0,10,55,10,135V922c0,0,0,81,-10,136c0,0,-9,55,-31,109H823L766,1041L709,913c0,0,-42,20,-137,36c0,0,-62,9,-121,13V697H798L728,569L657,441c0,0,-45,21,-131,36c0,0,-38,8,-75,11V206c0,0,117,6,201,22c0,0,126,24,239,84L827,156L762,0Z" 
id="f1_14"
transform="scale(0.001,-0.001)" />

<path d="M452,645c0,0,85,0,139,47c0,0,54,47,54,121c0,0,0,66,-51,107c0,0,-51,42,-132,42H442V645ZM93,0c0,0,22,54,32,110c0,0,9,55,9,135V922c0,0,0,81,-9,136c0,0,-10,55,-32,109H498c0,0,215,0,332,-90c0,0,117,-90,117,-256c0,0,0,-159,-129,-253c0,0,-46,-34,-103,-54L902,246c0,0,57,-82,107,-137c0,0,50,-55,115,-109H803c0,0,-30,0,-104,83c0,0,-73,83,-149,202L442,461V246c0,0,0,-81,9,-136c0,0,10,-56,32,-110Z" 
id="f1_1h"
transform="scale(0.001,-0.001)" />

<path d="M319,0c0,0,22,54,31,110c0,0,10,55,10,135V518L134,922c0,0,-57,100,-95,155c0,0,-37,55,-71,90H351c0,0,4,-29,12,-53c0,0,7,-24,22,-54L517,787l152,273c0,0,14,25,23,49c0,0,9,24,16,58h354c0,0,-35,-33,-73,-88c0,0,-38,-56,-99,-157L668,536V245c0,0,0,-80,9,-135c0,0,9,-56,32,-110Z" 
id="f1_1o"
transform="scale(0.001,-0.001)" />

<path d="M367,-20c0,0,-85,0,-142,12C225,-8,167,2,83,35V332c0,0,41,-55,107,-90c0,0,66,-35,130,-35c0,0,51,0,84,31c0,0,32,31,32,81c0,0,0,49,-23,86c0,0,-22,37,-82,83c0,0,-126,98,-184,181c0,0,-57,82,-57,165c0,0,0,155,106,253c0,0,106,98,272,98c0,0,62,0,133,-13c0,0,71,-13,120,-33V867c0,0,-59,49,-104,70c0,0,-46,20,-94,20c0,0,-47,0,-76,-24c0,0,-29,-25,-29,-63c0,0,0,-41,20,-73c0,0,21,-31,75,-73c0,0,130,-101,189,-189c0,0,59,-87,59,-180c0,0,0,-165,-110,-270C651,85,541,-20,367,-20Z" 
id="f1_1i"
transform="scale(0.001,-0.001)" />

<path d="M99,0c0,0,22,54,32,110c0,0,9,55,9,135V922c0,0,0,81,-10,136c0,0,-9,55,-31,109H489c0,0,-23,-54,-32,-109c0,0,-9,-55,-9,-136V712H790V922c0,0,0,81,-9,136c0,0,-10,55,-32,109h390c0,0,-22,-54,-32,-109c0,0,-9,-55,-9,-136V245c0,0,0,-80,9,-135c0,0,10,-56,32,-110H749c0,0,22,54,32,110c0,0,9,55,9,135V478H448V245c0,0,0,-80,9,-135c0,0,9,-56,32,-110Z" 
id="f1_17"
transform="scale(0.001,-0.001)" />

<path d="M822,206c14,0,28,0,42,1c0,0,53,50,87,150c0,0,34,101,34,210c0,0,0,188,-132,297c0,0,-113,95,-296,95c-13,0,-27,-1,-42,-2c0,0,-53,-49,-86,-150c0,0,-34,-102,-34,-212c0,0,0,-186,132,-295c0,0,114,-94,295,-94ZM690,-20c0,0,-276,0,-452,168C238,148,63,317,63,581c0,0,0,266,175,435c0,0,176,169,452,169c0,0,277,0,452,-169c0,0,175,-169,175,-435c0,0,0,-264,-175,-433c0,0,-175,-168,-452,-168Z" 
id="f1_1e"
transform="scale(0.001,-0.001)" />

<path d="M289,0c0,0,26,60,37,116c0,0,9,55,9,129V961c0,0,-94,-3,-160,-9c0,0,-116,-13,-188,-44l41,130l41,129H981L946,1042L912,917c0,0,-45,18,-154,32c0,0,-58,8,-115,11V245c0,0,0,-74,11,-129c0,0,10,-56,35,-116Z" 
id="f1_1j"
transform="scale(0.001,-0.001)" />

<path d="M693,499L573,830L462,499ZM-39,0c0,0,33,42,61,97c0,0,30,55,71,148l314,761c0,0,22,51,38,98c0,0,15,47,17,63H721c0,0,2,-16,18,-63c0,0,15,-47,37,-98L1091,245c0,0,41,-95,70,-150c0,0,30,-55,60,-95H849c0,0,3,25,-3,55c0,0,-6,30,-24,80L765,295H393L340,135c0,0,-17,-50,-22,-80c0,0,-5,-30,-2,-55Z" 
id="f1_10"
transform="scale(0.001,-0.001)" />

<path d="M108,0c0,0,22,54,31,110c0,0,10,55,10,135V985L-5,1167H418c0,0,21,-44,54,-99c0,0,34,-55,96,-146L857,495V922c0,0,0,81,-9,136c0,0,-9,55,-32,109h378c0,0,-23,-54,-32,-109c0,0,-9,-55,-9,-136V351c0,0,0,-76,11,-178c0,0,11,-101,27,-173H845c0,0,-7,25,-28,67c0,0,-21,42,-45,78L444,628V245c0,0,0,-80,9,-135c0,0,10,-56,32,-110Z" 
id="f1_1d"
transform="scale(0.001,-0.001)" />

<path d="M324,0L78,922c0,0,-23,85,-44,140c0,0,-22,55,-50,105H376c0,0,-7,-56,-7,-99c0,0,1,-42,11,-89L479,513L610,998c0,0,11,42,21,91c0,0,10,49,13,78H861c0,0,4,-36,12,-85c0,0,9,-50,18,-84L1021,492l115,540c0,0,8,33,6,63c0,0,-1,31,-12,72h378c0,0,-30,-50,-52,-105c0,0,-21,-56,-45,-140L1166,0H925L741,597L565,0Z" 
id="f1_1m"
transform="scale(0.001,-0.001)" />

<path d="M462,650c0,0,82,0,133,46c0,0,52,47,52,119c0,0,0,65,-48,106c0,0,-49,41,-125,41H452V650ZM103,0c0,0,22,54,32,110c0,0,9,55,9,135V922c0,0,0,81,-10,136c0,0,-9,55,-31,109H505c0,0,212,0,327,-93c0,0,114,-94,114,-268c0,0,0,-166,-127,-264c0,0,-127,-97,-343,-97H452V246c0,0,0,-81,9,-136c0,0,9,-56,32,-110Z" 
id="f1_1f"
transform="scale(0.001,-0.001)" />

<path d="M821,206c13,0,26,0,40,1c0,0,53,33,86,127c0,0,34,94,34,210c0,0,0,198,-131,314c0,0,-114,101,-297,101c-13,0,-27,-1,-40,-2c0,0,-53,-49,-87,-144c0,0,-33,-95,-33,-195c0,0,0,-197,131,-312c0,0,115,-100,297,-100Zm413,-442c-84,0,-186,15,-288,68c0,0,-113,58,-202,151c0,0,-22,-3,-48,-3c-3,0,-6,0,-9,0c0,0,-276,0,-452,168C235,148,60,316,60,581c0,0,0,266,175,435c0,0,176,169,452,169c0,0,277,0,452,-169c0,0,175,-169,175,-435c0,0,0,-265,-176,-433c0,0,-29,-28,-59,-51c0,0,51,-79,111,-141c0,0,104,-109,233,-165c0,0,-78,-27,-189,-27Z" 
id="f1_1g"
transform="scale(0.001,-0.001)" />

<path d="M512,-17c0,0,-191,0,-285,112c0,0,-94,113,-93,341V922c0,0,0,81,-9,136c0,0,-10,55,-32,109H483c0,0,-22,-54,-32,-109c0,0,-9,-56,-9,-136V502c0,0,0,-147,43,-219c0,0,43,-72,130,-72c0,0,85,0,127,62c0,0,42,61,42,187V922c0,0,0,80,-9,136c0,0,-10,55,-32,109h390c0,0,-22,-54,-31,-109c0,0,-10,-55,-10,-136V245c0,0,0,-80,9,-135c0,0,10,-56,32,-110H815l6,86C821,86,703,-17,512,-17Z" 
id="f1_1k"
transform="scale(0.001,-0.001)" />

<path d="M105,0c0,0,22,54,32,110c0,0,9,55,9,135V922c0,0,0,80,-10,135c0,0,-9,55,-31,110H495c0,0,-23,-54,-32,-109c0,0,-9,-55,-9,-136V245c0,0,0,-80,9,-135c0,0,9,-56,32,-110Z" 
id="f1_18"
transform="scale(0.001,-0.001)" />

<path d="M449,-255c0,0,-184,222,-259,382c0,0,-75,160,-75,331c0,0,0,172,75,332c0,0,75,161,259,382H673c0,0,-156,-201,-220,-362c0,0,-64,-160,-64,-352c0,0,0,-192,64,-352c0,0,64,-160,220,-361Z" 
id="f1_b"
transform="scale(0.001,-0.001)" />

<path d="M335,0c0,0,23,55,32,110c0,0,9,55,9,136V811L199,810v3l443,366V246c0,0,0,-81,10,-136c0,0,9,-56,31,-110Z" 
id="f1_k"
transform="scale(0.001,-0.001)" />

<path d="M90,0c0,0,22,54,32,110c0,0,9,55,9,135V996L-14,1167H428c0,0,2,-38,9,-63c0,0,8,-24,24,-44L752,691l296,369c0,0,23,28,33,53c0,0,10,24,11,54h346c0,0,-50,-120,-70,-208c0,0,-20,-88,-20,-184V245c0,0,0,-80,10,-135c0,0,9,-56,31,-110H999c0,0,23,54,32,110c0,0,9,55,9,135V675L741,291h-1L441,681V245c0,0,0,-80,9,-135c0,0,10,-56,32,-110Z" 
id="f1_1c"
transform="scale(0.001,-0.001)" />

<path d="M90,0c0,0,22,54,32,110c0,0,9,55,9,135V922c0,0,0,81,-9,136c0,0,-10,55,-32,109H480c0,0,-22,-54,-32,-109c0,0,-9,-55,-9,-136V739l269,348c0,0,23,27,33,45c0,0,11,18,14,35h396c0,0,-38,-23,-94,-79c0,0,-55,-55,-153,-166L651,635L957,245c0,0,84,-105,135,-160c0,0,51,-55,93,-85H749c0,0,-25,51,-60,107c0,0,-35,55,-95,138L439,463V245c0,0,0,-80,9,-135c0,0,10,-56,32,-110Z" 
id="f1_1a"
transform="scale(0.001,-0.001)" />

<path d="M115,-255c0,0,156,201,220,361c0,0,64,160,64,352c0,0,0,192,-64,352c0,0,-64,161,-220,362H339c0,0,184,-222,259,-383c0,0,75,-160,75,-331c0,0,0,-171,-75,-332c0,0,-75,-160,-259,-381Z" 
id="f1_c"
transform="scale(0.001,-0.001)" />

<path d="M406,0V763H155V870h2c16,0,114,2,178,48c0,0,70,51,104,157H549V0Z" 
id="f2_k"
transform="scale(0.001,-0.001)" />

<path d="M133,0V162H292V0Z" 
id="f2_h"
transform="scale(0.001,-0.001)" />

<path d="M131,0V1097H891V966H280V631H814V500H280V0Z" 
id="f2_15"
transform="scale(0.001,-0.001)" />

<path d="M424,94c0,0,107,0,169,83c0,0,63,83,63,223c0,0,0,140,-63,224c0,0,-62,83,-169,83c0,0,-106,0,-168,-83c0,0,-62,-84,-62,-224c0,0,0,-140,62,-223c0,0,62,-83,168,-83Zm0,-114c0,0,-165,0,-268,115C156,95,54,211,54,400c0,0,0,189,102,306c0,0,103,116,268,116c0,0,168,0,270,-116c0,0,102,-117,102,-306c0,0,0,-189,-102,-305C694,95,592,-20,424,-20Z" 
id="f2_2a"
transform="scale(0.001,-0.001)" />

<path d="M118,0V799H246V662c0,0,17,32,36,58c0,0,76,102,187,102c0,0,19,0,38,-6V679l-27,1c0,0,-109,0,-168,-66c0,0,-60,-65,-60,-186V0Z" 
id="f2_2d"
transform="scale(0.001,-0.001)" />

<path d="M248,0L21,799H169L322,163L478,799H627L788,158L950,799h133L857,0H713L548,624L392,0Z" 
id="f2_2i"
transform="scale(0.001,-0.001)" />

<path d="M99,0V1097H233V690l23,30c0,0,87,102,219,102c0,0,132,0,203,-71c0,0,72,-72,72,-204V0H616V514c0,0,0,99,-38,142c0,0,-38,44,-124,44c0,0,-102,0,-162,-73c0,0,-59,-74,-59,-199V0Z" 
id="f2_23"
transform="scale(0.001,-0.001)" />

<path d="M335,90c0,0,106,0,179,57c0,0,50,41,67,91c0,0,3,10,4,31c0,0,3,21,3,47v87c0,0,-38,-18,-83,-25L381,360c0,0,-97,-13,-142,-45c0,0,-44,-31,-44,-86c0,0,0,-67,36,-103c0,0,37,-36,104,-36ZM309,-20c0,0,-117,0,-186,61c0,0,-68,63,-68,169c0,0,0,108,64,171c0,0,65,64,189,79l183,23c0,0,22,3,42,8c0,0,26,7,40,27c0,0,15,20,15,51v6c0,0,0,64,-49,101c0,0,-48,36,-135,36c0,0,-83,0,-130,-38c0,0,-46,-39,-56,-115H94c0,0,10,131,92,197c0,0,83,66,238,66c0,0,145,0,222,-63c0,0,76,-63,76,-184V137c0,0,0,-21,12,-33c0,0,12,-12,33,-12c0,0,6,0,18,1c0,0,11,2,25,5V1c0,0,-20,-7,-41,-11c0,0,-22,-5,-37,-5c0,0,-76,0,-110,41c0,0,-22,28,-32,79c0,0,-15,-19,-34,-36c0,0,-101,-89,-247,-89Z" 
id="f2_1w"
transform="scale(0.001,-0.001)" />

<path d="M292,-9c0,0,-88,0,-124,38c0,0,-36,39,-36,134V689H22V799H132v224H266V799H392V689H266V163c0,0,0,-27,21,-43c0,0,21,-15,57,-15h48V1C392,1,324,-9,292,-9Z" 
id="f2_2f"
transform="scale(0.001,-0.001)" />

<path d="M310,0L12,799H168L383,145L604,799H752L454,0Z" 
id="f2_2h"
transform="scale(0.001,-0.001)" />

<path d="M103,0V1097H237V0Z" 
id="f2_27"
transform="scale(0.001,-0.001)" />

<path d="M375,-20c0,0,-136,0,-203,66c0,0,-68,68,-68,204V799H238V284c0,0,0,-101,38,-146c0,0,39,-44,127,-44c0,0,97,0,153,75c0,0,57,75,57,203V799H747V0H620V122c0,0,-14,-22,-30,-41C590,81,504,-20,375,-20Z" 
id="f2_2g"
transform="scale(0.001,-0.001)" />

<path d="M649,461c0,0,-6,111,-55,172c0,0,-55,69,-160,69c0,0,-106,0,-170,-79c0,0,-50,-62,-60,-162ZM425,-20c0,0,-169,0,-266,106c0,0,-97,107,-97,297c0,0,0,201,102,320c0,0,103,119,276,119c0,0,157,0,253,-116c0,0,96,-117,96,-306l-1,-48H204c0,0,8,-119,54,-182c0,0,57,-76,180,-76c0,0,77,0,134,43c0,0,58,43,70,110H775C775,247,746,116,656,47c0,0,-90,-67,-231,-67Z" 
id="f2_20"
transform="scale(0.001,-0.001)" />

<path d="M132,0V687H22V799H132V935c0,0,0,88,52,133c0,0,52,45,157,45l59,-3V989l-53,2c0,0,-39,0,-60,-24c0,0,-21,-25,-21,-71V799H400V687H266V0Z" 
id="f2_21"
transform="scale(0.001,-0.001)" />

<path d="M17,0L389,412L201,800H376L500,518L742,800H904L554,410L750,0H580L448,303L187,0Z" 
id="f3_2j"
transform="scale(0.001,-0.001)" />

<path d="M86,-226l16,71c0,0,47,8,74,52c0,0,21,34,38,103H135l18,82l17,81H329L295,11c0,0,-23,-106,-70,-158c0,0,-45,-52,-139,-79Z" 
id="f3_f"
transform="scale(0.001,-0.001)" />

<path d="M131,0L274,688H168l23,112H296l26,125c0,0,20,98,82,143c0,0,62,46,176,46c0,0,33,0,59,-5L609,990c0,0,0,3,-53,3c0,0,-45,0,-70,-25c0,0,-25,-25,-37,-83L431,800H575L553,688H409L266,0Z" 
id="f3_21"
transform="scale(0.001,-0.001)" />

<path d="M365,-315c0,0,-136,187,-199,359c0,0,-62,172,-62,359c0,0,0,186,62,358c0,0,63,172,199,360h92c0,0,-110,-192,-160,-365c0,0,-51,-172,-51,-353c0,0,0,-183,51,-355c0,0,50,-172,160,-363Z" 
id="f2_b"
transform="scale(0.001,-0.001)" />

<path d="M52,-315c0,0,109,192,160,363c0,0,50,173,50,354c0,0,0,183,-50,355c0,0,-51,173,-160,364h92c0,0,135,-188,198,-360c0,0,63,-172,63,-359c0,0,0,-187,-63,-359c0,0,-63,-171,-198,-358Z" 
id="f2_c"
transform="scale(0.001,-0.001)" />

<path d="M60,174V286H832V174Zm0,309V595H832V483Z" 
id="f2_w"
transform="scale(0.001,-0.001)" />

<path d="M144,-381V1146H255V-381Z" 
id="f2_2n"
transform="scale(0.001,-0.001)" />

<path d="M39,0V0c0,0,0,170,84,277c0,0,85,108,317,236c0,0,113,62,154,115c0,0,41,52,41,134c0,0,0,86,-62,141c0,0,-61,54,-156,54c0,0,-101,0,-158,-68c0,0,-57,-68,-60,-194H67c0,0,-2,178,95,279c0,0,98,101,273,101c0,0,149,0,245,-89c0,0,94,-88,94,-228c0,0,0,-118,-60,-195c0,0,-61,-76,-229,-169C485,394,303,294,237,212c0,0,-28,-36,-46,-81H774V0Z" 
id="f2_l"
transform="scale(0.001,-0.001)" />

<path d="M0,368V478H849V368Z" 
id="f2_99"
transform="scale(0.001,-0.001)" />

<path d="M212,0c0,0,51,270,162,500c0,0,109,222,281,422H57v131H799V934C799,934,623,726,515,498C515,498,408,269,362,0Z" 
id="f2_q"
transform="scale(0.001,-0.001)" />

<path d="M104,0V799H238V0Zm-2,946v152H239V946Z" 
id="f2_24"
transform="scale(0.001,-0.001)" />

<path d="M393,-20c0,0,-169,0,-252,65c0,0,-83,67,-92,210H178c0,0,10,-85,61,-123c0,0,50,-38,154,-38c0,0,90,0,136,34c0,0,47,35,47,100c0,0,0,42,-31,64c0,0,-30,21,-123,43L283,368c0,0,-112,27,-160,75c0,0,-48,48,-48,135c0,0,0,112,80,178c0,0,81,66,218,66c0,0,140,0,222,-68c0,0,82,-67,88,-187H557c0,0,-6,67,-55,103c0,0,-48,37,-129,37c0,0,-84,0,-127,-29c0,0,-44,-29,-44,-85c0,0,0,-43,31,-65c0,0,30,-21,121,-43L493,452c0,0,117,-28,167,-78c0,0,49,-49,49,-138c0,0,0,-119,-86,-188c0,0,-85,-68,-230,-68Z" 
id="f2_2e"
transform="scale(0.001,-0.001)" />

<path d="M99,0V799H226V681l30,39c0,0,87,102,219,102c0,0,132,0,203,-71c0,0,72,-72,72,-204V0H616V502c0,0,0,105,-41,151c0,0,-40,47,-132,47c0,0,-97,0,-154,-73c0,0,-56,-74,-56,-199V0Z" 
id="f2_29"
transform="scale(0.001,-0.001)" />

<path d="M411,93c0,0,98,0,158,73c0,0,60,74,60,195c0,0,0,163,-57,252c0,0,-56,88,-161,88c0,0,-113,0,-165,-72c0,0,-52,-72,-52,-229c0,0,0,-147,56,-227c0,0,56,-80,161,-80ZM404,-20c0,0,-161,0,-255,118c0,0,-95,120,-95,324c0,0,0,179,92,290c0,0,91,110,239,110c0,0,147,0,233,-124l11,-15v414H763V0H638V109L621,84C621,84,538,-20,404,-20Z" 
id="f2_1z"
transform="scale(0.001,-0.001)" />

<path d="M436,95c0,0,105,0,160,79c0,0,54,80,54,232c0,0,0,150,-52,222c0,0,-52,72,-161,72c0,0,-112,0,-163,-81c0,0,-51,-82,-51,-258c0,0,0,-127,55,-197c0,0,55,-69,158,-69Zm6,-115c0,0,-135,0,-215,102L215,98V0H89V1097H223V695c0,0,87,127,225,127c1,0,2,0,2,0c0,0,157,0,249,-108c0,0,91,-107,91,-291c0,0,0,-208,-92,-326C698,97,606,-20,442,-20Z" 
id="f2_1x"
transform="scale(0.001,-0.001)" />

<path d="M312,0L24,1098l80,-1l81,1L380,230c0,0,6,-22,9,-42c0,0,3,-17,3,-26c0,4,1,13,4,28c0,0,4,20,9,40l232,867H804L1035,234c0,0,6,-20,10,-41c0,0,3,-19,3,-29c0,3,1,12,4,28c0,0,3,21,8,42l198,864l80,-1l79,1L1130,0H971L733,849c0,0,-6,21,-11,42c0,0,-4,21,-4,29c0,0,0,-9,-4,-30c0,0,-4,-20,-10,-41L471,0Z" 
id="f2_1m"
transform="scale(0.001,-0.001)" />

<path d="M436,95c0,0,105,0,160,79c0,0,54,80,54,232c0,0,0,150,-52,222c0,0,-52,72,-161,72c0,0,-112,0,-163,-81c0,0,-51,-82,-51,-258c0,0,0,-127,55,-197c0,0,55,-69,158,-69ZM89,-315V799H216V685l7,10c0,0,86,127,228,127c0,0,156,0,248,-108c0,0,91,-107,91,-291c0,0,0,-208,-92,-326C698,97,606,-20,442,-20c0,0,-135,0,-215,102l-4,6V-315Z" 
id="f2_2b"
transform="scale(0.001,-0.001)" />

<path d="M394,-20c0,0,-159,0,-253,113c0,0,-95,114,-95,307c0,0,0,193,98,308c0,0,98,114,264,114c0,0,144,0,230,-78c0,0,85,-79,91,-217H600c0,0,-8,86,-59,133c0,0,-52,47,-138,47c0,0,-101,0,-159,-82c0,0,-58,-82,-58,-225c0,0,0,-152,54,-229c0,0,53,-77,159,-77c0,0,79,0,132,50c0,0,52,51,69,143H729C729,287,709,137,623,58c0,0,-86,-78,-229,-78Z" 
id="f2_1y"
transform="scale(0.001,-0.001)" />

<path d="M152,-323c-8,0,-38,1,-63,8v125c0,0,30,-11,77,-12c0,0,45,0,76,37c0,0,30,38,69,140l2,12v1L17,799H170L383,139L600,799H747L443,-25c0,0,-70,-184,-125,-241c0,0,-55,-57,-164,-57c0,0,-1,0,-2,0Z" 
id="f2_2k"
transform="scale(0.001,-0.001)" />

<path d="M435,95c0,0,93,0,168,75c0,0,74,75,99,192c0,0,35,167,-1,254c0,0,-36,87,-140,87c0,0,-127,0,-208,-116c0,0,-80,-116,-80,-298c0,0,0,-93,43,-143c0,0,42,-51,119,-51ZM318,-336c0,0,-125,0,-193,65c0,0,-67,64,-61,180H198c0,0,-3,-62,39,-96c0,0,42,-35,119,-35c0,0,116,0,185,67c0,0,69,67,96,204l9,41l-2,-2C644,88,535,-20,404,-20c0,0,-127,0,-198,74c0,0,-70,75,-70,212c0,0,1,240,121,398c0,0,121,159,303,159c0,0,143,0,206,-129l8,-16l25,122H927L772,49c0,0,-39,-191,-153,-288c0,0,-114,-97,-301,-97Z" 
id="f3_22"
transform="scale(0.001,-0.001)" />

<path d="M390,-1V329H60V441H390V771H503V441H833V329H503V-1Z" 
id="f2_e"
transform="scale(0.001,-0.001)" />

<path d="M424,-28c0,0,-180,0,-272,86c0,0,-92,87,-100,266H192c0,0,12,-126,66,-180c0,0,55,-54,170,-54c0,0,100,0,163,57c0,0,64,57,64,147c0,0,0,94,-61,149c0,0,-52,48,-135,54c0,0,-38,2,-72,2c0,0,-34,0,-45,-3V613c0,0,17,-3,51,-3c0,0,35,0,68,4c0,0,66,8,106,43c0,0,55,45,55,125c0,0,0,77,-58,125c0,0,-58,48,-148,48c0,0,-96,0,-147,-58c0,0,-51,-59,-56,-175H82c0,0,0,168,89,260c0,0,88,93,250,93c0,0,153,0,247,-77c0,0,94,-76,94,-202c0,0,0,-124,-95,-201c0,0,-18,-15,-39,-27c0,0,39,-17,69,-41c0,0,101,-79,101,-214c0,0,0,-151,-105,-246c0,0,-104,-95,-269,-95Z" 
id="f2_m"
transform="scale(0.001,-0.001)" />

<path d="M511,373V863L169,383l-7,-10ZM511,0V258H38V383l496,691H646V373H799V258H646V0Z" 
id="f2_n"
transform="scale(0.001,-0.001)" />

<path d="M412,-328c0,0,-195,96,-303,284C109,-44,0,142,0,365c0,0,0,232,114,422c0,0,114,191,298,273v-31c0,0,-92,-51,-151,-139c0,0,-59,-88,-88,-223c0,0,-29,-136,-29,-282c0,0,0,-167,27,-301c0,0,26,-133,82,-221c0,0,55,-89,159,-159v-32Z" 
id="f4_c"
transform="scale(0.001,-0.001)" />

<path d="M34,-328v32c0,0,92,50,151,138c0,0,59,88,88,222c0,0,29,135,29,283c0,0,0,165,-27,300c0,0,-26,134,-82,222c0,0,-56,89,-159,160v31c0,0,194,-96,303,-284c0,0,108,-187,108,-410c0,0,0,-232,-114,-422c0,0,-114,-191,-297,-272Z" 
id="f4_d"
transform="scale(0.001,-0.001)" />

<path d="M432,92c0,0,96,0,156,66c0,0,61,65,61,169c0,0,0,103,-61,169c0,0,-60,66,-156,66c0,0,-95,0,-156,-66c0,0,-61,-66,-61,-169c0,0,0,-104,61,-169c0,0,61,-66,156,-66ZM425,-28c0,0,-176,0,-271,135c0,0,-95,136,-95,388c0,0,0,278,103,429c0,0,103,151,293,151c0,0,142,0,226,-77c0,0,84,-76,90,-211H638c0,0,-8,80,-56,123c0,0,-47,43,-127,43c0,0,-125,0,-192,-119c0,0,-58,-102,-64,-278c0,0,100,127,255,127c0,0,152,0,245,-98c0,0,93,-98,93,-258c0,0,0,-161,-101,-259c0,0,-101,-96,-266,-96Z" 
id="f2_p"
transform="scale(0.001,-0.001)" />

<path d="M0,356v74H784V356Z" 
id="f4_h"
transform="scale(0.001,-0.001)" />

<path d="M355,0V355H0v72H355V784h72V427H782V355H427V0Z" 
id="f4_f"
transform="scale(0.001,-0.001)" />

<path d="M0,214v74H784V214ZM0,494v72H784V494Z" 
id="f4_x"
transform="scale(0.001,-0.001)" />

<path d="M417,-28c0,0,-161,0,-259,79c0,0,-98,81,-109,223H189c0,0,11,-90,72,-139c0,0,61,-49,162,-49c0,0,96,0,158,68c0,0,61,68,61,175c0,0,0,112,-64,178c0,0,-64,66,-173,66c0,0,-59,0,-115,-28c0,0,-55,-29,-84,-73L93,480l77,573H727V922H271L225,629l4,3c0,0,89,60,188,60c0,0,169,0,269,-94c0,0,99,-93,99,-253c0,0,0,-165,-103,-269C682,76,579,-28,417,-28Z" 
id="f2_o"
transform="scale(0.001,-0.001)" />

<path d="M99,0V799H226V680l28,36c0,0,90,106,215,106c0,0,107,0,171,-63c0,0,28,-28,44,-65l21,28c0,0,87,100,208,100c0,0,125,0,194,-68c0,0,68,-68,68,-194V0H1041V515c0,0,0,91,-37,138c0,0,-38,47,-110,47c0,0,-87,0,-139,-68c0,0,-52,-68,-52,-183V0H569V547c0,0,0,75,-34,114c0,0,-34,39,-99,39c0,0,-89,0,-146,-76c0,0,-57,-76,-57,-196V0Z" 
id="f2_28"
transform="scale(0.001,-0.001)" />

<path d="M96,-299V1104H382V995H217V-191H382V-299Z" 
id="f2_1q"
transform="scale(0.001,-0.001)" />

<path d="M42,-299v108H207V995H42v109H329V-299Z" 
id="f2_1s"
transform="scale(0.001,-0.001)" />

<path d="M133,-224v71c0,0,47,8,65,52c0,0,14,33,17,101H133V163H292V27c0,0,0,-114,-36,-172c0,0,-37,-58,-123,-79Z" 
id="f2_f"
transform="scale(0.001,-0.001)" />

<path d="M392,0V966H22v131H911V966H541V0Z" 
id="f2_1j"
transform="scale(0.001,-0.001)" />

<path d="M620,-14c0,0,-52,0,-93,43c0,0,-41,45,-77,203L384,522L132,0H0L340,703l-12,66c0,0,-23,107,-61,146c0,0,-37,38,-83,38c0,0,-42,0,-74,-30c0,0,-31,-31,-41,-100H43c0,0,2,117,57,187c0,0,40,51,96,51c0,0,50,0,86,-40c0,0,54,-60,88,-213L489,283c0,0,27,-118,62,-153c0,0,33,-36,79,-36c0,0,43,0,71,29c0,0,28,29,33,94h30c0,0,1,-19,1,-29c0,0,0,-98,-49,-158c0,0,-37,-44,-96,-44Z" 
id="f4_28"
transform="scale(0.001,-0.001)" />

<path d="M751,0L0,371v39L751,783V702L122,392L751,80V0Z" 
id="f4_w"
transform="scale(0.001,-0.001)" />

<path d="M0,-123V985c0,0,0,202,88,304c0,0,88,101,278,126v-33c0,0,-112,-27,-179,-86c0,0,-67,-59,-91,-136c0,0,-24,-76,-24,-252V-123Z" 
id="f4_4u"
transform="scale(0.001,-0.001)" />

<path d="M0,-123V1415H73V-123Z" 
id="f4_4x"
transform="scale(0.001,-0.001)" />

<path d="M293,-123V191c0,0,0,200,-67,292c0,0,-67,92,-226,135v57c0,0,159,44,226,135c0,0,67,92,67,292v313h73V1088c0,0,0,-108,-23,-189c0,0,-22,-80,-61,-127c0,0,-39,-46,-95,-75c0,0,-56,-28,-153,-51c0,0,97,-21,157,-52c0,0,61,-31,99,-82c0,0,39,-51,57,-125c0,0,19,-74,19,-180V-123Z" 
id="f4_4v"
transform="scale(0.001,-0.001)" />

<path d="M45,0V81L673,391L45,704v80L795,412V374L45,0Z" 
id="f4_y"
transform="scale(0.001,-0.001)" />

<path d="M679,-123c0,0,-190,24,-278,124c0,0,-88,101,-88,305V1415h72V383c0,0,0,-111,12,-191c0,0,11,-79,46,-133c0,0,35,-53,94,-91c0,0,59,-39,142,-58v-33Z" 
id="f4_4w"
transform="scale(0.001,-0.001)" />

<path d="M398,0C398,0,266,0,185,39c0,0,-82,39,-133,124C52,163,0,248,0,342c0,0,0,144,103,243c0,0,103,98,292,98H694V611H387c0,0,-99,0,-166,-32c0,0,-68,-32,-105,-88c0,0,-26,-40,-41,-113H694V304H75c0,0,30,-120,103,-176c0,0,73,-56,210,-56H694V0Z" 
id="f4_40"
transform="scale(0.001,-0.001)" />

<path d="M773,597c0,0,120,0,185,67c0,0,65,66,65,188c0,0,0,57,-42,88c0,0,-43,31,-119,31H483L406,597ZM134,0L361,1097H900c0,0,134,0,208,-55c0,0,73,-55,74,-156c0,0,0,-171,-116,-280c0,0,-44,-41,-96,-66c0,0,30,-13,50,-31c0,0,57,-55,35,-179L1020,133c0,0,-9,-48,-3,-70c0,0,6,-21,32,-39L1045,1H865c0,0,-1,30,5,87c0,0,6,58,15,111l14,81c0,0,19,102,-17,147c0,0,-36,44,-134,44H380L283,0Z" 
id="f3_1h"
transform="scale(0.001,-0.001)" />

<path d="M116,0L343,1097H492L381,565l641,533l104,-1l104,1L686,659L1012,0H821L552,552L344,384L265,0Z" 
id="f3_1a"
transform="scale(0.001,-0.001)" />

<path d="M424,92c0,0,114,0,170,107c0,0,57,108,56,323c0,0,1,216,-56,324c0,0,-56,107,-170,107c0,0,-112,0,-168,-107c0,0,-56,-108,-57,-324c0,0,1,-215,57,-323c0,0,56,-107,168,-107Zm0,-120c0,0,-176,0,-271,142c0,0,-96,143,-96,408c0,0,0,265,96,409c0,0,95,144,271,144c0,0,178,0,273,-144c0,0,96,-144,96,-409c0,0,0,-265,-96,-408c0,0,-95,-142,-273,-142Z" 
id="f2_j"
transform="scale(0.001,-0.001)" />

<path d="M130,0L252,216H0v70H292L410,496H0v70H450L572,783h82L532,566H783V496H492L377,286H783V216H335L213,0Z" 
id="f4_3f"
transform="scale(0.001,-0.001)" />

<path d="M475,91L710,641H238L475,91ZM434,0L0,1012H78L206,716H742l126,296h76L512,0Z" 
id="f4_6"
transform="scale(0.001,-0.001)" />

<path d="M424,92c0,0,98,0,161,58c0,0,62,58,62,149c0,0,0,92,-62,151c0,0,-63,58,-161,58c0,0,-98,0,-160,-58c0,0,-63,-59,-63,-151c0,0,0,-91,63,-149c0,0,62,-58,160,-58Zm0,533c0,0,82,0,134,46c0,0,52,45,52,118c0,0,0,72,-52,118c0,0,-52,46,-134,46c0,0,-82,0,-134,-46c0,0,-52,-46,-52,-118c0,0,0,-73,52,-119c0,0,52,-45,134,-45Zm0,-653c0,0,-165,0,-265,90C159,62,59,154,59,305c0,0,0,134,100,216c0,0,35,28,78,47c0,0,-27,15,-52,33c0,0,-90,70,-90,185c0,0,0,130,90,209c0,0,91,80,239,80c0,0,148,0,238,-80c0,0,91,-79,91,-209c0,0,0,-115,-91,-185c0,0,-24,-19,-52,-32c0,0,44,-20,79,-49c0,0,101,-81,101,-215c0,0,0,-151,-101,-243c0,0,-100,-90,-265,-90Z" 
id="f2_r"
transform="scale(0.001,-0.001)" />

<path d="M250,0L191,800H336L357,162L653,800H797L819,163l296,637h134L855,0H715L685,627L389,0Z" 
id="f3_2i"
transform="scale(0.001,-0.001)" />

<path d="M133,0l33,162H326L292,0Z" 
id="f3_h"
transform="scale(0.001,-0.001)" />

<path d="M118,0L283,800H411L380,652c0,0,35,47,69,81c0,0,92,90,197,90c0,0,20,0,38,-5L653,679H604c0,0,-91,0,-164,-61c0,0,-72,-62,-92,-154L253,0Z" 
id="f3_2d"
transform="scale(0.001,-0.001)" />

<path d="M281,-9c0,0,-86,0,-115,42c0,0,-30,43,-11,139L263,688H157l23,112H285l47,224H467L420,800H548L525,688H398L290,172c0,0,-6,-35,11,-51c0,0,16,-16,58,-16h46L383,0c0,0,-68,-9,-102,-9Z" 
id="f3_2f"
transform="scale(0.001,-0.001)" />

<path d="M419,483c0,0,93,0,152,66c0,0,59,66,59,169c0,0,0,103,-59,169c0,0,-59,65,-152,65c0,0,-94,0,-153,-65c0,0,-59,-66,-59,-169c0,0,0,-103,59,-169c0,0,59,-66,153,-66ZM397,-28c0,0,-143,0,-227,75c0,0,-85,77,-91,211H209c0,0,8,-83,57,-128c0,0,49,-45,131,-45c0,0,121,0,186,135c0,0,48,101,62,265C645,485,545,362,397,362c0,0,-150,0,-241,98c0,0,-91,98,-91,258c0,0,0,160,99,258c0,0,99,98,262,98c0,0,173,0,266,-123c0,0,94,-123,94,-349c0,0,0,-303,-101,-467C685,135,583,-28,397,-28Z" 
id="f2_s"
transform="scale(0.001,-0.001)" />

<path d="M139,0V1097H287V0Z" 
id="f2_18"
transform="scale(0.001,-0.001)" />

<path d="M187,905l135,216H487L290,905Z" 
id="f2_3e"
transform="scale(0.001,-0.001)" />

<path d="M379,906l185,216H726L482,906Z" 
id="f3_3e"
transform="scale(0.001,-0.001)" />

<path d="M418,95c0,0,98,0,158,73c0,0,59,73,59,193c0,0,0,170,-54,254c0,0,-54,85,-163,85c0,0,-113,0,-165,-72c0,0,-52,-71,-52,-227c0,0,0,-147,57,-227c0,0,56,-79,160,-79ZM394,-336c0,0,-136,0,-216,62c0,0,-79,63,-96,182H219c0,0,12,-64,57,-98c0,0,45,-35,116,-35c0,0,116,0,176,73c0,0,61,73,61,211V85l-1,-1C628,84,545,-20,412,-20c0,0,-161,0,-256,118c0,0,-94,120,-94,324c0,0,0,179,93,290c0,0,93,110,244,110c0,0,144,0,228,-124l10,-14V799H763V59c0,0,-1,-201,-91,-298c0,0,-91,-97,-278,-97Z" 
id="f2_22"
transform="scale(0.001,-0.001)" />

<path d="M133,0V162H292V0Zm0,628V790H292V628Z" 
id="f2_t"
transform="scale(0.001,-0.001)" />

<path d="M748,462c0,0,3,31,3,63c0,0,0,86,-45,132c0,0,-46,45,-134,45c0,0,-100,0,-180,-85c0,0,-58,-63,-90,-155ZM419,-20c0,0,-136,0,-213,73c0,0,-77,74,-78,206c0,0,0,25,4,58c0,0,4,32,10,63c0,0,44,208,169,326c0,0,125,117,305,117c0,0,128,0,198,-73c0,0,71,-73,71,-207c0,0,1,-100,-24,-189H278l-4,-25c0,0,-3,-30,-3,-55c0,0,0,-90,44,-134c0,0,44,-45,133,-45c0,0,87,0,156,44c0,0,68,45,95,117H830C830,256,782,126,674,52c0,0,-108,-72,-255,-72Z" 
id="f3_20"
transform="scale(0.001,-0.001)" />

<path d="M571,-29c0,0,-231,0,-367,153C204,124,67,279,67,543c0,0,0,268,137,426c0,0,136,158,367,158c0,0,195,0,324,-105c0,0,128,-106,150,-287H816c0,0,-11,89,-76,142c0,0,-65,52,-166,52c0,0,-128,0,-200,-102c0,0,-73,-102,-73,-283c0,0,0,-176,72,-276c0,0,72,-100,201,-100c0,0,101,0,166,58c0,0,65,58,76,157h229c0,0,-21,-190,-149,-302C896,81,769,-29,571,-29Z" 
id="f5_12"
transform="scale(0.001,-0.001)" />

<path d="M109,0V1097H337V685H767v412H995V0H767V497H337V0Z" 
id="f5_17"
transform="scale(0.001,-0.001)" />

<path d="M695,412L549,853h-1L403,412ZM31,0L419,1097H684L1072,0H829L756,223H339L267,0Z" 
id="f5_10"
transform="scale(0.001,-0.001)" />

<path d="M537,581c0,0,96,0,144,42c0,0,48,43,48,129c0,0,0,78,-48,117c0,0,-48,39,-144,39H345V581ZM116,0V1097H575c0,0,188,0,285,-88c0,0,98,-87,98,-255c0,0,0,-178,-98,-270c0,0,-97,-92,-285,-92c0,0,-21,0,-53,0c-47,0,-119,-1,-177,-2V0Z" 
id="f5_1f"
transform="scale(0.001,-0.001)" />

<path d="M353,0V903H22v194H913V903H582V0Z" 
id="f5_1j"
transform="scale(0.001,-0.001)" />

<path d="M116,0V1097H923V903H345V670H881V481H345V195H948V0Z" 
id="f5_14"
transform="scale(0.001,-0.001)" />

<path d="M611,618c0,0,89,0,134,36c0,0,44,36,44,110c0,0,0,72,-42,108c0,0,-42,36,-127,36H345V618ZM116,0V1097H669c0,0,157,0,253,-84c0,0,96,-84,96,-221c0,0,0,-158,-107,-231c0,0,-28,-20,-64,-33c0,0,20,-8,37,-18c0,0,94,-56,97,-188l6,-180c0,0,1,-53,11,-76c0,0,9,-22,37,-36V1H782c0,0,-9,17,-16,74c0,0,-6,56,-7,121l-1,101c0,0,-2,74,-44,106c0,0,-42,31,-140,31H345V0Z" 
id="f5_1h"
transform="scale(0.001,-0.001)" />

<path d="M391,-27c0,0,-145,0,-240,84c0,0,-94,85,-110,231H256c0,0,8,-72,48,-110c0,0,39,-37,108,-37c0,0,70,0,113,54c0,0,43,55,43,144c0,0,0,91,-44,147c0,0,-44,56,-115,56c0,0,-45,0,-84,-20c0,0,-38,-20,-59,-55L78,476l71,591H743V886H303L266,655c0,0,89,56,193,56c0,0,145,0,237,-99c0,0,92,-98,92,-253c0,0,0,-178,-107,-283C681,76,574,-27,391,-27Z" 
id="f5_o"
transform="scale(0.001,-0.001)" />

<path d="M594,164c0,0,140,0,220,101c0,0,79,100,79,279c0,0,0,183,-79,286c0,0,-80,103,-220,103c0,0,-139,0,-219,-103c0,0,-79,-103,-79,-286c0,0,0,-179,79,-279c0,0,79,-101,219,-101Zm0,-193c0,0,-242,0,-384,153C210,124,67,279,67,543c0,0,0,268,143,426c0,0,142,158,384,158c0,0,243,0,385,-158c0,0,143,-158,143,-426c0,0,0,-264,-143,-419C979,124,837,-29,594,-29Z" 
id="f5_1e"
transform="scale(0.001,-0.001)" />

<path d="M106,0V1097H346L786,327v770h214V0H772L320,790V0Z" 
id="f5_1d"
transform="scale(0.001,-0.001)" />

<path d="M98,0V1097H327V0Z" 
id="f5_18"
transform="scale(0.001,-0.001)" />

<path d="M553,-29c0,0,-226,0,-334,107c0,0,-109,109,-109,335v684H338V405c0,0,0,-118,54,-177c0,0,53,-59,161,-59c0,0,115,0,164,54c0,0,50,54,50,182v692H995V413c0,0,1,-235,-103,-339C892,74,788,-29,553,-29Z" 
id="f5_1k"
transform="scale(0.001,-0.001)" />

<path d="M406,0V413L23,1098l136,-1l136,1L524,621l214,477l129,-1l130,1L635,417V0Z" 
id="f5_1o"
transform="scale(0.001,-0.001)" />

<path d="M538,189c0,0,140,0,210,94c0,0,69,95,69,283c0,0,0,171,-64,257c0,0,-65,85,-196,85H345V189ZM116,0V1097H585c0,0,226,0,344,-133c0,0,117,-133,117,-389c0,0,0,-282,-122,-428C924,147,802,0,567,0Z" 
id="f5_13"
transform="scale(0.001,-0.001)" />

<path d="M116,0V1097H897V903H345V653H826V464H345V0Z" 
id="f5_15"
transform="scale(0.001,-0.001)" />

<path d="M435,0V856c0,0,-48,-47,-127,-93c0,0,-79,-46,-142,-69V824c0,0,113,52,197,128c0,0,85,75,120,146h86V0Z" 
id="f6_l"
transform="scale(0.001,-0.001)" />

<path d="M125,0V1051H268V115H799V0Z" 
id="f0_1c"
transform="scale(0.001,-0.001)" />

<path d="M106,0V620c0,0,0,85,-5,188H228c0,0,6,-138,6,-165h3c0,0,32,103,74,141c0,0,42,38,118,38c0,0,27,0,54,-7V692c0,0,-26,7,-71,7c0,0,-84,0,-128,-72c0,0,-44,-72,-44,-206V0Z" 
id="f0_2e"
transform="scale(0.001,-0.001)" />

<path d="M606,-14c0,0,-164,0,-284,65c0,0,-119,66,-182,189c0,0,-63,123,-63,291c0,0,0,255,137,396c0,0,137,140,386,140c0,0,174,0,283,-59c0,0,109,-59,168,-189L915,779c0,0,-44,90,-123,131c0,0,-79,41,-196,41c0,0,-182,0,-278,-110c0,0,-96,-110,-96,-310c0,0,0,-200,102,-315c0,0,102,-115,282,-115c0,0,103,0,193,31c0,0,89,31,144,85V407H629V526h445V164c0,0,-83,-85,-205,-132c0,0,-121,-46,-263,-46Z" 
id="f0_17"
transform="scale(0.001,-0.001)" />

<path d="M355,-14c0,0,-133,0,-194,65c0,0,-62,66,-62,219V808H234V296c0,0,0,-80,16,-124c0,0,16,-44,50,-64c0,0,34,-19,101,-19c0,0,97,0,153,66c0,0,55,67,55,185V808H744V172c0,0,0,-141,4,-172H621c0,0,0,4,-1,20c0,0,-1,17,-2,38c0,0,-1,21,-3,80h-2C613,138,567,55,506,20c0,0,-61,-34,-151,-34Z" 
id="f0_2h"
transform="scale(0.001,-0.001)" />

<path d="M395,89c0,0,115,0,166,79c0,0,51,79,51,246c0,0,0,160,-51,235c0,0,-51,75,-164,75c0,0,-102,0,-147,-75c0,0,-45,-75,-45,-244c0,0,0,-170,45,-243c0,0,45,-73,145,-73ZM361,-14c0,0,-153,0,-225,102c0,0,-72,103,-72,312c0,0,0,422,297,422c0,0,92,0,153,-33c0,0,61,-34,98,-107h2l-2,90v335H747V166c0,0,0,-126,4,-166H623c0,0,-2,12,-5,55c0,0,-3,44,-3,75h-3c0,0,-37,-78,-98,-111c0,0,-62,-33,-153,-33Z" 
id="f0_20"
transform="scale(0.001,-0.001)" />

<path d="M140,0V163H285V0Z" 
id="f0_i"
transform="scale(0.001,-0.001)" />


</defs>
</svg>