<?xml version="1.0" encoding="UTF-8" standalone="no"?>
<!DOCTYPE svg PUBLIC "-//W3C//DTD SVG 1.1//EN"
"http://www.w3.org/Graphics/SVG/1.1/DTD/svg11.dtd">
<svg viewBox="0 0 696 1067" version="1.1" xmlns="http://www.w3.org/2000/svg" xmlns:xlink="http://www.w3.org/1999/xlink">
<defs>
<style type="text/css"><![CDATA[
.g0_34{
fill: none;
stroke: #000000;
stroke-width: 0.7646222;
stroke-linecap: round;
stroke-linejoin: miter;
}
.g1_34{
fill: none;
stroke: #000000;
stroke-width: 0.7638889;
stroke-linecap: round;
stroke-linejoin: miter;
}
.g2_34{
fill: none;
stroke: #000000;
stroke-width: 0.77122223;
stroke-linecap: round;
stroke-linejoin: miter;
}
]]></style>
</defs>
<g fill="#D4D4D4" fill-opacity="0.56" >
<use xlink:href="#f0_1f" transform="matrix(50.9,-50.9,50.9,50.9,84.5,924.1)" />
<use xlink:href="#f0_2a" transform="matrix(50.9,-50.9,50.9,50.9,145,863.6)" />
<use xlink:href="#f0_28" transform="matrix(50.9,-50.9,50.9,50.9,188.3,820.3)" />
<use xlink:href="#f0_25" transform="matrix(50.9,-50.9,50.9,50.9,205.5,803.1)" />
<use xlink:href="#f0_2a" transform="matrix(50.9,-50.9,50.9,50.9,222.8,785.8)" />
<use xlink:href="#f0_21" transform="matrix(50.9,-50.9,50.9,50.9,266,742.5)" />
<use xlink:href="#f0_2k" transform="matrix(50.9,-50.9,50.9,50.9,309.3,699.3)" />
<use xlink:href="#f0_1x" transform="matrix(50.9,-50.9,50.9,50.9,348.2,660.4)" />
<use xlink:href="#f0_29" transform="matrix(50.9,-50.9,50.9,50.9,391.4,617.2)" />
<use xlink:href="#f0_2c" transform="matrix(50.9,-50.9,50.9,50.9,456.2,552.4)" />
<use xlink:href="#f0_2b" transform="matrix(50.9,-50.9,50.9,50.9,499.5,509.1)" />
<use xlink:href="#f0_25" transform="matrix(50.9,-50.9,50.9,50.9,542.7,465.9)" />
<use xlink:href="#f0_2a" transform="matrix(50.9,-50.9,50.9,50.9,560,448.6)" />
<use xlink:href="#f0_2g" transform="matrix(50.9,-50.9,50.9,50.9,603.2,405.4)" />
</g>
<g fill="#000000" >
<use xlink:href="#f1_r" transform="matrix(10.4,0,0,10.4,68.3,86.6)" />
<use xlink:href="#f1_n" transform="matrix(10.4,0,0,10.4,77.2,86.6)" />
<use xlink:href="#f1_h" transform="matrix(10.4,0,0,10.4,86.3,86.6)" />
<use xlink:href="#f1_1k" transform="matrix(10.4,0,0,10.4,109,86.6)" />
<use xlink:href="#f1_2e" transform="matrix(10.4,0,0,10.4,120.5,86.6)" />
<use xlink:href="#f1_24" transform="matrix(10.4,0,0,10.4,128.5,86.6)" />
<use xlink:href="#f1_29" transform="matrix(10.4,0,0,10.4,132,86.6)" />
<use xlink:href="#f1_22" transform="matrix(10.4,0,0,10.4,140.9,86.6)" />
<use xlink:href="#f1_2f" transform="matrix(10.4,0,0,10.4,157.1,86.6)" />
<use xlink:href="#f1_23" transform="matrix(10.4,0,0,10.4,161.5,86.6)" />
<use xlink:href="#f1_20" transform="matrix(10.4,0,0,10.4,170.4,86.6)" />
<use xlink:href="#f1_2b" transform="matrix(10.4,0,0,10.4,186.6,86.6)" />
<use xlink:href="#f1_2d" transform="matrix(10.4,0,0,10.4,195.5,86.6)" />
<use xlink:href="#f1_2a" transform="matrix(10.4,0,0,10.4,200.8,86.6)" />
<use xlink:href="#f1_2b" transform="matrix(10.4,0,0,10.4,209.7,86.6)" />
<use xlink:href="#f1_20" transform="matrix(10.4,0,0,10.4,218.5,86.6)" />
<use xlink:href="#f1_2d" transform="matrix(10.4,0,0,10.4,227.4,86.6)" />
<use xlink:href="#f1_2f" transform="matrix(10.4,0,0,10.4,232.7,86.6)" />
<use xlink:href="#f1_24" transform="matrix(10.4,0,0,10.4,237.2,86.6)" />
<use xlink:href="#f1_20" transform="matrix(10.4,0,0,10.4,240.7,86.6)" />
<use xlink:href="#f1_2e" transform="matrix(10.4,0,0,10.4,249.6,86.6)" />
<use xlink:href="#f1_2a" transform="matrix(10.4,0,0,10.4,264.9,86.6)" />
<use xlink:href="#f1_21" transform="matrix(10.4,0,0,10.4,273.7,86.6)" />
<use xlink:href="#f1_1z" transform="matrix(10.4,0,0,10.4,285.7,86.6)" />
<use xlink:href="#f1_20" transform="matrix(10.4,0,0,10.4,294.6,86.6)" />
<use xlink:href="#f1_2f" transform="matrix(10.4,0,0,10.4,303.4,86.6)" />
<use xlink:href="#f1_20" transform="matrix(10.4,0,0,10.4,307.9,86.6)" />
<use xlink:href="#f1_2d" transform="matrix(10.4,0,0,10.4,316.7,86.6)" />
<use xlink:href="#f1_28" transform="matrix(10.4,0,0,10.4,322,86.6)" />
<use xlink:href="#f1_24" transform="matrix(10.4,0,0,10.4,335.3,86.6)" />
<use xlink:href="#f1_29" transform="matrix(10.4,0,0,10.4,338.9,86.6)" />
<use xlink:href="#f1_1w" transform="matrix(10.4,0,0,10.4,347.7,86.6)" />
<use xlink:href="#f1_29" transform="matrix(10.4,0,0,10.4,356.6,86.6)" />
<use xlink:href="#f1_2f" transform="matrix(10.4,0,0,10.4,365.5,86.6)" />
<use xlink:href="#f1_2e" transform="matrix(10.4,0,0,10.4,369.9,86.6)" />
<use xlink:href="#f1_f" transform="matrix(10.4,0,0,10.4,377.9,86.6)" />
<use xlink:href="#f1_2e" transform="matrix(10.4,0,0,10.4,389.7,86.6)" />
<use xlink:href="#f1_23" transform="matrix(10.4,0,0,10.4,397.6,86.6)" />
<use xlink:href="#f1_2a" transform="matrix(10.4,0,0,10.4,406.5,86.6)" />
<use xlink:href="#f1_2i" transform="matrix(10.4,0,0,10.4,415.4,86.6)" />
<use xlink:href="#f1_2f" transform="matrix(10.4,0,0,10.4,434.2,86.6)" />
<use xlink:href="#f1_23" transform="matrix(10.4,0,0,10.4,438.6,86.6)" />
<use xlink:href="#f1_1w" transform="matrix(10.4,0,0,10.4,447.5,86.6)" />
<use xlink:href="#f1_2f" transform="matrix(10.4,0,0,10.4,456.4,86.6)" />
<use xlink:href="#f1_t" transform="matrix(10.4,0,0,10.4,468.2,86.6)" />
</g>
<path d="M167.5,103.5V170M296,103.5V170m77,-33h10.2m16.6,0h11m16.5,0h10.3" class="g0_34" />
<g fill="#000000" >
<use xlink:href="#f1_k" transform="matrix(10.5,0,0,10.5,171.2,117.2)" />
<use xlink:href="#f1_k" transform="matrix(10.5,0,0,10.5,215.8,117.2)" />
<use xlink:href="#f1_k" transform="matrix(10.5,0,0,10.5,261.2,117.2)" />
<use xlink:href="#f1_k" transform="matrix(10.5,0,0,10.5,374.6,130.9)" />
<use xlink:href="#f1_k" transform="matrix(10.5,0,0,10.5,401.8,130.9)" />
<use xlink:href="#f1_k" transform="matrix(10.5,0,0,10.5,429,130.9)" />
<use xlink:href="#f1_k" transform="matrix(10.5,0,0,10.5,171.2,141.3)" />
<use xlink:href="#f1_k" transform="matrix(10.5,0,0,10.5,215.8,141.3)" />
<use xlink:href="#f1_k" transform="matrix(10.5,0,0,10.5,261.2,141.3)" />
<use xlink:href="#f1_k" transform="matrix(10.5,0,0,10.5,350.8,141.3)" />
<use xlink:href="#f1_k" transform="matrix(10.5,0,0,10.5,171.2,165.3)" />
<use xlink:href="#f1_k" transform="matrix(10.5,0,0,10.5,215.8,165.3)" />
<use xlink:href="#f1_k" transform="matrix(10.5,0,0,10.5,261.2,165.3)" />
<use xlink:href="#f2_f" transform="matrix(10.5,0,0,10.5,180.7,117.2)" />
<use xlink:href="#f2_4o" transform="matrix(10.5,0,0,10.5,343.7,131.9)" />
<use xlink:href="#f2_54" transform="matrix(10.5,0,0,10.5,438.3,131.9)" />
<use xlink:href="#f2_f" transform="matrix(10.5,0,0,10.5,225.3,141.3)" />
<use xlink:href="#f2_x" transform="matrix(10.5,0,0,10.5,301.8,141.3)" />
<use xlink:href="#f2_f" transform="matrix(10.5,0,0,10.5,360.4,141.3)" />
<use xlink:href="#f2_f" transform="matrix(10.5,0,0,10.5,387.1,141.3)" />
<use xlink:href="#f2_f" transform="matrix(10.5,0,0,10.5,414.7,141.3)" />
<use xlink:href="#f2_x" transform="matrix(10.5,0,0,10.5,450.5,141.3)" />
<use xlink:href="#f2_f" transform="matrix(10.5,0,0,10.5,494.1,141.3)" />
<use xlink:href="#f2_f" transform="matrix(10.5,0,0,10.5,527.7,141.3)" />
<use xlink:href="#f2_f" transform="matrix(10.5,0,0,10.5,559.8,141.3)" />
<use xlink:href="#f2_4p" transform="matrix(10.5,0,0,10.5,343.7,143.8)" />
<use xlink:href="#f2_55" transform="matrix(10.5,0,0,10.5,438.3,143.8)" />
<use xlink:href="#f2_4q" transform="matrix(10.5,0,0,10.5,343.7,150.4)" />
<use xlink:href="#f2_56" transform="matrix(10.5,0,0,10.5,438.3,150.4)" />
<use xlink:href="#f2_f" transform="matrix(10.5,0,0,10.5,270.7,165.3)" />
<use xlink:href="#f3_1w" transform="matrix(10.5,0,0,10.5,192.5,117.2)" />
<use xlink:href="#f3_1x" transform="matrix(10.5,0,0,10.5,237.1,141.3)" />
<use xlink:href="#f3_1w" transform="matrix(10.5,0,0,10.5,314.4,141.3)" />
<use xlink:href="#f3_1x" transform="matrix(10.5,0,0,10.5,323.4,141.3)" />
<use xlink:href="#f3_1y" transform="matrix(10.5,0,0,10.5,332.3,141.3)" />
<use xlink:href="#f3_1w" transform="matrix(10.5,0,0,10.5,462.9,141.3)" />
<use xlink:href="#f3_1x" transform="matrix(10.5,0,0,10.5,471.9,141.3)" />
<use xlink:href="#f3_1y" transform="matrix(10.5,0,0,10.5,480.8,141.3)" />
<use xlink:href="#f3_1x" transform="matrix(10.5,0,0,10.5,505.4,141.3)" />
<use xlink:href="#f3_1y" transform="matrix(10.5,0,0,10.5,514.3,141.3)" />
<use xlink:href="#f3_1y" transform="matrix(10.5,0,0,10.5,538.7,141.3)" />
<use xlink:href="#f3_1w" transform="matrix(10.5,0,0,10.5,546.7,141.3)" />
<use xlink:href="#f3_1w" transform="matrix(10.5,0,0,10.5,571,141.3)" />
<use xlink:href="#f3_1x" transform="matrix(10.5,0,0,10.5,579.9,141.3)" />
<use xlink:href="#f3_1w" transform="matrix(10.5,0,0,10.5,373.4,153.7)" />
<use xlink:href="#f3_1x" transform="matrix(10.5,0,0,10.5,400.1,153.7)" />
<use xlink:href="#f3_1y" transform="matrix(10.5,0,0,10.5,427.4,153.7)" />
<use xlink:href="#f3_1y" transform="matrix(10.5,0,0,10.5,282.2,165.3)" />
<use xlink:href="#f1_r" transform="matrix(10.4,0,0,10.4,68.3,193.9)" />
<use xlink:href="#f1_o" transform="matrix(10.4,0,0,10.4,77.2,193.9)" />
<use xlink:href="#f1_h" transform="matrix(10.4,0,0,10.4,86.3,193.9)" />
<use xlink:href="#f1_1k" transform="matrix(10.4,0,0,10.4,109,193.9)" />
<use xlink:href="#f1_2e" transform="matrix(10.4,0,0,10.4,120.5,193.9)" />
<use xlink:href="#f1_24" transform="matrix(10.4,0,0,10.4,128.5,193.9)" />
<use xlink:href="#f1_29" transform="matrix(10.4,0,0,10.4,132,193.9)" />
<use xlink:href="#f1_22" transform="matrix(10.4,0,0,10.4,140.9,193.9)" />
<use xlink:href="#f1_2b" transform="matrix(10.4,0,0,10.4,157.3,193.9)" />
<use xlink:href="#f1_2d" transform="matrix(10.4,0,0,10.4,166.2,193.9)" />
<use xlink:href="#f1_2a" transform="matrix(10.4,0,0,10.4,171.5,193.9)" />
<use xlink:href="#f1_2b" transform="matrix(10.4,0,0,10.4,180.3,193.9)" />
<use xlink:href="#f1_20" transform="matrix(10.4,0,0,10.4,189.2,193.9)" />
<use xlink:href="#f1_2d" transform="matrix(10.4,0,0,10.4,198.1,193.9)" />
<use xlink:href="#f1_2f" transform="matrix(10.4,0,0,10.4,203.4,193.9)" />
<use xlink:href="#f1_24" transform="matrix(10.4,0,0,10.4,207.8,193.9)" />
<use xlink:href="#f1_20" transform="matrix(10.4,0,0,10.4,211.4,193.9)" />
<use xlink:href="#f1_2e" transform="matrix(10.4,0,0,10.4,220.2,193.9)" />
<use xlink:href="#f1_2a" transform="matrix(10.4,0,0,10.4,235.9,193.9)" />
<use xlink:href="#f1_21" transform="matrix(10.4,0,0,10.4,244.8,193.9)" />
<use xlink:href="#f1_1z" transform="matrix(10.4,0,0,10.4,256.7,193.9)" />
<use xlink:href="#f1_20" transform="matrix(10.4,0,0,10.4,265.6,193.9)" />
<use xlink:href="#f1_2f" transform="matrix(10.4,0,0,10.4,274.5,193.9)" />
<use xlink:href="#f1_20" transform="matrix(10.4,0,0,10.4,278.9,193.9)" />
<use xlink:href="#f1_2d" transform="matrix(10.4,0,0,10.4,287.8,193.9)" />
<use xlink:href="#f1_28" transform="matrix(10.4,0,0,10.4,293.1,193.9)" />
<use xlink:href="#f1_24" transform="matrix(10.4,0,0,10.4,306.4,193.9)" />
<use xlink:href="#f1_29" transform="matrix(10.4,0,0,10.4,309.9,193.9)" />
<use xlink:href="#f1_1w" transform="matrix(10.4,0,0,10.4,318.8,193.9)" />
<use xlink:href="#f1_29" transform="matrix(10.4,0,0,10.4,327.6,193.9)" />
<use xlink:href="#f1_2f" transform="matrix(10.4,0,0,10.4,336.5,193.9)" />
<use xlink:href="#f1_2e" transform="matrix(10.4,0,0,10.4,340.9,193.9)" />
<use xlink:href="#f1_2b" transform="matrix(10.4,0,0,10.4,356.6,193.9)" />
<use xlink:href="#f1_2d" transform="matrix(10.4,0,0,10.4,365.5,193.9)" />
<use xlink:href="#f1_2a" transform="matrix(10.4,0,0,10.4,370.8,193.9)" />
<use xlink:href="#f1_2h" transform="matrix(10.4,0,0,10.4,379.7,193.9)" />
<use xlink:href="#f1_20" transform="matrix(10.4,0,0,10.4,387.6,193.9)" />
<use xlink:href="#f1_2f" transform="matrix(10.4,0,0,10.4,404,193.9)" />
<use xlink:href="#f1_23" transform="matrix(10.4,0,0,10.4,408.5,193.9)" />
<use xlink:href="#f1_1w" transform="matrix(10.4,0,0,10.4,417.3,193.9)" />
<use xlink:href="#f1_2f" transform="matrix(10.4,0,0,10.4,426.2,193.9)" />
</g>
<path d="M167.4,218.5v75.6M352.1,218.5v75.6" class="g1_34" />
<g fill="#000000" >
<use xlink:href="#f2_c" transform="matrix(10.4,0,0,11.6,371,260.4)" />
<use xlink:href="#f2_d" transform="matrix(10.4,0,0,11.6,460.9,260.3)" />
<use xlink:href="#f1_l" transform="matrix(7,0,0,7,244.3,228)" />
<use xlink:href="#f1_l" transform="matrix(7,0,0,7,309.7,228)" />
<use xlink:href="#f1_m" transform="matrix(7,0,0,7,466.1,252.8)" />
<use xlink:href="#f1_l" transform="matrix(7,0,0,7,178.1,255.1)" />
<use xlink:href="#f1_l" transform="matrix(7,0,0,7,309.7,255.1)" />
<use xlink:href="#f1_l" transform="matrix(7,0,0,7,178.1,282.1)" />
<use xlink:href="#f1_l" transform="matrix(7,0,0,7,244.3,282.1)" />
<use xlink:href="#f3_1x" transform="matrix(10.5,0,0,10.5,178.2,235.2)" />
<use xlink:href="#f3_1y" transform="matrix(10.5,0,0,10.5,187.2,235.2)" />
<use xlink:href="#f3_1x" transform="matrix(10.5,0,0,10.5,234,235.2)" />
<use xlink:href="#f3_1x" transform="matrix(10.5,0,0,10.5,266.8,235.2)" />
<use xlink:href="#f3_1y" transform="matrix(10.5,0,0,10.5,275.8,235.2)" />
<use xlink:href="#f3_1y" transform="matrix(10.5,0,0,10.5,299.9,235.2)" />
<use xlink:href="#f3_1x" transform="matrix(10.5,0,0,10.5,332.1,235.2)" />
<use xlink:href="#f3_1y" transform="matrix(10.5,0,0,10.5,341.1,235.2)" />
<use xlink:href="#f3_1w" transform="matrix(10.5,0,0,10.5,168.5,262.3)" />
<use xlink:href="#f3_1w" transform="matrix(10.5,0,0,10.5,200.7,262.3)" />
<use xlink:href="#f3_1y" transform="matrix(10.5,0,0,10.5,209.7,262.3)" />
<use xlink:href="#f3_1w" transform="matrix(10.5,0,0,10.5,243.8,262.3)" />
<use xlink:href="#f3_1y" transform="matrix(10.5,0,0,10.5,252.7,262.3)" />
<use xlink:href="#f3_1y" transform="matrix(10.5,0,0,10.5,299.9,262.3)" />
<use xlink:href="#f3_1w" transform="matrix(10.5,0,0,10.5,332.1,262.3)" />
<use xlink:href="#f3_1y" transform="matrix(10.5,0,0,10.5,341.1,262.3)" />
<use xlink:href="#f3_1w" transform="matrix(10.5,0,0,10.5,375.8,262.3)" />
<use xlink:href="#f3_1x" transform="matrix(10.5,0,0,10.5,384.7,262.3)" />
<use xlink:href="#f3_1x" transform="matrix(10.5,0,0,10.5,409.6,262.3)" />
<use xlink:href="#f3_1y" transform="matrix(10.5,0,0,10.5,418.5,262.3)" />
<use xlink:href="#f3_1y" transform="matrix(10.5,0,0,10.5,442.5,262.3)" />
<use xlink:href="#f3_1w" transform="matrix(10.5,0,0,10.5,450.6,262.3)" />
<use xlink:href="#f3_1w" transform="matrix(10.5,0,0,10.5,168.5,289.4)" />
<use xlink:href="#f3_1w" transform="matrix(10.5,0,0,10.5,200.7,289.4)" />
<use xlink:href="#f3_1x" transform="matrix(10.5,0,0,10.5,209.7,289.4)" />
<use xlink:href="#f3_1x" transform="matrix(10.5,0,0,10.5,234,289.4)" />
<use xlink:href="#f3_1w" transform="matrix(10.5,0,0,10.5,266.8,289.4)" />
<use xlink:href="#f3_1x" transform="matrix(10.5,0,0,10.5,275.8,289.4)" />
<use xlink:href="#f3_1w" transform="matrix(10.5,0,0,10.5,309.9,289.4)" />
<use xlink:href="#f3_1x" transform="matrix(10.5,0,0,10.5,318.8,289.4)" />
<use xlink:href="#f2_h" transform="matrix(10.5,0,0,10.5,169.5,235.2)" />
<use xlink:href="#f2_f" transform="matrix(10.5,0,0,10.5,255.2,235.2)" />
<use xlink:href="#f2_f" transform="matrix(10.5,0,0,10.5,320.6,235.2)" />
<use xlink:href="#f2_f" transform="matrix(10.5,0,0,10.5,189,262.3)" />
<use xlink:href="#f2_h" transform="matrix(10.5,0,0,10.5,235.1,262.3)" />
<use xlink:href="#f2_f" transform="matrix(10.5,0,0,10.5,320.6,262.3)" />
<use xlink:href="#f2_x" transform="matrix(10.5,0,0,10.5,357.8,262.3)" />
<use xlink:href="#f2_f" transform="matrix(10.5,0,0,10.5,398.2,262.3)" />
<use xlink:href="#f2_f" transform="matrix(10.5,0,0,10.5,431.5,262.3)" />
<use xlink:href="#f2_f" transform="matrix(10.5,0,0,10.5,189,289.4)" />
<use xlink:href="#f2_f" transform="matrix(10.5,0,0,10.5,255.2,289.4)" />
<use xlink:href="#f2_h" transform="matrix(10.5,0,0,10.5,301.3,289.4)" />
<use xlink:href="#f1_r" transform="matrix(10.4,0,0,10.4,68.3,350.8)" />
<use xlink:href="#f1_p" transform="matrix(10.4,0,0,10.4,77.2,350.8)" />
<use xlink:href="#f1_h" transform="matrix(10.4,0,0,10.4,86.3,350.8)" />
<use xlink:href="#f4_19" transform="matrix(8.4,0,0,8.4,109,350.8)" />
<use xlink:href="#f4_22" transform="matrix(8.4,0,0,8.4,113.4,350.8)" />
<use xlink:href="#f1_m" transform="matrix(10.6,0,0,10.5,163.6,326.6)" />
<use xlink:href="#f1_l" transform="matrix(10.6,0,0,10.5,195.6,326.6)" />
<use xlink:href="#f1_k" transform="matrix(10.6,0,0,10.5,224.3,326.6)" />
<use xlink:href="#f1_n" transform="matrix(10.6,0,0,10.5,163.6,350.6)" />
<use xlink:href="#f1_k" transform="matrix(10.6,0,0,10.5,196.5,350.6)" />
<use xlink:href="#f1_l" transform="matrix(10.6,0,0,10.5,225.3,350.6)" />
<use xlink:href="#f1_f" transform="matrix(10.6,0,0,10.5,245.3,350.6)" />
<use xlink:href="#f1_q" transform="matrix(10.6,0,0,10.5,163.6,374.7)" />
<use xlink:href="#f1_m" transform="matrix(10.6,0,0,10.5,193.3,374.7)" />
<use xlink:href="#f1_m" transform="matrix(10.6,0,0,10.5,228.5,374.7)" />
<use xlink:href="#f2_4r" transform="matrix(10.6,0,0,10.5,157,327.6)" />
<use xlink:href="#f2_57" transform="matrix(10.6,0,0,10.5,238.2,327.6)" />
<use xlink:href="#f2_4s" transform="matrix(10.6,0,0,10.5,157,343.1)" />
<use xlink:href="#f2_58" transform="matrix(10.6,0,0,10.5,238.2,343.1)" />
<use xlink:href="#f2_x" transform="matrix(10.6,0,0,10.5,143.2,350.6)" />
<use xlink:href="#f2_h" transform="matrix(10.6,0,0,10.5,187.8,350.6)" />
<use xlink:href="#f2_4s" transform="matrix(10.6,0,0,10.5,157,358.3)" />
<use xlink:href="#f2_58" transform="matrix(10.6,0,0,10.5,238.2,358.3)" />
<use xlink:href="#f2_4s" transform="matrix(10.6,0,0,10.5,157,373.6)" />
<use xlink:href="#f2_58" transform="matrix(10.6,0,0,10.5,238.2,373.6)" />
<use xlink:href="#f2_h" transform="matrix(10.6,0,0,10.5,219.7,374.7)" />
<use xlink:href="#f2_4t" transform="matrix(10.6,0,0,10.5,157,378.2)" />
<use xlink:href="#f2_59" transform="matrix(10.6,0,0,10.5,238.2,378.2)" />
<use xlink:href="#f3_10" transform="matrix(10.6,0,0,10.5,127.7,350.6)" />
<use xlink:href="#f1_21" transform="matrix(10.4,0,0,10.4,259.3,350.8)" />
<use xlink:href="#f1_24" transform="matrix(10.4,0,0,10.4,263.8,350.8)" />
<use xlink:href="#f1_29" transform="matrix(10.4,0,0,10.4,267.3,350.8)" />
<use xlink:href="#f1_1z" transform="matrix(10.4,0,0,10.4,276.2,350.8)" />
<use xlink:href="#f3_10" transform="matrix(10.4,0,0,10.4,292,350.8)" />
<use xlink:href="#f1_99" transform="matrix(7.4,0,0,7.4,302.6,345.5)" />
<use xlink:href="#f1_k" transform="matrix(7.4,0,0,7.4,308.9,345.5)" />
<use xlink:href="#f1_1w" transform="matrix(10.4,0,0,10.4,322.2,350.8)" />
<use xlink:href="#f1_29" transform="matrix(10.4,0,0,10.4,331.1,350.8)" />
<use xlink:href="#f1_1z" transform="matrix(10.4,0,0,10.4,340,350.8)" />
<use xlink:href="#f1_23" transform="matrix(10.4,0,0,10.4,356,350.8)" />
<use xlink:href="#f1_20" transform="matrix(10.4,0,0,10.4,364.8,350.8)" />
<use xlink:href="#f1_29" transform="matrix(10.4,0,0,10.4,373.7,350.8)" />
<use xlink:href="#f1_1y" transform="matrix(10.4,0,0,10.4,382.6,350.8)" />
<use xlink:href="#f1_20" transform="matrix(10.4,0,0,10.4,390.6,350.8)" />
<use xlink:href="#f1_2e" transform="matrix(10.4,0,0,10.4,406.6,350.8)" />
<use xlink:href="#f1_2a" transform="matrix(10.4,0,0,10.4,414.5,350.8)" />
<use xlink:href="#f1_27" transform="matrix(10.4,0,0,10.4,423.4,350.8)" />
<use xlink:href="#f1_2h" transform="matrix(10.4,0,0,10.4,426.9,350.8)" />
<use xlink:href="#f1_20" transform="matrix(10.4,0,0,10.4,434.9,350.8)" />
<use xlink:href="#f1_2f" transform="matrix(10.4,0,0,10.4,451.1,350.8)" />
<use xlink:href="#f1_23" transform="matrix(10.4,0,0,10.4,455.6,350.8)" />
<use xlink:href="#f1_20" transform="matrix(10.4,0,0,10.4,464.4,350.8)" />
<use xlink:href="#f1_2e" transform="matrix(10.4,0,0,10.4,480.4,350.8)" />
<use xlink:href="#f1_2k" transform="matrix(10.4,0,0,10.4,488.4,350.8)" />
<use xlink:href="#f1_2e" transform="matrix(10.4,0,0,10.4,496.4,350.8)" />
<use xlink:href="#f1_2f" transform="matrix(10.4,0,0,10.4,504.4,350.8)" />
<use xlink:href="#f1_20" transform="matrix(10.4,0,0,10.4,508.8,350.8)" />
<use xlink:href="#f1_28" transform="matrix(10.4,0,0,10.4,517.7,350.8)" />
<use xlink:href="#f1_2a" transform="matrix(10.4,0,0,10.4,538.1,350.8)" />
<use xlink:href="#f1_21" transform="matrix(10.4,0,0,10.4,547,350.8)" />
<use xlink:href="#f1_20" transform="matrix(10.4,0,0,10.4,558.6,350.8)" />
<use xlink:href="#f1_2c" transform="matrix(10.4,0,0,10.4,567.4,350.8)" />
<use xlink:href="#f1_2g" transform="matrix(10.4,0,0,10.4,576.3,350.8)" />
<use xlink:href="#f1_1w" transform="matrix(10.4,0,0,10.4,585.2,350.8)" />
<use xlink:href="#f1_2f" transform="matrix(10.4,0,0,10.4,594,350.8)" />
<use xlink:href="#f1_24" transform="matrix(10.4,0,0,10.4,598.5,350.8)" />
<use xlink:href="#f1_2a" transform="matrix(10.4,0,0,10.4,602,350.8)" />
<use xlink:href="#f1_29" transform="matrix(10.4,0,0,10.4,610.9,350.8)" />
<use xlink:href="#f1_2e" transform="matrix(10.4,0,0,10.4,619.7,350.8)" />
<use xlink:href="#f1_m" transform="matrix(10.4,0,0,10.4,109,401.9)" />
<use xlink:href="#f3_2j" transform="matrix(10.4,0,0,10.4,117.8,401.9)" />
<use xlink:href="#f1_e" transform="matrix(10.4,0,0,10.4,132.7,401.9)" />
<use xlink:href="#f1_n" transform="matrix(10.4,0,0,10.4,148.7,401.9)" />
<use xlink:href="#f3_2k" transform="matrix(10.4,0,0,10.4,157.6,401.9)" />
<use xlink:href="#f1_e" transform="matrix(10.4,0,0,10.4,172.4,401.9)" />
<use xlink:href="#f1_q" transform="matrix(10.4,0,0,10.4,188.5,401.9)" />
<use xlink:href="#f3_2l" transform="matrix(10.4,0,0,10.4,197.4,401.9)" />
<use xlink:href="#f1_w" transform="matrix(10.4,0,0,10.4,212.2,401.9)" />
<use xlink:href="#f1_k" transform="matrix(10.4,0,0,10.4,228.3,401.9)" />
<use xlink:href="#f1_n" transform="matrix(10.4,0,0,10.4,237.2,401.9)" />
<use xlink:href="#f1_f" transform="matrix(10.4,0,0,10.4,246.1,401.9)" />
<use xlink:href="#f1_l" transform="matrix(10.4,0,0,10.4,257.3,401.9)" />
<use xlink:href="#f3_2j" transform="matrix(10.4,0,0,10.4,265.9,401.9)" />
<use xlink:href="#f1_99" transform="matrix(10.4,0,0,10.4,280.8,401.9)" />
<use xlink:href="#f3_2k" transform="matrix(10.4,0,0,10.4,296.4,401.9)" />
<use xlink:href="#f1_e" transform="matrix(10.4,0,0,10.4,311.2,401.9)" />
<use xlink:href="#f1_m" transform="matrix(10.4,0,0,10.4,327.3,401.9)" />
<use xlink:href="#f3_2l" transform="matrix(10.4,0,0,10.4,336.2,401.9)" />
<use xlink:href="#f1_w" transform="matrix(10.4,0,0,10.4,351,401.9)" />
<use xlink:href="#f1_n" transform="matrix(10.4,0,0,10.4,367.1,401.9)" />
<use xlink:href="#f1_f" transform="matrix(10.4,0,0,10.4,376,401.9)" />
<use xlink:href="#f3_2j" transform="matrix(10.4,0,0,10.4,387.1,401.9)" />
<use xlink:href="#f1_e" transform="matrix(10.4,0,0,10.4,402,401.9)" />
<use xlink:href="#f1_l" transform="matrix(10.4,0,0,10.4,418.1,401.9)" />
<use xlink:href="#f3_2k" transform="matrix(10.4,0,0,10.4,426.9,401.9)" />
<use xlink:href="#f1_99" transform="matrix(10.4,0,0,10.4,441.8,401.9)" />
<use xlink:href="#f1_m" transform="matrix(10.4,0,0,10.4,457.4,401.9)" />
<use xlink:href="#f3_2l" transform="matrix(10.4,0,0,10.4,466.1,401.9)" />
<use xlink:href="#f1_w" transform="matrix(10.4,0,0,10.4,481,401.9)" />
<use xlink:href="#f1_j" transform="matrix(10.4,0,0,10.4,497.3,401.9)" />
<use xlink:href="#f1_h" transform="matrix(10.4,0,0,10.4,506.1,401.9)" />
<use xlink:href="#f5_10" transform="matrix(14,0,0,14,290.3,454)" />
<use xlink:href="#f5_1d" transform="matrix(14,0,0,14,306.9,454)" />
<use xlink:href="#f5_1i" transform="matrix(14,0,0,14,325.1,454)" />
<use xlink:href="#f5_1m" transform="matrix(14,0,0,14,336.6,454)" />
<use xlink:href="#f5_14" transform="matrix(14,0,0,14,357.6,454)" />
<use xlink:href="#f5_1h" transform="matrix(14,0,0,14,370.6,454)" />
<use xlink:href="#f5_1i" transform="matrix(14,0,0,14,385.6,454)" />
<use xlink:href="#f1_k" transform="matrix(10.4,0,0,10.4,77.3,521.7)" />
<use xlink:href="#f1_h" transform="matrix(10.4,0,0,10.4,86.2,521.7)" />
<use xlink:href="#f3_2j" transform="matrix(10.4,0,0,10.4,109,521.7)" />
<use xlink:href="#f1_w" transform="matrix(10.4,0,0,10.4,123.9,521.7)" />
<use xlink:href="#f1_l" transform="matrix(10.4,0,0,10.4,139.8,521.7)" />
<use xlink:href="#f1_f" transform="matrix(10.4,0,0,10.4,148.6,521.7)" />
<use xlink:href="#f3_2k" transform="matrix(10.4,0,0,10.4,159.8,521.7)" />
<use xlink:href="#f1_w" transform="matrix(10.4,0,0,10.4,174.6,521.7)" />
<use xlink:href="#f1_q" transform="matrix(10.4,0,0,10.4,190.7,521.7)" />
<use xlink:href="#f1_l" transform="matrix(10.4,0,0,10.4,352.3,521.7)" />
<use xlink:href="#f1_h" transform="matrix(10.4,0,0,10.4,361.2,521.7)" />
<use xlink:href="#f1_j" transform="matrix(10.5,0,0,10.5,402.8,505.4)" />
<use xlink:href="#f1_k" transform="matrix(10.5,0,0,10.5,435.9,505.4)" />
<use xlink:href="#f1_k" transform="matrix(10.5,0,0,10.5,403.4,529.4)" />
<use xlink:href="#f1_j" transform="matrix(10.5,0,0,10.5,430,529.4)" />
<use xlink:href="#f2_h" transform="matrix(10.5,0,0,10.5,427.2,505.4)" />
<use xlink:href="#f2_4r" transform="matrix(10.5,0,0,10.5,396.2,506.4)" />
<use xlink:href="#f2_57" transform="matrix(10.5,0,0,10.5,442.8,506.4)" />
<use xlink:href="#f2_4s" transform="matrix(10.5,0,0,10.5,396.2,521.9)" />
<use xlink:href="#f2_58" transform="matrix(10.5,0,0,10.5,442.8,521.9)" />
<use xlink:href="#f2_4t" transform="matrix(10.5,0,0,10.5,396.2,532.9)" />
<use xlink:href="#f2_59" transform="matrix(10.5,0,0,10.5,442.8,532.9)" />
<use xlink:href="#f1_m" transform="matrix(10.4,0,0,10.4,77.3,572.1)" />
<use xlink:href="#f1_h" transform="matrix(10.4,0,0,10.4,86.2,572.1)" />
<use xlink:href="#f1_k" transform="matrix(10.4,0,0,10.4,109,572.1)" />
<use xlink:href="#f1_k" transform="matrix(10.4,0,0,10.4,117.9,572.1)" />
<use xlink:href="#f1_h" transform="matrix(10.4,0,0,10.4,127,572.1)" />
<use xlink:href="#f1_n" transform="matrix(10.4,0,0,10.4,352.3,572.1)" />
<use xlink:href="#f1_h" transform="matrix(10.4,0,0,10.4,361.2,572.1)" />
<use xlink:href="#f1_n" transform="matrix(10.4,0,0,10.4,393.2,572.1)" />
<use xlink:href="#f1_o" transform="matrix(10.4,0,0,10.4,77.3,631.1)" />
<use xlink:href="#f1_h" transform="matrix(10.4,0,0,10.4,86.2,631.1)" />
<use xlink:href="#f1_s" transform="matrix(10.4,0,0,10.5,118.4,616.5)" />
<use xlink:href="#f1_p" transform="matrix(10.4,0,0,10.5,151.4,616.5)" />
<use xlink:href="#f1_j" transform="matrix(10.4,0,0,10.5,118.6,640.5)" />
<use xlink:href="#f1_l" transform="matrix(10.4,0,0,10.5,142.3,640.5)" />
<use xlink:href="#f1_s" transform="matrix(10.4,0,0,10.5,151.2,640.5)" />
<use xlink:href="#f2_h" transform="matrix(10.5,0,0,10.5,142.6,616.5)" />
<use xlink:href="#f2_4r" transform="matrix(10.5,0,0,10.5,112,617.5)" />
<use xlink:href="#f2_57" transform="matrix(10.5,0,0,10.5,160.6,617.5)" />
<use xlink:href="#f2_4s" transform="matrix(10.5,0,0,10.5,112,633)" />
<use xlink:href="#f2_58" transform="matrix(10.5,0,0,10.5,160.6,633)" />
<use xlink:href="#f2_4t" transform="matrix(10.5,0,0,10.5,112,644)" />
<use xlink:href="#f2_59" transform="matrix(10.5,0,0,10.5,160.6,644)" />
<use xlink:href="#f1_h" transform="matrix(10.4,0,0,10.4,169.7,631.1)" />
<use xlink:href="#f1_p" transform="matrix(10.4,0,0,10.4,352.3,631.1)" />
<use xlink:href="#f1_h" transform="matrix(10.4,0,0,10.4,361.2,631.1)" />
<use xlink:href="#f1_m" transform="matrix(10.6,0,0,10.5,407.5,617)" />
<use xlink:href="#f1_o" transform="matrix(10.6,0,0,10.5,445.3,617)" />
<use xlink:href="#f1_m" transform="matrix(10.6,0,0,10.5,412.1,641.1)" />
<use xlink:href="#f1_k" transform="matrix(10.6,0,0,10.5,446.6,641.1)" />
<use xlink:href="#f2_h" transform="matrix(10.5,0,0,10.5,436.5,617)" />
<use xlink:href="#f2_4r" transform="matrix(10.5,0,0,10.5,396.2,618)" />
<use xlink:href="#f2_57" transform="matrix(10.5,0,0,10.5,454.7,618)" />
<use xlink:href="#f2_4s" transform="matrix(10.5,0,0,10.5,396.2,633.5)" />
<use xlink:href="#f2_58" transform="matrix(10.5,0,0,10.5,454.7,633.5)" />
<use xlink:href="#f2_h" transform="matrix(10.5,0,0,10.5,403.3,641.1)" />
<use xlink:href="#f2_h" transform="matrix(10.5,0,0,10.5,437.8,641.1)" />
<use xlink:href="#f2_4t" transform="matrix(10.5,0,0,10.5,396.2,644.6)" />
<use xlink:href="#f2_59" transform="matrix(10.5,0,0,10.5,454.7,644.6)" />
<use xlink:href="#f1_h" transform="matrix(10.4,0,0,10.4,465.4,631.1)" />
<use xlink:href="#f1_q" transform="matrix(10.4,0,0,10.4,77.3,683.4)" />
<use xlink:href="#f1_h" transform="matrix(10.4,0,0,10.4,86.2,683.4)" />
<use xlink:href="#f3_10" transform="matrix(10.4,0,0,10.4,109,683.4)" />
<use xlink:href="#f3_11" transform="matrix(10.4,0,0,10.4,119.6,683.4)" />
<use xlink:href="#f3_w" transform="matrix(10.4,0,0,10.4,137.1,683.4)" />
<use xlink:href="#f1_1q" transform="matrix(10.4,0,0,10.4,153.4,683.4)" />
<use xlink:href="#f1_l" transform="matrix(10.4,0,0,10.4,157.8,683.4)" />
<use xlink:href="#f1_p" transform="matrix(10.4,0,0,10.4,166.7,683.4)" />
<use xlink:href="#f1_1s" transform="matrix(10.4,0,0,10.4,175.5,683.4)" />
<use xlink:href="#f1_h" transform="matrix(10.4,0,0,10.4,180,683.4)" />
<use xlink:href="#f1_r" transform="matrix(10.4,0,0,10.4,352.3,683.4)" />
<use xlink:href="#f1_h" transform="matrix(10.4,0,0,10.4,361.2,683.4)" />
<use xlink:href="#f3_2j" transform="matrix(10.4,0,0,10.4,393.2,683.4)" />
<use xlink:href="#f1_w" transform="matrix(10.4,0,0,10.4,408,683.4)" />
<use xlink:href="#f1_o" transform="matrix(10.4,0,0,10.4,424.1,683.4)" />
<use xlink:href="#f1_s" transform="matrix(10.4,0,0,10.4,77.3,739.5)" />
<use xlink:href="#f1_h" transform="matrix(10.4,0,0,10.4,86.2,739.5)" />
<use xlink:href="#f3_2j" transform="matrix(10.4,0,0,10.4,109,739.5)" />
<use xlink:href="#f1_w" transform="matrix(10.4,0,0,10.4,123.9,739.5)" />
<use xlink:href="#f1_99" transform="matrix(10.4,0,0,10.4,139.9,739.5)" />
<use xlink:href="#f1_o" transform="matrix(10.4,0,0,10.4,155.6,739.5)" />
<use xlink:href="#f1_k" transform="matrix(10.4,0,0,10.4,343.3,739.5)" />
<use xlink:href="#f1_j" transform="matrix(10.4,0,0,10.4,352.2,739.5)" />
<use xlink:href="#f1_h" transform="matrix(10.4,0,0,10.4,361.3,739.5)" />
<use xlink:href="#f1_j" transform="matrix(10.4,0,0,10.5,417.6,727.8)" />
<use xlink:href="#f1_k" transform="matrix(10.4,0,0,10.5,449.9,727.8)" />
<use xlink:href="#f1_h" transform="matrix(10.4,0,0,10.5,469.6,739.5)" />
<use xlink:href="#f1_k" transform="matrix(10.4,0,0,10.5,416.7,751.8)" />
<use xlink:href="#f1_j" transform="matrix(10.4,0,0,10.5,449.3,751.8)" />
<use xlink:href="#f2_4r" transform="matrix(10.4,0,0,10.5,396.2,728.9)" />
<use xlink:href="#f2_57" transform="matrix(10.4,0,0,10.5,459.7,728.9)" />
<use xlink:href="#f2_4s" transform="matrix(10.4,0,0,10.5,396.2,744.4)" />
<use xlink:href="#f2_58" transform="matrix(10.4,0,0,10.5,459.7,744.4)" />
<use xlink:href="#f2_h" transform="matrix(10.4,0,0,10.5,407.8,751.8)" />
<use xlink:href="#f2_4t" transform="matrix(10.4,0,0,10.5,396.2,755.2)" />
<use xlink:href="#f2_59" transform="matrix(10.4,0,0,10.5,459.7,755.2)" />
<use xlink:href="#f1_k" transform="matrix(10.4,0,0,10.4,68.3,794.6)" />
<use xlink:href="#f1_k" transform="matrix(10.4,0,0,10.4,77.2,794.6)" />
<use xlink:href="#f1_h" transform="matrix(10.4,0,0,10.4,86.3,794.6)" />
<use xlink:href="#f3_1w" transform="matrix(10.4,0,0,10.4,109,794.6)" />
<use xlink:href="#f1_l" transform="matrix(7.4,0,0,7.4,117.8,789.3)" />
<use xlink:href="#f1_e" transform="matrix(10.4,0,0,10.4,130.8,794.6)" />
<use xlink:href="#f3_1x" transform="matrix(10.4,0,0,10.4,147,794.6)" />
<use xlink:href="#f1_l" transform="matrix(7.4,0,0,7.4,155.8,789.3)" />
<use xlink:href="#f1_e" transform="matrix(10.4,0,0,10.4,168.8,794.6)" />
<use xlink:href="#f3_1y" transform="matrix(10.4,0,0,10.4,184.9,794.6)" />
<use xlink:href="#f1_l" transform="matrix(7.4,0,0,7.4,193,789.3)" />
<use xlink:href="#f1_e" transform="matrix(10.4,0,0,10.4,206,794.6)" />
<use xlink:href="#f3_1z" transform="matrix(10.4,0,0,10.4,222.1,794.6)" />
<use xlink:href="#f1_l" transform="matrix(7.4,0,0,7.4,230.9,789.3)" />
<use xlink:href="#f1_h" transform="matrix(10.4,0,0,10.4,237.2,794.6)" />
<use xlink:href="#f1_k" transform="matrix(10.4,0,0,10.4,343.3,794.6)" />
<use xlink:href="#f1_l" transform="matrix(10.4,0,0,10.4,352.2,794.6)" />
<use xlink:href="#f1_h" transform="matrix(10.4,0,0,10.4,361.3,794.6)" />
<use xlink:href="#f3_2j" transform="matrix(10.4,0,0,10.4,393.2,794.6)" />
<use xlink:href="#f1_w" transform="matrix(10.4,0,0,10.4,408,794.6)" />
<use xlink:href="#f1_99" transform="matrix(10.4,0,0,10.4,424.1,794.6)" />
<use xlink:href="#f1_k" transform="matrix(10.4,0,0,10.4,440,794.6)" />
<use xlink:href="#f1_m" transform="matrix(10.4,0,0,10.4,448.8,794.6)" />
<use xlink:href="#f1_k" transform="matrix(10.4,0,0,10.4,68.3,845.1)" />
<use xlink:href="#f1_m" transform="matrix(10.4,0,0,10.4,77.2,845.1)" />
<use xlink:href="#f1_h" transform="matrix(10.4,0,0,10.4,86.3,845.1)" />
</g>
<path d="M139.2,842.4h10.3" class="g2_34" />
<g fill="#000000" >
<use xlink:href="#f1_m" transform="matrix(10.5,0,0,10.4,139.9,836.3)" />
<use xlink:href="#f1_l" transform="matrix(10.5,0,0,10.4,140,858.8)" />
<use xlink:href="#f3_26" transform="matrix(10.5,0,0,10.4,111.5,846.6)" />
<use xlink:href="#f2_x" transform="matrix(10.4,0,0,10.4,125.4,846.6)" />
<use xlink:href="#f1_k" transform="matrix(10.4,0,0,10.4,343.3,845.1)" />
<use xlink:href="#f1_n" transform="matrix(10.4,0,0,10.4,352.2,845.1)" />
<use xlink:href="#f1_h" transform="matrix(10.4,0,0,10.4,361.3,845.1)" />
<use xlink:href="#f1_2n" transform="matrix(10.4,0,0,10.4,393.2,845.1)" />
<use xlink:href="#f3_10" transform="matrix(10.4,0,0,10.4,397.4,845.1)" />
<use xlink:href="#f1_2n" transform="matrix(10.4,0,0,10.4,408,845.1)" />
<use xlink:href="#f1_w" transform="matrix(10.4,0,0,10.4,418.8,845.1)" />
<use xlink:href="#f1_k" transform="matrix(10.4,0,0,10.4,434.9,845.1)" />
<use xlink:href="#f1_h" transform="matrix(10.4,0,0,10.4,443.7,845.1)" />
<use xlink:href="#f1_k" transform="matrix(10.4,0,0,10.4,68.3,895.7)" />
<use xlink:href="#f1_o" transform="matrix(10.4,0,0,10.4,77.2,895.7)" />
<use xlink:href="#f1_h" transform="matrix(10.4,0,0,10.4,86.3,895.7)" />
<use xlink:href="#f1_n" transform="matrix(10.4,0,0,10.4,109,895.7)" />
<use xlink:href="#f1_p" transform="matrix(10.4,0,0,10.4,118.2,895.7)" />
<use xlink:href="#f1_k" transform="matrix(10.4,0,0,10.4,343.3,895.7)" />
<use xlink:href="#f1_p" transform="matrix(10.4,0,0,10.4,352.2,895.7)" />
<use xlink:href="#f1_h" transform="matrix(10.4,0,0,10.4,361.3,895.7)" />
<use xlink:href="#f1_99" transform="matrix(10.4,0,0,10.4,393.2,895.7)" />
<use xlink:href="#f1_n" transform="matrix(10.4,0,0,10.4,402.3,895.7)" />
<use xlink:href="#f6_l" transform="matrix(12,0,0,12,655.5,1052.9)" />
<use xlink:href="#f6_k" transform="matrix(12,0,0,12,665.7,1052.9)" />
</g>
<g fill="#0080FF" fill-opacity="0.5" >
<use xlink:href="#f0_1c" transform="matrix(36.3,0,0,36.3,174,1059.2)" />
<use xlink:href="#f0_21" transform="matrix(36.3,0,0,36.3,204.8,1059.2)" />
<use xlink:href="#f0_1x" transform="matrix(36.3,0,0,36.3,235.7,1059.2)" />
<use xlink:href="#f0_2e" transform="matrix(36.3,0,0,36.3,266.5,1059.2)" />
<use xlink:href="#f0_2a" transform="matrix(36.3,0,0,36.3,284.9,1059.2)" />
<use xlink:href="#f0_17" transform="matrix(36.3,0,0,36.3,315.8,1059.2)" />
<use xlink:href="#f0_2h" transform="matrix(36.3,0,0,36.3,358.9,1059.2)" />
<use xlink:href="#f0_25" transform="matrix(36.3,0,0,36.3,389.7,1059.2)" />
<use xlink:href="#f0_20" transform="matrix(36.3,0,0,36.3,402,1059.2)" />
<use xlink:href="#f0_21" transform="matrix(36.3,0,0,36.3,432.8,1059.2)" />
<use xlink:href="#f0_i" transform="matrix(36.3,0,0,36.3,463.7,1059.2)" />
<use xlink:href="#f0_25" transform="matrix(36.3,0,0,36.3,479.1,1059.2)" />
<use xlink:href="#f0_2a" transform="matrix(36.3,0,0,36.3,491.4,1059.2)" />
</g>
<defs>
<path d="M593,101c0,0,182,0,279,112c0,0,98,113,98,318c0,0,0,196,-98,308c0,0,-98,112,-277,112c0,0,-181,0,-279,-110c0,0,-99,-111,-99,-310c0,0,0,-198,100,-314c0,0,99,-116,276,-116Zm0,-115c0,0,-162,0,-279,65c0,0,-118,66,-180,190c0,0,-62,124,-62,290c0,0,0,252,138,394c0,0,138,142,385,142c0,0,160,0,278,-64c0,0,118,-64,180,-185c0,0,62,-122,62,-287c0,0,0,-165,-63,-289c0,0,-63,-124,-181,-190c0,0,-118,-66,-278,-66Z" 
id="f0_1f"
transform="scale(0.001,-0.001)" />

<path d="M106,0V635c0,0,0,141,-5,173H228c0,0,1,-4,2,-21c0,0,1,-16,2,-37c0,0,1,-22,2,-81h2c0,0,47,84,108,119c0,0,60,34,151,34c0,0,132,0,194,-66c0,0,61,-66,61,-218V0H615V512c0,0,0,80,-15,124c0,0,-16,44,-50,63c0,0,-35,20,-101,20c0,0,-97,0,-153,-67c0,0,-56,-66,-56,-184V0Z" 
id="f0_2a"
transform="scale(0.001,-0.001)" />

<path d="M103,0V1107H237V0Z" 
id="f0_28"
transform="scale(0.001,-0.001)" />

<path d="M102,0V808H236V0Zm0,979v128H236V979Z" 
id="f0_25"
transform="scale(0.001,-0.001)" />

<path d="M643,478c0,0,-11,128,-65,187c0,0,-54,59,-154,59c0,0,-98,0,-155,-66c0,0,-57,-65,-62,-180ZM431,-14c0,0,-179,0,-272,106c0,0,-94,107,-94,317c0,0,0,200,94,307c0,0,93,106,267,106c0,0,356,0,356,-429V375H206c0,0,0,-138,57,-213c0,0,58,-75,168,-75c0,0,87,0,140,35c0,0,53,35,71,88L760,177c0,0,-72,-191,-329,-191Z" 
id="f0_21"
transform="scale(0.001,-0.001)" />

<path d="M17,0L304,415L31,808H179L380,493L580,808H730L457,417L747,0H598L380,331L162,0Z" 
id="f0_2k"
transform="scale(0.001,-0.001)" />

<path d="M339,87c0,0,74,0,132,34c0,0,57,33,90,91c0,0,34,59,34,121v66L448,396c0,0,-95,-2,-144,-19c0,0,-49,-18,-75,-55c0,0,-26,-38,-26,-98c0,0,0,-65,35,-101c0,0,36,-36,101,-36ZM309,-14c0,0,-122,0,-183,64c0,0,-61,64,-61,176c0,0,0,125,82,192c0,0,83,67,266,72l182,3v44c0,0,0,98,-42,141c0,0,-42,43,-132,43c0,0,-90,0,-131,-31c0,0,-41,-31,-49,-98L101,604c0,0,34,218,323,218c0,0,153,0,229,-70c0,0,77,-69,77,-202V202c0,0,0,-59,16,-90c0,0,16,-30,60,-30c0,0,19,0,44,5V4C850,4,799,-7,746,-7c0,0,-75,0,-109,38c0,0,-33,40,-38,124h-4C595,155,543,62,475,24c0,0,-68,-38,-166,-38Z" 
id="f0_1x"
transform="scale(0.001,-0.001)" />

<path d="M106,0V635c0,0,0,141,-5,173H228c0,0,1,-4,2,-21c0,0,1,-16,2,-37c0,0,1,-22,2,-81h2c0,0,44,86,100,120c0,0,56,33,136,33c0,0,92,0,145,-36c0,0,54,-37,75,-117h2c0,0,42,82,101,117c0,0,59,36,143,36c0,0,123,0,178,-66c0,0,56,-67,56,-218V0H1039V512c0,0,0,117,-32,162c0,0,-32,45,-116,45c0,0,-88,0,-136,-66c0,0,-49,-65,-49,-185V0H573V512c0,0,0,117,-32,162c0,0,-32,45,-116,45c0,0,-86,0,-136,-66c0,0,-50,-66,-50,-185V0Z" 
id="f0_29"
transform="scale(0.001,-0.001)" />

<path d="M453,84c0,0,100,0,146,74c0,0,46,73,46,247c0,0,0,169,-46,241c0,0,-45,73,-145,73c0,0,-80,0,-125,-34c0,0,-45,-34,-68,-105c0,0,-24,-71,-24,-186c0,0,0,-159,51,-234c0,0,51,-76,165,-76ZM103,-316V643c0,0,0,124,-5,165H228c0,0,1,-3,3,-22c0,0,1,-18,3,-56c0,0,2,-38,2,-52h3c0,0,36,75,94,110c0,0,59,34,156,34c0,0,149,0,223,-100c0,0,74,-100,74,-314c0,0,0,-422,-297,-422c0,0,-187,0,-251,140h-4c0,0,3,-6,3,-126V-316Z" 
id="f0_2c"
transform="scale(0.001,-0.001)" />

<path d="M420,84c0,0,121,0,173,78c0,0,52,77,52,243c0,0,0,167,-50,243c0,0,-50,76,-167,76c0,0,-118,0,-170,-78c0,0,-53,-77,-53,-241c0,0,0,-160,52,-241c0,0,52,-80,163,-80Zm1,-98c0,0,-176,0,-267,107c0,0,-90,108,-90,312c0,0,0,417,362,417c0,0,185,0,272,-102c0,0,88,-101,88,-315c0,0,0,-212,-94,-316C692,89,599,-14,421,-14Z" 
id="f0_2b"
transform="scale(0.001,-0.001)" />

<path d="M278,-11c0,0,-162,0,-162,182V710H23v98h99l39,181h90V808H400V710H251V200c0,0,0,-58,19,-82c0,0,19,-23,66,-23c0,0,27,0,77,10V6c0,0,-66,-17,-135,-17Z" 
id="f0_2g"
transform="scale(0.001,-0.001)" />

<path d="M424,92c0,0,98,0,161,58c0,0,62,58,62,149c0,0,0,92,-62,151c0,0,-63,58,-161,58c0,0,-98,0,-160,-58c0,0,-63,-59,-63,-151c0,0,0,-91,63,-149c0,0,62,-58,160,-58Zm0,533c0,0,82,0,134,46c0,0,52,45,52,118c0,0,0,72,-52,118c0,0,-52,46,-134,46c0,0,-82,0,-134,-46c0,0,-52,-46,-52,-118c0,0,0,-73,52,-119c0,0,52,-45,134,-45Zm0,-653c0,0,-165,0,-265,90C159,62,59,154,59,305c0,0,0,134,100,216c0,0,35,28,78,47c0,0,-27,15,-52,33c0,0,-90,70,-90,185c0,0,0,130,90,209c0,0,91,80,239,80c0,0,148,0,238,-80c0,0,91,-79,91,-209c0,0,0,-115,-91,-185c0,0,-24,-19,-52,-32c0,0,44,-20,79,-49c0,0,101,-81,101,-215c0,0,0,-151,-101,-243c0,0,-100,-90,-265,-90Z" 
id="f1_r"
transform="scale(0.001,-0.001)" />

<path d="M511,373V863L169,383l-7,-10ZM511,0V258H38V383l496,691H646V373H799V258H646V0Z" 
id="f1_n"
transform="scale(0.001,-0.001)" />

<path d="M133,0V162H292V0Z" 
id="f1_h"
transform="scale(0.001,-0.001)" />

<path d="M553,-29c0,0,-211,0,-321,109c0,0,-111,110,-111,322v695H270V413c0,0,0,-153,72,-233c0,0,73,-79,211,-79c0,0,139,0,211,79c0,0,72,80,72,233v684H985V402c0,0,0,-203,-115,-318C870,84,756,-29,553,-29Z" 
id="f1_1k"
transform="scale(0.001,-0.001)" />

<path d="M393,-20c0,0,-169,0,-252,65c0,0,-83,67,-92,210H178c0,0,10,-85,61,-123c0,0,50,-38,154,-38c0,0,90,0,136,34c0,0,47,35,47,100c0,0,0,42,-31,64c0,0,-30,21,-123,43L283,368c0,0,-112,27,-160,75c0,0,-48,48,-48,135c0,0,0,112,80,178c0,0,81,66,218,66c0,0,140,0,222,-68c0,0,82,-67,88,-187H557c0,0,-6,67,-55,103c0,0,-48,37,-129,37c0,0,-84,0,-127,-29c0,0,-44,-29,-44,-85c0,0,0,-43,31,-65c0,0,30,-21,121,-43L493,452c0,0,117,-28,167,-78c0,0,49,-49,49,-138c0,0,0,-119,-86,-188c0,0,-85,-68,-230,-68Z" 
id="f1_2e"
transform="scale(0.001,-0.001)" />

<path d="M104,0V799H238V0Zm-2,946v152H239V946Z" 
id="f1_24"
transform="scale(0.001,-0.001)" />

<path d="M99,0V799H226V681l30,39c0,0,87,102,219,102c0,0,132,0,203,-71c0,0,72,-72,72,-204V0H616V502c0,0,0,105,-41,151c0,0,-40,47,-132,47c0,0,-97,0,-154,-73c0,0,-56,-74,-56,-199V0Z" 
id="f1_29"
transform="scale(0.001,-0.001)" />

<path d="M418,95c0,0,98,0,158,73c0,0,59,73,59,193c0,0,0,170,-54,254c0,0,-54,85,-163,85c0,0,-113,0,-165,-72c0,0,-52,-71,-52,-227c0,0,0,-147,57,-227c0,0,56,-79,160,-79ZM394,-336c0,0,-136,0,-216,62c0,0,-79,63,-96,182H219c0,0,12,-64,57,-98c0,0,45,-35,116,-35c0,0,116,0,176,73c0,0,61,73,61,211V85l-1,-1C628,84,545,-20,412,-20c0,0,-161,0,-256,118c0,0,-94,120,-94,324c0,0,0,179,93,290c0,0,93,110,244,110c0,0,144,0,228,-124l10,-14V799H763V59c0,0,-1,-201,-91,-298c0,0,-91,-97,-278,-97Z" 
id="f1_22"
transform="scale(0.001,-0.001)" />

<path d="M292,-9c0,0,-88,0,-124,38c0,0,-36,39,-36,134V689H22V799H132v224H266V799H392V689H266V163c0,0,0,-27,21,-43c0,0,21,-15,57,-15h48V1C392,1,324,-9,292,-9Z" 
id="f1_2f"
transform="scale(0.001,-0.001)" />

<path d="M99,0V1097H233V690l23,30c0,0,87,102,219,102c0,0,132,0,203,-71c0,0,72,-72,72,-204V0H616V514c0,0,0,99,-38,142c0,0,-38,44,-124,44c0,0,-102,0,-162,-73c0,0,-59,-74,-59,-199V0Z" 
id="f1_23"
transform="scale(0.001,-0.001)" />

<path d="M649,461c0,0,-6,111,-55,172c0,0,-55,69,-160,69c0,0,-106,0,-170,-79c0,0,-50,-62,-60,-162ZM425,-20c0,0,-169,0,-266,106c0,0,-97,107,-97,297c0,0,0,201,102,320c0,0,103,119,276,119c0,0,157,0,253,-116c0,0,96,-117,96,-306l-1,-48H204c0,0,8,-119,54,-182c0,0,57,-76,180,-76c0,0,77,0,134,43c0,0,58,43,70,110H775C775,247,746,116,656,47c0,0,-90,-67,-231,-67Z" 
id="f1_20"
transform="scale(0.001,-0.001)" />

<path d="M436,95c0,0,105,0,160,79c0,0,54,80,54,232c0,0,0,150,-52,222c0,0,-52,72,-161,72c0,0,-112,0,-163,-81c0,0,-51,-82,-51,-258c0,0,0,-127,55,-197c0,0,55,-69,158,-69ZM89,-315V799H216V685l7,10c0,0,86,127,228,127c0,0,156,0,248,-108c0,0,91,-107,91,-291c0,0,0,-208,-92,-326C698,97,606,-20,442,-20c0,0,-135,0,-215,102l-4,6V-315Z" 
id="f1_2b"
transform="scale(0.001,-0.001)" />

<path d="M118,0V799H246V662c0,0,17,32,36,58c0,0,76,102,187,102c0,0,19,0,38,-6V679l-27,1c0,0,-109,0,-168,-66c0,0,-60,-65,-60,-186V0Z" 
id="f1_2d"
transform="scale(0.001,-0.001)" />

<path d="M424,94c0,0,107,0,169,83c0,0,63,83,63,223c0,0,0,140,-63,224c0,0,-62,83,-169,83c0,0,-106,0,-168,-83c0,0,-62,-84,-62,-224c0,0,0,-140,62,-223c0,0,62,-83,168,-83Zm0,-114c0,0,-165,0,-268,115C156,95,54,211,54,400c0,0,0,189,102,306c0,0,103,116,268,116c0,0,168,0,270,-116c0,0,102,-117,102,-306c0,0,0,-189,-102,-305C694,95,592,-20,424,-20Z" 
id="f1_2a"
transform="scale(0.001,-0.001)" />

<path d="M132,0V687H22V799H132V935c0,0,0,88,52,133c0,0,52,45,157,45l59,-3V989l-53,2c0,0,-39,0,-60,-24c0,0,-21,-25,-21,-71V799H400V687H266V0Z" 
id="f1_21"
transform="scale(0.001,-0.001)" />

<path d="M411,93c0,0,98,0,158,73c0,0,60,74,60,195c0,0,0,163,-57,252c0,0,-56,88,-161,88c0,0,-113,0,-165,-72c0,0,-52,-72,-52,-229c0,0,0,-147,56,-227c0,0,56,-80,161,-80ZM404,-20c0,0,-161,0,-255,118c0,0,-95,120,-95,324c0,0,0,179,92,290c0,0,91,110,239,110c0,0,147,0,233,-124l11,-15v414H763V0H638V109L621,84C621,84,538,-20,404,-20Z" 
id="f1_1z"
transform="scale(0.001,-0.001)" />

<path d="M99,0V799H226V680l28,36c0,0,90,106,215,106c0,0,107,0,171,-63c0,0,28,-28,44,-65l21,28c0,0,87,100,208,100c0,0,125,0,194,-68c0,0,68,-68,68,-194V0H1041V515c0,0,0,91,-37,138c0,0,-38,47,-110,47c0,0,-87,0,-139,-68c0,0,-52,-68,-52,-183V0H569V547c0,0,0,75,-34,114c0,0,-34,39,-99,39c0,0,-89,0,-146,-76c0,0,-57,-76,-57,-196V0Z" 
id="f1_28"
transform="scale(0.001,-0.001)" />

<path d="M335,90c0,0,106,0,179,57c0,0,50,41,67,91c0,0,3,10,4,31c0,0,3,21,3,47v87c0,0,-38,-18,-83,-25L381,360c0,0,-97,-13,-142,-45c0,0,-44,-31,-44,-86c0,0,0,-67,36,-103c0,0,37,-36,104,-36ZM309,-20c0,0,-117,0,-186,61c0,0,-68,63,-68,169c0,0,0,108,64,171c0,0,65,64,189,79l183,23c0,0,22,3,42,8c0,0,26,7,40,27c0,0,15,20,15,51v6c0,0,0,64,-49,101c0,0,-48,36,-135,36c0,0,-83,0,-130,-38c0,0,-46,-39,-56,-115H94c0,0,10,131,92,197c0,0,83,66,238,66c0,0,145,0,222,-63c0,0,76,-63,76,-184V137c0,0,0,-21,12,-33c0,0,12,-12,33,-12c0,0,6,0,18,1c0,0,11,2,25,5V1c0,0,-20,-7,-41,-11c0,0,-22,-5,-37,-5c0,0,-76,0,-110,41c0,0,-22,28,-32,79c0,0,-15,-19,-34,-36c0,0,-101,-89,-247,-89Z" 
id="f1_1w"
transform="scale(0.001,-0.001)" />

<path d="M133,-224v71c0,0,47,8,65,52c0,0,14,33,17,101H133V163H292V27c0,0,0,-114,-36,-172c0,0,-37,-58,-123,-79Z" 
id="f1_f"
transform="scale(0.001,-0.001)" />

<path d="M248,0L21,799H169L322,163L478,799H627L788,158L950,799h133L857,0H713L548,624L392,0Z" 
id="f1_2i"
transform="scale(0.001,-0.001)" />

<path d="M133,0V162H292V0Zm0,628V790H292V628Z" 
id="f1_t"
transform="scale(0.001,-0.001)" />

<path d="M406,0V763H155V870h2c16,0,114,2,178,48c0,0,70,51,104,157H549V0Z" 
id="f1_k"
transform="scale(0.001,-0.001)" />

<path d="M355,0V355H0v72H355V784h72V427H782V355H427V0Z" 
id="f2_f"
transform="scale(0.001,-0.001)" />

<path d="M62,-123V268c0,0,0,230,56,452c0,0,47,190,134,334c0,0,87,144,204,242c0,0,85,73,194,119l18,-16c0,0,-211,-145,-335,-339c0,0,-98,-156,-149,-374c0,0,-50,-218,-50,-403V-123Z" 
id="f2_4o"
transform="scale(0.001,-0.001)" />

<path d="M617,-123V283c0,0,0,236,-63,459c0,0,-63,223,-188,392c0,0,-108,146,-282,265l17,16c0,0,180,-76,320,-248c0,0,139,-172,204,-417c0,0,64,-245,64,-482V-123Z" 
id="f2_54"
transform="scale(0.001,-0.001)" />

<path d="M0,214v74H784V214ZM0,494v72H784V494Z" 
id="f2_x"
transform="scale(0.001,-0.001)" />

<path d="M62,-123V1415h72V-123Z" 
id="f2_4p"
transform="scale(0.001,-0.001)" />

<path d="M617,-123V1415h72V-123Z" 
id="f2_55"
transform="scale(0.001,-0.001)" />

<path d="M650,-123c0,0,-180,75,-319,246c0,0,-140,172,-205,418c0,0,-64,245,-64,481v393h72V1007c0,0,0,-236,63,-459c0,0,63,-223,189,-391c0,0,108,-145,282,-265l-18,-15Z" 
id="f2_4q"
transform="scale(0.001,-0.001)" />

<path d="M101,-123l-17,15c0,0,210,144,334,339c0,0,99,156,149,373c0,0,50,218,50,403v408h72V1022c0,0,0,-230,-56,-451c0,0,-48,-191,-134,-335C499,236,412,92,295,-5c0,0,-84,-73,-194,-118Z" 
id="f2_56"
transform="scale(0.001,-0.001)" />

<path d="M354,90c0,0,107,0,192,57c0,0,60,41,87,95c0,0,5,12,11,33c0,0,6,20,11,44l18,88c0,0,-62,-26,-132,-37L414,352c0,0,-84,-11,-131,-56c0,0,-47,-45,-47,-113c0,0,0,-44,31,-69c0,0,31,-24,87,-24ZM306,-20c0,0,-99,0,-156,47c0,0,-57,49,-57,134c0,0,1,117,81,198c0,0,80,81,211,98l164,20l70,10c0,0,35,6,59,30c0,0,23,24,31,66l1,2c0,0,13,64,-25,94c0,0,-39,31,-132,31c0,0,-83,0,-137,-37c0,0,-54,-37,-84,-114H210c0,0,46,137,138,201c0,0,92,63,245,63c0,0,149,0,211,-59c0,0,45,-44,44,-116c0,0,1,-30,-6,-63L749,136c0,0,-4,-19,6,-32c0,0,10,-12,30,-12c0,0,6,0,19,1c0,0,12,2,25,5L809,1c0,0,-19,-6,-43,-11c0,0,-22,-5,-36,-5c0,0,-73,0,-100,43c0,0,-16,27,-17,75C612,102,594,85,573,69c0,0,-120,-89,-267,-89Z" 
id="f3_1w"
transform="scale(0.001,-0.001)" />

<path d="M456,95c0,0,130,0,213,121c0,0,82,120,82,310c0,0,0,85,-44,131c0,0,-44,46,-125,46c0,0,-98,0,-174,-90c0,0,-76,-90,-108,-245c0,0,-26,-126,16,-199c0,0,42,-74,140,-74ZM436,-20c0,0,-132,0,-195,108l-5,7L217,0H89L316,1097H450L365,683l10,11c0,0,120,129,262,129c0,0,121,0,190,-77c0,0,69,-77,69,-211c0,0,0,-234,-134,-395C762,140,629,-20,436,-20Z" 
id="f3_1x"
transform="scale(0.001,-0.001)" />

<path d="M398,-20c0,0,-133,0,-209,72c0,0,-76,74,-76,202v3c0,0,0,27,4,60c0,0,4,33,10,63c0,0,43,208,168,326c0,0,126,117,306,117c0,0,131,0,192,-75c0,0,49,-61,50,-168l-3,-52H710c0,0,4,87,-33,131c0,0,-37,45,-113,45c0,0,-110,0,-184,-81c0,0,-75,-82,-107,-238c0,0,-6,-28,-9,-56c0,0,-3,-28,-3,-50c0,0,0,-88,43,-136c0,0,43,-48,121,-48c0,0,76,0,137,49c0,0,61,48,92,136H788C788,280,737,138,633,58c0,0,-103,-78,-235,-78Z" 
id="f3_1y"
transform="scale(0.001,-0.001)" />

<path d="M417,-28c0,0,-161,0,-259,79c0,0,-98,81,-109,223H189c0,0,11,-90,72,-139c0,0,61,-49,162,-49c0,0,96,0,158,68c0,0,61,68,61,175c0,0,0,112,-64,178c0,0,-64,66,-173,66c0,0,-59,0,-115,-28c0,0,-55,-29,-84,-73L93,480l77,573H727V922H271L225,629l4,3c0,0,89,60,188,60c0,0,169,0,269,-94c0,0,99,-93,99,-253c0,0,0,-165,-103,-269C682,76,579,-28,417,-28Z" 
id="f1_o"
transform="scale(0.001,-0.001)" />

<path d="M310,0L12,799H168L383,145L604,799H752L454,0Z" 
id="f1_2h"
transform="scale(0.001,-0.001)" />

<path d="M412,-328c0,0,-195,96,-303,284C109,-44,0,142,0,365c0,0,0,232,114,422c0,0,114,191,298,273v-31c0,0,-92,-51,-151,-139c0,0,-59,-88,-88,-223c0,0,-29,-136,-29,-282c0,0,0,-167,27,-301c0,0,26,-133,82,-221c0,0,55,-89,159,-159v-32Z" 
id="f2_c"
transform="scale(0.001,-0.001)" />

<path d="M34,-328v32c0,0,92,50,151,138c0,0,59,88,88,222c0,0,29,135,29,283c0,0,0,165,-27,300c0,0,-26,134,-82,222c0,0,-56,89,-159,160v31c0,0,194,-96,303,-284c0,0,108,-187,108,-410c0,0,0,-232,-114,-422c0,0,-114,-191,-297,-272Z" 
id="f2_d"
transform="scale(0.001,-0.001)" />

<path d="M39,0V0c0,0,0,170,84,277c0,0,85,108,317,236c0,0,113,62,154,115c0,0,41,52,41,134c0,0,0,86,-62,141c0,0,-61,54,-156,54c0,0,-101,0,-158,-68c0,0,-57,-68,-60,-194H67c0,0,-2,178,95,279c0,0,98,101,273,101c0,0,149,0,245,-89c0,0,94,-88,94,-228c0,0,0,-118,-60,-195c0,0,-61,-76,-229,-169C485,394,303,294,237,212c0,0,-28,-36,-46,-81H774V0Z" 
id="f1_l"
transform="scale(0.001,-0.001)" />

<path d="M424,-28c0,0,-180,0,-272,86c0,0,-92,87,-100,266H192c0,0,12,-126,66,-180c0,0,55,-54,170,-54c0,0,100,0,163,57c0,0,64,57,64,147c0,0,0,94,-61,149c0,0,-52,48,-135,54c0,0,-38,2,-72,2c0,0,-34,0,-45,-3V613c0,0,17,-3,51,-3c0,0,35,0,68,4c0,0,66,8,106,43c0,0,55,45,55,125c0,0,0,77,-58,125c0,0,-58,48,-148,48c0,0,-96,0,-147,-58c0,0,-51,-59,-56,-175H82c0,0,0,168,89,260c0,0,88,93,250,93c0,0,153,0,247,-77c0,0,94,-76,94,-202c0,0,0,-124,-95,-201c0,0,-18,-15,-39,-27c0,0,39,-17,69,-41c0,0,101,-79,101,-214c0,0,0,-151,-105,-246c0,0,-104,-95,-269,-95Z" 
id="f1_m"
transform="scale(0.001,-0.001)" />

<path d="M0,356v74H784V356Z" 
id="f2_h"
transform="scale(0.001,-0.001)" />

<path d="M432,92c0,0,96,0,156,66c0,0,61,65,61,169c0,0,0,103,-61,169c0,0,-60,66,-156,66c0,0,-95,0,-156,-66c0,0,-61,-66,-61,-169c0,0,0,-104,61,-169c0,0,61,-66,156,-66ZM425,-28c0,0,-176,0,-271,135c0,0,-95,136,-95,388c0,0,0,278,103,429c0,0,103,151,293,151c0,0,142,0,226,-77c0,0,84,-76,90,-211H638c0,0,-8,80,-56,123c0,0,-47,43,-127,43c0,0,-125,0,-192,-119c0,0,-58,-102,-64,-278c0,0,100,127,255,127c0,0,152,0,245,-98c0,0,93,-98,93,-258c0,0,0,-161,-101,-259c0,0,-101,-96,-266,-96Z" 
id="f1_p"
transform="scale(0.001,-0.001)" />

<path d="M213,0c0,0,-22,0,-32,9c0,0,-10,9,-10,22c0,0,0,14,10,23c0,0,10,9,32,9H427V811H213c0,0,-22,0,-32,8c0,0,-10,9,-10,23c0,0,0,14,10,23c0,0,10,8,32,8H704c0,0,23,0,32,-8c0,0,10,-9,10,-23c0,0,0,-14,-10,-23c0,0,-9,-8,-32,-8H490V63H704c0,0,23,0,32,-9c0,0,10,-9,10,-23c0,0,0,-13,-10,-22c0,0,-9,-9,-32,-9Z" 
id="f4_19"
transform="scale(0.001,-0.001)" />

<path d="M203,0c0,0,-22,0,-32,9c0,0,-10,9,-10,22c0,0,0,14,10,23c0,0,10,9,32,9H355V584H219c0,0,-23,0,-32,9c0,0,-10,8,-10,22c0,0,0,14,10,22c0,0,9,9,32,9H355v95c0,0,0,79,64,137c0,0,64,58,169,58c0,0,89,0,189,-17c0,0,38,-5,46,-14c0,0,8,-8,8,-21c0,0,0,-13,-9,-22c0,0,-9,-8,-24,-8c0,0,-6,0,-20,2c0,0,-113,17,-190,17c0,0,-82,0,-126,-40c0,0,-44,-40,-44,-92V646H711c0,0,22,0,32,-9c0,0,10,-8,10,-22c0,0,0,-14,-10,-22c0,0,-10,-9,-32,-9H418V63H692c0,0,23,0,33,-9c0,0,9,-9,9,-23c0,0,0,-13,-9,-22C725,9,715,0,692,0Z" 
id="f4_22"
transform="scale(0.001,-0.001)" />

<path d="M212,0c0,0,51,270,162,500c0,0,109,222,281,422H57v131H799V934C799,934,623,726,515,498C515,498,408,269,362,0Z" 
id="f1_q"
transform="scale(0.001,-0.001)" />

<path d="M0,-123V1415H525v-72H72V-123Z" 
id="f2_4r"
transform="scale(0.001,-0.001)" />

<path d="M478,-123V1343H26v72H550V-123Z" 
id="f2_57"
transform="scale(0.001,-0.001)" />

<path d="M0,-123V1415H72V-123Z" 
id="f2_4s"
transform="scale(0.001,-0.001)" />

<path d="M0,-123V1415H72V-123Z" 
id="f2_58"
transform="scale(0.001,-0.001)" />

<path d="M0,-123V1415H72V-51H525v-72Z" 
id="f2_4t"
transform="scale(0.001,-0.001)" />

<path d="M26,-123v72H478V1415h72V-123Z" 
id="f2_59"
transform="scale(0.001,-0.001)" />

<path d="M780,449L714,934L435,449ZM22,0L673,1097H839L998,0H839L797,318H359L178,0Z" 
id="f3_10"
transform="scale(0.001,-0.001)" />

<path d="M0,368V478H849V368Z" 
id="f1_99"
transform="scale(0.001,-0.001)" />

<path d="M394,-20c0,0,-159,0,-253,113c0,0,-95,114,-95,307c0,0,0,193,98,308c0,0,98,114,264,114c0,0,144,0,230,-78c0,0,85,-79,91,-217H600c0,0,-8,86,-59,133c0,0,-52,47,-138,47c0,0,-101,0,-159,-82c0,0,-58,-82,-58,-225c0,0,0,-152,54,-229c0,0,53,-77,159,-77c0,0,79,0,132,50c0,0,52,51,69,143H729C729,287,709,137,623,58c0,0,-86,-78,-229,-78Z" 
id="f1_1y"
transform="scale(0.001,-0.001)" />

<path d="M103,0V1097H237V0Z" 
id="f1_27"
transform="scale(0.001,-0.001)" />

<path d="M152,-323c-8,0,-38,1,-63,8v125c0,0,30,-11,77,-12c0,0,45,0,76,37c0,0,30,38,69,140l2,12v1L17,799H170L383,139L600,799H747L443,-25c0,0,-70,-184,-125,-241c0,0,-55,-57,-164,-57c0,0,-1,0,-2,0Z" 
id="f1_2k"
transform="scale(0.001,-0.001)" />

<path d="M406,93c0,0,97,0,156,73c0,0,59,74,59,195c0,0,0,163,-56,252c0,0,-55,88,-158,88c0,0,-111,0,-162,-72c0,0,-51,-73,-51,-229c0,0,0,-147,55,-227c0,0,55,-80,157,-80ZM621,-315V93l-7,-9C614,84,532,-20,400,-20c0,0,-159,0,-253,118c0,0,-93,119,-93,323c0,0,0,180,90,291c0,0,91,110,237,110c0,0,146,0,231,-124c0,0,10,-14,17,-29V799H755V-315Z" 
id="f1_2c"
transform="scale(0.001,-0.001)" />

<path d="M375,-20c0,0,-136,0,-203,66c0,0,-68,68,-68,204V799H238V284c0,0,0,-101,38,-146c0,0,39,-44,127,-44c0,0,97,0,153,75c0,0,57,75,57,203V799H747V0H620V122c0,0,-14,-22,-30,-41C590,81,504,-20,375,-20Z" 
id="f1_2g"
transform="scale(0.001,-0.001)" />

<path d="M17,0L389,412L201,800H376L500,518L742,800H904L554,410L750,0H580L448,303L187,0Z" 
id="f3_2j"
transform="scale(0.001,-0.001)" />

<path d="M390,-1V329H60V441H390V771H503V441H833V329H503V-1Z" 
id="f1_e"
transform="scale(0.001,-0.001)" />

<path d="M99,-328c0,0,-46,0,-76,13l25,123c0,0,29,-14,81,-14c0,0,47,0,76,31c0,0,28,31,106,162L185,800H339L415,141L769,800H918L456,0C456,0,329,-216,269,-272c0,0,-61,-56,-170,-56Z" 
id="f3_2k"
transform="scale(0.001,-0.001)" />

<path d="M47,0L58,55l11,55L675,688H237l11,56l11,56H869L857,745L846,690L245,111H740L729,56L718,0Z" 
id="f3_2l"
transform="scale(0.001,-0.001)" />

<path d="M60,174V286H832V174Zm0,309V595H832V483Z" 
id="f1_w"
transform="scale(0.001,-0.001)" />

<path d="M424,92c0,0,114,0,170,107c0,0,57,108,56,323c0,0,1,216,-56,324c0,0,-56,107,-170,107c0,0,-112,0,-168,-107c0,0,-56,-108,-57,-324c0,0,1,-215,57,-323c0,0,56,-107,168,-107Zm0,-120c0,0,-176,0,-271,142c0,0,-96,143,-96,408c0,0,0,265,96,409c0,0,95,144,271,144c0,0,178,0,273,-144c0,0,96,-144,96,-409c0,0,0,-265,-96,-408c0,0,-95,-142,-273,-142Z" 
id="f1_j"
transform="scale(0.001,-0.001)" />

<path d="M693,499L573,830L462,499ZM-39,0c0,0,33,42,61,97c0,0,30,55,71,148l314,761c0,0,22,51,38,98c0,0,15,47,17,63H721c0,0,2,-16,18,-63c0,0,15,-47,37,-98L1091,245c0,0,41,-95,70,-150c0,0,30,-55,60,-95H849c0,0,3,25,-3,55c0,0,-6,30,-24,80L765,295H393L340,135c0,0,-17,-50,-22,-80c0,0,-5,-30,-2,-55Z" 
id="f5_10"
transform="scale(0.001,-0.001)" />

<path d="M108,0c0,0,22,54,31,110c0,0,10,55,10,135V985L-5,1167H418c0,0,21,-44,54,-99c0,0,34,-55,96,-146L857,495V922c0,0,0,81,-9,136c0,0,-9,55,-32,109h378c0,0,-23,-54,-32,-109c0,0,-9,-55,-9,-136V351c0,0,0,-76,11,-178c0,0,11,-101,27,-173H845c0,0,-7,25,-28,67c0,0,-21,42,-45,78L444,628V245c0,0,0,-80,9,-135c0,0,10,-56,32,-110Z" 
id="f5_1d"
transform="scale(0.001,-0.001)" />

<path d="M367,-20c0,0,-85,0,-142,12C225,-8,167,2,83,35V332c0,0,41,-55,107,-90c0,0,66,-35,130,-35c0,0,51,0,84,31c0,0,32,31,32,81c0,0,0,49,-23,86c0,0,-22,37,-82,83c0,0,-126,98,-184,181c0,0,-57,82,-57,165c0,0,0,155,106,253c0,0,106,98,272,98c0,0,62,0,133,-13c0,0,71,-13,120,-33V867c0,0,-59,49,-104,70c0,0,-46,20,-94,20c0,0,-47,0,-76,-24c0,0,-29,-25,-29,-63c0,0,0,-41,20,-73c0,0,21,-31,75,-73c0,0,130,-101,189,-189c0,0,59,-87,59,-180c0,0,0,-165,-110,-270C651,85,541,-20,367,-20Z" 
id="f5_1i"
transform="scale(0.001,-0.001)" />

<path d="M324,0L78,922c0,0,-23,85,-44,140c0,0,-22,55,-50,105H376c0,0,-7,-56,-7,-99c0,0,1,-42,11,-89L479,513L610,998c0,0,11,42,21,91c0,0,10,49,13,78H861c0,0,4,-36,12,-85c0,0,9,-50,18,-84L1021,492l115,540c0,0,8,33,6,63c0,0,-1,31,-12,72h378c0,0,-30,-50,-52,-105c0,0,-21,-56,-45,-140L1166,0H925L741,597L565,0Z" 
id="f5_1m"
transform="scale(0.001,-0.001)" />

<path d="M102,0c0,0,22,54,31,110c0,0,10,55,10,135V922c0,0,0,81,-10,136c0,0,-9,55,-31,109H823L766,1041L709,913c0,0,-42,20,-137,36c0,0,-62,9,-121,13V697H798L728,569L657,441c0,0,-45,21,-131,36c0,0,-38,8,-75,11V206c0,0,117,6,201,22c0,0,126,24,239,84L827,156L762,0Z" 
id="f5_14"
transform="scale(0.001,-0.001)" />

<path d="M452,645c0,0,85,0,139,47c0,0,54,47,54,121c0,0,0,66,-51,107c0,0,-51,42,-132,42H442V645ZM93,0c0,0,22,54,32,110c0,0,9,55,9,135V922c0,0,0,81,-9,136c0,0,-10,55,-32,109H498c0,0,215,0,332,-90c0,0,117,-90,117,-256c0,0,0,-159,-129,-253c0,0,-46,-34,-103,-54L902,246c0,0,57,-82,107,-137c0,0,50,-55,115,-109H803c0,0,-30,0,-104,83c0,0,-73,83,-149,202L442,461V246c0,0,0,-81,9,-136c0,0,10,-56,32,-110Z" 
id="f5_1h"
transform="scale(0.001,-0.001)" />

<path d="M419,483c0,0,93,0,152,66c0,0,59,66,59,169c0,0,0,103,-59,169c0,0,-59,65,-152,65c0,0,-94,0,-153,-65c0,0,-59,-66,-59,-169c0,0,0,-103,59,-169c0,0,59,-66,153,-66ZM397,-28c0,0,-143,0,-227,75c0,0,-85,77,-91,211H209c0,0,8,-83,57,-128c0,0,49,-45,131,-45c0,0,121,0,186,135c0,0,48,101,62,265C645,485,545,362,397,362c0,0,-150,0,-241,98c0,0,-91,98,-91,258c0,0,0,160,99,258c0,0,99,98,262,98c0,0,173,0,266,-123c0,0,94,-123,94,-349c0,0,0,-303,-101,-467C685,135,583,-28,397,-28Z" 
id="f1_s"
transform="scale(0.001,-0.001)" />

<path d="M617,129c0,0,118,0,194,71c0,0,75,70,75,182c0,0,1,59,-55,93c0,0,-56,34,-152,34H368L289,129Zm58,503c0,0,120,0,188,59c0,0,68,58,68,163c0,0,0,57,-50,85c0,0,-50,29,-146,29H462L393,632ZM113,0L340,1097H825c0,0,122,0,191,-55c0,0,69,-55,69,-153c0,0,0,-160,-113,-251c0,0,-35,-26,-77,-46c0,0,27,-12,52,-28c0,0,89,-61,89,-166c0,0,0,-171,-127,-285C909,113,782,0,591,0Z" 
id="f3_11"
transform="scale(0.001,-0.001)" />

<path d="M96,177l23,112H892L869,177Zm63,307l23,112H955L932,484Z" 
id="f3_w"
transform="scale(0.001,-0.001)" />

<path d="M96,-299V1104H382V995H217V-191H382V-299Z" 
id="f1_1q"
transform="scale(0.001,-0.001)" />

<path d="M42,-299v108H207V995H42v109H329V-299Z" 
id="f1_1s"
transform="scale(0.001,-0.001)" />

<path d="M431,94c0,0,95,0,170,76c0,0,76,77,101,198c0,0,35,167,-1,250c0,0,-37,84,-144,84c0,0,-128,0,-210,-117c0,0,-81,-117,-81,-302c0,0,0,-90,43,-139c0,0,44,-50,122,-50ZM400,-20c0,0,-126,0,-199,79c0,0,-73,80,-73,219c0,0,0,234,122,390c0,0,122,155,305,155c0,0,144,0,209,-127l8,-16l86,417H993L767,0H638l22,108L642,90C642,90,532,-20,400,-20Z" 
id="f3_1z"
transform="scale(0.001,-0.001)" />

<path d="M102,0L329,1097H464L333,467L745,800H921L546,501L769,0H595L429,409L300,306L237,0Z" 
id="f3_26"
transform="scale(0.001,-0.001)" />

<path d="M144,-381V1146H255V-381Z" 
id="f1_2n"
transform="scale(0.001,-0.001)" />

<path d="M435,0V856c0,0,-48,-47,-127,-93c0,0,-79,-46,-142,-69V824c0,0,113,52,197,128c0,0,85,75,120,146h86V0Z" 
id="f6_l"
transform="scale(0.001,-0.001)" />

<path d="M420,92c0,0,92,0,155,89c0,0,64,89,64,358c0,0,0,270,-63,359c0,0,-63,89,-158,89c0,0,-92,0,-147,-79c0,0,-70,-100,-70,-369c0,0,0,-269,63,-358c0,0,63,-89,156,-89Zm0,-110c0,0,-158,0,-248,112C172,94,64,231,64,539c0,0,0,194,39,313c0,0,40,118,119,182c0,0,79,64,198,64c0,0,88,0,155,-35c0,0,66,-36,109,-103c0,0,43,-66,68,-162c0,0,24,-96,24,-259c0,0,0,-192,-39,-311C737,228,697,110,619,46c0,0,-79,-64,-199,-64Z" 
id="f6_k"
transform="scale(0.001,-0.001)" />

<path d="M125,0V1051H268V115H799V0Z" 
id="f0_1c"
transform="scale(0.001,-0.001)" />

<path d="M106,0V620c0,0,0,85,-5,188H228c0,0,6,-138,6,-165h3c0,0,32,103,74,141c0,0,42,38,118,38c0,0,27,0,54,-7V692c0,0,-26,7,-71,7c0,0,-84,0,-128,-72c0,0,-44,-72,-44,-206V0Z" 
id="f0_2e"
transform="scale(0.001,-0.001)" />

<path d="M606,-14c0,0,-164,0,-284,65c0,0,-119,66,-182,189c0,0,-63,123,-63,291c0,0,0,255,137,396c0,0,137,140,386,140c0,0,174,0,283,-59c0,0,109,-59,168,-189L915,779c0,0,-44,90,-123,131c0,0,-79,41,-196,41c0,0,-182,0,-278,-110c0,0,-96,-110,-96,-310c0,0,0,-200,102,-315c0,0,102,-115,282,-115c0,0,103,0,193,31c0,0,89,31,144,85V407H629V526h445V164c0,0,-83,-85,-205,-132c0,0,-121,-46,-263,-46Z" 
id="f0_17"
transform="scale(0.001,-0.001)" />

<path d="M355,-14c0,0,-133,0,-194,65c0,0,-62,66,-62,219V808H234V296c0,0,0,-80,16,-124c0,0,16,-44,50,-64c0,0,34,-19,101,-19c0,0,97,0,153,66c0,0,55,67,55,185V808H744V172c0,0,0,-141,4,-172H621c0,0,0,4,-1,20c0,0,-1,17,-2,38c0,0,-1,21,-3,80h-2C613,138,567,55,506,20c0,0,-61,-34,-151,-34Z" 
id="f0_2h"
transform="scale(0.001,-0.001)" />

<path d="M395,89c0,0,115,0,166,79c0,0,51,79,51,246c0,0,0,160,-51,235c0,0,-51,75,-164,75c0,0,-102,0,-147,-75c0,0,-45,-75,-45,-244c0,0,0,-170,45,-243c0,0,45,-73,145,-73ZM361,-14c0,0,-153,0,-225,102c0,0,-72,103,-72,312c0,0,0,422,297,422c0,0,92,0,153,-33c0,0,61,-34,98,-107h2l-2,90v335H747V166c0,0,0,-126,4,-166H623c0,0,-2,12,-5,55c0,0,-3,44,-3,75h-3c0,0,-37,-78,-98,-111c0,0,-62,-33,-153,-33Z" 
id="f0_20"
transform="scale(0.001,-0.001)" />

<path d="M140,0V163H285V0Z" 
id="f0_i"
transform="scale(0.001,-0.001)" />


</defs>
</svg>