<?xml version="1.0" encoding="UTF-8" standalone="no"?>
<!DOCTYPE svg PUBLIC "-//W3C//DTD SVG 1.1//EN"
"http://www.w3.org/Graphics/SVG/1.1/DTD/svg11.dtd">
<svg viewBox="0 0 697 1056" version="1.1" xmlns="http://www.w3.org/2000/svg" xmlns:xlink="http://www.w3.org/1999/xlink">
<defs>
<style type="text/css"><![CDATA[
.g0_53{
fill: none;
stroke: #000000;
stroke-width: 0.7790444;
stroke-linecap: round;
stroke-linejoin: miter;
}
.g1_53{
fill: none;
stroke: #000000;
stroke-width: 0.7541111;
stroke-linecap: round;
stroke-linejoin: miter;
}
.g2_53{
fill: none;
stroke: #000000;
stroke-width: 0.7560667;
stroke-linecap: round;
stroke-linejoin: miter;
}
.g3_53{
fill: none;
stroke: #000000;
stroke-width: 0.76584446;
stroke-linecap: round;
stroke-linejoin: miter;
}
.g4_53{
fill: none;
stroke: #000000;
stroke-width: 0.7638889;
stroke-linecap: round;
stroke-linejoin: miter;
}
.g5_53{
fill: none;
stroke: #000000;
stroke-width: 0.7680445;
stroke-linecap: round;
stroke-linejoin: miter;
}
.g6_53{
fill: none;
stroke: #000000;
stroke-width: 0.7673111;
stroke-linecap: round;
stroke-linejoin: miter;
}
.g7_53{
fill: none;
stroke: #000000;
stroke-width: 0.7695111;
stroke-linecap: round;
stroke-linejoin: miter;
}
.g8_53{
fill: none;
stroke: #000000;
stroke-width: 0.7619333;
stroke-linecap: round;
stroke-linejoin: miter;
}
]]></style>
</defs>
<g fill="#D4D4D4" fill-opacity="0.56" >
<use xlink:href="#f0_1f" transform="matrix(50.9,-50.9,50.9,50.9,86.2,924.1)" />
<use xlink:href="#f0_2a" transform="matrix(50.9,-50.9,50.9,50.9,146.7,863.6)" />
<use xlink:href="#f0_28" transform="matrix(50.9,-50.9,50.9,50.9,189.9,820.3)" />
<use xlink:href="#f0_25" transform="matrix(50.9,-50.9,50.9,50.9,207.2,803.1)" />
<use xlink:href="#f0_2a" transform="matrix(50.9,-50.9,50.9,50.9,224.5,785.8)" />
<use xlink:href="#f0_21" transform="matrix(50.9,-50.9,50.9,50.9,267.7,742.5)" />
<use xlink:href="#f0_2k" transform="matrix(50.9,-50.9,50.9,50.9,311,699.3)" />
<use xlink:href="#f0_1x" transform="matrix(50.9,-50.9,50.9,50.9,349.9,660.4)" />
<use xlink:href="#f0_29" transform="matrix(50.9,-50.9,50.9,50.9,393.1,617.2)" />
<use xlink:href="#f0_2c" transform="matrix(50.9,-50.9,50.9,50.9,457.9,552.4)" />
<use xlink:href="#f0_2b" transform="matrix(50.9,-50.9,50.9,50.9,501.1,509.1)" />
<use xlink:href="#f0_25" transform="matrix(50.9,-50.9,50.9,50.9,544.4,465.9)" />
<use xlink:href="#f0_2a" transform="matrix(50.9,-50.9,50.9,50.9,561.7,448.6)" />
<use xlink:href="#f0_2g" transform="matrix(50.9,-50.9,50.9,50.9,604.9,405.4)" />
</g>
<g fill="#000000" >
<use xlink:href="#f1_l" transform="matrix(10.4,0,0,10.4,42.8,18.2)" />
<use xlink:href="#f1_l" transform="matrix(10.4,0,0,10.4,51.7,18.2)" />
<use xlink:href="#f1_h" transform="matrix(10.4,0,0,10.4,60.9,18.2)" />
<use xlink:href="#f1_b" transform="matrix(10.4,0,0,10.4,83.5,18.2)" />
<use xlink:href="#f1_j" transform="matrix(10.4,0,0,10.4,88.9,18.2)" />
<use xlink:href="#f1_f" transform="matrix(10.4,0,0,10.4,97.7,18.2)" />
<use xlink:href="#f1_j" transform="matrix(10.4,0,0,10.4,109.1,18.2)" />
<use xlink:href="#f1_c" transform="matrix(10.4,0,0,10.4,118,18.2)" />
<use xlink:href="#f1_f" transform="matrix(10.4,0,0,10.4,123.3,18.2)" />
<use xlink:href="#f1_b" transform="matrix(10.4,0,0,10.4,134.9,18.2)" />
<use xlink:href="#f1_l" transform="matrix(10.4,0,0,10.4,140.2,18.2)" />
<use xlink:href="#f1_f" transform="matrix(10.4,0,0,10.4,149.1,18.2)" />
<use xlink:href="#f1_n" transform="matrix(10.4,0,0,10.4,160.5,18.2)" />
<use xlink:href="#f1_c" transform="matrix(10.4,0,0,10.4,169.3,18.2)" />
<use xlink:href="#f1_l" transform="matrix(10.4,0,0,10.4,391.2,18.2)" />
<use xlink:href="#f1_m" transform="matrix(10.4,0,0,10.4,400.1,18.2)" />
<use xlink:href="#f1_h" transform="matrix(10.4,0,0,10.4,409.2,18.2)" />
</g>
<path d="M430.4,11.4h10.2" class="g0_53" />
<g fill="#000000" >
<use xlink:href="#f1_k" transform="matrix(10.4,0,0,10.4,431.6,5.3)" />
<use xlink:href="#f1_h" transform="matrix(10.4,0,0,10.4,442.2,15.6)" />
<use xlink:href="#f1_l" transform="matrix(10.4,0,0,10.4,431,27.9)" />
<use xlink:href="#f1_l" transform="matrix(10.4,0,0,10.4,42.8,76.3)" />
<use xlink:href="#f1_n" transform="matrix(10.4,0,0,10.4,51.7,76.3)" />
<use xlink:href="#f1_h" transform="matrix(10.4,0,0,10.4,60.9,76.3)" />
</g>
<path d="M98.3,69.5h10.1" class="g1_53" />
<g fill="#000000" >
<use xlink:href="#f1_k" transform="matrix(10.4,0,0,10.4,99.7,63.5)" />
<use xlink:href="#f1_99" transform="matrix(10.4,0,0,10.4,86.5,73.7)" />
<use xlink:href="#f1_h" transform="matrix(10.4,0,0,10.4,110.1,73.7)" />
<use xlink:href="#f1_n" transform="matrix(10.4,0,0,10.4,99.1,86)" />
<use xlink:href="#f1_l" transform="matrix(10.4,0,0,10.4,391.2,76.3)" />
<use xlink:href="#f1_o" transform="matrix(10.4,0,0,10.4,400.1,76.3)" />
<use xlink:href="#f1_h" transform="matrix(10.4,0,0,10.4,409.2,76.3)" />
<use xlink:href="#f1_p" transform="matrix(10.4,0,0,10.4,427.3,76.3)" />
<use xlink:href="#f2_2c" transform="matrix(10.4,0,0,10.4,436.1,76.3)" />
<use xlink:href="#f1_2d" transform="matrix(10.4,0,0,10.4,445.1,76.3)" />
<use xlink:href="#f1_l" transform="matrix(10.4,0,0,10.4,42.8,122.8)" />
<use xlink:href="#f1_p" transform="matrix(10.4,0,0,10.4,51.7,122.8)" />
<use xlink:href="#f1_h" transform="matrix(10.4,0,0,10.4,60.9,122.8)" />
<use xlink:href="#f1_l" transform="matrix(10.4,0,0,10.4,83.5,122.8)" />
<use xlink:href="#f2_2c" transform="matrix(10.4,0,0,10.4,99.3,122.8)" />
<use xlink:href="#f1_1y" transform="matrix(10.4,0,0,10.4,115.1,122.8)" />
<use xlink:href="#f1_28" transform="matrix(10.4,0,0,10.4,123.1,122.8)" />
<use xlink:href="#f1_l" transform="matrix(7.4,0,0,7.4,136.3,117.5)" />
<use xlink:href="#f1_i" transform="matrix(10.4,0,0,10.4,142.6,122.8)" />
<use xlink:href="#f1_1y" transform="matrix(10.4,0,0,10.4,147,122.8)" />
<use xlink:href="#f1_28" transform="matrix(10.4,0,0,10.4,155,122.8)" />
<use xlink:href="#f1_l" transform="matrix(10.4,0,0,10.4,391.2,122.8)" />
<use xlink:href="#f1_q" transform="matrix(10.4,0,0,10.4,400.1,122.8)" />
<use xlink:href="#f1_h" transform="matrix(10.4,0,0,10.4,409.2,122.8)" />
<use xlink:href="#f1_q" transform="matrix(10.4,0,0,10.4,427.3,122.8)" />
<use xlink:href="#f1_l" transform="matrix(10.4,0,0,10.4,436.5,122.8)" />
<use xlink:href="#f1_l" transform="matrix(10.4,0,0,10.4,42.8,177.3)" />
<use xlink:href="#f1_r" transform="matrix(10.4,0,0,10.4,51.7,177.3)" />
<use xlink:href="#f1_h" transform="matrix(10.4,0,0,10.4,60.9,177.3)" />
</g>
<path d="M97.8,170.6h19.4" class="g2_53" />
<g fill="#000000" >
<use xlink:href="#f1_h" transform="matrix(10.4,0,0,10.4,118.8,174.8)" />
<use xlink:href="#f1_l" transform="matrix(10.4,0,0,10.4,98.6,187)" />
<use xlink:href="#f3_1w" transform="matrix(10.4,0,0,10.4,102.7,164.5)" />
<use xlink:href="#f3_1x" transform="matrix(10.4,0,0,10.4,106.8,187)" />
<use xlink:href="#f2_h" transform="matrix(10.4,0,0,10.4,86.6,174.8)" />
<use xlink:href="#f1_l" transform="matrix(10.4,0,0,10.4,391.2,177.3)" />
<use xlink:href="#f1_s" transform="matrix(10.4,0,0,10.4,400.1,177.3)" />
<use xlink:href="#f1_h" transform="matrix(10.4,0,0,10.4,409.2,177.3)" />
<use xlink:href="#f1_1h" transform="matrix(10.4,0,0,10.4,427.3,177.3)" />
<use xlink:href="#f1_2e" transform="matrix(10.4,0,0,10.4,438.8,177.3)" />
<use xlink:href="#f1_h" transform="matrix(10.4,0,0,10.4,446.8,177.3)" />
<use xlink:href="#f1_r" transform="matrix(10.4,0,0,10.4,458.4,177.3)" />
<use xlink:href="#f1_j" transform="matrix(10.4,0,0,10.4,467.2,177.3)" />
<use xlink:href="#f1_h" transform="matrix(10.4,0,0,10.4,476.1,177.3)" />
<use xlink:href="#f1_m" transform="matrix(10.4,0,0,10.4,42.8,224)" />
<use xlink:href="#f1_j" transform="matrix(10.4,0,0,10.4,51.7,224)" />
<use xlink:href="#f1_h" transform="matrix(10.4,0,0,10.4,60.9,224)" />
<use xlink:href="#f3_1w" transform="matrix(10.4,0,0,10.4,83.5,224)" />
<use xlink:href="#f1_x" transform="matrix(10.4,0,0,10.4,99.1,224)" />
<use xlink:href="#f1_j" transform="matrix(10.4,0,0,10.4,115.4,224)" />
<use xlink:href="#f1_h" transform="matrix(10.4,0,0,10.4,124.3,224)" />
<use xlink:href="#f1_m" transform="matrix(10.4,0,0,10.4,42.8,278.5)" />
<use xlink:href="#f1_k" transform="matrix(10.4,0,0,10.4,51.7,278.5)" />
<use xlink:href="#f1_h" transform="matrix(10.4,0,0,10.4,60.9,278.5)" />
<use xlink:href="#f2_c" transform="matrix(10.5,0,0,14.1,85.9,279)" />
<use xlink:href="#f2_d" transform="matrix(10.5,0,0,14.1,122.1,278.8)" />
</g>
<path d="M218.7,274.1h16.8" class="g3_53" />
<g fill="#000000" >
<use xlink:href="#f1_m" transform="matrix(10.5,0,0,10.5,219.5,267.9)" />
<use xlink:href="#f1_k" transform="matrix(10.5,0,0,10.5,228.4,267.9)" />
<use xlink:href="#f1_n" transform="matrix(10.5,0,0,10.5,91.7,278.3)" />
<use xlink:href="#f1_f" transform="matrix(10.5,0,0,10.5,100,278.3)" />
<use xlink:href="#f1_k" transform="matrix(10.5,0,0,10.5,106.4,278.3)" />
<use xlink:href="#f1_k" transform="matrix(10.5,0,0,10.5,115.3,278.3)" />
<use xlink:href="#f1_1w" transform="matrix(10.5,0,0,10.5,136.3,278.3)" />
<use xlink:href="#f1_29" transform="matrix(10.5,0,0,10.5,145.3,278.3)" />
<use xlink:href="#f1_1z" transform="matrix(10.5,0,0,10.5,154.2,278.3)" />
<use xlink:href="#f1_n" transform="matrix(10.5,0,0,10.5,189.4,278.3)" />
<use xlink:href="#f1_f" transform="matrix(10.5,0,0,10.5,197.7,278.3)" />
<use xlink:href="#f1_h" transform="matrix(10.5,0,0,10.5,244.9,278.3)" />
<use xlink:href="#f1_m" transform="matrix(10.5,0,0,10.5,222.7,290.7)" />
<use xlink:href="#f2_4o" transform="matrix(10.5,0,0,10.5,172.4,268.9)" />
<use xlink:href="#f2_54" transform="matrix(10.5,0,0,10.5,236.1,268.9)" />
<use xlink:href="#f2_h" transform="matrix(10.5,0,0,10.5,181,278.3)" />
<use xlink:href="#f2_h" transform="matrix(10.5,0,0,10.5,206.2,278.3)" />
<use xlink:href="#f2_4p" transform="matrix(10.5,0,0,10.5,172.4,280.6)" />
<use xlink:href="#f2_55" transform="matrix(10.5,0,0,10.5,236.1,280.6)" />
<use xlink:href="#f2_4q" transform="matrix(10.5,0,0,10.5,172.4,287.5)" />
<use xlink:href="#f2_56" transform="matrix(10.5,0,0,10.5,236.1,287.5)" />
<use xlink:href="#f1_m" transform="matrix(10.4,0,0,10.4,317.8,278.5)" />
<use xlink:href="#f1_l" transform="matrix(10.4,0,0,10.4,326.7,278.5)" />
<use xlink:href="#f1_h" transform="matrix(10.4,0,0,10.4,335.9,278.5)" />
</g>
<path d="M374.4,271.8h10.3m28.6,-8.2l-5.1,15.8" class="g4_53" />
<g fill="#000000" >
<use xlink:href="#f1_r" transform="matrix(10.4,0,0,10.4,375.1,265.7)" />
<use xlink:href="#f1_1y" transform="matrix(10.4,0,0,10.4,387,276)" />
<use xlink:href="#f1_28" transform="matrix(10.4,0,0,10.4,394.9,276)" />
<use xlink:href="#f1_2e" transform="matrix(10.4,0,0,10.4,414.4,276)" />
<use xlink:href="#f1_20" transform="matrix(10.4,0,0,10.4,422.3,276)" />
<use xlink:href="#f1_1y" transform="matrix(10.4,0,0,10.4,431.4,276)" />
<use xlink:href="#f1_h" transform="matrix(10.4,0,0,10.4,440.5,276)" />
<use xlink:href="#f1_m" transform="matrix(10.4,0,0,10.4,375.1,288.2)" />
<use xlink:href="#f2_h" transform="matrix(10.5,0,0,10.4,363,276)" />
<use xlink:href="#f1_m" transform="matrix(10.4,0,0,10.4,42.8,347.1)" />
<use xlink:href="#f1_m" transform="matrix(10.4,0,0,10.4,51.7,347.1)" />
<use xlink:href="#f1_h" transform="matrix(10.4,0,0,10.4,60.9,347.1)" />
</g>
<path d="M86.6,343.2H97.4M126.2,335l-5.1,15.9" class="g5_53" />
<g fill="#000000" >
<use xlink:href="#f1_k" transform="matrix(10.5,0,0,10.4,88.2,337)" />
<use xlink:href="#f1_1y" transform="matrix(10.5,0,0,10.4,99.8,347.4)" />
<use xlink:href="#f1_28" transform="matrix(10.5,0,0,10.4,107.8,347.4)" />
<use xlink:href="#f1_2e" transform="matrix(10.5,0,0,10.4,127.2,347.4)" />
<use xlink:href="#f1_20" transform="matrix(10.5,0,0,10.4,135.2,347.4)" />
<use xlink:href="#f1_1y" transform="matrix(10.5,0,0,10.4,144.3,347.4)" />
<use xlink:href="#f1_h" transform="matrix(10.5,0,0,10.4,153.5,347.4)" />
<use xlink:href="#f2_2c" transform="matrix(10.4,0,0,10.4,87.6,359.7)" />
<use xlink:href="#f1_m" transform="matrix(10.4,0,0,10.4,317.8,347.1)" />
<use xlink:href="#f1_n" transform="matrix(10.4,0,0,10.4,326.7,347.1)" />
<use xlink:href="#f1_h" transform="matrix(10.4,0,0,10.4,335.9,347.1)" />
<use xlink:href="#f1_l" transform="matrix(10.4,0,0,10.4,360,347.1)" />
<use xlink:href="#f1_h" transform="matrix(10.4,0,0,10.4,368.9,347.1)" />
<use xlink:href="#f1_o" transform="matrix(10.4,0,0,10.4,373.3,347.1)" />
<use xlink:href="#f1_26" transform="matrix(10.4,0,0,10.4,389.9,347.1)" />
<use xlink:href="#f1_28" transform="matrix(10.4,0,0,10.4,397.9,347.1)" />
<use xlink:href="#f1_i" transform="matrix(10.4,0,0,10.4,411.2,347.1)" />
<use xlink:href="#f1_23" transform="matrix(10.4,0,0,10.4,415.6,347.1)" />
<use xlink:href="#f1_2d" transform="matrix(10.4,0,0,10.4,424.5,347.1)" />
<use xlink:href="#f1_h" transform="matrix(10.4,0,0,10.4,429.8,347.1)" />
<use xlink:href="#f1_m" transform="matrix(10.4,0,0,10.4,42.8,414.3)" />
<use xlink:href="#f1_o" transform="matrix(10.4,0,0,10.4,51.7,414.3)" />
<use xlink:href="#f1_h" transform="matrix(10.4,0,0,10.4,60.9,414.3)" />
</g>
<path d="M86.6,410.5h28.9m28.8,-8.1l-5.1,15.8" class="g6_53" />
<g fill="#000000" >
<use xlink:href="#f1_n" transform="matrix(10.4,0,0,10.4,96.6,404.5)" />
<use xlink:href="#f1_1y" transform="matrix(10.4,0,0,10.4,117.9,414.7)" />
<use xlink:href="#f1_28" transform="matrix(10.4,0,0,10.4,125.8,414.7)" />
<use xlink:href="#f1_2e" transform="matrix(10.4,0,0,10.4,145.3,414.7)" />
<use xlink:href="#f1_20" transform="matrix(10.4,0,0,10.4,153.3,414.7)" />
<use xlink:href="#f1_1y" transform="matrix(10.4,0,0,10.4,162.3,414.7)" />
<use xlink:href="#f1_h" transform="matrix(10.4,0,0,10.4,171.5,414.7)" />
<use xlink:href="#f1_n" transform="matrix(10.4,0,0,10.4,87.3,427)" />
<use xlink:href="#f1_o" transform="matrix(10.4,0,0,10.4,96.4,427)" />
<use xlink:href="#f2_2c" transform="matrix(10.4,0,0,10.4,105.7,427)" />
<use xlink:href="#f1_m" transform="matrix(10.4,0,0,10.4,317.8,414.3)" />
<use xlink:href="#f1_p" transform="matrix(10.4,0,0,10.4,326.7,414.3)" />
<use xlink:href="#f1_h" transform="matrix(10.4,0,0,10.4,335.9,414.3)" />
<use xlink:href="#f1_b" transform="matrix(10.4,0,0,10.4,360,414.3)" />
<use xlink:href="#f1_1w" transform="matrix(10.4,0,0,10.4,365.3,414.3)" />
<use xlink:href="#f1_c" transform="matrix(10.4,0,0,10.4,374.2,414.3)" />
<use xlink:href="#f1_99" transform="matrix(10.4,0,0,10.4,386.7,414.3)" />
<use xlink:href="#f1_l" transform="matrix(10.4,0,0,10.4,395.5,414.3)" />
<use xlink:href="#f1_1y" transform="matrix(10.4,0,0,10.4,411.5,414.3)" />
<use xlink:href="#f1_28" transform="matrix(10.4,0,0,10.4,419.5,414.3)" />
<use xlink:href="#f1_i" transform="matrix(10.4,0,0,10.4,432.8,414.3)" />
<use xlink:href="#f1_28" transform="matrix(10.4,0,0,10.4,437.2,414.3)" />
<use xlink:href="#f1_24" transform="matrix(10.4,0,0,10.4,450.5,414.3)" />
<use xlink:href="#f1_29" transform="matrix(10.4,0,0,10.4,454.1,414.3)" />
<use xlink:href="#f1_f" transform="matrix(10.4,0,0,10.4,462.9,414.3)" />
<use xlink:href="#f1_b" transform="matrix(10.4,0,0,10.4,474.5,414.3)" />
<use xlink:href="#f1_1x" transform="matrix(10.4,0,0,10.4,479.8,414.3)" />
<use xlink:href="#f1_c" transform="matrix(10.4,0,0,10.4,488.7,414.3)" />
<use xlink:href="#f1_l" transform="matrix(10.4,0,0,10.4,501.1,414.3)" />
<use xlink:href="#f1_1y" transform="matrix(10.4,0,0,10.4,517.2,414.3)" />
<use xlink:href="#f1_28" transform="matrix(10.4,0,0,10.4,525.1,414.3)" />
<use xlink:href="#f1_l" transform="matrix(7.4,0,0,7.4,537.8,409)" />
<use xlink:href="#f1_i" transform="matrix(10.4,0,0,10.4,544.1,414.3)" />
<use xlink:href="#f1_28" transform="matrix(10.4,0,0,10.4,548.5,414.3)" />
<use xlink:href="#f1_24" transform="matrix(10.4,0,0,10.4,561.8,414.3)" />
<use xlink:href="#f1_29" transform="matrix(10.4,0,0,10.4,565.3,414.3)" />
<use xlink:href="#f1_m" transform="matrix(10.4,0,0,10.4,42.8,484.4)" />
<use xlink:href="#f1_q" transform="matrix(10.4,0,0,10.4,51.7,484.4)" />
<use xlink:href="#f1_h" transform="matrix(10.4,0,0,10.4,60.9,484.4)" />
</g>
<path d="M86.6,477.6h28.9m28.8,-8.1l-5.1,15.8" class="g6_53" />
<g fill="#000000" >
<use xlink:href="#f1_k" transform="matrix(10.4,0,0,10.4,97.3,471.5)" />
<use xlink:href="#f1_1y" transform="matrix(10.4,0,0,10.4,117.9,481.8)" />
<use xlink:href="#f1_28" transform="matrix(10.4,0,0,10.4,125.8,481.8)" />
<use xlink:href="#f1_2e" transform="matrix(10.4,0,0,10.4,145.3,481.8)" />
<use xlink:href="#f1_20" transform="matrix(10.4,0,0,10.4,153.3,481.8)" />
<use xlink:href="#f1_1y" transform="matrix(10.4,0,0,10.4,162.3,481.8)" />
<use xlink:href="#f1_h" transform="matrix(10.4,0,0,10.4,171.5,481.8)" />
<use xlink:href="#f1_n" transform="matrix(10.4,0,0,10.4,87.3,494.1)" />
<use xlink:href="#f1_r" transform="matrix(10.4,0,0,10.4,96.4,494.1)" />
<use xlink:href="#f2_2c" transform="matrix(10.4,0,0,10.4,105.7,494.1)" />
<use xlink:href="#f1_m" transform="matrix(10.4,0,0,10.4,317.8,484.4)" />
<use xlink:href="#f1_r" transform="matrix(10.4,0,0,10.4,326.7,484.4)" />
<use xlink:href="#f1_h" transform="matrix(10.4,0,0,10.4,335.9,484.4)" />
<use xlink:href="#f1_q" transform="matrix(10.4,0,0,10.4,360,484.4)" />
<use xlink:href="#f1_h" transform="matrix(10.4,0,0,10.4,368.9,484.4)" />
<use xlink:href="#f1_k" transform="matrix(10.4,0,0,10.4,373.3,484.4)" />
<use xlink:href="#f1_k" transform="matrix(10.4,0,0,10.4,382.2,484.4)" />
<use xlink:href="#f1_1y" transform="matrix(10.4,0,0,10.4,398.9,484.4)" />
<use xlink:href="#f1_28" transform="matrix(10.4,0,0,10.4,406.9,484.4)" />
<use xlink:href="#f1_i" transform="matrix(10.4,0,0,10.4,420.2,484.4)" />
<use xlink:href="#f1_2e" transform="matrix(10.4,0,0,10.4,424.6,484.4)" />
<use xlink:href="#f1_20" transform="matrix(10.4,0,0,10.4,432.6,484.4)" />
<use xlink:href="#f1_1y" transform="matrix(10.4,0,0,10.4,441.5,484.4)" />
<use xlink:href="#f1_h" transform="matrix(10.4,0,0,10.4,449.4,484.4)" />
<use xlink:href="#f1_m" transform="matrix(10.4,0,0,10.4,42.8,550.6)" />
<use xlink:href="#f1_s" transform="matrix(10.4,0,0,10.4,51.7,550.6)" />
<use xlink:href="#f1_h" transform="matrix(10.4,0,0,10.4,60.9,550.6)" />
</g>
<path d="M94.8,547.1h10.3m9.9,0h10.3" class="g7_53" />
<g fill="#000000" >
<use xlink:href="#f1_q" transform="matrix(10.6,0,0,10.6,95.6,540.9)" />
<use xlink:href="#f1_k" transform="matrix(10.6,0,0,10.6,116.4,540.9)" />
<use xlink:href="#f1_f" transform="matrix(10.6,0,0,10.6,106.8,551.4)" />
<use xlink:href="#f1_h" transform="matrix(10.6,0,0,10.6,135.1,551.4)" />
<use xlink:href="#f1_l" transform="matrix(10.6,0,0,10.6,95.7,563.9)" />
<use xlink:href="#f1_n" transform="matrix(10.6,0,0,10.6,115.8,563.9)" />
<use xlink:href="#f2_4o" transform="matrix(10.6,0,0,10.6,86.1,541.9)" />
<use xlink:href="#f2_54" transform="matrix(10.6,0,0,10.6,125.9,541.9)" />
<use xlink:href="#f2_4p" transform="matrix(10.6,0,0,10.6,86.1,553.5)" />
<use xlink:href="#f2_55" transform="matrix(10.6,0,0,10.6,125.9,553.5)" />
<use xlink:href="#f2_4q" transform="matrix(10.6,0,0,10.6,86.1,560.4)" />
<use xlink:href="#f2_56" transform="matrix(10.6,0,0,10.6,125.9,560.4)" />
<use xlink:href="#f1_n" transform="matrix(10.4,0,0,10.4,317.8,550.6)" />
<use xlink:href="#f1_j" transform="matrix(10.4,0,0,10.4,326.7,550.6)" />
<use xlink:href="#f1_h" transform="matrix(10.4,0,0,10.4,335.9,550.6)" />
</g>
<path d="M391.4,546.8h10" class="g4_53" />
<g fill="#000000" >
<use xlink:href="#f1_k" transform="matrix(10.4,0,0,10.4,392.5,540.7)" />
<use xlink:href="#f1_h" transform="matrix(10.4,0,0,10.4,402.9,551)" />
<use xlink:href="#f1_l" transform="matrix(10.4,0,0,10.4,392,563.2)" />
<use xlink:href="#f3_2k" transform="matrix(10.4,0,0,10.4,362.9,551)" />
<use xlink:href="#f2_x" transform="matrix(10.5,0,0,10.4,377.4,551)" />
<use xlink:href="#f1_n" transform="matrix(10.4,0,0,10.4,42.8,601.3)" />
<use xlink:href="#f1_l" transform="matrix(10.4,0,0,10.4,51.7,601.3)" />
<use xlink:href="#f1_h" transform="matrix(10.4,0,0,10.4,60.9,601.3)" />
<use xlink:href="#f1_l" transform="matrix(10.4,0,0,10.4,83.5,601.3)" />
<use xlink:href="#f3_2j" transform="matrix(10.4,0,0,10.4,92.3,601.3)" />
<use xlink:href="#f1_e" transform="matrix(10.4,0,0,10.4,107.2,601.3)" />
<use xlink:href="#f1_m" transform="matrix(10.4,0,0,10.4,123.5,601.3)" />
<use xlink:href="#f3_28" transform="matrix(10.4,0,0,10.4,132.3,601.3)" />
<use xlink:href="#f3_2k" transform="matrix(10.4,0,0,10.4,145.6,601.3)" />
<use xlink:href="#f1_w" transform="matrix(10.4,0,0,10.4,160.4,601.3)" />
<use xlink:href="#f3_1w" transform="matrix(10.4,0,0,10.4,176.7,601.3)" />
<use xlink:href="#f3_28" transform="matrix(10.4,0,0,10.4,185.6,601.3)" />
<use xlink:href="#f1_l" transform="matrix(7.4,0,0,7.4,198.7,596)" />
<use xlink:href="#f1_b" transform="matrix(10.4,0,0,10.4,211.9,601.3)" />
<use xlink:href="#f1_l" transform="matrix(10.4,0,0,10.4,217.2,601.3)" />
<use xlink:href="#f1_e" transform="matrix(10.4,0,0,10.4,232.8,601.3)" />
<use xlink:href="#f1_m" transform="matrix(10.4,0,0,10.4,249.1,601.3)" />
<use xlink:href="#f1_28" transform="matrix(10.4,0,0,10.4,258,601.3)" />
<use xlink:href="#f1_l" transform="matrix(7.4,0,0,7.4,271.1,596)" />
<use xlink:href="#f1_c" transform="matrix(10.4,0,0,10.4,277.3,601.3)" />
<use xlink:href="#f1_n" transform="matrix(10.4,0,0,10.4,317.8,601.3)" />
<use xlink:href="#f1_n" transform="matrix(10.4,0,0,10.4,326.7,601.3)" />
<use xlink:href="#f1_h" transform="matrix(10.4,0,0,10.4,335.9,601.3)" />
<use xlink:href="#f1_n" transform="matrix(10.4,0,0,10.4,360,601.3)" />
<use xlink:href="#f1_r" transform="matrix(10.4,0,0,10.4,368.9,601.3)" />
<use xlink:href="#f3_2j" transform="matrix(10.4,0,0,10.4,377.6,601.3)" />
<use xlink:href="#f3_99" transform="matrix(10.4,0,0,10.4,392.6,601.3)" />
<use xlink:href="#f1_l" transform="matrix(10.4,0,0,10.4,408.4,601.3)" />
<use xlink:href="#f1_n" transform="matrix(10.4,0,0,10.4,417.3,601.3)" />
<use xlink:href="#f3_2k" transform="matrix(10.4,0,0,10.4,426,601.3)" />
<use xlink:href="#f1_w" transform="matrix(10.4,0,0,10.4,441.1,601.3)" />
<use xlink:href="#f1_l" transform="matrix(10.4,0,0,10.4,457.5,601.3)" />
<use xlink:href="#f1_m" transform="matrix(10.4,0,0,10.4,466.4,601.3)" />
<use xlink:href="#f1_n" transform="matrix(10.4,0,0,10.4,42.8,657.3)" />
<use xlink:href="#f1_o" transform="matrix(10.4,0,0,10.4,51.7,657.3)" />
<use xlink:href="#f1_h" transform="matrix(10.4,0,0,10.4,60.9,657.3)" />
<use xlink:href="#f1_l" transform="matrix(10.4,0,0,10.4,83.5,657.3)" />
<use xlink:href="#f3_2j" transform="matrix(10.4,0,0,10.4,92.3,657.3)" />
<use xlink:href="#f1_e" transform="matrix(10.4,0,0,10.4,107.2,657.3)" />
<use xlink:href="#f1_l" transform="matrix(10.4,0,0,10.4,123.3,657.3)" />
<use xlink:href="#f3_2k" transform="matrix(10.4,0,0,10.4,132.1,657.3)" />
<use xlink:href="#f1_w" transform="matrix(10.4,0,0,10.4,147,657.3)" />
<use xlink:href="#f3_1w" transform="matrix(10.4,0,0,10.4,163.3,657.3)" />
<use xlink:href="#f1_l" transform="matrix(7.4,0,0,7.4,172.1,651.9)" />
<use xlink:href="#f1_n" transform="matrix(10.4,0,0,10.4,317.8,657.3)" />
<use xlink:href="#f1_p" transform="matrix(10.4,0,0,10.4,326.7,657.3)" />
<use xlink:href="#f1_h" transform="matrix(10.4,0,0,10.4,335.9,657.3)" />
</g>
<path d="M371.2,651.2h10.2m14.9,0h27m31.1,0h19.4m27.4,0h27" class="g8_53" />
<g fill="#000000" >
<use xlink:href="#f1_r" transform="matrix(10.5,0,0,10.5,371.9,645)" />
<use xlink:href="#f1_k" transform="matrix(10.5,0,0,10.5,395.9,645)" />
<use xlink:href="#f1_l" transform="matrix(10.5,0,0,10.5,404.8,645)" />
<use xlink:href="#f1_r" transform="matrix(10.5,0,0,10.5,413.7,645)" />
<use xlink:href="#f1_r" transform="matrix(10.5,0,0,10.5,464.2,645)" />
<use xlink:href="#f1_k" transform="matrix(10.5,0,0,10.5,500.6,645)" />
<use xlink:href="#f1_l" transform="matrix(10.5,0,0,10.5,509.5,645)" />
<use xlink:href="#f1_r" transform="matrix(10.5,0,0,10.5,518.4,645)" />
<use xlink:href="#f1_f" transform="matrix(10.5,0,0,10.5,383,655.4)" />
<use xlink:href="#f1_f" transform="matrix(10.5,0,0,10.5,433,655.4)" />
<use xlink:href="#f1_f" transform="matrix(10.5,0,0,10.5,475.5,655.4)" />
<use xlink:href="#f1_h" transform="matrix(10.5,0,0,10.5,538,655.4)" />
<use xlink:href="#f1_m" transform="matrix(10.5,0,0,10.5,371.9,667.8)" />
<use xlink:href="#f1_l" transform="matrix(10.5,0,0,10.5,401,667.8)" />
<use xlink:href="#f1_q" transform="matrix(10.5,0,0,10.5,409.9,667.8)" />
<use xlink:href="#f1_m" transform="matrix(10.5,0,0,10.5,459.7,667.8)" />
<use xlink:href="#f1_l" transform="matrix(10.5,0,0,10.5,505.8,667.8)" />
<use xlink:href="#f1_q" transform="matrix(10.5,0,0,10.5,514.7,667.8)" />
<use xlink:href="#f2_h" transform="matrix(10.5,0,0,10.5,455.7,645)" />
<use xlink:href="#f2_4o" transform="matrix(10.5,0,0,10.5,362.6,646)" />
<use xlink:href="#f2_54" transform="matrix(10.5,0,0,10.5,423.9,646)" />
<use xlink:href="#f2_4o" transform="matrix(10.5,0,0,10.5,445.8,646)" />
<use xlink:href="#f2_54" transform="matrix(10.5,0,0,10.5,528.9,646)" />
<use xlink:href="#f2_h" transform="matrix(10.5,0,0,10.5,488.8,655.4)" />
<use xlink:href="#f2_4p" transform="matrix(10.5,0,0,10.5,362.6,657.7)" />
<use xlink:href="#f2_55" transform="matrix(10.5,0,0,10.5,423.9,657.7)" />
<use xlink:href="#f2_4p" transform="matrix(10.5,0,0,10.5,445.8,657.7)" />
<use xlink:href="#f2_55" transform="matrix(10.5,0,0,10.5,528.9,657.7)" />
<use xlink:href="#f2_4q" transform="matrix(10.5,0,0,10.5,362.6,664.6)" />
<use xlink:href="#f2_56" transform="matrix(10.5,0,0,10.5,423.9,664.6)" />
<use xlink:href="#f2_4q" transform="matrix(10.5,0,0,10.5,445.8,664.6)" />
<use xlink:href="#f2_56" transform="matrix(10.5,0,0,10.5,528.9,664.6)" />
<use xlink:href="#f1_n" transform="matrix(10.4,0,0,10.4,42.8,706.8)" />
<use xlink:href="#f1_r" transform="matrix(10.4,0,0,10.4,51.7,706.8)" />
<use xlink:href="#f1_h" transform="matrix(10.4,0,0,10.4,60.9,706.8)" />
<use xlink:href="#f3_2k" transform="matrix(10.4,0,0,10.4,83.5,706.8)" />
<use xlink:href="#f1_w" transform="matrix(10.4,0,0,10.4,98.4,706.8)" />
<use xlink:href="#f1_j" transform="matrix(10.4,0,0,10.4,114.5,706.8)" />
<use xlink:href="#f1_n" transform="matrix(10.4,0,0,10.4,42.8,740.7)" />
<use xlink:href="#f1_s" transform="matrix(10.4,0,0,10.4,51.7,740.7)" />
<use xlink:href="#f1_h" transform="matrix(10.4,0,0,10.4,60.9,740.7)" />
<use xlink:href="#f1_18" transform="matrix(10.4,0,0,10.4,83.5,740.7)" />
<use xlink:href="#f1_29" transform="matrix(10.4,0,0,10.4,88,740.7)" />
<use xlink:href="#f1_1y" transform="matrix(10.4,0,0,10.4,96.9,740.7)" />
<use xlink:href="#f1_2d" transform="matrix(10.4,0,0,10.4,104.8,740.7)" />
<use xlink:href="#f1_20" transform="matrix(10.4,0,0,10.4,110.1,740.7)" />
<use xlink:href="#f1_1w" transform="matrix(10.4,0,0,10.4,119,740.7)" />
<use xlink:href="#f1_2e" transform="matrix(10.4,0,0,10.4,127.9,740.7)" />
<use xlink:href="#f1_24" transform="matrix(10.4,0,0,10.4,135.8,740.7)" />
<use xlink:href="#f1_29" transform="matrix(10.4,0,0,10.4,139.4,740.7)" />
<use xlink:href="#f1_22" transform="matrix(10.4,0,0,10.4,148.3,740.7)" />
<use xlink:href="#f1_24" transform="matrix(10.4,0,0,10.4,164.3,740.7)" />
<use xlink:href="#f1_29" transform="matrix(10.4,0,0,10.4,167.8,740.7)" />
<use xlink:href="#f1_b" transform="matrix(10.4,0,0,10.4,184,740.7)" />
<use xlink:href="#f1_j" transform="matrix(10.4,0,0,10.4,189.3,740.7)" />
<use xlink:href="#f1_f" transform="matrix(10.4,0,0,10.4,198.2,740.7)" />
<use xlink:href="#f2_2v" transform="matrix(10.4,0,0,10.4,209.3,740.7)" />
<use xlink:href="#f1_c" transform="matrix(10.4,0,0,10.4,220.7,740.7)" />
<use xlink:href="#f1_f" transform="matrix(10.4,0,0,10.4,226,740.7)" />
<use xlink:href="#f1_1z" transform="matrix(10.4,0,0,10.4,237.8,740.7)" />
<use xlink:href="#f1_20" transform="matrix(10.4,0,0,10.4,246.6,740.7)" />
<use xlink:href="#f1_1y" transform="matrix(10.4,0,0,10.4,255.5,740.7)" />
<use xlink:href="#f1_2d" transform="matrix(10.4,0,0,10.4,263.5,740.7)" />
<use xlink:href="#f1_20" transform="matrix(10.4,0,0,10.4,268.8,740.7)" />
<use xlink:href="#f1_1w" transform="matrix(10.4,0,0,10.4,277.7,740.7)" />
<use xlink:href="#f1_2e" transform="matrix(10.4,0,0,10.4,286.5,740.7)" />
<use xlink:href="#f1_24" transform="matrix(10.4,0,0,10.4,294.5,740.7)" />
<use xlink:href="#f1_29" transform="matrix(10.4,0,0,10.4,298,740.7)" />
<use xlink:href="#f1_22" transform="matrix(10.4,0,0,10.4,306.9,740.7)" />
<use xlink:href="#f1_24" transform="matrix(10.4,0,0,10.4,322.9,740.7)" />
<use xlink:href="#f1_29" transform="matrix(10.4,0,0,10.4,326.5,740.7)" />
<use xlink:href="#f1_b" transform="matrix(10.4,0,0,10.4,342.7,740.7)" />
<use xlink:href="#f1_99" transform="matrix(10.4,0,0,10.4,348,740.7)" />
<use xlink:href="#f1_k" transform="matrix(10.4,0,0,10.4,356.9,740.7)" />
<use xlink:href="#f1_f" transform="matrix(10.4,0,0,10.4,365.7,740.7)" />
<use xlink:href="#f1_j" transform="matrix(10.4,0,0,10.4,377.5,740.7)" />
<use xlink:href="#f1_c" transform="matrix(10.4,0,0,10.4,386.4,740.7)" />
<use xlink:href="#f1_h" transform="matrix(10.4,0,0,10.4,391.7,740.7)" />
<use xlink:href="#f1_o" transform="matrix(10.4,0,0,10.4,42.8,774.6)" />
<use xlink:href="#f1_j" transform="matrix(10.4,0,0,10.4,51.7,774.6)" />
<use xlink:href="#f1_h" transform="matrix(10.4,0,0,10.4,60.9,774.6)" />
<use xlink:href="#f1_18" transform="matrix(10.4,0,0,10.4,83.5,774.6)" />
<use xlink:href="#f1_29" transform="matrix(10.4,0,0,10.4,88,774.6)" />
<use xlink:href="#f1_1y" transform="matrix(10.4,0,0,10.4,96.9,774.6)" />
<use xlink:href="#f1_2d" transform="matrix(10.4,0,0,10.4,104.8,774.6)" />
<use xlink:href="#f1_20" transform="matrix(10.4,0,0,10.4,110.1,774.6)" />
<use xlink:href="#f1_1w" transform="matrix(10.4,0,0,10.4,119,774.6)" />
<use xlink:href="#f1_2e" transform="matrix(10.4,0,0,10.4,127.9,774.6)" />
<use xlink:href="#f1_24" transform="matrix(10.4,0,0,10.4,135.8,774.6)" />
<use xlink:href="#f1_29" transform="matrix(10.4,0,0,10.4,139.4,774.6)" />
<use xlink:href="#f1_22" transform="matrix(10.4,0,0,10.4,148.3,774.6)" />
<use xlink:href="#f1_24" transform="matrix(10.4,0,0,10.4,164.1,774.6)" />
<use xlink:href="#f1_29" transform="matrix(10.4,0,0,10.4,167.6,774.6)" />
<use xlink:href="#f1_b" transform="matrix(10.4,0,0,10.4,183.7,774.6)" />
<use xlink:href="#f1_99" transform="matrix(10.4,0,0,10.4,189,774.6)" />
<use xlink:href="#f2_2v" transform="matrix(10.4,0,0,10.4,204.4,774.6)" />
<use xlink:href="#f1_f" transform="matrix(10.4,0,0,10.4,215.7,774.6)" />
<use xlink:href="#f1_l" transform="matrix(10.4,0,0,10.4,227.1,774.6)" />
<use xlink:href="#f1_c" transform="matrix(10.4,0,0,10.4,236,774.6)" />
<use xlink:href="#f2_3u" transform="matrix(10.4,0,0,10.4,248.2,774.6)" />
<use xlink:href="#f1_b" transform="matrix(10.4,0,0,10.4,267.4,774.6)" />
<use xlink:href="#f1_p" transform="matrix(10.4,0,0,10.4,272.7,774.6)" />
<use xlink:href="#f1_f" transform="matrix(10.4,0,0,10.4,281.6,774.6)" />
<use xlink:href="#f2_2v" transform="matrix(10.4,0,0,10.4,293.1,774.6)" />
<use xlink:href="#f1_c" transform="matrix(10.4,0,0,10.4,304.5,774.6)" />
<use xlink:href="#f1_f" transform="matrix(10.4,0,0,10.4,309.8,774.6)" />
<use xlink:href="#f1_13" transform="matrix(10.4,0,0,10.4,321.2,774.6)" />
<use xlink:href="#f1_20" transform="matrix(10.4,0,0,10.4,332.7,774.6)" />
<use xlink:href="#f1_1y" transform="matrix(10.4,0,0,10.4,341.6,774.6)" />
<use xlink:href="#f1_2d" transform="matrix(10.4,0,0,10.4,349.5,774.6)" />
<use xlink:href="#f1_20" transform="matrix(10.4,0,0,10.4,354.9,774.6)" />
<use xlink:href="#f1_1w" transform="matrix(10.4,0,0,10.4,363.7,774.6)" />
<use xlink:href="#f1_2e" transform="matrix(10.4,0,0,10.4,372.6,774.6)" />
<use xlink:href="#f1_24" transform="matrix(10.4,0,0,10.4,380.6,774.6)" />
<use xlink:href="#f1_29" transform="matrix(10.4,0,0,10.4,384.1,774.6)" />
<use xlink:href="#f1_22" transform="matrix(10.4,0,0,10.4,393,774.6)" />
<use xlink:href="#f1_24" transform="matrix(10.4,0,0,10.4,409,774.6)" />
<use xlink:href="#f1_29" transform="matrix(10.4,0,0,10.4,412.5,774.6)" />
<use xlink:href="#f1_b" transform="matrix(10.4,0,0,10.4,428.4,774.6)" />
<use xlink:href="#f1_l" transform="matrix(10.4,0,0,10.4,433.7,774.6)" />
<use xlink:href="#f1_f" transform="matrix(10.4,0,0,10.4,442.6,774.6)" />
<use xlink:href="#f1_p" transform="matrix(10.4,0,0,10.4,454.1,774.6)" />
<use xlink:href="#f1_c" transform="matrix(10.4,0,0,10.4,463,774.6)" />
<use xlink:href="#f1_h" transform="matrix(10.4,0,0,10.4,468.3,774.6)" />
<use xlink:href="#f4_l" transform="matrix(12,0,0,12,630,964)" />
<use xlink:href="#f4_k" transform="matrix(12,0,0,12,640.2,964)" />
</g>
<g fill="#0080FF" fill-opacity="0.5" >
<use xlink:href="#f0_1c" transform="matrix(36.4,0,0,36.4,174.4,1053.6)" />
<use xlink:href="#f0_21" transform="matrix(36.4,0,0,36.4,205.3,1053.6)" />
<use xlink:href="#f0_1x" transform="matrix(36.4,0,0,36.4,236.2,1053.6)" />
<use xlink:href="#f0_2e" transform="matrix(36.4,0,0,36.4,267.1,1053.6)" />
<use xlink:href="#f0_2a" transform="matrix(36.4,0,0,36.4,285.6,1053.6)" />
<use xlink:href="#f0_17" transform="matrix(36.4,0,0,36.4,316.5,1053.6)" />
<use xlink:href="#f0_2h" transform="matrix(36.4,0,0,36.4,359.8,1053.6)" />
<use xlink:href="#f0_25" transform="matrix(36.4,0,0,36.4,390.7,1053.6)" />
<use xlink:href="#f0_20" transform="matrix(36.4,0,0,36.4,403,1053.6)" />
<use xlink:href="#f0_21" transform="matrix(36.4,0,0,36.4,433.9,1053.6)" />
<use xlink:href="#f0_i" transform="matrix(36.4,0,0,36.4,464.8,1053.6)" />
<use xlink:href="#f0_25" transform="matrix(36.4,0,0,36.4,480.2,1053.6)" />
<use xlink:href="#f0_2a" transform="matrix(36.4,0,0,36.4,492.6,1053.6)" />
</g>
<defs>
<path d="M593,101c0,0,182,0,279,112c0,0,98,113,98,318c0,0,0,196,-98,308c0,0,-98,112,-277,112c0,0,-181,0,-279,-110c0,0,-99,-111,-99,-310c0,0,0,-198,100,-314c0,0,99,-116,276,-116Zm0,-115c0,0,-162,0,-279,65c0,0,-118,66,-180,190c0,0,-62,124,-62,290c0,0,0,252,138,394c0,0,138,142,385,142c0,0,160,0,278,-64c0,0,118,-64,180,-185c0,0,62,-122,62,-287c0,0,0,-165,-63,-289c0,0,-63,-124,-181,-190c0,0,-118,-66,-278,-66Z" 
id="f0_1f"
transform="scale(0.001,-0.001)" />

<path d="M106,0V635c0,0,0,141,-5,173H228c0,0,1,-4,2,-21c0,0,1,-16,2,-37c0,0,1,-22,2,-81h2c0,0,47,84,108,119c0,0,60,34,151,34c0,0,132,0,194,-66c0,0,61,-66,61,-218V0H615V512c0,0,0,80,-15,124c0,0,-16,44,-50,63c0,0,-35,20,-101,20c0,0,-97,0,-153,-67c0,0,-56,-66,-56,-184V0Z" 
id="f0_2a"
transform="scale(0.001,-0.001)" />

<path d="M103,0V1107H237V0Z" 
id="f0_28"
transform="scale(0.001,-0.001)" />

<path d="M102,0V808H236V0Zm0,979v128H236V979Z" 
id="f0_25"
transform="scale(0.001,-0.001)" />

<path d="M643,478c0,0,-11,128,-65,187c0,0,-54,59,-154,59c0,0,-98,0,-155,-66c0,0,-57,-65,-62,-180ZM431,-14c0,0,-179,0,-272,106c0,0,-94,107,-94,317c0,0,0,200,94,307c0,0,93,106,267,106c0,0,356,0,356,-429V375H206c0,0,0,-138,57,-213c0,0,58,-75,168,-75c0,0,87,0,140,35c0,0,53,35,71,88L760,177c0,0,-72,-191,-329,-191Z" 
id="f0_21"
transform="scale(0.001,-0.001)" />

<path d="M17,0L304,415L31,808H179L380,493L580,808H730L457,417L747,0H598L380,331L162,0Z" 
id="f0_2k"
transform="scale(0.001,-0.001)" />

<path d="M339,87c0,0,74,0,132,34c0,0,57,33,90,91c0,0,34,59,34,121v66L448,396c0,0,-95,-2,-144,-19c0,0,-49,-18,-75,-55c0,0,-26,-38,-26,-98c0,0,0,-65,35,-101c0,0,36,-36,101,-36ZM309,-14c0,0,-122,0,-183,64c0,0,-61,64,-61,176c0,0,0,125,82,192c0,0,83,67,266,72l182,3v44c0,0,0,98,-42,141c0,0,-42,43,-132,43c0,0,-90,0,-131,-31c0,0,-41,-31,-49,-98L101,604c0,0,34,218,323,218c0,0,153,0,229,-70c0,0,77,-69,77,-202V202c0,0,0,-59,16,-90c0,0,16,-30,60,-30c0,0,19,0,44,5V4C850,4,799,-7,746,-7c0,0,-75,0,-109,38c0,0,-33,40,-38,124h-4C595,155,543,62,475,24c0,0,-68,-38,-166,-38Z" 
id="f0_1x"
transform="scale(0.001,-0.001)" />

<path d="M106,0V635c0,0,0,141,-5,173H228c0,0,1,-4,2,-21c0,0,1,-16,2,-37c0,0,1,-22,2,-81h2c0,0,44,86,100,120c0,0,56,33,136,33c0,0,92,0,145,-36c0,0,54,-37,75,-117h2c0,0,42,82,101,117c0,0,59,36,143,36c0,0,123,0,178,-66c0,0,56,-67,56,-218V0H1039V512c0,0,0,117,-32,162c0,0,-32,45,-116,45c0,0,-88,0,-136,-66c0,0,-49,-65,-49,-185V0H573V512c0,0,0,117,-32,162c0,0,-32,45,-116,45c0,0,-86,0,-136,-66c0,0,-50,-66,-50,-185V0Z" 
id="f0_29"
transform="scale(0.001,-0.001)" />

<path d="M453,84c0,0,100,0,146,74c0,0,46,73,46,247c0,0,0,169,-46,241c0,0,-45,73,-145,73c0,0,-80,0,-125,-34c0,0,-45,-34,-68,-105c0,0,-24,-71,-24,-186c0,0,0,-159,51,-234c0,0,51,-76,165,-76ZM103,-316V643c0,0,0,124,-5,165H228c0,0,1,-3,3,-22c0,0,1,-18,3,-56c0,0,2,-38,2,-52h3c0,0,36,75,94,110c0,0,59,34,156,34c0,0,149,0,223,-100c0,0,74,-100,74,-314c0,0,0,-422,-297,-422c0,0,-187,0,-251,140h-4c0,0,3,-6,3,-126V-316Z" 
id="f0_2c"
transform="scale(0.001,-0.001)" />

<path d="M420,84c0,0,121,0,173,78c0,0,52,77,52,243c0,0,0,167,-50,243c0,0,-50,76,-167,76c0,0,-118,0,-170,-78c0,0,-53,-77,-53,-241c0,0,0,-160,52,-241c0,0,52,-80,163,-80Zm1,-98c0,0,-176,0,-267,107c0,0,-90,108,-90,312c0,0,0,417,362,417c0,0,185,0,272,-102c0,0,88,-101,88,-315c0,0,0,-212,-94,-316C692,89,599,-14,421,-14Z" 
id="f0_2b"
transform="scale(0.001,-0.001)" />

<path d="M278,-11c0,0,-162,0,-162,182V710H23v98h99l39,181h90V808H400V710H251V200c0,0,0,-58,19,-82c0,0,19,-23,66,-23c0,0,27,0,77,10V6c0,0,-66,-17,-135,-17Z" 
id="f0_2g"
transform="scale(0.001,-0.001)" />

<path d="M39,0V0c0,0,0,170,84,277c0,0,85,108,317,236c0,0,113,62,154,115c0,0,41,52,41,134c0,0,0,86,-62,141c0,0,-61,54,-156,54c0,0,-101,0,-158,-68c0,0,-57,-68,-60,-194H67c0,0,-2,178,95,279c0,0,98,101,273,101c0,0,149,0,245,-89c0,0,94,-88,94,-228c0,0,0,-118,-60,-195c0,0,-61,-76,-229,-169C485,394,303,294,237,212c0,0,-28,-36,-46,-81H774V0Z" 
id="f1_l"
transform="scale(0.001,-0.001)" />

<path d="M133,0V162H292V0Z" 
id="f1_h"
transform="scale(0.001,-0.001)" />

<path d="M365,-315c0,0,-136,187,-199,359c0,0,-62,172,-62,359c0,0,0,186,62,358c0,0,63,172,199,360h92c0,0,-110,-192,-160,-365c0,0,-51,-172,-51,-353c0,0,0,-183,51,-355c0,0,50,-172,160,-363Z" 
id="f1_b"
transform="scale(0.001,-0.001)" />

<path d="M424,92c0,0,114,0,170,107c0,0,57,108,56,323c0,0,1,216,-56,324c0,0,-56,107,-170,107c0,0,-112,0,-168,-107c0,0,-56,-108,-57,-324c0,0,1,-215,57,-323c0,0,56,-107,168,-107Zm0,-120c0,0,-176,0,-271,142c0,0,-96,143,-96,408c0,0,0,265,96,409c0,0,95,144,271,144c0,0,178,0,273,-144c0,0,96,-144,96,-409c0,0,0,-265,-96,-408c0,0,-95,-142,-273,-142Z" 
id="f1_j"
transform="scale(0.001,-0.001)" />

<path d="M133,-224v71c0,0,47,8,65,52c0,0,14,33,17,101H133V163H292V27c0,0,0,-114,-36,-172c0,0,-37,-58,-123,-79Z" 
id="f1_f"
transform="scale(0.001,-0.001)" />

<path d="M52,-315c0,0,109,192,160,363c0,0,50,173,50,354c0,0,0,183,-50,355c0,0,-51,173,-160,364h92c0,0,135,-188,198,-360c0,0,63,-172,63,-359c0,0,0,-187,-63,-359c0,0,-63,-171,-198,-358Z" 
id="f1_c"
transform="scale(0.001,-0.001)" />

<path d="M511,373V863L169,383l-7,-10ZM511,0V258H38V383l496,691H646V373H799V258H646V0Z" 
id="f1_n"
transform="scale(0.001,-0.001)" />

<path d="M424,-28c0,0,-180,0,-272,86c0,0,-92,87,-100,266H192c0,0,12,-126,66,-180c0,0,55,-54,170,-54c0,0,100,0,163,57c0,0,64,57,64,147c0,0,0,94,-61,149c0,0,-52,48,-135,54c0,0,-38,2,-72,2c0,0,-34,0,-45,-3V613c0,0,17,-3,51,-3c0,0,35,0,68,4c0,0,66,8,106,43c0,0,55,45,55,125c0,0,0,77,-58,125c0,0,-58,48,-148,48c0,0,-96,0,-147,-58c0,0,-51,-59,-56,-175H82c0,0,0,168,89,260c0,0,88,93,250,93c0,0,153,0,247,-77c0,0,94,-76,94,-202c0,0,0,-124,-95,-201c0,0,-18,-15,-39,-27c0,0,39,-17,69,-41c0,0,101,-79,101,-214c0,0,0,-151,-105,-246c0,0,-104,-95,-269,-95Z" 
id="f1_m"
transform="scale(0.001,-0.001)" />

<path d="M406,0V763H155V870h2c16,0,114,2,178,48c0,0,70,51,104,157H549V0Z" 
id="f1_k"
transform="scale(0.001,-0.001)" />

<path d="M0,368V478H849V368Z" 
id="f1_99"
transform="scale(0.001,-0.001)" />

<path d="M417,-28c0,0,-161,0,-259,79c0,0,-98,81,-109,223H189c0,0,11,-90,72,-139c0,0,61,-49,162,-49c0,0,96,0,158,68c0,0,61,68,61,175c0,0,0,112,-64,178c0,0,-64,66,-173,66c0,0,-59,0,-115,-28c0,0,-55,-29,-84,-73L93,480l77,573H727V922H271L225,629l4,3c0,0,89,60,188,60c0,0,169,0,269,-94c0,0,99,-93,99,-253c0,0,0,-165,-103,-269C682,76,579,-28,417,-28Z" 
id="f1_o"
transform="scale(0.001,-0.001)" />

<path d="M432,92c0,0,96,0,156,66c0,0,61,65,61,169c0,0,0,103,-61,169c0,0,-60,66,-156,66c0,0,-95,0,-156,-66c0,0,-61,-66,-61,-169c0,0,0,-104,61,-169c0,0,61,-66,156,-66ZM425,-28c0,0,-176,0,-271,135c0,0,-95,136,-95,388c0,0,0,278,103,429c0,0,103,151,293,151c0,0,142,0,226,-77c0,0,84,-76,90,-211H638c0,0,-8,80,-56,123c0,0,-47,43,-127,43c0,0,-125,0,-192,-119c0,0,-58,-102,-64,-278c0,0,100,127,255,127c0,0,152,0,245,-98c0,0,93,-98,93,-258c0,0,0,-161,-101,-259c0,0,-101,-96,-266,-96Z" 
id="f1_p"
transform="scale(0.001,-0.001)" />

<path d="M140,-21c0,0,-26,0,-44,17C96,-4,79,13,79,40c0,0,0,19,6,33c0,0,8,20,34,55c0,0,46,60,64,126c0,0,32,114,41,321H190c0,0,-55,0,-81,-18c0,0,-44,-26,-80,-89H0c0,0,42,129,98,178c0,0,43,37,120,37H743V575H562c0,0,-27,-171,-27,-327c0,0,0,-77,27,-110c0,0,27,-33,67,-33c0,0,33,0,56,22c0,0,24,22,31,65h27C743,192,730,74,686,26c0,0,-44,-47,-98,-47c0,0,-58,0,-97,51c0,0,-39,53,-39,198c0,0,0,91,28,347H286c0,0,-23,-390,-56,-494c0,0,-33,-102,-90,-102Z" 
id="f2_2c"
transform="scale(0.001,-0.001)" />

<path d="M118,0V799H246V662c0,0,17,32,36,58c0,0,76,102,187,102c0,0,19,0,38,-6V679l-27,1c0,0,-109,0,-168,-66c0,0,-60,-65,-60,-186V0Z" 
id="f1_2d"
transform="scale(0.001,-0.001)" />

<path d="M394,-20c0,0,-159,0,-253,113c0,0,-95,114,-95,307c0,0,0,193,98,308c0,0,98,114,264,114c0,0,144,0,230,-78c0,0,85,-79,91,-217H600c0,0,-8,86,-59,133c0,0,-52,47,-138,47c0,0,-101,0,-159,-82c0,0,-58,-82,-58,-225c0,0,0,-152,54,-229c0,0,53,-77,159,-77c0,0,79,0,132,50c0,0,52,51,69,143H729C729,287,709,137,623,58c0,0,-86,-78,-229,-78Z" 
id="f1_1y"
transform="scale(0.001,-0.001)" />

<path d="M99,0V799H226V680l28,36c0,0,90,106,215,106c0,0,107,0,171,-63c0,0,28,-28,44,-65l21,28c0,0,87,100,208,100c0,0,125,0,194,-68c0,0,68,-68,68,-194V0H1041V515c0,0,0,91,-37,138c0,0,-38,47,-110,47c0,0,-87,0,-139,-68c0,0,-52,-68,-52,-183V0H569V547c0,0,0,75,-34,114c0,0,-34,39,-99,39c0,0,-89,0,-146,-76c0,0,-57,-76,-57,-196V0Z" 
id="f1_28"
transform="scale(0.001,-0.001)" />

<path d="M-24,-29L348,1125H450L77,-29Z" 
id="f1_i"
transform="scale(0.001,-0.001)" />

<path d="M212,0c0,0,51,270,162,500c0,0,109,222,281,422H57v131H799V934C799,934,623,726,515,498C515,498,408,269,362,0Z" 
id="f1_q"
transform="scale(0.001,-0.001)" />

<path d="M424,92c0,0,98,0,161,58c0,0,62,58,62,149c0,0,0,92,-62,151c0,0,-63,58,-161,58c0,0,-98,0,-160,-58c0,0,-63,-59,-63,-151c0,0,0,-91,63,-149c0,0,62,-58,160,-58Zm0,533c0,0,82,0,134,46c0,0,52,45,52,118c0,0,0,72,-52,118c0,0,-52,46,-134,46c0,0,-82,0,-134,-46c0,0,-52,-46,-52,-118c0,0,0,-73,52,-119c0,0,52,-45,134,-45Zm0,-653c0,0,-165,0,-265,90C159,62,59,154,59,305c0,0,0,134,100,216c0,0,35,28,78,47c0,0,-27,15,-52,33c0,0,-90,70,-90,185c0,0,0,130,90,209c0,0,91,80,239,80c0,0,148,0,238,-80c0,0,91,-79,91,-209c0,0,0,-115,-91,-185c0,0,-24,-19,-52,-32c0,0,44,-20,79,-49c0,0,101,-81,101,-215c0,0,0,-151,-101,-243c0,0,-100,-90,-265,-90Z" 
id="f1_r"
transform="scale(0.001,-0.001)" />

<path d="M354,90c0,0,107,0,192,57c0,0,60,41,87,95c0,0,5,12,11,33c0,0,6,20,11,44l18,88c0,0,-62,-26,-132,-37L414,352c0,0,-84,-11,-131,-56c0,0,-47,-45,-47,-113c0,0,0,-44,31,-69c0,0,31,-24,87,-24ZM306,-20c0,0,-99,0,-156,47c0,0,-57,49,-57,134c0,0,1,117,81,198c0,0,80,81,211,98l164,20l70,10c0,0,35,6,59,30c0,0,23,24,31,66l1,2c0,0,13,64,-25,94c0,0,-39,31,-132,31c0,0,-83,0,-137,-37c0,0,-54,-37,-84,-114H210c0,0,46,137,138,201c0,0,92,63,245,63c0,0,149,0,211,-59c0,0,45,-44,44,-116c0,0,1,-30,-6,-63L749,136c0,0,-4,-19,6,-32c0,0,10,-12,30,-12c0,0,6,0,19,1c0,0,12,2,25,5L809,1c0,0,-19,-6,-43,-11c0,0,-22,-5,-36,-5c0,0,-73,0,-100,43c0,0,-16,27,-17,75C612,102,594,85,573,69c0,0,-120,-89,-267,-89Z" 
id="f3_1w"
transform="scale(0.001,-0.001)" />

<path d="M456,95c0,0,130,0,213,121c0,0,82,120,82,310c0,0,0,85,-44,131c0,0,-44,46,-125,46c0,0,-98,0,-174,-90c0,0,-76,-90,-108,-245c0,0,-26,-126,16,-199c0,0,42,-74,140,-74ZM436,-20c0,0,-132,0,-195,108l-5,7L217,0H89L316,1097H450L365,683l10,11c0,0,120,129,262,129c0,0,121,0,190,-77c0,0,69,-77,69,-211c0,0,0,-234,-134,-395C762,140,629,-20,436,-20Z" 
id="f3_1x"
transform="scale(0.001,-0.001)" />

<path d="M0,356v74H784V356Z" 
id="f2_h"
transform="scale(0.001,-0.001)" />

<path d="M419,483c0,0,93,0,152,66c0,0,59,66,59,169c0,0,0,103,-59,169c0,0,-59,65,-152,65c0,0,-94,0,-153,-65c0,0,-59,-66,-59,-169c0,0,0,-103,59,-169c0,0,59,-66,153,-66ZM397,-28c0,0,-143,0,-227,75c0,0,-85,77,-91,211H209c0,0,8,-83,57,-128c0,0,49,-45,131,-45c0,0,121,0,186,135c0,0,48,101,62,265C645,485,545,362,397,362c0,0,-150,0,-241,98c0,0,-91,98,-91,258c0,0,0,160,99,258c0,0,99,98,262,98c0,0,173,0,266,-123c0,0,94,-123,94,-349c0,0,0,-303,-101,-467C685,135,583,-28,397,-28Z" 
id="f1_s"
transform="scale(0.001,-0.001)" />

<path d="M650,601c0,0,103,0,151,46c0,0,48,45,48,143c0,0,0,95,-51,139c0,0,-50,44,-159,44H283V601ZM134,0V1097H644c0,0,175,0,266,-76c0,0,91,-75,91,-222c0,0,0,-144,-94,-225c0,0,-24,-20,-52,-36l25,-12c0,0,100,-57,103,-193l6,-200c0,0,2,-50,13,-71c0,0,11,-22,43,-38V1H862c0,0,-5,13,-11,70c0,0,-6,57,-9,126l-3,87c0,0,-3,102,-50,146c0,0,-47,43,-154,43H283V0Z" 
id="f1_1h"
transform="scale(0.001,-0.001)" />

<path d="M393,-20c0,0,-169,0,-252,65c0,0,-83,67,-92,210H178c0,0,10,-85,61,-123c0,0,50,-38,154,-38c0,0,90,0,136,34c0,0,47,35,47,100c0,0,0,42,-31,64c0,0,-30,21,-123,43L283,368c0,0,-112,27,-160,75c0,0,-48,48,-48,135c0,0,0,112,80,178c0,0,81,66,218,66c0,0,140,0,222,-68c0,0,82,-67,88,-187H557c0,0,-6,67,-55,103c0,0,-48,37,-129,37c0,0,-84,0,-127,-29c0,0,-44,-29,-44,-85c0,0,0,-43,31,-65c0,0,30,-21,121,-43L493,452c0,0,117,-28,167,-78c0,0,49,-49,49,-138c0,0,0,-119,-86,-188c0,0,-85,-68,-230,-68Z" 
id="f1_2e"
transform="scale(0.001,-0.001)" />

<path d="M73,12V133L664,384L73,636V757L819,440V329L73,12Z" 
id="f1_x"
transform="scale(0.001,-0.001)" />

<path d="M412,-328c0,0,-195,96,-303,284C109,-44,0,142,0,365c0,0,0,232,114,422c0,0,114,191,298,273v-31c0,0,-92,-51,-151,-139c0,0,-59,-88,-88,-223c0,0,-29,-136,-29,-282c0,0,0,-167,27,-301c0,0,26,-133,82,-221c0,0,55,-89,159,-159v-32Z" 
id="f2_c"
transform="scale(0.001,-0.001)" />

<path d="M34,-328v32c0,0,92,50,151,138c0,0,59,88,88,222c0,0,29,135,29,283c0,0,0,165,-27,300c0,0,-26,134,-82,222c0,0,-56,89,-159,160v31c0,0,194,-96,303,-284c0,0,108,-187,108,-410c0,0,0,-232,-114,-422c0,0,-114,-191,-297,-272Z" 
id="f2_d"
transform="scale(0.001,-0.001)" />

<path d="M335,90c0,0,106,0,179,57c0,0,50,41,67,91c0,0,3,10,4,31c0,0,3,21,3,47v87c0,0,-38,-18,-83,-25L381,360c0,0,-97,-13,-142,-45c0,0,-44,-31,-44,-86c0,0,0,-67,36,-103c0,0,37,-36,104,-36ZM309,-20c0,0,-117,0,-186,61c0,0,-68,63,-68,169c0,0,0,108,64,171c0,0,65,64,189,79l183,23c0,0,22,3,42,8c0,0,26,7,40,27c0,0,15,20,15,51v6c0,0,0,64,-49,101c0,0,-48,36,-135,36c0,0,-83,0,-130,-38c0,0,-46,-39,-56,-115H94c0,0,10,131,92,197c0,0,83,66,238,66c0,0,145,0,222,-63c0,0,76,-63,76,-184V137c0,0,0,-21,12,-33c0,0,12,-12,33,-12c0,0,6,0,18,1c0,0,11,2,25,5V1c0,0,-20,-7,-41,-11c0,0,-22,-5,-37,-5c0,0,-76,0,-110,41c0,0,-22,28,-32,79c0,0,-15,-19,-34,-36c0,0,-101,-89,-247,-89Z" 
id="f1_1w"
transform="scale(0.001,-0.001)" />

<path d="M99,0V799H226V681l30,39c0,0,87,102,219,102c0,0,132,0,203,-71c0,0,72,-72,72,-204V0H616V502c0,0,0,105,-41,151c0,0,-40,47,-132,47c0,0,-97,0,-154,-73c0,0,-56,-74,-56,-199V0Z" 
id="f1_29"
transform="scale(0.001,-0.001)" />

<path d="M411,93c0,0,98,0,158,73c0,0,60,74,60,195c0,0,0,163,-57,252c0,0,-56,88,-161,88c0,0,-113,0,-165,-72c0,0,-52,-72,-52,-229c0,0,0,-147,56,-227c0,0,56,-80,161,-80ZM404,-20c0,0,-161,0,-255,118c0,0,-95,120,-95,324c0,0,0,179,92,290c0,0,91,110,239,110c0,0,147,0,233,-124l11,-15v414H763V0H638V109L621,84C621,84,538,-20,404,-20Z" 
id="f1_1z"
transform="scale(0.001,-0.001)" />

<path d="M62,-123V268c0,0,0,230,56,452c0,0,47,190,134,334c0,0,87,144,204,242c0,0,85,73,194,119l18,-16c0,0,-211,-145,-335,-339c0,0,-98,-156,-149,-374c0,0,-50,-218,-50,-403V-123Z" 
id="f2_4o"
transform="scale(0.001,-0.001)" />

<path d="M617,-123V283c0,0,0,236,-63,459c0,0,-63,223,-188,392c0,0,-108,146,-282,265l17,16c0,0,180,-76,320,-248c0,0,139,-172,204,-417c0,0,64,-245,64,-482V-123Z" 
id="f2_54"
transform="scale(0.001,-0.001)" />

<path d="M62,-123V1415h72V-123Z" 
id="f2_4p"
transform="scale(0.001,-0.001)" />

<path d="M617,-123V1415h72V-123Z" 
id="f2_55"
transform="scale(0.001,-0.001)" />

<path d="M650,-123c0,0,-180,75,-319,246c0,0,-140,172,-205,418c0,0,-64,245,-64,481v393h72V1007c0,0,0,-236,63,-459c0,0,63,-223,189,-391c0,0,108,-145,282,-265l-18,-15Z" 
id="f2_4q"
transform="scale(0.001,-0.001)" />

<path d="M101,-123l-17,15c0,0,210,144,334,339c0,0,99,156,149,373c0,0,50,218,50,403v408h72V1022c0,0,0,-230,-56,-451c0,0,-48,-191,-134,-335C499,236,412,92,295,-5c0,0,-84,-73,-194,-118Z" 
id="f2_56"
transform="scale(0.001,-0.001)" />

<path d="M649,461c0,0,-6,111,-55,172c0,0,-55,69,-160,69c0,0,-106,0,-170,-79c0,0,-50,-62,-60,-162ZM425,-20c0,0,-169,0,-266,106c0,0,-97,107,-97,297c0,0,0,201,102,320c0,0,103,119,276,119c0,0,157,0,253,-116c0,0,96,-117,96,-306l-1,-48H204c0,0,8,-119,54,-182c0,0,57,-76,180,-76c0,0,77,0,134,43c0,0,58,43,70,110H775C775,247,746,116,656,47c0,0,-90,-67,-231,-67Z" 
id="f1_20"
transform="scale(0.001,-0.001)" />

<path d="M103,0V1097H237V465L574,799H745L441,503L765,0H590L342,406L237,303V0Z" 
id="f1_26"
transform="scale(0.001,-0.001)" />

<path d="M99,0V1097H233V690l23,30c0,0,87,102,219,102c0,0,132,0,203,-71c0,0,72,-72,72,-204V0H616V514c0,0,0,99,-38,142c0,0,-38,44,-124,44c0,0,-102,0,-162,-73c0,0,-59,-74,-59,-199V0Z" 
id="f1_23"
transform="scale(0.001,-0.001)" />

<path d="M104,0V799H238V0Zm-2,946v152H239V946Z" 
id="f1_24"
transform="scale(0.001,-0.001)" />

<path d="M436,95c0,0,105,0,160,79c0,0,54,80,54,232c0,0,0,150,-52,222c0,0,-52,72,-161,72c0,0,-112,0,-163,-81c0,0,-51,-82,-51,-258c0,0,0,-127,55,-197c0,0,55,-69,158,-69Zm6,-115c0,0,-135,0,-215,102L215,98V0H89V1097H223V695c0,0,87,127,225,127c1,0,2,0,2,0c0,0,157,0,249,-108c0,0,91,-107,91,-291c0,0,0,-208,-92,-326C698,97,606,-20,442,-20Z" 
id="f1_1x"
transform="scale(0.001,-0.001)" />

<path d="M99,-328c0,0,-46,0,-76,13l25,123c0,0,29,-14,81,-14c0,0,47,0,76,31c0,0,28,31,106,162L185,800H339L415,141L769,800H918L456,0C456,0,329,-216,269,-272c0,0,-61,-56,-170,-56Z" 
id="f3_2k"
transform="scale(0.001,-0.001)" />

<path d="M0,214v74H784V214ZM0,494v72H784V494Z" 
id="f2_x"
transform="scale(0.001,-0.001)" />

<path d="M17,0L389,412L201,800H376L500,518L742,800H904L554,410L750,0H580L448,303L187,0Z" 
id="f3_2j"
transform="scale(0.001,-0.001)" />

<path d="M390,-1V329H60V441H390V771H503V441H833V329H503V-1Z" 
id="f1_e"
transform="scale(0.001,-0.001)" />

<path d="M99,0L264,800H392L367,676l36,38c0,0,110,109,236,109c0,0,108,0,159,-63c0,0,23,-30,31,-71l36,34c0,0,113,100,221,100c0,0,123,0,176,-67c0,0,37,-45,37,-117c0,0,0,-33,-8,-73L1173,0H1038l113,546c0,0,16,76,-10,116c0,0,-26,39,-92,39c0,0,-90,0,-159,-65c0,0,-68,-65,-91,-172L704,0H569L684,560c0,0,15,72,-7,106c0,0,-23,35,-85,35c0,0,-109,0,-177,-77c0,0,-68,-77,-101,-238L234,0Z" 
id="f3_28"
transform="scale(0.001,-0.001)" />

<path d="M60,174V286H832V174Zm0,309V595H832V483Z" 
id="f1_w"
transform="scale(0.001,-0.001)" />

<path d="M77,369l25,110H950L926,369Z" 
id="f3_99"
transform="scale(0.001,-0.001)" />

<path d="M139,0V1097H287V0Z" 
id="f1_18"
transform="scale(0.001,-0.001)" />

<path d="M418,95c0,0,98,0,158,73c0,0,59,73,59,193c0,0,0,170,-54,254c0,0,-54,85,-163,85c0,0,-113,0,-165,-72c0,0,-52,-71,-52,-227c0,0,0,-147,57,-227c0,0,56,-79,160,-79ZM394,-336c0,0,-136,0,-216,62c0,0,-79,63,-96,182H219c0,0,12,-64,57,-98c0,0,45,-35,116,-35c0,0,116,0,176,73c0,0,61,73,61,211V85l-1,-1C628,84,545,-20,412,-20c0,0,-161,0,-256,118c0,0,-94,120,-94,324c0,0,0,179,93,290c0,0,93,110,244,110c0,0,144,0,228,-124l10,-14V799H763V59c0,0,-1,-201,-91,-298c0,0,-91,-97,-278,-97Z" 
id="f1_22"
transform="scale(0.001,-0.001)" />

<path d="M213,177c0,0,71,0,125,63c0,0,35,42,88,200c0,0,-37,82,-84,121c0,0,-47,38,-115,38c0,0,-79,0,-133,-55C94,544,41,488,41,395c0,0,0,-99,53,-159c0,0,52,-59,119,-59ZM752,150c0,0,92,0,153,66c0,0,62,66,62,177c0,0,0,109,-65,181c0,0,-65,71,-145,71c0,0,-52,0,-90,-26c0,0,-39,-26,-70,-83c0,0,-18,-34,-78,-190c0,0,56,-117,111,-156c0,0,54,-40,122,-40ZM749,79c0,0,-74,0,-137,54c0,0,-42,36,-114,159c0,0,-48,-92,-105,-133c0,0,-57,-41,-137,-41c0,0,-108,0,-182,77C74,195,0,272,0,394c0,0,0,123,69,198c0,0,68,76,160,76c0,0,64,0,113,-33c0,0,50,-34,106,-138c0,0,50,116,111,162c0,0,60,45,164,45c0,0,121,0,203,-87c0,0,83,-86,83,-224c0,0,0,-137,-81,-225c0,0,-80,-89,-179,-89Z" 
id="f2_2v"
transform="scale(0.001,-0.001)" />

<path d="M585,0C585,0,458,0,354,54c0,0,-105,55,-171,131c0,0,-66,75,-95,170c0,0,-30,94,-30,187V763h70V563c0,0,0,-71,17,-149c0,0,17,-77,50,-127c0,0,47,-72,111,-120c0,0,64,-49,135,-73c0,0,70,-24,145,-24c0,0,190,0,333,145c0,0,124,125,124,346V763h72V543c0,0,0,-111,-39,-208c0,0,-38,-98,-109,-171C967,164,896,91,801,46C801,46,705,0,585,0Z" 
id="f2_3u"
transform="scale(0.001,-0.001)" />

<path d="M544,127c0,0,160,0,247,110c0,0,87,109,87,311c0,0,0,202,-84,312c0,0,-83,110,-237,110H273V127ZM124,0V1097H575c0,0,209,0,332,-149c0,0,124,-149,124,-400c0,0,0,-251,-127,-399C904,149,778,0,563,0Z" 
id="f1_13"
transform="scale(0.001,-0.001)" />

<path d="M435,0V856c0,0,-48,-47,-127,-93c0,0,-79,-46,-142,-69V824c0,0,113,52,197,128c0,0,85,75,120,146h86V0Z" 
id="f4_l"
transform="scale(0.001,-0.001)" />

<path d="M420,92c0,0,92,0,155,89c0,0,64,89,64,358c0,0,0,270,-63,359c0,0,-63,89,-158,89c0,0,-92,0,-147,-79c0,0,-70,-100,-70,-369c0,0,0,-269,63,-358c0,0,63,-89,156,-89Zm0,-110c0,0,-158,0,-248,112C172,94,64,231,64,539c0,0,0,194,39,313c0,0,40,118,119,182c0,0,79,64,198,64c0,0,88,0,155,-35c0,0,66,-36,109,-103c0,0,43,-66,68,-162c0,0,24,-96,24,-259c0,0,0,-192,-39,-311C737,228,697,110,619,46c0,0,-79,-64,-199,-64Z" 
id="f4_k"
transform="scale(0.001,-0.001)" />

<path d="M125,0V1051H268V115H799V0Z" 
id="f0_1c"
transform="scale(0.001,-0.001)" />

<path d="M106,0V620c0,0,0,85,-5,188H228c0,0,6,-138,6,-165h3c0,0,32,103,74,141c0,0,42,38,118,38c0,0,27,0,54,-7V692c0,0,-26,7,-71,7c0,0,-84,0,-128,-72c0,0,-44,-72,-44,-206V0Z" 
id="f0_2e"
transform="scale(0.001,-0.001)" />

<path d="M606,-14c0,0,-164,0,-284,65c0,0,-119,66,-182,189c0,0,-63,123,-63,291c0,0,0,255,137,396c0,0,137,140,386,140c0,0,174,0,283,-59c0,0,109,-59,168,-189L915,779c0,0,-44,90,-123,131c0,0,-79,41,-196,41c0,0,-182,0,-278,-110c0,0,-96,-110,-96,-310c0,0,0,-200,102,-315c0,0,102,-115,282,-115c0,0,103,0,193,31c0,0,89,31,144,85V407H629V526h445V164c0,0,-83,-85,-205,-132c0,0,-121,-46,-263,-46Z" 
id="f0_17"
transform="scale(0.001,-0.001)" />

<path d="M355,-14c0,0,-133,0,-194,65c0,0,-62,66,-62,219V808H234V296c0,0,0,-80,16,-124c0,0,16,-44,50,-64c0,0,34,-19,101,-19c0,0,97,0,153,66c0,0,55,67,55,185V808H744V172c0,0,0,-141,4,-172H621c0,0,0,4,-1,20c0,0,-1,17,-2,38c0,0,-1,21,-3,80h-2C613,138,567,55,506,20c0,0,-61,-34,-151,-34Z" 
id="f0_2h"
transform="scale(0.001,-0.001)" />

<path d="M395,89c0,0,115,0,166,79c0,0,51,79,51,246c0,0,0,160,-51,235c0,0,-51,75,-164,75c0,0,-102,0,-147,-75c0,0,-45,-75,-45,-244c0,0,0,-170,45,-243c0,0,45,-73,145,-73ZM361,-14c0,0,-153,0,-225,102c0,0,-72,103,-72,312c0,0,0,422,297,422c0,0,92,0,153,-33c0,0,61,-34,98,-107h2l-2,90v335H747V166c0,0,0,-126,4,-166H623c0,0,-2,12,-5,55c0,0,-3,44,-3,75h-3c0,0,-37,-78,-98,-111c0,0,-62,-33,-153,-33Z" 
id="f0_20"
transform="scale(0.001,-0.001)" />

<path d="M140,0V163H285V0Z" 
id="f0_i"
transform="scale(0.001,-0.001)" />


</defs>
</svg>