<?xml version="1.0" encoding="UTF-8" standalone="no"?>
<!DOCTYPE svg PUBLIC "-//W3C//DTD SVG 1.1//EN"
"http://www.w3.org/Graphics/SVG/1.1/DTD/svg11.dtd">
<svg viewBox="0 0 696 1074" version="1.1" xmlns="http://www.w3.org/2000/svg" xmlns:xlink="http://www.w3.org/1999/xlink">
<defs>
<style type="text/css"><![CDATA[
.g0_12{
fill: none;
stroke: #000000;
stroke-width: 0.7638889;
stroke-linecap: round;
stroke-linejoin: miter;
}
]]></style>
</defs>
<g fill="#D4D4D4" fill-opacity="0.56" >
<use xlink:href="#f0_1f" transform="matrix(50.9,-50.9,50.9,50.9,84.5,924.1)" />
<use xlink:href="#f0_2a" transform="matrix(50.9,-50.9,50.9,50.9,145,863.6)" />
<use xlink:href="#f0_28" transform="matrix(50.9,-50.9,50.9,50.9,188.3,820.3)" />
<use xlink:href="#f0_25" transform="matrix(50.9,-50.9,50.9,50.9,205.5,803.1)" />
<use xlink:href="#f0_2a" transform="matrix(50.9,-50.9,50.9,50.9,222.8,785.8)" />
<use xlink:href="#f0_21" transform="matrix(50.9,-50.9,50.9,50.9,266,742.5)" />
<use xlink:href="#f0_2k" transform="matrix(50.9,-50.9,50.9,50.9,309.3,699.3)" />
<use xlink:href="#f0_1x" transform="matrix(50.9,-50.9,50.9,50.9,348.2,660.4)" />
<use xlink:href="#f0_29" transform="matrix(50.9,-50.9,50.9,50.9,391.4,617.2)" />
<use xlink:href="#f0_2c" transform="matrix(50.9,-50.9,50.9,50.9,456.2,552.4)" />
<use xlink:href="#f0_2b" transform="matrix(50.9,-50.9,50.9,50.9,499.5,509.1)" />
<use xlink:href="#f0_25" transform="matrix(50.9,-50.9,50.9,50.9,542.7,465.9)" />
<use xlink:href="#f0_2a" transform="matrix(50.9,-50.9,50.9,50.9,560,448.6)" />
<use xlink:href="#f0_2g" transform="matrix(50.9,-50.9,50.9,50.9,603.2,405.4)" />
</g>
<g fill="#000000" >
<use xlink:href="#f1_1l" transform="matrix(12,0,0,12,61.5,207.2)" />
<use xlink:href="#f1_14" transform="matrix(12,0,0,12,75.4,207.2)" />
<use xlink:href="#f1_1h" transform="matrix(12,0,0,12,86.5,207.2)" />
<use xlink:href="#f1_1o" transform="matrix(12,0,0,12,99.4,207.2)" />
<use xlink:href="#f1_1i" transform="matrix(12,0,0,12,121.8,207.2)" />
<use xlink:href="#f1_17" transform="matrix(12,0,0,12,131.6,207.2)" />
<use xlink:href="#f1_1e" transform="matrix(12,0,0,12,146.5,207.2)" />
<use xlink:href="#f1_1h" transform="matrix(12,0,0,12,163.1,207.2)" />
<use xlink:href="#f1_1j" transform="matrix(12,0,0,12,175.9,207.2)" />
<use xlink:href="#f1_10" transform="matrix(12,0,0,12,197.5,207.2)" />
<use xlink:href="#f1_1d" transform="matrix(12,0,0,12,211.7,207.2)" />
<use xlink:href="#f1_1i" transform="matrix(12,0,0,12,227.2,207.2)" />
<use xlink:href="#f1_1m" transform="matrix(12,0,0,12,237,207.2)" />
<use xlink:href="#f1_14" transform="matrix(12,0,0,12,254.9,207.2)" />
<use xlink:href="#f1_1h" transform="matrix(12,0,0,12,266.1,207.2)" />
<use xlink:href="#f1_1j" transform="matrix(12,0,0,12,289.2,207.2)" />
<use xlink:href="#f1_1o" transform="matrix(12,0,0,12,300.7,207.2)" />
<use xlink:href="#f1_1f" transform="matrix(12,0,0,12,312.9,207.2)" />
<use xlink:href="#f1_14" transform="matrix(12,0,0,12,324.7,207.2)" />
<use xlink:href="#f1_1g" transform="matrix(12,0,0,12,346.1,207.2)" />
<use xlink:href="#f1_1k" transform="matrix(12,0,0,12,362.7,207.2)" />
<use xlink:href="#f1_14" transform="matrix(12,0,0,12,377.6,207.2)" />
<use xlink:href="#f1_1i" transform="matrix(12,0,0,12,388.7,207.2)" />
<use xlink:href="#f1_1j" transform="matrix(12,0,0,12,398.5,207.2)" />
<use xlink:href="#f1_18" transform="matrix(12,0,0,12,410,207.2)" />
<use xlink:href="#f1_1e" transform="matrix(12,0,0,12,417.1,207.2)" />
<use xlink:href="#f1_1d" transform="matrix(12,0,0,12,433.7,207.2)" />
<use xlink:href="#f1_1i" transform="matrix(12,0,0,12,449.2,207.2)" />
<use xlink:href="#f1_b" transform="matrix(12,0,0,12,469.1,207.2)" />
<use xlink:href="#f1_k" transform="matrix(12,0,0,12,478.3,207.2)" />
<use xlink:href="#f1_1c" transform="matrix(12,0,0,12,502.4,207.2)" />
<use xlink:href="#f1_1w" transform="matrix(12,0,0,12,520.3,207.2)" />
<use xlink:href="#f1_2d" transform="matrix(12,0,0,12,529.5,207.2)" />
<use xlink:href="#f1_26" transform="matrix(12,0,0,12,537.2,207.2)" />
<use xlink:href="#f1_c" transform="matrix(12,0,0,12,549,207.2)" />
<use xlink:href="#f2_k" transform="matrix(10.4,0,0,10.4,43.3,269.8)" />
<use xlink:href="#f2_h" transform="matrix(10.4,0,0,10.4,52.2,269.8)" />
<use xlink:href="#f2_18" transform="matrix(10.4,0,0,10.4,75.1,269.8)" />
<use xlink:href="#f2_21" transform="matrix(10.4,0,0,10.4,79.5,269.8)" />
<use xlink:href="#f2_m" transform="matrix(10.5,0,0,10.5,126.1,256.8)" />
<use xlink:href="#f2_n" transform="matrix(10.5,0,0,10.5,163.7,256.8)" />
<use xlink:href="#f2_o" transform="matrix(10.5,0,0,10.5,218.2,256.8)" />
<use xlink:href="#f2_n" transform="matrix(10.5,0,0,10.5,241.9,256.8)" />
<use xlink:href="#f2_f" transform="matrix(10.5,0,0,10.5,258.9,268.5)" />
<use xlink:href="#f2_n" transform="matrix(10.5,0,0,10.5,126.2,280.8)" />
<use xlink:href="#f2_m" transform="matrix(10.5,0,0,10.5,218.2,280.8)" />
<use xlink:href="#f2_s" transform="matrix(10.5,0,0,10.5,241.8,280.8)" />
<use xlink:href="#f3_2j" transform="matrix(10.5,0,0,10.5,100.6,256.8)" />
<use xlink:href="#f3_2k" transform="matrix(10.5,0,0,10.5,100.7,280.8)" />
<use xlink:href="#f3_2j" transform="matrix(10.5,0,0,10.5,150.2,280.8)" />
<use xlink:href="#f3_2k" transform="matrix(10.5,0,0,10.5,176.2,280.8)" />
<use xlink:href="#f4_f" transform="matrix(10.5,0,0,10.5,113.9,256.8)" />
<use xlink:href="#f4_4r" transform="matrix(10.5,0,0,10.5,93.7,257.8)" />
<use xlink:href="#f4_57" transform="matrix(10.5,0,0,10.5,186.8,257.8)" />
<use xlink:href="#f4_4r" transform="matrix(10.5,0,0,10.5,211.6,257.8)" />
<use xlink:href="#f4_57" transform="matrix(10.5,0,0,10.5,251.3,257.8)" />
<use xlink:href="#f4_x" transform="matrix(10.5,0,0,10.5,197.7,268.5)" />
<use xlink:href="#f4_4s" transform="matrix(10.5,0,0,10.5,93.7,273.3)" />
<use xlink:href="#f4_58" transform="matrix(10.5,0,0,10.5,186.8,273.3)" />
<use xlink:href="#f4_4s" transform="matrix(10.5,0,0,10.5,211.6,273.3)" />
<use xlink:href="#f4_58" transform="matrix(10.5,0,0,10.5,251.3,273.3)" />
<use xlink:href="#f4_h" transform="matrix(10.5,0,0,10.5,114.2,280.8)" />
<use xlink:href="#f4_f" transform="matrix(10.5,0,0,10.5,163.5,280.8)" />
<use xlink:href="#f4_4t" transform="matrix(10.5,0,0,10.5,93.7,284.3)" />
<use xlink:href="#f4_59" transform="matrix(10.5,0,0,10.5,186.8,284.3)" />
<use xlink:href="#f4_4t" transform="matrix(10.5,0,0,10.5,211.6,284.3)" />
<use xlink:href="#f4_59" transform="matrix(10.5,0,0,10.5,251.3,284.3)" />
<use xlink:href="#f2_21" transform="matrix(10.4,0,0,10.4,272.9,269.7)" />
<use xlink:href="#f2_24" transform="matrix(10.4,0,0,10.4,277.3,269.7)" />
<use xlink:href="#f2_29" transform="matrix(10.4,0,0,10.4,280.9,269.7)" />
<use xlink:href="#f2_1z" transform="matrix(10.4,0,0,10.4,289.7,269.7)" />
<use xlink:href="#f3_2j" transform="matrix(10.4,0,0,10.4,305.3,269.7)" />
<use xlink:href="#f2_1w" transform="matrix(10.4,0,0,10.4,320.4,269.7)" />
<use xlink:href="#f2_29" transform="matrix(10.4,0,0,10.4,329.2,269.7)" />
<use xlink:href="#f2_1z" transform="matrix(10.4,0,0,10.4,338.1,269.7)" />
<use xlink:href="#f3_2k" transform="matrix(10.4,0,0,10.4,353.7,269.7)" />
<use xlink:href="#f2_h" transform="matrix(10.4,0,0,10.4,361.8,269.7)" />
<use xlink:href="#f2_l" transform="matrix(10.4,0,0,10.4,43.3,345.5)" />
<use xlink:href="#f2_h" transform="matrix(10.4,0,0,10.4,52.2,345.5)" />
<use xlink:href="#f2_18" transform="matrix(10.4,0,0,10.4,75.1,345.5)" />
<use xlink:href="#f2_21" transform="matrix(10.4,0,0,10.4,79.5,345.5)" />
<use xlink:href="#f2_j" transform="matrix(10.5,0,0,10.5,173.3,334.3)" />
<use xlink:href="#f2_j" transform="matrix(10.5,0,0,10.5,280.5,334.3)" />
<use xlink:href="#f2_1w" transform="matrix(10.5,0,0,10.5,200.8,346.1)" />
<use xlink:href="#f2_29" transform="matrix(10.5,0,0,10.5,210.1,346.1)" />
<use xlink:href="#f2_1z" transform="matrix(10.5,0,0,10.5,219.4,346.1)" />
<use xlink:href="#f2_f" transform="matrix(10.5,0,0,10.5,332.7,346.1)" />
<use xlink:href="#f2_21" transform="matrix(10.5,0,0,10.5,344,346.1)" />
<use xlink:href="#f2_24" transform="matrix(10.5,0,0,10.5,348.8,346.1)" />
<use xlink:href="#f2_29" transform="matrix(10.5,0,0,10.5,352.6,346.1)" />
<use xlink:href="#f2_1z" transform="matrix(10.5,0,0,10.5,361.8,346.1)" />
<use xlink:href="#f2_h" transform="matrix(10.5,0,0,10.5,400.5,346.1)" />
<use xlink:href="#f2_j" transform="matrix(10.5,0,0,10.5,138.5,358.4)" />
<use xlink:href="#f2_j" transform="matrix(10.5,0,0,10.5,312.3,358.4)" />
<use xlink:href="#f3_24" transform="matrix(10.5,0,0,10.5,139.8,334.3)" />
<use xlink:href="#f3_24" transform="matrix(10.5,0,0,10.5,313.6,334.3)" />
<use xlink:href="#f3_10" transform="matrix(10.5,0,0,10.5,93.5,346.1)" />
<use xlink:href="#f3_11" transform="matrix(10.5,0,0,10.5,234.8,346.1)" />
<use xlink:href="#f3_10" transform="matrix(10.5,0,0,10.5,378.2,346.1)" />
<use xlink:href="#f3_11" transform="matrix(10.5,0,0,10.5,389.2,346.1)" />
<use xlink:href="#f3_24" transform="matrix(10.5,0,0,10.5,179.5,358.4)" />
<use xlink:href="#f3_24" transform="matrix(10.5,0,0,10.5,281.9,358.4)" />
<use xlink:href="#f4_4r" transform="matrix(10.5,0,0,10.5,130.8,335.5)" />
<use xlink:href="#f4_57" transform="matrix(10.5,0,0,10.5,186.7,335.5)" />
<use xlink:href="#f4_4r" transform="matrix(10.5,0,0,10.5,272.8,335.5)" />
<use xlink:href="#f4_57" transform="matrix(10.5,0,0,10.5,322.8,335.5)" />
<use xlink:href="#f4_x" transform="matrix(10.5,0,0,10.5,112.9,346.1)" />
<use xlink:href="#f4_x" transform="matrix(10.5,0,0,10.5,254.9,346.1)" />
<use xlink:href="#f4_4s" transform="matrix(10.5,0,0,10.5,130.8,351)" />
<use xlink:href="#f4_58" transform="matrix(10.5,0,0,10.5,186.7,351)" />
<use xlink:href="#f4_4s" transform="matrix(10.5,0,0,10.5,272.8,351)" />
<use xlink:href="#f4_58" transform="matrix(10.5,0,0,10.5,322.8,351)" />
<use xlink:href="#f4_h" transform="matrix(10.5,0,0,10.5,170.8,358.4)" />
<use xlink:href="#f4_4t" transform="matrix(10.5,0,0,10.5,130.8,361.7)" />
<use xlink:href="#f4_59" transform="matrix(10.5,0,0,10.5,186.7,361.7)" />
<use xlink:href="#f4_4t" transform="matrix(10.5,0,0,10.5,272.8,361.7)" />
<use xlink:href="#f4_59" transform="matrix(10.5,0,0,10.5,322.8,361.7)" />
<use xlink:href="#f2_m" transform="matrix(10.4,0,0,10.4,43.4,401.2)" />
<use xlink:href="#f2_h" transform="matrix(10.4,0,0,10.4,52.2,401.2)" />
<use xlink:href="#f2_15" transform="matrix(10.4,0,0,10.4,75.1,401.2)" />
<use xlink:href="#f2_24" transform="matrix(10.4,0,0,10.4,84.8,401.2)" />
<use xlink:href="#f2_29" transform="matrix(10.4,0,0,10.4,88.4,401.2)" />
<use xlink:href="#f2_1z" transform="matrix(10.4,0,0,10.4,97.2,401.2)" />
<use xlink:href="#f2_2f" transform="matrix(10.4,0,0,10.4,113.1,401.2)" />
<use xlink:href="#f2_23" transform="matrix(10.4,0,0,10.4,117.5,401.2)" />
<use xlink:href="#f2_20" transform="matrix(10.4,0,0,10.4,126.4,401.2)" />
<use xlink:href="#f2_2h" transform="matrix(10.4,0,0,10.4,142,401.2)" />
<use xlink:href="#f2_1w" transform="matrix(10.4,0,0,10.4,150,401.2)" />
<use xlink:href="#f2_27" transform="matrix(10.4,0,0,10.4,158.9,401.2)" />
<use xlink:href="#f2_2g" transform="matrix(10.4,0,0,10.4,162.4,401.2)" />
<use xlink:href="#f2_20" transform="matrix(10.4,0,0,10.4,171.3,401.2)" />
<use xlink:href="#f2_2a" transform="matrix(10.4,0,0,10.4,187.1,401.2)" />
<use xlink:href="#f2_21" transform="matrix(10.4,0,0,10.4,196,401.2)" />
<use xlink:href="#f3_1w" transform="matrix(10.4,0,0,10.4,206.7,401.2)" />
<use xlink:href="#f2_l" transform="matrix(7.4,0,0,7.4,215.5,406.5)" />
<use xlink:href="#f2_m" transform="matrix(7.4,0,0,7.4,221.8,406.5)" />
<use xlink:href="#f2_e" transform="matrix(10.4,0,0,10.4,234.9,401.2)" />
<use xlink:href="#f3_1w" transform="matrix(10.4,0,0,10.4,251.3,401.2)" />
<use xlink:href="#f2_m" transform="matrix(7.4,0,0,7.4,260.1,406.5)" />
<use xlink:href="#f2_l" transform="matrix(7.4,0,0,7.4,266.4,406.5)" />
<use xlink:href="#f2_24" transform="matrix(10.4,0,0,10.4,279.5,401.2)" />
<use xlink:href="#f2_29" transform="matrix(10.4,0,0,10.4,283,401.2)" />
<use xlink:href="#f2_2f" transform="matrix(10.4,0,0,10.4,298.7,401.2)" />
<use xlink:href="#f2_23" transform="matrix(10.4,0,0,10.4,303.1,401.2)" />
<use xlink:href="#f2_20" transform="matrix(10.4,0,0,10.4,312,401.2)" />
<use xlink:href="#f2_28" transform="matrix(10.4,0,0,10.4,327.8,401.2)" />
<use xlink:href="#f2_1w" transform="matrix(10.4,0,0,10.4,341.1,401.2)" />
<use xlink:href="#f2_2f" transform="matrix(10.4,0,0,10.4,350,401.2)" />
<use xlink:href="#f2_2d" transform="matrix(10.4,0,0,10.4,354.4,401.2)" />
<use xlink:href="#f2_24" transform="matrix(10.4,0,0,10.4,359.7,401.2)" />
<use xlink:href="#f2_2j" transform="matrix(10.4,0,0,10.4,363.3,401.2)" />
<use xlink:href="#f3_10" transform="matrix(10.4,0,0,10.4,377.8,401.2)" />
<use xlink:href="#f2_w" transform="matrix(10.4,0,0,10.4,395.4,401.2)" />
<use xlink:href="#f2_1q" transform="matrix(10.4,0,0,10.4,411.7,401.2)" />
<use xlink:href="#f3_1w" transform="matrix(10.4,0,0,10.4,416.1,401.2)" />
<use xlink:href="#f3_24" transform="matrix(7.4,0,0,7.4,424.9,406.5)" />
<use xlink:href="#f3_25" transform="matrix(7.4,0,0,7.4,427.4,406.5)" />
<use xlink:href="#f2_1s" transform="matrix(10.4,0,0,10.4,430,401.2)" />
<use xlink:href="#f2_m" transform="matrix(7.4,0,0,7.4,434.4,406.5)" />
<use xlink:href="#f2_4r" transform="matrix(7.4,0,0,7.4,445.7,406.5)" />
<use xlink:href="#f2_m" transform="matrix(7.4,0,0,7.4,457.3,406.5)" />
<use xlink:href="#f2_2i" transform="matrix(10.4,0,0,10.4,75.1,448.9)" />
<use xlink:href="#f2_23" transform="matrix(10.4,0,0,10.4,86.6,448.9)" />
<use xlink:href="#f2_20" transform="matrix(10.4,0,0,10.4,95.5,448.9)" />
<use xlink:href="#f2_2d" transform="matrix(10.4,0,0,10.4,104.3,448.9)" />
<use xlink:href="#f2_20" transform="matrix(10.4,0,0,10.4,109.6,448.9)" />
</g>
<path d="M186.2,423.4v18m49.3,-18v18" class="g0_12" />
<g fill="#000000" >
<use xlink:href="#f2_l" transform="matrix(10.5,0,0,10.5,189.2,437)" />
<use xlink:href="#f2_99" transform="matrix(10.5,0,0,10.5,210,437)" />
<use xlink:href="#f2_24" transform="matrix(10.5,0,0,10.5,275,437)" />
<use xlink:href="#f2_21" transform="matrix(10.5,0,0,10.5,278.8,437)" />
<use xlink:href="#f2_l" transform="matrix(10.5,0,0,10.5,217.4,461.1)" />
<use xlink:href="#f2_m" transform="matrix(10.5,0,0,10.5,255.6,461.1)" />
<use xlink:href="#f2_24" transform="matrix(10.5,0,0,10.5,280.1,461.1)" />
<use xlink:href="#f2_21" transform="matrix(10.5,0,0,10.5,283.9,461.1)" />
<use xlink:href="#f3_24" transform="matrix(7.9,0,0,7.9,136,452.6)" />
<use xlink:href="#f3_25" transform="matrix(7.9,0,0,7.9,138.8,452.6)" />
<use xlink:href="#f3_24" transform="matrix(10.5,0,0,10.5,197.5,437)" />
<use xlink:href="#f3_25" transform="matrix(10.5,0,0,10.5,227.5,437)" />
<use xlink:href="#f3_24" transform="matrix(10.5,0,0,10.5,290.4,437)" />
<use xlink:href="#f3_25" transform="matrix(10.5,0,0,10.5,322.8,437)" />
<use xlink:href="#f3_1w" transform="matrix(10.5,0,0,10.5,127.6,448.2)" />
<use xlink:href="#f3_24" transform="matrix(10.5,0,0,10.5,189.4,461.1)" />
<use xlink:href="#f3_25" transform="matrix(10.5,0,0,10.5,227.7,461.1)" />
<use xlink:href="#f3_24" transform="matrix(10.5,0,0,10.5,295.5,461.1)" />
<use xlink:href="#f3_25" transform="matrix(10.5,0,0,10.5,328,461.1)" />
<use xlink:href="#f4_y" transform="matrix(10.5,0,0,10.5,304.1,437)" />
<use xlink:href="#f4_4u" transform="matrix(10.5,0,0,10.5,170.9,437.1)" />
<use xlink:href="#f4_x" transform="matrix(10.5,0,0,10.5,153.2,448.2)" />
<use xlink:href="#f4_4v" transform="matrix(10.5,0,0,10.5,170.9,450.8)" />
<use xlink:href="#f4_h" transform="matrix(10.5,0,0,10.5,180.7,461.1)" />
<use xlink:href="#f4_f" transform="matrix(10.5,0,0,10.5,201.7,461.1)" />
<use xlink:href="#f4_f" transform="matrix(10.5,0,0,10.5,239.9,461.1)" />
<use xlink:href="#f4_2t" transform="matrix(10.5,0,0,10.5,309.3,461.1)" />
<use xlink:href="#f4_4w" transform="matrix(10.5,0,0,10.5,170.9,464.4)" />
<use xlink:href="#f2_h" transform="matrix(10.4,0,0,10.4,336.5,448.9)" />
<use xlink:href="#f2_n" transform="matrix(10.4,0,0,10.4,43.3,503.1)" />
<use xlink:href="#f2_h" transform="matrix(10.4,0,0,10.4,52.2,503.1)" />
<use xlink:href="#f2_18" transform="matrix(10.4,0,0,10.4,75.1,503.1)" />
<use xlink:href="#f2_21" transform="matrix(10.4,0,0,10.4,79.5,503.1)" />
<use xlink:href="#f3_11" transform="matrix(10.4,0,0,10.4,90.3,503.1)" />
<use xlink:href="#f2_1x" transform="matrix(10.4,0,0,10.4,107.3,503.1)" />
<use xlink:href="#f2_20" transform="matrix(10.4,0,0,10.4,116.2,503.1)" />
<use xlink:href="#f2_1w" transform="matrix(10.4,0,0,10.4,131.7,503.1)" />
<use xlink:href="#f2_n" transform="matrix(10.4,0,0,10.4,146.9,503.1)" />
<use xlink:href="#f2_4r" transform="matrix(10.4,0,0,10.4,162.4,503.1)" />
<use xlink:href="#f2_o" transform="matrix(10.4,0,0,10.4,178.1,503.1)" />
<use xlink:href="#f2_2f" transform="matrix(10.4,0,0,10.4,193.6,503.1)" />
<use xlink:href="#f2_2k" transform="matrix(10.4,0,0,10.4,198.1,503.1)" />
<use xlink:href="#f2_2b" transform="matrix(10.4,0,0,10.4,206,503.1)" />
<use xlink:href="#f2_20" transform="matrix(10.4,0,0,10.4,214.9,503.1)" />
<use xlink:href="#f2_28" transform="matrix(10.4,0,0,10.4,230.2,503.1)" />
<use xlink:href="#f2_1w" transform="matrix(10.4,0,0,10.4,243.5,503.1)" />
<use xlink:href="#f2_2f" transform="matrix(10.4,0,0,10.4,252.3,503.1)" />
<use xlink:href="#f2_2d" transform="matrix(10.4,0,0,10.4,256.8,503.1)" />
<use xlink:href="#f2_24" transform="matrix(10.4,0,0,10.4,262.1,503.1)" />
<use xlink:href="#f2_2j" transform="matrix(10.4,0,0,10.4,265.6,503.1)" />
<use xlink:href="#f2_f" transform="matrix(10.4,0,0,10.4,273.6,503.1)" />
<use xlink:href="#f2_2f" transform="matrix(10.4,0,0,10.4,284.6,503.1)" />
<use xlink:href="#f2_23" transform="matrix(10.4,0,0,10.4,289.1,503.1)" />
<use xlink:href="#f2_20" transform="matrix(10.4,0,0,10.4,297.9,503.1)" />
<use xlink:href="#f2_29" transform="matrix(10.4,0,0,10.4,306.8,503.1)" />
<use xlink:href="#f2_2i" transform="matrix(10.4,0,0,10.4,322.1,503.1)" />
<use xlink:href="#f2_23" transform="matrix(10.4,0,0,10.4,333.6,503.1)" />
<use xlink:href="#f2_1w" transform="matrix(10.4,0,0,10.4,342.5,503.1)" />
<use xlink:href="#f2_2f" transform="matrix(10.4,0,0,10.4,351.3,503.1)" />
<use xlink:href="#f2_24" transform="matrix(10.4,0,0,10.4,362.4,503.1)" />
<use xlink:href="#f2_2e" transform="matrix(10.4,0,0,10.4,365.9,503.1)" />
<use xlink:href="#f2_2f" transform="matrix(10.4,0,0,10.4,380.3,503.1)" />
<use xlink:href="#f2_23" transform="matrix(10.4,0,0,10.4,384.7,503.1)" />
<use xlink:href="#f2_20" transform="matrix(10.4,0,0,10.4,393.6,503.1)" />
<use xlink:href="#f2_29" transform="matrix(10.4,0,0,10.4,409.1,503.1)" />
<use xlink:href="#f2_2g" transform="matrix(10.4,0,0,10.4,417.9,503.1)" />
<use xlink:href="#f2_28" transform="matrix(10.4,0,0,10.4,426.8,503.1)" />
<use xlink:href="#f2_1x" transform="matrix(10.4,0,0,10.4,440.1,503.1)" />
<use xlink:href="#f2_20" transform="matrix(10.4,0,0,10.4,449,503.1)" />
<use xlink:href="#f2_2d" transform="matrix(10.4,0,0,10.4,457.8,503.1)" />
<use xlink:href="#f2_2a" transform="matrix(10.4,0,0,10.4,469.6,503.1)" />
<use xlink:href="#f2_21" transform="matrix(10.4,0,0,10.4,478.4,503.1)" />
<use xlink:href="#f2_20" transform="matrix(10.4,0,0,10.4,489.5,503.1)" />
<use xlink:href="#f2_27" transform="matrix(10.4,0,0,10.4,498.3,503.1)" />
<use xlink:href="#f2_20" transform="matrix(10.4,0,0,10.4,501.9,503.1)" />
<use xlink:href="#f2_28" transform="matrix(10.4,0,0,10.4,510.7,503.1)" />
<use xlink:href="#f2_20" transform="matrix(10.4,0,0,10.4,524,503.1)" />
<use xlink:href="#f2_29" transform="matrix(10.4,0,0,10.4,532.9,503.1)" />
<use xlink:href="#f2_2f" transform="matrix(10.4,0,0,10.4,541.8,503.1)" />
<use xlink:href="#f2_2e" transform="matrix(10.4,0,0,10.4,546.2,503.1)" />
<use xlink:href="#f2_24" transform="matrix(10.4,0,0,10.4,560.6,503.1)" />
<use xlink:href="#f2_29" transform="matrix(10.4,0,0,10.4,564.1,503.1)" />
<use xlink:href="#f2_2f" transform="matrix(10.4,0,0,10.4,579.6,503.1)" />
<use xlink:href="#f2_23" transform="matrix(10.4,0,0,10.4,584,503.1)" />
<use xlink:href="#f2_20" transform="matrix(10.4,0,0,10.4,592.9,503.1)" />
<use xlink:href="#f2_2f" transform="matrix(10.4,0,0,10.4,75.1,523.3)" />
<use xlink:href="#f2_23" transform="matrix(10.4,0,0,10.4,79.5,523.3)" />
<use xlink:href="#f2_24" transform="matrix(10.4,0,0,10.4,88.4,523.3)" />
<use xlink:href="#f2_2d" transform="matrix(10.4,0,0,10.4,91.9,523.3)" />
<use xlink:href="#f2_1z" transform="matrix(10.4,0,0,10.4,97.2,523.3)" />
<use xlink:href="#f2_1y" transform="matrix(10.4,0,0,10.4,114.2,523.3)" />
<use xlink:href="#f2_2a" transform="matrix(10.4,0,0,10.4,122.1,523.3)" />
<use xlink:href="#f2_27" transform="matrix(10.4,0,0,10.4,131,523.3)" />
<use xlink:href="#f2_2g" transform="matrix(10.4,0,0,10.4,134.5,523.3)" />
<use xlink:href="#f2_28" transform="matrix(10.4,0,0,10.4,143.4,523.3)" />
<use xlink:href="#f2_29" transform="matrix(10.4,0,0,10.4,156.7,523.3)" />
<use xlink:href="#f2_h" transform="matrix(10.4,0,0,10.4,165.6,523.3)" />
<use xlink:href="#f2_o" transform="matrix(10.4,0,0,10.4,43.3,580)" />
<use xlink:href="#f2_h" transform="matrix(10.4,0,0,10.4,52.2,580)" />
<use xlink:href="#f2_18" transform="matrix(10.4,0,0,10.4,75.1,580)" />
<use xlink:href="#f2_21" transform="matrix(10.4,0,0,10.4,79.5,580)" />
<use xlink:href="#f2_o" transform="matrix(10.5,0,0,10.5,129.4,567.7)" />
<use xlink:href="#f2_l" transform="matrix(10.5,0,0,10.5,153.2,567.7)" />
<use xlink:href="#f2_m" transform="matrix(10.5,0,0,10.5,250.2,567.7)" />
<use xlink:href="#f2_p" transform="matrix(10.5,0,0,10.5,277.4,567.7)" />
<use xlink:href="#f2_1w" transform="matrix(10.5,0,0,10.5,178.2,579.5)" />
<use xlink:href="#f2_29" transform="matrix(10.5,0,0,10.5,187.2,579.5)" />
<use xlink:href="#f2_1z" transform="matrix(10.5,0,0,10.5,196.1,579.5)" />
<use xlink:href="#f2_21" transform="matrix(10.5,0,0,10.5,306,579.5)" />
<use xlink:href="#f2_24" transform="matrix(10.5,0,0,10.5,310.5,579.5)" />
<use xlink:href="#f2_29" transform="matrix(10.5,0,0,10.5,314.1,579.5)" />
<use xlink:href="#f2_1z" transform="matrix(10.5,0,0,10.5,323,579.5)" />
<use xlink:href="#f2_m" transform="matrix(10.5,0,0,10.5,340.9,579.5)" />
<use xlink:href="#f2_l" transform="matrix(10.5,0,0,10.5,376.7,579.5)" />
<use xlink:href="#f2_h" transform="matrix(10.5,0,0,10.5,396.1,579.5)" />
<use xlink:href="#f2_j" transform="matrix(10.5,0,0,10.5,129.4,591.8)" />
<use xlink:href="#f2_s" transform="matrix(10.5,0,0,10.5,153,591.8)" />
<use xlink:href="#f2_j" transform="matrix(10.5,0,0,10.5,250.2,591.8)" />
<use xlink:href="#f2_k" transform="matrix(10.5,0,0,10.5,283.3,591.8)" />
<use xlink:href="#f3_10" transform="matrix(10.5,0,0,10.5,93.4,579.5)" />
<use xlink:href="#f3_11" transform="matrix(10.5,0,0,10.5,213.4,579.5)" />
<use xlink:href="#f3_10" transform="matrix(10.5,0,0,10.5,350.4,579.5)" />
<use xlink:href="#f3_11" transform="matrix(10.5,0,0,10.5,385.1,579.5)" />
<use xlink:href="#f4_4r" transform="matrix(10.5,0,0,10.5,122.8,568.7)" />
<use xlink:href="#f4_57" transform="matrix(10.5,0,0,10.5,162.4,568.7)" />
<use xlink:href="#f4_4r" transform="matrix(10.5,0,0,10.5,243.6,568.7)" />
<use xlink:href="#f4_57" transform="matrix(10.5,0,0,10.5,290.1,568.7)" />
<use xlink:href="#f4_x" transform="matrix(10.5,0,0,10.5,108.9,579.5)" />
<use xlink:href="#f4_x" transform="matrix(10.5,0,0,10.5,229.7,579.5)" />
<use xlink:href="#f4_h" transform="matrix(10.5,0,0,10.5,365,579.5)" />
<use xlink:href="#f4_4s" transform="matrix(10.5,0,0,10.5,122.8,584.2)" />
<use xlink:href="#f4_58" transform="matrix(10.5,0,0,10.5,162.4,584.2)" />
<use xlink:href="#f4_4s" transform="matrix(10.5,0,0,10.5,243.6,584.2)" />
<use xlink:href="#f4_58" transform="matrix(10.5,0,0,10.5,290.1,584.2)" />
<use xlink:href="#f4_h" transform="matrix(10.5,0,0,10.5,274.5,591.8)" />
<use xlink:href="#f4_4t" transform="matrix(10.5,0,0,10.5,122.8,595.3)" />
<use xlink:href="#f4_59" transform="matrix(10.5,0,0,10.5,162.4,595.3)" />
<use xlink:href="#f4_4t" transform="matrix(10.5,0,0,10.5,243.6,595.3)" />
<use xlink:href="#f4_59" transform="matrix(10.5,0,0,10.5,290.1,595.3)" />
<use xlink:href="#f2_p" transform="matrix(10.4,0,0,10.4,43.4,656.2)" />
<use xlink:href="#f2_h" transform="matrix(10.4,0,0,10.4,52.2,656.2)" />
<use xlink:href="#f2_18" transform="matrix(10.4,0,0,10.4,75.1,656.2)" />
<use xlink:href="#f2_21" transform="matrix(10.4,0,0,10.4,79.5,656.2)" />
<use xlink:href="#f4_c" transform="matrix(10.5,0,0,11.5,360.2,654.7)" />
<use xlink:href="#f4_d" transform="matrix(10.5,0,0,11.5,404.3,654.7)" />
<use xlink:href="#f4_h" transform="matrix(10.5,0,0,10.5,161.8,645.1)" />
<use xlink:href="#f4_4r" transform="matrix(10.5,0,0,10.5,122.1,646.1)" />
<use xlink:href="#f4_57" transform="matrix(10.5,0,0,10.5,180.2,646.1)" />
<use xlink:href="#f4_4r" transform="matrix(10.5,0,0,10.5,260.9,646.1)" />
<use xlink:href="#f4_57" transform="matrix(10.5,0,0,10.5,309.7,646.1)" />
<use xlink:href="#f4_x" transform="matrix(10.5,0,0,10.5,108.5,656.8)" />
<use xlink:href="#f4_x" transform="matrix(10.5,0,0,10.5,247.2,656.8)" />
<use xlink:href="#f4_f" transform="matrix(10.5,0,0,10.5,380.4,656.8)" />
<use xlink:href="#f4_4s" transform="matrix(10.5,0,0,10.5,122.1,661.6)" />
<use xlink:href="#f4_58" transform="matrix(10.5,0,0,10.5,180.2,661.6)" />
<use xlink:href="#f4_4s" transform="matrix(10.5,0,0,10.5,260.9,661.6)" />
<use xlink:href="#f4_58" transform="matrix(10.5,0,0,10.5,309.7,661.6)" />
<use xlink:href="#f4_h" transform="matrix(10.5,0,0,10.5,129,669.1)" />
<use xlink:href="#f4_h" transform="matrix(10.5,0,0,10.5,291.3,669.1)" />
<use xlink:href="#f4_4t" transform="matrix(10.5,0,0,10.5,122.1,672.6)" />
<use xlink:href="#f4_59" transform="matrix(10.5,0,0,10.5,180.2,672.6)" />
<use xlink:href="#f4_4t" transform="matrix(10.5,0,0,10.5,260.9,672.6)" />
<use xlink:href="#f4_59" transform="matrix(10.5,0,0,10.5,309.7,672.6)" />
<use xlink:href="#f2_l" transform="matrix(10.5,0,0,10.5,133.3,645.1)" />
<use xlink:href="#f2_m" transform="matrix(10.5,0,0,10.5,170.6,645.1)" />
<use xlink:href="#f2_k" transform="matrix(10.5,0,0,10.5,268,645.1)" />
<use xlink:href="#f2_j" transform="matrix(10.5,0,0,10.5,295.6,645.1)" />
<use xlink:href="#f2_1w" transform="matrix(10.5,0,0,10.5,195.8,656.8)" />
<use xlink:href="#f2_29" transform="matrix(10.5,0,0,10.5,204.7,656.8)" />
<use xlink:href="#f2_1z" transform="matrix(10.5,0,0,10.5,213.7,656.8)" />
<use xlink:href="#f2_21" transform="matrix(10.5,0,0,10.5,325.3,656.8)" />
<use xlink:href="#f2_24" transform="matrix(10.5,0,0,10.5,329.8,656.8)" />
<use xlink:href="#f2_29" transform="matrix(10.5,0,0,10.5,333.4,656.8)" />
<use xlink:href="#f2_1z" transform="matrix(10.5,0,0,10.5,342.3,656.8)" />
<use xlink:href="#f2_h" transform="matrix(10.5,0,0,10.5,413.3,656.8)" />
<use xlink:href="#f2_q" transform="matrix(10.5,0,0,10.5,137.7,669.1)" />
<use xlink:href="#f2_o" transform="matrix(10.5,0,0,10.5,166.1,669.1)" />
<use xlink:href="#f2_l" transform="matrix(10.5,0,0,10.5,267.5,669.1)" />
<use xlink:href="#f2_p" transform="matrix(10.5,0,0,10.5,300.1,669.1)" />
<use xlink:href="#f2_3e" transform="matrix(12,0,0,12,407.6,656.8)" />
<use xlink:href="#f3_10" transform="matrix(10.5,0,0,10.5,93,656.8)" />
<use xlink:href="#f3_11" transform="matrix(10.5,0,0,10.5,231,656.8)" />
<use xlink:href="#f3_10" transform="matrix(10.5,0,0,10.5,366.1,656.8)" />
<use xlink:href="#f3_11" transform="matrix(10.5,0,0,10.5,391.9,656.8)" />
<use xlink:href="#f2_q" transform="matrix(10.4,0,0,10.4,43.4,749.5)" />
<use xlink:href="#f2_h" transform="matrix(10.4,0,0,10.4,52.2,749.5)" />
<use xlink:href="#f2_18" transform="matrix(10.4,0,0,10.4,75.1,749.5)" />
<use xlink:href="#f2_21" transform="matrix(10.4,0,0,10.4,79.5,749.5)" />
<use xlink:href="#f3_10" transform="matrix(10.4,0,0,10.4,90.7,749.5)" />
<use xlink:href="#f3_w" transform="matrix(10.4,0,0,10.4,108.1,749.5)" />
<use xlink:href="#f2_1q" transform="matrix(10.4,0,0,10.4,124.2,749.5)" />
<use xlink:href="#f2_k" transform="matrix(10.4,0,0,10.4,128.6,749.5)" />
<use xlink:href="#f2_j" transform="matrix(10.4,0,0,10.4,151.1,749.5)" />
<use xlink:href="#f2_n" transform="matrix(10.4,0,0,10.4,173.5,749.5)" />
<use xlink:href="#f2_1s" transform="matrix(10.4,0,0,10.4,182.4,749.5)" />
<use xlink:href="#f2_1w" transform="matrix(10.4,0,0,10.4,193.6,749.5)" />
<use xlink:href="#f2_29" transform="matrix(10.4,0,0,10.4,202.4,749.5)" />
<use xlink:href="#f2_1z" transform="matrix(10.4,0,0,10.4,211.3,749.5)" />
<use xlink:href="#f2_l" transform="matrix(10.6,0,0,10.5,265.2,725.3)" />
<use xlink:href="#f2_o" transform="matrix(10.6,0,0,10.5,265.1,749.4)" />
<use xlink:href="#f2_21" transform="matrix(10.6,0,0,10.5,285.5,749.4)" />
<use xlink:href="#f2_24" transform="matrix(10.6,0,0,10.5,290,749.4)" />
<use xlink:href="#f2_29" transform="matrix(10.6,0,0,10.5,293.6,749.4)" />
<use xlink:href="#f2_1z" transform="matrix(10.6,0,0,10.5,302.5,749.4)" />
<use xlink:href="#f2_h" transform="matrix(10.6,0,0,10.5,337.6,749.4)" />
<use xlink:href="#f2_p" transform="matrix(10.6,0,0,10.5,265.1,773.4)" />
<use xlink:href="#f3_11" transform="matrix(10.6,0,0,10.5,228.3,749.4)" />
<use xlink:href="#f3_10" transform="matrix(10.6,0,0,10.5,315.6,749.4)" />
<use xlink:href="#f3_11" transform="matrix(10.6,0,0,10.5,326.3,749.4)" />
<use xlink:href="#f4_4r" transform="matrix(10.6,0,0,10.5,258.5,726.3)" />
<use xlink:href="#f4_57" transform="matrix(10.6,0,0,10.5,274.5,726.3)" />
<use xlink:href="#f4_4s" transform="matrix(10.6,0,0,10.5,258.5,741.8)" />
<use xlink:href="#f4_58" transform="matrix(10.6,0,0,10.5,274.5,741.8)" />
<use xlink:href="#f4_x" transform="matrix(10.6,0,0,10.5,244.5,749.4)" />
<use xlink:href="#f4_4s" transform="matrix(10.6,0,0,10.5,258.5,757.1)" />
<use xlink:href="#f4_58" transform="matrix(10.6,0,0,10.5,274.5,757.1)" />
<use xlink:href="#f4_4s" transform="matrix(10.6,0,0,10.5,258.5,772.3)" />
<use xlink:href="#f4_58" transform="matrix(10.6,0,0,10.5,274.5,772.3)" />
<use xlink:href="#f4_4t" transform="matrix(10.6,0,0,10.5,258.5,776.9)" />
<use xlink:href="#f4_59" transform="matrix(10.6,0,0,10.5,274.5,776.9)" />
<use xlink:href="#f2_r" transform="matrix(10.4,0,0,10.4,43.4,837.3)" />
<use xlink:href="#f2_h" transform="matrix(10.4,0,0,10.4,52.2,837.3)" />
<use xlink:href="#f2_18" transform="matrix(10.4,0,0,10.4,75.1,837.3)" />
<use xlink:href="#f2_21" transform="matrix(10.4,0,0,10.4,79.5,837.3)" />
<use xlink:href="#f2_n" transform="matrix(10.5,0,0,10.5,146.8,826.2)" />
<use xlink:href="#f2_l" transform="matrix(10.5,0,0,10.5,213.8,826.2)" />
<use xlink:href="#f2_l" transform="matrix(10.5,0,0,10.5,129.5,850.3)" />
<use xlink:href="#f2_m" transform="matrix(10.5,0,0,10.5,164.2,850.3)" />
<use xlink:href="#f2_k" transform="matrix(10.5,0,0,10.5,214.4,850.3)" />
<use xlink:href="#f3_2j" transform="matrix(10.5,0,0,10.5,188.3,826.2)" />
<use xlink:href="#f3_10" transform="matrix(10.5,0,0,10.5,93.6,838)" />
<use xlink:href="#f3_2j" transform="matrix(10.5,0,0,10.5,138.6,850.3)" />
<use xlink:href="#f3_2j" transform="matrix(10.5,0,0,10.5,190,850.3)" />
<use xlink:href="#f4_f" transform="matrix(10.5,0,0,10.5,201.6,826.2)" />
<use xlink:href="#f4_4r" transform="matrix(10.5,0,0,10.5,122.9,827.2)" />
<use xlink:href="#f4_57" transform="matrix(10.5,0,0,10.5,223,827.2)" />
<use xlink:href="#f4_x" transform="matrix(10.5,0,0,10.5,109,838)" />
<use xlink:href="#f4_4s" transform="matrix(10.5,0,0,10.5,122.9,842.7)" />
<use xlink:href="#f4_58" transform="matrix(10.5,0,0,10.5,223,842.7)" />
<use xlink:href="#f4_h" transform="matrix(10.5,0,0,10.5,152.1,850.3)" />
<use xlink:href="#f4_f" transform="matrix(10.5,0,0,10.5,203.3,850.3)" />
<use xlink:href="#f4_4t" transform="matrix(10.5,0,0,10.5,122.9,853.8)" />
<use xlink:href="#f4_59" transform="matrix(10.5,0,0,10.5,223,853.8)" />
<use xlink:href="#f2_24" transform="matrix(10.4,0,0,10.4,239.9,837.3)" />
<use xlink:href="#f2_2e" transform="matrix(10.4,0,0,10.4,243.4,837.3)" />
<use xlink:href="#f2_2e" transform="matrix(10.4,0,0,10.4,258.4,837.3)" />
<use xlink:href="#f2_2k" transform="matrix(10.4,0,0,10.4,266.3,837.3)" />
<use xlink:href="#f2_28" transform="matrix(10.4,0,0,10.4,274.3,837.3)" />
<use xlink:href="#f2_28" transform="matrix(10.4,0,0,10.4,287.6,837.3)" />
<use xlink:href="#f2_20" transform="matrix(10.4,0,0,10.4,300.9,837.3)" />
<use xlink:href="#f2_2f" transform="matrix(10.4,0,0,10.4,309.8,837.3)" />
<use xlink:href="#f2_2d" transform="matrix(10.4,0,0,10.4,314.2,837.3)" />
<use xlink:href="#f2_24" transform="matrix(10.4,0,0,10.4,319.5,837.3)" />
<use xlink:href="#f2_1y" transform="matrix(10.4,0,0,10.4,323,837.3)" />
<use xlink:href="#f2_28" transform="matrix(10.4,0,0,10.4,338.2,837.3)" />
<use xlink:href="#f2_1w" transform="matrix(10.4,0,0,10.4,351.5,837.3)" />
<use xlink:href="#f2_2f" transform="matrix(10.4,0,0,10.4,360.3,837.3)" />
<use xlink:href="#f2_2d" transform="matrix(10.4,0,0,10.4,364.8,837.3)" />
<use xlink:href="#f2_24" transform="matrix(10.4,0,0,10.4,370.1,837.3)" />
<use xlink:href="#f2_2j" transform="matrix(10.4,0,0,10.4,373.6,837.3)" />
<use xlink:href="#f2_f" transform="matrix(10.4,0,0,10.4,381.6,837.3)" />
<use xlink:href="#f2_2f" transform="matrix(10.4,0,0,10.4,393,837.3)" />
<use xlink:href="#f2_23" transform="matrix(10.4,0,0,10.4,397.4,837.3)" />
<use xlink:href="#f2_20" transform="matrix(10.4,0,0,10.4,406.3,837.3)" />
<use xlink:href="#f2_29" transform="matrix(10.4,0,0,10.4,415.2,837.3)" />
<use xlink:href="#f2_21" transform="matrix(10.4,0,0,10.4,431.2,837.3)" />
<use xlink:href="#f2_24" transform="matrix(10.4,0,0,10.4,435.6,837.3)" />
<use xlink:href="#f2_29" transform="matrix(10.4,0,0,10.4,439.2,837.3)" />
<use xlink:href="#f2_1z" transform="matrix(10.4,0,0,10.4,448,837.3)" />
<use xlink:href="#f3_2j" transform="matrix(10.4,0,0,10.4,463.2,837.3)" />
<use xlink:href="#f2_h" transform="matrix(10.4,0,0,10.4,471.3,837.3)" />
<use xlink:href="#f2_s" transform="matrix(10.4,0,0,10.4,43.3,909)" />
<use xlink:href="#f2_h" transform="matrix(10.4,0,0,10.4,52.2,909)" />
<use xlink:href="#f2_15" transform="matrix(10.4,0,0,10.4,75.1,909)" />
<use xlink:href="#f2_2a" transform="matrix(10.4,0,0,10.4,84.8,909)" />
<use xlink:href="#f2_2d" transform="matrix(10.4,0,0,10.4,93.7,909)" />
<use xlink:href="#f2_2i" transform="matrix(10.4,0,0,10.4,104.7,909)" />
<use xlink:href="#f2_23" transform="matrix(10.4,0,0,10.4,116.2,909)" />
<use xlink:href="#f2_1w" transform="matrix(10.4,0,0,10.4,125,909)" />
<use xlink:href="#f2_2f" transform="matrix(10.4,0,0,10.4,133.9,909)" />
<use xlink:href="#f2_2h" transform="matrix(10.4,0,0,10.4,144,909)" />
<use xlink:href="#f2_1w" transform="matrix(10.4,0,0,10.4,152,909)" />
<use xlink:href="#f2_27" transform="matrix(10.4,0,0,10.4,160.9,909)" />
<use xlink:href="#f2_2g" transform="matrix(10.4,0,0,10.4,164.4,909)" />
<use xlink:href="#f2_20" transform="matrix(10.4,0,0,10.4,173.3,909)" />
<use xlink:href="#f2_2a" transform="matrix(10.4,0,0,10.4,188,909)" />
<use xlink:href="#f2_21" transform="matrix(10.4,0,0,10.4,196.9,909)" />
<use xlink:href="#f3_2j" transform="matrix(10.4,0,0,10.4,206.5,909)" />
<use xlink:href="#f2_2f" transform="matrix(10.4,0,0,10.4,220.3,909)" />
<use xlink:href="#f2_23" transform="matrix(10.4,0,0,10.4,224.7,909)" />
<use xlink:href="#f2_20" transform="matrix(10.4,0,0,10.4,233.6,909)" />
<use xlink:href="#f2_28" transform="matrix(10.4,0,0,10.4,248.3,909)" />
<use xlink:href="#f2_1w" transform="matrix(10.4,0,0,10.4,261.6,909)" />
<use xlink:href="#f2_2f" transform="matrix(10.4,0,0,10.4,270.5,909)" />
<use xlink:href="#f2_2d" transform="matrix(10.4,0,0,10.4,274.9,909)" />
<use xlink:href="#f2_24" transform="matrix(10.4,0,0,10.4,280.2,909)" />
<use xlink:href="#f2_2j" transform="matrix(10.4,0,0,10.4,283.7,909)" />
<use xlink:href="#f2_j" transform="matrix(10.4,0,0,10.5,315.6,884.3)" />
<use xlink:href="#f2_l" transform="matrix(10.4,0,0,10.5,339.6,884.3)" />
<use xlink:href="#f2_m" transform="matrix(10.4,0,0,10.5,388.7,884.3)" />
<use xlink:href="#f2_l" transform="matrix(10.4,0,0,10.5,315.9,908.3)" />
<use xlink:href="#f2_j" transform="matrix(10.4,0,0,10.5,339.3,908.3)" />
<use xlink:href="#f2_n" transform="matrix(10.4,0,0,10.5,388.7,908.3)" />
<use xlink:href="#f2_m" transform="matrix(10.4,0,0,10.5,315.6,932.4)" />
<use xlink:href="#f2_n" transform="matrix(10.4,0,0,10.5,339.3,932.4)" />
<use xlink:href="#f2_o" transform="matrix(10.4,0,0,10.5,388.7,932.4)" />
<use xlink:href="#f3_2j" transform="matrix(10.4,0,0,10.5,363.3,932.4)" />
<use xlink:href="#f4_h" transform="matrix(10.4,0,0,10.5,380,884.3)" />
<use xlink:href="#f4_4r" transform="matrix(10.4,0,0,10.5,300.1,885.3)" />
<use xlink:href="#f4_57" transform="matrix(10.4,0,0,10.5,398,885.3)" />
<use xlink:href="#f4_4s" transform="matrix(10.4,0,0,10.5,300.1,900.8)" />
<use xlink:href="#f4_58" transform="matrix(10.4,0,0,10.5,398,900.8)" />
<use xlink:href="#f4_h" transform="matrix(10.4,0,0,10.5,307.2,908.3)" />
<use xlink:href="#f4_h" transform="matrix(10.4,0,0,10.5,380,908.3)" />
<use xlink:href="#f4_4s" transform="matrix(10.4,0,0,10.5,300.1,916)" />
<use xlink:href="#f4_58" transform="matrix(10.4,0,0,10.5,398,916)" />
<use xlink:href="#f4_4s" transform="matrix(10.4,0,0,10.5,300.1,931.3)" />
<use xlink:href="#f4_58" transform="matrix(10.4,0,0,10.5,398,931.3)" />
<use xlink:href="#f4_f" transform="matrix(10.4,0,0,10.5,376.5,932.4)" />
<use xlink:href="#f4_4t" transform="matrix(10.4,0,0,10.5,300.1,935.9)" />
<use xlink:href="#f4_59" transform="matrix(10.4,0,0,10.5,398,935.9)" />
<use xlink:href="#f2_24" transform="matrix(10.4,0,0,10.4,413.9,909)" />
<use xlink:href="#f2_2e" transform="matrix(10.4,0,0,10.4,417.4,909)" />
<use xlink:href="#f2_2e" transform="matrix(10.4,0,0,10.4,431.2,909)" />
<use xlink:href="#f2_26" transform="matrix(10.4,0,0,10.4,439.2,909)" />
<use xlink:href="#f2_20" transform="matrix(10.4,0,0,10.4,447.2,909)" />
<use xlink:href="#f2_2i" transform="matrix(10.4,0,0,10.4,456.1,909)" />
<use xlink:href="#f2_2e" transform="matrix(10.4,0,0,10.4,473.3,909)" />
<use xlink:href="#f2_2k" transform="matrix(10.4,0,0,10.4,481.2,909)" />
<use xlink:href="#f2_28" transform="matrix(10.4,0,0,10.4,489.2,909)" />
<use xlink:href="#f2_28" transform="matrix(10.4,0,0,10.4,502.5,909)" />
<use xlink:href="#f2_20" transform="matrix(10.4,0,0,10.4,515.8,909)" />
<use xlink:href="#f2_2f" transform="matrix(10.4,0,0,10.4,524.7,909)" />
<use xlink:href="#f2_2d" transform="matrix(10.4,0,0,10.4,529.1,909)" />
<use xlink:href="#f2_24" transform="matrix(10.4,0,0,10.4,534.4,909)" />
<use xlink:href="#f2_2j" transform="matrix(10.4,0,0,10.4,537.9,909)" />
<use xlink:href="#f2_28" transform="matrix(10.4,0,0,10.4,551.8,909)" />
<use xlink:href="#f2_1w" transform="matrix(10.4,0,0,10.4,565.1,909)" />
<use xlink:href="#f2_2f" transform="matrix(10.4,0,0,10.4,573.9,909)" />
<use xlink:href="#f2_2d" transform="matrix(10.4,0,0,10.4,578.4,909)" />
<use xlink:href="#f2_24" transform="matrix(10.4,0,0,10.4,583.7,909)" />
<use xlink:href="#f2_2j" transform="matrix(10.4,0,0,10.4,587.2,909)" />
<use xlink:href="#f2_h" transform="matrix(10.4,0,0,10.4,595.2,909)" />
<use xlink:href="#f2_k" transform="matrix(10.4,0,0,10.4,34.4,979.4)" />
<use xlink:href="#f2_j" transform="matrix(10.4,0,0,10.4,43.2,979.4)" />
<use xlink:href="#f2_h" transform="matrix(10.4,0,0,10.4,52.4,979.4)" />
<use xlink:href="#f2_18" transform="matrix(10.4,0,0,10.4,75.1,979.4)" />
<use xlink:href="#f2_21" transform="matrix(10.4,0,0,10.4,79.5,979.4)" />
<use xlink:href="#f2_l" transform="matrix(10.5,0,0,10.5,136,967.6)" />
<use xlink:href="#f2_m" transform="matrix(10.5,0,0,10.5,167.5,967.6)" />
<use xlink:href="#f2_k" transform="matrix(10.5,0,0,10.5,136.5,991.6)" />
<use xlink:href="#f2_j" transform="matrix(10.5,0,0,10.5,167.5,991.6)" />
<use xlink:href="#f3_10" transform="matrix(10.5,0,0,10.5,91.2,979.3)" />
<use xlink:href="#f3_1f" transform="matrix(10.5,0,0,10.5,209,979.3)" />
<use xlink:href="#f3_1g" transform="matrix(10.5,0,0,10.5,242.4,979.3)" />
<use xlink:href="#f4_4r" transform="matrix(10.5,0,0,10.5,128.3,968.7)" />
<use xlink:href="#f4_57" transform="matrix(10.5,0,0,10.5,178.3,968.7)" />
<use xlink:href="#f4_x" transform="matrix(10.5,0,0,10.5,110.6,979.3)" />
<use xlink:href="#f4_x" transform="matrix(10.5,0,0,10.5,192.9,979.3)" />
<use xlink:href="#f4_f" transform="matrix(10.5,0,0,10.5,228,979.3)" />
<use xlink:href="#f4_4s" transform="matrix(10.5,0,0,10.5,128.3,984.2)" />
<use xlink:href="#f4_58" transform="matrix(10.5,0,0,10.5,178.3,984.2)" />
<use xlink:href="#f4_4t" transform="matrix(10.5,0,0,10.5,128.3,995)" />
<use xlink:href="#f4_59" transform="matrix(10.5,0,0,10.5,178.3,995)" />
<use xlink:href="#f2_2i" transform="matrix(10.4,0,0,10.4,263.6,979.4)" />
<use xlink:href="#f2_23" transform="matrix(10.4,0,0,10.4,275.1,979.4)" />
<use xlink:href="#f2_20" transform="matrix(10.4,0,0,10.4,284,979.4)" />
<use xlink:href="#f2_2d" transform="matrix(10.4,0,0,10.4,292.8,979.4)" />
<use xlink:href="#f2_20" transform="matrix(10.4,0,0,10.4,298.1,979.4)" />
<use xlink:href="#f3_1f" transform="matrix(10.4,0,0,10.4,311.8,979.4)" />
<use xlink:href="#f2_24" transform="matrix(10.4,0,0,10.4,326.8,979.4)" />
<use xlink:href="#f2_2e" transform="matrix(10.4,0,0,10.4,330.4,979.4)" />
<use xlink:href="#f2_2e" transform="matrix(10.4,0,0,10.4,343.1,979.4)" />
<use xlink:href="#f2_2k" transform="matrix(10.4,0,0,10.4,351.1,979.4)" />
<use xlink:href="#f2_28" transform="matrix(10.4,0,0,10.4,359.1,979.4)" />
<use xlink:href="#f2_28" transform="matrix(10.4,0,0,10.4,372.3,979.4)" />
<use xlink:href="#f2_20" transform="matrix(10.4,0,0,10.4,385.6,979.4)" />
<use xlink:href="#f2_2f" transform="matrix(10.4,0,0,10.4,394.5,979.4)" />
<use xlink:href="#f2_2d" transform="matrix(10.4,0,0,10.4,398.9,979.4)" />
<use xlink:href="#f2_24" transform="matrix(10.4,0,0,10.4,404.2,979.4)" />
<use xlink:href="#f2_1y" transform="matrix(10.4,0,0,10.4,407.8,979.4)" />
<use xlink:href="#f2_1w" transform="matrix(10.4,0,0,10.4,420.2,979.4)" />
<use xlink:href="#f2_29" transform="matrix(10.4,0,0,10.4,429.1,979.4)" />
<use xlink:href="#f2_1z" transform="matrix(10.4,0,0,10.4,437.9,979.4)" />
<use xlink:href="#f3_1g" transform="matrix(10.4,0,0,10.4,451.6,979.4)" />
<use xlink:href="#f2_24" transform="matrix(10.4,0,0,10.4,468.9,979.4)" />
<use xlink:href="#f2_2e" transform="matrix(10.4,0,0,10.4,472.4,979.4)" />
<use xlink:href="#f2_2e" transform="matrix(10.4,0,0,10.4,485.2,979.4)" />
<use xlink:href="#f2_26" transform="matrix(10.4,0,0,10.4,493.1,979.4)" />
<use xlink:href="#f2_20" transform="matrix(10.4,0,0,10.4,501.1,979.4)" />
<use xlink:href="#f2_2i" transform="matrix(10.4,0,0,10.4,510,979.4)" />
<use xlink:href="#f2_g" transform="matrix(10.4,0,0,10.4,521.5,979.4)" />
<use xlink:href="#f2_2e" transform="matrix(10.4,0,0,10.4,526.8,979.4)" />
<use xlink:href="#f2_2k" transform="matrix(10.4,0,0,10.4,534.8,979.4)" />
<use xlink:href="#f2_28" transform="matrix(10.4,0,0,10.4,542.8,979.4)" />
<use xlink:href="#f2_28" transform="matrix(10.4,0,0,10.4,556,979.4)" />
<use xlink:href="#f2_20" transform="matrix(10.4,0,0,10.4,569.3,979.4)" />
<use xlink:href="#f2_2f" transform="matrix(10.4,0,0,10.4,578.2,979.4)" />
<use xlink:href="#f2_2d" transform="matrix(10.4,0,0,10.4,582.6,979.4)" />
<use xlink:href="#f2_24" transform="matrix(10.4,0,0,10.4,587.9,979.4)" />
<use xlink:href="#f2_1y" transform="matrix(10.4,0,0,10.4,591.5,979.4)" />
<use xlink:href="#f2_28" transform="matrix(10.4,0,0,10.4,75.1,1009)" />
<use xlink:href="#f2_1w" transform="matrix(10.4,0,0,10.4,88.3,1009)" />
<use xlink:href="#f2_2f" transform="matrix(10.4,0,0,10.4,97.2,1009)" />
<use xlink:href="#f2_2d" transform="matrix(10.4,0,0,10.4,101.6,1009)" />
<use xlink:href="#f2_24" transform="matrix(10.4,0,0,10.4,107,1009)" />
<use xlink:href="#f2_2j" transform="matrix(10.4,0,0,10.4,110.5,1009)" />
<use xlink:href="#f2_f" transform="matrix(10.4,0,0,10.4,118.5,1009)" />
<use xlink:href="#f2_2f" transform="matrix(10.4,0,0,10.4,130.1,1009)" />
<use xlink:href="#f2_23" transform="matrix(10.4,0,0,10.4,134.5,1009)" />
<use xlink:href="#f2_20" transform="matrix(10.4,0,0,10.4,143.4,1009)" />
<use xlink:href="#f2_29" transform="matrix(10.4,0,0,10.4,152.2,1009)" />
<use xlink:href="#f2_21" transform="matrix(10.4,0,0,10.4,168.2,1009)" />
<use xlink:href="#f2_24" transform="matrix(10.4,0,0,10.4,172.7,1009)" />
<use xlink:href="#f2_29" transform="matrix(10.4,0,0,10.4,176.2,1009)" />
<use xlink:href="#f2_1z" transform="matrix(10.4,0,0,10.4,185.1,1009)" />
<use xlink:href="#f2_2f" transform="matrix(10.4,0,0,10.4,201.3,1009)" />
<use xlink:href="#f2_23" transform="matrix(10.4,0,0,10.4,205.7,1009)" />
<use xlink:href="#f2_20" transform="matrix(10.4,0,0,10.4,214.6,1009)" />
<use xlink:href="#f2_28" transform="matrix(10.4,0,0,10.4,230.6,1009)" />
<use xlink:href="#f2_1w" transform="matrix(10.4,0,0,10.4,243.9,1009)" />
<use xlink:href="#f2_2f" transform="matrix(10.4,0,0,10.4,252.8,1009)" />
<use xlink:href="#f2_2d" transform="matrix(10.4,0,0,10.4,257.2,1009)" />
<use xlink:href="#f2_24" transform="matrix(10.4,0,0,10.4,262.5,1009)" />
<use xlink:href="#f2_2j" transform="matrix(10.4,0,0,10.4,266.1,1009)" />
<use xlink:href="#f3_1g" transform="matrix(10.4,0,0,10.4,280.2,1009)" />
<use xlink:href="#f2_h" transform="matrix(10.4,0,0,10.4,292.7,1009)" />
<use xlink:href="#f5_12" transform="matrix(13,0,0,13,246.7,104.6)" />
<use xlink:href="#f5_17" transform="matrix(13,0,0,13,261,104.6)" />
<use xlink:href="#f5_10" transform="matrix(13,0,0,13,275.3,104.6)" />
<use xlink:href="#f5_1f" transform="matrix(13,0,0,13,289.6,104.6)" />
<use xlink:href="#f5_1j" transform="matrix(13,0,0,13,302.8,104.6)" />
<use xlink:href="#f5_14" transform="matrix(13,0,0,13,314.9,104.6)" />
<use xlink:href="#f5_1h" transform="matrix(13,0,0,13,328.1,104.6)" />
<use xlink:href="#f5_m" transform="matrix(13,0,0,13,350.7,104.6)" />
<use xlink:href="#f5_9" transform="matrix(13,0,0,13,369.9,104.6)" />
<use xlink:href="#f5_n" transform="matrix(13,0,0,13,392.5,104.6)" />
<use xlink:href="#f5_1c" transform="matrix(16,0,0,16,127.9,158.5)" />
<use xlink:href="#f5_10" transform="matrix(16,0,0,16,148.2,158.5)" />
<use xlink:href="#f5_1j" transform="matrix(16,0,0,16,165.8,158.5)" />
<use xlink:href="#f5_1h" transform="matrix(16,0,0,16,180.7,158.5)" />
<use xlink:href="#f5_18" transform="matrix(16,0,0,16,198.3,158.5)" />
<use xlink:href="#f5_12" transform="matrix(16,0,0,16,205.1,158.5)" />
<use xlink:href="#f5_14" transform="matrix(16,0,0,16,222.7,158.5)" />
<use xlink:href="#f5_1i" transform="matrix(16,0,0,16,239,158.5)" />
<use xlink:href="#f5_10" transform="matrix(16,0,0,16,265.4,158.5)" />
<use xlink:href="#f5_1d" transform="matrix(16,0,0,16,283,158.5)" />
<use xlink:href="#f5_13" transform="matrix(16,0,0,16,300.6,158.5)" />
<use xlink:href="#f5_13" transform="matrix(16,0,0,16,328.3,158.5)" />
<use xlink:href="#f5_14" transform="matrix(16,0,0,16,345.9,158.5)" />
<use xlink:href="#f5_1j" transform="matrix(16,0,0,16,362.1,158.5)" />
<use xlink:href="#f5_14" transform="matrix(16,0,0,16,377,158.5)" />
<use xlink:href="#f5_1h" transform="matrix(16,0,0,16,393.3,158.5)" />
<use xlink:href="#f5_1c" transform="matrix(16,0,0,16,410.9,158.5)" />
<use xlink:href="#f5_18" transform="matrix(16,0,0,16,431.2,158.5)" />
<use xlink:href="#f5_1d" transform="matrix(16,0,0,16,438,158.5)" />
<use xlink:href="#f5_10" transform="matrix(16,0,0,16,455.6,158.5)" />
<use xlink:href="#f5_1d" transform="matrix(16,0,0,16,473.2,158.5)" />
<use xlink:href="#f5_1j" transform="matrix(16,0,0,16,490.8,158.5)" />
<use xlink:href="#f5_1i" transform="matrix(16,0,0,16,505.7,158.5)" />
<use xlink:href="#f6_l" transform="matrix(12,0,0,12,662.3,1064.8)" />
</g>
<g fill="#0080FF" fill-opacity="0.5" >
<use xlink:href="#f0_1c" transform="matrix(36.3,0,0,36.3,174,1062.6)" />
<use xlink:href="#f0_21" transform="matrix(36.3,0,0,36.3,204.8,1062.6)" />
<use xlink:href="#f0_1x" transform="matrix(36.3,0,0,36.3,235.7,1062.6)" />
<use xlink:href="#f0_2e" transform="matrix(36.3,0,0,36.3,266.5,1062.6)" />
<use xlink:href="#f0_2a" transform="matrix(36.3,0,0,36.3,284.9,1062.6)" />
<use xlink:href="#f0_17" transform="matrix(36.3,0,0,36.3,315.8,1062.6)" />
<use xlink:href="#f0_2h" transform="matrix(36.3,0,0,36.3,358.9,1062.6)" />
<use xlink:href="#f0_25" transform="matrix(36.3,0,0,36.3,389.7,1062.6)" />
<use xlink:href="#f0_20" transform="matrix(36.3,0,0,36.3,402,1062.6)" />
<use xlink:href="#f0_21" transform="matrix(36.3,0,0,36.3,432.8,1062.6)" />
<use xlink:href="#f0_i" transform="matrix(36.3,0,0,36.3,463.7,1062.6)" />
<use xlink:href="#f0_25" transform="matrix(36.3,0,0,36.3,479.1,1062.6)" />
<use xlink:href="#f0_2a" transform="matrix(36.3,0,0,36.3,491.4,1062.6)" />
</g>
<defs>
<path d="M593,101c0,0,182,0,279,112c0,0,98,113,98,318c0,0,0,196,-98,308c0,0,-98,112,-277,112c0,0,-181,0,-279,-110c0,0,-99,-111,-99,-310c0,0,0,-198,100,-314c0,0,99,-116,276,-116Zm0,-115c0,0,-162,0,-279,65c0,0,-118,66,-180,190c0,0,-62,124,-62,290c0,0,0,252,138,394c0,0,138,142,385,142c0,0,160,0,278,-64c0,0,118,-64,180,-185c0,0,62,-122,62,-287c0,0,0,-165,-63,-289c0,0,-63,-124,-181,-190c0,0,-118,-66,-278,-66Z" 
id="f0_1f"
transform="scale(0.001,-0.001)" />

<path d="M106,0V635c0,0,0,141,-5,173H228c0,0,1,-4,2,-21c0,0,1,-16,2,-37c0,0,1,-22,2,-81h2c0,0,47,84,108,119c0,0,60,34,151,34c0,0,132,0,194,-66c0,0,61,-66,61,-218V0H615V512c0,0,0,80,-15,124c0,0,-16,44,-50,63c0,0,-35,20,-101,20c0,0,-97,0,-153,-67c0,0,-56,-66,-56,-184V0Z" 
id="f0_2a"
transform="scale(0.001,-0.001)" />

<path d="M103,0V1107H237V0Z" 
id="f0_28"
transform="scale(0.001,-0.001)" />

<path d="M102,0V808H236V0Zm0,979v128H236V979Z" 
id="f0_25"
transform="scale(0.001,-0.001)" />

<path d="M643,478c0,0,-11,128,-65,187c0,0,-54,59,-154,59c0,0,-98,0,-155,-66c0,0,-57,-65,-62,-180ZM431,-14c0,0,-179,0,-272,106c0,0,-94,107,-94,317c0,0,0,200,94,307c0,0,93,106,267,106c0,0,356,0,356,-429V375H206c0,0,0,-138,57,-213c0,0,58,-75,168,-75c0,0,87,0,140,35c0,0,53,35,71,88L760,177c0,0,-72,-191,-329,-191Z" 
id="f0_21"
transform="scale(0.001,-0.001)" />

<path d="M17,0L304,415L31,808H179L380,493L580,808H730L457,417L747,0H598L380,331L162,0Z" 
id="f0_2k"
transform="scale(0.001,-0.001)" />

<path d="M339,87c0,0,74,0,132,34c0,0,57,33,90,91c0,0,34,59,34,121v66L448,396c0,0,-95,-2,-144,-19c0,0,-49,-18,-75,-55c0,0,-26,-38,-26,-98c0,0,0,-65,35,-101c0,0,36,-36,101,-36ZM309,-14c0,0,-122,0,-183,64c0,0,-61,64,-61,176c0,0,0,125,82,192c0,0,83,67,266,72l182,3v44c0,0,0,98,-42,141c0,0,-42,43,-132,43c0,0,-90,0,-131,-31c0,0,-41,-31,-49,-98L101,604c0,0,34,218,323,218c0,0,153,0,229,-70c0,0,77,-69,77,-202V202c0,0,0,-59,16,-90c0,0,16,-30,60,-30c0,0,19,0,44,5V4C850,4,799,-7,746,-7c0,0,-75,0,-109,38c0,0,-33,40,-38,124h-4C595,155,543,62,475,24c0,0,-68,-38,-166,-38Z" 
id="f0_1x"
transform="scale(0.001,-0.001)" />

<path d="M106,0V635c0,0,0,141,-5,173H228c0,0,1,-4,2,-21c0,0,1,-16,2,-37c0,0,1,-22,2,-81h2c0,0,44,86,100,120c0,0,56,33,136,33c0,0,92,0,145,-36c0,0,54,-37,75,-117h2c0,0,42,82,101,117c0,0,59,36,143,36c0,0,123,0,178,-66c0,0,56,-67,56,-218V0H1039V512c0,0,0,117,-32,162c0,0,-32,45,-116,45c0,0,-88,0,-136,-66c0,0,-49,-65,-49,-185V0H573V512c0,0,0,117,-32,162c0,0,-32,45,-116,45c0,0,-86,0,-136,-66c0,0,-50,-66,-50,-185V0Z" 
id="f0_29"
transform="scale(0.001,-0.001)" />

<path d="M453,84c0,0,100,0,146,74c0,0,46,73,46,247c0,0,0,169,-46,241c0,0,-45,73,-145,73c0,0,-80,0,-125,-34c0,0,-45,-34,-68,-105c0,0,-24,-71,-24,-186c0,0,0,-159,51,-234c0,0,51,-76,165,-76ZM103,-316V643c0,0,0,124,-5,165H228c0,0,1,-3,3,-22c0,0,1,-18,3,-56c0,0,2,-38,2,-52h3c0,0,36,75,94,110c0,0,59,34,156,34c0,0,149,0,223,-100c0,0,74,-100,74,-314c0,0,0,-422,-297,-422c0,0,-187,0,-251,140h-4c0,0,3,-6,3,-126V-316Z" 
id="f0_2c"
transform="scale(0.001,-0.001)" />

<path d="M420,84c0,0,121,0,173,78c0,0,52,77,52,243c0,0,0,167,-50,243c0,0,-50,76,-167,76c0,0,-118,0,-170,-78c0,0,-53,-77,-53,-241c0,0,0,-160,52,-241c0,0,52,-80,163,-80Zm1,-98c0,0,-176,0,-267,107c0,0,-90,108,-90,312c0,0,0,417,362,417c0,0,185,0,272,-102c0,0,88,-101,88,-315c0,0,0,-212,-94,-316C692,89,599,-14,421,-14Z" 
id="f0_2b"
transform="scale(0.001,-0.001)" />

<path d="M278,-11c0,0,-162,0,-162,182V710H23v98h99l39,181h90V808H400V710H251V200c0,0,0,-58,19,-82c0,0,19,-23,66,-23c0,0,27,0,77,10V6c0,0,-66,-17,-135,-17Z" 
id="f0_2g"
transform="scale(0.001,-0.001)" />

<path d="M431,0L102,922c0,0,-19,55,-51,110c0,0,-31,56,-86,135H386c0,0,-7,-41,-6,-71c0,0,1,-31,11,-63L581,398l219,635c0,0,12,33,14,63c0,0,3,30,-3,71h378c0,0,-33,-44,-61,-99c0,0,-29,-55,-67,-146L694,0Z" 
id="f1_1l"
transform="scale(0.001,-0.001)" />

<path d="M102,0c0,0,22,54,31,110c0,0,10,55,10,135V922c0,0,0,81,-10,136c0,0,-9,55,-31,109H823L766,1041L709,913c0,0,-42,20,-137,36c0,0,-62,9,-121,13V697H798L728,569L657,441c0,0,-45,21,-131,36c0,0,-38,8,-75,11V206c0,0,117,6,201,22c0,0,126,24,239,84L827,156L762,0Z" 
id="f1_14"
transform="scale(0.001,-0.001)" />

<path d="M452,645c0,0,85,0,139,47c0,0,54,47,54,121c0,0,0,66,-51,107c0,0,-51,42,-132,42H442V645ZM93,0c0,0,22,54,32,110c0,0,9,55,9,135V922c0,0,0,81,-9,136c0,0,-10,55,-32,109H498c0,0,215,0,332,-90c0,0,117,-90,117,-256c0,0,0,-159,-129,-253c0,0,-46,-34,-103,-54L902,246c0,0,57,-82,107,-137c0,0,50,-55,115,-109H803c0,0,-30,0,-104,83c0,0,-73,83,-149,202L442,461V246c0,0,0,-81,9,-136c0,0,10,-56,32,-110Z" 
id="f1_1h"
transform="scale(0.001,-0.001)" />

<path d="M319,0c0,0,22,54,31,110c0,0,10,55,10,135V518L134,922c0,0,-57,100,-95,155c0,0,-37,55,-71,90H351c0,0,4,-29,12,-53c0,0,7,-24,22,-54L517,787l152,273c0,0,14,25,23,49c0,0,9,24,16,58h354c0,0,-35,-33,-73,-88c0,0,-38,-56,-99,-157L668,536V245c0,0,0,-80,9,-135c0,0,9,-56,32,-110Z" 
id="f1_1o"
transform="scale(0.001,-0.001)" />

<path d="M367,-20c0,0,-85,0,-142,12C225,-8,167,2,83,35V332c0,0,41,-55,107,-90c0,0,66,-35,130,-35c0,0,51,0,84,31c0,0,32,31,32,81c0,0,0,49,-23,86c0,0,-22,37,-82,83c0,0,-126,98,-184,181c0,0,-57,82,-57,165c0,0,0,155,106,253c0,0,106,98,272,98c0,0,62,0,133,-13c0,0,71,-13,120,-33V867c0,0,-59,49,-104,70c0,0,-46,20,-94,20c0,0,-47,0,-76,-24c0,0,-29,-25,-29,-63c0,0,0,-41,20,-73c0,0,21,-31,75,-73c0,0,130,-101,189,-189c0,0,59,-87,59,-180c0,0,0,-165,-110,-270C651,85,541,-20,367,-20Z" 
id="f1_1i"
transform="scale(0.001,-0.001)" />

<path d="M99,0c0,0,22,54,32,110c0,0,9,55,9,135V922c0,0,0,81,-10,136c0,0,-9,55,-31,109H489c0,0,-23,-54,-32,-109c0,0,-9,-55,-9,-136V712H790V922c0,0,0,81,-9,136c0,0,-10,55,-32,109h390c0,0,-22,-54,-32,-109c0,0,-9,-55,-9,-136V245c0,0,0,-80,9,-135c0,0,10,-56,32,-110H749c0,0,22,54,32,110c0,0,9,55,9,135V478H448V245c0,0,0,-80,9,-135c0,0,9,-56,32,-110Z" 
id="f1_17"
transform="scale(0.001,-0.001)" />

<path d="M822,206c14,0,28,0,42,1c0,0,53,50,87,150c0,0,34,101,34,210c0,0,0,188,-132,297c0,0,-113,95,-296,95c-13,0,-27,-1,-42,-2c0,0,-53,-49,-86,-150c0,0,-34,-102,-34,-212c0,0,0,-186,132,-295c0,0,114,-94,295,-94ZM690,-20c0,0,-276,0,-452,168C238,148,63,317,63,581c0,0,0,266,175,435c0,0,176,169,452,169c0,0,277,0,452,-169c0,0,175,-169,175,-435c0,0,0,-264,-175,-433c0,0,-175,-168,-452,-168Z" 
id="f1_1e"
transform="scale(0.001,-0.001)" />

<path d="M289,0c0,0,26,60,37,116c0,0,9,55,9,129V961c0,0,-94,-3,-160,-9c0,0,-116,-13,-188,-44l41,130l41,129H981L946,1042L912,917c0,0,-45,18,-154,32c0,0,-58,8,-115,11V245c0,0,0,-74,11,-129c0,0,10,-56,35,-116Z" 
id="f1_1j"
transform="scale(0.001,-0.001)" />

<path d="M693,499L573,830L462,499ZM-39,0c0,0,33,42,61,97c0,0,30,55,71,148l314,761c0,0,22,51,38,98c0,0,15,47,17,63H721c0,0,2,-16,18,-63c0,0,15,-47,37,-98L1091,245c0,0,41,-95,70,-150c0,0,30,-55,60,-95H849c0,0,3,25,-3,55c0,0,-6,30,-24,80L765,295H393L340,135c0,0,-17,-50,-22,-80c0,0,-5,-30,-2,-55Z" 
id="f1_10"
transform="scale(0.001,-0.001)" />

<path d="M108,0c0,0,22,54,31,110c0,0,10,55,10,135V985L-5,1167H418c0,0,21,-44,54,-99c0,0,34,-55,96,-146L857,495V922c0,0,0,81,-9,136c0,0,-9,55,-32,109h378c0,0,-23,-54,-32,-109c0,0,-9,-55,-9,-136V351c0,0,0,-76,11,-178c0,0,11,-101,27,-173H845c0,0,-7,25,-28,67c0,0,-21,42,-45,78L444,628V245c0,0,0,-80,9,-135c0,0,10,-56,32,-110Z" 
id="f1_1d"
transform="scale(0.001,-0.001)" />

<path d="M324,0L78,922c0,0,-23,85,-44,140c0,0,-22,55,-50,105H376c0,0,-7,-56,-7,-99c0,0,1,-42,11,-89L479,513L610,998c0,0,11,42,21,91c0,0,10,49,13,78H861c0,0,4,-36,12,-85c0,0,9,-50,18,-84L1021,492l115,540c0,0,8,33,6,63c0,0,-1,31,-12,72h378c0,0,-30,-50,-52,-105c0,0,-21,-56,-45,-140L1166,0H925L741,597L565,0Z" 
id="f1_1m"
transform="scale(0.001,-0.001)" />

<path d="M462,650c0,0,82,0,133,46c0,0,52,47,52,119c0,0,0,65,-48,106c0,0,-49,41,-125,41H452V650ZM103,0c0,0,22,54,32,110c0,0,9,55,9,135V922c0,0,0,81,-10,136c0,0,-9,55,-31,109H505c0,0,212,0,327,-93c0,0,114,-94,114,-268c0,0,0,-166,-127,-264c0,0,-127,-97,-343,-97H452V246c0,0,0,-81,9,-136c0,0,9,-56,32,-110Z" 
id="f1_1f"
transform="scale(0.001,-0.001)" />

<path d="M821,206c13,0,26,0,40,1c0,0,53,33,86,127c0,0,34,94,34,210c0,0,0,198,-131,314c0,0,-114,101,-297,101c-13,0,-27,-1,-40,-2c0,0,-53,-49,-87,-144c0,0,-33,-95,-33,-195c0,0,0,-197,131,-312c0,0,115,-100,297,-100Zm413,-442c-84,0,-186,15,-288,68c0,0,-113,58,-202,151c0,0,-22,-3,-48,-3c-3,0,-6,0,-9,0c0,0,-276,0,-452,168C235,148,60,316,60,581c0,0,0,266,175,435c0,0,176,169,452,169c0,0,277,0,452,-169c0,0,175,-169,175,-435c0,0,0,-265,-176,-433c0,0,-29,-28,-59,-51c0,0,51,-79,111,-141c0,0,104,-109,233,-165c0,0,-78,-27,-189,-27Z" 
id="f1_1g"
transform="scale(0.001,-0.001)" />

<path d="M512,-17c0,0,-191,0,-285,112c0,0,-94,113,-93,341V922c0,0,0,81,-9,136c0,0,-10,55,-32,109H483c0,0,-22,-54,-32,-109c0,0,-9,-56,-9,-136V502c0,0,0,-147,43,-219c0,0,43,-72,130,-72c0,0,85,0,127,62c0,0,42,61,42,187V922c0,0,0,80,-9,136c0,0,-10,55,-32,109h390c0,0,-22,-54,-31,-109c0,0,-10,-55,-10,-136V245c0,0,0,-80,9,-135c0,0,10,-56,32,-110H815l6,86C821,86,703,-17,512,-17Z" 
id="f1_1k"
transform="scale(0.001,-0.001)" />

<path d="M105,0c0,0,22,54,32,110c0,0,9,55,9,135V922c0,0,0,80,-10,135c0,0,-9,55,-31,110H495c0,0,-23,-54,-32,-109c0,0,-9,-55,-9,-136V245c0,0,0,-80,9,-135c0,0,9,-56,32,-110Z" 
id="f1_18"
transform="scale(0.001,-0.001)" />

<path d="M449,-255c0,0,-184,222,-259,382c0,0,-75,160,-75,331c0,0,0,172,75,332c0,0,75,161,259,382H673c0,0,-156,-201,-220,-362c0,0,-64,-160,-64,-352c0,0,0,-192,64,-352c0,0,64,-160,220,-361Z" 
id="f1_b"
transform="scale(0.001,-0.001)" />

<path d="M335,0c0,0,23,55,32,110c0,0,9,55,9,136V811L199,810v3l443,366V246c0,0,0,-81,10,-136c0,0,9,-56,31,-110Z" 
id="f1_k"
transform="scale(0.001,-0.001)" />

<path d="M90,0c0,0,22,54,32,110c0,0,9,55,9,135V996L-14,1167H428c0,0,2,-38,9,-63c0,0,8,-24,24,-44L752,691l296,369c0,0,23,28,33,53c0,0,10,24,11,54h346c0,0,-50,-120,-70,-208c0,0,-20,-88,-20,-184V245c0,0,0,-80,10,-135c0,0,9,-56,31,-110H999c0,0,23,54,32,110c0,0,9,55,9,135V675L741,291h-1L441,681V245c0,0,0,-80,9,-135c0,0,10,-56,32,-110Z" 
id="f1_1c"
transform="scale(0.001,-0.001)" />

<path d="M353,173c0,0,38,1,64,11V333H296c0,0,-12,0,-24,-25c0,0,-13,-26,-13,-48c0,0,0,-44,24,-65c0,0,23,-22,70,-22ZM262,-17c0,0,-109,0,-177,60c0,0,-69,61,-69,157c0,0,0,91,66,162c0,0,66,71,188,111l147,48c0,0,-2,54,-34,84c0,0,-33,31,-95,31c0,0,-58,0,-95,-8c0,0,-37,-7,-90,-28l52,191c0,0,74,22,123,30c0,0,49,7,123,7c0,0,136,0,216,-74c0,0,80,-74,80,-199V246c0,0,0,-84,9,-139c0,0,8,-55,30,-107H422V86L291,-16l-29,-1Z" 
id="f1_1w"
transform="scale(0.001,-0.001)" />

<path d="M48,0c0,0,22,51,31,107c0,0,8,55,8,139V565c0,0,0,84,-9,139c0,0,-8,55,-30,107H368V661L513,815c0,0,36,13,65,13c0,0,21,0,36,-2c0,0,15,-1,41,-7L615,588c0,0,-29,14,-47,20c0,0,-19,5,-42,5c0,0,-59,0,-123,-54L368,524V246c0,0,0,-84,8,-139c0,0,9,-55,31,-107Z" 
id="f1_2d"
transform="scale(0.001,-0.001)" />

<path d="M49,0c0,0,22,51,30,106c0,0,9,55,9,139V875c0,0,0,84,-9,139c0,0,-8,55,-30,107l183,20l183,21c0,0,-26,-51,-36,-128c0,0,-10,-77,-10,-216V500L497,665c0,0,32,40,46,72c0,0,13,33,16,74H926c0,0,-26,-14,-94,-86c0,0,-67,-71,-206,-234L588,446L693,319c0,0,139,-167,201,-240c0,0,63,-72,77,-79H605c0,0,-17,31,-26,47c0,0,-10,16,-17,26L369,338V246c0,0,0,-84,8,-139c0,0,9,-56,31,-107Z" 
id="f1_26"
transform="scale(0.001,-0.001)" />

<path d="M115,-255c0,0,156,201,220,361c0,0,64,160,64,352c0,0,0,192,-64,352c0,0,-64,161,-220,362H339c0,0,184,-222,259,-383c0,0,75,-160,75,-331c0,0,0,-171,-75,-332c0,0,-75,-160,-259,-381Z" 
id="f1_c"
transform="scale(0.001,-0.001)" />

<path d="M406,0V763H155V870h2c16,0,114,2,178,48c0,0,70,51,104,157H549V0Z" 
id="f2_k"
transform="scale(0.001,-0.001)" />

<path d="M133,0V162H292V0Z" 
id="f2_h"
transform="scale(0.001,-0.001)" />

<path d="M139,0V1097H287V0Z" 
id="f2_18"
transform="scale(0.001,-0.001)" />

<path d="M132,0V687H22V799H132V935c0,0,0,88,52,133c0,0,52,45,157,45l59,-3V989l-53,2c0,0,-39,0,-60,-24c0,0,-21,-25,-21,-71V799H400V687H266V0Z" 
id="f2_21"
transform="scale(0.001,-0.001)" />

<path d="M424,-28c0,0,-180,0,-272,86c0,0,-92,87,-100,266H192c0,0,12,-126,66,-180c0,0,55,-54,170,-54c0,0,100,0,163,57c0,0,64,57,64,147c0,0,0,94,-61,149c0,0,-52,48,-135,54c0,0,-38,2,-72,2c0,0,-34,0,-45,-3V613c0,0,17,-3,51,-3c0,0,35,0,68,4c0,0,66,8,106,43c0,0,55,45,55,125c0,0,0,77,-58,125c0,0,-58,48,-148,48c0,0,-96,0,-147,-58c0,0,-51,-59,-56,-175H82c0,0,0,168,89,260c0,0,88,93,250,93c0,0,153,0,247,-77c0,0,94,-76,94,-202c0,0,0,-124,-95,-201c0,0,-18,-15,-39,-27c0,0,39,-17,69,-41c0,0,101,-79,101,-214c0,0,0,-151,-105,-246c0,0,-104,-95,-269,-95Z" 
id="f2_m"
transform="scale(0.001,-0.001)" />

<path d="M511,373V863L169,383l-7,-10ZM511,0V258H38V383l496,691H646V373H799V258H646V0Z" 
id="f2_n"
transform="scale(0.001,-0.001)" />

<path d="M417,-28c0,0,-161,0,-259,79c0,0,-98,81,-109,223H189c0,0,11,-90,72,-139c0,0,61,-49,162,-49c0,0,96,0,158,68c0,0,61,68,61,175c0,0,0,112,-64,178c0,0,-64,66,-173,66c0,0,-59,0,-115,-28c0,0,-55,-29,-84,-73L93,480l77,573H727V922H271L225,629l4,3c0,0,89,60,188,60c0,0,169,0,269,-94c0,0,99,-93,99,-253c0,0,0,-165,-103,-269C682,76,579,-28,417,-28Z" 
id="f2_o"
transform="scale(0.001,-0.001)" />

<path d="M133,-224v71c0,0,47,8,65,52c0,0,14,33,17,101H133V163H292V27c0,0,0,-114,-36,-172c0,0,-37,-58,-123,-79Z" 
id="f2_f"
transform="scale(0.001,-0.001)" />

<path d="M419,483c0,0,93,0,152,66c0,0,59,66,59,169c0,0,0,103,-59,169c0,0,-59,65,-152,65c0,0,-94,0,-153,-65c0,0,-59,-66,-59,-169c0,0,0,-103,59,-169c0,0,59,-66,153,-66ZM397,-28c0,0,-143,0,-227,75c0,0,-85,77,-91,211H209c0,0,8,-83,57,-128c0,0,49,-45,131,-45c0,0,121,0,186,135c0,0,48,101,62,265C645,485,545,362,397,362c0,0,-150,0,-241,98c0,0,-91,98,-91,258c0,0,0,160,99,258c0,0,99,98,262,98c0,0,173,0,266,-123c0,0,94,-123,94,-349c0,0,0,-303,-101,-467C685,135,583,-28,397,-28Z" 
id="f2_s"
transform="scale(0.001,-0.001)" />

<path d="M17,0L389,412L201,800H376L500,518L742,800H904L554,410L750,0H580L448,303L187,0Z" 
id="f3_2j"
transform="scale(0.001,-0.001)" />

<path d="M99,-328c0,0,-46,0,-76,13l25,123c0,0,29,-14,81,-14c0,0,47,0,76,31c0,0,28,31,106,162L185,800H339L415,141L769,800H918L456,0C456,0,329,-216,269,-272c0,0,-61,-56,-170,-56Z" 
id="f3_2k"
transform="scale(0.001,-0.001)" />

<path d="M355,0V355H0v72H355V784h72V427H782V355H427V0Z" 
id="f4_f"
transform="scale(0.001,-0.001)" />

<path d="M0,-123V1415H525v-72H72V-123Z" 
id="f4_4r"
transform="scale(0.001,-0.001)" />

<path d="M478,-123V1343H26v72H550V-123Z" 
id="f4_57"
transform="scale(0.001,-0.001)" />

<path d="M0,214v74H784V214ZM0,494v72H784V494Z" 
id="f4_x"
transform="scale(0.001,-0.001)" />

<path d="M0,-123V1415H72V-123Z" 
id="f4_4s"
transform="scale(0.001,-0.001)" />

<path d="M0,-123V1415H72V-123Z" 
id="f4_58"
transform="scale(0.001,-0.001)" />

<path d="M0,356v74H784V356Z" 
id="f4_h"
transform="scale(0.001,-0.001)" />

<path d="M0,-123V1415H72V-51H525v-72Z" 
id="f4_4t"
transform="scale(0.001,-0.001)" />

<path d="M26,-123v72H478V1415h72V-123Z" 
id="f4_59"
transform="scale(0.001,-0.001)" />

<path d="M104,0V799H238V0Zm-2,946v152H239V946Z" 
id="f2_24"
transform="scale(0.001,-0.001)" />

<path d="M99,0V799H226V681l30,39c0,0,87,102,219,102c0,0,132,0,203,-71c0,0,72,-72,72,-204V0H616V502c0,0,0,105,-41,151c0,0,-40,47,-132,47c0,0,-97,0,-154,-73c0,0,-56,-74,-56,-199V0Z" 
id="f2_29"
transform="scale(0.001,-0.001)" />

<path d="M411,93c0,0,98,0,158,73c0,0,60,74,60,195c0,0,0,163,-57,252c0,0,-56,88,-161,88c0,0,-113,0,-165,-72c0,0,-52,-72,-52,-229c0,0,0,-147,56,-227c0,0,56,-80,161,-80ZM404,-20c0,0,-161,0,-255,118c0,0,-95,120,-95,324c0,0,0,179,92,290c0,0,91,110,239,110c0,0,147,0,233,-124l11,-15v414H763V0H638V109L621,84C621,84,538,-20,404,-20Z" 
id="f2_1z"
transform="scale(0.001,-0.001)" />

<path d="M335,90c0,0,106,0,179,57c0,0,50,41,67,91c0,0,3,10,4,31c0,0,3,21,3,47v87c0,0,-38,-18,-83,-25L381,360c0,0,-97,-13,-142,-45c0,0,-44,-31,-44,-86c0,0,0,-67,36,-103c0,0,37,-36,104,-36ZM309,-20c0,0,-117,0,-186,61c0,0,-68,63,-68,169c0,0,0,108,64,171c0,0,65,64,189,79l183,23c0,0,22,3,42,8c0,0,26,7,40,27c0,0,15,20,15,51v6c0,0,0,64,-49,101c0,0,-48,36,-135,36c0,0,-83,0,-130,-38c0,0,-46,-39,-56,-115H94c0,0,10,131,92,197c0,0,83,66,238,66c0,0,145,0,222,-63c0,0,76,-63,76,-184V137c0,0,0,-21,12,-33c0,0,12,-12,33,-12c0,0,6,0,18,1c0,0,11,2,25,5V1c0,0,-20,-7,-41,-11c0,0,-22,-5,-37,-5c0,0,-76,0,-110,41c0,0,-22,28,-32,79c0,0,-15,-19,-34,-36c0,0,-101,-89,-247,-89Z" 
id="f2_1w"
transform="scale(0.001,-0.001)" />

<path d="M39,0V0c0,0,0,170,84,277c0,0,85,108,317,236c0,0,113,62,154,115c0,0,41,52,41,134c0,0,0,86,-62,141c0,0,-61,54,-156,54c0,0,-101,0,-158,-68c0,0,-57,-68,-60,-194H67c0,0,-2,178,95,279c0,0,98,101,273,101c0,0,149,0,245,-89c0,0,94,-88,94,-228c0,0,0,-118,-60,-195c0,0,-61,-76,-229,-169C485,394,303,294,237,212c0,0,-28,-36,-46,-81H774V0Z" 
id="f2_l"
transform="scale(0.001,-0.001)" />

<path d="M424,92c0,0,114,0,170,107c0,0,57,108,56,323c0,0,1,216,-56,324c0,0,-56,107,-170,107c0,0,-112,0,-168,-107c0,0,-56,-108,-57,-324c0,0,1,-215,57,-323c0,0,56,-107,168,-107Zm0,-120c0,0,-176,0,-271,142c0,0,-96,143,-96,408c0,0,0,265,96,409c0,0,95,144,271,144c0,0,178,0,273,-144c0,0,96,-144,96,-409c0,0,0,-265,-96,-408c0,0,-95,-142,-273,-142Z" 
id="f2_j"
transform="scale(0.001,-0.001)" />

<path d="M102,0L267,800H402L237,0ZM300,946l31,151H467L436,946Z" 
id="f3_24"
transform="scale(0.001,-0.001)" />

<path d="M780,449L714,934L435,449ZM22,0L673,1097H839L998,0H839L797,318H359L178,0Z" 
id="f3_10"
transform="scale(0.001,-0.001)" />

<path d="M617,129c0,0,118,0,194,71c0,0,75,70,75,182c0,0,1,59,-55,93c0,0,-56,34,-152,34H368L289,129Zm58,503c0,0,120,0,188,59c0,0,68,58,68,163c0,0,0,57,-50,85c0,0,-50,29,-146,29H462L393,632ZM113,0L340,1097H825c0,0,122,0,191,-55c0,0,69,-55,69,-153c0,0,0,-160,-113,-251c0,0,-35,-26,-77,-46c0,0,27,-12,52,-28c0,0,89,-61,89,-166c0,0,0,-171,-127,-285C909,113,782,0,591,0Z" 
id="f3_11"
transform="scale(0.001,-0.001)" />

<path d="M131,0V1097H891V966H280V631H814V500H280V0Z" 
id="f2_15"
transform="scale(0.001,-0.001)" />

<path d="M292,-9c0,0,-88,0,-124,38c0,0,-36,39,-36,134V689H22V799H132v224H266V799H392V689H266V163c0,0,0,-27,21,-43c0,0,21,-15,57,-15h48V1C392,1,324,-9,292,-9Z" 
id="f2_2f"
transform="scale(0.001,-0.001)" />

<path d="M99,0V1097H233V690l23,30c0,0,87,102,219,102c0,0,132,0,203,-71c0,0,72,-72,72,-204V0H616V514c0,0,0,99,-38,142c0,0,-38,44,-124,44c0,0,-102,0,-162,-73c0,0,-59,-74,-59,-199V0Z" 
id="f2_23"
transform="scale(0.001,-0.001)" />

<path d="M649,461c0,0,-6,111,-55,172c0,0,-55,69,-160,69c0,0,-106,0,-170,-79c0,0,-50,-62,-60,-162ZM425,-20c0,0,-169,0,-266,106c0,0,-97,107,-97,297c0,0,0,201,102,320c0,0,103,119,276,119c0,0,157,0,253,-116c0,0,96,-117,96,-306l-1,-48H204c0,0,8,-119,54,-182c0,0,57,-76,180,-76c0,0,77,0,134,43c0,0,58,43,70,110H775C775,247,746,116,656,47c0,0,-90,-67,-231,-67Z" 
id="f2_20"
transform="scale(0.001,-0.001)" />

<path d="M310,0L12,799H168L383,145L604,799H752L454,0Z" 
id="f2_2h"
transform="scale(0.001,-0.001)" />

<path d="M103,0V1097H237V0Z" 
id="f2_27"
transform="scale(0.001,-0.001)" />

<path d="M375,-20c0,0,-136,0,-203,66c0,0,-68,68,-68,204V799H238V284c0,0,0,-101,38,-146c0,0,39,-44,127,-44c0,0,97,0,153,75c0,0,57,75,57,203V799H747V0H620V122c0,0,-14,-22,-30,-41C590,81,504,-20,375,-20Z" 
id="f2_2g"
transform="scale(0.001,-0.001)" />

<path d="M424,94c0,0,107,0,169,83c0,0,63,83,63,223c0,0,0,140,-63,224c0,0,-62,83,-169,83c0,0,-106,0,-168,-83c0,0,-62,-84,-62,-224c0,0,0,-140,62,-223c0,0,62,-83,168,-83Zm0,-114c0,0,-165,0,-268,115C156,95,54,211,54,400c0,0,0,189,102,306c0,0,103,116,268,116c0,0,168,0,270,-116c0,0,102,-117,102,-306c0,0,0,-189,-102,-305C694,95,592,-20,424,-20Z" 
id="f2_2a"
transform="scale(0.001,-0.001)" />

<path d="M354,90c0,0,107,0,192,57c0,0,60,41,87,95c0,0,5,12,11,33c0,0,6,20,11,44l18,88c0,0,-62,-26,-132,-37L414,352c0,0,-84,-11,-131,-56c0,0,-47,-45,-47,-113c0,0,0,-44,31,-69c0,0,31,-24,87,-24ZM306,-20c0,0,-99,0,-156,47c0,0,-57,49,-57,134c0,0,1,117,81,198c0,0,80,81,211,98l164,20l70,10c0,0,35,6,59,30c0,0,23,24,31,66l1,2c0,0,13,64,-25,94c0,0,-39,31,-132,31c0,0,-83,0,-137,-37c0,0,-54,-37,-84,-114H210c0,0,46,137,138,201c0,0,92,63,245,63c0,0,149,0,211,-59c0,0,45,-44,44,-116c0,0,1,-30,-6,-63L749,136c0,0,-4,-19,6,-32c0,0,10,-12,30,-12c0,0,6,0,19,1c0,0,12,2,25,5L809,1c0,0,-19,-6,-43,-11c0,0,-22,-5,-36,-5c0,0,-73,0,-100,43c0,0,-16,27,-17,75C612,102,594,85,573,69c0,0,-120,-89,-267,-89Z" 
id="f3_1w"
transform="scale(0.001,-0.001)" />

<path d="M390,-1V329H60V441H390V771H503V441H833V329H503V-1Z" 
id="f2_e"
transform="scale(0.001,-0.001)" />

<path d="M99,0V799H226V680l28,36c0,0,90,106,215,106c0,0,107,0,171,-63c0,0,28,-28,44,-65l21,28c0,0,87,100,208,100c0,0,125,0,194,-68c0,0,68,-68,68,-194V0H1041V515c0,0,0,91,-37,138c0,0,-38,47,-110,47c0,0,-87,0,-139,-68c0,0,-52,-68,-52,-183V0H569V547c0,0,0,75,-34,114c0,0,-34,39,-99,39c0,0,-89,0,-146,-76c0,0,-57,-76,-57,-196V0Z" 
id="f2_28"
transform="scale(0.001,-0.001)" />

<path d="M118,0V799H246V662c0,0,17,32,36,58c0,0,76,102,187,102c0,0,19,0,38,-6V679l-27,1c0,0,-109,0,-168,-66c0,0,-60,-65,-60,-186V0Z" 
id="f2_2d"
transform="scale(0.001,-0.001)" />

<path d="M17,0L301,412L32,799H205L389,514L574,799H740L471,410L749,0H581L382,305L186,0Z" 
id="f2_2j"
transform="scale(0.001,-0.001)" />

<path d="M60,174V286H832V174Zm0,309V595H832V483Z" 
id="f2_w"
transform="scale(0.001,-0.001)" />

<path d="M96,-299V1104H382V995H217V-191H382V-299Z" 
id="f2_1q"
transform="scale(0.001,-0.001)" />

<path d="M-33,-321c0,0,-31,0,-57,4l25,117h26c0,0,60,0,83,18c0,0,22,18,34,75L265,800H400L213,-107c0,0,-24,-117,-81,-166c0,0,-55,-48,-165,-48ZM298,946l32,151H465L434,946Z" 
id="f3_25"
transform="scale(0.001,-0.001)" />

<path d="M42,-299v108H207V995H42v109H329V-299Z" 
id="f2_1s"
transform="scale(0.001,-0.001)" />

<path d="M139,0L60,78L366,384L60,690l79,79L444,463L750,769l79,-79L523,384L829,78L750,0L444,305L139,0Z" 
id="f2_4r"
transform="scale(0.001,-0.001)" />

<path d="M248,0L21,799H169L322,163L478,799H627L788,158L950,799h133L857,0H713L548,624L392,0Z" 
id="f2_2i"
transform="scale(0.001,-0.001)" />

<path d="M0,368V478H849V368Z" 
id="f2_99"
transform="scale(0.001,-0.001)" />

<path d="M45,0V81L673,391L45,704v80L795,412V374L45,0Z" 
id="f4_y"
transform="scale(0.001,-0.001)" />

<path d="M0,-123V985c0,0,0,202,88,304c0,0,88,101,278,126v-33c0,0,-112,-27,-179,-86c0,0,-67,-59,-91,-136c0,0,-24,-76,-24,-252V-123Z" 
id="f4_4u"
transform="scale(0.001,-0.001)" />

<path d="M293,-123V191c0,0,0,200,-67,292c0,0,-67,92,-226,135v57c0,0,159,44,226,135c0,0,67,92,67,292v313h73V1088c0,0,0,-108,-23,-189c0,0,-22,-80,-61,-127c0,0,-39,-46,-95,-75c0,0,-56,-28,-153,-51c0,0,97,-21,157,-52c0,0,61,-31,99,-82c0,0,39,-51,57,-125c0,0,19,-74,19,-180V-123Z" 
id="f4_4v"
transform="scale(0.001,-0.001)" />

<path d="M0,0V72H751V0ZM751,166L0,538v38L751,949V868L123,559L751,247V166Z" 
id="f4_2t"
transform="scale(0.001,-0.001)" />

<path d="M679,-123c0,0,-190,24,-278,124c0,0,-88,101,-88,305V1415h72V383c0,0,0,-111,12,-191c0,0,11,-79,46,-133c0,0,35,-53,94,-91c0,0,59,-39,142,-58v-33Z" 
id="f4_4w"
transform="scale(0.001,-0.001)" />

<path d="M436,95c0,0,105,0,160,79c0,0,54,80,54,232c0,0,0,150,-52,222c0,0,-52,72,-161,72c0,0,-112,0,-163,-81c0,0,-51,-82,-51,-258c0,0,0,-127,55,-197c0,0,55,-69,158,-69Zm6,-115c0,0,-135,0,-215,102L215,98V0H89V1097H223V695c0,0,87,127,225,127c1,0,2,0,2,0c0,0,157,0,249,-108c0,0,91,-107,91,-291c0,0,0,-208,-92,-326C698,97,606,-20,442,-20Z" 
id="f2_1x"
transform="scale(0.001,-0.001)" />

<path d="M152,-323c-8,0,-38,1,-63,8v125c0,0,30,-11,77,-12c0,0,45,0,76,37c0,0,30,38,69,140l2,12v1L17,799H170L383,139L600,799H747L443,-25c0,0,-70,-184,-125,-241c0,0,-55,-57,-164,-57c0,0,-1,0,-2,0Z" 
id="f2_2k"
transform="scale(0.001,-0.001)" />

<path d="M436,95c0,0,105,0,160,79c0,0,54,80,54,232c0,0,0,150,-52,222c0,0,-52,72,-161,72c0,0,-112,0,-163,-81c0,0,-51,-82,-51,-258c0,0,0,-127,55,-197c0,0,55,-69,158,-69ZM89,-315V799H216V685l7,10c0,0,86,127,228,127c0,0,156,0,248,-108c0,0,91,-107,91,-291c0,0,0,-208,-92,-326C698,97,606,-20,442,-20c0,0,-135,0,-215,102l-4,6V-315Z" 
id="f2_2b"
transform="scale(0.001,-0.001)" />

<path d="M393,-20c0,0,-169,0,-252,65c0,0,-83,67,-92,210H178c0,0,10,-85,61,-123c0,0,50,-38,154,-38c0,0,90,0,136,34c0,0,47,35,47,100c0,0,0,42,-31,64c0,0,-30,21,-123,43L283,368c0,0,-112,27,-160,75c0,0,-48,48,-48,135c0,0,0,112,80,178c0,0,81,66,218,66c0,0,140,0,222,-68c0,0,82,-67,88,-187H557c0,0,-6,67,-55,103c0,0,-48,37,-129,37c0,0,-84,0,-127,-29c0,0,-44,-29,-44,-85c0,0,0,-43,31,-65c0,0,30,-21,121,-43L493,452c0,0,117,-28,167,-78c0,0,49,-49,49,-138c0,0,0,-119,-86,-188c0,0,-85,-68,-230,-68Z" 
id="f2_2e"
transform="scale(0.001,-0.001)" />

<path d="M394,-20c0,0,-159,0,-253,113c0,0,-95,114,-95,307c0,0,0,193,98,308c0,0,98,114,264,114c0,0,144,0,230,-78c0,0,85,-79,91,-217H600c0,0,-8,86,-59,133c0,0,-52,47,-138,47c0,0,-101,0,-159,-82c0,0,-58,-82,-58,-225c0,0,0,-152,54,-229c0,0,53,-77,159,-77c0,0,79,0,132,50c0,0,52,51,69,143H729C729,287,709,137,623,58c0,0,-86,-78,-229,-78Z" 
id="f2_1y"
transform="scale(0.001,-0.001)" />

<path d="M432,92c0,0,96,0,156,66c0,0,61,65,61,169c0,0,0,103,-61,169c0,0,-60,66,-156,66c0,0,-95,0,-156,-66c0,0,-61,-66,-61,-169c0,0,0,-104,61,-169c0,0,61,-66,156,-66ZM425,-28c0,0,-176,0,-271,135c0,0,-95,136,-95,388c0,0,0,278,103,429c0,0,103,151,293,151c0,0,142,0,226,-77c0,0,84,-76,90,-211H638c0,0,-8,80,-56,123c0,0,-47,43,-127,43c0,0,-125,0,-192,-119c0,0,-58,-102,-64,-278c0,0,100,127,255,127c0,0,152,0,245,-98c0,0,93,-98,93,-258c0,0,0,-161,-101,-259c0,0,-101,-96,-266,-96Z" 
id="f2_p"
transform="scale(0.001,-0.001)" />

<path d="M412,-328c0,0,-195,96,-303,284C109,-44,0,142,0,365c0,0,0,232,114,422c0,0,114,191,298,273v-31c0,0,-92,-51,-151,-139c0,0,-59,-88,-88,-223c0,0,-29,-136,-29,-282c0,0,0,-167,27,-301c0,0,26,-133,82,-221c0,0,55,-89,159,-159v-32Z" 
id="f4_c"
transform="scale(0.001,-0.001)" />

<path d="M34,-328v32c0,0,92,50,151,138c0,0,59,88,88,222c0,0,29,135,29,283c0,0,0,165,-27,300c0,0,-26,134,-82,222c0,0,-56,89,-159,160v31c0,0,194,-96,303,-284c0,0,108,-187,108,-410c0,0,0,-232,-114,-422c0,0,-114,-191,-297,-272Z" 
id="f4_d"
transform="scale(0.001,-0.001)" />

<path d="M212,0c0,0,51,270,162,500c0,0,109,222,281,422H57v131H799V934C799,934,623,726,515,498C515,498,408,269,362,0Z" 
id="f2_q"
transform="scale(0.001,-0.001)" />

<path d="M187,905l135,216H487L290,905Z" 
id="f2_3e"
transform="scale(0.001,-0.001)" />

<path d="M96,177l23,112H892L869,177Zm63,307l23,112H955L932,484Z" 
id="f3_w"
transform="scale(0.001,-0.001)" />

<path d="M424,92c0,0,98,0,161,58c0,0,62,58,62,149c0,0,0,92,-62,151c0,0,-63,58,-161,58c0,0,-98,0,-160,-58c0,0,-63,-59,-63,-151c0,0,0,-91,63,-149c0,0,62,-58,160,-58Zm0,533c0,0,82,0,134,46c0,0,52,45,52,118c0,0,0,72,-52,118c0,0,-52,46,-134,46c0,0,-82,0,-134,-46c0,0,-52,-46,-52,-118c0,0,0,-73,52,-119c0,0,52,-45,134,-45Zm0,-653c0,0,-165,0,-265,90C159,62,59,154,59,305c0,0,0,134,100,216c0,0,35,28,78,47c0,0,-27,15,-52,33c0,0,-90,70,-90,185c0,0,0,130,90,209c0,0,91,80,239,80c0,0,148,0,238,-80c0,0,91,-79,91,-209c0,0,0,-115,-91,-185c0,0,-24,-19,-52,-32c0,0,44,-20,79,-49c0,0,101,-81,101,-215c0,0,0,-151,-101,-243c0,0,-100,-90,-265,-90Z" 
id="f2_r"
transform="scale(0.001,-0.001)" />

<path d="M103,0V1097H237V465L574,799H745L441,503L765,0H590L342,406L237,303V0Z" 
id="f2_26"
transform="scale(0.001,-0.001)" />

<path d="M695,589c0,0,126,0,201,68c0,0,74,69,74,186c0,0,0,59,-46,92c0,0,-46,33,-129,33H480L401,589ZM131,0L358,1097H864c0,0,120,0,189,-64c0,0,69,-64,69,-175c0,0,0,-167,-116,-283c0,0,-115,-115,-282,-115H375L280,0Z" 
id="f3_1f"
transform="scale(0.001,-0.001)" />

<path d="M615,99c0,0,92,1,173,35L685,227l92,93L900,209c0,0,33,29,62,64c0,0,144,173,144,414c0,0,0,145,-82,228c0,0,-81,83,-223,83c0,0,-200,0,-343,-171C458,827,314,656,314,418c0,0,-1,-148,80,-234c0,0,81,-85,221,-85ZM1023,-76L889,44c0,0,-135,-73,-300,-73c0,0,-199,0,-314,111c0,0,-115,113,-115,308c0,0,0,310,194,524c0,0,193,213,474,213c0,0,200,0,316,-109c0,0,116,-109,116,-296v-3c0,0,0,-315,-195,-532c0,0,-33,-37,-68,-67L1116,11l-93,-87Z" 
id="f3_1g"
transform="scale(0.001,-0.001)" />

<path d="M67,354V492H442V354Z" 
id="f2_g"
transform="scale(0.001,-0.001)" />

<path d="M571,-29c0,0,-231,0,-367,153C204,124,67,279,67,543c0,0,0,268,137,426c0,0,136,158,367,158c0,0,195,0,324,-105c0,0,128,-106,150,-287H816c0,0,-11,89,-76,142c0,0,-65,52,-166,52c0,0,-128,0,-200,-102c0,0,-73,-102,-73,-283c0,0,0,-176,72,-276c0,0,72,-100,201,-100c0,0,101,0,166,58c0,0,65,58,76,157h229c0,0,-21,-190,-149,-302C896,81,769,-29,571,-29Z" 
id="f5_12"
transform="scale(0.001,-0.001)" />

<path d="M109,0V1097H337V685H767v412H995V0H767V497H337V0Z" 
id="f5_17"
transform="scale(0.001,-0.001)" />

<path d="M695,412L549,853h-1L403,412ZM31,0L419,1097H684L1072,0H829L756,223H339L267,0Z" 
id="f5_10"
transform="scale(0.001,-0.001)" />

<path d="M537,581c0,0,96,0,144,42c0,0,48,43,48,129c0,0,0,78,-48,117c0,0,-48,39,-144,39H345V581ZM116,0V1097H575c0,0,188,0,285,-88c0,0,98,-87,98,-255c0,0,0,-178,-98,-270c0,0,-97,-92,-285,-92c0,0,-21,0,-53,0c-47,0,-119,-1,-177,-2V0Z" 
id="f5_1f"
transform="scale(0.001,-0.001)" />

<path d="M353,0V903H22v194H913V903H582V0Z" 
id="f5_1j"
transform="scale(0.001,-0.001)" />

<path d="M116,0V1097H923V903H345V670H881V481H345V195H948V0Z" 
id="f5_14"
transform="scale(0.001,-0.001)" />

<path d="M611,618c0,0,89,0,134,36c0,0,44,36,44,110c0,0,0,72,-42,108c0,0,-42,36,-127,36H345V618ZM116,0V1097H669c0,0,157,0,253,-84c0,0,96,-84,96,-221c0,0,0,-158,-107,-231c0,0,-28,-20,-64,-33c0,0,20,-8,37,-18c0,0,94,-56,97,-188l6,-180c0,0,1,-53,11,-76c0,0,9,-22,37,-36V1H782c0,0,-9,17,-16,74c0,0,-6,56,-7,121l-1,101c0,0,-2,74,-44,106c0,0,-42,31,-140,31H345V0Z" 
id="f5_1h"
transform="scale(0.001,-0.001)" />

<path d="M415,-27c0,0,-177,0,-274,91c0,0,-98,93,-100,265H249c0,0,2,-92,42,-140c0,0,40,-48,115,-48c0,0,73,0,117,48c0,0,45,49,45,128c0,0,0,70,-45,112c0,0,-39,37,-99,41c0,0,-34,3,-63,3c0,0,-1,0,-4,0c-9,0,-26,0,-32,-2V629c0,0,4,-1,18,-1c5,0,12,0,20,1c0,0,29,1,61,5c0,0,51,6,81,35c0,0,37,36,37,102c0,0,0,64,-37,103c0,0,-36,39,-97,39c0,0,-70,0,-108,-44c0,0,-38,-45,-40,-127H64c0,0,2,166,95,256c0,0,94,90,264,90c0,0,146,0,239,-85c0,0,93,-85,93,-219c0,0,0,-115,-96,-189L630,575c0,0,37,-14,65,-37c0,0,93,-72,93,-218c0,0,0,-160,-101,-254c0,0,-101,-93,-272,-93Z" 
id="f5_m"
transform="scale(0.001,-0.001)" />

<path d="M461,151c0,0,51,0,100,28c0,0,31,18,68,50l-67,81L424,480c0,0,-41,-30,-69,-57c0,0,-57,-59,-57,-127c0,0,0,-68,43,-107c0,0,43,-38,120,-38Zm34,550c0,0,31,22,54,44c0,0,47,48,47,94c0,0,0,45,-24,71c0,0,-24,25,-66,25c0,0,-43,0,-66,-23c0,0,-24,-23,-24,-64c0,0,0,-23,9,-48c0,0,9,-25,27,-45l43,-54ZM431,-23c0,0,-160,0,-254,82c0,0,-94,83,-94,225c0,0,0,121,72,206c0,0,51,60,161,126l-6,7c0,0,-41,49,-65,106c0,0,-24,56,-24,103c0,0,0,122,78,193c0,0,77,72,210,72c0,0,122,0,194,-70c0,0,72,-70,72,-189c0,0,0,-88,-60,-159c0,0,-43,-51,-123,-99L754,383l15,29c0,0,38,79,46,157h188c0,0,-10,-110,-65,-224c0,0,-28,-59,-63,-109L1072,0H818L743,89C743,89,681,35,628,11c0,0,-76,-34,-197,-34Z" 
id="f5_9"
transform="scale(0.001,-0.001)" />

<path d="M471,410V862L208,425l-9,-15ZM471,0V240H41V425l402,662H682V410H804V240H682V0Z" 
id="f5_n"
transform="scale(0.001,-0.001)" />

<path d="M106,0V1097H441L641,228l197,869h331V0H955V922L750,0H525L320,943V0Z" 
id="f5_1c"
transform="scale(0.001,-0.001)" />

<path d="M98,0V1097H327V0Z" 
id="f5_18"
transform="scale(0.001,-0.001)" />

<path d="M510,-29c0,0,-208,0,-325,95C185,66,68,162,59,339H280c0,0,4,-87,64,-134c0,0,59,-47,166,-47c0,0,109,0,171,36c0,0,61,35,61,98c0,0,0,62,-44,91c0,0,-43,30,-185,61c0,0,-261,58,-348,126c0,0,-88,67,-88,210c0,0,0,160,116,254c0,0,115,93,312,93c0,0,184,0,300,-97c0,0,115,-97,128,-261H710c0,0,-6,78,-68,124c0,0,-63,46,-163,46c0,0,-87,0,-137,-39c0,0,-49,-38,-49,-107c0,0,0,-49,52,-76c0,0,50,-27,215,-64c0,0,239,-54,320,-124c0,0,80,-69,80,-223c0,0,0,-155,-121,-246c0,0,-122,-89,-329,-89Z" 
id="f5_1i"
transform="scale(0.001,-0.001)" />

<path d="M106,0V1097H346L786,327v770h214V0H772L320,790V0Z" 
id="f5_1d"
transform="scale(0.001,-0.001)" />

<path d="M538,189c0,0,140,0,210,94c0,0,69,95,69,283c0,0,0,171,-64,257c0,0,-65,85,-196,85H345V189ZM116,0V1097H585c0,0,226,0,344,-133c0,0,117,-133,117,-389c0,0,0,-282,-122,-428C924,147,802,0,567,0Z" 
id="f5_13"
transform="scale(0.001,-0.001)" />

<path d="M435,0V856c0,0,-48,-47,-127,-93c0,0,-79,-46,-142,-69V824c0,0,113,52,197,128c0,0,85,75,120,146h86V0Z" 
id="f6_l"
transform="scale(0.001,-0.001)" />

<path d="M125,0V1051H268V115H799V0Z" 
id="f0_1c"
transform="scale(0.001,-0.001)" />

<path d="M106,0V620c0,0,0,85,-5,188H228c0,0,6,-138,6,-165h3c0,0,32,103,74,141c0,0,42,38,118,38c0,0,27,0,54,-7V692c0,0,-26,7,-71,7c0,0,-84,0,-128,-72c0,0,-44,-72,-44,-206V0Z" 
id="f0_2e"
transform="scale(0.001,-0.001)" />

<path d="M606,-14c0,0,-164,0,-284,65c0,0,-119,66,-182,189c0,0,-63,123,-63,291c0,0,0,255,137,396c0,0,137,140,386,140c0,0,174,0,283,-59c0,0,109,-59,168,-189L915,779c0,0,-44,90,-123,131c0,0,-79,41,-196,41c0,0,-182,0,-278,-110c0,0,-96,-110,-96,-310c0,0,0,-200,102,-315c0,0,102,-115,282,-115c0,0,103,0,193,31c0,0,89,31,144,85V407H629V526h445V164c0,0,-83,-85,-205,-132c0,0,-121,-46,-263,-46Z" 
id="f0_17"
transform="scale(0.001,-0.001)" />

<path d="M355,-14c0,0,-133,0,-194,65c0,0,-62,66,-62,219V808H234V296c0,0,0,-80,16,-124c0,0,16,-44,50,-64c0,0,34,-19,101,-19c0,0,97,0,153,66c0,0,55,67,55,185V808H744V172c0,0,0,-141,4,-172H621c0,0,0,4,-1,20c0,0,-1,17,-2,38c0,0,-1,21,-3,80h-2C613,138,567,55,506,20c0,0,-61,-34,-151,-34Z" 
id="f0_2h"
transform="scale(0.001,-0.001)" />

<path d="M395,89c0,0,115,0,166,79c0,0,51,79,51,246c0,0,0,160,-51,235c0,0,-51,75,-164,75c0,0,-102,0,-147,-75c0,0,-45,-75,-45,-244c0,0,0,-170,45,-243c0,0,45,-73,145,-73ZM361,-14c0,0,-153,0,-225,102c0,0,-72,103,-72,312c0,0,0,422,297,422c0,0,92,0,153,-33c0,0,61,-34,98,-107h2l-2,90v335H747V166c0,0,0,-126,4,-166H623c0,0,-2,12,-5,55c0,0,-3,44,-3,75h-3c0,0,-37,-78,-98,-111c0,0,-62,-33,-153,-33Z" 
id="f0_20"
transform="scale(0.001,-0.001)" />

<path d="M140,0V163H285V0Z" 
id="f0_i"
transform="scale(0.001,-0.001)" />


</defs>
</svg>