<?xml version="1.0" encoding="UTF-8" standalone="no"?>
<!DOCTYPE svg PUBLIC "-//W3C//DTD SVG 1.1//EN"
"http://www.w3.org/Graphics/SVG/1.1/DTD/svg11.dtd">
<svg viewBox="0 0 811 1133" version="1.1" xmlns="http://www.w3.org/2000/svg" xmlns:xlink="http://www.w3.org/1999/xlink">
<defs>
<style type="text/css"><![CDATA[
.g0_74{
fill: none;
stroke: #000000;
stroke-width: 1.0530361;
stroke-linecap: round;
stroke-linejoin: miter;
}
.g1_74{
fill: none;
stroke: #000000;
stroke-width: 1.0479945;
stroke-linecap: round;
stroke-linejoin: miter;
}
.g2_74{
fill: none;
stroke: #000000;
stroke-width: 0.15277778;
stroke-linecap: round;
stroke-linejoin: miter;
}
.g3_74{
}
.g4_74{
fill: none;
stroke: #000000;
stroke-width: 1.0459778;
stroke-linecap: round;
stroke-linejoin: miter;
}
.g5_74{
fill: none;
stroke: #000000;
stroke-width: 1.0503472;
stroke-linecap: round;
stroke-linejoin: miter;
}
.g6_74{
fill: none;
stroke: #000000;
stroke-width: 0.7638889;
stroke-linecap: round;
stroke-linejoin: miter;
}
.g7_74{
fill: none;
stroke: #000000;
stroke-width: 0.76217777;
stroke-linecap: round;
stroke-linejoin: miter;
}
.g8_74{
fill: none;
stroke: #000000;
stroke-width: 0.7629111;
stroke-linecap: round;
stroke-linejoin: miter;
}
.g9_74{
fill: none;
stroke: #000000;
stroke-width: 0.7624222;
stroke-linecap: round;
stroke-linejoin: miter;
}
]]></style>
</defs>
<g fill="#D4D4D4" fill-opacity="0.56" >
<use xlink:href="#f0_1f" transform="matrix(50.9,-50.9,50.9,50.9,199.9,924.1)" />
<use xlink:href="#f0_2a" transform="matrix(50.9,-50.9,50.9,50.9,260.4,863.6)" />
<use xlink:href="#f0_28" transform="matrix(50.9,-50.9,50.9,50.9,303.7,820.3)" />
<use xlink:href="#f0_25" transform="matrix(50.9,-50.9,50.9,50.9,320.9,803.1)" />
<use xlink:href="#f0_2a" transform="matrix(50.9,-50.9,50.9,50.9,338.2,785.8)" />
<use xlink:href="#f0_21" transform="matrix(50.9,-50.9,50.9,50.9,381.4,742.5)" />
<use xlink:href="#f0_2k" transform="matrix(50.9,-50.9,50.9,50.9,424.7,699.3)" />
<use xlink:href="#f0_1x" transform="matrix(50.9,-50.9,50.9,50.9,463.6,660.4)" />
<use xlink:href="#f0_29" transform="matrix(50.9,-50.9,50.9,50.9,506.8,617.2)" />
<use xlink:href="#f0_2c" transform="matrix(50.9,-50.9,50.9,50.9,571.6,552.4)" />
<use xlink:href="#f0_2b" transform="matrix(50.9,-50.9,50.9,50.9,614.9,509.1)" />
<use xlink:href="#f0_25" transform="matrix(50.9,-50.9,50.9,50.9,658.1,465.9)" />
<use xlink:href="#f0_2a" transform="matrix(50.9,-50.9,50.9,50.9,675.4,448.6)" />
<use xlink:href="#f0_2g" transform="matrix(50.9,-50.9,50.9,50.9,718.6,405.4)" />
</g>
<g fill="#000000" >
<use xlink:href="#f1_b" transform="matrix(10.4,0,0,10.4,184.2,76.1)" />
<use xlink:href="#f1_24" transform="matrix(10.4,0,0,10.4,189.5,76.1)" />
<use xlink:href="#f1_2h" transform="matrix(10.4,0,0,10.4,193.1,76.1)" />
<use xlink:href="#f1_c" transform="matrix(10.4,0,0,10.4,201.1,76.1)" />
</g>
<path d="M228,69.4H340.1" class="g0_74" />
<g fill="#000000" >
<use xlink:href="#f1_2e" transform="matrix(10.4,0,0,10.4,229.1,63.3)" />
<use xlink:href="#f1_24" transform="matrix(10.4,0,0,10.4,237.1,63.3)" />
<use xlink:href="#f1_29" transform="matrix(10.4,0,0,10.4,240.6,63.3)" />
<use xlink:href="#f1_1y" transform="matrix(10.4,0,0,10.4,299.5,63.3)" />
<use xlink:href="#f1_2a" transform="matrix(10.4,0,0,10.4,307.5,63.3)" />
<use xlink:href="#f1_2e" transform="matrix(10.4,0,0,10.4,316.5,63.3)" />
<use xlink:href="#f1_2e" transform="matrix(10.4,0,0,10.4,243.2,85.8)" />
<use xlink:href="#f1_24" transform="matrix(10.4,0,0,10.4,251.1,85.8)" />
<use xlink:href="#f1_29" transform="matrix(10.4,0,0,10.4,254.7,85.8)" />
<use xlink:href="#f1_1y" transform="matrix(10.4,0,0,10.4,299.6,85.8)" />
<use xlink:href="#f1_2a" transform="matrix(10.4,0,0,10.4,307.6,85.8)" />
<use xlink:href="#f1_2e" transform="matrix(10.4,0,0,10.4,316.6,85.8)" />
<use xlink:href="#f2_2j" transform="matrix(10.4,0,0,10.4,253.3,63.3)" />
<use xlink:href="#f2_2j" transform="matrix(10.4,0,0,10.4,285.5,63.3)" />
<use xlink:href="#f2_2j" transform="matrix(10.4,0,0,10.4,329,63.3)" />
<use xlink:href="#f2_1y" transform="matrix(10.4,0,0,10.4,362.1,73.6)" />
<use xlink:href="#f2_2j" transform="matrix(10.4,0,0,10.4,229.2,85.8)" />
<use xlink:href="#f2_2j" transform="matrix(10.4,0,0,10.4,267.3,85.8)" />
<use xlink:href="#f2_2j" transform="matrix(10.4,0,0,10.4,329.1,85.8)" />
<use xlink:href="#f3_h" transform="matrix(10.4,0,0,10.4,269.9,63.3)" />
<use xlink:href="#f3_f" transform="matrix(10.4,0,0,10.4,347.2,73.6)" />
<use xlink:href="#f3_f" transform="matrix(10.4,0,0,10.4,283.9,85.8)" />
<use xlink:href="#f1_b" transform="matrix(10.4,0,0,10.4,187.9,134.9)" />
<use xlink:href="#f1_2h" transform="matrix(10.4,0,0,10.4,193.2,134.9)" />
<use xlink:href="#f1_c" transform="matrix(10.4,0,0,10.4,201.4,134.9)" />
<use xlink:href="#f3_c" transform="matrix(10.6,0,0,12.2,227.2,131.2)" />
<use xlink:href="#f3_d" transform="matrix(10.6,0,0,12.2,276.6,131.2)" />
</g>
<path d="M335.9,128.7h12" class="g1_74" />
<path d="M325.3,133.9l1.4,-2.2l4,15.5L335,106.7h14.5" class="g2_74" />
<path fill-rule="evenodd" d="M325.1,133.7l2.1,-2.8l3.5,13.1l4,-37.7h14.8v.8H335.3l-4.2,40.1h-.8l-4,-14.5l-.8,1.3l-.4,-.3Z" class="g3_74" />
<path d="M372.7,129l1.5,-.9l4,6.6l4.2,-17.5h19.8" class="g2_74" />
<path fill-rule="evenodd" d="M372.6,128.9l2.1,-1.3l3.5,5.5l4,-16.3h20v.8H382.7l-4.1,17.1h-.8l-3.9,-6.1l-1.1,.7l-.2,-.4Z" class="g3_74" />
<g fill="#000000" >
<use xlink:href="#f1_k" transform="matrix(7.5,0,0,7.4,314.2,125.7)" />
<use xlink:href="#f1_2f" transform="matrix(10.6,0,0,10.6,285.8,132.9)" />
<use xlink:href="#f1_1w" transform="matrix(10.6,0,0,10.6,290.3,132.9)" />
<use xlink:href="#f1_29" transform="matrix(10.6,0,0,10.6,299.3,132.9)" />
<use xlink:href="#f2_2j" transform="matrix(10.6,0,0,10.6,337.2,122.5)" />
<use xlink:href="#f2_2j" transform="matrix(10.6,0,0,10.6,234.1,132.9)" />
<use xlink:href="#f2_1w" transform="matrix(10.6,0,0,10.6,265.7,132.9)" />
<use xlink:href="#f2_1w" transform="matrix(10.6,0,0,10.6,382.4,132.9)" />
<use xlink:href="#f2_2j" transform="matrix(10.6,0,0,10.6,391.4,132.9)" />
<use xlink:href="#f2_1y" transform="matrix(10.6,0,0,10.6,424.3,132.9)" />
<use xlink:href="#f2_1w" transform="matrix(10.6,0,0,10.6,337,145.4)" />
<use xlink:href="#f3_h" transform="matrix(7.4,0,0,7.4,308,125.7)" />
<use xlink:href="#f3_f" transform="matrix(10.6,0,0,10.6,250.5,132.9)" />
<use xlink:href="#f3_h" transform="matrix(10.6,0,0,10.6,356.6,132.9)" />
<use xlink:href="#f3_f" transform="matrix(10.6,0,0,10.6,409.3,132.9)" />
<use xlink:href="#f1_b" transform="matrix(10.4,0,0,10.4,184.2,194.5)" />
<use xlink:href="#f1_2h" transform="matrix(10.4,0,0,10.4,189.5,194.5)" />
<use xlink:href="#f1_24" transform="matrix(10.4,0,0,10.4,197.8,194.5)" />
<use xlink:href="#f1_c" transform="matrix(10.4,0,0,10.4,201.3,194.5)" />
</g>
<path d="M279.2,179.3l1.6,-.9l3.9,6.5l4.2,-17.2h10.3" class="g2_74" />
<path fill-rule="evenodd" d="M279.1,179.1l2.1,-1.2l3.5,5.4l3.9,-16h10.6v.8h-10l-4.1,16.8h-.8l-3.9,-6l-1.1,.6l-.2,-.4Z" class="g3_74" />
<path d="M277.6,189.2H328" class="g4_74" />
<g fill="#000000" >
<use xlink:href="#f1_k" transform="matrix(7.3,0,0,7.3,266.7,186.3)" />
<use xlink:href="#f1_m" transform="matrix(10.4,0,0,10.4,289.4,183.1)" />
<use xlink:href="#f1_k" transform="matrix(10.4,0,0,10.4,320.7,183.1)" />
<use xlink:href="#f1_l" transform="matrix(10.4,0,0,10.4,227.5,193.5)" />
<use xlink:href="#f1_2e" transform="matrix(10.4,0,0,10.4,240.4,193.5)" />
<use xlink:href="#f1_24" transform="matrix(10.4,0,0,10.4,248.4,193.5)" />
<use xlink:href="#f1_29" transform="matrix(10.4,0,0,10.4,251.9,193.5)" />
<use xlink:href="#f1_l" transform="matrix(10.4,0,0,10.4,298.4,205.7)" />
<use xlink:href="#f3_h" transform="matrix(7.3,0,0,7.3,260.6,186.3)" />
<use xlink:href="#f3_h" transform="matrix(10.4,0,0,10.4,306.2,183.1)" />
<use xlink:href="#f1_b" transform="matrix(10.4,0,0,10.4,180.7,236.7)" />
<use xlink:href="#f1_2h" transform="matrix(10.4,0,0,10.4,186.1,236.7)" />
<use xlink:href="#f1_24" transform="matrix(10.4,0,0,10.4,194,236.7)" />
<use xlink:href="#f1_24" transform="matrix(10.4,0,0,10.4,197.6,236.7)" />
<use xlink:href="#f1_c" transform="matrix(10.4,0,0,10.4,201.1,236.7)" />
<use xlink:href="#f1_j" transform="matrix(10.4,0,0,10.4,224.9,236.7)" />
<use xlink:href="#f1_b" transform="matrix(10.4,0,0,10.4,177.3,278.3)" />
<use xlink:href="#f1_2h" transform="matrix(10.4,0,0,10.4,182.6,278.3)" />
<use xlink:href="#f1_24" transform="matrix(10.4,0,0,10.4,190.5,278.3)" />
<use xlink:href="#f1_24" transform="matrix(10.4,0,0,10.4,194.1,278.3)" />
<use xlink:href="#f1_24" transform="matrix(10.4,0,0,10.4,197.6,278.3)" />
<use xlink:href="#f1_c" transform="matrix(10.4,0,0,10.4,201.2,278.3)" />
</g>
<path d="M237.8,276.8l1.5,-.9l4,6.5L247.5,265h10" class="g2_74" />
<path fill-rule="evenodd" d="M237.7,276.6l2.1,-1.2l3.5,5.4l3.9,-16.2h10.3v.8h-9.7l-4.1,17h-.8L239,276.3l-1.1,.7l-.2,-.4Z" class="g3_74" />
<path d="M280.9,277l1.6,-1l3.9,6.7L290.7,265h10.2" class="g2_74" />
<path fill-rule="evenodd" d="M280.8,276.8l2.1,-1.3l3.5,5.6l4,-16.5h10.5v.8h-10l-4.1,17.3H286l-3.9,-6.2l-1.1,.7l-.2,-.4Z" class="g3_74" />
<g fill="#000000" >
<use xlink:href="#f1_l" transform="matrix(10.7,0,0,10.7,248,280.9)" />
<use xlink:href="#f1_m" transform="matrix(10.7,0,0,10.7,291.1,280.9)" />
<use xlink:href="#f1_o" transform="matrix(10.7,0,0,10.7,323.6,280.9)" />
<use xlink:href="#f3_h" transform="matrix(10.7,0,0,10.7,227.9,280.9)" />
<use xlink:href="#f3_h" transform="matrix(10.7,0,0,10.7,264.9,280.9)" />
<use xlink:href="#f3_f" transform="matrix(10.7,0,0,10.7,307.9,280.9)" />
<use xlink:href="#f1_b" transform="matrix(10.4,0,0,10.4,184.2,340.1)" />
<use xlink:href="#f1_24" transform="matrix(10.4,0,0,10.4,189.5,340.1)" />
<use xlink:href="#f1_2j" transform="matrix(10.4,0,0,10.4,193.1,340.1)" />
<use xlink:href="#f1_c" transform="matrix(10.4,0,0,10.4,201.1,340.1)" />
</g>
<path d="M228,332.2h11.3m23.4,0h19.7" class="g5_74" />
<g fill="#000000" >
<use xlink:href="#f1_l" transform="matrix(7.4,0,0,7.4,273.4,343.3)" />
<use xlink:href="#f1_m" transform="matrix(10.5,0,0,10.6,229.2,326.1)" />
<use xlink:href="#f1_k" transform="matrix(10.5,0,0,10.6,268.9,326.1)" />
<use xlink:href="#f1_h" transform="matrix(10.5,0,0,10.6,286.1,336.5)" />
<use xlink:href="#f3_f" transform="matrix(10.5,0,0,10.6,246.5,336.5)" />
<use xlink:href="#f3_2c" transform="matrix(10.5,0,0,10.6,229.2,348.9)" />
<use xlink:href="#f3_2c" transform="matrix(10.5,0,0,10.6,264,350.6)" />
<use xlink:href="#f1_p" transform="matrix(10.4,0,0,10.4,130.9,403.9)" />
<use xlink:href="#f1_j" transform="matrix(10.4,0,0,10.4,139.7,403.9)" />
<use xlink:href="#f1_h" transform="matrix(10.4,0,0,10.4,148.9,403.9)" />
<use xlink:href="#f1_b" transform="matrix(10.4,0,0,10.4,192.5,403.9)" />
<use xlink:href="#f1_24" transform="matrix(10.4,0,0,10.4,197.8,403.9)" />
<use xlink:href="#f1_c" transform="matrix(10.4,0,0,10.4,201.3,403.9)" />
</g>
<path d="M299,391v14.7M314.8,391v14.7M339,400.3h10.2M380,391v14.7M423.1,391v14.7m24.1,-5.4h10.3M488.3,391v14.7M531.5,391v14.7" class="g6_74" />
<g fill="#000000" >
<use xlink:href="#f1_o" transform="matrix(10.5,0,0,10.5,339.7,394.2)" />
<use xlink:href="#f1_m" transform="matrix(10.5,0,0,10.5,448.2,394.2)" />
<use xlink:href="#f1_n" transform="matrix(10.5,0,0,10.5,259.8,404.6)" />
<use xlink:href="#f1_27" transform="matrix(10.5,0,0,10.5,272.2,404.6)" />
<use xlink:href="#f1_2a" transform="matrix(10.5,0,0,10.5,276,404.6)" />
<use xlink:href="#f1_22" transform="matrix(10.5,0,0,10.5,285.3,404.6)" />
<use xlink:href="#f1_27" transform="matrix(10.5,0,0,10.5,353.4,404.6)" />
<use xlink:href="#f1_2a" transform="matrix(10.5,0,0,10.5,357.2,404.6)" />
<use xlink:href="#f1_22" transform="matrix(10.5,0,0,10.5,366.5,404.6)" />
<use xlink:href="#f1_k" transform="matrix(10.5,0,0,10.5,414.3,404.6)" />
<use xlink:href="#f1_27" transform="matrix(10.5,0,0,10.5,461.8,404.6)" />
<use xlink:href="#f1_2a" transform="matrix(10.5,0,0,10.5,465.6,404.6)" />
<use xlink:href="#f1_22" transform="matrix(10.5,0,0,10.5,474.9,404.6)" />
<use xlink:href="#f1_k" transform="matrix(10.5,0,0,10.5,523,404.6)" />
<use xlink:href="#f1_n" transform="matrix(10.5,0,0,10.5,339.7,420.2)" />
<use xlink:href="#f1_n" transform="matrix(10.5,0,0,10.5,448.2,420.2)" />
<use xlink:href="#f2_2j" transform="matrix(10.5,0,0,10.5,227.6,404.6)" />
<use xlink:href="#f2_2j" transform="matrix(10.5,0,0,10.5,302.2,404.6)" />
<use xlink:href="#f2_2j" transform="matrix(10.5,0,0,10.5,383.4,404.6)" />
<use xlink:href="#f2_2j" transform="matrix(10.5,0,0,10.5,491.8,404.6)" />
<use xlink:href="#f3_h" transform="matrix(10.5,0,0,10.5,244.3,404.6)" />
<use xlink:href="#f3_f" transform="matrix(10.5,0,0,10.5,322.8,404.6)" />
<use xlink:href="#f3_h" transform="matrix(10.5,0,0,10.5,400.1,404.6)" />
<use xlink:href="#f3_f" transform="matrix(10.5,0,0,10.5,431.2,404.6)" />
<use xlink:href="#f3_f" transform="matrix(10.5,0,0,10.5,508.5,404.6)" />
</g>
<path d="M515.6,423.6v21.2m51.8,-21.2v21.2m23.9,-5.3h10" class="g7_74" />
<g fill="#000000" >
<use xlink:href="#f1_l" transform="matrix(7.9,0,0,7.9,529.2,434.1)" />
<use xlink:href="#f1_99" transform="matrix(7.9,0,0,7.9,629.5,434.1)" />
<use xlink:href="#f1_k" transform="matrix(7.9,0,0,7.9,636.4,434.1)" />
<use xlink:href="#f1_k" transform="matrix(10.5,0,0,10.6,592.6,433.3)" />
<use xlink:href="#f1_27" transform="matrix(10.5,0,0,10.6,489,443.7)" />
<use xlink:href="#f1_2a" transform="matrix(10.5,0,0,10.6,492.8,443.7)" />
<use xlink:href="#f1_22" transform="matrix(10.5,0,0,10.6,502.1,443.7)" />
<use xlink:href="#f1_k" transform="matrix(10.5,0,0,10.6,558.6,443.7)" />
<use xlink:href="#f1_2f" transform="matrix(10.5,0,0,10.6,606.2,443.7)" />
<use xlink:href="#f1_1w" transform="matrix(10.5,0,0,10.6,611,443.7)" />
<use xlink:href="#f1_29" transform="matrix(10.5,0,0,10.6,620.3,443.7)" />
<use xlink:href="#f1_h" transform="matrix(10.5,0,0,10.6,687.7,443.7)" />
<use xlink:href="#f1_l" transform="matrix(10.5,0,0,10.6,592.1,459.4)" />
<use xlink:href="#f2_2j" transform="matrix(10.5,0,0,10.6,518.8,443.7)" />
<use xlink:href="#f2_2j" transform="matrix(10.5,0,0,10.6,647.4,443.7)" />
<use xlink:href="#f2_1y" transform="matrix(10.5,0,0,10.6,679,443.7)" />
<use xlink:href="#f3_f" transform="matrix(10.5,0,0,10.6,476.1,443.7)" />
<use xlink:href="#f3_f" transform="matrix(10.5,0,0,10.6,544.2,443.7)" />
<use xlink:href="#f3_h" transform="matrix(10.5,0,0,10.6,575.4,443.7)" />
<use xlink:href="#f3_f" transform="matrix(10.5,0,0,10.6,664,443.7)" />
</g>
<path d="M260.6,505.1h10m34.2,0h39.1M301.4,484.2V526M347,484.2V526m24.7,-20.9h10m108,0h47.9M486.2,478.9v52.4m54.5,-52.4v52.4" class="g8_74" />
<g fill="#000000" >
<use xlink:href="#f3_h" transform="matrix(10.5,0,0,10.5,322.7,499)" />
<use xlink:href="#f3_h" transform="matrix(10.5,0,0,10.5,516.2,499)" />
<use xlink:href="#f3_f" transform="matrix(10.5,0,0,10.5,244.5,509.4)" />
<use xlink:href="#f3_f" transform="matrix(10.5,0,0,10.5,444.4,509.4)" />
<use xlink:href="#f3_f" transform="matrix(10.5,0,0,10.5,548.6,509.4)" />
<use xlink:href="#f3_f" transform="matrix(10.5,0,0,10.5,322.5,525)" />
<use xlink:href="#f3_f" transform="matrix(10.5,0,0,10.5,516.1,526.4)" />
<use xlink:href="#f1_l" transform="matrix(7.9,0,0,7.9,501.2,489.3)" />
<use xlink:href="#f1_99" transform="matrix(7.9,0,0,7.9,409.9,499.8)" />
<use xlink:href="#f1_k" transform="matrix(7.9,0,0,7.9,416.8,499.8)" />
<use xlink:href="#f1_n" transform="matrix(7.9,0,0,7.9,501,516.8)" />
<use xlink:href="#f1_k" transform="matrix(10.5,0,0,10.5,261.9,499)" />
<use xlink:href="#f1_k" transform="matrix(10.5,0,0,10.5,336.9,499)" />
<use xlink:href="#f1_k" transform="matrix(10.5,0,0,10.5,373,499)" />
<use xlink:href="#f1_k" transform="matrix(10.5,0,0,10.5,530.4,499)" />
<use xlink:href="#f1_27" transform="matrix(10.5,0,0,10.5,274.8,509.4)" />
<use xlink:href="#f1_2a" transform="matrix(10.5,0,0,10.5,278.5,509.4)" />
<use xlink:href="#f1_22" transform="matrix(10.5,0,0,10.5,287.8,509.4)" />
<use xlink:href="#f1_99" transform="matrix(10.5,0,0,10.5,355.2,509.4)" />
<use xlink:href="#f1_2f" transform="matrix(10.5,0,0,10.5,386.6,509.4)" />
<use xlink:href="#f1_1w" transform="matrix(10.5,0,0,10.5,391.4,509.4)" />
<use xlink:href="#f1_29" transform="matrix(10.5,0,0,10.5,400.6,509.4)" />
<use xlink:href="#f1_27" transform="matrix(10.5,0,0,10.5,459.6,509.4)" />
<use xlink:href="#f1_2a" transform="matrix(10.5,0,0,10.5,463.3,509.4)" />
<use xlink:href="#f1_22" transform="matrix(10.5,0,0,10.5,472.6,509.4)" />
<use xlink:href="#f1_h" transform="matrix(10.5,0,0,10.5,572.2,509.4)" />
<use xlink:href="#f1_l" transform="matrix(10.5,0,0,10.5,261.4,525)" />
<use xlink:href="#f1_k" transform="matrix(10.5,0,0,10.5,337,525)" />
<use xlink:href="#f1_l" transform="matrix(10.5,0,0,10.5,372.4,525)" />
<use xlink:href="#f1_k" transform="matrix(10.5,0,0,10.5,530.6,526.4)" />
<use xlink:href="#f2_2j" transform="matrix(10.5,0,0,10.5,306,499)" />
<use xlink:href="#f2_2j" transform="matrix(10.5,0,0,10.5,490.9,499)" />
<use xlink:href="#f2_2j" transform="matrix(10.5,0,0,10.5,227.8,509.4)" />
<use xlink:href="#f2_2j" transform="matrix(10.5,0,0,10.5,427.7,509.4)" />
<use xlink:href="#f2_1y" transform="matrix(10.5,0,0,10.5,563.5,509.4)" />
<use xlink:href="#f2_2j" transform="matrix(10.5,0,0,10.5,305.9,525)" />
<use xlink:href="#f2_2j" transform="matrix(10.5,0,0,10.5,490.7,526.4)" />
<use xlink:href="#f1_b" transform="matrix(10.4,0,0,10.4,188.8,580.1)" />
<use xlink:href="#f1_24" transform="matrix(10.4,0,0,10.4,194.1,580.1)" />
<use xlink:href="#f1_24" transform="matrix(10.4,0,0,10.4,197.7,580.1)" />
<use xlink:href="#f1_c" transform="matrix(10.4,0,0,10.4,201.2,580.1)" />
</g>
<path d="M228,572.3h10.2M269,562.8v18.9m43,-18.9v18.9m23.8,-9.4h18.4m30.7,-16v31.9m55.6,-31.9v31.9m24.7,-15.9h18.3m55.3,0h11.7" class="g8_74" />
<g fill="#000000" >
<use xlink:href="#f3_4o" transform="matrix(10.6,0,0,10.6,528.9,566)" />
<use xlink:href="#f3_54" transform="matrix(10.6,0,0,10.6,552.1,566)" />
<use xlink:href="#f3_h" transform="matrix(10.6,0,0,10.6,288.9,576.5)" />
<use xlink:href="#f3_h" transform="matrix(10.6,0,0,10.6,319.9,576.5)" />
<use xlink:href="#f3_f" transform="matrix(10.6,0,0,10.6,413.4,576.5)" />
<use xlink:href="#f3_f" transform="matrix(10.6,0,0,10.6,566.5,576.5)" />
<use xlink:href="#f3_4p" transform="matrix(10.6,0,0,10.6,528.9,581.9)" />
<use xlink:href="#f3_55" transform="matrix(10.6,0,0,10.6,552.1,581.9)" />
<use xlink:href="#f3_4q" transform="matrix(10.6,0,0,10.6,528.9,588.6)" />
<use xlink:href="#f3_56" transform="matrix(10.6,0,0,10.6,552.1,588.6)" />
<use xlink:href="#f1_l" transform="matrix(8,0,0,7.9,398.6,566.9)" />
<use xlink:href="#f1_99" transform="matrix(8,0,0,7.9,511.7,566.9)" />
<use xlink:href="#f1_k" transform="matrix(8,0,0,7.9,518.5,566.9)" />
<use xlink:href="#f1_k" transform="matrix(10.6,0,0,10.6,229.5,566)" />
<use xlink:href="#f1_k" transform="matrix(10.6,0,0,10.6,341.4,566)" />
<use xlink:href="#f1_k" transform="matrix(10.6,0,0,10.6,470.6,566)" />
<use xlink:href="#f1_27" transform="matrix(10.6,0,0,10.6,242.5,576.5)" />
<use xlink:href="#f1_2a" transform="matrix(10.6,0,0,10.6,246.3,576.5)" />
<use xlink:href="#f1_22" transform="matrix(10.6,0,0,10.6,255.6,576.5)" />
<use xlink:href="#f1_k" transform="matrix(10.6,0,0,10.6,303.2,576.5)" />
<use xlink:href="#f1_27" transform="matrix(10.6,0,0,10.6,358.4,576.5)" />
<use xlink:href="#f1_2a" transform="matrix(10.6,0,0,10.6,362.2,576.5)" />
<use xlink:href="#f1_22" transform="matrix(10.6,0,0,10.6,371.5,576.5)" />
<use xlink:href="#f1_n" transform="matrix(10.6,0,0,10.6,429.2,576.5)" />
<use xlink:href="#f1_99" transform="matrix(10.6,0,0,10.6,448.8,576.5)" />
<use xlink:href="#f1_2f" transform="matrix(10.6,0,0,10.6,488.4,576.5)" />
<use xlink:href="#f1_1w" transform="matrix(10.6,0,0,10.6,493.2,576.5)" />
<use xlink:href="#f1_29" transform="matrix(10.6,0,0,10.6,502.5,576.5)" />
<use xlink:href="#f1_h" transform="matrix(10.6,0,0,10.6,590.3,576.5)" />
<use xlink:href="#f1_o" transform="matrix(10.6,0,0,10.6,228.9,592.2)" />
<use xlink:href="#f1_k" transform="matrix(10.6,0,0,10.6,335.4,592.2)" />
<use xlink:href="#f1_j" transform="matrix(10.6,0,0,10.6,344.7,592.2)" />
<use xlink:href="#f1_k" transform="matrix(10.6,0,0,10.6,464.7,592.2)" />
<use xlink:href="#f1_j" transform="matrix(10.6,0,0,10.6,474,592.2)" />
<use xlink:href="#f1_l" transform="matrix(10.6,0,0,10.6,540.4,592.2)" />
<use xlink:href="#f2_2j" transform="matrix(10.6,0,0,10.6,539.8,566)" />
<use xlink:href="#f2_2j" transform="matrix(10.6,0,0,10.6,272.3,576.5)" />
<use xlink:href="#f2_2j" transform="matrix(10.6,0,0,10.6,388.2,576.5)" />
<use xlink:href="#f2_1y" transform="matrix(10.6,0,0,10.6,581.6,576.5)" />
<use xlink:href="#f1_b" transform="matrix(10.4,0,0,10.4,185.3,641.1)" />
<use xlink:href="#f1_24" transform="matrix(10.4,0,0,10.4,190.6,641.1)" />
<use xlink:href="#f1_24" transform="matrix(10.4,0,0,10.4,194.2,641.1)" />
<use xlink:href="#f1_24" transform="matrix(10.4,0,0,10.4,197.7,641.1)" />
<use xlink:href="#f1_c" transform="matrix(10.4,0,0,10.4,201.3,641.1)" />
</g>
<path d="M269.1,637.4h10.3M310.1,628v14.7M353.3,628v14.7m24.2,-5.3h17M425.3,628v15M472,628v15" class="g8_74" />
<g fill="#000000" >
<use xlink:href="#f3_c" transform="matrix(10.4,0,0,11.4,508.7,655.2)" />
<use xlink:href="#f3_d" transform="matrix(10.4,0,0,11.4,558.3,655.2)" />
</g>
<path d="M495.9,637.4h68.3" class="g8_74" />
<g fill="#000000" >
<use xlink:href="#f1_k" transform="matrix(10.5,0,0,10.5,270.5,631.2)" />
<use xlink:href="#f1_r" transform="matrix(10.5,0,0,10.5,378.2,631.2)" />
<use xlink:href="#f1_k" transform="matrix(10.5,0,0,10.5,387.5,631.2)" />
<use xlink:href="#f1_l" transform="matrix(10.5,0,0,10.5,520.9,631.2)" />
<use xlink:href="#f1_q" transform="matrix(10.5,0,0,10.5,530.2,631.2)" />
<use xlink:href="#f1_l" transform="matrix(10.5,0,0,10.5,227.5,641.6)" />
<use xlink:href="#f1_27" transform="matrix(10.5,0,0,10.5,283.5,641.6)" />
<use xlink:href="#f1_2a" transform="matrix(10.5,0,0,10.5,287.3,641.6)" />
<use xlink:href="#f1_22" transform="matrix(10.5,0,0,10.5,296.6,641.6)" />
<use xlink:href="#f1_k" transform="matrix(10.5,0,0,10.5,344.5,641.6)" />
<use xlink:href="#f1_27" transform="matrix(10.5,0,0,10.5,398.6,641.6)" />
<use xlink:href="#f1_2a" transform="matrix(10.5,0,0,10.5,402.3,641.6)" />
<use xlink:href="#f1_22" transform="matrix(10.5,0,0,10.5,411.6,641.6)" />
<use xlink:href="#f1_m" transform="matrix(10.5,0,0,10.5,460.6,641.6)" />
<use xlink:href="#f1_h" transform="matrix(10.5,0,0,10.5,594.9,641.6)" />
<use xlink:href="#f1_r" transform="matrix(10.5,0,0,10.5,269.9,657.2)" />
<use xlink:href="#f1_r" transform="matrix(10.5,0,0,10.5,381.6,657.2)" />
<use xlink:href="#f1_l" transform="matrix(10.5,0,0,10.5,496.6,657.2)" />
<use xlink:href="#f1_m" transform="matrix(10.5,0,0,10.5,548.1,657.2)" />
<use xlink:href="#f2_2j" transform="matrix(10.5,0,0,10.5,236.5,641.6)" />
<use xlink:href="#f2_2j" transform="matrix(10.5,0,0,10.5,313.4,641.6)" />
<use xlink:href="#f2_2j" transform="matrix(10.5,0,0,10.5,428.4,641.6)" />
<use xlink:href="#f2_1y" transform="matrix(10.5,0,0,10.5,586.2,641.6)" />
<use xlink:href="#f2_2j" transform="matrix(10.5,0,0,10.5,516,657.2)" />
<use xlink:href="#f3_h" transform="matrix(10.5,0,0,10.5,253.2,641.6)" />
<use xlink:href="#f3_f" transform="matrix(10.5,0,0,10.5,330.1,641.6)" />
<use xlink:href="#f3_f" transform="matrix(10.5,0,0,10.5,361.3,641.6)" />
<use xlink:href="#f3_h" transform="matrix(10.5,0,0,10.5,445.1,641.6)" />
<use xlink:href="#f3_h" transform="matrix(10.5,0,0,10.5,479.9,641.6)" />
<use xlink:href="#f3_f" transform="matrix(10.5,0,0,10.5,571.3,641.6)" />
<use xlink:href="#f3_h" transform="matrix(10.5,0,0,10.5,532.6,657.2)" />
<use xlink:href="#f1_b" transform="matrix(10.4,0,0,10.4,184.2,714.6)" />
<use xlink:href="#f1_24" transform="matrix(10.4,0,0,10.4,189.5,714.6)" />
<use xlink:href="#f1_2h" transform="matrix(10.4,0,0,10.4,193.1,714.6)" />
<use xlink:href="#f1_c" transform="matrix(10.4,0,0,10.4,201.1,714.6)" />
</g>
<path d="M260.6,710.5h10m34.2,0h42.6M301.3,691v40.3M350.5,691v40.3m73.7,-20.8h11.7" class="g9_74" />
<g fill="#000000" >
<use xlink:href="#f1_k" transform="matrix(7.9,0,0,7.8,404,705.3)" />
<use xlink:href="#f1_k" transform="matrix(10.4,0,0,10.4,261.8,704.4)" />
<use xlink:href="#f1_l" transform="matrix(10.4,0,0,10.4,338,704.4)" />
<use xlink:href="#f1_27" transform="matrix(10.4,0,0,10.4,274.6,714.8)" />
<use xlink:href="#f1_2a" transform="matrix(10.4,0,0,10.4,278.4,714.8)" />
<use xlink:href="#f1_22" transform="matrix(10.4,0,0,10.4,287.7,714.8)" />
<use xlink:href="#f1_2f" transform="matrix(10.4,0,0,10.4,374,714.8)" />
<use xlink:href="#f1_1w" transform="matrix(10.4,0,0,10.4,378.8,714.8)" />
<use xlink:href="#f1_29" transform="matrix(10.4,0,0,10.4,388.1,714.8)" />
<use xlink:href="#f1_h" transform="matrix(10.4,0,0,10.4,475.6,714.8)" />
<use xlink:href="#f1_l" transform="matrix(10.4,0,0,10.4,261.2,730.2)" />
<use xlink:href="#f1_l" transform="matrix(10.4,0,0,10.4,338.1,730.2)" />
<use xlink:href="#f1_l" transform="matrix(10.4,0,0,10.4,425.7,730.2)" />
<use xlink:href="#f2_2j" transform="matrix(10.4,0,0,10.4,305.8,704.4)" />
<use xlink:href="#f2_2j" transform="matrix(10.4,0,0,10.4,425.1,704.4)" />
<use xlink:href="#f2_2j" transform="matrix(10.4,0,0,10.4,227.6,714.8)" />
<use xlink:href="#f2_1y" transform="matrix(10.4,0,0,10.4,466.9,714.8)" />
<use xlink:href="#f2_2j" transform="matrix(10.4,0,0,10.4,305.7,730.2)" />
<use xlink:href="#f3_h" transform="matrix(7.8,0,0,7.8,397.2,705.3)" />
<use xlink:href="#f3_h" transform="matrix(10.4,0,0,10.4,322.6,704.4)" />
<use xlink:href="#f3_4o" transform="matrix(10.4,0,0,10.4,414.4,705.6)" />
<use xlink:href="#f3_54" transform="matrix(10.4,0,0,10.4,437.6,705.6)" />
<use xlink:href="#f3_f" transform="matrix(10.4,0,0,10.4,244.4,714.8)" />
<use xlink:href="#f3_h" transform="matrix(10.4,0,0,10.4,358.4,714.8)" />
<use xlink:href="#f3_f" transform="matrix(10.4,0,0,10.4,452,714.8)" />
<use xlink:href="#f3_4p" transform="matrix(10.4,0,0,10.4,414.4,720.1)" />
<use xlink:href="#f3_55" transform="matrix(10.4,0,0,10.4,437.6,720.1)" />
<use xlink:href="#f3_4q" transform="matrix(10.4,0,0,10.4,414.4,726.6)" />
<use xlink:href="#f3_56" transform="matrix(10.4,0,0,10.4,437.6,726.6)" />
<use xlink:href="#f3_f" transform="matrix(10.4,0,0,10.4,322.4,730.2)" />
<use xlink:href="#f1_b" transform="matrix(10.4,0,0,10.4,187.9,776.2)" />
<use xlink:href="#f1_2h" transform="matrix(10.4,0,0,10.4,193.2,776.2)" />
<use xlink:href="#f1_c" transform="matrix(10.4,0,0,10.4,201.4,776.2)" />
</g>
<path d="M244.8,773.4l1.6,-.9l3.9,6.4l4.2,-16.7h9.8" class="g2_74" />
<path fill-rule="evenodd" d="M244.7,773.2l2.1,-1.2l3.5,5.3l4,-15.5h10v.7h-9.5l-4.1,16.4h-.8L246,773l-1.1,.7l-.2,-.5Z" class="g3_74" />
<path d="M243.1,761.8l-6.2,19.5" class="g6_74" />
<g fill="#000000" >
<use xlink:href="#f1_l" transform="matrix(10.5,0,0,10.5,255.1,777.8)" />
<use xlink:href="#f1_h" transform="matrix(10.5,0,0,10.5,264.3,777.8)" />
<use xlink:href="#f3_2c" transform="matrix(10.5,0,0,10.5,227.7,777.8)" />
<use xlink:href="#f1_b" transform="matrix(10.4,0,0,10.4,184.2,847.6)" />
<use xlink:href="#f1_2h" transform="matrix(10.4,0,0,10.4,189.5,847.6)" />
<use xlink:href="#f1_24" transform="matrix(10.4,0,0,10.4,197.8,847.6)" />
<use xlink:href="#f1_c" transform="matrix(10.4,0,0,10.4,201.3,847.6)" />
</g>
<path d="M238.1,854.7l1.6,-.9l3.9,6.3l4.2,-16.6h9.8" class="g2_74" />
<path fill-rule="evenodd" d="M238,854.5l2.1,-1.2l3.5,5.2l4,-15.4h10v.7h-9.5L244,860.1h-.7l-4,-5.8l-1.1,.6l-.2,-.4Z" class="g3_74" />
<path d="M228,839.3h30.9" class="g6_74" />
<g fill="#000000" >
<use xlink:href="#f3_c" transform="matrix(10.4,0,0,16,305.3,829.6)" />
<use xlink:href="#f3_d" transform="matrix(10.4,0,0,16,359.1,829.7)" />
</g>
<path d="M320.2,854.7l1.6,-.9l4,6.3L330,843.5h19.5" class="g2_74" />
<path fill-rule="evenodd" d="M320.1,854.5l2.1,-1.2l3.6,5.2l3.9,-15.4h19.8v.7H330.2l-4.1,16.3h-.7l-3.9,-5.8l-1.1,.6l-.3,-.4Z" class="g3_74" />
<path d="M304.9,839.3h59.8" class="g6_74" />
<path d="M398.2,854.7l1.6,-.9l3.9,6.3l4.2,-16.6h9.8" class="g2_74" />
<path fill-rule="evenodd" d="M398.1,854.5l2.1,-1.2l3.5,5.2l4,-15.4h10v.7h-9.5l-4.1,16.3h-.8l-3.9,-5.8l-1.1,.6l-.2,-.4Z" class="g3_74" />
<path d="M387.8,839.3H419" class="g6_74" />
<path d="M495,828.9l1.6,-.9l3.9,6.3l4.2,-16.6h19.6" class="g2_74" />
<path fill-rule="evenodd" d="M494.9,828.7l2.1,-1.2l3.5,5.3l4,-15.5h19.8v.8H505l-4.1,16.2h-.7l-3.9,-5.8l-1.1,.6l-.3,-.4Z" class="g3_74" />
<path d="M495.1,856.1l1.6,-.9l3.9,6.3l4.2,-16.6h19.6" class="g2_74" />
<path fill-rule="evenodd" d="M495,855.9l2.1,-1.2l3.5,5.3l4,-15.5h19.8v.8H505.1L501,861.5h-.7l-4,-5.8l-1.1,.6l-.2,-.4Z" class="g3_74" />
<path d="M453.2,839.3H553m-103.3,-26v49.3M556.1,813.3v49.3" class="g6_74" />
<g fill="#000000" >
<use xlink:href="#f1_l" transform="matrix(7.9,0,0,7.8,322,823.7)" />
<use xlink:href="#f1_l" transform="matrix(7.9,0,0,7.8,464.3,823.7)" />
<use xlink:href="#f1_k" transform="matrix(7.9,0,0,7.8,293.7,834)" />
<use xlink:href="#f1_l" transform="matrix(7.9,0,0,7.8,464.1,850.8)" />
<use xlink:href="#f1_k" transform="matrix(10.4,0,0,10.4,239.5,833.2)" />
<use xlink:href="#f1_k" transform="matrix(10.4,0,0,10.4,351.1,833.2)" />
<use xlink:href="#f1_k" transform="matrix(10.4,0,0,10.4,399.7,833.2)" />
<use xlink:href="#f1_l" transform="matrix(10.4,0,0,10.4,505.4,833.2)" />
<use xlink:href="#f1_k" transform="matrix(10.4,0,0,10.4,546.1,833.2)" />
<use xlink:href="#f1_2f" transform="matrix(10.4,0,0,10.4,263.6,843.5)" />
<use xlink:href="#f1_1w" transform="matrix(10.4,0,0,10.4,268.4,843.5)" />
<use xlink:href="#f1_29" transform="matrix(10.4,0,0,10.4,277.7,843.5)" />
<use xlink:href="#f1_27" transform="matrix(10.4,0,0,10.4,423.1,843.5)" />
<use xlink:href="#f1_2a" transform="matrix(10.4,0,0,10.4,426.9,843.5)" />
<use xlink:href="#f1_22" transform="matrix(10.4,0,0,10.4,436.2,843.5)" />
<use xlink:href="#f1_l" transform="matrix(10.4,0,0,10.4,228.5,858.9)" />
<use xlink:href="#f1_l" transform="matrix(10.4,0,0,10.4,248.2,858.9)" />
<use xlink:href="#f1_l" transform="matrix(10.4,0,0,10.4,330.4,858.9)" />
<use xlink:href="#f1_n" transform="matrix(10.4,0,0,10.4,388.6,858.9)" />
<use xlink:href="#f1_l" transform="matrix(10.4,0,0,10.4,408.5,858.9)" />
<use xlink:href="#f1_l" transform="matrix(10.4,0,0,10.4,505.5,860.4)" />
<use xlink:href="#f1_k" transform="matrix(10.4,0,0,10.4,546.2,860.4)" />
<use xlink:href="#f2_2j" transform="matrix(10.4,0,0,10.4,312.8,833.2)" />
<use xlink:href="#f2_2j" transform="matrix(10.4,0,0,10.4,454.9,833.2)" />
<use xlink:href="#f2_2j" transform="matrix(10.4,0,0,10.4,514.9,833.2)" />
<use xlink:href="#f2_1y" transform="matrix(10.4,0,0,10.4,579.8,843.5)" />
<use xlink:href="#f2_2j" transform="matrix(10.4,0,0,10.4,339.9,858.9)" />
<use xlink:href="#f2_2j" transform="matrix(10.4,0,0,10.4,454.8,860.4)" />
<use xlink:href="#f2_2j" transform="matrix(10.4,0,0,10.4,515,860.4)" />
<use xlink:href="#f3_h" transform="matrix(7.8,0,0,7.8,286.9,834)" />
<use xlink:href="#f3_h" transform="matrix(10.5,0,0,10.4,336.9,833.2)" />
<use xlink:href="#f3_h" transform="matrix(10.5,0,0,10.4,479.1,833.2)" />
<use xlink:href="#f3_f" transform="matrix(10.5,0,0,10.4,531.7,833.2)" />
<use xlink:href="#f3_h" transform="matrix(10.5,0,0,10.4,371.9,843.5)" />
<use xlink:href="#f3_f" transform="matrix(10.5,0,0,10.4,564.4,843.5)" />
<use xlink:href="#f3_f" transform="matrix(10.5,0,0,10.4,479,860.4)" />
<use xlink:href="#f3_f" transform="matrix(10.5,0,0,10.4,531.8,860.4)" />
<use xlink:href="#f4_l" transform="matrix(8,0,0,8,723.2,1122.4)" />
<use xlink:href="#f4_t" transform="matrix(8,0,0,8,730,1122.4)" />
</g>
<g fill="#0080FF" fill-opacity="0.5" >
<use xlink:href="#f0_1c" transform="matrix(42.3,0,0,42.3,202.9,1095.2)" />
<use xlink:href="#f0_21" transform="matrix(42.3,0,0,42.3,238.8,1095.2)" />
<use xlink:href="#f0_1x" transform="matrix(42.3,0,0,42.3,274.7,1095.2)" />
<use xlink:href="#f0_2e" transform="matrix(42.3,0,0,42.3,310.7,1095.2)" />
<use xlink:href="#f0_2a" transform="matrix(42.3,0,0,42.3,332.2,1095.2)" />
<use xlink:href="#f0_17" transform="matrix(42.3,0,0,42.3,368.1,1095.2)" />
<use xlink:href="#f0_2h" transform="matrix(42.3,0,0,42.3,418.4,1095.2)" />
<use xlink:href="#f0_25" transform="matrix(42.3,0,0,42.3,454.3,1095.2)" />
<use xlink:href="#f0_20" transform="matrix(42.3,0,0,42.3,468.7,1095.2)" />
<use xlink:href="#f0_21" transform="matrix(42.3,0,0,42.3,504.6,1095.2)" />
<use xlink:href="#f0_i" transform="matrix(42.3,0,0,42.3,540.5,1095.2)" />
<use xlink:href="#f0_25" transform="matrix(42.3,0,0,42.3,558.5,1095.2)" />
<use xlink:href="#f0_2a" transform="matrix(42.3,0,0,42.3,572.8,1095.2)" />
</g>
<defs>
<path d="M593,101c0,0,182,0,279,112c0,0,98,113,98,318c0,0,0,196,-98,308c0,0,-98,112,-277,112c0,0,-181,0,-279,-110c0,0,-99,-111,-99,-310c0,0,0,-198,100,-314c0,0,99,-116,276,-116Zm0,-115c0,0,-162,0,-279,65c0,0,-118,66,-180,190c0,0,-62,124,-62,290c0,0,0,252,138,394c0,0,138,142,385,142c0,0,160,0,278,-64c0,0,118,-64,180,-185c0,0,62,-122,62,-287c0,0,0,-165,-63,-289c0,0,-63,-124,-181,-190c0,0,-118,-66,-278,-66Z" 
id="f0_1f"
transform="scale(0.001,-0.001)" />

<path d="M106,0V635c0,0,0,141,-5,173H228c0,0,1,-4,2,-21c0,0,1,-16,2,-37c0,0,1,-22,2,-81h2c0,0,47,84,108,119c0,0,60,34,151,34c0,0,132,0,194,-66c0,0,61,-66,61,-218V0H615V512c0,0,0,80,-15,124c0,0,-16,44,-50,63c0,0,-35,20,-101,20c0,0,-97,0,-153,-67c0,0,-56,-66,-56,-184V0Z" 
id="f0_2a"
transform="scale(0.001,-0.001)" />

<path d="M103,0V1107H237V0Z" 
id="f0_28"
transform="scale(0.001,-0.001)" />

<path d="M102,0V808H236V0Zm0,979v128H236V979Z" 
id="f0_25"
transform="scale(0.001,-0.001)" />

<path d="M643,478c0,0,-11,128,-65,187c0,0,-54,59,-154,59c0,0,-98,0,-155,-66c0,0,-57,-65,-62,-180ZM431,-14c0,0,-179,0,-272,106c0,0,-94,107,-94,317c0,0,0,200,94,307c0,0,93,106,267,106c0,0,356,0,356,-429V375H206c0,0,0,-138,57,-213c0,0,58,-75,168,-75c0,0,87,0,140,35c0,0,53,35,71,88L760,177c0,0,-72,-191,-329,-191Z" 
id="f0_21"
transform="scale(0.001,-0.001)" />

<path d="M17,0L304,415L31,808H179L380,493L580,808H730L457,417L747,0H598L380,331L162,0Z" 
id="f0_2k"
transform="scale(0.001,-0.001)" />

<path d="M339,87c0,0,74,0,132,34c0,0,57,33,90,91c0,0,34,59,34,121v66L448,396c0,0,-95,-2,-144,-19c0,0,-49,-18,-75,-55c0,0,-26,-38,-26,-98c0,0,0,-65,35,-101c0,0,36,-36,101,-36ZM309,-14c0,0,-122,0,-183,64c0,0,-61,64,-61,176c0,0,0,125,82,192c0,0,83,67,266,72l182,3v44c0,0,0,98,-42,141c0,0,-42,43,-132,43c0,0,-90,0,-131,-31c0,0,-41,-31,-49,-98L101,604c0,0,34,218,323,218c0,0,153,0,229,-70c0,0,77,-69,77,-202V202c0,0,0,-59,16,-90c0,0,16,-30,60,-30c0,0,19,0,44,5V4C850,4,799,-7,746,-7c0,0,-75,0,-109,38c0,0,-33,40,-38,124h-4C595,155,543,62,475,24c0,0,-68,-38,-166,-38Z" 
id="f0_1x"
transform="scale(0.001,-0.001)" />

<path d="M106,0V635c0,0,0,141,-5,173H228c0,0,1,-4,2,-21c0,0,1,-16,2,-37c0,0,1,-22,2,-81h2c0,0,44,86,100,120c0,0,56,33,136,33c0,0,92,0,145,-36c0,0,54,-37,75,-117h2c0,0,42,82,101,117c0,0,59,36,143,36c0,0,123,0,178,-66c0,0,56,-67,56,-218V0H1039V512c0,0,0,117,-32,162c0,0,-32,45,-116,45c0,0,-88,0,-136,-66c0,0,-49,-65,-49,-185V0H573V512c0,0,0,117,-32,162c0,0,-32,45,-116,45c0,0,-86,0,-136,-66c0,0,-50,-66,-50,-185V0Z" 
id="f0_29"
transform="scale(0.001,-0.001)" />

<path d="M453,84c0,0,100,0,146,74c0,0,46,73,46,247c0,0,0,169,-46,241c0,0,-45,73,-145,73c0,0,-80,0,-125,-34c0,0,-45,-34,-68,-105c0,0,-24,-71,-24,-186c0,0,0,-159,51,-234c0,0,51,-76,165,-76ZM103,-316V643c0,0,0,124,-5,165H228c0,0,1,-3,3,-22c0,0,1,-18,3,-56c0,0,2,-38,2,-52h3c0,0,36,75,94,110c0,0,59,34,156,34c0,0,149,0,223,-100c0,0,74,-100,74,-314c0,0,0,-422,-297,-422c0,0,-187,0,-251,140h-4c0,0,3,-6,3,-126V-316Z" 
id="f0_2c"
transform="scale(0.001,-0.001)" />

<path d="M420,84c0,0,121,0,173,78c0,0,52,77,52,243c0,0,0,167,-50,243c0,0,-50,76,-167,76c0,0,-118,0,-170,-78c0,0,-53,-77,-53,-241c0,0,0,-160,52,-241c0,0,52,-80,163,-80Zm1,-98c0,0,-176,0,-267,107c0,0,-90,108,-90,312c0,0,0,417,362,417c0,0,185,0,272,-102c0,0,88,-101,88,-315c0,0,0,-212,-94,-316C692,89,599,-14,421,-14Z" 
id="f0_2b"
transform="scale(0.001,-0.001)" />

<path d="M278,-11c0,0,-162,0,-162,182V710H23v98h99l39,181h90V808H400V710H251V200c0,0,0,-58,19,-82c0,0,19,-23,66,-23c0,0,27,0,77,10V6c0,0,-66,-17,-135,-17Z" 
id="f0_2g"
transform="scale(0.001,-0.001)" />

<path d="M365,-315c0,0,-136,187,-199,359c0,0,-62,172,-62,359c0,0,0,186,62,358c0,0,63,172,199,360h92c0,0,-110,-192,-160,-365c0,0,-51,-172,-51,-353c0,0,0,-183,51,-355c0,0,50,-172,160,-363Z" 
id="f1_b"
transform="scale(0.001,-0.001)" />

<path d="M104,0V799H238V0Zm-2,946v152H239V946Z" 
id="f1_24"
transform="scale(0.001,-0.001)" />

<path d="M310,0L12,799H168L383,145L604,799H752L454,0Z" 
id="f1_2h"
transform="scale(0.001,-0.001)" />

<path d="M52,-315c0,0,109,192,160,363c0,0,50,173,50,354c0,0,0,183,-50,355c0,0,-51,173,-160,364h92c0,0,135,-188,198,-360c0,0,63,-172,63,-359c0,0,0,-187,-63,-359c0,0,-63,-171,-198,-358Z" 
id="f1_c"
transform="scale(0.001,-0.001)" />

<path d="M393,-20c0,0,-169,0,-252,65c0,0,-83,67,-92,210H178c0,0,10,-85,61,-123c0,0,50,-38,154,-38c0,0,90,0,136,34c0,0,47,35,47,100c0,0,0,42,-31,64c0,0,-30,21,-123,43L283,368c0,0,-112,27,-160,75c0,0,-48,48,-48,135c0,0,0,112,80,178c0,0,81,66,218,66c0,0,140,0,222,-68c0,0,82,-67,88,-187H557c0,0,-6,67,-55,103c0,0,-48,37,-129,37c0,0,-84,0,-127,-29c0,0,-44,-29,-44,-85c0,0,0,-43,31,-65c0,0,30,-21,121,-43L493,452c0,0,117,-28,167,-78c0,0,49,-49,49,-138c0,0,0,-119,-86,-188c0,0,-85,-68,-230,-68Z" 
id="f1_2e"
transform="scale(0.001,-0.001)" />

<path d="M99,0V799H226V681l30,39c0,0,87,102,219,102c0,0,132,0,203,-71c0,0,72,-72,72,-204V0H616V502c0,0,0,105,-41,151c0,0,-40,47,-132,47c0,0,-97,0,-154,-73c0,0,-56,-74,-56,-199V0Z" 
id="f1_29"
transform="scale(0.001,-0.001)" />

<path d="M394,-20c0,0,-159,0,-253,113c0,0,-95,114,-95,307c0,0,0,193,98,308c0,0,98,114,264,114c0,0,144,0,230,-78c0,0,85,-79,91,-217H600c0,0,-8,86,-59,133c0,0,-52,47,-138,47c0,0,-101,0,-159,-82c0,0,-58,-82,-58,-225c0,0,0,-152,54,-229c0,0,53,-77,159,-77c0,0,79,0,132,50c0,0,52,51,69,143H729C729,287,709,137,623,58c0,0,-86,-78,-229,-78Z" 
id="f1_1y"
transform="scale(0.001,-0.001)" />

<path d="M424,94c0,0,107,0,169,83c0,0,63,83,63,223c0,0,0,140,-63,224c0,0,-62,83,-169,83c0,0,-106,0,-168,-83c0,0,-62,-84,-62,-224c0,0,0,-140,62,-223c0,0,62,-83,168,-83Zm0,-114c0,0,-165,0,-268,115C156,95,54,211,54,400c0,0,0,189,102,306c0,0,103,116,268,116c0,0,168,0,270,-116c0,0,102,-117,102,-306c0,0,0,-189,-102,-305C694,95,592,-20,424,-20Z" 
id="f1_2a"
transform="scale(0.001,-0.001)" />

<path d="M17,0L389,412L201,800H376L500,518L742,800H904L554,410L750,0H580L448,303L187,0Z" 
id="f2_2j"
transform="scale(0.001,-0.001)" />

<path d="M398,-20c0,0,-133,0,-209,72c0,0,-76,74,-76,202v3c0,0,0,27,4,60c0,0,4,33,10,63c0,0,43,208,168,326c0,0,126,117,306,117c0,0,131,0,192,-75c0,0,49,-61,50,-168l-3,-52H710c0,0,4,87,-33,131c0,0,-37,45,-113,45c0,0,-110,0,-184,-81c0,0,-75,-82,-107,-238c0,0,-6,-28,-9,-56c0,0,-3,-28,-3,-50c0,0,0,-88,43,-136c0,0,43,-48,121,-48c0,0,76,0,137,49c0,0,61,48,92,136H788C788,280,737,138,633,58c0,0,-103,-78,-235,-78Z" 
id="f2_1y"
transform="scale(0.001,-0.001)" />

<path d="M0,356v74H784V356Z" 
id="f3_h"
transform="scale(0.001,-0.001)" />

<path d="M355,0V355H0v72H355V784h72V427H782V355H427V0Z" 
id="f3_f"
transform="scale(0.001,-0.001)" />

<path d="M412,-328c0,0,-195,96,-303,284C109,-44,0,142,0,365c0,0,0,232,114,422c0,0,114,191,298,273v-31c0,0,-92,-51,-151,-139c0,0,-59,-88,-88,-223c0,0,-29,-136,-29,-282c0,0,0,-167,27,-301c0,0,26,-133,82,-221c0,0,55,-89,159,-159v-32Z" 
id="f3_c"
transform="scale(0.001,-0.001)" />

<path d="M34,-328v32c0,0,92,50,151,138c0,0,59,88,88,222c0,0,29,135,29,283c0,0,0,165,-27,300c0,0,-26,134,-82,222c0,0,-56,89,-159,160v31c0,0,194,-96,303,-284c0,0,108,-187,108,-410c0,0,0,-232,-114,-422c0,0,-114,-191,-297,-272Z" 
id="f3_d"
transform="scale(0.001,-0.001)" />

<path d="M406,0V763H155V870h2c16,0,114,2,178,48c0,0,70,51,104,157H549V0Z" 
id="f1_k"
transform="scale(0.001,-0.001)" />

<path d="M292,-9c0,0,-88,0,-124,38c0,0,-36,39,-36,134V689H22V799H132v224H266V799H392V689H266V163c0,0,0,-27,21,-43c0,0,21,-15,57,-15h48V1C392,1,324,-9,292,-9Z" 
id="f1_2f"
transform="scale(0.001,-0.001)" />

<path d="M335,90c0,0,106,0,179,57c0,0,50,41,67,91c0,0,3,10,4,31c0,0,3,21,3,47v87c0,0,-38,-18,-83,-25L381,360c0,0,-97,-13,-142,-45c0,0,-44,-31,-44,-86c0,0,0,-67,36,-103c0,0,37,-36,104,-36ZM309,-20c0,0,-117,0,-186,61c0,0,-68,63,-68,169c0,0,0,108,64,171c0,0,65,64,189,79l183,23c0,0,22,3,42,8c0,0,26,7,40,27c0,0,15,20,15,51v6c0,0,0,64,-49,101c0,0,-48,36,-135,36c0,0,-83,0,-130,-38c0,0,-46,-39,-56,-115H94c0,0,10,131,92,197c0,0,83,66,238,66c0,0,145,0,222,-63c0,0,76,-63,76,-184V137c0,0,0,-21,12,-33c0,0,12,-12,33,-12c0,0,6,0,18,1c0,0,11,2,25,5V1c0,0,-20,-7,-41,-11c0,0,-22,-5,-37,-5c0,0,-76,0,-110,41c0,0,-22,28,-32,79c0,0,-15,-19,-34,-36c0,0,-101,-89,-247,-89Z" 
id="f1_1w"
transform="scale(0.001,-0.001)" />

<path d="M354,90c0,0,107,0,192,57c0,0,60,41,87,95c0,0,5,12,11,33c0,0,6,20,11,44l18,88c0,0,-62,-26,-132,-37L414,352c0,0,-84,-11,-131,-56c0,0,-47,-45,-47,-113c0,0,0,-44,31,-69c0,0,31,-24,87,-24ZM306,-20c0,0,-99,0,-156,47c0,0,-57,49,-57,134c0,0,1,117,81,198c0,0,80,81,211,98l164,20l70,10c0,0,35,6,59,30c0,0,23,24,31,66l1,2c0,0,13,64,-25,94c0,0,-39,31,-132,31c0,0,-83,0,-137,-37c0,0,-54,-37,-84,-114H210c0,0,46,137,138,201c0,0,92,63,245,63c0,0,149,0,211,-59c0,0,45,-44,44,-116c0,0,1,-30,-6,-63L749,136c0,0,-4,-19,6,-32c0,0,10,-12,30,-12c0,0,6,0,19,1c0,0,12,2,25,5L809,1c0,0,-19,-6,-43,-11c0,0,-22,-5,-36,-5c0,0,-73,0,-100,43c0,0,-16,27,-17,75C612,102,594,85,573,69c0,0,-120,-89,-267,-89Z" 
id="f2_1w"
transform="scale(0.001,-0.001)" />

<path d="M424,-28c0,0,-180,0,-272,86c0,0,-92,87,-100,266H192c0,0,12,-126,66,-180c0,0,55,-54,170,-54c0,0,100,0,163,57c0,0,64,57,64,147c0,0,0,94,-61,149c0,0,-52,48,-135,54c0,0,-38,2,-72,2c0,0,-34,0,-45,-3V613c0,0,17,-3,51,-3c0,0,35,0,68,4c0,0,66,8,106,43c0,0,55,45,55,125c0,0,0,77,-58,125c0,0,-58,48,-148,48c0,0,-96,0,-147,-58c0,0,-51,-59,-56,-175H82c0,0,0,168,89,260c0,0,88,93,250,93c0,0,153,0,247,-77c0,0,94,-76,94,-202c0,0,0,-124,-95,-201c0,0,-18,-15,-39,-27c0,0,39,-17,69,-41c0,0,101,-79,101,-214c0,0,0,-151,-105,-246c0,0,-104,-95,-269,-95Z" 
id="f1_m"
transform="scale(0.001,-0.001)" />

<path d="M39,0V0c0,0,0,170,84,277c0,0,85,108,317,236c0,0,113,62,154,115c0,0,41,52,41,134c0,0,0,86,-62,141c0,0,-61,54,-156,54c0,0,-101,0,-158,-68c0,0,-57,-68,-60,-194H67c0,0,-2,178,95,279c0,0,98,101,273,101c0,0,149,0,245,-89c0,0,94,-88,94,-228c0,0,0,-118,-60,-195c0,0,-61,-76,-229,-169C485,394,303,294,237,212c0,0,-28,-36,-46,-81H774V0Z" 
id="f1_l"
transform="scale(0.001,-0.001)" />

<path d="M424,92c0,0,114,0,170,107c0,0,57,108,56,323c0,0,1,216,-56,324c0,0,-56,107,-170,107c0,0,-112,0,-168,-107c0,0,-56,-108,-57,-324c0,0,1,-215,57,-323c0,0,56,-107,168,-107Zm0,-120c0,0,-176,0,-271,142c0,0,-96,143,-96,408c0,0,0,265,96,409c0,0,95,144,271,144c0,0,178,0,273,-144c0,0,96,-144,96,-409c0,0,0,-265,-96,-408c0,0,-95,-142,-273,-142Z" 
id="f1_j"
transform="scale(0.001,-0.001)" />

<path d="M417,-28c0,0,-161,0,-259,79c0,0,-98,81,-109,223H189c0,0,11,-90,72,-139c0,0,61,-49,162,-49c0,0,96,0,158,68c0,0,61,68,61,175c0,0,0,112,-64,178c0,0,-64,66,-173,66c0,0,-59,0,-115,-28c0,0,-55,-29,-84,-73L93,480l77,573H727V922H271L225,629l4,3c0,0,89,60,188,60c0,0,169,0,269,-94c0,0,99,-93,99,-253c0,0,0,-165,-103,-269C682,76,579,-28,417,-28Z" 
id="f1_o"
transform="scale(0.001,-0.001)" />

<path d="M17,0L301,412L32,799H205L389,514L574,799H740L471,410L749,0H581L382,305L186,0Z" 
id="f1_2j"
transform="scale(0.001,-0.001)" />

<path d="M133,0V162H292V0Z" 
id="f1_h"
transform="scale(0.001,-0.001)" />

<path d="M140,-21c0,0,-26,0,-44,17C96,-4,79,13,79,40c0,0,0,19,6,33c0,0,8,20,34,55c0,0,46,60,64,126c0,0,32,114,41,321H190c0,0,-55,0,-81,-18c0,0,-44,-26,-80,-89H0c0,0,42,129,98,178c0,0,43,37,120,37H743V575H562c0,0,-27,-171,-27,-327c0,0,0,-77,27,-110c0,0,27,-33,67,-33c0,0,33,0,56,22c0,0,24,22,31,65h27C743,192,730,74,686,26c0,0,-44,-47,-98,-47c0,0,-58,0,-97,51c0,0,-39,53,-39,198c0,0,0,91,28,347H286c0,0,-23,-390,-56,-494c0,0,-33,-102,-90,-102Z" 
id="f3_2c"
transform="scale(0.001,-0.001)" />

<path d="M432,92c0,0,96,0,156,66c0,0,61,65,61,169c0,0,0,103,-61,169c0,0,-60,66,-156,66c0,0,-95,0,-156,-66c0,0,-61,-66,-61,-169c0,0,0,-104,61,-169c0,0,61,-66,156,-66ZM425,-28c0,0,-176,0,-271,135c0,0,-95,136,-95,388c0,0,0,278,103,429c0,0,103,151,293,151c0,0,142,0,226,-77c0,0,84,-76,90,-211H638c0,0,-8,80,-56,123c0,0,-47,43,-127,43c0,0,-125,0,-192,-119c0,0,-58,-102,-64,-278c0,0,100,127,255,127c0,0,152,0,245,-98c0,0,93,-98,93,-258c0,0,0,-161,-101,-259c0,0,-101,-96,-266,-96Z" 
id="f1_p"
transform="scale(0.001,-0.001)" />

<path d="M511,373V863L169,383l-7,-10ZM511,0V258H38V383l496,691H646V373H799V258H646V0Z" 
id="f1_n"
transform="scale(0.001,-0.001)" />

<path d="M103,0V1097H237V0Z" 
id="f1_27"
transform="scale(0.001,-0.001)" />

<path d="M418,95c0,0,98,0,158,73c0,0,59,73,59,193c0,0,0,170,-54,254c0,0,-54,85,-163,85c0,0,-113,0,-165,-72c0,0,-52,-71,-52,-227c0,0,0,-147,57,-227c0,0,56,-79,160,-79ZM394,-336c0,0,-136,0,-216,62c0,0,-79,63,-96,182H219c0,0,12,-64,57,-98c0,0,45,-35,116,-35c0,0,116,0,176,73c0,0,61,73,61,211V85l-1,-1C628,84,545,-20,412,-20c0,0,-161,0,-256,118c0,0,-94,120,-94,324c0,0,0,179,93,290c0,0,93,110,244,110c0,0,144,0,228,-124l10,-14V799H763V59c0,0,-1,-201,-91,-298c0,0,-91,-97,-278,-97Z" 
id="f1_22"
transform="scale(0.001,-0.001)" />

<path d="M0,368V478H849V368Z" 
id="f1_99"
transform="scale(0.001,-0.001)" />

<path d="M62,-123V268c0,0,0,230,56,452c0,0,47,190,134,334c0,0,87,144,204,242c0,0,85,73,194,119l18,-16c0,0,-211,-145,-335,-339c0,0,-98,-156,-149,-374c0,0,-50,-218,-50,-403V-123Z" 
id="f3_4o"
transform="scale(0.001,-0.001)" />

<path d="M617,-123V283c0,0,0,236,-63,459c0,0,-63,223,-188,392c0,0,-108,146,-282,265l17,16c0,0,180,-76,320,-248c0,0,139,-172,204,-417c0,0,64,-245,64,-482V-123Z" 
id="f3_54"
transform="scale(0.001,-0.001)" />

<path d="M62,-123V1415h72V-123Z" 
id="f3_4p"
transform="scale(0.001,-0.001)" />

<path d="M617,-123V1415h72V-123Z" 
id="f3_55"
transform="scale(0.001,-0.001)" />

<path d="M650,-123c0,0,-180,75,-319,246c0,0,-140,172,-205,418c0,0,-64,245,-64,481v393h72V1007c0,0,0,-236,63,-459c0,0,63,-223,189,-391c0,0,108,-145,282,-265l-18,-15Z" 
id="f3_4q"
transform="scale(0.001,-0.001)" />

<path d="M101,-123l-17,15c0,0,210,144,334,339c0,0,99,156,149,373c0,0,50,218,50,403v408h72V1022c0,0,0,-230,-56,-451c0,0,-48,-191,-134,-335C499,236,412,92,295,-5c0,0,-84,-73,-194,-118Z" 
id="f3_56"
transform="scale(0.001,-0.001)" />

<path d="M424,92c0,0,98,0,161,58c0,0,62,58,62,149c0,0,0,92,-62,151c0,0,-63,58,-161,58c0,0,-98,0,-160,-58c0,0,-63,-59,-63,-151c0,0,0,-91,63,-149c0,0,62,-58,160,-58Zm0,533c0,0,82,0,134,46c0,0,52,45,52,118c0,0,0,72,-52,118c0,0,-52,46,-134,46c0,0,-82,0,-134,-46c0,0,-52,-46,-52,-118c0,0,0,-73,52,-119c0,0,52,-45,134,-45Zm0,-653c0,0,-165,0,-265,90C159,62,59,154,59,305c0,0,0,134,100,216c0,0,35,28,78,47c0,0,-27,15,-52,33c0,0,-90,70,-90,185c0,0,0,130,90,209c0,0,91,80,239,80c0,0,148,0,238,-80c0,0,91,-79,91,-209c0,0,0,-115,-91,-185c0,0,-24,-19,-52,-32c0,0,44,-20,79,-49c0,0,101,-81,101,-215c0,0,0,-151,-101,-243c0,0,-100,-90,-265,-90Z" 
id="f1_r"
transform="scale(0.001,-0.001)" />

<path d="M212,0c0,0,51,270,162,500c0,0,109,222,281,422H57v131H799V934C799,934,623,726,515,498C515,498,408,269,362,0Z" 
id="f1_q"
transform="scale(0.001,-0.001)" />

<path d="M435,0V856c0,0,-48,-47,-127,-93c0,0,-79,-46,-142,-69V824c0,0,113,52,197,128c0,0,85,75,120,146h86V0Z" 
id="f4_l"
transform="scale(0.001,-0.001)" />

<path d="M420,489c0,0,93,0,153,65c0,0,60,65,60,181c0,0,0,116,-62,184c0,0,-61,68,-148,68c0,0,-90,0,-156,-74c0,0,-66,-73,-66,-189c0,0,0,-105,63,-170c0,0,63,-65,156,-65ZM391,-18c0,0,-128,0,-209,71c0,0,-82,71,-98,200l129,12c0,0,17,-91,63,-132c0,0,46,-41,118,-41c0,0,62,0,109,28c0,0,47,29,76,76c0,0,30,47,50,128c0,0,20,80,20,164c0,0,0,9,-1,27c0,0,-40,-65,-110,-105c0,0,-69,-39,-151,-39c0,0,-135,0,-229,98c0,0,-94,99,-94,260c0,0,0,166,98,268c0,0,98,101,245,101c0,0,107,0,195,-57c0,0,89,-58,134,-164c0,0,46,-106,46,-308c0,0,0,-209,-45,-334C737,235,691,111,602,46c0,0,-90,-64,-211,-64Z" 
id="f4_t"
transform="scale(0.001,-0.001)" />

<path d="M125,0V1051H268V115H799V0Z" 
id="f0_1c"
transform="scale(0.001,-0.001)" />

<path d="M106,0V620c0,0,0,85,-5,188H228c0,0,6,-138,6,-165h3c0,0,32,103,74,141c0,0,42,38,118,38c0,0,27,0,54,-7V692c0,0,-26,7,-71,7c0,0,-84,0,-128,-72c0,0,-44,-72,-44,-206V0Z" 
id="f0_2e"
transform="scale(0.001,-0.001)" />

<path d="M606,-14c0,0,-164,0,-284,65c0,0,-119,66,-182,189c0,0,-63,123,-63,291c0,0,0,255,137,396c0,0,137,140,386,140c0,0,174,0,283,-59c0,0,109,-59,168,-189L915,779c0,0,-44,90,-123,131c0,0,-79,41,-196,41c0,0,-182,0,-278,-110c0,0,-96,-110,-96,-310c0,0,0,-200,102,-315c0,0,102,-115,282,-115c0,0,103,0,193,31c0,0,89,31,144,85V407H629V526h445V164c0,0,-83,-85,-205,-132c0,0,-121,-46,-263,-46Z" 
id="f0_17"
transform="scale(0.001,-0.001)" />

<path d="M355,-14c0,0,-133,0,-194,65c0,0,-62,66,-62,219V808H234V296c0,0,0,-80,16,-124c0,0,16,-44,50,-64c0,0,34,-19,101,-19c0,0,97,0,153,66c0,0,55,67,55,185V808H744V172c0,0,0,-141,4,-172H621c0,0,0,4,-1,20c0,0,-1,17,-2,38c0,0,-1,21,-3,80h-2C613,138,567,55,506,20c0,0,-61,-34,-151,-34Z" 
id="f0_2h"
transform="scale(0.001,-0.001)" />

<path d="M395,89c0,0,115,0,166,79c0,0,51,79,51,246c0,0,0,160,-51,235c0,0,-51,75,-164,75c0,0,-102,0,-147,-75c0,0,-45,-75,-45,-244c0,0,0,-170,45,-243c0,0,45,-73,145,-73ZM361,-14c0,0,-153,0,-225,102c0,0,-72,103,-72,312c0,0,0,422,297,422c0,0,92,0,153,-33c0,0,61,-34,98,-107h2l-2,90v335H747V166c0,0,0,-126,4,-166H623c0,0,-2,12,-5,55c0,0,-3,44,-3,75h-3c0,0,-37,-78,-98,-111c0,0,-62,-33,-153,-33Z" 
id="f0_20"
transform="scale(0.001,-0.001)" />

<path d="M140,0V163H285V0Z" 
id="f0_i"
transform="scale(0.001,-0.001)" />


</defs>
</svg>