<?xml version="1.0" encoding="UTF-8" standalone="no"?>
<!DOCTYPE svg PUBLIC "-//W3C//DTD SVG 1.1//EN"
"http://www.w3.org/Graphics/SVG/1.1/DTD/svg11.dtd">
<svg viewBox="0 0 696 1067" version="1.1" xmlns="http://www.w3.org/2000/svg" xmlns:xlink="http://www.w3.org/1999/xlink">
<defs>
<style type="text/css"><![CDATA[
.g0_28{
fill: none;
stroke: #000000;
stroke-width: 0.7638889;
stroke-linecap: round;
stroke-linejoin: miter;
}
]]></style>
</defs>
<g fill="#D4D4D4" fill-opacity="0.56" >
<use xlink:href="#f0_1f" transform="matrix(50.9,-50.9,50.9,50.9,84.5,924.1)" />
<use xlink:href="#f0_2a" transform="matrix(50.9,-50.9,50.9,50.9,145,863.6)" />
<use xlink:href="#f0_28" transform="matrix(50.9,-50.9,50.9,50.9,188.3,820.3)" />
<use xlink:href="#f0_25" transform="matrix(50.9,-50.9,50.9,50.9,205.5,803.1)" />
<use xlink:href="#f0_2a" transform="matrix(50.9,-50.9,50.9,50.9,222.8,785.8)" />
<use xlink:href="#f0_21" transform="matrix(50.9,-50.9,50.9,50.9,266,742.5)" />
<use xlink:href="#f0_2k" transform="matrix(50.9,-50.9,50.9,50.9,309.3,699.3)" />
<use xlink:href="#f0_1x" transform="matrix(50.9,-50.9,50.9,50.9,348.2,660.4)" />
<use xlink:href="#f0_29" transform="matrix(50.9,-50.9,50.9,50.9,391.4,617.2)" />
<use xlink:href="#f0_2c" transform="matrix(50.9,-50.9,50.9,50.9,456.2,552.4)" />
<use xlink:href="#f0_2b" transform="matrix(50.9,-50.9,50.9,50.9,499.5,509.1)" />
<use xlink:href="#f0_25" transform="matrix(50.9,-50.9,50.9,50.9,542.7,465.9)" />
<use xlink:href="#f0_2a" transform="matrix(50.9,-50.9,50.9,50.9,560,448.6)" />
<use xlink:href="#f0_2g" transform="matrix(50.9,-50.9,50.9,50.9,603.2,405.4)" />
</g>
<g fill="#000000" >
<use xlink:href="#f1_m" transform="matrix(10.4,0,0,10.4,68.3,108.8)" />
<use xlink:href="#f1_p" transform="matrix(10.4,0,0,10.4,77.2,108.8)" />
<use xlink:href="#f1_h" transform="matrix(10.4,0,0,10.4,86.3,108.8)" />
<use xlink:href="#f1_15" transform="matrix(10.4,0,0,10.4,109,108.8)" />
<use xlink:href="#f1_24" transform="matrix(10.4,0,0,10.4,118.8,108.8)" />
<use xlink:href="#f1_29" transform="matrix(10.4,0,0,10.4,122.3,108.8)" />
<use xlink:href="#f1_1z" transform="matrix(10.4,0,0,10.4,131.2,108.8)" />
<use xlink:href="#f2_10" transform="matrix(10.4,0,0,10.4,146.6,108.8)" />
<use xlink:href="#f1_1w" transform="matrix(10.4,0,0,10.4,164,108.8)" />
<use xlink:href="#f1_29" transform="matrix(10.4,0,0,10.4,172.9,108.8)" />
<use xlink:href="#f1_1z" transform="matrix(10.4,0,0,10.4,181.7,108.8)" />
<use xlink:href="#f2_11" transform="matrix(10.4,0,0,10.4,197.2,108.8)" />
<use xlink:href="#f1_24" transform="matrix(10.4,0,0,10.4,214.6,108.8)" />
<use xlink:href="#f1_21" transform="matrix(10.4,0,0,10.4,218.2,108.8)" />
<use xlink:href="#f1_l" transform="matrix(10.4,0,0,10.4,229.4,108.8)" />
<use xlink:href="#f2_10" transform="matrix(10.4,0,0,10.4,238.1,108.8)" />
<use xlink:href="#f1_e" transform="matrix(10.4,0,0,10.4,255.5,108.8)" />
<use xlink:href="#f1_m" transform="matrix(10.4,0,0,10.4,271.6,108.8)" />
<use xlink:href="#f2_11" transform="matrix(10.4,0,0,10.4,280.4,108.8)" />
<use xlink:href="#f1_w" transform="matrix(10.4,0,0,10.4,297.8,108.8)" />
<use xlink:href="#f1_k" transform="matrix(10.5,0,0,10.5,324.3,96.9)" />
<use xlink:href="#f1_l" transform="matrix(10.5,0,0,10.5,356.7,96.9)" />
<use xlink:href="#f1_m" transform="matrix(10.5,0,0,10.5,383.6,96.9)" />
<use xlink:href="#f1_m" transform="matrix(10.5,0,0,10.5,523.1,96.9)" />
<use xlink:href="#f1_j" transform="matrix(10.5,0,0,10.5,550.3,96.9)" />
<use xlink:href="#f1_k" transform="matrix(10.5,0,0,10.5,574.7,96.9)" />
<use xlink:href="#f1_1w" transform="matrix(10.5,0,0,10.5,412.2,108.7)" />
<use xlink:href="#f1_29" transform="matrix(10.5,0,0,10.5,421.2,108.7)" />
<use xlink:href="#f1_1z" transform="matrix(10.5,0,0,10.5,430.1,108.7)" />
<use xlink:href="#f1_l" transform="matrix(10.5,0,0,10.5,474.8,108.7)" />
<use xlink:href="#f1_l" transform="matrix(10.5,0,0,10.5,323.8,121)" />
<use xlink:href="#f1_j" transform="matrix(10.5,0,0,10.5,351.9,121)" />
<use xlink:href="#f1_k" transform="matrix(10.5,0,0,10.5,389.5,121)" />
<use xlink:href="#f1_k" transform="matrix(10.5,0,0,10.5,529,121)" />
<use xlink:href="#f1_p" transform="matrix(10.5,0,0,10.5,550.3,121)" />
<use xlink:href="#f1_l" transform="matrix(10.5,0,0,10.5,574.2,121)" />
<use xlink:href="#f2_10" transform="matrix(10.5,0,0,10.5,448.4,108.7)" />
<use xlink:href="#f2_11" transform="matrix(10.5,0,0,10.5,483.1,108.7)" />
<use xlink:href="#f3_h" transform="matrix(10.5,0,0,10.5,347.9,96.9)" />
<use xlink:href="#f3_4r" transform="matrix(10.5,0,0,10.5,317.2,97.9)" />
<use xlink:href="#f3_57" transform="matrix(10.5,0,0,10.5,396.4,97.9)" />
<use xlink:href="#f3_4r" transform="matrix(10.5,0,0,10.5,513.2,97.9)" />
<use xlink:href="#f3_57" transform="matrix(10.5,0,0,10.5,583.3,97.9)" />
<use xlink:href="#f3_h" transform="matrix(10.5,0,0,10.5,463,108.7)" />
<use xlink:href="#f3_x" transform="matrix(10.5,0,0,10.5,499.3,108.7)" />
<use xlink:href="#f3_4s" transform="matrix(10.5,0,0,10.5,317.2,113.4)" />
<use xlink:href="#f3_58" transform="matrix(10.5,0,0,10.5,396.4,113.4)" />
<use xlink:href="#f3_4s" transform="matrix(10.5,0,0,10.5,513.2,113.4)" />
<use xlink:href="#f3_58" transform="matrix(10.5,0,0,10.5,583.3,113.4)" />
<use xlink:href="#f3_h" transform="matrix(10.5,0,0,10.5,380.8,121)" />
<use xlink:href="#f3_h" transform="matrix(10.5,0,0,10.5,520.3,121)" />
<use xlink:href="#f3_4t" transform="matrix(10.5,0,0,10.5,317.2,124.5)" />
<use xlink:href="#f3_59" transform="matrix(10.5,0,0,10.5,396.4,124.5)" />
<use xlink:href="#f3_4t" transform="matrix(10.5,0,0,10.5,513.2,124.5)" />
<use xlink:href="#f3_59" transform="matrix(10.5,0,0,10.5,583.3,124.5)" />
<use xlink:href="#f1_h" transform="matrix(10.4,0,0,10.4,592.6,108.8)" />
<use xlink:href="#f1_m" transform="matrix(10.4,0,0,10.4,68.3,201.6)" />
<use xlink:href="#f1_q" transform="matrix(10.4,0,0,10.4,77.2,201.6)" />
<use xlink:href="#f1_h" transform="matrix(10.4,0,0,10.4,86.3,201.6)" />
<use xlink:href="#f1_18" transform="matrix(10.4,0,0,10.4,109,201.6)" />
<use xlink:href="#f1_21" transform="matrix(10.4,0,0,10.4,113.4,201.6)" />
<use xlink:href="#f3_1r" transform="matrix(10.4,0,0,14.7,257,202.6)" />
<use xlink:href="#f3_1t" transform="matrix(10.4,0,0,14.7,344.9,202.6)" />
<use xlink:href="#f1_k" transform="matrix(10.5,0,0,10.5,172.6,177.3)" />
<use xlink:href="#f1_l" transform="matrix(10.5,0,0,10.5,170.3,201.4)" />
<use xlink:href="#f1_1w" transform="matrix(10.5,0,0,10.5,195.4,201.4)" />
<use xlink:href="#f1_29" transform="matrix(10.5,0,0,10.5,204.3,201.4)" />
<use xlink:href="#f1_1z" transform="matrix(10.5,0,0,10.5,213.2,201.4)" />
<use xlink:href="#f1_l" transform="matrix(10.5,0,0,10.5,272,201.4)" />
<use xlink:href="#f1_k" transform="matrix(10.5,0,0,10.5,304.9,201.4)" />
<use xlink:href="#f1_n" transform="matrix(10.5,0,0,10.5,335.4,201.4)" />
<use xlink:href="#f1_f" transform="matrix(10.5,0,0,10.5,350.4,201.4)" />
<use xlink:href="#f1_m" transform="matrix(10.5,0,0,10.5,170.1,225.4)" />
<use xlink:href="#f2_10" transform="matrix(10.5,0,0,10.5,127.4,201.4)" />
<use xlink:href="#f2_11" transform="matrix(10.5,0,0,10.5,228.3,201.4)" />
<use xlink:href="#f3_h" transform="matrix(10.5,0,0,10.5,163.9,177.3)" />
<use xlink:href="#f3_4r" transform="matrix(10.5,0,0,10.5,156.8,178.3)" />
<use xlink:href="#f3_57" transform="matrix(10.5,0,0,10.5,179.5,178.3)" />
<use xlink:href="#f3_4s" transform="matrix(10.5,0,0,10.5,156.8,193.8)" />
<use xlink:href="#f3_58" transform="matrix(10.5,0,0,10.5,179.5,193.8)" />
<use xlink:href="#f3_x" transform="matrix(10.5,0,0,10.5,142.9,201.4)" />
<use xlink:href="#f3_x" transform="matrix(10.5,0,0,10.5,244.5,201.4)" />
<use xlink:href="#f3_h" transform="matrix(10.5,0,0,10.5,263.4,201.4)" />
<use xlink:href="#f3_h" transform="matrix(10.5,0,0,10.5,296.3,201.4)" />
<use xlink:href="#f3_h" transform="matrix(10.5,0,0,10.5,326.9,201.4)" />
<use xlink:href="#f3_4s" transform="matrix(10.5,0,0,10.5,156.8,209.1)" />
<use xlink:href="#f3_58" transform="matrix(10.5,0,0,10.5,179.5,209.1)" />
<use xlink:href="#f3_4s" transform="matrix(10.5,0,0,10.5,156.8,224.3)" />
<use xlink:href="#f3_58" transform="matrix(10.5,0,0,10.5,179.5,224.3)" />
<use xlink:href="#f3_4t" transform="matrix(10.5,0,0,10.5,156.8,228.9)" />
<use xlink:href="#f3_59" transform="matrix(10.5,0,0,10.5,179.5,228.9)" />
<use xlink:href="#f1_2h" transform="matrix(10.4,0,0,10.4,364,201.6)" />
<use xlink:href="#f1_20" transform="matrix(10.4,0,0,10.4,372,201.6)" />
<use xlink:href="#f1_2d" transform="matrix(10.4,0,0,10.4,380.9,201.6)" />
<use xlink:href="#f1_24" transform="matrix(10.4,0,0,10.4,386.2,201.6)" />
<use xlink:href="#f1_21" transform="matrix(10.4,0,0,10.4,389.7,201.6)" />
<use xlink:href="#f1_2k" transform="matrix(10.4,0,0,10.4,394.2,201.6)" />
<use xlink:href="#f1_2f" transform="matrix(10.4,0,0,10.4,408.9,201.6)" />
<use xlink:href="#f1_23" transform="matrix(10.4,0,0,10.4,413.3,201.6)" />
<use xlink:href="#f1_1w" transform="matrix(10.4,0,0,10.4,422.2,201.6)" />
<use xlink:href="#f1_2f" transform="matrix(10.4,0,0,10.4,431.1,201.6)" />
<use xlink:href="#f1_b" transform="matrix(10.4,0,0,10.4,442.3,201.6)" />
<use xlink:href="#f2_10" transform="matrix(10.4,0,0,10.4,447.4,201.6)" />
<use xlink:href="#f2_11" transform="matrix(10.4,0,0,10.4,458.1,201.6)" />
<use xlink:href="#f1_c" transform="matrix(10.4,0,0,10.4,468.7,201.6)" />
<use xlink:href="#f1_3e" transform="matrix(12,0,0,12,474,201.6)" />
<use xlink:href="#f1_w" transform="matrix(10.4,0,0,10.4,486.9,201.6)" />
<use xlink:href="#f2_11" transform="matrix(10.4,0,0,10.4,503,201.6)" />
<use xlink:href="#f1_3e" transform="matrix(12,0,0,12,513.6,201.6)" />
<use xlink:href="#f2_10" transform="matrix(10.4,0,0,10.4,519.7,201.6)" />
<use xlink:href="#f1_3e" transform="matrix(12,0,0,12,530.3,201.6)" />
<use xlink:href="#f1_h" transform="matrix(10.4,0,0,10.4,536.4,201.6)" />
<use xlink:href="#f1_m" transform="matrix(10.4,0,0,10.4,68.3,307.2)" />
<use xlink:href="#f1_r" transform="matrix(10.4,0,0,10.4,77.2,307.2)" />
<use xlink:href="#f1_h" transform="matrix(10.4,0,0,10.4,86.3,307.2)" />
<use xlink:href="#f1_14" transform="matrix(10.4,0,0,10.4,109,307.2)" />
<use xlink:href="#f1_2j" transform="matrix(10.4,0,0,10.4,119.6,307.2)" />
<use xlink:href="#f1_2b" transform="matrix(10.4,0,0,10.4,127.6,307.2)" />
<use xlink:href="#f1_2d" transform="matrix(10.4,0,0,10.4,136.5,307.2)" />
<use xlink:href="#f1_20" transform="matrix(10.4,0,0,10.4,141.8,307.2)" />
<use xlink:href="#f1_2e" transform="matrix(10.4,0,0,10.4,150.7,307.2)" />
<use xlink:href="#f1_2e" transform="matrix(10.4,0,0,10.4,158.6,307.2)" />
<use xlink:href="#f1_2f" transform="matrix(10.4,0,0,10.4,172.3,307.2)" />
<use xlink:href="#f1_23" transform="matrix(10.4,0,0,10.4,176.7,307.2)" />
<use xlink:href="#f1_20" transform="matrix(10.4,0,0,10.4,185.6,307.2)" />
<use xlink:href="#f1_28" transform="matrix(10.4,0,0,10.4,200,307.2)" />
<use xlink:href="#f1_1w" transform="matrix(10.4,0,0,10.4,213.3,307.2)" />
<use xlink:href="#f1_2f" transform="matrix(10.4,0,0,10.4,222.1,307.2)" />
<use xlink:href="#f1_2d" transform="matrix(10.4,0,0,10.4,226.6,307.2)" />
<use xlink:href="#f1_24" transform="matrix(10.4,0,0,10.4,231.9,307.2)" />
<use xlink:href="#f1_2j" transform="matrix(10.4,0,0,10.4,235.4,307.2)" />
<use xlink:href="#f1_m" transform="matrix(10.5,0,0,10.5,267.8,283.5)" />
<use xlink:href="#f1_m" transform="matrix(10.5,0,0,10.5,300.9,283.5)" />
<use xlink:href="#f1_k" transform="matrix(10.5,0,0,10.5,334,283.5)" />
<use xlink:href="#f1_l" transform="matrix(10.5,0,0,10.5,268,307.6)" />
<use xlink:href="#f1_l" transform="matrix(10.5,0,0,10.5,301.1,307.6)" />
<use xlink:href="#f1_k" transform="matrix(10.5,0,0,10.5,334,307.6)" />
<use xlink:href="#f1_n" transform="matrix(10.5,0,0,10.5,267.8,331.6)" />
<use xlink:href="#f1_o" transform="matrix(10.5,0,0,10.5,300.9,331.6)" />
<use xlink:href="#f1_l" transform="matrix(10.5,0,0,10.5,331.7,331.6)" />
<use xlink:href="#f2_1f" transform="matrix(10.5,0,0,10.5,364.2,307.6)" />
<use xlink:href="#f2_1g" transform="matrix(10.5,0,0,10.5,390.8,307.6)" />
<use xlink:href="#f3_h" transform="matrix(10.5,0,0,10.5,325.2,283.5)" />
<use xlink:href="#f3_4r" transform="matrix(10.5,0,0,10.5,252,284.5)" />
<use xlink:href="#f3_57" transform="matrix(10.5,0,0,10.5,340.8,284.5)" />
<use xlink:href="#f3_4s" transform="matrix(10.5,0,0,10.5,252,300)" />
<use xlink:href="#f3_58" transform="matrix(10.5,0,0,10.5,340.8,300)" />
<use xlink:href="#f3_h" transform="matrix(10.5,0,0,10.5,259.3,307.6)" />
<use xlink:href="#f3_h" transform="matrix(10.5,0,0,10.5,292.4,307.6)" />
<use xlink:href="#f3_x" transform="matrix(10.5,0,0,10.5,351.8,307.6)" />
<use xlink:href="#f3_f" transform="matrix(10.5,0,0,10.5,379.7,307.6)" />
<use xlink:href="#f3_4s" transform="matrix(10.5,0,0,10.5,252,315.3)" />
<use xlink:href="#f3_58" transform="matrix(10.5,0,0,10.5,340.8,315.3)" />
<use xlink:href="#f3_4s" transform="matrix(10.5,0,0,10.5,252,330.5)" />
<use xlink:href="#f3_58" transform="matrix(10.5,0,0,10.5,340.8,330.5)" />
<use xlink:href="#f3_h" transform="matrix(10.5,0,0,10.5,259.1,331.6)" />
<use xlink:href="#f3_h" transform="matrix(10.5,0,0,10.5,292.2,331.6)" />
<use xlink:href="#f3_4t" transform="matrix(10.5,0,0,10.5,252,335.1)" />
<use xlink:href="#f3_59" transform="matrix(10.5,0,0,10.5,340.8,335.1)" />
<use xlink:href="#f1_2i" transform="matrix(10.4,0,0,10.4,413.9,307.2)" />
<use xlink:href="#f1_23" transform="matrix(10.4,0,0,10.4,425.4,307.2)" />
<use xlink:href="#f1_20" transform="matrix(10.4,0,0,10.4,434.3,307.2)" />
<use xlink:href="#f1_2d" transform="matrix(10.4,0,0,10.4,443.1,307.2)" />
<use xlink:href="#f1_20" transform="matrix(10.4,0,0,10.4,448.5,307.2)" />
<use xlink:href="#f2_1f" transform="matrix(10.4,0,0,10.4,462.8,307.2)" />
<use xlink:href="#f1_24" transform="matrix(10.4,0,0,10.4,479.2,307.2)" />
<use xlink:href="#f1_2e" transform="matrix(10.4,0,0,10.4,482.7,307.2)" />
<use xlink:href="#f1_1w" transform="matrix(10.4,0,0,10.4,496.4,307.2)" />
<use xlink:href="#f1_2e" transform="matrix(10.4,0,0,10.4,510.7,307.2)" />
<use xlink:href="#f1_2k" transform="matrix(10.4,0,0,10.4,518.7,307.2)" />
<use xlink:href="#f1_28" transform="matrix(10.4,0,0,10.4,526.7,307.2)" />
<use xlink:href="#f1_28" transform="matrix(10.4,0,0,10.4,540,307.2)" />
<use xlink:href="#f1_20" transform="matrix(10.4,0,0,10.4,553.2,307.2)" />
<use xlink:href="#f1_2f" transform="matrix(10.4,0,0,10.4,562.1,307.2)" />
<use xlink:href="#f1_2d" transform="matrix(10.4,0,0,10.4,566.6,307.2)" />
<use xlink:href="#f1_24" transform="matrix(10.4,0,0,10.4,571.9,307.2)" />
<use xlink:href="#f1_1y" transform="matrix(10.4,0,0,10.4,575.4,307.2)" />
<use xlink:href="#f1_1w" transform="matrix(10.4,0,0,10.4,589.1,307.2)" />
<use xlink:href="#f1_29" transform="matrix(10.4,0,0,10.4,597.9,307.2)" />
<use xlink:href="#f1_1z" transform="matrix(10.4,0,0,10.4,606.8,307.2)" />
<use xlink:href="#f2_1g" transform="matrix(10.4,0,0,10.4,621.1,307.2)" />
<use xlink:href="#f1_24" transform="matrix(10.4,0,0,10.4,109,362.5)" />
<use xlink:href="#f1_2e" transform="matrix(10.4,0,0,10.4,112.6,362.5)" />
<use xlink:href="#f1_1w" transform="matrix(10.4,0,0,10.4,127.9,362.5)" />
<use xlink:href="#f1_2e" transform="matrix(10.4,0,0,10.4,143.9,362.5)" />
<use xlink:href="#f1_26" transform="matrix(10.4,0,0,10.4,151.9,362.5)" />
<use xlink:href="#f1_20" transform="matrix(10.4,0,0,10.4,159.8,362.5)" />
<use xlink:href="#f1_2i" transform="matrix(10.4,0,0,10.4,168.7,362.5)" />
<use xlink:href="#f1_g" transform="matrix(10.4,0,0,10.4,180.2,362.5)" />
<use xlink:href="#f1_2e" transform="matrix(10.4,0,0,10.4,185.5,362.5)" />
<use xlink:href="#f1_2k" transform="matrix(10.4,0,0,10.4,193.5,362.5)" />
<use xlink:href="#f1_28" transform="matrix(10.4,0,0,10.4,201.5,362.5)" />
<use xlink:href="#f1_28" transform="matrix(10.4,0,0,10.4,214.8,362.5)" />
<use xlink:href="#f1_20" transform="matrix(10.4,0,0,10.4,228,362.5)" />
<use xlink:href="#f1_2f" transform="matrix(10.4,0,0,10.4,236.9,362.5)" />
<use xlink:href="#f1_2d" transform="matrix(10.4,0,0,10.4,241.3,362.5)" />
<use xlink:href="#f1_24" transform="matrix(10.4,0,0,10.4,246.7,362.5)" />
<use xlink:href="#f1_1y" transform="matrix(10.4,0,0,10.4,250.2,362.5)" />
<use xlink:href="#f1_28" transform="matrix(10.4,0,0,10.4,265.5,362.5)" />
<use xlink:href="#f1_1w" transform="matrix(10.4,0,0,10.4,278.8,362.5)" />
<use xlink:href="#f1_2f" transform="matrix(10.4,0,0,10.4,287.7,362.5)" />
<use xlink:href="#f1_2d" transform="matrix(10.4,0,0,10.4,292.1,362.5)" />
<use xlink:href="#f1_24" transform="matrix(10.4,0,0,10.4,297.4,362.5)" />
<use xlink:href="#f1_2j" transform="matrix(10.4,0,0,10.4,301,362.5)" />
<use xlink:href="#f1_h" transform="matrix(10.4,0,0,10.4,308.9,362.5)" />
<use xlink:href="#f1_m" transform="matrix(10.4,0,0,10.4,68.3,418.6)" />
<use xlink:href="#f1_s" transform="matrix(10.4,0,0,10.4,77.2,418.6)" />
<use xlink:href="#f1_h" transform="matrix(10.4,0,0,10.4,86.3,418.6)" />
<use xlink:href="#f1_18" transform="matrix(10.4,0,0,10.4,109,418.6)" />
<use xlink:href="#f1_21" transform="matrix(10.4,0,0,10.4,113.4,418.6)" />
<use xlink:href="#f2_10" transform="matrix(10.4,0,0,10.4,124.6,418.6)" />
<use xlink:href="#f2_w" transform="matrix(10.4,0,0,10.4,142.2,418.6)" />
<use xlink:href="#f1_1y" transform="matrix(10.5,0,0,10.5,173.7,406.8)" />
<use xlink:href="#f1_2a" transform="matrix(10.5,0,0,10.5,182,406.8)" />
<use xlink:href="#f1_2e" transform="matrix(10.5,0,0,10.5,191.3,406.8)" />
<use xlink:href="#f1_2e" transform="matrix(10.5,0,0,10.5,241.4,406.8)" />
<use xlink:href="#f1_24" transform="matrix(10.5,0,0,10.5,249.8,406.8)" />
<use xlink:href="#f1_29" transform="matrix(10.5,0,0,10.5,253.5,406.8)" />
<use xlink:href="#f1_f" transform="matrix(10.5,0,0,10.5,288.5,418.5)" />
<use xlink:href="#f1_2e" transform="matrix(10.5,0,0,10.5,183,430.8)" />
<use xlink:href="#f1_24" transform="matrix(10.5,0,0,10.5,191.3,430.8)" />
<use xlink:href="#f1_29" transform="matrix(10.5,0,0,10.5,195.1,430.8)" />
<use xlink:href="#f1_1y" transform="matrix(10.5,0,0,10.5,239,430.8)" />
<use xlink:href="#f1_2a" transform="matrix(10.5,0,0,10.5,247.3,430.8)" />
<use xlink:href="#f1_2e" transform="matrix(10.5,0,0,10.5,256.6,430.8)" />
<use xlink:href="#f3_2d" transform="matrix(10.5,0,0,10.5,203.3,406.8)" />
<use xlink:href="#f3_2d" transform="matrix(10.5,0,0,10.5,266,406.8)" />
<use xlink:href="#f3_4r" transform="matrix(10.5,0,0,10.5,161.6,407.9)" />
<use xlink:href="#f3_57" transform="matrix(10.5,0,0,10.5,278.6,407.9)" />
<use xlink:href="#f3_4s" transform="matrix(10.5,0,0,10.5,161.6,423.4)" />
<use xlink:href="#f3_58" transform="matrix(10.5,0,0,10.5,278.6,423.4)" />
<use xlink:href="#f3_h" transform="matrix(10.5,0,0,10.5,169.8,430.8)" />
<use xlink:href="#f3_2d" transform="matrix(10.5,0,0,10.5,207.6,430.8)" />
<use xlink:href="#f3_2d" transform="matrix(10.5,0,0,10.5,268.6,430.8)" />
<use xlink:href="#f3_4t" transform="matrix(10.5,0,0,10.5,161.6,434.2)" />
<use xlink:href="#f3_59" transform="matrix(10.5,0,0,10.5,278.6,434.2)" />
<use xlink:href="#f1_2f" transform="matrix(10.4,0,0,10.4,301.7,418.6)" />
<use xlink:href="#f1_23" transform="matrix(10.4,0,0,10.4,306.1,418.6)" />
<use xlink:href="#f1_20" transform="matrix(10.4,0,0,10.4,315,418.6)" />
<use xlink:href="#f1_29" transform="matrix(10.4,0,0,10.4,323.9,418.6)" />
<use xlink:href="#f1_2b" transform="matrix(10.4,0,0,10.4,339.7,418.6)" />
<use xlink:href="#f1_2d" transform="matrix(10.4,0,0,10.4,348.6,418.6)" />
<use xlink:href="#f1_2a" transform="matrix(10.4,0,0,10.4,353.9,418.6)" />
<use xlink:href="#f1_2h" transform="matrix(10.4,0,0,10.4,362.7,418.6)" />
<use xlink:href="#f1_20" transform="matrix(10.4,0,0,10.4,370.7,418.6)" />
<use xlink:href="#f1_2f" transform="matrix(10.4,0,0,10.4,386.6,418.6)" />
<use xlink:href="#f1_23" transform="matrix(10.4,0,0,10.4,391,418.6)" />
<use xlink:href="#f1_1w" transform="matrix(10.4,0,0,10.4,399.9,418.6)" />
<use xlink:href="#f1_2f" transform="matrix(10.4,0,0,10.4,408.7,418.6)" />
<use xlink:href="#f1_1y" transform="matrix(10.5,0,0,10.5,469.8,406.8)" />
<use xlink:href="#f1_2a" transform="matrix(10.5,0,0,10.5,477.8,406.8)" />
<use xlink:href="#f1_2e" transform="matrix(10.5,0,0,10.5,486.7,406.8)" />
<use xlink:href="#f1_2e" transform="matrix(10.5,0,0,10.5,536.4,406.8)" />
<use xlink:href="#f1_24" transform="matrix(10.5,0,0,10.5,544.4,406.8)" />
<use xlink:href="#f1_29" transform="matrix(10.5,0,0,10.5,548,406.8)" />
<use xlink:href="#f1_2e" transform="matrix(10.5,0,0,10.5,478,430.8)" />
<use xlink:href="#f1_24" transform="matrix(10.5,0,0,10.5,486,430.8)" />
<use xlink:href="#f1_29" transform="matrix(10.5,0,0,10.5,489.5,430.8)" />
<use xlink:href="#f1_1y" transform="matrix(10.5,0,0,10.5,534.1,430.8)" />
<use xlink:href="#f1_2a" transform="matrix(10.5,0,0,10.5,542.1,430.8)" />
<use xlink:href="#f1_2e" transform="matrix(10.5,0,0,10.5,551,430.8)" />
<use xlink:href="#f2_29" transform="matrix(7,0,0,7,433.4,411.3)" />
<use xlink:href="#f2_29" transform="matrix(10.5,0,0,10.5,496.1,406.8)" />
<use xlink:href="#f2_29" transform="matrix(10.5,0,0,10.5,557.9,406.8)" />
<use xlink:href="#f2_10" transform="matrix(10.5,0,0,10.5,422.3,418.5)" />
<use xlink:href="#f2_29" transform="matrix(10.5,0,0,10.5,499.3,430.8)" />
<use xlink:href="#f2_29" transform="matrix(10.5,0,0,10.5,560.3,430.8)" />
<use xlink:href="#f3_2d" transform="matrix(10.5,0,0,10.5,507.5,406.8)" />
<use xlink:href="#f3_2d" transform="matrix(10.5,0,0,10.5,569.2,406.8)" />
<use xlink:href="#f3_4r" transform="matrix(10.5,0,0,10.5,460,407.8)" />
<use xlink:href="#f3_57" transform="matrix(10.5,0,0,10.5,580.6,407.8)" />
<use xlink:href="#f3_x" transform="matrix(10.5,0,0,10.5,446.2,418.5)" />
<use xlink:href="#f3_4s" transform="matrix(10.5,0,0,10.5,460,423.3)" />
<use xlink:href="#f3_58" transform="matrix(10.5,0,0,10.5,580.6,423.3)" />
<use xlink:href="#f3_h" transform="matrix(10.5,0,0,10.5,467.1,430.8)" />
<use xlink:href="#f3_2d" transform="matrix(10.5,0,0,10.5,510.7,430.8)" />
<use xlink:href="#f3_2d" transform="matrix(10.5,0,0,10.5,571.7,430.8)" />
<use xlink:href="#f3_4t" transform="matrix(10.5,0,0,10.5,460,434.3)" />
<use xlink:href="#f3_59" transform="matrix(10.5,0,0,10.5,580.6,434.3)" />
<use xlink:href="#f1_2i" transform="matrix(10.4,0,0,10.4,109,460.1)" />
<use xlink:href="#f1_23" transform="matrix(10.4,0,0,10.4,120.5,460.1)" />
<use xlink:href="#f1_20" transform="matrix(10.4,0,0,10.4,129.4,460.1)" />
<use xlink:href="#f1_2d" transform="matrix(10.4,0,0,10.4,138.3,460.1)" />
<use xlink:href="#f1_20" transform="matrix(10.4,0,0,10.4,143.6,460.1)" />
<use xlink:href="#f2_29" transform="matrix(10.4,0,0,10.4,159.4,460.1)" />
<use xlink:href="#f1_24" transform="matrix(10.4,0,0,10.4,175.6,460.1)" />
<use xlink:href="#f1_2e" transform="matrix(10.4,0,0,10.4,179.1,460.1)" />
<use xlink:href="#f1_1w" transform="matrix(10.4,0,0,10.4,194.4,460.1)" />
<use xlink:href="#f1_29" transform="matrix(10.4,0,0,10.4,210.6,460.1)" />
<use xlink:href="#f1_1w" transform="matrix(10.4,0,0,10.4,219.5,460.1)" />
<use xlink:href="#f1_2f" transform="matrix(10.4,0,0,10.4,228.4,460.1)" />
<use xlink:href="#f1_2g" transform="matrix(10.4,0,0,10.4,232.8,460.1)" />
<use xlink:href="#f1_2d" transform="matrix(10.4,0,0,10.4,241.7,460.1)" />
<use xlink:href="#f1_1w" transform="matrix(10.4,0,0,10.4,247,460.1)" />
<use xlink:href="#f1_27" transform="matrix(10.4,0,0,10.4,255.8,460.1)" />
<use xlink:href="#f1_29" transform="matrix(10.4,0,0,10.4,266.7,460.1)" />
<use xlink:href="#f1_2g" transform="matrix(10.4,0,0,10.4,275.6,460.1)" />
<use xlink:href="#f1_28" transform="matrix(10.4,0,0,10.4,284.5,460.1)" />
<use xlink:href="#f1_1x" transform="matrix(10.4,0,0,10.4,297.7,460.1)" />
<use xlink:href="#f1_20" transform="matrix(10.4,0,0,10.4,306.6,460.1)" />
<use xlink:href="#f1_2d" transform="matrix(10.4,0,0,10.4,315.5,460.1)" />
<use xlink:href="#f1_h" transform="matrix(10.4,0,0,10.4,320.8,460.1)" />
<use xlink:href="#f1_n" transform="matrix(10.4,0,0,10.4,68.3,515.1)" />
<use xlink:href="#f1_j" transform="matrix(10.4,0,0,10.4,77.2,515.1)" />
<use xlink:href="#f1_h" transform="matrix(10.4,0,0,10.4,86.3,515.1)" />
<use xlink:href="#f1_1b" transform="matrix(10.4,0,0,10.4,109,515.1)" />
<use xlink:href="#f1_20" transform="matrix(10.4,0,0,10.4,118.4,515.1)" />
<use xlink:href="#f1_2f" transform="matrix(10.4,0,0,10.4,127.7,515.1)" />
<use xlink:href="#f1_l" transform="matrix(10.5,0,0,10.5,181,504.5)" />
<use xlink:href="#f1_k" transform="matrix(10.5,0,0,10.5,213.9,504.5)" />
<use xlink:href="#f1_o" transform="matrix(10.5,0,0,10.5,277.2,504.5)" />
<use xlink:href="#f1_l" transform="matrix(10.5,0,0,10.5,301.3,504.5)" />
<use xlink:href="#f1_l" transform="matrix(10.5,0,0,10.5,367.9,504.5)" />
<use xlink:href="#f1_o" transform="matrix(10.5,0,0,10.5,391.5,504.5)" />
<use xlink:href="#f1_f" transform="matrix(10.5,0,0,10.5,228.4,516.2)" />
<use xlink:href="#f1_f" transform="matrix(10.5,0,0,10.5,318.1,516.2)" />
<use xlink:href="#f1_f" transform="matrix(10.5,0,0,10.5,408.5,516.2)" />
<use xlink:href="#f1_m" transform="matrix(10.5,0,0,10.5,180.8,528.5)" />
<use xlink:href="#f1_n" transform="matrix(10.5,0,0,10.5,211.3,528.5)" />
<use xlink:href="#f1_q" transform="matrix(10.5,0,0,10.5,277.2,528.5)" />
<use xlink:href="#f1_n" transform="matrix(10.5,0,0,10.5,301.1,528.5)" />
<use xlink:href="#f1_m" transform="matrix(10.5,0,0,10.5,367.7,528.5)" />
<use xlink:href="#f1_r" transform="matrix(10.5,0,0,10.5,391.5,528.5)" />
<use xlink:href="#f2_10" transform="matrix(10.5,0,0,10.5,144.8,516.2)" />
<use xlink:href="#f2_11" transform="matrix(10.5,0,0,10.5,240.5,516.2)" />
<use xlink:href="#f2_12" transform="matrix(10.5,0,0,10.5,329.7,516.2)" />
<use xlink:href="#f3_h" transform="matrix(10.5,0,0,10.5,205.1,504.5)" />
<use xlink:href="#f3_4r" transform="matrix(10.5,0,0,10.5,174.2,505.5)" />
<use xlink:href="#f3_57" transform="matrix(10.5,0,0,10.5,220.7,505.5)" />
<use xlink:href="#f3_4r" transform="matrix(10.5,0,0,10.5,270.6,505.5)" />
<use xlink:href="#f3_57" transform="matrix(10.5,0,0,10.5,310.4,505.5)" />
<use xlink:href="#f3_4r" transform="matrix(10.5,0,0,10.5,361.1,505.5)" />
<use xlink:href="#f3_57" transform="matrix(10.5,0,0,10.5,400.9,505.5)" />
<use xlink:href="#f3_x" transform="matrix(10.5,0,0,10.5,160.3,516.2)" />
<use xlink:href="#f3_x" transform="matrix(10.5,0,0,10.5,256.7,516.2)" />
<use xlink:href="#f3_x" transform="matrix(10.5,0,0,10.5,347.2,516.2)" />
<use xlink:href="#f3_4s" transform="matrix(10.5,0,0,10.5,174.2,521)" />
<use xlink:href="#f3_58" transform="matrix(10.5,0,0,10.5,220.7,521)" />
<use xlink:href="#f3_4s" transform="matrix(10.5,0,0,10.5,270.6,521)" />
<use xlink:href="#f3_58" transform="matrix(10.5,0,0,10.5,310.4,521)" />
<use xlink:href="#f3_4s" transform="matrix(10.5,0,0,10.5,361.1,521)" />
<use xlink:href="#f3_58" transform="matrix(10.5,0,0,10.5,400.9,521)" />
<use xlink:href="#f3_4t" transform="matrix(10.5,0,0,10.5,174.2,532)" />
<use xlink:href="#f3_59" transform="matrix(10.5,0,0,10.5,220.7,532)" />
<use xlink:href="#f3_4t" transform="matrix(10.5,0,0,10.5,270.6,532)" />
<use xlink:href="#f3_59" transform="matrix(10.5,0,0,10.5,310.4,532)" />
<use xlink:href="#f3_4t" transform="matrix(10.5,0,0,10.5,361.1,532)" />
<use xlink:href="#f3_59" transform="matrix(10.5,0,0,10.5,400.9,532)" />
<use xlink:href="#f1_21" transform="matrix(10.4,0,0,10.4,426,515.1)" />
<use xlink:href="#f1_24" transform="matrix(10.4,0,0,10.4,430.9,515.1)" />
<use xlink:href="#f1_29" transform="matrix(10.4,0,0,10.4,435,515.1)" />
<use xlink:href="#f1_1z" transform="matrix(10.4,0,0,10.4,444.5,515.1)" />
<use xlink:href="#f1_1w" transform="matrix(10.4,0,0,10.4,463.2,515.1)" />
<use xlink:href="#f1_28" transform="matrix(10.4,0,0,10.4,481.9,515.1)" />
<use xlink:href="#f1_1w" transform="matrix(10.4,0,0,10.4,495.8,515.1)" />
<use xlink:href="#f1_2f" transform="matrix(10.4,0,0,10.4,505.2,515.1)" />
<use xlink:href="#f1_2d" transform="matrix(10.4,0,0,10.4,510.1,515.1)" />
<use xlink:href="#f1_24" transform="matrix(10.4,0,0,10.4,516,515.1)" />
<use xlink:href="#f1_2j" transform="matrix(10.4,0,0,10.4,520.2,515.1)" />
<use xlink:href="#f2_13" transform="matrix(10.4,0,0,10.4,538.2,515.1)" />
<use xlink:href="#f1_2e" transform="matrix(10.4,0,0,10.4,559.6,515.1)" />
<use xlink:href="#f1_2g" transform="matrix(10.4,0,0,10.4,568.4,515.1)" />
<use xlink:href="#f1_1y" transform="matrix(10.4,0,0,10.4,577.8,515.1)" />
<use xlink:href="#f1_23" transform="matrix(10.4,0,0,10.4,586.4,515.1)" />
<use xlink:href="#f1_2f" transform="matrix(10.4,0,0,10.4,605.3,515.1)" />
<use xlink:href="#f1_23" transform="matrix(10.4,0,0,10.4,610.2,515.1)" />
<use xlink:href="#f1_1w" transform="matrix(10.4,0,0,10.4,619.8,515.1)" />
<use xlink:href="#f1_2f" transform="matrix(10.4,0,0,10.4,629.1,515.1)" />
<use xlink:href="#f2_12" transform="matrix(10.4,0,0,10.4,109,557.4)" />
<use xlink:href="#f2_13" transform="matrix(10.4,0,0,10.4,120.5,557.4)" />
<use xlink:href="#f2_99" transform="matrix(10.4,0,0,10.4,138.6,557.4)" />
<use xlink:href="#f2_10" transform="matrix(10.4,0,0,10.4,154.3,557.4)" />
<use xlink:href="#f2_11" transform="matrix(10.4,0,0,10.4,164.9,557.4)" />
<use xlink:href="#f1_w" transform="matrix(10.4,0,0,10.4,182.2,557.4)" />
<use xlink:href="#f2_1e" transform="matrix(10.4,0,0,10.4,198.3,557.4)" />
<use xlink:href="#f2_h" transform="matrix(10.4,0,0,10.4,210.7,557.4)" />
<use xlink:href="#f1_n" transform="matrix(10.4,0,0,10.4,68.3,631.3)" />
<use xlink:href="#f1_k" transform="matrix(10.4,0,0,10.4,77.2,631.3)" />
<use xlink:href="#f1_h" transform="matrix(10.4,0,0,10.4,86.3,631.3)" />
<use xlink:href="#f1_15" transform="matrix(10.4,0,0,10.4,109,631.3)" />
<use xlink:href="#f1_24" transform="matrix(10.4,0,0,10.4,118.8,631.3)" />
<use xlink:href="#f1_29" transform="matrix(10.4,0,0,10.4,122.3,631.3)" />
<use xlink:href="#f1_1z" transform="matrix(10.4,0,0,10.4,131.2,631.3)" />
<use xlink:href="#f1_2f" transform="matrix(10.4,0,0,10.4,147,631.3)" />
<use xlink:href="#f1_23" transform="matrix(10.4,0,0,10.4,151.4,631.3)" />
<use xlink:href="#f1_20" transform="matrix(10.4,0,0,10.4,160.3,631.3)" />
<use xlink:href="#f1_2h" transform="matrix(10.4,0,0,10.4,176.3,631.3)" />
<use xlink:href="#f1_1w" transform="matrix(10.4,0,0,10.4,184.3,631.3)" />
<use xlink:href="#f1_27" transform="matrix(10.4,0,0,10.4,193.2,631.3)" />
<use xlink:href="#f1_2g" transform="matrix(10.4,0,0,10.4,196.7,631.3)" />
<use xlink:href="#f1_20" transform="matrix(10.4,0,0,10.4,205.6,631.3)" />
<use xlink:href="#f1_2a" transform="matrix(10.4,0,0,10.4,221.4,631.3)" />
<use xlink:href="#f1_21" transform="matrix(10.4,0,0,10.4,230.3,631.3)" />
<use xlink:href="#f2_2j" transform="matrix(10.4,0,0,10.4,241.2,631.3)" />
<use xlink:href="#f1_2e" transform="matrix(10.4,0,0,10.4,256.4,631.3)" />
<use xlink:href="#f1_2g" transform="matrix(10.4,0,0,10.4,264.4,631.3)" />
<use xlink:href="#f1_1y" transform="matrix(10.4,0,0,10.4,273.2,631.3)" />
<use xlink:href="#f1_23" transform="matrix(10.4,0,0,10.4,281.2,631.3)" />
<use xlink:href="#f1_2f" transform="matrix(10.4,0,0,10.4,297.1,631.3)" />
<use xlink:href="#f1_23" transform="matrix(10.4,0,0,10.4,301.5,631.3)" />
<use xlink:href="#f1_1w" transform="matrix(10.4,0,0,10.4,310.4,631.3)" />
<use xlink:href="#f1_2f" transform="matrix(10.4,0,0,10.4,319.2,631.3)" />
<use xlink:href="#f3_1r" transform="matrix(10.5,0,0,14.7,332.3,630)" />
<use xlink:href="#f3_1t" transform="matrix(10.5,0,0,14.7,388.9,630)" />
<use xlink:href="#f1_k" transform="matrix(10.5,0,0,10.5,415.1,604.7)" />
<use xlink:href="#f1_m" transform="matrix(10.5,0,0,10.5,436.4,604.7)" />
<use xlink:href="#f1_l" transform="matrix(10.5,0,0,10.5,460.2,604.7)" />
<use xlink:href="#f1_k" transform="matrix(10.5,0,0,10.5,488.6,604.7)" />
<use xlink:href="#f1_k" transform="matrix(10.5,0,0,10.5,337,628.7)" />
<use xlink:href="#f1_k" transform="matrix(10.5,0,0,10.5,382.3,628.7)" />
<use xlink:href="#f1_l" transform="matrix(10.5,0,0,10.5,412.6,628.7)" />
<use xlink:href="#f1_o" transform="matrix(10.5,0,0,10.5,436.4,628.7)" />
<use xlink:href="#f1_k" transform="matrix(10.5,0,0,10.5,462.7,628.7)" />
<use xlink:href="#f1_l" transform="matrix(10.5,0,0,10.5,487.8,628.7)" />
<use xlink:href="#f1_j" transform="matrix(10.5,0,0,10.5,521.8,628.7)" />
<use xlink:href="#f1_k" transform="matrix(10.5,0,0,10.5,403.6,652.8)" />
<use xlink:href="#f1_o" transform="matrix(10.5,0,0,10.5,412.5,652.8)" />
<use xlink:href="#f1_m" transform="matrix(10.5,0,0,10.5,436.3,652.8)" />
<use xlink:href="#f1_l" transform="matrix(10.5,0,0,10.5,460.1,652.8)" />
<use xlink:href="#f2_2j" transform="matrix(10.5,0,0,10.5,358.5,628.7)" />
<use xlink:href="#f2_2j" transform="matrix(10.5,0,0,10.5,487.4,652.8)" />
<use xlink:href="#f3_4r" transform="matrix(10.5,0,0,10.5,398,605.7)" />
<use xlink:href="#f3_57" transform="matrix(10.5,0,0,10.5,469.8,605.7)" />
<use xlink:href="#f3_4r" transform="matrix(10.5,0,0,10.5,480.6,605.7)" />
<use xlink:href="#f3_57" transform="matrix(10.5,0,0,10.5,498,605.7)" />
<use xlink:href="#f3_4s" transform="matrix(10.5,0,0,10.5,398,621.2)" />
<use xlink:href="#f3_58" transform="matrix(10.5,0,0,10.5,469.8,621.2)" />
<use xlink:href="#f3_4s" transform="matrix(10.5,0,0,10.5,480.6,621.2)" />
<use xlink:href="#f3_58" transform="matrix(10.5,0,0,10.5,498,621.2)" />
<use xlink:href="#f3_x" transform="matrix(10.5,0,0,10.5,508.6,628.7)" />
<use xlink:href="#f3_4s" transform="matrix(10.5,0,0,10.5,398,636.4)" />
<use xlink:href="#f3_58" transform="matrix(10.5,0,0,10.5,469.8,636.4)" />
<use xlink:href="#f3_4s" transform="matrix(10.5,0,0,10.5,480.6,636.4)" />
<use xlink:href="#f3_58" transform="matrix(10.5,0,0,10.5,498,636.4)" />
<use xlink:href="#f3_4s" transform="matrix(10.5,0,0,10.5,398,651.7)" />
<use xlink:href="#f3_58" transform="matrix(10.5,0,0,10.5,469.8,651.7)" />
<use xlink:href="#f3_4s" transform="matrix(10.5,0,0,10.5,480.6,651.7)" />
<use xlink:href="#f3_58" transform="matrix(10.5,0,0,10.5,498,651.7)" />
<use xlink:href="#f3_4t" transform="matrix(10.5,0,0,10.5,398,656.3)" />
<use xlink:href="#f3_59" transform="matrix(10.5,0,0,10.5,469.8,656.3)" />
<use xlink:href="#f3_4t" transform="matrix(10.5,0,0,10.5,480.6,656.3)" />
<use xlink:href="#f3_59" transform="matrix(10.5,0,0,10.5,498,656.3)" />
<use xlink:href="#f1_n" transform="matrix(10.4,0,0,10.4,68.3,697.7)" />
<use xlink:href="#f1_l" transform="matrix(10.4,0,0,10.4,77.2,697.7)" />
<use xlink:href="#f1_h" transform="matrix(10.4,0,0,10.4,86.3,697.7)" />
<use xlink:href="#f1_1f" transform="matrix(10.4,0,0,10.4,109,697.7)" />
<use xlink:href="#f1_2d" transform="matrix(10.4,0,0,10.4,119.6,697.7)" />
<use xlink:href="#f1_2a" transform="matrix(10.4,0,0,10.4,125,697.7)" />
<use xlink:href="#f1_2h" transform="matrix(10.4,0,0,10.4,133.8,697.7)" />
<use xlink:href="#f1_20" transform="matrix(10.4,0,0,10.4,141.8,697.7)" />
<use xlink:href="#f1_2f" transform="matrix(10.4,0,0,10.4,158,697.7)" />
<use xlink:href="#f1_23" transform="matrix(10.4,0,0,10.4,162.4,697.7)" />
<use xlink:href="#f1_1w" transform="matrix(10.4,0,0,10.4,171.3,697.7)" />
<use xlink:href="#f1_2f" transform="matrix(10.4,0,0,10.4,180.2,697.7)" />
<use xlink:href="#f1_2f" transform="matrix(10.4,0,0,10.4,191.8,697.7)" />
<use xlink:href="#f1_23" transform="matrix(10.4,0,0,10.4,196.2,697.7)" />
<use xlink:href="#f1_20" transform="matrix(10.4,0,0,10.4,205.1,697.7)" />
<use xlink:href="#f1_2b" transform="matrix(10.4,0,0,10.4,221.3,697.7)" />
<use xlink:href="#f1_2d" transform="matrix(10.4,0,0,10.4,230.1,697.7)" />
<use xlink:href="#f1_2a" transform="matrix(10.4,0,0,10.4,235.4,697.7)" />
<use xlink:href="#f1_1z" transform="matrix(10.4,0,0,10.4,244.3,697.7)" />
<use xlink:href="#f1_2g" transform="matrix(10.4,0,0,10.4,253.2,697.7)" />
<use xlink:href="#f1_1y" transform="matrix(10.4,0,0,10.4,262.1,697.7)" />
<use xlink:href="#f1_2f" transform="matrix(10.4,0,0,10.4,270,697.7)" />
<use xlink:href="#f1_2a" transform="matrix(10.4,0,0,10.4,281.8,697.7)" />
<use xlink:href="#f1_21" transform="matrix(10.4,0,0,10.4,290.7,697.7)" />
<use xlink:href="#f1_2f" transform="matrix(10.4,0,0,10.4,302.2,697.7)" />
<use xlink:href="#f1_23" transform="matrix(10.4,0,0,10.4,306.7,697.7)" />
<use xlink:href="#f1_20" transform="matrix(10.4,0,0,10.4,315.5,697.7)" />
<use xlink:href="#f1_28" transform="matrix(10.4,0,0,10.4,331.8,697.7)" />
<use xlink:href="#f1_1w" transform="matrix(10.4,0,0,10.4,345,697.7)" />
<use xlink:href="#f1_2f" transform="matrix(10.4,0,0,10.4,353.9,697.7)" />
<use xlink:href="#f1_2d" transform="matrix(10.4,0,0,10.4,358.3,697.7)" />
<use xlink:href="#f1_24" transform="matrix(10.4,0,0,10.4,363.7,697.7)" />
<use xlink:href="#f1_1y" transform="matrix(10.4,0,0,10.4,367.2,697.7)" />
<use xlink:href="#f1_20" transform="matrix(10.4,0,0,10.4,375.2,697.7)" />
<use xlink:href="#f1_2e" transform="matrix(10.4,0,0,10.4,384,697.7)" />
<use xlink:href="#f1_l" transform="matrix(7,0,0,6.9,366.3,736.1)" />
<use xlink:href="#f1_l" transform="matrix(7,0,0,6.9,148.3,736.2)" />
<use xlink:href="#f1_l" transform="matrix(7,0,0,6.9,450.6,762.9)" />
<use xlink:href="#f1_l" transform="matrix(7,0,0,6.9,229.5,763)" />
<use xlink:href="#f1_1y" transform="matrix(10.4,0,0,10.4,340.7,743.2)" />
<use xlink:href="#f1_2a" transform="matrix(10.4,0,0,10.4,348.7,743.2)" />
<use xlink:href="#f1_2e" transform="matrix(10.4,0,0,10.4,357.7,743.2)" />
<use xlink:href="#f1_1y" transform="matrix(10.4,0,0,10.4,430.2,743.2)" />
<use xlink:href="#f1_2a" transform="matrix(10.4,0,0,10.4,438.2,743.2)" />
<use xlink:href="#f1_2e" transform="matrix(10.4,0,0,10.4,447.2,743.2)" />
<use xlink:href="#f1_2e" transform="matrix(10.4,0,0,10.4,472.4,743.2)" />
<use xlink:href="#f1_24" transform="matrix(10.4,0,0,10.4,480.4,743.2)" />
<use xlink:href="#f1_29" transform="matrix(10.4,0,0,10.4,483.9,743.2)" />
<use xlink:href="#f1_1y" transform="matrix(10.4,0,0,10.4,122.7,743.3)" />
<use xlink:href="#f1_2a" transform="matrix(10.4,0,0,10.4,130.7,743.3)" />
<use xlink:href="#f1_2e" transform="matrix(10.4,0,0,10.4,139.7,743.3)" />
<use xlink:href="#f1_1y" transform="matrix(10.4,0,0,10.4,207.2,743.3)" />
<use xlink:href="#f1_2a" transform="matrix(10.4,0,0,10.4,215.2,743.3)" />
<use xlink:href="#f1_2e" transform="matrix(10.4,0,0,10.4,224.2,743.3)" />
<use xlink:href="#f1_2e" transform="matrix(10.4,0,0,10.4,251.5,743.3)" />
<use xlink:href="#f1_24" transform="matrix(10.4,0,0,10.4,259.4,743.3)" />
<use xlink:href="#f1_29" transform="matrix(10.4,0,0,10.4,263,743.3)" />
<use xlink:href="#f1_1w" transform="matrix(10.4,0,0,10.4,297.7,755)" />
<use xlink:href="#f1_29" transform="matrix(10.4,0,0,10.4,306.7,755)" />
<use xlink:href="#f1_1z" transform="matrix(10.4,0,0,10.4,315.7,755)" />
<use xlink:href="#f1_1y" transform="matrix(10.4,0,0,10.4,340.7,770)" />
<use xlink:href="#f1_2a" transform="matrix(10.4,0,0,10.4,348.7,770)" />
<use xlink:href="#f1_2e" transform="matrix(10.4,0,0,10.4,357.7,770)" />
<use xlink:href="#f1_2e" transform="matrix(10.4,0,0,10.4,385.2,770)" />
<use xlink:href="#f1_24" transform="matrix(10.4,0,0,10.4,393.2,770)" />
<use xlink:href="#f1_29" transform="matrix(10.4,0,0,10.4,396.7,770)" />
<use xlink:href="#f1_2e" transform="matrix(10.4,0,0,10.4,430.2,770)" />
<use xlink:href="#f1_24" transform="matrix(10.4,0,0,10.4,438.2,770)" />
<use xlink:href="#f1_29" transform="matrix(10.4,0,0,10.4,441.7,770)" />
<use xlink:href="#f1_1y" transform="matrix(10.4,0,0,10.4,118.2,770.1)" />
<use xlink:href="#f1_2a" transform="matrix(10.4,0,0,10.4,126.2,770.1)" />
<use xlink:href="#f1_2e" transform="matrix(10.4,0,0,10.4,135.2,770.1)" />
<use xlink:href="#f1_2e" transform="matrix(10.4,0,0,10.4,162.5,770.1)" />
<use xlink:href="#f1_24" transform="matrix(10.4,0,0,10.4,170.4,770.1)" />
<use xlink:href="#f1_29" transform="matrix(10.4,0,0,10.4,174,770.1)" />
<use xlink:href="#f1_2e" transform="matrix(10.4,0,0,10.4,209.2,770.1)" />
<use xlink:href="#f1_24" transform="matrix(10.4,0,0,10.4,217.2,770.1)" />
<use xlink:href="#f1_29" transform="matrix(10.4,0,0,10.4,220.7,770.1)" />
<use xlink:href="#f3_4r" transform="matrix(10.5,0,0,10.4,334.1,741.2)" />
<use xlink:href="#f3_57" transform="matrix(10.5,0,0,10.4,503.3,741.2)" />
<use xlink:href="#f3_4r" transform="matrix(10.5,0,0,10.4,111.6,741.3)" />
<use xlink:href="#f3_57" transform="matrix(10.5,0,0,10.4,282.1,741.3)" />
<use xlink:href="#f3_22" transform="matrix(10.5,0,0,10.4,375.8,743.2)" />
<use xlink:href="#f3_22" transform="matrix(10.5,0,0,10.4,457.3,743.2)" />
<use xlink:href="#f3_22" transform="matrix(10.5,0,0,10.4,494.2,743.2)" />
<use xlink:href="#f3_2d" transform="matrix(10.5,0,0,10.4,157.6,743.3)" />
<use xlink:href="#f3_2d" transform="matrix(10.5,0,0,10.4,234,743.3)" />
<use xlink:href="#f3_2d" transform="matrix(10.5,0,0,10.4,273,743.3)" />
<use xlink:href="#f3_4s" transform="matrix(10.5,0,0,10.4,334.1,756.6)" />
<use xlink:href="#f3_58" transform="matrix(10.5,0,0,10.4,503.3,756.6)" />
<use xlink:href="#f3_4s" transform="matrix(10.5,0,0,10.4,111.6,756.7)" />
<use xlink:href="#f3_58" transform="matrix(10.5,0,0,10.4,282.1,756.7)" />
<use xlink:href="#f3_22" transform="matrix(10.5,0,0,10.4,367.7,770)" />
<use xlink:href="#f3_22" transform="matrix(10.5,0,0,10.4,407,770)" />
<use xlink:href="#f3_22" transform="matrix(10.5,0,0,10.4,460.1,770)" />
<use xlink:href="#f3_2d" transform="matrix(10.5,0,0,10.4,144.9,770.1)" />
<use xlink:href="#f3_2d" transform="matrix(10.5,0,0,10.4,184,770.1)" />
<use xlink:href="#f3_2d" transform="matrix(10.5,0,0,10.4,238.8,770.1)" />
<use xlink:href="#f3_4s" transform="matrix(10.5,0,0,10.4,111.6,770.9)" />
<use xlink:href="#f3_58" transform="matrix(10.5,0,0,10.4,282.1,770.9)" />
<use xlink:href="#f3_4s" transform="matrix(10.5,0,0,10.4,334.1,771)" />
<use xlink:href="#f3_58" transform="matrix(10.5,0,0,10.4,503.3,771)" />
<use xlink:href="#f3_4t" transform="matrix(10.5,0,0,10.4,111.6,773.6)" />
<use xlink:href="#f3_59" transform="matrix(10.5,0,0,10.4,282.1,773.6)" />
<use xlink:href="#f3_4t" transform="matrix(10.5,0,0,10.4,334.1,773.7)" />
<use xlink:href="#f3_59" transform="matrix(10.5,0,0,10.4,503.3,773.7)" />
<use xlink:href="#f1_24" transform="matrix(10.4,0,0,10.4,109,813)" />
<use xlink:href="#f1_2e" transform="matrix(10.4,0,0,10.4,112.6,813)" />
<use xlink:href="#f1_2f" transform="matrix(10.4,0,0,10.4,127.5,813)" />
<use xlink:href="#f1_23" transform="matrix(10.4,0,0,10.4,131.9,813)" />
<use xlink:href="#f1_20" transform="matrix(10.4,0,0,10.4,140.8,813)" />
<use xlink:href="#f1_29" transform="matrix(10.4,0,0,10.4,156.8,813)" />
<use xlink:href="#f1_2g" transform="matrix(10.4,0,0,10.4,165.7,813)" />
<use xlink:href="#f1_27" transform="matrix(10.4,0,0,10.4,174.5,813)" />
<use xlink:href="#f1_27" transform="matrix(10.4,0,0,10.4,178.1,813)" />
<use xlink:href="#f1_28" transform="matrix(10.4,0,0,10.4,188.6,813)" />
<use xlink:href="#f1_1w" transform="matrix(10.4,0,0,10.4,201.9,813)" />
<use xlink:href="#f1_2f" transform="matrix(10.4,0,0,10.4,210.8,813)" />
<use xlink:href="#f1_2d" transform="matrix(10.4,0,0,10.4,215.2,813)" />
<use xlink:href="#f1_24" transform="matrix(10.4,0,0,10.4,220.5,813)" />
<use xlink:href="#f1_2j" transform="matrix(10.4,0,0,10.4,224,813)" />
<use xlink:href="#f1_f" transform="matrix(10.4,0,0,10.4,232,813)" />
<use xlink:href="#f1_2i" transform="matrix(10.4,0,0,10.4,243.6,813)" />
<use xlink:href="#f1_23" transform="matrix(10.4,0,0,10.4,255.1,813)" />
<use xlink:href="#f1_20" transform="matrix(10.4,0,0,10.4,264,813)" />
<use xlink:href="#f1_29" transform="matrix(10.4,0,0,10.4,272.8,813)" />
<use xlink:href="#f3_2d" transform="matrix(10.4,0,0,10.4,287.9,813)" />
<use xlink:href="#f1_1w" transform="matrix(10.4,0,0,10.4,303.2,813)" />
<use xlink:href="#f1_29" transform="matrix(10.4,0,0,10.4,312,813)" />
<use xlink:href="#f1_1z" transform="matrix(10.4,0,0,10.4,320.9,813)" />
<use xlink:href="#f3_22" transform="matrix(10.4,0,0,10.4,336.7,813)" />
<use xlink:href="#f1_1z" transform="matrix(10.4,0,0,10.4,352.1,813)" />
<use xlink:href="#f1_24" transform="matrix(10.4,0,0,10.4,361,813)" />
<use xlink:href="#f1_21" transform="matrix(10.4,0,0,10.4,364.5,813)" />
<use xlink:href="#f1_21" transform="matrix(10.4,0,0,10.4,368.9,813)" />
<use xlink:href="#f1_20" transform="matrix(10.4,0,0,10.4,373.4,813)" />
<use xlink:href="#f1_2d" transform="matrix(10.4,0,0,10.4,382.3,813)" />
<use xlink:href="#f1_1x" transform="matrix(10.4,0,0,10.4,394.5,813)" />
<use xlink:href="#f1_2k" transform="matrix(10.4,0,0,10.4,403.4,813)" />
<use xlink:href="#f1_1w" transform="matrix(10.4,0,0,10.4,418.5,813)" />
<use xlink:href="#f1_29" transform="matrix(10.4,0,0,10.4,427.4,813)" />
<use xlink:href="#f1_2a" transform="matrix(10.4,0,0,10.4,443.2,813)" />
<use xlink:href="#f1_1z" transform="matrix(10.4,0,0,10.4,452.1,813)" />
<use xlink:href="#f1_1z" transform="matrix(10.4,0,0,10.4,461,813)" />
<use xlink:href="#f1_28" transform="matrix(10.4,0,0,10.4,477,813)" />
<use xlink:href="#f1_2g" transform="matrix(10.4,0,0,10.4,490.3,813)" />
<use xlink:href="#f1_27" transform="matrix(10.4,0,0,10.4,499.1,813)" />
<use xlink:href="#f1_2f" transform="matrix(10.4,0,0,10.4,502.7,813)" />
<use xlink:href="#f1_24" transform="matrix(10.4,0,0,10.4,507.1,813)" />
<use xlink:href="#f1_2b" transform="matrix(10.4,0,0,10.4,510.6,813)" />
<use xlink:href="#f1_27" transform="matrix(10.4,0,0,10.4,519.5,813)" />
<use xlink:href="#f1_20" transform="matrix(10.4,0,0,10.4,523.1,813)" />
<use xlink:href="#f1_2a" transform="matrix(10.4,0,0,10.4,538.9,813)" />
<use xlink:href="#f1_21" transform="matrix(10.4,0,0,10.4,547.8,813)" />
</g>
<path d="M561.2,806.2H572" class="g0_28" />
<g fill="#000000" >
<use xlink:href="#f1_h" transform="matrix(10.4,0,0,10.4,573.4,810.5)" />
<use xlink:href="#f1_l" transform="matrix(10.4,0,0,10.4,562.1,822.7)" />
<use xlink:href="#f3_2c" transform="matrix(10.5,0,0,10.4,562.1,800.2)" />
<use xlink:href="#f1_n" transform="matrix(10.4,0,0,10.4,68.3,872.9)" />
<use xlink:href="#f1_m" transform="matrix(10.4,0,0,10.4,77.2,872.9)" />
<use xlink:href="#f1_h" transform="matrix(10.4,0,0,10.4,86.3,872.9)" />
<use xlink:href="#f1_18" transform="matrix(10.4,0,0,10.4,109,872.9)" />
<use xlink:href="#f1_21" transform="matrix(10.4,0,0,10.4,113.4,872.9)" />
<use xlink:href="#f1_o" transform="matrix(10.4,0,0,10.5,170.6,861.8)" />
<use xlink:href="#f1_m" transform="matrix(10.4,0,0,10.5,194.3,861.8)" />
<use xlink:href="#f1_k" transform="matrix(10.4,0,0,10.5,161.9,885.8)" />
<use xlink:href="#f1_l" transform="matrix(10.4,0,0,10.5,170.8,885.8)" />
<use xlink:href="#f1_q" transform="matrix(10.4,0,0,10.5,194.2,885.8)" />
<use xlink:href="#f2_10" transform="matrix(10.4,0,0,10.5,127.4,873.6)" />
<use xlink:href="#f3_4r" transform="matrix(10.4,0,0,10.5,156.6,862.8)" />
<use xlink:href="#f3_57" transform="matrix(10.4,0,0,10.5,203.6,862.8)" />
<use xlink:href="#f3_x" transform="matrix(10.4,0,0,10.5,142.7,873.6)" />
<use xlink:href="#f3_4s" transform="matrix(10.4,0,0,10.5,156.6,878.3)" />
<use xlink:href="#f3_58" transform="matrix(10.4,0,0,10.5,203.6,878.3)" />
<use xlink:href="#f3_4t" transform="matrix(10.4,0,0,10.5,156.6,889.3)" />
<use xlink:href="#f3_59" transform="matrix(10.4,0,0,10.5,203.6,889.3)" />
<use xlink:href="#f1_2e" transform="matrix(10.4,0,0,10.4,219.7,872.9)" />
<use xlink:href="#f1_23" transform="matrix(10.4,0,0,10.4,227.7,872.9)" />
<use xlink:href="#f1_2a" transform="matrix(10.4,0,0,10.4,236.6,872.9)" />
<use xlink:href="#f1_2i" transform="matrix(10.4,0,0,10.4,245.5,872.9)" />
<use xlink:href="#f1_2f" transform="matrix(10.4,0,0,10.4,263.8,872.9)" />
<use xlink:href="#f1_23" transform="matrix(10.4,0,0,10.4,268.2,872.9)" />
<use xlink:href="#f1_1w" transform="matrix(10.4,0,0,10.4,277.1,872.9)" />
<use xlink:href="#f1_2f" transform="matrix(10.4,0,0,10.4,285.9,872.9)" />
<use xlink:href="#f2_10" transform="matrix(10.4,0,0,10.4,297.1,872.9)" />
<use xlink:href="#f1_l" transform="matrix(7.4,0,0,7.4,307.7,867.6)" />
<use xlink:href="#f1_99" transform="matrix(10.4,0,0,10.4,320.9,872.9)" />
<use xlink:href="#f1_k" transform="matrix(10.4,0,0,10.4,336.8,872.9)" />
<use xlink:href="#f1_l" transform="matrix(10.4,0,0,10.4,345.7,872.9)" />
<use xlink:href="#f2_10" transform="matrix(10.4,0,0,10.4,354.3,872.9)" />
<use xlink:href="#f1_99" transform="matrix(10.4,0,0,10.4,371.7,872.9)" />
<use xlink:href="#f2_18" transform="matrix(10.4,0,0,10.4,387.5,872.9)" />
<use xlink:href="#f1_w" transform="matrix(10.4,0,0,10.4,398.9,872.9)" />
<use xlink:href="#f1_j" transform="matrix(10.4,0,0,10.4,415.1,872.9)" />
<use xlink:href="#f1_h" transform="matrix(10.4,0,0,10.4,424,872.9)" />
<use xlink:href="#f1_17" transform="matrix(10.4,0,0,10.4,435.2,872.9)" />
<use xlink:href="#f1_20" transform="matrix(10.4,0,0,10.4,446.7,872.9)" />
<use xlink:href="#f1_29" transform="matrix(10.4,0,0,10.4,455.6,872.9)" />
<use xlink:href="#f1_1y" transform="matrix(10.4,0,0,10.4,464.5,872.9)" />
<use xlink:href="#f1_20" transform="matrix(10.4,0,0,10.4,472.5,872.9)" />
<use xlink:href="#f1_21" transform="matrix(10.4,0,0,10.4,488.3,872.9)" />
<use xlink:href="#f1_24" transform="matrix(10.4,0,0,10.4,492.7,872.9)" />
<use xlink:href="#f1_29" transform="matrix(10.4,0,0,10.4,496.3,872.9)" />
<use xlink:href="#f1_1z" transform="matrix(10.4,0,0,10.4,505.1,872.9)" />
<use xlink:href="#f2_10" transform="matrix(10.4,0,0,10.4,520.6,872.9)" />
<use xlink:href="#f1_99" transform="matrix(7.4,0,0,7.4,531.2,867.6)" />
<use xlink:href="#f1_k" transform="matrix(7.4,0,0,7.4,537.5,867.6)" />
<use xlink:href="#f1_h" transform="matrix(10.4,0,0,10.4,543.7,872.9)" />
<use xlink:href="#f4_o" transform="matrix(12,0,0,12,665.7,1052.9)" />
</g>
<g fill="#0080FF" fill-opacity="0.5" >
<use xlink:href="#f0_1c" transform="matrix(36.3,0,0,36.3,174,1059.2)" />
<use xlink:href="#f0_21" transform="matrix(36.3,0,0,36.3,204.8,1059.2)" />
<use xlink:href="#f0_1x" transform="matrix(36.3,0,0,36.3,235.7,1059.2)" />
<use xlink:href="#f0_2e" transform="matrix(36.3,0,0,36.3,266.5,1059.2)" />
<use xlink:href="#f0_2a" transform="matrix(36.3,0,0,36.3,284.9,1059.2)" />
<use xlink:href="#f0_17" transform="matrix(36.3,0,0,36.3,315.8,1059.2)" />
<use xlink:href="#f0_2h" transform="matrix(36.3,0,0,36.3,358.9,1059.2)" />
<use xlink:href="#f0_25" transform="matrix(36.3,0,0,36.3,389.7,1059.2)" />
<use xlink:href="#f0_20" transform="matrix(36.3,0,0,36.3,402,1059.2)" />
<use xlink:href="#f0_21" transform="matrix(36.3,0,0,36.3,432.8,1059.2)" />
<use xlink:href="#f0_i" transform="matrix(36.3,0,0,36.3,463.7,1059.2)" />
<use xlink:href="#f0_25" transform="matrix(36.3,0,0,36.3,479.1,1059.2)" />
<use xlink:href="#f0_2a" transform="matrix(36.3,0,0,36.3,491.4,1059.2)" />
</g>
<defs>
<path d="M593,101c0,0,182,0,279,112c0,0,98,113,98,318c0,0,0,196,-98,308c0,0,-98,112,-277,112c0,0,-181,0,-279,-110c0,0,-99,-111,-99,-310c0,0,0,-198,100,-314c0,0,99,-116,276,-116Zm0,-115c0,0,-162,0,-279,65c0,0,-118,66,-180,190c0,0,-62,124,-62,290c0,0,0,252,138,394c0,0,138,142,385,142c0,0,160,0,278,-64c0,0,118,-64,180,-185c0,0,62,-122,62,-287c0,0,0,-165,-63,-289c0,0,-63,-124,-181,-190c0,0,-118,-66,-278,-66Z" 
id="f0_1f"
transform="scale(0.001,-0.001)" />

<path d="M106,0V635c0,0,0,141,-5,173H228c0,0,1,-4,2,-21c0,0,1,-16,2,-37c0,0,1,-22,2,-81h2c0,0,47,84,108,119c0,0,60,34,151,34c0,0,132,0,194,-66c0,0,61,-66,61,-218V0H615V512c0,0,0,80,-15,124c0,0,-16,44,-50,63c0,0,-35,20,-101,20c0,0,-97,0,-153,-67c0,0,-56,-66,-56,-184V0Z" 
id="f0_2a"
transform="scale(0.001,-0.001)" />

<path d="M103,0V1107H237V0Z" 
id="f0_28"
transform="scale(0.001,-0.001)" />

<path d="M102,0V808H236V0Zm0,979v128H236V979Z" 
id="f0_25"
transform="scale(0.001,-0.001)" />

<path d="M643,478c0,0,-11,128,-65,187c0,0,-54,59,-154,59c0,0,-98,0,-155,-66c0,0,-57,-65,-62,-180ZM431,-14c0,0,-179,0,-272,106c0,0,-94,107,-94,317c0,0,0,200,94,307c0,0,93,106,267,106c0,0,356,0,356,-429V375H206c0,0,0,-138,57,-213c0,0,58,-75,168,-75c0,0,87,0,140,35c0,0,53,35,71,88L760,177c0,0,-72,-191,-329,-191Z" 
id="f0_21"
transform="scale(0.001,-0.001)" />

<path d="M17,0L304,415L31,808H179L380,493L580,808H730L457,417L747,0H598L380,331L162,0Z" 
id="f0_2k"
transform="scale(0.001,-0.001)" />

<path d="M339,87c0,0,74,0,132,34c0,0,57,33,90,91c0,0,34,59,34,121v66L448,396c0,0,-95,-2,-144,-19c0,0,-49,-18,-75,-55c0,0,-26,-38,-26,-98c0,0,0,-65,35,-101c0,0,36,-36,101,-36ZM309,-14c0,0,-122,0,-183,64c0,0,-61,64,-61,176c0,0,0,125,82,192c0,0,83,67,266,72l182,3v44c0,0,0,98,-42,141c0,0,-42,43,-132,43c0,0,-90,0,-131,-31c0,0,-41,-31,-49,-98L101,604c0,0,34,218,323,218c0,0,153,0,229,-70c0,0,77,-69,77,-202V202c0,0,0,-59,16,-90c0,0,16,-30,60,-30c0,0,19,0,44,5V4C850,4,799,-7,746,-7c0,0,-75,0,-109,38c0,0,-33,40,-38,124h-4C595,155,543,62,475,24c0,0,-68,-38,-166,-38Z" 
id="f0_1x"
transform="scale(0.001,-0.001)" />

<path d="M106,0V635c0,0,0,141,-5,173H228c0,0,1,-4,2,-21c0,0,1,-16,2,-37c0,0,1,-22,2,-81h2c0,0,44,86,100,120c0,0,56,33,136,33c0,0,92,0,145,-36c0,0,54,-37,75,-117h2c0,0,42,82,101,117c0,0,59,36,143,36c0,0,123,0,178,-66c0,0,56,-67,56,-218V0H1039V512c0,0,0,117,-32,162c0,0,-32,45,-116,45c0,0,-88,0,-136,-66c0,0,-49,-65,-49,-185V0H573V512c0,0,0,117,-32,162c0,0,-32,45,-116,45c0,0,-86,0,-136,-66c0,0,-50,-66,-50,-185V0Z" 
id="f0_29"
transform="scale(0.001,-0.001)" />

<path d="M453,84c0,0,100,0,146,74c0,0,46,73,46,247c0,0,0,169,-46,241c0,0,-45,73,-145,73c0,0,-80,0,-125,-34c0,0,-45,-34,-68,-105c0,0,-24,-71,-24,-186c0,0,0,-159,51,-234c0,0,51,-76,165,-76ZM103,-316V643c0,0,0,124,-5,165H228c0,0,1,-3,3,-22c0,0,1,-18,3,-56c0,0,2,-38,2,-52h3c0,0,36,75,94,110c0,0,59,34,156,34c0,0,149,0,223,-100c0,0,74,-100,74,-314c0,0,0,-422,-297,-422c0,0,-187,0,-251,140h-4c0,0,3,-6,3,-126V-316Z" 
id="f0_2c"
transform="scale(0.001,-0.001)" />

<path d="M420,84c0,0,121,0,173,78c0,0,52,77,52,243c0,0,0,167,-50,243c0,0,-50,76,-167,76c0,0,-118,0,-170,-78c0,0,-53,-77,-53,-241c0,0,0,-160,52,-241c0,0,52,-80,163,-80Zm1,-98c0,0,-176,0,-267,107c0,0,-90,108,-90,312c0,0,0,417,362,417c0,0,185,0,272,-102c0,0,88,-101,88,-315c0,0,0,-212,-94,-316C692,89,599,-14,421,-14Z" 
id="f0_2b"
transform="scale(0.001,-0.001)" />

<path d="M278,-11c0,0,-162,0,-162,182V710H23v98h99l39,181h90V808H400V710H251V200c0,0,0,-58,19,-82c0,0,19,-23,66,-23c0,0,27,0,77,10V6c0,0,-66,-17,-135,-17Z" 
id="f0_2g"
transform="scale(0.001,-0.001)" />

<path d="M424,-28c0,0,-180,0,-272,86c0,0,-92,87,-100,266H192c0,0,12,-126,66,-180c0,0,55,-54,170,-54c0,0,100,0,163,57c0,0,64,57,64,147c0,0,0,94,-61,149c0,0,-52,48,-135,54c0,0,-38,2,-72,2c0,0,-34,0,-45,-3V613c0,0,17,-3,51,-3c0,0,35,0,68,4c0,0,66,8,106,43c0,0,55,45,55,125c0,0,0,77,-58,125c0,0,-58,48,-148,48c0,0,-96,0,-147,-58c0,0,-51,-59,-56,-175H82c0,0,0,168,89,260c0,0,88,93,250,93c0,0,153,0,247,-77c0,0,94,-76,94,-202c0,0,0,-124,-95,-201c0,0,-18,-15,-39,-27c0,0,39,-17,69,-41c0,0,101,-79,101,-214c0,0,0,-151,-105,-246c0,0,-104,-95,-269,-95Z" 
id="f1_m"
transform="scale(0.001,-0.001)" />

<path d="M432,92c0,0,96,0,156,66c0,0,61,65,61,169c0,0,0,103,-61,169c0,0,-60,66,-156,66c0,0,-95,0,-156,-66c0,0,-61,-66,-61,-169c0,0,0,-104,61,-169c0,0,61,-66,156,-66ZM425,-28c0,0,-176,0,-271,135c0,0,-95,136,-95,388c0,0,0,278,103,429c0,0,103,151,293,151c0,0,142,0,226,-77c0,0,84,-76,90,-211H638c0,0,-8,80,-56,123c0,0,-47,43,-127,43c0,0,-125,0,-192,-119c0,0,-58,-102,-64,-278c0,0,100,127,255,127c0,0,152,0,245,-98c0,0,93,-98,93,-258c0,0,0,-161,-101,-259c0,0,-101,-96,-266,-96Z" 
id="f1_p"
transform="scale(0.001,-0.001)" />

<path d="M133,0V162H292V0Z" 
id="f1_h"
transform="scale(0.001,-0.001)" />

<path d="M131,0V1097H891V966H280V631H814V500H280V0Z" 
id="f1_15"
transform="scale(0.001,-0.001)" />

<path d="M104,0V799H238V0Zm-2,946v152H239V946Z" 
id="f1_24"
transform="scale(0.001,-0.001)" />

<path d="M99,0V799H226V681l30,39c0,0,87,102,219,102c0,0,132,0,203,-71c0,0,72,-72,72,-204V0H616V502c0,0,0,105,-41,151c0,0,-40,47,-132,47c0,0,-97,0,-154,-73c0,0,-56,-74,-56,-199V0Z" 
id="f1_29"
transform="scale(0.001,-0.001)" />

<path d="M411,93c0,0,98,0,158,73c0,0,60,74,60,195c0,0,0,163,-57,252c0,0,-56,88,-161,88c0,0,-113,0,-165,-72c0,0,-52,-72,-52,-229c0,0,0,-147,56,-227c0,0,56,-80,161,-80ZM404,-20c0,0,-161,0,-255,118c0,0,-95,120,-95,324c0,0,0,179,92,290c0,0,91,110,239,110c0,0,147,0,233,-124l11,-15v414H763V0H638V109L621,84C621,84,538,-20,404,-20Z" 
id="f1_1z"
transform="scale(0.001,-0.001)" />

<path d="M780,449L714,934L435,449ZM22,0L673,1097H839L998,0H839L797,318H359L178,0Z" 
id="f2_10"
transform="scale(0.001,-0.001)" />

<path d="M335,90c0,0,106,0,179,57c0,0,50,41,67,91c0,0,3,10,4,31c0,0,3,21,3,47v87c0,0,-38,-18,-83,-25L381,360c0,0,-97,-13,-142,-45c0,0,-44,-31,-44,-86c0,0,0,-67,36,-103c0,0,37,-36,104,-36ZM309,-20c0,0,-117,0,-186,61c0,0,-68,63,-68,169c0,0,0,108,64,171c0,0,65,64,189,79l183,23c0,0,22,3,42,8c0,0,26,7,40,27c0,0,15,20,15,51v6c0,0,0,64,-49,101c0,0,-48,36,-135,36c0,0,-83,0,-130,-38c0,0,-46,-39,-56,-115H94c0,0,10,131,92,197c0,0,83,66,238,66c0,0,145,0,222,-63c0,0,76,-63,76,-184V137c0,0,0,-21,12,-33c0,0,12,-12,33,-12c0,0,6,0,18,1c0,0,11,2,25,5V1c0,0,-20,-7,-41,-11c0,0,-22,-5,-37,-5c0,0,-76,0,-110,41c0,0,-22,28,-32,79c0,0,-15,-19,-34,-36c0,0,-101,-89,-247,-89Z" 
id="f1_1w"
transform="scale(0.001,-0.001)" />

<path d="M617,129c0,0,118,0,194,71c0,0,75,70,75,182c0,0,1,59,-55,93c0,0,-56,34,-152,34H368L289,129Zm58,503c0,0,120,0,188,59c0,0,68,58,68,163c0,0,0,57,-50,85c0,0,-50,29,-146,29H462L393,632ZM113,0L340,1097H825c0,0,122,0,191,-55c0,0,69,-55,69,-153c0,0,0,-160,-113,-251c0,0,-35,-26,-77,-46c0,0,27,-12,52,-28c0,0,89,-61,89,-166c0,0,0,-171,-127,-285C909,113,782,0,591,0Z" 
id="f2_11"
transform="scale(0.001,-0.001)" />

<path d="M132,0V687H22V799H132V935c0,0,0,88,52,133c0,0,52,45,157,45l59,-3V989l-53,2c0,0,-39,0,-60,-24c0,0,-21,-25,-21,-71V799H400V687H266V0Z" 
id="f1_21"
transform="scale(0.001,-0.001)" />

<path d="M39,0V0c0,0,0,170,84,277c0,0,85,108,317,236c0,0,113,62,154,115c0,0,41,52,41,134c0,0,0,86,-62,141c0,0,-61,54,-156,54c0,0,-101,0,-158,-68c0,0,-57,-68,-60,-194H67c0,0,-2,178,95,279c0,0,98,101,273,101c0,0,149,0,245,-89c0,0,94,-88,94,-228c0,0,0,-118,-60,-195c0,0,-61,-76,-229,-169C485,394,303,294,237,212c0,0,-28,-36,-46,-81H774V0Z" 
id="f1_l"
transform="scale(0.001,-0.001)" />

<path d="M390,-1V329H60V441H390V771H503V441H833V329H503V-1Z" 
id="f1_e"
transform="scale(0.001,-0.001)" />

<path d="M60,174V286H832V174Zm0,309V595H832V483Z" 
id="f1_w"
transform="scale(0.001,-0.001)" />

<path d="M406,0V763H155V870h2c16,0,114,2,178,48c0,0,70,51,104,157H549V0Z" 
id="f1_k"
transform="scale(0.001,-0.001)" />

<path d="M424,92c0,0,114,0,170,107c0,0,57,108,56,323c0,0,1,216,-56,324c0,0,-56,107,-170,107c0,0,-112,0,-168,-107c0,0,-56,-108,-57,-324c0,0,1,-215,57,-323c0,0,56,-107,168,-107Zm0,-120c0,0,-176,0,-271,142c0,0,-96,143,-96,408c0,0,0,265,96,409c0,0,95,144,271,144c0,0,178,0,273,-144c0,0,96,-144,96,-409c0,0,0,-265,-96,-408c0,0,-95,-142,-273,-142Z" 
id="f1_j"
transform="scale(0.001,-0.001)" />

<path d="M0,356v74H784V356Z" 
id="f3_h"
transform="scale(0.001,-0.001)" />

<path d="M0,-123V1415H525v-72H72V-123Z" 
id="f3_4r"
transform="scale(0.001,-0.001)" />

<path d="M478,-123V1343H26v72H550V-123Z" 
id="f3_57"
transform="scale(0.001,-0.001)" />

<path d="M0,214v74H784V214ZM0,494v72H784V494Z" 
id="f3_x"
transform="scale(0.001,-0.001)" />

<path d="M0,-123V1415H72V-123Z" 
id="f3_4s"
transform="scale(0.001,-0.001)" />

<path d="M0,-123V1415H72V-123Z" 
id="f3_58"
transform="scale(0.001,-0.001)" />

<path d="M0,-123V1415H72V-51H525v-72Z" 
id="f3_4t"
transform="scale(0.001,-0.001)" />

<path d="M26,-123v72H478V1415h72V-123Z" 
id="f3_59"
transform="scale(0.001,-0.001)" />

<path d="M212,0c0,0,51,270,162,500c0,0,109,222,281,422H57v131H799V934C799,934,623,726,515,498C515,498,408,269,362,0Z" 
id="f1_q"
transform="scale(0.001,-0.001)" />

<path d="M139,0V1097H287V0Z" 
id="f1_18"
transform="scale(0.001,-0.001)" />

<path d="M0,-302V1034H328V970H119V-238H328v-64Z" 
id="f3_1r"
transform="scale(0.001,-0.001)" />

<path d="M56,-302v64H265V970H56v64H384V-302Z" 
id="f3_1t"
transform="scale(0.001,-0.001)" />

<path d="M511,373V863L169,383l-7,-10ZM511,0V258H38V383l496,691H646V373H799V258H646V0Z" 
id="f1_n"
transform="scale(0.001,-0.001)" />

<path d="M133,-224v71c0,0,47,8,65,52c0,0,14,33,17,101H133V163H292V27c0,0,0,-114,-36,-172c0,0,-37,-58,-123,-79Z" 
id="f1_f"
transform="scale(0.001,-0.001)" />

<path d="M310,0L12,799H168L383,145L604,799H752L454,0Z" 
id="f1_2h"
transform="scale(0.001,-0.001)" />

<path d="M649,461c0,0,-6,111,-55,172c0,0,-55,69,-160,69c0,0,-106,0,-170,-79c0,0,-50,-62,-60,-162ZM425,-20c0,0,-169,0,-266,106c0,0,-97,107,-97,297c0,0,0,201,102,320c0,0,103,119,276,119c0,0,157,0,253,-116c0,0,96,-117,96,-306l-1,-48H204c0,0,8,-119,54,-182c0,0,57,-76,180,-76c0,0,77,0,134,43c0,0,58,43,70,110H775C775,247,746,116,656,47c0,0,-90,-67,-231,-67Z" 
id="f1_20"
transform="scale(0.001,-0.001)" />

<path d="M118,0V799H246V662c0,0,17,32,36,58c0,0,76,102,187,102c0,0,19,0,38,-6V679l-27,1c0,0,-109,0,-168,-66c0,0,-60,-65,-60,-186V0Z" 
id="f1_2d"
transform="scale(0.001,-0.001)" />

<path d="M152,-323c-8,0,-38,1,-63,8v125c0,0,30,-11,77,-12c0,0,45,0,76,37c0,0,30,38,69,140l2,12v1L17,799H170L383,139L600,799H747L443,-25c0,0,-70,-184,-125,-241c0,0,-55,-57,-164,-57c0,0,-1,0,-2,0Z" 
id="f1_2k"
transform="scale(0.001,-0.001)" />

<path d="M292,-9c0,0,-88,0,-124,38c0,0,-36,39,-36,134V689H22V799H132v224H266V799H392V689H266V163c0,0,0,-27,21,-43c0,0,21,-15,57,-15h48V1C392,1,324,-9,292,-9Z" 
id="f1_2f"
transform="scale(0.001,-0.001)" />

<path d="M99,0V1097H233V690l23,30c0,0,87,102,219,102c0,0,132,0,203,-71c0,0,72,-72,72,-204V0H616V514c0,0,0,99,-38,142c0,0,-38,44,-124,44c0,0,-102,0,-162,-73c0,0,-59,-74,-59,-199V0Z" 
id="f1_23"
transform="scale(0.001,-0.001)" />

<path d="M365,-315c0,0,-136,187,-199,359c0,0,-62,172,-62,359c0,0,0,186,62,358c0,0,63,172,199,360h92c0,0,-110,-192,-160,-365c0,0,-51,-172,-51,-353c0,0,0,-183,51,-355c0,0,50,-172,160,-363Z" 
id="f1_b"
transform="scale(0.001,-0.001)" />

<path d="M52,-315c0,0,109,192,160,363c0,0,50,173,50,354c0,0,0,183,-50,355c0,0,-51,173,-160,364h92c0,0,135,-188,198,-360c0,0,63,-172,63,-359c0,0,0,-187,-63,-359c0,0,-63,-171,-198,-358Z" 
id="f1_c"
transform="scale(0.001,-0.001)" />

<path d="M187,905l135,216H487L290,905Z" 
id="f1_3e"
transform="scale(0.001,-0.001)" />

<path d="M424,92c0,0,98,0,161,58c0,0,62,58,62,149c0,0,0,92,-62,151c0,0,-63,58,-161,58c0,0,-98,0,-160,-58c0,0,-63,-59,-63,-151c0,0,0,-91,63,-149c0,0,62,-58,160,-58Zm0,533c0,0,82,0,134,46c0,0,52,45,52,118c0,0,0,72,-52,118c0,0,-52,46,-134,46c0,0,-82,0,-134,-46c0,0,-52,-46,-52,-118c0,0,0,-73,52,-119c0,0,52,-45,134,-45Zm0,-653c0,0,-165,0,-265,90C159,62,59,154,59,305c0,0,0,134,100,216c0,0,35,28,78,47c0,0,-27,15,-52,33c0,0,-90,70,-90,185c0,0,0,130,90,209c0,0,91,80,239,80c0,0,148,0,238,-80c0,0,91,-79,91,-209c0,0,0,-115,-91,-185c0,0,-24,-19,-52,-32c0,0,44,-20,79,-49c0,0,101,-81,101,-215c0,0,0,-151,-101,-243c0,0,-100,-90,-265,-90Z" 
id="f1_r"
transform="scale(0.001,-0.001)" />

<path d="M131,0V1097H934V966H280V631H877V500H280V131H942V0Z" 
id="f1_14"
transform="scale(0.001,-0.001)" />

<path d="M17,0L301,412L32,799H205L389,514L574,799H740L471,410L749,0H581L382,305L186,0Z" 
id="f1_2j"
transform="scale(0.001,-0.001)" />

<path d="M436,95c0,0,105,0,160,79c0,0,54,80,54,232c0,0,0,150,-52,222c0,0,-52,72,-161,72c0,0,-112,0,-163,-81c0,0,-51,-82,-51,-258c0,0,0,-127,55,-197c0,0,55,-69,158,-69ZM89,-315V799H216V685l7,10c0,0,86,127,228,127c0,0,156,0,248,-108c0,0,91,-107,91,-291c0,0,0,-208,-92,-326C698,97,606,-20,442,-20c0,0,-135,0,-215,102l-4,6V-315Z" 
id="f1_2b"
transform="scale(0.001,-0.001)" />

<path d="M393,-20c0,0,-169,0,-252,65c0,0,-83,67,-92,210H178c0,0,10,-85,61,-123c0,0,50,-38,154,-38c0,0,90,0,136,34c0,0,47,35,47,100c0,0,0,42,-31,64c0,0,-30,21,-123,43L283,368c0,0,-112,27,-160,75c0,0,-48,48,-48,135c0,0,0,112,80,178c0,0,81,66,218,66c0,0,140,0,222,-68c0,0,82,-67,88,-187H557c0,0,-6,67,-55,103c0,0,-48,37,-129,37c0,0,-84,0,-127,-29c0,0,-44,-29,-44,-85c0,0,0,-43,31,-65c0,0,30,-21,121,-43L493,452c0,0,117,-28,167,-78c0,0,49,-49,49,-138c0,0,0,-119,-86,-188c0,0,-85,-68,-230,-68Z" 
id="f1_2e"
transform="scale(0.001,-0.001)" />

<path d="M99,0V799H226V680l28,36c0,0,90,106,215,106c0,0,107,0,171,-63c0,0,28,-28,44,-65l21,28c0,0,87,100,208,100c0,0,125,0,194,-68c0,0,68,-68,68,-194V0H1041V515c0,0,0,91,-37,138c0,0,-38,47,-110,47c0,0,-87,0,-139,-68c0,0,-52,-68,-52,-183V0H569V547c0,0,0,75,-34,114c0,0,-34,39,-99,39c0,0,-89,0,-146,-76c0,0,-57,-76,-57,-196V0Z" 
id="f1_28"
transform="scale(0.001,-0.001)" />

<path d="M417,-28c0,0,-161,0,-259,79c0,0,-98,81,-109,223H189c0,0,11,-90,72,-139c0,0,61,-49,162,-49c0,0,96,0,158,68c0,0,61,68,61,175c0,0,0,112,-64,178c0,0,-64,66,-173,66c0,0,-59,0,-115,-28c0,0,-55,-29,-84,-73L93,480l77,573H727V922H271L225,629l4,3c0,0,89,60,188,60c0,0,169,0,269,-94c0,0,99,-93,99,-253c0,0,0,-165,-103,-269C682,76,579,-28,417,-28Z" 
id="f1_o"
transform="scale(0.001,-0.001)" />

<path d="M695,589c0,0,126,0,201,68c0,0,74,69,74,186c0,0,0,59,-46,92c0,0,-46,33,-129,33H480L401,589ZM131,0L358,1097H864c0,0,120,0,189,-64c0,0,69,-64,69,-175c0,0,0,-167,-116,-283c0,0,-115,-115,-282,-115H375L280,0Z" 
id="f2_1f"
transform="scale(0.001,-0.001)" />

<path d="M615,99c0,0,92,1,173,35L685,227l92,93L900,209c0,0,33,29,62,64c0,0,144,173,144,414c0,0,0,145,-82,228c0,0,-81,83,-223,83c0,0,-200,0,-343,-171C458,827,314,656,314,418c0,0,-1,-148,80,-234c0,0,81,-85,221,-85ZM1023,-76L889,44c0,0,-135,-73,-300,-73c0,0,-199,0,-314,111c0,0,-115,113,-115,308c0,0,0,310,194,524c0,0,193,213,474,213c0,0,200,0,316,-109c0,0,116,-109,116,-296v-3c0,0,0,-315,-195,-532c0,0,-33,-37,-68,-67L1116,11l-93,-87Z" 
id="f2_1g"
transform="scale(0.001,-0.001)" />

<path d="M355,0V355H0v72H355V784h72V427H782V355H427V0Z" 
id="f3_f"
transform="scale(0.001,-0.001)" />

<path d="M248,0L21,799H169L322,163L478,799H627L788,158L950,799h133L857,0H713L548,624L392,0Z" 
id="f1_2i"
transform="scale(0.001,-0.001)" />

<path d="M394,-20c0,0,-159,0,-253,113c0,0,-95,114,-95,307c0,0,0,193,98,308c0,0,98,114,264,114c0,0,144,0,230,-78c0,0,85,-79,91,-217H600c0,0,-8,86,-59,133c0,0,-52,47,-138,47c0,0,-101,0,-159,-82c0,0,-58,-82,-58,-225c0,0,0,-152,54,-229c0,0,53,-77,159,-77c0,0,79,0,132,50c0,0,52,51,69,143H729C729,287,709,137,623,58c0,0,-86,-78,-229,-78Z" 
id="f1_1y"
transform="scale(0.001,-0.001)" />

<path d="M103,0V1097H237V465L574,799H745L441,503L765,0H590L342,406L237,303V0Z" 
id="f1_26"
transform="scale(0.001,-0.001)" />

<path d="M67,354V492H442V354Z" 
id="f1_g"
transform="scale(0.001,-0.001)" />

<path d="M419,483c0,0,93,0,152,66c0,0,59,66,59,169c0,0,0,103,-59,169c0,0,-59,65,-152,65c0,0,-94,0,-153,-65c0,0,-59,-66,-59,-169c0,0,0,-103,59,-169c0,0,59,-66,153,-66ZM397,-28c0,0,-143,0,-227,75c0,0,-85,77,-91,211H209c0,0,8,-83,57,-128c0,0,49,-45,131,-45c0,0,121,0,186,135c0,0,48,101,62,265C645,485,545,362,397,362c0,0,-150,0,-241,98c0,0,-91,98,-91,258c0,0,0,160,99,258c0,0,99,98,262,98c0,0,173,0,266,-123c0,0,94,-123,94,-349c0,0,0,-303,-101,-467C685,135,583,-28,397,-28Z" 
id="f1_s"
transform="scale(0.001,-0.001)" />

<path d="M96,177l23,112H892L869,177Zm63,307l23,112H955L932,484Z" 
id="f2_w"
transform="scale(0.001,-0.001)" />

<path d="M424,94c0,0,107,0,169,83c0,0,63,83,63,223c0,0,0,140,-63,224c0,0,-62,83,-169,83c0,0,-106,0,-168,-83c0,0,-62,-84,-62,-224c0,0,0,-140,62,-223c0,0,62,-83,168,-83Zm0,-114c0,0,-165,0,-268,115C156,95,54,211,54,400c0,0,0,189,102,306c0,0,103,116,268,116c0,0,168,0,270,-116c0,0,102,-117,102,-306c0,0,0,-189,-102,-305C694,95,592,-20,424,-20Z" 
id="f1_2a"
transform="scale(0.001,-0.001)" />

<path d="M338,28c0,0,48,0,91,45c0,0,43,45,65,144c0,0,22,99,26,276H143c0,0,3,-133,20,-239c0,0,13,-80,44,-140c0,0,19,-36,54,-61c0,0,36,-25,77,-25ZM522,543c0,0,-1,194,-37,312c0,0,-29,90,-76,129c0,0,-34,28,-79,28c0,0,-51,0,-93,-39c0,0,-43,-40,-65,-132c0,0,-22,-93,-29,-298ZM329,-21c0,0,-68,0,-124,31c0,0,-56,33,-99,95c0,0,-43,62,-66,131C40,236,0,356,0,489c0,0,0,294,119,453c0,0,91,119,217,119c0,0,122,0,209,-115c0,0,121,-160,121,-436c0,0,0,-263,-119,-415C547,95,455,-21,329,-21Z" 
id="f3_2d"
transform="scale(0.001,-0.001)" />

<path d="M99,0L264,800H392L367,675l37,39c0,0,111,109,238,109c0,0,139,0,194,-69c0,0,55,-70,27,-209L750,0H615L724,524c0,0,18,91,-10,134c0,0,-28,43,-106,43c0,0,-117,0,-189,-77c0,0,-72,-77,-105,-238L234,0Z" 
id="f2_29"
transform="scale(0.001,-0.001)" />

<path d="M375,-20c0,0,-136,0,-203,66c0,0,-68,68,-68,204V799H238V284c0,0,0,-101,38,-146c0,0,39,-44,127,-44c0,0,97,0,153,75c0,0,57,75,57,203V799H747V0H620V122c0,0,-14,-22,-30,-41C590,81,504,-20,375,-20Z" 
id="f1_2g"
transform="scale(0.001,-0.001)" />

<path d="M103,0V1097H237V0Z" 
id="f1_27"
transform="scale(0.001,-0.001)" />

<path d="M436,95c0,0,105,0,160,79c0,0,54,80,54,232c0,0,0,150,-52,222c0,0,-52,72,-161,72c0,0,-112,0,-163,-81c0,0,-51,-82,-51,-258c0,0,0,-127,55,-197c0,0,55,-69,158,-69Zm6,-115c0,0,-135,0,-215,102L215,98V0H89V1097H223V695c0,0,87,127,225,127c1,0,2,0,2,0c0,0,157,0,249,-108c0,0,91,-107,91,-291c0,0,0,-208,-92,-326C698,97,606,-20,442,-20Z" 
id="f1_1x"
transform="scale(0.001,-0.001)" />

<path d="M116,0V1097H265V131H820V0Z" 
id="f1_1b"
transform="scale(0.001,-0.001)" />

<path d="M573,-29c0,0,-194,0,-301,104c0,0,-107,105,-107,297c0,0,0,317,188,536c0,0,188,219,459,219c0,0,193,0,293,-93c0,0,93,-86,93,-240l-1,-25H1051c0,0,5,110,-64,170c0,0,-68,59,-202,59c0,0,-191,0,-329,-179C456,819,318,640,318,390c0,0,-1,-142,71,-217c0,0,73,-74,210,-74c0,0,132,0,233,80c0,0,100,80,154,227h145c0,0,-76,-209,-221,-323C910,83,765,-29,573,-29Z" 
id="f2_12"
transform="scale(0.001,-0.001)" />

<path d="M583,129c0,0,179,0,304,167c0,0,125,166,125,407c0,0,0,128,-68,196c0,0,-68,69,-193,69H473L299,129ZM124,0L351,1097H777c0,0,187,0,288,-94c0,0,101,-93,101,-267c0,0,0,-317,-174,-526C992,210,818,0,556,0Z" 
id="f2_13"
transform="scale(0.001,-0.001)" />

<path d="M77,369l25,110H950L926,369Z" 
id="f2_99"
transform="scale(0.001,-0.001)" />

<path d="M616,99c0,0,201,0,346,173c0,0,144,174,144,416c0,0,0,144,-82,227c0,0,-81,83,-223,83c0,0,-200,0,-343,-171C458,827,314,656,314,419c0,0,-1,-149,80,-235c0,0,81,-85,222,-85ZM589,-29c0,0,-199,0,-314,111c0,0,-115,113,-115,308c0,0,0,310,194,524c0,0,193,213,474,213c0,0,200,0,316,-109c0,0,116,-109,116,-296v-3c0,0,0,-315,-195,-532c0,0,-194,-216,-476,-216Z" 
id="f2_1e"
transform="scale(0.001,-0.001)" />

<path d="M133,0l33,162H326L292,0Z" 
id="f2_h"
transform="scale(0.001,-0.001)" />

<path d="M17,0L389,412L201,800H376L500,518L742,800H904L554,410L750,0H580L448,303L187,0Z" 
id="f2_2j"
transform="scale(0.001,-0.001)" />

<path d="M575,590c0,0,115,0,169,48c0,0,54,49,54,154c0,0,0,92,-54,135c0,0,-54,43,-169,43H280V590ZM131,0V1097H611c0,0,160,0,249,-80c0,0,90,-80,90,-222c0,0,0,-156,-90,-244c0,0,-89,-88,-249,-88c0,0,-34,0,-82,0c-72,0,-177,0,-249,-1V0Z" 
id="f1_1f"
transform="scale(0.001,-0.001)" />

<path d="M304,24V657c0,0,-49,-12,-76,-33c0,0,-42,-33,-68,-96c0,0,-26,-62,-26,-168c0,0,0,-118,30,-192c0,0,31,-75,76,-113c0,0,21,-19,64,-31Zm83,0c0,0,46,10,71,30c0,0,46,35,71,98c0,0,25,64,25,177c0,0,0,103,-23,175c0,0,-23,72,-64,110c0,0,-26,26,-80,43V24ZM304,-328V-20c0,0,-113,12,-182,70C122,50,0,154,0,339c0,0,0,73,19,131c0,0,18,58,50,102c0,0,32,44,70,72c0,0,37,28,80,42c0,0,31,10,85,17v358h83V703c0,0,149,-16,226,-117c0,0,78,-101,78,-241c0,0,0,-64,-18,-124c0,0,-19,-60,-49,-105c0,0,-30,-45,-68,-74c0,0,-37,-30,-82,-44c0,0,-31,-11,-87,-18V-328Z" 
id="f3_22"
transform="scale(0.001,-0.001)" />

<path d="M140,-21c0,0,-26,0,-44,17C96,-4,79,13,79,40c0,0,0,19,6,33c0,0,8,20,34,55c0,0,46,60,64,126c0,0,32,114,41,321H190c0,0,-55,0,-81,-18c0,0,-44,-26,-80,-89H0c0,0,42,129,98,178c0,0,43,37,120,37H743V575H562c0,0,-27,-171,-27,-327c0,0,0,-77,27,-110c0,0,27,-33,67,-33c0,0,33,0,56,22c0,0,24,22,31,65h27C743,192,730,74,686,26c0,0,-44,-47,-98,-47c0,0,-58,0,-97,51c0,0,-39,53,-39,198c0,0,0,91,28,347H286c0,0,-23,-390,-56,-494c0,0,-33,-102,-90,-102Z" 
id="f3_2c"
transform="scale(0.001,-0.001)" />

<path d="M0,368V478H849V368Z" 
id="f1_99"
transform="scale(0.001,-0.001)" />

<path d="M139,0L366,1097H514L287,0Z" 
id="f2_18"
transform="scale(0.001,-0.001)" />

<path d="M118,0V1097H267V646H839v451H988V0H839V515H267V0Z" 
id="f1_17"
transform="scale(0.001,-0.001)" />

<path d="M494,385V878L152,385ZM494,0V262H20V385l498,708H628V385H775V262H628V0Z" 
id="f4_o"
transform="scale(0.001,-0.001)" />

<path d="M125,0V1051H268V115H799V0Z" 
id="f0_1c"
transform="scale(0.001,-0.001)" />

<path d="M106,0V620c0,0,0,85,-5,188H228c0,0,6,-138,6,-165h3c0,0,32,103,74,141c0,0,42,38,118,38c0,0,27,0,54,-7V692c0,0,-26,7,-71,7c0,0,-84,0,-128,-72c0,0,-44,-72,-44,-206V0Z" 
id="f0_2e"
transform="scale(0.001,-0.001)" />

<path d="M606,-14c0,0,-164,0,-284,65c0,0,-119,66,-182,189c0,0,-63,123,-63,291c0,0,0,255,137,396c0,0,137,140,386,140c0,0,174,0,283,-59c0,0,109,-59,168,-189L915,779c0,0,-44,90,-123,131c0,0,-79,41,-196,41c0,0,-182,0,-278,-110c0,0,-96,-110,-96,-310c0,0,0,-200,102,-315c0,0,102,-115,282,-115c0,0,103,0,193,31c0,0,89,31,144,85V407H629V526h445V164c0,0,-83,-85,-205,-132c0,0,-121,-46,-263,-46Z" 
id="f0_17"
transform="scale(0.001,-0.001)" />

<path d="M355,-14c0,0,-133,0,-194,65c0,0,-62,66,-62,219V808H234V296c0,0,0,-80,16,-124c0,0,16,-44,50,-64c0,0,34,-19,101,-19c0,0,97,0,153,66c0,0,55,67,55,185V808H744V172c0,0,0,-141,4,-172H621c0,0,0,4,-1,20c0,0,-1,17,-2,38c0,0,-1,21,-3,80h-2C613,138,567,55,506,20c0,0,-61,-34,-151,-34Z" 
id="f0_2h"
transform="scale(0.001,-0.001)" />

<path d="M395,89c0,0,115,0,166,79c0,0,51,79,51,246c0,0,0,160,-51,235c0,0,-51,75,-164,75c0,0,-102,0,-147,-75c0,0,-45,-75,-45,-244c0,0,0,-170,45,-243c0,0,45,-73,145,-73ZM361,-14c0,0,-153,0,-225,102c0,0,-72,103,-72,312c0,0,0,422,297,422c0,0,92,0,153,-33c0,0,61,-34,98,-107h2l-2,90v335H747V166c0,0,0,-126,4,-166H623c0,0,-2,12,-5,55c0,0,-3,44,-3,75h-3c0,0,-37,-78,-98,-111c0,0,-62,-33,-153,-33Z" 
id="f0_20"
transform="scale(0.001,-0.001)" />

<path d="M140,0V163H285V0Z" 
id="f0_i"
transform="scale(0.001,-0.001)" />


</defs>
</svg>