<?xml version="1.0" encoding="UTF-8" standalone="no"?>
<!DOCTYPE svg PUBLIC "-//W3C//DTD SVG 1.1//EN"
"http://www.w3.org/Graphics/SVG/1.1/DTD/svg11.dtd">
<svg viewBox="0 0 811 1133" version="1.1" xmlns="http://www.w3.org/2000/svg" xmlns:xlink="http://www.w3.org/1999/xlink">
<defs>
<style type="text/css"><![CDATA[
.g0_65{
fill: none;
stroke: #000000;
stroke-width: 1.0520278;
stroke-linecap: round;
stroke-linejoin: miter;
}
.g1_65{
fill: none;
stroke: #000000;
stroke-width: 1.0503472;
stroke-linecap: round;
stroke-linejoin: miter;
}
.g2_65{
fill: none;
stroke: #000000;
stroke-width: 1.0523639;
stroke-linecap: round;
stroke-linejoin: miter;
}
.g3_65{
fill: none;
stroke: #000000;
stroke-width: 0.7612;
stroke-linecap: round;
stroke-linejoin: miter;
}
.g4_65{
fill: none;
stroke: #000000;
stroke-width: 0.76584446;
stroke-linecap: round;
stroke-linejoin: miter;
}
.g5_65{
fill: none;
stroke: #000000;
stroke-width: 0.75875556;
stroke-linecap: round;
stroke-linejoin: miter;
}
.g6_65{
fill: none;
stroke: #000000;
stroke-width: 0.76217777;
stroke-linecap: round;
stroke-linejoin: miter;
}
]]></style>
</defs>
<g fill="#D4D4D4" fill-opacity="0.56" >
<use xlink:href="#f0_1f" transform="matrix(50.9,-50.9,50.9,50.9,199.9,924.1)" />
<use xlink:href="#f0_2a" transform="matrix(50.9,-50.9,50.9,50.9,260.4,863.6)" />
<use xlink:href="#f0_28" transform="matrix(50.9,-50.9,50.9,50.9,303.7,820.3)" />
<use xlink:href="#f0_25" transform="matrix(50.9,-50.9,50.9,50.9,320.9,803.1)" />
<use xlink:href="#f0_2a" transform="matrix(50.9,-50.9,50.9,50.9,338.2,785.8)" />
<use xlink:href="#f0_21" transform="matrix(50.9,-50.9,50.9,50.9,381.4,742.5)" />
<use xlink:href="#f0_2k" transform="matrix(50.9,-50.9,50.9,50.9,424.7,699.3)" />
<use xlink:href="#f0_1x" transform="matrix(50.9,-50.9,50.9,50.9,463.6,660.4)" />
<use xlink:href="#f0_29" transform="matrix(50.9,-50.9,50.9,50.9,506.8,617.2)" />
<use xlink:href="#f0_2c" transform="matrix(50.9,-50.9,50.9,50.9,571.6,552.4)" />
<use xlink:href="#f0_2b" transform="matrix(50.9,-50.9,50.9,50.9,614.9,509.1)" />
<use xlink:href="#f0_25" transform="matrix(50.9,-50.9,50.9,50.9,658.1,465.9)" />
<use xlink:href="#f0_2a" transform="matrix(50.9,-50.9,50.9,50.9,675.4,448.6)" />
<use xlink:href="#f0_2g" transform="matrix(50.9,-50.9,50.9,50.9,718.6,405.4)" />
</g>
<g fill="#000000" >
<use xlink:href="#f1_b" transform="matrix(10.4,0,0,10.4,185.3,90.6)" />
<use xlink:href="#f1_24" transform="matrix(10.4,0,0,10.4,190.6,90.6)" />
<use xlink:href="#f1_24" transform="matrix(10.4,0,0,10.4,194.2,90.6)" />
<use xlink:href="#f1_24" transform="matrix(10.4,0,0,10.4,197.7,90.6)" />
<use xlink:href="#f1_c" transform="matrix(10.4,0,0,10.4,201.3,90.6)" />
<use xlink:href="#f2_c" transform="matrix(10.4,0,0,16.2,240.6,87.6)" />
<use xlink:href="#f2_d" transform="matrix(10.4,0,0,16.2,349.5,87.6)" />
<use xlink:href="#f1_m" transform="matrix(7.8,0,0,7.8,228.9,69.2)" />
<use xlink:href="#f1_l" transform="matrix(7.8,0,0,7.8,267.3,81.3)" />
<use xlink:href="#f1_k" transform="matrix(7.8,0,0,7.8,229.4,117.7)" />
<use xlink:href="#f1_m" transform="matrix(10.4,0,0,10.4,247.6,90.8)" />
<use xlink:href="#f1_l" transform="matrix(10.4,0,0,10.4,297.8,90.8)" />
<use xlink:href="#f1_n" transform="matrix(10.4,0,0,10.4,339.3,90.8)" />
<use xlink:href="#f1_h" transform="matrix(10.4,0,0,10.4,376.8,90.8)" />
<use xlink:href="#f3_2j" transform="matrix(10.4,0,0,10.4,256.9,90.8)" />
<use xlink:href="#f3_2j" transform="matrix(10.4,0,0,10.4,306.8,90.8)" />
<use xlink:href="#f3_1z" transform="matrix(10.4,0,0,10.4,357.9,90.8)" />
<use xlink:href="#f3_2j" transform="matrix(10.4,0,0,10.4,367.3,90.8)" />
<use xlink:href="#f2_h" transform="matrix(10.5,0,0,10.4,282.3,90.8)" />
<use xlink:href="#f2_f" transform="matrix(10.5,0,0,10.4,323.6,90.8)" />
<use xlink:href="#f2_50" transform="matrix(20.9,0,0,20.8,227.5,99.3)" />
<use xlink:href="#f1_b" transform="matrix(10.4,0,0,10.4,459.2,90.6)" />
<use xlink:href="#f1_24" transform="matrix(10.4,0,0,10.4,464.5,90.6)" />
<use xlink:href="#f1_2h" transform="matrix(10.4,0,0,10.4,468.1,90.6)" />
<use xlink:href="#f1_c" transform="matrix(10.4,0,0,10.4,476.1,90.6)" />
<use xlink:href="#f2_c" transform="matrix(10.4,0,0,16.2,515.4,87.5)" />
<use xlink:href="#f2_d" transform="matrix(10.4,0,0,16.2,599.7,87.5)" />
<use xlink:href="#f1_n" transform="matrix(7.9,0,0,7.8,503.9,69.2)" />
<use xlink:href="#f1_l" transform="matrix(7.9,0,0,7.8,542.2,81.2)" />
<use xlink:href="#f1_l" transform="matrix(7.9,0,0,7.8,582,81.2)" />
<use xlink:href="#f1_j" transform="matrix(7.9,0,0,7.8,503.9,117.7)" />
<use xlink:href="#f1_m" transform="matrix(10.5,0,0,10.4,522.6,90.7)" />
<use xlink:href="#f1_h" transform="matrix(10.5,0,0,10.4,627.1,90.7)" />
<use xlink:href="#f3_2j" transform="matrix(7.9,0,0,7.8,589.1,81.2)" />
<use xlink:href="#f3_2j" transform="matrix(10.5,0,0,10.4,531.8,90.7)" />
<use xlink:href="#f3_20" transform="matrix(10.5,0,0,10.4,571.8,90.7)" />
<use xlink:href="#f3_1z" transform="matrix(10.5,0,0,10.4,608.3,90.7)" />
<use xlink:href="#f3_2j" transform="matrix(10.5,0,0,10.4,617.6,90.7)" />
<use xlink:href="#f2_f" transform="matrix(10.5,0,0,10.4,557.1,90.7)" />
<use xlink:href="#f2_50" transform="matrix(21,0,0,20.9,502.5,99.3)" />
<use xlink:href="#f1_b" transform="matrix(10.4,0,0,10.4,187.9,185.5)" />
<use xlink:href="#f1_2h" transform="matrix(10.4,0,0,10.4,193.2,185.5)" />
<use xlink:href="#f1_c" transform="matrix(10.4,0,0,10.4,201.4,185.5)" />
<use xlink:href="#f2_c" transform="matrix(10.4,0,0,16.2,240.6,182.2)" />
<use xlink:href="#f2_d" transform="matrix(10.4,0,0,16.2,309.7,182.2)" />
<use xlink:href="#f1_o" transform="matrix(7.9,0,0,7.8,229,163.8)" />
<use xlink:href="#f1_l" transform="matrix(7.9,0,0,7.8,258.3,175.9)" />
<use xlink:href="#f1_l" transform="matrix(7.9,0,0,7.8,229.1,212.3)" />
<use xlink:href="#f1_m" transform="matrix(10.4,0,0,10.4,288.9,185.4)" />
<use xlink:href="#f1_h" transform="matrix(10.4,0,0,10.4,337,185.4)" />
<use xlink:href="#f3_2j" transform="matrix(10.4,0,0,10.4,247.8,185.4)" />
<use xlink:href="#f3_2j" transform="matrix(10.4,0,0,10.4,298.2,185.4)" />
<use xlink:href="#f3_1z" transform="matrix(10.4,0,0,10.4,318.1,185.4)" />
<use xlink:href="#f3_2j" transform="matrix(10.4,0,0,10.4,327.5,185.4)" />
<use xlink:href="#f2_f" transform="matrix(10.5,0,0,10.4,273.2,185.4)" />
<use xlink:href="#f2_50" transform="matrix(20.9,0,0,20.8,227.4,193.9)" />
<use xlink:href="#f1_p" transform="matrix(10.4,0,0,10.4,129.2,233.9)" />
<use xlink:href="#f1_l" transform="matrix(10.4,0,0,10.4,138.1,233.9)" />
<use xlink:href="#f1_h" transform="matrix(10.4,0,0,10.4,147.3,233.9)" />
<use xlink:href="#f1_14" transform="matrix(10.4,0,0,10.4,169.9,233.9)" />
<use xlink:href="#f1_2h" transform="matrix(10.4,0,0,10.4,180.7,233.9)" />
<use xlink:href="#f1_1w" transform="matrix(10.4,0,0,10.4,188.7,233.9)" />
<use xlink:href="#f1_27" transform="matrix(10.4,0,0,10.4,197.6,233.9)" />
<use xlink:href="#f1_2g" transform="matrix(10.4,0,0,10.4,201.1,233.9)" />
<use xlink:href="#f1_1w" transform="matrix(10.4,0,0,10.4,210,233.9)" />
<use xlink:href="#f1_2f" transform="matrix(10.4,0,0,10.4,218.9,233.9)" />
<use xlink:href="#f1_20" transform="matrix(10.4,0,0,10.4,223.3,233.9)" />
<use xlink:href="#f1_b" transform="matrix(10.4,0,0,10.4,192.5,302)" />
<use xlink:href="#f1_24" transform="matrix(10.4,0,0,10.4,197.8,302)" />
<use xlink:href="#f1_c" transform="matrix(10.4,0,0,10.4,201.3,302)" />
<use xlink:href="#f2_c" transform="matrix(10.5,0,0,14.5,278.5,293.1)" />
<use xlink:href="#f2_d" transform="matrix(10.5,0,0,14.5,365,293.1)" />
<use xlink:href="#f1_k" transform="matrix(7.3,0,0,7.4,229.2,274.1)" />
<use xlink:href="#f1_k" transform="matrix(7.3,0,0,7.4,268.7,288.6)" />
<use xlink:href="#f1_l" transform="matrix(7.3,0,0,7.4,355.6,288.6)" />
<use xlink:href="#f1_j" transform="matrix(7.3,0,0,7.4,228.7,317.4)" />
<use xlink:href="#f1_1y" transform="matrix(10.5,0,0,10.5,240.2,295.8)" />
<use xlink:href="#f1_2a" transform="matrix(10.5,0,0,10.5,248.2,295.8)" />
<use xlink:href="#f1_2f" transform="matrix(10.5,0,0,10.5,257.1,295.8)" />
<use xlink:href="#f1_k" transform="matrix(10.5,0,0,10.5,284.3,295.8)" />
<use xlink:href="#f3_2j" transform="matrix(10.5,0,0,10.5,313.1,295.8)" />
<use xlink:href="#f3_2j" transform="matrix(10.5,0,0,10.5,345.4,295.8)" />
<use xlink:href="#f3_1z" transform="matrix(10.5,0,0,10.5,373.4,295.8)" />
<use xlink:href="#f3_2j" transform="matrix(10.5,0,0,10.5,382.3,295.8)" />
<use xlink:href="#f2_h" transform="matrix(7.3,0,0,7.4,262.6,288.6)" />
<use xlink:href="#f2_h" transform="matrix(10.5,0,0,10.5,297.4,295.8)" />
<use xlink:href="#f2_f" transform="matrix(10.5,0,0,10.5,329.5,295.8)" />
<use xlink:href="#f2_50" transform="matrix(18.8,0,0,18.9,227.5,303)" />
<use xlink:href="#f1_b" transform="matrix(10.4,0,0,10.4,188.8,379)" />
<use xlink:href="#f1_24" transform="matrix(10.4,0,0,10.4,194.1,379)" />
<use xlink:href="#f1_24" transform="matrix(10.4,0,0,10.4,197.7,379)" />
<use xlink:href="#f1_c" transform="matrix(10.4,0,0,10.4,201.2,379)" />
<use xlink:href="#f2_c" transform="matrix(10.6,0,0,12.2,241.6,386.1)" />
<use xlink:href="#f2_d" transform="matrix(10.6,0,0,12.2,358.4,386.1)" />
<use xlink:href="#f2_c" transform="matrix(10.6,0,0,12.2,367.1,386.1)" />
<use xlink:href="#f2_d" transform="matrix(10.6,0,0,12.2,484.1,386.1)" />
</g>
<path d="M240.8,371H490" class="g0_65" />
<g fill="#000000" >
<use xlink:href="#f1_2e" transform="matrix(10.7,0,0,10.6,248.3,387.8)" />
<use xlink:href="#f1_24" transform="matrix(10.7,0,0,10.6,256.4,387.8)" />
<use xlink:href="#f1_29" transform="matrix(10.7,0,0,10.6,260,387.8)" />
<use xlink:href="#f1_l" transform="matrix(10.7,0,0,10.6,304.7,387.8)" />
<use xlink:href="#f1_1y" transform="matrix(10.7,0,0,10.6,317.7,387.8)" />
<use xlink:href="#f1_2a" transform="matrix(10.7,0,0,10.6,325.8,387.8)" />
<use xlink:href="#f1_2e" transform="matrix(10.7,0,0,10.6,334.9,387.8)" />
<use xlink:href="#f1_l" transform="matrix(10.7,0,0,10.6,374.2,387.8)" />
<use xlink:href="#f1_2e" transform="matrix(10.7,0,0,10.6,387.1,387.8)" />
<use xlink:href="#f1_24" transform="matrix(10.7,0,0,10.6,395.3,387.8)" />
<use xlink:href="#f1_29" transform="matrix(10.7,0,0,10.6,398.9,387.8)" />
<use xlink:href="#f1_1y" transform="matrix(10.7,0,0,10.6,443.8,387.8)" />
<use xlink:href="#f1_2a" transform="matrix(10.7,0,0,10.6,451.9,387.8)" />
<use xlink:href="#f1_2e" transform="matrix(10.7,0,0,10.6,461,387.8)" />
<use xlink:href="#f3_1z" transform="matrix(10.7,0,0,10.6,355.6,364.8)" />
<use xlink:href="#f3_2j" transform="matrix(10.7,0,0,10.6,364.6,364.8)" />
<use xlink:href="#f3_2j" transform="matrix(10.7,0,0,10.6,272.5,387.8)" />
<use xlink:href="#f3_2j" transform="matrix(10.7,0,0,10.6,346.9,387.8)" />
<use xlink:href="#f3_2j" transform="matrix(10.7,0,0,10.6,410.9,387.8)" />
<use xlink:href="#f3_2j" transform="matrix(10.7,0,0,10.6,472.7,387.8)" />
<use xlink:href="#f2_h" transform="matrix(10.6,0,0,10.6,289,387.8)" />
<use xlink:href="#f2_f" transform="matrix(10.6,0,0,10.6,427.5,387.8)" />
<use xlink:href="#f2_50" transform="matrix(19.1,0,0,19.1,227.5,382.6)" />
<use xlink:href="#f1_b" transform="matrix(10.4,0,0,10.4,185.3,472.6)" />
<use xlink:href="#f1_24" transform="matrix(10.4,0,0,10.4,190.6,472.6)" />
<use xlink:href="#f1_24" transform="matrix(10.4,0,0,10.4,194.2,472.6)" />
<use xlink:href="#f1_24" transform="matrix(10.4,0,0,10.4,197.7,472.6)" />
<use xlink:href="#f1_c" transform="matrix(10.4,0,0,10.4,201.3,472.6)" />
<use xlink:href="#f2_c" transform="matrix(10.4,0,0,11.9,266.2,454.1)" />
<use xlink:href="#f2_d" transform="matrix(10.4,0,0,11.9,312.3,454.1)" />
</g>
<path d="M240.8,462.2h77.3" class="g1_65" />
<g fill="#000000" >
<use xlink:href="#f1_k" transform="matrix(7.4,0,0,7.4,229.3,444.8)" />
<use xlink:href="#f1_l" transform="matrix(7.4,0,0,7.4,294.5,473.3)" />
<use xlink:href="#f1_j" transform="matrix(7.4,0,0,7.4,228.7,488.1)" />
<use xlink:href="#f1_27" transform="matrix(10.5,0,0,10.5,241.3,456.1)" />
<use xlink:href="#f1_2a" transform="matrix(10.5,0,0,10.5,244.9,456.1)" />
<use xlink:href="#f1_22" transform="matrix(10.5,0,0,10.5,253.8,456.1)" />
<use xlink:href="#f1_k" transform="matrix(10.5,0,0,10.5,272,456.1)" />
<use xlink:href="#f1_k" transform="matrix(10.5,0,0,10.5,255.4,480.5)" />
<use xlink:href="#f3_2j" transform="matrix(10.5,0,0,10.5,300.9,456.1)" />
<use xlink:href="#f3_1z" transform="matrix(10.5,0,0,10.5,322.1,466.5)" />
<use xlink:href="#f3_2j" transform="matrix(10.5,0,0,10.5,331.1,466.5)" />
<use xlink:href="#f3_2j" transform="matrix(10.5,0,0,10.5,284.4,480.5)" />
<use xlink:href="#f2_f" transform="matrix(10.5,0,0,10.5,285,456.1)" />
<use xlink:href="#f2_f" transform="matrix(10.5,0,0,10.5,268.4,480.5)" />
<use xlink:href="#f2_50" transform="matrix(18.9,0,0,18.9,227.5,473.7)" />
<use xlink:href="#f1_b" transform="matrix(10.4,0,0,10.4,436.3,472.6)" />
<use xlink:href="#f1_24" transform="matrix(10.4,0,0,10.4,441.6,472.6)" />
<use xlink:href="#f1_2h" transform="matrix(10.4,0,0,10.4,445.2,472.6)" />
<use xlink:href="#f1_c" transform="matrix(10.4,0,0,10.4,453.1,472.6)" />
<use xlink:href="#f2_c" transform="matrix(10.4,0,0,14.3,487.7,472.5)" />
<use xlink:href="#f2_d" transform="matrix(10.4,0,0,14.3,658.4,472.5)" />
</g>
<path d="M475.5,439.9h7.9" class="g2_65" />
<g fill="#000000" >
<use xlink:href="#f1_l" transform="matrix(7.4,0,0,7.3,476.3,451.7)" />
<use xlink:href="#f1_j" transform="matrix(7.4,0,0,7.3,476.3,493.1)" />
<use xlink:href="#f1_l" transform="matrix(10.5,0,0,10.4,494.5,471.7)" />
<use xlink:href="#f1_27" transform="matrix(10.5,0,0,10.4,507,471.7)" />
<use xlink:href="#f1_2a" transform="matrix(10.5,0,0,10.4,510.5,471.7)" />
<use xlink:href="#f1_22" transform="matrix(10.5,0,0,10.4,519.5,471.7)" />
<use xlink:href="#f1_2e" transform="matrix(10.5,0,0,10.4,532.2,471.7)" />
<use xlink:href="#f1_24" transform="matrix(10.5,0,0,10.4,540.2,471.7)" />
<use xlink:href="#f1_29" transform="matrix(10.5,0,0,10.4,543.8,471.7)" />
<use xlink:href="#f1_99" transform="matrix(10.5,0,0,10.4,573.2,471.7)" />
<use xlink:href="#f1_27" transform="matrix(10.5,0,0,10.4,588.7,471.7)" />
<use xlink:href="#f1_2a" transform="matrix(10.5,0,0,10.4,592.2,471.7)" />
<use xlink:href="#f1_22" transform="matrix(10.5,0,0,10.4,601.2,471.7)" />
<use xlink:href="#f1_2e" transform="matrix(10.5,0,0,10.4,613.9,471.7)" />
<use xlink:href="#f1_24" transform="matrix(10.5,0,0,10.4,621.9,471.7)" />
<use xlink:href="#f1_29" transform="matrix(10.5,0,0,10.4,625.5,471.7)" />
<use xlink:href="#f1_l" transform="matrix(10.5,0,0,10.4,637.9,471.7)" />
<use xlink:href="#f1_h" transform="matrix(10.5,0,0,10.4,684.9,471.7)" />
<use xlink:href="#f3_2j" transform="matrix(10.5,0,0,10.4,556.4,471.7)" />
<use xlink:href="#f3_2j" transform="matrix(10.5,0,0,10.4,647.1,471.7)" />
<use xlink:href="#f3_1z" transform="matrix(10.5,0,0,10.4,666.8,471.7)" />
<use xlink:href="#f3_2j" transform="matrix(10.5,0,0,10.4,675.7,471.7)" />
<use xlink:href="#f2_2c" transform="matrix(7.4,0,0,7.3,476.4,435.5)" />
<use xlink:href="#f2_50" transform="matrix(18.8,0,0,18.8,475.1,478.8)" />
<use xlink:href="#f1_p" transform="matrix(10.4,0,0,10.4,129.2,557.5)" />
<use xlink:href="#f1_m" transform="matrix(10.4,0,0,10.4,138.1,557.5)" />
<use xlink:href="#f1_h" transform="matrix(10.4,0,0,10.4,147.3,557.5)" />
</g>
<path d="M182.2,553.1H272" class="g3_65" />
<g fill="#000000" >
<use xlink:href="#f1_k" transform="matrix(10.4,0,0,10.4,223.4,547)" />
<use xlink:href="#f1_h" transform="matrix(10.4,0,0,10.4,292,557.3)" />
<use xlink:href="#f1_2e" transform="matrix(10.4,0,0,10.4,183,569.6)" />
<use xlink:href="#f1_24" transform="matrix(10.4,0,0,10.4,191,569.6)" />
<use xlink:href="#f1_29" transform="matrix(10.4,0,0,10.4,194.6,569.6)" />
<use xlink:href="#f1_2e" transform="matrix(10.4,0,0,10.4,230.6,569.6)" />
<use xlink:href="#f1_24" transform="matrix(10.4,0,0,10.4,238.5,569.6)" />
<use xlink:href="#f1_29" transform="matrix(10.4,0,0,10.4,242.1,569.6)" />
<use xlink:href="#f1_l" transform="matrix(10.4,0,0,10.4,252.5,569.6)" />
<use xlink:href="#f3_1z" transform="matrix(10.4,0,0,10.4,273.6,557.3)" />
<use xlink:href="#f3_2j" transform="matrix(10.4,0,0,10.4,282.5,557.3)" />
<use xlink:href="#f3_2j" transform="matrix(10.4,0,0,10.4,205.1,569.6)" />
<use xlink:href="#f3_2j" transform="matrix(10.4,0,0,10.4,261.3,569.6)" />
<use xlink:href="#f2_f" transform="matrix(10.4,0,0,10.4,218.3,569.6)" />
<use xlink:href="#f2_50" transform="matrix(15.7,0,0,15.7,172.7,562.6)" />
<use xlink:href="#f1_p" transform="matrix(10.4,0,0,10.4,404.2,557.5)" />
<use xlink:href="#f1_n" transform="matrix(10.4,0,0,10.4,413.1,557.5)" />
<use xlink:href="#f1_h" transform="matrix(10.4,0,0,10.4,422.3,557.5)" />
<use xlink:href="#f2_c" transform="matrix(10.4,0,0,11.6,463.3,542.1)" />
<use xlink:href="#f2_d" transform="matrix(10.4,0,0,11.6,534.3,542)" />
</g>
<path d="M457.3,550.2H582.4" class="g4_65" />
<g fill="#000000" >
<use xlink:href="#f1_l" transform="matrix(7,0,0,7,507.9,560.8)" />
<use xlink:href="#f1_m" transform="matrix(10.5,0,0,10.5,469,544)" />
<use xlink:href="#f1_2e" transform="matrix(10.5,0,0,10.5,479.7,544)" />
<use xlink:href="#f1_24" transform="matrix(10.5,0,0,10.5,487.7,544)" />
<use xlink:href="#f1_29" transform="matrix(10.5,0,0,10.5,491.3,544)" />
<use xlink:href="#f1_l" transform="matrix(10.5,0,0,10.5,525.3,544)" />
<use xlink:href="#f1_1y" transform="matrix(10.5,0,0,10.5,541.1,544)" />
<use xlink:href="#f1_2a" transform="matrix(10.5,0,0,10.5,549.2,544)" />
<use xlink:href="#f1_2e" transform="matrix(10.5,0,0,10.5,558.1,544)" />
<use xlink:href="#f1_h" transform="matrix(10.5,0,0,10.5,602.4,554.4)" />
<use xlink:href="#f1_o" transform="matrix(10.5,0,0,10.5,458.1,568)" />
<use xlink:href="#f1_1y" transform="matrix(10.5,0,0,10.5,482.4,568)" />
<use xlink:href="#f1_2a" transform="matrix(10.5,0,0,10.5,490.5,568)" />
<use xlink:href="#f1_2e" transform="matrix(10.5,0,0,10.5,499.4,568)" />
<use xlink:href="#f1_n" transform="matrix(10.5,0,0,10.5,540.9,568)" />
<use xlink:href="#f1_2e" transform="matrix(10.5,0,0,10.5,551.5,568)" />
<use xlink:href="#f1_24" transform="matrix(10.5,0,0,10.5,559.6,568)" />
<use xlink:href="#f1_29" transform="matrix(10.5,0,0,10.5,563.1,568)" />
<use xlink:href="#f3_1z" transform="matrix(10.5,0,0,10.5,584,554.4)" />
<use xlink:href="#f2_2d" transform="matrix(10.5,0,0,10.5,501.4,544)" />
<use xlink:href="#f2_h" transform="matrix(10.5,0,0,10.5,513.2,544)" />
<use xlink:href="#f2_2d" transform="matrix(10.5,0,0,10.5,567.8,544)" />
<use xlink:href="#f2_2d" transform="matrix(10.5,0,0,10.5,594.6,554.4)" />
<use xlink:href="#f2_h" transform="matrix(10.5,0,0,10.5,470.4,568)" />
<use xlink:href="#f2_2d" transform="matrix(10.5,0,0,10.5,517.2,568)" />
<use xlink:href="#f2_h" transform="matrix(10.5,0,0,10.5,528.9,568)" />
<use xlink:href="#f2_2d" transform="matrix(10.5,0,0,10.5,573.3,568)" />
<use xlink:href="#f2_50" transform="matrix(15.8,0,0,15.8,447.7,559.7)" />
<use xlink:href="#f1_p" transform="matrix(10.4,0,0,10.4,129.2,618.2)" />
<use xlink:href="#f1_o" transform="matrix(10.4,0,0,10.4,138.1,618.2)" />
<use xlink:href="#f1_h" transform="matrix(10.4,0,0,10.4,147.3,618.2)" />
<use xlink:href="#f1_m" transform="matrix(7,0,0,7,207.4,609.4)" />
<use xlink:href="#f1_2e" transform="matrix(10.6,0,0,10.5,181.8,616.6)" />
<use xlink:href="#f1_20" transform="matrix(10.6,0,0,10.5,189.9,616.6)" />
<use xlink:href="#f1_1y" transform="matrix(10.6,0,0,10.5,198.9,616.6)" />
<use xlink:href="#f1_h" transform="matrix(10.6,0,0,10.5,249.3,616.6)" />
<use xlink:href="#f3_2j" transform="matrix(10.6,0,0,10.5,217.3,616.6)" />
<use xlink:href="#f3_1z" transform="matrix(10.6,0,0,10.5,230.8,616.6)" />
<use xlink:href="#f3_2j" transform="matrix(10.6,0,0,10.5,239.7,616.6)" />
<use xlink:href="#f2_50" transform="matrix(15.8,0,0,15.8,172.6,621.9)" />
<use xlink:href="#f1_p" transform="matrix(10.4,0,0,10.4,404.2,618.2)" />
<use xlink:href="#f1_p" transform="matrix(10.4,0,0,10.4,413.1,618.2)" />
<use xlink:href="#f1_h" transform="matrix(10.4,0,0,10.4,422.3,618.2)" />
<use xlink:href="#f1_l" transform="matrix(7,0,0,7,466,609.4)" />
<use xlink:href="#f1_1y" transform="matrix(10.6,0,0,10.5,483,616.6)" />
<use xlink:href="#f1_2a" transform="matrix(10.6,0,0,10.5,491.1,616.6)" />
<use xlink:href="#f1_2e" transform="matrix(10.6,0,0,10.5,500,616.6)" />
<use xlink:href="#f1_m" transform="matrix(10.6,0,0,10.5,509.9,616.6)" />
<use xlink:href="#f1_h" transform="matrix(10.6,0,0,10.5,551.3,616.6)" />
<use xlink:href="#f3_2j" transform="matrix(7,0,0,7,472.5,609.4)" />
<use xlink:href="#f3_20" transform="matrix(10.6,0,0,10.5,455.8,616.6)" />
<use xlink:href="#f3_2j" transform="matrix(10.6,0,0,10.5,519.3,616.6)" />
<use xlink:href="#f3_1z" transform="matrix(10.6,0,0,10.5,532.8,616.6)" />
<use xlink:href="#f3_2j" transform="matrix(10.6,0,0,10.5,541.8,616.6)" />
<use xlink:href="#f2_50" transform="matrix(15.8,0,0,15.8,447.6,621.9)" />
<use xlink:href="#f4_10" transform="matrix(14,0,0,14,351.2,678.3)" />
<use xlink:href="#f4_1d" transform="matrix(14,0,0,14,367.8,678.3)" />
<use xlink:href="#f4_1i" transform="matrix(14,0,0,14,386,678.3)" />
<use xlink:href="#f4_1m" transform="matrix(14,0,0,14,397.5,678.3)" />
<use xlink:href="#f4_14" transform="matrix(14,0,0,14,418.5,678.3)" />
<use xlink:href="#f4_1h" transform="matrix(14,0,0,14,431.5,678.3)" />
<use xlink:href="#f4_1i" transform="matrix(14,0,0,14,446.5,678.3)" />
<use xlink:href="#f1_k" transform="matrix(10.4,0,0,10.4,139.1,735.2)" />
<use xlink:href="#f1_h" transform="matrix(10.4,0,0,10.4,148,735.2)" />
</g>
<path d="M173,731.4h10.6" class="g5_65" />
<g fill="#000000" >
<use xlink:href="#f1_h" transform="matrix(10.4,0,0,10.5,228.6,735.7)" />
<use xlink:href="#f1_l" transform="matrix(10.4,0,0,10.5,174.1,751.3)" />
<use xlink:href="#f3_2j" transform="matrix(10.4,0,0,10.5,188.6,735.7)" />
<use xlink:href="#f3_1y" transform="matrix(10.4,0,0,10.5,220,735.7)" />
<use xlink:href="#f2_2c" transform="matrix(10.5,0,0,10.5,174,725.2)" />
<use xlink:href="#f2_f" transform="matrix(10.5,0,0,10.5,205.1,735.7)" />
<use xlink:href="#f1_l" transform="matrix(10.4,0,0,10.4,413.2,735.2)" />
<use xlink:href="#f1_h" transform="matrix(10.4,0,0,10.4,422.1,735.2)" />
<use xlink:href="#f1_l" transform="matrix(10.4,0,0,10.4,444.9,735.2)" />
<use xlink:href="#f3_20" transform="matrix(10.4,0,0,10.4,453.7,735.2)" />
<use xlink:href="#f1_99" transform="matrix(10.4,0,0,10.4,469.5,735.2)" />
<use xlink:href="#f1_l" transform="matrix(10.4,0,0,10.4,485.5,735.2)" />
<use xlink:href="#f1_m" transform="matrix(10.4,0,0,10.4,138.2,803.2)" />
<use xlink:href="#f1_h" transform="matrix(10.4,0,0,10.4,147.1,803.2)" />
<use xlink:href="#f1_2f" transform="matrix(10.4,0,0,10.4,169.9,803.2)" />
<use xlink:href="#f1_1w" transform="matrix(10.4,0,0,10.4,174.4,803.2)" />
<use xlink:href="#f1_29" transform="matrix(10.4,0,0,10.4,183.2,803.2)" />
<use xlink:href="#f3_2j" transform="matrix(10.4,0,0,10.4,198.7,803.2)" />
<use xlink:href="#f1_e" transform="matrix(10.4,0,0,10.4,213.6,803.2)" />
<use xlink:href="#f3_1y" transform="matrix(10.4,0,0,10.4,229.9,803.2)" />
<use xlink:href="#f1_h" transform="matrix(10.4,0,0,10.4,237.9,803.2)" />
<use xlink:href="#f1_n" transform="matrix(10.4,0,0,10.4,413.2,803.2)" />
<use xlink:href="#f1_h" transform="matrix(10.4,0,0,10.4,422.1,803.2)" />
</g>
<path d="M448,795.4h32.6m16.4,0h19.5m49.8,-9.6v15.1m13.3,-15.1v15.1m17.3,-5.5h19.5" class="g6_65" />
<g fill="#000000" >
<use xlink:href="#f1_s" transform="matrix(7.1,0,0,7.1,508,781.9)" />
<use xlink:href="#f1_l" transform="matrix(7.1,0,0,7.1,608.1,781.9)" />
<use xlink:href="#f1_r" transform="matrix(10.6,0,0,10.6,455.4,789.2)" />
<use xlink:href="#f1_r" transform="matrix(10.6,0,0,10.6,532.5,799.6)" />
<use xlink:href="#f1_27" transform="matrix(10.6,0,0,10.6,542.6,799.6)" />
<use xlink:href="#f1_2a" transform="matrix(10.6,0,0,10.6,546.2,799.6)" />
<use xlink:href="#f1_22" transform="matrix(10.6,0,0,10.6,555.2,799.6)" />
<use xlink:href="#f1_h" transform="matrix(10.6,0,0,10.6,640.6,799.6)" />
<use xlink:href="#f1_27" transform="matrix(10.6,0,0,10.6,448.2,812.1)" />
<use xlink:href="#f1_2a" transform="matrix(10.6,0,0,10.6,451.8,812.1)" />
<use xlink:href="#f1_22" transform="matrix(10.6,0,0,10.6,460.8,812.1)" />
<use xlink:href="#f1_r" transform="matrix(10.6,0,0,10.6,471.2,812.1)" />
<use xlink:href="#f1_s" transform="matrix(10.6,0,0,10.6,502.4,812.1)" />
<use xlink:href="#f1_k" transform="matrix(10.6,0,0,10.6,597.4,812.1)" />
<use xlink:href="#f1_p" transform="matrix(10.6,0,0,10.6,606.4,812.1)" />
<use xlink:href="#f3_2j" transform="matrix(7.1,0,0,7.1,464.8,781.9)" />
<use xlink:href="#f3_2j" transform="matrix(10.6,0,0,10.6,498,789.2)" />
<use xlink:href="#f3_2j" transform="matrix(10.6,0,0,10.6,597.9,789.2)" />
<use xlink:href="#f3_2j" transform="matrix(10.6,0,0,10.6,568.4,799.6)" />
<use xlink:href="#f3_1y" transform="matrix(10.6,0,0,10.6,631.7,799.6)" />
<use xlink:href="#f2_f" transform="matrix(10.6,0,0,10.6,484.2,799.6)" />
<use xlink:href="#f2_f" transform="matrix(10.6,0,0,10.6,520.1,799.6)" />
<use xlink:href="#f2_f" transform="matrix(10.6,0,0,10.6,584,799.6)" />
<use xlink:href="#f2_f" transform="matrix(10.6,0,0,10.6,620.1,799.6)" />
<use xlink:href="#f1_o" transform="matrix(10.4,0,0,10.4,138.2,853.1)" />
<use xlink:href="#f1_h" transform="matrix(10.4,0,0,10.4,147.1,853.1)" />
<use xlink:href="#f1_j" transform="matrix(10.4,0,0,10.4,169.9,853.1)" />
<use xlink:href="#f1_p" transform="matrix(10.4,0,0,10.4,413.2,853.1)" />
<use xlink:href="#f1_h" transform="matrix(10.4,0,0,10.4,422.1,853.1)" />
<use xlink:href="#f1_27" transform="matrix(10.4,0,0,10.4,444.9,853.1)" />
<use xlink:href="#f1_2a" transform="matrix(10.4,0,0,10.4,448.5,853.1)" />
<use xlink:href="#f1_22" transform="matrix(10.4,0,0,10.4,457.3,853.1)" />
<use xlink:href="#f1_2n" transform="matrix(10.4,0,0,10.4,473,853.1)" />
<use xlink:href="#f1_27" transform="matrix(10.4,0,0,10.4,483.9,853.1)" />
<use xlink:href="#f1_2a" transform="matrix(10.4,0,0,10.4,487.4,853.1)" />
<use xlink:href="#f1_22" transform="matrix(10.4,0,0,10.4,496.3,853.1)" />
<use xlink:href="#f1_b" transform="matrix(10.4,0,0,10.4,512.2,853.1)" />
<use xlink:href="#f1_27" transform="matrix(10.4,0,0,10.4,517.5,853.1)" />
<use xlink:href="#f1_2a" transform="matrix(10.4,0,0,10.4,521,853.1)" />
<use xlink:href="#f1_22" transform="matrix(10.4,0,0,10.4,529.9,853.1)" />
<use xlink:href="#f3_2j" transform="matrix(10.4,0,0,10.4,545,853.1)" />
<use xlink:href="#f1_c" transform="matrix(10.4,0,0,10.4,553.1,853.1)" />
<use xlink:href="#f1_2n" transform="matrix(10.4,0,0,10.4,565.4,853.1)" />
<use xlink:href="#f1_e" transform="matrix(10.4,0,0,10.4,576.3,853.1)" />
<use xlink:href="#f3_1y" transform="matrix(10.4,0,0,10.4,592.7,853.1)" />
<use xlink:href="#f5_l" transform="matrix(8,0,0,8,723.2,1122.4)" />
<use xlink:href="#f5_k" transform="matrix(8,0,0,8,730,1122.4)" />
</g>
<g fill="#0080FF" fill-opacity="0.5" >
<use xlink:href="#f0_1c" transform="matrix(42.3,0,0,42.3,202.9,1095.2)" />
<use xlink:href="#f0_21" transform="matrix(42.3,0,0,42.3,238.8,1095.2)" />
<use xlink:href="#f0_1x" transform="matrix(42.3,0,0,42.3,274.7,1095.2)" />
<use xlink:href="#f0_2e" transform="matrix(42.3,0,0,42.3,310.7,1095.2)" />
<use xlink:href="#f0_2a" transform="matrix(42.3,0,0,42.3,332.2,1095.2)" />
<use xlink:href="#f0_17" transform="matrix(42.3,0,0,42.3,368.1,1095.2)" />
<use xlink:href="#f0_2h" transform="matrix(42.3,0,0,42.3,418.4,1095.2)" />
<use xlink:href="#f0_25" transform="matrix(42.3,0,0,42.3,454.3,1095.2)" />
<use xlink:href="#f0_20" transform="matrix(42.3,0,0,42.3,468.7,1095.2)" />
<use xlink:href="#f0_21" transform="matrix(42.3,0,0,42.3,504.6,1095.2)" />
<use xlink:href="#f0_i" transform="matrix(42.3,0,0,42.3,540.5,1095.2)" />
<use xlink:href="#f0_25" transform="matrix(42.3,0,0,42.3,558.5,1095.2)" />
<use xlink:href="#f0_2a" transform="matrix(42.3,0,0,42.3,572.8,1095.2)" />
</g>
<defs>
<path d="M593,101c0,0,182,0,279,112c0,0,98,113,98,318c0,0,0,196,-98,308c0,0,-98,112,-277,112c0,0,-181,0,-279,-110c0,0,-99,-111,-99,-310c0,0,0,-198,100,-314c0,0,99,-116,276,-116Zm0,-115c0,0,-162,0,-279,65c0,0,-118,66,-180,190c0,0,-62,124,-62,290c0,0,0,252,138,394c0,0,138,142,385,142c0,0,160,0,278,-64c0,0,118,-64,180,-185c0,0,62,-122,62,-287c0,0,0,-165,-63,-289c0,0,-63,-124,-181,-190c0,0,-118,-66,-278,-66Z" 
id="f0_1f"
transform="scale(0.001,-0.001)" />

<path d="M106,0V635c0,0,0,141,-5,173H228c0,0,1,-4,2,-21c0,0,1,-16,2,-37c0,0,1,-22,2,-81h2c0,0,47,84,108,119c0,0,60,34,151,34c0,0,132,0,194,-66c0,0,61,-66,61,-218V0H615V512c0,0,0,80,-15,124c0,0,-16,44,-50,63c0,0,-35,20,-101,20c0,0,-97,0,-153,-67c0,0,-56,-66,-56,-184V0Z" 
id="f0_2a"
transform="scale(0.001,-0.001)" />

<path d="M103,0V1107H237V0Z" 
id="f0_28"
transform="scale(0.001,-0.001)" />

<path d="M102,0V808H236V0Zm0,979v128H236V979Z" 
id="f0_25"
transform="scale(0.001,-0.001)" />

<path d="M643,478c0,0,-11,128,-65,187c0,0,-54,59,-154,59c0,0,-98,0,-155,-66c0,0,-57,-65,-62,-180ZM431,-14c0,0,-179,0,-272,106c0,0,-94,107,-94,317c0,0,0,200,94,307c0,0,93,106,267,106c0,0,356,0,356,-429V375H206c0,0,0,-138,57,-213c0,0,58,-75,168,-75c0,0,87,0,140,35c0,0,53,35,71,88L760,177c0,0,-72,-191,-329,-191Z" 
id="f0_21"
transform="scale(0.001,-0.001)" />

<path d="M17,0L304,415L31,808H179L380,493L580,808H730L457,417L747,0H598L380,331L162,0Z" 
id="f0_2k"
transform="scale(0.001,-0.001)" />

<path d="M339,87c0,0,74,0,132,34c0,0,57,33,90,91c0,0,34,59,34,121v66L448,396c0,0,-95,-2,-144,-19c0,0,-49,-18,-75,-55c0,0,-26,-38,-26,-98c0,0,0,-65,35,-101c0,0,36,-36,101,-36ZM309,-14c0,0,-122,0,-183,64c0,0,-61,64,-61,176c0,0,0,125,82,192c0,0,83,67,266,72l182,3v44c0,0,0,98,-42,141c0,0,-42,43,-132,43c0,0,-90,0,-131,-31c0,0,-41,-31,-49,-98L101,604c0,0,34,218,323,218c0,0,153,0,229,-70c0,0,77,-69,77,-202V202c0,0,0,-59,16,-90c0,0,16,-30,60,-30c0,0,19,0,44,5V4C850,4,799,-7,746,-7c0,0,-75,0,-109,38c0,0,-33,40,-38,124h-4C595,155,543,62,475,24c0,0,-68,-38,-166,-38Z" 
id="f0_1x"
transform="scale(0.001,-0.001)" />

<path d="M106,0V635c0,0,0,141,-5,173H228c0,0,1,-4,2,-21c0,0,1,-16,2,-37c0,0,1,-22,2,-81h2c0,0,44,86,100,120c0,0,56,33,136,33c0,0,92,0,145,-36c0,0,54,-37,75,-117h2c0,0,42,82,101,117c0,0,59,36,143,36c0,0,123,0,178,-66c0,0,56,-67,56,-218V0H1039V512c0,0,0,117,-32,162c0,0,-32,45,-116,45c0,0,-88,0,-136,-66c0,0,-49,-65,-49,-185V0H573V512c0,0,0,117,-32,162c0,0,-32,45,-116,45c0,0,-86,0,-136,-66c0,0,-50,-66,-50,-185V0Z" 
id="f0_29"
transform="scale(0.001,-0.001)" />

<path d="M453,84c0,0,100,0,146,74c0,0,46,73,46,247c0,0,0,169,-46,241c0,0,-45,73,-145,73c0,0,-80,0,-125,-34c0,0,-45,-34,-68,-105c0,0,-24,-71,-24,-186c0,0,0,-159,51,-234c0,0,51,-76,165,-76ZM103,-316V643c0,0,0,124,-5,165H228c0,0,1,-3,3,-22c0,0,1,-18,3,-56c0,0,2,-38,2,-52h3c0,0,36,75,94,110c0,0,59,34,156,34c0,0,149,0,223,-100c0,0,74,-100,74,-314c0,0,0,-422,-297,-422c0,0,-187,0,-251,140h-4c0,0,3,-6,3,-126V-316Z" 
id="f0_2c"
transform="scale(0.001,-0.001)" />

<path d="M420,84c0,0,121,0,173,78c0,0,52,77,52,243c0,0,0,167,-50,243c0,0,-50,76,-167,76c0,0,-118,0,-170,-78c0,0,-53,-77,-53,-241c0,0,0,-160,52,-241c0,0,52,-80,163,-80Zm1,-98c0,0,-176,0,-267,107c0,0,-90,108,-90,312c0,0,0,417,362,417c0,0,185,0,272,-102c0,0,88,-101,88,-315c0,0,0,-212,-94,-316C692,89,599,-14,421,-14Z" 
id="f0_2b"
transform="scale(0.001,-0.001)" />

<path d="M278,-11c0,0,-162,0,-162,182V710H23v98h99l39,181h90V808H400V710H251V200c0,0,0,-58,19,-82c0,0,19,-23,66,-23c0,0,27,0,77,10V6c0,0,-66,-17,-135,-17Z" 
id="f0_2g"
transform="scale(0.001,-0.001)" />

<path d="M365,-315c0,0,-136,187,-199,359c0,0,-62,172,-62,359c0,0,0,186,62,358c0,0,63,172,199,360h92c0,0,-110,-192,-160,-365c0,0,-51,-172,-51,-353c0,0,0,-183,51,-355c0,0,50,-172,160,-363Z" 
id="f1_b"
transform="scale(0.001,-0.001)" />

<path d="M104,0V799H238V0Zm-2,946v152H239V946Z" 
id="f1_24"
transform="scale(0.001,-0.001)" />

<path d="M52,-315c0,0,109,192,160,363c0,0,50,173,50,354c0,0,0,183,-50,355c0,0,-51,173,-160,364h92c0,0,135,-188,198,-360c0,0,63,-172,63,-359c0,0,0,-187,-63,-359c0,0,-63,-171,-198,-358Z" 
id="f1_c"
transform="scale(0.001,-0.001)" />

<path d="M412,-328c0,0,-195,96,-303,284C109,-44,0,142,0,365c0,0,0,232,114,422c0,0,114,191,298,273v-31c0,0,-92,-51,-151,-139c0,0,-59,-88,-88,-223c0,0,-29,-136,-29,-282c0,0,0,-167,27,-301c0,0,26,-133,82,-221c0,0,55,-89,159,-159v-32Z" 
id="f2_c"
transform="scale(0.001,-0.001)" />

<path d="M34,-328v32c0,0,92,50,151,138c0,0,59,88,88,222c0,0,29,135,29,283c0,0,0,165,-27,300c0,0,-26,134,-82,222c0,0,-56,89,-159,160v31c0,0,194,-96,303,-284c0,0,108,-187,108,-410c0,0,0,-232,-114,-422c0,0,-114,-191,-297,-272Z" 
id="f2_d"
transform="scale(0.001,-0.001)" />

<path d="M424,-28c0,0,-180,0,-272,86c0,0,-92,87,-100,266H192c0,0,12,-126,66,-180c0,0,55,-54,170,-54c0,0,100,0,163,57c0,0,64,57,64,147c0,0,0,94,-61,149c0,0,-52,48,-135,54c0,0,-38,2,-72,2c0,0,-34,0,-45,-3V613c0,0,17,-3,51,-3c0,0,35,0,68,4c0,0,66,8,106,43c0,0,55,45,55,125c0,0,0,77,-58,125c0,0,-58,48,-148,48c0,0,-96,0,-147,-58c0,0,-51,-59,-56,-175H82c0,0,0,168,89,260c0,0,88,93,250,93c0,0,153,0,247,-77c0,0,94,-76,94,-202c0,0,0,-124,-95,-201c0,0,-18,-15,-39,-27c0,0,39,-17,69,-41c0,0,101,-79,101,-214c0,0,0,-151,-105,-246c0,0,-104,-95,-269,-95Z" 
id="f1_m"
transform="scale(0.001,-0.001)" />

<path d="M39,0V0c0,0,0,170,84,277c0,0,85,108,317,236c0,0,113,62,154,115c0,0,41,52,41,134c0,0,0,86,-62,141c0,0,-61,54,-156,54c0,0,-101,0,-158,-68c0,0,-57,-68,-60,-194H67c0,0,-2,178,95,279c0,0,98,101,273,101c0,0,149,0,245,-89c0,0,94,-88,94,-228c0,0,0,-118,-60,-195c0,0,-61,-76,-229,-169C485,394,303,294,237,212c0,0,-28,-36,-46,-81H774V0Z" 
id="f1_l"
transform="scale(0.001,-0.001)" />

<path d="M406,0V763H155V870h2c16,0,114,2,178,48c0,0,70,51,104,157H549V0Z" 
id="f1_k"
transform="scale(0.001,-0.001)" />

<path d="M511,373V863L169,383l-7,-10ZM511,0V258H38V383l496,691H646V373H799V258H646V0Z" 
id="f1_n"
transform="scale(0.001,-0.001)" />

<path d="M133,0V162H292V0Z" 
id="f1_h"
transform="scale(0.001,-0.001)" />

<path d="M17,0L389,412L201,800H376L500,518L742,800H904L554,410L750,0H580L448,303L187,0Z" 
id="f3_2j"
transform="scale(0.001,-0.001)" />

<path d="M431,94c0,0,95,0,170,76c0,0,76,77,101,198c0,0,35,167,-1,250c0,0,-37,84,-144,84c0,0,-128,0,-210,-117c0,0,-81,-117,-81,-302c0,0,0,-90,43,-139c0,0,44,-50,122,-50ZM400,-20c0,0,-126,0,-199,79c0,0,-73,80,-73,219c0,0,0,234,122,390c0,0,122,155,305,155c0,0,144,0,209,-127l8,-16l86,417H993L767,0H638l22,108L642,90C642,90,532,-20,400,-20Z" 
id="f3_1z"
transform="scale(0.001,-0.001)" />

<path d="M0,356v74H784V356Z" 
id="f2_h"
transform="scale(0.001,-0.001)" />

<path d="M355,0V355H0v72H355V784h72V427H782V355H427V0Z" 
id="f2_f"
transform="scale(0.001,-0.001)" />

<path d="M238,-163c0,0,-39,0,-63,25c0,0,-25,26,-25,65c0,0,0,34,19,54c0,0,19,19,48,19c0,0,30,0,51,-23c0,0,22,-24,37,-24c0,0,12,0,21,11c0,0,8,10,8,35c0,0,0,30,-7,88c0,0,-27,235,-27,620c0,0,13,411,17,446c0,0,17,139,60,188c0,0,43,48,98,48c0,0,37,0,65,-25c0,0,28,-25,28,-54c0,0,0,-35,-19,-57c0,0,-20,-21,-49,-21c0,0,-26,0,-57,27c0,0,-17,15,-30,15c0,0,-12,0,-21,-11c0,0,-8,-11,-8,-37c0,0,0,-31,6,-108c0,0,28,-306,28,-496c0,0,0,-50,-12,-439c0,0,-6,-219,-67,-296c0,0,-41,-50,-101,-50Z" 
id="f2_50"
transform="scale(0.001,-0.001)" />

<path d="M310,0L12,799H168L383,145L604,799H752L454,0Z" 
id="f1_2h"
transform="scale(0.001,-0.001)" />

<path d="M424,92c0,0,114,0,170,107c0,0,57,108,56,323c0,0,1,216,-56,324c0,0,-56,107,-170,107c0,0,-112,0,-168,-107c0,0,-56,-108,-57,-324c0,0,1,-215,57,-323c0,0,56,-107,168,-107Zm0,-120c0,0,-176,0,-271,142c0,0,-96,143,-96,408c0,0,0,265,96,409c0,0,95,144,271,144c0,0,178,0,273,-144c0,0,96,-144,96,-409c0,0,0,-265,-96,-408c0,0,-95,-142,-273,-142Z" 
id="f1_j"
transform="scale(0.001,-0.001)" />

<path d="M748,462c0,0,3,31,3,63c0,0,0,86,-45,132c0,0,-46,45,-134,45c0,0,-100,0,-180,-85c0,0,-58,-63,-90,-155ZM419,-20c0,0,-136,0,-213,73c0,0,-77,74,-78,206c0,0,0,25,4,58c0,0,4,32,10,63c0,0,44,208,169,326c0,0,125,117,305,117c0,0,128,0,198,-73c0,0,71,-73,71,-207c0,0,1,-100,-24,-189H278l-4,-25c0,0,-3,-30,-3,-55c0,0,0,-90,44,-134c0,0,44,-45,133,-45c0,0,87,0,156,44c0,0,68,45,95,117H830C830,256,782,126,674,52c0,0,-108,-72,-255,-72Z" 
id="f3_20"
transform="scale(0.001,-0.001)" />

<path d="M417,-28c0,0,-161,0,-259,79c0,0,-98,81,-109,223H189c0,0,11,-90,72,-139c0,0,61,-49,162,-49c0,0,96,0,158,68c0,0,61,68,61,175c0,0,0,112,-64,178c0,0,-64,66,-173,66c0,0,-59,0,-115,-28c0,0,-55,-29,-84,-73L93,480l77,573H727V922H271L225,629l4,3c0,0,89,60,188,60c0,0,169,0,269,-94c0,0,99,-93,99,-253c0,0,0,-165,-103,-269C682,76,579,-28,417,-28Z" 
id="f1_o"
transform="scale(0.001,-0.001)" />

<path d="M432,92c0,0,96,0,156,66c0,0,61,65,61,169c0,0,0,103,-61,169c0,0,-60,66,-156,66c0,0,-95,0,-156,-66c0,0,-61,-66,-61,-169c0,0,0,-104,61,-169c0,0,61,-66,156,-66ZM425,-28c0,0,-176,0,-271,135c0,0,-95,136,-95,388c0,0,0,278,103,429c0,0,103,151,293,151c0,0,142,0,226,-77c0,0,84,-76,90,-211H638c0,0,-8,80,-56,123c0,0,-47,43,-127,43c0,0,-125,0,-192,-119c0,0,-58,-102,-64,-278c0,0,100,127,255,127c0,0,152,0,245,-98c0,0,93,-98,93,-258c0,0,0,-161,-101,-259c0,0,-101,-96,-266,-96Z" 
id="f1_p"
transform="scale(0.001,-0.001)" />

<path d="M131,0V1097H934V966H280V631H877V500H280V131H942V0Z" 
id="f1_14"
transform="scale(0.001,-0.001)" />

<path d="M335,90c0,0,106,0,179,57c0,0,50,41,67,91c0,0,3,10,4,31c0,0,3,21,3,47v87c0,0,-38,-18,-83,-25L381,360c0,0,-97,-13,-142,-45c0,0,-44,-31,-44,-86c0,0,0,-67,36,-103c0,0,37,-36,104,-36ZM309,-20c0,0,-117,0,-186,61c0,0,-68,63,-68,169c0,0,0,108,64,171c0,0,65,64,189,79l183,23c0,0,22,3,42,8c0,0,26,7,40,27c0,0,15,20,15,51v6c0,0,0,64,-49,101c0,0,-48,36,-135,36c0,0,-83,0,-130,-38c0,0,-46,-39,-56,-115H94c0,0,10,131,92,197c0,0,83,66,238,66c0,0,145,0,222,-63c0,0,76,-63,76,-184V137c0,0,0,-21,12,-33c0,0,12,-12,33,-12c0,0,6,0,18,1c0,0,11,2,25,5V1c0,0,-20,-7,-41,-11c0,0,-22,-5,-37,-5c0,0,-76,0,-110,41c0,0,-22,28,-32,79c0,0,-15,-19,-34,-36c0,0,-101,-89,-247,-89Z" 
id="f1_1w"
transform="scale(0.001,-0.001)" />

<path d="M103,0V1097H237V0Z" 
id="f1_27"
transform="scale(0.001,-0.001)" />

<path d="M375,-20c0,0,-136,0,-203,66c0,0,-68,68,-68,204V799H238V284c0,0,0,-101,38,-146c0,0,39,-44,127,-44c0,0,97,0,153,75c0,0,57,75,57,203V799H747V0H620V122c0,0,-14,-22,-30,-41C590,81,504,-20,375,-20Z" 
id="f1_2g"
transform="scale(0.001,-0.001)" />

<path d="M292,-9c0,0,-88,0,-124,38c0,0,-36,39,-36,134V689H22V799H132v224H266V799H392V689H266V163c0,0,0,-27,21,-43c0,0,21,-15,57,-15h48V1C392,1,324,-9,292,-9Z" 
id="f1_2f"
transform="scale(0.001,-0.001)" />

<path d="M649,461c0,0,-6,111,-55,172c0,0,-55,69,-160,69c0,0,-106,0,-170,-79c0,0,-50,-62,-60,-162ZM425,-20c0,0,-169,0,-266,106c0,0,-97,107,-97,297c0,0,0,201,102,320c0,0,103,119,276,119c0,0,157,0,253,-116c0,0,96,-117,96,-306l-1,-48H204c0,0,8,-119,54,-182c0,0,57,-76,180,-76c0,0,77,0,134,43c0,0,58,43,70,110H775C775,247,746,116,656,47c0,0,-90,-67,-231,-67Z" 
id="f1_20"
transform="scale(0.001,-0.001)" />

<path d="M394,-20c0,0,-159,0,-253,113c0,0,-95,114,-95,307c0,0,0,193,98,308c0,0,98,114,264,114c0,0,144,0,230,-78c0,0,85,-79,91,-217H600c0,0,-8,86,-59,133c0,0,-52,47,-138,47c0,0,-101,0,-159,-82c0,0,-58,-82,-58,-225c0,0,0,-152,54,-229c0,0,53,-77,159,-77c0,0,79,0,132,50c0,0,52,51,69,143H729C729,287,709,137,623,58c0,0,-86,-78,-229,-78Z" 
id="f1_1y"
transform="scale(0.001,-0.001)" />

<path d="M424,94c0,0,107,0,169,83c0,0,63,83,63,223c0,0,0,140,-63,224c0,0,-62,83,-169,83c0,0,-106,0,-168,-83c0,0,-62,-84,-62,-224c0,0,0,-140,62,-223c0,0,62,-83,168,-83Zm0,-114c0,0,-165,0,-268,115C156,95,54,211,54,400c0,0,0,189,102,306c0,0,103,116,268,116c0,0,168,0,270,-116c0,0,102,-117,102,-306c0,0,0,-189,-102,-305C694,95,592,-20,424,-20Z" 
id="f1_2a"
transform="scale(0.001,-0.001)" />

<path d="M393,-20c0,0,-169,0,-252,65c0,0,-83,67,-92,210H178c0,0,10,-85,61,-123c0,0,50,-38,154,-38c0,0,90,0,136,34c0,0,47,35,47,100c0,0,0,42,-31,64c0,0,-30,21,-123,43L283,368c0,0,-112,27,-160,75c0,0,-48,48,-48,135c0,0,0,112,80,178c0,0,81,66,218,66c0,0,140,0,222,-68c0,0,82,-67,88,-187H557c0,0,-6,67,-55,103c0,0,-48,37,-129,37c0,0,-84,0,-127,-29c0,0,-44,-29,-44,-85c0,0,0,-43,31,-65c0,0,30,-21,121,-43L493,452c0,0,117,-28,167,-78c0,0,49,-49,49,-138c0,0,0,-119,-86,-188c0,0,-85,-68,-230,-68Z" 
id="f1_2e"
transform="scale(0.001,-0.001)" />

<path d="M99,0V799H226V681l30,39c0,0,87,102,219,102c0,0,132,0,203,-71c0,0,72,-72,72,-204V0H616V502c0,0,0,105,-41,151c0,0,-40,47,-132,47c0,0,-97,0,-154,-73c0,0,-56,-74,-56,-199V0Z" 
id="f1_29"
transform="scale(0.001,-0.001)" />

<path d="M418,95c0,0,98,0,158,73c0,0,59,73,59,193c0,0,0,170,-54,254c0,0,-54,85,-163,85c0,0,-113,0,-165,-72c0,0,-52,-71,-52,-227c0,0,0,-147,57,-227c0,0,56,-79,160,-79ZM394,-336c0,0,-136,0,-216,62c0,0,-79,63,-96,182H219c0,0,12,-64,57,-98c0,0,45,-35,116,-35c0,0,116,0,176,73c0,0,61,73,61,211V85l-1,-1C628,84,545,-20,412,-20c0,0,-161,0,-256,118c0,0,-94,120,-94,324c0,0,0,179,93,290c0,0,93,110,244,110c0,0,144,0,228,-124l10,-14V799H763V59c0,0,-1,-201,-91,-298c0,0,-91,-97,-278,-97Z" 
id="f1_22"
transform="scale(0.001,-0.001)" />

<path d="M0,368V478H849V368Z" 
id="f1_99"
transform="scale(0.001,-0.001)" />

<path d="M140,-21c0,0,-26,0,-44,17C96,-4,79,13,79,40c0,0,0,19,6,33c0,0,8,20,34,55c0,0,46,60,64,126c0,0,32,114,41,321H190c0,0,-55,0,-81,-18c0,0,-44,-26,-80,-89H0c0,0,42,129,98,178c0,0,43,37,120,37H743V575H562c0,0,-27,-171,-27,-327c0,0,0,-77,27,-110c0,0,27,-33,67,-33c0,0,33,0,56,22c0,0,24,22,31,65h27C743,192,730,74,686,26c0,0,-44,-47,-98,-47c0,0,-58,0,-97,51c0,0,-39,53,-39,198c0,0,0,91,28,347H286c0,0,-23,-390,-56,-494c0,0,-33,-102,-90,-102Z" 
id="f2_2c"
transform="scale(0.001,-0.001)" />

<path d="M338,28c0,0,48,0,91,45c0,0,43,45,65,144c0,0,22,99,26,276H143c0,0,3,-133,20,-239c0,0,13,-80,44,-140c0,0,19,-36,54,-61c0,0,36,-25,77,-25ZM522,543c0,0,-1,194,-37,312c0,0,-29,90,-76,129c0,0,-34,28,-79,28c0,0,-51,0,-93,-39c0,0,-43,-40,-65,-132c0,0,-22,-93,-29,-298ZM329,-21c0,0,-68,0,-124,31c0,0,-56,33,-99,95c0,0,-43,62,-66,131C40,236,0,356,0,489c0,0,0,294,119,453c0,0,91,119,217,119c0,0,122,0,209,-115c0,0,121,-160,121,-436c0,0,0,-263,-119,-415C547,95,455,-21,329,-21Z" 
id="f2_2d"
transform="scale(0.001,-0.001)" />

<path d="M693,499L573,830L462,499ZM-39,0c0,0,33,42,61,97c0,0,30,55,71,148l314,761c0,0,22,51,38,98c0,0,15,47,17,63H721c0,0,2,-16,18,-63c0,0,15,-47,37,-98L1091,245c0,0,41,-95,70,-150c0,0,30,-55,60,-95H849c0,0,3,25,-3,55c0,0,-6,30,-24,80L765,295H393L340,135c0,0,-17,-50,-22,-80c0,0,-5,-30,-2,-55Z" 
id="f4_10"
transform="scale(0.001,-0.001)" />

<path d="M108,0c0,0,22,54,31,110c0,0,10,55,10,135V985L-5,1167H418c0,0,21,-44,54,-99c0,0,34,-55,96,-146L857,495V922c0,0,0,81,-9,136c0,0,-9,55,-32,109h378c0,0,-23,-54,-32,-109c0,0,-9,-55,-9,-136V351c0,0,0,-76,11,-178c0,0,11,-101,27,-173H845c0,0,-7,25,-28,67c0,0,-21,42,-45,78L444,628V245c0,0,0,-80,9,-135c0,0,10,-56,32,-110Z" 
id="f4_1d"
transform="scale(0.001,-0.001)" />

<path d="M367,-20c0,0,-85,0,-142,12C225,-8,167,2,83,35V332c0,0,41,-55,107,-90c0,0,66,-35,130,-35c0,0,51,0,84,31c0,0,32,31,32,81c0,0,0,49,-23,86c0,0,-22,37,-82,83c0,0,-126,98,-184,181c0,0,-57,82,-57,165c0,0,0,155,106,253c0,0,106,98,272,98c0,0,62,0,133,-13c0,0,71,-13,120,-33V867c0,0,-59,49,-104,70c0,0,-46,20,-94,20c0,0,-47,0,-76,-24c0,0,-29,-25,-29,-63c0,0,0,-41,20,-73c0,0,21,-31,75,-73c0,0,130,-101,189,-189c0,0,59,-87,59,-180c0,0,0,-165,-110,-270C651,85,541,-20,367,-20Z" 
id="f4_1i"
transform="scale(0.001,-0.001)" />

<path d="M324,0L78,922c0,0,-23,85,-44,140c0,0,-22,55,-50,105H376c0,0,-7,-56,-7,-99c0,0,1,-42,11,-89L479,513L610,998c0,0,11,42,21,91c0,0,10,49,13,78H861c0,0,4,-36,12,-85c0,0,9,-50,18,-84L1021,492l115,540c0,0,8,33,6,63c0,0,-1,31,-12,72h378c0,0,-30,-50,-52,-105c0,0,-21,-56,-45,-140L1166,0H925L741,597L565,0Z" 
id="f4_1m"
transform="scale(0.001,-0.001)" />

<path d="M102,0c0,0,22,54,31,110c0,0,10,55,10,135V922c0,0,0,81,-10,136c0,0,-9,55,-31,109H823L766,1041L709,913c0,0,-42,20,-137,36c0,0,-62,9,-121,13V697H798L728,569L657,441c0,0,-45,21,-131,36c0,0,-38,8,-75,11V206c0,0,117,6,201,22c0,0,126,24,239,84L827,156L762,0Z" 
id="f4_14"
transform="scale(0.001,-0.001)" />

<path d="M452,645c0,0,85,0,139,47c0,0,54,47,54,121c0,0,0,66,-51,107c0,0,-51,42,-132,42H442V645ZM93,0c0,0,22,54,32,110c0,0,9,55,9,135V922c0,0,0,81,-9,136c0,0,-10,55,-32,109H498c0,0,215,0,332,-90c0,0,117,-90,117,-256c0,0,0,-159,-129,-253c0,0,-46,-34,-103,-54L902,246c0,0,57,-82,107,-137c0,0,50,-55,115,-109H803c0,0,-30,0,-104,83c0,0,-73,83,-149,202L442,461V246c0,0,0,-81,9,-136c0,0,10,-56,32,-110Z" 
id="f4_1h"
transform="scale(0.001,-0.001)" />

<path d="M398,-20c0,0,-133,0,-209,72c0,0,-76,74,-76,202v3c0,0,0,27,4,60c0,0,4,33,10,63c0,0,43,208,168,326c0,0,126,117,306,117c0,0,131,0,192,-75c0,0,49,-61,50,-168l-3,-52H710c0,0,4,87,-33,131c0,0,-37,45,-113,45c0,0,-110,0,-184,-81c0,0,-75,-82,-107,-238c0,0,-6,-28,-9,-56c0,0,-3,-28,-3,-50c0,0,0,-88,43,-136c0,0,43,-48,121,-48c0,0,76,0,137,49c0,0,61,48,92,136H788C788,280,737,138,633,58c0,0,-103,-78,-235,-78Z" 
id="f3_1y"
transform="scale(0.001,-0.001)" />

<path d="M390,-1V329H60V441H390V771H503V441H833V329H503V-1Z" 
id="f1_e"
transform="scale(0.001,-0.001)" />

<path d="M419,483c0,0,93,0,152,66c0,0,59,66,59,169c0,0,0,103,-59,169c0,0,-59,65,-152,65c0,0,-94,0,-153,-65c0,0,-59,-66,-59,-169c0,0,0,-103,59,-169c0,0,59,-66,153,-66ZM397,-28c0,0,-143,0,-227,75c0,0,-85,77,-91,211H209c0,0,8,-83,57,-128c0,0,49,-45,131,-45c0,0,121,0,186,135c0,0,48,101,62,265C645,485,545,362,397,362c0,0,-150,0,-241,98c0,0,-91,98,-91,258c0,0,0,160,99,258c0,0,99,98,262,98c0,0,173,0,266,-123c0,0,94,-123,94,-349c0,0,0,-303,-101,-467C685,135,583,-28,397,-28Z" 
id="f1_s"
transform="scale(0.001,-0.001)" />

<path d="M424,92c0,0,98,0,161,58c0,0,62,58,62,149c0,0,0,92,-62,151c0,0,-63,58,-161,58c0,0,-98,0,-160,-58c0,0,-63,-59,-63,-151c0,0,0,-91,63,-149c0,0,62,-58,160,-58Zm0,533c0,0,82,0,134,46c0,0,52,45,52,118c0,0,0,72,-52,118c0,0,-52,46,-134,46c0,0,-82,0,-134,-46c0,0,-52,-46,-52,-118c0,0,0,-73,52,-119c0,0,52,-45,134,-45Zm0,-653c0,0,-165,0,-265,90C159,62,59,154,59,305c0,0,0,134,100,216c0,0,35,28,78,47c0,0,-27,15,-52,33c0,0,-90,70,-90,185c0,0,0,130,90,209c0,0,91,80,239,80c0,0,148,0,238,-80c0,0,91,-79,91,-209c0,0,0,-115,-91,-185c0,0,-24,-19,-52,-32c0,0,44,-20,79,-49c0,0,101,-81,101,-215c0,0,0,-151,-101,-243c0,0,-100,-90,-265,-90Z" 
id="f1_r"
transform="scale(0.001,-0.001)" />

<path d="M144,-381V1146H255V-381Z" 
id="f1_2n"
transform="scale(0.001,-0.001)" />

<path d="M435,0V856c0,0,-48,-47,-127,-93c0,0,-79,-46,-142,-69V824c0,0,113,52,197,128c0,0,85,75,120,146h86V0Z" 
id="f5_l"
transform="scale(0.001,-0.001)" />

<path d="M420,92c0,0,92,0,155,89c0,0,64,89,64,358c0,0,0,270,-63,359c0,0,-63,89,-158,89c0,0,-92,0,-147,-79c0,0,-70,-100,-70,-369c0,0,0,-269,63,-358c0,0,63,-89,156,-89Zm0,-110c0,0,-158,0,-248,112C172,94,64,231,64,539c0,0,0,194,39,313c0,0,40,118,119,182c0,0,79,64,198,64c0,0,88,0,155,-35c0,0,66,-36,109,-103c0,0,43,-66,68,-162c0,0,24,-96,24,-259c0,0,0,-192,-39,-311C737,228,697,110,619,46c0,0,-79,-64,-199,-64Z" 
id="f5_k"
transform="scale(0.001,-0.001)" />

<path d="M125,0V1051H268V115H799V0Z" 
id="f0_1c"
transform="scale(0.001,-0.001)" />

<path d="M106,0V620c0,0,0,85,-5,188H228c0,0,6,-138,6,-165h3c0,0,32,103,74,141c0,0,42,38,118,38c0,0,27,0,54,-7V692c0,0,-26,7,-71,7c0,0,-84,0,-128,-72c0,0,-44,-72,-44,-206V0Z" 
id="f0_2e"
transform="scale(0.001,-0.001)" />

<path d="M606,-14c0,0,-164,0,-284,65c0,0,-119,66,-182,189c0,0,-63,123,-63,291c0,0,0,255,137,396c0,0,137,140,386,140c0,0,174,0,283,-59c0,0,109,-59,168,-189L915,779c0,0,-44,90,-123,131c0,0,-79,41,-196,41c0,0,-182,0,-278,-110c0,0,-96,-110,-96,-310c0,0,0,-200,102,-315c0,0,102,-115,282,-115c0,0,103,0,193,31c0,0,89,31,144,85V407H629V526h445V164c0,0,-83,-85,-205,-132c0,0,-121,-46,-263,-46Z" 
id="f0_17"
transform="scale(0.001,-0.001)" />

<path d="M355,-14c0,0,-133,0,-194,65c0,0,-62,66,-62,219V808H234V296c0,0,0,-80,16,-124c0,0,16,-44,50,-64c0,0,34,-19,101,-19c0,0,97,0,153,66c0,0,55,67,55,185V808H744V172c0,0,0,-141,4,-172H621c0,0,0,4,-1,20c0,0,-1,17,-2,38c0,0,-1,21,-3,80h-2C613,138,567,55,506,20c0,0,-61,-34,-151,-34Z" 
id="f0_2h"
transform="scale(0.001,-0.001)" />

<path d="M395,89c0,0,115,0,166,79c0,0,51,79,51,246c0,0,0,160,-51,235c0,0,-51,75,-164,75c0,0,-102,0,-147,-75c0,0,-45,-75,-45,-244c0,0,0,-170,45,-243c0,0,45,-73,145,-73ZM361,-14c0,0,-153,0,-225,102c0,0,-72,103,-72,312c0,0,0,422,297,422c0,0,92,0,153,-33c0,0,61,-34,98,-107h2l-2,90v335H747V166c0,0,0,-126,4,-166H623c0,0,-2,12,-5,55c0,0,-3,44,-3,75h-3c0,0,-37,-78,-98,-111c0,0,-62,-33,-153,-33Z" 
id="f0_20"
transform="scale(0.001,-0.001)" />

<path d="M140,0V163H285V0Z" 
id="f0_i"
transform="scale(0.001,-0.001)" />


</defs>
</svg>