<?xml version="1.0" encoding="UTF-8" standalone="no"?>
<!DOCTYPE svg PUBLIC "-//W3C//DTD SVG 1.1//EN"
"http://www.w3.org/Graphics/SVG/1.1/DTD/svg11.dtd">
<svg viewBox="0 0 677 1056" version="1.1" xmlns="http://www.w3.org/2000/svg" xmlns:xlink="http://www.w3.org/1999/xlink">
<defs>
<style type="text/css"><![CDATA[
.g0_39{
fill: none;
stroke: #000000;
stroke-width: 0.15277778;
stroke-linecap: round;
stroke-linejoin: miter;
}
.g1_39{
}
.g2_39{
fill: none;
stroke: #000000;
stroke-width: 0.37986666;
stroke-linecap: round;
stroke-linejoin: miter;
}
.g3_39{
fill: none;
stroke: #000000;
stroke-width: 1.0503472;
stroke-linecap: round;
stroke-linejoin: miter;
}
.g4_39{
fill: none;
stroke: #000000;
stroke-width: 1.0516915;
stroke-linecap: round;
stroke-linejoin: miter;
}
.g5_39{
fill: none;
stroke: #000000;
stroke-width: 0.76511115;
stroke-linecap: round;
stroke-linejoin: miter;
}
]]></style>
</defs>
<g fill="#D4D4D4" fill-opacity="0.56" >
<use xlink:href="#f0_1f" transform="matrix(50.9,-50.9,50.9,50.9,65.9,924.1)" />
<use xlink:href="#f0_2a" transform="matrix(50.9,-50.9,50.9,50.9,126.4,863.6)" />
<use xlink:href="#f0_28" transform="matrix(50.9,-50.9,50.9,50.9,169.6,820.3)" />
<use xlink:href="#f0_25" transform="matrix(50.9,-50.9,50.9,50.9,186.9,803.1)" />
<use xlink:href="#f0_2a" transform="matrix(50.9,-50.9,50.9,50.9,204.2,785.8)" />
<use xlink:href="#f0_21" transform="matrix(50.9,-50.9,50.9,50.9,247.4,742.5)" />
<use xlink:href="#f0_2k" transform="matrix(50.9,-50.9,50.9,50.9,290.7,699.3)" />
<use xlink:href="#f0_1x" transform="matrix(50.9,-50.9,50.9,50.9,329.6,660.4)" />
<use xlink:href="#f0_29" transform="matrix(50.9,-50.9,50.9,50.9,372.8,617.2)" />
<use xlink:href="#f0_2c" transform="matrix(50.9,-50.9,50.9,50.9,437.6,552.4)" />
<use xlink:href="#f0_2b" transform="matrix(50.9,-50.9,50.9,50.9,480.8,509.1)" />
<use xlink:href="#f0_25" transform="matrix(50.9,-50.9,50.9,50.9,524.1,465.9)" />
<use xlink:href="#f0_2a" transform="matrix(50.9,-50.9,50.9,50.9,541.3,448.6)" />
<use xlink:href="#f0_2g" transform="matrix(50.9,-50.9,50.9,50.9,584.6,405.4)" />
</g>
<g fill="#000000" >
<use xlink:href="#f1_b" transform="matrix(10.4,0,0,10.4,96.2,83.4)" />
<use xlink:href="#f1_24" transform="matrix(10.4,0,0,10.4,101.5,83.4)" />
<use xlink:href="#f1_2h" transform="matrix(10.4,0,0,10.4,105.1,83.4)" />
<use xlink:href="#f1_c" transform="matrix(10.4,0,0,10.4,113,83.4)" />
</g>
<path d="M179.6,80.7l1.6,-1l3.9,6.4l4.2,-16.8h11.5" class="g0_39" />
<path fill-rule="evenodd" d="M179.5,80.5l2.1,-1.2l3.5,5.3l4,-15.7h11.7v.8H189.6l-4.1,16.4h-.8l-3.9,-5.9l-1.1,.7l-.2,-.4Z" class="g1_39" />
<path d="M272.4,80.7l1.6,-1l3.9,6.4l4.2,-16.8h11.6" class="g0_39" />
<path fill-rule="evenodd" d="M272.3,80.5l2.1,-1.2l3.5,5.3l4,-15.7h11.8v.8H282.4l-4.1,16.4h-.7l-4,-5.9l-1.1,.7l-.2,-.4Z" class="g1_39" />
<g fill="#000000" >
<use xlink:href="#f1_k" transform="matrix(7,0,0,7,171.1,77.7)" />
<use xlink:href="#f1_k" transform="matrix(7,0,0,7,265.7,77.7)" />
<use xlink:href="#f1_2e" transform="matrix(10.5,0,0,10.5,139.4,84.9)" />
<use xlink:href="#f1_20" transform="matrix(10.5,0,0,10.5,147.5,84.9)" />
<use xlink:href="#f1_1y" transform="matrix(10.5,0,0,10.5,156.4,84.9)" />
<use xlink:href="#f1_1y" transform="matrix(10.5,0,0,10.5,216.9,84.9)" />
<use xlink:href="#f1_2a" transform="matrix(10.5,0,0,10.5,224.9,84.9)" />
<use xlink:href="#f1_2e" transform="matrix(10.5,0,0,10.5,233.8,84.9)" />
<use xlink:href="#f1_20" transform="matrix(10.5,0,0,10.5,241.9,84.9)" />
<use xlink:href="#f1_1y" transform="matrix(10.5,0,0,10.5,250.8,84.9)" />
<use xlink:href="#f1_f" transform="matrix(10.5,0,0,10.5,293.5,84.9)" />
<use xlink:href="#f1_k" transform="matrix(10.5,0,0,10.5,327.6,84.9)" />
<use xlink:href="#f1_h" transform="matrix(10.5,0,0,10.5,336.6,84.9)" />
<use xlink:href="#f2_2j" transform="matrix(10.5,0,0,10.5,190.1,84.9)" />
<use xlink:href="#f2_2j" transform="matrix(10.5,0,0,10.5,283.1,84.9)" />
<use xlink:href="#f2_2j" transform="matrix(10.5,0,0,10.5,301.8,84.9)" />
<use xlink:href="#f3_h" transform="matrix(7,0,0,7,165.3,77.7)" />
<use xlink:href="#f3_h" transform="matrix(7,0,0,7,259.8,77.7)" />
<use xlink:href="#f3_f" transform="matrix(10.5,0,0,10.5,204.7,84.9)" />
<use xlink:href="#f3_39" transform="matrix(10.5,0,0,10.5,316,84.9)" />
<use xlink:href="#f1_b" transform="matrix(10.4,0,0,10.4,99.9,130.9)" />
<use xlink:href="#f1_2h" transform="matrix(10.4,0,0,10.4,105.2,130.9)" />
<use xlink:href="#f1_c" transform="matrix(10.4,0,0,10.4,113.4,130.9)" />
</g>
<path d="M198.9,119.2L195.5,130" class="g2_39" />
<g fill="#000000" >
<use xlink:href="#f3_c" transform="matrix(10.6,0,0,14,173.4,132.3)" />
<use xlink:href="#f3_d" transform="matrix(10.6,0,0,14,207.6,132.2)" />
<use xlink:href="#f1_k" transform="matrix(7.2,0,0,7.1,165.9,127.7)" />
<use xlink:href="#f1_q" transform="matrix(7.2,0,0,7.1,189.7,127.7)" />
<use xlink:href="#f1_l" transform="matrix(7.2,0,0,7.1,199.5,127.7)" />
<use xlink:href="#f1_2e" transform="matrix(10.7,0,0,10.7,139.4,135)" />
<use xlink:href="#f1_24" transform="matrix(10.7,0,0,10.7,147.5,135)" />
<use xlink:href="#f1_29" transform="matrix(10.7,0,0,10.7,151.1,135)" />
<use xlink:href="#f2_2j" transform="matrix(10.7,0,0,10.7,179.4,135)" />
<use xlink:href="#f3_h" transform="matrix(7.1,0,0,7.1,160.1,127.7)" />
<use xlink:href="#f1_b" transform="matrix(10.4,0,0,10.4,426.2,130.9)" />
<use xlink:href="#f1_2h" transform="matrix(10.4,0,0,10.4,431.5,130.9)" />
<use xlink:href="#f1_24" transform="matrix(10.4,0,0,10.4,439.8,130.9)" />
<use xlink:href="#f1_c" transform="matrix(10.4,0,0,10.4,443.3,130.9)" />
<use xlink:href="#f1_27" transform="matrix(10.4,0,0,10.4,466.2,130.9)" />
<use xlink:href="#f1_2a" transform="matrix(10.4,0,0,10.4,469.7,130.9)" />
<use xlink:href="#f1_22" transform="matrix(10.4,0,0,10.4,478.6,130.9)" />
<use xlink:href="#f2_2j" transform="matrix(7.4,0,0,7.4,487.3,136.2)" />
<use xlink:href="#f1_o" transform="matrix(10.4,0,0,10.4,497.7,130.9)" />
<use xlink:href="#f1_f" transform="matrix(10.4,0,0,10.4,506.6,130.9)" />
<use xlink:href="#f2_2j" transform="matrix(10.4,0,0,10.4,517.9,130.9)" />
<use xlink:href="#f1_x" transform="matrix(10.4,0,0,10.4,532.9,130.9)" />
<use xlink:href="#f1_j" transform="matrix(10.4,0,0,10.4,549.2,130.9)" />
<use xlink:href="#f1_h" transform="matrix(10.4,0,0,10.4,558.1,130.9)" />
<use xlink:href="#f4_1i" transform="matrix(12,0,0,12,87.6,185.9)" />
<use xlink:href="#f4_17" transform="matrix(12,0,0,12,97.4,185.9)" />
<use xlink:href="#f4_1e" transform="matrix(12,0,0,12,112.3,185.9)" />
<use xlink:href="#f4_1h" transform="matrix(12,0,0,12,128.8,185.9)" />
<use xlink:href="#f4_1j" transform="matrix(12,0,0,12,141.7,185.9)" />
<use xlink:href="#f4_10" transform="matrix(12,0,0,12,163.5,185.9)" />
<use xlink:href="#f4_1d" transform="matrix(12,0,0,12,177.6,185.9)" />
<use xlink:href="#f4_1i" transform="matrix(12,0,0,12,193.2,185.9)" />
<use xlink:href="#f4_1m" transform="matrix(12,0,0,12,203,185.9)" />
<use xlink:href="#f4_14" transform="matrix(12,0,0,12,220.9,185.9)" />
<use xlink:href="#f4_1h" transform="matrix(12,0,0,12,232.1,185.9)" />
<use xlink:href="#f4_1j" transform="matrix(12,0,0,12,255.2,185.9)" />
<use xlink:href="#f4_1o" transform="matrix(12,0,0,12,266.7,185.9)" />
<use xlink:href="#f4_1f" transform="matrix(12,0,0,12,278.8,185.9)" />
<use xlink:href="#f4_14" transform="matrix(12,0,0,12,290.7,185.9)" />
<use xlink:href="#f4_1g" transform="matrix(12,0,0,12,311.9,185.9)" />
<use xlink:href="#f4_1k" transform="matrix(12,0,0,12,328.5,185.9)" />
<use xlink:href="#f4_14" transform="matrix(12,0,0,12,343.4,185.9)" />
<use xlink:href="#f4_1i" transform="matrix(12,0,0,12,354.5,185.9)" />
<use xlink:href="#f4_1j" transform="matrix(12,0,0,12,364.3,185.9)" />
<use xlink:href="#f4_18" transform="matrix(12,0,0,12,375.8,185.9)" />
<use xlink:href="#f4_1e" transform="matrix(12,0,0,12,382.9,185.9)" />
<use xlink:href="#f4_1d" transform="matrix(12,0,0,12,399.5,185.9)" />
<use xlink:href="#f4_1i" transform="matrix(12,0,0,12,415,185.9)" />
<use xlink:href="#f4_b" transform="matrix(12,0,0,12,435.1,185.9)" />
<use xlink:href="#f4_n" transform="matrix(12,0,0,12,444.2,185.9)" />
<use xlink:href="#f4_1c" transform="matrix(12,0,0,12,466.7,185.9)" />
<use xlink:href="#f4_10" transform="matrix(12,0,0,12,484.6,185.9)" />
<use xlink:href="#f4_1h" transform="matrix(12,0,0,12,498.8,185.9)" />
<use xlink:href="#f4_1a" transform="matrix(12,0,0,12,511.6,185.9)" />
<use xlink:href="#f4_1i" transform="matrix(12,0,0,12,525.1,185.9)" />
<use xlink:href="#f4_c" transform="matrix(12,0,0,12,534.9,185.9)" />
<use xlink:href="#f1_k" transform="matrix(10.4,0,0,10.4,41.2,225.1)" />
<use xlink:href="#f1_k" transform="matrix(10.4,0,0,10.4,50.1,225.1)" />
<use xlink:href="#f1_h" transform="matrix(10.4,0,0,10.4,59.2,225.1)" />
<use xlink:href="#f1_13" transform="matrix(10.4,0,0,10.4,81.9,225.1)" />
<use xlink:href="#f1_24" transform="matrix(10.4,0,0,10.4,93.4,225.1)" />
<use xlink:href="#f1_2e" transform="matrix(10.4,0,0,10.4,97,225.1)" />
<use xlink:href="#f1_1y" transform="matrix(10.4,0,0,10.4,104.9,225.1)" />
<use xlink:href="#f1_2g" transform="matrix(10.4,0,0,10.4,112.9,225.1)" />
<use xlink:href="#f1_2e" transform="matrix(10.4,0,0,10.4,121.8,225.1)" />
<use xlink:href="#f1_2e" transform="matrix(10.4,0,0,10.4,129.8,225.1)" />
<use xlink:href="#f1_2f" transform="matrix(10.4,0,0,10.4,145.1,225.1)" />
<use xlink:href="#f1_23" transform="matrix(10.4,0,0,10.4,149.5,225.1)" />
<use xlink:href="#f1_20" transform="matrix(10.4,0,0,10.4,158.4,225.1)" />
<use xlink:href="#f1_1y" transform="matrix(10.4,0,0,10.4,174.8,225.1)" />
<use xlink:href="#f1_2a" transform="matrix(10.4,0,0,10.4,182.7,225.1)" />
<use xlink:href="#f1_29" transform="matrix(10.4,0,0,10.4,191.6,225.1)" />
<use xlink:href="#f1_2f" transform="matrix(10.4,0,0,10.4,200.5,225.1)" />
<use xlink:href="#f1_24" transform="matrix(10.4,0,0,10.4,204.9,225.1)" />
<use xlink:href="#f1_29" transform="matrix(10.4,0,0,10.4,208.4,225.1)" />
<use xlink:href="#f1_2g" transform="matrix(10.4,0,0,10.4,217.3,225.1)" />
<use xlink:href="#f1_24" transform="matrix(10.4,0,0,10.4,226.2,225.1)" />
<use xlink:href="#f1_2f" transform="matrix(10.4,0,0,10.4,229.7,225.1)" />
<use xlink:href="#f1_2k" transform="matrix(10.4,0,0,10.4,234.2,225.1)" />
<use xlink:href="#f1_2a" transform="matrix(10.4,0,0,10.4,249.5,225.1)" />
<use xlink:href="#f1_21" transform="matrix(10.4,0,0,10.4,258.3,225.1)" />
<use xlink:href="#f1_21" transform="matrix(10.4,0,0,10.4,270.1,225.1)" />
<use xlink:href="#f1_2a" transform="matrix(10.4,0,0,10.4,274.5,225.1)" />
<use xlink:href="#f1_27" transform="matrix(10.4,0,0,10.4,283.4,225.1)" />
<use xlink:href="#f1_27" transform="matrix(10.4,0,0,10.4,286.9,225.1)" />
<use xlink:href="#f1_2a" transform="matrix(10.4,0,0,10.4,290.5,225.1)" />
<use xlink:href="#f1_2i" transform="matrix(10.4,0,0,10.4,299.4,225.1)" />
<use xlink:href="#f1_24" transform="matrix(10.4,0,0,10.4,310.9,225.1)" />
<use xlink:href="#f1_29" transform="matrix(10.4,0,0,10.4,314.4,225.1)" />
<use xlink:href="#f1_22" transform="matrix(10.4,0,0,10.4,323.3,225.1)" />
<use xlink:href="#f1_21" transform="matrix(10.4,0,0,10.4,339.7,225.1)" />
<use xlink:href="#f1_2g" transform="matrix(10.4,0,0,10.4,344.1,225.1)" />
<use xlink:href="#f1_29" transform="matrix(10.4,0,0,10.4,353,225.1)" />
<use xlink:href="#f1_1y" transform="matrix(10.4,0,0,10.4,361.8,225.1)" />
<use xlink:href="#f1_2f" transform="matrix(10.4,0,0,10.4,369.8,225.1)" />
<use xlink:href="#f1_24" transform="matrix(10.4,0,0,10.4,374.2,225.1)" />
<use xlink:href="#f1_2a" transform="matrix(10.4,0,0,10.4,377.8,225.1)" />
<use xlink:href="#f1_29" transform="matrix(10.4,0,0,10.4,386.7,225.1)" />
<use xlink:href="#f1_2e" transform="matrix(10.4,0,0,10.4,395.5,225.1)" />
<use xlink:href="#f1_1w" transform="matrix(10.4,0,0,10.4,410.8,225.1)" />
<use xlink:href="#f1_2f" transform="matrix(10.4,0,0,10.4,419.7,225.1)" />
<use xlink:href="#f1_2f" transform="matrix(10.4,0,0,10.4,431.5,225.1)" />
<use xlink:href="#f1_23" transform="matrix(10.4,0,0,10.4,435.9,225.1)" />
<use xlink:href="#f1_20" transform="matrix(10.4,0,0,10.4,444.8,225.1)" />
<use xlink:href="#f1_24" transform="matrix(10.4,0,0,10.4,461.2,225.1)" />
<use xlink:href="#f1_29" transform="matrix(10.4,0,0,10.4,464.7,225.1)" />
<use xlink:href="#f1_1z" transform="matrix(10.4,0,0,10.4,473.6,225.1)" />
<use xlink:href="#f1_24" transform="matrix(10.4,0,0,10.4,482.4,225.1)" />
<use xlink:href="#f1_1y" transform="matrix(10.4,0,0,10.4,486,225.1)" />
<use xlink:href="#f1_1w" transform="matrix(10.4,0,0,10.4,493.9,225.1)" />
<use xlink:href="#f1_2f" transform="matrix(10.4,0,0,10.4,502.8,225.1)" />
<use xlink:href="#f1_20" transform="matrix(10.4,0,0,10.4,507.2,225.1)" />
<use xlink:href="#f1_1z" transform="matrix(10.4,0,0,10.4,516.1,225.1)" />
<use xlink:href="#f1_2b" transform="matrix(10.4,0,0,10.4,532.3,225.1)" />
<use xlink:href="#f1_2a" transform="matrix(10.4,0,0,10.4,541.2,225.1)" />
<use xlink:href="#f1_24" transform="matrix(10.4,0,0,10.4,550.1,225.1)" />
<use xlink:href="#f1_29" transform="matrix(10.4,0,0,10.4,553.6,225.1)" />
<use xlink:href="#f1_2f" transform="matrix(10.4,0,0,10.4,562.5,225.1)" />
<use xlink:href="#f1_2e" transform="matrix(10.4,0,0,10.4,566.9,225.1)" />
<use xlink:href="#f1_h" transform="matrix(10.4,0,0,10.4,574.9,225.1)" />
<use xlink:href="#f1_b" transform="matrix(10.4,0,0,10.4,104.5,292.4)" />
<use xlink:href="#f1_24" transform="matrix(10.4,0,0,10.4,109.8,292.4)" />
<use xlink:href="#f1_c" transform="matrix(10.4,0,0,10.4,113.3,292.4)" />
<use xlink:href="#f3_c" transform="matrix(10.5,0,0,11.9,149.6,290.9)" />
<use xlink:href="#f3_d" transform="matrix(10.5,0,0,11.9,168.1,290.9)" />
</g>
<path d="M242.6,258v15.7M258.1,258v15.7m-49.8,4.7h51.9" class="g3_39" />
<g fill="#000000" >
<use xlink:href="#f1_f" transform="matrix(10.5,0,0,10.6,263.9,282.6)" />
<use xlink:href="#f1_j" transform="matrix(10.5,0,0,10.6,318.4,282.6)" />
<use xlink:href="#f1_1w" transform="matrix(10.5,0,0,10.6,343.4,292.9)" />
<use xlink:href="#f1_2f" transform="matrix(10.5,0,0,10.6,352.4,292.9)" />
<use xlink:href="#f1_j" transform="matrix(10.5,0,0,10.6,400.4,292.9)" />
<use xlink:href="#f1_h" transform="matrix(10.5,0,0,10.6,409.4,292.9)" />
<use xlink:href="#f1_l" transform="matrix(10.5,0,0,10.6,231.8,315.7)" />
<use xlink:href="#f1_f" transform="matrix(10.5,0,0,10.6,239.9,315.7)" />
<use xlink:href="#f1_j" transform="matrix(10.5,0,0,10.6,318.4,315.7)" />
<use xlink:href="#f3_4u" transform="matrix(10.5,0,0,10.6,198.5,271.4)" />
<use xlink:href="#f3_h" transform="matrix(10.5,0,0,10.6,226,272.2)" />
<use xlink:href="#f3_3f" transform="matrix(10.5,0,0,10.6,301.2,282.6)" />
<use xlink:href="#f3_4x" transform="matrix(10.5,0,0,10.6,198.5,283.4)" />
<use xlink:href="#f3_x" transform="matrix(10.5,0,0,10.6,181.1,292.9)" />
<use xlink:href="#f3_x" transform="matrix(10.5,0,0,10.6,383.3,292.9)" />
<use xlink:href="#f3_4v" transform="matrix(10.5,0,0,10.6,198.5,295.4)" />
<use xlink:href="#f3_4x" transform="matrix(10.5,0,0,10.6,198.5,311)" />
<use xlink:href="#f3_x" transform="matrix(10.5,0,0,10.6,301.2,315.7)" />
<use xlink:href="#f3_4w" transform="matrix(10.5,0,0,10.6,198.5,319.5)" />
<use xlink:href="#f2_2j" transform="matrix(10.5,0,0,10.6,209.5,272.2)" />
<use xlink:href="#f2_2j" transform="matrix(10.5,0,0,10.6,245.6,272.2)" />
<use xlink:href="#f2_2j" transform="matrix(10.5,0,0,10.6,283,282.6)" />
<use xlink:href="#f2_21" transform="matrix(10.5,0,0,10.6,138.3,292.9)" />
<use xlink:href="#f2_2j" transform="matrix(10.5,0,0,10.6,156.4,292.9)" />
<use xlink:href="#f2_2j" transform="matrix(10.5,0,0,10.6,365.1,292.9)" />
<use xlink:href="#f2_2j" transform="matrix(10.5,0,0,10.6,229.5,295.1)" />
<use xlink:href="#f2_2j" transform="matrix(10.5,0,0,10.6,283,315.7)" />
<use xlink:href="#f1_b" transform="matrix(10.4,0,0,10.4,100.8,388.6)" />
<use xlink:href="#f1_24" transform="matrix(10.4,0,0,10.4,106.1,388.6)" />
<use xlink:href="#f1_24" transform="matrix(10.4,0,0,10.4,109.6,388.6)" />
<use xlink:href="#f1_c" transform="matrix(10.4,0,0,10.4,113.2,388.6)" />
<use xlink:href="#f3_c" transform="matrix(10.5,0,0,11.9,153.7,386.3)" />
<use xlink:href="#f3_d" transform="matrix(10.5,0,0,11.9,172.3,386.3)" />
</g>
<path d="M212.9,363.2h45.4m-24.6,43.7h10.8" class="g4_39" />
<g fill="#000000" >
<use xlink:href="#f1_2e" transform="matrix(10.5,0,0,10.6,214,357)" />
<use xlink:href="#f1_24" transform="matrix(10.5,0,0,10.6,222,357)" />
<use xlink:href="#f1_29" transform="matrix(10.5,0,0,10.6,225.6,357)" />
<use xlink:href="#f1_l" transform="matrix(10.5,0,0,10.6,238.3,357)" />
<use xlink:href="#f1_f" transform="matrix(10.5,0,0,10.6,262.2,367.4)" />
<use xlink:href="#f1_j" transform="matrix(10.5,0,0,10.6,317,367.4)" />
<use xlink:href="#f1_m" transform="matrix(10.5,0,0,10.6,226,379.9)" />
<use xlink:href="#f1_1w" transform="matrix(10.5,0,0,10.6,342,388.2)" />
<use xlink:href="#f1_2f" transform="matrix(10.5,0,0,10.6,350.9,388.2)" />
<use xlink:href="#f1_j" transform="matrix(10.5,0,0,10.6,399.2,388.2)" />
<use xlink:href="#f1_h" transform="matrix(10.5,0,0,10.6,408.2,388.2)" />
<use xlink:href="#f1_m" transform="matrix(10.5,0,0,10.6,234.7,400.7)" />
<use xlink:href="#f1_j" transform="matrix(10.5,0,0,10.6,317,411.2)" />
<use xlink:href="#f1_l" transform="matrix(10.5,0,0,10.6,234.8,423.6)" />
<use xlink:href="#f2_2j" transform="matrix(10.5,0,0,10.6,247.3,357)" />
<use xlink:href="#f2_2j" transform="matrix(10.5,0,0,10.6,281.1,367.4)" />
<use xlink:href="#f2_2j" transform="matrix(10.5,0,0,10.6,235.3,379.9)" />
<use xlink:href="#f2_22" transform="matrix(10.5,0,0,10.6,139.5,388.2)" />
<use xlink:href="#f2_2j" transform="matrix(10.5,0,0,10.6,160.6,388.2)" />
<use xlink:href="#f2_2j" transform="matrix(10.5,0,0,10.6,363.4,388.2)" />
<use xlink:href="#f2_2j" transform="matrix(10.5,0,0,10.6,281.1,411.2)" />
<use xlink:href="#f3_4u" transform="matrix(10.5,0,0,10.6,203.2,357.7)" />
<use xlink:href="#f3_3f" transform="matrix(10.5,0,0,10.6,299.5,367.4)" />
<use xlink:href="#f3_4x" transform="matrix(10.5,0,0,10.6,203.2,373.5)" />
<use xlink:href="#f3_4x" transform="matrix(10.5,0,0,10.6,203.2,378.7)" />
<use xlink:href="#f3_x" transform="matrix(10.5,0,0,10.6,185.5,388.2)" />
<use xlink:href="#f3_x" transform="matrix(10.5,0,0,10.6,381.9,388.2)" />
<use xlink:href="#f3_4v" transform="matrix(10.5,0,0,10.6,203.2,390.9)" />
<use xlink:href="#f3_4x" transform="matrix(10.5,0,0,10.6,203.2,406.5)" />
<use xlink:href="#f3_x" transform="matrix(10.5,0,0,10.6,299.5,411.2)" />
<use xlink:href="#f3_4x" transform="matrix(10.5,0,0,10.6,203.2,421.5)" />
<use xlink:href="#f3_4w" transform="matrix(10.5,0,0,10.6,203.2,423.9)" />
<use xlink:href="#f1_b" transform="matrix(10.4,0,0,10.4,97.3,469.8)" />
<use xlink:href="#f1_24" transform="matrix(10.4,0,0,10.4,102.6,469.8)" />
<use xlink:href="#f1_24" transform="matrix(10.4,0,0,10.4,106.2,469.8)" />
<use xlink:href="#f1_24" transform="matrix(10.4,0,0,10.4,109.7,469.8)" />
<use xlink:href="#f1_c" transform="matrix(10.4,0,0,10.4,113.2,469.8)" />
<use xlink:href="#f3_c" transform="matrix(10.5,0,0,12,149.6,467.9)" />
<use xlink:href="#f3_d" transform="matrix(10.5,0,0,12,168.2,467.9)" />
</g>
<path d="M276.9,447.1l-5.1,16.1" class="g3_39" />
<g fill="#000000" >
<use xlink:href="#f3_c" transform="matrix(10.6,0,0,14.6,260,460.6)" />
<use xlink:href="#f3_d" transform="matrix(10.6,0,0,14.6,290.2,460.5)" />
<use xlink:href="#f1_l" transform="matrix(7.4,0,0,7.4,218.9,452.5)" />
<use xlink:href="#f1_1y" transform="matrix(10.7,0,0,10.6,230.9,459.7)" />
<use xlink:href="#f1_2a" transform="matrix(10.7,0,0,10.6,239,459.7)" />
<use xlink:href="#f1_2e" transform="matrix(10.7,0,0,10.6,248.1,459.7)" />
<use xlink:href="#f1_k" transform="matrix(10.7,0,0,10.6,265.5,459.7)" />
<use xlink:href="#f1_j" transform="matrix(10.7,0,0,10.6,346.2,459.7)" />
<use xlink:href="#f1_1w" transform="matrix(10.7,0,0,10.6,371.1,469.8)" />
<use xlink:href="#f1_2f" transform="matrix(10.7,0,0,10.6,380.2,469.8)" />
<use xlink:href="#f1_j" transform="matrix(10.7,0,0,10.6,428.5,469.8)" />
<use xlink:href="#f1_h" transform="matrix(10.7,0,0,10.6,437.5,469.8)" />
<use xlink:href="#f1_j" transform="matrix(10.7,0,0,10.6,247.2,483.9)" />
<use xlink:href="#f1_j" transform="matrix(10.7,0,0,10.6,346.1,483.9)" />
<use xlink:href="#f2_2j" transform="matrix(10.7,0,0,10.6,208.5,459.7)" />
<use xlink:href="#f2_2j" transform="matrix(10.7,0,0,10.6,278.4,459.7)" />
<use xlink:href="#f2_2j" transform="matrix(10.7,0,0,10.6,310.2,459.7)" />
<use xlink:href="#f2_21" transform="matrix(10.7,0,0,10.6,138.5,469.8)" />
<use xlink:href="#f2_2j" transform="matrix(10.7,0,0,10.6,156.4,469.8)" />
<use xlink:href="#f2_2j" transform="matrix(10.7,0,0,10.6,392.5,469.8)" />
<use xlink:href="#f2_2j" transform="matrix(10.7,0,0,10.6,310.2,483.9)" />
<use xlink:href="#f3_4u" transform="matrix(10.6,0,0,10.6,199,457)" />
<use xlink:href="#f3_3f" transform="matrix(10.6,0,0,10.6,328.7,459.7)" />
<use xlink:href="#f3_4x" transform="matrix(10.6,0,0,10.6,199,460.3)" />
<use xlink:href="#f3_x" transform="matrix(10.6,0,0,10.6,181.3,469.8)" />
<use xlink:href="#f3_x" transform="matrix(10.6,0,0,10.6,411.1,469.8)" />
<use xlink:href="#f3_4v" transform="matrix(10.6,0,0,10.6,199,472.5)" />
<use xlink:href="#f3_x" transform="matrix(10.6,0,0,10.6,328.7,483.9)" />
<use xlink:href="#f3_4x" transform="matrix(10.6,0,0,10.6,199,485.3)" />
<use xlink:href="#f3_4w" transform="matrix(10.6,0,0,10.6,199,487.7)" />
<use xlink:href="#f1_b" transform="matrix(10.4,0,0,10.4,96.2,527.2)" />
<use xlink:href="#f1_24" transform="matrix(10.4,0,0,10.4,101.5,527.2)" />
<use xlink:href="#f1_2h" transform="matrix(10.4,0,0,10.4,105.1,527.2)" />
<use xlink:href="#f1_c" transform="matrix(10.4,0,0,10.4,113,527.2)" />
<use xlink:href="#f2_21" transform="matrix(10.4,0,0,10.4,136.9,527.2)" />
<use xlink:href="#f1_b" transform="matrix(10.4,0,0,10.4,141.3,527.2)" />
<use xlink:href="#f2_2j" transform="matrix(10.4,0,0,10.4,146.6,527.2)" />
<use xlink:href="#f1_c" transform="matrix(10.4,0,0,10.4,154.7,527.2)" />
<use xlink:href="#f1_w" transform="matrix(10.4,0,0,10.4,166.6,527.2)" />
<use xlink:href="#f1_2n" transform="matrix(10.4,0,0,10.4,182.7,527.2)" />
<use xlink:href="#f2_2j" transform="matrix(10.4,0,0,10.4,187,527.2)" />
<use xlink:href="#f1_2n" transform="matrix(10.4,0,0,10.4,195,527.2)" />
<use xlink:href="#f1_e" transform="matrix(10.4,0,0,10.4,206,527.2)" />
<use xlink:href="#f1_2n" transform="matrix(10.4,0,0,10.4,222,527.2)" />
<use xlink:href="#f2_2j" transform="matrix(10.4,0,0,10.4,226.4,527.2)" />
<use xlink:href="#f1_99" transform="matrix(10.4,0,0,10.4,241.2,527.2)" />
<use xlink:href="#f1_k" transform="matrix(10.4,0,0,10.4,256.7,527.2)" />
<use xlink:href="#f1_2n" transform="matrix(10.4,0,0,10.4,265.6,527.2)" />
<use xlink:href="#f1_1w" transform="matrix(10.4,0,0,10.4,276.5,527.2)" />
<use xlink:href="#f1_2f" transform="matrix(10.4,0,0,10.4,285.4,527.2)" />
<use xlink:href="#f2_2j" transform="matrix(10.4,0,0,10.4,296.4,527.2)" />
<use xlink:href="#f1_w" transform="matrix(10.4,0,0,10.4,311.3,527.2)" />
<use xlink:href="#f1_k" transform="matrix(10.4,0,0,10.4,327.3,527.2)" />
<use xlink:href="#f1_h" transform="matrix(10.4,0,0,10.4,336.2,527.2)" />
<use xlink:href="#f1_b" transform="matrix(10.4,0,0,10.4,99.9,586.1)" />
<use xlink:href="#f1_2h" transform="matrix(10.4,0,0,10.4,105.2,586.1)" />
<use xlink:href="#f1_c" transform="matrix(10.4,0,0,10.4,113.4,586.1)" />
<use xlink:href="#f3_c" transform="matrix(10.4,0,0,11.8,149.7,583.1)" />
<use xlink:href="#f3_d" transform="matrix(10.4,0,0,11.8,168.3,583.1)" />
<use xlink:href="#f3_1r" transform="matrix(10.4,0,0,12.2,240.4,572.7)" />
<use xlink:href="#f3_1t" transform="matrix(10.4,0,0,12.2,259.2,572.7)" />
<use xlink:href="#f1_f" transform="matrix(10.4,0,0,10.4,267.1,574.1)" />
<use xlink:href="#f1_k" transform="matrix(10.4,0,0,10.4,320.6,574.1)" />
<use xlink:href="#f1_1w" transform="matrix(10.4,0,0,10.4,343.1,585)" />
<use xlink:href="#f1_2f" transform="matrix(10.4,0,0,10.4,352.1,585)" />
<use xlink:href="#f1_k" transform="matrix(10.4,0,0,10.4,399.1,585)" />
<use xlink:href="#f1_h" transform="matrix(10.4,0,0,10.4,408.2,585)" />
<use xlink:href="#f1_j" transform="matrix(10.4,0,0,10.4,235.1,598)" />
<use xlink:href="#f1_k" transform="matrix(10.4,0,0,10.4,320.6,598)" />
<use xlink:href="#f2_2j" transform="matrix(10.4,0,0,10.4,208.6,574.1)" />
<use xlink:href="#f2_2j" transform="matrix(10.4,0,0,10.4,247.5,574.1)" />
<use xlink:href="#f2_2j" transform="matrix(10.4,0,0,10.4,285.9,574.1)" />
<use xlink:href="#f2_21" transform="matrix(10.4,0,0,10.4,138.6,585)" />
<use xlink:href="#f2_2j" transform="matrix(10.4,0,0,10.4,156.5,585)" />
<use xlink:href="#f2_2j" transform="matrix(10.4,0,0,10.4,364.5,585)" />
<use xlink:href="#f2_2j" transform="matrix(10.4,0,0,10.4,285.9,598)" />
<use xlink:href="#f3_4u" transform="matrix(10.5,0,0,10.4,199.2,573.3)" />
<use xlink:href="#f3_h" transform="matrix(10.5,0,0,10.4,225.6,574.1)" />
<use xlink:href="#f3_3f" transform="matrix(10.5,0,0,10.4,304.4,574.1)" />
<use xlink:href="#f3_x" transform="matrix(10.5,0,0,10.4,181.5,585)" />
<use xlink:href="#f3_x" transform="matrix(10.5,0,0,10.4,383,585)" />
<use xlink:href="#f3_4v" transform="matrix(10.5,0,0,10.4,199.2,587.6)" />
<use xlink:href="#f3_x" transform="matrix(10.5,0,0,10.4,304.4,598)" />
<use xlink:href="#f3_4w" transform="matrix(10.5,0,0,10.4,199.2,601.7)" />
<use xlink:href="#f1_k" transform="matrix(10.4,0,0,10.4,41.2,666.2)" />
<use xlink:href="#f1_l" transform="matrix(10.4,0,0,10.4,50.1,666.2)" />
<use xlink:href="#f1_h" transform="matrix(10.4,0,0,10.4,59.2,666.2)" />
<use xlink:href="#f1_15" transform="matrix(10.4,0,0,10.4,81.9,666.2)" />
<use xlink:href="#f1_2a" transform="matrix(10.4,0,0,10.4,91.7,666.2)" />
<use xlink:href="#f1_2d" transform="matrix(10.4,0,0,10.4,100.5,666.2)" />
<use xlink:href="#f1_2i" transform="matrix(10.4,0,0,10.4,111.3,666.2)" />
<use xlink:href="#f1_23" transform="matrix(10.4,0,0,10.4,122.9,666.2)" />
<use xlink:href="#f1_1w" transform="matrix(10.4,0,0,10.4,131.7,666.2)" />
<use xlink:href="#f1_2f" transform="matrix(10.4,0,0,10.4,140.6,666.2)" />
<use xlink:href="#f1_2h" transform="matrix(10.4,0,0,10.4,150.5,666.2)" />
<use xlink:href="#f1_1w" transform="matrix(10.4,0,0,10.4,158.5,666.2)" />
<use xlink:href="#f1_27" transform="matrix(10.4,0,0,10.4,167.4,666.2)" />
<use xlink:href="#f1_2g" transform="matrix(10.4,0,0,10.4,170.9,666.2)" />
<use xlink:href="#f1_20" transform="matrix(10.4,0,0,10.4,179.8,666.2)" />
<use xlink:href="#f1_2a" transform="matrix(10.4,0,0,10.4,194.3,666.2)" />
<use xlink:href="#f1_21" transform="matrix(10.4,0,0,10.4,203.2,666.2)" />
<use xlink:href="#f2_26" transform="matrix(10.4,0,0,10.4,212.6,666.2)" />
<use xlink:href="#f1_f" transform="matrix(10.4,0,0,10.4,220.7,666.2)" />
<use xlink:href="#f3_c" transform="matrix(10.3,0,0,11.1,243.5,663.7)" />
<use xlink:href="#f3_d" transform="matrix(10.3,0,0,11.1,262.2,663.7)" />
<use xlink:href="#f1_l" transform="matrix(7.9,0,0,7.8,320.6,647.8)" />
<use xlink:href="#f1_m" transform="matrix(10.5,0,0,10.4,300.9,657.3)" />
<use xlink:href="#f1_o" transform="matrix(10.5,0,0,10.4,391.3,657.3)" />
<use xlink:href="#f1_f" transform="matrix(10.5,0,0,10.4,399.6,657.3)" />
<use xlink:href="#f1_j" transform="matrix(10.5,0,0,10.4,426.1,657.3)" />
<use xlink:href="#f1_l" transform="matrix(10.5,0,0,10.4,495.8,657.3)" />
<use xlink:href="#f1_k" transform="matrix(10.5,0,0,10.4,327.5,681.2)" />
<use xlink:href="#f1_m" transform="matrix(10.5,0,0,10.4,356.1,681.2)" />
<use xlink:href="#f1_l" transform="matrix(10.5,0,0,10.4,426.1,681.2)" />
<use xlink:href="#f1_m" transform="matrix(10.5,0,0,10.4,495.5,681.2)" />
<use xlink:href="#f2_2j" transform="matrix(10.5,0,0,10.4,310.2,657.3)" />
<use xlink:href="#f2_26" transform="matrix(10.5,0,0,10.4,350.7,657.3)" />
<use xlink:href="#f2_2j" transform="matrix(10.5,0,0,10.4,359,657.3)" />
<use xlink:href="#f2_2j" transform="matrix(10.5,0,0,10.4,460.4,657.3)" />
<use xlink:href="#f2_21" transform="matrix(10.5,0,0,10.4,232.6,665.8)" />
<use xlink:href="#f2_2j" transform="matrix(10.5,0,0,10.4,250.5,665.8)" />
<use xlink:href="#f2_2j" transform="matrix(10.5,0,0,10.4,365.3,681.2)" />
<use xlink:href="#f2_2j" transform="matrix(10.5,0,0,10.4,460.2,681.2)" />
<use xlink:href="#f3_4r" transform="matrix(10.4,0,0,10.4,293.1,652.1)" />
<use xlink:href="#f3_h" transform="matrix(10.4,0,0,10.4,335.7,657.3)" />
<use xlink:href="#f3_f" transform="matrix(10.4,0,0,10.4,375.5,657.3)" />
<use xlink:href="#f3_2t" transform="matrix(10.4,0,0,10.4,442.9,657.3)" />
<use xlink:href="#f3_w" transform="matrix(10.4,0,0,10.4,478.5,657.3)" />
<use xlink:href="#f3_x" transform="matrix(10.4,0,0,10.4,275.3,665.8)" />
<use xlink:href="#f3_4s" transform="matrix(10.4,0,0,10.4,293.1,667.4)" />
<use xlink:href="#f3_h" transform="matrix(10.4,0,0,10.4,340.6,681.2)" />
<use xlink:href="#f3_2t" transform="matrix(10.4,0,0,10.4,442.7,681.2)" />
<use xlink:href="#f3_2t" transform="matrix(10.4,0,0,10.4,478.3,681.2)" />
<use xlink:href="#f3_4s" transform="matrix(10.4,0,0,10.4,293.1,681.8)" />
<use xlink:href="#f3_4t" transform="matrix(10.4,0,0,10.4,293.1,684.5)" />
<use xlink:href="#f1_24" transform="matrix(10.4,0,0,10.4,512.4,666.2)" />
<use xlink:href="#f1_2e" transform="matrix(10.4,0,0,10.4,515.9,666.2)" />
<use xlink:href="#f1_1y" transform="matrix(10.4,0,0,10.4,529.6,666.2)" />
<use xlink:href="#f1_2a" transform="matrix(10.4,0,0,10.4,537.5,666.2)" />
<use xlink:href="#f1_29" transform="matrix(10.4,0,0,10.4,546.4,666.2)" />
<use xlink:href="#f1_2f" transform="matrix(10.4,0,0,10.4,555.3,666.2)" />
<use xlink:href="#f1_24" transform="matrix(10.4,0,0,10.4,559.7,666.2)" />
<use xlink:href="#f1_29" transform="matrix(10.4,0,0,10.4,563.3,666.2)" />
<use xlink:href="#f1_2g" transform="matrix(10.4,0,0,10.4,572.1,666.2)" />
<use xlink:href="#f1_2a" transform="matrix(10.4,0,0,10.4,581,666.2)" />
<use xlink:href="#f1_2g" transform="matrix(10.4,0,0,10.4,589.9,666.2)" />
<use xlink:href="#f1_2e" transform="matrix(10.4,0,0,10.4,598.7,666.2)" />
<use xlink:href="#f3_1r" transform="matrix(10.4,0,0,14.7,126,720.6)" />
<use xlink:href="#f3_1t" transform="matrix(10.4,0,0,14.7,157,720.6)" />
<use xlink:href="#f1_j" transform="matrix(10.4,0,0,10.5,131.9,719.4)" />
<use xlink:href="#f1_f" transform="matrix(10.4,0,0,10.5,140.1,719.4)" />
<use xlink:href="#f1_m" transform="matrix(10.4,0,0,10.5,147.8,719.4)" />
<use xlink:href="#f1_h" transform="matrix(10.4,0,0,10.5,162.7,719.4)" />
<use xlink:href="#f2_2j" transform="matrix(10.4,0,0,10.5,100.3,719.4)" />
<use xlink:href="#f3_6" transform="matrix(10.4,0,0,10.5,84.5,719.4)" />
<use xlink:href="#f3_40" transform="matrix(10.4,0,0,10.5,114.2,719.4)" />
<use xlink:href="#f1_k" transform="matrix(10.4,0,0,10.4,41.2,759.1)" />
<use xlink:href="#f1_m" transform="matrix(10.4,0,0,10.4,50.1,759.1)" />
<use xlink:href="#f1_h" transform="matrix(10.4,0,0,10.4,59.2,759.1)" />
<use xlink:href="#f1_15" transform="matrix(10.4,0,0,10.4,81.9,759.1)" />
<use xlink:href="#f1_2a" transform="matrix(10.4,0,0,10.4,91.7,759.1)" />
<use xlink:href="#f1_2d" transform="matrix(10.4,0,0,10.4,100.5,759.1)" />
<use xlink:href="#f1_2i" transform="matrix(10.4,0,0,10.4,112.8,759.1)" />
<use xlink:href="#f1_23" transform="matrix(10.4,0,0,10.4,124.3,759.1)" />
<use xlink:href="#f1_1w" transform="matrix(10.4,0,0,10.4,133.2,759.1)" />
<use xlink:href="#f1_2f" transform="matrix(10.4,0,0,10.4,142.1,759.1)" />
<use xlink:href="#f1_2h" transform="matrix(10.4,0,0,10.4,153.6,759.1)" />
<use xlink:href="#f1_1w" transform="matrix(10.4,0,0,10.4,161.6,759.1)" />
<use xlink:href="#f1_27" transform="matrix(10.4,0,0,10.4,170.5,759.1)" />
<use xlink:href="#f1_2g" transform="matrix(10.4,0,0,10.4,174,759.1)" />
<use xlink:href="#f1_20" transform="matrix(10.4,0,0,10.4,182.9,759.1)" />
<use xlink:href="#f1_2e" transform="matrix(10.4,0,0,10.4,191.8,759.1)" />
<use xlink:href="#f1_2a" transform="matrix(10.4,0,0,10.4,206.7,759.1)" />
<use xlink:href="#f1_21" transform="matrix(10.4,0,0,10.4,215.6,759.1)" />
<use xlink:href="#f2_1w" transform="matrix(10.4,0,0,10.4,226.7,759.1)" />
<use xlink:href="#f1_1w" transform="matrix(10.4,0,0,10.4,242.7,759.1)" />
<use xlink:href="#f1_29" transform="matrix(10.4,0,0,10.4,251.6,759.1)" />
<use xlink:href="#f1_1z" transform="matrix(10.4,0,0,10.4,260.4,759.1)" />
<use xlink:href="#f2_1x" transform="matrix(10.4,0,0,10.4,276.2,759.1)" />
<use xlink:href="#f3_c" transform="matrix(10.5,0,0,11.3,149.7,845.7)" />
<use xlink:href="#f3_d" transform="matrix(10.5,0,0,11.3,168.4,845.7)" />
</g>
<path d="M215.3,812.4v14.8m46.9,-14.8v14.8m-48.5,-21h50.5m-53.5,78.1v14.8m46.9,-14.8v14.8m-48.5,-21h50.5" class="g5_39" />
<g fill="#000000" >
<use xlink:href="#f1_l" transform="matrix(10.5,0,0,10.6,251.1,800)" />
<use xlink:href="#f1_24" transform="matrix(10.5,0,0,10.6,323.4,810.5)" />
<use xlink:href="#f1_21" transform="matrix(10.5,0,0,10.6,327.2,810.5)" />
<use xlink:href="#f1_99" transform="matrix(10.5,0,0,10.6,375.5,810.5)" />
<use xlink:href="#f1_l" transform="matrix(10.5,0,0,10.6,384.8,810.5)" />
<use xlink:href="#f1_l" transform="matrix(10.5,0,0,10.6,251.1,826.1)" />
<use xlink:href="#f1_24" transform="matrix(10.5,0,0,10.6,323.2,847.9)" />
<use xlink:href="#f1_21" transform="matrix(10.5,0,0,10.6,327,847.9)" />
<use xlink:href="#f1_99" transform="matrix(10.5,0,0,10.6,375.7,847.9)" />
<use xlink:href="#f1_l" transform="matrix(10.5,0,0,10.6,385,847.9)" />
<use xlink:href="#f1_l" transform="matrix(10.5,0,0,10.6,246.4,872)" />
<use xlink:href="#f1_l" transform="matrix(10.5,0,0,10.6,282.5,882.4)" />
<use xlink:href="#f1_24" transform="matrix(10.5,0,0,10.6,323.4,882.4)" />
<use xlink:href="#f1_21" transform="matrix(10.5,0,0,10.6,327.2,882.4)" />
<use xlink:href="#f1_99" transform="matrix(10.5,0,0,10.6,375.5,882.4)" />
<use xlink:href="#f1_l" transform="matrix(10.5,0,0,10.6,384.8,882.4)" />
<use xlink:href="#f1_l" transform="matrix(10.5,0,0,10.6,246.4,898.1)" />
<use xlink:href="#f2_2j" transform="matrix(10.5,0,0,10.6,218.6,800)" />
<use xlink:href="#f2_1w" transform="matrix(10.5,0,0,10.6,286.6,810.5)" />
<use xlink:href="#f2_2j" transform="matrix(10.5,0,0,10.6,339.6,810.5)" />
<use xlink:href="#f2_2j" transform="matrix(10.5,0,0,10.6,218.6,826.1)" />
<use xlink:href="#f2_21" transform="matrix(10.5,0,0,10.6,138.7,847.9)" />
<use xlink:href="#f2_2j" transform="matrix(10.5,0,0,10.6,156.7,847.9)" />
<use xlink:href="#f2_1w" transform="matrix(10.5,0,0,10.6,233.9,847.9)" />
<use xlink:href="#f2_1x" transform="matrix(10.5,0,0,10.6,265,847.9)" />
<use xlink:href="#f2_2j" transform="matrix(10.5,0,0,10.6,339.3,847.9)" />
<use xlink:href="#f2_2j" transform="matrix(10.5,0,0,10.6,214,872)" />
<use xlink:href="#f2_1x" transform="matrix(10.5,0,0,10.6,290.8,882.4)" />
<use xlink:href="#f2_2j" transform="matrix(10.5,0,0,10.6,339.6,882.4)" />
<use xlink:href="#f2_2j" transform="matrix(10.5,0,0,10.6,214,898.1)" />
<use xlink:href="#f3_f" transform="matrix(10.5,0,0,10.6,235.3,800)" />
<use xlink:href="#f3_4u" transform="matrix(10.5,0,0,10.6,199.3,801.2)" />
<use xlink:href="#f3_f" transform="matrix(10.5,0,0,10.6,271.4,810.5)" />
<use xlink:href="#f3_w" transform="matrix(10.5,0,0,10.6,357.8,810.5)" />
<use xlink:href="#f3_4x" transform="matrix(10.5,0,0,10.6,199.3,817)" />
<use xlink:href="#f3_f" transform="matrix(10.5,0,0,10.6,235.3,826.1)" />
<use xlink:href="#f3_4x" transform="matrix(10.5,0,0,10.6,199.3,832.6)" />
<use xlink:href="#f3_4x" transform="matrix(10.5,0,0,10.6,199.3,838)" />
<use xlink:href="#f3_x" transform="matrix(10.5,0,0,10.6,181.6,847.9)" />
<use xlink:href="#f3_f" transform="matrix(10.5,0,0,10.6,249.8,847.9)" />
<use xlink:href="#f3_x" transform="matrix(10.5,0,0,10.6,357.8,847.9)" />
<use xlink:href="#f3_4v" transform="matrix(10.5,0,0,10.6,199.3,850.2)" />
<use xlink:href="#f3_4x" transform="matrix(10.5,0,0,10.6,199.3,865.8)" />
<use xlink:href="#f3_f" transform="matrix(10.5,0,0,10.6,230.7,872)" />
<use xlink:href="#f3_4x" transform="matrix(10.5,0,0,10.6,199.3,881.4)" />
<use xlink:href="#f3_f" transform="matrix(10.5,0,0,10.6,266.8,882.4)" />
<use xlink:href="#f3_y" transform="matrix(10.5,0,0,10.6,357.8,882.4)" />
<use xlink:href="#f3_4x" transform="matrix(10.5,0,0,10.6,199.3,896.6)" />
<use xlink:href="#f3_f" transform="matrix(10.5,0,0,10.6,230.7,898.1)" />
<use xlink:href="#f3_4w" transform="matrix(10.5,0,0,10.6,199.3,899)" />
<use xlink:href="#f1_24" transform="matrix(10.4,0,0,10.4,404,863.6)" />
<use xlink:href="#f1_2e" transform="matrix(10.4,0,0,10.4,407.6,863.6)" />
<use xlink:href="#f1_1y" transform="matrix(10.4,0,0,10.4,422.5,863.6)" />
<use xlink:href="#f1_2a" transform="matrix(10.4,0,0,10.4,430.5,863.6)" />
<use xlink:href="#f1_29" transform="matrix(10.4,0,0,10.4,439.4,863.6)" />
<use xlink:href="#f1_2f" transform="matrix(10.4,0,0,10.4,448.2,863.6)" />
<use xlink:href="#f1_24" transform="matrix(10.4,0,0,10.4,452.7,863.6)" />
<use xlink:href="#f1_29" transform="matrix(10.4,0,0,10.4,456.2,863.6)" />
<use xlink:href="#f1_2g" transform="matrix(10.4,0,0,10.4,465.1,863.6)" />
<use xlink:href="#f1_2a" transform="matrix(10.4,0,0,10.4,473.9,863.6)" />
<use xlink:href="#f1_2g" transform="matrix(10.4,0,0,10.4,482.8,863.6)" />
<use xlink:href="#f1_2e" transform="matrix(10.4,0,0,10.4,491.7,863.6)" />
<use xlink:href="#f1_1w" transform="matrix(10.4,0,0,10.4,506.6,863.6)" />
<use xlink:href="#f1_2f" transform="matrix(10.4,0,0,10.4,515.5,863.6)" />
<use xlink:href="#f2_2j" transform="matrix(10.4,0,0,10.4,526.5,863.6)" />
<use xlink:href="#f1_w" transform="matrix(10.4,0,0,10.4,541.5,863.6)" />
<use xlink:href="#f1_l" transform="matrix(10.4,0,0,10.4,557.8,863.6)" />
<use xlink:href="#f1_h" transform="matrix(10.4,0,0,10.4,566.7,863.6)" />
<use xlink:href="#f5_m" transform="matrix(12,0,0,12,638.6,1041.1)" />
</g>
<g fill="#0080FF" fill-opacity="0.5" >
<use xlink:href="#f0_1c" transform="matrix(35.3,0,0,35.3,169.4,1052.8)" />
<use xlink:href="#f0_21" transform="matrix(35.3,0,0,35.3,199.4,1052.8)" />
<use xlink:href="#f0_1x" transform="matrix(35.3,0,0,35.3,229.4,1052.8)" />
<use xlink:href="#f0_2e" transform="matrix(35.3,0,0,35.3,259.4,1052.8)" />
<use xlink:href="#f0_2a" transform="matrix(35.3,0,0,35.3,277.3,1052.8)" />
<use xlink:href="#f0_17" transform="matrix(35.3,0,0,35.3,307.3,1052.8)" />
<use xlink:href="#f0_2h" transform="matrix(35.3,0,0,35.3,349.3,1052.8)" />
<use xlink:href="#f0_25" transform="matrix(35.3,0,0,35.3,379.3,1052.8)" />
<use xlink:href="#f0_20" transform="matrix(35.3,0,0,35.3,391.3,1052.8)" />
<use xlink:href="#f0_21" transform="matrix(35.3,0,0,35.3,421.3,1052.8)" />
<use xlink:href="#f0_i" transform="matrix(35.3,0,0,35.3,451.2,1052.8)" />
<use xlink:href="#f0_25" transform="matrix(35.3,0,0,35.3,466.2,1052.8)" />
<use xlink:href="#f0_2a" transform="matrix(35.3,0,0,35.3,478.2,1052.8)" />
</g>
<defs>
<path d="M593,101c0,0,182,0,279,112c0,0,98,113,98,318c0,0,0,196,-98,308c0,0,-98,112,-277,112c0,0,-181,0,-279,-110c0,0,-99,-111,-99,-310c0,0,0,-198,100,-314c0,0,99,-116,276,-116Zm0,-115c0,0,-162,0,-279,65c0,0,-118,66,-180,190c0,0,-62,124,-62,290c0,0,0,252,138,394c0,0,138,142,385,142c0,0,160,0,278,-64c0,0,118,-64,180,-185c0,0,62,-122,62,-287c0,0,0,-165,-63,-289c0,0,-63,-124,-181,-190c0,0,-118,-66,-278,-66Z" 
id="f0_1f"
transform="scale(0.001,-0.001)" />

<path d="M106,0V635c0,0,0,141,-5,173H228c0,0,1,-4,2,-21c0,0,1,-16,2,-37c0,0,1,-22,2,-81h2c0,0,47,84,108,119c0,0,60,34,151,34c0,0,132,0,194,-66c0,0,61,-66,61,-218V0H615V512c0,0,0,80,-15,124c0,0,-16,44,-50,63c0,0,-35,20,-101,20c0,0,-97,0,-153,-67c0,0,-56,-66,-56,-184V0Z" 
id="f0_2a"
transform="scale(0.001,-0.001)" />

<path d="M103,0V1107H237V0Z" 
id="f0_28"
transform="scale(0.001,-0.001)" />

<path d="M102,0V808H236V0Zm0,979v128H236V979Z" 
id="f0_25"
transform="scale(0.001,-0.001)" />

<path d="M643,478c0,0,-11,128,-65,187c0,0,-54,59,-154,59c0,0,-98,0,-155,-66c0,0,-57,-65,-62,-180ZM431,-14c0,0,-179,0,-272,106c0,0,-94,107,-94,317c0,0,0,200,94,307c0,0,93,106,267,106c0,0,356,0,356,-429V375H206c0,0,0,-138,57,-213c0,0,58,-75,168,-75c0,0,87,0,140,35c0,0,53,35,71,88L760,177c0,0,-72,-191,-329,-191Z" 
id="f0_21"
transform="scale(0.001,-0.001)" />

<path d="M17,0L304,415L31,808H179L380,493L580,808H730L457,417L747,0H598L380,331L162,0Z" 
id="f0_2k"
transform="scale(0.001,-0.001)" />

<path d="M339,87c0,0,74,0,132,34c0,0,57,33,90,91c0,0,34,59,34,121v66L448,396c0,0,-95,-2,-144,-19c0,0,-49,-18,-75,-55c0,0,-26,-38,-26,-98c0,0,0,-65,35,-101c0,0,36,-36,101,-36ZM309,-14c0,0,-122,0,-183,64c0,0,-61,64,-61,176c0,0,0,125,82,192c0,0,83,67,266,72l182,3v44c0,0,0,98,-42,141c0,0,-42,43,-132,43c0,0,-90,0,-131,-31c0,0,-41,-31,-49,-98L101,604c0,0,34,218,323,218c0,0,153,0,229,-70c0,0,77,-69,77,-202V202c0,0,0,-59,16,-90c0,0,16,-30,60,-30c0,0,19,0,44,5V4C850,4,799,-7,746,-7c0,0,-75,0,-109,38c0,0,-33,40,-38,124h-4C595,155,543,62,475,24c0,0,-68,-38,-166,-38Z" 
id="f0_1x"
transform="scale(0.001,-0.001)" />

<path d="M106,0V635c0,0,0,141,-5,173H228c0,0,1,-4,2,-21c0,0,1,-16,2,-37c0,0,1,-22,2,-81h2c0,0,44,86,100,120c0,0,56,33,136,33c0,0,92,0,145,-36c0,0,54,-37,75,-117h2c0,0,42,82,101,117c0,0,59,36,143,36c0,0,123,0,178,-66c0,0,56,-67,56,-218V0H1039V512c0,0,0,117,-32,162c0,0,-32,45,-116,45c0,0,-88,0,-136,-66c0,0,-49,-65,-49,-185V0H573V512c0,0,0,117,-32,162c0,0,-32,45,-116,45c0,0,-86,0,-136,-66c0,0,-50,-66,-50,-185V0Z" 
id="f0_29"
transform="scale(0.001,-0.001)" />

<path d="M453,84c0,0,100,0,146,74c0,0,46,73,46,247c0,0,0,169,-46,241c0,0,-45,73,-145,73c0,0,-80,0,-125,-34c0,0,-45,-34,-68,-105c0,0,-24,-71,-24,-186c0,0,0,-159,51,-234c0,0,51,-76,165,-76ZM103,-316V643c0,0,0,124,-5,165H228c0,0,1,-3,3,-22c0,0,1,-18,3,-56c0,0,2,-38,2,-52h3c0,0,36,75,94,110c0,0,59,34,156,34c0,0,149,0,223,-100c0,0,74,-100,74,-314c0,0,0,-422,-297,-422c0,0,-187,0,-251,140h-4c0,0,3,-6,3,-126V-316Z" 
id="f0_2c"
transform="scale(0.001,-0.001)" />

<path d="M420,84c0,0,121,0,173,78c0,0,52,77,52,243c0,0,0,167,-50,243c0,0,-50,76,-167,76c0,0,-118,0,-170,-78c0,0,-53,-77,-53,-241c0,0,0,-160,52,-241c0,0,52,-80,163,-80Zm1,-98c0,0,-176,0,-267,107c0,0,-90,108,-90,312c0,0,0,417,362,417c0,0,185,0,272,-102c0,0,88,-101,88,-315c0,0,0,-212,-94,-316C692,89,599,-14,421,-14Z" 
id="f0_2b"
transform="scale(0.001,-0.001)" />

<path d="M278,-11c0,0,-162,0,-162,182V710H23v98h99l39,181h90V808H400V710H251V200c0,0,0,-58,19,-82c0,0,19,-23,66,-23c0,0,27,0,77,10V6c0,0,-66,-17,-135,-17Z" 
id="f0_2g"
transform="scale(0.001,-0.001)" />

<path d="M365,-315c0,0,-136,187,-199,359c0,0,-62,172,-62,359c0,0,0,186,62,358c0,0,63,172,199,360h92c0,0,-110,-192,-160,-365c0,0,-51,-172,-51,-353c0,0,0,-183,51,-355c0,0,50,-172,160,-363Z" 
id="f1_b"
transform="scale(0.001,-0.001)" />

<path d="M104,0V799H238V0Zm-2,946v152H239V946Z" 
id="f1_24"
transform="scale(0.001,-0.001)" />

<path d="M310,0L12,799H168L383,145L604,799H752L454,0Z" 
id="f1_2h"
transform="scale(0.001,-0.001)" />

<path d="M52,-315c0,0,109,192,160,363c0,0,50,173,50,354c0,0,0,183,-50,355c0,0,-51,173,-160,364h92c0,0,135,-188,198,-360c0,0,63,-172,63,-359c0,0,0,-187,-63,-359c0,0,-63,-171,-198,-358Z" 
id="f1_c"
transform="scale(0.001,-0.001)" />

<path d="M406,0V763H155V870h2c16,0,114,2,178,48c0,0,70,51,104,157H549V0Z" 
id="f1_k"
transform="scale(0.001,-0.001)" />

<path d="M393,-20c0,0,-169,0,-252,65c0,0,-83,67,-92,210H178c0,0,10,-85,61,-123c0,0,50,-38,154,-38c0,0,90,0,136,34c0,0,47,35,47,100c0,0,0,42,-31,64c0,0,-30,21,-123,43L283,368c0,0,-112,27,-160,75c0,0,-48,48,-48,135c0,0,0,112,80,178c0,0,81,66,218,66c0,0,140,0,222,-68c0,0,82,-67,88,-187H557c0,0,-6,67,-55,103c0,0,-48,37,-129,37c0,0,-84,0,-127,-29c0,0,-44,-29,-44,-85c0,0,0,-43,31,-65c0,0,30,-21,121,-43L493,452c0,0,117,-28,167,-78c0,0,49,-49,49,-138c0,0,0,-119,-86,-188c0,0,-85,-68,-230,-68Z" 
id="f1_2e"
transform="scale(0.001,-0.001)" />

<path d="M649,461c0,0,-6,111,-55,172c0,0,-55,69,-160,69c0,0,-106,0,-170,-79c0,0,-50,-62,-60,-162ZM425,-20c0,0,-169,0,-266,106c0,0,-97,107,-97,297c0,0,0,201,102,320c0,0,103,119,276,119c0,0,157,0,253,-116c0,0,96,-117,96,-306l-1,-48H204c0,0,8,-119,54,-182c0,0,57,-76,180,-76c0,0,77,0,134,43c0,0,58,43,70,110H775C775,247,746,116,656,47c0,0,-90,-67,-231,-67Z" 
id="f1_20"
transform="scale(0.001,-0.001)" />

<path d="M394,-20c0,0,-159,0,-253,113c0,0,-95,114,-95,307c0,0,0,193,98,308c0,0,98,114,264,114c0,0,144,0,230,-78c0,0,85,-79,91,-217H600c0,0,-8,86,-59,133c0,0,-52,47,-138,47c0,0,-101,0,-159,-82c0,0,-58,-82,-58,-225c0,0,0,-152,54,-229c0,0,53,-77,159,-77c0,0,79,0,132,50c0,0,52,51,69,143H729C729,287,709,137,623,58c0,0,-86,-78,-229,-78Z" 
id="f1_1y"
transform="scale(0.001,-0.001)" />

<path d="M424,94c0,0,107,0,169,83c0,0,63,83,63,223c0,0,0,140,-63,224c0,0,-62,83,-169,83c0,0,-106,0,-168,-83c0,0,-62,-84,-62,-224c0,0,0,-140,62,-223c0,0,62,-83,168,-83Zm0,-114c0,0,-165,0,-268,115C156,95,54,211,54,400c0,0,0,189,102,306c0,0,103,116,268,116c0,0,168,0,270,-116c0,0,102,-117,102,-306c0,0,0,-189,-102,-305C694,95,592,-20,424,-20Z" 
id="f1_2a"
transform="scale(0.001,-0.001)" />

<path d="M133,-224v71c0,0,47,8,65,52c0,0,14,33,17,101H133V163H292V27c0,0,0,-114,-36,-172c0,0,-37,-58,-123,-79Z" 
id="f1_f"
transform="scale(0.001,-0.001)" />

<path d="M133,0V162H292V0Z" 
id="f1_h"
transform="scale(0.001,-0.001)" />

<path d="M17,0L389,412L201,800H376L500,518L742,800H904L554,410L750,0H580L448,303L187,0Z" 
id="f2_2j"
transform="scale(0.001,-0.001)" />

<path d="M0,356v74H784V356Z" 
id="f3_h"
transform="scale(0.001,-0.001)" />

<path d="M355,0V355H0v72H355V784h72V427H782V355H427V0Z" 
id="f3_f"
transform="scale(0.001,-0.001)" />

<path d="M45,0V72H795V0Zm0,166v82L673,558L45,870v81L795,578V540L45,166Z" 
id="f3_39"
transform="scale(0.001,-0.001)" />

<path d="M412,-328c0,0,-195,96,-303,284C109,-44,0,142,0,365c0,0,0,232,114,422c0,0,114,191,298,273v-31c0,0,-92,-51,-151,-139c0,0,-59,-88,-88,-223c0,0,-29,-136,-29,-282c0,0,0,-167,27,-301c0,0,26,-133,82,-221c0,0,55,-89,159,-159v-32Z" 
id="f3_c"
transform="scale(0.001,-0.001)" />

<path d="M34,-328v32c0,0,92,50,151,138c0,0,59,88,88,222c0,0,29,135,29,283c0,0,0,165,-27,300c0,0,-26,134,-82,222c0,0,-56,89,-159,160v31c0,0,194,-96,303,-284c0,0,108,-187,108,-410c0,0,0,-232,-114,-422c0,0,-114,-191,-297,-272Z" 
id="f3_d"
transform="scale(0.001,-0.001)" />

<path d="M212,0c0,0,51,270,162,500c0,0,109,222,281,422H57v131H799V934C799,934,623,726,515,498C515,498,408,269,362,0Z" 
id="f1_q"
transform="scale(0.001,-0.001)" />

<path d="M39,0V0c0,0,0,170,84,277c0,0,85,108,317,236c0,0,113,62,154,115c0,0,41,52,41,134c0,0,0,86,-62,141c0,0,-61,54,-156,54c0,0,-101,0,-158,-68c0,0,-57,-68,-60,-194H67c0,0,-2,178,95,279c0,0,98,101,273,101c0,0,149,0,245,-89c0,0,94,-88,94,-228c0,0,0,-118,-60,-195c0,0,-61,-76,-229,-169C485,394,303,294,237,212c0,0,-28,-36,-46,-81H774V0Z" 
id="f1_l"
transform="scale(0.001,-0.001)" />

<path d="M99,0V799H226V681l30,39c0,0,87,102,219,102c0,0,132,0,203,-71c0,0,72,-72,72,-204V0H616V502c0,0,0,105,-41,151c0,0,-40,47,-132,47c0,0,-97,0,-154,-73c0,0,-56,-74,-56,-199V0Z" 
id="f1_29"
transform="scale(0.001,-0.001)" />

<path d="M103,0V1097H237V0Z" 
id="f1_27"
transform="scale(0.001,-0.001)" />

<path d="M418,95c0,0,98,0,158,73c0,0,59,73,59,193c0,0,0,170,-54,254c0,0,-54,85,-163,85c0,0,-113,0,-165,-72c0,0,-52,-71,-52,-227c0,0,0,-147,57,-227c0,0,56,-79,160,-79ZM394,-336c0,0,-136,0,-216,62c0,0,-79,63,-96,182H219c0,0,12,-64,57,-98c0,0,45,-35,116,-35c0,0,116,0,176,73c0,0,61,73,61,211V85l-1,-1C628,84,545,-20,412,-20c0,0,-161,0,-256,118c0,0,-94,120,-94,324c0,0,0,179,93,290c0,0,93,110,244,110c0,0,144,0,228,-124l10,-14V799H763V59c0,0,-1,-201,-91,-298c0,0,-91,-97,-278,-97Z" 
id="f1_22"
transform="scale(0.001,-0.001)" />

<path d="M417,-28c0,0,-161,0,-259,79c0,0,-98,81,-109,223H189c0,0,11,-90,72,-139c0,0,61,-49,162,-49c0,0,96,0,158,68c0,0,61,68,61,175c0,0,0,112,-64,178c0,0,-64,66,-173,66c0,0,-59,0,-115,-28c0,0,-55,-29,-84,-73L93,480l77,573H727V922H271L225,629l4,3c0,0,89,60,188,60c0,0,169,0,269,-94c0,0,99,-93,99,-253c0,0,0,-165,-103,-269C682,76,579,-28,417,-28Z" 
id="f1_o"
transform="scale(0.001,-0.001)" />

<path d="M73,12V133L664,384L73,636V757L819,440V329L73,12Z" 
id="f1_x"
transform="scale(0.001,-0.001)" />

<path d="M424,92c0,0,114,0,170,107c0,0,57,108,56,323c0,0,1,216,-56,324c0,0,-56,107,-170,107c0,0,-112,0,-168,-107c0,0,-56,-108,-57,-324c0,0,1,-215,57,-323c0,0,56,-107,168,-107Zm0,-120c0,0,-176,0,-271,142c0,0,-96,143,-96,408c0,0,0,265,96,409c0,0,95,144,271,144c0,0,178,0,273,-144c0,0,96,-144,96,-409c0,0,0,-265,-96,-408c0,0,-95,-142,-273,-142Z" 
id="f1_j"
transform="scale(0.001,-0.001)" />

<path d="M367,-20c0,0,-85,0,-142,12C225,-8,167,2,83,35V332c0,0,41,-55,107,-90c0,0,66,-35,130,-35c0,0,51,0,84,31c0,0,32,31,32,81c0,0,0,49,-23,86c0,0,-22,37,-82,83c0,0,-126,98,-184,181c0,0,-57,82,-57,165c0,0,0,155,106,253c0,0,106,98,272,98c0,0,62,0,133,-13c0,0,71,-13,120,-33V867c0,0,-59,49,-104,70c0,0,-46,20,-94,20c0,0,-47,0,-76,-24c0,0,-29,-25,-29,-63c0,0,0,-41,20,-73c0,0,21,-31,75,-73c0,0,130,-101,189,-189c0,0,59,-87,59,-180c0,0,0,-165,-110,-270C651,85,541,-20,367,-20Z" 
id="f4_1i"
transform="scale(0.001,-0.001)" />

<path d="M99,0c0,0,22,54,32,110c0,0,9,55,9,135V922c0,0,0,81,-10,136c0,0,-9,55,-31,109H489c0,0,-23,-54,-32,-109c0,0,-9,-55,-9,-136V712H790V922c0,0,0,81,-9,136c0,0,-10,55,-32,109h390c0,0,-22,-54,-32,-109c0,0,-9,-55,-9,-136V245c0,0,0,-80,9,-135c0,0,10,-56,32,-110H749c0,0,22,54,32,110c0,0,9,55,9,135V478H448V245c0,0,0,-80,9,-135c0,0,9,-56,32,-110Z" 
id="f4_17"
transform="scale(0.001,-0.001)" />

<path d="M822,206c14,0,28,0,42,1c0,0,53,50,87,150c0,0,34,101,34,210c0,0,0,188,-132,297c0,0,-113,95,-296,95c-13,0,-27,-1,-42,-2c0,0,-53,-49,-86,-150c0,0,-34,-102,-34,-212c0,0,0,-186,132,-295c0,0,114,-94,295,-94ZM690,-20c0,0,-276,0,-452,168C238,148,63,317,63,581c0,0,0,266,175,435c0,0,176,169,452,169c0,0,277,0,452,-169c0,0,175,-169,175,-435c0,0,0,-264,-175,-433c0,0,-175,-168,-452,-168Z" 
id="f4_1e"
transform="scale(0.001,-0.001)" />

<path d="M452,645c0,0,85,0,139,47c0,0,54,47,54,121c0,0,0,66,-51,107c0,0,-51,42,-132,42H442V645ZM93,0c0,0,22,54,32,110c0,0,9,55,9,135V922c0,0,0,81,-9,136c0,0,-10,55,-32,109H498c0,0,215,0,332,-90c0,0,117,-90,117,-256c0,0,0,-159,-129,-253c0,0,-46,-34,-103,-54L902,246c0,0,57,-82,107,-137c0,0,50,-55,115,-109H803c0,0,-30,0,-104,83c0,0,-73,83,-149,202L442,461V246c0,0,0,-81,9,-136c0,0,10,-56,32,-110Z" 
id="f4_1h"
transform="scale(0.001,-0.001)" />

<path d="M289,0c0,0,26,60,37,116c0,0,9,55,9,129V961c0,0,-94,-3,-160,-9c0,0,-116,-13,-188,-44l41,130l41,129H981L946,1042L912,917c0,0,-45,18,-154,32c0,0,-58,8,-115,11V245c0,0,0,-74,11,-129c0,0,10,-56,35,-116Z" 
id="f4_1j"
transform="scale(0.001,-0.001)" />

<path d="M693,499L573,830L462,499ZM-39,0c0,0,33,42,61,97c0,0,30,55,71,148l314,761c0,0,22,51,38,98c0,0,15,47,17,63H721c0,0,2,-16,18,-63c0,0,15,-47,37,-98L1091,245c0,0,41,-95,70,-150c0,0,30,-55,60,-95H849c0,0,3,25,-3,55c0,0,-6,30,-24,80L765,295H393L340,135c0,0,-17,-50,-22,-80c0,0,-5,-30,-2,-55Z" 
id="f4_10"
transform="scale(0.001,-0.001)" />

<path d="M108,0c0,0,22,54,31,110c0,0,10,55,10,135V985L-5,1167H418c0,0,21,-44,54,-99c0,0,34,-55,96,-146L857,495V922c0,0,0,81,-9,136c0,0,-9,55,-32,109h378c0,0,-23,-54,-32,-109c0,0,-9,-55,-9,-136V351c0,0,0,-76,11,-178c0,0,11,-101,27,-173H845c0,0,-7,25,-28,67c0,0,-21,42,-45,78L444,628V245c0,0,0,-80,9,-135c0,0,10,-56,32,-110Z" 
id="f4_1d"
transform="scale(0.001,-0.001)" />

<path d="M324,0L78,922c0,0,-23,85,-44,140c0,0,-22,55,-50,105H376c0,0,-7,-56,-7,-99c0,0,1,-42,11,-89L479,513L610,998c0,0,11,42,21,91c0,0,10,49,13,78H861c0,0,4,-36,12,-85c0,0,9,-50,18,-84L1021,492l115,540c0,0,8,33,6,63c0,0,-1,31,-12,72h378c0,0,-30,-50,-52,-105c0,0,-21,-56,-45,-140L1166,0H925L741,597L565,0Z" 
id="f4_1m"
transform="scale(0.001,-0.001)" />

<path d="M102,0c0,0,22,54,31,110c0,0,10,55,10,135V922c0,0,0,81,-10,136c0,0,-9,55,-31,109H823L766,1041L709,913c0,0,-42,20,-137,36c0,0,-62,9,-121,13V697H798L728,569L657,441c0,0,-45,21,-131,36c0,0,-38,8,-75,11V206c0,0,117,6,201,22c0,0,126,24,239,84L827,156L762,0Z" 
id="f4_14"
transform="scale(0.001,-0.001)" />

<path d="M319,0c0,0,22,54,31,110c0,0,10,55,10,135V518L134,922c0,0,-57,100,-95,155c0,0,-37,55,-71,90H351c0,0,4,-29,12,-53c0,0,7,-24,22,-54L517,787l152,273c0,0,14,25,23,49c0,0,9,24,16,58h354c0,0,-35,-33,-73,-88c0,0,-38,-56,-99,-157L668,536V245c0,0,0,-80,9,-135c0,0,9,-56,32,-110Z" 
id="f4_1o"
transform="scale(0.001,-0.001)" />

<path d="M462,650c0,0,82,0,133,46c0,0,52,47,52,119c0,0,0,65,-48,106c0,0,-49,41,-125,41H452V650ZM103,0c0,0,22,54,32,110c0,0,9,55,9,135V922c0,0,0,81,-10,136c0,0,-9,55,-31,109H505c0,0,212,0,327,-93c0,0,114,-94,114,-268c0,0,0,-166,-127,-264c0,0,-127,-97,-343,-97H452V246c0,0,0,-81,9,-136c0,0,9,-56,32,-110Z" 
id="f4_1f"
transform="scale(0.001,-0.001)" />

<path d="M821,206c13,0,26,0,40,1c0,0,53,33,86,127c0,0,34,94,34,210c0,0,0,198,-131,314c0,0,-114,101,-297,101c-13,0,-27,-1,-40,-2c0,0,-53,-49,-87,-144c0,0,-33,-95,-33,-195c0,0,0,-197,131,-312c0,0,115,-100,297,-100Zm413,-442c-84,0,-186,15,-288,68c0,0,-113,58,-202,151c0,0,-22,-3,-48,-3c-3,0,-6,0,-9,0c0,0,-276,0,-452,168C235,148,60,316,60,581c0,0,0,266,175,435c0,0,176,169,452,169c0,0,277,0,452,-169c0,0,175,-169,175,-435c0,0,0,-265,-176,-433c0,0,-29,-28,-59,-51c0,0,51,-79,111,-141c0,0,104,-109,233,-165c0,0,-78,-27,-189,-27Z" 
id="f4_1g"
transform="scale(0.001,-0.001)" />

<path d="M512,-17c0,0,-191,0,-285,112c0,0,-94,113,-93,341V922c0,0,0,81,-9,136c0,0,-10,55,-32,109H483c0,0,-22,-54,-32,-109c0,0,-9,-56,-9,-136V502c0,0,0,-147,43,-219c0,0,43,-72,130,-72c0,0,85,0,127,62c0,0,42,61,42,187V922c0,0,0,80,-9,136c0,0,-10,55,-32,109h390c0,0,-22,-54,-31,-109c0,0,-10,-55,-10,-136V245c0,0,0,-80,9,-135c0,0,10,-56,32,-110H815l6,86C821,86,703,-17,512,-17Z" 
id="f4_1k"
transform="scale(0.001,-0.001)" />

<path d="M105,0c0,0,22,54,32,110c0,0,9,55,9,135V922c0,0,0,80,-10,135c0,0,-9,55,-31,110H495c0,0,-23,-54,-32,-109c0,0,-9,-55,-9,-136V245c0,0,0,-80,9,-135c0,0,9,-56,32,-110Z" 
id="f4_18"
transform="scale(0.001,-0.001)" />

<path d="M449,-255c0,0,-184,222,-259,382c0,0,-75,160,-75,331c0,0,0,172,75,332c0,0,75,161,259,382H673c0,0,-156,-201,-220,-362c0,0,-64,-160,-64,-352c0,0,0,-192,64,-352c0,0,64,-160,220,-361Z" 
id="f4_b"
transform="scale(0.001,-0.001)" />

<path d="M531,588l1,309L333,598l-7,-10ZM489,0c0,0,9,23,15,78c0,0,6,54,6,111V373H75V599c0,0,135,154,226,273c0,0,89,118,202,290H787L797,588h19c0,0,40,0,80,4c0,0,39,5,58,12V356c0,0,-18,7,-57,12c0,0,-39,5,-77,5H801V189c0,0,0,-57,2,-111c0,0,2,-55,5,-78Z" 
id="f4_n"
transform="scale(0.001,-0.001)" />

<path d="M90,0c0,0,22,54,32,110c0,0,9,55,9,135V996L-14,1167H428c0,0,2,-38,9,-63c0,0,8,-24,24,-44L752,691l296,369c0,0,23,28,33,53c0,0,10,24,11,54h346c0,0,-50,-120,-70,-208c0,0,-20,-88,-20,-184V245c0,0,0,-80,10,-135c0,0,9,-56,31,-110H999c0,0,23,54,32,110c0,0,9,55,9,135V675L741,291h-1L441,681V245c0,0,0,-80,9,-135c0,0,10,-56,32,-110Z" 
id="f4_1c"
transform="scale(0.001,-0.001)" />

<path d="M90,0c0,0,22,54,32,110c0,0,9,55,9,135V922c0,0,0,81,-9,136c0,0,-10,55,-32,109H480c0,0,-22,-54,-32,-109c0,0,-9,-55,-9,-136V739l269,348c0,0,23,27,33,45c0,0,11,18,14,35h396c0,0,-38,-23,-94,-79c0,0,-55,-55,-153,-166L651,635L957,245c0,0,84,-105,135,-160c0,0,51,-55,93,-85H749c0,0,-25,51,-60,107c0,0,-35,55,-95,138L439,463V245c0,0,0,-80,9,-135c0,0,10,-56,32,-110Z" 
id="f4_1a"
transform="scale(0.001,-0.001)" />

<path d="M115,-255c0,0,156,201,220,361c0,0,64,160,64,352c0,0,0,192,-64,352c0,0,-64,161,-220,362H339c0,0,184,-222,259,-383c0,0,75,-160,75,-331c0,0,0,-171,-75,-332c0,0,-75,-160,-259,-381Z" 
id="f4_c"
transform="scale(0.001,-0.001)" />

<path d="M544,127c0,0,160,0,247,110c0,0,87,109,87,311c0,0,0,202,-84,312c0,0,-83,110,-237,110H273V127ZM124,0V1097H575c0,0,209,0,332,-149c0,0,124,-149,124,-400c0,0,0,-251,-127,-399C904,149,778,0,563,0Z" 
id="f1_13"
transform="scale(0.001,-0.001)" />

<path d="M375,-20c0,0,-136,0,-203,66c0,0,-68,68,-68,204V799H238V284c0,0,0,-101,38,-146c0,0,39,-44,127,-44c0,0,97,0,153,75c0,0,57,75,57,203V799H747V0H620V122c0,0,-14,-22,-30,-41C590,81,504,-20,375,-20Z" 
id="f1_2g"
transform="scale(0.001,-0.001)" />

<path d="M292,-9c0,0,-88,0,-124,38c0,0,-36,39,-36,134V689H22V799H132v224H266V799H392V689H266V163c0,0,0,-27,21,-43c0,0,21,-15,57,-15h48V1C392,1,324,-9,292,-9Z" 
id="f1_2f"
transform="scale(0.001,-0.001)" />

<path d="M99,0V1097H233V690l23,30c0,0,87,102,219,102c0,0,132,0,203,-71c0,0,72,-72,72,-204V0H616V514c0,0,0,99,-38,142c0,0,-38,44,-124,44c0,0,-102,0,-162,-73c0,0,-59,-74,-59,-199V0Z" 
id="f1_23"
transform="scale(0.001,-0.001)" />

<path d="M152,-323c-8,0,-38,1,-63,8v125c0,0,30,-11,77,-12c0,0,45,0,76,37c0,0,30,38,69,140l2,12v1L17,799H170L383,139L600,799H747L443,-25c0,0,-70,-184,-125,-241c0,0,-55,-57,-164,-57c0,0,-1,0,-2,0Z" 
id="f1_2k"
transform="scale(0.001,-0.001)" />

<path d="M132,0V687H22V799H132V935c0,0,0,88,52,133c0,0,52,45,157,45l59,-3V989l-53,2c0,0,-39,0,-60,-24c0,0,-21,-25,-21,-71V799H400V687H266V0Z" 
id="f1_21"
transform="scale(0.001,-0.001)" />

<path d="M248,0L21,799H169L322,163L478,799H627L788,158L950,799h133L857,0H713L548,624L392,0Z" 
id="f1_2i"
transform="scale(0.001,-0.001)" />

<path d="M335,90c0,0,106,0,179,57c0,0,50,41,67,91c0,0,3,10,4,31c0,0,3,21,3,47v87c0,0,-38,-18,-83,-25L381,360c0,0,-97,-13,-142,-45c0,0,-44,-31,-44,-86c0,0,0,-67,36,-103c0,0,37,-36,104,-36ZM309,-20c0,0,-117,0,-186,61c0,0,-68,63,-68,169c0,0,0,108,64,171c0,0,65,64,189,79l183,23c0,0,22,3,42,8c0,0,26,7,40,27c0,0,15,20,15,51v6c0,0,0,64,-49,101c0,0,-48,36,-135,36c0,0,-83,0,-130,-38c0,0,-46,-39,-56,-115H94c0,0,10,131,92,197c0,0,83,66,238,66c0,0,145,0,222,-63c0,0,76,-63,76,-184V137c0,0,0,-21,12,-33c0,0,12,-12,33,-12c0,0,6,0,18,1c0,0,11,2,25,5V1c0,0,-20,-7,-41,-11c0,0,-22,-5,-37,-5c0,0,-76,0,-110,41c0,0,-22,28,-32,79c0,0,-15,-19,-34,-36c0,0,-101,-89,-247,-89Z" 
id="f1_1w"
transform="scale(0.001,-0.001)" />

<path d="M411,93c0,0,98,0,158,73c0,0,60,74,60,195c0,0,0,163,-57,252c0,0,-56,88,-161,88c0,0,-113,0,-165,-72c0,0,-52,-72,-52,-229c0,0,0,-147,56,-227c0,0,56,-80,161,-80ZM404,-20c0,0,-161,0,-255,118c0,0,-95,120,-95,324c0,0,0,179,92,290c0,0,91,110,239,110c0,0,147,0,233,-124l11,-15v414H763V0H638V109L621,84C621,84,538,-20,404,-20Z" 
id="f1_1z"
transform="scale(0.001,-0.001)" />

<path d="M436,95c0,0,105,0,160,79c0,0,54,80,54,232c0,0,0,150,-52,222c0,0,-52,72,-161,72c0,0,-112,0,-163,-81c0,0,-51,-82,-51,-258c0,0,0,-127,55,-197c0,0,55,-69,158,-69ZM89,-315V799H216V685l7,10c0,0,86,127,228,127c0,0,156,0,248,-108c0,0,91,-107,91,-291c0,0,0,-208,-92,-326C698,97,606,-20,442,-20c0,0,-135,0,-215,102l-4,6V-315Z" 
id="f1_2b"
transform="scale(0.001,-0.001)" />

<path d="M0,-123V985c0,0,0,202,88,304c0,0,88,101,278,126v-33c0,0,-112,-27,-179,-86c0,0,-67,-59,-91,-136c0,0,-24,-76,-24,-252V-123Z" 
id="f3_4u"
transform="scale(0.001,-0.001)" />

<path d="M130,0L252,216H0v70H292L410,496H0v70H450L572,783h82L532,566H783V496H492L377,286H783V216H335L213,0Z" 
id="f3_3f"
transform="scale(0.001,-0.001)" />

<path d="M0,-123V1415H73V-123Z" 
id="f3_4x"
transform="scale(0.001,-0.001)" />

<path d="M0,214v74H784V214ZM0,494v72H784V494Z" 
id="f3_x"
transform="scale(0.001,-0.001)" />

<path d="M293,-123V191c0,0,0,200,-67,292c0,0,-67,92,-226,135v57c0,0,159,44,226,135c0,0,67,92,67,292v313h73V1088c0,0,0,-108,-23,-189c0,0,-22,-80,-61,-127c0,0,-39,-46,-95,-75c0,0,-56,-28,-153,-51c0,0,97,-21,157,-52c0,0,61,-31,99,-82c0,0,39,-51,57,-125c0,0,19,-74,19,-180V-123Z" 
id="f3_4v"
transform="scale(0.001,-0.001)" />

<path d="M679,-123c0,0,-190,24,-278,124c0,0,-88,101,-88,305V1415h72V383c0,0,0,-111,12,-191c0,0,11,-79,46,-133c0,0,35,-53,94,-91c0,0,59,-39,142,-58v-33Z" 
id="f3_4w"
transform="scale(0.001,-0.001)" />

<path d="M131,0L274,688H168l23,112H296l26,125c0,0,20,98,82,143c0,0,62,46,176,46c0,0,33,0,59,-5L609,990c0,0,0,3,-53,3c0,0,-45,0,-70,-25c0,0,-25,-25,-37,-83L431,800H575L553,688H409L266,0Z" 
id="f2_21"
transform="scale(0.001,-0.001)" />

<path d="M424,-28c0,0,-180,0,-272,86c0,0,-92,87,-100,266H192c0,0,12,-126,66,-180c0,0,55,-54,170,-54c0,0,100,0,163,57c0,0,64,57,64,147c0,0,0,94,-61,149c0,0,-52,48,-135,54c0,0,-38,2,-72,2c0,0,-34,0,-45,-3V613c0,0,17,-3,51,-3c0,0,35,0,68,4c0,0,66,8,106,43c0,0,55,45,55,125c0,0,0,77,-58,125c0,0,-58,48,-148,48c0,0,-96,0,-147,-58c0,0,-51,-59,-56,-175H82c0,0,0,168,89,260c0,0,88,93,250,93c0,0,153,0,247,-77c0,0,94,-76,94,-202c0,0,0,-124,-95,-201c0,0,-18,-15,-39,-27c0,0,39,-17,69,-41c0,0,101,-79,101,-214c0,0,0,-151,-105,-246c0,0,-104,-95,-269,-95Z" 
id="f1_m"
transform="scale(0.001,-0.001)" />

<path d="M435,95c0,0,93,0,168,75c0,0,74,75,99,192c0,0,35,167,-1,254c0,0,-36,87,-140,87c0,0,-127,0,-208,-116c0,0,-80,-116,-80,-298c0,0,0,-93,43,-143c0,0,42,-51,119,-51ZM318,-336c0,0,-125,0,-193,65c0,0,-67,64,-61,180H198c0,0,-3,-62,39,-96c0,0,42,-35,119,-35c0,0,116,0,185,67c0,0,69,67,96,204l9,41l-2,-2C644,88,535,-20,404,-20c0,0,-127,0,-198,74c0,0,-70,75,-70,212c0,0,1,240,121,398c0,0,121,159,303,159c0,0,143,0,206,-129l8,-16l25,122H927L772,49c0,0,-39,-191,-153,-288c0,0,-114,-97,-301,-97Z" 
id="f2_22"
transform="scale(0.001,-0.001)" />

<path d="M60,174V286H832V174Zm0,309V595H832V483Z" 
id="f1_w"
transform="scale(0.001,-0.001)" />

<path d="M144,-381V1146H255V-381Z" 
id="f1_2n"
transform="scale(0.001,-0.001)" />

<path d="M390,-1V329H60V441H390V771H503V441H833V329H503V-1Z" 
id="f1_e"
transform="scale(0.001,-0.001)" />

<path d="M0,368V478H849V368Z" 
id="f1_99"
transform="scale(0.001,-0.001)" />

<path d="M0,-302V1034H328V970H119V-238H328v-64Z" 
id="f3_1r"
transform="scale(0.001,-0.001)" />

<path d="M56,-302v64H265V970H56v64H384V-302Z" 
id="f3_1t"
transform="scale(0.001,-0.001)" />

<path d="M131,0V1097H891V966H280V631H814V500H280V0Z" 
id="f1_15"
transform="scale(0.001,-0.001)" />

<path d="M118,0V799H246V662c0,0,17,32,36,58c0,0,76,102,187,102c0,0,19,0,38,-6V679l-27,1c0,0,-109,0,-168,-66c0,0,-60,-65,-60,-186V0Z" 
id="f1_2d"
transform="scale(0.001,-0.001)" />

<path d="M102,0L329,1097H464L333,467L745,800H921L546,501L769,0H595L429,409L300,306L237,0Z" 
id="f2_26"
transform="scale(0.001,-0.001)" />

<path d="M0,-123V1415H525v-72H72V-123Z" 
id="f3_4r"
transform="scale(0.001,-0.001)" />

<path d="M0,0V72H751V0ZM751,166L0,538v38L751,949V868L123,559L751,247V166Z" 
id="f3_2t"
transform="scale(0.001,-0.001)" />

<path d="M751,0L0,371v39L751,783V702L122,392L751,80V0Z" 
id="f3_w"
transform="scale(0.001,-0.001)" />

<path d="M0,-123V1415H72V-123Z" 
id="f3_4s"
transform="scale(0.001,-0.001)" />

<path d="M0,-123V1415H72V-51H525v-72Z" 
id="f3_4t"
transform="scale(0.001,-0.001)" />

<path d="M475,91L710,641H238L475,91ZM434,0L0,1012H78L206,716H742l126,296h76L512,0Z" 
id="f3_6"
transform="scale(0.001,-0.001)" />

<path d="M398,0C398,0,266,0,185,39c0,0,-82,39,-133,124C52,163,0,248,0,342c0,0,0,144,103,243c0,0,103,98,292,98H694V611H387c0,0,-99,0,-166,-32c0,0,-68,-32,-105,-88c0,0,-26,-40,-41,-113H694V304H75c0,0,30,-120,103,-176c0,0,73,-56,210,-56H694V0Z" 
id="f3_40"
transform="scale(0.001,-0.001)" />

<path d="M354,90c0,0,107,0,192,57c0,0,60,41,87,95c0,0,5,12,11,33c0,0,6,20,11,44l18,88c0,0,-62,-26,-132,-37L414,352c0,0,-84,-11,-131,-56c0,0,-47,-45,-47,-113c0,0,0,-44,31,-69c0,0,31,-24,87,-24ZM306,-20c0,0,-99,0,-156,47c0,0,-57,49,-57,134c0,0,1,117,81,198c0,0,80,81,211,98l164,20l70,10c0,0,35,6,59,30c0,0,23,24,31,66l1,2c0,0,13,64,-25,94c0,0,-39,31,-132,31c0,0,-83,0,-137,-37c0,0,-54,-37,-84,-114H210c0,0,46,137,138,201c0,0,92,63,245,63c0,0,149,0,211,-59c0,0,45,-44,44,-116c0,0,1,-30,-6,-63L749,136c0,0,-4,-19,6,-32c0,0,10,-12,30,-12c0,0,6,0,19,1c0,0,12,2,25,5L809,1c0,0,-19,-6,-43,-11c0,0,-22,-5,-36,-5c0,0,-73,0,-100,43c0,0,-16,27,-17,75C612,102,594,85,573,69c0,0,-120,-89,-267,-89Z" 
id="f2_1w"
transform="scale(0.001,-0.001)" />

<path d="M456,95c0,0,130,0,213,121c0,0,82,120,82,310c0,0,0,85,-44,131c0,0,-44,46,-125,46c0,0,-98,0,-174,-90c0,0,-76,-90,-108,-245c0,0,-26,-126,16,-199c0,0,42,-74,140,-74ZM436,-20c0,0,-132,0,-195,108l-5,7L217,0H89L316,1097H450L365,683l10,11c0,0,120,129,262,129c0,0,121,0,190,-77c0,0,69,-77,69,-211c0,0,0,-234,-134,-395C762,140,629,-20,436,-20Z" 
id="f2_1x"
transform="scale(0.001,-0.001)" />

<path d="M45,0V81L673,391L45,704v80L795,412V374L45,0Z" 
id="f3_y"
transform="scale(0.001,-0.001)" />

<path d="M46,0c0,0,-2,48,16,93c0,0,27,74,88,146c0,0,61,71,176,165c0,0,178,146,241,232c0,0,63,85,63,161c0,0,0,80,-57,135c0,0,-58,55,-149,55c0,0,-98,0,-156,-59c0,0,-58,-58,-59,-160L71,782c0,0,15,154,107,235c0,0,93,81,249,81c0,0,157,0,249,-87c0,0,92,-88,92,-217c0,0,0,-65,-27,-129c0,0,-27,-63,-89,-133c0,0,-62,-70,-207,-193C445,339,324,238,290,202c0,0,-35,-36,-57,-73H770V0Z" 
id="f5_m"
transform="scale(0.001,-0.001)" />

<path d="M125,0V1051H268V115H799V0Z" 
id="f0_1c"
transform="scale(0.001,-0.001)" />

<path d="M106,0V620c0,0,0,85,-5,188H228c0,0,6,-138,6,-165h3c0,0,32,103,74,141c0,0,42,38,118,38c0,0,27,0,54,-7V692c0,0,-26,7,-71,7c0,0,-84,0,-128,-72c0,0,-44,-72,-44,-206V0Z" 
id="f0_2e"
transform="scale(0.001,-0.001)" />

<path d="M606,-14c0,0,-164,0,-284,65c0,0,-119,66,-182,189c0,0,-63,123,-63,291c0,0,0,255,137,396c0,0,137,140,386,140c0,0,174,0,283,-59c0,0,109,-59,168,-189L915,779c0,0,-44,90,-123,131c0,0,-79,41,-196,41c0,0,-182,0,-278,-110c0,0,-96,-110,-96,-310c0,0,0,-200,102,-315c0,0,102,-115,282,-115c0,0,103,0,193,31c0,0,89,31,144,85V407H629V526h445V164c0,0,-83,-85,-205,-132c0,0,-121,-46,-263,-46Z" 
id="f0_17"
transform="scale(0.001,-0.001)" />

<path d="M355,-14c0,0,-133,0,-194,65c0,0,-62,66,-62,219V808H234V296c0,0,0,-80,16,-124c0,0,16,-44,50,-64c0,0,34,-19,101,-19c0,0,97,0,153,66c0,0,55,67,55,185V808H744V172c0,0,0,-141,4,-172H621c0,0,0,4,-1,20c0,0,-1,17,-2,38c0,0,-1,21,-3,80h-2C613,138,567,55,506,20c0,0,-61,-34,-151,-34Z" 
id="f0_2h"
transform="scale(0.001,-0.001)" />

<path d="M395,89c0,0,115,0,166,79c0,0,51,79,51,246c0,0,0,160,-51,235c0,0,-51,75,-164,75c0,0,-102,0,-147,-75c0,0,-45,-75,-45,-244c0,0,0,-170,45,-243c0,0,45,-73,145,-73ZM361,-14c0,0,-153,0,-225,102c0,0,-72,103,-72,312c0,0,0,422,297,422c0,0,92,0,153,-33c0,0,61,-34,98,-107h2l-2,90v335H747V166c0,0,0,-126,4,-166H623c0,0,-2,12,-5,55c0,0,-3,44,-3,75h-3c0,0,-37,-78,-98,-111c0,0,-62,-33,-153,-33Z" 
id="f0_20"
transform="scale(0.001,-0.001)" />

<path d="M140,0V163H285V0Z" 
id="f0_i"
transform="scale(0.001,-0.001)" />


</defs>
</svg>