<?xml version="1.0" encoding="UTF-8" standalone="no"?>
<!DOCTYPE svg PUBLIC "-//W3C//DTD SVG 1.1//EN"
"http://www.w3.org/Graphics/SVG/1.1/DTD/svg11.dtd">
<svg viewBox="0 0 692 1111" version="1.1" xmlns="http://www.w3.org/2000/svg" xmlns:xlink="http://www.w3.org/1999/xlink">
<defs>
<style type="text/css"><![CDATA[
.g0_9{
fill: none;
stroke: #000000;
stroke-width: 0.7631555;
stroke-linecap: round;
stroke-linejoin: miter;
}
.g1_9{
fill: none;
stroke: #000000;
stroke-width: 0.15277778;
stroke-linecap: round;
stroke-linejoin: miter;
}
.g2_9{
}
.g3_9{
fill: none;
stroke: #000000;
stroke-width: 0.7646222;
stroke-linecap: round;
stroke-linejoin: miter;
}
.g4_9{
fill: none;
stroke: #000000;
stroke-width: 0.7629111;
stroke-linecap: round;
stroke-linejoin: miter;
}
.g5_9{
fill: none;
stroke: #000000;
stroke-width: 0.7638889;
stroke-linecap: round;
stroke-linejoin: miter;
}
.g6_9{
fill: none;
stroke: #000000;
stroke-width: 0.76266664;
stroke-linecap: round;
stroke-linejoin: miter;
}
.g7_9{
fill: none;
stroke: #000000;
stroke-width: 0.76511115;
stroke-linecap: round;
stroke-linejoin: miter;
}
]]></style>
</defs>
<g fill="#D4D4D4" fill-opacity="0.56" >
<use xlink:href="#f0_1f" transform="matrix(50.9,-50.9,50.9,50.9,81.1,924.1)" />
<use xlink:href="#f0_2a" transform="matrix(50.9,-50.9,50.9,50.9,141.6,863.6)" />
<use xlink:href="#f0_28" transform="matrix(50.9,-50.9,50.9,50.9,184.9,820.3)" />
<use xlink:href="#f0_25" transform="matrix(50.9,-50.9,50.9,50.9,202.1,803.1)" />
<use xlink:href="#f0_2a" transform="matrix(50.9,-50.9,50.9,50.9,219.4,785.8)" />
<use xlink:href="#f0_21" transform="matrix(50.9,-50.9,50.9,50.9,262.7,742.5)" />
<use xlink:href="#f0_2k" transform="matrix(50.9,-50.9,50.9,50.9,305.9,699.3)" />
<use xlink:href="#f0_1x" transform="matrix(50.9,-50.9,50.9,50.9,344.8,660.4)" />
<use xlink:href="#f0_29" transform="matrix(50.9,-50.9,50.9,50.9,388,617.2)" />
<use xlink:href="#f0_2c" transform="matrix(50.9,-50.9,50.9,50.9,452.8,552.4)" />
<use xlink:href="#f0_2b" transform="matrix(50.9,-50.9,50.9,50.9,496.1,509.1)" />
<use xlink:href="#f0_25" transform="matrix(50.9,-50.9,50.9,50.9,539.3,465.9)" />
<use xlink:href="#f0_2a" transform="matrix(50.9,-50.9,50.9,50.9,556.6,448.6)" />
<use xlink:href="#f0_2g" transform="matrix(50.9,-50.9,50.9,50.9,599.8,405.4)" />
</g>
<g fill="#000000" >
<use xlink:href="#f1_n" transform="matrix(10.4,0,0,10.4,68.8,127.2)" />
<use xlink:href="#f1_h" transform="matrix(10.4,0,0,10.4,77.7,127.2)" />
<use xlink:href="#f1_1f" transform="matrix(10.4,0,0,10.4,100.5,127.2)" />
<use xlink:href="#f1_2d" transform="matrix(10.4,0,0,10.4,111.4,127.2)" />
<use xlink:href="#f1_2a" transform="matrix(10.4,0,0,10.4,116.7,127.2)" />
<use xlink:href="#f1_2h" transform="matrix(10.4,0,0,10.4,125.5,127.2)" />
<use xlink:href="#f1_20" transform="matrix(10.4,0,0,10.4,133.8,127.2)" />
</g>
<path d="M153.2,166.9H216m92.3,0h68.3" class="g0_9" />
<path d="M297.6,173.8l1.5,-2.1l4,16.2l4.3,-42.6h70.5" class="g1_9" />
<path fill-rule="evenodd" d="M297.4,173.7l2.1,-3l3.5,13.8l4,-39.6h70.9v.8H307.7l-4.2,42.2h-.8l-4,-15.1l-.8,1.2l-.5,-.3Z" class="g2_9" />
<path d="M413.4,166.9h10.7m113.7,-8.2l-5.1,15.9" class="g0_9" />
<g fill="#000000" >
<use xlink:href="#f2_c" transform="matrix(10.3,0,0,13.8,500.2,171.7)" />
<use xlink:href="#f2_d" transform="matrix(10.3,0,0,13.8,548.9,171.7)" />
<use xlink:href="#f1_k" transform="matrix(7.9,0,0,7.8,133.2,161.6)" />
<use xlink:href="#f1_k" transform="matrix(7.9,0,0,7.8,277.4,161.6)" />
<use xlink:href="#f1_1y" transform="matrix(10.4,0,0,10.4,165.1,160.8)" />
<use xlink:href="#f1_2a" transform="matrix(10.4,0,0,10.4,173.4,160.8)" />
<use xlink:href="#f1_2e" transform="matrix(10.4,0,0,10.4,182.7,160.8)" />
<use xlink:href="#f1_k" transform="matrix(10.4,0,0,10.4,308,160.8)" />
<use xlink:href="#f1_1y" transform="matrix(10.4,0,0,10.4,336.6,160.8)" />
<use xlink:href="#f1_2a" transform="matrix(10.4,0,0,10.4,344.9,160.8)" />
<use xlink:href="#f1_2e" transform="matrix(10.4,0,0,10.4,354.2,160.8)" />
<use xlink:href="#f1_2f" transform="matrix(10.4,0,0,10.4,103.6,171.1)" />
<use xlink:href="#f1_1w" transform="matrix(10.4,0,0,10.4,108.3,171.1)" />
<use xlink:href="#f1_29" transform="matrix(10.4,0,0,10.4,117.6,171.1)" />
<use xlink:href="#f1_1y" transform="matrix(10.4,0,0,10.4,247.7,171.1)" />
<use xlink:href="#f1_2a" transform="matrix(10.4,0,0,10.4,255.9,171.1)" />
<use xlink:href="#f1_2f" transform="matrix(10.4,0,0,10.4,265.2,171.1)" />
<use xlink:href="#f1_j" transform="matrix(10.4,0,0,10.4,507.2,171.1)" />
<use xlink:href="#f1_f" transform="matrix(10.4,0,0,10.4,515.2,171.1)" />
<use xlink:href="#f1_l" transform="matrix(10.4,0,0,10.4,538.7,171.1)" />
<use xlink:href="#f1_h" transform="matrix(10.4,0,0,10.4,557.1,171.1)" />
<use xlink:href="#f1_k" transform="matrix(10.4,0,0,10.4,153.1,186.5)" />
<use xlink:href="#f1_2e" transform="matrix(10.4,0,0,10.4,181.4,186.5)" />
<use xlink:href="#f1_24" transform="matrix(10.4,0,0,10.4,189.7,186.5)" />
<use xlink:href="#f1_29" transform="matrix(10.4,0,0,10.4,193.5,186.5)" />
<use xlink:href="#f1_k" transform="matrix(10.4,0,0,10.4,308.1,186.5)" />
<use xlink:href="#f1_1y" transform="matrix(10.4,0,0,10.4,336.5,186.5)" />
<use xlink:href="#f1_2a" transform="matrix(10.4,0,0,10.4,344.8,186.5)" />
<use xlink:href="#f1_2e" transform="matrix(10.4,0,0,10.4,354.1,186.5)" />
<use xlink:href="#f1_n" transform="matrix(10.4,0,0,10.4,414.3,186.5)" />
<use xlink:href="#f2_h" transform="matrix(7.8,0,0,7.8,126.5,161.6)" />
<use xlink:href="#f2_h" transform="matrix(7.8,0,0,7.8,270.6,161.6)" />
<use xlink:href="#f2_4o" transform="matrix(10.4,0,0,10.4,287.8,158.5)" />
<use xlink:href="#f2_54" transform="matrix(10.4,0,0,10.4,379.6,158.5)" />
<use xlink:href="#f2_f" transform="matrix(10.4,0,0,10.4,321,160.8)" />
<use xlink:href="#f2_2c" transform="matrix(10.4,0,0,10.4,414.4,160.8)" />
<use xlink:href="#f2_4o" transform="matrix(10.4,0,0,10.4,143.6,161.9)" />
<use xlink:href="#f2_54" transform="matrix(10.4,0,0,10.4,217.8,161.9)" />
<use xlink:href="#f2_h" transform="matrix(10.4,0,0,10.4,232.3,171.1)" />
<use xlink:href="#f2_x" transform="matrix(10.4,0,0,10.4,395.7,171.1)" />
<use xlink:href="#f2_40" transform="matrix(10.4,0,0,10.4,483.9,171.1)" />
<use xlink:href="#f2_2c" transform="matrix(10.4,0,0,10.4,523.5,171.1)" />
<use xlink:href="#f2_4p" transform="matrix(10.4,0,0,10.4,287.8,176.3)" />
<use xlink:href="#f2_55" transform="matrix(10.4,0,0,10.4,379.6,176.3)" />
<use xlink:href="#f2_4p" transform="matrix(10.4,0,0,10.4,143.6,176.6)" />
<use xlink:href="#f2_55" transform="matrix(10.4,0,0,10.4,217.8,176.6)" />
<use xlink:href="#f2_4q" transform="matrix(10.4,0,0,10.4,143.6,183.2)" />
<use xlink:href="#f2_56" transform="matrix(10.4,0,0,10.4,217.8,183.2)" />
<use xlink:href="#f2_4q" transform="matrix(10.4,0,0,10.4,287.8,184.3)" />
<use xlink:href="#f2_56" transform="matrix(10.4,0,0,10.4,379.6,184.3)" />
<use xlink:href="#f2_h" transform="matrix(10.4,0,0,10.4,166,186.5)" />
<use xlink:href="#f2_h" transform="matrix(10.4,0,0,10.4,321.1,186.5)" />
<use xlink:href="#f3_2j" transform="matrix(10.4,0,0,10.4,195.5,160.8)" />
<use xlink:href="#f3_2j" transform="matrix(10.4,0,0,10.4,367.1,160.8)" />
<use xlink:href="#f3_2j" transform="matrix(10.4,0,0,10.4,467.1,171.1)" />
<use xlink:href="#f3_2j" transform="matrix(10.4,0,0,10.4,206.6,186.5)" />
<use xlink:href="#f3_2j" transform="matrix(10.4,0,0,10.4,366.9,186.5)" />
<use xlink:href="#f1_o" transform="matrix(10.4,0,0,10.4,68.8,254.6)" />
<use xlink:href="#f1_h" transform="matrix(10.4,0,0,10.4,77.7,254.6)" />
<use xlink:href="#f1_1f" transform="matrix(10.4,0,0,10.4,100.5,254.6)" />
<use xlink:href="#f1_2d" transform="matrix(10.4,0,0,10.4,111.4,254.6)" />
<use xlink:href="#f1_2a" transform="matrix(10.4,0,0,10.4,116.7,254.6)" />
<use xlink:href="#f1_2h" transform="matrix(10.4,0,0,10.4,125.5,254.6)" />
<use xlink:href="#f1_20" transform="matrix(10.4,0,0,10.4,133.8,254.6)" />
</g>
<path d="M242.4,268.2l1.5,-1.3l3.9,8.9l4.3,-23.4h60.5" class="g1_9" />
<path fill-rule="evenodd" d="M242.2,268l2.1,-1.7l3.5,7.4l4,-21.7h60.8v.8H252.4l-4.2,23h-.7l-4,-8.3l-1,.8l-.3,-.3Z" class="g2_9" />
<path d="M241,249.7h72.8m74.6,0h11.8" class="g3_9" />
<path d="M481.2,237.3l1.6,-1.3l3.9,8.9L491,221.5h59.7" class="g1_9" />
<path fill-rule="evenodd" d="M481.1,237.1l2.1,-1.7l3.5,7.4l4,-21.7h60v.8H491.3l-4.2,23h-.7l-4,-8.3l-1,.9l-.3,-.4Z" class="g2_9" />
<path d="M479.9,249.7h72" class="g3_9" />
<g fill="#000000" >
<use xlink:href="#f1_l" transform="matrix(7.9,0,0,7.9,500.6,234)" />
<use xlink:href="#f1_l" transform="matrix(7.9,0,0,7.9,541.7,234)" />
<use xlink:href="#f1_99" transform="matrix(7.9,0,0,7.9,213.7,244.4)" />
<use xlink:href="#f1_k" transform="matrix(7.9,0,0,7.9,220.6,244.4)" />
<use xlink:href="#f1_99" transform="matrix(7.9,0,0,7.9,370.2,244.4)" />
<use xlink:href="#f1_k" transform="matrix(7.9,0,0,7.9,377.2,244.4)" />
<use xlink:href="#f1_99" transform="matrix(7.9,0,0,7.9,452.7,244.4)" />
<use xlink:href="#f1_k" transform="matrix(7.9,0,0,7.9,459.6,244.4)" />
<use xlink:href="#f1_l" transform="matrix(7.9,0,0,7.9,261.6,264.9)" />
<use xlink:href="#f1_l" transform="matrix(7.9,0,0,7.9,303.5,264.9)" />
<use xlink:href="#f1_2f" transform="matrix(10.5,0,0,10.5,190.3,254)" />
<use xlink:href="#f1_1w" transform="matrix(10.5,0,0,10.5,195.1,254)" />
<use xlink:href="#f1_29" transform="matrix(10.5,0,0,10.5,204.4,254)" />
<use xlink:href="#f1_2e" transform="matrix(10.5,0,0,10.5,348.9,254)" />
<use xlink:href="#f1_24" transform="matrix(10.5,0,0,10.5,357.2,254)" />
<use xlink:href="#f1_29" transform="matrix(10.5,0,0,10.5,361,254)" />
<use xlink:href="#f1_1y" transform="matrix(10.5,0,0,10.5,426.3,254)" />
<use xlink:href="#f1_2a" transform="matrix(10.5,0,0,10.5,434.6,254)" />
<use xlink:href="#f1_2e" transform="matrix(10.5,0,0,10.5,443.9,254)" />
<use xlink:href="#f1_h" transform="matrix(10.5,0,0,10.5,564.9,254)" />
<use xlink:href="#f1_99" transform="matrix(10.5,0,0,10.5,276.8,274.5)" />
<use xlink:href="#f3_2j" transform="matrix(10.5,0,0,10.5,272.4,243.6)" />
<use xlink:href="#f3_2j" transform="matrix(10.5,0,0,10.5,389.4,243.6)" />
<use xlink:href="#f3_1w" transform="matrix(10.5,0,0,10.5,490.9,243.6)" />
<use xlink:href="#f3_2j" transform="matrix(10.5,0,0,10.5,531.3,243.6)" />
<use xlink:href="#f3_1w" transform="matrix(10.5,0,0,10.5,389.4,269.6)" />
<use xlink:href="#f3_1w" transform="matrix(10.5,0,0,10.5,511,269.6)" />
<use xlink:href="#f3_1w" transform="matrix(10.5,0,0,10.5,251.9,274.5)" />
<use xlink:href="#f3_2j" transform="matrix(10.5,0,0,10.5,293.1,274.5)" />
<use xlink:href="#f2_4o" transform="matrix(10.5,0,0,10.5,470.1,234.8)" />
<use xlink:href="#f2_54" transform="matrix(10.5,0,0,10.5,553.7,234.8)" />
<use xlink:href="#f2_h" transform="matrix(10.5,0,0,10.5,515.6,243.6)" />
<use xlink:href="#f2_4o" transform="matrix(10.5,0,0,10.5,231.1,244.7)" />
<use xlink:href="#f2_54" transform="matrix(10.5,0,0,10.5,315.4,244.7)" />
<use xlink:href="#f2_4p" transform="matrix(10.5,0,0,10.5,470.1,252.8)" />
<use xlink:href="#f2_55" transform="matrix(10.5,0,0,10.5,553.7,252.8)" />
<use xlink:href="#f2_x" transform="matrix(10.5,0,0,10.5,331.7,254)" />
<use xlink:href="#f2_x" transform="matrix(10.5,0,0,10.5,409.1,254)" />
<use xlink:href="#f2_4p" transform="matrix(10.5,0,0,10.5,231.1,262.7)" />
<use xlink:href="#f2_55" transform="matrix(10.5,0,0,10.5,315.4,262.7)" />
<use xlink:href="#f2_4q" transform="matrix(10.5,0,0,10.5,470.1,266.2)" />
<use xlink:href="#f2_56" transform="matrix(10.5,0,0,10.5,553.7,266.2)" />
<use xlink:href="#f2_4q" transform="matrix(10.5,0,0,10.5,231.1,272.2)" />
<use xlink:href="#f2_56" transform="matrix(10.5,0,0,10.5,315.4,272.2)" />
<use xlink:href="#f1_p" transform="matrix(10.4,0,0,10.4,68.8,302.7)" />
<use xlink:href="#f1_h" transform="matrix(10.4,0,0,10.4,77.7,302.7)" />
<use xlink:href="#f1_1f" transform="matrix(10.4,0,0,10.4,100.5,302.7)" />
<use xlink:href="#f1_2d" transform="matrix(10.4,0,0,10.4,111.4,302.7)" />
<use xlink:href="#f1_2a" transform="matrix(10.4,0,0,10.4,116.7,302.7)" />
<use xlink:href="#f1_2h" transform="matrix(10.4,0,0,10.4,125.5,302.7)" />
<use xlink:href="#f1_20" transform="matrix(10.4,0,0,10.4,133.8,302.7)" />
</g>
<path d="M244.9,340.8h18.3m177.5,0h18.4m93.9,0h28.8" class="g0_9" />
<g fill="#000000" >
<use xlink:href="#f1_99" transform="matrix(7.9,0,0,7.9,126,335.5)" />
<use xlink:href="#f1_k" transform="matrix(7.9,0,0,7.9,132.9,335.5)" />
<use xlink:href="#f1_99" transform="matrix(7.9,0,0,7.9,226.7,335.5)" />
<use xlink:href="#f1_k" transform="matrix(7.9,0,0,7.9,233.6,335.5)" />
<use xlink:href="#f1_99" transform="matrix(7.9,0,0,7.9,326.7,335.5)" />
<use xlink:href="#f1_k" transform="matrix(7.9,0,0,7.9,333.6,335.5)" />
<use xlink:href="#f1_99" transform="matrix(7.9,0,0,7.9,422.4,335.5)" />
<use xlink:href="#f1_k" transform="matrix(7.9,0,0,7.9,429.3,335.5)" />
<use xlink:href="#f1_99" transform="matrix(7.9,0,0,7.9,525.6,335.5)" />
<use xlink:href="#f1_k" transform="matrix(7.9,0,0,7.9,532.5,335.5)" />
<use xlink:href="#f1_r" transform="matrix(10.5,0,0,10.5,249.6,334.7)" />
<use xlink:href="#f1_r" transform="matrix(10.5,0,0,10.5,445.3,334.7)" />
<use xlink:href="#f1_m" transform="matrix(10.5,0,0,10.5,553.4,334.7)" />
<use xlink:href="#f1_j" transform="matrix(10.5,0,0,10.5,562.7,334.7)" />
<use xlink:href="#f1_j" transform="matrix(10.5,0,0,10.5,572,334.7)" />
<use xlink:href="#f1_1y" transform="matrix(10.5,0,0,10.5,103.1,345.1)" />
<use xlink:href="#f1_2a" transform="matrix(10.5,0,0,10.5,111.4,345.1)" />
<use xlink:href="#f1_2f" transform="matrix(10.5,0,0,10.5,120.7,345.1)" />
<use xlink:href="#f1_l" transform="matrix(10.5,0,0,10.5,151.8,345.1)" />
<use xlink:href="#f1_2f" transform="matrix(10.5,0,0,10.5,164.7,345.1)" />
<use xlink:href="#f1_1w" transform="matrix(10.5,0,0,10.5,169.5,345.1)" />
<use xlink:href="#f1_29" transform="matrix(10.5,0,0,10.5,178.7,345.1)" />
<use xlink:href="#f1_1y" transform="matrix(10.5,0,0,10.5,200.4,345.1)" />
<use xlink:href="#f1_2a" transform="matrix(10.5,0,0,10.5,208.7,345.1)" />
<use xlink:href="#f1_2e" transform="matrix(10.5,0,0,10.5,218,345.1)" />
<use xlink:href="#f1_2f" transform="matrix(10.5,0,0,10.5,303.4,345.1)" />
<use xlink:href="#f1_1w" transform="matrix(10.5,0,0,10.5,308.2,345.1)" />
<use xlink:href="#f1_29" transform="matrix(10.5,0,0,10.5,317.4,345.1)" />
<use xlink:href="#f1_l" transform="matrix(10.5,0,0,10.5,352.5,345.1)" />
<use xlink:href="#f1_2f" transform="matrix(10.5,0,0,10.5,365.4,345.1)" />
<use xlink:href="#f1_1w" transform="matrix(10.5,0,0,10.5,370.2,345.1)" />
<use xlink:href="#f1_29" transform="matrix(10.5,0,0,10.5,379.5,345.1)" />
<use xlink:href="#f1_2e" transform="matrix(10.5,0,0,10.5,401.2,345.1)" />
<use xlink:href="#f1_24" transform="matrix(10.5,0,0,10.5,409.5,345.1)" />
<use xlink:href="#f1_29" transform="matrix(10.5,0,0,10.5,413.2,345.1)" />
<use xlink:href="#f1_2f" transform="matrix(10.5,0,0,10.5,502.3,345.1)" />
<use xlink:href="#f1_1w" transform="matrix(10.5,0,0,10.5,507.1,345.1)" />
<use xlink:href="#f1_29" transform="matrix(10.5,0,0,10.5,516.4,345.1)" />
<use xlink:href="#f1_h" transform="matrix(10.5,0,0,10.5,594.4,345.1)" />
<use xlink:href="#f1_k" transform="matrix(10.5,0,0,10.5,244.3,360.7)" />
<use xlink:href="#f1_q" transform="matrix(10.5,0,0,10.5,253.6,360.7)" />
<use xlink:href="#f1_k" transform="matrix(10.5,0,0,10.5,440,360.7)" />
<use xlink:href="#f1_q" transform="matrix(10.5,0,0,10.5,449.3,360.7)" />
<use xlink:href="#f1_k" transform="matrix(10.5,0,0,10.5,554.1,360.7)" />
<use xlink:href="#f1_p" transform="matrix(10.5,0,0,10.5,563.3,360.7)" />
<use xlink:href="#f1_k" transform="matrix(10.5,0,0,10.5,572.6,360.7)" />
<use xlink:href="#f2_4r" transform="matrix(10.5,0,0,10.5,144,334.7)" />
<use xlink:href="#f2_57" transform="matrix(10.5,0,0,10.5,274.5,334.7)" />
<use xlink:href="#f2_4r" transform="matrix(10.5,0,0,10.5,344.8,334.7)" />
<use xlink:href="#f2_57" transform="matrix(10.5,0,0,10.5,470.3,334.7)" />
<use xlink:href="#f2_4o" transform="matrix(10.5,0,0,10.5,191.2,335.8)" />
<use xlink:href="#f2_54" transform="matrix(10.5,0,0,10.5,264.8,335.8)" />
<use xlink:href="#f2_4o" transform="matrix(10.5,0,0,10.5,391.9,335.8)" />
<use xlink:href="#f2_54" transform="matrix(10.5,0,0,10.5,460.5,335.8)" />
<use xlink:href="#f2_4o" transform="matrix(10.5,0,0,10.5,543,335.8)" />
<use xlink:href="#f2_54" transform="matrix(10.5,0,0,10.5,583.2,335.8)" />
<use xlink:href="#f2_f" transform="matrix(10.5,0,0,10.5,287.5,345.1)" />
<use xlink:href="#f2_x" transform="matrix(10.5,0,0,10.5,484.9,345.1)" />
<use xlink:href="#f2_4s" transform="matrix(10.5,0,0,10.5,144,350.2)" />
<use xlink:href="#f2_58" transform="matrix(10.5,0,0,10.5,274.5,350.2)" />
<use xlink:href="#f2_4s" transform="matrix(10.5,0,0,10.5,344.8,350.2)" />
<use xlink:href="#f2_58" transform="matrix(10.5,0,0,10.5,470.3,350.2)" />
<use xlink:href="#f2_4p" transform="matrix(10.5,0,0,10.5,191.2,350.5)" />
<use xlink:href="#f2_55" transform="matrix(10.5,0,0,10.5,264.8,350.5)" />
<use xlink:href="#f2_4p" transform="matrix(10.5,0,0,10.5,391.9,350.5)" />
<use xlink:href="#f2_55" transform="matrix(10.5,0,0,10.5,460.5,350.5)" />
<use xlink:href="#f2_4p" transform="matrix(10.5,0,0,10.5,543,350.7)" />
<use xlink:href="#f2_55" transform="matrix(10.5,0,0,10.5,583.2,350.7)" />
<use xlink:href="#f2_4q" transform="matrix(10.5,0,0,10.5,191.2,357.1)" />
<use xlink:href="#f2_56" transform="matrix(10.5,0,0,10.5,264.8,357.1)" />
<use xlink:href="#f2_4q" transform="matrix(10.5,0,0,10.5,391.9,357.1)" />
<use xlink:href="#f2_56" transform="matrix(10.5,0,0,10.5,460.5,357.1)" />
<use xlink:href="#f2_4q" transform="matrix(10.5,0,0,10.5,543,357.3)" />
<use xlink:href="#f2_56" transform="matrix(10.5,0,0,10.5,583.2,357.3)" />
<use xlink:href="#f2_4t" transform="matrix(10.5,0,0,10.5,144,361.6)" />
<use xlink:href="#f2_59" transform="matrix(10.5,0,0,10.5,274.5,361.6)" />
<use xlink:href="#f2_4t" transform="matrix(10.5,0,0,10.5,344.8,361.6)" />
<use xlink:href="#f2_59" transform="matrix(10.5,0,0,10.5,470.3,361.6)" />
<use xlink:href="#f1_q" transform="matrix(10.4,0,0,10.4,68.8,433.6)" />
<use xlink:href="#f1_h" transform="matrix(10.4,0,0,10.4,77.7,433.6)" />
<use xlink:href="#f1_1f" transform="matrix(10.4,0,0,10.4,100.5,433.6)" />
<use xlink:href="#f1_2d" transform="matrix(10.4,0,0,10.4,111.4,433.6)" />
<use xlink:href="#f1_2a" transform="matrix(10.4,0,0,10.4,116.7,433.6)" />
<use xlink:href="#f1_2h" transform="matrix(10.4,0,0,10.4,125.5,433.6)" />
<use xlink:href="#f1_20" transform="matrix(10.4,0,0,10.4,133.8,433.6)" />
</g>
<path d="M241.6,416.2l1.5,-1.3l4,8.9l4.2,-23.2h47.1" class="g1_9" />
<path fill-rule="evenodd" d="M241.5,416l2.1,-1.6l3.5,7.3L251,400.2h47.4v.8H251.7l-4.2,22.8h-.8l-4,-8.2l-1,.8l-.2,-.4Z" class="g2_9" />
<path d="M321.9,416.2l1.5,-1.3l4,8.9l4.2,-23.2h46.9" class="g1_9" />
<path fill-rule="evenodd" d="M321.8,416l2.1,-1.6l3.5,7.3l3.9,-21.5h47.2v.8H332l-4.2,22.8H327l-4,-8.2l-1,.8l-.2,-.4Z" class="g2_9" />
<path d="M241.7,447.1l1.5,-1.3l4,8.9l4.2,-23.2h47.1" class="g1_9" />
<path fill-rule="evenodd" d="M241.6,446.9l2.1,-1.6l3.5,7.3l3.9,-21.5h47.4v.8H251.8l-4.2,22.8h-.8l-4,-8.2l-1,.8l-.2,-.4Z" class="g2_9" />
<path d="M321.8,447.1l1.5,-1.3l3.9,8.9l4.3,-23.2h46.8" class="g1_9" />
<path fill-rule="evenodd" d="M321.6,446.9l2.1,-1.6l3.5,7.3l4,-21.5h47.1v.8H331.8l-4.2,22.8h-.7l-4,-8.2l-1,.8l-.3,-.4Z" class="g2_9" />
<path d="M240.2,428.8H379.7m35.5,0h10.7m23.4,0h10.3" class="g4_9" />
<g fill="#000000" >
<use xlink:href="#f2_h" transform="matrix(7.9,0,0,7.9,213.3,423.5)" />
<use xlink:href="#f2_h" transform="matrix(7.9,0,0,7.9,490.3,423.5)" />
<use xlink:href="#f2_4o" transform="matrix(10.5,0,0,10.5,230.5,413.9)" />
<use xlink:href="#f2_54" transform="matrix(10.5,0,0,10.5,381.4,413.9)" />
<use xlink:href="#f2_f" transform="matrix(10.5,0,0,10.5,263.7,422.7)" />
<use xlink:href="#f2_f" transform="matrix(10.5,0,0,10.5,305.6,422.7)" />
<use xlink:href="#f2_h" transform="matrix(10.5,0,0,10.5,344,422.7)" />
<use xlink:href="#f2_2c" transform="matrix(10.5,0,0,10.5,416.2,422.7)" />
<use xlink:href="#f2_4p" transform="matrix(10.5,0,0,10.5,230.5,431.9)" />
<use xlink:href="#f2_55" transform="matrix(10.5,0,0,10.5,381.4,431.9)" />
<use xlink:href="#f2_x" transform="matrix(10.5,0,0,10.5,397.5,433.1)" />
<use xlink:href="#f2_f" transform="matrix(10.5,0,0,10.5,433.1,433.1)" />
<use xlink:href="#f2_4p" transform="matrix(10.5,0,0,10.5,230.5,444.5)" />
<use xlink:href="#f2_55" transform="matrix(10.5,0,0,10.5,381.4,444.5)" />
<use xlink:href="#f2_4q" transform="matrix(10.5,0,0,10.5,230.5,451.1)" />
<use xlink:href="#f2_56" transform="matrix(10.5,0,0,10.5,381.4,451.1)" />
<use xlink:href="#f2_f" transform="matrix(10.5,0,0,10.5,263.8,453.6)" />
<use xlink:href="#f2_h" transform="matrix(10.5,0,0,10.5,305.7,453.6)" />
<use xlink:href="#f2_h" transform="matrix(10.5,0,0,10.5,343.8,453.6)" />
<use xlink:href="#f1_l" transform="matrix(7.9,0,0,7.9,289.3,413.1)" />
<use xlink:href="#f1_l" transform="matrix(7.9,0,0,7.9,369.3,413.1)" />
<use xlink:href="#f1_k" transform="matrix(7.9,0,0,7.9,220,423.5)" />
<use xlink:href="#f1_k" transform="matrix(7.9,0,0,7.9,497,423.5)" />
<use xlink:href="#f1_l" transform="matrix(7.9,0,0,7.9,517.6,423.5)" />
<use xlink:href="#f1_l" transform="matrix(7.9,0,0,7.9,289.4,444)" />
<use xlink:href="#f1_l" transform="matrix(7.9,0,0,7.9,369.1,444)" />
<use xlink:href="#f1_k" transform="matrix(10.5,0,0,10.5,250.8,422.7)" />
<use xlink:href="#f1_k" transform="matrix(10.5,0,0,10.5,331.1,422.7)" />
<use xlink:href="#f1_k" transform="matrix(10.5,0,0,10.5,450.8,422.7)" />
<use xlink:href="#f1_2f" transform="matrix(10.5,0,0,10.5,190.4,433.1)" />
<use xlink:href="#f1_1w" transform="matrix(10.5,0,0,10.5,195.2,433.1)" />
<use xlink:href="#f1_29" transform="matrix(10.5,0,0,10.5,204.5,433.1)" />
<use xlink:href="#f1_1y" transform="matrix(10.5,0,0,10.5,464.1,433.1)" />
<use xlink:href="#f1_2a" transform="matrix(10.5,0,0,10.5,472.4,433.1)" />
<use xlink:href="#f1_2e" transform="matrix(10.5,0,0,10.5,481.7,433.1)" />
<use xlink:href="#f1_h" transform="matrix(10.5,0,0,10.5,525.2,433.1)" />
<use xlink:href="#f1_n" transform="matrix(10.5,0,0,10.5,416.1,448.7)" />
<use xlink:href="#f1_l" transform="matrix(10.5,0,0,10.5,450,448.7)" />
<use xlink:href="#f1_k" transform="matrix(10.5,0,0,10.5,250.9,453.6)" />
<use xlink:href="#f1_k" transform="matrix(10.5,0,0,10.5,330.9,453.6)" />
<use xlink:href="#f3_2j" transform="matrix(10.5,0,0,10.5,280.1,422.7)" />
<use xlink:href="#f3_2j" transform="matrix(10.5,0,0,10.5,360.1,422.7)" />
<use xlink:href="#f3_2j" transform="matrix(10.5,0,0,10.5,508.4,433.1)" />
<use xlink:href="#f3_2j" transform="matrix(10.5,0,0,10.5,280.2,453.6)" />
<use xlink:href="#f3_2j" transform="matrix(10.5,0,0,10.5,360,453.6)" />
<use xlink:href="#f1_r" transform="matrix(10.4,0,0,10.4,68.8,513.1)" />
<use xlink:href="#f1_h" transform="matrix(10.4,0,0,10.4,77.7,513.1)" />
<use xlink:href="#f1_1i" transform="matrix(10.4,0,0,10.4,100.5,513.1)" />
<use xlink:href="#f1_2a" transform="matrix(10.4,0,0,10.4,111.4,513.1)" />
<use xlink:href="#f1_27" transform="matrix(10.4,0,0,10.4,120.2,513.1)" />
<use xlink:href="#f1_2h" transform="matrix(10.4,0,0,10.4,123.8,513.1)" />
<use xlink:href="#f1_20" transform="matrix(10.4,0,0,10.4,132,513.1)" />
</g>
<path d="M358,508.8h10.7" class="g5_9" />
<g fill="#000000" >
<use xlink:href="#f1_99" transform="matrix(7.9,0,0,7.9,213.1,503.5)" />
<use xlink:href="#f1_k" transform="matrix(7.9,0,0,7.9,220,503.5)" />
<use xlink:href="#f1_99" transform="matrix(7.9,0,0,7.9,295.1,503.5)" />
<use xlink:href="#f1_k" transform="matrix(7.9,0,0,7.9,302.1,503.5)" />
<use xlink:href="#f1_1y" transform="matrix(10.5,0,0,10.5,190.2,513.1)" />
<use xlink:href="#f1_2a" transform="matrix(10.5,0,0,10.5,198.5,513.1)" />
<use xlink:href="#f1_2f" transform="matrix(10.5,0,0,10.5,207.8,513.1)" />
<use xlink:href="#f1_l" transform="matrix(10.5,0,0,10.5,230.7,513.1)" />
<use xlink:href="#f1_1y" transform="matrix(10.5,0,0,10.5,272.2,513.1)" />
<use xlink:href="#f1_2a" transform="matrix(10.5,0,0,10.5,280.5,513.1)" />
<use xlink:href="#f1_2f" transform="matrix(10.5,0,0,10.5,289.9,513.1)" />
<use xlink:href="#f1_m" transform="matrix(10.5,0,0,10.5,312.8,513.1)" />
<use xlink:href="#f1_h" transform="matrix(10.5,0,0,10.5,372.9,513.1)" />
<use xlink:href="#f1_n" transform="matrix(10.5,0,0,10.5,359.2,528.7)" />
<use xlink:href="#f3_2j" transform="matrix(10.5,0,0,10.5,239.8,513.1)" />
<use xlink:href="#f3_2j" transform="matrix(10.5,0,0,10.5,322.1,513.1)" />
<use xlink:href="#f2_2c" transform="matrix(10.5,0,0,10.5,359.2,502.7)" />
<use xlink:href="#f2_f" transform="matrix(10.5,0,0,10.5,256.5,513.1)" />
<use xlink:href="#f2_x" transform="matrix(10.5,0,0,10.5,340.5,513.1)" />
<use xlink:href="#f1_s" transform="matrix(10.4,0,0,10.4,68.8,586.1)" />
<use xlink:href="#f1_h" transform="matrix(10.4,0,0,10.4,77.7,586.1)" />
<use xlink:href="#f1_1f" transform="matrix(10.4,0,0,10.4,100.5,586.1)" />
<use xlink:href="#f1_2d" transform="matrix(10.4,0,0,10.4,111.2,586.1)" />
<use xlink:href="#f1_2a" transform="matrix(10.4,0,0,10.4,116.5,586.1)" />
<use xlink:href="#f1_2h" transform="matrix(10.4,0,0,10.4,125.4,586.1)" />
<use xlink:href="#f1_20" transform="matrix(10.4,0,0,10.4,133.3,586.1)" />
<use xlink:href="#f1_2f" transform="matrix(10.4,0,0,10.4,149.9,586.1)" />
<use xlink:href="#f1_23" transform="matrix(10.4,0,0,10.4,154.3,586.1)" />
<use xlink:href="#f1_1w" transform="matrix(10.4,0,0,10.4,163.2,586.1)" />
<use xlink:href="#f1_2f" transform="matrix(10.4,0,0,10.4,172.1,586.1)" />
</g>
<path d="M234.9,582.1h15m68.3,0h39.5m26.4,0h10.8" class="g5_9" />
<g fill="#000000" >
<use xlink:href="#f1_k" transform="matrix(7,0,0,7.1,218.6,579.1)" />
<use xlink:href="#f1_k" transform="matrix(7,0,0,7.1,302.1,579.1)" />
<use xlink:href="#f1_2f" transform="matrix(10.7,0,0,10.6,190.4,586.4)" />
<use xlink:href="#f1_1w" transform="matrix(10.7,0,0,10.6,194.9,586.4)" />
<use xlink:href="#f1_29" transform="matrix(10.7,0,0,10.6,203.9,586.4)" />
<use xlink:href="#f1_2f" transform="matrix(10.7,0,0,10.6,273.8,586.4)" />
<use xlink:href="#f1_1w" transform="matrix(10.7,0,0,10.6,278.4,586.4)" />
<use xlink:href="#f1_29" transform="matrix(10.7,0,0,10.6,287.4,586.4)" />
<use xlink:href="#f1_f" transform="matrix(10.7,0,0,10.6,396.6,586.4)" />
<use xlink:href="#f1_f" transform="matrix(10.7,0,0,10.6,417.3,586.4)" />
<use xlink:href="#f1_j" transform="matrix(10.7,0,0,10.6,451.6,586.4)" />
<use xlink:href="#f1_n" transform="matrix(10.7,0,0,10.6,385.4,598.9)" />
<use xlink:href="#f3_28" transform="matrix(10.7,0,0,10.6,235.1,575.9)" />
<use xlink:href="#f3_28" transform="matrix(10.7,0,0,10.6,318.7,575.9)" />
<use xlink:href="#f3_29" transform="matrix(10.7,0,0,10.6,347.5,575.9)" />
<use xlink:href="#f3_28" transform="matrix(10.7,0,0,10.6,403.9,586.4)" />
<use xlink:href="#f3_29" transform="matrix(10.7,0,0,10.6,424.6,586.4)" />
<use xlink:href="#f3_29" transform="matrix(10.7,0,0,10.6,237.4,598.9)" />
<use xlink:href="#f3_28" transform="matrix(10.7,0,0,10.6,318.6,598.9)" />
<use xlink:href="#f3_29" transform="matrix(10.7,0,0,10.6,347.6,598.9)" />
<use xlink:href="#f2_h" transform="matrix(7.1,0,0,7.1,212.7,579.1)" />
<use xlink:href="#f2_h" transform="matrix(7.1,0,0,7.1,296.1,579.1)" />
<use xlink:href="#f2_h" transform="matrix(10.6,0,0,10.6,336.1,575.9)" />
<use xlink:href="#f2_2c" transform="matrix(10.6,0,0,10.6,385.4,575.9)" />
<use xlink:href="#f2_4o" transform="matrix(10.6,0,0,10.6,226.3,576.9)" />
<use xlink:href="#f2_54" transform="matrix(10.6,0,0,10.6,250.5,576.9)" />
<use xlink:href="#f2_4o" transform="matrix(10.6,0,0,10.6,309.8,576.9)" />
<use xlink:href="#f2_54" transform="matrix(10.6,0,0,10.6,358.5,576.9)" />
<use xlink:href="#f2_h" transform="matrix(10.6,0,0,10.6,261.6,586.4)" />
<use xlink:href="#f2_x" transform="matrix(10.6,0,0,10.6,370.7,586.4)" />
<use xlink:href="#f2_y" transform="matrix(10.6,0,0,10.6,438.6,586.4)" />
<use xlink:href="#f2_4p" transform="matrix(10.6,0,0,10.6,226.3,588.7)" />
<use xlink:href="#f2_55" transform="matrix(10.6,0,0,10.6,250.5,588.7)" />
<use xlink:href="#f2_4p" transform="matrix(10.6,0,0,10.6,309.8,588.7)" />
<use xlink:href="#f2_55" transform="matrix(10.6,0,0,10.6,358.5,588.7)" />
<use xlink:href="#f2_4q" transform="matrix(10.6,0,0,10.6,226.3,595.4)" />
<use xlink:href="#f2_56" transform="matrix(10.6,0,0,10.6,250.5,595.4)" />
<use xlink:href="#f2_4q" transform="matrix(10.6,0,0,10.6,309.8,595.4)" />
<use xlink:href="#f2_56" transform="matrix(10.6,0,0,10.6,358.5,595.4)" />
<use xlink:href="#f2_f" transform="matrix(10.6,0,0,10.6,335.9,598.9)" />
<use xlink:href="#f1_k" transform="matrix(10.4,0,0,10.4,59.8,662.7)" />
<use xlink:href="#f1_j" transform="matrix(10.4,0,0,10.4,68.7,662.7)" />
<use xlink:href="#f1_h" transform="matrix(10.4,0,0,10.4,77.9,662.7)" />
<use xlink:href="#f1_1f" transform="matrix(10.4,0,0,10.4,100.5,662.7)" />
<use xlink:href="#f1_2d" transform="matrix(10.4,0,0,10.4,111.2,662.7)" />
<use xlink:href="#f1_2a" transform="matrix(10.4,0,0,10.4,116.5,662.7)" />
<use xlink:href="#f1_2h" transform="matrix(10.4,0,0,10.4,125.4,662.7)" />
<use xlink:href="#f1_20" transform="matrix(10.4,0,0,10.4,133.3,662.7)" />
<use xlink:href="#f1_2f" transform="matrix(10.4,0,0,10.4,149.9,662.7)" />
<use xlink:href="#f1_23" transform="matrix(10.4,0,0,10.4,154.3,662.7)" />
<use xlink:href="#f1_1w" transform="matrix(10.4,0,0,10.4,163.2,662.7)" />
<use xlink:href="#f1_2f" transform="matrix(10.4,0,0,10.4,172.1,662.7)" />
</g>
<path d="M221.9,657.9h10m45.4,0h40.2m24.6,0h10m52.7,0h40.5m33.9,0h40.3" class="g4_9" />
<g fill="#000000" >
<use xlink:href="#f2_h" transform="matrix(7,0,0,7,255,655)" />
<use xlink:href="#f2_h" transform="matrix(7,0,0,7,382.5,655)" />
<use xlink:href="#f2_4r" transform="matrix(10.5,0,0,10.5,214.8,648.5)" />
<use xlink:href="#f2_57" transform="matrix(10.5,0,0,10.5,454.3,648.5)" />
<use xlink:href="#f2_4o" transform="matrix(10.5,0,0,10.5,396.2,649.8)" />
<use xlink:href="#f2_54" transform="matrix(10.5,0,0,10.5,445.8,649.8)" />
<use xlink:href="#f2_h" transform="matrix(10.5,0,0,10.5,414,651.8)" />
<use xlink:href="#f2_f" transform="matrix(10.5,0,0,10.5,494.7,651.8)" />
<use xlink:href="#f2_4o" transform="matrix(10.5,0,0,10.5,268.7,652.8)" />
<use xlink:href="#f2_54" transform="matrix(10.5,0,0,10.5,318.1,652.8)" />
<use xlink:href="#f2_f" transform="matrix(10.5,0,0,10.5,329.3,662.2)" />
<use xlink:href="#f2_x" transform="matrix(10.5,0,0,10.5,465.3,662.2)" />
<use xlink:href="#f2_4s" transform="matrix(10.5,0,0,10.5,214.8,664)" />
<use xlink:href="#f2_58" transform="matrix(10.5,0,0,10.5,454.3,664)" />
<use xlink:href="#f2_4p" transform="matrix(10.5,0,0,10.5,268.7,665.5)" />
<use xlink:href="#f2_55" transform="matrix(10.5,0,0,10.5,318.1,665.5)" />
<use xlink:href="#f2_4p" transform="matrix(10.5,0,0,10.5,396.2,667.8)" />
<use xlink:href="#f2_55" transform="matrix(10.5,0,0,10.5,445.8,667.8)" />
<use xlink:href="#f2_4q" transform="matrix(10.5,0,0,10.5,268.7,672.3)" />
<use xlink:href="#f2_56" transform="matrix(10.5,0,0,10.5,318.1,672.3)" />
<use xlink:href="#f2_h" transform="matrix(10.5,0,0,10.5,488.4,674.6)" />
<use xlink:href="#f2_f" transform="matrix(10.5,0,0,10.5,286.3,675.8)" />
<use xlink:href="#f2_4q" transform="matrix(10.5,0,0,10.5,396.2,675.8)" />
<use xlink:href="#f2_f" transform="matrix(10.5,0,0,10.5,413.8,675.8)" />
<use xlink:href="#f2_56" transform="matrix(10.5,0,0,10.5,445.8,675.8)" />
<use xlink:href="#f2_4s" transform="matrix(10.5,0,0,10.5,214.8,677.8)" />
<use xlink:href="#f2_58" transform="matrix(10.5,0,0,10.5,454.3,677.8)" />
<use xlink:href="#f2_4t" transform="matrix(10.5,0,0,10.5,214.8,680.5)" />
<use xlink:href="#f2_59" transform="matrix(10.5,0,0,10.5,454.3,680.5)" />
<use xlink:href="#f1_l" transform="matrix(7,0,0,7,436.9,644.6)" />
<use xlink:href="#f1_k" transform="matrix(7,0,0,7,260.8,655)" />
<use xlink:href="#f1_k" transform="matrix(7,0,0,7,388.3,655)" />
<use xlink:href="#f1_l" transform="matrix(7,0,0,7,309.2,668.6)" />
<use xlink:href="#f1_l" transform="matrix(7,0,0,7,436.9,668.6)" />
<use xlink:href="#f1_k" transform="matrix(10.5,0,0,10.5,223.2,651.8)" />
<use xlink:href="#f1_l" transform="matrix(10.5,0,0,10.5,287.9,651.8)" />
<use xlink:href="#f1_k" transform="matrix(10.5,0,0,10.5,343.3,651.8)" />
<use xlink:href="#f1_k" transform="matrix(10.5,0,0,10.5,404.3,651.8)" />
<use xlink:href="#f1_2f" transform="matrix(10.5,0,0,10.5,190.5,662.2)" />
<use xlink:href="#f1_1w" transform="matrix(10.5,0,0,10.5,194.9,662.2)" />
<use xlink:href="#f1_29" transform="matrix(10.5,0,0,10.5,203.8,662.2)" />
<use xlink:href="#f1_2e" transform="matrix(10.5,0,0,10.5,234.1,662.2)" />
<use xlink:href="#f1_24" transform="matrix(10.5,0,0,10.5,242.1,662.2)" />
<use xlink:href="#f1_29" transform="matrix(10.5,0,0,10.5,245.7,662.2)" />
<use xlink:href="#f1_1y" transform="matrix(10.5,0,0,10.5,356.7,662.2)" />
<use xlink:href="#f1_2a" transform="matrix(10.5,0,0,10.5,364.7,662.2)" />
<use xlink:href="#f1_2e" transform="matrix(10.5,0,0,10.5,373.6,662.2)" />
<use xlink:href="#f1_l" transform="matrix(10.5,0,0,10.5,222.6,674.6)" />
<use xlink:href="#f1_l" transform="matrix(10.5,0,0,10.5,342.8,674.6)" />
<use xlink:href="#f1_k" transform="matrix(10.5,0,0,10.5,478.6,674.6)" />
<use xlink:href="#f1_k" transform="matrix(10.5,0,0,10.5,276.8,675.8)" />
<use xlink:href="#f1_k" transform="matrix(10.5,0,0,10.5,404.3,675.8)" />
<use xlink:href="#f3_2j" transform="matrix(10.5,0,0,10.5,296.9,651.8)" />
<use xlink:href="#f3_2k" transform="matrix(10.5,0,0,10.5,426.5,651.8)" />
<use xlink:href="#f3_2j" transform="matrix(10.5,0,0,10.5,481.4,651.8)" />
<use xlink:href="#f3_2k" transform="matrix(10.5,0,0,10.5,507.4,651.8)" />
<use xlink:href="#f3_2j" transform="matrix(10.5,0,0,10.5,500.6,674.6)" />
<use xlink:href="#f3_2k" transform="matrix(10.5,0,0,10.5,508.6,674.6)" />
<use xlink:href="#f3_2j" transform="matrix(10.5,0,0,10.5,298.8,675.8)" />
<use xlink:href="#f3_2k" transform="matrix(10.5,0,0,10.5,426.5,675.8)" />
<use xlink:href="#f1_k" transform="matrix(10.4,0,0,10.4,59.8,737.5)" />
<use xlink:href="#f1_k" transform="matrix(10.4,0,0,10.4,68.7,737.5)" />
<use xlink:href="#f1_h" transform="matrix(10.4,0,0,10.4,77.9,737.5)" />
<use xlink:href="#f1_1i" transform="matrix(10.4,0,0,10.4,100.5,737.5)" />
<use xlink:href="#f1_2a" transform="matrix(10.4,0,0,10.4,111.2,737.5)" />
<use xlink:href="#f1_27" transform="matrix(10.4,0,0,10.4,120,737.5)" />
<use xlink:href="#f1_2h" transform="matrix(10.4,0,0,10.4,123.6,737.5)" />
<use xlink:href="#f1_20" transform="matrix(10.4,0,0,10.4,131.6,737.5)" />
<use xlink:href="#f1_21" transform="matrix(10.4,0,0,10.4,147.4,737.5)" />
<use xlink:href="#f1_2a" transform="matrix(10.4,0,0,10.4,151.8,737.5)" />
<use xlink:href="#f1_2d" transform="matrix(10.4,0,0,10.4,160.7,737.5)" />
<use xlink:href="#f3_2j" transform="matrix(10.4,0,0,10.4,173,737.5)" />
<use xlink:href="#f1_f" transform="matrix(10.4,0,0,10.4,181,737.5)" />
</g>
<path d="M237.9,732.9h40.3m26.6,0H315m49.3,0h40.1m26.4,0h19.7" class="g6_9" />
<g fill="#000000" >
<use xlink:href="#f1_l" transform="matrix(7,0,0,7.1,249.2,719.4)" />
<use xlink:href="#f1_k" transform="matrix(7,0,0,7.1,221.6,729.9)" />
<use xlink:href="#f1_k" transform="matrix(7,0,0,7.1,345.8,729.9)" />
<use xlink:href="#f1_l" transform="matrix(7,0,0,7.1,249,743.6)" />
<use xlink:href="#f1_l" transform="matrix(7,0,0,7.1,396,743.6)" />
<use xlink:href="#f1_k" transform="matrix(10.6,0,0,10.6,271.1,726.7)" />
<use xlink:href="#f1_k" transform="matrix(10.6,0,0,10.6,306.3,726.7)" />
<use xlink:href="#f1_l" transform="matrix(10.6,0,0,10.6,379.3,726.7)" />
<use xlink:href="#f1_l" transform="matrix(10.6,0,0,10.6,431.5,726.7)" />
<use xlink:href="#f1_1y" transform="matrix(10.6,0,0,10.6,190.2,737.2)" />
<use xlink:href="#f1_2a" transform="matrix(10.6,0,0,10.6,198.3,737.2)" />
<use xlink:href="#f1_2e" transform="matrix(10.6,0,0,10.6,207.3,737.2)" />
<use xlink:href="#f1_2f" transform="matrix(10.6,0,0,10.6,317.8,737.2)" />
<use xlink:href="#f1_1w" transform="matrix(10.6,0,0,10.6,322.3,737.2)" />
<use xlink:href="#f1_29" transform="matrix(10.6,0,0,10.6,331.3,737.2)" />
<use xlink:href="#f1_l" transform="matrix(10.6,0,0,10.6,305.5,749.7)" />
<use xlink:href="#f1_m" transform="matrix(10.6,0,0,10.6,436.3,749.7)" />
<use xlink:href="#f1_k" transform="matrix(10.6,0,0,10.6,271.2,750.9)" />
<use xlink:href="#f1_k" transform="matrix(10.6,0,0,10.6,364.1,750.9)" />
<use xlink:href="#f3_2j" transform="matrix(10.6,0,0,10.6,239,726.7)" />
<use xlink:href="#f3_2j" transform="matrix(10.6,0,0,10.6,388.6,726.7)" />
<use xlink:href="#f3_2j" transform="matrix(10.6,0,0,10.6,238.8,750.9)" />
<use xlink:href="#f3_2j" transform="matrix(10.6,0,0,10.6,385.8,750.9)" />
<use xlink:href="#f2_h" transform="matrix(7.1,0,0,7.1,215.7,729.9)" />
<use xlink:href="#f2_h" transform="matrix(7.1,0,0,7.1,339.9,729.9)" />
<use xlink:href="#f2_4o" transform="matrix(10.6,0,0,10.6,229.2,724.7)" />
<use xlink:href="#f2_54" transform="matrix(10.6,0,0,10.6,278.6,724.7)" />
<use xlink:href="#f2_h" transform="matrix(10.6,0,0,10.6,260,726.7)" />
<use xlink:href="#f2_h" transform="matrix(10.6,0,0,10.6,370.5,726.7)" />
<use xlink:href="#f2_2c" transform="matrix(10.6,0,0,10.6,440.6,726.7)" />
<use xlink:href="#f2_4o" transform="matrix(10.6,0,0,10.6,355.6,727.7)" />
<use xlink:href="#f2_54" transform="matrix(10.6,0,0,10.6,404.8,727.7)" />
<use xlink:href="#f2_f" transform="matrix(10.6,0,0,10.6,290.8,737.2)" />
<use xlink:href="#f2_x" transform="matrix(10.6,0,0,10.6,417,737.2)" />
<use xlink:href="#f2_4p" transform="matrix(10.6,0,0,10.6,229.2,740.7)" />
<use xlink:href="#f2_55" transform="matrix(10.6,0,0,10.6,278.6,740.7)" />
<use xlink:href="#f2_4p" transform="matrix(10.6,0,0,10.6,355.6,740.7)" />
<use xlink:href="#f2_55" transform="matrix(10.6,0,0,10.6,404.8,740.7)" />
<use xlink:href="#f2_4q" transform="matrix(10.6,0,0,10.6,229.2,747.3)" />
<use xlink:href="#f2_56" transform="matrix(10.6,0,0,10.6,278.6,747.3)" />
<use xlink:href="#f2_4q" transform="matrix(10.6,0,0,10.6,355.6,747.3)" />
<use xlink:href="#f2_56" transform="matrix(10.6,0,0,10.6,404.8,747.3)" />
<use xlink:href="#f2_f" transform="matrix(10.6,0,0,10.6,259.9,750.9)" />
<use xlink:href="#f2_h" transform="matrix(10.6,0,0,10.6,373.4,750.9)" />
<use xlink:href="#f1_k" transform="matrix(10.4,0,0,10.4,59.8,798.6)" />
<use xlink:href="#f1_l" transform="matrix(10.4,0,0,10.4,68.7,798.6)" />
<use xlink:href="#f1_h" transform="matrix(10.4,0,0,10.4,77.9,798.6)" />
<use xlink:href="#f1_1f" transform="matrix(10.4,0,0,10.4,100.5,798.6)" />
<use xlink:href="#f1_2d" transform="matrix(10.4,0,0,10.4,111.2,798.6)" />
<use xlink:href="#f1_2a" transform="matrix(10.4,0,0,10.4,116.5,798.6)" />
<use xlink:href="#f1_2h" transform="matrix(10.4,0,0,10.4,125.4,798.6)" />
<use xlink:href="#f1_20" transform="matrix(10.4,0,0,10.4,133.3,798.6)" />
<use xlink:href="#f1_2f" transform="matrix(10.4,0,0,10.4,149.9,798.6)" />
<use xlink:href="#f1_23" transform="matrix(10.4,0,0,10.4,154.3,798.6)" />
<use xlink:href="#f1_1w" transform="matrix(10.4,0,0,10.4,163.2,798.6)" />
<use xlink:href="#f1_2f" transform="matrix(10.4,0,0,10.4,172.1,798.6)" />
</g>
<path d="M227,794.2h10.3m52.8,0h10.3m55.1,0h10.3m57.4,0h10.3m18.6,0h10.7" class="g5_9" />
<g fill="#000000" >
<use xlink:href="#f1_k" transform="matrix(7,0,0,7,218.6,791.2)" />
<use xlink:href="#f1_k" transform="matrix(7,0,0,7,281.8,791.2)" />
<use xlink:href="#f1_k" transform="matrix(7,0,0,7,347.3,791.2)" />
<use xlink:href="#f1_k" transform="matrix(7,0,0,7,412.9,791.2)" />
<use xlink:href="#f1_k" transform="matrix(10.5,0,0,10.4,228.6,788)" />
<use xlink:href="#f1_k" transform="matrix(10.5,0,0,10.4,291.8,788)" />
<use xlink:href="#f1_k" transform="matrix(10.5,0,0,10.4,357.3,788)" />
<use xlink:href="#f1_k" transform="matrix(10.5,0,0,10.4,425.1,788)" />
<use xlink:href="#f1_2f" transform="matrix(10.5,0,0,10.4,190.4,798.4)" />
<use xlink:href="#f1_1w" transform="matrix(10.5,0,0,10.4,194.9,798.4)" />
<use xlink:href="#f1_29" transform="matrix(10.5,0,0,10.4,203.8,798.4)" />
<use xlink:href="#f1_2f" transform="matrix(10.5,0,0,10.4,253.5,798.4)" />
<use xlink:href="#f1_1w" transform="matrix(10.5,0,0,10.4,257.9,798.4)" />
<use xlink:href="#f1_29" transform="matrix(10.5,0,0,10.4,266.9,798.4)" />
<use xlink:href="#f1_2f" transform="matrix(10.5,0,0,10.4,318.9,798.4)" />
<use xlink:href="#f1_1w" transform="matrix(10.5,0,0,10.4,323.3,798.4)" />
<use xlink:href="#f1_29" transform="matrix(10.5,0,0,10.4,332.3,798.4)" />
<use xlink:href="#f1_2f" transform="matrix(10.5,0,0,10.4,384.2,798.4)" />
<use xlink:href="#f1_1w" transform="matrix(10.5,0,0,10.4,388.7,798.4)" />
<use xlink:href="#f1_29" transform="matrix(10.5,0,0,10.4,397.6,798.4)" />
<use xlink:href="#f1_m" transform="matrix(10.5,0,0,10.4,227.8,810.7)" />
<use xlink:href="#f1_o" transform="matrix(10.5,0,0,10.4,291,810.7)" />
<use xlink:href="#f1_q" transform="matrix(10.5,0,0,10.4,356.5,810.7)" />
<use xlink:href="#f1_r" transform="matrix(10.5,0,0,10.4,424.3,810.7)" />
<use xlink:href="#f1_n" transform="matrix(10.5,0,0,10.4,453.5,810.7)" />
<use xlink:href="#f2_h" transform="matrix(7,0,0,7,212.8,791.2)" />
<use xlink:href="#f2_h" transform="matrix(7,0,0,7,276,791.2)" />
<use xlink:href="#f2_h" transform="matrix(7,0,0,7,341.5,791.2)" />
<use xlink:href="#f2_h" transform="matrix(7,0,0,7,407,791.2)" />
<use xlink:href="#f2_2c" transform="matrix(10.5,0,0,10.4,453.4,788)" />
<use xlink:href="#f2_f" transform="matrix(10.5,0,0,10.4,241,798.4)" />
<use xlink:href="#f2_f" transform="matrix(10.5,0,0,10.4,305.4,798.4)" />
<use xlink:href="#f2_f" transform="matrix(10.5,0,0,10.4,370.9,798.4)" />
<use xlink:href="#f2_x" transform="matrix(10.5,0,0,10.4,438.7,798.4)" />
<use xlink:href="#f1_k" transform="matrix(10.4,0,0,10.4,59.8,859.1)" />
<use xlink:href="#f1_m" transform="matrix(10.4,0,0,10.4,68.7,859.1)" />
<use xlink:href="#f1_h" transform="matrix(10.4,0,0,10.4,77.9,859.1)" />
<use xlink:href="#f1_1i" transform="matrix(10.4,0,0,10.4,100.5,859.1)" />
<use xlink:href="#f1_2a" transform="matrix(10.4,0,0,10.4,111.2,859.1)" />
<use xlink:href="#f1_27" transform="matrix(10.4,0,0,10.4,120,859.1)" />
<use xlink:href="#f1_2h" transform="matrix(10.4,0,0,10.4,123.6,859.1)" />
<use xlink:href="#f1_20" transform="matrix(10.4,0,0,10.4,131.6,859.1)" />
<use xlink:href="#f1_21" transform="matrix(10.4,0,0,10.4,147.8,859.1)" />
<use xlink:href="#f1_2a" transform="matrix(10.4,0,0,10.4,152.2,859.1)" />
<use xlink:href="#f1_2d" transform="matrix(10.4,0,0,10.4,161.1,859.1)" />
<use xlink:href="#f2_c" transform="matrix(10.4,0,0,13.8,246.4,856.9)" />
<use xlink:href="#f2_d" transform="matrix(10.4,0,0,13.8,302.1,856.9)" />
<use xlink:href="#f2_c" transform="matrix(10.4,0,0,13.8,348.2,856.9)" />
<use xlink:href="#f2_d" transform="matrix(10.4,0,0,13.8,399.6,856.9)" />
<use xlink:href="#f1_k" transform="matrix(7,0,0,6.9,283.6,852.3)" />
<use xlink:href="#f1_k" transform="matrix(7,0,0,6.9,382.4,852.3)" />
<use xlink:href="#f1_f" transform="matrix(10.4,0,0,10.4,199.3,859.4)" />
<use xlink:href="#f1_2f" transform="matrix(10.4,0,0,10.4,223,859.4)" />
<use xlink:href="#f1_1w" transform="matrix(10.4,0,0,10.4,227.4,859.4)" />
<use xlink:href="#f1_29" transform="matrix(10.4,0,0,10.4,236.4,859.4)" />
<use xlink:href="#f1_1y" transform="matrix(10.4,0,0,10.4,252,859.4)" />
<use xlink:href="#f1_2a" transform="matrix(10.4,0,0,10.4,259.9,859.4)" />
<use xlink:href="#f1_2e" transform="matrix(10.4,0,0,10.4,269,859.4)" />
<use xlink:href="#f1_2e" transform="matrix(10.4,0,0,10.4,324.3,859.4)" />
<use xlink:href="#f1_24" transform="matrix(10.4,0,0,10.4,332.3,859.4)" />
<use xlink:href="#f1_29" transform="matrix(10.4,0,0,10.4,335.9,859.4)" />
<use xlink:href="#f1_2f" transform="matrix(10.4,0,0,10.4,353.9,859.4)" />
<use xlink:href="#f1_1w" transform="matrix(10.4,0,0,10.4,358.4,859.4)" />
<use xlink:href="#f1_29" transform="matrix(10.4,0,0,10.4,367.4,859.4)" />
<use xlink:href="#f1_l" transform="matrix(10.4,0,0,10.4,390,859.4)" />
<use xlink:href="#f1_u" transform="matrix(10.4,0,0,10.4,405,859.4)" />
<use xlink:href="#f1_j" transform="matrix(10.4,0,0,10.4,455.8,859.4)" />
<use xlink:href="#f3_2j" transform="matrix(10.4,0,0,10.4,190.3,859.4)" />
<use xlink:href="#f3_2j" transform="matrix(10.4,0,0,10.4,291.7,859.4)" />
<use xlink:href="#f3_2j" transform="matrix(10.4,0,0,10.4,418.5,859.4)" />
<use xlink:href="#f2_h" transform="matrix(7,0,0,6.9,277.7,852.3)" />
<use xlink:href="#f2_h" transform="matrix(7,0,0,6.9,376.4,852.3)" />
<use xlink:href="#f2_x" transform="matrix(10.5,0,0,10.4,311.3,859.4)" />
<use xlink:href="#f2_y" transform="matrix(10.5,0,0,10.4,438,859.4)" />
<use xlink:href="#f1_k" transform="matrix(10.4,0,0,10.4,59.8,913.9)" />
<use xlink:href="#f1_n" transform="matrix(10.4,0,0,10.4,68.7,913.9)" />
<use xlink:href="#f1_h" transform="matrix(10.4,0,0,10.4,77.9,913.9)" />
<use xlink:href="#f1_1f" transform="matrix(10.4,0,0,10.4,100.5,913.9)" />
<use xlink:href="#f1_2d" transform="matrix(10.4,0,0,10.4,111.2,913.9)" />
<use xlink:href="#f1_2a" transform="matrix(10.4,0,0,10.4,116.5,913.9)" />
<use xlink:href="#f1_2h" transform="matrix(10.4,0,0,10.4,125.4,913.9)" />
<use xlink:href="#f1_20" transform="matrix(10.4,0,0,10.4,133.3,913.9)" />
<use xlink:href="#f1_2f" transform="matrix(10.4,0,0,10.4,149.9,913.9)" />
<use xlink:href="#f1_23" transform="matrix(10.4,0,0,10.4,154.3,913.9)" />
<use xlink:href="#f1_1w" transform="matrix(10.4,0,0,10.4,163.2,913.9)" />
<use xlink:href="#f1_2f" transform="matrix(10.4,0,0,10.4,172.1,913.9)" />
</g>
<path d="M246.3,910.6h10.2m82.4,0h10.3m72.1,0h19.3" class="g7_9" />
<g fill="#000000" >
<use xlink:href="#f2_4o" transform="matrix(10.5,0,0,10.5,237.6,905.4)" />
<use xlink:href="#f2_54" transform="matrix(10.5,0,0,10.5,257.1,905.4)" />
<use xlink:href="#f2_4o" transform="matrix(10.5,0,0,10.5,330.3,905.4)" />
<use xlink:href="#f2_54" transform="matrix(10.5,0,0,10.5,349.8,905.4)" />
<use xlink:href="#f2_4o" transform="matrix(10.5,0,0,10.5,412.7,905.4)" />
<use xlink:href="#f2_54" transform="matrix(10.5,0,0,10.5,441.2,905.4)" />
<use xlink:href="#f2_f" transform="matrix(10.5,0,0,10.5,274.7,914.8)" />
<use xlink:href="#f2_x" transform="matrix(10.5,0,0,10.5,362.2,914.8)" />
<use xlink:href="#f2_4p" transform="matrix(10.5,0,0,10.5,330.3,916.9)" />
<use xlink:href="#f2_55" transform="matrix(10.5,0,0,10.5,349.8,916.9)" />
<use xlink:href="#f2_4p" transform="matrix(10.5,0,0,10.5,237.6,917.1)" />
<use xlink:href="#f2_55" transform="matrix(10.5,0,0,10.5,257.1,917.1)" />
<use xlink:href="#f2_4p" transform="matrix(10.5,0,0,10.5,412.7,917.1)" />
<use xlink:href="#f2_55" transform="matrix(10.5,0,0,10.5,441.2,917.1)" />
<use xlink:href="#f2_4q" transform="matrix(10.5,0,0,10.5,330.3,923.7)" />
<use xlink:href="#f2_56" transform="matrix(10.5,0,0,10.5,349.8,923.7)" />
<use xlink:href="#f2_4q" transform="matrix(10.5,0,0,10.5,237.6,924)" />
<use xlink:href="#f2_56" transform="matrix(10.5,0,0,10.5,257.1,924)" />
<use xlink:href="#f2_4q" transform="matrix(10.5,0,0,10.5,412.7,924)" />
<use xlink:href="#f2_56" transform="matrix(10.5,0,0,10.5,441.2,924)" />
<use xlink:href="#f1_99" transform="matrix(7,0,0,7,223.7,907.6)" />
<use xlink:href="#f1_k" transform="matrix(7,0,0,7,229.6,907.6)" />
<use xlink:href="#f1_99" transform="matrix(7,0,0,7,316.3,907.6)" />
<use xlink:href="#f1_k" transform="matrix(7,0,0,7,322.2,907.6)" />
<use xlink:href="#f1_99" transform="matrix(7,0,0,7,398.6,907.6)" />
<use xlink:href="#f1_k" transform="matrix(7,0,0,7,404.5,907.6)" />
<use xlink:href="#f1_k" transform="matrix(10.5,0,0,10.5,247.6,904.4)" />
<use xlink:href="#f1_k" transform="matrix(10.5,0,0,10.5,340.3,904.4)" />
<use xlink:href="#f1_m" transform="matrix(10.5,0,0,10.5,422.2,904.4)" />
<use xlink:href="#f1_l" transform="matrix(10.5,0,0,10.5,431.1,904.4)" />
<use xlink:href="#f1_l" transform="matrix(10.5,0,0,10.5,190.2,914.8)" />
<use xlink:href="#f1_2f" transform="matrix(10.5,0,0,10.5,200.9,914.8)" />
<use xlink:href="#f1_1w" transform="matrix(10.5,0,0,10.5,205.3,914.8)" />
<use xlink:href="#f1_29" transform="matrix(10.5,0,0,10.5,214.3,914.8)" />
<use xlink:href="#f1_2f" transform="matrix(10.5,0,0,10.5,293.4,914.8)" />
<use xlink:href="#f1_1w" transform="matrix(10.5,0,0,10.5,297.9,914.8)" />
<use xlink:href="#f1_29" transform="matrix(10.5,0,0,10.5,306.8,914.8)" />
<use xlink:href="#f1_2f" transform="matrix(10.5,0,0,10.5,375.6,914.8)" />
<use xlink:href="#f1_1w" transform="matrix(10.5,0,0,10.5,380.1,914.8)" />
<use xlink:href="#f1_29" transform="matrix(10.5,0,0,10.5,389,914.8)" />
<use xlink:href="#f1_o" transform="matrix(10.5,0,0,10.5,247,927.2)" />
<use xlink:href="#f1_n" transform="matrix(10.5,0,0,10.5,339.7,927.2)" />
<use xlink:href="#f1_n" transform="matrix(10.5,0,0,10.5,422,927.2)" />
<use xlink:href="#f1_m" transform="matrix(10.5,0,0,10.5,431,927.2)" />
<use xlink:href="#f4_m" transform="matrix(12,0,0,12,657.2,1093.6)" />
</g>
<g fill="#0080FF" fill-opacity="0.5" >
<use xlink:href="#f0_1c" transform="matrix(36.1,0,0,36.1,173.2,1081.1)" />
<use xlink:href="#f0_21" transform="matrix(36.1,0,0,36.1,203.9,1081.1)" />
<use xlink:href="#f0_1x" transform="matrix(36.1,0,0,36.1,234.5,1081.1)" />
<use xlink:href="#f0_2e" transform="matrix(36.1,0,0,36.1,265.2,1081.1)" />
<use xlink:href="#f0_2a" transform="matrix(36.1,0,0,36.1,283.6,1081.1)" />
<use xlink:href="#f0_17" transform="matrix(36.1,0,0,36.1,314.2,1081.1)" />
<use xlink:href="#f0_2h" transform="matrix(36.1,0,0,36.1,357.1,1081.1)" />
<use xlink:href="#f0_25" transform="matrix(36.1,0,0,36.1,387.8,1081.1)" />
<use xlink:href="#f0_20" transform="matrix(36.1,0,0,36.1,400.1,1081.1)" />
<use xlink:href="#f0_21" transform="matrix(36.1,0,0,36.1,430.7,1081.1)" />
<use xlink:href="#f0_i" transform="matrix(36.1,0,0,36.1,461.4,1081.1)" />
<use xlink:href="#f0_25" transform="matrix(36.1,0,0,36.1,476.7,1081.1)" />
<use xlink:href="#f0_2a" transform="matrix(36.1,0,0,36.1,489,1081.1)" />
</g>
<defs>
<path d="M593,101c0,0,182,0,279,112c0,0,98,113,98,318c0,0,0,196,-98,308c0,0,-98,112,-277,112c0,0,-181,0,-279,-110c0,0,-99,-111,-99,-310c0,0,0,-198,100,-314c0,0,99,-116,276,-116Zm0,-115c0,0,-162,0,-279,65c0,0,-118,66,-180,190c0,0,-62,124,-62,290c0,0,0,252,138,394c0,0,138,142,385,142c0,0,160,0,278,-64c0,0,118,-64,180,-185c0,0,62,-122,62,-287c0,0,0,-165,-63,-289c0,0,-63,-124,-181,-190c0,0,-118,-66,-278,-66Z" 
id="f0_1f"
transform="scale(0.001,-0.001)" />

<path d="M106,0V635c0,0,0,141,-5,173H228c0,0,1,-4,2,-21c0,0,1,-16,2,-37c0,0,1,-22,2,-81h2c0,0,47,84,108,119c0,0,60,34,151,34c0,0,132,0,194,-66c0,0,61,-66,61,-218V0H615V512c0,0,0,80,-15,124c0,0,-16,44,-50,63c0,0,-35,20,-101,20c0,0,-97,0,-153,-67c0,0,-56,-66,-56,-184V0Z" 
id="f0_2a"
transform="scale(0.001,-0.001)" />

<path d="M103,0V1107H237V0Z" 
id="f0_28"
transform="scale(0.001,-0.001)" />

<path d="M102,0V808H236V0Zm0,979v128H236V979Z" 
id="f0_25"
transform="scale(0.001,-0.001)" />

<path d="M643,478c0,0,-11,128,-65,187c0,0,-54,59,-154,59c0,0,-98,0,-155,-66c0,0,-57,-65,-62,-180ZM431,-14c0,0,-179,0,-272,106c0,0,-94,107,-94,317c0,0,0,200,94,307c0,0,93,106,267,106c0,0,356,0,356,-429V375H206c0,0,0,-138,57,-213c0,0,58,-75,168,-75c0,0,87,0,140,35c0,0,53,35,71,88L760,177c0,0,-72,-191,-329,-191Z" 
id="f0_21"
transform="scale(0.001,-0.001)" />

<path d="M17,0L304,415L31,808H179L380,493L580,808H730L457,417L747,0H598L380,331L162,0Z" 
id="f0_2k"
transform="scale(0.001,-0.001)" />

<path d="M339,87c0,0,74,0,132,34c0,0,57,33,90,91c0,0,34,59,34,121v66L448,396c0,0,-95,-2,-144,-19c0,0,-49,-18,-75,-55c0,0,-26,-38,-26,-98c0,0,0,-65,35,-101c0,0,36,-36,101,-36ZM309,-14c0,0,-122,0,-183,64c0,0,-61,64,-61,176c0,0,0,125,82,192c0,0,83,67,266,72l182,3v44c0,0,0,98,-42,141c0,0,-42,43,-132,43c0,0,-90,0,-131,-31c0,0,-41,-31,-49,-98L101,604c0,0,34,218,323,218c0,0,153,0,229,-70c0,0,77,-69,77,-202V202c0,0,0,-59,16,-90c0,0,16,-30,60,-30c0,0,19,0,44,5V4C850,4,799,-7,746,-7c0,0,-75,0,-109,38c0,0,-33,40,-38,124h-4C595,155,543,62,475,24c0,0,-68,-38,-166,-38Z" 
id="f0_1x"
transform="scale(0.001,-0.001)" />

<path d="M106,0V635c0,0,0,141,-5,173H228c0,0,1,-4,2,-21c0,0,1,-16,2,-37c0,0,1,-22,2,-81h2c0,0,44,86,100,120c0,0,56,33,136,33c0,0,92,0,145,-36c0,0,54,-37,75,-117h2c0,0,42,82,101,117c0,0,59,36,143,36c0,0,123,0,178,-66c0,0,56,-67,56,-218V0H1039V512c0,0,0,117,-32,162c0,0,-32,45,-116,45c0,0,-88,0,-136,-66c0,0,-49,-65,-49,-185V0H573V512c0,0,0,117,-32,162c0,0,-32,45,-116,45c0,0,-86,0,-136,-66c0,0,-50,-66,-50,-185V0Z" 
id="f0_29"
transform="scale(0.001,-0.001)" />

<path d="M453,84c0,0,100,0,146,74c0,0,46,73,46,247c0,0,0,169,-46,241c0,0,-45,73,-145,73c0,0,-80,0,-125,-34c0,0,-45,-34,-68,-105c0,0,-24,-71,-24,-186c0,0,0,-159,51,-234c0,0,51,-76,165,-76ZM103,-316V643c0,0,0,124,-5,165H228c0,0,1,-3,3,-22c0,0,1,-18,3,-56c0,0,2,-38,2,-52h3c0,0,36,75,94,110c0,0,59,34,156,34c0,0,149,0,223,-100c0,0,74,-100,74,-314c0,0,0,-422,-297,-422c0,0,-187,0,-251,140h-4c0,0,3,-6,3,-126V-316Z" 
id="f0_2c"
transform="scale(0.001,-0.001)" />

<path d="M420,84c0,0,121,0,173,78c0,0,52,77,52,243c0,0,0,167,-50,243c0,0,-50,76,-167,76c0,0,-118,0,-170,-78c0,0,-53,-77,-53,-241c0,0,0,-160,52,-241c0,0,52,-80,163,-80Zm1,-98c0,0,-176,0,-267,107c0,0,-90,108,-90,312c0,0,0,417,362,417c0,0,185,0,272,-102c0,0,88,-101,88,-315c0,0,0,-212,-94,-316C692,89,599,-14,421,-14Z" 
id="f0_2b"
transform="scale(0.001,-0.001)" />

<path d="M278,-11c0,0,-162,0,-162,182V710H23v98h99l39,181h90V808H400V710H251V200c0,0,0,-58,19,-82c0,0,19,-23,66,-23c0,0,27,0,77,10V6c0,0,-66,-17,-135,-17Z" 
id="f0_2g"
transform="scale(0.001,-0.001)" />

<path d="M511,373V863L169,383l-7,-10ZM511,0V258H38V383l496,691H646V373H799V258H646V0Z" 
id="f1_n"
transform="scale(0.001,-0.001)" />

<path d="M133,0V162H292V0Z" 
id="f1_h"
transform="scale(0.001,-0.001)" />

<path d="M575,590c0,0,115,0,169,48c0,0,54,49,54,154c0,0,0,92,-54,135c0,0,-54,43,-169,43H280V590ZM131,0V1097H611c0,0,160,0,249,-80c0,0,90,-80,90,-222c0,0,0,-156,-90,-244c0,0,-89,-88,-249,-88c0,0,-34,0,-82,0c-72,0,-177,0,-249,-1V0Z" 
id="f1_1f"
transform="scale(0.001,-0.001)" />

<path d="M118,0V799H246V662c0,0,17,32,36,58c0,0,76,102,187,102c0,0,19,0,38,-6V679l-27,1c0,0,-109,0,-168,-66c0,0,-60,-65,-60,-186V0Z" 
id="f1_2d"
transform="scale(0.001,-0.001)" />

<path d="M424,94c0,0,107,0,169,83c0,0,63,83,63,223c0,0,0,140,-63,224c0,0,-62,83,-169,83c0,0,-106,0,-168,-83c0,0,-62,-84,-62,-224c0,0,0,-140,62,-223c0,0,62,-83,168,-83Zm0,-114c0,0,-165,0,-268,115C156,95,54,211,54,400c0,0,0,189,102,306c0,0,103,116,268,116c0,0,168,0,270,-116c0,0,102,-117,102,-306c0,0,0,-189,-102,-305C694,95,592,-20,424,-20Z" 
id="f1_2a"
transform="scale(0.001,-0.001)" />

<path d="M310,0L12,799H168L383,145L604,799H752L454,0Z" 
id="f1_2h"
transform="scale(0.001,-0.001)" />

<path d="M649,461c0,0,-6,111,-55,172c0,0,-55,69,-160,69c0,0,-106,0,-170,-79c0,0,-50,-62,-60,-162ZM425,-20c0,0,-169,0,-266,106c0,0,-97,107,-97,297c0,0,0,201,102,320c0,0,103,119,276,119c0,0,157,0,253,-116c0,0,96,-117,96,-306l-1,-48H204c0,0,8,-119,54,-182c0,0,57,-76,180,-76c0,0,77,0,134,43c0,0,58,43,70,110H775C775,247,746,116,656,47c0,0,-90,-67,-231,-67Z" 
id="f1_20"
transform="scale(0.001,-0.001)" />

<path d="M412,-328c0,0,-195,96,-303,284C109,-44,0,142,0,365c0,0,0,232,114,422c0,0,114,191,298,273v-31c0,0,-92,-51,-151,-139c0,0,-59,-88,-88,-223c0,0,-29,-136,-29,-282c0,0,0,-167,27,-301c0,0,26,-133,82,-221c0,0,55,-89,159,-159v-32Z" 
id="f2_c"
transform="scale(0.001,-0.001)" />

<path d="M34,-328v32c0,0,92,50,151,138c0,0,59,88,88,222c0,0,29,135,29,283c0,0,0,165,-27,300c0,0,-26,134,-82,222c0,0,-56,89,-159,160v31c0,0,194,-96,303,-284c0,0,108,-187,108,-410c0,0,0,-232,-114,-422c0,0,-114,-191,-297,-272Z" 
id="f2_d"
transform="scale(0.001,-0.001)" />

<path d="M406,0V763H155V870h2c16,0,114,2,178,48c0,0,70,51,104,157H549V0Z" 
id="f1_k"
transform="scale(0.001,-0.001)" />

<path d="M394,-20c0,0,-159,0,-253,113c0,0,-95,114,-95,307c0,0,0,193,98,308c0,0,98,114,264,114c0,0,144,0,230,-78c0,0,85,-79,91,-217H600c0,0,-8,86,-59,133c0,0,-52,47,-138,47c0,0,-101,0,-159,-82c0,0,-58,-82,-58,-225c0,0,0,-152,54,-229c0,0,53,-77,159,-77c0,0,79,0,132,50c0,0,52,51,69,143H729C729,287,709,137,623,58c0,0,-86,-78,-229,-78Z" 
id="f1_1y"
transform="scale(0.001,-0.001)" />

<path d="M393,-20c0,0,-169,0,-252,65c0,0,-83,67,-92,210H178c0,0,10,-85,61,-123c0,0,50,-38,154,-38c0,0,90,0,136,34c0,0,47,35,47,100c0,0,0,42,-31,64c0,0,-30,21,-123,43L283,368c0,0,-112,27,-160,75c0,0,-48,48,-48,135c0,0,0,112,80,178c0,0,81,66,218,66c0,0,140,0,222,-68c0,0,82,-67,88,-187H557c0,0,-6,67,-55,103c0,0,-48,37,-129,37c0,0,-84,0,-127,-29c0,0,-44,-29,-44,-85c0,0,0,-43,31,-65c0,0,30,-21,121,-43L493,452c0,0,117,-28,167,-78c0,0,49,-49,49,-138c0,0,0,-119,-86,-188c0,0,-85,-68,-230,-68Z" 
id="f1_2e"
transform="scale(0.001,-0.001)" />

<path d="M292,-9c0,0,-88,0,-124,38c0,0,-36,39,-36,134V689H22V799H132v224H266V799H392V689H266V163c0,0,0,-27,21,-43c0,0,21,-15,57,-15h48V1C392,1,324,-9,292,-9Z" 
id="f1_2f"
transform="scale(0.001,-0.001)" />

<path d="M335,90c0,0,106,0,179,57c0,0,50,41,67,91c0,0,3,10,4,31c0,0,3,21,3,47v87c0,0,-38,-18,-83,-25L381,360c0,0,-97,-13,-142,-45c0,0,-44,-31,-44,-86c0,0,0,-67,36,-103c0,0,37,-36,104,-36ZM309,-20c0,0,-117,0,-186,61c0,0,-68,63,-68,169c0,0,0,108,64,171c0,0,65,64,189,79l183,23c0,0,22,3,42,8c0,0,26,7,40,27c0,0,15,20,15,51v6c0,0,0,64,-49,101c0,0,-48,36,-135,36c0,0,-83,0,-130,-38c0,0,-46,-39,-56,-115H94c0,0,10,131,92,197c0,0,83,66,238,66c0,0,145,0,222,-63c0,0,76,-63,76,-184V137c0,0,0,-21,12,-33c0,0,12,-12,33,-12c0,0,6,0,18,1c0,0,11,2,25,5V1c0,0,-20,-7,-41,-11c0,0,-22,-5,-37,-5c0,0,-76,0,-110,41c0,0,-22,28,-32,79c0,0,-15,-19,-34,-36c0,0,-101,-89,-247,-89Z" 
id="f1_1w"
transform="scale(0.001,-0.001)" />

<path d="M99,0V799H226V681l30,39c0,0,87,102,219,102c0,0,132,0,203,-71c0,0,72,-72,72,-204V0H616V502c0,0,0,105,-41,151c0,0,-40,47,-132,47c0,0,-97,0,-154,-73c0,0,-56,-74,-56,-199V0Z" 
id="f1_29"
transform="scale(0.001,-0.001)" />

<path d="M424,92c0,0,114,0,170,107c0,0,57,108,56,323c0,0,1,216,-56,324c0,0,-56,107,-170,107c0,0,-112,0,-168,-107c0,0,-56,-108,-57,-324c0,0,1,-215,57,-323c0,0,56,-107,168,-107Zm0,-120c0,0,-176,0,-271,142c0,0,-96,143,-96,408c0,0,0,265,96,409c0,0,95,144,271,144c0,0,178,0,273,-144c0,0,96,-144,96,-409c0,0,0,-265,-96,-408c0,0,-95,-142,-273,-142Z" 
id="f1_j"
transform="scale(0.001,-0.001)" />

<path d="M133,-224v71c0,0,47,8,65,52c0,0,14,33,17,101H133V163H292V27c0,0,0,-114,-36,-172c0,0,-37,-58,-123,-79Z" 
id="f1_f"
transform="scale(0.001,-0.001)" />

<path d="M39,0V0c0,0,0,170,84,277c0,0,85,108,317,236c0,0,113,62,154,115c0,0,41,52,41,134c0,0,0,86,-62,141c0,0,-61,54,-156,54c0,0,-101,0,-158,-68c0,0,-57,-68,-60,-194H67c0,0,-2,178,95,279c0,0,98,101,273,101c0,0,149,0,245,-89c0,0,94,-88,94,-228c0,0,0,-118,-60,-195c0,0,-61,-76,-229,-169C485,394,303,294,237,212c0,0,-28,-36,-46,-81H774V0Z" 
id="f1_l"
transform="scale(0.001,-0.001)" />

<path d="M104,0V799H238V0Zm-2,946v152H239V946Z" 
id="f1_24"
transform="scale(0.001,-0.001)" />

<path d="M0,356v74H784V356Z" 
id="f2_h"
transform="scale(0.001,-0.001)" />

<path d="M62,-123V268c0,0,0,230,56,452c0,0,47,190,134,334c0,0,87,144,204,242c0,0,85,73,194,119l18,-16c0,0,-211,-145,-335,-339c0,0,-98,-156,-149,-374c0,0,-50,-218,-50,-403V-123Z" 
id="f2_4o"
transform="scale(0.001,-0.001)" />

<path d="M617,-123V283c0,0,0,236,-63,459c0,0,-63,223,-188,392c0,0,-108,146,-282,265l17,16c0,0,180,-76,320,-248c0,0,139,-172,204,-417c0,0,64,-245,64,-482V-123Z" 
id="f2_54"
transform="scale(0.001,-0.001)" />

<path d="M355,0V355H0v72H355V784h72V427H782V355H427V0Z" 
id="f2_f"
transform="scale(0.001,-0.001)" />

<path d="M140,-21c0,0,-26,0,-44,17C96,-4,79,13,79,40c0,0,0,19,6,33c0,0,8,20,34,55c0,0,46,60,64,126c0,0,32,114,41,321H190c0,0,-55,0,-81,-18c0,0,-44,-26,-80,-89H0c0,0,42,129,98,178c0,0,43,37,120,37H743V575H562c0,0,-27,-171,-27,-327c0,0,0,-77,27,-110c0,0,27,-33,67,-33c0,0,33,0,56,22c0,0,24,22,31,65h27C743,192,730,74,686,26c0,0,-44,-47,-98,-47c0,0,-58,0,-97,51c0,0,-39,53,-39,198c0,0,0,91,28,347H286c0,0,-23,-390,-56,-494c0,0,-33,-102,-90,-102Z" 
id="f2_2c"
transform="scale(0.001,-0.001)" />

<path d="M0,214v74H784V214ZM0,494v72H784V494Z" 
id="f2_x"
transform="scale(0.001,-0.001)" />

<path d="M398,0C398,0,266,0,185,39c0,0,-82,39,-133,124C52,163,0,248,0,342c0,0,0,144,103,243c0,0,103,98,292,98H694V611H387c0,0,-99,0,-166,-32c0,0,-68,-32,-105,-88c0,0,-26,-40,-41,-113H694V304H75c0,0,30,-120,103,-176c0,0,73,-56,210,-56H694V0Z" 
id="f2_40"
transform="scale(0.001,-0.001)" />

<path d="M62,-123V1415h72V-123Z" 
id="f2_4p"
transform="scale(0.001,-0.001)" />

<path d="M617,-123V1415h72V-123Z" 
id="f2_55"
transform="scale(0.001,-0.001)" />

<path d="M650,-123c0,0,-180,75,-319,246c0,0,-140,172,-205,418c0,0,-64,245,-64,481v393h72V1007c0,0,0,-236,63,-459c0,0,63,-223,189,-391c0,0,108,-145,282,-265l-18,-15Z" 
id="f2_4q"
transform="scale(0.001,-0.001)" />

<path d="M101,-123l-17,15c0,0,210,144,334,339c0,0,99,156,149,373c0,0,50,218,50,403v408h72V1022c0,0,0,-230,-56,-451c0,0,-48,-191,-134,-335C499,236,412,92,295,-5c0,0,-84,-73,-194,-118Z" 
id="f2_56"
transform="scale(0.001,-0.001)" />

<path d="M17,0L389,412L201,800H376L500,518L742,800H904L554,410L750,0H580L448,303L187,0Z" 
id="f3_2j"
transform="scale(0.001,-0.001)" />

<path d="M417,-28c0,0,-161,0,-259,79c0,0,-98,81,-109,223H189c0,0,11,-90,72,-139c0,0,61,-49,162,-49c0,0,96,0,158,68c0,0,61,68,61,175c0,0,0,112,-64,178c0,0,-64,66,-173,66c0,0,-59,0,-115,-28c0,0,-55,-29,-84,-73L93,480l77,573H727V922H271L225,629l4,3c0,0,89,60,188,60c0,0,169,0,269,-94c0,0,99,-93,99,-253c0,0,0,-165,-103,-269C682,76,579,-28,417,-28Z" 
id="f1_o"
transform="scale(0.001,-0.001)" />

<path d="M0,368V478H849V368Z" 
id="f1_99"
transform="scale(0.001,-0.001)" />

<path d="M354,90c0,0,107,0,192,57c0,0,60,41,87,95c0,0,5,12,11,33c0,0,6,20,11,44l18,88c0,0,-62,-26,-132,-37L414,352c0,0,-84,-11,-131,-56c0,0,-47,-45,-47,-113c0,0,0,-44,31,-69c0,0,31,-24,87,-24ZM306,-20c0,0,-99,0,-156,47c0,0,-57,49,-57,134c0,0,1,117,81,198c0,0,80,81,211,98l164,20l70,10c0,0,35,6,59,30c0,0,23,24,31,66l1,2c0,0,13,64,-25,94c0,0,-39,31,-132,31c0,0,-83,0,-137,-37c0,0,-54,-37,-84,-114H210c0,0,46,137,138,201c0,0,92,63,245,63c0,0,149,0,211,-59c0,0,45,-44,44,-116c0,0,1,-30,-6,-63L749,136c0,0,-4,-19,6,-32c0,0,10,-12,30,-12c0,0,6,0,19,1c0,0,12,2,25,5L809,1c0,0,-19,-6,-43,-11c0,0,-22,-5,-36,-5c0,0,-73,0,-100,43c0,0,-16,27,-17,75C612,102,594,85,573,69c0,0,-120,-89,-267,-89Z" 
id="f3_1w"
transform="scale(0.001,-0.001)" />

<path d="M432,92c0,0,96,0,156,66c0,0,61,65,61,169c0,0,0,103,-61,169c0,0,-60,66,-156,66c0,0,-95,0,-156,-66c0,0,-61,-66,-61,-169c0,0,0,-104,61,-169c0,0,61,-66,156,-66ZM425,-28c0,0,-176,0,-271,135c0,0,-95,136,-95,388c0,0,0,278,103,429c0,0,103,151,293,151c0,0,142,0,226,-77c0,0,84,-76,90,-211H638c0,0,-8,80,-56,123c0,0,-47,43,-127,43c0,0,-125,0,-192,-119c0,0,-58,-102,-64,-278c0,0,100,127,255,127c0,0,152,0,245,-98c0,0,93,-98,93,-258c0,0,0,-161,-101,-259c0,0,-101,-96,-266,-96Z" 
id="f1_p"
transform="scale(0.001,-0.001)" />

<path d="M424,92c0,0,98,0,161,58c0,0,62,58,62,149c0,0,0,92,-62,151c0,0,-63,58,-161,58c0,0,-98,0,-160,-58c0,0,-63,-59,-63,-151c0,0,0,-91,63,-149c0,0,62,-58,160,-58Zm0,533c0,0,82,0,134,46c0,0,52,45,52,118c0,0,0,72,-52,118c0,0,-52,46,-134,46c0,0,-82,0,-134,-46c0,0,-52,-46,-52,-118c0,0,0,-73,52,-119c0,0,52,-45,134,-45Zm0,-653c0,0,-165,0,-265,90C159,62,59,154,59,305c0,0,0,134,100,216c0,0,35,28,78,47c0,0,-27,15,-52,33c0,0,-90,70,-90,185c0,0,0,130,90,209c0,0,91,80,239,80c0,0,148,0,238,-80c0,0,91,-79,91,-209c0,0,0,-115,-91,-185c0,0,-24,-19,-52,-32c0,0,44,-20,79,-49c0,0,101,-81,101,-215c0,0,0,-151,-101,-243c0,0,-100,-90,-265,-90Z" 
id="f1_r"
transform="scale(0.001,-0.001)" />

<path d="M424,-28c0,0,-180,0,-272,86c0,0,-92,87,-100,266H192c0,0,12,-126,66,-180c0,0,55,-54,170,-54c0,0,100,0,163,57c0,0,64,57,64,147c0,0,0,94,-61,149c0,0,-52,48,-135,54c0,0,-38,2,-72,2c0,0,-34,0,-45,-3V613c0,0,17,-3,51,-3c0,0,35,0,68,4c0,0,66,8,106,43c0,0,55,45,55,125c0,0,0,77,-58,125c0,0,-58,48,-148,48c0,0,-96,0,-147,-58c0,0,-51,-59,-56,-175H82c0,0,0,168,89,260c0,0,88,93,250,93c0,0,153,0,247,-77c0,0,94,-76,94,-202c0,0,0,-124,-95,-201c0,0,-18,-15,-39,-27c0,0,39,-17,69,-41c0,0,101,-79,101,-214c0,0,0,-151,-105,-246c0,0,-104,-95,-269,-95Z" 
id="f1_m"
transform="scale(0.001,-0.001)" />

<path d="M212,0c0,0,51,270,162,500c0,0,109,222,281,422H57v131H799V934C799,934,623,726,515,498C515,498,408,269,362,0Z" 
id="f1_q"
transform="scale(0.001,-0.001)" />

<path d="M0,-123V1415H525v-72H72V-123Z" 
id="f2_4r"
transform="scale(0.001,-0.001)" />

<path d="M478,-123V1343H26v72H550V-123Z" 
id="f2_57"
transform="scale(0.001,-0.001)" />

<path d="M0,-123V1415H72V-123Z" 
id="f2_4s"
transform="scale(0.001,-0.001)" />

<path d="M0,-123V1415H72V-123Z" 
id="f2_58"
transform="scale(0.001,-0.001)" />

<path d="M0,-123V1415H72V-51H525v-72Z" 
id="f2_4t"
transform="scale(0.001,-0.001)" />

<path d="M26,-123v72H478V1415h72V-123Z" 
id="f2_59"
transform="scale(0.001,-0.001)" />

<path d="M528,-29c0,0,-215,0,-336,99C192,70,75,170,75,342v8H211c0,0,4,-119,87,-184c0,0,83,-65,231,-65c0,0,136,0,207,47c0,0,71,47,71,138c0,0,0,79,-47,118c0,0,-47,37,-187,71L382,520c0,0,-145,34,-207,96c0,0,-62,61,-62,169c0,0,0,158,107,250c0,0,107,92,289,92c0,0,185,0,295,-92c0,0,110,-93,117,-256H784c0,0,-9,104,-81,161c0,0,-72,56,-194,56c0,0,-125,0,-190,-48c0,0,-65,-49,-65,-142c0,0,0,-64,43,-95c0,0,43,-32,174,-62L662,603c0,0,154,-37,220,-108c0,0,65,-71,65,-201c0,0,0,-150,-113,-237c0,0,-113,-86,-306,-86Z" 
id="f1_1i"
transform="scale(0.001,-0.001)" />

<path d="M103,0V1097H237V0Z" 
id="f1_27"
transform="scale(0.001,-0.001)" />

<path d="M419,483c0,0,93,0,152,66c0,0,59,66,59,169c0,0,0,103,-59,169c0,0,-59,65,-152,65c0,0,-94,0,-153,-65c0,0,-59,-66,-59,-169c0,0,0,-103,59,-169c0,0,59,-66,153,-66ZM397,-28c0,0,-143,0,-227,75c0,0,-85,77,-91,211H209c0,0,8,-83,57,-128c0,0,49,-45,131,-45c0,0,121,0,186,135c0,0,48,101,62,265C645,485,545,362,397,362c0,0,-150,0,-241,98c0,0,-91,98,-91,258c0,0,0,160,99,258c0,0,99,98,262,98c0,0,173,0,266,-123c0,0,94,-123,94,-349c0,0,0,-303,-101,-467C685,135,583,-28,397,-28Z" 
id="f1_s"
transform="scale(0.001,-0.001)" />

<path d="M99,0V1097H233V690l23,30c0,0,87,102,219,102c0,0,132,0,203,-71c0,0,72,-72,72,-204V0H616V514c0,0,0,99,-38,142c0,0,-38,44,-124,44c0,0,-102,0,-162,-73c0,0,-59,-74,-59,-199V0Z" 
id="f1_23"
transform="scale(0.001,-0.001)" />

<path d="M99,0L264,800H392L367,676l36,38c0,0,110,109,236,109c0,0,108,0,159,-63c0,0,23,-30,31,-71l36,34c0,0,113,100,221,100c0,0,123,0,176,-67c0,0,37,-45,37,-117c0,0,0,-33,-8,-73L1173,0H1038l113,546c0,0,16,76,-10,116c0,0,-26,39,-92,39c0,0,-90,0,-159,-65c0,0,-68,-65,-91,-172L704,0H569L684,560c0,0,15,72,-7,106c0,0,-23,35,-85,35c0,0,-109,0,-177,-77c0,0,-68,-77,-101,-238L234,0Z" 
id="f3_28"
transform="scale(0.001,-0.001)" />

<path d="M99,0L264,800H392L367,675l37,39c0,0,111,109,238,109c0,0,139,0,194,-69c0,0,55,-70,27,-209L750,0H615L724,524c0,0,18,91,-10,134c0,0,-28,43,-106,43c0,0,-117,0,-189,-77c0,0,-72,-77,-105,-238L234,0Z" 
id="f3_29"
transform="scale(0.001,-0.001)" />

<path d="M45,0V81L673,391L45,704v80L795,412V374L45,0Z" 
id="f2_y"
transform="scale(0.001,-0.001)" />

<path d="M99,-328c0,0,-46,0,-76,13l25,123c0,0,29,-14,81,-14c0,0,47,0,76,31c0,0,28,31,106,162L185,800H339L415,141L769,800H918L456,0C456,0,329,-216,269,-272c0,0,-61,-56,-170,-56Z" 
id="f3_2k"
transform="scale(0.001,-0.001)" />

<path d="M132,0V687H22V799H132V935c0,0,0,88,52,133c0,0,52,45,157,45l59,-3V989l-53,2c0,0,-39,0,-60,-24c0,0,-21,-25,-21,-71V799H400V687H266V0Z" 
id="f1_21"
transform="scale(0.001,-0.001)" />

<path d="M133,-225v70c0,0,47,8,65,52c0,0,14,35,16,103H133V162H292V27c0,0,0,-116,-36,-173c0,0,-37,-58,-123,-79Zm0,853V790H292V628Z" 
id="f1_u"
transform="scale(0.001,-0.001)" />

<path d="M46,0c0,0,-2,48,16,93c0,0,27,74,88,146c0,0,61,71,176,165c0,0,178,146,241,232c0,0,63,85,63,161c0,0,0,80,-57,135c0,0,-58,55,-149,55c0,0,-98,0,-156,-59c0,0,-58,-58,-59,-160L71,782c0,0,15,154,107,235c0,0,93,81,249,81c0,0,157,0,249,-87c0,0,92,-88,92,-217c0,0,0,-65,-27,-129c0,0,-27,-63,-89,-133c0,0,-62,-70,-207,-193C445,339,324,238,290,202c0,0,-35,-36,-57,-73H770V0Z" 
id="f4_m"
transform="scale(0.001,-0.001)" />

<path d="M125,0V1051H268V115H799V0Z" 
id="f0_1c"
transform="scale(0.001,-0.001)" />

<path d="M106,0V620c0,0,0,85,-5,188H228c0,0,6,-138,6,-165h3c0,0,32,103,74,141c0,0,42,38,118,38c0,0,27,0,54,-7V692c0,0,-26,7,-71,7c0,0,-84,0,-128,-72c0,0,-44,-72,-44,-206V0Z" 
id="f0_2e"
transform="scale(0.001,-0.001)" />

<path d="M606,-14c0,0,-164,0,-284,65c0,0,-119,66,-182,189c0,0,-63,123,-63,291c0,0,0,255,137,396c0,0,137,140,386,140c0,0,174,0,283,-59c0,0,109,-59,168,-189L915,779c0,0,-44,90,-123,131c0,0,-79,41,-196,41c0,0,-182,0,-278,-110c0,0,-96,-110,-96,-310c0,0,0,-200,102,-315c0,0,102,-115,282,-115c0,0,103,0,193,31c0,0,89,31,144,85V407H629V526h445V164c0,0,-83,-85,-205,-132c0,0,-121,-46,-263,-46Z" 
id="f0_17"
transform="scale(0.001,-0.001)" />

<path d="M355,-14c0,0,-133,0,-194,65c0,0,-62,66,-62,219V808H234V296c0,0,0,-80,16,-124c0,0,16,-44,50,-64c0,0,34,-19,101,-19c0,0,97,0,153,66c0,0,55,67,55,185V808H744V172c0,0,0,-141,4,-172H621c0,0,0,4,-1,20c0,0,-1,17,-2,38c0,0,-1,21,-3,80h-2C613,138,567,55,506,20c0,0,-61,-34,-151,-34Z" 
id="f0_2h"
transform="scale(0.001,-0.001)" />

<path d="M395,89c0,0,115,0,166,79c0,0,51,79,51,246c0,0,0,160,-51,235c0,0,-51,75,-164,75c0,0,-102,0,-147,-75c0,0,-45,-75,-45,-244c0,0,0,-170,45,-243c0,0,45,-73,145,-73ZM361,-14c0,0,-153,0,-225,102c0,0,-72,103,-72,312c0,0,0,422,297,422c0,0,92,0,153,-33c0,0,61,-34,98,-107h2l-2,90v335H747V166c0,0,0,-126,4,-166H623c0,0,-2,12,-5,55c0,0,-3,44,-3,75h-3c0,0,-37,-78,-98,-111c0,0,-62,-33,-153,-33Z" 
id="f0_20"
transform="scale(0.001,-0.001)" />

<path d="M140,0V163H285V0Z" 
id="f0_i"
transform="scale(0.001,-0.001)" />


</defs>
</svg>