<?xml version="1.0" encoding="UTF-8" standalone="no"?>
<!DOCTYPE svg PUBLIC "-//W3C//DTD SVG 1.1//EN"
"http://www.w3.org/Graphics/SVG/1.1/DTD/svg11.dtd">
<svg viewBox="0 0 705 1053" version="1.1" xmlns="http://www.w3.org/2000/svg" xmlns:xlink="http://www.w3.org/1999/xlink">
<defs>
<style type="text/css"><![CDATA[
.g0_113{
fill: none;
stroke: #000000;
stroke-width: 0.7831999;
stroke-linecap: round;
stroke-linejoin: miter;
}
.g1_113{
fill: none;
stroke: #000000;
stroke-width: 0.77000004;
stroke-linecap: round;
stroke-linejoin: miter;
}
.g2_113{
fill: none;
stroke: #000000;
stroke-width: 0.7585111;
stroke-linecap: round;
stroke-linejoin: miter;
}
.g3_113{
}
.g4_113{
fill: none;
stroke: #000000;
stroke-width: 0.68395555;
stroke-linecap: round;
stroke-linejoin: miter;
}
.g5_113{
fill: none;
stroke: #000000;
stroke-width: 0.7504445;
stroke-linecap: round;
stroke-linejoin: miter;
}
.g6_113{
fill: none;
stroke: #000000;
stroke-width: 0.7638889;
stroke-linecap: round;
stroke-linejoin: miter;
}
.g7_113{
fill: none;
stroke: #000000;
stroke-width: 0.7609555;
stroke-linecap: round;
stroke-linejoin: miter;
}
.g8_113{
fill: none;
stroke: #000000;
stroke-width: 0.7680445;
stroke-linecap: round;
stroke-linejoin: miter;
}
.g9_113{
fill: none;
stroke: #000000;
stroke-width: 0.67393327;
stroke-linecap: round;
stroke-linejoin: miter;
}
.g10_113{
fill: none;
stroke: #000000;
stroke-width: 0.77317774;
stroke-linecap: round;
stroke-linejoin: miter;
}
.g11_113{
fill: none;
stroke: #000000;
stroke-width: 0.77635556;
stroke-linecap: round;
stroke-linejoin: miter;
}
]]></style>
</defs>
<g fill="#D4D4D4" fill-opacity="0.56" >
<use xlink:href="#f0_1f" transform="matrix(50.9,-50.9,50.9,50.9,93.6,924.1)" />
<use xlink:href="#f0_2a" transform="matrix(50.9,-50.9,50.9,50.9,154.2,863.6)" />
<use xlink:href="#f0_28" transform="matrix(50.9,-50.9,50.9,50.9,197.4,820.3)" />
<use xlink:href="#f0_25" transform="matrix(50.9,-50.9,50.9,50.9,214.7,803.1)" />
<use xlink:href="#f0_2a" transform="matrix(50.9,-50.9,50.9,50.9,231.9,785.8)" />
<use xlink:href="#f0_21" transform="matrix(50.9,-50.9,50.9,50.9,275.2,742.5)" />
<use xlink:href="#f0_2k" transform="matrix(50.9,-50.9,50.9,50.9,318.4,699.3)" />
<use xlink:href="#f0_1x" transform="matrix(50.9,-50.9,50.9,50.9,357.3,660.4)" />
<use xlink:href="#f0_29" transform="matrix(50.9,-50.9,50.9,50.9,400.6,617.2)" />
<use xlink:href="#f0_2c" transform="matrix(50.9,-50.9,50.9,50.9,465.4,552.4)" />
<use xlink:href="#f0_2b" transform="matrix(50.9,-50.9,50.9,50.9,508.6,509.1)" />
<use xlink:href="#f0_25" transform="matrix(50.9,-50.9,50.9,50.9,551.8,465.9)" />
<use xlink:href="#f0_2a" transform="matrix(50.9,-50.9,50.9,50.9,569.1,448.6)" />
<use xlink:href="#f0_2g" transform="matrix(50.9,-50.9,50.9,50.9,612.4,405.4)" />
</g>
<g fill="#000000" >
<use xlink:href="#f1_k" transform="matrix(10.4,0,0,10.4,43.4,96.4)" />
<use xlink:href="#f1_o" transform="matrix(10.4,0,0,10.4,52.3,96.4)" />
<use xlink:href="#f1_h" transform="matrix(10.4,0,0,10.4,61.5,96.4)" />
</g>
<path d="M87.3,90.7H97.8" class="g0_113" />
<g fill="#000000" >
<use xlink:href="#f1_o" transform="matrix(10.5,0,0,10.5,88,84.5)" />
<use xlink:href="#f1_p" transform="matrix(10.5,0,0,10.5,88,105.7)" />
<use xlink:href="#f1_k" transform="matrix(10.4,0,0,10.4,410.1,96.4)" />
<use xlink:href="#f1_p" transform="matrix(10.4,0,0,10.4,419,96.4)" />
<use xlink:href="#f1_h" transform="matrix(10.4,0,0,10.4,428.1,96.4)" />
</g>
<path d="M453.9,90.7h10.6" class="g0_113" />
<g fill="#000000" >
<use xlink:href="#f1_o" transform="matrix(10.5,0,0,10.5,454.7,84.5)" />
<use xlink:href="#f1_s" transform="matrix(10.5,0,0,10.5,454.5,105.7)" />
<use xlink:href="#f1_k" transform="matrix(10.4,0,0,10.4,43.4,150)" />
<use xlink:href="#f1_q" transform="matrix(10.4,0,0,10.4,52.3,150)" />
<use xlink:href="#f1_h" transform="matrix(10.4,0,0,10.4,61.5,150)" />
</g>
<path d="M87.2,144.2h15.7m15.6,0h15.6" class="g1_113" />
<g fill="#000000" >
<use xlink:href="#f1_p" transform="matrix(10.5,0,0,10.5,90.6,138)" />
<use xlink:href="#f1_o" transform="matrix(10.5,0,0,10.5,121.9,138)" />
<use xlink:href="#f1_f" transform="matrix(10.5,0,0,10.5,106.7,148.5)" />
<use xlink:href="#f1_k" transform="matrix(10.5,0,0,10.5,86.7,159.2)" />
<use xlink:href="#f1_k" transform="matrix(10.5,0,0,10.5,95.8,159.2)" />
<use xlink:href="#f1_k" transform="matrix(10.5,0,0,10.5,117.9,159.2)" />
<use xlink:href="#f1_k" transform="matrix(10.5,0,0,10.5,127,159.2)" />
<use xlink:href="#f1_k" transform="matrix(10.4,0,0,10.4,43.4,203.3)" />
<use xlink:href="#f1_r" transform="matrix(10.4,0,0,10.4,52.3,203.3)" />
<use xlink:href="#f1_h" transform="matrix(10.4,0,0,10.4,61.5,203.3)" />
<use xlink:href="#f1_b" transform="matrix(10.4,0,0,10.4,84.1,203.3)" />
<use xlink:href="#f1_24" transform="matrix(10.4,0,0,10.4,89.4,203.3)" />
<use xlink:href="#f1_c" transform="matrix(10.4,0,0,10.4,93,203.3)" />
</g>
<path d="M143.5,198.8h17.9" class="g2_113" />
<g fill="#000000" >
<use xlink:href="#f1_k" transform="matrix(10.4,0,0,10.5,148.8,192.7)" />
<use xlink:href="#f1_k" transform="matrix(10.4,0,0,10.5,143,213.8)" />
<use xlink:href="#f1_j" transform="matrix(10.4,0,0,10.5,151.9,213.8)" />
<use xlink:href="#f2_2b" transform="matrix(10.4,0,0,10.5,107.7,203.1)" />
<use xlink:href="#f3_x" transform="matrix(10.5,0,0,10.5,125.7,203.1)" />
<use xlink:href="#f1_f" transform="matrix(10.4,0,0,10.4,165.5,203.3)" />
<use xlink:href="#f1_b" transform="matrix(10.4,0,0,10.4,176.7,203.3)" />
<use xlink:href="#f1_24" transform="matrix(10.4,0,0,10.4,182.1,203.3)" />
<use xlink:href="#f1_24" transform="matrix(10.4,0,0,10.4,185.6,203.3)" />
<use xlink:href="#f1_c" transform="matrix(10.4,0,0,10.4,189.1,203.3)" />
</g>
<path d="M240.3,199.9h10.4" class="g1_113" />
<g fill="#000000" >
<use xlink:href="#f1_k" transform="matrix(10.5,0,0,10.5,241.6,193.8)" />
<use xlink:href="#f1_o" transform="matrix(10.5,0,0,10.5,241,214.9)" />
<use xlink:href="#f2_2b" transform="matrix(10.5,0,0,10.5,203.9,204.2)" />
<use xlink:href="#f3_x" transform="matrix(10.5,0,0,10.5,222.2,204.2)" />
<use xlink:href="#f1_k" transform="matrix(10.4,0,0,10.4,43.4,243.6)" />
<use xlink:href="#f1_s" transform="matrix(10.4,0,0,10.4,52.3,243.6)" />
<use xlink:href="#f1_h" transform="matrix(10.4,0,0,10.4,61.5,243.6)" />
<use xlink:href="#f1_j" transform="matrix(10.4,0,0,10.4,84.1,243.6)" />
<use xlink:href="#f1_h" transform="matrix(10.4,0,0,10.4,93,243.6)" />
<use xlink:href="#f1_m" transform="matrix(10.4,0,0,10.4,97.4,243.6)" />
<use xlink:href="#f1_p" transform="matrix(10.4,0,0,10.4,106.6,243.6)" />
<use xlink:href="#f1_q" transform="matrix(10.4,0,0,10.4,115.5,243.6)" />
<use xlink:href="#f1_r" transform="matrix(10.4,0,0,10.4,124.3,243.6)" />
<use xlink:href="#f1_l" transform="matrix(10.4,0,0,10.4,410.1,243.6)" />
<use xlink:href="#f1_j" transform="matrix(10.4,0,0,10.4,419,243.6)" />
<use xlink:href="#f1_h" transform="matrix(10.4,0,0,10.4,428.1,243.6)" />
</g>
<path fill-rule="evenodd" d="M84.1,264.2H553.7v1.4H84.1v-1.4Z" class="g3_113" />
<path fill-rule="evenodd" d="M84.1,290.2H553.7v1.5H84.1v-1.5Z" class="g3_113" />
<g fill="#000000" >
<use xlink:href="#f4_1n" transform="matrix(9,0,0,9,134.6,282.5)" />
<use xlink:href="#f5_j" transform="matrix(9,0,0,9,254.5,282.5)" />
<use xlink:href="#f5_k" transform="matrix(9,0,0,9,373.6,282.5)" />
<use xlink:href="#f5_l" transform="matrix(9,0,0,9,492.8,282.5)" />
</g>
<path fill-rule="evenodd" d="M84.1,315.3H553.7v1.5H84.1v-1.5Z" class="g3_113" />
<g fill="#000000" >
<use xlink:href="#f2_1f" transform="matrix(9,0,0,9,125.4,307.6)" />
<use xlink:href="#f1_b" transform="matrix(9,0,0,9,134.6,307.6)" />
<use xlink:href="#f2_1n" transform="matrix(9,0,0,9,139.1,307.6)" />
<use xlink:href="#f1_c" transform="matrix(9,0,0,9,148.3,307.6)" />
<use xlink:href="#f1_r" transform="matrix(9,0,0,9,237,307.6)" />
<use xlink:href="#f1_k" transform="matrix(9,0,0,9,244.7,307.6)" />
<use xlink:href="#f1_i" transform="matrix(9,0,0,9,252.3,307.6)" />
<use xlink:href="#f1_k" transform="matrix(9,0,0,9,256.1,307.6)" />
<use xlink:href="#f1_p" transform="matrix(9,0,0,9,263.8,307.6)" />
<use xlink:href="#f1_s" transform="matrix(9,0,0,9,271.4,307.6)" />
<use xlink:href="#f1_q" transform="matrix(9,0,0,9,356.2,307.6)" />
<use xlink:href="#f1_l" transform="matrix(9,0,0,9,363.8,307.6)" />
<use xlink:href="#f1_i" transform="matrix(9,0,0,9,371.5,307.6)" />
<use xlink:href="#f1_k" transform="matrix(9,0,0,9,375.3,307.6)" />
<use xlink:href="#f1_p" transform="matrix(9,0,0,9,383,307.6)" />
<use xlink:href="#f1_s" transform="matrix(9,0,0,9,390.6,307.6)" />
<use xlink:href="#f1_k" transform="matrix(9,0,0,9,475.4,307.6)" />
<use xlink:href="#f1_p" transform="matrix(9,0,0,9,483,307.6)" />
<use xlink:href="#f1_i" transform="matrix(9,0,0,9,490.7,307.6)" />
<use xlink:href="#f1_k" transform="matrix(9,0,0,9,494.5,307.6)" />
<use xlink:href="#f1_p" transform="matrix(9,0,0,9,502.1,307.6)" />
<use xlink:href="#f1_s" transform="matrix(9,0,0,9,509.8,307.6)" />
<use xlink:href="#f1_l" transform="matrix(10.4,0,0,10.4,43.4,357.1)" />
<use xlink:href="#f1_k" transform="matrix(10.4,0,0,10.4,52.3,357.1)" />
<use xlink:href="#f1_h" transform="matrix(10.4,0,0,10.4,61.5,357.1)" />
</g>
<path d="M99.6,351.4h17.2" class="g4_113" />
<g fill="#000000" >
<use xlink:href="#f1_s" transform="matrix(10.6,0,0,10.5,101.2,345.2)" />
<use xlink:href="#f1_k" transform="matrix(10.6,0,0,10.5,109.3,345.2)" />
<use xlink:href="#f1_99" transform="matrix(10.6,0,0,10.5,86.8,355.6)" />
<use xlink:href="#f1_o" transform="matrix(10.6,0,0,10.5,100.2,366.4)" />
<use xlink:href="#f1_n" transform="matrix(10.6,0,0,10.5,108.3,366.4)" />
<use xlink:href="#f1_l" transform="matrix(10.4,0,0,10.4,410.1,357.1)" />
<use xlink:href="#f1_l" transform="matrix(10.4,0,0,10.4,419,357.1)" />
<use xlink:href="#f1_h" transform="matrix(10.4,0,0,10.4,428.1,357.1)" />
</g>
<path d="M453.9,351.4h10.6" class="g0_113" />
<g fill="#000000" >
<use xlink:href="#f1_m" transform="matrix(10.5,0,0,10.5,454.7,345.2)" />
<use xlink:href="#f1_n" transform="matrix(10.5,0,0,10.5,454.7,366.4)" />
<use xlink:href="#f1_l" transform="matrix(10.4,0,0,10.4,43.4,419.8)" />
<use xlink:href="#f1_m" transform="matrix(10.4,0,0,10.4,52.3,419.8)" />
<use xlink:href="#f1_h" transform="matrix(10.4,0,0,10.4,61.5,419.8)" />
</g>
<path d="M87.1,414.1h17.8" class="g5_113" />
<g fill="#000000" >
<use xlink:href="#f1_k" transform="matrix(10.5,0,0,10.5,92.3,407.9)" />
<use xlink:href="#f1_k" transform="matrix(10.5,0,0,10.5,86.7,429.1)" />
<use xlink:href="#f1_q" transform="matrix(10.5,0,0,10.5,95.6,429.1)" />
<use xlink:href="#f1_l" transform="matrix(10.4,0,0,10.4,410.1,419.8)" />
<use xlink:href="#f1_n" transform="matrix(10.4,0,0,10.4,419,419.8)" />
<use xlink:href="#f1_h" transform="matrix(10.4,0,0,10.4,428.1,419.8)" />
</g>
<path d="M490.3,416.1h18.3" class="g6_113" />
<g fill="#000000" >
<use xlink:href="#f1_k" transform="matrix(7.8,0,0,7.8,520.3,401.2)" />
<use xlink:href="#f1_j" transform="matrix(7.8,0,0,7.8,526.9,401.2)" />
<use xlink:href="#f1_s" transform="matrix(10.4,0,0,10.4,494.7,410)" />
<use xlink:href="#f1_k" transform="matrix(10.4,0,0,10.4,452.1,420.3)" />
<use xlink:href="#f1_k" transform="matrix(10.4,0,0,10.4,489.8,430.9)" />
<use xlink:href="#f1_j" transform="matrix(10.4,0,0,10.4,498.9,430.9)" />
<use xlink:href="#f3_4o" transform="matrix(10.5,0,0,10.4,480.4,411.1)" />
<use xlink:href="#f3_54" transform="matrix(10.5,0,0,10.4,510.2,411.1)" />
<use xlink:href="#f3_h" transform="matrix(10.5,0,0,10.4,465.1,420.3)" />
<use xlink:href="#f3_4q" transform="matrix(10.5,0,0,10.4,480.4,427.6)" />
<use xlink:href="#f3_56" transform="matrix(10.5,0,0,10.4,510.2,427.6)" />
<use xlink:href="#f1_l" transform="matrix(10.4,0,0,10.4,43.4,486.9)" />
<use xlink:href="#f1_o" transform="matrix(10.4,0,0,10.4,52.3,486.9)" />
<use xlink:href="#f1_h" transform="matrix(10.4,0,0,10.4,61.5,486.9)" />
<use xlink:href="#f3_c" transform="matrix(10.4,0,0,11.2,113.5,483.3)" />
<use xlink:href="#f3_d" transform="matrix(10.4,0,0,11.2,134.9,483.3)" />
</g>
<path d="M165.7,481.2h19.2" class="g7_113" />
<g fill="#000000" >
<use xlink:href="#f1_m" transform="matrix(10.4,0,0,10.5,166.5,475)" />
<use xlink:href="#f1_o" transform="matrix(10.4,0,0,10.5,175.3,475)" />
<use xlink:href="#f1_2h" transform="matrix(10.4,0,0,10.5,87,485.4)" />
<use xlink:href="#f1_1w" transform="matrix(10.4,0,0,10.5,95,485.4)" />
<use xlink:href="#f1_2d" transform="matrix(10.4,0,0,10.5,103.9,485.4)" />
<use xlink:href="#f1_h" transform="matrix(10.4,0,0,10.5,188.5,485.4)" />
<use xlink:href="#f1_k" transform="matrix(10.4,0,0,10.5,166,496.2)" />
<use xlink:href="#f1_l" transform="matrix(10.4,0,0,10.5,174.9,496.2)" />
<use xlink:href="#f2_1n" transform="matrix(10.4,0,0,10.5,120.3,485.4)" />
<use xlink:href="#f3_x" transform="matrix(10.4,0,0,10.5,148.1,485.4)" />
<use xlink:href="#f1_l" transform="matrix(10.4,0,0,10.4,43.4,548.5)" />
<use xlink:href="#f1_p" transform="matrix(10.4,0,0,10.4,52.3,548.5)" />
<use xlink:href="#f1_h" transform="matrix(10.4,0,0,10.4,61.5,548.5)" />
</g>
<path d="M87.2,544.8h18.4m14.3,0h10.3" class="g8_113" />
<g fill="#000000" >
<use xlink:href="#f1_q" transform="matrix(7.8,0,0,7.8,142.8,529.9)" />
<use xlink:href="#f1_k" transform="matrix(10.4,0,0,10.4,87,538.7)" />
<use xlink:href="#f1_l" transform="matrix(10.4,0,0,10.4,96,538.7)" />
<use xlink:href="#f1_n" transform="matrix(10.4,0,0,10.4,120.6,538.7)" />
<use xlink:href="#f1_h" transform="matrix(10.4,0,0,10.4,154.5,549)" />
<use xlink:href="#f1_o" transform="matrix(10.4,0,0,10.4,92,559.6)" />
<use xlink:href="#f1_o" transform="matrix(10.4,0,0,10.4,120.6,559.6)" />
<use xlink:href="#f3_4o" transform="matrix(10.4,0,0,10.4,110,539.8)" />
<use xlink:href="#f3_54" transform="matrix(10.4,0,0,10.4,131.8,539.8)" />
<use xlink:href="#f3_4q" transform="matrix(10.4,0,0,10.4,110,556.3)" />
<use xlink:href="#f3_56" transform="matrix(10.4,0,0,10.4,131.8,556.3)" />
<use xlink:href="#f1_l" transform="matrix(10.4,0,0,10.4,410.1,548.5)" />
<use xlink:href="#f1_q" transform="matrix(10.4,0,0,10.4,419,548.5)" />
<use xlink:href="#f1_h" transform="matrix(10.4,0,0,10.4,428.1,548.5)" />
</g>
<path d="M453.5,542.8h17" class="g9_113" />
<g fill="#000000" >
<use xlink:href="#f1_l" transform="matrix(10.5,0,0,10.5,458.3,536.6)" />
<use xlink:href="#f1_m" transform="matrix(10.5,0,0,10.5,454.2,557.8)" />
<use xlink:href="#f1_m" transform="matrix(10.5,0,0,10.5,462.2,557.8)" />
<use xlink:href="#f1_l" transform="matrix(10.4,0,0,10.4,43.4,606.8)" />
<use xlink:href="#f1_r" transform="matrix(10.4,0,0,10.4,52.3,606.8)" />
<use xlink:href="#f1_h" transform="matrix(10.4,0,0,10.4,61.5,606.8)" />
<use xlink:href="#f1_b" transform="matrix(10.4,0,0,10.4,106.7,606.8)" />
<use xlink:href="#f1_24" transform="matrix(10.4,0,0,10.4,112,606.8)" />
<use xlink:href="#f1_c" transform="matrix(10.4,0,0,10.4,115.5,606.8)" />
</g>
<path d="M142.2,601.1h28.4" class="g10_113" />
<g fill="#000000" >
<use xlink:href="#f1_k" transform="matrix(10.5,0,0,10.5,142.2,594.9)" />
<use xlink:href="#f1_j" transform="matrix(10.5,0,0,10.5,151.3,594.9)" />
<use xlink:href="#f1_o" transform="matrix(10.5,0,0,10.5,160.5,594.9)" />
<use xlink:href="#f1_o" transform="matrix(10.5,0,0,10.5,142.9,616.1)" />
<use xlink:href="#f1_k" transform="matrix(10.5,0,0,10.5,152.1,616.1)" />
<use xlink:href="#f1_l" transform="matrix(10.5,0,0,10.5,161.2,616.1)" />
<use xlink:href="#f1_b" transform="matrix(10.4,0,0,10.4,286.4,606.8)" />
<use xlink:href="#f1_24" transform="matrix(10.4,0,0,10.4,291.7,606.8)" />
<use xlink:href="#f1_24" transform="matrix(10.4,0,0,10.4,295.2,606.8)" />
<use xlink:href="#f1_c" transform="matrix(10.4,0,0,10.4,298.7,606.8)" />
</g>
<path d="M325.6,601.1H354" class="g10_113" />
<g fill="#000000" >
<use xlink:href="#f1_k" transform="matrix(10.5,0,0,10.5,325.5,594.9)" />
<use xlink:href="#f1_s" transform="matrix(10.5,0,0,10.5,334.6,594.9)" />
<use xlink:href="#f1_m" transform="matrix(10.5,0,0,10.5,343.7,594.9)" />
<use xlink:href="#f1_o" transform="matrix(10.5,0,0,10.5,326.2,616.1)" />
<use xlink:href="#f1_k" transform="matrix(10.5,0,0,10.5,335.4,616.1)" />
<use xlink:href="#f1_l" transform="matrix(10.5,0,0,10.5,344.5,616.1)" />
<use xlink:href="#f1_b" transform="matrix(10.4,0,0,10.4,466.2,606.8)" />
<use xlink:href="#f1_24" transform="matrix(10.4,0,0,10.4,471.5,606.8)" />
<use xlink:href="#f1_24" transform="matrix(10.4,0,0,10.4,475.1,606.8)" />
<use xlink:href="#f1_24" transform="matrix(10.4,0,0,10.4,478.6,606.8)" />
<use xlink:href="#f1_c" transform="matrix(10.4,0,0,10.4,482.1,606.8)" />
</g>
<path d="M508.9,601.1h19.6" class="g11_113" />
<g fill="#000000" >
<use xlink:href="#f1_o" transform="matrix(10.5,0,0,10.5,509.7,594.9)" />
<use xlink:href="#f1_m" transform="matrix(10.5,0,0,10.5,518.9,594.9)" />
<use xlink:href="#f1_p" transform="matrix(10.5,0,0,10.5,509.7,616.1)" />
<use xlink:href="#f1_n" transform="matrix(10.5,0,0,10.5,518.9,616.1)" />
<use xlink:href="#f1_l" transform="matrix(10.4,0,0,10.4,43.4,668.2)" />
<use xlink:href="#f1_s" transform="matrix(10.4,0,0,10.4,52.3,668.2)" />
<use xlink:href="#f1_h" transform="matrix(10.4,0,0,10.4,61.5,668.2)" />
</g>
<path d="M87.3,662.5H97.5" class="g0_113" />
<g fill="#000000" >
<use xlink:href="#f1_k" transform="matrix(10.5,0,0,10.5,88.6,656.3)" />
<use xlink:href="#f1_l" transform="matrix(10.5,0,0,10.5,88,677.5)" />
<use xlink:href="#f1_m" transform="matrix(10.4,0,0,10.4,410.1,668.2)" />
<use xlink:href="#f1_j" transform="matrix(10.4,0,0,10.4,419,668.2)" />
<use xlink:href="#f1_h" transform="matrix(10.4,0,0,10.4,428.1,668.2)" />
</g>
<path d="M453.9,662.5h10.6" class="g0_113" />
<g fill="#000000" >
<use xlink:href="#f1_m" transform="matrix(10.5,0,0,10.5,454.7,656.3)" />
<use xlink:href="#f1_r" transform="matrix(10.5,0,0,10.5,454.7,677.5)" />
<use xlink:href="#f1_m" transform="matrix(10.4,0,0,10.4,43.4,733.9)" />
<use xlink:href="#f1_k" transform="matrix(10.4,0,0,10.4,52.3,733.9)" />
<use xlink:href="#f1_h" transform="matrix(10.4,0,0,10.4,61.5,733.9)" />
</g>
<path d="M87.2,728.1h19.4" class="g11_113" />
<g fill="#000000" >
<use xlink:href="#f1_k" transform="matrix(10.5,0,0,10.5,93.1,721.9)" />
<use xlink:href="#f1_o" transform="matrix(10.5,0,0,10.5,88,743.1)" />
<use xlink:href="#f1_l" transform="matrix(10.5,0,0,10.5,97.2,743.1)" />
<use xlink:href="#f1_m" transform="matrix(10.4,0,0,10.4,410.1,733.9)" />
<use xlink:href="#f1_l" transform="matrix(10.4,0,0,10.4,419,733.9)" />
<use xlink:href="#f1_h" transform="matrix(10.4,0,0,10.4,428.1,733.9)" />
</g>
<path d="M453.9,728.1h28.6" class="g10_113" />
<g fill="#000000" >
<use xlink:href="#f1_l" transform="matrix(10.5,0,0,10.5,459.2,721.9)" />
<use xlink:href="#f1_l" transform="matrix(10.5,0,0,10.5,468.3,721.9)" />
<use xlink:href="#f1_n" transform="matrix(10.5,0,0,10.5,454.6,743.1)" />
<use xlink:href="#f1_l" transform="matrix(10.5,0,0,10.5,463.7,743.1)" />
<use xlink:href="#f1_o" transform="matrix(10.5,0,0,10.5,472.8,743.1)" />
<use xlink:href="#f1_m" transform="matrix(10.4,0,0,10.4,43.4,799.5)" />
<use xlink:href="#f1_m" transform="matrix(10.4,0,0,10.4,52.3,799.5)" />
<use xlink:href="#f1_h" transform="matrix(10.4,0,0,10.4,61.5,799.5)" />
</g>
<path d="M87.2,793.7h19.6" class="g11_113" />
<g fill="#000000" >
<use xlink:href="#f1_l" transform="matrix(10.5,0,0,10.5,88,787.6)" />
<use xlink:href="#f1_o" transform="matrix(10.5,0,0,10.5,97.2,787.6)" />
<use xlink:href="#f1_o" transform="matrix(10.5,0,0,10.5,88.2,808.8)" />
<use xlink:href="#f1_l" transform="matrix(10.5,0,0,10.5,97.3,808.8)" />
<use xlink:href="#f1_m" transform="matrix(10.4,0,0,10.4,410.1,799.5)" />
<use xlink:href="#f1_n" transform="matrix(10.4,0,0,10.4,419,799.5)" />
<use xlink:href="#f1_h" transform="matrix(10.4,0,0,10.4,428.1,799.5)" />
</g>
<path d="M453.8,793.7h17.7" class="g5_113" />
<g fill="#000000" >
<use xlink:href="#f1_k" transform="matrix(10.5,0,0,10.5,453.4,787.6)" />
<use xlink:href="#f1_l" transform="matrix(10.5,0,0,10.5,462.4,787.6)" />
<use xlink:href="#f1_k" transform="matrix(10.5,0,0,10.5,453.3,808.8)" />
<use xlink:href="#f1_m" transform="matrix(10.5,0,0,10.5,462.2,808.8)" />
<use xlink:href="#f1_m" transform="matrix(10.4,0,0,10.4,43.4,864.2)" />
<use xlink:href="#f1_o" transform="matrix(10.4,0,0,10.4,52.3,864.2)" />
<use xlink:href="#f1_h" transform="matrix(10.4,0,0,10.4,61.5,864.2)" />
</g>
<path d="M87.2,859.6h15.5" class="g6_113" />
<g fill="#000000" >
<use xlink:href="#f1_r" transform="matrix(10.5,0,0,10.5,90.6,853.4)" />
<use xlink:href="#f1_k" transform="matrix(10.5,0,0,10.5,86.7,874.6)" />
<use xlink:href="#f1_k" transform="matrix(10.5,0,0,10.5,95.6,874.6)" />
<use xlink:href="#f1_m" transform="matrix(10.4,0,0,10.4,410.1,864.2)" />
<use xlink:href="#f1_p" transform="matrix(10.4,0,0,10.4,419,864.2)" />
<use xlink:href="#f1_h" transform="matrix(10.4,0,0,10.4,428.1,864.2)" />
</g>
<path d="M453.9,859.6h19.6" class="g11_113" />
<g fill="#000000" >
<use xlink:href="#f1_k" transform="matrix(10.5,0,0,10.5,454.2,853.4)" />
<use xlink:href="#f1_l" transform="matrix(10.5,0,0,10.5,463.4,853.4)" />
<use xlink:href="#f1_m" transform="matrix(10.5,0,0,10.5,454.7,874.6)" />
<use xlink:href="#f1_q" transform="matrix(10.5,0,0,10.5,463.9,874.6)" />
<use xlink:href="#f6_q" transform="matrix(12,0,0,12,653.6,1020.6)" />
</g>
<g fill="#0080FF" fill-opacity="0.5" >
<use xlink:href="#f0_1c" transform="matrix(36.8,0,0,36.8,176.3,1052.4)" />
<use xlink:href="#f0_21" transform="matrix(36.8,0,0,36.8,207.5,1052.4)" />
<use xlink:href="#f0_1x" transform="matrix(36.8,0,0,36.8,238.8,1052.4)" />
<use xlink:href="#f0_2e" transform="matrix(36.8,0,0,36.8,270,1052.4)" />
<use xlink:href="#f0_2a" transform="matrix(36.8,0,0,36.8,288.7,1052.4)" />
<use xlink:href="#f0_17" transform="matrix(36.8,0,0,36.8,319.9,1052.4)" />
<use xlink:href="#f0_2h" transform="matrix(36.8,0,0,36.8,363.6,1052.4)" />
<use xlink:href="#f0_25" transform="matrix(36.8,0,0,36.8,394.8,1052.4)" />
<use xlink:href="#f0_20" transform="matrix(36.8,0,0,36.8,407.3,1052.4)" />
<use xlink:href="#f0_21" transform="matrix(36.8,0,0,36.8,438.5,1052.4)" />
<use xlink:href="#f0_i" transform="matrix(36.8,0,0,36.8,469.7,1052.4)" />
<use xlink:href="#f0_25" transform="matrix(36.8,0,0,36.8,485.4,1052.4)" />
<use xlink:href="#f0_2a" transform="matrix(36.8,0,0,36.8,497.8,1052.4)" />
</g>
<defs>
<path d="M593,101c0,0,182,0,279,112c0,0,98,113,98,318c0,0,0,196,-98,308c0,0,-98,112,-277,112c0,0,-181,0,-279,-110c0,0,-99,-111,-99,-310c0,0,0,-198,100,-314c0,0,99,-116,276,-116Zm0,-115c0,0,-162,0,-279,65c0,0,-118,66,-180,190c0,0,-62,124,-62,290c0,0,0,252,138,394c0,0,138,142,385,142c0,0,160,0,278,-64c0,0,118,-64,180,-185c0,0,62,-122,62,-287c0,0,0,-165,-63,-289c0,0,-63,-124,-181,-190c0,0,-118,-66,-278,-66Z" 
id="f0_1f"
transform="scale(0.001,-0.001)" />

<path d="M106,0V635c0,0,0,141,-5,173H228c0,0,1,-4,2,-21c0,0,1,-16,2,-37c0,0,1,-22,2,-81h2c0,0,47,84,108,119c0,0,60,34,151,34c0,0,132,0,194,-66c0,0,61,-66,61,-218V0H615V512c0,0,0,80,-15,124c0,0,-16,44,-50,63c0,0,-35,20,-101,20c0,0,-97,0,-153,-67c0,0,-56,-66,-56,-184V0Z" 
id="f0_2a"
transform="scale(0.001,-0.001)" />

<path d="M103,0V1107H237V0Z" 
id="f0_28"
transform="scale(0.001,-0.001)" />

<path d="M102,0V808H236V0Zm0,979v128H236V979Z" 
id="f0_25"
transform="scale(0.001,-0.001)" />

<path d="M643,478c0,0,-11,128,-65,187c0,0,-54,59,-154,59c0,0,-98,0,-155,-66c0,0,-57,-65,-62,-180ZM431,-14c0,0,-179,0,-272,106c0,0,-94,107,-94,317c0,0,0,200,94,307c0,0,93,106,267,106c0,0,356,0,356,-429V375H206c0,0,0,-138,57,-213c0,0,58,-75,168,-75c0,0,87,0,140,35c0,0,53,35,71,88L760,177c0,0,-72,-191,-329,-191Z" 
id="f0_21"
transform="scale(0.001,-0.001)" />

<path d="M17,0L304,415L31,808H179L380,493L580,808H730L457,417L747,0H598L380,331L162,0Z" 
id="f0_2k"
transform="scale(0.001,-0.001)" />

<path d="M339,87c0,0,74,0,132,34c0,0,57,33,90,91c0,0,34,59,34,121v66L448,396c0,0,-95,-2,-144,-19c0,0,-49,-18,-75,-55c0,0,-26,-38,-26,-98c0,0,0,-65,35,-101c0,0,36,-36,101,-36ZM309,-14c0,0,-122,0,-183,64c0,0,-61,64,-61,176c0,0,0,125,82,192c0,0,83,67,266,72l182,3v44c0,0,0,98,-42,141c0,0,-42,43,-132,43c0,0,-90,0,-131,-31c0,0,-41,-31,-49,-98L101,604c0,0,34,218,323,218c0,0,153,0,229,-70c0,0,77,-69,77,-202V202c0,0,0,-59,16,-90c0,0,16,-30,60,-30c0,0,19,0,44,5V4C850,4,799,-7,746,-7c0,0,-75,0,-109,38c0,0,-33,40,-38,124h-4C595,155,543,62,475,24c0,0,-68,-38,-166,-38Z" 
id="f0_1x"
transform="scale(0.001,-0.001)" />

<path d="M106,0V635c0,0,0,141,-5,173H228c0,0,1,-4,2,-21c0,0,1,-16,2,-37c0,0,1,-22,2,-81h2c0,0,44,86,100,120c0,0,56,33,136,33c0,0,92,0,145,-36c0,0,54,-37,75,-117h2c0,0,42,82,101,117c0,0,59,36,143,36c0,0,123,0,178,-66c0,0,56,-67,56,-218V0H1039V512c0,0,0,117,-32,162c0,0,-32,45,-116,45c0,0,-88,0,-136,-66c0,0,-49,-65,-49,-185V0H573V512c0,0,0,117,-32,162c0,0,-32,45,-116,45c0,0,-86,0,-136,-66c0,0,-50,-66,-50,-185V0Z" 
id="f0_29"
transform="scale(0.001,-0.001)" />

<path d="M453,84c0,0,100,0,146,74c0,0,46,73,46,247c0,0,0,169,-46,241c0,0,-45,73,-145,73c0,0,-80,0,-125,-34c0,0,-45,-34,-68,-105c0,0,-24,-71,-24,-186c0,0,0,-159,51,-234c0,0,51,-76,165,-76ZM103,-316V643c0,0,0,124,-5,165H228c0,0,1,-3,3,-22c0,0,1,-18,3,-56c0,0,2,-38,2,-52h3c0,0,36,75,94,110c0,0,59,34,156,34c0,0,149,0,223,-100c0,0,74,-100,74,-314c0,0,0,-422,-297,-422c0,0,-187,0,-251,140h-4c0,0,3,-6,3,-126V-316Z" 
id="f0_2c"
transform="scale(0.001,-0.001)" />

<path d="M420,84c0,0,121,0,173,78c0,0,52,77,52,243c0,0,0,167,-50,243c0,0,-50,76,-167,76c0,0,-118,0,-170,-78c0,0,-53,-77,-53,-241c0,0,0,-160,52,-241c0,0,52,-80,163,-80Zm1,-98c0,0,-176,0,-267,107c0,0,-90,108,-90,312c0,0,0,417,362,417c0,0,185,0,272,-102c0,0,88,-101,88,-315c0,0,0,-212,-94,-316C692,89,599,-14,421,-14Z" 
id="f0_2b"
transform="scale(0.001,-0.001)" />

<path d="M278,-11c0,0,-162,0,-162,182V710H23v98h99l39,181h90V808H400V710H251V200c0,0,0,-58,19,-82c0,0,19,-23,66,-23c0,0,27,0,77,10V6c0,0,-66,-17,-135,-17Z" 
id="f0_2g"
transform="scale(0.001,-0.001)" />

<path d="M406,0V763H155V870h2c16,0,114,2,178,48c0,0,70,51,104,157H549V0Z" 
id="f1_k"
transform="scale(0.001,-0.001)" />

<path d="M417,-28c0,0,-161,0,-259,79c0,0,-98,81,-109,223H189c0,0,11,-90,72,-139c0,0,61,-49,162,-49c0,0,96,0,158,68c0,0,61,68,61,175c0,0,0,112,-64,178c0,0,-64,66,-173,66c0,0,-59,0,-115,-28c0,0,-55,-29,-84,-73L93,480l77,573H727V922H271L225,629l4,3c0,0,89,60,188,60c0,0,169,0,269,-94c0,0,99,-93,99,-253c0,0,0,-165,-103,-269C682,76,579,-28,417,-28Z" 
id="f1_o"
transform="scale(0.001,-0.001)" />

<path d="M133,0V162H292V0Z" 
id="f1_h"
transform="scale(0.001,-0.001)" />

<path d="M432,92c0,0,96,0,156,66c0,0,61,65,61,169c0,0,0,103,-61,169c0,0,-60,66,-156,66c0,0,-95,0,-156,-66c0,0,-61,-66,-61,-169c0,0,0,-104,61,-169c0,0,61,-66,156,-66ZM425,-28c0,0,-176,0,-271,135c0,0,-95,136,-95,388c0,0,0,278,103,429c0,0,103,151,293,151c0,0,142,0,226,-77c0,0,84,-76,90,-211H638c0,0,-8,80,-56,123c0,0,-47,43,-127,43c0,0,-125,0,-192,-119c0,0,-58,-102,-64,-278c0,0,100,127,255,127c0,0,152,0,245,-98c0,0,93,-98,93,-258c0,0,0,-161,-101,-259c0,0,-101,-96,-266,-96Z" 
id="f1_p"
transform="scale(0.001,-0.001)" />

<path d="M419,483c0,0,93,0,152,66c0,0,59,66,59,169c0,0,0,103,-59,169c0,0,-59,65,-152,65c0,0,-94,0,-153,-65c0,0,-59,-66,-59,-169c0,0,0,-103,59,-169c0,0,59,-66,153,-66ZM397,-28c0,0,-143,0,-227,75c0,0,-85,77,-91,211H209c0,0,8,-83,57,-128c0,0,49,-45,131,-45c0,0,121,0,186,135c0,0,48,101,62,265C645,485,545,362,397,362c0,0,-150,0,-241,98c0,0,-91,98,-91,258c0,0,0,160,99,258c0,0,99,98,262,98c0,0,173,0,266,-123c0,0,94,-123,94,-349c0,0,0,-303,-101,-467C685,135,583,-28,397,-28Z" 
id="f1_s"
transform="scale(0.001,-0.001)" />

<path d="M212,0c0,0,51,270,162,500c0,0,109,222,281,422H57v131H799V934C799,934,623,726,515,498C515,498,408,269,362,0Z" 
id="f1_q"
transform="scale(0.001,-0.001)" />

<path d="M133,-224v71c0,0,47,8,65,52c0,0,14,33,17,101H133V163H292V27c0,0,0,-114,-36,-172c0,0,-37,-58,-123,-79Z" 
id="f1_f"
transform="scale(0.001,-0.001)" />

<path d="M424,92c0,0,98,0,161,58c0,0,62,58,62,149c0,0,0,92,-62,151c0,0,-63,58,-161,58c0,0,-98,0,-160,-58c0,0,-63,-59,-63,-151c0,0,0,-91,63,-149c0,0,62,-58,160,-58Zm0,533c0,0,82,0,134,46c0,0,52,45,52,118c0,0,0,72,-52,118c0,0,-52,46,-134,46c0,0,-82,0,-134,-46c0,0,-52,-46,-52,-118c0,0,0,-73,52,-119c0,0,52,-45,134,-45Zm0,-653c0,0,-165,0,-265,90C159,62,59,154,59,305c0,0,0,134,100,216c0,0,35,28,78,47c0,0,-27,15,-52,33c0,0,-90,70,-90,185c0,0,0,130,90,209c0,0,91,80,239,80c0,0,148,0,238,-80c0,0,91,-79,91,-209c0,0,0,-115,-91,-185c0,0,-24,-19,-52,-32c0,0,44,-20,79,-49c0,0,101,-81,101,-215c0,0,0,-151,-101,-243c0,0,-100,-90,-265,-90Z" 
id="f1_r"
transform="scale(0.001,-0.001)" />

<path d="M365,-315c0,0,-136,187,-199,359c0,0,-62,172,-62,359c0,0,0,186,62,358c0,0,63,172,199,360h92c0,0,-110,-192,-160,-365c0,0,-51,-172,-51,-353c0,0,0,-183,51,-355c0,0,50,-172,160,-363Z" 
id="f1_b"
transform="scale(0.001,-0.001)" />

<path d="M104,0V799H238V0Zm-2,946v152H239V946Z" 
id="f1_24"
transform="scale(0.001,-0.001)" />

<path d="M52,-315c0,0,109,192,160,363c0,0,50,173,50,354c0,0,0,183,-50,355c0,0,-51,173,-160,364h92c0,0,135,-188,198,-360c0,0,63,-172,63,-359c0,0,0,-187,-63,-359c0,0,-63,-171,-198,-358Z" 
id="f1_c"
transform="scale(0.001,-0.001)" />

<path d="M424,92c0,0,114,0,170,107c0,0,57,108,56,323c0,0,1,216,-56,324c0,0,-56,107,-170,107c0,0,-112,0,-168,-107c0,0,-56,-108,-57,-324c0,0,1,-215,57,-323c0,0,56,-107,168,-107Zm0,-120c0,0,-176,0,-271,142c0,0,-96,143,-96,408c0,0,0,265,96,409c0,0,95,144,271,144c0,0,178,0,273,-144c0,0,96,-144,96,-409c0,0,0,-265,-96,-408c0,0,-95,-142,-273,-142Z" 
id="f1_j"
transform="scale(0.001,-0.001)" />

<path d="M454,95c0,0,129,0,212,121c0,0,82,120,82,310c0,0,0,85,-44,131c0,0,-44,46,-124,46c0,0,-98,0,-174,-90c0,0,-76,-90,-108,-245c0,0,-27,-126,16,-199c0,0,42,-74,140,-74ZM22,-315L251,800H378L352,672l21,22c0,0,120,129,262,129c0,0,120,0,189,-77c0,0,69,-77,69,-211c0,0,0,-234,-133,-395C760,140,627,-20,433,-20c0,0,-129,0,-194,106L157,-315Z" 
id="f2_2b"
transform="scale(0.001,-0.001)" />

<path d="M0,214v74H784V214ZM0,494v72H784V494Z" 
id="f3_x"
transform="scale(0.001,-0.001)" />

<path d="M424,-28c0,0,-180,0,-272,86c0,0,-92,87,-100,266H192c0,0,12,-126,66,-180c0,0,55,-54,170,-54c0,0,100,0,163,57c0,0,64,57,64,147c0,0,0,94,-61,149c0,0,-52,48,-135,54c0,0,-38,2,-72,2c0,0,-34,0,-45,-3V613c0,0,17,-3,51,-3c0,0,35,0,68,4c0,0,66,8,106,43c0,0,55,45,55,125c0,0,0,77,-58,125c0,0,-58,48,-148,48c0,0,-96,0,-147,-58c0,0,-51,-59,-56,-175H82c0,0,0,168,89,260c0,0,88,93,250,93c0,0,153,0,247,-77c0,0,94,-76,94,-202c0,0,0,-124,-95,-201c0,0,-18,-15,-39,-27c0,0,39,-17,69,-41c0,0,101,-79,101,-214c0,0,0,-151,-105,-246c0,0,-104,-95,-269,-95Z" 
id="f1_m"
transform="scale(0.001,-0.001)" />

<path d="M39,0V0c0,0,0,170,84,277c0,0,85,108,317,236c0,0,113,62,154,115c0,0,41,52,41,134c0,0,0,86,-62,141c0,0,-61,54,-156,54c0,0,-101,0,-158,-68c0,0,-57,-68,-60,-194H67c0,0,-2,178,95,279c0,0,98,101,273,101c0,0,149,0,245,-89c0,0,94,-88,94,-228c0,0,0,-118,-60,-195c0,0,-61,-76,-229,-169C485,394,303,294,237,212c0,0,-28,-36,-46,-81H774V0Z" 
id="f1_l"
transform="scale(0.001,-0.001)" />

<path d="M22,0L495,552L276,1098l135,-1l135,1L667,740l275,358l131,-1l131,1L762,574L1001,0H723L588,374L292,0Z" 
id="f4_1n"
transform="scale(0.001,-0.001)" />

<path d="M424,145c0,0,86,0,121,86c0,0,35,85,35,295c0,0,1,214,-35,302c0,0,-35,87,-121,87c0,0,-85,0,-120,-87c0,0,-34,-88,-35,-302c0,0,0,-210,35,-295c0,0,35,-86,120,-86Zm0,-172c0,0,-191,0,-283,134c0,0,-91,136,-92,417c0,0,1,288,92,426c0,0,92,138,283,138c0,0,192,0,284,-138c0,0,92,-138,92,-421v-5c0,0,1,-281,-92,-417c0,0,-92,-134,-284,-134Z" 
id="f5_j"
transform="scale(0.001,-0.001)" />

<path d="M367,0V750H106V903c0,0,3,-1,8,-1c26,0,105,4,171,45c0,0,79,49,121,141H581V0Z" 
id="f5_k"
transform="scale(0.001,-0.001)" />

<path d="M39,0V0c0,0,0,149,75,256c0,0,76,107,284,253c0,0,93,65,131,119c0,0,38,54,38,121c0,0,0,72,-42,116c0,0,-42,44,-110,44c0,0,-74,0,-115,-55c0,0,-41,-55,-38,-150H53c0,0,-5,177,93,281c0,0,98,103,270,103c0,0,161,0,263,-95c0,0,101,-96,101,-247c0,0,0,-124,-57,-205c0,0,-58,-81,-217,-183c0,0,-147,-93,-201,-169v-1H780V0Z" 
id="f5_l"
transform="scale(0.001,-0.001)" />

<path d="M695,589c0,0,126,0,201,68c0,0,74,69,74,186c0,0,0,59,-46,92c0,0,-46,33,-129,33H480L401,589ZM131,0L358,1097H864c0,0,120,0,189,-64c0,0,69,-64,69,-175c0,0,0,-167,-116,-283c0,0,-115,-115,-282,-115H375L280,0Z" 
id="f2_1f"
transform="scale(0.001,-0.001)" />

<path d="M29,0L544,563L288,1098l94,-1l94,1L666,671l360,427l88,-1l89,1L727,555L987,0H803L610,453L212,0Z" 
id="f2_1n"
transform="scale(0.001,-0.001)" />

<path d="M-24,-29L348,1125H450L77,-29Z" 
id="f1_i"
transform="scale(0.001,-0.001)" />

<path d="M0,368V478H849V368Z" 
id="f1_99"
transform="scale(0.001,-0.001)" />

<path d="M511,373V863L169,383l-7,-10ZM511,0V258H38V383l496,691H646V373H799V258H646V0Z" 
id="f1_n"
transform="scale(0.001,-0.001)" />

<path d="M62,-123V268c0,0,0,230,56,452c0,0,47,190,134,334c0,0,87,144,204,242c0,0,85,73,194,119l18,-16c0,0,-211,-145,-335,-339c0,0,-98,-156,-149,-374c0,0,-50,-218,-50,-403V-123Z" 
id="f3_4o"
transform="scale(0.001,-0.001)" />

<path d="M617,-123V283c0,0,0,236,-63,459c0,0,-63,223,-188,392c0,0,-108,146,-282,265l17,16c0,0,180,-76,320,-248c0,0,139,-172,204,-417c0,0,64,-245,64,-482V-123Z" 
id="f3_54"
transform="scale(0.001,-0.001)" />

<path d="M0,356v74H784V356Z" 
id="f3_h"
transform="scale(0.001,-0.001)" />

<path d="M650,-123c0,0,-180,75,-319,246c0,0,-140,172,-205,418c0,0,-64,245,-64,481v393h72V1007c0,0,0,-236,63,-459c0,0,63,-223,189,-391c0,0,108,-145,282,-265l-18,-15Z" 
id="f3_4q"
transform="scale(0.001,-0.001)" />

<path d="M101,-123l-17,15c0,0,210,144,334,339c0,0,99,156,149,373c0,0,50,218,50,403v408h72V1022c0,0,0,-230,-56,-451c0,0,-48,-191,-134,-335C499,236,412,92,295,-5c0,0,-84,-73,-194,-118Z" 
id="f3_56"
transform="scale(0.001,-0.001)" />

<path d="M412,-328c0,0,-195,96,-303,284C109,-44,0,142,0,365c0,0,0,232,114,422c0,0,114,191,298,273v-31c0,0,-92,-51,-151,-139c0,0,-59,-88,-88,-223c0,0,-29,-136,-29,-282c0,0,0,-167,27,-301c0,0,26,-133,82,-221c0,0,55,-89,159,-159v-32Z" 
id="f3_c"
transform="scale(0.001,-0.001)" />

<path d="M34,-328v32c0,0,92,50,151,138c0,0,59,88,88,222c0,0,29,135,29,283c0,0,0,165,-27,300c0,0,-26,134,-82,222c0,0,-56,89,-159,160v31c0,0,194,-96,303,-284c0,0,108,-187,108,-410c0,0,0,-232,-114,-422c0,0,-114,-191,-297,-272Z" 
id="f3_d"
transform="scale(0.001,-0.001)" />

<path d="M310,0L12,799H168L383,145L604,799H752L454,0Z" 
id="f1_2h"
transform="scale(0.001,-0.001)" />

<path d="M335,90c0,0,106,0,179,57c0,0,50,41,67,91c0,0,3,10,4,31c0,0,3,21,3,47v87c0,0,-38,-18,-83,-25L381,360c0,0,-97,-13,-142,-45c0,0,-44,-31,-44,-86c0,0,0,-67,36,-103c0,0,37,-36,104,-36ZM309,-20c0,0,-117,0,-186,61c0,0,-68,63,-68,169c0,0,0,108,64,171c0,0,65,64,189,79l183,23c0,0,22,3,42,8c0,0,26,7,40,27c0,0,15,20,15,51v6c0,0,0,64,-49,101c0,0,-48,36,-135,36c0,0,-83,0,-130,-38c0,0,-46,-39,-56,-115H94c0,0,10,131,92,197c0,0,83,66,238,66c0,0,145,0,222,-63c0,0,76,-63,76,-184V137c0,0,0,-21,12,-33c0,0,12,-12,33,-12c0,0,6,0,18,1c0,0,11,2,25,5V1c0,0,-20,-7,-41,-11c0,0,-22,-5,-37,-5c0,0,-76,0,-110,41c0,0,-22,28,-32,79c0,0,-15,-19,-34,-36c0,0,-101,-89,-247,-89Z" 
id="f1_1w"
transform="scale(0.001,-0.001)" />

<path d="M118,0V799H246V662c0,0,17,32,36,58c0,0,76,102,187,102c0,0,19,0,38,-6V679l-27,1c0,0,-109,0,-168,-66c0,0,-60,-65,-60,-186V0Z" 
id="f1_2d"
transform="scale(0.001,-0.001)" />

<path d="M435,92c0,0,86,0,147,69c0,0,60,68,60,186c0,0,0,114,-60,179c0,0,-60,66,-152,66c0,0,-91,0,-154,-66c0,0,-64,-65,-64,-171c0,0,0,-70,30,-133c0,0,29,-64,82,-97c0,0,52,-33,111,-33Zm3,-110c0,0,-168,0,-274,123C164,105,58,228,58,512c0,0,0,317,117,461c0,0,102,125,275,125c0,0,129,0,212,-72c0,0,82,-72,99,-200L627,815c0,0,-18,79,-51,115c0,0,-54,58,-134,58c0,0,-64,0,-113,-36c0,0,-63,-46,-99,-135c0,0,-37,-89,-38,-253c0,0,48,74,118,110c0,0,70,36,147,36c0,0,135,0,229,-99c0,0,94,-99,94,-256c0,0,0,-103,-44,-191C736,164,691,75,614,28c0,0,-78,-46,-176,-46Z" 
id="f6_q"
transform="scale(0.001,-0.001)" />

<path d="M125,0V1051H268V115H799V0Z" 
id="f0_1c"
transform="scale(0.001,-0.001)" />

<path d="M106,0V620c0,0,0,85,-5,188H228c0,0,6,-138,6,-165h3c0,0,32,103,74,141c0,0,42,38,118,38c0,0,27,0,54,-7V692c0,0,-26,7,-71,7c0,0,-84,0,-128,-72c0,0,-44,-72,-44,-206V0Z" 
id="f0_2e"
transform="scale(0.001,-0.001)" />

<path d="M606,-14c0,0,-164,0,-284,65c0,0,-119,66,-182,189c0,0,-63,123,-63,291c0,0,0,255,137,396c0,0,137,140,386,140c0,0,174,0,283,-59c0,0,109,-59,168,-189L915,779c0,0,-44,90,-123,131c0,0,-79,41,-196,41c0,0,-182,0,-278,-110c0,0,-96,-110,-96,-310c0,0,0,-200,102,-315c0,0,102,-115,282,-115c0,0,103,0,193,31c0,0,89,31,144,85V407H629V526h445V164c0,0,-83,-85,-205,-132c0,0,-121,-46,-263,-46Z" 
id="f0_17"
transform="scale(0.001,-0.001)" />

<path d="M355,-14c0,0,-133,0,-194,65c0,0,-62,66,-62,219V808H234V296c0,0,0,-80,16,-124c0,0,16,-44,50,-64c0,0,34,-19,101,-19c0,0,97,0,153,66c0,0,55,67,55,185V808H744V172c0,0,0,-141,4,-172H621c0,0,0,4,-1,20c0,0,-1,17,-2,38c0,0,-1,21,-3,80h-2C613,138,567,55,506,20c0,0,-61,-34,-151,-34Z" 
id="f0_2h"
transform="scale(0.001,-0.001)" />

<path d="M395,89c0,0,115,0,166,79c0,0,51,79,51,246c0,0,0,160,-51,235c0,0,-51,75,-164,75c0,0,-102,0,-147,-75c0,0,-45,-75,-45,-244c0,0,0,-170,45,-243c0,0,45,-73,145,-73ZM361,-14c0,0,-153,0,-225,102c0,0,-72,103,-72,312c0,0,0,422,297,422c0,0,92,0,153,-33c0,0,61,-34,98,-107h2l-2,90v335H747V166c0,0,0,-126,4,-166H623c0,0,-2,12,-5,55c0,0,-3,44,-3,75h-3c0,0,-37,-78,-98,-111c0,0,-62,-33,-153,-33Z" 
id="f0_20"
transform="scale(0.001,-0.001)" />

<path d="M140,0V163H285V0Z" 
id="f0_i"
transform="scale(0.001,-0.001)" />


</defs>
</svg>