<?xml version="1.0" encoding="UTF-8" standalone="no"?>
<!DOCTYPE svg PUBLIC "-//W3C//DTD SVG 1.1//EN"
"http://www.w3.org/Graphics/SVG/1.1/DTD/svg11.dtd">
<svg viewBox="0 0 681 1204" version="1.1" xmlns="http://www.w3.org/2000/svg" xmlns:xlink="http://www.w3.org/1999/xlink">
<defs>
<style type="text/css"><![CDATA[
.g0_78{
fill: none;
stroke: #000000;
stroke-width: 0.7504445;
stroke-linecap: round;
stroke-linejoin: miter;
}
.g1_78{
fill: none;
stroke: #000000;
stroke-width: 0.76144445;
stroke-linecap: round;
stroke-linejoin: miter;
}
.g2_78{
fill: none;
stroke: #000000;
stroke-width: 0.77635556;
stroke-linecap: round;
stroke-linejoin: miter;
}
.g3_78{
fill: none;
stroke: #000000;
stroke-width: 0.7831999;
stroke-linecap: round;
stroke-linejoin: miter;
}
.g4_78{
fill: none;
stroke: #000000;
stroke-width: 0.7660889;
stroke-linecap: round;
stroke-linejoin: miter;
}
.g5_78{
fill: none;
stroke: #000000;
stroke-width: 0.7638889;
stroke-linecap: round;
stroke-linejoin: miter;
}
.g6_78{
fill: none;
stroke: #000000;
stroke-width: 0.7597333;
stroke-linecap: round;
stroke-linejoin: miter;
}
.g7_78{
fill: none;
stroke: #000000;
stroke-width: 1.0530361;
stroke-linecap: round;
stroke-linejoin: miter;
}
.g8_78{
fill: none;
stroke: #000000;
stroke-width: 0.15277778;
stroke-linecap: round;
stroke-linejoin: miter;
}
.g9_78{
}
.g10_78{
fill: none;
stroke: #000000;
stroke-width: 1.0533723;
stroke-linecap: round;
stroke-linejoin: miter;
}
]]></style>
</defs>
<g fill="#D4D4D4" fill-opacity="0.56" >
<use xlink:href="#f0_1f" transform="matrix(50.9,-50.9,50.9,50.9,69.8,924.1)" />
<use xlink:href="#f0_2a" transform="matrix(50.9,-50.9,50.9,50.9,130.3,863.6)" />
<use xlink:href="#f0_28" transform="matrix(50.9,-50.9,50.9,50.9,173.5,820.3)" />
<use xlink:href="#f0_25" transform="matrix(50.9,-50.9,50.9,50.9,190.8,803.1)" />
<use xlink:href="#f0_2a" transform="matrix(50.9,-50.9,50.9,50.9,208.1,785.8)" />
<use xlink:href="#f0_21" transform="matrix(50.9,-50.9,50.9,50.9,251.3,742.5)" />
<use xlink:href="#f0_2k" transform="matrix(50.9,-50.9,50.9,50.9,294.6,699.3)" />
<use xlink:href="#f0_1x" transform="matrix(50.9,-50.9,50.9,50.9,333.5,660.4)" />
<use xlink:href="#f0_29" transform="matrix(50.9,-50.9,50.9,50.9,376.7,617.2)" />
<use xlink:href="#f0_2c" transform="matrix(50.9,-50.9,50.9,50.9,441.5,552.4)" />
<use xlink:href="#f0_2b" transform="matrix(50.9,-50.9,50.9,50.9,484.7,509.1)" />
<use xlink:href="#f0_25" transform="matrix(50.9,-50.9,50.9,50.9,528,465.9)" />
<use xlink:href="#f0_2a" transform="matrix(50.9,-50.9,50.9,50.9,545.3,448.6)" />
<use xlink:href="#f0_2g" transform="matrix(50.9,-50.9,50.9,50.9,588.5,405.4)" />
</g>
<g fill="#000000" >
<use xlink:href="#f1_b" transform="matrix(10.4,0,0,10.4,83.5,151.2)" />
<use xlink:href="#f1_1x" transform="matrix(10.4,0,0,10.4,88.9,151.2)" />
<use xlink:href="#f1_c" transform="matrix(10.4,0,0,10.4,97.7,151.2)" />
</g>
<path d="M113,147.6h17.9" class="g0_78" />
<g fill="#000000" >
<use xlink:href="#f1_k" transform="matrix(10.5,0,0,10.5,112.7,141.5)" />
<use xlink:href="#f1_o" transform="matrix(10.5,0,0,10.5,121.6,141.5)" />
<use xlink:href="#f1_l" transform="matrix(10.5,0,0,10.5,117.6,167.5)" />
<use xlink:href="#f1_2e" transform="matrix(10.4,0,0,10.4,140.9,151.2)" />
<use xlink:href="#f1_2c" transform="matrix(10.4,0,0,10.4,148.9,151.2)" />
<use xlink:href="#f1_h" transform="matrix(10.4,0,0,10.4,157.8,151.2)" />
<use xlink:href="#f2_1r" transform="matrix(8.4,0,0,8.4,203.3,151.2)" />
<use xlink:href="#f3_17" transform="matrix(10.4,0,0,10.4,207.7,151.2)" />
<use xlink:href="#f3_24" transform="matrix(10.4,0,0,10.4,219.2,151.2)" />
<use xlink:href="#f3_29" transform="matrix(10.4,0,0,10.4,223.6,151.2)" />
<use xlink:href="#f3_2f" transform="matrix(10.4,0,0,10.4,233.4,151.2)" />
<use xlink:href="#f3_t" transform="matrix(10.4,0,0,10.4,245.6,151.2)" />
<use xlink:href="#f1_12" transform="matrix(10.4,0,0,10.4,257.9,151.2)" />
<use xlink:href="#f1_2a" transform="matrix(10.4,0,0,10.4,269.4,151.2)" />
<use xlink:href="#f1_2a" transform="matrix(10.4,0,0,10.4,278.3,151.2)" />
<use xlink:href="#f1_2d" transform="matrix(10.4,0,0,10.4,287.2,151.2)" />
<use xlink:href="#f1_1z" transform="matrix(10.4,0,0,10.4,292.5,151.2)" />
<use xlink:href="#f1_24" transform="matrix(10.4,0,0,10.4,301.3,151.2)" />
<use xlink:href="#f1_29" transform="matrix(10.4,0,0,10.4,304.9,151.2)" />
<use xlink:href="#f1_1w" transform="matrix(10.4,0,0,10.4,313.7,151.2)" />
<use xlink:href="#f1_2f" transform="matrix(10.4,0,0,10.4,322.6,151.2)" />
<use xlink:href="#f1_20" transform="matrix(10.4,0,0,10.4,327,151.2)" />
<use xlink:href="#f1_2a" transform="matrix(10.4,0,0,10.4,342.9,151.2)" />
<use xlink:href="#f1_21" transform="matrix(10.4,0,0,10.4,351.7,151.2)" />
<use xlink:href="#f1_2h" transform="matrix(10.4,0,0,10.4,363.3,151.2)" />
<use xlink:href="#f1_20" transform="matrix(10.4,0,0,10.4,371.3,151.2)" />
<use xlink:href="#f1_2d" transform="matrix(10.4,0,0,10.4,380.2,151.2)" />
<use xlink:href="#f1_2f" transform="matrix(10.4,0,0,10.4,385.5,151.2)" />
<use xlink:href="#f1_24" transform="matrix(10.4,0,0,10.4,389.9,151.2)" />
<use xlink:href="#f1_1y" transform="matrix(10.4,0,0,10.4,393.5,151.2)" />
<use xlink:href="#f1_20" transform="matrix(10.4,0,0,10.4,401.4,151.2)" />
<use xlink:href="#f1_2e" transform="matrix(10.4,0,0,10.4,410.3,151.2)" />
<use xlink:href="#f1_1w" transform="matrix(10.4,0,0,10.4,425.2,151.2)" />
<use xlink:href="#f1_2d" transform="matrix(10.4,0,0,10.4,434.1,151.2)" />
<use xlink:href="#f1_20" transform="matrix(10.4,0,0,10.4,439.4,151.2)" />
<use xlink:href="#f1_b" transform="matrix(10.4,0,0,10.4,455.4,151.2)" />
<use xlink:href="#f1_99" transform="matrix(10.4,0,0,10.4,460.8,151.2)" />
<use xlink:href="#f1_k" transform="matrix(10.4,0,0,10.4,476.6,151.2)" />
<use xlink:href="#f1_f" transform="matrix(10.4,0,0,10.4,485.5,151.2)" />
<use xlink:href="#f1_k" transform="matrix(10.4,0,0,10.4,496.9,151.2)" />
<use xlink:href="#f1_c" transform="matrix(10.4,0,0,10.4,505.7,151.2)" />
<use xlink:href="#f1_b" transform="matrix(10.4,0,0,10.4,518.2,151.2)" />
<use xlink:href="#f1_j" transform="matrix(10.4,0,0,10.4,523.5,151.2)" />
<use xlink:href="#f1_f" transform="matrix(10.4,0,0,10.4,532.4,151.2)" />
<use xlink:href="#f1_o" transform="matrix(10.4,0,0,10.4,543.8,151.2)" />
<use xlink:href="#f1_c" transform="matrix(10.4,0,0,10.4,552.6,151.2)" />
<use xlink:href="#f1_b" transform="matrix(10.4,0,0,10.4,565.1,151.2)" />
<use xlink:href="#f1_m" transform="matrix(10.4,0,0,10.4,570.4,151.2)" />
<use xlink:href="#f1_f" transform="matrix(10.4,0,0,10.4,579.3,151.2)" />
<use xlink:href="#f1_l" transform="matrix(10.4,0,0,10.4,590.7,151.2)" />
<use xlink:href="#f1_c" transform="matrix(10.4,0,0,10.4,599.5,151.2)" />
<use xlink:href="#f1_1s" transform="matrix(10.4,0,0,10.4,604.9,151.2)" />
<use xlink:href="#f1_k" transform="matrix(10.4,0,0,10.4,42.8,226)" />
<use xlink:href="#f1_k" transform="matrix(10.4,0,0,10.4,51.7,226)" />
<use xlink:href="#f1_h" transform="matrix(10.4,0,0,10.4,60.9,226)" />
</g>
<path d="M95.6,220.6h10.7m23.1,0h10.2" class="g1_78" />
<g fill="#000000" >
<use xlink:href="#f4_2c" transform="matrix(10.4,0,0,10.4,96.5,214.5)" />
<use xlink:href="#f4_4o" transform="matrix(10.4,0,0,10.4,85.8,215.7)" />
<use xlink:href="#f4_54" transform="matrix(10.4,0,0,10.4,141.3,215.7)" />
<use xlink:href="#f4_h" transform="matrix(10.4,0,0,10.4,113.5,224.9)" />
<use xlink:href="#f4_4p" transform="matrix(10.4,0,0,10.4,85.8,230.2)" />
<use xlink:href="#f4_55" transform="matrix(10.4,0,0,10.4,141.3,230.2)" />
<use xlink:href="#f4_4q" transform="matrix(10.4,0,0,10.4,85.8,236.7)" />
<use xlink:href="#f4_56" transform="matrix(10.4,0,0,10.4,141.3,236.7)" />
<use xlink:href="#f1_k" transform="matrix(10.5,0,0,10.4,131,214.5)" />
<use xlink:href="#f1_2e" transform="matrix(10.5,0,0,10.4,153.3,224.9)" />
<use xlink:href="#f1_2c" transform="matrix(10.5,0,0,10.4,161.3,224.9)" />
<use xlink:href="#f1_h" transform="matrix(10.5,0,0,10.4,170.2,224.9)" />
<use xlink:href="#f1_2g" transform="matrix(10.5,0,0,10.4,181.1,224.9)" />
<use xlink:href="#f1_29" transform="matrix(10.5,0,0,10.4,190,224.9)" />
<use xlink:href="#f1_24" transform="matrix(10.5,0,0,10.4,198.9,224.9)" />
<use xlink:href="#f1_2f" transform="matrix(10.5,0,0,10.4,202.4,224.9)" />
<use xlink:href="#f1_2e" transform="matrix(10.5,0,0,10.4,206.9,224.9)" />
<use xlink:href="#f1_n" transform="matrix(10.5,0,0,10.4,96.6,240.3)" />
<use xlink:href="#f1_l" transform="matrix(10.5,0,0,10.4,130.2,240.3)" />
<use xlink:href="#f1_k" transform="matrix(10.4,0,0,10.4,336.2,226)" />
<use xlink:href="#f1_l" transform="matrix(10.4,0,0,10.4,345.1,226)" />
<use xlink:href="#f1_h" transform="matrix(10.4,0,0,10.4,354.2,226)" />
<use xlink:href="#f1_k" transform="matrix(10.4,0,0,10.4,376.9,226)" />
<use xlink:href="#f1_2e" transform="matrix(10.4,0,0,10.4,392.9,226)" />
<use xlink:href="#f1_2c" transform="matrix(10.4,0,0,10.4,400.9,226)" />
<use xlink:href="#f1_h" transform="matrix(10.4,0,0,10.4,409.7,226)" />
<use xlink:href="#f1_2g" transform="matrix(10.4,0,0,10.4,421.3,226)" />
<use xlink:href="#f1_29" transform="matrix(10.4,0,0,10.4,430.2,226)" />
<use xlink:href="#f1_24" transform="matrix(10.4,0,0,10.4,439.1,226)" />
<use xlink:href="#f1_2f" transform="matrix(10.4,0,0,10.4,442.6,226)" />
<use xlink:href="#f1_2e" transform="matrix(10.4,0,0,10.4,447,226)" />
<use xlink:href="#f1_k" transform="matrix(10.4,0,0,10.4,42.8,295.7)" />
<use xlink:href="#f1_m" transform="matrix(10.4,0,0,10.4,51.7,295.7)" />
<use xlink:href="#f1_h" transform="matrix(10.4,0,0,10.4,60.9,295.7)" />
<use xlink:href="#f1_m" transform="matrix(10.4,0,0,10.4,83.5,295.7)" />
<use xlink:href="#f1_2e" transform="matrix(10.4,0,0,10.4,99.6,295.7)" />
<use xlink:href="#f1_2c" transform="matrix(10.4,0,0,10.4,107.5,295.7)" />
<use xlink:href="#f1_h" transform="matrix(10.4,0,0,10.4,116.4,295.7)" />
<use xlink:href="#f1_2g" transform="matrix(10.4,0,0,10.4,128,295.7)" />
<use xlink:href="#f1_29" transform="matrix(10.4,0,0,10.4,136.9,295.7)" />
<use xlink:href="#f1_24" transform="matrix(10.4,0,0,10.4,145.7,295.7)" />
<use xlink:href="#f1_2f" transform="matrix(10.4,0,0,10.4,149.3,295.7)" />
<use xlink:href="#f1_2e" transform="matrix(10.4,0,0,10.4,153.7,295.7)" />
<use xlink:href="#f1_k" transform="matrix(10.4,0,0,10.4,336.2,295.7)" />
<use xlink:href="#f1_n" transform="matrix(10.4,0,0,10.4,345.1,295.7)" />
<use xlink:href="#f1_h" transform="matrix(10.4,0,0,10.4,354.2,295.7)" />
</g>
<path d="M380,291.9h19.6" class="g2_78" />
<g fill="#000000" >
<use xlink:href="#f1_l" transform="matrix(10.5,0,0,10.5,380.8,285.8)" />
<use xlink:href="#f1_o" transform="matrix(10.5,0,0,10.5,389.9,285.8)" />
<use xlink:href="#f1_l" transform="matrix(10.5,0,0,10.5,385.4,311.8)" />
<use xlink:href="#f4_2c" transform="matrix(10.4,0,0,10.4,410.1,295.7)" />
<use xlink:href="#f1_2e" transform="matrix(10.4,0,0,10.4,425.8,295.7)" />
<use xlink:href="#f1_2c" transform="matrix(10.4,0,0,10.4,433.8,295.7)" />
<use xlink:href="#f1_h" transform="matrix(10.4,0,0,10.4,442.7,295.7)" />
<use xlink:href="#f1_2g" transform="matrix(10.4,0,0,10.4,454.1,295.7)" />
<use xlink:href="#f1_29" transform="matrix(10.4,0,0,10.4,463,295.7)" />
<use xlink:href="#f1_24" transform="matrix(10.4,0,0,10.4,471.8,295.7)" />
<use xlink:href="#f1_2f" transform="matrix(10.4,0,0,10.4,475.4,295.7)" />
<use xlink:href="#f1_2e" transform="matrix(10.4,0,0,10.4,479.8,295.7)" />
<use xlink:href="#f1_k" transform="matrix(10.4,0,0,10.4,42.8,372.3)" />
<use xlink:href="#f1_o" transform="matrix(10.4,0,0,10.4,51.7,372.3)" />
<use xlink:href="#f1_h" transform="matrix(10.4,0,0,10.4,60.9,372.3)" />
</g>
<path d="M86.7,363.4H97.2" class="g3_78" />
<g fill="#000000" >
<use xlink:href="#f1_k" transform="matrix(10.5,0,0,10.5,88.2,357.3)" />
<use xlink:href="#f1_m" transform="matrix(10.5,0,0,10.5,87.5,383.3)" />
<use xlink:href="#f1_2e" transform="matrix(10.4,0,0,10.4,107.8,372.3)" />
<use xlink:href="#f1_2c" transform="matrix(10.4,0,0,10.4,115.7,372.3)" />
<use xlink:href="#f1_h" transform="matrix(10.4,0,0,10.4,124.6,372.3)" />
<use xlink:href="#f1_2g" transform="matrix(10.4,0,0,10.4,136.2,372.3)" />
<use xlink:href="#f1_29" transform="matrix(10.4,0,0,10.4,145,372.3)" />
<use xlink:href="#f1_24" transform="matrix(10.4,0,0,10.4,153.9,372.3)" />
<use xlink:href="#f1_2f" transform="matrix(10.4,0,0,10.4,157.5,372.3)" />
<use xlink:href="#f1_2e" transform="matrix(10.4,0,0,10.4,161.9,372.3)" />
<use xlink:href="#f1_k" transform="matrix(10.4,0,0,10.4,336.2,372.3)" />
<use xlink:href="#f1_p" transform="matrix(10.4,0,0,10.4,345.1,372.3)" />
<use xlink:href="#f1_h" transform="matrix(10.4,0,0,10.4,354.2,372.3)" />
</g>
<path d="M379.9,368.6h10.3" class="g4_78" />
<g fill="#000000" >
<use xlink:href="#f4_c" transform="matrix(10.4,0,0,11.4,394.3,370.8)" />
<use xlink:href="#f4_d" transform="matrix(10.4,0,0,11.4,443,370.8)" />
<use xlink:href="#f4_2c" transform="matrix(10.5,0,0,10.5,401.7,372.8)" />
<use xlink:href="#f4_h" transform="matrix(10.5,0,0,10.5,417.4,372.8)" />
<use xlink:href="#f1_m" transform="matrix(10.5,0,0,10.5,380.7,362.4)" />
<use xlink:href="#f1_l" transform="matrix(10.5,0,0,10.5,432.9,372.8)" />
<use xlink:href="#f1_2e" transform="matrix(10.5,0,0,10.5,452.4,372.8)" />
<use xlink:href="#f1_2c" transform="matrix(10.5,0,0,10.5,460.4,372.8)" />
<use xlink:href="#f1_h" transform="matrix(10.5,0,0,10.5,469.4,372.8)" />
<use xlink:href="#f1_2g" transform="matrix(10.5,0,0,10.5,480.2,372.8)" />
<use xlink:href="#f1_29" transform="matrix(10.5,0,0,10.5,489.2,372.8)" />
<use xlink:href="#f1_24" transform="matrix(10.5,0,0,10.5,498.1,372.8)" />
<use xlink:href="#f1_2f" transform="matrix(10.5,0,0,10.5,501.7,372.8)" />
<use xlink:href="#f1_2e" transform="matrix(10.5,0,0,10.5,506.1,372.8)" />
<use xlink:href="#f1_l" transform="matrix(10.5,0,0,10.5,380.7,388.4)" />
<use xlink:href="#f1_k" transform="matrix(10.4,0,0,10.4,42.8,439.2)" />
<use xlink:href="#f1_q" transform="matrix(10.4,0,0,10.4,51.7,439.2)" />
<use xlink:href="#f1_h" transform="matrix(10.4,0,0,10.4,60.9,439.2)" />
</g>
<path d="M86.6,434.9H96.9" class="g5_78" />
<g fill="#000000" >
<use xlink:href="#f1_s" transform="matrix(10.5,0,0,10.5,87.2,428.8)" />
<use xlink:href="#f1_2e" transform="matrix(10.5,0,0,10.5,105,439.2)" />
<use xlink:href="#f1_2c" transform="matrix(10.5,0,0,10.5,113,439.2)" />
<use xlink:href="#f1_h" transform="matrix(10.5,0,0,10.5,122,439.2)" />
<use xlink:href="#f1_2g" transform="matrix(10.5,0,0,10.5,132.8,439.2)" />
<use xlink:href="#f1_29" transform="matrix(10.5,0,0,10.5,141.8,439.2)" />
<use xlink:href="#f1_24" transform="matrix(10.5,0,0,10.5,150.7,439.2)" />
<use xlink:href="#f1_2f" transform="matrix(10.5,0,0,10.5,154.3,439.2)" />
<use xlink:href="#f1_2e" transform="matrix(10.5,0,0,10.5,158.7,439.2)" />
<use xlink:href="#f1_r" transform="matrix(10.5,0,0,10.5,87.4,454.8)" />
<use xlink:href="#f1_k" transform="matrix(10.4,0,0,10.4,336.2,439.2)" />
<use xlink:href="#f1_r" transform="matrix(10.4,0,0,10.4,345.1,439.2)" />
<use xlink:href="#f1_h" transform="matrix(10.4,0,0,10.4,354.2,439.2)" />
</g>
<path d="M379.9,435.5h10.7" class="g6_78" />
<g fill="#000000" >
<use xlink:href="#f4_2c" transform="matrix(10.4,0,0,10.5,380.9,429.3)" />
<use xlink:href="#f1_2e" transform="matrix(10.4,0,0,10.5,398.7,439.7)" />
<use xlink:href="#f1_2c" transform="matrix(10.4,0,0,10.5,406.7,439.7)" />
<use xlink:href="#f1_h" transform="matrix(10.4,0,0,10.5,415.5,439.7)" />
<use xlink:href="#f1_2g" transform="matrix(10.4,0,0,10.5,426.3,439.7)" />
<use xlink:href="#f1_29" transform="matrix(10.4,0,0,10.5,435.2,439.7)" />
<use xlink:href="#f1_24" transform="matrix(10.4,0,0,10.5,444.1,439.7)" />
<use xlink:href="#f1_2f" transform="matrix(10.4,0,0,10.5,447.6,439.7)" />
<use xlink:href="#f1_m" transform="matrix(10.4,0,0,10.5,380.9,455.3)" />
<use xlink:href="#f1_k" transform="matrix(10.4,0,0,10.4,42.8,512.8)" />
<use xlink:href="#f1_s" transform="matrix(10.4,0,0,10.4,51.7,512.8)" />
<use xlink:href="#f1_h" transform="matrix(10.4,0,0,10.4,60.9,512.8)" />
<use xlink:href="#f1_l" transform="matrix(10.4,0,0,10.4,83.5,512.8)" />
<use xlink:href="#f4_2c" transform="matrix(10.4,0,0,10.4,92.3,512.8)" />
<use xlink:href="#f1_2e" transform="matrix(10.4,0,0,10.4,108.3,512.8)" />
<use xlink:href="#f1_2c" transform="matrix(10.4,0,0,10.4,116.3,512.8)" />
<use xlink:href="#f1_h" transform="matrix(10.4,0,0,10.4,125.1,512.8)" />
<use xlink:href="#f1_2g" transform="matrix(10.4,0,0,10.4,136.7,512.8)" />
<use xlink:href="#f1_29" transform="matrix(10.4,0,0,10.4,145.6,512.8)" />
<use xlink:href="#f1_24" transform="matrix(10.4,0,0,10.4,154.5,512.8)" />
<use xlink:href="#f1_2f" transform="matrix(10.4,0,0,10.4,158,512.8)" />
<use xlink:href="#f1_h" transform="matrix(10.4,0,0,10.4,162.4,512.8)" />
<use xlink:href="#f1_l" transform="matrix(10.4,0,0,10.4,336.2,512.8)" />
<use xlink:href="#f1_j" transform="matrix(10.4,0,0,10.4,345.1,512.8)" />
<use xlink:href="#f1_h" transform="matrix(10.4,0,0,10.4,354.2,512.8)" />
</g>
<path d="M379.9,506h10.9" class="g7_78" />
<g fill="#000000" >
<use xlink:href="#f4_c" transform="matrix(10.4,0,0,11.9,395.2,508.5)" />
<use xlink:href="#f4_d" transform="matrix(10.4,0,0,11.9,453.1,508.5)" />
<use xlink:href="#f1_n" transform="matrix(10.4,0,0,10.4,380.9,499.9)" />
<use xlink:href="#f1_r" transform="matrix(10.4,0,0,10.4,401.8,510.2)" />
<use xlink:href="#f1_m" transform="matrix(10.4,0,0,10.4,433,510.2)" />
<use xlink:href="#f1_2e" transform="matrix(10.4,0,0,10.4,462,510.2)" />
<use xlink:href="#f1_2c" transform="matrix(10.4,0,0,10.4,469.9,510.2)" />
<use xlink:href="#f1_h" transform="matrix(10.4,0,0,10.4,479,510.2)" />
<use xlink:href="#f1_2g" transform="matrix(10.4,0,0,10.4,489.8,510.2)" />
<use xlink:href="#f1_29" transform="matrix(10.4,0,0,10.4,498.8,510.2)" />
<use xlink:href="#f1_24" transform="matrix(10.4,0,0,10.4,507.9,510.2)" />
<use xlink:href="#f1_2f" transform="matrix(10.4,0,0,10.4,511.4,510.2)" />
<use xlink:href="#f1_2e" transform="matrix(10.4,0,0,10.4,515.9,510.2)" />
<use xlink:href="#f1_m" transform="matrix(10.4,0,0,10.4,380.9,522.5)" />
<use xlink:href="#f4_f" transform="matrix(10.4,0,0,10.4,417.5,510.2)" />
<use xlink:href="#f4_2c" transform="matrix(10.4,0,0,10.4,442.5,510.2)" />
<use xlink:href="#f1_l" transform="matrix(10.4,0,0,10.4,42.8,569)" />
<use xlink:href="#f1_k" transform="matrix(10.4,0,0,10.4,51.7,569)" />
<use xlink:href="#f1_h" transform="matrix(10.4,0,0,10.4,60.9,569)" />
</g>
<path d="M124.2,567.1l1.6,-.9l4,6.4L134,555.7h10.3" class="g8_78" />
<path fill-rule="evenodd" d="M124.1,566.9l2.1,-1.2l3.6,5.3l3.9,-15.7h10.6v.7h-10l-4.2,16.6h-.7l-4,-6l-1.1,.7l-.2,-.4Z" class="g9_78" />
<g fill="#000000" >
<use xlink:href="#f4_c" transform="matrix(10.3,0,0,15.5,85.6,569.6)" />
<use xlink:href="#f4_d" transform="matrix(10.3,0,0,15.5,146.1,569.6)" />
<use xlink:href="#f1_l" transform="matrix(10.4,0,0,10.3,92.5,571.1)" />
<use xlink:href="#f1_l" transform="matrix(10.4,0,0,10.3,134.4,571.1)" />
<use xlink:href="#f1_2e" transform="matrix(10.4,0,0,10.3,155.3,571.1)" />
<use xlink:href="#f1_2c" transform="matrix(10.4,0,0,10.3,163.2,571.1)" />
<use xlink:href="#f1_h" transform="matrix(10.4,0,0,10.3,172.3,571.1)" />
<use xlink:href="#f1_2g" transform="matrix(10.4,0,0,10.3,183.1,571.1)" />
<use xlink:href="#f1_29" transform="matrix(10.4,0,0,10.3,192.1,571.1)" />
<use xlink:href="#f1_24" transform="matrix(10.4,0,0,10.3,201.2,571.1)" />
<use xlink:href="#f1_2f" transform="matrix(10.4,0,0,10.3,204.7,571.1)" />
<use xlink:href="#f1_2e" transform="matrix(10.4,0,0,10.3,209.1,571.1)" />
<use xlink:href="#f1_h" transform="matrix(10.4,0,0,10.3,217,571.1)" />
<use xlink:href="#f4_h" transform="matrix(10.3,0,0,10.3,108,571.1)" />
<use xlink:href="#f1_l" transform="matrix(10.4,0,0,10.4,336.2,569)" />
<use xlink:href="#f1_l" transform="matrix(10.4,0,0,10.4,345.1,569)" />
<use xlink:href="#f1_h" transform="matrix(10.4,0,0,10.4,354.2,569)" />
<use xlink:href="#f1_k" transform="matrix(10.4,0,0,10.4,376.9,569)" />
<use xlink:href="#f1_m" transform="matrix(10.4,0,0,10.4,385.8,569)" />
<use xlink:href="#f1_2e" transform="matrix(10.4,0,0,10.4,401.8,569)" />
<use xlink:href="#f1_2c" transform="matrix(10.4,0,0,10.4,409.7,569)" />
<use xlink:href="#f1_h" transform="matrix(10.4,0,0,10.4,418.6,569)" />
<use xlink:href="#f1_2g" transform="matrix(10.4,0,0,10.4,430.4,569)" />
<use xlink:href="#f1_29" transform="matrix(10.4,0,0,10.4,439.2,569)" />
<use xlink:href="#f1_24" transform="matrix(10.4,0,0,10.4,448.1,569)" />
<use xlink:href="#f1_2f" transform="matrix(10.4,0,0,10.4,451.7,569)" />
<use xlink:href="#f1_2e" transform="matrix(10.4,0,0,10.4,456.1,569)" />
<use xlink:href="#f1_h" transform="matrix(10.4,0,0,10.4,464.1,569)" />
<use xlink:href="#f1_l" transform="matrix(10.4,0,0,10.4,42.8,632.7)" />
<use xlink:href="#f1_m" transform="matrix(10.4,0,0,10.4,51.7,632.7)" />
<use xlink:href="#f1_h" transform="matrix(10.4,0,0,10.4,60.9,632.7)" />
<use xlink:href="#f1_r" transform="matrix(10.4,0,0,10.4,83.5,632.7)" />
<use xlink:href="#f1_2e" transform="matrix(10.4,0,0,10.4,99.6,632.7)" />
<use xlink:href="#f1_2c" transform="matrix(10.4,0,0,10.4,107.5,632.7)" />
<use xlink:href="#f1_h" transform="matrix(10.4,0,0,10.4,116.4,632.7)" />
<use xlink:href="#f1_2g" transform="matrix(10.4,0,0,10.4,128,632.7)" />
<use xlink:href="#f1_29" transform="matrix(10.4,0,0,10.4,136.9,632.7)" />
<use xlink:href="#f1_24" transform="matrix(10.4,0,0,10.4,145.7,632.7)" />
<use xlink:href="#f1_2f" transform="matrix(10.4,0,0,10.4,149.3,632.7)" />
<use xlink:href="#f1_2e" transform="matrix(10.4,0,0,10.4,153.7,632.7)" />
<use xlink:href="#f1_h" transform="matrix(10.4,0,0,10.4,161.7,632.7)" />
<use xlink:href="#f1_l" transform="matrix(10.4,0,0,10.4,336.2,632.7)" />
<use xlink:href="#f1_n" transform="matrix(10.4,0,0,10.4,345.1,632.7)" />
<use xlink:href="#f1_h" transform="matrix(10.4,0,0,10.4,354.2,632.7)" />
</g>
<path d="M388.9,625.5h20.4m23.3,0h10.8" class="g10_78" />
<g fill="#000000" >
<use xlink:href="#f1_o" transform="matrix(10.5,0,0,10.5,390,619.3)" />
<use xlink:href="#f1_k" transform="matrix(10.5,0,0,10.5,434.3,619.3)" />
<use xlink:href="#f1_2e" transform="matrix(10.5,0,0,10.5,457,629.7)" />
<use xlink:href="#f1_2c" transform="matrix(10.5,0,0,10.5,465,629.7)" />
<use xlink:href="#f1_h" transform="matrix(10.5,0,0,10.5,474,629.7)" />
<use xlink:href="#f1_2g" transform="matrix(10.5,0,0,10.5,484.8,629.7)" />
<use xlink:href="#f1_29" transform="matrix(10.5,0,0,10.5,493.8,629.7)" />
<use xlink:href="#f1_24" transform="matrix(10.5,0,0,10.5,502.7,629.7)" />
<use xlink:href="#f1_2f" transform="matrix(10.5,0,0,10.5,506.3,629.7)" />
<use xlink:href="#f1_2e" transform="matrix(10.5,0,0,10.5,510.7,629.7)" />
<use xlink:href="#f1_n" transform="matrix(10.5,0,0,10.5,394.8,642.1)" />
<use xlink:href="#f1_l" transform="matrix(10.5,0,0,10.5,433.6,642.1)" />
<use xlink:href="#f4_2c" transform="matrix(10.5,0,0,10.5,399.3,619.3)" />
<use xlink:href="#f4_4o" transform="matrix(10.5,0,0,10.5,379.2,620)" />
<use xlink:href="#f4_54" transform="matrix(10.5,0,0,10.5,445,620)" />
<use xlink:href="#f4_h" transform="matrix(10.5,0,0,10.5,416.5,629.7)" />
<use xlink:href="#f4_4p" transform="matrix(10.5,0,0,10.5,379.2,632.3)" />
<use xlink:href="#f4_55" transform="matrix(10.5,0,0,10.5,445,632.3)" />
<use xlink:href="#f4_4q" transform="matrix(10.5,0,0,10.5,379.2,638.9)" />
<use xlink:href="#f4_56" transform="matrix(10.5,0,0,10.5,445,638.9)" />
<use xlink:href="#f5_n" transform="matrix(8,0,0,8,643.6,1193.2)" />
</g>
<g fill="#0080FF" fill-opacity="0.5" >
<use xlink:href="#f0_1c" transform="matrix(35.5,0,0,35.5,170.3,1127)" />
<use xlink:href="#f0_21" transform="matrix(35.5,0,0,35.5,200.5,1127)" />
<use xlink:href="#f0_1x" transform="matrix(35.5,0,0,35.5,230.7,1127)" />
<use xlink:href="#f0_2e" transform="matrix(35.5,0,0,35.5,260.9,1127)" />
<use xlink:href="#f0_2a" transform="matrix(35.5,0,0,35.5,278.9,1127)" />
<use xlink:href="#f0_17" transform="matrix(35.5,0,0,35.5,309.1,1127)" />
<use xlink:href="#f0_2h" transform="matrix(35.5,0,0,35.5,351.3,1127)" />
<use xlink:href="#f0_25" transform="matrix(35.5,0,0,35.5,381.5,1127)" />
<use xlink:href="#f0_20" transform="matrix(35.5,0,0,35.5,393.5,1127)" />
<use xlink:href="#f0_21" transform="matrix(35.5,0,0,35.5,423.7,1127)" />
<use xlink:href="#f0_i" transform="matrix(35.5,0,0,35.5,453.9,1127)" />
<use xlink:href="#f0_25" transform="matrix(35.5,0,0,35.5,468.9,1127)" />
<use xlink:href="#f0_2a" transform="matrix(35.5,0,0,35.5,481,1127)" />
</g>
<defs>
<path d="M593,101c0,0,182,0,279,112c0,0,98,113,98,318c0,0,0,196,-98,308c0,0,-98,112,-277,112c0,0,-181,0,-279,-110c0,0,-99,-111,-99,-310c0,0,0,-198,100,-314c0,0,99,-116,276,-116Zm0,-115c0,0,-162,0,-279,65c0,0,-118,66,-180,190c0,0,-62,124,-62,290c0,0,0,252,138,394c0,0,138,142,385,142c0,0,160,0,278,-64c0,0,118,-64,180,-185c0,0,62,-122,62,-287c0,0,0,-165,-63,-289c0,0,-63,-124,-181,-190c0,0,-118,-66,-278,-66Z" 
id="f0_1f"
transform="scale(0.001,-0.001)" />

<path d="M106,0V635c0,0,0,141,-5,173H228c0,0,1,-4,2,-21c0,0,1,-16,2,-37c0,0,1,-22,2,-81h2c0,0,47,84,108,119c0,0,60,34,151,34c0,0,132,0,194,-66c0,0,61,-66,61,-218V0H615V512c0,0,0,80,-15,124c0,0,-16,44,-50,63c0,0,-35,20,-101,20c0,0,-97,0,-153,-67c0,0,-56,-66,-56,-184V0Z" 
id="f0_2a"
transform="scale(0.001,-0.001)" />

<path d="M103,0V1107H237V0Z" 
id="f0_28"
transform="scale(0.001,-0.001)" />

<path d="M102,0V808H236V0Zm0,979v128H236V979Z" 
id="f0_25"
transform="scale(0.001,-0.001)" />

<path d="M643,478c0,0,-11,128,-65,187c0,0,-54,59,-154,59c0,0,-98,0,-155,-66c0,0,-57,-65,-62,-180ZM431,-14c0,0,-179,0,-272,106c0,0,-94,107,-94,317c0,0,0,200,94,307c0,0,93,106,267,106c0,0,356,0,356,-429V375H206c0,0,0,-138,57,-213c0,0,58,-75,168,-75c0,0,87,0,140,35c0,0,53,35,71,88L760,177c0,0,-72,-191,-329,-191Z" 
id="f0_21"
transform="scale(0.001,-0.001)" />

<path d="M17,0L304,415L31,808H179L380,493L580,808H730L457,417L747,0H598L380,331L162,0Z" 
id="f0_2k"
transform="scale(0.001,-0.001)" />

<path d="M339,87c0,0,74,0,132,34c0,0,57,33,90,91c0,0,34,59,34,121v66L448,396c0,0,-95,-2,-144,-19c0,0,-49,-18,-75,-55c0,0,-26,-38,-26,-98c0,0,0,-65,35,-101c0,0,36,-36,101,-36ZM309,-14c0,0,-122,0,-183,64c0,0,-61,64,-61,176c0,0,0,125,82,192c0,0,83,67,266,72l182,3v44c0,0,0,98,-42,141c0,0,-42,43,-132,43c0,0,-90,0,-131,-31c0,0,-41,-31,-49,-98L101,604c0,0,34,218,323,218c0,0,153,0,229,-70c0,0,77,-69,77,-202V202c0,0,0,-59,16,-90c0,0,16,-30,60,-30c0,0,19,0,44,5V4C850,4,799,-7,746,-7c0,0,-75,0,-109,38c0,0,-33,40,-38,124h-4C595,155,543,62,475,24c0,0,-68,-38,-166,-38Z" 
id="f0_1x"
transform="scale(0.001,-0.001)" />

<path d="M106,0V635c0,0,0,141,-5,173H228c0,0,1,-4,2,-21c0,0,1,-16,2,-37c0,0,1,-22,2,-81h2c0,0,44,86,100,120c0,0,56,33,136,33c0,0,92,0,145,-36c0,0,54,-37,75,-117h2c0,0,42,82,101,117c0,0,59,36,143,36c0,0,123,0,178,-66c0,0,56,-67,56,-218V0H1039V512c0,0,0,117,-32,162c0,0,-32,45,-116,45c0,0,-88,0,-136,-66c0,0,-49,-65,-49,-185V0H573V512c0,0,0,117,-32,162c0,0,-32,45,-116,45c0,0,-86,0,-136,-66c0,0,-50,-66,-50,-185V0Z" 
id="f0_29"
transform="scale(0.001,-0.001)" />

<path d="M453,84c0,0,100,0,146,74c0,0,46,73,46,247c0,0,0,169,-46,241c0,0,-45,73,-145,73c0,0,-80,0,-125,-34c0,0,-45,-34,-68,-105c0,0,-24,-71,-24,-186c0,0,0,-159,51,-234c0,0,51,-76,165,-76ZM103,-316V643c0,0,0,124,-5,165H228c0,0,1,-3,3,-22c0,0,1,-18,3,-56c0,0,2,-38,2,-52h3c0,0,36,75,94,110c0,0,59,34,156,34c0,0,149,0,223,-100c0,0,74,-100,74,-314c0,0,0,-422,-297,-422c0,0,-187,0,-251,140h-4c0,0,3,-6,3,-126V-316Z" 
id="f0_2c"
transform="scale(0.001,-0.001)" />

<path d="M420,84c0,0,121,0,173,78c0,0,52,77,52,243c0,0,0,167,-50,243c0,0,-50,76,-167,76c0,0,-118,0,-170,-78c0,0,-53,-77,-53,-241c0,0,0,-160,52,-241c0,0,52,-80,163,-80Zm1,-98c0,0,-176,0,-267,107c0,0,-90,108,-90,312c0,0,0,417,362,417c0,0,185,0,272,-102c0,0,88,-101,88,-315c0,0,0,-212,-94,-316C692,89,599,-14,421,-14Z" 
id="f0_2b"
transform="scale(0.001,-0.001)" />

<path d="M278,-11c0,0,-162,0,-162,182V710H23v98h99l39,181h90V808H400V710H251V200c0,0,0,-58,19,-82c0,0,19,-23,66,-23c0,0,27,0,77,10V6c0,0,-66,-17,-135,-17Z" 
id="f0_2g"
transform="scale(0.001,-0.001)" />

<path d="M365,-315c0,0,-136,187,-199,359c0,0,-62,172,-62,359c0,0,0,186,62,358c0,0,63,172,199,360h92c0,0,-110,-192,-160,-365c0,0,-51,-172,-51,-353c0,0,0,-183,51,-355c0,0,50,-172,160,-363Z" 
id="f1_b"
transform="scale(0.001,-0.001)" />

<path d="M436,95c0,0,105,0,160,79c0,0,54,80,54,232c0,0,0,150,-52,222c0,0,-52,72,-161,72c0,0,-112,0,-163,-81c0,0,-51,-82,-51,-258c0,0,0,-127,55,-197c0,0,55,-69,158,-69Zm6,-115c0,0,-135,0,-215,102L215,98V0H89V1097H223V695c0,0,87,127,225,127c1,0,2,0,2,0c0,0,157,0,249,-108c0,0,91,-107,91,-291c0,0,0,-208,-92,-326C698,97,606,-20,442,-20Z" 
id="f1_1x"
transform="scale(0.001,-0.001)" />

<path d="M52,-315c0,0,109,192,160,363c0,0,50,173,50,354c0,0,0,183,-50,355c0,0,-51,173,-160,364h92c0,0,135,-188,198,-360c0,0,63,-172,63,-359c0,0,0,-187,-63,-359c0,0,-63,-171,-198,-358Z" 
id="f1_c"
transform="scale(0.001,-0.001)" />

<path d="M406,0V763H155V870h2c16,0,114,2,178,48c0,0,70,51,104,157H549V0Z" 
id="f1_k"
transform="scale(0.001,-0.001)" />

<path d="M417,-28c0,0,-161,0,-259,79c0,0,-98,81,-109,223H189c0,0,11,-90,72,-139c0,0,61,-49,162,-49c0,0,96,0,158,68c0,0,61,68,61,175c0,0,0,112,-64,178c0,0,-64,66,-173,66c0,0,-59,0,-115,-28c0,0,-55,-29,-84,-73L93,480l77,573H727V922H271L225,629l4,3c0,0,89,60,188,60c0,0,169,0,269,-94c0,0,99,-93,99,-253c0,0,0,-165,-103,-269C682,76,579,-28,417,-28Z" 
id="f1_o"
transform="scale(0.001,-0.001)" />

<path d="M39,0V0c0,0,0,170,84,277c0,0,85,108,317,236c0,0,113,62,154,115c0,0,41,52,41,134c0,0,0,86,-62,141c0,0,-61,54,-156,54c0,0,-101,0,-158,-68c0,0,-57,-68,-60,-194H67c0,0,-2,178,95,279c0,0,98,101,273,101c0,0,149,0,245,-89c0,0,94,-88,94,-228c0,0,0,-118,-60,-195c0,0,-61,-76,-229,-169C485,394,303,294,237,212c0,0,-28,-36,-46,-81H774V0Z" 
id="f1_l"
transform="scale(0.001,-0.001)" />

<path d="M393,-20c0,0,-169,0,-252,65c0,0,-83,67,-92,210H178c0,0,10,-85,61,-123c0,0,50,-38,154,-38c0,0,90,0,136,34c0,0,47,35,47,100c0,0,0,42,-31,64c0,0,-30,21,-123,43L283,368c0,0,-112,27,-160,75c0,0,-48,48,-48,135c0,0,0,112,80,178c0,0,81,66,218,66c0,0,140,0,222,-68c0,0,82,-67,88,-187H557c0,0,-6,67,-55,103c0,0,-48,37,-129,37c0,0,-84,0,-127,-29c0,0,-44,-29,-44,-85c0,0,0,-43,31,-65c0,0,30,-21,121,-43L493,452c0,0,117,-28,167,-78c0,0,49,-49,49,-138c0,0,0,-119,-86,-188c0,0,-85,-68,-230,-68Z" 
id="f1_2e"
transform="scale(0.001,-0.001)" />

<path d="M406,93c0,0,97,0,156,73c0,0,59,74,59,195c0,0,0,163,-56,252c0,0,-55,88,-158,88c0,0,-111,0,-162,-72c0,0,-51,-73,-51,-229c0,0,0,-147,55,-227c0,0,55,-80,157,-80ZM621,-315V93l-7,-9C614,84,532,-20,400,-20c0,0,-159,0,-253,118c0,0,-93,119,-93,323c0,0,0,180,90,291c0,0,91,110,237,110c0,0,146,0,231,-124c0,0,10,-14,17,-29V799H755V-315Z" 
id="f1_2c"
transform="scale(0.001,-0.001)" />

<path d="M133,0V162H292V0Z" 
id="f1_h"
transform="scale(0.001,-0.001)" />

<path d="M0,-193V936H214c0,0,23,0,32,-9c0,0,10,-9,10,-23c0,0,0,-13,-10,-22c0,0,-9,-9,-32,-9H63V-130H214c0,0,23,0,32,-9c0,0,10,-8,10,-22c0,0,0,-14,-10,-23c0,0,-9,-9,-32,-9Z" 
id="f2_1r"
transform="scale(0.001,-0.001)" />

<path d="M109,0V1097H337V685H767v412H995V0H767V497H337V0Z" 
id="f3_17"
transform="scale(0.001,-0.001)" />

<path d="M108,0V812H322V0Zm-2,906v199H324V906Z" 
id="f3_24"
transform="scale(0.001,-0.001)" />

<path d="M99,0V812H302V691c0,0,13,22,28,41c0,0,79,101,230,101c0,0,128,0,201,-76c0,0,73,-76,73,-211V0H620V507c0,0,0,76,-33,112c0,0,-32,36,-99,36c0,0,-85,0,-130,-51c0,0,-45,-50,-45,-146V0Z" 
id="f3_29"
transform="scale(0.001,-0.001)" />

<path d="M340,-8c0,0,-114,0,-163,40c0,0,-50,41,-50,133V662H15V812H127v219H341V812H472V662H341V201c0,0,0,-29,17,-38c0,0,17,-8,70,-8h44V-3c0,0,-54,-5,-132,-5Z" 
id="f3_2f"
transform="scale(0.001,-0.001)" />

<path d="M140,0V222H369V0Zm0,561V783H369V561Z" 
id="f3_t"
transform="scale(0.001,-0.001)" />

<path d="M564,-29c0,0,-227,0,-362,155C202,126,67,283,67,548c0,0,0,265,140,422c0,0,140,157,376,157c0,0,186,0,305,-95c0,0,120,-96,144,-263H889c0,0,-21,109,-101,168c0,0,-81,59,-207,59c0,0,-165,0,-263,-121c0,0,-98,-122,-98,-327c0,0,0,-219,91,-333c0,0,91,-114,263,-114c0,0,128,0,212,78c0,0,85,79,113,224h142c0,0,-28,-203,-155,-318C886,85,758,-29,564,-29Z" 
id="f1_12"
transform="scale(0.001,-0.001)" />

<path d="M424,94c0,0,107,0,169,83c0,0,63,83,63,223c0,0,0,140,-63,224c0,0,-62,83,-169,83c0,0,-106,0,-168,-83c0,0,-62,-84,-62,-224c0,0,0,-140,62,-223c0,0,62,-83,168,-83Zm0,-114c0,0,-165,0,-268,115C156,95,54,211,54,400c0,0,0,189,102,306c0,0,103,116,268,116c0,0,168,0,270,-116c0,0,102,-117,102,-306c0,0,0,-189,-102,-305C694,95,592,-20,424,-20Z" 
id="f1_2a"
transform="scale(0.001,-0.001)" />

<path d="M118,0V799H246V662c0,0,17,32,36,58c0,0,76,102,187,102c0,0,19,0,38,-6V679l-27,1c0,0,-109,0,-168,-66c0,0,-60,-65,-60,-186V0Z" 
id="f1_2d"
transform="scale(0.001,-0.001)" />

<path d="M411,93c0,0,98,0,158,73c0,0,60,74,60,195c0,0,0,163,-57,252c0,0,-56,88,-161,88c0,0,-113,0,-165,-72c0,0,-52,-72,-52,-229c0,0,0,-147,56,-227c0,0,56,-80,161,-80ZM404,-20c0,0,-161,0,-255,118c0,0,-95,120,-95,324c0,0,0,179,92,290c0,0,91,110,239,110c0,0,147,0,233,-124l11,-15v414H763V0H638V109L621,84C621,84,538,-20,404,-20Z" 
id="f1_1z"
transform="scale(0.001,-0.001)" />

<path d="M104,0V799H238V0Zm-2,946v152H239V946Z" 
id="f1_24"
transform="scale(0.001,-0.001)" />

<path d="M99,0V799H226V681l30,39c0,0,87,102,219,102c0,0,132,0,203,-71c0,0,72,-72,72,-204V0H616V502c0,0,0,105,-41,151c0,0,-40,47,-132,47c0,0,-97,0,-154,-73c0,0,-56,-74,-56,-199V0Z" 
id="f1_29"
transform="scale(0.001,-0.001)" />

<path d="M335,90c0,0,106,0,179,57c0,0,50,41,67,91c0,0,3,10,4,31c0,0,3,21,3,47v87c0,0,-38,-18,-83,-25L381,360c0,0,-97,-13,-142,-45c0,0,-44,-31,-44,-86c0,0,0,-67,36,-103c0,0,37,-36,104,-36ZM309,-20c0,0,-117,0,-186,61c0,0,-68,63,-68,169c0,0,0,108,64,171c0,0,65,64,189,79l183,23c0,0,22,3,42,8c0,0,26,7,40,27c0,0,15,20,15,51v6c0,0,0,64,-49,101c0,0,-48,36,-135,36c0,0,-83,0,-130,-38c0,0,-46,-39,-56,-115H94c0,0,10,131,92,197c0,0,83,66,238,66c0,0,145,0,222,-63c0,0,76,-63,76,-184V137c0,0,0,-21,12,-33c0,0,12,-12,33,-12c0,0,6,0,18,1c0,0,11,2,25,5V1c0,0,-20,-7,-41,-11c0,0,-22,-5,-37,-5c0,0,-76,0,-110,41c0,0,-22,28,-32,79c0,0,-15,-19,-34,-36c0,0,-101,-89,-247,-89Z" 
id="f1_1w"
transform="scale(0.001,-0.001)" />

<path d="M292,-9c0,0,-88,0,-124,38c0,0,-36,39,-36,134V689H22V799H132v224H266V799H392V689H266V163c0,0,0,-27,21,-43c0,0,21,-15,57,-15h48V1C392,1,324,-9,292,-9Z" 
id="f1_2f"
transform="scale(0.001,-0.001)" />

<path d="M649,461c0,0,-6,111,-55,172c0,0,-55,69,-160,69c0,0,-106,0,-170,-79c0,0,-50,-62,-60,-162ZM425,-20c0,0,-169,0,-266,106c0,0,-97,107,-97,297c0,0,0,201,102,320c0,0,103,119,276,119c0,0,157,0,253,-116c0,0,96,-117,96,-306l-1,-48H204c0,0,8,-119,54,-182c0,0,57,-76,180,-76c0,0,77,0,134,43c0,0,58,43,70,110H775C775,247,746,116,656,47c0,0,-90,-67,-231,-67Z" 
id="f1_20"
transform="scale(0.001,-0.001)" />

<path d="M132,0V687H22V799H132V935c0,0,0,88,52,133c0,0,52,45,157,45l59,-3V989l-53,2c0,0,-39,0,-60,-24c0,0,-21,-25,-21,-71V799H400V687H266V0Z" 
id="f1_21"
transform="scale(0.001,-0.001)" />

<path d="M310,0L12,799H168L383,145L604,799H752L454,0Z" 
id="f1_2h"
transform="scale(0.001,-0.001)" />

<path d="M394,-20c0,0,-159,0,-253,113c0,0,-95,114,-95,307c0,0,0,193,98,308c0,0,98,114,264,114c0,0,144,0,230,-78c0,0,85,-79,91,-217H600c0,0,-8,86,-59,133c0,0,-52,47,-138,47c0,0,-101,0,-159,-82c0,0,-58,-82,-58,-225c0,0,0,-152,54,-229c0,0,53,-77,159,-77c0,0,79,0,132,50c0,0,52,51,69,143H729C729,287,709,137,623,58c0,0,-86,-78,-229,-78Z" 
id="f1_1y"
transform="scale(0.001,-0.001)" />

<path d="M0,368V478H849V368Z" 
id="f1_99"
transform="scale(0.001,-0.001)" />

<path d="M133,-224v71c0,0,47,8,65,52c0,0,14,33,17,101H133V163H292V27c0,0,0,-114,-36,-172c0,0,-37,-58,-123,-79Z" 
id="f1_f"
transform="scale(0.001,-0.001)" />

<path d="M424,92c0,0,114,0,170,107c0,0,57,108,56,323c0,0,1,216,-56,324c0,0,-56,107,-170,107c0,0,-112,0,-168,-107c0,0,-56,-108,-57,-324c0,0,1,-215,57,-323c0,0,56,-107,168,-107Zm0,-120c0,0,-176,0,-271,142c0,0,-96,143,-96,408c0,0,0,265,96,409c0,0,95,144,271,144c0,0,178,0,273,-144c0,0,96,-144,96,-409c0,0,0,-265,-96,-408c0,0,-95,-142,-273,-142Z" 
id="f1_j"
transform="scale(0.001,-0.001)" />

<path d="M424,-28c0,0,-180,0,-272,86c0,0,-92,87,-100,266H192c0,0,12,-126,66,-180c0,0,55,-54,170,-54c0,0,100,0,163,57c0,0,64,57,64,147c0,0,0,94,-61,149c0,0,-52,48,-135,54c0,0,-38,2,-72,2c0,0,-34,0,-45,-3V613c0,0,17,-3,51,-3c0,0,35,0,68,4c0,0,66,8,106,43c0,0,55,45,55,125c0,0,0,77,-58,125c0,0,-58,48,-148,48c0,0,-96,0,-147,-58c0,0,-51,-59,-56,-175H82c0,0,0,168,89,260c0,0,88,93,250,93c0,0,153,0,247,-77c0,0,94,-76,94,-202c0,0,0,-124,-95,-201c0,0,-18,-15,-39,-27c0,0,39,-17,69,-41c0,0,101,-79,101,-214c0,0,0,-151,-105,-246c0,0,-104,-95,-269,-95Z" 
id="f1_m"
transform="scale(0.001,-0.001)" />

<path d="M42,-299v108H207V995H42v109H329V-299Z" 
id="f1_1s"
transform="scale(0.001,-0.001)" />

<path d="M140,-21c0,0,-26,0,-44,17C96,-4,79,13,79,40c0,0,0,19,6,33c0,0,8,20,34,55c0,0,46,60,64,126c0,0,32,114,41,321H190c0,0,-55,0,-81,-18c0,0,-44,-26,-80,-89H0c0,0,42,129,98,178c0,0,43,37,120,37H743V575H562c0,0,-27,-171,-27,-327c0,0,0,-77,27,-110c0,0,27,-33,67,-33c0,0,33,0,56,22c0,0,24,22,31,65h27C743,192,730,74,686,26c0,0,-44,-47,-98,-47c0,0,-58,0,-97,51c0,0,-39,53,-39,198c0,0,0,91,28,347H286c0,0,-23,-390,-56,-494c0,0,-33,-102,-90,-102Z" 
id="f4_2c"
transform="scale(0.001,-0.001)" />

<path d="M62,-123V268c0,0,0,230,56,452c0,0,47,190,134,334c0,0,87,144,204,242c0,0,85,73,194,119l18,-16c0,0,-211,-145,-335,-339c0,0,-98,-156,-149,-374c0,0,-50,-218,-50,-403V-123Z" 
id="f4_4o"
transform="scale(0.001,-0.001)" />

<path d="M617,-123V283c0,0,0,236,-63,459c0,0,-63,223,-188,392c0,0,-108,146,-282,265l17,16c0,0,180,-76,320,-248c0,0,139,-172,204,-417c0,0,64,-245,64,-482V-123Z" 
id="f4_54"
transform="scale(0.001,-0.001)" />

<path d="M0,356v74H784V356Z" 
id="f4_h"
transform="scale(0.001,-0.001)" />

<path d="M62,-123V1415h72V-123Z" 
id="f4_4p"
transform="scale(0.001,-0.001)" />

<path d="M617,-123V1415h72V-123Z" 
id="f4_55"
transform="scale(0.001,-0.001)" />

<path d="M650,-123c0,0,-180,75,-319,246c0,0,-140,172,-205,418c0,0,-64,245,-64,481v393h72V1007c0,0,0,-236,63,-459c0,0,63,-223,189,-391c0,0,108,-145,282,-265l-18,-15Z" 
id="f4_4q"
transform="scale(0.001,-0.001)" />

<path d="M101,-123l-17,15c0,0,210,144,334,339c0,0,99,156,149,373c0,0,50,218,50,403v408h72V1022c0,0,0,-230,-56,-451c0,0,-48,-191,-134,-335C499,236,412,92,295,-5c0,0,-84,-73,-194,-118Z" 
id="f4_56"
transform="scale(0.001,-0.001)" />

<path d="M375,-20c0,0,-136,0,-203,66c0,0,-68,68,-68,204V799H238V284c0,0,0,-101,38,-146c0,0,39,-44,127,-44c0,0,97,0,153,75c0,0,57,75,57,203V799H747V0H620V122c0,0,-14,-22,-30,-41C590,81,504,-20,375,-20Z" 
id="f1_2g"
transform="scale(0.001,-0.001)" />

<path d="M511,373V863L169,383l-7,-10ZM511,0V258H38V383l496,691H646V373H799V258H646V0Z" 
id="f1_n"
transform="scale(0.001,-0.001)" />

<path d="M432,92c0,0,96,0,156,66c0,0,61,65,61,169c0,0,0,103,-61,169c0,0,-60,66,-156,66c0,0,-95,0,-156,-66c0,0,-61,-66,-61,-169c0,0,0,-104,61,-169c0,0,61,-66,156,-66ZM425,-28c0,0,-176,0,-271,135c0,0,-95,136,-95,388c0,0,0,278,103,429c0,0,103,151,293,151c0,0,142,0,226,-77c0,0,84,-76,90,-211H638c0,0,-8,80,-56,123c0,0,-47,43,-127,43c0,0,-125,0,-192,-119c0,0,-58,-102,-64,-278c0,0,100,127,255,127c0,0,152,0,245,-98c0,0,93,-98,93,-258c0,0,0,-161,-101,-259c0,0,-101,-96,-266,-96Z" 
id="f1_p"
transform="scale(0.001,-0.001)" />

<path d="M412,-328c0,0,-195,96,-303,284C109,-44,0,142,0,365c0,0,0,232,114,422c0,0,114,191,298,273v-31c0,0,-92,-51,-151,-139c0,0,-59,-88,-88,-223c0,0,-29,-136,-29,-282c0,0,0,-167,27,-301c0,0,26,-133,82,-221c0,0,55,-89,159,-159v-32Z" 
id="f4_c"
transform="scale(0.001,-0.001)" />

<path d="M34,-328v32c0,0,92,50,151,138c0,0,59,88,88,222c0,0,29,135,29,283c0,0,0,165,-27,300c0,0,-26,134,-82,222c0,0,-56,89,-159,160v31c0,0,194,-96,303,-284c0,0,108,-187,108,-410c0,0,0,-232,-114,-422c0,0,-114,-191,-297,-272Z" 
id="f4_d"
transform="scale(0.001,-0.001)" />

<path d="M212,0c0,0,51,270,162,500c0,0,109,222,281,422H57v131H799V934C799,934,623,726,515,498C515,498,408,269,362,0Z" 
id="f1_q"
transform="scale(0.001,-0.001)" />

<path d="M419,483c0,0,93,0,152,66c0,0,59,66,59,169c0,0,0,103,-59,169c0,0,-59,65,-152,65c0,0,-94,0,-153,-65c0,0,-59,-66,-59,-169c0,0,0,-103,59,-169c0,0,59,-66,153,-66ZM397,-28c0,0,-143,0,-227,75c0,0,-85,77,-91,211H209c0,0,8,-83,57,-128c0,0,49,-45,131,-45c0,0,121,0,186,135c0,0,48,101,62,265C645,485,545,362,397,362c0,0,-150,0,-241,98c0,0,-91,98,-91,258c0,0,0,160,99,258c0,0,99,98,262,98c0,0,173,0,266,-123c0,0,94,-123,94,-349c0,0,0,-303,-101,-467C685,135,583,-28,397,-28Z" 
id="f1_s"
transform="scale(0.001,-0.001)" />

<path d="M424,92c0,0,98,0,161,58c0,0,62,58,62,149c0,0,0,92,-62,151c0,0,-63,58,-161,58c0,0,-98,0,-160,-58c0,0,-63,-59,-63,-151c0,0,0,-91,63,-149c0,0,62,-58,160,-58Zm0,533c0,0,82,0,134,46c0,0,52,45,52,118c0,0,0,72,-52,118c0,0,-52,46,-134,46c0,0,-82,0,-134,-46c0,0,-52,-46,-52,-118c0,0,0,-73,52,-119c0,0,52,-45,134,-45Zm0,-653c0,0,-165,0,-265,90C159,62,59,154,59,305c0,0,0,134,100,216c0,0,35,28,78,47c0,0,-27,15,-52,33c0,0,-90,70,-90,185c0,0,0,130,90,209c0,0,91,80,239,80c0,0,148,0,238,-80c0,0,91,-79,91,-209c0,0,0,-115,-91,-185c0,0,-24,-19,-52,-32c0,0,44,-20,79,-49c0,0,101,-81,101,-215c0,0,0,-151,-101,-243c0,0,-100,-90,-265,-90Z" 
id="f1_r"
transform="scale(0.001,-0.001)" />

<path d="M355,0V355H0v72H355V784h72V427H782V355H427V0Z" 
id="f4_f"
transform="scale(0.001,-0.001)" />

<path d="M412,-18c0,0,-144,0,-239,85c0,0,-95,86,-108,222l133,18c0,0,24,-114,79,-164c0,0,55,-50,135,-50c0,0,96,0,161,65c0,0,65,66,65,163c0,0,0,92,-61,152c0,0,-60,60,-153,60c0,0,-38,0,-95,-15l15,119c0,0,13,-2,21,-2c0,0,86,0,155,45c0,0,69,44,69,137c0,0,0,74,-50,122c0,0,-50,49,-129,49c0,0,-79,0,-131,-50c0,0,-52,-49,-67,-147L78,815c0,0,25,135,112,209c0,0,87,74,217,74c0,0,89,0,164,-38c0,0,76,-39,116,-105c0,0,40,-66,40,-141c0,0,0,-70,-39,-129c0,0,-38,-58,-112,-92c0,0,97,-22,151,-93c0,0,53,-70,53,-176c0,0,0,-143,-104,-243c0,0,-105,-99,-264,-99Z" 
id="f5_n"
transform="scale(0.001,-0.001)" />

<path d="M125,0V1051H268V115H799V0Z" 
id="f0_1c"
transform="scale(0.001,-0.001)" />

<path d="M106,0V620c0,0,0,85,-5,188H228c0,0,6,-138,6,-165h3c0,0,32,103,74,141c0,0,42,38,118,38c0,0,27,0,54,-7V692c0,0,-26,7,-71,7c0,0,-84,0,-128,-72c0,0,-44,-72,-44,-206V0Z" 
id="f0_2e"
transform="scale(0.001,-0.001)" />

<path d="M606,-14c0,0,-164,0,-284,65c0,0,-119,66,-182,189c0,0,-63,123,-63,291c0,0,0,255,137,396c0,0,137,140,386,140c0,0,174,0,283,-59c0,0,109,-59,168,-189L915,779c0,0,-44,90,-123,131c0,0,-79,41,-196,41c0,0,-182,0,-278,-110c0,0,-96,-110,-96,-310c0,0,0,-200,102,-315c0,0,102,-115,282,-115c0,0,103,0,193,31c0,0,89,31,144,85V407H629V526h445V164c0,0,-83,-85,-205,-132c0,0,-121,-46,-263,-46Z" 
id="f0_17"
transform="scale(0.001,-0.001)" />

<path d="M355,-14c0,0,-133,0,-194,65c0,0,-62,66,-62,219V808H234V296c0,0,0,-80,16,-124c0,0,16,-44,50,-64c0,0,34,-19,101,-19c0,0,97,0,153,66c0,0,55,67,55,185V808H744V172c0,0,0,-141,4,-172H621c0,0,0,4,-1,20c0,0,-1,17,-2,38c0,0,-1,21,-3,80h-2C613,138,567,55,506,20c0,0,-61,-34,-151,-34Z" 
id="f0_2h"
transform="scale(0.001,-0.001)" />

<path d="M395,89c0,0,115,0,166,79c0,0,51,79,51,246c0,0,0,160,-51,235c0,0,-51,75,-164,75c0,0,-102,0,-147,-75c0,0,-45,-75,-45,-244c0,0,0,-170,45,-243c0,0,45,-73,145,-73ZM361,-14c0,0,-153,0,-225,102c0,0,-72,103,-72,312c0,0,0,422,297,422c0,0,92,0,153,-33c0,0,61,-34,98,-107h2l-2,90v335H747V166c0,0,0,-126,4,-166H623c0,0,-2,12,-5,55c0,0,-3,44,-3,75h-3c0,0,-37,-78,-98,-111c0,0,-62,-33,-153,-33Z" 
id="f0_20"
transform="scale(0.001,-0.001)" />

<path d="M140,0V163H285V0Z" 
id="f0_i"
transform="scale(0.001,-0.001)" />


</defs>
</svg>