<?xml version="1.0" encoding="UTF-8" standalone="no"?>
<!DOCTYPE svg PUBLIC "-//W3C//DTD SVG 1.1//EN"
"http://www.w3.org/Graphics/SVG/1.1/DTD/svg11.dtd">
<svg viewBox="0 0 677 1056" version="1.1" xmlns="http://www.w3.org/2000/svg" xmlns:xlink="http://www.w3.org/1999/xlink">
<defs>
<style type="text/css"><![CDATA[
.g0_41{
fill: none;
stroke: #000000;
stroke-width: 0.7665778;
stroke-linecap: round;
stroke-linejoin: miter;
}
.g1_41{
fill: none;
stroke: #000000;
stroke-width: 0.15277778;
stroke-linecap: round;
stroke-linejoin: miter;
}
.g2_41{
}
.g3_41{
fill: none;
stroke: #000000;
stroke-width: 0.7638889;
stroke-linecap: round;
stroke-linejoin: miter;
}
.g4_41{
fill: none;
stroke: #000000;
stroke-width: 0.7744;
stroke-linecap: round;
stroke-linejoin: miter;
}
.g5_41{
fill: none;
stroke: #000000;
stroke-width: 1.0523639;
stroke-linecap: round;
stroke-linejoin: miter;
}
.g6_41{
fill: none;
stroke: #000000;
stroke-width: 1.0503472;
stroke-linecap: round;
stroke-linejoin: miter;
}
.g7_41{
fill: none;
stroke: #000000;
stroke-width: 1.0369028;
stroke-linecap: round;
stroke-linejoin: miter;
}
.g8_41{
fill: none;
stroke: #000000;
stroke-width: 0.7663334;
stroke-linecap: round;
stroke-linejoin: miter;
}
.g9_41{
fill: none;
stroke: #000000;
stroke-width: 0.75997776;
stroke-linecap: round;
stroke-linejoin: miter;
}
.g10_41{
fill: none;
stroke: #000000;
stroke-width: 0.7673111;
stroke-linecap: round;
stroke-linejoin: miter;
}
]]></style>
</defs>
<g fill="#D4D4D4" fill-opacity="0.56" >
<use xlink:href="#f0_1f" transform="matrix(50.9,-50.9,50.9,50.9,65.9,924.1)" />
<use xlink:href="#f0_2a" transform="matrix(50.9,-50.9,50.9,50.9,126.4,863.6)" />
<use xlink:href="#f0_28" transform="matrix(50.9,-50.9,50.9,50.9,169.6,820.3)" />
<use xlink:href="#f0_25" transform="matrix(50.9,-50.9,50.9,50.9,186.9,803.1)" />
<use xlink:href="#f0_2a" transform="matrix(50.9,-50.9,50.9,50.9,204.2,785.8)" />
<use xlink:href="#f0_21" transform="matrix(50.9,-50.9,50.9,50.9,247.4,742.5)" />
<use xlink:href="#f0_2k" transform="matrix(50.9,-50.9,50.9,50.9,290.7,699.3)" />
<use xlink:href="#f0_1x" transform="matrix(50.9,-50.9,50.9,50.9,329.6,660.4)" />
<use xlink:href="#f0_29" transform="matrix(50.9,-50.9,50.9,50.9,372.8,617.2)" />
<use xlink:href="#f0_2c" transform="matrix(50.9,-50.9,50.9,50.9,437.6,552.4)" />
<use xlink:href="#f0_2b" transform="matrix(50.9,-50.9,50.9,50.9,480.8,509.1)" />
<use xlink:href="#f0_25" transform="matrix(50.9,-50.9,50.9,50.9,524.1,465.9)" />
<use xlink:href="#f0_2a" transform="matrix(50.9,-50.9,50.9,50.9,541.3,448.6)" />
<use xlink:href="#f0_2g" transform="matrix(50.9,-50.9,50.9,50.9,584.6,405.4)" />
</g>
<g fill="#000000" >
<use xlink:href="#f1_l" transform="matrix(10.4,0,0,10.4,41.2,74.8)" />
<use xlink:href="#f1_p" transform="matrix(10.4,0,0,10.4,50.1,74.8)" />
<use xlink:href="#f1_h" transform="matrix(10.4,0,0,10.4,59.2,74.8)" />
<use xlink:href="#f1_18" transform="matrix(10.4,0,0,10.4,81.9,74.8)" />
<use xlink:href="#f1_21" transform="matrix(10.4,0,0,10.4,86.3,74.8)" />
<use xlink:href="#f2_2j" transform="matrix(10.4,0,0,10.4,136.9,74.8)" />
<use xlink:href="#f1_w" transform="matrix(10.4,0,0,10.4,151.8,74.8)" />
<use xlink:href="#f2_1w" transform="matrix(10.4,0,0,10.4,168.1,74.8)" />
<use xlink:href="#f2_20" transform="matrix(10.4,0,0,10.4,176.9,74.8)" />
<use xlink:href="#f2_2f" transform="matrix(7.4,0,0,7.4,185.7,69.4)" />
<use xlink:href="#f1_b" transform="matrix(10.4,0,0,10.4,195.6,74.8)" />
<use xlink:href="#f1_2e" transform="matrix(10.4,0,0,10.4,200.9,74.8)" />
<use xlink:href="#f1_24" transform="matrix(10.4,0,0,10.4,208.9,74.8)" />
<use xlink:href="#f1_29" transform="matrix(10.4,0,0,10.4,212.4,74.8)" />
<use xlink:href="#f1_2f" transform="matrix(10.4,0,0,10.4,221.3,74.8)" />
<use xlink:href="#f1_99" transform="matrix(10.4,0,0,10.4,232.7,74.8)" />
<use xlink:href="#f1_1y" transform="matrix(10.4,0,0,10.4,248.3,74.8)" />
<use xlink:href="#f1_2a" transform="matrix(10.4,0,0,10.4,256.3,74.8)" />
<use xlink:href="#f1_2e" transform="matrix(10.4,0,0,10.4,265.2,74.8)" />
<use xlink:href="#f2_2f" transform="matrix(10.4,0,0,10.4,280.1,74.8)" />
<use xlink:href="#f1_c" transform="matrix(10.4,0,0,10.4,284.5,74.8)" />
<use xlink:href="#f2_2k" transform="matrix(10.4,0,0,10.4,136.9,122.2)" />
<use xlink:href="#f1_w" transform="matrix(10.4,0,0,10.4,151.8,122.2)" />
<use xlink:href="#f2_1w" transform="matrix(10.4,0,0,10.4,168.1,122.2)" />
<use xlink:href="#f2_20" transform="matrix(10.4,0,0,10.4,176.9,122.2)" />
<use xlink:href="#f2_2f" transform="matrix(7.4,0,0,7.4,185.7,116.9)" />
<use xlink:href="#f1_b" transform="matrix(10.4,0,0,10.4,195.8,122.2)" />
<use xlink:href="#f1_2e" transform="matrix(10.4,0,0,10.4,201.1,122.2)" />
<use xlink:href="#f1_24" transform="matrix(10.4,0,0,10.4,209.1,122.2)" />
<use xlink:href="#f1_29" transform="matrix(10.4,0,0,10.4,212.6,122.2)" />
<use xlink:href="#f1_2f" transform="matrix(10.4,0,0,10.4,221.5,122.2)" />
<use xlink:href="#f1_e" transform="matrix(10.4,0,0,10.4,232.9,122.2)" />
<use xlink:href="#f1_1y" transform="matrix(10.4,0,0,10.4,249.1,122.2)" />
<use xlink:href="#f1_2a" transform="matrix(10.4,0,0,10.4,257.1,122.2)" />
<use xlink:href="#f1_2e" transform="matrix(10.4,0,0,10.4,266,122.2)" />
<use xlink:href="#f1_2f" transform="matrix(10.4,0,0,10.4,274,122.2)" />
<use xlink:href="#f1_c" transform="matrix(10.4,0,0,10.4,278.4,122.2)" />
<use xlink:href="#f1_2f" transform="matrix(10.4,0,0,10.4,290.7,122.2)" />
<use xlink:href="#f1_23" transform="matrix(10.4,0,0,10.4,295.1,122.2)" />
<use xlink:href="#f1_20" transform="matrix(10.4,0,0,10.4,304,122.2)" />
<use xlink:href="#f1_29" transform="matrix(10.4,0,0,10.4,312.9,122.2)" />
<use xlink:href="#f1_2e" transform="matrix(10.4,0,0,10.4,328.7,122.2)" />
<use xlink:href="#f1_23" transform="matrix(10.4,0,0,10.4,336.7,122.2)" />
<use xlink:href="#f1_2a" transform="matrix(10.4,0,0,10.4,345.5,122.2)" />
<use xlink:href="#f1_2i" transform="matrix(10.4,0,0,10.4,354.4,122.2)" />
<use xlink:href="#f1_2f" transform="matrix(10.4,0,0,10.4,372.9,122.2)" />
<use xlink:href="#f1_23" transform="matrix(10.4,0,0,10.4,377.3,122.2)" />
<use xlink:href="#f1_1w" transform="matrix(10.4,0,0,10.4,386.2,122.2)" />
<use xlink:href="#f1_2f" transform="matrix(10.4,0,0,10.4,395.1,122.2)" />
</g>
<path d="M409.1,115.5h19.8m51.2,0h10.8" class="g0_41" />
<g fill="#000000" >
<use xlink:href="#f1_1w" transform="matrix(10.4,0,0,10.4,433.5,119.7)" />
<use xlink:href="#f1_2f" transform="matrix(10.4,0,0,10.4,442.6,119.7)" />
<use xlink:href="#f1_24" transform="matrix(10.4,0,0,10.4,495,119.7)" />
<use xlink:href="#f1_2e" transform="matrix(10.4,0,0,10.4,498.5,119.7)" />
<use xlink:href="#f1_k" transform="matrix(10.4,0,0,10.4,509.5,119.7)" />
<use xlink:href="#f1_n" transform="matrix(10.4,0,0,10.4,481,131.9)" />
<use xlink:href="#f2_1z" transform="matrix(10.4,0,0,10.4,409,109.4)" />
<use xlink:href="#f2_2k" transform="matrix(10.4,0,0,10.4,418,109.4)" />
<use xlink:href="#f2_2j" transform="matrix(10.4,0,0,10.4,451.6,119.7)" />
<use xlink:href="#f2_1z" transform="matrix(10.4,0,0,10.4,409,131.9)" />
<use xlink:href="#f2_2j" transform="matrix(10.4,0,0,10.4,418,131.9)" />
<use xlink:href="#f3_2c" transform="matrix(10.4,0,0,10.4,481,109.4)" />
<use xlink:href="#f3_x" transform="matrix(10.4,0,0,10.4,466,119.7)" />
<use xlink:href="#f1_h" transform="matrix(10.4,0,0,10.4,519.5,122.2)" />
<use xlink:href="#f1_l" transform="matrix(10.4,0,0,10.4,41.2,182.7)" />
<use xlink:href="#f1_q" transform="matrix(10.4,0,0,10.4,50.1,182.7)" />
<use xlink:href="#f1_h" transform="matrix(10.4,0,0,10.4,59.2,182.7)" />
<use xlink:href="#f1_18" transform="matrix(10.4,0,0,10.4,81.9,182.7)" />
<use xlink:href="#f1_21" transform="matrix(10.4,0,0,10.4,86.3,182.7)" />
</g>
<path d="M179.4,176.7l1.6,-.9l4,6.3l4.2,-16.7h31" class="g1_41" />
<path fill-rule="evenodd" d="M179.3,176.5l2.1,-1.2l3.6,5.3L188.9,165h31.3v.7H189.4l-4.1,16.4h-.7l-4,-5.9l-1,.7l-.3,-.4Z" class="g2_41" />
<path d="M236.6,176.7l1.5,-.9l4,6.3l4.2,-16.7h10.8" class="g1_41" />
<path fill-rule="evenodd" d="M236.5,176.5l2.1,-1.2l3.5,5.3l4,-15.6h11v.7H246.6l-4.1,16.4h-.8l-3.9,-5.9l-1.1,.7l-.2,-.4Z" class="g2_41" />
<path d="M258.4,175.7l1.6,-1l3.9,7.4l4.3,-19.7h38.9" class="g1_41" />
<path fill-rule="evenodd" d="M258.3,175.5l2.1,-1.4l3.5,6.2l4,-18.3h39.2v.7H268.5l-4.2,19.4h-.8l-3.9,-6.9l-1,.7l-.3,-.4Z" class="g2_41" />
<path d="M408.1,176.7h19.8" class="g3_41" />
<g fill="#000000" >
<use xlink:href="#f1_k" transform="matrix(7,0,0,7,154.1,173.7)" />
<use xlink:href="#f1_l" transform="matrix(7,0,0,7,299.1,173.7)" />
<use xlink:href="#f1_2e" transform="matrix(10.5,0,0,10.4,127.6,180.9)" />
<use xlink:href="#f1_24" transform="matrix(10.5,0,0,10.4,135.7,180.9)" />
<use xlink:href="#f1_29" transform="matrix(10.5,0,0,10.4,139.2,180.9)" />
<use xlink:href="#f1_k" transform="matrix(10.5,0,0,10.4,188.6,180.9)" />
<use xlink:href="#f1_k" transform="matrix(10.5,0,0,10.4,267.7,180.9)" />
<use xlink:href="#f1_2f" transform="matrix(10.5,0,0,10.4,324.6,180.9)" />
<use xlink:href="#f1_23" transform="matrix(10.5,0,0,10.4,329.1,180.9)" />
<use xlink:href="#f1_20" transform="matrix(10.5,0,0,10.4,338,180.9)" />
<use xlink:href="#f1_29" transform="matrix(10.5,0,0,10.4,347,180.9)" />
<use xlink:href="#f1_21" transform="matrix(10.5,0,0,10.4,359.9,180.9)" />
<use xlink:href="#f1_24" transform="matrix(10.5,0,0,10.4,364.4,180.9)" />
<use xlink:href="#f1_29" transform="matrix(10.5,0,0,10.4,368,180.9)" />
<use xlink:href="#f1_1z" transform="matrix(10.5,0,0,10.4,376.9,180.9)" />
<use xlink:href="#f1_99" transform="matrix(10.5,0,0,10.4,395.3,180.9)" />
<use xlink:href="#f1_h" transform="matrix(10.5,0,0,10.4,429.8,180.9)" />
<use xlink:href="#f2_1z" transform="matrix(10.5,0,0,10.4,409,170.5)" />
<use xlink:href="#f2_2k" transform="matrix(10.5,0,0,10.4,418,170.5)" />
<use xlink:href="#f2_2k" transform="matrix(10.5,0,0,10.4,100.5,180.9)" />
<use xlink:href="#f2_2j" transform="matrix(10.5,0,0,10.4,169.8,180.9)" />
<use xlink:href="#f2_2j" transform="matrix(10.5,0,0,10.4,210.8,180.9)" />
<use xlink:href="#f2_2j" transform="matrix(10.5,0,0,10.4,247.7,180.9)" />
<use xlink:href="#f2_2j" transform="matrix(10.5,0,0,10.4,289.9,180.9)" />
<use xlink:href="#f2_1z" transform="matrix(10.5,0,0,10.4,409.4,193.2)" />
<use xlink:href="#f2_2j" transform="matrix(10.5,0,0,10.4,418.4,193.2)" />
<use xlink:href="#f3_h" transform="matrix(7,0,0,7,148.3,173.7)" />
<use xlink:href="#f3_4r" transform="matrix(10.5,0,0,10.4,162.5,175.4)" />
<use xlink:href="#f3_57" transform="matrix(10.5,0,0,10.4,308.6,175.4)" />
<use xlink:href="#f3_x" transform="matrix(10.5,0,0,10.4,114.4,180.9)" />
<use xlink:href="#f3_h" transform="matrix(10.5,0,0,10.4,198,180.9)" />
<use xlink:href="#f3_h" transform="matrix(10.5,0,0,10.4,224,180.9)" />
<use xlink:href="#f3_h" transform="matrix(10.5,0,0,10.4,277,180.9)" />
<use xlink:href="#f3_4t" transform="matrix(10.5,0,0,10.4,162.5,182.1)" />
<use xlink:href="#f3_59" transform="matrix(10.5,0,0,10.4,308.6,182.1)" />
<use xlink:href="#f1_l" transform="matrix(10.4,0,0,10.4,41.2,243.8)" />
<use xlink:href="#f1_r" transform="matrix(10.4,0,0,10.4,50.1,243.8)" />
<use xlink:href="#f1_h" transform="matrix(10.4,0,0,10.4,59.2,243.8)" />
<use xlink:href="#f1_18" transform="matrix(10.4,0,0,10.4,81.9,243.8)" />
<use xlink:href="#f1_21" transform="matrix(10.4,0,0,10.4,86.3,243.8)" />
<use xlink:href="#f3_c" transform="matrix(10.5,0,0,14.9,183.7,246.3)" />
<use xlink:href="#f3_d" transform="matrix(10.5,0,0,14.9,230.8,246.3)" />
<use xlink:href="#f1_27" transform="matrix(7.1,0,0,7.1,138.7,237.3)" />
<use xlink:href="#f1_2a" transform="matrix(7.1,0,0,7.1,141.1,237.3)" />
<use xlink:href="#f1_22" transform="matrix(7.1,0,0,7.1,147.2,237.3)" />
<use xlink:href="#f1_27" transform="matrix(10.6,0,0,10.6,189,244.8)" />
<use xlink:href="#f1_2a" transform="matrix(10.6,0,0,10.6,192.6,244.8)" />
<use xlink:href="#f1_22" transform="matrix(10.6,0,0,10.6,201.6,244.8)" />
<use xlink:href="#f2_20" transform="matrix(5,0,0,5,152.5,240.2)" />
<use xlink:href="#f2_2j" transform="matrix(7.1,0,0,7.1,236.1,235.3)" />
<use xlink:href="#f2_2j" transform="matrix(7.1,0,0,7.1,160.1,237.3)" />
<use xlink:href="#f2_20" transform="matrix(7.1,0,0,7.1,209.7,249.2)" />
<use xlink:href="#f2_2k" transform="matrix(10.6,0,0,10.6,100.6,244.8)" />
<use xlink:href="#f2_2j" transform="matrix(10.6,0,0,10.6,128.6,244.8)" />
<use xlink:href="#f2_2j" transform="matrix(10.6,0,0,10.6,220.2,244.8)" />
<use xlink:href="#f3_x" transform="matrix(10.6,0,0,10.6,114.9,244.8)" />
<use xlink:href="#f3_f" transform="matrix(10.6,0,0,10.6,171.9,244.8)" />
<use xlink:href="#f1_2f" transform="matrix(10.4,0,0,10.4,252.4,243.8)" />
<use xlink:href="#f1_23" transform="matrix(10.4,0,0,10.4,256.8,243.8)" />
<use xlink:href="#f1_20" transform="matrix(10.4,0,0,10.4,265.7,243.8)" />
<use xlink:href="#f1_29" transform="matrix(10.4,0,0,10.4,274.6,243.8)" />
<use xlink:href="#f1_21" transform="matrix(10.4,0,0,10.4,290.4,243.8)" />
<use xlink:href="#f1_24" transform="matrix(10.4,0,0,10.4,294.9,243.8)" />
<use xlink:href="#f1_29" transform="matrix(10.4,0,0,10.4,298.4,243.8)" />
<use xlink:href="#f1_1z" transform="matrix(10.4,0,0,10.4,307.3,243.8)" />
</g>
<path d="M325.7,240h20.1" class="g4_41" />
<g fill="#000000" >
<use xlink:href="#f1_h" transform="matrix(10.4,0,0,10.4,347.3,244.2)" />
<use xlink:href="#f2_1z" transform="matrix(10.4,0,0,10.4,325.6,233.9)" />
<use xlink:href="#f2_2k" transform="matrix(10.4,0,0,10.4,334.8,233.9)" />
<use xlink:href="#f2_1z" transform="matrix(10.4,0,0,10.4,325.6,256.4)" />
<use xlink:href="#f2_2j" transform="matrix(10.4,0,0,10.4,334.8,256.4)" />
<use xlink:href="#f1_l" transform="matrix(10.4,0,0,10.4,41.2,296.6)" />
<use xlink:href="#f1_s" transform="matrix(10.4,0,0,10.4,50.1,296.6)" />
<use xlink:href="#f1_h" transform="matrix(10.4,0,0,10.4,59.2,296.6)" />
<use xlink:href="#f1_13" transform="matrix(10.4,0,0,10.4,81.9,296.6)" />
<use xlink:href="#f1_24" transform="matrix(10.4,0,0,10.4,93.4,296.6)" />
<use xlink:href="#f1_21" transform="matrix(10.4,0,0,10.4,97,296.6)" />
<use xlink:href="#f1_21" transform="matrix(10.4,0,0,10.4,101.4,296.6)" />
<use xlink:href="#f1_20" transform="matrix(10.4,0,0,10.4,105.8,296.6)" />
<use xlink:href="#f1_2d" transform="matrix(10.4,0,0,10.4,114.7,296.6)" />
<use xlink:href="#f1_20" transform="matrix(10.4,0,0,10.4,120,296.6)" />
<use xlink:href="#f1_29" transform="matrix(10.4,0,0,10.4,128.9,296.6)" />
<use xlink:href="#f1_2f" transform="matrix(10.4,0,0,10.4,137.8,296.6)" />
<use xlink:href="#f1_24" transform="matrix(10.4,0,0,10.4,142.2,296.6)" />
<use xlink:href="#f1_1w" transform="matrix(10.4,0,0,10.4,145.7,296.6)" />
<use xlink:href="#f1_2f" transform="matrix(10.4,0,0,10.4,154.6,296.6)" />
<use xlink:href="#f1_20" transform="matrix(10.4,0,0,10.4,159,296.6)" />
<use xlink:href="#f2_2j" transform="matrix(4.9,0,0,4.9,195.2,283.5)" />
<use xlink:href="#f2_2j" transform="matrix(6.9,0,0,6.9,188,288.2)" />
<use xlink:href="#f2_2j" transform="matrix(10.4,0,0,10.3,177.3,295.2)" />
<use xlink:href="#f1_2i" transform="matrix(10.4,0,0,10.4,212.6,296.6)" />
<use xlink:href="#f1_h" transform="matrix(10.4,0,0,10.4,224.1,296.6)" />
<use xlink:href="#f1_2d" transform="matrix(10.4,0,0,10.4,228.6,296.6)" />
<use xlink:href="#f1_h" transform="matrix(10.4,0,0,10.4,233.9,296.6)" />
<use xlink:href="#f1_2f" transform="matrix(10.4,0,0,10.4,238.3,296.6)" />
<use xlink:href="#f1_h" transform="matrix(10.4,0,0,10.4,242.8,296.6)" />
<use xlink:href="#f2_2j" transform="matrix(10.4,0,0,10.4,254.2,296.6)" />
<use xlink:href="#f1_h" transform="matrix(10.4,0,0,10.4,262.3,296.6)" />
<use xlink:href="#f1_m" transform="matrix(10.4,0,0,10.4,41.2,341)" />
<use xlink:href="#f1_j" transform="matrix(10.4,0,0,10.4,50.1,341)" />
<use xlink:href="#f1_h" transform="matrix(10.4,0,0,10.4,59.2,341)" />
<use xlink:href="#f1_15" transform="matrix(10.4,0,0,10.4,81.9,341)" />
<use xlink:href="#f1_24" transform="matrix(10.4,0,0,10.4,91.7,341)" />
<use xlink:href="#f1_29" transform="matrix(10.4,0,0,10.4,95.2,341)" />
<use xlink:href="#f1_1z" transform="matrix(10.4,0,0,10.4,104.1,341)" />
</g>
<path d="M122.7,333.7h20.4" class="g5_41" />
<g fill="#000000" >
<use xlink:href="#f3_c" transform="matrix(10.4,0,0,11.9,173.5,336.2)" />
<use xlink:href="#f3_d" transform="matrix(10.4,0,0,11.9,221.2,336.2)" />
<use xlink:href="#f3_c" transform="matrix(10.4,0,0,14.4,260.8,338.6)" />
<use xlink:href="#f3_d" transform="matrix(10.4,0,0,14.4,308.7,338.6)" />
<use xlink:href="#f1_f" transform="matrix(10.4,0,0,10.4,146.7,337.9)" />
<use xlink:href="#f1_24" transform="matrix(10.4,0,0,10.4,157.6,337.9)" />
<use xlink:href="#f1_21" transform="matrix(10.4,0,0,10.4,161.1,337.9)" />
<use xlink:href="#f1_1y" transform="matrix(10.4,0,0,10.4,180.2,337.9)" />
<use xlink:href="#f1_2a" transform="matrix(10.4,0,0,10.4,188.2,337.9)" />
<use xlink:href="#f1_2e" transform="matrix(10.4,0,0,10.4,197.2,337.9)" />
<use xlink:href="#f1_1y" transform="matrix(10.4,0,0,10.4,267.4,337.9)" />
<use xlink:href="#f1_2a" transform="matrix(10.4,0,0,10.4,275.4,337.9)" />
<use xlink:href="#f1_2e" transform="matrix(10.4,0,0,10.4,284.5,337.9)" />
<use xlink:href="#f3_x" transform="matrix(10.4,0,0,10.4,243.9,337.9)" />
<use xlink:href="#f2_2k" transform="matrix(7.3,0,0,7.3,226.5,328.4)" />
<use xlink:href="#f2_2j" transform="matrix(7.3,0,0,7.3,314,328.4)" />
<use xlink:href="#f2_1z" transform="matrix(10.4,0,0,10.4,123,327.6)" />
<use xlink:href="#f2_2k" transform="matrix(10.4,0,0,10.4,132,327.6)" />
<use xlink:href="#f2_2j" transform="matrix(10.4,0,0,10.4,209.6,337.9)" />
<use xlink:href="#f2_2k" transform="matrix(10.4,0,0,10.4,296.9,337.9)" />
<use xlink:href="#f2_1z" transform="matrix(10.4,0,0,10.4,123.1,350.1)" />
<use xlink:href="#f2_2j" transform="matrix(10.4,0,0,10.4,132.1,350.1)" />
<use xlink:href="#f1_m" transform="matrix(10.4,0,0,10.4,41.2,399.8)" />
<use xlink:href="#f1_k" transform="matrix(10.4,0,0,10.4,50.1,399.8)" />
<use xlink:href="#f1_h" transform="matrix(10.4,0,0,10.4,59.2,399.8)" />
<use xlink:href="#f1_18" transform="matrix(10.4,0,0,10.4,81.9,399.8)" />
<use xlink:href="#f1_21" transform="matrix(10.4,0,0,10.4,86.3,399.8)" />
</g>
<path d="M186.2,385.1l1.6,-.9l3.9,6.6L196,373.3h63.1" class="g1_41" />
<path fill-rule="evenodd" d="M186.1,384.9l2.1,-1.2l3.5,5.5l4,-16.3h63.4v.8H196.3l-4.2,17.1h-.7l-4,-6.1l-1.1,.7l-.2,-.5Z" class="g2_41" />
<path d="M282.3,385.1l1.6,-.9l3.9,6.6l4.3,-17.5h62.8" class="g1_41" />
<path fill-rule="evenodd" d="M282.2,384.9l2.1,-1.2l3.5,5.5l4,-16.3h63.1v.8H292.4l-4.2,17.1h-.7l-4,-6.1l-1,.7l-.3,-.5Z" class="g2_41" />
<path d="M186.1,409.8l1.6,-1l3.9,6.6l4.3,-17.5H259" class="g1_41" />
<path fill-rule="evenodd" d="M186,409.6l2.1,-1.3l3.5,5.6l4,-16.4H259v.8H196.2L192,415.4h-.7l-4,-6.1l-1.1,.7l-.2,-.4Z" class="g2_41" />
<path d="M282.5,409.8l1.5,-1l4,6.6l4.2,-17.5h62.9" class="g1_41" />
<path fill-rule="evenodd" d="M282.4,409.6l2.1,-1.3l3.5,5.6l4,-16.4h63.1v.8H292.5l-4.1,17.1h-.8l-4,-6.1l-1,.7l-.2,-.4Z" class="g2_41" />
<path d="M184.5,395.2H356.6m68.9,0h11.4" class="g6_41" />
<g fill="#000000" >
<use xlink:href="#f1_k" transform="matrix(7.4,0,0,7.4,164.6,392.3)" />
<use xlink:href="#f1_k" transform="matrix(10.7,0,0,10.6,195.5,389)" />
<use xlink:href="#f1_2e" transform="matrix(10.7,0,0,10.6,224.2,389)" />
<use xlink:href="#f1_24" transform="matrix(10.7,0,0,10.6,232.3,389)" />
<use xlink:href="#f1_29" transform="matrix(10.7,0,0,10.6,235.9,389)" />
<use xlink:href="#f1_k" transform="matrix(10.7,0,0,10.6,292,389)" />
<use xlink:href="#f1_2e" transform="matrix(10.7,0,0,10.6,320.4,389)" />
<use xlink:href="#f1_24" transform="matrix(10.7,0,0,10.6,328.6,389)" />
<use xlink:href="#f1_29" transform="matrix(10.7,0,0,10.6,332.2,389)" />
<use xlink:href="#f1_2f" transform="matrix(10.7,0,0,10.6,136.1,399.5)" />
<use xlink:href="#f1_1w" transform="matrix(10.7,0,0,10.6,140.6,399.5)" />
<use xlink:href="#f1_29" transform="matrix(10.7,0,0,10.6,149.7,399.5)" />
<use xlink:href="#f1_2i" transform="matrix(10.7,0,0,10.6,374.2,399.5)" />
<use xlink:href="#f1_23" transform="matrix(10.7,0,0,10.6,385.8,399.5)" />
<use xlink:href="#f1_20" transform="matrix(10.7,0,0,10.6,394.8,399.5)" />
<use xlink:href="#f1_2d" transform="matrix(10.7,0,0,10.6,403.9,399.5)" />
<use xlink:href="#f1_20" transform="matrix(10.7,0,0,10.6,409.3,399.5)" />
<use xlink:href="#f1_l" transform="matrix(10.7,0,0,10.6,427.2,412)" />
<use xlink:href="#f1_k" transform="matrix(10.7,0,0,10.6,195.4,413.7)" />
<use xlink:href="#f1_2e" transform="matrix(10.7,0,0,10.6,224.1,413.7)" />
<use xlink:href="#f1_24" transform="matrix(10.7,0,0,10.6,232.2,413.7)" />
<use xlink:href="#f1_29" transform="matrix(10.7,0,0,10.6,235.8,413.7)" />
<use xlink:href="#f1_k" transform="matrix(10.7,0,0,10.6,292.1,413.7)" />
<use xlink:href="#f1_2e" transform="matrix(10.7,0,0,10.6,320.6,413.7)" />
<use xlink:href="#f1_24" transform="matrix(10.7,0,0,10.6,328.7,413.7)" />
<use xlink:href="#f1_29" transform="matrix(10.7,0,0,10.6,332.3,413.7)" />
<use xlink:href="#f3_h" transform="matrix(7.4,0,0,7.4,158.5,392.3)" />
<use xlink:href="#f3_4o" transform="matrix(10.6,0,0,10.6,174.8,386.2)" />
<use xlink:href="#f3_54" transform="matrix(10.6,0,0,10.6,358.6,386.2)" />
<use xlink:href="#f3_f" transform="matrix(10.6,0,0,10.6,208.5,389)" />
<use xlink:href="#f3_h" transform="matrix(10.6,0,0,10.6,266.4,389)" />
<use xlink:href="#f3_h" transform="matrix(10.6,0,0,10.6,304.7,389)" />
<use xlink:href="#f3_2c" transform="matrix(10.6,0,0,10.6,427.3,389)" />
<use xlink:href="#f3_x" transform="matrix(10.6,0,0,10.6,118.7,399.5)" />
<use xlink:href="#f3_w" transform="matrix(10.6,0,0,10.6,446,399.5)" />
<use xlink:href="#f3_w" transform="matrix(10.6,0,0,10.6,481.4,399.5)" />
<use xlink:href="#f3_2c" transform="matrix(10.6,0,0,10.6,498.9,399.5)" />
<use xlink:href="#f3_4p" transform="matrix(10.6,0,0,10.6,174.8,404.3)" />
<use xlink:href="#f3_55" transform="matrix(10.6,0,0,10.6,358.6,404.3)" />
<use xlink:href="#f3_4q" transform="matrix(10.6,0,0,10.6,174.8,412.2)" />
<use xlink:href="#f3_56" transform="matrix(10.6,0,0,10.6,358.6,412.2)" />
<use xlink:href="#f3_f" transform="matrix(10.6,0,0,10.6,208.4,413.7)" />
<use xlink:href="#f3_f" transform="matrix(10.6,0,0,10.6,266.3,413.7)" />
<use xlink:href="#f3_h" transform="matrix(10.6,0,0,10.6,304.9,413.7)" />
<use xlink:href="#f2_2j" transform="matrix(10.7,0,0,10.6,248.4,389)" />
<use xlink:href="#f2_2j" transform="matrix(10.7,0,0,10.6,344.4,389)" />
<use xlink:href="#f2_2k" transform="matrix(10.7,0,0,10.6,100.2,399.5)" />
<use xlink:href="#f2_2j" transform="matrix(10.7,0,0,10.6,463.4,399.5)" />
<use xlink:href="#f2_2j" transform="matrix(10.7,0,0,10.6,248.3,413.7)" />
<use xlink:href="#f2_2j" transform="matrix(10.7,0,0,10.6,344.5,413.7)" />
<use xlink:href="#f1_21" transform="matrix(10.4,0,0,10.4,516.8,399.8)" />
<use xlink:href="#f1_24" transform="matrix(10.4,0,0,10.4,521.2,399.8)" />
<use xlink:href="#f1_29" transform="matrix(10.4,0,0,10.4,524.7,399.8)" />
<use xlink:href="#f1_1z" transform="matrix(10.4,0,0,10.4,533.6,399.8)" />
</g>
<path d="M552.2,395.3h20.1" class="g7_41" />
<g fill="#000000" >
<use xlink:href="#f1_h" transform="matrix(10.4,0,0,10.4,576,399.5)" />
<use xlink:href="#f2_1z" transform="matrix(10.4,0,0,10.4,552.5,389.2)" />
<use xlink:href="#f2_2k" transform="matrix(10.4,0,0,10.4,561.3,389.2)" />
<use xlink:href="#f2_1z" transform="matrix(10.4,0,0,10.4,552.6,411.7)" />
<use xlink:href="#f2_2j" transform="matrix(10.4,0,0,10.4,561.5,411.7)" />
<use xlink:href="#f1_m" transform="matrix(10.4,0,0,10.4,41.2,458.8)" />
<use xlink:href="#f1_l" transform="matrix(10.4,0,0,10.4,50.1,458.8)" />
<use xlink:href="#f1_h" transform="matrix(10.4,0,0,10.4,59.2,458.8)" />
<use xlink:href="#f1_18" transform="matrix(10.4,0,0,10.4,81.9,458.8)" />
<use xlink:href="#f1_21" transform="matrix(10.4,0,0,10.4,86.3,458.8)" />
</g>
<path d="M158.9,453.9h10.2" class="g8_41" />
<g fill="#000000" >
<use xlink:href="#f1_k" transform="matrix(10.6,0,0,10.5,160.2,447.7)" />
<use xlink:href="#f1_2e" transform="matrix(10.6,0,0,10.5,128.2,458.1)" />
<use xlink:href="#f1_24" transform="matrix(10.6,0,0,10.5,136.3,458.1)" />
<use xlink:href="#f1_29" transform="matrix(10.6,0,0,10.5,139.8,458.1)" />
<use xlink:href="#f1_27" transform="matrix(10.6,0,0,10.5,171.1,458.1)" />
<use xlink:href="#f1_2a" transform="matrix(10.6,0,0,10.5,174.7,458.1)" />
<use xlink:href="#f1_22" transform="matrix(10.6,0,0,10.5,183.6,458.1)" />
<use xlink:href="#f2_20" transform="matrix(7,0,0,7,191.9,462.4)" />
<use xlink:href="#f2_2j" transform="matrix(10.6,0,0,10.5,100.2,458.1)" />
<use xlink:href="#f2_2k" transform="matrix(10.6,0,0,10.5,202.7,458.1)" />
<use xlink:href="#f2_1w" transform="matrix(10.6,0,0,10.5,159.1,470.5)" />
<use xlink:href="#f3_4o" transform="matrix(10.6,0,0,10.5,150.2,448.7)" />
<use xlink:href="#f3_54" transform="matrix(10.6,0,0,10.5,212.8,448.7)" />
<use xlink:href="#f3_x" transform="matrix(10.6,0,0,10.5,114.7,458.1)" />
<use xlink:href="#f3_4p" transform="matrix(10.6,0,0,10.5,150.2,460.4)" />
<use xlink:href="#f3_55" transform="matrix(10.6,0,0,10.5,212.8,460.4)" />
<use xlink:href="#f3_4q" transform="matrix(10.6,0,0,10.5,150.2,467.3)" />
<use xlink:href="#f3_56" transform="matrix(10.6,0,0,10.5,212.8,467.3)" />
<use xlink:href="#f1_2f" transform="matrix(10.4,0,0,10.4,231.7,458.8)" />
<use xlink:href="#f1_23" transform="matrix(10.4,0,0,10.4,236.1,458.8)" />
<use xlink:href="#f1_20" transform="matrix(10.4,0,0,10.4,245,458.8)" />
<use xlink:href="#f1_29" transform="matrix(10.4,0,0,10.4,253.9,458.8)" />
<use xlink:href="#f1_2e" transform="matrix(10.4,0,0,10.4,269.5,458.8)" />
<use xlink:href="#f1_23" transform="matrix(10.4,0,0,10.4,277.5,458.8)" />
<use xlink:href="#f1_2a" transform="matrix(10.4,0,0,10.4,286.4,458.8)" />
<use xlink:href="#f1_2i" transform="matrix(10.4,0,0,10.4,295.2,458.8)" />
<use xlink:href="#f1_2f" transform="matrix(10.4,0,0,10.4,313.7,458.8)" />
<use xlink:href="#f1_23" transform="matrix(10.4,0,0,10.4,318.1,458.8)" />
<use xlink:href="#f1_1w" transform="matrix(10.4,0,0,10.4,327,458.8)" />
<use xlink:href="#f1_2f" transform="matrix(10.4,0,0,10.4,335.9,458.8)" />
<use xlink:href="#f1_b" transform="matrix(10.4,0,0,10.4,347.1,458.8)" />
<use xlink:href="#f1_k" transform="matrix(10.4,0,0,10.4,352.4,458.8)" />
<use xlink:href="#f1_99" transform="matrix(10.4,0,0,10.4,368.2,458.8)" />
<use xlink:href="#f2_2j" transform="matrix(10.4,0,0,10.4,383.3,458.8)" />
<use xlink:href="#f1_l" transform="matrix(7.4,0,0,7.4,391.4,453.5)" />
<use xlink:href="#f1_c" transform="matrix(10.4,0,0,10.4,397.6,458.8)" />
<use xlink:href="#f2_2k" transform="matrix(10.4,0,0,10.4,409.9,458.8)" />
<use xlink:href="#f1_3e" transform="matrix(10.4,0,0,10.4,418,458.8)" />
<use xlink:href="#f1_3e" transform="matrix(10.4,0,0,10.4,423.3,458.8)" />
<use xlink:href="#f1_99" transform="matrix(10.4,0,0,10.4,435.4,458.8)" />
<use xlink:href="#f2_2j" transform="matrix(10.4,0,0,10.4,451.1,458.8)" />
<use xlink:href="#f2_2k" transform="matrix(10.4,0,0,10.4,459.1,458.8)" />
<use xlink:href="#f1_3e" transform="matrix(10.4,0,0,10.4,467.3,458.8)" />
<use xlink:href="#f1_99" transform="matrix(10.4,0,0,10.4,479.4,458.8)" />
<use xlink:href="#f2_1w" transform="matrix(10.4,0,0,10.4,495.1,458.8)" />
<use xlink:href="#f1_l" transform="matrix(7.4,0,0,7.4,503.9,453.5)" />
<use xlink:href="#f2_2k" transform="matrix(10.4,0,0,10.4,510.2,458.8)" />
<use xlink:href="#f1_w" transform="matrix(10.4,0,0,10.4,525,458.8)" />
<use xlink:href="#f1_j" transform="matrix(10.4,0,0,10.4,541.3,458.8)" />
<use xlink:href="#f1_h" transform="matrix(10.4,0,0,10.4,550.2,458.8)" />
<use xlink:href="#f1_m" transform="matrix(10.4,0,0,10.4,41.2,507.2)" />
<use xlink:href="#f1_m" transform="matrix(10.4,0,0,10.4,50.1,507.2)" />
<use xlink:href="#f1_h" transform="matrix(10.4,0,0,10.4,59.2,507.2)" />
<use xlink:href="#f1_13" transform="matrix(10.4,0,0,10.4,81.9,507.2)" />
<use xlink:href="#f1_24" transform="matrix(10.4,0,0,10.4,93.4,507.2)" />
<use xlink:href="#f1_21" transform="matrix(10.4,0,0,10.4,97,507.2)" />
<use xlink:href="#f1_21" transform="matrix(10.4,0,0,10.4,101.4,507.2)" />
<use xlink:href="#f1_20" transform="matrix(10.4,0,0,10.4,105.8,507.2)" />
<use xlink:href="#f1_2d" transform="matrix(10.4,0,0,10.4,114.7,507.2)" />
<use xlink:href="#f1_20" transform="matrix(10.4,0,0,10.4,120,507.2)" />
<use xlink:href="#f1_29" transform="matrix(10.4,0,0,10.4,128.9,507.2)" />
<use xlink:href="#f1_2f" transform="matrix(10.4,0,0,10.4,137.8,507.2)" />
<use xlink:href="#f1_24" transform="matrix(10.4,0,0,10.4,142.2,507.2)" />
<use xlink:href="#f1_1w" transform="matrix(10.4,0,0,10.4,145.7,507.2)" />
<use xlink:href="#f1_2f" transform="matrix(10.4,0,0,10.4,154.6,507.2)" />
<use xlink:href="#f1_20" transform="matrix(10.4,0,0,10.4,159,507.2)" />
<use xlink:href="#f3_c" transform="matrix(10.3,0,0,13.7,177.5,509.8)" />
<use xlink:href="#f3_d" transform="matrix(10.3,0,0,13.7,216.2,509.8)" />
<use xlink:href="#f1_27" transform="matrix(6.9,0,0,6.9,221,499.9)" />
<use xlink:href="#f1_2a" transform="matrix(6.9,0,0,6.9,223.4,499.9)" />
<use xlink:href="#f1_22" transform="matrix(6.9,0,0,6.9,229.4,499.9)" />
<use xlink:href="#f1_27" transform="matrix(10.4,0,0,10.3,182.6,509.2)" />
<use xlink:href="#f1_2a" transform="matrix(10.4,0,0,10.3,186.1,509.2)" />
<use xlink:href="#f1_22" transform="matrix(10.4,0,0,10.3,195.2,509.2)" />
<use xlink:href="#f1_f" transform="matrix(10.4,0,0,10.3,246.2,509.2)" />
<use xlink:href="#f1_k" transform="matrix(10.4,0,0,10.3,280.5,509.2)" />
<use xlink:href="#f1_h" transform="matrix(10.4,0,0,10.3,307.4,509.2)" />
<use xlink:href="#f1_h" transform="matrix(10.4,0,0,10.3,317.7,509.2)" />
<use xlink:href="#f1_h" transform="matrix(10.4,0,0,10.3,326.2,509.2)" />
<use xlink:href="#f3_y" transform="matrix(10.3,0,0,10.3,268.5,509.2)" />
<use xlink:href="#f2_2j" transform="matrix(6.9,0,0,6.9,236.9,499.9)" />
<use xlink:href="#f2_2j" transform="matrix(10.4,0,0,10.3,205.8,509.2)" />
<use xlink:href="#f2_2j" transform="matrix(10.4,0,0,10.3,254.3,509.2)" />
<use xlink:href="#f2_2i" transform="matrix(10.4,0,0,10.3,294.5,509.2)" />
<use xlink:href="#f2_2d" transform="matrix(10.4,0,0,10.3,310.6,509.2)" />
<use xlink:href="#f2_2f" transform="matrix(10.4,0,0,10.3,320.4,509.2)" />
<use xlink:href="#f2_2j" transform="matrix(10.4,0,0,10.3,339.5,509.2)" />
<use xlink:href="#f1_m" transform="matrix(10.4,0,0,10.4,41.2,561.3)" />
<use xlink:href="#f1_n" transform="matrix(10.4,0,0,10.4,50.1,561.3)" />
<use xlink:href="#f1_h" transform="matrix(10.4,0,0,10.4,59.2,561.3)" />
<use xlink:href="#f1_18" transform="matrix(10.4,0,0,10.4,81.9,561.3)" />
<use xlink:href="#f1_21" transform="matrix(10.4,0,0,10.4,86.3,561.3)" />
<use xlink:href="#f1_2e" transform="matrix(10.4,0,0,10.4,97.6,561.3)" />
<use xlink:href="#f1_24" transform="matrix(10.4,0,0,10.4,105.5,561.3)" />
<use xlink:href="#f1_29" transform="matrix(10.4,0,0,10.4,109.1,561.3)" />
<use xlink:href="#f2_2k" transform="matrix(10.4,0,0,10.4,124.6,561.3)" />
<use xlink:href="#f1_w" transform="matrix(10.4,0,0,10.4,139.5,561.3)" />
<use xlink:href="#f2_2j" transform="matrix(10.4,0,0,10.4,155.8,561.3)" />
<use xlink:href="#f1_2e" transform="matrix(10.4,0,0,10.4,170.6,561.3)" />
<use xlink:href="#f1_24" transform="matrix(10.4,0,0,10.4,178.6,561.3)" />
<use xlink:href="#f1_29" transform="matrix(10.4,0,0,10.4,182.2,561.3)" />
<use xlink:href="#f1_b" transform="matrix(10.4,0,0,10.4,198,561.3)" />
<use xlink:href="#f2_1w" transform="matrix(10.4,0,0,10.4,203.3,561.3)" />
<use xlink:href="#f1_e" transform="matrix(10.4,0,0,10.4,218.9,561.3)" />
<use xlink:href="#f2_2k" transform="matrix(10.4,0,0,10.4,235.2,561.3)" />
<use xlink:href="#f1_c" transform="matrix(10.4,0,0,10.4,243.2,561.3)" />
<use xlink:href="#f1_2f" transform="matrix(10.4,0,0,10.4,255.3,561.3)" />
<use xlink:href="#f1_23" transform="matrix(10.4,0,0,10.4,259.8,561.3)" />
<use xlink:href="#f1_20" transform="matrix(10.4,0,0,10.4,268.6,561.3)" />
<use xlink:href="#f1_29" transform="matrix(10.4,0,0,10.4,277.5,561.3)" />
<use xlink:href="#f1_2e" transform="matrix(10.4,0,0,10.4,293.4,561.3)" />
<use xlink:href="#f1_23" transform="matrix(10.4,0,0,10.4,301.3,561.3)" />
<use xlink:href="#f1_2a" transform="matrix(10.4,0,0,10.4,310.2,561.3)" />
<use xlink:href="#f1_2i" transform="matrix(10.4,0,0,10.4,319.1,561.3)" />
<use xlink:href="#f1_2f" transform="matrix(10.4,0,0,10.4,337.4,561.3)" />
<use xlink:href="#f1_23" transform="matrix(10.4,0,0,10.4,341.8,561.3)" />
<use xlink:href="#f1_1w" transform="matrix(10.4,0,0,10.4,350.7,561.3)" />
<use xlink:href="#f1_2f" transform="matrix(10.4,0,0,10.4,359.5,561.3)" />
</g>
<path d="M373.5,556.1h19.9" class="g8_41" />
<g fill="#000000" >
<use xlink:href="#f3_c" transform="matrix(10.4,0,0,14,442.6,549.7)" />
<use xlink:href="#f3_d" transform="matrix(10.4,0,0,14,483.7,549.6)" />
</g>
<path d="M412.2,556.1h77.2" class="g8_41" />
<g fill="#000000" >
<use xlink:href="#f1_l" transform="matrix(7,0,0,7,433.5,541.9)" />
<use xlink:href="#f1_2e" transform="matrix(10.5,0,0,10.4,412.8,549.1)" />
<use xlink:href="#f1_24" transform="matrix(10.5,0,0,10.4,420.9,549.1)" />
<use xlink:href="#f1_29" transform="matrix(10.5,0,0,10.4,424.4,549.1)" />
<use xlink:href="#f1_h" transform="matrix(10.5,0,0,10.4,491,560.4)" />
<use xlink:href="#f1_2e" transform="matrix(10.5,0,0,10.4,435.3,572.7)" />
<use xlink:href="#f1_24" transform="matrix(10.5,0,0,10.4,443.3,572.7)" />
<use xlink:href="#f1_29" transform="matrix(10.5,0,0,10.4,446.9,572.7)" />
<use xlink:href="#f2_1w" transform="matrix(10.5,0,0,10.4,447.8,549.1)" />
<use xlink:href="#f2_2k" transform="matrix(10.5,0,0,10.4,473.1,549.1)" />
<use xlink:href="#f2_1z" transform="matrix(10.5,0,0,10.4,373.3,550)" />
<use xlink:href="#f2_2k" transform="matrix(10.5,0,0,10.4,382.4,550)" />
<use xlink:href="#f2_1z" transform="matrix(10.5,0,0,10.4,373.3,572.7)" />
<use xlink:href="#f2_2j" transform="matrix(10.5,0,0,10.4,382.4,572.7)" />
<use xlink:href="#f2_1w" transform="matrix(10.5,0,0,10.4,456.8,572.7)" />
<use xlink:href="#f3_f" transform="matrix(10.5,0,0,10.4,460.4,549.1)" />
<use xlink:href="#f3_x" transform="matrix(10.5,0,0,10.4,398.2,560.4)" />
<use xlink:href="#f1_m" transform="matrix(10.4,0,0,10.4,41.2,617.1)" />
<use xlink:href="#f1_o" transform="matrix(10.4,0,0,10.4,50.1,617.1)" />
<use xlink:href="#f1_h" transform="matrix(10.4,0,0,10.4,59.2,617.1)" />
<use xlink:href="#f1_18" transform="matrix(10.4,0,0,10.4,81.9,617.1)" />
<use xlink:href="#f1_21" transform="matrix(10.4,0,0,10.4,86.3,617.1)" />
<use xlink:href="#f2_2k" transform="matrix(10.4,0,0,10.4,97.5,617.1)" />
<use xlink:href="#f1_w" transform="matrix(10.4,0,0,10.4,112.3,617.1)" />
<use xlink:href="#f1_2e" transform="matrix(10.4,0,0,10.4,128.6,617.1)" />
<use xlink:href="#f1_24" transform="matrix(10.4,0,0,10.4,136.6,617.1)" />
<use xlink:href="#f1_29" transform="matrix(10.4,0,0,10.4,140.1,617.1)" />
<use xlink:href="#f1_99" transform="matrix(7.4,0,0,7.4,149,611.7)" />
<use xlink:href="#f1_k" transform="matrix(7.4,0,0,7.4,155.3,611.7)" />
<use xlink:href="#f2_2j" transform="matrix(10.4,0,0,10.4,161.5,617.1)" />
<use xlink:href="#f1_f" transform="matrix(10.4,0,0,10.4,169.5,617.1)" />
<use xlink:href="#f1_21" transform="matrix(10.4,0,0,10.4,180.8,617.1)" />
<use xlink:href="#f1_24" transform="matrix(10.4,0,0,10.4,185.2,617.1)" />
<use xlink:href="#f1_29" transform="matrix(10.4,0,0,10.4,188.7,617.1)" />
<use xlink:href="#f1_1z" transform="matrix(10.4,0,0,10.4,197.6,617.1)" />
</g>
<path d="M216.2,610.3h29.3" class="g3_41" />
<g fill="#000000" >
<use xlink:href="#f1_l" transform="matrix(7,0,0,6.9,227.6,597)" />
<use xlink:href="#f1_l" transform="matrix(7,0,0,6.9,236.4,620.8)" />
<use xlink:href="#f2_1z" transform="matrix(10.4,0,0,10.4,216.1,604.2)" />
<use xlink:href="#f2_2k" transform="matrix(10.4,0,0,10.4,234.6,604.2)" />
<use xlink:href="#f2_1z" transform="matrix(10.4,0,0,10.4,216.9,627.9)" />
<use xlink:href="#f2_2j" transform="matrix(10.4,0,0,10.4,225.9,627.9)" />
<use xlink:href="#f1_24" transform="matrix(10.4,0,0,10.4,256.6,617.1)" />
<use xlink:href="#f1_29" transform="matrix(10.4,0,0,10.4,260.2,617.1)" />
<use xlink:href="#f1_2f" transform="matrix(10.4,0,0,10.4,276,617.1)" />
<use xlink:href="#f1_20" transform="matrix(10.4,0,0,10.4,280.4,617.1)" />
<use xlink:href="#f1_2d" transform="matrix(10.4,0,0,10.4,289.3,617.1)" />
<use xlink:href="#f1_28" transform="matrix(10.4,0,0,10.4,294.6,617.1)" />
<use xlink:href="#f1_2e" transform="matrix(10.4,0,0,10.4,307.9,617.1)" />
<use xlink:href="#f1_2a" transform="matrix(10.4,0,0,10.4,322.7,617.1)" />
<use xlink:href="#f1_21" transform="matrix(10.4,0,0,10.4,331.5,617.1)" />
<use xlink:href="#f2_2k" transform="matrix(10.4,0,0,10.4,342.6,617.1)" />
<use xlink:href="#f1_h" transform="matrix(10.4,0,0,10.4,350.7,617.1)" />
<use xlink:href="#f1_m" transform="matrix(10.4,0,0,10.4,41.2,675.4)" />
<use xlink:href="#f1_p" transform="matrix(10.4,0,0,10.4,50.1,675.4)" />
<use xlink:href="#f1_h" transform="matrix(10.4,0,0,10.4,59.2,675.4)" />
<use xlink:href="#f1_18" transform="matrix(10.4,0,0,10.4,81.9,675.4)" />
<use xlink:href="#f1_21" transform="matrix(10.4,0,0,10.4,86.3,675.4)" />
</g>
<path d="M100.7,671.4h19.6m16.5,0h19.8" class="g9_41" />
<g fill="#000000" >
<use xlink:href="#f1_l" transform="matrix(7,0,0,7,112.1,658.1)" />
<use xlink:href="#f1_l" transform="matrix(7,0,0,7,148.4,658.1)" />
<use xlink:href="#f1_l" transform="matrix(7,0,0,7,111.3,682)" />
<use xlink:href="#f1_l" transform="matrix(7,0,0,7,147.8,682)" />
<use xlink:href="#f1_k" transform="matrix(10.4,0,0,10.4,173.7,675.6)" />
<use xlink:href="#f1_f" transform="matrix(10.4,0,0,10.4,179.4,675.6)" />
<use xlink:href="#f2_2j" transform="matrix(10.4,0,0,10.4,101.7,665.3)" />
<use xlink:href="#f2_2k" transform="matrix(10.4,0,0,10.4,138,665.3)" />
<use xlink:href="#f2_1w" transform="matrix(10.4,0,0,10.4,101.7,689.1)" />
<use xlink:href="#f2_1x" transform="matrix(10.4,0,0,10.4,137.6,689.1)" />
<use xlink:href="#f3_f" transform="matrix(10.4,0,0,10.4,124.1,675.6)" />
<use xlink:href="#f3_x" transform="matrix(10.4,0,0,10.4,161.5,675.6)" />
<use xlink:href="#f1_2f" transform="matrix(10.4,0,0,10.4,192.8,675.4)" />
<use xlink:href="#f1_23" transform="matrix(10.4,0,0,10.4,197.3,675.4)" />
<use xlink:href="#f1_20" transform="matrix(10.4,0,0,10.4,206.1,675.4)" />
<use xlink:href="#f1_29" transform="matrix(10.4,0,0,10.4,215,675.4)" />
<use xlink:href="#f1_2e" transform="matrix(10.4,0,0,10.4,230.8,675.4)" />
<use xlink:href="#f1_23" transform="matrix(10.4,0,0,10.4,238.8,675.4)" />
<use xlink:href="#f1_2a" transform="matrix(10.4,0,0,10.4,247.7,675.4)" />
<use xlink:href="#f1_2i" transform="matrix(10.4,0,0,10.4,256.6,675.4)" />
<use xlink:href="#f1_2f" transform="matrix(10.4,0,0,10.4,275,675.4)" />
<use xlink:href="#f1_23" transform="matrix(10.4,0,0,10.4,279.5,675.4)" />
<use xlink:href="#f1_1w" transform="matrix(10.4,0,0,10.4,288.3,675.4)" />
<use xlink:href="#f1_2f" transform="matrix(10.4,0,0,10.4,297.2,675.4)" />
</g>
<path d="M311.2,669.9h29.4m18.9,0h35.9" class="g10_41" />
<g fill="#000000" >
<use xlink:href="#f1_l" transform="matrix(7,0,0,7,322.7,656.5)" />
<use xlink:href="#f1_n" transform="matrix(7,0,0,7,383.4,656.5)" />
<use xlink:href="#f1_l" transform="matrix(7,0,0,7,331.5,680.5)" />
<use xlink:href="#f1_l" transform="matrix(7,0,0,7,369.4,680.5)" />
<use xlink:href="#f1_m" transform="matrix(7,0,0,7,387,680.5)" />
<use xlink:href="#f1_h" transform="matrix(10.6,0,0,10.5,397.1,674.2)" />
<use xlink:href="#f2_1z" transform="matrix(10.6,0,0,10.5,311.2,663.7)" />
<use xlink:href="#f2_2k" transform="matrix(10.6,0,0,10.5,329.8,663.7)" />
<use xlink:href="#f2_1x" transform="matrix(10.6,0,0,10.5,373.1,663.7)" />
<use xlink:href="#f2_1z" transform="matrix(10.6,0,0,10.5,312,687.7)" />
<use xlink:href="#f2_2j" transform="matrix(10.6,0,0,10.5,320.9,687.7)" />
<use xlink:href="#f2_1w" transform="matrix(10.6,0,0,10.5,359.6,687.7)" />
<use xlink:href="#f2_2k" transform="matrix(10.6,0,0,10.5,376.4,687.7)" />
<use xlink:href="#f3_h" transform="matrix(10.6,0,0,10.5,364.4,663.7)" />
<use xlink:href="#f3_x" transform="matrix(10.6,0,0,10.5,345.5,674.2)" />
<use xlink:href="#f1_m" transform="matrix(10.4,0,0,10.4,41.2,732.4)" />
<use xlink:href="#f1_q" transform="matrix(10.4,0,0,10.4,50.1,732.4)" />
<use xlink:href="#f1_h" transform="matrix(10.4,0,0,10.4,59.2,732.4)" />
<use xlink:href="#f1_18" transform="matrix(10.4,0,0,10.4,81.9,732.4)" />
<use xlink:href="#f1_21" transform="matrix(10.4,0,0,10.4,86.3,732.4)" />
<use xlink:href="#f3_c" transform="matrix(10.4,0,0,13.7,345.9,727.1)" />
<use xlink:href="#f3_d" transform="matrix(10.4,0,0,13.7,390.8,727.1)" />
</g>
<path d="M398,725.7h28.9m28.1,0h19.8" class="g3_41" />
<g fill="#000000" >
<use xlink:href="#f1_k" transform="matrix(5,0,0,5,166,718)" />
<use xlink:href="#f1_l" transform="matrix(7,0,0,7,409.6,712.4)" />
<use xlink:href="#f1_1y" transform="matrix(7,0,0,7,144.7,722.7)" />
<use xlink:href="#f1_2a" transform="matrix(7,0,0,7,150.1,722.7)" />
<use xlink:href="#f1_2e" transform="matrix(7,0,0,7,156,722.7)" />
<use xlink:href="#f1_l" transform="matrix(7,0,0,7,382.8,722.7)" />
<use xlink:href="#f1_l" transform="matrix(7,0,0,7,500.2,722.7)" />
<use xlink:href="#f1_l" transform="matrix(7,0,0,7,418.2,736.2)" />
<use xlink:href="#f1_f" transform="matrix(10.5,0,0,10.4,179.7,729.9)" />
<use xlink:href="#f1_k" transform="matrix(10.5,0,0,10.4,198.9,729.9)" />
<use xlink:href="#f1_k" transform="matrix(10.5,0,0,10.4,248.9,729.9)" />
<use xlink:href="#f1_f" transform="matrix(10.5,0,0,10.4,254.4,729.9)" />
<use xlink:href="#f1_2e" transform="matrix(10.5,0,0,10.4,267.5,729.9)" />
<use xlink:href="#f1_23" transform="matrix(10.5,0,0,10.4,275.6,729.9)" />
<use xlink:href="#f1_2a" transform="matrix(10.5,0,0,10.4,284.5,729.9)" />
<use xlink:href="#f1_2i" transform="matrix(10.5,0,0,10.4,293.4,729.9)" />
<use xlink:href="#f1_2f" transform="matrix(10.5,0,0,10.4,309.6,729.9)" />
<use xlink:href="#f1_23" transform="matrix(10.5,0,0,10.4,314.1,729.9)" />
<use xlink:href="#f1_1w" transform="matrix(10.5,0,0,10.4,323,729.9)" />
<use xlink:href="#f1_2f" transform="matrix(10.5,0,0,10.4,332,729.9)" />
<use xlink:href="#f1_k" transform="matrix(10.5,0,0,10.4,350.5,729.9)" />
<use xlink:href="#f1_j" transform="matrix(10.5,0,0,10.4,534.4,729.9)" />
<use xlink:href="#f3_h" transform="matrix(5,0,0,5,161.8,718)" />
<use xlink:href="#f3_x" transform="matrix(10.5,0,0,10.4,114.6,729.9)" />
<use xlink:href="#f3_h" transform="matrix(10.5,0,0,10.4,187.8,729.9)" />
<use xlink:href="#f3_2t" transform="matrix(10.5,0,0,10.4,209.3,729.9)" />
<use xlink:href="#f3_2t" transform="matrix(10.5,0,0,10.4,236.7,729.9)" />
<use xlink:href="#f3_h" transform="matrix(10.5,0,0,10.4,360.4,729.9)" />
<use xlink:href="#f3_h" transform="matrix(10.5,0,0,10.4,431,729.9)" />
<use xlink:href="#f3_h" transform="matrix(10.5,0,0,10.4,479,729.9)" />
<use xlink:href="#f3_x" transform="matrix(10.5,0,0,10.4,521.6,729.9)" />
<use xlink:href="#f2_1w" transform="matrix(7,0,0,7,136.9,722.7)" />
<use xlink:href="#f2_2j" transform="matrix(7,0,0,7,172,722.7)" />
<use xlink:href="#f2_1z" transform="matrix(10.5,0,0,10.4,398.4,719.5)" />
<use xlink:href="#f2_2k" transform="matrix(10.5,0,0,10.4,416.5,719.5)" />
<use xlink:href="#f2_1z" transform="matrix(10.5,0,0,10.4,455.5,719.5)" />
<use xlink:href="#f2_2k" transform="matrix(10.5,0,0,10.4,464.4,719.5)" />
<use xlink:href="#f2_2k" transform="matrix(10.5,0,0,10.4,100.2,729.9)" />
<use xlink:href="#f2_20" transform="matrix(10.5,0,0,10.4,127.1,729.9)" />
<use xlink:href="#f2_2j" transform="matrix(10.5,0,0,10.4,222.8,729.9)" />
<use xlink:href="#f2_2j" transform="matrix(10.5,0,0,10.4,372.7,729.9)" />
<use xlink:href="#f2_2j" transform="matrix(10.5,0,0,10.4,443.4,729.9)" />
<use xlink:href="#f2_1w" transform="matrix(10.5,0,0,10.4,490.6,729.9)" />
<use xlink:href="#f2_2k" transform="matrix(10.5,0,0,10.4,507.2,729.9)" />
<use xlink:href="#f2_1z" transform="matrix(10.5,0,0,10.4,455.6,742.2)" />
<use xlink:href="#f2_2j" transform="matrix(10.5,0,0,10.4,464.6,742.2)" />
<use xlink:href="#f2_1z" transform="matrix(10.5,0,0,10.4,399,743.4)" />
<use xlink:href="#f2_2j" transform="matrix(10.5,0,0,10.4,407.9,743.4)" />
<use xlink:href="#f1_m" transform="matrix(10.4,0,0,10.4,41.2,790.9)" />
<use xlink:href="#f1_r" transform="matrix(10.4,0,0,10.4,50.1,790.9)" />
<use xlink:href="#f1_h" transform="matrix(10.4,0,0,10.4,59.2,790.9)" />
<use xlink:href="#f1_18" transform="matrix(10.4,0,0,10.4,81.9,790.9)" />
<use xlink:href="#f1_21" transform="matrix(10.4,0,0,10.4,86.3,790.9)" />
<use xlink:href="#f2_2k" transform="matrix(10.4,0,0,10.4,97.5,790.9)" />
<use xlink:href="#f1_m" transform="matrix(7.4,0,0,7.4,105.6,785.5)" />
<use xlink:href="#f1_w" transform="matrix(10.4,0,0,10.4,118.8,790.9)" />
<use xlink:href="#f1_m" transform="matrix(10.4,0,0,10.4,135,790.9)" />
<use xlink:href="#f2_1w" transform="matrix(10.4,0,0,10.4,143.9,790.9)" />
<use xlink:href="#f2_2j" transform="matrix(10.4,0,0,10.4,152.7,790.9)" />
<use xlink:href="#f1_l" transform="matrix(7.4,0,0,7.4,160.7,785.5)" />
<use xlink:href="#f1_99" transform="matrix(10.4,0,0,10.4,173.9,790.9)" />
<use xlink:href="#f2_2j" transform="matrix(10.4,0,0,10.4,189.7,790.9)" />
<use xlink:href="#f1_m" transform="matrix(7.4,0,0,7.4,197.8,785.5)" />
<use xlink:href="#f1_2f" transform="matrix(10.4,0,0,10.4,211,790.9)" />
<use xlink:href="#f1_23" transform="matrix(10.4,0,0,10.4,215.4,790.9)" />
<use xlink:href="#f1_20" transform="matrix(10.4,0,0,10.4,224.3,790.9)" />
<use xlink:href="#f1_29" transform="matrix(10.4,0,0,10.4,233.2,790.9)" />
<use xlink:href="#f1_2b" transform="matrix(10.4,0,0,10.4,249,790.9)" />
<use xlink:href="#f1_2d" transform="matrix(10.4,0,0,10.4,257.9,790.9)" />
<use xlink:href="#f1_2a" transform="matrix(10.4,0,0,10.4,263.2,790.9)" />
<use xlink:href="#f1_2h" transform="matrix(10.4,0,0,10.4,272,790.9)" />
<use xlink:href="#f1_20" transform="matrix(10.4,0,0,10.4,280,790.9)" />
<use xlink:href="#f1_2f" transform="matrix(10.4,0,0,10.4,295.9,790.9)" />
<use xlink:href="#f1_23" transform="matrix(10.4,0,0,10.4,300.3,790.9)" />
<use xlink:href="#f1_1w" transform="matrix(10.4,0,0,10.4,309.2,790.9)" />
<use xlink:href="#f1_2f" transform="matrix(10.4,0,0,10.4,318,790.9)" />
</g>
<path d="M331.9,786.1h29.3m18.9,0h53.7" class="g0_41" />
<g fill="#000000" >
<use xlink:href="#f1_l" transform="matrix(7,0,0,7,343.4,772.8)" />
<use xlink:href="#f1_l" transform="matrix(7,0,0,7,408.2,772.8)" />
<use xlink:href="#f1_l" transform="matrix(7,0,0,7,425.5,772.8)" />
<use xlink:href="#f1_l" transform="matrix(7,0,0,7,352.2,796.8)" />
<use xlink:href="#f1_o" transform="matrix(7,0,0,7,408.6,796.8)" />
<use xlink:href="#f1_l" transform="matrix(10.6,0,0,10.5,390.2,780)" />
<use xlink:href="#f1_h" transform="matrix(10.6,0,0,10.5,435.5,790.4)" />
<use xlink:href="#f2_1z" transform="matrix(10.6,0,0,10.5,331.9,780)" />
<use xlink:href="#f2_2k" transform="matrix(10.6,0,0,10.5,350.5,780)" />
<use xlink:href="#f2_1w" transform="matrix(10.6,0,0,10.5,398.5,780)" />
<use xlink:href="#f2_2j" transform="matrix(10.6,0,0,10.5,415.1,780)" />
<use xlink:href="#f2_1z" transform="matrix(10.6,0,0,10.5,332.7,804)" />
<use xlink:href="#f2_2j" transform="matrix(10.6,0,0,10.5,341.6,804)" />
<use xlink:href="#f2_2k" transform="matrix(10.6,0,0,10.5,398.1,804)" />
<use xlink:href="#f3_h" transform="matrix(10.6,0,0,10.5,381.4,780)" />
<use xlink:href="#f3_x" transform="matrix(10.6,0,0,10.5,366.2,790.4)" />
<use xlink:href="#f1_m" transform="matrix(10.4,0,0,10.4,41.2,831.2)" />
<use xlink:href="#f1_s" transform="matrix(10.4,0,0,10.4,50.1,831.2)" />
<use xlink:href="#f1_h" transform="matrix(10.4,0,0,10.4,59.2,831.2)" />
<use xlink:href="#f1_1l" transform="matrix(10.4,0,0,10.4,81.9,831.2)" />
<use xlink:href="#f1_20" transform="matrix(10.4,0,0,10.4,92.5,831.2)" />
<use xlink:href="#f1_2d" transform="matrix(10.4,0,0,10.4,101.4,831.2)" />
<use xlink:href="#f1_24" transform="matrix(10.4,0,0,10.4,106.7,831.2)" />
<use xlink:href="#f1_21" transform="matrix(10.4,0,0,10.4,110.3,831.2)" />
<use xlink:href="#f1_2k" transform="matrix(10.4,0,0,10.4,114.7,831.2)" />
<use xlink:href="#f1_1h" transform="matrix(10.4,0,0,10.4,130.2,831.2)" />
<use xlink:href="#f1_2a" transform="matrix(10.4,0,0,10.4,141.7,831.2)" />
<use xlink:href="#f1_27" transform="matrix(10.4,0,0,10.4,150.6,831.2)" />
<use xlink:href="#f1_27" transform="matrix(10.4,0,0,10.4,154.1,831.2)" />
<use xlink:href="#f1_20" transform="matrix(10.4,0,0,10.4,157.7,831.2)" />
<use xlink:href="#f1_a" transform="matrix(10.4,0,0,10.4,166.5,831.2)" />
<use xlink:href="#f1_2e" transform="matrix(10.4,0,0,10.4,169.6,831.2)" />
<use xlink:href="#f1_2f" transform="matrix(10.4,0,0,10.4,184.9,831.2)" />
<use xlink:href="#f1_23" transform="matrix(10.4,0,0,10.4,189.3,831.2)" />
<use xlink:href="#f1_20" transform="matrix(10.4,0,0,10.4,198.2,831.2)" />
<use xlink:href="#f1_2a" transform="matrix(10.4,0,0,10.4,207.1,831.2)" />
<use xlink:href="#f1_2d" transform="matrix(10.4,0,0,10.4,215.9,831.2)" />
<use xlink:href="#f1_20" transform="matrix(10.4,0,0,10.4,221.2,831.2)" />
<use xlink:href="#f1_28" transform="matrix(10.4,0,0,10.4,230.1,831.2)" />
<use xlink:href="#f1_21" transform="matrix(10.4,0,0,10.4,250.9,831.2)" />
<use xlink:href="#f1_2a" transform="matrix(10.4,0,0,10.4,255.3,831.2)" />
<use xlink:href="#f1_2d" transform="matrix(10.4,0,0,10.4,264.2,831.2)" />
<use xlink:href="#f1_2f" transform="matrix(10.4,0,0,10.4,277,831.2)" />
<use xlink:href="#f1_23" transform="matrix(10.4,0,0,10.4,281.5,831.2)" />
<use xlink:href="#f1_20" transform="matrix(10.4,0,0,10.4,290.3,831.2)" />
<use xlink:href="#f1_21" transform="matrix(10.4,0,0,10.4,306.5,831.2)" />
<use xlink:href="#f1_2g" transform="matrix(10.4,0,0,10.4,311,831.2)" />
<use xlink:href="#f1_29" transform="matrix(10.4,0,0,10.4,319.8,831.2)" />
<use xlink:href="#f1_1y" transform="matrix(10.4,0,0,10.4,328.7,831.2)" />
<use xlink:href="#f1_2f" transform="matrix(10.4,0,0,10.4,336.7,831.2)" />
<use xlink:href="#f1_24" transform="matrix(10.4,0,0,10.4,341.1,831.2)" />
<use xlink:href="#f1_2a" transform="matrix(10.4,0,0,10.4,344.7,831.2)" />
<use xlink:href="#f1_29" transform="matrix(10.4,0,0,10.4,353.5,831.2)" />
<use xlink:href="#f1_f" transform="matrix(10.4,0,0,10.4,362.4,831.2)" />
<use xlink:href="#f2_2k" transform="matrix(10.4,0,0,10.4,373.2,831.2)" />
<use xlink:href="#f1_w" transform="matrix(10.4,0,0,10.4,388.6,831.2)" />
<use xlink:href="#f2_2j" transform="matrix(10.4,0,0,10.4,405.5,831.2)" />
<use xlink:href="#f1_l" transform="matrix(7.4,0,0,7.4,413.6,825.9)" />
<use xlink:href="#f1_e" transform="matrix(10.4,0,0,10.4,427.3,831.2)" />
<use xlink:href="#f1_l" transform="matrix(10.4,0,0,10.4,444,831.2)" />
<use xlink:href="#f1_24" transform="matrix(10.4,0,0,10.4,460.3,831.2)" />
<use xlink:href="#f1_29" transform="matrix(10.4,0,0,10.4,463.9,831.2)" />
<use xlink:href="#f1_2f" transform="matrix(10.4,0,0,10.4,480.3,831.2)" />
<use xlink:href="#f1_23" transform="matrix(10.4,0,0,10.4,484.7,831.2)" />
<use xlink:href="#f1_20" transform="matrix(10.4,0,0,10.4,493.6,831.2)" />
<use xlink:href="#f1_24" transform="matrix(10.4,0,0,10.4,509.8,831.2)" />
<use xlink:href="#f1_29" transform="matrix(10.4,0,0,10.4,513.3,831.2)" />
<use xlink:href="#f1_2f" transform="matrix(10.4,0,0,10.4,522.2,831.2)" />
<use xlink:href="#f1_20" transform="matrix(10.4,0,0,10.4,526.6,831.2)" />
<use xlink:href="#f1_2d" transform="matrix(10.4,0,0,10.4,535.5,831.2)" />
<use xlink:href="#f1_2h" transform="matrix(10.4,0,0,10.4,540.8,831.2)" />
<use xlink:href="#f1_1w" transform="matrix(10.4,0,0,10.4,548.8,831.2)" />
<use xlink:href="#f1_27" transform="matrix(10.4,0,0,10.4,557.6,831.2)" />
<use xlink:href="#f1_1q" transform="matrix(10.4,0,0,10.4,568.7,831.2)" />
<use xlink:href="#f2_1w" transform="matrix(10.4,0,0,10.4,572.5,831.2)" />
<use xlink:href="#f1_f" transform="matrix(10.4,0,0,10.4,581.3,831.2)" />
<use xlink:href="#f2_1x" transform="matrix(10.4,0,0,10.4,593.2,831.2)" />
<use xlink:href="#f1_1s" transform="matrix(10.4,0,0,10.4,602,831.2)" />
<use xlink:href="#f1_2i" transform="matrix(10.4,0,0,10.4,81.9,851.4)" />
<use xlink:href="#f1_23" transform="matrix(10.4,0,0,10.4,93.4,851.4)" />
<use xlink:href="#f1_20" transform="matrix(10.4,0,0,10.4,102.3,851.4)" />
<use xlink:href="#f1_2d" transform="matrix(10.4,0,0,10.4,111.2,851.4)" />
<use xlink:href="#f1_20" transform="matrix(10.4,0,0,10.4,116.5,851.4)" />
<use xlink:href="#f2_1w" transform="matrix(10.4,0,0,10.4,132,851.4)" />
<use xlink:href="#f1_w" transform="matrix(10.4,0,0,10.4,147.7,851.4)" />
<use xlink:href="#f1_99" transform="matrix(10.4,0,0,10.4,164,851.4)" />
<use xlink:href="#f1_l" transform="matrix(10.4,0,0,10.4,172.9,851.4)" />
<use xlink:href="#f1_f" transform="matrix(10.4,0,0,10.4,181.8,851.4)" />
<use xlink:href="#f2_1x" transform="matrix(10.4,0,0,10.4,193,851.4)" />
<use xlink:href="#f1_w" transform="matrix(10.4,0,0,10.4,208.8,851.4)" />
<use xlink:href="#f1_l" transform="matrix(10.4,0,0,10.4,225.1,851.4)" />
<use xlink:href="#f1_h" transform="matrix(10.4,0,0,10.4,233.9,851.4)" />
<use xlink:href="#f1_n" transform="matrix(10.4,0,0,10.4,41.2,885.3)" />
<use xlink:href="#f1_j" transform="matrix(10.4,0,0,10.4,50.1,885.3)" />
<use xlink:href="#f1_h" transform="matrix(10.4,0,0,10.4,59.2,885.3)" />
<use xlink:href="#f1_1l" transform="matrix(10.4,0,0,10.4,81.9,885.3)" />
<use xlink:href="#f1_20" transform="matrix(10.4,0,0,10.4,92.5,885.3)" />
<use xlink:href="#f1_2d" transform="matrix(10.4,0,0,10.4,101.4,885.3)" />
<use xlink:href="#f1_24" transform="matrix(10.4,0,0,10.4,106.7,885.3)" />
<use xlink:href="#f1_21" transform="matrix(10.4,0,0,10.4,110.3,885.3)" />
<use xlink:href="#f1_2k" transform="matrix(10.4,0,0,10.4,114.7,885.3)" />
<use xlink:href="#f1_1c" transform="matrix(10.4,0,0,10.4,129.8,885.3)" />
<use xlink:href="#f1_20" transform="matrix(10.4,0,0,10.4,143.1,885.3)" />
<use xlink:href="#f1_1w" transform="matrix(10.4,0,0,10.4,152,885.3)" />
<use xlink:href="#f1_29" transform="matrix(10.4,0,0,10.4,160.8,885.3)" />
<use xlink:href="#f1_1l" transform="matrix(10.4,0,0,10.4,176.7,885.3)" />
<use xlink:href="#f1_1w" transform="matrix(10.4,0,0,10.4,187.3,885.3)" />
<use xlink:href="#f1_27" transform="matrix(10.4,0,0,10.4,196.2,885.3)" />
<use xlink:href="#f1_2g" transform="matrix(10.4,0,0,10.4,199.7,885.3)" />
<use xlink:href="#f1_20" transform="matrix(10.4,0,0,10.4,208.6,885.3)" />
<use xlink:href="#f1_1j" transform="matrix(10.4,0,0,10.4,224.6,885.3)" />
<use xlink:href="#f1_23" transform="matrix(10.4,0,0,10.4,234.4,885.3)" />
<use xlink:href="#f1_20" transform="matrix(10.4,0,0,10.4,243.2,885.3)" />
<use xlink:href="#f1_2a" transform="matrix(10.4,0,0,10.4,252.1,885.3)" />
<use xlink:href="#f1_2d" transform="matrix(10.4,0,0,10.4,261,885.3)" />
<use xlink:href="#f1_20" transform="matrix(10.4,0,0,10.4,266.3,885.3)" />
<use xlink:href="#f1_28" transform="matrix(10.4,0,0,10.4,275.1,885.3)" />
<use xlink:href="#f1_21" transform="matrix(10.4,0,0,10.4,295.6,885.3)" />
<use xlink:href="#f1_2a" transform="matrix(10.4,0,0,10.4,300,885.3)" />
<use xlink:href="#f1_2d" transform="matrix(10.4,0,0,10.4,308.9,885.3)" />
<use xlink:href="#f1_2f" transform="matrix(10.4,0,0,10.4,321.3,885.3)" />
<use xlink:href="#f1_23" transform="matrix(10.4,0,0,10.4,325.8,885.3)" />
<use xlink:href="#f1_20" transform="matrix(10.4,0,0,10.4,334.6,885.3)" />
<use xlink:href="#f1_21" transform="matrix(10.4,0,0,10.4,350.5,885.3)" />
<use xlink:href="#f1_2g" transform="matrix(10.4,0,0,10.4,354.9,885.3)" />
<use xlink:href="#f1_29" transform="matrix(10.4,0,0,10.4,363.8,885.3)" />
<use xlink:href="#f1_1y" transform="matrix(10.4,0,0,10.4,372.6,885.3)" />
<use xlink:href="#f1_2f" transform="matrix(10.4,0,0,10.4,380.6,885.3)" />
<use xlink:href="#f1_24" transform="matrix(10.4,0,0,10.4,385.1,885.3)" />
<use xlink:href="#f1_2a" transform="matrix(10.4,0,0,10.4,388.6,885.3)" />
<use xlink:href="#f1_29" transform="matrix(10.4,0,0,10.4,397.5,885.3)" />
<use xlink:href="#f1_f" transform="matrix(10.4,0,0,10.4,406.3,885.3)" />
<use xlink:href="#f2_21" transform="matrix(10.4,0,0,10.4,416.3,885.3)" />
<use xlink:href="#f1_b" transform="matrix(10.4,0,0,10.4,420.7,885.3)" />
<use xlink:href="#f2_2j" transform="matrix(10.4,0,0,10.4,426,885.3)" />
<use xlink:href="#f1_c" transform="matrix(10.4,0,0,10.4,434.1,885.3)" />
<use xlink:href="#f1_w" transform="matrix(10.4,0,0,10.4,446.4,885.3)" />
<use xlink:href="#f2_2j" transform="matrix(10.4,0,0,10.4,462.9,885.3)" />
<use xlink:href="#f1_l" transform="matrix(7.4,0,0,7.4,470.9,880)" />
<use xlink:href="#f1_24" transform="matrix(10.4,0,0,10.4,484.3,885.3)" />
<use xlink:href="#f1_29" transform="matrix(10.4,0,0,10.4,487.9,885.3)" />
<use xlink:href="#f1_1q" transform="matrix(10.4,0,0,10.4,503.9,885.3)" />
<use xlink:href="#f1_l" transform="matrix(10.4,0,0,10.4,508.3,885.3)" />
<use xlink:href="#f1_f" transform="matrix(10.4,0,0,10.4,517.2,885.3)" />
<use xlink:href="#f1_n" transform="matrix(10.4,0,0,10.4,528.8,885.3)" />
<use xlink:href="#f1_1s" transform="matrix(10.4,0,0,10.4,537.6,885.3)" />
<use xlink:href="#f4_o" transform="matrix(12,0,0,12,638.6,1041.1)" />
</g>
<g fill="#0080FF" fill-opacity="0.5" >
<use xlink:href="#f0_1c" transform="matrix(35.3,0,0,35.3,169.4,1052.8)" />
<use xlink:href="#f0_21" transform="matrix(35.3,0,0,35.3,199.4,1052.8)" />
<use xlink:href="#f0_1x" transform="matrix(35.3,0,0,35.3,229.4,1052.8)" />
<use xlink:href="#f0_2e" transform="matrix(35.3,0,0,35.3,259.4,1052.8)" />
<use xlink:href="#f0_2a" transform="matrix(35.3,0,0,35.3,277.3,1052.8)" />
<use xlink:href="#f0_17" transform="matrix(35.3,0,0,35.3,307.3,1052.8)" />
<use xlink:href="#f0_2h" transform="matrix(35.3,0,0,35.3,349.3,1052.8)" />
<use xlink:href="#f0_25" transform="matrix(35.3,0,0,35.3,379.3,1052.8)" />
<use xlink:href="#f0_20" transform="matrix(35.3,0,0,35.3,391.3,1052.8)" />
<use xlink:href="#f0_21" transform="matrix(35.3,0,0,35.3,421.3,1052.8)" />
<use xlink:href="#f0_i" transform="matrix(35.3,0,0,35.3,451.2,1052.8)" />
<use xlink:href="#f0_25" transform="matrix(35.3,0,0,35.3,466.2,1052.8)" />
<use xlink:href="#f0_2a" transform="matrix(35.3,0,0,35.3,478.2,1052.8)" />
</g>
<defs>
<path d="M593,101c0,0,182,0,279,112c0,0,98,113,98,318c0,0,0,196,-98,308c0,0,-98,112,-277,112c0,0,-181,0,-279,-110c0,0,-99,-111,-99,-310c0,0,0,-198,100,-314c0,0,99,-116,276,-116Zm0,-115c0,0,-162,0,-279,65c0,0,-118,66,-180,190c0,0,-62,124,-62,290c0,0,0,252,138,394c0,0,138,142,385,142c0,0,160,0,278,-64c0,0,118,-64,180,-185c0,0,62,-122,62,-287c0,0,0,-165,-63,-289c0,0,-63,-124,-181,-190c0,0,-118,-66,-278,-66Z" 
id="f0_1f"
transform="scale(0.001,-0.001)" />

<path d="M106,0V635c0,0,0,141,-5,173H228c0,0,1,-4,2,-21c0,0,1,-16,2,-37c0,0,1,-22,2,-81h2c0,0,47,84,108,119c0,0,60,34,151,34c0,0,132,0,194,-66c0,0,61,-66,61,-218V0H615V512c0,0,0,80,-15,124c0,0,-16,44,-50,63c0,0,-35,20,-101,20c0,0,-97,0,-153,-67c0,0,-56,-66,-56,-184V0Z" 
id="f0_2a"
transform="scale(0.001,-0.001)" />

<path d="M103,0V1107H237V0Z" 
id="f0_28"
transform="scale(0.001,-0.001)" />

<path d="M102,0V808H236V0Zm0,979v128H236V979Z" 
id="f0_25"
transform="scale(0.001,-0.001)" />

<path d="M643,478c0,0,-11,128,-65,187c0,0,-54,59,-154,59c0,0,-98,0,-155,-66c0,0,-57,-65,-62,-180ZM431,-14c0,0,-179,0,-272,106c0,0,-94,107,-94,317c0,0,0,200,94,307c0,0,93,106,267,106c0,0,356,0,356,-429V375H206c0,0,0,-138,57,-213c0,0,58,-75,168,-75c0,0,87,0,140,35c0,0,53,35,71,88L760,177c0,0,-72,-191,-329,-191Z" 
id="f0_21"
transform="scale(0.001,-0.001)" />

<path d="M17,0L304,415L31,808H179L380,493L580,808H730L457,417L747,0H598L380,331L162,0Z" 
id="f0_2k"
transform="scale(0.001,-0.001)" />

<path d="M339,87c0,0,74,0,132,34c0,0,57,33,90,91c0,0,34,59,34,121v66L448,396c0,0,-95,-2,-144,-19c0,0,-49,-18,-75,-55c0,0,-26,-38,-26,-98c0,0,0,-65,35,-101c0,0,36,-36,101,-36ZM309,-14c0,0,-122,0,-183,64c0,0,-61,64,-61,176c0,0,0,125,82,192c0,0,83,67,266,72l182,3v44c0,0,0,98,-42,141c0,0,-42,43,-132,43c0,0,-90,0,-131,-31c0,0,-41,-31,-49,-98L101,604c0,0,34,218,323,218c0,0,153,0,229,-70c0,0,77,-69,77,-202V202c0,0,0,-59,16,-90c0,0,16,-30,60,-30c0,0,19,0,44,5V4C850,4,799,-7,746,-7c0,0,-75,0,-109,38c0,0,-33,40,-38,124h-4C595,155,543,62,475,24c0,0,-68,-38,-166,-38Z" 
id="f0_1x"
transform="scale(0.001,-0.001)" />

<path d="M106,0V635c0,0,0,141,-5,173H228c0,0,1,-4,2,-21c0,0,1,-16,2,-37c0,0,1,-22,2,-81h2c0,0,44,86,100,120c0,0,56,33,136,33c0,0,92,0,145,-36c0,0,54,-37,75,-117h2c0,0,42,82,101,117c0,0,59,36,143,36c0,0,123,0,178,-66c0,0,56,-67,56,-218V0H1039V512c0,0,0,117,-32,162c0,0,-32,45,-116,45c0,0,-88,0,-136,-66c0,0,-49,-65,-49,-185V0H573V512c0,0,0,117,-32,162c0,0,-32,45,-116,45c0,0,-86,0,-136,-66c0,0,-50,-66,-50,-185V0Z" 
id="f0_29"
transform="scale(0.001,-0.001)" />

<path d="M453,84c0,0,100,0,146,74c0,0,46,73,46,247c0,0,0,169,-46,241c0,0,-45,73,-145,73c0,0,-80,0,-125,-34c0,0,-45,-34,-68,-105c0,0,-24,-71,-24,-186c0,0,0,-159,51,-234c0,0,51,-76,165,-76ZM103,-316V643c0,0,0,124,-5,165H228c0,0,1,-3,3,-22c0,0,1,-18,3,-56c0,0,2,-38,2,-52h3c0,0,36,75,94,110c0,0,59,34,156,34c0,0,149,0,223,-100c0,0,74,-100,74,-314c0,0,0,-422,-297,-422c0,0,-187,0,-251,140h-4c0,0,3,-6,3,-126V-316Z" 
id="f0_2c"
transform="scale(0.001,-0.001)" />

<path d="M420,84c0,0,121,0,173,78c0,0,52,77,52,243c0,0,0,167,-50,243c0,0,-50,76,-167,76c0,0,-118,0,-170,-78c0,0,-53,-77,-53,-241c0,0,0,-160,52,-241c0,0,52,-80,163,-80Zm1,-98c0,0,-176,0,-267,107c0,0,-90,108,-90,312c0,0,0,417,362,417c0,0,185,0,272,-102c0,0,88,-101,88,-315c0,0,0,-212,-94,-316C692,89,599,-14,421,-14Z" 
id="f0_2b"
transform="scale(0.001,-0.001)" />

<path d="M278,-11c0,0,-162,0,-162,182V710H23v98h99l39,181h90V808H400V710H251V200c0,0,0,-58,19,-82c0,0,19,-23,66,-23c0,0,27,0,77,10V6c0,0,-66,-17,-135,-17Z" 
id="f0_2g"
transform="scale(0.001,-0.001)" />

<path d="M39,0V0c0,0,0,170,84,277c0,0,85,108,317,236c0,0,113,62,154,115c0,0,41,52,41,134c0,0,0,86,-62,141c0,0,-61,54,-156,54c0,0,-101,0,-158,-68c0,0,-57,-68,-60,-194H67c0,0,-2,178,95,279c0,0,98,101,273,101c0,0,149,0,245,-89c0,0,94,-88,94,-228c0,0,0,-118,-60,-195c0,0,-61,-76,-229,-169C485,394,303,294,237,212c0,0,-28,-36,-46,-81H774V0Z" 
id="f1_l"
transform="scale(0.001,-0.001)" />

<path d="M432,92c0,0,96,0,156,66c0,0,61,65,61,169c0,0,0,103,-61,169c0,0,-60,66,-156,66c0,0,-95,0,-156,-66c0,0,-61,-66,-61,-169c0,0,0,-104,61,-169c0,0,61,-66,156,-66ZM425,-28c0,0,-176,0,-271,135c0,0,-95,136,-95,388c0,0,0,278,103,429c0,0,103,151,293,151c0,0,142,0,226,-77c0,0,84,-76,90,-211H638c0,0,-8,80,-56,123c0,0,-47,43,-127,43c0,0,-125,0,-192,-119c0,0,-58,-102,-64,-278c0,0,100,127,255,127c0,0,152,0,245,-98c0,0,93,-98,93,-258c0,0,0,-161,-101,-259c0,0,-101,-96,-266,-96Z" 
id="f1_p"
transform="scale(0.001,-0.001)" />

<path d="M133,0V162H292V0Z" 
id="f1_h"
transform="scale(0.001,-0.001)" />

<path d="M139,0V1097H287V0Z" 
id="f1_18"
transform="scale(0.001,-0.001)" />

<path d="M132,0V687H22V799H132V935c0,0,0,88,52,133c0,0,52,45,157,45l59,-3V989l-53,2c0,0,-39,0,-60,-24c0,0,-21,-25,-21,-71V799H400V687H266V0Z" 
id="f1_21"
transform="scale(0.001,-0.001)" />

<path d="M17,0L389,412L201,800H376L500,518L742,800H904L554,410L750,0H580L448,303L187,0Z" 
id="f2_2j"
transform="scale(0.001,-0.001)" />

<path d="M60,174V286H832V174Zm0,309V595H832V483Z" 
id="f1_w"
transform="scale(0.001,-0.001)" />

<path d="M354,90c0,0,107,0,192,57c0,0,60,41,87,95c0,0,5,12,11,33c0,0,6,20,11,44l18,88c0,0,-62,-26,-132,-37L414,352c0,0,-84,-11,-131,-56c0,0,-47,-45,-47,-113c0,0,0,-44,31,-69c0,0,31,-24,87,-24ZM306,-20c0,0,-99,0,-156,47c0,0,-57,49,-57,134c0,0,1,117,81,198c0,0,80,81,211,98l164,20l70,10c0,0,35,6,59,30c0,0,23,24,31,66l1,2c0,0,13,64,-25,94c0,0,-39,31,-132,31c0,0,-83,0,-137,-37c0,0,-54,-37,-84,-114H210c0,0,46,137,138,201c0,0,92,63,245,63c0,0,149,0,211,-59c0,0,45,-44,44,-116c0,0,1,-30,-6,-63L749,136c0,0,-4,-19,6,-32c0,0,10,-12,30,-12c0,0,6,0,19,1c0,0,12,2,25,5L809,1c0,0,-19,-6,-43,-11c0,0,-22,-5,-36,-5c0,0,-73,0,-100,43c0,0,-16,27,-17,75C612,102,594,85,573,69c0,0,-120,-89,-267,-89Z" 
id="f2_1w"
transform="scale(0.001,-0.001)" />

<path d="M748,462c0,0,3,31,3,63c0,0,0,86,-45,132c0,0,-46,45,-134,45c0,0,-100,0,-180,-85c0,0,-58,-63,-90,-155ZM419,-20c0,0,-136,0,-213,73c0,0,-77,74,-78,206c0,0,0,25,4,58c0,0,4,32,10,63c0,0,44,208,169,326c0,0,125,117,305,117c0,0,128,0,198,-73c0,0,71,-73,71,-207c0,0,1,-100,-24,-189H278l-4,-25c0,0,-3,-30,-3,-55c0,0,0,-90,44,-134c0,0,44,-45,133,-45c0,0,87,0,156,44c0,0,68,45,95,117H830C830,256,782,126,674,52c0,0,-108,-72,-255,-72Z" 
id="f2_20"
transform="scale(0.001,-0.001)" />

<path d="M281,-9c0,0,-86,0,-115,42c0,0,-30,43,-11,139L263,688H157l23,112H285l47,224H467L420,800H548L525,688H398L290,172c0,0,-6,-35,11,-51c0,0,16,-16,58,-16h46L383,0c0,0,-68,-9,-102,-9Z" 
id="f2_2f"
transform="scale(0.001,-0.001)" />

<path d="M365,-315c0,0,-136,187,-199,359c0,0,-62,172,-62,359c0,0,0,186,62,358c0,0,63,172,199,360h92c0,0,-110,-192,-160,-365c0,0,-51,-172,-51,-353c0,0,0,-183,51,-355c0,0,50,-172,160,-363Z" 
id="f1_b"
transform="scale(0.001,-0.001)" />

<path d="M393,-20c0,0,-169,0,-252,65c0,0,-83,67,-92,210H178c0,0,10,-85,61,-123c0,0,50,-38,154,-38c0,0,90,0,136,34c0,0,47,35,47,100c0,0,0,42,-31,64c0,0,-30,21,-123,43L283,368c0,0,-112,27,-160,75c0,0,-48,48,-48,135c0,0,0,112,80,178c0,0,81,66,218,66c0,0,140,0,222,-68c0,0,82,-67,88,-187H557c0,0,-6,67,-55,103c0,0,-48,37,-129,37c0,0,-84,0,-127,-29c0,0,-44,-29,-44,-85c0,0,0,-43,31,-65c0,0,30,-21,121,-43L493,452c0,0,117,-28,167,-78c0,0,49,-49,49,-138c0,0,0,-119,-86,-188c0,0,-85,-68,-230,-68Z" 
id="f1_2e"
transform="scale(0.001,-0.001)" />

<path d="M104,0V799H238V0Zm-2,946v152H239V946Z" 
id="f1_24"
transform="scale(0.001,-0.001)" />

<path d="M99,0V799H226V681l30,39c0,0,87,102,219,102c0,0,132,0,203,-71c0,0,72,-72,72,-204V0H616V502c0,0,0,105,-41,151c0,0,-40,47,-132,47c0,0,-97,0,-154,-73c0,0,-56,-74,-56,-199V0Z" 
id="f1_29"
transform="scale(0.001,-0.001)" />

<path d="M292,-9c0,0,-88,0,-124,38c0,0,-36,39,-36,134V689H22V799H132v224H266V799H392V689H266V163c0,0,0,-27,21,-43c0,0,21,-15,57,-15h48V1C392,1,324,-9,292,-9Z" 
id="f1_2f"
transform="scale(0.001,-0.001)" />

<path d="M0,368V478H849V368Z" 
id="f1_99"
transform="scale(0.001,-0.001)" />

<path d="M394,-20c0,0,-159,0,-253,113c0,0,-95,114,-95,307c0,0,0,193,98,308c0,0,98,114,264,114c0,0,144,0,230,-78c0,0,85,-79,91,-217H600c0,0,-8,86,-59,133c0,0,-52,47,-138,47c0,0,-101,0,-159,-82c0,0,-58,-82,-58,-225c0,0,0,-152,54,-229c0,0,53,-77,159,-77c0,0,79,0,132,50c0,0,52,51,69,143H729C729,287,709,137,623,58c0,0,-86,-78,-229,-78Z" 
id="f1_1y"
transform="scale(0.001,-0.001)" />

<path d="M424,94c0,0,107,0,169,83c0,0,63,83,63,223c0,0,0,140,-63,224c0,0,-62,83,-169,83c0,0,-106,0,-168,-83c0,0,-62,-84,-62,-224c0,0,0,-140,62,-223c0,0,62,-83,168,-83Zm0,-114c0,0,-165,0,-268,115C156,95,54,211,54,400c0,0,0,189,102,306c0,0,103,116,268,116c0,0,168,0,270,-116c0,0,102,-117,102,-306c0,0,0,-189,-102,-305C694,95,592,-20,424,-20Z" 
id="f1_2a"
transform="scale(0.001,-0.001)" />

<path d="M52,-315c0,0,109,192,160,363c0,0,50,173,50,354c0,0,0,183,-50,355c0,0,-51,173,-160,364h92c0,0,135,-188,198,-360c0,0,63,-172,63,-359c0,0,0,-187,-63,-359c0,0,-63,-171,-198,-358Z" 
id="f1_c"
transform="scale(0.001,-0.001)" />

<path d="M99,-328c0,0,-46,0,-76,13l25,123c0,0,29,-14,81,-14c0,0,47,0,76,31c0,0,28,31,106,162L185,800H339L415,141L769,800H918L456,0C456,0,329,-216,269,-272c0,0,-61,-56,-170,-56Z" 
id="f2_2k"
transform="scale(0.001,-0.001)" />

<path d="M390,-1V329H60V441H390V771H503V441H833V329H503V-1Z" 
id="f1_e"
transform="scale(0.001,-0.001)" />

<path d="M99,0V1097H233V690l23,30c0,0,87,102,219,102c0,0,132,0,203,-71c0,0,72,-72,72,-204V0H616V514c0,0,0,99,-38,142c0,0,-38,44,-124,44c0,0,-102,0,-162,-73c0,0,-59,-74,-59,-199V0Z" 
id="f1_23"
transform="scale(0.001,-0.001)" />

<path d="M649,461c0,0,-6,111,-55,172c0,0,-55,69,-160,69c0,0,-106,0,-170,-79c0,0,-50,-62,-60,-162ZM425,-20c0,0,-169,0,-266,106c0,0,-97,107,-97,297c0,0,0,201,102,320c0,0,103,119,276,119c0,0,157,0,253,-116c0,0,96,-117,96,-306l-1,-48H204c0,0,8,-119,54,-182c0,0,57,-76,180,-76c0,0,77,0,134,43c0,0,58,43,70,110H775C775,247,746,116,656,47c0,0,-90,-67,-231,-67Z" 
id="f1_20"
transform="scale(0.001,-0.001)" />

<path d="M248,0L21,799H169L322,163L478,799H627L788,158L950,799h133L857,0H713L548,624L392,0Z" 
id="f1_2i"
transform="scale(0.001,-0.001)" />

<path d="M335,90c0,0,106,0,179,57c0,0,50,41,67,91c0,0,3,10,4,31c0,0,3,21,3,47v87c0,0,-38,-18,-83,-25L381,360c0,0,-97,-13,-142,-45c0,0,-44,-31,-44,-86c0,0,0,-67,36,-103c0,0,37,-36,104,-36ZM309,-20c0,0,-117,0,-186,61c0,0,-68,63,-68,169c0,0,0,108,64,171c0,0,65,64,189,79l183,23c0,0,22,3,42,8c0,0,26,7,40,27c0,0,15,20,15,51v6c0,0,0,64,-49,101c0,0,-48,36,-135,36c0,0,-83,0,-130,-38c0,0,-46,-39,-56,-115H94c0,0,10,131,92,197c0,0,83,66,238,66c0,0,145,0,222,-63c0,0,76,-63,76,-184V137c0,0,0,-21,12,-33c0,0,12,-12,33,-12c0,0,6,0,18,1c0,0,11,2,25,5V1c0,0,-20,-7,-41,-11c0,0,-22,-5,-37,-5c0,0,-76,0,-110,41c0,0,-22,28,-32,79c0,0,-15,-19,-34,-36c0,0,-101,-89,-247,-89Z" 
id="f1_1w"
transform="scale(0.001,-0.001)" />

<path d="M406,0V763H155V870h2c16,0,114,2,178,48c0,0,70,51,104,157H549V0Z" 
id="f1_k"
transform="scale(0.001,-0.001)" />

<path d="M511,373V863L169,383l-7,-10ZM511,0V258H38V383l496,691H646V373H799V258H646V0Z" 
id="f1_n"
transform="scale(0.001,-0.001)" />

<path d="M431,94c0,0,95,0,170,76c0,0,76,77,101,198c0,0,35,167,-1,250c0,0,-37,84,-144,84c0,0,-128,0,-210,-117c0,0,-81,-117,-81,-302c0,0,0,-90,43,-139c0,0,44,-50,122,-50ZM400,-20c0,0,-126,0,-199,79c0,0,-73,80,-73,219c0,0,0,234,122,390c0,0,122,155,305,155c0,0,144,0,209,-127l8,-16l86,417H993L767,0H638l22,108L642,90C642,90,532,-20,400,-20Z" 
id="f2_1z"
transform="scale(0.001,-0.001)" />

<path d="M140,-21c0,0,-26,0,-44,17C96,-4,79,13,79,40c0,0,0,19,6,33c0,0,8,20,34,55c0,0,46,60,64,126c0,0,32,114,41,321H190c0,0,-55,0,-81,-18c0,0,-44,-26,-80,-89H0c0,0,42,129,98,178c0,0,43,37,120,37H743V575H562c0,0,-27,-171,-27,-327c0,0,0,-77,27,-110c0,0,27,-33,67,-33c0,0,33,0,56,22c0,0,24,22,31,65h27C743,192,730,74,686,26c0,0,-44,-47,-98,-47c0,0,-58,0,-97,51c0,0,-39,53,-39,198c0,0,0,91,28,347H286c0,0,-23,-390,-56,-494c0,0,-33,-102,-90,-102Z" 
id="f3_2c"
transform="scale(0.001,-0.001)" />

<path d="M0,214v74H784V214ZM0,494v72H784V494Z" 
id="f3_x"
transform="scale(0.001,-0.001)" />

<path d="M212,0c0,0,51,270,162,500c0,0,109,222,281,422H57v131H799V934C799,934,623,726,515,498C515,498,408,269,362,0Z" 
id="f1_q"
transform="scale(0.001,-0.001)" />

<path d="M411,93c0,0,98,0,158,73c0,0,60,74,60,195c0,0,0,163,-57,252c0,0,-56,88,-161,88c0,0,-113,0,-165,-72c0,0,-52,-72,-52,-229c0,0,0,-147,56,-227c0,0,56,-80,161,-80ZM404,-20c0,0,-161,0,-255,118c0,0,-95,120,-95,324c0,0,0,179,92,290c0,0,91,110,239,110c0,0,147,0,233,-124l11,-15v414H763V0H638V109L621,84C621,84,538,-20,404,-20Z" 
id="f1_1z"
transform="scale(0.001,-0.001)" />

<path d="M0,356v74H784V356Z" 
id="f3_h"
transform="scale(0.001,-0.001)" />

<path d="M0,-123V1415H525v-72H72V-123Z" 
id="f3_4r"
transform="scale(0.001,-0.001)" />

<path d="M478,-123V1343H26v72H550V-123Z" 
id="f3_57"
transform="scale(0.001,-0.001)" />

<path d="M0,-123V1415H72V-51H525v-72Z" 
id="f3_4t"
transform="scale(0.001,-0.001)" />

<path d="M26,-123v72H478V1415h72V-123Z" 
id="f3_59"
transform="scale(0.001,-0.001)" />

<path d="M424,92c0,0,98,0,161,58c0,0,62,58,62,149c0,0,0,92,-62,151c0,0,-63,58,-161,58c0,0,-98,0,-160,-58c0,0,-63,-59,-63,-151c0,0,0,-91,63,-149c0,0,62,-58,160,-58Zm0,533c0,0,82,0,134,46c0,0,52,45,52,118c0,0,0,72,-52,118c0,0,-52,46,-134,46c0,0,-82,0,-134,-46c0,0,-52,-46,-52,-118c0,0,0,-73,52,-119c0,0,52,-45,134,-45Zm0,-653c0,0,-165,0,-265,90C159,62,59,154,59,305c0,0,0,134,100,216c0,0,35,28,78,47c0,0,-27,15,-52,33c0,0,-90,70,-90,185c0,0,0,130,90,209c0,0,91,80,239,80c0,0,148,0,238,-80c0,0,91,-79,91,-209c0,0,0,-115,-91,-185c0,0,-24,-19,-52,-32c0,0,44,-20,79,-49c0,0,101,-81,101,-215c0,0,0,-151,-101,-243c0,0,-100,-90,-265,-90Z" 
id="f1_r"
transform="scale(0.001,-0.001)" />

<path d="M412,-328c0,0,-195,96,-303,284C109,-44,0,142,0,365c0,0,0,232,114,422c0,0,114,191,298,273v-31c0,0,-92,-51,-151,-139c0,0,-59,-88,-88,-223c0,0,-29,-136,-29,-282c0,0,0,-167,27,-301c0,0,26,-133,82,-221c0,0,55,-89,159,-159v-32Z" 
id="f3_c"
transform="scale(0.001,-0.001)" />

<path d="M34,-328v32c0,0,92,50,151,138c0,0,59,88,88,222c0,0,29,135,29,283c0,0,0,165,-27,300c0,0,-26,134,-82,222c0,0,-56,89,-159,160v31c0,0,194,-96,303,-284c0,0,108,-187,108,-410c0,0,0,-232,-114,-422c0,0,-114,-191,-297,-272Z" 
id="f3_d"
transform="scale(0.001,-0.001)" />

<path d="M103,0V1097H237V0Z" 
id="f1_27"
transform="scale(0.001,-0.001)" />

<path d="M418,95c0,0,98,0,158,73c0,0,59,73,59,193c0,0,0,170,-54,254c0,0,-54,85,-163,85c0,0,-113,0,-165,-72c0,0,-52,-71,-52,-227c0,0,0,-147,57,-227c0,0,56,-79,160,-79ZM394,-336c0,0,-136,0,-216,62c0,0,-79,63,-96,182H219c0,0,12,-64,57,-98c0,0,45,-35,116,-35c0,0,116,0,176,73c0,0,61,73,61,211V85l-1,-1C628,84,545,-20,412,-20c0,0,-161,0,-256,118c0,0,-94,120,-94,324c0,0,0,179,93,290c0,0,93,110,244,110c0,0,144,0,228,-124l10,-14V799H763V59c0,0,-1,-201,-91,-298c0,0,-91,-97,-278,-97Z" 
id="f1_22"
transform="scale(0.001,-0.001)" />

<path d="M355,0V355H0v72H355V784h72V427H782V355H427V0Z" 
id="f3_f"
transform="scale(0.001,-0.001)" />

<path d="M419,483c0,0,93,0,152,66c0,0,59,66,59,169c0,0,0,103,-59,169c0,0,-59,65,-152,65c0,0,-94,0,-153,-65c0,0,-59,-66,-59,-169c0,0,0,-103,59,-169c0,0,59,-66,153,-66ZM397,-28c0,0,-143,0,-227,75c0,0,-85,77,-91,211H209c0,0,8,-83,57,-128c0,0,49,-45,131,-45c0,0,121,0,186,135c0,0,48,101,62,265C645,485,545,362,397,362c0,0,-150,0,-241,98c0,0,-91,98,-91,258c0,0,0,160,99,258c0,0,99,98,262,98c0,0,173,0,266,-123c0,0,94,-123,94,-349c0,0,0,-303,-101,-467C685,135,583,-28,397,-28Z" 
id="f1_s"
transform="scale(0.001,-0.001)" />

<path d="M544,127c0,0,160,0,247,110c0,0,87,109,87,311c0,0,0,202,-84,312c0,0,-83,110,-237,110H273V127ZM124,0V1097H575c0,0,209,0,332,-149c0,0,124,-149,124,-400c0,0,0,-251,-127,-399C904,149,778,0,563,0Z" 
id="f1_13"
transform="scale(0.001,-0.001)" />

<path d="M118,0V799H246V662c0,0,17,32,36,58c0,0,76,102,187,102c0,0,19,0,38,-6V679l-27,1c0,0,-109,0,-168,-66c0,0,-60,-65,-60,-186V0Z" 
id="f1_2d"
transform="scale(0.001,-0.001)" />

<path d="M424,-28c0,0,-180,0,-272,86c0,0,-92,87,-100,266H192c0,0,12,-126,66,-180c0,0,55,-54,170,-54c0,0,100,0,163,57c0,0,64,57,64,147c0,0,0,94,-61,149c0,0,-52,48,-135,54c0,0,-38,2,-72,2c0,0,-34,0,-45,-3V613c0,0,17,-3,51,-3c0,0,35,0,68,4c0,0,66,8,106,43c0,0,55,45,55,125c0,0,0,77,-58,125c0,0,-58,48,-148,48c0,0,-96,0,-147,-58c0,0,-51,-59,-56,-175H82c0,0,0,168,89,260c0,0,88,93,250,93c0,0,153,0,247,-77c0,0,94,-76,94,-202c0,0,0,-124,-95,-201c0,0,-18,-15,-39,-27c0,0,39,-17,69,-41c0,0,101,-79,101,-214c0,0,0,-151,-105,-246c0,0,-104,-95,-269,-95Z" 
id="f1_m"
transform="scale(0.001,-0.001)" />

<path d="M424,92c0,0,114,0,170,107c0,0,57,108,56,323c0,0,1,216,-56,324c0,0,-56,107,-170,107c0,0,-112,0,-168,-107c0,0,-56,-108,-57,-324c0,0,1,-215,57,-323c0,0,56,-107,168,-107Zm0,-120c0,0,-176,0,-271,142c0,0,-96,143,-96,408c0,0,0,265,96,409c0,0,95,144,271,144c0,0,178,0,273,-144c0,0,96,-144,96,-409c0,0,0,-265,-96,-408c0,0,-95,-142,-273,-142Z" 
id="f1_j"
transform="scale(0.001,-0.001)" />

<path d="M131,0V1097H891V966H280V631H814V500H280V0Z" 
id="f1_15"
transform="scale(0.001,-0.001)" />

<path d="M133,-224v71c0,0,47,8,65,52c0,0,14,33,17,101H133V163H292V27c0,0,0,-114,-36,-172c0,0,-37,-58,-123,-79Z" 
id="f1_f"
transform="scale(0.001,-0.001)" />

<path d="M62,-123V268c0,0,0,230,56,452c0,0,47,190,134,334c0,0,87,144,204,242c0,0,85,73,194,119l18,-16c0,0,-211,-145,-335,-339c0,0,-98,-156,-149,-374c0,0,-50,-218,-50,-403V-123Z" 
id="f3_4o"
transform="scale(0.001,-0.001)" />

<path d="M617,-123V283c0,0,0,236,-63,459c0,0,-63,223,-188,392c0,0,-108,146,-282,265l17,16c0,0,180,-76,320,-248c0,0,139,-172,204,-417c0,0,64,-245,64,-482V-123Z" 
id="f3_54"
transform="scale(0.001,-0.001)" />

<path d="M751,0L0,371v39L751,783V702L122,392L751,80V0Z" 
id="f3_w"
transform="scale(0.001,-0.001)" />

<path d="M62,-123V1415h72V-123Z" 
id="f3_4p"
transform="scale(0.001,-0.001)" />

<path d="M617,-123V1415h72V-123Z" 
id="f3_55"
transform="scale(0.001,-0.001)" />

<path d="M650,-123c0,0,-180,75,-319,246c0,0,-140,172,-205,418c0,0,-64,245,-64,481v393h72V1007c0,0,0,-236,63,-459c0,0,63,-223,189,-391c0,0,108,-145,282,-265l-18,-15Z" 
id="f3_4q"
transform="scale(0.001,-0.001)" />

<path d="M101,-123l-17,15c0,0,210,144,334,339c0,0,99,156,149,373c0,0,50,218,50,403v408h72V1022c0,0,0,-230,-56,-451c0,0,-48,-191,-134,-335C499,236,412,92,295,-5c0,0,-84,-73,-194,-118Z" 
id="f3_56"
transform="scale(0.001,-0.001)" />

<path d="M187,905l135,216H487L290,905Z" 
id="f1_3e"
transform="scale(0.001,-0.001)" />

<path d="M45,0V81L673,391L45,704v80L795,412V374L45,0Z" 
id="f3_y"
transform="scale(0.001,-0.001)" />

<path d="M250,0L191,800H336L357,162L653,800H797L819,163l296,637h134L855,0H715L685,627L389,0Z" 
id="f2_2i"
transform="scale(0.001,-0.001)" />

<path d="M118,0L283,800H411L380,652c0,0,35,47,69,81c0,0,92,90,197,90c0,0,20,0,38,-5L653,679H604c0,0,-91,0,-164,-61c0,0,-72,-62,-92,-154L253,0Z" 
id="f2_2d"
transform="scale(0.001,-0.001)" />

<path d="M417,-28c0,0,-161,0,-259,79c0,0,-98,81,-109,223H189c0,0,11,-90,72,-139c0,0,61,-49,162,-49c0,0,96,0,158,68c0,0,61,68,61,175c0,0,0,112,-64,178c0,0,-64,66,-173,66c0,0,-59,0,-115,-28c0,0,-55,-29,-84,-73L93,480l77,573H727V922H271L225,629l4,3c0,0,89,60,188,60c0,0,169,0,269,-94c0,0,99,-93,99,-253c0,0,0,-165,-103,-269C682,76,579,-28,417,-28Z" 
id="f1_o"
transform="scale(0.001,-0.001)" />

<path d="M99,0V799H226V680l28,36c0,0,90,106,215,106c0,0,107,0,171,-63c0,0,28,-28,44,-65l21,28c0,0,87,100,208,100c0,0,125,0,194,-68c0,0,68,-68,68,-194V0H1041V515c0,0,0,91,-37,138c0,0,-38,47,-110,47c0,0,-87,0,-139,-68c0,0,-52,-68,-52,-183V0H569V547c0,0,0,75,-34,114c0,0,-34,39,-99,39c0,0,-89,0,-146,-76c0,0,-57,-76,-57,-196V0Z" 
id="f1_28"
transform="scale(0.001,-0.001)" />

<path d="M456,95c0,0,130,0,213,121c0,0,82,120,82,310c0,0,0,85,-44,131c0,0,-44,46,-125,46c0,0,-98,0,-174,-90c0,0,-76,-90,-108,-245c0,0,-26,-126,16,-199c0,0,42,-74,140,-74ZM436,-20c0,0,-132,0,-195,108l-5,7L217,0H89L316,1097H450L365,683l10,11c0,0,120,129,262,129c0,0,121,0,190,-77c0,0,69,-77,69,-211c0,0,0,-234,-134,-395C762,140,629,-20,436,-20Z" 
id="f2_1x"
transform="scale(0.001,-0.001)" />

<path d="M0,0V72H751V0ZM751,166L0,538v38L751,949V868L123,559L751,247V166Z" 
id="f3_2t"
transform="scale(0.001,-0.001)" />

<path d="M436,95c0,0,105,0,160,79c0,0,54,80,54,232c0,0,0,150,-52,222c0,0,-52,72,-161,72c0,0,-112,0,-163,-81c0,0,-51,-82,-51,-258c0,0,0,-127,55,-197c0,0,55,-69,158,-69ZM89,-315V799H216V685l7,10c0,0,86,127,228,127c0,0,156,0,248,-108c0,0,91,-107,91,-291c0,0,0,-208,-92,-326C698,97,606,-20,442,-20c0,0,-135,0,-215,102l-4,6V-315Z" 
id="f1_2b"
transform="scale(0.001,-0.001)" />

<path d="M310,0L12,799H168L383,145L604,799H752L454,0Z" 
id="f1_2h"
transform="scale(0.001,-0.001)" />

<path d="M430,0L30,1098l82,-1l83,1L510,160l314,938l83,-1l82,1L589,0Z" 
id="f1_1l"
transform="scale(0.001,-0.001)" />

<path d="M152,-323c-8,0,-38,1,-63,8v125c0,0,30,-11,77,-12c0,0,45,0,76,37c0,0,30,38,69,140l2,12v1L17,799H170L383,139L600,799H747L443,-25c0,0,-70,-184,-125,-241c0,0,-55,-57,-164,-57c0,0,-1,0,-2,0Z" 
id="f1_2k"
transform="scale(0.001,-0.001)" />

<path d="M650,601c0,0,103,0,151,46c0,0,48,45,48,143c0,0,0,95,-51,139c0,0,-50,44,-159,44H283V601ZM134,0V1097H644c0,0,175,0,266,-76c0,0,91,-75,91,-222c0,0,0,-144,-94,-225c0,0,-24,-20,-52,-36l25,-12c0,0,100,-57,103,-193l6,-200c0,0,2,-50,13,-71c0,0,11,-22,43,-38V1H862c0,0,-5,13,-11,70c0,0,-6,57,-9,126l-3,87c0,0,-3,102,-50,146c0,0,-47,43,-154,43H283V0Z" 
id="f1_1h"
transform="scale(0.001,-0.001)" />

<path d="M90,708v388H201V708Z" 
id="f1_a"
transform="scale(0.001,-0.001)" />

<path d="M375,-20c0,0,-136,0,-203,66c0,0,-68,68,-68,204V799H238V284c0,0,0,-101,38,-146c0,0,39,-44,127,-44c0,0,97,0,153,75c0,0,57,75,57,203V799H747V0H620V122c0,0,-14,-22,-30,-41C590,81,504,-20,375,-20Z" 
id="f1_2g"
transform="scale(0.001,-0.001)" />

<path d="M96,-299V1104H382V995H217V-191H382V-299Z" 
id="f1_1q"
transform="scale(0.001,-0.001)" />

<path d="M42,-299v108H207V995H42v109H329V-299Z" 
id="f1_1s"
transform="scale(0.001,-0.001)" />

<path d="M111,0V1097H325L638,163l311,934h214V0H1019V928L709,0H566L255,925V0Z" 
id="f1_1c"
transform="scale(0.001,-0.001)" />

<path d="M392,0V966H22v131H911V966H541V0Z" 
id="f1_1j"
transform="scale(0.001,-0.001)" />

<path d="M131,0L274,688H168l23,112H296l26,125c0,0,20,98,82,143c0,0,62,46,176,46c0,0,33,0,59,-5L609,990c0,0,0,3,-53,3c0,0,-45,0,-70,-25c0,0,-25,-25,-37,-83L431,800H575L553,688H409L266,0Z" 
id="f2_21"
transform="scale(0.001,-0.001)" />

<path d="M494,385V878L152,385ZM494,0V262H20V385l498,708H628V385H775V262H628V0Z" 
id="f4_o"
transform="scale(0.001,-0.001)" />

<path d="M125,0V1051H268V115H799V0Z" 
id="f0_1c"
transform="scale(0.001,-0.001)" />

<path d="M106,0V620c0,0,0,85,-5,188H228c0,0,6,-138,6,-165h3c0,0,32,103,74,141c0,0,42,38,118,38c0,0,27,0,54,-7V692c0,0,-26,7,-71,7c0,0,-84,0,-128,-72c0,0,-44,-72,-44,-206V0Z" 
id="f0_2e"
transform="scale(0.001,-0.001)" />

<path d="M606,-14c0,0,-164,0,-284,65c0,0,-119,66,-182,189c0,0,-63,123,-63,291c0,0,0,255,137,396c0,0,137,140,386,140c0,0,174,0,283,-59c0,0,109,-59,168,-189L915,779c0,0,-44,90,-123,131c0,0,-79,41,-196,41c0,0,-182,0,-278,-110c0,0,-96,-110,-96,-310c0,0,0,-200,102,-315c0,0,102,-115,282,-115c0,0,103,0,193,31c0,0,89,31,144,85V407H629V526h445V164c0,0,-83,-85,-205,-132c0,0,-121,-46,-263,-46Z" 
id="f0_17"
transform="scale(0.001,-0.001)" />

<path d="M355,-14c0,0,-133,0,-194,65c0,0,-62,66,-62,219V808H234V296c0,0,0,-80,16,-124c0,0,16,-44,50,-64c0,0,34,-19,101,-19c0,0,97,0,153,66c0,0,55,67,55,185V808H744V172c0,0,0,-141,4,-172H621c0,0,0,4,-1,20c0,0,-1,17,-2,38c0,0,-1,21,-3,80h-2C613,138,567,55,506,20c0,0,-61,-34,-151,-34Z" 
id="f0_2h"
transform="scale(0.001,-0.001)" />

<path d="M395,89c0,0,115,0,166,79c0,0,51,79,51,246c0,0,0,160,-51,235c0,0,-51,75,-164,75c0,0,-102,0,-147,-75c0,0,-45,-75,-45,-244c0,0,0,-170,45,-243c0,0,45,-73,145,-73ZM361,-14c0,0,-153,0,-225,102c0,0,-72,103,-72,312c0,0,0,422,297,422c0,0,92,0,153,-33c0,0,61,-34,98,-107h2l-2,90v335H747V166c0,0,0,-126,4,-166H623c0,0,-2,12,-5,55c0,0,-3,44,-3,75h-3c0,0,-37,-78,-98,-111c0,0,-62,-33,-153,-33Z" 
id="f0_20"
transform="scale(0.001,-0.001)" />

<path d="M140,0V163H285V0Z" 
id="f0_i"
transform="scale(0.001,-0.001)" />


</defs>
</svg>