<?xml version="1.0" encoding="UTF-8" standalone="no"?>
<!DOCTYPE svg PUBLIC "-//W3C//DTD SVG 1.1//EN"
"http://www.w3.org/Graphics/SVG/1.1/DTD/svg11.dtd">
<svg viewBox="0 0 677 1056" version="1.1" xmlns="http://www.w3.org/2000/svg" xmlns:xlink="http://www.w3.org/1999/xlink">
<defs>
<style type="text/css"><![CDATA[
.g0_43{
fill: none;
stroke: #000000;
stroke-width: 0.7656;
stroke-linecap: round;
stroke-linejoin: miter;
}
.g1_43{
fill: none;
stroke: #000000;
stroke-width: 0.76217777;
stroke-linecap: round;
stroke-linejoin: miter;
}
.g2_43{
fill: none;
stroke: #000000;
stroke-width: 0.15277778;
stroke-linecap: round;
stroke-linejoin: miter;
}
.g3_43{
}
.g4_43{
fill: none;
stroke: #000000;
stroke-width: 0.7638889;
stroke-linecap: round;
stroke-linejoin: miter;
}
.g5_43{
fill: none;
stroke: #000000;
stroke-width: 0.76584446;
stroke-linecap: round;
stroke-linejoin: miter;
}
.g6_43{
fill: none;
stroke: #000000;
stroke-width: 0.76828885;
stroke-linecap: round;
stroke-linejoin: miter;
}
.g7_43{
fill: none;
stroke: #000000;
stroke-width: 0.76511115;
stroke-linecap: round;
stroke-linejoin: miter;
}
]]></style>
</defs>
<g fill="#D4D4D4" fill-opacity="0.56" >
<use xlink:href="#f0_1f" transform="matrix(50.9,-50.9,50.9,50.9,65.9,924.1)" />
<use xlink:href="#f0_2a" transform="matrix(50.9,-50.9,50.9,50.9,126.4,863.6)" />
<use xlink:href="#f0_28" transform="matrix(50.9,-50.9,50.9,50.9,169.6,820.3)" />
<use xlink:href="#f0_25" transform="matrix(50.9,-50.9,50.9,50.9,186.9,803.1)" />
<use xlink:href="#f0_2a" transform="matrix(50.9,-50.9,50.9,50.9,204.2,785.8)" />
<use xlink:href="#f0_21" transform="matrix(50.9,-50.9,50.9,50.9,247.4,742.5)" />
<use xlink:href="#f0_2k" transform="matrix(50.9,-50.9,50.9,50.9,290.7,699.3)" />
<use xlink:href="#f0_1x" transform="matrix(50.9,-50.9,50.9,50.9,329.6,660.4)" />
<use xlink:href="#f0_29" transform="matrix(50.9,-50.9,50.9,50.9,372.8,617.2)" />
<use xlink:href="#f0_2c" transform="matrix(50.9,-50.9,50.9,50.9,437.6,552.4)" />
<use xlink:href="#f0_2b" transform="matrix(50.9,-50.9,50.9,50.9,480.8,509.1)" />
<use xlink:href="#f0_25" transform="matrix(50.9,-50.9,50.9,50.9,524.1,465.9)" />
<use xlink:href="#f0_2a" transform="matrix(50.9,-50.9,50.9,50.9,541.3,448.6)" />
<use xlink:href="#f0_2g" transform="matrix(50.9,-50.9,50.9,50.9,584.6,405.4)" />
</g>
<g fill="#000000" >
<use xlink:href="#f1_l" transform="matrix(10.4,0,0,10.4,41.2,96.6)" />
<use xlink:href="#f1_o" transform="matrix(10.4,0,0,10.4,50.1,96.6)" />
<use xlink:href="#f1_h" transform="matrix(10.4,0,0,10.4,59.2,96.6)" />
</g>
<path d="M85,92.2h28.5m18.7,0h19.3" class="g0_43" />
<g fill="#000000" >
<use xlink:href="#f1_l" transform="matrix(6.9,0,0,6.9,96.1,78.9)" />
<use xlink:href="#f1_n" transform="matrix(6.9,0,0,6.9,240.1,89.2)" />
<use xlink:href="#f1_l" transform="matrix(6.9,0,0,6.9,104.4,102.7)" />
<use xlink:href="#f1_k" transform="matrix(10.4,0,0,10.4,138,86.1)" />
<use xlink:href="#f1_1y" transform="matrix(10.4,0,0,10.4,156.1,96.4)" />
<use xlink:href="#f1_2a" transform="matrix(10.4,0,0,10.4,164,96.4)" />
<use xlink:href="#f1_2e" transform="matrix(10.4,0,0,10.4,173.1,96.4)" />
<use xlink:href="#f1_20" transform="matrix(10.4,0,0,10.4,181,96.4)" />
<use xlink:href="#f1_1y" transform="matrix(10.4,0,0,10.4,190.1,96.4)" />
<use xlink:href="#f1_2e" transform="matrix(10.4,0,0,10.4,214.4,96.4)" />
<use xlink:href="#f1_20" transform="matrix(10.4,0,0,10.4,222.4,96.4)" />
<use xlink:href="#f1_1y" transform="matrix(10.4,0,0,10.4,231.5,96.4)" />
<use xlink:href="#f1_h" transform="matrix(10.4,0,0,10.4,257,96.4)" />
<use xlink:href="#f1_m" transform="matrix(10.4,0,0,10.4,132.8,108.7)" />
<use xlink:href="#f2_1z" transform="matrix(10.4,0,0,10.4,85.4,86.1)" />
<use xlink:href="#f2_2k" transform="matrix(10.4,0,0,10.4,103.2,86.1)" />
<use xlink:href="#f2_1w" transform="matrix(10.4,0,0,10.4,141.6,108.7)" />
<use xlink:href="#f2_1z" transform="matrix(10.4,0,0,10.4,86.2,109.8)" />
<use xlink:href="#f2_2j" transform="matrix(10.4,0,0,10.4,95.2,109.8)" />
<use xlink:href="#f3_x" transform="matrix(10.4,0,0,10.4,118.5,96.4)" />
<use xlink:href="#f3_2d" transform="matrix(10.4,0,0,10.4,202.2,96.4)" />
<use xlink:href="#f3_2d" transform="matrix(10.4,0,0,10.4,249.5,96.4)" />
<use xlink:href="#f1_l" transform="matrix(10.4,0,0,10.4,316.2,96.6)" />
<use xlink:href="#f1_q" transform="matrix(10.4,0,0,10.4,325.1,96.6)" />
<use xlink:href="#f1_h" transform="matrix(10.4,0,0,10.4,334.2,96.6)" />
</g>
<path d="M360,90.8h19.7" class="g1_43" />
<path d="M399.8,106.7l1.6,-1l3.9,7.4l4.2,-19.7h39.9" class="g2_43" />
<path fill-rule="evenodd" d="M399.7,106.5l2.1,-1.4l3.5,6.2l4,-18.2h40.1v.7H409.8l-4.1,19.3h-.8L401,106.3l-1,.7l-.3,-.5Z" class="g3_43" />
<path d="M398.5,90.8h52.2" class="g1_43" />
<path d="M477.2,104.7l1.6,-.9l4,6.3L487,93.4h11.4" class="g2_43" />
<path fill-rule="evenodd" d="M477.1,104.5l2.1,-1.2l3.6,5.3l3.9,-15.5h11.7v.7H487.2l-4.1,16.3h-.7l-4,-5.8l-1,.6l-.3,-.4Z" class="g3_43" />
<path d="M499.8,104.7l1.5,-.9l4,6.3l4.2,-16.7h32" class="g2_43" />
<path fill-rule="evenodd" d="M499.7,104.5l2.1,-1.2l3.5,5.3l4,-15.5h32.2v.7H509.8l-4.1,16.3h-.8L501,104.3l-1.1,.6l-.2,-.4Z" class="g3_43" />
<path d="M467.1,90.8h75.6" class="g1_43" />
<g fill="#000000" >
<use xlink:href="#f1_l" transform="matrix(7,0,0,6.9,441.1,104.7)" />
<use xlink:href="#f1_k" transform="matrix(10.4,0,0,10.4,420.7,84.7)" />
<use xlink:href="#f1_k" transform="matrix(10.4,0,0,10.4,501,84.7)" />
<use xlink:href="#f1_h" transform="matrix(10.4,0,0,10.4,544.2,95)" />
<use xlink:href="#f1_l" transform="matrix(10.4,0,0,10.4,467.7,108.9)" />
<use xlink:href="#f1_k" transform="matrix(10.4,0,0,10.4,508.6,108.9)" />
<use xlink:href="#f1_k" transform="matrix(10.4,0,0,10.4,408.6,111.9)" />
<use xlink:href="#f2_1z" transform="matrix(10.4,0,0,10.4,359.8,84.7)" />
<use xlink:href="#f2_2k" transform="matrix(10.4,0,0,10.4,368.8,84.7)" />
<use xlink:href="#f2_1z" transform="matrix(10.4,0,0,10.4,359.8,107.3)" />
<use xlink:href="#f2_2j" transform="matrix(10.4,0,0,10.4,368.8,107.3)" />
<use xlink:href="#f2_2j" transform="matrix(10.4,0,0,10.4,487.6,108.9)" />
<use xlink:href="#f2_2j" transform="matrix(10.4,0,0,10.4,530.6,108.9)" />
<use xlink:href="#f2_2j" transform="matrix(10.4,0,0,10.4,430.6,111.9)" />
<use xlink:href="#f3_x" transform="matrix(10.4,0,0,10.4,384.5,95)" />
<use xlink:href="#f3_h" transform="matrix(10.4,0,0,10.4,454.6,95)" />
<use xlink:href="#f3_h" transform="matrix(10.4,0,0,10.4,518.4,108.9)" />
<use xlink:href="#f3_h" transform="matrix(10.4,0,0,10.4,418.4,111.9)" />
<use xlink:href="#f1_l" transform="matrix(10.4,0,0,10.4,41.2,165.9)" />
<use xlink:href="#f1_r" transform="matrix(10.4,0,0,10.4,50.1,165.9)" />
<use xlink:href="#f1_h" transform="matrix(10.4,0,0,10.4,59.2,165.9)" />
</g>
<path d="M121.6,161.6h44.5" class="g4_43" />
<g fill="#000000" >
<use xlink:href="#f3_c" transform="matrix(10.6,0,0,14.2,181.9,166.6)" />
<use xlink:href="#f3_d" transform="matrix(10.6,0,0,14.2,220.8,166.5)" />
</g>
<path d="M244.2,161.6h34.1" class="g4_43" />
<g fill="#000000" >
<use xlink:href="#f3_c" transform="matrix(10.6,0,0,14.2,316.4,166.6)" />
<use xlink:href="#f3_d" transform="matrix(10.6,0,0,14.2,355.3,166.5)" />
<use xlink:href="#f1_27" transform="matrix(7,0,0,7.1,94.4,158.7)" />
<use xlink:href="#f1_2a" transform="matrix(7,0,0,7.1,96.8,158.7)" />
<use xlink:href="#f1_22" transform="matrix(7,0,0,7.1,102.8,158.7)" />
<use xlink:href="#f1_l" transform="matrix(10.7,0,0,10.6,122,155.4)" />
<use xlink:href="#f1_27" transform="matrix(10.7,0,0,10.6,131.9,155.4)" />
<use xlink:href="#f1_2a" transform="matrix(10.7,0,0,10.6,135.5,155.4)" />
<use xlink:href="#f1_22" transform="matrix(10.7,0,0,10.6,144.6,155.4)" />
<use xlink:href="#f1_k" transform="matrix(10.7,0,0,10.6,257.5,155.4)" />
<use xlink:href="#f1_27" transform="matrix(10.7,0,0,10.6,186.8,165.9)" />
<use xlink:href="#f1_2a" transform="matrix(10.7,0,0,10.6,190.4,165.9)" />
<use xlink:href="#f1_22" transform="matrix(10.7,0,0,10.6,199.5,165.9)" />
<use xlink:href="#f1_27" transform="matrix(10.7,0,0,10.6,293.9,165.9)" />
<use xlink:href="#f1_2a" transform="matrix(10.7,0,0,10.6,297.5,165.9)" />
<use xlink:href="#f1_22" transform="matrix(10.7,0,0,10.6,306.6,165.9)" />
<use xlink:href="#f1_27" transform="matrix(10.7,0,0,10.6,321.9,165.9)" />
<use xlink:href="#f1_2a" transform="matrix(10.7,0,0,10.6,325.5,165.9)" />
<use xlink:href="#f1_22" transform="matrix(10.7,0,0,10.6,334.6,165.9)" />
<use xlink:href="#f1_h" transform="matrix(10.7,0,0,10.6,368.9,165.9)" />
<use xlink:href="#f1_27" transform="matrix(10.7,0,0,10.6,244.3,178.4)" />
<use xlink:href="#f1_2a" transform="matrix(10.7,0,0,10.6,247.9,178.4)" />
<use xlink:href="#f1_22" transform="matrix(10.7,0,0,10.6,256.9,178.4)" />
<use xlink:href="#f2_2j" transform="matrix(7,0,0,7.1,226,156.4)" />
<use xlink:href="#f2_2j" transform="matrix(7,0,0,7.1,110.3,158.7)" />
<use xlink:href="#f2_2j" transform="matrix(10.7,0,0,10.6,155.1,155.4)" />
<use xlink:href="#f2_2j" transform="matrix(10.7,0,0,10.6,84.3,165.9)" />
<use xlink:href="#f2_2j" transform="matrix(10.7,0,0,10.6,210,165.9)" />
<use xlink:href="#f2_2j" transform="matrix(10.7,0,0,10.6,344.8,165.9)" />
<use xlink:href="#f2_2j" transform="matrix(10.7,0,0,10.6,138.7,178.4)" />
<use xlink:href="#f2_2j" transform="matrix(10.7,0,0,10.6,267.5,178.4)" />
<use xlink:href="#f3_4r" transform="matrix(10.6,0,0,10.6,237,156.5)" />
<use xlink:href="#f3_57" transform="matrix(10.6,0,0,10.6,360.9,156.5)" />
<use xlink:href="#f3_f" transform="matrix(10.6,0,0,10.6,169.7,165.9)" />
<use xlink:href="#f3_f" transform="matrix(10.6,0,0,10.6,282.1,165.9)" />
<use xlink:href="#f3_4s" transform="matrix(10.6,0,0,10.6,237,172)" />
<use xlink:href="#f3_58" transform="matrix(10.6,0,0,10.6,360.9,172)" />
<use xlink:href="#f3_4t" transform="matrix(10.6,0,0,10.6,237,181.9)" />
<use xlink:href="#f3_59" transform="matrix(10.6,0,0,10.6,360.9,181.9)" />
<use xlink:href="#f1_l" transform="matrix(10.4,0,0,10.4,41.2,227.1)" />
<use xlink:href="#f1_s" transform="matrix(10.4,0,0,10.4,50.1,227.1)" />
<use xlink:href="#f1_h" transform="matrix(10.4,0,0,10.4,59.2,227.1)" />
</g>
<path d="M85,223.4h19.7m184.5,0h46.2" class="g4_43" />
<g fill="#000000" >
<use xlink:href="#f1_k" transform="matrix(10.7,0,0,10.6,308.5,217.2)" />
<use xlink:href="#f1_h" transform="matrix(10.7,0,0,10.6,148.1,227.7)" />
<use xlink:href="#f1_27" transform="matrix(10.7,0,0,10.6,176.6,227.7)" />
<use xlink:href="#f1_2a" transform="matrix(10.7,0,0,10.6,180.2,227.7)" />
<use xlink:href="#f1_22" transform="matrix(10.7,0,0,10.6,189.3,227.7)" />
<use xlink:href="#f1_k" transform="matrix(10.7,0,0,10.6,218.7,227.7)" />
<use xlink:href="#f1_27" transform="matrix(10.7,0,0,10.6,240,227.7)" />
<use xlink:href="#f1_2a" transform="matrix(10.7,0,0,10.6,243.6,227.7)" />
<use xlink:href="#f1_22" transform="matrix(10.7,0,0,10.6,252.7,227.7)" />
<use xlink:href="#f1_h" transform="matrix(10.7,0,0,10.6,345.4,227.7)" />
<use xlink:href="#f1_27" transform="matrix(10.7,0,0,10.6,301.5,240.2)" />
<use xlink:href="#f1_2a" transform="matrix(10.7,0,0,10.6,305.1,240.2)" />
<use xlink:href="#f1_22" transform="matrix(10.7,0,0,10.6,314.1,240.2)" />
<use xlink:href="#f2_2j" transform="matrix(5,0,0,5,140.7,215.6)" />
<use xlink:href="#f2_2j" transform="matrix(7,0,0,7.1,133.6,220.4)" />
<use xlink:href="#f2_2j" transform="matrix(7,0,0,7.1,166.7,220.4)" />
<use xlink:href="#f2_1z" transform="matrix(10.7,0,0,10.6,84.6,217.2)" />
<use xlink:href="#f2_2k" transform="matrix(10.7,0,0,10.6,93.6,217.2)" />
<use xlink:href="#f2_2j" transform="matrix(10.7,0,0,10.6,123,227.7)" />
<use xlink:href="#f2_2j" transform="matrix(10.7,0,0,10.6,156,227.7)" />
<use xlink:href="#f2_2j" transform="matrix(10.7,0,0,10.6,199.8,227.7)" />
<use xlink:href="#f2_2j" transform="matrix(10.7,0,0,10.6,263,227.7)" />
<use xlink:href="#f2_1z" transform="matrix(10.7,0,0,10.6,84.6,240.2)" />
<use xlink:href="#f2_2j" transform="matrix(10.7,0,0,10.6,93.6,240.2)" />
<use xlink:href="#f2_2j" transform="matrix(10.7,0,0,10.6,290.1,240.2)" />
<use xlink:href="#f2_2j" transform="matrix(10.7,0,0,10.6,324.7,240.2)" />
<use xlink:href="#f3_4o" transform="matrix(10.6,0,0,10.6,211.7,218.2)" />
<use xlink:href="#f3_54" transform="matrix(10.6,0,0,10.6,336.1,218.2)" />
<use xlink:href="#f3_x" transform="matrix(10.6,0,0,10.6,109.3,227.7)" />
<use xlink:href="#f3_f" transform="matrix(10.6,0,0,10.6,228.1,227.7)" />
<use xlink:href="#f3_f" transform="matrix(10.6,0,0,10.6,276.4,227.7)" />
<use xlink:href="#f3_4p" transform="matrix(10.6,0,0,10.6,211.7,233.3)" />
<use xlink:href="#f3_55" transform="matrix(10.6,0,0,10.6,336.1,233.3)" />
<use xlink:href="#f3_4q" transform="matrix(10.6,0,0,10.6,211.7,240.2)" />
<use xlink:href="#f3_56" transform="matrix(10.6,0,0,10.6,336.1,240.2)" />
<use xlink:href="#f1_m" transform="matrix(10.4,0,0,10.4,41.2,293.1)" />
<use xlink:href="#f1_j" transform="matrix(10.4,0,0,10.4,50.1,293.1)" />
<use xlink:href="#f1_h" transform="matrix(10.4,0,0,10.4,59.2,293.1)" />
</g>
<path d="M85,284.2h19.8m18.6,0H246.3" class="g5_43" />
<g fill="#000000" >
<use xlink:href="#f1_2f" transform="matrix(10.5,0,0,10.5,136.6,278.1)" />
<use xlink:href="#f1_1w" transform="matrix(10.5,0,0,10.5,141,278.1)" />
<use xlink:href="#f1_29" transform="matrix(10.5,0,0,10.5,150,278.1)" />
<use xlink:href="#f1_27" transform="matrix(10.5,0,0,10.5,185.2,278.1)" />
<use xlink:href="#f1_2a" transform="matrix(10.5,0,0,10.5,188.7,278.1)" />
<use xlink:href="#f1_22" transform="matrix(10.5,0,0,10.5,197.7,278.1)" />
<use xlink:href="#f1_1y" transform="matrix(10.5,0,0,10.5,208.1,278.1)" />
<use xlink:href="#f1_2a" transform="matrix(10.5,0,0,10.5,216.1,278.1)" />
<use xlink:href="#f1_2e" transform="matrix(10.5,0,0,10.5,225.1,278.1)" />
<use xlink:href="#f1_2f" transform="matrix(10.5,0,0,10.5,136.5,300.9)" />
<use xlink:href="#f1_1w" transform="matrix(10.5,0,0,10.5,140.9,300.9)" />
<use xlink:href="#f1_29" transform="matrix(10.5,0,0,10.5,149.9,300.9)" />
<use xlink:href="#f1_27" transform="matrix(10.5,0,0,10.5,185.3,300.9)" />
<use xlink:href="#f1_2a" transform="matrix(10.5,0,0,10.5,188.9,300.9)" />
<use xlink:href="#f1_22" transform="matrix(10.5,0,0,10.5,197.8,300.9)" />
<use xlink:href="#f1_1y" transform="matrix(10.5,0,0,10.5,208.2,300.9)" />
<use xlink:href="#f1_2a" transform="matrix(10.5,0,0,10.5,216.3,300.9)" />
<use xlink:href="#f1_2e" transform="matrix(10.5,0,0,10.5,225.2,300.9)" />
<use xlink:href="#f3_f" transform="matrix(10.5,0,0,10.5,173.5,278.1)" />
<use xlink:href="#f3_x" transform="matrix(10.5,0,0,10.5,109.7,288.5)" />
<use xlink:href="#f3_f" transform="matrix(10.5,0,0,10.5,173.7,300.9)" />
<use xlink:href="#f2_1z" transform="matrix(10.5,0,0,10.5,85,278.1)" />
<use xlink:href="#f2_2k" transform="matrix(10.5,0,0,10.5,94,278.1)" />
<use xlink:href="#f2_2k" transform="matrix(10.5,0,0,10.5,124.3,278.1)" />
<use xlink:href="#f2_2j" transform="matrix(10.5,0,0,10.5,160.4,278.1)" />
<use xlink:href="#f2_2k" transform="matrix(10.5,0,0,10.5,235.4,278.1)" />
<use xlink:href="#f2_1z" transform="matrix(10.5,0,0,10.5,85.2,300.9)" />
<use xlink:href="#f2_2j" transform="matrix(10.5,0,0,10.5,94.1,300.9)" />
<use xlink:href="#f2_2j" transform="matrix(10.5,0,0,10.5,124.5,300.9)" />
<use xlink:href="#f2_2k" transform="matrix(10.5,0,0,10.5,160.3,300.9)" />
<use xlink:href="#f2_2j" transform="matrix(10.5,0,0,10.5,235.5,300.9)" />
<use xlink:href="#f1_m" transform="matrix(10.4,0,0,10.4,41.2,355.1)" />
<use xlink:href="#f1_k" transform="matrix(10.4,0,0,10.4,50.1,355.1)" />
<use xlink:href="#f1_h" transform="matrix(10.4,0,0,10.4,59.2,355.1)" />
</g>
<path d="M85,348.3h19.9m30.3,0h10.1" class="g6_43" />
<g fill="#000000" >
<use xlink:href="#f1_k" transform="matrix(10.4,0,0,10.4,136.5,342.2)" />
<use xlink:href="#f1_h" transform="matrix(10.4,0,0,10.4,146.9,352.5)" />
<use xlink:href="#f1_l" transform="matrix(10.4,0,0,10.4,135.9,364.8)" />
<use xlink:href="#f2_1z" transform="matrix(10.4,0,0,10.4,85,342.2)" />
<use xlink:href="#f2_2k" transform="matrix(10.4,0,0,10.4,94.1,342.2)" />
<use xlink:href="#f2_1z" transform="matrix(10.4,0,0,10.4,85,364.8)" />
<use xlink:href="#f2_2j" transform="matrix(10.4,0,0,10.4,94.1,364.8)" />
<use xlink:href="#f3_x" transform="matrix(10.4,0,0,10.4,109.8,352.5)" />
<use xlink:href="#f3_h" transform="matrix(10.4,0,0,10.4,123.7,352.5)" />
<use xlink:href="#f4_17" transform="matrix(10.4,0,0,10.4,81.9,415.8)" />
<use xlink:href="#f4_24" transform="matrix(10.4,0,0,10.4,93.4,415.8)" />
<use xlink:href="#f4_29" transform="matrix(10.4,0,0,10.4,97.9,415.8)" />
<use xlink:href="#f4_2f" transform="matrix(10.4,0,0,10.4,107.6,415.8)" />
<use xlink:href="#f4_h" transform="matrix(10.4,0,0,10.4,112.9,415.8)" />
<use xlink:href="#f4_t" transform="matrix(10.4,0,0,10.4,124,415.8)" />
</g>
<path d="M161,411.7h10.9m45.3,0h11m69.5,0h10.7" class="g4_43" />
<g fill="#000000" >
<use xlink:href="#f1_2e" transform="matrix(10.7,0,0,10.6,138.5,416)" />
<use xlink:href="#f1_24" transform="matrix(10.7,0,0,10.6,146.7,416)" />
<use xlink:href="#f1_29" transform="matrix(10.7,0,0,10.6,150.3,416)" />
<use xlink:href="#f1_1y" transform="matrix(10.7,0,0,10.6,190.1,416)" />
<use xlink:href="#f1_2a" transform="matrix(10.7,0,0,10.6,198.2,416)" />
<use xlink:href="#f1_2e" transform="matrix(10.7,0,0,10.6,207.3,416)" />
<use xlink:href="#f1_f" transform="matrix(10.7,0,0,10.6,310.7,416)" />
<use xlink:href="#f1_h" transform="matrix(10.7,0,0,10.6,336.6,416)" />
<use xlink:href="#f1_l" transform="matrix(10.7,0,0,10.6,162.2,428.5)" />
<use xlink:href="#f1_l" transform="matrix(10.7,0,0,10.6,218.5,428.5)" />
<use xlink:href="#f1_l" transform="matrix(10.7,0,0,10.6,299,428.5)" />
<use xlink:href="#f2_2j" transform="matrix(10.7,0,0,10.6,162.5,405.5)" />
<use xlink:href="#f2_2j" transform="matrix(10.7,0,0,10.6,218.8,405.5)" />
<use xlink:href="#f2_21" transform="matrix(10.7,0,0,10.6,237.9,416)" />
<use xlink:href="#f2_2a" transform="matrix(10.7,0,0,10.6,242.4,416)" />
<use xlink:href="#f2_2d" transform="matrix(10.7,0,0,10.6,251.5,416)" />
<use xlink:href="#f2_2j" transform="matrix(10.7,0,0,10.6,263.9,416)" />
<use xlink:href="#f3_2c" transform="matrix(10.6,0,0,10.6,299,405.5)" />
<use xlink:href="#f3_4o" transform="matrix(10.6,0,0,10.6,289.4,406.5)" />
<use xlink:href="#f3_54" transform="matrix(10.6,0,0,10.6,327.4,406.5)" />
<use xlink:href="#f3_y" transform="matrix(10.6,0,0,10.6,176.9,416)" />
<use xlink:href="#f3_40" transform="matrix(10.6,0,0,10.6,276.6,416)" />
<use xlink:href="#f3_2c" transform="matrix(10.6,0,0,10.6,318.3,416)" />
<use xlink:href="#f3_4p" transform="matrix(10.6,0,0,10.6,289.4,418.3)" />
<use xlink:href="#f3_55" transform="matrix(10.6,0,0,10.6,327.4,418.3)" />
<use xlink:href="#f3_4q" transform="matrix(10.6,0,0,10.6,289.4,425)" />
<use xlink:href="#f3_56" transform="matrix(10.6,0,0,10.6,327.4,425)" />
<use xlink:href="#f1_m" transform="matrix(10.4,0,0,10.4,41.2,489.3)" />
<use xlink:href="#f1_m" transform="matrix(10.4,0,0,10.4,50.1,489.3)" />
<use xlink:href="#f1_h" transform="matrix(10.4,0,0,10.4,59.2,489.3)" />
<use xlink:href="#f3_c" transform="matrix(10.4,0,0,13.8,84.2,489.4)" />
<use xlink:href="#f3_d" transform="matrix(10.4,0,0,13.8,122.9,489.4)" />
</g>
<path d="M161.5,484.6H173" class="g7_43" />
<g fill="#000000" >
<use xlink:href="#f3_c" transform="matrix(10.4,0,0,13.8,212.4,478.4)" />
<use xlink:href="#f3_d" transform="matrix(10.4,0,0,13.8,251.1,478.4)" />
</g>
<path d="M189.6,484.6h67.1" class="g7_43" />
<g fill="#000000" >
<use xlink:href="#f1_27" transform="matrix(7,0,0,7,127.8,479.5)" />
<use xlink:href="#f1_2a" transform="matrix(7,0,0,7,130.2,479.5)" />
<use xlink:href="#f1_22" transform="matrix(7,0,0,7,136.1,479.5)" />
<use xlink:href="#f1_27" transform="matrix(10.4,0,0,10.4,189.7,477.9)" />
<use xlink:href="#f1_2a" transform="matrix(10.4,0,0,10.4,193.3,477.9)" />
<use xlink:href="#f1_22" transform="matrix(10.4,0,0,10.4,202.3,477.9)" />
<use xlink:href="#f1_27" transform="matrix(10.4,0,0,10.4,217.6,477.9)" />
<use xlink:href="#f1_2a" transform="matrix(10.4,0,0,10.4,221.1,477.9)" />
<use xlink:href="#f1_22" transform="matrix(10.4,0,0,10.4,230.2,477.9)" />
<use xlink:href="#f1_k" transform="matrix(10.4,0,0,10.4,163.6,478.5)" />
<use xlink:href="#f1_27" transform="matrix(10.4,0,0,10.4,89.3,488.9)" />
<use xlink:href="#f1_2a" transform="matrix(10.4,0,0,10.4,92.9,488.9)" />
<use xlink:href="#f1_22" transform="matrix(10.4,0,0,10.4,101.9,488.9)" />
<use xlink:href="#f1_f" transform="matrix(10.4,0,0,10.4,265.1,488.9)" />
<use xlink:href="#f1_k" transform="matrix(10.4,0,0,10.4,304.6,488.9)" />
<use xlink:href="#f3_4r" transform="matrix(10.5,0,0,10.4,154.4,477.5)" />
<use xlink:href="#f3_57" transform="matrix(10.5,0,0,10.4,258,477.5)" />
<use xlink:href="#f3_f" transform="matrix(10.5,0,0,10.4,176.7,488.9)" />
<use xlink:href="#f3_y" transform="matrix(10.5,0,0,10.4,292.6,488.9)" />
<use xlink:href="#f3_4s" transform="matrix(10.5,0,0,10.4,154.4,492.9)" />
<use xlink:href="#f3_58" transform="matrix(10.5,0,0,10.4,258,492.9)" />
<use xlink:href="#f3_4t" transform="matrix(10.5,0,0,10.4,154.4,501.2)" />
<use xlink:href="#f3_59" transform="matrix(10.5,0,0,10.4,258,501.2)" />
<use xlink:href="#f2_2j" transform="matrix(7,0,0,7,143.7,479.5)" />
<use xlink:href="#f2_2j" transform="matrix(10.4,0,0,10.4,240.7,477.9)" />
<use xlink:href="#f2_2j" transform="matrix(10.4,0,0,10.4,112.5,488.9)" />
<use xlink:href="#f2_2j" transform="matrix(10.4,0,0,10.4,278.4,488.9)" />
<use xlink:href="#f2_2j" transform="matrix(10.4,0,0,10.4,162.4,501.2)" />
<use xlink:href="#f2_2j" transform="matrix(10.4,0,0,10.4,218.3,501.2)" />
<use xlink:href="#f1_m" transform="matrix(10.4,0,0,10.4,41.2,539)" />
<use xlink:href="#f1_o" transform="matrix(10.4,0,0,10.4,50.1,539)" />
<use xlink:href="#f1_h" transform="matrix(10.4,0,0,10.4,59.2,539)" />
<use xlink:href="#f1_2e" transform="matrix(10.4,0,0,10.4,81.9,539)" />
<use xlink:href="#f1_20" transform="matrix(10.4,0,0,10.4,89.9,539)" />
<use xlink:href="#f1_1y" transform="matrix(10.4,0,0,10.4,98.8,539)" />
<use xlink:href="#f1_l" transform="matrix(7.4,0,0,7.4,106.8,533.6)" />
<use xlink:href="#f2_2k" transform="matrix(10.4,0,0,10.4,113.1,539)" />
<use xlink:href="#f1_2f" transform="matrix(10.4,0,0,10.4,128.7,539)" />
<use xlink:href="#f1_1w" transform="matrix(10.4,0,0,10.4,133.1,539)" />
<use xlink:href="#f1_29" transform="matrix(10.4,0,0,10.4,142,539)" />
<use xlink:href="#f1_2k" transform="matrix(10.4,0,0,10.4,150.8,539)" />
<use xlink:href="#f1_h" transform="matrix(10.4,0,0,10.4,158.8,539)" />
<use xlink:href="#f5_q" transform="matrix(12,0,0,12,638.6,1041.1)" />
</g>
<g fill="#0080FF" fill-opacity="0.5" >
<use xlink:href="#f0_1c" transform="matrix(35.3,0,0,35.3,169.4,1052.8)" />
<use xlink:href="#f0_21" transform="matrix(35.3,0,0,35.3,199.4,1052.8)" />
<use xlink:href="#f0_1x" transform="matrix(35.3,0,0,35.3,229.4,1052.8)" />
<use xlink:href="#f0_2e" transform="matrix(35.3,0,0,35.3,259.4,1052.8)" />
<use xlink:href="#f0_2a" transform="matrix(35.3,0,0,35.3,277.3,1052.8)" />
<use xlink:href="#f0_17" transform="matrix(35.3,0,0,35.3,307.3,1052.8)" />
<use xlink:href="#f0_2h" transform="matrix(35.3,0,0,35.3,349.3,1052.8)" />
<use xlink:href="#f0_25" transform="matrix(35.3,0,0,35.3,379.3,1052.8)" />
<use xlink:href="#f0_20" transform="matrix(35.3,0,0,35.3,391.3,1052.8)" />
<use xlink:href="#f0_21" transform="matrix(35.3,0,0,35.3,421.3,1052.8)" />
<use xlink:href="#f0_i" transform="matrix(35.3,0,0,35.3,451.2,1052.8)" />
<use xlink:href="#f0_25" transform="matrix(35.3,0,0,35.3,466.2,1052.8)" />
<use xlink:href="#f0_2a" transform="matrix(35.3,0,0,35.3,478.2,1052.8)" />
</g>
<defs>
<path d="M593,101c0,0,182,0,279,112c0,0,98,113,98,318c0,0,0,196,-98,308c0,0,-98,112,-277,112c0,0,-181,0,-279,-110c0,0,-99,-111,-99,-310c0,0,0,-198,100,-314c0,0,99,-116,276,-116Zm0,-115c0,0,-162,0,-279,65c0,0,-118,66,-180,190c0,0,-62,124,-62,290c0,0,0,252,138,394c0,0,138,142,385,142c0,0,160,0,278,-64c0,0,118,-64,180,-185c0,0,62,-122,62,-287c0,0,0,-165,-63,-289c0,0,-63,-124,-181,-190c0,0,-118,-66,-278,-66Z" 
id="f0_1f"
transform="scale(0.001,-0.001)" />

<path d="M106,0V635c0,0,0,141,-5,173H228c0,0,1,-4,2,-21c0,0,1,-16,2,-37c0,0,1,-22,2,-81h2c0,0,47,84,108,119c0,0,60,34,151,34c0,0,132,0,194,-66c0,0,61,-66,61,-218V0H615V512c0,0,0,80,-15,124c0,0,-16,44,-50,63c0,0,-35,20,-101,20c0,0,-97,0,-153,-67c0,0,-56,-66,-56,-184V0Z" 
id="f0_2a"
transform="scale(0.001,-0.001)" />

<path d="M103,0V1107H237V0Z" 
id="f0_28"
transform="scale(0.001,-0.001)" />

<path d="M102,0V808H236V0Zm0,979v128H236V979Z" 
id="f0_25"
transform="scale(0.001,-0.001)" />

<path d="M643,478c0,0,-11,128,-65,187c0,0,-54,59,-154,59c0,0,-98,0,-155,-66c0,0,-57,-65,-62,-180ZM431,-14c0,0,-179,0,-272,106c0,0,-94,107,-94,317c0,0,0,200,94,307c0,0,93,106,267,106c0,0,356,0,356,-429V375H206c0,0,0,-138,57,-213c0,0,58,-75,168,-75c0,0,87,0,140,35c0,0,53,35,71,88L760,177c0,0,-72,-191,-329,-191Z" 
id="f0_21"
transform="scale(0.001,-0.001)" />

<path d="M17,0L304,415L31,808H179L380,493L580,808H730L457,417L747,0H598L380,331L162,0Z" 
id="f0_2k"
transform="scale(0.001,-0.001)" />

<path d="M339,87c0,0,74,0,132,34c0,0,57,33,90,91c0,0,34,59,34,121v66L448,396c0,0,-95,-2,-144,-19c0,0,-49,-18,-75,-55c0,0,-26,-38,-26,-98c0,0,0,-65,35,-101c0,0,36,-36,101,-36ZM309,-14c0,0,-122,0,-183,64c0,0,-61,64,-61,176c0,0,0,125,82,192c0,0,83,67,266,72l182,3v44c0,0,0,98,-42,141c0,0,-42,43,-132,43c0,0,-90,0,-131,-31c0,0,-41,-31,-49,-98L101,604c0,0,34,218,323,218c0,0,153,0,229,-70c0,0,77,-69,77,-202V202c0,0,0,-59,16,-90c0,0,16,-30,60,-30c0,0,19,0,44,5V4C850,4,799,-7,746,-7c0,0,-75,0,-109,38c0,0,-33,40,-38,124h-4C595,155,543,62,475,24c0,0,-68,-38,-166,-38Z" 
id="f0_1x"
transform="scale(0.001,-0.001)" />

<path d="M106,0V635c0,0,0,141,-5,173H228c0,0,1,-4,2,-21c0,0,1,-16,2,-37c0,0,1,-22,2,-81h2c0,0,44,86,100,120c0,0,56,33,136,33c0,0,92,0,145,-36c0,0,54,-37,75,-117h2c0,0,42,82,101,117c0,0,59,36,143,36c0,0,123,0,178,-66c0,0,56,-67,56,-218V0H1039V512c0,0,0,117,-32,162c0,0,-32,45,-116,45c0,0,-88,0,-136,-66c0,0,-49,-65,-49,-185V0H573V512c0,0,0,117,-32,162c0,0,-32,45,-116,45c0,0,-86,0,-136,-66c0,0,-50,-66,-50,-185V0Z" 
id="f0_29"
transform="scale(0.001,-0.001)" />

<path d="M453,84c0,0,100,0,146,74c0,0,46,73,46,247c0,0,0,169,-46,241c0,0,-45,73,-145,73c0,0,-80,0,-125,-34c0,0,-45,-34,-68,-105c0,0,-24,-71,-24,-186c0,0,0,-159,51,-234c0,0,51,-76,165,-76ZM103,-316V643c0,0,0,124,-5,165H228c0,0,1,-3,3,-22c0,0,1,-18,3,-56c0,0,2,-38,2,-52h3c0,0,36,75,94,110c0,0,59,34,156,34c0,0,149,0,223,-100c0,0,74,-100,74,-314c0,0,0,-422,-297,-422c0,0,-187,0,-251,140h-4c0,0,3,-6,3,-126V-316Z" 
id="f0_2c"
transform="scale(0.001,-0.001)" />

<path d="M420,84c0,0,121,0,173,78c0,0,52,77,52,243c0,0,0,167,-50,243c0,0,-50,76,-167,76c0,0,-118,0,-170,-78c0,0,-53,-77,-53,-241c0,0,0,-160,52,-241c0,0,52,-80,163,-80Zm1,-98c0,0,-176,0,-267,107c0,0,-90,108,-90,312c0,0,0,417,362,417c0,0,185,0,272,-102c0,0,88,-101,88,-315c0,0,0,-212,-94,-316C692,89,599,-14,421,-14Z" 
id="f0_2b"
transform="scale(0.001,-0.001)" />

<path d="M278,-11c0,0,-162,0,-162,182V710H23v98h99l39,181h90V808H400V710H251V200c0,0,0,-58,19,-82c0,0,19,-23,66,-23c0,0,27,0,77,10V6c0,0,-66,-17,-135,-17Z" 
id="f0_2g"
transform="scale(0.001,-0.001)" />

<path d="M39,0V0c0,0,0,170,84,277c0,0,85,108,317,236c0,0,113,62,154,115c0,0,41,52,41,134c0,0,0,86,-62,141c0,0,-61,54,-156,54c0,0,-101,0,-158,-68c0,0,-57,-68,-60,-194H67c0,0,-2,178,95,279c0,0,98,101,273,101c0,0,149,0,245,-89c0,0,94,-88,94,-228c0,0,0,-118,-60,-195c0,0,-61,-76,-229,-169C485,394,303,294,237,212c0,0,-28,-36,-46,-81H774V0Z" 
id="f1_l"
transform="scale(0.001,-0.001)" />

<path d="M417,-28c0,0,-161,0,-259,79c0,0,-98,81,-109,223H189c0,0,11,-90,72,-139c0,0,61,-49,162,-49c0,0,96,0,158,68c0,0,61,68,61,175c0,0,0,112,-64,178c0,0,-64,66,-173,66c0,0,-59,0,-115,-28c0,0,-55,-29,-84,-73L93,480l77,573H727V922H271L225,629l4,3c0,0,89,60,188,60c0,0,169,0,269,-94c0,0,99,-93,99,-253c0,0,0,-165,-103,-269C682,76,579,-28,417,-28Z" 
id="f1_o"
transform="scale(0.001,-0.001)" />

<path d="M133,0V162H292V0Z" 
id="f1_h"
transform="scale(0.001,-0.001)" />

<path d="M511,373V863L169,383l-7,-10ZM511,0V258H38V383l496,691H646V373H799V258H646V0Z" 
id="f1_n"
transform="scale(0.001,-0.001)" />

<path d="M406,0V763H155V870h2c16,0,114,2,178,48c0,0,70,51,104,157H549V0Z" 
id="f1_k"
transform="scale(0.001,-0.001)" />

<path d="M394,-20c0,0,-159,0,-253,113c0,0,-95,114,-95,307c0,0,0,193,98,308c0,0,98,114,264,114c0,0,144,0,230,-78c0,0,85,-79,91,-217H600c0,0,-8,86,-59,133c0,0,-52,47,-138,47c0,0,-101,0,-159,-82c0,0,-58,-82,-58,-225c0,0,0,-152,54,-229c0,0,53,-77,159,-77c0,0,79,0,132,50c0,0,52,51,69,143H729C729,287,709,137,623,58c0,0,-86,-78,-229,-78Z" 
id="f1_1y"
transform="scale(0.001,-0.001)" />

<path d="M424,94c0,0,107,0,169,83c0,0,63,83,63,223c0,0,0,140,-63,224c0,0,-62,83,-169,83c0,0,-106,0,-168,-83c0,0,-62,-84,-62,-224c0,0,0,-140,62,-223c0,0,62,-83,168,-83Zm0,-114c0,0,-165,0,-268,115C156,95,54,211,54,400c0,0,0,189,102,306c0,0,103,116,268,116c0,0,168,0,270,-116c0,0,102,-117,102,-306c0,0,0,-189,-102,-305C694,95,592,-20,424,-20Z" 
id="f1_2a"
transform="scale(0.001,-0.001)" />

<path d="M393,-20c0,0,-169,0,-252,65c0,0,-83,67,-92,210H178c0,0,10,-85,61,-123c0,0,50,-38,154,-38c0,0,90,0,136,34c0,0,47,35,47,100c0,0,0,42,-31,64c0,0,-30,21,-123,43L283,368c0,0,-112,27,-160,75c0,0,-48,48,-48,135c0,0,0,112,80,178c0,0,81,66,218,66c0,0,140,0,222,-68c0,0,82,-67,88,-187H557c0,0,-6,67,-55,103c0,0,-48,37,-129,37c0,0,-84,0,-127,-29c0,0,-44,-29,-44,-85c0,0,0,-43,31,-65c0,0,30,-21,121,-43L493,452c0,0,117,-28,167,-78c0,0,49,-49,49,-138c0,0,0,-119,-86,-188c0,0,-85,-68,-230,-68Z" 
id="f1_2e"
transform="scale(0.001,-0.001)" />

<path d="M649,461c0,0,-6,111,-55,172c0,0,-55,69,-160,69c0,0,-106,0,-170,-79c0,0,-50,-62,-60,-162ZM425,-20c0,0,-169,0,-266,106c0,0,-97,107,-97,297c0,0,0,201,102,320c0,0,103,119,276,119c0,0,157,0,253,-116c0,0,96,-117,96,-306l-1,-48H204c0,0,8,-119,54,-182c0,0,57,-76,180,-76c0,0,77,0,134,43c0,0,58,43,70,110H775C775,247,746,116,656,47c0,0,-90,-67,-231,-67Z" 
id="f1_20"
transform="scale(0.001,-0.001)" />

<path d="M424,-28c0,0,-180,0,-272,86c0,0,-92,87,-100,266H192c0,0,12,-126,66,-180c0,0,55,-54,170,-54c0,0,100,0,163,57c0,0,64,57,64,147c0,0,0,94,-61,149c0,0,-52,48,-135,54c0,0,-38,2,-72,2c0,0,-34,0,-45,-3V613c0,0,17,-3,51,-3c0,0,35,0,68,4c0,0,66,8,106,43c0,0,55,45,55,125c0,0,0,77,-58,125c0,0,-58,48,-148,48c0,0,-96,0,-147,-58c0,0,-51,-59,-56,-175H82c0,0,0,168,89,260c0,0,88,93,250,93c0,0,153,0,247,-77c0,0,94,-76,94,-202c0,0,0,-124,-95,-201c0,0,-18,-15,-39,-27c0,0,39,-17,69,-41c0,0,101,-79,101,-214c0,0,0,-151,-105,-246c0,0,-104,-95,-269,-95Z" 
id="f1_m"
transform="scale(0.001,-0.001)" />

<path d="M431,94c0,0,95,0,170,76c0,0,76,77,101,198c0,0,35,167,-1,250c0,0,-37,84,-144,84c0,0,-128,0,-210,-117c0,0,-81,-117,-81,-302c0,0,0,-90,43,-139c0,0,44,-50,122,-50ZM400,-20c0,0,-126,0,-199,79c0,0,-73,80,-73,219c0,0,0,234,122,390c0,0,122,155,305,155c0,0,144,0,209,-127l8,-16l86,417H993L767,0H638l22,108L642,90C642,90,532,-20,400,-20Z" 
id="f2_1z"
transform="scale(0.001,-0.001)" />

<path d="M99,-328c0,0,-46,0,-76,13l25,123c0,0,29,-14,81,-14c0,0,47,0,76,31c0,0,28,31,106,162L185,800H339L415,141L769,800H918L456,0C456,0,329,-216,269,-272c0,0,-61,-56,-170,-56Z" 
id="f2_2k"
transform="scale(0.001,-0.001)" />

<path d="M354,90c0,0,107,0,192,57c0,0,60,41,87,95c0,0,5,12,11,33c0,0,6,20,11,44l18,88c0,0,-62,-26,-132,-37L414,352c0,0,-84,-11,-131,-56c0,0,-47,-45,-47,-113c0,0,0,-44,31,-69c0,0,31,-24,87,-24ZM306,-20c0,0,-99,0,-156,47c0,0,-57,49,-57,134c0,0,1,117,81,198c0,0,80,81,211,98l164,20l70,10c0,0,35,6,59,30c0,0,23,24,31,66l1,2c0,0,13,64,-25,94c0,0,-39,31,-132,31c0,0,-83,0,-137,-37c0,0,-54,-37,-84,-114H210c0,0,46,137,138,201c0,0,92,63,245,63c0,0,149,0,211,-59c0,0,45,-44,44,-116c0,0,1,-30,-6,-63L749,136c0,0,-4,-19,6,-32c0,0,10,-12,30,-12c0,0,6,0,19,1c0,0,12,2,25,5L809,1c0,0,-19,-6,-43,-11c0,0,-22,-5,-36,-5c0,0,-73,0,-100,43c0,0,-16,27,-17,75C612,102,594,85,573,69c0,0,-120,-89,-267,-89Z" 
id="f2_1w"
transform="scale(0.001,-0.001)" />

<path d="M17,0L389,412L201,800H376L500,518L742,800H904L554,410L750,0H580L448,303L187,0Z" 
id="f2_2j"
transform="scale(0.001,-0.001)" />

<path d="M0,214v74H784V214ZM0,494v72H784V494Z" 
id="f3_x"
transform="scale(0.001,-0.001)" />

<path d="M338,28c0,0,48,0,91,45c0,0,43,45,65,144c0,0,22,99,26,276H143c0,0,3,-133,20,-239c0,0,13,-80,44,-140c0,0,19,-36,54,-61c0,0,36,-25,77,-25ZM522,543c0,0,-1,194,-37,312c0,0,-29,90,-76,129c0,0,-34,28,-79,28c0,0,-51,0,-93,-39c0,0,-43,-40,-65,-132c0,0,-22,-93,-29,-298ZM329,-21c0,0,-68,0,-124,31c0,0,-56,33,-99,95c0,0,-43,62,-66,131C40,236,0,356,0,489c0,0,0,294,119,453c0,0,91,119,217,119c0,0,122,0,209,-115c0,0,121,-160,121,-436c0,0,0,-263,-119,-415C547,95,455,-21,329,-21Z" 
id="f3_2d"
transform="scale(0.001,-0.001)" />

<path d="M212,0c0,0,51,270,162,500c0,0,109,222,281,422H57v131H799V934C799,934,623,726,515,498C515,498,408,269,362,0Z" 
id="f1_q"
transform="scale(0.001,-0.001)" />

<path d="M0,356v74H784V356Z" 
id="f3_h"
transform="scale(0.001,-0.001)" />

<path d="M424,92c0,0,98,0,161,58c0,0,62,58,62,149c0,0,0,92,-62,151c0,0,-63,58,-161,58c0,0,-98,0,-160,-58c0,0,-63,-59,-63,-151c0,0,0,-91,63,-149c0,0,62,-58,160,-58Zm0,533c0,0,82,0,134,46c0,0,52,45,52,118c0,0,0,72,-52,118c0,0,-52,46,-134,46c0,0,-82,0,-134,-46c0,0,-52,-46,-52,-118c0,0,0,-73,52,-119c0,0,52,-45,134,-45Zm0,-653c0,0,-165,0,-265,90C159,62,59,154,59,305c0,0,0,134,100,216c0,0,35,28,78,47c0,0,-27,15,-52,33c0,0,-90,70,-90,185c0,0,0,130,90,209c0,0,91,80,239,80c0,0,148,0,238,-80c0,0,91,-79,91,-209c0,0,0,-115,-91,-185c0,0,-24,-19,-52,-32c0,0,44,-20,79,-49c0,0,101,-81,101,-215c0,0,0,-151,-101,-243c0,0,-100,-90,-265,-90Z" 
id="f1_r"
transform="scale(0.001,-0.001)" />

<path d="M412,-328c0,0,-195,96,-303,284C109,-44,0,142,0,365c0,0,0,232,114,422c0,0,114,191,298,273v-31c0,0,-92,-51,-151,-139c0,0,-59,-88,-88,-223c0,0,-29,-136,-29,-282c0,0,0,-167,27,-301c0,0,26,-133,82,-221c0,0,55,-89,159,-159v-32Z" 
id="f3_c"
transform="scale(0.001,-0.001)" />

<path d="M34,-328v32c0,0,92,50,151,138c0,0,59,88,88,222c0,0,29,135,29,283c0,0,0,165,-27,300c0,0,-26,134,-82,222c0,0,-56,89,-159,160v31c0,0,194,-96,303,-284c0,0,108,-187,108,-410c0,0,0,-232,-114,-422c0,0,-114,-191,-297,-272Z" 
id="f3_d"
transform="scale(0.001,-0.001)" />

<path d="M103,0V1097H237V0Z" 
id="f1_27"
transform="scale(0.001,-0.001)" />

<path d="M418,95c0,0,98,0,158,73c0,0,59,73,59,193c0,0,0,170,-54,254c0,0,-54,85,-163,85c0,0,-113,0,-165,-72c0,0,-52,-71,-52,-227c0,0,0,-147,57,-227c0,0,56,-79,160,-79ZM394,-336c0,0,-136,0,-216,62c0,0,-79,63,-96,182H219c0,0,12,-64,57,-98c0,0,45,-35,116,-35c0,0,116,0,176,73c0,0,61,73,61,211V85l-1,-1C628,84,545,-20,412,-20c0,0,-161,0,-256,118c0,0,-94,120,-94,324c0,0,0,179,93,290c0,0,93,110,244,110c0,0,144,0,228,-124l10,-14V799H763V59c0,0,-1,-201,-91,-298c0,0,-91,-97,-278,-97Z" 
id="f1_22"
transform="scale(0.001,-0.001)" />

<path d="M0,-123V1415H525v-72H72V-123Z" 
id="f3_4r"
transform="scale(0.001,-0.001)" />

<path d="M478,-123V1343H26v72H550V-123Z" 
id="f3_57"
transform="scale(0.001,-0.001)" />

<path d="M355,0V355H0v72H355V784h72V427H782V355H427V0Z" 
id="f3_f"
transform="scale(0.001,-0.001)" />

<path d="M0,-123V1415H72V-123Z" 
id="f3_4s"
transform="scale(0.001,-0.001)" />

<path d="M0,-123V1415H72V-123Z" 
id="f3_58"
transform="scale(0.001,-0.001)" />

<path d="M0,-123V1415H72V-51H525v-72Z" 
id="f3_4t"
transform="scale(0.001,-0.001)" />

<path d="M26,-123v72H478V1415h72V-123Z" 
id="f3_59"
transform="scale(0.001,-0.001)" />

<path d="M419,483c0,0,93,0,152,66c0,0,59,66,59,169c0,0,0,103,-59,169c0,0,-59,65,-152,65c0,0,-94,0,-153,-65c0,0,-59,-66,-59,-169c0,0,0,-103,59,-169c0,0,59,-66,153,-66ZM397,-28c0,0,-143,0,-227,75c0,0,-85,77,-91,211H209c0,0,8,-83,57,-128c0,0,49,-45,131,-45c0,0,121,0,186,135c0,0,48,101,62,265C645,485,545,362,397,362c0,0,-150,0,-241,98c0,0,-91,98,-91,258c0,0,0,160,99,258c0,0,99,98,262,98c0,0,173,0,266,-123c0,0,94,-123,94,-349c0,0,0,-303,-101,-467C685,135,583,-28,397,-28Z" 
id="f1_s"
transform="scale(0.001,-0.001)" />

<path d="M62,-123V268c0,0,0,230,56,452c0,0,47,190,134,334c0,0,87,144,204,242c0,0,85,73,194,119l18,-16c0,0,-211,-145,-335,-339c0,0,-98,-156,-149,-374c0,0,-50,-218,-50,-403V-123Z" 
id="f3_4o"
transform="scale(0.001,-0.001)" />

<path d="M617,-123V283c0,0,0,236,-63,459c0,0,-63,223,-188,392c0,0,-108,146,-282,265l17,16c0,0,180,-76,320,-248c0,0,139,-172,204,-417c0,0,64,-245,64,-482V-123Z" 
id="f3_54"
transform="scale(0.001,-0.001)" />

<path d="M62,-123V1415h72V-123Z" 
id="f3_4p"
transform="scale(0.001,-0.001)" />

<path d="M617,-123V1415h72V-123Z" 
id="f3_55"
transform="scale(0.001,-0.001)" />

<path d="M650,-123c0,0,-180,75,-319,246c0,0,-140,172,-205,418c0,0,-64,245,-64,481v393h72V1007c0,0,0,-236,63,-459c0,0,63,-223,189,-391c0,0,108,-145,282,-265l-18,-15Z" 
id="f3_4q"
transform="scale(0.001,-0.001)" />

<path d="M101,-123l-17,15c0,0,210,144,334,339c0,0,99,156,149,373c0,0,50,218,50,403v408h72V1022c0,0,0,-230,-56,-451c0,0,-48,-191,-134,-335C499,236,412,92,295,-5c0,0,-84,-73,-194,-118Z" 
id="f3_56"
transform="scale(0.001,-0.001)" />

<path d="M424,92c0,0,114,0,170,107c0,0,57,108,56,323c0,0,1,216,-56,324c0,0,-56,107,-170,107c0,0,-112,0,-168,-107c0,0,-56,-108,-57,-324c0,0,1,-215,57,-323c0,0,56,-107,168,-107Zm0,-120c0,0,-176,0,-271,142c0,0,-96,143,-96,408c0,0,0,265,96,409c0,0,95,144,271,144c0,0,178,0,273,-144c0,0,96,-144,96,-409c0,0,0,-265,-96,-408c0,0,-95,-142,-273,-142Z" 
id="f1_j"
transform="scale(0.001,-0.001)" />

<path d="M292,-9c0,0,-88,0,-124,38c0,0,-36,39,-36,134V689H22V799H132v224H266V799H392V689H266V163c0,0,0,-27,21,-43c0,0,21,-15,57,-15h48V1C392,1,324,-9,292,-9Z" 
id="f1_2f"
transform="scale(0.001,-0.001)" />

<path d="M335,90c0,0,106,0,179,57c0,0,50,41,67,91c0,0,3,10,4,31c0,0,3,21,3,47v87c0,0,-38,-18,-83,-25L381,360c0,0,-97,-13,-142,-45c0,0,-44,-31,-44,-86c0,0,0,-67,36,-103c0,0,37,-36,104,-36ZM309,-20c0,0,-117,0,-186,61c0,0,-68,63,-68,169c0,0,0,108,64,171c0,0,65,64,189,79l183,23c0,0,22,3,42,8c0,0,26,7,40,27c0,0,15,20,15,51v6c0,0,0,64,-49,101c0,0,-48,36,-135,36c0,0,-83,0,-130,-38c0,0,-46,-39,-56,-115H94c0,0,10,131,92,197c0,0,83,66,238,66c0,0,145,0,222,-63c0,0,76,-63,76,-184V137c0,0,0,-21,12,-33c0,0,12,-12,33,-12c0,0,6,0,18,1c0,0,11,2,25,5V1c0,0,-20,-7,-41,-11c0,0,-22,-5,-37,-5c0,0,-76,0,-110,41c0,0,-22,28,-32,79c0,0,-15,-19,-34,-36c0,0,-101,-89,-247,-89Z" 
id="f1_1w"
transform="scale(0.001,-0.001)" />

<path d="M99,0V799H226V681l30,39c0,0,87,102,219,102c0,0,132,0,203,-71c0,0,72,-72,72,-204V0H616V502c0,0,0,105,-41,151c0,0,-40,47,-132,47c0,0,-97,0,-154,-73c0,0,-56,-74,-56,-199V0Z" 
id="f1_29"
transform="scale(0.001,-0.001)" />

<path d="M109,0V1097H337V685H767v412H995V0H767V497H337V0Z" 
id="f4_17"
transform="scale(0.001,-0.001)" />

<path d="M108,0V812H322V0Zm-2,906v199H324V906Z" 
id="f4_24"
transform="scale(0.001,-0.001)" />

<path d="M99,0V812H302V691c0,0,13,22,28,41c0,0,79,101,230,101c0,0,128,0,201,-76c0,0,73,-76,73,-211V0H620V507c0,0,0,76,-33,112c0,0,-32,36,-99,36c0,0,-85,0,-130,-51c0,0,-45,-50,-45,-146V0Z" 
id="f4_29"
transform="scale(0.001,-0.001)" />

<path d="M340,-8c0,0,-114,0,-163,40c0,0,-50,41,-50,133V662H15V812H127v219H341V812H472V662H341V201c0,0,0,-29,17,-38c0,0,17,-8,70,-8h44V-3c0,0,-54,-5,-132,-5Z" 
id="f4_2f"
transform="scale(0.001,-0.001)" />

<path d="M98,0V222H327V0Z" 
id="f4_h"
transform="scale(0.001,-0.001)" />

<path d="M140,0V222H369V0Zm0,561V783H369V561Z" 
id="f4_t"
transform="scale(0.001,-0.001)" />

<path d="M104,0V799H238V0Zm-2,946v152H239V946Z" 
id="f1_24"
transform="scale(0.001,-0.001)" />

<path d="M133,-224v71c0,0,47,8,65,52c0,0,14,33,17,101H133V163H292V27c0,0,0,-114,-36,-172c0,0,-37,-58,-123,-79Z" 
id="f1_f"
transform="scale(0.001,-0.001)" />

<path d="M131,0L274,688H168l23,112H296l26,125c0,0,20,98,82,143c0,0,62,46,176,46c0,0,33,0,59,-5L609,990c0,0,0,3,-53,3c0,0,-45,0,-70,-25c0,0,-25,-25,-37,-83L431,800H575L553,688H409L266,0Z" 
id="f2_21"
transform="scale(0.001,-0.001)" />

<path d="M445,95c0,0,127,0,215,118c0,0,87,119,87,290c0,0,0,97,-46,151c0,0,-46,53,-129,53c0,0,-127,0,-214,-118c0,0,-87,-117,-87,-287c0,0,0,-98,45,-153c0,0,46,-54,129,-54ZM421,-20c0,0,-136,0,-215,81c0,0,-79,82,-79,223c0,0,0,227,136,383c0,0,136,156,333,156c0,0,138,0,217,-79c0,0,79,-80,79,-215v-3c0,0,0,-230,-136,-389C756,137,619,-20,421,-20Z" 
id="f2_2a"
transform="scale(0.001,-0.001)" />

<path d="M118,0L283,800H411L380,652c0,0,35,47,69,81c0,0,92,90,197,90c0,0,20,0,38,-5L653,679H604c0,0,-91,0,-164,-61c0,0,-72,-62,-92,-154L253,0Z" 
id="f2_2d"
transform="scale(0.001,-0.001)" />

<path d="M140,-21c0,0,-26,0,-44,17C96,-4,79,13,79,40c0,0,0,19,6,33c0,0,8,20,34,55c0,0,46,60,64,126c0,0,32,114,41,321H190c0,0,-55,0,-81,-18c0,0,-44,-26,-80,-89H0c0,0,42,129,98,178c0,0,43,37,120,37H743V575H562c0,0,-27,-171,-27,-327c0,0,0,-77,27,-110c0,0,27,-33,67,-33c0,0,33,0,56,22c0,0,24,22,31,65h27C743,192,730,74,686,26c0,0,-44,-47,-98,-47c0,0,-58,0,-97,51c0,0,-39,53,-39,198c0,0,0,91,28,347H286c0,0,-23,-390,-56,-494c0,0,-33,-102,-90,-102Z" 
id="f3_2c"
transform="scale(0.001,-0.001)" />

<path d="M45,0V81L673,391L45,704v80L795,412V374L45,0Z" 
id="f3_y"
transform="scale(0.001,-0.001)" />

<path d="M398,0C398,0,266,0,185,39c0,0,-82,39,-133,124C52,163,0,248,0,342c0,0,0,144,103,243c0,0,103,98,292,98H694V611H387c0,0,-99,0,-166,-32c0,0,-68,-32,-105,-88c0,0,-26,-40,-41,-113H694V304H75c0,0,30,-120,103,-176c0,0,73,-56,210,-56H694V0Z" 
id="f3_40"
transform="scale(0.001,-0.001)" />

<path d="M152,-323c-8,0,-38,1,-63,8v125c0,0,30,-11,77,-12c0,0,45,0,76,37c0,0,30,38,69,140l2,12v1L17,799H170L383,139L600,799H747L443,-25c0,0,-70,-184,-125,-241c0,0,-55,-57,-164,-57c0,0,-1,0,-2,0Z" 
id="f1_2k"
transform="scale(0.001,-0.001)" />

<path d="M435,92c0,0,86,0,147,69c0,0,60,68,60,186c0,0,0,114,-60,179c0,0,-60,66,-152,66c0,0,-91,0,-154,-66c0,0,-64,-65,-64,-171c0,0,0,-70,30,-133c0,0,29,-64,82,-97c0,0,52,-33,111,-33Zm3,-110c0,0,-168,0,-274,123C164,105,58,228,58,512c0,0,0,317,117,461c0,0,102,125,275,125c0,0,129,0,212,-72c0,0,82,-72,99,-200L627,815c0,0,-18,79,-51,115c0,0,-54,58,-134,58c0,0,-64,0,-113,-36c0,0,-63,-46,-99,-135c0,0,-37,-89,-38,-253c0,0,48,74,118,110c0,0,70,36,147,36c0,0,135,0,229,-99c0,0,94,-99,94,-256c0,0,0,-103,-44,-191C736,164,691,75,614,28c0,0,-78,-46,-176,-46Z" 
id="f5_q"
transform="scale(0.001,-0.001)" />

<path d="M125,0V1051H268V115H799V0Z" 
id="f0_1c"
transform="scale(0.001,-0.001)" />

<path d="M106,0V620c0,0,0,85,-5,188H228c0,0,6,-138,6,-165h3c0,0,32,103,74,141c0,0,42,38,118,38c0,0,27,0,54,-7V692c0,0,-26,7,-71,7c0,0,-84,0,-128,-72c0,0,-44,-72,-44,-206V0Z" 
id="f0_2e"
transform="scale(0.001,-0.001)" />

<path d="M606,-14c0,0,-164,0,-284,65c0,0,-119,66,-182,189c0,0,-63,123,-63,291c0,0,0,255,137,396c0,0,137,140,386,140c0,0,174,0,283,-59c0,0,109,-59,168,-189L915,779c0,0,-44,90,-123,131c0,0,-79,41,-196,41c0,0,-182,0,-278,-110c0,0,-96,-110,-96,-310c0,0,0,-200,102,-315c0,0,102,-115,282,-115c0,0,103,0,193,31c0,0,89,31,144,85V407H629V526h445V164c0,0,-83,-85,-205,-132c0,0,-121,-46,-263,-46Z" 
id="f0_17"
transform="scale(0.001,-0.001)" />

<path d="M355,-14c0,0,-133,0,-194,65c0,0,-62,66,-62,219V808H234V296c0,0,0,-80,16,-124c0,0,16,-44,50,-64c0,0,34,-19,101,-19c0,0,97,0,153,66c0,0,55,67,55,185V808H744V172c0,0,0,-141,4,-172H621c0,0,0,4,-1,20c0,0,-1,17,-2,38c0,0,-1,21,-3,80h-2C613,138,567,55,506,20c0,0,-61,-34,-151,-34Z" 
id="f0_2h"
transform="scale(0.001,-0.001)" />

<path d="M395,89c0,0,115,0,166,79c0,0,51,79,51,246c0,0,0,160,-51,235c0,0,-51,75,-164,75c0,0,-102,0,-147,-75c0,0,-45,-75,-45,-244c0,0,0,-170,45,-243c0,0,45,-73,145,-73ZM361,-14c0,0,-153,0,-225,102c0,0,-72,103,-72,312c0,0,0,422,297,422c0,0,92,0,153,-33c0,0,61,-34,98,-107h2l-2,90v335H747V166c0,0,0,-126,4,-166H623c0,0,-2,12,-5,55c0,0,-3,44,-3,75h-3c0,0,-37,-78,-98,-111c0,0,-62,-33,-153,-33Z" 
id="f0_20"
transform="scale(0.001,-0.001)" />

<path d="M140,0V163H285V0Z" 
id="f0_i"
transform="scale(0.001,-0.001)" />


</defs>
</svg>