<?xml version="1.0" encoding="UTF-8" standalone="no"?>
<!DOCTYPE svg PUBLIC "-//W3C//DTD SVG 1.1//EN"
"http://www.w3.org/Graphics/SVG/1.1/DTD/svg11.dtd">
<svg viewBox="0 0 692 1111" version="1.1" xmlns="http://www.w3.org/2000/svg" xmlns:xlink="http://www.w3.org/1999/xlink">
<defs>
<style type="text/css"><![CDATA[
.g0_11{
fill: none;
stroke: #000000;
stroke-width: 0.7609555;
stroke-linecap: round;
stroke-linejoin: miter;
}
.g1_11{
fill: none;
stroke: #000000;
stroke-width: 0.15277778;
stroke-linecap: round;
stroke-linejoin: miter;
}
.g2_11{
}
.g3_11{
fill: none;
stroke: #000000;
stroke-width: 0.7526444;
stroke-linecap: round;
stroke-linejoin: miter;
}
.g4_11{
fill: none;
stroke: #000000;
stroke-width: 0.75924444;
stroke-linecap: round;
stroke-linejoin: miter;
}
.g5_11{
fill: none;
stroke: #000000;
stroke-width: 1.0429528;
stroke-linecap: round;
stroke-linejoin: miter;
}
.g6_11{
fill: none;
stroke: #000000;
stroke-width: 0.76902217;
stroke-linecap: round;
stroke-linejoin: miter;
}
]]></style>
</defs>
<g fill="#D4D4D4" fill-opacity="0.56" >
<use xlink:href="#f0_1f" transform="matrix(50.9,-50.9,50.9,50.9,81.1,924.1)" />
<use xlink:href="#f0_2a" transform="matrix(50.9,-50.9,50.9,50.9,141.6,863.6)" />
<use xlink:href="#f0_28" transform="matrix(50.9,-50.9,50.9,50.9,184.9,820.3)" />
<use xlink:href="#f0_25" transform="matrix(50.9,-50.9,50.9,50.9,202.1,803.1)" />
<use xlink:href="#f0_2a" transform="matrix(50.9,-50.9,50.9,50.9,219.4,785.8)" />
<use xlink:href="#f0_21" transform="matrix(50.9,-50.9,50.9,50.9,262.7,742.5)" />
<use xlink:href="#f0_2k" transform="matrix(50.9,-50.9,50.9,50.9,305.9,699.3)" />
<use xlink:href="#f0_1x" transform="matrix(50.9,-50.9,50.9,50.9,344.8,660.4)" />
<use xlink:href="#f0_29" transform="matrix(50.9,-50.9,50.9,50.9,388,617.2)" />
<use xlink:href="#f0_2c" transform="matrix(50.9,-50.9,50.9,50.9,452.8,552.4)" />
<use xlink:href="#f0_2b" transform="matrix(50.9,-50.9,50.9,50.9,496.1,509.1)" />
<use xlink:href="#f0_25" transform="matrix(50.9,-50.9,50.9,50.9,539.3,465.9)" />
<use xlink:href="#f0_2a" transform="matrix(50.9,-50.9,50.9,50.9,556.6,448.6)" />
<use xlink:href="#f0_2g" transform="matrix(50.9,-50.9,50.9,50.9,599.8,405.4)" />
</g>
<g fill="#000000" >
<use xlink:href="#f1_r" transform="matrix(10.4,0,0,10.4,68.8,147.8)" />
<use xlink:href="#f1_h" transform="matrix(10.4,0,0,10.4,77.7,147.8)" />
<use xlink:href="#f1_k" transform="matrix(10.4,0,0,10.4,100.5,147.8)" />
<use xlink:href="#f1_k" transform="matrix(10.4,0,0,10.4,399,147.8)" />
<use xlink:href="#f1_k" transform="matrix(10.4,0,0,10.4,407.9,147.8)" />
<use xlink:href="#f1_h" transform="matrix(10.4,0,0,10.4,417,147.8)" />
</g>
<path d="M468.3,141H486" class="g0_11" />
<path d="M528.8,141.2l1.6,-.9l3.9,6.4l4.3,-16.9h9.9" class="g1_11" />
<path fill-rule="evenodd" d="M528.7,141l2.1,-1.2l3.5,5.3l4,-15.7h10.2v.8h-9.6l-4.2,16.5H534l-3.9,-5.9l-1.1,.7l-.3,-.5Z" class="g2_11" />
<g fill="#000000" >
<use xlink:href="#f2_2c" transform="matrix(10.4,0,0,10.4,472.7,134.9)" />
<use xlink:href="#f2_x" transform="matrix(10.4,0,0,10.4,490.8,145.2)" />
<use xlink:href="#f2_h" transform="matrix(10.4,0,0,10.4,516.1,145.2)" />
<use xlink:href="#f1_2f" transform="matrix(10.4,0,0,10.4,444,145.2)" />
<use xlink:href="#f1_1w" transform="matrix(10.4,0,0,10.4,448.4,145.2)" />
<use xlink:href="#f1_29" transform="matrix(10.4,0,0,10.4,457.4,145.2)" />
<use xlink:href="#f1_l" transform="matrix(10.4,0,0,10.4,504.2,145.2)" />
<use xlink:href="#f1_m" transform="matrix(10.4,0,0,10.4,538.9,145.2)" />
<use xlink:href="#f1_k" transform="matrix(10.4,0,0,10.4,467.8,157.5)" />
<use xlink:href="#f1_l" transform="matrix(10.4,0,0,10.4,476.8,157.5)" />
<use xlink:href="#f1_k" transform="matrix(10.4,0,0,10.4,59.8,221.1)" />
<use xlink:href="#f1_m" transform="matrix(10.4,0,0,10.4,68.7,221.1)" />
<use xlink:href="#f1_h" transform="matrix(10.4,0,0,10.4,77.9,221.1)" />
</g>
<path d="M104.9,205.7l1.6,-.9l3.8,6.4l4.2,-17h9.8" class="g1_11" />
<path fill-rule="evenodd" d="M104.8,205.5l2,-1.2l3.5,5.3l3.9,-15.7h10.1v.7h-9.5l-4.1,16.6h-.8l-3.8,-5.9l-1.1,.6l-.2,-.4Z" class="g2_11" />
<path d="M103.6,215.8h22" class="g3_11" />
<g fill="#000000" >
<use xlink:href="#f1_o" transform="matrix(10.3,0,0,10.4,115,209.7)" />
<use xlink:href="#f1_m" transform="matrix(10.3,0,0,10.4,110.3,232.3)" />
<use xlink:href="#f1_k" transform="matrix(10.4,0,0,10.4,399,221.1)" />
<use xlink:href="#f1_o" transform="matrix(10.4,0,0,10.4,407.9,221.1)" />
<use xlink:href="#f1_h" transform="matrix(10.4,0,0,10.4,417,221.1)" />
</g>
<path d="M456.4,204.3l1.6,-.9l3.9,6.4l4.2,-17h15.2" class="g1_11" />
<path fill-rule="evenodd" d="M456.3,204.1l2.1,-1.2l3.5,5.4l4,-15.9h15.4v.8H466.4l-4.1,16.6h-.8l-3.9,-6l-1.1,.7l-.2,-.4Z" class="g2_11" />
<path d="M480.5,228.9L482,228l4,6.4l4.1,-16.9h15.2" class="g1_11" />
<path fill-rule="evenodd" d="M480.4,228.7l2.1,-1.2l3.5,5.4l3.9,-15.8h15.4v.7H490.4l-4.1,16.6h-.7l-3.9,-5.9l-1.1,.6l-.2,-.4Z" class="g2_11" />
<path d="M455,214.8h51.6" class="g4_11" />
<path d="M444.4,220.4l1.5,-2.3l3.9,17.6l4.3,-46.4h53.7" class="g1_11" />
<path fill-rule="evenodd" d="M444.2,220.3l2.1,-3.3l3.5,15.1l4,-43.2h54v.8H454.4l-4.2,46h-.8l-3.9,-16.5l-.9,1.4l-.4,-.3Z" class="g2_11" />
<g fill="#000000" >
<use xlink:href="#f2_h" transform="matrix(10.6,0,0,10.6,485,208.5)" />
<use xlink:href="#f2_f" transform="matrix(10.6,0,0,10.6,467.7,233.2)" />
<use xlink:href="#f1_k" transform="matrix(10.6,0,0,10.6,465.3,208.5)" />
<use xlink:href="#f1_k" transform="matrix(10.6,0,0,10.6,474.3,208.5)" />
<use xlink:href="#f1_m" transform="matrix(10.6,0,0,10.6,497,208.5)" />
<use xlink:href="#f1_m" transform="matrix(10.6,0,0,10.6,455.7,233.2)" />
<use xlink:href="#f1_k" transform="matrix(10.6,0,0,10.6,489.4,233.2)" />
<use xlink:href="#f1_k" transform="matrix(10.6,0,0,10.6,498.4,233.2)" />
<use xlink:href="#f1_k" transform="matrix(10.4,0,0,10.4,59.8,288.2)" />
<use xlink:href="#f1_s" transform="matrix(10.4,0,0,10.4,68.7,288.2)" />
<use xlink:href="#f1_h" transform="matrix(10.4,0,0,10.4,77.9,288.2)" />
</g>
<path d="M139.4,283.7h11.3" class="g5_11" />
<g fill="#000000" >
<use xlink:href="#f2_2c" transform="matrix(10.4,0,0,10.4,140.7,277.6)" />
<use xlink:href="#f2_x" transform="matrix(10.4,0,0,10.4,121.7,287.9)" />
<use xlink:href="#f1_h" transform="matrix(10.4,0,0,10.4,154.5,287.9)" />
<use xlink:href="#f1_n" transform="matrix(10.4,0,0,10.4,140.7,300.1)" />
<use xlink:href="#f3_2j" transform="matrix(10.4,0,0,10.4,103.4,287.9)" />
<use xlink:href="#f1_l" transform="matrix(10.4,0,0,10.4,403.4,288.2)" />
<use xlink:href="#f1_j" transform="matrix(10.4,0,0,10.4,412.6,288.2)" />
<use xlink:href="#f1_2e" transform="matrix(10.4,0,0,10.4,441.2,288.2)" />
<use xlink:href="#f1_24" transform="matrix(10.4,0,0,10.4,449.1,288.2)" />
<use xlink:href="#f1_29" transform="matrix(10.4,0,0,10.4,452.7,288.2)" />
<use xlink:href="#f1_99" transform="matrix(7.4,0,0,7.4,461.5,282.9)" />
<use xlink:href="#f1_k" transform="matrix(7.4,0,0,7.4,467.8,282.9)" />
<use xlink:href="#f3_2j" transform="matrix(10.4,0,0,10.4,480.8,288.2)" />
<use xlink:href="#f1_99" transform="matrix(10.4,0,0,10.4,495.6,288.2)" />
<use xlink:href="#f1_2e" transform="matrix(10.4,0,0,10.4,511.5,288.2)" />
<use xlink:href="#f1_24" transform="matrix(10.4,0,0,10.4,519.4,288.2)" />
<use xlink:href="#f1_29" transform="matrix(10.4,0,0,10.4,523,288.2)" />
<use xlink:href="#f1_99" transform="matrix(7.4,0,0,7.4,531.7,282.9)" />
<use xlink:href="#f1_k" transform="matrix(7.4,0,0,7.4,538.1,282.9)" />
<use xlink:href="#f2_48" transform="matrix(10.4,0,0,10.4,551.2,288.2)" />
<use xlink:href="#f3_2j" transform="matrix(10.4,0,0,10.4,560,288.2)" />
<use xlink:href="#f1_h" transform="matrix(10.4,0,0,10.4,568,288.2)" />
<use xlink:href="#f1_l" transform="matrix(10.4,0,0,10.4,59.8,360.2)" />
<use xlink:href="#f1_l" transform="matrix(10.4,0,0,10.4,68.7,360.2)" />
<use xlink:href="#f1_h" transform="matrix(10.4,0,0,10.4,77.9,360.2)" />
</g>
<path d="M112.9,366.4l1.6,-.9l4,6.5l4.2,-17h10.1" class="g1_11" />
<path fill-rule="evenodd" d="M112.8,366.2l2.1,-1.2l3.6,5.4l4,-15.8h10.3v.8H123L118.9,372h-.8l-4,-6l-1.1,.7l-.2,-.5Z" class="g2_11" />
<path d="M111.5,352.3H134" class="g6_11" />
<g fill="#000000" >
<use xlink:href="#f1_k" transform="matrix(10.6,0,0,10.6,119.2,346.1)" />
<use xlink:href="#f1_f" transform="matrix(10.6,0,0,10.6,135.5,356.6)" />
<use xlink:href="#f1_k" transform="matrix(10.6,0,0,10.6,147.6,356.6)" />
<use xlink:href="#f1_l" transform="matrix(10.6,0,0,10.6,123.2,370.7)" />
<use xlink:href="#f2_4o" transform="matrix(10.6,0,0,10.6,102.9,346.3)" />
<use xlink:href="#f2_57" transform="matrix(10.6,0,0,10.6,154.8,346.3)" />
<use xlink:href="#f2_4p" transform="matrix(10.6,0,0,10.6,102.9,361.8)" />
<use xlink:href="#f2_58" transform="matrix(10.6,0,0,10.6,154.8,361.8)" />
<use xlink:href="#f2_4q" transform="matrix(10.6,0,0,10.6,102.9,368.4)" />
<use xlink:href="#f2_59" transform="matrix(10.6,0,0,10.6,154.8,371.9)" />
<use xlink:href="#f1_l" transform="matrix(10.4,0,0,10.4,59.8,407.2)" />
<use xlink:href="#f1_k" transform="matrix(10.4,0,0,10.4,68.7,407.2)" />
<use xlink:href="#f1_h" transform="matrix(10.4,0,0,10.4,77.9,407.2)" />
<use xlink:href="#f4_17" transform="matrix(10.4,0,0,10.4,100.5,407.2)" />
<use xlink:href="#f4_24" transform="matrix(10.4,0,0,10.4,112.1,407.2)" />
<use xlink:href="#f4_29" transform="matrix(10.4,0,0,10.4,116.5,407.2)" />
<use xlink:href="#f4_2f" transform="matrix(10.4,0,0,10.4,126.2,407.2)" />
<use xlink:href="#f4_t" transform="matrix(10.4,0,0,10.4,131.5,407.2)" />
<use xlink:href="#f1_1b" transform="matrix(10.4,0,0,10.4,155.5,407.2)" />
<use xlink:href="#f1_20" transform="matrix(10.4,0,0,10.4,164.4,407.2)" />
<use xlink:href="#f1_2f" transform="matrix(10.4,0,0,10.4,173.6,407.2)" />
<use xlink:href="#f1_2f" transform="matrix(10.4,0,0,10.4,205.2,407.2)" />
<use xlink:href="#f1_1w" transform="matrix(10.4,0,0,10.4,209.7,407.2)" />
<use xlink:href="#f1_29" transform="matrix(10.4,0,0,10.4,218.5,407.2)" />
<use xlink:href="#f1_99" transform="matrix(7.4,0,0,7.4,227.2,401.9)" />
<use xlink:href="#f1_k" transform="matrix(7.4,0,0,7.4,233.5,401.9)" />
<use xlink:href="#f3_1w" transform="matrix(10.4,0,0,10.4,246.5,407.2)" />
<use xlink:href="#f1_w" transform="matrix(10.4,0,0,10.4,262.2,407.2)" />
<use xlink:href="#f2_1x" transform="matrix(10.4,0,0,10.4,278.6,407.2)" />
<use xlink:href="#f1_2f" transform="matrix(10.4,0,0,10.4,205.2,438)" />
<use xlink:href="#f1_1w" transform="matrix(10.4,0,0,10.4,209.7,438)" />
<use xlink:href="#f1_29" transform="matrix(10.4,0,0,10.4,218.5,438)" />
<use xlink:href="#f1_99" transform="matrix(7.4,0,0,7.4,227.2,432.7)" />
<use xlink:href="#f1_k" transform="matrix(7.4,0,0,7.4,233.5,432.7)" />
<use xlink:href="#f3_1x" transform="matrix(10.4,0,0,10.4,246.5,438)" />
<use xlink:href="#f1_w" transform="matrix(10.4,0,0,10.4,262.2,438)" />
<use xlink:href="#f2_1y" transform="matrix(10.4,0,0,10.4,278.6,438)" />
<use xlink:href="#f1_2f" transform="matrix(10.4,0,0,10.4,205.2,468.8)" />
<use xlink:href="#f1_1w" transform="matrix(10.4,0,0,10.4,209.7,468.8)" />
<use xlink:href="#f1_29" transform="matrix(10.4,0,0,10.4,218.5,468.8)" />
<use xlink:href="#f1_99" transform="matrix(7.4,0,0,7.4,227.2,463.5)" />
<use xlink:href="#f1_k" transform="matrix(7.4,0,0,7.4,233.5,463.5)" />
<use xlink:href="#f3_1y" transform="matrix(10.4,0,0,10.4,246.5,468.8)" />
<use xlink:href="#f1_w" transform="matrix(10.4,0,0,10.4,261.3,468.8)" />
<use xlink:href="#f2_23" transform="matrix(10.4,0,0,10.4,277.5,468.8)" />
<use xlink:href="#f1_2f" transform="matrix(10.4,0,0,10.4,155.5,499.8)" />
<use xlink:href="#f1_23" transform="matrix(10.4,0,0,10.4,160,499.8)" />
<use xlink:href="#f1_20" transform="matrix(10.4,0,0,10.4,168.8,499.8)" />
<use xlink:href="#f1_29" transform="matrix(10.4,0,0,10.4,177.7,499.8)" />
<use xlink:href="#f1_22" transform="matrix(10.4,0,0,10.4,194.7,499.8)" />
<use xlink:href="#f1_24" transform="matrix(10.4,0,0,10.4,203.5,499.8)" />
<use xlink:href="#f1_2h" transform="matrix(10.4,0,0,10.4,207.1,499.8)" />
<use xlink:href="#f1_20" transform="matrix(10.4,0,0,10.4,215,499.8)" />
<use xlink:href="#f1_29" transform="matrix(10.4,0,0,10.4,223.9,499.8)" />
<use xlink:href="#f1_f" transform="matrix(10.4,0,0,10.4,232.8,499.8)" />
<use xlink:href="#f2_1x" transform="matrix(10.4,0,0,10.4,244.1,499.8)" />
<use xlink:href="#f2_f" transform="matrix(10.4,0,0,10.4,260.2,499.8)" />
<use xlink:href="#f2_1y" transform="matrix(10.4,0,0,10.4,275,499.8)" />
<use xlink:href="#f2_f" transform="matrix(10.4,0,0,10.4,289.8,499.8)" />
<use xlink:href="#f2_23" transform="matrix(10.4,0,0,10.4,304.8,499.8)" />
<use xlink:href="#f2_x" transform="matrix(10.4,0,0,10.4,317.4,499.8)" />
<use xlink:href="#f2_2c" transform="matrix(10.4,0,0,10.4,332.2,499.8)" />
<use xlink:href="#f2_1s" transform="matrix(10.4,0,0,10.4,155.5,530.6)" />
<use xlink:href="#f2_1x" transform="matrix(10.4,0,0,10.4,244.1,530.6)" />
<use xlink:href="#f2_f" transform="matrix(10.4,0,0,10.4,260.2,530.6)" />
<use xlink:href="#f2_1y" transform="matrix(10.4,0,0,10.4,275,530.6)" />
<use xlink:href="#f2_x" transform="matrix(10.4,0,0,10.4,289.8,530.6)" />
<use xlink:href="#f2_2c" transform="matrix(10.4,0,0,10.4,304.8,530.6)" />
<use xlink:href="#f2_h" transform="matrix(10.4,0,0,10.4,319.6,530.6)" />
<use xlink:href="#f2_23" transform="matrix(10.4,0,0,10.4,334.4,530.6)" />
<use xlink:href="#f1_2f" transform="matrix(10.4,0,0,10.4,155.5,561.4)" />
<use xlink:href="#f1_1w" transform="matrix(10.4,0,0,10.4,160,561.4)" />
<use xlink:href="#f1_26" transform="matrix(10.4,0,0,10.4,168.8,561.4)" />
<use xlink:href="#f1_20" transform="matrix(10.4,0,0,10.4,176.8,561.4)" />
<use xlink:href="#f1_2f" transform="matrix(10.4,0,0,10.4,193.2,561.4)" />
<use xlink:href="#f1_1w" transform="matrix(10.4,0,0,10.4,197.6,561.4)" />
<use xlink:href="#f1_29" transform="matrix(10.4,0,0,10.4,206.5,561.4)" />
<use xlink:href="#f1_22" transform="matrix(10.4,0,0,10.4,215.4,561.4)" />
<use xlink:href="#f1_20" transform="matrix(10.4,0,0,10.4,224.2,561.4)" />
<use xlink:href="#f1_29" transform="matrix(10.4,0,0,10.4,233.1,561.4)" />
<use xlink:href="#f1_2f" transform="matrix(10.4,0,0,10.4,242,561.4)" />
<use xlink:href="#f1_2a" transform="matrix(10.4,0,0,10.4,253.7,561.4)" />
<use xlink:href="#f1_29" transform="matrix(10.4,0,0,10.4,262.6,561.4)" />
<use xlink:href="#f1_1x" transform="matrix(10.4,0,0,10.4,279,561.4)" />
<use xlink:href="#f1_2a" transform="matrix(10.4,0,0,10.4,287.9,561.4)" />
<use xlink:href="#f1_2f" transform="matrix(10.4,0,0,10.4,296.7,561.4)" />
<use xlink:href="#f1_23" transform="matrix(10.4,0,0,10.4,301.2,561.4)" />
<use xlink:href="#f1_2e" transform="matrix(10.4,0,0,10.4,317.5,561.4)" />
<use xlink:href="#f1_24" transform="matrix(10.4,0,0,10.4,325.5,561.4)" />
<use xlink:href="#f1_1z" transform="matrix(10.4,0,0,10.4,329.1,561.4)" />
<use xlink:href="#f1_20" transform="matrix(10.4,0,0,10.4,337.9,561.4)" />
<use xlink:href="#f1_2e" transform="matrix(10.4,0,0,10.4,346.8,561.4)" />
<use xlink:href="#f1_f" transform="matrix(10.4,0,0,10.4,354.8,561.4)" />
<use xlink:href="#f1_2f" transform="matrix(10.4,0,0,10.4,155.5,592.3)" />
<use xlink:href="#f1_1w" transform="matrix(10.4,0,0,10.4,160,592.3)" />
<use xlink:href="#f1_29" transform="matrix(10.4,0,0,10.4,168.8,592.3)" />
<use xlink:href="#f1_b" transform="matrix(10.4,0,0,10.4,184.3,592.3)" />
<use xlink:href="#f2_1x" transform="matrix(10.4,0,0,10.4,189.5,592.3)" />
<use xlink:href="#f2_f" transform="matrix(10.4,0,0,10.4,205.8,592.3)" />
<use xlink:href="#f2_1y" transform="matrix(10.4,0,0,10.4,220.8,592.3)" />
<use xlink:href="#f1_c" transform="matrix(10.4,0,0,10.4,229.6,592.3)" />
<use xlink:href="#f1_w" transform="matrix(10.4,0,0,10.4,241.7,592.3)" />
<use xlink:href="#f1_2f" transform="matrix(10.4,0,0,10.4,257.8,592.3)" />
<use xlink:href="#f1_1w" transform="matrix(10.4,0,0,10.4,262.2,592.3)" />
<use xlink:href="#f1_29" transform="matrix(10.4,0,0,10.4,271.1,592.3)" />
<use xlink:href="#f2_c" transform="matrix(10.4,0,0,10.4,286.1,592.3)" />
<use xlink:href="#f2_2c" transform="matrix(10.4,0,0,10.4,291.4,592.3)" />
<use xlink:href="#f2_h" transform="matrix(10.4,0,0,10.4,306.4,592.3)" />
<use xlink:href="#f2_23" transform="matrix(10.4,0,0,10.4,321.4,592.3)" />
<use xlink:href="#f2_d" transform="matrix(10.4,0,0,10.4,327.9,592.3)" />
<use xlink:href="#f5_o" transform="matrix(12,0,0,12,657.2,1093.6)" />
</g>
<g fill="#0080FF" fill-opacity="0.5" >
<use xlink:href="#f0_1c" transform="matrix(36.1,0,0,36.1,173.2,1081.1)" />
<use xlink:href="#f0_21" transform="matrix(36.1,0,0,36.1,203.9,1081.1)" />
<use xlink:href="#f0_1x" transform="matrix(36.1,0,0,36.1,234.5,1081.1)" />
<use xlink:href="#f0_2e" transform="matrix(36.1,0,0,36.1,265.2,1081.1)" />
<use xlink:href="#f0_2a" transform="matrix(36.1,0,0,36.1,283.6,1081.1)" />
<use xlink:href="#f0_17" transform="matrix(36.1,0,0,36.1,314.2,1081.1)" />
<use xlink:href="#f0_2h" transform="matrix(36.1,0,0,36.1,357.1,1081.1)" />
<use xlink:href="#f0_25" transform="matrix(36.1,0,0,36.1,387.8,1081.1)" />
<use xlink:href="#f0_20" transform="matrix(36.1,0,0,36.1,400.1,1081.1)" />
<use xlink:href="#f0_21" transform="matrix(36.1,0,0,36.1,430.7,1081.1)" />
<use xlink:href="#f0_i" transform="matrix(36.1,0,0,36.1,461.4,1081.1)" />
<use xlink:href="#f0_25" transform="matrix(36.1,0,0,36.1,476.7,1081.1)" />
<use xlink:href="#f0_2a" transform="matrix(36.1,0,0,36.1,489,1081.1)" />
</g>
<defs>
<path d="M593,101c0,0,182,0,279,112c0,0,98,113,98,318c0,0,0,196,-98,308c0,0,-98,112,-277,112c0,0,-181,0,-279,-110c0,0,-99,-111,-99,-310c0,0,0,-198,100,-314c0,0,99,-116,276,-116Zm0,-115c0,0,-162,0,-279,65c0,0,-118,66,-180,190c0,0,-62,124,-62,290c0,0,0,252,138,394c0,0,138,142,385,142c0,0,160,0,278,-64c0,0,118,-64,180,-185c0,0,62,-122,62,-287c0,0,0,-165,-63,-289c0,0,-63,-124,-181,-190c0,0,-118,-66,-278,-66Z" 
id="f0_1f"
transform="scale(0.001,-0.001)" />

<path d="M106,0V635c0,0,0,141,-5,173H228c0,0,1,-4,2,-21c0,0,1,-16,2,-37c0,0,1,-22,2,-81h2c0,0,47,84,108,119c0,0,60,34,151,34c0,0,132,0,194,-66c0,0,61,-66,61,-218V0H615V512c0,0,0,80,-15,124c0,0,-16,44,-50,63c0,0,-35,20,-101,20c0,0,-97,0,-153,-67c0,0,-56,-66,-56,-184V0Z" 
id="f0_2a"
transform="scale(0.001,-0.001)" />

<path d="M103,0V1107H237V0Z" 
id="f0_28"
transform="scale(0.001,-0.001)" />

<path d="M102,0V808H236V0Zm0,979v128H236V979Z" 
id="f0_25"
transform="scale(0.001,-0.001)" />

<path d="M643,478c0,0,-11,128,-65,187c0,0,-54,59,-154,59c0,0,-98,0,-155,-66c0,0,-57,-65,-62,-180ZM431,-14c0,0,-179,0,-272,106c0,0,-94,107,-94,317c0,0,0,200,94,307c0,0,93,106,267,106c0,0,356,0,356,-429V375H206c0,0,0,-138,57,-213c0,0,58,-75,168,-75c0,0,87,0,140,35c0,0,53,35,71,88L760,177c0,0,-72,-191,-329,-191Z" 
id="f0_21"
transform="scale(0.001,-0.001)" />

<path d="M17,0L304,415L31,808H179L380,493L580,808H730L457,417L747,0H598L380,331L162,0Z" 
id="f0_2k"
transform="scale(0.001,-0.001)" />

<path d="M339,87c0,0,74,0,132,34c0,0,57,33,90,91c0,0,34,59,34,121v66L448,396c0,0,-95,-2,-144,-19c0,0,-49,-18,-75,-55c0,0,-26,-38,-26,-98c0,0,0,-65,35,-101c0,0,36,-36,101,-36ZM309,-14c0,0,-122,0,-183,64c0,0,-61,64,-61,176c0,0,0,125,82,192c0,0,83,67,266,72l182,3v44c0,0,0,98,-42,141c0,0,-42,43,-132,43c0,0,-90,0,-131,-31c0,0,-41,-31,-49,-98L101,604c0,0,34,218,323,218c0,0,153,0,229,-70c0,0,77,-69,77,-202V202c0,0,0,-59,16,-90c0,0,16,-30,60,-30c0,0,19,0,44,5V4C850,4,799,-7,746,-7c0,0,-75,0,-109,38c0,0,-33,40,-38,124h-4C595,155,543,62,475,24c0,0,-68,-38,-166,-38Z" 
id="f0_1x"
transform="scale(0.001,-0.001)" />

<path d="M106,0V635c0,0,0,141,-5,173H228c0,0,1,-4,2,-21c0,0,1,-16,2,-37c0,0,1,-22,2,-81h2c0,0,44,86,100,120c0,0,56,33,136,33c0,0,92,0,145,-36c0,0,54,-37,75,-117h2c0,0,42,82,101,117c0,0,59,36,143,36c0,0,123,0,178,-66c0,0,56,-67,56,-218V0H1039V512c0,0,0,117,-32,162c0,0,-32,45,-116,45c0,0,-88,0,-136,-66c0,0,-49,-65,-49,-185V0H573V512c0,0,0,117,-32,162c0,0,-32,45,-116,45c0,0,-86,0,-136,-66c0,0,-50,-66,-50,-185V0Z" 
id="f0_29"
transform="scale(0.001,-0.001)" />

<path d="M453,84c0,0,100,0,146,74c0,0,46,73,46,247c0,0,0,169,-46,241c0,0,-45,73,-145,73c0,0,-80,0,-125,-34c0,0,-45,-34,-68,-105c0,0,-24,-71,-24,-186c0,0,0,-159,51,-234c0,0,51,-76,165,-76ZM103,-316V643c0,0,0,124,-5,165H228c0,0,1,-3,3,-22c0,0,1,-18,3,-56c0,0,2,-38,2,-52h3c0,0,36,75,94,110c0,0,59,34,156,34c0,0,149,0,223,-100c0,0,74,-100,74,-314c0,0,0,-422,-297,-422c0,0,-187,0,-251,140h-4c0,0,3,-6,3,-126V-316Z" 
id="f0_2c"
transform="scale(0.001,-0.001)" />

<path d="M420,84c0,0,121,0,173,78c0,0,52,77,52,243c0,0,0,167,-50,243c0,0,-50,76,-167,76c0,0,-118,0,-170,-78c0,0,-53,-77,-53,-241c0,0,0,-160,52,-241c0,0,52,-80,163,-80Zm1,-98c0,0,-176,0,-267,107c0,0,-90,108,-90,312c0,0,0,417,362,417c0,0,185,0,272,-102c0,0,88,-101,88,-315c0,0,0,-212,-94,-316C692,89,599,-14,421,-14Z" 
id="f0_2b"
transform="scale(0.001,-0.001)" />

<path d="M278,-11c0,0,-162,0,-162,182V710H23v98h99l39,181h90V808H400V710H251V200c0,0,0,-58,19,-82c0,0,19,-23,66,-23c0,0,27,0,77,10V6c0,0,-66,-17,-135,-17Z" 
id="f0_2g"
transform="scale(0.001,-0.001)" />

<path d="M424,92c0,0,98,0,161,58c0,0,62,58,62,149c0,0,0,92,-62,151c0,0,-63,58,-161,58c0,0,-98,0,-160,-58c0,0,-63,-59,-63,-151c0,0,0,-91,63,-149c0,0,62,-58,160,-58Zm0,533c0,0,82,0,134,46c0,0,52,45,52,118c0,0,0,72,-52,118c0,0,-52,46,-134,46c0,0,-82,0,-134,-46c0,0,-52,-46,-52,-118c0,0,0,-73,52,-119c0,0,52,-45,134,-45Zm0,-653c0,0,-165,0,-265,90C159,62,59,154,59,305c0,0,0,134,100,216c0,0,35,28,78,47c0,0,-27,15,-52,33c0,0,-90,70,-90,185c0,0,0,130,90,209c0,0,91,80,239,80c0,0,148,0,238,-80c0,0,91,-79,91,-209c0,0,0,-115,-91,-185c0,0,-24,-19,-52,-32c0,0,44,-20,79,-49c0,0,101,-81,101,-215c0,0,0,-151,-101,-243c0,0,-100,-90,-265,-90Z" 
id="f1_r"
transform="scale(0.001,-0.001)" />

<path d="M133,0V162H292V0Z" 
id="f1_h"
transform="scale(0.001,-0.001)" />

<path d="M406,0V763H155V870h2c16,0,114,2,178,48c0,0,70,51,104,157H549V0Z" 
id="f1_k"
transform="scale(0.001,-0.001)" />

<path d="M140,-21c0,0,-26,0,-44,17C96,-4,79,13,79,40c0,0,0,19,6,33c0,0,8,20,34,55c0,0,46,60,64,126c0,0,32,114,41,321H190c0,0,-55,0,-81,-18c0,0,-44,-26,-80,-89H0c0,0,42,129,98,178c0,0,43,37,120,37H743V575H562c0,0,-27,-171,-27,-327c0,0,0,-77,27,-110c0,0,27,-33,67,-33c0,0,33,0,56,22c0,0,24,22,31,65h27C743,192,730,74,686,26c0,0,-44,-47,-98,-47c0,0,-58,0,-97,51c0,0,-39,53,-39,198c0,0,0,91,28,347H286c0,0,-23,-390,-56,-494c0,0,-33,-102,-90,-102Z" 
id="f2_2c"
transform="scale(0.001,-0.001)" />

<path d="M0,214v74H784V214ZM0,494v72H784V494Z" 
id="f2_x"
transform="scale(0.001,-0.001)" />

<path d="M0,356v74H784V356Z" 
id="f2_h"
transform="scale(0.001,-0.001)" />

<path d="M292,-9c0,0,-88,0,-124,38c0,0,-36,39,-36,134V689H22V799H132v224H266V799H392V689H266V163c0,0,0,-27,21,-43c0,0,21,-15,57,-15h48V1C392,1,324,-9,292,-9Z" 
id="f1_2f"
transform="scale(0.001,-0.001)" />

<path d="M335,90c0,0,106,0,179,57c0,0,50,41,67,91c0,0,3,10,4,31c0,0,3,21,3,47v87c0,0,-38,-18,-83,-25L381,360c0,0,-97,-13,-142,-45c0,0,-44,-31,-44,-86c0,0,0,-67,36,-103c0,0,37,-36,104,-36ZM309,-20c0,0,-117,0,-186,61c0,0,-68,63,-68,169c0,0,0,108,64,171c0,0,65,64,189,79l183,23c0,0,22,3,42,8c0,0,26,7,40,27c0,0,15,20,15,51v6c0,0,0,64,-49,101c0,0,-48,36,-135,36c0,0,-83,0,-130,-38c0,0,-46,-39,-56,-115H94c0,0,10,131,92,197c0,0,83,66,238,66c0,0,145,0,222,-63c0,0,76,-63,76,-184V137c0,0,0,-21,12,-33c0,0,12,-12,33,-12c0,0,6,0,18,1c0,0,11,2,25,5V1c0,0,-20,-7,-41,-11c0,0,-22,-5,-37,-5c0,0,-76,0,-110,41c0,0,-22,28,-32,79c0,0,-15,-19,-34,-36c0,0,-101,-89,-247,-89Z" 
id="f1_1w"
transform="scale(0.001,-0.001)" />

<path d="M99,0V799H226V681l30,39c0,0,87,102,219,102c0,0,132,0,203,-71c0,0,72,-72,72,-204V0H616V502c0,0,0,105,-41,151c0,0,-40,47,-132,47c0,0,-97,0,-154,-73c0,0,-56,-74,-56,-199V0Z" 
id="f1_29"
transform="scale(0.001,-0.001)" />

<path d="M39,0c0,0,0,170,84,277c0,0,85,108,317,236c0,0,113,62,154,115c0,0,41,52,41,134c0,0,0,86,-62,141c0,0,-61,54,-156,54c0,0,-101,0,-158,-68c0,0,-57,-68,-60,-194H67c0,0,-2,178,95,279c0,0,98,101,273,101c0,0,149,0,245,-89c0,0,94,-88,94,-228c0,0,0,-118,-60,-195c0,0,-61,-76,-229,-169C485,394,303,294,237,212c0,0,-28,-36,-46,-81H774V0Z" 
id="f1_l"
transform="scale(0.001,-0.001)" />

<path d="M424,-28c0,0,-180,0,-272,86c0,0,-92,87,-100,266H192c0,0,12,-126,66,-180c0,0,55,-54,170,-54c0,0,100,0,163,57c0,0,64,57,64,147c0,0,0,94,-61,149c0,0,-52,48,-135,54c0,0,-38,2,-72,2c0,0,-34,0,-45,-3V613c0,0,17,-3,51,-3c0,0,35,0,68,4c0,0,66,8,106,43c0,0,55,45,55,125c0,0,0,77,-58,125c0,0,-58,48,-148,48c0,0,-96,0,-147,-58c0,0,-51,-59,-56,-175H82c0,0,0,168,89,260c0,0,88,93,250,93c0,0,153,0,247,-77c0,0,94,-76,94,-202c0,0,0,-124,-95,-201c0,0,-18,-15,-39,-27c0,0,39,-17,69,-41c0,0,101,-79,101,-214c0,0,0,-151,-105,-246c0,0,-104,-95,-269,-95Z" 
id="f1_m"
transform="scale(0.001,-0.001)" />

<path d="M417,-28c0,0,-161,0,-259,79c0,0,-98,81,-109,223H189c0,0,11,-90,72,-139c0,0,61,-49,162,-49c0,0,96,0,158,68c0,0,61,68,61,175c0,0,0,112,-64,178c0,0,-64,66,-173,66c0,0,-59,0,-115,-28c0,0,-55,-29,-84,-73L93,480l77,573H727V922H271L225,629l4,3c0,0,89,60,188,60c0,0,169,0,269,-94c0,0,99,-93,99,-253c0,0,0,-165,-103,-269C682,76,579,-28,417,-28Z" 
id="f1_o"
transform="scale(0.001,-0.001)" />

<path d="M355,0V355H0v72H355V784h72V427H782V355H427V0Z" 
id="f2_f"
transform="scale(0.001,-0.001)" />

<path d="M419,483c0,0,93,0,152,66c0,0,59,66,59,169c0,0,0,103,-59,169c0,0,-59,65,-152,65c0,0,-94,0,-153,-65c0,0,-59,-66,-59,-169c0,0,0,-103,59,-169c0,0,59,-66,153,-66ZM397,-28c0,0,-143,0,-227,75c0,0,-85,77,-91,211H209c0,0,8,-83,57,-128c0,0,49,-45,131,-45c0,0,121,0,186,135c0,0,48,101,62,265C645,485,545,362,397,362c0,0,-150,0,-241,98c0,0,-91,98,-91,258c0,0,0,160,99,258c0,0,99,98,262,98c0,0,173,0,266,-123c0,0,94,-123,94,-349c0,0,0,-303,-101,-467C685,135,583,-28,397,-28Z" 
id="f1_s"
transform="scale(0.001,-0.001)" />

<path d="M511,373V863L169,383l-7,-10ZM511,0V258H38V383l496,691H646V373H799V258H646V0Z" 
id="f1_n"
transform="scale(0.001,-0.001)" />

<path d="M17,0L389,412L201,800H376L500,518L742,800H904L554,410L750,0H580L448,303L187,0Z" 
id="f3_2j"
transform="scale(0.001,-0.001)" />

<path d="M424,92c0,0,114,0,170,107c0,0,57,108,56,323c0,0,1,216,-56,324c0,0,-56,107,-170,107c0,0,-112,0,-168,-107c0,0,-56,-108,-57,-324c0,0,1,-215,57,-323c0,0,56,-107,168,-107Zm0,-120c0,0,-176,0,-271,142c0,0,-96,143,-96,408c0,0,0,265,96,409c0,0,95,144,271,144c0,0,178,0,273,-144c0,0,96,-144,96,-409c0,0,0,-265,-96,-408c0,0,-95,-142,-273,-142Z" 
id="f1_j"
transform="scale(0.001,-0.001)" />

<path d="M393,-20c0,0,-169,0,-252,65c0,0,-83,67,-92,210H178c0,0,10,-85,61,-123c0,0,50,-38,154,-38c0,0,90,0,136,34c0,0,47,35,47,100c0,0,0,42,-31,64c0,0,-30,21,-123,43L283,368c0,0,-112,27,-160,75c0,0,-48,48,-48,135c0,0,0,112,80,178c0,0,81,66,218,66c0,0,140,0,222,-68c0,0,82,-67,88,-187H557c0,0,-6,67,-55,103c0,0,-48,37,-129,37c0,0,-84,0,-127,-29c0,0,-44,-29,-44,-85c0,0,0,-43,31,-65c0,0,30,-21,121,-43L493,452c0,0,117,-28,167,-78c0,0,49,-49,49,-138c0,0,0,-119,-86,-188c0,0,-85,-68,-230,-68Z" 
id="f1_2e"
transform="scale(0.001,-0.001)" />

<path d="M104,0V799H238V0Zm-2,946v152H239V946Z" 
id="f1_24"
transform="scale(0.001,-0.001)" />

<path d="M0,368V478H849V368Z" 
id="f1_99"
transform="scale(0.001,-0.001)" />

<path d="M543,-57L173,703L25,636L0,683L225,795L534,168L783,1393h55L543,-57Z" 
id="f2_48"
transform="scale(0.001,-0.001)" />

<path d="M133,-224v71c0,0,47,8,65,52c0,0,14,33,17,101H133V163H292V27c0,0,0,-114,-36,-172c0,0,-37,-58,-123,-79Z" 
id="f1_f"
transform="scale(0.001,-0.001)" />

<path d="M62,-123V268c0,0,0,230,56,452c0,0,47,190,134,334c0,0,87,144,204,242c0,0,85,73,194,119l18,-16c0,0,-211,-145,-335,-339c0,0,-98,-156,-149,-374c0,0,-50,-218,-50,-403V-123Z" 
id="f2_4o"
transform="scale(0.001,-0.001)" />

<path d="M478,-123V1343H26v72H550V-123Z" 
id="f2_57"
transform="scale(0.001,-0.001)" />

<path d="M62,-123V1415h72V-123Z" 
id="f2_4p"
transform="scale(0.001,-0.001)" />

<path d="M0,-123V1415H72V-123Z" 
id="f2_58"
transform="scale(0.001,-0.001)" />

<path d="M650,-123c0,0,-180,75,-319,246c0,0,-140,172,-205,418c0,0,-64,245,-64,481v393h72V1007c0,0,0,-236,63,-459c0,0,63,-223,189,-391c0,0,108,-145,282,-265l-18,-15Z" 
id="f2_4q"
transform="scale(0.001,-0.001)" />

<path d="M26,-123v72H478V1415h72V-123Z" 
id="f2_59"
transform="scale(0.001,-0.001)" />

<path d="M108,0L335,1097H563L477,680H910l86,417h229L998,0H770L870,484H437L337,0Z" 
id="f4_17"
transform="scale(0.001,-0.001)" />

<path d="M105,0L273,812H487L319,0ZM301,910l40,196H558L517,910Z" 
id="f4_24"
transform="scale(0.001,-0.001)" />

<path d="M99,0L267,812H474L451,695l29,34c0,0,102,104,247,104c0,0,131,0,190,-74c0,0,59,-74,31,-206L834,0H620L724,501c0,0,15,78,-9,115c0,0,-25,37,-92,37c0,0,-82,0,-139,-49c0,0,-57,-50,-74,-138L313,0Z" 
id="f4_29"
transform="scale(0.001,-0.001)" />

<path d="M339,-9c0,0,-116,0,-156,38c0,0,-40,40,-21,135L265,659H154l32,153H297l44,219H555L511,812H640L608,659H479L384,201c0,0,-5,-25,11,-37c0,0,16,-11,58,-11l51,2L471,-5c0,0,-52,-4,-132,-4Z" 
id="f4_2f"
transform="scale(0.001,-0.001)" />

<path d="M140,0l46,222H415L370,0ZM256,559l45,222H530L485,559Z" 
id="f4_t"
transform="scale(0.001,-0.001)" />

<path d="M116,0V1097H265V131H820V0Z" 
id="f1_1b"
transform="scale(0.001,-0.001)" />

<path d="M649,461c0,0,-6,111,-55,172c0,0,-55,69,-160,69c0,0,-106,0,-170,-79c0,0,-50,-62,-60,-162ZM425,-20c0,0,-169,0,-266,106c0,0,-97,107,-97,297c0,0,0,201,102,320c0,0,103,119,276,119c0,0,157,0,253,-116c0,0,96,-117,96,-306l-1,-48H204c0,0,8,-119,54,-182c0,0,57,-76,180,-76c0,0,77,0,134,43c0,0,58,43,70,110H775C775,247,746,116,656,47c0,0,-90,-67,-231,-67Z" 
id="f1_20"
transform="scale(0.001,-0.001)" />

<path d="M354,90c0,0,107,0,192,57c0,0,60,41,87,95c0,0,5,12,11,33c0,0,6,20,11,44l18,88c0,0,-62,-26,-132,-37L414,352c0,0,-84,-11,-131,-56c0,0,-47,-45,-47,-113c0,0,0,-44,31,-69c0,0,31,-24,87,-24ZM306,-20c0,0,-99,0,-156,47c0,0,-57,49,-57,134c0,0,1,117,81,198c0,0,80,81,211,98l164,20l70,10c0,0,35,6,59,30c0,0,23,24,31,66l1,2c0,0,13,64,-25,94c0,0,-39,31,-132,31c0,0,-83,0,-137,-37c0,0,-54,-37,-84,-114H210c0,0,46,137,138,201c0,0,92,63,245,63c0,0,149,0,211,-59c0,0,45,-44,44,-116c0,0,1,-30,-6,-63L749,136c0,0,-4,-19,6,-32c0,0,10,-12,30,-12c0,0,6,0,19,1c0,0,12,2,25,5L809,1c0,0,-19,-6,-43,-11c0,0,-22,-5,-36,-5c0,0,-73,0,-100,43c0,0,-16,27,-17,75C612,102,594,85,573,69c0,0,-120,-89,-267,-89Z" 
id="f3_1w"
transform="scale(0.001,-0.001)" />

<path d="M60,174V286H832V174Zm0,309V595H832V483Z" 
id="f1_w"
transform="scale(0.001,-0.001)" />

<path d="M316,27c0,0,57,0,105,53c0,0,65,72,125,295c0,0,-40,153,-104,214c0,0,-63,61,-129,61c0,0,-73,0,-122,-80c0,0,-48,-80,-48,-255c0,0,0,-104,20,-163c0,0,21,-60,64,-92c0,0,42,-33,89,-33Zm4,-49c0,0,-165,0,-243,108C77,86,0,196,0,336c0,0,0,164,91,265c0,0,91,102,213,102c0,0,85,0,150,-52c0,0,65,-51,118,-192l65,224H760L662,344c0,0,-9,-32,-30,-100c0,0,29,-115,43,-137c0,0,27,-41,68,-41c0,0,30,0,55,24c0,0,26,25,34,77h30C862,167,852,60,817,19c0,0,-35,-40,-81,-40c0,0,-42,0,-77,34c0,0,-35,36,-62,154c0,0,-33,-65,-65,-99C532,68,488,22,437,0c0,0,-52,-22,-117,-22Z" 
id="f2_1x"
transform="scale(0.001,-0.001)" />

<path d="M456,95c0,0,130,0,213,121c0,0,82,120,82,310c0,0,0,85,-44,131c0,0,-44,46,-125,46c0,0,-98,0,-174,-90c0,0,-76,-90,-108,-245c0,0,-26,-126,16,-199c0,0,42,-74,140,-74ZM436,-20c0,0,-132,0,-195,108l-5,7L217,0H89L316,1097H450L365,683l10,11c0,0,120,129,262,129c0,0,121,0,190,-77c0,0,69,-77,69,-211c0,0,0,-234,-134,-395C762,140,629,-20,436,-20Z" 
id="f3_1x"
transform="scale(0.001,-0.001)" />

<path d="M363,28c0,0,75,0,126,63c0,0,51,62,51,197c0,0,0,85,-24,149c0,0,-24,63,-86,139c0,0,-51,-17,-89,-17c0,0,-44,0,-63,14c0,0,-18,13,-18,29c0,0,0,14,14,25c0,0,14,11,46,11c0,0,36,0,110,-19c0,0,53,104,53,196c0,0,0,94,-47,146c0,0,-46,51,-115,51c0,0,-86,0,-134,-73c0,0,-31,-49,-31,-156V118c0,0,72,-51,126,-73c0,0,40,-17,81,-17ZM0,-328c0,0,20,92,24,126c0,0,10,104,10,152V712c0,0,0,133,26,198c0,0,27,64,96,108c0,0,69,43,165,43c0,0,133,0,213,-72c0,0,80,-71,80,-170c0,0,0,-63,-33,-120c0,0,-32,-57,-100,-99c0,0,200,-95,200,-297c0,0,0,-89,-42,-167C639,136,598,59,524,18c0,0,-73,-39,-150,-39c0,0,-50,0,-99,17c0,0,-49,16,-119,63V-66c0,0,0,-121,-30,-262Z" 
id="f2_1y"
transform="scale(0.001,-0.001)" />

<path d="M398,-20c0,0,-133,0,-209,72c0,0,-76,74,-76,202v3c0,0,0,27,4,60c0,0,4,33,10,63c0,0,43,208,168,326c0,0,126,117,306,117c0,0,131,0,192,-75c0,0,49,-61,50,-168l-3,-52H710c0,0,4,87,-33,131c0,0,-37,45,-113,45c0,0,-110,0,-184,-81c0,0,-75,-82,-107,-238c0,0,-6,-28,-9,-56c0,0,-3,-28,-3,-50c0,0,0,-88,43,-136c0,0,43,-48,121,-48c0,0,76,0,137,49c0,0,61,48,92,136H788C788,280,737,138,633,58c0,0,-103,-78,-235,-78Z" 
id="f3_1y"
transform="scale(0.001,-0.001)" />

<path d="M263,-328c0,0,-25,0,-44,20c0,0,-19,21,-19,54c0,0,0,57,23,132c0,0,23,75,69,168c0,0,-55,382,-87,461c0,0,-32,79,-90,79c0,0,-35,0,-55,-22c0,0,-20,-21,-31,-96H0c0,0,0,23,0,34c0,0,0,103,39,155c0,0,31,39,83,39c0,0,44,0,73,-27c0,0,39,-38,69,-165c0,0,39,-166,61,-361l65,222c0,0,44,149,114,318H628c0,0,-12,-26,-123,-255c0,0,-46,-95,-66,-144c0,0,-9,-21,-20,-44L333,56c0,0,5,-48,7,-87c0,0,3,-40,3,-73c0,0,0,-101,-15,-157c0,0,-11,-38,-28,-53c0,0,-17,-14,-37,-14Z" 
id="f2_23"
transform="scale(0.001,-0.001)" />

<path d="M99,0V1097H233V690l23,30c0,0,87,102,219,102c0,0,132,0,203,-71c0,0,72,-72,72,-204V0H616V514c0,0,0,99,-38,142c0,0,-38,44,-124,44c0,0,-102,0,-162,-73c0,0,-59,-74,-59,-199V0Z" 
id="f1_23"
transform="scale(0.001,-0.001)" />

<path d="M418,95c0,0,98,0,158,73c0,0,59,73,59,193c0,0,0,170,-54,254c0,0,-54,85,-163,85c0,0,-113,0,-165,-72c0,0,-52,-71,-52,-227c0,0,0,-147,57,-227c0,0,56,-79,160,-79ZM394,-336c0,0,-136,0,-216,62c0,0,-79,63,-96,182H219c0,0,12,-64,57,-98c0,0,45,-35,116,-35c0,0,116,0,176,73c0,0,61,73,61,211V85l-1,-1C628,84,545,-20,412,-20c0,0,-161,0,-256,118c0,0,-94,120,-94,324c0,0,0,179,93,290c0,0,93,110,244,110c0,0,144,0,228,-124l10,-14V799H763V59c0,0,-1,-201,-91,-298c0,0,-91,-97,-278,-97Z" 
id="f1_22"
transform="scale(0.001,-0.001)" />

<path d="M310,0L12,799H168L383,145L604,799H752L454,0Z" 
id="f1_2h"
transform="scale(0.001,-0.001)" />

<path d="M83,0C83,0,48,0,24,24C24,24,0,49,0,83c0,0,0,34,24,58c0,0,24,24,59,24c0,0,34,0,58,-24c0,0,24,-24,24,-58c0,0,0,-34,-24,-59C141,24,117,0,83,0ZM695,0c0,0,-34,0,-58,24c0,0,-25,25,-25,59c0,0,0,34,25,58c0,0,24,24,58,24c0,0,34,0,58,-24c0,0,24,-24,24,-58c0,0,0,-34,-24,-59C753,24,729,0,695,0ZM388,594c0,0,-34,0,-59,23c0,0,-24,24,-24,59c0,0,0,34,24,58c0,0,25,25,59,25c0,0,34,0,58,-25c0,0,24,-24,24,-58c0,0,0,-35,-24,-59c0,0,-24,-23,-58,-23Z" 
id="f2_1s"
transform="scale(0.001,-0.001)" />

<path d="M103,0V1097H237V465L574,799H745L441,503L765,0H590L342,406L237,303V0Z" 
id="f1_26"
transform="scale(0.001,-0.001)" />

<path d="M424,94c0,0,107,0,169,83c0,0,63,83,63,223c0,0,0,140,-63,224c0,0,-62,83,-169,83c0,0,-106,0,-168,-83c0,0,-62,-84,-62,-224c0,0,0,-140,62,-223c0,0,62,-83,168,-83Zm0,-114c0,0,-165,0,-268,115C156,95,54,211,54,400c0,0,0,189,102,306c0,0,103,116,268,116c0,0,168,0,270,-116c0,0,102,-117,102,-306c0,0,0,-189,-102,-305C694,95,592,-20,424,-20Z" 
id="f1_2a"
transform="scale(0.001,-0.001)" />

<path d="M436,95c0,0,105,0,160,79c0,0,54,80,54,232c0,0,0,150,-52,222c0,0,-52,72,-161,72c0,0,-112,0,-163,-81c0,0,-51,-82,-51,-258c0,0,0,-127,55,-197c0,0,55,-69,158,-69Zm6,-115c0,0,-135,0,-215,102L215,98V0H89V1097H223V695c0,0,87,127,225,127c1,0,2,0,2,0c0,0,157,0,249,-108c0,0,91,-107,91,-291c0,0,0,-208,-92,-326C698,97,606,-20,442,-20Z" 
id="f1_1x"
transform="scale(0.001,-0.001)" />

<path d="M411,93c0,0,98,0,158,73c0,0,60,74,60,195c0,0,0,163,-57,252c0,0,-56,88,-161,88c0,0,-113,0,-165,-72c0,0,-52,-72,-52,-229c0,0,0,-147,56,-227c0,0,56,-80,161,-80ZM404,-20c0,0,-161,0,-255,118c0,0,-95,120,-95,324c0,0,0,179,92,290c0,0,91,110,239,110c0,0,147,0,233,-124l11,-15v414H763V0H638V109L621,84C621,84,538,-20,404,-20Z" 
id="f1_1z"
transform="scale(0.001,-0.001)" />

<path d="M365,-315c0,0,-136,187,-199,359c0,0,-62,172,-62,359c0,0,0,186,62,358c0,0,63,172,199,360h92c0,0,-110,-192,-160,-365c0,0,-51,-172,-51,-353c0,0,0,-183,51,-355c0,0,50,-172,160,-363Z" 
id="f1_b"
transform="scale(0.001,-0.001)" />

<path d="M52,-315c0,0,109,192,160,363c0,0,50,173,50,354c0,0,0,183,-50,355c0,0,-51,173,-160,364h92c0,0,135,-188,198,-360c0,0,63,-172,63,-359c0,0,0,-187,-63,-359c0,0,-63,-171,-198,-358Z" 
id="f1_c"
transform="scale(0.001,-0.001)" />

<path d="M412,-328c0,0,-195,96,-303,284C109,-44,0,142,0,365c0,0,0,232,114,422c0,0,114,191,298,273v-31c0,0,-92,-51,-151,-139c0,0,-59,-88,-88,-223c0,0,-29,-136,-29,-282c0,0,0,-167,27,-301c0,0,26,-133,82,-221c0,0,55,-89,159,-159v-32Z" 
id="f2_c"
transform="scale(0.001,-0.001)" />

<path d="M34,-328v32c0,0,92,50,151,138c0,0,59,88,88,222c0,0,29,135,29,283c0,0,0,165,-27,300c0,0,-26,134,-82,222c0,0,-56,89,-159,160v31c0,0,194,-96,303,-284c0,0,108,-187,108,-410c0,0,0,-232,-114,-422c0,0,-114,-191,-297,-272Z" 
id="f2_d"
transform="scale(0.001,-0.001)" />

<path d="M494,385V878L152,385ZM494,0V262H20V385l498,708H628V385H775V262H628V0Z" 
id="f5_o"
transform="scale(0.001,-0.001)" />

<path d="M125,0V1051H268V115H799V0Z" 
id="f0_1c"
transform="scale(0.001,-0.001)" />

<path d="M106,0V620c0,0,0,85,-5,188H228c0,0,6,-138,6,-165h3c0,0,32,103,74,141c0,0,42,38,118,38c0,0,27,0,54,-7V692c0,0,-26,7,-71,7c0,0,-84,0,-128,-72c0,0,-44,-72,-44,-206V0Z" 
id="f0_2e"
transform="scale(0.001,-0.001)" />

<path d="M606,-14c0,0,-164,0,-284,65c0,0,-119,66,-182,189c0,0,-63,123,-63,291c0,0,0,255,137,396c0,0,137,140,386,140c0,0,174,0,283,-59c0,0,109,-59,168,-189L915,779c0,0,-44,90,-123,131c0,0,-79,41,-196,41c0,0,-182,0,-278,-110c0,0,-96,-110,-96,-310c0,0,0,-200,102,-315c0,0,102,-115,282,-115c0,0,103,0,193,31c0,0,89,31,144,85V407H629V526h445V164c0,0,-83,-85,-205,-132c0,0,-121,-46,-263,-46Z" 
id="f0_17"
transform="scale(0.001,-0.001)" />

<path d="M355,-14c0,0,-133,0,-194,65c0,0,-62,66,-62,219V808H234V296c0,0,0,-80,16,-124c0,0,16,-44,50,-64c0,0,34,-19,101,-19c0,0,97,0,153,66c0,0,55,67,55,185V808H744V172c0,0,0,-141,4,-172H621c0,0,0,4,-1,20c0,0,-1,17,-2,38c0,0,-1,21,-3,80h-2C613,138,567,55,506,20c0,0,-61,-34,-151,-34Z" 
id="f0_2h"
transform="scale(0.001,-0.001)" />

<path d="M395,89c0,0,115,0,166,79c0,0,51,79,51,246c0,0,0,160,-51,235c0,0,-51,75,-164,75c0,0,-102,0,-147,-75c0,0,-45,-75,-45,-244c0,0,0,-170,45,-243c0,0,45,-73,145,-73ZM361,-14c0,0,-153,0,-225,102c0,0,-72,103,-72,312c0,0,0,422,297,422c0,0,92,0,153,-33c0,0,61,-34,98,-107h2l-2,90v335H747V166c0,0,0,-126,4,-166H623c0,0,-2,12,-5,55c0,0,-3,44,-3,75h-3c0,0,-37,-78,-98,-111c0,0,-62,-33,-153,-33Z" 
id="f0_20"
transform="scale(0.001,-0.001)" />

<path d="M140,0V163H285V0Z" 
id="f0_i"
transform="scale(0.001,-0.001)" />


</defs>
</svg>