<?xml version="1.0" encoding="UTF-8" standalone="no"?>
<!DOCTYPE svg PUBLIC "-//W3C//DTD SVG 1.1//EN"
"http://www.w3.org/Graphics/SVG/1.1/DTD/svg11.dtd">
<svg viewBox="0 0 811 1133" version="1.1" xmlns="http://www.w3.org/2000/svg" xmlns:xlink="http://www.w3.org/1999/xlink">
<defs>
<style type="text/css"><![CDATA[
.g0_59{
fill: none;
stroke: #000000;
stroke-width: 0.7660889;
stroke-linecap: round;
stroke-linejoin: miter;
}
.g1_59{
fill: none;
stroke: #000000;
stroke-width: 0.76511115;
stroke-linecap: round;
stroke-linejoin: miter;
}
.g2_59{
fill: none;
stroke: #000000;
stroke-width: 0.7607111;
stroke-linecap: round;
stroke-linejoin: miter;
}
.g3_59{
fill: none;
stroke: #000000;
stroke-width: 0.15277778;
stroke-linecap: round;
stroke-linejoin: miter;
}
.g4_59{
}
.g5_59{
fill: none;
stroke: #000000;
stroke-width: 0.7638889;
stroke-linecap: round;
stroke-linejoin: miter;
}
.g6_59{
fill: none;
stroke: #000000;
stroke-width: 0.7656;
stroke-linecap: round;
stroke-linejoin: miter;
}
.g7_59{
fill: none;
stroke: #000000;
stroke-width: 0.76144445;
stroke-linecap: round;
stroke-linejoin: miter;
}
.g8_59{
fill: none;
stroke: #000000;
stroke-width: 0.7609555;
stroke-linecap: round;
stroke-linejoin: miter;
}
.g9_59{
fill: none;
stroke: #000000;
stroke-width: 0.7670667;
stroke-linecap: round;
stroke-linejoin: miter;
}
.g10_59{
fill: none;
stroke: #000000;
stroke-width: 0.7619333;
stroke-linecap: round;
stroke-linejoin: miter;
}
]]></style>
</defs>
<g fill="#D4D4D4" fill-opacity="0.56" >
<use xlink:href="#f0_1f" transform="matrix(50.9,-50.9,50.9,50.9,199.9,924.1)" />
<use xlink:href="#f0_2a" transform="matrix(50.9,-50.9,50.9,50.9,260.4,863.6)" />
<use xlink:href="#f0_28" transform="matrix(50.9,-50.9,50.9,50.9,303.7,820.3)" />
<use xlink:href="#f0_25" transform="matrix(50.9,-50.9,50.9,50.9,320.9,803.1)" />
<use xlink:href="#f0_2a" transform="matrix(50.9,-50.9,50.9,50.9,338.2,785.8)" />
<use xlink:href="#f0_21" transform="matrix(50.9,-50.9,50.9,50.9,381.4,742.5)" />
<use xlink:href="#f0_2k" transform="matrix(50.9,-50.9,50.9,50.9,424.7,699.3)" />
<use xlink:href="#f0_1x" transform="matrix(50.9,-50.9,50.9,50.9,463.6,660.4)" />
<use xlink:href="#f0_29" transform="matrix(50.9,-50.9,50.9,50.9,506.8,617.2)" />
<use xlink:href="#f0_2c" transform="matrix(50.9,-50.9,50.9,50.9,571.6,552.4)" />
<use xlink:href="#f0_2b" transform="matrix(50.9,-50.9,50.9,50.9,614.9,509.1)" />
<use xlink:href="#f0_25" transform="matrix(50.9,-50.9,50.9,50.9,658.1,465.9)" />
<use xlink:href="#f0_2a" transform="matrix(50.9,-50.9,50.9,50.9,675.4,448.6)" />
<use xlink:href="#f0_2g" transform="matrix(50.9,-50.9,50.9,50.9,718.6,405.4)" />
</g>
<g fill="#000000" >
<use xlink:href="#f1_n" transform="matrix(10.4,0,0,10.4,129.2,62.5)" />
<use xlink:href="#f1_l" transform="matrix(10.4,0,0,10.4,138.1,62.5)" />
<use xlink:href="#f1_h" transform="matrix(10.4,0,0,10.4,147.3,62.5)" />
<use xlink:href="#f1_14" transform="matrix(10.4,0,0,10.4,169.9,62.5)" />
<use xlink:href="#f1_2h" transform="matrix(10.4,0,0,10.4,180.6,62.5)" />
<use xlink:href="#f1_1w" transform="matrix(10.4,0,0,10.4,188.5,62.5)" />
<use xlink:href="#f1_27" transform="matrix(10.4,0,0,10.4,197.4,62.5)" />
<use xlink:href="#f1_2g" transform="matrix(10.4,0,0,10.4,200.9,62.5)" />
<use xlink:href="#f1_1w" transform="matrix(10.4,0,0,10.4,209.8,62.5)" />
<use xlink:href="#f1_2f" transform="matrix(10.4,0,0,10.4,218.7,62.5)" />
<use xlink:href="#f1_20" transform="matrix(10.4,0,0,10.4,223.1,62.5)" />
<use xlink:href="#f1_t" transform="matrix(10.4,0,0,10.4,239.7,62.5)" />
<use xlink:href="#f1_b" transform="matrix(10.4,0,0,10.4,192.5,105.4)" />
<use xlink:href="#f1_24" transform="matrix(10.4,0,0,10.4,197.8,105.4)" />
<use xlink:href="#f1_c" transform="matrix(10.4,0,0,10.4,201.3,105.4)" />
</g>
<path d="M241.7,101.7h89.5" class="g0_59" />
<g fill="#000000" >
<use xlink:href="#f1_n" transform="matrix(7.8,0,0,7.8,253.1,113.2)" />
<use xlink:href="#f1_l" transform="matrix(7.8,0,0,7.8,294.6,113.2)" />
<use xlink:href="#f1_h" transform="matrix(10.4,0,0,10.4,353.8,105.9)" />
<use xlink:href="#f1_k" transform="matrix(10.4,0,0,10.4,324,122.7)" />
<use xlink:href="#f2_2j" transform="matrix(10.4,0,0,10.4,281.4,95.5)" />
<use xlink:href="#f2_1z" transform="matrix(10.4,0,0,10.4,334.9,105.9)" />
<use xlink:href="#f2_2j" transform="matrix(10.4,0,0,10.4,344.3,105.9)" />
<use xlink:href="#f2_2j" transform="matrix(10.4,0,0,10.4,242.7,122.7)" />
<use xlink:href="#f2_2j" transform="matrix(10.4,0,0,10.4,284.2,122.7)" />
<use xlink:href="#f3_f" transform="matrix(10.4,0,0,10.4,268.3,122.7)" />
<use xlink:href="#f3_f" transform="matrix(10.4,0,0,10.4,309.6,122.7)" />
<use xlink:href="#f3_50" transform="matrix(20.8,0,0,20.8,227.5,114.3)" />
<use xlink:href="#f1_d" transform="matrix(10.4,0,0,10.4,182.6,180.2)" />
<use xlink:href="#f1_b" transform="matrix(10.4,0,0,10.4,188.8,180.2)" />
<use xlink:href="#f1_24" transform="matrix(10.4,0,0,10.4,194.1,180.2)" />
<use xlink:href="#f1_24" transform="matrix(10.4,0,0,10.4,197.6,180.2)" />
<use xlink:href="#f1_c" transform="matrix(10.4,0,0,10.4,201.2,180.2)" />
<use xlink:href="#f3_c" transform="matrix(10.5,0,0,13.9,277.5,198.3)" />
<use xlink:href="#f3_d" transform="matrix(10.5,0,0,13.9,321.5,198.3)" />
</g>
<path d="M241.7,175.8H446.2" class="g1_59" />
<g fill="#000000" >
<use xlink:href="#f1_l" transform="matrix(7.9,0,0,7.9,327.1,188.6)" />
<use xlink:href="#f1_k" transform="matrix(10.5,0,0,10.6,340.2,169.6)" />
<use xlink:href="#f1_h" transform="matrix(10.5,0,0,10.6,469,180.1)" />
<use xlink:href="#f1_p" transform="matrix(10.5,0,0,10.6,265.2,197.7)" />
<use xlink:href="#f1_27" transform="matrix(10.5,0,0,10.6,284.1,197.7)" />
<use xlink:href="#f1_2a" transform="matrix(10.5,0,0,10.6,287.9,197.7)" />
<use xlink:href="#f1_22" transform="matrix(10.5,0,0,10.6,297.2,197.7)" />
<use xlink:href="#f1_q" transform="matrix(10.5,0,0,10.6,357.8,197.7)" />
<use xlink:href="#f1_27" transform="matrix(10.5,0,0,10.6,370.2,197.7)" />
<use xlink:href="#f1_2a" transform="matrix(10.5,0,0,10.6,374,197.7)" />
<use xlink:href="#f1_22" transform="matrix(10.5,0,0,10.6,383.3,197.7)" />
<use xlink:href="#f1_l" transform="matrix(10.5,0,0,10.6,428.7,197.7)" />
<use xlink:href="#f2_1z" transform="matrix(10.5,0,0,10.6,450.2,180.1)" />
<use xlink:href="#f2_2j" transform="matrix(10.5,0,0,10.6,459.5,180.1)" />
<use xlink:href="#f2_2j" transform="matrix(10.5,0,0,10.6,242.7,197.7)" />
<use xlink:href="#f2_2j" transform="matrix(10.5,0,0,10.6,310.1,197.7)" />
<use xlink:href="#f2_2j" transform="matrix(10.5,0,0,10.6,396.3,197.7)" />
<use xlink:href="#f3_4r" transform="matrix(10.5,0,0,10.6,257.4,193)" />
<use xlink:href="#f3_57" transform="matrix(10.5,0,0,10.6,439.3,193)" />
<use xlink:href="#f3_f" transform="matrix(10.5,0,0,10.6,342,197.7)" />
<use xlink:href="#f3_f" transform="matrix(10.5,0,0,10.6,413,197.7)" />
<use xlink:href="#f3_4t" transform="matrix(10.5,0,0,10.6,257.4,202.2)" />
<use xlink:href="#f3_59" transform="matrix(10.5,0,0,10.6,439.3,202.2)" />
<use xlink:href="#f3_50" transform="matrix(21,0,0,21.1,227.5,188.7)" />
<use xlink:href="#f1_b" transform="matrix(10.4,0,0,10.4,185.3,261.6)" />
<use xlink:href="#f1_24" transform="matrix(10.4,0,0,10.4,190.6,261.6)" />
<use xlink:href="#f1_24" transform="matrix(10.4,0,0,10.4,194.2,261.6)" />
<use xlink:href="#f1_24" transform="matrix(10.4,0,0,10.4,197.7,261.6)" />
<use xlink:href="#f1_c" transform="matrix(10.4,0,0,10.4,201.3,261.6)" />
</g>
<path d="M241.6,257.3h79.8" class="g2_59" />
<g fill="#000000" >
<use xlink:href="#f1_l" transform="matrix(7.8,0,0,7.8,312.3,268.8)" />
<use xlink:href="#f1_h" transform="matrix(10.4,0,0,10.4,325.1,261.5)" />
<use xlink:href="#f1_k" transform="matrix(10.4,0,0,10.4,241.4,278.4)" />
<use xlink:href="#f2_1z" transform="matrix(10.4,0,0,10.4,271.7,251.2)" />
<use xlink:href="#f2_2j" transform="matrix(10.4,0,0,10.4,281,251.2)" />
<use xlink:href="#f2_2j" transform="matrix(10.4,0,0,10.4,270.2,278.4)" />
<use xlink:href="#f2_2j" transform="matrix(10.4,0,0,10.4,302.2,278.4)" />
<use xlink:href="#f3_f" transform="matrix(10.4,0,0,10.4,254.2,278.4)" />
<use xlink:href="#f3_h" transform="matrix(10.4,0,0,10.4,286.5,278.4)" />
<use xlink:href="#f3_50" transform="matrix(20.8,0,0,20.8,227.5,270)" />
<use xlink:href="#f1_b" transform="matrix(10.4,0,0,10.4,459.2,261.6)" />
<use xlink:href="#f1_24" transform="matrix(10.4,0,0,10.4,464.5,261.6)" />
<use xlink:href="#f1_2h" transform="matrix(10.4,0,0,10.4,468.1,261.6)" />
<use xlink:href="#f1_c" transform="matrix(10.4,0,0,10.4,476.1,261.6)" />
</g>
<path d="M518.1,275.2l1.5,-1.2l4,8.8l4.2,-23.3H620" class="g3_59" />
<path fill-rule="evenodd" d="M517.9,275l2.1,-1.7l3.6,7.4l3.9,-21.6h92.4v.8H528.1l-4.2,22.9h-.7l-4,-8.2l-1,.8l-.3,-.4Z" class="g4_59" />
<path d="M516.7,256.8H621.2" class="g5_59" />
<g fill="#000000" >
<use xlink:href="#f1_l" transform="matrix(7.9,0,0,7.8,610.8,271.9)" />
<use xlink:href="#f1_k" transform="matrix(10.5,0,0,10.4,565.3,250.7)" />
<use xlink:href="#f1_h" transform="matrix(10.5,0,0,10.4,643.5,261.1)" />
<use xlink:href="#f1_s" transform="matrix(10.5,0,0,10.4,527.9,281.5)" />
<use xlink:href="#f1_r" transform="matrix(10.5,0,0,10.4,559.1,281.5)" />
<use xlink:href="#f2_1z" transform="matrix(10.5,0,0,10.4,625.1,261.1)" />
<use xlink:href="#f2_2j" transform="matrix(10.5,0,0,10.4,634.5,261.1)" />
<use xlink:href="#f2_2j" transform="matrix(10.5,0,0,10.4,568.4,281.5)" />
<use xlink:href="#f2_2j" transform="matrix(10.5,0,0,10.4,600.7,281.5)" />
<use xlink:href="#f3_f" transform="matrix(10.5,0,0,10.4,543.4,281.5)" />
<use xlink:href="#f3_h" transform="matrix(10.5,0,0,10.4,584.9,281.5)" />
<use xlink:href="#f3_50" transform="matrix(21,0,0,20.9,502.3,269.6)" />
<use xlink:href="#f1_b" transform="matrix(10.4,0,0,10.4,187.9,348.7)" />
<use xlink:href="#f1_2h" transform="matrix(10.4,0,0,10.4,193.2,348.7)" />
<use xlink:href="#f1_c" transform="matrix(10.4,0,0,10.4,201.4,348.7)" />
<use xlink:href="#f3_c" transform="matrix(10.4,0,0,11.4,252.8,363.1)" />
<use xlink:href="#f3_d" transform="matrix(10.4,0,0,11.4,302.5,363.1)" />
<use xlink:href="#f3_c" transform="matrix(10.4,0,0,11.4,311.2,363.1)" />
<use xlink:href="#f3_d" transform="matrix(10.4,0,0,11.4,361.4,363.1)" />
</g>
<path d="M243.1,361.3l1.5,-1l4,7.1l4.3,-18.9H367.4" class="g3_59" />
<path fill-rule="evenodd" d="M243,361.1l2.1,-1.4l3.5,6l4,-17.6H367.4v.8H253.2L249,367.4h-.8l-3.9,-6.6l-1.1,.7l-.2,-.4Z" class="g4_59" />
<path d="M241.7,345.4H368.6" class="g6_59" />
<g fill="#000000" >
<use xlink:href="#f1_k" transform="matrix(10.4,0,0,10.4,301.4,339.3)" />
<use xlink:href="#f1_h" transform="matrix(10.4,0,0,10.4,391.2,349.6)" />
<use xlink:href="#f2_1z" transform="matrix(10.4,0,0,10.4,372.4,349.6)" />
<use xlink:href="#f2_2j" transform="matrix(10.4,0,0,10.4,381.7,349.6)" />
<use xlink:href="#f2_2j" transform="matrix(10.4,0,0,10.4,260,365.1)" />
<use xlink:href="#f2_1w" transform="matrix(10.4,0,0,10.4,291.8,365.1)" />
<use xlink:href="#f2_2j" transform="matrix(10.4,0,0,10.4,318.5,365.1)" />
<use xlink:href="#f2_1x" transform="matrix(10.4,0,0,10.4,350.2,365.1)" />
<use xlink:href="#f3_h" transform="matrix(10.5,0,0,10.4,276.8,365.1)" />
<use xlink:href="#f3_h" transform="matrix(10.5,0,0,10.4,335.2,365.1)" />
<use xlink:href="#f3_50" transform="matrix(20.9,0,0,20.9,227.5,358.1)" />
<use xlink:href="#f1_b" transform="matrix(10.4,0,0,10.4,459.2,348.7)" />
<use xlink:href="#f1_2h" transform="matrix(10.4,0,0,10.4,464.5,348.7)" />
<use xlink:href="#f1_24" transform="matrix(10.4,0,0,10.4,472.8,348.7)" />
<use xlink:href="#f1_c" transform="matrix(10.4,0,0,10.4,476.3,348.7)" />
<use xlink:href="#f3_c" transform="matrix(10.4,0,0,11.4,552.1,332.3)" />
<use xlink:href="#f3_d" transform="matrix(10.4,0,0,11.4,603,332.3)" />
<use xlink:href="#f3_c" transform="matrix(10.4,0,0,11.4,552,358.1)" />
<use xlink:href="#f3_d" transform="matrix(10.4,0,0,11.4,603.1,358.1)" />
</g>
<path d="M527.4,340.4h81.5" class="g7_59" />
<path d="M516.8,347.7l1.5,-2.2l3.9,17l4.3,-44.8h83.6" class="g3_59" />
<path fill-rule="evenodd" d="M516.6,347.6l2.1,-3.2l3.5,14.6l4,-41.7h83.9v.7H526.9l-4.3,44.5h-.7l-4,-15.9l-.8,1.3l-.5,-.3Z" class="g4_59" />
<g fill="#000000" >
<use xlink:href="#f1_2e" transform="matrix(10.5,0,0,10.4,528.3,334.3)" />
<use xlink:href="#f1_24" transform="matrix(10.5,0,0,10.4,536.6,334.3)" />
<use xlink:href="#f1_29" transform="matrix(10.5,0,0,10.4,540.4,334.3)" />
<use xlink:href="#f1_h" transform="matrix(10.5,0,0,10.4,635.9,344.7)" />
<use xlink:href="#f1_2e" transform="matrix(10.5,0,0,10.4,528.2,360.1)" />
<use xlink:href="#f1_24" transform="matrix(10.5,0,0,10.4,536.5,360.1)" />
<use xlink:href="#f1_29" transform="matrix(10.5,0,0,10.4,540.3,360.1)" />
<use xlink:href="#f2_2j" transform="matrix(10.5,0,0,10.4,559.5,334.3)" />
<use xlink:href="#f2_1z" transform="matrix(10.5,0,0,10.4,617.6,344.7)" />
<use xlink:href="#f2_2j" transform="matrix(10.5,0,0,10.4,626.9,344.7)" />
<use xlink:href="#f2_2j" transform="matrix(10.5,0,0,10.4,559.4,360.1)" />
<use xlink:href="#f3_h" transform="matrix(10.5,0,0,10.4,576,334.3)" />
<use xlink:href="#f3_1x" transform="matrix(10.5,0,0,10.4,591.2,334.3)" />
<use xlink:href="#f3_f" transform="matrix(10.5,0,0,10.4,575.8,360.1)" />
<use xlink:href="#f3_1x" transform="matrix(10.5,0,0,10.4,591.3,360.1)" />
<use xlink:href="#f3_50" transform="matrix(21,0,0,20.9,502.5,353.2)" />
<use xlink:href="#f1_b" transform="matrix(10.4,0,0,10.4,180.7,427.2)" />
<use xlink:href="#f1_2h" transform="matrix(10.4,0,0,10.4,186.1,427.2)" />
<use xlink:href="#f1_24" transform="matrix(10.4,0,0,10.4,194,427.2)" />
<use xlink:href="#f1_24" transform="matrix(10.4,0,0,10.4,197.6,427.2)" />
<use xlink:href="#f1_c" transform="matrix(10.4,0,0,10.4,201.1,427.2)" />
</g>
<path d="M241.7,422.7h98.6" class="g0_59" />
<g fill="#000000" >
<use xlink:href="#f1_l" transform="matrix(7.8,0,0,7.8,262.1,434.2)" />
<use xlink:href="#f1_o" transform="matrix(10.4,0,0,10.4,265.9,416.5)" />
<use xlink:href="#f1_l" transform="matrix(10.4,0,0,10.4,307.4,416.5)" />
<use xlink:href="#f1_h" transform="matrix(10.4,0,0,10.4,362.8,426.9)" />
<use xlink:href="#f1_m" transform="matrix(10.4,0,0,10.4,242.4,443.7)" />
<use xlink:href="#f1_l" transform="matrix(10.4,0,0,10.4,292.8,443.7)" />
<use xlink:href="#f1_k" transform="matrix(10.4,0,0,10.4,333.1,443.7)" />
<use xlink:href="#f2_2j" transform="matrix(10.4,0,0,10.4,275.1,416.5)" />
<use xlink:href="#f2_1z" transform="matrix(10.4,0,0,10.4,344,426.9)" />
<use xlink:href="#f2_2j" transform="matrix(10.4,0,0,10.4,353.3,426.9)" />
<use xlink:href="#f2_2j" transform="matrix(10.4,0,0,10.4,251.7,443.7)" />
<use xlink:href="#f2_2j" transform="matrix(10.4,0,0,10.4,301.9,443.7)" />
<use xlink:href="#f3_h" transform="matrix(10.4,0,0,10.4,292,416.5)" />
<use xlink:href="#f3_f" transform="matrix(10.4,0,0,10.4,277.2,443.7)" />
<use xlink:href="#f3_f" transform="matrix(10.4,0,0,10.4,318.7,443.7)" />
<use xlink:href="#f3_50" transform="matrix(20.8,0,0,20.8,227.6,435.3)" />
<use xlink:href="#f1_b" transform="matrix(10.4,0,0,10.4,452.3,427.2)" />
<use xlink:href="#f1_2h" transform="matrix(10.4,0,0,10.4,457.6,427.2)" />
<use xlink:href="#f1_24" transform="matrix(10.4,0,0,10.4,465.5,427.2)" />
<use xlink:href="#f1_24" transform="matrix(10.4,0,0,10.4,469.1,427.2)" />
<use xlink:href="#f1_24" transform="matrix(10.4,0,0,10.4,472.6,427.2)" />
<use xlink:href="#f1_c" transform="matrix(10.4,0,0,10.4,476.2,427.2)" />
</g>
<path d="M516.7,422.8H617.8" class="g5_59" />
<g fill="#000000" >
<use xlink:href="#f1_l" transform="matrix(7.9,0,0,7.9,568.4,407)" />
<use xlink:href="#f1_l" transform="matrix(7.9,0,0,7.9,528,434.5)" />
<use xlink:href="#f1_h" transform="matrix(10.5,0,0,10.5,640.6,427.1)" />
<use xlink:href="#f1_p" transform="matrix(10.5,0,0,10.5,558.7,444.1)" />
<use xlink:href="#f1_k" transform="matrix(10.5,0,0,10.5,599.2,444.1)" />
<use xlink:href="#f1_l" transform="matrix(10.5,0,0,10.5,608.6,444.1)" />
<use xlink:href="#f2_2j" transform="matrix(10.5,0,0,10.5,558,416.7)" />
<use xlink:href="#f2_1z" transform="matrix(10.5,0,0,10.5,621.8,427.1)" />
<use xlink:href="#f2_2j" transform="matrix(10.5,0,0,10.5,631.1,427.1)" />
<use xlink:href="#f2_2j" transform="matrix(10.5,0,0,10.5,517.6,444.1)" />
<use xlink:href="#f2_2j" transform="matrix(10.5,0,0,10.5,568,444.1)" />
<use xlink:href="#f3_f" transform="matrix(10.5,0,0,10.5,543,444.1)" />
<use xlink:href="#f3_f" transform="matrix(10.5,0,0,10.5,584.7,444.1)" />
<use xlink:href="#f3_50" transform="matrix(21,0,0,21,502.4,435.6)" />
<use xlink:href="#f1_b" transform="matrix(10.4,0,0,10.4,184.2,502.2)" />
<use xlink:href="#f1_24" transform="matrix(10.4,0,0,10.4,189.5,502.2)" />
<use xlink:href="#f1_2j" transform="matrix(10.4,0,0,10.4,193.1,502.2)" />
<use xlink:href="#f1_c" transform="matrix(10.4,0,0,10.4,201.1,502.2)" />
</g>
<path d="M243,516.2l1.5,-1.3l4,8.8l4.2,-23H314" class="g3_59" />
<path fill-rule="evenodd" d="M242.9,516l2.1,-1.7l3.5,7.3l3.9,-21.3H314v.8H253l-4.1,22.6h-.8l-4,-8.2l-1,.9l-.2,-.4Z" class="g4_59" />
<path d="M241.6,498h73.6" class="g8_59" />
<g fill="#000000" >
<use xlink:href="#f1_l" transform="matrix(7.8,0,0,7.8,305.1,513)" />
<use xlink:href="#f1_l" transform="matrix(10.4,0,0,10.4,290.5,491.9)" />
<use xlink:href="#f1_h" transform="matrix(10.4,0,0,10.4,337.9,502.2)" />
<use xlink:href="#f1_n" transform="matrix(10.4,0,0,10.4,253.2,522.6)" />
<use xlink:href="#f2_2j" transform="matrix(10.4,0,0,10.4,258.2,491.9)" />
<use xlink:href="#f2_1z" transform="matrix(10.4,0,0,10.4,319.1,502.2)" />
<use xlink:href="#f2_2j" transform="matrix(10.4,0,0,10.4,328.4,502.2)" />
<use xlink:href="#f2_2j" transform="matrix(10.4,0,0,10.4,262.5,522.6)" />
<use xlink:href="#f2_2j" transform="matrix(10.4,0,0,10.4,294.7,522.6)" />
<use xlink:href="#f3_f" transform="matrix(10.4,0,0,10.4,274.9,491.9)" />
<use xlink:href="#f3_h" transform="matrix(10.4,0,0,10.4,279.1,522.6)" />
<use xlink:href="#f3_50" transform="matrix(20.8,0,0,20.8,227.6,510.7)" />
<use xlink:href="#f1_b" transform="matrix(10.4,0,0,10.4,462.9,502.2)" />
<use xlink:href="#f1_2j" transform="matrix(10.4,0,0,10.4,468.2,502.2)" />
<use xlink:href="#f1_c" transform="matrix(10.4,0,0,10.4,476.4,502.2)" />
</g>
<path d="M527.3,495.1l1.6,-1.3l3.9,8.8l4.3,-23.1h80.7" class="g3_59" />
<path fill-rule="evenodd" d="M527.2,494.9l2.1,-1.7l3.5,7.3l4,-21.4h81v.8H537.4l-4.2,22.7h-.8l-3.9,-8.2l-1,.9l-.3,-.4Z" class="g4_59" />
<g fill="#000000" >
<use xlink:href="#f1_l" transform="matrix(7.9,0,0,7.9,608.8,492)" />
<use xlink:href="#f1_k" transform="matrix(10.5,0,0,10.5,536.2,501.6)" />
<use xlink:href="#f1_99" transform="matrix(10.5,0,0,10.5,582.1,501.6)" />
<use xlink:href="#f1_h" transform="matrix(10.5,0,0,10.5,635.4,501.6)" />
<use xlink:href="#f2_2j" transform="matrix(10.5,0,0,10.5,516.3,501.6)" />
<use xlink:href="#f2_2j" transform="matrix(10.5,0,0,10.5,565.1,501.6)" />
<use xlink:href="#f2_2j" transform="matrix(10.5,0,0,10.5,598.4,501.6)" />
<use xlink:href="#f2_1z" transform="matrix(10.5,0,0,10.5,616.5,501.6)" />
<use xlink:href="#f2_2j" transform="matrix(10.5,0,0,10.5,625.8,501.6)" />
<use xlink:href="#f3_f" transform="matrix(10.5,0,0,10.5,549.1,501.6)" />
<use xlink:href="#f3_50" transform="matrix(21,0,0,21,502.3,510.1)" />
<use xlink:href="#f1_b" transform="matrix(10.4,0,0,10.4,184.2,579.5)" />
<use xlink:href="#f1_2j" transform="matrix(10.4,0,0,10.4,189.5,579.5)" />
<use xlink:href="#f1_24" transform="matrix(10.4,0,0,10.4,197.8,579.5)" />
<use xlink:href="#f1_c" transform="matrix(10.4,0,0,10.4,201.3,579.5)" />
<use xlink:href="#f3_c" transform="matrix(10.4,0,0,11.4,240.6,577.6)" />
<use xlink:href="#f3_d" transform="matrix(10.4,0,0,11.4,299.2,577.6)" />
</g>
<path d="M309,573.2l1.5,-1.3l4,8.8l4.2,-23.1h80.2" class="g3_59" />
<path fill-rule="evenodd" d="M308.9,573l2.1,-1.7l3.5,7.3l4,-21.4h80.4v.8H319.1l-4.2,22.7h-.8l-4,-8.2l-1,.9l-.2,-.4Z" class="g4_59" />
<g fill="#000000" >
<use xlink:href="#f1_l" transform="matrix(7.9,0,0,7.9,329.9,570.1)" />
<use xlink:href="#f1_m" transform="matrix(10.5,0,0,10.5,247.6,579.7)" />
<use xlink:href="#f1_l" transform="matrix(10.5,0,0,10.5,289.1,579.7)" />
<use xlink:href="#f1_k" transform="matrix(10.5,0,0,10.5,392,579.7)" />
<use xlink:href="#f1_h" transform="matrix(10.5,0,0,10.5,425.2,579.7)" />
<use xlink:href="#f2_2j" transform="matrix(10.5,0,0,10.5,256.8,579.7)" />
<use xlink:href="#f2_2j" transform="matrix(10.5,0,0,10.5,319.4,579.7)" />
<use xlink:href="#f2_2j" transform="matrix(10.5,0,0,10.5,360.8,579.7)" />
<use xlink:href="#f2_1z" transform="matrix(10.5,0,0,10.5,406.4,579.7)" />
<use xlink:href="#f2_2j" transform="matrix(10.5,0,0,10.5,415.7,579.7)" />
<use xlink:href="#f3_h" transform="matrix(10.5,0,0,10.5,273.6,579.7)" />
<use xlink:href="#f3_f" transform="matrix(10.5,0,0,10.5,344.8,579.7)" />
<use xlink:href="#f3_f" transform="matrix(10.5,0,0,10.5,377.6,579.7)" />
<use xlink:href="#f3_50" transform="matrix(21,0,0,21,227.3,588.2)" />
<use xlink:href="#f1_b" transform="matrix(10.4,0,0,10.4,455.7,579.5)" />
<use xlink:href="#f1_2j" transform="matrix(10.4,0,0,10.4,461.1,579.5)" />
<use xlink:href="#f1_24" transform="matrix(10.4,0,0,10.4,469,579.5)" />
<use xlink:href="#f1_24" transform="matrix(10.4,0,0,10.4,472.6,579.5)" />
<use xlink:href="#f1_c" transform="matrix(10.4,0,0,10.4,476.1,579.5)" />
</g>
<path d="M516.8,574.9l1.6,-.9l3.9,6.5l4.2,-17.2h68.7" class="g3_59" />
<path fill-rule="evenodd" d="M516.7,574.7l2.1,-1.2l3.5,5.4l4,-15.9h68.9v.7H526.8l-4.1,16.8h-.8l-3.9,-6l-1.1,.7l-.2,-.5Z" class="g4_59" />
<g fill="#000000" >
<use xlink:href="#f1_2e" transform="matrix(10.7,0,0,10.6,527,579.1)" />
<use xlink:href="#f1_20" transform="matrix(10.7,0,0,10.6,535.3,579.1)" />
<use xlink:href="#f1_1y" transform="matrix(10.7,0,0,10.6,544.6,579.1)" />
<use xlink:href="#f1_k" transform="matrix(10.7,0,0,10.6,588.3,579.1)" />
<use xlink:href="#f1_h" transform="matrix(10.7,0,0,10.6,621.5,579.1)" />
<use xlink:href="#f2_2j" transform="matrix(10.7,0,0,10.6,557.1,579.1)" />
<use xlink:href="#f2_1z" transform="matrix(10.7,0,0,10.6,602.6,579.1)" />
<use xlink:href="#f2_2j" transform="matrix(10.7,0,0,10.6,612,579.1)" />
<use xlink:href="#f3_f" transform="matrix(10.6,0,0,10.6,573.9,579.1)" />
<use xlink:href="#f3_50" transform="matrix(21.3,0,0,21.2,502.5,587.8)" />
<use xlink:href="#f1_n" transform="matrix(10.4,0,0,10.4,129.2,627.4)" />
<use xlink:href="#f1_m" transform="matrix(10.4,0,0,10.4,138.1,627.4)" />
<use xlink:href="#f1_h" transform="matrix(10.4,0,0,10.4,147.3,627.4)" />
<use xlink:href="#f1_14" transform="matrix(10.4,0,0,10.4,169.9,627.4)" />
<use xlink:href="#f1_2h" transform="matrix(10.4,0,0,10.4,180.6,627.4)" />
<use xlink:href="#f1_1w" transform="matrix(10.4,0,0,10.4,188.5,627.4)" />
<use xlink:href="#f1_27" transform="matrix(10.4,0,0,10.4,197.4,627.4)" />
<use xlink:href="#f1_2g" transform="matrix(10.4,0,0,10.4,200.9,627.4)" />
<use xlink:href="#f1_1w" transform="matrix(10.4,0,0,10.4,209.8,627.4)" />
<use xlink:href="#f1_2f" transform="matrix(10.4,0,0,10.4,218.7,627.4)" />
<use xlink:href="#f1_20" transform="matrix(10.4,0,0,10.4,223.1,627.4)" />
<use xlink:href="#f1_t" transform="matrix(10.4,0,0,10.4,239.7,627.4)" />
<use xlink:href="#f1_b" transform="matrix(10.4,0,0,10.4,192.5,671.2)" />
<use xlink:href="#f1_24" transform="matrix(10.4,0,0,10.4,197.8,671.2)" />
<use xlink:href="#f1_c" transform="matrix(10.4,0,0,10.4,201.3,671.2)" />
<use xlink:href="#f3_c" transform="matrix(10.5,0,0,16.3,256.6,686.1)" />
<use xlink:href="#f3_d" transform="matrix(10.5,0,0,16.3,311.8,686.2)" />
</g>
<path d="M241.8,667.1h75.6" class="g9_59" />
<g fill="#000000" >
<use xlink:href="#f1_q" transform="matrix(7.9,0,0,7.9,274.2,680)" />
<use xlink:href="#f1_h" transform="matrix(10.6,0,0,10.6,317.4,671.4)" />
<use xlink:href="#f1_k" transform="matrix(10.6,0,0,10.6,303.9,689.7)" />
<use xlink:href="#f2_1z" transform="matrix(10.6,0,0,10.6,269.5,660.9)" />
<use xlink:href="#f2_2j" transform="matrix(10.6,0,0,10.6,278.9,660.9)" />
<use xlink:href="#f2_2j" transform="matrix(10.6,0,0,10.6,242.7,689.7)" />
<use xlink:href="#f2_2j" transform="matrix(10.6,0,0,10.6,263.8,689.7)" />
<use xlink:href="#f3_f" transform="matrix(10.6,0,0,10.6,289.4,689.7)" />
<use xlink:href="#f3_50" transform="matrix(21.2,0,0,21.2,227.4,680)" />
<use xlink:href="#f1_b" transform="matrix(10.4,0,0,10.4,188.8,745.8)" />
<use xlink:href="#f1_24" transform="matrix(10.4,0,0,10.4,194.1,745.8)" />
<use xlink:href="#f1_24" transform="matrix(10.4,0,0,10.4,197.7,745.8)" />
<use xlink:href="#f1_c" transform="matrix(10.4,0,0,10.4,201.2,745.8)" />
<use xlink:href="#f3_c" transform="matrix(10.4,0,0,11.4,241.8,760)" />
<use xlink:href="#f3_d" transform="matrix(10.4,0,0,11.4,317.9,760)" />
<use xlink:href="#f3_c" transform="matrix(10.4,0,0,11.4,326.6,760)" />
<use xlink:href="#f3_d" transform="matrix(10.4,0,0,11.4,419.2,760)" />
</g>
<path d="M241.7,742.2H424.8" class="g5_59" />
<g fill="#000000" >
<use xlink:href="#f1_2e" transform="matrix(10.5,0,0,10.5,315.7,736.1)" />
<use xlink:href="#f1_24" transform="matrix(10.5,0,0,10.5,324.1,736.1)" />
<use xlink:href="#f1_29" transform="matrix(10.5,0,0,10.5,327.8,736.1)" />
<use xlink:href="#f1_h" transform="matrix(10.5,0,0,10.5,447.7,746.5)" />
<use xlink:href="#f1_k" transform="matrix(10.5,0,0,10.5,247.6,762.1)" />
<use xlink:href="#f1_1y" transform="matrix(10.5,0,0,10.5,276.3,762.1)" />
<use xlink:href="#f1_2a" transform="matrix(10.5,0,0,10.5,284.6,762.1)" />
<use xlink:href="#f1_2e" transform="matrix(10.5,0,0,10.5,293.9,762.1)" />
<use xlink:href="#f1_l" transform="matrix(10.5,0,0,10.5,333.6,762.1)" />
<use xlink:href="#f1_m" transform="matrix(10.5,0,0,10.5,364.6,762.1)" />
<use xlink:href="#f1_1y" transform="matrix(10.5,0,0,10.5,377.6,762.1)" />
<use xlink:href="#f1_2a" transform="matrix(10.5,0,0,10.5,385.9,762.1)" />
<use xlink:href="#f1_2e" transform="matrix(10.5,0,0,10.5,395.2,762.1)" />
<use xlink:href="#f2_2j" transform="matrix(10.5,0,0,10.5,340.8,736.1)" />
<use xlink:href="#f2_1z" transform="matrix(10.5,0,0,10.5,428.9,746.5)" />
<use xlink:href="#f2_2j" transform="matrix(10.5,0,0,10.5,438.2,746.5)" />
<use xlink:href="#f2_2j" transform="matrix(10.5,0,0,10.5,306.4,762.1)" />
<use xlink:href="#f2_2j" transform="matrix(10.5,0,0,10.5,407.6,762.1)" />
<use xlink:href="#f3_f" transform="matrix(10.5,0,0,10.5,260.5,762.1)" />
<use xlink:href="#f3_f" transform="matrix(10.5,0,0,10.5,348.9,762.1)" />
<use xlink:href="#f3_50" transform="matrix(21,0,0,21,227.4,755.1)" />
<use xlink:href="#f1_b" transform="matrix(10.4,0,0,10.4,185.3,818.4)" />
<use xlink:href="#f1_24" transform="matrix(10.4,0,0,10.4,190.6,818.4)" />
<use xlink:href="#f1_24" transform="matrix(10.4,0,0,10.4,194.2,818.4)" />
<use xlink:href="#f1_24" transform="matrix(10.4,0,0,10.4,197.7,818.4)" />
<use xlink:href="#f1_c" transform="matrix(10.4,0,0,10.4,201.3,818.4)" />
</g>
<path d="M241.6,813.8H380.4" class="g10_59" />
<g fill="#000000" >
<use xlink:href="#f1_l" transform="matrix(7.9,0,0,7.8,268.4,825.4)" />
<use xlink:href="#f1_2e" transform="matrix(10.5,0,0,10.4,273.8,807.7)" />
<use xlink:href="#f1_24" transform="matrix(10.5,0,0,10.4,282,807.7)" />
<use xlink:href="#f1_29" transform="matrix(10.5,0,0,10.4,285.8,807.7)" />
<use xlink:href="#f1_1y" transform="matrix(10.5,0,0,10.4,310.7,807.7)" />
<use xlink:href="#f1_2a" transform="matrix(10.5,0,0,10.4,318.9,807.7)" />
<use xlink:href="#f1_2e" transform="matrix(10.5,0,0,10.4,328.2,807.7)" />
<use xlink:href="#f1_h" transform="matrix(10.5,0,0,10.4,403.3,818)" />
<use xlink:href="#f1_1y" transform="matrix(10.5,0,0,10.4,242.4,834.9)" />
<use xlink:href="#f1_2a" transform="matrix(10.5,0,0,10.4,250.7,834.9)" />
<use xlink:href="#f1_2e" transform="matrix(10.5,0,0,10.4,260,834.9)" />
<use xlink:href="#f1_1y" transform="matrix(10.5,0,0,10.4,311.1,834.9)" />
<use xlink:href="#f1_2a" transform="matrix(10.5,0,0,10.4,319.4,834.9)" />
<use xlink:href="#f1_2e" transform="matrix(10.5,0,0,10.4,328.7,834.9)" />
<use xlink:href="#f1_l" transform="matrix(10.5,0,0,10.4,371.2,834.9)" />
<use xlink:href="#f2_1z" transform="matrix(10.5,0,0,10.4,384.4,818)" />
<use xlink:href="#f3_2d" transform="matrix(10.5,0,0,10.4,298.3,807.7)" />
<use xlink:href="#f3_2d" transform="matrix(10.5,0,0,10.4,340.1,807.7)" />
<use xlink:href="#f3_2d" transform="matrix(10.5,0,0,10.4,395.6,818)" />
<use xlink:href="#f3_2d" transform="matrix(10.5,0,0,10.4,280.5,834.9)" />
<use xlink:href="#f3_h" transform="matrix(10.5,0,0,10.4,295.7,834.9)" />
<use xlink:href="#f3_2d" transform="matrix(10.5,0,0,10.4,340.6,834.9)" />
<use xlink:href="#f3_h" transform="matrix(10.5,0,0,10.4,355.8,834.9)" />
<use xlink:href="#f3_50" transform="matrix(20.9,0,0,20.9,227.4,826.5)" />
<use xlink:href="#f4_o" transform="matrix(8,0,0,8,730,1122.4)" />
</g>
<g fill="#0080FF" fill-opacity="0.5" >
<use xlink:href="#f0_1c" transform="matrix(42.3,0,0,42.3,202.9,1095.2)" />
<use xlink:href="#f0_21" transform="matrix(42.3,0,0,42.3,238.8,1095.2)" />
<use xlink:href="#f0_1x" transform="matrix(42.3,0,0,42.3,274.7,1095.2)" />
<use xlink:href="#f0_2e" transform="matrix(42.3,0,0,42.3,310.7,1095.2)" />
<use xlink:href="#f0_2a" transform="matrix(42.3,0,0,42.3,332.2,1095.2)" />
<use xlink:href="#f0_17" transform="matrix(42.3,0,0,42.3,368.1,1095.2)" />
<use xlink:href="#f0_2h" transform="matrix(42.3,0,0,42.3,418.4,1095.2)" />
<use xlink:href="#f0_25" transform="matrix(42.3,0,0,42.3,454.3,1095.2)" />
<use xlink:href="#f0_20" transform="matrix(42.3,0,0,42.3,468.7,1095.2)" />
<use xlink:href="#f0_21" transform="matrix(42.3,0,0,42.3,504.6,1095.2)" />
<use xlink:href="#f0_i" transform="matrix(42.3,0,0,42.3,540.5,1095.2)" />
<use xlink:href="#f0_25" transform="matrix(42.3,0,0,42.3,558.5,1095.2)" />
<use xlink:href="#f0_2a" transform="matrix(42.3,0,0,42.3,572.8,1095.2)" />
</g>
<defs>
<path d="M593,101c0,0,182,0,279,112c0,0,98,113,98,318c0,0,0,196,-98,308c0,0,-98,112,-277,112c0,0,-181,0,-279,-110c0,0,-99,-111,-99,-310c0,0,0,-198,100,-314c0,0,99,-116,276,-116Zm0,-115c0,0,-162,0,-279,65c0,0,-118,66,-180,190c0,0,-62,124,-62,290c0,0,0,252,138,394c0,0,138,142,385,142c0,0,160,0,278,-64c0,0,118,-64,180,-185c0,0,62,-122,62,-287c0,0,0,-165,-63,-289c0,0,-63,-124,-181,-190c0,0,-118,-66,-278,-66Z" 
id="f0_1f"
transform="scale(0.001,-0.001)" />

<path d="M106,0V635c0,0,0,141,-5,173H228c0,0,1,-4,2,-21c0,0,1,-16,2,-37c0,0,1,-22,2,-81h2c0,0,47,84,108,119c0,0,60,34,151,34c0,0,132,0,194,-66c0,0,61,-66,61,-218V0H615V512c0,0,0,80,-15,124c0,0,-16,44,-50,63c0,0,-35,20,-101,20c0,0,-97,0,-153,-67c0,0,-56,-66,-56,-184V0Z" 
id="f0_2a"
transform="scale(0.001,-0.001)" />

<path d="M103,0V1107H237V0Z" 
id="f0_28"
transform="scale(0.001,-0.001)" />

<path d="M102,0V808H236V0Zm0,979v128H236V979Z" 
id="f0_25"
transform="scale(0.001,-0.001)" />

<path d="M643,478c0,0,-11,128,-65,187c0,0,-54,59,-154,59c0,0,-98,0,-155,-66c0,0,-57,-65,-62,-180ZM431,-14c0,0,-179,0,-272,106c0,0,-94,107,-94,317c0,0,0,200,94,307c0,0,93,106,267,106c0,0,356,0,356,-429V375H206c0,0,0,-138,57,-213c0,0,58,-75,168,-75c0,0,87,0,140,35c0,0,53,35,71,88L760,177c0,0,-72,-191,-329,-191Z" 
id="f0_21"
transform="scale(0.001,-0.001)" />

<path d="M17,0L304,415L31,808H179L380,493L580,808H730L457,417L747,0H598L380,331L162,0Z" 
id="f0_2k"
transform="scale(0.001,-0.001)" />

<path d="M339,87c0,0,74,0,132,34c0,0,57,33,90,91c0,0,34,59,34,121v66L448,396c0,0,-95,-2,-144,-19c0,0,-49,-18,-75,-55c0,0,-26,-38,-26,-98c0,0,0,-65,35,-101c0,0,36,-36,101,-36ZM309,-14c0,0,-122,0,-183,64c0,0,-61,64,-61,176c0,0,0,125,82,192c0,0,83,67,266,72l182,3v44c0,0,0,98,-42,141c0,0,-42,43,-132,43c0,0,-90,0,-131,-31c0,0,-41,-31,-49,-98L101,604c0,0,34,218,323,218c0,0,153,0,229,-70c0,0,77,-69,77,-202V202c0,0,0,-59,16,-90c0,0,16,-30,60,-30c0,0,19,0,44,5V4C850,4,799,-7,746,-7c0,0,-75,0,-109,38c0,0,-33,40,-38,124h-4C595,155,543,62,475,24c0,0,-68,-38,-166,-38Z" 
id="f0_1x"
transform="scale(0.001,-0.001)" />

<path d="M106,0V635c0,0,0,141,-5,173H228c0,0,1,-4,2,-21c0,0,1,-16,2,-37c0,0,1,-22,2,-81h2c0,0,44,86,100,120c0,0,56,33,136,33c0,0,92,0,145,-36c0,0,54,-37,75,-117h2c0,0,42,82,101,117c0,0,59,36,143,36c0,0,123,0,178,-66c0,0,56,-67,56,-218V0H1039V512c0,0,0,117,-32,162c0,0,-32,45,-116,45c0,0,-88,0,-136,-66c0,0,-49,-65,-49,-185V0H573V512c0,0,0,117,-32,162c0,0,-32,45,-116,45c0,0,-86,0,-136,-66c0,0,-50,-66,-50,-185V0Z" 
id="f0_29"
transform="scale(0.001,-0.001)" />

<path d="M453,84c0,0,100,0,146,74c0,0,46,73,46,247c0,0,0,169,-46,241c0,0,-45,73,-145,73c0,0,-80,0,-125,-34c0,0,-45,-34,-68,-105c0,0,-24,-71,-24,-186c0,0,0,-159,51,-234c0,0,51,-76,165,-76ZM103,-316V643c0,0,0,124,-5,165H228c0,0,1,-3,3,-22c0,0,1,-18,3,-56c0,0,2,-38,2,-52h3c0,0,36,75,94,110c0,0,59,34,156,34c0,0,149,0,223,-100c0,0,74,-100,74,-314c0,0,0,-422,-297,-422c0,0,-187,0,-251,140h-4c0,0,3,-6,3,-126V-316Z" 
id="f0_2c"
transform="scale(0.001,-0.001)" />

<path d="M420,84c0,0,121,0,173,78c0,0,52,77,52,243c0,0,0,167,-50,243c0,0,-50,76,-167,76c0,0,-118,0,-170,-78c0,0,-53,-77,-53,-241c0,0,0,-160,52,-241c0,0,52,-80,163,-80Zm1,-98c0,0,-176,0,-267,107c0,0,-90,108,-90,312c0,0,0,417,362,417c0,0,185,0,272,-102c0,0,88,-101,88,-315c0,0,0,-212,-94,-316C692,89,599,-14,421,-14Z" 
id="f0_2b"
transform="scale(0.001,-0.001)" />

<path d="M278,-11c0,0,-162,0,-162,182V710H23v98h99l39,181h90V808H400V710H251V200c0,0,0,-58,19,-82c0,0,19,-23,66,-23c0,0,27,0,77,10V6c0,0,-66,-17,-135,-17Z" 
id="f0_2g"
transform="scale(0.001,-0.001)" />

<path d="M511,373V863L169,383l-7,-10ZM511,0V258H38V383l496,691H646V373H799V258H646V0Z" 
id="f1_n"
transform="scale(0.001,-0.001)" />

<path d="M39,0V0c0,0,0,170,84,277c0,0,85,108,317,236c0,0,113,62,154,115c0,0,41,52,41,134c0,0,0,86,-62,141c0,0,-61,54,-156,54c0,0,-101,0,-158,-68c0,0,-57,-68,-60,-194H67c0,0,-2,178,95,279c0,0,98,101,273,101c0,0,149,0,245,-89c0,0,94,-88,94,-228c0,0,0,-118,-60,-195c0,0,-61,-76,-229,-169C485,394,303,294,237,212c0,0,-28,-36,-46,-81H774V0Z" 
id="f1_l"
transform="scale(0.001,-0.001)" />

<path d="M133,0V162H292V0Z" 
id="f1_h"
transform="scale(0.001,-0.001)" />

<path d="M131,0V1097H934V966H280V631H877V500H280V131H942V0Z" 
id="f1_14"
transform="scale(0.001,-0.001)" />

<path d="M310,0L12,799H168L383,145L604,799H752L454,0Z" 
id="f1_2h"
transform="scale(0.001,-0.001)" />

<path d="M335,90c0,0,106,0,179,57c0,0,50,41,67,91c0,0,3,10,4,31c0,0,3,21,3,47v87c0,0,-38,-18,-83,-25L381,360c0,0,-97,-13,-142,-45c0,0,-44,-31,-44,-86c0,0,0,-67,36,-103c0,0,37,-36,104,-36ZM309,-20c0,0,-117,0,-186,61c0,0,-68,63,-68,169c0,0,0,108,64,171c0,0,65,64,189,79l183,23c0,0,22,3,42,8c0,0,26,7,40,27c0,0,15,20,15,51v6c0,0,0,64,-49,101c0,0,-48,36,-135,36c0,0,-83,0,-130,-38c0,0,-46,-39,-56,-115H94c0,0,10,131,92,197c0,0,83,66,238,66c0,0,145,0,222,-63c0,0,76,-63,76,-184V137c0,0,0,-21,12,-33c0,0,12,-12,33,-12c0,0,6,0,18,1c0,0,11,2,25,5V1c0,0,-20,-7,-41,-11c0,0,-22,-5,-37,-5c0,0,-76,0,-110,41c0,0,-22,28,-32,79c0,0,-15,-19,-34,-36c0,0,-101,-89,-247,-89Z" 
id="f1_1w"
transform="scale(0.001,-0.001)" />

<path d="M103,0V1097H237V0Z" 
id="f1_27"
transform="scale(0.001,-0.001)" />

<path d="M375,-20c0,0,-136,0,-203,66c0,0,-68,68,-68,204V799H238V284c0,0,0,-101,38,-146c0,0,39,-44,127,-44c0,0,97,0,153,75c0,0,57,75,57,203V799H747V0H620V122c0,0,-14,-22,-30,-41C590,81,504,-20,375,-20Z" 
id="f1_2g"
transform="scale(0.001,-0.001)" />

<path d="M292,-9c0,0,-88,0,-124,38c0,0,-36,39,-36,134V689H22V799H132v224H266V799H392V689H266V163c0,0,0,-27,21,-43c0,0,21,-15,57,-15h48V1C392,1,324,-9,292,-9Z" 
id="f1_2f"
transform="scale(0.001,-0.001)" />

<path d="M649,461c0,0,-6,111,-55,172c0,0,-55,69,-160,69c0,0,-106,0,-170,-79c0,0,-50,-62,-60,-162ZM425,-20c0,0,-169,0,-266,106c0,0,-97,107,-97,297c0,0,0,201,102,320c0,0,103,119,276,119c0,0,157,0,253,-116c0,0,96,-117,96,-306l-1,-48H204c0,0,8,-119,54,-182c0,0,57,-76,180,-76c0,0,77,0,134,43c0,0,58,43,70,110H775C775,247,746,116,656,47c0,0,-90,-67,-231,-67Z" 
id="f1_20"
transform="scale(0.001,-0.001)" />

<path d="M133,0V162H292V0Zm0,628V790H292V628Z" 
id="f1_t"
transform="scale(0.001,-0.001)" />

<path d="M365,-315c0,0,-136,187,-199,359c0,0,-62,172,-62,359c0,0,0,186,62,358c0,0,63,172,199,360h92c0,0,-110,-192,-160,-365c0,0,-51,-172,-51,-353c0,0,0,-183,51,-355c0,0,50,-172,160,-363Z" 
id="f1_b"
transform="scale(0.001,-0.001)" />

<path d="M104,0V799H238V0Zm-2,946v152H239V946Z" 
id="f1_24"
transform="scale(0.001,-0.001)" />

<path d="M52,-315c0,0,109,192,160,363c0,0,50,173,50,354c0,0,0,183,-50,355c0,0,-51,173,-160,364h92c0,0,135,-188,198,-360c0,0,63,-172,63,-359c0,0,0,-187,-63,-359c0,0,-63,-171,-198,-358Z" 
id="f1_c"
transform="scale(0.001,-0.001)" />

<path d="M406,0V763H155V870h2c16,0,114,2,178,48c0,0,70,51,104,157H549V0Z" 
id="f1_k"
transform="scale(0.001,-0.001)" />

<path d="M17,0L389,412L201,800H376L500,518L742,800H904L554,410L750,0H580L448,303L187,0Z" 
id="f2_2j"
transform="scale(0.001,-0.001)" />

<path d="M431,94c0,0,95,0,170,76c0,0,76,77,101,198c0,0,35,167,-1,250c0,0,-37,84,-144,84c0,0,-128,0,-210,-117c0,0,-81,-117,-81,-302c0,0,0,-90,43,-139c0,0,44,-50,122,-50ZM400,-20c0,0,-126,0,-199,79c0,0,-73,80,-73,219c0,0,0,234,122,390c0,0,122,155,305,155c0,0,144,0,209,-127l8,-16l86,417H993L767,0H638l22,108L642,90C642,90,532,-20,400,-20Z" 
id="f2_1z"
transform="scale(0.001,-0.001)" />

<path d="M355,0V355H0v72H355V784h72V427H782V355H427V0Z" 
id="f3_f"
transform="scale(0.001,-0.001)" />

<path d="M238,-163c0,0,-39,0,-63,25c0,0,-25,26,-25,65c0,0,0,34,19,54c0,0,19,19,48,19c0,0,30,0,51,-23c0,0,22,-24,37,-24c0,0,12,0,21,11c0,0,8,10,8,35c0,0,0,30,-7,88c0,0,-27,235,-27,620c0,0,13,411,17,446c0,0,17,139,60,188c0,0,43,48,98,48c0,0,37,0,65,-25c0,0,28,-25,28,-54c0,0,0,-35,-19,-57c0,0,-20,-21,-49,-21c0,0,-26,0,-57,27c0,0,-17,15,-30,15c0,0,-12,0,-21,-11c0,0,-8,-11,-8,-37c0,0,0,-31,6,-108c0,0,28,-306,28,-496c0,0,0,-50,-12,-439c0,0,-6,-219,-67,-296c0,0,-41,-50,-101,-50Z" 
id="f3_50"
transform="scale(0.001,-0.001)" />

<path d="M394,657L295,803L196,658l-75,54L229,851L60,898l28,88L255,927l-6,176h93L337,927l166,59l29,-88L362,849L470,712L394,657Z" 
id="f1_d"
transform="scale(0.001,-0.001)" />

<path d="M412,-328c0,0,-195,96,-303,284C109,-44,0,142,0,365c0,0,0,232,114,422c0,0,114,191,298,273v-31c0,0,-92,-51,-151,-139c0,0,-59,-88,-88,-223c0,0,-29,-136,-29,-282c0,0,0,-167,27,-301c0,0,26,-133,82,-221c0,0,55,-89,159,-159v-32Z" 
id="f3_c"
transform="scale(0.001,-0.001)" />

<path d="M34,-328v32c0,0,92,50,151,138c0,0,59,88,88,222c0,0,29,135,29,283c0,0,0,165,-27,300c0,0,-26,134,-82,222c0,0,-56,89,-159,160v31c0,0,194,-96,303,-284c0,0,108,-187,108,-410c0,0,0,-232,-114,-422c0,0,-114,-191,-297,-272Z" 
id="f3_d"
transform="scale(0.001,-0.001)" />

<path d="M432,92c0,0,96,0,156,66c0,0,61,65,61,169c0,0,0,103,-61,169c0,0,-60,66,-156,66c0,0,-95,0,-156,-66c0,0,-61,-66,-61,-169c0,0,0,-104,61,-169c0,0,61,-66,156,-66ZM425,-28c0,0,-176,0,-271,135c0,0,-95,136,-95,388c0,0,0,278,103,429c0,0,103,151,293,151c0,0,142,0,226,-77c0,0,84,-76,90,-211H638c0,0,-8,80,-56,123c0,0,-47,43,-127,43c0,0,-125,0,-192,-119c0,0,-58,-102,-64,-278c0,0,100,127,255,127c0,0,152,0,245,-98c0,0,93,-98,93,-258c0,0,0,-161,-101,-259c0,0,-101,-96,-266,-96Z" 
id="f1_p"
transform="scale(0.001,-0.001)" />

<path d="M424,94c0,0,107,0,169,83c0,0,63,83,63,223c0,0,0,140,-63,224c0,0,-62,83,-169,83c0,0,-106,0,-168,-83c0,0,-62,-84,-62,-224c0,0,0,-140,62,-223c0,0,62,-83,168,-83Zm0,-114c0,0,-165,0,-268,115C156,95,54,211,54,400c0,0,0,189,102,306c0,0,103,116,268,116c0,0,168,0,270,-116c0,0,102,-117,102,-306c0,0,0,-189,-102,-305C694,95,592,-20,424,-20Z" 
id="f1_2a"
transform="scale(0.001,-0.001)" />

<path d="M418,95c0,0,98,0,158,73c0,0,59,73,59,193c0,0,0,170,-54,254c0,0,-54,85,-163,85c0,0,-113,0,-165,-72c0,0,-52,-71,-52,-227c0,0,0,-147,57,-227c0,0,56,-79,160,-79ZM394,-336c0,0,-136,0,-216,62c0,0,-79,63,-96,182H219c0,0,12,-64,57,-98c0,0,45,-35,116,-35c0,0,116,0,176,73c0,0,61,73,61,211V85l-1,-1C628,84,545,-20,412,-20c0,0,-161,0,-256,118c0,0,-94,120,-94,324c0,0,0,179,93,290c0,0,93,110,244,110c0,0,144,0,228,-124l10,-14V799H763V59c0,0,-1,-201,-91,-298c0,0,-91,-97,-278,-97Z" 
id="f1_22"
transform="scale(0.001,-0.001)" />

<path d="M212,0c0,0,51,270,162,500c0,0,109,222,281,422H57v131H799V934C799,934,623,726,515,498C515,498,408,269,362,0Z" 
id="f1_q"
transform="scale(0.001,-0.001)" />

<path d="M0,-123V1415H525v-72H72V-123Z" 
id="f3_4r"
transform="scale(0.001,-0.001)" />

<path d="M478,-123V1343H26v72H550V-123Z" 
id="f3_57"
transform="scale(0.001,-0.001)" />

<path d="M0,-123V1415H72V-51H525v-72Z" 
id="f3_4t"
transform="scale(0.001,-0.001)" />

<path d="M26,-123v72H478V1415h72V-123Z" 
id="f3_59"
transform="scale(0.001,-0.001)" />

<path d="M0,356v74H784V356Z" 
id="f3_h"
transform="scale(0.001,-0.001)" />

<path d="M419,483c0,0,93,0,152,66c0,0,59,66,59,169c0,0,0,103,-59,169c0,0,-59,65,-152,65c0,0,-94,0,-153,-65c0,0,-59,-66,-59,-169c0,0,0,-103,59,-169c0,0,59,-66,153,-66ZM397,-28c0,0,-143,0,-227,75c0,0,-85,77,-91,211H209c0,0,8,-83,57,-128c0,0,49,-45,131,-45c0,0,121,0,186,135c0,0,48,101,62,265C645,485,545,362,397,362c0,0,-150,0,-241,98c0,0,-91,98,-91,258c0,0,0,160,99,258c0,0,99,98,262,98c0,0,173,0,266,-123c0,0,94,-123,94,-349c0,0,0,-303,-101,-467C685,135,583,-28,397,-28Z" 
id="f1_s"
transform="scale(0.001,-0.001)" />

<path d="M424,92c0,0,98,0,161,58c0,0,62,58,62,149c0,0,0,92,-62,151c0,0,-63,58,-161,58c0,0,-98,0,-160,-58c0,0,-63,-59,-63,-151c0,0,0,-91,63,-149c0,0,62,-58,160,-58Zm0,533c0,0,82,0,134,46c0,0,52,45,52,118c0,0,0,72,-52,118c0,0,-52,46,-134,46c0,0,-82,0,-134,-46c0,0,-52,-46,-52,-118c0,0,0,-73,52,-119c0,0,52,-45,134,-45Zm0,-653c0,0,-165,0,-265,90C159,62,59,154,59,305c0,0,0,134,100,216c0,0,35,28,78,47c0,0,-27,15,-52,33c0,0,-90,70,-90,185c0,0,0,130,90,209c0,0,91,80,239,80c0,0,148,0,238,-80c0,0,91,-79,91,-209c0,0,0,-115,-91,-185c0,0,-24,-19,-52,-32c0,0,44,-20,79,-49c0,0,101,-81,101,-215c0,0,0,-151,-101,-243c0,0,-100,-90,-265,-90Z" 
id="f1_r"
transform="scale(0.001,-0.001)" />

<path d="M354,90c0,0,107,0,192,57c0,0,60,41,87,95c0,0,5,12,11,33c0,0,6,20,11,44l18,88c0,0,-62,-26,-132,-37L414,352c0,0,-84,-11,-131,-56c0,0,-47,-45,-47,-113c0,0,0,-44,31,-69c0,0,31,-24,87,-24ZM306,-20c0,0,-99,0,-156,47c0,0,-57,49,-57,134c0,0,1,117,81,198c0,0,80,81,211,98l164,20l70,10c0,0,35,6,59,30c0,0,23,24,31,66l1,2c0,0,13,64,-25,94c0,0,-39,31,-132,31c0,0,-83,0,-137,-37c0,0,-54,-37,-84,-114H210c0,0,46,137,138,201c0,0,92,63,245,63c0,0,149,0,211,-59c0,0,45,-44,44,-116c0,0,1,-30,-6,-63L749,136c0,0,-4,-19,6,-32c0,0,10,-12,30,-12c0,0,6,0,19,1c0,0,12,2,25,5L809,1c0,0,-19,-6,-43,-11c0,0,-22,-5,-36,-5c0,0,-73,0,-100,43c0,0,-16,27,-17,75C612,102,594,85,573,69c0,0,-120,-89,-267,-89Z" 
id="f2_1w"
transform="scale(0.001,-0.001)" />

<path d="M456,95c0,0,130,0,213,121c0,0,82,120,82,310c0,0,0,85,-44,131c0,0,-44,46,-125,46c0,0,-98,0,-174,-90c0,0,-76,-90,-108,-245c0,0,-26,-126,16,-199c0,0,42,-74,140,-74ZM436,-20c0,0,-132,0,-195,108l-5,7L217,0H89L316,1097H450L365,683l10,11c0,0,120,129,262,129c0,0,121,0,190,-77c0,0,69,-77,69,-211c0,0,0,-234,-134,-395C762,140,629,-20,436,-20Z" 
id="f2_1x"
transform="scale(0.001,-0.001)" />

<path d="M393,-20c0,0,-169,0,-252,65c0,0,-83,67,-92,210H178c0,0,10,-85,61,-123c0,0,50,-38,154,-38c0,0,90,0,136,34c0,0,47,35,47,100c0,0,0,42,-31,64c0,0,-30,21,-123,43L283,368c0,0,-112,27,-160,75c0,0,-48,48,-48,135c0,0,0,112,80,178c0,0,81,66,218,66c0,0,140,0,222,-68c0,0,82,-67,88,-187H557c0,0,-6,67,-55,103c0,0,-48,37,-129,37c0,0,-84,0,-127,-29c0,0,-44,-29,-44,-85c0,0,0,-43,31,-65c0,0,30,-21,121,-43L493,452c0,0,117,-28,167,-78c0,0,49,-49,49,-138c0,0,0,-119,-86,-188c0,0,-85,-68,-230,-68Z" 
id="f1_2e"
transform="scale(0.001,-0.001)" />

<path d="M99,0V799H226V681l30,39c0,0,87,102,219,102c0,0,132,0,203,-71c0,0,72,-72,72,-204V0H616V502c0,0,0,105,-41,151c0,0,-40,47,-132,47c0,0,-97,0,-154,-73c0,0,-56,-74,-56,-199V0Z" 
id="f1_29"
transform="scale(0.001,-0.001)" />

<path d="M316,27c0,0,57,0,105,53c0,0,65,72,125,295c0,0,-40,153,-104,214c0,0,-63,61,-129,61c0,0,-73,0,-122,-80c0,0,-48,-80,-48,-255c0,0,0,-104,20,-163c0,0,21,-60,64,-92c0,0,42,-33,89,-33Zm4,-49c0,0,-165,0,-243,108C77,86,0,196,0,336c0,0,0,164,91,265c0,0,91,102,213,102c0,0,85,0,150,-52c0,0,65,-51,118,-192l65,224H760L662,344c0,0,-9,-32,-30,-100c0,0,29,-115,43,-137c0,0,27,-41,68,-41c0,0,30,0,55,24c0,0,26,25,34,77h30C862,167,852,60,817,19c0,0,-35,-40,-81,-40c0,0,-42,0,-77,34c0,0,-35,36,-62,154c0,0,-33,-65,-65,-99C532,68,488,22,437,0c0,0,-52,-22,-117,-22Z" 
id="f3_1x"
transform="scale(0.001,-0.001)" />

<path d="M417,-28c0,0,-161,0,-259,79c0,0,-98,81,-109,223H189c0,0,11,-90,72,-139c0,0,61,-49,162,-49c0,0,96,0,158,68c0,0,61,68,61,175c0,0,0,112,-64,178c0,0,-64,66,-173,66c0,0,-59,0,-115,-28c0,0,-55,-29,-84,-73L93,480l77,573H727V922H271L225,629l4,3c0,0,89,60,188,60c0,0,169,0,269,-94c0,0,99,-93,99,-253c0,0,0,-165,-103,-269C682,76,579,-28,417,-28Z" 
id="f1_o"
transform="scale(0.001,-0.001)" />

<path d="M424,-28c0,0,-180,0,-272,86c0,0,-92,87,-100,266H192c0,0,12,-126,66,-180c0,0,55,-54,170,-54c0,0,100,0,163,57c0,0,64,57,64,147c0,0,0,94,-61,149c0,0,-52,48,-135,54c0,0,-38,2,-72,2c0,0,-34,0,-45,-3V613c0,0,17,-3,51,-3c0,0,35,0,68,4c0,0,66,8,106,43c0,0,55,45,55,125c0,0,0,77,-58,125c0,0,-58,48,-148,48c0,0,-96,0,-147,-58c0,0,-51,-59,-56,-175H82c0,0,0,168,89,260c0,0,88,93,250,93c0,0,153,0,247,-77c0,0,94,-76,94,-202c0,0,0,-124,-95,-201c0,0,-18,-15,-39,-27c0,0,39,-17,69,-41c0,0,101,-79,101,-214c0,0,0,-151,-105,-246c0,0,-104,-95,-269,-95Z" 
id="f1_m"
transform="scale(0.001,-0.001)" />

<path d="M17,0L301,412L32,799H205L389,514L574,799H740L471,410L749,0H581L382,305L186,0Z" 
id="f1_2j"
transform="scale(0.001,-0.001)" />

<path d="M0,368V478H849V368Z" 
id="f1_99"
transform="scale(0.001,-0.001)" />

<path d="M394,-20c0,0,-159,0,-253,113c0,0,-95,114,-95,307c0,0,0,193,98,308c0,0,98,114,264,114c0,0,144,0,230,-78c0,0,85,-79,91,-217H600c0,0,-8,86,-59,133c0,0,-52,47,-138,47c0,0,-101,0,-159,-82c0,0,-58,-82,-58,-225c0,0,0,-152,54,-229c0,0,53,-77,159,-77c0,0,79,0,132,50c0,0,52,51,69,143H729C729,287,709,137,623,58c0,0,-86,-78,-229,-78Z" 
id="f1_1y"
transform="scale(0.001,-0.001)" />

<path d="M338,28c0,0,48,0,91,45c0,0,43,45,65,144c0,0,22,99,26,276H143c0,0,3,-133,20,-239c0,0,13,-80,44,-140c0,0,19,-36,54,-61c0,0,36,-25,77,-25ZM522,543c0,0,-1,194,-37,312c0,0,-29,90,-76,129c0,0,-34,28,-79,28c0,0,-51,0,-93,-39c0,0,-43,-40,-65,-132c0,0,-22,-93,-29,-298ZM329,-21c0,0,-68,0,-124,31c0,0,-56,33,-99,95c0,0,-43,62,-66,131C40,236,0,356,0,489c0,0,0,294,119,453c0,0,91,119,217,119c0,0,122,0,209,-115c0,0,121,-160,121,-436c0,0,0,-263,-119,-415C547,95,455,-21,329,-21Z" 
id="f3_2d"
transform="scale(0.001,-0.001)" />

<path d="M494,385V878L152,385ZM494,0V262H20V385l498,708H628V385H775V262H628V0Z" 
id="f4_o"
transform="scale(0.001,-0.001)" />

<path d="M125,0V1051H268V115H799V0Z" 
id="f0_1c"
transform="scale(0.001,-0.001)" />

<path d="M106,0V620c0,0,0,85,-5,188H228c0,0,6,-138,6,-165h3c0,0,32,103,74,141c0,0,42,38,118,38c0,0,27,0,54,-7V692c0,0,-26,7,-71,7c0,0,-84,0,-128,-72c0,0,-44,-72,-44,-206V0Z" 
id="f0_2e"
transform="scale(0.001,-0.001)" />

<path d="M606,-14c0,0,-164,0,-284,65c0,0,-119,66,-182,189c0,0,-63,123,-63,291c0,0,0,255,137,396c0,0,137,140,386,140c0,0,174,0,283,-59c0,0,109,-59,168,-189L915,779c0,0,-44,90,-123,131c0,0,-79,41,-196,41c0,0,-182,0,-278,-110c0,0,-96,-110,-96,-310c0,0,0,-200,102,-315c0,0,102,-115,282,-115c0,0,103,0,193,31c0,0,89,31,144,85V407H629V526h445V164c0,0,-83,-85,-205,-132c0,0,-121,-46,-263,-46Z" 
id="f0_17"
transform="scale(0.001,-0.001)" />

<path d="M355,-14c0,0,-133,0,-194,65c0,0,-62,66,-62,219V808H234V296c0,0,0,-80,16,-124c0,0,16,-44,50,-64c0,0,34,-19,101,-19c0,0,97,0,153,66c0,0,55,67,55,185V808H744V172c0,0,0,-141,4,-172H621c0,0,0,4,-1,20c0,0,-1,17,-2,38c0,0,-1,21,-3,80h-2C613,138,567,55,506,20c0,0,-61,-34,-151,-34Z" 
id="f0_2h"
transform="scale(0.001,-0.001)" />

<path d="M395,89c0,0,115,0,166,79c0,0,51,79,51,246c0,0,0,160,-51,235c0,0,-51,75,-164,75c0,0,-102,0,-147,-75c0,0,-45,-75,-45,-244c0,0,0,-170,45,-243c0,0,45,-73,145,-73ZM361,-14c0,0,-153,0,-225,102c0,0,-72,103,-72,312c0,0,0,422,297,422c0,0,92,0,153,-33c0,0,61,-34,98,-107h2l-2,90v335H747V166c0,0,0,-126,4,-166H623c0,0,-2,12,-5,55c0,0,-3,44,-3,75h-3c0,0,-37,-78,-98,-111c0,0,-62,-33,-153,-33Z" 
id="f0_20"
transform="scale(0.001,-0.001)" />

<path d="M140,0V163H285V0Z" 
id="f0_i"
transform="scale(0.001,-0.001)" />


</defs>
</svg>