<?xml version="1.0" encoding="UTF-8" standalone="no"?>
<!DOCTYPE svg PUBLIC "-//W3C//DTD SVG 1.1//EN"
"http://www.w3.org/Graphics/SVG/1.1/DTD/svg11.dtd">
<svg viewBox="0 0 696 1067" version="1.1" xmlns="http://www.w3.org/2000/svg" xmlns:xlink="http://www.w3.org/1999/xlink">
<defs>
<style type="text/css"><![CDATA[
.g0_32{
fill: none;
stroke: #000000;
stroke-width: 0.7668222;
stroke-linecap: round;
stroke-linejoin: miter;
}
]]></style>
</defs>
<g fill="#D4D4D4" fill-opacity="0.56" >
<use xlink:href="#f0_1f" transform="matrix(50.9,-50.9,50.9,50.9,84.5,924.1)" />
<use xlink:href="#f0_2a" transform="matrix(50.9,-50.9,50.9,50.9,145,863.6)" />
<use xlink:href="#f0_28" transform="matrix(50.9,-50.9,50.9,50.9,188.3,820.3)" />
<use xlink:href="#f0_25" transform="matrix(50.9,-50.9,50.9,50.9,205.5,803.1)" />
<use xlink:href="#f0_2a" transform="matrix(50.9,-50.9,50.9,50.9,222.8,785.8)" />
<use xlink:href="#f0_21" transform="matrix(50.9,-50.9,50.9,50.9,266,742.5)" />
<use xlink:href="#f0_2k" transform="matrix(50.9,-50.9,50.9,50.9,309.3,699.3)" />
<use xlink:href="#f0_1x" transform="matrix(50.9,-50.9,50.9,50.9,348.2,660.4)" />
<use xlink:href="#f0_29" transform="matrix(50.9,-50.9,50.9,50.9,391.4,617.2)" />
<use xlink:href="#f0_2c" transform="matrix(50.9,-50.9,50.9,50.9,456.2,552.4)" />
<use xlink:href="#f0_2b" transform="matrix(50.9,-50.9,50.9,50.9,499.5,509.1)" />
<use xlink:href="#f0_25" transform="matrix(50.9,-50.9,50.9,50.9,542.7,465.9)" />
<use xlink:href="#f0_2a" transform="matrix(50.9,-50.9,50.9,50.9,560,448.6)" />
<use xlink:href="#f0_2g" transform="matrix(50.9,-50.9,50.9,50.9,603.2,405.4)" />
</g>
<g fill="#000000" >
<use xlink:href="#f1_p" transform="matrix(10.4,0,0,10.4,68.3,86.6)" />
<use xlink:href="#f1_s" transform="matrix(10.4,0,0,10.4,77.2,86.6)" />
<use xlink:href="#f1_h" transform="matrix(10.4,0,0,10.4,86.3,86.6)" />
<use xlink:href="#f1_1j" transform="matrix(10.4,0,0,10.4,109,86.6)" />
<use xlink:href="#f1_23" transform="matrix(10.4,0,0,10.4,118.8,86.6)" />
<use xlink:href="#f1_20" transform="matrix(10.4,0,0,10.4,127.6,86.6)" />
<use xlink:href="#f1_2e" transform="matrix(10.4,0,0,10.4,143.1,86.6)" />
<use xlink:href="#f1_2g" transform="matrix(10.4,0,0,10.4,151.1,86.6)" />
<use xlink:href="#f1_28" transform="matrix(10.4,0,0,10.4,159.9,86.6)" />
<use xlink:href="#f1_2a" transform="matrix(10.4,0,0,10.4,180,86.6)" />
<use xlink:href="#f1_21" transform="matrix(10.4,0,0,10.4,188.9,86.6)" />
<use xlink:href="#f1_2f" transform="matrix(10.4,0,0,10.4,199.9,86.6)" />
<use xlink:href="#f1_23" transform="matrix(10.4,0,0,10.4,204.3,86.6)" />
<use xlink:href="#f1_2d" transform="matrix(10.4,0,0,10.4,213.2,86.6)" />
<use xlink:href="#f1_20" transform="matrix(10.4,0,0,10.4,218.5,86.6)" />
<use xlink:href="#f1_20" transform="matrix(10.4,0,0,10.4,227.4,86.6)" />
<use xlink:href="#f1_29" transform="matrix(10.4,0,0,10.4,243,86.6)" />
<use xlink:href="#f1_2g" transform="matrix(10.4,0,0,10.4,251.9,86.6)" />
<use xlink:href="#f1_28" transform="matrix(10.4,0,0,10.4,260.8,86.6)" />
<use xlink:href="#f1_1x" transform="matrix(10.4,0,0,10.4,274.1,86.6)" />
<use xlink:href="#f1_20" transform="matrix(10.4,0,0,10.4,282.9,86.6)" />
<use xlink:href="#f1_2d" transform="matrix(10.4,0,0,10.4,291.8,86.6)" />
<use xlink:href="#f1_2e" transform="matrix(10.4,0,0,10.4,297.1,86.6)" />
<use xlink:href="#f1_24" transform="matrix(10.4,0,0,10.4,311.7,86.6)" />
<use xlink:href="#f1_2e" transform="matrix(10.4,0,0,10.4,315.2,86.6)" />
<use xlink:href="#f1_l" transform="matrix(10.4,0,0,10.4,329.8,86.6)" />
<use xlink:href="#f1_h" transform="matrix(10.4,0,0,10.4,338.7,86.6)" />
<use xlink:href="#f1_18" transform="matrix(10.4,0,0,10.4,349.9,86.6)" />
<use xlink:href="#f1_21" transform="matrix(10.4,0,0,10.4,354.3,86.6)" />
<use xlink:href="#f1_2i" transform="matrix(10.4,0,0,10.4,365.4,86.6)" />
<use xlink:href="#f1_20" transform="matrix(10.4,0,0,10.4,376.9,86.6)" />
<use xlink:href="#f1_2e" transform="matrix(10.4,0,0,10.4,392.3,86.6)" />
<use xlink:href="#f1_2g" transform="matrix(10.4,0,0,10.4,400.3,86.6)" />
<use xlink:href="#f1_1x" transform="matrix(10.4,0,0,10.4,409.2,86.6)" />
<use xlink:href="#f1_2f" transform="matrix(10.4,0,0,10.4,418.1,86.6)" />
<use xlink:href="#f1_2d" transform="matrix(10.4,0,0,10.4,422.5,86.6)" />
<use xlink:href="#f1_1w" transform="matrix(10.4,0,0,10.4,427.8,86.6)" />
<use xlink:href="#f1_1y" transform="matrix(10.4,0,0,10.4,436.7,86.6)" />
<use xlink:href="#f1_2f" transform="matrix(10.4,0,0,10.4,444.6,86.6)" />
<use xlink:href="#f1_2f" transform="matrix(10.4,0,0,10.4,455.9,86.6)" />
<use xlink:href="#f1_23" transform="matrix(10.4,0,0,10.4,460.3,86.6)" />
<use xlink:href="#f1_20" transform="matrix(10.4,0,0,10.4,469.2,86.6)" />
<use xlink:href="#f1_2e" transform="matrix(10.4,0,0,10.4,484.6,86.6)" />
<use xlink:href="#f1_20" transform="matrix(10.4,0,0,10.4,492.6,86.6)" />
<use xlink:href="#f1_1y" transform="matrix(10.4,0,0,10.4,501.5,86.6)" />
<use xlink:href="#f1_2a" transform="matrix(10.4,0,0,10.4,509.5,86.6)" />
<use xlink:href="#f1_29" transform="matrix(10.4,0,0,10.4,518.3,86.6)" />
<use xlink:href="#f1_1z" transform="matrix(10.4,0,0,10.4,527.2,86.6)" />
<use xlink:href="#f1_29" transform="matrix(10.4,0,0,10.4,542.8,86.6)" />
<use xlink:href="#f1_2g" transform="matrix(10.4,0,0,10.4,551.7,86.6)" />
<use xlink:href="#f1_28" transform="matrix(10.4,0,0,10.4,560.6,86.6)" />
<use xlink:href="#f1_1x" transform="matrix(10.4,0,0,10.4,573.9,86.6)" />
<use xlink:href="#f1_20" transform="matrix(10.4,0,0,10.4,582.7,86.6)" />
<use xlink:href="#f1_2d" transform="matrix(10.4,0,0,10.4,591.6,86.6)" />
<use xlink:href="#f1_21" transform="matrix(10.4,0,0,10.4,603.5,86.6)" />
<use xlink:href="#f1_2d" transform="matrix(10.4,0,0,10.4,607.9,86.6)" />
<use xlink:href="#f1_2a" transform="matrix(10.4,0,0,10.4,613.3,86.6)" />
<use xlink:href="#f1_28" transform="matrix(10.4,0,0,10.4,622.1,86.6)" />
<use xlink:href="#f1_2f" transform="matrix(10.4,0,0,10.4,109,106.8)" />
<use xlink:href="#f1_2i" transform="matrix(10.4,0,0,10.4,113.4,106.8)" />
<use xlink:href="#f1_24" transform="matrix(10.4,0,0,10.4,125,106.8)" />
<use xlink:href="#f1_1y" transform="matrix(10.4,0,0,10.4,128.5,106.8)" />
<use xlink:href="#f1_20" transform="matrix(10.4,0,0,10.4,136.5,106.8)" />
<use xlink:href="#f1_2f" transform="matrix(10.4,0,0,10.4,152.5,106.8)" />
<use xlink:href="#f1_23" transform="matrix(10.4,0,0,10.4,156.9,106.8)" />
<use xlink:href="#f1_20" transform="matrix(10.4,0,0,10.4,165.8,106.8)" />
<use xlink:href="#f1_21" transform="matrix(10.4,0,0,10.4,181.8,106.8)" />
<use xlink:href="#f1_24" transform="matrix(10.4,0,0,10.4,186.2,106.8)" />
<use xlink:href="#f1_2d" transform="matrix(10.4,0,0,10.4,189.8,106.8)" />
<use xlink:href="#f1_2e" transform="matrix(10.4,0,0,10.4,195.1,106.8)" />
<use xlink:href="#f1_2f" transform="matrix(10.4,0,0,10.4,203.1,106.8)" />
<use xlink:href="#f1_29" transform="matrix(10.4,0,0,10.4,214.6,106.8)" />
<use xlink:href="#f1_2g" transform="matrix(10.4,0,0,10.4,223.5,106.8)" />
<use xlink:href="#f1_28" transform="matrix(10.4,0,0,10.4,232.4,106.8)" />
<use xlink:href="#f1_1x" transform="matrix(10.4,0,0,10.4,245.7,106.8)" />
<use xlink:href="#f1_20" transform="matrix(10.4,0,0,10.4,254.5,106.8)" />
<use xlink:href="#f1_2d" transform="matrix(10.4,0,0,10.4,263.4,106.8)" />
<use xlink:href="#f1_f" transform="matrix(10.4,0,0,10.4,268.7,106.8)" />
<use xlink:href="#f1_2i" transform="matrix(10.4,0,0,10.4,280.5,106.8)" />
<use xlink:href="#f1_20" transform="matrix(10.4,0,0,10.4,292,106.8)" />
<use xlink:href="#f1_22" transform="matrix(10.4,0,0,10.4,308,106.8)" />
<use xlink:href="#f1_20" transform="matrix(10.4,0,0,10.4,316.9,106.8)" />
<use xlink:href="#f1_2f" transform="matrix(10.4,0,0,10.4,325.8,106.8)" />
<use xlink:href="#f1_m" transform="matrix(10.4,0,0,10.4,337.3,106.8)" />
<use xlink:href="#f1_h" transform="matrix(10.4,0,0,10.4,346.2,106.8)" />
<use xlink:href="#f1_11" transform="matrix(10.4,0,0,10.4,357.8,106.8)" />
<use xlink:href="#f1_2k" transform="matrix(10.4,0,0,10.4,368.4,106.8)" />
<use xlink:href="#f1_1w" transform="matrix(10.4,0,0,10.4,383.5,106.8)" />
<use xlink:href="#f1_1z" transform="matrix(10.4,0,0,10.4,392.4,106.8)" />
<use xlink:href="#f1_1z" transform="matrix(10.4,0,0,10.4,401.3,106.8)" />
<use xlink:href="#f1_24" transform="matrix(10.4,0,0,10.4,410.1,106.8)" />
<use xlink:href="#f1_29" transform="matrix(10.4,0,0,10.4,413.7,106.8)" />
<use xlink:href="#f1_22" transform="matrix(10.4,0,0,10.4,422.6,106.8)" />
<use xlink:href="#f1_1z" transform="matrix(10.4,0,0,10.4,438.6,106.8)" />
<use xlink:href="#f1_2a" transform="matrix(10.4,0,0,10.4,447.4,106.8)" />
<use xlink:href="#f1_2g" transform="matrix(10.4,0,0,10.4,456.3,106.8)" />
<use xlink:href="#f1_1x" transform="matrix(10.4,0,0,10.4,465.2,106.8)" />
<use xlink:href="#f1_27" transform="matrix(10.4,0,0,10.4,474,106.8)" />
<use xlink:href="#f1_20" transform="matrix(10.4,0,0,10.4,477.6,106.8)" />
<use xlink:href="#f1_2f" transform="matrix(10.4,0,0,10.4,493.8,106.8)" />
<use xlink:href="#f1_23" transform="matrix(10.4,0,0,10.4,498.2,106.8)" />
<use xlink:href="#f1_20" transform="matrix(10.4,0,0,10.4,507.1,106.8)" />
<use xlink:href="#f1_2e" transform="matrix(10.4,0,0,10.4,523.1,106.8)" />
<use xlink:href="#f1_20" transform="matrix(10.4,0,0,10.4,531.1,106.8)" />
<use xlink:href="#f1_1y" transform="matrix(10.4,0,0,10.4,539.9,106.8)" />
<use xlink:href="#f1_2a" transform="matrix(10.4,0,0,10.4,547.9,106.8)" />
<use xlink:href="#f1_29" transform="matrix(10.4,0,0,10.4,556.8,106.8)" />
<use xlink:href="#f1_1z" transform="matrix(10.4,0,0,10.4,565.7,106.8)" />
<use xlink:href="#f1_29" transform="matrix(10.4,0,0,10.4,581.7,106.8)" />
<use xlink:href="#f1_2g" transform="matrix(10.4,0,0,10.4,590.5,106.8)" />
<use xlink:href="#f1_28" transform="matrix(10.4,0,0,10.4,599.4,106.8)" />
<use xlink:href="#f1_1x" transform="matrix(10.4,0,0,10.4,612.7,106.8)" />
<use xlink:href="#f1_20" transform="matrix(10.4,0,0,10.4,621.6,106.8)" />
<use xlink:href="#f1_2d" transform="matrix(10.4,0,0,10.4,630.4,106.8)" />
<use xlink:href="#f1_1w" transform="matrix(10.4,0,0,10.4,109,126.9)" />
<use xlink:href="#f1_29" transform="matrix(10.4,0,0,10.4,117.9,126.9)" />
<use xlink:href="#f1_1z" transform="matrix(10.4,0,0,10.4,126.7,126.9)" />
<use xlink:href="#f1_2f" transform="matrix(10.4,0,0,10.4,143.3,126.9)" />
<use xlink:href="#f1_23" transform="matrix(10.4,0,0,10.4,147.8,126.9)" />
<use xlink:href="#f1_20" transform="matrix(10.4,0,0,10.4,156.6,126.9)" />
<use xlink:href="#f1_2f" transform="matrix(10.4,0,0,10.4,173.2,126.9)" />
<use xlink:href="#f1_23" transform="matrix(10.4,0,0,10.4,177.6,126.9)" />
<use xlink:href="#f1_24" transform="matrix(10.4,0,0,10.4,186.5,126.9)" />
<use xlink:href="#f1_2d" transform="matrix(10.4,0,0,10.4,190,126.9)" />
<use xlink:href="#f1_1z" transform="matrix(10.4,0,0,10.4,195.3,126.9)" />
<use xlink:href="#f1_29" transform="matrix(10.4,0,0,10.4,211.9,126.9)" />
<use xlink:href="#f1_2g" transform="matrix(10.4,0,0,10.4,220.8,126.9)" />
<use xlink:href="#f1_28" transform="matrix(10.4,0,0,10.4,229.7,126.9)" />
<use xlink:href="#f1_1x" transform="matrix(10.4,0,0,10.4,242.9,126.9)" />
<use xlink:href="#f1_20" transform="matrix(10.4,0,0,10.4,251.8,126.9)" />
<use xlink:href="#f1_2d" transform="matrix(10.4,0,0,10.4,260.7,126.9)" />
<use xlink:href="#f1_2i" transform="matrix(10.4,0,0,10.4,273.9,126.9)" />
<use xlink:href="#f1_20" transform="matrix(10.4,0,0,10.4,285.4,126.9)" />
<use xlink:href="#f1_22" transform="matrix(10.4,0,0,10.4,302,126.9)" />
<use xlink:href="#f1_20" transform="matrix(10.4,0,0,10.4,310.8,126.9)" />
<use xlink:href="#f1_2f" transform="matrix(10.4,0,0,10.4,319.7,126.9)" />
<use xlink:href="#f1_j" transform="matrix(10.4,0,0,10.4,331.8,126.9)" />
<use xlink:href="#f1_h" transform="matrix(10.4,0,0,10.4,340.7,126.9)" />
<use xlink:href="#f1_1h" transform="matrix(10.4,0,0,10.4,352.8,126.9)" />
<use xlink:href="#f1_20" transform="matrix(10.4,0,0,10.4,364.4,126.9)" />
<use xlink:href="#f1_2b" transform="matrix(10.4,0,0,10.4,373.2,126.9)" />
<use xlink:href="#f1_2d" transform="matrix(10.4,0,0,10.4,382.1,126.9)" />
<use xlink:href="#f1_20" transform="matrix(10.4,0,0,10.4,387.4,126.9)" />
<use xlink:href="#f1_2e" transform="matrix(10.4,0,0,10.4,396.3,126.9)" />
<use xlink:href="#f1_20" transform="matrix(10.4,0,0,10.4,404.2,126.9)" />
<use xlink:href="#f1_29" transform="matrix(10.4,0,0,10.4,413.1,126.9)" />
<use xlink:href="#f1_2f" transform="matrix(10.4,0,0,10.4,422,126.9)" />
<use xlink:href="#f1_24" transform="matrix(10.4,0,0,10.4,434.1,126.9)" />
<use xlink:href="#f1_2f" transform="matrix(10.4,0,0,10.4,437.7,126.9)" />
<use xlink:href="#f1_1w" transform="matrix(10.4,0,0,10.4,449.8,126.9)" />
<use xlink:href="#f1_27" transform="matrix(10.4,0,0,10.4,458.7,126.9)" />
<use xlink:href="#f1_22" transform="matrix(10.4,0,0,10.4,462.2,126.9)" />
<use xlink:href="#f1_20" transform="matrix(10.4,0,0,10.4,471.1,126.9)" />
<use xlink:href="#f1_1x" transform="matrix(10.4,0,0,10.4,479.9,126.9)" />
<use xlink:href="#f1_2d" transform="matrix(10.4,0,0,10.4,488.8,126.9)" />
<use xlink:href="#f1_1w" transform="matrix(10.4,0,0,10.4,494.1,126.9)" />
<use xlink:href="#f1_24" transform="matrix(10.4,0,0,10.4,503,126.9)" />
<use xlink:href="#f1_1y" transform="matrix(10.4,0,0,10.4,506.5,126.9)" />
<use xlink:href="#f1_1w" transform="matrix(10.4,0,0,10.4,514.5,126.9)" />
<use xlink:href="#f1_27" transform="matrix(10.4,0,0,10.4,523.4,126.9)" />
<use xlink:href="#f1_27" transform="matrix(10.4,0,0,10.4,526.9,126.9)" />
<use xlink:href="#f1_2k" transform="matrix(10.4,0,0,10.4,530.5,126.9)" />
<use xlink:href="#f1_1w" transform="matrix(10.4,0,0,10.4,546.3,126.9)" />
<use xlink:href="#f1_29" transform="matrix(10.4,0,0,10.4,555.2,126.9)" />
<use xlink:href="#f1_1z" transform="matrix(10.4,0,0,10.4,564,126.9)" />
<use xlink:href="#f1_21" transform="matrix(10.4,0,0,10.4,580.6,126.9)" />
<use xlink:href="#f1_24" transform="matrix(10.4,0,0,10.4,585.1,126.9)" />
<use xlink:href="#f1_29" transform="matrix(10.4,0,0,10.4,588.6,126.9)" />
<use xlink:href="#f1_1z" transform="matrix(10.4,0,0,10.4,597.5,126.9)" />
<use xlink:href="#f1_2f" transform="matrix(10.4,0,0,10.4,614,126.9)" />
<use xlink:href="#f1_23" transform="matrix(10.4,0,0,10.4,618.5,126.9)" />
<use xlink:href="#f1_20" transform="matrix(10.4,0,0,10.4,627.3,126.9)" />
<use xlink:href="#f1_29" transform="matrix(10.4,0,0,10.4,109,147.1)" />
<use xlink:href="#f1_2g" transform="matrix(10.4,0,0,10.4,117.9,147.1)" />
<use xlink:href="#f1_28" transform="matrix(10.4,0,0,10.4,126.7,147.1)" />
<use xlink:href="#f1_1x" transform="matrix(10.4,0,0,10.4,140,147.1)" />
<use xlink:href="#f1_20" transform="matrix(10.4,0,0,10.4,148.9,147.1)" />
<use xlink:href="#f1_2d" transform="matrix(10.4,0,0,10.4,157.8,147.1)" />
<use xlink:href="#f1_2e" transform="matrix(10.4,0,0,10.4,163.1,147.1)" />
<use xlink:href="#f1_2g" transform="matrix(10.4,0,0,10.4,178.8,147.1)" />
<use xlink:href="#f1_2e" transform="matrix(10.4,0,0,10.4,187.6,147.1)" />
<use xlink:href="#f1_24" transform="matrix(10.4,0,0,10.4,195.6,147.1)" />
<use xlink:href="#f1_29" transform="matrix(10.4,0,0,10.4,199.1,147.1)" />
<use xlink:href="#f1_22" transform="matrix(10.4,0,0,10.4,208,147.1)" />
<use xlink:href="#f1_28" transform="matrix(10.4,0,0,10.4,224.8,147.1)" />
<use xlink:href="#f1_1w" transform="matrix(10.4,0,0,10.4,238,147.1)" />
<use xlink:href="#f1_2f" transform="matrix(10.4,0,0,10.4,246.9,147.1)" />
<use xlink:href="#f1_2d" transform="matrix(10.4,0,0,10.4,251.3,147.1)" />
<use xlink:href="#f1_24" transform="matrix(10.4,0,0,10.4,256.7,147.1)" />
<use xlink:href="#f1_2j" transform="matrix(10.4,0,0,10.4,260.2,147.1)" />
<use xlink:href="#f1_28" transform="matrix(10.4,0,0,10.4,275.9,147.1)" />
<use xlink:href="#f1_20" transform="matrix(10.4,0,0,10.4,289.2,147.1)" />
<use xlink:href="#f1_2f" transform="matrix(10.4,0,0,10.4,298,147.1)" />
<use xlink:href="#f1_23" transform="matrix(10.4,0,0,10.4,302.5,147.1)" />
<use xlink:href="#f1_2a" transform="matrix(10.4,0,0,10.4,311.3,147.1)" />
<use xlink:href="#f1_1z" transform="matrix(10.4,0,0,10.4,320.2,147.1)" />
<use xlink:href="#f1_h" transform="matrix(10.4,0,0,10.4,329.1,147.1)" />
<use xlink:href="#f1_q" transform="matrix(10.4,0,0,10.4,68.3,181)" />
<use xlink:href="#f1_j" transform="matrix(10.4,0,0,10.4,77.2,181)" />
<use xlink:href="#f1_h" transform="matrix(10.4,0,0,10.4,86.3,181)" />
<use xlink:href="#f1_12" transform="matrix(10.4,0,0,10.4,109,181)" />
<use xlink:href="#f1_2a" transform="matrix(10.4,0,0,10.4,120.5,181)" />
<use xlink:href="#f1_28" transform="matrix(10.4,0,0,10.4,129.4,181)" />
<use xlink:href="#f1_2b" transform="matrix(10.4,0,0,10.4,142.7,181)" />
<use xlink:href="#f1_2g" transform="matrix(10.4,0,0,10.4,151.5,181)" />
<use xlink:href="#f1_2f" transform="matrix(10.4,0,0,10.4,160.4,181)" />
<use xlink:href="#f1_20" transform="matrix(10.4,0,0,10.4,164.9,181)" />
<use xlink:href="#f1_2f" transform="matrix(10.4,0,0,10.4,181.1,181)" />
<use xlink:href="#f1_23" transform="matrix(10.4,0,0,10.4,185.5,181)" />
<use xlink:href="#f1_20" transform="matrix(10.4,0,0,10.4,194.4,181)" />
<use xlink:href="#f1_24" transform="matrix(10.4,0,0,10.4,210.6,181)" />
<use xlink:href="#f1_29" transform="matrix(10.4,0,0,10.4,214.1,181)" />
<use xlink:href="#f1_2h" transform="matrix(10.4,0,0,10.4,223,181)" />
<use xlink:href="#f1_20" transform="matrix(10.4,0,0,10.4,230.9,181)" />
<use xlink:href="#f1_2d" transform="matrix(10.4,0,0,10.4,239.8,181)" />
<use xlink:href="#f1_2e" transform="matrix(10.4,0,0,10.4,245.1,181)" />
<use xlink:href="#f1_20" transform="matrix(10.4,0,0,10.4,253.1,181)" />
<use xlink:href="#f1_2a" transform="matrix(10.4,0,0,10.4,269.3,181)" />
<use xlink:href="#f1_21" transform="matrix(10.4,0,0,10.4,278.2,181)" />
<use xlink:href="#f1_2f" transform="matrix(10.4,0,0,10.4,289.9,181)" />
<use xlink:href="#f1_23" transform="matrix(10.4,0,0,10.4,294.4,181)" />
<use xlink:href="#f1_20" transform="matrix(10.4,0,0,10.4,303.2,181)" />
<use xlink:href="#f1_28" transform="matrix(10.4,0,0,10.4,319.5,181)" />
<use xlink:href="#f1_1w" transform="matrix(10.4,0,0,10.4,332.7,181)" />
<use xlink:href="#f1_2f" transform="matrix(10.4,0,0,10.4,341.6,181)" />
<use xlink:href="#f1_2d" transform="matrix(10.4,0,0,10.4,346,181)" />
<use xlink:href="#f1_24" transform="matrix(10.4,0,0,10.4,351.4,181)" />
<use xlink:href="#f1_2j" transform="matrix(10.4,0,0,10.4,354.9,181)" />
<use xlink:href="#f1_h" transform="matrix(10.4,0,0,10.4,362.9,181)" />
<use xlink:href="#f1_m" transform="matrix(10.5,0,0,10.5,221.1,228.5)" />
<use xlink:href="#f1_k" transform="matrix(10.5,0,0,10.5,272.7,228.5)" />
<use xlink:href="#f1_k" transform="matrix(10.5,0,0,10.5,308.5,228.5)" />
<use xlink:href="#f1_k" transform="matrix(10.5,0,0,10.5,221.1,252.6)" />
<use xlink:href="#f1_o" transform="matrix(10.5,0,0,10.5,230.4,252.6)" />
<use xlink:href="#f1_p" transform="matrix(10.5,0,0,10.5,266.8,252.6)" />
<use xlink:href="#f1_o" transform="matrix(10.5,0,0,10.5,312.5,252.6)" />
<use xlink:href="#f1_o" transform="matrix(10.5,0,0,10.5,221.1,276.6)" />
<use xlink:href="#f1_l" transform="matrix(10.5,0,0,10.5,271.6,276.6)" />
<use xlink:href="#f1_o" transform="matrix(10.5,0,0,10.5,307.9,276.6)" />
<use xlink:href="#f2_10" transform="matrix(10.5,0,0,10.5,166.9,252.6)" />
<use xlink:href="#f3_h" transform="matrix(10.5,0,0,10.5,263.7,228.5)" />
<use xlink:href="#f3_4r" transform="matrix(10.5,0,0,10.5,204,229.7)" />
<use xlink:href="#f3_57" transform="matrix(10.5,0,0,10.5,323.3,229.7)" />
<use xlink:href="#f3_4s" transform="matrix(10.5,0,0,10.5,204,245.1)" />
<use xlink:href="#f3_58" transform="matrix(10.5,0,0,10.5,323.3,245.1)" />
<use xlink:href="#f3_x" transform="matrix(10.5,0,0,10.5,186.3,252.6)" />
<use xlink:href="#f3_h" transform="matrix(10.5,0,0,10.5,212,252.6)" />
<use xlink:href="#f3_h" transform="matrix(10.5,0,0,10.5,303.4,252.6)" />
<use xlink:href="#f3_4s" transform="matrix(10.5,0,0,10.5,204,260.4)" />
<use xlink:href="#f3_58" transform="matrix(10.5,0,0,10.5,323.3,260.4)" />
<use xlink:href="#f3_4s" transform="matrix(10.5,0,0,10.5,204,275.7)" />
<use xlink:href="#f3_58" transform="matrix(10.5,0,0,10.5,323.3,275.7)" />
<use xlink:href="#f3_h" transform="matrix(10.5,0,0,10.5,262.5,276.6)" />
<use xlink:href="#f3_4t" transform="matrix(10.5,0,0,10.5,204,280)" />
<use xlink:href="#f3_59" transform="matrix(10.5,0,0,10.5,323.3,280)" />
<use xlink:href="#f1_1w" transform="matrix(10.4,0,0,10.4,339.3,252.9)" />
<use xlink:href="#f1_29" transform="matrix(10.4,0,0,10.4,348.1,252.9)" />
<use xlink:href="#f1_1z" transform="matrix(10.4,0,0,10.4,357,252.9)" />
<use xlink:href="#f1_2h" transform="matrix(10.4,0,0,10.4,372.7,252.9)" />
<use xlink:href="#f1_20" transform="matrix(10.4,0,0,10.4,380.6,252.9)" />
<use xlink:href="#f1_2d" transform="matrix(10.4,0,0,10.4,389.5,252.9)" />
<use xlink:href="#f1_24" transform="matrix(10.4,0,0,10.4,394.8,252.9)" />
<use xlink:href="#f1_21" transform="matrix(10.4,0,0,10.4,398.3,252.9)" />
<use xlink:href="#f1_2k" transform="matrix(10.4,0,0,10.4,402.8,252.9)" />
<use xlink:href="#f1_2f" transform="matrix(10.4,0,0,10.4,417.7,252.9)" />
<use xlink:href="#f1_23" transform="matrix(10.4,0,0,10.4,422.2,252.9)" />
<use xlink:href="#f1_1w" transform="matrix(10.4,0,0,10.4,431,252.9)" />
<use xlink:href="#f1_2f" transform="matrix(10.4,0,0,10.4,439.9,252.9)" />
<use xlink:href="#f2_10" transform="matrix(10.4,0,0,10.4,450.7,252.9)" />
<use xlink:href="#f1_99" transform="matrix(7.4,0,0,7.4,461.4,247.6)" />
<use xlink:href="#f1_k" transform="matrix(7.4,0,0,7.4,467.7,247.6)" />
<use xlink:href="#f2_10" transform="matrix(10.4,0,0,10.4,480.8,252.9)" />
<use xlink:href="#f1_w" transform="matrix(10.4,0,0,10.4,498.2,252.9)" />
<use xlink:href="#f2_18" transform="matrix(10.4,0,0,10.4,514.5,252.9)" />
<use xlink:href="#f1_m" transform="matrix(7.4,0,0,7.4,518.9,258.2)" />
<use xlink:href="#f1_h" transform="matrix(10.4,0,0,10.4,525.2,252.9)" />
<use xlink:href="#f1_q" transform="matrix(10.4,0,0,10.4,68.3,358.7)" />
<use xlink:href="#f1_k" transform="matrix(10.4,0,0,10.4,77.2,358.7)" />
<use xlink:href="#f1_h" transform="matrix(10.4,0,0,10.4,86.3,358.7)" />
<use xlink:href="#f1_18" transform="matrix(10.4,0,0,10.4,109,358.7)" />
<use xlink:href="#f1_21" transform="matrix(10.4,0,0,10.4,114.5,358.7)" />
<use xlink:href="#f1_2f" transform="matrix(10.4,0,0,10.4,134,358.7)" />
<use xlink:href="#f1_23" transform="matrix(10.4,0,0,10.4,139.5,358.7)" />
<use xlink:href="#f1_20" transform="matrix(10.4,0,0,10.4,149.4,358.7)" />
<use xlink:href="#f1_28" transform="matrix(10.4,0,0,10.4,173.2,358.7)" />
<use xlink:href="#f1_1w" transform="matrix(10.4,0,0,10.4,187.5,358.7)" />
<use xlink:href="#f1_2f" transform="matrix(10.4,0,0,10.4,197.4,358.7)" />
<use xlink:href="#f1_2d" transform="matrix(10.4,0,0,10.4,202.9,358.7)" />
<use xlink:href="#f1_24" transform="matrix(10.4,0,0,10.4,209.3,358.7)" />
<use xlink:href="#f1_2j" transform="matrix(10.4,0,0,10.4,213.9,358.7)" />
<use xlink:href="#f1_99" transform="matrix(7.9,0,0,7.9,437.9,349.1)" />
<use xlink:href="#f1_k" transform="matrix(7.9,0,0,7.9,444.9,349.1)" />
<use xlink:href="#f1_k" transform="matrix(10.5,0,0,10.5,285.3,334.6)" />
<use xlink:href="#f1_k" transform="matrix(10.5,0,0,10.5,321.7,334.6)" />
<use xlink:href="#f1_l" transform="matrix(10.5,0,0,10.5,362.2,334.6)" />
<use xlink:href="#f1_k" transform="matrix(10.5,0,0,10.5,485.9,334.6)" />
<use xlink:href="#f1_l" transform="matrix(10.5,0,0,10.5,517.3,334.6)" />
<use xlink:href="#f1_j" transform="matrix(10.5,0,0,10.5,552.7,334.6)" />
<use xlink:href="#f1_j" transform="matrix(10.5,0,0,10.5,284.6,358.7)" />
<use xlink:href="#f1_l" transform="matrix(10.5,0,0,10.5,321.2,358.7)" />
<use xlink:href="#f1_m" transform="matrix(10.5,0,0,10.5,366.7,358.7)" />
<use xlink:href="#f1_1w" transform="matrix(10.5,0,0,10.5,391.4,358.7)" />
<use xlink:href="#f1_29" transform="matrix(10.5,0,0,10.5,400.7,358.7)" />
<use xlink:href="#f1_1z" transform="matrix(10.5,0,0,10.5,410,358.7)" />
<use xlink:href="#f1_j" transform="matrix(10.5,0,0,10.5,485.3,358.7)" />
<use xlink:href="#f1_m" transform="matrix(10.5,0,0,10.5,517.2,358.7)" />
<use xlink:href="#f1_99" transform="matrix(10.5,0,0,10.5,549.5,358.7)" />
<use xlink:href="#f1_k" transform="matrix(10.5,0,0,10.5,558.9,358.7)" />
<use xlink:href="#f1_f" transform="matrix(10.5,0,0,10.5,576.7,358.7)" />
<use xlink:href="#f1_m" transform="matrix(10.5,0,0,10.5,284.6,382.7)" />
<use xlink:href="#f1_l" transform="matrix(10.5,0,0,10.5,325.8,382.7)" />
<use xlink:href="#f1_n" transform="matrix(10.5,0,0,10.5,362.1,382.7)" />
<use xlink:href="#f1_k" transform="matrix(10.5,0,0,10.5,485.9,382.7)" />
<use xlink:href="#f1_j" transform="matrix(10.5,0,0,10.5,517.2,382.7)" />
<use xlink:href="#f1_l" transform="matrix(10.5,0,0,10.5,552.8,382.7)" />
<use xlink:href="#f2_10" transform="matrix(10.5,0,0,10.5,239.7,358.7)" />
<use xlink:href="#f2_11" transform="matrix(10.5,0,0,10.5,425.4,358.7)" />
<use xlink:href="#f3_4r" transform="matrix(10.5,0,0,10.5,276.9,335.8)" />
<use xlink:href="#f3_57" transform="matrix(10.5,0,0,10.5,377.5,335.8)" />
<use xlink:href="#f3_4r" transform="matrix(10.5,0,0,10.5,477.5,335.8)" />
<use xlink:href="#f3_57" transform="matrix(10.5,0,0,10.5,567.1,335.8)" />
<use xlink:href="#f3_4s" transform="matrix(10.5,0,0,10.5,276.9,351.3)" />
<use xlink:href="#f3_58" transform="matrix(10.5,0,0,10.5,377.5,351.3)" />
<use xlink:href="#f3_4s" transform="matrix(10.5,0,0,10.5,477.5,351.3)" />
<use xlink:href="#f3_58" transform="matrix(10.5,0,0,10.5,567.1,351.3)" />
<use xlink:href="#f3_x" transform="matrix(10.5,0,0,10.5,259.2,358.7)" />
<use xlink:href="#f3_h" transform="matrix(10.5,0,0,10.5,357.7,358.7)" />
<use xlink:href="#f3_x" transform="matrix(10.5,0,0,10.5,459.8,358.7)" />
<use xlink:href="#f3_4s" transform="matrix(10.5,0,0,10.5,276.9,366.5)" />
<use xlink:href="#f3_58" transform="matrix(10.5,0,0,10.5,377.5,366.5)" />
<use xlink:href="#f3_4s" transform="matrix(10.5,0,0,10.5,477.5,366.5)" />
<use xlink:href="#f3_58" transform="matrix(10.5,0,0,10.5,567.1,366.5)" />
<use xlink:href="#f3_4s" transform="matrix(10.5,0,0,10.5,276.9,381.8)" />
<use xlink:href="#f3_58" transform="matrix(10.5,0,0,10.5,377.5,381.8)" />
<use xlink:href="#f3_4s" transform="matrix(10.5,0,0,10.5,477.5,381.8)" />
<use xlink:href="#f3_58" transform="matrix(10.5,0,0,10.5,567.1,381.8)" />
<use xlink:href="#f3_h" transform="matrix(10.5,0,0,10.5,316.8,382.7)" />
<use xlink:href="#f3_4t" transform="matrix(10.5,0,0,10.5,276.9,386.1)" />
<use xlink:href="#f3_59" transform="matrix(10.5,0,0,10.5,377.5,386.1)" />
<use xlink:href="#f3_4t" transform="matrix(10.5,0,0,10.5,477.5,386.1)" />
<use xlink:href="#f3_59" transform="matrix(10.5,0,0,10.5,567.1,386.1)" />
<use xlink:href="#f1_2f" transform="matrix(10.4,0,0,10.4,599.4,358.7)" />
<use xlink:href="#f1_23" transform="matrix(10.4,0,0,10.4,604.9,358.7)" />
<use xlink:href="#f1_20" transform="matrix(10.4,0,0,10.4,614.8,358.7)" />
<use xlink:href="#f1_29" transform="matrix(10.4,0,0,10.4,624.7,358.7)" />
<use xlink:href="#f1_1y" transform="matrix(10.4,0,0,10.4,109,413.5)" />
<use xlink:href="#f1_2a" transform="matrix(10.4,0,0,10.4,117,413.5)" />
<use xlink:href="#f1_28" transform="matrix(10.4,0,0,10.4,125.9,413.5)" />
<use xlink:href="#f1_2b" transform="matrix(10.4,0,0,10.4,139.1,413.5)" />
<use xlink:href="#f1_2g" transform="matrix(10.4,0,0,10.4,148,413.5)" />
<use xlink:href="#f1_2f" transform="matrix(10.4,0,0,10.4,156.9,413.5)" />
<use xlink:href="#f1_20" transform="matrix(10.4,0,0,10.4,161.3,413.5)" />
<use xlink:href="#f1_b" transform="matrix(10.4,0,0,10.4,178.1,413.5)" />
<use xlink:href="#f2_10" transform="matrix(10.4,0,0,10.4,183.1,413.5)" />
<use xlink:href="#f2_11" transform="matrix(10.4,0,0,10.4,193.7,413.5)" />
<use xlink:href="#f1_c" transform="matrix(10.4,0,0,10.4,204.3,413.5)" />
<use xlink:href="#f1_99" transform="matrix(7.4,0,0,7.4,209.7,408.2)" />
<use xlink:href="#f1_k" transform="matrix(7.4,0,0,7.4,216,408.2)" />
<use xlink:href="#f1_h" transform="matrix(10.4,0,0,10.4,222.1,413.5)" />
<use xlink:href="#f1_q" transform="matrix(10.4,0,0,10.4,68.3,447.4)" />
<use xlink:href="#f1_l" transform="matrix(10.4,0,0,10.4,77.2,447.4)" />
<use xlink:href="#f1_h" transform="matrix(10.4,0,0,10.4,86.3,447.4)" />
<use xlink:href="#f1_1k" transform="matrix(10.4,0,0,10.4,109,447.4)" />
<use xlink:href="#f1_2e" transform="matrix(10.4,0,0,10.4,120.5,447.4)" />
<use xlink:href="#f1_24" transform="matrix(10.4,0,0,10.4,128.5,447.4)" />
<use xlink:href="#f1_29" transform="matrix(10.4,0,0,10.4,132,447.4)" />
<use xlink:href="#f1_22" transform="matrix(10.4,0,0,10.4,140.9,447.4)" />
<use xlink:href="#f1_28" transform="matrix(10.4,0,0,10.4,157.1,447.4)" />
<use xlink:href="#f1_1w" transform="matrix(10.4,0,0,10.4,170.4,447.4)" />
<use xlink:href="#f1_2f" transform="matrix(10.4,0,0,10.4,179.3,447.4)" />
<use xlink:href="#f1_2d" transform="matrix(10.4,0,0,10.4,183.7,447.4)" />
<use xlink:href="#f1_24" transform="matrix(10.4,0,0,10.4,189,447.4)" />
<use xlink:href="#f1_2j" transform="matrix(10.4,0,0,10.4,192.6,447.4)" />
<use xlink:href="#f1_28" transform="matrix(10.4,0,0,10.4,207.9,447.4)" />
<use xlink:href="#f1_20" transform="matrix(10.4,0,0,10.4,221.2,447.4)" />
<use xlink:href="#f1_2f" transform="matrix(10.4,0,0,10.4,230,447.4)" />
<use xlink:href="#f1_23" transform="matrix(10.4,0,0,10.4,234.5,447.4)" />
<use xlink:href="#f1_2a" transform="matrix(10.4,0,0,10.4,243.3,447.4)" />
<use xlink:href="#f1_1z" transform="matrix(10.4,0,0,10.4,252.2,447.4)" />
<use xlink:href="#f1_f" transform="matrix(10.4,0,0,10.4,261.1,447.4)" />
<use xlink:href="#f1_2e" transform="matrix(10.4,0,0,10.4,272.8,447.4)" />
<use xlink:href="#f1_2a" transform="matrix(10.4,0,0,10.4,280.8,447.4)" />
<use xlink:href="#f1_27" transform="matrix(10.4,0,0,10.4,289.7,447.4)" />
<use xlink:href="#f1_2h" transform="matrix(10.4,0,0,10.4,293.2,447.4)" />
<use xlink:href="#f1_20" transform="matrix(10.4,0,0,10.4,301.2,447.4)" />
<use xlink:href="#f1_2f" transform="matrix(10.4,0,0,10.4,317.4,447.4)" />
<use xlink:href="#f1_23" transform="matrix(10.4,0,0,10.4,321.8,447.4)" />
<use xlink:href="#f1_20" transform="matrix(10.4,0,0,10.4,330.7,447.4)" />
<use xlink:href="#f1_21" transform="matrix(10.4,0,0,10.4,346.9,447.4)" />
<use xlink:href="#f1_2a" transform="matrix(10.4,0,0,10.4,351.3,447.4)" />
<use xlink:href="#f1_27" transform="matrix(10.4,0,0,10.4,360.2,447.4)" />
<use xlink:href="#f1_27" transform="matrix(10.4,0,0,10.4,363.7,447.4)" />
<use xlink:href="#f1_2a" transform="matrix(10.4,0,0,10.4,367.3,447.4)" />
<use xlink:href="#f1_2i" transform="matrix(10.4,0,0,10.4,376.2,447.4)" />
<use xlink:href="#f1_24" transform="matrix(10.4,0,0,10.4,387.7,447.4)" />
<use xlink:href="#f1_29" transform="matrix(10.4,0,0,10.4,391.2,447.4)" />
<use xlink:href="#f1_22" transform="matrix(10.4,0,0,10.4,400.1,447.4)" />
<use xlink:href="#f1_2e" transform="matrix(10.4,0,0,10.4,416.3,447.4)" />
<use xlink:href="#f1_2k" transform="matrix(10.4,0,0,10.4,424.3,447.4)" />
<use xlink:href="#f1_2e" transform="matrix(10.4,0,0,10.4,432.2,447.4)" />
<use xlink:href="#f1_2f" transform="matrix(10.4,0,0,10.4,440.2,447.4)" />
<use xlink:href="#f1_20" transform="matrix(10.4,0,0,10.4,444.6,447.4)" />
<use xlink:href="#f1_28" transform="matrix(10.4,0,0,10.4,453.5,447.4)" />
<use xlink:href="#f1_2a" transform="matrix(10.4,0,0,10.4,474.1,447.4)" />
<use xlink:href="#f1_21" transform="matrix(10.4,0,0,10.4,483,447.4)" />
<use xlink:href="#f1_27" transform="matrix(10.4,0,0,10.4,494.8,447.4)" />
<use xlink:href="#f1_24" transform="matrix(10.4,0,0,10.4,498.3,447.4)" />
<use xlink:href="#f1_29" transform="matrix(10.4,0,0,10.4,501.9,447.4)" />
<use xlink:href="#f1_20" transform="matrix(10.4,0,0,10.4,510.7,447.4)" />
<use xlink:href="#f1_1w" transform="matrix(10.4,0,0,10.4,519.6,447.4)" />
<use xlink:href="#f1_2d" transform="matrix(10.4,0,0,10.4,528.5,447.4)" />
<use xlink:href="#f1_20" transform="matrix(10.4,0,0,10.4,541.1,447.4)" />
<use xlink:href="#f1_2c" transform="matrix(10.4,0,0,10.4,550,447.4)" />
<use xlink:href="#f1_2g" transform="matrix(10.4,0,0,10.4,558.8,447.4)" />
<use xlink:href="#f1_1w" transform="matrix(10.4,0,0,10.4,567.7,447.4)" />
<use xlink:href="#f1_2f" transform="matrix(10.4,0,0,10.4,576.6,447.4)" />
<use xlink:href="#f1_24" transform="matrix(10.4,0,0,10.4,581,447.4)" />
<use xlink:href="#f1_2a" transform="matrix(10.4,0,0,10.4,584.6,447.4)" />
<use xlink:href="#f1_29" transform="matrix(10.4,0,0,10.4,593.4,447.4)" />
<use xlink:href="#f1_2e" transform="matrix(10.4,0,0,10.4,602.3,447.4)" />
<use xlink:href="#f1_t" transform="matrix(10.4,0,0,10.4,617.6,447.4)" />
<use xlink:href="#f1_l" transform="matrix(10.4,0,0,10.4,164,481.3)" />
<use xlink:href="#f2_2j" transform="matrix(10.4,0,0,10.4,172.8,481.3)" />
<use xlink:href="#f1_99" transform="matrix(10.4,0,0,10.4,187.5,481.3)" />
<use xlink:href="#f2_2k" transform="matrix(10.4,0,0,10.4,203.1,481.3)" />
<use xlink:href="#f1_w" transform="matrix(10.4,0,0,10.4,217.9,481.3)" />
<use xlink:href="#f1_n" transform="matrix(10.4,0,0,10.4,234,481.3)" />
<use xlink:href="#f1_f" transform="matrix(10.4,0,0,10.4,242.9,481.3)" />
<use xlink:href="#f1_l" transform="matrix(10.4,0,0,10.4,254.1,481.3)" />
<use xlink:href="#f2_2k" transform="matrix(10.4,0,0,10.4,262.8,481.3)" />
<use xlink:href="#f1_e" transform="matrix(10.4,0,0,10.4,277.7,481.3)" />
<use xlink:href="#f2_2l" transform="matrix(10.4,0,0,10.4,293.8,481.3)" />
<use xlink:href="#f1_w" transform="matrix(10.4,0,0,10.4,308.7,481.3)" />
<use xlink:href="#f1_o" transform="matrix(10.4,0,0,10.4,324.6,481.3)" />
<use xlink:href="#f1_f" transform="matrix(10.4,0,0,10.4,333.4,481.3)" />
<use xlink:href="#f2_2l" transform="matrix(10.4,0,0,10.4,344.6,481.3)" />
<use xlink:href="#f1_e" transform="matrix(10.4,0,0,10.4,359.4,481.3)" />
<use xlink:href="#f1_l" transform="matrix(10.4,0,0,10.4,375.5,481.3)" />
<use xlink:href="#f2_2j" transform="matrix(10.4,0,0,10.4,384.4,481.3)" />
<use xlink:href="#f1_w" transform="matrix(10.4,0,0,10.4,399.2,481.3)" />
<use xlink:href="#f1_q" transform="matrix(10.4,0,0,10.4,415.3,481.3)" />
<use xlink:href="#f1_h" transform="matrix(10.4,0,0,10.4,424.2,481.3)" />
<use xlink:href="#f1_q" transform="matrix(10.4,0,0,10.4,68.3,552.8)" />
<use xlink:href="#f1_m" transform="matrix(10.4,0,0,10.4,77.2,552.8)" />
<use xlink:href="#f1_h" transform="matrix(10.4,0,0,10.4,86.3,552.8)" />
<use xlink:href="#f1_15" transform="matrix(10.4,0,0,10.4,109,552.8)" />
<use xlink:href="#f1_24" transform="matrix(10.4,0,0,10.4,118.8,552.8)" />
<use xlink:href="#f1_29" transform="matrix(10.4,0,0,10.4,122.3,552.8)" />
<use xlink:href="#f1_1z" transform="matrix(10.4,0,0,10.4,131.2,552.8)" />
<use xlink:href="#f1_k" transform="matrix(7,0,0,7,167.2,545.4)" />
<use xlink:href="#f1_j" transform="matrix(10.5,0,0,10.5,225.3,528.6)" />
<use xlink:href="#f1_k" transform="matrix(10.5,0,0,10.5,249.8,528.6)" />
<use xlink:href="#f1_k" transform="matrix(10.5,0,0,10.5,273.7,528.6)" />
<use xlink:href="#f1_24" transform="matrix(10.5,0,0,10.5,176.9,552.7)" />
<use xlink:href="#f1_21" transform="matrix(10.5,0,0,10.5,180.5,552.7)" />
<use xlink:href="#f1_k" transform="matrix(10.5,0,0,10.5,226,552.7)" />
<use xlink:href="#f1_j" transform="matrix(10.5,0,0,10.5,249.2,552.7)" />
<use xlink:href="#f1_k" transform="matrix(10.5,0,0,10.5,273.7,552.7)" />
<use xlink:href="#f1_h" transform="matrix(10.5,0,0,10.5,290.1,552.7)" />
<use xlink:href="#f1_k" transform="matrix(10.5,0,0,10.5,225.9,576.7)" />
<use xlink:href="#f1_k" transform="matrix(10.5,0,0,10.5,249.8,576.7)" />
<use xlink:href="#f1_j" transform="matrix(10.5,0,0,10.5,273,576.7)" />
<use xlink:href="#f2_10" transform="matrix(10.5,0,0,10.5,149.6,552.7)" />
<use xlink:href="#f2_10" transform="matrix(10.5,0,0,10.5,189.4,552.7)" />
<use xlink:href="#f3_h" transform="matrix(7,0,0,7,161.4,545.4)" />
<use xlink:href="#f3_4r" transform="matrix(10.5,0,0,10.5,218.7,529.6)" />
<use xlink:href="#f3_57" transform="matrix(10.5,0,0,10.5,282.4,529.6)" />
<use xlink:href="#f3_4s" transform="matrix(10.5,0,0,10.5,218.7,545.1)" />
<use xlink:href="#f3_58" transform="matrix(10.5,0,0,10.5,282.4,545.1)" />
<use xlink:href="#f3_x" transform="matrix(10.5,0,0,10.5,204.8,552.7)" />
<use xlink:href="#f3_4s" transform="matrix(10.5,0,0,10.5,218.7,560.4)" />
<use xlink:href="#f3_58" transform="matrix(10.5,0,0,10.5,282.4,560.4)" />
<use xlink:href="#f3_4s" transform="matrix(10.5,0,0,10.5,218.7,575.6)" />
<use xlink:href="#f3_58" transform="matrix(10.5,0,0,10.5,282.4,575.6)" />
<use xlink:href="#f3_4t" transform="matrix(10.5,0,0,10.5,218.7,580.2)" />
<use xlink:href="#f3_59" transform="matrix(10.5,0,0,10.5,282.4,580.2)" />
<use xlink:href="#f1_10" transform="matrix(10.4,0,0,10.4,303.9,552.8)" />
<use xlink:href="#f1_27" transform="matrix(10.4,0,0,10.4,314.5,552.8)" />
<use xlink:href="#f1_2e" transform="matrix(10.4,0,0,10.4,318.1,552.8)" />
<use xlink:href="#f1_2a" transform="matrix(10.4,0,0,10.4,326.1,552.8)" />
<use xlink:href="#f1_2e" transform="matrix(10.4,0,0,10.4,341.9,552.8)" />
<use xlink:href="#f1_23" transform="matrix(10.4,0,0,10.4,349.9,552.8)" />
<use xlink:href="#f1_2a" transform="matrix(10.4,0,0,10.4,358.7,552.8)" />
<use xlink:href="#f1_2i" transform="matrix(10.4,0,0,10.4,367.6,552.8)" />
<use xlink:href="#f1_2f" transform="matrix(10.4,0,0,10.4,386.1,552.8)" />
<use xlink:href="#f1_23" transform="matrix(10.4,0,0,10.4,390.5,552.8)" />
<use xlink:href="#f1_1w" transform="matrix(10.4,0,0,10.4,399.4,552.8)" />
<use xlink:href="#f1_2f" transform="matrix(10.4,0,0,10.4,408.3,552.8)" />
</g>
<path d="M464.3,548.3h50.5" class="g0_32" />
<g fill="#000000" >
<use xlink:href="#f1_l" transform="matrix(7,0,0,7,476.8,534.9)" />
<use xlink:href="#f1_k" transform="matrix(7,0,0,7,439.8,545.3)" />
<use xlink:href="#f1_m" transform="matrix(10.6,0,0,10.5,500,542.1)" />
<use xlink:href="#f1_h" transform="matrix(10.6,0,0,10.5,516.4,552.5)" />
<use xlink:href="#f1_l" transform="matrix(10.6,0,0,10.5,485.3,564.9)" />
<use xlink:href="#f2_10" transform="matrix(10.6,0,0,10.5,465.3,542.1)" />
<use xlink:href="#f2_18" transform="matrix(10.6,0,0,10.5,508.1,542.1)" />
<use xlink:href="#f2_10" transform="matrix(10.6,0,0,10.5,422.2,552.5)" />
<use xlink:href="#f3_h" transform="matrix(7,0,0,7,434,545.3)" />
<use xlink:href="#f3_h" transform="matrix(10.6,0,0,10.5,487.9,542.1)" />
<use xlink:href="#f3_x" transform="matrix(10.6,0,0,10.5,450.3,552.5)" />
<use xlink:href="#f1_q" transform="matrix(10.4,0,0,10.4,68.3,656)" />
<use xlink:href="#f1_n" transform="matrix(10.4,0,0,10.4,77.2,656)" />
<use xlink:href="#f1_h" transform="matrix(10.4,0,0,10.4,86.3,656)" />
<use xlink:href="#f1_15" transform="matrix(10.4,0,0,10.4,109,656)" />
<use xlink:href="#f1_24" transform="matrix(10.4,0,0,10.4,118.8,656)" />
<use xlink:href="#f1_29" transform="matrix(10.4,0,0,10.4,122.3,656)" />
<use xlink:href="#f1_1z" transform="matrix(10.4,0,0,10.4,131.2,656)" />
<use xlink:href="#f1_2f" transform="matrix(10.4,0,0,10.4,145.7,656)" />
<use xlink:href="#f1_23" transform="matrix(10.4,0,0,10.4,150.1,656)" />
<use xlink:href="#f1_20" transform="matrix(10.4,0,0,10.4,159,656)" />
<use xlink:href="#f1_24" transform="matrix(10.4,0,0,10.4,173.8,656)" />
<use xlink:href="#f1_29" transform="matrix(10.4,0,0,10.4,177.3,656)" />
<use xlink:href="#f1_2h" transform="matrix(10.4,0,0,10.4,186.2,656)" />
<use xlink:href="#f1_20" transform="matrix(10.4,0,0,10.4,194.1,656)" />
<use xlink:href="#f1_2d" transform="matrix(10.4,0,0,10.4,203,656)" />
<use xlink:href="#f1_2e" transform="matrix(10.4,0,0,10.4,208.3,656)" />
<use xlink:href="#f1_20" transform="matrix(10.4,0,0,10.4,216.3,656)" />
<use xlink:href="#f1_2a" transform="matrix(10.4,0,0,10.4,230.8,656)" />
<use xlink:href="#f1_21" transform="matrix(10.4,0,0,10.4,239.7,656)" />
<use xlink:href="#f1_2f" transform="matrix(10.4,0,0,10.4,249.8,656)" />
<use xlink:href="#f1_23" transform="matrix(10.4,0,0,10.4,254.3,656)" />
<use xlink:href="#f1_20" transform="matrix(10.4,0,0,10.4,263.1,656)" />
<use xlink:href="#f1_28" transform="matrix(10.4,0,0,10.4,277.9,656)" />
<use xlink:href="#f1_1w" transform="matrix(10.4,0,0,10.4,291.1,656)" />
<use xlink:href="#f1_2f" transform="matrix(10.4,0,0,10.4,300,656)" />
<use xlink:href="#f1_2d" transform="matrix(10.4,0,0,10.4,304.4,656)" />
<use xlink:href="#f1_24" transform="matrix(10.4,0,0,10.4,309.8,656)" />
<use xlink:href="#f1_2j" transform="matrix(10.4,0,0,10.4,313.3,656)" />
<use xlink:href="#f1_k" transform="matrix(10.5,0,0,10.5,383.3,631.3)" />
<use xlink:href="#f1_l" transform="matrix(10.5,0,0,10.5,422.1,631.3)" />
<use xlink:href="#f1_l" transform="matrix(10.5,0,0,10.5,463.1,631.3)" />
<use xlink:href="#f1_k" transform="matrix(10.5,0,0,10.5,383.3,655.3)" />
<use xlink:href="#f1_m" transform="matrix(10.5,0,0,10.5,421.8,655.3)" />
<use xlink:href="#f1_j" transform="matrix(10.5,0,0,10.5,462.9,655.3)" />
<use xlink:href="#f1_j" transform="matrix(10.5,0,0,10.5,380.8,679.4)" />
<use xlink:href="#f1_l" transform="matrix(10.5,0,0,10.5,422.1,679.4)" />
<use xlink:href="#f1_k" transform="matrix(10.5,0,0,10.5,465.4,679.4)" />
<use xlink:href="#f2_10" transform="matrix(10.5,0,0,10.5,328.8,655.3)" />
<use xlink:href="#f3_h" transform="matrix(10.5,0,0,10.5,454.1,631.3)" />
<use xlink:href="#f3_4r" transform="matrix(10.5,0,0,10.5,366.1,632.4)" />
<use xlink:href="#f3_57" transform="matrix(10.5,0,0,10.5,473.3,632.4)" />
<use xlink:href="#f3_4s" transform="matrix(10.5,0,0,10.5,366.1,647.9)" />
<use xlink:href="#f3_58" transform="matrix(10.5,0,0,10.5,473.3,647.9)" />
<use xlink:href="#f3_x" transform="matrix(10.5,0,0,10.5,348.2,655.3)" />
<use xlink:href="#f3_h" transform="matrix(10.5,0,0,10.5,374.3,655.3)" />
<use xlink:href="#f3_4s" transform="matrix(10.5,0,0,10.5,366.1,663.2)" />
<use xlink:href="#f3_58" transform="matrix(10.5,0,0,10.5,473.3,663.2)" />
<use xlink:href="#f3_4s" transform="matrix(10.5,0,0,10.5,366.1,678.4)" />
<use xlink:href="#f3_58" transform="matrix(10.5,0,0,10.5,473.3,678.4)" />
<use xlink:href="#f3_h" transform="matrix(10.5,0,0,10.5,413.1,679.4)" />
<use xlink:href="#f3_4t" transform="matrix(10.5,0,0,10.5,366.1,682.7)" />
<use xlink:href="#f3_59" transform="matrix(10.5,0,0,10.5,473.3,682.7)" />
<use xlink:href="#f1_1x" transform="matrix(10.4,0,0,10.4,488.7,656)" />
<use xlink:href="#f1_2k" transform="matrix(10.4,0,0,10.4,497.6,656)" />
<use xlink:href="#f1_2g" transform="matrix(10.4,0,0,10.4,511.4,656)" />
<use xlink:href="#f1_2e" transform="matrix(10.4,0,0,10.4,520.3,656)" />
<use xlink:href="#f1_24" transform="matrix(10.4,0,0,10.4,528.2,656)" />
<use xlink:href="#f1_29" transform="matrix(10.4,0,0,10.4,531.8,656)" />
<use xlink:href="#f1_22" transform="matrix(10.4,0,0,10.4,540.7,656)" />
<use xlink:href="#f1_20" transform="matrix(10.4,0,0,10.4,555.2,656)" />
<use xlink:href="#f1_27" transform="matrix(10.4,0,0,10.4,564.1,656)" />
<use xlink:href="#f1_20" transform="matrix(10.4,0,0,10.4,567.6,656)" />
<use xlink:href="#f1_28" transform="matrix(10.4,0,0,10.4,576.5,656)" />
<use xlink:href="#f1_20" transform="matrix(10.4,0,0,10.4,589.8,656)" />
<use xlink:href="#f1_29" transform="matrix(10.4,0,0,10.4,598.6,656)" />
<use xlink:href="#f1_2f" transform="matrix(10.4,0,0,10.4,607.5,656)" />
<use xlink:href="#f1_1w" transform="matrix(10.4,0,0,10.4,611.9,656)" />
<use xlink:href="#f1_2d" transform="matrix(10.4,0,0,10.4,620.8,656)" />
<use xlink:href="#f1_2k" transform="matrix(10.4,0,0,10.4,626.1,656)" />
<use xlink:href="#f1_1y" transform="matrix(10.4,0,0,10.4,109,693.3)" />
<use xlink:href="#f1_2a" transform="matrix(10.4,0,0,10.4,117,693.3)" />
<use xlink:href="#f1_27" transform="matrix(10.4,0,0,10.4,125.9,693.3)" />
<use xlink:href="#f1_2g" transform="matrix(10.4,0,0,10.4,129.4,693.3)" />
<use xlink:href="#f1_28" transform="matrix(10.4,0,0,10.4,138.3,693.3)" />
<use xlink:href="#f1_29" transform="matrix(10.4,0,0,10.4,151.5,693.3)" />
<use xlink:href="#f1_2f" transform="matrix(10.4,0,0,10.4,169.2,693.3)" />
<use xlink:href="#f1_2d" transform="matrix(10.4,0,0,10.4,173.7,693.3)" />
<use xlink:href="#f1_1w" transform="matrix(10.4,0,0,10.4,179,693.3)" />
<use xlink:href="#f1_29" transform="matrix(10.4,0,0,10.4,187.8,693.3)" />
<use xlink:href="#f1_2e" transform="matrix(10.4,0,0,10.4,196.7,693.3)" />
<use xlink:href="#f1_21" transform="matrix(10.4,0,0,10.4,204.7,693.3)" />
<use xlink:href="#f1_2a" transform="matrix(10.4,0,0,10.4,209.1,693.3)" />
<use xlink:href="#f1_2d" transform="matrix(10.4,0,0,10.4,218,693.3)" />
<use xlink:href="#f1_28" transform="matrix(10.4,0,0,10.4,223.3,693.3)" />
<use xlink:href="#f1_1w" transform="matrix(10.4,0,0,10.4,236.6,693.3)" />
<use xlink:href="#f1_2f" transform="matrix(10.4,0,0,10.4,245.4,693.3)" />
<use xlink:href="#f1_24" transform="matrix(10.4,0,0,10.4,249.9,693.3)" />
<use xlink:href="#f1_2a" transform="matrix(10.4,0,0,10.4,253.4,693.3)" />
<use xlink:href="#f1_29" transform="matrix(10.4,0,0,10.4,262.3,693.3)" />
<use xlink:href="#f1_2e" transform="matrix(10.4,0,0,10.4,271.2,693.3)" />
<use xlink:href="#f1_h" transform="matrix(10.4,0,0,10.4,279.1,693.3)" />
<use xlink:href="#f1_q" transform="matrix(10.4,0,0,10.4,68.3,749.4)" />
<use xlink:href="#f1_o" transform="matrix(10.4,0,0,10.4,77.2,749.4)" />
<use xlink:href="#f1_h" transform="matrix(10.4,0,0,10.4,86.3,749.4)" />
<use xlink:href="#f1_1b" transform="matrix(10.4,0,0,10.4,109,749.4)" />
<use xlink:href="#f1_20" transform="matrix(10.4,0,0,10.4,117.9,749.4)" />
<use xlink:href="#f1_2f" transform="matrix(10.4,0,0,10.4,126.7,749.4)" />
<use xlink:href="#f1_l" transform="matrix(10.4,0,0,10.5,181.2,737.7)" />
<use xlink:href="#f1_m" transform="matrix(10.4,0,0,10.5,204.7,737.7)" />
<use xlink:href="#f1_k" transform="matrix(10.4,0,0,10.5,183.5,761.7)" />
<use xlink:href="#f1_l" transform="matrix(10.4,0,0,10.5,204.9,761.7)" />
<use xlink:href="#f2_10" transform="matrix(10.4,0,0,10.5,138.6,749.4)" />
<use xlink:href="#f3_4r" transform="matrix(10.4,0,0,10.5,167.8,738.7)" />
<use xlink:href="#f3_57" transform="matrix(10.4,0,0,10.5,214,738.7)" />
<use xlink:href="#f3_x" transform="matrix(10.4,0,0,10.5,153.9,749.4)" />
<use xlink:href="#f3_4s" transform="matrix(10.4,0,0,10.5,167.8,754.2)" />
<use xlink:href="#f3_58" transform="matrix(10.4,0,0,10.5,214,754.2)" />
<use xlink:href="#f3_h" transform="matrix(10.4,0,0,10.5,174.8,761.7)" />
<use xlink:href="#f3_4t" transform="matrix(10.4,0,0,10.5,167.8,765.2)" />
<use xlink:href="#f3_59" transform="matrix(10.4,0,0,10.5,214,765.2)" />
<use xlink:href="#f1_1w" transform="matrix(10.4,0,0,10.4,228.7,749.4)" />
<use xlink:href="#f1_29" transform="matrix(10.4,0,0,10.4,237.6,749.4)" />
<use xlink:href="#f1_1z" transform="matrix(10.4,0,0,10.4,246.5,749.4)" />
<use xlink:href="#f2_21" transform="matrix(10.4,0,0,10.4,259.9,749.4)" />
<use xlink:href="#f1_b" transform="matrix(10.4,0,0,10.4,264.3,749.4)" />
<use xlink:href="#f2_2j" transform="matrix(10.4,0,0,10.4,269.6,749.4)" />
<use xlink:href="#f1_c" transform="matrix(10.4,0,0,10.4,277.7,749.4)" />
<use xlink:href="#f1_w" transform="matrix(10.4,0,0,10.4,287.8,749.4)" />
<use xlink:href="#f2_2j" transform="matrix(10.4,0,0,10.4,302.1,749.4)" />
<use xlink:href="#f1_l" transform="matrix(7.4,0,0,7.4,310.1,744)" />
<use xlink:href="#f1_99" transform="matrix(10.4,0,0,10.4,321.1,749.4)" />
<use xlink:href="#f1_n" transform="matrix(10.4,0,0,10.4,334.8,749.4)" />
<use xlink:href="#f2_2j" transform="matrix(10.4,0,0,10.4,343.5,749.4)" />
<use xlink:href="#f1_e" transform="matrix(10.4,0,0,10.4,356.3,749.4)" />
<use xlink:href="#f1_q" transform="matrix(10.4,0,0,10.4,370.4,749.4)" />
<use xlink:href="#f1_h" transform="matrix(10.4,0,0,10.4,379.3,749.4)" />
<use xlink:href="#f1_1i" transform="matrix(10.4,0,0,10.4,388.7,749.4)" />
<use xlink:href="#f1_23" transform="matrix(10.4,0,0,10.4,399.3,749.4)" />
<use xlink:href="#f1_2a" transform="matrix(10.4,0,0,10.4,408.2,749.4)" />
<use xlink:href="#f1_2i" transform="matrix(10.4,0,0,10.4,417,749.4)" />
<use xlink:href="#f1_2f" transform="matrix(10.4,0,0,10.4,433.3,749.4)" />
<use xlink:href="#f1_23" transform="matrix(10.4,0,0,10.4,437.8,749.4)" />
<use xlink:href="#f1_1w" transform="matrix(10.4,0,0,10.4,446.6,749.4)" />
<use xlink:href="#f1_2f" transform="matrix(10.4,0,0,10.4,455.5,749.4)" />
<use xlink:href="#f2_21" transform="matrix(10.4,0,0,10.4,464.3,749.4)" />
<use xlink:href="#f1_b" transform="matrix(10.4,0,0,10.4,473.5,749.4)" />
<use xlink:href="#f2_10" transform="matrix(10.4,0,0,10.4,478.8,749.4)" />
<use xlink:href="#f1_c" transform="matrix(10.4,0,0,10.4,489.4,749.4)" />
<use xlink:href="#f1_w" transform="matrix(10.4,0,0,10.4,499.5,749.4)" />
<use xlink:href="#f1_j" transform="matrix(10.4,0,0,10.4,513.8,749.4)" />
<use xlink:href="#f1_h" transform="matrix(10.4,0,0,10.4,522.6,749.4)" />
<use xlink:href="#f1_1k" transform="matrix(10.4,0,0,10.4,531.8,749.4)" />
<use xlink:href="#f1_2e" transform="matrix(10.4,0,0,10.4,543.4,749.4)" />
<use xlink:href="#f1_20" transform="matrix(10.4,0,0,10.4,551.3,749.4)" />
<use xlink:href="#f1_2f" transform="matrix(10.4,0,0,10.4,565.1,749.4)" />
<use xlink:href="#f1_23" transform="matrix(10.4,0,0,10.4,569.6,749.4)" />
<use xlink:href="#f1_24" transform="matrix(10.4,0,0,10.4,578.4,749.4)" />
<use xlink:href="#f1_2e" transform="matrix(10.4,0,0,10.4,582,749.4)" />
<use xlink:href="#f1_2d" transform="matrix(10.4,0,0,10.4,594.7,749.4)" />
<use xlink:href="#f1_20" transform="matrix(10.4,0,0,10.4,600,749.4)" />
<use xlink:href="#f1_2e" transform="matrix(10.4,0,0,10.4,608.9,749.4)" />
<use xlink:href="#f1_2g" transform="matrix(10.4,0,0,10.4,616.9,749.4)" />
<use xlink:href="#f1_27" transform="matrix(10.4,0,0,10.4,625.8,749.4)" />
<use xlink:href="#f1_2f" transform="matrix(10.4,0,0,10.4,629.3,749.4)" />
<use xlink:href="#f1_2f" transform="matrix(10.4,0,0,10.4,109,790.8)" />
<use xlink:href="#f1_2a" transform="matrix(10.4,0,0,10.4,113.4,790.8)" />
<use xlink:href="#f1_21" transform="matrix(10.4,0,0,10.4,129.3,790.8)" />
<use xlink:href="#f1_24" transform="matrix(10.4,0,0,10.4,133.7,790.8)" />
<use xlink:href="#f1_29" transform="matrix(10.4,0,0,10.4,137.3,790.8)" />
<use xlink:href="#f1_1z" transform="matrix(10.4,0,0,10.4,146.1,790.8)" />
<use xlink:href="#f2_10" transform="matrix(10.4,0,0,10.4,161.8,790.8)" />
<use xlink:href="#f1_o" transform="matrix(7.4,0,0,7.4,172.4,785.5)" />
<use xlink:href="#f1_h" transform="matrix(10.4,0,0,10.4,178.7,790.8)" />
<use xlink:href="#f1_q" transform="matrix(10.4,0,0,10.4,68.3,861.2)" />
<use xlink:href="#f1_p" transform="matrix(10.4,0,0,10.4,77.2,861.2)" />
<use xlink:href="#f1_h" transform="matrix(10.4,0,0,10.4,86.3,861.2)" />
<use xlink:href="#f1_18" transform="matrix(10.4,0,0,10.4,109,861.2)" />
<use xlink:href="#f1_21" transform="matrix(10.4,0,0,10.4,113.4,861.2)" />
<use xlink:href="#f1_1y" transform="matrix(10.5,0,0,10.5,163.1,838.1)" />
<use xlink:href="#f1_2a" transform="matrix(10.5,0,0,10.5,171.2,838.1)" />
<use xlink:href="#f1_2e" transform="matrix(10.5,0,0,10.5,180.1,838.1)" />
<use xlink:href="#f1_2e" transform="matrix(10.5,0,0,10.5,227,838.1)" />
<use xlink:href="#f1_24" transform="matrix(10.5,0,0,10.5,235,838.1)" />
<use xlink:href="#f1_29" transform="matrix(10.5,0,0,10.5,238.6,838.1)" />
<use xlink:href="#f1_j" transform="matrix(10.5,0,0,10.5,274.7,838.1)" />
<use xlink:href="#f1_2e" transform="matrix(10.5,0,0,10.5,165.7,862.1)" />
<use xlink:href="#f1_24" transform="matrix(10.5,0,0,10.5,173.7,862.1)" />
<use xlink:href="#f1_29" transform="matrix(10.5,0,0,10.5,177.3,862.1)" />
<use xlink:href="#f1_1y" transform="matrix(10.5,0,0,10.5,219,862.1)" />
<use xlink:href="#f1_2a" transform="matrix(10.5,0,0,10.5,227,862.1)" />
<use xlink:href="#f1_2e" transform="matrix(10.5,0,0,10.5,235.9,862.1)" />
<use xlink:href="#f1_j" transform="matrix(10.5,0,0,10.5,274.7,862.1)" />
<use xlink:href="#f1_f" transform="matrix(10.5,0,0,10.5,291.7,862.1)" />
<use xlink:href="#f1_j" transform="matrix(10.5,0,0,10.5,177.5,886.2)" />
<use xlink:href="#f1_j" transform="matrix(10.5,0,0,10.5,233.3,886.2)" />
<use xlink:href="#f1_k" transform="matrix(10.5,0,0,10.5,275.3,886.2)" />
<use xlink:href="#f2_10" transform="matrix(10.5,0,0,10.5,127.2,862.1)" />
<use xlink:href="#f3_1x" transform="matrix(10.5,0,0,10.5,190.1,838.1)" />
<use xlink:href="#f3_h" transform="matrix(10.5,0,0,10.5,216.2,838.1)" />
<use xlink:href="#f3_1x" transform="matrix(10.5,0,0,10.5,249.1,838.1)" />
<use xlink:href="#f3_4r" transform="matrix(10.5,0,0,10.5,156.5,839.1)" />
<use xlink:href="#f3_57" transform="matrix(10.5,0,0,10.5,284.1,839.1)" />
<use xlink:href="#f3_4s" transform="matrix(10.5,0,0,10.5,156.5,854.6)" />
<use xlink:href="#f3_58" transform="matrix(10.5,0,0,10.5,284.1,854.6)" />
<use xlink:href="#f3_x" transform="matrix(10.5,0,0,10.5,142.6,862.1)" />
<use xlink:href="#f3_1x" transform="matrix(10.5,0,0,10.5,187.6,862.1)" />
<use xlink:href="#f3_1x" transform="matrix(10.5,0,0,10.5,245.9,862.1)" />
<use xlink:href="#f3_4s" transform="matrix(10.5,0,0,10.5,156.5,869.8)" />
<use xlink:href="#f3_58" transform="matrix(10.5,0,0,10.5,284.1,869.8)" />
<use xlink:href="#f3_4s" transform="matrix(10.5,0,0,10.5,156.5,885.1)" />
<use xlink:href="#f3_58" transform="matrix(10.5,0,0,10.5,284.1,885.1)" />
<use xlink:href="#f3_4t" transform="matrix(10.5,0,0,10.5,156.5,889.7)" />
<use xlink:href="#f3_59" transform="matrix(10.5,0,0,10.5,284.1,889.7)" />
<use xlink:href="#f1_2h" transform="matrix(10.4,0,0,10.4,305.4,861.2)" />
<use xlink:href="#f1_20" transform="matrix(10.4,0,0,10.4,313.3,861.2)" />
<use xlink:href="#f1_2d" transform="matrix(10.4,0,0,10.4,322.2,861.2)" />
<use xlink:href="#f1_24" transform="matrix(10.4,0,0,10.4,327.5,861.2)" />
<use xlink:href="#f1_21" transform="matrix(10.4,0,0,10.4,331.1,861.2)" />
<use xlink:href="#f1_2k" transform="matrix(10.4,0,0,10.4,335.5,861.2)" />
<use xlink:href="#f1_2f" transform="matrix(10.4,0,0,10.4,350.2,861.2)" />
<use xlink:href="#f1_23" transform="matrix(10.4,0,0,10.4,354.7,861.2)" />
<use xlink:href="#f1_1w" transform="matrix(10.4,0,0,10.4,363.5,861.2)" />
<use xlink:href="#f1_2f" transform="matrix(10.4,0,0,10.4,372.4,861.2)" />
<use xlink:href="#f2_10" transform="matrix(10.4,0,0,10.4,383.5,861.2)" />
<use xlink:href="#f1_h" transform="matrix(10.4,0,0,10.4,400.9,861.2)" />
<use xlink:href="#f1_b" transform="matrix(10.4,0,0,10.4,412.1,861.2)" />
<use xlink:href="#f2_1w" transform="matrix(10.4,0,0,10.4,417.4,861.2)" />
<use xlink:href="#f2_1z" transform="matrix(10.4,0,0,10.4,426.2,861.2)" />
<use xlink:href="#f2_25" transform="matrix(10.4,0,0,10.4,435.1,861.2)" />
<use xlink:href="#f2_10" transform="matrix(10.4,0,0,10.4,445.4,861.2)" />
<use xlink:href="#f1_c" transform="matrix(10.4,0,0,10.4,455.9,861.2)" />
<use xlink:href="#f1_w" transform="matrix(10.4,0,0,10.4,468,861.2)" />
<use xlink:href="#f1_b" transform="matrix(10.4,0,0,10.4,484.1,861.2)" />
<use xlink:href="#f2_1w" transform="matrix(10.4,0,0,10.4,489.4,861.2)" />
<use xlink:href="#f2_1z" transform="matrix(10.4,0,0,10.4,498.3,861.2)" />
<use xlink:href="#f2_25" transform="matrix(10.4,0,0,10.4,507.2,861.2)" />
<use xlink:href="#f2_10" transform="matrix(10.4,0,0,10.4,517.3,861.2)" />
<use xlink:href="#f1_c" transform="matrix(10.4,0,0,10.4,527.9,861.2)" />
<use xlink:href="#f1_h" transform="matrix(10.4,0,0,10.4,540,861.2)" />
<use xlink:href="#f2_10" transform="matrix(10.4,0,0,10.4,551.2,861.2)" />
<use xlink:href="#f1_w" transform="matrix(10.4,0,0,10.4,568.6,861.2)" />
<use xlink:href="#f1_2n" transform="matrix(10.4,0,0,10.4,584.7,861.2)" />
<use xlink:href="#f2_10" transform="matrix(10.4,0,0,10.4,589,861.2)" />
<use xlink:href="#f1_2n" transform="matrix(10.4,0,0,10.4,599.6,861.2)" />
<use xlink:href="#f2_18" transform="matrix(10.4,0,0,10.4,610.6,861.2)" />
<use xlink:href="#f1_m" transform="matrix(7.4,0,0,7.4,615,866.5)" />
<use xlink:href="#f1_h" transform="matrix(10.4,0,0,10.4,621.2,861.2)" />
<use xlink:href="#f4_s" transform="matrix(12,0,0,12,665.7,1052.9)" />
</g>
<g fill="#0080FF" fill-opacity="0.5" >
<use xlink:href="#f0_1c" transform="matrix(36.3,0,0,36.3,174,1059.2)" />
<use xlink:href="#f0_21" transform="matrix(36.3,0,0,36.3,204.8,1059.2)" />
<use xlink:href="#f0_1x" transform="matrix(36.3,0,0,36.3,235.7,1059.2)" />
<use xlink:href="#f0_2e" transform="matrix(36.3,0,0,36.3,266.5,1059.2)" />
<use xlink:href="#f0_2a" transform="matrix(36.3,0,0,36.3,284.9,1059.2)" />
<use xlink:href="#f0_17" transform="matrix(36.3,0,0,36.3,315.8,1059.2)" />
<use xlink:href="#f0_2h" transform="matrix(36.3,0,0,36.3,358.9,1059.2)" />
<use xlink:href="#f0_25" transform="matrix(36.3,0,0,36.3,389.7,1059.2)" />
<use xlink:href="#f0_20" transform="matrix(36.3,0,0,36.3,402,1059.2)" />
<use xlink:href="#f0_21" transform="matrix(36.3,0,0,36.3,432.8,1059.2)" />
<use xlink:href="#f0_i" transform="matrix(36.3,0,0,36.3,463.7,1059.2)" />
<use xlink:href="#f0_25" transform="matrix(36.3,0,0,36.3,479.1,1059.2)" />
<use xlink:href="#f0_2a" transform="matrix(36.3,0,0,36.3,491.4,1059.2)" />
</g>
<defs>
<path d="M593,101c0,0,182,0,279,112c0,0,98,113,98,318c0,0,0,196,-98,308c0,0,-98,112,-277,112c0,0,-181,0,-279,-110c0,0,-99,-111,-99,-310c0,0,0,-198,100,-314c0,0,99,-116,276,-116Zm0,-115c0,0,-162,0,-279,65c0,0,-118,66,-180,190c0,0,-62,124,-62,290c0,0,0,252,138,394c0,0,138,142,385,142c0,0,160,0,278,-64c0,0,118,-64,180,-185c0,0,62,-122,62,-287c0,0,0,-165,-63,-289c0,0,-63,-124,-181,-190c0,0,-118,-66,-278,-66Z" 
id="f0_1f"
transform="scale(0.001,-0.001)" />

<path d="M106,0V635c0,0,0,141,-5,173H228c0,0,1,-4,2,-21c0,0,1,-16,2,-37c0,0,1,-22,2,-81h2c0,0,47,84,108,119c0,0,60,34,151,34c0,0,132,0,194,-66c0,0,61,-66,61,-218V0H615V512c0,0,0,80,-15,124c0,0,-16,44,-50,63c0,0,-35,20,-101,20c0,0,-97,0,-153,-67c0,0,-56,-66,-56,-184V0Z" 
id="f0_2a"
transform="scale(0.001,-0.001)" />

<path d="M103,0V1107H237V0Z" 
id="f0_28"
transform="scale(0.001,-0.001)" />

<path d="M102,0V808H236V0Zm0,979v128H236V979Z" 
id="f0_25"
transform="scale(0.001,-0.001)" />

<path d="M643,478c0,0,-11,128,-65,187c0,0,-54,59,-154,59c0,0,-98,0,-155,-66c0,0,-57,-65,-62,-180ZM431,-14c0,0,-179,0,-272,106c0,0,-94,107,-94,317c0,0,0,200,94,307c0,0,93,106,267,106c0,0,356,0,356,-429V375H206c0,0,0,-138,57,-213c0,0,58,-75,168,-75c0,0,87,0,140,35c0,0,53,35,71,88L760,177c0,0,-72,-191,-329,-191Z" 
id="f0_21"
transform="scale(0.001,-0.001)" />

<path d="M17,0L304,415L31,808H179L380,493L580,808H730L457,417L747,0H598L380,331L162,0Z" 
id="f0_2k"
transform="scale(0.001,-0.001)" />

<path d="M339,87c0,0,74,0,132,34c0,0,57,33,90,91c0,0,34,59,34,121v66L448,396c0,0,-95,-2,-144,-19c0,0,-49,-18,-75,-55c0,0,-26,-38,-26,-98c0,0,0,-65,35,-101c0,0,36,-36,101,-36ZM309,-14c0,0,-122,0,-183,64c0,0,-61,64,-61,176c0,0,0,125,82,192c0,0,83,67,266,72l182,3v44c0,0,0,98,-42,141c0,0,-42,43,-132,43c0,0,-90,0,-131,-31c0,0,-41,-31,-49,-98L101,604c0,0,34,218,323,218c0,0,153,0,229,-70c0,0,77,-69,77,-202V202c0,0,0,-59,16,-90c0,0,16,-30,60,-30c0,0,19,0,44,5V4C850,4,799,-7,746,-7c0,0,-75,0,-109,38c0,0,-33,40,-38,124h-4C595,155,543,62,475,24c0,0,-68,-38,-166,-38Z" 
id="f0_1x"
transform="scale(0.001,-0.001)" />

<path d="M106,0V635c0,0,0,141,-5,173H228c0,0,1,-4,2,-21c0,0,1,-16,2,-37c0,0,1,-22,2,-81h2c0,0,44,86,100,120c0,0,56,33,136,33c0,0,92,0,145,-36c0,0,54,-37,75,-117h2c0,0,42,82,101,117c0,0,59,36,143,36c0,0,123,0,178,-66c0,0,56,-67,56,-218V0H1039V512c0,0,0,117,-32,162c0,0,-32,45,-116,45c0,0,-88,0,-136,-66c0,0,-49,-65,-49,-185V0H573V512c0,0,0,117,-32,162c0,0,-32,45,-116,45c0,0,-86,0,-136,-66c0,0,-50,-66,-50,-185V0Z" 
id="f0_29"
transform="scale(0.001,-0.001)" />

<path d="M453,84c0,0,100,0,146,74c0,0,46,73,46,247c0,0,0,169,-46,241c0,0,-45,73,-145,73c0,0,-80,0,-125,-34c0,0,-45,-34,-68,-105c0,0,-24,-71,-24,-186c0,0,0,-159,51,-234c0,0,51,-76,165,-76ZM103,-316V643c0,0,0,124,-5,165H228c0,0,1,-3,3,-22c0,0,1,-18,3,-56c0,0,2,-38,2,-52h3c0,0,36,75,94,110c0,0,59,34,156,34c0,0,149,0,223,-100c0,0,74,-100,74,-314c0,0,0,-422,-297,-422c0,0,-187,0,-251,140h-4c0,0,3,-6,3,-126V-316Z" 
id="f0_2c"
transform="scale(0.001,-0.001)" />

<path d="M420,84c0,0,121,0,173,78c0,0,52,77,52,243c0,0,0,167,-50,243c0,0,-50,76,-167,76c0,0,-118,0,-170,-78c0,0,-53,-77,-53,-241c0,0,0,-160,52,-241c0,0,52,-80,163,-80Zm1,-98c0,0,-176,0,-267,107c0,0,-90,108,-90,312c0,0,0,417,362,417c0,0,185,0,272,-102c0,0,88,-101,88,-315c0,0,0,-212,-94,-316C692,89,599,-14,421,-14Z" 
id="f0_2b"
transform="scale(0.001,-0.001)" />

<path d="M278,-11c0,0,-162,0,-162,182V710H23v98h99l39,181h90V808H400V710H251V200c0,0,0,-58,19,-82c0,0,19,-23,66,-23c0,0,27,0,77,10V6c0,0,-66,-17,-135,-17Z" 
id="f0_2g"
transform="scale(0.001,-0.001)" />

<path d="M432,92c0,0,96,0,156,66c0,0,61,65,61,169c0,0,0,103,-61,169c0,0,-60,66,-156,66c0,0,-95,0,-156,-66c0,0,-61,-66,-61,-169c0,0,0,-104,61,-169c0,0,61,-66,156,-66ZM425,-28c0,0,-176,0,-271,135c0,0,-95,136,-95,388c0,0,0,278,103,429c0,0,103,151,293,151c0,0,142,0,226,-77c0,0,84,-76,90,-211H638c0,0,-8,80,-56,123c0,0,-47,43,-127,43c0,0,-125,0,-192,-119c0,0,-58,-102,-64,-278c0,0,100,127,255,127c0,0,152,0,245,-98c0,0,93,-98,93,-258c0,0,0,-161,-101,-259c0,0,-101,-96,-266,-96Z" 
id="f1_p"
transform="scale(0.001,-0.001)" />

<path d="M419,483c0,0,93,0,152,66c0,0,59,66,59,169c0,0,0,103,-59,169c0,0,-59,65,-152,65c0,0,-94,0,-153,-65c0,0,-59,-66,-59,-169c0,0,0,-103,59,-169c0,0,59,-66,153,-66ZM397,-28c0,0,-143,0,-227,75c0,0,-85,77,-91,211H209c0,0,8,-83,57,-128c0,0,49,-45,131,-45c0,0,121,0,186,135c0,0,48,101,62,265C645,485,545,362,397,362c0,0,-150,0,-241,98c0,0,-91,98,-91,258c0,0,0,160,99,258c0,0,99,98,262,98c0,0,173,0,266,-123c0,0,94,-123,94,-349c0,0,0,-303,-101,-467C685,135,583,-28,397,-28Z" 
id="f1_s"
transform="scale(0.001,-0.001)" />

<path d="M133,0V162H292V0Z" 
id="f1_h"
transform="scale(0.001,-0.001)" />

<path d="M392,0V966H22v131H911V966H541V0Z" 
id="f1_1j"
transform="scale(0.001,-0.001)" />

<path d="M99,0V1097H233V690l23,30c0,0,87,102,219,102c0,0,132,0,203,-71c0,0,72,-72,72,-204V0H616V514c0,0,0,99,-38,142c0,0,-38,44,-124,44c0,0,-102,0,-162,-73c0,0,-59,-74,-59,-199V0Z" 
id="f1_23"
transform="scale(0.001,-0.001)" />

<path d="M649,461c0,0,-6,111,-55,172c0,0,-55,69,-160,69c0,0,-106,0,-170,-79c0,0,-50,-62,-60,-162ZM425,-20c0,0,-169,0,-266,106c0,0,-97,107,-97,297c0,0,0,201,102,320c0,0,103,119,276,119c0,0,157,0,253,-116c0,0,96,-117,96,-306l-1,-48H204c0,0,8,-119,54,-182c0,0,57,-76,180,-76c0,0,77,0,134,43c0,0,58,43,70,110H775C775,247,746,116,656,47c0,0,-90,-67,-231,-67Z" 
id="f1_20"
transform="scale(0.001,-0.001)" />

<path d="M393,-20c0,0,-169,0,-252,65c0,0,-83,67,-92,210H178c0,0,10,-85,61,-123c0,0,50,-38,154,-38c0,0,90,0,136,34c0,0,47,35,47,100c0,0,0,42,-31,64c0,0,-30,21,-123,43L283,368c0,0,-112,27,-160,75c0,0,-48,48,-48,135c0,0,0,112,80,178c0,0,81,66,218,66c0,0,140,0,222,-68c0,0,82,-67,88,-187H557c0,0,-6,67,-55,103c0,0,-48,37,-129,37c0,0,-84,0,-127,-29c0,0,-44,-29,-44,-85c0,0,0,-43,31,-65c0,0,30,-21,121,-43L493,452c0,0,117,-28,167,-78c0,0,49,-49,49,-138c0,0,0,-119,-86,-188c0,0,-85,-68,-230,-68Z" 
id="f1_2e"
transform="scale(0.001,-0.001)" />

<path d="M375,-20c0,0,-136,0,-203,66c0,0,-68,68,-68,204V799H238V284c0,0,0,-101,38,-146c0,0,39,-44,127,-44c0,0,97,0,153,75c0,0,57,75,57,203V799H747V0H620V122c0,0,-14,-22,-30,-41C590,81,504,-20,375,-20Z" 
id="f1_2g"
transform="scale(0.001,-0.001)" />

<path d="M99,0V799H226V680l28,36c0,0,90,106,215,106c0,0,107,0,171,-63c0,0,28,-28,44,-65l21,28c0,0,87,100,208,100c0,0,125,0,194,-68c0,0,68,-68,68,-194V0H1041V515c0,0,0,91,-37,138c0,0,-38,47,-110,47c0,0,-87,0,-139,-68c0,0,-52,-68,-52,-183V0H569V547c0,0,0,75,-34,114c0,0,-34,39,-99,39c0,0,-89,0,-146,-76c0,0,-57,-76,-57,-196V0Z" 
id="f1_28"
transform="scale(0.001,-0.001)" />

<path d="M424,94c0,0,107,0,169,83c0,0,63,83,63,223c0,0,0,140,-63,224c0,0,-62,83,-169,83c0,0,-106,0,-168,-83c0,0,-62,-84,-62,-224c0,0,0,-140,62,-223c0,0,62,-83,168,-83Zm0,-114c0,0,-165,0,-268,115C156,95,54,211,54,400c0,0,0,189,102,306c0,0,103,116,268,116c0,0,168,0,270,-116c0,0,102,-117,102,-306c0,0,0,-189,-102,-305C694,95,592,-20,424,-20Z" 
id="f1_2a"
transform="scale(0.001,-0.001)" />

<path d="M132,0V687H22V799H132V935c0,0,0,88,52,133c0,0,52,45,157,45l59,-3V989l-53,2c0,0,-39,0,-60,-24c0,0,-21,-25,-21,-71V799H400V687H266V0Z" 
id="f1_21"
transform="scale(0.001,-0.001)" />

<path d="M292,-9c0,0,-88,0,-124,38c0,0,-36,39,-36,134V689H22V799H132v224H266V799H392V689H266V163c0,0,0,-27,21,-43c0,0,21,-15,57,-15h48V1C392,1,324,-9,292,-9Z" 
id="f1_2f"
transform="scale(0.001,-0.001)" />

<path d="M118,0V799H246V662c0,0,17,32,36,58c0,0,76,102,187,102c0,0,19,0,38,-6V679l-27,1c0,0,-109,0,-168,-66c0,0,-60,-65,-60,-186V0Z" 
id="f1_2d"
transform="scale(0.001,-0.001)" />

<path d="M99,0V799H226V681l30,39c0,0,87,102,219,102c0,0,132,0,203,-71c0,0,72,-72,72,-204V0H616V502c0,0,0,105,-41,151c0,0,-40,47,-132,47c0,0,-97,0,-154,-73c0,0,-56,-74,-56,-199V0Z" 
id="f1_29"
transform="scale(0.001,-0.001)" />

<path d="M436,95c0,0,105,0,160,79c0,0,54,80,54,232c0,0,0,150,-52,222c0,0,-52,72,-161,72c0,0,-112,0,-163,-81c0,0,-51,-82,-51,-258c0,0,0,-127,55,-197c0,0,55,-69,158,-69Zm6,-115c0,0,-135,0,-215,102L215,98V0H89V1097H223V695c0,0,87,127,225,127c1,0,2,0,2,0c0,0,157,0,249,-108c0,0,91,-107,91,-291c0,0,0,-208,-92,-326C698,97,606,-20,442,-20Z" 
id="f1_1x"
transform="scale(0.001,-0.001)" />

<path d="M104,0V799H238V0Zm-2,946v152H239V946Z" 
id="f1_24"
transform="scale(0.001,-0.001)" />

<path d="M39,0V0c0,0,0,170,84,277c0,0,85,108,317,236c0,0,113,62,154,115c0,0,41,52,41,134c0,0,0,86,-62,141c0,0,-61,54,-156,54c0,0,-101,0,-158,-68c0,0,-57,-68,-60,-194H67c0,0,-2,178,95,279c0,0,98,101,273,101c0,0,149,0,245,-89c0,0,94,-88,94,-228c0,0,0,-118,-60,-195c0,0,-61,-76,-229,-169C485,394,303,294,237,212c0,0,-28,-36,-46,-81H774V0Z" 
id="f1_l"
transform="scale(0.001,-0.001)" />

<path d="M139,0V1097H287V0Z" 
id="f1_18"
transform="scale(0.001,-0.001)" />

<path d="M248,0L21,799H169L322,163L478,799H627L788,158L950,799h133L857,0H713L548,624L392,0Z" 
id="f1_2i"
transform="scale(0.001,-0.001)" />

<path d="M335,90c0,0,106,0,179,57c0,0,50,41,67,91c0,0,3,10,4,31c0,0,3,21,3,47v87c0,0,-38,-18,-83,-25L381,360c0,0,-97,-13,-142,-45c0,0,-44,-31,-44,-86c0,0,0,-67,36,-103c0,0,37,-36,104,-36ZM309,-20c0,0,-117,0,-186,61c0,0,-68,63,-68,169c0,0,0,108,64,171c0,0,65,64,189,79l183,23c0,0,22,3,42,8c0,0,26,7,40,27c0,0,15,20,15,51v6c0,0,0,64,-49,101c0,0,-48,36,-135,36c0,0,-83,0,-130,-38c0,0,-46,-39,-56,-115H94c0,0,10,131,92,197c0,0,83,66,238,66c0,0,145,0,222,-63c0,0,76,-63,76,-184V137c0,0,0,-21,12,-33c0,0,12,-12,33,-12c0,0,6,0,18,1c0,0,11,2,25,5V1c0,0,-20,-7,-41,-11c0,0,-22,-5,-37,-5c0,0,-76,0,-110,41c0,0,-22,28,-32,79c0,0,-15,-19,-34,-36c0,0,-101,-89,-247,-89Z" 
id="f1_1w"
transform="scale(0.001,-0.001)" />

<path d="M394,-20c0,0,-159,0,-253,113c0,0,-95,114,-95,307c0,0,0,193,98,308c0,0,98,114,264,114c0,0,144,0,230,-78c0,0,85,-79,91,-217H600c0,0,-8,86,-59,133c0,0,-52,47,-138,47c0,0,-101,0,-159,-82c0,0,-58,-82,-58,-225c0,0,0,-152,54,-229c0,0,53,-77,159,-77c0,0,79,0,132,50c0,0,52,51,69,143H729C729,287,709,137,623,58c0,0,-86,-78,-229,-78Z" 
id="f1_1y"
transform="scale(0.001,-0.001)" />

<path d="M411,93c0,0,98,0,158,73c0,0,60,74,60,195c0,0,0,163,-57,252c0,0,-56,88,-161,88c0,0,-113,0,-165,-72c0,0,-52,-72,-52,-229c0,0,0,-147,56,-227c0,0,56,-80,161,-80ZM404,-20c0,0,-161,0,-255,118c0,0,-95,120,-95,324c0,0,0,179,92,290c0,0,91,110,239,110c0,0,147,0,233,-124l11,-15v414H763V0H638V109L621,84C621,84,538,-20,404,-20Z" 
id="f1_1z"
transform="scale(0.001,-0.001)" />

<path d="M133,-224v71c0,0,47,8,65,52c0,0,14,33,17,101H133V163H292V27c0,0,0,-114,-36,-172c0,0,-37,-58,-123,-79Z" 
id="f1_f"
transform="scale(0.001,-0.001)" />

<path d="M418,95c0,0,98,0,158,73c0,0,59,73,59,193c0,0,0,170,-54,254c0,0,-54,85,-163,85c0,0,-113,0,-165,-72c0,0,-52,-71,-52,-227c0,0,0,-147,57,-227c0,0,56,-79,160,-79ZM394,-336c0,0,-136,0,-216,62c0,0,-79,63,-96,182H219c0,0,12,-64,57,-98c0,0,45,-35,116,-35c0,0,116,0,176,73c0,0,61,73,61,211V85l-1,-1C628,84,545,-20,412,-20c0,0,-161,0,-256,118c0,0,-94,120,-94,324c0,0,0,179,93,290c0,0,93,110,244,110c0,0,144,0,228,-124l10,-14V799H763V59c0,0,-1,-201,-91,-298c0,0,-91,-97,-278,-97Z" 
id="f1_22"
transform="scale(0.001,-0.001)" />

<path d="M424,-28c0,0,-180,0,-272,86c0,0,-92,87,-100,266H192c0,0,12,-126,66,-180c0,0,55,-54,170,-54c0,0,100,0,163,57c0,0,64,57,64,147c0,0,0,94,-61,149c0,0,-52,48,-135,54c0,0,-38,2,-72,2c0,0,-34,0,-45,-3V613c0,0,17,-3,51,-3c0,0,35,0,68,4c0,0,66,8,106,43c0,0,55,45,55,125c0,0,0,77,-58,125c0,0,-58,48,-148,48c0,0,-96,0,-147,-58c0,0,-51,-59,-56,-175H82c0,0,0,168,89,260c0,0,88,93,250,93c0,0,153,0,247,-77c0,0,94,-76,94,-202c0,0,0,-124,-95,-201c0,0,-18,-15,-39,-27c0,0,39,-17,69,-41c0,0,101,-79,101,-214c0,0,0,-151,-105,-246c0,0,-104,-95,-269,-95Z" 
id="f1_m"
transform="scale(0.001,-0.001)" />

<path d="M564,127c0,0,128,0,187,49c0,0,60,49,60,155c0,0,0,93,-62,136c0,0,-62,42,-195,42H262V127ZM527,630c0,0,121,0,177,43c0,0,56,44,56,138c0,0,0,82,-52,121c0,0,-51,38,-162,38H262V630ZM113,0V1097H595c0,0,141,0,227,-72c0,0,85,-72,85,-190c0,0,0,-137,-101,-214c0,0,-23,-17,-50,-30c0,0,54,-20,95,-49c0,0,107,-78,107,-217c0,0,0,-153,-105,-239C853,86,749,0,562,0Z" 
id="f1_11"
transform="scale(0.001,-0.001)" />

<path d="M152,-323c-8,0,-38,1,-63,8v125c0,0,30,-11,77,-12c0,0,45,0,76,37c0,0,30,38,69,140l2,12v1L17,799H170L383,139L600,799H747L443,-25c0,0,-70,-184,-125,-241c0,0,-55,-57,-164,-57c0,0,-1,0,-2,0Z" 
id="f1_2k"
transform="scale(0.001,-0.001)" />

<path d="M103,0V1097H237V0Z" 
id="f1_27"
transform="scale(0.001,-0.001)" />

<path d="M424,92c0,0,114,0,170,107c0,0,57,108,56,323c0,0,1,216,-56,324c0,0,-56,107,-170,107c0,0,-112,0,-168,-107c0,0,-56,-108,-57,-324c0,0,1,-215,57,-323c0,0,56,-107,168,-107Zm0,-120c0,0,-176,0,-271,142c0,0,-96,143,-96,408c0,0,0,265,96,409c0,0,95,144,271,144c0,0,178,0,273,-144c0,0,96,-144,96,-409c0,0,0,-265,-96,-408c0,0,-95,-142,-273,-142Z" 
id="f1_j"
transform="scale(0.001,-0.001)" />

<path d="M650,601c0,0,103,0,151,46c0,0,48,45,48,143c0,0,0,95,-51,139c0,0,-50,44,-159,44H283V601ZM134,0V1097H644c0,0,175,0,266,-76c0,0,91,-75,91,-222c0,0,0,-144,-94,-225c0,0,-24,-20,-52,-36l25,-12c0,0,100,-57,103,-193l6,-200c0,0,2,-50,13,-71c0,0,11,-22,43,-38V1H862c0,0,-5,13,-11,70c0,0,-6,57,-9,126l-3,87c0,0,-3,102,-50,146c0,0,-47,43,-154,43H283V0Z" 
id="f1_1h"
transform="scale(0.001,-0.001)" />

<path d="M436,95c0,0,105,0,160,79c0,0,54,80,54,232c0,0,0,150,-52,222c0,0,-52,72,-161,72c0,0,-112,0,-163,-81c0,0,-51,-82,-51,-258c0,0,0,-127,55,-197c0,0,55,-69,158,-69ZM89,-315V799H216V685l7,10c0,0,86,127,228,127c0,0,156,0,248,-108c0,0,91,-107,91,-291c0,0,0,-208,-92,-326C698,97,606,-20,442,-20c0,0,-135,0,-215,102l-4,6V-315Z" 
id="f1_2b"
transform="scale(0.001,-0.001)" />

<path d="M17,0L301,412L32,799H205L389,514L574,799H740L471,410L749,0H581L382,305L186,0Z" 
id="f1_2j"
transform="scale(0.001,-0.001)" />

<path d="M212,0c0,0,51,270,162,500c0,0,109,222,281,422H57v131H799V934C799,934,623,726,515,498C515,498,408,269,362,0Z" 
id="f1_q"
transform="scale(0.001,-0.001)" />

<path d="M564,-29c0,0,-227,0,-362,155C202,126,67,283,67,548c0,0,0,265,140,422c0,0,140,157,376,157c0,0,186,0,305,-95c0,0,120,-96,144,-263H889c0,0,-21,109,-101,168c0,0,-81,59,-207,59c0,0,-165,0,-263,-121c0,0,-98,-122,-98,-327c0,0,0,-219,91,-333c0,0,91,-114,263,-114c0,0,128,0,212,78c0,0,85,79,113,224h142c0,0,-28,-203,-155,-318C886,85,758,-29,564,-29Z" 
id="f1_12"
transform="scale(0.001,-0.001)" />

<path d="M310,0L12,799H168L383,145L604,799H752L454,0Z" 
id="f1_2h"
transform="scale(0.001,-0.001)" />

<path d="M406,0V763H155V870h2c16,0,114,2,178,48c0,0,70,51,104,157H549V0Z" 
id="f1_k"
transform="scale(0.001,-0.001)" />

<path d="M417,-28c0,0,-161,0,-259,79c0,0,-98,81,-109,223H189c0,0,11,-90,72,-139c0,0,61,-49,162,-49c0,0,96,0,158,68c0,0,61,68,61,175c0,0,0,112,-64,178c0,0,-64,66,-173,66c0,0,-59,0,-115,-28c0,0,-55,-29,-84,-73L93,480l77,573H727V922H271L225,629l4,3c0,0,89,60,188,60c0,0,169,0,269,-94c0,0,99,-93,99,-253c0,0,0,-165,-103,-269C682,76,579,-28,417,-28Z" 
id="f1_o"
transform="scale(0.001,-0.001)" />

<path d="M780,449L714,934L435,449ZM22,0L673,1097H839L998,0H839L797,318H359L178,0Z" 
id="f2_10"
transform="scale(0.001,-0.001)" />

<path d="M0,356v74H784V356Z" 
id="f3_h"
transform="scale(0.001,-0.001)" />

<path d="M0,-123V1415H525v-72H72V-123Z" 
id="f3_4r"
transform="scale(0.001,-0.001)" />

<path d="M478,-123V1343H26v72H550V-123Z" 
id="f3_57"
transform="scale(0.001,-0.001)" />

<path d="M0,-123V1415H72V-123Z" 
id="f3_4s"
transform="scale(0.001,-0.001)" />

<path d="M0,-123V1415H72V-123Z" 
id="f3_58"
transform="scale(0.001,-0.001)" />

<path d="M0,214v74H784V214ZM0,494v72H784V494Z" 
id="f3_x"
transform="scale(0.001,-0.001)" />

<path d="M0,-123V1415H72V-51H525v-72Z" 
id="f3_4t"
transform="scale(0.001,-0.001)" />

<path d="M26,-123v72H478V1415h72V-123Z" 
id="f3_59"
transform="scale(0.001,-0.001)" />

<path d="M0,368V478H849V368Z" 
id="f1_99"
transform="scale(0.001,-0.001)" />

<path d="M60,174V286H832V174Zm0,309V595H832V483Z" 
id="f1_w"
transform="scale(0.001,-0.001)" />

<path d="M139,0L366,1097H514L287,0Z" 
id="f2_18"
transform="scale(0.001,-0.001)" />

<path d="M511,373V863L169,383l-7,-10ZM511,0V258H38V383l496,691H646V373H799V258H646V0Z" 
id="f1_n"
transform="scale(0.001,-0.001)" />

<path d="M617,129c0,0,118,0,194,71c0,0,75,70,75,182c0,0,1,59,-55,93c0,0,-56,34,-152,34H368L289,129Zm58,503c0,0,120,0,188,59c0,0,68,58,68,163c0,0,0,57,-50,85c0,0,-50,29,-146,29H462L393,632ZM113,0L340,1097H825c0,0,122,0,191,-55c0,0,69,-55,69,-153c0,0,0,-160,-113,-251c0,0,-35,-26,-77,-46c0,0,27,-12,52,-28c0,0,89,-61,89,-166c0,0,0,-171,-127,-285C909,113,782,0,591,0Z" 
id="f2_11"
transform="scale(0.001,-0.001)" />

<path d="M365,-315c0,0,-136,187,-199,359c0,0,-62,172,-62,359c0,0,0,186,62,358c0,0,63,172,199,360h92c0,0,-110,-192,-160,-365c0,0,-51,-172,-51,-353c0,0,0,-183,51,-355c0,0,50,-172,160,-363Z" 
id="f1_b"
transform="scale(0.001,-0.001)" />

<path d="M52,-315c0,0,109,192,160,363c0,0,50,173,50,354c0,0,0,183,-50,355c0,0,-51,173,-160,364h92c0,0,135,-188,198,-360c0,0,63,-172,63,-359c0,0,0,-187,-63,-359c0,0,-63,-171,-198,-358Z" 
id="f1_c"
transform="scale(0.001,-0.001)" />

<path d="M553,-29c0,0,-211,0,-321,109c0,0,-111,110,-111,322v695H270V413c0,0,0,-153,72,-233c0,0,73,-79,211,-79c0,0,139,0,211,79c0,0,72,80,72,233v684H985V402c0,0,0,-203,-115,-318C870,84,756,-29,553,-29Z" 
id="f1_1k"
transform="scale(0.001,-0.001)" />

<path d="M406,93c0,0,97,0,156,73c0,0,59,74,59,195c0,0,0,163,-56,252c0,0,-55,88,-158,88c0,0,-111,0,-162,-72c0,0,-51,-73,-51,-229c0,0,0,-147,55,-227c0,0,55,-80,157,-80ZM621,-315V93l-7,-9C614,84,532,-20,400,-20c0,0,-159,0,-253,118c0,0,-93,119,-93,323c0,0,0,180,90,291c0,0,91,110,237,110c0,0,146,0,231,-124c0,0,10,-14,17,-29V799H755V-315Z" 
id="f1_2c"
transform="scale(0.001,-0.001)" />

<path d="M133,0V162H292V0Zm0,628V790H292V628Z" 
id="f1_t"
transform="scale(0.001,-0.001)" />

<path d="M17,0L389,412L201,800H376L500,518L742,800H904L554,410L750,0H580L448,303L187,0Z" 
id="f2_2j"
transform="scale(0.001,-0.001)" />

<path d="M99,-328c0,0,-46,0,-76,13l25,123c0,0,29,-14,81,-14c0,0,47,0,76,31c0,0,28,31,106,162L185,800H339L415,141L769,800H918L456,0C456,0,329,-216,269,-272c0,0,-61,-56,-170,-56Z" 
id="f2_2k"
transform="scale(0.001,-0.001)" />

<path d="M390,-1V329H60V441H390V771H503V441H833V329H503V-1Z" 
id="f1_e"
transform="scale(0.001,-0.001)" />

<path d="M47,0L58,55l11,55L675,688H237l11,56l11,56H869L857,745L846,690L245,111H740L729,56L718,0Z" 
id="f2_2l"
transform="scale(0.001,-0.001)" />

<path d="M131,0V1097H891V966H280V631H814V500H280V0Z" 
id="f1_15"
transform="scale(0.001,-0.001)" />

<path d="M682,450L513,936L337,450ZM22,0L436,1097H605L999,0H839L728,319H290L175,0Z" 
id="f1_10"
transform="scale(0.001,-0.001)" />

<path d="M116,0V1097H265V131H820V0Z" 
id="f1_1b"
transform="scale(0.001,-0.001)" />

<path d="M131,0L274,688H168l23,112H296l26,125c0,0,20,98,82,143c0,0,62,46,176,46c0,0,33,0,59,-5L609,990c0,0,0,3,-53,3c0,0,-45,0,-70,-25c0,0,-25,-25,-37,-83L431,800H575L553,688H409L266,0Z" 
id="f2_21"
transform="scale(0.001,-0.001)" />

<path d="M528,-29c0,0,-215,0,-336,99C192,70,75,170,75,342v8H211c0,0,4,-119,87,-184c0,0,83,-65,231,-65c0,0,136,0,207,47c0,0,71,47,71,138c0,0,0,79,-47,118c0,0,-47,37,-187,71L382,520c0,0,-145,34,-207,96c0,0,-62,61,-62,169c0,0,0,158,107,250c0,0,107,92,289,92c0,0,185,0,295,-92c0,0,110,-93,117,-256H784c0,0,-9,104,-81,161c0,0,-72,56,-194,56c0,0,-125,0,-190,-48c0,0,-65,-49,-65,-142c0,0,0,-64,43,-95c0,0,43,-32,174,-62L662,603c0,0,154,-37,220,-108c0,0,65,-71,65,-201c0,0,0,-150,-113,-237c0,0,-113,-86,-306,-86Z" 
id="f1_1i"
transform="scale(0.001,-0.001)" />

<path d="M316,27c0,0,57,0,105,53c0,0,65,72,125,295c0,0,-40,153,-104,214c0,0,-63,61,-129,61c0,0,-73,0,-122,-80c0,0,-48,-80,-48,-255c0,0,0,-104,20,-163c0,0,21,-60,64,-92c0,0,42,-33,89,-33Zm4,-49c0,0,-165,0,-243,108C77,86,0,196,0,336c0,0,0,164,91,265c0,0,91,102,213,102c0,0,85,0,150,-52c0,0,65,-51,118,-192l65,224H760L662,344c0,0,-9,-32,-30,-100c0,0,29,-115,43,-137c0,0,27,-41,68,-41c0,0,30,0,55,24c0,0,26,25,34,77h30C862,167,852,60,817,19c0,0,-35,-40,-81,-40c0,0,-42,0,-77,34c0,0,-35,36,-62,154c0,0,-33,-65,-65,-99C532,68,488,22,437,0c0,0,-52,-22,-117,-22Z" 
id="f3_1x"
transform="scale(0.001,-0.001)" />

<path d="M354,90c0,0,107,0,192,57c0,0,60,41,87,95c0,0,5,12,11,33c0,0,6,20,11,44l18,88c0,0,-62,-26,-132,-37L414,352c0,0,-84,-11,-131,-56c0,0,-47,-45,-47,-113c0,0,0,-44,31,-69c0,0,31,-24,87,-24ZM306,-20c0,0,-99,0,-156,47c0,0,-57,49,-57,134c0,0,1,117,81,198c0,0,80,81,211,98l164,20l70,10c0,0,35,6,59,30c0,0,23,24,31,66l1,2c0,0,13,64,-25,94c0,0,-39,31,-132,31c0,0,-83,0,-137,-37c0,0,-54,-37,-84,-114H210c0,0,46,137,138,201c0,0,92,63,245,63c0,0,149,0,211,-59c0,0,45,-44,44,-116c0,0,1,-30,-6,-63L749,136c0,0,-4,-19,6,-32c0,0,10,-12,30,-12c0,0,6,0,19,1c0,0,12,2,25,5L809,1c0,0,-19,-6,-43,-11c0,0,-22,-5,-36,-5c0,0,-73,0,-100,43c0,0,-16,27,-17,75C612,102,594,85,573,69c0,0,-120,-89,-267,-89Z" 
id="f2_1w"
transform="scale(0.001,-0.001)" />

<path d="M431,94c0,0,95,0,170,76c0,0,76,77,101,198c0,0,35,167,-1,250c0,0,-37,84,-144,84c0,0,-128,0,-210,-117c0,0,-81,-117,-81,-302c0,0,0,-90,43,-139c0,0,44,-50,122,-50ZM400,-20c0,0,-126,0,-199,79c0,0,-73,80,-73,219c0,0,0,234,122,390c0,0,122,155,305,155c0,0,144,0,209,-127l8,-16l86,417H993L767,0H638l22,108L642,90C642,90,532,-20,400,-20Z" 
id="f2_1z"
transform="scale(0.001,-0.001)" />

<path d="M-33,-321c0,0,-31,0,-57,4l25,117h26c0,0,60,0,83,18c0,0,22,18,34,75L265,800H400L213,-107c0,0,-24,-117,-81,-166c0,0,-55,-48,-165,-48ZM298,946l32,151H465L434,946Z" 
id="f2_25"
transform="scale(0.001,-0.001)" />

<path d="M144,-381V1146H255V-381Z" 
id="f1_2n"
transform="scale(0.001,-0.001)" />

<path d="M423,92c0,0,97,0,159,62c0,0,62,62,62,157c0,0,0,97,-64,160c0,0,-64,64,-161,64c0,0,-96,0,-158,-63c0,0,-62,-62,-62,-156c0,0,0,-58,27,-111c0,0,27,-54,81,-84c0,0,54,-29,116,-29Zm0,552c0,0,78,0,127,49c0,0,49,49,49,120c0,0,0,74,-50,124c0,0,-51,51,-128,51c0,0,-77,0,-127,-50c0,0,-51,-49,-51,-118c0,0,0,-77,50,-126c0,0,50,-50,130,-50ZM422,-18c0,0,-162,0,-261,95c0,0,-99,96,-99,239c0,0,0,107,54,179c0,0,54,72,154,98c0,0,-84,31,-124,87c0,0,-40,57,-40,136c0,0,0,119,85,201c0,0,86,81,229,81c0,0,143,0,230,-83c0,0,87,-83,87,-203c0,0,0,-76,-40,-132c0,0,-39,-56,-121,-87c0,0,101,-33,154,-106c0,0,52,-73,52,-174c0,0,0,-141,-99,-236c0,0,-99,-95,-261,-95Z" 
id="f4_s"
transform="scale(0.001,-0.001)" />

<path d="M125,0V1051H268V115H799V0Z" 
id="f0_1c"
transform="scale(0.001,-0.001)" />

<path d="M106,0V620c0,0,0,85,-5,188H228c0,0,6,-138,6,-165h3c0,0,32,103,74,141c0,0,42,38,118,38c0,0,27,0,54,-7V692c0,0,-26,7,-71,7c0,0,-84,0,-128,-72c0,0,-44,-72,-44,-206V0Z" 
id="f0_2e"
transform="scale(0.001,-0.001)" />

<path d="M606,-14c0,0,-164,0,-284,65c0,0,-119,66,-182,189c0,0,-63,123,-63,291c0,0,0,255,137,396c0,0,137,140,386,140c0,0,174,0,283,-59c0,0,109,-59,168,-189L915,779c0,0,-44,90,-123,131c0,0,-79,41,-196,41c0,0,-182,0,-278,-110c0,0,-96,-110,-96,-310c0,0,0,-200,102,-315c0,0,102,-115,282,-115c0,0,103,0,193,31c0,0,89,31,144,85V407H629V526h445V164c0,0,-83,-85,-205,-132c0,0,-121,-46,-263,-46Z" 
id="f0_17"
transform="scale(0.001,-0.001)" />

<path d="M355,-14c0,0,-133,0,-194,65c0,0,-62,66,-62,219V808H234V296c0,0,0,-80,16,-124c0,0,16,-44,50,-64c0,0,34,-19,101,-19c0,0,97,0,153,66c0,0,55,67,55,185V808H744V172c0,0,0,-141,4,-172H621c0,0,0,4,-1,20c0,0,-1,17,-2,38c0,0,-1,21,-3,80h-2C613,138,567,55,506,20c0,0,-61,-34,-151,-34Z" 
id="f0_2h"
transform="scale(0.001,-0.001)" />

<path d="M395,89c0,0,115,0,166,79c0,0,51,79,51,246c0,0,0,160,-51,235c0,0,-51,75,-164,75c0,0,-102,0,-147,-75c0,0,-45,-75,-45,-244c0,0,0,-170,45,-243c0,0,45,-73,145,-73ZM361,-14c0,0,-153,0,-225,102c0,0,-72,103,-72,312c0,0,0,422,297,422c0,0,92,0,153,-33c0,0,61,-34,98,-107h2l-2,90v335H747V166c0,0,0,-126,4,-166H623c0,0,-2,12,-5,55c0,0,-3,44,-3,75h-3c0,0,-37,-78,-98,-111c0,0,-62,-33,-153,-33Z" 
id="f0_20"
transform="scale(0.001,-0.001)" />

<path d="M140,0V163H285V0Z" 
id="f0_i"
transform="scale(0.001,-0.001)" />


</defs>
</svg>