<?xml version="1.0" encoding="UTF-8" standalone="no"?>
<!DOCTYPE svg PUBLIC "-//W3C//DTD SVG 1.1//EN"
"http://www.w3.org/Graphics/SVG/1.1/DTD/svg11.dtd">
<svg viewBox="0 0 696 1067" version="1.1" xmlns="http://www.w3.org/2000/svg" xmlns:xlink="http://www.w3.org/1999/xlink">
<defs>
<style type="text/css"><![CDATA[
.g0_36{
fill: none;
stroke: #000000;
stroke-width: 0.76584446;
stroke-linecap: round;
stroke-linejoin: miter;
}
.g1_36{
fill: none;
stroke: #000000;
stroke-width: 0.76266664;
stroke-linecap: round;
stroke-linejoin: miter;
}
.g2_36{
fill: none;
stroke: #000000;
stroke-width: 0.7660889;
stroke-linecap: round;
stroke-linejoin: miter;
}
.g3_36{
fill: none;
stroke: #000000;
stroke-width: 0.7638889;
stroke-linecap: round;
stroke-linejoin: miter;
}
.g4_36{
fill: none;
stroke: #000000;
stroke-width: 0.7656;
stroke-linecap: round;
stroke-linejoin: miter;
}
.g5_36{
fill: none;
stroke: #000000;
stroke-width: 0.76217777;
stroke-linecap: round;
stroke-linejoin: miter;
}
.g6_36{
fill: none;
stroke: #000000;
stroke-width: 0.7616889;
stroke-linecap: round;
stroke-linejoin: miter;
}
]]></style>
</defs>
<g fill="#D4D4D4" fill-opacity="0.56" >
<use xlink:href="#f0_1f" transform="matrix(50.9,-50.9,50.9,50.9,84.5,924.1)" />
<use xlink:href="#f0_2a" transform="matrix(50.9,-50.9,50.9,50.9,145,863.6)" />
<use xlink:href="#f0_28" transform="matrix(50.9,-50.9,50.9,50.9,188.3,820.3)" />
<use xlink:href="#f0_25" transform="matrix(50.9,-50.9,50.9,50.9,205.5,803.1)" />
<use xlink:href="#f0_2a" transform="matrix(50.9,-50.9,50.9,50.9,222.8,785.8)" />
<use xlink:href="#f0_21" transform="matrix(50.9,-50.9,50.9,50.9,266,742.5)" />
<use xlink:href="#f0_2k" transform="matrix(50.9,-50.9,50.9,50.9,309.3,699.3)" />
<use xlink:href="#f0_1x" transform="matrix(50.9,-50.9,50.9,50.9,348.2,660.4)" />
<use xlink:href="#f0_29" transform="matrix(50.9,-50.9,50.9,50.9,391.4,617.2)" />
<use xlink:href="#f0_2c" transform="matrix(50.9,-50.9,50.9,50.9,456.2,552.4)" />
<use xlink:href="#f0_2b" transform="matrix(50.9,-50.9,50.9,50.9,499.5,509.1)" />
<use xlink:href="#f0_25" transform="matrix(50.9,-50.9,50.9,50.9,542.7,465.9)" />
<use xlink:href="#f0_2a" transform="matrix(50.9,-50.9,50.9,50.9,560,448.6)" />
<use xlink:href="#f0_2g" transform="matrix(50.9,-50.9,50.9,50.9,603.2,405.4)" />
</g>
<g fill="#000000" >
<use xlink:href="#f1_n" transform="matrix(10.4,0,0,10.4,68.3,86.6)" />
<use xlink:href="#f1_r" transform="matrix(10.4,0,0,10.4,77.2,86.6)" />
<use xlink:href="#f1_h" transform="matrix(10.4,0,0,10.4,86.3,86.6)" />
<use xlink:href="#f1_18" transform="matrix(10.4,0,0,10.4,109,86.6)" />
<use xlink:href="#f1_29" transform="matrix(10.4,0,0,10.4,113.4,86.6)" />
<use xlink:href="#f1_1y" transform="matrix(10.4,0,0,10.4,122.3,86.6)" />
<use xlink:href="#f1_2a" transform="matrix(10.4,0,0,10.4,130.6,86.6)" />
<use xlink:href="#f1_29" transform="matrix(10.4,0,0,10.4,139.4,86.6)" />
<use xlink:href="#f1_2e" transform="matrix(10.4,0,0,10.4,148.3,86.6)" />
<use xlink:href="#f1_24" transform="matrix(10.4,0,0,10.4,156.5,86.6)" />
<use xlink:href="#f1_2e" transform="matrix(10.4,0,0,10.4,160.1,86.6)" />
<use xlink:href="#f1_2f" transform="matrix(10.4,0,0,10.4,168.3,86.6)" />
<use xlink:href="#f1_20" transform="matrix(10.4,0,0,10.4,172.8,86.6)" />
<use xlink:href="#f1_29" transform="matrix(10.4,0,0,10.4,181.6,86.6)" />
<use xlink:href="#f1_2f" transform="matrix(10.4,0,0,10.4,190.5,86.6)" />
<use xlink:href="#f1_n" transform="matrix(10.4,0,0,10.4,343.3,86.6)" />
<use xlink:href="#f1_s" transform="matrix(10.4,0,0,10.4,352.2,86.6)" />
<use xlink:href="#f1_h" transform="matrix(10.4,0,0,10.4,361.3,86.6)" />
<use xlink:href="#f1_18" transform="matrix(10.4,0,0,10.4,393.2,86.6)" />
<use xlink:href="#f1_29" transform="matrix(10.4,0,0,10.4,397.6,86.6)" />
<use xlink:href="#f1_2h" transform="matrix(10.4,0,0,10.4,406.5,86.6)" />
<use xlink:href="#f1_20" transform="matrix(10.4,0,0,10.4,414.5,86.6)" />
<use xlink:href="#f1_2d" transform="matrix(10.4,0,0,10.4,423.3,86.6)" />
<use xlink:href="#f1_2e" transform="matrix(10.4,0,0,10.4,428.6,86.6)" />
<use xlink:href="#f1_20" transform="matrix(10.4,0,0,10.4,436.6,86.6)" />
<use xlink:href="#f1_1z" transform="matrix(10.4,0,0,10.4,452.8,86.6)" />
<use xlink:href="#f1_2a" transform="matrix(10.4,0,0,10.4,461.7,86.6)" />
<use xlink:href="#f1_20" transform="matrix(10.4,0,0,10.4,470.6,86.6)" />
<use xlink:href="#f1_2e" transform="matrix(10.4,0,0,10.4,479.4,86.6)" />
<use xlink:href="#f1_29" transform="matrix(10.4,0,0,10.4,494.9,86.6)" />
<use xlink:href="#f1_2a" transform="matrix(10.4,0,0,10.4,503.8,86.6)" />
<use xlink:href="#f1_2f" transform="matrix(10.4,0,0,10.4,512.6,86.6)" />
<use xlink:href="#f1_20" transform="matrix(10.4,0,0,10.4,524.4,86.6)" />
<use xlink:href="#f1_2j" transform="matrix(10.4,0,0,10.4,533.3,86.6)" />
<use xlink:href="#f1_24" transform="matrix(10.4,0,0,10.4,541.3,86.6)" />
<use xlink:href="#f1_2e" transform="matrix(10.4,0,0,10.4,544.8,86.6)" />
<use xlink:href="#f1_2f" transform="matrix(10.4,0,0,10.4,552.8,86.6)" />
<use xlink:href="#f1_h" transform="matrix(10.4,0,0,10.4,557.2,86.6)" />
<use xlink:href="#f1_o" transform="matrix(10.4,0,0,10.4,68.3,143.8)" />
<use xlink:href="#f1_j" transform="matrix(10.4,0,0,10.4,77.2,143.8)" />
<use xlink:href="#f1_h" transform="matrix(10.4,0,0,10.4,86.3,143.8)" />
<use xlink:href="#f1_99" transform="matrix(7,0,0,7,123.6,135.4)" />
<use xlink:href="#f1_k" transform="matrix(7,0,0,7,129.5,135.4)" />
<use xlink:href="#f1_l" transform="matrix(10.5,0,0,10.5,170.1,130.8)" />
<use xlink:href="#f1_k" transform="matrix(10.5,0,0,10.5,202.9,130.8)" />
<use xlink:href="#f1_h" transform="matrix(10.5,0,0,10.5,217.4,142.6)" />
<use xlink:href="#f1_o" transform="matrix(10.5,0,0,10.5,169.8,154.9)" />
<use xlink:href="#f1_m" transform="matrix(10.5,0,0,10.5,200.4,154.9)" />
<use xlink:href="#f2_10" transform="matrix(10.5,0,0,10.5,111.8,142.6)" />
<use xlink:href="#f3_h" transform="matrix(10.5,0,0,10.5,194.2,130.8)" />
<use xlink:href="#f3_4r" transform="matrix(10.5,0,0,10.5,154,131.8)" />
<use xlink:href="#f3_57" transform="matrix(10.5,0,0,10.5,209.7,131.8)" />
<use xlink:href="#f3_x" transform="matrix(10.5,0,0,10.5,140.1,142.6)" />
<use xlink:href="#f3_4s" transform="matrix(10.5,0,0,10.5,154,147.3)" />
<use xlink:href="#f3_58" transform="matrix(10.5,0,0,10.5,209.7,147.3)" />
<use xlink:href="#f3_h" transform="matrix(10.5,0,0,10.5,161.1,154.9)" />
<use xlink:href="#f3_4t" transform="matrix(10.5,0,0,10.5,154,158.4)" />
<use xlink:href="#f3_59" transform="matrix(10.5,0,0,10.5,209.7,158.4)" />
<use xlink:href="#f1_o" transform="matrix(10.4,0,0,10.4,343.3,143.8)" />
<use xlink:href="#f1_k" transform="matrix(10.4,0,0,10.4,352.2,143.8)" />
<use xlink:href="#f1_h" transform="matrix(10.4,0,0,10.4,361.3,143.8)" />
</g>
<path d="M483.8,137.1h10.7" class="g0_36" />
<g fill="#000000" >
<use xlink:href="#f1_l" transform="matrix(10.4,0,0,10.4,424.1,141.3)" />
<use xlink:href="#f1_f" transform="matrix(10.4,0,0,10.4,495.9,141.3)" />
<use xlink:href="#f1_m" transform="matrix(10.4,0,0,10.4,484.5,153.5)" />
<use xlink:href="#f2_29" transform="matrix(10.4,0,0,10.4,433.9,141.3)" />
<use xlink:href="#f2_29" transform="matrix(10.4,0,0,10.4,508.2,141.3)" />
<use xlink:href="#f2_2l" transform="matrix(10.4,0,0,10.4,534.7,141.3)" />
<use xlink:href="#f3_2c" transform="matrix(10.4,0,0,10.4,484.7,131)" />
<use xlink:href="#f3_1x" transform="matrix(10.4,0,0,10.4,395.8,141.3)" />
<use xlink:href="#f3_x" transform="matrix(10.4,0,0,10.4,410.8,141.3)" />
<use xlink:href="#f3_2c" transform="matrix(10.4,0,0,10.4,446,141.3)" />
<use xlink:href="#f3_37" transform="matrix(10.4,0,0,10.4,464.6,141.3)" />
<use xlink:href="#f3_40" transform="matrix(10.4,0,0,10.4,522.1,141.3)" />
<use xlink:href="#f1_p" transform="matrix(10.4,0,0,10.4,68.3,219.9)" />
<use xlink:href="#f1_k" transform="matrix(10.4,0,0,10.4,77.2,219.9)" />
<use xlink:href="#f1_h" transform="matrix(10.4,0,0,10.4,86.3,219.9)" />
<use xlink:href="#f3_c" transform="matrix(10.4,0,0,11.2,240.1,218)" />
<use xlink:href="#f3_d" transform="matrix(10.4,0,0,11.2,271.5,218)" />
</g>
<path d="M316.6,215.9h10.2" class="g1_36" />
<g fill="#000000" >
<use xlink:href="#f3_h" transform="matrix(10.5,0,0,10.5,371.5,208.4)" />
<use xlink:href="#f3_4r" transform="matrix(10.5,0,0,10.5,160.7,209.5)" />
<use xlink:href="#f3_57" transform="matrix(10.5,0,0,10.5,219.7,209.5)" />
<use xlink:href="#f3_4r" transform="matrix(10.5,0,0,10.5,332,209.5)" />
<use xlink:href="#f3_57" transform="matrix(10.5,0,0,10.5,391,209.5)" />
<use xlink:href="#f3_x" transform="matrix(10.5,0,0,10.5,143,220.2)" />
<use xlink:href="#f3_x" transform="matrix(10.5,0,0,10.5,299,220.2)" />
<use xlink:href="#f3_4s" transform="matrix(10.5,0,0,10.5,160.7,225)" />
<use xlink:href="#f3_58" transform="matrix(10.5,0,0,10.5,219.7,225)" />
<use xlink:href="#f3_4s" transform="matrix(10.5,0,0,10.5,332,225)" />
<use xlink:href="#f3_58" transform="matrix(10.5,0,0,10.5,391,225)" />
<use xlink:href="#f3_h" transform="matrix(10.5,0,0,10.5,168.6,232.4)" />
<use xlink:href="#f3_h" transform="matrix(10.5,0,0,10.5,372.6,232.4)" />
<use xlink:href="#f3_4t" transform="matrix(10.5,0,0,10.5,160.7,235.8)" />
<use xlink:href="#f3_59" transform="matrix(10.5,0,0,10.5,219.7,235.8)" />
<use xlink:href="#f3_4t" transform="matrix(10.5,0,0,10.5,332,235.8)" />
<use xlink:href="#f3_59" transform="matrix(10.5,0,0,10.5,391,235.8)" />
<use xlink:href="#f1_99" transform="matrix(7.9,0,0,7.9,277.1,211.2)" />
<use xlink:href="#f1_k" transform="matrix(7.9,0,0,7.9,284,211.2)" />
<use xlink:href="#f1_k" transform="matrix(10.5,0,0,10.5,173.5,208.4)" />
<use xlink:href="#f1_l" transform="matrix(10.5,0,0,10.5,209.2,208.4)" />
<use xlink:href="#f1_l" transform="matrix(10.5,0,0,10.5,339.7,208.4)" />
<use xlink:href="#f1_l" transform="matrix(10.5,0,0,10.5,380.5,208.4)" />
<use xlink:href="#f1_k" transform="matrix(10.5,0,0,10.5,318,209.7)" />
<use xlink:href="#f1_f" transform="matrix(10.5,0,0,10.5,229.3,220.2)" />
<use xlink:href="#f1_h" transform="matrix(10.5,0,0,10.5,400.6,220.2)" />
<use xlink:href="#f1_l" transform="matrix(10.5,0,0,10.5,177.6,232.4)" />
<use xlink:href="#f1_l" transform="matrix(10.5,0,0,10.5,209.2,232.4)" />
<use xlink:href="#f1_l" transform="matrix(10.5,0,0,10.5,339.7,232.4)" />
<use xlink:href="#f1_k" transform="matrix(10.5,0,0,10.5,381.7,232.4)" />
<use xlink:href="#f1_p" transform="matrix(10.5,0,0,10.5,317.4,235.7)" />
<use xlink:href="#f2_10" transform="matrix(10.5,0,0,10.5,111.9,220.2)" />
<use xlink:href="#f2_11" transform="matrix(10.5,0,0,10.5,122.9,220.2)" />
<use xlink:href="#f2_10" transform="matrix(10.5,0,0,10.5,247.1,220.2)" />
<use xlink:href="#f2_11" transform="matrix(10.5,0,0,10.5,258.2,220.2)" />
<use xlink:href="#f1_p" transform="matrix(10.4,0,0,10.4,72.7,294.3)" />
<use xlink:href="#f1_l" transform="matrix(10.4,0,0,10.4,81.9,294.3)" />
<use xlink:href="#f1_j" transform="matrix(10.4,0,0,10.4,109,294.3)" />
<use xlink:href="#f1_f" transform="matrix(10.4,0,0,10.4,117.9,294.3)" />
<use xlink:href="#f1_m" transform="matrix(10.4,0,0,10.4,129.6,294.3)" />
<use xlink:href="#f2_1w" transform="matrix(10.4,0,0,10.4,138.3,294.3)" />
<use xlink:href="#f1_p" transform="matrix(10.4,0,0,10.4,343.3,294.3)" />
<use xlink:href="#f1_n" transform="matrix(10.4,0,0,10.4,352.2,294.3)" />
<use xlink:href="#f1_h" transform="matrix(10.4,0,0,10.4,361.3,294.3)" />
</g>
<path d="M432.2,290h19.6m51.8,0h19.6" class="g2_36" />
<g fill="#000000" >
<use xlink:href="#f1_k" transform="matrix(10.5,0,0,10.5,433.6,283.9)" />
<use xlink:href="#f1_k" transform="matrix(10.5,0,0,10.5,443,283.9)" />
<use xlink:href="#f1_k" transform="matrix(10.5,0,0,10.5,509.6,283.9)" />
<use xlink:href="#f1_f" transform="matrix(10.5,0,0,10.5,455.7,294.3)" />
<use xlink:href="#f1_h" transform="matrix(10.5,0,0,10.5,527,294.3)" />
<use xlink:href="#f1_l" transform="matrix(10.5,0,0,10.5,433,309.9)" />
<use xlink:href="#f1_n" transform="matrix(10.5,0,0,10.5,442.3,309.9)" />
<use xlink:href="#f1_l" transform="matrix(10.5,0,0,10.5,504.3,309.9)" />
<use xlink:href="#f1_n" transform="matrix(10.5,0,0,10.5,513.6,309.9)" />
<use xlink:href="#f2_2j" transform="matrix(10.5,0,0,10.5,396.1,294.3)" />
<use xlink:href="#f2_2k" transform="matrix(10.5,0,0,10.5,467.4,294.3)" />
<use xlink:href="#f3_x" transform="matrix(10.5,0,0,10.5,414.5,294.3)" />
<use xlink:href="#f3_x" transform="matrix(10.5,0,0,10.5,485.8,294.3)" />
<use xlink:href="#f1_p" transform="matrix(10.4,0,0,10.4,68.3,413.9)" />
<use xlink:href="#f1_o" transform="matrix(10.4,0,0,10.4,77.2,413.9)" />
<use xlink:href="#f1_h" transform="matrix(10.4,0,0,10.4,86.3,413.9)" />
</g>
<path d="M178.8,372.6h10m38,0h10m28.8,0h10m-97,70.5h10.2m37.8,0h10.2m28.8,0h10" class="g3_36" />
<g fill="#000000" >
<use xlink:href="#f1_99" transform="matrix(7.9,0,0,7.9,123.6,403.3)" />
<use xlink:href="#f1_k" transform="matrix(7.9,0,0,7.9,130.5,403.3)" />
<use xlink:href="#f1_k" transform="matrix(10.5,0,0,10.5,180.2,366.4)" />
<use xlink:href="#f1_k" transform="matrix(10.5,0,0,10.5,228.2,366.4)" />
<use xlink:href="#f1_k" transform="matrix(10.5,0,0,10.5,267.1,366.4)" />
<use xlink:href="#f1_l" transform="matrix(10.5,0,0,10.5,179.7,392.4)" />
<use xlink:href="#f1_l" transform="matrix(10.5,0,0,10.5,227.7,392.4)" />
<use xlink:href="#f1_l" transform="matrix(10.5,0,0,10.5,266.6,392.4)" />
<use xlink:href="#f1_n" transform="matrix(10.5,0,0,10.5,180.7,413)" />
<use xlink:href="#f1_m" transform="matrix(10.5,0,0,10.5,228.7,413)" />
<use xlink:href="#f1_k" transform="matrix(10.5,0,0,10.5,270.1,413)" />
<use xlink:href="#f1_o" transform="matrix(10.5,0,0,10.5,179.4,437)" />
<use xlink:href="#f1_m" transform="matrix(10.5,0,0,10.5,227.5,437)" />
<use xlink:href="#f1_k" transform="matrix(10.5,0,0,10.5,267.1,437)" />
<use xlink:href="#f1_l" transform="matrix(10.5,0,0,10.5,179.5,463)" />
<use xlink:href="#f1_l" transform="matrix(10.5,0,0,10.5,227.6,463)" />
<use xlink:href="#f1_l" transform="matrix(10.5,0,0,10.5,266.6,463)" />
<use xlink:href="#f2_10" transform="matrix(10.5,0,0,10.5,111.8,413)" />
<use xlink:href="#f3_4r" transform="matrix(10.5,0,0,10.5,163.4,367.5)" />
<use xlink:href="#f3_57" transform="matrix(10.5,0,0,10.5,278.1,367.5)" />
<use xlink:href="#f3_h" transform="matrix(10.5,0,0,10.5,213.3,376.8)" />
<use xlink:href="#f3_4s" transform="matrix(10.5,0,0,10.5,163.4,383)" />
<use xlink:href="#f3_58" transform="matrix(10.5,0,0,10.5,278.1,383)" />
<use xlink:href="#f3_4s" transform="matrix(10.5,0,0,10.5,163.4,398.3)" />
<use xlink:href="#f3_58" transform="matrix(10.5,0,0,10.5,278.1,398.3)" />
<use xlink:href="#f3_x" transform="matrix(10.5,0,0,10.5,145.5,413)" />
<use xlink:href="#f3_h" transform="matrix(10.5,0,0,10.5,171.6,413)" />
<use xlink:href="#f3_h" transform="matrix(10.5,0,0,10.5,261.1,413)" />
<use xlink:href="#f3_4s" transform="matrix(10.5,0,0,10.5,163.4,413.5)" />
<use xlink:href="#f3_58" transform="matrix(10.5,0,0,10.5,278.1,413.5)" />
<use xlink:href="#f3_4s" transform="matrix(10.5,0,0,10.5,163.4,428.8)" />
<use xlink:href="#f3_58" transform="matrix(10.5,0,0,10.5,278.1,428.8)" />
<use xlink:href="#f3_4s" transform="matrix(10.5,0,0,10.5,163.4,444)" />
<use xlink:href="#f3_58" transform="matrix(10.5,0,0,10.5,278.1,444)" />
<use xlink:href="#f3_h" transform="matrix(10.5,0,0,10.5,213,447.4)" />
<use xlink:href="#f3_4s" transform="matrix(10.5,0,0,10.5,163.4,459.3)" />
<use xlink:href="#f3_58" transform="matrix(10.5,0,0,10.5,278.1,459.3)" />
<use xlink:href="#f3_4t" transform="matrix(10.5,0,0,10.5,163.4,462.9)" />
<use xlink:href="#f3_59" transform="matrix(10.5,0,0,10.5,278.1,462.9)" />
<use xlink:href="#f1_h" transform="matrix(10.4,0,0,10.4,287.8,413.9)" />
<use xlink:href="#f1_p" transform="matrix(10.4,0,0,10.4,343.3,413.9)" />
<use xlink:href="#f1_p" transform="matrix(10.4,0,0,10.4,352.2,413.9)" />
<use xlink:href="#f1_h" transform="matrix(10.4,0,0,10.4,361.3,413.9)" />
<use xlink:href="#f2_2j" transform="matrix(10.4,0,0,10.4,393.2,413.9)" />
<use xlink:href="#f1_w" transform="matrix(10.4,0,0,10.4,408,413.9)" />
<use xlink:href="#f1_j" transform="matrix(10.4,0,0,10.4,423.9,413.9)" />
<use xlink:href="#f1_f" transform="matrix(10.4,0,0,10.4,432.8,413.9)" />
<use xlink:href="#f2_2k" transform="matrix(10.4,0,0,10.4,444,413.9)" />
<use xlink:href="#f1_w" transform="matrix(10.4,0,0,10.4,458.8,413.9)" />
<use xlink:href="#f1_o" transform="matrix(10.4,0,0,10.4,474.7,413.9)" />
<use xlink:href="#f1_f" transform="matrix(10.4,0,0,10.4,483.6,413.9)" />
<use xlink:href="#f2_2l" transform="matrix(10.4,0,0,10.4,494.7,413.9)" />
<use xlink:href="#f1_w" transform="matrix(10.4,0,0,10.4,509.6,413.9)" />
<use xlink:href="#f1_m" transform="matrix(10.4,0,0,10.4,525.7,413.9)" />
<use xlink:href="#f1_p" transform="matrix(10.4,0,0,10.4,68.3,549.5)" />
<use xlink:href="#f1_q" transform="matrix(10.4,0,0,10.4,77.2,549.5)" />
<use xlink:href="#f1_h" transform="matrix(10.4,0,0,10.4,86.3,549.5)" />
</g>
<path d="M140.1,545.1h10.1m43.2,0h10.3m42.3,0h10.3" class="g3_36" />
<g fill="#000000" >
<use xlink:href="#f1_k" transform="matrix(10.5,0,0,10.4,141.4,539)" />
<use xlink:href="#f1_k" transform="matrix(10.5,0,0,10.4,194.9,539)" />
<use xlink:href="#f1_k" transform="matrix(10.5,0,0,10.4,247.5,539)" />
<use xlink:href="#f1_f" transform="matrix(10.5,0,0,10.4,151.8,549.3)" />
<use xlink:href="#f1_f" transform="matrix(10.5,0,0,10.4,205.4,549.3)" />
<use xlink:href="#f1_l" transform="matrix(10.5,0,0,10.4,140.9,561.6)" />
<use xlink:href="#f1_m" transform="matrix(10.5,0,0,10.4,194.3,561.6)" />
<use xlink:href="#f1_o" transform="matrix(10.5,0,0,10.4,246.9,561.6)" />
<use xlink:href="#f2_2j" transform="matrix(10.5,0,0,10.4,111.8,549.3)" />
<use xlink:href="#f2_2k" transform="matrix(10.5,0,0,10.4,165.1,549.3)" />
<use xlink:href="#f2_2l" transform="matrix(10.5,0,0,10.4,218.3,549.3)" />
<use xlink:href="#f3_x" transform="matrix(10.5,0,0,10.4,126.2,549.3)" />
<use xlink:href="#f3_x" transform="matrix(10.5,0,0,10.4,179.5,549.3)" />
<use xlink:href="#f3_x" transform="matrix(10.5,0,0,10.4,232.2,549.3)" />
<use xlink:href="#f1_p" transform="matrix(10.4,0,0,10.4,343.3,549.5)" />
<use xlink:href="#f1_r" transform="matrix(10.4,0,0,10.4,352.2,549.5)" />
<use xlink:href="#f1_h" transform="matrix(10.4,0,0,10.4,361.3,549.5)" />
</g>
<path d="M449.4,544h19.3" class="g4_36" />
<g fill="#000000" >
<use xlink:href="#f1_k" transform="matrix(7,0,0,7,413.6,541)" />
<use xlink:href="#f1_p" transform="matrix(10.5,0,0,10.5,496.4,524.2)" />
<use xlink:href="#f1_k" transform="matrix(10.5,0,0,10.5,519.1,524.2)" />
<use xlink:href="#f1_q" transform="matrix(10.5,0,0,10.5,528,524.2)" />
<use xlink:href="#f1_k" transform="matrix(10.5,0,0,10.5,552,524.2)" />
<use xlink:href="#f1_m" transform="matrix(10.5,0,0,10.5,561,524.2)" />
<use xlink:href="#f1_k" transform="matrix(10.5,0,0,10.5,455.3,537.8)" />
<use xlink:href="#f1_k" transform="matrix(10.5,0,0,10.5,487.4,548.3)" />
<use xlink:href="#f1_n" transform="matrix(10.5,0,0,10.5,496.3,548.3)" />
<use xlink:href="#f1_o" transform="matrix(10.5,0,0,10.5,528,548.3)" />
<use xlink:href="#f1_r" transform="matrix(10.5,0,0,10.5,561.1,548.3)" />
<use xlink:href="#f1_p" transform="matrix(10.5,0,0,10.5,450.1,560.6)" />
<use xlink:href="#f1_q" transform="matrix(10.5,0,0,10.5,459.1,560.6)" />
<use xlink:href="#f1_k" transform="matrix(10.5,0,0,10.5,487.4,572.3)" />
<use xlink:href="#f1_o" transform="matrix(10.5,0,0,10.5,496.3,572.3)" />
<use xlink:href="#f1_s" transform="matrix(10.5,0,0,10.5,528,572.3)" />
<use xlink:href="#f1_k" transform="matrix(10.5,0,0,10.5,563.6,572.3)" />
<use xlink:href="#f2_10" transform="matrix(10.5,0,0,10.5,396,548.3)" />
<use xlink:href="#f3_h" transform="matrix(7,0,0,7,407.8,541)" />
<use xlink:href="#f3_h" transform="matrix(10.5,0,0,10.5,487.7,524.2)" />
<use xlink:href="#f3_4r" transform="matrix(10.5,0,0,10.5,471.6,525.2)" />
<use xlink:href="#f3_57" transform="matrix(10.5,0,0,10.5,570.6,525.2)" />
<use xlink:href="#f3_4s" transform="matrix(10.5,0,0,10.5,471.6,540.7)" />
<use xlink:href="#f3_58" transform="matrix(10.5,0,0,10.5,570.6,540.7)" />
<use xlink:href="#f3_x" transform="matrix(10.5,0,0,10.5,424.1,548.3)" />
<use xlink:href="#f3_h" transform="matrix(10.5,0,0,10.5,438,548.3)" />
<use xlink:href="#f3_h" transform="matrix(10.5,0,0,10.5,552.4,548.3)" />
<use xlink:href="#f3_4s" transform="matrix(10.5,0,0,10.5,471.6,556)" />
<use xlink:href="#f3_58" transform="matrix(10.5,0,0,10.5,570.6,556)" />
<use xlink:href="#f3_4s" transform="matrix(10.5,0,0,10.5,471.6,571.2)" />
<use xlink:href="#f3_58" transform="matrix(10.5,0,0,10.5,570.6,571.2)" />
<use xlink:href="#f3_h" transform="matrix(10.5,0,0,10.5,478.6,572.3)" />
<use xlink:href="#f3_h" transform="matrix(10.5,0,0,10.5,555,572.3)" />
<use xlink:href="#f3_4t" transform="matrix(10.5,0,0,10.5,471.6,575.8)" />
<use xlink:href="#f3_59" transform="matrix(10.5,0,0,10.5,570.6,575.8)" />
<use xlink:href="#f1_p" transform="matrix(10.4,0,0,10.4,68.3,654.9)" />
<use xlink:href="#f1_s" transform="matrix(10.4,0,0,10.4,77.2,654.9)" />
<use xlink:href="#f1_h" transform="matrix(10.4,0,0,10.4,86.3,654.9)" />
<use xlink:href="#f2_2j" transform="matrix(10.4,0,0,10.4,109,654.9)" />
<use xlink:href="#f1_w" transform="matrix(10.4,0,0,10.4,123.9,654.9)" />
<use xlink:href="#f1_k" transform="matrix(10.4,0,0,10.4,139.8,654.9)" />
<use xlink:href="#f1_f" transform="matrix(10.4,0,0,10.4,148.6,654.9)" />
<use xlink:href="#f2_2k" transform="matrix(10.4,0,0,10.4,159.8,654.9)" />
<use xlink:href="#f1_w" transform="matrix(10.4,0,0,10.4,174.6,654.9)" />
<use xlink:href="#f1_99" transform="matrix(10.4,0,0,10.4,190.6,654.9)" />
<use xlink:href="#f1_l" transform="matrix(10.4,0,0,10.4,206.2,654.9)" />
<use xlink:href="#f1_f" transform="matrix(10.4,0,0,10.4,215.1,654.9)" />
<use xlink:href="#f2_2l" transform="matrix(10.4,0,0,10.4,226.2,654.9)" />
<use xlink:href="#f1_w" transform="matrix(10.4,0,0,10.4,241,654.9)" />
<use xlink:href="#f1_l" transform="matrix(10.4,0,0,10.4,257.1,654.9)" />
<use xlink:href="#f1_q" transform="matrix(10.4,0,0,10.4,343.3,654.9)" />
<use xlink:href="#f1_j" transform="matrix(10.4,0,0,10.4,352.2,654.9)" />
<use xlink:href="#f1_h" transform="matrix(10.4,0,0,10.4,361.3,654.9)" />
<use xlink:href="#f1_k" transform="matrix(7,0,0,7,413.5,647)" />
<use xlink:href="#f1_l" transform="matrix(10.4,0,0,10.5,444.5,630.2)" />
<use xlink:href="#f1_j" transform="matrix(10.4,0,0,10.5,468,630.2)" />
<use xlink:href="#f1_k" transform="matrix(10.4,0,0,10.5,500.9,630.2)" />
<use xlink:href="#f1_o" transform="matrix(10.4,0,0,10.5,444.3,654.2)" />
<use xlink:href="#f1_k" transform="matrix(10.4,0,0,10.5,470.5,654.2)" />
<use xlink:href="#f1_j" transform="matrix(10.4,0,0,10.5,498.4,654.2)" />
<use xlink:href="#f1_j" transform="matrix(10.4,0,0,10.5,444.3,678.3)" />
<use xlink:href="#f1_k" transform="matrix(10.4,0,0,10.5,470.5,678.3)" />
<use xlink:href="#f1_m" transform="matrix(10.4,0,0,10.5,498.4,678.3)" />
<use xlink:href="#f2_10" transform="matrix(10.4,0,0,10.5,396,654.2)" />
<use xlink:href="#f3_h" transform="matrix(7,0,0,7,407.7,647)" />
<use xlink:href="#f3_h" transform="matrix(10.4,0,0,10.5,492.2,630.2)" />
<use xlink:href="#f3_4r" transform="matrix(10.4,0,0,10.5,437.7,631.2)" />
<use xlink:href="#f3_57" transform="matrix(10.4,0,0,10.5,507.7,631.2)" />
<use xlink:href="#f3_4s" transform="matrix(10.4,0,0,10.5,437.7,646.7)" />
<use xlink:href="#f3_58" transform="matrix(10.4,0,0,10.5,507.7,646.7)" />
<use xlink:href="#f3_x" transform="matrix(10.4,0,0,10.5,423.9,654.2)" />
<use xlink:href="#f3_4s" transform="matrix(10.4,0,0,10.5,437.7,661.9)" />
<use xlink:href="#f3_58" transform="matrix(10.4,0,0,10.5,507.7,661.9)" />
<use xlink:href="#f3_4s" transform="matrix(10.4,0,0,10.5,437.7,677.2)" />
<use xlink:href="#f3_58" transform="matrix(10.4,0,0,10.5,507.7,677.2)" />
<use xlink:href="#f3_4t" transform="matrix(10.4,0,0,10.5,437.7,681.8)" />
<use xlink:href="#f3_59" transform="matrix(10.4,0,0,10.5,507.7,681.8)" />
<use xlink:href="#f1_q" transform="matrix(10.4,0,0,10.4,68.3,750.8)" />
<use xlink:href="#f1_k" transform="matrix(10.4,0,0,10.4,77.2,750.8)" />
<use xlink:href="#f1_h" transform="matrix(10.4,0,0,10.4,86.3,750.8)" />
<use xlink:href="#f3_c" transform="matrix(10.5,0,0,11.5,111.3,749.1)" />
<use xlink:href="#f3_d" transform="matrix(10.5,0,0,11.5,140.3,748.9)" />
</g>
<path d="M175.9,746.9h18" class="g5_36" />
<g fill="#000000" >
<use xlink:href="#f1_k" transform="matrix(7,0,0,7,151.6,741.7)" />
<use xlink:href="#f1_k" transform="matrix(10.5,0,0,10.5,204.4,727.2)" />
<use xlink:href="#f1_p" transform="matrix(10.5,0,0,10.5,213.3,727.2)" />
<use xlink:href="#f1_k" transform="matrix(10.5,0,0,10.5,237.3,727.2)" />
<use xlink:href="#f1_l" transform="matrix(10.5,0,0,10.5,246.2,727.2)" />
<use xlink:href="#f1_k" transform="matrix(10.5,0,0,10.5,281.5,727.2)" />
<use xlink:href="#f1_k" transform="matrix(10.5,0,0,10.5,181.2,740.8)" />
<use xlink:href="#f1_l" transform="matrix(10.5,0,0,10.5,206.9,751.2)" />
<use xlink:href="#f1_k" transform="matrix(10.5,0,0,10.5,215.8,751.2)" />
<use xlink:href="#f1_k" transform="matrix(10.5,0,0,10.5,239.6,751.2)" />
<use xlink:href="#f1_k" transform="matrix(10.5,0,0,10.5,248.5,751.2)" />
<use xlink:href="#f1_q" transform="matrix(10.5,0,0,10.5,278.9,751.2)" />
<use xlink:href="#f1_k" transform="matrix(10.5,0,0,10.5,175.4,763.6)" />
<use xlink:href="#f1_s" transform="matrix(10.5,0,0,10.5,184.3,763.6)" />
<use xlink:href="#f1_k" transform="matrix(10.5,0,0,10.5,204.4,775.3)" />
<use xlink:href="#f1_j" transform="matrix(10.5,0,0,10.5,213.3,775.3)" />
<use xlink:href="#f1_l" transform="matrix(10.5,0,0,10.5,246.3,775.3)" />
<use xlink:href="#f1_m" transform="matrix(10.5,0,0,10.5,279.1,775.3)" />
<use xlink:href="#f2_10" transform="matrix(10.5,0,0,10.5,117.2,751.2)" />
<use xlink:href="#f2_11" transform="matrix(10.5,0,0,10.5,127.9,751.2)" />
<use xlink:href="#f3_h" transform="matrix(7,0,0,7,145.8,741.7)" />
<use xlink:href="#f3_4r" transform="matrix(10.5,0,0,10.5,199.1,728.2)" />
<use xlink:href="#f3_57" transform="matrix(10.5,0,0,10.5,288.5,728.2)" />
<use xlink:href="#f3_4s" transform="matrix(10.5,0,0,10.5,199.1,743.6)" />
<use xlink:href="#f3_58" transform="matrix(10.5,0,0,10.5,288.5,743.6)" />
<use xlink:href="#f3_x" transform="matrix(10.5,0,0,10.5,162,751.2)" />
<use xlink:href="#f3_h" transform="matrix(10.5,0,0,10.5,270.4,751.2)" />
<use xlink:href="#f3_4s" transform="matrix(10.5,0,0,10.5,199.1,758.9)" />
<use xlink:href="#f3_58" transform="matrix(10.5,0,0,10.5,288.5,758.9)" />
<use xlink:href="#f3_4s" transform="matrix(10.5,0,0,10.5,199.1,774.2)" />
<use xlink:href="#f3_58" transform="matrix(10.5,0,0,10.5,288.5,774.2)" />
<use xlink:href="#f3_h" transform="matrix(10.5,0,0,10.5,237.7,775.3)" />
<use xlink:href="#f3_4t" transform="matrix(10.5,0,0,10.5,199.1,778.7)" />
<use xlink:href="#f3_59" transform="matrix(10.5,0,0,10.5,288.5,778.7)" />
<use xlink:href="#f1_h" transform="matrix(10.4,0,0,10.4,298,750.8)" />
<use xlink:href="#f1_q" transform="matrix(10.4,0,0,10.4,343.3,750.8)" />
<use xlink:href="#f1_l" transform="matrix(10.4,0,0,10.4,352.2,750.8)" />
<use xlink:href="#f1_h" transform="matrix(10.4,0,0,10.4,361.3,750.8)" />
<use xlink:href="#f2_2j" transform="matrix(10.4,0,0,10.4,393.2,750.8)" />
<use xlink:href="#f1_w" transform="matrix(10.4,0,0,10.4,408,750.8)" />
<use xlink:href="#f1_m" transform="matrix(10.4,0,0,10.4,423.9,750.8)" />
<use xlink:href="#f1_f" transform="matrix(10.4,0,0,10.4,432.8,750.8)" />
<use xlink:href="#f2_2k" transform="matrix(10.4,0,0,10.4,444,750.8)" />
<use xlink:href="#f1_w" transform="matrix(10.4,0,0,10.4,458.8,750.8)" />
<use xlink:href="#f1_l" transform="matrix(10.4,0,0,10.4,474.7,750.8)" />
<use xlink:href="#f1_f" transform="matrix(10.4,0,0,10.4,483.6,750.8)" />
<use xlink:href="#f2_2l" transform="matrix(10.4,0,0,10.4,494.7,750.8)" />
<use xlink:href="#f1_w" transform="matrix(10.4,0,0,10.4,509.6,750.8)" />
<use xlink:href="#f1_k" transform="matrix(10.4,0,0,10.4,525.7,750.8)" />
<use xlink:href="#f1_h" transform="matrix(10.4,0,0,10.4,534.6,750.8)" />
<use xlink:href="#f1_q" transform="matrix(10.4,0,0,10.4,68.3,858.8)" />
<use xlink:href="#f1_m" transform="matrix(10.4,0,0,10.4,77.2,858.8)" />
<use xlink:href="#f1_h" transform="matrix(10.4,0,0,10.4,86.3,858.8)" />
</g>
<path d="M153.6,853.8h10" class="g6_36" />
<g fill="#000000" >
<use xlink:href="#f1_k" transform="matrix(7,0,0,7,129.3,850.9)" />
<use xlink:href="#f1_k" transform="matrix(10.5,0,0,10.5,184.6,834)" />
<use xlink:href="#f1_k" transform="matrix(10.5,0,0,10.5,215,834)" />
<use xlink:href="#f1_k" transform="matrix(10.5,0,0,10.5,245.5,834)" />
<use xlink:href="#f1_k" transform="matrix(10.5,0,0,10.5,154.9,847.7)" />
<use xlink:href="#f1_k" transform="matrix(10.5,0,0,10.5,184.6,858.1)" />
<use xlink:href="#f1_k" transform="matrix(10.5,0,0,10.5,215,858.1)" />
<use xlink:href="#f1_k" transform="matrix(10.5,0,0,10.5,245.5,858.1)" />
<use xlink:href="#f1_l" transform="matrix(10.5,0,0,10.5,154.4,870.5)" />
<use xlink:href="#f1_k" transform="matrix(10.5,0,0,10.5,184.6,882.1)" />
<use xlink:href="#f1_k" transform="matrix(10.5,0,0,10.5,215,882.1)" />
<use xlink:href="#f1_k" transform="matrix(10.5,0,0,10.5,245.5,882.1)" />
<use xlink:href="#f2_10" transform="matrix(10.5,0,0,10.5,111.8,858.1)" />
<use xlink:href="#f3_h" transform="matrix(7,0,0,7,123.5,850.9)" />
<use xlink:href="#f3_h" transform="matrix(10.5,0,0,10.5,175.9,834)" />
<use xlink:href="#f3_4r" transform="matrix(10.5,0,0,10.5,168.8,835)" />
<use xlink:href="#f3_57" transform="matrix(10.5,0,0,10.5,252.3,835)" />
<use xlink:href="#f3_4s" transform="matrix(10.5,0,0,10.5,168.8,850.5)" />
<use xlink:href="#f3_58" transform="matrix(10.5,0,0,10.5,252.3,850.5)" />
<use xlink:href="#f3_x" transform="matrix(10.5,0,0,10.5,139.8,858.1)" />
<use xlink:href="#f3_h" transform="matrix(10.5,0,0,10.5,206.3,858.1)" />
<use xlink:href="#f3_4s" transform="matrix(10.5,0,0,10.5,168.8,865.8)" />
<use xlink:href="#f3_58" transform="matrix(10.5,0,0,10.5,252.3,865.8)" />
<use xlink:href="#f3_4s" transform="matrix(10.5,0,0,10.5,168.8,881)" />
<use xlink:href="#f3_58" transform="matrix(10.5,0,0,10.5,252.3,881)" />
<use xlink:href="#f3_h" transform="matrix(10.5,0,0,10.5,236.8,882.1)" />
<use xlink:href="#f3_4t" transform="matrix(10.5,0,0,10.5,168.8,885.6)" />
<use xlink:href="#f3_59" transform="matrix(10.5,0,0,10.5,252.3,885.6)" />
<use xlink:href="#f1_h" transform="matrix(10.4,0,0,10.4,261.4,858.8)" />
<use xlink:href="#f1_q" transform="matrix(10.4,0,0,10.4,343.3,858.8)" />
<use xlink:href="#f1_n" transform="matrix(10.4,0,0,10.4,352.2,858.8)" />
<use xlink:href="#f1_h" transform="matrix(10.4,0,0,10.4,361.3,858.8)" />
<use xlink:href="#f1_k" transform="matrix(7,0,0,7,413.6,850.3)" />
<use xlink:href="#f1_m" transform="matrix(10.6,0,0,10.5,444.7,833.5)" />
<use xlink:href="#f1_l" transform="matrix(10.6,0,0,10.5,468.7,833.5)" />
<use xlink:href="#f1_p" transform="matrix(10.6,0,0,10.5,492.4,833.5)" />
<use xlink:href="#f1_k" transform="matrix(10.6,0,0,10.5,447.3,857.5)" />
<use xlink:href="#f1_k" transform="matrix(10.6,0,0,10.5,471,857.5)" />
<use xlink:href="#f1_l" transform="matrix(10.6,0,0,10.5,492.6,857.5)" />
<use xlink:href="#f1_l" transform="matrix(10.6,0,0,10.5,445,881.6)" />
<use xlink:href="#f1_l" transform="matrix(10.6,0,0,10.5,468.7,881.6)" />
<use xlink:href="#f1_o" transform="matrix(10.6,0,0,10.5,492.4,881.6)" />
<use xlink:href="#f2_10" transform="matrix(10.6,0,0,10.5,396,857.5)" />
<use xlink:href="#f3_h" transform="matrix(7,0,0,7,407.8,850.3)" />
<use xlink:href="#f3_4r" transform="matrix(10.6,0,0,10.5,438.1,834.5)" />
<use xlink:href="#f3_57" transform="matrix(10.6,0,0,10.5,501.8,834.5)" />
<use xlink:href="#f3_4s" transform="matrix(10.6,0,0,10.5,438.1,850)" />
<use xlink:href="#f3_58" transform="matrix(10.6,0,0,10.5,501.8,850)" />
<use xlink:href="#f3_x" transform="matrix(10.6,0,0,10.5,424.1,857.5)" />
<use xlink:href="#f3_4s" transform="matrix(10.6,0,0,10.5,438.1,865.2)" />
<use xlink:href="#f3_58" transform="matrix(10.6,0,0,10.5,501.8,865.2)" />
<use xlink:href="#f3_4s" transform="matrix(10.6,0,0,10.5,438.1,880.5)" />
<use xlink:href="#f3_58" transform="matrix(10.6,0,0,10.5,501.8,880.5)" />
<use xlink:href="#f3_4t" transform="matrix(10.6,0,0,10.5,438.1,885.1)" />
<use xlink:href="#f3_59" transform="matrix(10.6,0,0,10.5,501.8,885.1)" />
<use xlink:href="#f4_l" transform="matrix(12,0,0,12,655.5,1052.9)" />
<use xlink:href="#f4_m" transform="matrix(12,0,0,12,665.7,1052.9)" />
</g>
<g fill="#0080FF" fill-opacity="0.5" >
<use xlink:href="#f0_1c" transform="matrix(36.3,0,0,36.3,174,1059.2)" />
<use xlink:href="#f0_21" transform="matrix(36.3,0,0,36.3,204.8,1059.2)" />
<use xlink:href="#f0_1x" transform="matrix(36.3,0,0,36.3,235.7,1059.2)" />
<use xlink:href="#f0_2e" transform="matrix(36.3,0,0,36.3,266.5,1059.2)" />
<use xlink:href="#f0_2a" transform="matrix(36.3,0,0,36.3,284.9,1059.2)" />
<use xlink:href="#f0_17" transform="matrix(36.3,0,0,36.3,315.8,1059.2)" />
<use xlink:href="#f0_2h" transform="matrix(36.3,0,0,36.3,358.9,1059.2)" />
<use xlink:href="#f0_25" transform="matrix(36.3,0,0,36.3,389.7,1059.2)" />
<use xlink:href="#f0_20" transform="matrix(36.3,0,0,36.3,402,1059.2)" />
<use xlink:href="#f0_21" transform="matrix(36.3,0,0,36.3,432.8,1059.2)" />
<use xlink:href="#f0_i" transform="matrix(36.3,0,0,36.3,463.7,1059.2)" />
<use xlink:href="#f0_25" transform="matrix(36.3,0,0,36.3,479.1,1059.2)" />
<use xlink:href="#f0_2a" transform="matrix(36.3,0,0,36.3,491.4,1059.2)" />
</g>
<defs>
<path d="M593,101c0,0,182,0,279,112c0,0,98,113,98,318c0,0,0,196,-98,308c0,0,-98,112,-277,112c0,0,-181,0,-279,-110c0,0,-99,-111,-99,-310c0,0,0,-198,100,-314c0,0,99,-116,276,-116Zm0,-115c0,0,-162,0,-279,65c0,0,-118,66,-180,190c0,0,-62,124,-62,290c0,0,0,252,138,394c0,0,138,142,385,142c0,0,160,0,278,-64c0,0,118,-64,180,-185c0,0,62,-122,62,-287c0,0,0,-165,-63,-289c0,0,-63,-124,-181,-190c0,0,-118,-66,-278,-66Z" 
id="f0_1f"
transform="scale(0.001,-0.001)" />

<path d="M106,0V635c0,0,0,141,-5,173H228c0,0,1,-4,2,-21c0,0,1,-16,2,-37c0,0,1,-22,2,-81h2c0,0,47,84,108,119c0,0,60,34,151,34c0,0,132,0,194,-66c0,0,61,-66,61,-218V0H615V512c0,0,0,80,-15,124c0,0,-16,44,-50,63c0,0,-35,20,-101,20c0,0,-97,0,-153,-67c0,0,-56,-66,-56,-184V0Z" 
id="f0_2a"
transform="scale(0.001,-0.001)" />

<path d="M103,0V1107H237V0Z" 
id="f0_28"
transform="scale(0.001,-0.001)" />

<path d="M102,0V808H236V0Zm0,979v128H236V979Z" 
id="f0_25"
transform="scale(0.001,-0.001)" />

<path d="M643,478c0,0,-11,128,-65,187c0,0,-54,59,-154,59c0,0,-98,0,-155,-66c0,0,-57,-65,-62,-180ZM431,-14c0,0,-179,0,-272,106c0,0,-94,107,-94,317c0,0,0,200,94,307c0,0,93,106,267,106c0,0,356,0,356,-429V375H206c0,0,0,-138,57,-213c0,0,58,-75,168,-75c0,0,87,0,140,35c0,0,53,35,71,88L760,177c0,0,-72,-191,-329,-191Z" 
id="f0_21"
transform="scale(0.001,-0.001)" />

<path d="M17,0L304,415L31,808H179L380,493L580,808H730L457,417L747,0H598L380,331L162,0Z" 
id="f0_2k"
transform="scale(0.001,-0.001)" />

<path d="M339,87c0,0,74,0,132,34c0,0,57,33,90,91c0,0,34,59,34,121v66L448,396c0,0,-95,-2,-144,-19c0,0,-49,-18,-75,-55c0,0,-26,-38,-26,-98c0,0,0,-65,35,-101c0,0,36,-36,101,-36ZM309,-14c0,0,-122,0,-183,64c0,0,-61,64,-61,176c0,0,0,125,82,192c0,0,83,67,266,72l182,3v44c0,0,0,98,-42,141c0,0,-42,43,-132,43c0,0,-90,0,-131,-31c0,0,-41,-31,-49,-98L101,604c0,0,34,218,323,218c0,0,153,0,229,-70c0,0,77,-69,77,-202V202c0,0,0,-59,16,-90c0,0,16,-30,60,-30c0,0,19,0,44,5V4C850,4,799,-7,746,-7c0,0,-75,0,-109,38c0,0,-33,40,-38,124h-4C595,155,543,62,475,24c0,0,-68,-38,-166,-38Z" 
id="f0_1x"
transform="scale(0.001,-0.001)" />

<path d="M106,0V635c0,0,0,141,-5,173H228c0,0,1,-4,2,-21c0,0,1,-16,2,-37c0,0,1,-22,2,-81h2c0,0,44,86,100,120c0,0,56,33,136,33c0,0,92,0,145,-36c0,0,54,-37,75,-117h2c0,0,42,82,101,117c0,0,59,36,143,36c0,0,123,0,178,-66c0,0,56,-67,56,-218V0H1039V512c0,0,0,117,-32,162c0,0,-32,45,-116,45c0,0,-88,0,-136,-66c0,0,-49,-65,-49,-185V0H573V512c0,0,0,117,-32,162c0,0,-32,45,-116,45c0,0,-86,0,-136,-66c0,0,-50,-66,-50,-185V0Z" 
id="f0_29"
transform="scale(0.001,-0.001)" />

<path d="M453,84c0,0,100,0,146,74c0,0,46,73,46,247c0,0,0,169,-46,241c0,0,-45,73,-145,73c0,0,-80,0,-125,-34c0,0,-45,-34,-68,-105c0,0,-24,-71,-24,-186c0,0,0,-159,51,-234c0,0,51,-76,165,-76ZM103,-316V643c0,0,0,124,-5,165H228c0,0,1,-3,3,-22c0,0,1,-18,3,-56c0,0,2,-38,2,-52h3c0,0,36,75,94,110c0,0,59,34,156,34c0,0,149,0,223,-100c0,0,74,-100,74,-314c0,0,0,-422,-297,-422c0,0,-187,0,-251,140h-4c0,0,3,-6,3,-126V-316Z" 
id="f0_2c"
transform="scale(0.001,-0.001)" />

<path d="M420,84c0,0,121,0,173,78c0,0,52,77,52,243c0,0,0,167,-50,243c0,0,-50,76,-167,76c0,0,-118,0,-170,-78c0,0,-53,-77,-53,-241c0,0,0,-160,52,-241c0,0,52,-80,163,-80Zm1,-98c0,0,-176,0,-267,107c0,0,-90,108,-90,312c0,0,0,417,362,417c0,0,185,0,272,-102c0,0,88,-101,88,-315c0,0,0,-212,-94,-316C692,89,599,-14,421,-14Z" 
id="f0_2b"
transform="scale(0.001,-0.001)" />

<path d="M278,-11c0,0,-162,0,-162,182V710H23v98h99l39,181h90V808H400V710H251V200c0,0,0,-58,19,-82c0,0,19,-23,66,-23c0,0,27,0,77,10V6c0,0,-66,-17,-135,-17Z" 
id="f0_2g"
transform="scale(0.001,-0.001)" />

<path d="M511,373V863L169,383l-7,-10ZM511,0V258H38V383l496,691H646V373H799V258H646V0Z" 
id="f1_n"
transform="scale(0.001,-0.001)" />

<path d="M424,92c0,0,98,0,161,58c0,0,62,58,62,149c0,0,0,92,-62,151c0,0,-63,58,-161,58c0,0,-98,0,-160,-58c0,0,-63,-59,-63,-151c0,0,0,-91,63,-149c0,0,62,-58,160,-58Zm0,533c0,0,82,0,134,46c0,0,52,45,52,118c0,0,0,72,-52,118c0,0,-52,46,-134,46c0,0,-82,0,-134,-46c0,0,-52,-46,-52,-118c0,0,0,-73,52,-119c0,0,52,-45,134,-45Zm0,-653c0,0,-165,0,-265,90C159,62,59,154,59,305c0,0,0,134,100,216c0,0,35,28,78,47c0,0,-27,15,-52,33c0,0,-90,70,-90,185c0,0,0,130,90,209c0,0,91,80,239,80c0,0,148,0,238,-80c0,0,91,-79,91,-209c0,0,0,-115,-91,-185c0,0,-24,-19,-52,-32c0,0,44,-20,79,-49c0,0,101,-81,101,-215c0,0,0,-151,-101,-243c0,0,-100,-90,-265,-90Z" 
id="f1_r"
transform="scale(0.001,-0.001)" />

<path d="M133,0V162H292V0Z" 
id="f1_h"
transform="scale(0.001,-0.001)" />

<path d="M139,0V1097H287V0Z" 
id="f1_18"
transform="scale(0.001,-0.001)" />

<path d="M99,0V799H226V681l30,39c0,0,87,102,219,102c0,0,132,0,203,-71c0,0,72,-72,72,-204V0H616V502c0,0,0,105,-41,151c0,0,-40,47,-132,47c0,0,-97,0,-154,-73c0,0,-56,-74,-56,-199V0Z" 
id="f1_29"
transform="scale(0.001,-0.001)" />

<path d="M394,-20c0,0,-159,0,-253,113c0,0,-95,114,-95,307c0,0,0,193,98,308c0,0,98,114,264,114c0,0,144,0,230,-78c0,0,85,-79,91,-217H600c0,0,-8,86,-59,133c0,0,-52,47,-138,47c0,0,-101,0,-159,-82c0,0,-58,-82,-58,-225c0,0,0,-152,54,-229c0,0,53,-77,159,-77c0,0,79,0,132,50c0,0,52,51,69,143H729C729,287,709,137,623,58c0,0,-86,-78,-229,-78Z" 
id="f1_1y"
transform="scale(0.001,-0.001)" />

<path d="M424,94c0,0,107,0,169,83c0,0,63,83,63,223c0,0,0,140,-63,224c0,0,-62,83,-169,83c0,0,-106,0,-168,-83c0,0,-62,-84,-62,-224c0,0,0,-140,62,-223c0,0,62,-83,168,-83Zm0,-114c0,0,-165,0,-268,115C156,95,54,211,54,400c0,0,0,189,102,306c0,0,103,116,268,116c0,0,168,0,270,-116c0,0,102,-117,102,-306c0,0,0,-189,-102,-305C694,95,592,-20,424,-20Z" 
id="f1_2a"
transform="scale(0.001,-0.001)" />

<path d="M393,-20c0,0,-169,0,-252,65c0,0,-83,67,-92,210H178c0,0,10,-85,61,-123c0,0,50,-38,154,-38c0,0,90,0,136,34c0,0,47,35,47,100c0,0,0,42,-31,64c0,0,-30,21,-123,43L283,368c0,0,-112,27,-160,75c0,0,-48,48,-48,135c0,0,0,112,80,178c0,0,81,66,218,66c0,0,140,0,222,-68c0,0,82,-67,88,-187H557c0,0,-6,67,-55,103c0,0,-48,37,-129,37c0,0,-84,0,-127,-29c0,0,-44,-29,-44,-85c0,0,0,-43,31,-65c0,0,30,-21,121,-43L493,452c0,0,117,-28,167,-78c0,0,49,-49,49,-138c0,0,0,-119,-86,-188c0,0,-85,-68,-230,-68Z" 
id="f1_2e"
transform="scale(0.001,-0.001)" />

<path d="M104,0V799H238V0Zm-2,946v152H239V946Z" 
id="f1_24"
transform="scale(0.001,-0.001)" />

<path d="M292,-9c0,0,-88,0,-124,38c0,0,-36,39,-36,134V689H22V799H132v224H266V799H392V689H266V163c0,0,0,-27,21,-43c0,0,21,-15,57,-15h48V1C392,1,324,-9,292,-9Z" 
id="f1_2f"
transform="scale(0.001,-0.001)" />

<path d="M649,461c0,0,-6,111,-55,172c0,0,-55,69,-160,69c0,0,-106,0,-170,-79c0,0,-50,-62,-60,-162ZM425,-20c0,0,-169,0,-266,106c0,0,-97,107,-97,297c0,0,0,201,102,320c0,0,103,119,276,119c0,0,157,0,253,-116c0,0,96,-117,96,-306l-1,-48H204c0,0,8,-119,54,-182c0,0,57,-76,180,-76c0,0,77,0,134,43c0,0,58,43,70,110H775C775,247,746,116,656,47c0,0,-90,-67,-231,-67Z" 
id="f1_20"
transform="scale(0.001,-0.001)" />

<path d="M419,483c0,0,93,0,152,66c0,0,59,66,59,169c0,0,0,103,-59,169c0,0,-59,65,-152,65c0,0,-94,0,-153,-65c0,0,-59,-66,-59,-169c0,0,0,-103,59,-169c0,0,59,-66,153,-66ZM397,-28c0,0,-143,0,-227,75c0,0,-85,77,-91,211H209c0,0,8,-83,57,-128c0,0,49,-45,131,-45c0,0,121,0,186,135c0,0,48,101,62,265C645,485,545,362,397,362c0,0,-150,0,-241,98c0,0,-91,98,-91,258c0,0,0,160,99,258c0,0,99,98,262,98c0,0,173,0,266,-123c0,0,94,-123,94,-349c0,0,0,-303,-101,-467C685,135,583,-28,397,-28Z" 
id="f1_s"
transform="scale(0.001,-0.001)" />

<path d="M310,0L12,799H168L383,145L604,799H752L454,0Z" 
id="f1_2h"
transform="scale(0.001,-0.001)" />

<path d="M118,0V799H246V662c0,0,17,32,36,58c0,0,76,102,187,102c0,0,19,0,38,-6V679l-27,1c0,0,-109,0,-168,-66c0,0,-60,-65,-60,-186V0Z" 
id="f1_2d"
transform="scale(0.001,-0.001)" />

<path d="M411,93c0,0,98,0,158,73c0,0,60,74,60,195c0,0,0,163,-57,252c0,0,-56,88,-161,88c0,0,-113,0,-165,-72c0,0,-52,-72,-52,-229c0,0,0,-147,56,-227c0,0,56,-80,161,-80ZM404,-20c0,0,-161,0,-255,118c0,0,-95,120,-95,324c0,0,0,179,92,290c0,0,91,110,239,110c0,0,147,0,233,-124l11,-15v414H763V0H638V109L621,84C621,84,538,-20,404,-20Z" 
id="f1_1z"
transform="scale(0.001,-0.001)" />

<path d="M17,0L301,412L32,799H205L389,514L574,799H740L471,410L749,0H581L382,305L186,0Z" 
id="f1_2j"
transform="scale(0.001,-0.001)" />

<path d="M417,-28c0,0,-161,0,-259,79c0,0,-98,81,-109,223H189c0,0,11,-90,72,-139c0,0,61,-49,162,-49c0,0,96,0,158,68c0,0,61,68,61,175c0,0,0,112,-64,178c0,0,-64,66,-173,66c0,0,-59,0,-115,-28c0,0,-55,-29,-84,-73L93,480l77,573H727V922H271L225,629l4,3c0,0,89,60,188,60c0,0,169,0,269,-94c0,0,99,-93,99,-253c0,0,0,-165,-103,-269C682,76,579,-28,417,-28Z" 
id="f1_o"
transform="scale(0.001,-0.001)" />

<path d="M424,92c0,0,114,0,170,107c0,0,57,108,56,323c0,0,1,216,-56,324c0,0,-56,107,-170,107c0,0,-112,0,-168,-107c0,0,-56,-108,-57,-324c0,0,1,-215,57,-323c0,0,56,-107,168,-107Zm0,-120c0,0,-176,0,-271,142c0,0,-96,143,-96,408c0,0,0,265,96,409c0,0,95,144,271,144c0,0,178,0,273,-144c0,0,96,-144,96,-409c0,0,0,-265,-96,-408c0,0,-95,-142,-273,-142Z" 
id="f1_j"
transform="scale(0.001,-0.001)" />

<path d="M0,368V478H849V368Z" 
id="f1_99"
transform="scale(0.001,-0.001)" />

<path d="M406,0V763H155V870h2c16,0,114,2,178,48c0,0,70,51,104,157H549V0Z" 
id="f1_k"
transform="scale(0.001,-0.001)" />

<path d="M39,0V0c0,0,0,170,84,277c0,0,85,108,317,236c0,0,113,62,154,115c0,0,41,52,41,134c0,0,0,86,-62,141c0,0,-61,54,-156,54c0,0,-101,0,-158,-68c0,0,-57,-68,-60,-194H67c0,0,-2,178,95,279c0,0,98,101,273,101c0,0,149,0,245,-89c0,0,94,-88,94,-228c0,0,0,-118,-60,-195c0,0,-61,-76,-229,-169C485,394,303,294,237,212c0,0,-28,-36,-46,-81H774V0Z" 
id="f1_l"
transform="scale(0.001,-0.001)" />

<path d="M424,-28c0,0,-180,0,-272,86c0,0,-92,87,-100,266H192c0,0,12,-126,66,-180c0,0,55,-54,170,-54c0,0,100,0,163,57c0,0,64,57,64,147c0,0,0,94,-61,149c0,0,-52,48,-135,54c0,0,-38,2,-72,2c0,0,-34,0,-45,-3V613c0,0,17,-3,51,-3c0,0,35,0,68,4c0,0,66,8,106,43c0,0,55,45,55,125c0,0,0,77,-58,125c0,0,-58,48,-148,48c0,0,-96,0,-147,-58c0,0,-51,-59,-56,-175H82c0,0,0,168,89,260c0,0,88,93,250,93c0,0,153,0,247,-77c0,0,94,-76,94,-202c0,0,0,-124,-95,-201c0,0,-18,-15,-39,-27c0,0,39,-17,69,-41c0,0,101,-79,101,-214c0,0,0,-151,-105,-246c0,0,-104,-95,-269,-95Z" 
id="f1_m"
transform="scale(0.001,-0.001)" />

<path d="M780,449L714,934L435,449ZM22,0L673,1097H839L998,0H839L797,318H359L178,0Z" 
id="f2_10"
transform="scale(0.001,-0.001)" />

<path d="M0,356v74H784V356Z" 
id="f3_h"
transform="scale(0.001,-0.001)" />

<path d="M0,-123V1415H525v-72H72V-123Z" 
id="f3_4r"
transform="scale(0.001,-0.001)" />

<path d="M478,-123V1343H26v72H550V-123Z" 
id="f3_57"
transform="scale(0.001,-0.001)" />

<path d="M0,214v74H784V214ZM0,494v72H784V494Z" 
id="f3_x"
transform="scale(0.001,-0.001)" />

<path d="M0,-123V1415H72V-123Z" 
id="f3_4s"
transform="scale(0.001,-0.001)" />

<path d="M0,-123V1415H72V-123Z" 
id="f3_58"
transform="scale(0.001,-0.001)" />

<path d="M0,-123V1415H72V-51H525v-72Z" 
id="f3_4t"
transform="scale(0.001,-0.001)" />

<path d="M26,-123v72H478V1415h72V-123Z" 
id="f3_59"
transform="scale(0.001,-0.001)" />

<path d="M133,-224v71c0,0,47,8,65,52c0,0,14,33,17,101H133V163H292V27c0,0,0,-114,-36,-172c0,0,-37,-58,-123,-79Z" 
id="f1_f"
transform="scale(0.001,-0.001)" />

<path d="M99,0L264,800H392L367,675l37,39c0,0,111,109,238,109c0,0,139,0,194,-69c0,0,55,-70,27,-209L750,0H615L724,524c0,0,18,91,-10,134c0,0,-28,43,-106,43c0,0,-117,0,-189,-77c0,0,-72,-77,-105,-238L234,0Z" 
id="f2_29"
transform="scale(0.001,-0.001)" />

<path d="M47,0L58,55l11,55L675,688H237l11,56l11,56H869L857,745L846,690L245,111H740L729,56L718,0Z" 
id="f2_2l"
transform="scale(0.001,-0.001)" />

<path d="M140,-21c0,0,-26,0,-44,17C96,-4,79,13,79,40c0,0,0,19,6,33c0,0,8,20,34,55c0,0,46,60,64,126c0,0,32,114,41,321H190c0,0,-55,0,-81,-18c0,0,-44,-26,-80,-89H0c0,0,42,129,98,178c0,0,43,37,120,37H743V575H562c0,0,-27,-171,-27,-327c0,0,0,-77,27,-110c0,0,27,-33,67,-33c0,0,33,0,56,22c0,0,24,22,31,65h27C743,192,730,74,686,26c0,0,-44,-47,-98,-47c0,0,-58,0,-97,51c0,0,-39,53,-39,198c0,0,0,91,28,347H286c0,0,-23,-390,-56,-494c0,0,-33,-102,-90,-102Z" 
id="f3_2c"
transform="scale(0.001,-0.001)" />

<path d="M316,27c0,0,57,0,105,53c0,0,65,72,125,295c0,0,-40,153,-104,214c0,0,-63,61,-129,61c0,0,-73,0,-122,-80c0,0,-48,-80,-48,-255c0,0,0,-104,20,-163c0,0,21,-60,64,-92c0,0,42,-33,89,-33Zm4,-49c0,0,-165,0,-243,108C77,86,0,196,0,336c0,0,0,164,91,265c0,0,91,102,213,102c0,0,85,0,150,-52c0,0,65,-51,118,-192l65,224H760L662,344c0,0,-9,-32,-30,-100c0,0,29,-115,43,-137c0,0,27,-41,68,-41c0,0,30,0,55,24c0,0,26,25,34,77h30C862,167,852,60,817,19c0,0,-35,-40,-81,-40c0,0,-42,0,-77,34c0,0,-35,36,-62,154c0,0,-33,-65,-65,-99C532,68,488,22,437,0c0,0,-52,-22,-117,-22Z" 
id="f3_1x"
transform="scale(0.001,-0.001)" />

<path d="M0,0V74H784V0ZM357,164V519H0v73H357V948h72V592H784V519H429V164Z" 
id="f3_37"
transform="scale(0.001,-0.001)" />

<path d="M398,0C398,0,266,0,185,39c0,0,-82,39,-133,124C52,163,0,248,0,342c0,0,0,144,103,243c0,0,103,98,292,98H694V611H387c0,0,-99,0,-166,-32c0,0,-68,-32,-105,-88c0,0,-26,-40,-41,-113H694V304H75c0,0,30,-120,103,-176c0,0,73,-56,210,-56H694V0Z" 
id="f3_40"
transform="scale(0.001,-0.001)" />

<path d="M432,92c0,0,96,0,156,66c0,0,61,65,61,169c0,0,0,103,-61,169c0,0,-60,66,-156,66c0,0,-95,0,-156,-66c0,0,-61,-66,-61,-169c0,0,0,-104,61,-169c0,0,61,-66,156,-66ZM425,-28c0,0,-176,0,-271,135c0,0,-95,136,-95,388c0,0,0,278,103,429c0,0,103,151,293,151c0,0,142,0,226,-77c0,0,84,-76,90,-211H638c0,0,-8,80,-56,123c0,0,-47,43,-127,43c0,0,-125,0,-192,-119c0,0,-58,-102,-64,-278c0,0,100,127,255,127c0,0,152,0,245,-98c0,0,93,-98,93,-258c0,0,0,-161,-101,-259c0,0,-101,-96,-266,-96Z" 
id="f1_p"
transform="scale(0.001,-0.001)" />

<path d="M412,-328c0,0,-195,96,-303,284C109,-44,0,142,0,365c0,0,0,232,114,422c0,0,114,191,298,273v-31c0,0,-92,-51,-151,-139c0,0,-59,-88,-88,-223c0,0,-29,-136,-29,-282c0,0,0,-167,27,-301c0,0,26,-133,82,-221c0,0,55,-89,159,-159v-32Z" 
id="f3_c"
transform="scale(0.001,-0.001)" />

<path d="M34,-328v32c0,0,92,50,151,138c0,0,59,88,88,222c0,0,29,135,29,283c0,0,0,165,-27,300c0,0,-26,134,-82,222c0,0,-56,89,-159,160v31c0,0,194,-96,303,-284c0,0,108,-187,108,-410c0,0,0,-232,-114,-422c0,0,-114,-191,-297,-272Z" 
id="f3_d"
transform="scale(0.001,-0.001)" />

<path d="M617,129c0,0,118,0,194,71c0,0,75,70,75,182c0,0,1,59,-55,93c0,0,-56,34,-152,34H368L289,129Zm58,503c0,0,120,0,188,59c0,0,68,58,68,163c0,0,0,57,-50,85c0,0,-50,29,-146,29H462L393,632ZM113,0L340,1097H825c0,0,122,0,191,-55c0,0,69,-55,69,-153c0,0,0,-160,-113,-251c0,0,-35,-26,-77,-46c0,0,27,-12,52,-28c0,0,89,-61,89,-166c0,0,0,-171,-127,-285C909,113,782,0,591,0Z" 
id="f2_11"
transform="scale(0.001,-0.001)" />

<path d="M354,90c0,0,107,0,192,57c0,0,60,41,87,95c0,0,5,12,11,33c0,0,6,20,11,44l18,88c0,0,-62,-26,-132,-37L414,352c0,0,-84,-11,-131,-56c0,0,-47,-45,-47,-113c0,0,0,-44,31,-69c0,0,31,-24,87,-24ZM306,-20c0,0,-99,0,-156,47c0,0,-57,49,-57,134c0,0,1,117,81,198c0,0,80,81,211,98l164,20l70,10c0,0,35,6,59,30c0,0,23,24,31,66l1,2c0,0,13,64,-25,94c0,0,-39,31,-132,31c0,0,-83,0,-137,-37c0,0,-54,-37,-84,-114H210c0,0,46,137,138,201c0,0,92,63,245,63c0,0,149,0,211,-59c0,0,45,-44,44,-116c0,0,1,-30,-6,-63L749,136c0,0,-4,-19,6,-32c0,0,10,-12,30,-12c0,0,6,0,19,1c0,0,12,2,25,5L809,1c0,0,-19,-6,-43,-11c0,0,-22,-5,-36,-5c0,0,-73,0,-100,43c0,0,-16,27,-17,75C612,102,594,85,573,69c0,0,-120,-89,-267,-89Z" 
id="f2_1w"
transform="scale(0.001,-0.001)" />

<path d="M17,0L389,412L201,800H376L500,518L742,800H904L554,410L750,0H580L448,303L187,0Z" 
id="f2_2j"
transform="scale(0.001,-0.001)" />

<path d="M99,-328c0,0,-46,0,-76,13l25,123c0,0,29,-14,81,-14c0,0,47,0,76,31c0,0,28,31,106,162L185,800H339L415,141L769,800H918L456,0C456,0,329,-216,269,-272c0,0,-61,-56,-170,-56Z" 
id="f2_2k"
transform="scale(0.001,-0.001)" />

<path d="M60,174V286H832V174Zm0,309V595H832V483Z" 
id="f1_w"
transform="scale(0.001,-0.001)" />

<path d="M212,0c0,0,51,270,162,500c0,0,109,222,281,422H57v131H799V934C799,934,623,726,515,498C515,498,408,269,362,0Z" 
id="f1_q"
transform="scale(0.001,-0.001)" />

<path d="M435,0V856c0,0,-48,-47,-127,-93c0,0,-79,-46,-142,-69V824c0,0,113,52,197,128c0,0,85,75,120,146h86V0Z" 
id="f4_l"
transform="scale(0.001,-0.001)" />

<path d="M46,0c0,0,-2,48,16,93c0,0,27,74,88,146c0,0,61,71,176,165c0,0,178,146,241,232c0,0,63,85,63,161c0,0,0,80,-57,135c0,0,-58,55,-149,55c0,0,-98,0,-156,-59c0,0,-58,-58,-59,-160L71,782c0,0,15,154,107,235c0,0,93,81,249,81c0,0,157,0,249,-87c0,0,92,-88,92,-217c0,0,0,-65,-27,-129c0,0,-27,-63,-89,-133c0,0,-62,-70,-207,-193C445,339,324,238,290,202c0,0,-35,-36,-57,-73H770V0Z" 
id="f4_m"
transform="scale(0.001,-0.001)" />

<path d="M125,0V1051H268V115H799V0Z" 
id="f0_1c"
transform="scale(0.001,-0.001)" />

<path d="M106,0V620c0,0,0,85,-5,188H228c0,0,6,-138,6,-165h3c0,0,32,103,74,141c0,0,42,38,118,38c0,0,27,0,54,-7V692c0,0,-26,7,-71,7c0,0,-84,0,-128,-72c0,0,-44,-72,-44,-206V0Z" 
id="f0_2e"
transform="scale(0.001,-0.001)" />

<path d="M606,-14c0,0,-164,0,-284,65c0,0,-119,66,-182,189c0,0,-63,123,-63,291c0,0,0,255,137,396c0,0,137,140,386,140c0,0,174,0,283,-59c0,0,109,-59,168,-189L915,779c0,0,-44,90,-123,131c0,0,-79,41,-196,41c0,0,-182,0,-278,-110c0,0,-96,-110,-96,-310c0,0,0,-200,102,-315c0,0,102,-115,282,-115c0,0,103,0,193,31c0,0,89,31,144,85V407H629V526h445V164c0,0,-83,-85,-205,-132c0,0,-121,-46,-263,-46Z" 
id="f0_17"
transform="scale(0.001,-0.001)" />

<path d="M355,-14c0,0,-133,0,-194,65c0,0,-62,66,-62,219V808H234V296c0,0,0,-80,16,-124c0,0,16,-44,50,-64c0,0,34,-19,101,-19c0,0,97,0,153,66c0,0,55,67,55,185V808H744V172c0,0,0,-141,4,-172H621c0,0,0,4,-1,20c0,0,-1,17,-2,38c0,0,-1,21,-3,80h-2C613,138,567,55,506,20c0,0,-61,-34,-151,-34Z" 
id="f0_2h"
transform="scale(0.001,-0.001)" />

<path d="M395,89c0,0,115,0,166,79c0,0,51,79,51,246c0,0,0,160,-51,235c0,0,-51,75,-164,75c0,0,-102,0,-147,-75c0,0,-45,-75,-45,-244c0,0,0,-170,45,-243c0,0,45,-73,145,-73ZM361,-14c0,0,-153,0,-225,102c0,0,-72,103,-72,312c0,0,0,422,297,422c0,0,92,0,153,-33c0,0,61,-34,98,-107h2l-2,90v335H747V166c0,0,0,-126,4,-166H623c0,0,-2,12,-5,55c0,0,-3,44,-3,75h-3c0,0,-37,-78,-98,-111c0,0,-62,-33,-153,-33Z" 
id="f0_20"
transform="scale(0.001,-0.001)" />

<path d="M140,0V163H285V0Z" 
id="f0_i"
transform="scale(0.001,-0.001)" />


</defs>
</svg>