<?xml version="1.0" encoding="UTF-8" standalone="no"?>
<!DOCTYPE svg PUBLIC "-//W3C//DTD SVG 1.1//EN"
"http://www.w3.org/Graphics/SVG/1.1/DTD/svg11.dtd">
<svg viewBox="0 0 696 1074" version="1.1" xmlns="http://www.w3.org/2000/svg" xmlns:xlink="http://www.w3.org/1999/xlink">
<defs>
<style type="text/css"><![CDATA[
.g0_24{
fill: none;
stroke: #000000;
stroke-width: 0.7656;
stroke-linecap: round;
stroke-linejoin: miter;
}
]]></style>
</defs>
<g fill="#D4D4D4" fill-opacity="0.56" >
<use xlink:href="#f0_1f" transform="matrix(50.9,-50.9,50.9,50.9,84.5,924.1)" />
<use xlink:href="#f0_2a" transform="matrix(50.9,-50.9,50.9,50.9,145,863.6)" />
<use xlink:href="#f0_28" transform="matrix(50.9,-50.9,50.9,50.9,188.3,820.3)" />
<use xlink:href="#f0_25" transform="matrix(50.9,-50.9,50.9,50.9,205.5,803.1)" />
<use xlink:href="#f0_2a" transform="matrix(50.9,-50.9,50.9,50.9,222.8,785.8)" />
<use xlink:href="#f0_21" transform="matrix(50.9,-50.9,50.9,50.9,266,742.5)" />
<use xlink:href="#f0_2k" transform="matrix(50.9,-50.9,50.9,50.9,309.3,699.3)" />
<use xlink:href="#f0_1x" transform="matrix(50.9,-50.9,50.9,50.9,348.2,660.4)" />
<use xlink:href="#f0_29" transform="matrix(50.9,-50.9,50.9,50.9,391.4,617.2)" />
<use xlink:href="#f0_2c" transform="matrix(50.9,-50.9,50.9,50.9,456.2,552.4)" />
<use xlink:href="#f0_2b" transform="matrix(50.9,-50.9,50.9,50.9,499.5,509.1)" />
<use xlink:href="#f0_25" transform="matrix(50.9,-50.9,50.9,50.9,542.7,465.9)" />
<use xlink:href="#f0_2a" transform="matrix(50.9,-50.9,50.9,50.9,560,448.6)" />
<use xlink:href="#f0_2g" transform="matrix(50.9,-50.9,50.9,50.9,603.2,405.4)" />
</g>
<g fill="#000000" >
<use xlink:href="#f1_q" transform="matrix(10.4,0,0,10.4,64.9,136)" />
<use xlink:href="#f1_o" transform="matrix(10.4,0,0,10.4,73.8,136)" />
<use xlink:href="#f1_h" transform="matrix(10.4,0,0,10.4,83,136)" />
<use xlink:href="#f1_o" transform="matrix(7,0,0,7,119.9,124.3)" />
<use xlink:href="#f1_k" transform="matrix(10.5,0,0,10.5,161.8,119.8)" />
<use xlink:href="#f1_k" transform="matrix(10.5,0,0,10.5,170.7,119.8)" />
<use xlink:href="#f1_r" transform="matrix(10.5,0,0,10.5,179.6,119.8)" />
<use xlink:href="#f1_s" transform="matrix(10.5,0,0,10.5,221.8,119.8)" />
<use xlink:href="#f1_m" transform="matrix(10.5,0,0,10.5,230.7,119.8)" />
<use xlink:href="#f1_h" transform="matrix(10.5,0,0,10.5,248,131.5)" />
<use xlink:href="#f1_m" transform="matrix(10.5,0,0,10.5,173.4,143.8)" />
<use xlink:href="#f1_k" transform="matrix(10.5,0,0,10.5,182.3,143.8)" />
<use xlink:href="#f1_k" transform="matrix(10.5,0,0,10.5,212.8,143.8)" />
<use xlink:href="#f1_k" transform="matrix(10.5,0,0,10.5,221.8,143.8)" />
<use xlink:href="#f1_r" transform="matrix(10.5,0,0,10.5,230.7,143.8)" />
<use xlink:href="#f2_10" transform="matrix(10.5,0,0,10.5,108.5,131.5)" />
<use xlink:href="#f3_h" transform="matrix(10.5,0,0,10.5,153,119.8)" />
<use xlink:href="#f3_h" transform="matrix(10.5,0,0,10.5,213.2,119.8)" />
<use xlink:href="#f3_4r" transform="matrix(10.5,0,0,10.5,146,120.8)" />
<use xlink:href="#f3_57" transform="matrix(10.5,0,0,10.5,240.4,120.8)" />
<use xlink:href="#f3_x" transform="matrix(10.5,0,0,10.5,132,131.5)" />
<use xlink:href="#f3_4s" transform="matrix(10.5,0,0,10.5,146,136.3)" />
<use xlink:href="#f3_58" transform="matrix(10.5,0,0,10.5,240.4,136.3)" />
<use xlink:href="#f3_h" transform="matrix(10.5,0,0,10.5,204.2,143.8)" />
<use xlink:href="#f3_4t" transform="matrix(10.5,0,0,10.5,146,147.3)" />
<use xlink:href="#f3_59" transform="matrix(10.5,0,0,10.5,240.4,147.3)" />
<use xlink:href="#f1_q" transform="matrix(10.4,0,0,10.4,339.9,136)" />
<use xlink:href="#f1_q" transform="matrix(10.4,0,0,10.4,348.8,136)" />
<use xlink:href="#f1_h" transform="matrix(10.4,0,0,10.4,358,136)" />
</g>
<path d="M444.1,131.6h10.2" class="g0_24" />
<g fill="#000000" >
<use xlink:href="#f1_k" transform="matrix(7.9,0,0,7.9,411.1,126.3)" />
<use xlink:href="#f1_m" transform="matrix(10.5,0,0,10.5,470.7,111.8)" />
<use xlink:href="#f1_k" transform="matrix(10.5,0,0,10.5,506.7,111.8)" />
<use xlink:href="#f1_k" transform="matrix(10.5,0,0,10.5,547.5,111.8)" />
<use xlink:href="#f1_k" transform="matrix(10.5,0,0,10.5,445.4,125.4)" />
<use xlink:href="#f1_k" transform="matrix(10.5,0,0,10.5,471.3,135.9)" />
<use xlink:href="#f1_m" transform="matrix(10.5,0,0,10.5,506.1,135.9)" />
<use xlink:href="#f1_k" transform="matrix(10.5,0,0,10.5,542.1,135.9)" />
<use xlink:href="#f1_h" transform="matrix(10.5,0,0,10.5,565.4,135.9)" />
<use xlink:href="#f1_n" transform="matrix(10.5,0,0,10.5,444.8,151.5)" />
<use xlink:href="#f1_k" transform="matrix(10.5,0,0,10.5,476.7,159.9)" />
<use xlink:href="#f1_k" transform="matrix(10.5,0,0,10.5,506.7,159.9)" />
<use xlink:href="#f1_m" transform="matrix(10.5,0,0,10.5,541.5,159.9)" />
<use xlink:href="#f2_10" transform="matrix(10.5,0,0,10.5,392.6,135.9)" />
<use xlink:href="#f3_h" transform="matrix(7.9,0,0,7.9,404.4,126.3)" />
<use xlink:href="#f3_h" transform="matrix(10.5,0,0,10.5,538.5,111.8)" />
<use xlink:href="#f3_4r" transform="matrix(10.5,0,0,10.5,459.5,113)" />
<use xlink:href="#f3_57" transform="matrix(10.5,0,0,10.5,555.5,113)" />
<use xlink:href="#f3_4s" transform="matrix(10.5,0,0,10.5,459.5,128.5)" />
<use xlink:href="#f3_58" transform="matrix(10.5,0,0,10.5,555.5,128.5)" />
<use xlink:href="#f3_x" transform="matrix(10.5,0,0,10.5,426.1,135.9)" />
<use xlink:href="#f3_4s" transform="matrix(10.5,0,0,10.5,459.5,143.7)" />
<use xlink:href="#f3_58" transform="matrix(10.5,0,0,10.5,555.5,143.7)" />
<use xlink:href="#f3_4s" transform="matrix(10.5,0,0,10.5,459.5,159)" />
<use xlink:href="#f3_58" transform="matrix(10.5,0,0,10.5,555.5,159)" />
<use xlink:href="#f3_h" transform="matrix(10.5,0,0,10.5,467.7,159.9)" />
<use xlink:href="#f3_4t" transform="matrix(10.5,0,0,10.5,459.5,163.3)" />
<use xlink:href="#f3_59" transform="matrix(10.5,0,0,10.5,555.5,163.3)" />
<use xlink:href="#f1_q" transform="matrix(10.4,0,0,10.4,64.9,227.9)" />
<use xlink:href="#f1_r" transform="matrix(10.4,0,0,10.4,73.8,227.9)" />
<use xlink:href="#f1_h" transform="matrix(10.4,0,0,10.4,83,227.9)" />
<use xlink:href="#f1_k" transform="matrix(10.5,0,0,10.5,154.8,214.9)" />
<use xlink:href="#f1_p" transform="matrix(10.5,0,0,10.5,163.8,214.9)" />
<use xlink:href="#f1_m" transform="matrix(10.5,0,0,10.5,196.6,214.9)" />
<use xlink:href="#f1_h" transform="matrix(10.5,0,0,10.5,213.5,226.7)" />
<use xlink:href="#f1_l" transform="matrix(10.5,0,0,10.5,154.8,239)" />
<use xlink:href="#f1_n" transform="matrix(10.5,0,0,10.5,163.8,239)" />
<use xlink:href="#f1_o" transform="matrix(10.5,0,0,10.5,196.6,239)" />
<use xlink:href="#f3_h" transform="matrix(10.5,0,0,10.5,146.1,214.9)" />
<use xlink:href="#f3_4r" transform="matrix(10.5,0,0,10.5,139.3,215.9)" />
<use xlink:href="#f3_57" transform="matrix(10.5,0,0,10.5,206.4,215.9)" />
<use xlink:href="#f3_x" transform="matrix(10.5,0,0,10.5,125.6,226.7)" />
<use xlink:href="#f3_4s" transform="matrix(10.5,0,0,10.5,139.3,231.4)" />
<use xlink:href="#f3_58" transform="matrix(10.5,0,0,10.5,206.4,231.4)" />
<use xlink:href="#f3_h" transform="matrix(10.5,0,0,10.5,188,239)" />
<use xlink:href="#f3_4t" transform="matrix(10.5,0,0,10.5,139.3,242.5)" />
<use xlink:href="#f3_59" transform="matrix(10.5,0,0,10.5,206.4,242.5)" />
<use xlink:href="#f2_1n" transform="matrix(10.5,0,0,10.5,108.1,226.7)" />
<use xlink:href="#f1_r" transform="matrix(10.4,0,0,10.4,339.9,227.9)" />
<use xlink:href="#f1_m" transform="matrix(10.4,0,0,10.4,348.8,227.9)" />
<use xlink:href="#f1_h" transform="matrix(10.4,0,0,10.4,358,227.9)" />
<use xlink:href="#f1_j" transform="matrix(10.4,0,0,10.4,389.8,227.9)" />
<use xlink:href="#f1_r" transform="matrix(10.4,0,0,10.4,64.9,282)" />
<use xlink:href="#f1_p" transform="matrix(10.4,0,0,10.4,73.8,282)" />
<use xlink:href="#f1_h" transform="matrix(10.4,0,0,10.4,83,282)" />
<use xlink:href="#f2_2j" transform="matrix(10.4,0,0,10.4,105.6,282)" />
<use xlink:href="#f1_w" transform="matrix(10.4,0,0,10.4,120.3,282)" />
<use xlink:href="#f1_k" transform="matrix(10.4,0,0,10.4,136.4,282)" />
<use xlink:href="#f1_f" transform="matrix(10.4,0,0,10.4,145.3,282)" />
<use xlink:href="#f2_2k" transform="matrix(10.4,0,0,10.4,156.4,282)" />
<use xlink:href="#f1_w" transform="matrix(10.4,0,0,10.4,171.3,282)" />
<use xlink:href="#f1_k" transform="matrix(10.4,0,0,10.4,187.2,282)" />
<use xlink:href="#f1_f" transform="matrix(10.4,0,0,10.4,196,282)" />
<use xlink:href="#f2_2l" transform="matrix(10.4,0,0,10.4,207.2,282)" />
<use xlink:href="#f1_w" transform="matrix(10.4,0,0,10.4,222,282)" />
<use xlink:href="#f1_k" transform="matrix(10.4,0,0,10.4,238.1,282)" />
<use xlink:href="#f1_h" transform="matrix(10.4,0,0,10.4,247,282)" />
<use xlink:href="#f4_l" transform="matrix(12,0,0,12,652.1,1064.8)" />
<use xlink:href="#f4_n" transform="matrix(12,0,0,12,662.3,1064.8)" />
</g>
<g fill="#0080FF" fill-opacity="0.5" >
<use xlink:href="#f0_1c" transform="matrix(36.3,0,0,36.3,174,1062.6)" />
<use xlink:href="#f0_21" transform="matrix(36.3,0,0,36.3,204.8,1062.6)" />
<use xlink:href="#f0_1x" transform="matrix(36.3,0,0,36.3,235.7,1062.6)" />
<use xlink:href="#f0_2e" transform="matrix(36.3,0,0,36.3,266.5,1062.6)" />
<use xlink:href="#f0_2a" transform="matrix(36.3,0,0,36.3,284.9,1062.6)" />
<use xlink:href="#f0_17" transform="matrix(36.3,0,0,36.3,315.8,1062.6)" />
<use xlink:href="#f0_2h" transform="matrix(36.3,0,0,36.3,358.9,1062.6)" />
<use xlink:href="#f0_25" transform="matrix(36.3,0,0,36.3,389.7,1062.6)" />
<use xlink:href="#f0_20" transform="matrix(36.3,0,0,36.3,402,1062.6)" />
<use xlink:href="#f0_21" transform="matrix(36.3,0,0,36.3,432.8,1062.6)" />
<use xlink:href="#f0_i" transform="matrix(36.3,0,0,36.3,463.7,1062.6)" />
<use xlink:href="#f0_25" transform="matrix(36.3,0,0,36.3,479.1,1062.6)" />
<use xlink:href="#f0_2a" transform="matrix(36.3,0,0,36.3,491.4,1062.6)" />
</g>
<defs>
<path d="M593,101c0,0,182,0,279,112c0,0,98,113,98,318c0,0,0,196,-98,308c0,0,-98,112,-277,112c0,0,-181,0,-279,-110c0,0,-99,-111,-99,-310c0,0,0,-198,100,-314c0,0,99,-116,276,-116Zm0,-115c0,0,-162,0,-279,65c0,0,-118,66,-180,190c0,0,-62,124,-62,290c0,0,0,252,138,394c0,0,138,142,385,142c0,0,160,0,278,-64c0,0,118,-64,180,-185c0,0,62,-122,62,-287c0,0,0,-165,-63,-289c0,0,-63,-124,-181,-190c0,0,-118,-66,-278,-66Z" 
id="f0_1f"
transform="scale(0.001,-0.001)" />

<path d="M106,0V635c0,0,0,141,-5,173H228c0,0,1,-4,2,-21c0,0,1,-16,2,-37c0,0,1,-22,2,-81h2c0,0,47,84,108,119c0,0,60,34,151,34c0,0,132,0,194,-66c0,0,61,-66,61,-218V0H615V512c0,0,0,80,-15,124c0,0,-16,44,-50,63c0,0,-35,20,-101,20c0,0,-97,0,-153,-67c0,0,-56,-66,-56,-184V0Z" 
id="f0_2a"
transform="scale(0.001,-0.001)" />

<path d="M103,0V1107H237V0Z" 
id="f0_28"
transform="scale(0.001,-0.001)" />

<path d="M102,0V808H236V0Zm0,979v128H236V979Z" 
id="f0_25"
transform="scale(0.001,-0.001)" />

<path d="M643,478c0,0,-11,128,-65,187c0,0,-54,59,-154,59c0,0,-98,0,-155,-66c0,0,-57,-65,-62,-180ZM431,-14c0,0,-179,0,-272,106c0,0,-94,107,-94,317c0,0,0,200,94,307c0,0,93,106,267,106c0,0,356,0,356,-429V375H206c0,0,0,-138,57,-213c0,0,58,-75,168,-75c0,0,87,0,140,35c0,0,53,35,71,88L760,177c0,0,-72,-191,-329,-191Z" 
id="f0_21"
transform="scale(0.001,-0.001)" />

<path d="M17,0L304,415L31,808H179L380,493L580,808H730L457,417L747,0H598L380,331L162,0Z" 
id="f0_2k"
transform="scale(0.001,-0.001)" />

<path d="M339,87c0,0,74,0,132,34c0,0,57,33,90,91c0,0,34,59,34,121v66L448,396c0,0,-95,-2,-144,-19c0,0,-49,-18,-75,-55c0,0,-26,-38,-26,-98c0,0,0,-65,35,-101c0,0,36,-36,101,-36ZM309,-14c0,0,-122,0,-183,64c0,0,-61,64,-61,176c0,0,0,125,82,192c0,0,83,67,266,72l182,3v44c0,0,0,98,-42,141c0,0,-42,43,-132,43c0,0,-90,0,-131,-31c0,0,-41,-31,-49,-98L101,604c0,0,34,218,323,218c0,0,153,0,229,-70c0,0,77,-69,77,-202V202c0,0,0,-59,16,-90c0,0,16,-30,60,-30c0,0,19,0,44,5V4C850,4,799,-7,746,-7c0,0,-75,0,-109,38c0,0,-33,40,-38,124h-4C595,155,543,62,475,24c0,0,-68,-38,-166,-38Z" 
id="f0_1x"
transform="scale(0.001,-0.001)" />

<path d="M106,0V635c0,0,0,141,-5,173H228c0,0,1,-4,2,-21c0,0,1,-16,2,-37c0,0,1,-22,2,-81h2c0,0,44,86,100,120c0,0,56,33,136,33c0,0,92,0,145,-36c0,0,54,-37,75,-117h2c0,0,42,82,101,117c0,0,59,36,143,36c0,0,123,0,178,-66c0,0,56,-67,56,-218V0H1039V512c0,0,0,117,-32,162c0,0,-32,45,-116,45c0,0,-88,0,-136,-66c0,0,-49,-65,-49,-185V0H573V512c0,0,0,117,-32,162c0,0,-32,45,-116,45c0,0,-86,0,-136,-66c0,0,-50,-66,-50,-185V0Z" 
id="f0_29"
transform="scale(0.001,-0.001)" />

<path d="M453,84c0,0,100,0,146,74c0,0,46,73,46,247c0,0,0,169,-46,241c0,0,-45,73,-145,73c0,0,-80,0,-125,-34c0,0,-45,-34,-68,-105c0,0,-24,-71,-24,-186c0,0,0,-159,51,-234c0,0,51,-76,165,-76ZM103,-316V643c0,0,0,124,-5,165H228c0,0,1,-3,3,-22c0,0,1,-18,3,-56c0,0,2,-38,2,-52h3c0,0,36,75,94,110c0,0,59,34,156,34c0,0,149,0,223,-100c0,0,74,-100,74,-314c0,0,0,-422,-297,-422c0,0,-187,0,-251,140h-4c0,0,3,-6,3,-126V-316Z" 
id="f0_2c"
transform="scale(0.001,-0.001)" />

<path d="M420,84c0,0,121,0,173,78c0,0,52,77,52,243c0,0,0,167,-50,243c0,0,-50,76,-167,76c0,0,-118,0,-170,-78c0,0,-53,-77,-53,-241c0,0,0,-160,52,-241c0,0,52,-80,163,-80Zm1,-98c0,0,-176,0,-267,107c0,0,-90,108,-90,312c0,0,0,417,362,417c0,0,185,0,272,-102c0,0,88,-101,88,-315c0,0,0,-212,-94,-316C692,89,599,-14,421,-14Z" 
id="f0_2b"
transform="scale(0.001,-0.001)" />

<path d="M278,-11c0,0,-162,0,-162,182V710H23v98h99l39,181h90V808H400V710H251V200c0,0,0,-58,19,-82c0,0,19,-23,66,-23c0,0,27,0,77,10V6c0,0,-66,-17,-135,-17Z" 
id="f0_2g"
transform="scale(0.001,-0.001)" />

<path d="M212,0c0,0,51,270,162,500c0,0,109,222,281,422H57v131H799V934C799,934,623,726,515,498C515,498,408,269,362,0Z" 
id="f1_q"
transform="scale(0.001,-0.001)" />

<path d="M417,-28c0,0,-161,0,-259,79c0,0,-98,81,-109,223H189c0,0,11,-90,72,-139c0,0,61,-49,162,-49c0,0,96,0,158,68c0,0,61,68,61,175c0,0,0,112,-64,178c0,0,-64,66,-173,66c0,0,-59,0,-115,-28c0,0,-55,-29,-84,-73L93,480l77,573H727V922H271L225,629l4,3c0,0,89,60,188,60c0,0,169,0,269,-94c0,0,99,-93,99,-253c0,0,0,-165,-103,-269C682,76,579,-28,417,-28Z" 
id="f1_o"
transform="scale(0.001,-0.001)" />

<path d="M133,0V162H292V0Z" 
id="f1_h"
transform="scale(0.001,-0.001)" />

<path d="M406,0V763H155V870h2c16,0,114,2,178,48c0,0,70,51,104,157H549V0Z" 
id="f1_k"
transform="scale(0.001,-0.001)" />

<path d="M424,92c0,0,98,0,161,58c0,0,62,58,62,149c0,0,0,92,-62,151c0,0,-63,58,-161,58c0,0,-98,0,-160,-58c0,0,-63,-59,-63,-151c0,0,0,-91,63,-149c0,0,62,-58,160,-58Zm0,533c0,0,82,0,134,46c0,0,52,45,52,118c0,0,0,72,-52,118c0,0,-52,46,-134,46c0,0,-82,0,-134,-46c0,0,-52,-46,-52,-118c0,0,0,-73,52,-119c0,0,52,-45,134,-45Zm0,-653c0,0,-165,0,-265,90C159,62,59,154,59,305c0,0,0,134,100,216c0,0,35,28,78,47c0,0,-27,15,-52,33c0,0,-90,70,-90,185c0,0,0,130,90,209c0,0,91,80,239,80c0,0,148,0,238,-80c0,0,91,-79,91,-209c0,0,0,-115,-91,-185c0,0,-24,-19,-52,-32c0,0,44,-20,79,-49c0,0,101,-81,101,-215c0,0,0,-151,-101,-243c0,0,-100,-90,-265,-90Z" 
id="f1_r"
transform="scale(0.001,-0.001)" />

<path d="M419,483c0,0,93,0,152,66c0,0,59,66,59,169c0,0,0,103,-59,169c0,0,-59,65,-152,65c0,0,-94,0,-153,-65c0,0,-59,-66,-59,-169c0,0,0,-103,59,-169c0,0,59,-66,153,-66ZM397,-28c0,0,-143,0,-227,75c0,0,-85,77,-91,211H209c0,0,8,-83,57,-128c0,0,49,-45,131,-45c0,0,121,0,186,135c0,0,48,101,62,265C645,485,545,362,397,362c0,0,-150,0,-241,98c0,0,-91,98,-91,258c0,0,0,160,99,258c0,0,99,98,262,98c0,0,173,0,266,-123c0,0,94,-123,94,-349c0,0,0,-303,-101,-467C685,135,583,-28,397,-28Z" 
id="f1_s"
transform="scale(0.001,-0.001)" />

<path d="M424,-28c0,0,-180,0,-272,86c0,0,-92,87,-100,266H192c0,0,12,-126,66,-180c0,0,55,-54,170,-54c0,0,100,0,163,57c0,0,64,57,64,147c0,0,0,94,-61,149c0,0,-52,48,-135,54c0,0,-38,2,-72,2c0,0,-34,0,-45,-3V613c0,0,17,-3,51,-3c0,0,35,0,68,4c0,0,66,8,106,43c0,0,55,45,55,125c0,0,0,77,-58,125c0,0,-58,48,-148,48c0,0,-96,0,-147,-58c0,0,-51,-59,-56,-175H82c0,0,0,168,89,260c0,0,88,93,250,93c0,0,153,0,247,-77c0,0,94,-76,94,-202c0,0,0,-124,-95,-201c0,0,-18,-15,-39,-27c0,0,39,-17,69,-41c0,0,101,-79,101,-214c0,0,0,-151,-105,-246c0,0,-104,-95,-269,-95Z" 
id="f1_m"
transform="scale(0.001,-0.001)" />

<path d="M780,449L714,934L435,449ZM22,0L673,1097H839L998,0H839L797,318H359L178,0Z" 
id="f2_10"
transform="scale(0.001,-0.001)" />

<path d="M0,356v74H784V356Z" 
id="f3_h"
transform="scale(0.001,-0.001)" />

<path d="M0,-123V1415H525v-72H72V-123Z" 
id="f3_4r"
transform="scale(0.001,-0.001)" />

<path d="M478,-123V1343H26v72H550V-123Z" 
id="f3_57"
transform="scale(0.001,-0.001)" />

<path d="M0,214v74H784V214ZM0,494v72H784V494Z" 
id="f3_x"
transform="scale(0.001,-0.001)" />

<path d="M0,-123V1415H72V-123Z" 
id="f3_4s"
transform="scale(0.001,-0.001)" />

<path d="M0,-123V1415H72V-123Z" 
id="f3_58"
transform="scale(0.001,-0.001)" />

<path d="M0,-123V1415H72V-51H525v-72Z" 
id="f3_4t"
transform="scale(0.001,-0.001)" />

<path d="M26,-123v72H478V1415h72V-123Z" 
id="f3_59"
transform="scale(0.001,-0.001)" />

<path d="M511,373V863L169,383l-7,-10ZM511,0V258H38V383l496,691H646V373H799V258H646V0Z" 
id="f1_n"
transform="scale(0.001,-0.001)" />

<path d="M432,92c0,0,96,0,156,66c0,0,61,65,61,169c0,0,0,103,-61,169c0,0,-60,66,-156,66c0,0,-95,0,-156,-66c0,0,-61,-66,-61,-169c0,0,0,-104,61,-169c0,0,61,-66,156,-66ZM425,-28c0,0,-176,0,-271,135c0,0,-95,136,-95,388c0,0,0,278,103,429c0,0,103,151,293,151c0,0,142,0,226,-77c0,0,84,-76,90,-211H638c0,0,-8,80,-56,123c0,0,-47,43,-127,43c0,0,-125,0,-192,-119c0,0,-58,-102,-64,-278c0,0,100,127,255,127c0,0,152,0,245,-98c0,0,93,-98,93,-258c0,0,0,-161,-101,-259c0,0,-101,-96,-266,-96Z" 
id="f1_p"
transform="scale(0.001,-0.001)" />

<path d="M39,0V0c0,0,0,170,84,277c0,0,85,108,317,236c0,0,113,62,154,115c0,0,41,52,41,134c0,0,0,86,-62,141c0,0,-61,54,-156,54c0,0,-101,0,-158,-68c0,0,-57,-68,-60,-194H67c0,0,-2,178,95,279c0,0,98,101,273,101c0,0,149,0,245,-89c0,0,94,-88,94,-228c0,0,0,-118,-60,-195c0,0,-61,-76,-229,-169C485,394,303,294,237,212c0,0,-28,-36,-46,-81H774V0Z" 
id="f1_l"
transform="scale(0.001,-0.001)" />

<path d="M29,0L544,563L288,1098l94,-1l94,1L666,671l360,427l88,-1l89,1L727,555L987,0H803L610,453L212,0Z" 
id="f2_1n"
transform="scale(0.001,-0.001)" />

<path d="M424,92c0,0,114,0,170,107c0,0,57,108,56,323c0,0,1,216,-56,324c0,0,-56,107,-170,107c0,0,-112,0,-168,-107c0,0,-56,-108,-57,-324c0,0,1,-215,57,-323c0,0,56,-107,168,-107Zm0,-120c0,0,-176,0,-271,142c0,0,-96,143,-96,408c0,0,0,265,96,409c0,0,95,144,271,144c0,0,178,0,273,-144c0,0,96,-144,96,-409c0,0,0,-265,-96,-408c0,0,-95,-142,-273,-142Z" 
id="f1_j"
transform="scale(0.001,-0.001)" />

<path d="M17,0L389,412L201,800H376L500,518L742,800H904L554,410L750,0H580L448,303L187,0Z" 
id="f2_2j"
transform="scale(0.001,-0.001)" />

<path d="M60,174V286H832V174Zm0,309V595H832V483Z" 
id="f1_w"
transform="scale(0.001,-0.001)" />

<path d="M133,-224v71c0,0,47,8,65,52c0,0,14,33,17,101H133V163H292V27c0,0,0,-114,-36,-172c0,0,-37,-58,-123,-79Z" 
id="f1_f"
transform="scale(0.001,-0.001)" />

<path d="M99,-328c0,0,-46,0,-76,13l25,123c0,0,29,-14,81,-14c0,0,47,0,76,31c0,0,28,31,106,162L185,800H339L415,141L769,800H918L456,0C456,0,329,-216,269,-272c0,0,-61,-56,-170,-56Z" 
id="f2_2k"
transform="scale(0.001,-0.001)" />

<path d="M47,0L58,55l11,55L675,688H237l11,56l11,56H869L857,745L846,690L245,111H740L729,56L718,0Z" 
id="f2_2l"
transform="scale(0.001,-0.001)" />

<path d="M435,0V856c0,0,-48,-47,-127,-93c0,0,-79,-46,-142,-69V824c0,0,113,52,197,128c0,0,85,75,120,146h86V0Z" 
id="f4_l"
transform="scale(0.001,-0.001)" />

<path d="M412,-18c0,0,-144,0,-239,85c0,0,-95,86,-108,222l133,18c0,0,24,-114,79,-164c0,0,55,-50,135,-50c0,0,96,0,161,65c0,0,65,66,65,163c0,0,0,92,-61,152c0,0,-60,60,-153,60c0,0,-38,0,-95,-15l15,119c0,0,13,-2,21,-2c0,0,86,0,155,45c0,0,69,44,69,137c0,0,0,74,-50,122c0,0,-50,49,-129,49c0,0,-79,0,-131,-50c0,0,-52,-49,-67,-147L78,815c0,0,25,135,112,209c0,0,87,74,217,74c0,0,89,0,164,-38c0,0,76,-39,116,-105c0,0,40,-66,40,-141c0,0,0,-70,-39,-129c0,0,-38,-58,-112,-92c0,0,97,-22,151,-93c0,0,53,-70,53,-176c0,0,0,-143,-104,-243c0,0,-105,-99,-264,-99Z" 
id="f4_n"
transform="scale(0.001,-0.001)" />

<path d="M125,0V1051H268V115H799V0Z" 
id="f0_1c"
transform="scale(0.001,-0.001)" />

<path d="M106,0V620c0,0,0,85,-5,188H228c0,0,6,-138,6,-165h3c0,0,32,103,74,141c0,0,42,38,118,38c0,0,27,0,54,-7V692c0,0,-26,7,-71,7c0,0,-84,0,-128,-72c0,0,-44,-72,-44,-206V0Z" 
id="f0_2e"
transform="scale(0.001,-0.001)" />

<path d="M606,-14c0,0,-164,0,-284,65c0,0,-119,66,-182,189c0,0,-63,123,-63,291c0,0,0,255,137,396c0,0,137,140,386,140c0,0,174,0,283,-59c0,0,109,-59,168,-189L915,779c0,0,-44,90,-123,131c0,0,-79,41,-196,41c0,0,-182,0,-278,-110c0,0,-96,-110,-96,-310c0,0,0,-200,102,-315c0,0,102,-115,282,-115c0,0,103,0,193,31c0,0,89,31,144,85V407H629V526h445V164c0,0,-83,-85,-205,-132c0,0,-121,-46,-263,-46Z" 
id="f0_17"
transform="scale(0.001,-0.001)" />

<path d="M355,-14c0,0,-133,0,-194,65c0,0,-62,66,-62,219V808H234V296c0,0,0,-80,16,-124c0,0,16,-44,50,-64c0,0,34,-19,101,-19c0,0,97,0,153,66c0,0,55,67,55,185V808H744V172c0,0,0,-141,4,-172H621c0,0,0,4,-1,20c0,0,-1,17,-2,38c0,0,-1,21,-3,80h-2C613,138,567,55,506,20c0,0,-61,-34,-151,-34Z" 
id="f0_2h"
transform="scale(0.001,-0.001)" />

<path d="M395,89c0,0,115,0,166,79c0,0,51,79,51,246c0,0,0,160,-51,235c0,0,-51,75,-164,75c0,0,-102,0,-147,-75c0,0,-45,-75,-45,-244c0,0,0,-170,45,-243c0,0,45,-73,145,-73ZM361,-14c0,0,-153,0,-225,102c0,0,-72,103,-72,312c0,0,0,422,297,422c0,0,92,0,153,-33c0,0,61,-34,98,-107h2l-2,90v335H747V166c0,0,0,-126,4,-166H623c0,0,-2,12,-5,55c0,0,-3,44,-3,75h-3c0,0,-37,-78,-98,-111c0,0,-62,-33,-153,-33Z" 
id="f0_20"
transform="scale(0.001,-0.001)" />

<path d="M140,0V163H285V0Z" 
id="f0_i"
transform="scale(0.001,-0.001)" />


</defs>
</svg>