<?xml version="1.0" encoding="UTF-8" standalone="no"?>
<!DOCTYPE svg PUBLIC "-//W3C//DTD SVG 1.1//EN"
"http://www.w3.org/Graphics/SVG/1.1/DTD/svg11.dtd">
<svg viewBox="0 0 696 1067" version="1.1" xmlns="http://www.w3.org/2000/svg" xmlns:xlink="http://www.w3.org/1999/xlink">
<defs>
<style type="text/css"><![CDATA[
.g0_27{
fill: none;
stroke: #000000;
stroke-width: 0.76217777;
stroke-linecap: round;
stroke-linejoin: miter;
}
.g1_27{
fill: none;
stroke: #000000;
stroke-width: 0.7665778;
stroke-linecap: round;
stroke-linejoin: miter;
}
]]></style>
</defs>
<g fill="#D4D4D4" fill-opacity="0.56" >
<use xlink:href="#f0_1f" transform="matrix(50.9,-50.9,50.9,50.9,84.5,924.1)" />
<use xlink:href="#f0_2a" transform="matrix(50.9,-50.9,50.9,50.9,145,863.6)" />
<use xlink:href="#f0_28" transform="matrix(50.9,-50.9,50.9,50.9,188.3,820.3)" />
<use xlink:href="#f0_25" transform="matrix(50.9,-50.9,50.9,50.9,205.5,803.1)" />
<use xlink:href="#f0_2a" transform="matrix(50.9,-50.9,50.9,50.9,222.8,785.8)" />
<use xlink:href="#f0_21" transform="matrix(50.9,-50.9,50.9,50.9,266,742.5)" />
<use xlink:href="#f0_2k" transform="matrix(50.9,-50.9,50.9,50.9,309.3,699.3)" />
<use xlink:href="#f0_1x" transform="matrix(50.9,-50.9,50.9,50.9,348.2,660.4)" />
<use xlink:href="#f0_29" transform="matrix(50.9,-50.9,50.9,50.9,391.4,617.2)" />
<use xlink:href="#f0_2c" transform="matrix(50.9,-50.9,50.9,50.9,456.2,552.4)" />
<use xlink:href="#f0_2b" transform="matrix(50.9,-50.9,50.9,50.9,499.5,509.1)" />
<use xlink:href="#f0_25" transform="matrix(50.9,-50.9,50.9,50.9,542.7,465.9)" />
<use xlink:href="#f0_2a" transform="matrix(50.9,-50.9,50.9,50.9,560,448.6)" />
<use xlink:href="#f0_2g" transform="matrix(50.9,-50.9,50.9,50.9,603.2,405.4)" />
</g>
<g fill="#000000" >
<use xlink:href="#f1_l" transform="matrix(10.4,0,0,10.4,68.3,124.7)" />
<use xlink:href="#f1_o" transform="matrix(10.4,0,0,10.4,77.2,124.7)" />
<use xlink:href="#f1_h" transform="matrix(10.4,0,0,10.4,86.3,124.7)" />
<use xlink:href="#f1_18" transform="matrix(10.4,0,0,10.4,109,124.7)" />
<use xlink:href="#f1_21" transform="matrix(10.4,0,0,10.4,113.4,124.7)" />
<use xlink:href="#f1_f" transform="matrix(10.5,0,0,10.5,307.1,124)" />
<use xlink:href="#f1_k" transform="matrix(10.5,0,0,10.5,177.3,148.1)" />
<use xlink:href="#f1_k" transform="matrix(10.5,0,0,10.5,227.9,148.1)" />
<use xlink:href="#f1_k" transform="matrix(10.5,0,0,10.5,278.1,148.1)" />
<use xlink:href="#f2_f" transform="matrix(10.5,0,0,10.5,176.3,100)" />
<use xlink:href="#f2_f" transform="matrix(10.5,0,0,10.5,227.3,100)" />
<use xlink:href="#f2_f" transform="matrix(10.5,0,0,10.5,276.9,100)" />
<use xlink:href="#f2_4r" transform="matrix(10.5,0,0,10.5,156.5,101)" />
<use xlink:href="#f2_57" transform="matrix(10.5,0,0,10.5,300,101)" />
<use xlink:href="#f2_4s" transform="matrix(10.5,0,0,10.5,156.5,116.5)" />
<use xlink:href="#f2_58" transform="matrix(10.5,0,0,10.5,300,116.5)" />
<use xlink:href="#f2_x" transform="matrix(10.5,0,0,10.5,142.9,124)" />
<use xlink:href="#f2_4s" transform="matrix(10.5,0,0,10.5,156.5,131.7)" />
<use xlink:href="#f2_58" transform="matrix(10.5,0,0,10.5,300,131.7)" />
<use xlink:href="#f2_4s" transform="matrix(10.5,0,0,10.5,156.5,147)" />
<use xlink:href="#f2_58" transform="matrix(10.5,0,0,10.5,300,147)" />
<use xlink:href="#f2_4t" transform="matrix(10.5,0,0,10.5,156.5,151.6)" />
<use xlink:href="#f2_59" transform="matrix(10.5,0,0,10.5,300,151.6)" />
<use xlink:href="#f3_2j" transform="matrix(10.5,0,0,10.5,163.3,100)" />
<use xlink:href="#f3_2k" transform="matrix(10.5,0,0,10.5,188.8,100)" />
<use xlink:href="#f3_2k" transform="matrix(10.5,0,0,10.5,214.1,100)" />
<use xlink:href="#f3_2l" transform="matrix(10.5,0,0,10.5,239.6,100)" />
<use xlink:href="#f3_2l" transform="matrix(10.5,0,0,10.5,264.1,100)" />
<use xlink:href="#f3_2j" transform="matrix(10.5,0,0,10.5,289.4,100)" />
<use xlink:href="#f3_10" transform="matrix(10.5,0,0,10.5,127.5,124)" />
<use xlink:href="#f3_2l" transform="matrix(10.5,0,0,10.5,176.2,124)" />
<use xlink:href="#f3_2j" transform="matrix(10.5,0,0,10.5,226.7,124)" />
<use xlink:href="#f3_2k" transform="matrix(10.5,0,0,10.5,276.8,124)" />
<use xlink:href="#f1_2i" transform="matrix(10.4,0,0,10.4,320.8,124.7)" />
<use xlink:href="#f1_2d" transform="matrix(10.4,0,0,10.4,332.3,124.7)" />
<use xlink:href="#f1_24" transform="matrix(10.4,0,0,10.4,337.6,124.7)" />
<use xlink:href="#f1_2f" transform="matrix(10.4,0,0,10.4,341.1,124.7)" />
<use xlink:href="#f1_20" transform="matrix(10.4,0,0,10.4,345.6,124.7)" />
<use xlink:href="#f1_2f" transform="matrix(10.4,0,0,10.4,361.4,124.7)" />
<use xlink:href="#f1_23" transform="matrix(10.4,0,0,10.4,365.8,124.7)" />
<use xlink:href="#f1_20" transform="matrix(10.4,0,0,10.4,374.7,124.7)" />
<use xlink:href="#f1_2h" transform="matrix(10.4,0,0,10.4,390.5,124.7)" />
<use xlink:href="#f1_1w" transform="matrix(10.4,0,0,10.4,398.5,124.7)" />
<use xlink:href="#f1_27" transform="matrix(10.4,0,0,10.4,407.4,124.7)" />
<use xlink:href="#f1_2g" transform="matrix(10.4,0,0,10.4,410.9,124.7)" />
<use xlink:href="#f1_20" transform="matrix(10.4,0,0,10.4,419.8,124.7)" />
<use xlink:href="#f1_2a" transform="matrix(10.4,0,0,10.4,435.6,124.7)" />
<use xlink:href="#f1_21" transform="matrix(10.4,0,0,10.4,444.5,124.7)" />
<use xlink:href="#f1_1z" transform="matrix(10.4,0,0,10.4,455.9,124.7)" />
<use xlink:href="#f1_20" transform="matrix(10.4,0,0,10.4,464.8,124.7)" />
<use xlink:href="#f1_2f" transform="matrix(10.4,0,0,10.4,473.6,124.7)" />
<use xlink:href="#f3_10" transform="matrix(10.4,0,0,10.4,484.3,124.7)" />
<use xlink:href="#f3_h" transform="matrix(10.4,0,0,10.4,494.9,124.7)" />
<use xlink:href="#f1_l" transform="matrix(10.4,0,0,10.4,68.3,212.2)" />
<use xlink:href="#f1_p" transform="matrix(10.4,0,0,10.4,77.2,212.2)" />
<use xlink:href="#f1_h" transform="matrix(10.4,0,0,10.4,86.3,212.2)" />
<use xlink:href="#f1_18" transform="matrix(10.4,0,0,10.4,109,208)" />
<use xlink:href="#f1_21" transform="matrix(10.4,0,0,10.4,113.4,208)" />
<use xlink:href="#f1_k" transform="matrix(7,0,0,7,170.4,199.5)" />
<use xlink:href="#f1_k" transform="matrix(7,0,0,7,176.3,199.5)" />
<use xlink:href="#f1_k" transform="matrix(7,0,0,7,205.5,199.5)" />
<use xlink:href="#f1_l" transform="matrix(7,0,0,7,211.4,199.5)" />
<use xlink:href="#f1_l" transform="matrix(7,0,0,7,170.8,223.5)" />
<use xlink:href="#f1_k" transform="matrix(7,0,0,7,176.7,223.5)" />
<use xlink:href="#f1_l" transform="matrix(7,0,0,7,205.9,223.5)" />
<use xlink:href="#f1_l" transform="matrix(7,0,0,7,211.8,223.5)" />
<use xlink:href="#f3_1w" transform="matrix(10.4,0,0,10.5,162.5,195.2)" />
<use xlink:href="#f3_1w" transform="matrix(10.4,0,0,10.5,197.7,195.2)" />
<use xlink:href="#f3_10" transform="matrix(10.4,0,0,10.5,126.9,207.3)" />
<use xlink:href="#f3_1w" transform="matrix(10.4,0,0,10.5,162.1,219.2)" />
<use xlink:href="#f3_1w" transform="matrix(10.4,0,0,10.5,197.2,219.2)" />
<use xlink:href="#f2_4r" transform="matrix(10.4,0,0,10.5,156.1,196.2)" />
<use xlink:href="#f2_57" transform="matrix(10.4,0,0,10.5,220.1,196.2)" />
<use xlink:href="#f2_x" transform="matrix(10.4,0,0,10.5,142.2,207.3)" />
<use xlink:href="#f2_4s" transform="matrix(10.4,0,0,10.5,156.1,211.7)" />
<use xlink:href="#f2_58" transform="matrix(10.4,0,0,10.5,220.1,211.7)" />
<use xlink:href="#f2_4t" transform="matrix(10.4,0,0,10.5,156.1,223.5)" />
<use xlink:href="#f2_59" transform="matrix(10.4,0,0,10.5,220.1,223.5)" />
<use xlink:href="#f1_2e" transform="matrix(10.4,0,0,10.4,236.8,208)" />
<use xlink:href="#f1_2g" transform="matrix(10.4,0,0,10.4,244.8,208)" />
<use xlink:href="#f1_1y" transform="matrix(10.4,0,0,10.4,253.6,208)" />
<use xlink:href="#f1_23" transform="matrix(10.4,0,0,10.4,261.6,208)" />
<use xlink:href="#f1_2f" transform="matrix(10.4,0,0,10.4,276.9,208)" />
<use xlink:href="#f1_23" transform="matrix(10.4,0,0,10.4,281.3,208)" />
<use xlink:href="#f1_1w" transform="matrix(10.4,0,0,10.4,290.2,208)" />
<use xlink:href="#f1_2f" transform="matrix(10.4,0,0,10.4,299.1,208)" />
<use xlink:href="#f1_2n" transform="matrix(10.4,0,0,10.4,309.7,208)" />
<use xlink:href="#f3_10" transform="matrix(10.4,0,0,10.4,313.8,208)" />
<use xlink:href="#f1_2n" transform="matrix(10.4,0,0,10.4,324.4,208)" />
<use xlink:href="#f3_w" transform="matrix(10.4,0,0,10.4,335.1,208)" />
<use xlink:href="#f3_99" transform="matrix(10.4,0,0,10.4,350.6,208)" />
<use xlink:href="#f1_k" transform="matrix(10.4,0,0,10.4,365.9,208)" />
<use xlink:href="#f1_o" transform="matrix(10.4,0,0,10.4,374.7,208)" />
<use xlink:href="#f1_f" transform="matrix(10.4,0,0,10.4,383.6,208)" />
<use xlink:href="#f1_21" transform="matrix(10.4,0,0,10.4,394.3,208)" />
<use xlink:href="#f1_24" transform="matrix(10.4,0,0,10.4,398.7,208)" />
<use xlink:href="#f1_29" transform="matrix(10.4,0,0,10.4,402.2,208)" />
<use xlink:href="#f1_1z" transform="matrix(10.4,0,0,10.4,411.1,208)" />
<use xlink:href="#f3_1w" transform="matrix(10.4,0,0,10.4,426,208)" />
<use xlink:href="#f1_k" transform="matrix(7.4,0,0,7.4,434.8,213.3)" />
<use xlink:href="#f1_k" transform="matrix(7.4,0,0,7.4,441.1,213.3)" />
<use xlink:href="#f3_12" transform="matrix(10.4,0,0,10.4,451.7,208)" />
<use xlink:href="#f1_l" transform="matrix(7.4,0,0,7.4,463.2,213.3)" />
<use xlink:href="#f1_k" transform="matrix(7.4,0,0,7.4,469.5,213.3)" />
<use xlink:href="#f1_e" transform="matrix(10.4,0,0,10.4,481.9,208)" />
<use xlink:href="#f3_1w" transform="matrix(10.4,0,0,10.4,497.7,208)" />
<use xlink:href="#f1_k" transform="matrix(7.4,0,0,7.4,506.5,213.3)" />
<use xlink:href="#f1_l" transform="matrix(7.4,0,0,7.4,512.8,213.3)" />
<use xlink:href="#f3_12" transform="matrix(10.4,0,0,10.4,518.9,208)" />
<use xlink:href="#f1_l" transform="matrix(7.4,0,0,7.4,530.5,213.3)" />
<use xlink:href="#f1_l" transform="matrix(7.4,0,0,7.4,536.8,213.3)" />
<use xlink:href="#f1_2i" transform="matrix(10.4,0,0,10.4,549.2,208)" />
<use xlink:href="#f1_23" transform="matrix(10.4,0,0,10.4,560.7,208)" />
<use xlink:href="#f1_20" transform="matrix(10.4,0,0,10.4,569.6,208)" />
<use xlink:href="#f1_2d" transform="matrix(10.4,0,0,10.4,578.4,208)" />
<use xlink:href="#f1_20" transform="matrix(10.4,0,0,10.4,583.8,208)" />
<use xlink:href="#f3_12" transform="matrix(10.4,0,0,10.4,598.9,208)" />
<use xlink:href="#f3_24" transform="matrix(7.4,0,0,7.4,610.4,213.3)" />
<use xlink:href="#f3_25" transform="matrix(7.4,0,0,7.4,613,213.3)" />
<use xlink:href="#f1_24" transform="matrix(10.4,0,0,10.4,622,208)" />
<use xlink:href="#f1_2e" transform="matrix(10.4,0,0,10.4,625.5,208)" />
<use xlink:href="#f1_1y" transform="matrix(10.4,0,0,10.4,109,238.6)" />
<use xlink:href="#f1_2a" transform="matrix(10.4,0,0,10.4,117,238.6)" />
<use xlink:href="#f1_21" transform="matrix(10.4,0,0,10.4,125.9,238.6)" />
<use xlink:href="#f1_1w" transform="matrix(10.4,0,0,10.4,130.3,238.6)" />
<use xlink:href="#f1_1y" transform="matrix(10.4,0,0,10.4,139.2,238.6)" />
<use xlink:href="#f1_2f" transform="matrix(10.4,0,0,10.4,147.1,238.6)" />
<use xlink:href="#f1_2a" transform="matrix(10.4,0,0,10.4,151.6,238.6)" />
<use xlink:href="#f1_2d" transform="matrix(10.4,0,0,10.4,160.4,238.6)" />
<use xlink:href="#f1_2e" transform="matrix(10.4,0,0,10.4,165.7,238.6)" />
<use xlink:href="#f1_2a" transform="matrix(10.4,0,0,10.4,180.5,238.6)" />
<use xlink:href="#f1_21" transform="matrix(10.4,0,0,10.4,189.4,238.6)" />
<use xlink:href="#f3_1w" transform="matrix(10.4,0,0,10.4,200.7,238.6)" />
<use xlink:href="#f3_24" transform="matrix(7.4,0,0,7.4,209.5,243.9)" />
<use xlink:href="#f3_25" transform="matrix(7.4,0,0,7.4,212,243.9)" />
<use xlink:href="#f1_24" transform="matrix(10.4,0,0,10.4,221.4,238.6)" />
<use xlink:href="#f1_29" transform="matrix(10.4,0,0,10.4,224.9,238.6)" />
<use xlink:href="#f3_10" transform="matrix(10.4,0,0,10.4,247.6,238.6)" />
<use xlink:href="#f1_w" transform="matrix(10.4,0,0,10.4,265.2,238.6)" />
<use xlink:href="#f1_1q" transform="matrix(10.4,0,0,10.4,281.5,238.6)" />
<use xlink:href="#f3_1w" transform="matrix(10.4,0,0,10.4,285.9,238.6)" />
<use xlink:href="#f3_24" transform="matrix(7.4,0,0,7.4,294.7,243.9)" />
<use xlink:href="#f3_25" transform="matrix(7.4,0,0,7.4,297.3,243.9)" />
<use xlink:href="#f1_1s" transform="matrix(10.4,0,0,10.4,299.9,238.6)" />
<use xlink:href="#f1_h" transform="matrix(10.4,0,0,10.4,304.3,238.6)" />
<use xlink:href="#f1_l" transform="matrix(10.4,0,0,10.4,68.3,272.5)" />
<use xlink:href="#f1_q" transform="matrix(10.4,0,0,10.4,77.2,272.5)" />
<use xlink:href="#f1_h" transform="matrix(10.4,0,0,10.4,86.3,272.5)" />
<use xlink:href="#f1_18" transform="matrix(10.4,0,0,10.4,109,272.5)" />
<use xlink:href="#f1_21" transform="matrix(10.4,0,0,10.4,113.4,272.5)" />
<use xlink:href="#f3_10" transform="matrix(10.4,0,0,10.4,124.8,272.5)" />
<use xlink:href="#f1_24" transform="matrix(10.4,0,0,10.4,142.4,272.5)" />
<use xlink:href="#f1_2e" transform="matrix(10.4,0,0,10.4,145.9,272.5)" />
<use xlink:href="#f1_1w" transform="matrix(10.4,0,0,10.4,160.9,272.5)" />
<use xlink:href="#f1_29" transform="matrix(10.4,0,0,10.4,176.7,272.5)" />
<use xlink:href="#f1_2a" transform="matrix(10.4,0,0,10.4,185.6,272.5)" />
<use xlink:href="#f1_29" transform="matrix(10.4,0,0,10.4,194.4,272.5)" />
<use xlink:href="#f1_g" transform="matrix(10.4,0,0,10.4,203.3,272.5)" />
<use xlink:href="#f1_2e" transform="matrix(10.4,0,0,10.4,208.6,272.5)" />
<use xlink:href="#f1_24" transform="matrix(10.4,0,0,10.4,216.6,272.5)" />
<use xlink:href="#f1_29" transform="matrix(10.4,0,0,10.4,220.1,272.5)" />
<use xlink:href="#f1_22" transform="matrix(10.4,0,0,10.4,229,272.5)" />
<use xlink:href="#f1_2g" transform="matrix(10.4,0,0,10.4,237.9,272.5)" />
<use xlink:href="#f1_27" transform="matrix(10.4,0,0,10.4,246.7,272.5)" />
<use xlink:href="#f1_1w" transform="matrix(10.4,0,0,10.4,250.3,272.5)" />
<use xlink:href="#f1_2d" transform="matrix(10.4,0,0,10.4,259.2,272.5)" />
<use xlink:href="#f1_28" transform="matrix(10.4,0,0,10.4,271.4,272.5)" />
<use xlink:href="#f1_1w" transform="matrix(10.4,0,0,10.4,284.7,272.5)" />
<use xlink:href="#f1_2f" transform="matrix(10.4,0,0,10.4,293.6,272.5)" />
<use xlink:href="#f1_2d" transform="matrix(10.4,0,0,10.4,298,272.5)" />
<use xlink:href="#f1_24" transform="matrix(10.4,0,0,10.4,303.3,272.5)" />
<use xlink:href="#f1_2j" transform="matrix(10.4,0,0,10.4,306.9,272.5)" />
<use xlink:href="#f1_2a" transform="matrix(10.4,0,0,10.4,322,272.5)" />
<use xlink:href="#f1_21" transform="matrix(10.4,0,0,10.4,330.9,272.5)" />
<use xlink:href="#f1_2a" transform="matrix(10.4,0,0,10.4,342.3,272.5)" />
<use xlink:href="#f1_2d" transform="matrix(10.4,0,0,10.4,351.1,272.5)" />
<use xlink:href="#f1_1z" transform="matrix(10.4,0,0,10.4,356.5,272.5)" />
<use xlink:href="#f1_20" transform="matrix(10.4,0,0,10.4,365.3,272.5)" />
<use xlink:href="#f1_2d" transform="matrix(10.4,0,0,10.4,374.2,272.5)" />
<use xlink:href="#f1_m" transform="matrix(10.4,0,0,10.4,386.5,272.5)" />
<use xlink:href="#f1_1w" transform="matrix(10.4,0,0,10.4,402.3,272.5)" />
<use xlink:href="#f1_29" transform="matrix(10.4,0,0,10.4,411.2,272.5)" />
<use xlink:href="#f1_1z" transform="matrix(10.4,0,0,10.4,420,272.5)" />
<use xlink:href="#f1_2n" transform="matrix(10.4,0,0,10.4,435.9,272.5)" />
<use xlink:href="#f3_10" transform="matrix(10.4,0,0,10.4,438.8,272.5)" />
<use xlink:href="#f1_2n" transform="matrix(10.4,0,0,10.4,449.5,272.5)" />
<use xlink:href="#f1_w" transform="matrix(10.4,0,0,10.4,460.6,272.5)" />
<use xlink:href="#f1_99" transform="matrix(10.4,0,0,10.4,476.9,272.5)" />
<use xlink:href="#f1_m" transform="matrix(10.4,0,0,10.4,492.7,272.5)" />
<use xlink:href="#f1_21" transform="matrix(10.4,0,0,10.4,508.5,272.5)" />
<use xlink:href="#f1_24" transform="matrix(10.4,0,0,10.4,513,272.5)" />
<use xlink:href="#f1_29" transform="matrix(10.4,0,0,10.4,516.5,272.5)" />
<use xlink:href="#f1_1z" transform="matrix(10.4,0,0,10.4,525.4,272.5)" />
<use xlink:href="#f1_2n" transform="matrix(10.4,0,0,10.4,541.2,272.5)" />
<use xlink:href="#f3_1w" transform="matrix(10.4,0,0,10.4,545.2,272.5)" />
<use xlink:href="#f3_1z" transform="matrix(10.4,0,0,10.4,554,272.5)" />
<use xlink:href="#f3_25" transform="matrix(10.4,0,0,10.4,562.9,272.5)" />
<use xlink:href="#f3_10" transform="matrix(10.4,0,0,10.4,573.4,272.5)" />
<use xlink:href="#f1_2n" transform="matrix(10.4,0,0,10.4,584,272.5)" />
<use xlink:href="#f1_h" transform="matrix(10.4,0,0,10.4,588.2,272.5)" />
<use xlink:href="#f1_l" transform="matrix(10.4,0,0,10.4,68.3,325.7)" />
<use xlink:href="#f1_r" transform="matrix(10.4,0,0,10.4,77.2,325.7)" />
<use xlink:href="#f1_h" transform="matrix(10.4,0,0,10.4,86.3,325.7)" />
<use xlink:href="#f1_18" transform="matrix(10.4,0,0,10.4,109,325.7)" />
<use xlink:href="#f1_21" transform="matrix(10.4,0,0,10.4,113.4,325.7)" />
<use xlink:href="#f2_c" transform="matrix(10.5,0,0,14.1,255.8,329.3)" />
<use xlink:href="#f2_d" transform="matrix(10.5,0,0,14.1,300.6,329.3)" />
<use xlink:href="#f2_h" transform="matrix(10.5,0,0,10.5,187,316.9)" />
<use xlink:href="#f2_4r" transform="matrix(10.5,0,0,10.5,156.3,317.9)" />
<use xlink:href="#f2_57" transform="matrix(10.5,0,0,10.5,205.4,317.9)" />
<use xlink:href="#f2_x" transform="matrix(10.5,0,0,10.5,142.7,328.7)" />
<use xlink:href="#f2_4s" transform="matrix(10.5,0,0,10.5,156.3,333.4)" />
<use xlink:href="#f2_58" transform="matrix(10.5,0,0,10.5,205.4,333.4)" />
<use xlink:href="#f2_4t" transform="matrix(10.5,0,0,10.5,156.3,344.4)" />
<use xlink:href="#f2_59" transform="matrix(10.5,0,0,10.5,205.4,344.4)" />
<use xlink:href="#f1_o" transform="matrix(10.5,0,0,10.5,162.9,316.9)" />
<use xlink:href="#f1_m" transform="matrix(10.5,0,0,10.5,195.8,316.9)" />
<use xlink:href="#f1_21" transform="matrix(10.5,0,0,10.5,221.2,328.7)" />
<use xlink:href="#f1_24" transform="matrix(10.5,0,0,10.5,225.7,328.7)" />
<use xlink:href="#f1_29" transform="matrix(10.5,0,0,10.5,229.3,328.7)" />
<use xlink:href="#f1_1z" transform="matrix(10.5,0,0,10.5,238.2,328.7)" />
<use xlink:href="#f1_p" transform="matrix(10.5,0,0,10.5,162.9,341)" />
<use xlink:href="#f1_r" transform="matrix(10.5,0,0,10.5,191.3,341)" />
<use xlink:href="#f3_10" transform="matrix(10.5,0,0,10.5,127.2,328.7)" />
<use xlink:href="#f3_1w" transform="matrix(10.5,0,0,10.5,261,328.7)" />
<use xlink:href="#f3_1z" transform="matrix(10.5,0,0,10.5,269.9,328.7)" />
<use xlink:href="#f3_25" transform="matrix(10.5,0,0,10.5,278.9,328.7)" />
<use xlink:href="#f3_10" transform="matrix(10.5,0,0,10.5,288.8,328.7)" />
<use xlink:href="#f1_l" transform="matrix(10.4,0,0,10.4,68.3,369.1)" />
<use xlink:href="#f1_s" transform="matrix(10.4,0,0,10.4,77.2,369.1)" />
<use xlink:href="#f1_h" transform="matrix(10.4,0,0,10.4,86.3,369.1)" />
<use xlink:href="#f1_16" transform="matrix(10.4,0,0,10.4,109,369.1)" />
<use xlink:href="#f1_24" transform="matrix(10.4,0,0,10.4,121.4,369.1)" />
<use xlink:href="#f1_2h" transform="matrix(10.4,0,0,10.4,125,369.1)" />
<use xlink:href="#f1_20" transform="matrix(10.4,0,0,10.4,132.9,369.1)" />
<use xlink:href="#f1_29" transform="matrix(10.4,0,0,10.4,141.8,369.1)" />
<use xlink:href="#f1_1w" transform="matrix(10.4,0,0,10.4,156.7,369.1)" />
<use xlink:href="#f1_2e" transform="matrix(10.4,0,0,10.4,171.6,369.1)" />
<use xlink:href="#f1_2c" transform="matrix(10.4,0,0,10.4,179.6,369.1)" />
<use xlink:href="#f1_2g" transform="matrix(10.4,0,0,10.4,188.5,369.1)" />
<use xlink:href="#f1_1w" transform="matrix(10.4,0,0,10.4,197.3,369.1)" />
<use xlink:href="#f1_2d" transform="matrix(10.4,0,0,10.4,206.2,369.1)" />
<use xlink:href="#f1_20" transform="matrix(10.4,0,0,10.4,211.5,369.1)" />
<use xlink:href="#f1_28" transform="matrix(10.4,0,0,10.4,226.4,369.1)" />
<use xlink:href="#f1_1w" transform="matrix(10.4,0,0,10.4,239.7,369.1)" />
<use xlink:href="#f1_2f" transform="matrix(10.4,0,0,10.4,248.6,369.1)" />
<use xlink:href="#f1_2d" transform="matrix(10.4,0,0,10.4,253,369.1)" />
<use xlink:href="#f1_24" transform="matrix(10.4,0,0,10.4,258.3,369.1)" />
<use xlink:href="#f1_2j" transform="matrix(10.4,0,0,10.4,261.9,369.1)" />
<use xlink:href="#f3_10" transform="matrix(10.4,0,0,10.4,275.5,369.1)" />
<use xlink:href="#f1_2a" transform="matrix(10.4,0,0,10.4,292.2,369.1)" />
<use xlink:href="#f1_21" transform="matrix(10.4,0,0,10.4,301,369.1)" />
<use xlink:href="#f1_2a" transform="matrix(10.4,0,0,10.4,311.5,369.1)" />
<use xlink:href="#f1_2d" transform="matrix(10.4,0,0,10.4,320.4,369.1)" />
<use xlink:href="#f1_1z" transform="matrix(10.4,0,0,10.4,325.7,369.1)" />
<use xlink:href="#f1_20" transform="matrix(10.4,0,0,10.4,334.6,369.1)" />
<use xlink:href="#f1_2d" transform="matrix(10.4,0,0,10.4,343.4,369.1)" />
<use xlink:href="#f1_m" transform="matrix(10.4,0,0,10.4,354.8,369.1)" />
<use xlink:href="#f1_4r" transform="matrix(10.4,0,0,10.4,369.7,369.1)" />
<use xlink:href="#f1_m" transform="matrix(10.4,0,0,10.4,385.1,369.1)" />
<use xlink:href="#f1_2e" transform="matrix(10.4,0,0,10.4,400,369.1)" />
<use xlink:href="#f1_2g" transform="matrix(10.4,0,0,10.4,407.9,369.1)" />
<use xlink:href="#f1_1y" transform="matrix(10.4,0,0,10.4,416.8,369.1)" />
<use xlink:href="#f1_23" transform="matrix(10.4,0,0,10.4,424.8,369.1)" />
<use xlink:href="#f1_2f" transform="matrix(10.4,0,0,10.4,439.7,369.1)" />
<use xlink:href="#f1_23" transform="matrix(10.4,0,0,10.4,444.1,369.1)" />
<use xlink:href="#f1_1w" transform="matrix(10.4,0,0,10.4,453,369.1)" />
<use xlink:href="#f1_2f" transform="matrix(10.4,0,0,10.4,461.9,369.1)" />
<use xlink:href="#f1_2n" transform="matrix(10.4,0,0,10.4,472.3,369.1)" />
<use xlink:href="#f3_10" transform="matrix(10.4,0,0,10.4,476,369.1)" />
<use xlink:href="#f1_2n" transform="matrix(10.4,0,0,10.4,486.7,369.1)" />
<use xlink:href="#f1_w" transform="matrix(10.4,0,0,10.4,496.9,369.1)" />
<use xlink:href="#f1_k" transform="matrix(10.4,0,0,10.4,512.2,369.1)" />
<use xlink:href="#f1_l" transform="matrix(10.4,0,0,10.4,521.1,369.1)" />
<use xlink:href="#f1_21" transform="matrix(10.4,0,0,10.4,536,369.1)" />
<use xlink:href="#f1_24" transform="matrix(10.4,0,0,10.4,540.4,369.1)" />
<use xlink:href="#f1_29" transform="matrix(10.4,0,0,10.4,544,369.1)" />
<use xlink:href="#f1_1z" transform="matrix(10.4,0,0,10.4,552.9,369.1)" />
<use xlink:href="#f1_2f" transform="matrix(10.4,0,0,10.4,567.8,369.1)" />
<use xlink:href="#f1_23" transform="matrix(10.4,0,0,10.4,572.2,369.1)" />
<use xlink:href="#f1_20" transform="matrix(10.4,0,0,10.4,581.1,369.1)" />
<use xlink:href="#f1_2h" transform="matrix(10.4,0,0,10.4,596,369.1)" />
<use xlink:href="#f1_1w" transform="matrix(10.4,0,0,10.4,604,369.1)" />
<use xlink:href="#f1_27" transform="matrix(10.4,0,0,10.4,612.8,369.1)" />
<use xlink:href="#f1_2g" transform="matrix(10.4,0,0,10.4,616.4,369.1)" />
<use xlink:href="#f1_20" transform="matrix(10.4,0,0,10.4,625.2,369.1)" />
<use xlink:href="#f1_2a" transform="matrix(10.4,0,0,10.4,109,389.3)" />
<use xlink:href="#f1_21" transform="matrix(10.4,0,0,10.4,117.9,389.3)" />
<use xlink:href="#f1_2n" transform="matrix(10.4,0,0,10.4,129.1,389.3)" />
<use xlink:href="#f3_10" transform="matrix(10.4,0,0,10.4,133.2,389.3)" />
<use xlink:href="#f3_1w" transform="matrix(10.4,0,0,10.4,150.6,389.3)" />
<use xlink:href="#f3_1z" transform="matrix(10.4,0,0,10.4,159.5,389.3)" />
<use xlink:href="#f3_25" transform="matrix(10.4,0,0,10.4,168.4,389.3)" />
<use xlink:href="#f3_10" transform="matrix(10.4,0,0,10.4,178.9,389.3)" />
<use xlink:href="#f1_2n" transform="matrix(10.4,0,0,10.4,189.3,389.3)" />
<use xlink:href="#f1_h" transform="matrix(10.4,0,0,10.4,193.5,389.3)" />
<use xlink:href="#f1_m" transform="matrix(10.4,0,0,10.4,68.3,423.2)" />
<use xlink:href="#f1_j" transform="matrix(10.4,0,0,10.4,77.2,423.2)" />
<use xlink:href="#f1_h" transform="matrix(10.4,0,0,10.4,86.3,423.2)" />
<use xlink:href="#f1_18" transform="matrix(10.4,0,0,10.4,109,423.2)" />
<use xlink:href="#f1_21" transform="matrix(10.4,0,0,10.4,113.4,423.2)" />
<use xlink:href="#f3_10" transform="matrix(10.4,0,0,10.4,124.6,423.2)" />
<use xlink:href="#f1_24" transform="matrix(10.4,0,0,10.4,142.2,423.2)" />
<use xlink:href="#f1_2e" transform="matrix(10.4,0,0,10.4,145.7,423.2)" />
<use xlink:href="#f1_1w" transform="matrix(10.4,0,0,10.4,160.7,423.2)" />
<use xlink:href="#f1_2e" transform="matrix(10.4,0,0,10.4,176.5,423.2)" />
<use xlink:href="#f1_2c" transform="matrix(10.4,0,0,10.4,184.5,423.2)" />
<use xlink:href="#f1_2g" transform="matrix(10.4,0,0,10.4,193.4,423.2)" />
<use xlink:href="#f1_1w" transform="matrix(10.4,0,0,10.4,202.2,423.2)" />
<use xlink:href="#f1_2d" transform="matrix(10.4,0,0,10.4,211.1,423.2)" />
<use xlink:href="#f1_20" transform="matrix(10.4,0,0,10.4,216.4,423.2)" />
<use xlink:href="#f1_28" transform="matrix(10.4,0,0,10.4,232.3,423.2)" />
<use xlink:href="#f1_1w" transform="matrix(10.4,0,0,10.4,245.5,423.2)" />
<use xlink:href="#f1_2f" transform="matrix(10.4,0,0,10.4,254.4,423.2)" />
<use xlink:href="#f1_2d" transform="matrix(10.4,0,0,10.4,258.8,423.2)" />
<use xlink:href="#f1_24" transform="matrix(10.4,0,0,10.4,264.2,423.2)" />
<use xlink:href="#f1_2j" transform="matrix(10.4,0,0,10.4,267.7,423.2)" />
<use xlink:href="#f1_2a" transform="matrix(10.4,0,0,10.4,282.6,423.2)" />
<use xlink:href="#f1_21" transform="matrix(10.4,0,0,10.4,291.5,423.2)" />
<use xlink:href="#f1_2a" transform="matrix(10.4,0,0,10.4,302.9,423.2)" />
<use xlink:href="#f1_2d" transform="matrix(10.4,0,0,10.4,311.8,423.2)" />
<use xlink:href="#f1_1z" transform="matrix(10.4,0,0,10.4,317.1,423.2)" />
<use xlink:href="#f1_20" transform="matrix(10.4,0,0,10.4,326,423.2)" />
<use xlink:href="#f1_2d" transform="matrix(10.4,0,0,10.4,334.8,423.2)" />
<use xlink:href="#f1_m" transform="matrix(10.4,0,0,10.4,347.1,423.2)" />
<use xlink:href="#f1_2e" transform="matrix(10.4,0,0,10.4,363,423.2)" />
<use xlink:href="#f1_2g" transform="matrix(10.4,0,0,10.4,370.9,423.2)" />
<use xlink:href="#f1_1y" transform="matrix(10.4,0,0,10.4,379.8,423.2)" />
<use xlink:href="#f1_23" transform="matrix(10.4,0,0,10.4,387.8,423.2)" />
<use xlink:href="#f1_2f" transform="matrix(10.4,0,0,10.4,403.6,423.2)" />
<use xlink:href="#f1_23" transform="matrix(10.4,0,0,10.4,408,423.2)" />
<use xlink:href="#f1_1w" transform="matrix(10.4,0,0,10.4,416.9,423.2)" />
<use xlink:href="#f1_2f" transform="matrix(10.4,0,0,10.4,425.8,423.2)" />
<use xlink:href="#f1_2n" transform="matrix(10.4,0,0,10.4,437.2,423.2)" />
<use xlink:href="#f3_1w" transform="matrix(10.4,0,0,10.4,440.5,423.2)" />
<use xlink:href="#f3_1z" transform="matrix(10.4,0,0,10.4,449.3,423.2)" />
<use xlink:href="#f3_25" transform="matrix(10.4,0,0,10.4,458.2,423.2)" />
<use xlink:href="#f3_10" transform="matrix(10.4,0,0,10.4,468.7,423.2)" />
<use xlink:href="#f1_2n" transform="matrix(10.4,0,0,10.4,479.2,423.2)" />
<use xlink:href="#f1_w" transform="matrix(10.4,0,0,10.4,490.3,423.2)" />
<use xlink:href="#f1_r" transform="matrix(10.4,0,0,10.4,506.6,423.2)" />
<use xlink:href="#f1_21" transform="matrix(10.4,0,0,10.4,522.4,423.2)" />
<use xlink:href="#f1_24" transform="matrix(10.4,0,0,10.4,526.8,423.2)" />
<use xlink:href="#f1_29" transform="matrix(10.4,0,0,10.4,530.4,423.2)" />
<use xlink:href="#f1_1z" transform="matrix(10.4,0,0,10.4,539.2,423.2)" />
<use xlink:href="#f1_2n" transform="matrix(10.4,0,0,10.4,555.1,423.2)" />
<use xlink:href="#f3_10" transform="matrix(10.4,0,0,10.4,559.1,423.2)" />
<use xlink:href="#f1_2n" transform="matrix(10.4,0,0,10.4,569.7,423.2)" />
<use xlink:href="#f1_h" transform="matrix(10.4,0,0,10.4,573.9,423.2)" />
<use xlink:href="#f1_m" transform="matrix(10.4,0,0,10.4,68.3,457.1)" />
<use xlink:href="#f1_k" transform="matrix(10.4,0,0,10.4,77.2,457.1)" />
<use xlink:href="#f1_h" transform="matrix(10.4,0,0,10.4,86.3,457.1)" />
<use xlink:href="#f1_1b" transform="matrix(10.4,0,0,10.4,109,457.1)" />
<use xlink:href="#f1_20" transform="matrix(10.4,0,0,10.4,117.9,457.1)" />
<use xlink:href="#f1_2f" transform="matrix(10.4,0,0,10.4,126.7,457.1)" />
<use xlink:href="#f3_10" transform="matrix(10.4,0,0,10.4,137.2,457.1)" />
<use xlink:href="#f1_1x" transform="matrix(10.4,0,0,10.4,154.1,457.1)" />
<use xlink:href="#f1_20" transform="matrix(10.4,0,0,10.4,163,457.1)" />
<use xlink:href="#f1_1w" transform="matrix(10.4,0,0,10.4,178.3,457.1)" />
<use xlink:href="#f1_29" transform="matrix(10.4,0,0,10.4,193.4,457.1)" />
<use xlink:href="#f1_2a" transform="matrix(10.4,0,0,10.4,202.2,457.1)" />
<use xlink:href="#f1_29" transform="matrix(10.4,0,0,10.4,211.1,457.1)" />
<use xlink:href="#f1_g" transform="matrix(10.4,0,0,10.4,220,457.1)" />
<use xlink:href="#f1_2e" transform="matrix(10.4,0,0,10.4,225.3,457.1)" />
<use xlink:href="#f1_24" transform="matrix(10.4,0,0,10.4,233.3,457.1)" />
<use xlink:href="#f1_29" transform="matrix(10.4,0,0,10.4,236.8,457.1)" />
<use xlink:href="#f1_22" transform="matrix(10.4,0,0,10.4,245.7,457.1)" />
<use xlink:href="#f1_2g" transform="matrix(10.4,0,0,10.4,254.5,457.1)" />
<use xlink:href="#f1_27" transform="matrix(10.4,0,0,10.4,263.4,457.1)" />
<use xlink:href="#f1_1w" transform="matrix(10.4,0,0,10.4,266.9,457.1)" />
<use xlink:href="#f1_2d" transform="matrix(10.4,0,0,10.4,275.8,457.1)" />
<use xlink:href="#f1_2e" transform="matrix(10.4,0,0,10.4,287.5,457.1)" />
<use xlink:href="#f1_2c" transform="matrix(10.4,0,0,10.4,295.5,457.1)" />
<use xlink:href="#f1_2g" transform="matrix(10.4,0,0,10.4,304.4,457.1)" />
<use xlink:href="#f1_1w" transform="matrix(10.4,0,0,10.4,313.3,457.1)" />
<use xlink:href="#f1_2d" transform="matrix(10.4,0,0,10.4,322.1,457.1)" />
<use xlink:href="#f1_20" transform="matrix(10.4,0,0,10.4,327.4,457.1)" />
<use xlink:href="#f1_28" transform="matrix(10.4,0,0,10.4,342.5,457.1)" />
<use xlink:href="#f1_1w" transform="matrix(10.4,0,0,10.4,355.8,457.1)" />
<use xlink:href="#f1_2f" transform="matrix(10.4,0,0,10.4,364.7,457.1)" />
<use xlink:href="#f1_2d" transform="matrix(10.4,0,0,10.4,369.1,457.1)" />
<use xlink:href="#f1_24" transform="matrix(10.4,0,0,10.4,374.4,457.1)" />
<use xlink:href="#f1_2j" transform="matrix(10.4,0,0,10.4,378,457.1)" />
<use xlink:href="#f1_2a" transform="matrix(10.4,0,0,10.4,392.2,457.1)" />
<use xlink:href="#f1_21" transform="matrix(10.4,0,0,10.4,401.1,457.1)" />
<use xlink:href="#f1_2a" transform="matrix(10.4,0,0,10.4,411.9,457.1)" />
<use xlink:href="#f1_2d" transform="matrix(10.4,0,0,10.4,420.8,457.1)" />
<use xlink:href="#f1_1z" transform="matrix(10.4,0,0,10.4,426.1,457.1)" />
<use xlink:href="#f1_20" transform="matrix(10.4,0,0,10.4,435,457.1)" />
<use xlink:href="#f1_2d" transform="matrix(10.4,0,0,10.4,443.8,457.1)" />
<use xlink:href="#f1_m" transform="matrix(10.4,0,0,10.4,455.4,457.1)" />
<use xlink:href="#f1_4r" transform="matrix(10.4,0,0,10.4,470.6,457.1)" />
<use xlink:href="#f1_m" transform="matrix(10.4,0,0,10.4,486.2,457.1)" />
<use xlink:href="#f1_21" transform="matrix(10.4,0,0,10.4,501.5,457.1)" />
<use xlink:href="#f1_24" transform="matrix(10.4,0,0,10.4,505.9,457.1)" />
<use xlink:href="#f1_29" transform="matrix(10.4,0,0,10.4,509.5,457.1)" />
<use xlink:href="#f1_1z" transform="matrix(10.4,0,0,10.4,518.3,457.1)" />
<use xlink:href="#f1_2n" transform="matrix(10.4,0,0,10.4,533.4,457.1)" />
<use xlink:href="#f3_1w" transform="matrix(10.4,0,0,10.4,536,457.1)" />
<use xlink:href="#f3_1z" transform="matrix(10.4,0,0,10.4,544.9,457.1)" />
<use xlink:href="#f3_25" transform="matrix(10.4,0,0,10.4,553.7,457.1)" />
<use xlink:href="#f3_10" transform="matrix(10.4,0,0,10.4,563.5,457.1)" />
<use xlink:href="#f1_2n" transform="matrix(10.4,0,0,10.4,573.9,457.1)" />
<use xlink:href="#f1_24" transform="matrix(10.4,0,0,10.4,584.3,457.1)" />
<use xlink:href="#f1_21" transform="matrix(10.4,0,0,10.4,587.9,457.1)" />
<use xlink:href="#f1_2n" transform="matrix(10.4,0,0,10.4,598.7,457.1)" />
<use xlink:href="#f3_10" transform="matrix(10.4,0,0,10.4,602.9,457.1)" />
<use xlink:href="#f1_2n" transform="matrix(10.4,0,0,10.4,613.5,457.1)" />
<use xlink:href="#f1_w" transform="matrix(10.4,0,0,10.4,624.1,457.1)" />
<use xlink:href="#f1_k" transform="matrix(10.4,0,0,10.4,109,477.3)" />
<use xlink:href="#f1_j" transform="matrix(10.4,0,0,10.4,117.9,477.3)" />
<use xlink:href="#f1_h" transform="matrix(10.4,0,0,10.4,127,477.3)" />
<use xlink:href="#f1_m" transform="matrix(10.4,0,0,10.4,68.3,532.8)" />
<use xlink:href="#f1_l" transform="matrix(10.4,0,0,10.4,77.2,532.8)" />
<use xlink:href="#f1_h" transform="matrix(10.4,0,0,10.4,86.3,532.8)" />
<use xlink:href="#f1_18" transform="matrix(10.4,0,0,10.4,109,532.8)" />
<use xlink:href="#f1_21" transform="matrix(10.4,0,0,10.4,113.4,532.8)" />
<use xlink:href="#f2_c" transform="matrix(10.5,0,0,13.7,256.2,530.8)" />
<use xlink:href="#f2_d" transform="matrix(10.5,0,0,13.7,286.2,530.7)" />
</g>
<path d="M254.7,511.4v24.5m50.4,-24.5v24.5" class="g0_27" />
<g fill="#000000" >
<use xlink:href="#f1_k" transform="matrix(7,0,0,7,297.6,521)" />
<use xlink:href="#f1_k" transform="matrix(7,0,0,7,279.7,526.3)" />
<use xlink:href="#f1_l" transform="matrix(10.5,0,0,10.5,163.2,521.7)" />
<use xlink:href="#f1_k" transform="matrix(10.5,0,0,10.5,196.1,521.7)" />
<use xlink:href="#f1_21" transform="matrix(10.5,0,0,10.5,219,533.5)" />
<use xlink:href="#f1_24" transform="matrix(10.5,0,0,10.5,223.5,533.5)" />
<use xlink:href="#f1_29" transform="matrix(10.5,0,0,10.5,227,533.5)" />
<use xlink:href="#f1_1z" transform="matrix(10.5,0,0,10.5,235.9,533.5)" />
<use xlink:href="#f1_h" transform="matrix(10.5,0,0,10.5,307.4,533.5)" />
<use xlink:href="#f1_m" transform="matrix(10.5,0,0,10.5,163.1,545.8)" />
<use xlink:href="#f1_n" transform="matrix(10.5,0,0,10.5,190.3,545.8)" />
<use xlink:href="#f3_10" transform="matrix(10.5,0,0,10.5,127.3,533.5)" />
<use xlink:href="#f3_10" transform="matrix(10.5,0,0,10.5,262.1,533.5)" />
<use xlink:href="#f2_h" transform="matrix(7,0,0,7,291.8,521)" />
<use xlink:href="#f2_h" transform="matrix(7,0,0,7,273.9,526.3)" />
<use xlink:href="#f2_h" transform="matrix(10.5,0,0,10.5,187.4,521.7)" />
<use xlink:href="#f2_4r" transform="matrix(10.5,0,0,10.5,156.6,522.7)" />
<use xlink:href="#f2_57" transform="matrix(10.5,0,0,10.5,202.9,522.7)" />
<use xlink:href="#f2_x" transform="matrix(10.5,0,0,10.5,142.7,533.5)" />
<use xlink:href="#f2_4s" transform="matrix(10.5,0,0,10.5,156.6,538.2)" />
<use xlink:href="#f2_58" transform="matrix(10.5,0,0,10.5,202.9,538.2)" />
<use xlink:href="#f2_4t" transform="matrix(10.5,0,0,10.5,156.6,549.3)" />
<use xlink:href="#f2_59" transform="matrix(10.5,0,0,10.5,202.9,549.3)" />
<use xlink:href="#f1_m" transform="matrix(10.4,0,0,10.4,68.3,623)" />
<use xlink:href="#f1_m" transform="matrix(10.4,0,0,10.4,77.2,623)" />
<use xlink:href="#f1_h" transform="matrix(10.4,0,0,10.4,86.3,623)" />
<use xlink:href="#f1_18" transform="matrix(10.4,0,0,10.4,109,623)" />
<use xlink:href="#f1_21" transform="matrix(10.4,0,0,10.4,113.4,623)" />
<use xlink:href="#f2_1r" transform="matrix(10.5,0,0,14.7,155.1,624.1)" />
<use xlink:href="#f2_1t" transform="matrix(10.5,0,0,14.7,223.7,624.1)" />
<use xlink:href="#f1_m" transform="matrix(10.5,0,0,10.5,315.7,598.8)" />
<use xlink:href="#f1_k" transform="matrix(10.5,0,0,10.5,169.7,622.9)" />
<use xlink:href="#f1_l" transform="matrix(10.5,0,0,10.5,191,622.9)" />
<use xlink:href="#f1_m" transform="matrix(10.5,0,0,10.5,214.5,622.9)" />
<use xlink:href="#f1_1w" transform="matrix(10.5,0,0,10.5,237.4,622.9)" />
<use xlink:href="#f1_29" transform="matrix(10.5,0,0,10.5,246.3,622.9)" />
<use xlink:href="#f1_1z" transform="matrix(10.5,0,0,10.5,255.2,622.9)" />
<use xlink:href="#f1_n" transform="matrix(10.5,0,0,10.5,317.4,622.9)" />
<use xlink:href="#f1_j" transform="matrix(10.5,0,0,10.5,315.7,646.9)" />
<use xlink:href="#f3_10" transform="matrix(10.5,0,0,10.5,127.9,622.9)" />
<use xlink:href="#f3_11" transform="matrix(10.5,0,0,10.5,273,622.9)" />
<use xlink:href="#f2_4r" transform="matrix(10.5,0,0,10.5,302,599.8)" />
<use xlink:href="#f2_57" transform="matrix(10.5,0,0,10.5,327.2,599.8)" />
<use xlink:href="#f2_4s" transform="matrix(10.5,0,0,10.5,302,615.3)" />
<use xlink:href="#f2_58" transform="matrix(10.5,0,0,10.5,327.2,615.3)" />
<use xlink:href="#f2_x" transform="matrix(10.5,0,0,10.5,142.8,622.9)" />
<use xlink:href="#f2_h" transform="matrix(10.5,0,0,10.5,161,622.9)" />
<use xlink:href="#f2_x" transform="matrix(10.5,0,0,10.5,288.4,622.9)" />
<use xlink:href="#f2_h" transform="matrix(10.5,0,0,10.5,308.9,622.9)" />
<use xlink:href="#f2_4s" transform="matrix(10.5,0,0,10.5,302,630.6)" />
<use xlink:href="#f2_58" transform="matrix(10.5,0,0,10.5,327.2,630.6)" />
<use xlink:href="#f2_4s" transform="matrix(10.5,0,0,10.5,302,645.8)" />
<use xlink:href="#f2_58" transform="matrix(10.5,0,0,10.5,327.2,645.8)" />
<use xlink:href="#f2_4t" transform="matrix(10.5,0,0,10.5,302,650.4)" />
<use xlink:href="#f2_59" transform="matrix(10.5,0,0,10.5,327.2,650.4)" />
<use xlink:href="#f1_21" transform="matrix(10.4,0,0,10.4,343.3,623)" />
<use xlink:href="#f1_24" transform="matrix(10.4,0,0,10.4,347.7,623)" />
<use xlink:href="#f1_29" transform="matrix(10.4,0,0,10.4,351.3,623)" />
<use xlink:href="#f1_1z" transform="matrix(10.4,0,0,10.4,360.1,623)" />
<use xlink:href="#f1_2n" transform="matrix(10.4,0,0,10.4,376,623)" />
<use xlink:href="#f3_10" transform="matrix(10.4,0,0,10.4,380,623)" />
<use xlink:href="#f3_11" transform="matrix(10.4,0,0,10.4,390.6,623)" />
<use xlink:href="#f1_2n" transform="matrix(10.4,0,0,10.4,401.2,623)" />
<use xlink:href="#f1_h" transform="matrix(10.4,0,0,10.4,405.4,623)" />
<use xlink:href="#f4_1i" transform="matrix(12,0,0,12,114.7,689.6)" />
<use xlink:href="#f4_17" transform="matrix(12,0,0,12,124.5,689.6)" />
<use xlink:href="#f4_1e" transform="matrix(12,0,0,12,139.4,689.6)" />
<use xlink:href="#f4_1h" transform="matrix(12,0,0,12,155.9,689.6)" />
<use xlink:href="#f4_1j" transform="matrix(12,0,0,12,168.8,689.6)" />
<use xlink:href="#f4_10" transform="matrix(12,0,0,12,190.6,689.6)" />
<use xlink:href="#f4_1d" transform="matrix(12,0,0,12,204.7,689.6)" />
<use xlink:href="#f4_1i" transform="matrix(12,0,0,12,220.3,689.6)" />
<use xlink:href="#f4_1m" transform="matrix(12,0,0,12,230.1,689.6)" />
<use xlink:href="#f4_14" transform="matrix(12,0,0,12,248,689.6)" />
<use xlink:href="#f4_1h" transform="matrix(12,0,0,12,259.2,689.6)" />
<use xlink:href="#f4_1j" transform="matrix(12,0,0,12,282.1,689.6)" />
<use xlink:href="#f4_1o" transform="matrix(12,0,0,12,293.6,689.6)" />
<use xlink:href="#f4_1f" transform="matrix(12,0,0,12,305.8,689.6)" />
<use xlink:href="#f4_14" transform="matrix(12,0,0,12,317.6,689.6)" />
<use xlink:href="#f4_1g" transform="matrix(12,0,0,12,339,689.6)" />
<use xlink:href="#f4_1k" transform="matrix(12,0,0,12,355.6,689.6)" />
<use xlink:href="#f4_14" transform="matrix(12,0,0,12,370.5,689.6)" />
<use xlink:href="#f4_1i" transform="matrix(12,0,0,12,381.6,689.6)" />
<use xlink:href="#f4_1j" transform="matrix(12,0,0,12,391.4,689.6)" />
<use xlink:href="#f4_18" transform="matrix(12,0,0,12,402.9,689.6)" />
<use xlink:href="#f4_1e" transform="matrix(12,0,0,12,410,689.6)" />
<use xlink:href="#f4_1d" transform="matrix(12,0,0,12,426.6,689.6)" />
<use xlink:href="#f4_1i" transform="matrix(12,0,0,12,442.1,689.6)" />
<use xlink:href="#f5_b" transform="matrix(12,0,0,12,463.6,689.6)" />
<use xlink:href="#f5_n" transform="matrix(12,0,0,12,472.7,689.6)" />
<use xlink:href="#f5_1c" transform="matrix(12,0,0,12,495.1,689.6)" />
<use xlink:href="#f5_10" transform="matrix(12,0,0,12,513.1,689.6)" />
<use xlink:href="#f5_1h" transform="matrix(12,0,0,12,527.2,689.6)" />
<use xlink:href="#f5_1a" transform="matrix(12,0,0,12,540.1,689.6)" />
<use xlink:href="#f5_1i" transform="matrix(12,0,0,12,553.6,689.6)" />
<use xlink:href="#f5_c" transform="matrix(12,0,0,12,563.4,689.6)" />
<use xlink:href="#f1_m" transform="matrix(10.4,0,0,10.4,68.3,748.1)" />
<use xlink:href="#f1_n" transform="matrix(10.4,0,0,10.4,77.2,748.1)" />
<use xlink:href="#f1_h" transform="matrix(10.4,0,0,10.4,86.3,748.1)" />
<use xlink:href="#f1_15" transform="matrix(10.4,0,0,10.4,109,748.1)" />
<use xlink:href="#f1_24" transform="matrix(10.4,0,0,10.4,118.8,748.1)" />
<use xlink:href="#f1_29" transform="matrix(10.4,0,0,10.4,122.3,748.1)" />
<use xlink:href="#f1_1z" transform="matrix(10.4,0,0,10.4,131.2,748.1)" />
<use xlink:href="#f3_2j" transform="matrix(10.4,0,0,10.4,146.6,748.1)" />
<use xlink:href="#f3_f" transform="matrix(10.4,0,0,10.4,154.6,748.1)" />
<use xlink:href="#f3_2k" transform="matrix(10.4,0,0,10.4,165.8,748.1)" />
<use xlink:href="#f3_f" transform="matrix(10.4,0,0,10.4,173.8,748.1)" />
<use xlink:href="#f3_2l" transform="matrix(10.4,0,0,10.4,185,748.1)" />
<use xlink:href="#f1_1w" transform="matrix(10.4,0,0,10.4,199.9,748.1)" />
<use xlink:href="#f1_29" transform="matrix(10.4,0,0,10.4,208.8,748.1)" />
<use xlink:href="#f1_1z" transform="matrix(10.4,0,0,10.4,217.7,748.1)" />
<use xlink:href="#f3_2i" transform="matrix(10.4,0,0,10.4,233.3,748.1)" />
<use xlink:href="#f1_24" transform="matrix(10.4,0,0,10.4,251.6,748.1)" />
<use xlink:href="#f1_21" transform="matrix(10.4,0,0,10.4,255.2,748.1)" />
<use xlink:href="#f1_l" transform="matrix(10.5,0,0,10.5,353.6,736.6)" />
<use xlink:href="#f1_99" transform="matrix(10.5,0,0,10.5,448.6,736.6)" />
<use xlink:href="#f1_k" transform="matrix(10.5,0,0,10.5,457.9,736.6)" />
<use xlink:href="#f1_o" transform="matrix(10.5,0,0,10.5,491.3,736.6)" />
<use xlink:href="#f1_h" transform="matrix(10.5,0,0,10.5,515.7,748.3)" />
<use xlink:href="#f1_l" transform="matrix(10.5,0,0,10.5,277.3,760.6)" />
<use xlink:href="#f1_m" transform="matrix(10.5,0,0,10.5,352.2,760.6)" />
<use xlink:href="#f1_j" transform="matrix(10.5,0,0,10.5,451.7,760.6)" />
<use xlink:href="#f1_k" transform="matrix(10.5,0,0,10.5,486,760.6)" />
<use xlink:href="#f1_m" transform="matrix(10.5,0,0,10.5,495.3,760.6)" />
<use xlink:href="#f3_2j" transform="matrix(10.5,0,0,10.5,281.9,736.6)" />
<use xlink:href="#f3_2k" transform="matrix(10.5,0,0,10.5,314.7,736.6)" />
<use xlink:href="#f3_2j" transform="matrix(10.5,0,0,10.5,362.6,736.6)" />
<use xlink:href="#f3_2l" transform="matrix(10.5,0,0,10.5,395.1,736.6)" />
<use xlink:href="#f3_2j" transform="matrix(10.5,0,0,10.5,286.3,760.6)" />
<use xlink:href="#f3_2k" transform="matrix(10.5,0,0,10.5,319.1,760.6)" />
<use xlink:href="#f3_2j" transform="matrix(10.5,0,0,10.5,361.5,760.6)" />
<use xlink:href="#f3_2i" transform="matrix(10.5,0,0,10.5,392.4,760.6)" />
<use xlink:href="#f2_h" transform="matrix(10.5,0,0,10.5,298.7,736.6)" />
<use xlink:href="#f2_f" transform="matrix(10.5,0,0,10.5,379.4,736.6)" />
<use xlink:href="#f2_4r" transform="matrix(10.5,0,0,10.5,269.6,737.7)" />
<use xlink:href="#f2_57" transform="matrix(10.5,0,0,10.5,407.9,737.7)" />
<use xlink:href="#f2_4r" transform="matrix(10.5,0,0,10.5,440.3,737.7)" />
<use xlink:href="#f2_57" transform="matrix(10.5,0,0,10.5,506.1,737.7)" />
<use xlink:href="#f2_x" transform="matrix(10.5,0,0,10.5,422.6,748.3)" />
<use xlink:href="#f2_4s" transform="matrix(10.5,0,0,10.5,269.6,753.2)" />
<use xlink:href="#f2_58" transform="matrix(10.5,0,0,10.5,407.9,753.2)" />
<use xlink:href="#f2_4s" transform="matrix(10.5,0,0,10.5,440.3,753.2)" />
<use xlink:href="#f2_58" transform="matrix(10.5,0,0,10.5,506.1,753.2)" />
<use xlink:href="#f2_h" transform="matrix(10.5,0,0,10.5,303.1,760.6)" />
<use xlink:href="#f2_f" transform="matrix(10.5,0,0,10.5,378.2,760.6)" />
<use xlink:href="#f2_4t" transform="matrix(10.5,0,0,10.5,269.6,764)" />
<use xlink:href="#f2_59" transform="matrix(10.5,0,0,10.5,407.9,764)" />
<use xlink:href="#f2_4t" transform="matrix(10.5,0,0,10.5,440.3,764)" />
<use xlink:href="#f2_59" transform="matrix(10.5,0,0,10.5,506.1,764)" />
<use xlink:href="#f1_m" transform="matrix(10.4,0,0,10.4,68.3,796.1)" />
<use xlink:href="#f1_o" transform="matrix(10.4,0,0,10.4,77.2,796.1)" />
<use xlink:href="#f1_h" transform="matrix(10.4,0,0,10.4,86.3,796.1)" />
<use xlink:href="#f1_12" transform="matrix(10.4,0,0,10.4,109,796.1)" />
<use xlink:href="#f1_2a" transform="matrix(10.4,0,0,10.4,121.1,796.1)" />
<use xlink:href="#f1_29" transform="matrix(10.4,0,0,10.4,130.5,796.1)" />
<use xlink:href="#f1_2e" transform="matrix(10.4,0,0,10.4,139.8,796.1)" />
<use xlink:href="#f1_2f" transform="matrix(10.4,0,0,10.4,148.4,796.1)" />
<use xlink:href="#f1_2d" transform="matrix(10.4,0,0,10.4,153.2,796.1)" />
<use xlink:href="#f1_2g" transform="matrix(10.4,0,0,10.4,159.1,796.1)" />
<use xlink:href="#f1_1y" transform="matrix(10.4,0,0,10.4,168.4,796.1)" />
<use xlink:href="#f1_2f" transform="matrix(10.4,0,0,10.4,177,796.1)" />
<use xlink:href="#f1_1w" transform="matrix(10.4,0,0,10.4,191.3,796.1)" />
<use xlink:href="#f1_m" transform="matrix(10.4,0,0,10.4,210,796.1)" />
<use xlink:href="#f1_4r" transform="matrix(10.4,0,0,10.4,228.5,796.1)" />
<use xlink:href="#f1_m" transform="matrix(10.4,0,0,10.4,247.8,796.1)" />
<use xlink:href="#f1_28" transform="matrix(10.4,0,0,10.4,266.5,796.1)" />
<use xlink:href="#f1_1w" transform="matrix(10.4,0,0,10.4,280.2,796.1)" />
<use xlink:href="#f1_2f" transform="matrix(10.4,0,0,10.4,289.6,796.1)" />
<use xlink:href="#f1_2d" transform="matrix(10.4,0,0,10.4,294.3,796.1)" />
<use xlink:href="#f1_24" transform="matrix(10.4,0,0,10.4,300.2,796.1)" />
<use xlink:href="#f1_2j" transform="matrix(10.4,0,0,10.4,304.2,796.1)" />
<use xlink:href="#f3_10" transform="matrix(10.4,0,0,10.4,322.2,796.1)" />
<use xlink:href="#f3_w" transform="matrix(10.4,0,0,10.4,342.8,796.1)" />
<use xlink:href="#f1_1q" transform="matrix(10.4,0,0,10.4,361.8,796.1)" />
<use xlink:href="#f3_1w" transform="matrix(10.4,0,0,10.4,366.8,796.1)" />
<use xlink:href="#f3_24" transform="matrix(7.4,0,0,7.4,376.1,801.4)" />
<use xlink:href="#f3_25" transform="matrix(7.4,0,0,7.4,379.1,801.4)" />
<use xlink:href="#f1_1s" transform="matrix(10.4,0,0,10.4,382,796.1)" />
<use xlink:href="#f1_2i" transform="matrix(10.4,0,0,10.4,396.3,796.1)" />
<use xlink:href="#f1_23" transform="matrix(10.4,0,0,10.4,408.4,796.1)" />
<use xlink:href="#f1_2a" transform="matrix(10.4,0,0,10.4,417.7,796.1)" />
<use xlink:href="#f1_2e" transform="matrix(10.4,0,0,10.4,427.1,796.1)" />
<use xlink:href="#f1_20" transform="matrix(10.4,0,0,10.4,435.7,796.1)" />
<use xlink:href="#f1_20" transform="matrix(10.4,0,0,10.4,454.2,796.1)" />
<use xlink:href="#f1_27" transform="matrix(10.4,0,0,10.4,463.6,796.1)" />
<use xlink:href="#f1_20" transform="matrix(10.4,0,0,10.4,467.6,796.1)" />
<use xlink:href="#f1_28" transform="matrix(10.4,0,0,10.4,476.9,796.1)" />
<use xlink:href="#f1_20" transform="matrix(10.4,0,0,10.4,490.7,796.1)" />
<use xlink:href="#f1_29" transform="matrix(10.4,0,0,10.4,500,796.1)" />
<use xlink:href="#f1_2f" transform="matrix(10.4,0,0,10.4,509.4,796.1)" />
<use xlink:href="#f1_2e" transform="matrix(10.4,0,0,10.4,514.3,796.1)" />
<use xlink:href="#f1_1w" transform="matrix(10.4,0,0,10.4,532.3,796.1)" />
<use xlink:href="#f1_2d" transform="matrix(10.4,0,0,10.4,541.6,796.1)" />
<use xlink:href="#f1_20" transform="matrix(10.4,0,0,10.4,547.5,796.1)" />
<use xlink:href="#f1_22" transform="matrix(10.4,0,0,10.4,566,796.1)" />
<use xlink:href="#f1_24" transform="matrix(10.4,0,0,10.4,575.4,796.1)" />
<use xlink:href="#f1_2h" transform="matrix(10.4,0,0,10.4,579.4,796.1)" />
<use xlink:href="#f1_20" transform="matrix(10.4,0,0,10.4,588,796.1)" />
<use xlink:href="#f1_29" transform="matrix(10.4,0,0,10.4,597.4,796.1)" />
<use xlink:href="#f1_1x" transform="matrix(10.4,0,0,10.4,616.1,796.1)" />
<use xlink:href="#f1_2k" transform="matrix(10.4,0,0,10.4,625.4,796.1)" />
<use xlink:href="#f3_1w" transform="matrix(10.4,0,0,10.4,109,847.8)" />
<use xlink:href="#f3_24" transform="matrix(7.4,0,0,7.4,117.8,853.1)" />
<use xlink:href="#f3_25" transform="matrix(7.4,0,0,7.4,120.3,853.1)" />
<use xlink:href="#f1_w" transform="matrix(10.4,0,0,10.4,129.7,847.8)" />
</g>
<path d="M162.1,836.1v18.2m39.8,-18.2v18.2m-44.6,2.3H207" class="g1_27" />
<g fill="#000000" >
<use xlink:href="#f1_k" transform="matrix(10.6,0,0,10.5,156.8,825.8)" />
<use xlink:href="#f1_24" transform="matrix(10.6,0,0,10.5,219.3,827.9)" />
<use xlink:href="#f1_21" transform="matrix(10.6,0,0,10.5,222.9,827.9)" />
<use xlink:href="#f1_l" transform="matrix(10.6,0,0,10.5,184.6,849.9)" />
<use xlink:href="#f1_24" transform="matrix(10.6,0,0,10.5,219.3,852)" />
<use xlink:href="#f1_21" transform="matrix(10.6,0,0,10.5,222.9,852)" />
<use xlink:href="#f1_l" transform="matrix(10.6,0,0,10.5,177.9,873.3)" />
<use xlink:href="#f3_24" transform="matrix(10.6,0,0,10.5,178.2,825.8)" />
<use xlink:href="#f3_25" transform="matrix(10.6,0,0,10.5,200.8,825.8)" />
<use xlink:href="#f3_24" transform="matrix(10.6,0,0,10.5,231,827.9)" />
<use xlink:href="#f3_25" transform="matrix(10.6,0,0,10.5,255.5,827.9)" />
<use xlink:href="#f3_24" transform="matrix(10.6,0,0,10.5,163.5,849.9)" />
<use xlink:href="#f3_25" transform="matrix(10.6,0,0,10.5,194.9,849.9)" />
<use xlink:href="#f3_24" transform="matrix(10.6,0,0,10.5,231,852)" />
<use xlink:href="#f3_25" transform="matrix(10.6,0,0,10.5,255.5,852)" />
<use xlink:href="#f2_f" transform="matrix(10.6,0,0,10.5,166.4,825.8)" />
<use xlink:href="#f2_f" transform="matrix(10.6,0,0,10.5,187,825.8)" />
<use xlink:href="#f2_4u" transform="matrix(10.6,0,0,10.5,148.7,826.8)" />
<use xlink:href="#f2_39" transform="matrix(10.6,0,0,10.5,240.8,827.9)" />
<use xlink:href="#f2_4x" transform="matrix(10.6,0,0,10.5,148.7,838)" />
<use xlink:href="#f2_h" transform="matrix(10.6,0,0,10.5,172.5,849.9)" />
<use xlink:href="#f2_4v" transform="matrix(10.6,0,0,10.5,148.7,850.2)" />
<use xlink:href="#f2_w" transform="matrix(10.6,0,0,10.5,240.8,852)" />
<use xlink:href="#f2_4x" transform="matrix(10.6,0,0,10.5,148.7,865.7)" />
<use xlink:href="#f2_4w" transform="matrix(10.6,0,0,10.5,148.7,873.3)" />
<use xlink:href="#f6_n" transform="matrix(12,0,0,12,665.7,1052.9)" />
</g>
<g fill="#0080FF" fill-opacity="0.5" >
<use xlink:href="#f0_1c" transform="matrix(36.3,0,0,36.3,174,1059.2)" />
<use xlink:href="#f0_21" transform="matrix(36.3,0,0,36.3,204.8,1059.2)" />
<use xlink:href="#f0_1x" transform="matrix(36.3,0,0,36.3,235.7,1059.2)" />
<use xlink:href="#f0_2e" transform="matrix(36.3,0,0,36.3,266.5,1059.2)" />
<use xlink:href="#f0_2a" transform="matrix(36.3,0,0,36.3,284.9,1059.2)" />
<use xlink:href="#f0_17" transform="matrix(36.3,0,0,36.3,315.8,1059.2)" />
<use xlink:href="#f0_2h" transform="matrix(36.3,0,0,36.3,358.9,1059.2)" />
<use xlink:href="#f0_25" transform="matrix(36.3,0,0,36.3,389.7,1059.2)" />
<use xlink:href="#f0_20" transform="matrix(36.3,0,0,36.3,402,1059.2)" />
<use xlink:href="#f0_21" transform="matrix(36.3,0,0,36.3,432.8,1059.2)" />
<use xlink:href="#f0_i" transform="matrix(36.3,0,0,36.3,463.7,1059.2)" />
<use xlink:href="#f0_25" transform="matrix(36.3,0,0,36.3,479.1,1059.2)" />
<use xlink:href="#f0_2a" transform="matrix(36.3,0,0,36.3,491.4,1059.2)" />
</g>
<defs>
<path d="M593,101c0,0,182,0,279,112c0,0,98,113,98,318c0,0,0,196,-98,308c0,0,-98,112,-277,112c0,0,-181,0,-279,-110c0,0,-99,-111,-99,-310c0,0,0,-198,100,-314c0,0,99,-116,276,-116Zm0,-115c0,0,-162,0,-279,65c0,0,-118,66,-180,190c0,0,-62,124,-62,290c0,0,0,252,138,394c0,0,138,142,385,142c0,0,160,0,278,-64c0,0,118,-64,180,-185c0,0,62,-122,62,-287c0,0,0,-165,-63,-289c0,0,-63,-124,-181,-190c0,0,-118,-66,-278,-66Z" 
id="f0_1f"
transform="scale(0.001,-0.001)" />

<path d="M106,0V635c0,0,0,141,-5,173H228c0,0,1,-4,2,-21c0,0,1,-16,2,-37c0,0,1,-22,2,-81h2c0,0,47,84,108,119c0,0,60,34,151,34c0,0,132,0,194,-66c0,0,61,-66,61,-218V0H615V512c0,0,0,80,-15,124c0,0,-16,44,-50,63c0,0,-35,20,-101,20c0,0,-97,0,-153,-67c0,0,-56,-66,-56,-184V0Z" 
id="f0_2a"
transform="scale(0.001,-0.001)" />

<path d="M103,0V1107H237V0Z" 
id="f0_28"
transform="scale(0.001,-0.001)" />

<path d="M102,0V808H236V0Zm0,979v128H236V979Z" 
id="f0_25"
transform="scale(0.001,-0.001)" />

<path d="M643,478c0,0,-11,128,-65,187c0,0,-54,59,-154,59c0,0,-98,0,-155,-66c0,0,-57,-65,-62,-180ZM431,-14c0,0,-179,0,-272,106c0,0,-94,107,-94,317c0,0,0,200,94,307c0,0,93,106,267,106c0,0,356,0,356,-429V375H206c0,0,0,-138,57,-213c0,0,58,-75,168,-75c0,0,87,0,140,35c0,0,53,35,71,88L760,177c0,0,-72,-191,-329,-191Z" 
id="f0_21"
transform="scale(0.001,-0.001)" />

<path d="M17,0L304,415L31,808H179L380,493L580,808H730L457,417L747,0H598L380,331L162,0Z" 
id="f0_2k"
transform="scale(0.001,-0.001)" />

<path d="M339,87c0,0,74,0,132,34c0,0,57,33,90,91c0,0,34,59,34,121v66L448,396c0,0,-95,-2,-144,-19c0,0,-49,-18,-75,-55c0,0,-26,-38,-26,-98c0,0,0,-65,35,-101c0,0,36,-36,101,-36ZM309,-14c0,0,-122,0,-183,64c0,0,-61,64,-61,176c0,0,0,125,82,192c0,0,83,67,266,72l182,3v44c0,0,0,98,-42,141c0,0,-42,43,-132,43c0,0,-90,0,-131,-31c0,0,-41,-31,-49,-98L101,604c0,0,34,218,323,218c0,0,153,0,229,-70c0,0,77,-69,77,-202V202c0,0,0,-59,16,-90c0,0,16,-30,60,-30c0,0,19,0,44,5V4C850,4,799,-7,746,-7c0,0,-75,0,-109,38c0,0,-33,40,-38,124h-4C595,155,543,62,475,24c0,0,-68,-38,-166,-38Z" 
id="f0_1x"
transform="scale(0.001,-0.001)" />

<path d="M106,0V635c0,0,0,141,-5,173H228c0,0,1,-4,2,-21c0,0,1,-16,2,-37c0,0,1,-22,2,-81h2c0,0,44,86,100,120c0,0,56,33,136,33c0,0,92,0,145,-36c0,0,54,-37,75,-117h2c0,0,42,82,101,117c0,0,59,36,143,36c0,0,123,0,178,-66c0,0,56,-67,56,-218V0H1039V512c0,0,0,117,-32,162c0,0,-32,45,-116,45c0,0,-88,0,-136,-66c0,0,-49,-65,-49,-185V0H573V512c0,0,0,117,-32,162c0,0,-32,45,-116,45c0,0,-86,0,-136,-66c0,0,-50,-66,-50,-185V0Z" 
id="f0_29"
transform="scale(0.001,-0.001)" />

<path d="M453,84c0,0,100,0,146,74c0,0,46,73,46,247c0,0,0,169,-46,241c0,0,-45,73,-145,73c0,0,-80,0,-125,-34c0,0,-45,-34,-68,-105c0,0,-24,-71,-24,-186c0,0,0,-159,51,-234c0,0,51,-76,165,-76ZM103,-316V643c0,0,0,124,-5,165H228c0,0,1,-3,3,-22c0,0,1,-18,3,-56c0,0,2,-38,2,-52h3c0,0,36,75,94,110c0,0,59,34,156,34c0,0,149,0,223,-100c0,0,74,-100,74,-314c0,0,0,-422,-297,-422c0,0,-187,0,-251,140h-4c0,0,3,-6,3,-126V-316Z" 
id="f0_2c"
transform="scale(0.001,-0.001)" />

<path d="M420,84c0,0,121,0,173,78c0,0,52,77,52,243c0,0,0,167,-50,243c0,0,-50,76,-167,76c0,0,-118,0,-170,-78c0,0,-53,-77,-53,-241c0,0,0,-160,52,-241c0,0,52,-80,163,-80Zm1,-98c0,0,-176,0,-267,107c0,0,-90,108,-90,312c0,0,0,417,362,417c0,0,185,0,272,-102c0,0,88,-101,88,-315c0,0,0,-212,-94,-316C692,89,599,-14,421,-14Z" 
id="f0_2b"
transform="scale(0.001,-0.001)" />

<path d="M278,-11c0,0,-162,0,-162,182V710H23v98h99l39,181h90V808H400V710H251V200c0,0,0,-58,19,-82c0,0,19,-23,66,-23c0,0,27,0,77,10V6c0,0,-66,-17,-135,-17Z" 
id="f0_2g"
transform="scale(0.001,-0.001)" />

<path d="M39,0V0c0,0,0,170,84,277c0,0,85,108,317,236c0,0,113,62,154,115c0,0,41,52,41,134c0,0,0,86,-62,141c0,0,-61,54,-156,54c0,0,-101,0,-158,-68c0,0,-57,-68,-60,-194H67c0,0,-2,178,95,279c0,0,98,101,273,101c0,0,149,0,245,-89c0,0,94,-88,94,-228c0,0,0,-118,-60,-195c0,0,-61,-76,-229,-169C485,394,303,294,237,212c0,0,-28,-36,-46,-81H774V0Z" 
id="f1_l"
transform="scale(0.001,-0.001)" />

<path d="M417,-28c0,0,-161,0,-259,79c0,0,-98,81,-109,223H189c0,0,11,-90,72,-139c0,0,61,-49,162,-49c0,0,96,0,158,68c0,0,61,68,61,175c0,0,0,112,-64,178c0,0,-64,66,-173,66c0,0,-59,0,-115,-28c0,0,-55,-29,-84,-73L93,480l77,573H727V922H271L225,629l4,3c0,0,89,60,188,60c0,0,169,0,269,-94c0,0,99,-93,99,-253c0,0,0,-165,-103,-269C682,76,579,-28,417,-28Z" 
id="f1_o"
transform="scale(0.001,-0.001)" />

<path d="M133,0V162H292V0Z" 
id="f1_h"
transform="scale(0.001,-0.001)" />

<path d="M139,0V1097H287V0Z" 
id="f1_18"
transform="scale(0.001,-0.001)" />

<path d="M132,0V687H22V799H132V935c0,0,0,88,52,133c0,0,52,45,157,45l59,-3V989l-53,2c0,0,-39,0,-60,-24c0,0,-21,-25,-21,-71V799H400V687H266V0Z" 
id="f1_21"
transform="scale(0.001,-0.001)" />

<path d="M133,-224v71c0,0,47,8,65,52c0,0,14,33,17,101H133V163H292V27c0,0,0,-114,-36,-172c0,0,-37,-58,-123,-79Z" 
id="f1_f"
transform="scale(0.001,-0.001)" />

<path d="M406,0V763H155V870h2c16,0,114,2,178,48c0,0,70,51,104,157H549V0Z" 
id="f1_k"
transform="scale(0.001,-0.001)" />

<path d="M355,0V355H0v72H355V784h72V427H782V355H427V0Z" 
id="f2_f"
transform="scale(0.001,-0.001)" />

<path d="M0,-123V1415H525v-72H72V-123Z" 
id="f2_4r"
transform="scale(0.001,-0.001)" />

<path d="M478,-123V1343H26v72H550V-123Z" 
id="f2_57"
transform="scale(0.001,-0.001)" />

<path d="M0,-123V1415H72V-123Z" 
id="f2_4s"
transform="scale(0.001,-0.001)" />

<path d="M0,-123V1415H72V-123Z" 
id="f2_58"
transform="scale(0.001,-0.001)" />

<path d="M0,214v74H784V214ZM0,494v72H784V494Z" 
id="f2_x"
transform="scale(0.001,-0.001)" />

<path d="M0,-123V1415H72V-51H525v-72Z" 
id="f2_4t"
transform="scale(0.001,-0.001)" />

<path d="M26,-123v72H478V1415h72V-123Z" 
id="f2_59"
transform="scale(0.001,-0.001)" />

<path d="M17,0L389,412L201,800H376L500,518L742,800H904L554,410L750,0H580L448,303L187,0Z" 
id="f3_2j"
transform="scale(0.001,-0.001)" />

<path d="M99,-328c0,0,-46,0,-76,13l25,123c0,0,29,-14,81,-14c0,0,47,0,76,31c0,0,28,31,106,162L185,800H339L415,141L769,800H918L456,0C456,0,329,-216,269,-272c0,0,-61,-56,-170,-56Z" 
id="f3_2k"
transform="scale(0.001,-0.001)" />

<path d="M47,0L58,55l11,55L675,688H237l11,56l11,56H869L857,745L846,690L245,111H740L729,56L718,0Z" 
id="f3_2l"
transform="scale(0.001,-0.001)" />

<path d="M780,449L714,934L435,449ZM22,0L673,1097H839L998,0H839L797,318H359L178,0Z" 
id="f3_10"
transform="scale(0.001,-0.001)" />

<path d="M248,0L21,799H169L322,163L478,799H627L788,158L950,799h133L857,0H713L548,624L392,0Z" 
id="f1_2i"
transform="scale(0.001,-0.001)" />

<path d="M118,0V799H246V662c0,0,17,32,36,58c0,0,76,102,187,102c0,0,19,0,38,-6V679l-27,1c0,0,-109,0,-168,-66c0,0,-60,-65,-60,-186V0Z" 
id="f1_2d"
transform="scale(0.001,-0.001)" />

<path d="M104,0V799H238V0Zm-2,946v152H239V946Z" 
id="f1_24"
transform="scale(0.001,-0.001)" />

<path d="M292,-9c0,0,-88,0,-124,38c0,0,-36,39,-36,134V689H22V799H132v224H266V799H392V689H266V163c0,0,0,-27,21,-43c0,0,21,-15,57,-15h48V1C392,1,324,-9,292,-9Z" 
id="f1_2f"
transform="scale(0.001,-0.001)" />

<path d="M649,461c0,0,-6,111,-55,172c0,0,-55,69,-160,69c0,0,-106,0,-170,-79c0,0,-50,-62,-60,-162ZM425,-20c0,0,-169,0,-266,106c0,0,-97,107,-97,297c0,0,0,201,102,320c0,0,103,119,276,119c0,0,157,0,253,-116c0,0,96,-117,96,-306l-1,-48H204c0,0,8,-119,54,-182c0,0,57,-76,180,-76c0,0,77,0,134,43c0,0,58,43,70,110H775C775,247,746,116,656,47c0,0,-90,-67,-231,-67Z" 
id="f1_20"
transform="scale(0.001,-0.001)" />

<path d="M99,0V1097H233V690l23,30c0,0,87,102,219,102c0,0,132,0,203,-71c0,0,72,-72,72,-204V0H616V514c0,0,0,99,-38,142c0,0,-38,44,-124,44c0,0,-102,0,-162,-73c0,0,-59,-74,-59,-199V0Z" 
id="f1_23"
transform="scale(0.001,-0.001)" />

<path d="M310,0L12,799H168L383,145L604,799H752L454,0Z" 
id="f1_2h"
transform="scale(0.001,-0.001)" />

<path d="M335,90c0,0,106,0,179,57c0,0,50,41,67,91c0,0,3,10,4,31c0,0,3,21,3,47v87c0,0,-38,-18,-83,-25L381,360c0,0,-97,-13,-142,-45c0,0,-44,-31,-44,-86c0,0,0,-67,36,-103c0,0,37,-36,104,-36ZM309,-20c0,0,-117,0,-186,61c0,0,-68,63,-68,169c0,0,0,108,64,171c0,0,65,64,189,79l183,23c0,0,22,3,42,8c0,0,26,7,40,27c0,0,15,20,15,51v6c0,0,0,64,-49,101c0,0,-48,36,-135,36c0,0,-83,0,-130,-38c0,0,-46,-39,-56,-115H94c0,0,10,131,92,197c0,0,83,66,238,66c0,0,145,0,222,-63c0,0,76,-63,76,-184V137c0,0,0,-21,12,-33c0,0,12,-12,33,-12c0,0,6,0,18,1c0,0,11,2,25,5V1c0,0,-20,-7,-41,-11c0,0,-22,-5,-37,-5c0,0,-76,0,-110,41c0,0,-22,28,-32,79c0,0,-15,-19,-34,-36c0,0,-101,-89,-247,-89Z" 
id="f1_1w"
transform="scale(0.001,-0.001)" />

<path d="M103,0V1097H237V0Z" 
id="f1_27"
transform="scale(0.001,-0.001)" />

<path d="M375,-20c0,0,-136,0,-203,66c0,0,-68,68,-68,204V799H238V284c0,0,0,-101,38,-146c0,0,39,-44,127,-44c0,0,97,0,153,75c0,0,57,75,57,203V799H747V0H620V122c0,0,-14,-22,-30,-41C590,81,504,-20,375,-20Z" 
id="f1_2g"
transform="scale(0.001,-0.001)" />

<path d="M424,94c0,0,107,0,169,83c0,0,63,83,63,223c0,0,0,140,-63,224c0,0,-62,83,-169,83c0,0,-106,0,-168,-83c0,0,-62,-84,-62,-224c0,0,0,-140,62,-223c0,0,62,-83,168,-83Zm0,-114c0,0,-165,0,-268,115C156,95,54,211,54,400c0,0,0,189,102,306c0,0,103,116,268,116c0,0,168,0,270,-116c0,0,102,-117,102,-306c0,0,0,-189,-102,-305C694,95,592,-20,424,-20Z" 
id="f1_2a"
transform="scale(0.001,-0.001)" />

<path d="M411,93c0,0,98,0,158,73c0,0,60,74,60,195c0,0,0,163,-57,252c0,0,-56,88,-161,88c0,0,-113,0,-165,-72c0,0,-52,-72,-52,-229c0,0,0,-147,56,-227c0,0,56,-80,161,-80ZM404,-20c0,0,-161,0,-255,118c0,0,-95,120,-95,324c0,0,0,179,92,290c0,0,91,110,239,110c0,0,147,0,233,-124l11,-15v414H763V0H638V109L621,84C621,84,538,-20,404,-20Z" 
id="f1_1z"
transform="scale(0.001,-0.001)" />

<path d="M133,0l33,162H326L292,0Z" 
id="f3_h"
transform="scale(0.001,-0.001)" />

<path d="M432,92c0,0,96,0,156,66c0,0,61,65,61,169c0,0,0,103,-61,169c0,0,-60,66,-156,66c0,0,-95,0,-156,-66c0,0,-61,-66,-61,-169c0,0,0,-104,61,-169c0,0,61,-66,156,-66ZM425,-28c0,0,-176,0,-271,135c0,0,-95,136,-95,388c0,0,0,278,103,429c0,0,103,151,293,151c0,0,142,0,226,-77c0,0,84,-76,90,-211H638c0,0,-8,80,-56,123c0,0,-47,43,-127,43c0,0,-125,0,-192,-119c0,0,-58,-102,-64,-278c0,0,100,127,255,127c0,0,152,0,245,-98c0,0,93,-98,93,-258c0,0,0,-161,-101,-259c0,0,-101,-96,-266,-96Z" 
id="f1_p"
transform="scale(0.001,-0.001)" />

<path d="M354,90c0,0,107,0,192,57c0,0,60,41,87,95c0,0,5,12,11,33c0,0,6,20,11,44l18,88c0,0,-62,-26,-132,-37L414,352c0,0,-84,-11,-131,-56c0,0,-47,-45,-47,-113c0,0,0,-44,31,-69c0,0,31,-24,87,-24ZM306,-20c0,0,-99,0,-156,47c0,0,-57,49,-57,134c0,0,1,117,81,198c0,0,80,81,211,98l164,20l70,10c0,0,35,6,59,30c0,0,23,24,31,66l1,2c0,0,13,64,-25,94c0,0,-39,31,-132,31c0,0,-83,0,-137,-37c0,0,-54,-37,-84,-114H210c0,0,46,137,138,201c0,0,92,63,245,63c0,0,149,0,211,-59c0,0,45,-44,44,-116c0,0,1,-30,-6,-63L749,136c0,0,-4,-19,6,-32c0,0,10,-12,30,-12c0,0,6,0,19,1c0,0,12,2,25,5L809,1c0,0,-19,-6,-43,-11c0,0,-22,-5,-36,-5c0,0,-73,0,-100,43c0,0,-16,27,-17,75C612,102,594,85,573,69c0,0,-120,-89,-267,-89Z" 
id="f3_1w"
transform="scale(0.001,-0.001)" />

<path d="M393,-20c0,0,-169,0,-252,65c0,0,-83,67,-92,210H178c0,0,10,-85,61,-123c0,0,50,-38,154,-38c0,0,90,0,136,34c0,0,47,35,47,100c0,0,0,42,-31,64c0,0,-30,21,-123,43L283,368c0,0,-112,27,-160,75c0,0,-48,48,-48,135c0,0,0,112,80,178c0,0,81,66,218,66c0,0,140,0,222,-68c0,0,82,-67,88,-187H557c0,0,-6,67,-55,103c0,0,-48,37,-129,37c0,0,-84,0,-127,-29c0,0,-44,-29,-44,-85c0,0,0,-43,31,-65c0,0,30,-21,121,-43L493,452c0,0,117,-28,167,-78c0,0,49,-49,49,-138c0,0,0,-119,-86,-188c0,0,-85,-68,-230,-68Z" 
id="f1_2e"
transform="scale(0.001,-0.001)" />

<path d="M394,-20c0,0,-159,0,-253,113c0,0,-95,114,-95,307c0,0,0,193,98,308c0,0,98,114,264,114c0,0,144,0,230,-78c0,0,85,-79,91,-217H600c0,0,-8,86,-59,133c0,0,-52,47,-138,47c0,0,-101,0,-159,-82c0,0,-58,-82,-58,-225c0,0,0,-152,54,-229c0,0,53,-77,159,-77c0,0,79,0,132,50c0,0,52,51,69,143H729C729,287,709,137,623,58c0,0,-86,-78,-229,-78Z" 
id="f1_1y"
transform="scale(0.001,-0.001)" />

<path d="M144,-381V1146H255V-381Z" 
id="f1_2n"
transform="scale(0.001,-0.001)" />

<path d="M96,177l23,112H892L869,177Zm63,307l23,112H955L932,484Z" 
id="f3_w"
transform="scale(0.001,-0.001)" />

<path d="M77,369l25,110H950L926,369Z" 
id="f3_99"
transform="scale(0.001,-0.001)" />

<path d="M99,0V799H226V681l30,39c0,0,87,102,219,102c0,0,132,0,203,-71c0,0,72,-72,72,-204V0H616V502c0,0,0,105,-41,151c0,0,-40,47,-132,47c0,0,-97,0,-154,-73c0,0,-56,-74,-56,-199V0Z" 
id="f1_29"
transform="scale(0.001,-0.001)" />

<path d="M573,-29c0,0,-194,0,-301,104c0,0,-107,105,-107,297c0,0,0,317,188,536c0,0,188,219,459,219c0,0,193,0,293,-93c0,0,93,-86,93,-240l-1,-25H1051c0,0,5,110,-64,170c0,0,-68,59,-202,59c0,0,-191,0,-329,-179C456,819,318,640,318,390c0,0,-1,-142,71,-217c0,0,73,-74,210,-74c0,0,132,0,233,80c0,0,100,80,154,227h145c0,0,-76,-209,-221,-323C910,83,765,-29,573,-29Z" 
id="f3_12"
transform="scale(0.001,-0.001)" />

<path d="M390,-1V329H60V441H390V771H503V441H833V329H503V-1Z" 
id="f1_e"
transform="scale(0.001,-0.001)" />

<path d="M102,0L267,800H402L237,0ZM300,946l31,151H467L436,946Z" 
id="f3_24"
transform="scale(0.001,-0.001)" />

<path d="M-33,-321c0,0,-31,0,-57,4l25,117h26c0,0,60,0,83,18c0,0,22,18,34,75L265,800H400L213,-107c0,0,-24,-117,-81,-166c0,0,-55,-48,-165,-48ZM298,946l32,151H465L434,946Z" 
id="f3_25"
transform="scale(0.001,-0.001)" />

<path d="M60,174V286H832V174Zm0,309V595H832V483Z" 
id="f1_w"
transform="scale(0.001,-0.001)" />

<path d="M96,-299V1104H382V995H217V-191H382V-299Z" 
id="f1_1q"
transform="scale(0.001,-0.001)" />

<path d="M42,-299v108H207V995H42v109H329V-299Z" 
id="f1_1s"
transform="scale(0.001,-0.001)" />

<path d="M212,0c0,0,51,270,162,500c0,0,109,222,281,422H57v131H799V934C799,934,623,726,515,498C515,498,408,269,362,0Z" 
id="f1_q"
transform="scale(0.001,-0.001)" />

<path d="M67,354V492H442V354Z" 
id="f1_g"
transform="scale(0.001,-0.001)" />

<path d="M418,95c0,0,98,0,158,73c0,0,59,73,59,193c0,0,0,170,-54,254c0,0,-54,85,-163,85c0,0,-113,0,-165,-72c0,0,-52,-71,-52,-227c0,0,0,-147,57,-227c0,0,56,-79,160,-79ZM394,-336c0,0,-136,0,-216,62c0,0,-79,63,-96,182H219c0,0,12,-64,57,-98c0,0,45,-35,116,-35c0,0,116,0,176,73c0,0,61,73,61,211V85l-1,-1C628,84,545,-20,412,-20c0,0,-161,0,-256,118c0,0,-94,120,-94,324c0,0,0,179,93,290c0,0,93,110,244,110c0,0,144,0,228,-124l10,-14V799H763V59c0,0,-1,-201,-91,-298c0,0,-91,-97,-278,-97Z" 
id="f1_22"
transform="scale(0.001,-0.001)" />

<path d="M99,0V799H226V680l28,36c0,0,90,106,215,106c0,0,107,0,171,-63c0,0,28,-28,44,-65l21,28c0,0,87,100,208,100c0,0,125,0,194,-68c0,0,68,-68,68,-194V0H1041V515c0,0,0,91,-37,138c0,0,-38,47,-110,47c0,0,-87,0,-139,-68c0,0,-52,-68,-52,-183V0H569V547c0,0,0,75,-34,114c0,0,-34,39,-99,39c0,0,-89,0,-146,-76c0,0,-57,-76,-57,-196V0Z" 
id="f1_28"
transform="scale(0.001,-0.001)" />

<path d="M17,0L301,412L32,799H205L389,514L574,799H740L471,410L749,0H581L382,305L186,0Z" 
id="f1_2j"
transform="scale(0.001,-0.001)" />

<path d="M424,-28c0,0,-180,0,-272,86c0,0,-92,87,-100,266H192c0,0,12,-126,66,-180c0,0,55,-54,170,-54c0,0,100,0,163,57c0,0,64,57,64,147c0,0,0,94,-61,149c0,0,-52,48,-135,54c0,0,-38,2,-72,2c0,0,-34,0,-45,-3V613c0,0,17,-3,51,-3c0,0,35,0,68,4c0,0,66,8,106,43c0,0,55,45,55,125c0,0,0,77,-58,125c0,0,-58,48,-148,48c0,0,-96,0,-147,-58c0,0,-51,-59,-56,-175H82c0,0,0,168,89,260c0,0,88,93,250,93c0,0,153,0,247,-77c0,0,94,-76,94,-202c0,0,0,-124,-95,-201c0,0,-18,-15,-39,-27c0,0,39,-17,69,-41c0,0,101,-79,101,-214c0,0,0,-151,-105,-246c0,0,-104,-95,-269,-95Z" 
id="f1_m"
transform="scale(0.001,-0.001)" />

<path d="M0,368V478H849V368Z" 
id="f1_99"
transform="scale(0.001,-0.001)" />

<path d="M431,94c0,0,95,0,170,76c0,0,76,77,101,198c0,0,35,167,-1,250c0,0,-37,84,-144,84c0,0,-128,0,-210,-117c0,0,-81,-117,-81,-302c0,0,0,-90,43,-139c0,0,44,-50,122,-50ZM400,-20c0,0,-126,0,-199,79c0,0,-73,80,-73,219c0,0,0,234,122,390c0,0,122,155,305,155c0,0,144,0,209,-127l8,-16l86,417H993L767,0H638l22,108L642,90C642,90,532,-20,400,-20Z" 
id="f3_1z"
transform="scale(0.001,-0.001)" />

<path d="M424,92c0,0,98,0,161,58c0,0,62,58,62,149c0,0,0,92,-62,151c0,0,-63,58,-161,58c0,0,-98,0,-160,-58c0,0,-63,-59,-63,-151c0,0,0,-91,63,-149c0,0,62,-58,160,-58Zm0,533c0,0,82,0,134,46c0,0,52,45,52,118c0,0,0,72,-52,118c0,0,-52,46,-134,46c0,0,-82,0,-134,-46c0,0,-52,-46,-52,-118c0,0,0,-73,52,-119c0,0,52,-45,134,-45Zm0,-653c0,0,-165,0,-265,90C159,62,59,154,59,305c0,0,0,134,100,216c0,0,35,28,78,47c0,0,-27,15,-52,33c0,0,-90,70,-90,185c0,0,0,130,90,209c0,0,91,80,239,80c0,0,148,0,238,-80c0,0,91,-79,91,-209c0,0,0,-115,-91,-185c0,0,-24,-19,-52,-32c0,0,44,-20,79,-49c0,0,101,-81,101,-215c0,0,0,-151,-101,-243c0,0,-100,-90,-265,-90Z" 
id="f1_r"
transform="scale(0.001,-0.001)" />

<path d="M412,-328c0,0,-195,96,-303,284C109,-44,0,142,0,365c0,0,0,232,114,422c0,0,114,191,298,273v-31c0,0,-92,-51,-151,-139c0,0,-59,-88,-88,-223c0,0,-29,-136,-29,-282c0,0,0,-167,27,-301c0,0,26,-133,82,-221c0,0,55,-89,159,-159v-32Z" 
id="f2_c"
transform="scale(0.001,-0.001)" />

<path d="M34,-328v32c0,0,92,50,151,138c0,0,59,88,88,222c0,0,29,135,29,283c0,0,0,165,-27,300c0,0,-26,134,-82,222c0,0,-56,89,-159,160v31c0,0,194,-96,303,-284c0,0,108,-187,108,-410c0,0,0,-232,-114,-422c0,0,-114,-191,-297,-272Z" 
id="f2_d"
transform="scale(0.001,-0.001)" />

<path d="M0,356v74H784V356Z" 
id="f2_h"
transform="scale(0.001,-0.001)" />

<path d="M419,483c0,0,93,0,152,66c0,0,59,66,59,169c0,0,0,103,-59,169c0,0,-59,65,-152,65c0,0,-94,0,-153,-65c0,0,-59,-66,-59,-169c0,0,0,-103,59,-169c0,0,59,-66,153,-66ZM397,-28c0,0,-143,0,-227,75c0,0,-85,77,-91,211H209c0,0,8,-83,57,-128c0,0,49,-45,131,-45c0,0,121,0,186,135c0,0,48,101,62,265C645,485,545,362,397,362c0,0,-150,0,-241,98c0,0,-91,98,-91,258c0,0,0,160,99,258c0,0,99,98,262,98c0,0,173,0,266,-123c0,0,94,-123,94,-349c0,0,0,-303,-101,-467C685,135,583,-28,397,-28Z" 
id="f1_s"
transform="scale(0.001,-0.001)" />

<path d="M583,-29c0,0,-228,0,-369,158C214,129,73,289,73,548c0,0,0,260,144,420c0,0,144,159,377,159c0,0,180,0,309,-100c0,0,130,-101,152,-258H912c0,0,-21,109,-106,168c0,0,-85,59,-221,59c0,0,-160,0,-260,-124c0,0,-99,-124,-99,-326c0,0,0,-215,96,-332c0,0,96,-117,270,-117c0,0,170,0,274,124c0,0,17,19,30,41c0,0,18,29,30,81c0,0,13,52,13,99v14H595V581h480V0H982L947,138l-9,-10C938,128,803,-29,583,-29Z" 
id="f1_16"
transform="scale(0.001,-0.001)" />

<path d="M406,93c0,0,97,0,156,73c0,0,59,74,59,195c0,0,0,163,-56,252c0,0,-55,88,-158,88c0,0,-111,0,-162,-72c0,0,-51,-73,-51,-229c0,0,0,-147,55,-227c0,0,55,-80,157,-80ZM621,-315V93l-7,-9C614,84,532,-20,400,-20c0,0,-159,0,-253,118c0,0,-93,119,-93,323c0,0,0,180,90,291c0,0,91,110,237,110c0,0,146,0,231,-124c0,0,10,-14,17,-29V799H755V-315Z" 
id="f1_2c"
transform="scale(0.001,-0.001)" />

<path d="M139,0L60,78L366,384L60,690l79,79L444,463L750,769l79,-79L523,384L829,78L750,0L444,305L139,0Z" 
id="f1_4r"
transform="scale(0.001,-0.001)" />

<path d="M424,92c0,0,114,0,170,107c0,0,57,108,56,323c0,0,1,216,-56,324c0,0,-56,107,-170,107c0,0,-112,0,-168,-107c0,0,-56,-108,-57,-324c0,0,1,-215,57,-323c0,0,56,-107,168,-107Zm0,-120c0,0,-176,0,-271,142c0,0,-96,143,-96,408c0,0,0,265,96,409c0,0,95,144,271,144c0,0,178,0,273,-144c0,0,96,-144,96,-409c0,0,0,-265,-96,-408c0,0,-95,-142,-273,-142Z" 
id="f1_j"
transform="scale(0.001,-0.001)" />

<path d="M116,0V1097H265V131H820V0Z" 
id="f1_1b"
transform="scale(0.001,-0.001)" />

<path d="M436,95c0,0,105,0,160,79c0,0,54,80,54,232c0,0,0,150,-52,222c0,0,-52,72,-161,72c0,0,-112,0,-163,-81c0,0,-51,-82,-51,-258c0,0,0,-127,55,-197c0,0,55,-69,158,-69Zm6,-115c0,0,-135,0,-215,102L215,98V0H89V1097H223V695c0,0,87,127,225,127c1,0,2,0,2,0c0,0,157,0,249,-108c0,0,91,-107,91,-291c0,0,0,-208,-92,-326C698,97,606,-20,442,-20Z" 
id="f1_1x"
transform="scale(0.001,-0.001)" />

<path d="M511,373V863L169,383l-7,-10ZM511,0V258H38V383l496,691H646V373H799V258H646V0Z" 
id="f1_n"
transform="scale(0.001,-0.001)" />

<path d="M0,-302V1034H328V970H119V-238H328v-64Z" 
id="f2_1r"
transform="scale(0.001,-0.001)" />

<path d="M56,-302v64H265V970H56v64H384V-302Z" 
id="f2_1t"
transform="scale(0.001,-0.001)" />

<path d="M617,129c0,0,118,0,194,71c0,0,75,70,75,182c0,0,1,59,-55,93c0,0,-56,34,-152,34H368L289,129Zm58,503c0,0,120,0,188,59c0,0,68,58,68,163c0,0,0,57,-50,85c0,0,-50,29,-146,29H462L393,632ZM113,0L340,1097H825c0,0,122,0,191,-55c0,0,69,-55,69,-153c0,0,0,-160,-113,-251c0,0,-35,-26,-77,-46c0,0,27,-12,52,-28c0,0,89,-61,89,-166c0,0,0,-171,-127,-285C909,113,782,0,591,0Z" 
id="f3_11"
transform="scale(0.001,-0.001)" />

<path d="M367,-20c0,0,-85,0,-142,12C225,-8,167,2,83,35V332c0,0,41,-55,107,-90c0,0,66,-35,130,-35c0,0,51,0,84,31c0,0,32,31,32,81c0,0,0,49,-23,86c0,0,-22,37,-82,83c0,0,-126,98,-184,181c0,0,-57,82,-57,165c0,0,0,155,106,253c0,0,106,98,272,98c0,0,62,0,133,-13c0,0,71,-13,120,-33V867c0,0,-59,49,-104,70c0,0,-46,20,-94,20c0,0,-47,0,-76,-24c0,0,-29,-25,-29,-63c0,0,0,-41,20,-73c0,0,21,-31,75,-73c0,0,130,-101,189,-189c0,0,59,-87,59,-180c0,0,0,-165,-110,-270C651,85,541,-20,367,-20Z" 
id="f4_1i"
transform="scale(0.001,-0.001)" />

<path d="M99,0c0,0,22,54,32,110c0,0,9,55,9,135V922c0,0,0,81,-10,136c0,0,-9,55,-31,109H489c0,0,-23,-54,-32,-109c0,0,-9,-55,-9,-136V712H790V922c0,0,0,81,-9,136c0,0,-10,55,-32,109h390c0,0,-22,-54,-32,-109c0,0,-9,-55,-9,-136V245c0,0,0,-80,9,-135c0,0,10,-56,32,-110H749c0,0,22,54,32,110c0,0,9,55,9,135V478H448V245c0,0,0,-80,9,-135c0,0,9,-56,32,-110Z" 
id="f4_17"
transform="scale(0.001,-0.001)" />

<path d="M822,206c14,0,28,0,42,1c0,0,53,50,87,150c0,0,34,101,34,210c0,0,0,188,-132,297c0,0,-113,95,-296,95c-13,0,-27,-1,-42,-2c0,0,-53,-49,-86,-150c0,0,-34,-102,-34,-212c0,0,0,-186,132,-295c0,0,114,-94,295,-94ZM690,-20c0,0,-276,0,-452,168C238,148,63,317,63,581c0,0,0,266,175,435c0,0,176,169,452,169c0,0,277,0,452,-169c0,0,175,-169,175,-435c0,0,0,-264,-175,-433c0,0,-175,-168,-452,-168Z" 
id="f4_1e"
transform="scale(0.001,-0.001)" />

<path d="M452,645c0,0,85,0,139,47c0,0,54,47,54,121c0,0,0,66,-51,107c0,0,-51,42,-132,42H442V645ZM93,0c0,0,22,54,32,110c0,0,9,55,9,135V922c0,0,0,81,-9,136c0,0,-10,55,-32,109H498c0,0,215,0,332,-90c0,0,117,-90,117,-256c0,0,0,-159,-129,-253c0,0,-46,-34,-103,-54L902,246c0,0,57,-82,107,-137c0,0,50,-55,115,-109H803c0,0,-30,0,-104,83c0,0,-73,83,-149,202L442,461V246c0,0,0,-81,9,-136c0,0,10,-56,32,-110Z" 
id="f4_1h"
transform="scale(0.001,-0.001)" />

<path d="M289,0c0,0,26,60,37,116c0,0,9,55,9,129V961c0,0,-94,-3,-160,-9c0,0,-116,-13,-188,-44l41,130l41,129H981L946,1042L912,917c0,0,-45,18,-154,32c0,0,-58,8,-115,11V245c0,0,0,-74,11,-129c0,0,10,-56,35,-116Z" 
id="f4_1j"
transform="scale(0.001,-0.001)" />

<path d="M693,499L573,830L462,499ZM-39,0c0,0,33,42,61,97c0,0,30,55,71,148l314,761c0,0,22,51,38,98c0,0,15,47,17,63H721c0,0,2,-16,18,-63c0,0,15,-47,37,-98L1091,245c0,0,41,-95,70,-150c0,0,30,-55,60,-95H849c0,0,3,25,-3,55c0,0,-6,30,-24,80L765,295H393L340,135c0,0,-17,-50,-22,-80c0,0,-5,-30,-2,-55Z" 
id="f4_10"
transform="scale(0.001,-0.001)" />

<path d="M108,0c0,0,22,54,31,110c0,0,10,55,10,135V985L-5,1167H418c0,0,21,-44,54,-99c0,0,34,-55,96,-146L857,495V922c0,0,0,81,-9,136c0,0,-9,55,-32,109h378c0,0,-23,-54,-32,-109c0,0,-9,-55,-9,-136V351c0,0,0,-76,11,-178c0,0,11,-101,27,-173H845c0,0,-7,25,-28,67c0,0,-21,42,-45,78L444,628V245c0,0,0,-80,9,-135c0,0,10,-56,32,-110Z" 
id="f4_1d"
transform="scale(0.001,-0.001)" />

<path d="M324,0L78,922c0,0,-23,85,-44,140c0,0,-22,55,-50,105H376c0,0,-7,-56,-7,-99c0,0,1,-42,11,-89L479,513L610,998c0,0,11,42,21,91c0,0,10,49,13,78H861c0,0,4,-36,12,-85c0,0,9,-50,18,-84L1021,492l115,540c0,0,8,33,6,63c0,0,-1,31,-12,72h378c0,0,-30,-50,-52,-105c0,0,-21,-56,-45,-140L1166,0H925L741,597L565,0Z" 
id="f4_1m"
transform="scale(0.001,-0.001)" />

<path d="M102,0c0,0,22,54,31,110c0,0,10,55,10,135V922c0,0,0,81,-10,136c0,0,-9,55,-31,109H823L766,1041L709,913c0,0,-42,20,-137,36c0,0,-62,9,-121,13V697H798L728,569L657,441c0,0,-45,21,-131,36c0,0,-38,8,-75,11V206c0,0,117,6,201,22c0,0,126,24,239,84L827,156L762,0Z" 
id="f4_14"
transform="scale(0.001,-0.001)" />

<path d="M319,0c0,0,22,54,31,110c0,0,10,55,10,135V518L134,922c0,0,-57,100,-95,155c0,0,-37,55,-71,90H351c0,0,4,-29,12,-53c0,0,7,-24,22,-54L517,787l152,273c0,0,14,25,23,49c0,0,9,24,16,58h354c0,0,-35,-33,-73,-88c0,0,-38,-56,-99,-157L668,536V245c0,0,0,-80,9,-135c0,0,9,-56,32,-110Z" 
id="f4_1o"
transform="scale(0.001,-0.001)" />

<path d="M462,650c0,0,82,0,133,46c0,0,52,47,52,119c0,0,0,65,-48,106c0,0,-49,41,-125,41H452V650ZM103,0c0,0,22,54,32,110c0,0,9,55,9,135V922c0,0,0,81,-10,136c0,0,-9,55,-31,109H505c0,0,212,0,327,-93c0,0,114,-94,114,-268c0,0,0,-166,-127,-264c0,0,-127,-97,-343,-97H452V246c0,0,0,-81,9,-136c0,0,9,-56,32,-110Z" 
id="f4_1f"
transform="scale(0.001,-0.001)" />

<path d="M821,206c13,0,26,0,40,1c0,0,53,33,86,127c0,0,34,94,34,210c0,0,0,198,-131,314c0,0,-114,101,-297,101c-13,0,-27,-1,-40,-2c0,0,-53,-49,-87,-144c0,0,-33,-95,-33,-195c0,0,0,-197,131,-312c0,0,115,-100,297,-100Zm413,-442c-84,0,-186,15,-288,68c0,0,-113,58,-202,151c0,0,-22,-3,-48,-3c-3,0,-6,0,-9,0c0,0,-276,0,-452,168C235,148,60,316,60,581c0,0,0,266,175,435c0,0,176,169,452,169c0,0,277,0,452,-169c0,0,175,-169,175,-435c0,0,0,-265,-176,-433c0,0,-29,-28,-59,-51c0,0,51,-79,111,-141c0,0,104,-109,233,-165c0,0,-78,-27,-189,-27Z" 
id="f4_1g"
transform="scale(0.001,-0.001)" />

<path d="M512,-17c0,0,-191,0,-285,112c0,0,-94,113,-93,341V922c0,0,0,81,-9,136c0,0,-10,55,-32,109H483c0,0,-22,-54,-32,-109c0,0,-9,-56,-9,-136V502c0,0,0,-147,43,-219c0,0,43,-72,130,-72c0,0,85,0,127,62c0,0,42,61,42,187V922c0,0,0,80,-9,136c0,0,-10,55,-32,109h390c0,0,-22,-54,-31,-109c0,0,-10,-55,-10,-136V245c0,0,0,-80,9,-135c0,0,10,-56,32,-110H815l6,86C821,86,703,-17,512,-17Z" 
id="f4_1k"
transform="scale(0.001,-0.001)" />

<path d="M105,0c0,0,22,54,32,110c0,0,9,55,9,135V922c0,0,0,80,-10,135c0,0,-9,55,-31,110H495c0,0,-23,-54,-32,-109c0,0,-9,-55,-9,-136V245c0,0,0,-80,9,-135c0,0,9,-56,32,-110Z" 
id="f4_18"
transform="scale(0.001,-0.001)" />

<path d="M449,-255c0,0,-184,222,-259,382c0,0,-75,160,-75,331c0,0,0,172,75,332c0,0,75,161,259,382H673c0,0,-156,-201,-220,-362c0,0,-64,-160,-64,-352c0,0,0,-192,64,-352c0,0,64,-160,220,-361Z" 
id="f5_b"
transform="scale(0.001,-0.001)" />

<path d="M531,588l1,309L333,598l-7,-10ZM489,0c0,0,9,23,15,78c0,0,6,54,6,111V373H75V599c0,0,135,154,226,273c0,0,89,118,202,290H787L797,588h19c0,0,40,0,80,4c0,0,39,5,58,12V356c0,0,-18,7,-57,12c0,0,-39,5,-77,5H801V189c0,0,0,-57,2,-111c0,0,2,-55,5,-78Z" 
id="f5_n"
transform="scale(0.001,-0.001)" />

<path d="M90,0c0,0,22,54,32,110c0,0,9,55,9,135V996L-14,1167H428c0,0,2,-38,9,-63c0,0,8,-24,24,-44L752,691l296,369c0,0,23,28,33,53c0,0,10,24,11,54h346c0,0,-50,-120,-70,-208c0,0,-20,-88,-20,-184V245c0,0,0,-80,10,-135c0,0,9,-56,31,-110H999c0,0,23,54,32,110c0,0,9,55,9,135V675L741,291h-1L441,681V245c0,0,0,-80,9,-135c0,0,10,-56,32,-110Z" 
id="f5_1c"
transform="scale(0.001,-0.001)" />

<path d="M693,499L573,830L462,499ZM-39,0c0,0,33,42,61,97c0,0,30,55,71,148l314,761c0,0,22,51,38,98c0,0,15,47,17,63H721c0,0,2,-16,18,-63c0,0,15,-47,37,-98L1091,245c0,0,41,-95,70,-150c0,0,30,-55,60,-95H849c0,0,3,25,-3,55c0,0,-6,30,-24,80L765,295H393L340,135c0,0,-17,-50,-22,-80c0,0,-5,-30,-2,-55Z" 
id="f5_10"
transform="scale(0.001,-0.001)" />

<path d="M452,645c0,0,85,0,139,47c0,0,54,47,54,121c0,0,0,66,-51,107c0,0,-51,42,-132,42H442V645ZM93,0c0,0,22,54,32,110c0,0,9,55,9,135V922c0,0,0,81,-9,136c0,0,-10,55,-32,109H498c0,0,215,0,332,-90c0,0,117,-90,117,-256c0,0,0,-159,-129,-253c0,0,-46,-34,-103,-54L902,246c0,0,57,-82,107,-137c0,0,50,-55,115,-109H803c0,0,-30,0,-104,83c0,0,-73,83,-149,202L442,461V246c0,0,0,-81,9,-136c0,0,10,-56,32,-110Z" 
id="f5_1h"
transform="scale(0.001,-0.001)" />

<path d="M90,0c0,0,22,54,32,110c0,0,9,55,9,135V922c0,0,0,81,-9,136c0,0,-10,55,-32,109H480c0,0,-22,-54,-32,-109c0,0,-9,-55,-9,-136V739l269,348c0,0,23,27,33,45c0,0,11,18,14,35h396c0,0,-38,-23,-94,-79c0,0,-55,-55,-153,-166L651,635L957,245c0,0,84,-105,135,-160c0,0,51,-55,93,-85H749c0,0,-25,51,-60,107c0,0,-35,55,-95,138L439,463V245c0,0,0,-80,9,-135c0,0,10,-56,32,-110Z" 
id="f5_1a"
transform="scale(0.001,-0.001)" />

<path d="M367,-20c0,0,-85,0,-142,12C225,-8,167,2,83,35V332c0,0,41,-55,107,-90c0,0,66,-35,130,-35c0,0,51,0,84,31c0,0,32,31,32,81c0,0,0,49,-23,86c0,0,-22,37,-82,83c0,0,-126,98,-184,181c0,0,-57,82,-57,165c0,0,0,155,106,253c0,0,106,98,272,98c0,0,62,0,133,-13c0,0,71,-13,120,-33V867c0,0,-59,49,-104,70c0,0,-46,20,-94,20c0,0,-47,0,-76,-24c0,0,-29,-25,-29,-63c0,0,0,-41,20,-73c0,0,21,-31,75,-73c0,0,130,-101,189,-189c0,0,59,-87,59,-180c0,0,0,-165,-110,-270C651,85,541,-20,367,-20Z" 
id="f5_1i"
transform="scale(0.001,-0.001)" />

<path d="M115,-255c0,0,156,201,220,361c0,0,64,160,64,352c0,0,0,192,-64,352c0,0,-64,161,-220,362H339c0,0,184,-222,259,-383c0,0,75,-160,75,-331c0,0,0,-171,-75,-332c0,0,-75,-160,-259,-381Z" 
id="f5_c"
transform="scale(0.001,-0.001)" />

<path d="M131,0V1097H891V966H280V631H814V500H280V0Z" 
id="f1_15"
transform="scale(0.001,-0.001)" />

<path d="M86,-226l16,71c0,0,47,8,74,52c0,0,21,34,38,103H135l18,82l17,81H329L295,11c0,0,-23,-106,-70,-158c0,0,-45,-52,-139,-79Z" 
id="f3_f"
transform="scale(0.001,-0.001)" />

<path d="M250,0L191,800H336L357,162L653,800H797L819,163l296,637h134L855,0H715L685,627L389,0Z" 
id="f3_2i"
transform="scale(0.001,-0.001)" />

<path d="M564,-29c0,0,-227,0,-362,155C202,126,67,283,67,548c0,0,0,265,140,422c0,0,140,157,376,157c0,0,186,0,305,-95c0,0,120,-96,144,-263H889c0,0,-21,109,-101,168c0,0,-81,59,-207,59c0,0,-165,0,-263,-121c0,0,-98,-122,-98,-327c0,0,0,-219,91,-333c0,0,91,-114,263,-114c0,0,128,0,212,78c0,0,85,79,113,224h142c0,0,-28,-203,-155,-318C886,85,758,-29,564,-29Z" 
id="f1_12"
transform="scale(0.001,-0.001)" />

<path d="M152,-323c-8,0,-38,1,-63,8v125c0,0,30,-11,77,-12c0,0,45,0,76,37c0,0,30,38,69,140l2,12v1L17,799H170L383,139L600,799H747L443,-25c0,0,-70,-184,-125,-241c0,0,-55,-57,-164,-57c0,0,-1,0,-2,0Z" 
id="f1_2k"
transform="scale(0.001,-0.001)" />

<path d="M0,-123V985c0,0,0,202,88,304c0,0,88,101,278,126v-33c0,0,-112,-27,-179,-86c0,0,-67,-59,-91,-136c0,0,-24,-76,-24,-252V-123Z" 
id="f2_4u"
transform="scale(0.001,-0.001)" />

<path d="M45,0V72H795V0Zm0,166v82L673,558L45,870v81L795,578V540L45,166Z" 
id="f2_39"
transform="scale(0.001,-0.001)" />

<path d="M0,-123V1415H73V-123Z" 
id="f2_4x"
transform="scale(0.001,-0.001)" />

<path d="M293,-123V191c0,0,0,200,-67,292c0,0,-67,92,-226,135v57c0,0,159,44,226,135c0,0,67,92,67,292v313h73V1088c0,0,0,-108,-23,-189c0,0,-22,-80,-61,-127c0,0,-39,-46,-95,-75c0,0,-56,-28,-153,-51c0,0,97,-21,157,-52c0,0,61,-31,99,-82c0,0,39,-51,57,-125c0,0,19,-74,19,-180V-123Z" 
id="f2_4v"
transform="scale(0.001,-0.001)" />

<path d="M751,0L0,371v39L751,783V702L122,392L751,80V0Z" 
id="f2_w"
transform="scale(0.001,-0.001)" />

<path d="M679,-123c0,0,-190,24,-278,124c0,0,-88,101,-88,305V1415h72V383c0,0,0,-111,12,-191c0,0,11,-79,46,-133c0,0,35,-53,94,-91c0,0,59,-39,142,-58v-33Z" 
id="f2_4w"
transform="scale(0.001,-0.001)" />

<path d="M412,-18c0,0,-144,0,-239,85c0,0,-95,86,-108,222l133,18c0,0,24,-114,79,-164c0,0,55,-50,135,-50c0,0,96,0,161,65c0,0,65,66,65,163c0,0,0,92,-61,152c0,0,-60,60,-153,60c0,0,-38,0,-95,-15l15,119c0,0,13,-2,21,-2c0,0,86,0,155,45c0,0,69,44,69,137c0,0,0,74,-50,122c0,0,-50,49,-129,49c0,0,-79,0,-131,-50c0,0,-52,-49,-67,-147L78,815c0,0,25,135,112,209c0,0,87,74,217,74c0,0,89,0,164,-38c0,0,76,-39,116,-105c0,0,40,-66,40,-141c0,0,0,-70,-39,-129c0,0,-38,-58,-112,-92c0,0,97,-22,151,-93c0,0,53,-70,53,-176c0,0,0,-143,-104,-243c0,0,-105,-99,-264,-99Z" 
id="f6_n"
transform="scale(0.001,-0.001)" />

<path d="M125,0V1051H268V115H799V0Z" 
id="f0_1c"
transform="scale(0.001,-0.001)" />

<path d="M106,0V620c0,0,0,85,-5,188H228c0,0,6,-138,6,-165h3c0,0,32,103,74,141c0,0,42,38,118,38c0,0,27,0,54,-7V692c0,0,-26,7,-71,7c0,0,-84,0,-128,-72c0,0,-44,-72,-44,-206V0Z" 
id="f0_2e"
transform="scale(0.001,-0.001)" />

<path d="M606,-14c0,0,-164,0,-284,65c0,0,-119,66,-182,189c0,0,-63,123,-63,291c0,0,0,255,137,396c0,0,137,140,386,140c0,0,174,0,283,-59c0,0,109,-59,168,-189L915,779c0,0,-44,90,-123,131c0,0,-79,41,-196,41c0,0,-182,0,-278,-110c0,0,-96,-110,-96,-310c0,0,0,-200,102,-315c0,0,102,-115,282,-115c0,0,103,0,193,31c0,0,89,31,144,85V407H629V526h445V164c0,0,-83,-85,-205,-132c0,0,-121,-46,-263,-46Z" 
id="f0_17"
transform="scale(0.001,-0.001)" />

<path d="M355,-14c0,0,-133,0,-194,65c0,0,-62,66,-62,219V808H234V296c0,0,0,-80,16,-124c0,0,16,-44,50,-64c0,0,34,-19,101,-19c0,0,97,0,153,66c0,0,55,67,55,185V808H744V172c0,0,0,-141,4,-172H621c0,0,0,4,-1,20c0,0,-1,17,-2,38c0,0,-1,21,-3,80h-2C613,138,567,55,506,20c0,0,-61,-34,-151,-34Z" 
id="f0_2h"
transform="scale(0.001,-0.001)" />

<path d="M395,89c0,0,115,0,166,79c0,0,51,79,51,246c0,0,0,160,-51,235c0,0,-51,75,-164,75c0,0,-102,0,-147,-75c0,0,-45,-75,-45,-244c0,0,0,-170,45,-243c0,0,45,-73,145,-73ZM361,-14c0,0,-153,0,-225,102c0,0,-72,103,-72,312c0,0,0,422,297,422c0,0,92,0,153,-33c0,0,61,-34,98,-107h2l-2,90v335H747V166c0,0,0,-126,4,-166H623c0,0,-2,12,-5,55c0,0,-3,44,-3,75h-3c0,0,-37,-78,-98,-111c0,0,-62,-33,-153,-33Z" 
id="f0_20"
transform="scale(0.001,-0.001)" />

<path d="M140,0V163H285V0Z" 
id="f0_i"
transform="scale(0.001,-0.001)" />


</defs>
</svg>