<?xml version="1.0" encoding="UTF-8" standalone="no"?>
<!DOCTYPE svg PUBLIC "-//W3C//DTD SVG 1.1//EN"
"http://www.w3.org/Graphics/SVG/1.1/DTD/svg11.dtd">
<svg viewBox="0 0 697 1056" version="1.1" xmlns="http://www.w3.org/2000/svg" xmlns:xlink="http://www.w3.org/1999/xlink">
<defs>
<style type="text/css"><![CDATA[
.g0_55{
fill: none;
stroke: #000000;
stroke-width: 0.7638889;
stroke-linecap: round;
stroke-linejoin: miter;
}
.g1_55{
fill: none;
stroke: #000000;
stroke-width: 0.7668222;
stroke-linecap: round;
stroke-linejoin: miter;
}
.g2_55{
fill: none;
stroke: #000000;
stroke-width: 0.76144445;
stroke-linecap: round;
stroke-linejoin: miter;
}
.g3_55{
fill: none;
stroke: #000000;
stroke-width: 0.15277778;
stroke-linecap: round;
stroke-linejoin: miter;
}
.g4_55{
}
.g5_55{
fill: none;
stroke: #000000;
stroke-width: 0.77000004;
stroke-linecap: round;
stroke-linejoin: miter;
}
.g6_55{
fill: none;
stroke: #000000;
stroke-width: 0.7660889;
stroke-linecap: round;
stroke-linejoin: miter;
}
]]></style>
</defs>
<g fill="#D4D4D4" fill-opacity="0.56" >
<use xlink:href="#f0_1f" transform="matrix(50.9,-50.9,50.9,50.9,86.2,924.1)" />
<use xlink:href="#f0_2a" transform="matrix(50.9,-50.9,50.9,50.9,146.7,863.6)" />
<use xlink:href="#f0_28" transform="matrix(50.9,-50.9,50.9,50.9,189.9,820.3)" />
<use xlink:href="#f0_25" transform="matrix(50.9,-50.9,50.9,50.9,207.2,803.1)" />
<use xlink:href="#f0_2a" transform="matrix(50.9,-50.9,50.9,50.9,224.5,785.8)" />
<use xlink:href="#f0_21" transform="matrix(50.9,-50.9,50.9,50.9,267.7,742.5)" />
<use xlink:href="#f0_2k" transform="matrix(50.9,-50.9,50.9,50.9,311,699.3)" />
<use xlink:href="#f0_1x" transform="matrix(50.9,-50.9,50.9,50.9,349.9,660.4)" />
<use xlink:href="#f0_29" transform="matrix(50.9,-50.9,50.9,50.9,393.1,617.2)" />
<use xlink:href="#f0_2c" transform="matrix(50.9,-50.9,50.9,50.9,457.9,552.4)" />
<use xlink:href="#f0_2b" transform="matrix(50.9,-50.9,50.9,50.9,501.1,509.1)" />
<use xlink:href="#f0_25" transform="matrix(50.9,-50.9,50.9,50.9,544.4,465.9)" />
<use xlink:href="#f0_2a" transform="matrix(50.9,-50.9,50.9,50.9,561.7,448.6)" />
<use xlink:href="#f0_2g" transform="matrix(50.9,-50.9,50.9,50.9,604.9,405.4)" />
</g>
<g fill="#000000" >
<use xlink:href="#f1_q" transform="matrix(10.4,0,0,10.4,42.8,45.1)" />
<use xlink:href="#f1_r" transform="matrix(10.4,0,0,10.4,51.7,45.1)" />
<use xlink:href="#f1_h" transform="matrix(10.4,0,0,10.4,60.9,45.1)" />
</g>
<path d="M97.7,40.9h10.8m56.1,-8.1l-5.1,15.8" class="g0_55" />
<g fill="#000000" >
<use xlink:href="#f2_h" transform="matrix(10.5,0,0,10.4,86.3,45.2)" />
<use xlink:href="#f2_2c" transform="matrix(10.5,0,0,10.4,98.7,57.4)" />
<use xlink:href="#f1_m" transform="matrix(10.4,0,0,10.4,98.7,34.9)" />
<use xlink:href="#f1_28" transform="matrix(10.4,0,0,10.4,110.3,45.2)" />
<use xlink:href="#f1_20" transform="matrix(10.4,0,0,10.4,123.6,45.2)" />
<use xlink:href="#f1_2f" transform="matrix(10.4,0,0,10.4,132.6,45.2)" />
<use xlink:href="#f1_2d" transform="matrix(10.4,0,0,10.4,137.1,45.2)" />
<use xlink:href="#f1_20" transform="matrix(10.4,0,0,10.4,142.4,45.2)" />
<use xlink:href="#f1_2e" transform="matrix(10.4,0,0,10.4,151.4,45.2)" />
<use xlink:href="#f1_28" transform="matrix(10.4,0,0,10.4,165.3,45.2)" />
<use xlink:href="#f1_24" transform="matrix(10.4,0,0,10.4,178.6,45.2)" />
<use xlink:href="#f1_29" transform="matrix(10.4,0,0,10.4,182.1,45.2)" />
<use xlink:href="#f1_h" transform="matrix(10.4,0,0,10.4,191.7,45.2)" />
<use xlink:href="#f1_q" transform="matrix(10.4,0,0,10.4,42.8,85.8)" />
<use xlink:href="#f1_s" transform="matrix(10.4,0,0,10.4,51.7,85.8)" />
<use xlink:href="#f1_h" transform="matrix(10.4,0,0,10.4,60.9,85.8)" />
<use xlink:href="#f3_2j" transform="matrix(10.4,0,0,10.4,83.5,85.8)" />
<use xlink:href="#f1_e" transform="matrix(10.4,0,0,10.4,98.4,85.8)" />
<use xlink:href="#f3_2k" transform="matrix(10.4,0,0,10.4,114.5,85.8)" />
<use xlink:href="#f1_2f" transform="matrix(10.4,0,0,10.4,129.4,85.8)" />
<use xlink:href="#f1_1w" transform="matrix(10.4,0,0,10.4,133.8,85.8)" />
<use xlink:href="#f1_29" transform="matrix(10.4,0,0,10.4,142.7,85.8)" />
<use xlink:href="#f2_2d" transform="matrix(10.4,0,0,10.4,151.4,85.8)" />
<use xlink:href="#f1_99" transform="matrix(10.4,0,0,10.4,166.4,85.8)" />
<use xlink:href="#f3_1w" transform="matrix(10.4,0,0,10.4,182.2,85.8)" />
<use xlink:href="#f1_2e" transform="matrix(10.4,0,0,10.4,197.8,85.8)" />
<use xlink:href="#f1_20" transform="matrix(10.4,0,0,10.4,205.7,85.8)" />
<use xlink:href="#f1_1y" transform="matrix(10.4,0,0,10.4,214.6,85.8)" />
<use xlink:href="#f2_2d" transform="matrix(10.4,0,0,10.4,222.7,85.8)" />
<use xlink:href="#f1_w" transform="matrix(10.4,0,0,10.4,237.7,85.8)" />
<use xlink:href="#f1_j" transform="matrix(10.4,0,0,10.4,254,85.8)" />
<use xlink:href="#f1_h" transform="matrix(10.4,0,0,10.4,262.9,85.8)" />
<use xlink:href="#f1_r" transform="matrix(10.4,0,0,10.4,42.8,119.7)" />
<use xlink:href="#f1_j" transform="matrix(10.4,0,0,10.4,51.7,119.7)" />
<use xlink:href="#f1_h" transform="matrix(10.4,0,0,10.4,60.9,119.7)" />
<use xlink:href="#f1_b" transform="matrix(10.4,0,0,10.4,83.5,119.7)" />
<use xlink:href="#f1_j" transform="matrix(10.4,0,0,10.4,88.9,119.7)" />
<use xlink:href="#f1_f" transform="matrix(10.4,0,0,10.4,97.7,119.7)" />
<use xlink:href="#f1_j" transform="matrix(10.4,0,0,10.4,109.3,119.7)" />
<use xlink:href="#f1_c" transform="matrix(10.4,0,0,10.4,118.2,119.7)" />
<use xlink:href="#f1_f" transform="matrix(10.4,0,0,10.4,123.5,119.7)" />
<use xlink:href="#f1_b" transform="matrix(10.4,0,0,10.4,134.9,119.7)" />
<use xlink:href="#f1_99" transform="matrix(10.4,0,0,10.4,140.2,119.7)" />
<use xlink:href="#f1_k" transform="matrix(10.4,0,0,10.4,149.1,119.7)" />
<use xlink:href="#f1_f" transform="matrix(10.4,0,0,10.4,157.9,119.7)" />
<use xlink:href="#f1_99" transform="matrix(10.4,0,0,10.4,169.5,119.7)" />
<use xlink:href="#f1_l" transform="matrix(10.4,0,0,10.4,178.4,119.7)" />
<use xlink:href="#f1_c" transform="matrix(10.4,0,0,10.4,187.3,119.7)" />
<use xlink:href="#f1_1w" transform="matrix(10.4,0,0,10.4,199.7,119.7)" />
<use xlink:href="#f1_29" transform="matrix(10.4,0,0,10.4,208.6,119.7)" />
<use xlink:href="#f1_1z" transform="matrix(10.4,0,0,10.4,217.4,119.7)" />
<use xlink:href="#f1_b" transform="matrix(10.4,0,0,10.4,233.3,119.7)" />
<use xlink:href="#f1_k" transform="matrix(10.4,0,0,10.4,238.6,119.7)" />
<use xlink:href="#f1_f" transform="matrix(10.4,0,0,10.4,247.5,119.7)" />
<use xlink:href="#f1_l" transform="matrix(10.4,0,0,10.4,259,119.7)" />
<use xlink:href="#f1_c" transform="matrix(10.4,0,0,10.4,267.9,119.7)" />
<use xlink:href="#f1_h" transform="matrix(10.4,0,0,10.4,273.2,119.7)" />
<use xlink:href="#f1_r" transform="matrix(10.4,0,0,10.4,42.8,153.6)" />
<use xlink:href="#f1_k" transform="matrix(10.4,0,0,10.4,51.7,153.6)" />
<use xlink:href="#f1_h" transform="matrix(10.4,0,0,10.4,60.9,153.6)" />
<use xlink:href="#f3_2j" transform="matrix(10.4,0,0,10.4,83.5,153.6)" />
<use xlink:href="#f1_e" transform="matrix(10.4,0,0,10.4,98.2,153.6)" />
<use xlink:href="#f3_2k" transform="matrix(10.4,0,0,10.4,114.2,153.6)" />
<use xlink:href="#f1_w" transform="matrix(10.4,0,0,10.4,129,153.6)" />
<use xlink:href="#f1_m" transform="matrix(10.4,0,0,10.4,145.1,153.6)" />
<use xlink:href="#f1_r" transform="matrix(10.4,0,0,10.4,42.8,187.6)" />
<use xlink:href="#f1_l" transform="matrix(10.4,0,0,10.4,51.7,187.6)" />
<use xlink:href="#f1_h" transform="matrix(10.4,0,0,10.4,60.9,187.6)" />
<use xlink:href="#f1_o" transform="matrix(10.4,0,0,10.4,83.5,187.6)" />
<use xlink:href="#f3_2j" transform="matrix(10.4,0,0,10.4,92.3,187.6)" />
<use xlink:href="#f3_99" transform="matrix(10.4,0,0,10.4,107.1,187.6)" />
<use xlink:href="#f3_2k" transform="matrix(10.4,0,0,10.4,122.9,187.6)" />
<use xlink:href="#f1_99" transform="matrix(10.4,0,0,10.4,137.8,187.6)" />
<use xlink:href="#f1_k" transform="matrix(10.4,0,0,10.4,153.7,187.6)" />
<use xlink:href="#f1_j" transform="matrix(10.4,0,0,10.4,162.5,187.6)" />
<use xlink:href="#f1_w" transform="matrix(10.4,0,0,10.4,178.2,187.6)" />
<use xlink:href="#f1_j" transform="matrix(10.4,0,0,10.4,194.5,187.6)" />
<use xlink:href="#f1_1w" transform="matrix(10.4,0,0,10.4,210.1,187.6)" />
<use xlink:href="#f1_29" transform="matrix(10.4,0,0,10.4,219,187.6)" />
<use xlink:href="#f1_1z" transform="matrix(10.4,0,0,10.4,227.8,187.6)" />
<use xlink:href="#f1_k" transform="matrix(10.4,0,0,10.4,243.7,187.6)" />
<use xlink:href="#f1_o" transform="matrix(10.4,0,0,10.4,252.5,187.6)" />
<use xlink:href="#f3_2j" transform="matrix(10.4,0,0,10.4,260.8,187.6)" />
<use xlink:href="#f1_e" transform="matrix(10.4,0,0,10.4,275.7,187.6)" />
<use xlink:href="#f1_m" transform="matrix(10.4,0,0,10.4,292,187.6)" />
<use xlink:href="#f3_2k" transform="matrix(10.4,0,0,10.4,300.8,187.6)" />
<use xlink:href="#f1_e" transform="matrix(10.4,0,0,10.4,315.6,187.6)" />
<use xlink:href="#f1_l" transform="matrix(10.4,0,0,10.4,331.9,187.6)" />
<use xlink:href="#f1_j" transform="matrix(10.4,0,0,10.4,340.8,187.6)" />
<use xlink:href="#f1_w" transform="matrix(10.4,0,0,10.4,356.4,187.6)" />
<use xlink:href="#f1_j" transform="matrix(10.4,0,0,10.4,372.7,187.6)" />
<use xlink:href="#f1_r" transform="matrix(10.4,0,0,10.4,42.8,247.5)" />
<use xlink:href="#f1_m" transform="matrix(10.4,0,0,10.4,51.7,247.5)" />
<use xlink:href="#f1_h" transform="matrix(10.4,0,0,10.4,60.9,247.5)" />
</g>
<path d="M86.6,240.1h27.1m16.6,0h27.4" class="g1_55" />
<g fill="#000000" >
<use xlink:href="#f1_j" transform="matrix(7,0,0,7,105.3,237.7)" />
<use xlink:href="#f1_j" transform="matrix(7,0,0,7,149.3,237.7)" />
<use xlink:href="#f1_l" transform="matrix(7,0,0,7,101,250.8)" />
<use xlink:href="#f1_l" transform="matrix(7,0,0,7,145.1,250.8)" />
<use xlink:href="#f1_k" transform="matrix(10.6,0,0,10.5,174.9,244.4)" />
<use xlink:href="#f1_f" transform="matrix(10.6,0,0,10.5,180.7,244.4)" />
<use xlink:href="#f3_2j" transform="matrix(10.6,0,0,10.5,87.6,233.4)" />
<use xlink:href="#f3_2j" transform="matrix(10.6,0,0,10.5,95.7,233.4)" />
<use xlink:href="#f3_2k" transform="matrix(10.6,0,0,10.5,131.6,233.4)" />
<use xlink:href="#f3_2k" transform="matrix(10.6,0,0,10.5,139.7,233.4)" />
<use xlink:href="#f3_1w" transform="matrix(10.6,0,0,10.5,91.3,258)" />
<use xlink:href="#f3_1x" transform="matrix(10.6,0,0,10.5,134.9,258)" />
<use xlink:href="#f2_h" transform="matrix(10.6,0,0,10.5,117.8,244.4)" />
<use xlink:href="#f2_x" transform="matrix(10.6,0,0,10.5,162.7,244.4)" />
</g>
<path d="M197.5,238.1h45.1m16.5,0h44.6" class="g2_55" />
<g fill="#000000" >
<use xlink:href="#f1_j" transform="matrix(7,0,0,7,234.2,235.6)" />
<use xlink:href="#f1_j" transform="matrix(7,0,0,7,295.4,235.6)" />
<use xlink:href="#f1_l" transform="matrix(7,0,0,7,212.5,248.7)" />
<use xlink:href="#f1_l" transform="matrix(7,0,0,7,274.3,248.7)" />
<use xlink:href="#f1_j" transform="matrix(7,0,0,7,229.1,260.3)" />
<use xlink:href="#f1_j" transform="matrix(7,0,0,7,290.7,260.3)" />
<use xlink:href="#f1_j" transform="matrix(10.6,0,0,10.6,322.1,242.3)" />
<use xlink:href="#f1_h" transform="matrix(10.6,0,0,10.6,331.2,242.3)" />
<use xlink:href="#f3_2k" transform="matrix(10.6,0,0,10.6,198.7,231.3)" />
<use xlink:href="#f3_2k" transform="matrix(10.6,0,0,10.6,224.7,231.3)" />
<use xlink:href="#f3_2j" transform="matrix(10.6,0,0,10.6,260.1,231.3)" />
<use xlink:href="#f3_2j" transform="matrix(10.6,0,0,10.6,285.9,231.3)" />
<use xlink:href="#f3_1w" transform="matrix(10.6,0,0,10.6,202.8,256)" />
<use xlink:href="#f3_2k" transform="matrix(10.6,0,0,10.6,219.5,256)" />
<use xlink:href="#f3_1x" transform="matrix(10.6,0,0,10.6,264.1,256)" />
<use xlink:href="#f3_2j" transform="matrix(10.6,0,0,10.6,281.1,256)" />
<use xlink:href="#f2_h" transform="matrix(10.6,0,0,10.6,212.1,231.3)" />
<use xlink:href="#f2_h" transform="matrix(10.6,0,0,10.6,273.5,231.3)" />
<use xlink:href="#f2_f" transform="matrix(10.6,0,0,10.6,246.3,242.3)" />
<use xlink:href="#f2_x" transform="matrix(10.6,0,0,10.6,308.6,242.3)" />
<use xlink:href="#f1_r" transform="matrix(10.4,0,0,10.4,42.8,320.5)" />
<use xlink:href="#f1_n" transform="matrix(10.4,0,0,10.4,51.7,320.5)" />
<use xlink:href="#f1_h" transform="matrix(10.4,0,0,10.4,60.9,320.5)" />
</g>
<path d="M112.5,325.8l1.6,-.9l4,6.4l4.2,-17h10.1" class="g3_55" />
<path fill-rule="evenodd" d="M112.4,325.6l2.1,-1.2l3.6,5.4l4,-15.9h10.3v.7h-9.8l-4.2,16.7h-.7l-4,-5.9l-1.1,.6l-.2,-.4Z" class="g4_55" />
<path d="M86.6,311.6h47" class="g5_55" />
<g fill="#000000" >
<use xlink:href="#f1_k" transform="matrix(10.5,0,0,10.5,100.5,305.4)" />
<use xlink:href="#f1_p" transform="matrix(10.5,0,0,10.5,109.6,305.4)" />
<use xlink:href="#f1_p" transform="matrix(10.5,0,0,10.5,87.3,329.9)" />
<use xlink:href="#f1_m" transform="matrix(10.5,0,0,10.5,122.8,329.9)" />
<use xlink:href="#f2_h" transform="matrix(10.5,0,0,10.5,99.7,329.9)" />
<use xlink:href="#f1_r" transform="matrix(10.4,0,0,10.4,317.8,320.5)" />
<use xlink:href="#f1_o" transform="matrix(10.4,0,0,10.4,326.7,320.5)" />
<use xlink:href="#f1_h" transform="matrix(10.4,0,0,10.4,335.9,320.5)" />
</g>
<path d="M361.8,320l1.6,-.9l4,6.4l4.3,-16.9h10.1" class="g3_55" />
<path fill-rule="evenodd" d="M361.7,319.8l2.1,-1.2l3.6,5.3l4,-15.7h10.4v.7H372l-4.2,16.6H367l-4,-5.9l-1.1,.6l-.2,-.4Z" class="g4_55" />
<g fill="#000000" >
<use xlink:href="#f1_o" transform="matrix(10.5,0,0,10.4,372.1,324)" />
<use xlink:href="#f1_r" transform="matrix(10.4,0,0,10.4,42.8,368.9)" />
<use xlink:href="#f1_p" transform="matrix(10.4,0,0,10.4,51.7,368.9)" />
<use xlink:href="#f1_h" transform="matrix(10.4,0,0,10.4,60.9,368.9)" />
<use xlink:href="#f1_b" transform="matrix(10.4,0,0,10.4,83.5,368.9)" />
<use xlink:href="#f1_n" transform="matrix(10.4,0,0,10.4,88.9,368.9)" />
<use xlink:href="#f1_f" transform="matrix(10.4,0,0,10.4,97.7,368.9)" />
<use xlink:href="#f1_99" transform="matrix(10.4,0,0,10.4,109.5,368.9)" />
<use xlink:href="#f1_n" transform="matrix(10.4,0,0,10.4,118.4,368.9)" />
<use xlink:href="#f1_c" transform="matrix(10.4,0,0,10.4,127.2,368.9)" />
<use xlink:href="#f1_r" transform="matrix(10.4,0,0,10.4,317.8,368.9)" />
<use xlink:href="#f1_q" transform="matrix(10.4,0,0,10.4,326.7,368.9)" />
<use xlink:href="#f1_h" transform="matrix(10.4,0,0,10.4,335.9,368.9)" />
<use xlink:href="#f1_m" transform="matrix(10.4,0,0,10.4,358.5,368.9)" />
<use xlink:href="#f1_1y" transform="matrix(10.4,0,0,10.4,367.4,368.9)" />
<use xlink:href="#f1_28" transform="matrix(10.4,0,0,10.4,375.7,368.9)" />
<use xlink:href="#f1_r" transform="matrix(10.4,0,0,10.4,42.8,416.4)" />
<use xlink:href="#f1_r" transform="matrix(10.4,0,0,10.4,51.7,416.4)" />
<use xlink:href="#f1_h" transform="matrix(10.4,0,0,10.4,60.9,416.4)" />
</g>
<path d="M86.6,410.8h35m15,0h35" class="g0_55" />
<g fill="#000000" >
<use xlink:href="#f1_p" transform="matrix(10.5,0,0,10.4,95.2,404.7)" />
<use xlink:href="#f1_j" transform="matrix(10.5,0,0,10.4,104.2,404.7)" />
<use xlink:href="#f1_m" transform="matrix(10.5,0,0,10.4,145.2,404.7)" />
<use xlink:href="#f1_j" transform="matrix(10.5,0,0,10.4,154.1,404.7)" />
<use xlink:href="#f1_f" transform="matrix(10.5,0,0,10.4,123.3,415.1)" />
<use xlink:href="#f1_h" transform="matrix(10.5,0,0,10.4,173.4,415.1)" />
<use xlink:href="#f1_n" transform="matrix(10.5,0,0,10.4,112.2,427.4)" />
<use xlink:href="#f1_n" transform="matrix(10.5,0,0,10.4,162.2,427.4)" />
<use xlink:href="#f2_2c" transform="matrix(10.5,0,0,10.4,87.6,427.4)" />
<use xlink:href="#f2_f" transform="matrix(10.5,0,0,10.4,99.8,427.4)" />
<use xlink:href="#f2_2c" transform="matrix(10.5,0,0,10.4,137.6,427.4)" />
<use xlink:href="#f2_f" transform="matrix(10.5,0,0,10.4,149.9,427.4)" />
<use xlink:href="#f1_s" transform="matrix(10.4,0,0,10.4,317.8,416.4)" />
<use xlink:href="#f1_j" transform="matrix(10.4,0,0,10.4,326.7,416.4)" />
<use xlink:href="#f1_h" transform="matrix(10.4,0,0,10.4,335.9,416.4)" />
</g>
<path d="M361.6,412.5h35.2m37.1,0H469" class="g6_55" />
<g fill="#000000" >
<use xlink:href="#f1_k" transform="matrix(10.4,0,0,10.4,365.1,406.3)" />
<use xlink:href="#f1_k" transform="matrix(10.4,0,0,10.4,374.1,406.3)" />
<use xlink:href="#f1_l" transform="matrix(10.4,0,0,10.4,383.2,406.3)" />
<use xlink:href="#f1_l" transform="matrix(10.4,0,0,10.4,437.5,406.3)" />
<use xlink:href="#f1_r" transform="matrix(10.4,0,0,10.4,446.6,406.3)" />
<use xlink:href="#f1_1y" transform="matrix(10.4,0,0,10.4,399,416.7)" />
<use xlink:href="#f1_28" transform="matrix(10.4,0,0,10.4,406.9,416.7)" />
<use xlink:href="#f1_f" transform="matrix(10.4,0,0,10.4,420.2,416.7)" />
<use xlink:href="#f1_1y" transform="matrix(10.4,0,0,10.4,471,416.7)" />
<use xlink:href="#f1_28" transform="matrix(10.4,0,0,10.4,479,416.7)" />
<use xlink:href="#f1_h" transform="matrix(10.4,0,0,10.4,491.6,416.7)" />
<use xlink:href="#f1_n" transform="matrix(10.4,0,0,10.4,387.1,429)" />
<use xlink:href="#f1_n" transform="matrix(10.4,0,0,10.4,459.2,429)" />
<use xlink:href="#f2_2c" transform="matrix(10.5,0,0,10.4,455.9,406.3)" />
<use xlink:href="#f2_2c" transform="matrix(10.5,0,0,10.4,362.5,429)" />
<use xlink:href="#f2_f" transform="matrix(10.5,0,0,10.4,374.8,429)" />
<use xlink:href="#f2_2c" transform="matrix(10.5,0,0,10.4,434.7,429)" />
<use xlink:href="#f2_f" transform="matrix(10.5,0,0,10.4,447,429)" />
<use xlink:href="#f4_l" transform="matrix(12,0,0,12,630,964)" />
<use xlink:href="#f4_m" transform="matrix(12,0,0,12,640.2,964)" />
</g>
<g fill="#0080FF" fill-opacity="0.5" >
<use xlink:href="#f0_1c" transform="matrix(36.4,0,0,36.4,174.4,1053.6)" />
<use xlink:href="#f0_21" transform="matrix(36.4,0,0,36.4,205.3,1053.6)" />
<use xlink:href="#f0_1x" transform="matrix(36.4,0,0,36.4,236.2,1053.6)" />
<use xlink:href="#f0_2e" transform="matrix(36.4,0,0,36.4,267.1,1053.6)" />
<use xlink:href="#f0_2a" transform="matrix(36.4,0,0,36.4,285.6,1053.6)" />
<use xlink:href="#f0_17" transform="matrix(36.4,0,0,36.4,316.5,1053.6)" />
<use xlink:href="#f0_2h" transform="matrix(36.4,0,0,36.4,359.8,1053.6)" />
<use xlink:href="#f0_25" transform="matrix(36.4,0,0,36.4,390.7,1053.6)" />
<use xlink:href="#f0_20" transform="matrix(36.4,0,0,36.4,403,1053.6)" />
<use xlink:href="#f0_21" transform="matrix(36.4,0,0,36.4,433.9,1053.6)" />
<use xlink:href="#f0_i" transform="matrix(36.4,0,0,36.4,464.8,1053.6)" />
<use xlink:href="#f0_25" transform="matrix(36.4,0,0,36.4,480.2,1053.6)" />
<use xlink:href="#f0_2a" transform="matrix(36.4,0,0,36.4,492.6,1053.6)" />
</g>
<defs>
<path d="M593,101c0,0,182,0,279,112c0,0,98,113,98,318c0,0,0,196,-98,308c0,0,-98,112,-277,112c0,0,-181,0,-279,-110c0,0,-99,-111,-99,-310c0,0,0,-198,100,-314c0,0,99,-116,276,-116Zm0,-115c0,0,-162,0,-279,65c0,0,-118,66,-180,190c0,0,-62,124,-62,290c0,0,0,252,138,394c0,0,138,142,385,142c0,0,160,0,278,-64c0,0,118,-64,180,-185c0,0,62,-122,62,-287c0,0,0,-165,-63,-289c0,0,-63,-124,-181,-190c0,0,-118,-66,-278,-66Z" 
id="f0_1f"
transform="scale(0.001,-0.001)" />

<path d="M106,0V635c0,0,0,141,-5,173H228c0,0,1,-4,2,-21c0,0,1,-16,2,-37c0,0,1,-22,2,-81h2c0,0,47,84,108,119c0,0,60,34,151,34c0,0,132,0,194,-66c0,0,61,-66,61,-218V0H615V512c0,0,0,80,-15,124c0,0,-16,44,-50,63c0,0,-35,20,-101,20c0,0,-97,0,-153,-67c0,0,-56,-66,-56,-184V0Z" 
id="f0_2a"
transform="scale(0.001,-0.001)" />

<path d="M103,0V1107H237V0Z" 
id="f0_28"
transform="scale(0.001,-0.001)" />

<path d="M102,0V808H236V0Zm0,979v128H236V979Z" 
id="f0_25"
transform="scale(0.001,-0.001)" />

<path d="M643,478c0,0,-11,128,-65,187c0,0,-54,59,-154,59c0,0,-98,0,-155,-66c0,0,-57,-65,-62,-180ZM431,-14c0,0,-179,0,-272,106c0,0,-94,107,-94,317c0,0,0,200,94,307c0,0,93,106,267,106c0,0,356,0,356,-429V375H206c0,0,0,-138,57,-213c0,0,58,-75,168,-75c0,0,87,0,140,35c0,0,53,35,71,88L760,177c0,0,-72,-191,-329,-191Z" 
id="f0_21"
transform="scale(0.001,-0.001)" />

<path d="M17,0L304,415L31,808H179L380,493L580,808H730L457,417L747,0H598L380,331L162,0Z" 
id="f0_2k"
transform="scale(0.001,-0.001)" />

<path d="M339,87c0,0,74,0,132,34c0,0,57,33,90,91c0,0,34,59,34,121v66L448,396c0,0,-95,-2,-144,-19c0,0,-49,-18,-75,-55c0,0,-26,-38,-26,-98c0,0,0,-65,35,-101c0,0,36,-36,101,-36ZM309,-14c0,0,-122,0,-183,64c0,0,-61,64,-61,176c0,0,0,125,82,192c0,0,83,67,266,72l182,3v44c0,0,0,98,-42,141c0,0,-42,43,-132,43c0,0,-90,0,-131,-31c0,0,-41,-31,-49,-98L101,604c0,0,34,218,323,218c0,0,153,0,229,-70c0,0,77,-69,77,-202V202c0,0,0,-59,16,-90c0,0,16,-30,60,-30c0,0,19,0,44,5V4C850,4,799,-7,746,-7c0,0,-75,0,-109,38c0,0,-33,40,-38,124h-4C595,155,543,62,475,24c0,0,-68,-38,-166,-38Z" 
id="f0_1x"
transform="scale(0.001,-0.001)" />

<path d="M106,0V635c0,0,0,141,-5,173H228c0,0,1,-4,2,-21c0,0,1,-16,2,-37c0,0,1,-22,2,-81h2c0,0,44,86,100,120c0,0,56,33,136,33c0,0,92,0,145,-36c0,0,54,-37,75,-117h2c0,0,42,82,101,117c0,0,59,36,143,36c0,0,123,0,178,-66c0,0,56,-67,56,-218V0H1039V512c0,0,0,117,-32,162c0,0,-32,45,-116,45c0,0,-88,0,-136,-66c0,0,-49,-65,-49,-185V0H573V512c0,0,0,117,-32,162c0,0,-32,45,-116,45c0,0,-86,0,-136,-66c0,0,-50,-66,-50,-185V0Z" 
id="f0_29"
transform="scale(0.001,-0.001)" />

<path d="M453,84c0,0,100,0,146,74c0,0,46,73,46,247c0,0,0,169,-46,241c0,0,-45,73,-145,73c0,0,-80,0,-125,-34c0,0,-45,-34,-68,-105c0,0,-24,-71,-24,-186c0,0,0,-159,51,-234c0,0,51,-76,165,-76ZM103,-316V643c0,0,0,124,-5,165H228c0,0,1,-3,3,-22c0,0,1,-18,3,-56c0,0,2,-38,2,-52h3c0,0,36,75,94,110c0,0,59,34,156,34c0,0,149,0,223,-100c0,0,74,-100,74,-314c0,0,0,-422,-297,-422c0,0,-187,0,-251,140h-4c0,0,3,-6,3,-126V-316Z" 
id="f0_2c"
transform="scale(0.001,-0.001)" />

<path d="M420,84c0,0,121,0,173,78c0,0,52,77,52,243c0,0,0,167,-50,243c0,0,-50,76,-167,76c0,0,-118,0,-170,-78c0,0,-53,-77,-53,-241c0,0,0,-160,52,-241c0,0,52,-80,163,-80Zm1,-98c0,0,-176,0,-267,107c0,0,-90,108,-90,312c0,0,0,417,362,417c0,0,185,0,272,-102c0,0,88,-101,88,-315c0,0,0,-212,-94,-316C692,89,599,-14,421,-14Z" 
id="f0_2b"
transform="scale(0.001,-0.001)" />

<path d="M278,-11c0,0,-162,0,-162,182V710H23v98h99l39,181h90V808H400V710H251V200c0,0,0,-58,19,-82c0,0,19,-23,66,-23c0,0,27,0,77,10V6c0,0,-66,-17,-135,-17Z" 
id="f0_2g"
transform="scale(0.001,-0.001)" />

<path d="M212,0c0,0,51,270,162,500c0,0,109,222,281,422H57v131H799V934C799,934,623,726,515,498C515,498,408,269,362,0Z" 
id="f1_q"
transform="scale(0.001,-0.001)" />

<path d="M424,92c0,0,98,0,161,58c0,0,62,58,62,149c0,0,0,92,-62,151c0,0,-63,58,-161,58c0,0,-98,0,-160,-58c0,0,-63,-59,-63,-151c0,0,0,-91,63,-149c0,0,62,-58,160,-58Zm0,533c0,0,82,0,134,46c0,0,52,45,52,118c0,0,0,72,-52,118c0,0,-52,46,-134,46c0,0,-82,0,-134,-46c0,0,-52,-46,-52,-118c0,0,0,-73,52,-119c0,0,52,-45,134,-45Zm0,-653c0,0,-165,0,-265,90C159,62,59,154,59,305c0,0,0,134,100,216c0,0,35,28,78,47c0,0,-27,15,-52,33c0,0,-90,70,-90,185c0,0,0,130,90,209c0,0,91,80,239,80c0,0,148,0,238,-80c0,0,91,-79,91,-209c0,0,0,-115,-91,-185c0,0,-24,-19,-52,-32c0,0,44,-20,79,-49c0,0,101,-81,101,-215c0,0,0,-151,-101,-243c0,0,-100,-90,-265,-90Z" 
id="f1_r"
transform="scale(0.001,-0.001)" />

<path d="M133,0V162H292V0Z" 
id="f1_h"
transform="scale(0.001,-0.001)" />

<path d="M0,356v74H784V356Z" 
id="f2_h"
transform="scale(0.001,-0.001)" />

<path d="M140,-21c0,0,-26,0,-44,17C96,-4,79,13,79,40c0,0,0,19,6,33c0,0,8,20,34,55c0,0,46,60,64,126c0,0,32,114,41,321H190c0,0,-55,0,-81,-18c0,0,-44,-26,-80,-89H0c0,0,42,129,98,178c0,0,43,37,120,37H743V575H562c0,0,-27,-171,-27,-327c0,0,0,-77,27,-110c0,0,27,-33,67,-33c0,0,33,0,56,22c0,0,24,22,31,65h27C743,192,730,74,686,26c0,0,-44,-47,-98,-47c0,0,-58,0,-97,51c0,0,-39,53,-39,198c0,0,0,91,28,347H286c0,0,-23,-390,-56,-494c0,0,-33,-102,-90,-102Z" 
id="f2_2c"
transform="scale(0.001,-0.001)" />

<path d="M424,-28c0,0,-180,0,-272,86c0,0,-92,87,-100,266H192c0,0,12,-126,66,-180c0,0,55,-54,170,-54c0,0,100,0,163,57c0,0,64,57,64,147c0,0,0,94,-61,149c0,0,-52,48,-135,54c0,0,-38,2,-72,2c0,0,-34,0,-45,-3V613c0,0,17,-3,51,-3c0,0,35,0,68,4c0,0,66,8,106,43c0,0,55,45,55,125c0,0,0,77,-58,125c0,0,-58,48,-148,48c0,0,-96,0,-147,-58c0,0,-51,-59,-56,-175H82c0,0,0,168,89,260c0,0,88,93,250,93c0,0,153,0,247,-77c0,0,94,-76,94,-202c0,0,0,-124,-95,-201c0,0,-18,-15,-39,-27c0,0,39,-17,69,-41c0,0,101,-79,101,-214c0,0,0,-151,-105,-246c0,0,-104,-95,-269,-95Z" 
id="f1_m"
transform="scale(0.001,-0.001)" />

<path d="M99,0V799H226V680l28,36c0,0,90,106,215,106c0,0,107,0,171,-63c0,0,28,-28,44,-65l21,28c0,0,87,100,208,100c0,0,125,0,194,-68c0,0,68,-68,68,-194V0H1041V515c0,0,0,91,-37,138c0,0,-38,47,-110,47c0,0,-87,0,-139,-68c0,0,-52,-68,-52,-183V0H569V547c0,0,0,75,-34,114c0,0,-34,39,-99,39c0,0,-89,0,-146,-76c0,0,-57,-76,-57,-196V0Z" 
id="f1_28"
transform="scale(0.001,-0.001)" />

<path d="M649,461c0,0,-6,111,-55,172c0,0,-55,69,-160,69c0,0,-106,0,-170,-79c0,0,-50,-62,-60,-162ZM425,-20c0,0,-169,0,-266,106c0,0,-97,107,-97,297c0,0,0,201,102,320c0,0,103,119,276,119c0,0,157,0,253,-116c0,0,96,-117,96,-306l-1,-48H204c0,0,8,-119,54,-182c0,0,57,-76,180,-76c0,0,77,0,134,43c0,0,58,43,70,110H775C775,247,746,116,656,47c0,0,-90,-67,-231,-67Z" 
id="f1_20"
transform="scale(0.001,-0.001)" />

<path d="M292,-9c0,0,-88,0,-124,38c0,0,-36,39,-36,134V689H22V799H132v224H266V799H392V689H266V163c0,0,0,-27,21,-43c0,0,21,-15,57,-15h48V1C392,1,324,-9,292,-9Z" 
id="f1_2f"
transform="scale(0.001,-0.001)" />

<path d="M118,0V799H246V662c0,0,17,32,36,58c0,0,76,102,187,102c0,0,19,0,38,-6V679l-27,1c0,0,-109,0,-168,-66c0,0,-60,-65,-60,-186V0Z" 
id="f1_2d"
transform="scale(0.001,-0.001)" />

<path d="M393,-20c0,0,-169,0,-252,65c0,0,-83,67,-92,210H178c0,0,10,-85,61,-123c0,0,50,-38,154,-38c0,0,90,0,136,34c0,0,47,35,47,100c0,0,0,42,-31,64c0,0,-30,21,-123,43L283,368c0,0,-112,27,-160,75c0,0,-48,48,-48,135c0,0,0,112,80,178c0,0,81,66,218,66c0,0,140,0,222,-68c0,0,82,-67,88,-187H557c0,0,-6,67,-55,103c0,0,-48,37,-129,37c0,0,-84,0,-127,-29c0,0,-44,-29,-44,-85c0,0,0,-43,31,-65c0,0,30,-21,121,-43L493,452c0,0,117,-28,167,-78c0,0,49,-49,49,-138c0,0,0,-119,-86,-188c0,0,-85,-68,-230,-68Z" 
id="f1_2e"
transform="scale(0.001,-0.001)" />

<path d="M104,0V799H238V0Zm-2,946v152H239V946Z" 
id="f1_24"
transform="scale(0.001,-0.001)" />

<path d="M99,0V799H226V681l30,39c0,0,87,102,219,102c0,0,132,0,203,-71c0,0,72,-72,72,-204V0H616V502c0,0,0,105,-41,151c0,0,-40,47,-132,47c0,0,-97,0,-154,-73c0,0,-56,-74,-56,-199V0Z" 
id="f1_29"
transform="scale(0.001,-0.001)" />

<path d="M419,483c0,0,93,0,152,66c0,0,59,66,59,169c0,0,0,103,-59,169c0,0,-59,65,-152,65c0,0,-94,0,-153,-65c0,0,-59,-66,-59,-169c0,0,0,-103,59,-169c0,0,59,-66,153,-66ZM397,-28c0,0,-143,0,-227,75c0,0,-85,77,-91,211H209c0,0,8,-83,57,-128c0,0,49,-45,131,-45c0,0,121,0,186,135c0,0,48,101,62,265C645,485,545,362,397,362c0,0,-150,0,-241,98c0,0,-91,98,-91,258c0,0,0,160,99,258c0,0,99,98,262,98c0,0,173,0,266,-123c0,0,94,-123,94,-349c0,0,0,-303,-101,-467C685,135,583,-28,397,-28Z" 
id="f1_s"
transform="scale(0.001,-0.001)" />

<path d="M17,0L389,412L201,800H376L500,518L742,800H904L554,410L750,0H580L448,303L187,0Z" 
id="f3_2j"
transform="scale(0.001,-0.001)" />

<path d="M390,-1V329H60V441H390V771H503V441H833V329H503V-1Z" 
id="f1_e"
transform="scale(0.001,-0.001)" />

<path d="M99,-328c0,0,-46,0,-76,13l25,123c0,0,29,-14,81,-14c0,0,47,0,76,31c0,0,28,31,106,162L185,800H339L415,141L769,800H918L456,0C456,0,329,-216,269,-272c0,0,-61,-56,-170,-56Z" 
id="f3_2k"
transform="scale(0.001,-0.001)" />

<path d="M335,90c0,0,106,0,179,57c0,0,50,41,67,91c0,0,3,10,4,31c0,0,3,21,3,47v87c0,0,-38,-18,-83,-25L381,360c0,0,-97,-13,-142,-45c0,0,-44,-31,-44,-86c0,0,0,-67,36,-103c0,0,37,-36,104,-36ZM309,-20c0,0,-117,0,-186,61c0,0,-68,63,-68,169c0,0,0,108,64,171c0,0,65,64,189,79l183,23c0,0,22,3,42,8c0,0,26,7,40,27c0,0,15,20,15,51v6c0,0,0,64,-49,101c0,0,-48,36,-135,36c0,0,-83,0,-130,-38c0,0,-46,-39,-56,-115H94c0,0,10,131,92,197c0,0,83,66,238,66c0,0,145,0,222,-63c0,0,76,-63,76,-184V137c0,0,0,-21,12,-33c0,0,12,-12,33,-12c0,0,6,0,18,1c0,0,11,2,25,5V1c0,0,-20,-7,-41,-11c0,0,-22,-5,-37,-5c0,0,-76,0,-110,41c0,0,-22,28,-32,79c0,0,-15,-19,-34,-36c0,0,-101,-89,-247,-89Z" 
id="f1_1w"
transform="scale(0.001,-0.001)" />

<path d="M338,28c0,0,48,0,91,45c0,0,43,45,65,144c0,0,22,99,26,276H143c0,0,3,-133,20,-239c0,0,13,-80,44,-140c0,0,19,-36,54,-61c0,0,36,-25,77,-25ZM522,543c0,0,-1,194,-37,312c0,0,-29,90,-76,129c0,0,-34,28,-79,28c0,0,-51,0,-93,-39c0,0,-43,-40,-65,-132c0,0,-22,-93,-29,-298ZM329,-21c0,0,-68,0,-124,31c0,0,-56,33,-99,95c0,0,-43,62,-66,131C40,236,0,356,0,489c0,0,0,294,119,453c0,0,91,119,217,119c0,0,122,0,209,-115c0,0,121,-160,121,-436c0,0,0,-263,-119,-415C547,95,455,-21,329,-21Z" 
id="f2_2d"
transform="scale(0.001,-0.001)" />

<path d="M0,368V478H849V368Z" 
id="f1_99"
transform="scale(0.001,-0.001)" />

<path d="M354,90c0,0,107,0,192,57c0,0,60,41,87,95c0,0,5,12,11,33c0,0,6,20,11,44l18,88c0,0,-62,-26,-132,-37L414,352c0,0,-84,-11,-131,-56c0,0,-47,-45,-47,-113c0,0,0,-44,31,-69c0,0,31,-24,87,-24ZM306,-20c0,0,-99,0,-156,47c0,0,-57,49,-57,134c0,0,1,117,81,198c0,0,80,81,211,98l164,20l70,10c0,0,35,6,59,30c0,0,23,24,31,66l1,2c0,0,13,64,-25,94c0,0,-39,31,-132,31c0,0,-83,0,-137,-37c0,0,-54,-37,-84,-114H210c0,0,46,137,138,201c0,0,92,63,245,63c0,0,149,0,211,-59c0,0,45,-44,44,-116c0,0,1,-30,-6,-63L749,136c0,0,-4,-19,6,-32c0,0,10,-12,30,-12c0,0,6,0,19,1c0,0,12,2,25,5L809,1c0,0,-19,-6,-43,-11c0,0,-22,-5,-36,-5c0,0,-73,0,-100,43c0,0,-16,27,-17,75C612,102,594,85,573,69c0,0,-120,-89,-267,-89Z" 
id="f3_1w"
transform="scale(0.001,-0.001)" />

<path d="M394,-20c0,0,-159,0,-253,113c0,0,-95,114,-95,307c0,0,0,193,98,308c0,0,98,114,264,114c0,0,144,0,230,-78c0,0,85,-79,91,-217H600c0,0,-8,86,-59,133c0,0,-52,47,-138,47c0,0,-101,0,-159,-82c0,0,-58,-82,-58,-225c0,0,0,-152,54,-229c0,0,53,-77,159,-77c0,0,79,0,132,50c0,0,52,51,69,143H729C729,287,709,137,623,58c0,0,-86,-78,-229,-78Z" 
id="f1_1y"
transform="scale(0.001,-0.001)" />

<path d="M60,174V286H832V174Zm0,309V595H832V483Z" 
id="f1_w"
transform="scale(0.001,-0.001)" />

<path d="M424,92c0,0,114,0,170,107c0,0,57,108,56,323c0,0,1,216,-56,324c0,0,-56,107,-170,107c0,0,-112,0,-168,-107c0,0,-56,-108,-57,-324c0,0,1,-215,57,-323c0,0,56,-107,168,-107Zm0,-120c0,0,-176,0,-271,142c0,0,-96,143,-96,408c0,0,0,265,96,409c0,0,95,144,271,144c0,0,178,0,273,-144c0,0,96,-144,96,-409c0,0,0,-265,-96,-408c0,0,-95,-142,-273,-142Z" 
id="f1_j"
transform="scale(0.001,-0.001)" />

<path d="M365,-315c0,0,-136,187,-199,359c0,0,-62,172,-62,359c0,0,0,186,62,358c0,0,63,172,199,360h92c0,0,-110,-192,-160,-365c0,0,-51,-172,-51,-353c0,0,0,-183,51,-355c0,0,50,-172,160,-363Z" 
id="f1_b"
transform="scale(0.001,-0.001)" />

<path d="M133,-224v71c0,0,47,8,65,52c0,0,14,33,17,101H133V163H292V27c0,0,0,-114,-36,-172c0,0,-37,-58,-123,-79Z" 
id="f1_f"
transform="scale(0.001,-0.001)" />

<path d="M52,-315c0,0,109,192,160,363c0,0,50,173,50,354c0,0,0,183,-50,355c0,0,-51,173,-160,364h92c0,0,135,-188,198,-360c0,0,63,-172,63,-359c0,0,0,-187,-63,-359c0,0,-63,-171,-198,-358Z" 
id="f1_c"
transform="scale(0.001,-0.001)" />

<path d="M406,0V763H155V870h2c16,0,114,2,178,48c0,0,70,51,104,157H549V0Z" 
id="f1_k"
transform="scale(0.001,-0.001)" />

<path d="M39,0V0c0,0,0,170,84,277c0,0,85,108,317,236c0,0,113,62,154,115c0,0,41,52,41,134c0,0,0,86,-62,141c0,0,-61,54,-156,54c0,0,-101,0,-158,-68c0,0,-57,-68,-60,-194H67c0,0,-2,178,95,279c0,0,98,101,273,101c0,0,149,0,245,-89c0,0,94,-88,94,-228c0,0,0,-118,-60,-195c0,0,-61,-76,-229,-169C485,394,303,294,237,212c0,0,-28,-36,-46,-81H774V0Z" 
id="f1_l"
transform="scale(0.001,-0.001)" />

<path d="M411,93c0,0,98,0,158,73c0,0,60,74,60,195c0,0,0,163,-57,252c0,0,-56,88,-161,88c0,0,-113,0,-165,-72c0,0,-52,-72,-52,-229c0,0,0,-147,56,-227c0,0,56,-80,161,-80ZM404,-20c0,0,-161,0,-255,118c0,0,-95,120,-95,324c0,0,0,179,92,290c0,0,91,110,239,110c0,0,147,0,233,-124l11,-15v414H763V0H638V109L621,84C621,84,538,-20,404,-20Z" 
id="f1_1z"
transform="scale(0.001,-0.001)" />

<path d="M417,-28c0,0,-161,0,-259,79c0,0,-98,81,-109,223H189c0,0,11,-90,72,-139c0,0,61,-49,162,-49c0,0,96,0,158,68c0,0,61,68,61,175c0,0,0,112,-64,178c0,0,-64,66,-173,66c0,0,-59,0,-115,-28c0,0,-55,-29,-84,-73L93,480l77,573H727V922H271L225,629l4,3c0,0,89,60,188,60c0,0,169,0,269,-94c0,0,99,-93,99,-253c0,0,0,-165,-103,-269C682,76,579,-28,417,-28Z" 
id="f1_o"
transform="scale(0.001,-0.001)" />

<path d="M77,369l25,110H950L926,369Z" 
id="f3_99"
transform="scale(0.001,-0.001)" />

<path d="M456,95c0,0,130,0,213,121c0,0,82,120,82,310c0,0,0,85,-44,131c0,0,-44,46,-125,46c0,0,-98,0,-174,-90c0,0,-76,-90,-108,-245c0,0,-26,-126,16,-199c0,0,42,-74,140,-74ZM436,-20c0,0,-132,0,-195,108l-5,7L217,0H89L316,1097H450L365,683l10,11c0,0,120,129,262,129c0,0,121,0,190,-77c0,0,69,-77,69,-211c0,0,0,-234,-134,-395C762,140,629,-20,436,-20Z" 
id="f3_1x"
transform="scale(0.001,-0.001)" />

<path d="M0,214v74H784V214ZM0,494v72H784V494Z" 
id="f2_x"
transform="scale(0.001,-0.001)" />

<path d="M355,0V355H0v72H355V784h72V427H782V355H427V0Z" 
id="f2_f"
transform="scale(0.001,-0.001)" />

<path d="M511,373V863L169,383l-7,-10ZM511,0V258H38V383l496,691H646V373H799V258H646V0Z" 
id="f1_n"
transform="scale(0.001,-0.001)" />

<path d="M432,92c0,0,96,0,156,66c0,0,61,65,61,169c0,0,0,103,-61,169c0,0,-60,66,-156,66c0,0,-95,0,-156,-66c0,0,-61,-66,-61,-169c0,0,0,-104,61,-169c0,0,61,-66,156,-66ZM425,-28c0,0,-176,0,-271,135c0,0,-95,136,-95,388c0,0,0,278,103,429c0,0,103,151,293,151c0,0,142,0,226,-77c0,0,84,-76,90,-211H638c0,0,-8,80,-56,123c0,0,-47,43,-127,43c0,0,-125,0,-192,-119c0,0,-58,-102,-64,-278c0,0,100,127,255,127c0,0,152,0,245,-98c0,0,93,-98,93,-258c0,0,0,-161,-101,-259c0,0,-101,-96,-266,-96Z" 
id="f1_p"
transform="scale(0.001,-0.001)" />

<path d="M435,0V856c0,0,-48,-47,-127,-93c0,0,-79,-46,-142,-69V824c0,0,113,52,197,128c0,0,85,75,120,146h86V0Z" 
id="f4_l"
transform="scale(0.001,-0.001)" />

<path d="M46,0c0,0,-2,48,16,93c0,0,27,74,88,146c0,0,61,71,176,165c0,0,178,146,241,232c0,0,63,85,63,161c0,0,0,80,-57,135c0,0,-58,55,-149,55c0,0,-98,0,-156,-59c0,0,-58,-58,-59,-160L71,782c0,0,15,154,107,235c0,0,93,81,249,81c0,0,157,0,249,-87c0,0,92,-88,92,-217c0,0,0,-65,-27,-129c0,0,-27,-63,-89,-133c0,0,-62,-70,-207,-193C445,339,324,238,290,202c0,0,-35,-36,-57,-73H770V0Z" 
id="f4_m"
transform="scale(0.001,-0.001)" />

<path d="M125,0V1051H268V115H799V0Z" 
id="f0_1c"
transform="scale(0.001,-0.001)" />

<path d="M106,0V620c0,0,0,85,-5,188H228c0,0,6,-138,6,-165h3c0,0,32,103,74,141c0,0,42,38,118,38c0,0,27,0,54,-7V692c0,0,-26,7,-71,7c0,0,-84,0,-128,-72c0,0,-44,-72,-44,-206V0Z" 
id="f0_2e"
transform="scale(0.001,-0.001)" />

<path d="M606,-14c0,0,-164,0,-284,65c0,0,-119,66,-182,189c0,0,-63,123,-63,291c0,0,0,255,137,396c0,0,137,140,386,140c0,0,174,0,283,-59c0,0,109,-59,168,-189L915,779c0,0,-44,90,-123,131c0,0,-79,41,-196,41c0,0,-182,0,-278,-110c0,0,-96,-110,-96,-310c0,0,0,-200,102,-315c0,0,102,-115,282,-115c0,0,103,0,193,31c0,0,89,31,144,85V407H629V526h445V164c0,0,-83,-85,-205,-132c0,0,-121,-46,-263,-46Z" 
id="f0_17"
transform="scale(0.001,-0.001)" />

<path d="M355,-14c0,0,-133,0,-194,65c0,0,-62,66,-62,219V808H234V296c0,0,0,-80,16,-124c0,0,16,-44,50,-64c0,0,34,-19,101,-19c0,0,97,0,153,66c0,0,55,67,55,185V808H744V172c0,0,0,-141,4,-172H621c0,0,0,4,-1,20c0,0,-1,17,-2,38c0,0,-1,21,-3,80h-2C613,138,567,55,506,20c0,0,-61,-34,-151,-34Z" 
id="f0_2h"
transform="scale(0.001,-0.001)" />

<path d="M395,89c0,0,115,0,166,79c0,0,51,79,51,246c0,0,0,160,-51,235c0,0,-51,75,-164,75c0,0,-102,0,-147,-75c0,0,-45,-75,-45,-244c0,0,0,-170,45,-243c0,0,45,-73,145,-73ZM361,-14c0,0,-153,0,-225,102c0,0,-72,103,-72,312c0,0,0,422,297,422c0,0,92,0,153,-33c0,0,61,-34,98,-107h2l-2,90v335H747V166c0,0,0,-126,4,-166H623c0,0,-2,12,-5,55c0,0,-3,44,-3,75h-3c0,0,-37,-78,-98,-111c0,0,-62,-33,-153,-33Z" 
id="f0_20"
transform="scale(0.001,-0.001)" />

<path d="M140,0V163H285V0Z" 
id="f0_i"
transform="scale(0.001,-0.001)" />


</defs>
</svg>