<?xml version="1.0" encoding="UTF-8" standalone="no"?>
<!DOCTYPE svg PUBLIC "-//W3C//DTD SVG 1.1//EN"
"http://www.w3.org/Graphics/SVG/1.1/DTD/svg11.dtd">
<svg viewBox="0 0 696 1067" version="1.1" xmlns="http://www.w3.org/2000/svg" xmlns:xlink="http://www.w3.org/1999/xlink">
<defs>
<style type="text/css"><![CDATA[
.g0_30{
fill: none;
stroke: #000000;
stroke-width: 0.7575333;
stroke-linecap: round;
stroke-linejoin: miter;
}
.g1_30{
fill: none;
stroke: #000000;
stroke-width: 0.7638889;
stroke-linecap: round;
stroke-linejoin: miter;
}
.g2_30{
fill: none;
stroke: #000000;
stroke-width: 0.76266664;
stroke-linecap: round;
stroke-linejoin: miter;
}
.g3_30{
fill: none;
stroke: #000000;
stroke-width: 0.7646222;
stroke-linecap: round;
stroke-linejoin: miter;
}
.g4_30{
fill: none;
stroke: #000000;
stroke-width: 0.7653555;
stroke-linecap: round;
stroke-linejoin: miter;
}
]]></style>
</defs>
<g fill="#D4D4D4" fill-opacity="0.56" >
<use xlink:href="#f0_1f" transform="matrix(50.9,-50.9,50.9,50.9,84.5,924.1)" />
<use xlink:href="#f0_2a" transform="matrix(50.9,-50.9,50.9,50.9,145,863.6)" />
<use xlink:href="#f0_28" transform="matrix(50.9,-50.9,50.9,50.9,188.3,820.3)" />
<use xlink:href="#f0_25" transform="matrix(50.9,-50.9,50.9,50.9,205.5,803.1)" />
<use xlink:href="#f0_2a" transform="matrix(50.9,-50.9,50.9,50.9,222.8,785.8)" />
<use xlink:href="#f0_21" transform="matrix(50.9,-50.9,50.9,50.9,266,742.5)" />
<use xlink:href="#f0_2k" transform="matrix(50.9,-50.9,50.9,50.9,309.3,699.3)" />
<use xlink:href="#f0_1x" transform="matrix(50.9,-50.9,50.9,50.9,348.2,660.4)" />
<use xlink:href="#f0_29" transform="matrix(50.9,-50.9,50.9,50.9,391.4,617.2)" />
<use xlink:href="#f0_2c" transform="matrix(50.9,-50.9,50.9,50.9,456.2,552.4)" />
<use xlink:href="#f0_2b" transform="matrix(50.9,-50.9,50.9,50.9,499.5,509.1)" />
<use xlink:href="#f0_25" transform="matrix(50.9,-50.9,50.9,50.9,542.7,465.9)" />
<use xlink:href="#f0_2a" transform="matrix(50.9,-50.9,50.9,50.9,560,448.6)" />
<use xlink:href="#f0_2g" transform="matrix(50.9,-50.9,50.9,50.9,603.2,405.4)" />
</g>
<g fill="#000000" >
<use xlink:href="#f1_o" transform="matrix(10.4,0,0,10.4,68.3,133.7)" />
<use xlink:href="#f1_o" transform="matrix(10.4,0,0,10.4,77.2,133.7)" />
<use xlink:href="#f1_h" transform="matrix(10.4,0,0,10.4,86.3,133.7)" />
</g>
<path d="M112.4,76.4v85.2M336.2,76.4v85.2" class="g0_30" />
<g fill="#000000" >
<use xlink:href="#f1_l" transform="matrix(7.8,0,0,7.8,125.2,86.8)" />
<use xlink:href="#f1_l" transform="matrix(7.8,0,0,7.8,164.8,86.8)" />
<use xlink:href="#f1_l" transform="matrix(7.8,0,0,7.8,224.9,86.8)" />
<use xlink:href="#f1_l" transform="matrix(7.8,0,0,7.8,305.2,86.8)" />
<use xlink:href="#f1_l" transform="matrix(7.8,0,0,7.8,145,117.1)" />
<use xlink:href="#f1_l" transform="matrix(7.8,0,0,7.8,205.2,117.1)" />
<use xlink:href="#f1_l" transform="matrix(7.8,0,0,7.8,244.7,117.1)" />
<use xlink:href="#f1_l" transform="matrix(7.8,0,0,7.8,305.6,117.1)" />
<use xlink:href="#f1_l" transform="matrix(7.8,0,0,7.8,380.9,117.1)" />
<use xlink:href="#f1_l" transform="matrix(7.8,0,0,7.8,398,117.1)" />
<use xlink:href="#f1_l" transform="matrix(7.8,0,0,7.8,414.5,117.1)" />
<use xlink:href="#f1_l" transform="matrix(7.8,0,0,7.8,144.7,147.4)" />
<use xlink:href="#f1_l" transform="matrix(7.8,0,0,7.8,224.9,147.4)" />
<use xlink:href="#f1_l" transform="matrix(7.8,0,0,7.8,285,147.4)" />
<use xlink:href="#f1_l" transform="matrix(7.8,0,0,7.8,325.4,147.4)" />
<use xlink:href="#f1_n" transform="matrix(10.4,0,0,10.4,362.9,126.7)" />
<use xlink:href="#f1_h" transform="matrix(10.4,0,0,10.4,422.1,126.7)" />
<use xlink:href="#f2_f" transform="matrix(10.4,0,0,10.4,140.2,96.4)" />
<use xlink:href="#f2_f" transform="matrix(10.4,0,0,10.4,220.1,126.7)" />
<use xlink:href="#f2_x" transform="matrix(10.4,0,0,10.4,345.9,126.7)" />
<use xlink:href="#f2_f" transform="matrix(10.4,0,0,10.4,300,157)" />
<use xlink:href="#f3_1x" transform="matrix(10.4,0,0,10.4,114.9,96.4)" />
<use xlink:href="#f3_1y" transform="matrix(10.4,0,0,10.4,155,96.4)" />
<use xlink:href="#f3_1w" transform="matrix(10.4,0,0,10.4,215.3,96.4)" />
<use xlink:href="#f3_1w" transform="matrix(10.4,0,0,10.4,295.6,96.4)" />
<use xlink:href="#f3_1x" transform="matrix(10.4,0,0,10.4,134.7,126.7)" />
<use xlink:href="#f3_1y" transform="matrix(10.4,0,0,10.4,195.3,126.7)" />
<use xlink:href="#f3_1w" transform="matrix(10.4,0,0,10.4,235.2,126.7)" />
<use xlink:href="#f3_1x" transform="matrix(10.4,0,0,10.4,295.2,126.7)" />
<use xlink:href="#f3_1w" transform="matrix(10.4,0,0,10.4,371.4,126.7)" />
<use xlink:href="#f3_1x" transform="matrix(10.4,0,0,10.4,387.7,126.7)" />
<use xlink:href="#f3_1y" transform="matrix(10.4,0,0,10.4,404.7,126.7)" />
<use xlink:href="#f3_1y" transform="matrix(10.4,0,0,10.4,134.8,157)" />
<use xlink:href="#f3_1y" transform="matrix(10.4,0,0,10.4,215.1,157)" />
<use xlink:href="#f3_1w" transform="matrix(10.4,0,0,10.4,275.4,157)" />
<use xlink:href="#f3_1x" transform="matrix(10.4,0,0,10.4,315,157)" />
<use xlink:href="#f1_o" transform="matrix(10.4,0,0,10.4,68.3,225.8)" />
<use xlink:href="#f1_p" transform="matrix(10.4,0,0,10.4,77.2,225.8)" />
<use xlink:href="#f1_h" transform="matrix(10.4,0,0,10.4,86.3,225.8)" />
</g>
<path d="M112.4,187.2v66.2M292,187.2v66.2m40.4,-66.2v66.2m82,-66.2v66.2" class="g1_30" />
<g fill="#000000" >
<use xlink:href="#f1_l" transform="matrix(10.5,0,0,10.5,318.8,224.8)" />
<use xlink:href="#f1_h" transform="matrix(10.5,0,0,10.5,419.3,224.8)" />
<use xlink:href="#f3_1x" transform="matrix(10.5,0,0,10.5,115.8,200.8)" />
<use xlink:href="#f3_1y" transform="matrix(10.5,0,0,10.5,147.2,200.8)" />
<use xlink:href="#f3_1y" transform="matrix(10.5,0,0,10.5,181.3,200.8)" />
<use xlink:href="#f3_1w" transform="matrix(10.5,0,0,10.5,212.4,200.8)" />
<use xlink:href="#f3_1w" transform="matrix(10.5,0,0,10.5,247,200.8)" />
<use xlink:href="#f3_1x" transform="matrix(10.5,0,0,10.5,278.1,200.8)" />
<use xlink:href="#f3_1w" transform="matrix(10.5,0,0,10.5,335.7,200.8)" />
<use xlink:href="#f3_1x" transform="matrix(10.5,0,0,10.5,368.9,200.8)" />
<use xlink:href="#f3_1y" transform="matrix(10.5,0,0,10.5,402.2,200.8)" />
<use xlink:href="#f3_2c" transform="matrix(10.5,0,0,10.5,116.1,224.8)" />
<use xlink:href="#f3_2d" transform="matrix(10.5,0,0,10.5,148.1,224.8)" />
<use xlink:href="#f3_2d" transform="matrix(10.5,0,0,10.5,181.4,224.8)" />
<use xlink:href="#f3_2b" transform="matrix(10.5,0,0,10.5,211.8,224.8)" />
<use xlink:href="#f3_2b" transform="matrix(10.5,0,0,10.5,247,224.8)" />
<use xlink:href="#f3_2c" transform="matrix(10.5,0,0,10.5,278.4,224.8)" />
<use xlink:href="#f3_2b" transform="matrix(10.5,0,0,10.5,335.8,224.8)" />
<use xlink:href="#f3_2c" transform="matrix(10.5,0,0,10.5,368.5,224.8)" />
<use xlink:href="#f3_2d" transform="matrix(10.5,0,0,10.5,402.9,224.8)" />
<use xlink:href="#f3_2k" transform="matrix(10.5,0,0,10.5,115.6,248.9)" />
<use xlink:href="#f3_2l" transform="matrix(10.5,0,0,10.5,148.1,248.9)" />
<use xlink:href="#f3_2l" transform="matrix(10.5,0,0,10.5,180.7,248.9)" />
<use xlink:href="#f3_2j" transform="matrix(10.5,0,0,10.5,213,248.9)" />
<use xlink:href="#f3_2j" transform="matrix(10.5,0,0,10.5,246.4,248.9)" />
<use xlink:href="#f3_2k" transform="matrix(10.5,0,0,10.5,279.3,248.9)" />
<use xlink:href="#f3_2j" transform="matrix(10.5,0,0,10.5,335.7,248.9)" />
<use xlink:href="#f3_2k" transform="matrix(10.5,0,0,10.5,369.3,248.9)" />
<use xlink:href="#f3_2l" transform="matrix(10.5,0,0,10.5,402.4,248.9)" />
<use xlink:href="#f2_f" transform="matrix(10.5,0,0,10.5,132.3,200.8)" />
<use xlink:href="#f2_f" transform="matrix(10.5,0,0,10.5,197.2,200.8)" />
<use xlink:href="#f2_f" transform="matrix(10.5,0,0,10.5,262.9,200.8)" />
<use xlink:href="#f2_f" transform="matrix(10.5,0,0,10.5,133.1,224.8)" />
<use xlink:href="#f2_f" transform="matrix(10.5,0,0,10.5,195.9,224.8)" />
<use xlink:href="#f2_f" transform="matrix(10.5,0,0,10.5,263.5,224.8)" />
<use xlink:href="#f2_x" transform="matrix(10.5,0,0,10.5,301.6,224.8)" />
<use xlink:href="#f2_f" transform="matrix(10.5,0,0,10.5,132.3,248.9)" />
<use xlink:href="#f2_f" transform="matrix(10.5,0,0,10.5,197,248.9)" />
<use xlink:href="#f2_f" transform="matrix(10.5,0,0,10.5,263.1,248.9)" />
<use xlink:href="#f1_o" transform="matrix(10.4,0,0,10.4,68.3,324)" />
<use xlink:href="#f1_q" transform="matrix(10.4,0,0,10.4,77.2,324)" />
<use xlink:href="#f1_h" transform="matrix(10.4,0,0,10.4,86.3,324)" />
</g>
<path d="M112.4,273.9V359M338.1,273.9V359" class="g2_30" />
<g fill="#000000" >
<use xlink:href="#f1_l" transform="matrix(7.9,0,0,7.8,145,284.3)" />
<use xlink:href="#f1_l" transform="matrix(7.9,0,0,7.8,327.2,284.3)" />
<use xlink:href="#f1_l" transform="matrix(7.9,0,0,7.8,124.6,314.6)" />
<use xlink:href="#f1_l" transform="matrix(7.9,0,0,7.8,226.5,314.6)" />
<use xlink:href="#f1_l" transform="matrix(7.9,0,0,7.8,383,314.6)" />
<use xlink:href="#f1_l" transform="matrix(7.9,0,0,7.8,399.9,314.6)" />
<use xlink:href="#f1_l" transform="matrix(7.9,0,0,7.8,416,314.6)" />
<use xlink:href="#f1_l" transform="matrix(7.9,0,0,7.8,206.4,344.9)" />
<use xlink:href="#f1_l" transform="matrix(7.9,0,0,7.8,307,344.9)" />
<use xlink:href="#f1_n" transform="matrix(10.5,0,0,10.4,364.9,324.1)" />
<use xlink:href="#f1_h" transform="matrix(10.5,0,0,10.4,423.7,324.1)" />
<use xlink:href="#f3_1w" transform="matrix(10.5,0,0,10.4,135.4,293.8)" />
<use xlink:href="#f3_1x" transform="matrix(10.5,0,0,10.4,216.3,293.8)" />
<use xlink:href="#f3_1y" transform="matrix(10.5,0,0,10.4,225.6,293.8)" />
<use xlink:href="#f3_1w" transform="matrix(10.5,0,0,10.4,277.5,293.8)" />
<use xlink:href="#f3_1y" transform="matrix(10.5,0,0,10.4,286.8,293.8)" />
<use xlink:href="#f3_1y" transform="matrix(10.5,0,0,10.4,317.6,293.8)" />
<use xlink:href="#f3_1w" transform="matrix(10.5,0,0,10.4,114.9,324.1)" />
<use xlink:href="#f3_1w" transform="matrix(10.5,0,0,10.4,154.6,324.1)" />
<use xlink:href="#f3_1x" transform="matrix(10.5,0,0,10.4,163.9,324.1)" />
<use xlink:href="#f3_1x" transform="matrix(10.5,0,0,10.4,216.4,324.1)" />
<use xlink:href="#f3_1w" transform="matrix(10.5,0,0,10.4,297.2,324.1)" />
<use xlink:href="#f3_1y" transform="matrix(10.5,0,0,10.4,306.5,324.1)" />
<use xlink:href="#f3_1w" transform="matrix(10.5,0,0,10.4,373.4,324.1)" />
<use xlink:href="#f3_1x" transform="matrix(10.5,0,0,10.4,389.7,324.1)" />
<use xlink:href="#f3_1y" transform="matrix(10.5,0,0,10.4,406.4,324.1)" />
<use xlink:href="#f3_1w" transform="matrix(10.5,0,0,10.4,134.8,354.4)" />
<use xlink:href="#f3_1x" transform="matrix(10.5,0,0,10.4,144,354.4)" />
<use xlink:href="#f3_1x" transform="matrix(10.5,0,0,10.4,196.2,354.4)" />
<use xlink:href="#f3_1x" transform="matrix(10.5,0,0,10.4,236.4,354.4)" />
<use xlink:href="#f3_1y" transform="matrix(10.5,0,0,10.4,245.7,354.4)" />
<use xlink:href="#f3_1y" transform="matrix(10.5,0,0,10.4,297.4,354.4)" />
<use xlink:href="#f2_f" transform="matrix(10.5,0,0,10.4,302.7,293.8)" />
<use xlink:href="#f2_f" transform="matrix(10.5,0,0,10.4,139.5,324.1)" />
<use xlink:href="#f2_x" transform="matrix(10.5,0,0,10.4,347.7,324.1)" />
<use xlink:href="#f2_f" transform="matrix(10.5,0,0,10.4,221.3,354.4)" />
<use xlink:href="#f1_o" transform="matrix(10.4,0,0,10.4,68.3,415.9)" />
<use xlink:href="#f1_r" transform="matrix(10.4,0,0,10.4,77.2,415.9)" />
<use xlink:href="#f1_h" transform="matrix(10.4,0,0,10.4,86.3,415.9)" />
</g>
<path d="M112.5,378.1v66.2M288.8,378.1v66.2" class="g3_30" />
<g fill="#000000" >
<use xlink:href="#f2_c" transform="matrix(10.4,0,0,11.4,338.2,413.7)" />
<use xlink:href="#f2_d" transform="matrix(10.4,0,0,11.4,450.8,413.7)" />
<use xlink:href="#f1_l" transform="matrix(7.9,0,0,7.9,326.4,406.1)" />
<use xlink:href="#f1_h" transform="matrix(10.5,0,0,10.5,459.4,415.7)" />
<use xlink:href="#f3_2j" transform="matrix(10.5,0,0,10.5,115.6,391.6)" />
<use xlink:href="#f3_1w" transform="matrix(10.5,0,0,10.5,147.6,391.6)" />
<use xlink:href="#f3_1x" transform="matrix(10.5,0,0,10.5,195.8,391.6)" />
<use xlink:href="#f3_1y" transform="matrix(10.5,0,0,10.5,260.6,391.6)" />
<use xlink:href="#f3_1w" transform="matrix(10.5,0,0,10.5,131.2,415.7)" />
<use xlink:href="#f3_2j" transform="matrix(10.5,0,0,10.5,180.2,415.7)" />
<use xlink:href="#f3_1x" transform="matrix(10.5,0,0,10.5,212.1,415.7)" />
<use xlink:href="#f3_1y" transform="matrix(10.5,0,0,10.5,260.6,415.7)" />
<use xlink:href="#f3_2j" transform="matrix(10.5,0,0,10.5,316,415.7)" />
<use xlink:href="#f3_2j" transform="matrix(10.5,0,0,10.5,345.6,415.7)" />
<use xlink:href="#f3_1w" transform="matrix(10.5,0,0,10.5,377.5,415.7)" />
<use xlink:href="#f3_1x" transform="matrix(10.5,0,0,10.5,408.7,415.7)" />
<use xlink:href="#f3_1y" transform="matrix(10.5,0,0,10.5,440.1,415.7)" />
<use xlink:href="#f3_1w" transform="matrix(10.5,0,0,10.5,131.2,439.7)" />
<use xlink:href="#f3_1x" transform="matrix(10.5,0,0,10.5,195.8,439.7)" />
<use xlink:href="#f3_2j" transform="matrix(10.5,0,0,10.5,245.2,439.7)" />
<use xlink:href="#f3_1y" transform="matrix(10.5,0,0,10.5,276.9,439.7)" />
<use xlink:href="#f2_f" transform="matrix(10.5,0,0,10.5,132.4,391.6)" />
<use xlink:href="#f2_f" transform="matrix(10.5,0,0,10.5,196.9,415.7)" />
<use xlink:href="#f2_x" transform="matrix(10.5,0,0,10.5,298.5,415.7)" />
<use xlink:href="#f2_f" transform="matrix(10.5,0,0,10.5,362.3,415.7)" />
<use xlink:href="#f2_f" transform="matrix(10.5,0,0,10.5,393.5,415.7)" />
<use xlink:href="#f2_f" transform="matrix(10.5,0,0,10.5,425.2,415.7)" />
<use xlink:href="#f2_f" transform="matrix(10.5,0,0,10.5,262,439.7)" />
<use xlink:href="#f1_o" transform="matrix(10.4,0,0,10.4,68.3,463.9)" />
<use xlink:href="#f1_s" transform="matrix(10.4,0,0,10.4,77.2,463.9)" />
<use xlink:href="#f1_h" transform="matrix(10.4,0,0,10.4,86.3,463.9)" />
<use xlink:href="#f1_1i" transform="matrix(10.4,0,0,10.4,109,463.9)" />
<use xlink:href="#f1_23" transform="matrix(10.4,0,0,10.4,119.6,463.9)" />
<use xlink:href="#f1_2a" transform="matrix(10.4,0,0,10.4,128.5,463.9)" />
<use xlink:href="#f1_2i" transform="matrix(10.4,0,0,10.4,137.4,463.9)" />
<use xlink:href="#f1_2f" transform="matrix(10.4,0,0,10.4,156,463.9)" />
<use xlink:href="#f1_23" transform="matrix(10.4,0,0,10.4,160.5,463.9)" />
<use xlink:href="#f1_1w" transform="matrix(10.4,0,0,10.4,169.3,463.9)" />
<use xlink:href="#f1_2f" transform="matrix(10.4,0,0,10.4,178.2,463.9)" />
<use xlink:href="#f1_t" transform="matrix(10.4,0,0,10.4,189.8,463.9)" />
</g>
<path d="M167.4,483.5v72.3M275.8,483.5v72.3" class="g1_30" />
<g fill="#000000" >
<use xlink:href="#f2_c" transform="matrix(10.4,0,0,13.8,302.1,527.9)" />
<use xlink:href="#f2_d" transform="matrix(10.4,0,0,13.8,352.9,527.9)" />
<use xlink:href="#f2_c" transform="matrix(10.4,0,0,11.2,361.8,525.2)" />
<use xlink:href="#f2_d" transform="matrix(10.4,0,0,11.2,412.3,525.2)" />
<use xlink:href="#f2_c" transform="matrix(10.4,0,0,13.8,420.7,527.9)" />
<use xlink:href="#f2_d" transform="matrix(10.4,0,0,13.8,472.2,527.9)" />
<use xlink:href="#f2_c" transform="matrix(10.4,0,0,13.8,480.9,527.9)" />
<use xlink:href="#f2_d" transform="matrix(10.4,0,0,13.8,589.6,527.9)" />
<use xlink:href="#f1_l" transform="matrix(7.9,0,0,7.8,180.9,517.8)" />
<use xlink:href="#f1_l" transform="matrix(7.9,0,0,7.8,223.2,517.8)" />
<use xlink:href="#f1_l" transform="matrix(7.9,0,0,7.8,264.7,517.8)" />
<use xlink:href="#f1_h" transform="matrix(10.5,0,0,10.4,598,527.3)" />
<use xlink:href="#f3_2j" transform="matrix(10.5,0,0,10.4,174.8,497)" />
<use xlink:href="#f3_2k" transform="matrix(10.5,0,0,10.4,217.1,497)" />
<use xlink:href="#f3_2l" transform="matrix(10.5,0,0,10.4,259.1,497)" />
<use xlink:href="#f3_2j" transform="matrix(10.5,0,0,10.4,170.5,527.3)" />
<use xlink:href="#f3_2k" transform="matrix(10.5,0,0,10.4,212.8,527.3)" />
<use xlink:href="#f3_2l" transform="matrix(10.5,0,0,10.4,254.7,527.3)" />
<use xlink:href="#f3_2k" transform="matrix(10.5,0,0,10.4,309.6,527.3)" />
<use xlink:href="#f3_2l" transform="matrix(10.5,0,0,10.4,341.9,527.3)" />
<use xlink:href="#f3_2l" transform="matrix(10.5,0,0,10.4,368.6,527.3)" />
<use xlink:href="#f3_2j" transform="matrix(10.5,0,0,10.4,400.6,527.3)" />
<use xlink:href="#f3_2j" transform="matrix(10.5,0,0,10.4,428,527.3)" />
<use xlink:href="#f3_2k" transform="matrix(10.5,0,0,10.4,460.8,527.3)" />
<use xlink:href="#f3_2k" transform="matrix(10.5,0,0,10.4,488.4,527.3)" />
<use xlink:href="#f3_2l" transform="matrix(10.5,0,0,10.4,496.8,527.3)" />
<use xlink:href="#f3_2l" transform="matrix(10.5,0,0,10.4,528.8,527.3)" />
<use xlink:href="#f3_2j" transform="matrix(10.5,0,0,10.4,537.1,527.3)" />
<use xlink:href="#f3_2j" transform="matrix(10.5,0,0,10.4,569.8,527.3)" />
<use xlink:href="#f3_2k" transform="matrix(10.5,0,0,10.4,578.1,527.3)" />
<use xlink:href="#f3_2k" transform="matrix(10.5,0,0,10.4,171,551.2)" />
<use xlink:href="#f3_2l" transform="matrix(10.5,0,0,10.4,179.3,551.2)" />
<use xlink:href="#f3_2l" transform="matrix(10.5,0,0,10.4,212.7,551.2)" />
<use xlink:href="#f3_2j" transform="matrix(10.5,0,0,10.4,221,551.2)" />
<use xlink:href="#f3_2j" transform="matrix(10.5,0,0,10.4,254.8,551.2)" />
<use xlink:href="#f3_2k" transform="matrix(10.5,0,0,10.4,263.1,551.2)" />
<use xlink:href="#f2_x" transform="matrix(10.5,0,0,10.4,285.4,527.3)" />
<use xlink:href="#f2_h" transform="matrix(10.5,0,0,10.4,326.3,527.3)" />
<use xlink:href="#f2_h" transform="matrix(10.5,0,0,10.4,384.8,527.3)" />
<use xlink:href="#f2_h" transform="matrix(10.5,0,0,10.4,444.7,527.3)" />
<use xlink:href="#f2_f" transform="matrix(10.5,0,0,10.4,512.9,527.3)" />
<use xlink:href="#f2_f" transform="matrix(10.5,0,0,10.4,553.7,527.3)" />
<use xlink:href="#f1_p" transform="matrix(10.4,0,0,10.4,70,582.7)" />
<use xlink:href="#f1_j" transform="matrix(10.4,0,0,10.4,78.8,582.7)" />
<use xlink:href="#f1_h" transform="matrix(10.4,0,0,10.4,88,582.7)" />
<use xlink:href="#f1_b" transform="matrix(10.4,0,0,10.4,131.6,582.7)" />
<use xlink:href="#f1_24" transform="matrix(10.4,0,0,10.4,136.9,582.7)" />
<use xlink:href="#f1_c" transform="matrix(10.4,0,0,10.4,140.4,582.7)" />
<use xlink:href="#f1_18" transform="matrix(10.4,0,0,10.4,164,582.7)" />
<use xlink:href="#f1_21" transform="matrix(10.4,0,0,10.4,168.4,582.7)" />
<use xlink:href="#f1_2f" transform="matrix(10.4,0,0,10.4,178.4,582.7)" />
<use xlink:href="#f1_23" transform="matrix(10.4,0,0,10.4,182.8,582.7)" />
<use xlink:href="#f1_20" transform="matrix(10.4,0,0,10.4,191.7,582.7)" />
<use xlink:href="#f1_2b" transform="matrix(10.4,0,0,10.4,206.2,582.7)" />
<use xlink:href="#f1_2a" transform="matrix(10.4,0,0,10.4,215.1,582.7)" />
<use xlink:href="#f1_24" transform="matrix(10.4,0,0,10.4,224,582.7)" />
<use xlink:href="#f1_29" transform="matrix(10.4,0,0,10.4,227.5,582.7)" />
<use xlink:href="#f1_2f" transform="matrix(10.4,0,0,10.4,236.4,582.7)" />
<use xlink:href="#f1_2e" transform="matrix(10.4,0,0,10.4,240.8,582.7)" />
<use xlink:href="#f1_b" transform="matrix(10.4,0,0,10.4,254.3,582.7)" />
<use xlink:href="#f3_1w" transform="matrix(10.4,0,0,10.4,259.2,582.7)" />
<use xlink:href="#f3_f" transform="matrix(10.4,0,0,10.4,268,582.7)" />
<use xlink:href="#f3_1x" transform="matrix(10.4,0,0,10.4,278.1,582.7)" />
<use xlink:href="#f1_c" transform="matrix(10.4,0,0,10.4,286.8,582.7)" />
<use xlink:href="#f1_b" transform="matrix(10.4,0,0,10.4,297.7,582.7)" />
<use xlink:href="#f3_1w" transform="matrix(10.4,0,0,10.4,303,582.7)" />
<use xlink:href="#f1_3e" transform="matrix(10.4,0,0,10.4,311.8,582.7)" />
<use xlink:href="#f1_f" transform="matrix(10.4,0,0,10.4,317.1,582.7)" />
<use xlink:href="#f3_1x" transform="matrix(10.4,0,0,10.4,327.2,582.7)" />
<use xlink:href="#f1_3e" transform="matrix(10.4,0,0,10.4,336,582.7)" />
<use xlink:href="#f1_c" transform="matrix(10.4,0,0,10.4,341.3,582.7)" />
<use xlink:href="#f1_1w" transform="matrix(10.4,0,0,10.4,352.1,582.7)" />
<use xlink:href="#f1_29" transform="matrix(10.4,0,0,10.4,361,582.7)" />
<use xlink:href="#f1_1z" transform="matrix(10.4,0,0,10.4,369.8,582.7)" />
<use xlink:href="#f1_b" transform="matrix(10.4,0,0,10.4,384.4,582.7)" />
<use xlink:href="#f3_1w" transform="matrix(10.4,0,0,10.4,389.5,582.7)" />
<use xlink:href="#f1_99" transform="matrix(10.4,0,0,10.4,403.8,582.7)" />
<use xlink:href="#f3_1w" transform="matrix(10.4,0,0,10.4,418.3,582.7)" />
<use xlink:href="#f3_3e" transform="matrix(10.4,0,0,10.4,427.2,582.7)" />
<use xlink:href="#f1_f" transform="matrix(10.4,0,0,10.4,432.4,582.7)" />
<use xlink:href="#f3_1x" transform="matrix(10.4,0,0,10.4,442.3,582.7)" />
<use xlink:href="#f1_99" transform="matrix(10.4,0,0,10.4,456.6,582.7)" />
<use xlink:href="#f3_1x" transform="matrix(10.4,0,0,10.4,471.1,582.7)" />
<use xlink:href="#f1_3e" transform="matrix(10.4,0,0,10.4,479.9,582.7)" />
<use xlink:href="#f1_c" transform="matrix(10.4,0,0,10.4,485.2,582.7)" />
<use xlink:href="#f1_1w" transform="matrix(10.4,0,0,10.4,496.2,582.7)" />
<use xlink:href="#f1_2d" transform="matrix(10.4,0,0,10.4,505.1,582.7)" />
<use xlink:href="#f1_20" transform="matrix(10.4,0,0,10.4,510.4,582.7)" />
<use xlink:href="#f1_1y" transform="matrix(10.4,0,0,10.4,524.7,582.7)" />
<use xlink:href="#f1_2a" transform="matrix(10.4,0,0,10.4,532.7,582.7)" />
<use xlink:href="#f1_27" transform="matrix(10.4,0,0,10.4,541.6,582.7)" />
<use xlink:href="#f1_27" transform="matrix(10.4,0,0,10.4,545.1,582.7)" />
<use xlink:href="#f1_24" transform="matrix(10.4,0,0,10.4,548.7,582.7)" />
<use xlink:href="#f1_29" transform="matrix(10.4,0,0,10.4,552.2,582.7)" />
<use xlink:href="#f1_20" transform="matrix(10.4,0,0,10.4,561.1,582.7)" />
<use xlink:href="#f1_1w" transform="matrix(10.4,0,0,10.4,569.9,582.7)" />
<use xlink:href="#f1_2d" transform="matrix(10.4,0,0,10.4,578.8,582.7)" />
<use xlink:href="#f1_h" transform="matrix(10.4,0,0,10.4,584.1,582.7)" />
<use xlink:href="#f1_1i" transform="matrix(10.4,0,0,10.4,594.2,582.7)" />
<use xlink:href="#f1_23" transform="matrix(10.4,0,0,10.4,604.9,582.7)" />
<use xlink:href="#f1_2a" transform="matrix(10.4,0,0,10.4,613.7,582.7)" />
<use xlink:href="#f1_2i" transform="matrix(10.4,0,0,10.4,622.6,582.7)" />
<use xlink:href="#f1_2f" transform="matrix(10.4,0,0,10.4,164,602.9)" />
<use xlink:href="#f1_23" transform="matrix(10.4,0,0,10.4,168.4,602.9)" />
<use xlink:href="#f1_1w" transform="matrix(10.4,0,0,10.4,177.3,602.9)" />
<use xlink:href="#f1_2f" transform="matrix(10.4,0,0,10.4,186.2,602.9)" />
<use xlink:href="#f3_1w" transform="matrix(10.4,0,0,10.4,197.4,602.9)" />
<use xlink:href="#f3_1x" transform="matrix(10.4,0,0,10.4,206.2,602.9)" />
<use xlink:href="#f1_3e" transform="matrix(10.4,0,0,10.4,215,602.9)" />
<use xlink:href="#f1_w" transform="matrix(10.4,0,0,10.4,227.4,602.9)" />
<use xlink:href="#f3_1w" transform="matrix(10.4,0,0,10.4,243.9,602.9)" />
<use xlink:href="#f3_3e" transform="matrix(10.4,0,0,10.4,252.8,602.9)" />
<use xlink:href="#f3_1x" transform="matrix(10.4,0,0,10.4,258.1,602.9)" />
<use xlink:href="#f1_h" transform="matrix(10.4,0,0,10.4,266.9,602.9)" />
<use xlink:href="#f1_b" transform="matrix(10.4,0,0,10.4,127.9,652.9)" />
<use xlink:href="#f1_24" transform="matrix(10.4,0,0,10.4,133.2,652.9)" />
<use xlink:href="#f1_24" transform="matrix(10.4,0,0,10.4,136.7,652.9)" />
<use xlink:href="#f1_c" transform="matrix(10.4,0,0,10.4,140.3,652.9)" />
<use xlink:href="#f1_18" transform="matrix(10.4,0,0,10.4,164,652.9)" />
<use xlink:href="#f1_21" transform="matrix(10.4,0,0,10.4,168.4,652.9)" />
</g>
<path d="M512.2,638.8v14.7m28.6,-14.7v14.7m27.8,-14.7v14.7m16.8,-14.7v14.7m6.3,-14.7v14.7m16.6,-14.7v14.7" class="g1_30" />
<g fill="#000000" >
<use xlink:href="#f1_l" transform="matrix(10.5,0,0,10.5,227.2,640.7)" />
<use xlink:href="#f1_o" transform="matrix(10.5,0,0,10.5,258.9,640.7)" />
<use xlink:href="#f1_n" transform="matrix(10.5,0,0,10.5,363.2,640.7)" />
<use xlink:href="#f1_m" transform="matrix(10.5,0,0,10.5,404.4,640.7)" />
<use xlink:href="#f1_1w" transform="matrix(10.5,0,0,10.5,283.5,652.5)" />
<use xlink:href="#f1_29" transform="matrix(10.5,0,0,10.5,292.8,652.5)" />
<use xlink:href="#f1_1z" transform="matrix(10.5,0,0,10.5,302.2,652.5)" />
<use xlink:href="#f1_2h" transform="matrix(10.5,0,0,10.5,429.5,652.5)" />
<use xlink:href="#f1_20" transform="matrix(10.5,0,0,10.5,437.8,652.5)" />
<use xlink:href="#f1_2d" transform="matrix(10.5,0,0,10.5,447.2,652.5)" />
<use xlink:href="#f1_24" transform="matrix(10.5,0,0,10.5,452.7,652.5)" />
<use xlink:href="#f1_2f" transform="matrix(10.5,0,0,10.5,456.5,652.5)" />
<use xlink:href="#f1_2k" transform="matrix(10.5,0,0,10.5,461.3,652.5)" />
<use xlink:href="#f1_2f" transform="matrix(10.5,0,0,10.5,474.4,652.5)" />
<use xlink:href="#f1_23" transform="matrix(10.5,0,0,10.5,479.2,652.5)" />
<use xlink:href="#f1_1w" transform="matrix(10.5,0,0,10.5,488.5,652.5)" />
<use xlink:href="#f1_2f" transform="matrix(10.5,0,0,10.5,497.8,652.5)" />
<use xlink:href="#f1_h" transform="matrix(10.5,0,0,10.5,613.6,652.5)" />
<use xlink:href="#f1_l" transform="matrix(10.5,0,0,10.5,227.2,664.7)" />
<use xlink:href="#f1_k" transform="matrix(10.5,0,0,10.5,259.5,664.7)" />
<use xlink:href="#f1_l" transform="matrix(10.5,0,0,10.5,363.3,664.7)" />
<use xlink:href="#f1_o" transform="matrix(10.5,0,0,10.5,399.8,664.7)" />
<use xlink:href="#f3_10" transform="matrix(10.5,0,0,10.5,182.3,652.5)" />
<use xlink:href="#f3_11" transform="matrix(10.5,0,0,10.5,317.6,652.5)" />
<use xlink:href="#f3_10" transform="matrix(10.5,0,0,10.5,515.9,652.5)" />
<use xlink:href="#f3_11" transform="matrix(10.5,0,0,10.5,526.9,652.5)" />
<use xlink:href="#f3_10" transform="matrix(10.5,0,0,10.5,572.4,652.5)" />
<use xlink:href="#f3_11" transform="matrix(10.5,0,0,10.5,594.5,652.5)" />
<use xlink:href="#f2_h" transform="matrix(10.5,0,0,10.5,395.4,640.7)" />
<use xlink:href="#f2_4r" transform="matrix(10.5,0,0,10.5,219.5,641.8)" />
<use xlink:href="#f2_57" transform="matrix(10.5,0,0,10.5,269.7,641.8)" />
<use xlink:href="#f2_4r" transform="matrix(10.5,0,0,10.5,355.5,641.8)" />
<use xlink:href="#f2_57" transform="matrix(10.5,0,0,10.5,415.2,641.8)" />
<use xlink:href="#f2_x" transform="matrix(10.5,0,0,10.5,201.8,652.5)" />
<use xlink:href="#f2_x" transform="matrix(10.5,0,0,10.5,337.8,652.5)" />
<use xlink:href="#f2_x" transform="matrix(10.5,0,0,10.5,551,652.5)" />
<use xlink:href="#f2_4s" transform="matrix(10.5,0,0,10.5,219.5,657.3)" />
<use xlink:href="#f2_58" transform="matrix(10.5,0,0,10.5,269.7,657.3)" />
<use xlink:href="#f2_4s" transform="matrix(10.5,0,0,10.5,355.5,657.3)" />
<use xlink:href="#f2_58" transform="matrix(10.5,0,0,10.5,415.2,657.3)" />
<use xlink:href="#f2_4t" transform="matrix(10.5,0,0,10.5,219.5,668.1)" />
<use xlink:href="#f2_59" transform="matrix(10.5,0,0,10.5,269.7,668.1)" />
<use xlink:href="#f2_4t" transform="matrix(10.5,0,0,10.5,355.5,668.1)" />
<use xlink:href="#f2_59" transform="matrix(10.5,0,0,10.5,415.2,668.1)" />
<use xlink:href="#f1_p" transform="matrix(10.4,0,0,10.4,68.3,730.8)" />
<use xlink:href="#f1_k" transform="matrix(10.4,0,0,10.4,77.2,730.8)" />
<use xlink:href="#f1_h" transform="matrix(10.4,0,0,10.4,86.3,730.8)" />
<use xlink:href="#f1_16" transform="matrix(10.4,0,0,10.4,109,730.8)" />
<use xlink:href="#f1_24" transform="matrix(10.4,0,0,10.4,121.7,730.8)" />
<use xlink:href="#f1_2h" transform="matrix(10.4,0,0,10.4,125.2,730.8)" />
<use xlink:href="#f1_20" transform="matrix(10.4,0,0,10.4,133.4,730.8)" />
<use xlink:href="#f1_29" transform="matrix(10.4,0,0,10.4,142.3,730.8)" />
<use xlink:href="#f1_j" transform="matrix(10.5,0,0,10.5,388.5,706.6)" />
<use xlink:href="#f1_k" transform="matrix(10.5,0,0,10.5,421.1,706.6)" />
<use xlink:href="#f1_j" transform="matrix(10.5,0,0,10.5,211.4,718.9)" />
<use xlink:href="#f1_k" transform="matrix(10.5,0,0,10.5,253.7,718.9)" />
<use xlink:href="#f1_l" transform="matrix(10.5,0,0,10.5,284.3,718.9)" />
<use xlink:href="#f1_1w" transform="matrix(10.5,0,0,10.5,308.8,730.7)" />
<use xlink:href="#f1_29" transform="matrix(10.5,0,0,10.5,318.2,730.7)" />
<use xlink:href="#f1_1z" transform="matrix(10.5,0,0,10.5,327.5,730.7)" />
<use xlink:href="#f1_k" transform="matrix(10.5,0,0,10.5,389.2,730.7)" />
<use xlink:href="#f1_j" transform="matrix(10.5,0,0,10.5,420.4,730.7)" />
<use xlink:href="#f1_h" transform="matrix(10.5,0,0,10.5,440.8,730.7)" />
<use xlink:href="#f1_l" transform="matrix(10.5,0,0,10.5,211.5,743)" />
<use xlink:href="#f1_l" transform="matrix(10.5,0,0,10.5,252.6,743)" />
<use xlink:href="#f1_j" transform="matrix(10.5,0,0,10.5,284.2,743)" />
<use xlink:href="#f1_k" transform="matrix(10.5,0,0,10.5,389.2,754.7)" />
<use xlink:href="#f1_k" transform="matrix(10.5,0,0,10.5,421.1,754.7)" />
<use xlink:href="#f3_10" transform="matrix(10.5,0,0,10.5,166.5,730.7)" />
<use xlink:href="#f3_11" transform="matrix(10.5,0,0,10.5,342.9,730.7)" />
<use xlink:href="#f2_4r" transform="matrix(10.5,0,0,10.5,380.8,707.8)" />
<use xlink:href="#f2_57" transform="matrix(10.5,0,0,10.5,431.2,707.8)" />
<use xlink:href="#f2_h" transform="matrix(10.5,0,0,10.5,244.7,718.9)" />
<use xlink:href="#f2_4r" transform="matrix(10.5,0,0,10.5,203.6,720.1)" />
<use xlink:href="#f2_57" transform="matrix(10.5,0,0,10.5,295,720.1)" />
<use xlink:href="#f2_4s" transform="matrix(10.5,0,0,10.5,380.8,723.3)" />
<use xlink:href="#f2_58" transform="matrix(10.5,0,0,10.5,431.2,723.3)" />
<use xlink:href="#f2_x" transform="matrix(10.5,0,0,10.5,185.9,730.7)" />
<use xlink:href="#f2_x" transform="matrix(10.5,0,0,10.5,363.1,730.7)" />
<use xlink:href="#f2_4s" transform="matrix(10.5,0,0,10.5,203.6,735.6)" />
<use xlink:href="#f2_58" transform="matrix(10.5,0,0,10.5,295,735.6)" />
<use xlink:href="#f2_4s" transform="matrix(10.5,0,0,10.5,380.8,738.5)" />
<use xlink:href="#f2_58" transform="matrix(10.5,0,0,10.5,431.2,738.5)" />
<use xlink:href="#f2_h" transform="matrix(10.5,0,0,10.5,243.5,743)" />
<use xlink:href="#f2_4t" transform="matrix(10.5,0,0,10.5,203.6,746.3)" />
<use xlink:href="#f2_59" transform="matrix(10.5,0,0,10.5,295,746.3)" />
<use xlink:href="#f2_4s" transform="matrix(10.5,0,0,10.5,380.8,753.8)" />
<use xlink:href="#f2_58" transform="matrix(10.5,0,0,10.5,431.2,753.8)" />
<use xlink:href="#f2_4t" transform="matrix(10.5,0,0,10.5,380.8,758.1)" />
<use xlink:href="#f2_59" transform="matrix(10.5,0,0,10.5,431.2,758.1)" />
<use xlink:href="#f1_15" transform="matrix(10.4,0,0,10.4,454.6,730.8)" />
<use xlink:href="#f1_24" transform="matrix(10.4,0,0,10.4,464.3,730.8)" />
<use xlink:href="#f1_29" transform="matrix(10.4,0,0,10.4,467.9,730.8)" />
<use xlink:href="#f1_1z" transform="matrix(10.4,0,0,10.4,476.7,730.8)" />
<use xlink:href="#f1_2f" transform="matrix(10.4,0,0,10.4,491.8,730.8)" />
<use xlink:href="#f1_23" transform="matrix(10.4,0,0,10.4,496.3,730.8)" />
<use xlink:href="#f1_20" transform="matrix(10.4,0,0,10.4,505.2,730.8)" />
<use xlink:href="#f1_2b" transform="matrix(10.4,0,0,10.4,520.4,730.8)" />
<use xlink:href="#f1_2d" transform="matrix(10.4,0,0,10.4,529.3,730.8)" />
<use xlink:href="#f1_2a" transform="matrix(10.4,0,0,10.4,534.6,730.8)" />
<use xlink:href="#f1_1z" transform="matrix(10.4,0,0,10.4,543.5,730.8)" />
<use xlink:href="#f1_2g" transform="matrix(10.4,0,0,10.4,552.3,730.8)" />
<use xlink:href="#f1_1y" transform="matrix(10.4,0,0,10.4,561.2,730.8)" />
<use xlink:href="#f1_2f" transform="matrix(10.4,0,0,10.4,569.2,730.8)" />
<use xlink:href="#f3_10" transform="matrix(10.4,0,0,10.4,579.4,730.8)" />
<use xlink:href="#f3_11" transform="matrix(10.4,0,0,10.4,590.1,730.8)" />
<use xlink:href="#f1_1w" transform="matrix(10.4,0,0,10.4,607.1,730.8)" />
<use xlink:href="#f1_29" transform="matrix(10.4,0,0,10.4,616,730.8)" />
<use xlink:href="#f1_1z" transform="matrix(10.4,0,0,10.4,624.9,730.8)" />
<use xlink:href="#f1_1w" transform="matrix(10.4,0,0,10.4,109,785.7)" />
<use xlink:href="#f1_27" transform="matrix(10.4,0,0,10.4,117.9,785.7)" />
<use xlink:href="#f1_2e" transform="matrix(10.4,0,0,10.4,121.4,785.7)" />
<use xlink:href="#f1_2a" transform="matrix(10.4,0,0,10.4,129.4,785.7)" />
<use xlink:href="#f1_21" transform="matrix(10.4,0,0,10.4,145.4,785.7)" />
<use xlink:href="#f1_24" transform="matrix(10.4,0,0,10.4,149.8,785.7)" />
<use xlink:href="#f1_29" transform="matrix(10.4,0,0,10.4,153.4,785.7)" />
<use xlink:href="#f1_1z" transform="matrix(10.4,0,0,10.4,162.3,785.7)" />
<use xlink:href="#f1_b" transform="matrix(10.4,0,0,10.4,178.5,785.7)" />
<use xlink:href="#f3_10" transform="matrix(10.4,0,0,10.4,183.4,785.7)" />
<use xlink:href="#f3_11" transform="matrix(10.4,0,0,10.4,194.1,785.7)" />
<use xlink:href="#f1_c" transform="matrix(10.4,0,0,10.4,204.7,785.7)" />
<use xlink:href="#f1_99" transform="matrix(7.4,0,0,7.4,210,780.3)" />
<use xlink:href="#f1_k" transform="matrix(7.4,0,0,7.4,216.3,780.3)" />
<use xlink:href="#f1_h" transform="matrix(10.4,0,0,10.4,222.5,785.7)" />
<use xlink:href="#f1_p" transform="matrix(10.4,0,0,10.4,68.3,816.6)" />
<use xlink:href="#f1_l" transform="matrix(10.4,0,0,10.4,77.2,816.6)" />
<use xlink:href="#f1_h" transform="matrix(10.4,0,0,10.4,86.3,816.6)" />
<use xlink:href="#f1_1i" transform="matrix(10.4,0,0,10.4,109,816.6)" />
<use xlink:href="#f1_2a" transform="matrix(10.4,0,0,10.4,119.6,816.6)" />
<use xlink:href="#f1_27" transform="matrix(10.4,0,0,10.4,128.5,816.6)" />
<use xlink:href="#f1_2h" transform="matrix(10.4,0,0,10.4,132.1,816.6)" />
<use xlink:href="#f1_20" transform="matrix(10.4,0,0,10.4,140,816.6)" />
<use xlink:href="#f1_2f" transform="matrix(10.4,0,0,10.4,156.2,816.6)" />
<use xlink:href="#f1_23" transform="matrix(10.4,0,0,10.4,160.7,816.6)" />
<use xlink:href="#f1_20" transform="matrix(10.4,0,0,10.4,169.5,816.6)" />
<use xlink:href="#f1_21" transform="matrix(10.4,0,0,10.4,185.7,816.6)" />
<use xlink:href="#f1_2a" transform="matrix(10.4,0,0,10.4,190.2,816.6)" />
<use xlink:href="#f1_27" transform="matrix(10.4,0,0,10.4,199,816.6)" />
<use xlink:href="#f1_27" transform="matrix(10.4,0,0,10.4,202.6,816.6)" />
<use xlink:href="#f1_2a" transform="matrix(10.4,0,0,10.4,206.1,816.6)" />
<use xlink:href="#f1_2i" transform="matrix(10.4,0,0,10.4,215,816.6)" />
<use xlink:href="#f1_24" transform="matrix(10.4,0,0,10.4,226.5,816.6)" />
<use xlink:href="#f1_29" transform="matrix(10.4,0,0,10.4,230.1,816.6)" />
<use xlink:href="#f1_22" transform="matrix(10.4,0,0,10.4,238.9,816.6)" />
<use xlink:href="#f1_20" transform="matrix(10.4,0,0,10.4,255.3,816.6)" />
<use xlink:href="#f1_2c" transform="matrix(10.4,0,0,10.4,264.2,816.6)" />
<use xlink:href="#f1_2g" transform="matrix(10.4,0,0,10.4,273,816.6)" />
<use xlink:href="#f1_1w" transform="matrix(10.4,0,0,10.4,281.9,816.6)" />
<use xlink:href="#f1_2f" transform="matrix(10.4,0,0,10.4,290.8,816.6)" />
<use xlink:href="#f1_24" transform="matrix(10.4,0,0,10.4,295.2,816.6)" />
<use xlink:href="#f1_2a" transform="matrix(10.4,0,0,10.4,298.8,816.6)" />
<use xlink:href="#f1_29" transform="matrix(10.4,0,0,10.4,307.6,816.6)" />
<use xlink:href="#f1_21" transform="matrix(10.4,0,0,10.4,323.8,816.6)" />
<use xlink:href="#f1_2a" transform="matrix(10.4,0,0,10.4,328.3,816.6)" />
<use xlink:href="#f1_2d" transform="matrix(10.4,0,0,10.4,337.1,816.6)" />
<use xlink:href="#f3_2j" transform="matrix(10.4,0,0,10.4,348.4,816.6)" />
<use xlink:href="#f1_h" transform="matrix(10.4,0,0,10.4,356.5,816.6)" />
</g>
<path d="M167.5,836.6v66.2M343.7,836.6v66.2" class="g4_30" />
<g fill="#000000" >
<use xlink:href="#f1_j" transform="matrix(10.5,0,0,10.5,370.6,874.2)" />
<use xlink:href="#f1_h" transform="matrix(10.5,0,0,10.5,379.9,874.2)" />
<use xlink:href="#f3_1w" transform="matrix(10.5,0,0,10.5,170,850.2)" />
<use xlink:href="#f3_2j" transform="matrix(10.5,0,0,10.5,202,850.2)" />
<use xlink:href="#f3_1w" transform="matrix(10.5,0,0,10.5,234.7,850.2)" />
<use xlink:href="#f3_2j" transform="matrix(10.5,0,0,10.5,266.4,850.2)" />
<use xlink:href="#f3_1w" transform="matrix(10.5,0,0,10.5,299.3,850.2)" />
<use xlink:href="#f3_2j" transform="matrix(10.5,0,0,10.5,331,850.2)" />
<use xlink:href="#f3_1w" transform="matrix(10.5,0,0,10.5,170.2,874.2)" />
<use xlink:href="#f3_2j" transform="matrix(10.5,0,0,10.5,201.9,874.2)" />
<use xlink:href="#f3_1w" transform="matrix(10.5,0,0,10.5,234.6,874.2)" />
<use xlink:href="#f3_2j" transform="matrix(10.5,0,0,10.5,266.5,874.2)" />
<use xlink:href="#f3_1w" transform="matrix(10.5,0,0,10.5,299.3,874.2)" />
<use xlink:href="#f3_2j" transform="matrix(10.5,0,0,10.5,331,874.2)" />
<use xlink:href="#f3_1w" transform="matrix(10.5,0,0,10.5,170.2,898.3)" />
<use xlink:href="#f3_2j" transform="matrix(10.5,0,0,10.5,201.9,898.3)" />
<use xlink:href="#f3_1w" transform="matrix(10.5,0,0,10.5,234.7,898.3)" />
<use xlink:href="#f3_2j" transform="matrix(10.5,0,0,10.5,266.4,898.3)" />
<use xlink:href="#f3_1w" transform="matrix(10.5,0,0,10.5,299.1,898.3)" />
<use xlink:href="#f3_2j" transform="matrix(10.5,0,0,10.5,331.1,898.3)" />
<use xlink:href="#f2_f" transform="matrix(10.5,0,0,10.5,186,850.2)" />
<use xlink:href="#f2_h" transform="matrix(10.5,0,0,10.5,250.7,850.2)" />
<use xlink:href="#f2_h" transform="matrix(10.5,0,0,10.5,315.2,850.2)" />
<use xlink:href="#f2_h" transform="matrix(10.5,0,0,10.5,186.1,874.2)" />
<use xlink:href="#f2_f" transform="matrix(10.5,0,0,10.5,250.5,874.2)" />
<use xlink:href="#f2_h" transform="matrix(10.5,0,0,10.5,315.2,874.2)" />
<use xlink:href="#f2_x" transform="matrix(10.5,0,0,10.5,353.4,874.2)" />
<use xlink:href="#f2_h" transform="matrix(10.5,0,0,10.5,186.1,898.3)" />
<use xlink:href="#f2_h" transform="matrix(10.5,0,0,10.5,250.7,898.3)" />
<use xlink:href="#f2_f" transform="matrix(10.5,0,0,10.5,315.1,898.3)" />
<use xlink:href="#f4_q" transform="matrix(12,0,0,12,665.7,1052.9)" />
</g>
<g fill="#0080FF" fill-opacity="0.5" >
<use xlink:href="#f0_1c" transform="matrix(36.3,0,0,36.3,174,1059.2)" />
<use xlink:href="#f0_21" transform="matrix(36.3,0,0,36.3,204.8,1059.2)" />
<use xlink:href="#f0_1x" transform="matrix(36.3,0,0,36.3,235.7,1059.2)" />
<use xlink:href="#f0_2e" transform="matrix(36.3,0,0,36.3,266.5,1059.2)" />
<use xlink:href="#f0_2a" transform="matrix(36.3,0,0,36.3,284.9,1059.2)" />
<use xlink:href="#f0_17" transform="matrix(36.3,0,0,36.3,315.8,1059.2)" />
<use xlink:href="#f0_2h" transform="matrix(36.3,0,0,36.3,358.9,1059.2)" />
<use xlink:href="#f0_25" transform="matrix(36.3,0,0,36.3,389.7,1059.2)" />
<use xlink:href="#f0_20" transform="matrix(36.3,0,0,36.3,402,1059.2)" />
<use xlink:href="#f0_21" transform="matrix(36.3,0,0,36.3,432.8,1059.2)" />
<use xlink:href="#f0_i" transform="matrix(36.3,0,0,36.3,463.7,1059.2)" />
<use xlink:href="#f0_25" transform="matrix(36.3,0,0,36.3,479.1,1059.2)" />
<use xlink:href="#f0_2a" transform="matrix(36.3,0,0,36.3,491.4,1059.2)" />
</g>
<defs>
<path d="M593,101c0,0,182,0,279,112c0,0,98,113,98,318c0,0,0,196,-98,308c0,0,-98,112,-277,112c0,0,-181,0,-279,-110c0,0,-99,-111,-99,-310c0,0,0,-198,100,-314c0,0,99,-116,276,-116Zm0,-115c0,0,-162,0,-279,65c0,0,-118,66,-180,190c0,0,-62,124,-62,290c0,0,0,252,138,394c0,0,138,142,385,142c0,0,160,0,278,-64c0,0,118,-64,180,-185c0,0,62,-122,62,-287c0,0,0,-165,-63,-289c0,0,-63,-124,-181,-190c0,0,-118,-66,-278,-66Z" 
id="f0_1f"
transform="scale(0.001,-0.001)" />

<path d="M106,0V635c0,0,0,141,-5,173H228c0,0,1,-4,2,-21c0,0,1,-16,2,-37c0,0,1,-22,2,-81h2c0,0,47,84,108,119c0,0,60,34,151,34c0,0,132,0,194,-66c0,0,61,-66,61,-218V0H615V512c0,0,0,80,-15,124c0,0,-16,44,-50,63c0,0,-35,20,-101,20c0,0,-97,0,-153,-67c0,0,-56,-66,-56,-184V0Z" 
id="f0_2a"
transform="scale(0.001,-0.001)" />

<path d="M103,0V1107H237V0Z" 
id="f0_28"
transform="scale(0.001,-0.001)" />

<path d="M102,0V808H236V0Zm0,979v128H236V979Z" 
id="f0_25"
transform="scale(0.001,-0.001)" />

<path d="M643,478c0,0,-11,128,-65,187c0,0,-54,59,-154,59c0,0,-98,0,-155,-66c0,0,-57,-65,-62,-180ZM431,-14c0,0,-179,0,-272,106c0,0,-94,107,-94,317c0,0,0,200,94,307c0,0,93,106,267,106c0,0,356,0,356,-429V375H206c0,0,0,-138,57,-213c0,0,58,-75,168,-75c0,0,87,0,140,35c0,0,53,35,71,88L760,177c0,0,-72,-191,-329,-191Z" 
id="f0_21"
transform="scale(0.001,-0.001)" />

<path d="M17,0L304,415L31,808H179L380,493L580,808H730L457,417L747,0H598L380,331L162,0Z" 
id="f0_2k"
transform="scale(0.001,-0.001)" />

<path d="M339,87c0,0,74,0,132,34c0,0,57,33,90,91c0,0,34,59,34,121v66L448,396c0,0,-95,-2,-144,-19c0,0,-49,-18,-75,-55c0,0,-26,-38,-26,-98c0,0,0,-65,35,-101c0,0,36,-36,101,-36ZM309,-14c0,0,-122,0,-183,64c0,0,-61,64,-61,176c0,0,0,125,82,192c0,0,83,67,266,72l182,3v44c0,0,0,98,-42,141c0,0,-42,43,-132,43c0,0,-90,0,-131,-31c0,0,-41,-31,-49,-98L101,604c0,0,34,218,323,218c0,0,153,0,229,-70c0,0,77,-69,77,-202V202c0,0,0,-59,16,-90c0,0,16,-30,60,-30c0,0,19,0,44,5V4C850,4,799,-7,746,-7c0,0,-75,0,-109,38c0,0,-33,40,-38,124h-4C595,155,543,62,475,24c0,0,-68,-38,-166,-38Z" 
id="f0_1x"
transform="scale(0.001,-0.001)" />

<path d="M106,0V635c0,0,0,141,-5,173H228c0,0,1,-4,2,-21c0,0,1,-16,2,-37c0,0,1,-22,2,-81h2c0,0,44,86,100,120c0,0,56,33,136,33c0,0,92,0,145,-36c0,0,54,-37,75,-117h2c0,0,42,82,101,117c0,0,59,36,143,36c0,0,123,0,178,-66c0,0,56,-67,56,-218V0H1039V512c0,0,0,117,-32,162c0,0,-32,45,-116,45c0,0,-88,0,-136,-66c0,0,-49,-65,-49,-185V0H573V512c0,0,0,117,-32,162c0,0,-32,45,-116,45c0,0,-86,0,-136,-66c0,0,-50,-66,-50,-185V0Z" 
id="f0_29"
transform="scale(0.001,-0.001)" />

<path d="M453,84c0,0,100,0,146,74c0,0,46,73,46,247c0,0,0,169,-46,241c0,0,-45,73,-145,73c0,0,-80,0,-125,-34c0,0,-45,-34,-68,-105c0,0,-24,-71,-24,-186c0,0,0,-159,51,-234c0,0,51,-76,165,-76ZM103,-316V643c0,0,0,124,-5,165H228c0,0,1,-3,3,-22c0,0,1,-18,3,-56c0,0,2,-38,2,-52h3c0,0,36,75,94,110c0,0,59,34,156,34c0,0,149,0,223,-100c0,0,74,-100,74,-314c0,0,0,-422,-297,-422c0,0,-187,0,-251,140h-4c0,0,3,-6,3,-126V-316Z" 
id="f0_2c"
transform="scale(0.001,-0.001)" />

<path d="M420,84c0,0,121,0,173,78c0,0,52,77,52,243c0,0,0,167,-50,243c0,0,-50,76,-167,76c0,0,-118,0,-170,-78c0,0,-53,-77,-53,-241c0,0,0,-160,52,-241c0,0,52,-80,163,-80Zm1,-98c0,0,-176,0,-267,107c0,0,-90,108,-90,312c0,0,0,417,362,417c0,0,185,0,272,-102c0,0,88,-101,88,-315c0,0,0,-212,-94,-316C692,89,599,-14,421,-14Z" 
id="f0_2b"
transform="scale(0.001,-0.001)" />

<path d="M278,-11c0,0,-162,0,-162,182V710H23v98h99l39,181h90V808H400V710H251V200c0,0,0,-58,19,-82c0,0,19,-23,66,-23c0,0,27,0,77,10V6c0,0,-66,-17,-135,-17Z" 
id="f0_2g"
transform="scale(0.001,-0.001)" />

<path d="M417,-28c0,0,-161,0,-259,79c0,0,-98,81,-109,223H189c0,0,11,-90,72,-139c0,0,61,-49,162,-49c0,0,96,0,158,68c0,0,61,68,61,175c0,0,0,112,-64,178c0,0,-64,66,-173,66c0,0,-59,0,-115,-28c0,0,-55,-29,-84,-73L93,480l77,573H727V922H271L225,629l4,3c0,0,89,60,188,60c0,0,169,0,269,-94c0,0,99,-93,99,-253c0,0,0,-165,-103,-269C682,76,579,-28,417,-28Z" 
id="f1_o"
transform="scale(0.001,-0.001)" />

<path d="M133,0V162H292V0Z" 
id="f1_h"
transform="scale(0.001,-0.001)" />

<path d="M39,0V0c0,0,0,170,84,277c0,0,85,108,317,236c0,0,113,62,154,115c0,0,41,52,41,134c0,0,0,86,-62,141c0,0,-61,54,-156,54c0,0,-101,0,-158,-68c0,0,-57,-68,-60,-194H67c0,0,-2,178,95,279c0,0,98,101,273,101c0,0,149,0,245,-89c0,0,94,-88,94,-228c0,0,0,-118,-60,-195c0,0,-61,-76,-229,-169C485,394,303,294,237,212c0,0,-28,-36,-46,-81H774V0Z" 
id="f1_l"
transform="scale(0.001,-0.001)" />

<path d="M511,373V863L169,383l-7,-10ZM511,0V258H38V383l496,691H646V373H799V258H646V0Z" 
id="f1_n"
transform="scale(0.001,-0.001)" />

<path d="M355,0V355H0v72H355V784h72V427H782V355H427V0Z" 
id="f2_f"
transform="scale(0.001,-0.001)" />

<path d="M0,214v74H784V214ZM0,494v72H784V494Z" 
id="f2_x"
transform="scale(0.001,-0.001)" />

<path d="M456,95c0,0,130,0,213,121c0,0,82,120,82,310c0,0,0,85,-44,131c0,0,-44,46,-125,46c0,0,-98,0,-174,-90c0,0,-76,-90,-108,-245c0,0,-26,-126,16,-199c0,0,42,-74,140,-74ZM436,-20c0,0,-132,0,-195,108l-5,7L217,0H89L316,1097H450L365,683l10,11c0,0,120,129,262,129c0,0,121,0,190,-77c0,0,69,-77,69,-211c0,0,0,-234,-134,-395C762,140,629,-20,436,-20Z" 
id="f3_1x"
transform="scale(0.001,-0.001)" />

<path d="M398,-20c0,0,-133,0,-209,72c0,0,-76,74,-76,202v3c0,0,0,27,4,60c0,0,4,33,10,63c0,0,43,208,168,326c0,0,126,117,306,117c0,0,131,0,192,-75c0,0,49,-61,50,-168l-3,-52H710c0,0,4,87,-33,131c0,0,-37,45,-113,45c0,0,-110,0,-184,-81c0,0,-75,-82,-107,-238c0,0,-6,-28,-9,-56c0,0,-3,-28,-3,-50c0,0,0,-88,43,-136c0,0,43,-48,121,-48c0,0,76,0,137,49c0,0,61,48,92,136H788C788,280,737,138,633,58c0,0,-103,-78,-235,-78Z" 
id="f3_1y"
transform="scale(0.001,-0.001)" />

<path d="M354,90c0,0,107,0,192,57c0,0,60,41,87,95c0,0,5,12,11,33c0,0,6,20,11,44l18,88c0,0,-62,-26,-132,-37L414,352c0,0,-84,-11,-131,-56c0,0,-47,-45,-47,-113c0,0,0,-44,31,-69c0,0,31,-24,87,-24ZM306,-20c0,0,-99,0,-156,47c0,0,-57,49,-57,134c0,0,1,117,81,198c0,0,80,81,211,98l164,20l70,10c0,0,35,6,59,30c0,0,23,24,31,66l1,2c0,0,13,64,-25,94c0,0,-39,31,-132,31c0,0,-83,0,-137,-37c0,0,-54,-37,-84,-114H210c0,0,46,137,138,201c0,0,92,63,245,63c0,0,149,0,211,-59c0,0,45,-44,44,-116c0,0,1,-30,-6,-63L749,136c0,0,-4,-19,6,-32c0,0,10,-12,30,-12c0,0,6,0,19,1c0,0,12,2,25,5L809,1c0,0,-19,-6,-43,-11c0,0,-22,-5,-36,-5c0,0,-73,0,-100,43c0,0,-16,27,-17,75C612,102,594,85,573,69c0,0,-120,-89,-267,-89Z" 
id="f3_1w"
transform="scale(0.001,-0.001)" />

<path d="M432,92c0,0,96,0,156,66c0,0,61,65,61,169c0,0,0,103,-61,169c0,0,-60,66,-156,66c0,0,-95,0,-156,-66c0,0,-61,-66,-61,-169c0,0,0,-104,61,-169c0,0,61,-66,156,-66ZM425,-28c0,0,-176,0,-271,135c0,0,-95,136,-95,388c0,0,0,278,103,429c0,0,103,151,293,151c0,0,142,0,226,-77c0,0,84,-76,90,-211H638c0,0,-8,80,-56,123c0,0,-47,43,-127,43c0,0,-125,0,-192,-119c0,0,-58,-102,-64,-278c0,0,100,127,255,127c0,0,152,0,245,-98c0,0,93,-98,93,-258c0,0,0,-161,-101,-259c0,0,-101,-96,-266,-96Z" 
id="f1_p"
transform="scale(0.001,-0.001)" />

<path d="M428,94c0,0,92,0,167,76c0,0,74,77,99,198c0,0,34,167,-1,250c0,0,-35,84,-140,84c0,0,-126,0,-206,-117c0,0,-81,-118,-81,-302c0,0,0,-90,43,-139c0,0,42,-50,119,-50ZM553,-315L637,91l-2,-1C635,90,526,-20,395,-20c0,0,-124,0,-195,78c0,0,-71,80,-72,219c0,0,1,235,121,390c0,0,121,156,302,156c0,0,143,0,207,-127l7,-16l25,120H918L688,-315Z" 
id="f3_2c"
transform="scale(0.001,-0.001)" />

<path d="M118,0L283,800H411L380,652c0,0,35,47,69,81c0,0,92,90,197,90c0,0,20,0,38,-5L653,679H604c0,0,-91,0,-164,-61c0,0,-72,-62,-92,-154L253,0Z" 
id="f3_2d"
transform="scale(0.001,-0.001)" />

<path d="M454,95c0,0,129,0,212,121c0,0,82,120,82,310c0,0,0,85,-44,131c0,0,-44,46,-124,46c0,0,-98,0,-174,-90c0,0,-76,-90,-108,-245c0,0,-27,-126,16,-199c0,0,42,-74,140,-74ZM22,-315L251,800H378L352,672l21,22c0,0,120,129,262,129c0,0,120,0,189,-77c0,0,69,-77,69,-211c0,0,0,-234,-133,-395C760,140,627,-20,433,-20c0,0,-129,0,-194,106L157,-315Z" 
id="f3_2b"
transform="scale(0.001,-0.001)" />

<path d="M99,-328c0,0,-46,0,-76,13l25,123c0,0,29,-14,81,-14c0,0,47,0,76,31c0,0,28,31,106,162L185,800H339L415,141L769,800H918L456,0C456,0,329,-216,269,-272c0,0,-61,-56,-170,-56Z" 
id="f3_2k"
transform="scale(0.001,-0.001)" />

<path d="M47,0L58,55l11,55L675,688H237l11,56l11,56H869L857,745L846,690L245,111H740L729,56L718,0Z" 
id="f3_2l"
transform="scale(0.001,-0.001)" />

<path d="M17,0L389,412L201,800H376L500,518L742,800H904L554,410L750,0H580L448,303L187,0Z" 
id="f3_2j"
transform="scale(0.001,-0.001)" />

<path d="M212,0c0,0,51,270,162,500c0,0,109,222,281,422H57v131H799V934C799,934,623,726,515,498C515,498,408,269,362,0Z" 
id="f1_q"
transform="scale(0.001,-0.001)" />

<path d="M424,92c0,0,98,0,161,58c0,0,62,58,62,149c0,0,0,92,-62,151c0,0,-63,58,-161,58c0,0,-98,0,-160,-58c0,0,-63,-59,-63,-151c0,0,0,-91,63,-149c0,0,62,-58,160,-58Zm0,533c0,0,82,0,134,46c0,0,52,45,52,118c0,0,0,72,-52,118c0,0,-52,46,-134,46c0,0,-82,0,-134,-46c0,0,-52,-46,-52,-118c0,0,0,-73,52,-119c0,0,52,-45,134,-45Zm0,-653c0,0,-165,0,-265,90C159,62,59,154,59,305c0,0,0,134,100,216c0,0,35,28,78,47c0,0,-27,15,-52,33c0,0,-90,70,-90,185c0,0,0,130,90,209c0,0,91,80,239,80c0,0,148,0,238,-80c0,0,91,-79,91,-209c0,0,0,-115,-91,-185c0,0,-24,-19,-52,-32c0,0,44,-20,79,-49c0,0,101,-81,101,-215c0,0,0,-151,-101,-243c0,0,-100,-90,-265,-90Z" 
id="f1_r"
transform="scale(0.001,-0.001)" />

<path d="M412,-328c0,0,-195,96,-303,284C109,-44,0,142,0,365c0,0,0,232,114,422c0,0,114,191,298,273v-31c0,0,-92,-51,-151,-139c0,0,-59,-88,-88,-223c0,0,-29,-136,-29,-282c0,0,0,-167,27,-301c0,0,26,-133,82,-221c0,0,55,-89,159,-159v-32Z" 
id="f2_c"
transform="scale(0.001,-0.001)" />

<path d="M34,-328v32c0,0,92,50,151,138c0,0,59,88,88,222c0,0,29,135,29,283c0,0,0,165,-27,300c0,0,-26,134,-82,222c0,0,-56,89,-159,160v31c0,0,194,-96,303,-284c0,0,108,-187,108,-410c0,0,0,-232,-114,-422c0,0,-114,-191,-297,-272Z" 
id="f2_d"
transform="scale(0.001,-0.001)" />

<path d="M419,483c0,0,93,0,152,66c0,0,59,66,59,169c0,0,0,103,-59,169c0,0,-59,65,-152,65c0,0,-94,0,-153,-65c0,0,-59,-66,-59,-169c0,0,0,-103,59,-169c0,0,59,-66,153,-66ZM397,-28c0,0,-143,0,-227,75c0,0,-85,77,-91,211H209c0,0,8,-83,57,-128c0,0,49,-45,131,-45c0,0,121,0,186,135c0,0,48,101,62,265C645,485,545,362,397,362c0,0,-150,0,-241,98c0,0,-91,98,-91,258c0,0,0,160,99,258c0,0,99,98,262,98c0,0,173,0,266,-123c0,0,94,-123,94,-349c0,0,0,-303,-101,-467C685,135,583,-28,397,-28Z" 
id="f1_s"
transform="scale(0.001,-0.001)" />

<path d="M528,-29c0,0,-215,0,-336,99C192,70,75,170,75,342v8H211c0,0,4,-119,87,-184c0,0,83,-65,231,-65c0,0,136,0,207,47c0,0,71,47,71,138c0,0,0,79,-47,118c0,0,-47,37,-187,71L382,520c0,0,-145,34,-207,96c0,0,-62,61,-62,169c0,0,0,158,107,250c0,0,107,92,289,92c0,0,185,0,295,-92c0,0,110,-93,117,-256H784c0,0,-9,104,-81,161c0,0,-72,56,-194,56c0,0,-125,0,-190,-48c0,0,-65,-49,-65,-142c0,0,0,-64,43,-95c0,0,43,-32,174,-62L662,603c0,0,154,-37,220,-108c0,0,65,-71,65,-201c0,0,0,-150,-113,-237c0,0,-113,-86,-306,-86Z" 
id="f1_1i"
transform="scale(0.001,-0.001)" />

<path d="M99,0V1097H233V690l23,30c0,0,87,102,219,102c0,0,132,0,203,-71c0,0,72,-72,72,-204V0H616V514c0,0,0,99,-38,142c0,0,-38,44,-124,44c0,0,-102,0,-162,-73c0,0,-59,-74,-59,-199V0Z" 
id="f1_23"
transform="scale(0.001,-0.001)" />

<path d="M424,94c0,0,107,0,169,83c0,0,63,83,63,223c0,0,0,140,-63,224c0,0,-62,83,-169,83c0,0,-106,0,-168,-83c0,0,-62,-84,-62,-224c0,0,0,-140,62,-223c0,0,62,-83,168,-83Zm0,-114c0,0,-165,0,-268,115C156,95,54,211,54,400c0,0,0,189,102,306c0,0,103,116,268,116c0,0,168,0,270,-116c0,0,102,-117,102,-306c0,0,0,-189,-102,-305C694,95,592,-20,424,-20Z" 
id="f1_2a"
transform="scale(0.001,-0.001)" />

<path d="M248,0L21,799H169L322,163L478,799H627L788,158L950,799h133L857,0H713L548,624L392,0Z" 
id="f1_2i"
transform="scale(0.001,-0.001)" />

<path d="M292,-9c0,0,-88,0,-124,38c0,0,-36,39,-36,134V689H22V799H132v224H266V799H392V689H266V163c0,0,0,-27,21,-43c0,0,21,-15,57,-15h48V1C392,1,324,-9,292,-9Z" 
id="f1_2f"
transform="scale(0.001,-0.001)" />

<path d="M335,90c0,0,106,0,179,57c0,0,50,41,67,91c0,0,3,10,4,31c0,0,3,21,3,47v87c0,0,-38,-18,-83,-25L381,360c0,0,-97,-13,-142,-45c0,0,-44,-31,-44,-86c0,0,0,-67,36,-103c0,0,37,-36,104,-36ZM309,-20c0,0,-117,0,-186,61c0,0,-68,63,-68,169c0,0,0,108,64,171c0,0,65,64,189,79l183,23c0,0,22,3,42,8c0,0,26,7,40,27c0,0,15,20,15,51v6c0,0,0,64,-49,101c0,0,-48,36,-135,36c0,0,-83,0,-130,-38c0,0,-46,-39,-56,-115H94c0,0,10,131,92,197c0,0,83,66,238,66c0,0,145,0,222,-63c0,0,76,-63,76,-184V137c0,0,0,-21,12,-33c0,0,12,-12,33,-12c0,0,6,0,18,1c0,0,11,2,25,5V1c0,0,-20,-7,-41,-11c0,0,-22,-5,-37,-5c0,0,-76,0,-110,41c0,0,-22,28,-32,79c0,0,-15,-19,-34,-36c0,0,-101,-89,-247,-89Z" 
id="f1_1w"
transform="scale(0.001,-0.001)" />

<path d="M133,0V162H292V0Zm0,628V790H292V628Z" 
id="f1_t"
transform="scale(0.001,-0.001)" />

<path d="M0,356v74H784V356Z" 
id="f2_h"
transform="scale(0.001,-0.001)" />

<path d="M424,92c0,0,114,0,170,107c0,0,57,108,56,323c0,0,1,216,-56,324c0,0,-56,107,-170,107c0,0,-112,0,-168,-107c0,0,-56,-108,-57,-324c0,0,1,-215,57,-323c0,0,56,-107,168,-107Zm0,-120c0,0,-176,0,-271,142c0,0,-96,143,-96,408c0,0,0,265,96,409c0,0,95,144,271,144c0,0,178,0,273,-144c0,0,96,-144,96,-409c0,0,0,-265,-96,-408c0,0,-95,-142,-273,-142Z" 
id="f1_j"
transform="scale(0.001,-0.001)" />

<path d="M365,-315c0,0,-136,187,-199,359c0,0,-62,172,-62,359c0,0,0,186,62,358c0,0,63,172,199,360h92c0,0,-110,-192,-160,-365c0,0,-51,-172,-51,-353c0,0,0,-183,51,-355c0,0,50,-172,160,-363Z" 
id="f1_b"
transform="scale(0.001,-0.001)" />

<path d="M104,0V799H238V0Zm-2,946v152H239V946Z" 
id="f1_24"
transform="scale(0.001,-0.001)" />

<path d="M52,-315c0,0,109,192,160,363c0,0,50,173,50,354c0,0,0,183,-50,355c0,0,-51,173,-160,364h92c0,0,135,-188,198,-360c0,0,63,-172,63,-359c0,0,0,-187,-63,-359c0,0,-63,-171,-198,-358Z" 
id="f1_c"
transform="scale(0.001,-0.001)" />

<path d="M139,0V1097H287V0Z" 
id="f1_18"
transform="scale(0.001,-0.001)" />

<path d="M132,0V687H22V799H132V935c0,0,0,88,52,133c0,0,52,45,157,45l59,-3V989l-53,2c0,0,-39,0,-60,-24c0,0,-21,-25,-21,-71V799H400V687H266V0Z" 
id="f1_21"
transform="scale(0.001,-0.001)" />

<path d="M649,461c0,0,-6,111,-55,172c0,0,-55,69,-160,69c0,0,-106,0,-170,-79c0,0,-50,-62,-60,-162ZM425,-20c0,0,-169,0,-266,106c0,0,-97,107,-97,297c0,0,0,201,102,320c0,0,103,119,276,119c0,0,157,0,253,-116c0,0,96,-117,96,-306l-1,-48H204c0,0,8,-119,54,-182c0,0,57,-76,180,-76c0,0,77,0,134,43c0,0,58,43,70,110H775C775,247,746,116,656,47c0,0,-90,-67,-231,-67Z" 
id="f1_20"
transform="scale(0.001,-0.001)" />

<path d="M436,95c0,0,105,0,160,79c0,0,54,80,54,232c0,0,0,150,-52,222c0,0,-52,72,-161,72c0,0,-112,0,-163,-81c0,0,-51,-82,-51,-258c0,0,0,-127,55,-197c0,0,55,-69,158,-69ZM89,-315V799H216V685l7,10c0,0,86,127,228,127c0,0,156,0,248,-108c0,0,91,-107,91,-291c0,0,0,-208,-92,-326C698,97,606,-20,442,-20c0,0,-135,0,-215,102l-4,6V-315Z" 
id="f1_2b"
transform="scale(0.001,-0.001)" />

<path d="M99,0V799H226V681l30,39c0,0,87,102,219,102c0,0,132,0,203,-71c0,0,72,-72,72,-204V0H616V502c0,0,0,105,-41,151c0,0,-40,47,-132,47c0,0,-97,0,-154,-73c0,0,-56,-74,-56,-199V0Z" 
id="f1_29"
transform="scale(0.001,-0.001)" />

<path d="M393,-20c0,0,-169,0,-252,65c0,0,-83,67,-92,210H178c0,0,10,-85,61,-123c0,0,50,-38,154,-38c0,0,90,0,136,34c0,0,47,35,47,100c0,0,0,42,-31,64c0,0,-30,21,-123,43L283,368c0,0,-112,27,-160,75c0,0,-48,48,-48,135c0,0,0,112,80,178c0,0,81,66,218,66c0,0,140,0,222,-68c0,0,82,-67,88,-187H557c0,0,-6,67,-55,103c0,0,-48,37,-129,37c0,0,-84,0,-127,-29c0,0,-44,-29,-44,-85c0,0,0,-43,31,-65c0,0,30,-21,121,-43L493,452c0,0,117,-28,167,-78c0,0,49,-49,49,-138c0,0,0,-119,-86,-188c0,0,-85,-68,-230,-68Z" 
id="f1_2e"
transform="scale(0.001,-0.001)" />

<path d="M86,-226l16,71c0,0,47,8,74,52c0,0,21,34,38,103H135l18,82l17,81H329L295,11c0,0,-23,-106,-70,-158c0,0,-45,-52,-139,-79Z" 
id="f3_f"
transform="scale(0.001,-0.001)" />

<path d="M187,905l135,216H487L290,905Z" 
id="f1_3e"
transform="scale(0.001,-0.001)" />

<path d="M133,-224v71c0,0,47,8,65,52c0,0,14,33,17,101H133V163H292V27c0,0,0,-114,-36,-172c0,0,-37,-58,-123,-79Z" 
id="f1_f"
transform="scale(0.001,-0.001)" />

<path d="M411,93c0,0,98,0,158,73c0,0,60,74,60,195c0,0,0,163,-57,252c0,0,-56,88,-161,88c0,0,-113,0,-165,-72c0,0,-52,-72,-52,-229c0,0,0,-147,56,-227c0,0,56,-80,161,-80ZM404,-20c0,0,-161,0,-255,118c0,0,-95,120,-95,324c0,0,0,179,92,290c0,0,91,110,239,110c0,0,147,0,233,-124l11,-15v414H763V0H638V109L621,84C621,84,538,-20,404,-20Z" 
id="f1_1z"
transform="scale(0.001,-0.001)" />

<path d="M0,368V478H849V368Z" 
id="f1_99"
transform="scale(0.001,-0.001)" />

<path d="M379,906l185,216H726L482,906Z" 
id="f3_3e"
transform="scale(0.001,-0.001)" />

<path d="M118,0V799H246V662c0,0,17,32,36,58c0,0,76,102,187,102c0,0,19,0,38,-6V679l-27,1c0,0,-109,0,-168,-66c0,0,-60,-65,-60,-186V0Z" 
id="f1_2d"
transform="scale(0.001,-0.001)" />

<path d="M394,-20c0,0,-159,0,-253,113c0,0,-95,114,-95,307c0,0,0,193,98,308c0,0,98,114,264,114c0,0,144,0,230,-78c0,0,85,-79,91,-217H600c0,0,-8,86,-59,133c0,0,-52,47,-138,47c0,0,-101,0,-159,-82c0,0,-58,-82,-58,-225c0,0,0,-152,54,-229c0,0,53,-77,159,-77c0,0,79,0,132,50c0,0,52,51,69,143H729C729,287,709,137,623,58c0,0,-86,-78,-229,-78Z" 
id="f1_1y"
transform="scale(0.001,-0.001)" />

<path d="M103,0V1097H237V0Z" 
id="f1_27"
transform="scale(0.001,-0.001)" />

<path d="M60,174V286H832V174Zm0,309V595H832V483Z" 
id="f1_w"
transform="scale(0.001,-0.001)" />

<path d="M424,-28c0,0,-180,0,-272,86c0,0,-92,87,-100,266H192c0,0,12,-126,66,-180c0,0,55,-54,170,-54c0,0,100,0,163,57c0,0,64,57,64,147c0,0,0,94,-61,149c0,0,-52,48,-135,54c0,0,-38,2,-72,2c0,0,-34,0,-45,-3V613c0,0,17,-3,51,-3c0,0,35,0,68,4c0,0,66,8,106,43c0,0,55,45,55,125c0,0,0,77,-58,125c0,0,-58,48,-148,48c0,0,-96,0,-147,-58c0,0,-51,-59,-56,-175H82c0,0,0,168,89,260c0,0,88,93,250,93c0,0,153,0,247,-77c0,0,94,-76,94,-202c0,0,0,-124,-95,-201c0,0,-18,-15,-39,-27c0,0,39,-17,69,-41c0,0,101,-79,101,-214c0,0,0,-151,-105,-246c0,0,-104,-95,-269,-95Z" 
id="f1_m"
transform="scale(0.001,-0.001)" />

<path d="M310,0L12,799H168L383,145L604,799H752L454,0Z" 
id="f1_2h"
transform="scale(0.001,-0.001)" />

<path d="M152,-323c-8,0,-38,1,-63,8v125c0,0,30,-11,77,-12c0,0,45,0,76,37c0,0,30,38,69,140l2,12v1L17,799H170L383,139L600,799H747L443,-25c0,0,-70,-184,-125,-241c0,0,-55,-57,-164,-57c0,0,-1,0,-2,0Z" 
id="f1_2k"
transform="scale(0.001,-0.001)" />

<path d="M406,0V763H155V870h2c16,0,114,2,178,48c0,0,70,51,104,157H549V0Z" 
id="f1_k"
transform="scale(0.001,-0.001)" />

<path d="M780,449L714,934L435,449ZM22,0L673,1097H839L998,0H839L797,318H359L178,0Z" 
id="f3_10"
transform="scale(0.001,-0.001)" />

<path d="M617,129c0,0,118,0,194,71c0,0,75,70,75,182c0,0,1,59,-55,93c0,0,-56,34,-152,34H368L289,129Zm58,503c0,0,120,0,188,59c0,0,68,58,68,163c0,0,0,57,-50,85c0,0,-50,29,-146,29H462L393,632ZM113,0L340,1097H825c0,0,122,0,191,-55c0,0,69,-55,69,-153c0,0,0,-160,-113,-251c0,0,-35,-26,-77,-46c0,0,27,-12,52,-28c0,0,89,-61,89,-166c0,0,0,-171,-127,-285C909,113,782,0,591,0Z" 
id="f3_11"
transform="scale(0.001,-0.001)" />

<path d="M0,-123V1415H525v-72H72V-123Z" 
id="f2_4r"
transform="scale(0.001,-0.001)" />

<path d="M478,-123V1343H26v72H550V-123Z" 
id="f2_57"
transform="scale(0.001,-0.001)" />

<path d="M0,-123V1415H72V-123Z" 
id="f2_4s"
transform="scale(0.001,-0.001)" />

<path d="M0,-123V1415H72V-123Z" 
id="f2_58"
transform="scale(0.001,-0.001)" />

<path d="M0,-123V1415H72V-51H525v-72Z" 
id="f2_4t"
transform="scale(0.001,-0.001)" />

<path d="M26,-123v72H478V1415h72V-123Z" 
id="f2_59"
transform="scale(0.001,-0.001)" />

<path d="M583,-29c0,0,-228,0,-369,158C214,129,73,289,73,548c0,0,0,260,144,420c0,0,144,159,377,159c0,0,180,0,309,-100c0,0,130,-101,152,-258H912c0,0,-21,109,-106,168c0,0,-85,59,-221,59c0,0,-160,0,-260,-124c0,0,-99,-124,-99,-326c0,0,0,-215,96,-332c0,0,96,-117,270,-117c0,0,170,0,274,124c0,0,17,19,30,41c0,0,18,29,30,81c0,0,13,52,13,99v14H595V581h480V0H982L947,138l-9,-10C938,128,803,-29,583,-29Z" 
id="f1_16"
transform="scale(0.001,-0.001)" />

<path d="M131,0V1097H891V966H280V631H814V500H280V0Z" 
id="f1_15"
transform="scale(0.001,-0.001)" />

<path d="M375,-20c0,0,-136,0,-203,66c0,0,-68,68,-68,204V799H238V284c0,0,0,-101,38,-146c0,0,39,-44,127,-44c0,0,97,0,153,75c0,0,57,75,57,203V799H747V0H620V122c0,0,-14,-22,-30,-41C590,81,504,-20,375,-20Z" 
id="f1_2g"
transform="scale(0.001,-0.001)" />

<path d="M418,95c0,0,98,0,158,73c0,0,59,73,59,193c0,0,0,170,-54,254c0,0,-54,85,-163,85c0,0,-113,0,-165,-72c0,0,-52,-71,-52,-227c0,0,0,-147,57,-227c0,0,56,-79,160,-79ZM394,-336c0,0,-136,0,-216,62c0,0,-79,63,-96,182H219c0,0,12,-64,57,-98c0,0,45,-35,116,-35c0,0,116,0,176,73c0,0,61,73,61,211V85l-1,-1C628,84,545,-20,412,-20c0,0,-161,0,-256,118c0,0,-94,120,-94,324c0,0,0,179,93,290c0,0,93,110,244,110c0,0,144,0,228,-124l10,-14V799H763V59c0,0,-1,-201,-91,-298c0,0,-91,-97,-278,-97Z" 
id="f1_22"
transform="scale(0.001,-0.001)" />

<path d="M406,93c0,0,97,0,156,73c0,0,59,74,59,195c0,0,0,163,-56,252c0,0,-55,88,-158,88c0,0,-111,0,-162,-72c0,0,-51,-73,-51,-229c0,0,0,-147,55,-227c0,0,55,-80,157,-80ZM621,-315V93l-7,-9C614,84,532,-20,400,-20c0,0,-159,0,-253,118c0,0,-93,119,-93,323c0,0,0,180,90,291c0,0,91,110,237,110c0,0,146,0,231,-124c0,0,10,-14,17,-29V799H755V-315Z" 
id="f1_2c"
transform="scale(0.001,-0.001)" />

<path d="M435,92c0,0,86,0,147,69c0,0,60,68,60,186c0,0,0,114,-60,179c0,0,-60,66,-152,66c0,0,-91,0,-154,-66c0,0,-64,-65,-64,-171c0,0,0,-70,30,-133c0,0,29,-64,82,-97c0,0,52,-33,111,-33Zm3,-110c0,0,-168,0,-274,123C164,105,58,228,58,512c0,0,0,317,117,461c0,0,102,125,275,125c0,0,129,0,212,-72c0,0,82,-72,99,-200L627,815c0,0,-18,79,-51,115c0,0,-54,58,-134,58c0,0,-64,0,-113,-36c0,0,-63,-46,-99,-135c0,0,-37,-89,-38,-253c0,0,48,74,118,110c0,0,70,36,147,36c0,0,135,0,229,-99c0,0,94,-99,94,-256c0,0,0,-103,-44,-191C736,164,691,75,614,28c0,0,-78,-46,-176,-46Z" 
id="f4_q"
transform="scale(0.001,-0.001)" />

<path d="M125,0V1051H268V115H799V0Z" 
id="f0_1c"
transform="scale(0.001,-0.001)" />

<path d="M106,0V620c0,0,0,85,-5,188H228c0,0,6,-138,6,-165h3c0,0,32,103,74,141c0,0,42,38,118,38c0,0,27,0,54,-7V692c0,0,-26,7,-71,7c0,0,-84,0,-128,-72c0,0,-44,-72,-44,-206V0Z" 
id="f0_2e"
transform="scale(0.001,-0.001)" />

<path d="M606,-14c0,0,-164,0,-284,65c0,0,-119,66,-182,189c0,0,-63,123,-63,291c0,0,0,255,137,396c0,0,137,140,386,140c0,0,174,0,283,-59c0,0,109,-59,168,-189L915,779c0,0,-44,90,-123,131c0,0,-79,41,-196,41c0,0,-182,0,-278,-110c0,0,-96,-110,-96,-310c0,0,0,-200,102,-315c0,0,102,-115,282,-115c0,0,103,0,193,31c0,0,89,31,144,85V407H629V526h445V164c0,0,-83,-85,-205,-132c0,0,-121,-46,-263,-46Z" 
id="f0_17"
transform="scale(0.001,-0.001)" />

<path d="M355,-14c0,0,-133,0,-194,65c0,0,-62,66,-62,219V808H234V296c0,0,0,-80,16,-124c0,0,16,-44,50,-64c0,0,34,-19,101,-19c0,0,97,0,153,66c0,0,55,67,55,185V808H744V172c0,0,0,-141,4,-172H621c0,0,0,4,-1,20c0,0,-1,17,-2,38c0,0,-1,21,-3,80h-2C613,138,567,55,506,20c0,0,-61,-34,-151,-34Z" 
id="f0_2h"
transform="scale(0.001,-0.001)" />

<path d="M395,89c0,0,115,0,166,79c0,0,51,79,51,246c0,0,0,160,-51,235c0,0,-51,75,-164,75c0,0,-102,0,-147,-75c0,0,-45,-75,-45,-244c0,0,0,-170,45,-243c0,0,45,-73,145,-73ZM361,-14c0,0,-153,0,-225,102c0,0,-72,103,-72,312c0,0,0,422,297,422c0,0,92,0,153,-33c0,0,61,-34,98,-107h2l-2,90v335H747V166c0,0,0,-126,4,-166H623c0,0,-2,12,-5,55c0,0,-3,44,-3,75h-3c0,0,-37,-78,-98,-111c0,0,-62,-33,-153,-33Z" 
id="f0_20"
transform="scale(0.001,-0.001)" />

<path d="M140,0V163H285V0Z" 
id="f0_i"
transform="scale(0.001,-0.001)" />


</defs>
</svg>