<?xml version="1.0" encoding="UTF-8" standalone="no"?>
<!DOCTYPE svg PUBLIC "-//W3C//DTD SVG 1.1//EN"
"http://www.w3.org/Graphics/SVG/1.1/DTD/svg11.dtd">
<svg viewBox="0 0 725 1102" version="1.1" xmlns="http://www.w3.org/2000/svg" xmlns:xlink="http://www.w3.org/1999/xlink">
<defs>
<style type="text/css"><![CDATA[
.g0_6{
fill: none;
stroke: #000000;
stroke-width: 0.7607111;
stroke-linecap: round;
stroke-linejoin: miter;
}
.g1_6{
fill: none;
stroke: #000000;
stroke-width: 0.7656;
stroke-linecap: round;
stroke-linejoin: miter;
}
.g2_6{
fill: none;
stroke: #000000;
stroke-width: 0.7560667;
stroke-linecap: round;
stroke-linejoin: miter;
}
]]></style>
</defs>
<g fill="#D4D4D4" fill-opacity="0.56" >
<use xlink:href="#f0_1f" transform="matrix(50.9,-50.9,50.9,50.9,113.7,924.1)" />
<use xlink:href="#f0_2a" transform="matrix(50.9,-50.9,50.9,50.9,174.2,863.6)" />
<use xlink:href="#f0_28" transform="matrix(50.9,-50.9,50.9,50.9,217.4,820.3)" />
<use xlink:href="#f0_25" transform="matrix(50.9,-50.9,50.9,50.9,234.7,803.1)" />
<use xlink:href="#f0_2a" transform="matrix(50.9,-50.9,50.9,50.9,252,785.8)" />
<use xlink:href="#f0_21" transform="matrix(50.9,-50.9,50.9,50.9,295.2,742.5)" />
<use xlink:href="#f0_2k" transform="matrix(50.9,-50.9,50.9,50.9,338.4,699.3)" />
<use xlink:href="#f0_1x" transform="matrix(50.9,-50.9,50.9,50.9,377.3,660.4)" />
<use xlink:href="#f0_29" transform="matrix(50.9,-50.9,50.9,50.9,420.6,617.2)" />
<use xlink:href="#f0_2c" transform="matrix(50.9,-50.9,50.9,50.9,485.4,552.4)" />
<use xlink:href="#f0_2b" transform="matrix(50.9,-50.9,50.9,50.9,528.6,509.1)" />
<use xlink:href="#f0_25" transform="matrix(50.9,-50.9,50.9,50.9,571.9,465.9)" />
<use xlink:href="#f0_2a" transform="matrix(50.9,-50.9,50.9,50.9,589.1,448.6)" />
<use xlink:href="#f0_2g" transform="matrix(50.9,-50.9,50.9,50.9,632.4,405.4)" />
</g>
<g fill="#000000" >
<use xlink:href="#f1_p" transform="matrix(10.4,0,0,10.4,81.4,127)" />
<use xlink:href="#f1_h" transform="matrix(10.4,0,0,10.4,90.2,127)" />
<use xlink:href="#f2_c" transform="matrix(10.4,0,0,11.4,135.8,126.7)" />
<use xlink:href="#f2_d" transform="matrix(10.4,0,0,11.4,152,126.7)" />
</g>
<path d="M174.9,122.6H216" class="g0_6" />
<g fill="#000000" >
<use xlink:href="#f1_k" transform="matrix(7,0,0,7,128.2,119.6)" />
<use xlink:href="#f1_o" transform="matrix(10.4,0,0,10.4,175.6,116.4)" />
<use xlink:href="#f1_k" transform="matrix(10.4,0,0,10.4,209,116.4)" />
<use xlink:href="#f1_l" transform="matrix(10.4,0,0,10.4,191,139.1)" />
<use xlink:href="#f3_2j" transform="matrix(10.4,0,0,10.4,184.8,116.4)" />
<use xlink:href="#f3_21" transform="matrix(10.4,0,0,10.4,114.7,126.8)" />
<use xlink:href="#f3_2j" transform="matrix(10.4,0,0,10.4,141.7,128.8)" />
<use xlink:href="#f2_h" transform="matrix(7,0,0,7,122.5,119.6)" />
<use xlink:href="#f2_f" transform="matrix(10.4,0,0,10.4,197.8,116.4)" />
<use xlink:href="#f2_x" transform="matrix(10.4,0,0,10.4,161.2,126.8)" />
<use xlink:href="#f1_q" transform="matrix(10.4,0,0,10.4,81.4,181.3)" />
<use xlink:href="#f1_h" transform="matrix(10.4,0,0,10.4,90.2,181.3)" />
<use xlink:href="#f2_c" transform="matrix(10.3,0,0,11.6,115.4,179.2)" />
<use xlink:href="#f2_d" transform="matrix(10.3,0,0,11.6,141.4,179.2)" />
<use xlink:href="#f2_c" transform="matrix(10.4,0,0,11.4,147.9,179)" />
<use xlink:href="#f2_d" transform="matrix(10.4,0,0,11.4,164.1,179)" />
</g>
<path d="M187.1,176.8h41.4m48.6,0h10.3" class="g1_6" />
<g fill="#000000" >
<use xlink:href="#f1_k" transform="matrix(10.4,0,0,10.4,278.6,170.7)" />
<use xlink:href="#f1_f" transform="matrix(10.4,0,0,10.4,229.8,181.1)" />
<use xlink:href="#f1_l" transform="matrix(10.4,0,0,10.4,187.9,193.4)" />
<use xlink:href="#f1_k" transform="matrix(10.4,0,0,10.4,221.5,193.4)" />
<use xlink:href="#f1_l" transform="matrix(10.4,0,0,10.4,277.8,193.4)" />
<use xlink:href="#f3_2j" transform="matrix(10.4,0,0,10.4,203,170.7)" />
<use xlink:href="#f3_21" transform="matrix(10.4,0,0,10.4,120.1,181.1)" />
<use xlink:href="#f3_2a" transform="matrix(10.4,0,0,10.4,124.6,181.1)" />
<use xlink:href="#f3_21" transform="matrix(10.4,0,0,10.4,133.6,181.1)" />
<use xlink:href="#f3_2j" transform="matrix(10.4,0,0,10.4,153.8,181.1)" />
<use xlink:href="#f3_2j" transform="matrix(10.4,0,0,10.4,238,181.1)" />
<use xlink:href="#f3_2j" transform="matrix(10.4,0,0,10.4,197.1,193.4)" />
<use xlink:href="#f2_x" transform="matrix(10.5,0,0,10.4,173.5,181.1)" />
<use xlink:href="#f2_3f" transform="matrix(10.5,0,0,10.4,252.3,181.1)" />
<use xlink:href="#f2_h" transform="matrix(10.5,0,0,10.4,265.7,181.1)" />
<use xlink:href="#f2_f" transform="matrix(10.5,0,0,10.4,210.2,193.4)" />
<use xlink:href="#f1_r" transform="matrix(10.4,0,0,10.4,81.4,222)" />
<use xlink:href="#f1_h" transform="matrix(10.4,0,0,10.4,90.2,222)" />
<use xlink:href="#f1_b" transform="matrix(10.4,0,0,10.4,135.6,222)" />
<use xlink:href="#f1_24" transform="matrix(10.4,0,0,10.4,140.9,222)" />
<use xlink:href="#f1_c" transform="matrix(10.4,0,0,10.4,144.5,222)" />
<use xlink:href="#f1_m" transform="matrix(10.4,0,0,10.4,168.1,222)" />
<use xlink:href="#f4_d" transform="matrix(10.4,0,0,10.4,183.7,222)" />
<use xlink:href="#f1_l" transform="matrix(10.4,0,0,10.4,196.9,222)" />
<use xlink:href="#f1_w" transform="matrix(10.4,0,0,10.4,212.5,222)" />
<use xlink:href="#f1_k" transform="matrix(10.4,0,0,10.4,228.8,222)" />
<use xlink:href="#f1_k" transform="matrix(10.4,0,0,10.4,237.7,222)" />
<use xlink:href="#f1_b" transform="matrix(10.4,0,0,10.4,132,276.4)" />
<use xlink:href="#f1_24" transform="matrix(10.4,0,0,10.4,137.3,276.4)" />
<use xlink:href="#f1_24" transform="matrix(10.4,0,0,10.4,140.8,276.4)" />
<use xlink:href="#f1_c" transform="matrix(10.4,0,0,10.4,144.4,276.4)" />
</g>
<path d="M171.1,269.7h35.7" class="g2_6" />
<g fill="#000000" >
<use xlink:href="#f1_k" transform="matrix(10.4,0,0,10.4,170.6,263.6)" />
<use xlink:href="#f1_m" transform="matrix(10.4,0,0,10.4,179.5,263.6)" />
<use xlink:href="#f1_p" transform="matrix(10.4,0,0,10.4,188.3,263.6)" />
<use xlink:href="#f1_s" transform="matrix(10.4,0,0,10.4,197.1,263.6)" />
<use xlink:href="#f1_l" transform="matrix(10.4,0,0,10.4,180.2,286.1)" />
<use xlink:href="#f1_q" transform="matrix(10.4,0,0,10.4,189,286.1)" />
<use xlink:href="#f1_s" transform="matrix(10.4,0,0,10.4,81.4,323)" />
<use xlink:href="#f1_h" transform="matrix(10.4,0,0,10.4,90.2,323)" />
<use xlink:href="#f1_p" transform="matrix(10.4,0,0,10.4,113.1,323)" />
<use xlink:href="#f1_k" transform="matrix(10.4,0,0,10.4,72.4,356.9)" />
<use xlink:href="#f1_j" transform="matrix(10.4,0,0,10.4,81.2,356.9)" />
<use xlink:href="#f1_h" transform="matrix(10.4,0,0,10.4,90.4,356.9)" />
<use xlink:href="#f1_m" transform="matrix(10.4,0,0,10.4,113.1,356.9)" />
<use xlink:href="#f1_k" transform="matrix(10.4,0,0,10.4,72.4,399.4)" />
<use xlink:href="#f1_k" transform="matrix(10.4,0,0,10.4,81.2,399.4)" />
<use xlink:href="#f1_h" transform="matrix(10.4,0,0,10.4,90.4,399.4)" />
<use xlink:href="#f1_1o" transform="matrix(10.4,0,0,10.4,113.1,399.4)" />
<use xlink:href="#f1_20" transform="matrix(10.4,0,0,10.4,123.7,399.4)" />
<use xlink:href="#f1_2e" transform="matrix(10.4,0,0,10.4,132.6,399.4)" />
<use xlink:href="#f1_f" transform="matrix(10.4,0,0,10.4,140.6,399.4)" />
<use xlink:href="#f3_21" transform="matrix(10.4,0,0,10.4,151.9,399.4)" />
<use xlink:href="#f1_24" transform="matrix(10.4,0,0,10.4,163.5,399.4)" />
<use xlink:href="#f1_2e" transform="matrix(10.4,0,0,10.4,167,399.4)" />
<use xlink:href="#f1_2a" transform="matrix(10.4,0,0,10.4,182.2,399.4)" />
<use xlink:href="#f1_29" transform="matrix(10.4,0,0,10.4,191,399.4)" />
<use xlink:href="#f1_20" transform="matrix(10.4,0,0,10.4,199.9,399.4)" />
<use xlink:href="#f1_g" transform="matrix(10.4,0,0,10.4,208.8,399.4)" />
<use xlink:href="#f1_2a" transform="matrix(10.4,0,0,10.4,214.1,399.4)" />
<use xlink:href="#f1_29" transform="matrix(10.4,0,0,10.4,222.9,399.4)" />
<use xlink:href="#f1_20" transform="matrix(10.4,0,0,10.4,231.8,399.4)" />
<use xlink:href="#f1_l" transform="matrix(7,0,0,7,382,393.7)" />
<use xlink:href="#f1_l" transform="matrix(7,0,0,7,417.6,393.7)" />
<use xlink:href="#f1_k" transform="matrix(7,0,0,7,287.9,405.3)" />
<use xlink:href="#f1_l" transform="matrix(7,0,0,7,310.7,405.3)" />
<use xlink:href="#f1_k" transform="matrix(7,0,0,7,380.5,405.3)" />
<use xlink:href="#f1_l" transform="matrix(7,0,0,7,416.8,405.3)" />
<use xlink:href="#f1_f" transform="matrix(10.5,0,0,10.5,293.2,401)" />
<use xlink:href="#f3_2j" transform="matrix(10.5,0,0,10.5,279.2,401)" />
<use xlink:href="#f3_2j" transform="matrix(10.5,0,0,10.5,301.4,401)" />
<use xlink:href="#f3_1d" transform="matrix(10.5,0,0,10.5,334.5,401)" />
<use xlink:href="#f3_2j" transform="matrix(10.5,0,0,10.5,371.8,401)" />
<use xlink:href="#f3_2j" transform="matrix(10.5,0,0,10.5,407.5,401)" />
<use xlink:href="#f2_6" transform="matrix(10.5,0,0,10.5,263.3,401)" />
<use xlink:href="#f2_40" transform="matrix(10.5,0,0,10.5,322.3,401)" />
<use xlink:href="#f2_4g" transform="matrix(10.5,0,0,10.5,351.7,401)" />
<use xlink:href="#f2_x" transform="matrix(10.5,0,0,10.5,394.1,401)" />
<use xlink:href="#f5_14" transform="matrix(10.5,0,0,10.5,247.4,401)" />
<use xlink:href="#f1_h" transform="matrix(10.4,0,0,10.4,427.3,399.4)" />
<use xlink:href="#f1_k" transform="matrix(10.4,0,0,10.4,72.4,439.4)" />
<use xlink:href="#f1_l" transform="matrix(10.4,0,0,10.4,81.2,439.4)" />
<use xlink:href="#f1_h" transform="matrix(10.4,0,0,10.4,90.4,439.4)" />
<use xlink:href="#f3_10" transform="matrix(10.4,0,0,10.4,113.1,439.4)" />
<use xlink:href="#f3_w" transform="matrix(10.4,0,0,10.4,130.5,439.4)" />
<use xlink:href="#f1_1q" transform="matrix(10.4,0,0,10.4,146.6,439.4)" />
<use xlink:href="#f1_k" transform="matrix(10.4,0,0,10.4,151.1,439.4)" />
<use xlink:href="#f1_f" transform="matrix(10.4,0,0,10.4,159.9,439.4)" />
<use xlink:href="#f2_2v" transform="matrix(10.4,0,0,10.4,171.2,439.4)" />
<use xlink:href="#f1_c" transform="matrix(10.4,0,0,10.4,182.6,439.4)" />
<use xlink:href="#f1_1x" transform="matrix(10.4,0,0,10.4,194.7,439.4)" />
<use xlink:href="#f1_20" transform="matrix(10.4,0,0,10.4,203.5,439.4)" />
<use xlink:href="#f1_1y" transform="matrix(10.4,0,0,10.4,212.4,439.4)" />
<use xlink:href="#f1_1w" transform="matrix(10.4,0,0,10.4,220.4,439.4)" />
<use xlink:href="#f1_2g" transform="matrix(10.4,0,0,10.4,229.2,439.4)" />
<use xlink:href="#f1_2e" transform="matrix(10.4,0,0,10.4,238.1,439.4)" />
<use xlink:href="#f1_20" transform="matrix(10.4,0,0,10.4,246.1,439.4)" />
<use xlink:href="#f3_1h" transform="matrix(10.4,0,0,10.4,261.6,439.4)" />
<use xlink:href="#f3_21" transform="matrix(7.4,0,0,7.4,273.1,444.7)" />
<use xlink:href="#f1_w" transform="matrix(10.4,0,0,10.4,283.2,439.4)" />
<use xlink:href="#f1_1q" transform="matrix(10.4,0,0,10.4,299.3,439.4)" />
<use xlink:href="#f1_k" transform="matrix(10.4,0,0,10.4,303.7,439.4)" />
<use xlink:href="#f1_f" transform="matrix(10.4,0,0,10.4,312.6,439.4)" />
<use xlink:href="#f2_2v" transform="matrix(10.4,0,0,10.4,323.9,439.4)" />
<use xlink:href="#f1_c" transform="matrix(10.4,0,0,10.4,335.3,439.4)" />
<use xlink:href="#f1_k" transform="matrix(10.4,0,0,10.4,72.4,473.3)" />
<use xlink:href="#f1_m" transform="matrix(10.4,0,0,10.4,81.2,473.3)" />
<use xlink:href="#f1_h" transform="matrix(10.4,0,0,10.4,90.4,473.3)" />
<use xlink:href="#f3_29" transform="matrix(10.4,0,0,10.4,113.1,473.3)" />
<use xlink:href="#f1_b" transform="matrix(10.4,0,0,10.4,121.9,473.3)" />
<use xlink:href="#f3_11" transform="matrix(10.4,0,0,10.4,127.2,473.3)" />
<use xlink:href="#f1_c" transform="matrix(10.4,0,0,10.4,137.8,473.3)" />
<use xlink:href="#f1_w" transform="matrix(10.4,0,0,10.4,150.1,473.3)" />
<use xlink:href="#f1_k" transform="matrix(10.4,0,0,10.4,166.4,473.3)" />
<use xlink:href="#f1_j" transform="matrix(10.4,0,0,10.4,175.3,473.3)" />
<use xlink:href="#f1_k" transform="matrix(10.4,0,0,10.4,72.4,507.2)" />
<use xlink:href="#f1_n" transform="matrix(10.4,0,0,10.4,81.2,507.2)" />
<use xlink:href="#f1_h" transform="matrix(10.4,0,0,10.4,90.4,507.2)" />
<use xlink:href="#f1_k" transform="matrix(10.4,0,0,10.4,113.1,507.2)" />
<use xlink:href="#f1_l" transform="matrix(10.4,0,0,10.4,121.9,507.2)" />
<use xlink:href="#f1_j" transform="matrix(10.4,0,0,10.4,131.1,507.2)" />
<use xlink:href="#f1_h" transform="matrix(10.4,0,0,10.4,140,507.2)" />
<use xlink:href="#f1_k" transform="matrix(10.4,0,0,10.4,72.4,549.8)" />
<use xlink:href="#f1_o" transform="matrix(10.4,0,0,10.4,81.2,549.8)" />
<use xlink:href="#f1_h" transform="matrix(10.4,0,0,10.4,90.4,549.8)" />
<use xlink:href="#f1_1d" transform="matrix(10.4,0,0,10.4,113.1,549.8)" />
<use xlink:href="#f1_2a" transform="matrix(10.4,0,0,10.4,124.6,549.8)" />
<use xlink:href="#f1_f" transform="matrix(10.4,0,0,10.4,133.5,549.8)" />
<use xlink:href="#f3_1h" transform="matrix(10.4,0,0,10.4,144.8,549.8)" />
<use xlink:href="#f1_24" transform="matrix(10.4,0,0,10.4,163.3,549.8)" />
<use xlink:href="#f1_2e" transform="matrix(10.4,0,0,10.4,166.9,549.8)" />
<use xlink:href="#f1_29" transform="matrix(10.4,0,0,10.4,181.8,549.8)" />
<use xlink:href="#f1_2a" transform="matrix(10.4,0,0,10.4,190.7,549.8)" />
<use xlink:href="#f1_2f" transform="matrix(10.4,0,0,10.4,199.5,549.8)" />
<use xlink:href="#f1_2d" transform="matrix(10.4,0,0,10.4,210.9,549.8)" />
<use xlink:href="#f1_20" transform="matrix(10.4,0,0,10.4,216.3,549.8)" />
<use xlink:href="#f1_21" transform="matrix(10.4,0,0,10.4,225.1,549.8)" />
<use xlink:href="#f1_27" transform="matrix(10.4,0,0,10.4,229.6,549.8)" />
<use xlink:href="#f1_20" transform="matrix(10.4,0,0,10.4,233.1,549.8)" />
<use xlink:href="#f1_2j" transform="matrix(10.4,0,0,10.4,242,549.8)" />
<use xlink:href="#f1_24" transform="matrix(10.4,0,0,10.4,249.9,549.8)" />
<use xlink:href="#f1_2h" transform="matrix(10.4,0,0,10.4,253.5,549.8)" />
<use xlink:href="#f1_20" transform="matrix(10.4,0,0,10.4,261.5,549.8)" />
<use xlink:href="#f2_c" transform="matrix(10.5,0,0,14.1,292.7,550.4)" />
<use xlink:href="#f2_d" transform="matrix(10.5,0,0,14.1,323.6,550.3)" />
<use xlink:href="#f2_41" transform="matrix(10.5,0,0,10.5,332.4,549.8)" />
<use xlink:href="#f2_6" transform="matrix(10.5,0,0,10.5,361.4,549.8)" />
<use xlink:href="#f2_40" transform="matrix(10.5,0,0,10.5,389.8,549.8)" />
<use xlink:href="#f5_14" transform="matrix(10.5,0,0,10.5,277.1,549.8)" />
<use xlink:href="#f1_f" transform="matrix(10.5,0,0,10.5,306.7,549.8)" />
<use xlink:href="#f3_1w" transform="matrix(10.5,0,0,10.5,297.9,549.8)" />
<use xlink:href="#f3_1w" transform="matrix(10.5,0,0,10.5,313.8,549.8)" />
<use xlink:href="#f3_1h" transform="matrix(10.5,0,0,10.5,344.4,549.8)" />
<use xlink:href="#f3_1w" transform="matrix(10.5,0,0,10.5,376.6,549.8)" />
<use xlink:href="#f3_1d" transform="matrix(10.5,0,0,10.5,401.7,549.8)" />
<use xlink:href="#f1_k" transform="matrix(10.4,0,0,10.4,72.4,589.5)" />
<use xlink:href="#f1_p" transform="matrix(10.4,0,0,10.4,81.2,589.5)" />
<use xlink:href="#f1_h" transform="matrix(10.4,0,0,10.4,90.4,589.5)" />
<use xlink:href="#f3_21" transform="matrix(10.4,0,0,10.4,113.1,589.5)" />
<use xlink:href="#f1_24" transform="matrix(10.4,0,0,10.4,124.8,589.5)" />
<use xlink:href="#f1_2e" transform="matrix(10.4,0,0,10.4,128.4,589.5)" />
<use xlink:href="#f1_29" transform="matrix(10.4,0,0,10.4,143.7,589.5)" />
<use xlink:href="#f1_2a" transform="matrix(10.4,0,0,10.4,152.5,589.5)" />
<use xlink:href="#f1_2f" transform="matrix(10.4,0,0,10.4,161.4,589.5)" />
<use xlink:href="#f1_2a" transform="matrix(10.4,0,0,10.4,173.4,589.5)" />
<use xlink:href="#f1_29" transform="matrix(10.4,0,0,10.4,182.2,589.5)" />
<use xlink:href="#f1_20" transform="matrix(10.4,0,0,10.4,191.1,589.5)" />
<use xlink:href="#f1_g" transform="matrix(10.4,0,0,10.4,200,589.5)" />
<use xlink:href="#f1_2a" transform="matrix(10.4,0,0,10.4,205.3,589.5)" />
<use xlink:href="#f1_29" transform="matrix(10.4,0,0,10.4,214.1,589.5)" />
<use xlink:href="#f1_20" transform="matrix(10.4,0,0,10.4,223,589.5)" />
<use xlink:href="#f1_21" transform="matrix(10.4,0,0,10.4,239.2,589.5)" />
<use xlink:href="#f1_2g" transform="matrix(10.4,0,0,10.4,243.6,589.5)" />
<use xlink:href="#f1_29" transform="matrix(10.4,0,0,10.4,252.5,589.5)" />
<use xlink:href="#f1_1y" transform="matrix(10.4,0,0,10.4,261.4,589.5)" />
<use xlink:href="#f1_2f" transform="matrix(10.4,0,0,10.4,269.4,589.5)" />
<use xlink:href="#f1_24" transform="matrix(10.4,0,0,10.4,273.8,589.5)" />
<use xlink:href="#f1_2a" transform="matrix(10.4,0,0,10.4,277.3,589.5)" />
<use xlink:href="#f1_29" transform="matrix(10.4,0,0,10.4,286.2,589.5)" />
<use xlink:href="#f1_2e" transform="matrix(10.4,0,0,10.4,295.1,589.5)" />
<use xlink:href="#f5_14" transform="matrix(10.5,0,0,10.5,113.1,622.6)" />
<use xlink:href="#f3_21" transform="matrix(10.4,0,0,10.4,134.7,623.8)" />
<use xlink:href="#f1_b" transform="matrix(10.4,0,0,10.4,139.1,623.8)" />
<use xlink:href="#f1_m" transform="matrix(10.4,0,0,10.4,144.4,623.8)" />
<use xlink:href="#f1_c" transform="matrix(10.4,0,0,10.4,153.3,623.8)" />
<use xlink:href="#f1_w" transform="matrix(10.4,0,0,10.4,165.4,623.8)" />
<use xlink:href="#f3_21" transform="matrix(10.4,0,0,10.4,181.5,623.8)" />
<use xlink:href="#f1_b" transform="matrix(10.4,0,0,10.4,192.6,623.8)" />
<use xlink:href="#f1_99" transform="matrix(10.4,0,0,10.4,198,623.8)" />
<use xlink:href="#f1_k" transform="matrix(10.4,0,0,10.4,206.8,623.8)" />
<use xlink:href="#f1_c" transform="matrix(10.4,0,0,10.4,215.7,623.8)" />
<use xlink:href="#f1_w" transform="matrix(10.4,0,0,10.4,228,623.8)" />
<use xlink:href="#f1_l" transform="matrix(10.4,0,0,10.4,244.1,623.8)" />
<use xlink:href="#f1_m" transform="matrix(10.4,0,0,10.4,113.1,657.4)" />
<use xlink:href="#f2_3f" transform="matrix(10.4,0,0,10.4,129,657.4)" />
<use xlink:href="#f1_99" transform="matrix(10.4,0,0,10.4,145,657.4)" />
<use xlink:href="#f1_k" transform="matrix(10.4,0,0,10.4,161,657.4)" />
<use xlink:href="#f3_24" transform="matrix(10.4,0,0,10.4,176.9,657.4)" />
<use xlink:href="#f3_h" transform="matrix(10.4,0,0,10.4,180.4,657.4)" />
<use xlink:href="#f3_20" transform="matrix(10.4,0,0,10.4,184.9,657.4)" />
<use xlink:href="#f3_h" transform="matrix(10.4,0,0,10.4,193.7,657.4)" />
<use xlink:href="#f1_1z" transform="matrix(10.4,0,0,10.4,205.1,657.4)" />
<use xlink:href="#f1_24" transform="matrix(10.4,0,0,10.4,214,657.4)" />
<use xlink:href="#f1_2e" transform="matrix(10.4,0,0,10.4,217.5,657.4)" />
<use xlink:href="#f1_2f" transform="matrix(10.4,0,0,10.4,225.5,657.4)" />
<use xlink:href="#f1_24" transform="matrix(10.4,0,0,10.4,229.9,657.4)" />
<use xlink:href="#f1_29" transform="matrix(10.4,0,0,10.4,233.5,657.4)" />
<use xlink:href="#f1_1y" transform="matrix(10.4,0,0,10.4,242.3,657.4)" />
<use xlink:href="#f1_2f" transform="matrix(10.4,0,0,10.4,250.3,657.4)" />
<use xlink:href="#f1_20" transform="matrix(10.4,0,0,10.4,261.9,657.4)" />
<use xlink:href="#f1_27" transform="matrix(10.4,0,0,10.4,270.8,657.4)" />
<use xlink:href="#f1_20" transform="matrix(10.4,0,0,10.4,274.3,657.4)" />
<use xlink:href="#f1_28" transform="matrix(10.4,0,0,10.4,283.2,657.4)" />
<use xlink:href="#f1_20" transform="matrix(10.4,0,0,10.4,296.5,657.4)" />
<use xlink:href="#f1_29" transform="matrix(10.4,0,0,10.4,305.3,657.4)" />
<use xlink:href="#f1_2f" transform="matrix(10.4,0,0,10.4,314.2,657.4)" />
<use xlink:href="#f1_23" transform="matrix(10.4,0,0,10.4,325.8,657.4)" />
<use xlink:href="#f1_1w" transform="matrix(10.4,0,0,10.4,334.6,657.4)" />
<use xlink:href="#f1_2e" transform="matrix(10.4,0,0,10.4,343.5,657.4)" />
<use xlink:href="#f1_2e" transform="matrix(10.4,0,0,10.4,358.6,657.4)" />
<use xlink:href="#f1_1w" transform="matrix(10.4,0,0,10.4,366.6,657.4)" />
<use xlink:href="#f1_28" transform="matrix(10.4,0,0,10.4,375.5,657.4)" />
<use xlink:href="#f1_20" transform="matrix(10.4,0,0,10.4,388.8,657.4)" />
<use xlink:href="#f1_24" transform="matrix(10.4,0,0,10.4,404.8,657.4)" />
<use xlink:href="#f1_28" transform="matrix(10.4,0,0,10.4,408.3,657.4)" />
<use xlink:href="#f1_1w" transform="matrix(10.4,0,0,10.4,421.6,657.4)" />
<use xlink:href="#f1_22" transform="matrix(10.4,0,0,10.4,430.5,657.4)" />
<use xlink:href="#f1_20" transform="matrix(10.4,0,0,10.4,439.3,657.4)" />
<use xlink:href="#f1_2e" transform="matrix(10.4,0,0,10.4,448.2,657.4)" />
<use xlink:href="#f1_h" transform="matrix(10.4,0,0,10.4,456.2,657.4)" />
<use xlink:href="#f1_k" transform="matrix(10.4,0,0,10.4,72.4,691.3)" />
<use xlink:href="#f1_q" transform="matrix(10.4,0,0,10.4,81.2,691.3)" />
<use xlink:href="#f1_h" transform="matrix(10.4,0,0,10.4,90.4,691.3)" />
<use xlink:href="#f3_11" transform="matrix(10.4,0,0,10.4,113.1,691.3)" />
<use xlink:href="#f3_w" transform="matrix(10.4,0,0,10.4,130.5,691.3)" />
<use xlink:href="#f1_1q" transform="matrix(10.4,0,0,10.4,146.8,691.3)" />
<use xlink:href="#f1_99" transform="matrix(10.4,0,0,10.4,151.2,691.3)" />
<use xlink:href="#f1_k" transform="matrix(10.4,0,0,10.4,160.1,691.3)" />
<use xlink:href="#f1_f" transform="matrix(10.4,0,0,10.4,169,691.3)" />
<use xlink:href="#f1_k" transform="matrix(10.4,0,0,10.4,180.4,691.3)" />
<use xlink:href="#f1_1s" transform="matrix(10.4,0,0,10.4,189.3,691.3)" />
<use xlink:href="#f1_k" transform="matrix(10.4,0,0,10.4,72.4,725.2)" />
<use xlink:href="#f1_s" transform="matrix(10.4,0,0,10.4,81.2,725.2)" />
<use xlink:href="#f1_h" transform="matrix(10.4,0,0,10.4,90.4,725.2)" />
<use xlink:href="#f3_20" transform="matrix(10.4,0,0,10.4,113.1,725.2)" />
<use xlink:href="#f1_w" transform="matrix(10.4,0,0,10.4,128.7,725.2)" />
<use xlink:href="#f1_o" transform="matrix(10.4,0,0,10.4,144.9,725.2)" />
<use xlink:href="#f1_l" transform="matrix(10.4,0,0,10.4,72.4,759.1)" />
<use xlink:href="#f1_j" transform="matrix(10.4,0,0,10.4,81.2,759.1)" />
<use xlink:href="#f1_h" transform="matrix(10.4,0,0,10.4,90.4,759.1)" />
<use xlink:href="#f1_18" transform="matrix(10.4,0,0,10.4,113.1,759.1)" />
<use xlink:href="#f1_1z" transform="matrix(10.4,0,0,10.4,117.5,759.1)" />
<use xlink:href="#f1_20" transform="matrix(10.4,0,0,10.4,126.4,759.1)" />
<use xlink:href="#f1_29" transform="matrix(10.4,0,0,10.4,135.3,759.1)" />
<use xlink:href="#f1_2f" transform="matrix(10.4,0,0,10.4,144.1,759.1)" />
<use xlink:href="#f1_24" transform="matrix(10.4,0,0,10.4,148.6,759.1)" />
<use xlink:href="#f1_2f" transform="matrix(10.4,0,0,10.4,152.1,759.1)" />
<use xlink:href="#f1_2k" transform="matrix(10.4,0,0,10.4,156.5,759.1)" />
<use xlink:href="#f1_20" transform="matrix(10.4,0,0,10.4,172,759.1)" />
<use xlink:href="#f1_27" transform="matrix(10.4,0,0,10.4,180.9,759.1)" />
<use xlink:href="#f1_20" transform="matrix(10.4,0,0,10.4,184.4,759.1)" />
<use xlink:href="#f1_28" transform="matrix(10.4,0,0,10.4,193.3,759.1)" />
<use xlink:href="#f1_20" transform="matrix(10.4,0,0,10.4,206.6,759.1)" />
<use xlink:href="#f1_29" transform="matrix(10.4,0,0,10.4,215.4,759.1)" />
<use xlink:href="#f1_2f" transform="matrix(10.4,0,0,10.4,224.3,759.1)" />
<use xlink:href="#f1_1z" transform="matrix(10.4,0,0,10.4,236.1,759.1)" />
<use xlink:href="#f1_2a" transform="matrix(10.4,0,0,10.4,245,759.1)" />
<use xlink:href="#f1_20" transform="matrix(10.4,0,0,10.4,253.8,759.1)" />
<use xlink:href="#f1_2e" transform="matrix(10.4,0,0,10.4,262.7,759.1)" />
<use xlink:href="#f1_29" transform="matrix(10.4,0,0,10.4,278.2,759.1)" />
<use xlink:href="#f1_2a" transform="matrix(10.4,0,0,10.4,287,759.1)" />
<use xlink:href="#f1_2f" transform="matrix(10.4,0,0,10.4,295.9,759.1)" />
<use xlink:href="#f1_20" transform="matrix(10.4,0,0,10.4,307.9,759.1)" />
<use xlink:href="#f1_2j" transform="matrix(10.4,0,0,10.4,316.7,759.1)" />
<use xlink:href="#f1_24" transform="matrix(10.4,0,0,10.4,324.7,759.1)" />
<use xlink:href="#f1_2e" transform="matrix(10.4,0,0,10.4,328.2,759.1)" />
<use xlink:href="#f1_2f" transform="matrix(10.4,0,0,10.4,336.2,759.1)" />
<use xlink:href="#f1_h" transform="matrix(10.4,0,0,10.4,340.7,759.1)" />
<use xlink:href="#f1_l" transform="matrix(10.4,0,0,10.4,72.4,793)" />
<use xlink:href="#f1_k" transform="matrix(10.4,0,0,10.4,81.2,793)" />
<use xlink:href="#f1_h" transform="matrix(10.4,0,0,10.4,90.4,793)" />
<use xlink:href="#f1_b" transform="matrix(10.4,0,0,10.4,130.1,793)" />
<use xlink:href="#f1_1w" transform="matrix(10.4,0,0,10.4,135.6,793)" />
<use xlink:href="#f1_c" transform="matrix(10.4,0,0,10.4,144.5,793)" />
<use xlink:href="#f1_11" transform="matrix(10.4,0,0,10.4,168.1,793)" />
<use xlink:href="#f1_24" transform="matrix(10.4,0,0,10.4,178.7,793)" />
<use xlink:href="#f1_25" transform="matrix(10.4,0,0,10.4,182.3,793)" />
<use xlink:href="#f1_20" transform="matrix(10.4,0,0,10.4,185.8,793)" />
<use xlink:href="#f1_1y" transform="matrix(10.4,0,0,10.4,194.7,793)" />
<use xlink:href="#f1_2f" transform="matrix(10.4,0,0,10.4,202.9,793)" />
<use xlink:href="#f1_24" transform="matrix(10.4,0,0,10.4,207.3,793)" />
<use xlink:href="#f1_2h" transform="matrix(10.4,0,0,10.4,210.9,793)" />
<use xlink:href="#f1_20" transform="matrix(10.4,0,0,10.4,218.9,793)" />
<use xlink:href="#f1_b" transform="matrix(10.4,0,0,10.4,130.1,823.8)" />
<use xlink:href="#f1_1x" transform="matrix(10.4,0,0,10.4,135.6,823.8)" />
<use xlink:href="#f1_c" transform="matrix(10.4,0,0,10.4,144.5,823.8)" />
<use xlink:href="#f1_1d" transform="matrix(10.4,0,0,10.4,168.1,823.8)" />
<use xlink:href="#f1_20" transform="matrix(10.4,0,0,10.4,179.6,823.8)" />
<use xlink:href="#f1_24" transform="matrix(10.4,0,0,10.4,188.5,823.8)" />
<use xlink:href="#f1_2f" transform="matrix(10.4,0,0,10.4,192,823.8)" />
<use xlink:href="#f1_23" transform="matrix(10.4,0,0,10.4,196.4,823.8)" />
<use xlink:href="#f1_20" transform="matrix(10.4,0,0,10.4,205.3,823.8)" />
<use xlink:href="#f1_2d" transform="matrix(10.4,0,0,10.4,214.2,823.8)" />
<use xlink:href="#f1_2a" transform="matrix(10.4,0,0,10.4,227.2,823.8)" />
<use xlink:href="#f1_29" transform="matrix(10.4,0,0,10.4,236.1,823.8)" />
<use xlink:href="#f1_20" transform="matrix(10.4,0,0,10.4,244.9,823.8)" />
<use xlink:href="#f1_g" transform="matrix(10.4,0,0,10.4,253.8,823.8)" />
<use xlink:href="#f1_2a" transform="matrix(10.4,0,0,10.4,259.1,823.8)" />
<use xlink:href="#f1_29" transform="matrix(10.4,0,0,10.4,268,823.8)" />
<use xlink:href="#f1_20" transform="matrix(10.4,0,0,10.4,276.8,823.8)" />
<use xlink:href="#f1_29" transform="matrix(10.4,0,0,10.4,293.4,823.8)" />
<use xlink:href="#f1_2a" transform="matrix(10.4,0,0,10.4,302.3,823.8)" />
<use xlink:href="#f1_2d" transform="matrix(10.4,0,0,10.4,311.2,823.8)" />
<use xlink:href="#f1_2a" transform="matrix(10.4,0,0,10.4,324.2,823.8)" />
<use xlink:href="#f1_29" transform="matrix(10.4,0,0,10.4,333,823.8)" />
<use xlink:href="#f1_2f" transform="matrix(10.4,0,0,10.4,341.9,823.8)" />
<use xlink:href="#f1_2a" transform="matrix(10.4,0,0,10.4,346.3,823.8)" />
<use xlink:href="#f1_h" transform="matrix(10.4,0,0,10.4,355.2,823.8)" />
<use xlink:href="#f1_b" transform="matrix(10.4,0,0,10.4,131,854.6)" />
<use xlink:href="#f1_1y" transform="matrix(10.4,0,0,10.4,136.4,854.6)" />
<use xlink:href="#f1_c" transform="matrix(10.4,0,0,10.4,144.6,854.6)" />
<use xlink:href="#f1_1e" transform="matrix(10.4,0,0,10.4,168.1,854.6)" />
<use xlink:href="#f1_29" transform="matrix(10.4,0,0,10.4,180.5,854.6)" />
<use xlink:href="#f1_20" transform="matrix(10.4,0,0,10.4,189.4,854.6)" />
<use xlink:href="#f1_g" transform="matrix(10.4,0,0,10.4,198.2,854.6)" />
<use xlink:href="#f1_2a" transform="matrix(10.4,0,0,10.4,203.5,854.6)" />
<use xlink:href="#f1_29" transform="matrix(10.4,0,0,10.4,212.4,854.6)" />
<use xlink:href="#f1_20" transform="matrix(10.4,0,0,10.4,221.3,854.6)" />
<use xlink:href="#f1_f" transform="matrix(10.4,0,0,10.4,230.1,854.6)" />
<use xlink:href="#f1_1x" transform="matrix(10.4,0,0,10.4,242.1,854.6)" />
<use xlink:href="#f1_2g" transform="matrix(10.4,0,0,10.4,251,854.6)" />
<use xlink:href="#f1_2f" transform="matrix(10.4,0,0,10.4,259.8,854.6)" />
<use xlink:href="#f1_29" transform="matrix(10.4,0,0,10.4,272,854.6)" />
<use xlink:href="#f1_2a" transform="matrix(10.4,0,0,10.4,280.8,854.6)" />
<use xlink:href="#f1_2f" transform="matrix(10.4,0,0,10.4,289.7,854.6)" />
<use xlink:href="#f1_2a" transform="matrix(10.4,0,0,10.4,301.6,854.6)" />
<use xlink:href="#f1_29" transform="matrix(10.4,0,0,10.4,310.5,854.6)" />
<use xlink:href="#f1_2f" transform="matrix(10.4,0,0,10.4,319.4,854.6)" />
<use xlink:href="#f1_2a" transform="matrix(10.4,0,0,10.4,323.8,854.6)" />
<use xlink:href="#f1_h" transform="matrix(10.4,0,0,10.4,332.7,854.6)" />
<use xlink:href="#f1_b" transform="matrix(10.4,0,0,10.4,130.1,885.6)" />
<use xlink:href="#f1_1z" transform="matrix(10.4,0,0,10.4,135.6,885.6)" />
<use xlink:href="#f1_c" transform="matrix(10.4,0,0,10.4,144.5,885.6)" />
<use xlink:href="#f1_1d" transform="matrix(10.4,0,0,10.4,168.1,885.6)" />
<use xlink:href="#f1_20" transform="matrix(10.4,0,0,10.4,179.6,885.6)" />
<use xlink:href="#f1_24" transform="matrix(10.4,0,0,10.4,188.5,885.6)" />
<use xlink:href="#f1_2f" transform="matrix(10.4,0,0,10.4,192,885.6)" />
<use xlink:href="#f1_23" transform="matrix(10.4,0,0,10.4,196.4,885.6)" />
<use xlink:href="#f1_20" transform="matrix(10.4,0,0,10.4,205.3,885.6)" />
<use xlink:href="#f1_2d" transform="matrix(10.4,0,0,10.4,214.2,885.6)" />
<use xlink:href="#f1_2a" transform="matrix(10.4,0,0,10.4,227.2,885.6)" />
<use xlink:href="#f1_29" transform="matrix(10.4,0,0,10.4,236.1,885.6)" />
<use xlink:href="#f1_20" transform="matrix(10.4,0,0,10.4,244.9,885.6)" />
<use xlink:href="#f1_g" transform="matrix(10.4,0,0,10.4,253.8,885.6)" />
<use xlink:href="#f1_2a" transform="matrix(10.4,0,0,10.4,259.1,885.6)" />
<use xlink:href="#f1_29" transform="matrix(10.4,0,0,10.4,268,885.6)" />
<use xlink:href="#f1_20" transform="matrix(10.4,0,0,10.4,276.8,885.6)" />
<use xlink:href="#f1_29" transform="matrix(10.4,0,0,10.4,293.4,885.6)" />
<use xlink:href="#f1_2a" transform="matrix(10.4,0,0,10.4,302.3,885.6)" />
<use xlink:href="#f1_2d" transform="matrix(10.4,0,0,10.4,311.2,885.6)" />
<use xlink:href="#f1_2a" transform="matrix(10.4,0,0,10.4,324.2,885.6)" />
<use xlink:href="#f1_29" transform="matrix(10.4,0,0,10.4,333,885.6)" />
<use xlink:href="#f1_2f" transform="matrix(10.4,0,0,10.4,341.9,885.6)" />
<use xlink:href="#f1_2a" transform="matrix(10.4,0,0,10.4,346.3,885.6)" />
<use xlink:href="#f1_h" transform="matrix(10.4,0,0,10.4,355.2,885.6)" />
<use xlink:href="#f6_p" transform="matrix(12,0,0,12,669.8,1079.8)" />
</g>
<g fill="#0080FF" fill-opacity="0.5" >
<use xlink:href="#f0_1c" transform="matrix(37.8,0,0,37.8,181.3,1077.2)" />
<use xlink:href="#f0_21" transform="matrix(37.8,0,0,37.8,213.4,1077.2)" />
<use xlink:href="#f0_1x" transform="matrix(37.8,0,0,37.8,245.5,1077.2)" />
<use xlink:href="#f0_2e" transform="matrix(37.8,0,0,37.8,277.6,1077.2)" />
<use xlink:href="#f0_2a" transform="matrix(37.8,0,0,37.8,296.9,1077.2)" />
<use xlink:href="#f0_17" transform="matrix(37.8,0,0,37.8,329,1077.2)" />
<use xlink:href="#f0_2h" transform="matrix(37.8,0,0,37.8,373.9,1077.2)" />
<use xlink:href="#f0_25" transform="matrix(37.8,0,0,37.8,406,1077.2)" />
<use xlink:href="#f0_20" transform="matrix(37.8,0,0,37.8,418.9,1077.2)" />
<use xlink:href="#f0_21" transform="matrix(37.8,0,0,37.8,451,1077.2)" />
<use xlink:href="#f0_i" transform="matrix(37.8,0,0,37.8,483.1,1077.2)" />
<use xlink:href="#f0_25" transform="matrix(37.8,0,0,37.8,499.1,1077.2)" />
<use xlink:href="#f0_2a" transform="matrix(37.8,0,0,37.8,512,1077.2)" />
</g>
<defs>
<path d="M593,101c0,0,182,0,279,112c0,0,98,113,98,318c0,0,0,196,-98,308c0,0,-98,112,-277,112c0,0,-181,0,-279,-110c0,0,-99,-111,-99,-310c0,0,0,-198,100,-314c0,0,99,-116,276,-116Zm0,-115c0,0,-162,0,-279,65c0,0,-118,66,-180,190c0,0,-62,124,-62,290c0,0,0,252,138,394c0,0,138,142,385,142c0,0,160,0,278,-64c0,0,118,-64,180,-185c0,0,62,-122,62,-287c0,0,0,-165,-63,-289c0,0,-63,-124,-181,-190c0,0,-118,-66,-278,-66Z" 
id="f0_1f"
transform="scale(0.001,-0.001)" />

<path d="M106,0V635c0,0,0,141,-5,173H228c0,0,1,-4,2,-21c0,0,1,-16,2,-37c0,0,1,-22,2,-81h2c0,0,47,84,108,119c0,0,60,34,151,34c0,0,132,0,194,-66c0,0,61,-66,61,-218V0H615V512c0,0,0,80,-15,124c0,0,-16,44,-50,63c0,0,-35,20,-101,20c0,0,-97,0,-153,-67c0,0,-56,-66,-56,-184V0Z" 
id="f0_2a"
transform="scale(0.001,-0.001)" />

<path d="M103,0V1107H237V0Z" 
id="f0_28"
transform="scale(0.001,-0.001)" />

<path d="M102,0V808H236V0Zm0,979v128H236V979Z" 
id="f0_25"
transform="scale(0.001,-0.001)" />

<path d="M643,478c0,0,-11,128,-65,187c0,0,-54,59,-154,59c0,0,-98,0,-155,-66c0,0,-57,-65,-62,-180ZM431,-14c0,0,-179,0,-272,106c0,0,-94,107,-94,317c0,0,0,200,94,307c0,0,93,106,267,106c0,0,356,0,356,-429V375H206c0,0,0,-138,57,-213c0,0,58,-75,168,-75c0,0,87,0,140,35c0,0,53,35,71,88L760,177c0,0,-72,-191,-329,-191Z" 
id="f0_21"
transform="scale(0.001,-0.001)" />

<path d="M17,0L304,415L31,808H179L380,493L580,808H730L457,417L747,0H598L380,331L162,0Z" 
id="f0_2k"
transform="scale(0.001,-0.001)" />

<path d="M339,87c0,0,74,0,132,34c0,0,57,33,90,91c0,0,34,59,34,121v66L448,396c0,0,-95,-2,-144,-19c0,0,-49,-18,-75,-55c0,0,-26,-38,-26,-98c0,0,0,-65,35,-101c0,0,36,-36,101,-36ZM309,-14c0,0,-122,0,-183,64c0,0,-61,64,-61,176c0,0,0,125,82,192c0,0,83,67,266,72l182,3v44c0,0,0,98,-42,141c0,0,-42,43,-132,43c0,0,-90,0,-131,-31c0,0,-41,-31,-49,-98L101,604c0,0,34,218,323,218c0,0,153,0,229,-70c0,0,77,-69,77,-202V202c0,0,0,-59,16,-90c0,0,16,-30,60,-30c0,0,19,0,44,5V4C850,4,799,-7,746,-7c0,0,-75,0,-109,38c0,0,-33,40,-38,124h-4C595,155,543,62,475,24c0,0,-68,-38,-166,-38Z" 
id="f0_1x"
transform="scale(0.001,-0.001)" />

<path d="M106,0V635c0,0,0,141,-5,173H228c0,0,1,-4,2,-21c0,0,1,-16,2,-37c0,0,1,-22,2,-81h2c0,0,44,86,100,120c0,0,56,33,136,33c0,0,92,0,145,-36c0,0,54,-37,75,-117h2c0,0,42,82,101,117c0,0,59,36,143,36c0,0,123,0,178,-66c0,0,56,-67,56,-218V0H1039V512c0,0,0,117,-32,162c0,0,-32,45,-116,45c0,0,-88,0,-136,-66c0,0,-49,-65,-49,-185V0H573V512c0,0,0,117,-32,162c0,0,-32,45,-116,45c0,0,-86,0,-136,-66c0,0,-50,-66,-50,-185V0Z" 
id="f0_29"
transform="scale(0.001,-0.001)" />

<path d="M453,84c0,0,100,0,146,74c0,0,46,73,46,247c0,0,0,169,-46,241c0,0,-45,73,-145,73c0,0,-80,0,-125,-34c0,0,-45,-34,-68,-105c0,0,-24,-71,-24,-186c0,0,0,-159,51,-234c0,0,51,-76,165,-76ZM103,-316V643c0,0,0,124,-5,165H228c0,0,1,-3,3,-22c0,0,1,-18,3,-56c0,0,2,-38,2,-52h3c0,0,36,75,94,110c0,0,59,34,156,34c0,0,149,0,223,-100c0,0,74,-100,74,-314c0,0,0,-422,-297,-422c0,0,-187,0,-251,140h-4c0,0,3,-6,3,-126V-316Z" 
id="f0_2c"
transform="scale(0.001,-0.001)" />

<path d="M420,84c0,0,121,0,173,78c0,0,52,77,52,243c0,0,0,167,-50,243c0,0,-50,76,-167,76c0,0,-118,0,-170,-78c0,0,-53,-77,-53,-241c0,0,0,-160,52,-241c0,0,52,-80,163,-80Zm1,-98c0,0,-176,0,-267,107c0,0,-90,108,-90,312c0,0,0,417,362,417c0,0,185,0,272,-102c0,0,88,-101,88,-315c0,0,0,-212,-94,-316C692,89,599,-14,421,-14Z" 
id="f0_2b"
transform="scale(0.001,-0.001)" />

<path d="M278,-11c0,0,-162,0,-162,182V710H23v98h99l39,181h90V808H400V710H251V200c0,0,0,-58,19,-82c0,0,19,-23,66,-23c0,0,27,0,77,10V6c0,0,-66,-17,-135,-17Z" 
id="f0_2g"
transform="scale(0.001,-0.001)" />

<path d="M432,92c0,0,96,0,156,66c0,0,61,65,61,169c0,0,0,103,-61,169c0,0,-60,66,-156,66c0,0,-95,0,-156,-66c0,0,-61,-66,-61,-169c0,0,0,-104,61,-169c0,0,61,-66,156,-66ZM425,-28c0,0,-176,0,-271,135c0,0,-95,136,-95,388c0,0,0,278,103,429c0,0,103,151,293,151c0,0,142,0,226,-77c0,0,84,-76,90,-211H638c0,0,-8,80,-56,123c0,0,-47,43,-127,43c0,0,-125,0,-192,-119c0,0,-58,-102,-64,-278c0,0,100,127,255,127c0,0,152,0,245,-98c0,0,93,-98,93,-258c0,0,0,-161,-101,-259c0,0,-101,-96,-266,-96Z" 
id="f1_p"
transform="scale(0.001,-0.001)" />

<path d="M133,0V162H292V0Z" 
id="f1_h"
transform="scale(0.001,-0.001)" />

<path d="M412,-328c0,0,-195,96,-303,284C109,-44,0,142,0,365c0,0,0,232,114,422c0,0,114,191,298,273v-31c0,0,-92,-51,-151,-139c0,0,-59,-88,-88,-223c0,0,-29,-136,-29,-282c0,0,0,-167,27,-301c0,0,26,-133,82,-221c0,0,55,-89,159,-159v-32Z" 
id="f2_c"
transform="scale(0.001,-0.001)" />

<path d="M34,-328v32c0,0,92,50,151,138c0,0,59,88,88,222c0,0,29,135,29,283c0,0,0,165,-27,300c0,0,-26,134,-82,222c0,0,-56,89,-159,160v31c0,0,194,-96,303,-284c0,0,108,-187,108,-410c0,0,0,-232,-114,-422c0,0,-114,-191,-297,-272Z" 
id="f2_d"
transform="scale(0.001,-0.001)" />

<path d="M406,0V763H155V870h2c16,0,114,2,178,48c0,0,70,51,104,157H549V0Z" 
id="f1_k"
transform="scale(0.001,-0.001)" />

<path d="M417,-28c0,0,-161,0,-259,79c0,0,-98,81,-109,223H189c0,0,11,-90,72,-139c0,0,61,-49,162,-49c0,0,96,0,158,68c0,0,61,68,61,175c0,0,0,112,-64,178c0,0,-64,66,-173,66c0,0,-59,0,-115,-28c0,0,-55,-29,-84,-73L93,480l77,573H727V922H271L225,629l4,3c0,0,89,60,188,60c0,0,169,0,269,-94c0,0,99,-93,99,-253c0,0,0,-165,-103,-269C682,76,579,-28,417,-28Z" 
id="f1_o"
transform="scale(0.001,-0.001)" />

<path d="M39,0V0c0,0,0,170,84,277c0,0,85,108,317,236c0,0,113,62,154,115c0,0,41,52,41,134c0,0,0,86,-62,141c0,0,-61,54,-156,54c0,0,-101,0,-158,-68c0,0,-57,-68,-60,-194H67c0,0,-2,178,95,279c0,0,98,101,273,101c0,0,149,0,245,-89c0,0,94,-88,94,-228c0,0,0,-118,-60,-195c0,0,-61,-76,-229,-169C485,394,303,294,237,212c0,0,-28,-36,-46,-81H774V0Z" 
id="f1_l"
transform="scale(0.001,-0.001)" />

<path d="M17,0L389,412L201,800H376L500,518L742,800H904L554,410L750,0H580L448,303L187,0Z" 
id="f3_2j"
transform="scale(0.001,-0.001)" />

<path d="M131,0L274,688H168l23,112H296l26,125c0,0,20,98,82,143c0,0,62,46,176,46c0,0,33,0,59,-5L609,990c0,0,0,3,-53,3c0,0,-45,0,-70,-25c0,0,-25,-25,-37,-83L431,800H575L553,688H409L266,0Z" 
id="f3_21"
transform="scale(0.001,-0.001)" />

<path d="M0,356v74H784V356Z" 
id="f2_h"
transform="scale(0.001,-0.001)" />

<path d="M355,0V355H0v72H355V784h72V427H782V355H427V0Z" 
id="f2_f"
transform="scale(0.001,-0.001)" />

<path d="M0,214v74H784V214ZM0,494v72H784V494Z" 
id="f2_x"
transform="scale(0.001,-0.001)" />

<path d="M212,0c0,0,51,270,162,500c0,0,109,222,281,422H57v131H799V934C799,934,623,726,515,498C515,498,408,269,362,0Z" 
id="f1_q"
transform="scale(0.001,-0.001)" />

<path d="M133,-224v71c0,0,47,8,65,52c0,0,14,33,17,101H133V163H292V27c0,0,0,-114,-36,-172c0,0,-37,-58,-123,-79Z" 
id="f1_f"
transform="scale(0.001,-0.001)" />

<path d="M445,95c0,0,127,0,215,118c0,0,87,119,87,290c0,0,0,97,-46,151c0,0,-46,53,-129,53c0,0,-127,0,-214,-118c0,0,-87,-117,-87,-287c0,0,0,-98,45,-153c0,0,46,-54,129,-54ZM421,-20c0,0,-136,0,-215,81c0,0,-79,82,-79,223c0,0,0,227,136,383c0,0,136,156,333,156c0,0,138,0,217,-79c0,0,79,-80,79,-215v-3c0,0,0,-230,-136,-389C756,137,619,-20,421,-20Z" 
id="f3_2a"
transform="scale(0.001,-0.001)" />

<path d="M130,0L252,216H0v70H292L410,496H0v70H450L572,783h82L532,566H783V496H492L377,286H783V216H335L213,0Z" 
id="f2_3f"
transform="scale(0.001,-0.001)" />

<path d="M424,92c0,0,98,0,161,58c0,0,62,58,62,149c0,0,0,92,-62,151c0,0,-63,58,-161,58c0,0,-98,0,-160,-58c0,0,-63,-59,-63,-151c0,0,0,-91,63,-149c0,0,62,-58,160,-58Zm0,533c0,0,82,0,134,46c0,0,52,45,52,118c0,0,0,72,-52,118c0,0,-52,46,-134,46c0,0,-82,0,-134,-46c0,0,-52,-46,-52,-118c0,0,0,-73,52,-119c0,0,52,-45,134,-45Zm0,-653c0,0,-165,0,-265,90C159,62,59,154,59,305c0,0,0,134,100,216c0,0,35,28,78,47c0,0,-27,15,-52,33c0,0,-90,70,-90,185c0,0,0,130,90,209c0,0,91,80,239,80c0,0,148,0,238,-80c0,0,91,-79,91,-209c0,0,0,-115,-91,-185c0,0,-24,-19,-52,-32c0,0,44,-20,79,-49c0,0,101,-81,101,-215c0,0,0,-151,-101,-243c0,0,-100,-90,-265,-90Z" 
id="f1_r"
transform="scale(0.001,-0.001)" />

<path d="M365,-315c0,0,-136,187,-199,359c0,0,-62,172,-62,359c0,0,0,186,62,358c0,0,63,172,199,360h92c0,0,-110,-192,-160,-365c0,0,-51,-172,-51,-353c0,0,0,-183,51,-355c0,0,50,-172,160,-363Z" 
id="f1_b"
transform="scale(0.001,-0.001)" />

<path d="M104,0V799H238V0Zm-2,946v152H239V946Z" 
id="f1_24"
transform="scale(0.001,-0.001)" />

<path d="M52,-315c0,0,109,192,160,363c0,0,50,173,50,354c0,0,0,183,-50,355c0,0,-51,173,-160,364h92c0,0,135,-188,198,-360c0,0,63,-172,63,-359c0,0,0,-187,-63,-359c0,0,-63,-171,-198,-358Z" 
id="f1_c"
transform="scale(0.001,-0.001)" />

<path d="M424,-28c0,0,-180,0,-272,86c0,0,-92,87,-100,266H192c0,0,12,-126,66,-180c0,0,55,-54,170,-54c0,0,100,0,163,57c0,0,64,57,64,147c0,0,0,94,-61,149c0,0,-52,48,-135,54c0,0,-38,2,-72,2c0,0,-34,0,-45,-3V613c0,0,17,-3,51,-3c0,0,35,0,68,4c0,0,66,8,106,43c0,0,55,45,55,125c0,0,0,77,-58,125c0,0,-58,48,-148,48c0,0,-96,0,-147,-58c0,0,-51,-59,-56,-175H82c0,0,0,168,89,260c0,0,88,93,250,93c0,0,153,0,247,-77c0,0,94,-76,94,-202c0,0,0,-124,-95,-201c0,0,-18,-15,-39,-27c0,0,39,-17,69,-41c0,0,101,-79,101,-214c0,0,0,-151,-105,-246c0,0,-104,-95,-269,-95Z" 
id="f1_m"
transform="scale(0.001,-0.001)" />

<path d="M397,585L300,732L203,586L101,662L206,803L41,853L80,976L242,917l-4,177H364L360,916l161,60L560,852L395,802L500,662L397,585Z" 
id="f4_d"
transform="scale(0.001,-0.001)" />

<path d="M60,174V286H832V174Zm0,309V595H832V483Z" 
id="f1_w"
transform="scale(0.001,-0.001)" />

<path d="M419,483c0,0,93,0,152,66c0,0,59,66,59,169c0,0,0,103,-59,169c0,0,-59,65,-152,65c0,0,-94,0,-153,-65c0,0,-59,-66,-59,-169c0,0,0,-103,59,-169c0,0,59,-66,153,-66ZM397,-28c0,0,-143,0,-227,75c0,0,-85,77,-91,211H209c0,0,8,-83,57,-128c0,0,49,-45,131,-45c0,0,121,0,186,135c0,0,48,101,62,265C645,485,545,362,397,362c0,0,-150,0,-241,98c0,0,-91,98,-91,258c0,0,0,160,99,258c0,0,99,98,262,98c0,0,173,0,266,-123c0,0,94,-123,94,-349c0,0,0,-303,-101,-467C685,135,583,-28,397,-28Z" 
id="f1_s"
transform="scale(0.001,-0.001)" />

<path d="M424,92c0,0,114,0,170,107c0,0,57,108,56,323c0,0,1,216,-56,324c0,0,-56,107,-170,107c0,0,-112,0,-168,-107c0,0,-56,-108,-57,-324c0,0,1,-215,57,-323c0,0,56,-107,168,-107Zm0,-120c0,0,-176,0,-271,142c0,0,-96,143,-96,408c0,0,0,265,96,409c0,0,95,144,271,144c0,0,178,0,273,-144c0,0,96,-144,96,-409c0,0,0,-265,-96,-408c0,0,-95,-142,-273,-142Z" 
id="f1_j"
transform="scale(0.001,-0.001)" />

<path d="M436,0V439L22,1098l87,-1l87,1L510,565l1,-1l315,534l86,-1l86,1L585,437V0Z" 
id="f1_1o"
transform="scale(0.001,-0.001)" />

<path d="M649,461c0,0,-6,111,-55,172c0,0,-55,69,-160,69c0,0,-106,0,-170,-79c0,0,-50,-62,-60,-162ZM425,-20c0,0,-169,0,-266,106c0,0,-97,107,-97,297c0,0,0,201,102,320c0,0,103,119,276,119c0,0,157,0,253,-116c0,0,96,-117,96,-306l-1,-48H204c0,0,8,-119,54,-182c0,0,57,-76,180,-76c0,0,77,0,134,43c0,0,58,43,70,110H775C775,247,746,116,656,47c0,0,-90,-67,-231,-67Z" 
id="f1_20"
transform="scale(0.001,-0.001)" />

<path d="M393,-20c0,0,-169,0,-252,65c0,0,-83,67,-92,210H178c0,0,10,-85,61,-123c0,0,50,-38,154,-38c0,0,90,0,136,34c0,0,47,35,47,100c0,0,0,42,-31,64c0,0,-30,21,-123,43L283,368c0,0,-112,27,-160,75c0,0,-48,48,-48,135c0,0,0,112,80,178c0,0,81,66,218,66c0,0,140,0,222,-68c0,0,82,-67,88,-187H557c0,0,-6,67,-55,103c0,0,-48,37,-129,37c0,0,-84,0,-127,-29c0,0,-44,-29,-44,-85c0,0,0,-43,31,-65c0,0,30,-21,121,-43L493,452c0,0,117,-28,167,-78c0,0,49,-49,49,-138c0,0,0,-119,-86,-188c0,0,-85,-68,-230,-68Z" 
id="f1_2e"
transform="scale(0.001,-0.001)" />

<path d="M424,94c0,0,107,0,169,83c0,0,63,83,63,223c0,0,0,140,-63,224c0,0,-62,83,-169,83c0,0,-106,0,-168,-83c0,0,-62,-84,-62,-224c0,0,0,-140,62,-223c0,0,62,-83,168,-83Zm0,-114c0,0,-165,0,-268,115C156,95,54,211,54,400c0,0,0,189,102,306c0,0,103,116,268,116c0,0,168,0,270,-116c0,0,102,-117,102,-306c0,0,0,-189,-102,-305C694,95,592,-20,424,-20Z" 
id="f1_2a"
transform="scale(0.001,-0.001)" />

<path d="M99,0V799H226V681l30,39c0,0,87,102,219,102c0,0,132,0,203,-71c0,0,72,-72,72,-204V0H616V502c0,0,0,105,-41,151c0,0,-40,47,-132,47c0,0,-97,0,-154,-73c0,0,-56,-74,-56,-199V0Z" 
id="f1_29"
transform="scale(0.001,-0.001)" />

<path d="M67,354V492H442V354Z" 
id="f1_g"
transform="scale(0.001,-0.001)" />

<path d="M116,0L343,1097H517L886,205l185,892h143L987,0H818L444,895L259,0Z" 
id="f3_1d"
transform="scale(0.001,-0.001)" />

<path d="M475,91L710,641H238L475,91ZM434,0L0,1012H78L206,716H742l126,296h76L512,0Z" 
id="f2_6"
transform="scale(0.001,-0.001)" />

<path d="M398,0C398,0,266,0,185,39c0,0,-82,39,-133,124C52,163,0,248,0,342c0,0,0,144,103,243c0,0,103,98,292,98H694V611H387c0,0,-99,0,-166,-32c0,0,-68,-32,-105,-88c0,0,-26,-40,-41,-113H694V304H75c0,0,30,-120,103,-176c0,0,73,-56,210,-56H694V0Z" 
id="f2_40"
transform="scale(0.001,-0.001)" />

<path d="M945,-20c0,0,47,75,125,153H57v74H1147l108,91c0,0,23,19,95,72c0,0,-134,103,-203,166H57v72H1070c0,0,-78,78,-125,154h85c0,0,88,-107,217,-217c0,0,130,-110,206,-154V349c0,0,-101,-58,-219,-162c0,0,-118,-103,-204,-207Z" 
id="f2_4g"
transform="scale(0.001,-0.001)" />

<path d="M660,0C618,0,589,29,589,29C560,58,560,99,560,99c0,41,29,70,29,70c29,29,71,29,71,29c41,0,70,-29,70,-29c29,-29,29,-70,29,-70C759,58,730,29,730,29C701,0,660,0,660,0ZM349,532c-42,0,-71,29,-71,29c-29,29,-29,70,-29,70c0,41,29,70,29,70c29,29,71,29,71,29c41,0,70,-29,70,-29c29,-29,29,-70,29,-70c0,-41,-29,-70,-29,-70C390,532,349,532,349,532Zm622,0c-41,0,-70,29,-70,29c-29,29,-29,70,-29,70c0,41,29,70,29,70c29,29,70,29,70,29c42,0,71,-29,71,-29c29,-29,29,-70,29,-70c0,-41,-29,-70,-29,-70c-29,-29,-71,-29,-71,-29Z" 
id="f5_14"
transform="scale(0.001,-0.001)" />

<path d="M780,449L714,934L435,449ZM22,0L673,1097H839L998,0H839L797,318H359L178,0Z" 
id="f3_10"
transform="scale(0.001,-0.001)" />

<path d="M96,177l23,112H892L869,177Zm63,307l23,112H955L932,484Z" 
id="f3_w"
transform="scale(0.001,-0.001)" />

<path d="M96,-299V1104H382V995H217V-191H382V-299Z" 
id="f1_1q"
transform="scale(0.001,-0.001)" />

<path d="M213,177c0,0,71,0,125,63c0,0,35,42,88,200c0,0,-37,82,-84,121c0,0,-47,38,-115,38c0,0,-79,0,-133,-55C94,544,41,488,41,395c0,0,0,-99,53,-159c0,0,52,-59,119,-59ZM752,150c0,0,92,0,153,66c0,0,62,66,62,177c0,0,0,109,-65,181c0,0,-65,71,-145,71c0,0,-52,0,-90,-26c0,0,-39,-26,-70,-83c0,0,-18,-34,-78,-190c0,0,56,-117,111,-156c0,0,54,-40,122,-40ZM749,79c0,0,-74,0,-137,54c0,0,-42,36,-114,159c0,0,-48,-92,-105,-133c0,0,-57,-41,-137,-41c0,0,-108,0,-182,77C74,195,0,272,0,394c0,0,0,123,69,198c0,0,68,76,160,76c0,0,64,0,113,-33c0,0,50,-34,106,-138c0,0,50,116,111,162c0,0,60,45,164,45c0,0,121,0,203,-87c0,0,83,-86,83,-224c0,0,0,-137,-81,-225c0,0,-80,-89,-179,-89Z" 
id="f2_2v"
transform="scale(0.001,-0.001)" />

<path d="M436,95c0,0,105,0,160,79c0,0,54,80,54,232c0,0,0,150,-52,222c0,0,-52,72,-161,72c0,0,-112,0,-163,-81c0,0,-51,-82,-51,-258c0,0,0,-127,55,-197c0,0,55,-69,158,-69Zm6,-115c0,0,-135,0,-215,102L215,98V0H89V1097H223V695c0,0,87,127,225,127c1,0,2,0,2,0c0,0,157,0,249,-108c0,0,91,-107,91,-291c0,0,0,-208,-92,-326C698,97,606,-20,442,-20Z" 
id="f1_1x"
transform="scale(0.001,-0.001)" />

<path d="M394,-20c0,0,-159,0,-253,113c0,0,-95,114,-95,307c0,0,0,193,98,308c0,0,98,114,264,114c0,0,144,0,230,-78c0,0,85,-79,91,-217H600c0,0,-8,86,-59,133c0,0,-52,47,-138,47c0,0,-101,0,-159,-82c0,0,-58,-82,-58,-225c0,0,0,-152,54,-229c0,0,53,-77,159,-77c0,0,79,0,132,50c0,0,52,51,69,143H729C729,287,709,137,623,58c0,0,-86,-78,-229,-78Z" 
id="f1_1y"
transform="scale(0.001,-0.001)" />

<path d="M335,90c0,0,106,0,179,57c0,0,50,41,67,91c0,0,3,10,4,31c0,0,3,21,3,47v87c0,0,-38,-18,-83,-25L381,360c0,0,-97,-13,-142,-45c0,0,-44,-31,-44,-86c0,0,0,-67,36,-103c0,0,37,-36,104,-36ZM309,-20c0,0,-117,0,-186,61c0,0,-68,63,-68,169c0,0,0,108,64,171c0,0,65,64,189,79l183,23c0,0,22,3,42,8c0,0,26,7,40,27c0,0,15,20,15,51v6c0,0,0,64,-49,101c0,0,-48,36,-135,36c0,0,-83,0,-130,-38c0,0,-46,-39,-56,-115H94c0,0,10,131,92,197c0,0,83,66,238,66c0,0,145,0,222,-63c0,0,76,-63,76,-184V137c0,0,0,-21,12,-33c0,0,12,-12,33,-12c0,0,6,0,18,1c0,0,11,2,25,5V1c0,0,-20,-7,-41,-11c0,0,-22,-5,-37,-5c0,0,-76,0,-110,41c0,0,-22,28,-32,79c0,0,-15,-19,-34,-36c0,0,-101,-89,-247,-89Z" 
id="f1_1w"
transform="scale(0.001,-0.001)" />

<path d="M375,-20c0,0,-136,0,-203,66c0,0,-68,68,-68,204V799H238V284c0,0,0,-101,38,-146c0,0,39,-44,127,-44c0,0,97,0,153,75c0,0,57,75,57,203V799H747V0H620V122c0,0,-14,-22,-30,-41C590,81,504,-20,375,-20Z" 
id="f1_2g"
transform="scale(0.001,-0.001)" />

<path d="M773,597c0,0,120,0,185,67c0,0,65,66,65,188c0,0,0,57,-42,88c0,0,-43,31,-119,31H483L406,597ZM134,0L361,1097H900c0,0,134,0,208,-55c0,0,73,-55,74,-156c0,0,0,-171,-116,-280c0,0,-44,-41,-96,-66c0,0,30,-13,50,-31c0,0,57,-55,35,-179L1020,133c0,0,-9,-48,-3,-70c0,0,6,-21,32,-39L1045,1H865c0,0,-1,30,5,87c0,0,6,58,15,111l14,81c0,0,19,102,-17,147c0,0,-36,44,-134,44H380L283,0Z" 
id="f3_1h"
transform="scale(0.001,-0.001)" />

<path d="M99,0L264,800H392L367,675l37,39c0,0,111,109,238,109c0,0,139,0,194,-69c0,0,55,-70,27,-209L750,0H615L724,524c0,0,18,91,-10,134c0,0,-28,43,-106,43c0,0,-117,0,-189,-77c0,0,-72,-77,-105,-238L234,0Z" 
id="f3_29"
transform="scale(0.001,-0.001)" />

<path d="M617,129c0,0,118,0,194,71c0,0,75,70,75,182c0,0,1,59,-55,93c0,0,-56,34,-152,34H368L289,129Zm58,503c0,0,120,0,188,59c0,0,68,58,68,163c0,0,0,57,-50,85c0,0,-50,29,-146,29H462L393,632ZM113,0L340,1097H825c0,0,122,0,191,-55c0,0,69,-55,69,-153c0,0,0,-160,-113,-251c0,0,-35,-26,-77,-46c0,0,27,-12,52,-28c0,0,89,-61,89,-166c0,0,0,-171,-127,-285C909,113,782,0,591,0Z" 
id="f3_11"
transform="scale(0.001,-0.001)" />

<path d="M511,373V863L169,383l-7,-10ZM511,0V258H38V383l496,691H646V373H799V258H646V0Z" 
id="f1_n"
transform="scale(0.001,-0.001)" />

<path d="M116,0V1097H294L844,205v892H987V0H824L259,895V0Z" 
id="f1_1d"
transform="scale(0.001,-0.001)" />

<path d="M292,-9c0,0,-88,0,-124,38c0,0,-36,39,-36,134V689H22V799H132v224H266V799H392V689H266V163c0,0,0,-27,21,-43c0,0,21,-15,57,-15h48V1C392,1,324,-9,292,-9Z" 
id="f1_2f"
transform="scale(0.001,-0.001)" />

<path d="M118,0V799H246V662c0,0,17,32,36,58c0,0,76,102,187,102c0,0,19,0,38,-6V679l-27,1c0,0,-109,0,-168,-66c0,0,-60,-65,-60,-186V0Z" 
id="f1_2d"
transform="scale(0.001,-0.001)" />

<path d="M132,0V687H22V799H132V935c0,0,0,88,52,133c0,0,52,45,157,45l59,-3V989l-53,2c0,0,-39,0,-60,-24c0,0,-21,-25,-21,-71V799H400V687H266V0Z" 
id="f1_21"
transform="scale(0.001,-0.001)" />

<path d="M103,0V1097H237V0Z" 
id="f1_27"
transform="scale(0.001,-0.001)" />

<path d="M17,0L301,412L32,799H205L389,514L574,799H740L471,410L749,0H581L382,305L186,0Z" 
id="f1_2j"
transform="scale(0.001,-0.001)" />

<path d="M310,0L12,799H168L383,145L604,799H752L454,0Z" 
id="f1_2h"
transform="scale(0.001,-0.001)" />

<path d="M187,124L287,304H75c0,0,17,-67,37,-100c0,0,21,-33,75,-80ZM328,378L462,611H387c0,0,-143,0,-217,-61c0,0,-74,-61,-95,-172ZM52,-107L149,59c0,0,-76,63,-105,116C44,175,0,256,0,343c0,0,0,144,103,242c0,0,103,98,293,98H503l68,119h81L585,683H694V611H543L410,378H694V304H368L251,95c0,0,71,-23,137,-23H694V0H397C397,0,282,0,211,28L133,-107Z" 
id="f2_41"
transform="scale(0.001,-0.001)" />

<path d="M354,90c0,0,107,0,192,57c0,0,60,41,87,95c0,0,5,12,11,33c0,0,6,20,11,44l18,88c0,0,-62,-26,-132,-37L414,352c0,0,-84,-11,-131,-56c0,0,-47,-45,-47,-113c0,0,0,-44,31,-69c0,0,31,-24,87,-24ZM306,-20c0,0,-99,0,-156,47c0,0,-57,49,-57,134c0,0,1,117,81,198c0,0,80,81,211,98l164,20l70,10c0,0,35,6,59,30c0,0,23,24,31,66l1,2c0,0,13,64,-25,94c0,0,-39,31,-132,31c0,0,-83,0,-137,-37c0,0,-54,-37,-84,-114H210c0,0,46,137,138,201c0,0,92,63,245,63c0,0,149,0,211,-59c0,0,45,-44,44,-116c0,0,1,-30,-6,-63L749,136c0,0,-4,-19,6,-32c0,0,10,-12,30,-12c0,0,6,0,19,1c0,0,12,2,25,5L809,1c0,0,-19,-6,-43,-11c0,0,-22,-5,-36,-5c0,0,-73,0,-100,43c0,0,-16,27,-17,75C612,102,594,85,573,69c0,0,-120,-89,-267,-89Z" 
id="f3_1w"
transform="scale(0.001,-0.001)" />

<path d="M0,368V478H849V368Z" 
id="f1_99"
transform="scale(0.001,-0.001)" />

<path d="M102,0L267,800H402L237,0ZM300,946l31,151H467L436,946Z" 
id="f3_24"
transform="scale(0.001,-0.001)" />

<path d="M133,0l33,162H326L292,0Z" 
id="f3_h"
transform="scale(0.001,-0.001)" />

<path d="M748,462c0,0,3,31,3,63c0,0,0,86,-45,132c0,0,-46,45,-134,45c0,0,-100,0,-180,-85c0,0,-58,-63,-90,-155ZM419,-20c0,0,-136,0,-213,73c0,0,-77,74,-78,206c0,0,0,25,4,58c0,0,4,32,10,63c0,0,44,208,169,326c0,0,125,117,305,117c0,0,128,0,198,-73c0,0,71,-73,71,-207c0,0,1,-100,-24,-189H278l-4,-25c0,0,-3,-30,-3,-55c0,0,0,-90,44,-134c0,0,44,-45,133,-45c0,0,87,0,156,44c0,0,68,45,95,117H830C830,256,782,126,674,52c0,0,-108,-72,-255,-72Z" 
id="f3_20"
transform="scale(0.001,-0.001)" />

<path d="M411,93c0,0,98,0,158,73c0,0,60,74,60,195c0,0,0,163,-57,252c0,0,-56,88,-161,88c0,0,-113,0,-165,-72c0,0,-52,-72,-52,-229c0,0,0,-147,56,-227c0,0,56,-80,161,-80ZM404,-20c0,0,-161,0,-255,118c0,0,-95,120,-95,324c0,0,0,179,92,290c0,0,91,110,239,110c0,0,147,0,233,-124l11,-15v414H763V0H638V109L621,84C621,84,538,-20,404,-20Z" 
id="f1_1z"
transform="scale(0.001,-0.001)" />

<path d="M99,0V799H226V680l28,36c0,0,90,106,215,106c0,0,107,0,171,-63c0,0,28,-28,44,-65l21,28c0,0,87,100,208,100c0,0,125,0,194,-68c0,0,68,-68,68,-194V0H1041V515c0,0,0,91,-37,138c0,0,-38,47,-110,47c0,0,-87,0,-139,-68c0,0,-52,-68,-52,-183V0H569V547c0,0,0,75,-34,114c0,0,-34,39,-99,39c0,0,-89,0,-146,-76c0,0,-57,-76,-57,-196V0Z" 
id="f1_28"
transform="scale(0.001,-0.001)" />

<path d="M99,0V1097H233V690l23,30c0,0,87,102,219,102c0,0,132,0,203,-71c0,0,72,-72,72,-204V0H616V514c0,0,0,99,-38,142c0,0,-38,44,-124,44c0,0,-102,0,-162,-73c0,0,-59,-74,-59,-199V0Z" 
id="f1_23"
transform="scale(0.001,-0.001)" />

<path d="M418,95c0,0,98,0,158,73c0,0,59,73,59,193c0,0,0,170,-54,254c0,0,-54,85,-163,85c0,0,-113,0,-165,-72c0,0,-52,-71,-52,-227c0,0,0,-147,57,-227c0,0,56,-79,160,-79ZM394,-336c0,0,-136,0,-216,62c0,0,-79,63,-96,182H219c0,0,12,-64,57,-98c0,0,45,-35,116,-35c0,0,116,0,176,73c0,0,61,73,61,211V85l-1,-1C628,84,545,-20,412,-20c0,0,-161,0,-256,118c0,0,-94,120,-94,324c0,0,0,179,93,290c0,0,93,110,244,110c0,0,144,0,228,-124l10,-14V799H763V59c0,0,-1,-201,-91,-298c0,0,-91,-97,-278,-97Z" 
id="f1_22"
transform="scale(0.001,-0.001)" />

<path d="M42,-299v108H207V995H42v109H329V-299Z" 
id="f1_1s"
transform="scale(0.001,-0.001)" />

<path d="M139,0V1097H287V0Z" 
id="f1_18"
transform="scale(0.001,-0.001)" />

<path d="M152,-323c-8,0,-38,1,-63,8v125c0,0,30,-11,77,-12c0,0,45,0,76,37c0,0,30,38,69,140l2,12v1L17,799H170L383,139L600,799H747L443,-25c0,0,-70,-184,-125,-241c0,0,-55,-57,-164,-57c0,0,-1,0,-2,0Z" 
id="f1_2k"
transform="scale(0.001,-0.001)" />

<path d="M564,127c0,0,128,0,187,49c0,0,60,49,60,155c0,0,0,93,-62,136c0,0,-62,42,-195,42H262V127ZM527,630c0,0,121,0,177,43c0,0,56,44,56,138c0,0,0,82,-52,121c0,0,-51,38,-162,38H262V630ZM113,0V1097H595c0,0,141,0,227,-72c0,0,85,-72,85,-190c0,0,0,-137,-101,-214c0,0,-23,-17,-50,-30c0,0,54,-20,95,-49c0,0,107,-78,107,-217c0,0,0,-153,-105,-239C853,86,749,0,562,0Z" 
id="f1_11"
transform="scale(0.001,-0.001)" />

<path d="M33,-318c0,0,-30,0,-55,4v117H2c0,0,59,0,79,18c0,0,21,19,21,71V799H236V-108c0,0,0,-111,-48,-160c0,0,-48,-50,-155,-50ZM100,946v152H237V946Z" 
id="f1_25"
transform="scale(0.001,-0.001)" />

<path d="M594,101c0,0,171,0,277,123c0,0,105,123,105,324c0,0,0,201,-105,325c0,0,-106,123,-277,123c0,0,-171,0,-277,-123C317,873,212,749,212,548c0,0,0,-201,105,-324c0,0,106,-123,277,-123Zm0,-130c0,0,-239,0,-387,158C207,129,60,288,60,548c0,0,0,260,147,419c0,0,148,160,387,160c0,0,240,0,387,-160c0,0,147,-159,147,-419c0,0,0,-260,-147,-419C981,129,834,-29,594,-29Z" 
id="f1_1e"
transform="scale(0.001,-0.001)" />

<path d="M415,-18c0,0,-149,0,-244,83c0,0,-94,84,-107,222l140,11c0,0,16,-103,73,-154c0,0,56,-52,137,-52c0,0,98,0,165,73c0,0,66,73,66,194c0,0,0,115,-64,182c0,0,-64,66,-169,66c0,0,-65,0,-117,-29c0,0,-52,-30,-82,-77L87,517l106,562H736V951H300L241,657c0,0,99,69,207,69c0,0,143,0,242,-100c0,0,98,-99,98,-255c0,0,0,-149,-86,-257C702,114,597,-18,415,-18Z" 
id="f6_p"
transform="scale(0.001,-0.001)" />

<path d="M125,0V1051H268V115H799V0Z" 
id="f0_1c"
transform="scale(0.001,-0.001)" />

<path d="M106,0V620c0,0,0,85,-5,188H228c0,0,6,-138,6,-165h3c0,0,32,103,74,141c0,0,42,38,118,38c0,0,27,0,54,-7V692c0,0,-26,7,-71,7c0,0,-84,0,-128,-72c0,0,-44,-72,-44,-206V0Z" 
id="f0_2e"
transform="scale(0.001,-0.001)" />

<path d="M606,-14c0,0,-164,0,-284,65c0,0,-119,66,-182,189c0,0,-63,123,-63,291c0,0,0,255,137,396c0,0,137,140,386,140c0,0,174,0,283,-59c0,0,109,-59,168,-189L915,779c0,0,-44,90,-123,131c0,0,-79,41,-196,41c0,0,-182,0,-278,-110c0,0,-96,-110,-96,-310c0,0,0,-200,102,-315c0,0,102,-115,282,-115c0,0,103,0,193,31c0,0,89,31,144,85V407H629V526h445V164c0,0,-83,-85,-205,-132c0,0,-121,-46,-263,-46Z" 
id="f0_17"
transform="scale(0.001,-0.001)" />

<path d="M355,-14c0,0,-133,0,-194,65c0,0,-62,66,-62,219V808H234V296c0,0,0,-80,16,-124c0,0,16,-44,50,-64c0,0,34,-19,101,-19c0,0,97,0,153,66c0,0,55,67,55,185V808H744V172c0,0,0,-141,4,-172H621c0,0,0,4,-1,20c0,0,-1,17,-2,38c0,0,-1,21,-3,80h-2C613,138,567,55,506,20c0,0,-61,-34,-151,-34Z" 
id="f0_2h"
transform="scale(0.001,-0.001)" />

<path d="M395,89c0,0,115,0,166,79c0,0,51,79,51,246c0,0,0,160,-51,235c0,0,-51,75,-164,75c0,0,-102,0,-147,-75c0,0,-45,-75,-45,-244c0,0,0,-170,45,-243c0,0,45,-73,145,-73ZM361,-14c0,0,-153,0,-225,102c0,0,-72,103,-72,312c0,0,0,422,297,422c0,0,92,0,153,-33c0,0,61,-34,98,-107h2l-2,90v335H747V166c0,0,0,-126,4,-166H623c0,0,-2,12,-5,55c0,0,-3,44,-3,75h-3c0,0,-37,-78,-98,-111c0,0,-62,-33,-153,-33Z" 
id="f0_20"
transform="scale(0.001,-0.001)" />

<path d="M140,0V163H285V0Z" 
id="f0_i"
transform="scale(0.001,-0.001)" />


</defs>
</svg>