<?xml version="1.0" encoding="UTF-8" standalone="no"?>
<!DOCTYPE svg PUBLIC "-//W3C//DTD SVG 1.1//EN"
"http://www.w3.org/Graphics/SVG/1.1/DTD/svg11.dtd">
<svg viewBox="0 0 734 1106" version="1.1" xmlns="http://www.w3.org/2000/svg" xmlns:xlink="http://www.w3.org/1999/xlink">
<defs>
<style type="text/css"><![CDATA[
.g0_86{
fill: none;
stroke: #000000;
stroke-width: 0.76584446;
stroke-linecap: round;
stroke-linejoin: miter;
}
.g1_86{
fill: none;
stroke: #000000;
stroke-width: 0.76217777;
stroke-linecap: round;
stroke-linejoin: miter;
}
.g2_86{
fill: none;
stroke: #000000;
stroke-width: 0.7638889;
stroke-linecap: round;
stroke-linejoin: miter;
}
.g3_86{
fill: none;
stroke: #000000;
stroke-width: 0.7607111;
stroke-linecap: round;
stroke-linejoin: miter;
}
.g4_86{
fill: none;
stroke: #000000;
stroke-width: 0.15277778;
stroke-linecap: round;
stroke-linejoin: miter;
}
.g5_86{
}
.g6_86{
fill: none;
stroke: #000000;
stroke-width: 0.76486665;
stroke-linecap: round;
stroke-linejoin: miter;
}
]]></style>
</defs>
<g fill="#D4D4D4" fill-opacity="0.56" >
<use xlink:href="#f0_1f" transform="matrix(50.9,-50.9,50.9,50.9,122.6,924.1)" />
<use xlink:href="#f0_2a" transform="matrix(50.9,-50.9,50.9,50.9,183.2,863.6)" />
<use xlink:href="#f0_28" transform="matrix(50.9,-50.9,50.9,50.9,226.4,820.3)" />
<use xlink:href="#f0_25" transform="matrix(50.9,-50.9,50.9,50.9,243.7,803.1)" />
<use xlink:href="#f0_2a" transform="matrix(50.9,-50.9,50.9,50.9,260.9,785.8)" />
<use xlink:href="#f0_21" transform="matrix(50.9,-50.9,50.9,50.9,304.2,742.5)" />
<use xlink:href="#f0_2k" transform="matrix(50.9,-50.9,50.9,50.9,347.4,699.3)" />
<use xlink:href="#f0_1x" transform="matrix(50.9,-50.9,50.9,50.9,386.3,660.4)" />
<use xlink:href="#f0_29" transform="matrix(50.9,-50.9,50.9,50.9,429.6,617.2)" />
<use xlink:href="#f0_2c" transform="matrix(50.9,-50.9,50.9,50.9,494.4,552.4)" />
<use xlink:href="#f0_2b" transform="matrix(50.9,-50.9,50.9,50.9,537.6,509.1)" />
<use xlink:href="#f0_25" transform="matrix(50.9,-50.9,50.9,50.9,580.8,465.9)" />
<use xlink:href="#f0_2a" transform="matrix(50.9,-50.9,50.9,50.9,598.1,448.6)" />
<use xlink:href="#f0_2g" transform="matrix(50.9,-50.9,50.9,50.9,641.4,405.4)" />
</g>
<g fill="#000000" >
<use xlink:href="#f1_b" transform="matrix(10.4,0,0,10.4,72.4,110.9)" />
<use xlink:href="#f1_2h" transform="matrix(10.4,0,0,10.4,77.7,110.9)" />
<use xlink:href="#f1_24" transform="matrix(10.4,0,0,10.4,85.7,110.9)" />
<use xlink:href="#f1_24" transform="matrix(10.4,0,0,10.4,89.2,110.9)" />
<use xlink:href="#f1_c" transform="matrix(10.4,0,0,10.4,92.8,110.9)" />
<use xlink:href="#f1_k" transform="matrix(6.3,0,0,6.3,150.9,95)" />
<use xlink:href="#f1_2f" transform="matrix(7.9,0,0,7.9,128.9,102.2)" />
<use xlink:href="#f1_1w" transform="matrix(7.9,0,0,7.9,132.2,102.2)" />
<use xlink:href="#f1_29" transform="matrix(7.9,0,0,7.9,139,102.2)" />
<use xlink:href="#f2_h" transform="matrix(6.3,0,0,6.3,145.7,95)" />
<use xlink:href="#f3_2j" transform="matrix(7.9,0,0,7.9,159.4,102.2)" />
<use xlink:href="#f3_20" transform="matrix(10.5,0,0,10.5,118.4,111.8)" />
<use xlink:href="#f4_n" transform="matrix(10.4,0,0,10.4,70.6,148.3)" />
<use xlink:href="#f4_h" transform="matrix(10.4,0,0,10.4,79.4,148.3)" />
<use xlink:href="#f1_b" transform="matrix(10.4,0,0,10.4,84,148.3)" />
<use xlink:href="#f1_24" transform="matrix(10.4,0,0,10.4,89.3,148.3)" />
<use xlink:href="#f1_c" transform="matrix(10.4,0,0,10.4,92.8,148.3)" />
<use xlink:href="#f1_k" transform="matrix(10.4,0,0,10.4,116.6,148.3)" />
<use xlink:href="#f1_b" transform="matrix(10.4,0,0,10.4,373.8,148.3)" />
<use xlink:href="#f1_24" transform="matrix(10.4,0,0,10.4,379.1,148.3)" />
<use xlink:href="#f1_24" transform="matrix(10.4,0,0,10.4,382.7,148.3)" />
<use xlink:href="#f1_c" transform="matrix(10.4,0,0,10.4,386.2,148.3)" />
<use xlink:href="#f1_k" transform="matrix(10.4,0,0,10.4,409.9,148.3)" />
<use xlink:href="#f1_b" transform="matrix(10.4,0,0,10.4,77,182.2)" />
<use xlink:href="#f1_24" transform="matrix(10.4,0,0,10.4,82.3,182.2)" />
<use xlink:href="#f1_24" transform="matrix(10.4,0,0,10.4,85.8,182.2)" />
<use xlink:href="#f1_24" transform="matrix(10.4,0,0,10.4,89.4,182.2)" />
<use xlink:href="#f1_c" transform="matrix(10.4,0,0,10.4,92.9,182.2)" />
<use xlink:href="#f1_l" transform="matrix(10.4,0,0,10.4,116.6,182.2)" />
<use xlink:href="#f1_b" transform="matrix(10.4,0,0,10.4,369.2,182.2)" />
<use xlink:href="#f1_24" transform="matrix(10.4,0,0,10.4,374.5,182.2)" />
<use xlink:href="#f1_2h" transform="matrix(10.4,0,0,10.4,378.1,182.2)" />
<use xlink:href="#f1_c" transform="matrix(10.4,0,0,10.4,386.1,182.2)" />
<use xlink:href="#f1_k" transform="matrix(10.4,0,0,10.4,409.9,182.2)" />
<use xlink:href="#f1_b" transform="matrix(10.4,0,0,10.4,79.6,216.1)" />
<use xlink:href="#f1_2h" transform="matrix(10.4,0,0,10.4,84.9,216.1)" />
<use xlink:href="#f1_c" transform="matrix(10.4,0,0,10.4,93.1,216.1)" />
<use xlink:href="#f1_k" transform="matrix(10.4,0,0,10.4,116.6,216.1)" />
<use xlink:href="#f1_b" transform="matrix(10.4,0,0,10.4,369.2,216.1)" />
<use xlink:href="#f1_2h" transform="matrix(10.4,0,0,10.4,374.5,216.1)" />
<use xlink:href="#f1_24" transform="matrix(10.4,0,0,10.4,382.8,216.1)" />
<use xlink:href="#f1_c" transform="matrix(10.4,0,0,10.4,386.3,216.1)" />
<use xlink:href="#f1_k" transform="matrix(10.4,0,0,10.4,409.9,216.1)" />
<use xlink:href="#f1_b" transform="matrix(10.4,0,0,10.4,72.4,250)" />
<use xlink:href="#f1_2h" transform="matrix(10.4,0,0,10.4,77.7,250)" />
<use xlink:href="#f1_24" transform="matrix(10.4,0,0,10.4,85.7,250)" />
<use xlink:href="#f1_24" transform="matrix(10.4,0,0,10.4,89.2,250)" />
<use xlink:href="#f1_c" transform="matrix(10.4,0,0,10.4,92.8,250)" />
<use xlink:href="#f1_l" transform="matrix(10.4,0,0,10.4,116.6,250)" />
<use xlink:href="#f4_o" transform="matrix(10.4,0,0,10.4,62.5,311.2)" />
<use xlink:href="#f4_h" transform="matrix(10.4,0,0,10.4,71.4,311.2)" />
<use xlink:href="#f1_b" transform="matrix(10.4,0,0,10.4,75.7,311.2)" />
<use xlink:href="#f1_2h" transform="matrix(10.4,0,0,10.4,81.2,311.2)" />
<use xlink:href="#f1_24" transform="matrix(10.4,0,0,10.4,89.2,311.2)" />
<use xlink:href="#f1_c" transform="matrix(10.4,0,0,10.4,92.7,311.2)" />
</g>
<path d="M119.7,307.4h29.6m36.2,0h19.8" class="g0_86" />
<g fill="#000000" >
<use xlink:href="#f2_h" transform="matrix(10.5,0,0,10.5,156.5,311.7)" />
<use xlink:href="#f2_f" transform="matrix(10.5,0,0,10.5,212.5,311.7)" />
<use xlink:href="#f2_x" transform="matrix(10.5,0,0,10.5,255.9,311.7)" />
<use xlink:href="#f1_l" transform="matrix(7.9,0,0,7.9,130.9,291.6)" />
<use xlink:href="#f1_l" transform="matrix(7.9,0,0,7.9,139.5,319.1)" />
<use xlink:href="#f1_l" transform="matrix(10.5,0,0,10.5,172,311.7)" />
<use xlink:href="#f1_l" transform="matrix(10.5,0,0,10.5,228.2,311.7)" />
<use xlink:href="#f1_j" transform="matrix(10.5,0,0,10.5,273.1,311.7)" />
<use xlink:href="#f3_1z" transform="matrix(10.5,0,0,10.5,119.7,301.3)" />
<use xlink:href="#f3_2k" transform="matrix(10.5,0,0,10.5,138.5,301.3)" />
<use xlink:href="#f3_1z" transform="matrix(10.5,0,0,10.5,185.5,301.3)" />
<use xlink:href="#f3_2k" transform="matrix(10.5,0,0,10.5,194.4,301.3)" />
<use xlink:href="#f3_2k" transform="matrix(10.5,0,0,10.5,237.5,311.7)" />
<use xlink:href="#f3_1z" transform="matrix(10.5,0,0,10.5,185.6,327.3)" />
<use xlink:href="#f3_2j" transform="matrix(10.5,0,0,10.5,194.5,327.3)" />
<use xlink:href="#f3_1z" transform="matrix(10.5,0,0,10.5,120.3,328.7)" />
<use xlink:href="#f3_2j" transform="matrix(10.5,0,0,10.5,129.2,328.7)" />
<use xlink:href="#f1_b" transform="matrix(10.4,0,0,10.4,365.7,311.2)" />
<use xlink:href="#f1_2h" transform="matrix(10.4,0,0,10.4,371.1,311.2)" />
<use xlink:href="#f1_24" transform="matrix(10.4,0,0,10.4,379,311.2)" />
<use xlink:href="#f1_24" transform="matrix(10.4,0,0,10.4,382.6,311.2)" />
<use xlink:href="#f1_c" transform="matrix(10.4,0,0,10.4,386.1,311.2)" />
</g>
<path d="M436.1,307.1h19.7m63.5,0h29.5m36.1,0h19.7" class="g1_86" />
<g fill="#000000" >
<use xlink:href="#f2_4o" transform="matrix(10.5,0,0,10.5,426.4,302.1)" />
<use xlink:href="#f2_54" transform="matrix(10.5,0,0,10.5,457.6,302.1)" />
<use xlink:href="#f2_f" transform="matrix(10.5,0,0,10.5,480.8,311.3)" />
<use xlink:href="#f2_4p" transform="matrix(10.5,0,0,10.5,426.4,316.9)" />
<use xlink:href="#f2_55" transform="matrix(10.5,0,0,10.5,457.6,316.9)" />
<use xlink:href="#f2_4q" transform="matrix(10.5,0,0,10.5,426.4,323.5)" />
<use xlink:href="#f2_56" transform="matrix(10.5,0,0,10.5,457.6,323.5)" />
<use xlink:href="#f1_l" transform="matrix(7.9,0,0,7.9,530.5,291.3)" />
<use xlink:href="#f1_l" transform="matrix(7.9,0,0,7.9,465.7,292)" />
<use xlink:href="#f1_l" transform="matrix(7.9,0,0,7.9,539.1,318.7)" />
<use xlink:href="#f1_w" transform="matrix(10.5,0,0,10.5,553.3,311.3)" />
<use xlink:href="#f3_1z" transform="matrix(10.5,0,0,10.5,436.1,300.9)" />
<use xlink:href="#f3_2k" transform="matrix(10.5,0,0,10.5,445,300.9)" />
<use xlink:href="#f3_1z" transform="matrix(10.5,0,0,10.5,519.3,300.9)" />
<use xlink:href="#f3_2k" transform="matrix(10.5,0,0,10.5,538,300.9)" />
<use xlink:href="#f3_1z" transform="matrix(10.5,0,0,10.5,584.9,300.9)" />
<use xlink:href="#f3_2k" transform="matrix(10.5,0,0,10.5,593.8,300.9)" />
<use xlink:href="#f3_2j" transform="matrix(10.5,0,0,10.5,412.7,311.3)" />
<use xlink:href="#f3_2j" transform="matrix(10.5,0,0,10.5,496.7,311.3)" />
<use xlink:href="#f3_2k" transform="matrix(10.5,0,0,10.5,504.7,311.3)" />
<use xlink:href="#f3_2k" transform="matrix(10.5,0,0,10.5,570.4,311.3)" />
<use xlink:href="#f3_1z" transform="matrix(10.5,0,0,10.5,436.3,326.9)" />
<use xlink:href="#f3_2j" transform="matrix(10.5,0,0,10.5,445.2,326.9)" />
<use xlink:href="#f3_1z" transform="matrix(10.5,0,0,10.5,585,326.9)" />
<use xlink:href="#f3_2j" transform="matrix(10.5,0,0,10.5,593.9,326.9)" />
<use xlink:href="#f3_1z" transform="matrix(10.5,0,0,10.5,520,328.4)" />
<use xlink:href="#f3_2j" transform="matrix(10.5,0,0,10.5,528.9,328.4)" />
<use xlink:href="#f1_b" transform="matrix(10.4,0,0,10.4,68.9,389.3)" />
<use xlink:href="#f1_2h" transform="matrix(10.4,0,0,10.4,74.2,389.3)" />
<use xlink:href="#f1_24" transform="matrix(10.4,0,0,10.4,82.2,389.3)" />
<use xlink:href="#f1_24" transform="matrix(10.4,0,0,10.4,85.8,389.3)" />
<use xlink:href="#f1_24" transform="matrix(10.4,0,0,10.4,89.3,389.3)" />
<use xlink:href="#f1_c" transform="matrix(10.4,0,0,10.4,92.8,389.3)" />
</g>
<path d="M132.6,384.2h29.7m32.5,0h19.8" class="g0_86" />
<g fill="#000000" >
<use xlink:href="#f2_4o" transform="matrix(10.5,0,0,10.5,185,379.2)" />
<use xlink:href="#f2_54" transform="matrix(10.5,0,0,10.5,216.3,379.2)" />
<use xlink:href="#f2_f" transform="matrix(10.5,0,0,10.5,169.5,388.5)" />
<use xlink:href="#f2_x" transform="matrix(10.5,0,0,10.5,241.3,388.5)" />
<use xlink:href="#f2_4p" transform="matrix(10.5,0,0,10.5,185,394.1)" />
<use xlink:href="#f2_55" transform="matrix(10.5,0,0,10.5,216.3,394.1)" />
<use xlink:href="#f2_4q" transform="matrix(10.5,0,0,10.5,185,400.7)" />
<use xlink:href="#f2_56" transform="matrix(10.5,0,0,10.5,216.3,400.7)" />
<use xlink:href="#f1_l" transform="matrix(7.9,0,0,7.9,143.9,368.5)" />
<use xlink:href="#f1_m" transform="matrix(7.9,0,0,7.9,224.5,369.2)" />
<use xlink:href="#f1_l" transform="matrix(7.9,0,0,7.9,152.5,395.9)" />
<use xlink:href="#f1_l" transform="matrix(10.5,0,0,10.5,119.3,388.5)" />
<use xlink:href="#f1_j" transform="matrix(10.5,0,0,10.5,258.5,388.5)" />
<use xlink:href="#f3_1z" transform="matrix(10.5,0,0,10.5,132.7,378.1)" />
<use xlink:href="#f3_2k" transform="matrix(10.5,0,0,10.5,151.5,378.1)" />
<use xlink:href="#f3_1z" transform="matrix(10.5,0,0,10.5,194.8,378.1)" />
<use xlink:href="#f3_2k" transform="matrix(10.5,0,0,10.5,203.7,378.1)" />
<use xlink:href="#f3_1z" transform="matrix(10.5,0,0,10.5,194.9,404.1)" />
<use xlink:href="#f3_2j" transform="matrix(10.5,0,0,10.5,203.8,404.1)" />
<use xlink:href="#f3_1z" transform="matrix(10.5,0,0,10.5,133.3,405.5)" />
<use xlink:href="#f3_2j" transform="matrix(10.5,0,0,10.5,142.2,405.5)" />
<use xlink:href="#f4_p" transform="matrix(10.4,0,0,10.4,70.6,463.6)" />
<use xlink:href="#f4_h" transform="matrix(10.4,0,0,10.4,79.4,463.6)" />
<use xlink:href="#f1_b" transform="matrix(10.4,0,0,10.4,84,463.6)" />
<use xlink:href="#f1_24" transform="matrix(10.4,0,0,10.4,89.3,463.6)" />
<use xlink:href="#f1_c" transform="matrix(10.4,0,0,10.4,92.8,463.6)" />
</g>
<path d="M193.6,459.5h57.2" class="g2_86" />
<g fill="#000000" >
<use xlink:href="#f2_x" transform="matrix(10.6,0,0,10.6,175.9,463.7)" />
<use xlink:href="#f2_f" transform="matrix(10.6,0,0,10.6,258.1,463.7)" />
<use xlink:href="#f1_m" transform="matrix(7.9,0,0,7.9,227.5,443.6)" />
<use xlink:href="#f1_l" transform="matrix(10.7,0,0,10.6,194.4,453.3)" />
<use xlink:href="#f1_2e" transform="matrix(10.7,0,0,10.6,207.3,453.3)" />
<use xlink:href="#f1_24" transform="matrix(10.7,0,0,10.6,215.5,453.3)" />
<use xlink:href="#f1_29" transform="matrix(10.7,0,0,10.6,219.1,453.3)" />
<use xlink:href="#f1_2e" transform="matrix(10.7,0,0,10.6,133.5,463.7)" />
<use xlink:href="#f1_24" transform="matrix(10.7,0,0,10.6,141.6,463.7)" />
<use xlink:href="#f1_29" transform="matrix(10.7,0,0,10.6,145.3,463.7)" />
<use xlink:href="#f1_m" transform="matrix(10.7,0,0,10.6,217.8,479.4)" />
<use xlink:href="#f3_2j" transform="matrix(10.7,0,0,10.6,240.3,453.3)" />
<use xlink:href="#f3_2k" transform="matrix(10.7,0,0,10.6,119.3,463.7)" />
<use xlink:href="#f3_2j" transform="matrix(10.7,0,0,10.6,157.7,463.7)" />
<use xlink:href="#f3_1y" transform="matrix(10.7,0,0,10.6,273,463.7)" />
<use xlink:href="#f1_b" transform="matrix(10.4,0,0,10.4,373.8,463.6)" />
<use xlink:href="#f1_24" transform="matrix(10.4,0,0,10.4,379.1,463.6)" />
<use xlink:href="#f1_24" transform="matrix(10.4,0,0,10.4,382.7,463.6)" />
<use xlink:href="#f1_c" transform="matrix(10.4,0,0,10.4,386.2,463.6)" />
<use xlink:href="#f2_c" transform="matrix(10.4,0,0,14.5,472.2,452.6)" />
<use xlink:href="#f2_d" transform="matrix(10.4,0,0,14.5,564.5,452.6)" />
</g>
<path d="M448.8,459.1H569.9m23.4,0h20.3" class="g1_86" />
<g fill="#000000" >
<use xlink:href="#f2_h" transform="matrix(10.4,0,0,10.4,542,451.2)" />
<use xlink:href="#f2_x" transform="matrix(10.4,0,0,10.4,431,463.3)" />
<use xlink:href="#f2_f" transform="matrix(10.4,0,0,10.4,577,463.3)" />
<use xlink:href="#f1_l" transform="matrix(7.9,0,0,7.8,459.9,441.7)" />
<use xlink:href="#f1_l" transform="matrix(7.9,0,0,7.8,604.5,470.6)" />
<use xlink:href="#f1_n" transform="matrix(10.5,0,0,10.4,478.9,451.2)" />
<use xlink:href="#f1_27" transform="matrix(10.5,0,0,10.4,491.3,451.2)" />
<use xlink:href="#f1_2a" transform="matrix(10.5,0,0,10.4,494.8,451.2)" />
<use xlink:href="#f1_22" transform="matrix(10.5,0,0,10.4,503.7,451.2)" />
<use xlink:href="#f1_k" transform="matrix(10.5,0,0,10.4,556.5,451.2)" />
<use xlink:href="#f1_k" transform="matrix(10.5,0,0,10.4,500,478.7)" />
<use xlink:href="#f1_p" transform="matrix(10.5,0,0,10.4,508.9,478.7)" />
<use xlink:href="#f3_20" transform="matrix(7.9,0,0,7.8,512.1,455.5)" />
<use xlink:href="#f3_2j" transform="matrix(10.5,0,0,10.4,449.7,451.2)" />
<use xlink:href="#f3_2j" transform="matrix(10.5,0,0,10.4,525.6,451.2)" />
<use xlink:href="#f3_1y" transform="matrix(10.5,0,0,10.4,598.3,452.9)" />
<use xlink:href="#f3_2k" transform="matrix(10.5,0,0,10.4,412.7,463.3)" />
<use xlink:href="#f3_2j" transform="matrix(10.5,0,0,10.4,594.3,480.1)" />
<use xlink:href="#f1_b" transform="matrix(10.4,0,0,10.4,77,537.7)" />
<use xlink:href="#f1_24" transform="matrix(10.4,0,0,10.4,82.3,537.7)" />
<use xlink:href="#f1_24" transform="matrix(10.4,0,0,10.4,85.8,537.7)" />
<use xlink:href="#f1_24" transform="matrix(10.4,0,0,10.4,89.4,537.7)" />
<use xlink:href="#f1_c" transform="matrix(10.4,0,0,10.4,92.9,537.7)" />
</g>
<path d="M211.8,533.2h11.5" class="g2_86" />
<g fill="#000000" >
<use xlink:href="#f2_x" transform="matrix(10.5,0,0,10.5,137.8,537.4)" />
<use xlink:href="#f2_f" transform="matrix(10.5,0,0,10.5,195.7,537.4)" />
<use xlink:href="#f2_y" transform="matrix(10.5,0,0,10.5,257,537.4)" />
<use xlink:href="#f1_2e" transform="matrix(10.5,0,0,10.5,155.1,537.4)" />
<use xlink:href="#f1_24" transform="matrix(10.5,0,0,10.5,163.1,537.4)" />
<use xlink:href="#f1_29" transform="matrix(10.5,0,0,10.5,166.7,537.4)" />
<use xlink:href="#f1_f" transform="matrix(10.5,0,0,10.5,227.2,537.4)" />
<use xlink:href="#f1_j" transform="matrix(10.5,0,0,10.5,274.1,537.4)" />
<use xlink:href="#f3_1y" transform="matrix(10.5,0,0,10.5,212.6,527)" />
<use xlink:href="#f3_2k" transform="matrix(10.5,0,0,10.5,119.4,537.4)" />
<use xlink:href="#f3_2j" transform="matrix(10.5,0,0,10.5,179.2,537.4)" />
<use xlink:href="#f3_2j" transform="matrix(10.5,0,0,10.5,238.8,537.4)" />
<use xlink:href="#f3_2j" transform="matrix(10.5,0,0,10.5,213,553)" />
<use xlink:href="#f1_b" transform="matrix(10.4,0,0,10.4,369.2,537.7)" />
<use xlink:href="#f1_24" transform="matrix(10.4,0,0,10.4,374.5,537.7)" />
<use xlink:href="#f1_2h" transform="matrix(10.4,0,0,10.4,378.1,537.7)" />
<use xlink:href="#f1_c" transform="matrix(10.4,0,0,10.4,386.1,537.7)" />
<use xlink:href="#f3_2k" transform="matrix(10.4,0,0,10.4,409.9,537.7)" />
<use xlink:href="#f1_w" transform="matrix(10.4,0,0,10.4,424.8,537.7)" />
<use xlink:href="#f1_2f" transform="matrix(10.4,0,0,10.4,440.9,537.7)" />
<use xlink:href="#f1_1w" transform="matrix(10.4,0,0,10.4,445.3,537.7)" />
<use xlink:href="#f1_29" transform="matrix(10.4,0,0,10.4,454.2,537.7)" />
<use xlink:href="#f3_2j" transform="matrix(10.4,0,0,10.4,469.7,537.7)" />
<use xlink:href="#f1_99" transform="matrix(10.4,0,0,10.4,484.5,537.7)" />
<use xlink:href="#f1_k" transform="matrix(10.4,0,0,10.4,500.2,537.7)" />
<use xlink:href="#f1_e" transform="matrix(10.4,0,0,10.4,515.8,537.7)" />
<use xlink:href="#f3_1y" transform="matrix(10.4,0,0,10.4,531.8,537.7)" />
<use xlink:href="#f3_20" transform="matrix(10.4,0,0,10.4,539.8,537.7)" />
<use xlink:href="#f1_99" transform="matrix(7.4,0,0,7.4,548.7,532.3)" />
<use xlink:href="#f1_2f" transform="matrix(7.4,0,0,7.4,555,532.3)" />
<use xlink:href="#f1_1w" transform="matrix(7.4,0,0,7.4,558.2,532.3)" />
<use xlink:href="#f1_29" transform="matrix(7.4,0,0,7.4,564.5,532.3)" />
<use xlink:href="#f3_2j" transform="matrix(7.4,0,0,7.4,575.5,532.3)" />
<use xlink:href="#f1_b" transform="matrix(10.4,0,0,10.4,79.6,620)" />
<use xlink:href="#f1_2h" transform="matrix(10.4,0,0,10.4,84.9,620)" />
<use xlink:href="#f1_c" transform="matrix(10.4,0,0,10.4,93.1,620)" />
</g>
<path d="M163.3,613.6h20.5" class="g3_86" />
<g fill="#000000" >
<use xlink:href="#f1_n" transform="matrix(8,0,0,7.9,174.7,597.8)" />
<use xlink:href="#f1_n" transform="matrix(10.6,0,0,10.6,169.2,633.6)" />
<use xlink:href="#f2_x" transform="matrix(10.6,0,0,10.6,145.7,617.9)" />
<use xlink:href="#f2_f" transform="matrix(10.6,0,0,10.6,190.9,617.9)" />
<use xlink:href="#f3_2k" transform="matrix(10.6,0,0,10.6,164.3,607.4)" />
<use xlink:href="#f3_2j" transform="matrix(10.6,0,0,10.6,119.4,617.9)" />
<use xlink:href="#f3_2k" transform="matrix(10.6,0,0,10.6,127.5,617.9)" />
<use xlink:href="#f3_1y" transform="matrix(10.6,0,0,10.6,205.9,617.9)" />
<use xlink:href="#f1_b" transform="matrix(10.4,0,0,10.4,369.2,620)" />
<use xlink:href="#f1_2h" transform="matrix(10.4,0,0,10.4,374.5,620)" />
<use xlink:href="#f1_24" transform="matrix(10.4,0,0,10.4,382.8,620)" />
<use xlink:href="#f1_c" transform="matrix(10.4,0,0,10.4,386.3,620)" />
<use xlink:href="#f3_2j" transform="matrix(10.4,0,0,10.4,409.9,620)" />
<use xlink:href="#f1_w" transform="matrix(10.4,0,0,10.4,424.8,620)" />
<use xlink:href="#f1_99" transform="matrix(10.4,0,0,10.4,440.7,620)" />
<use xlink:href="#f3_2k" transform="matrix(10.4,0,0,10.4,456.3,620)" />
<use xlink:href="#f3_l" transform="matrix(7.4,0,0,7.4,464.4,614.7)" />
<use xlink:href="#f3_20" transform="matrix(10.4,0,0,10.4,470.6,620)" />
<use xlink:href="#f3_99" transform="matrix(7.4,0,0,7.4,479.4,614.7)" />
<use xlink:href="#f3_2k" transform="matrix(7.4,0,0,7.4,485.7,614.7)" />
<use xlink:href="#f1_e" transform="matrix(10.4,0,0,10.4,498.1,620)" />
<use xlink:href="#f3_1y" transform="matrix(10.4,0,0,10.4,514.2,620)" />
<use xlink:href="#f3_2k" transform="matrix(10.4,0,0,10.4,522.2,620)" />
<use xlink:href="#f3_l" transform="matrix(7.4,0,0,7.4,530.4,614.7)" />
<use xlink:href="#f4_q" transform="matrix(10.4,0,0,10.4,70.6,688.9)" />
<use xlink:href="#f4_h" transform="matrix(10.4,0,0,10.4,79.4,688.9)" />
<use xlink:href="#f1_b" transform="matrix(10.4,0,0,10.4,84,688.9)" />
<use xlink:href="#f1_24" transform="matrix(10.4,0,0,10.4,89.3,688.9)" />
<use xlink:href="#f1_c" transform="matrix(10.4,0,0,10.4,92.8,688.9)" />
<use xlink:href="#f2_c" transform="matrix(10.6,0,0,11.4,161.6,686.3)" />
<use xlink:href="#f2_d" transform="matrix(10.6,0,0,11.4,211.2,686.3)" />
<use xlink:href="#f2_c" transform="matrix(10.6,0,0,14.1,219.5,689)" />
<use xlink:href="#f2_d" transform="matrix(10.6,0,0,14.1,274.6,689)" />
<use xlink:href="#f2_x" transform="matrix(10.7,0,0,10.7,144.7,688.4)" />
<use xlink:href="#f2_f" transform="matrix(10.7,0,0,10.7,185,688.4)" />
<use xlink:href="#f2_h" transform="matrix(10.7,0,0,10.7,238.5,688.4)" />
<use xlink:href="#f1_l" transform="matrix(10.7,0,0,10.7,200.8,688.4)" />
<use xlink:href="#f1_k" transform="matrix(10.7,0,0,10.7,225.6,688.4)" />
<use xlink:href="#f1_l" transform="matrix(10.7,0,0,10.7,254,688.4)" />
<use xlink:href="#f3_1y" transform="matrix(10.7,0,0,10.7,118.3,688.4)" />
<use xlink:href="#f3_2k" transform="matrix(10.7,0,0,10.7,126.5,688.4)" />
<use xlink:href="#f3_2j" transform="matrix(10.7,0,0,10.7,168.8,688.4)" />
<use xlink:href="#f3_2k" transform="matrix(10.7,0,0,10.7,263.4,688.4)" />
<use xlink:href="#f1_b" transform="matrix(10.4,0,0,10.4,373.8,688.9)" />
<use xlink:href="#f1_24" transform="matrix(10.4,0,0,10.4,379.1,688.9)" />
<use xlink:href="#f1_24" transform="matrix(10.4,0,0,10.4,382.7,688.9)" />
<use xlink:href="#f1_c" transform="matrix(10.4,0,0,10.4,386.2,688.9)" />
<use xlink:href="#f2_c" transform="matrix(10.5,0,0,16.3,412,684)" />
<use xlink:href="#f2_d" transform="matrix(10.5,0,0,16.3,470.4,684)" />
<use xlink:href="#f2_f" transform="matrix(10.5,0,0,10.5,444.4,687.3)" />
<use xlink:href="#f2_x" transform="matrix(10.5,0,0,10.5,527.8,687.3)" />
<use xlink:href="#f1_l" transform="matrix(10.5,0,0,10.5,460.2,687.3)" />
<use xlink:href="#f1_2e" transform="matrix(10.5,0,0,10.5,479.6,687.3)" />
<use xlink:href="#f1_20" transform="matrix(10.5,0,0,10.5,487.7,687.3)" />
<use xlink:href="#f1_1y" transform="matrix(10.5,0,0,10.5,496.6,687.3)" />
<use xlink:href="#f3_2j" transform="matrix(7.9,0,0,7.9,428.6,677.7)" />
<use xlink:href="#f3_20" transform="matrix(10.5,0,0,10.5,418.2,687.3)" />
<use xlink:href="#f3_2k" transform="matrix(10.5,0,0,10.5,509.4,687.3)" />
<use xlink:href="#f3_1y" transform="matrix(10.5,0,0,10.5,544.3,687.3)" />
<use xlink:href="#f1_b" transform="matrix(10.4,0,0,10.4,77,742.4)" />
<use xlink:href="#f1_24" transform="matrix(10.4,0,0,10.4,82.3,742.4)" />
<use xlink:href="#f1_24" transform="matrix(10.4,0,0,10.4,85.8,742.4)" />
<use xlink:href="#f1_24" transform="matrix(10.4,0,0,10.4,89.4,742.4)" />
<use xlink:href="#f1_c" transform="matrix(10.4,0,0,10.4,92.9,742.4)" />
</g>
<path d="M119.8,736.7l1.5,-1.3l4,8.8l4.2,-23h47.4" class="g4_86" />
<path fill-rule="evenodd" d="M119.6,736.5l2.1,-1.6l3.6,7.2l3.9,-21.3h47.7v.8h-47l-4.2,22.6h-.8l-4,-8.1l-1,.8l-.3,-.4Z" class="g5_86" />
<path d="M200.5,739l1.5,-1.4l4,10.1l4.2,-26.5h47.7" class="g4_86" />
<path fill-rule="evenodd" d="M200.3,738.9l2.1,-1.9l3.6,8.3l3.9,-24.5h48v.8H210.6l-4.2,26.1h-.8l-4,-9.4l-.9,.9l-.4,-.3Z" class="g5_86" />
<g fill="#000000" >
<use xlink:href="#f2_h" transform="matrix(10.5,0,0,10.4,141.9,743.1)" />
<use xlink:href="#f2_f" transform="matrix(10.5,0,0,10.4,184.2,743.1)" />
<use xlink:href="#f2_h" transform="matrix(10.5,0,0,10.4,222.7,743.1)" />
<use xlink:href="#f2_x" transform="matrix(10.5,0,0,10.4,266.9,743.1)" />
<use xlink:href="#f1_l" transform="matrix(7.9,0,0,7.8,167.9,733.6)" />
<use xlink:href="#f1_l" transform="matrix(7.9,0,0,7.8,248.9,733.6)" />
<use xlink:href="#f1_k" transform="matrix(10.4,0,0,10.4,128.9,743.1)" />
<use xlink:href="#f1_k" transform="matrix(10.4,0,0,10.4,209.7,743.1)" />
<use xlink:href="#f3_2j" transform="matrix(10.4,0,0,10.4,157.6,743.1)" />
<use xlink:href="#f3_2k" transform="matrix(10.4,0,0,10.4,238.4,743.1)" />
<use xlink:href="#f3_1y" transform="matrix(10.4,0,0,10.4,283.3,743.1)" />
<use xlink:href="#f1_b" transform="matrix(10.4,0,0,10.4,75.9,810.5)" />
<use xlink:href="#f1_24" transform="matrix(10.4,0,0,10.4,81.2,810.5)" />
<use xlink:href="#f1_2h" transform="matrix(10.4,0,0,10.4,84.7,810.5)" />
<use xlink:href="#f1_c" transform="matrix(10.4,0,0,10.4,92.7,810.5)" />
</g>
<path d="M119.7,805.5h10.2" class="g6_86" />
<path d="M165.2,794.6l1.5,-1.5l4,10.2L175,776.6h47.7" class="g4_86" />
<path fill-rule="evenodd" d="M165.1,794.4l2.1,-1.9l3.5,8.4l4,-24.7h48v.8H175.3l-4.2,26.3h-.8l-3.9,-9.5l-1,1l-.3,-.4Z" class="g5_86" />
<path d="M165.1,826.2l1.5,-1.5l4,10.2l4.2,-26.7h47.7" class="g4_86" />
<path fill-rule="evenodd" d="M164.9,826l2.1,-1.9l3.6,8.4l3.9,-24.7h48v.8H175.2l-4.3,26.3h-.7l-4,-9.4l-.9,.9l-.4,-.4Z" class="g5_86" />
<path d="M163.7,805.5h87.7M160.2,775.1V836m94.4,-60.9V836" class="g6_86" />
<path d="M282.1,803.3l1.5,-1.2l4,8.8l4.2,-23.2h47.5" class="g4_86" />
<path fill-rule="evenodd" d="M281.9,803.2l2.2,-1.7l3.5,7.3l4,-21.4h47.7v.7H292.2L288,810.9h-.8l-4,-8.2l-1,.8l-.3,-.3Z" class="g5_86" />
<path d="M362.6,805.7l1.6,-1.4l3.9,10.1l4.3,-26.7h47.7" class="g4_86" />
<path fill-rule="evenodd" d="M362.5,805.5l2.1,-1.9l3.5,8.4l4,-24.6h48v.7H372.7l-4.2,26.3h-.7l-4,-9.4l-1,.9l-.3,-.4Z" class="g5_86" />
<g fill="#000000" >
<use xlink:href="#f2_h" transform="matrix(10.5,0,0,10.5,187.4,798.7)" />
<use xlink:href="#f2_h" transform="matrix(10.5,0,0,10.5,229.9,798.7)" />
<use xlink:href="#f2_x" transform="matrix(10.5,0,0,10.5,264.3,809.8)" />
<use xlink:href="#f2_h" transform="matrix(10.5,0,0,10.5,304.3,809.8)" />
<use xlink:href="#f2_h" transform="matrix(10.5,0,0,10.5,346.6,809.8)" />
<use xlink:href="#f2_h" transform="matrix(10.5,0,0,10.5,384.9,809.8)" />
<use xlink:href="#f2_f" transform="matrix(10.5,0,0,10.5,427.4,809.8)" />
<use xlink:href="#f2_h" transform="matrix(10.5,0,0,10.5,187.2,830.3)" />
<use xlink:href="#f2_f" transform="matrix(10.5,0,0,10.5,229.8,830.3)" />
<use xlink:href="#f1_l" transform="matrix(7.9,0,0,7.9,213.5,789.1)" />
<use xlink:href="#f1_l" transform="matrix(7.9,0,0,7.9,330.2,800.2)" />
<use xlink:href="#f1_l" transform="matrix(7.9,0,0,7.9,411,800.2)" />
<use xlink:href="#f1_l" transform="matrix(7.9,0,0,7.9,213.4,820.7)" />
<use xlink:href="#f1_k" transform="matrix(10.5,0,0,10.5,174.4,798.7)" />
<use xlink:href="#f1_k" transform="matrix(10.5,0,0,10.5,244.4,798.7)" />
<use xlink:href="#f1_k" transform="matrix(10.5,0,0,10.5,121.2,799.4)" />
<use xlink:href="#f1_27" transform="matrix(10.5,0,0,10.5,134.1,809.8)" />
<use xlink:href="#f1_2a" transform="matrix(10.5,0,0,10.5,137.6,809.8)" />
<use xlink:href="#f1_22" transform="matrix(10.5,0,0,10.5,146.6,809.8)" />
<use xlink:href="#f1_k" transform="matrix(10.5,0,0,10.5,291.3,809.8)" />
<use xlink:href="#f1_k" transform="matrix(10.5,0,0,10.5,371.9,809.8)" />
<use xlink:href="#f1_l" transform="matrix(10.5,0,0,10.5,120.4,825.4)" />
<use xlink:href="#f1_k" transform="matrix(10.5,0,0,10.5,174.3,830.3)" />
<use xlink:href="#f1_k" transform="matrix(10.5,0,0,10.5,244.5,830.3)" />
<use xlink:href="#f3_2k" transform="matrix(10.5,0,0,10.5,203.1,798.7)" />
<use xlink:href="#f3_2j" transform="matrix(10.5,0,0,10.5,320,809.8)" />
<use xlink:href="#f3_2k" transform="matrix(10.5,0,0,10.5,400.6,809.8)" />
<use xlink:href="#f3_1y" transform="matrix(10.5,0,0,10.5,442.4,809.8)" />
<use xlink:href="#f3_2k" transform="matrix(10.5,0,0,10.5,203,830.3)" />
<use xlink:href="#f1_b" transform="matrix(10.4,0,0,10.4,79.6,883.8)" />
<use xlink:href="#f1_2h" transform="matrix(10.4,0,0,10.4,84.9,883.8)" />
<use xlink:href="#f1_c" transform="matrix(10.4,0,0,10.4,93.1,883.8)" />
<use xlink:href="#f2_c" transform="matrix(10.4,0,0,16,118.9,882.3)" />
<use xlink:href="#f2_d" transform="matrix(10.4,0,0,16,173.8,882.4)" />
<use xlink:href="#f2_c" transform="matrix(10.4,0,0,18.7,182.3,885.1)" />
<use xlink:href="#f2_d" transform="matrix(10.4,0,0,18.7,237.6,885.2)" />
<use xlink:href="#f2_f" transform="matrix(10.5,0,0,10.4,151.2,885.9)" />
<use xlink:href="#f2_f" transform="matrix(10.5,0,0,10.4,215.1,885.9)" />
<use xlink:href="#f2_x" transform="matrix(10.5,0,0,10.4,251,885.9)" />
<use xlink:href="#f1_l" transform="matrix(7.8,0,0,7.8,136,876.4)" />
<use xlink:href="#f1_l" transform="matrix(7.8,0,0,7.8,200,876.4)" />
<use xlink:href="#f1_k" transform="matrix(10.4,0,0,10.4,165.9,885.9)" />
<use xlink:href="#f1_k" transform="matrix(10.4,0,0,10.4,229.8,885.9)" />
<use xlink:href="#f1_l" transform="matrix(10.4,0,0,10.4,268.2,885.9)" />
<use xlink:href="#f3_2j" transform="matrix(10.4,0,0,10.4,125.9,885.9)" />
<use xlink:href="#f3_2k" transform="matrix(10.4,0,0,10.4,189.5,885.9)" />
<use xlink:href="#f5_s" transform="matrix(12,0,0,12,673.3,1070.2)" />
</g>
<g fill="#0080FF" fill-opacity="0.5" >
<use xlink:href="#f0_1c" transform="matrix(38.3,0,0,38.3,183.6,1079.4)" />
<use xlink:href="#f0_21" transform="matrix(38.3,0,0,38.3,216.1,1079.4)" />
<use xlink:href="#f0_1x" transform="matrix(38.3,0,0,38.3,248.6,1079.4)" />
<use xlink:href="#f0_2e" transform="matrix(38.3,0,0,38.3,281.1,1079.4)" />
<use xlink:href="#f0_2a" transform="matrix(38.3,0,0,38.3,300.6,1079.4)" />
<use xlink:href="#f0_17" transform="matrix(38.3,0,0,38.3,333.1,1079.4)" />
<use xlink:href="#f0_2h" transform="matrix(38.3,0,0,38.3,378.6,1079.4)" />
<use xlink:href="#f0_25" transform="matrix(38.3,0,0,38.3,411.1,1079.4)" />
<use xlink:href="#f0_20" transform="matrix(38.3,0,0,38.3,424,1079.4)" />
<use xlink:href="#f0_21" transform="matrix(38.3,0,0,38.3,456.5,1079.4)" />
<use xlink:href="#f0_i" transform="matrix(38.3,0,0,38.3,489.1,1079.4)" />
<use xlink:href="#f0_25" transform="matrix(38.3,0,0,38.3,505.3,1079.4)" />
<use xlink:href="#f0_2a" transform="matrix(38.3,0,0,38.3,518.3,1079.4)" />
</g>
<defs>
<path d="M593,101c0,0,182,0,279,112c0,0,98,113,98,318c0,0,0,196,-98,308c0,0,-98,112,-277,112c0,0,-181,0,-279,-110c0,0,-99,-111,-99,-310c0,0,0,-198,100,-314c0,0,99,-116,276,-116Zm0,-115c0,0,-162,0,-279,65c0,0,-118,66,-180,190c0,0,-62,124,-62,290c0,0,0,252,138,394c0,0,138,142,385,142c0,0,160,0,278,-64c0,0,118,-64,180,-185c0,0,62,-122,62,-287c0,0,0,-165,-63,-289c0,0,-63,-124,-181,-190c0,0,-118,-66,-278,-66Z" 
id="f0_1f"
transform="scale(0.001,-0.001)" />

<path d="M106,0V635c0,0,0,141,-5,173H228c0,0,1,-4,2,-21c0,0,1,-16,2,-37c0,0,1,-22,2,-81h2c0,0,47,84,108,119c0,0,60,34,151,34c0,0,132,0,194,-66c0,0,61,-66,61,-218V0H615V512c0,0,0,80,-15,124c0,0,-16,44,-50,63c0,0,-35,20,-101,20c0,0,-97,0,-153,-67c0,0,-56,-66,-56,-184V0Z" 
id="f0_2a"
transform="scale(0.001,-0.001)" />

<path d="M103,0V1107H237V0Z" 
id="f0_28"
transform="scale(0.001,-0.001)" />

<path d="M102,0V808H236V0Zm0,979v128H236V979Z" 
id="f0_25"
transform="scale(0.001,-0.001)" />

<path d="M643,478c0,0,-11,128,-65,187c0,0,-54,59,-154,59c0,0,-98,0,-155,-66c0,0,-57,-65,-62,-180ZM431,-14c0,0,-179,0,-272,106c0,0,-94,107,-94,317c0,0,0,200,94,307c0,0,93,106,267,106c0,0,356,0,356,-429V375H206c0,0,0,-138,57,-213c0,0,58,-75,168,-75c0,0,87,0,140,35c0,0,53,35,71,88L760,177c0,0,-72,-191,-329,-191Z" 
id="f0_21"
transform="scale(0.001,-0.001)" />

<path d="M17,0L304,415L31,808H179L380,493L580,808H730L457,417L747,0H598L380,331L162,0Z" 
id="f0_2k"
transform="scale(0.001,-0.001)" />

<path d="M339,87c0,0,74,0,132,34c0,0,57,33,90,91c0,0,34,59,34,121v66L448,396c0,0,-95,-2,-144,-19c0,0,-49,-18,-75,-55c0,0,-26,-38,-26,-98c0,0,0,-65,35,-101c0,0,36,-36,101,-36ZM309,-14c0,0,-122,0,-183,64c0,0,-61,64,-61,176c0,0,0,125,82,192c0,0,83,67,266,72l182,3v44c0,0,0,98,-42,141c0,0,-42,43,-132,43c0,0,-90,0,-131,-31c0,0,-41,-31,-49,-98L101,604c0,0,34,218,323,218c0,0,153,0,229,-70c0,0,77,-69,77,-202V202c0,0,0,-59,16,-90c0,0,16,-30,60,-30c0,0,19,0,44,5V4C850,4,799,-7,746,-7c0,0,-75,0,-109,38c0,0,-33,40,-38,124h-4C595,155,543,62,475,24c0,0,-68,-38,-166,-38Z" 
id="f0_1x"
transform="scale(0.001,-0.001)" />

<path d="M106,0V635c0,0,0,141,-5,173H228c0,0,1,-4,2,-21c0,0,1,-16,2,-37c0,0,1,-22,2,-81h2c0,0,44,86,100,120c0,0,56,33,136,33c0,0,92,0,145,-36c0,0,54,-37,75,-117h2c0,0,42,82,101,117c0,0,59,36,143,36c0,0,123,0,178,-66c0,0,56,-67,56,-218V0H1039V512c0,0,0,117,-32,162c0,0,-32,45,-116,45c0,0,-88,0,-136,-66c0,0,-49,-65,-49,-185V0H573V512c0,0,0,117,-32,162c0,0,-32,45,-116,45c0,0,-86,0,-136,-66c0,0,-50,-66,-50,-185V0Z" 
id="f0_29"
transform="scale(0.001,-0.001)" />

<path d="M453,84c0,0,100,0,146,74c0,0,46,73,46,247c0,0,0,169,-46,241c0,0,-45,73,-145,73c0,0,-80,0,-125,-34c0,0,-45,-34,-68,-105c0,0,-24,-71,-24,-186c0,0,0,-159,51,-234c0,0,51,-76,165,-76ZM103,-316V643c0,0,0,124,-5,165H228c0,0,1,-3,3,-22c0,0,1,-18,3,-56c0,0,2,-38,2,-52h3c0,0,36,75,94,110c0,0,59,34,156,34c0,0,149,0,223,-100c0,0,74,-100,74,-314c0,0,0,-422,-297,-422c0,0,-187,0,-251,140h-4c0,0,3,-6,3,-126V-316Z" 
id="f0_2c"
transform="scale(0.001,-0.001)" />

<path d="M420,84c0,0,121,0,173,78c0,0,52,77,52,243c0,0,0,167,-50,243c0,0,-50,76,-167,76c0,0,-118,0,-170,-78c0,0,-53,-77,-53,-241c0,0,0,-160,52,-241c0,0,52,-80,163,-80Zm1,-98c0,0,-176,0,-267,107c0,0,-90,108,-90,312c0,0,0,417,362,417c0,0,185,0,272,-102c0,0,88,-101,88,-315c0,0,0,-212,-94,-316C692,89,599,-14,421,-14Z" 
id="f0_2b"
transform="scale(0.001,-0.001)" />

<path d="M278,-11c0,0,-162,0,-162,182V710H23v98h99l39,181h90V808H400V710H251V200c0,0,0,-58,19,-82c0,0,19,-23,66,-23c0,0,27,0,77,10V6c0,0,-66,-17,-135,-17Z" 
id="f0_2g"
transform="scale(0.001,-0.001)" />

<path d="M365,-315c0,0,-136,187,-199,359c0,0,-62,172,-62,359c0,0,0,186,62,358c0,0,63,172,199,360h92c0,0,-110,-192,-160,-365c0,0,-51,-172,-51,-353c0,0,0,-183,51,-355c0,0,50,-172,160,-363Z" 
id="f1_b"
transform="scale(0.001,-0.001)" />

<path d="M310,0L12,799H168L383,145L604,799H752L454,0Z" 
id="f1_2h"
transform="scale(0.001,-0.001)" />

<path d="M104,0V799H238V0Zm-2,946v152H239V946Z" 
id="f1_24"
transform="scale(0.001,-0.001)" />

<path d="M52,-315c0,0,109,192,160,363c0,0,50,173,50,354c0,0,0,183,-50,355c0,0,-51,173,-160,364h92c0,0,135,-188,198,-360c0,0,63,-172,63,-359c0,0,0,-187,-63,-359c0,0,-63,-171,-198,-358Z" 
id="f1_c"
transform="scale(0.001,-0.001)" />

<path d="M406,0V763H155V870h2c16,0,114,2,178,48c0,0,70,51,104,157H549V0Z" 
id="f1_k"
transform="scale(0.001,-0.001)" />

<path d="M292,-9c0,0,-88,0,-124,38c0,0,-36,39,-36,134V689H22V799H132v224H266V799H392V689H266V163c0,0,0,-27,21,-43c0,0,21,-15,57,-15h48V1C392,1,324,-9,292,-9Z" 
id="f1_2f"
transform="scale(0.001,-0.001)" />

<path d="M335,90c0,0,106,0,179,57c0,0,50,41,67,91c0,0,3,10,4,31c0,0,3,21,3,47v87c0,0,-38,-18,-83,-25L381,360c0,0,-97,-13,-142,-45c0,0,-44,-31,-44,-86c0,0,0,-67,36,-103c0,0,37,-36,104,-36ZM309,-20c0,0,-117,0,-186,61c0,0,-68,63,-68,169c0,0,0,108,64,171c0,0,65,64,189,79l183,23c0,0,22,3,42,8c0,0,26,7,40,27c0,0,15,20,15,51v6c0,0,0,64,-49,101c0,0,-48,36,-135,36c0,0,-83,0,-130,-38c0,0,-46,-39,-56,-115H94c0,0,10,131,92,197c0,0,83,66,238,66c0,0,145,0,222,-63c0,0,76,-63,76,-184V137c0,0,0,-21,12,-33c0,0,12,-12,33,-12c0,0,6,0,18,1c0,0,11,2,25,5V1c0,0,-20,-7,-41,-11c0,0,-22,-5,-37,-5c0,0,-76,0,-110,41c0,0,-22,28,-32,79c0,0,-15,-19,-34,-36c0,0,-101,-89,-247,-89Z" 
id="f1_1w"
transform="scale(0.001,-0.001)" />

<path d="M99,0V799H226V681l30,39c0,0,87,102,219,102c0,0,132,0,203,-71c0,0,72,-72,72,-204V0H616V502c0,0,0,105,-41,151c0,0,-40,47,-132,47c0,0,-97,0,-154,-73c0,0,-56,-74,-56,-199V0Z" 
id="f1_29"
transform="scale(0.001,-0.001)" />

<path d="M0,356v74H784V356Z" 
id="f2_h"
transform="scale(0.001,-0.001)" />

<path d="M17,0L389,412L201,800H376L500,518L742,800H904L554,410L750,0H580L448,303L187,0Z" 
id="f3_2j"
transform="scale(0.001,-0.001)" />

<path d="M748,462c0,0,3,31,3,63c0,0,0,86,-45,132c0,0,-46,45,-134,45c0,0,-100,0,-180,-85c0,0,-58,-63,-90,-155ZM419,-20c0,0,-136,0,-213,73c0,0,-77,74,-78,206c0,0,0,25,4,58c0,0,4,32,10,63c0,0,44,208,169,326c0,0,125,117,305,117c0,0,128,0,198,-73c0,0,71,-73,71,-207c0,0,1,-100,-24,-189H278l-4,-25c0,0,-3,-30,-3,-55c0,0,0,-90,44,-134c0,0,44,-45,133,-45c0,0,87,0,156,44c0,0,68,45,95,117H830C830,256,782,126,674,52c0,0,-108,-72,-255,-72Z" 
id="f3_20"
transform="scale(0.001,-0.001)" />

<path d="M471,410V862L208,425l-9,-15ZM471,0V240H41V425l402,662H682V410H804V240H682V0Z" 
id="f4_n"
transform="scale(0.001,-0.001)" />

<path d="M98,0V222H327V0Z" 
id="f4_h"
transform="scale(0.001,-0.001)" />

<path d="M39,0V0c0,0,0,170,84,277c0,0,85,108,317,236c0,0,113,62,154,115c0,0,41,52,41,134c0,0,0,86,-62,141c0,0,-61,54,-156,54c0,0,-101,0,-158,-68c0,0,-57,-68,-60,-194H67c0,0,-2,178,95,279c0,0,98,101,273,101c0,0,149,0,245,-89c0,0,94,-88,94,-228c0,0,0,-118,-60,-195c0,0,-61,-76,-229,-169C485,394,303,294,237,212c0,0,-28,-36,-46,-81H774V0Z" 
id="f1_l"
transform="scale(0.001,-0.001)" />

<path d="M391,-27c0,0,-145,0,-240,84c0,0,-94,85,-110,231H256c0,0,8,-72,48,-110c0,0,39,-37,108,-37c0,0,70,0,113,54c0,0,43,55,43,144c0,0,0,91,-44,147c0,0,-44,56,-115,56c0,0,-45,0,-84,-20c0,0,-38,-20,-59,-55L78,476l71,591H743V886H303L266,655c0,0,89,56,193,56c0,0,145,0,237,-99c0,0,92,-98,92,-253c0,0,0,-178,-107,-283C681,76,574,-27,391,-27Z" 
id="f4_o"
transform="scale(0.001,-0.001)" />

<path d="M355,0V355H0v72H355V784h72V427H782V355H427V0Z" 
id="f2_f"
transform="scale(0.001,-0.001)" />

<path d="M0,214v74H784V214ZM0,494v72H784V494Z" 
id="f2_x"
transform="scale(0.001,-0.001)" />

<path d="M424,92c0,0,114,0,170,107c0,0,57,108,56,323c0,0,1,216,-56,324c0,0,-56,107,-170,107c0,0,-112,0,-168,-107c0,0,-56,-108,-57,-324c0,0,1,-215,57,-323c0,0,56,-107,168,-107Zm0,-120c0,0,-176,0,-271,142c0,0,-96,143,-96,408c0,0,0,265,96,409c0,0,95,144,271,144c0,0,178,0,273,-144c0,0,96,-144,96,-409c0,0,0,-265,-96,-408c0,0,-95,-142,-273,-142Z" 
id="f1_j"
transform="scale(0.001,-0.001)" />

<path d="M431,94c0,0,95,0,170,76c0,0,76,77,101,198c0,0,35,167,-1,250c0,0,-37,84,-144,84c0,0,-128,0,-210,-117c0,0,-81,-117,-81,-302c0,0,0,-90,43,-139c0,0,44,-50,122,-50ZM400,-20c0,0,-126,0,-199,79c0,0,-73,80,-73,219c0,0,0,234,122,390c0,0,122,155,305,155c0,0,144,0,209,-127l8,-16l86,417H993L767,0H638l22,108L642,90C642,90,532,-20,400,-20Z" 
id="f3_1z"
transform="scale(0.001,-0.001)" />

<path d="M99,-328c0,0,-46,0,-76,13l25,123c0,0,29,-14,81,-14c0,0,47,0,76,31c0,0,28,31,106,162L185,800H339L415,141L769,800H918L456,0C456,0,329,-216,269,-272c0,0,-61,-56,-170,-56Z" 
id="f3_2k"
transform="scale(0.001,-0.001)" />

<path d="M62,-123V268c0,0,0,230,56,452c0,0,47,190,134,334c0,0,87,144,204,242c0,0,85,73,194,119l18,-16c0,0,-211,-145,-335,-339c0,0,-98,-156,-149,-374c0,0,-50,-218,-50,-403V-123Z" 
id="f2_4o"
transform="scale(0.001,-0.001)" />

<path d="M617,-123V283c0,0,0,236,-63,459c0,0,-63,223,-188,392c0,0,-108,146,-282,265l17,16c0,0,180,-76,320,-248c0,0,139,-172,204,-417c0,0,64,-245,64,-482V-123Z" 
id="f2_54"
transform="scale(0.001,-0.001)" />

<path d="M62,-123V1415h72V-123Z" 
id="f2_4p"
transform="scale(0.001,-0.001)" />

<path d="M617,-123V1415h72V-123Z" 
id="f2_55"
transform="scale(0.001,-0.001)" />

<path d="M650,-123c0,0,-180,75,-319,246c0,0,-140,172,-205,418c0,0,-64,245,-64,481v393h72V1007c0,0,0,-236,63,-459c0,0,63,-223,189,-391c0,0,108,-145,282,-265l-18,-15Z" 
id="f2_4q"
transform="scale(0.001,-0.001)" />

<path d="M101,-123l-17,15c0,0,210,144,334,339c0,0,99,156,149,373c0,0,50,218,50,403v408h72V1022c0,0,0,-230,-56,-451c0,0,-48,-191,-134,-335C499,236,412,92,295,-5c0,0,-84,-73,-194,-118Z" 
id="f2_56"
transform="scale(0.001,-0.001)" />

<path d="M60,174V286H832V174Zm0,309V595H832V483Z" 
id="f1_w"
transform="scale(0.001,-0.001)" />

<path d="M424,-28c0,0,-180,0,-272,86c0,0,-92,87,-100,266H192c0,0,12,-126,66,-180c0,0,55,-54,170,-54c0,0,100,0,163,57c0,0,64,57,64,147c0,0,0,94,-61,149c0,0,-52,48,-135,54c0,0,-38,2,-72,2c0,0,-34,0,-45,-3V613c0,0,17,-3,51,-3c0,0,35,0,68,4c0,0,66,8,106,43c0,0,55,45,55,125c0,0,0,77,-58,125c0,0,-58,48,-148,48c0,0,-96,0,-147,-58c0,0,-51,-59,-56,-175H82c0,0,0,168,89,260c0,0,88,93,250,93c0,0,153,0,247,-77c0,0,94,-76,94,-202c0,0,0,-124,-95,-201c0,0,-18,-15,-39,-27c0,0,39,-17,69,-41c0,0,101,-79,101,-214c0,0,0,-151,-105,-246c0,0,-104,-95,-269,-95Z" 
id="f1_m"
transform="scale(0.001,-0.001)" />

<path d="M420,143c0,0,79,0,120,51c0,0,41,51,41,149c0,0,0,85,-44,137c0,0,-44,52,-117,52c0,0,-72,0,-116,-52c0,0,-44,-52,-44,-137c0,0,0,-86,46,-143c0,0,46,-57,114,-57Zm0,-170c0,0,-183,0,-278,136c0,0,-95,138,-95,403c0,0,0,291,105,438c0,0,98,138,283,138h23c0,0,135,0,221,-79c0,0,87,-78,92,-205H560c0,0,1,50,-29,81c0,0,-30,30,-81,30h-9c-3,0,-97,-1,-141,-92c0,0,-36,-72,-44,-211c0,0,87,91,209,91c0,0,145,0,237,-100c0,0,92,-99,92,-255c0,0,0,-166,-105,-271C689,77,584,-27,420,-27Z" 
id="f4_p"
transform="scale(0.001,-0.001)" />

<path d="M393,-20c0,0,-169,0,-252,65c0,0,-83,67,-92,210H178c0,0,10,-85,61,-123c0,0,50,-38,154,-38c0,0,90,0,136,34c0,0,47,35,47,100c0,0,0,42,-31,64c0,0,-30,21,-123,43L283,368c0,0,-112,27,-160,75c0,0,-48,48,-48,135c0,0,0,112,80,178c0,0,81,66,218,66c0,0,140,0,222,-68c0,0,82,-67,88,-187H557c0,0,-6,67,-55,103c0,0,-48,37,-129,37c0,0,-84,0,-127,-29c0,0,-44,-29,-44,-85c0,0,0,-43,31,-65c0,0,30,-21,121,-43L493,452c0,0,117,-28,167,-78c0,0,49,-49,49,-138c0,0,0,-119,-86,-188c0,0,-85,-68,-230,-68Z" 
id="f1_2e"
transform="scale(0.001,-0.001)" />

<path d="M398,-20c0,0,-133,0,-209,72c0,0,-76,74,-76,202v3c0,0,0,27,4,60c0,0,4,33,10,63c0,0,43,208,168,326c0,0,126,117,306,117c0,0,131,0,192,-75c0,0,49,-61,50,-168l-3,-52H710c0,0,4,87,-33,131c0,0,-37,45,-113,45c0,0,-110,0,-184,-81c0,0,-75,-82,-107,-238c0,0,-6,-28,-9,-56c0,0,-3,-28,-3,-50c0,0,0,-88,43,-136c0,0,43,-48,121,-48c0,0,76,0,137,49c0,0,61,48,92,136H788C788,280,737,138,633,58c0,0,-103,-78,-235,-78Z" 
id="f3_1y"
transform="scale(0.001,-0.001)" />

<path d="M412,-328c0,0,-195,96,-303,284C109,-44,0,142,0,365c0,0,0,232,114,422c0,0,114,191,298,273v-31c0,0,-92,-51,-151,-139c0,0,-59,-88,-88,-223c0,0,-29,-136,-29,-282c0,0,0,-167,27,-301c0,0,26,-133,82,-221c0,0,55,-89,159,-159v-32Z" 
id="f2_c"
transform="scale(0.001,-0.001)" />

<path d="M34,-328v32c0,0,92,50,151,138c0,0,59,88,88,222c0,0,29,135,29,283c0,0,0,165,-27,300c0,0,-26,134,-82,222c0,0,-56,89,-159,160v31c0,0,194,-96,303,-284c0,0,108,-187,108,-410c0,0,0,-232,-114,-422c0,0,-114,-191,-297,-272Z" 
id="f2_d"
transform="scale(0.001,-0.001)" />

<path d="M511,373V863L169,383l-7,-10ZM511,0V258H38V383l496,691H646V373H799V258H646V0Z" 
id="f1_n"
transform="scale(0.001,-0.001)" />

<path d="M103,0V1097H237V0Z" 
id="f1_27"
transform="scale(0.001,-0.001)" />

<path d="M424,94c0,0,107,0,169,83c0,0,63,83,63,223c0,0,0,140,-63,224c0,0,-62,83,-169,83c0,0,-106,0,-168,-83c0,0,-62,-84,-62,-224c0,0,0,-140,62,-223c0,0,62,-83,168,-83Zm0,-114c0,0,-165,0,-268,115C156,95,54,211,54,400c0,0,0,189,102,306c0,0,103,116,268,116c0,0,168,0,270,-116c0,0,102,-117,102,-306c0,0,0,-189,-102,-305C694,95,592,-20,424,-20Z" 
id="f1_2a"
transform="scale(0.001,-0.001)" />

<path d="M418,95c0,0,98,0,158,73c0,0,59,73,59,193c0,0,0,170,-54,254c0,0,-54,85,-163,85c0,0,-113,0,-165,-72c0,0,-52,-71,-52,-227c0,0,0,-147,57,-227c0,0,56,-79,160,-79ZM394,-336c0,0,-136,0,-216,62c0,0,-79,63,-96,182H219c0,0,12,-64,57,-98c0,0,45,-35,116,-35c0,0,116,0,176,73c0,0,61,73,61,211V85l-1,-1C628,84,545,-20,412,-20c0,0,-161,0,-256,118c0,0,-94,120,-94,324c0,0,0,179,93,290c0,0,93,110,244,110c0,0,144,0,228,-124l10,-14V799H763V59c0,0,-1,-201,-91,-298c0,0,-91,-97,-278,-97Z" 
id="f1_22"
transform="scale(0.001,-0.001)" />

<path d="M432,92c0,0,96,0,156,66c0,0,61,65,61,169c0,0,0,103,-61,169c0,0,-60,66,-156,66c0,0,-95,0,-156,-66c0,0,-61,-66,-61,-169c0,0,0,-104,61,-169c0,0,61,-66,156,-66ZM425,-28c0,0,-176,0,-271,135c0,0,-95,136,-95,388c0,0,0,278,103,429c0,0,103,151,293,151c0,0,142,0,226,-77c0,0,84,-76,90,-211H638c0,0,-8,80,-56,123c0,0,-47,43,-127,43c0,0,-125,0,-192,-119c0,0,-58,-102,-64,-278c0,0,100,127,255,127c0,0,152,0,245,-98c0,0,93,-98,93,-258c0,0,0,-161,-101,-259c0,0,-101,-96,-266,-96Z" 
id="f1_p"
transform="scale(0.001,-0.001)" />

<path d="M45,0V81L673,391L45,704v80L795,412V374L45,0Z" 
id="f2_y"
transform="scale(0.001,-0.001)" />

<path d="M133,-224v71c0,0,47,8,65,52c0,0,14,33,17,101H133V163H292V27c0,0,0,-114,-36,-172c0,0,-37,-58,-123,-79Z" 
id="f1_f"
transform="scale(0.001,-0.001)" />

<path d="M0,368V478H849V368Z" 
id="f1_99"
transform="scale(0.001,-0.001)" />

<path d="M390,-1V329H60V441H390V771H503V441H833V329H503V-1Z" 
id="f1_e"
transform="scale(0.001,-0.001)" />

<path d="M40,0V0c0,0,34,167,130,268c0,0,96,102,328,216c0,0,175,87,238,154c0,0,63,67,63,165c0,0,1,70,-48,111c0,0,-49,40,-131,40c0,0,-102,0,-171,-67c0,0,-69,-67,-96,-192H219c0,0,39,182,153,281c0,0,115,99,290,99c0,0,126,0,202,-69c0,0,76,-69,75,-181c0,0,0,-146,-90,-243c0,0,-90,-97,-338,-219c0,0,-169,-84,-239,-160c0,0,-29,-31,-52,-72H802L775,0Z" 
id="f3_l"
transform="scale(0.001,-0.001)" />

<path d="M77,369l25,110H950L926,369Z" 
id="f3_99"
transform="scale(0.001,-0.001)" />

<path d="M193,0c0,0,23,245,132,485c0,0,102,223,253,394H38v188H808V905C808,905,642,724,538,484C538,484,433,244,413,0Z" 
id="f4_q"
transform="scale(0.001,-0.001)" />

<path d="M649,461c0,0,-6,111,-55,172c0,0,-55,69,-160,69c0,0,-106,0,-170,-79c0,0,-50,-62,-60,-162ZM425,-20c0,0,-169,0,-266,106c0,0,-97,107,-97,297c0,0,0,201,102,320c0,0,103,119,276,119c0,0,157,0,253,-116c0,0,96,-117,96,-306l-1,-48H204c0,0,8,-119,54,-182c0,0,57,-76,180,-76c0,0,77,0,134,43c0,0,58,43,70,110H775C775,247,746,116,656,47c0,0,-90,-67,-231,-67Z" 
id="f1_20"
transform="scale(0.001,-0.001)" />

<path d="M394,-20c0,0,-159,0,-253,113c0,0,-95,114,-95,307c0,0,0,193,98,308c0,0,98,114,264,114c0,0,144,0,230,-78c0,0,85,-79,91,-217H600c0,0,-8,86,-59,133c0,0,-52,47,-138,47c0,0,-101,0,-159,-82c0,0,-58,-82,-58,-225c0,0,0,-152,54,-229c0,0,53,-77,159,-77c0,0,79,0,132,50c0,0,52,51,69,143H729C729,287,709,137,623,58c0,0,-86,-78,-229,-78Z" 
id="f1_1y"
transform="scale(0.001,-0.001)" />

<path d="M423,92c0,0,97,0,159,62c0,0,62,62,62,157c0,0,0,97,-64,160c0,0,-64,64,-161,64c0,0,-96,0,-158,-63c0,0,-62,-62,-62,-156c0,0,0,-58,27,-111c0,0,27,-54,81,-84c0,0,54,-29,116,-29Zm0,552c0,0,78,0,127,49c0,0,49,49,49,120c0,0,0,74,-50,124c0,0,-51,51,-128,51c0,0,-77,0,-127,-50c0,0,-51,-49,-51,-118c0,0,0,-77,50,-126c0,0,50,-50,130,-50ZM422,-18c0,0,-162,0,-261,95c0,0,-99,96,-99,239c0,0,0,107,54,179c0,0,54,72,154,98c0,0,-84,31,-124,87c0,0,-40,57,-40,136c0,0,0,119,85,201c0,0,86,81,229,81c0,0,143,0,230,-83c0,0,87,-83,87,-203c0,0,0,-76,-40,-132c0,0,-39,-56,-121,-87c0,0,101,-33,154,-106c0,0,52,-73,52,-174c0,0,0,-141,-99,-236c0,0,-99,-95,-261,-95Z" 
id="f5_s"
transform="scale(0.001,-0.001)" />

<path d="M125,0V1051H268V115H799V0Z" 
id="f0_1c"
transform="scale(0.001,-0.001)" />

<path d="M106,0V620c0,0,0,85,-5,188H228c0,0,6,-138,6,-165h3c0,0,32,103,74,141c0,0,42,38,118,38c0,0,27,0,54,-7V692c0,0,-26,7,-71,7c0,0,-84,0,-128,-72c0,0,-44,-72,-44,-206V0Z" 
id="f0_2e"
transform="scale(0.001,-0.001)" />

<path d="M606,-14c0,0,-164,0,-284,65c0,0,-119,66,-182,189c0,0,-63,123,-63,291c0,0,0,255,137,396c0,0,137,140,386,140c0,0,174,0,283,-59c0,0,109,-59,168,-189L915,779c0,0,-44,90,-123,131c0,0,-79,41,-196,41c0,0,-182,0,-278,-110c0,0,-96,-110,-96,-310c0,0,0,-200,102,-315c0,0,102,-115,282,-115c0,0,103,0,193,31c0,0,89,31,144,85V407H629V526h445V164c0,0,-83,-85,-205,-132c0,0,-121,-46,-263,-46Z" 
id="f0_17"
transform="scale(0.001,-0.001)" />

<path d="M355,-14c0,0,-133,0,-194,65c0,0,-62,66,-62,219V808H234V296c0,0,0,-80,16,-124c0,0,16,-44,50,-64c0,0,34,-19,101,-19c0,0,97,0,153,66c0,0,55,67,55,185V808H744V172c0,0,0,-141,4,-172H621c0,0,0,4,-1,20c0,0,-1,17,-2,38c0,0,-1,21,-3,80h-2C613,138,567,55,506,20c0,0,-61,-34,-151,-34Z" 
id="f0_2h"
transform="scale(0.001,-0.001)" />

<path d="M395,89c0,0,115,0,166,79c0,0,51,79,51,246c0,0,0,160,-51,235c0,0,-51,75,-164,75c0,0,-102,0,-147,-75c0,0,-45,-75,-45,-244c0,0,0,-170,45,-243c0,0,45,-73,145,-73ZM361,-14c0,0,-153,0,-225,102c0,0,-72,103,-72,312c0,0,0,422,297,422c0,0,92,0,153,-33c0,0,61,-34,98,-107h2l-2,90v335H747V166c0,0,0,-126,4,-166H623c0,0,-2,12,-5,55c0,0,-3,44,-3,75h-3c0,0,-37,-78,-98,-111c0,0,-62,-33,-153,-33Z" 
id="f0_20"
transform="scale(0.001,-0.001)" />

<path d="M140,0V163H285V0Z" 
id="f0_i"
transform="scale(0.001,-0.001)" />


</defs>
</svg>