<?xml version="1.0" encoding="UTF-8" standalone="no"?>
<!DOCTYPE svg PUBLIC "-//W3C//DTD SVG 1.1//EN"
"http://www.w3.org/Graphics/SVG/1.1/DTD/svg11.dtd">
<svg viewBox="0 0 686 959" version="1.1" xmlns="http://www.w3.org/2000/svg" xmlns:xlink="http://www.w3.org/1999/xlink">
<defs>
<style type="text/css"><![CDATA[
.g0_95{
fill: none;
stroke: #000000;
stroke-width: 0.15277778;
stroke-linecap: round;
stroke-linejoin: miter;
}
.g1_95{
}
.g2_95{
fill: none;
stroke: #000000;
stroke-width: 0.77635556;
stroke-linecap: round;
stroke-linejoin: miter;
}
.g3_95{
fill: none;
stroke: #000000;
stroke-width: 0.7638889;
stroke-linecap: round;
stroke-linejoin: miter;
}
.g4_95{
fill: none;
stroke: #000000;
stroke-width: 0.7744;
stroke-linecap: round;
stroke-linejoin: miter;
}
.g5_95{
fill: none;
stroke: #000000;
stroke-width: 0.76266664;
stroke-linecap: round;
stroke-linejoin: miter;
}
.g6_95{
fill: none;
stroke: #000000;
stroke-width: 0.7609555;
stroke-linecap: round;
stroke-linejoin: miter;
}
.g7_95{
fill: none;
stroke: #000000;
stroke-width: 0.7619333;
stroke-linecap: round;
stroke-linejoin: miter;
}
.g8_95{
fill: none;
stroke: #000000;
stroke-width: 0.7504445;
stroke-linecap: round;
stroke-linejoin: miter;
}
]]></style>
</defs>
<g fill="#D4D4D4" fill-opacity="0.56" >
<use xlink:href="#f0_1f" transform="matrix(50.9,-50.9,50.9,50.9,74.5,924.1)" />
<use xlink:href="#f0_2a" transform="matrix(50.9,-50.9,50.9,50.9,135,863.6)" />
<use xlink:href="#f0_28" transform="matrix(50.9,-50.9,50.9,50.9,178.2,820.3)" />
<use xlink:href="#f0_25" transform="matrix(50.9,-50.9,50.9,50.9,195.5,803.1)" />
<use xlink:href="#f0_2a" transform="matrix(50.9,-50.9,50.9,50.9,212.7,785.8)" />
<use xlink:href="#f0_21" transform="matrix(50.9,-50.9,50.9,50.9,256,742.5)" />
<use xlink:href="#f0_2k" transform="matrix(50.9,-50.9,50.9,50.9,299.2,699.3)" />
<use xlink:href="#f0_1x" transform="matrix(50.9,-50.9,50.9,50.9,338.1,660.4)" />
<use xlink:href="#f0_29" transform="matrix(50.9,-50.9,50.9,50.9,381.4,617.2)" />
<use xlink:href="#f0_2c" transform="matrix(50.9,-50.9,50.9,50.9,446.2,552.4)" />
<use xlink:href="#f0_2b" transform="matrix(50.9,-50.9,50.9,50.9,489.4,509.1)" />
<use xlink:href="#f0_25" transform="matrix(50.9,-50.9,50.9,50.9,532.7,465.9)" />
<use xlink:href="#f0_2a" transform="matrix(50.9,-50.9,50.9,50.9,549.9,448.6)" />
<use xlink:href="#f0_2g" transform="matrix(50.9,-50.9,50.9,50.9,593.2,405.4)" />
</g>
<g fill="#000000" >
<use xlink:href="#f1_l" transform="matrix(10.4,0,0,10.4,43.9,112.5)" />
<use xlink:href="#f1_j" transform="matrix(10.4,0,0,10.4,52.7,112.5)" />
<use xlink:href="#f1_h" transform="matrix(10.4,0,0,10.4,61.9,112.5)" />
</g>
<path d="M87.8,112l1.6,-.9l4,6.3l4.2,-16.7h18.3" class="g0_95" />
<path fill-rule="evenodd" d="M87.7,111.8l2.1,-1.2l3.6,5.3l4,-15.5h18.5v.7h-18l-4.2,16.3H93l-4,-5.8l-1.1,.6l-.2,-.4Z" class="g1_95" />
<g fill="#000000" >
<use xlink:href="#f1_k" transform="matrix(10.3,0,0,10.3,97.1,116.1)" />
<use xlink:href="#f1_m" transform="matrix(10.3,0,0,10.3,106.2,116.1)" />
<use xlink:href="#f1_l" transform="matrix(10.4,0,0,10.4,337.2,112.5)" />
<use xlink:href="#f1_k" transform="matrix(10.4,0,0,10.4,346.1,112.5)" />
<use xlink:href="#f1_h" transform="matrix(10.4,0,0,10.4,355.2,112.5)" />
</g>
<path d="M376.4,106.7h20.1" class="g2_95" />
<g fill="#000000" >
<use xlink:href="#f1_l" transform="matrix(10.5,0,0,10.5,377.2,100.6)" />
<use xlink:href="#f1_m" transform="matrix(10.5,0,0,10.5,382.1,121.8)" />
<use xlink:href="#f2_2c" transform="matrix(10.5,0,0,10.5,386.5,100.6)" />
<use xlink:href="#f1_l" transform="matrix(10.4,0,0,10.4,43.9,178.2)" />
<use xlink:href="#f1_l" transform="matrix(10.4,0,0,10.4,52.7,178.2)" />
<use xlink:href="#f1_h" transform="matrix(10.4,0,0,10.4,61.9,178.2)" />
<use xlink:href="#f1_99" transform="matrix(10.4,0,0,10.4,84.6,178.2)" />
<use xlink:href="#f1_k" transform="matrix(10.4,0,0,10.4,93.7,178.2)" />
<use xlink:href="#f1_l" transform="matrix(10.4,0,0,10.4,337.2,178.2)" />
<use xlink:href="#f1_m" transform="matrix(10.4,0,0,10.4,346.1,178.2)" />
<use xlink:href="#f1_h" transform="matrix(10.4,0,0,10.4,355.2,178.2)" />
</g>
<path d="M376.4,172.4h10.7" class="g3_95" />
<g fill="#000000" >
<use xlink:href="#f1_n" transform="matrix(10.5,0,0,10.5,377.4,187.4)" />
<use xlink:href="#f2_2c" transform="matrix(10.5,0,0,10.5,377.4,166.2)" />
<use xlink:href="#f1_l" transform="matrix(10.4,0,0,10.4,43.9,247.6)" />
<use xlink:href="#f1_n" transform="matrix(10.4,0,0,10.4,52.7,247.6)" />
<use xlink:href="#f1_h" transform="matrix(10.4,0,0,10.4,61.9,247.6)" />
</g>
<path d="M89,233l1.6,-.9l3.9,6.4l4.2,-16.9h10" class="g0_95" />
<path fill-rule="evenodd" d="M88.9,232.8L91,231.6l3.5,5.4l4,-15.8h10.2v.7H99l-4.1,16.6h-.8l-3.9,-5.9l-1.1,.7l-.2,-.5Z" class="g1_95" />
<path d="M87.6,243.3H110m32.2,0h10.3" class="g3_95" />
<g fill="#000000" >
<use xlink:href="#f1_m" transform="matrix(10.5,0,0,10.5,99.2,237.2)" />
<use xlink:href="#f1_k" transform="matrix(10.5,0,0,10.5,143.8,237.2)" />
<use xlink:href="#f1_l" transform="matrix(10.5,0,0,10.5,94.4,258.4)" />
<use xlink:href="#f1_l" transform="matrix(10.5,0,0,10.5,143.1,258.4)" />
<use xlink:href="#f3_24" transform="matrix(10.5,0,0,10.5,114.1,247.6)" />
<use xlink:href="#f3_25" transform="matrix(10.5,0,0,10.5,158.8,247.6)" />
<use xlink:href="#f2_f" transform="matrix(10.5,0,0,10.5,126.1,247.6)" />
<use xlink:href="#f4_4" transform="matrix(10.5,0,0,10.5,114.3,241.9)" />
<use xlink:href="#f4_4" transform="matrix(10.5,0,0,10.5,157.9,241.9)" />
<use xlink:href="#f1_l" transform="matrix(10.4,0,0,10.4,337.2,247.6)" />
<use xlink:href="#f1_o" transform="matrix(10.4,0,0,10.4,346.1,247.6)" />
<use xlink:href="#f1_h" transform="matrix(10.4,0,0,10.4,355.2,247.6)" />
</g>
<path d="M390,241.9h10.4" class="g4_95" />
<g fill="#000000" >
<use xlink:href="#f1_m" transform="matrix(10.5,0,0,10.5,390.8,235.7)" />
<use xlink:href="#f1_l" transform="matrix(10.5,0,0,10.5,390.8,256.9)" />
<use xlink:href="#f2_h" transform="matrix(10.5,0,0,10.5,376.1,246.1)" />
<use xlink:href="#f1_l" transform="matrix(10.4,0,0,10.4,43.9,309.2)" />
<use xlink:href="#f1_p" transform="matrix(10.4,0,0,10.4,52.7,309.2)" />
<use xlink:href="#f1_h" transform="matrix(10.4,0,0,10.4,61.9,309.2)" />
</g>
<path d="M87.6,303.5H98.4" class="g3_95" />
<g fill="#000000" >
<use xlink:href="#f1_m" transform="matrix(10.5,0,0,10.5,88.6,318.5)" />
<use xlink:href="#f2_2c" transform="matrix(10.5,0,0,10.5,88.6,297.3)" />
<use xlink:href="#f1_l" transform="matrix(10.4,0,0,10.4,43.9,353.4)" />
<use xlink:href="#f1_s" transform="matrix(10.4,0,0,10.4,52.7,353.4)" />
<use xlink:href="#f1_h" transform="matrix(10.4,0,0,10.4,61.9,353.4)" />
<use xlink:href="#f2_28" transform="matrix(10.4,0,0,10.4,84.6,353.4)" />
<use xlink:href="#f1_w" transform="matrix(10.4,0,0,10.4,100,353.4)" />
<use xlink:href="#f1_k" transform="matrix(10.4,0,0,10.4,116.1,353.4)" />
<use xlink:href="#f1_m" transform="matrix(10.4,0,0,10.4,43.9,406.8)" />
<use xlink:href="#f1_k" transform="matrix(10.4,0,0,10.4,52.7,406.8)" />
<use xlink:href="#f1_h" transform="matrix(10.4,0,0,10.4,61.9,406.8)" />
</g>
<path d="M140.7,404.8H151m32,0h10.2m52.2,0h10.3m32.2,0h10.2" class="g5_95" />
<g fill="#000000" >
<use xlink:href="#f4_4" transform="matrix(13.9,0,0,10.4,341.9,403.3)" />
<use xlink:href="#f1_m" transform="matrix(10.4,0,0,10.4,141.4,398.7)" />
<use xlink:href="#f1_k" transform="matrix(10.4,0,0,10.4,184.4,398.7)" />
<use xlink:href="#f1_k" transform="matrix(10.4,0,0,10.4,246.8,398.7)" />
<use xlink:href="#f1_m" transform="matrix(10.4,0,0,10.4,288.5,398.7)" />
<use xlink:href="#f1_h" transform="matrix(10.4,0,0,10.4,362.1,407.2)" />
<use xlink:href="#f1_m" transform="matrix(10.4,0,0,10.4,331.5,409)" />
<use xlink:href="#f1_l" transform="matrix(10.4,0,0,10.4,141.4,419.6)" />
<use xlink:href="#f1_l" transform="matrix(10.4,0,0,10.4,183.6,419.6)" />
<use xlink:href="#f1_l" transform="matrix(10.4,0,0,10.4,246.1,419.6)" />
<use xlink:href="#f1_l" transform="matrix(10.4,0,0,10.4,288.5,419.6)" />
<use xlink:href="#f3_24" transform="matrix(10.4,0,0,10.4,155.1,409)" />
<use xlink:href="#f3_25" transform="matrix(10.4,0,0,10.4,199.3,409)" />
<use xlink:href="#f3_24" transform="matrix(10.4,0,0,10.4,259.7,409)" />
<use xlink:href="#f3_25" transform="matrix(10.4,0,0,10.4,304.2,409)" />
<use xlink:href="#f3_26" transform="matrix(10.4,0,0,10.4,340,409)" />
<use xlink:href="#f2_4o" transform="matrix(10.4,0,0,10.4,131,399.9)" />
<use xlink:href="#f2_54" transform="matrix(10.4,0,0,10.4,205.8,399.9)" />
<use xlink:href="#f2_4o" transform="matrix(10.4,0,0,10.4,235.6,399.9)" />
<use xlink:href="#f2_54" transform="matrix(10.4,0,0,10.4,351.3,399.9)" />
<use xlink:href="#f2_1y" transform="matrix(10.4,0,0,10.4,91.8,407.2)" />
<use xlink:href="#f2_x" transform="matrix(10.4,0,0,10.4,114.1,407.2)" />
<use xlink:href="#f2_f" transform="matrix(10.4,0,0,10.4,220.2,407.2)" />
<use xlink:href="#f2_h" transform="matrix(10.4,0,0,10.4,167,409)" />
<use xlink:href="#f2_f" transform="matrix(10.4,0,0,10.4,271.7,409)" />
<use xlink:href="#f2_h" transform="matrix(10.4,0,0,10.4,316.1,409)" />
<use xlink:href="#f2_4q" transform="matrix(10.4,0,0,10.4,131,416)" />
<use xlink:href="#f2_56" transform="matrix(10.4,0,0,10.4,205.8,416)" />
<use xlink:href="#f2_4q" transform="matrix(10.4,0,0,10.4,235.6,416)" />
<use xlink:href="#f2_56" transform="matrix(10.4,0,0,10.4,351.3,416)" />
<use xlink:href="#f4_23" transform="matrix(10.4,0,0,10.4,87.6,392.9)" />
<use xlink:href="#f4_23" transform="matrix(10.4,0,0,10.4,93.3,392.9)" />
<use xlink:href="#f4_20" transform="matrix(10.4,0,0,10.4,98.7,392.9)" />
<use xlink:href="#f4_4" transform="matrix(10.4,0,0,10.4,155.2,403.3)" />
<use xlink:href="#f4_4" transform="matrix(10.4,0,0,10.4,198.4,403.3)" />
<use xlink:href="#f4_4" transform="matrix(10.4,0,0,10.4,259.9,403.3)" />
<use xlink:href="#f4_4" transform="matrix(10.4,0,0,10.4,303.3,403.3)" />
<use xlink:href="#f1_m" transform="matrix(10.4,0,0,10.4,43.9,473.7)" />
<use xlink:href="#f1_m" transform="matrix(10.4,0,0,10.4,52.7,473.7)" />
<use xlink:href="#f1_h" transform="matrix(10.4,0,0,10.4,61.9,473.7)" />
<use xlink:href="#f1_p" transform="matrix(10.4,0,0,10.4,84.6,473.7)" />
<use xlink:href="#f1_j" transform="matrix(10.4,0,0,10.4,93.4,473.7)" />
<use xlink:href="#f1_3a" transform="matrix(10.4,0,0,10.4,102.3,473.7)" />
<use xlink:href="#f1_m" transform="matrix(10.4,0,0,10.4,337.2,473.7)" />
<use xlink:href="#f1_n" transform="matrix(10.4,0,0,10.4,346.1,473.7)" />
<use xlink:href="#f1_h" transform="matrix(10.4,0,0,10.4,355.2,473.7)" />
</g>
<path d="M376.4,470.3h10.2m32.1,0H429m34.1,0h10.3" class="g6_95" />
<g fill="#000000" >
<use xlink:href="#f4_4" transform="matrix(14,0,0,10.5,479.2,468.8)" />
<use xlink:href="#f1_k" transform="matrix(10.4,0,0,10.5,378,464.1)" />
<use xlink:href="#f1_k" transform="matrix(10.4,0,0,10.5,420.3,464.1)" />
<use xlink:href="#f1_m" transform="matrix(10.4,0,0,10.5,463.9,464.1)" />
<use xlink:href="#f1_h" transform="matrix(10.4,0,0,10.5,486.7,474.5)" />
<use xlink:href="#f1_n" transform="matrix(10.4,0,0,10.5,377.2,485.3)" />
<use xlink:href="#f1_n" transform="matrix(10.4,0,0,10.5,419.6,485.3)" />
<use xlink:href="#f1_n" transform="matrix(10.4,0,0,10.5,463.9,485.3)" />
<use xlink:href="#f3_24" transform="matrix(10.4,0,0,10.5,390.8,474.5)" />
<use xlink:href="#f3_25" transform="matrix(10.4,0,0,10.5,435.2,474.5)" />
<use xlink:href="#f3_26" transform="matrix(10.4,0,0,10.5,477.5,474.5)" />
<use xlink:href="#f2_f" transform="matrix(10.4,0,0,10.5,402.7,474.5)" />
<use xlink:href="#f2_f" transform="matrix(10.4,0,0,10.5,447,474.5)" />
<use xlink:href="#f4_4" transform="matrix(10.4,0,0,10.5,391,468.8)" />
<use xlink:href="#f4_4" transform="matrix(10.4,0,0,10.5,434.3,468.8)" />
<use xlink:href="#f1_m" transform="matrix(10.4,0,0,10.4,43.9,543)" />
<use xlink:href="#f1_o" transform="matrix(10.4,0,0,10.4,52.7,543)" />
<use xlink:href="#f1_h" transform="matrix(10.4,0,0,10.4,61.9,543)" />
</g>
<path d="M87.6,539.6H97.8m32.2,0h10.2m34.2,0h10.2" class="g6_95" />
<g fill="#000000" >
<use xlink:href="#f4_4" transform="matrix(14,0,0,10.5,190.5,538.1)" />
<use xlink:href="#f1_o" transform="matrix(10.4,0,0,10.5,88.5,533.4)" />
<use xlink:href="#f1_l" transform="matrix(10.4,0,0,10.5,130.8,533.4)" />
<use xlink:href="#f1_l" transform="matrix(10.4,0,0,10.5,175.2,533.4)" />
<use xlink:href="#f1_h" transform="matrix(10.4,0,0,10.5,198,543.8)" />
<use xlink:href="#f1_m" transform="matrix(10.4,0,0,10.5,88.5,554.6)" />
<use xlink:href="#f1_m" transform="matrix(10.4,0,0,10.5,130.8,554.6)" />
<use xlink:href="#f1_m" transform="matrix(10.4,0,0,10.5,175.2,554.6)" />
<use xlink:href="#f3_24" transform="matrix(10.4,0,0,10.5,102.1,543.8)" />
<use xlink:href="#f3_25" transform="matrix(10.4,0,0,10.5,146.4,543.8)" />
<use xlink:href="#f3_26" transform="matrix(10.4,0,0,10.5,188.8,543.8)" />
<use xlink:href="#f2_f" transform="matrix(10.4,0,0,10.5,114,543.8)" />
<use xlink:href="#f2_f" transform="matrix(10.4,0,0,10.5,158.3,543.8)" />
<use xlink:href="#f4_4" transform="matrix(10.4,0,0,10.5,102.2,538.1)" />
<use xlink:href="#f4_4" transform="matrix(10.4,0,0,10.5,145.6,538.1)" />
<use xlink:href="#f1_m" transform="matrix(10.4,0,0,10.4,337.2,543)" />
<use xlink:href="#f1_p" transform="matrix(10.4,0,0,10.4,346.1,543)" />
<use xlink:href="#f1_h" transform="matrix(10.4,0,0,10.4,355.2,543)" />
</g>
<path d="M377.7,550.6l1.6,-.9l3.9,6.4l4.2,-17h27" class="g0_95" />
<path fill-rule="evenodd" d="M377.6,550.4l2.1,-1.2l3.5,5.4l4,-15.8h27.2v.7H387.7l-4.1,16.6h-.8l-3.9,-5.9l-1.1,.6l-.2,-.4Z" class="g1_95" />
<path d="M376.4,536.5h39.3" class="g7_95" />
<g fill="#000000" >
<use xlink:href="#f4_4" transform="matrix(14,0,0,10.5,518.9,537.4)" />
<use xlink:href="#f2_c" transform="matrix(10.5,0,0,16.7,419.8,542.7)" />
<use xlink:href="#f2_d" transform="matrix(10.5,0,0,16.7,528.7,542.7)" />
<use xlink:href="#f1_k" transform="matrix(10.5,0,0,10.5,397.3,530.3)" />
<use xlink:href="#f1_h" transform="matrix(10.5,0,0,10.5,536.8,540.7)" />
<use xlink:href="#f1_k" transform="matrix(10.5,0,0,10.5,425.8,543.1)" />
<use xlink:href="#f1_j" transform="matrix(10.5,0,0,10.5,434.7,543.1)" />
<use xlink:href="#f1_q" transform="matrix(10.5,0,0,10.5,470.8,543.1)" />
<use xlink:href="#f1_n" transform="matrix(10.5,0,0,10.5,508.6,543.1)" />
<use xlink:href="#f1_k" transform="matrix(10.5,0,0,10.5,386.8,554.8)" />
<use xlink:href="#f1_p" transform="matrix(10.5,0,0,10.5,395.7,554.8)" />
<use xlink:href="#f1_o" transform="matrix(10.5,0,0,10.5,404.6,554.8)" />
<use xlink:href="#f3_24" transform="matrix(10.5,0,0,10.5,443.3,543.1)" />
<use xlink:href="#f3_25" transform="matrix(10.5,0,0,10.5,481.3,543.1)" />
<use xlink:href="#f3_26" transform="matrix(10.5,0,0,10.5,517.2,543.1)" />
<use xlink:href="#f2_h" transform="matrix(10.5,0,0,10.5,388.5,530.3)" />
<use xlink:href="#f2_f" transform="matrix(10.5,0,0,10.5,455.2,543.1)" />
<use xlink:href="#f2_h" transform="matrix(10.5,0,0,10.5,493.3,543.1)" />
<use xlink:href="#f4_4" transform="matrix(10.5,0,0,10.5,443.4,537.4)" />
<use xlink:href="#f4_4" transform="matrix(10.5,0,0,10.5,480.5,537.4)" />
<use xlink:href="#f1_m" transform="matrix(10.4,0,0,10.4,43.9,606.8)" />
<use xlink:href="#f1_r" transform="matrix(10.4,0,0,10.4,52.7,606.8)" />
<use xlink:href="#f1_h" transform="matrix(10.4,0,0,10.4,61.9,606.8)" />
</g>
<path d="M100.9,592.5v21.1m24.7,-21.1v21.1" class="g3_95" />
<g fill="#000000" >
<use xlink:href="#f1_l" transform="matrix(7.8,0,0,7.8,129.9,597.1)" />
<use xlink:href="#f1_l" transform="matrix(10.4,0,0,10.4,87,607.2)" />
<use xlink:href="#f3_1w" transform="matrix(10.4,0,0,10.4,108.5,609.1)" />
<use xlink:href="#f4_23" transform="matrix(10.4,0,0,10.4,104.4,594.8)" />
<use xlink:href="#f4_23" transform="matrix(10.4,0,0,10.4,110.1,594.8)" />
<use xlink:href="#f4_23" transform="matrix(10.4,0,0,10.4,114.4,594.8)" />
<use xlink:href="#f4_20" transform="matrix(10.4,0,0,10.4,116,594.8)" />
<use xlink:href="#f1_n" transform="matrix(10.4,0,0,10.4,337.2,606.8)" />
<use xlink:href="#f1_k" transform="matrix(10.4,0,0,10.4,346.1,606.8)" />
<use xlink:href="#f1_h" transform="matrix(10.4,0,0,10.4,355.2,606.8)" />
<use xlink:href="#f3_2j" transform="matrix(10.4,0,0,10.4,373.3,606.8)" />
<use xlink:href="#f1_w" transform="matrix(10.4,0,0,10.4,388.2,606.8)" />
<use xlink:href="#f3_99" transform="matrix(10.4,0,0,10.4,404.3,606.8)" />
<use xlink:href="#f1_l" transform="matrix(10.4,0,0,10.4,419.9,606.8)" />
<use xlink:href="#f1_n" transform="matrix(10.4,0,0,10.4,43.9,657.9)" />
<use xlink:href="#f1_q" transform="matrix(10.4,0,0,10.4,52.7,657.9)" />
<use xlink:href="#f1_h" transform="matrix(10.4,0,0,10.4,61.9,657.9)" />
<use xlink:href="#f4_4" transform="matrix(14,0,0,10.5,154.6,653.7)" />
<use xlink:href="#f1_l" transform="matrix(10.6,0,0,10.5,115.1,659.5)" />
<use xlink:href="#f3_24" transform="matrix(10.6,0,0,10.5,87.3,659.5)" />
<use xlink:href="#f3_25" transform="matrix(10.6,0,0,10.5,125.6,659.5)" />
<use xlink:href="#f3_26" transform="matrix(10.6,0,0,10.5,152.9,659.5)" />
<use xlink:href="#f2_f" transform="matrix(10.5,0,0,10.5,99.2,659.5)" />
<use xlink:href="#f2_f" transform="matrix(10.5,0,0,10.5,137.6,659.5)" />
<use xlink:href="#f4_4" transform="matrix(10.5,0,0,10.5,87.4,653.7)" />
<use xlink:href="#f4_4" transform="matrix(10.5,0,0,10.5,124.7,653.7)" />
<use xlink:href="#f1_n" transform="matrix(10.4,0,0,10.4,337.2,657.9)" />
<use xlink:href="#f1_r" transform="matrix(10.4,0,0,10.4,346.1,657.9)" />
<use xlink:href="#f1_h" transform="matrix(10.4,0,0,10.4,355.2,657.9)" />
</g>
<path d="M386.2,657.4l1.6,-.9l3.9,6.3l4.2,-16.6H415" class="g0_95" />
<path fill-rule="evenodd" d="M386.1,657.2l2.1,-1.2l3.5,5.3l4,-15.5H415v.7H396.2l-4.1,16.3h-.7l-4,-5.8l-1.1,.7l-.2,-.5Z" class="g1_95" />
<g fill="#000000" >
<use xlink:href="#f1_q" transform="matrix(10.4,0,0,10.3,396.4,661.5)" />
<use xlink:href="#f1_m" transform="matrix(10.4,0,0,10.3,405.4,661.5)" />
<use xlink:href="#f2_37" transform="matrix(10.3,0,0,10.3,376,661.5)" />
<use xlink:href="#f1_n" transform="matrix(10.4,0,0,10.4,43.9,717.2)" />
<use xlink:href="#f1_s" transform="matrix(10.4,0,0,10.4,52.7,717.2)" />
<use xlink:href="#f1_h" transform="matrix(10.4,0,0,10.4,61.9,717.2)" />
</g>
<path d="M87.8,716.6l1.6,-.9l4,6.3l4.3,-16.6h10.2" class="g0_95" />
<path fill-rule="evenodd" d="M87.7,716.4l2.1,-1.2l3.6,5.3l4,-15.5h10.5v.8H98L93.8,722H93l-4,-5.7l-1.1,.6l-.2,-.5Z" class="g1_95" />
<g fill="#000000" >
<use xlink:href="#f1_m" transform="matrix(10.3,0,0,10.3,98.2,720.7)" />
<use xlink:href="#f1_o" transform="matrix(10.4,0,0,10.4,337.2,717.2)" />
<use xlink:href="#f1_j" transform="matrix(10.4,0,0,10.4,346.1,717.2)" />
<use xlink:href="#f1_h" transform="matrix(10.4,0,0,10.4,355.2,717.2)" />
</g>
<path d="M376.3,711.4h18" class="g8_95" />
<g fill="#000000" >
<use xlink:href="#f1_s" transform="matrix(10.5,0,0,10.5,377.6,705.2)" />
<use xlink:href="#f1_k" transform="matrix(10.5,0,0,10.5,386.6,705.2)" />
<use xlink:href="#f1_k" transform="matrix(10.5,0,0,10.5,376,726.4)" />
<use xlink:href="#f1_j" transform="matrix(10.5,0,0,10.5,385,726.4)" />
<use xlink:href="#f1_o" transform="matrix(10.4,0,0,10.4,43.9,763.5)" />
<use xlink:href="#f1_l" transform="matrix(10.4,0,0,10.4,52.7,763.5)" />
<use xlink:href="#f1_h" transform="matrix(10.4,0,0,10.4,61.9,763.5)" />
<use xlink:href="#f1_n" transform="matrix(10.4,0,0,10.4,84.6,763.5)" />
<use xlink:href="#f1_o" transform="matrix(10.4,0,0,10.4,337.2,763.5)" />
<use xlink:href="#f1_m" transform="matrix(10.4,0,0,10.4,346.1,763.5)" />
<use xlink:href="#f1_h" transform="matrix(10.4,0,0,10.4,355.2,763.5)" />
<use xlink:href="#f1_m" transform="matrix(10.4,0,0,10.4,373.3,763.5)" />
<use xlink:href="#f1_q" transform="matrix(10.4,0,0,10.4,382.5,763.5)" />
<use xlink:href="#f1_o" transform="matrix(10.4,0,0,10.4,43.9,810.7)" />
<use xlink:href="#f1_n" transform="matrix(10.4,0,0,10.4,52.7,810.7)" />
<use xlink:href="#f1_h" transform="matrix(10.4,0,0,10.4,61.9,810.7)" />
<use xlink:href="#f2_28" transform="matrix(10.4,0,0,10.4,84.6,810.7)" />
<use xlink:href="#f1_w" transform="matrix(10.4,0,0,10.4,100,810.7)" />
<use xlink:href="#f1_k" transform="matrix(10.4,0,0,10.4,116.1,810.7)" />
</g>
<g fill="#0080FF" fill-opacity="0.5" >
<use xlink:href="#f0_1c" transform="matrix(35.8,0,0,35.8,171.5,1004.6)" />
<use xlink:href="#f0_21" transform="matrix(35.8,0,0,35.8,201.9,1004.6)" />
<use xlink:href="#f0_1x" transform="matrix(35.8,0,0,35.8,232.3,1004.6)" />
<use xlink:href="#f0_2e" transform="matrix(35.8,0,0,35.8,262.6,1004.6)" />
<use xlink:href="#f0_2a" transform="matrix(35.8,0,0,35.8,280.8,1004.6)" />
<use xlink:href="#f0_17" transform="matrix(35.8,0,0,35.8,311.2,1004.6)" />
<use xlink:href="#f0_2h" transform="matrix(35.8,0,0,35.8,353.7,1004.6)" />
<use xlink:href="#f0_25" transform="matrix(35.8,0,0,35.8,384.1,1004.6)" />
<use xlink:href="#f0_20" transform="matrix(35.8,0,0,35.8,396.2,1004.6)" />
<use xlink:href="#f0_21" transform="matrix(35.8,0,0,35.8,426.6,1004.6)" />
<use xlink:href="#f0_i" transform="matrix(35.8,0,0,35.8,457,1004.6)" />
<use xlink:href="#f0_25" transform="matrix(35.8,0,0,35.8,472.1,1004.6)" />
<use xlink:href="#f0_2a" transform="matrix(35.8,0,0,35.8,484.3,1004.6)" />
</g>
<defs>
<path d="M593,101c0,0,182,0,279,112c0,0,98,113,98,318c0,0,0,196,-98,308c0,0,-98,112,-277,112c0,0,-181,0,-279,-110c0,0,-99,-111,-99,-310c0,0,0,-198,100,-314c0,0,99,-116,276,-116Zm0,-115c0,0,-162,0,-279,65c0,0,-118,66,-180,190c0,0,-62,124,-62,290c0,0,0,252,138,394c0,0,138,142,385,142c0,0,160,0,278,-64c0,0,118,-64,180,-185c0,0,62,-122,62,-287c0,0,0,-165,-63,-289c0,0,-63,-124,-181,-190c0,0,-118,-66,-278,-66Z" 
id="f0_1f"
transform="scale(0.001,-0.001)" />

<path d="M106,0V635c0,0,0,141,-5,173H228c0,0,1,-4,2,-21c0,0,1,-16,2,-37c0,0,1,-22,2,-81h2c0,0,47,84,108,119c0,0,60,34,151,34c0,0,132,0,194,-66c0,0,61,-66,61,-218V0H615V512c0,0,0,80,-15,124c0,0,-16,44,-50,63c0,0,-35,20,-101,20c0,0,-97,0,-153,-67c0,0,-56,-66,-56,-184V0Z" 
id="f0_2a"
transform="scale(0.001,-0.001)" />

<path d="M103,0V1107H237V0Z" 
id="f0_28"
transform="scale(0.001,-0.001)" />

<path d="M102,0V808H236V0Zm0,979v128H236V979Z" 
id="f0_25"
transform="scale(0.001,-0.001)" />

<path d="M643,478c0,0,-11,128,-65,187c0,0,-54,59,-154,59c0,0,-98,0,-155,-66c0,0,-57,-65,-62,-180ZM431,-14c0,0,-179,0,-272,106c0,0,-94,107,-94,317c0,0,0,200,94,307c0,0,93,106,267,106c0,0,356,0,356,-429V375H206c0,0,0,-138,57,-213c0,0,58,-75,168,-75c0,0,87,0,140,35c0,0,53,35,71,88L760,177c0,0,-72,-191,-329,-191Z" 
id="f0_21"
transform="scale(0.001,-0.001)" />

<path d="M17,0L304,415L31,808H179L380,493L580,808H730L457,417L747,0H598L380,331L162,0Z" 
id="f0_2k"
transform="scale(0.001,-0.001)" />

<path d="M339,87c0,0,74,0,132,34c0,0,57,33,90,91c0,0,34,59,34,121v66L448,396c0,0,-95,-2,-144,-19c0,0,-49,-18,-75,-55c0,0,-26,-38,-26,-98c0,0,0,-65,35,-101c0,0,36,-36,101,-36ZM309,-14c0,0,-122,0,-183,64c0,0,-61,64,-61,176c0,0,0,125,82,192c0,0,83,67,266,72l182,3v44c0,0,0,98,-42,141c0,0,-42,43,-132,43c0,0,-90,0,-131,-31c0,0,-41,-31,-49,-98L101,604c0,0,34,218,323,218c0,0,153,0,229,-70c0,0,77,-69,77,-202V202c0,0,0,-59,16,-90c0,0,16,-30,60,-30c0,0,19,0,44,5V4C850,4,799,-7,746,-7c0,0,-75,0,-109,38c0,0,-33,40,-38,124h-4C595,155,543,62,475,24c0,0,-68,-38,-166,-38Z" 
id="f0_1x"
transform="scale(0.001,-0.001)" />

<path d="M106,0V635c0,0,0,141,-5,173H228c0,0,1,-4,2,-21c0,0,1,-16,2,-37c0,0,1,-22,2,-81h2c0,0,44,86,100,120c0,0,56,33,136,33c0,0,92,0,145,-36c0,0,54,-37,75,-117h2c0,0,42,82,101,117c0,0,59,36,143,36c0,0,123,0,178,-66c0,0,56,-67,56,-218V0H1039V512c0,0,0,117,-32,162c0,0,-32,45,-116,45c0,0,-88,0,-136,-66c0,0,-49,-65,-49,-185V0H573V512c0,0,0,117,-32,162c0,0,-32,45,-116,45c0,0,-86,0,-136,-66c0,0,-50,-66,-50,-185V0Z" 
id="f0_29"
transform="scale(0.001,-0.001)" />

<path d="M453,84c0,0,100,0,146,74c0,0,46,73,46,247c0,0,0,169,-46,241c0,0,-45,73,-145,73c0,0,-80,0,-125,-34c0,0,-45,-34,-68,-105c0,0,-24,-71,-24,-186c0,0,0,-159,51,-234c0,0,51,-76,165,-76ZM103,-316V643c0,0,0,124,-5,165H228c0,0,1,-3,3,-22c0,0,1,-18,3,-56c0,0,2,-38,2,-52h3c0,0,36,75,94,110c0,0,59,34,156,34c0,0,149,0,223,-100c0,0,74,-100,74,-314c0,0,0,-422,-297,-422c0,0,-187,0,-251,140h-4c0,0,3,-6,3,-126V-316Z" 
id="f0_2c"
transform="scale(0.001,-0.001)" />

<path d="M420,84c0,0,121,0,173,78c0,0,52,77,52,243c0,0,0,167,-50,243c0,0,-50,76,-167,76c0,0,-118,0,-170,-78c0,0,-53,-77,-53,-241c0,0,0,-160,52,-241c0,0,52,-80,163,-80Zm1,-98c0,0,-176,0,-267,107c0,0,-90,108,-90,312c0,0,0,417,362,417c0,0,185,0,272,-102c0,0,88,-101,88,-315c0,0,0,-212,-94,-316C692,89,599,-14,421,-14Z" 
id="f0_2b"
transform="scale(0.001,-0.001)" />

<path d="M278,-11c0,0,-162,0,-162,182V710H23v98h99l39,181h90V808H400V710H251V200c0,0,0,-58,19,-82c0,0,19,-23,66,-23c0,0,27,0,77,10V6c0,0,-66,-17,-135,-17Z" 
id="f0_2g"
transform="scale(0.001,-0.001)" />

<path d="M39,0V0c0,0,0,170,84,277c0,0,85,108,317,236c0,0,113,62,154,115c0,0,41,52,41,134c0,0,0,86,-62,141c0,0,-61,54,-156,54c0,0,-101,0,-158,-68c0,0,-57,-68,-60,-194H67c0,0,-2,178,95,279c0,0,98,101,273,101c0,0,149,0,245,-89c0,0,94,-88,94,-228c0,0,0,-118,-60,-195c0,0,-61,-76,-229,-169C485,394,303,294,237,212c0,0,-28,-36,-46,-81H774V0Z" 
id="f1_l"
transform="scale(0.001,-0.001)" />

<path d="M424,92c0,0,114,0,170,107c0,0,57,108,56,323c0,0,1,216,-56,324c0,0,-56,107,-170,107c0,0,-112,0,-168,-107c0,0,-56,-108,-57,-324c0,0,1,-215,57,-323c0,0,56,-107,168,-107Zm0,-120c0,0,-176,0,-271,142c0,0,-96,143,-96,408c0,0,0,265,96,409c0,0,95,144,271,144c0,0,178,0,273,-144c0,0,96,-144,96,-409c0,0,0,-265,-96,-408c0,0,-95,-142,-273,-142Z" 
id="f1_j"
transform="scale(0.001,-0.001)" />

<path d="M133,0V162H292V0Z" 
id="f1_h"
transform="scale(0.001,-0.001)" />

<path d="M406,0V763H155V870h2c16,0,114,2,178,48c0,0,70,51,104,157H549V0Z" 
id="f1_k"
transform="scale(0.001,-0.001)" />

<path d="M424,-28c0,0,-180,0,-272,86c0,0,-92,87,-100,266H192c0,0,12,-126,66,-180c0,0,55,-54,170,-54c0,0,100,0,163,57c0,0,64,57,64,147c0,0,0,94,-61,149c0,0,-52,48,-135,54c0,0,-38,2,-72,2c0,0,-34,0,-45,-3V613c0,0,17,-3,51,-3c0,0,35,0,68,4c0,0,66,8,106,43c0,0,55,45,55,125c0,0,0,77,-58,125c0,0,-58,48,-148,48c0,0,-96,0,-147,-58c0,0,-51,-59,-56,-175H82c0,0,0,168,89,260c0,0,88,93,250,93c0,0,153,0,247,-77c0,0,94,-76,94,-202c0,0,0,-124,-95,-201c0,0,-18,-15,-39,-27c0,0,39,-17,69,-41c0,0,101,-79,101,-214c0,0,0,-151,-105,-246c0,0,-104,-95,-269,-95Z" 
id="f1_m"
transform="scale(0.001,-0.001)" />

<path d="M140,-21c0,0,-26,0,-44,17C96,-4,79,13,79,40c0,0,0,19,6,33c0,0,8,20,34,55c0,0,46,60,64,126c0,0,32,114,41,321H190c0,0,-55,0,-81,-18c0,0,-44,-26,-80,-89H0c0,0,42,129,98,178c0,0,43,37,120,37H743V575H562c0,0,-27,-171,-27,-327c0,0,0,-77,27,-110c0,0,27,-33,67,-33c0,0,33,0,56,22c0,0,24,22,31,65h27C743,192,730,74,686,26c0,0,-44,-47,-98,-47c0,0,-58,0,-97,51c0,0,-39,53,-39,198c0,0,0,91,28,347H286c0,0,-23,-390,-56,-494c0,0,-33,-102,-90,-102Z" 
id="f2_2c"
transform="scale(0.001,-0.001)" />

<path d="M0,368V478H849V368Z" 
id="f1_99"
transform="scale(0.001,-0.001)" />

<path d="M511,373V863L169,383l-7,-10ZM511,0V258H38V383l496,691H646V373H799V258H646V0Z" 
id="f1_n"
transform="scale(0.001,-0.001)" />

<path d="M102,0L267,800H402L237,0ZM300,946l31,151H467L436,946Z" 
id="f3_24"
transform="scale(0.001,-0.001)" />

<path d="M-33,-321c0,0,-31,0,-57,4l25,117h26c0,0,60,0,83,18c0,0,22,18,34,75L265,800H400L213,-107c0,0,-24,-117,-81,-166c0,0,-55,-48,-165,-48ZM298,946l32,151H465L434,946Z" 
id="f3_25"
transform="scale(0.001,-0.001)" />

<path d="M355,0V355H0v72H355V784h72V427H782V355H427V0Z" 
id="f2_f"
transform="scale(0.001,-0.001)" />

<path d="M17,774l191,256h95L493,774H440L255,932L69,774Z" 
id="f4_4"
transform="scale(0.001,-0.001)" />

<path d="M417,-28c0,0,-161,0,-259,79c0,0,-98,81,-109,223H189c0,0,11,-90,72,-139c0,0,61,-49,162,-49c0,0,96,0,158,68c0,0,61,68,61,175c0,0,0,112,-64,178c0,0,-64,66,-173,66c0,0,-59,0,-115,-28c0,0,-55,-29,-84,-73L93,480l77,573H727V922H271L225,629l4,3c0,0,89,60,188,60c0,0,169,0,269,-94c0,0,99,-93,99,-253c0,0,0,-165,-103,-269C682,76,579,-28,417,-28Z" 
id="f1_o"
transform="scale(0.001,-0.001)" />

<path d="M0,356v74H784V356Z" 
id="f2_h"
transform="scale(0.001,-0.001)" />

<path d="M432,92c0,0,96,0,156,66c0,0,61,65,61,169c0,0,0,103,-61,169c0,0,-60,66,-156,66c0,0,-95,0,-156,-66c0,0,-61,-66,-61,-169c0,0,0,-104,61,-169c0,0,61,-66,156,-66ZM425,-28c0,0,-176,0,-271,135c0,0,-95,136,-95,388c0,0,0,278,103,429c0,0,103,151,293,151c0,0,142,0,226,-77c0,0,84,-76,90,-211H638c0,0,-8,80,-56,123c0,0,-47,43,-127,43c0,0,-125,0,-192,-119c0,0,-58,-102,-64,-278c0,0,100,127,255,127c0,0,152,0,245,-98c0,0,93,-98,93,-258c0,0,0,-161,-101,-259c0,0,-101,-96,-266,-96Z" 
id="f1_p"
transform="scale(0.001,-0.001)" />

<path d="M419,483c0,0,93,0,152,66c0,0,59,66,59,169c0,0,0,103,-59,169c0,0,-59,65,-152,65c0,0,-94,0,-153,-65c0,0,-59,-66,-59,-169c0,0,0,-103,59,-169c0,0,59,-66,153,-66ZM397,-28c0,0,-143,0,-227,75c0,0,-85,77,-91,211H209c0,0,8,-83,57,-128c0,0,49,-45,131,-45c0,0,121,0,186,135c0,0,48,101,62,265C645,485,545,362,397,362c0,0,-150,0,-241,98c0,0,-91,98,-91,258c0,0,0,160,99,258c0,0,99,98,262,98c0,0,173,0,266,-123c0,0,94,-123,94,-349c0,0,0,-303,-101,-467C685,135,583,-28,397,-28Z" 
id="f1_s"
transform="scale(0.001,-0.001)" />

<path d="M620,-14c0,0,-52,0,-93,43c0,0,-41,45,-77,203L384,522L132,0H0L340,703l-12,66c0,0,-23,107,-61,146c0,0,-37,38,-83,38c0,0,-42,0,-74,-30c0,0,-31,-31,-41,-100H43c0,0,2,117,57,187c0,0,40,51,96,51c0,0,50,0,86,-40c0,0,54,-60,88,-213L489,283c0,0,27,-118,62,-153c0,0,33,-36,79,-36c0,0,43,0,71,29c0,0,28,29,33,94h30c0,0,1,-19,1,-29c0,0,0,-98,-49,-158c0,0,-37,-44,-96,-44Z" 
id="f2_28"
transform="scale(0.001,-0.001)" />

<path d="M60,174V286H832V174Zm0,309V595H832V483Z" 
id="f1_w"
transform="scale(0.001,-0.001)" />

<path d="M102,0L329,1097H464L333,467L745,800H921L546,501L769,0H595L429,409L300,306L237,0Z" 
id="f3_26"
transform="scale(0.001,-0.001)" />

<path d="M62,-123V268c0,0,0,230,56,452c0,0,47,190,134,334c0,0,87,144,204,242c0,0,85,73,194,119l18,-16c0,0,-211,-145,-335,-339c0,0,-98,-156,-149,-374c0,0,-50,-218,-50,-403V-123Z" 
id="f2_4o"
transform="scale(0.001,-0.001)" />

<path d="M617,-123V283c0,0,0,236,-63,459c0,0,-63,223,-188,392c0,0,-108,146,-282,265l17,16c0,0,180,-76,320,-248c0,0,139,-172,204,-417c0,0,64,-245,64,-482V-123Z" 
id="f2_54"
transform="scale(0.001,-0.001)" />

<path d="M363,28c0,0,75,0,126,63c0,0,51,62,51,197c0,0,0,85,-24,149c0,0,-24,63,-86,139c0,0,-51,-17,-89,-17c0,0,-44,0,-63,14c0,0,-18,13,-18,29c0,0,0,14,14,25c0,0,14,11,46,11c0,0,36,0,110,-19c0,0,53,104,53,196c0,0,0,94,-47,146c0,0,-46,51,-115,51c0,0,-86,0,-134,-73c0,0,-31,-49,-31,-156V118c0,0,72,-51,126,-73c0,0,40,-17,81,-17ZM0,-328c0,0,20,92,24,126c0,0,10,104,10,152V712c0,0,0,133,26,198c0,0,27,64,96,108c0,0,69,43,165,43c0,0,133,0,213,-72c0,0,80,-71,80,-170c0,0,0,-63,-33,-120c0,0,-32,-57,-100,-99c0,0,200,-95,200,-297c0,0,0,-89,-42,-167C639,136,598,59,524,18c0,0,-73,-39,-150,-39c0,0,-50,0,-99,17c0,0,-49,16,-119,63V-66c0,0,0,-121,-30,-262Z" 
id="f2_1y"
transform="scale(0.001,-0.001)" />

<path d="M0,214v74H784V214ZM0,494v72H784V494Z" 
id="f2_x"
transform="scale(0.001,-0.001)" />

<path d="M650,-123c0,0,-180,75,-319,246c0,0,-140,172,-205,418c0,0,-64,245,-64,481v393h72V1007c0,0,0,-236,63,-459c0,0,63,-223,189,-391c0,0,108,-145,282,-265l-18,-15Z" 
id="f2_4q"
transform="scale(0.001,-0.001)" />

<path d="M101,-123l-17,15c0,0,210,144,334,339c0,0,99,156,149,373c0,0,50,218,50,403v408h72V1022c0,0,0,-230,-56,-451c0,0,-48,-191,-134,-335C499,236,412,92,295,-5c0,0,-84,-73,-194,-118Z" 
id="f2_56"
transform="scale(0.001,-0.001)" />

<path d="M0,-26V27H626V-26Z" 
id="f4_23"
transform="scale(0.001,-0.001)" />

<path d="M413,-106l30,80H0V27H443l-30,80L626,0L413,-106Z" 
id="f4_20"
transform="scale(0.001,-0.001)" />

<path d="M305,697c0,0,64,0,108,44c0,0,45,44,45,108c0,0,0,64,-45,108c0,0,-44,44,-108,44c0,0,-64,0,-108,-44c0,0,-43,-44,-43,-108c0,0,0,-64,43,-108c0,0,44,-44,108,-44Zm0,-70c0,0,-93,0,-157,64c0,0,-65,65,-65,158c0,0,0,94,65,158c0,0,64,65,157,65c0,0,94,0,159,-65c0,0,64,-64,64,-158c0,0,0,-93,-64,-158c0,0,-65,-64,-159,-64Z" 
id="f1_3a"
transform="scale(0.001,-0.001)" />

<path d="M412,-328c0,0,-195,96,-303,284C109,-44,0,142,0,365c0,0,0,232,114,422c0,0,114,191,298,273v-31c0,0,-92,-51,-151,-139c0,0,-59,-88,-88,-223c0,0,-29,-136,-29,-282c0,0,0,-167,27,-301c0,0,26,-133,82,-221c0,0,55,-89,159,-159v-32Z" 
id="f2_c"
transform="scale(0.001,-0.001)" />

<path d="M34,-328v32c0,0,92,50,151,138c0,0,59,88,88,222c0,0,29,135,29,283c0,0,0,165,-27,300c0,0,-26,134,-82,222c0,0,-56,89,-159,160v31c0,0,194,-96,303,-284c0,0,108,-187,108,-410c0,0,0,-232,-114,-422c0,0,-114,-191,-297,-272Z" 
id="f2_d"
transform="scale(0.001,-0.001)" />

<path d="M212,0c0,0,51,270,162,500c0,0,109,222,281,422H57v131H799V934C799,934,623,726,515,498C515,498,408,269,362,0Z" 
id="f1_q"
transform="scale(0.001,-0.001)" />

<path d="M424,92c0,0,98,0,161,58c0,0,62,58,62,149c0,0,0,92,-62,151c0,0,-63,58,-161,58c0,0,-98,0,-160,-58c0,0,-63,-59,-63,-151c0,0,0,-91,63,-149c0,0,62,-58,160,-58Zm0,533c0,0,82,0,134,46c0,0,52,45,52,118c0,0,0,72,-52,118c0,0,-52,46,-134,46c0,0,-82,0,-134,-46c0,0,-52,-46,-52,-118c0,0,0,-73,52,-119c0,0,52,-45,134,-45Zm0,-653c0,0,-165,0,-265,90C159,62,59,154,59,305c0,0,0,134,100,216c0,0,35,28,78,47c0,0,-27,15,-52,33c0,0,-90,70,-90,185c0,0,0,130,90,209c0,0,91,80,239,80c0,0,148,0,238,-80c0,0,91,-79,91,-209c0,0,0,-115,-91,-185c0,0,-24,-19,-52,-32c0,0,44,-20,79,-49c0,0,101,-81,101,-215c0,0,0,-151,-101,-243c0,0,-100,-90,-265,-90Z" 
id="f1_r"
transform="scale(0.001,-0.001)" />

<path d="M354,90c0,0,107,0,192,57c0,0,60,41,87,95c0,0,5,12,11,33c0,0,6,20,11,44l18,88c0,0,-62,-26,-132,-37L414,352c0,0,-84,-11,-131,-56c0,0,-47,-45,-47,-113c0,0,0,-44,31,-69c0,0,31,-24,87,-24ZM306,-20c0,0,-99,0,-156,47c0,0,-57,49,-57,134c0,0,1,117,81,198c0,0,80,81,211,98l164,20l70,10c0,0,35,6,59,30c0,0,23,24,31,66l1,2c0,0,13,64,-25,94c0,0,-39,31,-132,31c0,0,-83,0,-137,-37c0,0,-54,-37,-84,-114H210c0,0,46,137,138,201c0,0,92,63,245,63c0,0,149,0,211,-59c0,0,45,-44,44,-116c0,0,1,-30,-6,-63L749,136c0,0,-4,-19,6,-32c0,0,10,-12,30,-12c0,0,6,0,19,1c0,0,12,2,25,5L809,1c0,0,-19,-6,-43,-11c0,0,-22,-5,-36,-5c0,0,-73,0,-100,43c0,0,-16,27,-17,75C612,102,594,85,573,69c0,0,-120,-89,-267,-89Z" 
id="f3_1w"
transform="scale(0.001,-0.001)" />

<path d="M17,0L389,412L201,800H376L500,518L742,800H904L554,410L750,0H580L448,303L187,0Z" 
id="f3_2j"
transform="scale(0.001,-0.001)" />

<path d="M77,369l25,110H950L926,369Z" 
id="f3_99"
transform="scale(0.001,-0.001)" />

<path d="M0,0V74H784V0ZM357,164V519H0v73H357V948h72V592H784V519H429V164Z" 
id="f2_37"
transform="scale(0.001,-0.001)" />

<path d="M125,0V1051H268V115H799V0Z" 
id="f0_1c"
transform="scale(0.001,-0.001)" />

<path d="M106,0V620c0,0,0,85,-5,188H228c0,0,6,-138,6,-165h3c0,0,32,103,74,141c0,0,42,38,118,38c0,0,27,0,54,-7V692c0,0,-26,7,-71,7c0,0,-84,0,-128,-72c0,0,-44,-72,-44,-206V0Z" 
id="f0_2e"
transform="scale(0.001,-0.001)" />

<path d="M606,-14c0,0,-164,0,-284,65c0,0,-119,66,-182,189c0,0,-63,123,-63,291c0,0,0,255,137,396c0,0,137,140,386,140c0,0,174,0,283,-59c0,0,109,-59,168,-189L915,779c0,0,-44,90,-123,131c0,0,-79,41,-196,41c0,0,-182,0,-278,-110c0,0,-96,-110,-96,-310c0,0,0,-200,102,-315c0,0,102,-115,282,-115c0,0,103,0,193,31c0,0,89,31,144,85V407H629V526h445V164c0,0,-83,-85,-205,-132c0,0,-121,-46,-263,-46Z" 
id="f0_17"
transform="scale(0.001,-0.001)" />

<path d="M355,-14c0,0,-133,0,-194,65c0,0,-62,66,-62,219V808H234V296c0,0,0,-80,16,-124c0,0,16,-44,50,-64c0,0,34,-19,101,-19c0,0,97,0,153,66c0,0,55,67,55,185V808H744V172c0,0,0,-141,4,-172H621c0,0,0,4,-1,20c0,0,-1,17,-2,38c0,0,-1,21,-3,80h-2C613,138,567,55,506,20c0,0,-61,-34,-151,-34Z" 
id="f0_2h"
transform="scale(0.001,-0.001)" />

<path d="M395,89c0,0,115,0,166,79c0,0,51,79,51,246c0,0,0,160,-51,235c0,0,-51,75,-164,75c0,0,-102,0,-147,-75c0,0,-45,-75,-45,-244c0,0,0,-170,45,-243c0,0,45,-73,145,-73ZM361,-14c0,0,-153,0,-225,102c0,0,-72,103,-72,312c0,0,0,422,297,422c0,0,92,0,153,-33c0,0,61,-34,98,-107h2l-2,90v335H747V166c0,0,0,-126,4,-166H623c0,0,-2,12,-5,55c0,0,-3,44,-3,75h-3c0,0,-37,-78,-98,-111c0,0,-62,-33,-153,-33Z" 
id="f0_20"
transform="scale(0.001,-0.001)" />

<path d="M140,0V163H285V0Z" 
id="f0_i"
transform="scale(0.001,-0.001)" />


</defs>
</svg>