<?xml version="1.0" encoding="UTF-8" standalone="no"?>
<!DOCTYPE svg PUBLIC "-//W3C//DTD SVG 1.1//EN"
"http://www.w3.org/Graphics/SVG/1.1/DTD/svg11.dtd">
<svg viewBox="0 0 734 1106" version="1.1" xmlns="http://www.w3.org/2000/svg" xmlns:xlink="http://www.w3.org/1999/xlink">
<defs>
<style type="text/css"><![CDATA[
.g0_81{
fill: none;
stroke: #000000;
stroke-width: 0.7638889;
stroke-linecap: round;
stroke-linejoin: miter;
}
.g1_81{
fill: none;
stroke: #000000;
stroke-width: 0.7604667;
stroke-linecap: round;
stroke-linejoin: miter;
}
.g2_81{
fill: none;
stroke: #000000;
stroke-width: 0.7656;
stroke-linecap: round;
stroke-linejoin: miter;
}
.g3_81{
fill: none;
stroke: #000000;
stroke-width: 0.15277778;
stroke-linecap: round;
stroke-linejoin: miter;
}
.g4_81{
}
.g5_81{
fill: none;
stroke: #000000;
stroke-width: 1.0479945;
stroke-linecap: round;
stroke-linejoin: miter;
}
]]></style>
</defs>
<g fill="#D4D4D4" fill-opacity="0.56" >
<use xlink:href="#f0_1f" transform="matrix(50.9,-50.9,50.9,50.9,122.6,924.1)" />
<use xlink:href="#f0_2a" transform="matrix(50.9,-50.9,50.9,50.9,183.2,863.6)" />
<use xlink:href="#f0_28" transform="matrix(50.9,-50.9,50.9,50.9,226.4,820.3)" />
<use xlink:href="#f0_25" transform="matrix(50.9,-50.9,50.9,50.9,243.7,803.1)" />
<use xlink:href="#f0_2a" transform="matrix(50.9,-50.9,50.9,50.9,260.9,785.8)" />
<use xlink:href="#f0_21" transform="matrix(50.9,-50.9,50.9,50.9,304.2,742.5)" />
<use xlink:href="#f0_2k" transform="matrix(50.9,-50.9,50.9,50.9,347.4,699.3)" />
<use xlink:href="#f0_1x" transform="matrix(50.9,-50.9,50.9,50.9,386.3,660.4)" />
<use xlink:href="#f0_29" transform="matrix(50.9,-50.9,50.9,50.9,429.6,617.2)" />
<use xlink:href="#f0_2c" transform="matrix(50.9,-50.9,50.9,50.9,494.4,552.4)" />
<use xlink:href="#f0_2b" transform="matrix(50.9,-50.9,50.9,50.9,537.6,509.1)" />
<use xlink:href="#f0_25" transform="matrix(50.9,-50.9,50.9,50.9,580.8,465.9)" />
<use xlink:href="#f0_2a" transform="matrix(50.9,-50.9,50.9,50.9,598.1,448.6)" />
<use xlink:href="#f0_2g" transform="matrix(50.9,-50.9,50.9,50.9,641.4,405.4)" />
</g>
<g fill="#000000" >
<use xlink:href="#f1_1i" transform="matrix(12,0,0,12,122.3,105.7)" />
<use xlink:href="#f1_17" transform="matrix(12,0,0,12,132.1,105.7)" />
<use xlink:href="#f1_1e" transform="matrix(12,0,0,12,147,105.7)" />
<use xlink:href="#f1_1h" transform="matrix(12,0,0,12,163.5,105.7)" />
<use xlink:href="#f1_1j" transform="matrix(12,0,0,12,176.4,105.7)" />
<use xlink:href="#f1_10" transform="matrix(12,0,0,12,198.1,105.7)" />
<use xlink:href="#f1_1d" transform="matrix(12,0,0,12,212.3,105.7)" />
<use xlink:href="#f1_1i" transform="matrix(12,0,0,12,227.9,105.7)" />
<use xlink:href="#f1_1m" transform="matrix(12,0,0,12,237.7,105.7)" />
<use xlink:href="#f1_14" transform="matrix(12,0,0,12,255.6,105.7)" />
<use xlink:href="#f1_1h" transform="matrix(12,0,0,12,266.7,105.7)" />
<use xlink:href="#f1_1j" transform="matrix(12,0,0,12,289.9,105.7)" />
<use xlink:href="#f1_1o" transform="matrix(12,0,0,12,301.4,105.7)" />
<use xlink:href="#f1_1f" transform="matrix(12,0,0,12,313.5,105.7)" />
<use xlink:href="#f1_14" transform="matrix(12,0,0,12,325.4,105.7)" />
<use xlink:href="#f1_1g" transform="matrix(12,0,0,12,346.6,105.7)" />
<use xlink:href="#f1_1k" transform="matrix(12,0,0,12,363.2,105.7)" />
<use xlink:href="#f1_14" transform="matrix(12,0,0,12,378,105.7)" />
<use xlink:href="#f1_1i" transform="matrix(12,0,0,12,389.2,105.7)" />
<use xlink:href="#f1_1j" transform="matrix(12,0,0,12,399,105.7)" />
<use xlink:href="#f1_18" transform="matrix(12,0,0,12,410.5,105.7)" />
<use xlink:href="#f1_1e" transform="matrix(12,0,0,12,417.6,105.7)" />
<use xlink:href="#f1_1d" transform="matrix(12,0,0,12,434.1,105.7)" />
<use xlink:href="#f1_1i" transform="matrix(12,0,0,12,449.7,105.7)" />
<use xlink:href="#f1_b" transform="matrix(12,0,0,12,469.8,105.7)" />
<use xlink:href="#f1_n" transform="matrix(12,0,0,12,478.9,105.7)" />
<use xlink:href="#f1_1c" transform="matrix(12,0,0,12,501.3,105.7)" />
<use xlink:href="#f1_10" transform="matrix(12,0,0,12,519.2,105.7)" />
<use xlink:href="#f1_1h" transform="matrix(12,0,0,12,533.4,105.7)" />
<use xlink:href="#f1_1a" transform="matrix(12,0,0,12,546.3,105.7)" />
<use xlink:href="#f1_1i" transform="matrix(12,0,0,12,559.8,105.7)" />
<use xlink:href="#f1_c" transform="matrix(12,0,0,12,569.6,105.7)" />
<use xlink:href="#f2_o" transform="matrix(10.4,0,0,10.4,84.9,145.9)" />
<use xlink:href="#f2_h" transform="matrix(10.4,0,0,10.4,93.7,145.9)" />
<use xlink:href="#f2_b" transform="matrix(10.4,0,0,10.4,139.1,145.9)" />
<use xlink:href="#f2_24" transform="matrix(10.4,0,0,10.4,144.5,145.9)" />
<use xlink:href="#f2_c" transform="matrix(10.4,0,0,10.4,148,145.9)" />
<use xlink:href="#f2_1i" transform="matrix(10.4,0,0,10.4,171.6,145.9)" />
<use xlink:href="#f2_23" transform="matrix(10.4,0,0,10.4,182.2,145.9)" />
<use xlink:href="#f2_2a" transform="matrix(10.4,0,0,10.4,191.1,145.9)" />
<use xlink:href="#f2_2i" transform="matrix(10.4,0,0,10.4,200,145.9)" />
<use xlink:href="#f2_2f" transform="matrix(10.4,0,0,10.4,218.5,145.9)" />
<use xlink:href="#f2_23" transform="matrix(10.4,0,0,10.4,222.9,145.9)" />
<use xlink:href="#f2_1w" transform="matrix(10.4,0,0,10.4,231.8,145.9)" />
<use xlink:href="#f2_2f" transform="matrix(10.4,0,0,10.4,240.6,145.9)" />
<use xlink:href="#f2_k" transform="matrix(6.8,0,0,6.8,338.6,128.5)" />
<use xlink:href="#f2_2e" transform="matrix(7.8,0,0,7.9,315.7,135.6)" />
<use xlink:href="#f2_24" transform="matrix(7.8,0,0,7.9,321.7,135.6)" />
<use xlink:href="#f2_29" transform="matrix(7.8,0,0,7.9,324.3,135.6)" />
<use xlink:href="#f3_28" transform="matrix(7.8,0,0,7.9,301.9,135.6)" />
<use xlink:href="#f3_2j" transform="matrix(7.8,0,0,7.9,347.3,135.6)" />
<use xlink:href="#f3_2k" transform="matrix(10.4,0,0,10.5,254.8,145.2)" />
<use xlink:href="#f3_20" transform="matrix(10.4,0,0,10.5,289.5,145.2)" />
<use xlink:href="#f4_h" transform="matrix(6.8,0,0,6.8,332.9,128.5)" />
<use xlink:href="#f4_x" transform="matrix(10.4,0,0,10.5,273.1,145.2)" />
<use xlink:href="#f2_24" transform="matrix(10.4,0,0,10.4,363.4,145.9)" />
<use xlink:href="#f2_2e" transform="matrix(10.4,0,0,10.4,366.9,145.9)" />
<use xlink:href="#f2_1w" transform="matrix(10.4,0,0,10.4,382,145.9)" />
<use xlink:href="#f2_2e" transform="matrix(10.4,0,0,10.4,397.9,145.9)" />
<use xlink:href="#f2_2a" transform="matrix(10.4,0,0,10.4,405.8,145.9)" />
<use xlink:href="#f2_27" transform="matrix(10.4,0,0,10.4,414.7,145.9)" />
<use xlink:href="#f2_2g" transform="matrix(10.4,0,0,10.4,418.2,145.9)" />
<use xlink:href="#f2_2f" transform="matrix(10.4,0,0,10.4,427.1,145.9)" />
<use xlink:href="#f2_24" transform="matrix(10.4,0,0,10.4,431.5,145.9)" />
<use xlink:href="#f2_2a" transform="matrix(10.4,0,0,10.4,435.1,145.9)" />
<use xlink:href="#f2_29" transform="matrix(10.4,0,0,10.4,444,145.9)" />
<use xlink:href="#f2_2a" transform="matrix(10.4,0,0,10.4,460,145.9)" />
<use xlink:href="#f2_21" transform="matrix(10.4,0,0,10.4,468.8,145.9)" />
<use xlink:href="#f4_c" transform="matrix(10.5,0,0,16.2,173.9,200)" />
<use xlink:href="#f4_d" transform="matrix(10.5,0,0,16.2,231.5,200.1)" />
</g>
<path d="M240.8,194.1h32.3m37.3,0h19.8" class="g0_81" />
<g fill="#000000" >
<use xlink:href="#f2_l" transform="matrix(7.9,0,0,7.9,254.7,178.4)" />
<use xlink:href="#f2_l" transform="matrix(7.9,0,0,7.9,369.7,188.8)" />
<use xlink:href="#f2_l" transform="matrix(7.9,0,0,7.9,221.2,194.1)" />
<use xlink:href="#f2_l" transform="matrix(7.9,0,0,7.9,263.4,205.8)" />
<use xlink:href="#f2_j" transform="matrix(10.5,0,0,10.5,413,198.4)" />
<use xlink:href="#f2_h" transform="matrix(10.5,0,0,10.5,422,198.4)" />
<use xlink:href="#f2_k" transform="matrix(10.5,0,0,10.5,179.5,203.7)" />
<use xlink:href="#f3_1z" transform="matrix(10.5,0,0,10.5,240.8,188)" />
<use xlink:href="#f3_2k" transform="matrix(10.5,0,0,10.5,262.4,188)" />
<use xlink:href="#f3_1z" transform="matrix(10.5,0,0,10.5,310.5,188)" />
<use xlink:href="#f3_2k" transform="matrix(10.5,0,0,10.5,319.4,188)" />
<use xlink:href="#f3_2j" transform="matrix(10.5,0,0,10.5,296.1,198.4)" />
<use xlink:href="#f3_28" transform="matrix(10.5,0,0,10.5,352.5,198.4)" />
<use xlink:href="#f3_2k" transform="matrix(10.5,0,0,10.5,377.4,198.4)" />
<use xlink:href="#f3_2j" transform="matrix(10.5,0,0,10.5,208.2,203.7)" />
<use xlink:href="#f3_1z" transform="matrix(10.5,0,0,10.5,310.7,209.2)" />
<use xlink:href="#f3_2j" transform="matrix(10.5,0,0,10.5,319.6,209.2)" />
<use xlink:href="#f3_1z" transform="matrix(10.5,0,0,10.5,241.4,215.4)" />
<use xlink:href="#f3_2j" transform="matrix(10.5,0,0,10.5,250.3,215.4)" />
<use xlink:href="#f4_h" transform="matrix(10.5,0,0,10.5,280.3,198.4)" />
<use xlink:href="#f4_h" transform="matrix(10.5,0,0,10.5,337.5,198.4)" />
<use xlink:href="#f4_x" transform="matrix(10.5,0,0,10.5,395.8,198.4)" />
<use xlink:href="#f4_h" transform="matrix(10.5,0,0,10.5,192.5,203.7)" />
<use xlink:href="#f2_b" transform="matrix(10.4,0,0,10.4,135.5,249.5)" />
<use xlink:href="#f2_24" transform="matrix(10.4,0,0,10.4,140.8,249.5)" />
<use xlink:href="#f2_24" transform="matrix(10.4,0,0,10.4,144.3,249.5)" />
<use xlink:href="#f2_c" transform="matrix(10.4,0,0,10.4,147.9,249.5)" />
<use xlink:href="#f2_1i" transform="matrix(10.4,0,0,10.4,171.6,249.5)" />
<use xlink:href="#f2_23" transform="matrix(10.4,0,0,10.4,182.2,249.5)" />
<use xlink:href="#f2_2a" transform="matrix(10.4,0,0,10.4,191.1,249.5)" />
<use xlink:href="#f2_2i" transform="matrix(10.4,0,0,10.4,200,249.5)" />
<use xlink:href="#f2_2f" transform="matrix(10.4,0,0,10.4,218.6,249.5)" />
<use xlink:href="#f2_23" transform="matrix(10.4,0,0,10.4,223.1,249.5)" />
<use xlink:href="#f2_1w" transform="matrix(10.4,0,0,10.4,231.9,249.5)" />
<use xlink:href="#f2_2f" transform="matrix(10.4,0,0,10.4,240.8,249.5)" />
<use xlink:href="#f3_2k" transform="matrix(10.4,0,0,10.4,252.1,249.5)" />
<use xlink:href="#f2_w" transform="matrix(10.4,0,0,10.4,267.3,249.5)" />
<use xlink:href="#f2_2e" transform="matrix(10.4,0,0,10.4,283.7,249.5)" />
<use xlink:href="#f2_24" transform="matrix(10.4,0,0,10.4,291.7,249.5)" />
<use xlink:href="#f2_29" transform="matrix(10.4,0,0,10.4,295.3,249.5)" />
<use xlink:href="#f2_b" transform="matrix(10.4,0,0,10.4,304.1,249.5)" />
<use xlink:href="#f2_2e" transform="matrix(10.4,0,0,10.4,309.4,249.5)" />
<use xlink:href="#f2_24" transform="matrix(10.4,0,0,10.4,317.4,249.5)" />
<use xlink:href="#f2_29" transform="matrix(10.4,0,0,10.4,321,249.5)" />
<use xlink:href="#f2_2j" transform="matrix(10.4,0,0,10.4,337,249.5)" />
<use xlink:href="#f3_c" transform="matrix(10.4,0,0,10.4,345,249.5)" />
<use xlink:href="#f2_24" transform="matrix(10.4,0,0,10.4,357.5,249.5)" />
<use xlink:href="#f2_2e" transform="matrix(10.4,0,0,10.4,361,249.5)" />
<use xlink:href="#f2_1w" transform="matrix(10.4,0,0,10.4,376.1,249.5)" />
<use xlink:href="#f2_2e" transform="matrix(10.4,0,0,10.4,392.2,249.5)" />
<use xlink:href="#f2_2a" transform="matrix(10.4,0,0,10.4,400.1,249.5)" />
<use xlink:href="#f2_27" transform="matrix(10.4,0,0,10.4,409,249.5)" />
<use xlink:href="#f2_2g" transform="matrix(10.4,0,0,10.4,412.5,249.5)" />
<use xlink:href="#f2_2f" transform="matrix(10.4,0,0,10.4,421.4,249.5)" />
<use xlink:href="#f2_24" transform="matrix(10.4,0,0,10.4,425.8,249.5)" />
<use xlink:href="#f2_2a" transform="matrix(10.4,0,0,10.4,429.4,249.5)" />
<use xlink:href="#f2_29" transform="matrix(10.4,0,0,10.4,438.3,249.5)" />
<use xlink:href="#f2_2a" transform="matrix(10.4,0,0,10.4,454.5,249.5)" />
<use xlink:href="#f2_21" transform="matrix(10.4,0,0,10.4,463.3,249.5)" />
<use xlink:href="#f2_1z" transform="matrix(10.4,0,0,10.4,474.9,249.5)" />
<use xlink:href="#f2_24" transform="matrix(10.4,0,0,10.4,483.8,249.5)" />
<use xlink:href="#f2_21" transform="matrix(10.4,0,0,10.4,487.3,249.5)" />
<use xlink:href="#f2_21" transform="matrix(10.4,0,0,10.4,491.7,249.5)" />
<use xlink:href="#f2_20" transform="matrix(10.4,0,0,10.4,496.2,249.5)" />
<use xlink:href="#f2_2d" transform="matrix(10.4,0,0,10.4,505.1,249.5)" />
<use xlink:href="#f2_20" transform="matrix(10.4,0,0,10.4,510.4,249.5)" />
<use xlink:href="#f2_29" transform="matrix(10.4,0,0,10.4,519.2,249.5)" />
<use xlink:href="#f2_2f" transform="matrix(10.4,0,0,10.4,528.1,249.5)" />
<use xlink:href="#f2_24" transform="matrix(10.4,0,0,10.4,532.5,249.5)" />
<use xlink:href="#f2_1w" transform="matrix(10.4,0,0,10.4,536.1,249.5)" />
<use xlink:href="#f2_27" transform="matrix(10.4,0,0,10.4,544.9,249.5)" />
<use xlink:href="#f2_20" transform="matrix(10.4,0,0,10.4,555.6,249.5)" />
<use xlink:href="#f2_2c" transform="matrix(10.4,0,0,10.4,564.5,249.5)" />
<use xlink:href="#f2_2g" transform="matrix(10.4,0,0,10.4,573.4,249.5)" />
<use xlink:href="#f2_1w" transform="matrix(10.4,0,0,10.4,582.2,249.5)" />
<use xlink:href="#f2_2f" transform="matrix(10.4,0,0,10.4,591.1,249.5)" />
<use xlink:href="#f2_24" transform="matrix(10.4,0,0,10.4,595.5,249.5)" />
<use xlink:href="#f2_2a" transform="matrix(10.4,0,0,10.4,599.1,249.5)" />
<use xlink:href="#f2_29" transform="matrix(10.4,0,0,10.4,607.9,249.5)" />
</g>
<path d="M284.6,298.4H317" class="g0_81" />
<g fill="#000000" >
<use xlink:href="#f4_c" transform="matrix(10.4,0,0,11.4,339.2,302.6)" />
<use xlink:href="#f4_d" transform="matrix(10.4,0,0,11.4,384,302.6)" />
</g>
<path d="M393.7,298.4h19.8" class="g0_81" />
<g fill="#000000" >
<use xlink:href="#f2_l" transform="matrix(7.9,0,0,7.9,298.6,282.7)" />
<use xlink:href="#f2_l" transform="matrix(7.9,0,0,7.9,479.3,293.1)" />
<use xlink:href="#f2_l" transform="matrix(7.9,0,0,7.9,307.2,310.1)" />
<use xlink:href="#f2_1y" transform="matrix(10.5,0,0,10.5,451.1,302.7)" />
<use xlink:href="#f2_2a" transform="matrix(10.5,0,0,10.5,459.1,302.7)" />
<use xlink:href="#f2_2e" transform="matrix(10.5,0,0,10.5,468.1,302.7)" />
<use xlink:href="#f2_j" transform="matrix(10.5,0,0,10.5,527.5,302.7)" />
<use xlink:href="#f2_h" transform="matrix(10.5,0,0,10.5,536.4,302.7)" />
<use xlink:href="#f2_2f" transform="matrix(10.5,0,0,10.5,346.7,304.6)" />
<use xlink:href="#f2_1w" transform="matrix(10.5,0,0,10.5,351.2,304.6)" />
<use xlink:href="#f2_29" transform="matrix(10.5,0,0,10.5,360.1,304.6)" />
<use xlink:href="#f4_f" transform="matrix(10.5,0,0,10.5,324.2,302.7)" />
<use xlink:href="#f4_f" transform="matrix(10.5,0,0,10.5,420.9,302.7)" />
<use xlink:href="#f4_x" transform="matrix(10.5,0,0,10.5,510.4,302.7)" />
<use xlink:href="#f3_1z" transform="matrix(10.5,0,0,10.5,284.6,292.3)" />
<use xlink:href="#f3_2k" transform="matrix(10.5,0,0,10.5,306.2,292.3)" />
<use xlink:href="#f3_1z" transform="matrix(10.5,0,0,10.5,393.9,292.3)" />
<use xlink:href="#f3_2k" transform="matrix(10.5,0,0,10.5,402.8,292.3)" />
<use xlink:href="#f3_2k" transform="matrix(10.5,0,0,10.5,436.9,302.7)" />
<use xlink:href="#f3_2j" transform="matrix(10.5,0,0,10.5,492.2,302.7)" />
<use xlink:href="#f3_2j" transform="matrix(10.5,0,0,10.5,372.9,304.6)" />
<use xlink:href="#f3_1z" transform="matrix(10.5,0,0,10.5,394,313.5)" />
<use xlink:href="#f3_2j" transform="matrix(10.5,0,0,10.5,403,313.5)" />
<use xlink:href="#f3_1z" transform="matrix(10.5,0,0,10.5,285.2,319.7)" />
<use xlink:href="#f3_2j" transform="matrix(10.5,0,0,10.5,294.2,319.7)" />
<use xlink:href="#f2_b" transform="matrix(10.4,0,0,10.4,132,373)" />
<use xlink:href="#f2_24" transform="matrix(10.4,0,0,10.4,137.3,373)" />
<use xlink:href="#f2_24" transform="matrix(10.4,0,0,10.4,140.8,373)" />
<use xlink:href="#f2_24" transform="matrix(10.4,0,0,10.4,144.4,373)" />
<use xlink:href="#f2_c" transform="matrix(10.4,0,0,10.4,147.9,373)" />
<use xlink:href="#f2_1i" transform="matrix(10.4,0,0,10.4,171.6,373)" />
<use xlink:href="#f2_23" transform="matrix(10.4,0,0,10.4,182.2,373)" />
<use xlink:href="#f2_2a" transform="matrix(10.4,0,0,10.4,191.1,373)" />
<use xlink:href="#f2_2i" transform="matrix(10.4,0,0,10.4,200,373)" />
<use xlink:href="#f2_2f" transform="matrix(10.4,0,0,10.4,215.9,373)" />
<use xlink:href="#f2_23" transform="matrix(10.4,0,0,10.4,220.4,373)" />
<use xlink:href="#f2_1w" transform="matrix(10.4,0,0,10.4,229.2,373)" />
<use xlink:href="#f2_2f" transform="matrix(10.4,0,0,10.4,238.1,373)" />
</g>
<path d="M328.3,368.9h12.4" class="g1_81" />
<g fill="#000000" >
<use xlink:href="#f4_x" transform="matrix(10.4,0,0,10.5,267.7,373.2)" />
<use xlink:href="#f4_f" transform="matrix(10.4,0,0,10.5,312.2,373.2)" />
<use xlink:href="#f3_11" transform="matrix(10.4,0,0,10.5,328.3,362.7)" />
<use xlink:href="#f3_2k" transform="matrix(10.4,0,0,10.5,249.4,373.2)" />
<use xlink:href="#f3_10" transform="matrix(10.4,0,0,10.5,285.1,373.2)" />
<use xlink:href="#f3_2j" transform="matrix(10.4,0,0,10.5,295.7,373.2)" />
<use xlink:href="#f3_2j" transform="matrix(10.4,0,0,10.5,329.8,383.9)" />
<use xlink:href="#f2_24" transform="matrix(10.4,0,0,10.4,348.4,373)" />
<use xlink:href="#f2_2e" transform="matrix(10.4,0,0,10.4,351.9,373)" />
<use xlink:href="#f2_1w" transform="matrix(10.4,0,0,10.4,364.3,373)" />
<use xlink:href="#f2_2e" transform="matrix(10.4,0,0,10.4,377.6,373)" />
<use xlink:href="#f2_2a" transform="matrix(10.4,0,0,10.4,385.6,373)" />
<use xlink:href="#f2_27" transform="matrix(10.4,0,0,10.4,394.5,373)" />
<use xlink:href="#f2_2g" transform="matrix(10.4,0,0,10.4,398,373)" />
<use xlink:href="#f2_2f" transform="matrix(10.4,0,0,10.4,406.9,373)" />
<use xlink:href="#f2_24" transform="matrix(10.4,0,0,10.4,411.3,373)" />
<use xlink:href="#f2_2a" transform="matrix(10.4,0,0,10.4,414.8,373)" />
<use xlink:href="#f2_29" transform="matrix(10.4,0,0,10.4,423.7,373)" />
<use xlink:href="#f2_2a" transform="matrix(10.4,0,0,10.4,437,373)" />
<use xlink:href="#f2_21" transform="matrix(10.4,0,0,10.4,445.9,373)" />
</g>
<path d="M457.4,367.9h51.9m37.2,0h19.8" class="g2_81" />
<g fill="#000000" >
<use xlink:href="#f2_l" transform="matrix(7.9,0,0,7.9,470.8,352.2)" />
<use xlink:href="#f2_l" transform="matrix(7.9,0,0,7.9,491.3,352.2)" />
<use xlink:href="#f2_l" transform="matrix(7.9,0,0,7.9,489.6,379.6)" />
<use xlink:href="#f2_j" transform="matrix(10.5,0,0,10.5,624.6,372.2)" />
<use xlink:href="#f2_h" transform="matrix(10.5,0,0,10.5,633.6,372.2)" />
<use xlink:href="#f3_2j" transform="matrix(10.5,0,0,10.5,458.8,361.8)" />
<use xlink:href="#f3_1z" transform="matrix(10.5,0,0,10.5,477.8,361.8)" />
<use xlink:href="#f3_2k" transform="matrix(10.5,0,0,10.5,499,361.8)" />
<use xlink:href="#f3_1z" transform="matrix(10.5,0,0,10.5,546.9,361.8)" />
<use xlink:href="#f3_2k" transform="matrix(10.5,0,0,10.5,555.9,361.8)" />
<use xlink:href="#f3_2j" transform="matrix(10.5,0,0,10.5,533,372.2)" />
<use xlink:href="#f3_2k" transform="matrix(10.5,0,0,10.5,589.4,372.2)" />
<use xlink:href="#f3_1z" transform="matrix(10.5,0,0,10.5,547.3,383)" />
<use xlink:href="#f3_2j" transform="matrix(10.5,0,0,10.5,556.2,383)" />
<use xlink:href="#f3_1z" transform="matrix(10.5,0,0,10.5,468.6,389.2)" />
<use xlink:href="#f3_2j" transform="matrix(10.5,0,0,10.5,477.5,389.2)" />
<use xlink:href="#f4_f" transform="matrix(10.5,0,0,10.5,516.5,372.2)" />
<use xlink:href="#f4_h" transform="matrix(10.5,0,0,10.5,573.5,372.2)" />
<use xlink:href="#f4_x" transform="matrix(10.5,0,0,10.5,607.4,372.2)" />
<use xlink:href="#f2_b" transform="matrix(10.4,0,0,10.4,130.9,417.9)" />
<use xlink:href="#f2_24" transform="matrix(10.4,0,0,10.4,136.2,417.9)" />
<use xlink:href="#f2_2h" transform="matrix(10.4,0,0,10.4,139.7,417.9)" />
<use xlink:href="#f2_c" transform="matrix(10.4,0,0,10.4,147.7,417.9)" />
<use xlink:href="#f2_1i" transform="matrix(10.4,0,0,10.4,171.6,417.9)" />
<use xlink:href="#f2_23" transform="matrix(10.4,0,0,10.4,182.2,417.9)" />
<use xlink:href="#f2_2a" transform="matrix(10.4,0,0,10.4,191.1,417.9)" />
<use xlink:href="#f2_2i" transform="matrix(10.4,0,0,10.4,200,417.9)" />
<use xlink:href="#f2_2f" transform="matrix(10.4,0,0,10.4,218.3,417.9)" />
<use xlink:href="#f2_23" transform="matrix(10.4,0,0,10.4,222.7,417.9)" />
<use xlink:href="#f2_1w" transform="matrix(10.4,0,0,10.4,231.6,417.9)" />
<use xlink:href="#f2_2f" transform="matrix(10.4,0,0,10.4,240.4,417.9)" />
<use xlink:href="#f3_2k" transform="matrix(10.4,0,0,10.4,251.5,417.9)" />
<use xlink:href="#f2_w" transform="matrix(10.4,0,0,10.4,266.6,417.9)" />
<use xlink:href="#f3_1w" transform="matrix(10.4,0,0,10.4,282.9,417.9)" />
<use xlink:href="#f2_1y" transform="matrix(10.4,0,0,10.4,298.6,417.9)" />
<use xlink:href="#f2_2a" transform="matrix(10.4,0,0,10.4,306.6,417.9)" />
<use xlink:href="#f2_2e" transform="matrix(10.4,0,0,10.4,315.5,417.9)" />
<use xlink:href="#f2_b" transform="matrix(10.4,0,0,10.4,330.2,417.9)" />
<use xlink:href="#f2_27" transform="matrix(10.4,0,0,10.4,335.6,417.9)" />
<use xlink:href="#f2_2a" transform="matrix(10.4,0,0,10.4,339.1,417.9)" />
<use xlink:href="#f2_22" transform="matrix(10.4,0,0,10.4,348,417.9)" />
<use xlink:href="#f3_2j" transform="matrix(10.4,0,0,10.4,363.7,417.9)" />
<use xlink:href="#f2_c" transform="matrix(10.4,0,0,10.4,371.8,417.9)" />
<use xlink:href="#f2_e" transform="matrix(10.4,0,0,10.4,383.9,417.9)" />
<use xlink:href="#f3_1x" transform="matrix(10.4,0,0,10.4,400.2,417.9)" />
<use xlink:href="#f2_2e" transform="matrix(10.4,0,0,10.4,416,417.9)" />
<use xlink:href="#f2_24" transform="matrix(10.4,0,0,10.4,424,417.9)" />
<use xlink:href="#f2_29" transform="matrix(10.4,0,0,10.4,427.5,417.9)" />
<use xlink:href="#f2_b" transform="matrix(10.4,0,0,10.4,443.3,417.9)" />
<use xlink:href="#f2_27" transform="matrix(10.4,0,0,10.4,448.6,417.9)" />
<use xlink:href="#f2_2a" transform="matrix(10.4,0,0,10.4,452.2,417.9)" />
<use xlink:href="#f2_22" transform="matrix(10.4,0,0,10.4,461.1,417.9)" />
<use xlink:href="#f3_2j" transform="matrix(10.4,0,0,10.4,476.7,417.9)" />
<use xlink:href="#f2_c" transform="matrix(10.4,0,0,10.4,484.7,417.9)" />
<use xlink:href="#f2_24" transform="matrix(10.4,0,0,10.4,497,417.9)" />
<use xlink:href="#f2_2e" transform="matrix(10.4,0,0,10.4,500.5,417.9)" />
<use xlink:href="#f2_1w" transform="matrix(10.4,0,0,10.4,515.3,417.9)" />
<use xlink:href="#f2_2e" transform="matrix(10.4,0,0,10.4,531.1,417.9)" />
<use xlink:href="#f2_2a" transform="matrix(10.4,0,0,10.4,539.1,417.9)" />
<use xlink:href="#f2_27" transform="matrix(10.4,0,0,10.4,548,417.9)" />
<use xlink:href="#f2_2g" transform="matrix(10.4,0,0,10.4,551.5,417.9)" />
<use xlink:href="#f2_2f" transform="matrix(10.4,0,0,10.4,560.4,417.9)" />
<use xlink:href="#f2_24" transform="matrix(10.4,0,0,10.4,564.8,417.9)" />
<use xlink:href="#f2_2a" transform="matrix(10.4,0,0,10.4,568.4,417.9)" />
<use xlink:href="#f2_29" transform="matrix(10.4,0,0,10.4,577.2,417.9)" />
<use xlink:href="#f2_2a" transform="matrix(10.4,0,0,10.4,593.1,417.9)" />
<use xlink:href="#f2_21" transform="matrix(10.4,0,0,10.4,601.9,417.9)" />
</g>
<path d="M309.8,466.9h32m37.1,0h19.9" class="g2_81" />
<g fill="#000000" >
<use xlink:href="#f2_l" transform="matrix(7.9,0,0,7.9,323.7,451.2)" />
<use xlink:href="#f2_l" transform="matrix(7.9,0,0,7.9,296.9,461.6)" />
<use xlink:href="#f2_l" transform="matrix(7.9,0,0,7.9,332,478.6)" />
<use xlink:href="#f2_j" transform="matrix(10.5,0,0,10.5,457.4,471.2)" />
<use xlink:href="#f2_h" transform="matrix(10.5,0,0,10.5,466.3,471.2)" />
<use xlink:href="#f3_1z" transform="matrix(10.5,0,0,10.5,310.3,460.8)" />
<use xlink:href="#f3_2k" transform="matrix(10.5,0,0,10.5,331.5,460.8)" />
<use xlink:href="#f3_1z" transform="matrix(10.5,0,0,10.5,379.4,460.8)" />
<use xlink:href="#f3_2k" transform="matrix(10.5,0,0,10.5,388.3,460.8)" />
<use xlink:href="#f3_2j" transform="matrix(10.5,0,0,10.5,284.9,471.2)" />
<use xlink:href="#f3_2j" transform="matrix(10.5,0,0,10.5,365.4,471.2)" />
<use xlink:href="#f3_2k" transform="matrix(10.5,0,0,10.5,422.2,471.2)" />
<use xlink:href="#f3_1z" transform="matrix(10.5,0,0,10.5,379.8,482)" />
<use xlink:href="#f3_2j" transform="matrix(10.5,0,0,10.5,388.7,482)" />
<use xlink:href="#f3_1z" transform="matrix(10.5,0,0,10.5,311,488.2)" />
<use xlink:href="#f3_2j" transform="matrix(10.5,0,0,10.5,320,488.2)" />
<use xlink:href="#f4_f" transform="matrix(10.5,0,0,10.5,349,471.2)" />
<use xlink:href="#f4_f" transform="matrix(10.5,0,0,10.5,406,471.2)" />
<use xlink:href="#f4_x" transform="matrix(10.5,0,0,10.5,440.1,471.2)" />
<use xlink:href="#f2_b" transform="matrix(10.4,0,0,10.4,134.6,525.9)" />
<use xlink:href="#f2_2h" transform="matrix(10.4,0,0,10.4,139.9,525.9)" />
<use xlink:href="#f2_c" transform="matrix(10.4,0,0,10.4,148.1,525.9)" />
<use xlink:href="#f2_1l" transform="matrix(10.4,0,0,10.4,171.6,525.9)" />
<use xlink:href="#f2_20" transform="matrix(10.4,0,0,10.4,182.8,525.9)" />
<use xlink:href="#f2_2d" transform="matrix(10.4,0,0,10.4,192.1,525.9)" />
<use xlink:href="#f2_24" transform="matrix(10.4,0,0,10.4,198.2,525.9)" />
<use xlink:href="#f2_21" transform="matrix(10.4,0,0,10.4,202.2,525.9)" />
<use xlink:href="#f2_2k" transform="matrix(10.4,0,0,10.4,207.1,525.9)" />
<use xlink:href="#f2_2f" transform="matrix(10.4,0,0,10.4,225.3,525.9)" />
<use xlink:href="#f2_23" transform="matrix(10.4,0,0,10.4,230.2,525.9)" />
<use xlink:href="#f2_1w" transform="matrix(10.4,0,0,10.4,239.6,525.9)" />
<use xlink:href="#f2_2f" transform="matrix(10.4,0,0,10.4,248.9,525.9)" />
</g>
<path d="M366.3,521.2l1.6,-1.1l3.9,7.8L376,507.1h59.6" class="g3_81" />
<path fill-rule="evenodd" d="M366.1,521l2.1,-1.5l3.6,6.5l4,-19.3h59.8v.8H376.3l-4.1,20.4h-.8l-3.9,-7.2l-1.1,.7l-.3,-.4Z" class="g4_81" />
<g fill="#000000" >
<use xlink:href="#f4_c" transform="matrix(10.5,0,0,18.5,326,524.2)" />
<use xlink:href="#f4_d" transform="matrix(10.5,0,0,18.5,437.3,524.2)" />
<use xlink:href="#f2_l" transform="matrix(7.4,0,0,7.4,386.9,519)" />
<use xlink:href="#f2_l" transform="matrix(7.4,0,0,7.4,426.5,519)" />
<use xlink:href="#f2_27" transform="matrix(10.5,0,0,10.5,301.5,526.2)" />
<use xlink:href="#f2_2a" transform="matrix(10.5,0,0,10.5,305,526.2)" />
<use xlink:href="#f2_22" transform="matrix(10.5,0,0,10.5,314,526.2)" />
<use xlink:href="#f3_2k" transform="matrix(10.5,0,0,10.5,266.3,526.2)" />
<use xlink:href="#f3_2j" transform="matrix(10.5,0,0,10.5,333.4,526.2)" />
<use xlink:href="#f3_2j" transform="matrix(10.5,0,0,10.5,376.7,526.2)" />
<use xlink:href="#f3_1w" transform="matrix(10.5,0,0,10.5,416.8,526.2)" />
<use xlink:href="#f4_x" transform="matrix(10.5,0,0,10.5,284.8,526.2)" />
<use xlink:href="#f4_f" transform="matrix(10.5,0,0,10.5,349.9,526.2)" />
<use xlink:href="#f4_f" transform="matrix(10.5,0,0,10.5,401.6,526.2)" />
<use xlink:href="#f2_2e" transform="matrix(10.4,0,0,10.4,455.6,525.9)" />
<use xlink:href="#f2_1w" transform="matrix(10.4,0,0,10.4,464.4,525.9)" />
<use xlink:href="#f2_2f" transform="matrix(10.4,0,0,10.4,473.7,525.9)" />
<use xlink:href="#f2_24" transform="matrix(10.4,0,0,10.4,478.7,525.9)" />
<use xlink:href="#f2_2e" transform="matrix(10.4,0,0,10.4,482.9,525.9)" />
<use xlink:href="#f2_21" transform="matrix(10.4,0,0,10.4,491.5,525.9)" />
<use xlink:href="#f2_24" transform="matrix(10.4,0,0,10.4,496.4,525.9)" />
<use xlink:href="#f2_20" transform="matrix(10.4,0,0,10.4,500.5,525.9)" />
<use xlink:href="#f2_2e" transform="matrix(10.4,0,0,10.4,510,525.9)" />
<use xlink:href="#f2_2f" transform="matrix(10.4,0,0,10.4,528,525.9)" />
<use xlink:href="#f2_23" transform="matrix(10.4,0,0,10.4,533.1,525.9)" />
<use xlink:href="#f2_20" transform="matrix(10.4,0,0,10.4,542.5,525.9)" />
<use xlink:href="#f2_1z" transform="matrix(10.4,0,0,10.4,561.3,525.9)" />
<use xlink:href="#f2_24" transform="matrix(10.4,0,0,10.4,570.7,525.9)" />
<use xlink:href="#f2_21" transform="matrix(10.4,0,0,10.4,574.7,525.9)" />
<use xlink:href="#f2_21" transform="matrix(10.4,0,0,10.4,579.9,525.9)" />
<use xlink:href="#f2_20" transform="matrix(10.4,0,0,10.4,584.8,525.9)" />
<use xlink:href="#f2_2d" transform="matrix(10.4,0,0,10.4,594.1,525.9)" />
<use xlink:href="#f2_20" transform="matrix(10.4,0,0,10.4,600,525.9)" />
<use xlink:href="#f2_29" transform="matrix(10.4,0,0,10.4,609.6,525.9)" />
<use xlink:href="#f2_2f" transform="matrix(10.4,0,0,10.4,618.9,525.9)" />
<use xlink:href="#f2_24" transform="matrix(10.4,0,0,10.4,623.8,525.9)" />
<use xlink:href="#f2_1w" transform="matrix(10.4,0,0,10.4,628.1,525.9)" />
<use xlink:href="#f2_27" transform="matrix(10.4,0,0,10.4,637.4,525.9)" />
<use xlink:href="#f2_20" transform="matrix(10.4,0,0,10.4,171.6,549.6)" />
<use xlink:href="#f2_2c" transform="matrix(10.4,0,0,10.4,180.5,549.6)" />
<use xlink:href="#f2_2g" transform="matrix(10.4,0,0,10.4,189.3,549.6)" />
<use xlink:href="#f2_1w" transform="matrix(10.4,0,0,10.4,198.2,549.6)" />
<use xlink:href="#f2_2f" transform="matrix(10.4,0,0,10.4,207.1,549.6)" />
<use xlink:href="#f2_24" transform="matrix(10.4,0,0,10.4,211.5,549.6)" />
<use xlink:href="#f2_2a" transform="matrix(10.4,0,0,10.4,215,549.6)" />
<use xlink:href="#f2_29" transform="matrix(10.4,0,0,10.4,223.9,549.6)" />
<use xlink:href="#f2_t" transform="matrix(10.4,0,0,10.4,240.8,549.6)" />
<use xlink:href="#f4_c" transform="matrix(10.6,0,0,14.8,283.9,597.2)" />
<use xlink:href="#f4_d" transform="matrix(10.6,0,0,14.8,350.1,597.2)" />
</g>
<path d="M359.5,595.4h29.7m37.5,0H447" class="g5_81" />
<g fill="#000000" >
<use xlink:href="#f2_l" transform="matrix(7.5,0,0,7.4,370.9,581.9)" />
<use xlink:href="#f2_l" transform="matrix(7.5,0,0,7.4,299.7,592.4)" />
<use xlink:href="#f2_l" transform="matrix(7.5,0,0,7.4,340.4,592.4)" />
<use xlink:href="#f2_l" transform="matrix(7.5,0,0,7.4,379.6,606.5)" />
<use xlink:href="#f2_j" transform="matrix(10.6,0,0,10.6,473,599.6)" />
<use xlink:href="#f2_h" transform="matrix(10.6,0,0,10.6,482.1,599.6)" />
<use xlink:href="#f3_1z" transform="matrix(10.6,0,0,10.6,359.7,589.2)" />
<use xlink:href="#f3_2k" transform="matrix(10.6,0,0,10.6,378.1,589.2)" />
<use xlink:href="#f3_1z" transform="matrix(10.6,0,0,10.6,426.9,589.2)" />
<use xlink:href="#f3_2k" transform="matrix(10.6,0,0,10.6,436,589.2)" />
<use xlink:href="#f3_1w" transform="matrix(10.6,0,0,10.6,290,599.6)" />
<use xlink:href="#f3_2j" transform="matrix(10.6,0,0,10.6,330.2,599.6)" />
<use xlink:href="#f3_2j" transform="matrix(10.6,0,0,10.6,412.3,599.6)" />
<use xlink:href="#f3_1z" transform="matrix(10.6,0,0,10.6,427.1,612.1)" />
<use xlink:href="#f3_2j" transform="matrix(10.6,0,0,10.6,436.1,612.1)" />
<use xlink:href="#f3_1z" transform="matrix(10.6,0,0,10.6,360.4,613.7)" />
<use xlink:href="#f3_2j" transform="matrix(10.6,0,0,10.6,369.4,613.7)" />
<use xlink:href="#f4_f" transform="matrix(10.6,0,0,10.6,314.2,599.6)" />
<use xlink:href="#f4_f" transform="matrix(10.6,0,0,10.6,396.2,599.6)" />
<use xlink:href="#f4_x" transform="matrix(10.6,0,0,10.6,455.7,599.6)" />
<use xlink:href="#f2_b" transform="matrix(10.4,0,0,10.4,130.9,644.5)" />
<use xlink:href="#f2_2h" transform="matrix(10.4,0,0,10.4,136.2,644.5)" />
<use xlink:href="#f2_24" transform="matrix(10.4,0,0,10.4,144.4,644.5)" />
<use xlink:href="#f2_c" transform="matrix(10.4,0,0,10.4,148,644.5)" />
<use xlink:href="#f2_15" transform="matrix(10.4,0,0,10.4,171.6,644.5)" />
<use xlink:href="#f2_24" transform="matrix(10.4,0,0,10.4,181.3,644.5)" />
<use xlink:href="#f2_29" transform="matrix(10.4,0,0,10.4,184.9,644.5)" />
<use xlink:href="#f2_1z" transform="matrix(10.4,0,0,10.4,193.7,644.5)" />
<use xlink:href="#f2_2f" transform="matrix(10.4,0,0,10.4,210,644.5)" />
<use xlink:href="#f2_23" transform="matrix(10.4,0,0,10.4,214.4,644.5)" />
<use xlink:href="#f2_20" transform="matrix(10.4,0,0,10.4,223.3,644.5)" />
<use xlink:href="#f2_1z" transform="matrix(10.4,0,0,10.4,239.5,644.5)" />
<use xlink:href="#f2_24" transform="matrix(10.4,0,0,10.4,248.3,644.5)" />
<use xlink:href="#f2_21" transform="matrix(10.4,0,0,10.4,251.9,644.5)" />
<use xlink:href="#f2_21" transform="matrix(10.4,0,0,10.4,256.3,644.5)" />
<use xlink:href="#f2_20" transform="matrix(10.4,0,0,10.4,260.7,644.5)" />
<use xlink:href="#f2_2d" transform="matrix(10.4,0,0,10.4,269.6,644.5)" />
<use xlink:href="#f2_20" transform="matrix(10.4,0,0,10.4,274.9,644.5)" />
<use xlink:href="#f2_29" transform="matrix(10.4,0,0,10.4,283.8,644.5)" />
<use xlink:href="#f2_2f" transform="matrix(10.4,0,0,10.4,292.7,644.5)" />
<use xlink:href="#f2_24" transform="matrix(10.4,0,0,10.4,297.1,644.5)" />
<use xlink:href="#f2_1w" transform="matrix(10.4,0,0,10.4,300.6,644.5)" />
<use xlink:href="#f2_27" transform="matrix(10.4,0,0,10.4,309.5,644.5)" />
<use xlink:href="#f2_20" transform="matrix(10.4,0,0,10.4,320.4,644.5)" />
<use xlink:href="#f2_2c" transform="matrix(10.4,0,0,10.4,329.2,644.5)" />
<use xlink:href="#f2_2g" transform="matrix(10.4,0,0,10.4,338.1,644.5)" />
<use xlink:href="#f2_1w" transform="matrix(10.4,0,0,10.4,347,644.5)" />
<use xlink:href="#f2_2f" transform="matrix(10.4,0,0,10.4,355.8,644.5)" />
<use xlink:href="#f2_24" transform="matrix(10.4,0,0,10.4,360.3,644.5)" />
<use xlink:href="#f2_2a" transform="matrix(10.4,0,0,10.4,363.8,644.5)" />
<use xlink:href="#f2_29" transform="matrix(10.4,0,0,10.4,372.7,644.5)" />
<use xlink:href="#f2_2a" transform="matrix(10.4,0,0,10.4,388.9,644.5)" />
<use xlink:href="#f2_21" transform="matrix(10.4,0,0,10.4,397.8,644.5)" />
<use xlink:href="#f2_2f" transform="matrix(10.4,0,0,10.4,409.5,644.5)" />
<use xlink:href="#f2_23" transform="matrix(10.4,0,0,10.4,414,644.5)" />
<use xlink:href="#f2_20" transform="matrix(10.4,0,0,10.4,422.8,644.5)" />
<use xlink:href="#f2_21" transform="matrix(10.4,0,0,10.4,439,644.5)" />
<use xlink:href="#f2_1w" transform="matrix(10.4,0,0,10.4,443.5,644.5)" />
<use xlink:href="#f2_28" transform="matrix(10.4,0,0,10.4,452.3,644.5)" />
<use xlink:href="#f2_24" transform="matrix(10.4,0,0,10.4,465.6,644.5)" />
<use xlink:href="#f2_27" transform="matrix(10.4,0,0,10.4,469.2,644.5)" />
<use xlink:href="#f2_2k" transform="matrix(10.4,0,0,10.4,472.7,644.5)" />
<use xlink:href="#f2_2a" transform="matrix(10.4,0,0,10.4,488,644.5)" />
<use xlink:href="#f2_21" transform="matrix(10.4,0,0,10.4,496.9,644.5)" />
<use xlink:href="#f2_1y" transform="matrix(10.4,0,0,10.4,508.7,644.5)" />
<use xlink:href="#f2_2g" transform="matrix(10.4,0,0,10.4,516.6,644.5)" />
<use xlink:href="#f2_2d" transform="matrix(10.4,0,0,10.4,525.5,644.5)" />
<use xlink:href="#f2_2h" transform="matrix(10.4,0,0,10.4,530.8,644.5)" />
<use xlink:href="#f2_20" transform="matrix(10.4,0,0,10.4,538.8,644.5)" />
<use xlink:href="#f2_2e" transform="matrix(10.4,0,0,10.4,547.7,644.5)" />
<use xlink:href="#f3_2k" transform="matrix(10.4,0,0,10.4,171.6,678.5)" />
<use xlink:href="#f2_w" transform="matrix(10.4,0,0,10.4,185,678.5)" />
<use xlink:href="#f3_20" transform="matrix(10.4,0,0,10.4,199.8,678.5)" />
<use xlink:href="#f3_2j" transform="matrix(7.4,0,0,7.4,208.6,673.1)" />
<use xlink:href="#f2_b" transform="matrix(10.4,0,0,10.4,218.2,678.5)" />
<use xlink:href="#f3_10" transform="matrix(10.4,0,0,10.4,223.5,678.5)" />
<use xlink:href="#f2_1y" transform="matrix(10.4,0,0,10.4,239.6,678.5)" />
<use xlink:href="#f2_2a" transform="matrix(10.4,0,0,10.4,247.6,678.5)" />
<use xlink:href="#f2_2e" transform="matrix(10.4,0,0,10.4,256.5,678.5)" />
<use xlink:href="#f3_2j" transform="matrix(10.4,0,0,10.4,270,678.5)" />
<use xlink:href="#f2_e" transform="matrix(10.4,0,0,10.4,283.4,678.5)" />
<use xlink:href="#f3_11" transform="matrix(10.4,0,0,10.4,298.3,678.5)" />
<use xlink:href="#f2_2e" transform="matrix(10.4,0,0,10.4,314.4,678.5)" />
<use xlink:href="#f2_24" transform="matrix(10.4,0,0,10.4,322.4,678.5)" />
<use xlink:href="#f2_29" transform="matrix(10.4,0,0,10.4,325.9,678.5)" />
<use xlink:href="#f3_2j" transform="matrix(10.4,0,0,10.4,340.3,678.5)" />
<use xlink:href="#f2_c" transform="matrix(10.4,0,0,10.4,348.3,678.5)" />
<use xlink:href="#f2_f" transform="matrix(10.4,0,0,10.4,353.6,678.5)" />
<use xlink:href="#f2_2i" transform="matrix(10.4,0,0,10.4,363.6,678.5)" />
<use xlink:href="#f2_23" transform="matrix(10.4,0,0,10.4,375.1,678.5)" />
<use xlink:href="#f2_20" transform="matrix(10.4,0,0,10.4,384,678.5)" />
<use xlink:href="#f2_2d" transform="matrix(10.4,0,0,10.4,392.8,678.5)" />
<use xlink:href="#f2_20" transform="matrix(10.4,0,0,10.4,398.1,678.5)" />
<use xlink:href="#f3_10" transform="matrix(10.4,0,0,10.4,412.3,678.5)" />
<use xlink:href="#f2_1w" transform="matrix(10.4,0,0,10.4,428.3,678.5)" />
<use xlink:href="#f2_29" transform="matrix(10.4,0,0,10.4,437.1,678.5)" />
<use xlink:href="#f2_1z" transform="matrix(10.4,0,0,10.4,446,678.5)" />
<use xlink:href="#f3_11" transform="matrix(10.4,0,0,10.4,460.2,678.5)" />
<use xlink:href="#f2_1w" transform="matrix(10.4,0,0,10.4,476.3,678.5)" />
<use xlink:href="#f2_2d" transform="matrix(10.4,0,0,10.4,485.2,678.5)" />
<use xlink:href="#f2_20" transform="matrix(10.4,0,0,10.4,490.5,678.5)" />
<use xlink:href="#f2_1w" transform="matrix(10.4,0,0,10.4,504.9,678.5)" />
<use xlink:href="#f2_2d" transform="matrix(10.4,0,0,10.4,513.7,678.5)" />
<use xlink:href="#f2_1x" transform="matrix(10.4,0,0,10.4,519,678.5)" />
<use xlink:href="#f2_24" transform="matrix(10.4,0,0,10.4,527.9,678.5)" />
<use xlink:href="#f2_2f" transform="matrix(10.4,0,0,10.4,531.4,678.5)" />
<use xlink:href="#f2_2d" transform="matrix(10.4,0,0,10.4,535.9,678.5)" />
<use xlink:href="#f2_1w" transform="matrix(10.4,0,0,10.4,541.2,678.5)" />
<use xlink:href="#f2_2d" transform="matrix(10.4,0,0,10.4,550.1,678.5)" />
<use xlink:href="#f2_2k" transform="matrix(10.4,0,0,10.4,555.4,678.5)" />
<use xlink:href="#f2_1y" transform="matrix(10.4,0,0,10.4,568.8,678.5)" />
<use xlink:href="#f2_2a" transform="matrix(10.4,0,0,10.4,576.8,678.5)" />
<use xlink:href="#f2_29" transform="matrix(10.4,0,0,10.4,585.7,678.5)" />
<use xlink:href="#f2_2e" transform="matrix(10.4,0,0,10.4,594.6,678.5)" />
<use xlink:href="#f2_2f" transform="matrix(10.4,0,0,10.4,602.5,678.5)" />
<use xlink:href="#f2_1w" transform="matrix(10.4,0,0,10.4,607,678.5)" />
<use xlink:href="#f2_29" transform="matrix(10.4,0,0,10.4,615.8,678.5)" />
<use xlink:href="#f2_2f" transform="matrix(10.4,0,0,10.4,624.7,678.5)" />
<use xlink:href="#f2_2e" transform="matrix(10.4,0,0,10.4,629.1,678.5)" />
<use xlink:href="#f2_h" transform="matrix(10.4,0,0,10.4,637.1,678.5)" />
<use xlink:href="#f2_b" transform="matrix(10.4,0,0,10.4,127.4,712.4)" />
<use xlink:href="#f2_2h" transform="matrix(10.4,0,0,10.4,132.7,712.4)" />
<use xlink:href="#f2_24" transform="matrix(10.4,0,0,10.4,140.7,712.4)" />
<use xlink:href="#f2_24" transform="matrix(10.4,0,0,10.4,144.2,712.4)" />
<use xlink:href="#f2_c" transform="matrix(10.4,0,0,10.4,147.8,712.4)" />
<use xlink:href="#f2_15" transform="matrix(10.4,0,0,10.4,171.6,712.4)" />
<use xlink:href="#f2_24" transform="matrix(10.4,0,0,10.4,181.3,712.4)" />
<use xlink:href="#f2_29" transform="matrix(10.4,0,0,10.4,184.9,712.4)" />
<use xlink:href="#f2_1z" transform="matrix(10.4,0,0,10.4,193.7,712.4)" />
<use xlink:href="#f2_2f" transform="matrix(10.4,0,0,10.4,210,712.4)" />
<use xlink:href="#f2_23" transform="matrix(10.4,0,0,10.4,214.4,712.4)" />
<use xlink:href="#f2_20" transform="matrix(10.4,0,0,10.4,223.3,712.4)" />
<use xlink:href="#f2_1z" transform="matrix(10.4,0,0,10.4,239.5,712.4)" />
<use xlink:href="#f2_24" transform="matrix(10.4,0,0,10.4,248.3,712.4)" />
<use xlink:href="#f2_21" transform="matrix(10.4,0,0,10.4,251.9,712.4)" />
<use xlink:href="#f2_21" transform="matrix(10.4,0,0,10.4,256.3,712.4)" />
<use xlink:href="#f2_20" transform="matrix(10.4,0,0,10.4,260.7,712.4)" />
<use xlink:href="#f2_2d" transform="matrix(10.4,0,0,10.4,269.6,712.4)" />
<use xlink:href="#f2_20" transform="matrix(10.4,0,0,10.4,274.9,712.4)" />
<use xlink:href="#f2_29" transform="matrix(10.4,0,0,10.4,283.8,712.4)" />
<use xlink:href="#f2_2f" transform="matrix(10.4,0,0,10.4,292.7,712.4)" />
<use xlink:href="#f2_24" transform="matrix(10.4,0,0,10.4,297.1,712.4)" />
<use xlink:href="#f2_1w" transform="matrix(10.4,0,0,10.4,300.6,712.4)" />
<use xlink:href="#f2_27" transform="matrix(10.4,0,0,10.4,309.5,712.4)" />
<use xlink:href="#f2_20" transform="matrix(10.4,0,0,10.4,320.4,712.4)" />
<use xlink:href="#f2_2c" transform="matrix(10.4,0,0,10.4,329.2,712.4)" />
<use xlink:href="#f2_2g" transform="matrix(10.4,0,0,10.4,338.1,712.4)" />
<use xlink:href="#f2_1w" transform="matrix(10.4,0,0,10.4,347,712.4)" />
<use xlink:href="#f2_2f" transform="matrix(10.4,0,0,10.4,355.8,712.4)" />
<use xlink:href="#f2_24" transform="matrix(10.4,0,0,10.4,360.3,712.4)" />
<use xlink:href="#f2_2a" transform="matrix(10.4,0,0,10.4,363.8,712.4)" />
<use xlink:href="#f2_29" transform="matrix(10.4,0,0,10.4,372.7,712.4)" />
<use xlink:href="#f2_2a" transform="matrix(10.4,0,0,10.4,388.9,712.4)" />
<use xlink:href="#f2_21" transform="matrix(10.4,0,0,10.4,397.8,712.4)" />
<use xlink:href="#f2_1w" transform="matrix(10.4,0,0,10.4,409.5,712.4)" />
<use xlink:href="#f2_29" transform="matrix(10.4,0,0,10.4,418.4,712.4)" />
<use xlink:href="#f2_20" transform="matrix(10.4,0,0,10.4,434.8,712.4)" />
<use xlink:href="#f2_27" transform="matrix(10.4,0,0,10.4,443.7,712.4)" />
<use xlink:href="#f2_27" transform="matrix(10.4,0,0,10.4,447.2,712.4)" />
<use xlink:href="#f2_24" transform="matrix(10.4,0,0,10.4,450.7,712.4)" />
<use xlink:href="#f2_2b" transform="matrix(10.4,0,0,10.4,454.3,712.4)" />
<use xlink:href="#f2_2e" transform="matrix(10.4,0,0,10.4,463.1,712.4)" />
<use xlink:href="#f2_20" transform="matrix(10.4,0,0,10.4,471.1,712.4)" />
<use xlink:href="#f2_2i" transform="matrix(10.4,0,0,10.4,487.3,712.4)" />
<use xlink:href="#f2_24" transform="matrix(10.4,0,0,10.4,498.8,712.4)" />
<use xlink:href="#f2_2f" transform="matrix(10.4,0,0,10.4,502.4,712.4)" />
<use xlink:href="#f2_23" transform="matrix(10.4,0,0,10.4,506.8,712.4)" />
<use xlink:href="#f2_28" transform="matrix(10.4,0,0,10.4,523,712.4)" />
<use xlink:href="#f2_1w" transform="matrix(10.4,0,0,10.4,536.3,712.4)" />
<use xlink:href="#f2_25" transform="matrix(10.4,0,0,10.4,545.2,712.4)" />
<use xlink:href="#f2_2a" transform="matrix(10.4,0,0,10.4,548.7,712.4)" />
<use xlink:href="#f2_2d" transform="matrix(10.4,0,0,10.4,557.6,712.4)" />
<use xlink:href="#f2_1w" transform="matrix(10.4,0,0,10.4,570.2,712.4)" />
<use xlink:href="#f2_29" transform="matrix(10.4,0,0,10.4,579.1,712.4)" />
<use xlink:href="#f2_1z" transform="matrix(10.4,0,0,10.4,588,712.4)" />
<use xlink:href="#f2_28" transform="matrix(10.4,0,0,10.4,604.2,712.4)" />
<use xlink:href="#f2_24" transform="matrix(10.4,0,0,10.4,617.5,712.4)" />
<use xlink:href="#f2_29" transform="matrix(10.4,0,0,10.4,621,712.4)" />
<use xlink:href="#f2_2a" transform="matrix(10.4,0,0,10.4,629.9,712.4)" />
<use xlink:href="#f2_2d" transform="matrix(10.4,0,0,10.4,638.7,712.4)" />
<use xlink:href="#f2_1w" transform="matrix(10.4,0,0,10.4,171.6,732.5)" />
<use xlink:href="#f2_2j" transform="matrix(10.4,0,0,10.4,180.5,732.5)" />
<use xlink:href="#f2_20" transform="matrix(10.4,0,0,10.4,188.4,732.5)" />
<use xlink:href="#f2_2e" transform="matrix(10.4,0,0,10.4,197.3,732.5)" />
<use xlink:href="#f2_l" transform="matrix(10.4,0,0,10.4,212.6,732.5)" />
<use xlink:href="#f3_1w" transform="matrix(10.4,0,0,10.4,221.5,732.5)" />
<use xlink:href="#f2_1w" transform="matrix(10.4,0,0,10.4,237.6,732.5)" />
<use xlink:href="#f2_29" transform="matrix(10.4,0,0,10.4,246.5,732.5)" />
<use xlink:href="#f2_1z" transform="matrix(10.4,0,0,10.4,255.3,732.5)" />
<use xlink:href="#f2_l" transform="matrix(10.4,0,0,10.4,271.7,732.5)" />
<use xlink:href="#f3_1x" transform="matrix(10.4,0,0,10.4,280.3,732.5)" />
<use xlink:href="#f2_2d" transform="matrix(10.4,0,0,10.4,296.6,732.5)" />
<use xlink:href="#f2_20" transform="matrix(10.4,0,0,10.4,301.9,732.5)" />
<use xlink:href="#f2_2e" transform="matrix(10.4,0,0,10.4,310.8,732.5)" />
<use xlink:href="#f2_2b" transform="matrix(10.4,0,0,10.4,318.8,732.5)" />
<use xlink:href="#f2_20" transform="matrix(10.4,0,0,10.4,327.6,732.5)" />
<use xlink:href="#f2_1y" transform="matrix(10.4,0,0,10.4,336.5,732.5)" />
<use xlink:href="#f2_2f" transform="matrix(10.4,0,0,10.4,344.5,732.5)" />
<use xlink:href="#f2_24" transform="matrix(10.4,0,0,10.4,348.9,732.5)" />
<use xlink:href="#f2_2h" transform="matrix(10.4,0,0,10.4,352.5,732.5)" />
<use xlink:href="#f2_20" transform="matrix(10.4,0,0,10.4,360.4,732.5)" />
<use xlink:href="#f2_27" transform="matrix(10.4,0,0,10.4,369.3,732.5)" />
<use xlink:href="#f2_2k" transform="matrix(10.4,0,0,10.4,372.8,732.5)" />
<use xlink:href="#f2_h" transform="matrix(10.4,0,0,10.4,380.8,732.5)" />
<use xlink:href="#f2_b" transform="matrix(10.4,0,0,10.4,123.9,766.5)" />
<use xlink:href="#f2_2h" transform="matrix(10.4,0,0,10.4,129.2,766.5)" />
<use xlink:href="#f2_24" transform="matrix(10.4,0,0,10.4,137.2,766.5)" />
<use xlink:href="#f2_24" transform="matrix(10.4,0,0,10.4,140.8,766.5)" />
<use xlink:href="#f2_24" transform="matrix(10.4,0,0,10.4,144.3,766.5)" />
<use xlink:href="#f2_c" transform="matrix(10.4,0,0,10.4,147.8,766.5)" />
<use xlink:href="#f2_15" transform="matrix(10.4,0,0,10.4,171.6,766.5)" />
<use xlink:href="#f2_2a" transform="matrix(10.4,0,0,10.4,181.3,766.5)" />
<use xlink:href="#f2_2d" transform="matrix(10.4,0,0,10.4,190.2,766.5)" />
<use xlink:href="#f2_28" transform="matrix(10.4,0,0,10.4,195.5,766.5)" />
<use xlink:href="#f2_2f" transform="matrix(10.4,0,0,10.4,216.9,766.5)" />
<use xlink:href="#f2_23" transform="matrix(10.4,0,0,10.4,221.3,766.5)" />
<use xlink:href="#f2_20" transform="matrix(10.4,0,0,10.4,230.2,766.5)" />
<use xlink:href="#f2_1z" transform="matrix(10.4,0,0,10.4,247.1,766.5)" />
<use xlink:href="#f2_24" transform="matrix(10.4,0,0,10.4,256,766.5)" />
<use xlink:href="#f2_21" transform="matrix(10.4,0,0,10.4,259.5,766.5)" />
<use xlink:href="#f2_21" transform="matrix(10.4,0,0,10.4,264,766.5)" />
<use xlink:href="#f2_20" transform="matrix(10.4,0,0,10.4,268.4,766.5)" />
<use xlink:href="#f2_2d" transform="matrix(10.4,0,0,10.4,277.3,766.5)" />
<use xlink:href="#f2_20" transform="matrix(10.4,0,0,10.4,282.6,766.5)" />
<use xlink:href="#f2_29" transform="matrix(10.4,0,0,10.4,291.4,766.5)" />
<use xlink:href="#f2_2f" transform="matrix(10.4,0,0,10.4,300.3,766.5)" />
<use xlink:href="#f2_24" transform="matrix(10.4,0,0,10.4,304.7,766.5)" />
<use xlink:href="#f2_1w" transform="matrix(10.4,0,0,10.4,308.3,766.5)" />
<use xlink:href="#f2_27" transform="matrix(10.4,0,0,10.4,317.2,766.5)" />
<use xlink:href="#f2_20" transform="matrix(10.4,0,0,10.4,328.9,766.5)" />
<use xlink:href="#f2_2c" transform="matrix(10.4,0,0,10.4,337.8,766.5)" />
<use xlink:href="#f2_2g" transform="matrix(10.4,0,0,10.4,346.7,766.5)" />
<use xlink:href="#f2_1w" transform="matrix(10.4,0,0,10.4,355.5,766.5)" />
<use xlink:href="#f2_2f" transform="matrix(10.4,0,0,10.4,364.4,766.5)" />
<use xlink:href="#f2_24" transform="matrix(10.4,0,0,10.4,368.8,766.5)" />
<use xlink:href="#f2_2a" transform="matrix(10.4,0,0,10.4,372.4,766.5)" />
<use xlink:href="#f2_29" transform="matrix(10.4,0,0,10.4,381.3,766.5)" />
<use xlink:href="#f2_2d" transform="matrix(10.4,0,0,10.4,398.2,766.5)" />
<use xlink:href="#f2_20" transform="matrix(10.4,0,0,10.4,403.5,766.5)" />
<use xlink:href="#f2_2b" transform="matrix(10.4,0,0,10.4,412.4,766.5)" />
<use xlink:href="#f2_2d" transform="matrix(10.4,0,0,10.4,421.2,766.5)" />
<use xlink:href="#f2_20" transform="matrix(10.4,0,0,10.4,426.6,766.5)" />
<use xlink:href="#f2_2e" transform="matrix(10.4,0,0,10.4,435.4,766.5)" />
<use xlink:href="#f2_20" transform="matrix(10.4,0,0,10.4,443.4,766.5)" />
<use xlink:href="#f2_29" transform="matrix(10.4,0,0,10.4,452.3,766.5)" />
<use xlink:href="#f2_2f" transform="matrix(10.4,0,0,10.4,461.1,766.5)" />
<use xlink:href="#f2_24" transform="matrix(10.4,0,0,10.4,465.6,766.5)" />
<use xlink:href="#f2_29" transform="matrix(10.4,0,0,10.4,469.1,766.5)" />
<use xlink:href="#f2_22" transform="matrix(10.4,0,0,10.4,478,766.5)" />
<use xlink:href="#f2_2f" transform="matrix(10.4,0,0,10.4,494.9,766.5)" />
<use xlink:href="#f2_23" transform="matrix(10.4,0,0,10.4,499.3,766.5)" />
<use xlink:href="#f2_20" transform="matrix(10.4,0,0,10.4,508.2,766.5)" />
<use xlink:href="#f2_21" transform="matrix(10.4,0,0,10.4,525.2,766.5)" />
<use xlink:href="#f2_1w" transform="matrix(10.4,0,0,10.4,529.6,766.5)" />
<use xlink:href="#f2_28" transform="matrix(10.4,0,0,10.4,538.5,766.5)" />
<use xlink:href="#f2_24" transform="matrix(10.4,0,0,10.4,551.7,766.5)" />
<use xlink:href="#f2_27" transform="matrix(10.4,0,0,10.4,555.3,766.5)" />
<use xlink:href="#f2_2k" transform="matrix(10.4,0,0,10.4,558.8,766.5)" />
<use xlink:href="#f2_2a" transform="matrix(10.4,0,0,10.4,575,766.5)" />
<use xlink:href="#f2_21" transform="matrix(10.4,0,0,10.4,583.9,766.5)" />
<use xlink:href="#f2_1y" transform="matrix(10.4,0,0,10.4,596.4,766.5)" />
<use xlink:href="#f2_2g" transform="matrix(10.4,0,0,10.4,604.4,766.5)" />
<use xlink:href="#f2_2d" transform="matrix(10.4,0,0,10.4,613.3,766.5)" />
<use xlink:href="#f2_2h" transform="matrix(10.4,0,0,10.4,618.6,766.5)" />
<use xlink:href="#f2_20" transform="matrix(10.4,0,0,10.4,626.6,766.5)" />
<use xlink:href="#f2_2e" transform="matrix(10.4,0,0,10.4,635.4,766.5)" />
<use xlink:href="#f2_b" transform="matrix(10.4,0,0,10.4,171.6,786.6)" />
<use xlink:href="#f3_2k" transform="matrix(10.4,0,0,10.4,176.9,786.6)" />
<use xlink:href="#f2_99" transform="matrix(10.4,0,0,10.4,191.8,786.6)" />
<use xlink:href="#f3_1x" transform="matrix(10.4,0,0,10.4,207.5,786.6)" />
<use xlink:href="#f2_c" transform="matrix(10.4,0,0,10.4,216.3,786.6)" />
<use xlink:href="#f2_l" transform="matrix(7.4,0,0,7.4,221.6,781.3)" />
<use xlink:href="#f2_w" transform="matrix(10.4,0,0,10.4,234.7,786.6)" />
<use xlink:href="#f2_n" transform="matrix(10.4,0,0,10.4,250.9,786.6)" />
<use xlink:href="#f2_b" transform="matrix(10.4,0,0,10.4,259.8,786.6)" />
<use xlink:href="#f3_2j" transform="matrix(10.4,0,0,10.4,265.1,786.6)" />
<use xlink:href="#f2_99" transform="matrix(10.4,0,0,10.4,279.9,786.6)" />
<use xlink:href="#f3_1w" transform="matrix(10.4,0,0,10.4,295.7,786.6)" />
<use xlink:href="#f2_c" transform="matrix(10.4,0,0,10.4,304.5,786.6)" />
<use xlink:href="#f2_h" transform="matrix(10.4,0,0,10.4,309.8,786.6)" />
<use xlink:href="#f2_p" transform="matrix(10.4,0,0,10.4,84.9,820.5)" />
<use xlink:href="#f2_h" transform="matrix(10.4,0,0,10.4,93.7,820.5)" />
<use xlink:href="#f2_1i" transform="matrix(10.4,0,0,10.4,116.6,820.5)" />
<use xlink:href="#f2_2a" transform="matrix(10.4,0,0,10.4,127.2,820.5)" />
<use xlink:href="#f2_27" transform="matrix(10.4,0,0,10.4,136.1,820.5)" />
<use xlink:href="#f2_2h" transform="matrix(10.4,0,0,10.4,139.6,820.5)" />
<use xlink:href="#f2_20" transform="matrix(10.4,0,0,10.4,147.6,820.5)" />
<use xlink:href="#f2_2f" transform="matrix(10.4,0,0,10.4,164.2,820.5)" />
<use xlink:href="#f2_23" transform="matrix(10.4,0,0,10.4,168.6,820.5)" />
<use xlink:href="#f2_20" transform="matrix(10.4,0,0,10.4,177.5,820.5)" />
<use xlink:href="#f2_21" transform="matrix(10.4,0,0,10.4,194.2,820.5)" />
<use xlink:href="#f2_2a" transform="matrix(10.4,0,0,10.4,198.7,820.5)" />
<use xlink:href="#f2_27" transform="matrix(10.4,0,0,10.4,207.5,820.5)" />
<use xlink:href="#f2_27" transform="matrix(10.4,0,0,10.4,211.1,820.5)" />
<use xlink:href="#f2_2a" transform="matrix(10.4,0,0,10.4,214.6,820.5)" />
<use xlink:href="#f2_2i" transform="matrix(10.4,0,0,10.4,223.5,820.5)" />
<use xlink:href="#f2_24" transform="matrix(10.4,0,0,10.4,235,820.5)" />
<use xlink:href="#f2_29" transform="matrix(10.4,0,0,10.4,238.5,820.5)" />
<use xlink:href="#f2_22" transform="matrix(10.4,0,0,10.4,247.4,820.5)" />
<use xlink:href="#f2_1z" transform="matrix(10.4,0,0,10.4,264,820.5)" />
<use xlink:href="#f2_24" transform="matrix(10.4,0,0,10.4,272.9,820.5)" />
<use xlink:href="#f2_21" transform="matrix(10.4,0,0,10.4,276.4,820.5)" />
<use xlink:href="#f2_21" transform="matrix(10.4,0,0,10.4,280.8,820.5)" />
<use xlink:href="#f2_20" transform="matrix(10.4,0,0,10.4,285.3,820.5)" />
<use xlink:href="#f2_2d" transform="matrix(10.4,0,0,10.4,294.1,820.5)" />
<use xlink:href="#f2_20" transform="matrix(10.4,0,0,10.4,299.4,820.5)" />
<use xlink:href="#f2_29" transform="matrix(10.4,0,0,10.4,308.3,820.5)" />
<use xlink:href="#f2_2f" transform="matrix(10.4,0,0,10.4,317.2,820.5)" />
<use xlink:href="#f2_24" transform="matrix(10.4,0,0,10.4,321.6,820.5)" />
<use xlink:href="#f2_1w" transform="matrix(10.4,0,0,10.4,325.2,820.5)" />
<use xlink:href="#f2_27" transform="matrix(10.4,0,0,10.4,334,820.5)" />
<use xlink:href="#f2_20" transform="matrix(10.4,0,0,10.4,345.4,820.5)" />
<use xlink:href="#f2_2c" transform="matrix(10.4,0,0,10.4,354.3,820.5)" />
<use xlink:href="#f2_2g" transform="matrix(10.4,0,0,10.4,363.2,820.5)" />
<use xlink:href="#f2_1w" transform="matrix(10.4,0,0,10.4,372,820.5)" />
<use xlink:href="#f2_2f" transform="matrix(10.4,0,0,10.4,380.9,820.5)" />
<use xlink:href="#f2_24" transform="matrix(10.4,0,0,10.4,385.3,820.5)" />
<use xlink:href="#f2_2a" transform="matrix(10.4,0,0,10.4,388.9,820.5)" />
<use xlink:href="#f2_29" transform="matrix(10.4,0,0,10.4,397.8,820.5)" />
<use xlink:href="#f2_2e" transform="matrix(10.4,0,0,10.4,406.6,820.5)" />
<use xlink:href="#f2_h" transform="matrix(10.4,0,0,10.4,414.6,820.5)" />
<use xlink:href="#f2_b" transform="matrix(10.4,0,0,10.4,139.1,873.2)" />
<use xlink:href="#f2_24" transform="matrix(10.4,0,0,10.4,144.5,873.2)" />
<use xlink:href="#f2_c" transform="matrix(10.4,0,0,10.4,148,873.2)" />
</g>
<path d="M174.7,868.9h20.1" class="g2_81" />
<g fill="#000000" >
<use xlink:href="#f2_1y" transform="matrix(10.5,0,0,10.5,232.4,873.1)" />
<use xlink:href="#f2_2a" transform="matrix(10.5,0,0,10.5,240.7,873.1)" />
<use xlink:href="#f2_2f" transform="matrix(10.5,0,0,10.5,250.1,873.1)" />
<use xlink:href="#f2_2e" transform="matrix(10.5,0,0,10.5,294.7,873.1)" />
<use xlink:href="#f2_24" transform="matrix(10.5,0,0,10.5,303,873.1)" />
<use xlink:href="#f2_29" transform="matrix(10.5,0,0,10.5,306.8,873.1)" />
<use xlink:href="#f2_l" transform="matrix(10.5,0,0,10.5,319.5,873.1)" />
<use xlink:href="#f2_h" transform="matrix(10.5,0,0,10.5,338.1,873.1)" />
<use xlink:href="#f3_1z" transform="matrix(10.5,0,0,10.5,174.7,862.7)" />
<use xlink:href="#f3_2k" transform="matrix(10.5,0,0,10.5,184,862.7)" />
<use xlink:href="#f3_2k" transform="matrix(10.5,0,0,10.5,218.2,873.1)" />
<use xlink:href="#f3_2j" transform="matrix(10.5,0,0,10.5,259,873.1)" />
<use xlink:href="#f3_2j" transform="matrix(10.5,0,0,10.5,328.5,873.1)" />
<use xlink:href="#f3_1z" transform="matrix(10.5,0,0,10.5,174.7,888.7)" />
<use xlink:href="#f3_2j" transform="matrix(10.5,0,0,10.5,184,888.7)" />
<use xlink:href="#f4_f" transform="matrix(10.5,0,0,10.5,202,873.1)" />
<use xlink:href="#f4_x" transform="matrix(10.5,0,0,10.5,277.5,873.1)" />
<use xlink:href="#f2_b" transform="matrix(10.4,0,0,10.4,392.1,873.2)" />
<use xlink:href="#f2_24" transform="matrix(10.4,0,0,10.4,397.5,873.2)" />
<use xlink:href="#f2_24" transform="matrix(10.4,0,0,10.4,401,873.2)" />
<use xlink:href="#f2_c" transform="matrix(10.4,0,0,10.4,404.5,873.2)" />
</g>
<path d="M445.7,868.7h20.1" class="g0_81" />
<g fill="#000000" >
<use xlink:href="#f2_l" transform="matrix(7.9,0,0,7.9,544.2,863.3)" />
<use xlink:href="#f2_l" transform="matrix(10.5,0,0,10.5,488.6,872.9)" />
<use xlink:href="#f2_27" transform="matrix(10.5,0,0,10.5,556.1,872.9)" />
<use xlink:href="#f2_2a" transform="matrix(10.5,0,0,10.5,559.9,872.9)" />
<use xlink:href="#f2_22" transform="matrix(10.5,0,0,10.5,569.2,872.9)" />
<use xlink:href="#f2_h" transform="matrix(10.5,0,0,10.5,591.7,872.9)" />
<use xlink:href="#f3_1z" transform="matrix(10.5,0,0,10.5,445.6,862.5)" />
<use xlink:href="#f3_2k" transform="matrix(10.5,0,0,10.5,454.9,862.5)" />
<use xlink:href="#f3_2j" transform="matrix(10.5,0,0,10.5,430.9,872.9)" />
<use xlink:href="#f3_2k" transform="matrix(10.5,0,0,10.5,497.9,872.9)" />
<use xlink:href="#f3_2j" transform="matrix(10.5,0,0,10.5,533.8,872.9)" />
<use xlink:href="#f3_2j" transform="matrix(10.5,0,0,10.5,582.2,872.9)" />
<use xlink:href="#f3_1z" transform="matrix(10.5,0,0,10.5,445.6,888.5)" />
<use xlink:href="#f3_2j" transform="matrix(10.5,0,0,10.5,454.9,888.5)" />
<use xlink:href="#f4_f" transform="matrix(10.5,0,0,10.5,472.9,872.9)" />
<use xlink:href="#f4_x" transform="matrix(10.5,0,0,10.5,516.3,872.9)" />
<use xlink:href="#f5_n" transform="matrix(12,0,0,12,673.3,1070.2)" />
</g>
<g fill="#0080FF" fill-opacity="0.5" >
<use xlink:href="#f0_1c" transform="matrix(38.3,0,0,38.3,183.6,1079.4)" />
<use xlink:href="#f0_21" transform="matrix(38.3,0,0,38.3,216.1,1079.4)" />
<use xlink:href="#f0_1x" transform="matrix(38.3,0,0,38.3,248.6,1079.4)" />
<use xlink:href="#f0_2e" transform="matrix(38.3,0,0,38.3,281.1,1079.4)" />
<use xlink:href="#f0_2a" transform="matrix(38.3,0,0,38.3,300.6,1079.4)" />
<use xlink:href="#f0_17" transform="matrix(38.3,0,0,38.3,333.1,1079.4)" />
<use xlink:href="#f0_2h" transform="matrix(38.3,0,0,38.3,378.6,1079.4)" />
<use xlink:href="#f0_25" transform="matrix(38.3,0,0,38.3,411.1,1079.4)" />
<use xlink:href="#f0_20" transform="matrix(38.3,0,0,38.3,424,1079.4)" />
<use xlink:href="#f0_21" transform="matrix(38.3,0,0,38.3,456.5,1079.4)" />
<use xlink:href="#f0_i" transform="matrix(38.3,0,0,38.3,489.1,1079.4)" />
<use xlink:href="#f0_25" transform="matrix(38.3,0,0,38.3,505.3,1079.4)" />
<use xlink:href="#f0_2a" transform="matrix(38.3,0,0,38.3,518.3,1079.4)" />
</g>
<defs>
<path d="M593,101c0,0,182,0,279,112c0,0,98,113,98,318c0,0,0,196,-98,308c0,0,-98,112,-277,112c0,0,-181,0,-279,-110c0,0,-99,-111,-99,-310c0,0,0,-198,100,-314c0,0,99,-116,276,-116Zm0,-115c0,0,-162,0,-279,65c0,0,-118,66,-180,190c0,0,-62,124,-62,290c0,0,0,252,138,394c0,0,138,142,385,142c0,0,160,0,278,-64c0,0,118,-64,180,-185c0,0,62,-122,62,-287c0,0,0,-165,-63,-289c0,0,-63,-124,-181,-190c0,0,-118,-66,-278,-66Z" 
id="f0_1f"
transform="scale(0.001,-0.001)" />

<path d="M106,0V635c0,0,0,141,-5,173H228c0,0,1,-4,2,-21c0,0,1,-16,2,-37c0,0,1,-22,2,-81h2c0,0,47,84,108,119c0,0,60,34,151,34c0,0,132,0,194,-66c0,0,61,-66,61,-218V0H615V512c0,0,0,80,-15,124c0,0,-16,44,-50,63c0,0,-35,20,-101,20c0,0,-97,0,-153,-67c0,0,-56,-66,-56,-184V0Z" 
id="f0_2a"
transform="scale(0.001,-0.001)" />

<path d="M103,0V1107H237V0Z" 
id="f0_28"
transform="scale(0.001,-0.001)" />

<path d="M102,0V808H236V0Zm0,979v128H236V979Z" 
id="f0_25"
transform="scale(0.001,-0.001)" />

<path d="M643,478c0,0,-11,128,-65,187c0,0,-54,59,-154,59c0,0,-98,0,-155,-66c0,0,-57,-65,-62,-180ZM431,-14c0,0,-179,0,-272,106c0,0,-94,107,-94,317c0,0,0,200,94,307c0,0,93,106,267,106c0,0,356,0,356,-429V375H206c0,0,0,-138,57,-213c0,0,58,-75,168,-75c0,0,87,0,140,35c0,0,53,35,71,88L760,177c0,0,-72,-191,-329,-191Z" 
id="f0_21"
transform="scale(0.001,-0.001)" />

<path d="M17,0L304,415L31,808H179L380,493L580,808H730L457,417L747,0H598L380,331L162,0Z" 
id="f0_2k"
transform="scale(0.001,-0.001)" />

<path d="M339,87c0,0,74,0,132,34c0,0,57,33,90,91c0,0,34,59,34,121v66L448,396c0,0,-95,-2,-144,-19c0,0,-49,-18,-75,-55c0,0,-26,-38,-26,-98c0,0,0,-65,35,-101c0,0,36,-36,101,-36ZM309,-14c0,0,-122,0,-183,64c0,0,-61,64,-61,176c0,0,0,125,82,192c0,0,83,67,266,72l182,3v44c0,0,0,98,-42,141c0,0,-42,43,-132,43c0,0,-90,0,-131,-31c0,0,-41,-31,-49,-98L101,604c0,0,34,218,323,218c0,0,153,0,229,-70c0,0,77,-69,77,-202V202c0,0,0,-59,16,-90c0,0,16,-30,60,-30c0,0,19,0,44,5V4C850,4,799,-7,746,-7c0,0,-75,0,-109,38c0,0,-33,40,-38,124h-4C595,155,543,62,475,24c0,0,-68,-38,-166,-38Z" 
id="f0_1x"
transform="scale(0.001,-0.001)" />

<path d="M106,0V635c0,0,0,141,-5,173H228c0,0,1,-4,2,-21c0,0,1,-16,2,-37c0,0,1,-22,2,-81h2c0,0,44,86,100,120c0,0,56,33,136,33c0,0,92,0,145,-36c0,0,54,-37,75,-117h2c0,0,42,82,101,117c0,0,59,36,143,36c0,0,123,0,178,-66c0,0,56,-67,56,-218V0H1039V512c0,0,0,117,-32,162c0,0,-32,45,-116,45c0,0,-88,0,-136,-66c0,0,-49,-65,-49,-185V0H573V512c0,0,0,117,-32,162c0,0,-32,45,-116,45c0,0,-86,0,-136,-66c0,0,-50,-66,-50,-185V0Z" 
id="f0_29"
transform="scale(0.001,-0.001)" />

<path d="M453,84c0,0,100,0,146,74c0,0,46,73,46,247c0,0,0,169,-46,241c0,0,-45,73,-145,73c0,0,-80,0,-125,-34c0,0,-45,-34,-68,-105c0,0,-24,-71,-24,-186c0,0,0,-159,51,-234c0,0,51,-76,165,-76ZM103,-316V643c0,0,0,124,-5,165H228c0,0,1,-3,3,-22c0,0,1,-18,3,-56c0,0,2,-38,2,-52h3c0,0,36,75,94,110c0,0,59,34,156,34c0,0,149,0,223,-100c0,0,74,-100,74,-314c0,0,0,-422,-297,-422c0,0,-187,0,-251,140h-4c0,0,3,-6,3,-126V-316Z" 
id="f0_2c"
transform="scale(0.001,-0.001)" />

<path d="M420,84c0,0,121,0,173,78c0,0,52,77,52,243c0,0,0,167,-50,243c0,0,-50,76,-167,76c0,0,-118,0,-170,-78c0,0,-53,-77,-53,-241c0,0,0,-160,52,-241c0,0,52,-80,163,-80Zm1,-98c0,0,-176,0,-267,107c0,0,-90,108,-90,312c0,0,0,417,362,417c0,0,185,0,272,-102c0,0,88,-101,88,-315c0,0,0,-212,-94,-316C692,89,599,-14,421,-14Z" 
id="f0_2b"
transform="scale(0.001,-0.001)" />

<path d="M278,-11c0,0,-162,0,-162,182V710H23v98h99l39,181h90V808H400V710H251V200c0,0,0,-58,19,-82c0,0,19,-23,66,-23c0,0,27,0,77,10V6c0,0,-66,-17,-135,-17Z" 
id="f0_2g"
transform="scale(0.001,-0.001)" />

<path d="M367,-20c0,0,-85,0,-142,12C225,-8,167,2,83,35V332c0,0,41,-55,107,-90c0,0,66,-35,130,-35c0,0,51,0,84,31c0,0,32,31,32,81c0,0,0,49,-23,86c0,0,-22,37,-82,83c0,0,-126,98,-184,181c0,0,-57,82,-57,165c0,0,0,155,106,253c0,0,106,98,272,98c0,0,62,0,133,-13c0,0,71,-13,120,-33V867c0,0,-59,49,-104,70c0,0,-46,20,-94,20c0,0,-47,0,-76,-24c0,0,-29,-25,-29,-63c0,0,0,-41,20,-73c0,0,21,-31,75,-73c0,0,130,-101,189,-189c0,0,59,-87,59,-180c0,0,0,-165,-110,-270C651,85,541,-20,367,-20Z" 
id="f1_1i"
transform="scale(0.001,-0.001)" />

<path d="M99,0c0,0,22,54,32,110c0,0,9,55,9,135V922c0,0,0,81,-10,136c0,0,-9,55,-31,109H489c0,0,-23,-54,-32,-109c0,0,-9,-55,-9,-136V712H790V922c0,0,0,81,-9,136c0,0,-10,55,-32,109h390c0,0,-22,-54,-32,-109c0,0,-9,-55,-9,-136V245c0,0,0,-80,9,-135c0,0,10,-56,32,-110H749c0,0,22,54,32,110c0,0,9,55,9,135V478H448V245c0,0,0,-80,9,-135c0,0,9,-56,32,-110Z" 
id="f1_17"
transform="scale(0.001,-0.001)" />

<path d="M822,206c14,0,28,0,42,1c0,0,53,50,87,150c0,0,34,101,34,210c0,0,0,188,-132,297c0,0,-113,95,-296,95c-13,0,-27,-1,-42,-2c0,0,-53,-49,-86,-150c0,0,-34,-102,-34,-212c0,0,0,-186,132,-295c0,0,114,-94,295,-94ZM690,-20c0,0,-276,0,-452,168C238,148,63,317,63,581c0,0,0,266,175,435c0,0,176,169,452,169c0,0,277,0,452,-169c0,0,175,-169,175,-435c0,0,0,-264,-175,-433c0,0,-175,-168,-452,-168Z" 
id="f1_1e"
transform="scale(0.001,-0.001)" />

<path d="M452,645c0,0,85,0,139,47c0,0,54,47,54,121c0,0,0,66,-51,107c0,0,-51,42,-132,42H442V645ZM93,0c0,0,22,54,32,110c0,0,9,55,9,135V922c0,0,0,81,-9,136c0,0,-10,55,-32,109H498c0,0,215,0,332,-90c0,0,117,-90,117,-256c0,0,0,-159,-129,-253c0,0,-46,-34,-103,-54L902,246c0,0,57,-82,107,-137c0,0,50,-55,115,-109H803c0,0,-30,0,-104,83c0,0,-73,83,-149,202L442,461V246c0,0,0,-81,9,-136c0,0,10,-56,32,-110Z" 
id="f1_1h"
transform="scale(0.001,-0.001)" />

<path d="M289,0c0,0,26,60,37,116c0,0,9,55,9,129V961c0,0,-94,-3,-160,-9c0,0,-116,-13,-188,-44l41,130l41,129H981L946,1042L912,917c0,0,-45,18,-154,32c0,0,-58,8,-115,11V245c0,0,0,-74,11,-129c0,0,10,-56,35,-116Z" 
id="f1_1j"
transform="scale(0.001,-0.001)" />

<path d="M693,499L573,830L462,499ZM-39,0c0,0,33,42,61,97c0,0,30,55,71,148l314,761c0,0,22,51,38,98c0,0,15,47,17,63H721c0,0,2,-16,18,-63c0,0,15,-47,37,-98L1091,245c0,0,41,-95,70,-150c0,0,30,-55,60,-95H849c0,0,3,25,-3,55c0,0,-6,30,-24,80L765,295H393L340,135c0,0,-17,-50,-22,-80c0,0,-5,-30,-2,-55Z" 
id="f1_10"
transform="scale(0.001,-0.001)" />

<path d="M108,0c0,0,22,54,31,110c0,0,10,55,10,135V985L-5,1167H418c0,0,21,-44,54,-99c0,0,34,-55,96,-146L857,495V922c0,0,0,81,-9,136c0,0,-9,55,-32,109h378c0,0,-23,-54,-32,-109c0,0,-9,-55,-9,-136V351c0,0,0,-76,11,-178c0,0,11,-101,27,-173H845c0,0,-7,25,-28,67c0,0,-21,42,-45,78L444,628V245c0,0,0,-80,9,-135c0,0,10,-56,32,-110Z" 
id="f1_1d"
transform="scale(0.001,-0.001)" />

<path d="M324,0L78,922c0,0,-23,85,-44,140c0,0,-22,55,-50,105H376c0,0,-7,-56,-7,-99c0,0,1,-42,11,-89L479,513L610,998c0,0,11,42,21,91c0,0,10,49,13,78H861c0,0,4,-36,12,-85c0,0,9,-50,18,-84L1021,492l115,540c0,0,8,33,6,63c0,0,-1,31,-12,72h378c0,0,-30,-50,-52,-105c0,0,-21,-56,-45,-140L1166,0H925L741,597L565,0Z" 
id="f1_1m"
transform="scale(0.001,-0.001)" />

<path d="M102,0c0,0,22,54,31,110c0,0,10,55,10,135V922c0,0,0,81,-10,136c0,0,-9,55,-31,109H823L766,1041L709,913c0,0,-42,20,-137,36c0,0,-62,9,-121,13V697H798L728,569L657,441c0,0,-45,21,-131,36c0,0,-38,8,-75,11V206c0,0,117,6,201,22c0,0,126,24,239,84L827,156L762,0Z" 
id="f1_14"
transform="scale(0.001,-0.001)" />

<path d="M319,0c0,0,22,54,31,110c0,0,10,55,10,135V518L134,922c0,0,-57,100,-95,155c0,0,-37,55,-71,90H351c0,0,4,-29,12,-53c0,0,7,-24,22,-54L517,787l152,273c0,0,14,25,23,49c0,0,9,24,16,58h354c0,0,-35,-33,-73,-88c0,0,-38,-56,-99,-157L668,536V245c0,0,0,-80,9,-135c0,0,9,-56,32,-110Z" 
id="f1_1o"
transform="scale(0.001,-0.001)" />

<path d="M462,650c0,0,82,0,133,46c0,0,52,47,52,119c0,0,0,65,-48,106c0,0,-49,41,-125,41H452V650ZM103,0c0,0,22,54,32,110c0,0,9,55,9,135V922c0,0,0,81,-10,136c0,0,-9,55,-31,109H505c0,0,212,0,327,-93c0,0,114,-94,114,-268c0,0,0,-166,-127,-264c0,0,-127,-97,-343,-97H452V246c0,0,0,-81,9,-136c0,0,9,-56,32,-110Z" 
id="f1_1f"
transform="scale(0.001,-0.001)" />

<path d="M821,206c13,0,26,0,40,1c0,0,53,33,86,127c0,0,34,94,34,210c0,0,0,198,-131,314c0,0,-114,101,-297,101c-13,0,-27,-1,-40,-2c0,0,-53,-49,-87,-144c0,0,-33,-95,-33,-195c0,0,0,-197,131,-312c0,0,115,-100,297,-100Zm413,-442c-84,0,-186,15,-288,68c0,0,-113,58,-202,151c0,0,-22,-3,-48,-3c-3,0,-6,0,-9,0c0,0,-276,0,-452,168C235,148,60,316,60,581c0,0,0,266,175,435c0,0,176,169,452,169c0,0,277,0,452,-169c0,0,175,-169,175,-435c0,0,0,-265,-176,-433c0,0,-29,-28,-59,-51c0,0,51,-79,111,-141c0,0,104,-109,233,-165c0,0,-78,-27,-189,-27Z" 
id="f1_1g"
transform="scale(0.001,-0.001)" />

<path d="M512,-17c0,0,-191,0,-285,112c0,0,-94,113,-93,341V922c0,0,0,81,-9,136c0,0,-10,55,-32,109H483c0,0,-22,-54,-32,-109c0,0,-9,-56,-9,-136V502c0,0,0,-147,43,-219c0,0,43,-72,130,-72c0,0,85,0,127,62c0,0,42,61,42,187V922c0,0,0,80,-9,136c0,0,-10,55,-32,109h390c0,0,-22,-54,-31,-109c0,0,-10,-55,-10,-136V245c0,0,0,-80,9,-135c0,0,10,-56,32,-110H815l6,86C821,86,703,-17,512,-17Z" 
id="f1_1k"
transform="scale(0.001,-0.001)" />

<path d="M105,0c0,0,22,54,32,110c0,0,9,55,9,135V922c0,0,0,80,-10,135c0,0,-9,55,-31,110H495c0,0,-23,-54,-32,-109c0,0,-9,-55,-9,-136V245c0,0,0,-80,9,-135c0,0,9,-56,32,-110Z" 
id="f1_18"
transform="scale(0.001,-0.001)" />

<path d="M449,-255c0,0,-184,222,-259,382c0,0,-75,160,-75,331c0,0,0,172,75,332c0,0,75,161,259,382H673c0,0,-156,-201,-220,-362c0,0,-64,-160,-64,-352c0,0,0,-192,64,-352c0,0,64,-160,220,-361Z" 
id="f1_b"
transform="scale(0.001,-0.001)" />

<path d="M531,588l1,309L333,598l-7,-10ZM489,0c0,0,9,23,15,78c0,0,6,54,6,111V373H75V599c0,0,135,154,226,273c0,0,89,118,202,290H787L797,588h19c0,0,40,0,80,4c0,0,39,5,58,12V356c0,0,-18,7,-57,12c0,0,-39,5,-77,5H801V189c0,0,0,-57,2,-111c0,0,2,-55,5,-78Z" 
id="f1_n"
transform="scale(0.001,-0.001)" />

<path d="M90,0c0,0,22,54,32,110c0,0,9,55,9,135V996L-14,1167H428c0,0,2,-38,9,-63c0,0,8,-24,24,-44L752,691l296,369c0,0,23,28,33,53c0,0,10,24,11,54h346c0,0,-50,-120,-70,-208c0,0,-20,-88,-20,-184V245c0,0,0,-80,10,-135c0,0,9,-56,31,-110H999c0,0,23,54,32,110c0,0,9,55,9,135V675L741,291h-1L441,681V245c0,0,0,-80,9,-135c0,0,10,-56,32,-110Z" 
id="f1_1c"
transform="scale(0.001,-0.001)" />

<path d="M90,0c0,0,22,54,32,110c0,0,9,55,9,135V922c0,0,0,81,-9,136c0,0,-10,55,-32,109H480c0,0,-22,-54,-32,-109c0,0,-9,-55,-9,-136V739l269,348c0,0,23,27,33,45c0,0,11,18,14,35h396c0,0,-38,-23,-94,-79c0,0,-55,-55,-153,-166L651,635L957,245c0,0,84,-105,135,-160c0,0,51,-55,93,-85H749c0,0,-25,51,-60,107c0,0,-35,55,-95,138L439,463V245c0,0,0,-80,9,-135c0,0,10,-56,32,-110Z" 
id="f1_1a"
transform="scale(0.001,-0.001)" />

<path d="M115,-255c0,0,156,201,220,361c0,0,64,160,64,352c0,0,0,192,-64,352c0,0,-64,161,-220,362H339c0,0,184,-222,259,-383c0,0,75,-160,75,-331c0,0,0,-171,-75,-332c0,0,-75,-160,-259,-381Z" 
id="f1_c"
transform="scale(0.001,-0.001)" />

<path d="M417,-28c0,0,-161,0,-259,79c0,0,-98,81,-109,223H189c0,0,11,-90,72,-139c0,0,61,-49,162,-49c0,0,96,0,158,68c0,0,61,68,61,175c0,0,0,112,-64,178c0,0,-64,66,-173,66c0,0,-59,0,-115,-28c0,0,-55,-29,-84,-73L93,480l77,573H727V922H271L225,629l4,3c0,0,89,60,188,60c0,0,169,0,269,-94c0,0,99,-93,99,-253c0,0,0,-165,-103,-269C682,76,579,-28,417,-28Z" 
id="f2_o"
transform="scale(0.001,-0.001)" />

<path d="M133,0V162H292V0Z" 
id="f2_h"
transform="scale(0.001,-0.001)" />

<path d="M365,-315c0,0,-136,187,-199,359c0,0,-62,172,-62,359c0,0,0,186,62,358c0,0,63,172,199,360h92c0,0,-110,-192,-160,-365c0,0,-51,-172,-51,-353c0,0,0,-183,51,-355c0,0,50,-172,160,-363Z" 
id="f2_b"
transform="scale(0.001,-0.001)" />

<path d="M104,0V799H238V0Zm-2,946v152H239V946Z" 
id="f2_24"
transform="scale(0.001,-0.001)" />

<path d="M52,-315c0,0,109,192,160,363c0,0,50,173,50,354c0,0,0,183,-50,355c0,0,-51,173,-160,364h92c0,0,135,-188,198,-360c0,0,63,-172,63,-359c0,0,0,-187,-63,-359c0,0,-63,-171,-198,-358Z" 
id="f2_c"
transform="scale(0.001,-0.001)" />

<path d="M528,-29c0,0,-215,0,-336,99C192,70,75,170,75,342v8H211c0,0,4,-119,87,-184c0,0,83,-65,231,-65c0,0,136,0,207,47c0,0,71,47,71,138c0,0,0,79,-47,118c0,0,-47,37,-187,71L382,520c0,0,-145,34,-207,96c0,0,-62,61,-62,169c0,0,0,158,107,250c0,0,107,92,289,92c0,0,185,0,295,-92c0,0,110,-93,117,-256H784c0,0,-9,104,-81,161c0,0,-72,56,-194,56c0,0,-125,0,-190,-48c0,0,-65,-49,-65,-142c0,0,0,-64,43,-95c0,0,43,-32,174,-62L662,603c0,0,154,-37,220,-108c0,0,65,-71,65,-201c0,0,0,-150,-113,-237c0,0,-113,-86,-306,-86Z" 
id="f2_1i"
transform="scale(0.001,-0.001)" />

<path d="M99,0V1097H233V690l23,30c0,0,87,102,219,102c0,0,132,0,203,-71c0,0,72,-72,72,-204V0H616V514c0,0,0,99,-38,142c0,0,-38,44,-124,44c0,0,-102,0,-162,-73c0,0,-59,-74,-59,-199V0Z" 
id="f2_23"
transform="scale(0.001,-0.001)" />

<path d="M424,94c0,0,107,0,169,83c0,0,63,83,63,223c0,0,0,140,-63,224c0,0,-62,83,-169,83c0,0,-106,0,-168,-83c0,0,-62,-84,-62,-224c0,0,0,-140,62,-223c0,0,62,-83,168,-83Zm0,-114c0,0,-165,0,-268,115C156,95,54,211,54,400c0,0,0,189,102,306c0,0,103,116,268,116c0,0,168,0,270,-116c0,0,102,-117,102,-306c0,0,0,-189,-102,-305C694,95,592,-20,424,-20Z" 
id="f2_2a"
transform="scale(0.001,-0.001)" />

<path d="M248,0L21,799H169L322,163L478,799H627L788,158L950,799h133L857,0H713L548,624L392,0Z" 
id="f2_2i"
transform="scale(0.001,-0.001)" />

<path d="M292,-9c0,0,-88,0,-124,38c0,0,-36,39,-36,134V689H22V799H132v224H266V799H392V689H266V163c0,0,0,-27,21,-43c0,0,21,-15,57,-15h48V1C392,1,324,-9,292,-9Z" 
id="f2_2f"
transform="scale(0.001,-0.001)" />

<path d="M335,90c0,0,106,0,179,57c0,0,50,41,67,91c0,0,3,10,4,31c0,0,3,21,3,47v87c0,0,-38,-18,-83,-25L381,360c0,0,-97,-13,-142,-45c0,0,-44,-31,-44,-86c0,0,0,-67,36,-103c0,0,37,-36,104,-36ZM309,-20c0,0,-117,0,-186,61c0,0,-68,63,-68,169c0,0,0,108,64,171c0,0,65,64,189,79l183,23c0,0,22,3,42,8c0,0,26,7,40,27c0,0,15,20,15,51v6c0,0,0,64,-49,101c0,0,-48,36,-135,36c0,0,-83,0,-130,-38c0,0,-46,-39,-56,-115H94c0,0,10,131,92,197c0,0,83,66,238,66c0,0,145,0,222,-63c0,0,76,-63,76,-184V137c0,0,0,-21,12,-33c0,0,12,-12,33,-12c0,0,6,0,18,1c0,0,11,2,25,5V1c0,0,-20,-7,-41,-11c0,0,-22,-5,-37,-5c0,0,-76,0,-110,41c0,0,-22,28,-32,79c0,0,-15,-19,-34,-36c0,0,-101,-89,-247,-89Z" 
id="f2_1w"
transform="scale(0.001,-0.001)" />

<path d="M406,0V763H155V870h2c16,0,114,2,178,48c0,0,70,51,104,157H549V0Z" 
id="f2_k"
transform="scale(0.001,-0.001)" />

<path d="M393,-20c0,0,-169,0,-252,65c0,0,-83,67,-92,210H178c0,0,10,-85,61,-123c0,0,50,-38,154,-38c0,0,90,0,136,34c0,0,47,35,47,100c0,0,0,42,-31,64c0,0,-30,21,-123,43L283,368c0,0,-112,27,-160,75c0,0,-48,48,-48,135c0,0,0,112,80,178c0,0,81,66,218,66c0,0,140,0,222,-68c0,0,82,-67,88,-187H557c0,0,-6,67,-55,103c0,0,-48,37,-129,37c0,0,-84,0,-127,-29c0,0,-44,-29,-44,-85c0,0,0,-43,31,-65c0,0,30,-21,121,-43L493,452c0,0,117,-28,167,-78c0,0,49,-49,49,-138c0,0,0,-119,-86,-188c0,0,-85,-68,-230,-68Z" 
id="f2_2e"
transform="scale(0.001,-0.001)" />

<path d="M99,0V799H226V681l30,39c0,0,87,102,219,102c0,0,132,0,203,-71c0,0,72,-72,72,-204V0H616V502c0,0,0,105,-41,151c0,0,-40,47,-132,47c0,0,-97,0,-154,-73c0,0,-56,-74,-56,-199V0Z" 
id="f2_29"
transform="scale(0.001,-0.001)" />

<path d="M99,0L264,800H392L367,676l36,38c0,0,110,109,236,109c0,0,108,0,159,-63c0,0,23,-30,31,-71l36,34c0,0,113,100,221,100c0,0,123,0,176,-67c0,0,37,-45,37,-117c0,0,0,-33,-8,-73L1173,0H1038l113,546c0,0,16,76,-10,116c0,0,-26,39,-92,39c0,0,-90,0,-159,-65c0,0,-68,-65,-91,-172L704,0H569L684,560c0,0,15,72,-7,106c0,0,-23,35,-85,35c0,0,-109,0,-177,-77c0,0,-68,-77,-101,-238L234,0Z" 
id="f3_28"
transform="scale(0.001,-0.001)" />

<path d="M17,0L389,412L201,800H376L500,518L742,800H904L554,410L750,0H580L448,303L187,0Z" 
id="f3_2j"
transform="scale(0.001,-0.001)" />

<path d="M99,-328c0,0,-46,0,-76,13l25,123c0,0,29,-14,81,-14c0,0,47,0,76,31c0,0,28,31,106,162L185,800H339L415,141L769,800H918L456,0C456,0,329,-216,269,-272c0,0,-61,-56,-170,-56Z" 
id="f3_2k"
transform="scale(0.001,-0.001)" />

<path d="M748,462c0,0,3,31,3,63c0,0,0,86,-45,132c0,0,-46,45,-134,45c0,0,-100,0,-180,-85c0,0,-58,-63,-90,-155ZM419,-20c0,0,-136,0,-213,73c0,0,-77,74,-78,206c0,0,0,25,4,58c0,0,4,32,10,63c0,0,44,208,169,326c0,0,125,117,305,117c0,0,128,0,198,-73c0,0,71,-73,71,-207c0,0,1,-100,-24,-189H278l-4,-25c0,0,-3,-30,-3,-55c0,0,0,-90,44,-134c0,0,44,-45,133,-45c0,0,87,0,156,44c0,0,68,45,95,117H830C830,256,782,126,674,52c0,0,-108,-72,-255,-72Z" 
id="f3_20"
transform="scale(0.001,-0.001)" />

<path d="M0,356v74H784V356Z" 
id="f4_h"
transform="scale(0.001,-0.001)" />

<path d="M0,214v74H784V214ZM0,494v72H784V494Z" 
id="f4_x"
transform="scale(0.001,-0.001)" />

<path d="M103,0V1097H237V0Z" 
id="f2_27"
transform="scale(0.001,-0.001)" />

<path d="M375,-20c0,0,-136,0,-203,66c0,0,-68,68,-68,204V799H238V284c0,0,0,-101,38,-146c0,0,39,-44,127,-44c0,0,97,0,153,75c0,0,57,75,57,203V799H747V0H620V122c0,0,-14,-22,-30,-41C590,81,504,-20,375,-20Z" 
id="f2_2g"
transform="scale(0.001,-0.001)" />

<path d="M132,0V687H22V799H132V935c0,0,0,88,52,133c0,0,52,45,157,45l59,-3V989l-53,2c0,0,-39,0,-60,-24c0,0,-21,-25,-21,-71V799H400V687H266V0Z" 
id="f2_21"
transform="scale(0.001,-0.001)" />

<path d="M412,-328c0,0,-195,96,-303,284C109,-44,0,142,0,365c0,0,0,232,114,422c0,0,114,191,298,273v-31c0,0,-92,-51,-151,-139c0,0,-59,-88,-88,-223c0,0,-29,-136,-29,-282c0,0,0,-167,27,-301c0,0,26,-133,82,-221c0,0,55,-89,159,-159v-32Z" 
id="f4_c"
transform="scale(0.001,-0.001)" />

<path d="M34,-328v32c0,0,92,50,151,138c0,0,59,88,88,222c0,0,29,135,29,283c0,0,0,165,-27,300c0,0,-26,134,-82,222c0,0,-56,89,-159,160v31c0,0,194,-96,303,-284c0,0,108,-187,108,-410c0,0,0,-232,-114,-422c0,0,-114,-191,-297,-272Z" 
id="f4_d"
transform="scale(0.001,-0.001)" />

<path d="M39,0V0c0,0,0,170,84,277c0,0,85,108,317,236c0,0,113,62,154,115c0,0,41,52,41,134c0,0,0,86,-62,141c0,0,-61,54,-156,54c0,0,-101,0,-158,-68c0,0,-57,-68,-60,-194H67c0,0,-2,178,95,279c0,0,98,101,273,101c0,0,149,0,245,-89c0,0,94,-88,94,-228c0,0,0,-118,-60,-195c0,0,-61,-76,-229,-169C485,394,303,294,237,212c0,0,-28,-36,-46,-81H774V0Z" 
id="f2_l"
transform="scale(0.001,-0.001)" />

<path d="M424,92c0,0,114,0,170,107c0,0,57,108,56,323c0,0,1,216,-56,324c0,0,-56,107,-170,107c0,0,-112,0,-168,-107c0,0,-56,-108,-57,-324c0,0,1,-215,57,-323c0,0,56,-107,168,-107Zm0,-120c0,0,-176,0,-271,142c0,0,-96,143,-96,408c0,0,0,265,96,409c0,0,95,144,271,144c0,0,178,0,273,-144c0,0,96,-144,96,-409c0,0,0,-265,-96,-408c0,0,-95,-142,-273,-142Z" 
id="f2_j"
transform="scale(0.001,-0.001)" />

<path d="M431,94c0,0,95,0,170,76c0,0,76,77,101,198c0,0,35,167,-1,250c0,0,-37,84,-144,84c0,0,-128,0,-210,-117c0,0,-81,-117,-81,-302c0,0,0,-90,43,-139c0,0,44,-50,122,-50ZM400,-20c0,0,-126,0,-199,79c0,0,-73,80,-73,219c0,0,0,234,122,390c0,0,122,155,305,155c0,0,144,0,209,-127l8,-16l86,417H993L767,0H638l22,108L642,90C642,90,532,-20,400,-20Z" 
id="f3_1z"
transform="scale(0.001,-0.001)" />

<path d="M60,174V286H832V174Zm0,309V595H832V483Z" 
id="f2_w"
transform="scale(0.001,-0.001)" />

<path d="M17,0L301,412L32,799H205L389,514L574,799H740L471,410L749,0H581L382,305L186,0Z" 
id="f2_2j"
transform="scale(0.001,-0.001)" />

<path d="M-12,-315c0,0,149,193,235,364c0,0,86,172,123,353c0,0,37,181,23,354c0,0,-15,172,-85,365h92c0,0,97,-188,124,-360c0,0,27,-172,-12,-359C488,402,449,215,351,43c0,0,-97,-171,-272,-358Z" 
id="f3_c"
transform="scale(0.001,-0.001)" />

<path d="M411,93c0,0,98,0,158,73c0,0,60,74,60,195c0,0,0,163,-57,252c0,0,-56,88,-161,88c0,0,-113,0,-165,-72c0,0,-52,-72,-52,-229c0,0,0,-147,56,-227c0,0,56,-80,161,-80ZM404,-20c0,0,-161,0,-255,118c0,0,-95,120,-95,324c0,0,0,179,92,290c0,0,91,110,239,110c0,0,147,0,233,-124l11,-15v414H763V0H638V109L621,84C621,84,538,-20,404,-20Z" 
id="f2_1z"
transform="scale(0.001,-0.001)" />

<path d="M649,461c0,0,-6,111,-55,172c0,0,-55,69,-160,69c0,0,-106,0,-170,-79c0,0,-50,-62,-60,-162ZM425,-20c0,0,-169,0,-266,106c0,0,-97,107,-97,297c0,0,0,201,102,320c0,0,103,119,276,119c0,0,157,0,253,-116c0,0,96,-117,96,-306l-1,-48H204c0,0,8,-119,54,-182c0,0,57,-76,180,-76c0,0,77,0,134,43c0,0,58,43,70,110H775C775,247,746,116,656,47c0,0,-90,-67,-231,-67Z" 
id="f2_20"
transform="scale(0.001,-0.001)" />

<path d="M118,0V799H246V662c0,0,17,32,36,58c0,0,76,102,187,102c0,0,19,0,38,-6V679l-27,1c0,0,-109,0,-168,-66c0,0,-60,-65,-60,-186V0Z" 
id="f2_2d"
transform="scale(0.001,-0.001)" />

<path d="M406,93c0,0,97,0,156,73c0,0,59,74,59,195c0,0,0,163,-56,252c0,0,-55,88,-158,88c0,0,-111,0,-162,-72c0,0,-51,-73,-51,-229c0,0,0,-147,55,-227c0,0,55,-80,157,-80ZM621,-315V93l-7,-9C614,84,532,-20,400,-20c0,0,-159,0,-253,118c0,0,-93,119,-93,323c0,0,0,180,90,291c0,0,91,110,237,110c0,0,146,0,231,-124c0,0,10,-14,17,-29V799H755V-315Z" 
id="f2_2c"
transform="scale(0.001,-0.001)" />

<path d="M394,-20c0,0,-159,0,-253,113c0,0,-95,114,-95,307c0,0,0,193,98,308c0,0,98,114,264,114c0,0,144,0,230,-78c0,0,85,-79,91,-217H600c0,0,-8,86,-59,133c0,0,-52,47,-138,47c0,0,-101,0,-159,-82c0,0,-58,-82,-58,-225c0,0,0,-152,54,-229c0,0,53,-77,159,-77c0,0,79,0,132,50c0,0,52,51,69,143H729C729,287,709,137,623,58c0,0,-86,-78,-229,-78Z" 
id="f2_1y"
transform="scale(0.001,-0.001)" />

<path d="M355,0V355H0v72H355V784h72V427H782V355H427V0Z" 
id="f4_f"
transform="scale(0.001,-0.001)" />

<path d="M617,129c0,0,118,0,194,71c0,0,75,70,75,182c0,0,1,59,-55,93c0,0,-56,34,-152,34H368L289,129Zm58,503c0,0,120,0,188,59c0,0,68,58,68,163c0,0,0,57,-50,85c0,0,-50,29,-146,29H462L393,632ZM113,0L340,1097H825c0,0,122,0,191,-55c0,0,69,-55,69,-153c0,0,0,-160,-113,-251c0,0,-35,-26,-77,-46c0,0,27,-12,52,-28c0,0,89,-61,89,-166c0,0,0,-171,-127,-285C909,113,782,0,591,0Z" 
id="f3_11"
transform="scale(0.001,-0.001)" />

<path d="M780,449L714,934L435,449ZM22,0L673,1097H839L998,0H839L797,318H359L178,0Z" 
id="f3_10"
transform="scale(0.001,-0.001)" />

<path d="M310,0L12,799H168L383,145L604,799H752L454,0Z" 
id="f2_2h"
transform="scale(0.001,-0.001)" />

<path d="M354,90c0,0,107,0,192,57c0,0,60,41,87,95c0,0,5,12,11,33c0,0,6,20,11,44l18,88c0,0,-62,-26,-132,-37L414,352c0,0,-84,-11,-131,-56c0,0,-47,-45,-47,-113c0,0,0,-44,31,-69c0,0,31,-24,87,-24ZM306,-20c0,0,-99,0,-156,47c0,0,-57,49,-57,134c0,0,1,117,81,198c0,0,80,81,211,98l164,20l70,10c0,0,35,6,59,30c0,0,23,24,31,66l1,2c0,0,13,64,-25,94c0,0,-39,31,-132,31c0,0,-83,0,-137,-37c0,0,-54,-37,-84,-114H210c0,0,46,137,138,201c0,0,92,63,245,63c0,0,149,0,211,-59c0,0,45,-44,44,-116c0,0,1,-30,-6,-63L749,136c0,0,-4,-19,6,-32c0,0,10,-12,30,-12c0,0,6,0,19,1c0,0,12,2,25,5L809,1c0,0,-19,-6,-43,-11c0,0,-22,-5,-36,-5c0,0,-73,0,-100,43c0,0,-16,27,-17,75C612,102,594,85,573,69c0,0,-120,-89,-267,-89Z" 
id="f3_1w"
transform="scale(0.001,-0.001)" />

<path d="M418,95c0,0,98,0,158,73c0,0,59,73,59,193c0,0,0,170,-54,254c0,0,-54,85,-163,85c0,0,-113,0,-165,-72c0,0,-52,-71,-52,-227c0,0,0,-147,57,-227c0,0,56,-79,160,-79ZM394,-336c0,0,-136,0,-216,62c0,0,-79,63,-96,182H219c0,0,12,-64,57,-98c0,0,45,-35,116,-35c0,0,116,0,176,73c0,0,61,73,61,211V85l-1,-1C628,84,545,-20,412,-20c0,0,-161,0,-256,118c0,0,-94,120,-94,324c0,0,0,179,93,290c0,0,93,110,244,110c0,0,144,0,228,-124l10,-14V799H763V59c0,0,-1,-201,-91,-298c0,0,-91,-97,-278,-97Z" 
id="f2_22"
transform="scale(0.001,-0.001)" />

<path d="M390,-1V329H60V441H390V771H503V441H833V329H503V-1Z" 
id="f2_e"
transform="scale(0.001,-0.001)" />

<path d="M456,95c0,0,130,0,213,121c0,0,82,120,82,310c0,0,0,85,-44,131c0,0,-44,46,-125,46c0,0,-98,0,-174,-90c0,0,-76,-90,-108,-245c0,0,-26,-126,16,-199c0,0,42,-74,140,-74ZM436,-20c0,0,-132,0,-195,108l-5,7L217,0H89L316,1097H450L365,683l10,11c0,0,120,129,262,129c0,0,121,0,190,-77c0,0,69,-77,69,-211c0,0,0,-234,-134,-395C762,140,629,-20,436,-20Z" 
id="f3_1x"
transform="scale(0.001,-0.001)" />

<path d="M430,0L30,1098l82,-1l83,1L510,160l314,938l83,-1l82,1L589,0Z" 
id="f2_1l"
transform="scale(0.001,-0.001)" />

<path d="M152,-323c-8,0,-38,1,-63,8v125c0,0,30,-11,77,-12c0,0,45,0,76,37c0,0,30,38,69,140l2,12v1L17,799H170L383,139L600,799H747L443,-25c0,0,-70,-184,-125,-241c0,0,-55,-57,-164,-57c0,0,-1,0,-2,0Z" 
id="f2_2k"
transform="scale(0.001,-0.001)" />

<path d="M133,0V162H292V0Zm0,628V790H292V628Z" 
id="f2_t"
transform="scale(0.001,-0.001)" />

<path d="M131,0V1097H891V966H280V631H814V500H280V0Z" 
id="f2_15"
transform="scale(0.001,-0.001)" />

<path d="M99,0V799H226V680l28,36c0,0,90,106,215,106c0,0,107,0,171,-63c0,0,28,-28,44,-65l21,28c0,0,87,100,208,100c0,0,125,0,194,-68c0,0,68,-68,68,-194V0H1041V515c0,0,0,91,-37,138c0,0,-38,47,-110,47c0,0,-87,0,-139,-68c0,0,-52,-68,-52,-183V0H569V547c0,0,0,75,-34,114c0,0,-34,39,-99,39c0,0,-89,0,-146,-76c0,0,-57,-76,-57,-196V0Z" 
id="f2_28"
transform="scale(0.001,-0.001)" />

<path d="M133,-224v71c0,0,47,8,65,52c0,0,14,33,17,101H133V163H292V27c0,0,0,-114,-36,-172c0,0,-37,-58,-123,-79Z" 
id="f2_f"
transform="scale(0.001,-0.001)" />

<path d="M436,95c0,0,105,0,160,79c0,0,54,80,54,232c0,0,0,150,-52,222c0,0,-52,72,-161,72c0,0,-112,0,-163,-81c0,0,-51,-82,-51,-258c0,0,0,-127,55,-197c0,0,55,-69,158,-69Zm6,-115c0,0,-135,0,-215,102L215,98V0H89V1097H223V695c0,0,87,127,225,127c1,0,2,0,2,0c0,0,157,0,249,-108c0,0,91,-107,91,-291c0,0,0,-208,-92,-326C698,97,606,-20,442,-20Z" 
id="f2_1x"
transform="scale(0.001,-0.001)" />

<path d="M436,95c0,0,105,0,160,79c0,0,54,80,54,232c0,0,0,150,-52,222c0,0,-52,72,-161,72c0,0,-112,0,-163,-81c0,0,-51,-82,-51,-258c0,0,0,-127,55,-197c0,0,55,-69,158,-69ZM89,-315V799H216V685l7,10c0,0,86,127,228,127c0,0,156,0,248,-108c0,0,91,-107,91,-291c0,0,0,-208,-92,-326C698,97,606,-20,442,-20c0,0,-135,0,-215,102l-4,6V-315Z" 
id="f2_2b"
transform="scale(0.001,-0.001)" />

<path d="M33,-318c0,0,-30,0,-55,4v117H2c0,0,59,0,79,18c0,0,21,19,21,71V799H236V-108c0,0,0,-111,-48,-160c0,0,-48,-50,-155,-50ZM100,946v152H237V946Z" 
id="f2_25"
transform="scale(0.001,-0.001)" />

<path d="M0,368V478H849V368Z" 
id="f2_99"
transform="scale(0.001,-0.001)" />

<path d="M511,373V863L169,383l-7,-10ZM511,0V258H38V383l496,691H646V373H799V258H646V0Z" 
id="f2_n"
transform="scale(0.001,-0.001)" />

<path d="M432,92c0,0,96,0,156,66c0,0,61,65,61,169c0,0,0,103,-61,169c0,0,-60,66,-156,66c0,0,-95,0,-156,-66c0,0,-61,-66,-61,-169c0,0,0,-104,61,-169c0,0,61,-66,156,-66ZM425,-28c0,0,-176,0,-271,135c0,0,-95,136,-95,388c0,0,0,278,103,429c0,0,103,151,293,151c0,0,142,0,226,-77c0,0,84,-76,90,-211H638c0,0,-8,80,-56,123c0,0,-47,43,-127,43c0,0,-125,0,-192,-119c0,0,-58,-102,-64,-278c0,0,100,127,255,127c0,0,152,0,245,-98c0,0,93,-98,93,-258c0,0,0,-161,-101,-259c0,0,-101,-96,-266,-96Z" 
id="f2_p"
transform="scale(0.001,-0.001)" />

<path d="M412,-18c0,0,-144,0,-239,85c0,0,-95,86,-108,222l133,18c0,0,24,-114,79,-164c0,0,55,-50,135,-50c0,0,96,0,161,65c0,0,65,66,65,163c0,0,0,92,-61,152c0,0,-60,60,-153,60c0,0,-38,0,-95,-15l15,119c0,0,13,-2,21,-2c0,0,86,0,155,45c0,0,69,44,69,137c0,0,0,74,-50,122c0,0,-50,49,-129,49c0,0,-79,0,-131,-50c0,0,-52,-49,-67,-147L78,815c0,0,25,135,112,209c0,0,87,74,217,74c0,0,89,0,164,-38c0,0,76,-39,116,-105c0,0,40,-66,40,-141c0,0,0,-70,-39,-129c0,0,-38,-58,-112,-92c0,0,97,-22,151,-93c0,0,53,-70,53,-176c0,0,0,-143,-104,-243c0,0,-105,-99,-264,-99Z" 
id="f5_n"
transform="scale(0.001,-0.001)" />

<path d="M125,0V1051H268V115H799V0Z" 
id="f0_1c"
transform="scale(0.001,-0.001)" />

<path d="M106,0V620c0,0,0,85,-5,188H228c0,0,6,-138,6,-165h3c0,0,32,103,74,141c0,0,42,38,118,38c0,0,27,0,54,-7V692c0,0,-26,7,-71,7c0,0,-84,0,-128,-72c0,0,-44,-72,-44,-206V0Z" 
id="f0_2e"
transform="scale(0.001,-0.001)" />

<path d="M606,-14c0,0,-164,0,-284,65c0,0,-119,66,-182,189c0,0,-63,123,-63,291c0,0,0,255,137,396c0,0,137,140,386,140c0,0,174,0,283,-59c0,0,109,-59,168,-189L915,779c0,0,-44,90,-123,131c0,0,-79,41,-196,41c0,0,-182,0,-278,-110c0,0,-96,-110,-96,-310c0,0,0,-200,102,-315c0,0,102,-115,282,-115c0,0,103,0,193,31c0,0,89,31,144,85V407H629V526h445V164c0,0,-83,-85,-205,-132c0,0,-121,-46,-263,-46Z" 
id="f0_17"
transform="scale(0.001,-0.001)" />

<path d="M355,-14c0,0,-133,0,-194,65c0,0,-62,66,-62,219V808H234V296c0,0,0,-80,16,-124c0,0,16,-44,50,-64c0,0,34,-19,101,-19c0,0,97,0,153,66c0,0,55,67,55,185V808H744V172c0,0,0,-141,4,-172H621c0,0,0,4,-1,20c0,0,-1,17,-2,38c0,0,-1,21,-3,80h-2C613,138,567,55,506,20c0,0,-61,-34,-151,-34Z" 
id="f0_2h"
transform="scale(0.001,-0.001)" />

<path d="M395,89c0,0,115,0,166,79c0,0,51,79,51,246c0,0,0,160,-51,235c0,0,-51,75,-164,75c0,0,-102,0,-147,-75c0,0,-45,-75,-45,-244c0,0,0,-170,45,-243c0,0,45,-73,145,-73ZM361,-14c0,0,-153,0,-225,102c0,0,-72,103,-72,312c0,0,0,422,297,422c0,0,92,0,153,-33c0,0,61,-34,98,-107h2l-2,90v335H747V166c0,0,0,-126,4,-166H623c0,0,-2,12,-5,55c0,0,-3,44,-3,75h-3c0,0,-37,-78,-98,-111c0,0,-62,-33,-153,-33Z" 
id="f0_20"
transform="scale(0.001,-0.001)" />

<path d="M140,0V163H285V0Z" 
id="f0_i"
transform="scale(0.001,-0.001)" />


</defs>
</svg>