<?xml version="1.0" encoding="UTF-8" standalone="no"?>
<!DOCTYPE svg PUBLIC "-//W3C//DTD SVG 1.1//EN"
"http://www.w3.org/Graphics/SVG/1.1/DTD/svg11.dtd">
<svg viewBox="0 0 677 1056" version="1.1" xmlns="http://www.w3.org/2000/svg" xmlns:xlink="http://www.w3.org/1999/xlink">
<defs>
<style type="text/css"><![CDATA[
.g0_40{
fill: none;
stroke: #000000;
stroke-width: 0.7619333;
stroke-linecap: round;
stroke-linejoin: miter;
}
.g1_40{
fill: none;
stroke: #000000;
stroke-width: 1.0493388;
stroke-linecap: round;
stroke-linejoin: miter;
}
.g2_40{
fill: none;
stroke: #000000;
stroke-width: 1.0503472;
stroke-linecap: round;
stroke-linejoin: miter;
}
.g3_40{
fill: none;
stroke: #000000;
stroke-width: 0.15277778;
stroke-linecap: round;
stroke-linejoin: miter;
}
.g4_40{
}
.g5_40{
fill: none;
stroke: #000000;
stroke-width: 0.7638889;
stroke-linecap: round;
stroke-linejoin: miter;
}
.g6_40{
fill: none;
stroke: #000000;
stroke-width: 0.76902217;
stroke-linecap: round;
stroke-linejoin: miter;
}
.g7_40{
fill: none;
stroke: #000000;
stroke-width: 0.7744;
stroke-linecap: round;
stroke-linejoin: miter;
}
]]></style>
</defs>
<g fill="#D4D4D4" fill-opacity="0.56" >
<use xlink:href="#f0_1f" transform="matrix(50.9,-50.9,50.9,50.9,65.9,924.1)" />
<use xlink:href="#f0_2a" transform="matrix(50.9,-50.9,50.9,50.9,126.4,863.6)" />
<use xlink:href="#f0_28" transform="matrix(50.9,-50.9,50.9,50.9,169.6,820.3)" />
<use xlink:href="#f0_25" transform="matrix(50.9,-50.9,50.9,50.9,186.9,803.1)" />
<use xlink:href="#f0_2a" transform="matrix(50.9,-50.9,50.9,50.9,204.2,785.8)" />
<use xlink:href="#f0_21" transform="matrix(50.9,-50.9,50.9,50.9,247.4,742.5)" />
<use xlink:href="#f0_2k" transform="matrix(50.9,-50.9,50.9,50.9,290.7,699.3)" />
<use xlink:href="#f0_1x" transform="matrix(50.9,-50.9,50.9,50.9,329.6,660.4)" />
<use xlink:href="#f0_29" transform="matrix(50.9,-50.9,50.9,50.9,372.8,617.2)" />
<use xlink:href="#f0_2c" transform="matrix(50.9,-50.9,50.9,50.9,437.6,552.4)" />
<use xlink:href="#f0_2b" transform="matrix(50.9,-50.9,50.9,50.9,480.8,509.1)" />
<use xlink:href="#f0_25" transform="matrix(50.9,-50.9,50.9,50.9,524.1,465.9)" />
<use xlink:href="#f0_2a" transform="matrix(50.9,-50.9,50.9,50.9,541.3,448.6)" />
<use xlink:href="#f0_2g" transform="matrix(50.9,-50.9,50.9,50.9,584.6,405.4)" />
</g>
<g fill="#000000" >
<use xlink:href="#f1_k" transform="matrix(10.4,0,0,10.4,41.2,74.8)" />
<use xlink:href="#f1_n" transform="matrix(10.4,0,0,10.4,50.1,74.8)" />
<use xlink:href="#f1_h" transform="matrix(10.4,0,0,10.4,59.2,74.8)" />
<use xlink:href="#f1_1f" transform="matrix(10.4,0,0,10.4,81.9,74.8)" />
<use xlink:href="#f1_2d" transform="matrix(10.4,0,0,10.4,92.5,74.8)" />
<use xlink:href="#f1_2a" transform="matrix(10.4,0,0,10.4,97.9,74.8)" />
<use xlink:href="#f1_2h" transform="matrix(10.4,0,0,10.4,106.7,74.8)" />
<use xlink:href="#f1_20" transform="matrix(10.4,0,0,10.4,114.7,74.8)" />
<use xlink:href="#f1_2f" transform="matrix(10.4,0,0,10.4,131.5,74.8)" />
<use xlink:href="#f1_23" transform="matrix(10.4,0,0,10.4,135.9,74.8)" />
<use xlink:href="#f1_1w" transform="matrix(10.4,0,0,10.4,144.8,74.8)" />
<use xlink:href="#f1_2f" transform="matrix(10.4,0,0,10.4,153.6,74.8)" />
<use xlink:href="#f2_21" transform="matrix(10.4,0,0,10.4,165.7,74.8)" />
<use xlink:href="#f1_b" transform="matrix(10.4,0,0,10.4,170.1,74.8)" />
<use xlink:href="#f2_2j" transform="matrix(10.4,0,0,10.4,175.4,74.8)" />
<use xlink:href="#f1_c" transform="matrix(10.4,0,0,10.4,183.5,74.8)" />
<use xlink:href="#f1_w" transform="matrix(10.4,0,0,10.4,196.7,74.8)" />
<use xlink:href="#f1_2n" transform="matrix(10.4,0,0,10.4,214.1,74.8)" />
<use xlink:href="#f2_2j" transform="matrix(10.4,0,0,10.4,218.3,74.8)" />
<use xlink:href="#f1_e" transform="matrix(10.4,0,0,10.4,234.3,74.8)" />
<use xlink:href="#f1_k" transform="matrix(10.4,0,0,10.4,251.5,74.8)" />
<use xlink:href="#f1_2n" transform="matrix(10.4,0,0,10.4,260.3,74.8)" />
<use xlink:href="#f1_24" transform="matrix(10.4,0,0,10.4,272.3,74.8)" />
<use xlink:href="#f1_2e" transform="matrix(10.4,0,0,10.4,275.9,74.8)" />
<use xlink:href="#f1_1y" transform="matrix(10.4,0,0,10.4,291.9,74.8)" />
<use xlink:href="#f1_2a" transform="matrix(10.4,0,0,10.4,299.9,74.8)" />
<use xlink:href="#f1_29" transform="matrix(10.4,0,0,10.4,308.8,74.8)" />
<use xlink:href="#f1_2f" transform="matrix(10.4,0,0,10.4,317.6,74.8)" />
<use xlink:href="#f1_24" transform="matrix(10.4,0,0,10.4,322.1,74.8)" />
<use xlink:href="#f1_29" transform="matrix(10.4,0,0,10.4,325.6,74.8)" />
<use xlink:href="#f1_2g" transform="matrix(10.4,0,0,10.4,334.5,74.8)" />
<use xlink:href="#f1_2a" transform="matrix(10.4,0,0,10.4,343.4,74.8)" />
<use xlink:href="#f1_2g" transform="matrix(10.4,0,0,10.4,352.2,74.8)" />
<use xlink:href="#f1_2e" transform="matrix(10.4,0,0,10.4,361.1,74.8)" />
<use xlink:href="#f1_1w" transform="matrix(10.4,0,0,10.4,376.9,74.8)" />
<use xlink:href="#f1_2f" transform="matrix(10.4,0,0,10.4,385.8,74.8)" />
<use xlink:href="#f2_2j" transform="matrix(10.4,0,0,10.4,397.8,74.8)" />
<use xlink:href="#f1_w" transform="matrix(10.4,0,0,10.4,413.7,74.8)" />
<use xlink:href="#f1_99" transform="matrix(10.4,0,0,10.4,431.1,74.8)" />
<use xlink:href="#f1_k" transform="matrix(10.4,0,0,10.4,440,74.8)" />
<use xlink:href="#f1_f" transform="matrix(10.4,0,0,10.4,448.9,74.8)" />
<use xlink:href="#f1_1x" transform="matrix(10.4,0,0,10.4,461.2,74.8)" />
<use xlink:href="#f1_2g" transform="matrix(10.4,0,0,10.4,470,74.8)" />
<use xlink:href="#f1_2f" transform="matrix(10.4,0,0,10.4,478.9,74.8)" />
<use xlink:href="#f1_29" transform="matrix(10.4,0,0,10.4,491.2,74.8)" />
<use xlink:href="#f1_2a" transform="matrix(10.4,0,0,10.4,500.1,74.8)" />
<use xlink:href="#f1_2f" transform="matrix(10.4,0,0,10.4,509,74.8)" />
<use xlink:href="#f1_1z" transform="matrix(10.4,0,0,10.4,521.5,74.8)" />
<use xlink:href="#f1_20" transform="matrix(10.4,0,0,10.4,530.3,74.8)" />
<use xlink:href="#f1_2d" transform="matrix(10.4,0,0,10.4,539.2,74.8)" />
<use xlink:href="#f1_24" transform="matrix(10.4,0,0,10.4,544.5,74.8)" />
<use xlink:href="#f1_2h" transform="matrix(10.4,0,0,10.4,548.1,74.8)" />
<use xlink:href="#f1_1w" transform="matrix(10.4,0,0,10.4,556,74.8)" />
<use xlink:href="#f1_1x" transform="matrix(10.4,0,0,10.4,564.9,74.8)" />
<use xlink:href="#f1_27" transform="matrix(10.4,0,0,10.4,573.8,74.8)" />
<use xlink:href="#f1_20" transform="matrix(10.4,0,0,10.4,577.3,74.8)" />
<use xlink:href="#f1_1w" transform="matrix(10.4,0,0,10.4,594.1,74.8)" />
<use xlink:href="#f1_2f" transform="matrix(10.4,0,0,10.4,602.9,74.8)" />
<use xlink:href="#f2_2j" transform="matrix(10.4,0,0,10.4,81.9,94.9)" />
<use xlink:href="#f1_w" transform="matrix(10.4,0,0,10.4,96.8,94.9)" />
<use xlink:href="#f1_99" transform="matrix(10.4,0,0,10.4,113,94.9)" />
<use xlink:href="#f1_k" transform="matrix(10.4,0,0,10.4,121.9,94.9)" />
<use xlink:href="#f1_h" transform="matrix(10.4,0,0,10.4,130.8,94.9)" />
<use xlink:href="#f1_k" transform="matrix(10.4,0,0,10.4,41.2,128.8)" />
<use xlink:href="#f1_o" transform="matrix(10.4,0,0,10.4,50.1,128.8)" />
<use xlink:href="#f1_h" transform="matrix(10.4,0,0,10.4,59.2,128.8)" />
<use xlink:href="#f1_15" transform="matrix(10.4,0,0,10.4,81.9,128.8)" />
<use xlink:href="#f1_2a" transform="matrix(10.4,0,0,10.4,91.7,128.8)" />
<use xlink:href="#f1_2d" transform="matrix(10.4,0,0,10.4,100.5,128.8)" />
<use xlink:href="#f1_2i" transform="matrix(10.4,0,0,10.4,113,128.8)" />
<use xlink:href="#f1_23" transform="matrix(10.4,0,0,10.4,124.5,128.8)" />
<use xlink:href="#f1_1w" transform="matrix(10.4,0,0,10.4,133.4,128.8)" />
<use xlink:href="#f1_2f" transform="matrix(10.4,0,0,10.4,142.2,128.8)" />
<use xlink:href="#f1_2h" transform="matrix(10.4,0,0,10.4,153.6,128.8)" />
<use xlink:href="#f1_1w" transform="matrix(10.4,0,0,10.4,161.6,128.8)" />
<use xlink:href="#f1_27" transform="matrix(10.4,0,0,10.4,170.5,128.8)" />
<use xlink:href="#f1_2g" transform="matrix(10.4,0,0,10.4,174,128.8)" />
<use xlink:href="#f1_20" transform="matrix(10.4,0,0,10.4,182.9,128.8)" />
<use xlink:href="#f1_2a" transform="matrix(10.4,0,0,10.4,198.9,128.8)" />
<use xlink:href="#f1_21" transform="matrix(10.4,0,0,10.4,207.8,128.8)" />
<use xlink:href="#f2_2b" transform="matrix(10.4,0,0,10.4,218.9,128.8)" />
<use xlink:href="#f2_f" transform="matrix(10.4,0,0,10.4,227.7,128.8)" />
<use xlink:href="#f3_c" transform="matrix(10.5,0,0,11.5,147.9,185.2)" />
<use xlink:href="#f3_d" transform="matrix(10.5,0,0,11.5,163.5,185.2)" />
</g>
<path d="M251.7,164.4l-5.1,16.1" class="g0_40" />
<g fill="#000000" >
<use xlink:href="#f3_c" transform="matrix(10.6,0,0,14.2,235.9,177.7)" />
<use xlink:href="#f3_d" transform="matrix(10.6,0,0,14.2,262.9,177.7)" />
<use xlink:href="#f1_2e" transform="matrix(10.6,0,0,10.6,214.3,177)" />
<use xlink:href="#f1_24" transform="matrix(10.6,0,0,10.6,222.4,177)" />
<use xlink:href="#f1_29" transform="matrix(10.6,0,0,10.6,226,177)" />
<use xlink:href="#f1_k" transform="matrix(10.6,0,0,10.6,240.5,177)" />
<use xlink:href="#f1_j" transform="matrix(10.6,0,0,10.6,309.9,177)" />
<use xlink:href="#f1_j" transform="matrix(10.6,0,0,10.6,226.5,201.2)" />
<use xlink:href="#f1_j" transform="matrix(10.6,0,0,10.6,309.7,201.2)" />
<use xlink:href="#f2_2b" transform="matrix(7,0,0,7.1,204.5,169.8)" />
<use xlink:href="#f2_2j" transform="matrix(10.6,0,0,10.6,194.9,177)" />
<use xlink:href="#f2_2j" transform="matrix(10.6,0,0,10.6,253.5,177)" />
<use xlink:href="#f2_2j" transform="matrix(10.6,0,0,10.6,283.4,177)" />
<use xlink:href="#f2_21" transform="matrix(10.6,0,0,10.6,139.2,187.3)" />
<use xlink:href="#f2_2j" transform="matrix(10.6,0,0,10.6,154.1,187.3)" />
<use xlink:href="#f2_2j" transform="matrix(10.6,0,0,10.6,283.4,201.2)" />
<use xlink:href="#f3_4u" transform="matrix(10.6,0,0,10.6,186,175)" />
<use xlink:href="#f3_3f" transform="matrix(10.6,0,0,10.6,296.4,177)" />
<use xlink:href="#f3_4x" transform="matrix(10.6,0,0,10.6,186,177.7)" />
<use xlink:href="#f3_x" transform="matrix(10.6,0,0,10.6,172.6,187.3)" />
<use xlink:href="#f3_4v" transform="matrix(10.6,0,0,10.6,186,189.8)" />
<use xlink:href="#f3_x" transform="matrix(10.6,0,0,10.6,296.4,201.2)" />
<use xlink:href="#f3_4x" transform="matrix(10.6,0,0,10.6,186,202.3)" />
<use xlink:href="#f3_4w" transform="matrix(10.6,0,0,10.6,186,204.7)" />
<use xlink:href="#f1_24" transform="matrix(10.4,0,0,10.4,328.1,192.5)" />
<use xlink:href="#f1_2e" transform="matrix(10.4,0,0,10.4,331.7,192.5)" />
<use xlink:href="#f1_1z" transform="matrix(10.4,0,0,10.4,346.6,192.5)" />
<use xlink:href="#f1_20" transform="matrix(10.4,0,0,10.4,355.5,192.5)" />
<use xlink:href="#f1_2d" transform="matrix(10.4,0,0,10.4,364.3,192.5)" />
<use xlink:href="#f1_24" transform="matrix(10.4,0,0,10.4,369.7,192.5)" />
<use xlink:href="#f1_2h" transform="matrix(10.4,0,0,10.4,373.2,192.5)" />
<use xlink:href="#f1_1w" transform="matrix(10.4,0,0,10.4,381.2,192.5)" />
<use xlink:href="#f1_1x" transform="matrix(10.4,0,0,10.4,390,192.5)" />
<use xlink:href="#f1_27" transform="matrix(10.4,0,0,10.4,398.9,192.5)" />
<use xlink:href="#f1_20" transform="matrix(10.4,0,0,10.4,402.5,192.5)" />
<use xlink:href="#f1_1w" transform="matrix(10.4,0,0,10.4,418.3,192.5)" />
<use xlink:href="#f1_2f" transform="matrix(10.4,0,0,10.4,427.2,192.5)" />
<use xlink:href="#f2_2j" transform="matrix(10.4,0,0,10.4,438.1,192.5)" />
<use xlink:href="#f1_w" transform="matrix(10.4,0,0,10.4,453.2,192.5)" />
<use xlink:href="#f1_j" transform="matrix(10.4,0,0,10.4,469.4,192.5)" />
<use xlink:href="#f1_h" transform="matrix(10.4,0,0,10.4,478.3,192.5)" />
<use xlink:href="#f1_k" transform="matrix(10.4,0,0,10.4,41.2,263.8)" />
<use xlink:href="#f1_p" transform="matrix(10.4,0,0,10.4,50.1,263.8)" />
<use xlink:href="#f1_h" transform="matrix(10.4,0,0,10.4,59.2,263.8)" />
<use xlink:href="#f1_18" transform="matrix(10.4,0,0,10.4,81.9,263.8)" />
<use xlink:href="#f1_21" transform="matrix(10.4,0,0,10.4,86.3,263.8)" />
</g>
<path d="M136.4,258.3h10.8m61.3,0h47.9m93.2,0h12.1m159.8,0h20.3" class="g1_40" />
<g fill="#000000" >
<use xlink:href="#f1_k" transform="matrix(7.3,0,0,7.4,188.7,255.3)" />
<use xlink:href="#f1_k" transform="matrix(7.3,0,0,7.4,329.7,255.3)" />
<use xlink:href="#f1_l" transform="matrix(7.3,0,0,7.4,247.3,269.4)" />
<use xlink:href="#f1_k" transform="matrix(10.5,0,0,10.5,138.2,252.1)" />
<use xlink:href="#f1_l" transform="matrix(10.5,0,0,10.5,222.9,252.1)" />
<use xlink:href="#f1_k" transform="matrix(10.5,0,0,10.5,352,252.1)" />
<use xlink:href="#f1_2f" transform="matrix(10.5,0,0,10.5,160.3,262.6)" />
<use xlink:href="#f1_1w" transform="matrix(10.5,0,0,10.5,164.7,262.6)" />
<use xlink:href="#f1_29" transform="matrix(10.5,0,0,10.5,173.6,262.6)" />
<use xlink:href="#f1_l" transform="matrix(10.5,0,0,10.5,288,262.6)" />
<use xlink:href="#f1_2f" transform="matrix(10.5,0,0,10.5,301.1,262.6)" />
<use xlink:href="#f1_1w" transform="matrix(10.5,0,0,10.5,305.6,262.6)" />
<use xlink:href="#f1_29" transform="matrix(10.5,0,0,10.5,314.5,262.6)" />
<use xlink:href="#f1_f" transform="matrix(10.5,0,0,10.5,382,262.6)" />
<use xlink:href="#f1_j" transform="matrix(10.5,0,0,10.5,393.4,262.6)" />
<use xlink:href="#f1_k" transform="matrix(10.5,0,0,10.5,461.8,262.6)" />
<use xlink:href="#f1_f" transform="matrix(10.5,0,0,10.5,467.3,262.6)" />
<use xlink:href="#f1_21" transform="matrix(10.5,0,0,10.5,487.4,262.6)" />
<use xlink:href="#f1_24" transform="matrix(10.5,0,0,10.5,491.9,262.6)" />
<use xlink:href="#f1_29" transform="matrix(10.5,0,0,10.5,495.4,262.6)" />
<use xlink:href="#f1_1z" transform="matrix(10.5,0,0,10.5,504.4,262.6)" />
<use xlink:href="#f1_h" transform="matrix(10.5,0,0,10.5,544.9,262.6)" />
<use xlink:href="#f1_l" transform="matrix(10.5,0,0,10.5,137.5,275)" />
<use xlink:href="#f1_k" transform="matrix(10.5,0,0,10.5,208.6,276.6)" />
<use xlink:href="#f3_h" transform="matrix(7.3,0,0,7.4,182.6,255.3)" />
<use xlink:href="#f3_h" transform="matrix(7.3,0,0,7.4,323.6,255.3)" />
<use xlink:href="#f3_4r" transform="matrix(10.5,0,0,10.5,152.4,251.3)" />
<use xlink:href="#f3_57" transform="matrix(10.5,0,0,10.5,372.9,251.3)" />
<use xlink:href="#f3_4o" transform="matrix(10.5,0,0,10.5,198.8,252.9)" />
<use xlink:href="#f3_54" transform="matrix(10.5,0,0,10.5,258,252.9)" />
<use xlink:href="#f3_4o" transform="matrix(10.5,0,0,10.5,339.8,252.9)" />
<use xlink:href="#f3_54" transform="matrix(10.5,0,0,10.5,363.2,252.9)" />
<use xlink:href="#f3_x" transform="matrix(10.5,0,0,10.5,118.8,262.6)" />
<use xlink:href="#f3_f" transform="matrix(10.5,0,0,10.5,272.4,262.6)" />
<use xlink:href="#f3_w" transform="matrix(10.5,0,0,10.5,410.6,262.6)" />
<use xlink:href="#f3_w" transform="matrix(10.5,0,0,10.5,445.9,262.6)" />
<use xlink:href="#f3_4p" transform="matrix(10.5,0,0,10.5,339.8,265.1)" />
<use xlink:href="#f3_55" transform="matrix(10.5,0,0,10.5,363.2,265.1)" />
<use xlink:href="#f3_4p" transform="matrix(10.5,0,0,10.5,198.8,266.8)" />
<use xlink:href="#f3_55" transform="matrix(10.5,0,0,10.5,258,266.8)" />
<use xlink:href="#f3_4s" transform="matrix(10.5,0,0,10.5,152.4,266.8)" />
<use xlink:href="#f3_58" transform="matrix(10.5,0,0,10.5,372.9,266.8)" />
<use xlink:href="#f3_4q" transform="matrix(10.5,0,0,10.5,339.8,271.7)" />
<use xlink:href="#f3_56" transform="matrix(10.5,0,0,10.5,363.2,271.7)" />
<use xlink:href="#f3_4q" transform="matrix(10.5,0,0,10.5,198.8,273.4)" />
<use xlink:href="#f3_56" transform="matrix(10.5,0,0,10.5,258,273.4)" />
<use xlink:href="#f3_h" transform="matrix(10.5,0,0,10.5,221.5,276.6)" />
<use xlink:href="#f3_4t" transform="matrix(10.5,0,0,10.5,152.4,278.4)" />
<use xlink:href="#f3_59" transform="matrix(10.5,0,0,10.5,372.9,278.4)" />
<use xlink:href="#f2_2j" transform="matrix(10.5,0,0,10.5,232.2,252.1)" />
<use xlink:href="#f2_1z" transform="matrix(10.5,0,0,10.5,521.5,252.1)" />
<use xlink:href="#f2_2k" transform="matrix(10.5,0,0,10.5,530.4,252.1)" />
<use xlink:href="#f2_2k" transform="matrix(10.5,0,0,10.5,100.4,262.6)" />
<use xlink:href="#f2_2j" transform="matrix(10.5,0,0,10.5,428,262.6)" />
<use xlink:href="#f2_2j" transform="matrix(10.5,0,0,10.5,350.8,275)" />
<use xlink:href="#f2_1z" transform="matrix(10.5,0,0,10.5,521.7,275)" />
<use xlink:href="#f2_2j" transform="matrix(10.5,0,0,10.5,530.6,275)" />
<use xlink:href="#f2_2j" transform="matrix(10.5,0,0,10.5,237.2,276.6)" />
<use xlink:href="#f1_k" transform="matrix(10.4,0,0,10.4,41.2,333.3)" />
<use xlink:href="#f1_q" transform="matrix(10.4,0,0,10.4,50.1,333.3)" />
<use xlink:href="#f1_h" transform="matrix(10.4,0,0,10.4,59.2,333.3)" />
<use xlink:href="#f1_18" transform="matrix(10.4,0,0,10.4,81.9,333.3)" />
<use xlink:href="#f1_21" transform="matrix(10.4,0,0,10.4,86.3,333.3)" />
</g>
<path d="M231.4,328.2h39.7" class="g2_40" />
<path d="M220.7,333.2l1.5,-2l4,15l4.3,-39.6h42.1" class="g3_40" />
<path fill-rule="evenodd" d="M220.5,333.1l2.1,-2.8l3.5,12.8l4,-36.8h42.5v.7H230.8l-4.3,39.2h-.7l-4,-14l-.9,1.1l-.4,-.2Z" class="g4_40" />
<path d="M328,328.2h20.3" class="g2_40" />
<g fill="#000000" >
<use xlink:href="#f1_k" transform="matrix(7.4,0,0,7.3,209.6,325.3)" />
<use xlink:href="#f1_k" transform="matrix(10.4,0,0,10.4,231.5,322.1)" />
<use xlink:href="#f1_2e" transform="matrix(10.4,0,0,10.4,135.7,332.4)" />
<use xlink:href="#f1_24" transform="matrix(10.4,0,0,10.4,143.7,332.4)" />
<use xlink:href="#f1_29" transform="matrix(10.4,0,0,10.4,147.3,332.4)" />
<use xlink:href="#f1_l" transform="matrix(10.4,0,0,10.4,167.8,332.4)" />
<use xlink:href="#f1_2f" transform="matrix(10.4,0,0,10.4,181,332.4)" />
<use xlink:href="#f1_1w" transform="matrix(10.4,0,0,10.4,185.5,332.4)" />
<use xlink:href="#f1_29" transform="matrix(10.4,0,0,10.4,194.5,332.4)" />
<use xlink:href="#f1_2f" transform="matrix(10.4,0,0,10.4,289.1,332.4)" />
<use xlink:href="#f1_23" transform="matrix(10.4,0,0,10.4,293.5,332.4)" />
<use xlink:href="#f1_20" transform="matrix(10.4,0,0,10.4,302.5,332.4)" />
<use xlink:href="#f1_29" transform="matrix(10.4,0,0,10.4,311.6,332.4)" />
<use xlink:href="#f1_y" transform="matrix(10.4,0,0,10.4,373.9,332.4)" />
<use xlink:href="#f1_k" transform="matrix(10.4,0,0,10.4,231.3,344.7)" />
<use xlink:href="#f3_h" transform="matrix(7.3,0,0,7.3,203.5,325.3)" />
<use xlink:href="#f3_4r" transform="matrix(10.5,0,0,10.4,160.2,319.4)" />
<use xlink:href="#f3_57" transform="matrix(10.5,0,0,10.4,275.1,319.4)" />
<use xlink:href="#f3_h" transform="matrix(10.5,0,0,10.4,244.5,322.1)" />
<use xlink:href="#f3_x" transform="matrix(10.5,0,0,10.4,118.6,332.4)" />
<use xlink:href="#f3_x" transform="matrix(10.5,0,0,10.4,357.4,332.4)" />
<use xlink:href="#f3_4s" transform="matrix(10.5,0,0,10.4,160.2,334.7)" />
<use xlink:href="#f3_58" transform="matrix(10.5,0,0,10.4,275.1,334.7)" />
<use xlink:href="#f3_f" transform="matrix(10.5,0,0,10.4,244.3,344.7)" />
<use xlink:href="#f3_4t" transform="matrix(10.5,0,0,10.4,160.2,346.5)" />
<use xlink:href="#f3_59" transform="matrix(10.5,0,0,10.4,275.1,346.5)" />
<use xlink:href="#f2_2j" transform="matrix(10.4,0,0,10.4,260.2,322.1)" />
<use xlink:href="#f2_1z" transform="matrix(10.4,0,0,10.4,328.3,322.1)" />
<use xlink:href="#f2_2k" transform="matrix(10.4,0,0,10.4,337.4,322.1)" />
<use xlink:href="#f2_2k" transform="matrix(10.4,0,0,10.4,100.1,332.4)" />
<use xlink:href="#f2_2j" transform="matrix(10.4,0,0,10.4,260.3,344.7)" />
<use xlink:href="#f2_1z" transform="matrix(10.4,0,0,10.4,328.5,344.7)" />
<use xlink:href="#f2_2j" transform="matrix(10.4,0,0,10.4,337.5,344.7)" />
<use xlink:href="#f1_k" transform="matrix(10.4,0,0,10.4,41.2,406.6)" />
<use xlink:href="#f1_r" transform="matrix(10.4,0,0,10.4,50.1,406.6)" />
<use xlink:href="#f1_h" transform="matrix(10.4,0,0,10.4,59.2,406.6)" />
<use xlink:href="#f1_18" transform="matrix(10.4,0,0,10.4,81.9,406.6)" />
<use xlink:href="#f1_21" transform="matrix(10.4,0,0,10.4,86.3,406.6)" />
<use xlink:href="#f1_o" transform="matrix(10.4,0,0,10.4,97.6,406.6)" />
<use xlink:href="#f2_2j" transform="matrix(7.4,0,0,7.4,106.3,401.3)" />
<use xlink:href="#f1_e" transform="matrix(10.4,0,0,10.4,116.9,406.6)" />
<use xlink:href="#f1_o" transform="matrix(10.4,0,0,10.4,133.2,406.6)" />
<use xlink:href="#f2_2k" transform="matrix(7.4,0,0,7.4,142,401.3)" />
<use xlink:href="#f1_w" transform="matrix(10.4,0,0,10.4,154.5,406.6)" />
<use xlink:href="#f1_o" transform="matrix(10.4,0,0,10.4,170.8,406.6)" />
<use xlink:href="#f2_2j" transform="matrix(7.4,0,0,7.4,179.6,401.3)" />
<use xlink:href="#f1_e" transform="matrix(7.4,0,0,7.4,185.3,401.3)" />
<use xlink:href="#f2_2k" transform="matrix(7.4,0,0,7.4,191.9,401.3)" />
<use xlink:href="#f1_2f" transform="matrix(10.4,0,0,10.4,204.6,406.6)" />
<use xlink:href="#f1_23" transform="matrix(10.4,0,0,10.4,209,406.6)" />
<use xlink:href="#f1_20" transform="matrix(10.4,0,0,10.4,217.9,406.6)" />
<use xlink:href="#f1_29" transform="matrix(10.4,0,0,10.4,226.7,406.6)" />
<use xlink:href="#f1_2b" transform="matrix(10.4,0,0,10.4,242.6,406.6)" />
<use xlink:href="#f1_2d" transform="matrix(10.4,0,0,10.4,251.4,406.6)" />
<use xlink:href="#f1_2a" transform="matrix(10.4,0,0,10.4,256.8,406.6)" />
<use xlink:href="#f1_2h" transform="matrix(10.4,0,0,10.4,265.6,406.6)" />
<use xlink:href="#f1_20" transform="matrix(10.4,0,0,10.4,273.6,406.6)" />
<use xlink:href="#f1_2f" transform="matrix(10.4,0,0,10.4,289.4,406.6)" />
<use xlink:href="#f1_23" transform="matrix(10.4,0,0,10.4,293.9,406.6)" />
<use xlink:href="#f1_1w" transform="matrix(10.4,0,0,10.4,302.7,406.6)" />
<use xlink:href="#f1_2f" transform="matrix(10.4,0,0,10.4,311.6,406.6)" />
</g>
<path d="M325.5,399.9h20.3" class="g2_40" />
<g fill="#000000" >
<use xlink:href="#f1_o" transform="matrix(10.4,0,0,10.4,368.6,404.1)" />
<use xlink:href="#f1_j" transform="matrix(10.4,0,0,10.4,429.9,404.1)" />
<use xlink:href="#f2_2k" transform="matrix(7.3,0,0,7.3,378.1,396.9)" />
<use xlink:href="#f2_2j" transform="matrix(7.3,0,0,7.3,395.1,396.9)" />
<use xlink:href="#f2_1z" transform="matrix(10.4,0,0,10.4,325.6,393.8)" />
<use xlink:href="#f2_2k" transform="matrix(10.4,0,0,10.4,334.6,393.8)" />
<use xlink:href="#f2_1z" transform="matrix(10.4,0,0,10.4,325.6,416.3)" />
<use xlink:href="#f2_2j" transform="matrix(10.4,0,0,10.4,334.6,416.3)" />
<use xlink:href="#f3_h" transform="matrix(7.3,0,0,7.3,387.2,396.9)" />
<use xlink:href="#f3_f" transform="matrix(10.5,0,0,10.4,352.9,404.1)" />
<use xlink:href="#f3_x" transform="matrix(10.5,0,0,10.4,412.5,404.1)" />
<use xlink:href="#f1_h" transform="matrix(10.4,0,0,10.4,441.6,406.6)" />
<use xlink:href="#f1_k" transform="matrix(10.4,0,0,10.4,41.2,479.7)" />
<use xlink:href="#f1_s" transform="matrix(10.4,0,0,10.4,50.1,479.7)" />
<use xlink:href="#f1_h" transform="matrix(10.4,0,0,10.4,59.2,479.7)" />
<use xlink:href="#f1_18" transform="matrix(10.4,0,0,10.4,81.9,479.7)" />
<use xlink:href="#f1_21" transform="matrix(10.4,0,0,10.4,86.3,479.7)" />
</g>
<path d="M111.3,476.6l1.6,-1.1l3.9,8.8l4.3,-23.4h40.1" class="g3_40" />
<path fill-rule="evenodd" d="M111.2,476.5l2.1,-1.7l3.5,7.4l4,-21.6h40.4v.7H121.4l-4.2,23h-.8l-3.9,-8.2l-1,.7l-.3,-.3Z" class="g4_40" />
<path d="M188.5,474.4l1.6,-1.1l3.9,7.5l4.2,-19.9h39.9" class="g3_40" />
<path fill-rule="evenodd" d="M188.4,474.2l2,-1.5L194,479l3.9,-18.4h40.2v.7H198.5l-4.1,19.5h-.8l-3.9,-6.9l-1.1,.7l-.2,-.4Z" class="g4_40" />
<g fill="#000000" >
<use xlink:href="#f1_l" transform="matrix(7,0,0,7,152.9,472.4)" />
<use xlink:href="#f1_l" transform="matrix(7,0,0,7,229.9,472.4)" />
<use xlink:href="#f1_k" transform="matrix(10.5,0,0,10.5,120.3,479.6)" />
<use xlink:href="#f1_k" transform="matrix(10.5,0,0,10.5,197.5,479.6)" />
<use xlink:href="#f2_2j" transform="matrix(10.5,0,0,10.5,100.4,479.6)" />
<use xlink:href="#f2_2k" transform="matrix(10.5,0,0,10.5,142.5,479.6)" />
<use xlink:href="#f2_2k" transform="matrix(10.5,0,0,10.5,177.7,479.6)" />
<use xlink:href="#f2_2j" transform="matrix(10.5,0,0,10.5,219.5,479.6)" />
<use xlink:href="#f2_1w" transform="matrix(10.5,0,0,10.5,255.9,479.6)" />
<use xlink:href="#f3_h" transform="matrix(10.5,0,0,10.5,130,479.6)" />
<use xlink:href="#f3_f" transform="matrix(10.5,0,0,10.5,164.9,479.6)" />
<use xlink:href="#f3_h" transform="matrix(10.5,0,0,10.5,207.2,479.6)" />
<use xlink:href="#f3_x" transform="matrix(10.5,0,0,10.5,243.1,479.6)" />
<use xlink:href="#f1_2f" transform="matrix(10.4,0,0,10.4,275.3,479.7)" />
<use xlink:href="#f1_23" transform="matrix(10.4,0,0,10.4,279.8,479.7)" />
<use xlink:href="#f1_20" transform="matrix(10.4,0,0,10.4,288.6,479.7)" />
<use xlink:href="#f1_29" transform="matrix(10.4,0,0,10.4,297.5,479.7)" />
<use xlink:href="#f1_2e" transform="matrix(10.4,0,0,10.4,313.3,479.7)" />
<use xlink:href="#f1_23" transform="matrix(10.4,0,0,10.4,321.3,479.7)" />
<use xlink:href="#f1_2a" transform="matrix(10.4,0,0,10.4,330.2,479.7)" />
<use xlink:href="#f1_2i" transform="matrix(10.4,0,0,10.4,339.1,479.7)" />
<use xlink:href="#f1_2f" transform="matrix(10.4,0,0,10.4,357.7,479.7)" />
<use xlink:href="#f1_23" transform="matrix(10.4,0,0,10.4,362.1,479.7)" />
<use xlink:href="#f1_1w" transform="matrix(10.4,0,0,10.4,371,479.7)" />
<use xlink:href="#f1_2f" transform="matrix(10.4,0,0,10.4,379.9,479.7)" />
</g>
<path d="M393.9,475.7h19.7m39.4,0h40.5" class="g5_40" />
<path d="M442.4,480.3l1.5,-2.2l3.9,16.5l4.3,-43.5h42.7" class="g3_40" />
<path fill-rule="evenodd" d="M442.2,480.1l2.1,-3l3.5,14.1l4,-40.5h43v.8H452.5l-4.3,43.1h-.7l-4,-15.5l-.9,1.3l-.4,-.3Z" class="g4_40" />
<g fill="#000000" >
<use xlink:href="#f1_l" transform="matrix(7,0,0,6.9,485.2,462.4)" />
<use xlink:href="#f1_l" transform="matrix(7,0,0,6.9,485.1,486.2)" />
<use xlink:href="#f1_k" transform="matrix(10.4,0,0,10.4,452.3,469.6)" />
<use xlink:href="#f1_h" transform="matrix(10.4,0,0,10.4,494.6,479.9)" />
<use xlink:href="#f1_k" transform="matrix(10.4,0,0,10.4,452.5,493.3)" />
<use xlink:href="#f2_1z" transform="matrix(10.4,0,0,10.4,393.6,469.6)" />
<use xlink:href="#f2_2k" transform="matrix(10.4,0,0,10.4,402.6,469.6)" />
<use xlink:href="#f2_2k" transform="matrix(10.4,0,0,10.4,474.6,469.6)" />
<use xlink:href="#f2_1z" transform="matrix(10.4,0,0,10.4,393.6,492.2)" />
<use xlink:href="#f2_2j" transform="matrix(10.4,0,0,10.4,402.6,492.2)" />
<use xlink:href="#f2_2j" transform="matrix(10.4,0,0,10.4,474.5,493.3)" />
<use xlink:href="#f3_h" transform="matrix(10.5,0,0,10.4,462.2,469.6)" />
<use xlink:href="#f3_x" transform="matrix(10.5,0,0,10.4,418.4,479.9)" />
<use xlink:href="#f3_h" transform="matrix(10.5,0,0,10.4,432.3,479.9)" />
<use xlink:href="#f3_h" transform="matrix(10.5,0,0,10.4,462.3,493.3)" />
<use xlink:href="#f1_l" transform="matrix(10.4,0,0,10.4,41.2,559.9)" />
<use xlink:href="#f1_j" transform="matrix(10.4,0,0,10.4,50.1,559.9)" />
<use xlink:href="#f1_h" transform="matrix(10.4,0,0,10.4,59.2,559.9)" />
<use xlink:href="#f1_18" transform="matrix(10.4,0,0,10.4,81.9,559.9)" />
<use xlink:href="#f1_21" transform="matrix(10.4,0,0,10.4,86.3,559.9)" />
</g>
<path d="M100.9,556.1l1.5,-1l3.9,7.5l4.3,-19.9h39.9" class="g3_40" />
<path fill-rule="evenodd" d="M100.7,555.9l2.1,-1.4l3.5,6.3l4,-18.5h40.2v.8H110.9l-4.2,19.5H106l-3.9,-7l-1.1,.8l-.3,-.5Z" class="g4_40" />
<path d="M167.1,558.4l1.5,-1.2l4,8.9l4.2,-23.4h40.1" class="g3_40" />
<path fill-rule="evenodd" d="M166.9,558.2l2.1,-1.6l3.6,7.4l3.9,-21.7h40.4v.8H177.1l-4.2,23h-.7l-4,-8.3l-1,.8l-.3,-.4Z" class="g4_40" />
<g fill="#000000" >
<use xlink:href="#f3_c" transform="matrix(10.5,0,0,14.1,245.6,562)" />
<use xlink:href="#f3_d" transform="matrix(10.5,0,0,14.1,288,561.8)" />
<use xlink:href="#f1_l" transform="matrix(7,0,0,7,142.1,554.1)" />
<use xlink:href="#f1_l" transform="matrix(7,0,0,7,208.6,554.1)" />
<use xlink:href="#f1_k" transform="matrix(10.5,0,0,10.5,109.8,561.3)" />
<use xlink:href="#f1_k" transform="matrix(10.5,0,0,10.5,176,561.3)" />
<use xlink:href="#f2_2j" transform="matrix(10.5,0,0,10.5,131.7,561.3)" />
<use xlink:href="#f2_2k" transform="matrix(10.5,0,0,10.5,198.2,561.3)" />
<use xlink:href="#f2_1w" transform="matrix(10.5,0,0,10.5,234.7,561.3)" />
<use xlink:href="#f2_2j" transform="matrix(10.5,0,0,10.5,251.4,561.3)" />
<use xlink:href="#f2_2k" transform="matrix(10.5,0,0,10.5,277.4,561.3)" />
<use xlink:href="#f3_h" transform="matrix(10.5,0,0,10.5,119.5,561.3)" />
<use xlink:href="#f3_f" transform="matrix(10.5,0,0,10.5,154.2,561.3)" />
<use xlink:href="#f3_h" transform="matrix(10.5,0,0,10.5,185.7,561.3)" />
<use xlink:href="#f3_x" transform="matrix(10.5,0,0,10.5,221.8,561.3)" />
<use xlink:href="#f3_h" transform="matrix(10.5,0,0,10.5,264.9,561.3)" />
<use xlink:href="#f1_2f" transform="matrix(10.4,0,0,10.4,302.8,559.9)" />
<use xlink:href="#f1_23" transform="matrix(10.4,0,0,10.4,307.3,559.9)" />
<use xlink:href="#f1_20" transform="matrix(10.4,0,0,10.4,316.1,559.9)" />
<use xlink:href="#f1_29" transform="matrix(10.4,0,0,10.4,325,559.9)" />
<use xlink:href="#f1_2e" transform="matrix(10.4,0,0,10.4,340.8,559.9)" />
<use xlink:href="#f1_23" transform="matrix(10.4,0,0,10.4,348.8,559.9)" />
<use xlink:href="#f1_2a" transform="matrix(10.4,0,0,10.4,357.7,559.9)" />
<use xlink:href="#f1_2i" transform="matrix(10.4,0,0,10.4,366.6,559.9)" />
<use xlink:href="#f1_2f" transform="matrix(10.4,0,0,10.4,385.2,559.9)" />
<use xlink:href="#f1_23" transform="matrix(10.4,0,0,10.4,389.6,559.9)" />
<use xlink:href="#f1_1w" transform="matrix(10.4,0,0,10.4,398.5,559.9)" />
<use xlink:href="#f1_2f" transform="matrix(10.4,0,0,10.4,407.4,559.9)" />
</g>
<path d="M421.4,554.6h19.7m29.7,0h40.5" class="g5_40" />
<path d="M460.1,559.2l1.5,-2.2l4,16.6L469.9,530h42.6" class="g3_40" />
<path fill-rule="evenodd" d="M460,559.1l2.1,-3.1l3.4,14.2l4.1,-40.6h42.9v.7H470.2L466,573.6h-.8l-4,-15.5l-.8,1.3l-.4,-.3Z" class="g4_40" />
<g fill="#000000" >
<use xlink:href="#f1_l" transform="matrix(7,0,0,7,503,541.3)" />
<use xlink:href="#f1_l" transform="matrix(7,0,0,7,502.9,565.2)" />
<use xlink:href="#f1_k" transform="matrix(10.5,0,0,10.4,470.3,548.5)" />
<use xlink:href="#f1_h" transform="matrix(10.5,0,0,10.4,512.5,558.8)" />
<use xlink:href="#f1_k" transform="matrix(10.5,0,0,10.4,470.4,572.3)" />
<use xlink:href="#f2_1z" transform="matrix(10.5,0,0,10.4,421.3,548.5)" />
<use xlink:href="#f2_2k" transform="matrix(10.5,0,0,10.4,430.2,548.5)" />
<use xlink:href="#f2_2k" transform="matrix(10.5,0,0,10.4,492.4,548.5)" />
<use xlink:href="#f2_1z" transform="matrix(10.5,0,0,10.4,421.3,571.1)" />
<use xlink:href="#f2_2j" transform="matrix(10.5,0,0,10.4,430.2,571.1)" />
<use xlink:href="#f2_2j" transform="matrix(10.5,0,0,10.4,492.5,572.3)" />
<use xlink:href="#f3_h" transform="matrix(10.5,0,0,10.4,480,548.5)" />
<use xlink:href="#f3_x" transform="matrix(10.5,0,0,10.4,446,558.8)" />
<use xlink:href="#f3_h" transform="matrix(10.5,0,0,10.4,480.2,572.3)" />
<use xlink:href="#f1_l" transform="matrix(10.4,0,0,10.4,41.2,631.4)" />
<use xlink:href="#f1_k" transform="matrix(10.4,0,0,10.4,50.1,631.4)" />
<use xlink:href="#f1_h" transform="matrix(10.4,0,0,10.4,59.2,631.4)" />
<use xlink:href="#f1_18" transform="matrix(10.4,0,0,10.4,81.9,631.4)" />
<use xlink:href="#f1_21" transform="matrix(10.4,0,0,10.4,86.3,631.4)" />
<use xlink:href="#f1_b" transform="matrix(10.4,0,0,10.4,97.4,631.4)" />
<use xlink:href="#f2_2j" transform="matrix(10.4,0,0,10.4,102.6,631.4)" />
<use xlink:href="#f1_e" transform="matrix(10.4,0,0,10.4,117.5,631.4)" />
<use xlink:href="#f2_2k" transform="matrix(10.4,0,0,10.4,133.6,631.4)" />
<use xlink:href="#f1_c" transform="matrix(10.4,0,0,10.4,141.7,631.4)" />
<use xlink:href="#f2_28" transform="matrix(7.4,0,0,7.4,147,626)" />
<use xlink:href="#f2_e" transform="matrix(7.4,0,0,7.4,161.2,626)" />
<use xlink:href="#f2_29" transform="matrix(7.4,0,0,7.4,172.8,626)" />
<use xlink:href="#f1_w" transform="matrix(10.4,0,0,10.4,185.9,631.4)" />
<use xlink:href="#f2_2j" transform="matrix(10.4,0,0,10.4,202,631.4)" />
<use xlink:href="#f2_28" transform="matrix(7.4,0,0,7.4,210.1,626)" />
<use xlink:href="#f1_h" transform="matrix(10.4,0,0,10.4,226.4,631.4)" />
<use xlink:href="#f2_2k" transform="matrix(10.4,0,0,10.4,237.6,631.4)" />
<use xlink:href="#f2_29" transform="matrix(7.4,0,0,7.4,245.6,626)" />
<use xlink:href="#f1_2f" transform="matrix(10.4,0,0,10.4,258.6,631.4)" />
<use xlink:href="#f1_23" transform="matrix(10.4,0,0,10.4,263.1,631.4)" />
<use xlink:href="#f1_20" transform="matrix(10.4,0,0,10.4,271.9,631.4)" />
<use xlink:href="#f1_29" transform="matrix(10.4,0,0,10.4,280.8,631.4)" />
<use xlink:href="#f1_2b" transform="matrix(10.4,0,0,10.4,296.5,631.4)" />
<use xlink:href="#f1_2d" transform="matrix(10.4,0,0,10.4,305.3,631.4)" />
<use xlink:href="#f1_2a" transform="matrix(10.4,0,0,10.4,310.6,631.4)" />
<use xlink:href="#f1_2h" transform="matrix(10.4,0,0,10.4,319.5,631.4)" />
<use xlink:href="#f1_20" transform="matrix(10.4,0,0,10.4,327.5,631.4)" />
<use xlink:href="#f1_2f" transform="matrix(10.4,0,0,10.4,343.1,631.4)" />
<use xlink:href="#f1_23" transform="matrix(10.4,0,0,10.4,347.6,631.4)" />
<use xlink:href="#f1_1w" transform="matrix(10.4,0,0,10.4,356.4,631.4)" />
<use xlink:href="#f1_2f" transform="matrix(10.4,0,0,10.4,365.3,631.4)" />
</g>
<path d="M379.1,624.6H399m18.9,0H430" class="g6_40" />
<g fill="#000000" >
<use xlink:href="#f1_h" transform="matrix(10.4,0,0,10.4,431.5,628.8)" />
<use xlink:href="#f2_1z" transform="matrix(10.4,0,0,10.4,378.9,618.5)" />
<use xlink:href="#f2_2k" transform="matrix(10.4,0,0,10.4,388,618.5)" />
<use xlink:href="#f2_2k" transform="matrix(10.4,0,0,10.4,419,618.5)" />
<use xlink:href="#f2_1z" transform="matrix(10.4,0,0,10.4,378.9,641.1)" />
<use xlink:href="#f2_2j" transform="matrix(10.4,0,0,10.4,388,641.1)" />
<use xlink:href="#f2_2j" transform="matrix(10.4,0,0,10.4,418.9,641.1)" />
<use xlink:href="#f3_x" transform="matrix(10.4,0,0,10.4,403.8,628.8)" />
<use xlink:href="#f1_l" transform="matrix(10.4,0,0,10.4,41.2,699)" />
<use xlink:href="#f1_l" transform="matrix(10.4,0,0,10.4,50.1,699)" />
<use xlink:href="#f1_h" transform="matrix(10.4,0,0,10.4,59.2,699)" />
<use xlink:href="#f1_15" transform="matrix(10.4,0,0,10.4,81.9,699)" />
<use xlink:href="#f1_24" transform="matrix(10.4,0,0,10.4,91.7,699)" />
<use xlink:href="#f1_29" transform="matrix(10.4,0,0,10.4,95.2,699)" />
<use xlink:href="#f1_1z" transform="matrix(10.4,0,0,10.4,104.1,699)" />
<use xlink:href="#f1_2f" transform="matrix(10.4,0,0,10.4,120.1,699)" />
<use xlink:href="#f1_23" transform="matrix(10.4,0,0,10.4,124.5,699)" />
<use xlink:href="#f1_20" transform="matrix(10.4,0,0,10.4,133.4,699)" />
<use xlink:href="#f1_1z" transform="matrix(10.4,0,0,10.4,149.4,699)" />
<use xlink:href="#f1_20" transform="matrix(10.4,0,0,10.4,158.3,699)" />
<use xlink:href="#f1_2d" transform="matrix(10.4,0,0,10.4,167.1,699)" />
<use xlink:href="#f1_24" transform="matrix(10.4,0,0,10.4,172.4,699)" />
<use xlink:href="#f1_2h" transform="matrix(10.4,0,0,10.4,176,699)" />
<use xlink:href="#f1_1w" transform="matrix(10.4,0,0,10.4,184,699)" />
<use xlink:href="#f1_2f" transform="matrix(10.4,0,0,10.4,192.8,699)" />
<use xlink:href="#f1_24" transform="matrix(10.4,0,0,10.4,197.3,699)" />
<use xlink:href="#f1_2h" transform="matrix(10.4,0,0,10.4,200.8,699)" />
<use xlink:href="#f1_20" transform="matrix(10.4,0,0,10.4,208.8,699)" />
<use xlink:href="#f1_2a" transform="matrix(10.4,0,0,10.4,225,699)" />
<use xlink:href="#f1_21" transform="matrix(10.4,0,0,10.4,233.8,699)" />
</g>
<path d="M292.6,694h40.3m94,0h40.2" class="g5_40" />
<g fill="#000000" >
<use xlink:href="#f1_k" transform="matrix(7,0,0,7,276.1,691.1)" />
<use xlink:href="#f1_k" transform="matrix(7,0,0,7,410.6,691.1)" />
<use xlink:href="#f1_l" transform="matrix(7,0,0,7,324.7,704.6)" />
<use xlink:href="#f1_l" transform="matrix(7,0,0,7,459.1,704.6)" />
<use xlink:href="#f1_l" transform="matrix(10.5,0,0,10.5,303.3,687.9)" />
<use xlink:href="#f1_l" transform="matrix(10.5,0,0,10.5,437.8,687.9)" />
<use xlink:href="#f1_2f" transform="matrix(10.5,0,0,10.5,247.5,698.3)" />
<use xlink:href="#f1_1w" transform="matrix(10.5,0,0,10.5,251.9,698.3)" />
<use xlink:href="#f1_29" transform="matrix(10.5,0,0,10.5,260.9,698.3)" />
<use xlink:href="#f1_2i" transform="matrix(10.5,0,0,10.5,345.9,698.3)" />
<use xlink:href="#f1_h" transform="matrix(10.5,0,0,10.5,357.5,698.3)" />
<use xlink:href="#f1_2d" transform="matrix(10.5,0,0,10.5,361.9,698.3)" />
<use xlink:href="#f1_h" transform="matrix(10.5,0,0,10.5,367.3,698.3)" />
<use xlink:href="#f1_2f" transform="matrix(10.5,0,0,10.5,371.7,698.3)" />
<use xlink:href="#f1_h" transform="matrix(10.5,0,0,10.5,376.2,698.3)" />
<use xlink:href="#f1_2e" transform="matrix(10.5,0,0,10.5,383.9,698.3)" />
<use xlink:href="#f1_24" transform="matrix(10.5,0,0,10.5,391.9,698.3)" />
<use xlink:href="#f1_29" transform="matrix(10.5,0,0,10.5,395.5,698.3)" />
<use xlink:href="#f1_h" transform="matrix(10.5,0,0,10.5,477.2,698.3)" />
<use xlink:href="#f1_k" transform="matrix(10.5,0,0,10.5,292.2,711.9)" />
<use xlink:href="#f1_k" transform="matrix(10.5,0,0,10.5,426.7,711.9)" />
<use xlink:href="#f2_2j" transform="matrix(10.5,0,0,10.5,312.3,687.9)" />
<use xlink:href="#f2_2j" transform="matrix(10.5,0,0,10.5,446.8,687.9)" />
<use xlink:href="#f2_2j" transform="matrix(10.5,0,0,10.5,314.2,711.9)" />
<use xlink:href="#f2_2j" transform="matrix(10.5,0,0,10.5,448.7,711.9)" />
<use xlink:href="#f3_h" transform="matrix(7,0,0,7,270.3,691.1)" />
<use xlink:href="#f3_h" transform="matrix(7,0,0,7,404.8,691.1)" />
<use xlink:href="#f3_4o" transform="matrix(10.5,0,0,10.5,284.1,688.9)" />
<use xlink:href="#f3_54" transform="matrix(10.5,0,0,10.5,333.6,688.9)" />
<use xlink:href="#f3_4o" transform="matrix(10.5,0,0,10.5,418.5,688.9)" />
<use xlink:href="#f3_54" transform="matrix(10.5,0,0,10.5,468,688.9)" />
<use xlink:href="#f3_4p" transform="matrix(10.5,0,0,10.5,284.1,701.5)" />
<use xlink:href="#f3_55" transform="matrix(10.5,0,0,10.5,333.6,701.5)" />
<use xlink:href="#f3_4p" transform="matrix(10.5,0,0,10.5,418.5,701.5)" />
<use xlink:href="#f3_55" transform="matrix(10.5,0,0,10.5,468,701.5)" />
<use xlink:href="#f3_4q" transform="matrix(10.5,0,0,10.5,284.1,708.4)" />
<use xlink:href="#f3_56" transform="matrix(10.5,0,0,10.5,333.6,708.4)" />
<use xlink:href="#f3_4q" transform="matrix(10.5,0,0,10.5,418.5,708.4)" />
<use xlink:href="#f3_56" transform="matrix(10.5,0,0,10.5,468,708.4)" />
<use xlink:href="#f3_h" transform="matrix(10.5,0,0,10.5,301.9,711.9)" />
<use xlink:href="#f3_f" transform="matrix(10.5,0,0,10.5,436.2,711.9)" />
<use xlink:href="#f1_l" transform="matrix(10.4,0,0,10.4,41.2,749.6)" />
<use xlink:href="#f1_m" transform="matrix(10.4,0,0,10.4,50.1,749.6)" />
<use xlink:href="#f1_h" transform="matrix(10.4,0,0,10.4,59.2,749.6)" />
<use xlink:href="#f1_15" transform="matrix(10.4,0,0,10.4,81.9,749.6)" />
<use xlink:href="#f1_24" transform="matrix(10.4,0,0,10.4,91.7,749.6)" />
<use xlink:href="#f1_29" transform="matrix(10.4,0,0,10.4,95.2,749.6)" />
<use xlink:href="#f1_1z" transform="matrix(10.4,0,0,10.4,104.1,749.6)" />
<use xlink:href="#f1_2f" transform="matrix(10.4,0,0,10.4,120.1,749.6)" />
<use xlink:href="#f1_23" transform="matrix(10.4,0,0,10.4,124.5,749.6)" />
<use xlink:href="#f1_20" transform="matrix(10.4,0,0,10.4,133.4,749.6)" />
<use xlink:href="#f1_1z" transform="matrix(10.4,0,0,10.4,149.4,749.6)" />
<use xlink:href="#f1_20" transform="matrix(10.4,0,0,10.4,158.3,749.6)" />
<use xlink:href="#f1_2d" transform="matrix(10.4,0,0,10.4,167.1,749.6)" />
<use xlink:href="#f1_24" transform="matrix(10.4,0,0,10.4,172.4,749.6)" />
<use xlink:href="#f1_2h" transform="matrix(10.4,0,0,10.4,176,749.6)" />
<use xlink:href="#f1_1w" transform="matrix(10.4,0,0,10.4,184,749.6)" />
<use xlink:href="#f1_2f" transform="matrix(10.4,0,0,10.4,192.8,749.6)" />
<use xlink:href="#f1_24" transform="matrix(10.4,0,0,10.4,197.3,749.6)" />
<use xlink:href="#f1_2h" transform="matrix(10.4,0,0,10.4,200.8,749.6)" />
<use xlink:href="#f1_20" transform="matrix(10.4,0,0,10.4,208.8,749.6)" />
<use xlink:href="#f1_2a" transform="matrix(10.4,0,0,10.4,224.8,749.6)" />
<use xlink:href="#f1_21" transform="matrix(10.4,0,0,10.4,233.7,749.6)" />
<use xlink:href="#f1_27" transform="matrix(10.4,0,0,10.4,245.2,749.6)" />
<use xlink:href="#f1_2a" transform="matrix(10.4,0,0,10.4,248.8,749.6)" />
<use xlink:href="#f1_22" transform="matrix(10.4,0,0,10.4,257.6,749.6)" />
<use xlink:href="#f2_20" transform="matrix(7.4,0,0,7.4,265.6,754.9)" />
<use xlink:href="#f1_b" transform="matrix(10.4,0,0,10.4,271.8,749.6)" />
<use xlink:href="#f1_2e" transform="matrix(10.4,0,0,10.4,277.2,749.6)" />
<use xlink:href="#f1_24" transform="matrix(10.4,0,0,10.4,285.1,749.6)" />
<use xlink:href="#f1_29" transform="matrix(10.4,0,0,10.4,288.7,749.6)" />
<use xlink:href="#f2_2j" transform="matrix(10.4,0,0,10.4,304.7,749.6)" />
<use xlink:href="#f1_c" transform="matrix(10.4,0,0,10.4,312.7,749.6)" />
<use xlink:href="#f1_2i" transform="matrix(10.4,0,0,10.4,325.2,749.6)" />
<use xlink:href="#f1_h" transform="matrix(10.4,0,0,10.4,336.7,749.6)" />
<use xlink:href="#f1_2d" transform="matrix(10.4,0,0,10.4,341.1,749.6)" />
<use xlink:href="#f1_h" transform="matrix(10.4,0,0,10.4,346.4,749.6)" />
<use xlink:href="#f1_2f" transform="matrix(10.4,0,0,10.4,350.9,749.6)" />
<use xlink:href="#f1_h" transform="matrix(10.4,0,0,10.4,355.3,749.6)" />
<use xlink:href="#f1_27" transform="matrix(10.4,0,0,10.4,366.9,749.6)" />
<use xlink:href="#f1_2a" transform="matrix(10.4,0,0,10.4,370.4,749.6)" />
<use xlink:href="#f1_22" transform="matrix(10.4,0,0,10.4,379.3,749.6)" />
<use xlink:href="#f2_1w" transform="matrix(7.4,0,0,7.4,387.9,754.9)" />
<use xlink:href="#f1_b" transform="matrix(10.4,0,0,10.4,394.1,749.6)" />
<use xlink:href="#f1_1y" transform="matrix(10.4,0,0,10.4,399.4,749.6)" />
<use xlink:href="#f1_2a" transform="matrix(10.4,0,0,10.4,407.4,749.6)" />
<use xlink:href="#f1_2e" transform="matrix(10.4,0,0,10.4,416.3,749.6)" />
<use xlink:href="#f2_2j" transform="matrix(10.4,0,0,10.4,431.5,749.6)" />
<use xlink:href="#f1_c" transform="matrix(10.4,0,0,10.4,439.6,749.6)" />
<use xlink:href="#f1_h" transform="matrix(10.4,0,0,10.4,444.9,749.6)" />
<use xlink:href="#f1_l" transform="matrix(10.4,0,0,10.4,41.2,804.1)" />
<use xlink:href="#f1_n" transform="matrix(10.4,0,0,10.4,50.1,804.1)" />
<use xlink:href="#f1_h" transform="matrix(10.4,0,0,10.4,59.2,804.1)" />
<use xlink:href="#f1_18" transform="matrix(10.4,0,0,10.4,81.9,804.1)" />
<use xlink:href="#f1_21" transform="matrix(10.4,0,0,10.4,86.3,804.1)" />
<use xlink:href="#f2_2j" transform="matrix(10.4,0,0,10.4,97.5,804.1)" />
<use xlink:href="#f2_2k" transform="matrix(7.4,0,0,7.4,105.6,798.7)" />
<use xlink:href="#f1_e" transform="matrix(10.4,0,0,10.4,118,804.1)" />
<use xlink:href="#f2_2k" transform="matrix(10.4,0,0,10.4,134.3,804.1)" />
<use xlink:href="#f2_2j" transform="matrix(7.4,0,0,7.4,142.4,798.7)" />
<use xlink:href="#f1_e" transform="matrix(10.4,0,0,10.4,154.9,804.1)" />
<use xlink:href="#f2_2j" transform="matrix(10.4,0,0,10.4,171,804.1)" />
<use xlink:href="#f2_2j" transform="matrix(7.4,0,0,7.4,179.1,798.7)" />
<use xlink:href="#f1_w" transform="matrix(10.4,0,0,10.4,191.7,804.1)" />
<use xlink:href="#f2_28" transform="matrix(10.4,0,0,10.4,207.9,804.1)" />
<use xlink:href="#f2_29" transform="matrix(7.4,0,0,7.4,221.1,798.7)" />
<use xlink:href="#f1_f" transform="matrix(10.4,0,0,10.4,227.3,804.1)" />
<use xlink:href="#f1_2f" transform="matrix(10.4,0,0,10.4,238.7,804.1)" />
<use xlink:href="#f1_23" transform="matrix(10.4,0,0,10.4,243.1,804.1)" />
<use xlink:href="#f1_20" transform="matrix(10.4,0,0,10.4,252,804.1)" />
<use xlink:href="#f1_29" transform="matrix(10.4,0,0,10.4,260.8,804.1)" />
<use xlink:href="#f1_21" transform="matrix(10.4,0,0,10.4,276.5,804.1)" />
<use xlink:href="#f1_24" transform="matrix(10.4,0,0,10.4,280.9,804.1)" />
<use xlink:href="#f1_29" transform="matrix(10.4,0,0,10.4,284.5,804.1)" />
<use xlink:href="#f1_1z" transform="matrix(10.4,0,0,10.4,293.3,804.1)" />
<use xlink:href="#f1_2f" transform="matrix(10.4,0,0,10.4,309,804.1)" />
<use xlink:href="#f1_23" transform="matrix(10.4,0,0,10.4,313.4,804.1)" />
<use xlink:href="#f1_20" transform="matrix(10.4,0,0,10.4,322.3,804.1)" />
<use xlink:href="#f1_2h" transform="matrix(10.4,0,0,10.4,338.1,804.1)" />
<use xlink:href="#f1_1w" transform="matrix(10.4,0,0,10.4,346.1,804.1)" />
<use xlink:href="#f1_27" transform="matrix(10.4,0,0,10.4,355,804.1)" />
<use xlink:href="#f1_2g" transform="matrix(10.4,0,0,10.4,358.5,804.1)" />
<use xlink:href="#f1_20" transform="matrix(10.4,0,0,10.4,367.4,804.1)" />
<use xlink:href="#f1_2a" transform="matrix(10.4,0,0,10.4,383,804.1)" />
<use xlink:href="#f1_21" transform="matrix(10.4,0,0,10.4,391.9,804.1)" />
</g>
<path d="M405.5,797.3h20" class="g7_40" />
<g fill="#000000" >
<use xlink:href="#f1_h" transform="matrix(10.4,0,0,10.4,427,801.5)" />
<use xlink:href="#f2_1z" transform="matrix(10.4,0,0,10.4,405.3,791.2)" />
<use xlink:href="#f2_2k" transform="matrix(10.4,0,0,10.4,414.5,791.2)" />
<use xlink:href="#f2_1z" transform="matrix(10.4,0,0,10.4,405.3,813.8)" />
<use xlink:href="#f2_2j" transform="matrix(10.4,0,0,10.4,414.5,813.8)" />
<use xlink:href="#f1_l" transform="matrix(10.4,0,0,10.4,41.2,867.5)" />
<use xlink:href="#f1_o" transform="matrix(10.4,0,0,10.4,50.1,867.5)" />
<use xlink:href="#f1_h" transform="matrix(10.4,0,0,10.4,59.2,867.5)" />
<use xlink:href="#f1_18" transform="matrix(10.4,0,0,10.4,81.9,867.5)" />
<use xlink:href="#f1_21" transform="matrix(10.4,0,0,10.4,86.3,867.5)" />
<use xlink:href="#f2_2j" transform="matrix(10.4,0,0,10.4,97.5,867.5)" />
<use xlink:href="#f1_w" transform="matrix(10.4,0,0,10.4,112.3,867.5)" />
<use xlink:href="#f2_1w" transform="matrix(10.4,0,0,10.4,128.7,867.5)" />
<use xlink:href="#f2_1y" transform="matrix(10.4,0,0,10.4,144.3,867.5)" />
<use xlink:href="#f2_2a" transform="matrix(10.4,0,0,10.4,152.3,867.5)" />
<use xlink:href="#f2_2e" transform="matrix(10.4,0,0,10.4,161.2,867.5)" />
<use xlink:href="#f1_m" transform="matrix(7.4,0,0,7.4,169.2,862.2)" />
<use xlink:href="#f3_2d" transform="matrix(10.4,0,0,10.4,175.4,867.5)" />
<use xlink:href="#f1_f" transform="matrix(10.4,0,0,10.4,183.7,867.5)" />
<use xlink:href="#f2_2k" transform="matrix(10.4,0,0,10.4,194.8,867.5)" />
<use xlink:href="#f1_w" transform="matrix(10.4,0,0,10.4,209.9,867.5)" />
<use xlink:href="#f2_1w" transform="matrix(10.4,0,0,10.4,226,867.5)" />
<use xlink:href="#f1_2e" transform="matrix(10.4,0,0,10.4,241.6,867.5)" />
<use xlink:href="#f1_24" transform="matrix(10.4,0,0,10.4,249.6,867.5)" />
<use xlink:href="#f1_29" transform="matrix(10.4,0,0,10.4,253.1,867.5)" />
<use xlink:href="#f1_m" transform="matrix(7.4,0,0,7.4,261.9,862.2)" />
<use xlink:href="#f3_2d" transform="matrix(10.4,0,0,10.4,268.2,867.5)" />
<use xlink:href="#f1_2f" transform="matrix(10.4,0,0,10.4,283.4,867.5)" />
<use xlink:href="#f1_23" transform="matrix(10.4,0,0,10.4,287.8,867.5)" />
<use xlink:href="#f1_20" transform="matrix(10.4,0,0,10.4,296.7,867.5)" />
<use xlink:href="#f1_29" transform="matrix(10.4,0,0,10.4,305.6,867.5)" />
<use xlink:href="#f1_21" transform="matrix(10.4,0,0,10.4,321.2,867.5)" />
<use xlink:href="#f1_24" transform="matrix(10.4,0,0,10.4,325.6,867.5)" />
<use xlink:href="#f1_29" transform="matrix(10.4,0,0,10.4,329.2,867.5)" />
<use xlink:href="#f1_1z" transform="matrix(10.4,0,0,10.4,338.1,867.5)" />
</g>
<path d="M356.5,860.8h29.2" class="g5_40" />
<g fill="#000000" >
<use xlink:href="#f1_l" transform="matrix(7,0,0,7,367.9,847.5)" />
<use xlink:href="#f1_l" transform="matrix(7,0,0,7,376.7,871.3)" />
<use xlink:href="#f1_h" transform="matrix(10.5,0,0,10.4,387.4,865)" />
<use xlink:href="#f2_1z" transform="matrix(10.5,0,0,10.4,356.5,854.7)" />
<use xlink:href="#f2_2k" transform="matrix(10.5,0,0,10.4,375,854.7)" />
<use xlink:href="#f2_1z" transform="matrix(10.5,0,0,10.4,357.2,878.5)" />
<use xlink:href="#f2_2j" transform="matrix(10.5,0,0,10.4,366.2,878.5)" />
<use xlink:href="#f4_n" transform="matrix(12,0,0,12,638.6,1041.1)" />
</g>
<g fill="#0080FF" fill-opacity="0.5" >
<use xlink:href="#f0_1c" transform="matrix(35.3,0,0,35.3,169.4,1052.8)" />
<use xlink:href="#f0_21" transform="matrix(35.3,0,0,35.3,199.4,1052.8)" />
<use xlink:href="#f0_1x" transform="matrix(35.3,0,0,35.3,229.4,1052.8)" />
<use xlink:href="#f0_2e" transform="matrix(35.3,0,0,35.3,259.4,1052.8)" />
<use xlink:href="#f0_2a" transform="matrix(35.3,0,0,35.3,277.3,1052.8)" />
<use xlink:href="#f0_17" transform="matrix(35.3,0,0,35.3,307.3,1052.8)" />
<use xlink:href="#f0_2h" transform="matrix(35.3,0,0,35.3,349.3,1052.8)" />
<use xlink:href="#f0_25" transform="matrix(35.3,0,0,35.3,379.3,1052.8)" />
<use xlink:href="#f0_20" transform="matrix(35.3,0,0,35.3,391.3,1052.8)" />
<use xlink:href="#f0_21" transform="matrix(35.3,0,0,35.3,421.3,1052.8)" />
<use xlink:href="#f0_i" transform="matrix(35.3,0,0,35.3,451.2,1052.8)" />
<use xlink:href="#f0_25" transform="matrix(35.3,0,0,35.3,466.2,1052.8)" />
<use xlink:href="#f0_2a" transform="matrix(35.3,0,0,35.3,478.2,1052.8)" />
</g>
<defs>
<path d="M593,101c0,0,182,0,279,112c0,0,98,113,98,318c0,0,0,196,-98,308c0,0,-98,112,-277,112c0,0,-181,0,-279,-110c0,0,-99,-111,-99,-310c0,0,0,-198,100,-314c0,0,99,-116,276,-116Zm0,-115c0,0,-162,0,-279,65c0,0,-118,66,-180,190c0,0,-62,124,-62,290c0,0,0,252,138,394c0,0,138,142,385,142c0,0,160,0,278,-64c0,0,118,-64,180,-185c0,0,62,-122,62,-287c0,0,0,-165,-63,-289c0,0,-63,-124,-181,-190c0,0,-118,-66,-278,-66Z" 
id="f0_1f"
transform="scale(0.001,-0.001)" />

<path d="M106,0V635c0,0,0,141,-5,173H228c0,0,1,-4,2,-21c0,0,1,-16,2,-37c0,0,1,-22,2,-81h2c0,0,47,84,108,119c0,0,60,34,151,34c0,0,132,0,194,-66c0,0,61,-66,61,-218V0H615V512c0,0,0,80,-15,124c0,0,-16,44,-50,63c0,0,-35,20,-101,20c0,0,-97,0,-153,-67c0,0,-56,-66,-56,-184V0Z" 
id="f0_2a"
transform="scale(0.001,-0.001)" />

<path d="M103,0V1107H237V0Z" 
id="f0_28"
transform="scale(0.001,-0.001)" />

<path d="M102,0V808H236V0Zm0,979v128H236V979Z" 
id="f0_25"
transform="scale(0.001,-0.001)" />

<path d="M643,478c0,0,-11,128,-65,187c0,0,-54,59,-154,59c0,0,-98,0,-155,-66c0,0,-57,-65,-62,-180ZM431,-14c0,0,-179,0,-272,106c0,0,-94,107,-94,317c0,0,0,200,94,307c0,0,93,106,267,106c0,0,356,0,356,-429V375H206c0,0,0,-138,57,-213c0,0,58,-75,168,-75c0,0,87,0,140,35c0,0,53,35,71,88L760,177c0,0,-72,-191,-329,-191Z" 
id="f0_21"
transform="scale(0.001,-0.001)" />

<path d="M17,0L304,415L31,808H179L380,493L580,808H730L457,417L747,0H598L380,331L162,0Z" 
id="f0_2k"
transform="scale(0.001,-0.001)" />

<path d="M339,87c0,0,74,0,132,34c0,0,57,33,90,91c0,0,34,59,34,121v66L448,396c0,0,-95,-2,-144,-19c0,0,-49,-18,-75,-55c0,0,-26,-38,-26,-98c0,0,0,-65,35,-101c0,0,36,-36,101,-36ZM309,-14c0,0,-122,0,-183,64c0,0,-61,64,-61,176c0,0,0,125,82,192c0,0,83,67,266,72l182,3v44c0,0,0,98,-42,141c0,0,-42,43,-132,43c0,0,-90,0,-131,-31c0,0,-41,-31,-49,-98L101,604c0,0,34,218,323,218c0,0,153,0,229,-70c0,0,77,-69,77,-202V202c0,0,0,-59,16,-90c0,0,16,-30,60,-30c0,0,19,0,44,5V4C850,4,799,-7,746,-7c0,0,-75,0,-109,38c0,0,-33,40,-38,124h-4C595,155,543,62,475,24c0,0,-68,-38,-166,-38Z" 
id="f0_1x"
transform="scale(0.001,-0.001)" />

<path d="M106,0V635c0,0,0,141,-5,173H228c0,0,1,-4,2,-21c0,0,1,-16,2,-37c0,0,1,-22,2,-81h2c0,0,44,86,100,120c0,0,56,33,136,33c0,0,92,0,145,-36c0,0,54,-37,75,-117h2c0,0,42,82,101,117c0,0,59,36,143,36c0,0,123,0,178,-66c0,0,56,-67,56,-218V0H1039V512c0,0,0,117,-32,162c0,0,-32,45,-116,45c0,0,-88,0,-136,-66c0,0,-49,-65,-49,-185V0H573V512c0,0,0,117,-32,162c0,0,-32,45,-116,45c0,0,-86,0,-136,-66c0,0,-50,-66,-50,-185V0Z" 
id="f0_29"
transform="scale(0.001,-0.001)" />

<path d="M453,84c0,0,100,0,146,74c0,0,46,73,46,247c0,0,0,169,-46,241c0,0,-45,73,-145,73c0,0,-80,0,-125,-34c0,0,-45,-34,-68,-105c0,0,-24,-71,-24,-186c0,0,0,-159,51,-234c0,0,51,-76,165,-76ZM103,-316V643c0,0,0,124,-5,165H228c0,0,1,-3,3,-22c0,0,1,-18,3,-56c0,0,2,-38,2,-52h3c0,0,36,75,94,110c0,0,59,34,156,34c0,0,149,0,223,-100c0,0,74,-100,74,-314c0,0,0,-422,-297,-422c0,0,-187,0,-251,140h-4c0,0,3,-6,3,-126V-316Z" 
id="f0_2c"
transform="scale(0.001,-0.001)" />

<path d="M420,84c0,0,121,0,173,78c0,0,52,77,52,243c0,0,0,167,-50,243c0,0,-50,76,-167,76c0,0,-118,0,-170,-78c0,0,-53,-77,-53,-241c0,0,0,-160,52,-241c0,0,52,-80,163,-80Zm1,-98c0,0,-176,0,-267,107c0,0,-90,108,-90,312c0,0,0,417,362,417c0,0,185,0,272,-102c0,0,88,-101,88,-315c0,0,0,-212,-94,-316C692,89,599,-14,421,-14Z" 
id="f0_2b"
transform="scale(0.001,-0.001)" />

<path d="M278,-11c0,0,-162,0,-162,182V710H23v98h99l39,181h90V808H400V710H251V200c0,0,0,-58,19,-82c0,0,19,-23,66,-23c0,0,27,0,77,10V6c0,0,-66,-17,-135,-17Z" 
id="f0_2g"
transform="scale(0.001,-0.001)" />

<path d="M406,0V763H155V870h2c16,0,114,2,178,48c0,0,70,51,104,157H549V0Z" 
id="f1_k"
transform="scale(0.001,-0.001)" />

<path d="M511,373V863L169,383l-7,-10ZM511,0V258H38V383l496,691H646V373H799V258H646V0Z" 
id="f1_n"
transform="scale(0.001,-0.001)" />

<path d="M133,0V162H292V0Z" 
id="f1_h"
transform="scale(0.001,-0.001)" />

<path d="M575,590c0,0,115,0,169,48c0,0,54,49,54,154c0,0,0,92,-54,135c0,0,-54,43,-169,43H280V590ZM131,0V1097H611c0,0,160,0,249,-80c0,0,90,-80,90,-222c0,0,0,-156,-90,-244c0,0,-89,-88,-249,-88c0,0,-34,0,-82,0c-72,0,-177,0,-249,-1V0Z" 
id="f1_1f"
transform="scale(0.001,-0.001)" />

<path d="M118,0V799H246V662c0,0,17,32,36,58c0,0,76,102,187,102c0,0,19,0,38,-6V679l-27,1c0,0,-109,0,-168,-66c0,0,-60,-65,-60,-186V0Z" 
id="f1_2d"
transform="scale(0.001,-0.001)" />

<path d="M424,94c0,0,107,0,169,83c0,0,63,83,63,223c0,0,0,140,-63,224c0,0,-62,83,-169,83c0,0,-106,0,-168,-83c0,0,-62,-84,-62,-224c0,0,0,-140,62,-223c0,0,62,-83,168,-83Zm0,-114c0,0,-165,0,-268,115C156,95,54,211,54,400c0,0,0,189,102,306c0,0,103,116,268,116c0,0,168,0,270,-116c0,0,102,-117,102,-306c0,0,0,-189,-102,-305C694,95,592,-20,424,-20Z" 
id="f1_2a"
transform="scale(0.001,-0.001)" />

<path d="M310,0L12,799H168L383,145L604,799H752L454,0Z" 
id="f1_2h"
transform="scale(0.001,-0.001)" />

<path d="M649,461c0,0,-6,111,-55,172c0,0,-55,69,-160,69c0,0,-106,0,-170,-79c0,0,-50,-62,-60,-162ZM425,-20c0,0,-169,0,-266,106c0,0,-97,107,-97,297c0,0,0,201,102,320c0,0,103,119,276,119c0,0,157,0,253,-116c0,0,96,-117,96,-306l-1,-48H204c0,0,8,-119,54,-182c0,0,57,-76,180,-76c0,0,77,0,134,43c0,0,58,43,70,110H775C775,247,746,116,656,47c0,0,-90,-67,-231,-67Z" 
id="f1_20"
transform="scale(0.001,-0.001)" />

<path d="M292,-9c0,0,-88,0,-124,38c0,0,-36,39,-36,134V689H22V799H132v224H266V799H392V689H266V163c0,0,0,-27,21,-43c0,0,21,-15,57,-15h48V1C392,1,324,-9,292,-9Z" 
id="f1_2f"
transform="scale(0.001,-0.001)" />

<path d="M99,0V1097H233V690l23,30c0,0,87,102,219,102c0,0,132,0,203,-71c0,0,72,-72,72,-204V0H616V514c0,0,0,99,-38,142c0,0,-38,44,-124,44c0,0,-102,0,-162,-73c0,0,-59,-74,-59,-199V0Z" 
id="f1_23"
transform="scale(0.001,-0.001)" />

<path d="M335,90c0,0,106,0,179,57c0,0,50,41,67,91c0,0,3,10,4,31c0,0,3,21,3,47v87c0,0,-38,-18,-83,-25L381,360c0,0,-97,-13,-142,-45c0,0,-44,-31,-44,-86c0,0,0,-67,36,-103c0,0,37,-36,104,-36ZM309,-20c0,0,-117,0,-186,61c0,0,-68,63,-68,169c0,0,0,108,64,171c0,0,65,64,189,79l183,23c0,0,22,3,42,8c0,0,26,7,40,27c0,0,15,20,15,51v6c0,0,0,64,-49,101c0,0,-48,36,-135,36c0,0,-83,0,-130,-38c0,0,-46,-39,-56,-115H94c0,0,10,131,92,197c0,0,83,66,238,66c0,0,145,0,222,-63c0,0,76,-63,76,-184V137c0,0,0,-21,12,-33c0,0,12,-12,33,-12c0,0,6,0,18,1c0,0,11,2,25,5V1c0,0,-20,-7,-41,-11c0,0,-22,-5,-37,-5c0,0,-76,0,-110,41c0,0,-22,28,-32,79c0,0,-15,-19,-34,-36c0,0,-101,-89,-247,-89Z" 
id="f1_1w"
transform="scale(0.001,-0.001)" />

<path d="M131,0L274,688H168l23,112H296l26,125c0,0,20,98,82,143c0,0,62,46,176,46c0,0,33,0,59,-5L609,990c0,0,0,3,-53,3c0,0,-45,0,-70,-25c0,0,-25,-25,-37,-83L431,800H575L553,688H409L266,0Z" 
id="f2_21"
transform="scale(0.001,-0.001)" />

<path d="M365,-315c0,0,-136,187,-199,359c0,0,-62,172,-62,359c0,0,0,186,62,358c0,0,63,172,199,360h92c0,0,-110,-192,-160,-365c0,0,-51,-172,-51,-353c0,0,0,-183,51,-355c0,0,50,-172,160,-363Z" 
id="f1_b"
transform="scale(0.001,-0.001)" />

<path d="M17,0L389,412L201,800H376L500,518L742,800H904L554,410L750,0H580L448,303L187,0Z" 
id="f2_2j"
transform="scale(0.001,-0.001)" />

<path d="M52,-315c0,0,109,192,160,363c0,0,50,173,50,354c0,0,0,183,-50,355c0,0,-51,173,-160,364h92c0,0,135,-188,198,-360c0,0,63,-172,63,-359c0,0,0,-187,-63,-359c0,0,-63,-171,-198,-358Z" 
id="f1_c"
transform="scale(0.001,-0.001)" />

<path d="M60,174V286H832V174Zm0,309V595H832V483Z" 
id="f1_w"
transform="scale(0.001,-0.001)" />

<path d="M144,-381V1146H255V-381Z" 
id="f1_2n"
transform="scale(0.001,-0.001)" />

<path d="M390,-1V329H60V441H390V771H503V441H833V329H503V-1Z" 
id="f1_e"
transform="scale(0.001,-0.001)" />

<path d="M104,0V799H238V0Zm-2,946v152H239V946Z" 
id="f1_24"
transform="scale(0.001,-0.001)" />

<path d="M393,-20c0,0,-169,0,-252,65c0,0,-83,67,-92,210H178c0,0,10,-85,61,-123c0,0,50,-38,154,-38c0,0,90,0,136,34c0,0,47,35,47,100c0,0,0,42,-31,64c0,0,-30,21,-123,43L283,368c0,0,-112,27,-160,75c0,0,-48,48,-48,135c0,0,0,112,80,178c0,0,81,66,218,66c0,0,140,0,222,-68c0,0,82,-67,88,-187H557c0,0,-6,67,-55,103c0,0,-48,37,-129,37c0,0,-84,0,-127,-29c0,0,-44,-29,-44,-85c0,0,0,-43,31,-65c0,0,30,-21,121,-43L493,452c0,0,117,-28,167,-78c0,0,49,-49,49,-138c0,0,0,-119,-86,-188c0,0,-85,-68,-230,-68Z" 
id="f1_2e"
transform="scale(0.001,-0.001)" />

<path d="M394,-20c0,0,-159,0,-253,113c0,0,-95,114,-95,307c0,0,0,193,98,308c0,0,98,114,264,114c0,0,144,0,230,-78c0,0,85,-79,91,-217H600c0,0,-8,86,-59,133c0,0,-52,47,-138,47c0,0,-101,0,-159,-82c0,0,-58,-82,-58,-225c0,0,0,-152,54,-229c0,0,53,-77,159,-77c0,0,79,0,132,50c0,0,52,51,69,143H729C729,287,709,137,623,58c0,0,-86,-78,-229,-78Z" 
id="f1_1y"
transform="scale(0.001,-0.001)" />

<path d="M99,0V799H226V681l30,39c0,0,87,102,219,102c0,0,132,0,203,-71c0,0,72,-72,72,-204V0H616V502c0,0,0,105,-41,151c0,0,-40,47,-132,47c0,0,-97,0,-154,-73c0,0,-56,-74,-56,-199V0Z" 
id="f1_29"
transform="scale(0.001,-0.001)" />

<path d="M375,-20c0,0,-136,0,-203,66c0,0,-68,68,-68,204V799H238V284c0,0,0,-101,38,-146c0,0,39,-44,127,-44c0,0,97,0,153,75c0,0,57,75,57,203V799H747V0H620V122c0,0,-14,-22,-30,-41C590,81,504,-20,375,-20Z" 
id="f1_2g"
transform="scale(0.001,-0.001)" />

<path d="M0,368V478H849V368Z" 
id="f1_99"
transform="scale(0.001,-0.001)" />

<path d="M133,-224v71c0,0,47,8,65,52c0,0,14,33,17,101H133V163H292V27c0,0,0,-114,-36,-172c0,0,-37,-58,-123,-79Z" 
id="f1_f"
transform="scale(0.001,-0.001)" />

<path d="M436,95c0,0,105,0,160,79c0,0,54,80,54,232c0,0,0,150,-52,222c0,0,-52,72,-161,72c0,0,-112,0,-163,-81c0,0,-51,-82,-51,-258c0,0,0,-127,55,-197c0,0,55,-69,158,-69Zm6,-115c0,0,-135,0,-215,102L215,98V0H89V1097H223V695c0,0,87,127,225,127c1,0,2,0,2,0c0,0,157,0,249,-108c0,0,91,-107,91,-291c0,0,0,-208,-92,-326C698,97,606,-20,442,-20Z" 
id="f1_1x"
transform="scale(0.001,-0.001)" />

<path d="M411,93c0,0,98,0,158,73c0,0,60,74,60,195c0,0,0,163,-57,252c0,0,-56,88,-161,88c0,0,-113,0,-165,-72c0,0,-52,-72,-52,-229c0,0,0,-147,56,-227c0,0,56,-80,161,-80ZM404,-20c0,0,-161,0,-255,118c0,0,-95,120,-95,324c0,0,0,179,92,290c0,0,91,110,239,110c0,0,147,0,233,-124l11,-15v414H763V0H638V109L621,84C621,84,538,-20,404,-20Z" 
id="f1_1z"
transform="scale(0.001,-0.001)" />

<path d="M103,0V1097H237V0Z" 
id="f1_27"
transform="scale(0.001,-0.001)" />

<path d="M417,-28c0,0,-161,0,-259,79c0,0,-98,81,-109,223H189c0,0,11,-90,72,-139c0,0,61,-49,162,-49c0,0,96,0,158,68c0,0,61,68,61,175c0,0,0,112,-64,178c0,0,-64,66,-173,66c0,0,-59,0,-115,-28c0,0,-55,-29,-84,-73L93,480l77,573H727V922H271L225,629l4,3c0,0,89,60,188,60c0,0,169,0,269,-94c0,0,99,-93,99,-253c0,0,0,-165,-103,-269C682,76,579,-28,417,-28Z" 
id="f1_o"
transform="scale(0.001,-0.001)" />

<path d="M131,0V1097H891V966H280V631H814V500H280V0Z" 
id="f1_15"
transform="scale(0.001,-0.001)" />

<path d="M248,0L21,799H169L322,163L478,799H627L788,158L950,799h133L857,0H713L548,624L392,0Z" 
id="f1_2i"
transform="scale(0.001,-0.001)" />

<path d="M132,0V687H22V799H132V935c0,0,0,88,52,133c0,0,52,45,157,45l59,-3V989l-53,2c0,0,-39,0,-60,-24c0,0,-21,-25,-21,-71V799H400V687H266V0Z" 
id="f1_21"
transform="scale(0.001,-0.001)" />

<path d="M454,95c0,0,129,0,212,121c0,0,82,120,82,310c0,0,0,85,-44,131c0,0,-44,46,-124,46c0,0,-98,0,-174,-90c0,0,-76,-90,-108,-245c0,0,-27,-126,16,-199c0,0,42,-74,140,-74ZM22,-315L251,800H378L352,672l21,22c0,0,120,129,262,129c0,0,120,0,189,-77c0,0,69,-77,69,-211c0,0,0,-234,-133,-395C760,140,627,-20,433,-20c0,0,-129,0,-194,106L157,-315Z" 
id="f2_2b"
transform="scale(0.001,-0.001)" />

<path d="M86,-226l16,71c0,0,47,8,74,52c0,0,21,34,38,103H135l18,82l17,81H329L295,11c0,0,-23,-106,-70,-158c0,0,-45,-52,-139,-79Z" 
id="f2_f"
transform="scale(0.001,-0.001)" />

<path d="M412,-328c0,0,-195,96,-303,284C109,-44,0,142,0,365c0,0,0,232,114,422c0,0,114,191,298,273v-31c0,0,-92,-51,-151,-139c0,0,-59,-88,-88,-223c0,0,-29,-136,-29,-282c0,0,0,-167,27,-301c0,0,26,-133,82,-221c0,0,55,-89,159,-159v-32Z" 
id="f3_c"
transform="scale(0.001,-0.001)" />

<path d="M34,-328v32c0,0,92,50,151,138c0,0,59,88,88,222c0,0,29,135,29,283c0,0,0,165,-27,300c0,0,-26,134,-82,222c0,0,-56,89,-159,160v31c0,0,194,-96,303,-284c0,0,108,-187,108,-410c0,0,0,-232,-114,-422c0,0,-114,-191,-297,-272Z" 
id="f3_d"
transform="scale(0.001,-0.001)" />

<path d="M424,92c0,0,114,0,170,107c0,0,57,108,56,323c0,0,1,216,-56,324c0,0,-56,107,-170,107c0,0,-112,0,-168,-107c0,0,-56,-108,-57,-324c0,0,1,-215,57,-323c0,0,56,-107,168,-107Zm0,-120c0,0,-176,0,-271,142c0,0,-96,143,-96,408c0,0,0,265,96,409c0,0,95,144,271,144c0,0,178,0,273,-144c0,0,96,-144,96,-409c0,0,0,-265,-96,-408c0,0,-95,-142,-273,-142Z" 
id="f1_j"
transform="scale(0.001,-0.001)" />

<path d="M0,-123V985c0,0,0,202,88,304c0,0,88,101,278,126v-33c0,0,-112,-27,-179,-86c0,0,-67,-59,-91,-136c0,0,-24,-76,-24,-252V-123Z" 
id="f3_4u"
transform="scale(0.001,-0.001)" />

<path d="M130,0L252,216H0v70H292L410,496H0v70H450L572,783h82L532,566H783V496H492L377,286H783V216H335L213,0Z" 
id="f3_3f"
transform="scale(0.001,-0.001)" />

<path d="M0,-123V1415H73V-123Z" 
id="f3_4x"
transform="scale(0.001,-0.001)" />

<path d="M0,214v74H784V214ZM0,494v72H784V494Z" 
id="f3_x"
transform="scale(0.001,-0.001)" />

<path d="M293,-123V191c0,0,0,200,-67,292c0,0,-67,92,-226,135v57c0,0,159,44,226,135c0,0,67,92,67,292v313h73V1088c0,0,0,-108,-23,-189c0,0,-22,-80,-61,-127c0,0,-39,-46,-95,-75c0,0,-56,-28,-153,-51c0,0,97,-21,157,-52c0,0,61,-31,99,-82c0,0,39,-51,57,-125c0,0,19,-74,19,-180V-123Z" 
id="f3_4v"
transform="scale(0.001,-0.001)" />

<path d="M679,-123c0,0,-190,24,-278,124c0,0,-88,101,-88,305V1415h72V383c0,0,0,-111,12,-191c0,0,11,-79,46,-133c0,0,35,-53,94,-91c0,0,59,-39,142,-58v-33Z" 
id="f3_4w"
transform="scale(0.001,-0.001)" />

<path d="M432,92c0,0,96,0,156,66c0,0,61,65,61,169c0,0,0,103,-61,169c0,0,-60,66,-156,66c0,0,-95,0,-156,-66c0,0,-61,-66,-61,-169c0,0,0,-104,61,-169c0,0,61,-66,156,-66ZM425,-28c0,0,-176,0,-271,135c0,0,-95,136,-95,388c0,0,0,278,103,429c0,0,103,151,293,151c0,0,142,0,226,-77c0,0,84,-76,90,-211H638c0,0,-8,80,-56,123c0,0,-47,43,-127,43c0,0,-125,0,-192,-119c0,0,-58,-102,-64,-278c0,0,100,127,255,127c0,0,152,0,245,-98c0,0,93,-98,93,-258c0,0,0,-161,-101,-259c0,0,-101,-96,-266,-96Z" 
id="f1_p"
transform="scale(0.001,-0.001)" />

<path d="M139,0V1097H287V0Z" 
id="f1_18"
transform="scale(0.001,-0.001)" />

<path d="M39,0V0c0,0,0,170,84,277c0,0,85,108,317,236c0,0,113,62,154,115c0,0,41,52,41,134c0,0,0,86,-62,141c0,0,-61,54,-156,54c0,0,-101,0,-158,-68c0,0,-57,-68,-60,-194H67c0,0,-2,178,95,279c0,0,98,101,273,101c0,0,149,0,245,-89c0,0,94,-88,94,-228c0,0,0,-118,-60,-195c0,0,-61,-76,-229,-169C485,394,303,294,237,212c0,0,-28,-36,-46,-81H774V0Z" 
id="f1_l"
transform="scale(0.001,-0.001)" />

<path d="M0,356v74H784V356Z" 
id="f3_h"
transform="scale(0.001,-0.001)" />

<path d="M0,-123V1415H525v-72H72V-123Z" 
id="f3_4r"
transform="scale(0.001,-0.001)" />

<path d="M478,-123V1343H26v72H550V-123Z" 
id="f3_57"
transform="scale(0.001,-0.001)" />

<path d="M62,-123V268c0,0,0,230,56,452c0,0,47,190,134,334c0,0,87,144,204,242c0,0,85,73,194,119l18,-16c0,0,-211,-145,-335,-339c0,0,-98,-156,-149,-374c0,0,-50,-218,-50,-403V-123Z" 
id="f3_4o"
transform="scale(0.001,-0.001)" />

<path d="M617,-123V283c0,0,0,236,-63,459c0,0,-63,223,-188,392c0,0,-108,146,-282,265l17,16c0,0,180,-76,320,-248c0,0,139,-172,204,-417c0,0,64,-245,64,-482V-123Z" 
id="f3_54"
transform="scale(0.001,-0.001)" />

<path d="M355,0V355H0v72H355V784h72V427H782V355H427V0Z" 
id="f3_f"
transform="scale(0.001,-0.001)" />

<path d="M751,0L0,371v39L751,783V702L122,392L751,80V0Z" 
id="f3_w"
transform="scale(0.001,-0.001)" />

<path d="M62,-123V1415h72V-123Z" 
id="f3_4p"
transform="scale(0.001,-0.001)" />

<path d="M617,-123V1415h72V-123Z" 
id="f3_55"
transform="scale(0.001,-0.001)" />

<path d="M0,-123V1415H72V-123Z" 
id="f3_4s"
transform="scale(0.001,-0.001)" />

<path d="M0,-123V1415H72V-123Z" 
id="f3_58"
transform="scale(0.001,-0.001)" />

<path d="M650,-123c0,0,-180,75,-319,246c0,0,-140,172,-205,418c0,0,-64,245,-64,481v393h72V1007c0,0,0,-236,63,-459c0,0,63,-223,189,-391c0,0,108,-145,282,-265l-18,-15Z" 
id="f3_4q"
transform="scale(0.001,-0.001)" />

<path d="M101,-123l-17,15c0,0,210,144,334,339c0,0,99,156,149,373c0,0,50,218,50,403v408h72V1022c0,0,0,-230,-56,-451c0,0,-48,-191,-134,-335C499,236,412,92,295,-5c0,0,-84,-73,-194,-118Z" 
id="f3_56"
transform="scale(0.001,-0.001)" />

<path d="M0,-123V1415H72V-51H525v-72Z" 
id="f3_4t"
transform="scale(0.001,-0.001)" />

<path d="M26,-123v72H478V1415h72V-123Z" 
id="f3_59"
transform="scale(0.001,-0.001)" />

<path d="M431,94c0,0,95,0,170,76c0,0,76,77,101,198c0,0,35,167,-1,250c0,0,-37,84,-144,84c0,0,-128,0,-210,-117c0,0,-81,-117,-81,-302c0,0,0,-90,43,-139c0,0,44,-50,122,-50ZM400,-20c0,0,-126,0,-199,79c0,0,-73,80,-73,219c0,0,0,234,122,390c0,0,122,155,305,155c0,0,144,0,209,-127l8,-16l86,417H993L767,0H638l22,108L642,90C642,90,532,-20,400,-20Z" 
id="f2_1z"
transform="scale(0.001,-0.001)" />

<path d="M99,-328c0,0,-46,0,-76,13l25,123c0,0,29,-14,81,-14c0,0,47,0,76,31c0,0,28,31,106,162L185,800H339L415,141L769,800H918L456,0C456,0,329,-216,269,-272c0,0,-61,-56,-170,-56Z" 
id="f2_2k"
transform="scale(0.001,-0.001)" />

<path d="M212,0c0,0,51,270,162,500c0,0,109,222,281,422H57v131H799V934C799,934,623,726,515,498C515,498,408,269,362,0Z" 
id="f1_q"
transform="scale(0.001,-0.001)" />

<path d="M344,0V155H494V0Zm9,286c0,0,-3,110,31,187c0,0,33,78,116,152c0,0,59,52,85,97c0,0,25,45,25,98c0,0,0,81,-48,130c0,0,-48,47,-130,47c0,0,-102,0,-152,-55c0,0,-51,-56,-63,-181H86c0,0,8,170,98,262c0,0,91,93,248,93c0,0,143,0,232,-82c0,0,88,-82,88,-214c0,0,0,-77,-38,-145c0,0,-38,-67,-128,-149c0,0,-58,-52,-81,-107c0,0,-23,-55,-21,-133Z" 
id="f1_y"
transform="scale(0.001,-0.001)" />

<path d="M424,92c0,0,98,0,161,58c0,0,62,58,62,149c0,0,0,92,-62,151c0,0,-63,58,-161,58c0,0,-98,0,-160,-58c0,0,-63,-59,-63,-151c0,0,0,-91,63,-149c0,0,62,-58,160,-58Zm0,533c0,0,82,0,134,46c0,0,52,45,52,118c0,0,0,72,-52,118c0,0,-52,46,-134,46c0,0,-82,0,-134,-46c0,0,-52,-46,-52,-118c0,0,0,-73,52,-119c0,0,52,-45,134,-45Zm0,-653c0,0,-165,0,-265,90C159,62,59,154,59,305c0,0,0,134,100,216c0,0,35,28,78,47c0,0,-27,15,-52,33c0,0,-90,70,-90,185c0,0,0,130,90,209c0,0,91,80,239,80c0,0,148,0,238,-80c0,0,91,-79,91,-209c0,0,0,-115,-91,-185c0,0,-24,-19,-52,-32c0,0,44,-20,79,-49c0,0,101,-81,101,-215c0,0,0,-151,-101,-243c0,0,-100,-90,-265,-90Z" 
id="f1_r"
transform="scale(0.001,-0.001)" />

<path d="M436,95c0,0,105,0,160,79c0,0,54,80,54,232c0,0,0,150,-52,222c0,0,-52,72,-161,72c0,0,-112,0,-163,-81c0,0,-51,-82,-51,-258c0,0,0,-127,55,-197c0,0,55,-69,158,-69ZM89,-315V799H216V685l7,10c0,0,86,127,228,127c0,0,156,0,248,-108c0,0,91,-107,91,-291c0,0,0,-208,-92,-326C698,97,606,-20,442,-20c0,0,-135,0,-215,102l-4,6V-315Z" 
id="f1_2b"
transform="scale(0.001,-0.001)" />

<path d="M419,483c0,0,93,0,152,66c0,0,59,66,59,169c0,0,0,103,-59,169c0,0,-59,65,-152,65c0,0,-94,0,-153,-65c0,0,-59,-66,-59,-169c0,0,0,-103,59,-169c0,0,59,-66,153,-66ZM397,-28c0,0,-143,0,-227,75c0,0,-85,77,-91,211H209c0,0,8,-83,57,-128c0,0,49,-45,131,-45c0,0,121,0,186,135c0,0,48,101,62,265C645,485,545,362,397,362c0,0,-150,0,-241,98c0,0,-91,98,-91,258c0,0,0,160,99,258c0,0,99,98,262,98c0,0,173,0,266,-123c0,0,94,-123,94,-349c0,0,0,-303,-101,-467C685,135,583,-28,397,-28Z" 
id="f1_s"
transform="scale(0.001,-0.001)" />

<path d="M354,90c0,0,107,0,192,57c0,0,60,41,87,95c0,0,5,12,11,33c0,0,6,20,11,44l18,88c0,0,-62,-26,-132,-37L414,352c0,0,-84,-11,-131,-56c0,0,-47,-45,-47,-113c0,0,0,-44,31,-69c0,0,31,-24,87,-24ZM306,-20c0,0,-99,0,-156,47c0,0,-57,49,-57,134c0,0,1,117,81,198c0,0,80,81,211,98l164,20l70,10c0,0,35,6,59,30c0,0,23,24,31,66l1,2c0,0,13,64,-25,94c0,0,-39,31,-132,31c0,0,-83,0,-137,-37c0,0,-54,-37,-84,-114H210c0,0,46,137,138,201c0,0,92,63,245,63c0,0,149,0,211,-59c0,0,45,-44,44,-116c0,0,1,-30,-6,-63L749,136c0,0,-4,-19,6,-32c0,0,10,-12,30,-12c0,0,6,0,19,1c0,0,12,2,25,5L809,1c0,0,-19,-6,-43,-11c0,0,-22,-5,-36,-5c0,0,-73,0,-100,43c0,0,-16,27,-17,75C612,102,594,85,573,69c0,0,-120,-89,-267,-89Z" 
id="f2_1w"
transform="scale(0.001,-0.001)" />

<path d="M99,0L264,800H392L367,676l36,38c0,0,110,109,236,109c0,0,108,0,159,-63c0,0,23,-30,31,-71l36,34c0,0,113,100,221,100c0,0,123,0,176,-67c0,0,37,-45,37,-117c0,0,0,-33,-8,-73L1173,0H1038l113,546c0,0,16,76,-10,116c0,0,-26,39,-92,39c0,0,-90,0,-159,-65c0,0,-68,-65,-91,-172L704,0H569L684,560c0,0,15,72,-7,106c0,0,-23,35,-85,35c0,0,-109,0,-177,-77c0,0,-68,-77,-101,-238L234,0Z" 
id="f2_28"
transform="scale(0.001,-0.001)" />

<path d="M393,0l68,330H130l23,113H484l68,330H665L596,443H927L903,330H573L505,0Z" 
id="f2_e"
transform="scale(0.001,-0.001)" />

<path d="M99,0L264,800H392L367,675l37,39c0,0,111,109,238,109c0,0,139,0,194,-69c0,0,55,-70,27,-209L750,0H615L724,524c0,0,18,91,-10,134c0,0,-28,43,-106,43c0,0,-117,0,-189,-77c0,0,-72,-77,-105,-238L234,0Z" 
id="f2_29"
transform="scale(0.001,-0.001)" />

<path d="M424,-28c0,0,-180,0,-272,86c0,0,-92,87,-100,266H192c0,0,12,-126,66,-180c0,0,55,-54,170,-54c0,0,100,0,163,57c0,0,64,57,64,147c0,0,0,94,-61,149c0,0,-52,48,-135,54c0,0,-38,2,-72,2c0,0,-34,0,-45,-3V613c0,0,17,-3,51,-3c0,0,35,0,68,4c0,0,66,8,106,43c0,0,55,45,55,125c0,0,0,77,-58,125c0,0,-58,48,-148,48c0,0,-96,0,-147,-58c0,0,-51,-59,-56,-175H82c0,0,0,168,89,260c0,0,88,93,250,93c0,0,153,0,247,-77c0,0,94,-76,94,-202c0,0,0,-124,-95,-201c0,0,-18,-15,-39,-27c0,0,39,-17,69,-41c0,0,101,-79,101,-214c0,0,0,-151,-105,-246c0,0,-104,-95,-269,-95Z" 
id="f1_m"
transform="scale(0.001,-0.001)" />

<path d="M418,95c0,0,98,0,158,73c0,0,59,73,59,193c0,0,0,170,-54,254c0,0,-54,85,-163,85c0,0,-113,0,-165,-72c0,0,-52,-71,-52,-227c0,0,0,-147,57,-227c0,0,56,-79,160,-79ZM394,-336c0,0,-136,0,-216,62c0,0,-79,63,-96,182H219c0,0,12,-64,57,-98c0,0,45,-35,116,-35c0,0,116,0,176,73c0,0,61,73,61,211V85l-1,-1C628,84,545,-20,412,-20c0,0,-161,0,-256,118c0,0,-94,120,-94,324c0,0,0,179,93,290c0,0,93,110,244,110c0,0,144,0,228,-124l10,-14V799H763V59c0,0,-1,-201,-91,-298c0,0,-91,-97,-278,-97Z" 
id="f1_22"
transform="scale(0.001,-0.001)" />

<path d="M748,462c0,0,3,31,3,63c0,0,0,86,-45,132c0,0,-46,45,-134,45c0,0,-100,0,-180,-85c0,0,-58,-63,-90,-155ZM419,-20c0,0,-136,0,-213,73c0,0,-77,74,-78,206c0,0,0,25,4,58c0,0,4,32,10,63c0,0,44,208,169,326c0,0,125,117,305,117c0,0,128,0,198,-73c0,0,71,-73,71,-207c0,0,1,-100,-24,-189H278l-4,-25c0,0,-3,-30,-3,-55c0,0,0,-90,44,-134c0,0,44,-45,133,-45c0,0,87,0,156,44c0,0,68,45,95,117H830C830,256,782,126,674,52c0,0,-108,-72,-255,-72Z" 
id="f2_20"
transform="scale(0.001,-0.001)" />

<path d="M398,-20c0,0,-133,0,-209,72c0,0,-76,74,-76,202v3c0,0,0,27,4,60c0,0,4,33,10,63c0,0,43,208,168,326c0,0,126,117,306,117c0,0,131,0,192,-75c0,0,49,-61,50,-168l-3,-52H710c0,0,4,87,-33,131c0,0,-37,45,-113,45c0,0,-110,0,-184,-81c0,0,-75,-82,-107,-238c0,0,-6,-28,-9,-56c0,0,-3,-28,-3,-50c0,0,0,-88,43,-136c0,0,43,-48,121,-48c0,0,76,0,137,49c0,0,61,48,92,136H788C788,280,737,138,633,58c0,0,-103,-78,-235,-78Z" 
id="f2_1y"
transform="scale(0.001,-0.001)" />

<path d="M445,95c0,0,127,0,215,118c0,0,87,119,87,290c0,0,0,97,-46,151c0,0,-46,53,-129,53c0,0,-127,0,-214,-118c0,0,-87,-117,-87,-287c0,0,0,-98,45,-153c0,0,46,-54,129,-54ZM421,-20c0,0,-136,0,-215,81c0,0,-79,82,-79,223c0,0,0,227,136,383c0,0,136,156,333,156c0,0,138,0,217,-79c0,0,79,-80,79,-215v-3c0,0,0,-230,-136,-389C756,137,619,-20,421,-20Z" 
id="f2_2a"
transform="scale(0.001,-0.001)" />

<path d="M391,-20c0,0,-172,0,-244,68c0,0,-50,50,-50,134c0,0,0,34,8,74H235c0,0,-11,-85,31,-123c0,0,43,-38,149,-38c0,0,90,0,144,32c0,0,54,32,66,93c0,0,9,46,-21,69c0,0,-32,24,-133,52L340,376c0,0,-93,25,-127,71c0,0,-22,32,-22,78c0,0,0,23,5,49c0,0,22,110,121,180c0,0,98,69,230,69c0,0,137,0,203,-62c0,0,58,-55,58,-153l-2,-32H676c0,0,7,64,-32,97c0,0,-39,34,-121,34c0,0,-82,0,-131,-30c0,0,-48,-30,-60,-87c0,0,-9,-40,18,-61c0,0,24,-20,109,-43L590,451c0,0,109,-29,149,-82c0,0,27,-35,27,-88c0,0,0,-24,-6,-53C760,228,736,118,634,48c0,0,-103,-68,-243,-68Z" 
id="f2_2e"
transform="scale(0.001,-0.001)" />

<path d="M338,28c0,0,48,0,91,45c0,0,43,45,65,144c0,0,22,99,26,276H143c0,0,3,-133,20,-239c0,0,13,-80,44,-140c0,0,19,-36,54,-61c0,0,36,-25,77,-25ZM522,543c0,0,-1,194,-37,312c0,0,-29,90,-76,129c0,0,-34,28,-79,28c0,0,-51,0,-93,-39c0,0,-43,-40,-65,-132c0,0,-22,-93,-29,-298ZM329,-21c0,0,-68,0,-124,31c0,0,-56,33,-99,95c0,0,-43,62,-66,131C40,236,0,356,0,489c0,0,0,294,119,453c0,0,91,119,217,119c0,0,122,0,209,-115c0,0,121,-160,121,-436c0,0,0,-263,-119,-415C547,95,455,-21,329,-21Z" 
id="f3_2d"
transform="scale(0.001,-0.001)" />

<path d="M412,-18c0,0,-144,0,-239,85c0,0,-95,86,-108,222l133,18c0,0,24,-114,79,-164c0,0,55,-50,135,-50c0,0,96,0,161,65c0,0,65,66,65,163c0,0,0,92,-61,152c0,0,-60,60,-153,60c0,0,-38,0,-95,-15l15,119c0,0,13,-2,21,-2c0,0,86,0,155,45c0,0,69,44,69,137c0,0,0,74,-50,122c0,0,-50,49,-129,49c0,0,-79,0,-131,-50c0,0,-52,-49,-67,-147L78,815c0,0,25,135,112,209c0,0,87,74,217,74c0,0,89,0,164,-38c0,0,76,-39,116,-105c0,0,40,-66,40,-141c0,0,0,-70,-39,-129c0,0,-38,-58,-112,-92c0,0,97,-22,151,-93c0,0,53,-70,53,-176c0,0,0,-143,-104,-243c0,0,-105,-99,-264,-99Z" 
id="f4_n"
transform="scale(0.001,-0.001)" />

<path d="M125,0V1051H268V115H799V0Z" 
id="f0_1c"
transform="scale(0.001,-0.001)" />

<path d="M106,0V620c0,0,0,85,-5,188H228c0,0,6,-138,6,-165h3c0,0,32,103,74,141c0,0,42,38,118,38c0,0,27,0,54,-7V692c0,0,-26,7,-71,7c0,0,-84,0,-128,-72c0,0,-44,-72,-44,-206V0Z" 
id="f0_2e"
transform="scale(0.001,-0.001)" />

<path d="M606,-14c0,0,-164,0,-284,65c0,0,-119,66,-182,189c0,0,-63,123,-63,291c0,0,0,255,137,396c0,0,137,140,386,140c0,0,174,0,283,-59c0,0,109,-59,168,-189L915,779c0,0,-44,90,-123,131c0,0,-79,41,-196,41c0,0,-182,0,-278,-110c0,0,-96,-110,-96,-310c0,0,0,-200,102,-315c0,0,102,-115,282,-115c0,0,103,0,193,31c0,0,89,31,144,85V407H629V526h445V164c0,0,-83,-85,-205,-132c0,0,-121,-46,-263,-46Z" 
id="f0_17"
transform="scale(0.001,-0.001)" />

<path d="M355,-14c0,0,-133,0,-194,65c0,0,-62,66,-62,219V808H234V296c0,0,0,-80,16,-124c0,0,16,-44,50,-64c0,0,34,-19,101,-19c0,0,97,0,153,66c0,0,55,67,55,185V808H744V172c0,0,0,-141,4,-172H621c0,0,0,4,-1,20c0,0,-1,17,-2,38c0,0,-1,21,-3,80h-2C613,138,567,55,506,20c0,0,-61,-34,-151,-34Z" 
id="f0_2h"
transform="scale(0.001,-0.001)" />

<path d="M395,89c0,0,115,0,166,79c0,0,51,79,51,246c0,0,0,160,-51,235c0,0,-51,75,-164,75c0,0,-102,0,-147,-75c0,0,-45,-75,-45,-244c0,0,0,-170,45,-243c0,0,45,-73,145,-73ZM361,-14c0,0,-153,0,-225,102c0,0,-72,103,-72,312c0,0,0,422,297,422c0,0,92,0,153,-33c0,0,61,-34,98,-107h2l-2,90v335H747V166c0,0,0,-126,4,-166H623c0,0,-2,12,-5,55c0,0,-3,44,-3,75h-3c0,0,-37,-78,-98,-111c0,0,-62,-33,-153,-33Z" 
id="f0_20"
transform="scale(0.001,-0.001)" />

<path d="M140,0V163H285V0Z" 
id="f0_i"
transform="scale(0.001,-0.001)" />


</defs>
</svg>