<?xml version="1.0" encoding="UTF-8" standalone="no"?>
<!DOCTYPE svg PUBLIC "-//W3C//DTD SVG 1.1//EN"
"http://www.w3.org/Graphics/SVG/1.1/DTD/svg11.dtd">
<svg viewBox="0 0 734 1106" version="1.1" xmlns="http://www.w3.org/2000/svg" xmlns:xlink="http://www.w3.org/1999/xlink">
<defs>
<style type="text/css"><![CDATA[
.g0_88{
fill: none;
stroke: #000000;
stroke-width: 0.7624222;
stroke-linecap: round;
stroke-linejoin: miter;
}
.g1_88{
fill: none;
stroke: #000000;
stroke-width: 0.76217777;
stroke-linecap: round;
stroke-linejoin: miter;
}
.g2_88{
fill: none;
stroke: #000000;
stroke-width: 0.15277778;
stroke-linecap: round;
stroke-linejoin: miter;
}
.g3_88{
}
.g4_88{
fill: none;
stroke: #000000;
stroke-width: 0.7665778;
stroke-linecap: round;
stroke-linejoin: miter;
}
.g5_88{
fill: none;
stroke: #000000;
stroke-width: 0.76144445;
stroke-linecap: round;
stroke-linejoin: miter;
}
.g6_88{
fill: none;
stroke: #000000;
stroke-width: 0.7638889;
stroke-linecap: round;
stroke-linejoin: miter;
}
.g7_88{
fill: none;
stroke: #000000;
stroke-width: 1.0459778;
stroke-linecap: round;
stroke-linejoin: miter;
}
.g8_88{
fill: none;
stroke: #000000;
stroke-width: 1.0503472;
stroke-linecap: round;
stroke-linejoin: miter;
}
]]></style>
</defs>
<g fill="#D4D4D4" fill-opacity="0.56" >
<use xlink:href="#f0_1f" transform="matrix(50.9,-50.9,50.9,50.9,122.6,924.1)" />
<use xlink:href="#f0_2a" transform="matrix(50.9,-50.9,50.9,50.9,183.2,863.6)" />
<use xlink:href="#f0_28" transform="matrix(50.9,-50.9,50.9,50.9,226.4,820.3)" />
<use xlink:href="#f0_25" transform="matrix(50.9,-50.9,50.9,50.9,243.7,803.1)" />
<use xlink:href="#f0_2a" transform="matrix(50.9,-50.9,50.9,50.9,260.9,785.8)" />
<use xlink:href="#f0_21" transform="matrix(50.9,-50.9,50.9,50.9,304.2,742.5)" />
<use xlink:href="#f0_2k" transform="matrix(50.9,-50.9,50.9,50.9,347.4,699.3)" />
<use xlink:href="#f0_1x" transform="matrix(50.9,-50.9,50.9,50.9,386.3,660.4)" />
<use xlink:href="#f0_29" transform="matrix(50.9,-50.9,50.9,50.9,429.6,617.2)" />
<use xlink:href="#f0_2c" transform="matrix(50.9,-50.9,50.9,50.9,494.4,552.4)" />
<use xlink:href="#f0_2b" transform="matrix(50.9,-50.9,50.9,50.9,537.6,509.1)" />
<use xlink:href="#f0_25" transform="matrix(50.9,-50.9,50.9,50.9,580.8,465.9)" />
<use xlink:href="#f0_2a" transform="matrix(50.9,-50.9,50.9,50.9,598.1,448.6)" />
<use xlink:href="#f0_2g" transform="matrix(50.9,-50.9,50.9,50.9,641.4,405.4)" />
</g>
<g fill="#000000" >
<use xlink:href="#f1_k" transform="matrix(10.4,0,0,10.4,61.8,120)" />
<use xlink:href="#f1_l" transform="matrix(10.4,0,0,10.4,70.6,120)" />
<use xlink:href="#f1_h" transform="matrix(10.4,0,0,10.4,79.5,120)" />
<use xlink:href="#f2_b" transform="matrix(10.4,0,0,10.4,84,120)" />
<use xlink:href="#f2_24" transform="matrix(10.4,0,0,10.4,89.5,120)" />
<use xlink:href="#f2_c" transform="matrix(10.4,0,0,10.4,93,120)" />
</g>
<path d="M155.4,116.3h57.3m23.1,0h62.6" class="g0_88" />
<g fill="#000000" >
<use xlink:href="#f3_x" transform="matrix(10.5,0,0,10.5,137.8,120.5)" />
<use xlink:href="#f3_h" transform="matrix(10.5,0,0,10.5,219.9,120.5)" />
<use xlink:href="#f3_f" transform="matrix(10.5,0,0,10.5,305.6,120.5)" />
<use xlink:href="#f2_l" transform="matrix(7.9,0,0,7.9,338.7,110.9)" />
<use xlink:href="#f2_m" transform="matrix(10.5,0,0,10.5,156.2,110.1)" />
<use xlink:href="#f2_2e" transform="matrix(10.5,0,0,10.5,169.1,110.1)" />
<use xlink:href="#f2_24" transform="matrix(10.5,0,0,10.5,177.1,110.1)" />
<use xlink:href="#f2_29" transform="matrix(10.5,0,0,10.5,180.7,110.1)" />
<use xlink:href="#f2_m" transform="matrix(10.5,0,0,10.5,193.1,110.1)" />
<use xlink:href="#f2_l" transform="matrix(10.5,0,0,10.5,236.7,110.1)" />
<use xlink:href="#f2_1y" transform="matrix(10.5,0,0,10.5,249.6,110.1)" />
<use xlink:href="#f2_2a" transform="matrix(10.5,0,0,10.5,257.6,110.1)" />
<use xlink:href="#f2_2e" transform="matrix(10.5,0,0,10.5,266.5,110.1)" />
<use xlink:href="#f2_m" transform="matrix(10.5,0,0,10.5,278.7,110.1)" />
<use xlink:href="#f2_k" transform="matrix(10.5,0,0,10.5,174.7,136.1)" />
<use xlink:href="#f2_m" transform="matrix(10.5,0,0,10.5,183.6,136.1)" />
<use xlink:href="#f2_k" transform="matrix(10.5,0,0,10.5,257.7,136.1)" />
<use xlink:href="#f2_m" transform="matrix(10.5,0,0,10.5,266.6,136.1)" />
<use xlink:href="#f4_2j" transform="matrix(7.9,0,0,7.9,346,110.9)" />
<use xlink:href="#f4_2j" transform="matrix(10.5,0,0,10.5,202.2,110.1)" />
<use xlink:href="#f4_2j" transform="matrix(10.5,0,0,10.5,287.9,110.1)" />
<use xlink:href="#f4_2k" transform="matrix(10.5,0,0,10.5,119.4,120.5)" />
<use xlink:href="#f4_1y" transform="matrix(10.5,0,0,10.5,320.6,120.5)" />
<use xlink:href="#f4_20" transform="matrix(10.5,0,0,10.5,328.6,120.5)" />
<use xlink:href="#f2_b" transform="matrix(10.4,0,0,10.4,373.8,120)" />
<use xlink:href="#f2_24" transform="matrix(10.4,0,0,10.4,379.1,120)" />
<use xlink:href="#f2_24" transform="matrix(10.4,0,0,10.4,382.7,120)" />
<use xlink:href="#f2_c" transform="matrix(10.4,0,0,10.4,386.2,120)" />
</g>
<path d="M448.7,111.1H459m70.1,0h10.3" class="g1_88" />
<g fill="#000000" >
<use xlink:href="#f3_x" transform="matrix(10.5,0,0,10.5,431.1,115.4)" />
<use xlink:href="#f3_f" transform="matrix(10.5,0,0,10.5,513,115.4)" />
<use xlink:href="#f2_l" transform="matrix(7.9,0,0,7.9,483.8,105.8)" />
<use xlink:href="#f2_l" transform="matrix(10.5,0,0,10.5,449.5,105)" />
<use xlink:href="#f2_k" transform="matrix(10.5,0,0,10.5,530.7,105)" />
<use xlink:href="#f2_2e" transform="matrix(10.5,0,0,10.5,463.7,115.4)" />
<use xlink:href="#f2_24" transform="matrix(10.5,0,0,10.5,471.7,115.4)" />
<use xlink:href="#f2_29" transform="matrix(10.5,0,0,10.5,475.2,115.4)" />
<use xlink:href="#f2_1y" transform="matrix(10.5,0,0,10.5,544.2,115.4)" />
<use xlink:href="#f2_2a" transform="matrix(10.5,0,0,10.5,552.2,115.4)" />
<use xlink:href="#f2_2e" transform="matrix(10.5,0,0,10.5,561.1,115.4)" />
<use xlink:href="#f2_20" transform="matrix(10.5,0,0,10.5,569.1,115.4)" />
<use xlink:href="#f2_1y" transform="matrix(10.5,0,0,10.5,578,115.4)" />
<use xlink:href="#f2_m" transform="matrix(10.5,0,0,10.5,449.5,131)" />
<use xlink:href="#f2_m" transform="matrix(10.5,0,0,10.5,529.9,131)" />
<use xlink:href="#f4_2k" transform="matrix(10.5,0,0,10.5,412.7,115.4)" />
<use xlink:href="#f4_2j" transform="matrix(10.5,0,0,10.5,496.6,115.4)" />
<use xlink:href="#f4_2j" transform="matrix(10.5,0,0,10.5,590.8,115.4)" />
<use xlink:href="#f2_b" transform="matrix(10.4,0,0,10.4,77,178.1)" />
<use xlink:href="#f2_24" transform="matrix(10.4,0,0,10.4,82.3,178.1)" />
<use xlink:href="#f2_24" transform="matrix(10.4,0,0,10.4,85.8,178.1)" />
<use xlink:href="#f2_24" transform="matrix(10.4,0,0,10.4,89.4,178.1)" />
<use xlink:href="#f2_c" transform="matrix(10.4,0,0,10.4,92.9,178.1)" />
<use xlink:href="#f3_c" transform="matrix(10.5,0,0,16.3,194,173.6)" />
<use xlink:href="#f3_d" transform="matrix(10.5,0,0,16.3,248.5,173.6)" />
<use xlink:href="#f2_m" transform="matrix(7.9,0,0,7.9,254,161.5)" />
<use xlink:href="#f2_2f" transform="matrix(10.5,0,0,10.5,119.3,176.9)" />
<use xlink:href="#f2_1w" transform="matrix(10.5,0,0,10.5,123.8,176.9)" />
<use xlink:href="#f2_29" transform="matrix(10.5,0,0,10.5,132.7,176.9)" />
<use xlink:href="#f2_k" transform="matrix(10.5,0,0,10.5,199.9,176.9)" />
<use xlink:href="#f3_x" transform="matrix(10.5,0,0,10.5,163.8,176.9)" />
<use xlink:href="#f3_h" transform="matrix(10.5,0,0,10.5,213,176.9)" />
<use xlink:href="#f4_2j" transform="matrix(7.9,0,0,7.9,238,167.3)" />
<use xlink:href="#f4_2k" transform="matrix(10.5,0,0,10.5,145.4,176.9)" />
<use xlink:href="#f4_26" transform="matrix(10.5,0,0,10.5,180.5,176.9)" />
<use xlink:href="#f4_20" transform="matrix(10.5,0,0,10.5,227.7,176.9)" />
<use xlink:href="#f1_k" transform="matrix(10.4,0,0,10.4,61.8,233.1)" />
<use xlink:href="#f1_m" transform="matrix(10.4,0,0,10.4,70.6,233.1)" />
<use xlink:href="#f1_h" transform="matrix(10.4,0,0,10.4,79.5,233.1)" />
<use xlink:href="#f2_b" transform="matrix(10.4,0,0,10.4,84,233.1)" />
<use xlink:href="#f2_24" transform="matrix(10.4,0,0,10.4,89.5,233.1)" />
<use xlink:href="#f2_c" transform="matrix(10.4,0,0,10.4,93,233.1)" />
<use xlink:href="#f3_c" transform="matrix(10.4,0,0,13.9,223.8,233.8)" />
<use xlink:href="#f3_d" transform="matrix(10.4,0,0,13.9,274.6,233.8)" />
<use xlink:href="#f3_2n" transform="matrix(10.5,0,0,15.7,202.5,234.5)" />
<use xlink:href="#f3_2p" transform="matrix(10.5,0,0,15.7,280.5,234.5)" />
<use xlink:href="#f3_h" transform="matrix(10.5,0,0,10.5,119.3,233.1)" />
<use xlink:href="#f3_x" transform="matrix(10.5,0,0,10.5,147.2,233.1)" />
<use xlink:href="#f3_h" transform="matrix(10.5,0,0,10.5,247.5,233.1)" />
<use xlink:href="#f2_27" transform="matrix(10.5,0,0,10.5,178,233.1)" />
<use xlink:href="#f2_2a" transform="matrix(10.5,0,0,10.5,181.5,233.1)" />
<use xlink:href="#f2_22" transform="matrix(10.5,0,0,10.5,190.5,233.1)" />
<use xlink:href="#f4_2k" transform="matrix(10.5,0,0,10.5,128.8,233.1)" />
<use xlink:href="#f4_2j" transform="matrix(10.5,0,0,10.5,164.6,233.1)" />
<use xlink:href="#f4_1y" transform="matrix(10.5,0,0,10.5,210.6,233.1)" />
<use xlink:href="#f4_2j" transform="matrix(10.5,0,0,10.5,231,233.1)" />
<use xlink:href="#f4_2k" transform="matrix(10.5,0,0,10.5,263.2,233.1)" />
<use xlink:href="#f2_b" transform="matrix(10.4,0,0,10.4,373.8,233.1)" />
<use xlink:href="#f2_24" transform="matrix(10.4,0,0,10.4,379.1,233.1)" />
<use xlink:href="#f2_24" transform="matrix(10.4,0,0,10.4,382.7,233.1)" />
<use xlink:href="#f2_c" transform="matrix(10.4,0,0,10.4,386.2,233.1)" />
</g>
<path d="M497,232.6l1.5,-1.5l3.9,10l4.3,-26.3h61.2" class="g2_88" />
<path fill-rule="evenodd" d="M496.8,232.4l2.1,-1.9l3.5,8.3l4,-24.3h61.5v.7H507l-4.2,25.9h-.7l-4,-9.3l-.9,.9l-.4,-.3Z" class="g3_88" />
<g fill="#000000" >
<use xlink:href="#f3_x" transform="matrix(10.4,0,0,10.4,446.5,236.6)" />
<use xlink:href="#f3_f" transform="matrix(10.4,0,0,10.4,480.6,236.6)" />
<use xlink:href="#f3_f" transform="matrix(10.4,0,0,10.4,532.6,236.6)" />
<use xlink:href="#f2_l" transform="matrix(7.8,0,0,7.8,429.7,227.1)" />
<use xlink:href="#f2_l" transform="matrix(7.8,0,0,7.8,517.4,227.1)" />
<use xlink:href="#f2_l" transform="matrix(7.8,0,0,7.8,558.8,227.1)" />
<use xlink:href="#f4_1y" transform="matrix(10.4,0,0,10.4,411.5,236.6)" />
<use xlink:href="#f4_2j" transform="matrix(10.4,0,0,10.4,419.5,236.6)" />
<use xlink:href="#f4_2k" transform="matrix(10.4,0,0,10.4,463.8,236.6)" />
<use xlink:href="#f4_2j" transform="matrix(10.4,0,0,10.4,507.2,236.6)" />
<use xlink:href="#f4_2k" transform="matrix(10.4,0,0,10.4,548.4,236.6)" />
<use xlink:href="#f2_b" transform="matrix(10.4,0,0,10.4,77,296)" />
<use xlink:href="#f2_24" transform="matrix(10.4,0,0,10.4,82.3,296)" />
<use xlink:href="#f2_24" transform="matrix(10.4,0,0,10.4,85.8,296)" />
<use xlink:href="#f2_24" transform="matrix(10.4,0,0,10.4,89.4,296)" />
<use xlink:href="#f2_c" transform="matrix(10.4,0,0,10.4,92.9,296)" />
</g>
<path d="M180.6,291.8h11.7" class="g4_88" />
<g fill="#000000" >
<use xlink:href="#f3_4o" transform="matrix(10.4,0,0,10.4,170.7,286.8)" />
<use xlink:href="#f3_54" transform="matrix(10.4,0,0,10.4,194,286.8)" />
<use xlink:href="#f3_x" transform="matrix(10.4,0,0,10.4,210.3,296)" />
<use xlink:href="#f3_4p" transform="matrix(10.4,0,0,10.4,170.7,301.3)" />
<use xlink:href="#f3_55" transform="matrix(10.4,0,0,10.4,194,301.3)" />
<use xlink:href="#f3_4q" transform="matrix(10.4,0,0,10.4,170.7,307.8)" />
<use xlink:href="#f3_56" transform="matrix(10.4,0,0,10.4,194,307.8)" />
<use xlink:href="#f2_1y" transform="matrix(10.5,0,0,10.4,141.6,296)" />
<use xlink:href="#f2_2a" transform="matrix(10.5,0,0,10.4,149.6,296)" />
<use xlink:href="#f2_2e" transform="matrix(10.5,0,0,10.4,158.7,296)" />
<use xlink:href="#f4_2k" transform="matrix(10.5,0,0,10.4,181.5,285.7)" />
<use xlink:href="#f4_2j" transform="matrix(10.5,0,0,10.4,119.3,296)" />
<use xlink:href="#f4_2k" transform="matrix(10.5,0,0,10.4,127.3,296)" />
<use xlink:href="#f4_1y" transform="matrix(10.5,0,0,10.4,226.7,296)" />
<use xlink:href="#f4_2j" transform="matrix(10.5,0,0,10.4,181.6,311.4)" />
<use xlink:href="#f2_b" transform="matrix(10.4,0,0,10.4,369.2,296)" />
<use xlink:href="#f2_24" transform="matrix(10.4,0,0,10.4,374.5,296)" />
<use xlink:href="#f2_2h" transform="matrix(10.4,0,0,10.4,378.1,296)" />
<use xlink:href="#f2_c" transform="matrix(10.4,0,0,10.4,386.1,296)" />
<use xlink:href="#f3_x" transform="matrix(10.6,0,0,10.6,457.7,294.6)" />
<use xlink:href="#f3_f" transform="matrix(10.6,0,0,10.6,491.7,294.6)" />
<use xlink:href="#f2_l" transform="matrix(8,0,0,7.9,431.9,284.9)" />
<use xlink:href="#f2_m" transform="matrix(10.6,0,0,10.6,412.5,294.6)" />
<use xlink:href="#f2_l" transform="matrix(10.6,0,0,10.6,507.4,294.6)" />
<use xlink:href="#f4_2j" transform="matrix(10.6,0,0,10.6,421.8,294.6)" />
<use xlink:href="#f4_2k" transform="matrix(10.6,0,0,10.6,439.5,294.6)" />
<use xlink:href="#f4_2k" transform="matrix(10.6,0,0,10.6,475.2,294.6)" />
<use xlink:href="#f4_2j" transform="matrix(10.6,0,0,10.6,516.6,294.6)" />
<use xlink:href="#f2_b" transform="matrix(10.4,0,0,10.4,79.6,366.6)" />
<use xlink:href="#f2_2h" transform="matrix(10.4,0,0,10.4,84.9,366.6)" />
<use xlink:href="#f2_c" transform="matrix(10.4,0,0,10.4,93.1,366.6)" />
</g>
<path d="M234.4,353.8v15m15.1,-15v15" class="g1_88" />
<g fill="#000000" >
<use xlink:href="#f3_c" transform="matrix(10.7,0,0,14.8,202.1,367.8)" />
<use xlink:href="#f3_d" transform="matrix(10.7,0,0,14.8,252.3,367.8)" />
<use xlink:href="#f3_x" transform="matrix(10.7,0,0,10.7,137.5,367.7)" />
<use xlink:href="#f3_h" transform="matrix(10.7,0,0,10.7,154.9,367.7)" />
<use xlink:href="#f3_3f" transform="matrix(10.7,0,0,10.7,289.5,367.7)" />
<use xlink:href="#f2_27" transform="matrix(10.7,0,0,10.7,177.3,367.7)" />
<use xlink:href="#f2_2a" transform="matrix(10.7,0,0,10.7,180.9,367.7)" />
<use xlink:href="#f2_22" transform="matrix(10.7,0,0,10.7,190,367.7)" />
<use xlink:href="#f2_27" transform="matrix(10.7,0,0,10.7,208.6,367.7)" />
<use xlink:href="#f2_2a" transform="matrix(10.7,0,0,10.7,212.2,367.7)" />
<use xlink:href="#f2_22" transform="matrix(10.7,0,0,10.7,221.3,367.7)" />
<use xlink:href="#f2_f" transform="matrix(10.7,0,0,10.7,260.8,367.7)" />
<use xlink:href="#f2_j" transform="matrix(10.7,0,0,10.7,307.2,367.7)" />
<use xlink:href="#f4_2k" transform="matrix(10.7,0,0,10.7,119.6,367.7)" />
<use xlink:href="#f4_2j" transform="matrix(10.7,0,0,10.7,164.9,367.7)" />
<use xlink:href="#f4_2j" transform="matrix(10.7,0,0,10.7,238.1,367.7)" />
<use xlink:href="#f4_2j" transform="matrix(10.7,0,0,10.7,272.4,367.7)" />
<use xlink:href="#f2_b" transform="matrix(10.4,0,0,10.4,369.2,366.6)" />
<use xlink:href="#f2_2h" transform="matrix(10.4,0,0,10.4,374.5,366.6)" />
<use xlink:href="#f2_24" transform="matrix(10.4,0,0,10.4,382.8,366.6)" />
<use xlink:href="#f2_c" transform="matrix(10.4,0,0,10.4,386.3,366.6)" />
<use xlink:href="#f3_c" transform="matrix(11.1,0,0,19.7,424.6,366.4)" />
<use xlink:href="#f3_d" transform="matrix(11.1,0,0,19.7,491.7,366.5)" />
</g>
<path d="M522.7,363l1.5,-1.5l4,10.6l4.2,-27.9h59.8" class="g2_88" />
<path fill-rule="evenodd" d="M522.6,362.8l2.1,-2l3.5,8.8l3.9,-25.8h60.1v.8H532.7l-4.2,27.5h-.7l-3.9,-9.8l-1,.9l-.3,-.4Z" class="g3_88" />
<g fill="#000000" >
<use xlink:href="#f3_f" transform="matrix(11.1,0,0,11.1,456.1,367.5)" />
<use xlink:href="#f3_x" transform="matrix(11.1,0,0,11.1,505,367.5)" />
<use xlink:href="#f3_h" transform="matrix(11.1,0,0,11.1,557.4,367.5)" />
<use xlink:href="#f2_l" transform="matrix(8.3,0,0,8.3,441.1,357.4)" />
<use xlink:href="#f2_l" transform="matrix(8.3,0,0,8.3,481.9,357.4)" />
<use xlink:href="#f2_l" transform="matrix(8.3,0,0,8.3,542.4,357.4)" />
<use xlink:href="#f2_l" transform="matrix(8.3,0,0,8.3,582.9,357.4)" />
<use xlink:href="#f2_h" transform="matrix(11.2,0,0,11.1,591.7,367.5)" />
<use xlink:href="#f4_1y" transform="matrix(11.2,0,0,11.1,412.2,367.5)" />
<use xlink:href="#f4_2j" transform="matrix(11.2,0,0,11.1,432.1,367.5)" />
<use xlink:href="#f4_2k" transform="matrix(11.2,0,0,11.1,472.1,367.5)" />
<use xlink:href="#f4_2j" transform="matrix(11.2,0,0,11.1,533.3,367.5)" />
<use xlink:href="#f4_2k" transform="matrix(11.2,0,0,11.1,573.1,367.5)" />
<use xlink:href="#f2_b" transform="matrix(10.4,0,0,10.4,72.4,426.6)" />
<use xlink:href="#f2_2h" transform="matrix(10.4,0,0,10.4,77.7,426.6)" />
<use xlink:href="#f2_24" transform="matrix(10.4,0,0,10.4,85.7,426.6)" />
<use xlink:href="#f2_24" transform="matrix(10.4,0,0,10.4,89.2,426.6)" />
<use xlink:href="#f2_c" transform="matrix(10.4,0,0,10.4,92.8,426.6)" />
</g>
<path d="M148.8,421.7h11.7M212,412.3v14.8m15.6,-14.8v14.8" class="g5_88" />
<g fill="#000000" >
<use xlink:href="#f2_1y" transform="matrix(10.5,0,0,10.5,119.2,426)" />
<use xlink:href="#f2_2a" transform="matrix(10.5,0,0,10.5,127.2,426)" />
<use xlink:href="#f2_2e" transform="matrix(10.5,0,0,10.5,136.1,426)" />
<use xlink:href="#f2_27" transform="matrix(10.5,0,0,10.5,186,426)" />
<use xlink:href="#f2_2a" transform="matrix(10.5,0,0,10.5,189.5,426)" />
<use xlink:href="#f2_22" transform="matrix(10.5,0,0,10.5,198.4,426)" />
<use xlink:href="#f2_k" transform="matrix(10.5,0,0,10.5,250.2,426)" />
<use xlink:href="#f3_x" transform="matrix(10.5,0,0,10.5,169.5,426)" />
<use xlink:href="#f3_f" transform="matrix(10.5,0,0,10.5,235.7,426)" />
<use xlink:href="#f4_2k" transform="matrix(10.5,0,0,10.5,149.8,415.5)" />
<use xlink:href="#f4_2j" transform="matrix(10.5,0,0,10.5,215.4,426)" />
<use xlink:href="#f4_2j" transform="matrix(10.5,0,0,10.5,150,441.5)" />
<use xlink:href="#f1_k" transform="matrix(10.4,0,0,10.4,85.6,495.5)" />
<use xlink:href="#f1_p" transform="matrix(10.4,0,0,10.4,94.5,495.5)" />
<use xlink:href="#f1_h" transform="matrix(10.4,0,0,10.4,103.6,495.5)" />
<use xlink:href="#f2_b" transform="matrix(10.4,0,0,10.4,139.1,495.5)" />
<use xlink:href="#f2_24" transform="matrix(10.4,0,0,10.4,144.5,495.5)" />
<use xlink:href="#f2_c" transform="matrix(10.4,0,0,10.4,148,495.5)" />
<use xlink:href="#f4_2k" transform="matrix(10.4,0,0,10.4,171.6,495.5)" />
<use xlink:href="#f2_w" transform="matrix(10.4,0,0,10.4,186.4,495.5)" />
<use xlink:href="#f2_2f" transform="matrix(10.4,0,0,10.4,202.5,495.5)" />
<use xlink:href="#f2_1w" transform="matrix(10.4,0,0,10.4,207,495.5)" />
<use xlink:href="#f2_29" transform="matrix(10.4,0,0,10.4,215.8,495.5)" />
<use xlink:href="#f4_2j" transform="matrix(10.4,0,0,10.4,231.4,495.5)" />
<use xlink:href="#f2_99" transform="matrix(10.4,0,0,10.4,246.2,495.5)" />
<use xlink:href="#f2_k" transform="matrix(10.4,0,0,10.4,261.9,495.5)" />
<use xlink:href="#f2_e" transform="matrix(10.4,0,0,10.4,277.5,495.5)" />
<use xlink:href="#f4_1y" transform="matrix(10.4,0,0,10.4,293.5,495.5)" />
<use xlink:href="#f2_k" transform="matrix(5.3,0,0,5.3,333.7,482.7)" />
<use xlink:href="#f2_2f" transform="matrix(7.4,0,0,7.4,313.7,487.7)" />
<use xlink:href="#f2_1w" transform="matrix(7.4,0,0,7.4,316.8,487.7)" />
<use xlink:href="#f2_29" transform="matrix(7.4,0,0,7.4,323.1,487.7)" />
<use xlink:href="#f3_h" transform="matrix(5.3,0,0,5.3,329.4,482.7)" />
<use xlink:href="#f4_2j" transform="matrix(7.4,0,0,7.4,341,487.7)" />
<use xlink:href="#f4_20" transform="matrix(10.5,0,0,10.5,303.3,495)" />
<use xlink:href="#f2_b" transform="matrix(10.4,0,0,10.4,373.8,495.5)" />
<use xlink:href="#f2_24" transform="matrix(10.4,0,0,10.4,379.1,495.5)" />
<use xlink:href="#f2_24" transform="matrix(10.4,0,0,10.4,382.7,495.5)" />
<use xlink:href="#f2_c" transform="matrix(10.4,0,0,10.4,386.2,495.5)" />
</g>
<path d="M448.8,492.7h35.5m36.3,0h40.7" class="g6_88" />
<g fill="#000000" >
<use xlink:href="#f2_2e" transform="matrix(10.5,0,0,10.5,449.6,486.5)" />
<use xlink:href="#f2_24" transform="matrix(10.5,0,0,10.5,457.6,486.5)" />
<use xlink:href="#f2_29" transform="matrix(10.5,0,0,10.5,461.2,486.5)" />
<use xlink:href="#f2_1y" transform="matrix(10.5,0,0,10.5,521.5,486.5)" />
<use xlink:href="#f2_2a" transform="matrix(10.5,0,0,10.5,529.6,486.5)" />
<use xlink:href="#f2_2e" transform="matrix(10.5,0,0,10.5,538.5,486.5)" />
<use xlink:href="#f4_2j" transform="matrix(10.5,0,0,10.5,473.8,486.5)" />
<use xlink:href="#f4_2j" transform="matrix(10.5,0,0,10.5,551,486.5)" />
<use xlink:href="#f4_2k" transform="matrix(10.5,0,0,10.5,412.7,496.9)" />
<use xlink:href="#f4_1y" transform="matrix(10.5,0,0,10.5,506.5,496.9)" />
<use xlink:href="#f4_2j" transform="matrix(10.5,0,0,10.5,461.8,507.7)" />
<use xlink:href="#f4_2j" transform="matrix(10.5,0,0,10.5,536.3,507.7)" />
<use xlink:href="#f3_x" transform="matrix(10.5,0,0,10.5,431.1,496.9)" />
<use xlink:href="#f3_f" transform="matrix(10.5,0,0,10.5,491.5,496.9)" />
<use xlink:href="#f2_b" transform="matrix(10.4,0,0,10.4,132,569)" />
<use xlink:href="#f2_24" transform="matrix(10.4,0,0,10.4,137.3,569)" />
<use xlink:href="#f2_24" transform="matrix(10.4,0,0,10.4,140.8,569)" />
<use xlink:href="#f2_24" transform="matrix(10.4,0,0,10.4,144.4,569)" />
<use xlink:href="#f2_c" transform="matrix(10.4,0,0,10.4,147.9,569)" />
</g>
<path d="M225.1,553.1h8.6" class="g7_88" />
<g fill="#000000" >
<use xlink:href="#f4_2j" transform="matrix(7.3,0,0,7.3,226.1,548.7)" />
<use xlink:href="#f4_2k" transform="matrix(7.3,0,0,7.3,226,564.9)" />
<use xlink:href="#f4_2j" transform="matrix(10.4,0,0,10.4,174.4,571.7)" />
<use xlink:href="#f4_2k" transform="matrix(10.4,0,0,10.4,206.7,571.7)" />
<use xlink:href="#f4_20" transform="matrix(10.4,0,0,10.4,214.7,571.7)" />
<use xlink:href="#f4_1y" transform="matrix(10.4,0,0,10.4,260.6,571.7)" />
<use xlink:href="#f3_f" transform="matrix(10.4,0,0,10.4,190.8,571.7)" />
<use xlink:href="#f3_x" transform="matrix(10.4,0,0,10.4,244.3,571.7)" />
<use xlink:href="#f2_b" transform="matrix(10.4,0,0,10.4,369.2,569)" />
<use xlink:href="#f2_24" transform="matrix(10.4,0,0,10.4,374.5,569)" />
<use xlink:href="#f2_2h" transform="matrix(10.4,0,0,10.4,378.1,569)" />
<use xlink:href="#f2_c" transform="matrix(10.4,0,0,10.4,386.1,569)" />
<use xlink:href="#f2_l" transform="matrix(10.4,0,0,10.4,409.9,569)" />
<use xlink:href="#f4_2k" transform="matrix(10.4,0,0,10.4,418.7,569)" />
<use xlink:href="#f2_w" transform="matrix(10.4,0,0,10.4,433.6,569)" />
<use xlink:href="#f2_2e" transform="matrix(10.4,0,0,10.4,449.9,569)" />
<use xlink:href="#f2_24" transform="matrix(10.4,0,0,10.4,457.8,569)" />
<use xlink:href="#f2_29" transform="matrix(10.4,0,0,10.4,461.4,569)" />
<use xlink:href="#f4_2j" transform="matrix(10.4,0,0,10.4,477,569)" />
<use xlink:href="#f1_k" transform="matrix(10.4,0,0,10.4,85.6,633.9)" />
<use xlink:href="#f1_q" transform="matrix(10.4,0,0,10.4,94.5,633.9)" />
<use xlink:href="#f1_h" transform="matrix(10.4,0,0,10.4,103.6,633.9)" />
<use xlink:href="#f2_b" transform="matrix(10.4,0,0,10.4,139.1,633.9)" />
<use xlink:href="#f2_24" transform="matrix(10.4,0,0,10.4,144.5,633.9)" />
<use xlink:href="#f2_c" transform="matrix(10.4,0,0,10.4,148,633.9)" />
</g>
<path d="M269.9,627.7h12.3" class="g8_88" />
<g fill="#000000" >
<use xlink:href="#f2_2e" transform="matrix(10.5,0,0,10.5,231,631.9)" />
<use xlink:href="#f2_20" transform="matrix(10.5,0,0,10.5,239,631.9)" />
<use xlink:href="#f2_1y" transform="matrix(10.5,0,0,10.5,248,631.9)" />
<use xlink:href="#f3_4o" transform="matrix(10.5,0,0,10.5,260.3,622.2)" />
<use xlink:href="#f3_54" transform="matrix(10.5,0,0,10.5,284,622.2)" />
<use xlink:href="#f3_x" transform="matrix(10.5,0,0,10.5,213.8,631.9)" />
<use xlink:href="#f3_4p" transform="matrix(10.5,0,0,10.5,260.3,634.5)" />
<use xlink:href="#f3_55" transform="matrix(10.5,0,0,10.5,284,634.5)" />
<use xlink:href="#f3_4q" transform="matrix(10.5,0,0,10.5,260.3,641.1)" />
<use xlink:href="#f3_56" transform="matrix(10.5,0,0,10.5,284,641.1)" />
<use xlink:href="#f4_2k" transform="matrix(10.5,0,0,10.5,271.2,621.5)" />
<use xlink:href="#f4_1y" transform="matrix(10.5,0,0,10.5,173.3,631.9)" />
<use xlink:href="#f4_2j" transform="matrix(10.5,0,0,10.5,187.3,631.9)" />
<use xlink:href="#f4_2k" transform="matrix(10.5,0,0,10.5,195.3,631.9)" />
<use xlink:href="#f4_2j" transform="matrix(10.5,0,0,10.5,271.4,644.3)" />
<use xlink:href="#f2_b" transform="matrix(10.4,0,0,10.4,135.5,683.4)" />
<use xlink:href="#f2_24" transform="matrix(10.4,0,0,10.4,140.8,683.4)" />
<use xlink:href="#f2_24" transform="matrix(10.4,0,0,10.4,144.3,683.4)" />
<use xlink:href="#f2_c" transform="matrix(10.4,0,0,10.4,147.9,683.4)" />
<use xlink:href="#f2_b" transform="matrix(10.4,0,0,10.4,171.6,683.4)" />
<use xlink:href="#f2_k" transform="matrix(10.4,0,0,10.4,176.9,683.4)" />
<use xlink:href="#f2_99" transform="matrix(10.4,0,0,10.4,192.6,683.4)" />
<use xlink:href="#f4_20" transform="matrix(10.4,0,0,10.4,208.3,683.4)" />
<use xlink:href="#f2_c" transform="matrix(10.4,0,0,10.4,217.1,683.4)" />
<use xlink:href="#f2_m" transform="matrix(7.4,0,0,7.4,222.4,678.1)" />
<use xlink:href="#f2_2f" transform="matrix(10.4,0,0,10.4,235.4,683.4)" />
<use xlink:href="#f2_1w" transform="matrix(10.4,0,0,10.4,239.8,683.4)" />
<use xlink:href="#f2_29" transform="matrix(10.4,0,0,10.4,248.7,683.4)" />
<use xlink:href="#f4_2k" transform="matrix(10.4,0,0,10.4,264.4,683.4)" />
<use xlink:href="#f2_w" transform="matrix(10.4,0,0,10.4,279.2,683.4)" />
<use xlink:href="#f2_b" transform="matrix(10.4,0,0,10.4,295.5,683.4)" />
<use xlink:href="#f2_k" transform="matrix(10.4,0,0,10.4,300.8,683.4)" />
<use xlink:href="#f2_99" transform="matrix(10.4,0,0,10.4,316.4,683.4)" />
<use xlink:href="#f4_20" transform="matrix(10.4,0,0,10.4,332.2,683.4)" />
<use xlink:href="#f4_2j" transform="matrix(7.4,0,0,7.4,341,678.1)" />
<use xlink:href="#f2_c" transform="matrix(10.4,0,0,10.4,346.7,683.4)" />
<use xlink:href="#f2_m" transform="matrix(7.4,0,0,7.4,352,678.1)" />
<use xlink:href="#f2_b" transform="matrix(10.4,0,0,10.4,132,717.3)" />
<use xlink:href="#f2_24" transform="matrix(10.4,0,0,10.4,137.3,717.3)" />
<use xlink:href="#f2_24" transform="matrix(10.4,0,0,10.4,140.8,717.3)" />
<use xlink:href="#f2_24" transform="matrix(10.4,0,0,10.4,144.4,717.3)" />
<use xlink:href="#f2_c" transform="matrix(10.4,0,0,10.4,147.9,717.3)" />
<use xlink:href="#f4_2k" transform="matrix(10.4,0,0,10.4,171.6,717.3)" />
<use xlink:href="#f2_w" transform="matrix(10.4,0,0,10.4,186.3,717.3)" />
<use xlink:href="#f4_2j" transform="matrix(10.4,0,0,10.4,202.4,717.3)" />
<use xlink:href="#f2_l" transform="matrix(7.4,0,0,7.4,210.5,712)" />
<use xlink:href="#f2_h" transform="matrix(10.4,0,0,10.4,216.7,717.3)" />
<use xlink:href="#f5_l" transform="matrix(12,0,0,12,663.1,1070.2)" />
<use xlink:href="#f5_k" transform="matrix(12,0,0,12,673.3,1070.2)" />
</g>
<g fill="#0080FF" fill-opacity="0.5" >
<use xlink:href="#f0_1c" transform="matrix(38.3,0,0,38.3,183.6,1079.4)" />
<use xlink:href="#f0_21" transform="matrix(38.3,0,0,38.3,216.1,1079.4)" />
<use xlink:href="#f0_1x" transform="matrix(38.3,0,0,38.3,248.6,1079.4)" />
<use xlink:href="#f0_2e" transform="matrix(38.3,0,0,38.3,281.1,1079.4)" />
<use xlink:href="#f0_2a" transform="matrix(38.3,0,0,38.3,300.6,1079.4)" />
<use xlink:href="#f0_17" transform="matrix(38.3,0,0,38.3,333.1,1079.4)" />
<use xlink:href="#f0_2h" transform="matrix(38.3,0,0,38.3,378.6,1079.4)" />
<use xlink:href="#f0_25" transform="matrix(38.3,0,0,38.3,411.1,1079.4)" />
<use xlink:href="#f0_20" transform="matrix(38.3,0,0,38.3,424,1079.4)" />
<use xlink:href="#f0_21" transform="matrix(38.3,0,0,38.3,456.5,1079.4)" />
<use xlink:href="#f0_i" transform="matrix(38.3,0,0,38.3,489.1,1079.4)" />
<use xlink:href="#f0_25" transform="matrix(38.3,0,0,38.3,505.3,1079.4)" />
<use xlink:href="#f0_2a" transform="matrix(38.3,0,0,38.3,518.3,1079.4)" />
</g>
<defs>
<path d="M593,101c0,0,182,0,279,112c0,0,98,113,98,318c0,0,0,196,-98,308c0,0,-98,112,-277,112c0,0,-181,0,-279,-110c0,0,-99,-111,-99,-310c0,0,0,-198,100,-314c0,0,99,-116,276,-116Zm0,-115c0,0,-162,0,-279,65c0,0,-118,66,-180,190c0,0,-62,124,-62,290c0,0,0,252,138,394c0,0,138,142,385,142c0,0,160,0,278,-64c0,0,118,-64,180,-185c0,0,62,-122,62,-287c0,0,0,-165,-63,-289c0,0,-63,-124,-181,-190c0,0,-118,-66,-278,-66Z" 
id="f0_1f"
transform="scale(0.001,-0.001)" />

<path d="M106,0V635c0,0,0,141,-5,173H228c0,0,1,-4,2,-21c0,0,1,-16,2,-37c0,0,1,-22,2,-81h2c0,0,47,84,108,119c0,0,60,34,151,34c0,0,132,0,194,-66c0,0,61,-66,61,-218V0H615V512c0,0,0,80,-15,124c0,0,-16,44,-50,63c0,0,-35,20,-101,20c0,0,-97,0,-153,-67c0,0,-56,-66,-56,-184V0Z" 
id="f0_2a"
transform="scale(0.001,-0.001)" />

<path d="M103,0V1107H237V0Z" 
id="f0_28"
transform="scale(0.001,-0.001)" />

<path d="M102,0V808H236V0Zm0,979v128H236V979Z" 
id="f0_25"
transform="scale(0.001,-0.001)" />

<path d="M643,478c0,0,-11,128,-65,187c0,0,-54,59,-154,59c0,0,-98,0,-155,-66c0,0,-57,-65,-62,-180ZM431,-14c0,0,-179,0,-272,106c0,0,-94,107,-94,317c0,0,0,200,94,307c0,0,93,106,267,106c0,0,356,0,356,-429V375H206c0,0,0,-138,57,-213c0,0,58,-75,168,-75c0,0,87,0,140,35c0,0,53,35,71,88L760,177c0,0,-72,-191,-329,-191Z" 
id="f0_21"
transform="scale(0.001,-0.001)" />

<path d="M17,0L304,415L31,808H179L380,493L580,808H730L457,417L747,0H598L380,331L162,0Z" 
id="f0_2k"
transform="scale(0.001,-0.001)" />

<path d="M339,87c0,0,74,0,132,34c0,0,57,33,90,91c0,0,34,59,34,121v66L448,396c0,0,-95,-2,-144,-19c0,0,-49,-18,-75,-55c0,0,-26,-38,-26,-98c0,0,0,-65,35,-101c0,0,36,-36,101,-36ZM309,-14c0,0,-122,0,-183,64c0,0,-61,64,-61,176c0,0,0,125,82,192c0,0,83,67,266,72l182,3v44c0,0,0,98,-42,141c0,0,-42,43,-132,43c0,0,-90,0,-131,-31c0,0,-41,-31,-49,-98L101,604c0,0,34,218,323,218c0,0,153,0,229,-70c0,0,77,-69,77,-202V202c0,0,0,-59,16,-90c0,0,16,-30,60,-30c0,0,19,0,44,5V4C850,4,799,-7,746,-7c0,0,-75,0,-109,38c0,0,-33,40,-38,124h-4C595,155,543,62,475,24c0,0,-68,-38,-166,-38Z" 
id="f0_1x"
transform="scale(0.001,-0.001)" />

<path d="M106,0V635c0,0,0,141,-5,173H228c0,0,1,-4,2,-21c0,0,1,-16,2,-37c0,0,1,-22,2,-81h2c0,0,44,86,100,120c0,0,56,33,136,33c0,0,92,0,145,-36c0,0,54,-37,75,-117h2c0,0,42,82,101,117c0,0,59,36,143,36c0,0,123,0,178,-66c0,0,56,-67,56,-218V0H1039V512c0,0,0,117,-32,162c0,0,-32,45,-116,45c0,0,-88,0,-136,-66c0,0,-49,-65,-49,-185V0H573V512c0,0,0,117,-32,162c0,0,-32,45,-116,45c0,0,-86,0,-136,-66c0,0,-50,-66,-50,-185V0Z" 
id="f0_29"
transform="scale(0.001,-0.001)" />

<path d="M453,84c0,0,100,0,146,74c0,0,46,73,46,247c0,0,0,169,-46,241c0,0,-45,73,-145,73c0,0,-80,0,-125,-34c0,0,-45,-34,-68,-105c0,0,-24,-71,-24,-186c0,0,0,-159,51,-234c0,0,51,-76,165,-76ZM103,-316V643c0,0,0,124,-5,165H228c0,0,1,-3,3,-22c0,0,1,-18,3,-56c0,0,2,-38,2,-52h3c0,0,36,75,94,110c0,0,59,34,156,34c0,0,149,0,223,-100c0,0,74,-100,74,-314c0,0,0,-422,-297,-422c0,0,-187,0,-251,140h-4c0,0,3,-6,3,-126V-316Z" 
id="f0_2c"
transform="scale(0.001,-0.001)" />

<path d="M420,84c0,0,121,0,173,78c0,0,52,77,52,243c0,0,0,167,-50,243c0,0,-50,76,-167,76c0,0,-118,0,-170,-78c0,0,-53,-77,-53,-241c0,0,0,-160,52,-241c0,0,52,-80,163,-80Zm1,-98c0,0,-176,0,-267,107c0,0,-90,108,-90,312c0,0,0,417,362,417c0,0,185,0,272,-102c0,0,88,-101,88,-315c0,0,0,-212,-94,-316C692,89,599,-14,421,-14Z" 
id="f0_2b"
transform="scale(0.001,-0.001)" />

<path d="M278,-11c0,0,-162,0,-162,182V710H23v98h99l39,181h90V808H400V710H251V200c0,0,0,-58,19,-82c0,0,19,-23,66,-23c0,0,27,0,77,10V6c0,0,-66,-17,-135,-17Z" 
id="f0_2g"
transform="scale(0.001,-0.001)" />

<path d="M367,0V750H106V903c0,0,3,-1,8,-1c26,0,105,4,171,45c0,0,79,49,121,141H581V0Z" 
id="f1_k"
transform="scale(0.001,-0.001)" />

<path d="M39,0V0c0,0,0,149,75,256c0,0,76,107,284,253c0,0,93,65,131,119c0,0,38,54,38,121c0,0,0,72,-42,116c0,0,-42,44,-110,44c0,0,-74,0,-115,-55c0,0,-41,-55,-38,-150H53c0,0,-5,177,93,281c0,0,98,103,270,103c0,0,161,0,263,-95c0,0,101,-96,101,-247c0,0,0,-124,-57,-205c0,0,-58,-81,-217,-183c0,0,-147,-93,-201,-169v-1H780V0Z" 
id="f1_l"
transform="scale(0.001,-0.001)" />

<path d="M98,0V222H327V0Z" 
id="f1_h"
transform="scale(0.001,-0.001)" />

<path d="M365,-315c0,0,-136,187,-199,359c0,0,-62,172,-62,359c0,0,0,186,62,358c0,0,63,172,199,360h92c0,0,-110,-192,-160,-365c0,0,-51,-172,-51,-353c0,0,0,-183,51,-355c0,0,50,-172,160,-363Z" 
id="f2_b"
transform="scale(0.001,-0.001)" />

<path d="M104,0V799H238V0Zm-2,946v152H239V946Z" 
id="f2_24"
transform="scale(0.001,-0.001)" />

<path d="M52,-315c0,0,109,192,160,363c0,0,50,173,50,354c0,0,0,183,-50,355c0,0,-51,173,-160,364h92c0,0,135,-188,198,-360c0,0,63,-172,63,-359c0,0,0,-187,-63,-359c0,0,-63,-171,-198,-358Z" 
id="f2_c"
transform="scale(0.001,-0.001)" />

<path d="M0,214v74H784V214ZM0,494v72H784V494Z" 
id="f3_x"
transform="scale(0.001,-0.001)" />

<path d="M0,356v74H784V356Z" 
id="f3_h"
transform="scale(0.001,-0.001)" />

<path d="M355,0V355H0v72H355V784h72V427H782V355H427V0Z" 
id="f3_f"
transform="scale(0.001,-0.001)" />

<path d="M39,0V0c0,0,0,170,84,277c0,0,85,108,317,236c0,0,113,62,154,115c0,0,41,52,41,134c0,0,0,86,-62,141c0,0,-61,54,-156,54c0,0,-101,0,-158,-68c0,0,-57,-68,-60,-194H67c0,0,-2,178,95,279c0,0,98,101,273,101c0,0,149,0,245,-89c0,0,94,-88,94,-228c0,0,0,-118,-60,-195c0,0,-61,-76,-229,-169C485,394,303,294,237,212c0,0,-28,-36,-46,-81H774V0Z" 
id="f2_l"
transform="scale(0.001,-0.001)" />

<path d="M424,-28c0,0,-180,0,-272,86c0,0,-92,87,-100,266H192c0,0,12,-126,66,-180c0,0,55,-54,170,-54c0,0,100,0,163,57c0,0,64,57,64,147c0,0,0,94,-61,149c0,0,-52,48,-135,54c0,0,-38,2,-72,2c0,0,-34,0,-45,-3V613c0,0,17,-3,51,-3c0,0,35,0,68,4c0,0,66,8,106,43c0,0,55,45,55,125c0,0,0,77,-58,125c0,0,-58,48,-148,48c0,0,-96,0,-147,-58c0,0,-51,-59,-56,-175H82c0,0,0,168,89,260c0,0,88,93,250,93c0,0,153,0,247,-77c0,0,94,-76,94,-202c0,0,0,-124,-95,-201c0,0,-18,-15,-39,-27c0,0,39,-17,69,-41c0,0,101,-79,101,-214c0,0,0,-151,-105,-246c0,0,-104,-95,-269,-95Z" 
id="f2_m"
transform="scale(0.001,-0.001)" />

<path d="M393,-20c0,0,-169,0,-252,65c0,0,-83,67,-92,210H178c0,0,10,-85,61,-123c0,0,50,-38,154,-38c0,0,90,0,136,34c0,0,47,35,47,100c0,0,0,42,-31,64c0,0,-30,21,-123,43L283,368c0,0,-112,27,-160,75c0,0,-48,48,-48,135c0,0,0,112,80,178c0,0,81,66,218,66c0,0,140,0,222,-68c0,0,82,-67,88,-187H557c0,0,-6,67,-55,103c0,0,-48,37,-129,37c0,0,-84,0,-127,-29c0,0,-44,-29,-44,-85c0,0,0,-43,31,-65c0,0,30,-21,121,-43L493,452c0,0,117,-28,167,-78c0,0,49,-49,49,-138c0,0,0,-119,-86,-188c0,0,-85,-68,-230,-68Z" 
id="f2_2e"
transform="scale(0.001,-0.001)" />

<path d="M99,0V799H226V681l30,39c0,0,87,102,219,102c0,0,132,0,203,-71c0,0,72,-72,72,-204V0H616V502c0,0,0,105,-41,151c0,0,-40,47,-132,47c0,0,-97,0,-154,-73c0,0,-56,-74,-56,-199V0Z" 
id="f2_29"
transform="scale(0.001,-0.001)" />

<path d="M394,-20c0,0,-159,0,-253,113c0,0,-95,114,-95,307c0,0,0,193,98,308c0,0,98,114,264,114c0,0,144,0,230,-78c0,0,85,-79,91,-217H600c0,0,-8,86,-59,133c0,0,-52,47,-138,47c0,0,-101,0,-159,-82c0,0,-58,-82,-58,-225c0,0,0,-152,54,-229c0,0,53,-77,159,-77c0,0,79,0,132,50c0,0,52,51,69,143H729C729,287,709,137,623,58c0,0,-86,-78,-229,-78Z" 
id="f2_1y"
transform="scale(0.001,-0.001)" />

<path d="M424,94c0,0,107,0,169,83c0,0,63,83,63,223c0,0,0,140,-63,224c0,0,-62,83,-169,83c0,0,-106,0,-168,-83c0,0,-62,-84,-62,-224c0,0,0,-140,62,-223c0,0,62,-83,168,-83Zm0,-114c0,0,-165,0,-268,115C156,95,54,211,54,400c0,0,0,189,102,306c0,0,103,116,268,116c0,0,168,0,270,-116c0,0,102,-117,102,-306c0,0,0,-189,-102,-305C694,95,592,-20,424,-20Z" 
id="f2_2a"
transform="scale(0.001,-0.001)" />

<path d="M406,0V763H155V870h2c16,0,114,2,178,48c0,0,70,51,104,157H549V0Z" 
id="f2_k"
transform="scale(0.001,-0.001)" />

<path d="M17,0L389,412L201,800H376L500,518L742,800H904L554,410L750,0H580L448,303L187,0Z" 
id="f4_2j"
transform="scale(0.001,-0.001)" />

<path d="M99,-328c0,0,-46,0,-76,13l25,123c0,0,29,-14,81,-14c0,0,47,0,76,31c0,0,28,31,106,162L185,800H339L415,141L769,800H918L456,0C456,0,329,-216,269,-272c0,0,-61,-56,-170,-56Z" 
id="f4_2k"
transform="scale(0.001,-0.001)" />

<path d="M398,-20c0,0,-133,0,-209,72c0,0,-76,74,-76,202v3c0,0,0,27,4,60c0,0,4,33,10,63c0,0,43,208,168,326c0,0,126,117,306,117c0,0,131,0,192,-75c0,0,49,-61,50,-168l-3,-52H710c0,0,4,87,-33,131c0,0,-37,45,-113,45c0,0,-110,0,-184,-81c0,0,-75,-82,-107,-238c0,0,-6,-28,-9,-56c0,0,-3,-28,-3,-50c0,0,0,-88,43,-136c0,0,43,-48,121,-48c0,0,76,0,137,49c0,0,61,48,92,136H788C788,280,737,138,633,58c0,0,-103,-78,-235,-78Z" 
id="f4_1y"
transform="scale(0.001,-0.001)" />

<path d="M748,462c0,0,3,31,3,63c0,0,0,86,-45,132c0,0,-46,45,-134,45c0,0,-100,0,-180,-85c0,0,-58,-63,-90,-155ZM419,-20c0,0,-136,0,-213,73c0,0,-77,74,-78,206c0,0,0,25,4,58c0,0,4,32,10,63c0,0,44,208,169,326c0,0,125,117,305,117c0,0,128,0,198,-73c0,0,71,-73,71,-207c0,0,1,-100,-24,-189H278l-4,-25c0,0,-3,-30,-3,-55c0,0,0,-90,44,-134c0,0,44,-45,133,-45c0,0,87,0,156,44c0,0,68,45,95,117H830C830,256,782,126,674,52c0,0,-108,-72,-255,-72Z" 
id="f4_20"
transform="scale(0.001,-0.001)" />

<path d="M649,461c0,0,-6,111,-55,172c0,0,-55,69,-160,69c0,0,-106,0,-170,-79c0,0,-50,-62,-60,-162ZM425,-20c0,0,-169,0,-266,106c0,0,-97,107,-97,297c0,0,0,201,102,320c0,0,103,119,276,119c0,0,157,0,253,-116c0,0,96,-117,96,-306l-1,-48H204c0,0,8,-119,54,-182c0,0,57,-76,180,-76c0,0,77,0,134,43c0,0,58,43,70,110H775C775,247,746,116,656,47c0,0,-90,-67,-231,-67Z" 
id="f2_20"
transform="scale(0.001,-0.001)" />

<path d="M412,-328c0,0,-195,96,-303,284C109,-44,0,142,0,365c0,0,0,232,114,422c0,0,114,191,298,273v-31c0,0,-92,-51,-151,-139c0,0,-59,-88,-88,-223c0,0,-29,-136,-29,-282c0,0,0,-167,27,-301c0,0,26,-133,82,-221c0,0,55,-89,159,-159v-32Z" 
id="f3_c"
transform="scale(0.001,-0.001)" />

<path d="M34,-328v32c0,0,92,50,151,138c0,0,59,88,88,222c0,0,29,135,29,283c0,0,0,165,-27,300c0,0,-26,134,-82,222c0,0,-56,89,-159,160v31c0,0,194,-96,303,-284c0,0,108,-187,108,-410c0,0,0,-232,-114,-422c0,0,-114,-191,-297,-272Z" 
id="f3_d"
transform="scale(0.001,-0.001)" />

<path d="M292,-9c0,0,-88,0,-124,38c0,0,-36,39,-36,134V689H22V799H132v224H266V799H392V689H266V163c0,0,0,-27,21,-43c0,0,21,-15,57,-15h48V1C392,1,324,-9,292,-9Z" 
id="f2_2f"
transform="scale(0.001,-0.001)" />

<path d="M335,90c0,0,106,0,179,57c0,0,50,41,67,91c0,0,3,10,4,31c0,0,3,21,3,47v87c0,0,-38,-18,-83,-25L381,360c0,0,-97,-13,-142,-45c0,0,-44,-31,-44,-86c0,0,0,-67,36,-103c0,0,37,-36,104,-36ZM309,-20c0,0,-117,0,-186,61c0,0,-68,63,-68,169c0,0,0,108,64,171c0,0,65,64,189,79l183,23c0,0,22,3,42,8c0,0,26,7,40,27c0,0,15,20,15,51v6c0,0,0,64,-49,101c0,0,-48,36,-135,36c0,0,-83,0,-130,-38c0,0,-46,-39,-56,-115H94c0,0,10,131,92,197c0,0,83,66,238,66c0,0,145,0,222,-63c0,0,76,-63,76,-184V137c0,0,0,-21,12,-33c0,0,12,-12,33,-12c0,0,6,0,18,1c0,0,11,2,25,5V1c0,0,-20,-7,-41,-11c0,0,-22,-5,-37,-5c0,0,-76,0,-110,41c0,0,-22,28,-32,79c0,0,-15,-19,-34,-36c0,0,-101,-89,-247,-89Z" 
id="f2_1w"
transform="scale(0.001,-0.001)" />

<path d="M102,0L329,1097H464L333,467L745,800H921L546,501L769,0H595L429,409L300,306L237,0Z" 
id="f4_26"
transform="scale(0.001,-0.001)" />

<path d="M415,-27c0,0,-177,0,-274,91c0,0,-98,93,-100,265H249c0,0,2,-92,42,-140c0,0,40,-48,115,-48c0,0,73,0,117,48c0,0,45,49,45,128c0,0,0,70,-45,112c0,0,-39,37,-99,41c0,0,-34,3,-63,3c0,0,-1,0,-4,0c-9,0,-26,0,-32,-2V629c0,0,4,-1,18,-1c5,0,12,0,20,1c0,0,29,1,61,5c0,0,51,6,81,35c0,0,37,36,37,102c0,0,0,64,-37,103c0,0,-36,39,-97,39c0,0,-70,0,-108,-44c0,0,-38,-45,-40,-127H64c0,0,2,166,95,256c0,0,94,90,264,90c0,0,146,0,239,-85c0,0,93,-85,93,-219c0,0,0,-115,-96,-189L630,575c0,0,37,-14,65,-37c0,0,93,-72,93,-218c0,0,0,-160,-101,-254c0,0,-101,-93,-272,-93Z" 
id="f1_m"
transform="scale(0.001,-0.001)" />

<path d="M417,-328c0,0,-125,17,-203,101c0,0,-78,83,-78,189c0,0,0,49,17,120c0,0,17,72,17,108c0,0,0,55,-42,100c0,0,-42,45,-128,61v29c0,0,80,15,125,59c0,0,44,45,44,98c0,0,0,39,-17,110c0,0,-18,71,-18,122c0,0,0,105,79,191c0,0,79,85,203,100v-28c0,0,-85,-15,-129,-65c0,0,-45,-49,-45,-114c0,0,0,-45,15,-117c0,0,15,-72,15,-120c0,0,0,-74,-53,-142c0,0,-53,-68,-158,-106c0,0,107,-44,160,-111c0,0,52,-67,52,-141c0,0,0,-45,-15,-117c0,0,-15,-73,-15,-117c0,0,0,-64,43,-113c0,0,42,-49,131,-71v-26Z" 
id="f3_2n"
transform="scale(0.001,-0.001)" />

<path d="M160,-328v29c0,0,85,15,129,64c0,0,44,48,44,114c0,0,0,45,-14,117c0,0,-15,71,-15,120c0,0,0,73,53,142c0,0,53,68,158,106c0,0,-108,43,-160,110c0,0,-52,67,-52,141c0,0,0,45,15,118c0,0,14,73,14,117c0,0,0,64,-42,113c0,0,-42,49,-131,71v26c0,0,125,-17,203,-101c0,0,78,-84,78,-188c0,0,0,-50,-17,-122c0,0,-17,-72,-17,-109c0,0,0,-54,42,-99c0,0,41,-45,128,-61V351c0,0,-81,-14,-125,-59c0,0,-44,-45,-44,-97c0,0,0,-39,17,-111c0,0,18,-71,18,-121c0,0,0,-105,-79,-190c0,0,-79,-86,-203,-101Z" 
id="f3_2p"
transform="scale(0.001,-0.001)" />

<path d="M103,0V1097H237V0Z" 
id="f2_27"
transform="scale(0.001,-0.001)" />

<path d="M418,95c0,0,98,0,158,73c0,0,59,73,59,193c0,0,0,170,-54,254c0,0,-54,85,-163,85c0,0,-113,0,-165,-72c0,0,-52,-71,-52,-227c0,0,0,-147,57,-227c0,0,56,-79,160,-79ZM394,-336c0,0,-136,0,-216,62c0,0,-79,63,-96,182H219c0,0,12,-64,57,-98c0,0,45,-35,116,-35c0,0,116,0,176,73c0,0,61,73,61,211V85l-1,-1C628,84,545,-20,412,-20c0,0,-161,0,-256,118c0,0,-94,120,-94,324c0,0,0,179,93,290c0,0,93,110,244,110c0,0,144,0,228,-124l10,-14V799H763V59c0,0,-1,-201,-91,-298c0,0,-91,-97,-278,-97Z" 
id="f2_22"
transform="scale(0.001,-0.001)" />

<path d="M62,-123V268c0,0,0,230,56,452c0,0,47,190,134,334c0,0,87,144,204,242c0,0,85,73,194,119l18,-16c0,0,-211,-145,-335,-339c0,0,-98,-156,-149,-374c0,0,-50,-218,-50,-403V-123Z" 
id="f3_4o"
transform="scale(0.001,-0.001)" />

<path d="M617,-123V283c0,0,0,236,-63,459c0,0,-63,223,-188,392c0,0,-108,146,-282,265l17,16c0,0,180,-76,320,-248c0,0,139,-172,204,-417c0,0,64,-245,64,-482V-123Z" 
id="f3_54"
transform="scale(0.001,-0.001)" />

<path d="M62,-123V1415h72V-123Z" 
id="f3_4p"
transform="scale(0.001,-0.001)" />

<path d="M617,-123V1415h72V-123Z" 
id="f3_55"
transform="scale(0.001,-0.001)" />

<path d="M650,-123c0,0,-180,75,-319,246c0,0,-140,172,-205,418c0,0,-64,245,-64,481v393h72V1007c0,0,0,-236,63,-459c0,0,63,-223,189,-391c0,0,108,-145,282,-265l-18,-15Z" 
id="f3_4q"
transform="scale(0.001,-0.001)" />

<path d="M101,-123l-17,15c0,0,210,144,334,339c0,0,99,156,149,373c0,0,50,218,50,403v408h72V1022c0,0,0,-230,-56,-451c0,0,-48,-191,-134,-335C499,236,412,92,295,-5c0,0,-84,-73,-194,-118Z" 
id="f3_56"
transform="scale(0.001,-0.001)" />

<path d="M310,0L12,799H168L383,145L604,799H752L454,0Z" 
id="f2_2h"
transform="scale(0.001,-0.001)" />

<path d="M130,0L252,216H0v70H292L410,496H0v70H450L572,783h82L532,566H783V496H492L377,286H783V216H335L213,0Z" 
id="f3_3f"
transform="scale(0.001,-0.001)" />

<path d="M133,-224v71c0,0,47,8,65,52c0,0,14,33,17,101H133V163H292V27c0,0,0,-114,-36,-172c0,0,-37,-58,-123,-79Z" 
id="f2_f"
transform="scale(0.001,-0.001)" />

<path d="M424,92c0,0,114,0,170,107c0,0,57,108,56,323c0,0,1,216,-56,324c0,0,-56,107,-170,107c0,0,-112,0,-168,-107c0,0,-56,-108,-57,-324c0,0,1,-215,57,-323c0,0,56,-107,168,-107Zm0,-120c0,0,-176,0,-271,142c0,0,-96,143,-96,408c0,0,0,265,96,409c0,0,95,144,271,144c0,0,178,0,273,-144c0,0,96,-144,96,-409c0,0,0,-265,-96,-408c0,0,-95,-142,-273,-142Z" 
id="f2_j"
transform="scale(0.001,-0.001)" />

<path d="M133,0V162H292V0Z" 
id="f2_h"
transform="scale(0.001,-0.001)" />

<path d="M420,143c0,0,79,0,120,51c0,0,41,51,41,149c0,0,0,85,-44,137c0,0,-44,52,-117,52c0,0,-72,0,-116,-52c0,0,-44,-52,-44,-137c0,0,0,-86,46,-143c0,0,46,-57,114,-57Zm0,-170c0,0,-183,0,-278,136c0,0,-95,138,-95,403c0,0,0,291,105,438c0,0,98,138,283,138h23c0,0,135,0,221,-79c0,0,87,-78,92,-205H560c0,0,1,50,-29,81c0,0,-30,30,-81,30h-9c-3,0,-97,-1,-141,-92c0,0,-36,-72,-44,-211c0,0,87,91,209,91c0,0,145,0,237,-100c0,0,92,-99,92,-255c0,0,0,-166,-105,-271C689,77,584,-27,420,-27Z" 
id="f1_p"
transform="scale(0.001,-0.001)" />

<path d="M60,174V286H832V174Zm0,309V595H832V483Z" 
id="f2_w"
transform="scale(0.001,-0.001)" />

<path d="M0,368V478H849V368Z" 
id="f2_99"
transform="scale(0.001,-0.001)" />

<path d="M390,-1V329H60V441H390V771H503V441H833V329H503V-1Z" 
id="f2_e"
transform="scale(0.001,-0.001)" />

<path d="M193,0c0,0,23,245,132,485c0,0,102,223,253,394H38v188H808V905C808,905,642,724,538,484C538,484,433,244,413,0Z" 
id="f1_q"
transform="scale(0.001,-0.001)" />

<path d="M435,0V856c0,0,-48,-47,-127,-93c0,0,-79,-46,-142,-69V824c0,0,113,52,197,128c0,0,85,75,120,146h86V0Z" 
id="f5_l"
transform="scale(0.001,-0.001)" />

<path d="M420,92c0,0,92,0,155,89c0,0,64,89,64,358c0,0,0,270,-63,359c0,0,-63,89,-158,89c0,0,-92,0,-147,-79c0,0,-70,-100,-70,-369c0,0,0,-269,63,-358c0,0,63,-89,156,-89Zm0,-110c0,0,-158,0,-248,112C172,94,64,231,64,539c0,0,0,194,39,313c0,0,40,118,119,182c0,0,79,64,198,64c0,0,88,0,155,-35c0,0,66,-36,109,-103c0,0,43,-66,68,-162c0,0,24,-96,24,-259c0,0,0,-192,-39,-311C737,228,697,110,619,46c0,0,-79,-64,-199,-64Z" 
id="f5_k"
transform="scale(0.001,-0.001)" />

<path d="M125,0V1051H268V115H799V0Z" 
id="f0_1c"
transform="scale(0.001,-0.001)" />

<path d="M106,0V620c0,0,0,85,-5,188H228c0,0,6,-138,6,-165h3c0,0,32,103,74,141c0,0,42,38,118,38c0,0,27,0,54,-7V692c0,0,-26,7,-71,7c0,0,-84,0,-128,-72c0,0,-44,-72,-44,-206V0Z" 
id="f0_2e"
transform="scale(0.001,-0.001)" />

<path d="M606,-14c0,0,-164,0,-284,65c0,0,-119,66,-182,189c0,0,-63,123,-63,291c0,0,0,255,137,396c0,0,137,140,386,140c0,0,174,0,283,-59c0,0,109,-59,168,-189L915,779c0,0,-44,90,-123,131c0,0,-79,41,-196,41c0,0,-182,0,-278,-110c0,0,-96,-110,-96,-310c0,0,0,-200,102,-315c0,0,102,-115,282,-115c0,0,103,0,193,31c0,0,89,31,144,85V407H629V526h445V164c0,0,-83,-85,-205,-132c0,0,-121,-46,-263,-46Z" 
id="f0_17"
transform="scale(0.001,-0.001)" />

<path d="M355,-14c0,0,-133,0,-194,65c0,0,-62,66,-62,219V808H234V296c0,0,0,-80,16,-124c0,0,16,-44,50,-64c0,0,34,-19,101,-19c0,0,97,0,153,66c0,0,55,67,55,185V808H744V172c0,0,0,-141,4,-172H621c0,0,0,4,-1,20c0,0,-1,17,-2,38c0,0,-1,21,-3,80h-2C613,138,567,55,506,20c0,0,-61,-34,-151,-34Z" 
id="f0_2h"
transform="scale(0.001,-0.001)" />

<path d="M395,89c0,0,115,0,166,79c0,0,51,79,51,246c0,0,0,160,-51,235c0,0,-51,75,-164,75c0,0,-102,0,-147,-75c0,0,-45,-75,-45,-244c0,0,0,-170,45,-243c0,0,45,-73,145,-73ZM361,-14c0,0,-153,0,-225,102c0,0,-72,103,-72,312c0,0,0,422,297,422c0,0,92,0,153,-33c0,0,61,-34,98,-107h2l-2,90v335H747V166c0,0,0,-126,4,-166H623c0,0,-2,12,-5,55c0,0,-3,44,-3,75h-3c0,0,-37,-78,-98,-111c0,0,-62,-33,-153,-33Z" 
id="f0_20"
transform="scale(0.001,-0.001)" />

<path d="M140,0V163H285V0Z" 
id="f0_i"
transform="scale(0.001,-0.001)" />


</defs>
</svg>