<?xml version="1.0" encoding="UTF-8" standalone="no"?>
<!DOCTYPE svg PUBLIC "-//W3C//DTD SVG 1.1//EN"
"http://www.w3.org/Graphics/SVG/1.1/DTD/svg11.dtd">
<svg viewBox="0 0 686 959" version="1.1" xmlns="http://www.w3.org/2000/svg" xmlns:xlink="http://www.w3.org/1999/xlink">
<defs>
<style type="text/css"><![CDATA[
.g0_89{
fill: none;
stroke: #000000;
stroke-width: 0.7678;
stroke-linecap: round;
stroke-linejoin: miter;
}
.g1_89{
fill: none;
stroke: #000000;
stroke-width: 0.7638889;
stroke-linecap: round;
stroke-linejoin: miter;
}
.g2_89{
fill: none;
stroke: #000000;
stroke-width: 0.76266664;
stroke-linecap: round;
stroke-linejoin: miter;
}
.g3_89{
fill: none;
stroke: #000000;
stroke-width: 0.15277778;
stroke-linecap: round;
stroke-linejoin: miter;
}
.g4_89{
}
]]></style>
</defs>
<g fill="#D4D4D4" fill-opacity="0.56" >
<use xlink:href="#f0_1f" transform="matrix(50.9,-50.9,50.9,50.9,74.5,924.1)" />
<use xlink:href="#f0_2a" transform="matrix(50.9,-50.9,50.9,50.9,135,863.6)" />
<use xlink:href="#f0_28" transform="matrix(50.9,-50.9,50.9,50.9,178.2,820.3)" />
<use xlink:href="#f0_25" transform="matrix(50.9,-50.9,50.9,50.9,195.5,803.1)" />
<use xlink:href="#f0_2a" transform="matrix(50.9,-50.9,50.9,50.9,212.7,785.8)" />
<use xlink:href="#f0_21" transform="matrix(50.9,-50.9,50.9,50.9,256,742.5)" />
<use xlink:href="#f0_2k" transform="matrix(50.9,-50.9,50.9,50.9,299.2,699.3)" />
<use xlink:href="#f0_1x" transform="matrix(50.9,-50.9,50.9,50.9,338.1,660.4)" />
<use xlink:href="#f0_29" transform="matrix(50.9,-50.9,50.9,50.9,381.4,617.2)" />
<use xlink:href="#f0_2c" transform="matrix(50.9,-50.9,50.9,50.9,446.2,552.4)" />
<use xlink:href="#f0_2b" transform="matrix(50.9,-50.9,50.9,50.9,489.4,509.1)" />
<use xlink:href="#f0_25" transform="matrix(50.9,-50.9,50.9,50.9,532.7,465.9)" />
<use xlink:href="#f0_2a" transform="matrix(50.9,-50.9,50.9,50.9,549.9,448.6)" />
<use xlink:href="#f0_2g" transform="matrix(50.9,-50.9,50.9,50.9,593.2,405.4)" />
</g>
<g fill="#000000" >
<use xlink:href="#f1_1l" transform="matrix(12,0,0,12,64.9,377.9)" />
<use xlink:href="#f1_14" transform="matrix(12,0,0,12,78.8,377.9)" />
<use xlink:href="#f1_1h" transform="matrix(12,0,0,12,90,377.9)" />
<use xlink:href="#f1_1o" transform="matrix(12,0,0,12,102.8,377.9)" />
<use xlink:href="#f1_1i" transform="matrix(12,0,0,12,125.2,377.9)" />
<use xlink:href="#f1_17" transform="matrix(12,0,0,12,135.1,377.9)" />
<use xlink:href="#f1_1e" transform="matrix(12,0,0,12,149.9,377.9)" />
<use xlink:href="#f1_1h" transform="matrix(12,0,0,12,166.5,377.9)" />
<use xlink:href="#f1_1j" transform="matrix(12,0,0,12,179.4,377.9)" />
<use xlink:href="#f1_10" transform="matrix(12,0,0,12,200.9,377.9)" />
<use xlink:href="#f1_1d" transform="matrix(12,0,0,12,215.1,377.9)" />
<use xlink:href="#f1_1i" transform="matrix(12,0,0,12,230.7,377.9)" />
<use xlink:href="#f1_1m" transform="matrix(12,0,0,12,240.5,377.9)" />
<use xlink:href="#f1_14" transform="matrix(12,0,0,12,258.4,377.9)" />
<use xlink:href="#f1_1h" transform="matrix(12,0,0,12,269.5,377.9)" />
<use xlink:href="#f1_1j" transform="matrix(12,0,0,12,292.7,377.9)" />
<use xlink:href="#f1_1o" transform="matrix(12,0,0,12,304.2,377.9)" />
<use xlink:href="#f1_1f" transform="matrix(12,0,0,12,316.3,377.9)" />
<use xlink:href="#f1_14" transform="matrix(12,0,0,12,328.2,377.9)" />
<use xlink:href="#f1_1g" transform="matrix(12,0,0,12,349.6,377.9)" />
<use xlink:href="#f1_1k" transform="matrix(12,0,0,12,366.1,377.9)" />
<use xlink:href="#f1_14" transform="matrix(12,0,0,12,381,377.9)" />
<use xlink:href="#f1_1i" transform="matrix(12,0,0,12,392.2,377.9)" />
<use xlink:href="#f1_1j" transform="matrix(12,0,0,12,402,377.9)" />
<use xlink:href="#f1_18" transform="matrix(12,0,0,12,413.5,377.9)" />
<use xlink:href="#f1_1e" transform="matrix(12,0,0,12,420.6,377.9)" />
<use xlink:href="#f1_1d" transform="matrix(12,0,0,12,437.1,377.9)" />
<use xlink:href="#f1_1i" transform="matrix(12,0,0,12,452.7,377.9)" />
<use xlink:href="#f1_b" transform="matrix(12,0,0,12,472.6,377.9)" />
<use xlink:href="#f1_k" transform="matrix(12,0,0,12,481.7,377.9)" />
<use xlink:href="#f1_1c" transform="matrix(12,0,0,12,504.1,377.9)" />
<use xlink:href="#f1_10" transform="matrix(12,0,0,12,522.1,377.9)" />
<use xlink:href="#f1_1h" transform="matrix(12,0,0,12,536.2,377.9)" />
<use xlink:href="#f1_1a" transform="matrix(12,0,0,12,549.1,377.9)" />
<use xlink:href="#f1_c" transform="matrix(12,0,0,12,562.6,377.9)" />
<use xlink:href="#f2_k" transform="matrix(10.4,0,0,10.4,52.8,425.9)" />
<use xlink:href="#f2_h" transform="matrix(10.4,0,0,10.4,61.7,425.9)" />
<use xlink:href="#f2_1m" transform="matrix(10.4,0,0,10.4,84.6,425.9)" />
<use xlink:href="#f2_23" transform="matrix(10.4,0,0,10.4,99.8,425.9)" />
<use xlink:href="#f2_1w" transform="matrix(10.4,0,0,10.4,108.7,425.9)" />
<use xlink:href="#f2_2f" transform="matrix(10.4,0,0,10.4,117.5,425.9)" />
<use xlink:href="#f2_1w" transform="matrix(10.4,0,0,10.4,130.9,425.9)" />
<use xlink:href="#f2_2d" transform="matrix(10.4,0,0,10.4,139.8,425.9)" />
<use xlink:href="#f2_20" transform="matrix(10.4,0,0,10.4,145.3,425.9)" />
<use xlink:href="#f2_2f" transform="matrix(10.4,0,0,10.4,163.2,425.9)" />
<use xlink:href="#f2_23" transform="matrix(10.4,0,0,10.4,167.6,425.9)" />
<use xlink:href="#f2_20" transform="matrix(10.4,0,0,10.4,176.5,425.9)" />
<use xlink:href="#f2_23" transform="matrix(10.4,0,0,10.4,194.3,425.9)" />
<use xlink:href="#f2_2a" transform="matrix(10.4,0,0,10.4,203.2,425.9)" />
<use xlink:href="#f2_2d" transform="matrix(10.4,0,0,10.4,212,425.9)" />
<use xlink:href="#f2_24" transform="matrix(10.4,0,0,10.4,217.5,425.9)" />
<use xlink:href="#f2_2l" transform="matrix(10.4,0,0,10.4,221.1,425.9)" />
<use xlink:href="#f2_2a" transform="matrix(10.4,0,0,10.4,229.3,425.9)" />
<use xlink:href="#f2_29" transform="matrix(10.4,0,0,10.4,238.2,425.9)" />
<use xlink:href="#f2_2f" transform="matrix(10.4,0,0,10.4,247.1,425.9)" />
<use xlink:href="#f2_1w" transform="matrix(10.4,0,0,10.4,251.5,425.9)" />
<use xlink:href="#f2_27" transform="matrix(10.4,0,0,10.4,260.4,425.9)" />
<use xlink:href="#f2_1w" transform="matrix(10.4,0,0,10.4,272.9,425.9)" />
<use xlink:href="#f2_29" transform="matrix(10.4,0,0,10.4,281.8,425.9)" />
<use xlink:href="#f2_1z" transform="matrix(10.4,0,0,10.4,290.6,425.9)" />
<use xlink:href="#f2_2h" transform="matrix(10.4,0,0,10.4,308.5,425.9)" />
<use xlink:href="#f2_20" transform="matrix(10.4,0,0,10.4,316.7,425.9)" />
<use xlink:href="#f2_2d" transform="matrix(10.4,0,0,10.4,325.6,425.9)" />
<use xlink:href="#f2_2f" transform="matrix(10.4,0,0,10.4,331.1,425.9)" />
<use xlink:href="#f2_24" transform="matrix(10.4,0,0,10.4,335.5,425.9)" />
<use xlink:href="#f2_1y" transform="matrix(10.4,0,0,10.4,339.1,425.9)" />
<use xlink:href="#f2_1w" transform="matrix(10.4,0,0,10.4,347.3,425.9)" />
<use xlink:href="#f2_27" transform="matrix(10.4,0,0,10.4,356.2,425.9)" />
<use xlink:href="#f2_1y" transform="matrix(10.4,0,0,10.4,368.7,425.9)" />
<use xlink:href="#f2_2a" transform="matrix(10.4,0,0,10.4,377,425.9)" />
<use xlink:href="#f2_28" transform="matrix(10.4,0,0,10.4,385.8,425.9)" />
<use xlink:href="#f2_2b" transform="matrix(10.4,0,0,10.4,399.1,425.9)" />
<use xlink:href="#f2_2a" transform="matrix(10.4,0,0,10.4,408,425.9)" />
<use xlink:href="#f2_29" transform="matrix(10.4,0,0,10.4,416.8,425.9)" />
<use xlink:href="#f2_20" transform="matrix(10.4,0,0,10.4,425.7,425.9)" />
<use xlink:href="#f2_29" transform="matrix(10.4,0,0,10.4,434.6,425.9)" />
<use xlink:href="#f2_2f" transform="matrix(10.4,0,0,10.4,443.5,425.9)" />
<use xlink:href="#f2_2e" transform="matrix(10.4,0,0,10.4,447.9,425.9)" />
<use xlink:href="#f2_2a" transform="matrix(10.4,0,0,10.4,465.1,425.9)" />
<use xlink:href="#f2_21" transform="matrix(10.4,0,0,10.4,474,425.9)" />
<use xlink:href="#f2_1w" transform="matrix(10.4,0,0,10.4,487.4,425.9)" />
<use xlink:href="#f2_2h" transform="matrix(10.4,0,0,10.4,505.2,425.9)" />
<use xlink:href="#f2_20" transform="matrix(10.4,0,0,10.4,513.5,425.9)" />
<use xlink:href="#f2_1y" transform="matrix(10.4,0,0,10.4,522.4,425.9)" />
<use xlink:href="#f2_2f" transform="matrix(10.4,0,0,10.4,530.6,425.9)" />
<use xlink:href="#f2_2a" transform="matrix(10.4,0,0,10.4,535,425.9)" />
<use xlink:href="#f2_2d" transform="matrix(10.4,0,0,10.4,543.9,425.9)" />
<use xlink:href="#f3_1w" transform="matrix(10.5,0,0,10.5,569.5,427.4)" />
<use xlink:href="#f4_23" transform="matrix(10.5,0,0,10.5,565.4,412.9)" />
<use xlink:href="#f4_23" transform="matrix(10.5,0,0,10.5,571,412.9)" />
<use xlink:href="#f4_23" transform="matrix(10.5,0,0,10.5,575.2,412.9)" />
<use xlink:href="#f4_20" transform="matrix(10.5,0,0,10.5,576.8,412.9)" />
<use xlink:href="#f2_2a" transform="matrix(10.4,0,0,10.4,595.7,425.9)" />
<use xlink:href="#f2_21" transform="matrix(10.4,0,0,10.4,604.6,425.9)" />
<use xlink:href="#f2_28" transform="matrix(10.4,0,0,10.4,84.5,451.9)" />
<use xlink:href="#f2_1w" transform="matrix(10.4,0,0,10.4,97.8,451.9)" />
<use xlink:href="#f2_22" transform="matrix(10.4,0,0,10.4,106.7,451.9)" />
<use xlink:href="#f2_29" transform="matrix(10.4,0,0,10.4,115.6,451.9)" />
<use xlink:href="#f2_24" transform="matrix(10.4,0,0,10.4,124.4,451.9)" />
<use xlink:href="#f2_2f" transform="matrix(10.4,0,0,10.4,128,451.9)" />
<use xlink:href="#f2_2g" transform="matrix(10.4,0,0,10.4,132.4,451.9)" />
<use xlink:href="#f2_1z" transform="matrix(10.4,0,0,10.4,141.3,451.9)" />
<use xlink:href="#f2_20" transform="matrix(10.4,0,0,10.4,150.1,451.9)" />
<use xlink:href="#f2_o" transform="matrix(10.4,0,0,10.4,166.4,451.9)" />
<use xlink:href="#f2_28" transform="matrix(10.4,0,0,10.4,182.6,451.9)" />
<use xlink:href="#f2_1w" transform="matrix(10.4,0,0,10.4,195.8,451.9)" />
<use xlink:href="#f2_26" transform="matrix(10.4,0,0,10.4,204.7,451.9)" />
<use xlink:href="#f2_24" transform="matrix(10.4,0,0,10.4,212.7,451.9)" />
<use xlink:href="#f2_29" transform="matrix(10.4,0,0,10.4,216.2,451.9)" />
<use xlink:href="#f2_22" transform="matrix(10.4,0,0,10.4,225.1,451.9)" />
<use xlink:href="#f2_1w" transform="matrix(10.4,0,0,10.4,241.1,451.9)" />
<use xlink:href="#f2_29" transform="matrix(10.4,0,0,10.4,250,451.9)" />
<use xlink:href="#f2_1w" transform="matrix(10.4,0,0,10.4,266.2,451.9)" />
<use xlink:href="#f2_29" transform="matrix(10.4,0,0,10.4,275.1,451.9)" />
<use xlink:href="#f2_22" transform="matrix(10.4,0,0,10.4,283.9,451.9)" />
<use xlink:href="#f2_27" transform="matrix(10.4,0,0,10.4,292.8,451.9)" />
<use xlink:href="#f2_20" transform="matrix(10.4,0,0,10.4,296.3,451.9)" />
<use xlink:href="#f2_2a" transform="matrix(10.4,0,0,10.4,312.5,451.9)" />
<use xlink:href="#f2_21" transform="matrix(10.4,0,0,10.4,321.4,451.9)" />
<use xlink:href="#f2_k" transform="matrix(10.4,0,0,10.4,333.2,451.9)" />
<use xlink:href="#f2_o" transform="matrix(10.4,0,0,10.4,342.1,451.9)" />
<use xlink:href="#f2_j" transform="matrix(10.4,0,0,10.4,350.9,451.9)" />
<use xlink:href="#f2_3a" transform="matrix(10.4,0,0,10.4,359.8,451.9)" />
<use xlink:href="#f2_2i" transform="matrix(10.4,0,0,10.4,373.5,451.9)" />
<use xlink:href="#f2_24" transform="matrix(10.4,0,0,10.4,385,451.9)" />
<use xlink:href="#f2_2f" transform="matrix(10.4,0,0,10.4,388.6,451.9)" />
<use xlink:href="#f2_23" transform="matrix(10.4,0,0,10.4,393,451.9)" />
<use xlink:href="#f2_2f" transform="matrix(10.4,0,0,10.4,409.2,451.9)" />
<use xlink:href="#f2_23" transform="matrix(10.4,0,0,10.4,413.6,451.9)" />
<use xlink:href="#f2_20" transform="matrix(10.4,0,0,10.4,422.5,451.9)" />
<use xlink:href="#f2_1z" transform="matrix(10.4,0,0,10.4,438.5,451.9)" />
<use xlink:href="#f2_24" transform="matrix(10.4,0,0,10.4,447.4,451.9)" />
<use xlink:href="#f2_2d" transform="matrix(10.4,0,0,10.4,450.9,451.9)" />
<use xlink:href="#f2_20" transform="matrix(10.4,0,0,10.4,456.2,451.9)" />
<use xlink:href="#f2_1y" transform="matrix(10.4,0,0,10.4,465.1,451.9)" />
<use xlink:href="#f2_2f" transform="matrix(10.4,0,0,10.4,473.1,451.9)" />
<use xlink:href="#f2_24" transform="matrix(10.4,0,0,10.4,477.5,451.9)" />
<use xlink:href="#f2_2a" transform="matrix(10.4,0,0,10.4,481.1,451.9)" />
<use xlink:href="#f2_29" transform="matrix(10.4,0,0,10.4,489.9,451.9)" />
<use xlink:href="#f2_2a" transform="matrix(10.4,0,0,10.4,506.1,451.9)" />
<use xlink:href="#f2_21" transform="matrix(10.4,0,0,10.4,515,451.9)" />
<use xlink:href="#f3_2j" transform="matrix(10.4,0,0,10.4,524.4,451.9)" />
<use xlink:href="#f2_g" transform="matrix(10.4,0,0,10.4,532.4,451.9)" />
<use xlink:href="#f2_1w" transform="matrix(10.4,0,0,10.4,537.8,451.9)" />
<use xlink:href="#f2_2j" transform="matrix(10.4,0,0,10.4,546.6,451.9)" />
<use xlink:href="#f2_24" transform="matrix(10.4,0,0,10.4,554.6,451.9)" />
<use xlink:href="#f2_2e" transform="matrix(10.4,0,0,10.4,558.1,451.9)" />
<use xlink:href="#f2_h" transform="matrix(10.4,0,0,10.4,566.1,451.9)" />
<use xlink:href="#f2_l" transform="matrix(10.4,0,0,10.4,52.8,489.9)" />
<use xlink:href="#f2_h" transform="matrix(10.4,0,0,10.4,61.7,489.9)" />
<use xlink:href="#f2_1m" transform="matrix(10.4,0,0,10.4,84.5,489.9)" />
<use xlink:href="#f2_23" transform="matrix(10.4,0,0,10.4,99.6,489.9)" />
<use xlink:href="#f2_1w" transform="matrix(10.4,0,0,10.4,108.5,489.9)" />
<use xlink:href="#f2_2f" transform="matrix(10.4,0,0,10.4,117.3,489.9)" />
<use xlink:href="#f2_24" transform="matrix(10.4,0,0,10.4,128.6,489.9)" />
<use xlink:href="#f2_2e" transform="matrix(10.4,0,0,10.4,132.1,489.9)" />
<use xlink:href="#f3_1w" transform="matrix(10.4,0,0,10.4,146.9,489.9)" />
<use xlink:href="#f5_40" transform="matrix(10.4,0,0,10.4,162.6,489.9)" />
<use xlink:href="#f3_1h" transform="matrix(10.4,0,0,10.4,181,489.9)" />
<use xlink:href="#f2_2e" transform="matrix(10.4,0,0,10.4,199.5,489.9)" />
<use xlink:href="#f2_2g" transform="matrix(10.4,0,0,10.4,207.5,489.9)" />
<use xlink:href="#f2_1y" transform="matrix(10.4,0,0,10.4,216.3,489.9)" />
<use xlink:href="#f2_23" transform="matrix(10.4,0,0,10.4,224.3,489.9)" />
<use xlink:href="#f2_2f" transform="matrix(10.4,0,0,10.4,240,489.9)" />
<use xlink:href="#f2_23" transform="matrix(10.4,0,0,10.4,244.4,489.9)" />
<use xlink:href="#f2_1w" transform="matrix(10.4,0,0,10.4,253.3,489.9)" />
<use xlink:href="#f2_2f" transform="matrix(10.4,0,0,10.4,262.1,489.9)" />
</g>
<path d="M276.9,474.6V496m39.2,-21.4V496" class="g0_89" />
<g fill="#000000" >
<use xlink:href="#f2_k" transform="matrix(10.6,0,0,10.5,341.9,491.4)" />
<use xlink:href="#f2_f" transform="matrix(10.6,0,0,10.5,347.7,491.4)" />
<use xlink:href="#f3_1w" transform="matrix(10.6,0,0,10.5,279.4,491.4)" />
<use xlink:href="#f3_2j" transform="matrix(10.6,0,0,10.5,298.3,491.4)" />
<use xlink:href="#f5_x" transform="matrix(10.5,0,0,10.5,325.8,491.4)" />
<use xlink:href="#f4_23" transform="matrix(10.5,0,0,10.5,293.3,476.9)" />
<use xlink:href="#f4_23" transform="matrix(10.5,0,0,10.5,299.1,476.9)" />
<use xlink:href="#f4_23" transform="matrix(10.5,0,0,10.5,304.9,476.9)" />
<use xlink:href="#f4_20" transform="matrix(10.5,0,0,10.5,306.5,476.9)" />
<use xlink:href="#f2_2i" transform="matrix(10.4,0,0,10.4,361.8,489.9)" />
<use xlink:href="#f2_23" transform="matrix(10.4,0,0,10.4,373.3,489.9)" />
<use xlink:href="#f2_20" transform="matrix(10.4,0,0,10.4,382.2,489.9)" />
<use xlink:href="#f2_2d" transform="matrix(10.4,0,0,10.4,391,489.9)" />
<use xlink:href="#f2_20" transform="matrix(10.4,0,0,10.4,396.3,489.9)" />
<use xlink:href="#f4_4" transform="matrix(14,0,0,10.5,535.4,485.7)" />
<use xlink:href="#f2_l" transform="matrix(10.5,0,0,10.5,487.1,491.4)" />
<use xlink:href="#f2_l" transform="matrix(10.5,0,0,10.5,525.2,491.4)" />
<use xlink:href="#f2_y" transform="matrix(10.5,0,0,10.5,547.3,491.4)" />
<use xlink:href="#f5_x" transform="matrix(10.5,0,0,10.5,443.1,491.4)" />
<use xlink:href="#f5_h" transform="matrix(10.5,0,0,10.5,471.7,491.4)" />
<use xlink:href="#f5_f" transform="matrix(10.5,0,0,10.5,509.5,491.4)" />
<use xlink:href="#f4_23" transform="matrix(10.5,0,0,10.5,414.9,476.9)" />
<use xlink:href="#f4_23" transform="matrix(10.5,0,0,10.5,420.6,476.9)" />
<use xlink:href="#f4_23" transform="matrix(10.5,0,0,10.5,426.2,476.9)" />
<use xlink:href="#f4_20" transform="matrix(10.5,0,0,10.5,427.8,476.9)" />
<use xlink:href="#f4_4" transform="matrix(10.5,0,0,10.5,459.9,485.7)" />
<use xlink:href="#f4_4" transform="matrix(10.5,0,0,10.5,496.7,485.7)" />
<use xlink:href="#f3_2j" transform="matrix(10.5,0,0,10.5,419.8,491.4)" />
<use xlink:href="#f3_24" transform="matrix(10.5,0,0,10.5,459.8,491.4)" />
<use xlink:href="#f3_25" transform="matrix(10.5,0,0,10.5,497.6,491.4)" />
<use xlink:href="#f3_26" transform="matrix(10.5,0,0,10.5,533.7,491.4)" />
<use xlink:href="#f2_m" transform="matrix(10.4,0,0,10.4,52.8,529.5)" />
<use xlink:href="#f2_h" transform="matrix(10.4,0,0,10.4,61.7,529.5)" />
<use xlink:href="#f2_1m" transform="matrix(10.4,0,0,10.4,84.6,529.5)" />
<use xlink:href="#f2_23" transform="matrix(10.4,0,0,10.4,99.6,529.5)" />
<use xlink:href="#f2_20" transform="matrix(10.4,0,0,10.4,108.5,529.5)" />
<use xlink:href="#f2_29" transform="matrix(10.4,0,0,10.4,117.4,529.5)" />
<use xlink:href="#f2_24" transform="matrix(10.4,0,0,10.4,133,529.5)" />
<use xlink:href="#f2_2e" transform="matrix(10.4,0,0,10.4,136.5,529.5)" />
</g>
<path d="M155.1,514.2v21.4M224,514.2v21.4m27.7,-21.4v21.4m26,-21.4v21.4m24.5,-21.4v21.4m26.2,-21.4v21.4" class="g1_89" />
<g fill="#000000" >
<use xlink:href="#f2_y" transform="matrix(10.5,0,0,10.5,336.7,531)" />
<use xlink:href="#f5_f" transform="matrix(10.5,0,0,10.5,184.9,531)" />
<use xlink:href="#f5_x" transform="matrix(10.5,0,0,10.5,233.5,531)" />
<use xlink:href="#f5_f" transform="matrix(10.5,0,0,10.5,285.5,531)" />
<use xlink:href="#f4_23" transform="matrix(10.5,0,0,10.5,158.3,516.5)" />
<use xlink:href="#f4_23" transform="matrix(10.5,0,0,10.5,164,516.5)" />
<use xlink:href="#f4_23" transform="matrix(10.5,0,0,10.5,169.6,516.5)" />
<use xlink:href="#f4_20" transform="matrix(10.5,0,0,10.5,171.2,516.5)" />
<use xlink:href="#f4_23" transform="matrix(10.5,0,0,10.5,201.1,516.5)" />
<use xlink:href="#f4_23" transform="matrix(10.5,0,0,10.5,206.9,516.5)" />
<use xlink:href="#f4_23" transform="matrix(10.5,0,0,10.5,212.6,516.5)" />
<use xlink:href="#f4_20" transform="matrix(10.5,0,0,10.5,214.3,516.5)" />
<use xlink:href="#f4_23" transform="matrix(10.5,0,0,10.5,255.2,516.5)" />
<use xlink:href="#f4_23" transform="matrix(10.5,0,0,10.5,260.9,516.5)" />
<use xlink:href="#f4_23" transform="matrix(10.5,0,0,10.5,266.5,516.5)" />
<use xlink:href="#f4_20" transform="matrix(10.5,0,0,10.5,268.1,516.5)" />
<use xlink:href="#f4_23" transform="matrix(10.5,0,0,10.5,305.8,516.5)" />
<use xlink:href="#f4_23" transform="matrix(10.5,0,0,10.5,311.5,516.5)" />
<use xlink:href="#f4_23" transform="matrix(10.5,0,0,10.5,317.3,516.5)" />
<use xlink:href="#f4_20" transform="matrix(10.5,0,0,10.5,318.9,516.5)" />
<use xlink:href="#f3_2j" transform="matrix(10.5,0,0,10.5,163.2,531)" />
<use xlink:href="#f3_2k" transform="matrix(10.5,0,0,10.5,206,531)" />
<use xlink:href="#f3_2j" transform="matrix(10.5,0,0,10.5,260,531)" />
<use xlink:href="#f3_2k" transform="matrix(10.5,0,0,10.5,310.6,531)" />
<use xlink:href="#f2_n" transform="matrix(10.4,0,0,10.4,52.8,565.2)" />
<use xlink:href="#f2_h" transform="matrix(10.4,0,0,10.4,61.7,565.2)" />
<use xlink:href="#f2_1m" transform="matrix(10.4,0,0,10.4,84.6,565.2)" />
<use xlink:href="#f2_23" transform="matrix(10.4,0,0,10.4,100.3,565.2)" />
<use xlink:href="#f2_1w" transform="matrix(10.4,0,0,10.4,110.1,565.2)" />
<use xlink:href="#f2_2f" transform="matrix(10.4,0,0,10.4,119.6,565.2)" />
<use xlink:href="#f2_24" transform="matrix(10.4,0,0,10.4,134.4,565.2)" />
<use xlink:href="#f2_2e" transform="matrix(10.4,0,0,10.4,138.7,565.2)" />
<use xlink:href="#f2_2f" transform="matrix(10.4,0,0,10.4,157,565.2)" />
<use xlink:href="#f2_23" transform="matrix(10.4,0,0,10.4,162.3,565.2)" />
<use xlink:href="#f2_20" transform="matrix(10.4,0,0,10.4,171.8,565.2)" />
<use xlink:href="#f2_1w" transform="matrix(10.4,0,0,10.4,191.1,565.2)" />
<use xlink:href="#f2_2d" transform="matrix(10.4,0,0,10.4,200.6,565.2)" />
<use xlink:href="#f2_20" transform="matrix(10.4,0,0,10.4,206.7,565.2)" />
<use xlink:href="#f2_1w" transform="matrix(10.4,0,0,10.4,216.4,565.2)" />
<use xlink:href="#f2_2a" transform="matrix(10.4,0,0,10.4,235.5,565.2)" />
<use xlink:href="#f2_21" transform="matrix(10.4,0,0,10.4,245,565.2)" />
<use xlink:href="#f2_1w" transform="matrix(10.4,0,0,10.4,259.9,565.2)" />
<use xlink:href="#f2_2b" transform="matrix(10.4,0,0,10.4,279.1,565.2)" />
<use xlink:href="#f2_1w" transform="matrix(10.4,0,0,10.4,288.7,565.2)" />
<use xlink:href="#f2_2d" transform="matrix(10.4,0,0,10.4,298.2,565.2)" />
<use xlink:href="#f2_1w" transform="matrix(10.4,0,0,10.4,304.4,565.2)" />
<use xlink:href="#f2_27" transform="matrix(10.4,0,0,10.4,314,565.2)" />
<use xlink:href="#f2_27" transform="matrix(10.4,0,0,10.4,318.2,565.2)" />
<use xlink:href="#f2_20" transform="matrix(10.4,0,0,10.4,322.6,565.2)" />
<use xlink:href="#f2_27" transform="matrix(10.4,0,0,10.4,332.1,565.2)" />
<use xlink:href="#f2_2a" transform="matrix(10.4,0,0,10.4,336.3,565.2)" />
<use xlink:href="#f2_22" transform="matrix(10.4,0,0,10.4,345.9,565.2)" />
<use xlink:href="#f2_2d" transform="matrix(10.4,0,0,10.4,355.6,565.2)" />
<use xlink:href="#f2_1w" transform="matrix(10.4,0,0,10.4,361.6,565.2)" />
<use xlink:href="#f2_28" transform="matrix(10.4,0,0,10.4,371.2,565.2)" />
<use xlink:href="#f2_2i" transform="matrix(10.4,0,0,10.4,394.8,565.2)" />
<use xlink:href="#f2_23" transform="matrix(10.4,0,0,10.4,407.1,565.2)" />
<use xlink:href="#f2_2a" transform="matrix(10.4,0,0,10.4,416.8,565.2)" />
<use xlink:href="#f2_2e" transform="matrix(10.4,0,0,10.4,426.4,565.2)" />
<use xlink:href="#f2_20" transform="matrix(10.4,0,0,10.4,435.2,565.2)" />
<use xlink:href="#f2_2e" transform="matrix(10.4,0,0,10.4,454.4,565.2)" />
<use xlink:href="#f2_24" transform="matrix(10.4,0,0,10.4,463.2,565.2)" />
<use xlink:href="#f2_1z" transform="matrix(10.4,0,0,10.4,467.4,565.2)" />
<use xlink:href="#f2_20" transform="matrix(10.4,0,0,10.4,477.1,565.2)" />
<use xlink:href="#f2_2e" transform="matrix(10.4,0,0,10.4,486.7,565.2)" />
<use xlink:href="#f2_1w" transform="matrix(10.4,0,0,10.4,505.2,565.2)" />
<use xlink:href="#f2_2d" transform="matrix(10.4,0,0,10.4,514.7,565.2)" />
<use xlink:href="#f2_20" transform="matrix(10.4,0,0,10.4,520.8,565.2)" />
<use xlink:href="#f2_22" transform="matrix(10.4,0,0,10.4,540,565.2)" />
<use xlink:href="#f2_24" transform="matrix(10.4,0,0,10.4,549.6,565.2)" />
<use xlink:href="#f2_2h" transform="matrix(10.4,0,0,10.4,553.8,565.2)" />
<use xlink:href="#f2_20" transform="matrix(10.4,0,0,10.4,562.8,565.2)" />
<use xlink:href="#f2_29" transform="matrix(10.4,0,0,10.4,572.3,565.2)" />
<use xlink:href="#f2_1x" transform="matrix(10.4,0,0,10.4,591.6,565.2)" />
<use xlink:href="#f2_2k" transform="matrix(10.4,0,0,10.4,601.1,565.2)" />
<use xlink:href="#f4_4" transform="matrix(14,0,0,10.5,211.2,585.2)" />
<use xlink:href="#f2_l" transform="matrix(10.5,0,0,10.5,87.3,591)" />
<use xlink:href="#f2_99" transform="matrix(10.5,0,0,10.5,108.1,591)" />
<use xlink:href="#f2_1w" transform="matrix(10.5,0,0,10.5,138.7,591)" />
<use xlink:href="#f2_29" transform="matrix(10.5,0,0,10.5,148,591)" />
<use xlink:href="#f2_1z" transform="matrix(10.5,0,0,10.5,157.4,591)" />
<use xlink:href="#f2_o" transform="matrix(10.5,0,0,10.5,201,591)" />
<use xlink:href="#f2_y" transform="matrix(10.5,0,0,10.5,223.4,591)" />
<use xlink:href="#f3_24" transform="matrix(10.5,0,0,10.5,95.6,591)" />
<use xlink:href="#f3_25" transform="matrix(10.5,0,0,10.5,125.5,591)" />
<use xlink:href="#f3_24" transform="matrix(10.5,0,0,10.5,173,591)" />
<use xlink:href="#f3_26" transform="matrix(10.5,0,0,10.5,209.5,591)" />
<use xlink:href="#f5_f" transform="matrix(10.5,0,0,10.5,185.2,591)" />
<use xlink:href="#f4_4" transform="matrix(10.5,0,0,10.5,95.9,585.2)" />
<use xlink:href="#f4_4" transform="matrix(10.5,0,0,10.5,124.8,585.2)" />
<use xlink:href="#f4_4" transform="matrix(10.5,0,0,10.5,173.3,585.2)" />
<use xlink:href="#f2_o" transform="matrix(10.4,0,0,10.4,52.8,629.2)" />
<use xlink:href="#f2_h" transform="matrix(10.4,0,0,10.4,61.7,629.2)" />
<use xlink:href="#f2_1m" transform="matrix(10.4,0,0,10.4,84.6,629.2)" />
<use xlink:href="#f2_23" transform="matrix(10.4,0,0,10.4,99.6,629.2)" />
<use xlink:href="#f2_1w" transform="matrix(10.4,0,0,10.4,108.5,629.2)" />
<use xlink:href="#f2_2f" transform="matrix(10.4,0,0,10.4,117.4,629.2)" />
<use xlink:href="#f2_24" transform="matrix(10.4,0,0,10.4,128.9,629.2)" />
<use xlink:href="#f2_2e" transform="matrix(10.4,0,0,10.4,132.5,629.2)" />
<use xlink:href="#f2_2f" transform="matrix(10.4,0,0,10.4,147.6,629.2)" />
<use xlink:href="#f2_23" transform="matrix(10.4,0,0,10.4,152,629.2)" />
<use xlink:href="#f2_20" transform="matrix(10.4,0,0,10.4,160.9,629.2)" />
<use xlink:href="#f2_1w" transform="matrix(10.4,0,0,10.4,176.9,629.2)" />
<use xlink:href="#f2_29" transform="matrix(10.4,0,0,10.4,185.8,629.2)" />
<use xlink:href="#f2_22" transform="matrix(10.4,0,0,10.4,194.7,629.2)" />
<use xlink:href="#f2_27" transform="matrix(10.4,0,0,10.4,203.5,629.2)" />
<use xlink:href="#f2_20" transform="matrix(10.4,0,0,10.4,207.1,629.2)" />
<use xlink:href="#f2_1x" transform="matrix(10.4,0,0,10.4,223.1,629.2)" />
<use xlink:href="#f2_20" transform="matrix(10.4,0,0,10.4,232,629.2)" />
<use xlink:href="#f2_2f" transform="matrix(10.4,0,0,10.4,240.8,629.2)" />
<use xlink:href="#f2_2i" transform="matrix(10.4,0,0,10.4,245.3,629.2)" />
<use xlink:href="#f2_20" transform="matrix(10.4,0,0,10.4,256.8,629.2)" />
<use xlink:href="#f2_20" transform="matrix(10.4,0,0,10.4,265.6,629.2)" />
<use xlink:href="#f2_29" transform="matrix(10.4,0,0,10.4,274.5,629.2)" />
<use xlink:href="#f2_f" transform="matrix(10.5,0,0,10.5,373.7,629.6)" />
<use xlink:href="#f3_1w" transform="matrix(10.5,0,0,10.5,296.6,629.6)" />
<use xlink:href="#f3_1w" transform="matrix(10.5,0,0,10.5,318.1,629.6)" />
<use xlink:href="#f3_29" transform="matrix(10.5,0,0,10.5,327.1,629.6)" />
<use xlink:href="#f3_1z" transform="matrix(10.5,0,0,10.5,336,629.6)" />
<use xlink:href="#f3_1x" transform="matrix(10.5,0,0,10.5,359.1,629.6)" />
<use xlink:href="#f4_23" transform="matrix(10.5,0,0,10.5,292.4,615.2)" />
<use xlink:href="#f4_23" transform="matrix(10.5,0,0,10.5,298.2,615.2)" />
<use xlink:href="#f4_23" transform="matrix(10.5,0,0,10.5,302.5,615.2)" />
<use xlink:href="#f4_20" transform="matrix(10.5,0,0,10.5,304.1,615.2)" />
<use xlink:href="#f4_23" transform="matrix(10.5,0,0,10.5,355.2,615.2)" />
<use xlink:href="#f4_23" transform="matrix(10.5,0,0,10.5,360.9,615.2)" />
<use xlink:href="#f4_23" transform="matrix(10.5,0,0,10.5,365.9,615.2)" />
<use xlink:href="#f4_20" transform="matrix(10.5,0,0,10.5,367.5,615.2)" />
<use xlink:href="#f2_18" transform="matrix(10.4,0,0,10.4,388.5,629.2)" />
<use xlink:href="#f2_21" transform="matrix(10.4,0,0,10.4,393,629.2)" />
</g>
<path d="M273.2,641.9v21.7m66.5,-21.7v21.7" class="g2_89" />
<path d="M376.1,652.8l1.6,-.9l3.9,6.5l4.2,-17.2h10" class="g3_89" />
<path fill-rule="evenodd" d="M376,652.6l2.1,-1.2l3.5,5.5l4,-16.1h10.2v.8h-9.7L382,658.4h-.8l-3.9,-5.9l-1.1,.6l-.2,-.5Z" class="g4_89" />
<g fill="#000000" >
<use xlink:href="#f2_m" transform="matrix(10.7,0,0,10.7,221.8,657.1)" />
<use xlink:href="#f2_1w" transform="matrix(10.7,0,0,10.7,238.2,657.1)" />
<use xlink:href="#f2_29" transform="matrix(10.7,0,0,10.7,247.2,657.1)" />
<use xlink:href="#f2_1z" transform="matrix(10.7,0,0,10.7,256.3,657.1)" />
<use xlink:href="#f2_m" transform="matrix(10.7,0,0,10.7,366.6,657.1)" />
<use xlink:href="#f2_m" transform="matrix(10.7,0,0,10.7,386.4,657.1)" />
<use xlink:href="#f2_h" transform="matrix(10.7,0,0,10.7,395.7,657.1)" />
<use xlink:href="#f3_1w" transform="matrix(10.7,0,0,10.7,146.7,657.1)" />
<use xlink:href="#f3_1x" transform="matrix(10.7,0,0,10.7,181.1,657.1)" />
<use xlink:href="#f3_1w" transform="matrix(10.7,0,0,10.7,280.8,658.9)" />
<use xlink:href="#f3_1x" transform="matrix(10.7,0,0,10.7,321.9,658.9)" />
<use xlink:href="#f5_49" transform="matrix(10.7,0,0,10.7,166.8,657.1)" />
<use xlink:href="#f5_x" transform="matrix(10.7,0,0,10.7,204.6,657.1)" />
<use xlink:href="#f5_x" transform="matrix(10.7,0,0,10.7,349.3,657.1)" />
<use xlink:href="#f5_3a" transform="matrix(10.7,0,0,10.7,301.8,658.9)" />
<use xlink:href="#f4_23" transform="matrix(10.7,0,0,10.7,142.6,642.4)" />
<use xlink:href="#f4_23" transform="matrix(10.7,0,0,10.7,148.3,642.4)" />
<use xlink:href="#f4_23" transform="matrix(10.7,0,0,10.7,152.6,642.4)" />
<use xlink:href="#f4_20" transform="matrix(10.7,0,0,10.7,154.2,642.4)" />
<use xlink:href="#f4_23" transform="matrix(10.7,0,0,10.7,177,642.4)" />
<use xlink:href="#f4_23" transform="matrix(10.7,0,0,10.7,182.7,642.4)" />
<use xlink:href="#f4_23" transform="matrix(10.7,0,0,10.7,187.7,642.4)" />
<use xlink:href="#f4_20" transform="matrix(10.7,0,0,10.7,189.3,642.4)" />
<use xlink:href="#f4_23" transform="matrix(10.7,0,0,10.7,276.6,644.3)" />
<use xlink:href="#f4_23" transform="matrix(10.7,0,0,10.7,282.3,644.3)" />
<use xlink:href="#f4_23" transform="matrix(10.7,0,0,10.7,286.6,644.3)" />
<use xlink:href="#f4_20" transform="matrix(10.7,0,0,10.7,288.2,644.3)" />
<use xlink:href="#f4_23" transform="matrix(10.7,0,0,10.7,317.7,644.3)" />
<use xlink:href="#f4_23" transform="matrix(10.7,0,0,10.7,323.5,644.3)" />
<use xlink:href="#f4_23" transform="matrix(10.7,0,0,10.7,328.5,644.3)" />
<use xlink:href="#f4_20" transform="matrix(10.7,0,0,10.7,330.1,644.3)" />
<use xlink:href="#f2_p" transform="matrix(10.4,0,0,10.4,52.8,693.4)" />
<use xlink:href="#f2_h" transform="matrix(10.4,0,0,10.4,61.7,693.4)" />
<use xlink:href="#f2_1m" transform="matrix(10.4,0,0,10.4,84.6,693.4)" />
<use xlink:href="#f2_2d" transform="matrix(10.4,0,0,10.4,99.6,693.4)" />
<use xlink:href="#f2_24" transform="matrix(10.4,0,0,10.4,104.9,693.4)" />
<use xlink:href="#f2_2f" transform="matrix(10.4,0,0,10.4,108.5,693.4)" />
<use xlink:href="#f2_20" transform="matrix(10.4,0,0,10.4,112.9,693.4)" />
<use xlink:href="#f2_1w" transform="matrix(10.4,0,0,10.4,128.4,693.4)" />
<use xlink:href="#f2_2g" transform="matrix(10.4,0,0,10.4,143.7,693.4)" />
<use xlink:href="#f2_29" transform="matrix(10.4,0,0,10.4,152.5,693.4)" />
<use xlink:href="#f2_24" transform="matrix(10.4,0,0,10.4,161.4,693.4)" />
<use xlink:href="#f2_2f" transform="matrix(10.4,0,0,10.4,164.9,693.4)" />
<use xlink:href="#f2_2h" transform="matrix(10.4,0,0,10.4,176,693.4)" />
<use xlink:href="#f2_20" transform="matrix(10.4,0,0,10.4,184,693.4)" />
<use xlink:href="#f2_1y" transform="matrix(10.4,0,0,10.4,192.8,693.4)" />
<use xlink:href="#f2_2f" transform="matrix(10.4,0,0,10.4,200.8,693.4)" />
<use xlink:href="#f2_2a" transform="matrix(10.4,0,0,10.4,205.2,693.4)" />
<use xlink:href="#f2_2d" transform="matrix(10.4,0,0,10.4,214.1,693.4)" />
<use xlink:href="#f2_2i" transform="matrix(10.4,0,0,10.4,225.8,693.4)" />
<use xlink:href="#f2_23" transform="matrix(10.4,0,0,10.4,237.3,693.4)" />
<use xlink:href="#f2_24" transform="matrix(10.4,0,0,10.4,246.2,693.4)" />
<use xlink:href="#f2_1y" transform="matrix(10.4,0,0,10.4,249.8,693.4)" />
<use xlink:href="#f2_23" transform="matrix(10.4,0,0,10.4,257.7,693.4)" />
<use xlink:href="#f2_28" transform="matrix(10.4,0,0,10.4,273.2,693.4)" />
<use xlink:href="#f2_1w" transform="matrix(10.4,0,0,10.4,286.5,693.4)" />
<use xlink:href="#f2_26" transform="matrix(10.4,0,0,10.4,295.4,693.4)" />
<use xlink:href="#f2_20" transform="matrix(10.4,0,0,10.4,303.3,693.4)" />
<use xlink:href="#f2_2e" transform="matrix(10.4,0,0,10.4,312.2,693.4)" />
<use xlink:href="#f2_1w" transform="matrix(10.4,0,0,10.4,326.6,693.4)" />
<use xlink:href="#f2_29" transform="matrix(10.4,0,0,10.4,335.5,693.4)" />
<use xlink:href="#f2_1w" transform="matrix(10.4,0,0,10.4,350.9,693.4)" />
<use xlink:href="#f2_29" transform="matrix(10.4,0,0,10.4,359.8,693.4)" />
<use xlink:href="#f2_22" transform="matrix(10.4,0,0,10.4,368.7,693.4)" />
<use xlink:href="#f2_27" transform="matrix(10.4,0,0,10.4,377.5,693.4)" />
<use xlink:href="#f2_20" transform="matrix(10.4,0,0,10.4,381.1,693.4)" />
<use xlink:href="#f2_2a" transform="matrix(10.4,0,0,10.4,396.4,693.4)" />
<use xlink:href="#f2_21" transform="matrix(10.4,0,0,10.4,405.2,693.4)" />
<use xlink:href="#f2_n" transform="matrix(10.5,0,0,10.5,419.2,702.6)" />
<use xlink:href="#f5_2c" transform="matrix(10.5,0,0,10.5,419.2,681.4)" />
<use xlink:href="#f2_2i" transform="matrix(10.4,0,0,10.4,439.9,693.4)" />
<use xlink:href="#f2_24" transform="matrix(10.4,0,0,10.4,451.4,693.4)" />
<use xlink:href="#f2_2f" transform="matrix(10.4,0,0,10.4,454.9,693.4)" />
<use xlink:href="#f2_23" transform="matrix(10.4,0,0,10.4,459.4,693.4)" />
<use xlink:href="#f3_2j" transform="matrix(10.4,0,0,10.4,474.7,693.4)" />
<use xlink:href="#f2_g" transform="matrix(10.4,0,0,10.4,482.8,693.4)" />
<use xlink:href="#f2_1w" transform="matrix(10.4,0,0,10.4,488.1,693.4)" />
<use xlink:href="#f2_2j" transform="matrix(10.4,0,0,10.4,496.9,693.4)" />
<use xlink:href="#f2_24" transform="matrix(10.4,0,0,10.4,504.9,693.4)" />
<use xlink:href="#f2_2e" transform="matrix(10.4,0,0,10.4,508.5,693.4)" />
<use xlink:href="#f2_1w" transform="matrix(10.4,0,0,10.4,522.9,693.4)" />
<use xlink:href="#f2_29" transform="matrix(10.4,0,0,10.4,531.7,693.4)" />
<use xlink:href="#f2_1z" transform="matrix(10.4,0,0,10.4,540.6,693.4)" />
<use xlink:href="#f2_m" transform="matrix(10.5,0,0,10.5,560,702.6)" />
<use xlink:href="#f5_2c" transform="matrix(10.5,0,0,10.5,560,681.4)" />
<use xlink:href="#f2_2i" transform="matrix(10.4,0,0,10.4,580.9,693.4)" />
<use xlink:href="#f2_24" transform="matrix(10.4,0,0,10.4,592.4,693.4)" />
<use xlink:href="#f2_2f" transform="matrix(10.4,0,0,10.4,595.9,693.4)" />
<use xlink:href="#f2_23" transform="matrix(10.4,0,0,10.4,600.3,693.4)" />
<use xlink:href="#f3_2l" transform="matrix(10.4,0,0,10.4,84.5,719.8)" />
<use xlink:href="#f2_g" transform="matrix(10.4,0,0,10.4,92.6,719.8)" />
<use xlink:href="#f2_1w" transform="matrix(10.4,0,0,10.4,97.9,719.8)" />
<use xlink:href="#f2_2j" transform="matrix(10.4,0,0,10.4,106.8,719.8)" />
<use xlink:href="#f2_24" transform="matrix(10.4,0,0,10.4,114.8,719.8)" />
<use xlink:href="#f2_2e" transform="matrix(10.4,0,0,10.4,118.3,719.8)" />
<use xlink:href="#f2_1w" transform="matrix(10.4,0,0,10.4,133.6,719.8)" />
<use xlink:href="#f2_29" transform="matrix(10.4,0,0,10.4,142.5,719.8)" />
<use xlink:href="#f2_1z" transform="matrix(10.4,0,0,10.4,151.4,719.8)" />
<use xlink:href="#f2_1w" transform="matrix(10.4,0,0,10.4,167.4,719.8)" />
<use xlink:href="#f2_29" transform="matrix(10.4,0,0,10.4,176.2,719.8)" />
<use xlink:href="#f2_1w" transform="matrix(10.4,0,0,10.4,192.4,719.8)" />
<use xlink:href="#f2_1y" transform="matrix(10.4,0,0,10.4,201.3,719.8)" />
<use xlink:href="#f2_2g" transform="matrix(10.4,0,0,10.4,209.3,719.8)" />
<use xlink:href="#f2_2f" transform="matrix(10.4,0,0,10.4,218.2,719.8)" />
<use xlink:href="#f2_20" transform="matrix(10.4,0,0,10.4,222.6,719.8)" />
<use xlink:href="#f2_1w" transform="matrix(10.4,0,0,10.4,238.8,719.8)" />
<use xlink:href="#f2_29" transform="matrix(10.4,0,0,10.4,247.7,719.8)" />
<use xlink:href="#f2_22" transform="matrix(10.4,0,0,10.4,256.5,719.8)" />
<use xlink:href="#f2_27" transform="matrix(10.4,0,0,10.4,265.4,719.8)" />
<use xlink:href="#f2_20" transform="matrix(10.4,0,0,10.4,268.9,719.8)" />
<use xlink:href="#f2_2i" transform="matrix(10.4,0,0,10.4,285,719.8)" />
<use xlink:href="#f2_24" transform="matrix(10.4,0,0,10.4,296.5,719.8)" />
<use xlink:href="#f2_2f" transform="matrix(10.4,0,0,10.4,300,719.8)" />
<use xlink:href="#f2_23" transform="matrix(10.4,0,0,10.4,304.5,719.8)" />
<use xlink:href="#f3_2k" transform="matrix(10.4,0,0,10.4,319.8,719.8)" />
<use xlink:href="#f2_g" transform="matrix(10.4,0,0,10.4,327.8,719.8)" />
<use xlink:href="#f2_1w" transform="matrix(10.4,0,0,10.4,333.1,719.8)" />
<use xlink:href="#f2_2j" transform="matrix(10.4,0,0,10.4,342,719.8)" />
<use xlink:href="#f2_24" transform="matrix(10.4,0,0,10.4,350,719.8)" />
<use xlink:href="#f2_2e" transform="matrix(10.4,0,0,10.4,353.5,719.8)" />
<use xlink:href="#f2_h" transform="matrix(10.4,0,0,10.4,361.5,719.8)" />
<use xlink:href="#f2_q" transform="matrix(10.4,0,0,10.4,52.8,757.7)" />
<use xlink:href="#f2_h" transform="matrix(10.4,0,0,10.4,61.7,757.7)" />
<use xlink:href="#f2_18" transform="matrix(10.4,0,0,10.4,84.5,757.7)" />
<use xlink:href="#f2_21" transform="matrix(10.4,0,0,10.4,89,757.7)" />
<use xlink:href="#f3_10" transform="matrix(10.4,0,0,10.4,99.9,757.7)" />
<use xlink:href="#f2_24" transform="matrix(10.4,0,0,10.4,117.2,757.7)" />
<use xlink:href="#f2_2e" transform="matrix(10.4,0,0,10.4,120.7,757.7)" />
<use xlink:href="#f2_2f" transform="matrix(10.4,0,0,10.4,135.3,757.7)" />
<use xlink:href="#f2_23" transform="matrix(10.4,0,0,10.4,139.7,757.7)" />
<use xlink:href="#f2_20" transform="matrix(10.4,0,0,10.4,148.6,757.7)" />
<use xlink:href="#f2_2b" transform="matrix(10.4,0,0,10.4,164.3,757.7)" />
<use xlink:href="#f2_2a" transform="matrix(10.4,0,0,10.4,173.1,757.7)" />
<use xlink:href="#f2_24" transform="matrix(10.4,0,0,10.4,182,757.7)" />
<use xlink:href="#f2_29" transform="matrix(10.4,0,0,10.4,185.5,757.7)" />
<use xlink:href="#f2_2f" transform="matrix(10.4,0,0,10.4,194.4,757.7)" />
<use xlink:href="#f2_b" transform="matrix(10.4,0,0,10.4,205.4,757.7)" />
<use xlink:href="#f2_n" transform="matrix(10.4,0,0,10.4,210.8,757.7)" />
<use xlink:href="#f2_f" transform="matrix(10.4,0,0,10.4,219.6,757.7)" />
<use xlink:href="#f2_o" transform="matrix(10.4,0,0,10.4,230.7,757.7)" />
<use xlink:href="#f2_c" transform="matrix(10.4,0,0,10.4,239.5,757.7)" />
<use xlink:href="#f2_1w" transform="matrix(10.4,0,0,10.4,251.4,757.7)" />
<use xlink:href="#f2_29" transform="matrix(10.4,0,0,10.4,260.3,757.7)" />
<use xlink:href="#f2_1z" transform="matrix(10.4,0,0,10.4,269.2,757.7)" />
<use xlink:href="#f2_2h" transform="matrix(10.4,0,0,10.4,284.8,757.7)" />
<use xlink:href="#f2_20" transform="matrix(10.4,0,0,10.4,292.8,757.7)" />
<use xlink:href="#f2_1y" transform="matrix(10.4,0,0,10.4,301.7,757.7)" />
<use xlink:href="#f2_2f" transform="matrix(10.4,0,0,10.4,309.6,757.7)" />
<use xlink:href="#f2_2a" transform="matrix(10.4,0,0,10.4,314.1,757.7)" />
<use xlink:href="#f2_2d" transform="matrix(10.4,0,0,10.4,322.9,757.7)" />
<use xlink:href="#f3_10" transform="matrix(10.5,0,0,10.5,342,758.2)" />
<use xlink:href="#f3_11" transform="matrix(10.5,0,0,10.5,353.2,758.2)" />
<use xlink:href="#f4_23" transform="matrix(10.5,0,0,10.5,337.1,743.7)" />
<use xlink:href="#f4_23" transform="matrix(10.5,0,0,10.5,342.9,743.7)" />
<use xlink:href="#f4_23" transform="matrix(10.5,0,0,10.5,348.7,743.7)" />
<use xlink:href="#f4_23" transform="matrix(10.5,0,0,10.5,354.5,743.7)" />
<use xlink:href="#f4_23" transform="matrix(10.5,0,0,10.5,360.3,743.7)" />
<use xlink:href="#f4_20" transform="matrix(10.5,0,0,10.5,363.3,743.7)" />
<use xlink:href="#f2_23" transform="matrix(10.4,0,0,10.4,380.8,757.7)" />
<use xlink:href="#f2_1w" transform="matrix(10.4,0,0,10.4,389.7,757.7)" />
<use xlink:href="#f2_2e" transform="matrix(10.4,0,0,10.4,398.6,757.7)" />
<use xlink:href="#f2_1y" transform="matrix(10.4,0,0,10.4,413.3,757.7)" />
<use xlink:href="#f2_2a" transform="matrix(10.4,0,0,10.4,421.3,757.7)" />
<use xlink:href="#f2_28" transform="matrix(10.4,0,0,10.4,430.2,757.7)" />
<use xlink:href="#f2_2b" transform="matrix(10.4,0,0,10.4,443.5,757.7)" />
<use xlink:href="#f2_2a" transform="matrix(10.4,0,0,10.4,452.3,757.7)" />
<use xlink:href="#f2_29" transform="matrix(10.4,0,0,10.4,461.2,757.7)" />
<use xlink:href="#f2_20" transform="matrix(10.4,0,0,10.4,470.1,757.7)" />
<use xlink:href="#f2_29" transform="matrix(10.4,0,0,10.4,478.9,757.7)" />
<use xlink:href="#f2_2f" transform="matrix(10.4,0,0,10.4,487.8,757.7)" />
<use xlink:href="#f2_2e" transform="matrix(10.4,0,0,10.4,492.2,757.7)" />
<use xlink:href="#f2_l" transform="matrix(10.4,0,0,10.4,506.8,757.7)" />
<use xlink:href="#f2_1w" transform="matrix(10.4,0,0,10.4,522.3,757.7)" />
<use xlink:href="#f2_29" transform="matrix(10.4,0,0,10.4,531.2,757.7)" />
<use xlink:href="#f2_1z" transform="matrix(10.4,0,0,10.4,540,757.7)" />
<use xlink:href="#f2_p" transform="matrix(10.4,0,0,10.4,555.7,757.7)" />
<use xlink:href="#f2_1w" transform="matrix(10.4,0,0,10.4,571.1,757.7)" />
<use xlink:href="#f2_27" transform="matrix(10.4,0,0,10.4,580,757.7)" />
<use xlink:href="#f2_2a" transform="matrix(10.4,0,0,10.4,583.6,757.7)" />
<use xlink:href="#f2_29" transform="matrix(10.4,0,0,10.4,592.4,757.7)" />
<use xlink:href="#f2_22" transform="matrix(10.4,0,0,10.4,601.3,757.7)" />
<use xlink:href="#f3_2j" transform="matrix(10.4,0,0,10.4,84.6,779.7)" />
<use xlink:href="#f2_g" transform="matrix(10.4,0,0,10.4,92.6,779.7)" />
<use xlink:href="#f2_1w" transform="matrix(10.4,0,0,10.4,97.9,779.7)" />
<use xlink:href="#f2_2j" transform="matrix(10.4,0,0,10.4,106.8,779.7)" />
<use xlink:href="#f2_24" transform="matrix(10.4,0,0,10.4,114.8,779.7)" />
<use xlink:href="#f2_2e" transform="matrix(10.4,0,0,10.4,118.3,779.7)" />
<use xlink:href="#f2_1w" transform="matrix(10.4,0,0,10.4,133.4,779.7)" />
<use xlink:href="#f2_29" transform="matrix(10.4,0,0,10.4,142.3,779.7)" />
<use xlink:href="#f2_1z" transform="matrix(10.4,0,0,10.4,151.2,779.7)" />
<use xlink:href="#f3_2k" transform="matrix(10.4,0,0,10.4,167.1,779.7)" />
<use xlink:href="#f2_g" transform="matrix(10.4,0,0,10.4,175.1,779.7)" />
<use xlink:href="#f2_1w" transform="matrix(10.4,0,0,10.4,180.4,779.7)" />
<use xlink:href="#f2_2j" transform="matrix(10.4,0,0,10.4,189.3,779.7)" />
<use xlink:href="#f2_24" transform="matrix(10.4,0,0,10.4,197.3,779.7)" />
<use xlink:href="#f2_2e" transform="matrix(10.4,0,0,10.4,200.8,779.7)" />
<use xlink:href="#f2_2d" transform="matrix(10.4,0,0,10.4,216.1,779.7)" />
<use xlink:href="#f2_20" transform="matrix(10.4,0,0,10.4,221.4,779.7)" />
<use xlink:href="#f2_2e" transform="matrix(10.4,0,0,10.4,230.3,779.7)" />
<use xlink:href="#f2_2b" transform="matrix(10.4,0,0,10.4,238.3,779.7)" />
<use xlink:href="#f2_20" transform="matrix(10.4,0,0,10.4,247.2,779.7)" />
<use xlink:href="#f2_1y" transform="matrix(10.4,0,0,10.4,256,779.7)" />
<use xlink:href="#f2_2f" transform="matrix(10.4,0,0,10.4,264,779.7)" />
<use xlink:href="#f2_24" transform="matrix(10.4,0,0,10.4,268.4,779.7)" />
<use xlink:href="#f2_2h" transform="matrix(10.4,0,0,10.4,272,779.7)" />
<use xlink:href="#f2_20" transform="matrix(10.4,0,0,10.4,279.9,779.7)" />
<use xlink:href="#f2_27" transform="matrix(10.4,0,0,10.4,288.8,779.7)" />
<use xlink:href="#f2_2k" transform="matrix(10.4,0,0,10.4,292.4,779.7)" />
<use xlink:href="#f2_2f" transform="matrix(10.4,0,0,10.4,307.5,779.7)" />
<use xlink:href="#f2_23" transform="matrix(10.4,0,0,10.4,311.9,779.7)" />
<use xlink:href="#f2_20" transform="matrix(10.4,0,0,10.4,320.8,779.7)" />
<use xlink:href="#f2_29" transform="matrix(10.4,0,0,10.4,329.7,779.7)" />
<use xlink:href="#f2_2i" transform="matrix(10.4,0,0,10.4,345.9,779.7)" />
<use xlink:href="#f2_2d" transform="matrix(10.4,0,0,10.4,357.4,779.7)" />
<use xlink:href="#f2_24" transform="matrix(10.4,0,0,10.4,362.7,779.7)" />
<use xlink:href="#f2_2f" transform="matrix(10.4,0,0,10.4,366.2,779.7)" />
<use xlink:href="#f2_20" transform="matrix(10.4,0,0,10.4,370.7,779.7)" />
<use xlink:href="#f2_2b" transform="matrix(10.4,0,0,10.4,386.7,779.7)" />
<use xlink:href="#f2_2a" transform="matrix(10.4,0,0,10.4,395.5,779.7)" />
<use xlink:href="#f2_24" transform="matrix(10.4,0,0,10.4,404.4,779.7)" />
<use xlink:href="#f2_29" transform="matrix(10.4,0,0,10.4,408,779.7)" />
<use xlink:href="#f2_2f" transform="matrix(10.4,0,0,10.4,416.8,779.7)" />
<use xlink:href="#f3_11" transform="matrix(10.4,0,0,10.4,428,779.7)" />
<use xlink:href="#f2_h" transform="matrix(10.4,0,0,10.4,438.6,779.7)" />
<use xlink:href="#f6_12" transform="matrix(13,0,0,13,256.5,166.8)" />
<use xlink:href="#f6_17" transform="matrix(13,0,0,13,270.8,166.8)" />
<use xlink:href="#f6_10" transform="matrix(13,0,0,13,285.1,166.8)" />
<use xlink:href="#f6_1f" transform="matrix(13,0,0,13,299.4,166.8)" />
<use xlink:href="#f6_1j" transform="matrix(13,0,0,13,312.6,166.8)" />
<use xlink:href="#f6_14" transform="matrix(13,0,0,13,324.7,166.8)" />
<use xlink:href="#f6_1h" transform="matrix(13,0,0,13,337.9,166.8)" />
<use xlink:href="#f6_k" transform="matrix(13,0,0,13,360.5,166.8)" />
<use xlink:href="#f6_j" transform="matrix(13,0,0,13,371.5,166.8)" />
<use xlink:href="#f6_1l" transform="matrix(16,0,0,16,260.4,220.7)" />
<use xlink:href="#f6_14" transform="matrix(16,0,0,16,276.6,220.7)" />
<use xlink:href="#f6_12" transform="matrix(16,0,0,16,292.9,220.7)" />
<use xlink:href="#f6_1j" transform="matrix(16,0,0,16,310.5,220.7)" />
<use xlink:href="#f6_1e" transform="matrix(16,0,0,16,325.4,220.7)" />
<use xlink:href="#f6_1h" transform="matrix(16,0,0,16,344.4,220.7)" />
<use xlink:href="#f6_1i" transform="matrix(16,0,0,16,362,220.7)" />
</g>
<g fill="#0080FF" fill-opacity="0.5" >
<use xlink:href="#f0_1c" transform="matrix(35.8,0,0,35.8,171.5,1004.6)" />
<use xlink:href="#f0_21" transform="matrix(35.8,0,0,35.8,201.9,1004.6)" />
<use xlink:href="#f0_1x" transform="matrix(35.8,0,0,35.8,232.3,1004.6)" />
<use xlink:href="#f0_2e" transform="matrix(35.8,0,0,35.8,262.6,1004.6)" />
<use xlink:href="#f0_2a" transform="matrix(35.8,0,0,35.8,280.8,1004.6)" />
<use xlink:href="#f0_17" transform="matrix(35.8,0,0,35.8,311.2,1004.6)" />
<use xlink:href="#f0_2h" transform="matrix(35.8,0,0,35.8,353.7,1004.6)" />
<use xlink:href="#f0_25" transform="matrix(35.8,0,0,35.8,384.1,1004.6)" />
<use xlink:href="#f0_20" transform="matrix(35.8,0,0,35.8,396.2,1004.6)" />
<use xlink:href="#f0_21" transform="matrix(35.8,0,0,35.8,426.6,1004.6)" />
<use xlink:href="#f0_i" transform="matrix(35.8,0,0,35.8,457,1004.6)" />
<use xlink:href="#f0_25" transform="matrix(35.8,0,0,35.8,472.1,1004.6)" />
<use xlink:href="#f0_2a" transform="matrix(35.8,0,0,35.8,484.3,1004.6)" />
</g>
<defs>
<path d="M593,101c0,0,182,0,279,112c0,0,98,113,98,318c0,0,0,196,-98,308c0,0,-98,112,-277,112c0,0,-181,0,-279,-110c0,0,-99,-111,-99,-310c0,0,0,-198,100,-314c0,0,99,-116,276,-116Zm0,-115c0,0,-162,0,-279,65c0,0,-118,66,-180,190c0,0,-62,124,-62,290c0,0,0,252,138,394c0,0,138,142,385,142c0,0,160,0,278,-64c0,0,118,-64,180,-185c0,0,62,-122,62,-287c0,0,0,-165,-63,-289c0,0,-63,-124,-181,-190c0,0,-118,-66,-278,-66Z" 
id="f0_1f"
transform="scale(0.001,-0.001)" />

<path d="M106,0V635c0,0,0,141,-5,173H228c0,0,1,-4,2,-21c0,0,1,-16,2,-37c0,0,1,-22,2,-81h2c0,0,47,84,108,119c0,0,60,34,151,34c0,0,132,0,194,-66c0,0,61,-66,61,-218V0H615V512c0,0,0,80,-15,124c0,0,-16,44,-50,63c0,0,-35,20,-101,20c0,0,-97,0,-153,-67c0,0,-56,-66,-56,-184V0Z" 
id="f0_2a"
transform="scale(0.001,-0.001)" />

<path d="M103,0V1107H237V0Z" 
id="f0_28"
transform="scale(0.001,-0.001)" />

<path d="M102,0V808H236V0Zm0,979v128H236V979Z" 
id="f0_25"
transform="scale(0.001,-0.001)" />

<path d="M643,478c0,0,-11,128,-65,187c0,0,-54,59,-154,59c0,0,-98,0,-155,-66c0,0,-57,-65,-62,-180ZM431,-14c0,0,-179,0,-272,106c0,0,-94,107,-94,317c0,0,0,200,94,307c0,0,93,106,267,106c0,0,356,0,356,-429V375H206c0,0,0,-138,57,-213c0,0,58,-75,168,-75c0,0,87,0,140,35c0,0,53,35,71,88L760,177c0,0,-72,-191,-329,-191Z" 
id="f0_21"
transform="scale(0.001,-0.001)" />

<path d="M17,0L304,415L31,808H179L380,493L580,808H730L457,417L747,0H598L380,331L162,0Z" 
id="f0_2k"
transform="scale(0.001,-0.001)" />

<path d="M339,87c0,0,74,0,132,34c0,0,57,33,90,91c0,0,34,59,34,121v66L448,396c0,0,-95,-2,-144,-19c0,0,-49,-18,-75,-55c0,0,-26,-38,-26,-98c0,0,0,-65,35,-101c0,0,36,-36,101,-36ZM309,-14c0,0,-122,0,-183,64c0,0,-61,64,-61,176c0,0,0,125,82,192c0,0,83,67,266,72l182,3v44c0,0,0,98,-42,141c0,0,-42,43,-132,43c0,0,-90,0,-131,-31c0,0,-41,-31,-49,-98L101,604c0,0,34,218,323,218c0,0,153,0,229,-70c0,0,77,-69,77,-202V202c0,0,0,-59,16,-90c0,0,16,-30,60,-30c0,0,19,0,44,5V4C850,4,799,-7,746,-7c0,0,-75,0,-109,38c0,0,-33,40,-38,124h-4C595,155,543,62,475,24c0,0,-68,-38,-166,-38Z" 
id="f0_1x"
transform="scale(0.001,-0.001)" />

<path d="M106,0V635c0,0,0,141,-5,173H228c0,0,1,-4,2,-21c0,0,1,-16,2,-37c0,0,1,-22,2,-81h2c0,0,44,86,100,120c0,0,56,33,136,33c0,0,92,0,145,-36c0,0,54,-37,75,-117h2c0,0,42,82,101,117c0,0,59,36,143,36c0,0,123,0,178,-66c0,0,56,-67,56,-218V0H1039V512c0,0,0,117,-32,162c0,0,-32,45,-116,45c0,0,-88,0,-136,-66c0,0,-49,-65,-49,-185V0H573V512c0,0,0,117,-32,162c0,0,-32,45,-116,45c0,0,-86,0,-136,-66c0,0,-50,-66,-50,-185V0Z" 
id="f0_29"
transform="scale(0.001,-0.001)" />

<path d="M453,84c0,0,100,0,146,74c0,0,46,73,46,247c0,0,0,169,-46,241c0,0,-45,73,-145,73c0,0,-80,0,-125,-34c0,0,-45,-34,-68,-105c0,0,-24,-71,-24,-186c0,0,0,-159,51,-234c0,0,51,-76,165,-76ZM103,-316V643c0,0,0,124,-5,165H228c0,0,1,-3,3,-22c0,0,1,-18,3,-56c0,0,2,-38,2,-52h3c0,0,36,75,94,110c0,0,59,34,156,34c0,0,149,0,223,-100c0,0,74,-100,74,-314c0,0,0,-422,-297,-422c0,0,-187,0,-251,140h-4c0,0,3,-6,3,-126V-316Z" 
id="f0_2c"
transform="scale(0.001,-0.001)" />

<path d="M420,84c0,0,121,0,173,78c0,0,52,77,52,243c0,0,0,167,-50,243c0,0,-50,76,-167,76c0,0,-118,0,-170,-78c0,0,-53,-77,-53,-241c0,0,0,-160,52,-241c0,0,52,-80,163,-80Zm1,-98c0,0,-176,0,-267,107c0,0,-90,108,-90,312c0,0,0,417,362,417c0,0,185,0,272,-102c0,0,88,-101,88,-315c0,0,0,-212,-94,-316C692,89,599,-14,421,-14Z" 
id="f0_2b"
transform="scale(0.001,-0.001)" />

<path d="M278,-11c0,0,-162,0,-162,182V710H23v98h99l39,181h90V808H400V710H251V200c0,0,0,-58,19,-82c0,0,19,-23,66,-23c0,0,27,0,77,10V6c0,0,-66,-17,-135,-17Z" 
id="f0_2g"
transform="scale(0.001,-0.001)" />

<path d="M431,0L102,922c0,0,-19,55,-51,110c0,0,-31,56,-86,135H386c0,0,-7,-41,-6,-71c0,0,1,-31,11,-63L581,398l219,635c0,0,12,33,14,63c0,0,3,30,-3,71h378c0,0,-33,-44,-61,-99c0,0,-29,-55,-67,-146L694,0Z" 
id="f1_1l"
transform="scale(0.001,-0.001)" />

<path d="M102,0c0,0,22,54,31,110c0,0,10,55,10,135V922c0,0,0,81,-10,136c0,0,-9,55,-31,109H823L766,1041L709,913c0,0,-42,20,-137,36c0,0,-62,9,-121,13V697H798L728,569L657,441c0,0,-45,21,-131,36c0,0,-38,8,-75,11V206c0,0,117,6,201,22c0,0,126,24,239,84L827,156L762,0Z" 
id="f1_14"
transform="scale(0.001,-0.001)" />

<path d="M452,645c0,0,85,0,139,47c0,0,54,47,54,121c0,0,0,66,-51,107c0,0,-51,42,-132,42H442V645ZM93,0c0,0,22,54,32,110c0,0,9,55,9,135V922c0,0,0,81,-9,136c0,0,-10,55,-32,109H498c0,0,215,0,332,-90c0,0,117,-90,117,-256c0,0,0,-159,-129,-253c0,0,-46,-34,-103,-54L902,246c0,0,57,-82,107,-137c0,0,50,-55,115,-109H803c0,0,-30,0,-104,83c0,0,-73,83,-149,202L442,461V246c0,0,0,-81,9,-136c0,0,10,-56,32,-110Z" 
id="f1_1h"
transform="scale(0.001,-0.001)" />

<path d="M319,0c0,0,22,54,31,110c0,0,10,55,10,135V518L134,922c0,0,-57,100,-95,155c0,0,-37,55,-71,90H351c0,0,4,-29,12,-53c0,0,7,-24,22,-54L517,787l152,273c0,0,14,25,23,49c0,0,9,24,16,58h354c0,0,-35,-33,-73,-88c0,0,-38,-56,-99,-157L668,536V245c0,0,0,-80,9,-135c0,0,9,-56,32,-110Z" 
id="f1_1o"
transform="scale(0.001,-0.001)" />

<path d="M367,-20c0,0,-85,0,-142,12C225,-8,167,2,83,35V332c0,0,41,-55,107,-90c0,0,66,-35,130,-35c0,0,51,0,84,31c0,0,32,31,32,81c0,0,0,49,-23,86c0,0,-22,37,-82,83c0,0,-126,98,-184,181c0,0,-57,82,-57,165c0,0,0,155,106,253c0,0,106,98,272,98c0,0,62,0,133,-13c0,0,71,-13,120,-33V867c0,0,-59,49,-104,70c0,0,-46,20,-94,20c0,0,-47,0,-76,-24c0,0,-29,-25,-29,-63c0,0,0,-41,20,-73c0,0,21,-31,75,-73c0,0,130,-101,189,-189c0,0,59,-87,59,-180c0,0,0,-165,-110,-270C651,85,541,-20,367,-20Z" 
id="f1_1i"
transform="scale(0.001,-0.001)" />

<path d="M99,0c0,0,22,54,32,110c0,0,9,55,9,135V922c0,0,0,81,-10,136c0,0,-9,55,-31,109H489c0,0,-23,-54,-32,-109c0,0,-9,-55,-9,-136V712H790V922c0,0,0,81,-9,136c0,0,-10,55,-32,109h390c0,0,-22,-54,-32,-109c0,0,-9,-55,-9,-136V245c0,0,0,-80,9,-135c0,0,10,-56,32,-110H749c0,0,22,54,32,110c0,0,9,55,9,135V478H448V245c0,0,0,-80,9,-135c0,0,9,-56,32,-110Z" 
id="f1_17"
transform="scale(0.001,-0.001)" />

<path d="M822,206c14,0,28,0,42,1c0,0,53,50,87,150c0,0,34,101,34,210c0,0,0,188,-132,297c0,0,-113,95,-296,95c-13,0,-27,-1,-42,-2c0,0,-53,-49,-86,-150c0,0,-34,-102,-34,-212c0,0,0,-186,132,-295c0,0,114,-94,295,-94ZM690,-20c0,0,-276,0,-452,168C238,148,63,317,63,581c0,0,0,266,175,435c0,0,176,169,452,169c0,0,277,0,452,-169c0,0,175,-169,175,-435c0,0,0,-264,-175,-433c0,0,-175,-168,-452,-168Z" 
id="f1_1e"
transform="scale(0.001,-0.001)" />

<path d="M289,0c0,0,26,60,37,116c0,0,9,55,9,129V961c0,0,-94,-3,-160,-9c0,0,-116,-13,-188,-44l41,130l41,129H981L946,1042L912,917c0,0,-45,18,-154,32c0,0,-58,8,-115,11V245c0,0,0,-74,11,-129c0,0,10,-56,35,-116Z" 
id="f1_1j"
transform="scale(0.001,-0.001)" />

<path d="M693,499L573,830L462,499ZM-39,0c0,0,33,42,61,97c0,0,30,55,71,148l314,761c0,0,22,51,38,98c0,0,15,47,17,63H721c0,0,2,-16,18,-63c0,0,15,-47,37,-98L1091,245c0,0,41,-95,70,-150c0,0,30,-55,60,-95H849c0,0,3,25,-3,55c0,0,-6,30,-24,80L765,295H393L340,135c0,0,-17,-50,-22,-80c0,0,-5,-30,-2,-55Z" 
id="f1_10"
transform="scale(0.001,-0.001)" />

<path d="M108,0c0,0,22,54,31,110c0,0,10,55,10,135V985L-5,1167H418c0,0,21,-44,54,-99c0,0,34,-55,96,-146L857,495V922c0,0,0,81,-9,136c0,0,-9,55,-32,109h378c0,0,-23,-54,-32,-109c0,0,-9,-55,-9,-136V351c0,0,0,-76,11,-178c0,0,11,-101,27,-173H845c0,0,-7,25,-28,67c0,0,-21,42,-45,78L444,628V245c0,0,0,-80,9,-135c0,0,10,-56,32,-110Z" 
id="f1_1d"
transform="scale(0.001,-0.001)" />

<path d="M324,0L78,922c0,0,-23,85,-44,140c0,0,-22,55,-50,105H376c0,0,-7,-56,-7,-99c0,0,1,-42,11,-89L479,513L610,998c0,0,11,42,21,91c0,0,10,49,13,78H861c0,0,4,-36,12,-85c0,0,9,-50,18,-84L1021,492l115,540c0,0,8,33,6,63c0,0,-1,31,-12,72h378c0,0,-30,-50,-52,-105c0,0,-21,-56,-45,-140L1166,0H925L741,597L565,0Z" 
id="f1_1m"
transform="scale(0.001,-0.001)" />

<path d="M462,650c0,0,82,0,133,46c0,0,52,47,52,119c0,0,0,65,-48,106c0,0,-49,41,-125,41H452V650ZM103,0c0,0,22,54,32,110c0,0,9,55,9,135V922c0,0,0,81,-10,136c0,0,-9,55,-31,109H505c0,0,212,0,327,-93c0,0,114,-94,114,-268c0,0,0,-166,-127,-264c0,0,-127,-97,-343,-97H452V246c0,0,0,-81,9,-136c0,0,9,-56,32,-110Z" 
id="f1_1f"
transform="scale(0.001,-0.001)" />

<path d="M821,206c13,0,26,0,40,1c0,0,53,33,86,127c0,0,34,94,34,210c0,0,0,198,-131,314c0,0,-114,101,-297,101c-13,0,-27,-1,-40,-2c0,0,-53,-49,-87,-144c0,0,-33,-95,-33,-195c0,0,0,-197,131,-312c0,0,115,-100,297,-100Zm413,-442c-84,0,-186,15,-288,68c0,0,-113,58,-202,151c0,0,-22,-3,-48,-3c-3,0,-6,0,-9,0c0,0,-276,0,-452,168C235,148,60,316,60,581c0,0,0,266,175,435c0,0,176,169,452,169c0,0,277,0,452,-169c0,0,175,-169,175,-435c0,0,0,-265,-176,-433c0,0,-29,-28,-59,-51c0,0,51,-79,111,-141c0,0,104,-109,233,-165c0,0,-78,-27,-189,-27Z" 
id="f1_1g"
transform="scale(0.001,-0.001)" />

<path d="M512,-17c0,0,-191,0,-285,112c0,0,-94,113,-93,341V922c0,0,0,81,-9,136c0,0,-10,55,-32,109H483c0,0,-22,-54,-32,-109c0,0,-9,-56,-9,-136V502c0,0,0,-147,43,-219c0,0,43,-72,130,-72c0,0,85,0,127,62c0,0,42,61,42,187V922c0,0,0,80,-9,136c0,0,-10,55,-32,109h390c0,0,-22,-54,-31,-109c0,0,-10,-55,-10,-136V245c0,0,0,-80,9,-135c0,0,10,-56,32,-110H815l6,86C821,86,703,-17,512,-17Z" 
id="f1_1k"
transform="scale(0.001,-0.001)" />

<path d="M105,0c0,0,22,54,32,110c0,0,9,55,9,135V922c0,0,0,80,-10,135c0,0,-9,55,-31,110H495c0,0,-23,-54,-32,-109c0,0,-9,-55,-9,-136V245c0,0,0,-80,9,-135c0,0,9,-56,32,-110Z" 
id="f1_18"
transform="scale(0.001,-0.001)" />

<path d="M449,-255c0,0,-184,222,-259,382c0,0,-75,160,-75,331c0,0,0,172,75,332c0,0,75,161,259,382H673c0,0,-156,-201,-220,-362c0,0,-64,-160,-64,-352c0,0,0,-192,64,-352c0,0,64,-160,220,-361Z" 
id="f1_b"
transform="scale(0.001,-0.001)" />

<path d="M335,0c0,0,23,55,32,110c0,0,9,55,9,136V811L199,810v3l443,366V246c0,0,0,-81,10,-136c0,0,9,-56,31,-110Z" 
id="f1_k"
transform="scale(0.001,-0.001)" />

<path d="M90,0c0,0,22,54,32,110c0,0,9,55,9,135V996L-14,1167H428c0,0,2,-38,9,-63c0,0,8,-24,24,-44L752,691l296,369c0,0,23,28,33,53c0,0,10,24,11,54h346c0,0,-50,-120,-70,-208c0,0,-20,-88,-20,-184V245c0,0,0,-80,10,-135c0,0,9,-56,31,-110H999c0,0,23,54,32,110c0,0,9,55,9,135V675L741,291h-1L441,681V245c0,0,0,-80,9,-135c0,0,10,-56,32,-110Z" 
id="f1_1c"
transform="scale(0.001,-0.001)" />

<path d="M90,0c0,0,22,54,32,110c0,0,9,55,9,135V922c0,0,0,81,-9,136c0,0,-10,55,-32,109H480c0,0,-22,-54,-32,-109c0,0,-9,-55,-9,-136V739l269,348c0,0,23,27,33,45c0,0,11,18,14,35h396c0,0,-38,-23,-94,-79c0,0,-55,-55,-153,-166L651,635L957,245c0,0,84,-105,135,-160c0,0,51,-55,93,-85H749c0,0,-25,51,-60,107c0,0,-35,55,-95,138L439,463V245c0,0,0,-80,9,-135c0,0,10,-56,32,-110Z" 
id="f1_1a"
transform="scale(0.001,-0.001)" />

<path d="M115,-255c0,0,156,201,220,361c0,0,64,160,64,352c0,0,0,192,-64,352c0,0,-64,161,-220,362H339c0,0,184,-222,259,-383c0,0,75,-160,75,-331c0,0,0,-171,-75,-332c0,0,-75,-160,-259,-381Z" 
id="f1_c"
transform="scale(0.001,-0.001)" />

<path d="M406,0V763H155V870h2c16,0,114,2,178,48c0,0,70,51,104,157H549V0Z" 
id="f2_k"
transform="scale(0.001,-0.001)" />

<path d="M133,0V162H292V0Z" 
id="f2_h"
transform="scale(0.001,-0.001)" />

<path d="M312,0L24,1098l80,-1l81,1L380,230c0,0,6,-22,9,-42c0,0,3,-17,3,-26c0,4,1,13,4,28c0,0,4,20,9,40l232,867H804L1035,234c0,0,6,-20,10,-41c0,0,3,-19,3,-29c0,3,1,12,4,28c0,0,3,21,8,42l198,864l80,-1l79,1L1130,0H971L733,849c0,0,-6,21,-11,42c0,0,-4,21,-4,29c0,0,0,-9,-4,-30c0,0,-4,-20,-10,-41L471,0Z" 
id="f2_1m"
transform="scale(0.001,-0.001)" />

<path d="M99,0V1097H233V690l23,30c0,0,87,102,219,102c0,0,132,0,203,-71c0,0,72,-72,72,-204V0H616V514c0,0,0,99,-38,142c0,0,-38,44,-124,44c0,0,-102,0,-162,-73c0,0,-59,-74,-59,-199V0Z" 
id="f2_23"
transform="scale(0.001,-0.001)" />

<path d="M335,90c0,0,106,0,179,57c0,0,50,41,67,91c0,0,3,10,4,31c0,0,3,21,3,47v87c0,0,-38,-18,-83,-25L381,360c0,0,-97,-13,-142,-45c0,0,-44,-31,-44,-86c0,0,0,-67,36,-103c0,0,37,-36,104,-36ZM309,-20c0,0,-117,0,-186,61c0,0,-68,63,-68,169c0,0,0,108,64,171c0,0,65,64,189,79l183,23c0,0,22,3,42,8c0,0,26,7,40,27c0,0,15,20,15,51v6c0,0,0,64,-49,101c0,0,-48,36,-135,36c0,0,-83,0,-130,-38c0,0,-46,-39,-56,-115H94c0,0,10,131,92,197c0,0,83,66,238,66c0,0,145,0,222,-63c0,0,76,-63,76,-184V137c0,0,0,-21,12,-33c0,0,12,-12,33,-12c0,0,6,0,18,1c0,0,11,2,25,5V1c0,0,-20,-7,-41,-11c0,0,-22,-5,-37,-5c0,0,-76,0,-110,41c0,0,-22,28,-32,79c0,0,-15,-19,-34,-36c0,0,-101,-89,-247,-89Z" 
id="f2_1w"
transform="scale(0.001,-0.001)" />

<path d="M292,-9c0,0,-88,0,-124,38c0,0,-36,39,-36,134V689H22V799H132v224H266V799H392V689H266V163c0,0,0,-27,21,-43c0,0,21,-15,57,-15h48V1C392,1,324,-9,292,-9Z" 
id="f2_2f"
transform="scale(0.001,-0.001)" />

<path d="M118,0V799H246V662c0,0,17,32,36,58c0,0,76,102,187,102c0,0,19,0,38,-6V679l-27,1c0,0,-109,0,-168,-66c0,0,-60,-65,-60,-186V0Z" 
id="f2_2d"
transform="scale(0.001,-0.001)" />

<path d="M649,461c0,0,-6,111,-55,172c0,0,-55,69,-160,69c0,0,-106,0,-170,-79c0,0,-50,-62,-60,-162ZM425,-20c0,0,-169,0,-266,106c0,0,-97,107,-97,297c0,0,0,201,102,320c0,0,103,119,276,119c0,0,157,0,253,-116c0,0,96,-117,96,-306l-1,-48H204c0,0,8,-119,54,-182c0,0,57,-76,180,-76c0,0,77,0,134,43c0,0,58,43,70,110H775C775,247,746,116,656,47c0,0,-90,-67,-231,-67Z" 
id="f2_20"
transform="scale(0.001,-0.001)" />

<path d="M424,94c0,0,107,0,169,83c0,0,63,83,63,223c0,0,0,140,-63,224c0,0,-62,83,-169,83c0,0,-106,0,-168,-83c0,0,-62,-84,-62,-224c0,0,0,-140,62,-223c0,0,62,-83,168,-83Zm0,-114c0,0,-165,0,-268,115C156,95,54,211,54,400c0,0,0,189,102,306c0,0,103,116,268,116c0,0,168,0,270,-116c0,0,102,-117,102,-306c0,0,0,-189,-102,-305C694,95,592,-20,424,-20Z" 
id="f2_2a"
transform="scale(0.001,-0.001)" />

<path d="M104,0V799H238V0Zm-2,946v152H239V946Z" 
id="f2_24"
transform="scale(0.001,-0.001)" />

<path d="M47,0V105L526,687H83V799H706V695L227,111H717V0Z" 
id="f2_2l"
transform="scale(0.001,-0.001)" />

<path d="M99,0V799H226V681l30,39c0,0,87,102,219,102c0,0,132,0,203,-71c0,0,72,-72,72,-204V0H616V502c0,0,0,105,-41,151c0,0,-40,47,-132,47c0,0,-97,0,-154,-73c0,0,-56,-74,-56,-199V0Z" 
id="f2_29"
transform="scale(0.001,-0.001)" />

<path d="M103,0V1097H237V0Z" 
id="f2_27"
transform="scale(0.001,-0.001)" />

<path d="M411,93c0,0,98,0,158,73c0,0,60,74,60,195c0,0,0,163,-57,252c0,0,-56,88,-161,88c0,0,-113,0,-165,-72c0,0,-52,-72,-52,-229c0,0,0,-147,56,-227c0,0,56,-80,161,-80ZM404,-20c0,0,-161,0,-255,118c0,0,-95,120,-95,324c0,0,0,179,92,290c0,0,91,110,239,110c0,0,147,0,233,-124l11,-15v414H763V0H638V109L621,84C621,84,538,-20,404,-20Z" 
id="f2_1z"
transform="scale(0.001,-0.001)" />

<path d="M310,0L12,799H168L383,145L604,799H752L454,0Z" 
id="f2_2h"
transform="scale(0.001,-0.001)" />

<path d="M394,-20c0,0,-159,0,-253,113c0,0,-95,114,-95,307c0,0,0,193,98,308c0,0,98,114,264,114c0,0,144,0,230,-78c0,0,85,-79,91,-217H600c0,0,-8,86,-59,133c0,0,-52,47,-138,47c0,0,-101,0,-159,-82c0,0,-58,-82,-58,-225c0,0,0,-152,54,-229c0,0,53,-77,159,-77c0,0,79,0,132,50c0,0,52,51,69,143H729C729,287,709,137,623,58c0,0,-86,-78,-229,-78Z" 
id="f2_1y"
transform="scale(0.001,-0.001)" />

<path d="M99,0V799H226V680l28,36c0,0,90,106,215,106c0,0,107,0,171,-63c0,0,28,-28,44,-65l21,28c0,0,87,100,208,100c0,0,125,0,194,-68c0,0,68,-68,68,-194V0H1041V515c0,0,0,91,-37,138c0,0,-38,47,-110,47c0,0,-87,0,-139,-68c0,0,-52,-68,-52,-183V0H569V547c0,0,0,75,-34,114c0,0,-34,39,-99,39c0,0,-89,0,-146,-76c0,0,-57,-76,-57,-196V0Z" 
id="f2_28"
transform="scale(0.001,-0.001)" />

<path d="M436,95c0,0,105,0,160,79c0,0,54,80,54,232c0,0,0,150,-52,222c0,0,-52,72,-161,72c0,0,-112,0,-163,-81c0,0,-51,-82,-51,-258c0,0,0,-127,55,-197c0,0,55,-69,158,-69ZM89,-315V799H216V685l7,10c0,0,86,127,228,127c0,0,156,0,248,-108c0,0,91,-107,91,-291c0,0,0,-208,-92,-326C698,97,606,-20,442,-20c0,0,-135,0,-215,102l-4,6V-315Z" 
id="f2_2b"
transform="scale(0.001,-0.001)" />

<path d="M393,-20c0,0,-169,0,-252,65c0,0,-83,67,-92,210H178c0,0,10,-85,61,-123c0,0,50,-38,154,-38c0,0,90,0,136,34c0,0,47,35,47,100c0,0,0,42,-31,64c0,0,-30,21,-123,43L283,368c0,0,-112,27,-160,75c0,0,-48,48,-48,135c0,0,0,112,80,178c0,0,81,66,218,66c0,0,140,0,222,-68c0,0,82,-67,88,-187H557c0,0,-6,67,-55,103c0,0,-48,37,-129,37c0,0,-84,0,-127,-29c0,0,-44,-29,-44,-85c0,0,0,-43,31,-65c0,0,30,-21,121,-43L493,452c0,0,117,-28,167,-78c0,0,49,-49,49,-138c0,0,0,-119,-86,-188c0,0,-85,-68,-230,-68Z" 
id="f2_2e"
transform="scale(0.001,-0.001)" />

<path d="M132,0V687H22V799H132V935c0,0,0,88,52,133c0,0,52,45,157,45l59,-3V989l-53,2c0,0,-39,0,-60,-24c0,0,-21,-25,-21,-71V799H400V687H266V0Z" 
id="f2_21"
transform="scale(0.001,-0.001)" />

<path d="M354,90c0,0,107,0,192,57c0,0,60,41,87,95c0,0,5,12,11,33c0,0,6,20,11,44l18,88c0,0,-62,-26,-132,-37L414,352c0,0,-84,-11,-131,-56c0,0,-47,-45,-47,-113c0,0,0,-44,31,-69c0,0,31,-24,87,-24ZM306,-20c0,0,-99,0,-156,47c0,0,-57,49,-57,134c0,0,1,117,81,198c0,0,80,81,211,98l164,20l70,10c0,0,35,6,59,30c0,0,23,24,31,66l1,2c0,0,13,64,-25,94c0,0,-39,31,-132,31c0,0,-83,0,-137,-37c0,0,-54,-37,-84,-114H210c0,0,46,137,138,201c0,0,92,63,245,63c0,0,149,0,211,-59c0,0,45,-44,44,-116c0,0,1,-30,-6,-63L749,136c0,0,-4,-19,6,-32c0,0,10,-12,30,-12c0,0,6,0,19,1c0,0,12,2,25,5L809,1c0,0,-19,-6,-43,-11c0,0,-22,-5,-36,-5c0,0,-73,0,-100,43c0,0,-16,27,-17,75C612,102,594,85,573,69c0,0,-120,-89,-267,-89Z" 
id="f3_1w"
transform="scale(0.001,-0.001)" />

<path d="M0,-26V27H626V-26Z" 
id="f4_23"
transform="scale(0.001,-0.001)" />

<path d="M413,-106l30,80H0V27H443l-30,80L626,0L413,-106Z" 
id="f4_20"
transform="scale(0.001,-0.001)" />

<path d="M418,95c0,0,98,0,158,73c0,0,59,73,59,193c0,0,0,170,-54,254c0,0,-54,85,-163,85c0,0,-113,0,-165,-72c0,0,-52,-71,-52,-227c0,0,0,-147,57,-227c0,0,56,-79,160,-79ZM394,-336c0,0,-136,0,-216,62c0,0,-79,63,-96,182H219c0,0,12,-64,57,-98c0,0,45,-35,116,-35c0,0,116,0,176,73c0,0,61,73,61,211V85l-1,-1C628,84,545,-20,412,-20c0,0,-161,0,-256,118c0,0,-94,120,-94,324c0,0,0,179,93,290c0,0,93,110,244,110c0,0,144,0,228,-124l10,-14V799H763V59c0,0,-1,-201,-91,-298c0,0,-91,-97,-278,-97Z" 
id="f2_22"
transform="scale(0.001,-0.001)" />

<path d="M375,-20c0,0,-136,0,-203,66c0,0,-68,68,-68,204V799H238V284c0,0,0,-101,38,-146c0,0,39,-44,127,-44c0,0,97,0,153,75c0,0,57,75,57,203V799H747V0H620V122c0,0,-14,-22,-30,-41C590,81,504,-20,375,-20Z" 
id="f2_2g"
transform="scale(0.001,-0.001)" />

<path d="M417,-28c0,0,-161,0,-259,79c0,0,-98,81,-109,223H189c0,0,11,-90,72,-139c0,0,61,-49,162,-49c0,0,96,0,158,68c0,0,61,68,61,175c0,0,0,112,-64,178c0,0,-64,66,-173,66c0,0,-59,0,-115,-28c0,0,-55,-29,-84,-73L93,480l77,573H727V922H271L225,629l4,3c0,0,89,60,188,60c0,0,169,0,269,-94c0,0,99,-93,99,-253c0,0,0,-165,-103,-269C682,76,579,-28,417,-28Z" 
id="f2_o"
transform="scale(0.001,-0.001)" />

<path d="M103,0V1097H237V465L574,799H745L441,503L765,0H590L342,406L237,303V0Z" 
id="f2_26"
transform="scale(0.001,-0.001)" />

<path d="M424,92c0,0,114,0,170,107c0,0,57,108,56,323c0,0,1,216,-56,324c0,0,-56,107,-170,107c0,0,-112,0,-168,-107c0,0,-56,-108,-57,-324c0,0,1,-215,57,-323c0,0,56,-107,168,-107Zm0,-120c0,0,-176,0,-271,142c0,0,-96,143,-96,408c0,0,0,265,96,409c0,0,95,144,271,144c0,0,178,0,273,-144c0,0,96,-144,96,-409c0,0,0,-265,-96,-408c0,0,-95,-142,-273,-142Z" 
id="f2_j"
transform="scale(0.001,-0.001)" />

<path d="M305,697c0,0,64,0,108,44c0,0,45,44,45,108c0,0,0,64,-45,108c0,0,-44,44,-108,44c0,0,-64,0,-108,-44c0,0,-43,-44,-43,-108c0,0,0,-64,43,-108c0,0,44,-44,108,-44Zm0,-70c0,0,-93,0,-157,64c0,0,-65,65,-65,158c0,0,0,94,65,158c0,0,64,65,157,65c0,0,94,0,159,-65c0,0,64,-64,64,-158c0,0,0,-93,-64,-158c0,0,-65,-64,-159,-64Z" 
id="f2_3a"
transform="scale(0.001,-0.001)" />

<path d="M248,0L21,799H169L322,163L478,799H627L788,158L950,799h133L857,0H713L548,624L392,0Z" 
id="f2_2i"
transform="scale(0.001,-0.001)" />

<path d="M17,0L389,412L201,800H376L500,518L742,800H904L554,410L750,0H580L448,303L187,0Z" 
id="f3_2j"
transform="scale(0.001,-0.001)" />

<path d="M67,354V492H442V354Z" 
id="f2_g"
transform="scale(0.001,-0.001)" />

<path d="M17,0L301,412L32,799H205L389,514L574,799H740L471,410L749,0H581L382,305L186,0Z" 
id="f2_2j"
transform="scale(0.001,-0.001)" />

<path d="M39,0V0c0,0,0,170,84,277c0,0,85,108,317,236c0,0,113,62,154,115c0,0,41,52,41,134c0,0,0,86,-62,141c0,0,-61,54,-156,54c0,0,-101,0,-158,-68c0,0,-57,-68,-60,-194H67c0,0,-2,178,95,279c0,0,98,101,273,101c0,0,149,0,245,-89c0,0,94,-88,94,-228c0,0,0,-118,-60,-195c0,0,-61,-76,-229,-169C485,394,303,294,237,212c0,0,-28,-36,-46,-81H774V0Z" 
id="f2_l"
transform="scale(0.001,-0.001)" />

<path d="M398,0C398,0,266,0,185,39c0,0,-82,39,-133,124C52,163,0,248,0,342c0,0,0,144,103,243c0,0,103,98,292,98H694V611H387c0,0,-99,0,-166,-32c0,0,-68,-32,-105,-88c0,0,-26,-40,-41,-113H694V304H75c0,0,30,-120,103,-176c0,0,73,-56,210,-56H694V0Z" 
id="f5_40"
transform="scale(0.001,-0.001)" />

<path d="M773,597c0,0,120,0,185,67c0,0,65,66,65,188c0,0,0,57,-42,88c0,0,-43,31,-119,31H483L406,597ZM134,0L361,1097H900c0,0,134,0,208,-55c0,0,73,-55,74,-156c0,0,0,-171,-116,-280c0,0,-44,-41,-96,-66c0,0,30,-13,50,-31c0,0,57,-55,35,-179L1020,133c0,0,-9,-48,-3,-70c0,0,6,-21,32,-39L1045,1H865c0,0,-1,30,5,87c0,0,6,58,15,111l14,81c0,0,19,102,-17,147c0,0,-36,44,-134,44H380L283,0Z" 
id="f3_1h"
transform="scale(0.001,-0.001)" />

<path d="M133,-224v71c0,0,47,8,65,52c0,0,14,33,17,101H133V163H292V27c0,0,0,-114,-36,-172c0,0,-37,-58,-123,-79Z" 
id="f2_f"
transform="scale(0.001,-0.001)" />

<path d="M0,214v74H784V214ZM0,494v72H784V494Z" 
id="f5_x"
transform="scale(0.001,-0.001)" />

<path d="M17,774l191,256h95L493,774H440L255,932L69,774Z" 
id="f4_4"
transform="scale(0.001,-0.001)" />

<path d="M344,0V155H494V0Zm9,286c0,0,-3,110,31,187c0,0,33,78,116,152c0,0,59,52,85,97c0,0,25,45,25,98c0,0,0,81,-48,130c0,0,-48,47,-130,47c0,0,-102,0,-152,-55c0,0,-51,-56,-63,-181H86c0,0,8,170,98,262c0,0,91,93,248,93c0,0,143,0,232,-82c0,0,88,-82,88,-214c0,0,0,-77,-38,-145c0,0,-38,-67,-128,-149c0,0,-58,-52,-81,-107c0,0,-23,-55,-21,-133Z" 
id="f2_y"
transform="scale(0.001,-0.001)" />

<path d="M0,356v74H784V356Z" 
id="f5_h"
transform="scale(0.001,-0.001)" />

<path d="M355,0V355H0v72H355V784h72V427H782V355H427V0Z" 
id="f5_f"
transform="scale(0.001,-0.001)" />

<path d="M102,0L267,800H402L237,0ZM300,946l31,151H467L436,946Z" 
id="f3_24"
transform="scale(0.001,-0.001)" />

<path d="M-33,-321c0,0,-31,0,-57,4l25,117h26c0,0,60,0,83,18c0,0,22,18,34,75L265,800H400L213,-107c0,0,-24,-117,-81,-166c0,0,-55,-48,-165,-48ZM298,946l32,151H465L434,946Z" 
id="f3_25"
transform="scale(0.001,-0.001)" />

<path d="M102,0L329,1097H464L333,467L745,800H921L546,501L769,0H595L429,409L300,306L237,0Z" 
id="f3_26"
transform="scale(0.001,-0.001)" />

<path d="M424,-28c0,0,-180,0,-272,86c0,0,-92,87,-100,266H192c0,0,12,-126,66,-180c0,0,55,-54,170,-54c0,0,100,0,163,57c0,0,64,57,64,147c0,0,0,94,-61,149c0,0,-52,48,-135,54c0,0,-38,2,-72,2c0,0,-34,0,-45,-3V613c0,0,17,-3,51,-3c0,0,35,0,68,4c0,0,66,8,106,43c0,0,55,45,55,125c0,0,0,77,-58,125c0,0,-58,48,-148,48c0,0,-96,0,-147,-58c0,0,-51,-59,-56,-175H82c0,0,0,168,89,260c0,0,88,93,250,93c0,0,153,0,247,-77c0,0,94,-76,94,-202c0,0,0,-124,-95,-201c0,0,-18,-15,-39,-27c0,0,39,-17,69,-41c0,0,101,-79,101,-214c0,0,0,-151,-105,-246c0,0,-104,-95,-269,-95Z" 
id="f2_m"
transform="scale(0.001,-0.001)" />

<path d="M99,-328c0,0,-46,0,-76,13l25,123c0,0,29,-14,81,-14c0,0,47,0,76,31c0,0,28,31,106,162L185,800H339L415,141L769,800H918L456,0C456,0,329,-216,269,-272c0,0,-61,-56,-170,-56Z" 
id="f3_2k"
transform="scale(0.001,-0.001)" />

<path d="M511,373V863L169,383l-7,-10ZM511,0V258H38V383l496,691H646V373H799V258H646V0Z" 
id="f2_n"
transform="scale(0.001,-0.001)" />

<path d="M436,95c0,0,105,0,160,79c0,0,54,80,54,232c0,0,0,150,-52,222c0,0,-52,72,-161,72c0,0,-112,0,-163,-81c0,0,-51,-82,-51,-258c0,0,0,-127,55,-197c0,0,55,-69,158,-69Zm6,-115c0,0,-135,0,-215,102L215,98V0H89V1097H223V695c0,0,87,127,225,127c1,0,2,0,2,0c0,0,157,0,249,-108c0,0,91,-107,91,-291c0,0,0,-208,-92,-326C698,97,606,-20,442,-20Z" 
id="f2_1x"
transform="scale(0.001,-0.001)" />

<path d="M152,-323c-8,0,-38,1,-63,8v125c0,0,30,-11,77,-12c0,0,45,0,76,37c0,0,30,38,69,140l2,12v1L17,799H170L383,139L600,799H747L443,-25c0,0,-70,-184,-125,-241c0,0,-55,-57,-164,-57c0,0,-1,0,-2,0Z" 
id="f2_2k"
transform="scale(0.001,-0.001)" />

<path d="M0,368V478H849V368Z" 
id="f2_99"
transform="scale(0.001,-0.001)" />

<path d="M99,0L264,800H392L367,675l37,39c0,0,111,109,238,109c0,0,139,0,194,-69c0,0,55,-70,27,-209L750,0H615L724,524c0,0,18,91,-10,134c0,0,-28,43,-106,43c0,0,-117,0,-189,-77c0,0,-72,-77,-105,-238L234,0Z" 
id="f3_29"
transform="scale(0.001,-0.001)" />

<path d="M431,94c0,0,95,0,170,76c0,0,76,77,101,198c0,0,35,167,-1,250c0,0,-37,84,-144,84c0,0,-128,0,-210,-117c0,0,-81,-117,-81,-302c0,0,0,-90,43,-139c0,0,44,-50,122,-50ZM400,-20c0,0,-126,0,-199,79c0,0,-73,80,-73,219c0,0,0,234,122,390c0,0,122,155,305,155c0,0,144,0,209,-127l8,-16l86,417H993L767,0H638l22,108L642,90C642,90,532,-20,400,-20Z" 
id="f3_1z"
transform="scale(0.001,-0.001)" />

<path d="M456,95c0,0,130,0,213,121c0,0,82,120,82,310c0,0,0,85,-44,131c0,0,-44,46,-125,46c0,0,-98,0,-174,-90c0,0,-76,-90,-108,-245c0,0,-26,-126,16,-199c0,0,42,-74,140,-74ZM436,-20c0,0,-132,0,-195,108l-5,7L217,0H89L316,1097H450L365,683l10,11c0,0,120,129,262,129c0,0,121,0,190,-77c0,0,69,-77,69,-211c0,0,0,-234,-134,-395C762,140,629,-20,436,-20Z" 
id="f3_1x"
transform="scale(0.001,-0.001)" />

<path d="M139,0V1097H287V0Z" 
id="f2_18"
transform="scale(0.001,-0.001)" />

<path d="M83,308c0,0,-35,0,-59,24c0,0,-24,24,-24,59c0,0,0,34,24,58c0,0,24,24,59,24c0,0,33,0,58,-24c0,0,24,-24,24,-58c0,0,0,-35,-24,-59c0,0,-25,-24,-58,-24Z" 
id="f5_49"
transform="scale(0.001,-0.001)" />

<path d="M52,62L0,114L278,390L0,667l52,52L330,442L608,719l51,-51L382,390L659,114L608,62L330,338L52,62Z" 
id="f5_3a"
transform="scale(0.001,-0.001)" />

<path d="M432,92c0,0,96,0,156,66c0,0,61,65,61,169c0,0,0,103,-61,169c0,0,-60,66,-156,66c0,0,-95,0,-156,-66c0,0,-61,-66,-61,-169c0,0,0,-104,61,-169c0,0,61,-66,156,-66ZM425,-28c0,0,-176,0,-271,135c0,0,-95,136,-95,388c0,0,0,278,103,429c0,0,103,151,293,151c0,0,142,0,226,-77c0,0,84,-76,90,-211H638c0,0,-8,80,-56,123c0,0,-47,43,-127,43c0,0,-125,0,-192,-119c0,0,-58,-102,-64,-278c0,0,100,127,255,127c0,0,152,0,245,-98c0,0,93,-98,93,-258c0,0,0,-161,-101,-259c0,0,-101,-96,-266,-96Z" 
id="f2_p"
transform="scale(0.001,-0.001)" />

<path d="M140,-21c0,0,-26,0,-44,17C96,-4,79,13,79,40c0,0,0,19,6,33c0,0,8,20,34,55c0,0,46,60,64,126c0,0,32,114,41,321H190c0,0,-55,0,-81,-18c0,0,-44,-26,-80,-89H0c0,0,42,129,98,178c0,0,43,37,120,37H743V575H562c0,0,-27,-171,-27,-327c0,0,0,-77,27,-110c0,0,27,-33,67,-33c0,0,33,0,56,22c0,0,24,22,31,65h27C743,192,730,74,686,26c0,0,-44,-47,-98,-47c0,0,-58,0,-97,51c0,0,-39,53,-39,198c0,0,0,91,28,347H286c0,0,-23,-390,-56,-494c0,0,-33,-102,-90,-102Z" 
id="f5_2c"
transform="scale(0.001,-0.001)" />

<path d="M47,0L58,55l11,55L675,688H237l11,56l11,56H869L857,745L846,690L245,111H740L729,56L718,0Z" 
id="f3_2l"
transform="scale(0.001,-0.001)" />

<path d="M212,0c0,0,51,270,162,500c0,0,109,222,281,422H57v131H799V934C799,934,623,726,515,498C515,498,408,269,362,0Z" 
id="f2_q"
transform="scale(0.001,-0.001)" />

<path d="M780,449L714,934L435,449ZM22,0L673,1097H839L998,0H839L797,318H359L178,0Z" 
id="f3_10"
transform="scale(0.001,-0.001)" />

<path d="M365,-315c0,0,-136,187,-199,359c0,0,-62,172,-62,359c0,0,0,186,62,358c0,0,63,172,199,360h92c0,0,-110,-192,-160,-365c0,0,-51,-172,-51,-353c0,0,0,-183,51,-355c0,0,50,-172,160,-363Z" 
id="f2_b"
transform="scale(0.001,-0.001)" />

<path d="M52,-315c0,0,109,192,160,363c0,0,50,173,50,354c0,0,0,183,-50,355c0,0,-51,173,-160,364h92c0,0,135,-188,198,-360c0,0,63,-172,63,-359c0,0,0,-187,-63,-359c0,0,-63,-171,-198,-358Z" 
id="f2_c"
transform="scale(0.001,-0.001)" />

<path d="M617,129c0,0,118,0,194,71c0,0,75,70,75,182c0,0,1,59,-55,93c0,0,-56,34,-152,34H368L289,129Zm58,503c0,0,120,0,188,59c0,0,68,58,68,163c0,0,0,57,-50,85c0,0,-50,29,-146,29H462L393,632ZM113,0L340,1097H825c0,0,122,0,191,-55c0,0,69,-55,69,-153c0,0,0,-160,-113,-251c0,0,-35,-26,-77,-46c0,0,27,-12,52,-28c0,0,89,-61,89,-166c0,0,0,-171,-127,-285C909,113,782,0,591,0Z" 
id="f3_11"
transform="scale(0.001,-0.001)" />

<path d="M571,-29c0,0,-231,0,-367,153C204,124,67,279,67,543c0,0,0,268,137,426c0,0,136,158,367,158c0,0,195,0,324,-105c0,0,128,-106,150,-287H816c0,0,-11,89,-76,142c0,0,-65,52,-166,52c0,0,-128,0,-200,-102c0,0,-73,-102,-73,-283c0,0,0,-176,72,-276c0,0,72,-100,201,-100c0,0,101,0,166,58c0,0,65,58,76,157h229c0,0,-21,-190,-149,-302C896,81,769,-29,571,-29Z" 
id="f6_12"
transform="scale(0.001,-0.001)" />

<path d="M109,0V1097H337V685H767v412H995V0H767V497H337V0Z" 
id="f6_17"
transform="scale(0.001,-0.001)" />

<path d="M695,412L549,853h-1L403,412ZM31,0L419,1097H684L1072,0H829L756,223H339L267,0Z" 
id="f6_10"
transform="scale(0.001,-0.001)" />

<path d="M537,581c0,0,96,0,144,42c0,0,48,43,48,129c0,0,0,78,-48,117c0,0,-48,39,-144,39H345V581ZM116,0V1097H575c0,0,188,0,285,-88c0,0,98,-87,98,-255c0,0,0,-178,-98,-270c0,0,-97,-92,-285,-92c0,0,-21,0,-53,0c-47,0,-119,-1,-177,-2V0Z" 
id="f6_1f"
transform="scale(0.001,-0.001)" />

<path d="M353,0V903H22v194H913V903H582V0Z" 
id="f6_1j"
transform="scale(0.001,-0.001)" />

<path d="M116,0V1097H923V903H345V670H881V481H345V195H948V0Z" 
id="f6_14"
transform="scale(0.001,-0.001)" />

<path d="M611,618c0,0,89,0,134,36c0,0,44,36,44,110c0,0,0,72,-42,108c0,0,-42,36,-127,36H345V618ZM116,0V1097H669c0,0,157,0,253,-84c0,0,96,-84,96,-221c0,0,0,-158,-107,-231c0,0,-28,-20,-64,-33c0,0,20,-8,37,-18c0,0,94,-56,97,-188l6,-180c0,0,1,-53,11,-76c0,0,9,-22,37,-36V1H782c0,0,-9,17,-16,74c0,0,-6,56,-7,121l-1,101c0,0,-2,74,-44,106c0,0,-42,31,-140,31H345V0Z" 
id="f6_1h"
transform="scale(0.001,-0.001)" />

<path d="M367,0V750H106V903c0,0,3,-1,8,-1c26,0,105,4,171,45c0,0,79,49,121,141H581V0Z" 
id="f6_k"
transform="scale(0.001,-0.001)" />

<path d="M424,145c0,0,86,0,121,86c0,0,35,85,35,295c0,0,1,214,-35,302c0,0,-35,87,-121,87c0,0,-85,0,-120,-87c0,0,-34,-88,-35,-302c0,0,0,-210,35,-295c0,0,35,-86,120,-86Zm0,-172c0,0,-191,0,-283,134c0,0,-91,136,-92,417c0,0,1,288,92,426c0,0,92,138,283,138c0,0,192,0,284,-138c0,0,92,-138,92,-421v-5c0,0,1,-281,-92,-417c0,0,-92,-134,-284,-134Z" 
id="f6_j"
transform="scale(0.001,-0.001)" />

<path d="M401,0L29,1098l122,-1l121,1L513,259l241,839l117,-1l119,1L618,0Z" 
id="f6_1l"
transform="scale(0.001,-0.001)" />

<path d="M594,164c0,0,140,0,220,101c0,0,79,100,79,279c0,0,0,183,-79,286c0,0,-80,103,-220,103c0,0,-139,0,-219,-103c0,0,-79,-103,-79,-286c0,0,0,-179,79,-279c0,0,79,-101,219,-101Zm0,-193c0,0,-242,0,-384,153C210,124,67,279,67,543c0,0,0,268,143,426c0,0,142,158,384,158c0,0,243,0,385,-158c0,0,143,-158,143,-426c0,0,0,-264,-143,-419C979,124,837,-29,594,-29Z" 
id="f6_1e"
transform="scale(0.001,-0.001)" />

<path d="M510,-29c0,0,-208,0,-325,95C185,66,68,162,59,339H280c0,0,4,-87,64,-134c0,0,59,-47,166,-47c0,0,109,0,171,36c0,0,61,35,61,98c0,0,0,62,-44,91c0,0,-43,30,-185,61c0,0,-261,58,-348,126c0,0,-88,67,-88,210c0,0,0,160,116,254c0,0,115,93,312,93c0,0,184,0,300,-97c0,0,115,-97,128,-261H710c0,0,-6,78,-68,124c0,0,-63,46,-163,46c0,0,-87,0,-137,-39c0,0,-49,-38,-49,-107c0,0,0,-49,52,-76c0,0,50,-27,215,-64c0,0,239,-54,320,-124c0,0,80,-69,80,-223c0,0,0,-155,-121,-246c0,0,-122,-89,-329,-89Z" 
id="f6_1i"
transform="scale(0.001,-0.001)" />

<path d="M125,0V1051H268V115H799V0Z" 
id="f0_1c"
transform="scale(0.001,-0.001)" />

<path d="M106,0V620c0,0,0,85,-5,188H228c0,0,6,-138,6,-165h3c0,0,32,103,74,141c0,0,42,38,118,38c0,0,27,0,54,-7V692c0,0,-26,7,-71,7c0,0,-84,0,-128,-72c0,0,-44,-72,-44,-206V0Z" 
id="f0_2e"
transform="scale(0.001,-0.001)" />

<path d="M606,-14c0,0,-164,0,-284,65c0,0,-119,66,-182,189c0,0,-63,123,-63,291c0,0,0,255,137,396c0,0,137,140,386,140c0,0,174,0,283,-59c0,0,109,-59,168,-189L915,779c0,0,-44,90,-123,131c0,0,-79,41,-196,41c0,0,-182,0,-278,-110c0,0,-96,-110,-96,-310c0,0,0,-200,102,-315c0,0,102,-115,282,-115c0,0,103,0,193,31c0,0,89,31,144,85V407H629V526h445V164c0,0,-83,-85,-205,-132c0,0,-121,-46,-263,-46Z" 
id="f0_17"
transform="scale(0.001,-0.001)" />

<path d="M355,-14c0,0,-133,0,-194,65c0,0,-62,66,-62,219V808H234V296c0,0,0,-80,16,-124c0,0,16,-44,50,-64c0,0,34,-19,101,-19c0,0,97,0,153,66c0,0,55,67,55,185V808H744V172c0,0,0,-141,4,-172H621c0,0,0,4,-1,20c0,0,-1,17,-2,38c0,0,-1,21,-3,80h-2C613,138,567,55,506,20c0,0,-61,-34,-151,-34Z" 
id="f0_2h"
transform="scale(0.001,-0.001)" />

<path d="M395,89c0,0,115,0,166,79c0,0,51,79,51,246c0,0,0,160,-51,235c0,0,-51,75,-164,75c0,0,-102,0,-147,-75c0,0,-45,-75,-45,-244c0,0,0,-170,45,-243c0,0,45,-73,145,-73ZM361,-14c0,0,-153,0,-225,102c0,0,-72,103,-72,312c0,0,0,422,297,422c0,0,92,0,153,-33c0,0,61,-34,98,-107h2l-2,90v335H747V166c0,0,0,-126,4,-166H623c0,0,-2,12,-5,55c0,0,-3,44,-3,75h-3c0,0,-37,-78,-98,-111c0,0,-62,-33,-153,-33Z" 
id="f0_20"
transform="scale(0.001,-0.001)" />

<path d="M140,0V163H285V0Z" 
id="f0_i"
transform="scale(0.001,-0.001)" />


</defs>
</svg>