<?xml version="1.0" encoding="UTF-8" standalone="no"?>
<!DOCTYPE svg PUBLIC "-//W3C//DTD SVG 1.1//EN"
"http://www.w3.org/Graphics/SVG/1.1/DTD/svg11.dtd">
<svg viewBox="0 0 705 1053" version="1.1" xmlns="http://www.w3.org/2000/svg" xmlns:xlink="http://www.w3.org/1999/xlink">
<defs>
<style type="text/css"><![CDATA[
.g0_112{
fill: none;
stroke: #000000;
stroke-width: 0.7504445;
stroke-linecap: round;
stroke-linejoin: miter;
}
.g1_112{
fill: none;
stroke: #000000;
stroke-width: 0.7831999;
stroke-linecap: round;
stroke-linejoin: miter;
}
.g2_112{
fill: none;
stroke: #000000;
stroke-width: 0.7638889;
stroke-linecap: round;
stroke-linejoin: miter;
}
.g3_112{
fill: none;
stroke: #000000;
stroke-width: 0.77635556;
stroke-linecap: round;
stroke-linejoin: miter;
}
.g4_112{
fill: none;
stroke: #000000;
stroke-width: 0.7575333;
stroke-linecap: round;
stroke-linejoin: miter;
}
]]></style>
</defs>
<g fill="#D4D4D4" fill-opacity="0.56" >
<use xlink:href="#f0_1f" transform="matrix(50.9,-50.9,50.9,50.9,93.6,924.1)" />
<use xlink:href="#f0_2a" transform="matrix(50.9,-50.9,50.9,50.9,154.2,863.6)" />
<use xlink:href="#f0_28" transform="matrix(50.9,-50.9,50.9,50.9,197.4,820.3)" />
<use xlink:href="#f0_25" transform="matrix(50.9,-50.9,50.9,50.9,214.7,803.1)" />
<use xlink:href="#f0_2a" transform="matrix(50.9,-50.9,50.9,50.9,231.9,785.8)" />
<use xlink:href="#f0_21" transform="matrix(50.9,-50.9,50.9,50.9,275.2,742.5)" />
<use xlink:href="#f0_2k" transform="matrix(50.9,-50.9,50.9,50.9,318.4,699.3)" />
<use xlink:href="#f0_1x" transform="matrix(50.9,-50.9,50.9,50.9,357.3,660.4)" />
<use xlink:href="#f0_29" transform="matrix(50.9,-50.9,50.9,50.9,400.6,617.2)" />
<use xlink:href="#f0_2c" transform="matrix(50.9,-50.9,50.9,50.9,465.4,552.4)" />
<use xlink:href="#f0_2b" transform="matrix(50.9,-50.9,50.9,50.9,508.6,509.1)" />
<use xlink:href="#f0_25" transform="matrix(50.9,-50.9,50.9,50.9,551.8,465.9)" />
<use xlink:href="#f0_2a" transform="matrix(50.9,-50.9,50.9,50.9,569.1,448.6)" />
<use xlink:href="#f0_2g" transform="matrix(50.9,-50.9,50.9,50.9,612.4,405.4)" />
</g>
<g fill="#000000" >
<use xlink:href="#f1_2f" transform="matrix(10.4,0,0,10.4,84.3,82.9)" />
<use xlink:href="#f1_23" transform="matrix(10.4,0,0,10.4,88.8,82.9)" />
<use xlink:href="#f1_20" transform="matrix(10.4,0,0,10.4,97.6,82.9)" />
<use xlink:href="#f1_28" transform="matrix(10.4,0,0,10.4,106.5,82.9)" />
<use xlink:href="#f1_2d" transform="matrix(10.4,0,0,10.4,126.6,82.9)" />
<use xlink:href="#f1_20" transform="matrix(10.4,0,0,10.4,131.9,82.9)" />
<use xlink:href="#f1_2e" transform="matrix(10.4,0,0,10.4,140.7,82.9)" />
<use xlink:href="#f1_2b" transform="matrix(10.4,0,0,10.4,148.7,82.9)" />
<use xlink:href="#f1_20" transform="matrix(10.4,0,0,10.4,157.6,82.9)" />
<use xlink:href="#f1_1y" transform="matrix(10.4,0,0,10.4,166.4,82.9)" />
<use xlink:href="#f1_2f" transform="matrix(10.4,0,0,10.4,174.4,82.9)" />
<use xlink:href="#f1_24" transform="matrix(10.4,0,0,10.4,178.9,82.9)" />
<use xlink:href="#f1_2h" transform="matrix(10.4,0,0,10.4,182.4,82.9)" />
<use xlink:href="#f1_20" transform="matrix(10.4,0,0,10.4,190.4,82.9)" />
<use xlink:href="#f1_27" transform="matrix(10.4,0,0,10.4,199.2,82.9)" />
<use xlink:href="#f1_2k" transform="matrix(10.4,0,0,10.4,202.8,82.9)" />
<use xlink:href="#f1_1w" transform="matrix(10.4,0,0,10.4,217.7,82.9)" />
<use xlink:href="#f1_2d" transform="matrix(10.4,0,0,10.4,226.6,82.9)" />
<use xlink:href="#f1_20" transform="matrix(10.4,0,0,10.4,231.9,82.9)" />
<use xlink:href="#f1_1z" transform="matrix(10.4,0,0,10.4,247.6,82.9)" />
<use xlink:href="#f1_20" transform="matrix(10.4,0,0,10.4,256.4,82.9)" />
<use xlink:href="#f1_21" transform="matrix(10.4,0,0,10.4,265.3,82.9)" />
<use xlink:href="#f1_20" transform="matrix(10.4,0,0,10.4,269.7,82.9)" />
<use xlink:href="#f1_1y" transform="matrix(10.4,0,0,10.4,278.6,82.9)" />
<use xlink:href="#f1_2f" transform="matrix(10.4,0,0,10.4,286.6,82.9)" />
<use xlink:href="#f1_24" transform="matrix(10.4,0,0,10.4,291,82.9)" />
<use xlink:href="#f1_2h" transform="matrix(10.4,0,0,10.4,294.5,82.9)" />
<use xlink:href="#f1_20" transform="matrix(10.4,0,0,10.4,302.5,82.9)" />
<use xlink:href="#f1_h" transform="matrix(10.4,0,0,10.4,311.4,82.9)" />
<use xlink:href="#f1_10" transform="matrix(10.4,0,0,10.4,322.8,82.9)" />
<use xlink:href="#f1_1x" transform="matrix(10.4,0,0,10.4,340.2,82.9)" />
<use xlink:href="#f1_2a" transform="matrix(10.4,0,0,10.4,349.1,82.9)" />
<use xlink:href="#f1_27" transform="matrix(10.4,0,0,10.4,357.9,82.9)" />
<use xlink:href="#f1_2f" transform="matrix(10.4,0,0,10.4,361.5,82.9)" />
<use xlink:href="#f1_24" transform="matrix(10.4,0,0,10.4,372.7,82.9)" />
<use xlink:href="#f1_2e" transform="matrix(10.4,0,0,10.4,376.2,82.9)" />
<use xlink:href="#f1_2b" transform="matrix(10.4,0,0,10.4,391.2,82.9)" />
<use xlink:href="#f1_24" transform="matrix(10.4,0,0,10.4,400,82.9)" />
<use xlink:href="#f1_1y" transform="matrix(10.4,0,0,10.4,403.6,82.9)" />
<use xlink:href="#f1_26" transform="matrix(10.4,0,0,10.4,411.6,82.9)" />
<use xlink:href="#f1_20" transform="matrix(10.4,0,0,10.4,419.5,82.9)" />
<use xlink:href="#f1_1z" transform="matrix(10.4,0,0,10.4,428.4,82.9)" />
<use xlink:href="#f1_2g" transform="matrix(10.4,0,0,10.4,444.1,82.9)" />
<use xlink:href="#f1_2b" transform="matrix(10.4,0,0,10.4,452.9,82.9)" />
<use xlink:href="#f1_1w" transform="matrix(10.4,0,0,10.4,468.8,82.9)" />
<use xlink:href="#f1_2f" transform="matrix(10.4,0,0,10.4,477.6,82.9)" />
<use xlink:href="#f1_2d" transform="matrix(10.4,0,0,10.4,488.8,82.9)" />
<use xlink:href="#f1_1w" transform="matrix(10.4,0,0,10.4,494.2,82.9)" />
<use xlink:href="#f1_29" transform="matrix(10.4,0,0,10.4,503,82.9)" />
<use xlink:href="#f1_1z" transform="matrix(10.4,0,0,10.4,511.9,82.9)" />
<use xlink:href="#f1_2a" transform="matrix(10.4,0,0,10.4,520.8,82.9)" />
<use xlink:href="#f1_28" transform="matrix(10.4,0,0,10.4,529.6,82.9)" />
<use xlink:href="#f1_21" transform="matrix(10.4,0,0,10.4,549.9,82.9)" />
<use xlink:href="#f1_2d" transform="matrix(10.4,0,0,10.4,554.3,82.9)" />
<use xlink:href="#f1_2a" transform="matrix(10.4,0,0,10.4,559.6,82.9)" />
<use xlink:href="#f1_28" transform="matrix(10.4,0,0,10.4,568.5,82.9)" />
<use xlink:href="#f1_2f" transform="matrix(10.4,0,0,10.4,588.6,82.9)" />
<use xlink:href="#f1_23" transform="matrix(10.4,0,0,10.4,593,82.9)" />
<use xlink:href="#f1_20" transform="matrix(10.4,0,0,10.4,601.9,82.9)" />
<use xlink:href="#f1_2b" transform="matrix(10.4,0,0,10.4,84.3,103)" />
<use xlink:href="#f1_2d" transform="matrix(10.4,0,0,10.4,93.2,103)" />
<use xlink:href="#f1_2a" transform="matrix(10.4,0,0,10.4,98.5,103)" />
<use xlink:href="#f1_1z" transform="matrix(10.4,0,0,10.4,107.4,103)" />
<use xlink:href="#f1_2g" transform="matrix(10.4,0,0,10.4,116.2,103)" />
<use xlink:href="#f1_1y" transform="matrix(10.4,0,0,10.4,125.1,103)" />
<use xlink:href="#f1_2f" transform="matrix(10.4,0,0,10.4,133.1,103)" />
<use xlink:href="#f1_1w" transform="matrix(10.4,0,0,10.4,144.7,103)" />
<use xlink:href="#f1_29" transform="matrix(10.4,0,0,10.4,153.5,103)" />
<use xlink:href="#f1_1z" transform="matrix(10.4,0,0,10.4,162.4,103)" />
<use xlink:href="#f1_24" transform="matrix(10.4,0,0,10.4,178.4,103)" />
<use xlink:href="#f1_2e" transform="matrix(10.4,0,0,10.4,181.9,103)" />
<use xlink:href="#f1_21" transform="matrix(10.4,0,0,10.4,196.9,103)" />
<use xlink:href="#f1_2a" transform="matrix(10.4,0,0,10.4,201.3,103)" />
<use xlink:href="#f1_2g" transform="matrix(10.4,0,0,10.4,210.2,103)" />
<use xlink:href="#f1_29" transform="matrix(10.4,0,0,10.4,219.1,103)" />
<use xlink:href="#f1_1z" transform="matrix(10.4,0,0,10.4,227.9,103)" />
<use xlink:href="#f1_2f" transform="matrix(10.4,0,0,10.4,243.9,103)" />
<use xlink:href="#f1_2a" transform="matrix(10.4,0,0,10.4,248.4,103)" />
<use xlink:href="#f1_1x" transform="matrix(10.4,0,0,10.4,264.4,103)" />
<use xlink:href="#f1_20" transform="matrix(10.4,0,0,10.4,273.3,103)" />
<use xlink:href="#f1_1z" transform="matrix(10.4,0,0,10.4,289.3,103)" />
<use xlink:href="#f1_20" transform="matrix(10.4,0,0,10.4,298.1,103)" />
<use xlink:href="#f1_21" transform="matrix(10.4,0,0,10.4,307,103)" />
<use xlink:href="#f1_20" transform="matrix(10.4,0,0,10.4,311.4,103)" />
<use xlink:href="#f1_1y" transform="matrix(10.4,0,0,10.4,320.3,103)" />
<use xlink:href="#f1_2f" transform="matrix(10.4,0,0,10.4,328.3,103)" />
<use xlink:href="#f1_24" transform="matrix(10.4,0,0,10.4,332.7,103)" />
<use xlink:href="#f1_2h" transform="matrix(10.4,0,0,10.4,336.3,103)" />
<use xlink:href="#f1_20" transform="matrix(10.4,0,0,10.4,344.2,103)" />
<use xlink:href="#f1_h" transform="matrix(10.4,0,0,10.4,353.1,103)" />
<use xlink:href="#f1_1m" transform="matrix(10.4,0,0,10.4,364.5,103)" />
<use xlink:href="#f1_23" transform="matrix(10.4,0,0,10.4,379.6,103)" />
<use xlink:href="#f1_1w" transform="matrix(10.4,0,0,10.4,388.4,103)" />
<use xlink:href="#f1_2f" transform="matrix(10.4,0,0,10.4,397.3,103)" />
<use xlink:href="#f1_24" transform="matrix(10.4,0,0,10.4,408.9,103)" />
<use xlink:href="#f1_2e" transform="matrix(10.4,0,0,10.4,412.4,103)" />
<use xlink:href="#f1_2f" transform="matrix(10.4,0,0,10.4,427.5,103)" />
<use xlink:href="#f1_23" transform="matrix(10.4,0,0,10.4,432,103)" />
<use xlink:href="#f1_20" transform="matrix(10.4,0,0,10.4,440.8,103)" />
<use xlink:href="#f1_2b" transform="matrix(10.4,0,0,10.4,456.9,103)" />
<use xlink:href="#f1_2d" transform="matrix(10.4,0,0,10.4,465.7,103)" />
<use xlink:href="#f1_2a" transform="matrix(10.4,0,0,10.4,471,103)" />
<use xlink:href="#f1_1x" transform="matrix(10.4,0,0,10.4,479.9,103)" />
<use xlink:href="#f1_1w" transform="matrix(10.4,0,0,10.4,488.8,103)" />
<use xlink:href="#f1_1x" transform="matrix(10.4,0,0,10.4,497.6,103)" />
<use xlink:href="#f1_24" transform="matrix(10.4,0,0,10.4,506.5,103)" />
<use xlink:href="#f1_27" transform="matrix(10.4,0,0,10.4,510.1,103)" />
<use xlink:href="#f1_24" transform="matrix(10.4,0,0,10.4,513.6,103)" />
<use xlink:href="#f1_2f" transform="matrix(10.4,0,0,10.4,517.1,103)" />
<use xlink:href="#f1_2k" transform="matrix(10.4,0,0,10.4,521.6,103)" />
<use xlink:href="#f1_2f" transform="matrix(10.4,0,0,10.4,536.5,103)" />
<use xlink:href="#f1_23" transform="matrix(10.4,0,0,10.4,541,103)" />
<use xlink:href="#f1_1w" transform="matrix(10.4,0,0,10.4,549.8,103)" />
<use xlink:href="#f1_2f" transform="matrix(10.4,0,0,10.4,558.7,103)" />
<use xlink:href="#f1_24" transform="matrix(10.4,0,0,10.4,570.3,103)" />
<use xlink:href="#f1_2f" transform="matrix(10.4,0,0,10.4,573.8,103)" />
<use xlink:href="#f1_23" transform="matrix(10.4,0,0,10.4,585.4,103)" />
<use xlink:href="#f1_1w" transform="matrix(10.4,0,0,10.4,594.3,103)" />
<use xlink:href="#f1_2e" transform="matrix(10.4,0,0,10.4,603.1,103)" />
<use xlink:href="#f1_1x" transform="matrix(10.4,0,0,10.4,84.3,123.2)" />
<use xlink:href="#f1_20" transform="matrix(10.4,0,0,10.4,93.2,123.2)" />
<use xlink:href="#f1_20" transform="matrix(10.4,0,0,10.4,102.1,123.2)" />
<use xlink:href="#f1_29" transform="matrix(10.4,0,0,10.4,110.9,123.2)" />
<use xlink:href="#f1_28" transform="matrix(10.4,0,0,10.4,127.5,123.2)" />
<use xlink:href="#f1_1w" transform="matrix(10.4,0,0,10.4,140.8,123.2)" />
<use xlink:href="#f1_29" transform="matrix(10.4,0,0,10.4,149.6,123.2)" />
<use xlink:href="#f1_2g" transform="matrix(10.4,0,0,10.4,158.5,123.2)" />
<use xlink:href="#f1_21" transform="matrix(10.4,0,0,10.4,167.4,123.2)" />
<use xlink:href="#f1_1w" transform="matrix(10.4,0,0,10.4,171.8,123.2)" />
<use xlink:href="#f1_1y" transform="matrix(10.4,0,0,10.4,180.7,123.2)" />
<use xlink:href="#f1_2f" transform="matrix(10.4,0,0,10.4,188.7,123.2)" />
<use xlink:href="#f1_2g" transform="matrix(10.4,0,0,10.4,193.1,123.2)" />
<use xlink:href="#f1_2d" transform="matrix(10.4,0,0,10.4,202,123.2)" />
<use xlink:href="#f1_20" transform="matrix(10.4,0,0,10.4,207.3,123.2)" />
<use xlink:href="#f1_1z" transform="matrix(10.4,0,0,10.4,216.1,123.2)" />
<use xlink:href="#f1_1x" transform="matrix(10.4,0,0,10.4,232.7,123.2)" />
<use xlink:href="#f1_2k" transform="matrix(10.4,0,0,10.4,241.6,123.2)" />
<use xlink:href="#f1_28" transform="matrix(10.4,0,0,10.4,257.3,123.2)" />
<use xlink:href="#f1_1w" transform="matrix(10.4,0,0,10.4,270.6,123.2)" />
<use xlink:href="#f1_1y" transform="matrix(10.4,0,0,10.4,279.4,123.2)" />
<use xlink:href="#f1_23" transform="matrix(10.4,0,0,10.4,287.4,123.2)" />
<use xlink:href="#f1_24" transform="matrix(10.4,0,0,10.4,296.3,123.2)" />
<use xlink:href="#f1_29" transform="matrix(10.4,0,0,10.4,299.8,123.2)" />
<use xlink:href="#f1_20" transform="matrix(10.4,0,0,10.4,308.7,123.2)" />
<use xlink:href="#f2_10" transform="matrix(10.4,0,0,10.4,324.1,123.2)" />
<use xlink:href="#f1_y" transform="matrix(10.4,0,0,10.4,334.8,123.2)" />
<use xlink:href="#f1_m" transform="matrix(10.4,0,0,10.4,43.6,157.1)" />
<use xlink:href="#f1_q" transform="matrix(10.4,0,0,10.4,52.5,157.1)" />
<use xlink:href="#f1_h" transform="matrix(10.4,0,0,10.4,61.7,157.1)" />
<use xlink:href="#f1_1j" transform="matrix(10.4,0,0,10.4,84.3,157.1)" />
<use xlink:href="#f1_2i" transform="matrix(10.4,0,0,10.4,94.1,157.1)" />
<use xlink:href="#f1_2a" transform="matrix(10.4,0,0,10.4,105.6,157.1)" />
<use xlink:href="#f1_2g" transform="matrix(10.4,0,0,10.4,120.1,157.1)" />
<use xlink:href="#f1_2d" transform="matrix(10.4,0,0,10.4,129,157.1)" />
<use xlink:href="#f1_29" transform="matrix(10.4,0,0,10.4,134.3,157.1)" />
<use xlink:href="#f1_2e" transform="matrix(10.4,0,0,10.4,143.2,157.1)" />
<use xlink:href="#f2_10" transform="matrix(10.4,0,0,10.4,156.7,157.1)" />
<use xlink:href="#f1_1w" transform="matrix(10.4,0,0,10.4,173.1,157.1)" />
<use xlink:href="#f1_29" transform="matrix(10.4,0,0,10.4,181.9,157.1)" />
<use xlink:href="#f1_1z" transform="matrix(10.4,0,0,10.4,190.8,157.1)" />
<use xlink:href="#f2_11" transform="matrix(10.4,0,0,10.4,205.1,157.1)" />
<use xlink:href="#f1_1y" transform="matrix(10.4,0,0,10.4,221.5,157.1)" />
<use xlink:href="#f1_2a" transform="matrix(10.4,0,0,10.4,229.4,157.1)" />
<use xlink:href="#f1_29" transform="matrix(10.4,0,0,10.4,238.3,157.1)" />
<use xlink:href="#f1_2f" transform="matrix(10.4,0,0,10.4,247.2,157.1)" />
<use xlink:href="#f1_1w" transform="matrix(10.4,0,0,10.4,251.6,157.1)" />
<use xlink:href="#f1_24" transform="matrix(10.4,0,0,10.4,260.5,157.1)" />
<use xlink:href="#f1_29" transform="matrix(10.4,0,0,10.4,264,157.1)" />
<use xlink:href="#f1_p" transform="matrix(10.4,0,0,10.4,278.6,157.1)" />
<use xlink:href="#f1_1x" transform="matrix(10.4,0,0,10.4,293.1,157.1)" />
<use xlink:href="#f1_27" transform="matrix(10.4,0,0,10.4,302,157.1)" />
<use xlink:href="#f1_1w" transform="matrix(10.4,0,0,10.4,305.5,157.1)" />
<use xlink:href="#f1_1y" transform="matrix(10.4,0,0,10.4,314.4,157.1)" />
<use xlink:href="#f1_26" transform="matrix(10.4,0,0,10.4,322.4,157.1)" />
<use xlink:href="#f1_1w" transform="matrix(10.4,0,0,10.4,336,157.1)" />
<use xlink:href="#f1_29" transform="matrix(10.4,0,0,10.4,344.9,157.1)" />
<use xlink:href="#f1_1z" transform="matrix(10.4,0,0,10.4,353.7,157.1)" />
<use xlink:href="#f1_n" transform="matrix(10.4,0,0,10.4,368.3,157.1)" />
<use xlink:href="#f1_2i" transform="matrix(10.4,0,0,10.4,382.8,157.1)" />
<use xlink:href="#f1_23" transform="matrix(10.4,0,0,10.4,394.3,157.1)" />
<use xlink:href="#f1_24" transform="matrix(10.4,0,0,10.4,403.2,157.1)" />
<use xlink:href="#f1_2f" transform="matrix(10.4,0,0,10.4,406.8,157.1)" />
<use xlink:href="#f1_20" transform="matrix(10.4,0,0,10.4,411.2,157.1)" />
<use xlink:href="#f1_f" transform="matrix(10.4,0,0,10.4,420.1,157.1)" />
<use xlink:href="#f1_n" transform="matrix(10.4,0,0,10.4,430.4,157.1)" />
<use xlink:href="#f1_1x" transform="matrix(10.4,0,0,10.4,444.9,157.1)" />
<use xlink:href="#f1_27" transform="matrix(10.4,0,0,10.4,453.8,157.1)" />
<use xlink:href="#f1_1w" transform="matrix(10.4,0,0,10.4,457.3,157.1)" />
<use xlink:href="#f1_1y" transform="matrix(10.4,0,0,10.4,466.2,157.1)" />
<use xlink:href="#f1_26" transform="matrix(10.4,0,0,10.4,474.2,157.1)" />
<use xlink:href="#f1_1w" transform="matrix(10.4,0,0,10.4,487.8,157.1)" />
<use xlink:href="#f1_29" transform="matrix(10.4,0,0,10.4,496.7,157.1)" />
<use xlink:href="#f1_1z" transform="matrix(10.4,0,0,10.4,505.6,157.1)" />
<use xlink:href="#f1_p" transform="matrix(10.4,0,0,10.4,520.1,157.1)" />
<use xlink:href="#f1_2i" transform="matrix(10.4,0,0,10.4,534.6,157.1)" />
<use xlink:href="#f1_23" transform="matrix(10.4,0,0,10.4,546.2,157.1)" />
<use xlink:href="#f1_24" transform="matrix(10.4,0,0,10.4,555,157.1)" />
<use xlink:href="#f1_2f" transform="matrix(10.4,0,0,10.4,558.6,157.1)" />
<use xlink:href="#f1_20" transform="matrix(10.4,0,0,10.4,563,157.1)" />
<use xlink:href="#f1_1x" transform="matrix(10.4,0,0,10.4,577.6,157.1)" />
<use xlink:href="#f1_1w" transform="matrix(10.4,0,0,10.4,586.4,157.1)" />
<use xlink:href="#f1_27" transform="matrix(10.4,0,0,10.4,595.3,157.1)" />
<use xlink:href="#f1_27" transform="matrix(10.4,0,0,10.4,598.8,157.1)" />
<use xlink:href="#f1_2e" transform="matrix(10.4,0,0,10.4,602.4,157.1)" />
<use xlink:href="#f1_2d" transform="matrix(10.4,0,0,10.4,84.3,177.3)" />
<use xlink:href="#f1_20" transform="matrix(10.4,0,0,10.4,89.6,177.3)" />
<use xlink:href="#f1_2e" transform="matrix(10.4,0,0,10.4,98.5,177.3)" />
<use xlink:href="#f1_2b" transform="matrix(10.4,0,0,10.4,106.5,177.3)" />
<use xlink:href="#f1_20" transform="matrix(10.4,0,0,10.4,115.3,177.3)" />
<use xlink:href="#f1_1y" transform="matrix(10.4,0,0,10.4,124.2,177.3)" />
<use xlink:href="#f1_2f" transform="matrix(10.4,0,0,10.4,132.2,177.3)" />
<use xlink:href="#f1_24" transform="matrix(10.4,0,0,10.4,136.6,177.3)" />
<use xlink:href="#f1_2h" transform="matrix(10.4,0,0,10.4,140.2,177.3)" />
<use xlink:href="#f1_20" transform="matrix(10.4,0,0,10.4,148.1,177.3)" />
<use xlink:href="#f1_27" transform="matrix(10.4,0,0,10.4,157,177.3)" />
<use xlink:href="#f1_2k" transform="matrix(10.4,0,0,10.4,160.5,177.3)" />
<use xlink:href="#f1_h" transform="matrix(10.4,0,0,10.4,168.5,177.3)" />
<use xlink:href="#f1_1j" transform="matrix(10.4,0,0,10.4,179.4,177.3)" />
<use xlink:href="#f1_2i" transform="matrix(10.4,0,0,10.4,189.1,177.3)" />
<use xlink:href="#f1_2a" transform="matrix(10.4,0,0,10.4,200.6,177.3)" />
<use xlink:href="#f1_1x" transform="matrix(10.4,0,0,10.4,216.1,177.3)" />
<use xlink:href="#f1_1w" transform="matrix(10.4,0,0,10.4,225,177.3)" />
<use xlink:href="#f1_27" transform="matrix(10.4,0,0,10.4,233.8,177.3)" />
<use xlink:href="#f1_27" transform="matrix(10.4,0,0,10.4,237.4,177.3)" />
<use xlink:href="#f1_2e" transform="matrix(10.4,0,0,10.4,240.9,177.3)" />
<use xlink:href="#f1_1w" transform="matrix(10.4,0,0,10.4,255.3,177.3)" />
<use xlink:href="#f1_2d" transform="matrix(10.4,0,0,10.4,264.2,177.3)" />
<use xlink:href="#f1_20" transform="matrix(10.4,0,0,10.4,269.5,177.3)" />
<use xlink:href="#f1_1z" transform="matrix(10.4,0,0,10.4,284.8,177.3)" />
<use xlink:href="#f1_2d" transform="matrix(10.4,0,0,10.4,293.6,177.3)" />
<use xlink:href="#f1_1w" transform="matrix(10.4,0,0,10.4,298.9,177.3)" />
<use xlink:href="#f1_2i" transform="matrix(10.4,0,0,10.4,307.8,177.3)" />
<use xlink:href="#f1_29" transform="matrix(10.4,0,0,10.4,319.3,177.3)" />
<use xlink:href="#f1_21" transform="matrix(10.4,0,0,10.4,334.8,177.3)" />
<use xlink:href="#f1_2d" transform="matrix(10.4,0,0,10.4,339.2,177.3)" />
<use xlink:href="#f1_2a" transform="matrix(10.4,0,0,10.4,344.5,177.3)" />
<use xlink:href="#f1_28" transform="matrix(10.4,0,0,10.4,353.4,177.3)" />
<use xlink:href="#f1_2a" transform="matrix(10.4,0,0,10.4,373.1,177.3)" />
<use xlink:href="#f1_29" transform="matrix(10.4,0,0,10.4,382,177.3)" />
<use xlink:href="#f1_20" transform="matrix(10.4,0,0,10.4,390.8,177.3)" />
<use xlink:href="#f1_2a" transform="matrix(10.4,0,0,10.4,406.1,177.3)" />
<use xlink:href="#f1_21" transform="matrix(10.4,0,0,10.4,415,177.3)" />
<use xlink:href="#f1_2f" transform="matrix(10.4,0,0,10.4,425.8,177.3)" />
<use xlink:href="#f1_23" transform="matrix(10.4,0,0,10.4,430.3,177.3)" />
<use xlink:href="#f1_20" transform="matrix(10.4,0,0,10.4,439.1,177.3)" />
<use xlink:href="#f1_2g" transform="matrix(10.4,0,0,10.4,454.6,177.3)" />
<use xlink:href="#f1_2d" transform="matrix(10.4,0,0,10.4,463.5,177.3)" />
<use xlink:href="#f1_29" transform="matrix(10.4,0,0,10.4,468.8,177.3)" />
<use xlink:href="#f1_2e" transform="matrix(10.4,0,0,10.4,477.7,177.3)" />
<use xlink:href="#f1_h" transform="matrix(10.4,0,0,10.4,485.6,177.3)" />
<use xlink:href="#f1_18" transform="matrix(10.4,0,0,10.4,496.5,177.3)" />
<use xlink:href="#f1_21" transform="matrix(10.4,0,0,10.4,500.9,177.3)" />
<use xlink:href="#f1_1x" transform="matrix(10.4,0,0,10.4,511.8,177.3)" />
<use xlink:href="#f1_2a" transform="matrix(10.4,0,0,10.4,520.6,177.3)" />
<use xlink:href="#f1_2f" transform="matrix(10.4,0,0,10.4,529.5,177.3)" />
<use xlink:href="#f1_23" transform="matrix(10.4,0,0,10.4,533.9,177.3)" />
<use xlink:href="#f1_2f" transform="matrix(10.4,0,0,10.4,549.4,177.3)" />
<use xlink:href="#f1_23" transform="matrix(10.4,0,0,10.4,553.8,177.3)" />
<use xlink:href="#f1_20" transform="matrix(10.4,0,0,10.4,562.7,177.3)" />
<use xlink:href="#f1_1x" transform="matrix(10.4,0,0,10.4,578,177.3)" />
<use xlink:href="#f1_1w" transform="matrix(10.4,0,0,10.4,586.9,177.3)" />
<use xlink:href="#f1_27" transform="matrix(10.4,0,0,10.4,595.7,177.3)" />
<use xlink:href="#f1_27" transform="matrix(10.4,0,0,10.4,599.3,177.3)" />
<use xlink:href="#f1_2e" transform="matrix(10.4,0,0,10.4,602.8,177.3)" />
<use xlink:href="#f1_1z" transform="matrix(10.4,0,0,10.4,84.3,197.4)" />
<use xlink:href="#f1_2d" transform="matrix(10.4,0,0,10.4,93.2,197.4)" />
<use xlink:href="#f1_1w" transform="matrix(10.4,0,0,10.4,98.5,197.4)" />
<use xlink:href="#f1_2i" transform="matrix(10.4,0,0,10.4,107.4,197.4)" />
<use xlink:href="#f1_29" transform="matrix(10.4,0,0,10.4,118.9,197.4)" />
<use xlink:href="#f1_1w" transform="matrix(10.4,0,0,10.4,134,197.4)" />
<use xlink:href="#f1_2d" transform="matrix(10.4,0,0,10.4,142.9,197.4)" />
<use xlink:href="#f1_20" transform="matrix(10.4,0,0,10.4,148.2,197.4)" />
<use xlink:href="#f1_2i" transform="matrix(10.4,0,0,10.4,163.1,197.4)" />
<use xlink:href="#f1_23" transform="matrix(10.4,0,0,10.4,174.6,197.4)" />
<use xlink:href="#f1_24" transform="matrix(10.4,0,0,10.4,183.5,197.4)" />
<use xlink:href="#f1_2f" transform="matrix(10.4,0,0,10.4,187,197.4)" />
<use xlink:href="#f1_20" transform="matrix(10.4,0,0,10.4,191.4,197.4)" />
<use xlink:href="#f1_f" transform="matrix(10.4,0,0,10.4,200.3,197.4)" />
<use xlink:href="#f1_21" transform="matrix(10.4,0,0,10.4,211,197.4)" />
<use xlink:href="#f1_24" transform="matrix(10.4,0,0,10.4,215.4,197.4)" />
<use xlink:href="#f1_29" transform="matrix(10.4,0,0,10.4,219,197.4)" />
<use xlink:href="#f1_1z" transform="matrix(10.4,0,0,10.4,227.8,197.4)" />
<use xlink:href="#f1_2f" transform="matrix(10.4,0,0,10.4,242.9,197.4)" />
<use xlink:href="#f1_23" transform="matrix(10.4,0,0,10.4,247.4,197.4)" />
<use xlink:href="#f1_20" transform="matrix(10.4,0,0,10.4,256.2,197.4)" />
<use xlink:href="#f1_2b" transform="matrix(10.4,0,0,10.4,271.1,197.4)" />
<use xlink:href="#f1_2d" transform="matrix(10.4,0,0,10.4,280,197.4)" />
<use xlink:href="#f1_2a" transform="matrix(10.4,0,0,10.4,285.3,197.4)" />
<use xlink:href="#f1_1x" transform="matrix(10.4,0,0,10.4,294.2,197.4)" />
<use xlink:href="#f1_1w" transform="matrix(10.4,0,0,10.4,303.1,197.4)" />
<use xlink:href="#f1_1x" transform="matrix(10.4,0,0,10.4,311.9,197.4)" />
<use xlink:href="#f1_24" transform="matrix(10.4,0,0,10.4,320.8,197.4)" />
<use xlink:href="#f1_27" transform="matrix(10.4,0,0,10.4,324.3,197.4)" />
<use xlink:href="#f1_24" transform="matrix(10.4,0,0,10.4,327.9,197.4)" />
<use xlink:href="#f1_2f" transform="matrix(10.4,0,0,10.4,331.4,197.4)" />
<use xlink:href="#f1_2k" transform="matrix(10.4,0,0,10.4,335.8,197.4)" />
<use xlink:href="#f1_2f" transform="matrix(10.4,0,0,10.4,350.1,197.4)" />
<use xlink:href="#f1_23" transform="matrix(10.4,0,0,10.4,354.5,197.4)" />
<use xlink:href="#f1_1w" transform="matrix(10.4,0,0,10.4,363.4,197.4)" />
<use xlink:href="#f1_2f" transform="matrix(10.4,0,0,10.4,372.2,197.4)" />
<use xlink:href="#f1_2f" transform="matrix(10.4,0,0,10.4,382.9,197.4)" />
<use xlink:href="#f1_23" transform="matrix(10.4,0,0,10.4,387.3,197.4)" />
<use xlink:href="#f1_20" transform="matrix(10.4,0,0,10.4,396.2,197.4)" />
<use xlink:href="#f1_1x" transform="matrix(10.4,0,0,10.4,411.3,197.4)" />
<use xlink:href="#f1_1w" transform="matrix(10.4,0,0,10.4,420.2,197.4)" />
<use xlink:href="#f1_27" transform="matrix(10.4,0,0,10.4,429,197.4)" />
<use xlink:href="#f1_27" transform="matrix(10.4,0,0,10.4,432.6,197.4)" />
<use xlink:href="#f1_2e" transform="matrix(10.4,0,0,10.4,436.1,197.4)" />
<use xlink:href="#f1_1w" transform="matrix(10.4,0,0,10.4,450.1,197.4)" />
<use xlink:href="#f1_2d" transform="matrix(10.4,0,0,10.4,459,197.4)" />
<use xlink:href="#f1_20" transform="matrix(10.4,0,0,10.4,464.3,197.4)" />
<use xlink:href="#f1_1z" transform="matrix(10.4,0,0,10.4,479.4,197.4)" />
<use xlink:href="#f1_2d" transform="matrix(10.4,0,0,10.4,488.3,197.4)" />
<use xlink:href="#f1_1w" transform="matrix(10.4,0,0,10.4,493.6,197.4)" />
<use xlink:href="#f1_2i" transform="matrix(10.4,0,0,10.4,502.5,197.4)" />
<use xlink:href="#f1_29" transform="matrix(10.4,0,0,10.4,514,197.4)" />
<use xlink:href="#f1_21" transform="matrix(10.4,0,0,10.4,529.1,197.4)" />
<use xlink:href="#f1_2d" transform="matrix(10.4,0,0,10.4,533.5,197.4)" />
<use xlink:href="#f1_2a" transform="matrix(10.4,0,0,10.4,538.8,197.4)" />
<use xlink:href="#f1_28" transform="matrix(10.4,0,0,10.4,547.7,197.4)" />
<use xlink:href="#f1_2g" transform="matrix(10.4,0,0,10.4,567,197.4)" />
<use xlink:href="#f1_2d" transform="matrix(10.4,0,0,10.4,575.9,197.4)" />
<use xlink:href="#f1_29" transform="matrix(10.4,0,0,10.4,581.2,197.4)" />
<use xlink:href="#f2_11" transform="matrix(10.4,0,0,10.4,593.8,197.4)" />
<use xlink:href="#f1_h" transform="matrix(10.4,0,0,10.4,604.4,197.4)" />
<use xlink:href="#f1_m" transform="matrix(10.4,0,0,10.4,43.6,231.4)" />
<use xlink:href="#f1_r" transform="matrix(10.4,0,0,10.4,52.5,231.4)" />
<use xlink:href="#f1_h" transform="matrix(10.4,0,0,10.4,61.7,231.4)" />
<use xlink:href="#f1_1j" transform="matrix(10.4,0,0,10.4,84.3,231.4)" />
<use xlink:href="#f1_2i" transform="matrix(10.4,0,0,10.4,94.1,231.4)" />
<use xlink:href="#f1_2a" transform="matrix(10.4,0,0,10.4,105.6,231.4)" />
<use xlink:href="#f1_1y" transform="matrix(10.4,0,0,10.4,122.5,231.4)" />
<use xlink:href="#f1_1w" transform="matrix(10.4,0,0,10.4,130.5,231.4)" />
<use xlink:href="#f1_2d" transform="matrix(10.4,0,0,10.4,139.4,231.4)" />
<use xlink:href="#f1_1z" transform="matrix(10.4,0,0,10.4,144.7,231.4)" />
<use xlink:href="#f1_2e" transform="matrix(10.4,0,0,10.4,153.5,231.4)" />
<use xlink:href="#f1_1w" transform="matrix(10.4,0,0,10.4,169.6,231.4)" />
<use xlink:href="#f1_2d" transform="matrix(10.4,0,0,10.4,178.5,231.4)" />
<use xlink:href="#f1_20" transform="matrix(10.4,0,0,10.4,183.8,231.4)" />
<use xlink:href="#f1_1z" transform="matrix(10.4,0,0,10.4,200.7,231.4)" />
<use xlink:href="#f1_2d" transform="matrix(10.4,0,0,10.4,209.6,231.4)" />
<use xlink:href="#f1_1w" transform="matrix(10.4,0,0,10.4,214.9,231.4)" />
<use xlink:href="#f1_2i" transform="matrix(10.4,0,0,10.4,223.8,231.4)" />
<use xlink:href="#f1_29" transform="matrix(10.4,0,0,10.4,235.3,231.4)" />
<use xlink:href="#f1_21" transform="matrix(10.4,0,0,10.4,252.2,231.4)" />
<use xlink:href="#f1_2d" transform="matrix(10.4,0,0,10.4,256.6,231.4)" />
<use xlink:href="#f1_2a" transform="matrix(10.4,0,0,10.4,262,231.4)" />
<use xlink:href="#f1_28" transform="matrix(10.4,0,0,10.4,270.8,231.4)" />
<use xlink:href="#f1_1w" transform="matrix(10.4,0,0,10.4,292.2,231.4)" />
<use xlink:href="#f1_2i" transform="matrix(10.4,0,0,10.4,309.1,231.4)" />
<use xlink:href="#f1_20" transform="matrix(10.4,0,0,10.4,320.6,231.4)" />
<use xlink:href="#f1_27" transform="matrix(10.4,0,0,10.4,329.5,231.4)" />
<use xlink:href="#f1_27" transform="matrix(10.4,0,0,10.4,333,231.4)" />
<use xlink:href="#f1_2e" transform="matrix(10.4,0,0,10.4,344.8,231.4)" />
<use xlink:href="#f1_23" transform="matrix(10.4,0,0,10.4,352.8,231.4)" />
<use xlink:href="#f1_2g" transform="matrix(10.4,0,0,10.4,361.7,231.4)" />
<use xlink:href="#f1_21" transform="matrix(10.4,0,0,10.4,370.5,231.4)" />
<use xlink:href="#f1_21" transform="matrix(10.4,0,0,10.4,375,231.4)" />
<use xlink:href="#f1_27" transform="matrix(10.4,0,0,10.4,379.4,231.4)" />
<use xlink:href="#f1_20" transform="matrix(10.4,0,0,10.4,382.9,231.4)" />
<use xlink:href="#f1_1z" transform="matrix(10.4,0,0,10.4,391.8,231.4)" />
<use xlink:href="#f1_2b" transform="matrix(10.4,0,0,10.4,408.8,231.4)" />
<use xlink:href="#f1_1w" transform="matrix(10.4,0,0,10.4,417.6,231.4)" />
<use xlink:href="#f1_1y" transform="matrix(10.4,0,0,10.4,426.5,231.4)" />
<use xlink:href="#f1_26" transform="matrix(10.4,0,0,10.4,434.5,231.4)" />
<use xlink:href="#f1_2a" transform="matrix(10.4,0,0,10.4,450.5,231.4)" />
<use xlink:href="#f1_21" transform="matrix(10.4,0,0,10.4,459.4,231.4)" />
<use xlink:href="#f1_o" transform="matrix(10.4,0,0,10.4,471.9,231.4)" />
<use xlink:href="#f1_l" transform="matrix(10.4,0,0,10.4,480.8,231.4)" />
<use xlink:href="#f1_1y" transform="matrix(10.4,0,0,10.4,497.7,231.4)" />
<use xlink:href="#f1_1w" transform="matrix(10.4,0,0,10.4,505.7,231.4)" />
<use xlink:href="#f1_2d" transform="matrix(10.4,0,0,10.4,514.5,231.4)" />
<use xlink:href="#f1_1z" transform="matrix(10.4,0,0,10.4,519.8,231.4)" />
<use xlink:href="#f1_2e" transform="matrix(10.4,0,0,10.4,528.7,231.4)" />
<use xlink:href="#f1_h" transform="matrix(10.4,0,0,10.4,536.7,231.4)" />
<use xlink:href="#f1_15" transform="matrix(10.4,0,0,10.4,549.2,231.4)" />
<use xlink:href="#f1_24" transform="matrix(10.4,0,0,10.4,558.9,231.4)" />
<use xlink:href="#f1_29" transform="matrix(10.4,0,0,10.4,562.5,231.4)" />
<use xlink:href="#f1_1z" transform="matrix(10.4,0,0,10.4,571.4,231.4)" />
<use xlink:href="#f1_2f" transform="matrix(10.4,0,0,10.4,588.3,231.4)" />
<use xlink:href="#f1_23" transform="matrix(10.4,0,0,10.4,592.7,231.4)" />
<use xlink:href="#f1_20" transform="matrix(10.4,0,0,10.4,601.6,231.4)" />
<use xlink:href="#f1_28" transform="matrix(10.4,0,0,10.4,84.3,251.5)" />
<use xlink:href="#f1_20" transform="matrix(10.4,0,0,10.4,97.6,251.5)" />
<use xlink:href="#f1_1w" transform="matrix(10.4,0,0,10.4,106.5,251.5)" />
<use xlink:href="#f1_29" transform="matrix(10.4,0,0,10.4,115.3,251.5)" />
<use xlink:href="#f1_1w" transform="matrix(10.4,0,0,10.4,131.5,251.5)" />
<use xlink:href="#f1_29" transform="matrix(10.4,0,0,10.4,140.4,251.5)" />
<use xlink:href="#f1_1z" transform="matrix(10.4,0,0,10.4,149.3,251.5)" />
<use xlink:href="#f1_2h" transform="matrix(10.4,0,0,10.4,165.7,251.5)" />
<use xlink:href="#f1_1w" transform="matrix(10.4,0,0,10.4,173.6,251.5)" />
<use xlink:href="#f1_2d" transform="matrix(10.4,0,0,10.4,182.5,251.5)" />
<use xlink:href="#f1_24" transform="matrix(10.4,0,0,10.4,187.8,251.5)" />
<use xlink:href="#f1_1w" transform="matrix(10.4,0,0,10.4,191.4,251.5)" />
<use xlink:href="#f1_29" transform="matrix(10.4,0,0,10.4,200.2,251.5)" />
<use xlink:href="#f1_1y" transform="matrix(10.4,0,0,10.4,209.1,251.5)" />
<use xlink:href="#f1_20" transform="matrix(10.4,0,0,10.4,217.1,251.5)" />
<use xlink:href="#f1_21" transform="matrix(10.4,0,0,10.4,233.3,251.5)" />
<use xlink:href="#f1_2a" transform="matrix(10.4,0,0,10.4,237.7,251.5)" />
<use xlink:href="#f1_2d" transform="matrix(10.4,0,0,10.4,246.6,251.5)" />
<use xlink:href="#f1_2f" transform="matrix(10.4,0,0,10.4,259.4,251.5)" />
<use xlink:href="#f1_23" transform="matrix(10.4,0,0,10.4,263.8,251.5)" />
<use xlink:href="#f1_20" transform="matrix(10.4,0,0,10.4,272.7,251.5)" />
<use xlink:href="#f1_29" transform="matrix(10.4,0,0,10.4,288.9,251.5)" />
<use xlink:href="#f1_2g" transform="matrix(10.4,0,0,10.4,297.8,251.5)" />
<use xlink:href="#f1_28" transform="matrix(10.4,0,0,10.4,306.6,251.5)" />
<use xlink:href="#f1_1x" transform="matrix(10.4,0,0,10.4,319.9,251.5)" />
<use xlink:href="#f1_20" transform="matrix(10.4,0,0,10.4,328.8,251.5)" />
<use xlink:href="#f1_2d" transform="matrix(10.4,0,0,10.4,337.7,251.5)" />
<use xlink:href="#f1_2a" transform="matrix(10.4,0,0,10.4,350.5,251.5)" />
<use xlink:href="#f1_21" transform="matrix(10.4,0,0,10.4,359.4,251.5)" />
<use xlink:href="#f1_21" transform="matrix(10.4,0,0,10.4,371.1,251.5)" />
<use xlink:href="#f1_1w" transform="matrix(10.4,0,0,10.4,375.6,251.5)" />
<use xlink:href="#f1_1y" transform="matrix(10.4,0,0,10.4,384.4,251.5)" />
<use xlink:href="#f1_20" transform="matrix(10.4,0,0,10.4,392.4,251.5)" />
<use xlink:href="#f1_1y" transform="matrix(10.4,0,0,10.4,408.8,251.5)" />
<use xlink:href="#f1_1w" transform="matrix(10.4,0,0,10.4,416.8,251.5)" />
<use xlink:href="#f1_2d" transform="matrix(10.4,0,0,10.4,425.6,251.5)" />
<use xlink:href="#f1_1z" transform="matrix(10.4,0,0,10.4,430.9,251.5)" />
<use xlink:href="#f1_2e" transform="matrix(10.4,0,0,10.4,439.8,251.5)" />
<use xlink:href="#f1_2a" transform="matrix(10.4,0,0,10.4,455.1,251.5)" />
<use xlink:href="#f1_1x" transform="matrix(10.4,0,0,10.4,464,251.5)" />
<use xlink:href="#f1_2f" transform="matrix(10.4,0,0,10.4,472.9,251.5)" />
<use xlink:href="#f1_1w" transform="matrix(10.4,0,0,10.4,477.3,251.5)" />
<use xlink:href="#f1_24" transform="matrix(10.4,0,0,10.4,486.2,251.5)" />
<use xlink:href="#f1_29" transform="matrix(10.4,0,0,10.4,489.7,251.5)" />
<use xlink:href="#f1_20" transform="matrix(10.4,0,0,10.4,498.6,251.5)" />
<use xlink:href="#f1_1z" transform="matrix(10.4,0,0,10.4,507.4,251.5)" />
<use xlink:href="#f1_h" transform="matrix(10.4,0,0,10.4,516.3,251.5)" />
<use xlink:href="#f1_m" transform="matrix(10.4,0,0,10.4,43.6,285.4)" />
<use xlink:href="#f1_s" transform="matrix(10.4,0,0,10.4,52.5,285.4)" />
<use xlink:href="#f1_h" transform="matrix(10.4,0,0,10.4,61.7,285.4)" />
<use xlink:href="#f1_1m" transform="matrix(10.4,0,0,10.4,84.3,285.4)" />
<use xlink:href="#f1_2d" transform="matrix(10.4,0,0,10.4,99.4,285.4)" />
<use xlink:href="#f1_24" transform="matrix(10.4,0,0,10.4,104.7,285.4)" />
<use xlink:href="#f1_2f" transform="matrix(10.4,0,0,10.4,108.2,285.4)" />
<use xlink:href="#f1_20" transform="matrix(10.4,0,0,10.4,112.7,285.4)" />
<use xlink:href="#f1_2f" transform="matrix(10.4,0,0,10.4,128.3,285.4)" />
<use xlink:href="#f1_23" transform="matrix(10.4,0,0,10.4,132.7,285.4)" />
<use xlink:href="#f1_20" transform="matrix(10.4,0,0,10.4,141.6,285.4)" />
<use xlink:href="#f1_2b" transform="matrix(10.4,0,0,10.4,157.1,285.4)" />
<use xlink:href="#f1_2d" transform="matrix(10.4,0,0,10.4,166,285.4)" />
<use xlink:href="#f1_2a" transform="matrix(10.4,0,0,10.4,171.3,285.4)" />
<use xlink:href="#f1_1x" transform="matrix(10.4,0,0,10.4,180.1,285.4)" />
<use xlink:href="#f1_1w" transform="matrix(10.4,0,0,10.4,189,285.4)" />
<use xlink:href="#f1_1x" transform="matrix(10.4,0,0,10.4,197.9,285.4)" />
<use xlink:href="#f1_24" transform="matrix(10.4,0,0,10.4,206.7,285.4)" />
<use xlink:href="#f1_27" transform="matrix(10.4,0,0,10.4,210.3,285.4)" />
<use xlink:href="#f1_24" transform="matrix(10.4,0,0,10.4,213.8,285.4)" />
<use xlink:href="#f1_2f" transform="matrix(10.4,0,0,10.4,217.4,285.4)" />
<use xlink:href="#f1_2k" transform="matrix(10.4,0,0,10.4,221.8,285.4)" />
<use xlink:href="#f1_1z" transform="matrix(10.4,0,0,10.4,236.5,285.4)" />
<use xlink:href="#f1_24" transform="matrix(10.4,0,0,10.4,245.4,285.4)" />
<use xlink:href="#f1_2e" transform="matrix(10.4,0,0,10.4,249,285.4)" />
<use xlink:href="#f1_2f" transform="matrix(10.4,0,0,10.4,256.9,285.4)" />
<use xlink:href="#f1_2d" transform="matrix(10.4,0,0,10.4,261.4,285.4)" />
<use xlink:href="#f1_24" transform="matrix(10.4,0,0,10.4,266.7,285.4)" />
<use xlink:href="#f1_1x" transform="matrix(10.4,0,0,10.4,270.2,285.4)" />
<use xlink:href="#f1_2g" transform="matrix(10.4,0,0,10.4,279.1,285.4)" />
<use xlink:href="#f1_2f" transform="matrix(10.4,0,0,10.4,288,285.4)" />
<use xlink:href="#f1_24" transform="matrix(10.4,0,0,10.4,292.4,285.4)" />
<use xlink:href="#f1_2a" transform="matrix(10.4,0,0,10.4,295.9,285.4)" />
<use xlink:href="#f1_29" transform="matrix(10.4,0,0,10.4,304.8,285.4)" />
<use xlink:href="#f1_21" transform="matrix(10.4,0,0,10.4,320.4,285.4)" />
<use xlink:href="#f1_2a" transform="matrix(10.4,0,0,10.4,324.9,285.4)" />
<use xlink:href="#f1_2d" transform="matrix(10.4,0,0,10.4,333.7,285.4)" />
<use xlink:href="#f1_2f" transform="matrix(10.4,0,0,10.4,345.7,285.4)" />
<use xlink:href="#f1_23" transform="matrix(10.4,0,0,10.4,350.1,285.4)" />
<use xlink:href="#f1_20" transform="matrix(10.4,0,0,10.4,359,285.4)" />
<use xlink:href="#f1_29" transform="matrix(10.4,0,0,10.4,374.6,285.4)" />
<use xlink:href="#f1_2g" transform="matrix(10.4,0,0,10.4,383.5,285.4)" />
<use xlink:href="#f1_28" transform="matrix(10.4,0,0,10.4,392.3,285.4)" />
<use xlink:href="#f1_1x" transform="matrix(10.4,0,0,10.4,405.6,285.4)" />
<use xlink:href="#f1_20" transform="matrix(10.4,0,0,10.4,414.5,285.4)" />
<use xlink:href="#f1_2d" transform="matrix(10.4,0,0,10.4,423.4,285.4)" />
<use xlink:href="#f1_2a" transform="matrix(10.4,0,0,10.4,435.5,285.4)" />
<use xlink:href="#f1_21" transform="matrix(10.4,0,0,10.4,444.3,285.4)" />
<use xlink:href="#f1_23" transform="matrix(10.4,0,0,10.4,455.5,285.4)" />
<use xlink:href="#f1_20" transform="matrix(10.4,0,0,10.4,464.4,285.4)" />
<use xlink:href="#f1_1w" transform="matrix(10.4,0,0,10.4,473.3,285.4)" />
<use xlink:href="#f1_1z" transform="matrix(10.4,0,0,10.4,482.1,285.4)" />
<use xlink:href="#f1_2e" transform="matrix(10.4,0,0,10.4,491,285.4)" />
<use xlink:href="#f1_2a" transform="matrix(10.4,0,0,10.4,505.6,285.4)" />
<use xlink:href="#f1_1x" transform="matrix(10.4,0,0,10.4,514.5,285.4)" />
<use xlink:href="#f1_2f" transform="matrix(10.4,0,0,10.4,523.3,285.4)" />
<use xlink:href="#f1_1w" transform="matrix(10.4,0,0,10.4,527.8,285.4)" />
<use xlink:href="#f1_24" transform="matrix(10.4,0,0,10.4,536.6,285.4)" />
<use xlink:href="#f1_29" transform="matrix(10.4,0,0,10.4,540.2,285.4)" />
<use xlink:href="#f1_20" transform="matrix(10.4,0,0,10.4,549,285.4)" />
<use xlink:href="#f1_1z" transform="matrix(10.4,0,0,10.4,557.9,285.4)" />
<use xlink:href="#f1_2i" transform="matrix(10.4,0,0,10.4,573.6,285.4)" />
<use xlink:href="#f1_23" transform="matrix(10.4,0,0,10.4,585.1,285.4)" />
<use xlink:href="#f1_20" transform="matrix(10.4,0,0,10.4,593.9,285.4)" />
<use xlink:href="#f1_29" transform="matrix(10.4,0,0,10.4,602.8,285.4)" />
<use xlink:href="#f1_2f" transform="matrix(10.4,0,0,10.4,84.3,305.6)" />
<use xlink:href="#f1_23" transform="matrix(10.4,0,0,10.4,88.8,305.6)" />
<use xlink:href="#f1_2d" transform="matrix(10.4,0,0,10.4,97.6,305.6)" />
<use xlink:href="#f1_20" transform="matrix(10.4,0,0,10.4,102.9,305.6)" />
<use xlink:href="#f1_20" transform="matrix(10.4,0,0,10.4,111.8,305.6)" />
<use xlink:href="#f1_1y" transform="matrix(10.4,0,0,10.4,126.9,305.6)" />
<use xlink:href="#f1_2a" transform="matrix(10.4,0,0,10.4,134.9,305.6)" />
<use xlink:href="#f1_24" transform="matrix(10.4,0,0,10.4,143.7,305.6)" />
<use xlink:href="#f1_29" transform="matrix(10.4,0,0,10.4,147.3,305.6)" />
<use xlink:href="#f1_2e" transform="matrix(10.4,0,0,10.4,156.2,305.6)" />
<use xlink:href="#f1_1w" transform="matrix(10.4,0,0,10.4,170.4,305.6)" />
<use xlink:href="#f1_2d" transform="matrix(10.4,0,0,10.4,179.2,305.6)" />
<use xlink:href="#f1_20" transform="matrix(10.4,0,0,10.4,184.5,305.6)" />
<use xlink:href="#f1_2f" transform="matrix(10.4,0,0,10.4,199.7,305.6)" />
<use xlink:href="#f1_2a" transform="matrix(10.4,0,0,10.4,204.1,305.6)" />
<use xlink:href="#f1_2e" transform="matrix(10.4,0,0,10.4,213,305.6)" />
<use xlink:href="#f1_2e" transform="matrix(10.4,0,0,10.4,220.9,305.6)" />
<use xlink:href="#f1_20" transform="matrix(10.4,0,0,10.4,228.9,305.6)" />
<use xlink:href="#f1_1z" transform="matrix(10.4,0,0,10.4,237.8,305.6)" />
<use xlink:href="#f1_2f" transform="matrix(10.4,0,0,10.4,252.9,305.6)" />
<use xlink:href="#f1_2a" transform="matrix(10.4,0,0,10.4,257.3,305.6)" />
<use xlink:href="#f1_22" transform="matrix(10.4,0,0,10.4,266.2,305.6)" />
<use xlink:href="#f1_20" transform="matrix(10.4,0,0,10.4,275,305.6)" />
<use xlink:href="#f1_2f" transform="matrix(10.4,0,0,10.4,283.9,305.6)" />
<use xlink:href="#f1_23" transform="matrix(10.4,0,0,10.4,288.4,305.6)" />
<use xlink:href="#f1_20" transform="matrix(10.4,0,0,10.4,297.2,305.6)" />
<use xlink:href="#f1_2d" transform="matrix(10.4,0,0,10.4,306.1,305.6)" />
<use xlink:href="#f1_h" transform="matrix(10.4,0,0,10.4,311.4,305.6)" />
<use xlink:href="#f1_10" transform="matrix(10.4,0,0,10.4,322.1,305.6)" />
<use xlink:href="#f1_27" transform="matrix(10.4,0,0,10.4,332.7,305.6)" />
<use xlink:href="#f1_2e" transform="matrix(10.4,0,0,10.4,336.2,305.6)" />
<use xlink:href="#f1_2a" transform="matrix(10.4,0,0,10.4,344.2,305.6)" />
<use xlink:href="#f1_f" transform="matrix(10.4,0,0,10.4,353.1,305.6)" />
<use xlink:href="#f1_21" transform="matrix(10.4,0,0,10.4,363.6,305.6)" />
<use xlink:href="#f1_24" transform="matrix(10.4,0,0,10.4,368,305.6)" />
<use xlink:href="#f1_29" transform="matrix(10.4,0,0,10.4,371.5,305.6)" />
<use xlink:href="#f1_1z" transform="matrix(10.4,0,0,10.4,380.4,305.6)" />
<use xlink:href="#f1_2f" transform="matrix(10.4,0,0,10.4,395.5,305.6)" />
<use xlink:href="#f1_23" transform="matrix(10.4,0,0,10.4,400,305.6)" />
<use xlink:href="#f1_20" transform="matrix(10.4,0,0,10.4,408.8,305.6)" />
<use xlink:href="#f1_28" transform="matrix(10.4,0,0,10.4,423.9,305.6)" />
<use xlink:href="#f1_20" transform="matrix(10.4,0,0,10.4,437.2,305.6)" />
<use xlink:href="#f1_1w" transform="matrix(10.4,0,0,10.4,446.1,305.6)" />
<use xlink:href="#f1_29" transform="matrix(10.4,0,0,10.4,454.9,305.6)" />
<use xlink:href="#f1_1w" transform="matrix(10.4,0,0,10.4,470.1,305.6)" />
<use xlink:href="#f1_29" transform="matrix(10.4,0,0,10.4,478.9,305.6)" />
<use xlink:href="#f1_1z" transform="matrix(10.4,0,0,10.4,487.8,305.6)" />
<use xlink:href="#f1_2h" transform="matrix(10.4,0,0,10.4,502.9,305.6)" />
<use xlink:href="#f1_1w" transform="matrix(10.4,0,0,10.4,510.9,305.6)" />
<use xlink:href="#f1_2d" transform="matrix(10.4,0,0,10.4,519.7,305.6)" />
<use xlink:href="#f1_24" transform="matrix(10.4,0,0,10.4,525,305.6)" />
<use xlink:href="#f1_1w" transform="matrix(10.4,0,0,10.4,528.6,305.6)" />
<use xlink:href="#f1_29" transform="matrix(10.4,0,0,10.4,537.5,305.6)" />
<use xlink:href="#f1_1y" transform="matrix(10.4,0,0,10.4,546.3,305.6)" />
<use xlink:href="#f1_20" transform="matrix(10.4,0,0,10.4,554.3,305.6)" />
<use xlink:href="#f1_2a" transform="matrix(10.4,0,0,10.4,569.4,305.6)" />
<use xlink:href="#f1_21" transform="matrix(10.4,0,0,10.4,578.3,305.6)" />
<use xlink:href="#f1_2f" transform="matrix(10.4,0,0,10.4,588.9,305.6)" />
<use xlink:href="#f1_23" transform="matrix(10.4,0,0,10.4,593.4,305.6)" />
<use xlink:href="#f1_20" transform="matrix(10.4,0,0,10.4,602.2,305.6)" />
<use xlink:href="#f1_29" transform="matrix(10.4,0,0,10.4,84.3,325.8)" />
<use xlink:href="#f1_2g" transform="matrix(10.4,0,0,10.4,93.2,325.8)" />
<use xlink:href="#f1_28" transform="matrix(10.4,0,0,10.4,102.1,325.8)" />
<use xlink:href="#f1_1x" transform="matrix(10.4,0,0,10.4,115.3,325.8)" />
<use xlink:href="#f1_20" transform="matrix(10.4,0,0,10.4,124.2,325.8)" />
<use xlink:href="#f1_2d" transform="matrix(10.4,0,0,10.4,133.1,325.8)" />
<use xlink:href="#f1_2a" transform="matrix(10.4,0,0,10.4,146.1,325.8)" />
<use xlink:href="#f1_21" transform="matrix(10.4,0,0,10.4,155,325.8)" />
<use xlink:href="#f1_23" transform="matrix(10.4,0,0,10.4,167.3,325.8)" />
<use xlink:href="#f1_20" transform="matrix(10.4,0,0,10.4,176.1,325.8)" />
<use xlink:href="#f1_1w" transform="matrix(10.4,0,0,10.4,185,325.8)" />
<use xlink:href="#f1_1z" transform="matrix(10.4,0,0,10.4,193.9,325.8)" />
<use xlink:href="#f1_2e" transform="matrix(10.4,0,0,10.4,202.7,325.8)" />
<use xlink:href="#f1_h" transform="matrix(10.4,0,0,10.4,210.7,325.8)" />
<use xlink:href="#f1_n" transform="matrix(10.4,0,0,10.4,43.6,359.7)" />
<use xlink:href="#f1_j" transform="matrix(10.4,0,0,10.4,52.5,359.7)" />
<use xlink:href="#f1_h" transform="matrix(10.4,0,0,10.4,61.7,359.7)" />
<use xlink:href="#f1_1j" transform="matrix(10.4,0,0,10.4,84.3,359.7)" />
<use xlink:href="#f1_2i" transform="matrix(10.4,0,0,10.4,94.1,359.7)" />
<use xlink:href="#f1_2a" transform="matrix(10.4,0,0,10.4,105.6,359.7)" />
<use xlink:href="#f1_22" transform="matrix(10.4,0,0,10.4,121.2,359.7)" />
<use xlink:href="#f1_2d" transform="matrix(10.4,0,0,10.4,130.1,359.7)" />
<use xlink:href="#f1_2a" transform="matrix(10.4,0,0,10.4,135.4,359.7)" />
<use xlink:href="#f1_2g" transform="matrix(10.4,0,0,10.4,144.3,359.7)" />
<use xlink:href="#f1_2b" transform="matrix(10.4,0,0,10.4,153.1,359.7)" />
<use xlink:href="#f1_2e" transform="matrix(10.4,0,0,10.4,162,359.7)" />
<use xlink:href="#f1_1w" transform="matrix(10.4,0,0,10.4,177,359.7)" />
<use xlink:href="#f1_2d" transform="matrix(10.4,0,0,10.4,185.8,359.7)" />
<use xlink:href="#f1_20" transform="matrix(10.4,0,0,10.4,191.1,359.7)" />
<use xlink:href="#f1_1y" transform="matrix(10.4,0,0,10.4,206.8,359.7)" />
<use xlink:href="#f1_2a" transform="matrix(10.4,0,0,10.4,214.8,359.7)" />
<use xlink:href="#f1_28" transform="matrix(10.4,0,0,10.4,223.6,359.7)" />
<use xlink:href="#f1_2b" transform="matrix(10.4,0,0,10.4,236.9,359.7)" />
<use xlink:href="#f1_20" transform="matrix(10.4,0,0,10.4,245.8,359.7)" />
<use xlink:href="#f1_2f" transform="matrix(10.4,0,0,10.4,254.6,359.7)" />
<use xlink:href="#f1_24" transform="matrix(10.4,0,0,10.4,259.1,359.7)" />
<use xlink:href="#f1_29" transform="matrix(10.4,0,0,10.4,262.6,359.7)" />
<use xlink:href="#f1_22" transform="matrix(10.4,0,0,10.4,271.5,359.7)" />
<use xlink:href="#f1_21" transform="matrix(10.4,0,0,10.4,287.3,359.7)" />
<use xlink:href="#f1_2a" transform="matrix(10.4,0,0,10.4,291.8,359.7)" />
<use xlink:href="#f1_2d" transform="matrix(10.4,0,0,10.4,300.6,359.7)" />
<use xlink:href="#f1_2f" transform="matrix(10.4,0,0,10.4,312.7,359.7)" />
<use xlink:href="#f1_23" transform="matrix(10.4,0,0,10.4,317.2,359.7)" />
<use xlink:href="#f1_20" transform="matrix(10.4,0,0,10.4,326,359.7)" />
<use xlink:href="#f1_2b" transform="matrix(10.4,0,0,10.4,341.9,359.7)" />
<use xlink:href="#f1_2a" transform="matrix(10.4,0,0,10.4,350.7,359.7)" />
<use xlink:href="#f1_2e" transform="matrix(10.4,0,0,10.4,359.6,359.7)" />
<use xlink:href="#f1_24" transform="matrix(10.4,0,0,10.4,367.6,359.7)" />
<use xlink:href="#f1_2f" transform="matrix(10.4,0,0,10.4,371.1,359.7)" />
<use xlink:href="#f1_24" transform="matrix(10.4,0,0,10.4,375.5,359.7)" />
<use xlink:href="#f1_2a" transform="matrix(10.4,0,0,10.4,379.1,359.7)" />
<use xlink:href="#f1_29" transform="matrix(10.4,0,0,10.4,388,359.7)" />
<use xlink:href="#f1_2a" transform="matrix(10.4,0,0,10.4,403.6,359.7)" />
<use xlink:href="#f1_29" transform="matrix(10.4,0,0,10.4,412.5,359.7)" />
<use xlink:href="#f1_2f" transform="matrix(10.4,0,0,10.4,428.3,359.7)" />
<use xlink:href="#f1_23" transform="matrix(10.4,0,0,10.4,432.7,359.7)" />
<use xlink:href="#f1_20" transform="matrix(10.4,0,0,10.4,441.6,359.7)" />
<use xlink:href="#f1_11" transform="matrix(10.4,0,0,10.4,457.3,359.7)" />
<use xlink:href="#f1_2a" transform="matrix(10.4,0,0,10.4,467.9,359.7)" />
<use xlink:href="#f1_1w" transform="matrix(10.4,0,0,10.4,476.8,359.7)" />
<use xlink:href="#f1_2d" transform="matrix(10.4,0,0,10.4,485.6,359.7)" />
<use xlink:href="#f1_1z" transform="matrix(10.4,0,0,10.4,490.9,359.7)" />
<use xlink:href="#f1_2a" transform="matrix(10.4,0,0,10.4,506.8,359.7)" />
<use xlink:href="#f1_21" transform="matrix(10.4,0,0,10.4,515.7,359.7)" />
<use xlink:href="#f1_13" transform="matrix(10.4,0,0,10.4,526.9,359.7)" />
<use xlink:href="#f1_24" transform="matrix(10.4,0,0,10.4,538.4,359.7)" />
<use xlink:href="#f1_2d" transform="matrix(10.4,0,0,10.4,541.9,359.7)" />
<use xlink:href="#f1_20" transform="matrix(10.4,0,0,10.4,547.2,359.7)" />
<use xlink:href="#f1_1y" transform="matrix(10.4,0,0,10.4,556.1,359.7)" />
<use xlink:href="#f1_2f" transform="matrix(10.4,0,0,10.4,564.1,359.7)" />
<use xlink:href="#f1_2a" transform="matrix(10.4,0,0,10.4,568.5,359.7)" />
<use xlink:href="#f1_2d" transform="matrix(10.4,0,0,10.4,577.4,359.7)" />
<use xlink:href="#f1_2e" transform="matrix(10.4,0,0,10.4,582.7,359.7)" />
<use xlink:href="#f1_2a" transform="matrix(10.4,0,0,10.4,597.6,359.7)" />
<use xlink:href="#f1_21" transform="matrix(10.4,0,0,10.4,606.5,359.7)" />
<use xlink:href="#f1_1w" transform="matrix(10.4,0,0,10.4,84.3,379.9)" />
<use xlink:href="#f1_1y" transform="matrix(10.4,0,0,10.4,100.2,379.9)" />
<use xlink:href="#f1_2a" transform="matrix(10.4,0,0,10.4,108.1,379.9)" />
<use xlink:href="#f1_2d" transform="matrix(10.4,0,0,10.4,117,379.9)" />
<use xlink:href="#f1_2b" transform="matrix(10.4,0,0,10.4,122.3,379.9)" />
<use xlink:href="#f1_2a" transform="matrix(10.4,0,0,10.4,131.2,379.9)" />
<use xlink:href="#f1_2d" transform="matrix(10.4,0,0,10.4,140,379.9)" />
<use xlink:href="#f1_1w" transform="matrix(10.4,0,0,10.4,145.4,379.9)" />
<use xlink:href="#f1_2f" transform="matrix(10.4,0,0,10.4,154.2,379.9)" />
<use xlink:href="#f1_24" transform="matrix(10.4,0,0,10.4,158.7,379.9)" />
<use xlink:href="#f1_2a" transform="matrix(10.4,0,0,10.4,162.2,379.9)" />
<use xlink:href="#f1_29" transform="matrix(10.4,0,0,10.4,171.1,379.9)" />
<use xlink:href="#f1_h" transform="matrix(10.4,0,0,10.4,179.9,379.9)" />
<use xlink:href="#f1_1j" transform="matrix(10.4,0,0,10.4,191.2,379.9)" />
<use xlink:href="#f1_23" transform="matrix(10.4,0,0,10.4,200.9,379.9)" />
<use xlink:href="#f1_20" transform="matrix(10.4,0,0,10.4,209.8,379.9)" />
<use xlink:href="#f1_2b" transform="matrix(10.4,0,0,10.4,225.6,379.9)" />
<use xlink:href="#f1_2d" transform="matrix(10.4,0,0,10.4,234.5,379.9)" />
<use xlink:href="#f1_2a" transform="matrix(10.4,0,0,10.4,239.8,379.9)" />
<use xlink:href="#f1_1x" transform="matrix(10.4,0,0,10.4,248.7,379.9)" />
<use xlink:href="#f1_1w" transform="matrix(10.4,0,0,10.4,257.5,379.9)" />
<use xlink:href="#f1_1x" transform="matrix(10.4,0,0,10.4,266.4,379.9)" />
<use xlink:href="#f1_24" transform="matrix(10.4,0,0,10.4,275.3,379.9)" />
<use xlink:href="#f1_27" transform="matrix(10.4,0,0,10.4,278.8,379.9)" />
<use xlink:href="#f1_24" transform="matrix(10.4,0,0,10.4,282.3,379.9)" />
<use xlink:href="#f1_2f" transform="matrix(10.4,0,0,10.4,285.9,379.9)" />
<use xlink:href="#f1_24" transform="matrix(10.4,0,0,10.4,290.3,379.9)" />
<use xlink:href="#f1_20" transform="matrix(10.4,0,0,10.4,293.9,379.9)" />
<use xlink:href="#f1_2e" transform="matrix(10.4,0,0,10.4,302.7,379.9)" />
<use xlink:href="#f1_2f" transform="matrix(10.4,0,0,10.4,317.5,379.9)" />
<use xlink:href="#f1_23" transform="matrix(10.4,0,0,10.4,321.9,379.9)" />
<use xlink:href="#f1_1w" transform="matrix(10.4,0,0,10.4,330.8,379.9)" />
<use xlink:href="#f1_2f" transform="matrix(10.4,0,0,10.4,339.6,379.9)" />
<use xlink:href="#f1_2f" transform="matrix(10.4,0,0,10.4,351,379.9)" />
<use xlink:href="#f1_23" transform="matrix(10.4,0,0,10.4,355.5,379.9)" />
<use xlink:href="#f1_20" transform="matrix(10.4,0,0,10.4,364.4,379.9)" />
<use xlink:href="#f1_21" transform="matrix(10.4,0,0,10.4,380,379.9)" />
<use xlink:href="#f1_24" transform="matrix(10.4,0,0,10.4,384.4,379.9)" />
<use xlink:href="#f1_2d" transform="matrix(10.4,0,0,10.4,388,379.9)" />
<use xlink:href="#f1_2e" transform="matrix(10.4,0,0,10.4,393.3,379.9)" />
<use xlink:href="#f1_2f" transform="matrix(10.4,0,0,10.4,401.3,379.9)" />
<use xlink:href="#f1_1w" transform="matrix(10.4,0,0,10.4,412.7,379.9)" />
<use xlink:href="#f1_29" transform="matrix(10.4,0,0,10.4,421.5,379.9)" />
<use xlink:href="#f1_1z" transform="matrix(10.4,0,0,10.4,430.4,379.9)" />
<use xlink:href="#f1_2f" transform="matrix(10.4,0,0,10.4,446,379.9)" />
<use xlink:href="#f1_23" transform="matrix(10.4,0,0,10.4,450.5,379.9)" />
<use xlink:href="#f1_20" transform="matrix(10.4,0,0,10.4,459.4,379.9)" />
<use xlink:href="#f1_2e" transform="matrix(10.4,0,0,10.4,475.2,379.9)" />
<use xlink:href="#f1_20" transform="matrix(10.4,0,0,10.4,483.2,379.9)" />
<use xlink:href="#f1_1y" transform="matrix(10.4,0,0,10.4,492,379.9)" />
<use xlink:href="#f1_2a" transform="matrix(10.4,0,0,10.4,500,379.9)" />
<use xlink:href="#f1_29" transform="matrix(10.4,0,0,10.4,508.9,379.9)" />
<use xlink:href="#f1_1z" transform="matrix(10.4,0,0,10.4,517.7,379.9)" />
<use xlink:href="#f1_22" transform="matrix(10.4,0,0,10.4,533.4,379.9)" />
<use xlink:href="#f1_2d" transform="matrix(10.4,0,0,10.4,542.3,379.9)" />
<use xlink:href="#f1_2a" transform="matrix(10.4,0,0,10.4,547.6,379.9)" />
<use xlink:href="#f1_2g" transform="matrix(10.4,0,0,10.4,556.4,379.9)" />
<use xlink:href="#f1_2b" transform="matrix(10.4,0,0,10.4,565.3,379.9)" />
<use xlink:href="#f1_2e" transform="matrix(10.4,0,0,10.4,574.2,379.9)" />
<use xlink:href="#f1_2i" transform="matrix(10.4,0,0,10.4,589.1,379.9)" />
<use xlink:href="#f1_24" transform="matrix(10.4,0,0,10.4,600.6,379.9)" />
<use xlink:href="#f1_27" transform="matrix(10.4,0,0,10.4,604.2,379.9)" />
<use xlink:href="#f1_27" transform="matrix(10.4,0,0,10.4,607.7,379.9)" />
<use xlink:href="#f1_2i" transform="matrix(10.4,0,0,10.4,84.3,400)" />
<use xlink:href="#f1_24" transform="matrix(10.4,0,0,10.4,96.1,400)" />
<use xlink:href="#f1_29" transform="matrix(10.4,0,0,10.4,99.6,400)" />
<use xlink:href="#f1_1w" transform="matrix(10.4,0,0,10.4,117.3,400)" />
<use xlink:href="#f1_2d" transform="matrix(10.4,0,0,10.4,126.1,400)" />
<use xlink:href="#f1_20" transform="matrix(10.4,0,0,10.4,131.6,400)" />
<use xlink:href="#f1_j" transform="matrix(10.4,0,0,10.4,149.5,400)" />
<use xlink:href="#f1_h" transform="matrix(10.4,0,0,10.4,158.4,400)" />
<use xlink:href="#f1_p" transform="matrix(10.4,0,0,10.4,162.8,400)" />
<use xlink:href="#f1_1w" transform="matrix(10.4,0,0,10.4,180.5,400)" />
<use xlink:href="#f1_29" transform="matrix(10.4,0,0,10.4,189.3,400)" />
<use xlink:href="#f1_1z" transform="matrix(10.4,0,0,10.4,198.2,400)" />
<use xlink:href="#f1_j" transform="matrix(10.4,0,0,10.4,216,400)" />
<use xlink:href="#f1_h" transform="matrix(10.4,0,0,10.4,224.9,400)" />
<use xlink:href="#f1_n" transform="matrix(10.4,0,0,10.4,229.4,400)" />
<use xlink:href="#f1_2d" transform="matrix(10.4,0,0,10.4,247,400)" />
<use xlink:href="#f1_20" transform="matrix(10.4,0,0,10.4,252.5,400)" />
<use xlink:href="#f1_2e" transform="matrix(10.4,0,0,10.4,261.4,400)" />
<use xlink:href="#f1_2b" transform="matrix(10.4,0,0,10.4,269.6,400)" />
<use xlink:href="#f1_20" transform="matrix(10.4,0,0,10.4,278.5,400)" />
<use xlink:href="#f1_1y" transform="matrix(10.4,0,0,10.4,287.4,400)" />
<use xlink:href="#f1_2f" transform="matrix(10.4,0,0,10.4,295.6,400)" />
<use xlink:href="#f1_24" transform="matrix(10.4,0,0,10.4,300.1,400)" />
<use xlink:href="#f1_2h" transform="matrix(10.4,0,0,10.4,303.6,400)" />
<use xlink:href="#f1_20" transform="matrix(10.4,0,0,10.4,311.8,400)" />
<use xlink:href="#f1_27" transform="matrix(10.4,0,0,10.4,320.7,400)" />
<use xlink:href="#f1_2k" transform="matrix(10.4,0,0,10.4,324.3,400)" />
<use xlink:href="#f1_h" transform="matrix(10.4,0,0,10.4,332.2,400)" />
<use xlink:href="#f1_15" transform="matrix(10.4,0,0,10.4,345.6,400)" />
<use xlink:href="#f1_2g" transform="matrix(10.4,0,0,10.4,355.4,400)" />
<use xlink:href="#f1_2d" transform="matrix(10.4,0,0,10.4,364.3,400)" />
<use xlink:href="#f1_2f" transform="matrix(10.4,0,0,10.4,369.8,400)" />
<use xlink:href="#f1_23" transform="matrix(10.4,0,0,10.4,374.2,400)" />
<use xlink:href="#f1_20" transform="matrix(10.4,0,0,10.4,383.1,400)" />
<use xlink:href="#f1_2d" transform="matrix(10.4,0,0,10.4,391.9,400)" />
<use xlink:href="#f1_24" transform="matrix(10.4,0,0,10.4,406.4,400)" />
<use xlink:href="#f1_21" transform="matrix(10.4,0,0,10.4,410,400)" />
<use xlink:href="#f1_2f" transform="matrix(10.4,0,0,10.4,423.2,400)" />
<use xlink:href="#f1_23" transform="matrix(10.4,0,0,10.4,427.6,400)" />
<use xlink:href="#f1_20" transform="matrix(10.4,0,0,10.4,436.5,400)" />
<use xlink:href="#f1_21" transform="matrix(10.4,0,0,10.4,454.3,400)" />
<use xlink:href="#f1_24" transform="matrix(10.4,0,0,10.4,458.8,400)" />
<use xlink:href="#f1_2d" transform="matrix(10.4,0,0,10.4,462.3,400)" />
<use xlink:href="#f1_2e" transform="matrix(10.4,0,0,10.4,467.8,400)" />
<use xlink:href="#f1_2f" transform="matrix(10.4,0,0,10.4,475.8,400)" />
<use xlink:href="#f1_22" transform="matrix(10.4,0,0,10.4,489,400)" />
<use xlink:href="#f1_2d" transform="matrix(10.4,0,0,10.4,497.9,400)" />
<use xlink:href="#f1_2a" transform="matrix(10.4,0,0,10.4,503.4,400)" />
<use xlink:href="#f1_2g" transform="matrix(10.4,0,0,10.4,512.3,400)" />
<use xlink:href="#f1_2b" transform="matrix(10.4,0,0,10.4,521.1,400)" />
<use xlink:href="#f1_2i" transform="matrix(10.4,0,0,10.4,538.8,400)" />
<use xlink:href="#f1_24" transform="matrix(10.4,0,0,10.4,550.6,400)" />
<use xlink:href="#f1_29" transform="matrix(10.4,0,0,10.4,554.1,400)" />
<use xlink:href="#f1_2e" transform="matrix(10.4,0,0,10.4,563,400)" />
<use xlink:href="#f1_f" transform="matrix(10.4,0,0,10.4,571.2,400)" />
<use xlink:href="#f1_2f" transform="matrix(10.4,0,0,10.4,584.6,400)" />
<use xlink:href="#f1_23" transform="matrix(10.4,0,0,10.4,589.1,400)" />
<use xlink:href="#f1_20" transform="matrix(10.4,0,0,10.4,597.9,400)" />
<use xlink:href="#f1_2b" transform="matrix(10.4,0,0,10.4,84.3,420.2)" />
<use xlink:href="#f1_2d" transform="matrix(10.4,0,0,10.4,93.2,420.2)" />
<use xlink:href="#f1_2a" transform="matrix(10.4,0,0,10.4,98.5,420.2)" />
<use xlink:href="#f1_1x" transform="matrix(10.4,0,0,10.4,107.4,420.2)" />
<use xlink:href="#f1_1w" transform="matrix(10.4,0,0,10.4,116.2,420.2)" />
<use xlink:href="#f1_1x" transform="matrix(10.4,0,0,10.4,125.1,420.2)" />
<use xlink:href="#f1_24" transform="matrix(10.4,0,0,10.4,134,420.2)" />
<use xlink:href="#f1_27" transform="matrix(10.4,0,0,10.4,137.5,420.2)" />
<use xlink:href="#f1_24" transform="matrix(10.4,0,0,10.4,141.1,420.2)" />
<use xlink:href="#f1_2f" transform="matrix(10.4,0,0,10.4,144.6,420.2)" />
<use xlink:href="#f1_2k" transform="matrix(10.4,0,0,10.4,149,420.2)" />
<use xlink:href="#f1_2a" transform="matrix(10.4,0,0,10.4,165.8,420.2)" />
<use xlink:href="#f1_21" transform="matrix(10.4,0,0,10.4,174.7,420.2)" />
<use xlink:href="#f1_24" transform="matrix(10.4,0,0,10.4,187.9,420.2)" />
<use xlink:href="#f1_29" transform="matrix(10.4,0,0,10.4,191.5,420.2)" />
<use xlink:href="#f1_2f" transform="matrix(10.4,0,0,10.4,200.3,420.2)" />
<use xlink:href="#f1_2d" transform="matrix(10.4,0,0,10.4,204.8,420.2)" />
<use xlink:href="#f1_2a" transform="matrix(10.4,0,0,10.4,210.1,420.2)" />
<use xlink:href="#f1_1z" transform="matrix(10.4,0,0,10.4,218.9,420.2)" />
<use xlink:href="#f1_2g" transform="matrix(10.4,0,0,10.4,227.8,420.2)" />
<use xlink:href="#f1_1y" transform="matrix(10.4,0,0,10.4,236.7,420.2)" />
<use xlink:href="#f1_24" transform="matrix(10.4,0,0,10.4,244.6,420.2)" />
<use xlink:href="#f1_29" transform="matrix(10.4,0,0,10.4,248.2,420.2)" />
<use xlink:href="#f1_22" transform="matrix(10.4,0,0,10.4,257.1,420.2)" />
<use xlink:href="#f1_1w" transform="matrix(10.4,0,0,10.4,274.7,420.2)" />
<use xlink:href="#f1_29" transform="matrix(10.4,0,0,10.4,292.4,420.2)" />
<use xlink:href="#f1_20" transform="matrix(10.4,0,0,10.4,301.3,420.2)" />
<use xlink:href="#f1_2i" transform="matrix(10.4,0,0,10.4,310.1,420.2)" />
<use xlink:href="#f1_2b" transform="matrix(10.4,0,0,10.4,330.5,420.2)" />
<use xlink:href="#f1_2d" transform="matrix(10.4,0,0,10.4,339.3,420.2)" />
<use xlink:href="#f1_2a" transform="matrix(10.4,0,0,10.4,344.6,420.2)" />
<use xlink:href="#f1_1z" transform="matrix(10.4,0,0,10.4,353.5,420.2)" />
<use xlink:href="#f1_2g" transform="matrix(10.4,0,0,10.4,362.4,420.2)" />
<use xlink:href="#f1_1y" transform="matrix(10.4,0,0,10.4,371.2,420.2)" />
<use xlink:href="#f1_2f" transform="matrix(10.4,0,0,10.4,379.2,420.2)" />
<use xlink:href="#f1_24" transform="matrix(10.4,0,0,10.4,392.5,420.2)" />
<use xlink:href="#f1_2e" transform="matrix(10.4,0,0,10.4,396,420.2)" />
<use xlink:href="#f1_j" transform="matrix(10.4,0,0,10.4,412.8,420.2)" />
<use xlink:href="#f1_h" transform="matrix(10.4,0,0,10.4,421.6,420.2)" />
<use xlink:href="#f1_q" transform="matrix(10.4,0,0,10.4,426.1,420.2)" />
<use xlink:href="#f1_1w" transform="matrix(10.4,0,0,10.4,443.8,420.2)" />
<use xlink:href="#f1_29" transform="matrix(10.4,0,0,10.4,452.6,420.2)" />
<use xlink:href="#f1_1z" transform="matrix(10.4,0,0,10.4,461.5,420.2)" />
<use xlink:href="#f1_2f" transform="matrix(10.4,0,0,10.4,479.2,420.2)" />
<use xlink:href="#f1_23" transform="matrix(10.4,0,0,10.4,483.6,420.2)" />
<use xlink:href="#f1_20" transform="matrix(10.4,0,0,10.4,492.5,420.2)" />
<use xlink:href="#f1_1y" transform="matrix(10.4,0,0,10.4,510.1,420.2)" />
<use xlink:href="#f1_2a" transform="matrix(10.4,0,0,10.4,518.1,420.2)" />
<use xlink:href="#f1_2d" transform="matrix(10.4,0,0,10.4,527,420.2)" />
<use xlink:href="#f1_2d" transform="matrix(10.4,0,0,10.4,532.3,420.2)" />
<use xlink:href="#f1_20" transform="matrix(10.4,0,0,10.4,537.6,420.2)" />
<use xlink:href="#f1_2e" transform="matrix(10.4,0,0,10.4,546.5,420.2)" />
<use xlink:href="#f1_2b" transform="matrix(10.4,0,0,10.4,554.4,420.2)" />
<use xlink:href="#f1_2a" transform="matrix(10.4,0,0,10.4,563.3,420.2)" />
<use xlink:href="#f1_29" transform="matrix(10.4,0,0,10.4,572.2,420.2)" />
<use xlink:href="#f1_1z" transform="matrix(10.4,0,0,10.4,581,420.2)" />
<use xlink:href="#f1_24" transform="matrix(10.4,0,0,10.4,589.9,420.2)" />
<use xlink:href="#f1_29" transform="matrix(10.4,0,0,10.4,593.5,420.2)" />
<use xlink:href="#f1_22" transform="matrix(10.4,0,0,10.4,602.3,420.2)" />
<use xlink:href="#f1_2b" transform="matrix(10.4,0,0,10.4,84.3,440.4)" />
<use xlink:href="#f1_2d" transform="matrix(10.4,0,0,10.4,93.2,440.4)" />
<use xlink:href="#f1_2a" transform="matrix(10.4,0,0,10.4,98.5,440.4)" />
<use xlink:href="#f1_1x" transform="matrix(10.4,0,0,10.4,107.4,440.4)" />
<use xlink:href="#f1_1w" transform="matrix(10.4,0,0,10.4,116.2,440.4)" />
<use xlink:href="#f1_1x" transform="matrix(10.4,0,0,10.4,125.1,440.4)" />
<use xlink:href="#f1_24" transform="matrix(10.4,0,0,10.4,134,440.4)" />
<use xlink:href="#f1_27" transform="matrix(10.4,0,0,10.4,137.5,440.4)" />
<use xlink:href="#f1_24" transform="matrix(10.4,0,0,10.4,141.1,440.4)" />
<use xlink:href="#f1_2f" transform="matrix(10.4,0,0,10.4,144.6,440.4)" />
<use xlink:href="#f1_2k" transform="matrix(10.4,0,0,10.4,149,440.4)" />
<use xlink:href="#f1_24" transform="matrix(10.4,0,0,10.4,164.3,440.4)" />
<use xlink:href="#f1_2e" transform="matrix(10.4,0,0,10.4,167.9,440.4)" />
<use xlink:href="#f1_j" transform="matrix(10.4,0,0,10.4,183,440.4)" />
<use xlink:href="#f1_h" transform="matrix(10.4,0,0,10.4,191.9,440.4)" />
<use xlink:href="#f1_m" transform="matrix(10.4,0,0,10.4,196.3,440.4)" />
<use xlink:href="#f1_24" transform="matrix(10.4,0,0,10.4,212.5,440.4)" />
<use xlink:href="#f1_21" transform="matrix(10.4,0,0,10.4,216,440.4)" />
<use xlink:href="#f1_2f" transform="matrix(10.4,0,0,10.4,227.8,440.4)" />
<use xlink:href="#f1_23" transform="matrix(10.4,0,0,10.4,232.3,440.4)" />
<use xlink:href="#f1_20" transform="matrix(10.4,0,0,10.4,241.1,440.4)" />
<use xlink:href="#f1_2e" transform="matrix(10.4,0,0,10.4,257.1,440.4)" />
<use xlink:href="#f1_20" transform="matrix(10.4,0,0,10.4,265.1,440.4)" />
<use xlink:href="#f1_1y" transform="matrix(10.4,0,0,10.4,274,440.4)" />
<use xlink:href="#f1_2a" transform="matrix(10.4,0,0,10.4,282,440.4)" />
<use xlink:href="#f1_29" transform="matrix(10.4,0,0,10.4,290.8,440.4)" />
<use xlink:href="#f1_1z" transform="matrix(10.4,0,0,10.4,299.7,440.4)" />
<use xlink:href="#f1_22" transform="matrix(10.4,0,0,10.4,315.9,440.4)" />
<use xlink:href="#f1_2d" transform="matrix(10.4,0,0,10.4,324.8,440.4)" />
<use xlink:href="#f1_2a" transform="matrix(10.4,0,0,10.4,330.1,440.4)" />
<use xlink:href="#f1_2g" transform="matrix(10.4,0,0,10.4,338.9,440.4)" />
<use xlink:href="#f1_2b" transform="matrix(10.4,0,0,10.4,347.8,440.4)" />
<use xlink:href="#f1_2i" transform="matrix(10.4,0,0,10.4,364,440.4)" />
<use xlink:href="#f1_24" transform="matrix(10.4,0,0,10.4,375.5,440.4)" />
<use xlink:href="#f1_29" transform="matrix(10.4,0,0,10.4,379.1,440.4)" />
<use xlink:href="#f1_2e" transform="matrix(10.4,0,0,10.4,387.9,440.4)" />
<use xlink:href="#f1_h" transform="matrix(10.4,0,0,10.4,395.9,440.4)" />
<use xlink:href="#f1_15" transform="matrix(10.4,0,0,10.4,407.5,440.4)" />
<use xlink:href="#f1_24" transform="matrix(10.4,0,0,10.4,417.2,440.4)" />
<use xlink:href="#f1_29" transform="matrix(10.4,0,0,10.4,420.8,440.4)" />
<use xlink:href="#f1_1z" transform="matrix(10.4,0,0,10.4,429.7,440.4)" />
<use xlink:href="#f1_2f" transform="matrix(10.4,0,0,10.4,445.9,440.4)" />
<use xlink:href="#f1_23" transform="matrix(10.4,0,0,10.4,450.3,440.4)" />
<use xlink:href="#f1_20" transform="matrix(10.4,0,0,10.4,459.2,440.4)" />
<use xlink:href="#f1_2b" transform="matrix(10.4,0,0,10.4,475.4,440.4)" />
<use xlink:href="#f1_2d" transform="matrix(10.4,0,0,10.4,484.2,440.4)" />
<use xlink:href="#f1_2a" transform="matrix(10.4,0,0,10.4,489.5,440.4)" />
<use xlink:href="#f1_1x" transform="matrix(10.4,0,0,10.4,498.4,440.4)" />
<use xlink:href="#f1_1w" transform="matrix(10.4,0,0,10.4,507.3,440.4)" />
<use xlink:href="#f1_1x" transform="matrix(10.4,0,0,10.4,516.1,440.4)" />
<use xlink:href="#f1_24" transform="matrix(10.4,0,0,10.4,525,440.4)" />
<use xlink:href="#f1_27" transform="matrix(10.4,0,0,10.4,528.6,440.4)" />
<use xlink:href="#f1_24" transform="matrix(10.4,0,0,10.4,532.1,440.4)" />
<use xlink:href="#f1_2f" transform="matrix(10.4,0,0,10.4,535.6,440.4)" />
<use xlink:href="#f1_2k" transform="matrix(10.4,0,0,10.4,540.1,440.4)" />
<use xlink:href="#f1_2f" transform="matrix(10.4,0,0,10.4,555.2,440.4)" />
<use xlink:href="#f1_23" transform="matrix(10.4,0,0,10.4,559.6,440.4)" />
<use xlink:href="#f1_1w" transform="matrix(10.4,0,0,10.4,568.5,440.4)" />
<use xlink:href="#f1_2f" transform="matrix(10.4,0,0,10.4,577.4,440.4)" />
<use xlink:href="#f1_2f" transform="matrix(10.4,0,0,10.4,589.1,440.4)" />
<use xlink:href="#f1_23" transform="matrix(10.4,0,0,10.4,593.6,440.4)" />
<use xlink:href="#f1_20" transform="matrix(10.4,0,0,10.4,602.4,440.4)" />
<use xlink:href="#f1_29" transform="matrix(10.4,0,0,10.4,84.3,460.5)" />
<use xlink:href="#f1_20" transform="matrix(10.4,0,0,10.4,93.2,460.5)" />
<use xlink:href="#f1_2i" transform="matrix(10.4,0,0,10.4,102.1,460.5)" />
<use xlink:href="#f1_2b" transform="matrix(10.4,0,0,10.4,121.1,460.5)" />
<use xlink:href="#f1_2d" transform="matrix(10.4,0,0,10.4,130,460.5)" />
<use xlink:href="#f1_2a" transform="matrix(10.4,0,0,10.4,135.3,460.5)" />
<use xlink:href="#f1_1z" transform="matrix(10.4,0,0,10.4,144.1,460.5)" />
<use xlink:href="#f1_2g" transform="matrix(10.4,0,0,10.4,153,460.5)" />
<use xlink:href="#f1_1y" transform="matrix(10.4,0,0,10.4,161.9,460.5)" />
<use xlink:href="#f1_2f" transform="matrix(10.4,0,0,10.4,169.8,460.5)" />
<use xlink:href="#f1_24" transform="matrix(10.4,0,0,10.4,181.6,460.5)" />
<use xlink:href="#f1_29" transform="matrix(10.4,0,0,10.4,185.2,460.5)" />
<use xlink:href="#f1_2f" transform="matrix(10.4,0,0,10.4,194,460.5)" />
<use xlink:href="#f1_2d" transform="matrix(10.4,0,0,10.4,198.5,460.5)" />
<use xlink:href="#f1_2a" transform="matrix(10.4,0,0,10.4,203.8,460.5)" />
<use xlink:href="#f1_1z" transform="matrix(10.4,0,0,10.4,212.6,460.5)" />
<use xlink:href="#f1_2g" transform="matrix(10.4,0,0,10.4,221.5,460.5)" />
<use xlink:href="#f1_1y" transform="matrix(10.4,0,0,10.4,230.4,460.5)" />
<use xlink:href="#f1_20" transform="matrix(10.4,0,0,10.4,238.3,460.5)" />
<use xlink:href="#f1_1z" transform="matrix(10.4,0,0,10.4,247.2,460.5)" />
<use xlink:href="#f1_2i" transform="matrix(10.4,0,0,10.4,263.6,460.5)" />
<use xlink:href="#f1_1w" transform="matrix(10.4,0,0,10.4,275.1,460.5)" />
<use xlink:href="#f1_2e" transform="matrix(10.4,0,0,10.4,284,460.5)" />
<use xlink:href="#f1_1x" transform="matrix(10.4,0,0,10.4,299.3,460.5)" />
<use xlink:href="#f1_2k" transform="matrix(10.4,0,0,10.4,308.2,460.5)" />
<use xlink:href="#f1_2f" transform="matrix(10.4,0,0,10.4,323.6,460.5)" />
<use xlink:href="#f1_23" transform="matrix(10.4,0,0,10.4,328.1,460.5)" />
<use xlink:href="#f1_20" transform="matrix(10.4,0,0,10.4,337,460.5)" />
<use xlink:href="#f1_2e" transform="matrix(10.4,0,0,10.4,353.2,460.5)" />
<use xlink:href="#f1_20" transform="matrix(10.4,0,0,10.4,361.1,460.5)" />
<use xlink:href="#f1_1y" transform="matrix(10.4,0,0,10.4,370,460.5)" />
<use xlink:href="#f1_2a" transform="matrix(10.4,0,0,10.4,378,460.5)" />
<use xlink:href="#f1_29" transform="matrix(10.4,0,0,10.4,386.8,460.5)" />
<use xlink:href="#f1_1z" transform="matrix(10.4,0,0,10.4,395.7,460.5)" />
<use xlink:href="#f1_22" transform="matrix(10.4,0,0,10.4,412.1,460.5)" />
<use xlink:href="#f1_2d" transform="matrix(10.4,0,0,10.4,421,460.5)" />
<use xlink:href="#f1_2a" transform="matrix(10.4,0,0,10.4,426.3,460.5)" />
<use xlink:href="#f1_2g" transform="matrix(10.4,0,0,10.4,435.1,460.5)" />
<use xlink:href="#f1_2b" transform="matrix(10.4,0,0,10.4,444,460.5)" />
<use xlink:href="#f1_h" transform="matrix(10.4,0,0,10.4,452.9,460.5)" />
<use xlink:href="#f3_10" transform="matrix(14,0,0,14,265.6,512.6)" />
<use xlink:href="#f3_1d" transform="matrix(14,0,0,14,282.2,512.6)" />
<use xlink:href="#f3_1i" transform="matrix(14,0,0,14,300.4,512.6)" />
<use xlink:href="#f3_1m" transform="matrix(14,0,0,14,311.9,512.6)" />
<use xlink:href="#f3_14" transform="matrix(14,0,0,14,332.9,512.6)" />
<use xlink:href="#f3_1h" transform="matrix(14,0,0,14,345.9,512.6)" />
<use xlink:href="#f3_1i" transform="matrix(14,0,0,14,360.9,512.6)" />
<use xlink:href="#f1_k" transform="matrix(10.4,0,0,10.4,52.6,566.7)" />
<use xlink:href="#f1_h" transform="matrix(10.4,0,0,10.4,61.5,566.7)" />
<use xlink:href="#f1_j" transform="matrix(10.4,0,0,10.4,84.3,566.7)" />
<use xlink:href="#f1_h" transform="matrix(10.4,0,0,10.4,93.2,566.7)" />
<use xlink:href="#f1_m" transform="matrix(10.4,0,0,10.4,98,566.7)" />
<use xlink:href="#f1_l" transform="matrix(10.4,0,0,10.4,419.3,566.7)" />
<use xlink:href="#f1_h" transform="matrix(10.4,0,0,10.4,428.1,566.7)" />
</g>
<path d="M454,560.9h17.7" class="g0_112" />
<g fill="#000000" >
<use xlink:href="#f1_m" transform="matrix(10.5,0,0,10.5,458.5,554.7)" />
<use xlink:href="#f1_k" transform="matrix(10.5,0,0,10.5,453.5,575.9)" />
<use xlink:href="#f1_j" transform="matrix(10.5,0,0,10.5,462.4,575.9)" />
<use xlink:href="#f1_m" transform="matrix(10.4,0,0,10.4,52.6,614)" />
<use xlink:href="#f1_h" transform="matrix(10.4,0,0,10.4,61.5,614)" />
<use xlink:href="#f1_b" transform="matrix(10.4,0,0,10.4,84.3,614)" />
<use xlink:href="#f1_j" transform="matrix(10.4,0,0,10.4,89.6,614)" />
<use xlink:href="#f1_h" transform="matrix(10.4,0,0,10.4,98.5,614)" />
<use xlink:href="#f1_m" transform="matrix(10.4,0,0,10.4,110.1,614)" />
<use xlink:href="#f1_c" transform="matrix(10.4,0,0,10.4,118.9,614)" />
<use xlink:href="#f1_m" transform="matrix(7.4,0,0,7.4,124.1,608.7)" />
<use xlink:href="#f1_n" transform="matrix(10.4,0,0,10.4,419.3,614)" />
<use xlink:href="#f1_h" transform="matrix(10.4,0,0,10.4,428.1,614)" />
</g>
<path d="M454.1,608.2h10.5" class="g1_112" />
<g fill="#000000" >
<use xlink:href="#f1_l" transform="matrix(10.5,0,0,10.5,455,602)" />
<use xlink:href="#f1_q" transform="matrix(10.5,0,0,10.5,454.9,623.2)" />
<use xlink:href="#f1_o" transform="matrix(10.4,0,0,10.4,52.6,661.3)" />
<use xlink:href="#f1_h" transform="matrix(10.4,0,0,10.4,61.5,661.3)" />
</g>
<path d="M87.5,655.5H98" class="g1_112" />
<g fill="#000000" >
<use xlink:href="#f1_k" transform="matrix(10.5,0,0,10.5,88.9,649.3)" />
<use xlink:href="#f1_n" transform="matrix(10.5,0,0,10.5,88.2,670.5)" />
<use xlink:href="#f1_p" transform="matrix(10.4,0,0,10.4,419.3,661.3)" />
<use xlink:href="#f1_h" transform="matrix(10.4,0,0,10.4,428.1,661.3)" />
</g>
<path d="M454.1,655.5h10.5" class="g1_112" />
<g fill="#000000" >
<use xlink:href="#f1_q" transform="matrix(10.5,0,0,10.5,454.9,649.3)" />
<use xlink:href="#f1_r" transform="matrix(10.5,0,0,10.5,454.9,670.5)" />
<use xlink:href="#f1_q" transform="matrix(10.4,0,0,10.4,52.6,712.2)" />
<use xlink:href="#f1_h" transform="matrix(10.4,0,0,10.4,61.5,712.2)" />
</g>
<path d="M96.6,708.5h10.3" class="g2_112" />
<g fill="#000000" >
<use xlink:href="#f1_n" transform="matrix(7.8,0,0,7.8,119.7,693.6)" />
<use xlink:href="#f1_n" transform="matrix(10.4,0,0,10.4,97.3,702.4)" />
<use xlink:href="#f1_o" transform="matrix(10.4,0,0,10.4,97.3,723.4)" />
<use xlink:href="#f4_4o" transform="matrix(10.5,0,0,10.4,86.8,703.5)" />
<use xlink:href="#f4_54" transform="matrix(10.5,0,0,10.4,108.6,703.5)" />
<use xlink:href="#f4_4q" transform="matrix(10.5,0,0,10.4,86.8,720)" />
<use xlink:href="#f4_56" transform="matrix(10.5,0,0,10.4,108.6,720)" />
<use xlink:href="#f1_r" transform="matrix(10.4,0,0,10.4,419.3,712.2)" />
<use xlink:href="#f1_h" transform="matrix(10.4,0,0,10.4,428.1,712.2)" />
</g>
<path d="M454.1,706.5h19.6" class="g3_112" />
<g fill="#000000" >
<use xlink:href="#f1_k" transform="matrix(10.5,0,0,10.5,454.2,700.3)" />
<use xlink:href="#f1_p" transform="matrix(10.5,0,0,10.5,463.4,700.3)" />
<use xlink:href="#f1_l" transform="matrix(10.5,0,0,10.5,454.9,721.5)" />
<use xlink:href="#f1_o" transform="matrix(10.5,0,0,10.5,464,721.5)" />
<use xlink:href="#f1_s" transform="matrix(10.4,0,0,10.4,52.6,761.4)" />
<use xlink:href="#f1_h" transform="matrix(10.4,0,0,10.4,61.5,761.4)" />
</g>
<path d="M122.4,758.5h10.2" class="g4_112" />
<g fill="#000000" >
<use xlink:href="#f1_k" transform="matrix(10.6,0,0,10.5,123.7,752.4)" />
<use xlink:href="#f1_o" transform="matrix(10.6,0,0,10.5,123.1,773.6)" />
<use xlink:href="#f2_26" transform="matrix(10.6,0,0,10.5,86.3,762.8)" />
<use xlink:href="#f4_x" transform="matrix(10.5,0,0,10.5,104.6,762.8)" />
<use xlink:href="#f1_k" transform="matrix(10.4,0,0,10.4,410.3,761.4)" />
<use xlink:href="#f1_j" transform="matrix(10.4,0,0,10.4,419.2,761.4)" />
<use xlink:href="#f1_h" transform="matrix(10.4,0,0,10.4,428.3,761.4)" />
</g>
<path d="M489.1,758.5h10.1" class="g4_112" />
<g fill="#000000" >
<use xlink:href="#f1_k" transform="matrix(10.6,0,0,10.5,490.2,752.4)" />
<use xlink:href="#f1_p" transform="matrix(10.6,0,0,10.5,489.6,773.6)" />
<use xlink:href="#f2_26" transform="matrix(10.6,0,0,10.5,452.8,762.8)" />
<use xlink:href="#f4_x" transform="matrix(10.5,0,0,10.5,471.2,762.8)" />
<use xlink:href="#f1_k" transform="matrix(10.4,0,0,10.4,43.6,814.9)" />
<use xlink:href="#f1_k" transform="matrix(10.4,0,0,10.4,52.5,814.9)" />
<use xlink:href="#f1_h" transform="matrix(10.4,0,0,10.4,61.7,814.9)" />
</g>
<path d="M87.5,809.1H98" class="g1_112" />
<g fill="#000000" >
<use xlink:href="#f1_m" transform="matrix(10.5,0,0,10.5,88.2,803)" />
<use xlink:href="#f1_n" transform="matrix(10.5,0,0,10.5,88.2,824.2)" />
<use xlink:href="#f1_k" transform="matrix(10.4,0,0,10.4,410.3,814.9)" />
<use xlink:href="#f1_l" transform="matrix(10.4,0,0,10.4,419.2,814.9)" />
<use xlink:href="#f1_h" transform="matrix(10.4,0,0,10.4,428.3,814.9)" />
</g>
<path d="M454.1,809.1h10.5" class="g1_112" />
<g fill="#000000" >
<use xlink:href="#f1_k" transform="matrix(10.5,0,0,10.5,455.5,803)" />
<use xlink:href="#f1_m" transform="matrix(10.5,0,0,10.5,454.9,824.2)" />
<use xlink:href="#f1_k" transform="matrix(10.4,0,0,10.4,43.6,868.4)" />
<use xlink:href="#f1_m" transform="matrix(10.4,0,0,10.4,52.5,868.4)" />
<use xlink:href="#f1_h" transform="matrix(10.4,0,0,10.4,61.7,868.4)" />
</g>
<path d="M87.5,862.7H98" class="g1_112" />
<g fill="#000000" >
<use xlink:href="#f1_m" transform="matrix(10.5,0,0,10.5,88.2,856.5)" />
<use xlink:href="#f1_r" transform="matrix(10.5,0,0,10.5,88.2,877.7)" />
<use xlink:href="#f1_k" transform="matrix(10.4,0,0,10.4,410.3,868.4)" />
<use xlink:href="#f1_n" transform="matrix(10.4,0,0,10.4,419.2,868.4)" />
<use xlink:href="#f1_h" transform="matrix(10.4,0,0,10.4,428.3,868.4)" />
</g>
<path d="M454.1,862.7h19.6" class="g3_112" />
<g fill="#000000" >
<use xlink:href="#f1_r" transform="matrix(10.5,0,0,10.5,459.5,856.5)" />
<use xlink:href="#f1_l" transform="matrix(10.5,0,0,10.5,454.9,877.7)" />
<use xlink:href="#f1_o" transform="matrix(10.5,0,0,10.5,464,877.7)" />
<use xlink:href="#f5_p" transform="matrix(12,0,0,12,653.6,1020.6)" />
</g>
<g fill="#0080FF" fill-opacity="0.5" >
<use xlink:href="#f0_1c" transform="matrix(36.8,0,0,36.8,176.3,1052.4)" />
<use xlink:href="#f0_21" transform="matrix(36.8,0,0,36.8,207.5,1052.4)" />
<use xlink:href="#f0_1x" transform="matrix(36.8,0,0,36.8,238.8,1052.4)" />
<use xlink:href="#f0_2e" transform="matrix(36.8,0,0,36.8,270,1052.4)" />
<use xlink:href="#f0_2a" transform="matrix(36.8,0,0,36.8,288.7,1052.4)" />
<use xlink:href="#f0_17" transform="matrix(36.8,0,0,36.8,319.9,1052.4)" />
<use xlink:href="#f0_2h" transform="matrix(36.8,0,0,36.8,363.6,1052.4)" />
<use xlink:href="#f0_25" transform="matrix(36.8,0,0,36.8,394.8,1052.4)" />
<use xlink:href="#f0_20" transform="matrix(36.8,0,0,36.8,407.3,1052.4)" />
<use xlink:href="#f0_21" transform="matrix(36.8,0,0,36.8,438.5,1052.4)" />
<use xlink:href="#f0_i" transform="matrix(36.8,0,0,36.8,469.7,1052.4)" />
<use xlink:href="#f0_25" transform="matrix(36.8,0,0,36.8,485.4,1052.4)" />
<use xlink:href="#f0_2a" transform="matrix(36.8,0,0,36.8,497.8,1052.4)" />
</g>
<defs>
<path d="M593,101c0,0,182,0,279,112c0,0,98,113,98,318c0,0,0,196,-98,308c0,0,-98,112,-277,112c0,0,-181,0,-279,-110c0,0,-99,-111,-99,-310c0,0,0,-198,100,-314c0,0,99,-116,276,-116Zm0,-115c0,0,-162,0,-279,65c0,0,-118,66,-180,190c0,0,-62,124,-62,290c0,0,0,252,138,394c0,0,138,142,385,142c0,0,160,0,278,-64c0,0,118,-64,180,-185c0,0,62,-122,62,-287c0,0,0,-165,-63,-289c0,0,-63,-124,-181,-190c0,0,-118,-66,-278,-66Z" 
id="f0_1f"
transform="scale(0.001,-0.001)" />

<path d="M106,0V635c0,0,0,141,-5,173H228c0,0,1,-4,2,-21c0,0,1,-16,2,-37c0,0,1,-22,2,-81h2c0,0,47,84,108,119c0,0,60,34,151,34c0,0,132,0,194,-66c0,0,61,-66,61,-218V0H615V512c0,0,0,80,-15,124c0,0,-16,44,-50,63c0,0,-35,20,-101,20c0,0,-97,0,-153,-67c0,0,-56,-66,-56,-184V0Z" 
id="f0_2a"
transform="scale(0.001,-0.001)" />

<path d="M103,0V1107H237V0Z" 
id="f0_28"
transform="scale(0.001,-0.001)" />

<path d="M102,0V808H236V0Zm0,979v128H236V979Z" 
id="f0_25"
transform="scale(0.001,-0.001)" />

<path d="M643,478c0,0,-11,128,-65,187c0,0,-54,59,-154,59c0,0,-98,0,-155,-66c0,0,-57,-65,-62,-180ZM431,-14c0,0,-179,0,-272,106c0,0,-94,107,-94,317c0,0,0,200,94,307c0,0,93,106,267,106c0,0,356,0,356,-429V375H206c0,0,0,-138,57,-213c0,0,58,-75,168,-75c0,0,87,0,140,35c0,0,53,35,71,88L760,177c0,0,-72,-191,-329,-191Z" 
id="f0_21"
transform="scale(0.001,-0.001)" />

<path d="M17,0L304,415L31,808H179L380,493L580,808H730L457,417L747,0H598L380,331L162,0Z" 
id="f0_2k"
transform="scale(0.001,-0.001)" />

<path d="M339,87c0,0,74,0,132,34c0,0,57,33,90,91c0,0,34,59,34,121v66L448,396c0,0,-95,-2,-144,-19c0,0,-49,-18,-75,-55c0,0,-26,-38,-26,-98c0,0,0,-65,35,-101c0,0,36,-36,101,-36ZM309,-14c0,0,-122,0,-183,64c0,0,-61,64,-61,176c0,0,0,125,82,192c0,0,83,67,266,72l182,3v44c0,0,0,98,-42,141c0,0,-42,43,-132,43c0,0,-90,0,-131,-31c0,0,-41,-31,-49,-98L101,604c0,0,34,218,323,218c0,0,153,0,229,-70c0,0,77,-69,77,-202V202c0,0,0,-59,16,-90c0,0,16,-30,60,-30c0,0,19,0,44,5V4C850,4,799,-7,746,-7c0,0,-75,0,-109,38c0,0,-33,40,-38,124h-4C595,155,543,62,475,24c0,0,-68,-38,-166,-38Z" 
id="f0_1x"
transform="scale(0.001,-0.001)" />

<path d="M106,0V635c0,0,0,141,-5,173H228c0,0,1,-4,2,-21c0,0,1,-16,2,-37c0,0,1,-22,2,-81h2c0,0,44,86,100,120c0,0,56,33,136,33c0,0,92,0,145,-36c0,0,54,-37,75,-117h2c0,0,42,82,101,117c0,0,59,36,143,36c0,0,123,0,178,-66c0,0,56,-67,56,-218V0H1039V512c0,0,0,117,-32,162c0,0,-32,45,-116,45c0,0,-88,0,-136,-66c0,0,-49,-65,-49,-185V0H573V512c0,0,0,117,-32,162c0,0,-32,45,-116,45c0,0,-86,0,-136,-66c0,0,-50,-66,-50,-185V0Z" 
id="f0_29"
transform="scale(0.001,-0.001)" />

<path d="M453,84c0,0,100,0,146,74c0,0,46,73,46,247c0,0,0,169,-46,241c0,0,-45,73,-145,73c0,0,-80,0,-125,-34c0,0,-45,-34,-68,-105c0,0,-24,-71,-24,-186c0,0,0,-159,51,-234c0,0,51,-76,165,-76ZM103,-316V643c0,0,0,124,-5,165H228c0,0,1,-3,3,-22c0,0,1,-18,3,-56c0,0,2,-38,2,-52h3c0,0,36,75,94,110c0,0,59,34,156,34c0,0,149,0,223,-100c0,0,74,-100,74,-314c0,0,0,-422,-297,-422c0,0,-187,0,-251,140h-4c0,0,3,-6,3,-126V-316Z" 
id="f0_2c"
transform="scale(0.001,-0.001)" />

<path d="M420,84c0,0,121,0,173,78c0,0,52,77,52,243c0,0,0,167,-50,243c0,0,-50,76,-167,76c0,0,-118,0,-170,-78c0,0,-53,-77,-53,-241c0,0,0,-160,52,-241c0,0,52,-80,163,-80Zm1,-98c0,0,-176,0,-267,107c0,0,-90,108,-90,312c0,0,0,417,362,417c0,0,185,0,272,-102c0,0,88,-101,88,-315c0,0,0,-212,-94,-316C692,89,599,-14,421,-14Z" 
id="f0_2b"
transform="scale(0.001,-0.001)" />

<path d="M278,-11c0,0,-162,0,-162,182V710H23v98h99l39,181h90V808H400V710H251V200c0,0,0,-58,19,-82c0,0,19,-23,66,-23c0,0,27,0,77,10V6c0,0,-66,-17,-135,-17Z" 
id="f0_2g"
transform="scale(0.001,-0.001)" />

<path d="M292,-9c0,0,-88,0,-124,38c0,0,-36,39,-36,134V689H22V799H132v224H266V799H392V689H266V163c0,0,0,-27,21,-43c0,0,21,-15,57,-15h48V1C392,1,324,-9,292,-9Z" 
id="f1_2f"
transform="scale(0.001,-0.001)" />

<path d="M99,0V1097H233V690l23,30c0,0,87,102,219,102c0,0,132,0,203,-71c0,0,72,-72,72,-204V0H616V514c0,0,0,99,-38,142c0,0,-38,44,-124,44c0,0,-102,0,-162,-73c0,0,-59,-74,-59,-199V0Z" 
id="f1_23"
transform="scale(0.001,-0.001)" />

<path d="M649,461c0,0,-6,111,-55,172c0,0,-55,69,-160,69c0,0,-106,0,-170,-79c0,0,-50,-62,-60,-162ZM425,-20c0,0,-169,0,-266,106c0,0,-97,107,-97,297c0,0,0,201,102,320c0,0,103,119,276,119c0,0,157,0,253,-116c0,0,96,-117,96,-306l-1,-48H204c0,0,8,-119,54,-182c0,0,57,-76,180,-76c0,0,77,0,134,43c0,0,58,43,70,110H775C775,247,746,116,656,47c0,0,-90,-67,-231,-67Z" 
id="f1_20"
transform="scale(0.001,-0.001)" />

<path d="M99,0V799H226V680l28,36c0,0,90,106,215,106c0,0,107,0,171,-63c0,0,28,-28,44,-65l21,28c0,0,87,100,208,100c0,0,125,0,194,-68c0,0,68,-68,68,-194V0H1041V515c0,0,0,91,-37,138c0,0,-38,47,-110,47c0,0,-87,0,-139,-68c0,0,-52,-68,-52,-183V0H569V547c0,0,0,75,-34,114c0,0,-34,39,-99,39c0,0,-89,0,-146,-76c0,0,-57,-76,-57,-196V0Z" 
id="f1_28"
transform="scale(0.001,-0.001)" />

<path d="M118,0V799H246V662c0,0,17,32,36,58c0,0,76,102,187,102c0,0,19,0,38,-6V679l-27,1c0,0,-109,0,-168,-66c0,0,-60,-65,-60,-186V0Z" 
id="f1_2d"
transform="scale(0.001,-0.001)" />

<path d="M393,-20c0,0,-169,0,-252,65c0,0,-83,67,-92,210H178c0,0,10,-85,61,-123c0,0,50,-38,154,-38c0,0,90,0,136,34c0,0,47,35,47,100c0,0,0,42,-31,64c0,0,-30,21,-123,43L283,368c0,0,-112,27,-160,75c0,0,-48,48,-48,135c0,0,0,112,80,178c0,0,81,66,218,66c0,0,140,0,222,-68c0,0,82,-67,88,-187H557c0,0,-6,67,-55,103c0,0,-48,37,-129,37c0,0,-84,0,-127,-29c0,0,-44,-29,-44,-85c0,0,0,-43,31,-65c0,0,30,-21,121,-43L493,452c0,0,117,-28,167,-78c0,0,49,-49,49,-138c0,0,0,-119,-86,-188c0,0,-85,-68,-230,-68Z" 
id="f1_2e"
transform="scale(0.001,-0.001)" />

<path d="M436,95c0,0,105,0,160,79c0,0,54,80,54,232c0,0,0,150,-52,222c0,0,-52,72,-161,72c0,0,-112,0,-163,-81c0,0,-51,-82,-51,-258c0,0,0,-127,55,-197c0,0,55,-69,158,-69ZM89,-315V799H216V685l7,10c0,0,86,127,228,127c0,0,156,0,248,-108c0,0,91,-107,91,-291c0,0,0,-208,-92,-326C698,97,606,-20,442,-20c0,0,-135,0,-215,102l-4,6V-315Z" 
id="f1_2b"
transform="scale(0.001,-0.001)" />

<path d="M394,-20c0,0,-159,0,-253,113c0,0,-95,114,-95,307c0,0,0,193,98,308c0,0,98,114,264,114c0,0,144,0,230,-78c0,0,85,-79,91,-217H600c0,0,-8,86,-59,133c0,0,-52,47,-138,47c0,0,-101,0,-159,-82c0,0,-58,-82,-58,-225c0,0,0,-152,54,-229c0,0,53,-77,159,-77c0,0,79,0,132,50c0,0,52,51,69,143H729C729,287,709,137,623,58c0,0,-86,-78,-229,-78Z" 
id="f1_1y"
transform="scale(0.001,-0.001)" />

<path d="M104,0V799H238V0Zm-2,946v152H239V946Z" 
id="f1_24"
transform="scale(0.001,-0.001)" />

<path d="M310,0L12,799H168L383,145L604,799H752L454,0Z" 
id="f1_2h"
transform="scale(0.001,-0.001)" />

<path d="M103,0V1097H237V0Z" 
id="f1_27"
transform="scale(0.001,-0.001)" />

<path d="M152,-323c-8,0,-38,1,-63,8v125c0,0,30,-11,77,-12c0,0,45,0,76,37c0,0,30,38,69,140l2,12v1L17,799H170L383,139L600,799H747L443,-25c0,0,-70,-184,-125,-241c0,0,-55,-57,-164,-57c0,0,-1,0,-2,0Z" 
id="f1_2k"
transform="scale(0.001,-0.001)" />

<path d="M335,90c0,0,106,0,179,57c0,0,50,41,67,91c0,0,3,10,4,31c0,0,3,21,3,47v87c0,0,-38,-18,-83,-25L381,360c0,0,-97,-13,-142,-45c0,0,-44,-31,-44,-86c0,0,0,-67,36,-103c0,0,37,-36,104,-36ZM309,-20c0,0,-117,0,-186,61c0,0,-68,63,-68,169c0,0,0,108,64,171c0,0,65,64,189,79l183,23c0,0,22,3,42,8c0,0,26,7,40,27c0,0,15,20,15,51v6c0,0,0,64,-49,101c0,0,-48,36,-135,36c0,0,-83,0,-130,-38c0,0,-46,-39,-56,-115H94c0,0,10,131,92,197c0,0,83,66,238,66c0,0,145,0,222,-63c0,0,76,-63,76,-184V137c0,0,0,-21,12,-33c0,0,12,-12,33,-12c0,0,6,0,18,1c0,0,11,2,25,5V1c0,0,-20,-7,-41,-11c0,0,-22,-5,-37,-5c0,0,-76,0,-110,41c0,0,-22,28,-32,79c0,0,-15,-19,-34,-36c0,0,-101,-89,-247,-89Z" 
id="f1_1w"
transform="scale(0.001,-0.001)" />

<path d="M411,93c0,0,98,0,158,73c0,0,60,74,60,195c0,0,0,163,-57,252c0,0,-56,88,-161,88c0,0,-113,0,-165,-72c0,0,-52,-72,-52,-229c0,0,0,-147,56,-227c0,0,56,-80,161,-80ZM404,-20c0,0,-161,0,-255,118c0,0,-95,120,-95,324c0,0,0,179,92,290c0,0,91,110,239,110c0,0,147,0,233,-124l11,-15v414H763V0H638V109L621,84C621,84,538,-20,404,-20Z" 
id="f1_1z"
transform="scale(0.001,-0.001)" />

<path d="M132,0V687H22V799H132V935c0,0,0,88,52,133c0,0,52,45,157,45l59,-3V989l-53,2c0,0,-39,0,-60,-24c0,0,-21,-25,-21,-71V799H400V687H266V0Z" 
id="f1_21"
transform="scale(0.001,-0.001)" />

<path d="M133,0V162H292V0Z" 
id="f1_h"
transform="scale(0.001,-0.001)" />

<path d="M682,450L513,936L337,450ZM22,0L436,1097H605L999,0H839L728,319H290L175,0Z" 
id="f1_10"
transform="scale(0.001,-0.001)" />

<path d="M436,95c0,0,105,0,160,79c0,0,54,80,54,232c0,0,0,150,-52,222c0,0,-52,72,-161,72c0,0,-112,0,-163,-81c0,0,-51,-82,-51,-258c0,0,0,-127,55,-197c0,0,55,-69,158,-69Zm6,-115c0,0,-135,0,-215,102L215,98V0H89V1097H223V695c0,0,87,127,225,127c1,0,2,0,2,0c0,0,157,0,249,-108c0,0,91,-107,91,-291c0,0,0,-208,-92,-326C698,97,606,-20,442,-20Z" 
id="f1_1x"
transform="scale(0.001,-0.001)" />

<path d="M424,94c0,0,107,0,169,83c0,0,63,83,63,223c0,0,0,140,-63,224c0,0,-62,83,-169,83c0,0,-106,0,-168,-83c0,0,-62,-84,-62,-224c0,0,0,-140,62,-223c0,0,62,-83,168,-83Zm0,-114c0,0,-165,0,-268,115C156,95,54,211,54,400c0,0,0,189,102,306c0,0,103,116,268,116c0,0,168,0,270,-116c0,0,102,-117,102,-306c0,0,0,-189,-102,-305C694,95,592,-20,424,-20Z" 
id="f1_2a"
transform="scale(0.001,-0.001)" />

<path d="M103,0V1097H237V465L574,799H745L441,503L765,0H590L342,406L237,303V0Z" 
id="f1_26"
transform="scale(0.001,-0.001)" />

<path d="M375,-20c0,0,-136,0,-203,66c0,0,-68,68,-68,204V799H238V284c0,0,0,-101,38,-146c0,0,39,-44,127,-44c0,0,97,0,153,75c0,0,57,75,57,203V799H747V0H620V122c0,0,-14,-22,-30,-41C590,81,504,-20,375,-20Z" 
id="f1_2g"
transform="scale(0.001,-0.001)" />

<path d="M99,0V799H226V681l30,39c0,0,87,102,219,102c0,0,132,0,203,-71c0,0,72,-72,72,-204V0H616V502c0,0,0,105,-41,151c0,0,-40,47,-132,47c0,0,-97,0,-154,-73c0,0,-56,-74,-56,-199V0Z" 
id="f1_29"
transform="scale(0.001,-0.001)" />

<path d="M312,0L24,1098l80,-1l81,1L380,230c0,0,6,-22,9,-42c0,0,3,-17,3,-26c0,4,1,13,4,28c0,0,4,20,9,40l232,867H804L1035,234c0,0,6,-20,10,-41c0,0,3,-19,3,-29c0,3,1,12,4,28c0,0,3,21,8,42l198,864l80,-1l79,1L1130,0H971L733,849c0,0,-6,21,-11,42c0,0,-4,21,-4,29c0,0,0,-9,-4,-30c0,0,-4,-20,-10,-41L471,0Z" 
id="f1_1m"
transform="scale(0.001,-0.001)" />

<path d="M780,449L714,934L435,449ZM22,0L673,1097H839L998,0H839L797,318H359L178,0Z" 
id="f2_10"
transform="scale(0.001,-0.001)" />

<path d="M344,0V155H494V0Zm9,286c0,0,-3,110,31,187c0,0,33,78,116,152c0,0,59,52,85,97c0,0,25,45,25,98c0,0,0,81,-48,130c0,0,-48,47,-130,47c0,0,-102,0,-152,-55c0,0,-51,-56,-63,-181H86c0,0,8,170,98,262c0,0,91,93,248,93c0,0,143,0,232,-82c0,0,88,-82,88,-214c0,0,0,-77,-38,-145c0,0,-38,-67,-128,-149c0,0,-58,-52,-81,-107c0,0,-23,-55,-21,-133Z" 
id="f1_y"
transform="scale(0.001,-0.001)" />

<path d="M424,-28c0,0,-180,0,-272,86c0,0,-92,87,-100,266H192c0,0,12,-126,66,-180c0,0,55,-54,170,-54c0,0,100,0,163,57c0,0,64,57,64,147c0,0,0,94,-61,149c0,0,-52,48,-135,54c0,0,-38,2,-72,2c0,0,-34,0,-45,-3V613c0,0,17,-3,51,-3c0,0,35,0,68,4c0,0,66,8,106,43c0,0,55,45,55,125c0,0,0,77,-58,125c0,0,-58,48,-148,48c0,0,-96,0,-147,-58c0,0,-51,-59,-56,-175H82c0,0,0,168,89,260c0,0,88,93,250,93c0,0,153,0,247,-77c0,0,94,-76,94,-202c0,0,0,-124,-95,-201c0,0,-18,-15,-39,-27c0,0,39,-17,69,-41c0,0,101,-79,101,-214c0,0,0,-151,-105,-246c0,0,-104,-95,-269,-95Z" 
id="f1_m"
transform="scale(0.001,-0.001)" />

<path d="M212,0c0,0,51,270,162,500c0,0,109,222,281,422H57v131H799V934C799,934,623,726,515,498C515,498,408,269,362,0Z" 
id="f1_q"
transform="scale(0.001,-0.001)" />

<path d="M392,0V966H22v131H911V966H541V0Z" 
id="f1_1j"
transform="scale(0.001,-0.001)" />

<path d="M248,0L21,799H169L322,163L478,799H627L788,158L950,799h133L857,0H713L548,624L392,0Z" 
id="f1_2i"
transform="scale(0.001,-0.001)" />

<path d="M617,129c0,0,118,0,194,71c0,0,75,70,75,182c0,0,1,59,-55,93c0,0,-56,34,-152,34H368L289,129Zm58,503c0,0,120,0,188,59c0,0,68,58,68,163c0,0,0,57,-50,85c0,0,-50,29,-146,29H462L393,632ZM113,0L340,1097H825c0,0,122,0,191,-55c0,0,69,-55,69,-153c0,0,0,-160,-113,-251c0,0,-35,-26,-77,-46c0,0,27,-12,52,-28c0,0,89,-61,89,-166c0,0,0,-171,-127,-285C909,113,782,0,591,0Z" 
id="f2_11"
transform="scale(0.001,-0.001)" />

<path d="M432,92c0,0,96,0,156,66c0,0,61,65,61,169c0,0,0,103,-61,169c0,0,-60,66,-156,66c0,0,-95,0,-156,-66c0,0,-61,-66,-61,-169c0,0,0,-104,61,-169c0,0,61,-66,156,-66ZM425,-28c0,0,-176,0,-271,135c0,0,-95,136,-95,388c0,0,0,278,103,429c0,0,103,151,293,151c0,0,142,0,226,-77c0,0,84,-76,90,-211H638c0,0,-8,80,-56,123c0,0,-47,43,-127,43c0,0,-125,0,-192,-119c0,0,-58,-102,-64,-278c0,0,100,127,255,127c0,0,152,0,245,-98c0,0,93,-98,93,-258c0,0,0,-161,-101,-259c0,0,-101,-96,-266,-96Z" 
id="f1_p"
transform="scale(0.001,-0.001)" />

<path d="M511,373V863L169,383l-7,-10ZM511,0V258H38V383l496,691H646V373H799V258H646V0Z" 
id="f1_n"
transform="scale(0.001,-0.001)" />

<path d="M133,-224v71c0,0,47,8,65,52c0,0,14,33,17,101H133V163H292V27c0,0,0,-114,-36,-172c0,0,-37,-58,-123,-79Z" 
id="f1_f"
transform="scale(0.001,-0.001)" />

<path d="M139,0V1097H287V0Z" 
id="f1_18"
transform="scale(0.001,-0.001)" />

<path d="M424,92c0,0,98,0,161,58c0,0,62,58,62,149c0,0,0,92,-62,151c0,0,-63,58,-161,58c0,0,-98,0,-160,-58c0,0,-63,-59,-63,-151c0,0,0,-91,63,-149c0,0,62,-58,160,-58Zm0,533c0,0,82,0,134,46c0,0,52,45,52,118c0,0,0,72,-52,118c0,0,-52,46,-134,46c0,0,-82,0,-134,-46c0,0,-52,-46,-52,-118c0,0,0,-73,52,-119c0,0,52,-45,134,-45Zm0,-653c0,0,-165,0,-265,90C159,62,59,154,59,305c0,0,0,134,100,216c0,0,35,28,78,47c0,0,-27,15,-52,33c0,0,-90,70,-90,185c0,0,0,130,90,209c0,0,91,80,239,80c0,0,148,0,238,-80c0,0,91,-79,91,-209c0,0,0,-115,-91,-185c0,0,-24,-19,-52,-32c0,0,44,-20,79,-49c0,0,101,-81,101,-215c0,0,0,-151,-101,-243c0,0,-100,-90,-265,-90Z" 
id="f1_r"
transform="scale(0.001,-0.001)" />

<path d="M417,-28c0,0,-161,0,-259,79c0,0,-98,81,-109,223H189c0,0,11,-90,72,-139c0,0,61,-49,162,-49c0,0,96,0,158,68c0,0,61,68,61,175c0,0,0,112,-64,178c0,0,-64,66,-173,66c0,0,-59,0,-115,-28c0,0,-55,-29,-84,-73L93,480l77,573H727V922H271L225,629l4,3c0,0,89,60,188,60c0,0,169,0,269,-94c0,0,99,-93,99,-253c0,0,0,-165,-103,-269C682,76,579,-28,417,-28Z" 
id="f1_o"
transform="scale(0.001,-0.001)" />

<path d="M39,0V0c0,0,0,170,84,277c0,0,85,108,317,236c0,0,113,62,154,115c0,0,41,52,41,134c0,0,0,86,-62,141c0,0,-61,54,-156,54c0,0,-101,0,-158,-68c0,0,-57,-68,-60,-194H67c0,0,-2,178,95,279c0,0,98,101,273,101c0,0,149,0,245,-89c0,0,94,-88,94,-228c0,0,0,-118,-60,-195c0,0,-61,-76,-229,-169C485,394,303,294,237,212c0,0,-28,-36,-46,-81H774V0Z" 
id="f1_l"
transform="scale(0.001,-0.001)" />

<path d="M131,0V1097H891V966H280V631H814V500H280V0Z" 
id="f1_15"
transform="scale(0.001,-0.001)" />

<path d="M419,483c0,0,93,0,152,66c0,0,59,66,59,169c0,0,0,103,-59,169c0,0,-59,65,-152,65c0,0,-94,0,-153,-65c0,0,-59,-66,-59,-169c0,0,0,-103,59,-169c0,0,59,-66,153,-66ZM397,-28c0,0,-143,0,-227,75c0,0,-85,77,-91,211H209c0,0,8,-83,57,-128c0,0,49,-45,131,-45c0,0,121,0,186,135c0,0,48,101,62,265C645,485,545,362,397,362c0,0,-150,0,-241,98c0,0,-91,98,-91,258c0,0,0,160,99,258c0,0,99,98,262,98c0,0,173,0,266,-123c0,0,94,-123,94,-349c0,0,0,-303,-101,-467C685,135,583,-28,397,-28Z" 
id="f1_s"
transform="scale(0.001,-0.001)" />

<path d="M418,95c0,0,98,0,158,73c0,0,59,73,59,193c0,0,0,170,-54,254c0,0,-54,85,-163,85c0,0,-113,0,-165,-72c0,0,-52,-71,-52,-227c0,0,0,-147,57,-227c0,0,56,-79,160,-79ZM394,-336c0,0,-136,0,-216,62c0,0,-79,63,-96,182H219c0,0,12,-64,57,-98c0,0,45,-35,116,-35c0,0,116,0,176,73c0,0,61,73,61,211V85l-1,-1C628,84,545,-20,412,-20c0,0,-161,0,-256,118c0,0,-94,120,-94,324c0,0,0,179,93,290c0,0,93,110,244,110c0,0,144,0,228,-124l10,-14V799H763V59c0,0,-1,-201,-91,-298c0,0,-91,-97,-278,-97Z" 
id="f1_22"
transform="scale(0.001,-0.001)" />

<path d="M424,92c0,0,114,0,170,107c0,0,57,108,56,323c0,0,1,216,-56,324c0,0,-56,107,-170,107c0,0,-112,0,-168,-107c0,0,-56,-108,-57,-324c0,0,1,-215,57,-323c0,0,56,-107,168,-107Zm0,-120c0,0,-176,0,-271,142c0,0,-96,143,-96,408c0,0,0,265,96,409c0,0,95,144,271,144c0,0,178,0,273,-144c0,0,96,-144,96,-409c0,0,0,-265,-96,-408c0,0,-95,-142,-273,-142Z" 
id="f1_j"
transform="scale(0.001,-0.001)" />

<path d="M564,127c0,0,128,0,187,49c0,0,60,49,60,155c0,0,0,93,-62,136c0,0,-62,42,-195,42H262V127ZM527,630c0,0,121,0,177,43c0,0,56,44,56,138c0,0,0,82,-52,121c0,0,-51,38,-162,38H262V630ZM113,0V1097H595c0,0,141,0,227,-72c0,0,85,-72,85,-190c0,0,0,-137,-101,-214c0,0,-23,-17,-50,-30c0,0,54,-20,95,-49c0,0,107,-78,107,-217c0,0,0,-153,-105,-239C853,86,749,0,562,0Z" 
id="f1_11"
transform="scale(0.001,-0.001)" />

<path d="M544,127c0,0,160,0,247,110c0,0,87,109,87,311c0,0,0,202,-84,312c0,0,-83,110,-237,110H273V127ZM124,0V1097H575c0,0,209,0,332,-149c0,0,124,-149,124,-400c0,0,0,-251,-127,-399C904,149,778,0,563,0Z" 
id="f1_13"
transform="scale(0.001,-0.001)" />

<path d="M693,499L573,830L462,499ZM-39,0c0,0,33,42,61,97c0,0,30,55,71,148l314,761c0,0,22,51,38,98c0,0,15,47,17,63H721c0,0,2,-16,18,-63c0,0,15,-47,37,-98L1091,245c0,0,41,-95,70,-150c0,0,30,-55,60,-95H849c0,0,3,25,-3,55c0,0,-6,30,-24,80L765,295H393L340,135c0,0,-17,-50,-22,-80c0,0,-5,-30,-2,-55Z" 
id="f3_10"
transform="scale(0.001,-0.001)" />

<path d="M108,0c0,0,22,54,31,110c0,0,10,55,10,135V985L-5,1167H418c0,0,21,-44,54,-99c0,0,34,-55,96,-146L857,495V922c0,0,0,81,-9,136c0,0,-9,55,-32,109h378c0,0,-23,-54,-32,-109c0,0,-9,-55,-9,-136V351c0,0,0,-76,11,-178c0,0,11,-101,27,-173H845c0,0,-7,25,-28,67c0,0,-21,42,-45,78L444,628V245c0,0,0,-80,9,-135c0,0,10,-56,32,-110Z" 
id="f3_1d"
transform="scale(0.001,-0.001)" />

<path d="M367,-20c0,0,-85,0,-142,12C225,-8,167,2,83,35V332c0,0,41,-55,107,-90c0,0,66,-35,130,-35c0,0,51,0,84,31c0,0,32,31,32,81c0,0,0,49,-23,86c0,0,-22,37,-82,83c0,0,-126,98,-184,181c0,0,-57,82,-57,165c0,0,0,155,106,253c0,0,106,98,272,98c0,0,62,0,133,-13c0,0,71,-13,120,-33V867c0,0,-59,49,-104,70c0,0,-46,20,-94,20c0,0,-47,0,-76,-24c0,0,-29,-25,-29,-63c0,0,0,-41,20,-73c0,0,21,-31,75,-73c0,0,130,-101,189,-189c0,0,59,-87,59,-180c0,0,0,-165,-110,-270C651,85,541,-20,367,-20Z" 
id="f3_1i"
transform="scale(0.001,-0.001)" />

<path d="M324,0L78,922c0,0,-23,85,-44,140c0,0,-22,55,-50,105H376c0,0,-7,-56,-7,-99c0,0,1,-42,11,-89L479,513L610,998c0,0,11,42,21,91c0,0,10,49,13,78H861c0,0,4,-36,12,-85c0,0,9,-50,18,-84L1021,492l115,540c0,0,8,33,6,63c0,0,-1,31,-12,72h378c0,0,-30,-50,-52,-105c0,0,-21,-56,-45,-140L1166,0H925L741,597L565,0Z" 
id="f3_1m"
transform="scale(0.001,-0.001)" />

<path d="M102,0c0,0,22,54,31,110c0,0,10,55,10,135V922c0,0,0,81,-10,136c0,0,-9,55,-31,109H823L766,1041L709,913c0,0,-42,20,-137,36c0,0,-62,9,-121,13V697H798L728,569L657,441c0,0,-45,21,-131,36c0,0,-38,8,-75,11V206c0,0,117,6,201,22c0,0,126,24,239,84L827,156L762,0Z" 
id="f3_14"
transform="scale(0.001,-0.001)" />

<path d="M452,645c0,0,85,0,139,47c0,0,54,47,54,121c0,0,0,66,-51,107c0,0,-51,42,-132,42H442V645ZM93,0c0,0,22,54,32,110c0,0,9,55,9,135V922c0,0,0,81,-9,136c0,0,-10,55,-32,109H498c0,0,215,0,332,-90c0,0,117,-90,117,-256c0,0,0,-159,-129,-253c0,0,-46,-34,-103,-54L902,246c0,0,57,-82,107,-137c0,0,50,-55,115,-109H803c0,0,-30,0,-104,83c0,0,-73,83,-149,202L442,461V246c0,0,0,-81,9,-136c0,0,10,-56,32,-110Z" 
id="f3_1h"
transform="scale(0.001,-0.001)" />

<path d="M406,0V763H155V870h2c16,0,114,2,178,48c0,0,70,51,104,157H549V0Z" 
id="f1_k"
transform="scale(0.001,-0.001)" />

<path d="M365,-315c0,0,-136,187,-199,359c0,0,-62,172,-62,359c0,0,0,186,62,358c0,0,63,172,199,360h92c0,0,-110,-192,-160,-365c0,0,-51,-172,-51,-353c0,0,0,-183,51,-355c0,0,50,-172,160,-363Z" 
id="f1_b"
transform="scale(0.001,-0.001)" />

<path d="M52,-315c0,0,109,192,160,363c0,0,50,173,50,354c0,0,0,183,-50,355c0,0,-51,173,-160,364h92c0,0,135,-188,198,-360c0,0,63,-172,63,-359c0,0,0,-187,-63,-359c0,0,-63,-171,-198,-358Z" 
id="f1_c"
transform="scale(0.001,-0.001)" />

<path d="M62,-123V268c0,0,0,230,56,452c0,0,47,190,134,334c0,0,87,144,204,242c0,0,85,73,194,119l18,-16c0,0,-211,-145,-335,-339c0,0,-98,-156,-149,-374c0,0,-50,-218,-50,-403V-123Z" 
id="f4_4o"
transform="scale(0.001,-0.001)" />

<path d="M617,-123V283c0,0,0,236,-63,459c0,0,-63,223,-188,392c0,0,-108,146,-282,265l17,16c0,0,180,-76,320,-248c0,0,139,-172,204,-417c0,0,64,-245,64,-482V-123Z" 
id="f4_54"
transform="scale(0.001,-0.001)" />

<path d="M650,-123c0,0,-180,75,-319,246c0,0,-140,172,-205,418c0,0,-64,245,-64,481v393h72V1007c0,0,0,-236,63,-459c0,0,63,-223,189,-391c0,0,108,-145,282,-265l-18,-15Z" 
id="f4_4q"
transform="scale(0.001,-0.001)" />

<path d="M101,-123l-17,15c0,0,210,144,334,339c0,0,99,156,149,373c0,0,50,218,50,403v408h72V1022c0,0,0,-230,-56,-451c0,0,-48,-191,-134,-335C499,236,412,92,295,-5c0,0,-84,-73,-194,-118Z" 
id="f4_56"
transform="scale(0.001,-0.001)" />

<path d="M102,0L329,1097H464L333,467L745,800H921L546,501L769,0H595L429,409L300,306L237,0Z" 
id="f2_26"
transform="scale(0.001,-0.001)" />

<path d="M0,214v74H784V214ZM0,494v72H784V494Z" 
id="f4_x"
transform="scale(0.001,-0.001)" />

<path d="M415,-18c0,0,-149,0,-244,83c0,0,-94,84,-107,222l140,11c0,0,16,-103,73,-154c0,0,56,-52,137,-52c0,0,98,0,165,73c0,0,66,73,66,194c0,0,0,115,-64,182c0,0,-64,66,-169,66c0,0,-65,0,-117,-29c0,0,-52,-30,-82,-77L87,517l106,562H736V951H300L241,657c0,0,99,69,207,69c0,0,143,0,242,-100c0,0,98,-99,98,-255c0,0,0,-149,-86,-257C702,114,597,-18,415,-18Z" 
id="f5_p"
transform="scale(0.001,-0.001)" />

<path d="M125,0V1051H268V115H799V0Z" 
id="f0_1c"
transform="scale(0.001,-0.001)" />

<path d="M106,0V620c0,0,0,85,-5,188H228c0,0,6,-138,6,-165h3c0,0,32,103,74,141c0,0,42,38,118,38c0,0,27,0,54,-7V692c0,0,-26,7,-71,7c0,0,-84,0,-128,-72c0,0,-44,-72,-44,-206V0Z" 
id="f0_2e"
transform="scale(0.001,-0.001)" />

<path d="M606,-14c0,0,-164,0,-284,65c0,0,-119,66,-182,189c0,0,-63,123,-63,291c0,0,0,255,137,396c0,0,137,140,386,140c0,0,174,0,283,-59c0,0,109,-59,168,-189L915,779c0,0,-44,90,-123,131c0,0,-79,41,-196,41c0,0,-182,0,-278,-110c0,0,-96,-110,-96,-310c0,0,0,-200,102,-315c0,0,102,-115,282,-115c0,0,103,0,193,31c0,0,89,31,144,85V407H629V526h445V164c0,0,-83,-85,-205,-132c0,0,-121,-46,-263,-46Z" 
id="f0_17"
transform="scale(0.001,-0.001)" />

<path d="M355,-14c0,0,-133,0,-194,65c0,0,-62,66,-62,219V808H234V296c0,0,0,-80,16,-124c0,0,16,-44,50,-64c0,0,34,-19,101,-19c0,0,97,0,153,66c0,0,55,67,55,185V808H744V172c0,0,0,-141,4,-172H621c0,0,0,4,-1,20c0,0,-1,17,-2,38c0,0,-1,21,-3,80h-2C613,138,567,55,506,20c0,0,-61,-34,-151,-34Z" 
id="f0_2h"
transform="scale(0.001,-0.001)" />

<path d="M395,89c0,0,115,0,166,79c0,0,51,79,51,246c0,0,0,160,-51,235c0,0,-51,75,-164,75c0,0,-102,0,-147,-75c0,0,-45,-75,-45,-244c0,0,0,-170,45,-243c0,0,45,-73,145,-73ZM361,-14c0,0,-153,0,-225,102c0,0,-72,103,-72,312c0,0,0,422,297,422c0,0,92,0,153,-33c0,0,61,-34,98,-107h2l-2,90v335H747V166c0,0,0,-126,4,-166H623c0,0,-2,12,-5,55c0,0,-3,44,-3,75h-3c0,0,-37,-78,-98,-111c0,0,-62,-33,-153,-33Z" 
id="f0_20"
transform="scale(0.001,-0.001)" />

<path d="M140,0V163H285V0Z" 
id="f0_i"
transform="scale(0.001,-0.001)" />


</defs>
</svg>