<?xml version="1.0" encoding="UTF-8" standalone="no"?>
<!DOCTYPE svg PUBLIC "-//W3C//DTD SVG 1.1//EN"
"http://www.w3.org/Graphics/SVG/1.1/DTD/svg11.dtd">
<svg viewBox="0 0 686 959" version="1.1" xmlns="http://www.w3.org/2000/svg" xmlns:xlink="http://www.w3.org/1999/xlink">
<defs>
<style type="text/css"><![CDATA[
.g0_94{
fill: none;
stroke: #000000;
stroke-width: 0.15277778;
stroke-linecap: round;
stroke-linejoin: miter;
}
.g1_94{
}
.g2_94{
fill: none;
stroke: #000000;
stroke-width: 0.75997776;
stroke-linecap: round;
stroke-linejoin: miter;
}
.g3_94{
fill: none;
stroke: #000000;
stroke-width: 0.75875556;
stroke-linecap: round;
stroke-linejoin: miter;
}
.g4_94{
fill: none;
stroke: #000000;
stroke-width: 0.7638889;
stroke-linecap: round;
stroke-linejoin: miter;
}
.g5_94{
fill: none;
stroke: #000000;
stroke-width: 0.7612;
stroke-linecap: round;
stroke-linejoin: miter;
}
.g6_94{
fill: none;
stroke: #000000;
stroke-width: 0.7607111;
stroke-linecap: round;
stroke-linejoin: miter;
}
.g7_94{
fill: none;
stroke: #000000;
stroke-width: 0.7616889;
stroke-linecap: round;
stroke-linejoin: miter;
}
.g8_94{
fill: none;
stroke: #000000;
stroke-width: 0.7670667;
stroke-linecap: round;
stroke-linejoin: miter;
}
.g9_94{
fill: none;
stroke: #000000;
stroke-width: 0.7504445;
stroke-linecap: round;
stroke-linejoin: miter;
}
]]></style>
</defs>
<g fill="#D4D4D4" fill-opacity="0.56" >
<use xlink:href="#f0_1f" transform="matrix(50.9,-50.9,50.9,50.9,74.5,924.1)" />
<use xlink:href="#f0_2a" transform="matrix(50.9,-50.9,50.9,50.9,135,863.6)" />
<use xlink:href="#f0_28" transform="matrix(50.9,-50.9,50.9,50.9,178.2,820.3)" />
<use xlink:href="#f0_25" transform="matrix(50.9,-50.9,50.9,50.9,195.5,803.1)" />
<use xlink:href="#f0_2a" transform="matrix(50.9,-50.9,50.9,50.9,212.7,785.8)" />
<use xlink:href="#f0_21" transform="matrix(50.9,-50.9,50.9,50.9,256,742.5)" />
<use xlink:href="#f0_2k" transform="matrix(50.9,-50.9,50.9,50.9,299.2,699.3)" />
<use xlink:href="#f0_1x" transform="matrix(50.9,-50.9,50.9,50.9,338.1,660.4)" />
<use xlink:href="#f0_29" transform="matrix(50.9,-50.9,50.9,50.9,381.4,617.2)" />
<use xlink:href="#f0_2c" transform="matrix(50.9,-50.9,50.9,50.9,446.2,552.4)" />
<use xlink:href="#f0_2b" transform="matrix(50.9,-50.9,50.9,50.9,489.4,509.1)" />
<use xlink:href="#f0_25" transform="matrix(50.9,-50.9,50.9,50.9,532.7,465.9)" />
<use xlink:href="#f0_2a" transform="matrix(50.9,-50.9,50.9,50.9,549.9,448.6)" />
<use xlink:href="#f0_2g" transform="matrix(50.9,-50.9,50.9,50.9,593.2,405.4)" />
</g>
<g fill="#000000" >
<use xlink:href="#f1_l" transform="matrix(10.5,0,0,10.5,433.9,99)" />
<use xlink:href="#f2_4r" transform="matrix(10.5,0,0,10.5,143,97)" />
<use xlink:href="#f2_57" transform="matrix(10.5,0,0,10.5,402.1,97)" />
<use xlink:href="#f2_4r" transform="matrix(10.5,0,0,10.5,447.3,97)" />
<use xlink:href="#f2_57" transform="matrix(10.5,0,0,10.5,530,97)" />
<use xlink:href="#f2_f" transform="matrix(10.5,0,0,10.5,176.4,99)" />
<use xlink:href="#f2_f" transform="matrix(10.5,0,0,10.5,271.6,99)" />
<use xlink:href="#f2_f" transform="matrix(10.5,0,0,10.5,365.4,99)" />
<use xlink:href="#f2_x" transform="matrix(10.5,0,0,10.5,416.7,99)" />
<use xlink:href="#f2_4t" transform="matrix(10.5,0,0,10.5,143,102.4)" />
<use xlink:href="#f2_59" transform="matrix(10.5,0,0,10.5,402.1,102.4)" />
<use xlink:href="#f2_4t" transform="matrix(10.5,0,0,10.5,447.3,102.4)" />
<use xlink:href="#f2_59" transform="matrix(10.5,0,0,10.5,530,102.4)" />
<use xlink:href="#f3_23" transform="matrix(10.5,0,0,10.5,151.2,84.5)" />
<use xlink:href="#f3_23" transform="matrix(10.5,0,0,10.5,156.9,84.5)" />
<use xlink:href="#f3_23" transform="matrix(10.5,0,0,10.5,161.2,84.5)" />
<use xlink:href="#f3_20" transform="matrix(10.5,0,0,10.5,162.7,84.5)" />
<use xlink:href="#f3_23" transform="matrix(10.5,0,0,10.5,192.6,84.5)" />
<use xlink:href="#f3_23" transform="matrix(10.5,0,0,10.5,198.3,84.5)" />
<use xlink:href="#f3_23" transform="matrix(10.5,0,0,10.5,203.3,84.5)" />
<use xlink:href="#f3_20" transform="matrix(10.5,0,0,10.5,204.9,84.5)" />
<use xlink:href="#f3_23" transform="matrix(10.5,0,0,10.5,245.7,84.5)" />
<use xlink:href="#f3_23" transform="matrix(10.5,0,0,10.5,251.4,84.5)" />
<use xlink:href="#f3_23" transform="matrix(10.5,0,0,10.5,256.5,84.5)" />
<use xlink:href="#f3_20" transform="matrix(10.5,0,0,10.5,258,84.5)" />
<use xlink:href="#f3_23" transform="matrix(10.5,0,0,10.5,287.9,84.5)" />
<use xlink:href="#f3_23" transform="matrix(10.5,0,0,10.5,293.6,84.5)" />
<use xlink:href="#f3_23" transform="matrix(10.5,0,0,10.5,297.9,84.5)" />
<use xlink:href="#f3_20" transform="matrix(10.5,0,0,10.5,299.5,84.5)" />
<use xlink:href="#f3_23" transform="matrix(10.5,0,0,10.5,340.3,84.5)" />
<use xlink:href="#f3_23" transform="matrix(10.5,0,0,10.5,346.1,84.5)" />
<use xlink:href="#f3_23" transform="matrix(10.5,0,0,10.5,350.4,84.5)" />
<use xlink:href="#f3_20" transform="matrix(10.5,0,0,10.5,351.9,84.5)" />
<use xlink:href="#f3_23" transform="matrix(10.5,0,0,10.5,381.8,84.5)" />
<use xlink:href="#f3_23" transform="matrix(10.5,0,0,10.5,387.5,84.5)" />
<use xlink:href="#f3_23" transform="matrix(10.5,0,0,10.5,391.8,84.5)" />
<use xlink:href="#f3_20" transform="matrix(10.5,0,0,10.5,393.4,84.5)" />
<use xlink:href="#f3_23" transform="matrix(10.5,0,0,10.5,455.7,84.5)" />
<use xlink:href="#f3_23" transform="matrix(10.5,0,0,10.5,461.5,84.5)" />
<use xlink:href="#f3_23" transform="matrix(10.5,0,0,10.5,465.7,84.5)" />
<use xlink:href="#f3_20" transform="matrix(10.5,0,0,10.5,467.3,84.5)" />
<use xlink:href="#f3_23" transform="matrix(10.5,0,0,10.5,482.4,84.5)" />
<use xlink:href="#f3_23" transform="matrix(10.5,0,0,10.5,488.1,84.5)" />
<use xlink:href="#f3_23" transform="matrix(10.5,0,0,10.5,493.1,84.5)" />
<use xlink:href="#f3_20" transform="matrix(10.5,0,0,10.5,494.7,84.5)" />
<use xlink:href="#f3_23" transform="matrix(10.5,0,0,10.5,509.7,84.5)" />
<use xlink:href="#f3_23" transform="matrix(10.5,0,0,10.5,515.5,84.5)" />
<use xlink:href="#f3_23" transform="matrix(10.5,0,0,10.5,519.8,84.5)" />
<use xlink:href="#f3_20" transform="matrix(10.5,0,0,10.5,521.4,84.5)" />
<use xlink:href="#f4_1w" transform="matrix(10.5,0,0,10.5,155.3,99)" />
<use xlink:href="#f4_1x" transform="matrix(10.5,0,0,10.5,196.7,99)" />
<use xlink:href="#f4_1x" transform="matrix(10.5,0,0,10.5,249.8,99)" />
<use xlink:href="#f4_1y" transform="matrix(10.5,0,0,10.5,291.7,99)" />
<use xlink:href="#f4_1y" transform="matrix(10.5,0,0,10.5,344.1,99)" />
<use xlink:href="#f4_1w" transform="matrix(10.5,0,0,10.5,385.7,99)" />
<use xlink:href="#f4_1w" transform="matrix(10.5,0,0,10.5,459.6,99)" />
<use xlink:href="#f4_1x" transform="matrix(10.5,0,0,10.5,486.2,99)" />
<use xlink:href="#f4_1y" transform="matrix(10.5,0,0,10.5,513.3,99)" />
<use xlink:href="#f1_o" transform="matrix(10.4,0,0,10.4,44,137.3)" />
<use xlink:href="#f1_q" transform="matrix(10.4,0,0,10.4,52.9,137.3)" />
<use xlink:href="#f1_h" transform="matrix(10.4,0,0,10.4,62.1,137.3)" />
<use xlink:href="#f1_15" transform="matrix(10.4,0,0,10.4,84.7,137.3)" />
<use xlink:href="#f1_2a" transform="matrix(10.4,0,0,10.4,94.5,137.3)" />
<use xlink:href="#f1_2d" transform="matrix(10.4,0,0,10.4,103.4,137.3)" />
<use xlink:href="#f1_1w" transform="matrix(10.4,0,0,10.4,117.7,137.3)" />
<use xlink:href="#f1_29" transform="matrix(10.4,0,0,10.4,126.5,137.3)" />
<use xlink:href="#f1_2k" transform="matrix(10.4,0,0,10.4,135.4,137.3)" />
<use xlink:href="#f1_2f" transform="matrix(10.4,0,0,10.4,152.2,137.3)" />
<use xlink:href="#f1_23" transform="matrix(10.4,0,0,10.4,156.6,137.3)" />
<use xlink:href="#f1_2d" transform="matrix(10.4,0,0,10.4,165.5,137.3)" />
<use xlink:href="#f1_20" transform="matrix(10.4,0,0,10.4,170.8,137.3)" />
<use xlink:href="#f1_20" transform="matrix(10.4,0,0,10.4,179.7,137.3)" />
<use xlink:href="#f1_2h" transform="matrix(10.4,0,0,10.4,197.3,137.3)" />
<use xlink:href="#f1_20" transform="matrix(10.4,0,0,10.4,205.3,137.3)" />
<use xlink:href="#f1_1y" transform="matrix(10.4,0,0,10.4,214.2,137.3)" />
<use xlink:href="#f1_2f" transform="matrix(10.4,0,0,10.4,222.1,137.3)" />
<use xlink:href="#f1_2a" transform="matrix(10.4,0,0,10.4,226.6,137.3)" />
<use xlink:href="#f1_2d" transform="matrix(10.4,0,0,10.4,235.4,137.3)" />
<use xlink:href="#f1_2e" transform="matrix(10.4,0,0,10.4,240.8,137.3)" />
<use xlink:href="#f1_f" transform="matrix(10.4,0,0,10.5,278.4,138.8)" />
<use xlink:href="#f1_1w" transform="matrix(10.4,0,0,10.5,317,138.8)" />
<use xlink:href="#f1_29" transform="matrix(10.4,0,0,10.5,325.9,138.8)" />
<use xlink:href="#f1_1z" transform="matrix(10.4,0,0,10.5,334.8,138.8)" />
<use xlink:href="#f3_23" transform="matrix(10.4,0,0,10.5,260.7,124.3)" />
<use xlink:href="#f3_23" transform="matrix(10.4,0,0,10.5,266.4,124.3)" />
<use xlink:href="#f3_23" transform="matrix(10.4,0,0,10.5,270.7,124.3)" />
<use xlink:href="#f3_20" transform="matrix(10.4,0,0,10.5,272.2,124.3)" />
<use xlink:href="#f3_23" transform="matrix(10.4,0,0,10.5,290.2,124.3)" />
<use xlink:href="#f3_23" transform="matrix(10.4,0,0,10.5,296,124.3)" />
<use xlink:href="#f3_23" transform="matrix(10.4,0,0,10.5,301,124.3)" />
<use xlink:href="#f3_20" transform="matrix(10.4,0,0,10.5,302.5,124.3)" />
<use xlink:href="#f3_23" transform="matrix(10.4,0,0,10.5,351.6,124.3)" />
<use xlink:href="#f3_23" transform="matrix(10.4,0,0,10.5,357.3,124.3)" />
<use xlink:href="#f3_23" transform="matrix(10.4,0,0,10.5,361.6,124.3)" />
<use xlink:href="#f3_20" transform="matrix(10.4,0,0,10.5,363.2,124.3)" />
<use xlink:href="#f4_1w" transform="matrix(10.4,0,0,10.5,264.8,138.8)" />
<use xlink:href="#f4_1x" transform="matrix(10.4,0,0,10.5,294.3,138.8)" />
<use xlink:href="#f4_1y" transform="matrix(10.4,0,0,10.5,355.4,138.8)" />
<use xlink:href="#f1_f" transform="matrix(10.4,0,0,10.4,373.3,137.3)" />
<use xlink:href="#f1_2b" transform="matrix(10.4,0,0,10.4,386.6,137.3)" />
<use xlink:href="#f1_2d" transform="matrix(10.4,0,0,10.4,395.4,137.3)" />
<use xlink:href="#f1_2a" transform="matrix(10.4,0,0,10.4,400.9,137.3)" />
<use xlink:href="#f1_2h" transform="matrix(10.4,0,0,10.4,409.8,137.3)" />
<use xlink:href="#f1_20" transform="matrix(10.4,0,0,10.4,417.8,137.3)" />
<use xlink:href="#f1_2f" transform="matrix(10.4,0,0,10.4,435.4,137.3)" />
<use xlink:href="#f1_23" transform="matrix(10.4,0,0,10.4,439.9,137.3)" />
<use xlink:href="#f1_1w" transform="matrix(10.4,0,0,10.4,448.7,137.3)" />
<use xlink:href="#f1_2f" transform="matrix(10.4,0,0,10.4,457.6,137.3)" />
<use xlink:href="#f1_f" transform="matrix(10.5,0,0,10.5,533.3,138.8)" />
<use xlink:href="#f2_h" transform="matrix(10.5,0,0,10.5,498.8,138.8)" />
<use xlink:href="#f2_h" transform="matrix(10.5,0,0,10.5,571.1,138.8)" />
<use xlink:href="#f3_23" transform="matrix(10.5,0,0,10.5,473.6,124.3)" />
<use xlink:href="#f3_23" transform="matrix(10.5,0,0,10.5,479.4,124.3)" />
<use xlink:href="#f3_23" transform="matrix(10.5,0,0,10.5,483.6,124.3)" />
<use xlink:href="#f3_20" transform="matrix(10.5,0,0,10.5,485.2,124.3)" />
<use xlink:href="#f3_23" transform="matrix(10.5,0,0,10.5,514.8,124.3)" />
<use xlink:href="#f3_23" transform="matrix(10.5,0,0,10.5,520.5,124.3)" />
<use xlink:href="#f3_23" transform="matrix(10.5,0,0,10.5,525.5,124.3)" />
<use xlink:href="#f3_20" transform="matrix(10.5,0,0,10.5,527.1,124.3)" />
<use xlink:href="#f3_23" transform="matrix(10.5,0,0,10.5,545.2,124.3)" />
<use xlink:href="#f3_23" transform="matrix(10.5,0,0,10.5,550.9,124.3)" />
<use xlink:href="#f3_23" transform="matrix(10.5,0,0,10.5,555.9,124.3)" />
<use xlink:href="#f3_20" transform="matrix(10.5,0,0,10.5,557.5,124.3)" />
<use xlink:href="#f3_23" transform="matrix(10.5,0,0,10.5,587.1,124.3)" />
<use xlink:href="#f3_23" transform="matrix(10.5,0,0,10.5,592.9,124.3)" />
<use xlink:href="#f3_23" transform="matrix(10.5,0,0,10.5,597.2,124.3)" />
<use xlink:href="#f3_20" transform="matrix(10.5,0,0,10.5,598.8,124.3)" />
<use xlink:href="#f4_1w" transform="matrix(10.5,0,0,10.5,477.8,138.8)" />
<use xlink:href="#f4_1x" transform="matrix(10.5,0,0,10.5,518.9,138.8)" />
<use xlink:href="#f4_1x" transform="matrix(10.5,0,0,10.5,549.3,138.8)" />
<use xlink:href="#f4_1y" transform="matrix(10.5,0,0,10.5,590.9,138.8)" />
<use xlink:href="#f1_1w" transform="matrix(10.4,0,0,10.4,84.7,163.1)" />
<use xlink:href="#f1_29" transform="matrix(10.4,0,0,10.4,93.6,163.1)" />
<use xlink:href="#f1_1z" transform="matrix(10.4,0,0,10.4,102.5,163.1)" />
<use xlink:href="#f2_h" transform="matrix(10.5,0,0,10.5,146.6,164.6)" />
<use xlink:href="#f3_23" transform="matrix(10.5,0,0,10.5,121.5,150.2)" />
<use xlink:href="#f3_23" transform="matrix(10.5,0,0,10.5,127.2,150.2)" />
<use xlink:href="#f3_23" transform="matrix(10.5,0,0,10.5,131.5,150.2)" />
<use xlink:href="#f3_20" transform="matrix(10.5,0,0,10.5,133.1,150.2)" />
<use xlink:href="#f3_23" transform="matrix(10.5,0,0,10.5,162.5,150.2)" />
<use xlink:href="#f3_23" transform="matrix(10.5,0,0,10.5,168.2,150.2)" />
<use xlink:href="#f3_23" transform="matrix(10.5,0,0,10.5,172.4,150.2)" />
<use xlink:href="#f3_20" transform="matrix(10.5,0,0,10.5,174,150.2)" />
<use xlink:href="#f4_1y" transform="matrix(10.4,0,0,10.5,125.4,164.6)" />
<use xlink:href="#f4_1w" transform="matrix(10.4,0,0,10.5,166.6,164.6)" />
<use xlink:href="#f1_1w" transform="matrix(10.4,0,0,10.4,191.3,163.1)" />
<use xlink:href="#f1_2d" transform="matrix(10.4,0,0,10.4,200.1,163.1)" />
<use xlink:href="#f1_20" transform="matrix(10.4,0,0,10.4,205.4,163.1)" />
<use xlink:href="#f1_1y" transform="matrix(10.4,0,0,10.4,221.8,163.1)" />
<use xlink:href="#f1_2a" transform="matrix(10.4,0,0,10.4,229.8,163.1)" />
<use xlink:href="#f1_2b" transform="matrix(10.4,0,0,10.4,238.7,163.1)" />
<use xlink:href="#f1_27" transform="matrix(10.4,0,0,10.4,247.5,163.1)" />
<use xlink:href="#f1_1w" transform="matrix(10.4,0,0,10.4,251.1,163.1)" />
<use xlink:href="#f1_29" transform="matrix(10.4,0,0,10.4,259.9,163.1)" />
<use xlink:href="#f1_1w" transform="matrix(10.4,0,0,10.4,268.8,163.1)" />
<use xlink:href="#f1_2d" transform="matrix(10.4,0,0,10.4,277.7,163.1)" />
<use xlink:href="#f1_h" transform="matrix(10.4,0,0,10.4,283,163.1)" />
<use xlink:href="#f5_10" transform="matrix(14,0,0,14,266.1,217)" />
<use xlink:href="#f5_1d" transform="matrix(14,0,0,14,282.7,217)" />
<use xlink:href="#f5_1i" transform="matrix(14,0,0,14,300.9,217)" />
<use xlink:href="#f5_1m" transform="matrix(14,0,0,14,312.3,217)" />
<use xlink:href="#f5_14" transform="matrix(14,0,0,14,333.3,217)" />
<use xlink:href="#f5_1h" transform="matrix(14,0,0,14,346.3,217)" />
<use xlink:href="#f5_1i" transform="matrix(14,0,0,14,361.4,217)" />
<use xlink:href="#f1_k" transform="matrix(10.4,0,0,10.4,53,277.3)" />
<use xlink:href="#f1_h" transform="matrix(10.4,0,0,10.4,61.9,277.3)" />
</g>
<path d="M111.4,262l1.7,-.9l3.9,6.4l4.1,-17h10" class="g0_94" />
<path fill-rule="evenodd" d="M111.3,261.8l2.1,-1.3l3.6,5.4l3.9,-15.8h10.2v.8h-9.7l-4.1,16.6h-.7l-3.9,-5.9l-1.1,.6l-.3,-.4Z" class="g1_94" />
<path d="M101.1,272.3h31.2m15.5,0H158" class="g2_94" />
<g fill="#000000" >
<use xlink:href="#f1_o" transform="matrix(10.4,0,0,10.5,101.9,266.1)" />
<use xlink:href="#f1_m" transform="matrix(10.4,0,0,10.5,121.7,266.1)" />
<use xlink:href="#f1_o" transform="matrix(10.4,0,0,10.5,148.6,266.1)" />
<use xlink:href="#f1_f" transform="matrix(10.4,0,0,10.5,136,276.6)" />
<use xlink:href="#f1_h" transform="matrix(10.4,0,0,10.5,161.7,276.6)" />
<use xlink:href="#f1_l" transform="matrix(10.4,0,0,10.5,112.4,292.1)" />
<use xlink:href="#f1_l" transform="matrix(10.4,0,0,10.5,148.6,292.1)" />
<use xlink:href="#f2_h" transform="matrix(10.4,0,0,10.5,87.5,276.6)" />
<use xlink:href="#f1_l" transform="matrix(10.4,0,0,10.4,346.4,277.3)" />
<use xlink:href="#f1_h" transform="matrix(10.4,0,0,10.4,355.2,277.3)" />
</g>
<path d="M424.2,271.6h10.2" class="g3_94" />
<g fill="#000000" >
<use xlink:href="#f1_k" transform="matrix(10.4,0,0,10.5,425.7,265.4)" />
<use xlink:href="#f1_m" transform="matrix(10.4,0,0,10.5,425,286.6)" />
<use xlink:href="#f2_x" transform="matrix(10.5,0,0,10.5,393,275.8)" />
<use xlink:href="#f2_37" transform="matrix(10.5,0,0,10.5,410.3,275.8)" />
<use xlink:href="#f4_1w" transform="matrix(10.4,0,0,10.5,375.6,275.8)" />
<use xlink:href="#f1_m" transform="matrix(10.4,0,0,10.4,53,332.2)" />
<use xlink:href="#f1_h" transform="matrix(10.4,0,0,10.4,61.9,332.2)" />
<use xlink:href="#f1_1w" transform="matrix(10.4,0,0,10.5,115.1,333.7)" />
<use xlink:href="#f1_29" transform="matrix(10.4,0,0,10.5,124,333.7)" />
<use xlink:href="#f1_1z" transform="matrix(10.4,0,0,10.5,132.9,333.7)" />
<use xlink:href="#f4_2j" transform="matrix(10.4,0,0,10.5,92.7,333.7)" />
<use xlink:href="#f4_2k" transform="matrix(10.4,0,0,10.5,154.5,333.7)" />
<use xlink:href="#f3_23" transform="matrix(10.4,0,0,10.5,87.8,319.2)" />
<use xlink:href="#f3_23" transform="matrix(10.4,0,0,10.5,93.5,319.2)" />
<use xlink:href="#f3_23" transform="matrix(10.4,0,0,10.5,99,319.2)" />
<use xlink:href="#f3_20" transform="matrix(10.4,0,0,10.5,100.6,319.2)" />
<use xlink:href="#f3_23" transform="matrix(10.4,0,0,10.5,149.6,319.2)" />
<use xlink:href="#f3_23" transform="matrix(10.4,0,0,10.5,155.4,319.2)" />
<use xlink:href="#f3_23" transform="matrix(10.4,0,0,10.5,161.1,319.2)" />
<use xlink:href="#f3_20" transform="matrix(10.4,0,0,10.5,162.7,319.2)" />
<use xlink:href="#f1_1w" transform="matrix(10.4,0,0,10.4,180.1,332.2)" />
<use xlink:href="#f1_2d" transform="matrix(10.4,0,0,10.4,188.9,332.2)" />
<use xlink:href="#f1_20" transform="matrix(10.4,0,0,10.4,194.3,332.2)" />
<use xlink:href="#f1_27" transform="matrix(10.4,0,0,10.4,210.5,332.2)" />
<use xlink:href="#f1_24" transform="matrix(10.4,0,0,10.4,214,332.2)" />
<use xlink:href="#f1_26" transform="matrix(10.4,0,0,10.4,217.5,332.2)" />
<use xlink:href="#f1_20" transform="matrix(10.4,0,0,10.4,225.5,332.2)" />
<use xlink:href="#f1_2b" transform="matrix(10.4,0,0,10.4,241.5,332.2)" />
<use xlink:href="#f1_1w" transform="matrix(10.4,0,0,10.4,250.4,332.2)" />
<use xlink:href="#f1_2d" transform="matrix(10.4,0,0,10.4,259.3,332.2)" />
<use xlink:href="#f1_1w" transform="matrix(10.4,0,0,10.4,264.6,332.2)" />
<use xlink:href="#f1_27" transform="matrix(10.4,0,0,10.4,273.4,332.2)" />
<use xlink:href="#f1_27" transform="matrix(10.4,0,0,10.4,277,332.2)" />
<use xlink:href="#f1_20" transform="matrix(10.4,0,0,10.4,280.5,332.2)" />
<use xlink:href="#f1_27" transform="matrix(10.4,0,0,10.4,289.4,332.2)" />
<use xlink:href="#f1_2h" transform="matrix(10.4,0,0,10.4,300.3,332.2)" />
<use xlink:href="#f1_20" transform="matrix(10.4,0,0,10.4,308.3,332.2)" />
<use xlink:href="#f1_1y" transform="matrix(10.4,0,0,10.4,317.1,332.2)" />
<use xlink:href="#f1_2f" transform="matrix(10.4,0,0,10.4,325.1,332.2)" />
<use xlink:href="#f1_2a" transform="matrix(10.4,0,0,10.4,329.5,332.2)" />
<use xlink:href="#f1_2d" transform="matrix(10.4,0,0,10.4,338.4,332.2)" />
<use xlink:href="#f1_2e" transform="matrix(10.4,0,0,10.4,343.7,332.2)" />
<use xlink:href="#f1_h" transform="matrix(10.4,0,0,10.4,351.7,332.2)" />
<use xlink:href="#f1_n" transform="matrix(10.4,0,0,10.4,53,391.4)" />
<use xlink:href="#f1_h" transform="matrix(10.4,0,0,10.4,61.9,391.4)" />
</g>
<path d="M87.9,388.7l1.6,-.9l4,6.4l4.2,-16.9h27.2" class="g0_94" />
<path fill-rule="evenodd" d="M87.8,388.6l2.1,-1.3l3.6,5.4l3.9,-15.8h27.5v.8H98l-4.1,16.5h-.8l-3.9,-5.8l-1.1,.6l-.3,-.4Z" class="g1_94" />
<g fill="#000000" >
<use xlink:href="#f1_k" transform="matrix(10.6,0,0,10.5,97.2,392.9)" />
<use xlink:href="#f1_l" transform="matrix(10.6,0,0,10.5,106.2,392.9)" />
<use xlink:href="#f1_p" transform="matrix(10.6,0,0,10.5,115.1,392.9)" />
<use xlink:href="#f1_2e" transform="matrix(10.6,0,0,10.5,132.8,392.9)" />
<use xlink:href="#f1_2c" transform="matrix(10.6,0,0,10.5,140.9,392.9)" />
<use xlink:href="#f1_2g" transform="matrix(10.6,0,0,10.5,156.3,392.9)" />
<use xlink:href="#f1_29" transform="matrix(10.6,0,0,10.5,165.2,392.9)" />
<use xlink:href="#f1_24" transform="matrix(10.6,0,0,10.5,174.2,392.9)" />
<use xlink:href="#f1_2f" transform="matrix(10.6,0,0,10.5,177.8,392.9)" />
<use xlink:href="#f1_2e" transform="matrix(10.6,0,0,10.5,182.3,392.9)" />
<use xlink:href="#f1_h" transform="matrix(10.6,0,0,10.5,190.3,392.9)" />
<use xlink:href="#f1_o" transform="matrix(10.4,0,0,10.4,346.4,391.4)" />
<use xlink:href="#f1_h" transform="matrix(10.4,0,0,10.4,355.2,391.4)" />
</g>
<path d="M376.6,385.6h10.7" class="g4_94" />
<g fill="#000000" >
<use xlink:href="#f1_m" transform="matrix(10.5,0,0,10.5,377.6,400.6)" />
<use xlink:href="#f2_2c" transform="matrix(10.5,0,0,10.5,377.6,379.4)" />
<use xlink:href="#f1_p" transform="matrix(10.4,0,0,10.4,53,455.5)" />
<use xlink:href="#f1_h" transform="matrix(10.4,0,0,10.4,61.9,455.5)" />
</g>
<path d="M89.1,466.2l1.6,-.9l3.9,6.4l4.2,-16.8h10" class="g0_94" />
<path fill-rule="evenodd" d="M89,466.1l2.1,-1.3l3.5,5.4l4,-15.7h10.2v.8H99.1L95,471.7h-.7l-3.9,-5.8l-1.1,.6l-.3,-.4Z" class="g1_94" />
<path d="M87.8,452.2h22.3m32.1,0h10.3m34.1,0h10.3" class="g5_94" />
<g fill="#000000" >
<use xlink:href="#f3_4" transform="matrix(14.1,0,0,10.6,202.7,450.7)" />
<use xlink:href="#f1_k" transform="matrix(10.6,0,0,10.6,95.5,445.9)" />
<use xlink:href="#f1_k" transform="matrix(10.6,0,0,10.6,143.8,445.9)" />
<use xlink:href="#f1_k" transform="matrix(10.6,0,0,10.6,188.2,445.9)" />
<use xlink:href="#f1_l" transform="matrix(10.6,0,0,10.6,143.1,467.3)" />
<use xlink:href="#f1_l" transform="matrix(10.6,0,0,10.6,187.4,467.3)" />
<use xlink:href="#f1_l" transform="matrix(10.6,0,0,10.6,99.5,470.7)" />
<use xlink:href="#f4_24" transform="matrix(10.6,0,0,10.6,114.3,456.5)" />
<use xlink:href="#f4_25" transform="matrix(10.6,0,0,10.6,158.7,456.5)" />
<use xlink:href="#f4_26" transform="matrix(10.6,0,0,10.6,201,456.5)" />
<use xlink:href="#f2_f" transform="matrix(10.6,0,0,10.6,126.2,456.5)" />
<use xlink:href="#f2_f" transform="matrix(10.6,0,0,10.6,170.5,456.5)" />
<use xlink:href="#f3_4" transform="matrix(10.6,0,0,10.6,114.4,450.7)" />
<use xlink:href="#f3_4" transform="matrix(10.6,0,0,10.6,157.7,450.7)" />
<use xlink:href="#f1_q" transform="matrix(10.4,0,0,10.4,346.4,455.5)" />
<use xlink:href="#f1_h" transform="matrix(10.4,0,0,10.4,355.2,455.5)" />
<use xlink:href="#f1_b" transform="matrix(10.4,0,0,10.4,373.5,455.5)" />
<use xlink:href="#f1_p" transform="matrix(10.4,0,0,10.4,378.8,455.5)" />
<use xlink:href="#f1_f" transform="matrix(10.4,0,0,10.4,387.7,455.5)" />
<use xlink:href="#f1_k" transform="matrix(10.4,0,0,10.4,399.4,455.5)" />
<use xlink:href="#f1_k" transform="matrix(10.4,0,0,10.4,408.3,455.5)" />
<use xlink:href="#f1_c" transform="matrix(10.4,0,0,10.4,417.2,455.5)" />
<use xlink:href="#f1_r" transform="matrix(10.4,0,0,10.4,53,526.7)" />
<use xlink:href="#f1_h" transform="matrix(10.4,0,0,10.4,61.9,526.7)" />
</g>
<path d="M116.1,523.9h18" class="g6_94" />
<g fill="#000000" >
<use xlink:href="#f1_k" transform="matrix(10.6,0,0,10.6,115.6,517.7)" />
<use xlink:href="#f1_n" transform="matrix(10.6,0,0,10.6,124.6,517.7)" />
<use xlink:href="#f1_o" transform="matrix(10.6,0,0,10.6,96.3,528.2)" />
<use xlink:href="#f1_f" transform="matrix(10.6,0,0,10.6,104.5,528.2)" />
<use xlink:href="#f1_f" transform="matrix(10.6,0,0,10.6,137.9,528.2)" />
<use xlink:href="#f1_99" transform="matrix(10.6,0,0,10.6,149.5,528.2)" />
<use xlink:href="#f1_p" transform="matrix(10.6,0,0,10.6,165.4,528.2)" />
<use xlink:href="#f1_m" transform="matrix(10.6,0,0,10.6,120.7,539.1)" />
<use xlink:href="#f2_4o" transform="matrix(10.6,0,0,10.6,87.1,518.9)" />
<use xlink:href="#f2_54" transform="matrix(10.6,0,0,10.6,175.3,518.9)" />
<use xlink:href="#f2_4q" transform="matrix(10.6,0,0,10.6,87.1,535.7)" />
<use xlink:href="#f2_56" transform="matrix(10.6,0,0,10.6,175.3,535.7)" />
<use xlink:href="#f1_s" transform="matrix(10.4,0,0,10.4,346.4,526.7)" />
<use xlink:href="#f1_h" transform="matrix(10.4,0,0,10.4,355.2,526.7)" />
</g>
<path d="M473.7,522.2l1.7,-.9l3.9,6.4l4.2,-17h10.1" class="g0_94" />
<path fill-rule="evenodd" d="M473.6,522l2.1,-1.2l3.6,5.4l4,-15.8h10.3v.7h-9.8l-4.1,16.6h-.8L475,521.8l-1.1,.6l-.3,-.4Z" class="g1_94" />
<g fill="#000000" >
<use xlink:href="#f1_n" transform="matrix(10.5,0,0,10.5,376.1,526.4)" />
<use xlink:href="#f1_p" transform="matrix(10.5,0,0,10.5,418.8,526.4)" />
<use xlink:href="#f1_n" transform="matrix(10.5,0,0,10.5,464,526.4)" />
<use xlink:href="#f1_m" transform="matrix(10.5,0,0,10.5,483.9,526.4)" />
<use xlink:href="#f1_h" transform="matrix(10.5,0,0,10.5,506.8,526.4)" />
<use xlink:href="#f4_24" transform="matrix(10.5,0,0,10.5,389,526.4)" />
<use xlink:href="#f4_25" transform="matrix(10.5,0,0,10.5,434.2,526.4)" />
<use xlink:href="#f4_26" transform="matrix(10.5,0,0,10.5,498.1,526.4)" />
<use xlink:href="#f6_d" transform="matrix(10.5,0,0,10.5,400.3,526.4)" />
<use xlink:href="#f6_d" transform="matrix(10.5,0,0,10.5,445.5,526.4)" />
<use xlink:href="#f7_4" transform="matrix(10.5,0,0,10.5,386.7,520.6)" />
<use xlink:href="#f7_4" transform="matrix(10.5,0,0,10.5,430.6,520.6)" />
<use xlink:href="#f7_4" transform="matrix(10.5,0,0,10.5,497.8,520.6)" />
<use xlink:href="#f1_k" transform="matrix(10.4,0,0,10.4,44,598.5)" />
<use xlink:href="#f1_j" transform="matrix(10.4,0,0,10.4,52.9,598.5)" />
<use xlink:href="#f1_h" transform="matrix(10.4,0,0,10.4,62.1,598.5)" />
</g>
<path d="M102.7,608.4l1.7,-1l3.9,6.4l4.2,-16.9h10" class="g0_94" />
<path fill-rule="evenodd" d="M102.7,608.2l2,-1.3l3.6,5.4l3.9,-15.8h10.3v.8h-9.8l-4.1,16.5h-.7L104,608l-1.1,.6l-.2,-.4Z" class="g1_94" />
<path d="M101.4,594.2h22.3" class="g7_94" />
<path d="M156.4,608.4l1.6,-1l3.9,6.4l4.2,-16.9h10" class="g0_94" />
<path fill-rule="evenodd" d="M156.3,608.2l2.1,-1.3l3.5,5.4l4,-15.8h10.2v.8h-9.7l-4.1,16.5h-.8L157.6,608l-1.1,.6l-.2,-.4Z" class="g1_94" />
<path d="M155.1,594.2h22.3" class="g7_94" />
<path d="M210.1,608.4l1.6,-1l3.9,6.4l4.2,-16.9h10" class="g0_94" />
<path fill-rule="evenodd" d="M210,608.2l2.1,-1.3l3.5,5.4l3.9,-15.8h10.3v.8h-9.7L216,613.8h-.8L211.3,608l-1.1,.6l-.2,-.4Z" class="g1_94" />
<path d="M208.7,594.2H231" class="g7_94" />
<g fill="#000000" >
<use xlink:href="#f1_k" transform="matrix(10.5,0,0,10.5,109,588.1)" />
<use xlink:href="#f1_k" transform="matrix(10.5,0,0,10.5,162.7,588.1)" />
<use xlink:href="#f1_k" transform="matrix(10.5,0,0,10.5,216.4,588.1)" />
<use xlink:href="#f1_f" transform="matrix(10.5,0,0,10.5,127.4,598.5)" />
<use xlink:href="#f1_f" transform="matrix(10.5,0,0,10.5,181.1,598.5)" />
<use xlink:href="#f1_h" transform="matrix(10.5,0,0,10.5,234.8,598.5)" />
<use xlink:href="#f1_m" transform="matrix(10.5,0,0,10.5,113,612.6)" />
<use xlink:href="#f1_m" transform="matrix(10.5,0,0,10.5,166.7,612.6)" />
<use xlink:href="#f1_m" transform="matrix(10.5,0,0,10.5,220.4,612.6)" />
<use xlink:href="#f2_37" transform="matrix(10.5,0,0,10.5,87.5,598.5)" />
<use xlink:href="#f2_37" transform="matrix(10.5,0,0,10.5,139,598.5)" />
<use xlink:href="#f2_37" transform="matrix(10.5,0,0,10.5,192.7,598.5)" />
<use xlink:href="#f1_k" transform="matrix(10.4,0,0,10.4,337.4,598.5)" />
<use xlink:href="#f1_k" transform="matrix(10.4,0,0,10.4,346.3,598.5)" />
<use xlink:href="#f1_h" transform="matrix(10.4,0,0,10.4,355.4,598.5)" />
</g>
<path d="M431.2,593.7h10.3" class="g4_94" />
<g fill="#000000" >
<use xlink:href="#f1_k" transform="matrix(7.8,0,0,7.8,410.9,586.5)" />
<use xlink:href="#f1_m" transform="matrix(10.4,0,0,10.4,431.9,587.6)" />
<use xlink:href="#f1_1y" transform="matrix(10.4,0,0,10.4,375.9,596)" />
<use xlink:href="#f1_2a" transform="matrix(10.4,0,0,10.4,383.9,596)" />
<use xlink:href="#f1_2e" transform="matrix(10.4,0,0,10.4,392.9,596)" />
<use xlink:href="#f1_h" transform="matrix(10.4,0,0,10.4,454,596)" />
<use xlink:href="#f1_q" transform="matrix(10.4,0,0,10.4,431.9,608.5)" />
<use xlink:href="#f2_h" transform="matrix(7.8,0,0,7.8,404.4,586.5)" />
<use xlink:href="#f2_4o" transform="matrix(10.5,0,0,10.4,421.4,588.7)" />
<use xlink:href="#f2_54" transform="matrix(10.5,0,0,10.4,443.2,588.7)" />
<use xlink:href="#f2_4q" transform="matrix(10.5,0,0,10.4,421.4,604.9)" />
<use xlink:href="#f2_56" transform="matrix(10.5,0,0,10.4,443.2,604.9)" />
<use xlink:href="#f1_k" transform="matrix(10.4,0,0,10.4,44,672.4)" />
<use xlink:href="#f1_l" transform="matrix(10.4,0,0,10.4,52.9,672.4)" />
<use xlink:href="#f1_h" transform="matrix(10.4,0,0,10.4,62.1,672.4)" />
<use xlink:href="#f3_4" transform="matrix(14,0,0,10.5,164.2,657.1)" />
</g>
<path d="M116.1,683.2l1.6,-1l4,6.4l4.2,-16.9H145" class="g0_94" />
<path fill-rule="evenodd" d="M116,683l2.1,-1.3l3.6,5.4l3.9,-15.8H145v.8H126.2l-4.1,16.5h-.8l-3.9,-5.8l-1.1,.6L116,683Z" class="g1_94" />
<path d="M87.8,669h85.4" class="g8_94" />
<g fill="#000000" >
<use xlink:href="#f1_m" transform="matrix(10.6,0,0,10.5,88.6,662.9)" />
<use xlink:href="#f1_n" transform="matrix(10.6,0,0,10.5,124.9,662.9)" />
<use xlink:href="#f1_h" transform="matrix(10.6,0,0,10.5,176.9,673.3)" />
<use xlink:href="#f1_l" transform="matrix(10.6,0,0,10.5,126.4,687.3)" />
<use xlink:href="#f1_p" transform="matrix(10.6,0,0,10.5,135.4,687.3)" />
<use xlink:href="#f4_24" transform="matrix(10.6,0,0,10.5,97.1,662.9)" />
<use xlink:href="#f4_25" transform="matrix(10.6,0,0,10.5,135.5,662.9)" />
<use xlink:href="#f4_26" transform="matrix(10.6,0,0,10.5,162.5,662.9)" />
<use xlink:href="#f2_f" transform="matrix(10.6,0,0,10.5,109.1,662.9)" />
<use xlink:href="#f2_h" transform="matrix(10.6,0,0,10.5,147.4,662.9)" />
<use xlink:href="#f3_4" transform="matrix(10.5,0,0,10.5,97.2,657.1)" />
<use xlink:href="#f3_4" transform="matrix(10.5,0,0,10.5,134.6,657.1)" />
<use xlink:href="#f1_k" transform="matrix(10.4,0,0,10.4,337.4,672.4)" />
<use xlink:href="#f1_m" transform="matrix(10.4,0,0,10.4,346.3,672.4)" />
<use xlink:href="#f1_h" transform="matrix(10.4,0,0,10.4,355.4,672.4)" />
<use xlink:href="#f1_j" transform="matrix(10.4,0,0,10.4,373.5,672.4)" />
<use xlink:href="#f1_k" transform="matrix(10.4,0,0,10.4,44,726.7)" />
<use xlink:href="#f1_n" transform="matrix(10.4,0,0,10.4,52.9,726.7)" />
<use xlink:href="#f1_h" transform="matrix(10.4,0,0,10.4,62.1,726.7)" />
<use xlink:href="#f1_n" transform="matrix(10.4,0,0,10.4,84.7,726.7)" />
<use xlink:href="#f1_k" transform="matrix(10.4,0,0,10.4,337.4,726.7)" />
<use xlink:href="#f1_o" transform="matrix(10.4,0,0,10.4,346.3,726.7)" />
<use xlink:href="#f1_h" transform="matrix(10.4,0,0,10.4,355.4,726.7)" />
<use xlink:href="#f1_99" transform="matrix(10.4,0,0,10.4,373.5,726.7)" />
<use xlink:href="#f1_s" transform="matrix(10.4,0,0,10.4,382.7,726.7)" />
<use xlink:href="#f1_k" transform="matrix(10.4,0,0,10.4,44,780)" />
<use xlink:href="#f1_p" transform="matrix(10.4,0,0,10.4,52.9,780)" />
<use xlink:href="#f1_h" transform="matrix(10.4,0,0,10.4,62.1,780)" />
<use xlink:href="#f1_l" transform="matrix(10.4,0,0,10.4,84.7,780)" />
<use xlink:href="#f1_k" transform="matrix(10.4,0,0,10.4,337.4,780)" />
<use xlink:href="#f1_q" transform="matrix(10.4,0,0,10.4,346.3,780)" />
<use xlink:href="#f1_h" transform="matrix(10.4,0,0,10.4,355.4,780)" />
</g>
<path d="M376.5,774.3h10.6" class="g9_94" />
<g fill="#000000" >
<use xlink:href="#f1_h" transform="matrix(10.5,0,0,10.5,390.6,778.5)" />
<use xlink:href="#f1_l" transform="matrix(10.5,0,0,10.5,377.5,789.3)" />
<use xlink:href="#f2_2c" transform="matrix(10.5,0,0,10.5,377.4,768.1)" />
<use xlink:href="#f1_k" transform="matrix(10.4,0,0,10.4,44,845.9)" />
<use xlink:href="#f1_r" transform="matrix(10.4,0,0,10.4,52.9,845.9)" />
<use xlink:href="#f1_h" transform="matrix(10.4,0,0,10.4,62.1,845.9)" />
</g>
<path d="M88,845.3l1.6,-.9l4,6.3l4.2,-16.6H108" class="g0_94" />
<path fill-rule="evenodd" d="M87.9,845.1L90,843.9l3.6,5.3l4,-15.5H108v.8H98.1L94,850.7h-.8l-4,-5.7l-1.1,.6l-.2,-.5Z" class="g1_94" />
<g fill="#000000" >
<use xlink:href="#f1_o" transform="matrix(10.3,0,0,10.3,98.3,849.4)" />
<use xlink:href="#f1_k" transform="matrix(10.4,0,0,10.4,337.4,845.9)" />
<use xlink:href="#f1_s" transform="matrix(10.4,0,0,10.4,346.3,845.9)" />
<use xlink:href="#f1_h" transform="matrix(10.4,0,0,10.4,355.4,845.9)" />
</g>
<path d="M376.6,840.1h10.2" class="g4_94" />
<g fill="#000000" >
<use xlink:href="#f1_m" transform="matrix(10.5,0,0,10.5,377.3,833.9)" />
<use xlink:href="#f1_2e" transform="matrix(10.5,0,0,10.5,391.5,844.3)" />
<use xlink:href="#f1_2c" transform="matrix(10.5,0,0,10.5,399.6,844.3)" />
<use xlink:href="#f1_h" transform="matrix(10.5,0,0,10.5,408.5,844.3)" />
<use xlink:href="#f1_2g" transform="matrix(10.5,0,0,10.5,419.4,844.3)" />
<use xlink:href="#f1_29" transform="matrix(10.5,0,0,10.5,428.3,844.3)" />
<use xlink:href="#f1_24" transform="matrix(10.5,0,0,10.5,437.2,844.3)" />
<use xlink:href="#f1_2f" transform="matrix(10.5,0,0,10.5,440.8,844.3)" />
<use xlink:href="#f1_2e" transform="matrix(10.5,0,0,10.5,445.3,844.3)" />
<use xlink:href="#f1_h" transform="matrix(10.5,0,0,10.5,453.3,844.3)" />
<use xlink:href="#f1_l" transform="matrix(10.5,0,0,10.5,377.3,855.1)" />
</g>
<g fill="#0080FF" fill-opacity="0.5" >
<use xlink:href="#f0_1c" transform="matrix(35.8,0,0,35.8,171.5,1004.6)" />
<use xlink:href="#f0_21" transform="matrix(35.8,0,0,35.8,201.9,1004.6)" />
<use xlink:href="#f0_1x" transform="matrix(35.8,0,0,35.8,232.3,1004.6)" />
<use xlink:href="#f0_2e" transform="matrix(35.8,0,0,35.8,262.6,1004.6)" />
<use xlink:href="#f0_2a" transform="matrix(35.8,0,0,35.8,280.8,1004.6)" />
<use xlink:href="#f0_17" transform="matrix(35.8,0,0,35.8,311.2,1004.6)" />
<use xlink:href="#f0_2h" transform="matrix(35.8,0,0,35.8,353.7,1004.6)" />
<use xlink:href="#f0_25" transform="matrix(35.8,0,0,35.8,384.1,1004.6)" />
<use xlink:href="#f0_20" transform="matrix(35.8,0,0,35.8,396.2,1004.6)" />
<use xlink:href="#f0_21" transform="matrix(35.8,0,0,35.8,426.6,1004.6)" />
<use xlink:href="#f0_i" transform="matrix(35.8,0,0,35.8,457,1004.6)" />
<use xlink:href="#f0_25" transform="matrix(35.8,0,0,35.8,472.1,1004.6)" />
<use xlink:href="#f0_2a" transform="matrix(35.8,0,0,35.8,484.3,1004.6)" />
</g>
<defs>
<path d="M593,101c0,0,182,0,279,112c0,0,98,113,98,318c0,0,0,196,-98,308c0,0,-98,112,-277,112c0,0,-181,0,-279,-110c0,0,-99,-111,-99,-310c0,0,0,-198,100,-314c0,0,99,-116,276,-116Zm0,-115c0,0,-162,0,-279,65c0,0,-118,66,-180,190c0,0,-62,124,-62,290c0,0,0,252,138,394c0,0,138,142,385,142c0,0,160,0,278,-64c0,0,118,-64,180,-185c0,0,62,-122,62,-287c0,0,0,-165,-63,-289c0,0,-63,-124,-181,-190c0,0,-118,-66,-278,-66Z" 
id="f0_1f"
transform="scale(0.001,-0.001)" />

<path d="M106,0V635c0,0,0,141,-5,173H228c0,0,1,-4,2,-21c0,0,1,-16,2,-37c0,0,1,-22,2,-81h2c0,0,47,84,108,119c0,0,60,34,151,34c0,0,132,0,194,-66c0,0,61,-66,61,-218V0H615V512c0,0,0,80,-15,124c0,0,-16,44,-50,63c0,0,-35,20,-101,20c0,0,-97,0,-153,-67c0,0,-56,-66,-56,-184V0Z" 
id="f0_2a"
transform="scale(0.001,-0.001)" />

<path d="M103,0V1107H237V0Z" 
id="f0_28"
transform="scale(0.001,-0.001)" />

<path d="M102,0V808H236V0Zm0,979v128H236V979Z" 
id="f0_25"
transform="scale(0.001,-0.001)" />

<path d="M643,478c0,0,-11,128,-65,187c0,0,-54,59,-154,59c0,0,-98,0,-155,-66c0,0,-57,-65,-62,-180ZM431,-14c0,0,-179,0,-272,106c0,0,-94,107,-94,317c0,0,0,200,94,307c0,0,93,106,267,106c0,0,356,0,356,-429V375H206c0,0,0,-138,57,-213c0,0,58,-75,168,-75c0,0,87,0,140,35c0,0,53,35,71,88L760,177c0,0,-72,-191,-329,-191Z" 
id="f0_21"
transform="scale(0.001,-0.001)" />

<path d="M17,0L304,415L31,808H179L380,493L580,808H730L457,417L747,0H598L380,331L162,0Z" 
id="f0_2k"
transform="scale(0.001,-0.001)" />

<path d="M339,87c0,0,74,0,132,34c0,0,57,33,90,91c0,0,34,59,34,121v66L448,396c0,0,-95,-2,-144,-19c0,0,-49,-18,-75,-55c0,0,-26,-38,-26,-98c0,0,0,-65,35,-101c0,0,36,-36,101,-36ZM309,-14c0,0,-122,0,-183,64c0,0,-61,64,-61,176c0,0,0,125,82,192c0,0,83,67,266,72l182,3v44c0,0,0,98,-42,141c0,0,-42,43,-132,43c0,0,-90,0,-131,-31c0,0,-41,-31,-49,-98L101,604c0,0,34,218,323,218c0,0,153,0,229,-70c0,0,77,-69,77,-202V202c0,0,0,-59,16,-90c0,0,16,-30,60,-30c0,0,19,0,44,5V4C850,4,799,-7,746,-7c0,0,-75,0,-109,38c0,0,-33,40,-38,124h-4C595,155,543,62,475,24c0,0,-68,-38,-166,-38Z" 
id="f0_1x"
transform="scale(0.001,-0.001)" />

<path d="M106,0V635c0,0,0,141,-5,173H228c0,0,1,-4,2,-21c0,0,1,-16,2,-37c0,0,1,-22,2,-81h2c0,0,44,86,100,120c0,0,56,33,136,33c0,0,92,0,145,-36c0,0,54,-37,75,-117h2c0,0,42,82,101,117c0,0,59,36,143,36c0,0,123,0,178,-66c0,0,56,-67,56,-218V0H1039V512c0,0,0,117,-32,162c0,0,-32,45,-116,45c0,0,-88,0,-136,-66c0,0,-49,-65,-49,-185V0H573V512c0,0,0,117,-32,162c0,0,-32,45,-116,45c0,0,-86,0,-136,-66c0,0,-50,-66,-50,-185V0Z" 
id="f0_29"
transform="scale(0.001,-0.001)" />

<path d="M453,84c0,0,100,0,146,74c0,0,46,73,46,247c0,0,0,169,-46,241c0,0,-45,73,-145,73c0,0,-80,0,-125,-34c0,0,-45,-34,-68,-105c0,0,-24,-71,-24,-186c0,0,0,-159,51,-234c0,0,51,-76,165,-76ZM103,-316V643c0,0,0,124,-5,165H228c0,0,1,-3,3,-22c0,0,1,-18,3,-56c0,0,2,-38,2,-52h3c0,0,36,75,94,110c0,0,59,34,156,34c0,0,149,0,223,-100c0,0,74,-100,74,-314c0,0,0,-422,-297,-422c0,0,-187,0,-251,140h-4c0,0,3,-6,3,-126V-316Z" 
id="f0_2c"
transform="scale(0.001,-0.001)" />

<path d="M420,84c0,0,121,0,173,78c0,0,52,77,52,243c0,0,0,167,-50,243c0,0,-50,76,-167,76c0,0,-118,0,-170,-78c0,0,-53,-77,-53,-241c0,0,0,-160,52,-241c0,0,52,-80,163,-80Zm1,-98c0,0,-176,0,-267,107c0,0,-90,108,-90,312c0,0,0,417,362,417c0,0,185,0,272,-102c0,0,88,-101,88,-315c0,0,0,-212,-94,-316C692,89,599,-14,421,-14Z" 
id="f0_2b"
transform="scale(0.001,-0.001)" />

<path d="M278,-11c0,0,-162,0,-162,182V710H23v98h99l39,181h90V808H400V710H251V200c0,0,0,-58,19,-82c0,0,19,-23,66,-23c0,0,27,0,77,10V6c0,0,-66,-17,-135,-17Z" 
id="f0_2g"
transform="scale(0.001,-0.001)" />

<path d="M39,0V0c0,0,0,170,84,277c0,0,85,108,317,236c0,0,113,62,154,115c0,0,41,52,41,134c0,0,0,86,-62,141c0,0,-61,54,-156,54c0,0,-101,0,-158,-68c0,0,-57,-68,-60,-194H67c0,0,-2,178,95,279c0,0,98,101,273,101c0,0,149,0,245,-89c0,0,94,-88,94,-228c0,0,0,-118,-60,-195c0,0,-61,-76,-229,-169C485,394,303,294,237,212c0,0,-28,-36,-46,-81H774V0Z" 
id="f1_l"
transform="scale(0.001,-0.001)" />

<path d="M0,-123V1415H525v-72H72V-123Z" 
id="f2_4r"
transform="scale(0.001,-0.001)" />

<path d="M478,-123V1343H26v72H550V-123Z" 
id="f2_57"
transform="scale(0.001,-0.001)" />

<path d="M355,0V355H0v72H355V784h72V427H782V355H427V0Z" 
id="f2_f"
transform="scale(0.001,-0.001)" />

<path d="M0,214v74H784V214ZM0,494v72H784V494Z" 
id="f2_x"
transform="scale(0.001,-0.001)" />

<path d="M0,-123V1415H72V-51H525v-72Z" 
id="f2_4t"
transform="scale(0.001,-0.001)" />

<path d="M26,-123v72H478V1415h72V-123Z" 
id="f2_59"
transform="scale(0.001,-0.001)" />

<path d="M0,-26V27H626V-26Z" 
id="f3_23"
transform="scale(0.001,-0.001)" />

<path d="M413,-106l30,80H0V27H443l-30,80L626,0L413,-106Z" 
id="f3_20"
transform="scale(0.001,-0.001)" />

<path d="M354,90c0,0,107,0,192,57c0,0,60,41,87,95c0,0,5,12,11,33c0,0,6,20,11,44l18,88c0,0,-62,-26,-132,-37L414,352c0,0,-84,-11,-131,-56c0,0,-47,-45,-47,-113c0,0,0,-44,31,-69c0,0,31,-24,87,-24ZM306,-20c0,0,-99,0,-156,47c0,0,-57,49,-57,134c0,0,1,117,81,198c0,0,80,81,211,98l164,20l70,10c0,0,35,6,59,30c0,0,23,24,31,66l1,2c0,0,13,64,-25,94c0,0,-39,31,-132,31c0,0,-83,0,-137,-37c0,0,-54,-37,-84,-114H210c0,0,46,137,138,201c0,0,92,63,245,63c0,0,149,0,211,-59c0,0,45,-44,44,-116c0,0,1,-30,-6,-63L749,136c0,0,-4,-19,6,-32c0,0,10,-12,30,-12c0,0,6,0,19,1c0,0,12,2,25,5L809,1c0,0,-19,-6,-43,-11c0,0,-22,-5,-36,-5c0,0,-73,0,-100,43c0,0,-16,27,-17,75C612,102,594,85,573,69c0,0,-120,-89,-267,-89Z" 
id="f4_1w"
transform="scale(0.001,-0.001)" />

<path d="M456,95c0,0,130,0,213,121c0,0,82,120,82,310c0,0,0,85,-44,131c0,0,-44,46,-125,46c0,0,-98,0,-174,-90c0,0,-76,-90,-108,-245c0,0,-26,-126,16,-199c0,0,42,-74,140,-74ZM436,-20c0,0,-132,0,-195,108l-5,7L217,0H89L316,1097H450L365,683l10,11c0,0,120,129,262,129c0,0,121,0,190,-77c0,0,69,-77,69,-211c0,0,0,-234,-134,-395C762,140,629,-20,436,-20Z" 
id="f4_1x"
transform="scale(0.001,-0.001)" />

<path d="M398,-20c0,0,-133,0,-209,72c0,0,-76,74,-76,202v3c0,0,0,27,4,60c0,0,4,33,10,63c0,0,43,208,168,326c0,0,126,117,306,117c0,0,131,0,192,-75c0,0,49,-61,50,-168l-3,-52H710c0,0,4,87,-33,131c0,0,-37,45,-113,45c0,0,-110,0,-184,-81c0,0,-75,-82,-107,-238c0,0,-6,-28,-9,-56c0,0,-3,-28,-3,-50c0,0,0,-88,43,-136c0,0,43,-48,121,-48c0,0,76,0,137,49c0,0,61,48,92,136H788C788,280,737,138,633,58c0,0,-103,-78,-235,-78Z" 
id="f4_1y"
transform="scale(0.001,-0.001)" />

<path d="M417,-28c0,0,-161,0,-259,79c0,0,-98,81,-109,223H189c0,0,11,-90,72,-139c0,0,61,-49,162,-49c0,0,96,0,158,68c0,0,61,68,61,175c0,0,0,112,-64,178c0,0,-64,66,-173,66c0,0,-59,0,-115,-28c0,0,-55,-29,-84,-73L93,480l77,573H727V922H271L225,629l4,3c0,0,89,60,188,60c0,0,169,0,269,-94c0,0,99,-93,99,-253c0,0,0,-165,-103,-269C682,76,579,-28,417,-28Z" 
id="f1_o"
transform="scale(0.001,-0.001)" />

<path d="M212,0c0,0,51,270,162,500c0,0,109,222,281,422H57v131H799V934C799,934,623,726,515,498C515,498,408,269,362,0Z" 
id="f1_q"
transform="scale(0.001,-0.001)" />

<path d="M133,0V162H292V0Z" 
id="f1_h"
transform="scale(0.001,-0.001)" />

<path d="M131,0V1097H891V966H280V631H814V500H280V0Z" 
id="f1_15"
transform="scale(0.001,-0.001)" />

<path d="M424,94c0,0,107,0,169,83c0,0,63,83,63,223c0,0,0,140,-63,224c0,0,-62,83,-169,83c0,0,-106,0,-168,-83c0,0,-62,-84,-62,-224c0,0,0,-140,62,-223c0,0,62,-83,168,-83Zm0,-114c0,0,-165,0,-268,115C156,95,54,211,54,400c0,0,0,189,102,306c0,0,103,116,268,116c0,0,168,0,270,-116c0,0,102,-117,102,-306c0,0,0,-189,-102,-305C694,95,592,-20,424,-20Z" 
id="f1_2a"
transform="scale(0.001,-0.001)" />

<path d="M118,0V799H246V662c0,0,17,32,36,58c0,0,76,102,187,102c0,0,19,0,38,-6V679l-27,1c0,0,-109,0,-168,-66c0,0,-60,-65,-60,-186V0Z" 
id="f1_2d"
transform="scale(0.001,-0.001)" />

<path d="M335,90c0,0,106,0,179,57c0,0,50,41,67,91c0,0,3,10,4,31c0,0,3,21,3,47v87c0,0,-38,-18,-83,-25L381,360c0,0,-97,-13,-142,-45c0,0,-44,-31,-44,-86c0,0,0,-67,36,-103c0,0,37,-36,104,-36ZM309,-20c0,0,-117,0,-186,61c0,0,-68,63,-68,169c0,0,0,108,64,171c0,0,65,64,189,79l183,23c0,0,22,3,42,8c0,0,26,7,40,27c0,0,15,20,15,51v6c0,0,0,64,-49,101c0,0,-48,36,-135,36c0,0,-83,0,-130,-38c0,0,-46,-39,-56,-115H94c0,0,10,131,92,197c0,0,83,66,238,66c0,0,145,0,222,-63c0,0,76,-63,76,-184V137c0,0,0,-21,12,-33c0,0,12,-12,33,-12c0,0,6,0,18,1c0,0,11,2,25,5V1c0,0,-20,-7,-41,-11c0,0,-22,-5,-37,-5c0,0,-76,0,-110,41c0,0,-22,28,-32,79c0,0,-15,-19,-34,-36c0,0,-101,-89,-247,-89Z" 
id="f1_1w"
transform="scale(0.001,-0.001)" />

<path d="M99,0V799H226V681l30,39c0,0,87,102,219,102c0,0,132,0,203,-71c0,0,72,-72,72,-204V0H616V502c0,0,0,105,-41,151c0,0,-40,47,-132,47c0,0,-97,0,-154,-73c0,0,-56,-74,-56,-199V0Z" 
id="f1_29"
transform="scale(0.001,-0.001)" />

<path d="M152,-323c-8,0,-38,1,-63,8v125c0,0,30,-11,77,-12c0,0,45,0,76,37c0,0,30,38,69,140l2,12v1L17,799H170L383,139L600,799H747L443,-25c0,0,-70,-184,-125,-241c0,0,-55,-57,-164,-57c0,0,-1,0,-2,0Z" 
id="f1_2k"
transform="scale(0.001,-0.001)" />

<path d="M292,-9c0,0,-88,0,-124,38c0,0,-36,39,-36,134V689H22V799H132v224H266V799H392V689H266V163c0,0,0,-27,21,-43c0,0,21,-15,57,-15h48V1C392,1,324,-9,292,-9Z" 
id="f1_2f"
transform="scale(0.001,-0.001)" />

<path d="M99,0V1097H233V690l23,30c0,0,87,102,219,102c0,0,132,0,203,-71c0,0,72,-72,72,-204V0H616V514c0,0,0,99,-38,142c0,0,-38,44,-124,44c0,0,-102,0,-162,-73c0,0,-59,-74,-59,-199V0Z" 
id="f1_23"
transform="scale(0.001,-0.001)" />

<path d="M649,461c0,0,-6,111,-55,172c0,0,-55,69,-160,69c0,0,-106,0,-170,-79c0,0,-50,-62,-60,-162ZM425,-20c0,0,-169,0,-266,106c0,0,-97,107,-97,297c0,0,0,201,102,320c0,0,103,119,276,119c0,0,157,0,253,-116c0,0,96,-117,96,-306l-1,-48H204c0,0,8,-119,54,-182c0,0,57,-76,180,-76c0,0,77,0,134,43c0,0,58,43,70,110H775C775,247,746,116,656,47c0,0,-90,-67,-231,-67Z" 
id="f1_20"
transform="scale(0.001,-0.001)" />

<path d="M310,0L12,799H168L383,145L604,799H752L454,0Z" 
id="f1_2h"
transform="scale(0.001,-0.001)" />

<path d="M394,-20c0,0,-159,0,-253,113c0,0,-95,114,-95,307c0,0,0,193,98,308c0,0,98,114,264,114c0,0,144,0,230,-78c0,0,85,-79,91,-217H600c0,0,-8,86,-59,133c0,0,-52,47,-138,47c0,0,-101,0,-159,-82c0,0,-58,-82,-58,-225c0,0,0,-152,54,-229c0,0,53,-77,159,-77c0,0,79,0,132,50c0,0,52,51,69,143H729C729,287,709,137,623,58c0,0,-86,-78,-229,-78Z" 
id="f1_1y"
transform="scale(0.001,-0.001)" />

<path d="M393,-20c0,0,-169,0,-252,65c0,0,-83,67,-92,210H178c0,0,10,-85,61,-123c0,0,50,-38,154,-38c0,0,90,0,136,34c0,0,47,35,47,100c0,0,0,42,-31,64c0,0,-30,21,-123,43L283,368c0,0,-112,27,-160,75c0,0,-48,48,-48,135c0,0,0,112,80,178c0,0,81,66,218,66c0,0,140,0,222,-68c0,0,82,-67,88,-187H557c0,0,-6,67,-55,103c0,0,-48,37,-129,37c0,0,-84,0,-127,-29c0,0,-44,-29,-44,-85c0,0,0,-43,31,-65c0,0,30,-21,121,-43L493,452c0,0,117,-28,167,-78c0,0,49,-49,49,-138c0,0,0,-119,-86,-188c0,0,-85,-68,-230,-68Z" 
id="f1_2e"
transform="scale(0.001,-0.001)" />

<path d="M133,-224v71c0,0,47,8,65,52c0,0,14,33,17,101H133V163H292V27c0,0,0,-114,-36,-172c0,0,-37,-58,-123,-79Z" 
id="f1_f"
transform="scale(0.001,-0.001)" />

<path d="M411,93c0,0,98,0,158,73c0,0,60,74,60,195c0,0,0,163,-57,252c0,0,-56,88,-161,88c0,0,-113,0,-165,-72c0,0,-52,-72,-52,-229c0,0,0,-147,56,-227c0,0,56,-80,161,-80ZM404,-20c0,0,-161,0,-255,118c0,0,-95,120,-95,324c0,0,0,179,92,290c0,0,91,110,239,110c0,0,147,0,233,-124l11,-15v414H763V0H638V109L621,84C621,84,538,-20,404,-20Z" 
id="f1_1z"
transform="scale(0.001,-0.001)" />

<path d="M436,95c0,0,105,0,160,79c0,0,54,80,54,232c0,0,0,150,-52,222c0,0,-52,72,-161,72c0,0,-112,0,-163,-81c0,0,-51,-82,-51,-258c0,0,0,-127,55,-197c0,0,55,-69,158,-69ZM89,-315V799H216V685l7,10c0,0,86,127,228,127c0,0,156,0,248,-108c0,0,91,-107,91,-291c0,0,0,-208,-92,-326C698,97,606,-20,442,-20c0,0,-135,0,-215,102l-4,6V-315Z" 
id="f1_2b"
transform="scale(0.001,-0.001)" />

<path d="M0,356v74H784V356Z" 
id="f2_h"
transform="scale(0.001,-0.001)" />

<path d="M103,0V1097H237V0Z" 
id="f1_27"
transform="scale(0.001,-0.001)" />

<path d="M693,499L573,830L462,499ZM-39,0c0,0,33,42,61,97c0,0,30,55,71,148l314,761c0,0,22,51,38,98c0,0,15,47,17,63H721c0,0,2,-16,18,-63c0,0,15,-47,37,-98L1091,245c0,0,41,-95,70,-150c0,0,30,-55,60,-95H849c0,0,3,25,-3,55c0,0,-6,30,-24,80L765,295H393L340,135c0,0,-17,-50,-22,-80c0,0,-5,-30,-2,-55Z" 
id="f5_10"
transform="scale(0.001,-0.001)" />

<path d="M108,0c0,0,22,54,31,110c0,0,10,55,10,135V985L-5,1167H418c0,0,21,-44,54,-99c0,0,34,-55,96,-146L857,495V922c0,0,0,81,-9,136c0,0,-9,55,-32,109h378c0,0,-23,-54,-32,-109c0,0,-9,-55,-9,-136V351c0,0,0,-76,11,-178c0,0,11,-101,27,-173H845c0,0,-7,25,-28,67c0,0,-21,42,-45,78L444,628V245c0,0,0,-80,9,-135c0,0,10,-56,32,-110Z" 
id="f5_1d"
transform="scale(0.001,-0.001)" />

<path d="M367,-20c0,0,-85,0,-142,12C225,-8,167,2,83,35V332c0,0,41,-55,107,-90c0,0,66,-35,130,-35c0,0,51,0,84,31c0,0,32,31,32,81c0,0,0,49,-23,86c0,0,-22,37,-82,83c0,0,-126,98,-184,181c0,0,-57,82,-57,165c0,0,0,155,106,253c0,0,106,98,272,98c0,0,62,0,133,-13c0,0,71,-13,120,-33V867c0,0,-59,49,-104,70c0,0,-46,20,-94,20c0,0,-47,0,-76,-24c0,0,-29,-25,-29,-63c0,0,0,-41,20,-73c0,0,21,-31,75,-73c0,0,130,-101,189,-189c0,0,59,-87,59,-180c0,0,0,-165,-110,-270C651,85,541,-20,367,-20Z" 
id="f5_1i"
transform="scale(0.001,-0.001)" />

<path d="M324,0L78,922c0,0,-23,85,-44,140c0,0,-22,55,-50,105H376c0,0,-7,-56,-7,-99c0,0,1,-42,11,-89L479,513L610,998c0,0,11,42,21,91c0,0,10,49,13,78H861c0,0,4,-36,12,-85c0,0,9,-50,18,-84L1021,492l115,540c0,0,8,33,6,63c0,0,-1,31,-12,72h378c0,0,-30,-50,-52,-105c0,0,-21,-56,-45,-140L1166,0H925L741,597L565,0Z" 
id="f5_1m"
transform="scale(0.001,-0.001)" />

<path d="M102,0c0,0,22,54,31,110c0,0,10,55,10,135V922c0,0,0,81,-10,136c0,0,-9,55,-31,109H823L766,1041L709,913c0,0,-42,20,-137,36c0,0,-62,9,-121,13V697H798L728,569L657,441c0,0,-45,21,-131,36c0,0,-38,8,-75,11V206c0,0,117,6,201,22c0,0,126,24,239,84L827,156L762,0Z" 
id="f5_14"
transform="scale(0.001,-0.001)" />

<path d="M452,645c0,0,85,0,139,47c0,0,54,47,54,121c0,0,0,66,-51,107c0,0,-51,42,-132,42H442V645ZM93,0c0,0,22,54,32,110c0,0,9,55,9,135V922c0,0,0,81,-9,136c0,0,-10,55,-32,109H498c0,0,215,0,332,-90c0,0,117,-90,117,-256c0,0,0,-159,-129,-253c0,0,-46,-34,-103,-54L902,246c0,0,57,-82,107,-137c0,0,50,-55,115,-109H803c0,0,-30,0,-104,83c0,0,-73,83,-149,202L442,461V246c0,0,0,-81,9,-136c0,0,10,-56,32,-110Z" 
id="f5_1h"
transform="scale(0.001,-0.001)" />

<path d="M406,0V763H155V870h2c16,0,114,2,178,48c0,0,70,51,104,157H549V0Z" 
id="f1_k"
transform="scale(0.001,-0.001)" />

<path d="M424,-28c0,0,-180,0,-272,86c0,0,-92,87,-100,266H192c0,0,12,-126,66,-180c0,0,55,-54,170,-54c0,0,100,0,163,57c0,0,64,57,64,147c0,0,0,94,-61,149c0,0,-52,48,-135,54c0,0,-38,2,-72,2c0,0,-34,0,-45,-3V613c0,0,17,-3,51,-3c0,0,35,0,68,4c0,0,66,8,106,43c0,0,55,45,55,125c0,0,0,77,-58,125c0,0,-58,48,-148,48c0,0,-96,0,-147,-58c0,0,-51,-59,-56,-175H82c0,0,0,168,89,260c0,0,88,93,250,93c0,0,153,0,247,-77c0,0,94,-76,94,-202c0,0,0,-124,-95,-201c0,0,-18,-15,-39,-27c0,0,39,-17,69,-41c0,0,101,-79,101,-214c0,0,0,-151,-105,-246c0,0,-104,-95,-269,-95Z" 
id="f1_m"
transform="scale(0.001,-0.001)" />

<path d="M0,0V74H784V0ZM357,164V519H0v73H357V948h72V592H784V519H429V164Z" 
id="f2_37"
transform="scale(0.001,-0.001)" />

<path d="M17,0L389,412L201,800H376L500,518L742,800H904L554,410L750,0H580L448,303L187,0Z" 
id="f4_2j"
transform="scale(0.001,-0.001)" />

<path d="M99,-328c0,0,-46,0,-76,13l25,123c0,0,29,-14,81,-14c0,0,47,0,76,31c0,0,28,31,106,162L185,800H339L415,141L769,800H918L456,0C456,0,329,-216,269,-272c0,0,-61,-56,-170,-56Z" 
id="f4_2k"
transform="scale(0.001,-0.001)" />

<path d="M104,0V799H238V0Zm-2,946v152H239V946Z" 
id="f1_24"
transform="scale(0.001,-0.001)" />

<path d="M103,0V1097H237V465L574,799H745L441,503L765,0H590L342,406L237,303V0Z" 
id="f1_26"
transform="scale(0.001,-0.001)" />

<path d="M511,373V863L169,383l-7,-10ZM511,0V258H38V383l496,691H646V373H799V258H646V0Z" 
id="f1_n"
transform="scale(0.001,-0.001)" />

<path d="M432,92c0,0,96,0,156,66c0,0,61,65,61,169c0,0,0,103,-61,169c0,0,-60,66,-156,66c0,0,-95,0,-156,-66c0,0,-61,-66,-61,-169c0,0,0,-104,61,-169c0,0,61,-66,156,-66ZM425,-28c0,0,-176,0,-271,135c0,0,-95,136,-95,388c0,0,0,278,103,429c0,0,103,151,293,151c0,0,142,0,226,-77c0,0,84,-76,90,-211H638c0,0,-8,80,-56,123c0,0,-47,43,-127,43c0,0,-125,0,-192,-119c0,0,-58,-102,-64,-278c0,0,100,127,255,127c0,0,152,0,245,-98c0,0,93,-98,93,-258c0,0,0,-161,-101,-259c0,0,-101,-96,-266,-96Z" 
id="f1_p"
transform="scale(0.001,-0.001)" />

<path d="M406,93c0,0,97,0,156,73c0,0,59,74,59,195c0,0,0,163,-56,252c0,0,-55,88,-158,88c0,0,-111,0,-162,-72c0,0,-51,-73,-51,-229c0,0,0,-147,55,-227c0,0,55,-80,157,-80ZM621,-315V93l-7,-9C614,84,532,-20,400,-20c0,0,-159,0,-253,118c0,0,-93,119,-93,323c0,0,0,180,90,291c0,0,91,110,237,110c0,0,146,0,231,-124c0,0,10,-14,17,-29V799H755V-315Z" 
id="f1_2c"
transform="scale(0.001,-0.001)" />

<path d="M375,-20c0,0,-136,0,-203,66c0,0,-68,68,-68,204V799H238V284c0,0,0,-101,38,-146c0,0,39,-44,127,-44c0,0,97,0,153,75c0,0,57,75,57,203V799H747V0H620V122c0,0,-14,-22,-30,-41C590,81,504,-20,375,-20Z" 
id="f1_2g"
transform="scale(0.001,-0.001)" />

<path d="M140,-21c0,0,-26,0,-44,17C96,-4,79,13,79,40c0,0,0,19,6,33c0,0,8,20,34,55c0,0,46,60,64,126c0,0,32,114,41,321H190c0,0,-55,0,-81,-18c0,0,-44,-26,-80,-89H0c0,0,42,129,98,178c0,0,43,37,120,37H743V575H562c0,0,-27,-171,-27,-327c0,0,0,-77,27,-110c0,0,27,-33,67,-33c0,0,33,0,56,22c0,0,24,22,31,65h27C743,192,730,74,686,26c0,0,-44,-47,-98,-47c0,0,-58,0,-97,51c0,0,-39,53,-39,198c0,0,0,91,28,347H286c0,0,-23,-390,-56,-494c0,0,-33,-102,-90,-102Z" 
id="f2_2c"
transform="scale(0.001,-0.001)" />

<path d="M17,774l191,256h95L493,774H440L255,932L69,774Z" 
id="f3_4"
transform="scale(0.001,-0.001)" />

<path d="M102,0L267,800H402L237,0ZM300,946l31,151H467L436,946Z" 
id="f4_24"
transform="scale(0.001,-0.001)" />

<path d="M-33,-321c0,0,-31,0,-57,4l25,117h26c0,0,60,0,83,18c0,0,22,18,34,75L265,800H400L213,-107c0,0,-24,-117,-81,-166c0,0,-55,-48,-165,-48ZM298,946l32,151H465L434,946Z" 
id="f4_25"
transform="scale(0.001,-0.001)" />

<path d="M102,0L329,1097H464L333,467L745,800H921L546,501L769,0H595L429,409L300,306L237,0Z" 
id="f4_26"
transform="scale(0.001,-0.001)" />

<path d="M365,-315c0,0,-136,187,-199,359c0,0,-62,172,-62,359c0,0,0,186,62,358c0,0,63,172,199,360h92c0,0,-110,-192,-160,-365c0,0,-51,-172,-51,-353c0,0,0,-183,51,-355c0,0,50,-172,160,-363Z" 
id="f1_b"
transform="scale(0.001,-0.001)" />

<path d="M52,-315c0,0,109,192,160,363c0,0,50,173,50,354c0,0,0,183,-50,355c0,0,-51,173,-160,364h92c0,0,135,-188,198,-360c0,0,63,-172,63,-359c0,0,0,-187,-63,-359c0,0,-63,-171,-198,-358Z" 
id="f1_c"
transform="scale(0.001,-0.001)" />

<path d="M424,92c0,0,98,0,161,58c0,0,62,58,62,149c0,0,0,92,-62,151c0,0,-63,58,-161,58c0,0,-98,0,-160,-58c0,0,-63,-59,-63,-151c0,0,0,-91,63,-149c0,0,62,-58,160,-58Zm0,533c0,0,82,0,134,46c0,0,52,45,52,118c0,0,0,72,-52,118c0,0,-52,46,-134,46c0,0,-82,0,-134,-46c0,0,-52,-46,-52,-118c0,0,0,-73,52,-119c0,0,52,-45,134,-45Zm0,-653c0,0,-165,0,-265,90C159,62,59,154,59,305c0,0,0,134,100,216c0,0,35,28,78,47c0,0,-27,15,-52,33c0,0,-90,70,-90,185c0,0,0,130,90,209c0,0,91,80,239,80c0,0,148,0,238,-80c0,0,91,-79,91,-209c0,0,0,-115,-91,-185c0,0,-24,-19,-52,-32c0,0,44,-20,79,-49c0,0,101,-81,101,-215c0,0,0,-151,-101,-243c0,0,-100,-90,-265,-90Z" 
id="f1_r"
transform="scale(0.001,-0.001)" />

<path d="M0,368V478H849V368Z" 
id="f1_99"
transform="scale(0.001,-0.001)" />

<path d="M62,-123V268c0,0,0,230,56,452c0,0,47,190,134,334c0,0,87,144,204,242c0,0,85,73,194,119l18,-16c0,0,-211,-145,-335,-339c0,0,-98,-156,-149,-374c0,0,-50,-218,-50,-403V-123Z" 
id="f2_4o"
transform="scale(0.001,-0.001)" />

<path d="M617,-123V283c0,0,0,236,-63,459c0,0,-63,223,-188,392c0,0,-108,146,-282,265l17,16c0,0,180,-76,320,-248c0,0,139,-172,204,-417c0,0,64,-245,64,-482V-123Z" 
id="f2_54"
transform="scale(0.001,-0.001)" />

<path d="M650,-123c0,0,-180,75,-319,246c0,0,-140,172,-205,418c0,0,-64,245,-64,481v393h72V1007c0,0,0,-236,63,-459c0,0,63,-223,189,-391c0,0,108,-145,282,-265l-18,-15Z" 
id="f2_4q"
transform="scale(0.001,-0.001)" />

<path d="M101,-123l-17,15c0,0,210,144,334,339c0,0,99,156,149,373c0,0,50,218,50,403v408h72V1022c0,0,0,-230,-56,-451c0,0,-48,-191,-134,-335C499,236,412,92,295,-5c0,0,-84,-73,-194,-118Z" 
id="f2_56"
transform="scale(0.001,-0.001)" />

<path d="M419,483c0,0,93,0,152,66c0,0,59,66,59,169c0,0,0,103,-59,169c0,0,-59,65,-152,65c0,0,-94,0,-153,-65c0,0,-59,-66,-59,-169c0,0,0,-103,59,-169c0,0,59,-66,153,-66ZM397,-28c0,0,-143,0,-227,75c0,0,-85,77,-91,211H209c0,0,8,-83,57,-128c0,0,49,-45,131,-45c0,0,121,0,186,135c0,0,48,101,62,265C645,485,545,362,397,362c0,0,-150,0,-241,98c0,0,-91,98,-91,258c0,0,0,160,99,258c0,0,99,98,262,98c0,0,173,0,266,-123c0,0,94,-123,94,-349c0,0,0,-303,-101,-467C685,135,583,-28,397,-28Z" 
id="f1_s"
transform="scale(0.001,-0.001)" />

<path d="M593,-126c-12,0,-22,9,-22,9c-9,9,-9,21,-9,21V351H116c-12,0,-21,9,-21,9c-9,9,-9,22,-9,22c0,12,9,21,9,21c9,10,21,10,21,10H562V860c0,12,9,22,9,22c10,9,22,9,22,9c12,0,22,-9,22,-9c9,-10,9,-22,9,-22V413h446c12,0,21,-10,21,-10c9,-9,9,-21,9,-21c0,-12,-9,-22,-9,-22c-9,-9,-21,-9,-21,-9H624V-96c0,-12,-9,-21,-9,-21c-10,-9,-22,-9,-22,-9Z" 
id="f6_d"
transform="scale(0.001,-0.001)" />

<path d="M202,774l-22,31l284,222L750,805L729,774L464,947L202,774Z" 
id="f7_4"
transform="scale(0.001,-0.001)" />

<path d="M424,92c0,0,114,0,170,107c0,0,57,108,56,323c0,0,1,216,-56,324c0,0,-56,107,-170,107c0,0,-112,0,-168,-107c0,0,-56,-108,-57,-324c0,0,1,-215,57,-323c0,0,56,-107,168,-107Zm0,-120c0,0,-176,0,-271,142c0,0,-96,143,-96,408c0,0,0,265,96,409c0,0,95,144,271,144c0,0,178,0,273,-144c0,0,96,-144,96,-409c0,0,0,-265,-96,-408c0,0,-95,-142,-273,-142Z" 
id="f1_j"
transform="scale(0.001,-0.001)" />

<path d="M125,0V1051H268V115H799V0Z" 
id="f0_1c"
transform="scale(0.001,-0.001)" />

<path d="M106,0V620c0,0,0,85,-5,188H228c0,0,6,-138,6,-165h3c0,0,32,103,74,141c0,0,42,38,118,38c0,0,27,0,54,-7V692c0,0,-26,7,-71,7c0,0,-84,0,-128,-72c0,0,-44,-72,-44,-206V0Z" 
id="f0_2e"
transform="scale(0.001,-0.001)" />

<path d="M606,-14c0,0,-164,0,-284,65c0,0,-119,66,-182,189c0,0,-63,123,-63,291c0,0,0,255,137,396c0,0,137,140,386,140c0,0,174,0,283,-59c0,0,109,-59,168,-189L915,779c0,0,-44,90,-123,131c0,0,-79,41,-196,41c0,0,-182,0,-278,-110c0,0,-96,-110,-96,-310c0,0,0,-200,102,-315c0,0,102,-115,282,-115c0,0,103,0,193,31c0,0,89,31,144,85V407H629V526h445V164c0,0,-83,-85,-205,-132c0,0,-121,-46,-263,-46Z" 
id="f0_17"
transform="scale(0.001,-0.001)" />

<path d="M355,-14c0,0,-133,0,-194,65c0,0,-62,66,-62,219V808H234V296c0,0,0,-80,16,-124c0,0,16,-44,50,-64c0,0,34,-19,101,-19c0,0,97,0,153,66c0,0,55,67,55,185V808H744V172c0,0,0,-141,4,-172H621c0,0,0,4,-1,20c0,0,-1,17,-2,38c0,0,-1,21,-3,80h-2C613,138,567,55,506,20c0,0,-61,-34,-151,-34Z" 
id="f0_2h"
transform="scale(0.001,-0.001)" />

<path d="M395,89c0,0,115,0,166,79c0,0,51,79,51,246c0,0,0,160,-51,235c0,0,-51,75,-164,75c0,0,-102,0,-147,-75c0,0,-45,-75,-45,-244c0,0,0,-170,45,-243c0,0,45,-73,145,-73ZM361,-14c0,0,-153,0,-225,102c0,0,-72,103,-72,312c0,0,0,422,297,422c0,0,92,0,153,-33c0,0,61,-34,98,-107h2l-2,90v335H747V166c0,0,0,-126,4,-166H623c0,0,-2,12,-5,55c0,0,-3,44,-3,75h-3c0,0,-37,-78,-98,-111c0,0,-62,-33,-153,-33Z" 
id="f0_20"
transform="scale(0.001,-0.001)" />

<path d="M140,0V163H285V0Z" 
id="f0_i"
transform="scale(0.001,-0.001)" />


</defs>
</svg>