<?xml version="1.0" encoding="UTF-8" standalone="no"?>
<!DOCTYPE svg PUBLIC "-//W3C//DTD SVG 1.1//EN"
"http://www.w3.org/Graphics/SVG/1.1/DTD/svg11.dtd">
<svg viewBox="0 0 811 1133" version="1.1" xmlns="http://www.w3.org/2000/svg" xmlns:xlink="http://www.w3.org/1999/xlink">
<defs>
<style type="text/css"><![CDATA[
.g0_60{
fill: none;
stroke: #000000;
stroke-width: 0.7638889;
stroke-linecap: round;
stroke-linejoin: miter;
}
.g1_60{
fill: none;
stroke: #000000;
stroke-width: 0.7660889;
stroke-linecap: round;
stroke-linejoin: miter;
}
.g2_60{
fill: none;
stroke: #000000;
stroke-width: 0.15277778;
stroke-linecap: round;
stroke-linejoin: miter;
}
.g3_60{
}
.g4_60{
fill: none;
stroke: #000000;
stroke-width: 0.7668222;
stroke-linecap: round;
stroke-linejoin: miter;
}
.g5_60{
fill: none;
stroke: #000000;
stroke-width: 0.7619333;
stroke-linecap: round;
stroke-linejoin: miter;
}
.g6_60{
fill: none;
stroke: #000000;
stroke-width: 0.7663334;
stroke-linecap: round;
stroke-linejoin: miter;
}
.g7_60{
fill: none;
stroke: #000000;
stroke-width: 0.7612;
stroke-linecap: round;
stroke-linejoin: miter;
}
]]></style>
</defs>
<g fill="#D4D4D4" fill-opacity="0.56" >
<use xlink:href="#f0_1f" transform="matrix(50.9,-50.9,50.9,50.9,199.9,924.1)" />
<use xlink:href="#f0_2a" transform="matrix(50.9,-50.9,50.9,50.9,260.4,863.6)" />
<use xlink:href="#f0_28" transform="matrix(50.9,-50.9,50.9,50.9,303.7,820.3)" />
<use xlink:href="#f0_25" transform="matrix(50.9,-50.9,50.9,50.9,320.9,803.1)" />
<use xlink:href="#f0_2a" transform="matrix(50.9,-50.9,50.9,50.9,338.2,785.8)" />
<use xlink:href="#f0_21" transform="matrix(50.9,-50.9,50.9,50.9,381.4,742.5)" />
<use xlink:href="#f0_2k" transform="matrix(50.9,-50.9,50.9,50.9,424.7,699.3)" />
<use xlink:href="#f0_1x" transform="matrix(50.9,-50.9,50.9,50.9,463.6,660.4)" />
<use xlink:href="#f0_29" transform="matrix(50.9,-50.9,50.9,50.9,506.8,617.2)" />
<use xlink:href="#f0_2c" transform="matrix(50.9,-50.9,50.9,50.9,571.6,552.4)" />
<use xlink:href="#f0_2b" transform="matrix(50.9,-50.9,50.9,50.9,614.9,509.1)" />
<use xlink:href="#f0_25" transform="matrix(50.9,-50.9,50.9,50.9,658.1,465.9)" />
<use xlink:href="#f0_2a" transform="matrix(50.9,-50.9,50.9,50.9,675.4,448.6)" />
<use xlink:href="#f0_2g" transform="matrix(50.9,-50.9,50.9,50.9,718.6,405.4)" />
</g>
<g fill="#000000" >
<use xlink:href="#f1_b" transform="matrix(10.4,0,0,10.4,184.2,80.9)" />
<use xlink:href="#f1_24" transform="matrix(10.4,0,0,10.4,189.5,80.9)" />
<use xlink:href="#f1_2h" transform="matrix(10.4,0,0,10.4,193.1,80.9)" />
<use xlink:href="#f1_c" transform="matrix(10.4,0,0,10.4,201.1,80.9)" />
<use xlink:href="#f2_c" transform="matrix(10.4,0,0,11.2,242.1,94.6)" />
<use xlink:href="#f2_d" transform="matrix(10.4,0,0,11.2,288.3,94.6)" />
<use xlink:href="#f2_c" transform="matrix(10.4,0,0,11.2,297,94.6)" />
<use xlink:href="#f2_d" transform="matrix(10.4,0,0,11.2,346.5,94.6)" />
<use xlink:href="#f2_c" transform="matrix(10.4,0,0,11.4,354.9,94.7)" />
<use xlink:href="#f2_d" transform="matrix(10.4,0,0,11.4,404.9,94.7)" />
</g>
<path d="M241.7,76.9H410.5" class="g0_60" />
<g fill="#000000" >
<use xlink:href="#f1_k" transform="matrix(10.5,0,0,10.5,338.6,70.8)" />
<use xlink:href="#f1_h" transform="matrix(10.5,0,0,10.5,433.4,81.2)" />
<use xlink:href="#f1_k" transform="matrix(10.5,0,0,10.5,280.3,96.8)" />
<use xlink:href="#f1_l" transform="matrix(10.5,0,0,10.5,336.2,96.8)" />
<use xlink:href="#f1_m" transform="matrix(10.5,0,0,10.5,394.6,96.8)" />
<use xlink:href="#f3_2j" transform="matrix(10.5,0,0,10.5,307.6,70.8)" />
<use xlink:href="#f3_1z" transform="matrix(10.5,0,0,10.5,414.6,81.2)" />
<use xlink:href="#f3_2j" transform="matrix(10.5,0,0,10.5,423.9,81.2)" />
<use xlink:href="#f3_2j" transform="matrix(10.5,0,0,10.5,249,96.8)" />
<use xlink:href="#f3_2j" transform="matrix(10.5,0,0,10.5,303.9,96.8)" />
<use xlink:href="#f3_2j" transform="matrix(10.5,0,0,10.5,362.1,96.8)" />
<use xlink:href="#f2_h" transform="matrix(10.5,0,0,10.5,324.4,70.8)" />
<use xlink:href="#f2_f" transform="matrix(10.5,0,0,10.5,265.8,96.8)" />
<use xlink:href="#f2_h" transform="matrix(10.5,0,0,10.5,320.7,96.8)" />
<use xlink:href="#f2_f" transform="matrix(10.5,0,0,10.5,378.9,96.8)" />
<use xlink:href="#f2_50" transform="matrix(21,0,0,21,227.3,89.7)" />
<use xlink:href="#f1_b" transform="matrix(10.4,0,0,10.4,187.9,161.9)" />
<use xlink:href="#f1_2h" transform="matrix(10.4,0,0,10.4,193.2,161.9)" />
<use xlink:href="#f1_c" transform="matrix(10.4,0,0,10.4,201.4,161.9)" />
<use xlink:href="#f2_c" transform="matrix(10.5,0,0,11.3,242.2,175.4)" />
<use xlink:href="#f2_d" transform="matrix(10.5,0,0,11.3,291.7,175.4)" />
<use xlink:href="#f2_c" transform="matrix(10.5,0,0,11.3,300.4,175.4)" />
<use xlink:href="#f2_d" transform="matrix(10.5,0,0,11.3,346.3,175.4)" />
</g>
<path d="M241.7,157.6h110" class="g0_60" />
<g fill="#000000" >
<use xlink:href="#f1_l" transform="matrix(7.9,0,0,7.9,266.1,141.7)" />
<use xlink:href="#f1_l" transform="matrix(10.7,0,0,10.6,329.5,151.4)" />
<use xlink:href="#f1_h" transform="matrix(10.7,0,0,10.6,374.5,161.9)" />
<use xlink:href="#f1_l" transform="matrix(10.7,0,0,10.6,281.3,177.5)" />
<use xlink:href="#f1_k" transform="matrix(10.7,0,0,10.6,338.3,177.5)" />
<use xlink:href="#f3_2j" transform="matrix(10.7,0,0,10.6,255.7,151.4)" />
<use xlink:href="#f3_2j" transform="matrix(10.7,0,0,10.6,297,151.4)" />
<use xlink:href="#f3_1z" transform="matrix(10.7,0,0,10.6,355.7,161.9)" />
<use xlink:href="#f3_2j" transform="matrix(10.7,0,0,10.6,365,161.9)" />
<use xlink:href="#f3_2j" transform="matrix(10.7,0,0,10.6,249.1,177.5)" />
<use xlink:href="#f3_2j" transform="matrix(10.7,0,0,10.6,307.3,177.5)" />
<use xlink:href="#f2_f" transform="matrix(10.6,0,0,10.6,281.1,151.4)" />
<use xlink:href="#f2_f" transform="matrix(10.6,0,0,10.6,313.8,151.4)" />
<use xlink:href="#f2_h" transform="matrix(10.6,0,0,10.6,265.9,177.5)" />
<use xlink:href="#f2_h" transform="matrix(10.6,0,0,10.6,324.1,177.5)" />
<use xlink:href="#f2_50" transform="matrix(21.2,0,0,21.2,227.4,170.5)" />
<use xlink:href="#f1_b" transform="matrix(10.4,0,0,10.4,459.2,161.9)" />
<use xlink:href="#f1_2h" transform="matrix(10.4,0,0,10.4,464.5,161.9)" />
<use xlink:href="#f1_24" transform="matrix(10.4,0,0,10.4,472.8,161.9)" />
<use xlink:href="#f1_c" transform="matrix(10.4,0,0,10.4,476.3,161.9)" />
<use xlink:href="#f2_c" transform="matrix(10.4,0,0,16,519.1,147.6)" />
<use xlink:href="#f2_d" transform="matrix(10.4,0,0,16,573.9,147.7)" />
<use xlink:href="#f2_c" transform="matrix(10.4,0,0,16,582.6,147.6)" />
<use xlink:href="#f2_d" transform="matrix(10.4,0,0,16,641,147.7)" />
<use xlink:href="#f2_c" transform="matrix(10.4,0,0,16.2,516.7,176.3)" />
<use xlink:href="#f2_d" transform="matrix(10.4,0,0,16.2,575.4,176.3)" />
<use xlink:href="#f2_c" transform="matrix(10.4,0,0,16,584.4,176)" />
<use xlink:href="#f2_d" transform="matrix(10.4,0,0,16,643.1,176.1)" />
</g>
<path d="M516.7,157.3H648.5" class="g0_60" />
<g fill="#000000" >
<use xlink:href="#f1_l" transform="matrix(7.9,0,0,7.8,536.6,141.7)" />
<use xlink:href="#f1_l" transform="matrix(7.9,0,0,7.8,600.2,141.7)" />
<use xlink:href="#f1_m" transform="matrix(7.9,0,0,7.8,534.5,170)" />
<use xlink:href="#f1_l" transform="matrix(7.9,0,0,7.8,602,170)" />
<use xlink:href="#f1_k" transform="matrix(10.4,0,0,10.4,565.9,151.2)" />
<use xlink:href="#f1_l" transform="matrix(10.4,0,0,10.4,630.7,151.2)" />
<use xlink:href="#f1_h" transform="matrix(10.4,0,0,10.4,671.3,161.5)" />
<use xlink:href="#f1_m" transform="matrix(10.4,0,0,10.4,565.2,179.6)" />
<use xlink:href="#f1_n" transform="matrix(10.4,0,0,10.4,632.5,179.6)" />
<use xlink:href="#f3_2j" transform="matrix(10.4,0,0,10.4,526.1,151.2)" />
<use xlink:href="#f3_2j" transform="matrix(10.4,0,0,10.4,589.6,151.2)" />
<use xlink:href="#f3_1z" transform="matrix(10.4,0,0,10.4,652.5,161.5)" />
<use xlink:href="#f3_2j" transform="matrix(10.4,0,0,10.4,661.8,161.5)" />
<use xlink:href="#f3_2j" transform="matrix(10.4,0,0,10.4,523.9,179.6)" />
<use xlink:href="#f3_2j" transform="matrix(10.4,0,0,10.4,591.4,179.6)" />
<use xlink:href="#f2_f" transform="matrix(10.5,0,0,10.4,551.5,151.2)" />
<use xlink:href="#f2_f" transform="matrix(10.5,0,0,10.4,615.1,151.2)" />
<use xlink:href="#f2_f" transform="matrix(10.5,0,0,10.4,549.5,179.6)" />
<use xlink:href="#f2_f" transform="matrix(10.5,0,0,10.4,616.9,179.6)" />
<use xlink:href="#f2_50" transform="matrix(20.9,0,0,20.8,502.4,170)" />
<use xlink:href="#f1_b" transform="matrix(10.4,0,0,10.4,180.7,237.8)" />
<use xlink:href="#f1_2h" transform="matrix(10.4,0,0,10.4,186.1,237.8)" />
<use xlink:href="#f1_24" transform="matrix(10.4,0,0,10.4,194,237.8)" />
<use xlink:href="#f1_24" transform="matrix(10.4,0,0,10.4,197.6,237.8)" />
<use xlink:href="#f1_c" transform="matrix(10.4,0,0,10.4,201.1,237.8)" />
<use xlink:href="#f2_c" transform="matrix(10.5,0,0,11.3,242.2,254.2)" />
<use xlink:href="#f2_d" transform="matrix(10.5,0,0,11.3,297.2,254.2)" />
<use xlink:href="#f2_c" transform="matrix(10.6,0,0,16.3,305.8,252.7)" />
<use xlink:href="#f2_d" transform="matrix(10.6,0,0,16.3,364.4,252.8)" />
</g>
<path d="M241.7,233.7H369.8" class="g0_60" />
<g fill="#000000" >
<use xlink:href="#f1_l" transform="matrix(7.9,0,0,7.9,323.2,246.6)" />
<use xlink:href="#f1_h" transform="matrix(10.7,0,0,10.6,373.8,238)" />
<use xlink:href="#f1_l" transform="matrix(10.7,0,0,10.6,248.8,256.3)" />
<use xlink:href="#f1_k" transform="matrix(10.7,0,0,10.6,289.1,256.3)" />
<use xlink:href="#f1_n" transform="matrix(10.7,0,0,10.6,353.8,256.3)" />
<use xlink:href="#f3_1z" transform="matrix(10.7,0,0,10.6,295.7,227.5)" />
<use xlink:href="#f3_2j" transform="matrix(10.7,0,0,10.6,305,227.5)" />
<use xlink:href="#f3_2j" transform="matrix(10.7,0,0,10.6,257.8,256.3)" />
<use xlink:href="#f3_2j" transform="matrix(10.7,0,0,10.6,312.7,256.3)" />
<use xlink:href="#f2_f" transform="matrix(10.6,0,0,10.6,274.6,256.3)" />
<use xlink:href="#f2_f" transform="matrix(10.6,0,0,10.6,338.2,256.3)" />
<use xlink:href="#f2_50" transform="matrix(21.2,0,0,21.2,227.3,246.6)" />
<use xlink:href="#f1_b" transform="matrix(10.4,0,0,10.4,452.3,237.8)" />
<use xlink:href="#f1_2h" transform="matrix(10.4,0,0,10.4,457.6,237.8)" />
<use xlink:href="#f1_24" transform="matrix(10.4,0,0,10.4,465.5,237.8)" />
<use xlink:href="#f1_24" transform="matrix(10.4,0,0,10.4,469.1,237.8)" />
<use xlink:href="#f1_24" transform="matrix(10.4,0,0,10.4,472.6,237.8)" />
<use xlink:href="#f1_c" transform="matrix(10.4,0,0,10.4,476.2,237.8)" />
<use xlink:href="#f2_c" transform="matrix(10.4,0,0,11.4,556,251.7)" />
<use xlink:href="#f2_d" transform="matrix(10.4,0,0,11.4,644.5,251.7)" />
</g>
<path d="M516.7,233.8H650.3" class="g0_60" />
<g fill="#000000" >
<use xlink:href="#f1_h" transform="matrix(10.5,0,0,10.5,654.2,238.1)" />
<use xlink:href="#f1_2e" transform="matrix(10.5,0,0,10.5,517.2,253.7)" />
<use xlink:href="#f1_24" transform="matrix(10.5,0,0,10.5,525.6,253.7)" />
<use xlink:href="#f1_29" transform="matrix(10.5,0,0,10.5,529.3,253.7)" />
<use xlink:href="#f1_k" transform="matrix(10.5,0,0,10.5,561.8,253.7)" />
<use xlink:href="#f1_l" transform="matrix(10.5,0,0,10.5,590.2,253.7)" />
<use xlink:href="#f1_1y" transform="matrix(10.5,0,0,10.5,602.9,253.7)" />
<use xlink:href="#f1_2a" transform="matrix(10.5,0,0,10.5,611.3,253.7)" />
<use xlink:href="#f1_2e" transform="matrix(10.5,0,0,10.5,620.6,253.7)" />
<use xlink:href="#f3_1z" transform="matrix(10.5,0,0,10.5,573.3,227.7)" />
<use xlink:href="#f3_2j" transform="matrix(10.5,0,0,10.5,582.6,227.7)" />
<use xlink:href="#f3_2j" transform="matrix(10.5,0,0,10.5,542.3,253.7)" />
<use xlink:href="#f3_2j" transform="matrix(10.5,0,0,10.5,633,253.7)" />
<use xlink:href="#f2_h" transform="matrix(10.5,0,0,10.5,574.7,253.7)" />
<use xlink:href="#f2_50" transform="matrix(21,0,0,21,502.3,246.7)" />
<use xlink:href="#f1_b" transform="matrix(10.4,0,0,10.4,184.2,317)" />
<use xlink:href="#f1_24" transform="matrix(10.4,0,0,10.4,189.5,317)" />
<use xlink:href="#f1_2j" transform="matrix(10.4,0,0,10.4,193.1,317)" />
<use xlink:href="#f1_c" transform="matrix(10.4,0,0,10.4,201.1,317)" />
</g>
<path d="M241.7,313h45.5" class="g0_60" />
<g fill="#000000" >
<use xlink:href="#f1_2e" transform="matrix(10.5,0,0,10.5,247,306.9)" />
<use xlink:href="#f1_24" transform="matrix(10.5,0,0,10.5,255.3,306.9)" />
<use xlink:href="#f1_29" transform="matrix(10.5,0,0,10.5,259.1,306.9)" />
<use xlink:href="#f1_h" transform="matrix(10.5,0,0,10.5,310.1,317.3)" />
<use xlink:href="#f1_2e" transform="matrix(10.5,0,0,10.5,242.4,332.9)" />
<use xlink:href="#f1_24" transform="matrix(10.5,0,0,10.5,250.8,332.9)" />
<use xlink:href="#f1_29" transform="matrix(10.5,0,0,10.5,254.5,332.9)" />
<use xlink:href="#f1_n" transform="matrix(10.5,0,0,10.5,267.3,332.9)" />
<use xlink:href="#f3_2j" transform="matrix(10.5,0,0,10.5,272,306.9)" />
<use xlink:href="#f3_1z" transform="matrix(10.5,0,0,10.5,291.2,317.3)" />
<use xlink:href="#f3_2j" transform="matrix(10.5,0,0,10.5,300.5,317.3)" />
<use xlink:href="#f3_2j" transform="matrix(10.5,0,0,10.5,276.5,332.9)" />
<use xlink:href="#f2_50" transform="matrix(21,0,0,21,227.5,325.9)" />
<use xlink:href="#f1_b" transform="matrix(10.4,0,0,10.4,462.9,317)" />
<use xlink:href="#f1_2j" transform="matrix(10.4,0,0,10.4,468.2,317)" />
<use xlink:href="#f1_c" transform="matrix(10.4,0,0,10.4,476.4,317)" />
</g>
<path d="M516.7,313h89.5" class="g1_60" />
<g fill="#000000" >
<use xlink:href="#f1_l" transform="matrix(7.9,0,0,7.9,549.1,297.2)" />
<use xlink:href="#f1_n" transform="matrix(7.9,0,0,7.9,528.2,324.7)" />
<use xlink:href="#f1_l" transform="matrix(7.9,0,0,7.9,569.7,324.7)" />
<use xlink:href="#f1_k" transform="matrix(10.5,0,0,10.5,578.3,306.8)" />
<use xlink:href="#f1_h" transform="matrix(10.5,0,0,10.5,628.9,317.3)" />
<use xlink:href="#f1_k" transform="matrix(10.5,0,0,10.5,599.2,334.3)" />
<use xlink:href="#f3_2j" transform="matrix(10.5,0,0,10.5,538.6,306.8)" />
<use xlink:href="#f3_1z" transform="matrix(10.5,0,0,10.5,610.1,317.3)" />
<use xlink:href="#f3_2j" transform="matrix(10.5,0,0,10.5,619.4,317.3)" />
<use xlink:href="#f3_2j" transform="matrix(10.5,0,0,10.5,517.8,334.3)" />
<use xlink:href="#f3_2j" transform="matrix(10.5,0,0,10.5,559.3,334.3)" />
<use xlink:href="#f2_h" transform="matrix(10.5,0,0,10.5,564,306.8)" />
<use xlink:href="#f2_f" transform="matrix(10.5,0,0,10.5,543.3,334.3)" />
<use xlink:href="#f2_f" transform="matrix(10.5,0,0,10.5,584.7,334.3)" />
<use xlink:href="#f2_50" transform="matrix(21,0,0,21,502.5,325.8)" />
<use xlink:href="#f1_b" transform="matrix(10.4,0,0,10.4,184.2,384.3)" />
<use xlink:href="#f1_2j" transform="matrix(10.4,0,0,10.4,189.5,384.3)" />
<use xlink:href="#f1_24" transform="matrix(10.4,0,0,10.4,197.8,384.3)" />
<use xlink:href="#f1_c" transform="matrix(10.4,0,0,10.4,201.3,384.3)" />
</g>
<path d="M241.7,380.4l1.6,-.9l3.9,6.4l4.2,-17.1h38.4" class="g2_60" />
<path fill-rule="evenodd" d="M241.6,380.2l2.1,-1.2l3.5,5.4l4,-16h38.6v.8H251.7L247.6,386h-.8l-3.9,-6l-1.1,.6l-.2,-.4Z" class="g3_60" />
<g fill="#000000" >
<use xlink:href="#f1_2f" transform="matrix(10.7,0,0,10.6,252.2,384.6)" />
<use xlink:href="#f1_1w" transform="matrix(10.7,0,0,10.6,256.9,384.6)" />
<use xlink:href="#f1_29" transform="matrix(10.7,0,0,10.6,266.2,384.6)" />
<use xlink:href="#f1_h" transform="matrix(10.7,0,0,10.6,315.8,384.6)" />
<use xlink:href="#f3_2j" transform="matrix(10.7,0,0,10.6,279.1,384.6)" />
<use xlink:href="#f3_1z" transform="matrix(10.7,0,0,10.6,297.1,384.6)" />
<use xlink:href="#f3_2j" transform="matrix(10.7,0,0,10.6,306.3,384.6)" />
<use xlink:href="#f2_50" transform="matrix(21.2,0,0,21.2,227.5,393.2)" />
<use xlink:href="#f1_b" transform="matrix(10.4,0,0,10.4,455.7,384.3)" />
<use xlink:href="#f1_2j" transform="matrix(10.4,0,0,10.4,461.1,384.3)" />
<use xlink:href="#f1_24" transform="matrix(10.4,0,0,10.4,469,384.3)" />
<use xlink:href="#f1_24" transform="matrix(10.4,0,0,10.4,472.6,384.3)" />
<use xlink:href="#f1_c" transform="matrix(10.4,0,0,10.4,476.1,384.3)" />
</g>
<path d="M516.8,380.3h58.3" class="g4_60" />
<g fill="#000000" >
<use xlink:href="#f1_l" transform="matrix(7.9,0,0,7.9,531.7,364.5)" />
<use xlink:href="#f1_s" transform="matrix(10.6,0,0,10.5,562.2,374.1)" />
<use xlink:href="#f1_h" transform="matrix(10.6,0,0,10.5,598,384.6)" />
<use xlink:href="#f1_r" transform="matrix(10.6,0,0,10.5,558.8,401.6)" />
<use xlink:href="#f1_k" transform="matrix(10.6,0,0,10.5,568.2,401.6)" />
<use xlink:href="#f3_2j" transform="matrix(10.6,0,0,10.5,521.2,374.1)" />
<use xlink:href="#f3_1z" transform="matrix(10.6,0,0,10.5,579.1,384.6)" />
<use xlink:href="#f3_2j" transform="matrix(10.6,0,0,10.5,588.5,384.6)" />
<use xlink:href="#f3_2j" transform="matrix(10.6,0,0,10.5,517.7,401.6)" />
<use xlink:href="#f2_o" transform="matrix(7.9,0,0,7.9,528.4,392)" />
<use xlink:href="#f2_f" transform="matrix(10.6,0,0,10.5,546.7,374.1)" />
<use xlink:href="#f2_f" transform="matrix(10.6,0,0,10.5,543,401.6)" />
<use xlink:href="#f2_50" transform="matrix(21,0,0,21,502.5,393.1)" />
<use xlink:href="#f1_n" transform="matrix(10.4,0,0,10.4,129.2,429)" />
<use xlink:href="#f1_n" transform="matrix(10.4,0,0,10.4,138.1,429)" />
<use xlink:href="#f1_h" transform="matrix(10.4,0,0,10.4,147.3,429)" />
<use xlink:href="#f1_14" transform="matrix(10.4,0,0,10.4,169.9,429)" />
<use xlink:href="#f1_2h" transform="matrix(10.4,0,0,10.4,180.6,429)" />
<use xlink:href="#f1_1w" transform="matrix(10.4,0,0,10.4,188.5,429)" />
<use xlink:href="#f1_27" transform="matrix(10.4,0,0,10.4,197.4,429)" />
<use xlink:href="#f1_2g" transform="matrix(10.4,0,0,10.4,200.9,429)" />
<use xlink:href="#f1_1w" transform="matrix(10.4,0,0,10.4,209.8,429)" />
<use xlink:href="#f1_2f" transform="matrix(10.4,0,0,10.4,218.7,429)" />
<use xlink:href="#f1_20" transform="matrix(10.4,0,0,10.4,223.1,429)" />
<use xlink:href="#f1_t" transform="matrix(10.4,0,0,10.4,239.7,429)" />
<use xlink:href="#f1_b" transform="matrix(10.4,0,0,10.4,192.5,467.5)" />
<use xlink:href="#f1_24" transform="matrix(10.4,0,0,10.4,197.8,467.5)" />
<use xlink:href="#f1_c" transform="matrix(10.4,0,0,10.4,201.3,467.5)" />
<use xlink:href="#f1_o" transform="matrix(8,0,0,8,251.7,456.7)" />
<use xlink:href="#f1_m" transform="matrix(8,0,0,8,299.5,456.7)" />
<use xlink:href="#f1_2e" transform="matrix(10.7,0,0,10.6,264.2,466.4)" />
<use xlink:href="#f1_24" transform="matrix(10.7,0,0,10.6,272.4,466.4)" />
<use xlink:href="#f1_29" transform="matrix(10.7,0,0,10.6,276,466.4)" />
<use xlink:href="#f1_h" transform="matrix(10.7,0,0,10.6,324.6,466.4)" />
<use xlink:href="#f3_2j" transform="matrix(10.7,0,0,10.6,241.4,466.4)" />
<use xlink:href="#f3_2j" transform="matrix(10.7,0,0,10.6,289.1,466.4)" />
<use xlink:href="#f3_1z" transform="matrix(10.7,0,0,10.6,306.1,466.4)" />
<use xlink:href="#f3_2j" transform="matrix(10.7,0,0,10.6,315.4,466.4)" />
<use xlink:href="#f2_50" transform="matrix(21.2,0,0,21.2,227.5,475)" />
<use xlink:href="#f1_b" transform="matrix(10.4,0,0,10.4,463.8,467.5)" />
<use xlink:href="#f1_24" transform="matrix(10.4,0,0,10.4,469.1,467.5)" />
<use xlink:href="#f1_24" transform="matrix(10.4,0,0,10.4,472.7,467.5)" />
<use xlink:href="#f1_c" transform="matrix(10.4,0,0,10.4,476.2,467.5)" />
<use xlink:href="#f1_m" transform="matrix(7.9,0,0,8,542.4,458.1)" />
<use xlink:href="#f1_2e" transform="matrix(10.6,0,0,10.6,516.3,467.8)" />
<use xlink:href="#f1_20" transform="matrix(10.6,0,0,10.6,524.6,467.8)" />
<use xlink:href="#f1_1y" transform="matrix(10.6,0,0,10.6,534,467.8)" />
<use xlink:href="#f1_h" transform="matrix(10.6,0,0,10.6,587.6,467.8)" />
<use xlink:href="#f3_2j" transform="matrix(10.6,0,0,10.6,555.3,467.8)" />
<use xlink:href="#f3_1z" transform="matrix(10.6,0,0,10.6,568.7,467.8)" />
<use xlink:href="#f3_2j" transform="matrix(10.6,0,0,10.6,578.1,467.8)" />
<use xlink:href="#f2_50" transform="matrix(21.2,0,0,21.2,502.4,476.5)" />
<use xlink:href="#f1_b" transform="matrix(10.4,0,0,10.4,185.3,522.3)" />
<use xlink:href="#f1_24" transform="matrix(10.4,0,0,10.4,190.6,522.3)" />
<use xlink:href="#f1_24" transform="matrix(10.4,0,0,10.4,194.2,522.3)" />
<use xlink:href="#f1_24" transform="matrix(10.4,0,0,10.4,197.7,522.3)" />
<use xlink:href="#f1_c" transform="matrix(10.4,0,0,10.4,201.3,522.3)" />
<use xlink:href="#f2_c" transform="matrix(10.5,0,0,11.5,299.4,520.5)" />
<use xlink:href="#f2_d" transform="matrix(10.5,0,0,11.5,357.5,520.5)" />
<use xlink:href="#f1_1y" transform="matrix(10.6,0,0,10.6,270.3,522.5)" />
<use xlink:href="#f1_2a" transform="matrix(10.6,0,0,10.6,278.6,522.5)" />
<use xlink:href="#f1_2e" transform="matrix(10.6,0,0,10.6,287.9,522.5)" />
<use xlink:href="#f1_h" transform="matrix(10.6,0,0,10.6,384.8,522.5)" />
<use xlink:href="#f3_1w" transform="matrix(7.9,0,0,7.9,249.9,512.9)" />
<use xlink:href="#f3_2j" transform="matrix(7.9,0,0,7.9,256.8,512.9)" />
<use xlink:href="#f3_20" transform="matrix(10.6,0,0,10.6,240.1,522.5)" />
<use xlink:href="#f3_1x" transform="matrix(10.6,0,0,10.6,306,522.5)" />
<use xlink:href="#f3_2j" transform="matrix(10.6,0,0,10.6,315.3,522.5)" />
<use xlink:href="#f3_1y" transform="matrix(10.6,0,0,10.6,346.9,522.5)" />
<use xlink:href="#f3_1z" transform="matrix(10.6,0,0,10.6,366,522.5)" />
<use xlink:href="#f3_2j" transform="matrix(10.6,0,0,10.6,375.3,522.5)" />
<use xlink:href="#f2_f" transform="matrix(10.6,0,0,10.6,331.9,522.5)" />
<use xlink:href="#f2_50" transform="matrix(21.1,0,0,21.1,227.4,531.1)" />
<use xlink:href="#f1_b" transform="matrix(10.4,0,0,10.4,459.2,522.3)" />
<use xlink:href="#f1_24" transform="matrix(10.4,0,0,10.4,464.5,522.3)" />
<use xlink:href="#f1_2h" transform="matrix(10.4,0,0,10.4,468.1,522.3)" />
<use xlink:href="#f1_c" transform="matrix(10.4,0,0,10.4,476.1,522.3)" />
</g>
<path d="M555.6,518.6h56.6" class="g0_60" />
<g fill="#000000" >
<use xlink:href="#f1_99" transform="matrix(7.8,0,0,7.8,537.4,513.3)" />
<use xlink:href="#f1_k" transform="matrix(7.8,0,0,7.8,544.3,513.3)" />
<use xlink:href="#f1_l" transform="matrix(7.8,0,0,7.8,603.2,530.1)" />
<use xlink:href="#f1_p" transform="matrix(10.4,0,0,10.4,574.2,512.4)" />
<use xlink:href="#f1_2e" transform="matrix(10.4,0,0,10.4,516,522.8)" />
<use xlink:href="#f1_24" transform="matrix(10.4,0,0,10.4,524.3,522.8)" />
<use xlink:href="#f1_29" transform="matrix(10.4,0,0,10.4,528.1,522.8)" />
<use xlink:href="#f1_h" transform="matrix(10.4,0,0,10.4,634.9,522.8)" />
<use xlink:href="#f1_k" transform="matrix(10.4,0,0,10.4,555,539.6)" />
<use xlink:href="#f1_s" transform="matrix(10.4,0,0,10.4,583.5,539.6)" />
<use xlink:href="#f3_2j" transform="matrix(10.4,0,0,10.4,583.5,512.4)" />
<use xlink:href="#f3_1z" transform="matrix(10.4,0,0,10.4,616.1,522.8)" />
<use xlink:href="#f3_2j" transform="matrix(10.4,0,0,10.4,625.4,522.8)" />
<use xlink:href="#f3_2j" transform="matrix(10.4,0,0,10.4,592.7,539.6)" />
<use xlink:href="#f2_f" transform="matrix(10.5,0,0,10.4,568,539.6)" />
<use xlink:href="#f2_50" transform="matrix(20.9,0,0,20.8,502.3,531.2)" />
<use xlink:href="#f1_b" transform="matrix(10.4,0,0,10.4,187.9,591.1)" />
<use xlink:href="#f1_2h" transform="matrix(10.4,0,0,10.4,193.2,591.1)" />
<use xlink:href="#f1_c" transform="matrix(10.4,0,0,10.4,201.4,591.1)" />
</g>
<path d="M271.4,587.4l1.6,-.9l3.9,6.4L281.1,576h11.4" class="g2_60" />
<path fill-rule="evenodd" d="M271.3,587.2l2.1,-1.2l3.5,5.3l3.9,-15.7h11.7v.8H281.3l-4,16.5h-.8L272.6,587l-1.1,.6l-.2,-.4Z" class="g3_60" />
<g fill="#000000" >
<use xlink:href="#f1_1y" transform="matrix(10.7,0,0,10.6,241.1,591.8)" />
<use xlink:href="#f1_2a" transform="matrix(10.7,0,0,10.6,249.3,591.8)" />
<use xlink:href="#f1_2e" transform="matrix(10.7,0,0,10.6,258.5,591.8)" />
<use xlink:href="#f1_h" transform="matrix(10.7,0,0,10.6,315,591.8)" />
<use xlink:href="#f3_2j" transform="matrix(10.7,0,0,10.6,281.8,591.8)" />
<use xlink:href="#f3_1z" transform="matrix(10.7,0,0,10.6,296.4,591.8)" />
<use xlink:href="#f3_2j" transform="matrix(10.7,0,0,10.6,305.7,591.8)" />
<use xlink:href="#f2_50" transform="matrix(21.2,0,0,21.2,227.5,600.4)" />
<use xlink:href="#f1_b" transform="matrix(10.4,0,0,10.4,459.2,591.1)" />
<use xlink:href="#f1_2h" transform="matrix(10.4,0,0,10.4,464.5,591.1)" />
<use xlink:href="#f1_24" transform="matrix(10.4,0,0,10.4,472.8,591.1)" />
<use xlink:href="#f1_c" transform="matrix(10.4,0,0,10.4,476.3,591.1)" />
<use xlink:href="#f1_m" transform="matrix(8,0,0,8,526.8,581.2)" />
<use xlink:href="#f1_99" transform="matrix(8,0,0,8,563,581.2)" />
<use xlink:href="#f1_k" transform="matrix(8,0,0,8,569.8,581.2)" />
<use xlink:href="#f1_2f" transform="matrix(10.7,0,0,10.6,539.6,590.9)" />
<use xlink:href="#f1_1w" transform="matrix(10.7,0,0,10.6,544.4,590.9)" />
<use xlink:href="#f1_29" transform="matrix(10.7,0,0,10.6,553.7,590.9)" />
<use xlink:href="#f1_h" transform="matrix(10.7,0,0,10.6,616.6,590.9)" />
<use xlink:href="#f3_2j" transform="matrix(10.7,0,0,10.6,516.4,590.9)" />
<use xlink:href="#f3_2j" transform="matrix(10.7,0,0,10.6,580.9,590.9)" />
<use xlink:href="#f3_1z" transform="matrix(10.7,0,0,10.6,597.8,590.9)" />
<use xlink:href="#f3_2j" transform="matrix(10.7,0,0,10.6,607.1,590.9)" />
<use xlink:href="#f2_50" transform="matrix(21.3,0,0,21.2,502.5,599.5)" />
<use xlink:href="#f1_b" transform="matrix(10.4,0,0,10.4,180.7,653.6)" />
<use xlink:href="#f1_2h" transform="matrix(10.4,0,0,10.4,186.1,653.6)" />
<use xlink:href="#f1_24" transform="matrix(10.4,0,0,10.4,194,653.6)" />
<use xlink:href="#f1_24" transform="matrix(10.4,0,0,10.4,197.6,653.6)" />
<use xlink:href="#f1_c" transform="matrix(10.4,0,0,10.4,201.1,653.6)" />
</g>
<path d="M280.4,649.3h77.5" class="g5_60" />
<g fill="#000000" >
<use xlink:href="#f1_l" transform="matrix(7.9,0,0,7.9,250.3,643.9)" />
<use xlink:href="#f1_k" transform="matrix(10.6,0,0,10.6,282.4,643.1)" />
<use xlink:href="#f1_2e" transform="matrix(10.6,0,0,10.6,311,643.1)" />
<use xlink:href="#f1_24" transform="matrix(10.6,0,0,10.6,319.3,643.1)" />
<use xlink:href="#f1_29" transform="matrix(10.6,0,0,10.6,323.1,643.1)" />
<use xlink:href="#f1_l" transform="matrix(10.6,0,0,10.6,335.8,643.1)" />
<use xlink:href="#f1_h" transform="matrix(10.6,0,0,10.6,389.6,653.5)" />
<use xlink:href="#f1_k" transform="matrix(10.6,0,0,10.6,279.9,669.2)" />
<use xlink:href="#f1_1y" transform="matrix(10.6,0,0,10.6,308.5,669.2)" />
<use xlink:href="#f1_2a" transform="matrix(10.6,0,0,10.6,316.8,669.2)" />
<use xlink:href="#f1_2e" transform="matrix(10.6,0,0,10.6,326.1,669.2)" />
<use xlink:href="#f1_l" transform="matrix(10.6,0,0,10.6,338.2,669.2)" />
<use xlink:href="#f3_2j" transform="matrix(7.9,0,0,7.9,257.4,643.9)" />
<use xlink:href="#f3_2j" transform="matrix(10.6,0,0,10.6,344.8,643.1)" />
<use xlink:href="#f3_20" transform="matrix(10.6,0,0,10.6,240.1,653.5)" />
<use xlink:href="#f3_1z" transform="matrix(10.6,0,0,10.6,370.8,653.5)" />
<use xlink:href="#f3_2j" transform="matrix(10.6,0,0,10.6,380.1,653.5)" />
<use xlink:href="#f3_2j" transform="matrix(10.6,0,0,10.6,347.2,669.2)" />
<use xlink:href="#f2_f" transform="matrix(10.6,0,0,10.6,295.3,643.1)" />
<use xlink:href="#f2_4o" transform="matrix(10.6,0,0,10.6,270.6,644.2)" />
<use xlink:href="#f2_54" transform="matrix(10.6,0,0,10.6,359.6,644.2)" />
<use xlink:href="#f2_4p" transform="matrix(10.6,0,0,10.6,270.6,659.2)" />
<use xlink:href="#f2_55" transform="matrix(10.6,0,0,10.6,359.6,659.2)" />
<use xlink:href="#f2_4q" transform="matrix(10.6,0,0,10.6,270.6,665.8)" />
<use xlink:href="#f2_56" transform="matrix(10.6,0,0,10.6,359.6,665.8)" />
<use xlink:href="#f2_f" transform="matrix(10.6,0,0,10.6,292.7,669.2)" />
<use xlink:href="#f2_50" transform="matrix(21.1,0,0,21.1,227.5,662.1)" />
<use xlink:href="#f1_b" transform="matrix(10.4,0,0,10.4,452.3,653.6)" />
<use xlink:href="#f1_2h" transform="matrix(10.4,0,0,10.4,457.6,653.6)" />
<use xlink:href="#f1_24" transform="matrix(10.4,0,0,10.4,465.5,653.6)" />
<use xlink:href="#f1_24" transform="matrix(10.4,0,0,10.4,469.1,653.6)" />
<use xlink:href="#f1_24" transform="matrix(10.4,0,0,10.4,472.6,653.6)" />
<use xlink:href="#f1_c" transform="matrix(10.4,0,0,10.4,476.2,653.6)" />
</g>
<path d="M548.7,649.3h39.1" class="g6_60" />
<g fill="#000000" >
<use xlink:href="#f1_l" transform="matrix(7.9,0,0,7.9,573.9,661)" />
<use xlink:href="#f1_k" transform="matrix(10.6,0,0,10.6,580.8,643.1)" />
<use xlink:href="#f1_h" transform="matrix(10.6,0,0,10.6,619.7,653.5)" />
<use xlink:href="#f1_l" transform="matrix(10.6,0,0,10.6,554.4,670.6)" />
<use xlink:href="#f3_2j" transform="matrix(7.9,0,0,7.9,525.6,643.9)" />
<use xlink:href="#f3_2j" transform="matrix(10.6,0,0,10.6,549.7,643.1)" />
<use xlink:href="#f3_20" transform="matrix(10.6,0,0,10.6,515.2,653.5)" />
<use xlink:href="#f3_1z" transform="matrix(10.6,0,0,10.6,600.8,653.5)" />
<use xlink:href="#f3_2j" transform="matrix(10.6,0,0,10.6,610.1,653.5)" />
<use xlink:href="#f3_2j" transform="matrix(10.6,0,0,10.6,563.4,670.6)" />
<use xlink:href="#f2_h" transform="matrix(10.6,0,0,10.6,566.5,643.1)" />
<use xlink:href="#f2_4o" transform="matrix(10.6,0,0,10.6,538.9,644.2)" />
<use xlink:href="#f2_54" transform="matrix(10.6,0,0,10.6,589.5,644.2)" />
<use xlink:href="#f2_4p" transform="matrix(10.6,0,0,10.6,538.9,660.4)" />
<use xlink:href="#f2_55" transform="matrix(10.6,0,0,10.6,589.5,660.4)" />
<use xlink:href="#f2_4q" transform="matrix(10.6,0,0,10.6,538.9,667)" />
<use xlink:href="#f2_56" transform="matrix(10.6,0,0,10.6,589.5,667)" />
<use xlink:href="#f2_50" transform="matrix(21.1,0,0,21.1,502.4,662.1)" />
<use xlink:href="#f1_b" transform="matrix(10.4,0,0,10.4,184.2,720.9)" />
<use xlink:href="#f1_24" transform="matrix(10.4,0,0,10.4,189.5,720.9)" />
<use xlink:href="#f1_2j" transform="matrix(10.4,0,0,10.4,193.1,720.9)" />
<use xlink:href="#f1_c" transform="matrix(10.4,0,0,10.4,201.1,720.9)" />
</g>
<path d="M241.8,713l1.5,-1.2l3.9,8.9l4.3,-23.4H321" class="g2_60" />
<path fill-rule="evenodd" d="M241.6,712.9l2.1,-1.7l3.5,7.4l4,-21.7H321v.8H251.8l-4.2,23h-.7l-4,-8.3l-1,.8l-.3,-.3Z" class="g3_60" />
<g fill="#000000" >
<use xlink:href="#f1_l" transform="matrix(7.8,0,0,7.9,311.9,709.8)" />
<use xlink:href="#f1_l" transform="matrix(10.4,0,0,10.5,252,719.4)" />
<use xlink:href="#f1_h" transform="matrix(10.4,0,0,10.5,338,719.4)" />
<use xlink:href="#f2_h" transform="matrix(10.4,0,0,10.5,286.1,719.4)" />
<use xlink:href="#f2_50" transform="matrix(21,0,0,21,227.6,727.9)" />
<use xlink:href="#f3_1w" transform="matrix(10.4,0,0,10.5,260.5,719.4)" />
<use xlink:href="#f3_2j" transform="matrix(10.4,0,0,10.5,269.7,719.4)" />
<use xlink:href="#f3_2j" transform="matrix(10.4,0,0,10.5,301.8,719.4)" />
<use xlink:href="#f3_1z" transform="matrix(10.4,0,0,10.5,319.7,719.4)" />
<use xlink:href="#f3_2j" transform="matrix(10.4,0,0,10.5,329,719.4)" />
<use xlink:href="#f1_b" transform="matrix(10.4,0,0,10.4,462.9,720.9)" />
<use xlink:href="#f1_2j" transform="matrix(10.4,0,0,10.4,468.2,720.9)" />
<use xlink:href="#f1_c" transform="matrix(10.4,0,0,10.4,476.4,720.9)" />
<use xlink:href="#f2_c" transform="matrix(10.4,0,0,16.2,539.8,706.9)" />
<use xlink:href="#f2_d" transform="matrix(10.4,0,0,16.2,594.3,707)" />
<use xlink:href="#f2_c" transform="matrix(10.4,0,0,11.2,539.9,735.2)" />
<use xlink:href="#f2_d" transform="matrix(10.4,0,0,11.2,585.8,735.2)" />
</g>
<path d="M539.4,716.7H600" class="g7_60" />
<g fill="#000000" >
<use xlink:href="#f1_l" transform="matrix(7.8,0,0,7.9,557.3,700.9)" />
<use xlink:href="#f1_l" transform="matrix(7.8,0,0,7.9,591,728.4)" />
<use xlink:href="#f1_k" transform="matrix(10.4,0,0,10.5,586.5,710.5)" />
<use xlink:href="#f1_h" transform="matrix(10.4,0,0,10.5,622.5,721)" />
<use xlink:href="#f1_k" transform="matrix(10.4,0,0,10.5,577.9,737.3)" />
<use xlink:href="#f3_2j" transform="matrix(7.8,0,0,7.9,525.5,711.4)" />
<use xlink:href="#f3_2j" transform="matrix(10.4,0,0,10.5,546.9,710.5)" />
<use xlink:href="#f3_20" transform="matrix(10.4,0,0,10.5,515.2,721)" />
<use xlink:href="#f3_1z" transform="matrix(10.4,0,0,10.5,603.8,721)" />
<use xlink:href="#f3_2j" transform="matrix(10.4,0,0,10.5,613.1,721)" />
<use xlink:href="#f3_2j" transform="matrix(10.4,0,0,10.5,546.9,737.3)" />
<use xlink:href="#f2_f" transform="matrix(10.4,0,0,10.5,572.1,710.5)" />
<use xlink:href="#f2_f" transform="matrix(10.4,0,0,10.5,563.5,737.3)" />
<use xlink:href="#f2_50" transform="matrix(20.9,0,0,21,502.6,729.5)" />
<use xlink:href="#f1_b" transform="matrix(10.4,0,0,10.4,184.2,790.2)" />
<use xlink:href="#f1_2j" transform="matrix(10.4,0,0,10.4,189.5,790.2)" />
<use xlink:href="#f1_24" transform="matrix(10.4,0,0,10.4,197.8,790.2)" />
<use xlink:href="#f1_c" transform="matrix(10.4,0,0,10.4,201.3,790.2)" />
<use xlink:href="#f2_c" transform="matrix(10.4,0,0,11.4,265.4,778.4)" />
<use xlink:href="#f2_d" transform="matrix(10.4,0,0,11.4,348.8,778.4)" />
<use xlink:href="#f2_c" transform="matrix(10.4,0,0,11.4,264.7,804.3)" />
<use xlink:href="#f2_d" transform="matrix(10.4,0,0,11.4,349.6,804.3)" />
</g>
<path d="M264.6,786.5h90.7" class="g0_60" />
<g fill="#000000" >
<use xlink:href="#f1_l" transform="matrix(10.5,0,0,10.4,272.5,780.4)" />
<use xlink:href="#f1_2e" transform="matrix(10.5,0,0,10.4,303.5,780.4)" />
<use xlink:href="#f1_24" transform="matrix(10.5,0,0,10.4,311.8,780.4)" />
<use xlink:href="#f1_29" transform="matrix(10.5,0,0,10.4,315.6,780.4)" />
<use xlink:href="#f1_l" transform="matrix(10.5,0,0,10.4,328.3,780.4)" />
<use xlink:href="#f1_h" transform="matrix(10.5,0,0,10.4,378.2,790.8)" />
<use xlink:href="#f1_k" transform="matrix(10.5,0,0,10.4,270.6,806.3)" />
<use xlink:href="#f1_1y" transform="matrix(10.5,0,0,10.4,299.3,806.3)" />
<use xlink:href="#f1_2a" transform="matrix(10.5,0,0,10.4,307.6,806.3)" />
<use xlink:href="#f1_2e" transform="matrix(10.5,0,0,10.4,316.9,806.3)" />
<use xlink:href="#f1_l" transform="matrix(10.5,0,0,10.4,329.1,806.3)" />
<use xlink:href="#f3_2j" transform="matrix(7.9,0,0,7.8,250.5,781.2)" />
<use xlink:href="#f3_2j" transform="matrix(10.5,0,0,10.4,337.4,780.4)" />
<use xlink:href="#f3_20" transform="matrix(10.5,0,0,10.4,240.2,790.8)" />
<use xlink:href="#f3_1z" transform="matrix(10.5,0,0,10.4,359.4,790.8)" />
<use xlink:href="#f3_2j" transform="matrix(10.5,0,0,10.4,368.7,790.8)" />
<use xlink:href="#f3_2j" transform="matrix(10.5,0,0,10.4,338.1,806.3)" />
<use xlink:href="#f2_f" transform="matrix(10.5,0,0,10.4,287.7,780.4)" />
<use xlink:href="#f2_f" transform="matrix(10.5,0,0,10.4,283.5,806.3)" />
<use xlink:href="#f2_50" transform="matrix(20.9,0,0,20.9,227.4,799.3)" />
<use xlink:href="#f1_b" transform="matrix(10.4,0,0,10.4,180.7,850.7)" />
<use xlink:href="#f1_2j" transform="matrix(10.4,0,0,10.4,186.1,850.7)" />
<use xlink:href="#f1_24" transform="matrix(10.4,0,0,10.4,194,850.7)" />
<use xlink:href="#f1_24" transform="matrix(10.4,0,0,10.4,197.6,850.7)" />
<use xlink:href="#f1_c" transform="matrix(10.4,0,0,10.4,201.1,850.7)" />
<use xlink:href="#f2_c" transform="matrix(10.5,0,0,14,275.4,852.3)" />
<use xlink:href="#f2_d" transform="matrix(10.5,0,0,14,319.5,852.3)" />
<use xlink:href="#f2_c" transform="matrix(10.5,0,0,14,347.7,868.8)" />
<use xlink:href="#f2_d" transform="matrix(10.5,0,0,14,391.8,868.8)" />
</g>
<path d="M347.3,847.3H406" class="g0_60" />
<g fill="#000000" >
<use xlink:href="#f1_l" transform="matrix(7.9,0,0,7.9,397,859.1)" />
<use xlink:href="#f1_k" transform="matrix(10.7,0,0,10.6,372.9,841.1)" />
<use xlink:href="#f1_27" transform="matrix(10.7,0,0,10.6,249.9,851.6)" />
<use xlink:href="#f1_2a" transform="matrix(10.7,0,0,10.6,253.7,851.6)" />
<use xlink:href="#f1_22" transform="matrix(10.7,0,0,10.6,263,851.6)" />
<use xlink:href="#f1_27" transform="matrix(10.7,0,0,10.6,281.7,851.6)" />
<use xlink:href="#f1_2a" transform="matrix(10.7,0,0,10.6,285.5,851.6)" />
<use xlink:href="#f1_22" transform="matrix(10.7,0,0,10.6,294.8,851.6)" />
<use xlink:href="#f1_h" transform="matrix(10.7,0,0,10.6,438.2,851.6)" />
<use xlink:href="#f1_27" transform="matrix(10.7,0,0,10.6,354,868.2)" />
<use xlink:href="#f1_2a" transform="matrix(10.7,0,0,10.6,357.7,868.2)" />
<use xlink:href="#f1_22" transform="matrix(10.7,0,0,10.6,367.1,868.2)" />
<use xlink:href="#f3_2j" transform="matrix(10.7,0,0,10.6,307.8,851.6)" />
<use xlink:href="#f3_1z" transform="matrix(10.7,0,0,10.6,419.4,851.6)" />
<use xlink:href="#f3_2j" transform="matrix(10.7,0,0,10.6,428.7,851.6)" />
<use xlink:href="#f3_2j" transform="matrix(10.7,0,0,10.6,380,868.2)" />
<use xlink:href="#f2_4u" transform="matrix(10.6,0,0,10.6,241.2,842.3)" />
<use xlink:href="#f2_5a" transform="matrix(10.6,0,0,10.6,408.5,842.3)" />
<use xlink:href="#f2_4x" transform="matrix(10.6,0,0,10.6,241.2,845.4)" />
<use xlink:href="#f2_4x" transform="matrix(10.6,0,0,10.6,408.5,845.4)" />
<use xlink:href="#f2_f" transform="matrix(10.6,0,0,10.6,331.1,851.6)" />
<use xlink:href="#f2_4v" transform="matrix(10.6,0,0,10.6,241.2,857.5)" />
<use xlink:href="#f2_5b" transform="matrix(10.6,0,0,10.6,408.5,857.5)" />
<use xlink:href="#f2_4x" transform="matrix(10.6,0,0,10.6,241.2,870.3)" />
<use xlink:href="#f2_4x" transform="matrix(10.6,0,0,10.6,408.5,870.3)" />
<use xlink:href="#f2_4w" transform="matrix(10.6,0,0,10.6,241.2,872.7)" />
<use xlink:href="#f2_5c" transform="matrix(10.6,0,0,10.6,408.5,872.9)" />
<use xlink:href="#f2_50" transform="matrix(21.2,0,0,21.2,227.2,860.2)" />
<use xlink:href="#f4_p" transform="matrix(8,0,0,8,730,1122.4)" />
</g>
<g fill="#0080FF" fill-opacity="0.5" >
<use xlink:href="#f0_1c" transform="matrix(42.3,0,0,42.3,202.9,1095.2)" />
<use xlink:href="#f0_21" transform="matrix(42.3,0,0,42.3,238.8,1095.2)" />
<use xlink:href="#f0_1x" transform="matrix(42.3,0,0,42.3,274.7,1095.2)" />
<use xlink:href="#f0_2e" transform="matrix(42.3,0,0,42.3,310.7,1095.2)" />
<use xlink:href="#f0_2a" transform="matrix(42.3,0,0,42.3,332.2,1095.2)" />
<use xlink:href="#f0_17" transform="matrix(42.3,0,0,42.3,368.1,1095.2)" />
<use xlink:href="#f0_2h" transform="matrix(42.3,0,0,42.3,418.4,1095.2)" />
<use xlink:href="#f0_25" transform="matrix(42.3,0,0,42.3,454.3,1095.2)" />
<use xlink:href="#f0_20" transform="matrix(42.3,0,0,42.3,468.7,1095.2)" />
<use xlink:href="#f0_21" transform="matrix(42.3,0,0,42.3,504.6,1095.2)" />
<use xlink:href="#f0_i" transform="matrix(42.3,0,0,42.3,540.5,1095.2)" />
<use xlink:href="#f0_25" transform="matrix(42.3,0,0,42.3,558.5,1095.2)" />
<use xlink:href="#f0_2a" transform="matrix(42.3,0,0,42.3,572.8,1095.2)" />
</g>
<defs>
<path d="M593,101c0,0,182,0,279,112c0,0,98,113,98,318c0,0,0,196,-98,308c0,0,-98,112,-277,112c0,0,-181,0,-279,-110c0,0,-99,-111,-99,-310c0,0,0,-198,100,-314c0,0,99,-116,276,-116Zm0,-115c0,0,-162,0,-279,65c0,0,-118,66,-180,190c0,0,-62,124,-62,290c0,0,0,252,138,394c0,0,138,142,385,142c0,0,160,0,278,-64c0,0,118,-64,180,-185c0,0,62,-122,62,-287c0,0,0,-165,-63,-289c0,0,-63,-124,-181,-190c0,0,-118,-66,-278,-66Z" 
id="f0_1f"
transform="scale(0.001,-0.001)" />

<path d="M106,0V635c0,0,0,141,-5,173H228c0,0,1,-4,2,-21c0,0,1,-16,2,-37c0,0,1,-22,2,-81h2c0,0,47,84,108,119c0,0,60,34,151,34c0,0,132,0,194,-66c0,0,61,-66,61,-218V0H615V512c0,0,0,80,-15,124c0,0,-16,44,-50,63c0,0,-35,20,-101,20c0,0,-97,0,-153,-67c0,0,-56,-66,-56,-184V0Z" 
id="f0_2a"
transform="scale(0.001,-0.001)" />

<path d="M103,0V1107H237V0Z" 
id="f0_28"
transform="scale(0.001,-0.001)" />

<path d="M102,0V808H236V0Zm0,979v128H236V979Z" 
id="f0_25"
transform="scale(0.001,-0.001)" />

<path d="M643,478c0,0,-11,128,-65,187c0,0,-54,59,-154,59c0,0,-98,0,-155,-66c0,0,-57,-65,-62,-180ZM431,-14c0,0,-179,0,-272,106c0,0,-94,107,-94,317c0,0,0,200,94,307c0,0,93,106,267,106c0,0,356,0,356,-429V375H206c0,0,0,-138,57,-213c0,0,58,-75,168,-75c0,0,87,0,140,35c0,0,53,35,71,88L760,177c0,0,-72,-191,-329,-191Z" 
id="f0_21"
transform="scale(0.001,-0.001)" />

<path d="M17,0L304,415L31,808H179L380,493L580,808H730L457,417L747,0H598L380,331L162,0Z" 
id="f0_2k"
transform="scale(0.001,-0.001)" />

<path d="M339,87c0,0,74,0,132,34c0,0,57,33,90,91c0,0,34,59,34,121v66L448,396c0,0,-95,-2,-144,-19c0,0,-49,-18,-75,-55c0,0,-26,-38,-26,-98c0,0,0,-65,35,-101c0,0,36,-36,101,-36ZM309,-14c0,0,-122,0,-183,64c0,0,-61,64,-61,176c0,0,0,125,82,192c0,0,83,67,266,72l182,3v44c0,0,0,98,-42,141c0,0,-42,43,-132,43c0,0,-90,0,-131,-31c0,0,-41,-31,-49,-98L101,604c0,0,34,218,323,218c0,0,153,0,229,-70c0,0,77,-69,77,-202V202c0,0,0,-59,16,-90c0,0,16,-30,60,-30c0,0,19,0,44,5V4C850,4,799,-7,746,-7c0,0,-75,0,-109,38c0,0,-33,40,-38,124h-4C595,155,543,62,475,24c0,0,-68,-38,-166,-38Z" 
id="f0_1x"
transform="scale(0.001,-0.001)" />

<path d="M106,0V635c0,0,0,141,-5,173H228c0,0,1,-4,2,-21c0,0,1,-16,2,-37c0,0,1,-22,2,-81h2c0,0,44,86,100,120c0,0,56,33,136,33c0,0,92,0,145,-36c0,0,54,-37,75,-117h2c0,0,42,82,101,117c0,0,59,36,143,36c0,0,123,0,178,-66c0,0,56,-67,56,-218V0H1039V512c0,0,0,117,-32,162c0,0,-32,45,-116,45c0,0,-88,0,-136,-66c0,0,-49,-65,-49,-185V0H573V512c0,0,0,117,-32,162c0,0,-32,45,-116,45c0,0,-86,0,-136,-66c0,0,-50,-66,-50,-185V0Z" 
id="f0_29"
transform="scale(0.001,-0.001)" />

<path d="M453,84c0,0,100,0,146,74c0,0,46,73,46,247c0,0,0,169,-46,241c0,0,-45,73,-145,73c0,0,-80,0,-125,-34c0,0,-45,-34,-68,-105c0,0,-24,-71,-24,-186c0,0,0,-159,51,-234c0,0,51,-76,165,-76ZM103,-316V643c0,0,0,124,-5,165H228c0,0,1,-3,3,-22c0,0,1,-18,3,-56c0,0,2,-38,2,-52h3c0,0,36,75,94,110c0,0,59,34,156,34c0,0,149,0,223,-100c0,0,74,-100,74,-314c0,0,0,-422,-297,-422c0,0,-187,0,-251,140h-4c0,0,3,-6,3,-126V-316Z" 
id="f0_2c"
transform="scale(0.001,-0.001)" />

<path d="M420,84c0,0,121,0,173,78c0,0,52,77,52,243c0,0,0,167,-50,243c0,0,-50,76,-167,76c0,0,-118,0,-170,-78c0,0,-53,-77,-53,-241c0,0,0,-160,52,-241c0,0,52,-80,163,-80Zm1,-98c0,0,-176,0,-267,107c0,0,-90,108,-90,312c0,0,0,417,362,417c0,0,185,0,272,-102c0,0,88,-101,88,-315c0,0,0,-212,-94,-316C692,89,599,-14,421,-14Z" 
id="f0_2b"
transform="scale(0.001,-0.001)" />

<path d="M278,-11c0,0,-162,0,-162,182V710H23v98h99l39,181h90V808H400V710H251V200c0,0,0,-58,19,-82c0,0,19,-23,66,-23c0,0,27,0,77,10V6c0,0,-66,-17,-135,-17Z" 
id="f0_2g"
transform="scale(0.001,-0.001)" />

<path d="M365,-315c0,0,-136,187,-199,359c0,0,-62,172,-62,359c0,0,0,186,62,358c0,0,63,172,199,360h92c0,0,-110,-192,-160,-365c0,0,-51,-172,-51,-353c0,0,0,-183,51,-355c0,0,50,-172,160,-363Z" 
id="f1_b"
transform="scale(0.001,-0.001)" />

<path d="M104,0V799H238V0Zm-2,946v152H239V946Z" 
id="f1_24"
transform="scale(0.001,-0.001)" />

<path d="M310,0L12,799H168L383,145L604,799H752L454,0Z" 
id="f1_2h"
transform="scale(0.001,-0.001)" />

<path d="M52,-315c0,0,109,192,160,363c0,0,50,173,50,354c0,0,0,183,-50,355c0,0,-51,173,-160,364h92c0,0,135,-188,198,-360c0,0,63,-172,63,-359c0,0,0,-187,-63,-359c0,0,-63,-171,-198,-358Z" 
id="f1_c"
transform="scale(0.001,-0.001)" />

<path d="M412,-328c0,0,-195,96,-303,284C109,-44,0,142,0,365c0,0,0,232,114,422c0,0,114,191,298,273v-31c0,0,-92,-51,-151,-139c0,0,-59,-88,-88,-223c0,0,-29,-136,-29,-282c0,0,0,-167,27,-301c0,0,26,-133,82,-221c0,0,55,-89,159,-159v-32Z" 
id="f2_c"
transform="scale(0.001,-0.001)" />

<path d="M34,-328v32c0,0,92,50,151,138c0,0,59,88,88,222c0,0,29,135,29,283c0,0,0,165,-27,300c0,0,-26,134,-82,222c0,0,-56,89,-159,160v31c0,0,194,-96,303,-284c0,0,108,-187,108,-410c0,0,0,-232,-114,-422c0,0,-114,-191,-297,-272Z" 
id="f2_d"
transform="scale(0.001,-0.001)" />

<path d="M406,0V763H155V870h2c16,0,114,2,178,48c0,0,70,51,104,157H549V0Z" 
id="f1_k"
transform="scale(0.001,-0.001)" />

<path d="M133,0V162H292V0Z" 
id="f1_h"
transform="scale(0.001,-0.001)" />

<path d="M39,0V0c0,0,0,170,84,277c0,0,85,108,317,236c0,0,113,62,154,115c0,0,41,52,41,134c0,0,0,86,-62,141c0,0,-61,54,-156,54c0,0,-101,0,-158,-68c0,0,-57,-68,-60,-194H67c0,0,-2,178,95,279c0,0,98,101,273,101c0,0,149,0,245,-89c0,0,94,-88,94,-228c0,0,0,-118,-60,-195c0,0,-61,-76,-229,-169C485,394,303,294,237,212c0,0,-28,-36,-46,-81H774V0Z" 
id="f1_l"
transform="scale(0.001,-0.001)" />

<path d="M424,-28c0,0,-180,0,-272,86c0,0,-92,87,-100,266H192c0,0,12,-126,66,-180c0,0,55,-54,170,-54c0,0,100,0,163,57c0,0,64,57,64,147c0,0,0,94,-61,149c0,0,-52,48,-135,54c0,0,-38,2,-72,2c0,0,-34,0,-45,-3V613c0,0,17,-3,51,-3c0,0,35,0,68,4c0,0,66,8,106,43c0,0,55,45,55,125c0,0,0,77,-58,125c0,0,-58,48,-148,48c0,0,-96,0,-147,-58c0,0,-51,-59,-56,-175H82c0,0,0,168,89,260c0,0,88,93,250,93c0,0,153,0,247,-77c0,0,94,-76,94,-202c0,0,0,-124,-95,-201c0,0,-18,-15,-39,-27c0,0,39,-17,69,-41c0,0,101,-79,101,-214c0,0,0,-151,-105,-246c0,0,-104,-95,-269,-95Z" 
id="f1_m"
transform="scale(0.001,-0.001)" />

<path d="M17,0L389,412L201,800H376L500,518L742,800H904L554,410L750,0H580L448,303L187,0Z" 
id="f3_2j"
transform="scale(0.001,-0.001)" />

<path d="M431,94c0,0,95,0,170,76c0,0,76,77,101,198c0,0,35,167,-1,250c0,0,-37,84,-144,84c0,0,-128,0,-210,-117c0,0,-81,-117,-81,-302c0,0,0,-90,43,-139c0,0,44,-50,122,-50ZM400,-20c0,0,-126,0,-199,79c0,0,-73,80,-73,219c0,0,0,234,122,390c0,0,122,155,305,155c0,0,144,0,209,-127l8,-16l86,417H993L767,0H638l22,108L642,90C642,90,532,-20,400,-20Z" 
id="f3_1z"
transform="scale(0.001,-0.001)" />

<path d="M0,356v74H784V356Z" 
id="f2_h"
transform="scale(0.001,-0.001)" />

<path d="M355,0V355H0v72H355V784h72V427H782V355H427V0Z" 
id="f2_f"
transform="scale(0.001,-0.001)" />

<path d="M238,-163c0,0,-39,0,-63,25c0,0,-25,26,-25,65c0,0,0,34,19,54c0,0,19,19,48,19c0,0,30,0,51,-23c0,0,22,-24,37,-24c0,0,12,0,21,11c0,0,8,10,8,35c0,0,0,30,-7,88c0,0,-27,235,-27,620c0,0,13,411,17,446c0,0,17,139,60,188c0,0,43,48,98,48c0,0,37,0,65,-25c0,0,28,-25,28,-54c0,0,0,-35,-19,-57c0,0,-20,-21,-49,-21c0,0,-26,0,-57,27c0,0,-17,15,-30,15c0,0,-12,0,-21,-11c0,0,-8,-11,-8,-37c0,0,0,-31,6,-108c0,0,28,-306,28,-496c0,0,0,-50,-12,-439c0,0,-6,-219,-67,-296c0,0,-41,-50,-101,-50Z" 
id="f2_50"
transform="scale(0.001,-0.001)" />

<path d="M511,373V863L169,383l-7,-10ZM511,0V258H38V383l496,691H646V373H799V258H646V0Z" 
id="f1_n"
transform="scale(0.001,-0.001)" />

<path d="M393,-20c0,0,-169,0,-252,65c0,0,-83,67,-92,210H178c0,0,10,-85,61,-123c0,0,50,-38,154,-38c0,0,90,0,136,34c0,0,47,35,47,100c0,0,0,42,-31,64c0,0,-30,21,-123,43L283,368c0,0,-112,27,-160,75c0,0,-48,48,-48,135c0,0,0,112,80,178c0,0,81,66,218,66c0,0,140,0,222,-68c0,0,82,-67,88,-187H557c0,0,-6,67,-55,103c0,0,-48,37,-129,37c0,0,-84,0,-127,-29c0,0,-44,-29,-44,-85c0,0,0,-43,31,-65c0,0,30,-21,121,-43L493,452c0,0,117,-28,167,-78c0,0,49,-49,49,-138c0,0,0,-119,-86,-188c0,0,-85,-68,-230,-68Z" 
id="f1_2e"
transform="scale(0.001,-0.001)" />

<path d="M99,0V799H226V681l30,39c0,0,87,102,219,102c0,0,132,0,203,-71c0,0,72,-72,72,-204V0H616V502c0,0,0,105,-41,151c0,0,-40,47,-132,47c0,0,-97,0,-154,-73c0,0,-56,-74,-56,-199V0Z" 
id="f1_29"
transform="scale(0.001,-0.001)" />

<path d="M394,-20c0,0,-159,0,-253,113c0,0,-95,114,-95,307c0,0,0,193,98,308c0,0,98,114,264,114c0,0,144,0,230,-78c0,0,85,-79,91,-217H600c0,0,-8,86,-59,133c0,0,-52,47,-138,47c0,0,-101,0,-159,-82c0,0,-58,-82,-58,-225c0,0,0,-152,54,-229c0,0,53,-77,159,-77c0,0,79,0,132,50c0,0,52,51,69,143H729C729,287,709,137,623,58c0,0,-86,-78,-229,-78Z" 
id="f1_1y"
transform="scale(0.001,-0.001)" />

<path d="M424,94c0,0,107,0,169,83c0,0,63,83,63,223c0,0,0,140,-63,224c0,0,-62,83,-169,83c0,0,-106,0,-168,-83c0,0,-62,-84,-62,-224c0,0,0,-140,62,-223c0,0,62,-83,168,-83Zm0,-114c0,0,-165,0,-268,115C156,95,54,211,54,400c0,0,0,189,102,306c0,0,103,116,268,116c0,0,168,0,270,-116c0,0,102,-117,102,-306c0,0,0,-189,-102,-305C694,95,592,-20,424,-20Z" 
id="f1_2a"
transform="scale(0.001,-0.001)" />

<path d="M17,0L301,412L32,799H205L389,514L574,799H740L471,410L749,0H581L382,305L186,0Z" 
id="f1_2j"
transform="scale(0.001,-0.001)" />

<path d="M292,-9c0,0,-88,0,-124,38c0,0,-36,39,-36,134V689H22V799H132v224H266V799H392V689H266V163c0,0,0,-27,21,-43c0,0,21,-15,57,-15h48V1C392,1,324,-9,292,-9Z" 
id="f1_2f"
transform="scale(0.001,-0.001)" />

<path d="M335,90c0,0,106,0,179,57c0,0,50,41,67,91c0,0,3,10,4,31c0,0,3,21,3,47v87c0,0,-38,-18,-83,-25L381,360c0,0,-97,-13,-142,-45c0,0,-44,-31,-44,-86c0,0,0,-67,36,-103c0,0,37,-36,104,-36ZM309,-20c0,0,-117,0,-186,61c0,0,-68,63,-68,169c0,0,0,108,64,171c0,0,65,64,189,79l183,23c0,0,22,3,42,8c0,0,26,7,40,27c0,0,15,20,15,51v6c0,0,0,64,-49,101c0,0,-48,36,-135,36c0,0,-83,0,-130,-38c0,0,-46,-39,-56,-115H94c0,0,10,131,92,197c0,0,83,66,238,66c0,0,145,0,222,-63c0,0,76,-63,76,-184V137c0,0,0,-21,12,-33c0,0,12,-12,33,-12c0,0,6,0,18,1c0,0,11,2,25,5V1c0,0,-20,-7,-41,-11c0,0,-22,-5,-37,-5c0,0,-76,0,-110,41c0,0,-22,28,-32,79c0,0,-15,-19,-34,-36c0,0,-101,-89,-247,-89Z" 
id="f1_1w"
transform="scale(0.001,-0.001)" />

<path d="M419,483c0,0,93,0,152,66c0,0,59,66,59,169c0,0,0,103,-59,169c0,0,-59,65,-152,65c0,0,-94,0,-153,-65c0,0,-59,-66,-59,-169c0,0,0,-103,59,-169c0,0,59,-66,153,-66ZM397,-28c0,0,-143,0,-227,75c0,0,-85,77,-91,211H209c0,0,8,-83,57,-128c0,0,49,-45,131,-45c0,0,121,0,186,135c0,0,48,101,62,265C645,485,545,362,397,362c0,0,-150,0,-241,98c0,0,-91,98,-91,258c0,0,0,160,99,258c0,0,99,98,262,98c0,0,173,0,266,-123c0,0,94,-123,94,-349c0,0,0,-303,-101,-467C685,135,583,-28,397,-28Z" 
id="f1_s"
transform="scale(0.001,-0.001)" />

<path d="M424,92c0,0,98,0,161,58c0,0,62,58,62,149c0,0,0,92,-62,151c0,0,-63,58,-161,58c0,0,-98,0,-160,-58c0,0,-63,-59,-63,-151c0,0,0,-91,63,-149c0,0,62,-58,160,-58Zm0,533c0,0,82,0,134,46c0,0,52,45,52,118c0,0,0,72,-52,118c0,0,-52,46,-134,46c0,0,-82,0,-134,-46c0,0,-52,-46,-52,-118c0,0,0,-73,52,-119c0,0,52,-45,134,-45Zm0,-653c0,0,-165,0,-265,90C159,62,59,154,59,305c0,0,0,134,100,216c0,0,35,28,78,47c0,0,-27,15,-52,33c0,0,-90,70,-90,185c0,0,0,130,90,209c0,0,91,80,239,80c0,0,148,0,238,-80c0,0,91,-79,91,-209c0,0,0,-115,-91,-185c0,0,-24,-19,-52,-32c0,0,44,-20,79,-49c0,0,101,-81,101,-215c0,0,0,-151,-101,-243c0,0,-100,-90,-265,-90Z" 
id="f1_r"
transform="scale(0.001,-0.001)" />

<path d="M429,373V877L73,373ZM429,0V267H0v95l470,671h82V373H688V267H552V0Z" 
id="f2_o"
transform="scale(0.001,-0.001)" />

<path d="M131,0V1097H934V966H280V631H877V500H280V131H942V0Z" 
id="f1_14"
transform="scale(0.001,-0.001)" />

<path d="M103,0V1097H237V0Z" 
id="f1_27"
transform="scale(0.001,-0.001)" />

<path d="M375,-20c0,0,-136,0,-203,66c0,0,-68,68,-68,204V799H238V284c0,0,0,-101,38,-146c0,0,39,-44,127,-44c0,0,97,0,153,75c0,0,57,75,57,203V799H747V0H620V122c0,0,-14,-22,-30,-41C590,81,504,-20,375,-20Z" 
id="f1_2g"
transform="scale(0.001,-0.001)" />

<path d="M649,461c0,0,-6,111,-55,172c0,0,-55,69,-160,69c0,0,-106,0,-170,-79c0,0,-50,-62,-60,-162ZM425,-20c0,0,-169,0,-266,106c0,0,-97,107,-97,297c0,0,0,201,102,320c0,0,103,119,276,119c0,0,157,0,253,-116c0,0,96,-117,96,-306l-1,-48H204c0,0,8,-119,54,-182c0,0,57,-76,180,-76c0,0,77,0,134,43c0,0,58,43,70,110H775C775,247,746,116,656,47c0,0,-90,-67,-231,-67Z" 
id="f1_20"
transform="scale(0.001,-0.001)" />

<path d="M133,0V162H292V0Zm0,628V790H292V628Z" 
id="f1_t"
transform="scale(0.001,-0.001)" />

<path d="M417,-28c0,0,-161,0,-259,79c0,0,-98,81,-109,223H189c0,0,11,-90,72,-139c0,0,61,-49,162,-49c0,0,96,0,158,68c0,0,61,68,61,175c0,0,0,112,-64,178c0,0,-64,66,-173,66c0,0,-59,0,-115,-28c0,0,-55,-29,-84,-73L93,480l77,573H727V922H271L225,629l4,3c0,0,89,60,188,60c0,0,169,0,269,-94c0,0,99,-93,99,-253c0,0,0,-165,-103,-269C682,76,579,-28,417,-28Z" 
id="f1_o"
transform="scale(0.001,-0.001)" />

<path d="M354,90c0,0,107,0,192,57c0,0,60,41,87,95c0,0,5,12,11,33c0,0,6,20,11,44l18,88c0,0,-62,-26,-132,-37L414,352c0,0,-84,-11,-131,-56c0,0,-47,-45,-47,-113c0,0,0,-44,31,-69c0,0,31,-24,87,-24ZM306,-20c0,0,-99,0,-156,47c0,0,-57,49,-57,134c0,0,1,117,81,198c0,0,80,81,211,98l164,20l70,10c0,0,35,6,59,30c0,0,23,24,31,66l1,2c0,0,13,64,-25,94c0,0,-39,31,-132,31c0,0,-83,0,-137,-37c0,0,-54,-37,-84,-114H210c0,0,46,137,138,201c0,0,92,63,245,63c0,0,149,0,211,-59c0,0,45,-44,44,-116c0,0,1,-30,-6,-63L749,136c0,0,-4,-19,6,-32c0,0,10,-12,30,-12c0,0,6,0,19,1c0,0,12,2,25,5L809,1c0,0,-19,-6,-43,-11c0,0,-22,-5,-36,-5c0,0,-73,0,-100,43c0,0,-16,27,-17,75C612,102,594,85,573,69c0,0,-120,-89,-267,-89Z" 
id="f3_1w"
transform="scale(0.001,-0.001)" />

<path d="M748,462c0,0,3,31,3,63c0,0,0,86,-45,132c0,0,-46,45,-134,45c0,0,-100,0,-180,-85c0,0,-58,-63,-90,-155ZM419,-20c0,0,-136,0,-213,73c0,0,-77,74,-78,206c0,0,0,25,4,58c0,0,4,32,10,63c0,0,44,208,169,326c0,0,125,117,305,117c0,0,128,0,198,-73c0,0,71,-73,71,-207c0,0,1,-100,-24,-189H278l-4,-25c0,0,-3,-30,-3,-55c0,0,0,-90,44,-134c0,0,44,-45,133,-45c0,0,87,0,156,44c0,0,68,45,95,117H830C830,256,782,126,674,52c0,0,-108,-72,-255,-72Z" 
id="f3_20"
transform="scale(0.001,-0.001)" />

<path d="M456,95c0,0,130,0,213,121c0,0,82,120,82,310c0,0,0,85,-44,131c0,0,-44,46,-125,46c0,0,-98,0,-174,-90c0,0,-76,-90,-108,-245c0,0,-26,-126,16,-199c0,0,42,-74,140,-74ZM436,-20c0,0,-132,0,-195,108l-5,7L217,0H89L316,1097H450L365,683l10,11c0,0,120,129,262,129c0,0,121,0,190,-77c0,0,69,-77,69,-211c0,0,0,-234,-134,-395C762,140,629,-20,436,-20Z" 
id="f3_1x"
transform="scale(0.001,-0.001)" />

<path d="M398,-20c0,0,-133,0,-209,72c0,0,-76,74,-76,202v3c0,0,0,27,4,60c0,0,4,33,10,63c0,0,43,208,168,326c0,0,126,117,306,117c0,0,131,0,192,-75c0,0,49,-61,50,-168l-3,-52H710c0,0,4,87,-33,131c0,0,-37,45,-113,45c0,0,-110,0,-184,-81c0,0,-75,-82,-107,-238c0,0,-6,-28,-9,-56c0,0,-3,-28,-3,-50c0,0,0,-88,43,-136c0,0,43,-48,121,-48c0,0,76,0,137,49c0,0,61,48,92,136H788C788,280,737,138,633,58c0,0,-103,-78,-235,-78Z" 
id="f3_1y"
transform="scale(0.001,-0.001)" />

<path d="M0,368V478H849V368Z" 
id="f1_99"
transform="scale(0.001,-0.001)" />

<path d="M432,92c0,0,96,0,156,66c0,0,61,65,61,169c0,0,0,103,-61,169c0,0,-60,66,-156,66c0,0,-95,0,-156,-66c0,0,-61,-66,-61,-169c0,0,0,-104,61,-169c0,0,61,-66,156,-66ZM425,-28c0,0,-176,0,-271,135c0,0,-95,136,-95,388c0,0,0,278,103,429c0,0,103,151,293,151c0,0,142,0,226,-77c0,0,84,-76,90,-211H638c0,0,-8,80,-56,123c0,0,-47,43,-127,43c0,0,-125,0,-192,-119c0,0,-58,-102,-64,-278c0,0,100,127,255,127c0,0,152,0,245,-98c0,0,93,-98,93,-258c0,0,0,-161,-101,-259c0,0,-101,-96,-266,-96Z" 
id="f1_p"
transform="scale(0.001,-0.001)" />

<path d="M62,-123V268c0,0,0,230,56,452c0,0,47,190,134,334c0,0,87,144,204,242c0,0,85,73,194,119l18,-16c0,0,-211,-145,-335,-339c0,0,-98,-156,-149,-374c0,0,-50,-218,-50,-403V-123Z" 
id="f2_4o"
transform="scale(0.001,-0.001)" />

<path d="M617,-123V283c0,0,0,236,-63,459c0,0,-63,223,-188,392c0,0,-108,146,-282,265l17,16c0,0,180,-76,320,-248c0,0,139,-172,204,-417c0,0,64,-245,64,-482V-123Z" 
id="f2_54"
transform="scale(0.001,-0.001)" />

<path d="M62,-123V1415h72V-123Z" 
id="f2_4p"
transform="scale(0.001,-0.001)" />

<path d="M617,-123V1415h72V-123Z" 
id="f2_55"
transform="scale(0.001,-0.001)" />

<path d="M650,-123c0,0,-180,75,-319,246c0,0,-140,172,-205,418c0,0,-64,245,-64,481v393h72V1007c0,0,0,-236,63,-459c0,0,63,-223,189,-391c0,0,108,-145,282,-265l-18,-15Z" 
id="f2_4q"
transform="scale(0.001,-0.001)" />

<path d="M101,-123l-17,15c0,0,210,144,334,339c0,0,99,156,149,373c0,0,50,218,50,403v408h72V1022c0,0,0,-230,-56,-451c0,0,-48,-191,-134,-335C499,236,412,92,295,-5c0,0,-84,-73,-194,-118Z" 
id="f2_56"
transform="scale(0.001,-0.001)" />

<path d="M418,95c0,0,98,0,158,73c0,0,59,73,59,193c0,0,0,170,-54,254c0,0,-54,85,-163,85c0,0,-113,0,-165,-72c0,0,-52,-71,-52,-227c0,0,0,-147,57,-227c0,0,56,-79,160,-79ZM394,-336c0,0,-136,0,-216,62c0,0,-79,63,-96,182H219c0,0,12,-64,57,-98c0,0,45,-35,116,-35c0,0,116,0,176,73c0,0,61,73,61,211V85l-1,-1C628,84,545,-20,412,-20c0,0,-161,0,-256,118c0,0,-94,120,-94,324c0,0,0,179,93,290c0,0,93,110,244,110c0,0,144,0,228,-124l10,-14V799H763V59c0,0,-1,-201,-91,-298c0,0,-91,-97,-278,-97Z" 
id="f1_22"
transform="scale(0.001,-0.001)" />

<path d="M0,-123V985c0,0,0,202,88,304c0,0,88,101,278,126v-33c0,0,-112,-27,-179,-86c0,0,-67,-59,-91,-136c0,0,-24,-76,-24,-252V-123Z" 
id="f2_4u"
transform="scale(0.001,-0.001)" />

<path d="M313,-123V908c0,0,0,111,-11,190c0,0,-11,80,-46,133c0,0,-35,54,-94,93c0,0,-59,39,-141,58v33c0,0,189,-25,276,-126c0,0,88,-101,88,-304V-123Z" 
id="f2_5a"
transform="scale(0.001,-0.001)" />

<path d="M0,-123V1415H73V-123Z" 
id="f2_4x"
transform="scale(0.001,-0.001)" />

<path d="M293,-123V191c0,0,0,200,-67,292c0,0,-67,92,-226,135v57c0,0,159,44,226,135c0,0,67,92,67,292v313h73V1088c0,0,0,-108,-23,-189c0,0,-22,-80,-61,-127c0,0,-39,-46,-95,-75c0,0,-56,-28,-153,-51c0,0,97,-21,157,-52c0,0,61,-31,99,-82c0,0,39,-51,57,-125c0,0,19,-74,19,-180V-123Z" 
id="f2_4v"
transform="scale(0.001,-0.001)" />

<path d="M313,-123V203c0,0,0,108,22,188c0,0,23,81,62,127c0,0,39,47,95,76c0,0,56,29,153,50c0,0,-98,22,-158,53c0,0,-60,32,-99,82c0,0,-39,50,-57,124c0,0,-18,74,-18,181v331h72V1099c0,0,0,-200,67,-291c0,0,68,-92,227,-135V616c0,0,-159,-44,-227,-136c0,0,-67,-92,-67,-292V-123Z" 
id="f2_5b"
transform="scale(0.001,-0.001)" />

<path d="M679,-123c0,0,-190,24,-278,124c0,0,-88,101,-88,305V1415h72V383c0,0,0,-111,12,-191c0,0,11,-79,46,-133c0,0,35,-53,94,-91c0,0,59,-39,142,-58v-33Z" 
id="f2_4w"
transform="scale(0.001,-0.001)" />

<path d="M21,-123v33c0,0,111,26,178,86c0,0,67,58,90,134c0,0,24,77,24,253V1415h72V306c0,0,0,-203,-88,-304C297,2,210,-99,21,-123Z" 
id="f2_5c"
transform="scale(0.001,-0.001)" />

<path d="M415,-18c0,0,-149,0,-244,83c0,0,-94,84,-107,222l140,11c0,0,16,-103,73,-154c0,0,56,-52,137,-52c0,0,98,0,165,73c0,0,66,73,66,194c0,0,0,115,-64,182c0,0,-64,66,-169,66c0,0,-65,0,-117,-29c0,0,-52,-30,-82,-77L87,517l106,562H736V951H300L241,657c0,0,99,69,207,69c0,0,143,0,242,-100c0,0,98,-99,98,-255c0,0,0,-149,-86,-257C702,114,597,-18,415,-18Z" 
id="f4_p"
transform="scale(0.001,-0.001)" />

<path d="M125,0V1051H268V115H799V0Z" 
id="f0_1c"
transform="scale(0.001,-0.001)" />

<path d="M106,0V620c0,0,0,85,-5,188H228c0,0,6,-138,6,-165h3c0,0,32,103,74,141c0,0,42,38,118,38c0,0,27,0,54,-7V692c0,0,-26,7,-71,7c0,0,-84,0,-128,-72c0,0,-44,-72,-44,-206V0Z" 
id="f0_2e"
transform="scale(0.001,-0.001)" />

<path d="M606,-14c0,0,-164,0,-284,65c0,0,-119,66,-182,189c0,0,-63,123,-63,291c0,0,0,255,137,396c0,0,137,140,386,140c0,0,174,0,283,-59c0,0,109,-59,168,-189L915,779c0,0,-44,90,-123,131c0,0,-79,41,-196,41c0,0,-182,0,-278,-110c0,0,-96,-110,-96,-310c0,0,0,-200,102,-315c0,0,102,-115,282,-115c0,0,103,0,193,31c0,0,89,31,144,85V407H629V526h445V164c0,0,-83,-85,-205,-132c0,0,-121,-46,-263,-46Z" 
id="f0_17"
transform="scale(0.001,-0.001)" />

<path d="M355,-14c0,0,-133,0,-194,65c0,0,-62,66,-62,219V808H234V296c0,0,0,-80,16,-124c0,0,16,-44,50,-64c0,0,34,-19,101,-19c0,0,97,0,153,66c0,0,55,67,55,185V808H744V172c0,0,0,-141,4,-172H621c0,0,0,4,-1,20c0,0,-1,17,-2,38c0,0,-1,21,-3,80h-2C613,138,567,55,506,20c0,0,-61,-34,-151,-34Z" 
id="f0_2h"
transform="scale(0.001,-0.001)" />

<path d="M395,89c0,0,115,0,166,79c0,0,51,79,51,246c0,0,0,160,-51,235c0,0,-51,75,-164,75c0,0,-102,0,-147,-75c0,0,-45,-75,-45,-244c0,0,0,-170,45,-243c0,0,45,-73,145,-73ZM361,-14c0,0,-153,0,-225,102c0,0,-72,103,-72,312c0,0,0,422,297,422c0,0,92,0,153,-33c0,0,61,-34,98,-107h2l-2,90v335H747V166c0,0,0,-126,4,-166H623c0,0,-2,12,-5,55c0,0,-3,44,-3,75h-3c0,0,-37,-78,-98,-111c0,0,-62,-33,-153,-33Z" 
id="f0_20"
transform="scale(0.001,-0.001)" />

<path d="M140,0V163H285V0Z" 
id="f0_i"
transform="scale(0.001,-0.001)" />


</defs>
</svg>