<?xml version="1.0" encoding="UTF-8" standalone="no"?>
<!DOCTYPE svg PUBLIC "-//W3C//DTD SVG 1.1//EN"
"http://www.w3.org/Graphics/SVG/1.1/DTD/svg11.dtd">
<svg viewBox="0 0 811 1133" version="1.1" xmlns="http://www.w3.org/2000/svg" xmlns:xlink="http://www.w3.org/1999/xlink">
<defs>
<style type="text/css"><![CDATA[
.g0_66{
fill: none;
stroke: #000000;
stroke-width: 0.7638889;
stroke-linecap: round;
stroke-linejoin: miter;
}
.g1_66{
fill: none;
stroke: #000000;
stroke-width: 0.76584446;
stroke-linecap: round;
stroke-linejoin: miter;
}
.g2_66{
fill: none;
stroke: #000000;
stroke-width: 0.38292223;
stroke-linecap: round;
stroke-linejoin: miter;
}
.g3_66{
fill: none;
stroke: #000000;
stroke-width: 0.38072222;
stroke-linecap: round;
stroke-linejoin: miter;
}
.g4_66{
fill: none;
stroke: #000000;
stroke-width: 0.76144445;
stroke-linecap: round;
stroke-linejoin: miter;
}
.g5_66{
fill: none;
stroke: #000000;
stroke-width: 0.38194445;
stroke-linecap: round;
stroke-linejoin: miter;
}
.g6_66{
fill: none;
stroke: #000000;
stroke-width: 0.7660889;
stroke-linecap: round;
stroke-linejoin: miter;
}
.g7_66{
fill: none;
stroke: #000000;
stroke-width: 0.15277778;
stroke-linecap: round;
stroke-linejoin: miter;
}
.g8_66{
}
.g9_66{
fill: none;
stroke: #000000;
stroke-width: 0.7619333;
stroke-linecap: round;
stroke-linejoin: miter;
}
.g10_66{
fill: none;
stroke: #000000;
stroke-width: 0.7653555;
stroke-linecap: round;
stroke-linejoin: miter;
}
.g11_66{
fill: none;
stroke: #000000;
stroke-width: 0.7663334;
stroke-linecap: round;
stroke-linejoin: miter;
}
]]></style>
</defs>
<g fill="#D4D4D4" fill-opacity="0.56" >
<use xlink:href="#f0_1f" transform="matrix(50.9,-50.9,50.9,50.9,199.9,924.1)" />
<use xlink:href="#f0_2a" transform="matrix(50.9,-50.9,50.9,50.9,260.4,863.6)" />
<use xlink:href="#f0_28" transform="matrix(50.9,-50.9,50.9,50.9,303.7,820.3)" />
<use xlink:href="#f0_25" transform="matrix(50.9,-50.9,50.9,50.9,320.9,803.1)" />
<use xlink:href="#f0_2a" transform="matrix(50.9,-50.9,50.9,50.9,338.2,785.8)" />
<use xlink:href="#f0_21" transform="matrix(50.9,-50.9,50.9,50.9,381.4,742.5)" />
<use xlink:href="#f0_2k" transform="matrix(50.9,-50.9,50.9,50.9,424.7,699.3)" />
<use xlink:href="#f0_1x" transform="matrix(50.9,-50.9,50.9,50.9,463.6,660.4)" />
<use xlink:href="#f0_29" transform="matrix(50.9,-50.9,50.9,50.9,506.8,617.2)" />
<use xlink:href="#f0_2c" transform="matrix(50.9,-50.9,50.9,50.9,571.6,552.4)" />
<use xlink:href="#f0_2b" transform="matrix(50.9,-50.9,50.9,50.9,614.9,509.1)" />
<use xlink:href="#f0_25" transform="matrix(50.9,-50.9,50.9,50.9,658.1,465.9)" />
<use xlink:href="#f0_2a" transform="matrix(50.9,-50.9,50.9,50.9,675.4,448.6)" />
<use xlink:href="#f0_2g" transform="matrix(50.9,-50.9,50.9,50.9,718.6,405.4)" />
</g>
<g fill="#000000" >
<use xlink:href="#f1_q" transform="matrix(10.4,0,0,10.4,138.2,88.6)" />
<use xlink:href="#f1_h" transform="matrix(10.4,0,0,10.4,147.1,88.6)" />
<use xlink:href="#f1_j" transform="matrix(10.4,0,0,10.4,169.9,88.6)" />
<use xlink:href="#f1_r" transform="matrix(10.4,0,0,10.4,413.2,88.6)" />
<use xlink:href="#f1_h" transform="matrix(10.4,0,0,10.4,422.1,88.6)" />
</g>
<path d="M448,80.7h30.7m16.5,0h32.7" class="g0_66" />
<g fill="#000000" >
<use xlink:href="#f1_k" transform="matrix(7,0,0,7.1,471.9,67.3)" />
<use xlink:href="#f1_k" transform="matrix(10.7,0,0,10.6,471.7,97.5)" />
<use xlink:href="#f1_27" transform="matrix(10.7,0,0,10.6,495.5,97.5)" />
<use xlink:href="#f1_2a" transform="matrix(10.7,0,0,10.6,499.1,97.5)" />
<use xlink:href="#f1_22" transform="matrix(10.7,0,0,10.6,508.1,97.5)" />
<use xlink:href="#f2_1w" transform="matrix(7,0,0,7.1,459.2,67.3)" />
<use xlink:href="#f2_2j" transform="matrix(7,0,0,7.1,512,67.3)" />
<use xlink:href="#f2_2j" transform="matrix(10.7,0,0,10.6,449,74.5)" />
<use xlink:href="#f2_1w" transform="matrix(10.7,0,0,10.6,502.1,74.5)" />
<use xlink:href="#f2_1y" transform="matrix(10.7,0,0,10.6,543.2,85)" />
<use xlink:href="#f2_1w" transform="matrix(10.7,0,0,10.6,448.1,97.5)" />
<use xlink:href="#f2_1w" transform="matrix(10.7,0,0,10.6,517.9,97.5)" />
<use xlink:href="#f3_f" transform="matrix(7,0,0,7.1,466,67.3)" />
<use xlink:href="#f3_f" transform="matrix(10.6,0,0,10.6,482.5,85)" />
<use xlink:href="#f3_f" transform="matrix(10.6,0,0,10.6,531.7,85)" />
<use xlink:href="#f3_f" transform="matrix(10.6,0,0,10.6,460.7,97.5)" />
<use xlink:href="#f1_s" transform="matrix(10.4,0,0,10.4,138.2,138.4)" />
<use xlink:href="#f1_h" transform="matrix(10.4,0,0,10.4,147.1,138.4)" />
<use xlink:href="#f1_2f" transform="matrix(10.4,0,0,10.4,169.9,138.4)" />
<use xlink:href="#f1_1w" transform="matrix(10.4,0,0,10.4,174.4,138.4)" />
<use xlink:href="#f1_29" transform="matrix(10.4,0,0,10.4,183.2,138.4)" />
<use xlink:href="#f2_2j" transform="matrix(10.4,0,0,10.4,198.7,138.4)" />
<use xlink:href="#f1_e" transform="matrix(10.4,0,0,10.4,213.6,138.4)" />
<use xlink:href="#f2_1y" transform="matrix(10.4,0,0,10.4,229.7,138.4)" />
<use xlink:href="#f1_k" transform="matrix(10.4,0,0,10.4,404.2,138.4)" />
<use xlink:href="#f1_j" transform="matrix(10.4,0,0,10.4,413.1,138.4)" />
<use xlink:href="#f1_h" transform="matrix(10.4,0,0,10.4,422.3,138.4)" />
<use xlink:href="#f1_j" transform="matrix(10.4,0,0,10.4,444.9,138.4)" />
<use xlink:href="#f1_k" transform="matrix(10.4,0,0,10.4,129.2,194.9)" />
<use xlink:href="#f1_k" transform="matrix(10.4,0,0,10.4,138.1,194.9)" />
<use xlink:href="#f1_h" transform="matrix(10.4,0,0,10.4,147.3,194.9)" />
</g>
<path d="M173,190.5h30.5m16.5,0h32.4" class="g0_66" />
<g fill="#000000" >
<use xlink:href="#f1_k" transform="matrix(7,0,0,7,196.6,177)" />
<use xlink:href="#f1_k" transform="matrix(10.5,0,0,10.6,196.5,207.2)" />
<use xlink:href="#f1_27" transform="matrix(10.5,0,0,10.6,220.3,207.2)" />
<use xlink:href="#f1_2a" transform="matrix(10.5,0,0,10.6,223.8,207.2)" />
<use xlink:href="#f1_22" transform="matrix(10.5,0,0,10.6,232.8,207.2)" />
<use xlink:href="#f2_1y" transform="matrix(7,0,0,7,183.9,177)" />
<use xlink:href="#f2_2j" transform="matrix(7,0,0,7,236.5,177)" />
<use xlink:href="#f2_2j" transform="matrix(10.5,0,0,10.6,174,184.3)" />
<use xlink:href="#f2_1y" transform="matrix(10.5,0,0,10.6,226.7,184.3)" />
<use xlink:href="#f2_1y" transform="matrix(10.5,0,0,10.6,267.8,194.7)" />
<use xlink:href="#f2_1y" transform="matrix(10.5,0,0,10.6,172.9,207.2)" />
<use xlink:href="#f2_1y" transform="matrix(10.5,0,0,10.6,242.5,207.2)" />
<use xlink:href="#f3_f" transform="matrix(7,0,0,7,190.8,177)" />
<use xlink:href="#f3_f" transform="matrix(10.5,0,0,10.6,207.3,194.7)" />
<use xlink:href="#f3_f" transform="matrix(10.5,0,0,10.6,256.2,194.7)" />
<use xlink:href="#f3_f" transform="matrix(10.5,0,0,10.6,185.5,207.2)" />
<use xlink:href="#f1_k" transform="matrix(10.4,0,0,10.4,404.2,194.9)" />
<use xlink:href="#f1_l" transform="matrix(10.4,0,0,10.4,413.1,194.9)" />
<use xlink:href="#f1_h" transform="matrix(10.4,0,0,10.4,422.3,194.9)" />
<use xlink:href="#f2_21" transform="matrix(10.4,0,0,10.4,444.9,194.9)" />
<use xlink:href="#f1_b" transform="matrix(10.4,0,0,10.4,449.3,194.9)" />
<use xlink:href="#f2_2j" transform="matrix(10.4,0,0,10.4,454.6,194.9)" />
<use xlink:href="#f1_c" transform="matrix(10.4,0,0,10.4,462.7,194.9)" />
<use xlink:href="#f1_e" transform="matrix(10.4,0,0,10.4,474.6,194.9)" />
<use xlink:href="#f2_1y" transform="matrix(10.4,0,0,10.4,490.8,194.9)" />
<use xlink:href="#f1_k" transform="matrix(10.4,0,0,10.4,129.2,261.8)" />
<use xlink:href="#f1_m" transform="matrix(10.4,0,0,10.4,138.1,261.8)" />
<use xlink:href="#f1_h" transform="matrix(10.4,0,0,10.4,147.3,261.8)" />
<use xlink:href="#f1_2f" transform="matrix(10.4,0,0,10.4,169.9,261.8)" />
<use xlink:href="#f1_1w" transform="matrix(10.4,0,0,10.4,174.4,261.8)" />
<use xlink:href="#f1_29" transform="matrix(10.4,0,0,10.4,183.2,261.8)" />
<use xlink:href="#f2_2j" transform="matrix(10.4,0,0,10.4,198.7,261.8)" />
<use xlink:href="#f1_99" transform="matrix(10.4,0,0,10.4,213.6,261.8)" />
<use xlink:href="#f1_1y" transform="matrix(10.4,0,0,10.4,229.2,261.8)" />
<use xlink:href="#f1_2a" transform="matrix(10.4,0,0,10.4,237.2,261.8)" />
<use xlink:href="#f1_2f" transform="matrix(10.4,0,0,10.4,246,261.8)" />
<use xlink:href="#f2_2j" transform="matrix(10.4,0,0,10.4,257.2,261.8)" />
<use xlink:href="#f1_e" transform="matrix(10.4,0,0,10.4,272,261.8)" />
<use xlink:href="#f2_1y" transform="matrix(10.4,0,0,10.4,288.4,261.8)" />
<use xlink:href="#f1_k" transform="matrix(10.4,0,0,10.4,404.2,261.8)" />
<use xlink:href="#f1_n" transform="matrix(10.4,0,0,10.4,413.1,261.8)" />
<use xlink:href="#f1_h" transform="matrix(10.4,0,0,10.4,422.3,261.8)" />
</g>
<path d="M448,256.2h10.3" class="g1_66" />
<path d="M480.3,245L477,255.5" class="g2_66" />
<path d="M504.6,256.2h10.3" class="g1_66" />
<g fill="#000000" >
<use xlink:href="#f3_c" transform="matrix(10.3,0,0,11.3,517,258.3)" />
<use xlink:href="#f3_d" transform="matrix(10.3,0,0,11.3,553.8,258.3)" />
</g>
<path d="M568.3,242.9l-3.4,10.5" class="g2_66" />
<g fill="#000000" >
<use xlink:href="#f1_m" transform="matrix(6.9,0,0,6.9,559,251.2)" />
<use xlink:href="#f1_l" transform="matrix(6.9,0,0,6.9,568.9,251.2)" />
<use xlink:href="#f1_m" transform="matrix(6.9,0,0,6.9,471.1,253.2)" />
<use xlink:href="#f1_l" transform="matrix(6.9,0,0,6.9,481,253.2)" />
<use xlink:href="#f1_l" transform="matrix(10.4,0,0,10.4,448.7,250.1)" />
<use xlink:href="#f1_l" transform="matrix(10.4,0,0,10.4,505.2,250.1)" />
<use xlink:href="#f1_k" transform="matrix(10.4,0,0,10.4,546.9,260.4)" />
<use xlink:href="#f1_m" transform="matrix(10.4,0,0,10.4,448.7,272.6)" />
<use xlink:href="#f1_m" transform="matrix(10.4,0,0,10.4,505.2,272.6)" />
<use xlink:href="#f2_2j" transform="matrix(10.4,0,0,10.4,460.9,260.4)" />
<use xlink:href="#f2_2j" transform="matrix(10.4,0,0,10.4,522.8,260.4)" />
<use xlink:href="#f2_1y" transform="matrix(10.4,0,0,10.4,591.3,260.4)" />
<use xlink:href="#f3_h" transform="matrix(10.4,0,0,10.4,492.1,260.4)" />
<use xlink:href="#f3_h" transform="matrix(10.4,0,0,10.4,536,260.4)" />
<use xlink:href="#f3_f" transform="matrix(10.4,0,0,10.4,580,260.4)" />
<use xlink:href="#f1_k" transform="matrix(10.4,0,0,10.4,129.2,328.5)" />
<use xlink:href="#f1_o" transform="matrix(10.4,0,0,10.4,138.1,328.5)" />
<use xlink:href="#f1_h" transform="matrix(10.4,0,0,10.4,147.3,328.5)" />
<use xlink:href="#f1_27" transform="matrix(10.4,0,0,10.4,169.9,328.5)" />
<use xlink:href="#f1_2a" transform="matrix(10.4,0,0,10.4,173.5,328.5)" />
<use xlink:href="#f1_22" transform="matrix(10.4,0,0,10.4,182.3,328.5)" />
<use xlink:href="#f1_2n" transform="matrix(10.4,0,0,10.4,198,328.5)" />
<use xlink:href="#f2_2j" transform="matrix(10.4,0,0,10.4,202,328.5)" />
<use xlink:href="#f1_2n" transform="matrix(10.4,0,0,10.4,210.1,328.5)" />
<use xlink:href="#f1_e" transform="matrix(10.4,0,0,10.4,221,328.5)" />
<use xlink:href="#f2_1y" transform="matrix(10.4,0,0,10.4,237.2,328.5)" />
<use xlink:href="#f1_k" transform="matrix(10.4,0,0,10.4,404.2,328.5)" />
<use xlink:href="#f1_p" transform="matrix(10.4,0,0,10.4,413.1,328.5)" />
<use xlink:href="#f1_h" transform="matrix(10.4,0,0,10.4,422.3,328.5)" />
</g>
<path d="M455.8,323.7h10.5m70,-8.3l-5.1,16.1" class="g3_66" />
<g fill="#000000" >
<use xlink:href="#f3_c" transform="matrix(10.6,0,0,14.2,516.6,328.6)" />
<use xlink:href="#f3_d" transform="matrix(10.6,0,0,14.2,546.5,328.6)" />
</g>
<path d="M497.9,300l-13.2,41.6" class="g4_66" />
<g fill="#000000" >
<use xlink:href="#f1_27" transform="matrix(10.6,0,0,10.6,494,328)" />
<use xlink:href="#f1_2a" transform="matrix(10.6,0,0,10.6,497.6,328)" />
<use xlink:href="#f1_22" transform="matrix(10.6,0,0,10.6,506.6,328)" />
<use xlink:href="#f2_2j" transform="matrix(7,0,0,7,475.2,308.4)" />
<use xlink:href="#f2_20" transform="matrix(10.6,0,0,10.6,455.7,317.8)" />
<use xlink:href="#f2_20" transform="matrix(10.6,0,0,10.6,521.5,328)" />
<use xlink:href="#f2_1w" transform="matrix(10.6,0,0,10.6,536.7,328)" />
<use xlink:href="#f2_1y" transform="matrix(10.6,0,0,10.6,566.1,328)" />
<use xlink:href="#f2_1w" transform="matrix(10.6,0,0,10.6,456.1,340.1)" />
<use xlink:href="#f3_4o" transform="matrix(10.6,0,0,10.6,447,318.8)" />
<use xlink:href="#f3_54" transform="matrix(10.6,0,0,10.6,466.7,318.8)" />
<use xlink:href="#f3_f" transform="matrix(10.6,0,0,10.6,554.5,328)" />
<use xlink:href="#f3_4p" transform="matrix(10.6,0,0,10.6,447,330.2)" />
<use xlink:href="#f3_55" transform="matrix(10.6,0,0,10.6,466.7,330.2)" />
<use xlink:href="#f3_4q" transform="matrix(10.6,0,0,10.6,447,336.8)" />
<use xlink:href="#f3_56" transform="matrix(10.6,0,0,10.6,466.7,336.8)" />
<use xlink:href="#f1_k" transform="matrix(10.4,0,0,10.4,129.2,402.6)" />
<use xlink:href="#f1_q" transform="matrix(10.4,0,0,10.4,138.1,402.6)" />
<use xlink:href="#f1_h" transform="matrix(10.4,0,0,10.4,147.3,402.6)" />
<use xlink:href="#f3_c" transform="matrix(10.5,0,0,11.7,195.8,411.3)" />
<use xlink:href="#f3_d" transform="matrix(10.5,0,0,11.7,219.6,411.2)" />
</g>
<path d="M173,396.4h52.2" class="g0_66" />
<g fill="#000000" >
<use xlink:href="#f1_l" transform="matrix(10.7,0,0,10.6,181.2,390.2)" />
<use xlink:href="#f1_27" transform="matrix(10.7,0,0,10.6,173.2,413.2)" />
<use xlink:href="#f1_2a" transform="matrix(10.7,0,0,10.6,176.8,413.2)" />
<use xlink:href="#f1_22" transform="matrix(10.7,0,0,10.6,185.9,413.2)" />
<use xlink:href="#f1_l" transform="matrix(10.7,0,0,10.6,201.7,413.2)" />
<use xlink:href="#f2_2j" transform="matrix(7,0,0,7.1,190.3,383)" />
<use xlink:href="#f2_2j" transform="matrix(7,0,0,7.1,208.5,383)" />
<use xlink:href="#f2_20" transform="matrix(10.7,0,0,10.6,198.1,390.2)" />
<use xlink:href="#f2_1y" transform="matrix(10.7,0,0,10.6,240.6,400.7)" />
<use xlink:href="#f2_20" transform="matrix(10.7,0,0,10.6,209.3,413.2)" />
<use xlink:href="#f3_f" transform="matrix(10.6,0,0,10.6,229.1,400.7)" />
<use xlink:href="#f1_k" transform="matrix(10.4,0,0,10.4,404.2,402.6)" />
<use xlink:href="#f1_r" transform="matrix(10.4,0,0,10.4,413.1,402.6)" />
<use xlink:href="#f1_h" transform="matrix(10.4,0,0,10.4,422.3,402.6)" />
</g>
<path d="M448,395.9h10.2" class="g0_66" />
<g fill="#000000" >
<use xlink:href="#f3_c" transform="matrix(10.4,0,0,11.3,460.4,398)" />
<use xlink:href="#f3_d" transform="matrix(10.4,0,0,11.3,497.4,397.9)" />
</g>
<path d="M511.8,382.5L508.4,393" class="g5_66" />
<g fill="#000000" >
<use xlink:href="#f3_c" transform="matrix(10.4,0,0,11.3,545.7,398)" />
<use xlink:href="#f3_d" transform="matrix(10.4,0,0,11.3,582.8,397.9)" />
</g>
<path d="M594.6,382.5L591.3,393" class="g5_66" />
<g fill="#000000" >
<use xlink:href="#f1_m" transform="matrix(6.9,0,0,6.9,502.5,390.7)" />
<use xlink:href="#f1_l" transform="matrix(6.9,0,0,6.9,512.4,390.7)" />
<use xlink:href="#f1_k" transform="matrix(6.9,0,0,6.9,587.2,390.7)" />
<use xlink:href="#f1_l" transform="matrix(6.9,0,0,6.9,595.4,390.7)" />
<use xlink:href="#f1_l" transform="matrix(10.4,0,0,10.4,448.6,389.8)" />
<use xlink:href="#f1_k" transform="matrix(10.4,0,0,10.4,490.4,400.1)" />
<use xlink:href="#f1_l" transform="matrix(10.4,0,0,10.4,535.5,400.1)" />
<use xlink:href="#f1_k" transform="matrix(10.4,0,0,10.4,575.9,400.1)" />
<use xlink:href="#f1_h" transform="matrix(10.4,0,0,10.4,626.4,400.1)" />
<use xlink:href="#f1_m" transform="matrix(10.4,0,0,10.4,448.5,412.3)" />
<use xlink:href="#f2_2j" transform="matrix(10.4,0,0,10.4,466.1,400.1)" />
<use xlink:href="#f2_2j" transform="matrix(10.4,0,0,10.4,551.5,400.1)" />
<use xlink:href="#f2_1y" transform="matrix(10.4,0,0,10.4,617.7,400.1)" />
<use xlink:href="#f3_f" transform="matrix(10.5,0,0,10.4,479.4,400.1)" />
<use xlink:href="#f3_h" transform="matrix(10.5,0,0,10.4,523.5,400.1)" />
<use xlink:href="#f3_f" transform="matrix(10.5,0,0,10.4,564.9,400.1)" />
<use xlink:href="#f3_f" transform="matrix(10.5,0,0,10.4,606.2,400.1)" />
<use xlink:href="#f1_k" transform="matrix(10.4,0,0,10.4,129.2,473.7)" />
<use xlink:href="#f1_s" transform="matrix(10.4,0,0,10.4,138.1,473.7)" />
<use xlink:href="#f1_h" transform="matrix(10.4,0,0,10.4,147.3,473.7)" />
</g>
<path d="M195.8,458.7v14.8M230,458.7v14.8m17.4,-5.4h32.3" class="g6_66" />
<g fill="#000000" >
<use xlink:href="#f1_k" transform="matrix(10.4,0,0,10.4,259.7,462)" />
<use xlink:href="#f1_27" transform="matrix(10.4,0,0,10.4,172.1,472.3)" />
<use xlink:href="#f1_2a" transform="matrix(10.4,0,0,10.4,175.6,472.3)" />
<use xlink:href="#f1_22" transform="matrix(10.4,0,0,10.4,184.6,472.3)" />
<use xlink:href="#f1_k" transform="matrix(10.4,0,0,10.4,222.3,472.3)" />
<use xlink:href="#f1_h" transform="matrix(10.4,0,0,10.4,303.7,472.3)" />
<use xlink:href="#f1_k" transform="matrix(10.4,0,0,10.4,272.6,484.5)" />
<use xlink:href="#f2_2j" transform="matrix(10.4,0,0,10.4,198,472.3)" />
<use xlink:href="#f2_1y" transform="matrix(10.4,0,0,10.4,294.9,472.3)" />
<use xlink:href="#f2_2j" transform="matrix(10.4,0,0,10.4,248.3,484.5)" />
<use xlink:href="#f3_f" transform="matrix(10.4,0,0,10.4,211.3,472.3)" />
<use xlink:href="#f3_f" transform="matrix(10.4,0,0,10.4,234.6,472.3)" />
<use xlink:href="#f3_f" transform="matrix(10.4,0,0,10.4,283.5,472.3)" />
<use xlink:href="#f3_f" transform="matrix(10.4,0,0,10.4,261.7,484.5)" />
<use xlink:href="#f1_l" transform="matrix(10.4,0,0,10.4,404.2,473.7)" />
<use xlink:href="#f1_j" transform="matrix(10.4,0,0,10.4,413.1,473.7)" />
<use xlink:href="#f1_h" transform="matrix(10.4,0,0,10.4,422.3,473.7)" />
</g>
<path d="M465.8,467.7l1.1,-.6l2.6,4.3L472.3,460H480" class="g7_66" />
<path fill-rule="evenodd" d="M465.8,467.6l1.3,-.8l2.4,3.6l2.7,-10.6H480v.5h-7.5l-2.7,11.1h-.5l-2.7,-3.9l-.7,.4l-.1,-.3Z" class="g8_66" />
<g fill="#000000" >
<use xlink:href="#f1_l" transform="matrix(10.7,0,0,10.7,447.4,477.9)" />
<use xlink:href="#f2_2j" transform="matrix(7.2,0,0,7.1,472.9,470.5)" />
<use xlink:href="#f2_20" transform="matrix(10.7,0,0,10.7,455.2,477.9)" />
<use xlink:href="#f2_1y" transform="matrix(10.7,0,0,10.7,497,477.9)" />
<use xlink:href="#f3_f" transform="matrix(10.7,0,0,10.7,485.5,477.9)" />
<use xlink:href="#f1_l" transform="matrix(10.4,0,0,10.4,129.2,543.6)" />
<use xlink:href="#f1_k" transform="matrix(10.4,0,0,10.4,138.1,543.6)" />
<use xlink:href="#f1_h" transform="matrix(10.4,0,0,10.4,147.3,543.6)" />
<use xlink:href="#f2_2j" transform="matrix(10.4,0,0,10.4,169.9,543.6)" />
<use xlink:href="#f1_1y" transform="matrix(10.4,0,0,10.4,184.6,543.6)" />
<use xlink:href="#f1_2a" transform="matrix(10.4,0,0,10.4,192.6,543.6)" />
<use xlink:href="#f1_2e" transform="matrix(10.4,0,0,10.4,201.4,543.6)" />
<use xlink:href="#f1_l" transform="matrix(7.4,0,0,7.4,209.5,538.3)" />
<use xlink:href="#f3_1x" transform="matrix(10.4,0,0,10.4,222.5,543.6)" />
<use xlink:href="#f1_e" transform="matrix(10.4,0,0,10.4,239.4,543.6)" />
<use xlink:href="#f2_1y" transform="matrix(10.4,0,0,10.4,255.5,543.6)" />
<use xlink:href="#f1_l" transform="matrix(10.4,0,0,10.4,404.2,543.6)" />
<use xlink:href="#f1_l" transform="matrix(10.4,0,0,10.4,413.1,543.6)" />
<use xlink:href="#f1_h" transform="matrix(10.4,0,0,10.4,422.3,543.6)" />
</g>
<path d="M474.3,518.3v18.4m78.9,-18.4v18.4M448,539H555.2" class="g0_66" />
<g fill="#000000" >
<use xlink:href="#f1_27" transform="matrix(10.5,0,0,10.5,448.2,532)" />
<use xlink:href="#f1_2a" transform="matrix(10.5,0,0,10.5,451.8,532)" />
<use xlink:href="#f1_22" transform="matrix(10.5,0,0,10.5,460.7,532)" />
<use xlink:href="#f1_1y" transform="matrix(10.5,0,0,10.5,490.9,532)" />
<use xlink:href="#f1_2a" transform="matrix(10.5,0,0,10.5,499,532)" />
<use xlink:href="#f1_2e" transform="matrix(10.5,0,0,10.5,507.9,532)" />
<use xlink:href="#f1_k" transform="matrix(10.5,0,0,10.5,542.7,532)" />
<use xlink:href="#f1_h" transform="matrix(10.5,0,0,10.5,579.5,543.3)" />
<use xlink:href="#f1_1y" transform="matrix(10.5,0,0,10.5,483.1,555.7)" />
<use xlink:href="#f1_2a" transform="matrix(10.5,0,0,10.5,491.1,555.7)" />
<use xlink:href="#f1_2e" transform="matrix(10.5,0,0,10.5,500,555.7)" />
<use xlink:href="#f2_2j" transform="matrix(10.5,0,0,10.5,479.3,532)" />
<use xlink:href="#f2_1y" transform="matrix(10.5,0,0,10.5,570.7,543.3)" />
<use xlink:href="#f3_1x" transform="matrix(10.5,0,0,10.5,517.7,532)" />
<use xlink:href="#f3_f" transform="matrix(10.5,0,0,10.5,531.5,532)" />
<use xlink:href="#f3_f" transform="matrix(10.5,0,0,10.5,559.2,543.3)" />
<use xlink:href="#f3_1x" transform="matrix(10.5,0,0,10.5,509.8,555.7)" />
<use xlink:href="#f1_l" transform="matrix(10.4,0,0,10.4,129.2,619.3)" />
<use xlink:href="#f1_m" transform="matrix(10.4,0,0,10.4,138.1,619.3)" />
<use xlink:href="#f1_h" transform="matrix(10.4,0,0,10.4,147.3,619.3)" />
</g>
<path d="M202.3,594.9v15.2m90.2,-15.2v15.2" class="g9_66" />
<g fill="#000000" >
<use xlink:href="#f3_c" transform="matrix(10.5,0,0,15.1,173.1,608.9)" />
<use xlink:href="#f3_d" transform="matrix(10.5,0,0,15.1,294.3,608.9)" />
</g>
<path d="M173,615.7H307.7" class="g9_66" />
<g fill="#000000" >
<use xlink:href="#f1_l" transform="matrix(7,0,0,7,299.5,597.9)" />
<use xlink:href="#f1_27" transform="matrix(10.5,0,0,10.5,178.4,608.6)" />
<use xlink:href="#f1_2a" transform="matrix(10.5,0,0,10.5,182,608.6)" />
<use xlink:href="#f1_22" transform="matrix(10.5,0,0,10.5,190.9,608.6)" />
<use xlink:href="#f1_2e" transform="matrix(10.5,0,0,10.5,204,608.6)" />
<use xlink:href="#f1_20" transform="matrix(10.5,0,0,10.5,212,608.6)" />
<use xlink:href="#f1_1y" transform="matrix(10.5,0,0,10.5,220.9,608.6)" />
<use xlink:href="#f1_2f" transform="matrix(10.5,0,0,10.5,256.7,608.6)" />
<use xlink:href="#f1_1w" transform="matrix(10.5,0,0,10.5,261.2,608.6)" />
<use xlink:href="#f1_29" transform="matrix(10.5,0,0,10.5,270.1,608.6)" />
<use xlink:href="#f1_l" transform="matrix(10.5,0,0,10.5,236.1,632.3)" />
<use xlink:href="#f2_2j" transform="matrix(10.5,0,0,10.5,231.1,608.6)" />
<use xlink:href="#f2_2j" transform="matrix(10.5,0,0,10.5,281,608.6)" />
<use xlink:href="#f2_1y" transform="matrix(10.5,0,0,10.5,323,620)" />
<use xlink:href="#f3_f" transform="matrix(10.5,0,0,10.5,244.4,608.6)" />
<use xlink:href="#f3_f" transform="matrix(10.5,0,0,10.5,311.5,620)" />
<use xlink:href="#f1_l" transform="matrix(10.4,0,0,10.4,404.2,619.3)" />
<use xlink:href="#f1_n" transform="matrix(10.4,0,0,10.4,413.1,619.3)" />
<use xlink:href="#f1_h" transform="matrix(10.4,0,0,10.4,422.3,619.3)" />
</g>
<path d="M474.3,595.6v18.5M579.9,595.6v18.5M448,616.4H581.9" class="g0_66" />
<g fill="#000000" >
<use xlink:href="#f1_27" transform="matrix(10.5,0,0,10.5,448.2,609.4)" />
<use xlink:href="#f1_2a" transform="matrix(10.5,0,0,10.5,451.8,609.4)" />
<use xlink:href="#f1_22" transform="matrix(10.5,0,0,10.5,460.7,609.4)" />
<use xlink:href="#f1_1y" transform="matrix(10.5,0,0,10.5,479,609.4)" />
<use xlink:href="#f1_2a" transform="matrix(10.5,0,0,10.5,487.1,609.4)" />
<use xlink:href="#f1_2e" transform="matrix(10.5,0,0,10.5,496,609.4)" />
<use xlink:href="#f1_2e" transform="matrix(10.5,0,0,10.5,543.7,609.4)" />
<use xlink:href="#f1_24" transform="matrix(10.5,0,0,10.5,551.7,609.4)" />
<use xlink:href="#f1_29" transform="matrix(10.5,0,0,10.5,555.3,609.4)" />
<use xlink:href="#f1_2e" transform="matrix(10.5,0,0,10.5,499.1,633.1)" />
<use xlink:href="#f1_24" transform="matrix(10.5,0,0,10.5,507.1,633.1)" />
<use xlink:href="#f1_29" transform="matrix(10.5,0,0,10.5,510.7,633.1)" />
<use xlink:href="#f2_2j" transform="matrix(10.5,0,0,10.5,532.1,609.4)" />
<use xlink:href="#f2_1y" transform="matrix(10.5,0,0,10.5,597.4,620.7)" />
<use xlink:href="#f3_1x" transform="matrix(10.5,0,0,10.5,505.8,609.4)" />
<use xlink:href="#f3_f" transform="matrix(10.5,0,0,10.5,519.6,609.4)" />
<use xlink:href="#f3_1x" transform="matrix(10.5,0,0,10.5,565.2,609.4)" />
<use xlink:href="#f3_f" transform="matrix(10.5,0,0,10.5,585.9,620.7)" />
<use xlink:href="#f3_1x" transform="matrix(10.5,0,0,10.5,520.5,633.1)" />
<use xlink:href="#f1_l" transform="matrix(10.4,0,0,10.4,129.2,697.2)" />
<use xlink:href="#f1_o" transform="matrix(10.4,0,0,10.4,138.1,697.2)" />
<use xlink:href="#f1_h" transform="matrix(10.4,0,0,10.4,147.3,697.2)" />
<use xlink:href="#f3_c" transform="matrix(10.5,0,0,14.1,173.5,686.6)" />
<use xlink:href="#f3_d" transform="matrix(10.5,0,0,14.1,234.3,686.4)" />
</g>
<path d="M173,693h74.8" class="g0_66" />
<g fill="#000000" >
<use xlink:href="#f1_l" transform="matrix(7,0,0,7,239.5,676.4)" />
<use xlink:href="#f1_27" transform="matrix(10.5,0,0,10.5,178.5,685.9)" />
<use xlink:href="#f1_2a" transform="matrix(10.5,0,0,10.5,182.1,685.9)" />
<use xlink:href="#f1_22" transform="matrix(10.5,0,0,10.5,191,685.9)" />
<use xlink:href="#f1_2e" transform="matrix(10.5,0,0,10.5,201.4,685.9)" />
<use xlink:href="#f1_24" transform="matrix(10.5,0,0,10.5,209.5,685.9)" />
<use xlink:href="#f1_29" transform="matrix(10.5,0,0,10.5,213,685.9)" />
<use xlink:href="#f1_l" transform="matrix(10.5,0,0,10.5,206.1,709.7)" />
<use xlink:href="#f2_2j" transform="matrix(10.5,0,0,10.5,223.7,685.9)" />
<use xlink:href="#f2_1y" transform="matrix(10.5,0,0,10.5,263.1,697.3)" />
<use xlink:href="#f3_f" transform="matrix(10.5,0,0,10.5,251.6,697.3)" />
<use xlink:href="#f1_l" transform="matrix(10.4,0,0,10.4,404.2,697.2)" />
<use xlink:href="#f1_p" transform="matrix(10.4,0,0,10.4,413.1,697.2)" />
<use xlink:href="#f1_h" transform="matrix(10.4,0,0,10.4,422.3,697.2)" />
</g>
<path d="M448,691.4h19.1m16.6,0h27.8m16.3,0h28m27.6,-9.2v18.5m35.3,-18.5v18.5" class="g10_66" />
<g fill="#000000" >
<use xlink:href="#f1_n" transform="matrix(7,0,0,7,458.7,678)" />
<use xlink:href="#f1_l" transform="matrix(7,0,0,7,547.5,678)" />
<use xlink:href="#f1_l" transform="matrix(7,0,0,7,503.1,702)" />
<use xlink:href="#f1_k" transform="matrix(10.5,0,0,10.5,493.8,685.2)" />
<use xlink:href="#f1_m" transform="matrix(10.5,0,0,10.5,528.5,685.2)" />
<use xlink:href="#f1_m" transform="matrix(10.5,0,0,10.5,571.8,695.7)" />
<use xlink:href="#f1_h" transform="matrix(10.5,0,0,10.5,643.5,695.7)" />
<use xlink:href="#f1_27" transform="matrix(10.5,0,0,10.5,584.7,696)" />
<use xlink:href="#f1_2a" transform="matrix(10.5,0,0,10.5,588.3,696)" />
<use xlink:href="#f1_22" transform="matrix(10.5,0,0,10.5,597.2,696)" />
<use xlink:href="#f1_n" transform="matrix(10.5,0,0,10.5,453.2,708.1)" />
<use xlink:href="#f1_l" transform="matrix(10.5,0,0,10.5,537.5,708.1)" />
<use xlink:href="#f1_l" transform="matrix(10.5,0,0,10.5,484.4,709.2)" />
<use xlink:href="#f2_2j" transform="matrix(10.5,0,0,10.5,449.5,685.2)" />
<use xlink:href="#f2_2j" transform="matrix(10.5,0,0,10.5,538.3,685.2)" />
<use xlink:href="#f2_1y" transform="matrix(10.5,0,0,10.5,635.2,695.7)" />
<use xlink:href="#f2_2j" transform="matrix(10.5,0,0,10.5,608.4,696)" />
<use xlink:href="#f2_2j" transform="matrix(10.5,0,0,10.5,493.9,709.2)" />
<use xlink:href="#f3_f" transform="matrix(10.5,0,0,10.5,470.9,695.7)" />
<use xlink:href="#f3_h" transform="matrix(10.5,0,0,10.5,515.2,695.7)" />
<use xlink:href="#f3_f" transform="matrix(10.5,0,0,10.5,559.6,695.7)" />
<use xlink:href="#f3_f" transform="matrix(10.5,0,0,10.5,623.1,695.7)" />
<use xlink:href="#f1_l" transform="matrix(10.4,0,0,10.4,129.2,768.4)" />
<use xlink:href="#f1_q" transform="matrix(10.4,0,0,10.4,138.1,768.4)" />
<use xlink:href="#f1_h" transform="matrix(10.4,0,0,10.4,147.3,768.4)" />
</g>
<path d="M173,761.6h10.3M209,752.2v18.3m70.9,-18.3v18.3" class="g6_66" />
<g fill="#000000" >
<use xlink:href="#f1_k" transform="matrix(10.4,0,0,10.4,174.3,755.5)" />
<use xlink:href="#f1_27" transform="matrix(10.4,0,0,10.4,185.1,765.8)" />
<use xlink:href="#f1_2a" transform="matrix(10.4,0,0,10.4,188.6,765.8)" />
<use xlink:href="#f1_22" transform="matrix(10.4,0,0,10.4,197.6,765.8)" />
<use xlink:href="#f1_l" transform="matrix(10.4,0,0,10.4,210.8,765.8)" />
<use xlink:href="#f1_m" transform="matrix(10.4,0,0,10.4,234.9,765.8)" />
<use xlink:href="#f1_27" transform="matrix(10.4,0,0,10.4,245,765.8)" />
<use xlink:href="#f1_2a" transform="matrix(10.4,0,0,10.4,248.5,765.8)" />
<use xlink:href="#f1_22" transform="matrix(10.4,0,0,10.4,257.6,765.8)" />
<use xlink:href="#f1_h" transform="matrix(10.4,0,0,10.4,304.5,765.8)" />
<use xlink:href="#f1_m" transform="matrix(10.4,0,0,10.4,173.7,778.1)" />
<use xlink:href="#f2_2j" transform="matrix(10.4,0,0,10.4,268.2,765.8)" />
<use xlink:href="#f2_1y" transform="matrix(10.4,0,0,10.4,295.7,765.8)" />
<use xlink:href="#f3_f" transform="matrix(10.4,0,0,10.4,222.6,765.8)" />
<use xlink:href="#f3_f" transform="matrix(10.4,0,0,10.4,284.3,765.8)" />
<use xlink:href="#f1_l" transform="matrix(10.4,0,0,10.4,404.2,768.4)" />
<use xlink:href="#f1_r" transform="matrix(10.4,0,0,10.4,413.1,768.4)" />
<use xlink:href="#f1_h" transform="matrix(10.4,0,0,10.4,422.3,768.4)" />
<use xlink:href="#f1_27" transform="matrix(10.4,0,0,10.4,444.9,768.4)" />
<use xlink:href="#f1_2a" transform="matrix(10.4,0,0,10.4,448.5,768.4)" />
<use xlink:href="#f1_22" transform="matrix(10.4,0,0,10.4,457.3,768.4)" />
<use xlink:href="#f1_2n" transform="matrix(10.4,0,0,10.4,473,768.4)" />
<use xlink:href="#f2_2j" transform="matrix(10.4,0,0,10.4,477,768.4)" />
<use xlink:href="#f1_e" transform="matrix(10.4,0,0,10.4,491.9,768.4)" />
<use xlink:href="#f1_1y" transform="matrix(10.4,0,0,10.4,507.9,768.4)" />
<use xlink:href="#f1_2a" transform="matrix(10.4,0,0,10.4,515.9,768.4)" />
<use xlink:href="#f1_2e" transform="matrix(10.4,0,0,10.4,524.8,768.4)" />
<use xlink:href="#f2_2j" transform="matrix(10.4,0,0,10.4,539.7,768.4)" />
<use xlink:href="#f1_2n" transform="matrix(10.4,0,0,10.4,547.8,768.4)" />
<use xlink:href="#f2_1y" transform="matrix(10.4,0,0,10.4,558.8,768.4)" />
<use xlink:href="#f1_l" transform="matrix(10.4,0,0,10.4,129.2,828.5)" />
<use xlink:href="#f1_s" transform="matrix(10.4,0,0,10.4,138.1,828.5)" />
<use xlink:href="#f1_h" transform="matrix(10.4,0,0,10.4,147.3,828.5)" />
<use xlink:href="#f1_l" transform="matrix(10.4,0,0,10.4,169.9,828.5)" />
<use xlink:href="#f1_27" transform="matrix(10.4,0,0,10.4,185.6,828.5)" />
<use xlink:href="#f1_2a" transform="matrix(10.4,0,0,10.4,189.1,828.5)" />
<use xlink:href="#f1_22" transform="matrix(10.4,0,0,10.4,198,828.5)" />
<use xlink:href="#f1_2n" transform="matrix(10.4,0,0,10.4,213.8,828.5)" />
<use xlink:href="#f1_2e" transform="matrix(10.4,0,0,10.4,218,828.5)" />
<use xlink:href="#f1_20" transform="matrix(10.4,0,0,10.4,225.9,828.5)" />
<use xlink:href="#f1_1y" transform="matrix(10.4,0,0,10.4,234.8,828.5)" />
<use xlink:href="#f2_2j" transform="matrix(10.4,0,0,10.4,249.5,828.5)" />
<use xlink:href="#f1_i" transform="matrix(10.4,0,0,10.4,257.6,828.5)" />
<use xlink:href="#f1_l" transform="matrix(10.4,0,0,10.4,262,828.5)" />
<use xlink:href="#f1_2n" transform="matrix(10.4,0,0,10.4,270.9,828.5)" />
<use xlink:href="#f1_e" transform="matrix(10.4,0,0,10.4,282,828.5)" />
<use xlink:href="#f2_1y" transform="matrix(10.4,0,0,10.4,298.3,828.5)" />
<use xlink:href="#f2_h" transform="matrix(10.4,0,0,10.4,306.2,828.5)" />
<use xlink:href="#f1_m" transform="matrix(10.4,0,0,10.4,404.2,828.5)" />
<use xlink:href="#f1_j" transform="matrix(10.4,0,0,10.4,413.1,828.5)" />
<use xlink:href="#f1_h" transform="matrix(10.4,0,0,10.4,422.3,828.5)" />
</g>
<path d="M448,821.8h10.5m25.8,-12.4v18m55.3,-18v18" class="g11_66" />
<g fill="#000000" >
<use xlink:href="#f1_k" transform="matrix(10.4,0,0,10.4,449.6,815.7)" />
<use xlink:href="#f1_27" transform="matrix(10.4,0,0,10.4,460.3,826)" />
<use xlink:href="#f1_2a" transform="matrix(10.4,0,0,10.4,463.8,826)" />
<use xlink:href="#f1_22" transform="matrix(10.4,0,0,10.4,472.9,826)" />
<use xlink:href="#f1_h" transform="matrix(10.4,0,0,10.4,564.6,826)" />
<use xlink:href="#f2_20" transform="matrix(7,0,0,6.9,496.1,818.8)" />
<use xlink:href="#f2_2j" transform="matrix(7,0,0,6.9,529.8,818.8)" />
<use xlink:href="#f2_2j" transform="matrix(10.4,0,0,10.4,486.3,826)" />
<use xlink:href="#f2_20" transform="matrix(10.4,0,0,10.4,519.3,826)" />
<use xlink:href="#f2_1y" transform="matrix(10.4,0,0,10.4,555.7,826)" />
<use xlink:href="#f2_20" transform="matrix(10.4,0,0,10.4,447.9,838.2)" />
<use xlink:href="#f3_f" transform="matrix(10.4,0,0,10.4,507.7,826)" />
<use xlink:href="#f3_f" transform="matrix(10.4,0,0,10.4,544.1,826)" />
<use xlink:href="#f4_l" transform="matrix(8,0,0,8,723.2,1122.4)" />
<use xlink:href="#f4_l" transform="matrix(8,0,0,8,730,1122.4)" />
</g>
<g fill="#0080FF" fill-opacity="0.5" >
<use xlink:href="#f0_1c" transform="matrix(42.3,0,0,42.3,202.9,1095.2)" />
<use xlink:href="#f0_21" transform="matrix(42.3,0,0,42.3,238.8,1095.2)" />
<use xlink:href="#f0_1x" transform="matrix(42.3,0,0,42.3,274.7,1095.2)" />
<use xlink:href="#f0_2e" transform="matrix(42.3,0,0,42.3,310.7,1095.2)" />
<use xlink:href="#f0_2a" transform="matrix(42.3,0,0,42.3,332.2,1095.2)" />
<use xlink:href="#f0_17" transform="matrix(42.3,0,0,42.3,368.1,1095.2)" />
<use xlink:href="#f0_2h" transform="matrix(42.3,0,0,42.3,418.4,1095.2)" />
<use xlink:href="#f0_25" transform="matrix(42.3,0,0,42.3,454.3,1095.2)" />
<use xlink:href="#f0_20" transform="matrix(42.3,0,0,42.3,468.7,1095.2)" />
<use xlink:href="#f0_21" transform="matrix(42.3,0,0,42.3,504.6,1095.2)" />
<use xlink:href="#f0_i" transform="matrix(42.3,0,0,42.3,540.5,1095.2)" />
<use xlink:href="#f0_25" transform="matrix(42.3,0,0,42.3,558.5,1095.2)" />
<use xlink:href="#f0_2a" transform="matrix(42.3,0,0,42.3,572.8,1095.2)" />
</g>
<defs>
<path d="M593,101c0,0,182,0,279,112c0,0,98,113,98,318c0,0,0,196,-98,308c0,0,-98,112,-277,112c0,0,-181,0,-279,-110c0,0,-99,-111,-99,-310c0,0,0,-198,100,-314c0,0,99,-116,276,-116Zm0,-115c0,0,-162,0,-279,65c0,0,-118,66,-180,190c0,0,-62,124,-62,290c0,0,0,252,138,394c0,0,138,142,385,142c0,0,160,0,278,-64c0,0,118,-64,180,-185c0,0,62,-122,62,-287c0,0,0,-165,-63,-289c0,0,-63,-124,-181,-190c0,0,-118,-66,-278,-66Z" 
id="f0_1f"
transform="scale(0.001,-0.001)" />

<path d="M106,0V635c0,0,0,141,-5,173H228c0,0,1,-4,2,-21c0,0,1,-16,2,-37c0,0,1,-22,2,-81h2c0,0,47,84,108,119c0,0,60,34,151,34c0,0,132,0,194,-66c0,0,61,-66,61,-218V0H615V512c0,0,0,80,-15,124c0,0,-16,44,-50,63c0,0,-35,20,-101,20c0,0,-97,0,-153,-67c0,0,-56,-66,-56,-184V0Z" 
id="f0_2a"
transform="scale(0.001,-0.001)" />

<path d="M103,0V1107H237V0Z" 
id="f0_28"
transform="scale(0.001,-0.001)" />

<path d="M102,0V808H236V0Zm0,979v128H236V979Z" 
id="f0_25"
transform="scale(0.001,-0.001)" />

<path d="M643,478c0,0,-11,128,-65,187c0,0,-54,59,-154,59c0,0,-98,0,-155,-66c0,0,-57,-65,-62,-180ZM431,-14c0,0,-179,0,-272,106c0,0,-94,107,-94,317c0,0,0,200,94,307c0,0,93,106,267,106c0,0,356,0,356,-429V375H206c0,0,0,-138,57,-213c0,0,58,-75,168,-75c0,0,87,0,140,35c0,0,53,35,71,88L760,177c0,0,-72,-191,-329,-191Z" 
id="f0_21"
transform="scale(0.001,-0.001)" />

<path d="M17,0L304,415L31,808H179L380,493L580,808H730L457,417L747,0H598L380,331L162,0Z" 
id="f0_2k"
transform="scale(0.001,-0.001)" />

<path d="M339,87c0,0,74,0,132,34c0,0,57,33,90,91c0,0,34,59,34,121v66L448,396c0,0,-95,-2,-144,-19c0,0,-49,-18,-75,-55c0,0,-26,-38,-26,-98c0,0,0,-65,35,-101c0,0,36,-36,101,-36ZM309,-14c0,0,-122,0,-183,64c0,0,-61,64,-61,176c0,0,0,125,82,192c0,0,83,67,266,72l182,3v44c0,0,0,98,-42,141c0,0,-42,43,-132,43c0,0,-90,0,-131,-31c0,0,-41,-31,-49,-98L101,604c0,0,34,218,323,218c0,0,153,0,229,-70c0,0,77,-69,77,-202V202c0,0,0,-59,16,-90c0,0,16,-30,60,-30c0,0,19,0,44,5V4C850,4,799,-7,746,-7c0,0,-75,0,-109,38c0,0,-33,40,-38,124h-4C595,155,543,62,475,24c0,0,-68,-38,-166,-38Z" 
id="f0_1x"
transform="scale(0.001,-0.001)" />

<path d="M106,0V635c0,0,0,141,-5,173H228c0,0,1,-4,2,-21c0,0,1,-16,2,-37c0,0,1,-22,2,-81h2c0,0,44,86,100,120c0,0,56,33,136,33c0,0,92,0,145,-36c0,0,54,-37,75,-117h2c0,0,42,82,101,117c0,0,59,36,143,36c0,0,123,0,178,-66c0,0,56,-67,56,-218V0H1039V512c0,0,0,117,-32,162c0,0,-32,45,-116,45c0,0,-88,0,-136,-66c0,0,-49,-65,-49,-185V0H573V512c0,0,0,117,-32,162c0,0,-32,45,-116,45c0,0,-86,0,-136,-66c0,0,-50,-66,-50,-185V0Z" 
id="f0_29"
transform="scale(0.001,-0.001)" />

<path d="M453,84c0,0,100,0,146,74c0,0,46,73,46,247c0,0,0,169,-46,241c0,0,-45,73,-145,73c0,0,-80,0,-125,-34c0,0,-45,-34,-68,-105c0,0,-24,-71,-24,-186c0,0,0,-159,51,-234c0,0,51,-76,165,-76ZM103,-316V643c0,0,0,124,-5,165H228c0,0,1,-3,3,-22c0,0,1,-18,3,-56c0,0,2,-38,2,-52h3c0,0,36,75,94,110c0,0,59,34,156,34c0,0,149,0,223,-100c0,0,74,-100,74,-314c0,0,0,-422,-297,-422c0,0,-187,0,-251,140h-4c0,0,3,-6,3,-126V-316Z" 
id="f0_2c"
transform="scale(0.001,-0.001)" />

<path d="M420,84c0,0,121,0,173,78c0,0,52,77,52,243c0,0,0,167,-50,243c0,0,-50,76,-167,76c0,0,-118,0,-170,-78c0,0,-53,-77,-53,-241c0,0,0,-160,52,-241c0,0,52,-80,163,-80Zm1,-98c0,0,-176,0,-267,107c0,0,-90,108,-90,312c0,0,0,417,362,417c0,0,185,0,272,-102c0,0,88,-101,88,-315c0,0,0,-212,-94,-316C692,89,599,-14,421,-14Z" 
id="f0_2b"
transform="scale(0.001,-0.001)" />

<path d="M278,-11c0,0,-162,0,-162,182V710H23v98h99l39,181h90V808H400V710H251V200c0,0,0,-58,19,-82c0,0,19,-23,66,-23c0,0,27,0,77,10V6c0,0,-66,-17,-135,-17Z" 
id="f0_2g"
transform="scale(0.001,-0.001)" />

<path d="M212,0c0,0,51,270,162,500c0,0,109,222,281,422H57v131H799V934C799,934,623,726,515,498C515,498,408,269,362,0Z" 
id="f1_q"
transform="scale(0.001,-0.001)" />

<path d="M133,0V162H292V0Z" 
id="f1_h"
transform="scale(0.001,-0.001)" />

<path d="M424,92c0,0,114,0,170,107c0,0,57,108,56,323c0,0,1,216,-56,324c0,0,-56,107,-170,107c0,0,-112,0,-168,-107c0,0,-56,-108,-57,-324c0,0,1,-215,57,-323c0,0,56,-107,168,-107Zm0,-120c0,0,-176,0,-271,142c0,0,-96,143,-96,408c0,0,0,265,96,409c0,0,95,144,271,144c0,0,178,0,273,-144c0,0,96,-144,96,-409c0,0,0,-265,-96,-408c0,0,-95,-142,-273,-142Z" 
id="f1_j"
transform="scale(0.001,-0.001)" />

<path d="M424,92c0,0,98,0,161,58c0,0,62,58,62,149c0,0,0,92,-62,151c0,0,-63,58,-161,58c0,0,-98,0,-160,-58c0,0,-63,-59,-63,-151c0,0,0,-91,63,-149c0,0,62,-58,160,-58Zm0,533c0,0,82,0,134,46c0,0,52,45,52,118c0,0,0,72,-52,118c0,0,-52,46,-134,46c0,0,-82,0,-134,-46c0,0,-52,-46,-52,-118c0,0,0,-73,52,-119c0,0,52,-45,134,-45Zm0,-653c0,0,-165,0,-265,90C159,62,59,154,59,305c0,0,0,134,100,216c0,0,35,28,78,47c0,0,-27,15,-52,33c0,0,-90,70,-90,185c0,0,0,130,90,209c0,0,91,80,239,80c0,0,148,0,238,-80c0,0,91,-79,91,-209c0,0,0,-115,-91,-185c0,0,-24,-19,-52,-32c0,0,44,-20,79,-49c0,0,101,-81,101,-215c0,0,0,-151,-101,-243c0,0,-100,-90,-265,-90Z" 
id="f1_r"
transform="scale(0.001,-0.001)" />

<path d="M406,0V763H155V870h2c16,0,114,2,178,48c0,0,70,51,104,157H549V0Z" 
id="f1_k"
transform="scale(0.001,-0.001)" />

<path d="M103,0V1097H237V0Z" 
id="f1_27"
transform="scale(0.001,-0.001)" />

<path d="M424,94c0,0,107,0,169,83c0,0,63,83,63,223c0,0,0,140,-63,224c0,0,-62,83,-169,83c0,0,-106,0,-168,-83c0,0,-62,-84,-62,-224c0,0,0,-140,62,-223c0,0,62,-83,168,-83Zm0,-114c0,0,-165,0,-268,115C156,95,54,211,54,400c0,0,0,189,102,306c0,0,103,116,268,116c0,0,168,0,270,-116c0,0,102,-117,102,-306c0,0,0,-189,-102,-305C694,95,592,-20,424,-20Z" 
id="f1_2a"
transform="scale(0.001,-0.001)" />

<path d="M418,95c0,0,98,0,158,73c0,0,59,73,59,193c0,0,0,170,-54,254c0,0,-54,85,-163,85c0,0,-113,0,-165,-72c0,0,-52,-71,-52,-227c0,0,0,-147,57,-227c0,0,56,-79,160,-79ZM394,-336c0,0,-136,0,-216,62c0,0,-79,63,-96,182H219c0,0,12,-64,57,-98c0,0,45,-35,116,-35c0,0,116,0,176,73c0,0,61,73,61,211V85l-1,-1C628,84,545,-20,412,-20c0,0,-161,0,-256,118c0,0,-94,120,-94,324c0,0,0,179,93,290c0,0,93,110,244,110c0,0,144,0,228,-124l10,-14V799H763V59c0,0,-1,-201,-91,-298c0,0,-91,-97,-278,-97Z" 
id="f1_22"
transform="scale(0.001,-0.001)" />

<path d="M354,90c0,0,107,0,192,57c0,0,60,41,87,95c0,0,5,12,11,33c0,0,6,20,11,44l18,88c0,0,-62,-26,-132,-37L414,352c0,0,-84,-11,-131,-56c0,0,-47,-45,-47,-113c0,0,0,-44,31,-69c0,0,31,-24,87,-24ZM306,-20c0,0,-99,0,-156,47c0,0,-57,49,-57,134c0,0,1,117,81,198c0,0,80,81,211,98l164,20l70,10c0,0,35,6,59,30c0,0,23,24,31,66l1,2c0,0,13,64,-25,94c0,0,-39,31,-132,31c0,0,-83,0,-137,-37c0,0,-54,-37,-84,-114H210c0,0,46,137,138,201c0,0,92,63,245,63c0,0,149,0,211,-59c0,0,45,-44,44,-116c0,0,1,-30,-6,-63L749,136c0,0,-4,-19,6,-32c0,0,10,-12,30,-12c0,0,6,0,19,1c0,0,12,2,25,5L809,1c0,0,-19,-6,-43,-11c0,0,-22,-5,-36,-5c0,0,-73,0,-100,43c0,0,-16,27,-17,75C612,102,594,85,573,69c0,0,-120,-89,-267,-89Z" 
id="f2_1w"
transform="scale(0.001,-0.001)" />

<path d="M17,0L389,412L201,800H376L500,518L742,800H904L554,410L750,0H580L448,303L187,0Z" 
id="f2_2j"
transform="scale(0.001,-0.001)" />

<path d="M398,-20c0,0,-133,0,-209,72c0,0,-76,74,-76,202v3c0,0,0,27,4,60c0,0,4,33,10,63c0,0,43,208,168,326c0,0,126,117,306,117c0,0,131,0,192,-75c0,0,49,-61,50,-168l-3,-52H710c0,0,4,87,-33,131c0,0,-37,45,-113,45c0,0,-110,0,-184,-81c0,0,-75,-82,-107,-238c0,0,-6,-28,-9,-56c0,0,-3,-28,-3,-50c0,0,0,-88,43,-136c0,0,43,-48,121,-48c0,0,76,0,137,49c0,0,61,48,92,136H788C788,280,737,138,633,58c0,0,-103,-78,-235,-78Z" 
id="f2_1y"
transform="scale(0.001,-0.001)" />

<path d="M355,0V355H0v72H355V784h72V427H782V355H427V0Z" 
id="f3_f"
transform="scale(0.001,-0.001)" />

<path d="M419,483c0,0,93,0,152,66c0,0,59,66,59,169c0,0,0,103,-59,169c0,0,-59,65,-152,65c0,0,-94,0,-153,-65c0,0,-59,-66,-59,-169c0,0,0,-103,59,-169c0,0,59,-66,153,-66ZM397,-28c0,0,-143,0,-227,75c0,0,-85,77,-91,211H209c0,0,8,-83,57,-128c0,0,49,-45,131,-45c0,0,121,0,186,135c0,0,48,101,62,265C645,485,545,362,397,362c0,0,-150,0,-241,98c0,0,-91,98,-91,258c0,0,0,160,99,258c0,0,99,98,262,98c0,0,173,0,266,-123c0,0,94,-123,94,-349c0,0,0,-303,-101,-467C685,135,583,-28,397,-28Z" 
id="f1_s"
transform="scale(0.001,-0.001)" />

<path d="M292,-9c0,0,-88,0,-124,38c0,0,-36,39,-36,134V689H22V799H132v224H266V799H392V689H266V163c0,0,0,-27,21,-43c0,0,21,-15,57,-15h48V1C392,1,324,-9,292,-9Z" 
id="f1_2f"
transform="scale(0.001,-0.001)" />

<path d="M335,90c0,0,106,0,179,57c0,0,50,41,67,91c0,0,3,10,4,31c0,0,3,21,3,47v87c0,0,-38,-18,-83,-25L381,360c0,0,-97,-13,-142,-45c0,0,-44,-31,-44,-86c0,0,0,-67,36,-103c0,0,37,-36,104,-36ZM309,-20c0,0,-117,0,-186,61c0,0,-68,63,-68,169c0,0,0,108,64,171c0,0,65,64,189,79l183,23c0,0,22,3,42,8c0,0,26,7,40,27c0,0,15,20,15,51v6c0,0,0,64,-49,101c0,0,-48,36,-135,36c0,0,-83,0,-130,-38c0,0,-46,-39,-56,-115H94c0,0,10,131,92,197c0,0,83,66,238,66c0,0,145,0,222,-63c0,0,76,-63,76,-184V137c0,0,0,-21,12,-33c0,0,12,-12,33,-12c0,0,6,0,18,1c0,0,11,2,25,5V1c0,0,-20,-7,-41,-11c0,0,-22,-5,-37,-5c0,0,-76,0,-110,41c0,0,-22,28,-32,79c0,0,-15,-19,-34,-36c0,0,-101,-89,-247,-89Z" 
id="f1_1w"
transform="scale(0.001,-0.001)" />

<path d="M99,0V799H226V681l30,39c0,0,87,102,219,102c0,0,132,0,203,-71c0,0,72,-72,72,-204V0H616V502c0,0,0,105,-41,151c0,0,-40,47,-132,47c0,0,-97,0,-154,-73c0,0,-56,-74,-56,-199V0Z" 
id="f1_29"
transform="scale(0.001,-0.001)" />

<path d="M390,-1V329H60V441H390V771H503V441H833V329H503V-1Z" 
id="f1_e"
transform="scale(0.001,-0.001)" />

<path d="M39,0V0c0,0,0,170,84,277c0,0,85,108,317,236c0,0,113,62,154,115c0,0,41,52,41,134c0,0,0,86,-62,141c0,0,-61,54,-156,54c0,0,-101,0,-158,-68c0,0,-57,-68,-60,-194H67c0,0,-2,178,95,279c0,0,98,101,273,101c0,0,149,0,245,-89c0,0,94,-88,94,-228c0,0,0,-118,-60,-195c0,0,-61,-76,-229,-169C485,394,303,294,237,212c0,0,-28,-36,-46,-81H774V0Z" 
id="f1_l"
transform="scale(0.001,-0.001)" />

<path d="M131,0L274,688H168l23,112H296l26,125c0,0,20,98,82,143c0,0,62,46,176,46c0,0,33,0,59,-5L609,990c0,0,0,3,-53,3c0,0,-45,0,-70,-25c0,0,-25,-25,-37,-83L431,800H575L553,688H409L266,0Z" 
id="f2_21"
transform="scale(0.001,-0.001)" />

<path d="M365,-315c0,0,-136,187,-199,359c0,0,-62,172,-62,359c0,0,0,186,62,358c0,0,63,172,199,360h92c0,0,-110,-192,-160,-365c0,0,-51,-172,-51,-353c0,0,0,-183,51,-355c0,0,50,-172,160,-363Z" 
id="f1_b"
transform="scale(0.001,-0.001)" />

<path d="M52,-315c0,0,109,192,160,363c0,0,50,173,50,354c0,0,0,183,-50,355c0,0,-51,173,-160,364h92c0,0,135,-188,198,-360c0,0,63,-172,63,-359c0,0,0,-187,-63,-359c0,0,-63,-171,-198,-358Z" 
id="f1_c"
transform="scale(0.001,-0.001)" />

<path d="M424,-28c0,0,-180,0,-272,86c0,0,-92,87,-100,266H192c0,0,12,-126,66,-180c0,0,55,-54,170,-54c0,0,100,0,163,57c0,0,64,57,64,147c0,0,0,94,-61,149c0,0,-52,48,-135,54c0,0,-38,2,-72,2c0,0,-34,0,-45,-3V613c0,0,17,-3,51,-3c0,0,35,0,68,4c0,0,66,8,106,43c0,0,55,45,55,125c0,0,0,77,-58,125c0,0,-58,48,-148,48c0,0,-96,0,-147,-58c0,0,-51,-59,-56,-175H82c0,0,0,168,89,260c0,0,88,93,250,93c0,0,153,0,247,-77c0,0,94,-76,94,-202c0,0,0,-124,-95,-201c0,0,-18,-15,-39,-27c0,0,39,-17,69,-41c0,0,101,-79,101,-214c0,0,0,-151,-105,-246c0,0,-104,-95,-269,-95Z" 
id="f1_m"
transform="scale(0.001,-0.001)" />

<path d="M0,368V478H849V368Z" 
id="f1_99"
transform="scale(0.001,-0.001)" />

<path d="M394,-20c0,0,-159,0,-253,113c0,0,-95,114,-95,307c0,0,0,193,98,308c0,0,98,114,264,114c0,0,144,0,230,-78c0,0,85,-79,91,-217H600c0,0,-8,86,-59,133c0,0,-52,47,-138,47c0,0,-101,0,-159,-82c0,0,-58,-82,-58,-225c0,0,0,-152,54,-229c0,0,53,-77,159,-77c0,0,79,0,132,50c0,0,52,51,69,143H729C729,287,709,137,623,58c0,0,-86,-78,-229,-78Z" 
id="f1_1y"
transform="scale(0.001,-0.001)" />

<path d="M511,373V863L169,383l-7,-10ZM511,0V258H38V383l496,691H646V373H799V258H646V0Z" 
id="f1_n"
transform="scale(0.001,-0.001)" />

<path d="M412,-328c0,0,-195,96,-303,284C109,-44,0,142,0,365c0,0,0,232,114,422c0,0,114,191,298,273v-31c0,0,-92,-51,-151,-139c0,0,-59,-88,-88,-223c0,0,-29,-136,-29,-282c0,0,0,-167,27,-301c0,0,26,-133,82,-221c0,0,55,-89,159,-159v-32Z" 
id="f3_c"
transform="scale(0.001,-0.001)" />

<path d="M34,-328v32c0,0,92,50,151,138c0,0,59,88,88,222c0,0,29,135,29,283c0,0,0,165,-27,300c0,0,-26,134,-82,222c0,0,-56,89,-159,160v31c0,0,194,-96,303,-284c0,0,108,-187,108,-410c0,0,0,-232,-114,-422c0,0,-114,-191,-297,-272Z" 
id="f3_d"
transform="scale(0.001,-0.001)" />

<path d="M0,356v74H784V356Z" 
id="f3_h"
transform="scale(0.001,-0.001)" />

<path d="M417,-28c0,0,-161,0,-259,79c0,0,-98,81,-109,223H189c0,0,11,-90,72,-139c0,0,61,-49,162,-49c0,0,96,0,158,68c0,0,61,68,61,175c0,0,0,112,-64,178c0,0,-64,66,-173,66c0,0,-59,0,-115,-28c0,0,-55,-29,-84,-73L93,480l77,573H727V922H271L225,629l4,3c0,0,89,60,188,60c0,0,169,0,269,-94c0,0,99,-93,99,-253c0,0,0,-165,-103,-269C682,76,579,-28,417,-28Z" 
id="f1_o"
transform="scale(0.001,-0.001)" />

<path d="M144,-381V1146H255V-381Z" 
id="f1_2n"
transform="scale(0.001,-0.001)" />

<path d="M432,92c0,0,96,0,156,66c0,0,61,65,61,169c0,0,0,103,-61,169c0,0,-60,66,-156,66c0,0,-95,0,-156,-66c0,0,-61,-66,-61,-169c0,0,0,-104,61,-169c0,0,61,-66,156,-66ZM425,-28c0,0,-176,0,-271,135c0,0,-95,136,-95,388c0,0,0,278,103,429c0,0,103,151,293,151c0,0,142,0,226,-77c0,0,84,-76,90,-211H638c0,0,-8,80,-56,123c0,0,-47,43,-127,43c0,0,-125,0,-192,-119c0,0,-58,-102,-64,-278c0,0,100,127,255,127c0,0,152,0,245,-98c0,0,93,-98,93,-258c0,0,0,-161,-101,-259c0,0,-101,-96,-266,-96Z" 
id="f1_p"
transform="scale(0.001,-0.001)" />

<path d="M748,462c0,0,3,31,3,63c0,0,0,86,-45,132c0,0,-46,45,-134,45c0,0,-100,0,-180,-85c0,0,-58,-63,-90,-155ZM419,-20c0,0,-136,0,-213,73c0,0,-77,74,-78,206c0,0,0,25,4,58c0,0,4,32,10,63c0,0,44,208,169,326c0,0,125,117,305,117c0,0,128,0,198,-73c0,0,71,-73,71,-207c0,0,1,-100,-24,-189H278l-4,-25c0,0,-3,-30,-3,-55c0,0,0,-90,44,-134c0,0,44,-45,133,-45c0,0,87,0,156,44c0,0,68,45,95,117H830C830,256,782,126,674,52c0,0,-108,-72,-255,-72Z" 
id="f2_20"
transform="scale(0.001,-0.001)" />

<path d="M62,-123V268c0,0,0,230,56,452c0,0,47,190,134,334c0,0,87,144,204,242c0,0,85,73,194,119l18,-16c0,0,-211,-145,-335,-339c0,0,-98,-156,-149,-374c0,0,-50,-218,-50,-403V-123Z" 
id="f3_4o"
transform="scale(0.001,-0.001)" />

<path d="M617,-123V283c0,0,0,236,-63,459c0,0,-63,223,-188,392c0,0,-108,146,-282,265l17,16c0,0,180,-76,320,-248c0,0,139,-172,204,-417c0,0,64,-245,64,-482V-123Z" 
id="f3_54"
transform="scale(0.001,-0.001)" />

<path d="M62,-123V1415h72V-123Z" 
id="f3_4p"
transform="scale(0.001,-0.001)" />

<path d="M617,-123V1415h72V-123Z" 
id="f3_55"
transform="scale(0.001,-0.001)" />

<path d="M650,-123c0,0,-180,75,-319,246c0,0,-140,172,-205,418c0,0,-64,245,-64,481v393h72V1007c0,0,0,-236,63,-459c0,0,63,-223,189,-391c0,0,108,-145,282,-265l-18,-15Z" 
id="f3_4q"
transform="scale(0.001,-0.001)" />

<path d="M101,-123l-17,15c0,0,210,144,334,339c0,0,99,156,149,373c0,0,50,218,50,403v408h72V1022c0,0,0,-230,-56,-451c0,0,-48,-191,-134,-335C499,236,412,92,295,-5c0,0,-84,-73,-194,-118Z" 
id="f3_56"
transform="scale(0.001,-0.001)" />

<path d="M393,-20c0,0,-169,0,-252,65c0,0,-83,67,-92,210H178c0,0,10,-85,61,-123c0,0,50,-38,154,-38c0,0,90,0,136,34c0,0,47,35,47,100c0,0,0,42,-31,64c0,0,-30,21,-123,43L283,368c0,0,-112,27,-160,75c0,0,-48,48,-48,135c0,0,0,112,80,178c0,0,81,66,218,66c0,0,140,0,222,-68c0,0,82,-67,88,-187H557c0,0,-6,67,-55,103c0,0,-48,37,-129,37c0,0,-84,0,-127,-29c0,0,-44,-29,-44,-85c0,0,0,-43,31,-65c0,0,30,-21,121,-43L493,452c0,0,117,-28,167,-78c0,0,49,-49,49,-138c0,0,0,-119,-86,-188c0,0,-85,-68,-230,-68Z" 
id="f1_2e"
transform="scale(0.001,-0.001)" />

<path d="M316,27c0,0,57,0,105,53c0,0,65,72,125,295c0,0,-40,153,-104,214c0,0,-63,61,-129,61c0,0,-73,0,-122,-80c0,0,-48,-80,-48,-255c0,0,0,-104,20,-163c0,0,21,-60,64,-92c0,0,42,-33,89,-33Zm4,-49c0,0,-165,0,-243,108C77,86,0,196,0,336c0,0,0,164,91,265c0,0,91,102,213,102c0,0,85,0,150,-52c0,0,65,-51,118,-192l65,224H760L662,344c0,0,-9,-32,-30,-100c0,0,29,-115,43,-137c0,0,27,-41,68,-41c0,0,30,0,55,24c0,0,26,25,34,77h30C862,167,852,60,817,19c0,0,-35,-40,-81,-40c0,0,-42,0,-77,34c0,0,-35,36,-62,154c0,0,-33,-65,-65,-99C532,68,488,22,437,0c0,0,-52,-22,-117,-22Z" 
id="f3_1x"
transform="scale(0.001,-0.001)" />

<path d="M649,461c0,0,-6,111,-55,172c0,0,-55,69,-160,69c0,0,-106,0,-170,-79c0,0,-50,-62,-60,-162ZM425,-20c0,0,-169,0,-266,106c0,0,-97,107,-97,297c0,0,0,201,102,320c0,0,103,119,276,119c0,0,157,0,253,-116c0,0,96,-117,96,-306l-1,-48H204c0,0,8,-119,54,-182c0,0,57,-76,180,-76c0,0,77,0,134,43c0,0,58,43,70,110H775C775,247,746,116,656,47c0,0,-90,-67,-231,-67Z" 
id="f1_20"
transform="scale(0.001,-0.001)" />

<path d="M104,0V799H238V0Zm-2,946v152H239V946Z" 
id="f1_24"
transform="scale(0.001,-0.001)" />

<path d="M-24,-29L348,1125H450L77,-29Z" 
id="f1_i"
transform="scale(0.001,-0.001)" />

<path d="M133,0l33,162H326L292,0Z" 
id="f2_h"
transform="scale(0.001,-0.001)" />

<path d="M435,0V856c0,0,-48,-47,-127,-93c0,0,-79,-46,-142,-69V824c0,0,113,52,197,128c0,0,85,75,120,146h86V0Z" 
id="f4_l"
transform="scale(0.001,-0.001)" />

<path d="M125,0V1051H268V115H799V0Z" 
id="f0_1c"
transform="scale(0.001,-0.001)" />

<path d="M106,0V620c0,0,0,85,-5,188H228c0,0,6,-138,6,-165h3c0,0,32,103,74,141c0,0,42,38,118,38c0,0,27,0,54,-7V692c0,0,-26,7,-71,7c0,0,-84,0,-128,-72c0,0,-44,-72,-44,-206V0Z" 
id="f0_2e"
transform="scale(0.001,-0.001)" />

<path d="M606,-14c0,0,-164,0,-284,65c0,0,-119,66,-182,189c0,0,-63,123,-63,291c0,0,0,255,137,396c0,0,137,140,386,140c0,0,174,0,283,-59c0,0,109,-59,168,-189L915,779c0,0,-44,90,-123,131c0,0,-79,41,-196,41c0,0,-182,0,-278,-110c0,0,-96,-110,-96,-310c0,0,0,-200,102,-315c0,0,102,-115,282,-115c0,0,103,0,193,31c0,0,89,31,144,85V407H629V526h445V164c0,0,-83,-85,-205,-132c0,0,-121,-46,-263,-46Z" 
id="f0_17"
transform="scale(0.001,-0.001)" />

<path d="M355,-14c0,0,-133,0,-194,65c0,0,-62,66,-62,219V808H234V296c0,0,0,-80,16,-124c0,0,16,-44,50,-64c0,0,34,-19,101,-19c0,0,97,0,153,66c0,0,55,67,55,185V808H744V172c0,0,0,-141,4,-172H621c0,0,0,4,-1,20c0,0,-1,17,-2,38c0,0,-1,21,-3,80h-2C613,138,567,55,506,20c0,0,-61,-34,-151,-34Z" 
id="f0_2h"
transform="scale(0.001,-0.001)" />

<path d="M395,89c0,0,115,0,166,79c0,0,51,79,51,246c0,0,0,160,-51,235c0,0,-51,75,-164,75c0,0,-102,0,-147,-75c0,0,-45,-75,-45,-244c0,0,0,-170,45,-243c0,0,45,-73,145,-73ZM361,-14c0,0,-153,0,-225,102c0,0,-72,103,-72,312c0,0,0,422,297,422c0,0,92,0,153,-33c0,0,61,-34,98,-107h2l-2,90v335H747V166c0,0,0,-126,4,-166H623c0,0,-2,12,-5,55c0,0,-3,44,-3,75h-3c0,0,-37,-78,-98,-111c0,0,-62,-33,-153,-33Z" 
id="f0_20"
transform="scale(0.001,-0.001)" />

<path d="M140,0V163H285V0Z" 
id="f0_i"
transform="scale(0.001,-0.001)" />


</defs>
</svg>