<?xml version="1.0" encoding="UTF-8" standalone="no"?>
<!DOCTYPE svg PUBLIC "-//W3C//DTD SVG 1.1//EN"
"http://www.w3.org/Graphics/SVG/1.1/DTD/svg11.dtd">
<svg viewBox="0 0 811 1133" version="1.1" xmlns="http://www.w3.org/2000/svg" xmlns:xlink="http://www.w3.org/1999/xlink">
<defs>
<style type="text/css"><![CDATA[
.g0_63{
fill: none;
stroke: #000000;
stroke-width: 0.75997776;
stroke-linecap: round;
stroke-linejoin: miter;
}
.g1_63{
fill: none;
stroke: #000000;
stroke-width: 0.76755553;
stroke-linecap: round;
stroke-linejoin: miter;
}
.g2_63{
fill: none;
stroke: #000000;
stroke-width: 0.38377777;
stroke-linecap: round;
stroke-linejoin: miter;
}
.g3_63{
fill: none;
stroke: #000000;
stroke-width: 0.7299111;
stroke-linecap: round;
stroke-linejoin: miter;
}
.g4_63{
fill: none;
stroke: #000000;
stroke-width: 0.7604667;
stroke-linecap: round;
stroke-linejoin: miter;
}
.g5_63{
fill: none;
stroke: #000000;
stroke-width: 0.7638889;
stroke-linecap: round;
stroke-linejoin: miter;
}
.g6_63{
fill: none;
stroke: #000000;
stroke-width: 0.7602222;
stroke-linecap: round;
stroke-linejoin: miter;
}
.g7_63{
fill: none;
stroke: #000000;
stroke-width: 0.15277778;
stroke-linecap: round;
stroke-linejoin: miter;
}
.g8_63{
}
.g9_63{
fill: none;
stroke: #000000;
stroke-width: 1.0486667;
stroke-linecap: round;
stroke-linejoin: miter;
}
.g10_63{
fill: none;
stroke: #000000;
stroke-width: 1.0503472;
stroke-linecap: round;
stroke-linejoin: miter;
}
.g11_63{
fill: none;
stroke: #000000;
stroke-width: 1.0469861;
stroke-linecap: round;
stroke-linejoin: miter;
}
]]></style>
</defs>
<g fill="#D4D4D4" fill-opacity="0.56" >
<use xlink:href="#f0_1f" transform="matrix(50.9,-50.9,50.9,50.9,199.9,924.1)" />
<use xlink:href="#f0_2a" transform="matrix(50.9,-50.9,50.9,50.9,260.4,863.6)" />
<use xlink:href="#f0_28" transform="matrix(50.9,-50.9,50.9,50.9,303.7,820.3)" />
<use xlink:href="#f0_25" transform="matrix(50.9,-50.9,50.9,50.9,320.9,803.1)" />
<use xlink:href="#f0_2a" transform="matrix(50.9,-50.9,50.9,50.9,338.2,785.8)" />
<use xlink:href="#f0_21" transform="matrix(50.9,-50.9,50.9,50.9,381.4,742.5)" />
<use xlink:href="#f0_2k" transform="matrix(50.9,-50.9,50.9,50.9,424.7,699.3)" />
<use xlink:href="#f0_1x" transform="matrix(50.9,-50.9,50.9,50.9,463.6,660.4)" />
<use xlink:href="#f0_29" transform="matrix(50.9,-50.9,50.9,50.9,506.8,617.2)" />
<use xlink:href="#f0_2c" transform="matrix(50.9,-50.9,50.9,50.9,571.6,552.4)" />
<use xlink:href="#f0_2b" transform="matrix(50.9,-50.9,50.9,50.9,614.9,509.1)" />
<use xlink:href="#f0_25" transform="matrix(50.9,-50.9,50.9,50.9,658.1,465.9)" />
<use xlink:href="#f0_2a" transform="matrix(50.9,-50.9,50.9,50.9,675.4,448.6)" />
<use xlink:href="#f0_2g" transform="matrix(50.9,-50.9,50.9,50.9,718.6,405.4)" />
</g>
<g fill="#000000" >
<use xlink:href="#f1_n" transform="matrix(10.4,0,0,10.4,129.2,83.8)" />
<use xlink:href="#f1_r" transform="matrix(10.4,0,0,10.4,138.1,83.8)" />
<use xlink:href="#f1_h" transform="matrix(10.4,0,0,10.4,147.3,83.8)" />
<use xlink:href="#f2_1r" transform="matrix(10.5,0,0,12,180.9,81.7)" />
<use xlink:href="#f2_1t" transform="matrix(10.5,0,0,12,206.2,81.7)" />
<use xlink:href="#f1_k" transform="matrix(7,0,0,7.1,173.7,63.9)" />
<use xlink:href="#f1_j" transform="matrix(7,0,0,7.1,173.3,102)" />
<use xlink:href="#f1_l" transform="matrix(10.7,0,0,10.6,186.6,83.2)" />
<use xlink:href="#f3_2j" transform="matrix(10.7,0,0,10.6,195.6,83.2)" />
<use xlink:href="#f3_1z" transform="matrix(10.7,0,0,10.6,211.6,83.2)" />
<use xlink:href="#f3_2j" transform="matrix(10.7,0,0,10.6,220.6,83.2)" />
<use xlink:href="#f2_50" transform="matrix(15.9,0,0,15.9,172.6,88.6)" />
<use xlink:href="#f1_2i" transform="matrix(10.4,0,0,10.4,241.2,83.8)" />
<use xlink:href="#f1_23" transform="matrix(10.4,0,0,10.4,252.8,83.8)" />
<use xlink:href="#f1_20" transform="matrix(10.4,0,0,10.4,261.6,83.8)" />
<use xlink:href="#f1_2d" transform="matrix(10.4,0,0,10.4,270.5,83.8)" />
<use xlink:href="#f1_20" transform="matrix(10.4,0,0,10.4,275.8,83.8)" />
<use xlink:href="#f1_1q" transform="matrix(10.4,0,0,10.4,291.6,83.8)" />
<use xlink:href="#f1_1s" transform="matrix(10.4,0,0,10.4,310.4,83.8)" />
<use xlink:href="#f1_24" transform="matrix(10.4,0,0,10.4,321.9,83.8)" />
<use xlink:href="#f1_2e" transform="matrix(10.4,0,0,10.4,325.5,83.8)" />
<use xlink:href="#f1_22" transform="matrix(10.4,0,0,10.4,340.4,83.8)" />
<use xlink:href="#f1_2d" transform="matrix(10.4,0,0,10.4,349.3,83.8)" />
<use xlink:href="#f1_20" transform="matrix(10.4,0,0,10.4,354.6,83.8)" />
<use xlink:href="#f1_1w" transform="matrix(10.4,0,0,10.4,363.5,83.8)" />
<use xlink:href="#f1_2f" transform="matrix(10.4,0,0,10.4,372.3,83.8)" />
<use xlink:href="#f1_20" transform="matrix(10.4,0,0,10.4,376.8,83.8)" />
<use xlink:href="#f1_2e" transform="matrix(10.4,0,0,10.4,385.6,83.8)" />
<use xlink:href="#f1_2f" transform="matrix(10.4,0,0,10.4,393.6,83.8)" />
<use xlink:href="#f1_24" transform="matrix(10.4,0,0,10.4,405.2,83.8)" />
<use xlink:href="#f1_29" transform="matrix(10.4,0,0,10.4,408.7,83.8)" />
<use xlink:href="#f1_2f" transform="matrix(10.4,0,0,10.4,417.6,83.8)" />
<use xlink:href="#f1_20" transform="matrix(10.4,0,0,10.4,422,83.8)" />
<use xlink:href="#f1_22" transform="matrix(10.4,0,0,10.4,430.9,83.8)" />
<use xlink:href="#f1_20" transform="matrix(10.4,0,0,10.4,439.8,83.8)" />
<use xlink:href="#f1_2d" transform="matrix(10.4,0,0,10.4,448.6,83.8)" />
<use xlink:href="#f1_21" transform="matrix(10.4,0,0,10.4,461.1,83.8)" />
<use xlink:href="#f1_2g" transform="matrix(10.4,0,0,10.4,465.5,83.8)" />
<use xlink:href="#f1_29" transform="matrix(10.4,0,0,10.4,474.4,83.8)" />
<use xlink:href="#f1_1y" transform="matrix(10.4,0,0,10.4,483.3,83.8)" />
<use xlink:href="#f1_2f" transform="matrix(10.4,0,0,10.4,491.3,83.8)" />
<use xlink:href="#f1_24" transform="matrix(10.4,0,0,10.4,495.7,83.8)" />
<use xlink:href="#f1_2a" transform="matrix(10.4,0,0,10.4,499.2,83.8)" />
<use xlink:href="#f1_29" transform="matrix(10.4,0,0,10.4,508.1,83.8)" />
<use xlink:href="#f1_h" transform="matrix(10.4,0,0,10.4,517,83.8)" />
<use xlink:href="#f1_n" transform="matrix(10.4,0,0,10.4,129.2,139.2)" />
<use xlink:href="#f1_s" transform="matrix(10.4,0,0,10.4,138.1,139.2)" />
<use xlink:href="#f1_h" transform="matrix(10.4,0,0,10.4,147.3,139.2)" />
<use xlink:href="#f1_27" transform="matrix(7,0,0,7,190.7,131.5)" />
<use xlink:href="#f1_2a" transform="matrix(7,0,0,7,193.1,131.5)" />
<use xlink:href="#f1_22" transform="matrix(7,0,0,7,199,131.5)" />
<use xlink:href="#f1_27" transform="matrix(7,0,0,7,220.3,131.5)" />
<use xlink:href="#f1_2a" transform="matrix(7,0,0,7,222.7,131.5)" />
<use xlink:href="#f1_22" transform="matrix(7,0,0,7,228.7,131.5)" />
<use xlink:href="#f1_2e" transform="matrix(7,0,0,7,236,131.5)" />
<use xlink:href="#f1_24" transform="matrix(7,0,0,7,241.4,131.5)" />
<use xlink:href="#f1_29" transform="matrix(7,0,0,7,243.7,131.5)" />
<use xlink:href="#f1_h" transform="matrix(10.6,0,0,10.5,276.8,138.7)" />
<use xlink:href="#f3_2j" transform="matrix(7,0,0,7,206.6,131.5)" />
<use xlink:href="#f3_2j" transform="matrix(7,0,0,7,251.3,131.5)" />
<use xlink:href="#f3_20" transform="matrix(10.6,0,0,10.5,180.8,138.7)" />
<use xlink:href="#f3_1z" transform="matrix(10.6,0,0,10.5,258.2,138.7)" />
<use xlink:href="#f3_2j" transform="matrix(10.6,0,0,10.5,267.1,138.7)" />
<use xlink:href="#f2_f" transform="matrix(7,0,0,7,214,131.5)" />
<use xlink:href="#f2_50" transform="matrix(15.8,0,0,15.8,172.6,144)" />
<use xlink:href="#f1_o" transform="matrix(10.4,0,0,10.4,422.6,139.2)" />
<use xlink:href="#f1_j" transform="matrix(10.4,0,0,10.4,431.4,139.2)" />
<use xlink:href="#f1_h" transform="matrix(10.4,0,0,10.4,440.6,139.2)" />
<use xlink:href="#f2_c" transform="matrix(6.9,0,0,7.6,498.1,130.8)" />
<use xlink:href="#f2_d" transform="matrix(6.9,0,0,7.6,519.9,130.7)" />
<use xlink:href="#f1_27" transform="matrix(7,0,0,7,483.9,132.2)" />
<use xlink:href="#f1_2a" transform="matrix(7,0,0,7,486.3,132.2)" />
<use xlink:href="#f1_22" transform="matrix(7,0,0,7,492.2,132.2)" />
<use xlink:href="#f1_k" transform="matrix(7,0,0,7,515.3,132.2)" />
<use xlink:href="#f1_27" transform="matrix(7,0,0,7,530,132.2)" />
<use xlink:href="#f1_2a" transform="matrix(7,0,0,7,532.4,132.2)" />
<use xlink:href="#f1_22" transform="matrix(7,0,0,7,538.4,132.2)" />
<use xlink:href="#f1_h" transform="matrix(10.5,0,0,10.5,571.3,139.4)" />
<use xlink:href="#f3_2j" transform="matrix(7,0,0,7,502.2,132.2)" />
<use xlink:href="#f3_2j" transform="matrix(7,0,0,7,545.9,132.2)" />
<use xlink:href="#f3_20" transform="matrix(10.5,0,0,10.5,474.1,139.4)" />
<use xlink:href="#f3_1z" transform="matrix(10.5,0,0,10.5,552.8,139.4)" />
<use xlink:href="#f3_2j" transform="matrix(10.5,0,0,10.5,561.7,139.4)" />
<use xlink:href="#f2_f" transform="matrix(7,0,0,7,509.5,132.2)" />
<use xlink:href="#f2_h" transform="matrix(7,0,0,7,523.9,132.2)" />
<use xlink:href="#f2_50" transform="matrix(15.8,0,0,15.8,465.9,144.7)" />
<use xlink:href="#f1_o" transform="matrix(10.4,0,0,10.4,129.2,203)" />
<use xlink:href="#f1_k" transform="matrix(10.4,0,0,10.4,138.1,203)" />
<use xlink:href="#f1_h" transform="matrix(10.4,0,0,10.4,147.3,203)" />
</g>
<path d="M182.2,196.2h42.2" class="g0_63" />
<g fill="#000000" >
<use xlink:href="#f1_2e" transform="matrix(10.4,0,0,10.4,187.3,190.1)" />
<use xlink:href="#f1_24" transform="matrix(10.4,0,0,10.4,195.3,190.1)" />
<use xlink:href="#f1_29" transform="matrix(10.4,0,0,10.4,198.8,190.1)" />
<use xlink:href="#f1_h" transform="matrix(10.4,0,0,10.4,246.7,200.4)" />
<use xlink:href="#f1_2e" transform="matrix(10.4,0,0,10.4,182.9,212.7)" />
<use xlink:href="#f1_24" transform="matrix(10.4,0,0,10.4,190.9,212.7)" />
<use xlink:href="#f1_29" transform="matrix(10.4,0,0,10.4,194.5,212.7)" />
<use xlink:href="#f1_l" transform="matrix(10.4,0,0,10.4,204.8,212.7)" />
<use xlink:href="#f3_2j" transform="matrix(10.4,0,0,10.4,209.4,190.1)" />
<use xlink:href="#f3_1z" transform="matrix(10.4,0,0,10.4,228.3,200.4)" />
<use xlink:href="#f3_2j" transform="matrix(10.4,0,0,10.4,237.2,200.4)" />
<use xlink:href="#f3_2j" transform="matrix(10.4,0,0,10.4,213.7,212.7)" />
<use xlink:href="#f2_50" transform="matrix(15.6,0,0,15.6,172.6,205.7)" />
<use xlink:href="#f1_o" transform="matrix(10.4,0,0,10.4,422.6,203)" />
<use xlink:href="#f1_l" transform="matrix(10.4,0,0,10.4,431.4,203)" />
<use xlink:href="#f1_h" transform="matrix(10.4,0,0,10.4,440.6,203)" />
<use xlink:href="#f1_2e" transform="matrix(10.4,0,0,10.5,475.1,201.4)" />
<use xlink:href="#f1_24" transform="matrix(10.4,0,0,10.5,483,201.4)" />
<use xlink:href="#f1_29" transform="matrix(10.4,0,0,10.5,486.6,201.4)" />
<use xlink:href="#f1_2e" transform="matrix(10.4,0,0,10.5,509,201.4)" />
<use xlink:href="#f1_24" transform="matrix(10.4,0,0,10.5,517,201.4)" />
<use xlink:href="#f1_29" transform="matrix(10.4,0,0,10.5,520.5,201.4)" />
<use xlink:href="#f1_l" transform="matrix(10.4,0,0,10.5,530.9,201.4)" />
<use xlink:href="#f1_h" transform="matrix(10.4,0,0,10.5,571.7,201.4)" />
<use xlink:href="#f3_2j" transform="matrix(10.4,0,0,10.5,497.1,201.4)" />
<use xlink:href="#f3_2j" transform="matrix(10.4,0,0,10.5,539.7,201.4)" />
<use xlink:href="#f3_1z" transform="matrix(10.4,0,0,10.5,553.1,201.4)" />
<use xlink:href="#f3_2j" transform="matrix(10.4,0,0,10.5,562,201.4)" />
<use xlink:href="#f2_50" transform="matrix(15.7,0,0,15.8,466,206.7)" />
<use xlink:href="#f1_o" transform="matrix(10.4,0,0,10.4,129.2,279.4)" />
<use xlink:href="#f1_m" transform="matrix(10.4,0,0,10.4,138.1,279.4)" />
<use xlink:href="#f1_h" transform="matrix(10.4,0,0,10.4,147.3,279.4)" />
</g>
<path d="M191.8,265.1v15.2m35.6,-15.2v15.2" class="g1_63" />
<path d="M180.6,300.2h7.2m-5.5,-49.6l-3.4,10.6" class="g2_63" />
<g fill="#000000" >
<use xlink:href="#f1_n" transform="matrix(7,0,0,7,183,259)" />
<use xlink:href="#f1_n" transform="matrix(7,0,0,7,181.2,311.3)" />
<use xlink:href="#f1_2e" transform="matrix(10.6,0,0,10.5,193.6,278.9)" />
<use xlink:href="#f1_24" transform="matrix(10.6,0,0,10.5,201.7,278.9)" />
<use xlink:href="#f1_29" transform="matrix(10.6,0,0,10.5,205.3,278.9)" />
<use xlink:href="#f1_h" transform="matrix(10.6,0,0,10.5,248.5,278.9)" />
<use xlink:href="#f3_2j" transform="matrix(10.6,0,0,10.5,215.9,278.9)" />
<use xlink:href="#f3_1z" transform="matrix(10.6,0,0,10.5,229.8,278.9)" />
<use xlink:href="#f3_2j" transform="matrix(10.6,0,0,10.5,238.8,278.9)" />
<use xlink:href="#f2_2c" transform="matrix(7,0,0,7,172.9,259)" />
<use xlink:href="#f2_2c" transform="matrix(7,0,0,7,181.2,296.3)" />
<use xlink:href="#f2_h" transform="matrix(7,0,0,7,173.7,303.1)" />
<use xlink:href="#f2_50" transform="matrix(15.8,0,0,15.8,177.1,284.2)" />
<use xlink:href="#f1_o" transform="matrix(10.4,0,0,10.4,422.6,279.4)" />
<use xlink:href="#f1_n" transform="matrix(10.4,0,0,10.4,431.4,279.4)" />
<use xlink:href="#f1_h" transform="matrix(10.4,0,0,10.4,440.6,279.4)" />
<use xlink:href="#f2_c" transform="matrix(10.5,0,0,11.5,482.9,272.2)" />
<use xlink:href="#f2_d" transform="matrix(10.5,0,0,11.5,499.4,272)" />
<use xlink:href="#f2_c" transform="matrix(10.5,0,0,11.7,554,272.4)" />
<use xlink:href="#f2_d" transform="matrix(10.5,0,0,11.7,619.4,272.3)" />
<use xlink:href="#f1_h" transform="matrix(10.6,0,0,10.6,646.2,274.3)" />
<use xlink:href="#f3_1x" transform="matrix(7,0,0,7.1,466.1,255)" />
<use xlink:href="#f3_1w" transform="matrix(7,0,0,7.1,537.5,255)" />
<use xlink:href="#f3_1w" transform="matrix(7,0,0,7.1,466.2,293)" />
<use xlink:href="#f3_1x" transform="matrix(7,0,0,7.1,537.3,293)" />
<use xlink:href="#f3_21" transform="matrix(10.6,0,0,10.6,474.3,274.3)" />
<use xlink:href="#f3_2j" transform="matrix(10.6,0,0,10.6,488.8,274.3)" />
<use xlink:href="#f3_1z" transform="matrix(10.6,0,0,10.6,505.3,274.3)" />
<use xlink:href="#f3_2j" transform="matrix(10.6,0,0,10.6,514.3,274.3)" />
<use xlink:href="#f3_21" transform="matrix(10.6,0,0,10.6,545.5,274.3)" />
<use xlink:href="#f3_1w" transform="matrix(10.6,0,0,10.6,559.2,274.3)" />
<use xlink:href="#f3_1x" transform="matrix(10.6,0,0,10.6,583.4,274.3)" />
<use xlink:href="#f3_2j" transform="matrix(10.6,0,0,10.6,608.9,274.3)" />
<use xlink:href="#f3_1z" transform="matrix(10.6,0,0,10.6,627.7,274.3)" />
<use xlink:href="#f3_2j" transform="matrix(10.6,0,0,10.6,636.8,274.3)" />
<use xlink:href="#f2_f" transform="matrix(10.6,0,0,10.6,527.4,274.3)" />
<use xlink:href="#f2_f" transform="matrix(10.6,0,0,10.6,571.6,274.3)" />
<use xlink:href="#f2_h" transform="matrix(10.6,0,0,10.6,596.5,274.3)" />
<use xlink:href="#f2_50" transform="matrix(15.9,0,0,15.9,465.8,279.6)" />
<use xlink:href="#f2_50" transform="matrix(15.9,0,0,15.9,537,279.6)" />
<use xlink:href="#f1_o" transform="matrix(10.4,0,0,10.4,129.2,373.1)" />
<use xlink:href="#f1_o" transform="matrix(10.4,0,0,10.4,138.1,373.1)" />
<use xlink:href="#f1_h" transform="matrix(10.4,0,0,10.4,147.3,373.1)" />
</g>
<path d="M181.7,368.7h84.7" class="g3_63" />
<g fill="#000000" >
<use xlink:href="#f2_f" transform="matrix(10.5,0,0,10.4,221,385.2)" />
<use xlink:href="#f2_50" transform="matrix(15.7,0,0,15.7,172.4,378.1)" />
<use xlink:href="#f1_k" transform="matrix(10.5,0,0,10.4,220.5,362.5)" />
<use xlink:href="#f1_h" transform="matrix(10.5,0,0,10.4,285.7,372.9)" />
<use xlink:href="#f1_2e" transform="matrix(10.5,0,0,10.4,182.4,385.2)" />
<use xlink:href="#f1_20" transform="matrix(10.5,0,0,10.4,190.1,385.2)" />
<use xlink:href="#f1_1y" transform="matrix(10.5,0,0,10.4,198.7,385.2)" />
<use xlink:href="#f1_2f" transform="matrix(10.5,0,0,10.4,233.1,385.2)" />
<use xlink:href="#f1_1w" transform="matrix(10.5,0,0,10.4,237.5,385.2)" />
<use xlink:href="#f1_29" transform="matrix(10.5,0,0,10.4,246.2,385.2)" />
<use xlink:href="#f3_1z" transform="matrix(10.5,0,0,10.4,268,372.9)" />
<use xlink:href="#f3_2j" transform="matrix(10.5,0,0,10.4,276.6,372.9)" />
<use xlink:href="#f3_2j" transform="matrix(10.5,0,0,10.4,208.4,385.2)" />
<use xlink:href="#f3_2j" transform="matrix(10.5,0,0,10.4,256.1,385.2)" />
<use xlink:href="#f1_o" transform="matrix(10.4,0,0,10.4,422.6,373.1)" />
<use xlink:href="#f1_p" transform="matrix(10.4,0,0,10.4,431.4,373.1)" />
<use xlink:href="#f1_h" transform="matrix(10.4,0,0,10.4,440.6,373.1)" />
</g>
<path d="M475.5,367.3h59" class="g4_63" />
<g fill="#000000" >
<use xlink:href="#f1_l" transform="matrix(7,0,0,7,505.4,353.9)" />
<use xlink:href="#f1_2e" transform="matrix(10.4,0,0,10.5,485,361.1)" />
<use xlink:href="#f1_24" transform="matrix(10.4,0,0,10.5,493,361.1)" />
<use xlink:href="#f1_29" transform="matrix(10.4,0,0,10.5,496.6,361.1)" />
<use xlink:href="#f1_h" transform="matrix(10.4,0,0,10.5,554.5,371.5)" />
<use xlink:href="#f1_k" transform="matrix(10.4,0,0,10.5,475.1,383.9)" />
<use xlink:href="#f1_1y" transform="matrix(10.4,0,0,10.5,496.7,383.9)" />
<use xlink:href="#f1_2a" transform="matrix(10.4,0,0,10.5,504.7,383.9)" />
<use xlink:href="#f1_2e" transform="matrix(10.4,0,0,10.5,513.6,383.9)" />
<use xlink:href="#f3_2j" transform="matrix(10.4,0,0,10.5,515,361.1)" />
<use xlink:href="#f3_1z" transform="matrix(10.4,0,0,10.5,536.1,371.5)" />
<use xlink:href="#f3_2j" transform="matrix(10.4,0,0,10.5,544.9,371.5)" />
<use xlink:href="#f3_2j" transform="matrix(10.4,0,0,10.5,523.8,383.9)" />
<use xlink:href="#f2_f" transform="matrix(10.4,0,0,10.5,484.5,383.9)" />
<use xlink:href="#f2_50" transform="matrix(15.8,0,0,15.8,466,376.8)" />
<use xlink:href="#f1_o" transform="matrix(10.4,0,0,10.4,129.2,445.7)" />
<use xlink:href="#f1_q" transform="matrix(10.4,0,0,10.4,138.1,445.7)" />
<use xlink:href="#f1_h" transform="matrix(10.4,0,0,10.4,147.3,445.7)" />
</g>
<path d="M182.2,439h56.5" class="g5_63" />
<g fill="#000000" >
<use xlink:href="#f1_k" transform="matrix(10.4,0,0,10.4,181.7,432.9)" />
<use xlink:href="#f1_2f" transform="matrix(10.4,0,0,10.4,203.7,432.9)" />
<use xlink:href="#f1_1w" transform="matrix(10.4,0,0,10.4,208.2,432.9)" />
<use xlink:href="#f1_29" transform="matrix(10.4,0,0,10.4,217.2,432.9)" />
<use xlink:href="#f1_h" transform="matrix(10.4,0,0,10.4,258.9,443.2)" />
<use xlink:href="#f1_k" transform="matrix(10.4,0,0,10.4,181.7,455.4)" />
<use xlink:href="#f1_2f" transform="matrix(10.4,0,0,10.4,203.7,455.4)" />
<use xlink:href="#f1_1w" transform="matrix(10.4,0,0,10.4,208.2,455.4)" />
<use xlink:href="#f1_29" transform="matrix(10.4,0,0,10.4,217.2,455.4)" />
<use xlink:href="#f3_2j" transform="matrix(10.4,0,0,10.4,227.9,432.9)" />
<use xlink:href="#f3_1z" transform="matrix(10.4,0,0,10.4,240.3,443.2)" />
<use xlink:href="#f3_2j" transform="matrix(10.4,0,0,10.4,249.3,443.2)" />
<use xlink:href="#f3_2j" transform="matrix(10.4,0,0,10.4,227.9,455.4)" />
<use xlink:href="#f2_h" transform="matrix(10.5,0,0,10.4,191.5,432.9)" />
<use xlink:href="#f2_f" transform="matrix(10.5,0,0,10.4,191.2,455.4)" />
<use xlink:href="#f2_50" transform="matrix(15.7,0,0,15.6,172.6,448.4)" />
<use xlink:href="#f1_o" transform="matrix(10.4,0,0,10.4,422.6,445.7)" />
<use xlink:href="#f1_r" transform="matrix(10.4,0,0,10.4,431.4,445.7)" />
<use xlink:href="#f1_h" transform="matrix(10.4,0,0,10.4,440.6,445.7)" />
</g>
<path d="M475.5,438.9h53.1" class="g6_63" />
<g fill="#000000" >
<use xlink:href="#f1_h" transform="matrix(10.4,0,0,10.4,548.7,443.1)" />
<use xlink:href="#f3_2j" transform="matrix(7,0,0,6.9,485.6,425.6)" />
<use xlink:href="#f3_2j" transform="matrix(7,0,0,6.9,519.3,425.6)" />
<use xlink:href="#f3_2j" transform="matrix(7,0,0,6.9,502.3,449.4)" />
<use xlink:href="#f3_1w" transform="matrix(10.4,0,0,10.4,475.8,432.8)" />
<use xlink:href="#f3_1x" transform="matrix(10.4,0,0,10.4,509,432.8)" />
<use xlink:href="#f3_1z" transform="matrix(10.4,0,0,10.4,530.2,443.1)" />
<use xlink:href="#f3_2j" transform="matrix(10.4,0,0,10.4,539.1,443.1)" />
<use xlink:href="#f3_1y" transform="matrix(10.4,0,0,10.4,492.5,456.6)" />
<use xlink:href="#f2_f" transform="matrix(10.4,0,0,10.4,497.3,432.8)" />
<use xlink:href="#f2_50" transform="matrix(15.6,0,0,15.6,465.9,448.4)" />
<use xlink:href="#f1_o" transform="matrix(10.4,0,0,10.4,129.2,499.2)" />
<use xlink:href="#f1_s" transform="matrix(10.4,0,0,10.4,138.1,499.2)" />
<use xlink:href="#f1_h" transform="matrix(10.4,0,0,10.4,147.3,499.2)" />
<use xlink:href="#f1_14" transform="matrix(10.4,0,0,10.4,169.9,499.2)" />
<use xlink:href="#f1_2h" transform="matrix(10.4,0,0,10.4,180.7,499.2)" />
<use xlink:href="#f1_1w" transform="matrix(10.4,0,0,10.4,188.7,499.2)" />
<use xlink:href="#f1_27" transform="matrix(10.4,0,0,10.4,197.6,499.2)" />
<use xlink:href="#f1_2g" transform="matrix(10.4,0,0,10.4,201.1,499.2)" />
<use xlink:href="#f1_1w" transform="matrix(10.4,0,0,10.4,210,499.2)" />
<use xlink:href="#f1_2f" transform="matrix(10.4,0,0,10.4,218.9,499.2)" />
<use xlink:href="#f1_20" transform="matrix(10.4,0,0,10.4,223.3,499.2)" />
<use xlink:href="#f1_b" transform="matrix(10.4,0,0,10.4,192.5,556.8)" />
<use xlink:href="#f1_24" transform="matrix(10.4,0,0,10.4,197.8,556.8)" />
<use xlink:href="#f1_c" transform="matrix(10.4,0,0,10.4,201.3,556.8)" />
</g>
<path d="M279.3,542.4l1.5,-.9l4,6.5L289,530.9h11.5" class="g7_63" />
<path fill-rule="evenodd" d="M279.2,542.3l2.1,-1.2l3.5,5.4l4,-16h11.7v.8H289.3L285.2,548h-.8l-3.9,-6l-1.1,.7l-.2,-.4Z" class="g8_63" />
<path d="M365.8,542.4l1.6,-.9l4,6.5l4.2,-17.1h11.5" class="g7_63" />
<path fill-rule="evenodd" d="M365.7,542.3l2.1,-1.2l3.6,5.4l3.9,-16h11.8v.8H375.9L371.7,548H371l-4,-6l-1,.7l-.3,-.4Z" class="g8_63" />
<path d="M279.2,566.9l1.5,-.9l4,6.5l4.2,-17.2h11.5" class="g7_63" />
<path fill-rule="evenodd" d="M279.1,566.7l2.1,-1.2l3.5,5.4l4,-15.9h11.7v.7H289.2l-4.1,16.8h-.8l-3.9,-6l-1.1,.6l-.2,-.4Z" class="g8_63" />
<path d="M366,566.9l1.5,-.9l4,6.5l4.2,-17.2h11.5" class="g7_63" />
<path fill-rule="evenodd" d="M365.9,566.7l2.1,-1.2l3.5,5.4l4,-15.9h11.7v.7H376l-4.1,16.8h-.8l-3.9,-6l-1.1,.6l-.2,-.4Z" class="g8_63" />
<path d="M240.8,552.7h148" class="g9_63" />
<g fill="#000000" >
<use xlink:href="#f2_1r" transform="matrix(10.5,0,0,15.1,459.5,558.4)" />
<use xlink:href="#f2_1t" transform="matrix(10.5,0,0,15.1,492.7,558.4)" />
<use xlink:href="#f1_k" transform="matrix(7.3,0,0,7.4,268.3,539.3)" />
<use xlink:href="#f1_k" transform="matrix(7.3,0,0,7.4,354.9,539.3)" />
<use xlink:href="#f1_k" transform="matrix(7.3,0,0,7.4,268.2,563.8)" />
<use xlink:href="#f1_k" transform="matrix(7.3,0,0,7.4,355,563.8)" />
<use xlink:href="#f1_2e" transform="matrix(10.5,0,0,10.5,241.9,546.5)" />
<use xlink:href="#f1_24" transform="matrix(10.5,0,0,10.5,249.9,546.5)" />
<use xlink:href="#f1_29" transform="matrix(10.5,0,0,10.5,253.5,546.5)" />
<use xlink:href="#f1_1y" transform="matrix(10.5,0,0,10.5,323.2,546.5)" />
<use xlink:href="#f1_2a" transform="matrix(10.5,0,0,10.5,331.3,546.5)" />
<use xlink:href="#f1_2e" transform="matrix(10.5,0,0,10.5,340.2,546.5)" />
<use xlink:href="#f1_f" transform="matrix(10.5,0,0,10.5,414.1,556.9)" />
<use xlink:href="#f1_j" transform="matrix(10.5,0,0,10.5,466.5,556.9)" />
<use xlink:href="#f1_f" transform="matrix(10.5,0,0,10.5,474.5,556.9)" />
<use xlink:href="#f1_k" transform="matrix(10.5,0,0,10.5,484.8,556.9)" />
<use xlink:href="#f1_2e" transform="matrix(10.5,0,0,10.5,241.8,571)" />
<use xlink:href="#f1_24" transform="matrix(10.5,0,0,10.5,249.8,571)" />
<use xlink:href="#f1_29" transform="matrix(10.5,0,0,10.5,253.4,571)" />
<use xlink:href="#f1_1y" transform="matrix(10.5,0,0,10.5,323.4,571)" />
<use xlink:href="#f1_2a" transform="matrix(10.5,0,0,10.5,331.4,571)" />
<use xlink:href="#f1_2e" transform="matrix(10.5,0,0,10.5,340.3,571)" />
<use xlink:href="#f3_2j" transform="matrix(10.5,0,0,10.5,289.8,546.5)" />
<use xlink:href="#f3_2j" transform="matrix(10.5,0,0,10.5,376.3,546.5)" />
<use xlink:href="#f3_1z" transform="matrix(10.5,0,0,10.5,396.1,556.9)" />
<use xlink:href="#f3_2j" transform="matrix(10.5,0,0,10.5,405,556.9)" />
<use xlink:href="#f3_2j" transform="matrix(10.5,0,0,10.5,425.6,556.9)" />
<use xlink:href="#f3_2j" transform="matrix(10.5,0,0,10.5,289.7,571)" />
<use xlink:href="#f3_2j" transform="matrix(10.5,0,0,10.5,376.5,571)" />
<use xlink:href="#f2_h" transform="matrix(7.3,0,0,7.4,262.2,539.3)" />
<use xlink:href="#f2_h" transform="matrix(7.3,0,0,7.4,348.8,539.3)" />
<use xlink:href="#f2_h" transform="matrix(7.3,0,0,7.4,262.1,563.8)" />
<use xlink:href="#f2_h" transform="matrix(7.3,0,0,7.4,348.9,563.8)" />
<use xlink:href="#f2_h" transform="matrix(10.5,0,0,10.5,307.7,546.5)" />
<use xlink:href="#f2_40" transform="matrix(10.5,0,0,10.5,443.4,556.9)" />
<use xlink:href="#f2_f" transform="matrix(10.5,0,0,10.5,307.6,571)" />
<use xlink:href="#f2_50" transform="matrix(18.8,0,0,18.9,227.6,564.1)" />
<use xlink:href="#f1_b" transform="matrix(10.4,0,0,10.4,188.8,637.3)" />
<use xlink:href="#f1_24" transform="matrix(10.4,0,0,10.4,194.1,637.3)" />
<use xlink:href="#f1_24" transform="matrix(10.4,0,0,10.4,197.7,637.3)" />
<use xlink:href="#f1_c" transform="matrix(10.4,0,0,10.4,201.2,637.3)" />
</g>
<path d="M280.7,623.2l1.6,-.9l4,6.5l4.2,-17.1H302" class="g7_63" />
<path fill-rule="evenodd" d="M280.6,623l2.1,-1.1l3.6,5.3l3.9,-15.9H302v.8H290.8l-4.1,16.7h-.8l-4,-6l-1,.7l-.3,-.5Z" class="g8_63" />
<path d="M280.9,647.7l1.6,-.9l3.9,6.5l4.3,-17.2h11.5" class="g7_63" />
<path fill-rule="evenodd" d="M280.8,647.5l2.1,-1.2l3.5,5.4l4,-16h11.8v.8H291l-4.2,16.8H286l-3.9,-6l-1.1,.6l-.2,-.4Z" class="g8_63" />
<path d="M251.6,633.5h52.1" class="g10_63" />
<path d="M241,639.4l1.4,-2.4l4,17.8l4.3,-46.6h54.5" class="g7_63" />
<path fill-rule="evenodd" d="M240.8,639.3l2.1,-3.3l3.5,15.2l4,-43.4h54.8v.8H251l-4.2,46.2H246L242,638l-.8,1.6l-.4,-.3Z" class="g8_63" />
<g fill="#000000" >
<use xlink:href="#f1_k" transform="matrix(10.5,0,0,10.5,251.8,627.3)" />
<use xlink:href="#f1_k" transform="matrix(10.5,0,0,10.5,251.7,651.8)" />
<use xlink:href="#f3_2j" transform="matrix(10.5,0,0,10.5,291.3,627.3)" />
<use xlink:href="#f3_1z" transform="matrix(10.5,0,0,10.5,312.7,637.7)" />
<use xlink:href="#f3_2j" transform="matrix(10.5,0,0,10.5,321.6,637.7)" />
<use xlink:href="#f3_2j" transform="matrix(10.5,0,0,10.5,291.4,651.8)" />
<use xlink:href="#f2_h" transform="matrix(10.5,0,0,10.5,264.7,627.3)" />
<use xlink:href="#f2_f" transform="matrix(10.5,0,0,10.5,264.6,651.8)" />
<use xlink:href="#f2_50" transform="matrix(18.9,0,0,18.9,227.5,644.9)" />
<use xlink:href="#f1_b" transform="matrix(10.4,0,0,10.4,185.3,714.8)" />
<use xlink:href="#f1_24" transform="matrix(10.4,0,0,10.4,190.6,714.8)" />
<use xlink:href="#f1_24" transform="matrix(10.4,0,0,10.4,194.2,714.8)" />
<use xlink:href="#f1_24" transform="matrix(10.4,0,0,10.4,197.7,714.8)" />
<use xlink:href="#f1_c" transform="matrix(10.4,0,0,10.4,201.3,714.8)" />
</g>
<path d="M242.4,697.5l1.6,-1.1l3.9,7.8l4.3,-20.7h47.3" class="g7_63" />
<path fill-rule="evenodd" d="M242.3,697.3l2.1,-1.5l3.5,6.5l4,-19.2h47.6v.7h-47l-4.2,20.4h-.7l-4,-7.3l-1,.8l-.3,-.4Z" class="g8_63" />
<g fill="#000000" >
<use xlink:href="#f2_c" transform="matrix(10.6,0,0,14.6,336.6,700)" />
<use xlink:href="#f2_d" transform="matrix(10.6,0,0,14.6,390.9,700)" />
</g>
<path d="M240.8,710h234" class="g10_63" />
<g fill="#000000" >
<use xlink:href="#f2_4r" transform="matrix(10.6,0,0,10.6,304.7,698.3)" />
<use xlink:href="#f2_57" transform="matrix(10.6,0,0,10.6,467.8,698.3)" />
<use xlink:href="#f2_f" transform="matrix(10.6,0,0,10.6,277.8,702.7)" />
<use xlink:href="#f2_f" transform="matrix(10.6,0,0,10.6,368.7,702.7)" />
<use xlink:href="#f2_h" transform="matrix(10.6,0,0,10.6,402.6,702.7)" />
<use xlink:href="#f2_4t" transform="matrix(10.6,0,0,10.6,304.7,706.5)" />
<use xlink:href="#f2_59" transform="matrix(10.6,0,0,10.6,467.8,706.5)" />
<use xlink:href="#f2_50" transform="matrix(19.1,0,0,19,227.4,721.6)" />
<use xlink:href="#f1_l" transform="matrix(7.4,0,0,7.4,263.2,695.4)" />
<use xlink:href="#f1_l" transform="matrix(7.4,0,0,7.4,354.2,695.4)" />
<use xlink:href="#f1_n" transform="matrix(7.4,0,0,7.4,359.2,721.1)" />
<use xlink:href="#f1_k" transform="matrix(10.7,0,0,10.6,292.2,702.7)" />
<use xlink:href="#f1_27" transform="matrix(10.7,0,0,10.6,311.8,702.7)" />
<use xlink:href="#f1_2a" transform="matrix(10.7,0,0,10.6,315.5,702.7)" />
<use xlink:href="#f1_22" transform="matrix(10.7,0,0,10.6,324.5,702.7)" />
<use xlink:href="#f1_k" transform="matrix(10.7,0,0,10.6,383.3,702.7)" />
<use xlink:href="#f1_l" transform="matrix(10.7,0,0,10.6,418.2,702.7)" />
<use xlink:href="#f1_27" transform="matrix(10.7,0,0,10.6,430.4,702.7)" />
<use xlink:href="#f1_2a" transform="matrix(10.7,0,0,10.6,434,702.7)" />
<use xlink:href="#f1_22" transform="matrix(10.7,0,0,10.6,443.1,702.7)" />
<use xlink:href="#f3_2j" transform="matrix(10.7,0,0,10.6,252.8,702.7)" />
<use xlink:href="#f3_2j" transform="matrix(10.7,0,0,10.6,343.7,702.7)" />
<use xlink:href="#f3_2j" transform="matrix(10.7,0,0,10.6,455.8,702.7)" />
<use xlink:href="#f3_1z" transform="matrix(10.7,0,0,10.6,482.4,714.3)" />
<use xlink:href="#f3_2j" transform="matrix(10.7,0,0,10.6,491.4,714.3)" />
<use xlink:href="#f3_2j" transform="matrix(10.7,0,0,10.6,348.7,728.4)" />
<use xlink:href="#f1_b" transform="matrix(10.4,0,0,10.4,184.2,768.2)" />
<use xlink:href="#f1_24" transform="matrix(10.4,0,0,10.4,189.5,768.2)" />
<use xlink:href="#f1_2h" transform="matrix(10.4,0,0,10.4,193.1,768.2)" />
<use xlink:href="#f1_c" transform="matrix(10.4,0,0,10.4,201.1,768.2)" />
<use xlink:href="#f2_c" transform="matrix(10.5,0,0,12,241.5,782.1)" />
<use xlink:href="#f2_d" transform="matrix(10.5,0,0,12,359.8,782.1)" />
</g>
<path d="M240.8,763.4H373.9" class="g10_63" />
<g fill="#000000" >
<use xlink:href="#f1_l" transform="matrix(7.4,0,0,7.3,308.6,750.1)" />
<use xlink:href="#f1_l" transform="matrix(7.4,0,0,7.3,365,774.3)" />
<use xlink:href="#f1_2e" transform="matrix(10.5,0,0,10.4,262.4,783.9)" />
<use xlink:href="#f1_24" transform="matrix(10.5,0,0,10.4,270.4,783.9)" />
<use xlink:href="#f1_29" transform="matrix(10.5,0,0,10.4,274,783.9)" />
<use xlink:href="#f1_1y" transform="matrix(10.5,0,0,10.4,318.9,783.9)" />
<use xlink:href="#f1_2a" transform="matrix(10.5,0,0,10.4,326.9,783.9)" />
<use xlink:href="#f1_2e" transform="matrix(10.5,0,0,10.4,335.9,783.9)" />
<use xlink:href="#f3_2j" transform="matrix(10.5,0,0,10.4,298.4,757.2)" />
<use xlink:href="#f3_1z" transform="matrix(10.5,0,0,10.4,381.4,767.6)" />
<use xlink:href="#f3_2j" transform="matrix(10.5,0,0,10.4,390.3,767.6)" />
<use xlink:href="#f3_2j" transform="matrix(10.5,0,0,10.4,248.4,783.9)" />
<use xlink:href="#f3_2j" transform="matrix(10.5,0,0,10.4,286.6,783.9)" />
<use xlink:href="#f3_2j" transform="matrix(10.5,0,0,10.4,348.3,783.9)" />
<use xlink:href="#f2_f" transform="matrix(10.5,0,0,10.4,303.1,783.9)" />
<use xlink:href="#f2_50" transform="matrix(18.8,0,0,18.8,227.4,774.8)" />
<use xlink:href="#f1_b" transform="matrix(10.4,0,0,10.4,187.9,845.4)" />
<use xlink:href="#f1_2h" transform="matrix(10.4,0,0,10.4,193.2,845.4)" />
<use xlink:href="#f1_c" transform="matrix(10.4,0,0,10.4,201.4,845.4)" />
</g>
<path d="M288.5,841.1h43.2" class="g10_63" />
<path d="M277.8,846.3l1.5,-2.1l4,15.4l4.3,-40.5h45.6" class="g7_63" />
<path fill-rule="evenodd" d="M277.6,846.2l2.1,-2.9l3.5,13.2l4,-37.7h46v.7H287.9l-4.3,40.1h-.7l-4,-14.5l-.9,1.3l-.4,-.2Z" class="g8_63" />
<g fill="#000000" >
<use xlink:href="#f1_k" transform="matrix(7.4,0,0,7.4,266.7,838.1)" />
<use xlink:href="#f1_2e" transform="matrix(10.7,0,0,10.6,240.2,845.4)" />
<use xlink:href="#f1_24" transform="matrix(10.7,0,0,10.6,248.4,845.4)" />
<use xlink:href="#f1_29" transform="matrix(10.7,0,0,10.6,252,845.4)" />
<use xlink:href="#f3_2j" transform="matrix(10.7,0,0,10.6,305.4,834.9)" />
<use xlink:href="#f3_1z" transform="matrix(10.7,0,0,10.6,340.6,845.4)" />
<use xlink:href="#f3_2j" transform="matrix(10.7,0,0,10.6,349.7,845.4)" />
<use xlink:href="#f3_1w" transform="matrix(10.7,0,0,10.6,289,857.8)" />
<use xlink:href="#f3_2j" transform="matrix(10.7,0,0,10.6,320.9,857.8)" />
<use xlink:href="#f2_h" transform="matrix(7.5,0,0,7.4,260.6,838.1)" />
<use xlink:href="#f2_f" transform="matrix(10.6,0,0,10.6,305,857.8)" />
<use xlink:href="#f2_50" transform="matrix(19.1,0,0,19,227.5,852.6)" />
<use xlink:href="#f1_b" transform="matrix(10.4,0,0,10.4,459.2,845.4)" />
<use xlink:href="#f1_2h" transform="matrix(10.4,0,0,10.4,464.5,845.4)" />
<use xlink:href="#f1_24" transform="matrix(10.4,0,0,10.4,472.8,845.4)" />
<use xlink:href="#f1_c" transform="matrix(10.4,0,0,10.4,476.3,845.4)" />
</g>
<path d="M537.6,854.6l1.6,-.9l3.9,6.5l4.3,-17.3h44.3" class="g7_63" />
<path fill-rule="evenodd" d="M537.5,854.4l2.1,-1.2l3.5,5.5l4,-16.1h44.6v.7h-44l-4.2,16.9h-.7l-4,-6l-1,.7l-.3,-.5Z" class="g8_63" />
<path d="M516,840.3h97.3M503,869.1h7.8M503,812.7h7.8" class="g11_63" />
<g fill="#000000" >
<use xlink:href="#f1_m" transform="matrix(7.3,0,0,7.3,503.8,824.4)" />
<use xlink:href="#f1_p" transform="matrix(7.3,0,0,7.3,503.8,880.8)" />
<use xlink:href="#f1_2e" transform="matrix(10.5,0,0,10.4,517,834.2)" />
<use xlink:href="#f1_24" transform="matrix(10.5,0,0,10.4,525,834.2)" />
<use xlink:href="#f1_29" transform="matrix(10.5,0,0,10.4,528.6,834.2)" />
<use xlink:href="#f1_1y" transform="matrix(10.5,0,0,10.4,573.4,834.2)" />
<use xlink:href="#f1_2a" transform="matrix(10.5,0,0,10.4,581.4,834.2)" />
<use xlink:href="#f1_2e" transform="matrix(10.5,0,0,10.4,590.3,834.2)" />
<use xlink:href="#f1_2e" transform="matrix(10.5,0,0,10.4,547.9,858.5)" />
<use xlink:href="#f1_24" transform="matrix(10.5,0,0,10.4,555.9,858.5)" />
<use xlink:href="#f1_29" transform="matrix(10.5,0,0,10.4,559.5,858.5)" />
<use xlink:href="#f1_l" transform="matrix(10.5,0,0,10.4,571.9,858.5)" />
<use xlink:href="#f3_2j" transform="matrix(10.5,0,0,10.4,541.1,834.2)" />
<use xlink:href="#f3_2j" transform="matrix(10.5,0,0,10.4,602.7,834.2)" />
<use xlink:href="#f3_1z" transform="matrix(10.5,0,0,10.4,617.4,844.5)" />
<use xlink:href="#f3_2j" transform="matrix(10.5,0,0,10.4,626.3,844.5)" />
<use xlink:href="#f3_2j" transform="matrix(10.5,0,0,10.4,581,858.5)" />
<use xlink:href="#f2_2c" transform="matrix(7.3,0,0,7.3,503.9,808.3)" />
<use xlink:href="#f2_2c" transform="matrix(7.3,0,0,7.3,503.9,864.7)" />
<use xlink:href="#f2_f" transform="matrix(10.5,0,0,10.4,557.6,834.2)" />
<use xlink:href="#f2_50" transform="matrix(18.8,0,0,18.8,502.6,851.7)" />
<use xlink:href="#f4_s" transform="matrix(8,0,0,8,730,1122.4)" />
</g>
<g fill="#0080FF" fill-opacity="0.5" >
<use xlink:href="#f0_1c" transform="matrix(42.3,0,0,42.3,202.9,1095.2)" />
<use xlink:href="#f0_21" transform="matrix(42.3,0,0,42.3,238.8,1095.2)" />
<use xlink:href="#f0_1x" transform="matrix(42.3,0,0,42.3,274.7,1095.2)" />
<use xlink:href="#f0_2e" transform="matrix(42.3,0,0,42.3,310.7,1095.2)" />
<use xlink:href="#f0_2a" transform="matrix(42.3,0,0,42.3,332.2,1095.2)" />
<use xlink:href="#f0_17" transform="matrix(42.3,0,0,42.3,368.1,1095.2)" />
<use xlink:href="#f0_2h" transform="matrix(42.3,0,0,42.3,418.4,1095.2)" />
<use xlink:href="#f0_25" transform="matrix(42.3,0,0,42.3,454.3,1095.2)" />
<use xlink:href="#f0_20" transform="matrix(42.3,0,0,42.3,468.7,1095.2)" />
<use xlink:href="#f0_21" transform="matrix(42.3,0,0,42.3,504.6,1095.2)" />
<use xlink:href="#f0_i" transform="matrix(42.3,0,0,42.3,540.5,1095.2)" />
<use xlink:href="#f0_25" transform="matrix(42.3,0,0,42.3,558.5,1095.2)" />
<use xlink:href="#f0_2a" transform="matrix(42.3,0,0,42.3,572.8,1095.2)" />
</g>
<defs>
<path d="M593,101c0,0,182,0,279,112c0,0,98,113,98,318c0,0,0,196,-98,308c0,0,-98,112,-277,112c0,0,-181,0,-279,-110c0,0,-99,-111,-99,-310c0,0,0,-198,100,-314c0,0,99,-116,276,-116Zm0,-115c0,0,-162,0,-279,65c0,0,-118,66,-180,190c0,0,-62,124,-62,290c0,0,0,252,138,394c0,0,138,142,385,142c0,0,160,0,278,-64c0,0,118,-64,180,-185c0,0,62,-122,62,-287c0,0,0,-165,-63,-289c0,0,-63,-124,-181,-190c0,0,-118,-66,-278,-66Z" 
id="f0_1f"
transform="scale(0.001,-0.001)" />

<path d="M106,0V635c0,0,0,141,-5,173H228c0,0,1,-4,2,-21c0,0,1,-16,2,-37c0,0,1,-22,2,-81h2c0,0,47,84,108,119c0,0,60,34,151,34c0,0,132,0,194,-66c0,0,61,-66,61,-218V0H615V512c0,0,0,80,-15,124c0,0,-16,44,-50,63c0,0,-35,20,-101,20c0,0,-97,0,-153,-67c0,0,-56,-66,-56,-184V0Z" 
id="f0_2a"
transform="scale(0.001,-0.001)" />

<path d="M103,0V1107H237V0Z" 
id="f0_28"
transform="scale(0.001,-0.001)" />

<path d="M102,0V808H236V0Zm0,979v128H236V979Z" 
id="f0_25"
transform="scale(0.001,-0.001)" />

<path d="M643,478c0,0,-11,128,-65,187c0,0,-54,59,-154,59c0,0,-98,0,-155,-66c0,0,-57,-65,-62,-180ZM431,-14c0,0,-179,0,-272,106c0,0,-94,107,-94,317c0,0,0,200,94,307c0,0,93,106,267,106c0,0,356,0,356,-429V375H206c0,0,0,-138,57,-213c0,0,58,-75,168,-75c0,0,87,0,140,35c0,0,53,35,71,88L760,177c0,0,-72,-191,-329,-191Z" 
id="f0_21"
transform="scale(0.001,-0.001)" />

<path d="M17,0L304,415L31,808H179L380,493L580,808H730L457,417L747,0H598L380,331L162,0Z" 
id="f0_2k"
transform="scale(0.001,-0.001)" />

<path d="M339,87c0,0,74,0,132,34c0,0,57,33,90,91c0,0,34,59,34,121v66L448,396c0,0,-95,-2,-144,-19c0,0,-49,-18,-75,-55c0,0,-26,-38,-26,-98c0,0,0,-65,35,-101c0,0,36,-36,101,-36ZM309,-14c0,0,-122,0,-183,64c0,0,-61,64,-61,176c0,0,0,125,82,192c0,0,83,67,266,72l182,3v44c0,0,0,98,-42,141c0,0,-42,43,-132,43c0,0,-90,0,-131,-31c0,0,-41,-31,-49,-98L101,604c0,0,34,218,323,218c0,0,153,0,229,-70c0,0,77,-69,77,-202V202c0,0,0,-59,16,-90c0,0,16,-30,60,-30c0,0,19,0,44,5V4C850,4,799,-7,746,-7c0,0,-75,0,-109,38c0,0,-33,40,-38,124h-4C595,155,543,62,475,24c0,0,-68,-38,-166,-38Z" 
id="f0_1x"
transform="scale(0.001,-0.001)" />

<path d="M106,0V635c0,0,0,141,-5,173H228c0,0,1,-4,2,-21c0,0,1,-16,2,-37c0,0,1,-22,2,-81h2c0,0,44,86,100,120c0,0,56,33,136,33c0,0,92,0,145,-36c0,0,54,-37,75,-117h2c0,0,42,82,101,117c0,0,59,36,143,36c0,0,123,0,178,-66c0,0,56,-67,56,-218V0H1039V512c0,0,0,117,-32,162c0,0,-32,45,-116,45c0,0,-88,0,-136,-66c0,0,-49,-65,-49,-185V0H573V512c0,0,0,117,-32,162c0,0,-32,45,-116,45c0,0,-86,0,-136,-66c0,0,-50,-66,-50,-185V0Z" 
id="f0_29"
transform="scale(0.001,-0.001)" />

<path d="M453,84c0,0,100,0,146,74c0,0,46,73,46,247c0,0,0,169,-46,241c0,0,-45,73,-145,73c0,0,-80,0,-125,-34c0,0,-45,-34,-68,-105c0,0,-24,-71,-24,-186c0,0,0,-159,51,-234c0,0,51,-76,165,-76ZM103,-316V643c0,0,0,124,-5,165H228c0,0,1,-3,3,-22c0,0,1,-18,3,-56c0,0,2,-38,2,-52h3c0,0,36,75,94,110c0,0,59,34,156,34c0,0,149,0,223,-100c0,0,74,-100,74,-314c0,0,0,-422,-297,-422c0,0,-187,0,-251,140h-4c0,0,3,-6,3,-126V-316Z" 
id="f0_2c"
transform="scale(0.001,-0.001)" />

<path d="M420,84c0,0,121,0,173,78c0,0,52,77,52,243c0,0,0,167,-50,243c0,0,-50,76,-167,76c0,0,-118,0,-170,-78c0,0,-53,-77,-53,-241c0,0,0,-160,52,-241c0,0,52,-80,163,-80Zm1,-98c0,0,-176,0,-267,107c0,0,-90,108,-90,312c0,0,0,417,362,417c0,0,185,0,272,-102c0,0,88,-101,88,-315c0,0,0,-212,-94,-316C692,89,599,-14,421,-14Z" 
id="f0_2b"
transform="scale(0.001,-0.001)" />

<path d="M278,-11c0,0,-162,0,-162,182V710H23v98h99l39,181h90V808H400V710H251V200c0,0,0,-58,19,-82c0,0,19,-23,66,-23c0,0,27,0,77,10V6c0,0,-66,-17,-135,-17Z" 
id="f0_2g"
transform="scale(0.001,-0.001)" />

<path d="M511,373V863L169,383l-7,-10ZM511,0V258H38V383l496,691H646V373H799V258H646V0Z" 
id="f1_n"
transform="scale(0.001,-0.001)" />

<path d="M424,92c0,0,98,0,161,58c0,0,62,58,62,149c0,0,0,92,-62,151c0,0,-63,58,-161,58c0,0,-98,0,-160,-58c0,0,-63,-59,-63,-151c0,0,0,-91,63,-149c0,0,62,-58,160,-58Zm0,533c0,0,82,0,134,46c0,0,52,45,52,118c0,0,0,72,-52,118c0,0,-52,46,-134,46c0,0,-82,0,-134,-46c0,0,-52,-46,-52,-118c0,0,0,-73,52,-119c0,0,52,-45,134,-45Zm0,-653c0,0,-165,0,-265,90C159,62,59,154,59,305c0,0,0,134,100,216c0,0,35,28,78,47c0,0,-27,15,-52,33c0,0,-90,70,-90,185c0,0,0,130,90,209c0,0,91,80,239,80c0,0,148,0,238,-80c0,0,91,-79,91,-209c0,0,0,-115,-91,-185c0,0,-24,-19,-52,-32c0,0,44,-20,79,-49c0,0,101,-81,101,-215c0,0,0,-151,-101,-243c0,0,-100,-90,-265,-90Z" 
id="f1_r"
transform="scale(0.001,-0.001)" />

<path d="M133,0V162H292V0Z" 
id="f1_h"
transform="scale(0.001,-0.001)" />

<path d="M0,-302V1034H328V970H119V-238H328v-64Z" 
id="f2_1r"
transform="scale(0.001,-0.001)" />

<path d="M56,-302v64H265V970H56v64H384V-302Z" 
id="f2_1t"
transform="scale(0.001,-0.001)" />

<path d="M406,0V763H155V870h2c16,0,114,2,178,48c0,0,70,51,104,157H549V0Z" 
id="f1_k"
transform="scale(0.001,-0.001)" />

<path d="M424,92c0,0,114,0,170,107c0,0,57,108,56,323c0,0,1,216,-56,324c0,0,-56,107,-170,107c0,0,-112,0,-168,-107c0,0,-56,-108,-57,-324c0,0,1,-215,57,-323c0,0,56,-107,168,-107Zm0,-120c0,0,-176,0,-271,142c0,0,-96,143,-96,408c0,0,0,265,96,409c0,0,95,144,271,144c0,0,178,0,273,-144c0,0,96,-144,96,-409c0,0,0,-265,-96,-408c0,0,-95,-142,-273,-142Z" 
id="f1_j"
transform="scale(0.001,-0.001)" />

<path d="M39,0V0c0,0,0,170,84,277c0,0,85,108,317,236c0,0,113,62,154,115c0,0,41,52,41,134c0,0,0,86,-62,141c0,0,-61,54,-156,54c0,0,-101,0,-158,-68c0,0,-57,-68,-60,-194H67c0,0,-2,178,95,279c0,0,98,101,273,101c0,0,149,0,245,-89c0,0,94,-88,94,-228c0,0,0,-118,-60,-195c0,0,-61,-76,-229,-169C485,394,303,294,237,212c0,0,-28,-36,-46,-81H774V0Z" 
id="f1_l"
transform="scale(0.001,-0.001)" />

<path d="M17,0L389,412L201,800H376L500,518L742,800H904L554,410L750,0H580L448,303L187,0Z" 
id="f3_2j"
transform="scale(0.001,-0.001)" />

<path d="M431,94c0,0,95,0,170,76c0,0,76,77,101,198c0,0,35,167,-1,250c0,0,-37,84,-144,84c0,0,-128,0,-210,-117c0,0,-81,-117,-81,-302c0,0,0,-90,43,-139c0,0,44,-50,122,-50ZM400,-20c0,0,-126,0,-199,79c0,0,-73,80,-73,219c0,0,0,234,122,390c0,0,122,155,305,155c0,0,144,0,209,-127l8,-16l86,417H993L767,0H638l22,108L642,90C642,90,532,-20,400,-20Z" 
id="f3_1z"
transform="scale(0.001,-0.001)" />

<path d="M238,-163c0,0,-39,0,-63,25c0,0,-25,26,-25,65c0,0,0,34,19,54c0,0,19,19,48,19c0,0,30,0,51,-23c0,0,22,-24,37,-24c0,0,12,0,21,11c0,0,8,10,8,35c0,0,0,30,-7,88c0,0,-27,235,-27,620c0,0,13,411,17,446c0,0,17,139,60,188c0,0,43,48,98,48c0,0,37,0,65,-25c0,0,28,-25,28,-54c0,0,0,-35,-19,-57c0,0,-20,-21,-49,-21c0,0,-26,0,-57,27c0,0,-17,15,-30,15c0,0,-12,0,-21,-11c0,0,-8,-11,-8,-37c0,0,0,-31,6,-108c0,0,28,-306,28,-496c0,0,0,-50,-12,-439c0,0,-6,-219,-67,-296c0,0,-41,-50,-101,-50Z" 
id="f2_50"
transform="scale(0.001,-0.001)" />

<path d="M248,0L21,799H169L322,163L478,799H627L788,158L950,799h133L857,0H713L548,624L392,0Z" 
id="f1_2i"
transform="scale(0.001,-0.001)" />

<path d="M99,0V1097H233V690l23,30c0,0,87,102,219,102c0,0,132,0,203,-71c0,0,72,-72,72,-204V0H616V514c0,0,0,99,-38,142c0,0,-38,44,-124,44c0,0,-102,0,-162,-73c0,0,-59,-74,-59,-199V0Z" 
id="f1_23"
transform="scale(0.001,-0.001)" />

<path d="M649,461c0,0,-6,111,-55,172c0,0,-55,69,-160,69c0,0,-106,0,-170,-79c0,0,-50,-62,-60,-162ZM425,-20c0,0,-169,0,-266,106c0,0,-97,107,-97,297c0,0,0,201,102,320c0,0,103,119,276,119c0,0,157,0,253,-116c0,0,96,-117,96,-306l-1,-48H204c0,0,8,-119,54,-182c0,0,57,-76,180,-76c0,0,77,0,134,43c0,0,58,43,70,110H775C775,247,746,116,656,47c0,0,-90,-67,-231,-67Z" 
id="f1_20"
transform="scale(0.001,-0.001)" />

<path d="M118,0V799H246V662c0,0,17,32,36,58c0,0,76,102,187,102c0,0,19,0,38,-6V679l-27,1c0,0,-109,0,-168,-66c0,0,-60,-65,-60,-186V0Z" 
id="f1_2d"
transform="scale(0.001,-0.001)" />

<path d="M96,-299V1104H382V995H217V-191H382V-299Z" 
id="f1_1q"
transform="scale(0.001,-0.001)" />

<path d="M42,-299v108H207V995H42v109H329V-299Z" 
id="f1_1s"
transform="scale(0.001,-0.001)" />

<path d="M104,0V799H238V0Zm-2,946v152H239V946Z" 
id="f1_24"
transform="scale(0.001,-0.001)" />

<path d="M393,-20c0,0,-169,0,-252,65c0,0,-83,67,-92,210H178c0,0,10,-85,61,-123c0,0,50,-38,154,-38c0,0,90,0,136,34c0,0,47,35,47,100c0,0,0,42,-31,64c0,0,-30,21,-123,43L283,368c0,0,-112,27,-160,75c0,0,-48,48,-48,135c0,0,0,112,80,178c0,0,81,66,218,66c0,0,140,0,222,-68c0,0,82,-67,88,-187H557c0,0,-6,67,-55,103c0,0,-48,37,-129,37c0,0,-84,0,-127,-29c0,0,-44,-29,-44,-85c0,0,0,-43,31,-65c0,0,30,-21,121,-43L493,452c0,0,117,-28,167,-78c0,0,49,-49,49,-138c0,0,0,-119,-86,-188c0,0,-85,-68,-230,-68Z" 
id="f1_2e"
transform="scale(0.001,-0.001)" />

<path d="M418,95c0,0,98,0,158,73c0,0,59,73,59,193c0,0,0,170,-54,254c0,0,-54,85,-163,85c0,0,-113,0,-165,-72c0,0,-52,-71,-52,-227c0,0,0,-147,57,-227c0,0,56,-79,160,-79ZM394,-336c0,0,-136,0,-216,62c0,0,-79,63,-96,182H219c0,0,12,-64,57,-98c0,0,45,-35,116,-35c0,0,116,0,176,73c0,0,61,73,61,211V85l-1,-1C628,84,545,-20,412,-20c0,0,-161,0,-256,118c0,0,-94,120,-94,324c0,0,0,179,93,290c0,0,93,110,244,110c0,0,144,0,228,-124l10,-14V799H763V59c0,0,-1,-201,-91,-298c0,0,-91,-97,-278,-97Z" 
id="f1_22"
transform="scale(0.001,-0.001)" />

<path d="M335,90c0,0,106,0,179,57c0,0,50,41,67,91c0,0,3,10,4,31c0,0,3,21,3,47v87c0,0,-38,-18,-83,-25L381,360c0,0,-97,-13,-142,-45c0,0,-44,-31,-44,-86c0,0,0,-67,36,-103c0,0,37,-36,104,-36ZM309,-20c0,0,-117,0,-186,61c0,0,-68,63,-68,169c0,0,0,108,64,171c0,0,65,64,189,79l183,23c0,0,22,3,42,8c0,0,26,7,40,27c0,0,15,20,15,51v6c0,0,0,64,-49,101c0,0,-48,36,-135,36c0,0,-83,0,-130,-38c0,0,-46,-39,-56,-115H94c0,0,10,131,92,197c0,0,83,66,238,66c0,0,145,0,222,-63c0,0,76,-63,76,-184V137c0,0,0,-21,12,-33c0,0,12,-12,33,-12c0,0,6,0,18,1c0,0,11,2,25,5V1c0,0,-20,-7,-41,-11c0,0,-22,-5,-37,-5c0,0,-76,0,-110,41c0,0,-22,28,-32,79c0,0,-15,-19,-34,-36c0,0,-101,-89,-247,-89Z" 
id="f1_1w"
transform="scale(0.001,-0.001)" />

<path d="M292,-9c0,0,-88,0,-124,38c0,0,-36,39,-36,134V689H22V799H132v224H266V799H392V689H266V163c0,0,0,-27,21,-43c0,0,21,-15,57,-15h48V1C392,1,324,-9,292,-9Z" 
id="f1_2f"
transform="scale(0.001,-0.001)" />

<path d="M99,0V799H226V681l30,39c0,0,87,102,219,102c0,0,132,0,203,-71c0,0,72,-72,72,-204V0H616V502c0,0,0,105,-41,151c0,0,-40,47,-132,47c0,0,-97,0,-154,-73c0,0,-56,-74,-56,-199V0Z" 
id="f1_29"
transform="scale(0.001,-0.001)" />

<path d="M132,0V687H22V799H132V935c0,0,0,88,52,133c0,0,52,45,157,45l59,-3V989l-53,2c0,0,-39,0,-60,-24c0,0,-21,-25,-21,-71V799H400V687H266V0Z" 
id="f1_21"
transform="scale(0.001,-0.001)" />

<path d="M375,-20c0,0,-136,0,-203,66c0,0,-68,68,-68,204V799H238V284c0,0,0,-101,38,-146c0,0,39,-44,127,-44c0,0,97,0,153,75c0,0,57,75,57,203V799H747V0H620V122c0,0,-14,-22,-30,-41C590,81,504,-20,375,-20Z" 
id="f1_2g"
transform="scale(0.001,-0.001)" />

<path d="M394,-20c0,0,-159,0,-253,113c0,0,-95,114,-95,307c0,0,0,193,98,308c0,0,98,114,264,114c0,0,144,0,230,-78c0,0,85,-79,91,-217H600c0,0,-8,86,-59,133c0,0,-52,47,-138,47c0,0,-101,0,-159,-82c0,0,-58,-82,-58,-225c0,0,0,-152,54,-229c0,0,53,-77,159,-77c0,0,79,0,132,50c0,0,52,51,69,143H729C729,287,709,137,623,58c0,0,-86,-78,-229,-78Z" 
id="f1_1y"
transform="scale(0.001,-0.001)" />

<path d="M424,94c0,0,107,0,169,83c0,0,63,83,63,223c0,0,0,140,-63,224c0,0,-62,83,-169,83c0,0,-106,0,-168,-83c0,0,-62,-84,-62,-224c0,0,0,-140,62,-223c0,0,62,-83,168,-83Zm0,-114c0,0,-165,0,-268,115C156,95,54,211,54,400c0,0,0,189,102,306c0,0,103,116,268,116c0,0,168,0,270,-116c0,0,102,-117,102,-306c0,0,0,-189,-102,-305C694,95,592,-20,424,-20Z" 
id="f1_2a"
transform="scale(0.001,-0.001)" />

<path d="M419,483c0,0,93,0,152,66c0,0,59,66,59,169c0,0,0,103,-59,169c0,0,-59,65,-152,65c0,0,-94,0,-153,-65c0,0,-59,-66,-59,-169c0,0,0,-103,59,-169c0,0,59,-66,153,-66ZM397,-28c0,0,-143,0,-227,75c0,0,-85,77,-91,211H209c0,0,8,-83,57,-128c0,0,49,-45,131,-45c0,0,121,0,186,135c0,0,48,101,62,265C645,485,545,362,397,362c0,0,-150,0,-241,98c0,0,-91,98,-91,258c0,0,0,160,99,258c0,0,99,98,262,98c0,0,173,0,266,-123c0,0,94,-123,94,-349c0,0,0,-303,-101,-467C685,135,583,-28,397,-28Z" 
id="f1_s"
transform="scale(0.001,-0.001)" />

<path d="M103,0V1097H237V0Z" 
id="f1_27"
transform="scale(0.001,-0.001)" />

<path d="M748,462c0,0,3,31,3,63c0,0,0,86,-45,132c0,0,-46,45,-134,45c0,0,-100,0,-180,-85c0,0,-58,-63,-90,-155ZM419,-20c0,0,-136,0,-213,73c0,0,-77,74,-78,206c0,0,0,25,4,58c0,0,4,32,10,63c0,0,44,208,169,326c0,0,125,117,305,117c0,0,128,0,198,-73c0,0,71,-73,71,-207c0,0,1,-100,-24,-189H278l-4,-25c0,0,-3,-30,-3,-55c0,0,0,-90,44,-134c0,0,44,-45,133,-45c0,0,87,0,156,44c0,0,68,45,95,117H830C830,256,782,126,674,52c0,0,-108,-72,-255,-72Z" 
id="f3_20"
transform="scale(0.001,-0.001)" />

<path d="M355,0V355H0v72H355V784h72V427H782V355H427V0Z" 
id="f2_f"
transform="scale(0.001,-0.001)" />

<path d="M417,-28c0,0,-161,0,-259,79c0,0,-98,81,-109,223H189c0,0,11,-90,72,-139c0,0,61,-49,162,-49c0,0,96,0,158,68c0,0,61,68,61,175c0,0,0,112,-64,178c0,0,-64,66,-173,66c0,0,-59,0,-115,-28c0,0,-55,-29,-84,-73L93,480l77,573H727V922H271L225,629l4,3c0,0,89,60,188,60c0,0,169,0,269,-94c0,0,99,-93,99,-253c0,0,0,-165,-103,-269C682,76,579,-28,417,-28Z" 
id="f1_o"
transform="scale(0.001,-0.001)" />

<path d="M412,-328c0,0,-195,96,-303,284C109,-44,0,142,0,365c0,0,0,232,114,422c0,0,114,191,298,273v-31c0,0,-92,-51,-151,-139c0,0,-59,-88,-88,-223c0,0,-29,-136,-29,-282c0,0,0,-167,27,-301c0,0,26,-133,82,-221c0,0,55,-89,159,-159v-32Z" 
id="f2_c"
transform="scale(0.001,-0.001)" />

<path d="M34,-328v32c0,0,92,50,151,138c0,0,59,88,88,222c0,0,29,135,29,283c0,0,0,165,-27,300c0,0,-26,134,-82,222c0,0,-56,89,-159,160v31c0,0,194,-96,303,-284c0,0,108,-187,108,-410c0,0,0,-232,-114,-422c0,0,-114,-191,-297,-272Z" 
id="f2_d"
transform="scale(0.001,-0.001)" />

<path d="M0,356v74H784V356Z" 
id="f2_h"
transform="scale(0.001,-0.001)" />

<path d="M424,-28c0,0,-180,0,-272,86c0,0,-92,87,-100,266H192c0,0,12,-126,66,-180c0,0,55,-54,170,-54c0,0,100,0,163,57c0,0,64,57,64,147c0,0,0,94,-61,149c0,0,-52,48,-135,54c0,0,-38,2,-72,2c0,0,-34,0,-45,-3V613c0,0,17,-3,51,-3c0,0,35,0,68,4c0,0,66,8,106,43c0,0,55,45,55,125c0,0,0,77,-58,125c0,0,-58,48,-148,48c0,0,-96,0,-147,-58c0,0,-51,-59,-56,-175H82c0,0,0,168,89,260c0,0,88,93,250,93c0,0,153,0,247,-77c0,0,94,-76,94,-202c0,0,0,-124,-95,-201c0,0,-18,-15,-39,-27c0,0,39,-17,69,-41c0,0,101,-79,101,-214c0,0,0,-151,-105,-246c0,0,-104,-95,-269,-95Z" 
id="f1_m"
transform="scale(0.001,-0.001)" />

<path d="M140,-21c0,0,-26,0,-44,17C96,-4,79,13,79,40c0,0,0,19,6,33c0,0,8,20,34,55c0,0,46,60,64,126c0,0,32,114,41,321H190c0,0,-55,0,-81,-18c0,0,-44,-26,-80,-89H0c0,0,42,129,98,178c0,0,43,37,120,37H743V575H562c0,0,-27,-171,-27,-327c0,0,0,-77,27,-110c0,0,27,-33,67,-33c0,0,33,0,56,22c0,0,24,22,31,65h27C743,192,730,74,686,26c0,0,-44,-47,-98,-47c0,0,-58,0,-97,51c0,0,-39,53,-39,198c0,0,0,91,28,347H286c0,0,-23,-390,-56,-494c0,0,-33,-102,-90,-102Z" 
id="f2_2c"
transform="scale(0.001,-0.001)" />

<path d="M456,95c0,0,130,0,213,121c0,0,82,120,82,310c0,0,0,85,-44,131c0,0,-44,46,-125,46c0,0,-98,0,-174,-90c0,0,-76,-90,-108,-245c0,0,-26,-126,16,-199c0,0,42,-74,140,-74ZM436,-20c0,0,-132,0,-195,108l-5,7L217,0H89L316,1097H450L365,683l10,11c0,0,120,129,262,129c0,0,121,0,190,-77c0,0,69,-77,69,-211c0,0,0,-234,-134,-395C762,140,629,-20,436,-20Z" 
id="f3_1x"
transform="scale(0.001,-0.001)" />

<path d="M354,90c0,0,107,0,192,57c0,0,60,41,87,95c0,0,5,12,11,33c0,0,6,20,11,44l18,88c0,0,-62,-26,-132,-37L414,352c0,0,-84,-11,-131,-56c0,0,-47,-45,-47,-113c0,0,0,-44,31,-69c0,0,31,-24,87,-24ZM306,-20c0,0,-99,0,-156,47c0,0,-57,49,-57,134c0,0,1,117,81,198c0,0,80,81,211,98l164,20l70,10c0,0,35,6,59,30c0,0,23,24,31,66l1,2c0,0,13,64,-25,94c0,0,-39,31,-132,31c0,0,-83,0,-137,-37c0,0,-54,-37,-84,-114H210c0,0,46,137,138,201c0,0,92,63,245,63c0,0,149,0,211,-59c0,0,45,-44,44,-116c0,0,1,-30,-6,-63L749,136c0,0,-4,-19,6,-32c0,0,10,-12,30,-12c0,0,6,0,19,1c0,0,12,2,25,5L809,1c0,0,-19,-6,-43,-11c0,0,-22,-5,-36,-5c0,0,-73,0,-100,43c0,0,-16,27,-17,75C612,102,594,85,573,69c0,0,-120,-89,-267,-89Z" 
id="f3_1w"
transform="scale(0.001,-0.001)" />

<path d="M131,0L274,688H168l23,112H296l26,125c0,0,20,98,82,143c0,0,62,46,176,46c0,0,33,0,59,-5L609,990c0,0,0,3,-53,3c0,0,-45,0,-70,-25c0,0,-25,-25,-37,-83L431,800H575L553,688H409L266,0Z" 
id="f3_21"
transform="scale(0.001,-0.001)" />

<path d="M432,92c0,0,96,0,156,66c0,0,61,65,61,169c0,0,0,103,-61,169c0,0,-60,66,-156,66c0,0,-95,0,-156,-66c0,0,-61,-66,-61,-169c0,0,0,-104,61,-169c0,0,61,-66,156,-66ZM425,-28c0,0,-176,0,-271,135c0,0,-95,136,-95,388c0,0,0,278,103,429c0,0,103,151,293,151c0,0,142,0,226,-77c0,0,84,-76,90,-211H638c0,0,-8,80,-56,123c0,0,-47,43,-127,43c0,0,-125,0,-192,-119c0,0,-58,-102,-64,-278c0,0,100,127,255,127c0,0,152,0,245,-98c0,0,93,-98,93,-258c0,0,0,-161,-101,-259c0,0,-101,-96,-266,-96Z" 
id="f1_p"
transform="scale(0.001,-0.001)" />

<path d="M212,0c0,0,51,270,162,500c0,0,109,222,281,422H57v131H799V934C799,934,623,726,515,498C515,498,408,269,362,0Z" 
id="f1_q"
transform="scale(0.001,-0.001)" />

<path d="M398,-20c0,0,-133,0,-209,72c0,0,-76,74,-76,202v3c0,0,0,27,4,60c0,0,4,33,10,63c0,0,43,208,168,326c0,0,126,117,306,117c0,0,131,0,192,-75c0,0,49,-61,50,-168l-3,-52H710c0,0,4,87,-33,131c0,0,-37,45,-113,45c0,0,-110,0,-184,-81c0,0,-75,-82,-107,-238c0,0,-6,-28,-9,-56c0,0,-3,-28,-3,-50c0,0,0,-88,43,-136c0,0,43,-48,121,-48c0,0,76,0,137,49c0,0,61,48,92,136H788C788,280,737,138,633,58c0,0,-103,-78,-235,-78Z" 
id="f3_1y"
transform="scale(0.001,-0.001)" />

<path d="M131,0V1097H934V966H280V631H877V500H280V131H942V0Z" 
id="f1_14"
transform="scale(0.001,-0.001)" />

<path d="M310,0L12,799H168L383,145L604,799H752L454,0Z" 
id="f1_2h"
transform="scale(0.001,-0.001)" />

<path d="M365,-315c0,0,-136,187,-199,359c0,0,-62,172,-62,359c0,0,0,186,62,358c0,0,63,172,199,360h92c0,0,-110,-192,-160,-365c0,0,-51,-172,-51,-353c0,0,0,-183,51,-355c0,0,50,-172,160,-363Z" 
id="f1_b"
transform="scale(0.001,-0.001)" />

<path d="M52,-315c0,0,109,192,160,363c0,0,50,173,50,354c0,0,0,183,-50,355c0,0,-51,173,-160,364h92c0,0,135,-188,198,-360c0,0,63,-172,63,-359c0,0,0,-187,-63,-359c0,0,-63,-171,-198,-358Z" 
id="f1_c"
transform="scale(0.001,-0.001)" />

<path d="M133,-224v71c0,0,47,8,65,52c0,0,14,33,17,101H133V163H292V27c0,0,0,-114,-36,-172c0,0,-37,-58,-123,-79Z" 
id="f1_f"
transform="scale(0.001,-0.001)" />

<path d="M398,0C398,0,266,0,185,39c0,0,-82,39,-133,124C52,163,0,248,0,342c0,0,0,144,103,243c0,0,103,98,292,98H694V611H387c0,0,-99,0,-166,-32c0,0,-68,-32,-105,-88c0,0,-26,-40,-41,-113H694V304H75c0,0,30,-120,103,-176c0,0,73,-56,210,-56H694V0Z" 
id="f2_40"
transform="scale(0.001,-0.001)" />

<path d="M0,-123V1415H525v-72H72V-123Z" 
id="f2_4r"
transform="scale(0.001,-0.001)" />

<path d="M478,-123V1343H26v72H550V-123Z" 
id="f2_57"
transform="scale(0.001,-0.001)" />

<path d="M0,-123V1415H72V-51H525v-72Z" 
id="f2_4t"
transform="scale(0.001,-0.001)" />

<path d="M26,-123v72H478V1415h72V-123Z" 
id="f2_59"
transform="scale(0.001,-0.001)" />

<path d="M423,92c0,0,97,0,159,62c0,0,62,62,62,157c0,0,0,97,-64,160c0,0,-64,64,-161,64c0,0,-96,0,-158,-63c0,0,-62,-62,-62,-156c0,0,0,-58,27,-111c0,0,27,-54,81,-84c0,0,54,-29,116,-29Zm0,552c0,0,78,0,127,49c0,0,49,49,49,120c0,0,0,74,-50,124c0,0,-51,51,-128,51c0,0,-77,0,-127,-50c0,0,-51,-49,-51,-118c0,0,0,-77,50,-126c0,0,50,-50,130,-50ZM422,-18c0,0,-162,0,-261,95c0,0,-99,96,-99,239c0,0,0,107,54,179c0,0,54,72,154,98c0,0,-84,31,-124,87c0,0,-40,57,-40,136c0,0,0,119,85,201c0,0,86,81,229,81c0,0,143,0,230,-83c0,0,87,-83,87,-203c0,0,0,-76,-40,-132c0,0,-39,-56,-121,-87c0,0,101,-33,154,-106c0,0,52,-73,52,-174c0,0,0,-141,-99,-236c0,0,-99,-95,-261,-95Z" 
id="f4_s"
transform="scale(0.001,-0.001)" />

<path d="M125,0V1051H268V115H799V0Z" 
id="f0_1c"
transform="scale(0.001,-0.001)" />

<path d="M106,0V620c0,0,0,85,-5,188H228c0,0,6,-138,6,-165h3c0,0,32,103,74,141c0,0,42,38,118,38c0,0,27,0,54,-7V692c0,0,-26,7,-71,7c0,0,-84,0,-128,-72c0,0,-44,-72,-44,-206V0Z" 
id="f0_2e"
transform="scale(0.001,-0.001)" />

<path d="M606,-14c0,0,-164,0,-284,65c0,0,-119,66,-182,189c0,0,-63,123,-63,291c0,0,0,255,137,396c0,0,137,140,386,140c0,0,174,0,283,-59c0,0,109,-59,168,-189L915,779c0,0,-44,90,-123,131c0,0,-79,41,-196,41c0,0,-182,0,-278,-110c0,0,-96,-110,-96,-310c0,0,0,-200,102,-315c0,0,102,-115,282,-115c0,0,103,0,193,31c0,0,89,31,144,85V407H629V526h445V164c0,0,-83,-85,-205,-132c0,0,-121,-46,-263,-46Z" 
id="f0_17"
transform="scale(0.001,-0.001)" />

<path d="M355,-14c0,0,-133,0,-194,65c0,0,-62,66,-62,219V808H234V296c0,0,0,-80,16,-124c0,0,16,-44,50,-64c0,0,34,-19,101,-19c0,0,97,0,153,66c0,0,55,67,55,185V808H744V172c0,0,0,-141,4,-172H621c0,0,0,4,-1,20c0,0,-1,17,-2,38c0,0,-1,21,-3,80h-2C613,138,567,55,506,20c0,0,-61,-34,-151,-34Z" 
id="f0_2h"
transform="scale(0.001,-0.001)" />

<path d="M395,89c0,0,115,0,166,79c0,0,51,79,51,246c0,0,0,160,-51,235c0,0,-51,75,-164,75c0,0,-102,0,-147,-75c0,0,-45,-75,-45,-244c0,0,0,-170,45,-243c0,0,45,-73,145,-73ZM361,-14c0,0,-153,0,-225,102c0,0,-72,103,-72,312c0,0,0,422,297,422c0,0,92,0,153,-33c0,0,61,-34,98,-107h2l-2,90v335H747V166c0,0,0,-126,4,-166H623c0,0,-2,12,-5,55c0,0,-3,44,-3,75h-3c0,0,-37,-78,-98,-111c0,0,-62,-33,-153,-33Z" 
id="f0_20"
transform="scale(0.001,-0.001)" />

<path d="M140,0V163H285V0Z" 
id="f0_i"
transform="scale(0.001,-0.001)" />


</defs>
</svg>