<?xml version="1.0" encoding="UTF-8" standalone="no"?>
<!DOCTYPE svg PUBLIC "-//W3C//DTD SVG 1.1//EN"
"http://www.w3.org/Graphics/SVG/1.1/DTD/svg11.dtd">
<svg viewBox="0 0 734 1106" version="1.1" xmlns="http://www.w3.org/2000/svg" xmlns:xlink="http://www.w3.org/1999/xlink">
<defs>
<style type="text/css"><![CDATA[
.g0_79{
fill: none;
stroke: #000000;
stroke-width: 0.15277778;
stroke-linecap: round;
stroke-linejoin: miter;
}
.g1_79{
}
.g2_79{
fill: none;
stroke: #000000;
stroke-width: 0.38194445;
stroke-linecap: round;
stroke-linejoin: miter;
}
.g3_79{
fill: none;
stroke: #000000;
stroke-width: 0.77562225;
stroke-linecap: round;
stroke-linejoin: miter;
}
.g4_79{
fill: none;
stroke: #000000;
stroke-width: 0.38781112;
stroke-linecap: round;
stroke-linejoin: miter;
}
]]></style>
</defs>
<g fill="#D4D4D4" fill-opacity="0.56" >
<use xlink:href="#f0_1f" transform="matrix(50.9,-50.9,50.9,50.9,122.6,924.1)" />
<use xlink:href="#f0_2a" transform="matrix(50.9,-50.9,50.9,50.9,183.2,863.6)" />
<use xlink:href="#f0_28" transform="matrix(50.9,-50.9,50.9,50.9,226.4,820.3)" />
<use xlink:href="#f0_25" transform="matrix(50.9,-50.9,50.9,50.9,243.7,803.1)" />
<use xlink:href="#f0_2a" transform="matrix(50.9,-50.9,50.9,50.9,260.9,785.8)" />
<use xlink:href="#f0_21" transform="matrix(50.9,-50.9,50.9,50.9,304.2,742.5)" />
<use xlink:href="#f0_2k" transform="matrix(50.9,-50.9,50.9,50.9,347.4,699.3)" />
<use xlink:href="#f0_1x" transform="matrix(50.9,-50.9,50.9,50.9,386.3,660.4)" />
<use xlink:href="#f0_29" transform="matrix(50.9,-50.9,50.9,50.9,429.6,617.2)" />
<use xlink:href="#f0_2c" transform="matrix(50.9,-50.9,50.9,50.9,494.4,552.4)" />
<use xlink:href="#f0_2b" transform="matrix(50.9,-50.9,50.9,50.9,537.6,509.1)" />
<use xlink:href="#f0_25" transform="matrix(50.9,-50.9,50.9,50.9,580.8,465.9)" />
<use xlink:href="#f0_2a" transform="matrix(50.9,-50.9,50.9,50.9,598.1,448.6)" />
<use xlink:href="#f0_2g" transform="matrix(50.9,-50.9,50.9,50.9,641.4,405.4)" />
</g>
<g fill="#000000" >
<use xlink:href="#f1_1l" transform="matrix(12,0,0,12,97,335.3)" />
<use xlink:href="#f1_14" transform="matrix(12,0,0,12,110.8,335.3)" />
<use xlink:href="#f1_1h" transform="matrix(12,0,0,12,122,335.3)" />
<use xlink:href="#f1_1o" transform="matrix(12,0,0,12,134.8,335.3)" />
<use xlink:href="#f1_1i" transform="matrix(12,0,0,12,157.3,335.3)" />
<use xlink:href="#f1_17" transform="matrix(12,0,0,12,167.1,335.3)" />
<use xlink:href="#f1_1e" transform="matrix(12,0,0,12,182,335.3)" />
<use xlink:href="#f1_1h" transform="matrix(12,0,0,12,198.5,335.3)" />
<use xlink:href="#f1_1j" transform="matrix(12,0,0,12,211.4,335.3)" />
<use xlink:href="#f1_10" transform="matrix(12,0,0,12,233,335.3)" />
<use xlink:href="#f1_1d" transform="matrix(12,0,0,12,247.1,335.3)" />
<use xlink:href="#f1_1i" transform="matrix(12,0,0,12,262.7,335.3)" />
<use xlink:href="#f1_1m" transform="matrix(12,0,0,12,272.5,335.3)" />
<use xlink:href="#f1_14" transform="matrix(12,0,0,12,290.4,335.3)" />
<use xlink:href="#f1_1h" transform="matrix(12,0,0,12,301.6,335.3)" />
<use xlink:href="#f1_1j" transform="matrix(12,0,0,12,324.7,335.3)" />
<use xlink:href="#f1_1o" transform="matrix(12,0,0,12,336.2,335.3)" />
<use xlink:href="#f1_1f" transform="matrix(12,0,0,12,348.4,335.3)" />
<use xlink:href="#f1_14" transform="matrix(12,0,0,12,360.2,335.3)" />
<use xlink:href="#f1_1g" transform="matrix(12,0,0,12,381.6,335.3)" />
<use xlink:href="#f1_1k" transform="matrix(12,0,0,12,398.2,335.3)" />
<use xlink:href="#f1_14" transform="matrix(12,0,0,12,413.1,335.3)" />
<use xlink:href="#f1_1i" transform="matrix(12,0,0,12,424.2,335.3)" />
<use xlink:href="#f1_1j" transform="matrix(12,0,0,12,434,335.3)" />
<use xlink:href="#f1_18" transform="matrix(12,0,0,12,445.5,335.3)" />
<use xlink:href="#f1_1e" transform="matrix(12,0,0,12,452.6,335.3)" />
<use xlink:href="#f1_1d" transform="matrix(12,0,0,12,469.2,335.3)" />
<use xlink:href="#f1_1i" transform="matrix(12,0,0,12,484.7,335.3)" />
<use xlink:href="#f1_b" transform="matrix(12,0,0,12,504.6,335.3)" />
<use xlink:href="#f1_k" transform="matrix(12,0,0,12,513.7,335.3)" />
<use xlink:href="#f1_1c" transform="matrix(12,0,0,12,536.2,335.3)" />
<use xlink:href="#f1_10" transform="matrix(12,0,0,12,554.1,335.3)" />
<use xlink:href="#f1_1h" transform="matrix(12,0,0,12,568.3,335.3)" />
<use xlink:href="#f1_1a" transform="matrix(12,0,0,12,581.1,335.3)" />
<use xlink:href="#f1_c" transform="matrix(12,0,0,12,594.7,335.3)" />
<use xlink:href="#f2_k" transform="matrix(10.4,0,0,10.4,84.9,405.1)" />
<use xlink:href="#f2_h" transform="matrix(10.4,0,0,10.4,93.7,405.1)" />
<use xlink:href="#f2_1m" transform="matrix(10.4,0,0,10.4,116.6,405.1)" />
<use xlink:href="#f2_2d" transform="matrix(10.4,0,0,10.4,131.7,405.1)" />
<use xlink:href="#f2_24" transform="matrix(10.4,0,0,10.4,137,405.1)" />
<use xlink:href="#f2_2f" transform="matrix(10.4,0,0,10.4,140.5,405.1)" />
<use xlink:href="#f2_20" transform="matrix(10.4,0,0,10.4,144.9,405.1)" />
<use xlink:href="#f2_2f" transform="matrix(10.4,0,0,10.4,161.3,405.1)" />
<use xlink:href="#f2_23" transform="matrix(10.4,0,0,10.4,165.8,405.1)" />
<use xlink:href="#f2_20" transform="matrix(10.4,0,0,10.4,174.6,405.1)" />
<use xlink:href="#f2_2a" transform="matrix(10.4,0,0,10.4,191,405.1)" />
<use xlink:href="#f2_2d" transform="matrix(10.4,0,0,10.4,199.9,405.1)" />
<use xlink:href="#f2_1z" transform="matrix(10.4,0,0,10.4,205.2,405.1)" />
<use xlink:href="#f2_20" transform="matrix(10.4,0,0,10.4,214.1,405.1)" />
<use xlink:href="#f2_2d" transform="matrix(10.4,0,0,10.4,222.9,405.1)" />
<use xlink:href="#f2_1w" transform="matrix(10.4,0,0,10.4,235.8,405.1)" />
<use xlink:href="#f2_29" transform="matrix(10.4,0,0,10.4,244.6,405.1)" />
<use xlink:href="#f2_1z" transform="matrix(10.4,0,0,10.4,253.5,405.1)" />
<use xlink:href="#f2_1z" transform="matrix(10.4,0,0,10.4,269.9,405.1)" />
<use xlink:href="#f2_20" transform="matrix(10.4,0,0,10.4,278.7,405.1)" />
<use xlink:href="#f2_22" transform="matrix(10.4,0,0,10.4,287.6,405.1)" />
<use xlink:href="#f2_2d" transform="matrix(10.4,0,0,10.4,296.5,405.1)" />
<use xlink:href="#f2_20" transform="matrix(10.4,0,0,10.4,301.8,405.1)" />
<use xlink:href="#f2_20" transform="matrix(10.4,0,0,10.4,310.7,405.1)" />
<use xlink:href="#f2_2a" transform="matrix(10.4,0,0,10.4,326.9,405.1)" />
<use xlink:href="#f2_21" transform="matrix(10.4,0,0,10.4,335.7,405.1)" />
<use xlink:href="#f2_2f" transform="matrix(10.4,0,0,10.4,347.7,405.1)" />
<use xlink:href="#f2_23" transform="matrix(10.4,0,0,10.4,352.1,405.1)" />
<use xlink:href="#f2_20" transform="matrix(10.4,0,0,10.4,361,405.1)" />
<use xlink:href="#f2_21" transform="matrix(10.4,0,0,10.4,377.4,405.1)" />
<use xlink:href="#f2_2a" transform="matrix(10.4,0,0,10.4,381.8,405.1)" />
<use xlink:href="#f2_27" transform="matrix(10.4,0,0,10.4,390.7,405.1)" />
<use xlink:href="#f2_27" transform="matrix(10.4,0,0,10.4,394.2,405.1)" />
<use xlink:href="#f2_2a" transform="matrix(10.4,0,0,10.4,397.8,405.1)" />
<use xlink:href="#f2_2i" transform="matrix(10.4,0,0,10.4,406.6,405.1)" />
<use xlink:href="#f2_24" transform="matrix(10.4,0,0,10.4,418.1,405.1)" />
<use xlink:href="#f2_29" transform="matrix(10.4,0,0,10.4,421.7,405.1)" />
<use xlink:href="#f2_22" transform="matrix(10.4,0,0,10.4,430.5,405.1)" />
<use xlink:href="#f2_1z" transform="matrix(10.4,0,0,10.4,446.9,405.1)" />
<use xlink:href="#f2_24" transform="matrix(10.4,0,0,10.4,455.8,405.1)" />
<use xlink:href="#f2_21" transform="matrix(10.4,0,0,10.4,459.3,405.1)" />
<use xlink:href="#f2_21" transform="matrix(10.4,0,0,10.4,463.8,405.1)" />
<use xlink:href="#f2_20" transform="matrix(10.4,0,0,10.4,468.2,405.1)" />
<use xlink:href="#f2_2d" transform="matrix(10.4,0,0,10.4,477.1,405.1)" />
<use xlink:href="#f2_20" transform="matrix(10.4,0,0,10.4,482.4,405.1)" />
<use xlink:href="#f2_29" transform="matrix(10.4,0,0,10.4,491.3,405.1)" />
<use xlink:href="#f2_2f" transform="matrix(10.4,0,0,10.4,500.1,405.1)" />
<use xlink:href="#f2_24" transform="matrix(10.4,0,0,10.4,504.6,405.1)" />
<use xlink:href="#f2_1w" transform="matrix(10.4,0,0,10.4,508.1,405.1)" />
<use xlink:href="#f2_27" transform="matrix(10.4,0,0,10.4,517,405.1)" />
<use xlink:href="#f2_20" transform="matrix(10.4,0,0,10.4,528,405.1)" />
<use xlink:href="#f2_2c" transform="matrix(10.4,0,0,10.4,536.9,405.1)" />
<use xlink:href="#f2_2g" transform="matrix(10.4,0,0,10.4,545.8,405.1)" />
<use xlink:href="#f2_1w" transform="matrix(10.4,0,0,10.4,554.6,405.1)" />
<use xlink:href="#f2_2f" transform="matrix(10.4,0,0,10.4,563.5,405.1)" />
<use xlink:href="#f2_24" transform="matrix(10.4,0,0,10.4,567.9,405.1)" />
<use xlink:href="#f2_2a" transform="matrix(10.4,0,0,10.4,571.5,405.1)" />
<use xlink:href="#f2_29" transform="matrix(10.4,0,0,10.4,580.3,405.1)" />
<use xlink:href="#f2_2e" transform="matrix(10.4,0,0,10.4,589.2,405.1)" />
<use xlink:href="#f2_h" transform="matrix(10.4,0,0,10.4,597.2,405.1)" />
<use xlink:href="#f2_b" transform="matrix(10.4,0,0,10.4,139.1,466.5)" />
<use xlink:href="#f2_24" transform="matrix(10.4,0,0,10.4,144.5,466.5)" />
<use xlink:href="#f2_c" transform="matrix(10.4,0,0,10.4,148,466.5)" />
<use xlink:href="#f2_1y" transform="matrix(10.5,0,0,10.5,217.6,466.8)" />
<use xlink:href="#f2_2a" transform="matrix(10.5,0,0,10.5,225.9,466.8)" />
<use xlink:href="#f2_2e" transform="matrix(10.5,0,0,10.5,235.3,466.8)" />
<use xlink:href="#f2_j" transform="matrix(10.5,0,0,10.5,283.6,466.8)" />
<use xlink:href="#f2_h" transform="matrix(10.5,0,0,10.5,292.9,466.8)" />
<use xlink:href="#f3_1z" transform="matrix(10.5,0,0,10.5,174.6,456.4)" />
<use xlink:href="#f3_2k" transform="matrix(10.5,0,0,10.5,183.9,456.4)" />
<use xlink:href="#f3_2k" transform="matrix(10.5,0,0,10.5,247.9,466.8)" />
<use xlink:href="#f3_1z" transform="matrix(10.5,0,0,10.5,174.6,482.4)" />
<use xlink:href="#f3_2j" transform="matrix(10.5,0,0,10.5,183.9,482.4)" />
<use xlink:href="#f4_f" transform="matrix(10.5,0,0,10.5,201.9,466.8)" />
<use xlink:href="#f4_x" transform="matrix(10.5,0,0,10.5,266.4,466.8)" />
<use xlink:href="#f2_b" transform="matrix(10.4,0,0,10.4,405.9,466.5)" />
<use xlink:href="#f2_24" transform="matrix(10.4,0,0,10.4,411.2,466.5)" />
<use xlink:href="#f2_24" transform="matrix(10.4,0,0,10.4,414.7,466.5)" />
<use xlink:href="#f2_c" transform="matrix(10.4,0,0,10.4,418.3,466.5)" />
<use xlink:href="#f2_l" transform="matrix(7.9,0,0,7.9,535.2,446.4)" />
<use xlink:href="#f2_l" transform="matrix(7.9,0,0,7.9,479.6,447.1)" />
<use xlink:href="#f2_l" transform="matrix(7.9,0,0,7.9,544.1,473.9)" />
<use xlink:href="#f2_m" transform="matrix(10.5,0,0,10.5,510.3,466.4)" />
<use xlink:href="#f2_n" transform="matrix(10.5,0,0,10.5,579.8,466.4)" />
<use xlink:href="#f2_h" transform="matrix(10.5,0,0,10.5,589.2,466.4)" />
<use xlink:href="#f3_1z" transform="matrix(10.5,0,0,10.5,449.6,456)" />
<use xlink:href="#f3_2k" transform="matrix(10.5,0,0,10.5,458.9,456)" />
<use xlink:href="#f3_1z" transform="matrix(10.5,0,0,10.5,523.7,456)" />
<use xlink:href="#f3_2k" transform="matrix(10.5,0,0,10.5,542.9,456)" />
<use xlink:href="#f3_1z" transform="matrix(10.5,0,0,10.5,449.6,482)" />
<use xlink:href="#f3_2j" transform="matrix(10.5,0,0,10.5,458.9,482)" />
<use xlink:href="#f3_1z" transform="matrix(10.5,0,0,10.5,524.4,483.5)" />
<use xlink:href="#f3_2j" transform="matrix(10.5,0,0,10.5,533.7,483.5)" />
<use xlink:href="#f4_4o" transform="matrix(10.5,0,0,10.5,439.8,457.2)" />
<use xlink:href="#f4_54" transform="matrix(10.5,0,0,10.5,471.4,457.2)" />
<use xlink:href="#f4_f" transform="matrix(10.5,0,0,10.5,494.6,466.4)" />
<use xlink:href="#f4_x" transform="matrix(10.5,0,0,10.5,562.6,466.4)" />
<use xlink:href="#f4_4p" transform="matrix(10.5,0,0,10.5,439.8,472)" />
<use xlink:href="#f4_55" transform="matrix(10.5,0,0,10.5,471.4,472)" />
<use xlink:href="#f4_4q" transform="matrix(10.5,0,0,10.5,439.8,478.6)" />
<use xlink:href="#f4_56" transform="matrix(10.5,0,0,10.5,471.4,478.6)" />
<use xlink:href="#f2_b" transform="matrix(10.4,0,0,10.4,132,556.4)" />
<use xlink:href="#f2_24" transform="matrix(10.4,0,0,10.4,137.3,556.4)" />
<use xlink:href="#f2_24" transform="matrix(10.4,0,0,10.4,140.8,556.4)" />
<use xlink:href="#f2_24" transform="matrix(10.4,0,0,10.4,144.4,556.4)" />
<use xlink:href="#f2_c" transform="matrix(10.4,0,0,10.4,147.9,556.4)" />
<use xlink:href="#f2_o" transform="matrix(7.9,0,0,7.9,337.1,529)" />
<use xlink:href="#f2_n" transform="matrix(7.9,0,0,7.9,186,534.8)" />
<use xlink:href="#f2_l" transform="matrix(7.9,0,0,7.9,308.8,534.8)" />
<use xlink:href="#f2_n" transform="matrix(7.9,0,0,7.9,194.8,562.2)" />
<use xlink:href="#f2_l" transform="matrix(7.9,0,0,7.9,317.7,562.2)" />
<use xlink:href="#f2_2e" transform="matrix(10.5,0,0,10.5,227.4,554.8)" />
<use xlink:href="#f2_24" transform="matrix(10.5,0,0,10.5,235.7,554.8)" />
<use xlink:href="#f2_29" transform="matrix(10.5,0,0,10.5,239.5,554.8)" />
<use xlink:href="#f2_h" transform="matrix(10.5,0,0,10.5,348.9,554.8)" />
<use xlink:href="#f3_1z" transform="matrix(10.5,0,0,10.5,174.6,544.4)" />
<use xlink:href="#f3_2k" transform="matrix(10.5,0,0,10.5,193.8,544.4)" />
<use xlink:href="#f3_1z" transform="matrix(10.5,0,0,10.5,297.4,544.4)" />
<use xlink:href="#f3_2k" transform="matrix(10.5,0,0,10.5,316.5,544.4)" />
<use xlink:href="#f3_2j" transform="matrix(10.5,0,0,10.5,252.4,554.8)" />
<use xlink:href="#f3_1z" transform="matrix(10.5,0,0,10.5,175.1,571.9)" />
<use xlink:href="#f3_2j" transform="matrix(10.5,0,0,10.5,184.4,571.9)" />
<use xlink:href="#f3_1z" transform="matrix(10.5,0,0,10.5,298,571.9)" />
<use xlink:href="#f3_2j" transform="matrix(10.5,0,0,10.5,307.3,571.9)" />
<use xlink:href="#f4_4o" transform="matrix(10.5,0,0,10.5,287.7,539.1)" />
<use xlink:href="#f4_54" transform="matrix(10.5,0,0,10.5,329,539.1)" />
<use xlink:href="#f4_f" transform="matrix(10.5,0,0,10.5,211.7,554.8)" />
<use xlink:href="#f4_x" transform="matrix(10.5,0,0,10.5,270.8,554.8)" />
<use xlink:href="#f4_4p" transform="matrix(10.5,0,0,10.5,287.7,557.1)" />
<use xlink:href="#f4_55" transform="matrix(10.5,0,0,10.5,329,557.1)" />
<use xlink:href="#f4_4q" transform="matrix(10.5,0,0,10.5,287.7,568.5)" />
<use xlink:href="#f4_56" transform="matrix(10.5,0,0,10.5,329,568.5)" />
<use xlink:href="#f2_b" transform="matrix(10.4,0,0,10.4,401.3,556.4)" />
<use xlink:href="#f2_24" transform="matrix(10.4,0,0,10.4,406.6,556.4)" />
<use xlink:href="#f2_2h" transform="matrix(10.4,0,0,10.4,410.2,556.4)" />
<use xlink:href="#f2_c" transform="matrix(10.4,0,0,10.4,418.1,556.4)" />
<use xlink:href="#f2_o" transform="matrix(7.9,0,0,7.9,451.9,536.8)" />
<use xlink:href="#f2_o" transform="matrix(7.9,0,0,7.9,460.7,564.2)" />
<use xlink:href="#f2_27" transform="matrix(10.5,0,0,10.5,492.8,556.8)" />
<use xlink:href="#f2_2a" transform="matrix(10.5,0,0,10.5,496.6,556.8)" />
<use xlink:href="#f2_22" transform="matrix(10.5,0,0,10.5,505.8,556.8)" />
<use xlink:href="#f2_j" transform="matrix(10.5,0,0,10.5,583,556.8)" />
<use xlink:href="#f2_h" transform="matrix(10.5,0,0,10.5,592.3,556.8)" />
<use xlink:href="#f3_1z" transform="matrix(10.5,0,0,10.5,440.5,546.4)" />
<use xlink:href="#f3_2k" transform="matrix(10.5,0,0,10.5,459.7,546.4)" />
<use xlink:href="#f3_1z" transform="matrix(10.5,0,0,10.5,528,546.4)" />
<use xlink:href="#f3_2k" transform="matrix(10.5,0,0,10.5,537.3,546.4)" />
<use xlink:href="#f3_1z" transform="matrix(10.5,0,0,10.5,528,572.4)" />
<use xlink:href="#f3_2j" transform="matrix(10.5,0,0,10.5,537.3,572.4)" />
<use xlink:href="#f3_1z" transform="matrix(10.5,0,0,10.5,441,573.9)" />
<use xlink:href="#f3_2j" transform="matrix(10.5,0,0,10.5,450.3,573.9)" />
<use xlink:href="#f4_4o" transform="matrix(10.5,0,0,10.5,518.3,547.6)" />
<use xlink:href="#f4_54" transform="matrix(10.5,0,0,10.5,549.7,547.6)" />
<use xlink:href="#f4_f" transform="matrix(10.5,0,0,10.5,477.6,556.8)" />
<use xlink:href="#f4_x" transform="matrix(10.5,0,0,10.5,565.9,556.8)" />
<use xlink:href="#f4_4p" transform="matrix(10.5,0,0,10.5,518.3,562.4)" />
<use xlink:href="#f4_55" transform="matrix(10.5,0,0,10.5,549.7,562.4)" />
<use xlink:href="#f4_4q" transform="matrix(10.5,0,0,10.5,518.3,569)" />
<use xlink:href="#f4_56" transform="matrix(10.5,0,0,10.5,549.7,569)" />
<use xlink:href="#f2_b" transform="matrix(10.4,0,0,10.4,134.6,643.4)" />
<use xlink:href="#f2_2h" transform="matrix(10.4,0,0,10.4,139.9,643.4)" />
<use xlink:href="#f2_c" transform="matrix(10.4,0,0,10.4,148.1,643.4)" />
</g>
<path d="M174.8,646.3l1.5,-2.2l4,16.3l4.3,-42.9h49.6" class="g0_79" />
<path fill-rule="evenodd" d="M174.6,646.1l2.1,-3l3.5,14l4,-40h50v.8H184.9l-4.2,42.5h-.8l-4,-15.2l-.8,1.2l-.5,-.3Z" class="g1_79" />
<path d="M317,608.4l-3.8,12" class="g2_79" />
<g fill="#000000" >
<use xlink:href="#f2_k" transform="matrix(7.9,0,0,7.9,308.6,617.8)" />
<use xlink:href="#f2_m" transform="matrix(7.9,0,0,7.9,317.8,617.8)" />
<use xlink:href="#f2_l" transform="matrix(7.9,0,0,7.9,281.2,623.5)" />
<use xlink:href="#f2_l" transform="matrix(7.9,0,0,7.9,290.1,651)" />
<use xlink:href="#f2_k" transform="matrix(10.5,0,0,10.5,183.5,643.6)" />
<use xlink:href="#f2_h" transform="matrix(10.5,0,0,10.5,329.6,643.6)" />
<use xlink:href="#f3_1z" transform="matrix(10.5,0,0,10.5,212.7,633.1)" />
<use xlink:href="#f3_2k" transform="matrix(10.5,0,0,10.5,222,633.1)" />
<use xlink:href="#f3_1z" transform="matrix(10.5,0,0,10.5,269.7,633.1)" />
<use xlink:href="#f3_2k" transform="matrix(10.5,0,0,10.5,288.9,633.1)" />
<use xlink:href="#f3_1z" transform="matrix(10.5,0,0,10.5,212.7,659.2)" />
<use xlink:href="#f3_2j" transform="matrix(10.5,0,0,10.5,222,659.2)" />
<use xlink:href="#f3_1z" transform="matrix(10.5,0,0,10.5,270.4,660.6)" />
<use xlink:href="#f3_2j" transform="matrix(10.5,0,0,10.5,279.7,660.6)" />
<use xlink:href="#f4_4o" transform="matrix(10.5,0,0,10.5,260,627.8)" />
<use xlink:href="#f4_54" transform="matrix(10.5,0,0,10.5,301.4,627.8)" />
<use xlink:href="#f4_f" transform="matrix(10.5,0,0,10.5,196.5,643.6)" />
<use xlink:href="#f4_x" transform="matrix(10.5,0,0,10.5,243,643.6)" />
<use xlink:href="#f4_4p" transform="matrix(10.5,0,0,10.5,260,645.8)" />
<use xlink:href="#f4_55" transform="matrix(10.5,0,0,10.5,301.4,645.8)" />
<use xlink:href="#f4_4q" transform="matrix(10.5,0,0,10.5,260,657.2)" />
<use xlink:href="#f4_56" transform="matrix(10.5,0,0,10.5,301.4,657.2)" />
<use xlink:href="#f2_b" transform="matrix(10.4,0,0,10.4,401.3,643.4)" />
<use xlink:href="#f2_2h" transform="matrix(10.4,0,0,10.4,406.6,643.4)" />
<use xlink:href="#f2_24" transform="matrix(10.4,0,0,10.4,414.9,643.4)" />
<use xlink:href="#f2_c" transform="matrix(10.4,0,0,10.4,418.4,643.4)" />
</g>
<path d="M485.9,639.3h20.3" class="g3_79" />
<path d="M543.9,609.1l-3.9,12" class="g4_79" />
<g fill="#000000" >
<use xlink:href="#f4_4r" transform="matrix(10.5,0,0,10.5,440.4,628.5)" />
<use xlink:href="#f4_57" transform="matrix(10.5,0,0,10.5,526.5,628.5)" />
<use xlink:href="#f4_4o" transform="matrix(10.5,0,0,10.5,475.8,634.3)" />
<use xlink:href="#f4_54" transform="matrix(10.5,0,0,10.5,507.8,634.3)" />
<use xlink:href="#f4_f" transform="matrix(10.5,0,0,10.5,460.1,643.5)" />
<use xlink:href="#f4_x" transform="matrix(10.5,0,0,10.5,561.4,643.5)" />
<use xlink:href="#f4_4s" transform="matrix(10.5,0,0,10.5,440.4,644)" />
<use xlink:href="#f4_58" transform="matrix(10.5,0,0,10.5,526.5,644)" />
<use xlink:href="#f4_4p" transform="matrix(10.5,0,0,10.5,475.8,649.1)" />
<use xlink:href="#f4_55" transform="matrix(10.5,0,0,10.5,507.8,649.1)" />
<use xlink:href="#f4_4q" transform="matrix(10.5,0,0,10.5,475.8,655.7)" />
<use xlink:href="#f4_56" transform="matrix(10.5,0,0,10.5,507.8,655.7)" />
<use xlink:href="#f4_4s" transform="matrix(10.5,0,0,10.5,440.4,657.6)" />
<use xlink:href="#f4_58" transform="matrix(10.5,0,0,10.5,526.5,657.6)" />
<use xlink:href="#f4_4t" transform="matrix(10.5,0,0,10.5,440.4,660.3)" />
<use xlink:href="#f4_59" transform="matrix(10.5,0,0,10.5,526.5,660.3)" />
<use xlink:href="#f2_m" transform="matrix(7.9,0,0,7.9,533.2,618.5)" />
<use xlink:href="#f2_l" transform="matrix(7.9,0,0,7.9,544.5,618.5)" />
<use xlink:href="#f2_l" transform="matrix(7.9,0,0,7.9,604.7,623.5)" />
<use xlink:href="#f2_l" transform="matrix(7.9,0,0,7.9,516.1,624.2)" />
<use xlink:href="#f2_l" transform="matrix(7.9,0,0,7.9,613.8,651)" />
<use xlink:href="#f2_k" transform="matrix(10.5,0,0,10.5,447.1,643.5)" />
<use xlink:href="#f2_h" transform="matrix(10.5,0,0,10.5,627.5,643.5)" />
<use xlink:href="#f3_1z" transform="matrix(10.5,0,0,10.5,485.8,633.1)" />
<use xlink:href="#f3_2k" transform="matrix(10.5,0,0,10.5,495.2,633.1)" />
<use xlink:href="#f3_1z" transform="matrix(10.5,0,0,10.5,593.2,633.1)" />
<use xlink:href="#f3_2k" transform="matrix(10.5,0,0,10.5,612.6,633.1)" />
<use xlink:href="#f3_26" transform="matrix(10.5,0,0,10.5,578.3,643.5)" />
<use xlink:href="#f3_1z" transform="matrix(10.5,0,0,10.5,485.8,659.1)" />
<use xlink:href="#f3_2j" transform="matrix(10.5,0,0,10.5,495.2,659.1)" />
<use xlink:href="#f3_1z" transform="matrix(10.5,0,0,10.5,593.8,660.6)" />
<use xlink:href="#f3_2j" transform="matrix(10.5,0,0,10.5,603.3,660.6)" />
<use xlink:href="#f2_b" transform="matrix(10.4,0,0,10.4,127.4,732.2)" />
<use xlink:href="#f2_2h" transform="matrix(10.4,0,0,10.4,132.7,732.2)" />
<use xlink:href="#f2_24" transform="matrix(10.4,0,0,10.4,140.7,732.2)" />
<use xlink:href="#f2_24" transform="matrix(10.4,0,0,10.4,144.2,732.2)" />
<use xlink:href="#f2_c" transform="matrix(10.4,0,0,10.4,147.8,732.2)" />
<use xlink:href="#f2_l" transform="matrix(7.9,0,0,7.9,223.5,706.5)" />
<use xlink:href="#f2_m" transform="matrix(7.9,0,0,7.9,303.3,706.5)" />
<use xlink:href="#f2_m" transform="matrix(7.9,0,0,7.9,195,712.3)" />
<use xlink:href="#f2_l" transform="matrix(7.9,0,0,7.9,274.9,712.3)" />
<use xlink:href="#f2_m" transform="matrix(7.9,0,0,7.9,203.9,739.7)" />
<use xlink:href="#f2_l" transform="matrix(7.9,0,0,7.9,283.9,739.7)" />
<use xlink:href="#f2_2e" transform="matrix(10.5,0,0,10.5,337.2,732.3)" />
<use xlink:href="#f2_24" transform="matrix(10.5,0,0,10.5,345.5,732.3)" />
<use xlink:href="#f2_29" transform="matrix(10.5,0,0,10.5,349.2,732.3)" />
<use xlink:href="#f2_h" transform="matrix(10.5,0,0,10.5,371.6,732.3)" />
<use xlink:href="#f3_1z" transform="matrix(10.5,0,0,10.5,183.6,721.9)" />
<use xlink:href="#f3_2k" transform="matrix(10.5,0,0,10.5,202.9,721.9)" />
<use xlink:href="#f3_1z" transform="matrix(10.5,0,0,10.5,263.6,721.9)" />
<use xlink:href="#f3_2k" transform="matrix(10.5,0,0,10.5,282.7,721.9)" />
<use xlink:href="#f3_2j" transform="matrix(10.5,0,0,10.5,362.1,732.3)" />
<use xlink:href="#f3_1z" transform="matrix(10.5,0,0,10.5,184.2,749.3)" />
<use xlink:href="#f3_2j" transform="matrix(10.5,0,0,10.5,193.5,749.3)" />
<use xlink:href="#f3_1z" transform="matrix(10.5,0,0,10.5,264.2,749.3)" />
<use xlink:href="#f3_2j" transform="matrix(10.5,0,0,10.5,273.5,749.3)" />
<use xlink:href="#f4_4o" transform="matrix(10.5,0,0,10.5,173.9,716.6)" />
<use xlink:href="#f4_54" transform="matrix(10.5,0,0,10.5,215.3,716.6)" />
<use xlink:href="#f4_4o" transform="matrix(10.5,0,0,10.5,253.8,716.6)" />
<use xlink:href="#f4_54" transform="matrix(10.5,0,0,10.5,295.1,716.6)" />
<use xlink:href="#f4_f" transform="matrix(10.5,0,0,10.5,238.4,732.3)" />
<use xlink:href="#f4_x" transform="matrix(10.5,0,0,10.5,320,732.3)" />
<use xlink:href="#f4_4p" transform="matrix(10.5,0,0,10.5,173.9,734.5)" />
<use xlink:href="#f4_55" transform="matrix(10.5,0,0,10.5,215.3,734.5)" />
<use xlink:href="#f4_4p" transform="matrix(10.5,0,0,10.5,253.8,734.5)" />
<use xlink:href="#f4_55" transform="matrix(10.5,0,0,10.5,295.1,734.5)" />
<use xlink:href="#f4_4q" transform="matrix(10.5,0,0,10.5,173.9,745.9)" />
<use xlink:href="#f4_56" transform="matrix(10.5,0,0,10.5,215.3,745.9)" />
<use xlink:href="#f4_4q" transform="matrix(10.5,0,0,10.5,253.8,745.9)" />
<use xlink:href="#f4_56" transform="matrix(10.5,0,0,10.5,295.1,745.9)" />
<use xlink:href="#f2_b" transform="matrix(10.4,0,0,10.4,394.3,732.2)" />
<use xlink:href="#f2_2h" transform="matrix(10.4,0,0,10.4,399.7,732.2)" />
<use xlink:href="#f2_24" transform="matrix(10.4,0,0,10.4,407.6,732.2)" />
<use xlink:href="#f2_24" transform="matrix(10.4,0,0,10.4,411.2,732.2)" />
<use xlink:href="#f2_24" transform="matrix(10.4,0,0,10.4,414.7,732.2)" />
<use xlink:href="#f2_c" transform="matrix(10.4,0,0,10.4,418.3,732.2)" />
<use xlink:href="#f2_2f" transform="matrix(10.5,0,0,10.6,483.8,731.7)" />
<use xlink:href="#f2_1w" transform="matrix(10.5,0,0,10.6,488.6,731.7)" />
<use xlink:href="#f2_29" transform="matrix(10.5,0,0,10.6,497.9,731.7)" />
<use xlink:href="#f2_j" transform="matrix(10.5,0,0,10.6,575.1,731.7)" />
<use xlink:href="#f4_4o" transform="matrix(10.5,0,0,10.6,510.1,722.4)" />
<use xlink:href="#f4_54" transform="matrix(10.5,0,0,10.6,541.7,722.4)" />
<use xlink:href="#f4_f" transform="matrix(10.5,0,0,10.6,467.8,731.7)" />
<use xlink:href="#f4_x" transform="matrix(10.5,0,0,10.6,557.9,731.7)" />
<use xlink:href="#f4_4p" transform="matrix(10.5,0,0,10.6,510.1,737.3)" />
<use xlink:href="#f4_55" transform="matrix(10.5,0,0,10.6,541.7,737.3)" />
<use xlink:href="#f4_4q" transform="matrix(10.5,0,0,10.6,510.1,744)" />
<use xlink:href="#f4_56" transform="matrix(10.5,0,0,10.6,541.7,744)" />
<use xlink:href="#f3_1z" transform="matrix(10.5,0,0,10.6,440.5,721.2)" />
<use xlink:href="#f3_2k" transform="matrix(10.5,0,0,10.6,449.9,721.2)" />
<use xlink:href="#f3_1z" transform="matrix(10.5,0,0,10.6,519.9,721.2)" />
<use xlink:href="#f3_2k" transform="matrix(10.5,0,0,10.6,529.2,721.2)" />
<use xlink:href="#f3_1z" transform="matrix(10.5,0,0,10.6,440.7,747.4)" />
<use xlink:href="#f3_2j" transform="matrix(10.5,0,0,10.6,450,747.4)" />
<use xlink:href="#f3_1z" transform="matrix(10.5,0,0,10.6,520,747.4)" />
<use xlink:href="#f3_2j" transform="matrix(10.5,0,0,10.6,529.3,747.4)" />
<use xlink:href="#f5_12" transform="matrix(13,0,0,13,293.9,192.6)" />
<use xlink:href="#f5_17" transform="matrix(13,0,0,13,308.2,192.6)" />
<use xlink:href="#f5_10" transform="matrix(13,0,0,13,322.5,192.6)" />
<use xlink:href="#f5_1f" transform="matrix(13,0,0,13,336.8,192.6)" />
<use xlink:href="#f5_1j" transform="matrix(13,0,0,13,350,192.6)" />
<use xlink:href="#f5_14" transform="matrix(13,0,0,13,362.1,192.6)" />
<use xlink:href="#f5_1h" transform="matrix(13,0,0,13,375.3,192.6)" />
<use xlink:href="#f5_s" transform="matrix(13,0,0,13,397.8,192.6)" />
<use xlink:href="#f5_13" transform="matrix(16,0,0,16,185.7,246.5)" />
<use xlink:href="#f5_18" transform="matrix(16,0,0,16,203.3,246.5)" />
<use xlink:href="#f5_15" transform="matrix(16,0,0,16,210.1,246.5)" />
<use xlink:href="#f5_15" transform="matrix(16,0,0,16,225,246.5)" />
<use xlink:href="#f5_14" transform="matrix(16,0,0,16,239.9,246.5)" />
<use xlink:href="#f5_1h" transform="matrix(16,0,0,16,256.1,246.5)" />
<use xlink:href="#f5_14" transform="matrix(16,0,0,16,273.8,246.5)" />
<use xlink:href="#f5_1d" transform="matrix(16,0,0,16,290,246.5)" />
<use xlink:href="#f5_1j" transform="matrix(16,0,0,16,307.6,246.5)" />
<use xlink:href="#f5_18" transform="matrix(16,0,0,16,322.5,246.5)" />
<use xlink:href="#f5_10" transform="matrix(16,0,0,16,329.3,246.5)" />
<use xlink:href="#f5_1b" transform="matrix(16,0,0,16,346.9,246.5)" />
<use xlink:href="#f5_14" transform="matrix(16,0,0,16,372.3,246.5)" />
<use xlink:href="#f5_1g" transform="matrix(16,0,0,16,388.5,246.5)" />
<use xlink:href="#f5_1k" transform="matrix(16,0,0,16,407.5,246.5)" />
<use xlink:href="#f5_10" transform="matrix(16,0,0,16,425.1,246.5)" />
<use xlink:href="#f5_1j" transform="matrix(16,0,0,16,442.7,246.5)" />
<use xlink:href="#f5_18" transform="matrix(16,0,0,16,457.6,246.5)" />
<use xlink:href="#f5_1e" transform="matrix(16,0,0,16,464.4,246.5)" />
<use xlink:href="#f5_1d" transform="matrix(16,0,0,16,483.4,246.5)" />
<use xlink:href="#f5_1i" transform="matrix(16,0,0,16,501,246.5)" />
<use xlink:href="#f6_l" transform="matrix(12,0,0,12,673.3,1070.2)" />
</g>
<g fill="#0080FF" fill-opacity="0.5" >
<use xlink:href="#f0_1c" transform="matrix(38.3,0,0,38.3,183.6,1079.4)" />
<use xlink:href="#f0_21" transform="matrix(38.3,0,0,38.3,216.1,1079.4)" />
<use xlink:href="#f0_1x" transform="matrix(38.3,0,0,38.3,248.6,1079.4)" />
<use xlink:href="#f0_2e" transform="matrix(38.3,0,0,38.3,281.1,1079.4)" />
<use xlink:href="#f0_2a" transform="matrix(38.3,0,0,38.3,300.6,1079.4)" />
<use xlink:href="#f0_17" transform="matrix(38.3,0,0,38.3,333.1,1079.4)" />
<use xlink:href="#f0_2h" transform="matrix(38.3,0,0,38.3,378.6,1079.4)" />
<use xlink:href="#f0_25" transform="matrix(38.3,0,0,38.3,411.1,1079.4)" />
<use xlink:href="#f0_20" transform="matrix(38.3,0,0,38.3,424,1079.4)" />
<use xlink:href="#f0_21" transform="matrix(38.3,0,0,38.3,456.5,1079.4)" />
<use xlink:href="#f0_i" transform="matrix(38.3,0,0,38.3,489.1,1079.4)" />
<use xlink:href="#f0_25" transform="matrix(38.3,0,0,38.3,505.3,1079.4)" />
<use xlink:href="#f0_2a" transform="matrix(38.3,0,0,38.3,518.3,1079.4)" />
</g>
<defs>
<path d="M593,101c0,0,182,0,279,112c0,0,98,113,98,318c0,0,0,196,-98,308c0,0,-98,112,-277,112c0,0,-181,0,-279,-110c0,0,-99,-111,-99,-310c0,0,0,-198,100,-314c0,0,99,-116,276,-116Zm0,-115c0,0,-162,0,-279,65c0,0,-118,66,-180,190c0,0,-62,124,-62,290c0,0,0,252,138,394c0,0,138,142,385,142c0,0,160,0,278,-64c0,0,118,-64,180,-185c0,0,62,-122,62,-287c0,0,0,-165,-63,-289c0,0,-63,-124,-181,-190c0,0,-118,-66,-278,-66Z" 
id="f0_1f"
transform="scale(0.001,-0.001)" />

<path d="M106,0V635c0,0,0,141,-5,173H228c0,0,1,-4,2,-21c0,0,1,-16,2,-37c0,0,1,-22,2,-81h2c0,0,47,84,108,119c0,0,60,34,151,34c0,0,132,0,194,-66c0,0,61,-66,61,-218V0H615V512c0,0,0,80,-15,124c0,0,-16,44,-50,63c0,0,-35,20,-101,20c0,0,-97,0,-153,-67c0,0,-56,-66,-56,-184V0Z" 
id="f0_2a"
transform="scale(0.001,-0.001)" />

<path d="M103,0V1107H237V0Z" 
id="f0_28"
transform="scale(0.001,-0.001)" />

<path d="M102,0V808H236V0Zm0,979v128H236V979Z" 
id="f0_25"
transform="scale(0.001,-0.001)" />

<path d="M643,478c0,0,-11,128,-65,187c0,0,-54,59,-154,59c0,0,-98,0,-155,-66c0,0,-57,-65,-62,-180ZM431,-14c0,0,-179,0,-272,106c0,0,-94,107,-94,317c0,0,0,200,94,307c0,0,93,106,267,106c0,0,356,0,356,-429V375H206c0,0,0,-138,57,-213c0,0,58,-75,168,-75c0,0,87,0,140,35c0,0,53,35,71,88L760,177c0,0,-72,-191,-329,-191Z" 
id="f0_21"
transform="scale(0.001,-0.001)" />

<path d="M17,0L304,415L31,808H179L380,493L580,808H730L457,417L747,0H598L380,331L162,0Z" 
id="f0_2k"
transform="scale(0.001,-0.001)" />

<path d="M339,87c0,0,74,0,132,34c0,0,57,33,90,91c0,0,34,59,34,121v66L448,396c0,0,-95,-2,-144,-19c0,0,-49,-18,-75,-55c0,0,-26,-38,-26,-98c0,0,0,-65,35,-101c0,0,36,-36,101,-36ZM309,-14c0,0,-122,0,-183,64c0,0,-61,64,-61,176c0,0,0,125,82,192c0,0,83,67,266,72l182,3v44c0,0,0,98,-42,141c0,0,-42,43,-132,43c0,0,-90,0,-131,-31c0,0,-41,-31,-49,-98L101,604c0,0,34,218,323,218c0,0,153,0,229,-70c0,0,77,-69,77,-202V202c0,0,0,-59,16,-90c0,0,16,-30,60,-30c0,0,19,0,44,5V4C850,4,799,-7,746,-7c0,0,-75,0,-109,38c0,0,-33,40,-38,124h-4C595,155,543,62,475,24c0,0,-68,-38,-166,-38Z" 
id="f0_1x"
transform="scale(0.001,-0.001)" />

<path d="M106,0V635c0,0,0,141,-5,173H228c0,0,1,-4,2,-21c0,0,1,-16,2,-37c0,0,1,-22,2,-81h2c0,0,44,86,100,120c0,0,56,33,136,33c0,0,92,0,145,-36c0,0,54,-37,75,-117h2c0,0,42,82,101,117c0,0,59,36,143,36c0,0,123,0,178,-66c0,0,56,-67,56,-218V0H1039V512c0,0,0,117,-32,162c0,0,-32,45,-116,45c0,0,-88,0,-136,-66c0,0,-49,-65,-49,-185V0H573V512c0,0,0,117,-32,162c0,0,-32,45,-116,45c0,0,-86,0,-136,-66c0,0,-50,-66,-50,-185V0Z" 
id="f0_29"
transform="scale(0.001,-0.001)" />

<path d="M453,84c0,0,100,0,146,74c0,0,46,73,46,247c0,0,0,169,-46,241c0,0,-45,73,-145,73c0,0,-80,0,-125,-34c0,0,-45,-34,-68,-105c0,0,-24,-71,-24,-186c0,0,0,-159,51,-234c0,0,51,-76,165,-76ZM103,-316V643c0,0,0,124,-5,165H228c0,0,1,-3,3,-22c0,0,1,-18,3,-56c0,0,2,-38,2,-52h3c0,0,36,75,94,110c0,0,59,34,156,34c0,0,149,0,223,-100c0,0,74,-100,74,-314c0,0,0,-422,-297,-422c0,0,-187,0,-251,140h-4c0,0,3,-6,3,-126V-316Z" 
id="f0_2c"
transform="scale(0.001,-0.001)" />

<path d="M420,84c0,0,121,0,173,78c0,0,52,77,52,243c0,0,0,167,-50,243c0,0,-50,76,-167,76c0,0,-118,0,-170,-78c0,0,-53,-77,-53,-241c0,0,0,-160,52,-241c0,0,52,-80,163,-80Zm1,-98c0,0,-176,0,-267,107c0,0,-90,108,-90,312c0,0,0,417,362,417c0,0,185,0,272,-102c0,0,88,-101,88,-315c0,0,0,-212,-94,-316C692,89,599,-14,421,-14Z" 
id="f0_2b"
transform="scale(0.001,-0.001)" />

<path d="M278,-11c0,0,-162,0,-162,182V710H23v98h99l39,181h90V808H400V710H251V200c0,0,0,-58,19,-82c0,0,19,-23,66,-23c0,0,27,0,77,10V6c0,0,-66,-17,-135,-17Z" 
id="f0_2g"
transform="scale(0.001,-0.001)" />

<path d="M431,0L102,922c0,0,-19,55,-51,110c0,0,-31,56,-86,135H386c0,0,-7,-41,-6,-71c0,0,1,-31,11,-63L581,398l219,635c0,0,12,33,14,63c0,0,3,30,-3,71h378c0,0,-33,-44,-61,-99c0,0,-29,-55,-67,-146L694,0Z" 
id="f1_1l"
transform="scale(0.001,-0.001)" />

<path d="M102,0c0,0,22,54,31,110c0,0,10,55,10,135V922c0,0,0,81,-10,136c0,0,-9,55,-31,109H823L766,1041L709,913c0,0,-42,20,-137,36c0,0,-62,9,-121,13V697H798L728,569L657,441c0,0,-45,21,-131,36c0,0,-38,8,-75,11V206c0,0,117,6,201,22c0,0,126,24,239,84L827,156L762,0Z" 
id="f1_14"
transform="scale(0.001,-0.001)" />

<path d="M452,645c0,0,85,0,139,47c0,0,54,47,54,121c0,0,0,66,-51,107c0,0,-51,42,-132,42H442V645ZM93,0c0,0,22,54,32,110c0,0,9,55,9,135V922c0,0,0,81,-9,136c0,0,-10,55,-32,109H498c0,0,215,0,332,-90c0,0,117,-90,117,-256c0,0,0,-159,-129,-253c0,0,-46,-34,-103,-54L902,246c0,0,57,-82,107,-137c0,0,50,-55,115,-109H803c0,0,-30,0,-104,83c0,0,-73,83,-149,202L442,461V246c0,0,0,-81,9,-136c0,0,10,-56,32,-110Z" 
id="f1_1h"
transform="scale(0.001,-0.001)" />

<path d="M319,0c0,0,22,54,31,110c0,0,10,55,10,135V518L134,922c0,0,-57,100,-95,155c0,0,-37,55,-71,90H351c0,0,4,-29,12,-53c0,0,7,-24,22,-54L517,787l152,273c0,0,14,25,23,49c0,0,9,24,16,58h354c0,0,-35,-33,-73,-88c0,0,-38,-56,-99,-157L668,536V245c0,0,0,-80,9,-135c0,0,9,-56,32,-110Z" 
id="f1_1o"
transform="scale(0.001,-0.001)" />

<path d="M367,-20c0,0,-85,0,-142,12C225,-8,167,2,83,35V332c0,0,41,-55,107,-90c0,0,66,-35,130,-35c0,0,51,0,84,31c0,0,32,31,32,81c0,0,0,49,-23,86c0,0,-22,37,-82,83c0,0,-126,98,-184,181c0,0,-57,82,-57,165c0,0,0,155,106,253c0,0,106,98,272,98c0,0,62,0,133,-13c0,0,71,-13,120,-33V867c0,0,-59,49,-104,70c0,0,-46,20,-94,20c0,0,-47,0,-76,-24c0,0,-29,-25,-29,-63c0,0,0,-41,20,-73c0,0,21,-31,75,-73c0,0,130,-101,189,-189c0,0,59,-87,59,-180c0,0,0,-165,-110,-270C651,85,541,-20,367,-20Z" 
id="f1_1i"
transform="scale(0.001,-0.001)" />

<path d="M99,0c0,0,22,54,32,110c0,0,9,55,9,135V922c0,0,0,81,-10,136c0,0,-9,55,-31,109H489c0,0,-23,-54,-32,-109c0,0,-9,-55,-9,-136V712H790V922c0,0,0,81,-9,136c0,0,-10,55,-32,109h390c0,0,-22,-54,-32,-109c0,0,-9,-55,-9,-136V245c0,0,0,-80,9,-135c0,0,10,-56,32,-110H749c0,0,22,54,32,110c0,0,9,55,9,135V478H448V245c0,0,0,-80,9,-135c0,0,9,-56,32,-110Z" 
id="f1_17"
transform="scale(0.001,-0.001)" />

<path d="M822,206c14,0,28,0,42,1c0,0,53,50,87,150c0,0,34,101,34,210c0,0,0,188,-132,297c0,0,-113,95,-296,95c-13,0,-27,-1,-42,-2c0,0,-53,-49,-86,-150c0,0,-34,-102,-34,-212c0,0,0,-186,132,-295c0,0,114,-94,295,-94ZM690,-20c0,0,-276,0,-452,168C238,148,63,317,63,581c0,0,0,266,175,435c0,0,176,169,452,169c0,0,277,0,452,-169c0,0,175,-169,175,-435c0,0,0,-264,-175,-433c0,0,-175,-168,-452,-168Z" 
id="f1_1e"
transform="scale(0.001,-0.001)" />

<path d="M289,0c0,0,26,60,37,116c0,0,9,55,9,129V961c0,0,-94,-3,-160,-9c0,0,-116,-13,-188,-44l41,130l41,129H981L946,1042L912,917c0,0,-45,18,-154,32c0,0,-58,8,-115,11V245c0,0,0,-74,11,-129c0,0,10,-56,35,-116Z" 
id="f1_1j"
transform="scale(0.001,-0.001)" />

<path d="M693,499L573,830L462,499ZM-39,0c0,0,33,42,61,97c0,0,30,55,71,148l314,761c0,0,22,51,38,98c0,0,15,47,17,63H721c0,0,2,-16,18,-63c0,0,15,-47,37,-98L1091,245c0,0,41,-95,70,-150c0,0,30,-55,60,-95H849c0,0,3,25,-3,55c0,0,-6,30,-24,80L765,295H393L340,135c0,0,-17,-50,-22,-80c0,0,-5,-30,-2,-55Z" 
id="f1_10"
transform="scale(0.001,-0.001)" />

<path d="M108,0c0,0,22,54,31,110c0,0,10,55,10,135V985L-5,1167H418c0,0,21,-44,54,-99c0,0,34,-55,96,-146L857,495V922c0,0,0,81,-9,136c0,0,-9,55,-32,109h378c0,0,-23,-54,-32,-109c0,0,-9,-55,-9,-136V351c0,0,0,-76,11,-178c0,0,11,-101,27,-173H845c0,0,-7,25,-28,67c0,0,-21,42,-45,78L444,628V245c0,0,0,-80,9,-135c0,0,10,-56,32,-110Z" 
id="f1_1d"
transform="scale(0.001,-0.001)" />

<path d="M324,0L78,922c0,0,-23,85,-44,140c0,0,-22,55,-50,105H376c0,0,-7,-56,-7,-99c0,0,1,-42,11,-89L479,513L610,998c0,0,11,42,21,91c0,0,10,49,13,78H861c0,0,4,-36,12,-85c0,0,9,-50,18,-84L1021,492l115,540c0,0,8,33,6,63c0,0,-1,31,-12,72h378c0,0,-30,-50,-52,-105c0,0,-21,-56,-45,-140L1166,0H925L741,597L565,0Z" 
id="f1_1m"
transform="scale(0.001,-0.001)" />

<path d="M462,650c0,0,82,0,133,46c0,0,52,47,52,119c0,0,0,65,-48,106c0,0,-49,41,-125,41H452V650ZM103,0c0,0,22,54,32,110c0,0,9,55,9,135V922c0,0,0,81,-10,136c0,0,-9,55,-31,109H505c0,0,212,0,327,-93c0,0,114,-94,114,-268c0,0,0,-166,-127,-264c0,0,-127,-97,-343,-97H452V246c0,0,0,-81,9,-136c0,0,9,-56,32,-110Z" 
id="f1_1f"
transform="scale(0.001,-0.001)" />

<path d="M821,206c13,0,26,0,40,1c0,0,53,33,86,127c0,0,34,94,34,210c0,0,0,198,-131,314c0,0,-114,101,-297,101c-13,0,-27,-1,-40,-2c0,0,-53,-49,-87,-144c0,0,-33,-95,-33,-195c0,0,0,-197,131,-312c0,0,115,-100,297,-100Zm413,-442c-84,0,-186,15,-288,68c0,0,-113,58,-202,151c0,0,-22,-3,-48,-3c-3,0,-6,0,-9,0c0,0,-276,0,-452,168C235,148,60,316,60,581c0,0,0,266,175,435c0,0,176,169,452,169c0,0,277,0,452,-169c0,0,175,-169,175,-435c0,0,0,-265,-176,-433c0,0,-29,-28,-59,-51c0,0,51,-79,111,-141c0,0,104,-109,233,-165c0,0,-78,-27,-189,-27Z" 
id="f1_1g"
transform="scale(0.001,-0.001)" />

<path d="M512,-17c0,0,-191,0,-285,112c0,0,-94,113,-93,341V922c0,0,0,81,-9,136c0,0,-10,55,-32,109H483c0,0,-22,-54,-32,-109c0,0,-9,-56,-9,-136V502c0,0,0,-147,43,-219c0,0,43,-72,130,-72c0,0,85,0,127,62c0,0,42,61,42,187V922c0,0,0,80,-9,136c0,0,-10,55,-32,109h390c0,0,-22,-54,-31,-109c0,0,-10,-55,-10,-136V245c0,0,0,-80,9,-135c0,0,10,-56,32,-110H815l6,86C821,86,703,-17,512,-17Z" 
id="f1_1k"
transform="scale(0.001,-0.001)" />

<path d="M105,0c0,0,22,54,32,110c0,0,9,55,9,135V922c0,0,0,80,-10,135c0,0,-9,55,-31,110H495c0,0,-23,-54,-32,-109c0,0,-9,-55,-9,-136V245c0,0,0,-80,9,-135c0,0,9,-56,32,-110Z" 
id="f1_18"
transform="scale(0.001,-0.001)" />

<path d="M449,-255c0,0,-184,222,-259,382c0,0,-75,160,-75,331c0,0,0,172,75,332c0,0,75,161,259,382H673c0,0,-156,-201,-220,-362c0,0,-64,-160,-64,-352c0,0,0,-192,64,-352c0,0,64,-160,220,-361Z" 
id="f1_b"
transform="scale(0.001,-0.001)" />

<path d="M335,0c0,0,23,55,32,110c0,0,9,55,9,136V811L199,810v3l443,366V246c0,0,0,-81,10,-136c0,0,9,-56,31,-110Z" 
id="f1_k"
transform="scale(0.001,-0.001)" />

<path d="M90,0c0,0,22,54,32,110c0,0,9,55,9,135V996L-14,1167H428c0,0,2,-38,9,-63c0,0,8,-24,24,-44L752,691l296,369c0,0,23,28,33,53c0,0,10,24,11,54h346c0,0,-50,-120,-70,-208c0,0,-20,-88,-20,-184V245c0,0,0,-80,10,-135c0,0,9,-56,31,-110H999c0,0,23,54,32,110c0,0,9,55,9,135V675L741,291h-1L441,681V245c0,0,0,-80,9,-135c0,0,10,-56,32,-110Z" 
id="f1_1c"
transform="scale(0.001,-0.001)" />

<path d="M90,0c0,0,22,54,32,110c0,0,9,55,9,135V922c0,0,0,81,-9,136c0,0,-10,55,-32,109H480c0,0,-22,-54,-32,-109c0,0,-9,-55,-9,-136V739l269,348c0,0,23,27,33,45c0,0,11,18,14,35h396c0,0,-38,-23,-94,-79c0,0,-55,-55,-153,-166L651,635L957,245c0,0,84,-105,135,-160c0,0,51,-55,93,-85H749c0,0,-25,51,-60,107c0,0,-35,55,-95,138L439,463V245c0,0,0,-80,9,-135c0,0,10,-56,32,-110Z" 
id="f1_1a"
transform="scale(0.001,-0.001)" />

<path d="M115,-255c0,0,156,201,220,361c0,0,64,160,64,352c0,0,0,192,-64,352c0,0,-64,161,-220,362H339c0,0,184,-222,259,-383c0,0,75,-160,75,-331c0,0,0,-171,-75,-332c0,0,-75,-160,-259,-381Z" 
id="f1_c"
transform="scale(0.001,-0.001)" />

<path d="M406,0V763H155V870h2c16,0,114,2,178,48c0,0,70,51,104,157H549V0Z" 
id="f2_k"
transform="scale(0.001,-0.001)" />

<path d="M133,0V162H292V0Z" 
id="f2_h"
transform="scale(0.001,-0.001)" />

<path d="M312,0L24,1098l80,-1l81,1L380,230c0,0,6,-22,9,-42c0,0,3,-17,3,-26c0,4,1,13,4,28c0,0,4,20,9,40l232,867H804L1035,234c0,0,6,-20,10,-41c0,0,3,-19,3,-29c0,3,1,12,4,28c0,0,3,21,8,42l198,864l80,-1l79,1L1130,0H971L733,849c0,0,-6,21,-11,42c0,0,-4,21,-4,29c0,0,0,-9,-4,-30c0,0,-4,-20,-10,-41L471,0Z" 
id="f2_1m"
transform="scale(0.001,-0.001)" />

<path d="M118,0V799H246V662c0,0,17,32,36,58c0,0,76,102,187,102c0,0,19,0,38,-6V679l-27,1c0,0,-109,0,-168,-66c0,0,-60,-65,-60,-186V0Z" 
id="f2_2d"
transform="scale(0.001,-0.001)" />

<path d="M104,0V799H238V0Zm-2,946v152H239V946Z" 
id="f2_24"
transform="scale(0.001,-0.001)" />

<path d="M292,-9c0,0,-88,0,-124,38c0,0,-36,39,-36,134V689H22V799H132v224H266V799H392V689H266V163c0,0,0,-27,21,-43c0,0,21,-15,57,-15h48V1C392,1,324,-9,292,-9Z" 
id="f2_2f"
transform="scale(0.001,-0.001)" />

<path d="M649,461c0,0,-6,111,-55,172c0,0,-55,69,-160,69c0,0,-106,0,-170,-79c0,0,-50,-62,-60,-162ZM425,-20c0,0,-169,0,-266,106c0,0,-97,107,-97,297c0,0,0,201,102,320c0,0,103,119,276,119c0,0,157,0,253,-116c0,0,96,-117,96,-306l-1,-48H204c0,0,8,-119,54,-182c0,0,57,-76,180,-76c0,0,77,0,134,43c0,0,58,43,70,110H775C775,247,746,116,656,47c0,0,-90,-67,-231,-67Z" 
id="f2_20"
transform="scale(0.001,-0.001)" />

<path d="M99,0V1097H233V690l23,30c0,0,87,102,219,102c0,0,132,0,203,-71c0,0,72,-72,72,-204V0H616V514c0,0,0,99,-38,142c0,0,-38,44,-124,44c0,0,-102,0,-162,-73c0,0,-59,-74,-59,-199V0Z" 
id="f2_23"
transform="scale(0.001,-0.001)" />

<path d="M424,94c0,0,107,0,169,83c0,0,63,83,63,223c0,0,0,140,-63,224c0,0,-62,83,-169,83c0,0,-106,0,-168,-83c0,0,-62,-84,-62,-224c0,0,0,-140,62,-223c0,0,62,-83,168,-83Zm0,-114c0,0,-165,0,-268,115C156,95,54,211,54,400c0,0,0,189,102,306c0,0,103,116,268,116c0,0,168,0,270,-116c0,0,102,-117,102,-306c0,0,0,-189,-102,-305C694,95,592,-20,424,-20Z" 
id="f2_2a"
transform="scale(0.001,-0.001)" />

<path d="M411,93c0,0,98,0,158,73c0,0,60,74,60,195c0,0,0,163,-57,252c0,0,-56,88,-161,88c0,0,-113,0,-165,-72c0,0,-52,-72,-52,-229c0,0,0,-147,56,-227c0,0,56,-80,161,-80ZM404,-20c0,0,-161,0,-255,118c0,0,-95,120,-95,324c0,0,0,179,92,290c0,0,91,110,239,110c0,0,147,0,233,-124l11,-15v414H763V0H638V109L621,84C621,84,538,-20,404,-20Z" 
id="f2_1z"
transform="scale(0.001,-0.001)" />

<path d="M335,90c0,0,106,0,179,57c0,0,50,41,67,91c0,0,3,10,4,31c0,0,3,21,3,47v87c0,0,-38,-18,-83,-25L381,360c0,0,-97,-13,-142,-45c0,0,-44,-31,-44,-86c0,0,0,-67,36,-103c0,0,37,-36,104,-36ZM309,-20c0,0,-117,0,-186,61c0,0,-68,63,-68,169c0,0,0,108,64,171c0,0,65,64,189,79l183,23c0,0,22,3,42,8c0,0,26,7,40,27c0,0,15,20,15,51v6c0,0,0,64,-49,101c0,0,-48,36,-135,36c0,0,-83,0,-130,-38c0,0,-46,-39,-56,-115H94c0,0,10,131,92,197c0,0,83,66,238,66c0,0,145,0,222,-63c0,0,76,-63,76,-184V137c0,0,0,-21,12,-33c0,0,12,-12,33,-12c0,0,6,0,18,1c0,0,11,2,25,5V1c0,0,-20,-7,-41,-11c0,0,-22,-5,-37,-5c0,0,-76,0,-110,41c0,0,-22,28,-32,79c0,0,-15,-19,-34,-36c0,0,-101,-89,-247,-89Z" 
id="f2_1w"
transform="scale(0.001,-0.001)" />

<path d="M99,0V799H226V681l30,39c0,0,87,102,219,102c0,0,132,0,203,-71c0,0,72,-72,72,-204V0H616V502c0,0,0,105,-41,151c0,0,-40,47,-132,47c0,0,-97,0,-154,-73c0,0,-56,-74,-56,-199V0Z" 
id="f2_29"
transform="scale(0.001,-0.001)" />

<path d="M418,95c0,0,98,0,158,73c0,0,59,73,59,193c0,0,0,170,-54,254c0,0,-54,85,-163,85c0,0,-113,0,-165,-72c0,0,-52,-71,-52,-227c0,0,0,-147,57,-227c0,0,56,-79,160,-79ZM394,-336c0,0,-136,0,-216,62c0,0,-79,63,-96,182H219c0,0,12,-64,57,-98c0,0,45,-35,116,-35c0,0,116,0,176,73c0,0,61,73,61,211V85l-1,-1C628,84,545,-20,412,-20c0,0,-161,0,-256,118c0,0,-94,120,-94,324c0,0,0,179,93,290c0,0,93,110,244,110c0,0,144,0,228,-124l10,-14V799H763V59c0,0,-1,-201,-91,-298c0,0,-91,-97,-278,-97Z" 
id="f2_22"
transform="scale(0.001,-0.001)" />

<path d="M132,0V687H22V799H132V935c0,0,0,88,52,133c0,0,52,45,157,45l59,-3V989l-53,2c0,0,-39,0,-60,-24c0,0,-21,-25,-21,-71V799H400V687H266V0Z" 
id="f2_21"
transform="scale(0.001,-0.001)" />

<path d="M103,0V1097H237V0Z" 
id="f2_27"
transform="scale(0.001,-0.001)" />

<path d="M248,0L21,799H169L322,163L478,799H627L788,158L950,799h133L857,0H713L548,624L392,0Z" 
id="f2_2i"
transform="scale(0.001,-0.001)" />

<path d="M406,93c0,0,97,0,156,73c0,0,59,74,59,195c0,0,0,163,-56,252c0,0,-55,88,-158,88c0,0,-111,0,-162,-72c0,0,-51,-73,-51,-229c0,0,0,-147,55,-227c0,0,55,-80,157,-80ZM621,-315V93l-7,-9C614,84,532,-20,400,-20c0,0,-159,0,-253,118c0,0,-93,119,-93,323c0,0,0,180,90,291c0,0,91,110,237,110c0,0,146,0,231,-124c0,0,10,-14,17,-29V799H755V-315Z" 
id="f2_2c"
transform="scale(0.001,-0.001)" />

<path d="M375,-20c0,0,-136,0,-203,66c0,0,-68,68,-68,204V799H238V284c0,0,0,-101,38,-146c0,0,39,-44,127,-44c0,0,97,0,153,75c0,0,57,75,57,203V799H747V0H620V122c0,0,-14,-22,-30,-41C590,81,504,-20,375,-20Z" 
id="f2_2g"
transform="scale(0.001,-0.001)" />

<path d="M393,-20c0,0,-169,0,-252,65c0,0,-83,67,-92,210H178c0,0,10,-85,61,-123c0,0,50,-38,154,-38c0,0,90,0,136,34c0,0,47,35,47,100c0,0,0,42,-31,64c0,0,-30,21,-123,43L283,368c0,0,-112,27,-160,75c0,0,-48,48,-48,135c0,0,0,112,80,178c0,0,81,66,218,66c0,0,140,0,222,-68c0,0,82,-67,88,-187H557c0,0,-6,67,-55,103c0,0,-48,37,-129,37c0,0,-84,0,-127,-29c0,0,-44,-29,-44,-85c0,0,0,-43,31,-65c0,0,30,-21,121,-43L493,452c0,0,117,-28,167,-78c0,0,49,-49,49,-138c0,0,0,-119,-86,-188c0,0,-85,-68,-230,-68Z" 
id="f2_2e"
transform="scale(0.001,-0.001)" />

<path d="M365,-315c0,0,-136,187,-199,359c0,0,-62,172,-62,359c0,0,0,186,62,358c0,0,63,172,199,360h92c0,0,-110,-192,-160,-365c0,0,-51,-172,-51,-353c0,0,0,-183,51,-355c0,0,50,-172,160,-363Z" 
id="f2_b"
transform="scale(0.001,-0.001)" />

<path d="M52,-315c0,0,109,192,160,363c0,0,50,173,50,354c0,0,0,183,-50,355c0,0,-51,173,-160,364h92c0,0,135,-188,198,-360c0,0,63,-172,63,-359c0,0,0,-187,-63,-359c0,0,-63,-171,-198,-358Z" 
id="f2_c"
transform="scale(0.001,-0.001)" />

<path d="M394,-20c0,0,-159,0,-253,113c0,0,-95,114,-95,307c0,0,0,193,98,308c0,0,98,114,264,114c0,0,144,0,230,-78c0,0,85,-79,91,-217H600c0,0,-8,86,-59,133c0,0,-52,47,-138,47c0,0,-101,0,-159,-82c0,0,-58,-82,-58,-225c0,0,0,-152,54,-229c0,0,53,-77,159,-77c0,0,79,0,132,50c0,0,52,51,69,143H729C729,287,709,137,623,58c0,0,-86,-78,-229,-78Z" 
id="f2_1y"
transform="scale(0.001,-0.001)" />

<path d="M424,92c0,0,114,0,170,107c0,0,57,108,56,323c0,0,1,216,-56,324c0,0,-56,107,-170,107c0,0,-112,0,-168,-107c0,0,-56,-108,-57,-324c0,0,1,-215,57,-323c0,0,56,-107,168,-107Zm0,-120c0,0,-176,0,-271,142c0,0,-96,143,-96,408c0,0,0,265,96,409c0,0,95,144,271,144c0,0,178,0,273,-144c0,0,96,-144,96,-409c0,0,0,-265,-96,-408c0,0,-95,-142,-273,-142Z" 
id="f2_j"
transform="scale(0.001,-0.001)" />

<path d="M431,94c0,0,95,0,170,76c0,0,76,77,101,198c0,0,35,167,-1,250c0,0,-37,84,-144,84c0,0,-128,0,-210,-117c0,0,-81,-117,-81,-302c0,0,0,-90,43,-139c0,0,44,-50,122,-50ZM400,-20c0,0,-126,0,-199,79c0,0,-73,80,-73,219c0,0,0,234,122,390c0,0,122,155,305,155c0,0,144,0,209,-127l8,-16l86,417H993L767,0H638l22,108L642,90C642,90,532,-20,400,-20Z" 
id="f3_1z"
transform="scale(0.001,-0.001)" />

<path d="M99,-328c0,0,-46,0,-76,13l25,123c0,0,29,-14,81,-14c0,0,47,0,76,31c0,0,28,31,106,162L185,800H339L415,141L769,800H918L456,0C456,0,329,-216,269,-272c0,0,-61,-56,-170,-56Z" 
id="f3_2k"
transform="scale(0.001,-0.001)" />

<path d="M17,0L389,412L201,800H376L500,518L742,800H904L554,410L750,0H580L448,303L187,0Z" 
id="f3_2j"
transform="scale(0.001,-0.001)" />

<path d="M355,0V355H0v72H355V784h72V427H782V355H427V0Z" 
id="f4_f"
transform="scale(0.001,-0.001)" />

<path d="M0,214v74H784V214ZM0,494v72H784V494Z" 
id="f4_x"
transform="scale(0.001,-0.001)" />

<path d="M39,0V0c0,0,0,170,84,277c0,0,85,108,317,236c0,0,113,62,154,115c0,0,41,52,41,134c0,0,0,86,-62,141c0,0,-61,54,-156,54c0,0,-101,0,-158,-68c0,0,-57,-68,-60,-194H67c0,0,-2,178,95,279c0,0,98,101,273,101c0,0,149,0,245,-89c0,0,94,-88,94,-228c0,0,0,-118,-60,-195c0,0,-61,-76,-229,-169C485,394,303,294,237,212c0,0,-28,-36,-46,-81H774V0Z" 
id="f2_l"
transform="scale(0.001,-0.001)" />

<path d="M424,-28c0,0,-180,0,-272,86c0,0,-92,87,-100,266H192c0,0,12,-126,66,-180c0,0,55,-54,170,-54c0,0,100,0,163,57c0,0,64,57,64,147c0,0,0,94,-61,149c0,0,-52,48,-135,54c0,0,-38,2,-72,2c0,0,-34,0,-45,-3V613c0,0,17,-3,51,-3c0,0,35,0,68,4c0,0,66,8,106,43c0,0,55,45,55,125c0,0,0,77,-58,125c0,0,-58,48,-148,48c0,0,-96,0,-147,-58c0,0,-51,-59,-56,-175H82c0,0,0,168,89,260c0,0,88,93,250,93c0,0,153,0,247,-77c0,0,94,-76,94,-202c0,0,0,-124,-95,-201c0,0,-18,-15,-39,-27c0,0,39,-17,69,-41c0,0,101,-79,101,-214c0,0,0,-151,-105,-246c0,0,-104,-95,-269,-95Z" 
id="f2_m"
transform="scale(0.001,-0.001)" />

<path d="M511,373V863L169,383l-7,-10ZM511,0V258H38V383l496,691H646V373H799V258H646V0Z" 
id="f2_n"
transform="scale(0.001,-0.001)" />

<path d="M62,-123V268c0,0,0,230,56,452c0,0,47,190,134,334c0,0,87,144,204,242c0,0,85,73,194,119l18,-16c0,0,-211,-145,-335,-339c0,0,-98,-156,-149,-374c0,0,-50,-218,-50,-403V-123Z" 
id="f4_4o"
transform="scale(0.001,-0.001)" />

<path d="M617,-123V283c0,0,0,236,-63,459c0,0,-63,223,-188,392c0,0,-108,146,-282,265l17,16c0,0,180,-76,320,-248c0,0,139,-172,204,-417c0,0,64,-245,64,-482V-123Z" 
id="f4_54"
transform="scale(0.001,-0.001)" />

<path d="M62,-123V1415h72V-123Z" 
id="f4_4p"
transform="scale(0.001,-0.001)" />

<path d="M617,-123V1415h72V-123Z" 
id="f4_55"
transform="scale(0.001,-0.001)" />

<path d="M650,-123c0,0,-180,75,-319,246c0,0,-140,172,-205,418c0,0,-64,245,-64,481v393h72V1007c0,0,0,-236,63,-459c0,0,63,-223,189,-391c0,0,108,-145,282,-265l-18,-15Z" 
id="f4_4q"
transform="scale(0.001,-0.001)" />

<path d="M101,-123l-17,15c0,0,210,144,334,339c0,0,99,156,149,373c0,0,50,218,50,403v408h72V1022c0,0,0,-230,-56,-451c0,0,-48,-191,-134,-335C499,236,412,92,295,-5c0,0,-84,-73,-194,-118Z" 
id="f4_56"
transform="scale(0.001,-0.001)" />

<path d="M417,-28c0,0,-161,0,-259,79c0,0,-98,81,-109,223H189c0,0,11,-90,72,-139c0,0,61,-49,162,-49c0,0,96,0,158,68c0,0,61,68,61,175c0,0,0,112,-64,178c0,0,-64,66,-173,66c0,0,-59,0,-115,-28c0,0,-55,-29,-84,-73L93,480l77,573H727V922H271L225,629l4,3c0,0,89,60,188,60c0,0,169,0,269,-94c0,0,99,-93,99,-253c0,0,0,-165,-103,-269C682,76,579,-28,417,-28Z" 
id="f2_o"
transform="scale(0.001,-0.001)" />

<path d="M310,0L12,799H168L383,145L604,799H752L454,0Z" 
id="f2_2h"
transform="scale(0.001,-0.001)" />

<path d="M0,-123V1415H525v-72H72V-123Z" 
id="f4_4r"
transform="scale(0.001,-0.001)" />

<path d="M478,-123V1343H26v72H550V-123Z" 
id="f4_57"
transform="scale(0.001,-0.001)" />

<path d="M0,-123V1415H72V-123Z" 
id="f4_4s"
transform="scale(0.001,-0.001)" />

<path d="M0,-123V1415H72V-123Z" 
id="f4_58"
transform="scale(0.001,-0.001)" />

<path d="M0,-123V1415H72V-51H525v-72Z" 
id="f4_4t"
transform="scale(0.001,-0.001)" />

<path d="M26,-123v72H478V1415h72V-123Z" 
id="f4_59"
transform="scale(0.001,-0.001)" />

<path d="M102,0L329,1097H464L333,467L745,800H921L546,501L769,0H595L429,409L300,306L237,0Z" 
id="f3_26"
transform="scale(0.001,-0.001)" />

<path d="M571,-29c0,0,-231,0,-367,153C204,124,67,279,67,543c0,0,0,268,137,426c0,0,136,158,367,158c0,0,195,0,324,-105c0,0,128,-106,150,-287H816c0,0,-11,89,-76,142c0,0,-65,52,-166,52c0,0,-128,0,-200,-102c0,0,-73,-102,-73,-283c0,0,0,-176,72,-276c0,0,72,-100,201,-100c0,0,101,0,166,58c0,0,65,58,76,157h229c0,0,-21,-190,-149,-302C896,81,769,-29,571,-29Z" 
id="f5_12"
transform="scale(0.001,-0.001)" />

<path d="M109,0V1097H337V685H767v412H995V0H767V497H337V0Z" 
id="f5_17"
transform="scale(0.001,-0.001)" />

<path d="M695,412L549,853h-1L403,412ZM31,0L419,1097H684L1072,0H829L756,223H339L267,0Z" 
id="f5_10"
transform="scale(0.001,-0.001)" />

<path d="M537,581c0,0,96,0,144,42c0,0,48,43,48,129c0,0,0,78,-48,117c0,0,-48,39,-144,39H345V581ZM116,0V1097H575c0,0,188,0,285,-88c0,0,98,-87,98,-255c0,0,0,-178,-98,-270c0,0,-97,-92,-285,-92c0,0,-21,0,-53,0c-47,0,-119,-1,-177,-2V0Z" 
id="f5_1f"
transform="scale(0.001,-0.001)" />

<path d="M353,0V903H22v194H913V903H582V0Z" 
id="f5_1j"
transform="scale(0.001,-0.001)" />

<path d="M116,0V1097H923V903H345V670H881V481H345V195H948V0Z" 
id="f5_14"
transform="scale(0.001,-0.001)" />

<path d="M611,618c0,0,89,0,134,36c0,0,44,36,44,110c0,0,0,72,-42,108c0,0,-42,36,-127,36H345V618ZM116,0V1097H669c0,0,157,0,253,-84c0,0,96,-84,96,-221c0,0,0,-158,-107,-231c0,0,-28,-20,-64,-33c0,0,20,-8,37,-18c0,0,94,-56,97,-188l6,-180c0,0,1,-53,11,-76c0,0,9,-22,37,-36V1H782c0,0,-9,17,-16,74c0,0,-6,56,-7,121l-1,101c0,0,-2,74,-44,106c0,0,-42,31,-140,31H345V0Z" 
id="f5_1h"
transform="scale(0.001,-0.001)" />

<path d="M422,528c0,0,73,0,118,52c0,0,45,52,45,137c0,0,0,86,-47,143c0,0,-46,57,-116,57c0,0,-80,0,-121,-51c0,0,-42,-51,-42,-149c0,0,0,-85,45,-137c0,0,45,-52,118,-52ZM407,-27H385c0,0,-137,0,-224,78c0,0,-87,78,-93,205H280c0,0,-1,-50,30,-81c0,0,31,-30,82,-30h11c3,0,96,0,141,91c0,0,36,73,45,213c0,0,-89,-92,-212,-92c0,0,-145,0,-238,100c0,0,-93,99,-93,255c0,0,0,166,105,271c0,0,105,105,271,105c0,0,184,0,280,-137c0,0,96,-138,96,-403c0,0,0,-291,-106,-438c0,0,-99,-137,-285,-137Z" 
id="f5_s"
transform="scale(0.001,-0.001)" />

<path d="M538,189c0,0,140,0,210,94c0,0,69,95,69,283c0,0,0,171,-64,257c0,0,-65,85,-196,85H345V189ZM116,0V1097H585c0,0,226,0,344,-133c0,0,117,-133,117,-389c0,0,0,-282,-122,-428C924,147,802,0,567,0Z" 
id="f5_13"
transform="scale(0.001,-0.001)" />

<path d="M98,0V1097H327V0Z" 
id="f5_18"
transform="scale(0.001,-0.001)" />

<path d="M116,0V1097H897V903H345V653H826V464H345V0Z" 
id="f5_15"
transform="scale(0.001,-0.001)" />

<path d="M106,0V1097H346L786,327v770h214V0H772L320,790V0Z" 
id="f5_1d"
transform="scale(0.001,-0.001)" />

<path d="M116,0V1097H345V195H891V0Z" 
id="f5_1b"
transform="scale(0.001,-0.001)" />

<path d="M595,164c7,0,71,1,122,25L605,293L720,416L840,307c0,0,53,92,53,237c0,0,0,182,-79,286c0,0,-80,103,-220,103c0,0,-140,0,-219,-103c0,0,-79,-104,-79,-286c0,0,0,-179,79,-279c0,0,79,-101,219,-101h1ZM1009,-79L878,41c0,0,-118,-70,-284,-70c0,0,-242,0,-384,153C210,124,67,279,67,543c0,0,0,268,143,426c0,0,142,158,384,158c0,0,243,0,385,-158c0,0,143,-158,143,-426c0,0,0,-239,-116,-388L1125,44L1009,-79Z" 
id="f5_1g"
transform="scale(0.001,-0.001)" />

<path d="M553,-29c0,0,-226,0,-334,107c0,0,-109,109,-109,335v684H338V405c0,0,0,-118,54,-177c0,0,53,-59,161,-59c0,0,115,0,164,54c0,0,50,54,50,182v692H995V413c0,0,1,-235,-103,-339C892,74,788,-29,553,-29Z" 
id="f5_1k"
transform="scale(0.001,-0.001)" />

<path d="M594,164c0,0,140,0,220,101c0,0,79,100,79,279c0,0,0,183,-79,286c0,0,-80,103,-220,103c0,0,-139,0,-219,-103c0,0,-79,-103,-79,-286c0,0,0,-179,79,-279c0,0,79,-101,219,-101Zm0,-193c0,0,-242,0,-384,153C210,124,67,279,67,543c0,0,0,268,143,426c0,0,142,158,384,158c0,0,243,0,385,-158c0,0,143,-158,143,-426c0,0,0,-264,-143,-419C979,124,837,-29,594,-29Z" 
id="f5_1e"
transform="scale(0.001,-0.001)" />

<path d="M510,-29c0,0,-208,0,-325,95C185,66,68,162,59,339H280c0,0,4,-87,64,-134c0,0,59,-47,166,-47c0,0,109,0,171,36c0,0,61,35,61,98c0,0,0,62,-44,91c0,0,-43,30,-185,61c0,0,-261,58,-348,126c0,0,-88,67,-88,210c0,0,0,160,116,254c0,0,115,93,312,93c0,0,184,0,300,-97c0,0,115,-97,128,-261H710c0,0,-6,78,-68,124c0,0,-63,46,-163,46c0,0,-87,0,-137,-39c0,0,-49,-38,-49,-107c0,0,0,-49,52,-76c0,0,50,-27,215,-64c0,0,239,-54,320,-124c0,0,80,-69,80,-223c0,0,0,-155,-121,-246c0,0,-122,-89,-329,-89Z" 
id="f5_1i"
transform="scale(0.001,-0.001)" />

<path d="M435,0V856c0,0,-48,-47,-127,-93c0,0,-79,-46,-142,-69V824c0,0,113,52,197,128c0,0,85,75,120,146h86V0Z" 
id="f6_l"
transform="scale(0.001,-0.001)" />

<path d="M125,0V1051H268V115H799V0Z" 
id="f0_1c"
transform="scale(0.001,-0.001)" />

<path d="M106,0V620c0,0,0,85,-5,188H228c0,0,6,-138,6,-165h3c0,0,32,103,74,141c0,0,42,38,118,38c0,0,27,0,54,-7V692c0,0,-26,7,-71,7c0,0,-84,0,-128,-72c0,0,-44,-72,-44,-206V0Z" 
id="f0_2e"
transform="scale(0.001,-0.001)" />

<path d="M606,-14c0,0,-164,0,-284,65c0,0,-119,66,-182,189c0,0,-63,123,-63,291c0,0,0,255,137,396c0,0,137,140,386,140c0,0,174,0,283,-59c0,0,109,-59,168,-189L915,779c0,0,-44,90,-123,131c0,0,-79,41,-196,41c0,0,-182,0,-278,-110c0,0,-96,-110,-96,-310c0,0,0,-200,102,-315c0,0,102,-115,282,-115c0,0,103,0,193,31c0,0,89,31,144,85V407H629V526h445V164c0,0,-83,-85,-205,-132c0,0,-121,-46,-263,-46Z" 
id="f0_17"
transform="scale(0.001,-0.001)" />

<path d="M355,-14c0,0,-133,0,-194,65c0,0,-62,66,-62,219V808H234V296c0,0,0,-80,16,-124c0,0,16,-44,50,-64c0,0,34,-19,101,-19c0,0,97,0,153,66c0,0,55,67,55,185V808H744V172c0,0,0,-141,4,-172H621c0,0,0,4,-1,20c0,0,-1,17,-2,38c0,0,-1,21,-3,80h-2C613,138,567,55,506,20c0,0,-61,-34,-151,-34Z" 
id="f0_2h"
transform="scale(0.001,-0.001)" />

<path d="M395,89c0,0,115,0,166,79c0,0,51,79,51,246c0,0,0,160,-51,235c0,0,-51,75,-164,75c0,0,-102,0,-147,-75c0,0,-45,-75,-45,-244c0,0,0,-170,45,-243c0,0,45,-73,145,-73ZM361,-14c0,0,-153,0,-225,102c0,0,-72,103,-72,312c0,0,0,422,297,422c0,0,92,0,153,-33c0,0,61,-34,98,-107h2l-2,90v335H747V166c0,0,0,-126,4,-166H623c0,0,-2,12,-5,55c0,0,-3,44,-3,75h-3c0,0,-37,-78,-98,-111c0,0,-62,-33,-153,-33Z" 
id="f0_20"
transform="scale(0.001,-0.001)" />

<path d="M140,0V163H285V0Z" 
id="f0_i"
transform="scale(0.001,-0.001)" />


</defs>
</svg>