<?xml version="1.0" encoding="UTF-8" standalone="no"?>
<!DOCTYPE svg PUBLIC "-//W3C//DTD SVG 1.1//EN"
"http://www.w3.org/Graphics/SVG/1.1/DTD/svg11.dtd">
<svg viewBox="0 0 734 1106" version="1.1" xmlns="http://www.w3.org/2000/svg" xmlns:xlink="http://www.w3.org/1999/xlink">
<defs>
<style type="text/css"><![CDATA[
.g0_87{
fill: none;
stroke: #000000;
stroke-width: 0.7646222;
stroke-linecap: round;
stroke-linejoin: miter;
}
.g1_87{
fill: none;
stroke: #000000;
stroke-width: 0.7638889;
stroke-linecap: round;
stroke-linejoin: miter;
}
.g2_87{
fill: none;
stroke: #000000;
stroke-width: 0.7656;
stroke-linecap: round;
stroke-linejoin: miter;
}
.g3_87{
fill: none;
stroke: #000000;
stroke-width: 0.7660889;
stroke-linecap: round;
stroke-linejoin: miter;
}
.g4_87{
fill: none;
stroke: #000000;
stroke-width: 0.7619333;
stroke-linecap: round;
stroke-linejoin: miter;
}
.g5_87{
fill: none;
stroke: #000000;
stroke-width: 0.3834111;
stroke-linecap: round;
stroke-linejoin: miter;
}
.g6_87{
fill: none;
stroke: #000000;
stroke-width: 0.7597333;
stroke-linecap: round;
stroke-linejoin: miter;
}
.g7_87{
fill: none;
stroke: #000000;
stroke-width: 0.7668222;
stroke-linecap: round;
stroke-linejoin: miter;
}
.g8_87{
fill: none;
stroke: #000000;
stroke-width: 0.7653555;
stroke-linecap: round;
stroke-linejoin: miter;
}
.g9_87{
fill: none;
stroke: #000000;
stroke-width: 0.15277778;
stroke-linecap: round;
stroke-linejoin: miter;
}
.g10_87{
}
]]></style>
</defs>
<g fill="#D4D4D4" fill-opacity="0.56" >
<use xlink:href="#f0_1f" transform="matrix(50.9,-50.9,50.9,50.9,122.6,924.1)" />
<use xlink:href="#f0_2a" transform="matrix(50.9,-50.9,50.9,50.9,183.2,863.6)" />
<use xlink:href="#f0_28" transform="matrix(50.9,-50.9,50.9,50.9,226.4,820.3)" />
<use xlink:href="#f0_25" transform="matrix(50.9,-50.9,50.9,50.9,243.7,803.1)" />
<use xlink:href="#f0_2a" transform="matrix(50.9,-50.9,50.9,50.9,260.9,785.8)" />
<use xlink:href="#f0_21" transform="matrix(50.9,-50.9,50.9,50.9,304.2,742.5)" />
<use xlink:href="#f0_2k" transform="matrix(50.9,-50.9,50.9,50.9,347.4,699.3)" />
<use xlink:href="#f0_1x" transform="matrix(50.9,-50.9,50.9,50.9,386.3,660.4)" />
<use xlink:href="#f0_29" transform="matrix(50.9,-50.9,50.9,50.9,429.6,617.2)" />
<use xlink:href="#f0_2c" transform="matrix(50.9,-50.9,50.9,50.9,494.4,552.4)" />
<use xlink:href="#f0_2b" transform="matrix(50.9,-50.9,50.9,50.9,537.6,509.1)" />
<use xlink:href="#f0_25" transform="matrix(50.9,-50.9,50.9,50.9,580.8,465.9)" />
<use xlink:href="#f0_2a" transform="matrix(50.9,-50.9,50.9,50.9,598.1,448.6)" />
<use xlink:href="#f0_2g" transform="matrix(50.9,-50.9,50.9,50.9,641.4,405.4)" />
</g>
<g fill="#000000" >
<use xlink:href="#f1_b" transform="matrix(10.4,0,0,10.4,75.9,120)" />
<use xlink:href="#f1_2h" transform="matrix(10.4,0,0,10.4,81.2,120)" />
<use xlink:href="#f1_24" transform="matrix(10.4,0,0,10.4,89.4,120)" />
<use xlink:href="#f1_c" transform="matrix(10.4,0,0,10.4,93,120)" />
</g>
<path d="M193.9,115.7h10.3m75.9,0h10.3" class="g0_87" />
<g fill="#000000" >
<use xlink:href="#f1_n" transform="matrix(7.9,0,0,7.9,234.4,110.4)" />
<use xlink:href="#f1_p" transform="matrix(7.9,0,0,7.9,320.6,110.4)" />
<use xlink:href="#f1_k" transform="matrix(10.5,0,0,10.5,195.3,109.6)" />
<use xlink:href="#f1_k" transform="matrix(10.5,0,0,10.5,281.5,109.6)" />
<use xlink:href="#f1_27" transform="matrix(10.5,0,0,10.5,118.6,120)" />
<use xlink:href="#f1_2a" transform="matrix(10.5,0,0,10.5,122.2,120)" />
<use xlink:href="#f1_22" transform="matrix(10.5,0,0,10.5,131.1,120)" />
<use xlink:href="#f1_1y" transform="matrix(10.5,0,0,10.5,208.9,120)" />
<use xlink:href="#f1_2a" transform="matrix(10.5,0,0,10.5,216.9,120)" />
<use xlink:href="#f1_2e" transform="matrix(10.5,0,0,10.5,225.8,120)" />
<use xlink:href="#f1_1y" transform="matrix(10.5,0,0,10.5,295,120)" />
<use xlink:href="#f1_2a" transform="matrix(10.5,0,0,10.5,303,120)" />
<use xlink:href="#f1_2e" transform="matrix(10.5,0,0,10.5,311.9,120)" />
<use xlink:href="#f1_n" transform="matrix(10.5,0,0,10.5,194.7,135.6)" />
<use xlink:href="#f1_p" transform="matrix(10.5,0,0,10.5,280.9,135.6)" />
<use xlink:href="#f2_2j" transform="matrix(7.9,0,0,7.9,384.5,110.4)" />
<use xlink:href="#f2_2j" transform="matrix(7.9,0,0,7.9,425.5,110.4)" />
<use xlink:href="#f2_2k" transform="matrix(10.5,0,0,10.5,144.3,120)" />
<use xlink:href="#f2_2j" transform="matrix(10.5,0,0,10.5,247.2,120)" />
<use xlink:href="#f2_2j" transform="matrix(10.5,0,0,10.5,333.4,120)" />
<use xlink:href="#f2_2j" transform="matrix(10.5,0,0,10.5,366.1,120)" />
<use xlink:href="#f2_20" transform="matrix(10.5,0,0,10.5,374.2,120)" />
<use xlink:href="#f2_20" transform="matrix(10.5,0,0,10.5,415.1,120)" />
<use xlink:href="#f2_1y" transform="matrix(10.5,0,0,10.5,456.5,120)" />
<use xlink:href="#f3_x" transform="matrix(10.5,0,0,10.5,162.8,120)" />
<use xlink:href="#f3_h" transform="matrix(10.5,0,0,10.5,180.2,120)" />
<use xlink:href="#f3_f" transform="matrix(10.5,0,0,10.5,263.9,120)" />
<use xlink:href="#f3_f" transform="matrix(10.5,0,0,10.5,350.1,120)" />
<use xlink:href="#f3_h" transform="matrix(10.5,0,0,10.5,400.6,120)" />
<use xlink:href="#f3_f" transform="matrix(10.5,0,0,10.5,441.5,120)" />
</g>
<path d="M340.8,163.1h18m13.4,0h58.5" class="g1_87" />
<g fill="#000000" >
<use xlink:href="#f3_c" transform="matrix(10.4,0,0,14.3,532.5,168.5)" />
<use xlink:href="#f3_d" transform="matrix(10.4,0,0,14.3,578.5,168.5)" />
<use xlink:href="#f1_m" transform="matrix(7.9,0,0,7.9,398.2,147.4)" />
<use xlink:href="#f1_k" transform="matrix(10.5,0,0,10.5,345.8,157)" />
<use xlink:href="#f1_1y" transform="matrix(10.5,0,0,10.5,372.7,157)" />
<use xlink:href="#f1_2a" transform="matrix(10.5,0,0,10.5,380.7,157)" />
<use xlink:href="#f1_2e" transform="matrix(10.5,0,0,10.5,389.7,157)" />
<use xlink:href="#f1_l" transform="matrix(10.5,0,0,10.5,410.7,157)" />
<use xlink:href="#f1_99" transform="matrix(10.5,0,0,10.5,438,167.4)" />
<use xlink:href="#f1_1y" transform="matrix(10.5,0,0,10.5,454,167.4)" />
<use xlink:href="#f1_2a" transform="matrix(10.5,0,0,10.5,462.1,167.4)" />
<use xlink:href="#f1_2e" transform="matrix(10.5,0,0,10.5,471,167.4)" />
<use xlink:href="#f1_l" transform="matrix(10.5,0,0,10.5,483.2,167.4)" />
<use xlink:href="#f1_k" transform="matrix(10.5,0,0,10.5,570.6,167.4)" />
<use xlink:href="#f1_k" transform="matrix(10.5,0,0,10.5,340,183)" />
<use xlink:href="#f1_p" transform="matrix(10.5,0,0,10.5,348.9,183)" />
<use xlink:href="#f1_m" transform="matrix(10.5,0,0,10.5,396.8,183)" />
<use xlink:href="#f2_2j" transform="matrix(7.9,0,0,7.9,597,157.8)" />
<use xlink:href="#f2_2j" transform="matrix(10.5,0,0,10.5,419.8,157)" />
<use xlink:href="#f2_2j" transform="matrix(10.5,0,0,10.5,492.3,167.4)" />
<use xlink:href="#f2_2j" transform="matrix(10.5,0,0,10.5,539.8,167.4)" />
<use xlink:href="#f2_20" transform="matrix(10.5,0,0,10.5,586.7,167.4)" />
<use xlink:href="#f2_1y" transform="matrix(10.5,0,0,10.5,628.1,167.4)" />
<use xlink:href="#f3_4r" transform="matrix(10.5,0,0,10.5,363.7,151.7)" />
<use xlink:href="#f3_57" transform="matrix(10.5,0,0,10.5,504.3,151.7)" />
<use xlink:href="#f3_4s" transform="matrix(10.5,0,0,10.5,363.7,167.2)" />
<use xlink:href="#f3_58" transform="matrix(10.5,0,0,10.5,504.3,167.2)" />
<use xlink:href="#f3_x" transform="matrix(10.5,0,0,10.5,322.8,167.4)" />
<use xlink:href="#f3_f" transform="matrix(10.5,0,0,10.5,517.3,167.4)" />
<use xlink:href="#f3_h" transform="matrix(10.5,0,0,10.5,556.5,167.4)" />
<use xlink:href="#f3_f" transform="matrix(10.5,0,0,10.5,613.1,167.4)" />
<use xlink:href="#f3_4s" transform="matrix(10.5,0,0,10.5,363.7,182.4)" />
<use xlink:href="#f3_58" transform="matrix(10.5,0,0,10.5,504.3,182.4)" />
<use xlink:href="#f3_4t" transform="matrix(10.5,0,0,10.5,363.7,188.1)" />
<use xlink:href="#f3_59" transform="matrix(10.5,0,0,10.5,504.3,188.1)" />
<use xlink:href="#f1_b" transform="matrix(10.4,0,0,10.4,72.4,238.1)" />
<use xlink:href="#f1_2h" transform="matrix(10.4,0,0,10.4,77.7,238.1)" />
<use xlink:href="#f1_24" transform="matrix(10.4,0,0,10.4,85.7,238.1)" />
<use xlink:href="#f1_24" transform="matrix(10.4,0,0,10.4,89.2,238.1)" />
<use xlink:href="#f1_c" transform="matrix(10.4,0,0,10.4,92.8,238.1)" />
</g>
<path d="M144.8,221.7V240m42.1,-18.3V240m24,-8.9h49.8" class="g2_87" />
<g fill="#000000" >
<use xlink:href="#f3_h" transform="matrix(10.5,0,0,10.6,194.9,235.4)" />
<use xlink:href="#f3_x" transform="matrix(10.5,0,0,10.6,269.6,235.4)" />
<use xlink:href="#f1_1y" transform="matrix(10.5,0,0,10.6,211.6,225)" />
<use xlink:href="#f1_2a" transform="matrix(10.5,0,0,10.6,219.7,225)" />
<use xlink:href="#f1_2e" transform="matrix(10.5,0,0,10.6,228.6,225)" />
<use xlink:href="#f1_l" transform="matrix(10.5,0,0,10.6,240.8,225)" />
<use xlink:href="#f1_27" transform="matrix(10.5,0,0,10.6,118.7,235.4)" />
<use xlink:href="#f1_2a" transform="matrix(10.5,0,0,10.6,122.3,235.4)" />
<use xlink:href="#f1_22" transform="matrix(10.5,0,0,10.6,131.2,235.4)" />
<use xlink:href="#f1_2f" transform="matrix(10.5,0,0,10.6,148,235.4)" />
<use xlink:href="#f1_1w" transform="matrix(10.5,0,0,10.6,152.5,235.4)" />
<use xlink:href="#f1_29" transform="matrix(10.5,0,0,10.6,161.4,235.4)" />
<use xlink:href="#f2_2j" transform="matrix(10.5,0,0,10.6,250.2,225)" />
<use xlink:href="#f2_2k" transform="matrix(10.5,0,0,10.6,174.3,235.4)" />
<use xlink:href="#f2_1y" transform="matrix(10.5,0,0,10.6,286.1,235.4)" />
<use xlink:href="#f2_2k" transform="matrix(10.5,0,0,10.6,230.9,251.1)" />
<use xlink:href="#f4_r" transform="matrix(10.4,0,0,10.4,70.6,308.7)" />
<use xlink:href="#f4_h" transform="matrix(10.4,0,0,10.4,79.4,308.7)" />
<use xlink:href="#f1_b" transform="matrix(10.4,0,0,10.4,84,308.7)" />
<use xlink:href="#f1_24" transform="matrix(10.4,0,0,10.4,89.3,308.7)" />
<use xlink:href="#f1_c" transform="matrix(10.4,0,0,10.4,92.8,308.7)" />
</g>
<path d="M119.7,305.1h29.8m48.7,-9.4V314m15.9,-18.3V314" class="g3_87" />
<g fill="#000000" >
<use xlink:href="#f3_h" transform="matrix(10.5,0,0,10.6,120.7,298.9)" />
<use xlink:href="#f3_f" transform="matrix(10.5,0,0,10.6,156.7,309.4)" />
<use xlink:href="#f3_x" transform="matrix(10.5,0,0,10.6,223.6,309.4)" />
<use xlink:href="#f1_m" transform="matrix(7.9,0,0,7.9,140.4,289.2)" />
<use xlink:href="#f1_m" transform="matrix(7.9,0,0,7.9,140.3,316.8)" />
<use xlink:href="#f1_27" transform="matrix(10.5,0,0,10.6,171.9,309.4)" />
<use xlink:href="#f1_2a" transform="matrix(10.5,0,0,10.6,175.5,309.4)" />
<use xlink:href="#f1_22" transform="matrix(10.5,0,0,10.6,184.4,309.4)" />
<use xlink:href="#f1_m" transform="matrix(10.5,0,0,10.6,120.6,326.5)" />
<use xlink:href="#f2_2j" transform="matrix(10.5,0,0,10.6,130.2,298.9)" />
<use xlink:href="#f2_2k" transform="matrix(10.5,0,0,10.6,201.3,309.4)" />
<use xlink:href="#f2_1y" transform="matrix(10.5,0,0,10.6,240.1,309.4)" />
<use xlink:href="#f2_2k" transform="matrix(10.5,0,0,10.6,129.8,326.5)" />
<use xlink:href="#f1_b" transform="matrix(10.4,0,0,10.4,373.8,308.7)" />
<use xlink:href="#f1_24" transform="matrix(10.4,0,0,10.4,379.1,308.7)" />
<use xlink:href="#f1_24" transform="matrix(10.4,0,0,10.4,382.7,308.7)" />
<use xlink:href="#f1_c" transform="matrix(10.4,0,0,10.4,386.2,308.7)" />
</g>
<path d="M461.7,303.9h11.7m60.5,-9.3v14.6m15.6,-14.6v14.6" class="g4_87" />
<g fill="#000000" >
<use xlink:href="#f3_h" transform="matrix(7.9,0,0,7.8,435,298.6)" />
<use xlink:href="#f3_4o" transform="matrix(10.4,0,0,10.4,451.9,298.9)" />
<use xlink:href="#f3_54" transform="matrix(10.4,0,0,10.4,475.1,298.9)" />
<use xlink:href="#f3_x" transform="matrix(10.4,0,0,10.4,491.2,308.1)" />
<use xlink:href="#f3_f" transform="matrix(10.4,0,0,10.4,557.4,308.1)" />
<use xlink:href="#f3_4p" transform="matrix(10.4,0,0,10.4,451.9,313.4)" />
<use xlink:href="#f3_55" transform="matrix(10.4,0,0,10.4,475.1,313.4)" />
<use xlink:href="#f3_4q" transform="matrix(10.4,0,0,10.4,451.9,319.9)" />
<use xlink:href="#f3_56" transform="matrix(10.4,0,0,10.4,475.1,319.9)" />
<use xlink:href="#f1_k" transform="matrix(7.9,0,0,7.8,441.6,298.6)" />
<use xlink:href="#f1_2f" transform="matrix(10.4,0,0,10.4,412.6,308.1)" />
<use xlink:href="#f1_1w" transform="matrix(10.4,0,0,10.4,417,308.1)" />
<use xlink:href="#f1_29" transform="matrix(10.4,0,0,10.4,426,308.1)" />
<use xlink:href="#f1_27" transform="matrix(10.4,0,0,10.4,507.7,308.1)" />
<use xlink:href="#f1_2a" transform="matrix(10.4,0,0,10.4,511.2,308.1)" />
<use xlink:href="#f1_22" transform="matrix(10.4,0,0,10.4,520.2,308.1)" />
<use xlink:href="#f2_2k" transform="matrix(10.4,0,0,10.4,462.5,297.8)" />
<use xlink:href="#f2_2j" transform="matrix(10.4,0,0,10.4,537,308.1)" />
<use xlink:href="#f2_1y" transform="matrix(10.4,0,0,10.4,572.2,308.1)" />
<use xlink:href="#f2_2j" transform="matrix(10.4,0,0,10.4,462.7,323.5)" />
<use xlink:href="#f1_b" transform="matrix(10.4,0,0,10.4,77,368.6)" />
<use xlink:href="#f1_24" transform="matrix(10.4,0,0,10.4,82.3,368.6)" />
<use xlink:href="#f1_24" transform="matrix(10.4,0,0,10.4,85.8,368.6)" />
<use xlink:href="#f1_24" transform="matrix(10.4,0,0,10.4,89.4,368.6)" />
<use xlink:href="#f1_c" transform="matrix(10.4,0,0,10.4,92.9,368.6)" />
<use xlink:href="#f2_2j" transform="matrix(10.4,0,0,10.4,116.6,368.6)" />
<use xlink:href="#f1_l" transform="matrix(7.4,0,0,7.4,124.7,363.3)" />
<use xlink:href="#f1_e" transform="matrix(10.4,0,0,10.4,137.5,368.6)" />
<use xlink:href="#f2_2k" transform="matrix(10.4,0,0,10.4,153.6,368.6)" />
<use xlink:href="#f1_l" transform="matrix(7.4,0,0,7.4,161.7,363.3)" />
<use xlink:href="#f1_w" transform="matrix(10.4,0,0,10.4,174.7,368.6)" />
<use xlink:href="#f1_l" transform="matrix(10.4,0,0,10.4,190.8,368.6)" />
<use xlink:href="#f2_2j" transform="matrix(10.4,0,0,10.4,199.6,368.6)" />
<use xlink:href="#f1_b" transform="matrix(10.4,0,0,10.4,75.9,419.8)" />
<use xlink:href="#f1_24" transform="matrix(10.4,0,0,10.4,81.2,419.8)" />
<use xlink:href="#f1_2h" transform="matrix(10.4,0,0,10.4,84.7,419.8)" />
<use xlink:href="#f1_c" transform="matrix(10.4,0,0,10.4,92.7,419.8)" />
</g>
<path d="M209.2,399.9l-3.8,11.9" class="g5_87" />
<g fill="#000000" >
<use xlink:href="#f3_c" transform="matrix(7.8,0,0,10.4,192.6,409.7)" />
<use xlink:href="#f3_d" transform="matrix(7.8,0,0,10.4,218.7,409.7)" />
<use xlink:href="#f3_x" transform="matrix(10.6,0,0,10.5,137.9,419.3)" />
<use xlink:href="#f1_1y" transform="matrix(7.9,0,0,7.9,172.7,409.2)" />
<use xlink:href="#f1_2a" transform="matrix(7.9,0,0,7.9,178.7,409.2)" />
<use xlink:href="#f1_2e" transform="matrix(7.9,0,0,7.9,185.4,409.2)" />
<use xlink:href="#f2_2j" transform="matrix(7.9,0,0,7.9,198.1,409.2)" />
<use xlink:href="#f2_2k" transform="matrix(7.9,0,0,7.9,210.2,409.2)" />
<use xlink:href="#f2_2k" transform="matrix(10.6,0,0,10.5,119.4,419.3)" />
<use xlink:href="#f2_1y" transform="matrix(10.6,0,0,10.5,154.4,419.3)" />
<use xlink:href="#f2_20" transform="matrix(10.6,0,0,10.5,162.4,419.3)" />
<use xlink:href="#f1_1q" transform="matrix(10.4,0,0,10.4,254.1,419.8)" />
<use xlink:href="#f4_17" transform="matrix(10.4,0,0,10.4,258.5,419.8)" />
<use xlink:href="#f4_24" transform="matrix(10.4,0,0,10.4,270,419.8)" />
<use xlink:href="#f4_29" transform="matrix(10.4,0,0,10.4,274.4,419.8)" />
<use xlink:href="#f4_2f" transform="matrix(10.4,0,0,10.4,284.2,419.8)" />
<use xlink:href="#f4_t" transform="matrix(10.4,0,0,10.4,296.1,419.8)" />
</g>
<path d="M338.8,416.2h11.4" class="g6_87" />
<g fill="#000000" >
<use xlink:href="#f1_k" transform="matrix(10.4,0,0,10.5,340.9,410)" />
<use xlink:href="#f1_1f" transform="matrix(10.4,0,0,10.5,309.7,420.5)" />
<use xlink:href="#f1_2g" transform="matrix(10.4,0,0,10.5,320.4,420.5)" />
<use xlink:href="#f1_2f" transform="matrix(10.4,0,0,10.5,329.2,420.5)" />
<use xlink:href="#f2_2h" transform="matrix(10.4,0,0,10.5,374.7,420.5)" />
<use xlink:href="#f2_2j" transform="matrix(10.4,0,0,10.5,339.8,431.2)" />
<use xlink:href="#f3_x" transform="matrix(10.4,0,0,10.5,359.1,420.5)" />
<use xlink:href="#f1_1s" transform="matrix(10.4,0,0,10.4,387.2,419.8)" />
<use xlink:href="#f1_b" transform="matrix(10.4,0,0,10.4,79.6,486.5)" />
<use xlink:href="#f1_2h" transform="matrix(10.4,0,0,10.4,84.9,486.5)" />
<use xlink:href="#f1_c" transform="matrix(10.4,0,0,10.4,93.1,486.5)" />
</g>
<path d="M152.7,483.9h11.8" class="g7_87" />
<g fill="#000000" >
<use xlink:href="#f1_2e" transform="matrix(10.5,0,0,10.4,119.1,486.3)" />
<use xlink:href="#f1_24" transform="matrix(10.5,0,0,10.4,127.1,486.3)" />
<use xlink:href="#f1_29" transform="matrix(10.5,0,0,10.4,130.7,486.3)" />
<use xlink:href="#f2_2k" transform="matrix(10.5,0,0,10.4,153.7,477.8)" />
<use xlink:href="#f2_1y" transform="matrix(10.5,0,0,10.4,199,486.3)" />
<use xlink:href="#f2_2j" transform="matrix(10.5,0,0,10.4,207,486.3)" />
<use xlink:href="#f2_2j" transform="matrix(10.5,0,0,10.4,153.8,498.8)" />
<use xlink:href="#f3_4o" transform="matrix(10.5,0,0,10.4,142.9,478.9)" />
<use xlink:href="#f3_54" transform="matrix(10.5,0,0,10.4,166.3,478.9)" />
<use xlink:href="#f3_x" transform="matrix(10.5,0,0,10.4,182.5,486.3)" />
<use xlink:href="#f3_4q" transform="matrix(10.5,0,0,10.4,142.9,495.2)" />
<use xlink:href="#f3_56" transform="matrix(10.5,0,0,10.4,166.3,495.2)" />
<use xlink:href="#f1_b" transform="matrix(10.4,0,0,10.4,369.2,486.5)" />
<use xlink:href="#f1_2h" transform="matrix(10.4,0,0,10.4,374.5,486.5)" />
<use xlink:href="#f1_24" transform="matrix(10.4,0,0,10.4,382.8,486.5)" />
<use xlink:href="#f1_c" transform="matrix(10.4,0,0,10.4,386.3,486.5)" />
<use xlink:href="#f3_c" transform="matrix(10.4,0,0,18.6,424.8,486)" />
<use xlink:href="#f3_d" transform="matrix(10.4,0,0,18.6,493.4,486.2)" />
<use xlink:href="#f3_h" transform="matrix(10.4,0,0,10.4,457.5,486.8)" />
<use xlink:href="#f3_x" transform="matrix(10.4,0,0,10.4,507,486.8)" />
<use xlink:href="#f1_l" transform="matrix(7.8,0,0,7.8,442.2,477.3)" />
<use xlink:href="#f1_l" transform="matrix(7.8,0,0,7.8,483.5,477.3)" />
<use xlink:href="#f2_1y" transform="matrix(10.4,0,0,10.4,411.6,486.8)" />
<use xlink:href="#f2_2j" transform="matrix(10.4,0,0,10.4,432,486.8)" />
<use xlink:href="#f2_2k" transform="matrix(10.4,0,0,10.4,473,486.8)" />
<use xlink:href="#f2_2k" transform="matrix(10.4,0,0,10.4,524.2,486.8)" />
<use xlink:href="#f1_b" transform="matrix(10.4,0,0,10.4,72.4,564.4)" />
<use xlink:href="#f1_2h" transform="matrix(10.4,0,0,10.4,77.7,564.4)" />
<use xlink:href="#f1_24" transform="matrix(10.4,0,0,10.4,85.7,564.4)" />
<use xlink:href="#f1_24" transform="matrix(10.4,0,0,10.4,89.2,564.4)" />
<use xlink:href="#f1_c" transform="matrix(10.4,0,0,10.4,92.8,564.4)" />
</g>
<path d="M226.2,558.7h20.3" class="g1_87" />
<g fill="#000000" >
<use xlink:href="#f3_h" transform="matrix(7.9,0,0,7.9,142.2,553.4)" />
<use xlink:href="#f3_h" transform="matrix(10.5,0,0,10.6,119.4,563)" />
<use xlink:href="#f3_x" transform="matrix(10.5,0,0,10.6,167.4,563)" />
<use xlink:href="#f3_f" transform="matrix(10.5,0,0,10.6,210.1,563)" />
<use xlink:href="#f3_f" transform="matrix(10.5,0,0,10.6,253.9,563)" />
<use xlink:href="#f1_m" transform="matrix(7.9,0,0,7.9,237.5,542.9)" />
<use xlink:href="#f1_m" transform="matrix(10.5,0,0,10.6,232.1,578.6)" />
<use xlink:href="#f2_2k" transform="matrix(7.9,0,0,7.9,149.6,553.4)" />
<use xlink:href="#f2_2j" transform="matrix(7.9,0,0,7.9,194.3,553.4)" />
<use xlink:href="#f2_2j" transform="matrix(10.5,0,0,10.6,227.3,552.5)" />
<use xlink:href="#f2_20" transform="matrix(10.5,0,0,10.6,131.8,563)" />
<use xlink:href="#f2_20" transform="matrix(10.5,0,0,10.6,183.9,563)" />
<use xlink:href="#f2_1y" transform="matrix(10.5,0,0,10.6,268.9,563)" />
<use xlink:href="#f1_b" transform="matrix(10.4,0,0,10.4,362.3,564.4)" />
<use xlink:href="#f1_2h" transform="matrix(10.4,0,0,10.4,367.6,564.4)" />
<use xlink:href="#f1_24" transform="matrix(10.4,0,0,10.4,375.5,564.4)" />
<use xlink:href="#f1_24" transform="matrix(10.4,0,0,10.4,379.1,564.4)" />
<use xlink:href="#f1_24" transform="matrix(10.4,0,0,10.4,382.6,564.4)" />
<use xlink:href="#f1_c" transform="matrix(10.4,0,0,10.4,386.2,564.4)" />
<use xlink:href="#f3_h" transform="matrix(8,0,0,7.9,432.7,557.3)" />
<use xlink:href="#f3_h" transform="matrix(8,0,0,7.9,506,557.3)" />
<use xlink:href="#f3_x" transform="matrix(10.6,0,0,10.6,468.5,567)" />
<use xlink:href="#f3_f" transform="matrix(10.6,0,0,10.6,539.8,567)" />
<use xlink:href="#f1_k" transform="matrix(8,0,0,7.9,439.3,557.3)" />
<use xlink:href="#f1_k" transform="matrix(8,0,0,7.9,512.6,557.3)" />
<use xlink:href="#f1_2e" transform="matrix(10.6,0,0,10.6,412.4,567)" />
<use xlink:href="#f1_24" transform="matrix(10.6,0,0,10.6,420.6,567)" />
<use xlink:href="#f1_29" transform="matrix(10.6,0,0,10.6,424.2,567)" />
<use xlink:href="#f1_2e" transform="matrix(10.6,0,0,10.6,486,567)" />
<use xlink:href="#f1_24" transform="matrix(10.6,0,0,10.6,494.1,567)" />
<use xlink:href="#f1_29" transform="matrix(10.6,0,0,10.6,497.7,567)" />
<use xlink:href="#f2_2k" transform="matrix(10.6,0,0,10.6,450.2,567)" />
<use xlink:href="#f2_2j" transform="matrix(10.6,0,0,10.6,523.5,567)" />
<use xlink:href="#f2_1y" transform="matrix(10.6,0,0,10.6,554.9,567)" />
<use xlink:href="#f1_b" transform="matrix(10.4,0,0,10.4,75.9,624.7)" />
<use xlink:href="#f1_24" transform="matrix(10.4,0,0,10.4,81.2,624.7)" />
<use xlink:href="#f1_2j" transform="matrix(10.4,0,0,10.4,84.7,624.7)" />
<use xlink:href="#f1_c" transform="matrix(10.4,0,0,10.4,92.7,624.7)" />
<use xlink:href="#f3_c" transform="matrix(10.4,0,0,18.7,157.5,624.2)" />
<use xlink:href="#f3_d" transform="matrix(10.4,0,0,18.7,194.1,624.3)" />
<use xlink:href="#f1_m" transform="matrix(7.9,0,0,7.8,175,615.5)" />
<use xlink:href="#f1_27" transform="matrix(10.4,0,0,10.4,132.7,625)" />
<use xlink:href="#f1_2a" transform="matrix(10.4,0,0,10.4,136.3,625)" />
<use xlink:href="#f1_22" transform="matrix(10.4,0,0,10.4,145.3,625)" />
<use xlink:href="#f3_f" transform="matrix(10.5,0,0,10.4,205.8,625)" />
<use xlink:href="#f3_x" transform="matrix(10.5,0,0,10.4,240.2,625)" />
<use xlink:href="#f2_2j" transform="matrix(10.4,0,0,10.4,119.3,625)" />
<use xlink:href="#f2_2j" transform="matrix(10.4,0,0,10.4,164.7,625)" />
<use xlink:href="#f2_2k" transform="matrix(10.4,0,0,10.4,182.5,625)" />
<use xlink:href="#f2_2k" transform="matrix(10.4,0,0,10.4,221.7,625)" />
<use xlink:href="#f2_1y" transform="matrix(10.4,0,0,10.4,256.6,625)" />
<use xlink:href="#f2_2j" transform="matrix(10.4,0,0,10.4,264.6,625)" />
<use xlink:href="#f4_s" transform="matrix(10.4,0,0,10.4,70.6,680.3)" />
<use xlink:href="#f4_h" transform="matrix(10.4,0,0,10.4,79.4,680.3)" />
<use xlink:href="#f1_b" transform="matrix(10.4,0,0,10.4,84,680.3)" />
<use xlink:href="#f1_24" transform="matrix(10.4,0,0,10.4,89.3,680.3)" />
<use xlink:href="#f1_c" transform="matrix(10.4,0,0,10.4,92.8,680.3)" />
</g>
<path d="M233.5,676.7h19.8" class="g1_87" />
<g fill="#000000" >
<use xlink:href="#f3_h" transform="matrix(10.5,0,0,10.5,144.7,681)" />
<use xlink:href="#f3_f" transform="matrix(10.5,0,0,10.5,185.9,681)" />
<use xlink:href="#f3_x" transform="matrix(10.5,0,0,10.5,262.4,681)" />
<use xlink:href="#f1_l" transform="matrix(7.9,0,0,7.9,129.6,671.4)" />
<use xlink:href="#f1_l" transform="matrix(7.9,0,0,7.9,170.8,671.4)" />
<use xlink:href="#f1_l" transform="matrix(10.5,0,0,10.5,201.7,681)" />
<use xlink:href="#f1_j" transform="matrix(10.5,0,0,10.5,279.6,681)" />
<use xlink:href="#f2_1z" transform="matrix(10.5,0,0,10.5,233.7,670.5)" />
<use xlink:href="#f2_2k" transform="matrix(10.5,0,0,10.5,242.6,670.5)" />
<use xlink:href="#f2_2j" transform="matrix(10.5,0,0,10.5,119.4,681)" />
<use xlink:href="#f2_2k" transform="matrix(10.5,0,0,10.5,160.4,681)" />
<use xlink:href="#f2_2j" transform="matrix(10.5,0,0,10.5,211,681)" />
<use xlink:href="#f2_2k" transform="matrix(10.5,0,0,10.5,219,681)" />
<use xlink:href="#f2_1z" transform="matrix(10.5,0,0,10.5,233.8,696.6)" />
<use xlink:href="#f2_2j" transform="matrix(10.5,0,0,10.5,242.7,696.6)" />
<use xlink:href="#f1_b" transform="matrix(10.4,0,0,10.4,373.8,680.3)" />
<use xlink:href="#f1_24" transform="matrix(10.4,0,0,10.4,379.1,680.3)" />
<use xlink:href="#f1_24" transform="matrix(10.4,0,0,10.4,382.7,680.3)" />
<use xlink:href="#f1_c" transform="matrix(10.4,0,0,10.4,386.2,680.3)" />
</g>
<path d="M472.2,676.5H492m95.4,0h19.8" class="g8_87" />
<g fill="#000000" >
<use xlink:href="#f3_x" transform="matrix(10.5,0,0,10.5,440.3,680.8)" />
<use xlink:href="#f3_x" transform="matrix(10.5,0,0,10.5,546.4,680.8)" />
<use xlink:href="#f1_l" transform="matrix(10.5,0,0,10.5,412.5,680.8)" />
<use xlink:href="#f1_f" transform="matrix(10.5,0,0,10.5,499.1,680.8)" />
<use xlink:href="#f1_l" transform="matrix(10.5,0,0,10.5,563.6,680.8)" />
<use xlink:href="#f2_1z" transform="matrix(10.5,0,0,10.5,472.2,670.4)" />
<use xlink:href="#f2_2k" transform="matrix(10.5,0,0,10.5,481.1,670.4)" />
<use xlink:href="#f2_1z" transform="matrix(10.5,0,0,10.5,587.2,670.4)" />
<use xlink:href="#f2_2k" transform="matrix(10.5,0,0,10.5,596.1,670.4)" />
<use xlink:href="#f2_2k" transform="matrix(10.5,0,0,10.5,421.8,680.8)" />
<use xlink:href="#f2_2j" transform="matrix(10.5,0,0,10.5,457.7,680.8)" />
<use xlink:href="#f2_2k" transform="matrix(10.5,0,0,10.5,527.9,680.8)" />
<use xlink:href="#f2_2j" transform="matrix(10.5,0,0,10.5,572.9,680.8)" />
<use xlink:href="#f2_1z" transform="matrix(10.5,0,0,10.5,472.3,696.4)" />
<use xlink:href="#f2_2j" transform="matrix(10.5,0,0,10.5,481.2,696.4)" />
<use xlink:href="#f2_1z" transform="matrix(10.5,0,0,10.5,587.3,696.4)" />
<use xlink:href="#f2_2j" transform="matrix(10.5,0,0,10.5,596.3,696.4)" />
<use xlink:href="#f1_b" transform="matrix(10.4,0,0,10.4,77,736.9)" />
<use xlink:href="#f1_24" transform="matrix(10.4,0,0,10.4,82.3,736.9)" />
<use xlink:href="#f1_24" transform="matrix(10.4,0,0,10.4,85.8,736.9)" />
<use xlink:href="#f1_24" transform="matrix(10.4,0,0,10.4,89.4,736.9)" />
<use xlink:href="#f1_c" transform="matrix(10.4,0,0,10.4,92.9,736.9)" />
</g>
<path d="M233.5,734.5h19.8" class="g1_87" />
<g fill="#000000" >
<use xlink:href="#f3_h" transform="matrix(10.5,0,0,10.5,144.7,738.7)" />
<use xlink:href="#f3_f" transform="matrix(10.5,0,0,10.5,185.9,738.7)" />
<use xlink:href="#f3_x" transform="matrix(10.5,0,0,10.5,262.4,738.7)" />
<use xlink:href="#f1_l" transform="matrix(7.9,0,0,7.9,129.6,729.1)" />
<use xlink:href="#f1_l" transform="matrix(7.9,0,0,7.9,170.8,729.1)" />
<use xlink:href="#f1_l" transform="matrix(10.5,0,0,10.5,201.7,738.7)" />
<use xlink:href="#f1_j" transform="matrix(10.5,0,0,10.5,279.6,738.7)" />
<use xlink:href="#f2_1z" transform="matrix(10.5,0,0,10.5,233.7,728.3)" />
<use xlink:href="#f2_2k" transform="matrix(10.5,0,0,10.5,242.6,728.3)" />
<use xlink:href="#f2_2j" transform="matrix(10.5,0,0,10.5,119.4,738.7)" />
<use xlink:href="#f2_2k" transform="matrix(10.5,0,0,10.5,160.4,738.7)" />
<use xlink:href="#f2_2j" transform="matrix(10.5,0,0,10.5,211,738.7)" />
<use xlink:href="#f2_2k" transform="matrix(10.5,0,0,10.5,219,738.7)" />
<use xlink:href="#f2_1z" transform="matrix(10.5,0,0,10.5,233.8,754.3)" />
<use xlink:href="#f2_2j" transform="matrix(10.5,0,0,10.5,242.7,754.3)" />
<use xlink:href="#f1_b" transform="matrix(10.4,0,0,10.4,75.9,790.1)" />
<use xlink:href="#f1_24" transform="matrix(10.4,0,0,10.4,81.2,790.1)" />
<use xlink:href="#f1_2h" transform="matrix(10.4,0,0,10.4,84.7,790.1)" />
<use xlink:href="#f1_c" transform="matrix(10.4,0,0,10.4,92.7,790.1)" />
<use xlink:href="#f3_c" transform="matrix(10.4,0,0,13.9,118.6,792.2)" />
<use xlink:href="#f3_d" transform="matrix(10.4,0,0,13.9,169.6,792.2)" />
<use xlink:href="#f3_c" transform="matrix(10.4,0,0,13.9,187.1,792.2)" />
<use xlink:href="#f3_d" transform="matrix(10.4,0,0,13.9,239.9,792.2)" />
<use xlink:href="#f3_c" transform="matrix(10.4,0,0,13.9,278.9,792.2)" />
<use xlink:href="#f3_d" transform="matrix(10.4,0,0,13.9,344.5,792.2)" />
<use xlink:href="#f1_l" transform="matrix(7.9,0,0,7.9,175.1,782.5)" />
<use xlink:href="#f1_l" transform="matrix(7.9,0,0,7.9,245.4,782.5)" />
<use xlink:href="#f1_l" transform="matrix(7.9,0,0,7.9,350,782.5)" />
<use xlink:href="#f1_k" transform="matrix(10.5,0,0,10.5,193.1,791.6)" />
<use xlink:href="#f1_a" transform="matrix(10.5,0,0,10.5,235.8,791.6)" />
<use xlink:href="#f1_a" transform="matrix(10.5,0,0,10.5,340.4,791.6)" />
<use xlink:href="#f3_h" transform="matrix(10.5,0,0,10.5,142.4,791.6)" />
<use xlink:href="#f3_f" transform="matrix(10.5,0,0,10.5,206.1,791.6)" />
<use xlink:href="#f3_x" transform="matrix(10.5,0,0,10.5,262.2,791.6)" />
<use xlink:href="#f3_f" transform="matrix(10.5,0,0,10.5,302.7,791.6)" />
<use xlink:href="#f2_2j" transform="matrix(10.5,0,0,10.5,125.9,791.6)" />
<use xlink:href="#f2_2k" transform="matrix(10.5,0,0,10.5,158.1,791.6)" />
<use xlink:href="#f2_2k" transform="matrix(10.5,0,0,10.5,222.1,791.6)" />
<use xlink:href="#f2_2j" transform="matrix(10.5,0,0,10.5,286.2,791.6)" />
<use xlink:href="#f2_2k" transform="matrix(10.5,0,0,10.5,318.7,791.6)" />
<use xlink:href="#f2_2k" transform="matrix(10.5,0,0,10.5,326.7,791.6)" />
<use xlink:href="#f4_k" transform="matrix(10.4,0,0,10.4,75.9,838.5)" />
<use xlink:href="#f4_j" transform="matrix(10.4,0,0,10.4,84.8,838.5)" />
<use xlink:href="#f4_h" transform="matrix(10.4,0,0,10.4,93.9,838.5)" />
</g>
<path d="M144.7,818.9v24.8M251.4,818.9v24.8" class="g0_87" />
<path d="M287.9,834.9l1.6,-.9l4,6.5l4.2,-17.1h10" class="g9_87" />
<path fill-rule="evenodd" d="M287.8,834.7l2.1,-1.2l3.6,5.4L297.4,823h10.3v.8H298l-4.2,16.7h-.7l-3.9,-6l-1.1,.7l-.3,-.5Z" class="g10_87" />
<path d="M373.4,850.6l1.7,-.9l3.9,6.5l4.2,-17.1h20.3" class="g9_87" />
<path fill-rule="evenodd" d="M373.3,850.4l2.1,-1.2l3.6,5.4l3.9,-15.9h20.6v.8h-20l-4.1,16.7h-.8l-3.9,-6l-1.1,.7l-.3,-.5Z" class="g10_87" />
<path d="M361.8,834.8H415" class="g0_87" />
<g fill="#000000" >
<use xlink:href="#f3_h" transform="matrix(7.9,0,0,7.9,335,829.4)" />
<use xlink:href="#f3_f" transform="matrix(10.6,0,0,10.6,379.3,828.6)" />
<use xlink:href="#f3_4o" transform="matrix(10.6,0,0,10.6,352,829.8)" />
<use xlink:href="#f3_54" transform="matrix(10.6,0,0,10.6,416.8,829.8)" />
<use xlink:href="#f3_f" transform="matrix(10.6,0,0,10.6,173.2,839.1)" />
<use xlink:href="#f3_f" transform="matrix(10.6,0,0,10.6,214,839.1)" />
<use xlink:href="#f3_x" transform="matrix(10.6,0,0,10.6,261.1,839.1)" />
<use xlink:href="#f3_f" transform="matrix(10.6,0,0,10.6,431.3,839.1)" />
<use xlink:href="#f3_4p" transform="matrix(10.6,0,0,10.6,352,845.9)" />
<use xlink:href="#f3_55" transform="matrix(10.6,0,0,10.6,416.8,845.9)" />
<use xlink:href="#f3_4q" transform="matrix(10.6,0,0,10.6,352,852.5)" />
<use xlink:href="#f3_56" transform="matrix(10.6,0,0,10.6,416.8,852.5)" />
<use xlink:href="#f1_l" transform="matrix(7.9,0,0,7.9,158.1,829.4)" />
<use xlink:href="#f1_l" transform="matrix(7.9,0,0,7.9,240.4,829.4)" />
<use xlink:href="#f1_k" transform="matrix(7.9,0,0,7.9,341.5,829.4)" />
<use xlink:href="#f1_l" transform="matrix(10.7,0,0,10.6,395,828.6)" />
<use xlink:href="#f1_27" transform="matrix(10.7,0,0,10.6,118.5,839.1)" />
<use xlink:href="#f1_2a" transform="matrix(10.7,0,0,10.6,122.2,839.1)" />
<use xlink:href="#f1_22" transform="matrix(10.7,0,0,10.6,131.2,839.1)" />
<use xlink:href="#f1_l" transform="matrix(10.7,0,0,10.6,278.4,839.1)" />
<use xlink:href="#f1_m" transform="matrix(10.7,0,0,10.6,298.3,839.1)" />
<use xlink:href="#f1_2f" transform="matrix(10.7,0,0,10.6,312.7,839.1)" />
<use xlink:href="#f1_1w" transform="matrix(10.7,0,0,10.6,317.3,839.1)" />
<use xlink:href="#f1_29" transform="matrix(10.7,0,0,10.6,326.3,839.1)" />
<use xlink:href="#f1_m" transform="matrix(10.7,0,0,10.6,383.7,854.8)" />
<use xlink:href="#f2_2j" transform="matrix(10.7,0,0,10.6,362.7,828.6)" />
<use xlink:href="#f2_2k" transform="matrix(10.7,0,0,10.6,404.2,828.6)" />
<use xlink:href="#f2_2j" transform="matrix(10.7,0,0,10.6,147.9,839.1)" />
<use xlink:href="#f2_2j" transform="matrix(10.7,0,0,10.6,189.2,839.1)" />
<use xlink:href="#f2_2k" transform="matrix(10.7,0,0,10.6,197.3,839.1)" />
<use xlink:href="#f2_2k" transform="matrix(10.7,0,0,10.6,230,839.1)" />
<use xlink:href="#f2_1y" transform="matrix(10.7,0,0,10.6,446.3,839.1)" />
<use xlink:href="#f2_2j" transform="matrix(10.7,0,0,10.6,393,854.8)" />
<use xlink:href="#f4_k" transform="matrix(10.4,0,0,10.4,75.9,916.2)" />
<use xlink:href="#f4_k" transform="matrix(10.4,0,0,10.4,84.8,916.2)" />
<use xlink:href="#f4_h" transform="matrix(10.4,0,0,10.4,93.9,916.2)" />
</g>
<path d="M119.6,912h61.6m26.5,0h11.5" class="g4_87" />
<g fill="#000000" >
<use xlink:href="#f3_c" transform="matrix(10.5,0,0,13.9,223.3,916.9)" />
<use xlink:href="#f3_d" transform="matrix(10.5,0,0,13.9,274.4,916.9)" />
<use xlink:href="#f3_x" transform="matrix(10.6,0,0,10.6,190,916.3)" />
<use xlink:href="#f3_f" transform="matrix(10.6,0,0,10.6,246.9,916.3)" />
<use xlink:href="#f3_f" transform="matrix(10.6,0,0,10.6,145.7,933.3)" />
<use xlink:href="#f1_m" transform="matrix(7.9,0,0,7.9,151.4,896.2)" />
<use xlink:href="#f1_l" transform="matrix(7.9,0,0,7.9,130.7,923.7)" />
<use xlink:href="#f1_l" transform="matrix(7.9,0,0,7.9,172.1,923.7)" />
<use xlink:href="#f2_2j" transform="matrix(10.5,0,0,10.6,141.2,905.8)" />
<use xlink:href="#f2_1y" transform="matrix(10.5,0,0,10.6,208.3,905.8)" />
<use xlink:href="#f2_2j" transform="matrix(10.5,0,0,10.6,230.6,916.3)" />
<use xlink:href="#f2_2k" transform="matrix(10.5,0,0,10.6,263,916.3)" />
<use xlink:href="#f2_2j" transform="matrix(10.5,0,0,10.6,208.7,931.9)" />
<use xlink:href="#f2_2j" transform="matrix(10.5,0,0,10.6,120.5,933.3)" />
<use xlink:href="#f2_2k" transform="matrix(10.5,0,0,10.6,161.7,933.3)" />
<use xlink:href="#f5_t" transform="matrix(12,0,0,12,673.3,1070.2)" />
</g>
<g fill="#0080FF" fill-opacity="0.5" >
<use xlink:href="#f0_1c" transform="matrix(38.3,0,0,38.3,183.6,1079.4)" />
<use xlink:href="#f0_21" transform="matrix(38.3,0,0,38.3,216.1,1079.4)" />
<use xlink:href="#f0_1x" transform="matrix(38.3,0,0,38.3,248.6,1079.4)" />
<use xlink:href="#f0_2e" transform="matrix(38.3,0,0,38.3,281.1,1079.4)" />
<use xlink:href="#f0_2a" transform="matrix(38.3,0,0,38.3,300.6,1079.4)" />
<use xlink:href="#f0_17" transform="matrix(38.3,0,0,38.3,333.1,1079.4)" />
<use xlink:href="#f0_2h" transform="matrix(38.3,0,0,38.3,378.6,1079.4)" />
<use xlink:href="#f0_25" transform="matrix(38.3,0,0,38.3,411.1,1079.4)" />
<use xlink:href="#f0_20" transform="matrix(38.3,0,0,38.3,424,1079.4)" />
<use xlink:href="#f0_21" transform="matrix(38.3,0,0,38.3,456.5,1079.4)" />
<use xlink:href="#f0_i" transform="matrix(38.3,0,0,38.3,489.1,1079.4)" />
<use xlink:href="#f0_25" transform="matrix(38.3,0,0,38.3,505.3,1079.4)" />
<use xlink:href="#f0_2a" transform="matrix(38.3,0,0,38.3,518.3,1079.4)" />
</g>
<defs>
<path d="M593,101c0,0,182,0,279,112c0,0,98,113,98,318c0,0,0,196,-98,308c0,0,-98,112,-277,112c0,0,-181,0,-279,-110c0,0,-99,-111,-99,-310c0,0,0,-198,100,-314c0,0,99,-116,276,-116Zm0,-115c0,0,-162,0,-279,65c0,0,-118,66,-180,190c0,0,-62,124,-62,290c0,0,0,252,138,394c0,0,138,142,385,142c0,0,160,0,278,-64c0,0,118,-64,180,-185c0,0,62,-122,62,-287c0,0,0,-165,-63,-289c0,0,-63,-124,-181,-190c0,0,-118,-66,-278,-66Z" 
id="f0_1f"
transform="scale(0.001,-0.001)" />

<path d="M106,0V635c0,0,0,141,-5,173H228c0,0,1,-4,2,-21c0,0,1,-16,2,-37c0,0,1,-22,2,-81h2c0,0,47,84,108,119c0,0,60,34,151,34c0,0,132,0,194,-66c0,0,61,-66,61,-218V0H615V512c0,0,0,80,-15,124c0,0,-16,44,-50,63c0,0,-35,20,-101,20c0,0,-97,0,-153,-67c0,0,-56,-66,-56,-184V0Z" 
id="f0_2a"
transform="scale(0.001,-0.001)" />

<path d="M103,0V1107H237V0Z" 
id="f0_28"
transform="scale(0.001,-0.001)" />

<path d="M102,0V808H236V0Zm0,979v128H236V979Z" 
id="f0_25"
transform="scale(0.001,-0.001)" />

<path d="M643,478c0,0,-11,128,-65,187c0,0,-54,59,-154,59c0,0,-98,0,-155,-66c0,0,-57,-65,-62,-180ZM431,-14c0,0,-179,0,-272,106c0,0,-94,107,-94,317c0,0,0,200,94,307c0,0,93,106,267,106c0,0,356,0,356,-429V375H206c0,0,0,-138,57,-213c0,0,58,-75,168,-75c0,0,87,0,140,35c0,0,53,35,71,88L760,177c0,0,-72,-191,-329,-191Z" 
id="f0_21"
transform="scale(0.001,-0.001)" />

<path d="M17,0L304,415L31,808H179L380,493L580,808H730L457,417L747,0H598L380,331L162,0Z" 
id="f0_2k"
transform="scale(0.001,-0.001)" />

<path d="M339,87c0,0,74,0,132,34c0,0,57,33,90,91c0,0,34,59,34,121v66L448,396c0,0,-95,-2,-144,-19c0,0,-49,-18,-75,-55c0,0,-26,-38,-26,-98c0,0,0,-65,35,-101c0,0,36,-36,101,-36ZM309,-14c0,0,-122,0,-183,64c0,0,-61,64,-61,176c0,0,0,125,82,192c0,0,83,67,266,72l182,3v44c0,0,0,98,-42,141c0,0,-42,43,-132,43c0,0,-90,0,-131,-31c0,0,-41,-31,-49,-98L101,604c0,0,34,218,323,218c0,0,153,0,229,-70c0,0,77,-69,77,-202V202c0,0,0,-59,16,-90c0,0,16,-30,60,-30c0,0,19,0,44,5V4C850,4,799,-7,746,-7c0,0,-75,0,-109,38c0,0,-33,40,-38,124h-4C595,155,543,62,475,24c0,0,-68,-38,-166,-38Z" 
id="f0_1x"
transform="scale(0.001,-0.001)" />

<path d="M106,0V635c0,0,0,141,-5,173H228c0,0,1,-4,2,-21c0,0,1,-16,2,-37c0,0,1,-22,2,-81h2c0,0,44,86,100,120c0,0,56,33,136,33c0,0,92,0,145,-36c0,0,54,-37,75,-117h2c0,0,42,82,101,117c0,0,59,36,143,36c0,0,123,0,178,-66c0,0,56,-67,56,-218V0H1039V512c0,0,0,117,-32,162c0,0,-32,45,-116,45c0,0,-88,0,-136,-66c0,0,-49,-65,-49,-185V0H573V512c0,0,0,117,-32,162c0,0,-32,45,-116,45c0,0,-86,0,-136,-66c0,0,-50,-66,-50,-185V0Z" 
id="f0_29"
transform="scale(0.001,-0.001)" />

<path d="M453,84c0,0,100,0,146,74c0,0,46,73,46,247c0,0,0,169,-46,241c0,0,-45,73,-145,73c0,0,-80,0,-125,-34c0,0,-45,-34,-68,-105c0,0,-24,-71,-24,-186c0,0,0,-159,51,-234c0,0,51,-76,165,-76ZM103,-316V643c0,0,0,124,-5,165H228c0,0,1,-3,3,-22c0,0,1,-18,3,-56c0,0,2,-38,2,-52h3c0,0,36,75,94,110c0,0,59,34,156,34c0,0,149,0,223,-100c0,0,74,-100,74,-314c0,0,0,-422,-297,-422c0,0,-187,0,-251,140h-4c0,0,3,-6,3,-126V-316Z" 
id="f0_2c"
transform="scale(0.001,-0.001)" />

<path d="M420,84c0,0,121,0,173,78c0,0,52,77,52,243c0,0,0,167,-50,243c0,0,-50,76,-167,76c0,0,-118,0,-170,-78c0,0,-53,-77,-53,-241c0,0,0,-160,52,-241c0,0,52,-80,163,-80Zm1,-98c0,0,-176,0,-267,107c0,0,-90,108,-90,312c0,0,0,417,362,417c0,0,185,0,272,-102c0,0,88,-101,88,-315c0,0,0,-212,-94,-316C692,89,599,-14,421,-14Z" 
id="f0_2b"
transform="scale(0.001,-0.001)" />

<path d="M278,-11c0,0,-162,0,-162,182V710H23v98h99l39,181h90V808H400V710H251V200c0,0,0,-58,19,-82c0,0,19,-23,66,-23c0,0,27,0,77,10V6c0,0,-66,-17,-135,-17Z" 
id="f0_2g"
transform="scale(0.001,-0.001)" />

<path d="M365,-315c0,0,-136,187,-199,359c0,0,-62,172,-62,359c0,0,0,186,62,358c0,0,63,172,199,360h92c0,0,-110,-192,-160,-365c0,0,-51,-172,-51,-353c0,0,0,-183,51,-355c0,0,50,-172,160,-363Z" 
id="f1_b"
transform="scale(0.001,-0.001)" />

<path d="M310,0L12,799H168L383,145L604,799H752L454,0Z" 
id="f1_2h"
transform="scale(0.001,-0.001)" />

<path d="M104,0V799H238V0Zm-2,946v152H239V946Z" 
id="f1_24"
transform="scale(0.001,-0.001)" />

<path d="M52,-315c0,0,109,192,160,363c0,0,50,173,50,354c0,0,0,183,-50,355c0,0,-51,173,-160,364h92c0,0,135,-188,198,-360c0,0,63,-172,63,-359c0,0,0,-187,-63,-359c0,0,-63,-171,-198,-358Z" 
id="f1_c"
transform="scale(0.001,-0.001)" />

<path d="M511,373V863L169,383l-7,-10ZM511,0V258H38V383l496,691H646V373H799V258H646V0Z" 
id="f1_n"
transform="scale(0.001,-0.001)" />

<path d="M432,92c0,0,96,0,156,66c0,0,61,65,61,169c0,0,0,103,-61,169c0,0,-60,66,-156,66c0,0,-95,0,-156,-66c0,0,-61,-66,-61,-169c0,0,0,-104,61,-169c0,0,61,-66,156,-66ZM425,-28c0,0,-176,0,-271,135c0,0,-95,136,-95,388c0,0,0,278,103,429c0,0,103,151,293,151c0,0,142,0,226,-77c0,0,84,-76,90,-211H638c0,0,-8,80,-56,123c0,0,-47,43,-127,43c0,0,-125,0,-192,-119c0,0,-58,-102,-64,-278c0,0,100,127,255,127c0,0,152,0,245,-98c0,0,93,-98,93,-258c0,0,0,-161,-101,-259c0,0,-101,-96,-266,-96Z" 
id="f1_p"
transform="scale(0.001,-0.001)" />

<path d="M406,0V763H155V870h2c16,0,114,2,178,48c0,0,70,51,104,157H549V0Z" 
id="f1_k"
transform="scale(0.001,-0.001)" />

<path d="M103,0V1097H237V0Z" 
id="f1_27"
transform="scale(0.001,-0.001)" />

<path d="M424,94c0,0,107,0,169,83c0,0,63,83,63,223c0,0,0,140,-63,224c0,0,-62,83,-169,83c0,0,-106,0,-168,-83c0,0,-62,-84,-62,-224c0,0,0,-140,62,-223c0,0,62,-83,168,-83Zm0,-114c0,0,-165,0,-268,115C156,95,54,211,54,400c0,0,0,189,102,306c0,0,103,116,268,116c0,0,168,0,270,-116c0,0,102,-117,102,-306c0,0,0,-189,-102,-305C694,95,592,-20,424,-20Z" 
id="f1_2a"
transform="scale(0.001,-0.001)" />

<path d="M418,95c0,0,98,0,158,73c0,0,59,73,59,193c0,0,0,170,-54,254c0,0,-54,85,-163,85c0,0,-113,0,-165,-72c0,0,-52,-71,-52,-227c0,0,0,-147,57,-227c0,0,56,-79,160,-79ZM394,-336c0,0,-136,0,-216,62c0,0,-79,63,-96,182H219c0,0,12,-64,57,-98c0,0,45,-35,116,-35c0,0,116,0,176,73c0,0,61,73,61,211V85l-1,-1C628,84,545,-20,412,-20c0,0,-161,0,-256,118c0,0,-94,120,-94,324c0,0,0,179,93,290c0,0,93,110,244,110c0,0,144,0,228,-124l10,-14V799H763V59c0,0,-1,-201,-91,-298c0,0,-91,-97,-278,-97Z" 
id="f1_22"
transform="scale(0.001,-0.001)" />

<path d="M394,-20c0,0,-159,0,-253,113c0,0,-95,114,-95,307c0,0,0,193,98,308c0,0,98,114,264,114c0,0,144,0,230,-78c0,0,85,-79,91,-217H600c0,0,-8,86,-59,133c0,0,-52,47,-138,47c0,0,-101,0,-159,-82c0,0,-58,-82,-58,-225c0,0,0,-152,54,-229c0,0,53,-77,159,-77c0,0,79,0,132,50c0,0,52,51,69,143H729C729,287,709,137,623,58c0,0,-86,-78,-229,-78Z" 
id="f1_1y"
transform="scale(0.001,-0.001)" />

<path d="M393,-20c0,0,-169,0,-252,65c0,0,-83,67,-92,210H178c0,0,10,-85,61,-123c0,0,50,-38,154,-38c0,0,90,0,136,34c0,0,47,35,47,100c0,0,0,42,-31,64c0,0,-30,21,-123,43L283,368c0,0,-112,27,-160,75c0,0,-48,48,-48,135c0,0,0,112,80,178c0,0,81,66,218,66c0,0,140,0,222,-68c0,0,82,-67,88,-187H557c0,0,-6,67,-55,103c0,0,-48,37,-129,37c0,0,-84,0,-127,-29c0,0,-44,-29,-44,-85c0,0,0,-43,31,-65c0,0,30,-21,121,-43L493,452c0,0,117,-28,167,-78c0,0,49,-49,49,-138c0,0,0,-119,-86,-188c0,0,-85,-68,-230,-68Z" 
id="f1_2e"
transform="scale(0.001,-0.001)" />

<path d="M17,0L389,412L201,800H376L500,518L742,800H904L554,410L750,0H580L448,303L187,0Z" 
id="f2_2j"
transform="scale(0.001,-0.001)" />

<path d="M99,-328c0,0,-46,0,-76,13l25,123c0,0,29,-14,81,-14c0,0,47,0,76,31c0,0,28,31,106,162L185,800H339L415,141L769,800H918L456,0C456,0,329,-216,269,-272c0,0,-61,-56,-170,-56Z" 
id="f2_2k"
transform="scale(0.001,-0.001)" />

<path d="M748,462c0,0,3,31,3,63c0,0,0,86,-45,132c0,0,-46,45,-134,45c0,0,-100,0,-180,-85c0,0,-58,-63,-90,-155ZM419,-20c0,0,-136,0,-213,73c0,0,-77,74,-78,206c0,0,0,25,4,58c0,0,4,32,10,63c0,0,44,208,169,326c0,0,125,117,305,117c0,0,128,0,198,-73c0,0,71,-73,71,-207c0,0,1,-100,-24,-189H278l-4,-25c0,0,-3,-30,-3,-55c0,0,0,-90,44,-134c0,0,44,-45,133,-45c0,0,87,0,156,44c0,0,68,45,95,117H830C830,256,782,126,674,52c0,0,-108,-72,-255,-72Z" 
id="f2_20"
transform="scale(0.001,-0.001)" />

<path d="M398,-20c0,0,-133,0,-209,72c0,0,-76,74,-76,202v3c0,0,0,27,4,60c0,0,4,33,10,63c0,0,43,208,168,326c0,0,126,117,306,117c0,0,131,0,192,-75c0,0,49,-61,50,-168l-3,-52H710c0,0,4,87,-33,131c0,0,-37,45,-113,45c0,0,-110,0,-184,-81c0,0,-75,-82,-107,-238c0,0,-6,-28,-9,-56c0,0,-3,-28,-3,-50c0,0,0,-88,43,-136c0,0,43,-48,121,-48c0,0,76,0,137,49c0,0,61,48,92,136H788C788,280,737,138,633,58c0,0,-103,-78,-235,-78Z" 
id="f2_1y"
transform="scale(0.001,-0.001)" />

<path d="M0,214v74H784V214ZM0,494v72H784V494Z" 
id="f3_x"
transform="scale(0.001,-0.001)" />

<path d="M0,356v74H784V356Z" 
id="f3_h"
transform="scale(0.001,-0.001)" />

<path d="M355,0V355H0v72H355V784h72V427H782V355H427V0Z" 
id="f3_f"
transform="scale(0.001,-0.001)" />

<path d="M412,-328c0,0,-195,96,-303,284C109,-44,0,142,0,365c0,0,0,232,114,422c0,0,114,191,298,273v-31c0,0,-92,-51,-151,-139c0,0,-59,-88,-88,-223c0,0,-29,-136,-29,-282c0,0,0,-167,27,-301c0,0,26,-133,82,-221c0,0,55,-89,159,-159v-32Z" 
id="f3_c"
transform="scale(0.001,-0.001)" />

<path d="M34,-328v32c0,0,92,50,151,138c0,0,59,88,88,222c0,0,29,135,29,283c0,0,0,165,-27,300c0,0,-26,134,-82,222c0,0,-56,89,-159,160v31c0,0,194,-96,303,-284c0,0,108,-187,108,-410c0,0,0,-232,-114,-422c0,0,-114,-191,-297,-272Z" 
id="f3_d"
transform="scale(0.001,-0.001)" />

<path d="M424,-28c0,0,-180,0,-272,86c0,0,-92,87,-100,266H192c0,0,12,-126,66,-180c0,0,55,-54,170,-54c0,0,100,0,163,57c0,0,64,57,64,147c0,0,0,94,-61,149c0,0,-52,48,-135,54c0,0,-38,2,-72,2c0,0,-34,0,-45,-3V613c0,0,17,-3,51,-3c0,0,35,0,68,4c0,0,66,8,106,43c0,0,55,45,55,125c0,0,0,77,-58,125c0,0,-58,48,-148,48c0,0,-96,0,-147,-58c0,0,-51,-59,-56,-175H82c0,0,0,168,89,260c0,0,88,93,250,93c0,0,153,0,247,-77c0,0,94,-76,94,-202c0,0,0,-124,-95,-201c0,0,-18,-15,-39,-27c0,0,39,-17,69,-41c0,0,101,-79,101,-214c0,0,0,-151,-105,-246c0,0,-104,-95,-269,-95Z" 
id="f1_m"
transform="scale(0.001,-0.001)" />

<path d="M39,0V0c0,0,0,170,84,277c0,0,85,108,317,236c0,0,113,62,154,115c0,0,41,52,41,134c0,0,0,86,-62,141c0,0,-61,54,-156,54c0,0,-101,0,-158,-68c0,0,-57,-68,-60,-194H67c0,0,-2,178,95,279c0,0,98,101,273,101c0,0,149,0,245,-89c0,0,94,-88,94,-228c0,0,0,-118,-60,-195c0,0,-61,-76,-229,-169C485,394,303,294,237,212c0,0,-28,-36,-46,-81H774V0Z" 
id="f1_l"
transform="scale(0.001,-0.001)" />

<path d="M0,368V478H849V368Z" 
id="f1_99"
transform="scale(0.001,-0.001)" />

<path d="M0,-123V1415H525v-72H72V-123Z" 
id="f3_4r"
transform="scale(0.001,-0.001)" />

<path d="M478,-123V1343H26v72H550V-123Z" 
id="f3_57"
transform="scale(0.001,-0.001)" />

<path d="M0,-123V1415H72V-123Z" 
id="f3_4s"
transform="scale(0.001,-0.001)" />

<path d="M0,-123V1415H72V-123Z" 
id="f3_58"
transform="scale(0.001,-0.001)" />

<path d="M0,-123V1415H72V-51H525v-72Z" 
id="f3_4t"
transform="scale(0.001,-0.001)" />

<path d="M26,-123v72H478V1415h72V-123Z" 
id="f3_59"
transform="scale(0.001,-0.001)" />

<path d="M292,-9c0,0,-88,0,-124,38c0,0,-36,39,-36,134V689H22V799H132v224H266V799H392V689H266V163c0,0,0,-27,21,-43c0,0,21,-15,57,-15h48V1C392,1,324,-9,292,-9Z" 
id="f1_2f"
transform="scale(0.001,-0.001)" />

<path d="M335,90c0,0,106,0,179,57c0,0,50,41,67,91c0,0,3,10,4,31c0,0,3,21,3,47v87c0,0,-38,-18,-83,-25L381,360c0,0,-97,-13,-142,-45c0,0,-44,-31,-44,-86c0,0,0,-67,36,-103c0,0,37,-36,104,-36ZM309,-20c0,0,-117,0,-186,61c0,0,-68,63,-68,169c0,0,0,108,64,171c0,0,65,64,189,79l183,23c0,0,22,3,42,8c0,0,26,7,40,27c0,0,15,20,15,51v6c0,0,0,64,-49,101c0,0,-48,36,-135,36c0,0,-83,0,-130,-38c0,0,-46,-39,-56,-115H94c0,0,10,131,92,197c0,0,83,66,238,66c0,0,145,0,222,-63c0,0,76,-63,76,-184V137c0,0,0,-21,12,-33c0,0,12,-12,33,-12c0,0,6,0,18,1c0,0,11,2,25,5V1c0,0,-20,-7,-41,-11c0,0,-22,-5,-37,-5c0,0,-76,0,-110,41c0,0,-22,28,-32,79c0,0,-15,-19,-34,-36c0,0,-101,-89,-247,-89Z" 
id="f1_1w"
transform="scale(0.001,-0.001)" />

<path d="M99,0V799H226V681l30,39c0,0,87,102,219,102c0,0,132,0,203,-71c0,0,72,-72,72,-204V0H616V502c0,0,0,105,-41,151c0,0,-40,47,-132,47c0,0,-97,0,-154,-73c0,0,-56,-74,-56,-199V0Z" 
id="f1_29"
transform="scale(0.001,-0.001)" />

<path d="M424,145c0,0,72,0,114,45c0,0,42,45,42,122c0,0,0,78,-43,125c0,0,-41,46,-113,46c0,0,-72,0,-113,-46c0,0,-42,-47,-42,-125c0,0,0,-77,42,-122c0,0,41,-45,113,-45Zm0,497c0,0,62,0,99,37c0,0,36,36,36,98c0,0,0,63,-36,101c0,0,-37,37,-99,37c0,0,-62,0,-99,-37c0,0,-37,-38,-37,-101c0,0,0,-62,37,-99c0,0,37,-36,99,-36Zm0,-669c0,0,-169,0,-272,92C152,65,49,158,49,311c0,0,0,139,103,224c0,0,30,26,66,42l-42,28c0,0,-94,70,-94,186c0,0,0,134,94,216c0,0,94,81,248,81c0,0,154,0,248,-81c0,0,94,-82,94,-216c0,0,0,-116,-94,-186c0,0,-21,-15,-42,-27c0,0,36,-18,67,-44c0,0,103,-84,103,-223c0,0,0,-153,-103,-246c0,0,-104,-92,-273,-92Z" 
id="f4_r"
transform="scale(0.001,-0.001)" />

<path d="M98,0V222H327V0Z" 
id="f4_h"
transform="scale(0.001,-0.001)" />

<path d="M62,-123V268c0,0,0,230,56,452c0,0,47,190,134,334c0,0,87,144,204,242c0,0,85,73,194,119l18,-16c0,0,-211,-145,-335,-339c0,0,-98,-156,-149,-374c0,0,-50,-218,-50,-403V-123Z" 
id="f3_4o"
transform="scale(0.001,-0.001)" />

<path d="M617,-123V283c0,0,0,236,-63,459c0,0,-63,223,-188,392c0,0,-108,146,-282,265l17,16c0,0,180,-76,320,-248c0,0,139,-172,204,-417c0,0,64,-245,64,-482V-123Z" 
id="f3_54"
transform="scale(0.001,-0.001)" />

<path d="M62,-123V1415h72V-123Z" 
id="f3_4p"
transform="scale(0.001,-0.001)" />

<path d="M617,-123V1415h72V-123Z" 
id="f3_55"
transform="scale(0.001,-0.001)" />

<path d="M650,-123c0,0,-180,75,-319,246c0,0,-140,172,-205,418c0,0,-64,245,-64,481v393h72V1007c0,0,0,-236,63,-459c0,0,63,-223,189,-391c0,0,108,-145,282,-265l-18,-15Z" 
id="f3_4q"
transform="scale(0.001,-0.001)" />

<path d="M101,-123l-17,15c0,0,210,144,334,339c0,0,99,156,149,373c0,0,50,218,50,403v408h72V1022c0,0,0,-230,-56,-451c0,0,-48,-191,-134,-335C499,236,412,92,295,-5c0,0,-84,-73,-194,-118Z" 
id="f3_56"
transform="scale(0.001,-0.001)" />

<path d="M390,-1V329H60V441H390V771H503V441H833V329H503V-1Z" 
id="f1_e"
transform="scale(0.001,-0.001)" />

<path d="M60,174V286H832V174Zm0,309V595H832V483Z" 
id="f1_w"
transform="scale(0.001,-0.001)" />

<path d="M96,-299V1104H382V995H217V-191H382V-299Z" 
id="f1_1q"
transform="scale(0.001,-0.001)" />

<path d="M109,0V1097H337V685H767v412H995V0H767V497H337V0Z" 
id="f4_17"
transform="scale(0.001,-0.001)" />

<path d="M108,0V812H322V0Zm-2,906v199H324V906Z" 
id="f4_24"
transform="scale(0.001,-0.001)" />

<path d="M99,0V812H302V691c0,0,13,22,28,41c0,0,79,101,230,101c0,0,128,0,201,-76c0,0,73,-76,73,-211V0H620V507c0,0,0,76,-33,112c0,0,-32,36,-99,36c0,0,-85,0,-130,-51c0,0,-45,-50,-45,-146V0Z" 
id="f4_29"
transform="scale(0.001,-0.001)" />

<path d="M340,-8c0,0,-114,0,-163,40c0,0,-50,41,-50,133V662H15V812H127v219H341V812H472V662H341V201c0,0,0,-29,17,-38c0,0,17,-8,70,-8h44V-3c0,0,-54,-5,-132,-5Z" 
id="f4_2f"
transform="scale(0.001,-0.001)" />

<path d="M140,0V222H369V0Zm0,561V783H369V561Z" 
id="f4_t"
transform="scale(0.001,-0.001)" />

<path d="M575,590c0,0,115,0,169,48c0,0,54,49,54,154c0,0,0,92,-54,135c0,0,-54,43,-169,43H280V590ZM131,0V1097H611c0,0,160,0,249,-80c0,0,90,-80,90,-222c0,0,0,-156,-90,-244c0,0,-89,-88,-249,-88c0,0,-34,0,-82,0c-72,0,-177,0,-249,-1V0Z" 
id="f1_1f"
transform="scale(0.001,-0.001)" />

<path d="M375,-20c0,0,-136,0,-203,66c0,0,-68,68,-68,204V799H238V284c0,0,0,-101,38,-146c0,0,39,-44,127,-44c0,0,97,0,153,75c0,0,57,75,57,203V799H747V0H620V122c0,0,-14,-22,-30,-41C590,81,504,-20,375,-20Z" 
id="f1_2g"
transform="scale(0.001,-0.001)" />

<path d="M306,0L182,800H336L410,145L775,800H922L449,0Z" 
id="f2_2h"
transform="scale(0.001,-0.001)" />

<path d="M42,-299v108H207V995H42v109H329V-299Z" 
id="f1_1s"
transform="scale(0.001,-0.001)" />

<path d="M17,0L301,412L32,799H205L389,514L574,799H740L471,410L749,0H581L382,305L186,0Z" 
id="f1_2j"
transform="scale(0.001,-0.001)" />

<path d="M422,528c0,0,73,0,118,52c0,0,45,52,45,137c0,0,0,86,-47,143c0,0,-46,57,-116,57c0,0,-80,0,-121,-51c0,0,-42,-51,-42,-149c0,0,0,-85,45,-137c0,0,45,-52,118,-52ZM407,-27H385c0,0,-137,0,-224,78c0,0,-87,78,-93,205H280c0,0,-1,-50,30,-81c0,0,31,-30,82,-30h11c3,0,96,0,141,91c0,0,36,73,45,213c0,0,-89,-92,-212,-92c0,0,-145,0,-238,100c0,0,-93,99,-93,255c0,0,0,166,105,271c0,0,105,105,271,105c0,0,184,0,280,-137c0,0,96,-138,96,-403c0,0,0,-291,-106,-438c0,0,-99,-137,-285,-137Z" 
id="f4_s"
transform="scale(0.001,-0.001)" />

<path d="M424,92c0,0,114,0,170,107c0,0,57,108,56,323c0,0,1,216,-56,324c0,0,-56,107,-170,107c0,0,-112,0,-168,-107c0,0,-56,-108,-57,-324c0,0,1,-215,57,-323c0,0,56,-107,168,-107Zm0,-120c0,0,-176,0,-271,142c0,0,-96,143,-96,408c0,0,0,265,96,409c0,0,95,144,271,144c0,0,178,0,273,-144c0,0,96,-144,96,-409c0,0,0,-265,-96,-408c0,0,-95,-142,-273,-142Z" 
id="f1_j"
transform="scale(0.001,-0.001)" />

<path d="M431,94c0,0,95,0,170,76c0,0,76,77,101,198c0,0,35,167,-1,250c0,0,-37,84,-144,84c0,0,-128,0,-210,-117c0,0,-81,-117,-81,-302c0,0,0,-90,43,-139c0,0,44,-50,122,-50ZM400,-20c0,0,-126,0,-199,79c0,0,-73,80,-73,219c0,0,0,234,122,390c0,0,122,155,305,155c0,0,144,0,209,-127l8,-16l86,417H993L767,0H638l22,108L642,90C642,90,532,-20,400,-20Z" 
id="f2_1z"
transform="scale(0.001,-0.001)" />

<path d="M133,-224v71c0,0,47,8,65,52c0,0,14,33,17,101H133V163H292V27c0,0,0,-114,-36,-172c0,0,-37,-58,-123,-79Z" 
id="f1_f"
transform="scale(0.001,-0.001)" />

<path d="M90,708v388H201V708Z" 
id="f1_a"
transform="scale(0.001,-0.001)" />

<path d="M367,0V750H106V903c0,0,3,-1,8,-1c26,0,105,4,171,45c0,0,79,49,121,141H581V0Z" 
id="f4_k"
transform="scale(0.001,-0.001)" />

<path d="M424,145c0,0,86,0,121,86c0,0,35,85,35,295c0,0,1,214,-35,302c0,0,-35,87,-121,87c0,0,-85,0,-120,-87c0,0,-34,-88,-35,-302c0,0,0,-210,35,-295c0,0,35,-86,120,-86Zm0,-172c0,0,-191,0,-283,134c0,0,-91,136,-92,417c0,0,1,288,92,426c0,0,92,138,283,138c0,0,192,0,284,-138c0,0,92,-138,92,-421v-5c0,0,1,-281,-92,-417c0,0,-92,-134,-284,-134Z" 
id="f4_j"
transform="scale(0.001,-0.001)" />

<path d="M420,489c0,0,93,0,153,65c0,0,60,65,60,181c0,0,0,116,-62,184c0,0,-61,68,-148,68c0,0,-90,0,-156,-74c0,0,-66,-73,-66,-189c0,0,0,-105,63,-170c0,0,63,-65,156,-65ZM391,-18c0,0,-128,0,-209,71c0,0,-82,71,-98,200l129,12c0,0,17,-91,63,-132c0,0,46,-41,118,-41c0,0,62,0,109,28c0,0,47,29,76,76c0,0,30,47,50,128c0,0,20,80,20,164c0,0,0,9,-1,27c0,0,-40,-65,-110,-105c0,0,-69,-39,-151,-39c0,0,-135,0,-229,98c0,0,-94,99,-94,260c0,0,0,166,98,268c0,0,98,101,245,101c0,0,107,0,195,-57c0,0,89,-58,134,-164c0,0,46,-106,46,-308c0,0,0,-209,-45,-334C737,235,691,111,602,46c0,0,-90,-64,-211,-64Z" 
id="f5_t"
transform="scale(0.001,-0.001)" />

<path d="M125,0V1051H268V115H799V0Z" 
id="f0_1c"
transform="scale(0.001,-0.001)" />

<path d="M106,0V620c0,0,0,85,-5,188H228c0,0,6,-138,6,-165h3c0,0,32,103,74,141c0,0,42,38,118,38c0,0,27,0,54,-7V692c0,0,-26,7,-71,7c0,0,-84,0,-128,-72c0,0,-44,-72,-44,-206V0Z" 
id="f0_2e"
transform="scale(0.001,-0.001)" />

<path d="M606,-14c0,0,-164,0,-284,65c0,0,-119,66,-182,189c0,0,-63,123,-63,291c0,0,0,255,137,396c0,0,137,140,386,140c0,0,174,0,283,-59c0,0,109,-59,168,-189L915,779c0,0,-44,90,-123,131c0,0,-79,41,-196,41c0,0,-182,0,-278,-110c0,0,-96,-110,-96,-310c0,0,0,-200,102,-315c0,0,102,-115,282,-115c0,0,103,0,193,31c0,0,89,31,144,85V407H629V526h445V164c0,0,-83,-85,-205,-132c0,0,-121,-46,-263,-46Z" 
id="f0_17"
transform="scale(0.001,-0.001)" />

<path d="M355,-14c0,0,-133,0,-194,65c0,0,-62,66,-62,219V808H234V296c0,0,0,-80,16,-124c0,0,16,-44,50,-64c0,0,34,-19,101,-19c0,0,97,0,153,66c0,0,55,67,55,185V808H744V172c0,0,0,-141,4,-172H621c0,0,0,4,-1,20c0,0,-1,17,-2,38c0,0,-1,21,-3,80h-2C613,138,567,55,506,20c0,0,-61,-34,-151,-34Z" 
id="f0_2h"
transform="scale(0.001,-0.001)" />

<path d="M395,89c0,0,115,0,166,79c0,0,51,79,51,246c0,0,0,160,-51,235c0,0,-51,75,-164,75c0,0,-102,0,-147,-75c0,0,-45,-75,-45,-244c0,0,0,-170,45,-243c0,0,45,-73,145,-73ZM361,-14c0,0,-153,0,-225,102c0,0,-72,103,-72,312c0,0,0,422,297,422c0,0,92,0,153,-33c0,0,61,-34,98,-107h2l-2,90v335H747V166c0,0,0,-126,4,-166H623c0,0,-2,12,-5,55c0,0,-3,44,-3,75h-3c0,0,-37,-78,-98,-111c0,0,-62,-33,-153,-33Z" 
id="f0_20"
transform="scale(0.001,-0.001)" />

<path d="M140,0V163H285V0Z" 
id="f0_i"
transform="scale(0.001,-0.001)" />


</defs>
</svg>