<?xml version="1.0" encoding="UTF-8" standalone="no"?>
<!DOCTYPE svg PUBLIC "-//W3C//DTD SVG 1.1//EN"
"http://www.w3.org/Graphics/SVG/1.1/DTD/svg11.dtd">
<svg viewBox="0 0 697 1056" version="1.1" xmlns="http://www.w3.org/2000/svg" xmlns:xlink="http://www.w3.org/1999/xlink">
<defs>
<style type="text/css"><![CDATA[
.g0_47{
fill: none;
stroke: #000000;
stroke-width: 0.7663334;
stroke-linecap: round;
stroke-linejoin: miter;
}
.g1_47{
fill: none;
stroke: #000000;
stroke-width: 0.15277778;
stroke-linecap: round;
stroke-linejoin: miter;
}
.g2_47{
}
.g3_47{
fill: none;
stroke: #000000;
stroke-width: 0.7638889;
stroke-linecap: round;
stroke-linejoin: miter;
}
.g4_47{
fill: none;
stroke: #000000;
stroke-width: 0.7526444;
stroke-linecap: round;
stroke-linejoin: miter;
}
.g5_47{
fill: none;
stroke: #000000;
stroke-width: 0.75924444;
stroke-linecap: round;
stroke-linejoin: miter;
}
]]></style>
</defs>
<g fill="#D4D4D4" fill-opacity="0.56" >
<use xlink:href="#f0_1f" transform="matrix(50.9,-50.9,50.9,50.9,86.2,924.1)" />
<use xlink:href="#f0_2a" transform="matrix(50.9,-50.9,50.9,50.9,146.7,863.6)" />
<use xlink:href="#f0_28" transform="matrix(50.9,-50.9,50.9,50.9,189.9,820.3)" />
<use xlink:href="#f0_25" transform="matrix(50.9,-50.9,50.9,50.9,207.2,803.1)" />
<use xlink:href="#f0_2a" transform="matrix(50.9,-50.9,50.9,50.9,224.5,785.8)" />
<use xlink:href="#f0_21" transform="matrix(50.9,-50.9,50.9,50.9,267.7,742.5)" />
<use xlink:href="#f0_2k" transform="matrix(50.9,-50.9,50.9,50.9,311,699.3)" />
<use xlink:href="#f0_1x" transform="matrix(50.9,-50.9,50.9,50.9,349.9,660.4)" />
<use xlink:href="#f0_29" transform="matrix(50.9,-50.9,50.9,50.9,393.1,617.2)" />
<use xlink:href="#f0_2c" transform="matrix(50.9,-50.9,50.9,50.9,457.9,552.4)" />
<use xlink:href="#f0_2b" transform="matrix(50.9,-50.9,50.9,50.9,501.1,509.1)" />
<use xlink:href="#f0_25" transform="matrix(50.9,-50.9,50.9,50.9,544.4,465.9)" />
<use xlink:href="#f0_2a" transform="matrix(50.9,-50.9,50.9,50.9,561.7,448.6)" />
<use xlink:href="#f0_2g" transform="matrix(50.9,-50.9,50.9,50.9,604.9,405.4)" />
</g>
<g fill="#000000" >
<use xlink:href="#f1_n" transform="matrix(10.4,0,0,10.4,42.8,21.5)" />
<use xlink:href="#f1_j" transform="matrix(10.4,0,0,10.4,51.7,21.5)" />
<use xlink:href="#f1_h" transform="matrix(10.4,0,0,10.4,60.9,21.5)" />
<use xlink:href="#f1_15" transform="matrix(10.4,0,0,10.4,83.6,21.5)" />
<use xlink:href="#f1_24" transform="matrix(10.4,0,0,10.4,93.3,21.5)" />
<use xlink:href="#f1_29" transform="matrix(10.4,0,0,10.4,96.8,21.5)" />
<use xlink:href="#f1_1z" transform="matrix(10.4,0,0,10.4,105.7,21.5)" />
<use xlink:href="#f1_2f" transform="matrix(10.4,0,0,10.4,120.3,21.5)" />
<use xlink:href="#f1_23" transform="matrix(10.4,0,0,10.4,124.7,21.5)" />
<use xlink:href="#f1_20" transform="matrix(10.4,0,0,10.4,133.6,21.5)" />
<use xlink:href="#f1_20" transform="matrix(10.4,0,0,10.4,148.1,21.5)" />
<use xlink:href="#f1_2c" transform="matrix(10.4,0,0,10.4,157,21.5)" />
<use xlink:href="#f1_2g" transform="matrix(10.4,0,0,10.4,165.8,21.5)" />
<use xlink:href="#f1_1w" transform="matrix(10.4,0,0,10.4,174.7,21.5)" />
<use xlink:href="#f1_2f" transform="matrix(10.4,0,0,10.4,183.6,21.5)" />
<use xlink:href="#f1_24" transform="matrix(10.4,0,0,10.4,188,21.5)" />
<use xlink:href="#f1_2a" transform="matrix(10.4,0,0,10.4,191.6,21.5)" />
<use xlink:href="#f1_29" transform="matrix(10.4,0,0,10.4,200.4,21.5)" />
<use xlink:href="#f1_2a" transform="matrix(10.4,0,0,10.4,215,21.5)" />
<use xlink:href="#f1_21" transform="matrix(10.4,0,0,10.4,223.9,21.5)" />
<use xlink:href="#f1_1w" transform="matrix(10.4,0,0,10.4,234,21.5)" />
<use xlink:href="#f1_27" transform="matrix(10.4,0,0,10.4,242.8,21.5)" />
<use xlink:href="#f1_27" transform="matrix(10.4,0,0,10.4,246.4,21.5)" />
<use xlink:href="#f1_27" transform="matrix(10.4,0,0,10.4,255.6,21.5)" />
<use xlink:href="#f1_24" transform="matrix(10.4,0,0,10.4,259.1,21.5)" />
<use xlink:href="#f1_29" transform="matrix(10.4,0,0,10.4,262.7,21.5)" />
<use xlink:href="#f1_20" transform="matrix(10.4,0,0,10.4,271.5,21.5)" />
<use xlink:href="#f1_2e" transform="matrix(10.4,0,0,10.4,280.4,21.5)" />
<use xlink:href="#f1_23" transform="matrix(10.4,0,0,10.4,294.1,21.5)" />
<use xlink:href="#f1_1w" transform="matrix(10.4,0,0,10.4,302.9,21.5)" />
<use xlink:href="#f1_2h" transform="matrix(10.4,0,0,10.4,311.8,21.5)" />
<use xlink:href="#f1_24" transform="matrix(10.4,0,0,10.4,319.8,21.5)" />
<use xlink:href="#f1_29" transform="matrix(10.4,0,0,10.4,323.3,21.5)" />
<use xlink:href="#f1_22" transform="matrix(10.4,0,0,10.4,332.2,21.5)" />
<use xlink:href="#f1_2e" transform="matrix(10.4,0,0,10.4,346.9,21.5)" />
<use xlink:href="#f1_27" transform="matrix(10.4,0,0,10.4,354.9,21.5)" />
<use xlink:href="#f1_2a" transform="matrix(10.4,0,0,10.4,358.5,21.5)" />
<use xlink:href="#f1_2b" transform="matrix(10.4,0,0,10.4,367.3,21.5)" />
<use xlink:href="#f1_20" transform="matrix(10.4,0,0,10.4,376.2,21.5)" />
<use xlink:href="#f1_2l" transform="matrix(10.4,0,0,10.4,390.7,21.5)" />
<use xlink:href="#f1_20" transform="matrix(10.4,0,0,10.4,398.7,21.5)" />
<use xlink:href="#f1_2d" transform="matrix(10.4,0,0,10.4,407.6,21.5)" />
<use xlink:href="#f1_2a" transform="matrix(10.4,0,0,10.4,412.9,21.5)" />
<use xlink:href="#f1_2i" transform="matrix(10.4,0,0,10.4,427.4,21.5)" />
<use xlink:href="#f1_23" transform="matrix(10.4,0,0,10.4,439,21.5)" />
<use xlink:href="#f1_24" transform="matrix(10.4,0,0,10.4,447.8,21.5)" />
<use xlink:href="#f1_1y" transform="matrix(10.4,0,0,10.4,451.4,21.5)" />
<use xlink:href="#f1_23" transform="matrix(10.4,0,0,10.4,459.3,21.5)" />
<use xlink:href="#f1_1w" transform="matrix(10.4,0,0,10.4,473.9,21.5)" />
<use xlink:href="#f1_2d" transform="matrix(10.4,0,0,10.4,482.8,21.5)" />
<use xlink:href="#f1_20" transform="matrix(10.4,0,0,10.4,488.1,21.5)" />
<use xlink:href="#f1_2f" transform="matrix(10.4,0,0,10.4,502.6,21.5)" />
<use xlink:href="#f1_1w" transform="matrix(10.4,0,0,10.4,507.1,21.5)" />
<use xlink:href="#f1_29" transform="matrix(10.4,0,0,10.4,515.9,21.5)" />
<use xlink:href="#f1_22" transform="matrix(10.4,0,0,10.4,524.8,21.5)" />
<use xlink:href="#f1_20" transform="matrix(10.4,0,0,10.4,533.7,21.5)" />
<use xlink:href="#f1_29" transform="matrix(10.4,0,0,10.4,542.5,21.5)" />
<use xlink:href="#f1_2f" transform="matrix(10.4,0,0,10.4,551.4,21.5)" />
<use xlink:href="#f1_2e" transform="matrix(10.4,0,0,10.4,555.8,21.5)" />
<use xlink:href="#f1_2f" transform="matrix(10.4,0,0,10.4,569.5,21.5)" />
<use xlink:href="#f1_2a" transform="matrix(10.4,0,0,10.4,573.9,21.5)" />
<use xlink:href="#f1_2f" transform="matrix(10.4,0,0,10.4,588.5,21.5)" />
<use xlink:href="#f1_23" transform="matrix(10.4,0,0,10.4,592.9,21.5)" />
<use xlink:href="#f1_20" transform="matrix(10.4,0,0,10.4,601.8,21.5)" />
<use xlink:href="#f1_1y" transform="matrix(10.4,0,0,10.4,83.6,56.7)" />
<use xlink:href="#f1_2g" transform="matrix(10.4,0,0,10.4,91.5,56.7)" />
<use xlink:href="#f1_2d" transform="matrix(10.4,0,0,10.4,100.4,56.7)" />
<use xlink:href="#f1_2h" transform="matrix(10.4,0,0,10.4,105.7,56.7)" />
<use xlink:href="#f1_20" transform="matrix(10.4,0,0,10.4,113.7,56.7)" />
</g>
<path d="M161.2,52.2h78.9" class="g0_47" />
<g fill="#000000" >
<use xlink:href="#f1_l" transform="matrix(7,0,0,7.1,172.7,62.9)" />
<use xlink:href="#f1_k" transform="matrix(10.6,0,0,10.6,197,45.9)" />
<use xlink:href="#f1_h" transform="matrix(10.6,0,0,10.6,241.8,56.5)" />
<use xlink:href="#f1_l" transform="matrix(10.6,0,0,10.6,195.9,70.2)" />
<use xlink:href="#f1_m" transform="matrix(10.6,0,0,10.6,230.6,70.2)" />
<use xlink:href="#f2_2k" transform="matrix(10.6,0,0,10.6,132.8,56.5)" />
<use xlink:href="#f2_2j" transform="matrix(10.6,0,0,10.6,162.2,70.2)" />
<use xlink:href="#f2_2j" transform="matrix(10.6,0,0,10.6,205,70.2)" />
<use xlink:href="#f3_x" transform="matrix(10.6,0,0,10.6,147.3,56.5)" />
<use xlink:href="#f3_h" transform="matrix(10.6,0,0,10.6,183.8,70.2)" />
<use xlink:href="#f3_f" transform="matrix(10.6,0,0,10.6,218.3,70.2)" />
<use xlink:href="#f1_n" transform="matrix(10.4,0,0,10.4,42.8,98.1)" />
<use xlink:href="#f1_k" transform="matrix(10.4,0,0,10.4,51.7,98.1)" />
<use xlink:href="#f1_h" transform="matrix(10.4,0,0,10.4,60.9,98.1)" />
<use xlink:href="#f1_1f" transform="matrix(10.4,0,0,10.4,83.6,98.1)" />
<use xlink:href="#f1_2d" transform="matrix(10.4,0,0,10.4,94.2,98.1)" />
<use xlink:href="#f1_2a" transform="matrix(10.4,0,0,10.4,99.5,98.1)" />
<use xlink:href="#f1_2h" transform="matrix(10.4,0,0,10.4,108.4,98.1)" />
<use xlink:href="#f1_20" transform="matrix(10.4,0,0,10.4,116.3,98.1)" />
<use xlink:href="#f1_2f" transform="matrix(10.4,0,0,10.4,132.2,98.1)" />
<use xlink:href="#f1_23" transform="matrix(10.4,0,0,10.4,136.6,98.1)" />
<use xlink:href="#f1_1w" transform="matrix(10.4,0,0,10.4,145.5,98.1)" />
<use xlink:href="#f1_2f" transform="matrix(10.4,0,0,10.4,154.4,98.1)" />
<use xlink:href="#f1_2f" transform="matrix(10.4,0,0,10.4,165.6,98.1)" />
<use xlink:href="#f1_23" transform="matrix(10.4,0,0,10.4,170,98.1)" />
<use xlink:href="#f1_20" transform="matrix(10.4,0,0,10.4,178.9,98.1)" />
<use xlink:href="#f1_1y" transform="matrix(10.4,0,0,10.4,194.7,98.1)" />
<use xlink:href="#f1_2g" transform="matrix(10.4,0,0,10.4,202.7,98.1)" />
<use xlink:href="#f1_2d" transform="matrix(10.4,0,0,10.4,211.6,98.1)" />
<use xlink:href="#f1_2h" transform="matrix(10.4,0,0,10.4,216.9,98.1)" />
<use xlink:href="#f1_20" transform="matrix(10.4,0,0,10.4,224.9,98.1)" />
<use xlink:href="#f1_2e" transform="matrix(10.4,0,0,10.4,233.7,98.1)" />
<use xlink:href="#f2_2j" transform="matrix(10.4,0,0,10.4,248.4,98.1)" />
<use xlink:href="#f1_w" transform="matrix(10.4,0,0,10.4,263.4,98.1)" />
<use xlink:href="#f2_2k" transform="matrix(10.4,0,0,10.4,279.7,98.1)" />
<use xlink:href="#f1_l" transform="matrix(7.4,0,0,7.4,287.8,92.8)" />
<use xlink:href="#f1_1w" transform="matrix(10.4,0,0,10.4,300.8,98.1)" />
<use xlink:href="#f1_29" transform="matrix(10.4,0,0,10.4,309.7,98.1)" />
<use xlink:href="#f1_1z" transform="matrix(10.4,0,0,10.4,318.6,98.1)" />
<use xlink:href="#f2_2j" transform="matrix(10.4,0,0,10.4,334.2,98.1)" />
<use xlink:href="#f2_2k" transform="matrix(10.4,0,0,10.4,342.2,98.1)" />
<use xlink:href="#f1_w" transform="matrix(10.4,0,0,10.4,357.3,98.1)" />
<use xlink:href="#f2_26" transform="matrix(10.4,0,0,10.4,373.6,98.1)" />
<use xlink:href="#f1_1y" transform="matrix(10.4,0,0,10.4,388.7,98.1)" />
<use xlink:href="#f1_2g" transform="matrix(10.4,0,0,10.4,396.6,98.1)" />
<use xlink:href="#f1_2f" transform="matrix(10.4,0,0,10.4,405.5,98.1)" />
<use xlink:href="#f1_1w" transform="matrix(10.4,0,0,10.4,416.9,98.1)" />
<use xlink:href="#f1_2f" transform="matrix(10.4,0,0,10.4,425.8,98.1)" />
<use xlink:href="#f1_2d" transform="matrix(10.4,0,0,10.4,437,98.1)" />
<use xlink:href="#f1_24" transform="matrix(10.4,0,0,10.4,442.3,98.1)" />
<use xlink:href="#f1_22" transform="matrix(10.4,0,0,10.4,445.8,98.1)" />
<use xlink:href="#f1_23" transform="matrix(10.4,0,0,10.4,454.7,98.1)" />
<use xlink:href="#f1_2f" transform="matrix(10.4,0,0,10.4,463.6,98.1)" />
<use xlink:href="#f1_1w" transform="matrix(10.4,0,0,10.4,475,98.1)" />
<use xlink:href="#f1_29" transform="matrix(10.4,0,0,10.4,483.9,98.1)" />
<use xlink:href="#f1_22" transform="matrix(10.4,0,0,10.4,492.7,98.1)" />
<use xlink:href="#f1_27" transform="matrix(10.4,0,0,10.4,501.6,98.1)" />
<use xlink:href="#f1_20" transform="matrix(10.4,0,0,10.4,505.1,98.1)" />
<use xlink:href="#f1_2e" transform="matrix(10.4,0,0,10.4,514,98.1)" />
<use xlink:href="#f1_24" transform="matrix(10.4,0,0,10.4,529,98.1)" />
<use xlink:href="#f1_21" transform="matrix(10.4,0,0,10.4,532.5,98.1)" />
<use xlink:href="#f1_r" transform="matrix(10.4,0,0,10.4,543.9,98.1)" />
<use xlink:href="#f2_26" transform="matrix(10.4,0,0,10.4,552,98.1)" />
<use xlink:href="#f1_l" transform="matrix(7.4,0,0,7.4,560.1,92.8)" />
<use xlink:href="#f1_w" transform="matrix(10.4,0,0,10.4,573.3,98.1)" />
<use xlink:href="#f1_k" transform="matrix(10.4,0,0,10.4,589.6,98.1)" />
<use xlink:href="#f1_h" transform="matrix(10.4,0,0,10.4,598.5,98.1)" />
<use xlink:href="#f1_n" transform="matrix(10.4,0,0,10.4,42.8,132)" />
<use xlink:href="#f1_l" transform="matrix(10.4,0,0,10.4,51.7,132)" />
<use xlink:href="#f1_h" transform="matrix(10.4,0,0,10.4,60.9,132)" />
<use xlink:href="#f1_15" transform="matrix(10.4,0,0,10.4,83.6,132)" />
<use xlink:href="#f1_24" transform="matrix(10.4,0,0,10.4,93.3,132)" />
<use xlink:href="#f1_29" transform="matrix(10.4,0,0,10.4,96.8,132)" />
<use xlink:href="#f1_1z" transform="matrix(10.4,0,0,10.4,105.7,132)" />
<use xlink:href="#f1_2f" transform="matrix(10.4,0,0,10.4,122.8,132)" />
<use xlink:href="#f1_23" transform="matrix(10.4,0,0,10.4,127.3,132)" />
<use xlink:href="#f1_20" transform="matrix(10.4,0,0,10.4,136.1,132)" />
<use xlink:href="#f1_20" transform="matrix(10.4,0,0,10.4,153.2,132)" />
<use xlink:href="#f1_2c" transform="matrix(10.4,0,0,10.4,162.1,132)" />
<use xlink:href="#f1_2g" transform="matrix(10.4,0,0,10.4,171,132)" />
<use xlink:href="#f1_1w" transform="matrix(10.4,0,0,10.4,179.9,132)" />
<use xlink:href="#f1_2f" transform="matrix(10.4,0,0,10.4,188.7,132)" />
<use xlink:href="#f1_24" transform="matrix(10.4,0,0,10.4,193.2,132)" />
<use xlink:href="#f1_2a" transform="matrix(10.4,0,0,10.4,196.7,132)" />
<use xlink:href="#f1_29" transform="matrix(10.4,0,0,10.4,205.6,132)" />
<use xlink:href="#f1_2a" transform="matrix(10.4,0,0,10.4,222.5,132)" />
<use xlink:href="#f1_21" transform="matrix(10.4,0,0,10.4,231.4,132)" />
<use xlink:href="#f1_2f" transform="matrix(10.4,0,0,10.4,244.1,132)" />
<use xlink:href="#f1_23" transform="matrix(10.4,0,0,10.4,248.5,132)" />
<use xlink:href="#f1_20" transform="matrix(10.4,0,0,10.4,257.4,132)" />
<use xlink:href="#f1_29" transform="matrix(10.4,0,0,10.4,274.5,132)" />
<use xlink:href="#f1_2a" transform="matrix(10.4,0,0,10.4,283.4,132)" />
<use xlink:href="#f1_2d" transform="matrix(10.4,0,0,10.4,292.2,132)" />
<use xlink:href="#f1_28" transform="matrix(10.4,0,0,10.4,297.5,132)" />
<use xlink:href="#f1_1w" transform="matrix(10.4,0,0,10.4,310.8,132)" />
<use xlink:href="#f1_27" transform="matrix(10.4,0,0,10.4,319.7,132)" />
<use xlink:href="#f1_1w" transform="matrix(10.4,0,0,10.4,331.5,132)" />
<use xlink:href="#f1_2f" transform="matrix(10.4,0,0,10.4,340.3,132)" />
<use xlink:href="#f1_2f" transform="matrix(10.4,0,0,10.4,352.9,132)" />
<use xlink:href="#f1_23" transform="matrix(10.4,0,0,10.4,357.3,132)" />
<use xlink:href="#f1_20" transform="matrix(10.4,0,0,10.4,366.2,132)" />
<use xlink:href="#f1_2b" transform="matrix(10.4,0,0,10.4,383.3,132)" />
<use xlink:href="#f1_2a" transform="matrix(10.4,0,0,10.4,392.1,132)" />
<use xlink:href="#f1_24" transform="matrix(10.4,0,0,10.4,401,132)" />
<use xlink:href="#f1_29" transform="matrix(10.4,0,0,10.4,404.6,132)" />
<use xlink:href="#f1_2f" transform="matrix(10.4,0,0,10.4,413.4,132)" />
<use xlink:href="#f1_b" transform="matrix(10.4,0,0,10.4,426.1,132)" />
<use xlink:href="#f2_1w" transform="matrix(10.4,0,0,10.4,429.4,132)" />
<use xlink:href="#f2_28" transform="matrix(10.4,0,0,10.4,438.2,132)" />
<use xlink:href="#f1_l" transform="matrix(7.4,0,0,7.4,451.4,126.7)" />
<use xlink:href="#f1_f" transform="matrix(10.4,0,0,10.4,457.6,132)" />
<use xlink:href="#f2_1w" transform="matrix(10.4,0,0,10.4,470.3,132)" />
<use xlink:href="#f2_28" transform="matrix(10.4,0,0,10.4,479.1,132)" />
<use xlink:href="#f1_m" transform="matrix(7.4,0,0,7.4,492.3,126.7)" />
<use xlink:href="#f1_c" transform="matrix(10.4,0,0,10.4,498.5,132)" />
<use xlink:href="#f1_21" transform="matrix(10.4,0,0,10.4,512,132)" />
<use xlink:href="#f1_2a" transform="matrix(10.4,0,0,10.4,516.5,132)" />
<use xlink:href="#f1_2d" transform="matrix(10.4,0,0,10.4,525.4,132)" />
<use xlink:href="#f1_2f" transform="matrix(10.4,0,0,10.4,538.9,132)" />
<use xlink:href="#f1_23" transform="matrix(10.4,0,0,10.4,543.3,132)" />
<use xlink:href="#f1_20" transform="matrix(10.4,0,0,10.4,552.2,132)" />
<use xlink:href="#f1_1y" transform="matrix(10.4,0,0,10.4,569.3,132)" />
<use xlink:href="#f1_2g" transform="matrix(10.4,0,0,10.4,577.3,132)" />
<use xlink:href="#f1_2d" transform="matrix(10.4,0,0,10.4,586.2,132)" />
<use xlink:href="#f1_2h" transform="matrix(10.4,0,0,10.4,591.5,132)" />
<use xlink:href="#f1_20" transform="matrix(10.4,0,0,10.4,599.5,132)" />
<use xlink:href="#f2_1w" transform="matrix(10.4,0,0,10.4,83.6,152.2)" />
<use xlink:href="#f2_2k" transform="matrix(10.4,0,0,10.4,92.4,152.2)" />
<use xlink:href="#f1_l" transform="matrix(7.4,0,0,7.4,100.4,146.9)" />
<use xlink:href="#f1_w" transform="matrix(10.4,0,0,10.4,113.4,152.2)" />
<use xlink:href="#f2_2j" transform="matrix(10.4,0,0,10.4,129.6,152.2)" />
<use xlink:href="#f1_m" transform="matrix(7.4,0,0,7.4,137.6,146.9)" />
<use xlink:href="#f1_h" transform="matrix(10.4,0,0,10.4,143.9,152.2)" />
<use xlink:href="#f1_n" transform="matrix(10.4,0,0,10.4,42.8,186.1)" />
<use xlink:href="#f1_m" transform="matrix(10.4,0,0,10.4,51.7,186.1)" />
<use xlink:href="#f1_h" transform="matrix(10.4,0,0,10.4,60.9,186.1)" />
<use xlink:href="#f1_1i" transform="matrix(10.4,0,0,10.4,83.6,186.1)" />
<use xlink:href="#f1_23" transform="matrix(10.4,0,0,10.4,94.2,186.1)" />
<use xlink:href="#f1_2a" transform="matrix(10.4,0,0,10.4,103.1,186.1)" />
<use xlink:href="#f1_2i" transform="matrix(10.4,0,0,10.4,111.9,186.1)" />
<use xlink:href="#f1_2f" transform="matrix(10.4,0,0,10.4,129.1,186.1)" />
<use xlink:href="#f1_23" transform="matrix(10.4,0,0,10.4,133.6,186.1)" />
<use xlink:href="#f1_1w" transform="matrix(10.4,0,0,10.4,142.4,186.1)" />
<use xlink:href="#f1_2f" transform="matrix(10.4,0,0,10.4,151.3,186.1)" />
<use xlink:href="#f1_2f" transform="matrix(10.4,0,0,10.4,161.2,186.1)" />
<use xlink:href="#f1_23" transform="matrix(10.4,0,0,10.4,165.7,186.1)" />
<use xlink:href="#f1_20" transform="matrix(10.4,0,0,10.4,174.5,186.1)" />
<use xlink:href="#f1_1y" transform="matrix(10.4,0,0,10.4,189.1,186.1)" />
<use xlink:href="#f1_2g" transform="matrix(10.4,0,0,10.4,197.1,186.1)" />
<use xlink:href="#f1_2d" transform="matrix(10.4,0,0,10.4,205.9,186.1)" />
<use xlink:href="#f1_2h" transform="matrix(10.4,0,0,10.4,211.2,186.1)" />
<use xlink:href="#f1_20" transform="matrix(10.4,0,0,10.4,219.2,186.1)" />
<use xlink:href="#f1_2e" transform="matrix(10.4,0,0,10.4,228.1,186.1)" />
<use xlink:href="#f1_n" transform="matrix(10.4,0,0,10.4,241.7,186.1)" />
<use xlink:href="#f2_2j" transform="matrix(10.4,0,0,10.4,250.2,186.1)" />
<use xlink:href="#f1_w" transform="matrix(10.4,0,0,10.4,264,186.1)" />
<use xlink:href="#f2_2k" transform="matrix(10.4,0,0,10.4,279,186.1)" />
<use xlink:href="#f1_l" transform="matrix(7.4,0,0,7.4,287.1,180.8)" />
<use xlink:href="#f1_1w" transform="matrix(10.4,0,0,10.4,299,186.1)" />
<use xlink:href="#f1_29" transform="matrix(10.4,0,0,10.4,307.9,186.1)" />
<use xlink:href="#f1_1z" transform="matrix(10.4,0,0,10.4,316.7,186.1)" />
<use xlink:href="#f1_n" transform="matrix(10.4,0,0,10.4,331.3,186.1)" />
<use xlink:href="#f2_2j" transform="matrix(10.4,0,0,10.4,339.9,186.1)" />
<use xlink:href="#f2_2k" transform="matrix(10.4,0,0,10.4,347.9,186.1)" />
<use xlink:href="#f1_w" transform="matrix(10.4,0,0,10.4,361.5,186.1)" />
<use xlink:href="#f2_26" transform="matrix(10.4,0,0,10.4,376.6,186.1)" />
<use xlink:href="#f1_1y" transform="matrix(10.4,0,0,10.4,390.3,186.1)" />
<use xlink:href="#f1_2g" transform="matrix(10.4,0,0,10.4,398.3,186.1)" />
<use xlink:href="#f1_2f" transform="matrix(10.4,0,0,10.4,407.1,186.1)" />
<use xlink:href="#f1_1w" transform="matrix(10.4,0,0,10.4,417.3,186.1)" />
<use xlink:href="#f1_2e" transform="matrix(10.4,0,0,10.4,426.1,186.1)" />
<use xlink:href="#f1_2d" transform="matrix(10.4,0,0,10.4,439.8,186.1)" />
<use xlink:href="#f1_24" transform="matrix(10.4,0,0,10.4,445.1,186.1)" />
<use xlink:href="#f1_22" transform="matrix(10.4,0,0,10.4,448.6,186.1)" />
<use xlink:href="#f1_23" transform="matrix(10.4,0,0,10.4,457.5,186.1)" />
<use xlink:href="#f1_2f" transform="matrix(10.4,0,0,10.4,466.4,186.1)" />
<use xlink:href="#f1_1w" transform="matrix(10.4,0,0,10.4,476.5,186.1)" />
<use xlink:href="#f1_29" transform="matrix(10.4,0,0,10.4,485.4,186.1)" />
<use xlink:href="#f1_22" transform="matrix(10.4,0,0,10.4,494.2,186.1)" />
<use xlink:href="#f1_27" transform="matrix(10.4,0,0,10.4,503.1,186.1)" />
<use xlink:href="#f1_20" transform="matrix(10.4,0,0,10.4,506.6,186.1)" />
<use xlink:href="#f1_2e" transform="matrix(10.4,0,0,10.4,515.5,186.1)" />
<use xlink:href="#f1_24" transform="matrix(10.4,0,0,10.4,529.2,186.1)" />
<use xlink:href="#f1_21" transform="matrix(10.4,0,0,10.4,532.7,186.1)" />
<use xlink:href="#f2_26" transform="matrix(10.4,0,0,10.4,542.3,186.1)" />
<use xlink:href="#f1_l" transform="matrix(7.4,0,0,7.4,550.4,180.8)" />
<use xlink:href="#f1_w" transform="matrix(10.4,0,0,10.4,562.3,186.1)" />
<use xlink:href="#f1_o" transform="matrix(10.4,0,0,10.4,577.3,186.1)" />
<use xlink:href="#f1_k" transform="matrix(10.4,0,0,10.4,586.2,186.1)" />
<use xlink:href="#f1_l" transform="matrix(10.4,0,0,10.4,595,186.1)" />
<use xlink:href="#f1_h" transform="matrix(10.4,0,0,10.4,603.9,186.1)" />
<use xlink:href="#f1_n" transform="matrix(10.4,0,0,10.4,42.8,224.1)" />
<use xlink:href="#f1_n" transform="matrix(10.4,0,0,10.4,51.7,224.1)" />
<use xlink:href="#f1_h" transform="matrix(10.4,0,0,10.4,60.9,224.1)" />
<use xlink:href="#f1_15" transform="matrix(10.4,0,0,10.4,83.6,224.1)" />
<use xlink:href="#f1_24" transform="matrix(10.4,0,0,10.4,93.3,224.1)" />
<use xlink:href="#f1_29" transform="matrix(10.4,0,0,10.4,96.8,224.1)" />
<use xlink:href="#f1_1z" transform="matrix(10.4,0,0,10.4,105.7,224.1)" />
<use xlink:href="#f1_2f" transform="matrix(10.4,0,0,10.4,119,224.1)" />
<use xlink:href="#f1_23" transform="matrix(10.4,0,0,10.4,123.4,224.1)" />
<use xlink:href="#f1_20" transform="matrix(10.4,0,0,10.4,132.3,224.1)" />
<use xlink:href="#f1_20" transform="matrix(10.4,0,0,10.4,145.6,224.1)" />
<use xlink:href="#f1_2c" transform="matrix(10.4,0,0,10.4,154.5,224.1)" />
<use xlink:href="#f1_2g" transform="matrix(10.4,0,0,10.4,163.4,224.1)" />
<use xlink:href="#f1_1w" transform="matrix(10.4,0,0,10.4,172.2,224.1)" />
<use xlink:href="#f1_2f" transform="matrix(10.4,0,0,10.4,181.1,224.1)" />
<use xlink:href="#f1_24" transform="matrix(10.4,0,0,10.4,185.5,224.1)" />
<use xlink:href="#f1_2a" transform="matrix(10.4,0,0,10.4,189.1,224.1)" />
<use xlink:href="#f1_29" transform="matrix(10.4,0,0,10.4,197.9,224.1)" />
<use xlink:href="#f1_2a" transform="matrix(10.4,0,0,10.4,211.2,224.1)" />
<use xlink:href="#f1_21" transform="matrix(10.4,0,0,10.4,220.1,224.1)" />
<use xlink:href="#f1_2f" transform="matrix(10.4,0,0,10.4,229,224.1)" />
<use xlink:href="#f1_23" transform="matrix(10.4,0,0,10.4,233.4,224.1)" />
<use xlink:href="#f1_20" transform="matrix(10.4,0,0,10.4,242.3,224.1)" />
<use xlink:href="#f1_2f" transform="matrix(10.4,0,0,10.4,255.6,224.1)" />
<use xlink:href="#f1_1w" transform="matrix(10.4,0,0,10.4,260,224.1)" />
<use xlink:href="#f1_29" transform="matrix(10.4,0,0,10.4,268.9,224.1)" />
<use xlink:href="#f1_22" transform="matrix(10.4,0,0,10.4,277.7,224.1)" />
<use xlink:href="#f1_20" transform="matrix(10.4,0,0,10.4,286.6,224.1)" />
<use xlink:href="#f1_29" transform="matrix(10.4,0,0,10.4,295.5,224.1)" />
<use xlink:href="#f1_2f" transform="matrix(10.4,0,0,10.4,304.4,224.1)" />
<use xlink:href="#f1_2f" transform="matrix(10.4,0,0,10.4,313.2,224.1)" />
<use xlink:href="#f1_2a" transform="matrix(10.4,0,0,10.4,317.7,224.1)" />
<use xlink:href="#f1_2f" transform="matrix(10.4,0,0,10.4,331,224.1)" />
<use xlink:href="#f1_23" transform="matrix(10.4,0,0,10.4,335.4,224.1)" />
<use xlink:href="#f1_20" transform="matrix(10.4,0,0,10.4,344.3,224.1)" />
<use xlink:href="#f1_1y" transform="matrix(10.4,0,0,10.4,357.6,224.1)" />
<use xlink:href="#f1_2g" transform="matrix(10.4,0,0,10.4,365.5,224.1)" />
<use xlink:href="#f1_2d" transform="matrix(10.4,0,0,10.4,374.4,224.1)" />
<use xlink:href="#f1_2h" transform="matrix(10.4,0,0,10.4,379.7,224.1)" />
<use xlink:href="#f1_20" transform="matrix(10.4,0,0,10.4,387.7,224.1)" />
</g>
<path d="M432.1,220.4l1.7,-.9l3.9,6.4l4.3,-17h44.7" class="g1_47" />
<path fill-rule="evenodd" d="M432,220.2l2.2,-1.2l3.5,5.4l4,-15.9h45v.7H442.3l-4.2,16.7h-.8L433.4,220l-1.1,.6l-.3,-.4Z" class="g2_47" />
<g fill="#000000" >
<use xlink:href="#f1_m" transform="matrix(10.6,0,0,10.5,442.5,224.5)" />
<use xlink:href="#f1_l" transform="matrix(10.6,0,0,10.5,477.4,224.5)" />
<use xlink:href="#f2_2k" transform="matrix(10.6,0,0,10.5,403.6,224.5)" />
<use xlink:href="#f2_2j" transform="matrix(10.6,0,0,10.5,451.8,224.5)" />
<use xlink:href="#f3_x" transform="matrix(10.6,0,0,10.5,418.1,224.5)" />
<use xlink:href="#f3_h" transform="matrix(10.6,0,0,10.5,465.3,224.5)" />
<use xlink:href="#f1_2i" transform="matrix(10.4,0,0,10.4,495.5,224)" />
<use xlink:href="#f1_23" transform="matrix(10.4,0,0,10.4,507,224)" />
<use xlink:href="#f1_24" transform="matrix(10.4,0,0,10.4,515.9,224)" />
<use xlink:href="#f1_1y" transform="matrix(10.4,0,0,10.4,519.5,224)" />
<use xlink:href="#f1_23" transform="matrix(10.4,0,0,10.4,527.4,224)" />
<use xlink:href="#f1_24" transform="matrix(10.4,0,0,10.4,540.7,224)" />
<use xlink:href="#f1_2e" transform="matrix(10.4,0,0,10.4,544.3,224)" />
<use xlink:href="#f1_2b" transform="matrix(10.4,0,0,10.4,556.7,224)" />
<use xlink:href="#f1_1w" transform="matrix(10.4,0,0,10.4,565.6,224)" />
<use xlink:href="#f1_2d" transform="matrix(10.4,0,0,10.4,574.4,224)" />
<use xlink:href="#f1_1w" transform="matrix(10.4,0,0,10.4,579.7,224)" />
<use xlink:href="#f1_27" transform="matrix(10.4,0,0,10.4,588.6,224)" />
<use xlink:href="#f1_27" transform="matrix(10.4,0,0,10.4,592.1,224)" />
<use xlink:href="#f1_20" transform="matrix(10.4,0,0,10.4,595.7,224)" />
<use xlink:href="#f1_27" transform="matrix(10.4,0,0,10.4,604.6,224)" />
<use xlink:href="#f1_2f" transform="matrix(10.4,0,0,10.4,83.5,246)" />
<use xlink:href="#f1_2a" transform="matrix(10.4,0,0,10.4,87.9,246)" />
<use xlink:href="#f1_2f" transform="matrix(10.4,0,0,10.4,103.6,246)" />
<use xlink:href="#f1_23" transform="matrix(10.4,0,0,10.4,108,246)" />
<use xlink:href="#f1_20" transform="matrix(10.4,0,0,10.4,116.9,246)" />
<use xlink:href="#f1_27" transform="matrix(10.4,0,0,10.4,132.7,246)" />
<use xlink:href="#f1_24" transform="matrix(10.4,0,0,10.4,136.3,246)" />
<use xlink:href="#f1_29" transform="matrix(10.4,0,0,10.4,139.8,246)" />
<use xlink:href="#f1_20" transform="matrix(10.4,0,0,10.4,148.7,246)" />
<use xlink:href="#f1_n" transform="matrix(10.4,0,0,10.4,164.3,246)" />
<use xlink:href="#f2_2j" transform="matrix(10.4,0,0,10.4,172.6,246)" />
<use xlink:href="#f1_99" transform="matrix(10.4,0,0,10.4,187.5,246)" />
<use xlink:href="#f2_2k" transform="matrix(10.4,0,0,10.4,203.2,246)" />
<use xlink:href="#f1_e" transform="matrix(10.4,0,0,10.4,218.3,246)" />
<use xlink:href="#f1_o" transform="matrix(10.4,0,0,10.4,234.4,246)" />
<use xlink:href="#f1_w" transform="matrix(10.4,0,0,10.4,250.2,246)" />
<use xlink:href="#f1_j" transform="matrix(10.4,0,0,10.4,266.5,246)" />
<use xlink:href="#f1_h" transform="matrix(10.4,0,0,10.4,275.4,246)" />
</g>
<path d="M427.3,278.6l1.6,-.9l3.9,6.3L437,267.3h11.5" class="g1_47" />
<path fill-rule="evenodd" d="M427.2,278.4l2.1,-1.2l3.5,5.3l4,-15.6h11.7v.8H437.3L433.2,284h-.7l-4,-5.9l-1,.7l-.3,-.4Z" class="g2_47" />
<path d="M465.1,280.9l1.5,-1l3.9,7.6l4.2,-20.2h11.7" class="g1_47" />
<path fill-rule="evenodd" d="M464.9,280.7l2.1,-1.4l3.5,6.3l4,-18.7h11.9v.8H475l-4.1,19.8h-.8l-3.9,-7.1l-1,.7l-.3,-.4Z" class="g2_47" />
<g fill="#000000" >
<use xlink:href="#f1_n" transform="matrix(10.4,0,0,10.4,42.8,281.6)" />
<use xlink:href="#f1_o" transform="matrix(10.4,0,0,10.4,51.7,281.6)" />
<use xlink:href="#f1_h" transform="matrix(10.4,0,0,10.4,60.9,281.6)" />
<use xlink:href="#f1_15" transform="matrix(10.4,0,0,10.4,83.6,281.6)" />
<use xlink:href="#f1_24" transform="matrix(10.4,0,0,10.4,93.3,281.6)" />
<use xlink:href="#f1_29" transform="matrix(10.4,0,0,10.4,96.8,281.6)" />
<use xlink:href="#f1_1z" transform="matrix(10.4,0,0,10.4,105.7,281.6)" />
<use xlink:href="#f1_2f" transform="matrix(10.4,0,0,10.4,121.7,281.6)" />
<use xlink:href="#f1_23" transform="matrix(10.4,0,0,10.4,126.2,281.6)" />
<use xlink:href="#f1_20" transform="matrix(10.4,0,0,10.4,135,281.6)" />
<use xlink:href="#f1_20" transform="matrix(10.4,0,0,10.4,151.2,281.6)" />
<use xlink:href="#f1_2c" transform="matrix(10.4,0,0,10.4,160.1,281.6)" />
<use xlink:href="#f1_2g" transform="matrix(10.4,0,0,10.4,169,281.6)" />
<use xlink:href="#f1_1w" transform="matrix(10.4,0,0,10.4,177.8,281.6)" />
<use xlink:href="#f1_2f" transform="matrix(10.4,0,0,10.4,186.7,281.6)" />
<use xlink:href="#f1_24" transform="matrix(10.4,0,0,10.4,191.1,281.6)" />
<use xlink:href="#f1_2a" transform="matrix(10.4,0,0,10.4,194.7,281.6)" />
<use xlink:href="#f1_29" transform="matrix(10.4,0,0,10.4,203.5,281.6)" />
<use xlink:href="#f1_2a" transform="matrix(10.4,0,0,10.4,219.6,281.6)" />
<use xlink:href="#f1_21" transform="matrix(10.4,0,0,10.4,228.4,281.6)" />
<use xlink:href="#f1_2f" transform="matrix(10.4,0,0,10.4,240,281.6)" />
<use xlink:href="#f1_23" transform="matrix(10.4,0,0,10.4,244.4,281.6)" />
<use xlink:href="#f1_20" transform="matrix(10.4,0,0,10.4,253.3,281.6)" />
<use xlink:href="#f1_2f" transform="matrix(10.4,0,0,10.4,269.5,281.6)" />
<use xlink:href="#f1_1w" transform="matrix(10.4,0,0,10.4,274,281.6)" />
<use xlink:href="#f1_29" transform="matrix(10.4,0,0,10.4,282.8,281.6)" />
<use xlink:href="#f1_22" transform="matrix(10.4,0,0,10.4,291.7,281.6)" />
<use xlink:href="#f1_20" transform="matrix(10.4,0,0,10.4,300.6,281.6)" />
<use xlink:href="#f1_29" transform="matrix(10.4,0,0,10.4,309.4,281.6)" />
<use xlink:href="#f1_2f" transform="matrix(10.4,0,0,10.4,318.3,281.6)" />
<use xlink:href="#f1_2f" transform="matrix(10.4,0,0,10.4,329.9,281.6)" />
<use xlink:href="#f1_2a" transform="matrix(10.4,0,0,10.4,334.3,281.6)" />
<use xlink:href="#f1_2f" transform="matrix(10.4,0,0,10.4,350.3,281.6)" />
<use xlink:href="#f1_23" transform="matrix(10.4,0,0,10.4,354.8,281.6)" />
<use xlink:href="#f1_20" transform="matrix(10.4,0,0,10.4,363.6,281.6)" />
<use xlink:href="#f1_1y" transform="matrix(10.4,0,0,10.4,379.8,281.6)" />
<use xlink:href="#f1_2g" transform="matrix(10.4,0,0,10.4,387.8,281.6)" />
<use xlink:href="#f1_2d" transform="matrix(10.4,0,0,10.4,396.7,281.6)" />
<use xlink:href="#f1_2h" transform="matrix(10.4,0,0,10.4,402,281.6)" />
<use xlink:href="#f1_20" transform="matrix(10.4,0,0,10.4,410,281.6)" />
<use xlink:href="#f2_2j" transform="matrix(10.4,0,0,10.4,437.8,282.8)" />
<use xlink:href="#f3_f" transform="matrix(10.4,0,0,10.4,452.2,282.8)" />
<use xlink:href="#f2_2k" transform="matrix(10.4,0,0,10.4,475.7,282.8)" />
<use xlink:href="#f3_x" transform="matrix(10.4,0,0,10.4,491.3,282.8)" />
<use xlink:href="#f2_1w" transform="matrix(10.4,0,0,10.4,504.1,282.8)" />
<use xlink:href="#f1_1w" transform="matrix(10.4,0,0,10.4,524.1,281.6)" />
<use xlink:href="#f1_2f" transform="matrix(10.4,0,0,10.4,533,281.6)" />
<use xlink:href="#f1_2f" transform="matrix(10.4,0,0,10.4,544.7,281.6)" />
<use xlink:href="#f1_23" transform="matrix(10.4,0,0,10.4,549.2,281.6)" />
<use xlink:href="#f1_20" transform="matrix(10.4,0,0,10.4,558,281.6)" />
<use xlink:href="#f1_2b" transform="matrix(10.4,0,0,10.4,574.1,281.6)" />
<use xlink:href="#f1_2a" transform="matrix(10.4,0,0,10.4,582.9,281.6)" />
<use xlink:href="#f1_24" transform="matrix(10.4,0,0,10.4,591.8,281.6)" />
<use xlink:href="#f1_29" transform="matrix(10.4,0,0,10.4,595.3,281.6)" />
<use xlink:href="#f1_2f" transform="matrix(10.4,0,0,10.4,604.2,281.6)" />
<use xlink:href="#f3_4p" transform="matrix(10.5,0,0,10.4,86.1,326.7)" />
<use xlink:href="#f3_4q" transform="matrix(10.5,0,0,10.4,86.1,333.5)" />
<use xlink:href="#f1_f" transform="matrix(10.5,0,0,10.4,114.6,324.7)" />
<use xlink:href="#f3_55" transform="matrix(10.5,0,0,10.4,141.5,326.7)" />
<use xlink:href="#f3_56" transform="matrix(10.5,0,0,10.4,141.5,333.5)" />
<use xlink:href="#f1_h" transform="matrix(10.5,0,0,10.4,150.7,324.7)" />
<use xlink:href="#f1_n" transform="matrix(10.5,0,0,10.4,99.4,337)" />
<use xlink:href="#f1_n" transform="matrix(10.5,0,0,10.4,127.5,337)" />
<use xlink:href="#f3_4o" transform="matrix(10.5,0,0,10.4,86.1,312.3)" />
<use xlink:href="#f2_1w" transform="matrix(10.5,0,0,10.4,94.9,314.3)" />
<use xlink:href="#f1_l" transform="matrix(7,0,0,7,104.6,307.1)" />
<use xlink:href="#f2_1w" transform="matrix(10.5,0,0,10.4,123,314.3)" />
<use xlink:href="#f1_l" transform="matrix(7,0,0,7,132.6,307.1)" />
<use xlink:href="#f3_54" transform="matrix(10.5,0,0,10.4,141.5,312.3)" />
</g>
<path d="M122.7,320.4h18.2m-46.2,0h18.2" class="g3_47" />
<g fill="#000000" >
<use xlink:href="#f1_n" transform="matrix(10.4,0,0,10.4,42.8,381.2)" />
<use xlink:href="#f1_p" transform="matrix(10.4,0,0,10.4,51.7,381.2)" />
<use xlink:href="#f1_h" transform="matrix(10.4,0,0,10.4,60.9,381.2)" />
<use xlink:href="#f1_15" transform="matrix(10.4,0,0,10.4,83.6,381.2)" />
<use xlink:href="#f1_24" transform="matrix(10.4,0,0,10.4,93.3,381.2)" />
<use xlink:href="#f1_29" transform="matrix(10.4,0,0,10.4,96.8,381.2)" />
<use xlink:href="#f1_1z" transform="matrix(10.4,0,0,10.4,105.7,381.2)" />
<use xlink:href="#f1_2f" transform="matrix(10.4,0,0,10.4,121.4,381.2)" />
<use xlink:href="#f1_23" transform="matrix(10.4,0,0,10.4,125.8,381.2)" />
<use xlink:href="#f1_20" transform="matrix(10.4,0,0,10.4,134.7,381.2)" />
<use xlink:href="#f1_2b" transform="matrix(10.4,0,0,10.4,150.1,381.2)" />
<use xlink:href="#f1_2a" transform="matrix(10.4,0,0,10.4,159,381.2)" />
<use xlink:href="#f1_24" transform="matrix(10.4,0,0,10.4,167.9,381.2)" />
<use xlink:href="#f1_29" transform="matrix(10.4,0,0,10.4,171.4,381.2)" />
<use xlink:href="#f1_2f" transform="matrix(10.4,0,0,10.4,180.3,381.2)" />
<use xlink:href="#f1_2e" transform="matrix(10.4,0,0,10.4,184.7,381.2)" />
<use xlink:href="#f1_2a" transform="matrix(10.4,0,0,10.4,199.5,381.2)" />
<use xlink:href="#f1_29" transform="matrix(10.4,0,0,10.4,208.3,381.2)" />
<use xlink:href="#f1_2f" transform="matrix(10.4,0,0,10.4,224,381.2)" />
<use xlink:href="#f1_23" transform="matrix(10.4,0,0,10.4,228.4,381.2)" />
<use xlink:href="#f1_20" transform="matrix(10.4,0,0,10.4,237.3,381.2)" />
<use xlink:href="#f1_1y" transform="matrix(10.4,0,0,10.4,252.8,381.2)" />
<use xlink:href="#f1_2g" transform="matrix(10.4,0,0,10.4,260.7,381.2)" />
<use xlink:href="#f1_2d" transform="matrix(10.4,0,0,10.4,269.6,381.2)" />
<use xlink:href="#f1_2h" transform="matrix(10.4,0,0,10.4,274.9,381.2)" />
<use xlink:href="#f1_20" transform="matrix(10.4,0,0,10.4,282.9,381.2)" />
<use xlink:href="#f1_n" transform="matrix(10.4,0,0,10.4,298.5,381.2)" />
<use xlink:href="#f2_2k" transform="matrix(10.4,0,0,10.4,306.5,381.2)" />
<use xlink:href="#f1_w" transform="matrix(10.4,0,0,10.4,321.2,381.2)" />
<use xlink:href="#f2_2j" transform="matrix(10.4,0,0,10.4,337.3,381.2)" />
<use xlink:href="#f1_m" transform="matrix(7.4,0,0,7.4,345.4,375.8)" />
<use xlink:href="#f1_2i" transform="matrix(10.4,0,0,10.4,358.4,381.2)" />
<use xlink:href="#f1_23" transform="matrix(10.4,0,0,10.4,369.9,381.2)" />
<use xlink:href="#f1_20" transform="matrix(10.4,0,0,10.4,378.8,381.2)" />
<use xlink:href="#f1_2d" transform="matrix(10.4,0,0,10.4,387.6,381.2)" />
<use xlink:href="#f1_20" transform="matrix(10.4,0,0,10.4,392.9,381.2)" />
<use xlink:href="#f1_2e" transform="matrix(10.4,0,0,10.4,408.4,381.2)" />
<use xlink:href="#f1_27" transform="matrix(10.4,0,0,10.4,416.4,381.2)" />
<use xlink:href="#f1_2a" transform="matrix(10.4,0,0,10.4,419.9,381.2)" />
<use xlink:href="#f1_2b" transform="matrix(10.4,0,0,10.4,428.8,381.2)" />
<use xlink:href="#f1_20" transform="matrix(10.4,0,0,10.4,437.7,381.2)" />
<use xlink:href="#f1_2a" transform="matrix(10.4,0,0,10.4,453.3,381.2)" />
<use xlink:href="#f1_21" transform="matrix(10.4,0,0,10.4,462.2,381.2)" />
<use xlink:href="#f1_2f" transform="matrix(10.4,0,0,10.4,473.4,381.2)" />
<use xlink:href="#f1_23" transform="matrix(10.4,0,0,10.4,477.8,381.2)" />
<use xlink:href="#f1_20" transform="matrix(10.4,0,0,10.4,486.7,381.2)" />
<use xlink:href="#f1_2f" transform="matrix(10.4,0,0,10.4,502.3,381.2)" />
<use xlink:href="#f1_1w" transform="matrix(10.4,0,0,10.4,506.8,381.2)" />
<use xlink:href="#f1_29" transform="matrix(10.4,0,0,10.4,515.6,381.2)" />
<use xlink:href="#f1_22" transform="matrix(10.4,0,0,10.4,524.5,381.2)" />
<use xlink:href="#f1_20" transform="matrix(10.4,0,0,10.4,533.4,381.2)" />
<use xlink:href="#f1_29" transform="matrix(10.4,0,0,10.4,542.3,381.2)" />
<use xlink:href="#f1_2f" transform="matrix(10.4,0,0,10.4,551.1,381.2)" />
<use xlink:href="#f1_24" transform="matrix(10.4,0,0,10.4,562.2,381.2)" />
<use xlink:href="#f1_2e" transform="matrix(10.4,0,0,10.4,565.7,381.2)" />
<use xlink:href="#f1_k" transform="matrix(10.3,0,0,10.4,582,368.3)" />
<use xlink:href="#f1_p" transform="matrix(10.3,0,0,10.4,590.8,368.3)" />
</g>
<path d="M582.5,374.4h17.8" class="g4_47" />
<g fill="#000000" >
<use xlink:href="#f1_h" transform="matrix(10.3,0,0,10.4,601.9,378.6)" />
<use xlink:href="#f1_m" transform="matrix(10.3,0,0,10.4,587.1,390.9)" />
<use xlink:href="#f1_n" transform="matrix(10.4,0,0,10.4,42.8,435.4)" />
<use xlink:href="#f1_q" transform="matrix(10.4,0,0,10.4,51.7,435.4)" />
<use xlink:href="#f1_h" transform="matrix(10.4,0,0,10.4,60.9,435.4)" />
<use xlink:href="#f1_1i" transform="matrix(10.4,0,0,10.4,83.6,435.4)" />
<use xlink:href="#f1_23" transform="matrix(10.4,0,0,10.4,94.2,435.4)" />
<use xlink:href="#f1_2a" transform="matrix(10.4,0,0,10.4,103.1,435.4)" />
<use xlink:href="#f1_2i" transform="matrix(10.4,0,0,10.4,111.9,435.4)" />
<use xlink:href="#f1_2f" transform="matrix(10.4,0,0,10.4,129.7,435.4)" />
<use xlink:href="#f1_23" transform="matrix(10.4,0,0,10.4,134.1,435.4)" />
<use xlink:href="#f1_1w" transform="matrix(10.4,0,0,10.4,143,435.4)" />
<use xlink:href="#f1_2f" transform="matrix(10.4,0,0,10.4,151.9,435.4)" />
<use xlink:href="#f2_2j" transform="matrix(10.4,0,0,10.4,166.3,425.5)" />
<use xlink:href="#f3_f" transform="matrix(10.4,0,0,10.4,180.8,435.8)" />
<use xlink:href="#f2_2k" transform="matrix(10.4,0,0,10.4,194.7,425.5)" />
</g>
<path d="M193.5,431.6h11.9m-40,0h11.7" class="g5_47" />
<g fill="#000000" >
<use xlink:href="#f2_1w" transform="matrix(10.4,0,0,10.4,166.3,448.1)" />
<use xlink:href="#f2_1x" transform="matrix(10.4,0,0,10.4,194.3,448.1)" />
<use xlink:href="#f3_x" transform="matrix(10.4,0,0,10.4,210.3,435.8)" />
<use xlink:href="#f1_k" transform="matrix(10.4,0,0,10.4,222.4,435.8)" />
<use xlink:href="#f1_2f" transform="matrix(10.4,0,0,10.4,238.5,435.4)" />
<use xlink:href="#f1_2a" transform="matrix(10.4,0,0,10.4,242.9,435.4)" />
<use xlink:href="#f1_2g" transform="matrix(10.4,0,0,10.4,251.8,435.4)" />
<use xlink:href="#f1_1y" transform="matrix(10.4,0,0,10.4,260.6,435.4)" />
<use xlink:href="#f1_23" transform="matrix(10.4,0,0,10.4,268.6,435.4)" />
<use xlink:href="#f1_20" transform="matrix(10.4,0,0,10.4,277.5,435.4)" />
<use xlink:href="#f1_2e" transform="matrix(10.4,0,0,10.4,286.4,435.4)" />
<use xlink:href="#f1_2f" transform="matrix(10.4,0,0,10.4,300.7,435.4)" />
<use xlink:href="#f1_23" transform="matrix(10.4,0,0,10.4,305.2,435.4)" />
<use xlink:href="#f1_20" transform="matrix(10.4,0,0,10.4,314,435.4)" />
<use xlink:href="#f1_1y" transform="matrix(10.4,0,0,10.4,329.1,435.4)" />
<use xlink:href="#f1_2g" transform="matrix(10.4,0,0,10.4,337.1,435.4)" />
<use xlink:href="#f1_2d" transform="matrix(10.4,0,0,10.4,346,435.4)" />
<use xlink:href="#f1_2h" transform="matrix(10.4,0,0,10.4,351.3,435.4)" />
<use xlink:href="#f1_20" transform="matrix(10.4,0,0,10.4,359.3,435.4)" />
<use xlink:href="#f2_2k" transform="matrix(10.4,0,0,10.4,374.3,435.4)" />
<use xlink:href="#f1_w" transform="matrix(10.4,0,0,10.4,388.6,435.4)" />
<use xlink:href="#f1_1x" transform="matrix(10.4,0,0,10.4,404.4,435.4)" />
<use xlink:href="#f1_20" transform="matrix(10.4,0,0,10.4,413.2,435.4)" />
<use xlink:href="#f1_99" transform="matrix(7.4,0,0,7.4,422,430.1)" />
<use xlink:href="#f2_2j" transform="matrix(7.4,0,0,7.4,428.2,430.1)" />
<use xlink:href="#f1_i" transform="matrix(7.4,0,0,7.4,433.9,430.1)" />
<use xlink:href="#f2_1w" transform="matrix(7.4,0,0,7.4,437,430.1)" />
<use xlink:href="#f1_1w" transform="matrix(10.4,0,0,10.4,447.8,435.4)" />
<use xlink:href="#f1_2f" transform="matrix(10.4,0,0,10.4,456.7,435.4)" />
<use xlink:href="#f1_2f" transform="matrix(10.4,0,0,10.4,467.6,435.4)" />
<use xlink:href="#f1_23" transform="matrix(10.4,0,0,10.4,472,435.4)" />
<use xlink:href="#f1_20" transform="matrix(10.4,0,0,10.4,480.9,435.4)" />
<use xlink:href="#f1_2b" transform="matrix(10.4,0,0,10.4,496,435.4)" />
<use xlink:href="#f1_2a" transform="matrix(10.4,0,0,10.4,504.8,435.4)" />
<use xlink:href="#f1_24" transform="matrix(10.4,0,0,10.4,513.7,435.4)" />
<use xlink:href="#f1_29" transform="matrix(10.4,0,0,10.4,517.2,435.4)" />
<use xlink:href="#f1_2f" transform="matrix(10.4,0,0,10.4,526.1,435.4)" />
<use xlink:href="#f1_2i" transform="matrix(10.4,0,0,10.4,537,435.4)" />
<use xlink:href="#f1_23" transform="matrix(10.4,0,0,10.4,548.5,435.4)" />
<use xlink:href="#f1_20" transform="matrix(10.4,0,0,10.4,557.3,435.4)" />
<use xlink:href="#f1_2d" transform="matrix(10.4,0,0,10.4,566.2,435.4)" />
<use xlink:href="#f1_20" transform="matrix(10.4,0,0,10.4,571.5,435.4)" />
<use xlink:href="#f1_2f" transform="matrix(10.4,0,0,10.4,586.8,435.4)" />
<use xlink:href="#f1_23" transform="matrix(10.4,0,0,10.4,591.2,435.4)" />
<use xlink:href="#f1_20" transform="matrix(10.4,0,0,10.4,600.1,435.4)" />
<use xlink:href="#f1_1y" transform="matrix(10.4,0,0,10.4,83.5,462.4)" />
<use xlink:href="#f1_2g" transform="matrix(10.4,0,0,10.4,91.5,462.4)" />
<use xlink:href="#f1_2d" transform="matrix(10.4,0,0,10.4,100.4,462.4)" />
<use xlink:href="#f1_2h" transform="matrix(10.4,0,0,10.4,105.7,462.4)" />
<use xlink:href="#f1_20" transform="matrix(10.4,0,0,10.4,113.7,462.4)" />
<use xlink:href="#f1_1y" transform="matrix(10.4,0,0,10.4,129.9,462.4)" />
<use xlink:href="#f1_2d" transform="matrix(10.4,0,0,10.4,137.9,462.4)" />
<use xlink:href="#f1_2a" transform="matrix(10.4,0,0,10.4,143.2,462.4)" />
<use xlink:href="#f1_2e" transform="matrix(10.4,0,0,10.4,152,462.4)" />
<use xlink:href="#f1_2e" transform="matrix(10.4,0,0,10.4,160,462.4)" />
<use xlink:href="#f1_20" transform="matrix(10.4,0,0,10.4,168,462.4)" />
<use xlink:href="#f1_2e" transform="matrix(10.4,0,0,10.4,176.9,462.4)" />
<use xlink:href="#f1_2f" transform="matrix(10.4,0,0,10.4,192,462.4)" />
<use xlink:href="#f1_23" transform="matrix(10.4,0,0,10.4,196.4,462.4)" />
<use xlink:href="#f1_20" transform="matrix(10.4,0,0,10.4,205.3,462.4)" />
<use xlink:href="#f2_2k" transform="matrix(10.4,0,0,10.4,221.6,462.4)" />
<use xlink:href="#f2_g" transform="matrix(10.4,0,0,10.4,229.6,462.4)" />
<use xlink:href="#f1_1w" transform="matrix(10.4,0,0,10.4,235,462.4)" />
<use xlink:href="#f1_2j" transform="matrix(10.4,0,0,10.4,243.9,462.4)" />
<use xlink:href="#f1_24" transform="matrix(10.4,0,0,10.4,251.8,462.4)" />
<use xlink:href="#f1_2e" transform="matrix(10.4,0,0,10.4,255.4,462.4)" />
<use xlink:href="#f1_h" transform="matrix(10.4,0,0,10.4,263.3,462.4)" />
<use xlink:href="#f1_n" transform="matrix(10.4,0,0,10.4,42.8,496.3)" />
<use xlink:href="#f1_r" transform="matrix(10.4,0,0,10.4,51.7,496.3)" />
<use xlink:href="#f1_h" transform="matrix(10.4,0,0,10.4,60.9,496.3)" />
<use xlink:href="#f1_15" transform="matrix(10.4,0,0,10.4,83.5,496.3)" />
<use xlink:href="#f1_24" transform="matrix(10.4,0,0,10.4,93.4,496.3)" />
<use xlink:href="#f1_29" transform="matrix(10.4,0,0,10.4,97,496.3)" />
<use xlink:href="#f1_1z" transform="matrix(10.4,0,0,10.4,105.9,496.3)" />
<use xlink:href="#f1_2f" transform="matrix(10.4,0,0,10.4,123.7,496.3)" />
<use xlink:href="#f1_23" transform="matrix(10.4,0,0,10.4,128.1,496.3)" />
<use xlink:href="#f1_20" transform="matrix(10.4,0,0,10.4,137,496.3)" />
<use xlink:href="#f1_20" transform="matrix(10.4,0,0,10.4,154.9,496.3)" />
<use xlink:href="#f1_2c" transform="matrix(10.4,0,0,10.4,163.7,496.3)" />
<use xlink:href="#f1_2g" transform="matrix(10.4,0,0,10.4,172.6,496.3)" />
<use xlink:href="#f1_1w" transform="matrix(10.4,0,0,10.4,181.5,496.3)" />
<use xlink:href="#f1_2f" transform="matrix(10.4,0,0,10.4,190.3,496.3)" />
<use xlink:href="#f1_24" transform="matrix(10.4,0,0,10.4,194.8,496.3)" />
<use xlink:href="#f1_2a" transform="matrix(10.4,0,0,10.4,198.3,496.3)" />
<use xlink:href="#f1_29" transform="matrix(10.4,0,0,10.4,207.2,496.3)" />
<use xlink:href="#f1_2a" transform="matrix(10.4,0,0,10.4,224.9,496.3)" />
<use xlink:href="#f1_21" transform="matrix(10.4,0,0,10.4,233.7,496.3)" />
<use xlink:href="#f1_2f" transform="matrix(10.4,0,0,10.4,247.1,496.3)" />
<use xlink:href="#f1_23" transform="matrix(10.4,0,0,10.4,251.6,496.3)" />
<use xlink:href="#f1_20" transform="matrix(10.4,0,0,10.4,260.4,496.3)" />
<use xlink:href="#f1_2f" transform="matrix(10.4,0,0,10.4,278.3,496.3)" />
<use xlink:href="#f1_1w" transform="matrix(10.4,0,0,10.4,282.7,496.3)" />
<use xlink:href="#f1_29" transform="matrix(10.4,0,0,10.4,291.6,496.3)" />
<use xlink:href="#f1_22" transform="matrix(10.4,0,0,10.4,300.5,496.3)" />
<use xlink:href="#f1_20" transform="matrix(10.4,0,0,10.4,309.3,496.3)" />
<use xlink:href="#f1_29" transform="matrix(10.4,0,0,10.4,318.2,496.3)" />
<use xlink:href="#f1_2f" transform="matrix(10.4,0,0,10.4,327.1,496.3)" />
<use xlink:href="#f1_2f" transform="matrix(10.4,0,0,10.4,340.5,496.3)" />
<use xlink:href="#f1_2a" transform="matrix(10.4,0,0,10.4,344.9,496.3)" />
<use xlink:href="#f1_2f" transform="matrix(10.4,0,0,10.4,362.8,496.3)" />
<use xlink:href="#f1_23" transform="matrix(10.4,0,0,10.4,367.2,496.3)" />
<use xlink:href="#f1_20" transform="matrix(10.4,0,0,10.4,376.1,496.3)" />
<use xlink:href="#f1_1y" transform="matrix(10.4,0,0,10.4,393.9,496.3)" />
<use xlink:href="#f1_2g" transform="matrix(10.4,0,0,10.4,402.2,496.3)" />
<use xlink:href="#f1_2d" transform="matrix(10.4,0,0,10.4,411,496.3)" />
<use xlink:href="#f1_2h" transform="matrix(10.4,0,0,10.4,416.5,496.3)" />
<use xlink:href="#f1_20" transform="matrix(10.4,0,0,10.4,424.8,496.3)" />
<use xlink:href="#f1_22" transform="matrix(10.4,0,0,10.4,442.4,496.3)" />
<use xlink:href="#f1_24" transform="matrix(10.4,0,0,10.4,451.3,496.3)" />
<use xlink:href="#f1_2h" transform="matrix(10.4,0,0,10.4,454.9,496.3)" />
<use xlink:href="#f1_20" transform="matrix(10.4,0,0,10.4,463.1,496.3)" />
<use xlink:href="#f1_29" transform="matrix(10.4,0,0,10.4,472,496.3)" />
<use xlink:href="#f1_1x" transform="matrix(10.4,0,0,10.4,489.8,496.3)" />
<use xlink:href="#f1_2k" transform="matrix(10.4,0,0,10.4,498.7,496.3)" />
<use xlink:href="#f2_2j" transform="matrix(10.4,0,0,10.4,518.4,496.3)" />
<use xlink:href="#f1_w" transform="matrix(10.4,0,0,10.4,535.7,496.3)" />
<use xlink:href="#f2_1w" transform="matrix(10.4,0,0,10.4,554,496.3)" />
<use xlink:href="#f1_2e" transform="matrix(10.4,0,0,10.4,572,496.3)" />
<use xlink:href="#f1_24" transform="matrix(10.4,0,0,10.4,579.9,496.3)" />
<use xlink:href="#f1_29" transform="matrix(10.4,0,0,10.4,583.5,496.3)" />
<use xlink:href="#f1_m" transform="matrix(7.4,0,0,7.4,592.7,491)" />
<use xlink:href="#f2_2f" transform="matrix(10.4,0,0,10.4,599.1,496.3)" />
<use xlink:href="#f1_f" transform="matrix(10.4,0,0,10.4,603.7,496.3)" />
<use xlink:href="#f2_2k" transform="matrix(10.4,0,0,10.4,83.5,537)" />
<use xlink:href="#f1_w" transform="matrix(10.4,0,0,10.4,98.4,537)" />
<use xlink:href="#f2_1x" transform="matrix(10.4,0,0,10.4,114.7,537)" />
<use xlink:href="#f1_1y" transform="matrix(10.4,0,0,10.4,130.5,537)" />
<use xlink:href="#f1_2a" transform="matrix(10.4,0,0,10.4,138.5,537)" />
<use xlink:href="#f1_2e" transform="matrix(10.4,0,0,10.4,147.3,537)" />
<use xlink:href="#f1_m" transform="matrix(7.4,0,0,7.4,155.4,531.7)" />
<use xlink:href="#f2_2f" transform="matrix(10.4,0,0,10.4,166.6,537)" />
<use xlink:href="#f1_1w" transform="matrix(10.4,0,0,10.4,178,537)" />
<use xlink:href="#f1_2f" transform="matrix(10.4,0,0,10.4,186.8,537)" />
<use xlink:href="#f1_1w" transform="matrix(10.4,0,0,10.4,198.2,537)" />
<use xlink:href="#f1_2b" transform="matrix(10.4,0,0,10.4,213.9,537)" />
<use xlink:href="#f1_2a" transform="matrix(10.4,0,0,10.4,222.8,537)" />
<use xlink:href="#f1_24" transform="matrix(10.4,0,0,10.4,231.6,537)" />
<use xlink:href="#f1_29" transform="matrix(10.4,0,0,10.4,235.2,537)" />
<use xlink:href="#f1_2f" transform="matrix(10.4,0,0,10.4,244,537)" />
<use xlink:href="#f1_2i" transform="matrix(10.4,0,0,10.4,255.4,537)" />
<use xlink:href="#f1_23" transform="matrix(10.4,0,0,10.4,267,537)" />
<use xlink:href="#f1_20" transform="matrix(10.4,0,0,10.4,275.8,537)" />
<use xlink:href="#f1_2d" transform="matrix(10.4,0,0,10.4,284.7,537)" />
<use xlink:href="#f1_20" transform="matrix(10.4,0,0,10.4,290,537)" />
<use xlink:href="#f2_2f" transform="matrix(10.4,0,0,10.4,306.6,534.5)" />
<use xlink:href="#f3_x" transform="matrix(10.5,0,0,10.4,317.3,534.5)" />
<use xlink:href="#f1_h" transform="matrix(10.4,0,0,10.4,343.6,534.5)" />
<use xlink:href="#f1_l" transform="matrix(10.4,0,0,10.4,332.3,546.7)" />
<use xlink:href="#f3_2c" transform="matrix(10.5,0,0,10.4,332.2,524.2)" />
</g>
<path d="M331.3,530.3h10.8" class="g3_47" />
<g fill="#000000" >
<use xlink:href="#f1_n" transform="matrix(10.4,0,0,10.4,42.8,601.9)" />
<use xlink:href="#f1_s" transform="matrix(10.4,0,0,10.4,51.7,601.9)" />
<use xlink:href="#f1_h" transform="matrix(10.4,0,0,10.4,60.9,601.9)" />
<use xlink:href="#f1_15" transform="matrix(10.4,0,0,10.4,83.6,601.9)" />
<use xlink:href="#f1_24" transform="matrix(10.4,0,0,10.4,93.3,601.9)" />
<use xlink:href="#f1_29" transform="matrix(10.4,0,0,10.4,96.8,601.9)" />
<use xlink:href="#f1_1z" transform="matrix(10.4,0,0,10.4,105.7,601.9)" />
<use xlink:href="#f1_2f" transform="matrix(10.4,0,0,10.4,121,601.9)" />
<use xlink:href="#f1_23" transform="matrix(10.4,0,0,10.4,125.4,601.9)" />
<use xlink:href="#f1_20" transform="matrix(10.4,0,0,10.4,134.3,601.9)" />
<use xlink:href="#f1_24" transform="matrix(10.4,0,0,10.4,149.8,601.9)" />
<use xlink:href="#f1_29" transform="matrix(10.4,0,0,10.4,153.3,601.9)" />
<use xlink:href="#f1_2f" transform="matrix(10.4,0,0,10.4,162.2,601.9)" />
<use xlink:href="#f1_20" transform="matrix(10.4,0,0,10.4,166.6,601.9)" />
<use xlink:href="#f1_2d" transform="matrix(10.4,0,0,10.4,175.5,601.9)" />
<use xlink:href="#f1_2h" transform="matrix(10.4,0,0,10.4,180.8,601.9)" />
<use xlink:href="#f1_1w" transform="matrix(10.4,0,0,10.4,188.8,601.9)" />
<use xlink:href="#f1_27" transform="matrix(10.4,0,0,10.4,197.6,601.9)" />
<use xlink:href="#f1_2e" transform="matrix(10.4,0,0,10.4,201.2,601.9)" />
<use xlink:href="#f1_24" transform="matrix(10.4,0,0,10.4,215.6,601.9)" />
<use xlink:href="#f1_29" transform="matrix(10.4,0,0,10.4,219.1,601.9)" />
<use xlink:href="#f1_2i" transform="matrix(10.4,0,0,10.4,234.6,601.9)" />
<use xlink:href="#f1_23" transform="matrix(10.4,0,0,10.4,246.1,601.9)" />
<use xlink:href="#f1_24" transform="matrix(10.4,0,0,10.4,255,601.9)" />
<use xlink:href="#f1_1y" transform="matrix(10.4,0,0,10.4,258.5,601.9)" />
<use xlink:href="#f1_23" transform="matrix(10.4,0,0,10.4,266.5,601.9)" />
<use xlink:href="#f1_2f" transform="matrix(10.4,0,0,10.4,281.8,601.9)" />
<use xlink:href="#f1_23" transform="matrix(10.4,0,0,10.4,286.2,601.9)" />
<use xlink:href="#f1_20" transform="matrix(10.4,0,0,10.4,295.1,601.9)" />
<use xlink:href="#f1_21" transform="matrix(10.4,0,0,10.4,310.5,601.9)" />
<use xlink:href="#f1_2g" transform="matrix(10.4,0,0,10.4,315,601.9)" />
<use xlink:href="#f1_29" transform="matrix(10.4,0,0,10.4,323.8,601.9)" />
<use xlink:href="#f1_1y" transform="matrix(10.4,0,0,10.4,332.7,601.9)" />
<use xlink:href="#f1_2f" transform="matrix(10.4,0,0,10.4,340.7,601.9)" />
<use xlink:href="#f1_24" transform="matrix(10.4,0,0,10.4,345.1,601.9)" />
<use xlink:href="#f1_2a" transform="matrix(10.4,0,0,10.4,348.6,601.9)" />
<use xlink:href="#f1_29" transform="matrix(10.4,0,0,10.4,357.5,601.9)" />
<use xlink:href="#f2_21" transform="matrix(10.4,0,0,10.4,371.6,601.9)" />
<use xlink:href="#f1_b" transform="matrix(10.4,0,0,10.4,376,601.9)" />
<use xlink:href="#f2_2j" transform="matrix(10.4,0,0,10.4,381.3,601.9)" />
<use xlink:href="#f1_c" transform="matrix(10.4,0,0,10.4,389.4,601.9)" />
<use xlink:href="#f1_w" transform="matrix(10.4,0,0,10.4,401.3,601.9)" />
<use xlink:href="#f1_27" transform="matrix(10.4,0,0,10.4,417,601.9)" />
<use xlink:href="#f1_2a" transform="matrix(10.4,0,0,10.4,420.5,601.9)" />
<use xlink:href="#f1_22" transform="matrix(10.4,0,0,10.4,429.4,601.9)" />
<use xlink:href="#f1_b" transform="matrix(10.4,0,0,10.4,444.9,601.9)" />
<use xlink:href="#f1_k" transform="matrix(10.4,0,0,10.4,450.2,601.9)" />
<use xlink:href="#f1_e" transform="matrix(10.4,0,0,10.4,465.5,601.9)" />
<use xlink:href="#f2_2j" transform="matrix(10.4,0,0,10.4,481.2,601.9)" />
<use xlink:href="#f1_c" transform="matrix(10.4,0,0,10.4,489.3,601.9)" />
<use xlink:href="#f1_99" transform="matrix(10.4,0,0,10.4,501,601.9)" />
</g>
<path d="M519.5,597.4h32.2" class="g3_47" />
<g fill="#000000" >
<use xlink:href="#f1_f" transform="matrix(10.4,0,0,10.4,553.2,601.6)" />
<use xlink:href="#f1_k" transform="matrix(10.4,0,0,10.4,597.7,601.6)" />
<use xlink:href="#f1_k" transform="matrix(10.4,0,0,10.4,518.7,613.8)" />
<use xlink:href="#f2_2j" transform="matrix(10.4,0,0,10.4,530.5,591.3)" />
<use xlink:href="#f2_2j" transform="matrix(10.4,0,0,10.4,561.1,601.6)" />
<use xlink:href="#f2_2j" transform="matrix(10.4,0,0,10.4,540.8,613.8)" />
<use xlink:href="#f3_y" transform="matrix(10.5,0,0,10.4,575.4,601.6)" />
<use xlink:href="#f3_h" transform="matrix(10.5,0,0,10.4,589.1,601.6)" />
<use xlink:href="#f3_f" transform="matrix(10.5,0,0,10.4,528.3,613.8)" />
<use xlink:href="#f1_24" transform="matrix(10.4,0,0,10.4,83.5,637.1)" />
<use xlink:href="#f1_2e" transform="matrix(10.4,0,0,10.4,87.1,637.1)" />
<use xlink:href="#f1_24" transform="matrix(10.4,0,0,10.4,102.8,637.1)" />
<use xlink:href="#f1_29" transform="matrix(10.4,0,0,10.4,106.3,637.1)" />
<use xlink:href="#f1_1y" transform="matrix(10.4,0,0,10.4,115.2,637.1)" />
<use xlink:href="#f1_2d" transform="matrix(10.4,0,0,10.4,123.2,637.1)" />
<use xlink:href="#f1_20" transform="matrix(10.4,0,0,10.4,128.5,637.1)" />
<use xlink:href="#f1_1w" transform="matrix(10.4,0,0,10.4,137.3,637.1)" />
<use xlink:href="#f1_2e" transform="matrix(10.4,0,0,10.4,146.2,637.1)" />
<use xlink:href="#f1_24" transform="matrix(10.4,0,0,10.4,154.2,637.1)" />
<use xlink:href="#f1_29" transform="matrix(10.4,0,0,10.4,157.7,637.1)" />
<use xlink:href="#f1_22" transform="matrix(10.4,0,0,10.4,166.6,637.1)" />
<use xlink:href="#f1_2a" transform="matrix(10.4,0,0,10.4,183,637.1)" />
<use xlink:href="#f1_2d" transform="matrix(10.4,0,0,10.4,191.8,637.1)" />
<use xlink:href="#f1_1z" transform="matrix(10.4,0,0,10.4,204.9,637.1)" />
<use xlink:href="#f1_20" transform="matrix(10.4,0,0,10.4,213.7,637.1)" />
<use xlink:href="#f1_1y" transform="matrix(10.4,0,0,10.4,222.6,637.1)" />
<use xlink:href="#f1_2d" transform="matrix(10.4,0,0,10.4,230.6,637.1)" />
<use xlink:href="#f1_20" transform="matrix(10.4,0,0,10.4,235.9,637.1)" />
<use xlink:href="#f1_1w" transform="matrix(10.4,0,0,10.4,244.7,637.1)" />
<use xlink:href="#f1_2e" transform="matrix(10.4,0,0,10.4,253.6,637.1)" />
<use xlink:href="#f1_24" transform="matrix(10.4,0,0,10.4,261.6,637.1)" />
<use xlink:href="#f1_29" transform="matrix(10.4,0,0,10.4,265.1,637.1)" />
<use xlink:href="#f1_22" transform="matrix(10.4,0,0,10.4,274,637.1)" />
<use xlink:href="#f1_h" transform="matrix(10.4,0,0,10.4,282.9,637.1)" />
<use xlink:href="#f1_o" transform="matrix(10.4,0,0,10.4,42.8,671)" />
<use xlink:href="#f1_j" transform="matrix(10.4,0,0,10.4,51.7,671)" />
<use xlink:href="#f1_h" transform="matrix(10.4,0,0,10.4,60.9,671)" />
<use xlink:href="#f1_15" transform="matrix(10.4,0,0,10.4,83.5,671)" />
<use xlink:href="#f1_24" transform="matrix(10.4,0,0,10.4,93.3,671)" />
<use xlink:href="#f1_29" transform="matrix(10.4,0,0,10.4,96.8,671)" />
<use xlink:href="#f1_1z" transform="matrix(10.4,0,0,10.4,105.7,671)" />
<use xlink:href="#f1_2f" transform="matrix(10.4,0,0,10.4,121.5,671)" />
<use xlink:href="#f1_23" transform="matrix(10.4,0,0,10.4,126,671)" />
<use xlink:href="#f1_20" transform="matrix(10.4,0,0,10.4,134.8,671)" />
<use xlink:href="#f1_24" transform="matrix(10.4,0,0,10.4,150.7,671)" />
<use xlink:href="#f1_29" transform="matrix(10.4,0,0,10.4,154.2,671)" />
<use xlink:href="#f1_2f" transform="matrix(10.4,0,0,10.4,163.1,671)" />
<use xlink:href="#f1_20" transform="matrix(10.4,0,0,10.4,167.5,671)" />
<use xlink:href="#f1_2d" transform="matrix(10.4,0,0,10.4,176.4,671)" />
<use xlink:href="#f1_2h" transform="matrix(10.4,0,0,10.4,181.7,671)" />
<use xlink:href="#f1_1w" transform="matrix(10.4,0,0,10.4,189.7,671)" />
<use xlink:href="#f1_27" transform="matrix(10.4,0,0,10.4,198.6,671)" />
<use xlink:href="#f1_2e" transform="matrix(10.4,0,0,10.4,202.1,671)" />
<use xlink:href="#f1_24" transform="matrix(10.4,0,0,10.4,217,671)" />
<use xlink:href="#f1_29" transform="matrix(10.4,0,0,10.4,220.6,671)" />
<use xlink:href="#f1_2i" transform="matrix(10.4,0,0,10.4,236.6,671)" />
<use xlink:href="#f1_23" transform="matrix(10.4,0,0,10.4,248.1,671)" />
<use xlink:href="#f1_24" transform="matrix(10.4,0,0,10.4,257,671)" />
<use xlink:href="#f1_1y" transform="matrix(10.4,0,0,10.4,260.5,671)" />
<use xlink:href="#f1_23" transform="matrix(10.4,0,0,10.4,268.5,671)" />
<use xlink:href="#f1_2f" transform="matrix(10.4,0,0,10.4,284.3,671)" />
<use xlink:href="#f1_23" transform="matrix(10.4,0,0,10.4,288.8,671)" />
<use xlink:href="#f1_20" transform="matrix(10.4,0,0,10.4,297.6,671)" />
<use xlink:href="#f1_21" transform="matrix(10.4,0,0,10.4,313.5,671)" />
<use xlink:href="#f1_2g" transform="matrix(10.4,0,0,10.4,317.9,671)" />
<use xlink:href="#f1_29" transform="matrix(10.4,0,0,10.4,326.8,671)" />
<use xlink:href="#f1_1y" transform="matrix(10.4,0,0,10.4,335.6,671)" />
<use xlink:href="#f1_2f" transform="matrix(10.4,0,0,10.4,343.6,671)" />
<use xlink:href="#f1_24" transform="matrix(10.4,0,0,10.4,348.1,671)" />
<use xlink:href="#f1_2a" transform="matrix(10.4,0,0,10.4,351.6,671)" />
<use xlink:href="#f1_29" transform="matrix(10.4,0,0,10.4,360.5,671)" />
<use xlink:href="#f2_21" transform="matrix(10.4,0,0,10.4,375.1,671)" />
<use xlink:href="#f1_b" transform="matrix(10.4,0,0,10.4,379.5,671)" />
<use xlink:href="#f2_2j" transform="matrix(10.4,0,0,10.4,384.8,671)" />
<use xlink:href="#f1_c" transform="matrix(10.4,0,0,10.4,392.8,671)" />
<use xlink:href="#f1_w" transform="matrix(10.4,0,0,10.4,405.1,671)" />
<use xlink:href="#f2_2j" transform="matrix(10.4,0,0,10.4,421.4,671)" />
<use xlink:href="#f1_m" transform="matrix(7.4,0,0,7.4,429.5,665.7)" />
<use xlink:href="#f1_99" transform="matrix(10.4,0,0,10.4,442.7,671)" />
<use xlink:href="#f1_k" transform="matrix(10.4,0,0,10.4,458.7,671)" />
<use xlink:href="#f1_l" transform="matrix(10.4,0,0,10.4,467.6,671)" />
<use xlink:href="#f2_2j" transform="matrix(10.4,0,0,10.4,476.3,671)" />
<use xlink:href="#f1_l" transform="matrix(7.4,0,0,7.4,484.3,665.7)" />
<use xlink:href="#f1_e" transform="matrix(10.4,0,0,10.4,497.5,671)" />
<use xlink:href="#f1_m" transform="matrix(10.4,0,0,10.4,513.8,671)" />
<use xlink:href="#f1_p" transform="matrix(10.4,0,0,10.4,522.7,671)" />
<use xlink:href="#f2_2j" transform="matrix(10.4,0,0,10.4,531.5,671)" />
<use xlink:href="#f1_e" transform="matrix(10.4,0,0,10.4,546.5,671)" />
<use xlink:href="#f1_k" transform="matrix(10.4,0,0,10.4,562.9,671)" />
<use xlink:href="#f1_q" transform="matrix(10.4,0,0,10.4,571.8,671)" />
<use xlink:href="#f1_24" transform="matrix(10.4,0,0,10.4,587.7,671)" />
<use xlink:href="#f1_2e" transform="matrix(10.4,0,0,10.4,591.2,671)" />
<use xlink:href="#f1_b" transform="matrix(10.4,0,0,10.4,100.6,704.9)" />
<use xlink:href="#f1_1w" transform="matrix(10.4,0,0,10.4,106.1,704.9)" />
<use xlink:href="#f1_c" transform="matrix(10.4,0,0,10.4,115,704.9)" />
<use xlink:href="#f1_18" transform="matrix(10.4,0,0,10.4,138.6,704.9)" />
<use xlink:href="#f1_29" transform="matrix(10.4,0,0,10.4,143,704.9)" />
<use xlink:href="#f1_1y" transform="matrix(10.4,0,0,10.4,151.9,704.9)" />
<use xlink:href="#f1_2d" transform="matrix(10.4,0,0,10.4,159.8,704.9)" />
<use xlink:href="#f1_20" transform="matrix(10.4,0,0,10.4,165.3,704.9)" />
<use xlink:href="#f1_1w" transform="matrix(10.4,0,0,10.4,174.2,704.9)" />
<use xlink:href="#f1_2e" transform="matrix(10.4,0,0,10.4,183.1,704.9)" />
<use xlink:href="#f1_24" transform="matrix(10.4,0,0,10.4,191,704.9)" />
<use xlink:href="#f1_29" transform="matrix(10.4,0,0,10.4,194.6,704.9)" />
<use xlink:href="#f1_22" transform="matrix(10.4,0,0,10.4,203.5,704.9)" />
<use xlink:href="#f1_b" transform="matrix(10.4,0,0,10.4,389.4,704.9)" />
<use xlink:href="#f1_1x" transform="matrix(10.4,0,0,10.4,394.9,704.9)" />
<use xlink:href="#f1_c" transform="matrix(10.4,0,0,10.4,403.7,704.9)" />
<use xlink:href="#f1_13" transform="matrix(10.4,0,0,10.4,427.3,704.9)" />
<use xlink:href="#f1_20" transform="matrix(10.4,0,0,10.4,439.1,704.9)" />
<use xlink:href="#f1_1y" transform="matrix(10.4,0,0,10.4,447.9,704.9)" />
<use xlink:href="#f1_2d" transform="matrix(10.4,0,0,10.4,456.2,704.9)" />
<use xlink:href="#f1_20" transform="matrix(10.4,0,0,10.4,461.7,704.9)" />
<use xlink:href="#f1_1w" transform="matrix(10.4,0,0,10.4,470.5,704.9)" />
<use xlink:href="#f1_2e" transform="matrix(10.4,0,0,10.4,479.4,704.9)" />
<use xlink:href="#f1_24" transform="matrix(10.4,0,0,10.4,487.7,704.9)" />
<use xlink:href="#f1_29" transform="matrix(10.4,0,0,10.4,491.2,704.9)" />
<use xlink:href="#f1_22" transform="matrix(10.4,0,0,10.4,500.1,704.9)" />
<use xlink:href="#f1_h" transform="matrix(10.4,0,0,10.4,508.9,704.9)" />
<use xlink:href="#f1_o" transform="matrix(10.4,0,0,10.4,42.8,738.8)" />
<use xlink:href="#f1_k" transform="matrix(10.4,0,0,10.4,51.7,738.8)" />
<use xlink:href="#f1_h" transform="matrix(10.4,0,0,10.4,60.9,738.8)" />
<use xlink:href="#f1_1f" transform="matrix(10.4,0,0,10.4,83.5,738.8)" />
<use xlink:href="#f1_2d" transform="matrix(10.4,0,0,10.4,94.2,738.8)" />
<use xlink:href="#f1_2a" transform="matrix(10.4,0,0,10.4,99.5,738.8)" />
<use xlink:href="#f1_2h" transform="matrix(10.4,0,0,10.4,108.4,738.8)" />
<use xlink:href="#f1_20" transform="matrix(10.4,0,0,10.4,116.3,738.8)" />
<use xlink:href="#f1_2f" transform="matrix(10.4,0,0,10.4,129.6,738.8)" />
<use xlink:href="#f1_23" transform="matrix(10.4,0,0,10.4,134.1,738.8)" />
<use xlink:href="#f1_1w" transform="matrix(10.4,0,0,10.4,142.9,738.8)" />
<use xlink:href="#f1_2f" transform="matrix(10.4,0,0,10.4,151.8,738.8)" />
<use xlink:href="#f1_2f" transform="matrix(10.4,0,0,10.4,160.7,738.8)" />
<use xlink:href="#f1_23" transform="matrix(10.4,0,0,10.4,164.9,738.8)" />
<use xlink:href="#f1_20" transform="matrix(10.4,0,0,10.4,173.8,738.8)" />
<use xlink:href="#f1_21" transform="matrix(10.4,0,0,10.4,187.1,738.8)" />
<use xlink:href="#f1_2g" transform="matrix(10.4,0,0,10.4,191.5,738.8)" />
<use xlink:href="#f1_29" transform="matrix(10.4,0,0,10.4,200.4,738.8)" />
<use xlink:href="#f1_1y" transform="matrix(10.4,0,0,10.4,209.3,738.8)" />
<use xlink:href="#f1_2f" transform="matrix(10.4,0,0,10.4,217.2,738.8)" />
<use xlink:href="#f1_24" transform="matrix(10.4,0,0,10.4,221.5,738.8)" />
<use xlink:href="#f1_2a" transform="matrix(10.4,0,0,10.4,225,738.8)" />
<use xlink:href="#f1_29" transform="matrix(10.4,0,0,10.4,233.9,738.8)" />
<use xlink:href="#f2_21" transform="matrix(10.4,0,0,10.4,246.2,738.8)" />
<use xlink:href="#f1_b" transform="matrix(10.4,0,0,10.4,250.6,738.8)" />
<use xlink:href="#f2_2j" transform="matrix(10.4,0,0,10.4,255.9,738.8)" />
<use xlink:href="#f1_c" transform="matrix(10.4,0,0,10.4,264,738.8)" />
<use xlink:href="#f1_w" transform="matrix(10.4,0,0,10.4,273.5,738.8)" />
<use xlink:href="#f2_2j" transform="matrix(10.4,0,0,10.4,287.2,738.8)" />
<use xlink:href="#f1_l" transform="matrix(7.4,0,0,7.4,295.3,733.5)" />
<use xlink:href="#f1_99" transform="matrix(10.4,0,0,10.4,306,738.8)" />
<use xlink:href="#f2_2j" transform="matrix(10.4,0,0,10.4,319.1,738.8)" />
<use xlink:href="#f1_e" transform="matrix(10.4,0,0,10.4,331.6,738.8)" />
<use xlink:href="#f1_k" transform="matrix(10.4,0,0,10.4,345.4,738.8)" />
<use xlink:href="#f1_24" transform="matrix(10.4,0,0,10.4,358.5,738.8)" />
<use xlink:href="#f1_2e" transform="matrix(10.4,0,0,10.4,362,738.8)" />
<use xlink:href="#f1_29" transform="matrix(10.4,0,0,10.4,374.4,738.8)" />
<use xlink:href="#f1_20" transform="matrix(10.4,0,0,10.4,383.3,738.8)" />
<use xlink:href="#f1_24" transform="matrix(10.4,0,0,10.4,391.9,738.8)" />
<use xlink:href="#f1_2f" transform="matrix(10.4,0,0,10.4,395.4,738.8)" />
<use xlink:href="#f1_23" transform="matrix(10.4,0,0,10.4,399.9,738.8)" />
<use xlink:href="#f1_20" transform="matrix(10.4,0,0,10.4,408.7,738.8)" />
<use xlink:href="#f1_2d" transform="matrix(10.4,0,0,10.4,417.6,738.8)" />
<use xlink:href="#f1_24" transform="matrix(10.4,0,0,10.4,427.4,738.8)" />
<use xlink:href="#f1_29" transform="matrix(10.4,0,0,10.4,430.7,738.8)" />
<use xlink:href="#f1_1y" transform="matrix(10.4,0,0,10.4,439.6,738.8)" />
<use xlink:href="#f1_2d" transform="matrix(10.4,0,0,10.4,447.5,738.8)" />
<use xlink:href="#f1_20" transform="matrix(10.4,0,0,10.4,452.8,738.8)" />
<use xlink:href="#f1_1w" transform="matrix(10.4,0,0,10.4,461.7,738.8)" />
<use xlink:href="#f1_2e" transform="matrix(10.4,0,0,10.4,470.6,738.8)" />
<use xlink:href="#f1_24" transform="matrix(10.4,0,0,10.4,478.5,738.8)" />
<use xlink:href="#f1_29" transform="matrix(10.4,0,0,10.4,481.9,738.8)" />
<use xlink:href="#f1_22" transform="matrix(10.4,0,0,10.4,490.7,738.8)" />
<use xlink:href="#f1_29" transform="matrix(10.4,0,0,10.4,504,738.8)" />
<use xlink:href="#f1_2a" transform="matrix(10.4,0,0,10.4,512.9,738.8)" />
<use xlink:href="#f1_2d" transform="matrix(10.4,0,0,10.4,521.8,738.8)" />
<use xlink:href="#f1_1z" transform="matrix(10.4,0,0,10.4,531.4,738.8)" />
<use xlink:href="#f1_20" transform="matrix(10.4,0,0,10.4,540.2,738.8)" />
<use xlink:href="#f1_1y" transform="matrix(10.4,0,0,10.4,549.1,738.8)" />
<use xlink:href="#f1_2d" transform="matrix(10.4,0,0,10.4,557.1,738.8)" />
<use xlink:href="#f1_20" transform="matrix(10.4,0,0,10.4,562.4,738.8)" />
<use xlink:href="#f1_1w" transform="matrix(10.4,0,0,10.4,571.3,738.8)" />
<use xlink:href="#f1_2e" transform="matrix(10.4,0,0,10.4,579.9,738.8)" />
<use xlink:href="#f1_24" transform="matrix(10.4,0,0,10.4,587.9,738.8)" />
<use xlink:href="#f1_29" transform="matrix(10.4,0,0,10.4,591.4,738.8)" />
<use xlink:href="#f1_22" transform="matrix(10.4,0,0,10.4,600.3,738.8)" />
<use xlink:href="#f1_24" transform="matrix(10.4,0,0,10.4,83.5,759)" />
<use xlink:href="#f1_29" transform="matrix(10.4,0,0,10.4,87.1,759)" />
<use xlink:href="#f1_1q" transform="matrix(10.4,0,0,10.4,102.9,759)" />
<use xlink:href="#f1_j" transform="matrix(10.4,0,0,10.4,107.4,759)" />
<use xlink:href="#f1_f" transform="matrix(10.4,0,0,10.4,116.2,759)" />
<use xlink:href="#f1_k" transform="matrix(10.4,0,0,10.4,127.8,759)" />
<use xlink:href="#f1_1s" transform="matrix(10.4,0,0,10.4,136.7,759)" />
<use xlink:href="#f1_h" transform="matrix(10.4,0,0,10.4,141.1,759)" />
<use xlink:href="#f4_o" transform="matrix(12,0,0,12,640.2,964)" />
</g>
<g fill="#0080FF" fill-opacity="0.5" >
<use xlink:href="#f0_1c" transform="matrix(36.4,0,0,36.4,174.4,1053.6)" />
<use xlink:href="#f0_21" transform="matrix(36.4,0,0,36.4,205.3,1053.6)" />
<use xlink:href="#f0_1x" transform="matrix(36.4,0,0,36.4,236.2,1053.6)" />
<use xlink:href="#f0_2e" transform="matrix(36.4,0,0,36.4,267.1,1053.6)" />
<use xlink:href="#f0_2a" transform="matrix(36.4,0,0,36.4,285.6,1053.6)" />
<use xlink:href="#f0_17" transform="matrix(36.4,0,0,36.4,316.5,1053.6)" />
<use xlink:href="#f0_2h" transform="matrix(36.4,0,0,36.4,359.8,1053.6)" />
<use xlink:href="#f0_25" transform="matrix(36.4,0,0,36.4,390.7,1053.6)" />
<use xlink:href="#f0_20" transform="matrix(36.4,0,0,36.4,403,1053.6)" />
<use xlink:href="#f0_21" transform="matrix(36.4,0,0,36.4,433.9,1053.6)" />
<use xlink:href="#f0_i" transform="matrix(36.4,0,0,36.4,464.8,1053.6)" />
<use xlink:href="#f0_25" transform="matrix(36.4,0,0,36.4,480.2,1053.6)" />
<use xlink:href="#f0_2a" transform="matrix(36.4,0,0,36.4,492.6,1053.6)" />
</g>
<defs>
<path d="M593,101c0,0,182,0,279,112c0,0,98,113,98,318c0,0,0,196,-98,308c0,0,-98,112,-277,112c0,0,-181,0,-279,-110c0,0,-99,-111,-99,-310c0,0,0,-198,100,-314c0,0,99,-116,276,-116Zm0,-115c0,0,-162,0,-279,65c0,0,-118,66,-180,190c0,0,-62,124,-62,290c0,0,0,252,138,394c0,0,138,142,385,142c0,0,160,0,278,-64c0,0,118,-64,180,-185c0,0,62,-122,62,-287c0,0,0,-165,-63,-289c0,0,-63,-124,-181,-190c0,0,-118,-66,-278,-66Z" 
id="f0_1f"
transform="scale(0.001,-0.001)" />

<path d="M106,0V635c0,0,0,141,-5,173H228c0,0,1,-4,2,-21c0,0,1,-16,2,-37c0,0,1,-22,2,-81h2c0,0,47,84,108,119c0,0,60,34,151,34c0,0,132,0,194,-66c0,0,61,-66,61,-218V0H615V512c0,0,0,80,-15,124c0,0,-16,44,-50,63c0,0,-35,20,-101,20c0,0,-97,0,-153,-67c0,0,-56,-66,-56,-184V0Z" 
id="f0_2a"
transform="scale(0.001,-0.001)" />

<path d="M103,0V1107H237V0Z" 
id="f0_28"
transform="scale(0.001,-0.001)" />

<path d="M102,0V808H236V0Zm0,979v128H236V979Z" 
id="f0_25"
transform="scale(0.001,-0.001)" />

<path d="M643,478c0,0,-11,128,-65,187c0,0,-54,59,-154,59c0,0,-98,0,-155,-66c0,0,-57,-65,-62,-180ZM431,-14c0,0,-179,0,-272,106c0,0,-94,107,-94,317c0,0,0,200,94,307c0,0,93,106,267,106c0,0,356,0,356,-429V375H206c0,0,0,-138,57,-213c0,0,58,-75,168,-75c0,0,87,0,140,35c0,0,53,35,71,88L760,177c0,0,-72,-191,-329,-191Z" 
id="f0_21"
transform="scale(0.001,-0.001)" />

<path d="M17,0L304,415L31,808H179L380,493L580,808H730L457,417L747,0H598L380,331L162,0Z" 
id="f0_2k"
transform="scale(0.001,-0.001)" />

<path d="M339,87c0,0,74,0,132,34c0,0,57,33,90,91c0,0,34,59,34,121v66L448,396c0,0,-95,-2,-144,-19c0,0,-49,-18,-75,-55c0,0,-26,-38,-26,-98c0,0,0,-65,35,-101c0,0,36,-36,101,-36ZM309,-14c0,0,-122,0,-183,64c0,0,-61,64,-61,176c0,0,0,125,82,192c0,0,83,67,266,72l182,3v44c0,0,0,98,-42,141c0,0,-42,43,-132,43c0,0,-90,0,-131,-31c0,0,-41,-31,-49,-98L101,604c0,0,34,218,323,218c0,0,153,0,229,-70c0,0,77,-69,77,-202V202c0,0,0,-59,16,-90c0,0,16,-30,60,-30c0,0,19,0,44,5V4C850,4,799,-7,746,-7c0,0,-75,0,-109,38c0,0,-33,40,-38,124h-4C595,155,543,62,475,24c0,0,-68,-38,-166,-38Z" 
id="f0_1x"
transform="scale(0.001,-0.001)" />

<path d="M106,0V635c0,0,0,141,-5,173H228c0,0,1,-4,2,-21c0,0,1,-16,2,-37c0,0,1,-22,2,-81h2c0,0,44,86,100,120c0,0,56,33,136,33c0,0,92,0,145,-36c0,0,54,-37,75,-117h2c0,0,42,82,101,117c0,0,59,36,143,36c0,0,123,0,178,-66c0,0,56,-67,56,-218V0H1039V512c0,0,0,117,-32,162c0,0,-32,45,-116,45c0,0,-88,0,-136,-66c0,0,-49,-65,-49,-185V0H573V512c0,0,0,117,-32,162c0,0,-32,45,-116,45c0,0,-86,0,-136,-66c0,0,-50,-66,-50,-185V0Z" 
id="f0_29"
transform="scale(0.001,-0.001)" />

<path d="M453,84c0,0,100,0,146,74c0,0,46,73,46,247c0,0,0,169,-46,241c0,0,-45,73,-145,73c0,0,-80,0,-125,-34c0,0,-45,-34,-68,-105c0,0,-24,-71,-24,-186c0,0,0,-159,51,-234c0,0,51,-76,165,-76ZM103,-316V643c0,0,0,124,-5,165H228c0,0,1,-3,3,-22c0,0,1,-18,3,-56c0,0,2,-38,2,-52h3c0,0,36,75,94,110c0,0,59,34,156,34c0,0,149,0,223,-100c0,0,74,-100,74,-314c0,0,0,-422,-297,-422c0,0,-187,0,-251,140h-4c0,0,3,-6,3,-126V-316Z" 
id="f0_2c"
transform="scale(0.001,-0.001)" />

<path d="M420,84c0,0,121,0,173,78c0,0,52,77,52,243c0,0,0,167,-50,243c0,0,-50,76,-167,76c0,0,-118,0,-170,-78c0,0,-53,-77,-53,-241c0,0,0,-160,52,-241c0,0,52,-80,163,-80Zm1,-98c0,0,-176,0,-267,107c0,0,-90,108,-90,312c0,0,0,417,362,417c0,0,185,0,272,-102c0,0,88,-101,88,-315c0,0,0,-212,-94,-316C692,89,599,-14,421,-14Z" 
id="f0_2b"
transform="scale(0.001,-0.001)" />

<path d="M278,-11c0,0,-162,0,-162,182V710H23v98h99l39,181h90V808H400V710H251V200c0,0,0,-58,19,-82c0,0,19,-23,66,-23c0,0,27,0,77,10V6c0,0,-66,-17,-135,-17Z" 
id="f0_2g"
transform="scale(0.001,-0.001)" />

<path d="M511,373V863L169,383l-7,-10ZM511,0V258H38V383l496,691H646V373H799V258H646V0Z" 
id="f1_n"
transform="scale(0.001,-0.001)" />

<path d="M424,92c0,0,114,0,170,107c0,0,57,108,56,323c0,0,1,216,-56,324c0,0,-56,107,-170,107c0,0,-112,0,-168,-107c0,0,-56,-108,-57,-324c0,0,1,-215,57,-323c0,0,56,-107,168,-107Zm0,-120c0,0,-176,0,-271,142c0,0,-96,143,-96,408c0,0,0,265,96,409c0,0,95,144,271,144c0,0,178,0,273,-144c0,0,96,-144,96,-409c0,0,0,-265,-96,-408c0,0,-95,-142,-273,-142Z" 
id="f1_j"
transform="scale(0.001,-0.001)" />

<path d="M133,0V162H292V0Z" 
id="f1_h"
transform="scale(0.001,-0.001)" />

<path d="M131,0V1097H891V966H280V631H814V500H280V0Z" 
id="f1_15"
transform="scale(0.001,-0.001)" />

<path d="M104,0V799H238V0Zm-2,946v152H239V946Z" 
id="f1_24"
transform="scale(0.001,-0.001)" />

<path d="M99,0V799H226V681l30,39c0,0,87,102,219,102c0,0,132,0,203,-71c0,0,72,-72,72,-204V0H616V502c0,0,0,105,-41,151c0,0,-40,47,-132,47c0,0,-97,0,-154,-73c0,0,-56,-74,-56,-199V0Z" 
id="f1_29"
transform="scale(0.001,-0.001)" />

<path d="M411,93c0,0,98,0,158,73c0,0,60,74,60,195c0,0,0,163,-57,252c0,0,-56,88,-161,88c0,0,-113,0,-165,-72c0,0,-52,-72,-52,-229c0,0,0,-147,56,-227c0,0,56,-80,161,-80ZM404,-20c0,0,-161,0,-255,118c0,0,-95,120,-95,324c0,0,0,179,92,290c0,0,91,110,239,110c0,0,147,0,233,-124l11,-15v414H763V0H638V109L621,84C621,84,538,-20,404,-20Z" 
id="f1_1z"
transform="scale(0.001,-0.001)" />

<path d="M292,-9c0,0,-88,0,-124,38c0,0,-36,39,-36,134V689H22V799H132v224H266V799H392V689H266V163c0,0,0,-27,21,-43c0,0,21,-15,57,-15h48V1C392,1,324,-9,292,-9Z" 
id="f1_2f"
transform="scale(0.001,-0.001)" />

<path d="M99,0V1097H233V690l23,30c0,0,87,102,219,102c0,0,132,0,203,-71c0,0,72,-72,72,-204V0H616V514c0,0,0,99,-38,142c0,0,-38,44,-124,44c0,0,-102,0,-162,-73c0,0,-59,-74,-59,-199V0Z" 
id="f1_23"
transform="scale(0.001,-0.001)" />

<path d="M649,461c0,0,-6,111,-55,172c0,0,-55,69,-160,69c0,0,-106,0,-170,-79c0,0,-50,-62,-60,-162ZM425,-20c0,0,-169,0,-266,106c0,0,-97,107,-97,297c0,0,0,201,102,320c0,0,103,119,276,119c0,0,157,0,253,-116c0,0,96,-117,96,-306l-1,-48H204c0,0,8,-119,54,-182c0,0,57,-76,180,-76c0,0,77,0,134,43c0,0,58,43,70,110H775C775,247,746,116,656,47c0,0,-90,-67,-231,-67Z" 
id="f1_20"
transform="scale(0.001,-0.001)" />

<path d="M406,93c0,0,97,0,156,73c0,0,59,74,59,195c0,0,0,163,-56,252c0,0,-55,88,-158,88c0,0,-111,0,-162,-72c0,0,-51,-73,-51,-229c0,0,0,-147,55,-227c0,0,55,-80,157,-80ZM621,-315V93l-7,-9C614,84,532,-20,400,-20c0,0,-159,0,-253,118c0,0,-93,119,-93,323c0,0,0,180,90,291c0,0,91,110,237,110c0,0,146,0,231,-124c0,0,10,-14,17,-29V799H755V-315Z" 
id="f1_2c"
transform="scale(0.001,-0.001)" />

<path d="M375,-20c0,0,-136,0,-203,66c0,0,-68,68,-68,204V799H238V284c0,0,0,-101,38,-146c0,0,39,-44,127,-44c0,0,97,0,153,75c0,0,57,75,57,203V799H747V0H620V122c0,0,-14,-22,-30,-41C590,81,504,-20,375,-20Z" 
id="f1_2g"
transform="scale(0.001,-0.001)" />

<path d="M335,90c0,0,106,0,179,57c0,0,50,41,67,91c0,0,3,10,4,31c0,0,3,21,3,47v87c0,0,-38,-18,-83,-25L381,360c0,0,-97,-13,-142,-45c0,0,-44,-31,-44,-86c0,0,0,-67,36,-103c0,0,37,-36,104,-36ZM309,-20c0,0,-117,0,-186,61c0,0,-68,63,-68,169c0,0,0,108,64,171c0,0,65,64,189,79l183,23c0,0,22,3,42,8c0,0,26,7,40,27c0,0,15,20,15,51v6c0,0,0,64,-49,101c0,0,-48,36,-135,36c0,0,-83,0,-130,-38c0,0,-46,-39,-56,-115H94c0,0,10,131,92,197c0,0,83,66,238,66c0,0,145,0,222,-63c0,0,76,-63,76,-184V137c0,0,0,-21,12,-33c0,0,12,-12,33,-12c0,0,6,0,18,1c0,0,11,2,25,5V1c0,0,-20,-7,-41,-11c0,0,-22,-5,-37,-5c0,0,-76,0,-110,41c0,0,-22,28,-32,79c0,0,-15,-19,-34,-36c0,0,-101,-89,-247,-89Z" 
id="f1_1w"
transform="scale(0.001,-0.001)" />

<path d="M424,94c0,0,107,0,169,83c0,0,63,83,63,223c0,0,0,140,-63,224c0,0,-62,83,-169,83c0,0,-106,0,-168,-83c0,0,-62,-84,-62,-224c0,0,0,-140,62,-223c0,0,62,-83,168,-83Zm0,-114c0,0,-165,0,-268,115C156,95,54,211,54,400c0,0,0,189,102,306c0,0,103,116,268,116c0,0,168,0,270,-116c0,0,102,-117,102,-306c0,0,0,-189,-102,-305C694,95,592,-20,424,-20Z" 
id="f1_2a"
transform="scale(0.001,-0.001)" />

<path d="M132,0V687H22V799H132V935c0,0,0,88,52,133c0,0,52,45,157,45l59,-3V989l-53,2c0,0,-39,0,-60,-24c0,0,-21,-25,-21,-71V799H400V687H266V0Z" 
id="f1_21"
transform="scale(0.001,-0.001)" />

<path d="M103,0V1097H237V0Z" 
id="f1_27"
transform="scale(0.001,-0.001)" />

<path d="M393,-20c0,0,-169,0,-252,65c0,0,-83,67,-92,210H178c0,0,10,-85,61,-123c0,0,50,-38,154,-38c0,0,90,0,136,34c0,0,47,35,47,100c0,0,0,42,-31,64c0,0,-30,21,-123,43L283,368c0,0,-112,27,-160,75c0,0,-48,48,-48,135c0,0,0,112,80,178c0,0,81,66,218,66c0,0,140,0,222,-68c0,0,82,-67,88,-187H557c0,0,-6,67,-55,103c0,0,-48,37,-129,37c0,0,-84,0,-127,-29c0,0,-44,-29,-44,-85c0,0,0,-43,31,-65c0,0,30,-21,121,-43L493,452c0,0,117,-28,167,-78c0,0,49,-49,49,-138c0,0,0,-119,-86,-188c0,0,-85,-68,-230,-68Z" 
id="f1_2e"
transform="scale(0.001,-0.001)" />

<path d="M310,0L12,799H168L383,145L604,799H752L454,0Z" 
id="f1_2h"
transform="scale(0.001,-0.001)" />

<path d="M418,95c0,0,98,0,158,73c0,0,59,73,59,193c0,0,0,170,-54,254c0,0,-54,85,-163,85c0,0,-113,0,-165,-72c0,0,-52,-71,-52,-227c0,0,0,-147,57,-227c0,0,56,-79,160,-79ZM394,-336c0,0,-136,0,-216,62c0,0,-79,63,-96,182H219c0,0,12,-64,57,-98c0,0,45,-35,116,-35c0,0,116,0,176,73c0,0,61,73,61,211V85l-1,-1C628,84,545,-20,412,-20c0,0,-161,0,-256,118c0,0,-94,120,-94,324c0,0,0,179,93,290c0,0,93,110,244,110c0,0,144,0,228,-124l10,-14V799H763V59c0,0,-1,-201,-91,-298c0,0,-91,-97,-278,-97Z" 
id="f1_22"
transform="scale(0.001,-0.001)" />

<path d="M436,95c0,0,105,0,160,79c0,0,54,80,54,232c0,0,0,150,-52,222c0,0,-52,72,-161,72c0,0,-112,0,-163,-81c0,0,-51,-82,-51,-258c0,0,0,-127,55,-197c0,0,55,-69,158,-69ZM89,-315V799H216V685l7,10c0,0,86,127,228,127c0,0,156,0,248,-108c0,0,91,-107,91,-291c0,0,0,-208,-92,-326C698,97,606,-20,442,-20c0,0,-135,0,-215,102l-4,6V-315Z" 
id="f1_2b"
transform="scale(0.001,-0.001)" />

<path d="M47,0V105L526,687H83V799H706V695L227,111H717V0Z" 
id="f1_2l"
transform="scale(0.001,-0.001)" />

<path d="M118,0V799H246V662c0,0,17,32,36,58c0,0,76,102,187,102c0,0,19,0,38,-6V679l-27,1c0,0,-109,0,-168,-66c0,0,-60,-65,-60,-186V0Z" 
id="f1_2d"
transform="scale(0.001,-0.001)" />

<path d="M248,0L21,799H169L322,163L478,799H627L788,158L950,799h133L857,0H713L548,624L392,0Z" 
id="f1_2i"
transform="scale(0.001,-0.001)" />

<path d="M394,-20c0,0,-159,0,-253,113c0,0,-95,114,-95,307c0,0,0,193,98,308c0,0,98,114,264,114c0,0,144,0,230,-78c0,0,85,-79,91,-217H600c0,0,-8,86,-59,133c0,0,-52,47,-138,47c0,0,-101,0,-159,-82c0,0,-58,-82,-58,-225c0,0,0,-152,54,-229c0,0,53,-77,159,-77c0,0,79,0,132,50c0,0,52,51,69,143H729C729,287,709,137,623,58c0,0,-86,-78,-229,-78Z" 
id="f1_1y"
transform="scale(0.001,-0.001)" />

<path d="M39,0V0c0,0,0,170,84,277c0,0,85,108,317,236c0,0,113,62,154,115c0,0,41,52,41,134c0,0,0,86,-62,141c0,0,-61,54,-156,54c0,0,-101,0,-158,-68c0,0,-57,-68,-60,-194H67c0,0,-2,178,95,279c0,0,98,101,273,101c0,0,149,0,245,-89c0,0,94,-88,94,-228c0,0,0,-118,-60,-195c0,0,-61,-76,-229,-169C485,394,303,294,237,212c0,0,-28,-36,-46,-81H774V0Z" 
id="f1_l"
transform="scale(0.001,-0.001)" />

<path d="M406,0V763H155V870h2c16,0,114,2,178,48c0,0,70,51,104,157H549V0Z" 
id="f1_k"
transform="scale(0.001,-0.001)" />

<path d="M424,-28c0,0,-180,0,-272,86c0,0,-92,87,-100,266H192c0,0,12,-126,66,-180c0,0,55,-54,170,-54c0,0,100,0,163,57c0,0,64,57,64,147c0,0,0,94,-61,149c0,0,-52,48,-135,54c0,0,-38,2,-72,2c0,0,-34,0,-45,-3V613c0,0,17,-3,51,-3c0,0,35,0,68,4c0,0,66,8,106,43c0,0,55,45,55,125c0,0,0,77,-58,125c0,0,-58,48,-148,48c0,0,-96,0,-147,-58c0,0,-51,-59,-56,-175H82c0,0,0,168,89,260c0,0,88,93,250,93c0,0,153,0,247,-77c0,0,94,-76,94,-202c0,0,0,-124,-95,-201c0,0,-18,-15,-39,-27c0,0,39,-17,69,-41c0,0,101,-79,101,-214c0,0,0,-151,-105,-246c0,0,-104,-95,-269,-95Z" 
id="f1_m"
transform="scale(0.001,-0.001)" />

<path d="M99,-328c0,0,-46,0,-76,13l25,123c0,0,29,-14,81,-14c0,0,47,0,76,31c0,0,28,31,106,162L185,800H339L415,141L769,800H918L456,0C456,0,329,-216,269,-272c0,0,-61,-56,-170,-56Z" 
id="f2_2k"
transform="scale(0.001,-0.001)" />

<path d="M17,0L389,412L201,800H376L500,518L742,800H904L554,410L750,0H580L448,303L187,0Z" 
id="f2_2j"
transform="scale(0.001,-0.001)" />

<path d="M0,214v74H784V214ZM0,494v72H784V494Z" 
id="f3_x"
transform="scale(0.001,-0.001)" />

<path d="M0,356v74H784V356Z" 
id="f3_h"
transform="scale(0.001,-0.001)" />

<path d="M355,0V355H0v72H355V784h72V427H782V355H427V0Z" 
id="f3_f"
transform="scale(0.001,-0.001)" />

<path d="M575,590c0,0,115,0,169,48c0,0,54,49,54,154c0,0,0,92,-54,135c0,0,-54,43,-169,43H280V590ZM131,0V1097H611c0,0,160,0,249,-80c0,0,90,-80,90,-222c0,0,0,-156,-90,-244c0,0,-89,-88,-249,-88c0,0,-34,0,-82,0c-72,0,-177,0,-249,-1V0Z" 
id="f1_1f"
transform="scale(0.001,-0.001)" />

<path d="M60,174V286H832V174Zm0,309V595H832V483Z" 
id="f1_w"
transform="scale(0.001,-0.001)" />

<path d="M102,0L329,1097H464L333,467L745,800H921L546,501L769,0H595L429,409L300,306L237,0Z" 
id="f2_26"
transform="scale(0.001,-0.001)" />

<path d="M424,92c0,0,98,0,161,58c0,0,62,58,62,149c0,0,0,92,-62,151c0,0,-63,58,-161,58c0,0,-98,0,-160,-58c0,0,-63,-59,-63,-151c0,0,0,-91,63,-149c0,0,62,-58,160,-58Zm0,533c0,0,82,0,134,46c0,0,52,45,52,118c0,0,0,72,-52,118c0,0,-52,46,-134,46c0,0,-82,0,-134,-46c0,0,-52,-46,-52,-118c0,0,0,-73,52,-119c0,0,52,-45,134,-45Zm0,-653c0,0,-165,0,-265,90C159,62,59,154,59,305c0,0,0,134,100,216c0,0,35,28,78,47c0,0,-27,15,-52,33c0,0,-90,70,-90,185c0,0,0,130,90,209c0,0,91,80,239,80c0,0,148,0,238,-80c0,0,91,-79,91,-209c0,0,0,-115,-91,-185c0,0,-24,-19,-52,-32c0,0,44,-20,79,-49c0,0,101,-81,101,-215c0,0,0,-151,-101,-243c0,0,-100,-90,-265,-90Z" 
id="f1_r"
transform="scale(0.001,-0.001)" />

<path d="M99,0V799H226V680l28,36c0,0,90,106,215,106c0,0,107,0,171,-63c0,0,28,-28,44,-65l21,28c0,0,87,100,208,100c0,0,125,0,194,-68c0,0,68,-68,68,-194V0H1041V515c0,0,0,91,-37,138c0,0,-38,47,-110,47c0,0,-87,0,-139,-68c0,0,-52,-68,-52,-183V0H569V547c0,0,0,75,-34,114c0,0,-34,39,-99,39c0,0,-89,0,-146,-76c0,0,-57,-76,-57,-196V0Z" 
id="f1_28"
transform="scale(0.001,-0.001)" />

<path d="M365,-315c0,0,-136,187,-199,359c0,0,-62,172,-62,359c0,0,0,186,62,358c0,0,63,172,199,360h92c0,0,-110,-192,-160,-365c0,0,-51,-172,-51,-353c0,0,0,-183,51,-355c0,0,50,-172,160,-363Z" 
id="f1_b"
transform="scale(0.001,-0.001)" />

<path d="M354,90c0,0,107,0,192,57c0,0,60,41,87,95c0,0,5,12,11,33c0,0,6,20,11,44l18,88c0,0,-62,-26,-132,-37L414,352c0,0,-84,-11,-131,-56c0,0,-47,-45,-47,-113c0,0,0,-44,31,-69c0,0,31,-24,87,-24ZM306,-20c0,0,-99,0,-156,47c0,0,-57,49,-57,134c0,0,1,117,81,198c0,0,80,81,211,98l164,20l70,10c0,0,35,6,59,30c0,0,23,24,31,66l1,2c0,0,13,64,-25,94c0,0,-39,31,-132,31c0,0,-83,0,-137,-37c0,0,-54,-37,-84,-114H210c0,0,46,137,138,201c0,0,92,63,245,63c0,0,149,0,211,-59c0,0,45,-44,44,-116c0,0,1,-30,-6,-63L749,136c0,0,-4,-19,6,-32c0,0,10,-12,30,-12c0,0,6,0,19,1c0,0,12,2,25,5L809,1c0,0,-19,-6,-43,-11c0,0,-22,-5,-36,-5c0,0,-73,0,-100,43c0,0,-16,27,-17,75C612,102,594,85,573,69c0,0,-120,-89,-267,-89Z" 
id="f2_1w"
transform="scale(0.001,-0.001)" />

<path d="M99,0L264,800H392L367,676l36,38c0,0,110,109,236,109c0,0,108,0,159,-63c0,0,23,-30,31,-71l36,34c0,0,113,100,221,100c0,0,123,0,176,-67c0,0,37,-45,37,-117c0,0,0,-33,-8,-73L1173,0H1038l113,546c0,0,16,76,-10,116c0,0,-26,39,-92,39c0,0,-90,0,-159,-65c0,0,-68,-65,-91,-172L704,0H569L684,560c0,0,15,72,-7,106c0,0,-23,35,-85,35c0,0,-109,0,-177,-77c0,0,-68,-77,-101,-238L234,0Z" 
id="f2_28"
transform="scale(0.001,-0.001)" />

<path d="M133,-224v71c0,0,47,8,65,52c0,0,14,33,17,101H133V163H292V27c0,0,0,-114,-36,-172c0,0,-37,-58,-123,-79Z" 
id="f1_f"
transform="scale(0.001,-0.001)" />

<path d="M52,-315c0,0,109,192,160,363c0,0,50,173,50,354c0,0,0,183,-50,355c0,0,-51,173,-160,364h92c0,0,135,-188,198,-360c0,0,63,-172,63,-359c0,0,0,-187,-63,-359c0,0,-63,-171,-198,-358Z" 
id="f1_c"
transform="scale(0.001,-0.001)" />

<path d="M528,-29c0,0,-215,0,-336,99C192,70,75,170,75,342v8H211c0,0,4,-119,87,-184c0,0,83,-65,231,-65c0,0,136,0,207,47c0,0,71,47,71,138c0,0,0,79,-47,118c0,0,-47,37,-187,71L382,520c0,0,-145,34,-207,96c0,0,-62,61,-62,169c0,0,0,158,107,250c0,0,107,92,289,92c0,0,185,0,295,-92c0,0,110,-93,117,-256H784c0,0,-9,104,-81,161c0,0,-72,56,-194,56c0,0,-125,0,-190,-48c0,0,-65,-49,-65,-142c0,0,0,-64,43,-95c0,0,43,-32,174,-62L662,603c0,0,154,-37,220,-108c0,0,65,-71,65,-201c0,0,0,-150,-113,-237c0,0,-113,-86,-306,-86Z" 
id="f1_1i"
transform="scale(0.001,-0.001)" />

<path d="M417,-28c0,0,-161,0,-259,79c0,0,-98,81,-109,223H189c0,0,11,-90,72,-139c0,0,61,-49,162,-49c0,0,96,0,158,68c0,0,61,68,61,175c0,0,0,112,-64,178c0,0,-64,66,-173,66c0,0,-59,0,-115,-28c0,0,-55,-29,-84,-73L93,480l77,573H727V922H271L225,629l4,3c0,0,89,60,188,60c0,0,169,0,269,-94c0,0,99,-93,99,-253c0,0,0,-165,-103,-269C682,76,579,-28,417,-28Z" 
id="f1_o"
transform="scale(0.001,-0.001)" />

<path d="M0,368V478H849V368Z" 
id="f1_99"
transform="scale(0.001,-0.001)" />

<path d="M390,-1V329H60V441H390V771H503V441H833V329H503V-1Z" 
id="f1_e"
transform="scale(0.001,-0.001)" />

<path d="M62,-123V1415h72V-123Z" 
id="f3_4p"
transform="scale(0.001,-0.001)" />

<path d="M650,-123c0,0,-180,75,-319,246c0,0,-140,172,-205,418c0,0,-64,245,-64,481v393h72V1007c0,0,0,-236,63,-459c0,0,63,-223,189,-391c0,0,108,-145,282,-265l-18,-15Z" 
id="f3_4q"
transform="scale(0.001,-0.001)" />

<path d="M617,-123V1415h72V-123Z" 
id="f3_55"
transform="scale(0.001,-0.001)" />

<path d="M101,-123l-17,15c0,0,210,144,334,339c0,0,99,156,149,373c0,0,50,218,50,403v408h72V1022c0,0,0,-230,-56,-451c0,0,-48,-191,-134,-335C499,236,412,92,295,-5c0,0,-84,-73,-194,-118Z" 
id="f3_56"
transform="scale(0.001,-0.001)" />

<path d="M62,-123V268c0,0,0,230,56,452c0,0,47,190,134,334c0,0,87,144,204,242c0,0,85,73,194,119l18,-16c0,0,-211,-145,-335,-339c0,0,-98,-156,-149,-374c0,0,-50,-218,-50,-403V-123Z" 
id="f3_4o"
transform="scale(0.001,-0.001)" />

<path d="M617,-123V283c0,0,0,236,-63,459c0,0,-63,223,-188,392c0,0,-108,146,-282,265l17,16c0,0,180,-76,320,-248c0,0,139,-172,204,-417c0,0,64,-245,64,-482V-123Z" 
id="f3_54"
transform="scale(0.001,-0.001)" />

<path d="M432,92c0,0,96,0,156,66c0,0,61,65,61,169c0,0,0,103,-61,169c0,0,-60,66,-156,66c0,0,-95,0,-156,-66c0,0,-61,-66,-61,-169c0,0,0,-104,61,-169c0,0,61,-66,156,-66ZM425,-28c0,0,-176,0,-271,135c0,0,-95,136,-95,388c0,0,0,278,103,429c0,0,103,151,293,151c0,0,142,0,226,-77c0,0,84,-76,90,-211H638c0,0,-8,80,-56,123c0,0,-47,43,-127,43c0,0,-125,0,-192,-119c0,0,-58,-102,-64,-278c0,0,100,127,255,127c0,0,152,0,245,-98c0,0,93,-98,93,-258c0,0,0,-161,-101,-259c0,0,-101,-96,-266,-96Z" 
id="f1_p"
transform="scale(0.001,-0.001)" />

<path d="M212,0c0,0,51,270,162,500c0,0,109,222,281,422H57v131H799V934C799,934,623,726,515,498C515,498,408,269,362,0Z" 
id="f1_q"
transform="scale(0.001,-0.001)" />

<path d="M456,95c0,0,130,0,213,121c0,0,82,120,82,310c0,0,0,85,-44,131c0,0,-44,46,-125,46c0,0,-98,0,-174,-90c0,0,-76,-90,-108,-245c0,0,-26,-126,16,-199c0,0,42,-74,140,-74ZM436,-20c0,0,-132,0,-195,108l-5,7L217,0H89L316,1097H450L365,683l10,11c0,0,120,129,262,129c0,0,121,0,190,-77c0,0,69,-77,69,-211c0,0,0,-234,-134,-395C762,140,629,-20,436,-20Z" 
id="f2_1x"
transform="scale(0.001,-0.001)" />

<path d="M436,95c0,0,105,0,160,79c0,0,54,80,54,232c0,0,0,150,-52,222c0,0,-52,72,-161,72c0,0,-112,0,-163,-81c0,0,-51,-82,-51,-258c0,0,0,-127,55,-197c0,0,55,-69,158,-69Zm6,-115c0,0,-135,0,-215,102L215,98V0H89V1097H223V695c0,0,87,127,225,127c1,0,2,0,2,0c0,0,157,0,249,-108c0,0,91,-107,91,-291c0,0,0,-208,-92,-326C698,97,606,-20,442,-20Z" 
id="f1_1x"
transform="scale(0.001,-0.001)" />

<path d="M-24,-29L348,1125H450L77,-29Z" 
id="f1_i"
transform="scale(0.001,-0.001)" />

<path d="M142,355l28,137H545L516,355Z" 
id="f2_g"
transform="scale(0.001,-0.001)" />

<path d="M17,0L301,412L32,799H205L389,514L574,799H740L471,410L749,0H581L382,305L186,0Z" 
id="f1_2j"
transform="scale(0.001,-0.001)" />

<path d="M152,-323c-8,0,-38,1,-63,8v125c0,0,30,-11,77,-12c0,0,45,0,76,37c0,0,30,38,69,140l2,12v1L17,799H170L383,139L600,799H747L443,-25c0,0,-70,-184,-125,-241c0,0,-55,-57,-164,-57c0,0,-1,0,-2,0Z" 
id="f1_2k"
transform="scale(0.001,-0.001)" />

<path d="M281,-9c0,0,-86,0,-115,42c0,0,-30,43,-11,139L263,688H157l23,112H285l47,224H467L420,800H548L525,688H398L290,172c0,0,-6,-35,11,-51c0,0,16,-16,58,-16h46L383,0c0,0,-68,-9,-102,-9Z" 
id="f2_2f"
transform="scale(0.001,-0.001)" />

<path d="M140,-21c0,0,-26,0,-44,17C96,-4,79,13,79,40c0,0,0,19,6,33c0,0,8,20,34,55c0,0,46,60,64,126c0,0,32,114,41,321H190c0,0,-55,0,-81,-18c0,0,-44,-26,-80,-89H0c0,0,42,129,98,178c0,0,43,37,120,37H743V575H562c0,0,-27,-171,-27,-327c0,0,0,-77,27,-110c0,0,27,-33,67,-33c0,0,33,0,56,22c0,0,24,22,31,65h27C743,192,730,74,686,26c0,0,-44,-47,-98,-47c0,0,-58,0,-97,51c0,0,-39,53,-39,198c0,0,0,91,28,347H286c0,0,-23,-390,-56,-494c0,0,-33,-102,-90,-102Z" 
id="f3_2c"
transform="scale(0.001,-0.001)" />

<path d="M419,483c0,0,93,0,152,66c0,0,59,66,59,169c0,0,0,103,-59,169c0,0,-59,65,-152,65c0,0,-94,0,-153,-65c0,0,-59,-66,-59,-169c0,0,0,-103,59,-169c0,0,59,-66,153,-66ZM397,-28c0,0,-143,0,-227,75c0,0,-85,77,-91,211H209c0,0,8,-83,57,-128c0,0,49,-45,131,-45c0,0,121,0,186,135c0,0,48,101,62,265C645,485,545,362,397,362c0,0,-150,0,-241,98c0,0,-91,98,-91,258c0,0,0,160,99,258c0,0,99,98,262,98c0,0,173,0,266,-123c0,0,94,-123,94,-349c0,0,0,-303,-101,-467C685,135,583,-28,397,-28Z" 
id="f1_s"
transform="scale(0.001,-0.001)" />

<path d="M131,0L274,688H168l23,112H296l26,125c0,0,20,98,82,143c0,0,62,46,176,46c0,0,33,0,59,-5L609,990c0,0,0,3,-53,3c0,0,-45,0,-70,-25c0,0,-25,-25,-37,-83L431,800H575L553,688H409L266,0Z" 
id="f2_21"
transform="scale(0.001,-0.001)" />

<path d="M45,0V81L673,391L45,704v80L795,412V374L45,0Z" 
id="f3_y"
transform="scale(0.001,-0.001)" />

<path d="M139,0V1097H287V0Z" 
id="f1_18"
transform="scale(0.001,-0.001)" />

<path d="M544,127c0,0,160,0,247,110c0,0,87,109,87,311c0,0,0,202,-84,312c0,0,-83,110,-237,110H273V127ZM124,0V1097H575c0,0,209,0,332,-149c0,0,124,-149,124,-400c0,0,0,-251,-127,-399C904,149,778,0,563,0Z" 
id="f1_13"
transform="scale(0.001,-0.001)" />

<path d="M96,-299V1104H382V995H217V-191H382V-299Z" 
id="f1_1q"
transform="scale(0.001,-0.001)" />

<path d="M42,-299v108H207V995H42v109H329V-299Z" 
id="f1_1s"
transform="scale(0.001,-0.001)" />

<path d="M494,385V878L152,385ZM494,0V262H20V385l498,708H628V385H775V262H628V0Z" 
id="f4_o"
transform="scale(0.001,-0.001)" />

<path d="M125,0V1051H268V115H799V0Z" 
id="f0_1c"
transform="scale(0.001,-0.001)" />

<path d="M106,0V620c0,0,0,85,-5,188H228c0,0,6,-138,6,-165h3c0,0,32,103,74,141c0,0,42,38,118,38c0,0,27,0,54,-7V692c0,0,-26,7,-71,7c0,0,-84,0,-128,-72c0,0,-44,-72,-44,-206V0Z" 
id="f0_2e"
transform="scale(0.001,-0.001)" />

<path d="M606,-14c0,0,-164,0,-284,65c0,0,-119,66,-182,189c0,0,-63,123,-63,291c0,0,0,255,137,396c0,0,137,140,386,140c0,0,174,0,283,-59c0,0,109,-59,168,-189L915,779c0,0,-44,90,-123,131c0,0,-79,41,-196,41c0,0,-182,0,-278,-110c0,0,-96,-110,-96,-310c0,0,0,-200,102,-315c0,0,102,-115,282,-115c0,0,103,0,193,31c0,0,89,31,144,85V407H629V526h445V164c0,0,-83,-85,-205,-132c0,0,-121,-46,-263,-46Z" 
id="f0_17"
transform="scale(0.001,-0.001)" />

<path d="M355,-14c0,0,-133,0,-194,65c0,0,-62,66,-62,219V808H234V296c0,0,0,-80,16,-124c0,0,16,-44,50,-64c0,0,34,-19,101,-19c0,0,97,0,153,66c0,0,55,67,55,185V808H744V172c0,0,0,-141,4,-172H621c0,0,0,4,-1,20c0,0,-1,17,-2,38c0,0,-1,21,-3,80h-2C613,138,567,55,506,20c0,0,-61,-34,-151,-34Z" 
id="f0_2h"
transform="scale(0.001,-0.001)" />

<path d="M395,89c0,0,115,0,166,79c0,0,51,79,51,246c0,0,0,160,-51,235c0,0,-51,75,-164,75c0,0,-102,0,-147,-75c0,0,-45,-75,-45,-244c0,0,0,-170,45,-243c0,0,45,-73,145,-73ZM361,-14c0,0,-153,0,-225,102c0,0,-72,103,-72,312c0,0,0,422,297,422c0,0,92,0,153,-33c0,0,61,-34,98,-107h2l-2,90v335H747V166c0,0,0,-126,4,-166H623c0,0,-2,12,-5,55c0,0,-3,44,-3,75h-3c0,0,-37,-78,-98,-111c0,0,-62,-33,-153,-33Z" 
id="f0_20"
transform="scale(0.001,-0.001)" />

<path d="M140,0V163H285V0Z" 
id="f0_i"
transform="scale(0.001,-0.001)" />


</defs>
</svg>