<?xml version="1.0" encoding="UTF-8" standalone="no"?>
<!DOCTYPE svg PUBLIC "-//W3C//DTD SVG 1.1//EN"
"http://www.w3.org/Graphics/SVG/1.1/DTD/svg11.dtd">
<svg viewBox="0 0 811 1133" version="1.1" xmlns="http://www.w3.org/2000/svg" xmlns:xlink="http://www.w3.org/1999/xlink">
<defs>
<style type="text/css"><![CDATA[
.g0_69{
fill: none;
stroke: #000000;
stroke-width: 0.76266664;
stroke-linecap: round;
stroke-linejoin: miter;
}
.g1_69{
fill: none;
stroke: #000000;
stroke-width: 0.38133332;
stroke-linecap: round;
stroke-linejoin: miter;
}
.g2_69{
fill: none;
stroke: #000000;
stroke-width: 0.15277778;
stroke-linecap: round;
stroke-linejoin: miter;
}
.g3_69{
}
.g4_69{
fill: none;
stroke: #000000;
stroke-width: 0.7638889;
stroke-linecap: round;
stroke-linejoin: miter;
}
.g5_69{
fill: none;
stroke: #000000;
stroke-width: 0.3823111;
stroke-linecap: round;
stroke-linejoin: miter;
}
.g6_69{
fill: none;
stroke: #000000;
stroke-width: 0.7646222;
stroke-linecap: round;
stroke-linejoin: miter;
}
.g7_69{
fill: none;
stroke: #000000;
stroke-width: 0.76144445;
stroke-linecap: round;
stroke-linejoin: miter;
}
.g8_69{
fill: none;
stroke: #000000;
stroke-width: 0.76486665;
stroke-linecap: round;
stroke-linejoin: miter;
}
.g9_69{
fill: none;
stroke: #000000;
stroke-width: 0.7619333;
stroke-linecap: round;
stroke-linejoin: miter;
}
]]></style>
</defs>
<g fill="#D4D4D4" fill-opacity="0.56" >
<use xlink:href="#f0_1f" transform="matrix(50.9,-50.9,50.9,50.9,199.9,924.1)" />
<use xlink:href="#f0_2a" transform="matrix(50.9,-50.9,50.9,50.9,260.4,863.6)" />
<use xlink:href="#f0_28" transform="matrix(50.9,-50.9,50.9,50.9,303.7,820.3)" />
<use xlink:href="#f0_25" transform="matrix(50.9,-50.9,50.9,50.9,320.9,803.1)" />
<use xlink:href="#f0_2a" transform="matrix(50.9,-50.9,50.9,50.9,338.2,785.8)" />
<use xlink:href="#f0_21" transform="matrix(50.9,-50.9,50.9,50.9,381.4,742.5)" />
<use xlink:href="#f0_2k" transform="matrix(50.9,-50.9,50.9,50.9,424.7,699.3)" />
<use xlink:href="#f0_1x" transform="matrix(50.9,-50.9,50.9,50.9,463.6,660.4)" />
<use xlink:href="#f0_29" transform="matrix(50.9,-50.9,50.9,50.9,506.8,617.2)" />
<use xlink:href="#f0_2c" transform="matrix(50.9,-50.9,50.9,50.9,571.6,552.4)" />
<use xlink:href="#f0_2b" transform="matrix(50.9,-50.9,50.9,50.9,614.9,509.1)" />
<use xlink:href="#f0_25" transform="matrix(50.9,-50.9,50.9,50.9,658.1,465.9)" />
<use xlink:href="#f0_2a" transform="matrix(50.9,-50.9,50.9,50.9,675.4,448.6)" />
<use xlink:href="#f0_2g" transform="matrix(50.9,-50.9,50.9,50.9,718.6,405.4)" />
</g>
<g fill="#000000" >
<use xlink:href="#f1_b" transform="matrix(10.4,0,0,10.4,187.9,85.3)" />
<use xlink:href="#f1_2j" transform="matrix(10.4,0,0,10.4,193.2,85.3)" />
<use xlink:href="#f1_c" transform="matrix(10.4,0,0,10.4,201.4,85.3)" />
</g>
<path d="M228,80h16.9" class="g0_69" />
<g fill="#000000" >
<use xlink:href="#f2_c" transform="matrix(10.4,0,0,16,249.4,80.7)" />
<use xlink:href="#f2_d" transform="matrix(10.4,0,0,16,336.4,80.8)" />
</g>
<path d="M341.9,65.8h7.7" class="g1_69" />
<path d="M374.6,80h10.3" class="g0_69" />
<g fill="#000000" >
<use xlink:href="#f2_c" transform="matrix(10.3,0,0,11.1,389.3,82.2)" />
<use xlink:href="#f2_d" transform="matrix(10.3,0,0,11.1,443.9,82.2)" />
</g>
<path d="M453.5,77.9L455,76.6l3.9,8.7l4.3,-22.9H543" class="g2_69" />
<path fill-rule="evenodd" d="M453.3,77.7L455.4,76l3.5,7.3l4,-21.3H543v.7H463.5l-4.2,22.6h-.7l-4,-8.1l-1,.8l-.3,-.3Z" class="g3_69" />
<g fill="#000000" >
<use xlink:href="#f1_m" transform="matrix(7.9,0,0,7.8,342.5,61.4)" />
<use xlink:href="#f1_l" transform="matrix(7.9,0,0,7.8,326.5,74.7)" />
<use xlink:href="#f1_l" transform="matrix(7.9,0,0,7.8,534,74.7)" />
<use xlink:href="#f1_l" transform="matrix(7.9,0,0,7.8,342.6,80.4)" />
<use xlink:href="#f1_k" transform="matrix(10.4,0,0,10.4,237.9,73.9)" />
<use xlink:href="#f1_k" transform="matrix(10.4,0,0,10.4,375.9,73.9)" />
<use xlink:href="#f1_k" transform="matrix(10.4,0,0,10.4,254.8,84.2)" />
<use xlink:href="#f1_l" transform="matrix(10.4,0,0,10.4,395.9,84.2)" />
<use xlink:href="#f1_k" transform="matrix(10.4,0,0,10.4,435.8,84.2)" />
<use xlink:href="#f1_k" transform="matrix(10.4,0,0,10.4,462.2,84.2)" />
<use xlink:href="#f1_m" transform="matrix(10.4,0,0,10.4,232.1,99.7)" />
<use xlink:href="#f1_r" transform="matrix(10.4,0,0,10.4,375.3,99.7)" />
<use xlink:href="#f3_2j" transform="matrix(10.4,0,0,10.4,283.6,84.2)" />
<use xlink:href="#f3_2j" transform="matrix(10.4,0,0,10.4,316,84.2)" />
<use xlink:href="#f3_2j" transform="matrix(10.4,0,0,10.4,404.9,84.2)" />
<use xlink:href="#f3_2j" transform="matrix(10.4,0,0,10.4,491.1,84.2)" />
<use xlink:href="#f3_2j" transform="matrix(10.4,0,0,10.4,523.4,84.2)" />
<use xlink:href="#f2_h" transform="matrix(10.4,0,0,10.4,229,73.9)" />
<use xlink:href="#f2_f" transform="matrix(10.4,0,0,10.4,267.7,84.2)" />
<use xlink:href="#f2_h" transform="matrix(10.4,0,0,10.4,300.3,84.2)" />
<use xlink:href="#f2_f" transform="matrix(10.4,0,0,10.4,358.4,84.2)" />
<use xlink:href="#f2_h" transform="matrix(10.4,0,0,10.4,421.6,84.2)" />
<use xlink:href="#f2_f" transform="matrix(10.4,0,0,10.4,475.2,84.2)" />
<use xlink:href="#f2_h" transform="matrix(10.4,0,0,10.4,507.8,84.2)" />
</g>
<path d="M532.4,125.6h18.3" class="g4_69" />
<path d="M617.5,141.4l1.7,-.9l3.9,6.4l4.2,-17.1h10" class="g2_69" />
<path fill-rule="evenodd" d="M617.4,141.2l2.1,-1.3l3.6,5.5l3.9,-16h10.3v.8h-9.7l-4.2,16.7h-.7L618.8,141l-1.1,.6l-.3,-.4Z" class="g3_69" />
<path d="M603.5,125.6h47.7" class="g4_69" />
<g fill="#000000" >
<use xlink:href="#f1_k" transform="matrix(7.9,0,0,7.9,583.3,120.2)" />
<use xlink:href="#f1_o" transform="matrix(10.7,0,0,10.6,537.1,119.4)" />
<use xlink:href="#f1_l" transform="matrix(10.7,0,0,10.6,604.3,119.4)" />
<use xlink:href="#f1_k" transform="matrix(10.7,0,0,10.6,644.3,119.4)" />
<use xlink:href="#f1_2e" transform="matrix(10.7,0,0,10.6,555.3,129.9)" />
<use xlink:href="#f1_24" transform="matrix(10.7,0,0,10.6,563.6,129.9)" />
<use xlink:href="#f1_29" transform="matrix(10.7,0,0,10.6,567.4,129.9)" />
<use xlink:href="#f1_k" transform="matrix(10.7,0,0,10.6,531.8,145.5)" />
<use xlink:href="#f1_p" transform="matrix(10.7,0,0,10.6,541.1,145.5)" />
<use xlink:href="#f1_o" transform="matrix(10.7,0,0,10.6,627.8,145.5)" />
<use xlink:href="#f3_2j" transform="matrix(10.7,0,0,10.6,613.3,119.4)" />
<use xlink:href="#f3_1y" transform="matrix(10.7,0,0,10.6,682.5,129.9)" />
<use xlink:href="#f2_h" transform="matrix(8,0,0,7.9,576.5,120.2)" />
<use xlink:href="#f2_h" transform="matrix(10.6,0,0,10.6,630.1,119.4)" />
<use xlink:href="#f2_4o" transform="matrix(10.6,0,0,10.6,593.8,120.5)" />
<use xlink:href="#f2_54" transform="matrix(10.6,0,0,10.6,653.1,120.5)" />
<use xlink:href="#f2_f" transform="matrix(10.6,0,0,10.6,518.4,129.9)" />
<use xlink:href="#f2_f" transform="matrix(10.6,0,0,10.6,667.6,129.9)" />
<use xlink:href="#f2_4p" transform="matrix(10.6,0,0,10.6,593.8,136.6)" />
<use xlink:href="#f2_55" transform="matrix(10.6,0,0,10.6,653.1,136.6)" />
<use xlink:href="#f2_4q" transform="matrix(10.6,0,0,10.6,593.8,143.2)" />
<use xlink:href="#f2_56" transform="matrix(10.6,0,0,10.6,653.1,143.2)" />
<use xlink:href="#f1_b" transform="matrix(10.4,0,0,10.4,184.2,229.9)" />
<use xlink:href="#f1_2j" transform="matrix(10.4,0,0,10.4,189.5,229.9)" />
<use xlink:href="#f1_24" transform="matrix(10.4,0,0,10.4,197.8,229.9)" />
<use xlink:href="#f1_c" transform="matrix(10.4,0,0,10.4,201.3,229.9)" />
<use xlink:href="#f2_c" transform="matrix(10.5,0,0,16.2,227.2,227.6)" />
<use xlink:href="#f2_d" transform="matrix(10.5,0,0,16.2,314.8,227.7)" />
</g>
<path d="M320.3,212.5h6.4" class="g5_69" />
<path d="M351.6,226.9h10.3m55.1,-25h10" class="g6_69" />
<path d="M441.3,199.7l1.6,-1.3l3.9,8.9L451.1,184h80.2" class="g2_69" />
<path fill-rule="evenodd" d="M441.2,199.5l2.1,-1.7l3.5,7.3l4,-21.5h80.5v.8H451.4l-4.2,22.9h-.8L442.5,199l-1,.9l-.3,-.4Z" class="g3_69" />
<path d="M389,250.8h10.2m67,0h10.1" class="g6_69" />
<path d="M499.8,248.6l1.6,-1.3l3.9,8.9L509.6,233h80.2" class="g2_69" />
<path fill-rule="evenodd" d="M499.7,248.4l2.1,-1.6l3.5,7.3l4,-21.5h80.5v.7H509.9l-4.2,22.9h-.8L501,248l-1,.8l-.3,-.4Z" class="g3_69" />
<path d="M430.1,231v40.8M592.9,231v40.8" class="g6_69" />
<g fill="#000000" >
<use xlink:href="#f1_m" transform="matrix(6.3,0,0,6.3,320.9,210.9)" />
<use xlink:href="#f1_l" transform="matrix(6.3,0,0,6.3,320.9,221.4)" />
<use xlink:href="#f1_l" transform="matrix(7.9,0,0,7.9,462.3,196.5)" />
<use xlink:href="#f1_l" transform="matrix(7.9,0,0,7.9,244.6,221.5)" />
<use xlink:href="#f1_l" transform="matrix(7.9,0,0,7.9,520.8,245.5)" />
<use xlink:href="#f1_k" transform="matrix(10.5,0,0,10.6,418.3,195.7)" />
<use xlink:href="#f1_k" transform="matrix(10.5,0,0,10.6,524.5,206.1)" />
<use xlink:href="#f1_q" transform="matrix(10.5,0,0,10.6,352.4,220.7)" />
<use xlink:href="#f1_l" transform="matrix(10.5,0,0,10.6,417.8,221.8)" />
<use xlink:href="#f1_k" transform="matrix(10.5,0,0,10.6,306.8,231.2)" />
<use xlink:href="#f1_m" transform="matrix(10.5,0,0,10.6,389.8,244.7)" />
<use xlink:href="#f1_k" transform="matrix(10.5,0,0,10.6,467.6,244.7)" />
<use xlink:href="#f1_l" transform="matrix(10.5,0,0,10.6,352.5,246.8)" />
<use xlink:href="#f1_27" transform="matrix(10.5,0,0,10.6,403.4,255.1)" />
<use xlink:href="#f1_2a" transform="matrix(10.5,0,0,10.6,407.2,255.1)" />
<use xlink:href="#f1_22" transform="matrix(10.5,0,0,10.6,416.5,255.1)" />
<use xlink:href="#f1_k" transform="matrix(10.5,0,0,10.6,583,255.1)" />
<use xlink:href="#f1_r" transform="matrix(10.5,0,0,10.6,389.8,270.8)" />
<use xlink:href="#f1_l" transform="matrix(10.5,0,0,10.6,467.1,270.8)" />
<use xlink:href="#f3_2j" transform="matrix(10.5,0,0,10.6,384.1,206.1)" />
<use xlink:href="#f3_2j" transform="matrix(10.5,0,0,10.6,451.9,206.1)" />
<use xlink:href="#f3_2j" transform="matrix(10.5,0,0,10.6,493.2,206.1)" />
<use xlink:href="#f3_2j" transform="matrix(10.5,0,0,10.6,234.2,231.2)" />
<use xlink:href="#f3_2j" transform="matrix(10.5,0,0,10.6,275.6,231.2)" />
<use xlink:href="#f3_1y" transform="matrix(10.5,0,0,10.6,624.2,231.2)" />
<use xlink:href="#f3_2j" transform="matrix(10.5,0,0,10.6,433.4,255.1)" />
<use xlink:href="#f3_2j" transform="matrix(10.5,0,0,10.6,510.4,255.1)" />
<use xlink:href="#f3_2j" transform="matrix(10.5,0,0,10.6,551.8,255.1)" />
<use xlink:href="#f2_4r" transform="matrix(10.5,0,0,10.6,367.1,195.7)" />
<use xlink:href="#f2_57" transform="matrix(10.5,0,0,10.6,596.3,195.7)" />
<use xlink:href="#f2_4o" transform="matrix(10.5,0,0,10.6,374.6,196.8)" />
<use xlink:href="#f2_54" transform="matrix(10.5,0,0,10.6,428.8,196.8)" />
<use xlink:href="#f2_f" transform="matrix(10.5,0,0,10.6,400.8,206.1)" />
<use xlink:href="#f2_f" transform="matrix(10.5,0,0,10.6,477.3,206.1)" />
<use xlink:href="#f2_f" transform="matrix(10.5,0,0,10.6,510,206.1)" />
<use xlink:href="#f2_4s" transform="matrix(10.5,0,0,10.6,367.1,211.3)" />
<use xlink:href="#f2_58" transform="matrix(10.5,0,0,10.6,596.3,211.3)" />
<use xlink:href="#f2_4p" transform="matrix(10.5,0,0,10.6,374.6,211.5)" />
<use xlink:href="#f2_55" transform="matrix(10.5,0,0,10.6,428.8,211.5)" />
<use xlink:href="#f2_4q" transform="matrix(10.5,0,0,10.6,374.6,218.1)" />
<use xlink:href="#f2_56" transform="matrix(10.5,0,0,10.6,428.8,218.1)" />
<use xlink:href="#f2_4s" transform="matrix(10.5,0,0,10.6,367.1,226.6)" />
<use xlink:href="#f2_58" transform="matrix(10.5,0,0,10.6,596.3,226.6)" />
<use xlink:href="#f2_f" transform="matrix(10.5,0,0,10.6,259.6,231.2)" />
<use xlink:href="#f2_f" transform="matrix(10.5,0,0,10.6,292.3,231.2)" />
<use xlink:href="#f2_h" transform="matrix(10.5,0,0,10.6,335.7,231.2)" />
<use xlink:href="#f2_f" transform="matrix(10.5,0,0,10.6,609.3,231.2)" />
<use xlink:href="#f2_4s" transform="matrix(10.5,0,0,10.6,367.1,241.9)" />
<use xlink:href="#f2_58" transform="matrix(10.5,0,0,10.6,596.3,241.9)" />
<use xlink:href="#f2_f" transform="matrix(10.5,0,0,10.6,375.1,255.1)" />
<use xlink:href="#f2_f" transform="matrix(10.5,0,0,10.6,450.1,255.1)" />
<use xlink:href="#f2_f" transform="matrix(10.5,0,0,10.6,483.6,255.1)" />
<use xlink:href="#f2_f" transform="matrix(10.5,0,0,10.6,535.8,255.1)" />
<use xlink:href="#f2_f" transform="matrix(10.5,0,0,10.6,568.5,255.1)" />
<use xlink:href="#f2_4s" transform="matrix(10.5,0,0,10.6,367.1,257.2)" />
<use xlink:href="#f2_58" transform="matrix(10.5,0,0,10.6,596.3,257.2)" />
<use xlink:href="#f2_4t" transform="matrix(10.5,0,0,10.6,367.1,271.7)" />
<use xlink:href="#f2_59" transform="matrix(10.5,0,0,10.6,596.3,271.7)" />
<use xlink:href="#f1_b" transform="matrix(10.4,0,0,10.4,180.7,324.3)" />
<use xlink:href="#f1_2j" transform="matrix(10.4,0,0,10.4,186.1,324.3)" />
<use xlink:href="#f1_24" transform="matrix(10.4,0,0,10.4,194,324.3)" />
<use xlink:href="#f1_24" transform="matrix(10.4,0,0,10.4,197.6,324.3)" />
<use xlink:href="#f1_c" transform="matrix(10.4,0,0,10.4,201.1,324.3)" />
</g>
<path d="M333,319.5h10" class="g4_69" />
<path d="M366.5,317.5l1.6,-1.3L372,325l4.3,-23.1H488.6" class="g2_69" />
<path fill-rule="evenodd" d="M366.4,317.3l2.1,-1.7L372,323l4,-21.5H488.6v.7h-112L372.4,325h-.8l-3.9,-8.1l-1,.8l-.3,-.4Z" class="g3_69" />
<path d="M267,299.9v40.3M491.7,299.9v40.3" class="g4_69" />
<g fill="#000000" >
<use xlink:href="#f1_l" transform="matrix(7.8,0,0,7.8,402.6,314.2)" />
<use xlink:href="#f1_k" transform="matrix(10.4,0,0,10.4,334,313.4)" />
<use xlink:href="#f1_27" transform="matrix(10.4,0,0,10.4,240.1,323.7)" />
<use xlink:href="#f1_2a" transform="matrix(10.4,0,0,10.4,243.8,323.7)" />
<use xlink:href="#f1_22" transform="matrix(10.4,0,0,10.4,253.2,323.7)" />
<use xlink:href="#f1_1y" transform="matrix(10.4,0,0,10.4,269.7,323.7)" />
<use xlink:href="#f1_2a" transform="matrix(10.4,0,0,10.4,278.1,323.7)" />
<use xlink:href="#f1_2e" transform="matrix(10.4,0,0,10.4,287.4,323.7)" />
<use xlink:href="#f1_1y" transform="matrix(10.4,0,0,10.4,376.6,323.7)" />
<use xlink:href="#f1_2a" transform="matrix(10.4,0,0,10.4,384.9,323.7)" />
<use xlink:href="#f1_2e" transform="matrix(10.4,0,0,10.4,394.2,323.7)" />
<use xlink:href="#f1_1y" transform="matrix(10.4,0,0,10.4,447.7,323.7)" />
<use xlink:href="#f1_2a" transform="matrix(10.4,0,0,10.4,456.1,323.7)" />
<use xlink:href="#f1_2e" transform="matrix(10.4,0,0,10.4,465.4,323.7)" />
<use xlink:href="#f1_l" transform="matrix(10.4,0,0,10.4,333.5,339.2)" />
<use xlink:href="#f3_2j" transform="matrix(10.4,0,0,10.4,299.8,323.7)" />
<use xlink:href="#f3_2j" transform="matrix(10.4,0,0,10.4,415.3,323.7)" />
<use xlink:href="#f3_2j" transform="matrix(10.4,0,0,10.4,477.8,323.7)" />
<use xlink:href="#f3_1y" transform="matrix(10.4,0,0,10.4,514.6,323.7)" />
<use xlink:href="#f2_h" transform="matrix(10.5,0,0,10.4,227.4,323.7)" />
<use xlink:href="#f2_f" transform="matrix(10.5,0,0,10.4,316.6,323.7)" />
<use xlink:href="#f2_f" transform="matrix(10.5,0,0,10.4,350.1,323.7)" />
<use xlink:href="#f2_f" transform="matrix(10.5,0,0,10.4,432.1,323.7)" />
<use xlink:href="#f2_f" transform="matrix(10.5,0,0,10.4,499.8,323.7)" />
<use xlink:href="#f1_1q" transform="matrix(10.4,0,0,10.4,382.6,372.2)" />
<use xlink:href="#f4_17" transform="matrix(10.4,0,0,10.4,387,372.2)" />
<use xlink:href="#f4_24" transform="matrix(10.4,0,0,10.4,398.5,372.2)" />
<use xlink:href="#f4_29" transform="matrix(10.4,0,0,10.4,402.9,372.2)" />
<use xlink:href="#f4_2f" transform="matrix(10.4,0,0,10.4,412.7,372.2)" />
<use xlink:href="#f4_t" transform="matrix(10.4,0,0,10.4,425,372.2)" />
<use xlink:href="#f1_1c" transform="matrix(10.4,0,0,10.4,437.4,372.2)" />
<use xlink:href="#f1_2g" transform="matrix(10.4,0,0,10.4,450.7,372.2)" />
<use xlink:href="#f1_27" transform="matrix(10.4,0,0,10.4,459.6,372.2)" />
<use xlink:href="#f1_2f" transform="matrix(10.4,0,0,10.4,463.1,372.2)" />
<use xlink:href="#f1_24" transform="matrix(10.4,0,0,10.4,467.5,372.2)" />
<use xlink:href="#f1_2b" transform="matrix(10.4,0,0,10.4,471.1,372.2)" />
<use xlink:href="#f1_27" transform="matrix(10.4,0,0,10.4,479.9,372.2)" />
<use xlink:href="#f1_2k" transform="matrix(10.4,0,0,10.4,483.5,372.2)" />
<use xlink:href="#f1_1w" transform="matrix(10.4,0,0,10.4,498.4,372.2)" />
<use xlink:href="#f1_29" transform="matrix(10.4,0,0,10.4,507.3,372.2)" />
<use xlink:href="#f1_1z" transform="matrix(10.4,0,0,10.4,516.2,372.2)" />
<use xlink:href="#f1_1z" transform="matrix(10.4,0,0,10.4,532.2,372.2)" />
<use xlink:href="#f1_24" transform="matrix(10.4,0,0,10.4,541.1,372.2)" />
<use xlink:href="#f1_2h" transform="matrix(10.4,0,0,10.4,544.6,372.2)" />
<use xlink:href="#f1_24" transform="matrix(10.4,0,0,10.4,552.6,372.2)" />
<use xlink:href="#f1_1z" transform="matrix(10.4,0,0,10.4,556.1,372.2)" />
<use xlink:href="#f1_20" transform="matrix(10.4,0,0,10.4,565,372.2)" />
<use xlink:href="#f1_1x" transform="matrix(10.4,0,0,10.4,580.8,372.2)" />
<use xlink:href="#f1_2k" transform="matrix(10.4,0,0,10.4,589.7,372.2)" />
</g>
<path d="M607.2,368.2l1.7,-.9l3.9,6.3L617,356.9h69" class="g2_69" />
<path fill-rule="evenodd" d="M607.1,368l2.1,-1.2l3.6,5.3l4,-15.6H686v.8H617.3l-4.1,16.3h-.8l-3.9,-5.8l-1.1,.6l-.3,-.4Z" class="g3_69" />
<g fill="#000000" >
<use xlink:href="#f1_2e" transform="matrix(10.3,0,0,10.3,617.5,372.3)" />
<use xlink:href="#f1_20" transform="matrix(10.3,0,0,10.3,625.8,372.3)" />
<use xlink:href="#f1_1y" transform="matrix(10.3,0,0,10.3,635.2,372.3)" />
<use xlink:href="#f1_k" transform="matrix(10.3,0,0,10.3,678.9,372.3)" />
<use xlink:href="#f3_2j" transform="matrix(10.3,0,0,10.3,647.6,372.3)" />
<use xlink:href="#f2_f" transform="matrix(10.3,0,0,10.3,664.3,372.3)" />
<use xlink:href="#f1_1s" transform="matrix(10.4,0,0,10.4,690,372.2)" />
<use xlink:href="#f1_n" transform="matrix(10.4,0,0,10.4,138.9,429.4)" />
<use xlink:href="#f1_m" transform="matrix(10.4,0,0,10.4,147.8,429.4)" />
<use xlink:href="#f1_h" transform="matrix(10.4,0,0,10.4,157,429.4)" />
<use xlink:href="#f1_b" transform="matrix(10.4,0,0,10.4,192.5,429.4)" />
<use xlink:href="#f1_24" transform="matrix(10.4,0,0,10.4,197.8,429.4)" />
<use xlink:href="#f1_c" transform="matrix(10.4,0,0,10.4,201.3,429.4)" />
</g>
<path d="M228,425h10.2m34.2,0h47.8M268.9,398.8v48.5m54.3,-48.5v48.5" class="g7_69" />
<g fill="#000000" >
<use xlink:href="#f1_q" transform="matrix(7.9,0,0,7.9,297.4,409.2)" />
<use xlink:href="#f1_q" transform="matrix(7.9,0,0,7.9,283.7,436.7)" />
<use xlink:href="#f1_k" transform="matrix(10.5,0,0,10.5,229.2,418.9)" />
<use xlink:href="#f1_27" transform="matrix(10.5,0,0,10.5,242.3,429.3)" />
<use xlink:href="#f1_2a" transform="matrix(10.5,0,0,10.5,246,429.3)" />
<use xlink:href="#f1_22" transform="matrix(10.5,0,0,10.5,255.3,429.3)" />
<use xlink:href="#f1_q" transform="matrix(10.5,0,0,10.5,228.6,444.9)" />
<use xlink:href="#f1_k" transform="matrix(10.5,0,0,10.5,313.2,446.3)" />
<use xlink:href="#f3_2j" transform="matrix(10.5,0,0,10.5,287,418.9)" />
<use xlink:href="#f3_1y" transform="matrix(10.5,0,0,10.5,346.2,429.3)" />
<use xlink:href="#f3_2j" transform="matrix(10.5,0,0,10.5,273.3,446.3)" />
<use xlink:href="#f2_f" transform="matrix(10.5,0,0,10.5,331.2,429.3)" />
<use xlink:href="#f2_f" transform="matrix(10.5,0,0,10.5,298.8,446.3)" />
<use xlink:href="#f1_b" transform="matrix(10.4,0,0,10.4,188.8,497.4)" />
<use xlink:href="#f1_24" transform="matrix(10.4,0,0,10.4,194.1,497.4)" />
<use xlink:href="#f1_24" transform="matrix(10.4,0,0,10.4,197.7,497.4)" />
<use xlink:href="#f1_c" transform="matrix(10.4,0,0,10.4,201.2,497.4)" />
</g>
<path d="M257.1,490.8h85.4m-88.9,-20v41.3m92,-41.3v41.3" class="g4_69" />
<g fill="#000000" >
<use xlink:href="#f1_k" transform="matrix(10.7,0,0,10.6,264.8,484.6)" />
<use xlink:href="#f1_1y" transform="matrix(10.7,0,0,10.6,293.5,484.6)" />
<use xlink:href="#f1_2a" transform="matrix(10.7,0,0,10.6,301.8,484.6)" />
<use xlink:href="#f1_2e" transform="matrix(10.7,0,0,10.6,311.1,484.6)" />
<use xlink:href="#f1_27" transform="matrix(10.7,0,0,10.6,226.9,495.1)" />
<use xlink:href="#f1_2a" transform="matrix(10.7,0,0,10.6,230.7,495.1)" />
<use xlink:href="#f1_22" transform="matrix(10.7,0,0,10.6,240,495.1)" />
<use xlink:href="#f1_l" transform="matrix(10.7,0,0,10.6,257.8,510.7)" />
<use xlink:href="#f1_m" transform="matrix(10.7,0,0,10.6,288.8,510.7)" />
<use xlink:href="#f1_1y" transform="matrix(10.7,0,0,10.6,301.8,510.7)" />
<use xlink:href="#f1_2a" transform="matrix(10.7,0,0,10.6,310.1,510.7)" />
<use xlink:href="#f1_2e" transform="matrix(10.7,0,0,10.6,319.4,510.7)" />
<use xlink:href="#f3_2j" transform="matrix(10.7,0,0,10.6,323.6,484.6)" />
<use xlink:href="#f3_1y" transform="matrix(10.7,0,0,10.6,368.7,495.1)" />
<use xlink:href="#f3_2j" transform="matrix(10.7,0,0,10.6,331.8,510.7)" />
<use xlink:href="#f2_f" transform="matrix(10.6,0,0,10.6,277.8,484.6)" />
<use xlink:href="#f2_f" transform="matrix(10.6,0,0,10.6,353.7,495.1)" />
<use xlink:href="#f2_f" transform="matrix(10.6,0,0,10.6,273.1,510.7)" />
<use xlink:href="#f1_b" transform="matrix(10.4,0,0,10.4,185.3,566.3)" />
<use xlink:href="#f1_24" transform="matrix(10.4,0,0,10.4,190.6,566.3)" />
<use xlink:href="#f1_24" transform="matrix(10.4,0,0,10.4,194.2,566.3)" />
<use xlink:href="#f1_24" transform="matrix(10.4,0,0,10.4,197.7,566.3)" />
<use xlink:href="#f1_c" transform="matrix(10.4,0,0,10.4,201.3,566.3)" />
</g>
<path d="M228,562.7h19.5m30.8,-9.3v14.9m74.3,-14.9v14.9m24.2,-5.6h10.3m30.8,-9.3v14.9m70.8,-14.9v14.9" class="g4_69" />
<g fill="#000000" >
<use xlink:href="#f1_l" transform="matrix(10.5,0,0,10.5,238.2,556.6)" />
<use xlink:href="#f1_k" transform="matrix(10.5,0,0,10.5,378.4,556.6)" />
<use xlink:href="#f1_27" transform="matrix(10.5,0,0,10.5,251.7,567)" />
<use xlink:href="#f1_2a" transform="matrix(10.5,0,0,10.5,255.5,567)" />
<use xlink:href="#f1_22" transform="matrix(10.5,0,0,10.5,264.8,567)" />
<use xlink:href="#f1_1y" transform="matrix(10.5,0,0,10.5,281.4,567)" />
<use xlink:href="#f1_2a" transform="matrix(10.5,0,0,10.5,289.7,567)" />
<use xlink:href="#f1_2e" transform="matrix(10.5,0,0,10.5,299,567)" />
<use xlink:href="#f1_l" transform="matrix(10.5,0,0,10.5,341.7,567)" />
<use xlink:href="#f1_27" transform="matrix(10.5,0,0,10.5,391.5,567)" />
<use xlink:href="#f1_2a" transform="matrix(10.5,0,0,10.5,395.2,567)" />
<use xlink:href="#f1_22" transform="matrix(10.5,0,0,10.5,404.5,567)" />
<use xlink:href="#f1_k" transform="matrix(10.5,0,0,10.5,419.9,567)" />
<use xlink:href="#f1_1y" transform="matrix(10.5,0,0,10.5,448.6,567)" />
<use xlink:href="#f1_2a" transform="matrix(10.5,0,0,10.5,456.9,567)" />
<use xlink:href="#f1_2e" transform="matrix(10.5,0,0,10.5,466.2,567)" />
<use xlink:href="#f1_h" transform="matrix(10.5,0,0,10.5,520.7,567)" />
<use xlink:href="#f1_m" transform="matrix(10.5,0,0,10.5,233.4,582.6)" />
<use xlink:href="#f1_m" transform="matrix(10.5,0,0,10.5,377.8,582.6)" />
<use xlink:href="#f3_1y" transform="matrix(10.5,0,0,10.5,512,567)" />
<use xlink:href="#f2_h" transform="matrix(10.5,0,0,10.5,229.2,556.6)" />
<use xlink:href="#f2_2d" transform="matrix(10.5,0,0,10.5,311,567)" />
<use xlink:href="#f2_h" transform="matrix(10.5,0,0,10.5,326.2,567)" />
<use xlink:href="#f2_h" transform="matrix(10.5,0,0,10.5,361,567)" />
<use xlink:href="#f2_f" transform="matrix(10.5,0,0,10.5,432.9,567)" />
<use xlink:href="#f2_2d" transform="matrix(10.5,0,0,10.5,478.2,567)" />
<use xlink:href="#f2_f" transform="matrix(10.5,0,0,10.5,497,567)" />
<use xlink:href="#f1_b" transform="matrix(10.4,0,0,10.4,184.2,624.4)" />
<use xlink:href="#f1_24" transform="matrix(10.4,0,0,10.4,189.5,624.4)" />
<use xlink:href="#f1_2h" transform="matrix(10.4,0,0,10.4,193.1,624.4)" />
<use xlink:href="#f1_c" transform="matrix(10.4,0,0,10.4,201.1,624.4)" />
</g>
<path d="M228,619.6h18.3m30.9,-9.4v15m47.1,-15v15m24.1,-5.6h18.4m30.8,-9.4v14.7m46.7,-14.7v14.7m23.9,-5.3h10.3m5.5,-9.4v14.7m43.3,-14.7v14.7" class="g8_69" />
<g fill="#000000" >
<use xlink:href="#f1_s" transform="matrix(10.5,0,0,10.5,232.7,613.4)" />
<use xlink:href="#f1_n" transform="matrix(10.5,0,0,10.5,353.3,613.4)" />
<use xlink:href="#f1_k" transform="matrix(10.5,0,0,10.5,469.7,613.4)" />
<use xlink:href="#f1_27" transform="matrix(10.5,0,0,10.5,250.5,623.8)" />
<use xlink:href="#f1_2a" transform="matrix(10.5,0,0,10.5,254.3,623.8)" />
<use xlink:href="#f1_22" transform="matrix(10.5,0,0,10.5,263.6,623.8)" />
<use xlink:href="#f1_m" transform="matrix(10.5,0,0,10.5,312.9,623.8)" />
<use xlink:href="#f1_27" transform="matrix(10.5,0,0,10.5,371,623.8)" />
<use xlink:href="#f1_2a" transform="matrix(10.5,0,0,10.5,374.8,623.8)" />
<use xlink:href="#f1_22" transform="matrix(10.5,0,0,10.5,384.1,623.8)" />
<use xlink:href="#f1_l" transform="matrix(10.5,0,0,10.5,433.2,623.8)" />
<use xlink:href="#f1_k" transform="matrix(10.5,0,0,10.5,518.6,623.8)" />
<use xlink:href="#f1_k" transform="matrix(10.5,0,0,10.5,227.5,639.4)" />
<use xlink:href="#f1_j" transform="matrix(10.5,0,0,10.5,236.8,639.4)" />
<use xlink:href="#f1_k" transform="matrix(10.5,0,0,10.5,348,639.4)" />
<use xlink:href="#f1_o" transform="matrix(10.5,0,0,10.5,357.3,639.4)" />
<use xlink:href="#f1_p" transform="matrix(10.5,0,0,10.5,469,639.4)" />
<use xlink:href="#f3_2j" transform="matrix(10.5,0,0,10.5,280.4,623.8)" />
<use xlink:href="#f3_2j" transform="matrix(10.5,0,0,10.5,400.9,623.8)" />
<use xlink:href="#f3_2j" transform="matrix(10.5,0,0,10.5,487.4,623.8)" />
<use xlink:href="#f3_1y" transform="matrix(10.5,0,0,10.5,550.4,623.8)" />
<use xlink:href="#f2_f" transform="matrix(10.5,0,0,10.5,297.2,623.8)" />
<use xlink:href="#f2_f" transform="matrix(10.5,0,0,10.5,332.3,623.8)" />
<use xlink:href="#f2_h" transform="matrix(10.5,0,0,10.5,417.7,623.8)" />
<use xlink:href="#f2_h" transform="matrix(10.5,0,0,10.5,452.3,623.8)" />
<use xlink:href="#f2_f" transform="matrix(10.5,0,0,10.5,504.1,623.8)" />
<use xlink:href="#f2_f" transform="matrix(10.5,0,0,10.5,535.4,623.8)" />
<use xlink:href="#f1_b" transform="matrix(10.4,0,0,10.4,187.9,687.5)" />
<use xlink:href="#f1_2h" transform="matrix(10.4,0,0,10.4,193.2,687.5)" />
<use xlink:href="#f1_c" transform="matrix(10.4,0,0,10.4,201.4,687.5)" />
<use xlink:href="#f2_c" transform="matrix(10.5,0,0,11.3,303,675.2)" />
<use xlink:href="#f2_d" transform="matrix(10.5,0,0,11.3,352.4,675.2)" />
</g>
<path d="M302.5,683.6h63.9M299,657.8v46.8m70.5,-46.8v46.8" class="g9_69" />
<g fill="#000000" >
<use xlink:href="#f1_l" transform="matrix(8,0,0,7.9,357.4,668.3)" />
<use xlink:href="#f1_l" transform="matrix(10.6,0,0,10.6,342.1,677.3)" />
<use xlink:href="#f1_n" transform="matrix(10.6,0,0,10.6,260,687.8)" />
<use xlink:href="#f1_27" transform="matrix(10.6,0,0,10.6,272.4,687.8)" />
<use xlink:href="#f1_2a" transform="matrix(10.6,0,0,10.6,276.1,687.8)" />
<use xlink:href="#f1_22" transform="matrix(10.6,0,0,10.6,285.4,687.8)" />
<use xlink:href="#f1_k" transform="matrix(10.6,0,0,10.6,346.9,703.5)" />
<use xlink:href="#f3_2j" transform="matrix(10.6,0,0,10.6,309.9,677.3)" />
<use xlink:href="#f3_2j" transform="matrix(10.6,0,0,10.6,227.6,687.8)" />
<use xlink:href="#f3_1y" transform="matrix(10.6,0,0,10.6,392.4,687.8)" />
<use xlink:href="#f3_2j" transform="matrix(10.6,0,0,10.6,316,703.5)" />
<use xlink:href="#f2_h" transform="matrix(10.6,0,0,10.6,326.5,677.3)" />
<use xlink:href="#f2_f" transform="matrix(10.6,0,0,10.6,244.2,687.8)" />
<use xlink:href="#f2_f" transform="matrix(10.6,0,0,10.6,377.4,687.8)" />
<use xlink:href="#f2_h" transform="matrix(10.6,0,0,10.6,332.6,703.5)" />
<use xlink:href="#f1_b" transform="matrix(10.4,0,0,10.4,184.2,753.5)" />
<use xlink:href="#f1_2h" transform="matrix(10.4,0,0,10.4,189.5,753.5)" />
<use xlink:href="#f1_24" transform="matrix(10.4,0,0,10.4,197.8,753.5)" />
<use xlink:href="#f1_c" transform="matrix(10.4,0,0,10.4,201.3,753.5)" />
</g>
<path d="M261.9,764.5l1.6,-.9l3.9,6.5L271.6,753h10.1" class="g2_69" />
<path fill-rule="evenodd" d="M261.8,764.3l2.1,-1.2l3.5,5.4l4,-15.9h10.3v.8h-9.8l-4.1,16.7h-.7l-3.9,-6l-1.1,.7l-.3,-.5Z" class="g3_69" />
<path d="M260.6,748.7h22.3" class="g0_69" />
<path d="M339.2,764.5l1.6,-.9l3.9,6.5L348.9,753h10" class="g2_69" />
<path fill-rule="evenodd" d="M339.1,764.3l2.1,-1.2l3.5,5.4l4,-15.9h10.2v.8h-9.7l-4.1,16.7h-.8l-3.9,-6l-1.1,.7l-.2,-.5Z" class="g3_69" />
<path d="M337.9,748.7h22.3m94.8,0h11.7" class="g0_69" />
<g fill="#000000" >
<use xlink:href="#f1_k" transform="matrix(8,0,0,7.9,317.7,743.3)" />
<use xlink:href="#f1_k" transform="matrix(8,0,0,7.9,434.8,743.3)" />
<use xlink:href="#f1_l" transform="matrix(10.6,0,0,10.6,267.5,742.5)" />
<use xlink:href="#f1_2f" transform="matrix(10.6,0,0,10.6,287.8,753)" />
<use xlink:href="#f1_1w" transform="matrix(10.6,0,0,10.6,292.6,753)" />
<use xlink:href="#f1_29" transform="matrix(10.6,0,0,10.6,301.9,753)" />
<use xlink:href="#f1_m" transform="matrix(10.6,0,0,10.6,391.8,753)" />
<use xlink:href="#f1_2f" transform="matrix(10.6,0,0,10.6,404.9,753)" />
<use xlink:href="#f1_1w" transform="matrix(10.6,0,0,10.6,409.7,753)" />
<use xlink:href="#f1_29" transform="matrix(10.6,0,0,10.6,419,753)" />
<use xlink:href="#f1_m" transform="matrix(10.6,0,0,10.6,272.2,768.7)" />
<use xlink:href="#f1_m" transform="matrix(10.6,0,0,10.6,349.4,768.7)" />
<use xlink:href="#f1_l" transform="matrix(10.6,0,0,10.6,456.6,768.7)" />
<use xlink:href="#f3_2j" transform="matrix(10.6,0,0,10.6,344.1,742.5)" />
<use xlink:href="#f3_2j" transform="matrix(10.6,0,0,10.6,455.9,742.5)" />
<use xlink:href="#f3_2j" transform="matrix(10.6,0,0,10.6,227.7,753)" />
<use xlink:href="#f3_1y" transform="matrix(10.6,0,0,10.6,497.7,753)" />
<use xlink:href="#f2_h" transform="matrix(8,0,0,7.9,310.9,743.3)" />
<use xlink:href="#f2_h" transform="matrix(8,0,0,7.9,428,743.3)" />
<use xlink:href="#f2_4o" transform="matrix(10.6,0,0,10.6,328,743.7)" />
<use xlink:href="#f2_54" transform="matrix(10.6,0,0,10.6,361.8,743.7)" />
<use xlink:href="#f2_4o" transform="matrix(10.6,0,0,10.6,445.1,743.7)" />
<use xlink:href="#f2_54" transform="matrix(10.6,0,0,10.6,468.3,743.7)" />
<use xlink:href="#f2_f" transform="matrix(10.6,0,0,10.6,244.3,753)" />
<use xlink:href="#f2_h" transform="matrix(10.6,0,0,10.6,376.2,753)" />
<use xlink:href="#f2_f" transform="matrix(10.6,0,0,10.6,482.7,753)" />
<use xlink:href="#f2_4p" transform="matrix(10.6,0,0,10.6,445.1,758.4)" />
<use xlink:href="#f2_55" transform="matrix(10.6,0,0,10.6,468.3,758.4)" />
<use xlink:href="#f2_4p" transform="matrix(10.6,0,0,10.6,328,759.7)" />
<use xlink:href="#f2_55" transform="matrix(10.6,0,0,10.6,361.8,759.7)" />
<use xlink:href="#f2_4q" transform="matrix(10.6,0,0,10.6,445.1,765)" />
<use xlink:href="#f2_56" transform="matrix(10.6,0,0,10.6,468.3,765)" />
<use xlink:href="#f2_4q" transform="matrix(10.6,0,0,10.6,328,766.4)" />
<use xlink:href="#f2_56" transform="matrix(10.6,0,0,10.6,361.8,766.4)" />
<use xlink:href="#f1_1q" transform="matrix(10.4,0,0,10.4,224.9,794.2)" />
<use xlink:href="#f4_17" transform="matrix(10.4,0,0,10.4,229.3,794.2)" />
<use xlink:href="#f4_24" transform="matrix(10.4,0,0,10.4,240.8,794.2)" />
<use xlink:href="#f4_29" transform="matrix(10.4,0,0,10.4,245.3,794.2)" />
<use xlink:href="#f4_2f" transform="matrix(10.4,0,0,10.4,255,794.2)" />
<use xlink:href="#f4_t" transform="matrix(10.4,0,0,10.4,267.1,794.2)" />
<use xlink:href="#f1_2b" transform="matrix(10.4,0,0,10.4,279.2,794.2)" />
<use xlink:href="#f1_2g" transform="matrix(10.4,0,0,10.4,288.1,794.2)" />
<use xlink:href="#f1_2f" transform="matrix(10.4,0,0,10.4,296.9,794.2)" />
<use xlink:href="#f3_2j" transform="matrix(10.4,0,0,10.4,308,794.2)" />
<use xlink:href="#f1_l" transform="matrix(7.4,0,0,7.4,316,788.9)" />
<use xlink:href="#f1_w" transform="matrix(10.4,0,0,10.4,329.1,794.2)" />
<use xlink:href="#f3_2f" transform="matrix(10.4,0,0,10.4,345.2,794.2)" />
<use xlink:href="#f1_1s" transform="matrix(10.4,0,0,10.4,349.6,794.2)" />
<use xlink:href="#f1_b" transform="matrix(10.4,0,0,10.4,180.7,847.4)" />
<use xlink:href="#f1_2h" transform="matrix(10.4,0,0,10.4,186.1,847.4)" />
<use xlink:href="#f1_24" transform="matrix(10.4,0,0,10.4,194,847.4)" />
<use xlink:href="#f1_24" transform="matrix(10.4,0,0,10.4,197.6,847.4)" />
<use xlink:href="#f1_c" transform="matrix(10.4,0,0,10.4,201.1,847.4)" />
</g>
<path d="M228,842.5h18.3m30.9,-9.3v14.7m52.1,-14.7v14.7m23.9,-5.4h18.4m30.8,-15.8v21.2m55.7,-21.2v21.2m24.2,-5.4h19.6m46.1,0h11.8" class="g6_69" />
<g fill="#000000" >
<use xlink:href="#f1_l" transform="matrix(7.9,0,0,7.9,416.1,837.2)" />
<use xlink:href="#f1_k" transform="matrix(7.9,0,0,7.9,536.9,837.2)" />
<use xlink:href="#f1_l" transform="matrix(10.5,0,0,10.5,232.8,836.4)" />
<use xlink:href="#f1_k" transform="matrix(10.5,0,0,10.5,358.6,836.4)" />
<use xlink:href="#f1_k" transform="matrix(10.5,0,0,10.5,488.4,836.4)" />
<use xlink:href="#f1_27" transform="matrix(10.5,0,0,10.5,250.4,846.8)" />
<use xlink:href="#f1_2a" transform="matrix(10.5,0,0,10.5,254.2,846.8)" />
<use xlink:href="#f1_22" transform="matrix(10.5,0,0,10.5,263.5,846.8)" />
<use xlink:href="#f1_l" transform="matrix(10.5,0,0,10.5,280.1,846.8)" />
<use xlink:href="#f1_k" transform="matrix(10.5,0,0,10.5,320.4,846.8)" />
<use xlink:href="#f1_27" transform="matrix(10.5,0,0,10.5,375.7,846.8)" />
<use xlink:href="#f1_2a" transform="matrix(10.5,0,0,10.5,379.5,846.8)" />
<use xlink:href="#f1_22" transform="matrix(10.5,0,0,10.5,388.8,846.8)" />
<use xlink:href="#f1_n" transform="matrix(10.5,0,0,10.5,446.8,846.8)" />
<use xlink:href="#f1_2f" transform="matrix(10.5,0,0,10.5,506.9,846.8)" />
<use xlink:href="#f1_1w" transform="matrix(10.5,0,0,10.5,511.6,846.8)" />
<use xlink:href="#f1_29" transform="matrix(10.5,0,0,10.5,521,846.8)" />
<use xlink:href="#f1_k" transform="matrix(10.5,0,0,10.5,227.4,862.4)" />
<use xlink:href="#f1_q" transform="matrix(10.5,0,0,10.5,236.7,862.4)" />
<use xlink:href="#f1_k" transform="matrix(10.5,0,0,10.5,352.7,862.4)" />
<use xlink:href="#f1_q" transform="matrix(10.5,0,0,10.5,362,862.4)" />
<use xlink:href="#f1_m" transform="matrix(10.5,0,0,10.5,483.1,862.4)" />
<use xlink:href="#f1_n" transform="matrix(10.5,0,0,10.5,492.4,862.4)" />
<use xlink:href="#f1_l" transform="matrix(10.5,0,0,10.5,549.7,862.4)" />
<use xlink:href="#f3_2j" transform="matrix(10.5,0,0,10.5,549.1,836.4)" />
<use xlink:href="#f3_2j" transform="matrix(10.5,0,0,10.5,289.2,846.8)" />
<use xlink:href="#f3_2j" transform="matrix(10.5,0,0,10.5,405.6,846.8)" />
<use xlink:href="#f3_1y" transform="matrix(10.5,0,0,10.5,582,846.8)" />
<use xlink:href="#f2_h" transform="matrix(7.9,0,0,7.9,530.1,837.2)" />
<use xlink:href="#f2_f" transform="matrix(10.5,0,0,10.5,305.9,846.8)" />
<use xlink:href="#f2_h" transform="matrix(10.5,0,0,10.5,337.2,846.8)" />
<use xlink:href="#f2_f" transform="matrix(10.5,0,0,10.5,431,846.8)" />
<use xlink:href="#f2_f" transform="matrix(10.5,0,0,10.5,466.1,846.8)" />
<use xlink:href="#f2_f" transform="matrix(10.5,0,0,10.5,567,846.8)" />
<use xlink:href="#f5_l" transform="matrix(8,0,0,8,723.2,1122.4)" />
<use xlink:href="#f5_o" transform="matrix(8,0,0,8,730,1122.4)" />
</g>
<g fill="#0080FF" fill-opacity="0.5" >
<use xlink:href="#f0_1c" transform="matrix(42.3,0,0,42.3,202.9,1095.2)" />
<use xlink:href="#f0_21" transform="matrix(42.3,0,0,42.3,238.8,1095.2)" />
<use xlink:href="#f0_1x" transform="matrix(42.3,0,0,42.3,274.7,1095.2)" />
<use xlink:href="#f0_2e" transform="matrix(42.3,0,0,42.3,310.7,1095.2)" />
<use xlink:href="#f0_2a" transform="matrix(42.3,0,0,42.3,332.2,1095.2)" />
<use xlink:href="#f0_17" transform="matrix(42.3,0,0,42.3,368.1,1095.2)" />
<use xlink:href="#f0_2h" transform="matrix(42.3,0,0,42.3,418.4,1095.2)" />
<use xlink:href="#f0_25" transform="matrix(42.3,0,0,42.3,454.3,1095.2)" />
<use xlink:href="#f0_20" transform="matrix(42.3,0,0,42.3,468.7,1095.2)" />
<use xlink:href="#f0_21" transform="matrix(42.3,0,0,42.3,504.6,1095.2)" />
<use xlink:href="#f0_i" transform="matrix(42.3,0,0,42.3,540.5,1095.2)" />
<use xlink:href="#f0_25" transform="matrix(42.3,0,0,42.3,558.5,1095.2)" />
<use xlink:href="#f0_2a" transform="matrix(42.3,0,0,42.3,572.8,1095.2)" />
</g>
<defs>
<path d="M593,101c0,0,182,0,279,112c0,0,98,113,98,318c0,0,0,196,-98,308c0,0,-98,112,-277,112c0,0,-181,0,-279,-110c0,0,-99,-111,-99,-310c0,0,0,-198,100,-314c0,0,99,-116,276,-116Zm0,-115c0,0,-162,0,-279,65c0,0,-118,66,-180,190c0,0,-62,124,-62,290c0,0,0,252,138,394c0,0,138,142,385,142c0,0,160,0,278,-64c0,0,118,-64,180,-185c0,0,62,-122,62,-287c0,0,0,-165,-63,-289c0,0,-63,-124,-181,-190c0,0,-118,-66,-278,-66Z" 
id="f0_1f"
transform="scale(0.001,-0.001)" />

<path d="M106,0V635c0,0,0,141,-5,173H228c0,0,1,-4,2,-21c0,0,1,-16,2,-37c0,0,1,-22,2,-81h2c0,0,47,84,108,119c0,0,60,34,151,34c0,0,132,0,194,-66c0,0,61,-66,61,-218V0H615V512c0,0,0,80,-15,124c0,0,-16,44,-50,63c0,0,-35,20,-101,20c0,0,-97,0,-153,-67c0,0,-56,-66,-56,-184V0Z" 
id="f0_2a"
transform="scale(0.001,-0.001)" />

<path d="M103,0V1107H237V0Z" 
id="f0_28"
transform="scale(0.001,-0.001)" />

<path d="M102,0V808H236V0Zm0,979v128H236V979Z" 
id="f0_25"
transform="scale(0.001,-0.001)" />

<path d="M643,478c0,0,-11,128,-65,187c0,0,-54,59,-154,59c0,0,-98,0,-155,-66c0,0,-57,-65,-62,-180ZM431,-14c0,0,-179,0,-272,106c0,0,-94,107,-94,317c0,0,0,200,94,307c0,0,93,106,267,106c0,0,356,0,356,-429V375H206c0,0,0,-138,57,-213c0,0,58,-75,168,-75c0,0,87,0,140,35c0,0,53,35,71,88L760,177c0,0,-72,-191,-329,-191Z" 
id="f0_21"
transform="scale(0.001,-0.001)" />

<path d="M17,0L304,415L31,808H179L380,493L580,808H730L457,417L747,0H598L380,331L162,0Z" 
id="f0_2k"
transform="scale(0.001,-0.001)" />

<path d="M339,87c0,0,74,0,132,34c0,0,57,33,90,91c0,0,34,59,34,121v66L448,396c0,0,-95,-2,-144,-19c0,0,-49,-18,-75,-55c0,0,-26,-38,-26,-98c0,0,0,-65,35,-101c0,0,36,-36,101,-36ZM309,-14c0,0,-122,0,-183,64c0,0,-61,64,-61,176c0,0,0,125,82,192c0,0,83,67,266,72l182,3v44c0,0,0,98,-42,141c0,0,-42,43,-132,43c0,0,-90,0,-131,-31c0,0,-41,-31,-49,-98L101,604c0,0,34,218,323,218c0,0,153,0,229,-70c0,0,77,-69,77,-202V202c0,0,0,-59,16,-90c0,0,16,-30,60,-30c0,0,19,0,44,5V4C850,4,799,-7,746,-7c0,0,-75,0,-109,38c0,0,-33,40,-38,124h-4C595,155,543,62,475,24c0,0,-68,-38,-166,-38Z" 
id="f0_1x"
transform="scale(0.001,-0.001)" />

<path d="M106,0V635c0,0,0,141,-5,173H228c0,0,1,-4,2,-21c0,0,1,-16,2,-37c0,0,1,-22,2,-81h2c0,0,44,86,100,120c0,0,56,33,136,33c0,0,92,0,145,-36c0,0,54,-37,75,-117h2c0,0,42,82,101,117c0,0,59,36,143,36c0,0,123,0,178,-66c0,0,56,-67,56,-218V0H1039V512c0,0,0,117,-32,162c0,0,-32,45,-116,45c0,0,-88,0,-136,-66c0,0,-49,-65,-49,-185V0H573V512c0,0,0,117,-32,162c0,0,-32,45,-116,45c0,0,-86,0,-136,-66c0,0,-50,-66,-50,-185V0Z" 
id="f0_29"
transform="scale(0.001,-0.001)" />

<path d="M453,84c0,0,100,0,146,74c0,0,46,73,46,247c0,0,0,169,-46,241c0,0,-45,73,-145,73c0,0,-80,0,-125,-34c0,0,-45,-34,-68,-105c0,0,-24,-71,-24,-186c0,0,0,-159,51,-234c0,0,51,-76,165,-76ZM103,-316V643c0,0,0,124,-5,165H228c0,0,1,-3,3,-22c0,0,1,-18,3,-56c0,0,2,-38,2,-52h3c0,0,36,75,94,110c0,0,59,34,156,34c0,0,149,0,223,-100c0,0,74,-100,74,-314c0,0,0,-422,-297,-422c0,0,-187,0,-251,140h-4c0,0,3,-6,3,-126V-316Z" 
id="f0_2c"
transform="scale(0.001,-0.001)" />

<path d="M420,84c0,0,121,0,173,78c0,0,52,77,52,243c0,0,0,167,-50,243c0,0,-50,76,-167,76c0,0,-118,0,-170,-78c0,0,-53,-77,-53,-241c0,0,0,-160,52,-241c0,0,52,-80,163,-80Zm1,-98c0,0,-176,0,-267,107c0,0,-90,108,-90,312c0,0,0,417,362,417c0,0,185,0,272,-102c0,0,88,-101,88,-315c0,0,0,-212,-94,-316C692,89,599,-14,421,-14Z" 
id="f0_2b"
transform="scale(0.001,-0.001)" />

<path d="M278,-11c0,0,-162,0,-162,182V710H23v98h99l39,181h90V808H400V710H251V200c0,0,0,-58,19,-82c0,0,19,-23,66,-23c0,0,27,0,77,10V6c0,0,-66,-17,-135,-17Z" 
id="f0_2g"
transform="scale(0.001,-0.001)" />

<path d="M365,-315c0,0,-136,187,-199,359c0,0,-62,172,-62,359c0,0,0,186,62,358c0,0,63,172,199,360h92c0,0,-110,-192,-160,-365c0,0,-51,-172,-51,-353c0,0,0,-183,51,-355c0,0,50,-172,160,-363Z" 
id="f1_b"
transform="scale(0.001,-0.001)" />

<path d="M17,0L301,412L32,799H205L389,514L574,799H740L471,410L749,0H581L382,305L186,0Z" 
id="f1_2j"
transform="scale(0.001,-0.001)" />

<path d="M52,-315c0,0,109,192,160,363c0,0,50,173,50,354c0,0,0,183,-50,355c0,0,-51,173,-160,364h92c0,0,135,-188,198,-360c0,0,63,-172,63,-359c0,0,0,-187,-63,-359c0,0,-63,-171,-198,-358Z" 
id="f1_c"
transform="scale(0.001,-0.001)" />

<path d="M412,-328c0,0,-195,96,-303,284C109,-44,0,142,0,365c0,0,0,232,114,422c0,0,114,191,298,273v-31c0,0,-92,-51,-151,-139c0,0,-59,-88,-88,-223c0,0,-29,-136,-29,-282c0,0,0,-167,27,-301c0,0,26,-133,82,-221c0,0,55,-89,159,-159v-32Z" 
id="f2_c"
transform="scale(0.001,-0.001)" />

<path d="M34,-328v32c0,0,92,50,151,138c0,0,59,88,88,222c0,0,29,135,29,283c0,0,0,165,-27,300c0,0,-26,134,-82,222c0,0,-56,89,-159,160v31c0,0,194,-96,303,-284c0,0,108,-187,108,-410c0,0,0,-232,-114,-422c0,0,-114,-191,-297,-272Z" 
id="f2_d"
transform="scale(0.001,-0.001)" />

<path d="M424,-28c0,0,-180,0,-272,86c0,0,-92,87,-100,266H192c0,0,12,-126,66,-180c0,0,55,-54,170,-54c0,0,100,0,163,57c0,0,64,57,64,147c0,0,0,94,-61,149c0,0,-52,48,-135,54c0,0,-38,2,-72,2c0,0,-34,0,-45,-3V613c0,0,17,-3,51,-3c0,0,35,0,68,4c0,0,66,8,106,43c0,0,55,45,55,125c0,0,0,77,-58,125c0,0,-58,48,-148,48c0,0,-96,0,-147,-58c0,0,-51,-59,-56,-175H82c0,0,0,168,89,260c0,0,88,93,250,93c0,0,153,0,247,-77c0,0,94,-76,94,-202c0,0,0,-124,-95,-201c0,0,-18,-15,-39,-27c0,0,39,-17,69,-41c0,0,101,-79,101,-214c0,0,0,-151,-105,-246c0,0,-104,-95,-269,-95Z" 
id="f1_m"
transform="scale(0.001,-0.001)" />

<path d="M39,0V0c0,0,0,170,84,277c0,0,85,108,317,236c0,0,113,62,154,115c0,0,41,52,41,134c0,0,0,86,-62,141c0,0,-61,54,-156,54c0,0,-101,0,-158,-68c0,0,-57,-68,-60,-194H67c0,0,-2,178,95,279c0,0,98,101,273,101c0,0,149,0,245,-89c0,0,94,-88,94,-228c0,0,0,-118,-60,-195c0,0,-61,-76,-229,-169C485,394,303,294,237,212c0,0,-28,-36,-46,-81H774V0Z" 
id="f1_l"
transform="scale(0.001,-0.001)" />

<path d="M406,0V763H155V870h2c16,0,114,2,178,48c0,0,70,51,104,157H549V0Z" 
id="f1_k"
transform="scale(0.001,-0.001)" />

<path d="M424,92c0,0,98,0,161,58c0,0,62,58,62,149c0,0,0,92,-62,151c0,0,-63,58,-161,58c0,0,-98,0,-160,-58c0,0,-63,-59,-63,-151c0,0,0,-91,63,-149c0,0,62,-58,160,-58Zm0,533c0,0,82,0,134,46c0,0,52,45,52,118c0,0,0,72,-52,118c0,0,-52,46,-134,46c0,0,-82,0,-134,-46c0,0,-52,-46,-52,-118c0,0,0,-73,52,-119c0,0,52,-45,134,-45Zm0,-653c0,0,-165,0,-265,90C159,62,59,154,59,305c0,0,0,134,100,216c0,0,35,28,78,47c0,0,-27,15,-52,33c0,0,-90,70,-90,185c0,0,0,130,90,209c0,0,91,80,239,80c0,0,148,0,238,-80c0,0,91,-79,91,-209c0,0,0,-115,-91,-185c0,0,-24,-19,-52,-32c0,0,44,-20,79,-49c0,0,101,-81,101,-215c0,0,0,-151,-101,-243c0,0,-100,-90,-265,-90Z" 
id="f1_r"
transform="scale(0.001,-0.001)" />

<path d="M17,0L389,412L201,800H376L500,518L742,800H904L554,410L750,0H580L448,303L187,0Z" 
id="f3_2j"
transform="scale(0.001,-0.001)" />

<path d="M0,356v74H784V356Z" 
id="f2_h"
transform="scale(0.001,-0.001)" />

<path d="M355,0V355H0v72H355V784h72V427H782V355H427V0Z" 
id="f2_f"
transform="scale(0.001,-0.001)" />

<path d="M417,-28c0,0,-161,0,-259,79c0,0,-98,81,-109,223H189c0,0,11,-90,72,-139c0,0,61,-49,162,-49c0,0,96,0,158,68c0,0,61,68,61,175c0,0,0,112,-64,178c0,0,-64,66,-173,66c0,0,-59,0,-115,-28c0,0,-55,-29,-84,-73L93,480l77,573H727V922H271L225,629l4,3c0,0,89,60,188,60c0,0,169,0,269,-94c0,0,99,-93,99,-253c0,0,0,-165,-103,-269C682,76,579,-28,417,-28Z" 
id="f1_o"
transform="scale(0.001,-0.001)" />

<path d="M393,-20c0,0,-169,0,-252,65c0,0,-83,67,-92,210H178c0,0,10,-85,61,-123c0,0,50,-38,154,-38c0,0,90,0,136,34c0,0,47,35,47,100c0,0,0,42,-31,64c0,0,-30,21,-123,43L283,368c0,0,-112,27,-160,75c0,0,-48,48,-48,135c0,0,0,112,80,178c0,0,81,66,218,66c0,0,140,0,222,-68c0,0,82,-67,88,-187H557c0,0,-6,67,-55,103c0,0,-48,37,-129,37c0,0,-84,0,-127,-29c0,0,-44,-29,-44,-85c0,0,0,-43,31,-65c0,0,30,-21,121,-43L493,452c0,0,117,-28,167,-78c0,0,49,-49,49,-138c0,0,0,-119,-86,-188c0,0,-85,-68,-230,-68Z" 
id="f1_2e"
transform="scale(0.001,-0.001)" />

<path d="M104,0V799H238V0Zm-2,946v152H239V946Z" 
id="f1_24"
transform="scale(0.001,-0.001)" />

<path d="M99,0V799H226V681l30,39c0,0,87,102,219,102c0,0,132,0,203,-71c0,0,72,-72,72,-204V0H616V502c0,0,0,105,-41,151c0,0,-40,47,-132,47c0,0,-97,0,-154,-73c0,0,-56,-74,-56,-199V0Z" 
id="f1_29"
transform="scale(0.001,-0.001)" />

<path d="M432,92c0,0,96,0,156,66c0,0,61,65,61,169c0,0,0,103,-61,169c0,0,-60,66,-156,66c0,0,-95,0,-156,-66c0,0,-61,-66,-61,-169c0,0,0,-104,61,-169c0,0,61,-66,156,-66ZM425,-28c0,0,-176,0,-271,135c0,0,-95,136,-95,388c0,0,0,278,103,429c0,0,103,151,293,151c0,0,142,0,226,-77c0,0,84,-76,90,-211H638c0,0,-8,80,-56,123c0,0,-47,43,-127,43c0,0,-125,0,-192,-119c0,0,-58,-102,-64,-278c0,0,100,127,255,127c0,0,152,0,245,-98c0,0,93,-98,93,-258c0,0,0,-161,-101,-259c0,0,-101,-96,-266,-96Z" 
id="f1_p"
transform="scale(0.001,-0.001)" />

<path d="M398,-20c0,0,-133,0,-209,72c0,0,-76,74,-76,202v3c0,0,0,27,4,60c0,0,4,33,10,63c0,0,43,208,168,326c0,0,126,117,306,117c0,0,131,0,192,-75c0,0,49,-61,50,-168l-3,-52H710c0,0,4,87,-33,131c0,0,-37,45,-113,45c0,0,-110,0,-184,-81c0,0,-75,-82,-107,-238c0,0,-6,-28,-9,-56c0,0,-3,-28,-3,-50c0,0,0,-88,43,-136c0,0,43,-48,121,-48c0,0,76,0,137,49c0,0,61,48,92,136H788C788,280,737,138,633,58c0,0,-103,-78,-235,-78Z" 
id="f3_1y"
transform="scale(0.001,-0.001)" />

<path d="M62,-123V268c0,0,0,230,56,452c0,0,47,190,134,334c0,0,87,144,204,242c0,0,85,73,194,119l18,-16c0,0,-211,-145,-335,-339c0,0,-98,-156,-149,-374c0,0,-50,-218,-50,-403V-123Z" 
id="f2_4o"
transform="scale(0.001,-0.001)" />

<path d="M617,-123V283c0,0,0,236,-63,459c0,0,-63,223,-188,392c0,0,-108,146,-282,265l17,16c0,0,180,-76,320,-248c0,0,139,-172,204,-417c0,0,64,-245,64,-482V-123Z" 
id="f2_54"
transform="scale(0.001,-0.001)" />

<path d="M62,-123V1415h72V-123Z" 
id="f2_4p"
transform="scale(0.001,-0.001)" />

<path d="M617,-123V1415h72V-123Z" 
id="f2_55"
transform="scale(0.001,-0.001)" />

<path d="M650,-123c0,0,-180,75,-319,246c0,0,-140,172,-205,418c0,0,-64,245,-64,481v393h72V1007c0,0,0,-236,63,-459c0,0,63,-223,189,-391c0,0,108,-145,282,-265l-18,-15Z" 
id="f2_4q"
transform="scale(0.001,-0.001)" />

<path d="M101,-123l-17,15c0,0,210,144,334,339c0,0,99,156,149,373c0,0,50,218,50,403v408h72V1022c0,0,0,-230,-56,-451c0,0,-48,-191,-134,-335C499,236,412,92,295,-5c0,0,-84,-73,-194,-118Z" 
id="f2_56"
transform="scale(0.001,-0.001)" />

<path d="M212,0c0,0,51,270,162,500c0,0,109,222,281,422H57v131H799V934C799,934,623,726,515,498C515,498,408,269,362,0Z" 
id="f1_q"
transform="scale(0.001,-0.001)" />

<path d="M103,0V1097H237V0Z" 
id="f1_27"
transform="scale(0.001,-0.001)" />

<path d="M424,94c0,0,107,0,169,83c0,0,63,83,63,223c0,0,0,140,-63,224c0,0,-62,83,-169,83c0,0,-106,0,-168,-83c0,0,-62,-84,-62,-224c0,0,0,-140,62,-223c0,0,62,-83,168,-83Zm0,-114c0,0,-165,0,-268,115C156,95,54,211,54,400c0,0,0,189,102,306c0,0,103,116,268,116c0,0,168,0,270,-116c0,0,102,-117,102,-306c0,0,0,-189,-102,-305C694,95,592,-20,424,-20Z" 
id="f1_2a"
transform="scale(0.001,-0.001)" />

<path d="M418,95c0,0,98,0,158,73c0,0,59,73,59,193c0,0,0,170,-54,254c0,0,-54,85,-163,85c0,0,-113,0,-165,-72c0,0,-52,-71,-52,-227c0,0,0,-147,57,-227c0,0,56,-79,160,-79ZM394,-336c0,0,-136,0,-216,62c0,0,-79,63,-96,182H219c0,0,12,-64,57,-98c0,0,45,-35,116,-35c0,0,116,0,176,73c0,0,61,73,61,211V85l-1,-1C628,84,545,-20,412,-20c0,0,-161,0,-256,118c0,0,-94,120,-94,324c0,0,0,179,93,290c0,0,93,110,244,110c0,0,144,0,228,-124l10,-14V799H763V59c0,0,-1,-201,-91,-298c0,0,-91,-97,-278,-97Z" 
id="f1_22"
transform="scale(0.001,-0.001)" />

<path d="M0,-123V1415H525v-72H72V-123Z" 
id="f2_4r"
transform="scale(0.001,-0.001)" />

<path d="M478,-123V1343H26v72H550V-123Z" 
id="f2_57"
transform="scale(0.001,-0.001)" />

<path d="M0,-123V1415H72V-123Z" 
id="f2_4s"
transform="scale(0.001,-0.001)" />

<path d="M0,-123V1415H72V-123Z" 
id="f2_58"
transform="scale(0.001,-0.001)" />

<path d="M0,-123V1415H72V-51H525v-72Z" 
id="f2_4t"
transform="scale(0.001,-0.001)" />

<path d="M26,-123v72H478V1415h72V-123Z" 
id="f2_59"
transform="scale(0.001,-0.001)" />

<path d="M394,-20c0,0,-159,0,-253,113c0,0,-95,114,-95,307c0,0,0,193,98,308c0,0,98,114,264,114c0,0,144,0,230,-78c0,0,85,-79,91,-217H600c0,0,-8,86,-59,133c0,0,-52,47,-138,47c0,0,-101,0,-159,-82c0,0,-58,-82,-58,-225c0,0,0,-152,54,-229c0,0,53,-77,159,-77c0,0,79,0,132,50c0,0,52,51,69,143H729C729,287,709,137,623,58c0,0,-86,-78,-229,-78Z" 
id="f1_1y"
transform="scale(0.001,-0.001)" />

<path d="M96,-299V1104H382V995H217V-191H382V-299Z" 
id="f1_1q"
transform="scale(0.001,-0.001)" />

<path d="M109,0V1097H337V685H767v412H995V0H767V497H337V0Z" 
id="f4_17"
transform="scale(0.001,-0.001)" />

<path d="M108,0V812H322V0Zm-2,906v199H324V906Z" 
id="f4_24"
transform="scale(0.001,-0.001)" />

<path d="M99,0V812H302V691c0,0,13,22,28,41c0,0,79,101,230,101c0,0,128,0,201,-76c0,0,73,-76,73,-211V0H620V507c0,0,0,76,-33,112c0,0,-32,36,-99,36c0,0,-85,0,-130,-51c0,0,-45,-50,-45,-146V0Z" 
id="f4_29"
transform="scale(0.001,-0.001)" />

<path d="M340,-8c0,0,-114,0,-163,40c0,0,-50,41,-50,133V662H15V812H127v219H341V812H472V662H341V201c0,0,0,-29,17,-38c0,0,17,-8,70,-8h44V-3c0,0,-54,-5,-132,-5Z" 
id="f4_2f"
transform="scale(0.001,-0.001)" />

<path d="M140,0V222H369V0Zm0,561V783H369V561Z" 
id="f4_t"
transform="scale(0.001,-0.001)" />

<path d="M111,0V1097H325L638,163l311,934h214V0H1019V928L709,0H566L255,925V0Z" 
id="f1_1c"
transform="scale(0.001,-0.001)" />

<path d="M375,-20c0,0,-136,0,-203,66c0,0,-68,68,-68,204V799H238V284c0,0,0,-101,38,-146c0,0,39,-44,127,-44c0,0,97,0,153,75c0,0,57,75,57,203V799H747V0H620V122c0,0,-14,-22,-30,-41C590,81,504,-20,375,-20Z" 
id="f1_2g"
transform="scale(0.001,-0.001)" />

<path d="M292,-9c0,0,-88,0,-124,38c0,0,-36,39,-36,134V689H22V799H132v224H266V799H392V689H266V163c0,0,0,-27,21,-43c0,0,21,-15,57,-15h48V1C392,1,324,-9,292,-9Z" 
id="f1_2f"
transform="scale(0.001,-0.001)" />

<path d="M436,95c0,0,105,0,160,79c0,0,54,80,54,232c0,0,0,150,-52,222c0,0,-52,72,-161,72c0,0,-112,0,-163,-81c0,0,-51,-82,-51,-258c0,0,0,-127,55,-197c0,0,55,-69,158,-69ZM89,-315V799H216V685l7,10c0,0,86,127,228,127c0,0,156,0,248,-108c0,0,91,-107,91,-291c0,0,0,-208,-92,-326C698,97,606,-20,442,-20c0,0,-135,0,-215,102l-4,6V-315Z" 
id="f1_2b"
transform="scale(0.001,-0.001)" />

<path d="M152,-323c-8,0,-38,1,-63,8v125c0,0,30,-11,77,-12c0,0,45,0,76,37c0,0,30,38,69,140l2,12v1L17,799H170L383,139L600,799H747L443,-25c0,0,-70,-184,-125,-241c0,0,-55,-57,-164,-57c0,0,-1,0,-2,0Z" 
id="f1_2k"
transform="scale(0.001,-0.001)" />

<path d="M335,90c0,0,106,0,179,57c0,0,50,41,67,91c0,0,3,10,4,31c0,0,3,21,3,47v87c0,0,-38,-18,-83,-25L381,360c0,0,-97,-13,-142,-45c0,0,-44,-31,-44,-86c0,0,0,-67,36,-103c0,0,37,-36,104,-36ZM309,-20c0,0,-117,0,-186,61c0,0,-68,63,-68,169c0,0,0,108,64,171c0,0,65,64,189,79l183,23c0,0,22,3,42,8c0,0,26,7,40,27c0,0,15,20,15,51v6c0,0,0,64,-49,101c0,0,-48,36,-135,36c0,0,-83,0,-130,-38c0,0,-46,-39,-56,-115H94c0,0,10,131,92,197c0,0,83,66,238,66c0,0,145,0,222,-63c0,0,76,-63,76,-184V137c0,0,0,-21,12,-33c0,0,12,-12,33,-12c0,0,6,0,18,1c0,0,11,2,25,5V1c0,0,-20,-7,-41,-11c0,0,-22,-5,-37,-5c0,0,-76,0,-110,41c0,0,-22,28,-32,79c0,0,-15,-19,-34,-36c0,0,-101,-89,-247,-89Z" 
id="f1_1w"
transform="scale(0.001,-0.001)" />

<path d="M411,93c0,0,98,0,158,73c0,0,60,74,60,195c0,0,0,163,-57,252c0,0,-56,88,-161,88c0,0,-113,0,-165,-72c0,0,-52,-72,-52,-229c0,0,0,-147,56,-227c0,0,56,-80,161,-80ZM404,-20c0,0,-161,0,-255,118c0,0,-95,120,-95,324c0,0,0,179,92,290c0,0,91,110,239,110c0,0,147,0,233,-124l11,-15v414H763V0H638V109L621,84C621,84,538,-20,404,-20Z" 
id="f1_1z"
transform="scale(0.001,-0.001)" />

<path d="M310,0L12,799H168L383,145L604,799H752L454,0Z" 
id="f1_2h"
transform="scale(0.001,-0.001)" />

<path d="M649,461c0,0,-6,111,-55,172c0,0,-55,69,-160,69c0,0,-106,0,-170,-79c0,0,-50,-62,-60,-162ZM425,-20c0,0,-169,0,-266,106c0,0,-97,107,-97,297c0,0,0,201,102,320c0,0,103,119,276,119c0,0,157,0,253,-116c0,0,96,-117,96,-306l-1,-48H204c0,0,8,-119,54,-182c0,0,57,-76,180,-76c0,0,77,0,134,43c0,0,58,43,70,110H775C775,247,746,116,656,47c0,0,-90,-67,-231,-67Z" 
id="f1_20"
transform="scale(0.001,-0.001)" />

<path d="M436,95c0,0,105,0,160,79c0,0,54,80,54,232c0,0,0,150,-52,222c0,0,-52,72,-161,72c0,0,-112,0,-163,-81c0,0,-51,-82,-51,-258c0,0,0,-127,55,-197c0,0,55,-69,158,-69Zm6,-115c0,0,-135,0,-215,102L215,98V0H89V1097H223V695c0,0,87,127,225,127c1,0,2,0,2,0c0,0,157,0,249,-108c0,0,91,-107,91,-291c0,0,0,-208,-92,-326C698,97,606,-20,442,-20Z" 
id="f1_1x"
transform="scale(0.001,-0.001)" />

<path d="M42,-299v108H207V995H42v109H329V-299Z" 
id="f1_1s"
transform="scale(0.001,-0.001)" />

<path d="M511,373V863L169,383l-7,-10ZM511,0V258H38V383l496,691H646V373H799V258H646V0Z" 
id="f1_n"
transform="scale(0.001,-0.001)" />

<path d="M133,0V162H292V0Z" 
id="f1_h"
transform="scale(0.001,-0.001)" />

<path d="M338,28c0,0,48,0,91,45c0,0,43,45,65,144c0,0,22,99,26,276H143c0,0,3,-133,20,-239c0,0,13,-80,44,-140c0,0,19,-36,54,-61c0,0,36,-25,77,-25ZM522,543c0,0,-1,194,-37,312c0,0,-29,90,-76,129c0,0,-34,28,-79,28c0,0,-51,0,-93,-39c0,0,-43,-40,-65,-132c0,0,-22,-93,-29,-298ZM329,-21c0,0,-68,0,-124,31c0,0,-56,33,-99,95c0,0,-43,62,-66,131C40,236,0,356,0,489c0,0,0,294,119,453c0,0,91,119,217,119c0,0,122,0,209,-115c0,0,121,-160,121,-436c0,0,0,-263,-119,-415C547,95,455,-21,329,-21Z" 
id="f2_2d"
transform="scale(0.001,-0.001)" />

<path d="M419,483c0,0,93,0,152,66c0,0,59,66,59,169c0,0,0,103,-59,169c0,0,-59,65,-152,65c0,0,-94,0,-153,-65c0,0,-59,-66,-59,-169c0,0,0,-103,59,-169c0,0,59,-66,153,-66ZM397,-28c0,0,-143,0,-227,75c0,0,-85,77,-91,211H209c0,0,8,-83,57,-128c0,0,49,-45,131,-45c0,0,121,0,186,135c0,0,48,101,62,265C645,485,545,362,397,362c0,0,-150,0,-241,98c0,0,-91,98,-91,258c0,0,0,160,99,258c0,0,99,98,262,98c0,0,173,0,266,-123c0,0,94,-123,94,-349c0,0,0,-303,-101,-467C685,135,583,-28,397,-28Z" 
id="f1_s"
transform="scale(0.001,-0.001)" />

<path d="M424,92c0,0,114,0,170,107c0,0,57,108,56,323c0,0,1,216,-56,324c0,0,-56,107,-170,107c0,0,-112,0,-168,-107c0,0,-56,-108,-57,-324c0,0,1,-215,57,-323c0,0,56,-107,168,-107Zm0,-120c0,0,-176,0,-271,142c0,0,-96,143,-96,408c0,0,0,265,96,409c0,0,95,144,271,144c0,0,178,0,273,-144c0,0,96,-144,96,-409c0,0,0,-265,-96,-408c0,0,-95,-142,-273,-142Z" 
id="f1_j"
transform="scale(0.001,-0.001)" />

<path d="M60,174V286H832V174Zm0,309V595H832V483Z" 
id="f1_w"
transform="scale(0.001,-0.001)" />

<path d="M281,-9c0,0,-86,0,-115,42c0,0,-30,43,-11,139L263,688H157l23,112H285l47,224H467L420,800H548L525,688H398L290,172c0,0,-6,-35,11,-51c0,0,16,-16,58,-16h46L383,0c0,0,-68,-9,-102,-9Z" 
id="f3_2f"
transform="scale(0.001,-0.001)" />

<path d="M435,0V856c0,0,-48,-47,-127,-93c0,0,-79,-46,-142,-69V824c0,0,113,52,197,128c0,0,85,75,120,146h86V0Z" 
id="f5_l"
transform="scale(0.001,-0.001)" />

<path d="M494,385V878L152,385ZM494,0V262H20V385l498,708H628V385H775V262H628V0Z" 
id="f5_o"
transform="scale(0.001,-0.001)" />

<path d="M125,0V1051H268V115H799V0Z" 
id="f0_1c"
transform="scale(0.001,-0.001)" />

<path d="M106,0V620c0,0,0,85,-5,188H228c0,0,6,-138,6,-165h3c0,0,32,103,74,141c0,0,42,38,118,38c0,0,27,0,54,-7V692c0,0,-26,7,-71,7c0,0,-84,0,-128,-72c0,0,-44,-72,-44,-206V0Z" 
id="f0_2e"
transform="scale(0.001,-0.001)" />

<path d="M606,-14c0,0,-164,0,-284,65c0,0,-119,66,-182,189c0,0,-63,123,-63,291c0,0,0,255,137,396c0,0,137,140,386,140c0,0,174,0,283,-59c0,0,109,-59,168,-189L915,779c0,0,-44,90,-123,131c0,0,-79,41,-196,41c0,0,-182,0,-278,-110c0,0,-96,-110,-96,-310c0,0,0,-200,102,-315c0,0,102,-115,282,-115c0,0,103,0,193,31c0,0,89,31,144,85V407H629V526h445V164c0,0,-83,-85,-205,-132c0,0,-121,-46,-263,-46Z" 
id="f0_17"
transform="scale(0.001,-0.001)" />

<path d="M355,-14c0,0,-133,0,-194,65c0,0,-62,66,-62,219V808H234V296c0,0,0,-80,16,-124c0,0,16,-44,50,-64c0,0,34,-19,101,-19c0,0,97,0,153,66c0,0,55,67,55,185V808H744V172c0,0,0,-141,4,-172H621c0,0,0,4,-1,20c0,0,-1,17,-2,38c0,0,-1,21,-3,80h-2C613,138,567,55,506,20c0,0,-61,-34,-151,-34Z" 
id="f0_2h"
transform="scale(0.001,-0.001)" />

<path d="M395,89c0,0,115,0,166,79c0,0,51,79,51,246c0,0,0,160,-51,235c0,0,-51,75,-164,75c0,0,-102,0,-147,-75c0,0,-45,-75,-45,-244c0,0,0,-170,45,-243c0,0,45,-73,145,-73ZM361,-14c0,0,-153,0,-225,102c0,0,-72,103,-72,312c0,0,0,422,297,422c0,0,92,0,153,-33c0,0,61,-34,98,-107h2l-2,90v335H747V166c0,0,0,-126,4,-166H623c0,0,-2,12,-5,55c0,0,-3,44,-3,75h-3c0,0,-37,-78,-98,-111c0,0,-62,-33,-153,-33Z" 
id="f0_20"
transform="scale(0.001,-0.001)" />

<path d="M140,0V163H285V0Z" 
id="f0_i"
transform="scale(0.001,-0.001)" />


</defs>
</svg>