<?xml version="1.0" encoding="UTF-8" standalone="no"?>
<!DOCTYPE svg PUBLIC "-//W3C//DTD SVG 1.1//EN"
"http://www.w3.org/Graphics/SVG/1.1/DTD/svg11.dtd">
<svg viewBox="0 0 734 1106" version="1.1" xmlns="http://www.w3.org/2000/svg" xmlns:xlink="http://www.w3.org/1999/xlink">
<defs>
<style type="text/css"><![CDATA[
.g0_83{
fill: none;
stroke: #000000;
stroke-width: 0.7624222;
stroke-linecap: round;
stroke-linejoin: miter;
}
.g1_83{
fill: none;
stroke: #000000;
stroke-width: 0.7616889;
stroke-linecap: round;
stroke-linejoin: miter;
}
.g2_83{
fill: none;
stroke: #000000;
stroke-width: 0.7609555;
stroke-linecap: round;
stroke-linejoin: miter;
}
.g3_83{
fill: none;
stroke: #000000;
stroke-width: 0.7638889;
stroke-linecap: round;
stroke-linejoin: miter;
}
.g4_83{
fill: none;
stroke: #000000;
stroke-width: 0.7665778;
stroke-linecap: round;
stroke-linejoin: miter;
}
.g5_83{
fill: none;
stroke: #000000;
stroke-width: 0.15277778;
stroke-linecap: round;
stroke-linejoin: miter;
}
.g6_83{
}
.g7_83{
fill: none;
stroke: #000000;
stroke-width: 0.7607111;
stroke-linecap: round;
stroke-linejoin: miter;
}
.g8_83{
fill: none;
stroke: #000000;
stroke-width: 0.76511115;
stroke-linecap: round;
stroke-linejoin: miter;
}
.g9_83{
fill: none;
stroke: #000000;
stroke-width: 0.7678;
stroke-linecap: round;
stroke-linejoin: miter;
}
]]></style>
</defs>
<g fill="#D4D4D4" fill-opacity="0.56" >
<use xlink:href="#f0_1f" transform="matrix(50.9,-50.9,50.9,50.9,122.6,924.1)" />
<use xlink:href="#f0_2a" transform="matrix(50.9,-50.9,50.9,50.9,183.2,863.6)" />
<use xlink:href="#f0_28" transform="matrix(50.9,-50.9,50.9,50.9,226.4,820.3)" />
<use xlink:href="#f0_25" transform="matrix(50.9,-50.9,50.9,50.9,243.7,803.1)" />
<use xlink:href="#f0_2a" transform="matrix(50.9,-50.9,50.9,50.9,260.9,785.8)" />
<use xlink:href="#f0_21" transform="matrix(50.9,-50.9,50.9,50.9,304.2,742.5)" />
<use xlink:href="#f0_2k" transform="matrix(50.9,-50.9,50.9,50.9,347.4,699.3)" />
<use xlink:href="#f0_1x" transform="matrix(50.9,-50.9,50.9,50.9,386.3,660.4)" />
<use xlink:href="#f0_29" transform="matrix(50.9,-50.9,50.9,50.9,429.6,617.2)" />
<use xlink:href="#f0_2c" transform="matrix(50.9,-50.9,50.9,50.9,494.4,552.4)" />
<use xlink:href="#f0_2b" transform="matrix(50.9,-50.9,50.9,50.9,537.6,509.1)" />
<use xlink:href="#f0_25" transform="matrix(50.9,-50.9,50.9,50.9,580.8,465.9)" />
<use xlink:href="#f0_2a" transform="matrix(50.9,-50.9,50.9,50.9,598.1,448.6)" />
<use xlink:href="#f0_2g" transform="matrix(50.9,-50.9,50.9,50.9,641.4,405.4)" />
</g>
<g fill="#000000" >
<use xlink:href="#f1_b" transform="matrix(10.4,0,0,10.4,130.9,125.3)" />
<use xlink:href="#f1_24" transform="matrix(10.4,0,0,10.4,136.2,125.3)" />
<use xlink:href="#f1_2h" transform="matrix(10.4,0,0,10.4,139.7,125.3)" />
<use xlink:href="#f1_c" transform="matrix(10.4,0,0,10.4,147.7,125.3)" />
</g>
<path d="M223,120.4h12m106.3,0h12" class="g0_83" />
<g fill="#000000" >
<use xlink:href="#f1_2e" transform="matrix(10.4,0,0,10.4,197.7,124.6)" />
<use xlink:href="#f1_24" transform="matrix(10.4,0,0,10.4,206,124.6)" />
<use xlink:href="#f1_29" transform="matrix(10.4,0,0,10.4,209.8,124.6)" />
<use xlink:href="#f1_2e" transform="matrix(10.4,0,0,10.4,316,124.6)" />
<use xlink:href="#f1_24" transform="matrix(10.4,0,0,10.4,324.3,124.6)" />
<use xlink:href="#f1_29" transform="matrix(10.4,0,0,10.4,328,124.6)" />
<use xlink:href="#f1_h" transform="matrix(10.4,0,0,10.4,417.4,124.6)" />
<use xlink:href="#f2_2j" transform="matrix(10.4,0,0,10.4,224,114.2)" />
<use xlink:href="#f2_2j" transform="matrix(10.4,0,0,10.4,342.3,114.2)" />
<use xlink:href="#f2_2k" transform="matrix(10.4,0,0,10.4,183.6,124.6)" />
<use xlink:href="#f2_1z" transform="matrix(10.4,0,0,10.4,247.7,124.6)" />
<use xlink:href="#f2_2j" transform="matrix(10.4,0,0,10.4,257,124.6)" />
<use xlink:href="#f2_2j" transform="matrix(10.4,0,0,10.4,301.8,124.6)" />
<use xlink:href="#f2_2k" transform="matrix(10.4,0,0,10.4,376.3,124.6)" />
<use xlink:href="#f2_1z" transform="matrix(10.4,0,0,10.4,398.6,124.6)" />
<use xlink:href="#f2_2k" transform="matrix(10.4,0,0,10.4,407.9,124.6)" />
<use xlink:href="#f2_2k" transform="matrix(10.4,0,0,10.4,224.2,140)" />
<use xlink:href="#f2_2k" transform="matrix(10.4,0,0,10.4,342.4,140)" />
<use xlink:href="#f3_4o" transform="matrix(10.4,0,0,10.4,173.9,115.4)" />
<use xlink:href="#f3_54" transform="matrix(10.4,0,0,10.4,236.6,115.4)" />
<use xlink:href="#f3_4o" transform="matrix(10.4,0,0,10.4,292.4,115.4)" />
<use xlink:href="#f3_54" transform="matrix(10.4,0,0,10.4,387.5,115.4)" />
<use xlink:href="#f3_x" transform="matrix(10.4,0,0,10.4,275.5,124.6)" />
<use xlink:href="#f3_h" transform="matrix(10.4,0,0,10.4,360.4,124.6)" />
<use xlink:href="#f3_4p" transform="matrix(10.4,0,0,10.4,173.9,133.2)" />
<use xlink:href="#f3_55" transform="matrix(10.4,0,0,10.4,236.6,133.2)" />
<use xlink:href="#f3_4p" transform="matrix(10.4,0,0,10.4,292.4,133.2)" />
<use xlink:href="#f3_55" transform="matrix(10.4,0,0,10.4,387.5,133.2)" />
<use xlink:href="#f3_4q" transform="matrix(10.4,0,0,10.4,173.9,139.9)" />
<use xlink:href="#f3_56" transform="matrix(10.4,0,0,10.4,236.6,139.9)" />
<use xlink:href="#f3_4q" transform="matrix(10.4,0,0,10.4,292.4,139.9)" />
<use xlink:href="#f3_56" transform="matrix(10.4,0,0,10.4,387.5,139.9)" />
<use xlink:href="#f1_b" transform="matrix(10.4,0,0,10.4,446.2,125.3)" />
<use xlink:href="#f1_2h" transform="matrix(10.4,0,0,10.4,451.5,125.3)" />
<use xlink:href="#f1_c" transform="matrix(10.4,0,0,10.4,459.8,125.3)" />
</g>
<path d="M486.3,120.5h20m26.5,0h12m59.2,0h12" class="g1_83" />
<g fill="#000000" >
<use xlink:href="#f1_2f" transform="matrix(10.4,0,0,10.4,567.7,124.7)" />
<use xlink:href="#f1_1w" transform="matrix(10.4,0,0,10.4,572.4,124.7)" />
<use xlink:href="#f1_29" transform="matrix(10.4,0,0,10.4,581.7,124.7)" />
<use xlink:href="#f1_h" transform="matrix(10.4,0,0,10.4,628.7,124.7)" />
<use xlink:href="#f2_1z" transform="matrix(10.4,0,0,10.4,486,114.4)" />
<use xlink:href="#f2_2k" transform="matrix(10.4,0,0,10.4,495.3,114.4)" />
<use xlink:href="#f2_2k" transform="matrix(10.4,0,0,10.4,533.8,114.4)" />
<use xlink:href="#f2_2k" transform="matrix(10.4,0,0,10.4,605.1,114.4)" />
<use xlink:href="#f2_1z" transform="matrix(10.4,0,0,10.4,486,140.2)" />
<use xlink:href="#f2_2j" transform="matrix(10.4,0,0,10.4,495.3,140.2)" />
<use xlink:href="#f2_2j" transform="matrix(10.4,0,0,10.4,533.7,140.2)" />
<use xlink:href="#f2_2j" transform="matrix(10.4,0,0,10.4,605,140.2)" />
<use xlink:href="#f3_4o" transform="matrix(10.4,0,0,10.4,594.2,115.5)" />
<use xlink:href="#f3_54" transform="matrix(10.4,0,0,10.4,617.6,115.5)" />
<use xlink:href="#f3_x" transform="matrix(10.4,0,0,10.4,515,124.7)" />
<use xlink:href="#f3_f" transform="matrix(10.4,0,0,10.4,551.8,124.7)" />
<use xlink:href="#f3_4p" transform="matrix(10.4,0,0,10.4,594.2,130)" />
<use xlink:href="#f3_55" transform="matrix(10.4,0,0,10.4,617.6,130)" />
<use xlink:href="#f3_4q" transform="matrix(10.4,0,0,10.4,594.2,136.6)" />
<use xlink:href="#f3_56" transform="matrix(10.4,0,0,10.4,617.6,136.6)" />
<use xlink:href="#f1_b" transform="matrix(10.4,0,0,10.4,130.9,202)" />
<use xlink:href="#f1_2h" transform="matrix(10.4,0,0,10.4,136.2,202)" />
<use xlink:href="#f1_24" transform="matrix(10.4,0,0,10.4,144.4,202)" />
<use xlink:href="#f1_c" transform="matrix(10.4,0,0,10.4,148,202)" />
</g>
<path d="M174.6,196.8h20m26.5,0h61.7" class="g2_83" />
<g fill="#000000" >
<use xlink:href="#f1_l" transform="matrix(7.8,0,0,7.9,232.5,208.4)" />
<use xlink:href="#f1_l" transform="matrix(7.8,0,0,7.9,273.8,208.4)" />
<use xlink:href="#f1_l" transform="matrix(10.4,0,0,10.5,238.3,190.6)" />
<use xlink:href="#f2_1z" transform="matrix(10.4,0,0,10.5,174.7,190.6)" />
<use xlink:href="#f2_2k" transform="matrix(10.4,0,0,10.5,184,190.6)" />
<use xlink:href="#f2_2j" transform="matrix(10.4,0,0,10.5,247.3,190.6)" />
<use xlink:href="#f2_2k" transform="matrix(10.4,0,0,10.5,255.6,190.6)" />
<use xlink:href="#f2_1z" transform="matrix(10.4,0,0,10.5,174.7,216.6)" />
<use xlink:href="#f2_2j" transform="matrix(10.4,0,0,10.5,184,216.6)" />
<use xlink:href="#f2_2j" transform="matrix(10.4,0,0,10.5,222.1,218)" />
<use xlink:href="#f2_2k" transform="matrix(10.4,0,0,10.5,263.5,218)" />
<use xlink:href="#f3_x" transform="matrix(10.4,0,0,10.5,203.5,201)" />
<use xlink:href="#f3_f" transform="matrix(10.4,0,0,10.5,247.4,218)" />
<use xlink:href="#f1_b" transform="matrix(10.4,0,0,10.4,439.1,202)" />
<use xlink:href="#f1_2h" transform="matrix(10.4,0,0,10.4,444.4,202)" />
<use xlink:href="#f1_24" transform="matrix(10.4,0,0,10.4,452.4,202)" />
<use xlink:href="#f1_24" transform="matrix(10.4,0,0,10.4,455.9,202)" />
<use xlink:href="#f1_c" transform="matrix(10.4,0,0,10.4,459.4,202)" />
</g>
<path d="M486.3,197.5h20.1" class="g3_83" />
<g fill="#000000" >
<use xlink:href="#f1_l" transform="matrix(7.9,0,0,7.9,602.3,192.1)" />
<use xlink:href="#f1_h" transform="matrix(10.5,0,0,10.5,628,201.8)" />
<use xlink:href="#f2_2j" transform="matrix(7.9,0,0,7.9,541.7,192.1)" />
<use xlink:href="#f2_2k" transform="matrix(7.9,0,0,7.9,559.9,192.1)" />
<use xlink:href="#f2_2k" transform="matrix(7.9,0,0,7.9,619.1,192.1)" />
<use xlink:href="#f2_1z" transform="matrix(10.5,0,0,10.5,486.1,191.3)" />
<use xlink:href="#f2_2k" transform="matrix(10.5,0,0,10.5,495.5,191.3)" />
<use xlink:href="#f2_20" transform="matrix(10.5,0,0,10.5,531.4,201.8)" />
<use xlink:href="#f2_2j" transform="matrix(10.5,0,0,10.5,591.9,201.8)" />
<use xlink:href="#f2_20" transform="matrix(10.5,0,0,10.5,608.6,201.8)" />
<use xlink:href="#f2_1z" transform="matrix(10.5,0,0,10.5,486.1,217.3)" />
<use xlink:href="#f2_2j" transform="matrix(10.5,0,0,10.5,495.5,217.3)" />
<use xlink:href="#f3_f" transform="matrix(7.9,0,0,7.9,551,192.1)" />
<use xlink:href="#f3_x" transform="matrix(10.5,0,0,10.5,515.2,201.8)" />
<use xlink:href="#f3_f" transform="matrix(10.5,0,0,10.5,575.9,201.8)" />
<use xlink:href="#f1_b" transform="matrix(10.4,0,0,10.4,123.9,276.6)" />
<use xlink:href="#f1_2h" transform="matrix(10.4,0,0,10.4,129.2,276.6)" />
<use xlink:href="#f1_24" transform="matrix(10.4,0,0,10.4,137.2,276.6)" />
<use xlink:href="#f1_24" transform="matrix(10.4,0,0,10.4,140.8,276.6)" />
<use xlink:href="#f1_24" transform="matrix(10.4,0,0,10.4,144.3,276.6)" />
<use xlink:href="#f1_c" transform="matrix(10.4,0,0,10.4,147.8,276.6)" />
</g>
<path d="M174.7,272.4h20.1m37.6,0h48.7" class="g4_83" />
<path d="M221.7,278.1l1.5,-2.6l3.9,19.4L231.4,244h50.9" class="g5_83" />
<path fill-rule="evenodd" d="M221.5,278l2.1,-3.6l3.5,16.5l4,-47.3h51.2v.8H231.8l-4.3,50.5h-.8l-4,-18.3l-.8,1.6l-.4,-.2Z" class="g6_83" />
<g fill="#000000" >
<use xlink:href="#f1_l" transform="matrix(7.9,0,0,7.9,272.1,256.5)" />
<use xlink:href="#f1_l" transform="matrix(7.9,0,0,7.9,271.5,284.2)" />
<use xlink:href="#f1_k" transform="matrix(10.6,0,0,10.6,231.8,266.2)" />
<use xlink:href="#f1_99" transform="matrix(10.6,0,0,10.6,245.1,266.2)" />
<use xlink:href="#f1_h" transform="matrix(10.6,0,0,10.6,282.3,276.7)" />
<use xlink:href="#f1_k" transform="matrix(10.6,0,0,10.6,232.3,293.8)" />
<use xlink:href="#f2_1z" transform="matrix(10.6,0,0,10.6,174.5,266.2)" />
<use xlink:href="#f2_2k" transform="matrix(10.6,0,0,10.6,183.9,266.2)" />
<use xlink:href="#f2_2k" transform="matrix(10.6,0,0,10.6,261.6,266.2)" />
<use xlink:href="#f2_1z" transform="matrix(10.6,0,0,10.6,174.5,292.4)" />
<use xlink:href="#f2_2j" transform="matrix(10.6,0,0,10.6,183.9,292.4)" />
<use xlink:href="#f2_2j" transform="matrix(10.6,0,0,10.6,261.1,293.8)" />
<use xlink:href="#f3_x" transform="matrix(10.6,0,0,10.6,203.7,276.7)" />
<use xlink:href="#f3_h" transform="matrix(10.6,0,0,10.6,245.3,293.8)" />
<use xlink:href="#f1_b" transform="matrix(10.4,0,0,10.4,130.9,346.1)" />
<use xlink:href="#f1_24" transform="matrix(10.4,0,0,10.4,136.2,346.1)" />
<use xlink:href="#f1_2j" transform="matrix(10.4,0,0,10.4,139.7,346.1)" />
<use xlink:href="#f1_c" transform="matrix(10.4,0,0,10.4,147.7,346.1)" />
<use xlink:href="#f3_c" transform="matrix(10.3,0,0,18.6,173.6,347.2)" />
<use xlink:href="#f3_d" transform="matrix(10.3,0,0,18.6,251.1,347.4)" />
<use xlink:href="#f3_c" transform="matrix(10.3,0,0,18.6,300.3,347.2)" />
<use xlink:href="#f3_d" transform="matrix(10.3,0,0,18.6,368.5,347.4)" />
<use xlink:href="#f1_l" transform="matrix(7.8,0,0,7.8,241.1,338.5)" />
<use xlink:href="#f1_l" transform="matrix(7.8,0,0,7.8,317.6,338.5)" />
<use xlink:href="#f1_m" transform="matrix(10.4,0,0,10.4,180.6,348)" />
<use xlink:href="#f1_j" transform="matrix(10.4,0,0,10.4,421.6,348)" />
<use xlink:href="#f3_f" transform="matrix(10.4,0,0,10.4,214.9,348)" />
<use xlink:href="#f3_f" transform="matrix(10.4,0,0,10.4,285.2,348)" />
<use xlink:href="#f3_f" transform="matrix(10.4,0,0,10.4,332.8,348)" />
<use xlink:href="#f3_x" transform="matrix(10.4,0,0,10.4,404.6,348)" />
<use xlink:href="#f2_2j" transform="matrix(10.4,0,0,10.4,189.8,348)" />
<use xlink:href="#f2_2k" transform="matrix(10.4,0,0,10.4,198.1,348)" />
<use xlink:href="#f2_2k" transform="matrix(10.4,0,0,10.4,230.7,348)" />
<use xlink:href="#f2_1z" transform="matrix(10.4,0,0,10.4,259.3,348)" />
<use xlink:href="#f2_2j" transform="matrix(10.4,0,0,10.4,268.6,348)" />
<use xlink:href="#f2_2j" transform="matrix(10.4,0,0,10.4,307.5,348)" />
<use xlink:href="#f2_2j" transform="matrix(10.4,0,0,10.4,348.6,348)" />
<use xlink:href="#f2_2k" transform="matrix(10.4,0,0,10.4,356.9,348)" />
<use xlink:href="#f2_1z" transform="matrix(10.4,0,0,10.4,376.7,348)" />
<use xlink:href="#f2_2k" transform="matrix(10.4,0,0,10.4,386,348)" />
<use xlink:href="#f1_s" transform="matrix(10.4,0,0,10.4,85.6,388.6)" />
<use xlink:href="#f1_h" transform="matrix(10.4,0,0,10.4,94.8,388.6)" />
<use xlink:href="#f1_b" transform="matrix(10.4,0,0,10.4,139.1,388.6)" />
<use xlink:href="#f1_24" transform="matrix(10.4,0,0,10.4,144.5,388.6)" />
<use xlink:href="#f1_c" transform="matrix(10.4,0,0,10.4,148,388.6)" />
<use xlink:href="#f1_15" transform="matrix(10.4,0,0,10.4,171.6,388.6)" />
<use xlink:href="#f1_2a" transform="matrix(10.4,0,0,10.4,181.3,388.6)" />
<use xlink:href="#f1_2d" transform="matrix(10.4,0,0,10.4,190.2,388.6)" />
<use xlink:href="#f1_28" transform="matrix(10.4,0,0,10.4,195.7,388.6)" />
<use xlink:href="#f1_2f" transform="matrix(10.4,0,0,10.4,217.8,388.6)" />
<use xlink:href="#f1_23" transform="matrix(10.4,0,0,10.4,222.2,388.6)" />
<use xlink:href="#f1_20" transform="matrix(10.4,0,0,10.4,231.1,388.6)" />
<use xlink:href="#f1_1z" transform="matrix(10.4,0,0,10.4,248.8,388.6)" />
<use xlink:href="#f1_24" transform="matrix(10.4,0,0,10.4,257.6,388.6)" />
<use xlink:href="#f1_21" transform="matrix(10.4,0,0,10.4,261.2,388.6)" />
<use xlink:href="#f1_21" transform="matrix(10.4,0,0,10.4,265.6,388.6)" />
<use xlink:href="#f1_20" transform="matrix(10.4,0,0,10.4,270.1,388.6)" />
<use xlink:href="#f1_2d" transform="matrix(10.4,0,0,10.4,278.9,388.6)" />
<use xlink:href="#f1_20" transform="matrix(10.4,0,0,10.4,284.2,388.6)" />
<use xlink:href="#f1_29" transform="matrix(10.4,0,0,10.4,293.1,388.6)" />
<use xlink:href="#f1_2f" transform="matrix(10.4,0,0,10.4,302,388.6)" />
<use xlink:href="#f1_24" transform="matrix(10.4,0,0,10.4,306.4,388.6)" />
<use xlink:href="#f1_1w" transform="matrix(10.4,0,0,10.4,309.9,388.6)" />
<use xlink:href="#f1_27" transform="matrix(10.4,0,0,10.4,318.8,388.6)" />
<use xlink:href="#f1_20" transform="matrix(10.4,0,0,10.4,331.2,388.6)" />
<use xlink:href="#f1_2c" transform="matrix(10.4,0,0,10.4,340,388.6)" />
<use xlink:href="#f1_2g" transform="matrix(10.4,0,0,10.4,348.9,388.6)" />
<use xlink:href="#f1_1w" transform="matrix(10.4,0,0,10.4,357.8,388.6)" />
<use xlink:href="#f1_2f" transform="matrix(10.4,0,0,10.4,366.6,388.6)" />
<use xlink:href="#f1_24" transform="matrix(10.4,0,0,10.4,371.1,388.6)" />
<use xlink:href="#f1_2a" transform="matrix(10.4,0,0,10.4,374.6,388.6)" />
<use xlink:href="#f1_29" transform="matrix(10.4,0,0,10.4,383.5,388.6)" />
<use xlink:href="#f1_2a" transform="matrix(10.4,0,0,10.4,401.1,388.6)" />
<use xlink:href="#f1_21" transform="matrix(10.4,0,0,10.4,410,388.6)" />
<use xlink:href="#f1_2f" transform="matrix(10.4,0,0,10.4,423.4,388.6)" />
<use xlink:href="#f1_23" transform="matrix(10.4,0,0,10.4,427.9,388.6)" />
<use xlink:href="#f1_20" transform="matrix(10.4,0,0,10.4,436.7,388.6)" />
<use xlink:href="#f1_21" transform="matrix(10.4,0,0,10.4,454.4,388.6)" />
<use xlink:href="#f1_1w" transform="matrix(10.4,0,0,10.4,458.8,388.6)" />
<use xlink:href="#f1_28" transform="matrix(10.4,0,0,10.4,467.7,388.6)" />
<use xlink:href="#f1_24" transform="matrix(10.4,0,0,10.4,481,388.6)" />
<use xlink:href="#f1_27" transform="matrix(10.4,0,0,10.4,484.5,388.6)" />
<use xlink:href="#f1_2k" transform="matrix(10.4,0,0,10.4,488.1,388.6)" />
<use xlink:href="#f1_2a" transform="matrix(10.4,0,0,10.4,504.9,388.6)" />
<use xlink:href="#f1_21" transform="matrix(10.4,0,0,10.4,513.7,388.6)" />
<use xlink:href="#f1_1y" transform="matrix(10.4,0,0,10.4,527.1,388.6)" />
<use xlink:href="#f1_24" transform="matrix(10.4,0,0,10.4,535.1,388.6)" />
<use xlink:href="#f1_2d" transform="matrix(10.4,0,0,10.4,538.6,388.6)" />
<use xlink:href="#f1_1y" transform="matrix(10.4,0,0,10.4,544,388.6)" />
<use xlink:href="#f1_27" transform="matrix(10.4,0,0,10.4,552.2,388.6)" />
<use xlink:href="#f1_20" transform="matrix(10.4,0,0,10.4,555.7,388.6)" />
<use xlink:href="#f1_2e" transform="matrix(10.4,0,0,10.4,564.6,388.6)" />
<use xlink:href="#f1_2f" transform="matrix(10.4,0,0,10.4,581.4,388.6)" />
<use xlink:href="#f1_2a" transform="matrix(10.4,0,0,10.4,585.8,388.6)" />
<use xlink:href="#f1_2g" transform="matrix(10.4,0,0,10.4,594.7,388.6)" />
<use xlink:href="#f1_1y" transform="matrix(10.4,0,0,10.4,603.6,388.6)" />
<use xlink:href="#f1_23" transform="matrix(10.4,0,0,10.4,611.5,388.6)" />
<use xlink:href="#f1_24" transform="matrix(10.4,0,0,10.4,620.4,388.6)" />
<use xlink:href="#f1_29" transform="matrix(10.4,0,0,10.4,623.9,388.6)" />
<use xlink:href="#f1_22" transform="matrix(10.4,0,0,10.4,632.8,388.6)" />
<use xlink:href="#f2_2k" transform="matrix(10.4,0,0,10.4,171.6,408.8)" />
<use xlink:href="#f1_g" transform="matrix(10.4,0,0,10.4,179.7,408.8)" />
<use xlink:href="#f1_1w" transform="matrix(10.4,0,0,10.4,185,408.8)" />
<use xlink:href="#f1_2j" transform="matrix(10.4,0,0,10.4,193.8,408.8)" />
<use xlink:href="#f1_24" transform="matrix(10.4,0,0,10.4,201.8,408.8)" />
<use xlink:href="#f1_2e" transform="matrix(10.4,0,0,10.4,205.4,408.8)" />
<use xlink:href="#f1_1w" transform="matrix(10.4,0,0,10.4,220.3,408.8)" />
<use xlink:href="#f1_2f" transform="matrix(10.4,0,0,10.4,229.2,408.8)" />
<use xlink:href="#f1_b" transform="matrix(10.4,0,0,10.4,240.7,408.8)" />
<use xlink:href="#f1_j" transform="matrix(10.4,0,0,10.4,246.1,408.8)" />
<use xlink:href="#f1_f" transform="matrix(10.4,0,0,10.4,254.9,408.8)" />
<use xlink:href="#f1_j" transform="matrix(10.4,0,0,10.4,266.3,408.8)" />
<use xlink:href="#f1_c" transform="matrix(10.4,0,0,10.4,275.2,408.8)" />
<use xlink:href="#f1_h" transform="matrix(10.4,0,0,10.4,280.5,408.8)" />
<use xlink:href="#f1_b" transform="matrix(10.4,0,0,10.4,135.5,442.7)" />
<use xlink:href="#f1_24" transform="matrix(10.4,0,0,10.4,140.8,442.7)" />
<use xlink:href="#f1_24" transform="matrix(10.4,0,0,10.4,144.3,442.7)" />
<use xlink:href="#f1_c" transform="matrix(10.4,0,0,10.4,147.9,442.7)" />
<use xlink:href="#f1_15" transform="matrix(10.4,0,0,10.4,171.6,442.7)" />
<use xlink:href="#f1_2a" transform="matrix(10.4,0,0,10.4,181.3,442.7)" />
<use xlink:href="#f1_2d" transform="matrix(10.4,0,0,10.4,190.2,442.7)" />
<use xlink:href="#f1_28" transform="matrix(10.4,0,0,10.4,195.5,442.7)" />
<use xlink:href="#f1_2f" transform="matrix(10.4,0,0,10.4,214.3,442.7)" />
<use xlink:href="#f1_23" transform="matrix(10.4,0,0,10.4,218.7,442.7)" />
<use xlink:href="#f1_20" transform="matrix(10.4,0,0,10.4,227.6,442.7)" />
<use xlink:href="#f1_1z" transform="matrix(10.4,0,0,10.4,242,442.7)" />
<use xlink:href="#f1_24" transform="matrix(10.4,0,0,10.4,250.8,442.7)" />
<use xlink:href="#f1_21" transform="matrix(10.4,0,0,10.4,254.4,442.7)" />
<use xlink:href="#f1_21" transform="matrix(10.4,0,0,10.4,258.8,442.7)" />
<use xlink:href="#f1_20" transform="matrix(10.4,0,0,10.4,263.3,442.7)" />
<use xlink:href="#f1_2d" transform="matrix(10.4,0,0,10.4,272.1,442.7)" />
<use xlink:href="#f1_20" transform="matrix(10.4,0,0,10.4,277.4,442.7)" />
<use xlink:href="#f1_29" transform="matrix(10.4,0,0,10.4,286.3,442.7)" />
<use xlink:href="#f1_2f" transform="matrix(10.4,0,0,10.4,295.2,442.7)" />
<use xlink:href="#f1_24" transform="matrix(10.4,0,0,10.4,299.6,442.7)" />
<use xlink:href="#f1_1w" transform="matrix(10.4,0,0,10.4,303.1,442.7)" />
<use xlink:href="#f1_27" transform="matrix(10.4,0,0,10.4,312,442.7)" />
<use xlink:href="#f1_20" transform="matrix(10.4,0,0,10.4,320.9,442.7)" />
<use xlink:href="#f1_2c" transform="matrix(10.4,0,0,10.4,329.7,442.7)" />
<use xlink:href="#f1_2g" transform="matrix(10.4,0,0,10.4,338.6,442.7)" />
<use xlink:href="#f1_1w" transform="matrix(10.4,0,0,10.4,347.5,442.7)" />
<use xlink:href="#f1_2f" transform="matrix(10.4,0,0,10.4,356.3,442.7)" />
<use xlink:href="#f1_24" transform="matrix(10.4,0,0,10.4,360.8,442.7)" />
<use xlink:href="#f1_2a" transform="matrix(10.4,0,0,10.4,364.3,442.7)" />
<use xlink:href="#f1_29" transform="matrix(10.4,0,0,10.4,373.2,442.7)" />
<use xlink:href="#f1_2a" transform="matrix(10.4,0,0,10.4,387.6,442.7)" />
<use xlink:href="#f1_21" transform="matrix(10.4,0,0,10.4,396.4,442.7)" />
<use xlink:href="#f1_21" transform="matrix(10.4,0,0,10.4,406.4,442.7)" />
<use xlink:href="#f1_1w" transform="matrix(10.4,0,0,10.4,410.8,442.7)" />
<use xlink:href="#f1_28" transform="matrix(10.4,0,0,10.4,419.7,442.7)" />
<use xlink:href="#f1_24" transform="matrix(10.4,0,0,10.4,432.9,442.7)" />
<use xlink:href="#f1_27" transform="matrix(10.4,0,0,10.4,436.5,442.7)" />
<use xlink:href="#f1_2k" transform="matrix(10.4,0,0,10.4,440,442.7)" />
<use xlink:href="#f1_2a" transform="matrix(10.4,0,0,10.4,453.5,442.7)" />
<use xlink:href="#f1_21" transform="matrix(10.4,0,0,10.4,462.4,442.7)" />
<use xlink:href="#f1_2b" transform="matrix(10.4,0,0,10.4,472.1,442.7)" />
<use xlink:href="#f1_1w" transform="matrix(10.4,0,0,10.4,481,442.7)" />
<use xlink:href="#f1_2d" transform="matrix(10.4,0,0,10.4,489.9,442.7)" />
<use xlink:href="#f1_1w" transform="matrix(10.4,0,0,10.4,495.2,442.7)" />
<use xlink:href="#f1_1x" transform="matrix(10.4,0,0,10.4,504,442.7)" />
<use xlink:href="#f1_2a" transform="matrix(10.4,0,0,10.4,512.9,442.7)" />
<use xlink:href="#f1_27" transform="matrix(10.4,0,0,10.4,521.8,442.7)" />
<use xlink:href="#f1_1w" transform="matrix(10.4,0,0,10.4,525.3,442.7)" />
<use xlink:href="#f1_2e" transform="matrix(10.4,0,0,10.4,534.2,442.7)" />
<use xlink:href="#f1_23" transform="matrix(10.4,0,0,10.4,547.7,442.7)" />
<use xlink:href="#f1_1w" transform="matrix(10.4,0,0,10.4,556.5,442.7)" />
<use xlink:href="#f1_2h" transform="matrix(10.4,0,0,10.4,565.4,442.7)" />
<use xlink:href="#f1_24" transform="matrix(10.4,0,0,10.4,573.4,442.7)" />
<use xlink:href="#f1_29" transform="matrix(10.4,0,0,10.4,576.9,442.7)" />
<use xlink:href="#f1_22" transform="matrix(10.4,0,0,10.4,585.8,442.7)" />
<use xlink:href="#f1_2h" transform="matrix(10.4,0,0,10.4,600.2,442.7)" />
<use xlink:href="#f1_20" transform="matrix(10.4,0,0,10.4,608.1,442.7)" />
<use xlink:href="#f1_2d" transform="matrix(10.4,0,0,10.4,617,442.7)" />
<use xlink:href="#f1_2f" transform="matrix(10.4,0,0,10.4,622.3,442.7)" />
<use xlink:href="#f1_20" transform="matrix(10.4,0,0,10.4,626.7,442.7)" />
<use xlink:href="#f1_2j" transform="matrix(10.4,0,0,10.4,635.6,442.7)" />
<use xlink:href="#f1_1w" transform="matrix(10.4,0,0,10.4,171.6,462.9)" />
<use xlink:href="#f1_2f" transform="matrix(10.4,0,0,10.4,180.5,462.9)" />
<use xlink:href="#f1_b" transform="matrix(10.4,0,0,10.4,191.7,462.9)" />
<use xlink:href="#f1_j" transform="matrix(10.4,0,0,10.4,197,462.9)" />
<use xlink:href="#f1_f" transform="matrix(10.4,0,0,10.4,205.9,462.9)" />
<use xlink:href="#f1_j" transform="matrix(10.4,0,0,10.4,216.9,462.9)" />
<use xlink:href="#f1_c" transform="matrix(10.4,0,0,10.4,225.8,462.9)" />
<use xlink:href="#f1_1w" transform="matrix(10.4,0,0,10.4,237.8,462.9)" />
<use xlink:href="#f1_29" transform="matrix(10.4,0,0,10.4,246.7,462.9)" />
<use xlink:href="#f1_1z" transform="matrix(10.4,0,0,10.4,255.6,462.9)" />
<use xlink:href="#f1_1w" transform="matrix(10.4,0,0,10.4,271.2,462.9)" />
<use xlink:href="#f1_2j" transform="matrix(10.4,0,0,10.4,280.1,462.9)" />
<use xlink:href="#f1_24" transform="matrix(10.4,0,0,10.4,288.1,462.9)" />
<use xlink:href="#f1_2e" transform="matrix(10.4,0,0,10.4,291.6,462.9)" />
<use xlink:href="#f1_1w" transform="matrix(10.4,0,0,10.4,306.2,462.9)" />
<use xlink:href="#f1_27" transform="matrix(10.4,0,0,10.4,315.1,462.9)" />
<use xlink:href="#f1_2a" transform="matrix(10.4,0,0,10.4,318.6,462.9)" />
<use xlink:href="#f1_29" transform="matrix(10.4,0,0,10.4,327.5,462.9)" />
<use xlink:href="#f1_22" transform="matrix(10.4,0,0,10.4,336.3,462.9)" />
<use xlink:href="#f1_2f" transform="matrix(10.4,0,0,10.4,352,462.9)" />
<use xlink:href="#f1_23" transform="matrix(10.4,0,0,10.4,356.4,462.9)" />
<use xlink:href="#f1_20" transform="matrix(10.4,0,0,10.4,365.3,462.9)" />
<use xlink:href="#f1_b" transform="matrix(10.4,0,0,10.4,380.9,462.9)" />
<use xlink:href="#f1_24" transform="matrix(10.4,0,0,10.4,386.2,462.9)" />
<use xlink:href="#f1_c" transform="matrix(10.4,0,0,10.4,389.8,462.9)" />
<use xlink:href="#f1_2b" transform="matrix(10.4,0,0,10.4,401.7,462.9)" />
<use xlink:href="#f1_2a" transform="matrix(10.4,0,0,10.4,410.6,462.9)" />
<use xlink:href="#f1_2e" transform="matrix(10.4,0,0,10.4,419.4,462.9)" />
<use xlink:href="#f1_24" transform="matrix(10.4,0,0,10.4,427.4,462.9)" />
<use xlink:href="#f1_2f" transform="matrix(10.4,0,0,10.4,431,462.9)" />
<use xlink:href="#f1_24" transform="matrix(10.4,0,0,10.4,435.4,462.9)" />
<use xlink:href="#f1_2h" transform="matrix(10.4,0,0,10.4,438.9,462.9)" />
<use xlink:href="#f1_20" transform="matrix(10.4,0,0,10.4,446.9,462.9)" />
<use xlink:href="#f2_2k" transform="matrix(10.4,0,0,10.4,461.4,462.9)" />
<use xlink:href="#f1_g" transform="matrix(10.4,0,0,10.4,469.5,462.9)" />
<use xlink:href="#f1_1w" transform="matrix(10.4,0,0,10.4,474.8,462.9)" />
<use xlink:href="#f1_2j" transform="matrix(10.4,0,0,10.4,483.7,462.9)" />
<use xlink:href="#f1_24" transform="matrix(10.4,0,0,10.4,491.7,462.9)" />
<use xlink:href="#f1_2e" transform="matrix(10.4,0,0,10.4,495.2,462.9)" />
<use xlink:href="#f1_b" transform="matrix(10.4,0,0,10.4,510,462.9)" />
<use xlink:href="#f1_24" transform="matrix(10.4,0,0,10.4,515.3,462.9)" />
<use xlink:href="#f1_24" transform="matrix(10.4,0,0,10.4,518.8,462.9)" />
<use xlink:href="#f1_c" transform="matrix(10.4,0,0,10.4,522.4,462.9)" />
<use xlink:href="#f1_2b" transform="matrix(10.4,0,0,10.4,534.3,462.9)" />
<use xlink:href="#f1_2a" transform="matrix(10.4,0,0,10.4,543.1,462.9)" />
<use xlink:href="#f1_2e" transform="matrix(10.4,0,0,10.4,552,462.9)" />
<use xlink:href="#f1_24" transform="matrix(10.4,0,0,10.4,560,462.9)" />
<use xlink:href="#f1_2f" transform="matrix(10.4,0,0,10.4,563.5,462.9)" />
<use xlink:href="#f1_24" transform="matrix(10.4,0,0,10.4,568,462.9)" />
<use xlink:href="#f1_2h" transform="matrix(10.4,0,0,10.4,571.5,462.9)" />
<use xlink:href="#f1_20" transform="matrix(10.4,0,0,10.4,579.5,462.9)" />
<use xlink:href="#f1_2j" transform="matrix(10.4,0,0,10.4,595.1,462.9)" />
<use xlink:href="#f1_g" transform="matrix(10.4,0,0,10.4,603.1,462.9)" />
<use xlink:href="#f1_1w" transform="matrix(10.4,0,0,10.4,608.4,462.9)" />
<use xlink:href="#f1_2j" transform="matrix(10.4,0,0,10.4,617.3,462.9)" />
<use xlink:href="#f1_24" transform="matrix(10.4,0,0,10.4,625.2,462.9)" />
<use xlink:href="#f1_2e" transform="matrix(10.4,0,0,10.4,628.8,462.9)" />
<use xlink:href="#f1_h" transform="matrix(10.4,0,0,10.4,636.8,462.9)" />
<use xlink:href="#f1_b" transform="matrix(10.4,0,0,10.4,132,496.8)" />
<use xlink:href="#f1_24" transform="matrix(10.4,0,0,10.4,137.3,496.8)" />
<use xlink:href="#f1_24" transform="matrix(10.4,0,0,10.4,140.8,496.8)" />
<use xlink:href="#f1_24" transform="matrix(10.4,0,0,10.4,144.4,496.8)" />
<use xlink:href="#f1_c" transform="matrix(10.4,0,0,10.4,147.9,496.8)" />
<use xlink:href="#f1_15" transform="matrix(10.4,0,0,10.4,171.6,496.8)" />
<use xlink:href="#f1_2a" transform="matrix(10.4,0,0,10.4,181.5,496.8)" />
<use xlink:href="#f1_2d" transform="matrix(10.4,0,0,10.4,190.4,496.8)" />
<use xlink:href="#f1_28" transform="matrix(10.4,0,0,10.4,195.9,496.8)" />
<use xlink:href="#f1_1z" transform="matrix(10.4,0,0,10.4,218.1,496.8)" />
<use xlink:href="#f1_24" transform="matrix(10.4,0,0,10.4,227,496.8)" />
<use xlink:href="#f1_21" transform="matrix(10.4,0,0,10.4,230.5,496.8)" />
<use xlink:href="#f1_21" transform="matrix(10.4,0,0,10.4,235,496.8)" />
<use xlink:href="#f1_20" transform="matrix(10.4,0,0,10.4,239.4,496.8)" />
<use xlink:href="#f1_2d" transform="matrix(10.4,0,0,10.4,248.3,496.8)" />
<use xlink:href="#f1_20" transform="matrix(10.4,0,0,10.4,253.8,496.8)" />
<use xlink:href="#f1_29" transform="matrix(10.4,0,0,10.4,262.7,496.8)" />
<use xlink:href="#f1_2f" transform="matrix(10.4,0,0,10.4,271.5,496.8)" />
<use xlink:href="#f1_24" transform="matrix(10.4,0,0,10.4,276,496.8)" />
<use xlink:href="#f1_1w" transform="matrix(10.4,0,0,10.4,279.5,496.8)" />
<use xlink:href="#f1_27" transform="matrix(10.4,0,0,10.4,288.4,496.8)" />
<use xlink:href="#f1_20" transform="matrix(10.4,0,0,10.4,300.9,496.8)" />
<use xlink:href="#f1_2c" transform="matrix(10.4,0,0,10.4,309.8,496.8)" />
<use xlink:href="#f1_2g" transform="matrix(10.4,0,0,10.4,318.6,496.8)" />
<use xlink:href="#f1_1w" transform="matrix(10.4,0,0,10.4,327.5,496.8)" />
<use xlink:href="#f1_2f" transform="matrix(10.4,0,0,10.4,336.4,496.8)" />
<use xlink:href="#f1_24" transform="matrix(10.4,0,0,10.4,340.8,496.8)" />
<use xlink:href="#f1_2a" transform="matrix(10.4,0,0,10.4,344.3,496.8)" />
<use xlink:href="#f1_29" transform="matrix(10.4,0,0,10.4,353.2,496.8)" />
<use xlink:href="#f1_2a" transform="matrix(10.4,0,0,10.4,370.9,496.8)" />
<use xlink:href="#f1_21" transform="matrix(10.4,0,0,10.4,379.7,496.8)" />
<use xlink:href="#f1_21" transform="matrix(10.4,0,0,10.4,393.2,496.8)" />
<use xlink:href="#f1_1w" transform="matrix(10.4,0,0,10.4,397.6,496.8)" />
<use xlink:href="#f1_28" transform="matrix(10.4,0,0,10.4,406.5,496.8)" />
<use xlink:href="#f1_24" transform="matrix(10.4,0,0,10.4,419.7,496.8)" />
<use xlink:href="#f1_27" transform="matrix(10.4,0,0,10.4,423.3,496.8)" />
<use xlink:href="#f1_2k" transform="matrix(10.4,0,0,10.4,426.8,496.8)" />
<use xlink:href="#f1_2a" transform="matrix(10.4,0,0,10.4,443.8,496.8)" />
<use xlink:href="#f1_21" transform="matrix(10.4,0,0,10.4,452.6,496.8)" />
<use xlink:href="#f1_1y" transform="matrix(10.4,0,0,10.4,466.1,496.8)" />
<use xlink:href="#f1_24" transform="matrix(10.4,0,0,10.4,474,496.8)" />
<use xlink:href="#f1_2d" transform="matrix(10.4,0,0,10.4,477.6,496.8)" />
<use xlink:href="#f1_1y" transform="matrix(10.4,0,0,10.4,483.1,496.8)" />
<use xlink:href="#f1_27" transform="matrix(10.4,0,0,10.4,491.1,496.8)" />
<use xlink:href="#f1_20" transform="matrix(10.4,0,0,10.4,494.6,496.8)" />
<use xlink:href="#f1_2e" transform="matrix(10.4,0,0,10.4,503.5,496.8)" />
<use xlink:href="#f1_2b" transform="matrix(10.4,0,0,10.4,520.7,496.8)" />
<use xlink:href="#f1_1w" transform="matrix(10.4,0,0,10.4,529.6,496.8)" />
<use xlink:href="#f1_2e" transform="matrix(10.4,0,0,10.4,538.4,496.8)" />
<use xlink:href="#f1_2e" transform="matrix(10.4,0,0,10.4,546.4,496.8)" />
<use xlink:href="#f1_24" transform="matrix(10.4,0,0,10.4,554.6,496.8)" />
<use xlink:href="#f1_29" transform="matrix(10.4,0,0,10.4,558.2,496.8)" />
<use xlink:href="#f1_22" transform="matrix(10.4,0,0,10.4,567.1,496.8)" />
<use xlink:href="#f1_2f" transform="matrix(10.4,0,0,10.4,584.7,496.8)" />
<use xlink:href="#f1_23" transform="matrix(10.4,0,0,10.4,589.2,496.8)" />
<use xlink:href="#f1_2d" transform="matrix(10.4,0,0,10.4,598,496.8)" />
<use xlink:href="#f1_2a" transform="matrix(10.4,0,0,10.4,603.3,496.8)" />
<use xlink:href="#f1_2g" transform="matrix(10.4,0,0,10.4,612.2,496.8)" />
<use xlink:href="#f1_22" transform="matrix(10.4,0,0,10.4,621.1,496.8)" />
<use xlink:href="#f1_23" transform="matrix(10.4,0,0,10.4,629.9,496.8)" />
<use xlink:href="#f1_2a" transform="matrix(10.4,0,0,10.4,171.6,516.9)" />
<use xlink:href="#f1_2d" transform="matrix(10.4,0,0,10.4,180.5,516.9)" />
<use xlink:href="#f1_24" transform="matrix(10.4,0,0,10.4,185.8,516.9)" />
<use xlink:href="#f1_22" transform="matrix(10.4,0,0,10.4,189.3,516.9)" />
<use xlink:href="#f1_24" transform="matrix(10.4,0,0,10.4,198.2,516.9)" />
<use xlink:href="#f1_29" transform="matrix(10.4,0,0,10.4,201.7,516.9)" />
<use xlink:href="#f1_1w" transform="matrix(10.4,0,0,10.4,217.9,516.9)" />
<use xlink:href="#f1_29" transform="matrix(10.4,0,0,10.4,226.8,516.9)" />
<use xlink:href="#f1_1z" transform="matrix(10.4,0,0,10.4,235.7,516.9)" />
<use xlink:href="#f1_2i" transform="matrix(10.4,0,0,10.4,251.9,516.9)" />
<use xlink:href="#f1_23" transform="matrix(10.4,0,0,10.4,263.4,516.9)" />
<use xlink:href="#f1_2a" transform="matrix(10.4,0,0,10.4,272.3,516.9)" />
<use xlink:href="#f1_2e" transform="matrix(10.4,0,0,10.4,281.1,516.9)" />
<use xlink:href="#f1_20" transform="matrix(10.4,0,0,10.4,289.1,516.9)" />
<use xlink:href="#f1_1y" transform="matrix(10.4,0,0,10.4,305.1,516.9)" />
<use xlink:href="#f1_20" transform="matrix(10.4,0,0,10.4,313.1,516.9)" />
<use xlink:href="#f1_29" transform="matrix(10.4,0,0,10.4,322,516.9)" />
<use xlink:href="#f1_2f" transform="matrix(10.4,0,0,10.4,330.8,516.9)" />
<use xlink:href="#f1_2d" transform="matrix(10.4,0,0,10.4,335.3,516.9)" />
<use xlink:href="#f1_20" transform="matrix(10.4,0,0,10.4,340.6,516.9)" />
<use xlink:href="#f1_27" transform="matrix(10.4,0,0,10.4,356.8,516.9)" />
<use xlink:href="#f1_24" transform="matrix(10.4,0,0,10.4,360.3,516.9)" />
<use xlink:href="#f1_20" transform="matrix(10.4,0,0,10.4,363.9,516.9)" />
<use xlink:href="#f1_2a" transform="matrix(10.4,0,0,10.4,380.1,516.9)" />
<use xlink:href="#f1_29" transform="matrix(10.4,0,0,10.4,388.9,516.9)" />
<use xlink:href="#f2_2j" transform="matrix(10.4,0,0,10.4,404.1,516.9)" />
<use xlink:href="#f1_g" transform="matrix(10.4,0,0,10.4,412.1,516.9)" />
<use xlink:href="#f1_1w" transform="matrix(10.4,0,0,10.4,417.4,516.9)" />
<use xlink:href="#f1_2j" transform="matrix(10.4,0,0,10.4,426.3,516.9)" />
<use xlink:href="#f1_24" transform="matrix(10.4,0,0,10.4,434.3,516.9)" />
<use xlink:href="#f1_2e" transform="matrix(10.4,0,0,10.4,437.8,516.9)" />
<use xlink:href="#f1_h" transform="matrix(10.4,0,0,10.4,445.8,516.9)" />
<use xlink:href="#f1_b" transform="matrix(10.4,0,0,10.4,130.9,550.9)" />
<use xlink:href="#f1_24" transform="matrix(10.4,0,0,10.4,136.2,550.9)" />
<use xlink:href="#f1_2h" transform="matrix(10.4,0,0,10.4,139.7,550.9)" />
<use xlink:href="#f1_c" transform="matrix(10.4,0,0,10.4,147.7,550.9)" />
<use xlink:href="#f1_15" transform="matrix(10.4,0,0,10.4,171.6,550.9)" />
<use xlink:href="#f1_2a" transform="matrix(10.4,0,0,10.4,181.3,550.9)" />
<use xlink:href="#f1_2d" transform="matrix(10.4,0,0,10.4,190.2,550.9)" />
<use xlink:href="#f1_28" transform="matrix(10.4,0,0,10.4,195.5,550.9)" />
<use xlink:href="#f1_2f" transform="matrix(10.4,0,0,10.4,216.3,550.9)" />
<use xlink:href="#f1_23" transform="matrix(10.4,0,0,10.4,220.8,550.9)" />
<use xlink:href="#f1_20" transform="matrix(10.4,0,0,10.4,229.6,550.9)" />
<use xlink:href="#f1_1z" transform="matrix(10.4,0,0,10.4,245.8,550.9)" />
<use xlink:href="#f1_24" transform="matrix(10.4,0,0,10.4,254.7,550.9)" />
<use xlink:href="#f1_21" transform="matrix(10.4,0,0,10.4,258.2,550.9)" />
<use xlink:href="#f1_21" transform="matrix(10.4,0,0,10.4,262.7,550.9)" />
<use xlink:href="#f1_20" transform="matrix(10.4,0,0,10.4,267.1,550.9)" />
<use xlink:href="#f1_2d" transform="matrix(10.4,0,0,10.4,276,550.9)" />
<use xlink:href="#f1_20" transform="matrix(10.4,0,0,10.4,281.3,550.9)" />
<use xlink:href="#f1_29" transform="matrix(10.4,0,0,10.4,290.1,550.9)" />
<use xlink:href="#f1_2f" transform="matrix(10.4,0,0,10.4,299,550.9)" />
<use xlink:href="#f1_24" transform="matrix(10.4,0,0,10.4,303.5,550.9)" />
<use xlink:href="#f1_1w" transform="matrix(10.4,0,0,10.4,307,550.9)" />
<use xlink:href="#f1_27" transform="matrix(10.4,0,0,10.4,315.9,550.9)" />
<use xlink:href="#f1_20" transform="matrix(10.4,0,0,10.4,326.9,550.9)" />
<use xlink:href="#f1_2c" transform="matrix(10.4,0,0,10.4,335.8,550.9)" />
<use xlink:href="#f1_2g" transform="matrix(10.4,0,0,10.4,344.6,550.9)" />
<use xlink:href="#f1_1w" transform="matrix(10.4,0,0,10.4,353.5,550.9)" />
<use xlink:href="#f1_2f" transform="matrix(10.4,0,0,10.4,362.4,550.9)" />
<use xlink:href="#f1_24" transform="matrix(10.4,0,0,10.4,366.8,550.9)" />
<use xlink:href="#f1_2a" transform="matrix(10.4,0,0,10.4,370.4,550.9)" />
<use xlink:href="#f1_29" transform="matrix(10.4,0,0,10.4,379.2,550.9)" />
<use xlink:href="#f1_2a" transform="matrix(10.4,0,0,10.4,395.4,550.9)" />
<use xlink:href="#f1_21" transform="matrix(10.4,0,0,10.4,404.3,550.9)" />
<use xlink:href="#f1_2f" transform="matrix(10.4,0,0,10.4,416.2,550.9)" />
<use xlink:href="#f1_23" transform="matrix(10.4,0,0,10.4,420.7,550.9)" />
<use xlink:href="#f1_20" transform="matrix(10.4,0,0,10.4,429.6,550.9)" />
<use xlink:href="#f1_21" transform="matrix(10.4,0,0,10.4,445.8,550.9)" />
<use xlink:href="#f1_1w" transform="matrix(10.4,0,0,10.4,450.2,550.9)" />
<use xlink:href="#f1_28" transform="matrix(10.4,0,0,10.4,459.1,550.9)" />
<use xlink:href="#f1_24" transform="matrix(10.4,0,0,10.4,472.3,550.9)" />
<use xlink:href="#f1_27" transform="matrix(10.4,0,0,10.4,475.9,550.9)" />
<use xlink:href="#f1_2k" transform="matrix(10.4,0,0,10.4,479.4,550.9)" />
<use xlink:href="#f1_2a" transform="matrix(10.4,0,0,10.4,494.9,550.9)" />
<use xlink:href="#f1_21" transform="matrix(10.4,0,0,10.4,503.8,550.9)" />
<use xlink:href="#f1_1y" transform="matrix(10.4,0,0,10.4,515.6,550.9)" />
<use xlink:href="#f1_24" transform="matrix(10.4,0,0,10.4,523.5,550.9)" />
<use xlink:href="#f1_2d" transform="matrix(10.4,0,0,10.4,527.1,550.9)" />
<use xlink:href="#f1_1y" transform="matrix(10.4,0,0,10.4,532.4,550.9)" />
<use xlink:href="#f1_27" transform="matrix(10.4,0,0,10.4,540.4,550.9)" />
<use xlink:href="#f1_20" transform="matrix(10.4,0,0,10.4,543.9,550.9)" />
<use xlink:href="#f1_2e" transform="matrix(10.4,0,0,10.4,552.8,550.9)" />
<use xlink:href="#f1_24" transform="matrix(10.4,0,0,10.4,568.3,550.9)" />
<use xlink:href="#f1_29" transform="matrix(10.4,0,0,10.4,571.8,550.9)" />
<use xlink:href="#f1_2f" transform="matrix(10.4,0,0,10.4,588,550.9)" />
<use xlink:href="#f1_23" transform="matrix(10.4,0,0,10.4,592.4,550.9)" />
<use xlink:href="#f1_20" transform="matrix(10.4,0,0,10.4,601.3,550.9)" />
<use xlink:href="#f1_21" transform="matrix(10.4,0,0,10.4,617.7,550.9)" />
<use xlink:href="#f1_24" transform="matrix(10.4,0,0,10.4,622.1,550.9)" />
<use xlink:href="#f1_2d" transform="matrix(10.4,0,0,10.4,625.7,550.9)" />
<use xlink:href="#f1_2e" transform="matrix(10.4,0,0,10.4,631,550.9)" />
<use xlink:href="#f1_2f" transform="matrix(10.4,0,0,10.4,638.9,550.9)" />
<use xlink:href="#f1_2c" transform="matrix(10.4,0,0,10.4,171.6,571)" />
<use xlink:href="#f1_2g" transform="matrix(10.4,0,0,10.4,180.5,571)" />
<use xlink:href="#f1_1w" transform="matrix(10.4,0,0,10.4,189.3,571)" />
<use xlink:href="#f1_1z" transform="matrix(10.4,0,0,10.4,198.2,571)" />
<use xlink:href="#f1_2d" transform="matrix(10.4,0,0,10.4,207.1,571)" />
<use xlink:href="#f1_1w" transform="matrix(10.4,0,0,10.4,212.4,571)" />
<use xlink:href="#f1_29" transform="matrix(10.4,0,0,10.4,221.2,571)" />
<use xlink:href="#f1_2f" transform="matrix(10.4,0,0,10.4,230.1,571)" />
<use xlink:href="#f1_1w" transform="matrix(10.4,0,0,10.4,242.3,571)" />
<use xlink:href="#f1_29" transform="matrix(10.4,0,0,10.4,251.1,571)" />
<use xlink:href="#f1_1z" transform="matrix(10.4,0,0,10.4,260,571)" />
<use xlink:href="#f1_2f" transform="matrix(10.4,0,0,10.4,276.6,571)" />
<use xlink:href="#f1_2a" transform="matrix(10.4,0,0,10.4,281,571)" />
<use xlink:href="#f1_2g" transform="matrix(10.4,0,0,10.4,289.9,571)" />
<use xlink:href="#f1_1y" transform="matrix(10.4,0,0,10.4,298.7,571)" />
<use xlink:href="#f1_23" transform="matrix(10.4,0,0,10.4,306.7,571)" />
<use xlink:href="#f1_24" transform="matrix(10.4,0,0,10.4,315.6,571)" />
<use xlink:href="#f1_29" transform="matrix(10.4,0,0,10.4,319.1,571)" />
<use xlink:href="#f1_22" transform="matrix(10.4,0,0,10.4,328,571)" />
<use xlink:href="#f1_2f" transform="matrix(10.4,0,0,10.4,344.7,571)" />
<use xlink:href="#f1_23" transform="matrix(10.4,0,0,10.4,349.2,571)" />
<use xlink:href="#f1_20" transform="matrix(10.4,0,0,10.4,358,571)" />
<use xlink:href="#f1_1y" transform="matrix(10.4,0,0,10.4,374.6,571)" />
<use xlink:href="#f1_2a" transform="matrix(10.4,0,0,10.4,382.6,571)" />
<use xlink:href="#f1_2a" transform="matrix(10.4,0,0,10.4,391.4,571)" />
<use xlink:href="#f1_2d" transform="matrix(10.4,0,0,10.4,400.3,571)" />
<use xlink:href="#f1_1z" transform="matrix(10.4,0,0,10.4,405.6,571)" />
<use xlink:href="#f1_24" transform="matrix(10.4,0,0,10.4,414.5,571)" />
<use xlink:href="#f1_29" transform="matrix(10.4,0,0,10.4,418,571)" />
<use xlink:href="#f1_1w" transform="matrix(10.4,0,0,10.4,426.9,571)" />
<use xlink:href="#f1_2f" transform="matrix(10.4,0,0,10.4,435.8,571)" />
<use xlink:href="#f1_20" transform="matrix(10.4,0,0,10.4,440.2,571)" />
<use xlink:href="#f1_1w" transform="matrix(10.4,0,0,10.4,456.8,571)" />
<use xlink:href="#f1_2j" transform="matrix(10.4,0,0,10.4,465.6,571)" />
<use xlink:href="#f1_20" transform="matrix(10.4,0,0,10.4,473.6,571)" />
<use xlink:href="#f1_2e" transform="matrix(10.4,0,0,10.4,482.5,571)" />
<use xlink:href="#f1_h" transform="matrix(10.4,0,0,10.4,490.5,571)" />
<use xlink:href="#f1_k" transform="matrix(10.4,0,0,10.4,75.9,623.1)" />
<use xlink:href="#f1_j" transform="matrix(10.4,0,0,10.4,84.8,623.1)" />
<use xlink:href="#f1_h" transform="matrix(10.4,0,0,10.4,93.9,623.1)" />
<use xlink:href="#f1_1i" transform="matrix(10.4,0,0,10.4,116.6,623.1)" />
<use xlink:href="#f1_23" transform="matrix(10.4,0,0,10.4,127.2,623.1)" />
<use xlink:href="#f1_2a" transform="matrix(10.4,0,0,10.4,136.1,623.1)" />
<use xlink:href="#f1_2i" transform="matrix(10.4,0,0,10.4,145,623.1)" />
<use xlink:href="#f1_2f" transform="matrix(10.4,0,0,10.4,163.6,623.1)" />
<use xlink:href="#f1_23" transform="matrix(10.4,0,0,10.4,168.1,623.1)" />
<use xlink:href="#f1_1w" transform="matrix(10.4,0,0,10.4,176.9,623.1)" />
<use xlink:href="#f1_2f" transform="matrix(10.4,0,0,10.4,185.8,623.1)" />
<use xlink:href="#f1_2f" transform="matrix(10.4,0,0,10.4,197.4,623.1)" />
<use xlink:href="#f1_23" transform="matrix(10.4,0,0,10.4,201.8,623.1)" />
<use xlink:href="#f1_20" transform="matrix(10.4,0,0,10.4,210.7,623.1)" />
<use xlink:href="#f1_1z" transform="matrix(10.4,0,0,10.4,226.9,623.1)" />
<use xlink:href="#f1_24" transform="matrix(10.4,0,0,10.4,235.8,623.1)" />
<use xlink:href="#f1_21" transform="matrix(10.4,0,0,10.4,239.3,623.1)" />
<use xlink:href="#f1_21" transform="matrix(10.4,0,0,10.4,243.7,623.1)" />
<use xlink:href="#f1_20" transform="matrix(10.4,0,0,10.4,248.2,623.1)" />
<use xlink:href="#f1_2d" transform="matrix(10.4,0,0,10.4,257,623.1)" />
<use xlink:href="#f1_20" transform="matrix(10.4,0,0,10.4,262.3,623.1)" />
<use xlink:href="#f1_29" transform="matrix(10.4,0,0,10.4,271.2,623.1)" />
<use xlink:href="#f1_2f" transform="matrix(10.4,0,0,10.4,280.1,623.1)" />
<use xlink:href="#f1_24" transform="matrix(10.4,0,0,10.4,284.5,623.1)" />
<use xlink:href="#f1_1w" transform="matrix(10.4,0,0,10.4,288.1,623.1)" />
<use xlink:href="#f1_27" transform="matrix(10.4,0,0,10.4,296.9,623.1)" />
<use xlink:href="#f1_20" transform="matrix(10.4,0,0,10.4,307.6,623.1)" />
<use xlink:href="#f1_2c" transform="matrix(10.4,0,0,10.4,316.5,623.1)" />
<use xlink:href="#f1_2g" transform="matrix(10.4,0,0,10.4,325.3,623.1)" />
<use xlink:href="#f1_1w" transform="matrix(10.4,0,0,10.4,334.2,623.1)" />
<use xlink:href="#f1_2f" transform="matrix(10.4,0,0,10.4,343.1,623.1)" />
<use xlink:href="#f1_24" transform="matrix(10.4,0,0,10.4,347.5,623.1)" />
<use xlink:href="#f1_2a" transform="matrix(10.4,0,0,10.4,351.1,623.1)" />
<use xlink:href="#f1_29" transform="matrix(10.4,0,0,10.4,359.9,623.1)" />
</g>
<path d="M377.4,616h20m26.5,0h53.2" class="g7_83" />
<g fill="#000000" >
<use xlink:href="#f1_l" transform="matrix(10.6,0,0,10.6,457.1,609.8)" />
<use xlink:href="#f1_l" transform="matrix(10.6,0,0,10.6,457,636)" />
<use xlink:href="#f2_1z" transform="matrix(10.6,0,0,10.6,377.5,609.8)" />
<use xlink:href="#f2_2k" transform="matrix(10.6,0,0,10.6,386.7,609.8)" />
<use xlink:href="#f2_2j" transform="matrix(10.6,0,0,10.6,424.9,609.8)" />
<use xlink:href="#f2_2k" transform="matrix(10.6,0,0,10.6,466.4,609.8)" />
<use xlink:href="#f2_1z" transform="matrix(10.6,0,0,10.6,377.5,636)" />
<use xlink:href="#f2_2j" transform="matrix(10.6,0,0,10.6,386.7,636)" />
<use xlink:href="#f2_2j" transform="matrix(10.6,0,0,10.6,425,636)" />
<use xlink:href="#f2_2k" transform="matrix(10.6,0,0,10.6,466.2,636)" />
<use xlink:href="#f3_f" transform="matrix(10.6,0,0,10.6,441.5,609.8)" />
<use xlink:href="#f3_x" transform="matrix(10.6,0,0,10.6,406.3,620.3)" />
<use xlink:href="#f3_h" transform="matrix(10.6,0,0,10.6,441.6,636)" />
<use xlink:href="#f1_24" transform="matrix(10.4,0,0,10.4,488.2,623.1)" />
<use xlink:href="#f1_2e" transform="matrix(10.4,0,0,10.4,491.8,623.1)" />
<use xlink:href="#f1_23" transform="matrix(10.4,0,0,10.4,506.9,623.1)" />
<use xlink:href="#f1_2a" transform="matrix(10.4,0,0,10.4,515.7,623.1)" />
<use xlink:href="#f1_28" transform="matrix(10.4,0,0,10.4,524.6,623.1)" />
<use xlink:href="#f1_2a" transform="matrix(10.4,0,0,10.4,537.9,623.1)" />
<use xlink:href="#f1_22" transform="matrix(10.4,0,0,10.4,546.8,623.1)" />
<use xlink:href="#f1_20" transform="matrix(10.4,0,0,10.4,555.6,623.1)" />
<use xlink:href="#f1_29" transform="matrix(10.4,0,0,10.4,564.5,623.1)" />
<use xlink:href="#f1_20" transform="matrix(10.4,0,0,10.4,573.4,623.1)" />
<use xlink:href="#f1_2a" transform="matrix(10.4,0,0,10.4,582.2,623.1)" />
<use xlink:href="#f1_2g" transform="matrix(10.4,0,0,10.4,591.1,623.1)" />
<use xlink:href="#f1_2e" transform="matrix(10.4,0,0,10.4,600,623.1)" />
<use xlink:href="#f1_1w" transform="matrix(10.4,0,0,10.4,615.3,623.1)" />
<use xlink:href="#f1_29" transform="matrix(10.4,0,0,10.4,624.2,623.1)" />
<use xlink:href="#f1_1z" transform="matrix(10.4,0,0,10.4,633,623.1)" />
<use xlink:href="#f1_2e" transform="matrix(10.4,0,0,10.4,116.6,652.4)" />
<use xlink:href="#f1_2a" transform="matrix(10.4,0,0,10.4,124.6,652.4)" />
<use xlink:href="#f1_27" transform="matrix(10.4,0,0,10.4,133.4,652.4)" />
<use xlink:href="#f1_2h" transform="matrix(10.4,0,0,10.4,137,652.4)" />
<use xlink:href="#f1_20" transform="matrix(10.4,0,0,10.4,145,652.4)" />
<use xlink:href="#f1_24" transform="matrix(10.4,0,0,10.4,161.2,652.4)" />
<use xlink:href="#f1_2f" transform="matrix(10.4,0,0,10.4,164.7,652.4)" />
<use xlink:href="#f1_h" transform="matrix(10.4,0,0,10.4,169.1,652.4)" />
<use xlink:href="#f1_k" transform="matrix(10.4,0,0,10.4,75.9,686.3)" />
<use xlink:href="#f1_k" transform="matrix(10.4,0,0,10.4,84.8,686.3)" />
<use xlink:href="#f1_h" transform="matrix(10.4,0,0,10.4,93.9,686.3)" />
<use xlink:href="#f1_1i" transform="matrix(10.4,0,0,10.4,116.6,686.3)" />
<use xlink:href="#f1_23" transform="matrix(10.4,0,0,10.4,127.2,686.3)" />
<use xlink:href="#f1_2a" transform="matrix(10.4,0,0,10.4,136.1,686.3)" />
<use xlink:href="#f1_2i" transform="matrix(10.4,0,0,10.4,145,686.3)" />
<use xlink:href="#f1_2f" transform="matrix(10.4,0,0,10.4,164,686.3)" />
<use xlink:href="#f1_23" transform="matrix(10.4,0,0,10.4,168.4,686.3)" />
<use xlink:href="#f1_1w" transform="matrix(10.4,0,0,10.4,177.3,686.3)" />
<use xlink:href="#f1_2f" transform="matrix(10.4,0,0,10.4,186.2,686.3)" />
<use xlink:href="#f1_2f" transform="matrix(10.4,0,0,10.4,197.9,686.3)" />
<use xlink:href="#f1_23" transform="matrix(10.4,0,0,10.4,202.4,686.3)" />
<use xlink:href="#f1_20" transform="matrix(10.4,0,0,10.4,211.2,686.3)" />
<use xlink:href="#f1_1z" transform="matrix(10.4,0,0,10.4,227.6,686.3)" />
<use xlink:href="#f1_24" transform="matrix(10.4,0,0,10.4,236.5,686.3)" />
<use xlink:href="#f1_21" transform="matrix(10.4,0,0,10.4,240,686.3)" />
<use xlink:href="#f1_21" transform="matrix(10.4,0,0,10.4,244.5,686.3)" />
<use xlink:href="#f1_20" transform="matrix(10.4,0,0,10.4,248.9,686.3)" />
<use xlink:href="#f1_2d" transform="matrix(10.4,0,0,10.4,257.8,686.3)" />
<use xlink:href="#f1_20" transform="matrix(10.4,0,0,10.4,263.1,686.3)" />
<use xlink:href="#f1_29" transform="matrix(10.4,0,0,10.4,271.9,686.3)" />
<use xlink:href="#f1_2f" transform="matrix(10.4,0,0,10.4,280.8,686.3)" />
<use xlink:href="#f1_24" transform="matrix(10.4,0,0,10.4,285.2,686.3)" />
<use xlink:href="#f1_1w" transform="matrix(10.4,0,0,10.4,288.8,686.3)" />
<use xlink:href="#f1_27" transform="matrix(10.4,0,0,10.4,297.7,686.3)" />
<use xlink:href="#f1_20" transform="matrix(10.4,0,0,10.4,308.5,686.3)" />
<use xlink:href="#f1_2c" transform="matrix(10.4,0,0,10.4,317.4,686.3)" />
<use xlink:href="#f1_2g" transform="matrix(10.4,0,0,10.4,326.3,686.3)" />
<use xlink:href="#f1_1w" transform="matrix(10.4,0,0,10.4,335.1,686.3)" />
<use xlink:href="#f1_2f" transform="matrix(10.4,0,0,10.4,344,686.3)" />
<use xlink:href="#f1_24" transform="matrix(10.4,0,0,10.4,348.4,686.3)" />
<use xlink:href="#f1_2a" transform="matrix(10.4,0,0,10.4,352,686.3)" />
<use xlink:href="#f1_29" transform="matrix(10.4,0,0,10.4,360.9,686.3)" />
<use xlink:href="#f1_t" transform="matrix(10.4,0,0,10.4,377.2,686.3)" />
<use xlink:href="#f1_b" transform="matrix(10.4,0,0,10.4,116.6,720.3)" />
<use xlink:href="#f2_2j" transform="matrix(10.4,0,0,10.4,121.9,720.3)" />
<use xlink:href="#f1_l" transform="matrix(7.4,0,0,7.4,130,714.9)" />
<use xlink:href="#f1_e" transform="matrix(10.4,0,0,10.4,142.1,720.3)" />
<use xlink:href="#f1_l" transform="matrix(10.4,0,0,10.4,157.3,720.3)" />
<use xlink:href="#f2_2j" transform="matrix(10.4,0,0,10.4,166.1,720.3)" />
<use xlink:href="#f2_2k" transform="matrix(10.4,0,0,10.4,174.1,720.3)" />
<use xlink:href="#f1_99" transform="matrix(10.4,0,0,10.4,188.1,720.3)" />
<use xlink:href="#f2_2k" transform="matrix(10.4,0,0,10.4,202.9,720.3)" />
<use xlink:href="#f1_l" transform="matrix(7.4,0,0,7.4,211,714.9)" />
<use xlink:href="#f1_c" transform="matrix(10.4,0,0,10.4,217.2,720.3)" />
<use xlink:href="#f2_1z" transform="matrix(10.4,0,0,10.4,228.4,720.3)" />
<use xlink:href="#f2_2j" transform="matrix(10.4,0,0,10.4,237.3,720.3)" />
<use xlink:href="#f1_e" transform="matrix(10.4,0,0,10.4,251.2,720.3)" />
<use xlink:href="#f1_b" transform="matrix(10.4,0,0,10.4,266.5,720.3)" />
<use xlink:href="#f2_2k" transform="matrix(10.4,0,0,10.4,271.9,720.3)" />
<use xlink:href="#f1_l" transform="matrix(7.4,0,0,7.4,279.9,714.9)" />
<use xlink:href="#f1_e" transform="matrix(10.4,0,0,10.4,292,720.3)" />
<use xlink:href="#f1_l" transform="matrix(10.4,0,0,10.4,307.4,720.3)" />
<use xlink:href="#f2_2j" transform="matrix(10.4,0,0,10.4,316.2,720.3)" />
<use xlink:href="#f2_2k" transform="matrix(10.4,0,0,10.4,324.2,720.3)" />
<use xlink:href="#f1_99" transform="matrix(10.4,0,0,10.4,338.2,720.3)" />
<use xlink:href="#f2_2j" transform="matrix(10.4,0,0,10.4,352.9,720.3)" />
<use xlink:href="#f1_l" transform="matrix(7.4,0,0,7.4,361,714.9)" />
<use xlink:href="#f1_c" transform="matrix(10.4,0,0,10.4,367.2,720.3)" />
<use xlink:href="#f2_1z" transform="matrix(10.4,0,0,10.4,378.6,720.3)" />
<use xlink:href="#f2_2k" transform="matrix(10.4,0,0,10.4,387.4,720.3)" />
<use xlink:href="#f1_w" transform="matrix(10.4,0,0,10.4,401.3,720.3)" />
<use xlink:href="#f1_j" transform="matrix(10.4,0,0,10.4,416.7,720.3)" />
<use xlink:href="#f1_24" transform="matrix(10.4,0,0,10.4,431.4,720.3)" />
<use xlink:href="#f1_2e" transform="matrix(10.4,0,0,10.4,435,720.3)" />
<use xlink:href="#f1_23" transform="matrix(10.4,0,0,10.4,448.8,720.3)" />
<use xlink:href="#f1_2a" transform="matrix(10.4,0,0,10.4,457.7,720.3)" />
<use xlink:href="#f1_28" transform="matrix(10.4,0,0,10.4,466.5,720.3)" />
<use xlink:href="#f1_2a" transform="matrix(10.4,0,0,10.4,479.8,720.3)" />
<use xlink:href="#f1_22" transform="matrix(10.4,0,0,10.4,488.7,720.3)" />
<use xlink:href="#f1_20" transform="matrix(10.4,0,0,10.4,497.6,720.3)" />
<use xlink:href="#f1_29" transform="matrix(10.4,0,0,10.4,506.4,720.3)" />
<use xlink:href="#f1_20" transform="matrix(10.4,0,0,10.4,515.3,720.3)" />
<use xlink:href="#f1_2a" transform="matrix(10.4,0,0,10.4,524.2,720.3)" />
<use xlink:href="#f1_2g" transform="matrix(10.4,0,0,10.4,533,720.3)" />
<use xlink:href="#f1_2e" transform="matrix(10.4,0,0,10.4,541.9,720.3)" />
<use xlink:href="#f1_1w" transform="matrix(10.4,0,0,10.4,555.9,720.3)" />
<use xlink:href="#f1_29" transform="matrix(10.4,0,0,10.4,564.8,720.3)" />
<use xlink:href="#f1_1z" transform="matrix(10.4,0,0,10.4,573.7,720.3)" />
<use xlink:href="#f1_2e" transform="matrix(10.4,0,0,10.4,588.4,720.3)" />
<use xlink:href="#f1_2a" transform="matrix(10.4,0,0,10.4,596.4,720.3)" />
<use xlink:href="#f1_27" transform="matrix(10.4,0,0,10.4,605.2,720.3)" />
<use xlink:href="#f1_2h" transform="matrix(10.4,0,0,10.4,608.8,720.3)" />
<use xlink:href="#f1_20" transform="matrix(10.4,0,0,10.4,616.7,720.3)" />
<use xlink:href="#f1_24" transform="matrix(10.4,0,0,10.4,628.8,720.3)" />
<use xlink:href="#f1_2f" transform="matrix(10.4,0,0,10.4,632.4,720.3)" />
<use xlink:href="#f1_h" transform="matrix(10.4,0,0,10.4,636.8,720.3)" />
<use xlink:href="#f1_k" transform="matrix(10.4,0,0,10.4,75.9,754.2)" />
<use xlink:href="#f1_l" transform="matrix(10.4,0,0,10.4,84.8,754.2)" />
<use xlink:href="#f1_h" transform="matrix(10.4,0,0,10.4,93.9,754.2)" />
<use xlink:href="#f1_1i" transform="matrix(10.4,0,0,10.4,116.6,754.2)" />
<use xlink:href="#f1_2a" transform="matrix(10.4,0,0,10.4,127.2,754.2)" />
<use xlink:href="#f1_27" transform="matrix(10.4,0,0,10.4,136.1,754.2)" />
<use xlink:href="#f1_2h" transform="matrix(10.4,0,0,10.4,139.6,754.2)" />
<use xlink:href="#f1_20" transform="matrix(10.4,0,0,10.4,147.6,754.2)" />
<use xlink:href="#f1_2f" transform="matrix(10.4,0,0,10.4,164,754.2)" />
<use xlink:href="#f1_23" transform="matrix(10.4,0,0,10.4,168.4,754.2)" />
<use xlink:href="#f1_20" transform="matrix(10.4,0,0,10.4,177.3,754.2)" />
<use xlink:href="#f1_21" transform="matrix(10.4,0,0,10.4,193.7,754.2)" />
<use xlink:href="#f1_2a" transform="matrix(10.4,0,0,10.4,198.1,754.2)" />
<use xlink:href="#f1_27" transform="matrix(10.4,0,0,10.4,207,754.2)" />
<use xlink:href="#f1_27" transform="matrix(10.4,0,0,10.4,210.5,754.2)" />
<use xlink:href="#f1_2a" transform="matrix(10.4,0,0,10.4,214.1,754.2)" />
<use xlink:href="#f1_2i" transform="matrix(10.4,0,0,10.4,222.9,754.2)" />
<use xlink:href="#f1_24" transform="matrix(10.4,0,0,10.4,234.4,754.2)" />
<use xlink:href="#f1_29" transform="matrix(10.4,0,0,10.4,238,754.2)" />
<use xlink:href="#f1_22" transform="matrix(10.4,0,0,10.4,246.9,754.2)" />
<use xlink:href="#f1_1z" transform="matrix(10.4,0,0,10.4,263.4,754.2)" />
<use xlink:href="#f1_24" transform="matrix(10.4,0,0,10.4,272.3,754.2)" />
<use xlink:href="#f1_21" transform="matrix(10.4,0,0,10.4,275.8,754.2)" />
<use xlink:href="#f1_21" transform="matrix(10.4,0,0,10.4,280.3,754.2)" />
<use xlink:href="#f1_20" transform="matrix(10.4,0,0,10.4,284.7,754.2)" />
<use xlink:href="#f1_2d" transform="matrix(10.4,0,0,10.4,293.6,754.2)" />
<use xlink:href="#f1_20" transform="matrix(10.4,0,0,10.4,298.9,754.2)" />
<use xlink:href="#f1_29" transform="matrix(10.4,0,0,10.4,307.8,754.2)" />
<use xlink:href="#f1_2f" transform="matrix(10.4,0,0,10.4,316.6,754.2)" />
<use xlink:href="#f1_24" transform="matrix(10.4,0,0,10.4,321.1,754.2)" />
<use xlink:href="#f1_1w" transform="matrix(10.4,0,0,10.4,324.6,754.2)" />
<use xlink:href="#f1_27" transform="matrix(10.4,0,0,10.4,333.5,754.2)" />
<use xlink:href="#f1_20" transform="matrix(10.4,0,0,10.4,344.5,754.2)" />
<use xlink:href="#f1_2c" transform="matrix(10.4,0,0,10.4,353.4,754.2)" />
<use xlink:href="#f1_2g" transform="matrix(10.4,0,0,10.4,362.3,754.2)" />
<use xlink:href="#f1_1w" transform="matrix(10.4,0,0,10.4,371.1,754.2)" />
<use xlink:href="#f1_2f" transform="matrix(10.4,0,0,10.4,380,754.2)" />
<use xlink:href="#f1_24" transform="matrix(10.4,0,0,10.4,384.4,754.2)" />
<use xlink:href="#f1_2a" transform="matrix(10.4,0,0,10.4,388,754.2)" />
<use xlink:href="#f1_29" transform="matrix(10.4,0,0,10.4,396.8,754.2)" />
<use xlink:href="#f1_2e" transform="matrix(10.4,0,0,10.4,405.7,754.2)" />
<use xlink:href="#f1_t" transform="matrix(10.4,0,0,10.4,421.2,754.2)" />
<use xlink:href="#f1_b" transform="matrix(10.4,0,0,10.4,139.1,804.2)" />
<use xlink:href="#f1_24" transform="matrix(10.4,0,0,10.4,144.5,804.2)" />
<use xlink:href="#f1_c" transform="matrix(10.4,0,0,10.4,148,804.2)" />
</g>
<path d="M174.6,800.1h20.1" class="g3_83" />
<g fill="#000000" >
<use xlink:href="#f1_l" transform="matrix(10.5,0,0,10.5,217.4,804.4)" />
<use xlink:href="#f1_1y" transform="matrix(10.5,0,0,10.5,262.3,804.4)" />
<use xlink:href="#f1_2a" transform="matrix(10.5,0,0,10.5,270.7,804.4)" />
<use xlink:href="#f1_2e" transform="matrix(10.5,0,0,10.5,280,804.4)" />
<use xlink:href="#f1_m" transform="matrix(10.5,0,0,10.5,292.2,804.4)" />
<use xlink:href="#f1_h" transform="matrix(10.5,0,0,10.5,311,804.4)" />
<use xlink:href="#f2_1z" transform="matrix(10.5,0,0,10.5,174.6,793.9)" />
<use xlink:href="#f2_2k" transform="matrix(10.5,0,0,10.5,183.9,793.9)" />
<use xlink:href="#f2_2k" transform="matrix(10.5,0,0,10.5,226.7,804.4)" />
<use xlink:href="#f2_2j" transform="matrix(10.5,0,0,10.5,301.4,804.4)" />
<use xlink:href="#f2_1z" transform="matrix(10.5,0,0,10.5,174.6,819.9)" />
<use xlink:href="#f2_2j" transform="matrix(10.5,0,0,10.5,183.9,819.9)" />
<use xlink:href="#f3_h" transform="matrix(10.5,0,0,10.5,201.9,804.4)" />
<use xlink:href="#f3_x" transform="matrix(10.5,0,0,10.5,245.1,804.4)" />
<use xlink:href="#f1_b" transform="matrix(10.4,0,0,10.4,135.5,864.2)" />
<use xlink:href="#f1_24" transform="matrix(10.4,0,0,10.4,140.8,864.2)" />
<use xlink:href="#f1_24" transform="matrix(10.4,0,0,10.4,144.3,864.2)" />
<use xlink:href="#f1_c" transform="matrix(10.4,0,0,10.4,147.9,864.2)" />
</g>
<path d="M213.9,858.2H234" class="g8_83" />
<g fill="#000000" >
<use xlink:href="#f1_l" transform="matrix(7.9,0,0,7.9,371.1,852.9)" />
<use xlink:href="#f1_2e" transform="matrix(10.5,0,0,10.5,174.2,862.5)" />
<use xlink:href="#f1_24" transform="matrix(10.5,0,0,10.5,182.5,862.5)" />
<use xlink:href="#f1_29" transform="matrix(10.5,0,0,10.5,186.3,862.5)" />
<use xlink:href="#f1_1y" transform="matrix(10.5,0,0,10.5,271.6,862.5)" />
<use xlink:href="#f1_2a" transform="matrix(10.5,0,0,10.5,280,862.5)" />
<use xlink:href="#f1_2e" transform="matrix(10.5,0,0,10.5,289.3,862.5)" />
<use xlink:href="#f1_l" transform="matrix(10.5,0,0,10.5,337.4,862.5)" />
<use xlink:href="#f1_2e" transform="matrix(10.5,0,0,10.5,350.1,862.5)" />
<use xlink:href="#f1_24" transform="matrix(10.5,0,0,10.5,358.4,862.5)" />
<use xlink:href="#f1_29" transform="matrix(10.5,0,0,10.5,362.2,862.5)" />
<use xlink:href="#f1_1y" transform="matrix(10.5,0,0,10.5,398,862.5)" />
<use xlink:href="#f1_2a" transform="matrix(10.5,0,0,10.5,406.3,862.5)" />
<use xlink:href="#f1_2e" transform="matrix(10.5,0,0,10.5,415.7,862.5)" />
<use xlink:href="#f2_1z" transform="matrix(10.5,0,0,10.5,213.9,852.1)" />
<use xlink:href="#f2_2k" transform="matrix(10.5,0,0,10.5,223.2,852.1)" />
<use xlink:href="#f2_2j" transform="matrix(10.5,0,0,10.5,199.2,862.5)" />
<use xlink:href="#f2_2k" transform="matrix(10.5,0,0,10.5,257.4,862.5)" />
<use xlink:href="#f2_2j" transform="matrix(10.5,0,0,10.5,301.7,862.5)" />
<use xlink:href="#f2_2j" transform="matrix(10.5,0,0,10.5,383.8,862.5)" />
<use xlink:href="#f2_2j" transform="matrix(10.5,0,0,10.5,428.1,862.5)" />
<use xlink:href="#f2_1z" transform="matrix(10.5,0,0,10.5,213.9,878.1)" />
<use xlink:href="#f2_2j" transform="matrix(10.5,0,0,10.5,223.2,878.1)" />
<use xlink:href="#f3_f" transform="matrix(10.5,0,0,10.5,241.2,862.5)" />
<use xlink:href="#f3_x" transform="matrix(10.5,0,0,10.5,320.2,862.5)" />
<use xlink:href="#f1_24" transform="matrix(10.4,0,0,10.4,447.5,864.2)" />
<use xlink:href="#f1_21" transform="matrix(10.4,0,0,10.4,451.1,864.2)" />
</g>
<path d="M488.6,859.2h10.8" class="g9_83" />
<g fill="#000000" >
<use xlink:href="#f1_k" transform="matrix(10.6,0,0,10.6,533.7,864)" />
<use xlink:href="#f1_l" transform="matrix(10.6,0,0,10.6,489.7,879.1)" />
<use xlink:href="#f2_2k" transform="matrix(10.6,0,0,10.6,464.9,864)" />
<use xlink:href="#f3_2c" transform="matrix(10.6,0,0,10.6,489.7,853)" />
<use xlink:href="#f3_4o" transform="matrix(10.6,0,0,10.6,478.9,854.1)" />
<use xlink:href="#f3_54" transform="matrix(10.6,0,0,10.6,501.2,854.1)" />
<use xlink:href="#f3_x" transform="matrix(10.6,0,0,10.6,517.4,864)" />
<use xlink:href="#f3_4p" transform="matrix(10.6,0,0,10.6,478.9,868.8)" />
<use xlink:href="#f3_55" transform="matrix(10.6,0,0,10.6,501.2,868.8)" />
<use xlink:href="#f3_4q" transform="matrix(10.6,0,0,10.6,478.9,875.4)" />
<use xlink:href="#f3_56" transform="matrix(10.6,0,0,10.6,501.2,875.4)" />
<use xlink:href="#f1_b" transform="matrix(10.4,0,0,10.4,132,914.2)" />
<use xlink:href="#f1_24" transform="matrix(10.4,0,0,10.4,137.3,914.2)" />
<use xlink:href="#f1_24" transform="matrix(10.4,0,0,10.4,140.8,914.2)" />
<use xlink:href="#f1_24" transform="matrix(10.4,0,0,10.4,144.4,914.2)" />
<use xlink:href="#f1_c" transform="matrix(10.4,0,0,10.4,147.9,914.2)" />
<use xlink:href="#f3_c" transform="matrix(10.5,0,0,16.3,287.4,913.9)" />
<use xlink:href="#f3_d" transform="matrix(10.5,0,0,16.3,342.1,913.9)" />
<use xlink:href="#f1_l" transform="matrix(7.9,0,0,7.9,377.7,907.6)" />
<use xlink:href="#f1_m" transform="matrix(10.5,0,0,10.5,174,917.2)" />
<use xlink:href="#f1_2f" transform="matrix(10.5,0,0,10.5,206.2,917.2)" />
<use xlink:href="#f1_1w" transform="matrix(10.5,0,0,10.5,211,917.2)" />
<use xlink:href="#f1_29" transform="matrix(10.5,0,0,10.5,220.3,917.2)" />
<use xlink:href="#f1_k" transform="matrix(10.5,0,0,10.5,293.5,917.2)" />
<use xlink:href="#f1_2e" transform="matrix(10.5,0,0,10.5,351.4,917.2)" />
<use xlink:href="#f1_20" transform="matrix(10.5,0,0,10.5,359.7,917.2)" />
<use xlink:href="#f1_1y" transform="matrix(10.5,0,0,10.5,369,917.2)" />
<use xlink:href="#f1_j" transform="matrix(10.5,0,0,10.5,448.9,917.2)" />
<use xlink:href="#f3_f" transform="matrix(10.5,0,0,10.5,272.3,917.2)" />
<use xlink:href="#f3_h" transform="matrix(10.5,0,0,10.5,306.4,917.2)" />
<use xlink:href="#f3_x" transform="matrix(10.5,0,0,10.5,431.7,917.2)" />
<use xlink:href="#f2_2j" transform="matrix(7.9,0,0,7.9,192.6,907.6)" />
<use xlink:href="#f2_2j" transform="matrix(7.9,0,0,7.9,331.5,907.6)" />
<use xlink:href="#f2_20" transform="matrix(10.5,0,0,10.5,182.3,917.2)" />
<use xlink:href="#f2_2k" transform="matrix(10.5,0,0,10.5,233,917.2)" />
<use xlink:href="#f2_1z" transform="matrix(10.5,0,0,10.5,246.4,917.2)" />
<use xlink:href="#f2_2j" transform="matrix(10.5,0,0,10.5,255.8,917.2)" />
<use xlink:href="#f2_20" transform="matrix(10.5,0,0,10.5,321.1,917.2)" />
<use xlink:href="#f2_2k" transform="matrix(10.5,0,0,10.5,390.4,917.2)" />
<use xlink:href="#f2_1z" transform="matrix(10.5,0,0,10.5,403.9,917.2)" />
<use xlink:href="#f2_2k" transform="matrix(10.5,0,0,10.5,413.2,917.2)" />
<use xlink:href="#f4_p" transform="matrix(12,0,0,12,673.3,1070.2)" />
</g>
<g fill="#0080FF" fill-opacity="0.5" >
<use xlink:href="#f0_1c" transform="matrix(38.3,0,0,38.3,183.6,1079.4)" />
<use xlink:href="#f0_21" transform="matrix(38.3,0,0,38.3,216.1,1079.4)" />
<use xlink:href="#f0_1x" transform="matrix(38.3,0,0,38.3,248.6,1079.4)" />
<use xlink:href="#f0_2e" transform="matrix(38.3,0,0,38.3,281.1,1079.4)" />
<use xlink:href="#f0_2a" transform="matrix(38.3,0,0,38.3,300.6,1079.4)" />
<use xlink:href="#f0_17" transform="matrix(38.3,0,0,38.3,333.1,1079.4)" />
<use xlink:href="#f0_2h" transform="matrix(38.3,0,0,38.3,378.6,1079.4)" />
<use xlink:href="#f0_25" transform="matrix(38.3,0,0,38.3,411.1,1079.4)" />
<use xlink:href="#f0_20" transform="matrix(38.3,0,0,38.3,424,1079.4)" />
<use xlink:href="#f0_21" transform="matrix(38.3,0,0,38.3,456.5,1079.4)" />
<use xlink:href="#f0_i" transform="matrix(38.3,0,0,38.3,489.1,1079.4)" />
<use xlink:href="#f0_25" transform="matrix(38.3,0,0,38.3,505.3,1079.4)" />
<use xlink:href="#f0_2a" transform="matrix(38.3,0,0,38.3,518.3,1079.4)" />
</g>
<defs>
<path d="M593,101c0,0,182,0,279,112c0,0,98,113,98,318c0,0,0,196,-98,308c0,0,-98,112,-277,112c0,0,-181,0,-279,-110c0,0,-99,-111,-99,-310c0,0,0,-198,100,-314c0,0,99,-116,276,-116Zm0,-115c0,0,-162,0,-279,65c0,0,-118,66,-180,190c0,0,-62,124,-62,290c0,0,0,252,138,394c0,0,138,142,385,142c0,0,160,0,278,-64c0,0,118,-64,180,-185c0,0,62,-122,62,-287c0,0,0,-165,-63,-289c0,0,-63,-124,-181,-190c0,0,-118,-66,-278,-66Z" 
id="f0_1f"
transform="scale(0.001,-0.001)" />

<path d="M106,0V635c0,0,0,141,-5,173H228c0,0,1,-4,2,-21c0,0,1,-16,2,-37c0,0,1,-22,2,-81h2c0,0,47,84,108,119c0,0,60,34,151,34c0,0,132,0,194,-66c0,0,61,-66,61,-218V0H615V512c0,0,0,80,-15,124c0,0,-16,44,-50,63c0,0,-35,20,-101,20c0,0,-97,0,-153,-67c0,0,-56,-66,-56,-184V0Z" 
id="f0_2a"
transform="scale(0.001,-0.001)" />

<path d="M103,0V1107H237V0Z" 
id="f0_28"
transform="scale(0.001,-0.001)" />

<path d="M102,0V808H236V0Zm0,979v128H236V979Z" 
id="f0_25"
transform="scale(0.001,-0.001)" />

<path d="M643,478c0,0,-11,128,-65,187c0,0,-54,59,-154,59c0,0,-98,0,-155,-66c0,0,-57,-65,-62,-180ZM431,-14c0,0,-179,0,-272,106c0,0,-94,107,-94,317c0,0,0,200,94,307c0,0,93,106,267,106c0,0,356,0,356,-429V375H206c0,0,0,-138,57,-213c0,0,58,-75,168,-75c0,0,87,0,140,35c0,0,53,35,71,88L760,177c0,0,-72,-191,-329,-191Z" 
id="f0_21"
transform="scale(0.001,-0.001)" />

<path d="M17,0L304,415L31,808H179L380,493L580,808H730L457,417L747,0H598L380,331L162,0Z" 
id="f0_2k"
transform="scale(0.001,-0.001)" />

<path d="M339,87c0,0,74,0,132,34c0,0,57,33,90,91c0,0,34,59,34,121v66L448,396c0,0,-95,-2,-144,-19c0,0,-49,-18,-75,-55c0,0,-26,-38,-26,-98c0,0,0,-65,35,-101c0,0,36,-36,101,-36ZM309,-14c0,0,-122,0,-183,64c0,0,-61,64,-61,176c0,0,0,125,82,192c0,0,83,67,266,72l182,3v44c0,0,0,98,-42,141c0,0,-42,43,-132,43c0,0,-90,0,-131,-31c0,0,-41,-31,-49,-98L101,604c0,0,34,218,323,218c0,0,153,0,229,-70c0,0,77,-69,77,-202V202c0,0,0,-59,16,-90c0,0,16,-30,60,-30c0,0,19,0,44,5V4C850,4,799,-7,746,-7c0,0,-75,0,-109,38c0,0,-33,40,-38,124h-4C595,155,543,62,475,24c0,0,-68,-38,-166,-38Z" 
id="f0_1x"
transform="scale(0.001,-0.001)" />

<path d="M106,0V635c0,0,0,141,-5,173H228c0,0,1,-4,2,-21c0,0,1,-16,2,-37c0,0,1,-22,2,-81h2c0,0,44,86,100,120c0,0,56,33,136,33c0,0,92,0,145,-36c0,0,54,-37,75,-117h2c0,0,42,82,101,117c0,0,59,36,143,36c0,0,123,0,178,-66c0,0,56,-67,56,-218V0H1039V512c0,0,0,117,-32,162c0,0,-32,45,-116,45c0,0,-88,0,-136,-66c0,0,-49,-65,-49,-185V0H573V512c0,0,0,117,-32,162c0,0,-32,45,-116,45c0,0,-86,0,-136,-66c0,0,-50,-66,-50,-185V0Z" 
id="f0_29"
transform="scale(0.001,-0.001)" />

<path d="M453,84c0,0,100,0,146,74c0,0,46,73,46,247c0,0,0,169,-46,241c0,0,-45,73,-145,73c0,0,-80,0,-125,-34c0,0,-45,-34,-68,-105c0,0,-24,-71,-24,-186c0,0,0,-159,51,-234c0,0,51,-76,165,-76ZM103,-316V643c0,0,0,124,-5,165H228c0,0,1,-3,3,-22c0,0,1,-18,3,-56c0,0,2,-38,2,-52h3c0,0,36,75,94,110c0,0,59,34,156,34c0,0,149,0,223,-100c0,0,74,-100,74,-314c0,0,0,-422,-297,-422c0,0,-187,0,-251,140h-4c0,0,3,-6,3,-126V-316Z" 
id="f0_2c"
transform="scale(0.001,-0.001)" />

<path d="M420,84c0,0,121,0,173,78c0,0,52,77,52,243c0,0,0,167,-50,243c0,0,-50,76,-167,76c0,0,-118,0,-170,-78c0,0,-53,-77,-53,-241c0,0,0,-160,52,-241c0,0,52,-80,163,-80Zm1,-98c0,0,-176,0,-267,107c0,0,-90,108,-90,312c0,0,0,417,362,417c0,0,185,0,272,-102c0,0,88,-101,88,-315c0,0,0,-212,-94,-316C692,89,599,-14,421,-14Z" 
id="f0_2b"
transform="scale(0.001,-0.001)" />

<path d="M278,-11c0,0,-162,0,-162,182V710H23v98h99l39,181h90V808H400V710H251V200c0,0,0,-58,19,-82c0,0,19,-23,66,-23c0,0,27,0,77,10V6c0,0,-66,-17,-135,-17Z" 
id="f0_2g"
transform="scale(0.001,-0.001)" />

<path d="M365,-315c0,0,-136,187,-199,359c0,0,-62,172,-62,359c0,0,0,186,62,358c0,0,63,172,199,360h92c0,0,-110,-192,-160,-365c0,0,-51,-172,-51,-353c0,0,0,-183,51,-355c0,0,50,-172,160,-363Z" 
id="f1_b"
transform="scale(0.001,-0.001)" />

<path d="M104,0V799H238V0Zm-2,946v152H239V946Z" 
id="f1_24"
transform="scale(0.001,-0.001)" />

<path d="M310,0L12,799H168L383,145L604,799H752L454,0Z" 
id="f1_2h"
transform="scale(0.001,-0.001)" />

<path d="M52,-315c0,0,109,192,160,363c0,0,50,173,50,354c0,0,0,183,-50,355c0,0,-51,173,-160,364h92c0,0,135,-188,198,-360c0,0,63,-172,63,-359c0,0,0,-187,-63,-359c0,0,-63,-171,-198,-358Z" 
id="f1_c"
transform="scale(0.001,-0.001)" />

<path d="M393,-20c0,0,-169,0,-252,65c0,0,-83,67,-92,210H178c0,0,10,-85,61,-123c0,0,50,-38,154,-38c0,0,90,0,136,34c0,0,47,35,47,100c0,0,0,42,-31,64c0,0,-30,21,-123,43L283,368c0,0,-112,27,-160,75c0,0,-48,48,-48,135c0,0,0,112,80,178c0,0,81,66,218,66c0,0,140,0,222,-68c0,0,82,-67,88,-187H557c0,0,-6,67,-55,103c0,0,-48,37,-129,37c0,0,-84,0,-127,-29c0,0,-44,-29,-44,-85c0,0,0,-43,31,-65c0,0,30,-21,121,-43L493,452c0,0,117,-28,167,-78c0,0,49,-49,49,-138c0,0,0,-119,-86,-188c0,0,-85,-68,-230,-68Z" 
id="f1_2e"
transform="scale(0.001,-0.001)" />

<path d="M99,0V799H226V681l30,39c0,0,87,102,219,102c0,0,132,0,203,-71c0,0,72,-72,72,-204V0H616V502c0,0,0,105,-41,151c0,0,-40,47,-132,47c0,0,-97,0,-154,-73c0,0,-56,-74,-56,-199V0Z" 
id="f1_29"
transform="scale(0.001,-0.001)" />

<path d="M133,0V162H292V0Z" 
id="f1_h"
transform="scale(0.001,-0.001)" />

<path d="M17,0L389,412L201,800H376L500,518L742,800H904L554,410L750,0H580L448,303L187,0Z" 
id="f2_2j"
transform="scale(0.001,-0.001)" />

<path d="M99,-328c0,0,-46,0,-76,13l25,123c0,0,29,-14,81,-14c0,0,47,0,76,31c0,0,28,31,106,162L185,800H339L415,141L769,800H918L456,0C456,0,329,-216,269,-272c0,0,-61,-56,-170,-56Z" 
id="f2_2k"
transform="scale(0.001,-0.001)" />

<path d="M431,94c0,0,95,0,170,76c0,0,76,77,101,198c0,0,35,167,-1,250c0,0,-37,84,-144,84c0,0,-128,0,-210,-117c0,0,-81,-117,-81,-302c0,0,0,-90,43,-139c0,0,44,-50,122,-50ZM400,-20c0,0,-126,0,-199,79c0,0,-73,80,-73,219c0,0,0,234,122,390c0,0,122,155,305,155c0,0,144,0,209,-127l8,-16l86,417H993L767,0H638l22,108L642,90C642,90,532,-20,400,-20Z" 
id="f2_1z"
transform="scale(0.001,-0.001)" />

<path d="M62,-123V268c0,0,0,230,56,452c0,0,47,190,134,334c0,0,87,144,204,242c0,0,85,73,194,119l18,-16c0,0,-211,-145,-335,-339c0,0,-98,-156,-149,-374c0,0,-50,-218,-50,-403V-123Z" 
id="f3_4o"
transform="scale(0.001,-0.001)" />

<path d="M617,-123V283c0,0,0,236,-63,459c0,0,-63,223,-188,392c0,0,-108,146,-282,265l17,16c0,0,180,-76,320,-248c0,0,139,-172,204,-417c0,0,64,-245,64,-482V-123Z" 
id="f3_54"
transform="scale(0.001,-0.001)" />

<path d="M0,214v74H784V214ZM0,494v72H784V494Z" 
id="f3_x"
transform="scale(0.001,-0.001)" />

<path d="M0,356v74H784V356Z" 
id="f3_h"
transform="scale(0.001,-0.001)" />

<path d="M62,-123V1415h72V-123Z" 
id="f3_4p"
transform="scale(0.001,-0.001)" />

<path d="M617,-123V1415h72V-123Z" 
id="f3_55"
transform="scale(0.001,-0.001)" />

<path d="M650,-123c0,0,-180,75,-319,246c0,0,-140,172,-205,418c0,0,-64,245,-64,481v393h72V1007c0,0,0,-236,63,-459c0,0,63,-223,189,-391c0,0,108,-145,282,-265l-18,-15Z" 
id="f3_4q"
transform="scale(0.001,-0.001)" />

<path d="M101,-123l-17,15c0,0,210,144,334,339c0,0,99,156,149,373c0,0,50,218,50,403v408h72V1022c0,0,0,-230,-56,-451c0,0,-48,-191,-134,-335C499,236,412,92,295,-5c0,0,-84,-73,-194,-118Z" 
id="f3_56"
transform="scale(0.001,-0.001)" />

<path d="M292,-9c0,0,-88,0,-124,38c0,0,-36,39,-36,134V689H22V799H132v224H266V799H392V689H266V163c0,0,0,-27,21,-43c0,0,21,-15,57,-15h48V1C392,1,324,-9,292,-9Z" 
id="f1_2f"
transform="scale(0.001,-0.001)" />

<path d="M335,90c0,0,106,0,179,57c0,0,50,41,67,91c0,0,3,10,4,31c0,0,3,21,3,47v87c0,0,-38,-18,-83,-25L381,360c0,0,-97,-13,-142,-45c0,0,-44,-31,-44,-86c0,0,0,-67,36,-103c0,0,37,-36,104,-36ZM309,-20c0,0,-117,0,-186,61c0,0,-68,63,-68,169c0,0,0,108,64,171c0,0,65,64,189,79l183,23c0,0,22,3,42,8c0,0,26,7,40,27c0,0,15,20,15,51v6c0,0,0,64,-49,101c0,0,-48,36,-135,36c0,0,-83,0,-130,-38c0,0,-46,-39,-56,-115H94c0,0,10,131,92,197c0,0,83,66,238,66c0,0,145,0,222,-63c0,0,76,-63,76,-184V137c0,0,0,-21,12,-33c0,0,12,-12,33,-12c0,0,6,0,18,1c0,0,11,2,25,5V1c0,0,-20,-7,-41,-11c0,0,-22,-5,-37,-5c0,0,-76,0,-110,41c0,0,-22,28,-32,79c0,0,-15,-19,-34,-36c0,0,-101,-89,-247,-89Z" 
id="f1_1w"
transform="scale(0.001,-0.001)" />

<path d="M355,0V355H0v72H355V784h72V427H782V355H427V0Z" 
id="f3_f"
transform="scale(0.001,-0.001)" />

<path d="M39,0V0c0,0,0,170,84,277c0,0,85,108,317,236c0,0,113,62,154,115c0,0,41,52,41,134c0,0,0,86,-62,141c0,0,-61,54,-156,54c0,0,-101,0,-158,-68c0,0,-57,-68,-60,-194H67c0,0,-2,178,95,279c0,0,98,101,273,101c0,0,149,0,245,-89c0,0,94,-88,94,-228c0,0,0,-118,-60,-195c0,0,-61,-76,-229,-169C485,394,303,294,237,212c0,0,-28,-36,-46,-81H774V0Z" 
id="f1_l"
transform="scale(0.001,-0.001)" />

<path d="M748,462c0,0,3,31,3,63c0,0,0,86,-45,132c0,0,-46,45,-134,45c0,0,-100,0,-180,-85c0,0,-58,-63,-90,-155ZM419,-20c0,0,-136,0,-213,73c0,0,-77,74,-78,206c0,0,0,25,4,58c0,0,4,32,10,63c0,0,44,208,169,326c0,0,125,117,305,117c0,0,128,0,198,-73c0,0,71,-73,71,-207c0,0,1,-100,-24,-189H278l-4,-25c0,0,-3,-30,-3,-55c0,0,0,-90,44,-134c0,0,44,-45,133,-45c0,0,87,0,156,44c0,0,68,45,95,117H830C830,256,782,126,674,52c0,0,-108,-72,-255,-72Z" 
id="f2_20"
transform="scale(0.001,-0.001)" />

<path d="M406,0V763H155V870h2c16,0,114,2,178,48c0,0,70,51,104,157H549V0Z" 
id="f1_k"
transform="scale(0.001,-0.001)" />

<path d="M0,368V478H849V368Z" 
id="f1_99"
transform="scale(0.001,-0.001)" />

<path d="M17,0L301,412L32,799H205L389,514L574,799H740L471,410L749,0H581L382,305L186,0Z" 
id="f1_2j"
transform="scale(0.001,-0.001)" />

<path d="M412,-328c0,0,-195,96,-303,284C109,-44,0,142,0,365c0,0,0,232,114,422c0,0,114,191,298,273v-31c0,0,-92,-51,-151,-139c0,0,-59,-88,-88,-223c0,0,-29,-136,-29,-282c0,0,0,-167,27,-301c0,0,26,-133,82,-221c0,0,55,-89,159,-159v-32Z" 
id="f3_c"
transform="scale(0.001,-0.001)" />

<path d="M34,-328v32c0,0,92,50,151,138c0,0,59,88,88,222c0,0,29,135,29,283c0,0,0,165,-27,300c0,0,-26,134,-82,222c0,0,-56,89,-159,160v31c0,0,194,-96,303,-284c0,0,108,-187,108,-410c0,0,0,-232,-114,-422c0,0,-114,-191,-297,-272Z" 
id="f3_d"
transform="scale(0.001,-0.001)" />

<path d="M424,-28c0,0,-180,0,-272,86c0,0,-92,87,-100,266H192c0,0,12,-126,66,-180c0,0,55,-54,170,-54c0,0,100,0,163,57c0,0,64,57,64,147c0,0,0,94,-61,149c0,0,-52,48,-135,54c0,0,-38,2,-72,2c0,0,-34,0,-45,-3V613c0,0,17,-3,51,-3c0,0,35,0,68,4c0,0,66,8,106,43c0,0,55,45,55,125c0,0,0,77,-58,125c0,0,-58,48,-148,48c0,0,-96,0,-147,-58c0,0,-51,-59,-56,-175H82c0,0,0,168,89,260c0,0,88,93,250,93c0,0,153,0,247,-77c0,0,94,-76,94,-202c0,0,0,-124,-95,-201c0,0,-18,-15,-39,-27c0,0,39,-17,69,-41c0,0,101,-79,101,-214c0,0,0,-151,-105,-246c0,0,-104,-95,-269,-95Z" 
id="f1_m"
transform="scale(0.001,-0.001)" />

<path d="M424,92c0,0,114,0,170,107c0,0,57,108,56,323c0,0,1,216,-56,324c0,0,-56,107,-170,107c0,0,-112,0,-168,-107c0,0,-56,-108,-57,-324c0,0,1,-215,57,-323c0,0,56,-107,168,-107Zm0,-120c0,0,-176,0,-271,142c0,0,-96,143,-96,408c0,0,0,265,96,409c0,0,95,144,271,144c0,0,178,0,273,-144c0,0,96,-144,96,-409c0,0,0,-265,-96,-408c0,0,-95,-142,-273,-142Z" 
id="f1_j"
transform="scale(0.001,-0.001)" />

<path d="M419,483c0,0,93,0,152,66c0,0,59,66,59,169c0,0,0,103,-59,169c0,0,-59,65,-152,65c0,0,-94,0,-153,-65c0,0,-59,-66,-59,-169c0,0,0,-103,59,-169c0,0,59,-66,153,-66ZM397,-28c0,0,-143,0,-227,75c0,0,-85,77,-91,211H209c0,0,8,-83,57,-128c0,0,49,-45,131,-45c0,0,121,0,186,135c0,0,48,101,62,265C645,485,545,362,397,362c0,0,-150,0,-241,98c0,0,-91,98,-91,258c0,0,0,160,99,258c0,0,99,98,262,98c0,0,173,0,266,-123c0,0,94,-123,94,-349c0,0,0,-303,-101,-467C685,135,583,-28,397,-28Z" 
id="f1_s"
transform="scale(0.001,-0.001)" />

<path d="M131,0V1097H891V966H280V631H814V500H280V0Z" 
id="f1_15"
transform="scale(0.001,-0.001)" />

<path d="M424,94c0,0,107,0,169,83c0,0,63,83,63,223c0,0,0,140,-63,224c0,0,-62,83,-169,83c0,0,-106,0,-168,-83c0,0,-62,-84,-62,-224c0,0,0,-140,62,-223c0,0,62,-83,168,-83Zm0,-114c0,0,-165,0,-268,115C156,95,54,211,54,400c0,0,0,189,102,306c0,0,103,116,268,116c0,0,168,0,270,-116c0,0,102,-117,102,-306c0,0,0,-189,-102,-305C694,95,592,-20,424,-20Z" 
id="f1_2a"
transform="scale(0.001,-0.001)" />

<path d="M118,0V799H246V662c0,0,17,32,36,58c0,0,76,102,187,102c0,0,19,0,38,-6V679l-27,1c0,0,-109,0,-168,-66c0,0,-60,-65,-60,-186V0Z" 
id="f1_2d"
transform="scale(0.001,-0.001)" />

<path d="M99,0V799H226V680l28,36c0,0,90,106,215,106c0,0,107,0,171,-63c0,0,28,-28,44,-65l21,28c0,0,87,100,208,100c0,0,125,0,194,-68c0,0,68,-68,68,-194V0H1041V515c0,0,0,91,-37,138c0,0,-38,47,-110,47c0,0,-87,0,-139,-68c0,0,-52,-68,-52,-183V0H569V547c0,0,0,75,-34,114c0,0,-34,39,-99,39c0,0,-89,0,-146,-76c0,0,-57,-76,-57,-196V0Z" 
id="f1_28"
transform="scale(0.001,-0.001)" />

<path d="M99,0V1097H233V690l23,30c0,0,87,102,219,102c0,0,132,0,203,-71c0,0,72,-72,72,-204V0H616V514c0,0,0,99,-38,142c0,0,-38,44,-124,44c0,0,-102,0,-162,-73c0,0,-59,-74,-59,-199V0Z" 
id="f1_23"
transform="scale(0.001,-0.001)" />

<path d="M649,461c0,0,-6,111,-55,172c0,0,-55,69,-160,69c0,0,-106,0,-170,-79c0,0,-50,-62,-60,-162ZM425,-20c0,0,-169,0,-266,106c0,0,-97,107,-97,297c0,0,0,201,102,320c0,0,103,119,276,119c0,0,157,0,253,-116c0,0,96,-117,96,-306l-1,-48H204c0,0,8,-119,54,-182c0,0,57,-76,180,-76c0,0,77,0,134,43c0,0,58,43,70,110H775C775,247,746,116,656,47c0,0,-90,-67,-231,-67Z" 
id="f1_20"
transform="scale(0.001,-0.001)" />

<path d="M411,93c0,0,98,0,158,73c0,0,60,74,60,195c0,0,0,163,-57,252c0,0,-56,88,-161,88c0,0,-113,0,-165,-72c0,0,-52,-72,-52,-229c0,0,0,-147,56,-227c0,0,56,-80,161,-80ZM404,-20c0,0,-161,0,-255,118c0,0,-95,120,-95,324c0,0,0,179,92,290c0,0,91,110,239,110c0,0,147,0,233,-124l11,-15v414H763V0H638V109L621,84C621,84,538,-20,404,-20Z" 
id="f1_1z"
transform="scale(0.001,-0.001)" />

<path d="M132,0V687H22V799H132V935c0,0,0,88,52,133c0,0,52,45,157,45l59,-3V989l-53,2c0,0,-39,0,-60,-24c0,0,-21,-25,-21,-71V799H400V687H266V0Z" 
id="f1_21"
transform="scale(0.001,-0.001)" />

<path d="M103,0V1097H237V0Z" 
id="f1_27"
transform="scale(0.001,-0.001)" />

<path d="M406,93c0,0,97,0,156,73c0,0,59,74,59,195c0,0,0,163,-56,252c0,0,-55,88,-158,88c0,0,-111,0,-162,-72c0,0,-51,-73,-51,-229c0,0,0,-147,55,-227c0,0,55,-80,157,-80ZM621,-315V93l-7,-9C614,84,532,-20,400,-20c0,0,-159,0,-253,118c0,0,-93,119,-93,323c0,0,0,180,90,291c0,0,91,110,237,110c0,0,146,0,231,-124c0,0,10,-14,17,-29V799H755V-315Z" 
id="f1_2c"
transform="scale(0.001,-0.001)" />

<path d="M375,-20c0,0,-136,0,-203,66c0,0,-68,68,-68,204V799H238V284c0,0,0,-101,38,-146c0,0,39,-44,127,-44c0,0,97,0,153,75c0,0,57,75,57,203V799H747V0H620V122c0,0,-14,-22,-30,-41C590,81,504,-20,375,-20Z" 
id="f1_2g"
transform="scale(0.001,-0.001)" />

<path d="M152,-323c-8,0,-38,1,-63,8v125c0,0,30,-11,77,-12c0,0,45,0,76,37c0,0,30,38,69,140l2,12v1L17,799H170L383,139L600,799H747L443,-25c0,0,-70,-184,-125,-241c0,0,-55,-57,-164,-57c0,0,-1,0,-2,0Z" 
id="f1_2k"
transform="scale(0.001,-0.001)" />

<path d="M394,-20c0,0,-159,0,-253,113c0,0,-95,114,-95,307c0,0,0,193,98,308c0,0,98,114,264,114c0,0,144,0,230,-78c0,0,85,-79,91,-217H600c0,0,-8,86,-59,133c0,0,-52,47,-138,47c0,0,-101,0,-159,-82c0,0,-58,-82,-58,-225c0,0,0,-152,54,-229c0,0,53,-77,159,-77c0,0,79,0,132,50c0,0,52,51,69,143H729C729,287,709,137,623,58c0,0,-86,-78,-229,-78Z" 
id="f1_1y"
transform="scale(0.001,-0.001)" />

<path d="M418,95c0,0,98,0,158,73c0,0,59,73,59,193c0,0,0,170,-54,254c0,0,-54,85,-163,85c0,0,-113,0,-165,-72c0,0,-52,-71,-52,-227c0,0,0,-147,57,-227c0,0,56,-79,160,-79ZM394,-336c0,0,-136,0,-216,62c0,0,-79,63,-96,182H219c0,0,12,-64,57,-98c0,0,45,-35,116,-35c0,0,116,0,176,73c0,0,61,73,61,211V85l-1,-1C628,84,545,-20,412,-20c0,0,-161,0,-256,118c0,0,-94,120,-94,324c0,0,0,179,93,290c0,0,93,110,244,110c0,0,144,0,228,-124l10,-14V799H763V59c0,0,-1,-201,-91,-298c0,0,-91,-97,-278,-97Z" 
id="f1_22"
transform="scale(0.001,-0.001)" />

<path d="M67,354V492H442V354Z" 
id="f1_g"
transform="scale(0.001,-0.001)" />

<path d="M133,-224v71c0,0,47,8,65,52c0,0,14,33,17,101H133V163H292V27c0,0,0,-114,-36,-172c0,0,-37,-58,-123,-79Z" 
id="f1_f"
transform="scale(0.001,-0.001)" />

<path d="M436,95c0,0,105,0,160,79c0,0,54,80,54,232c0,0,0,150,-52,222c0,0,-52,72,-161,72c0,0,-112,0,-163,-81c0,0,-51,-82,-51,-258c0,0,0,-127,55,-197c0,0,55,-69,158,-69ZM89,-315V799H216V685l7,10c0,0,86,127,228,127c0,0,156,0,248,-108c0,0,91,-107,91,-291c0,0,0,-208,-92,-326C698,97,606,-20,442,-20c0,0,-135,0,-215,102l-4,6V-315Z" 
id="f1_2b"
transform="scale(0.001,-0.001)" />

<path d="M436,95c0,0,105,0,160,79c0,0,54,80,54,232c0,0,0,150,-52,222c0,0,-52,72,-161,72c0,0,-112,0,-163,-81c0,0,-51,-82,-51,-258c0,0,0,-127,55,-197c0,0,55,-69,158,-69Zm6,-115c0,0,-135,0,-215,102L215,98V0H89V1097H223V695c0,0,87,127,225,127c1,0,2,0,2,0c0,0,157,0,249,-108c0,0,91,-107,91,-291c0,0,0,-208,-92,-326C698,97,606,-20,442,-20Z" 
id="f1_1x"
transform="scale(0.001,-0.001)" />

<path d="M248,0L21,799H169L322,163L478,799H627L788,158L950,799h133L857,0H713L548,624L392,0Z" 
id="f1_2i"
transform="scale(0.001,-0.001)" />

<path d="M528,-29c0,0,-215,0,-336,99C192,70,75,170,75,342v8H211c0,0,4,-119,87,-184c0,0,83,-65,231,-65c0,0,136,0,207,47c0,0,71,47,71,138c0,0,0,79,-47,118c0,0,-47,37,-187,71L382,520c0,0,-145,34,-207,96c0,0,-62,61,-62,169c0,0,0,158,107,250c0,0,107,92,289,92c0,0,185,0,295,-92c0,0,110,-93,117,-256H784c0,0,-9,104,-81,161c0,0,-72,56,-194,56c0,0,-125,0,-190,-48c0,0,-65,-49,-65,-142c0,0,0,-64,43,-95c0,0,43,-32,174,-62L662,603c0,0,154,-37,220,-108c0,0,65,-71,65,-201c0,0,0,-150,-113,-237c0,0,-113,-86,-306,-86Z" 
id="f1_1i"
transform="scale(0.001,-0.001)" />

<path d="M133,0V162H292V0Zm0,628V790H292V628Z" 
id="f1_t"
transform="scale(0.001,-0.001)" />

<path d="M390,-1V329H60V441H390V771H503V441H833V329H503V-1Z" 
id="f1_e"
transform="scale(0.001,-0.001)" />

<path d="M60,174V286H832V174Zm0,309V595H832V483Z" 
id="f1_w"
transform="scale(0.001,-0.001)" />

<path d="M140,-21c0,0,-26,0,-44,17C96,-4,79,13,79,40c0,0,0,19,6,33c0,0,8,20,34,55c0,0,46,60,64,126c0,0,32,114,41,321H190c0,0,-55,0,-81,-18c0,0,-44,-26,-80,-89H0c0,0,42,129,98,178c0,0,43,37,120,37H743V575H562c0,0,-27,-171,-27,-327c0,0,0,-77,27,-110c0,0,27,-33,67,-33c0,0,33,0,56,22c0,0,24,22,31,65h27C743,192,730,74,686,26c0,0,-44,-47,-98,-47c0,0,-58,0,-97,51c0,0,-39,53,-39,198c0,0,0,91,28,347H286c0,0,-23,-390,-56,-494c0,0,-33,-102,-90,-102Z" 
id="f3_2c"
transform="scale(0.001,-0.001)" />

<path d="M415,-18c0,0,-149,0,-244,83c0,0,-94,84,-107,222l140,11c0,0,16,-103,73,-154c0,0,56,-52,137,-52c0,0,98,0,165,73c0,0,66,73,66,194c0,0,0,115,-64,182c0,0,-64,66,-169,66c0,0,-65,0,-117,-29c0,0,-52,-30,-82,-77L87,517l106,562H736V951H300L241,657c0,0,99,69,207,69c0,0,143,0,242,-100c0,0,98,-99,98,-255c0,0,0,-149,-86,-257C702,114,597,-18,415,-18Z" 
id="f4_p"
transform="scale(0.001,-0.001)" />

<path d="M125,0V1051H268V115H799V0Z" 
id="f0_1c"
transform="scale(0.001,-0.001)" />

<path d="M106,0V620c0,0,0,85,-5,188H228c0,0,6,-138,6,-165h3c0,0,32,103,74,141c0,0,42,38,118,38c0,0,27,0,54,-7V692c0,0,-26,7,-71,7c0,0,-84,0,-128,-72c0,0,-44,-72,-44,-206V0Z" 
id="f0_2e"
transform="scale(0.001,-0.001)" />

<path d="M606,-14c0,0,-164,0,-284,65c0,0,-119,66,-182,189c0,0,-63,123,-63,291c0,0,0,255,137,396c0,0,137,140,386,140c0,0,174,0,283,-59c0,0,109,-59,168,-189L915,779c0,0,-44,90,-123,131c0,0,-79,41,-196,41c0,0,-182,0,-278,-110c0,0,-96,-110,-96,-310c0,0,0,-200,102,-315c0,0,102,-115,282,-115c0,0,103,0,193,31c0,0,89,31,144,85V407H629V526h445V164c0,0,-83,-85,-205,-132c0,0,-121,-46,-263,-46Z" 
id="f0_17"
transform="scale(0.001,-0.001)" />

<path d="M355,-14c0,0,-133,0,-194,65c0,0,-62,66,-62,219V808H234V296c0,0,0,-80,16,-124c0,0,16,-44,50,-64c0,0,34,-19,101,-19c0,0,97,0,153,66c0,0,55,67,55,185V808H744V172c0,0,0,-141,4,-172H621c0,0,0,4,-1,20c0,0,-1,17,-2,38c0,0,-1,21,-3,80h-2C613,138,567,55,506,20c0,0,-61,-34,-151,-34Z" 
id="f0_2h"
transform="scale(0.001,-0.001)" />

<path d="M395,89c0,0,115,0,166,79c0,0,51,79,51,246c0,0,0,160,-51,235c0,0,-51,75,-164,75c0,0,-102,0,-147,-75c0,0,-45,-75,-45,-244c0,0,0,-170,45,-243c0,0,45,-73,145,-73ZM361,-14c0,0,-153,0,-225,102c0,0,-72,103,-72,312c0,0,0,422,297,422c0,0,92,0,153,-33c0,0,61,-34,98,-107h2l-2,90v335H747V166c0,0,0,-126,4,-166H623c0,0,-2,12,-5,55c0,0,-3,44,-3,75h-3c0,0,-37,-78,-98,-111c0,0,-62,-33,-153,-33Z" 
id="f0_20"
transform="scale(0.001,-0.001)" />

<path d="M140,0V163H285V0Z" 
id="f0_i"
transform="scale(0.001,-0.001)" />


</defs>
</svg>