<?xml version="1.0" encoding="UTF-8" standalone="no"?>
<!DOCTYPE svg PUBLIC "-//W3C//DTD SVG 1.1//EN"
"http://www.w3.org/Graphics/SVG/1.1/DTD/svg11.dtd">
<svg viewBox="0 0 696 1067" version="1.1" xmlns="http://www.w3.org/2000/svg" xmlns:xlink="http://www.w3.org/1999/xlink">
<defs>
<style type="text/css"><![CDATA[
.g0_35{
fill: none;
stroke: #000000;
stroke-width: 0.7638889;
stroke-linecap: round;
stroke-linejoin: miter;
}
.g1_35{
fill: none;
stroke: #000000;
stroke-width: 0.75802225;
stroke-linecap: round;
stroke-linejoin: miter;
}
.g2_35{
fill: none;
stroke: #000000;
stroke-width: 0.7609555;
stroke-linecap: round;
stroke-linejoin: miter;
}
.g3_35{
fill: none;
stroke: #000000;
stroke-width: 0.76486665;
stroke-linecap: round;
stroke-linejoin: miter;
}
]]></style>
</defs>
<g fill="#D4D4D4" fill-opacity="0.56" >
<use xlink:href="#f0_1f" transform="matrix(50.9,-50.9,50.9,50.9,84.5,924.1)" />
<use xlink:href="#f0_2a" transform="matrix(50.9,-50.9,50.9,50.9,145,863.6)" />
<use xlink:href="#f0_28" transform="matrix(50.9,-50.9,50.9,50.9,188.3,820.3)" />
<use xlink:href="#f0_25" transform="matrix(50.9,-50.9,50.9,50.9,205.5,803.1)" />
<use xlink:href="#f0_2a" transform="matrix(50.9,-50.9,50.9,50.9,222.8,785.8)" />
<use xlink:href="#f0_21" transform="matrix(50.9,-50.9,50.9,50.9,266,742.5)" />
<use xlink:href="#f0_2k" transform="matrix(50.9,-50.9,50.9,50.9,309.3,699.3)" />
<use xlink:href="#f0_1x" transform="matrix(50.9,-50.9,50.9,50.9,348.2,660.4)" />
<use xlink:href="#f0_29" transform="matrix(50.9,-50.9,50.9,50.9,391.4,617.2)" />
<use xlink:href="#f0_2c" transform="matrix(50.9,-50.9,50.9,50.9,456.2,552.4)" />
<use xlink:href="#f0_2b" transform="matrix(50.9,-50.9,50.9,50.9,499.5,509.1)" />
<use xlink:href="#f0_25" transform="matrix(50.9,-50.9,50.9,50.9,542.7,465.9)" />
<use xlink:href="#f0_2a" transform="matrix(50.9,-50.9,50.9,50.9,560,448.6)" />
<use xlink:href="#f0_2g" transform="matrix(50.9,-50.9,50.9,50.9,603.2,405.4)" />
</g>
<g fill="#000000" >
<use xlink:href="#f1_k" transform="matrix(10.4,0,0,10.4,68.3,105.3)" />
<use xlink:href="#f1_q" transform="matrix(10.4,0,0,10.4,77.2,105.3)" />
<use xlink:href="#f1_h" transform="matrix(10.4,0,0,10.4,86.3,105.3)" />
<use xlink:href="#f2_1f" transform="matrix(10.4,0,0,10.4,109,105.3)" />
<use xlink:href="#f1_w" transform="matrix(10.4,0,0,10.4,126.4,105.3)" />
<use xlink:href="#f1_99" transform="matrix(10.4,0,0,10.4,142.5,105.3)" />
<use xlink:href="#f1_r" transform="matrix(10.4,0,0,10.4,158.2,105.3)" />
<use xlink:href="#f1_k" transform="matrix(10.4,0,0,10.4,343.3,105.3)" />
<use xlink:href="#f1_r" transform="matrix(10.4,0,0,10.4,352.2,105.3)" />
<use xlink:href="#f1_h" transform="matrix(10.4,0,0,10.4,361.3,105.3)" />
</g>
<path d="M424.3,100.3h10.3" class="g0_35" />
<g fill="#000000" >
<use xlink:href="#f1_o" transform="matrix(10.5,0,0,10.4,425.1,94.2)" />
<use xlink:href="#f1_h" transform="matrix(10.5,0,0,10.4,436.2,104.6)" />
<use xlink:href="#f1_m" transform="matrix(10.5,0,0,10.4,425.1,116.9)" />
<use xlink:href="#f2_2j" transform="matrix(10.5,0,0,10.4,395.9,104.6)" />
<use xlink:href="#f3_x" transform="matrix(10.5,0,0,10.4,410.3,104.6)" />
<use xlink:href="#f1_k" transform="matrix(10.4,0,0,10.4,68.3,173.1)" />
<use xlink:href="#f1_s" transform="matrix(10.4,0,0,10.4,77.2,173.1)" />
<use xlink:href="#f1_h" transform="matrix(10.4,0,0,10.4,86.3,173.1)" />
</g>
<path d="M139.1,167.5h18" class="g1_35" />
<g fill="#000000" >
<use xlink:href="#f1_k" transform="matrix(10.4,0,0,10.4,138.7,161.4)" />
<use xlink:href="#f1_j" transform="matrix(10.4,0,0,10.4,147.5,161.4)" />
<use xlink:href="#f1_h" transform="matrix(10.4,0,0,10.4,158.7,171.7)" />
<use xlink:href="#f1_m" transform="matrix(10.4,0,0,10.4,143.8,183.9)" />
<use xlink:href="#f2_26" transform="matrix(10.4,0,0,10.4,111.1,171.7)" />
<use xlink:href="#f3_x" transform="matrix(10.4,0,0,10.4,125.4,171.7)" />
<use xlink:href="#f1_l" transform="matrix(10.4,0,0,10.4,343.3,173.1)" />
<use xlink:href="#f1_j" transform="matrix(10.4,0,0,10.4,352.2,173.1)" />
<use xlink:href="#f1_h" transform="matrix(10.4,0,0,10.4,361.3,173.1)" />
<use xlink:href="#f1_o" transform="matrix(10.4,0,0,10.4,393.2,173.1)" />
<use xlink:href="#f1_n" transform="matrix(10.4,0,0,10.4,402,173.1)" />
<use xlink:href="#f1_h" transform="matrix(10.4,0,0,10.4,411.2,173.1)" />
<use xlink:href="#f1_l" transform="matrix(10.4,0,0,10.4,68.3,221)" />
<use xlink:href="#f1_k" transform="matrix(10.4,0,0,10.4,77.2,221)" />
<use xlink:href="#f1_h" transform="matrix(10.4,0,0,10.4,86.3,221)" />
<use xlink:href="#f1_n" transform="matrix(10.4,0,0,10.4,109,221)" />
<use xlink:href="#f1_j" transform="matrix(10.4,0,0,10.4,117.9,221)" />
<use xlink:href="#f1_h" transform="matrix(10.4,0,0,10.4,127,221)" />
<use xlink:href="#f1_l" transform="matrix(10.4,0,0,10.4,343.3,221)" />
<use xlink:href="#f1_l" transform="matrix(10.4,0,0,10.4,352.2,221)" />
<use xlink:href="#f1_h" transform="matrix(10.4,0,0,10.4,361.3,221)" />
<use xlink:href="#f1_q" transform="matrix(10.4,0,0,10.4,393.2,221)" />
<use xlink:href="#f1_l" transform="matrix(10.4,0,0,10.4,402.3,221)" />
<use xlink:href="#f1_s" transform="matrix(10.4,0,0,10.4,411.5,221)" />
<use xlink:href="#f1_l" transform="matrix(10.4,0,0,10.4,68.3,254.9)" />
<use xlink:href="#f1_m" transform="matrix(10.4,0,0,10.4,77.2,254.9)" />
<use xlink:href="#f1_h" transform="matrix(10.4,0,0,10.4,86.3,254.9)" />
<use xlink:href="#f1_s" transform="matrix(10.4,0,0,10.4,109,254.9)" />
<use xlink:href="#f1_2e" transform="matrix(10.4,0,0,10.4,125,254.9)" />
<use xlink:href="#f1_2c" transform="matrix(10.4,0,0,10.4,133,254.9)" />
<use xlink:href="#f1_h" transform="matrix(10.4,0,0,10.4,141.9,254.9)" />
<use xlink:href="#f1_2g" transform="matrix(10.4,0,0,10.4,153.4,254.9)" />
<use xlink:href="#f1_29" transform="matrix(10.4,0,0,10.4,162.3,254.9)" />
<use xlink:href="#f1_24" transform="matrix(10.4,0,0,10.4,171.2,254.9)" />
<use xlink:href="#f1_2f" transform="matrix(10.4,0,0,10.4,174.7,254.9)" />
<use xlink:href="#f1_2e" transform="matrix(10.4,0,0,10.4,179.2,254.9)" />
<use xlink:href="#f1_l" transform="matrix(10.4,0,0,10.4,343.3,254.9)" />
<use xlink:href="#f1_n" transform="matrix(10.4,0,0,10.4,352.2,254.9)" />
<use xlink:href="#f1_h" transform="matrix(10.4,0,0,10.4,361.3,254.9)" />
<use xlink:href="#f2_2j" transform="matrix(10.4,0,0,10.4,393.2,254.9)" />
<use xlink:href="#f1_w" transform="matrix(10.4,0,0,10.4,407.8,254.9)" />
<use xlink:href="#f1_3b" transform="matrix(10.4,0,0,10.4,423.9,254.9)" />
<use xlink:href="#f1_l" transform="matrix(10.4,0,0,10.4,440,254.9)" />
<use xlink:href="#f1_l" transform="matrix(10.4,0,0,10.4,68.3,288.8)" />
<use xlink:href="#f1_o" transform="matrix(10.4,0,0,10.4,77.2,288.8)" />
<use xlink:href="#f1_h" transform="matrix(10.4,0,0,10.4,86.3,288.8)" />
<use xlink:href="#f1_j" transform="matrix(10.4,0,0,10.4,109,288.8)" />
<use xlink:href="#f1_l" transform="matrix(10.4,0,0,10.4,343.3,288.8)" />
<use xlink:href="#f1_p" transform="matrix(10.4,0,0,10.4,352.2,288.8)" />
<use xlink:href="#f1_h" transform="matrix(10.4,0,0,10.4,361.3,288.8)" />
<use xlink:href="#f1_j" transform="matrix(10.4,0,0,10.4,393.2,288.8)" />
<use xlink:href="#f1_l" transform="matrix(10.4,0,0,10.4,68.3,344.9)" />
<use xlink:href="#f1_q" transform="matrix(10.4,0,0,10.4,77.2,344.9)" />
<use xlink:href="#f1_h" transform="matrix(10.4,0,0,10.4,86.3,344.9)" />
<use xlink:href="#f1_s" transform="matrix(10.4,0,0,10.4,109,344.9)" />
<use xlink:href="#f1_l" transform="matrix(10.4,0,0,10.4,343.3,344.9)" />
<use xlink:href="#f1_r" transform="matrix(10.4,0,0,10.4,352.2,344.9)" />
<use xlink:href="#f1_h" transform="matrix(10.4,0,0,10.4,361.3,344.9)" />
<use xlink:href="#f1_r" transform="matrix(10.5,0,0,10.5,412,333.2)" />
<use xlink:href="#f1_m" transform="matrix(10.5,0,0,10.5,435.9,333.2)" />
<use xlink:href="#f1_h" transform="matrix(10.5,0,0,10.5,453,345)" />
<use xlink:href="#f1_p" transform="matrix(10.5,0,0,10.5,412,357.3)" />
<use xlink:href="#f1_o" transform="matrix(10.5,0,0,10.5,435.9,357.3)" />
<use xlink:href="#f3_4r" transform="matrix(10.5,0,0,10.5,396.2,334.2)" />
<use xlink:href="#f3_57" transform="matrix(10.5,0,0,10.5,445.4,334.2)" />
<use xlink:href="#f3_4s" transform="matrix(10.5,0,0,10.5,396.2,349.7)" />
<use xlink:href="#f3_58" transform="matrix(10.5,0,0,10.5,445.4,349.7)" />
<use xlink:href="#f3_h" transform="matrix(10.5,0,0,10.5,403.3,357.3)" />
<use xlink:href="#f3_4t" transform="matrix(10.5,0,0,10.5,396.2,360.8)" />
<use xlink:href="#f3_59" transform="matrix(10.5,0,0,10.5,445.4,360.8)" />
<use xlink:href="#f1_l" transform="matrix(10.4,0,0,10.4,68.3,400.1)" />
<use xlink:href="#f1_s" transform="matrix(10.4,0,0,10.4,77.2,400.1)" />
<use xlink:href="#f1_h" transform="matrix(10.4,0,0,10.4,86.3,400.1)" />
<use xlink:href="#f1_k" transform="matrix(10.4,0,0,10.4,109,400.1)" />
<use xlink:href="#f1_q" transform="matrix(10.4,0,0,10.4,118.2,400.1)" />
<use xlink:href="#f1_l" transform="matrix(10.4,0,0,10.4,127,400.1)" />
<use xlink:href="#f1_r" transform="matrix(10.4,0,0,10.4,136.2,400.1)" />
<use xlink:href="#f1_m" transform="matrix(10.4,0,0,10.4,343.3,400.1)" />
<use xlink:href="#f1_j" transform="matrix(10.4,0,0,10.4,352.2,400.1)" />
<use xlink:href="#f1_h" transform="matrix(10.4,0,0,10.4,361.3,400.1)" />
<use xlink:href="#f1_2n" transform="matrix(10.4,0,0,10.4,393.2,400.1)" />
<use xlink:href="#f2_10" transform="matrix(10.4,0,0,10.4,397.4,400.1)" />
<use xlink:href="#f1_2n" transform="matrix(10.4,0,0,10.4,408,400.1)" />
<use xlink:href="#f1_w" transform="matrix(10.4,0,0,10.4,418.8,400.1)" />
<use xlink:href="#f1_s" transform="matrix(10.4,0,0,10.4,434.9,400.1)" />
<use xlink:href="#f1_m" transform="matrix(10.4,0,0,10.4,68.3,434)" />
<use xlink:href="#f1_k" transform="matrix(10.4,0,0,10.4,77.2,434)" />
<use xlink:href="#f1_h" transform="matrix(10.4,0,0,10.4,86.3,434)" />
<use xlink:href="#f1_k" transform="matrix(10.4,0,0,10.4,109,434)" />
<use xlink:href="#f1_j" transform="matrix(10.4,0,0,10.4,118.2,434)" />
<use xlink:href="#f1_j" transform="matrix(10.4,0,0,10.4,127.4,434)" />
<use xlink:href="#f1_m" transform="matrix(10.4,0,0,10.4,343.3,434)" />
<use xlink:href="#f1_l" transform="matrix(10.4,0,0,10.4,352.2,434)" />
<use xlink:href="#f1_h" transform="matrix(10.4,0,0,10.4,361.3,434)" />
<use xlink:href="#f1_k" transform="matrix(10.4,0,0,10.4,393.2,434)" />
<use xlink:href="#f1_k" transform="matrix(10.4,0,0,10.4,402.3,434)" />
<use xlink:href="#f1_m" transform="matrix(10.4,0,0,10.4,68.3,467.9)" />
<use xlink:href="#f1_m" transform="matrix(10.4,0,0,10.4,77.2,467.9)" />
<use xlink:href="#f1_h" transform="matrix(10.4,0,0,10.4,86.3,467.9)" />
<use xlink:href="#f1_2n" transform="matrix(10.4,0,0,10.4,109,467.9)" />
<use xlink:href="#f2_10" transform="matrix(10.4,0,0,10.4,113.2,467.9)" />
<use xlink:href="#f2_11" transform="matrix(10.4,0,0,10.4,123.9,467.9)" />
<use xlink:href="#f1_2n" transform="matrix(10.4,0,0,10.4,134.5,467.9)" />
<use xlink:href="#f1_w" transform="matrix(10.4,0,0,10.4,145.4,467.9)" />
<use xlink:href="#f1_99" transform="matrix(10.4,0,0,10.4,161.7,467.9)" />
<use xlink:href="#f1_k" transform="matrix(10.4,0,0,10.4,177.4,467.9)" />
<use xlink:href="#f1_k" transform="matrix(10.4,0,0,10.4,186.2,467.9)" />
<use xlink:href="#f1_m" transform="matrix(10.4,0,0,10.4,343.3,467.9)" />
<use xlink:href="#f1_n" transform="matrix(10.4,0,0,10.4,352.2,467.9)" />
<use xlink:href="#f1_h" transform="matrix(10.4,0,0,10.4,361.3,467.9)" />
<use xlink:href="#f2_2j" transform="matrix(10.4,0,0,10.4,393.2,467.9)" />
<use xlink:href="#f1_w" transform="matrix(10.4,0,0,10.4,407.8,467.9)" />
<use xlink:href="#f1_k" transform="matrix(10.4,0,0,10.4,423.9,467.9)" />
<use xlink:href="#f1_f" transform="matrix(10.4,0,0,10.4,432.8,467.9)" />
<use xlink:href="#f2_2k" transform="matrix(10.4,0,0,10.4,443.8,467.9)" />
<use xlink:href="#f1_w" transform="matrix(10.4,0,0,10.4,458.6,467.9)" />
<use xlink:href="#f1_l" transform="matrix(10.4,0,0,10.4,474.7,467.9)" />
<use xlink:href="#f1_f" transform="matrix(10.4,0,0,10.4,483.6,467.9)" />
<use xlink:href="#f2_2l" transform="matrix(10.4,0,0,10.4,494.7,467.9)" />
<use xlink:href="#f1_w" transform="matrix(10.4,0,0,10.4,509.6,467.9)" />
<use xlink:href="#f1_m" transform="matrix(10.4,0,0,10.4,525.5,467.9)" />
<use xlink:href="#f1_f" transform="matrix(10.4,0,0,10.4,534.4,467.9)" />
<use xlink:href="#f2_2i" transform="matrix(10.4,0,0,10.4,545.5,467.9)" />
<use xlink:href="#f1_w" transform="matrix(10.4,0,0,10.4,563.9,467.9)" />
<use xlink:href="#f1_n" transform="matrix(10.4,0,0,10.4,580,467.9)" />
<use xlink:href="#f1_m" transform="matrix(10.4,0,0,10.4,68.3,547)" />
<use xlink:href="#f1_o" transform="matrix(10.4,0,0,10.4,77.2,547)" />
<use xlink:href="#f1_h" transform="matrix(10.4,0,0,10.4,86.3,547)" />
</g>
<path d="M156.3,502.7l-5.1,16m43.7,-16l-5.1,16" class="g2_35" />
<g fill="#000000" >
<use xlink:href="#f3_4r" transform="matrix(10.4,0,0,10.5,112.1,516.2)" />
<use xlink:href="#f3_57" transform="matrix(10.4,0,0,10.5,205.2,516.2)" />
<use xlink:href="#f3_4s" transform="matrix(10.4,0,0,10.5,112.1,531.7)" />
<use xlink:href="#f3_58" transform="matrix(10.4,0,0,10.5,205.2,531.7)" />
<use xlink:href="#f3_4s" transform="matrix(10.4,0,0,10.5,112.1,547)" />
<use xlink:href="#f3_58" transform="matrix(10.4,0,0,10.5,205.2,547)" />
<use xlink:href="#f3_4s" transform="matrix(10.4,0,0,10.5,112.1,562.2)" />
<use xlink:href="#f3_58" transform="matrix(10.4,0,0,10.5,205.2,562.2)" />
<use xlink:href="#f3_4t" transform="matrix(10.4,0,0,10.5,112.1,566.8)" />
<use xlink:href="#f3_59" transform="matrix(10.4,0,0,10.5,205.2,566.8)" />
<use xlink:href="#f1_m" transform="matrix(10.4,0,0,10.5,118.6,515.2)" />
<use xlink:href="#f1_m" transform="matrix(10.4,0,0,10.5,142.3,515.2)" />
<use xlink:href="#f1_l" transform="matrix(10.4,0,0,10.5,157.4,515.2)" />
<use xlink:href="#f1_o" transform="matrix(10.4,0,0,10.5,180.8,515.2)" />
<use xlink:href="#f1_l" transform="matrix(10.4,0,0,10.5,195.9,515.2)" />
<use xlink:href="#f1_n" transform="matrix(10.4,0,0,10.5,118.6,539.3)" />
<use xlink:href="#f1_o" transform="matrix(10.4,0,0,10.5,149.7,539.3)" />
<use xlink:href="#f1_l" transform="matrix(10.4,0,0,10.5,188.4,539.3)" />
<use xlink:href="#f1_h" transform="matrix(10.4,0,0,10.5,212.5,539.3)" />
<use xlink:href="#f1_o" transform="matrix(10.4,0,0,10.5,118.6,563.3)" />
<use xlink:href="#f1_p" transform="matrix(10.4,0,0,10.5,149.7,563.3)" />
<use xlink:href="#f1_q" transform="matrix(10.4,0,0,10.5,188.3,563.3)" />
<use xlink:href="#f1_m" transform="matrix(10.4,0,0,10.4,68.3,652.2)" />
<use xlink:href="#f1_p" transform="matrix(10.4,0,0,10.4,77.2,652.2)" />
<use xlink:href="#f1_h" transform="matrix(10.4,0,0,10.4,86.3,652.2)" />
</g>
<path d="M148.3,628.2h15.5m27.4,0h10.3m16.1,0h10.3m-74.4,43.1h10.3m19.7,0h18m16.1,0h10.3m69.4,-43.1h10.3m35,0h10.3m27.4,0h10.3m-93.3,43.1h10.3m27.4,0h17.9m27.4,0h10.3" class="g3_35" />
<g fill="#000000" >
<use xlink:href="#f1_k" transform="matrix(10.4,0,0,10.4,147.7,622.1)" />
<use xlink:href="#f1_k" transform="matrix(10.4,0,0,10.4,156.7,622.1)" />
<use xlink:href="#f1_s" transform="matrix(10.4,0,0,10.4,191.8,622.1)" />
<use xlink:href="#f1_s" transform="matrix(10.4,0,0,10.4,218.1,622.1)" />
<use xlink:href="#f1_o" transform="matrix(10.4,0,0,10.4,298,622.1)" />
<use xlink:href="#f1_l" transform="matrix(10.4,0,0,10.4,343.3,622.1)" />
<use xlink:href="#f1_k" transform="matrix(10.4,0,0,10.4,381.6,622.1)" />
<use xlink:href="#f1_q" transform="matrix(10.4,0,0,10.4,151.6,644.8)" />
<use xlink:href="#f1_q" transform="matrix(10.4,0,0,10.4,191.9,644.8)" />
<use xlink:href="#f1_q" transform="matrix(10.4,0,0,10.4,218.3,644.8)" />
<use xlink:href="#f1_q" transform="matrix(10.4,0,0,10.4,298,644.8)" />
<use xlink:href="#f1_q" transform="matrix(10.4,0,0,10.4,343.2,644.8)" />
<use xlink:href="#f1_q" transform="matrix(10.4,0,0,10.4,381,644.8)" />
<use xlink:href="#f1_f" transform="matrix(10.4,0,0,10.4,236.5,653)" />
<use xlink:href="#f1_k" transform="matrix(10.4,0,0,10.4,154.8,665.2)" />
<use xlink:href="#f1_k" transform="matrix(10.4,0,0,10.4,182.9,665.2)" />
<use xlink:href="#f1_r" transform="matrix(10.4,0,0,10.4,191.9,665.2)" />
<use xlink:href="#f1_n" transform="matrix(10.4,0,0,10.4,218.3,665.2)" />
<use xlink:href="#f1_n" transform="matrix(10.4,0,0,10.4,298,665.2)" />
<use xlink:href="#f1_k" transform="matrix(10.4,0,0,10.4,334.4,665.2)" />
<use xlink:href="#f1_l" transform="matrix(10.4,0,0,10.4,343.5,665.2)" />
<use xlink:href="#f1_o" transform="matrix(10.4,0,0,10.4,380.9,665.2)" />
<use xlink:href="#f1_q" transform="matrix(10.4,0,0,10.4,154.2,687.9)" />
<use xlink:href="#f1_q" transform="matrix(10.4,0,0,10.4,188.1,687.9)" />
<use xlink:href="#f1_q" transform="matrix(10.4,0,0,10.4,218.3,687.9)" />
<use xlink:href="#f1_q" transform="matrix(10.4,0,0,10.4,298,687.9)" />
<use xlink:href="#f1_q" transform="matrix(10.4,0,0,10.4,339.5,687.9)" />
<use xlink:href="#f1_q" transform="matrix(10.4,0,0,10.4,381,687.9)" />
<use xlink:href="#f2_10" transform="matrix(10.4,0,0,10.4,111.8,653)" />
<use xlink:href="#f2_11" transform="matrix(10.4,0,0,10.4,248.6,653)" />
<use xlink:href="#f3_4r" transform="matrix(10.5,0,0,10.4,141.1,623.1)" />
<use xlink:href="#f3_57" transform="matrix(10.5,0,0,10.4,228.9,623.1)" />
<use xlink:href="#f3_4r" transform="matrix(10.5,0,0,10.4,278.8,623.1)" />
<use xlink:href="#f3_57" transform="matrix(10.5,0,0,10.4,391.6,623.1)" />
<use xlink:href="#f3_h" transform="matrix(10.5,0,0,10.4,179.8,632.5)" />
<use xlink:href="#f3_h" transform="matrix(10.5,0,0,10.4,285.9,632.5)" />
<use xlink:href="#f3_h" transform="matrix(10.5,0,0,10.4,331.1,632.5)" />
<use xlink:href="#f3_4s" transform="matrix(10.5,0,0,10.4,141.1,638.5)" />
<use xlink:href="#f3_58" transform="matrix(10.5,0,0,10.4,228.9,638.5)" />
<use xlink:href="#f3_4s" transform="matrix(10.5,0,0,10.4,278.8,638.5)" />
<use xlink:href="#f3_58" transform="matrix(10.5,0,0,10.4,391.6,638.5)" />
<use xlink:href="#f3_x" transform="matrix(10.5,0,0,10.4,127.2,653)" />
<use xlink:href="#f3_x" transform="matrix(10.5,0,0,10.4,264.9,653)" />
<use xlink:href="#f3_4s" transform="matrix(10.5,0,0,10.4,141.1,653.7)" />
<use xlink:href="#f3_58" transform="matrix(10.5,0,0,10.4,228.9,653.7)" />
<use xlink:href="#f3_4s" transform="matrix(10.5,0,0,10.4,278.8,653.7)" />
<use xlink:href="#f3_58" transform="matrix(10.5,0,0,10.4,391.6,653.7)" />
<use xlink:href="#f3_4s" transform="matrix(10.5,0,0,10.4,141.1,668.8)" />
<use xlink:href="#f3_58" transform="matrix(10.5,0,0,10.4,228.9,668.8)" />
<use xlink:href="#f3_4s" transform="matrix(10.5,0,0,10.4,278.8,668.8)" />
<use xlink:href="#f3_58" transform="matrix(10.5,0,0,10.4,391.6,668.8)" />
<use xlink:href="#f3_h" transform="matrix(10.5,0,0,10.4,323.6,675.6)" />
<use xlink:href="#f3_h" transform="matrix(10.5,0,0,10.4,368.9,675.6)" />
<use xlink:href="#f3_4s" transform="matrix(10.5,0,0,10.4,141.1,684)" />
<use xlink:href="#f3_58" transform="matrix(10.5,0,0,10.4,228.9,684)" />
<use xlink:href="#f3_4s" transform="matrix(10.5,0,0,10.4,278.8,684)" />
<use xlink:href="#f3_58" transform="matrix(10.5,0,0,10.4,391.6,684)" />
<use xlink:href="#f3_4t" transform="matrix(10.5,0,0,10.4,141.1,687.9)" />
<use xlink:href="#f3_59" transform="matrix(10.5,0,0,10.4,228.9,687.9)" />
<use xlink:href="#f3_4t" transform="matrix(10.5,0,0,10.4,278.8,687.9)" />
<use xlink:href="#f3_59" transform="matrix(10.5,0,0,10.4,391.6,687.9)" />
<use xlink:href="#f1_n" transform="matrix(10.4,0,0,10.4,68.3,731.4)" />
<use xlink:href="#f1_j" transform="matrix(10.4,0,0,10.4,77.2,731.4)" />
<use xlink:href="#f1_h" transform="matrix(10.4,0,0,10.4,86.3,731.4)" />
<use xlink:href="#f1_k" transform="matrix(10.5,0,0,10.5,167,718.6)" />
<use xlink:href="#f1_s" transform="matrix(10.5,0,0,10.5,176.3,718.6)" />
<use xlink:href="#f1_k" transform="matrix(10.5,0,0,10.5,185.6,718.6)" />
<use xlink:href="#f1_k" transform="matrix(10.5,0,0,10.5,224.3,718.6)" />
<use xlink:href="#f1_k" transform="matrix(10.5,0,0,10.5,233.6,718.6)" />
<use xlink:href="#f1_j" transform="matrix(10.5,0,0,10.5,242.9,718.6)" />
<use xlink:href="#f1_h" transform="matrix(10.5,0,0,10.5,263.3,730.4)" />
<use xlink:href="#f1_q" transform="matrix(10.5,0,0,10.5,165.6,742.7)" />
<use xlink:href="#f1_q" transform="matrix(10.5,0,0,10.5,174.9,742.7)" />
<use xlink:href="#f1_n" transform="matrix(10.5,0,0,10.5,224.2,742.7)" />
<use xlink:href="#f1_n" transform="matrix(10.5,0,0,10.5,233.5,742.7)" />
<use xlink:href="#f2_13" transform="matrix(10.5,0,0,10.5,110.8,730.4)" />
<use xlink:href="#f3_h" transform="matrix(10.5,0,0,10.5,158,718.6)" />
<use xlink:href="#f3_h" transform="matrix(10.5,0,0,10.5,215.3,718.6)" />
<use xlink:href="#f3_4r" transform="matrix(10.5,0,0,10.5,149.8,719.8)" />
<use xlink:href="#f3_57" transform="matrix(10.5,0,0,10.5,253.4,719.8)" />
<use xlink:href="#f3_x" transform="matrix(10.5,0,0,10.5,131.9,730.4)" />
<use xlink:href="#f3_4s" transform="matrix(10.5,0,0,10.5,149.8,735.2)" />
<use xlink:href="#f3_58" transform="matrix(10.5,0,0,10.5,253.4,735.2)" />
<use xlink:href="#f3_4t" transform="matrix(10.5,0,0,10.5,149.8,746)" />
<use xlink:href="#f3_59" transform="matrix(10.5,0,0,10.5,253.4,746)" />
<use xlink:href="#f1_n" transform="matrix(10.4,0,0,10.4,343.3,731.4)" />
<use xlink:href="#f1_k" transform="matrix(10.4,0,0,10.4,352.2,731.4)" />
<use xlink:href="#f1_h" transform="matrix(10.4,0,0,10.4,361.3,731.4)" />
<use xlink:href="#f2_2j" transform="matrix(10.4,0,0,10.4,393.2,731.4)" />
<use xlink:href="#f1_w" transform="matrix(10.4,0,0,10.4,408,731.4)" />
<use xlink:href="#f1_99" transform="matrix(10.4,0,0,10.4,424.3,731.4)" />
<use xlink:href="#f1_l" transform="matrix(10.4,0,0,10.4,440,731.4)" />
<use xlink:href="#f1_2a" transform="matrix(10.4,0,0,10.4,455.8,731.4)" />
<use xlink:href="#f1_2d" transform="matrix(10.4,0,0,10.4,464.7,731.4)" />
<use xlink:href="#f1_99" transform="matrix(10.4,0,0,10.4,476.8,731.4)" />
<use xlink:href="#f1_k" transform="matrix(10.4,0,0,10.4,492.6,731.4)" />
<use xlink:href="#f1_n" transform="matrix(10.4,0,0,10.4,501.5,731.4)" />
<use xlink:href="#f1_n" transform="matrix(10.4,0,0,10.4,68.3,808.4)" />
<use xlink:href="#f1_m" transform="matrix(10.4,0,0,10.4,77.2,808.4)" />
<use xlink:href="#f1_h" transform="matrix(10.4,0,0,10.4,86.3,808.4)" />
<use xlink:href="#f1_k" transform="matrix(7,0,0,7,129.5,800.5)" />
<use xlink:href="#f1_q" transform="matrix(10.6,0,0,10.5,169.8,796)" />
<use xlink:href="#f1_m" transform="matrix(10.6,0,0,10.5,203,796)" />
<use xlink:href="#f1_h" transform="matrix(10.6,0,0,10.5,220.1,807.7)" />
<use xlink:href="#f1_k" transform="matrix(10.6,0,0,10.5,161,820)" />
<use xlink:href="#f1_l" transform="matrix(10.6,0,0,10.5,169.9,820)" />
<use xlink:href="#f1_o" transform="matrix(10.6,0,0,10.5,202.9,820)" />
<use xlink:href="#f2_10" transform="matrix(10.6,0,0,10.5,111.8,807.7)" />
<use xlink:href="#f3_h" transform="matrix(7,0,0,7,123.6,800.5)" />
<use xlink:href="#f3_h" transform="matrix(10.6,0,0,10.5,161,796)" />
<use xlink:href="#f3_4r" transform="matrix(10.6,0,0,10.5,153.9,797)" />
<use xlink:href="#f3_57" transform="matrix(10.6,0,0,10.5,212.4,797)" />
<use xlink:href="#f3_x" transform="matrix(10.6,0,0,10.5,140,807.7)" />
<use xlink:href="#f3_4s" transform="matrix(10.6,0,0,10.5,153.9,812.5)" />
<use xlink:href="#f3_58" transform="matrix(10.6,0,0,10.5,212.4,812.5)" />
<use xlink:href="#f3_h" transform="matrix(10.6,0,0,10.5,194.2,820)" />
<use xlink:href="#f3_4t" transform="matrix(10.6,0,0,10.5,153.9,823.5)" />
<use xlink:href="#f3_59" transform="matrix(10.6,0,0,10.5,212.4,823.5)" />
<use xlink:href="#f1_n" transform="matrix(10.4,0,0,10.4,343.3,808.4)" />
<use xlink:href="#f1_n" transform="matrix(10.4,0,0,10.4,352.2,808.4)" />
<use xlink:href="#f1_h" transform="matrix(10.4,0,0,10.4,361.3,808.4)" />
<use xlink:href="#f2_21" transform="matrix(10.4,0,0,10.4,393.2,808.4)" />
<use xlink:href="#f1_b" transform="matrix(10.4,0,0,10.4,397.6,808.4)" />
<use xlink:href="#f2_10" transform="matrix(10.4,0,0,10.4,402.9,808.4)" />
<use xlink:href="#f2_c" transform="matrix(10.4,0,0,10.4,413.5,808.4)" />
<use xlink:href="#f1_w" transform="matrix(10.4,0,0,10.4,425.6,808.4)" />
<use xlink:href="#f1_j" transform="matrix(10.4,0,0,10.4,441.7,808.4)" />
<use xlink:href="#f1_n" transform="matrix(10.4,0,0,10.4,68.3,887)" />
<use xlink:href="#f1_o" transform="matrix(10.4,0,0,10.4,77.2,887)" />
<use xlink:href="#f1_h" transform="matrix(10.4,0,0,10.4,86.3,887)" />
<use xlink:href="#f2_2j" transform="matrix(10.4,0,0,10.4,109,887)" />
<use xlink:href="#f1_w" transform="matrix(10.4,0,0,10.4,123.9,887)" />
<use xlink:href="#f1_s" transform="matrix(10.4,0,0,10.4,139.9,887)" />
<use xlink:href="#f1_f" transform="matrix(10.4,0,0,10.4,148.8,887)" />
<use xlink:href="#f2_2k" transform="matrix(10.4,0,0,10.4,160,887)" />
<use xlink:href="#f1_w" transform="matrix(10.4,0,0,10.4,174.8,887)" />
<use xlink:href="#f1_k" transform="matrix(10.4,0,0,10.4,190.9,887)" />
<use xlink:href="#f1_n" transform="matrix(10.4,0,0,10.4,199.8,887)" />
<use xlink:href="#f1_n" transform="matrix(10.4,0,0,10.4,343.3,887)" />
<use xlink:href="#f1_p" transform="matrix(10.4,0,0,10.4,352.2,887)" />
<use xlink:href="#f1_h" transform="matrix(10.4,0,0,10.4,361.3,887)" />
<use xlink:href="#f1_k" transform="matrix(10.6,0,0,10.5,433.4,873)" />
<use xlink:href="#f1_l" transform="matrix(10.6,0,0,10.5,464,873)" />
<use xlink:href="#f1_h" transform="matrix(10.6,0,0,10.5,480.9,884.7)" />
<use xlink:href="#f1_l" transform="matrix(10.6,0,0,10.5,431.1,897)" />
<use xlink:href="#f1_j" transform="matrix(10.6,0,0,10.5,463.8,897)" />
<use xlink:href="#f2_2j" transform="matrix(10.6,0,0,10.5,396,884.7)" />
<use xlink:href="#f3_h" transform="matrix(10.6,0,0,10.5,455.2,873)" />
<use xlink:href="#f3_4r" transform="matrix(10.6,0,0,10.5,424.4,874)" />
<use xlink:href="#f3_57" transform="matrix(10.6,0,0,10.5,473.2,874)" />
<use xlink:href="#f3_x" transform="matrix(10.6,0,0,10.5,410.5,884.7)" />
<use xlink:href="#f3_4s" transform="matrix(10.6,0,0,10.5,424.4,889.5)" />
<use xlink:href="#f3_58" transform="matrix(10.6,0,0,10.5,473.2,889.5)" />
<use xlink:href="#f3_4t" transform="matrix(10.6,0,0,10.5,424.4,900.5)" />
<use xlink:href="#f3_59" transform="matrix(10.6,0,0,10.5,473.2,900.5)" />
<use xlink:href="#f4_l" transform="matrix(12,0,0,12,655.5,1052.9)" />
<use xlink:href="#f4_l" transform="matrix(12,0,0,12,665.7,1052.9)" />
</g>
<g fill="#0080FF" fill-opacity="0.5" >
<use xlink:href="#f0_1c" transform="matrix(36.3,0,0,36.3,174,1059.2)" />
<use xlink:href="#f0_21" transform="matrix(36.3,0,0,36.3,204.8,1059.2)" />
<use xlink:href="#f0_1x" transform="matrix(36.3,0,0,36.3,235.7,1059.2)" />
<use xlink:href="#f0_2e" transform="matrix(36.3,0,0,36.3,266.5,1059.2)" />
<use xlink:href="#f0_2a" transform="matrix(36.3,0,0,36.3,284.9,1059.2)" />
<use xlink:href="#f0_17" transform="matrix(36.3,0,0,36.3,315.8,1059.2)" />
<use xlink:href="#f0_2h" transform="matrix(36.3,0,0,36.3,358.9,1059.2)" />
<use xlink:href="#f0_25" transform="matrix(36.3,0,0,36.3,389.7,1059.2)" />
<use xlink:href="#f0_20" transform="matrix(36.3,0,0,36.3,402,1059.2)" />
<use xlink:href="#f0_21" transform="matrix(36.3,0,0,36.3,432.8,1059.2)" />
<use xlink:href="#f0_i" transform="matrix(36.3,0,0,36.3,463.7,1059.2)" />
<use xlink:href="#f0_25" transform="matrix(36.3,0,0,36.3,479.1,1059.2)" />
<use xlink:href="#f0_2a" transform="matrix(36.3,0,0,36.3,491.4,1059.2)" />
</g>
<defs>
<path d="M593,101c0,0,182,0,279,112c0,0,98,113,98,318c0,0,0,196,-98,308c0,0,-98,112,-277,112c0,0,-181,0,-279,-110c0,0,-99,-111,-99,-310c0,0,0,-198,100,-314c0,0,99,-116,276,-116Zm0,-115c0,0,-162,0,-279,65c0,0,-118,66,-180,190c0,0,-62,124,-62,290c0,0,0,252,138,394c0,0,138,142,385,142c0,0,160,0,278,-64c0,0,118,-64,180,-185c0,0,62,-122,62,-287c0,0,0,-165,-63,-289c0,0,-63,-124,-181,-190c0,0,-118,-66,-278,-66Z" 
id="f0_1f"
transform="scale(0.001,-0.001)" />

<path d="M106,0V635c0,0,0,141,-5,173H228c0,0,1,-4,2,-21c0,0,1,-16,2,-37c0,0,1,-22,2,-81h2c0,0,47,84,108,119c0,0,60,34,151,34c0,0,132,0,194,-66c0,0,61,-66,61,-218V0H615V512c0,0,0,80,-15,124c0,0,-16,44,-50,63c0,0,-35,20,-101,20c0,0,-97,0,-153,-67c0,0,-56,-66,-56,-184V0Z" 
id="f0_2a"
transform="scale(0.001,-0.001)" />

<path d="M103,0V1107H237V0Z" 
id="f0_28"
transform="scale(0.001,-0.001)" />

<path d="M102,0V808H236V0Zm0,979v128H236V979Z" 
id="f0_25"
transform="scale(0.001,-0.001)" />

<path d="M643,478c0,0,-11,128,-65,187c0,0,-54,59,-154,59c0,0,-98,0,-155,-66c0,0,-57,-65,-62,-180ZM431,-14c0,0,-179,0,-272,106c0,0,-94,107,-94,317c0,0,0,200,94,307c0,0,93,106,267,106c0,0,356,0,356,-429V375H206c0,0,0,-138,57,-213c0,0,58,-75,168,-75c0,0,87,0,140,35c0,0,53,35,71,88L760,177c0,0,-72,-191,-329,-191Z" 
id="f0_21"
transform="scale(0.001,-0.001)" />

<path d="M17,0L304,415L31,808H179L380,493L580,808H730L457,417L747,0H598L380,331L162,0Z" 
id="f0_2k"
transform="scale(0.001,-0.001)" />

<path d="M339,87c0,0,74,0,132,34c0,0,57,33,90,91c0,0,34,59,34,121v66L448,396c0,0,-95,-2,-144,-19c0,0,-49,-18,-75,-55c0,0,-26,-38,-26,-98c0,0,0,-65,35,-101c0,0,36,-36,101,-36ZM309,-14c0,0,-122,0,-183,64c0,0,-61,64,-61,176c0,0,0,125,82,192c0,0,83,67,266,72l182,3v44c0,0,0,98,-42,141c0,0,-42,43,-132,43c0,0,-90,0,-131,-31c0,0,-41,-31,-49,-98L101,604c0,0,34,218,323,218c0,0,153,0,229,-70c0,0,77,-69,77,-202V202c0,0,0,-59,16,-90c0,0,16,-30,60,-30c0,0,19,0,44,5V4C850,4,799,-7,746,-7c0,0,-75,0,-109,38c0,0,-33,40,-38,124h-4C595,155,543,62,475,24c0,0,-68,-38,-166,-38Z" 
id="f0_1x"
transform="scale(0.001,-0.001)" />

<path d="M106,0V635c0,0,0,141,-5,173H228c0,0,1,-4,2,-21c0,0,1,-16,2,-37c0,0,1,-22,2,-81h2c0,0,44,86,100,120c0,0,56,33,136,33c0,0,92,0,145,-36c0,0,54,-37,75,-117h2c0,0,42,82,101,117c0,0,59,36,143,36c0,0,123,0,178,-66c0,0,56,-67,56,-218V0H1039V512c0,0,0,117,-32,162c0,0,-32,45,-116,45c0,0,-88,0,-136,-66c0,0,-49,-65,-49,-185V0H573V512c0,0,0,117,-32,162c0,0,-32,45,-116,45c0,0,-86,0,-136,-66c0,0,-50,-66,-50,-185V0Z" 
id="f0_29"
transform="scale(0.001,-0.001)" />

<path d="M453,84c0,0,100,0,146,74c0,0,46,73,46,247c0,0,0,169,-46,241c0,0,-45,73,-145,73c0,0,-80,0,-125,-34c0,0,-45,-34,-68,-105c0,0,-24,-71,-24,-186c0,0,0,-159,51,-234c0,0,51,-76,165,-76ZM103,-316V643c0,0,0,124,-5,165H228c0,0,1,-3,3,-22c0,0,1,-18,3,-56c0,0,2,-38,2,-52h3c0,0,36,75,94,110c0,0,59,34,156,34c0,0,149,0,223,-100c0,0,74,-100,74,-314c0,0,0,-422,-297,-422c0,0,-187,0,-251,140h-4c0,0,3,-6,3,-126V-316Z" 
id="f0_2c"
transform="scale(0.001,-0.001)" />

<path d="M420,84c0,0,121,0,173,78c0,0,52,77,52,243c0,0,0,167,-50,243c0,0,-50,76,-167,76c0,0,-118,0,-170,-78c0,0,-53,-77,-53,-241c0,0,0,-160,52,-241c0,0,52,-80,163,-80Zm1,-98c0,0,-176,0,-267,107c0,0,-90,108,-90,312c0,0,0,417,362,417c0,0,185,0,272,-102c0,0,88,-101,88,-315c0,0,0,-212,-94,-316C692,89,599,-14,421,-14Z" 
id="f0_2b"
transform="scale(0.001,-0.001)" />

<path d="M278,-11c0,0,-162,0,-162,182V710H23v98h99l39,181h90V808H400V710H251V200c0,0,0,-58,19,-82c0,0,19,-23,66,-23c0,0,27,0,77,10V6c0,0,-66,-17,-135,-17Z" 
id="f0_2g"
transform="scale(0.001,-0.001)" />

<path d="M406,0V763H155V870h2c16,0,114,2,178,48c0,0,70,51,104,157H549V0Z" 
id="f1_k"
transform="scale(0.001,-0.001)" />

<path d="M212,0c0,0,51,270,162,500c0,0,109,222,281,422H57v131H799V934C799,934,623,726,515,498C515,498,408,269,362,0Z" 
id="f1_q"
transform="scale(0.001,-0.001)" />

<path d="M133,0V162H292V0Z" 
id="f1_h"
transform="scale(0.001,-0.001)" />

<path d="M695,589c0,0,126,0,201,68c0,0,74,69,74,186c0,0,0,59,-46,92c0,0,-46,33,-129,33H480L401,589ZM131,0L358,1097H864c0,0,120,0,189,-64c0,0,69,-64,69,-175c0,0,0,-167,-116,-283c0,0,-115,-115,-282,-115H375L280,0Z" 
id="f2_1f"
transform="scale(0.001,-0.001)" />

<path d="M60,174V286H832V174Zm0,309V595H832V483Z" 
id="f1_w"
transform="scale(0.001,-0.001)" />

<path d="M0,368V478H849V368Z" 
id="f1_99"
transform="scale(0.001,-0.001)" />

<path d="M424,92c0,0,98,0,161,58c0,0,62,58,62,149c0,0,0,92,-62,151c0,0,-63,58,-161,58c0,0,-98,0,-160,-58c0,0,-63,-59,-63,-151c0,0,0,-91,63,-149c0,0,62,-58,160,-58Zm0,533c0,0,82,0,134,46c0,0,52,45,52,118c0,0,0,72,-52,118c0,0,-52,46,-134,46c0,0,-82,0,-134,-46c0,0,-52,-46,-52,-118c0,0,0,-73,52,-119c0,0,52,-45,134,-45Zm0,-653c0,0,-165,0,-265,90C159,62,59,154,59,305c0,0,0,134,100,216c0,0,35,28,78,47c0,0,-27,15,-52,33c0,0,-90,70,-90,185c0,0,0,130,90,209c0,0,91,80,239,80c0,0,148,0,238,-80c0,0,91,-79,91,-209c0,0,0,-115,-91,-185c0,0,-24,-19,-52,-32c0,0,44,-20,79,-49c0,0,101,-81,101,-215c0,0,0,-151,-101,-243c0,0,-100,-90,-265,-90Z" 
id="f1_r"
transform="scale(0.001,-0.001)" />

<path d="M417,-28c0,0,-161,0,-259,79c0,0,-98,81,-109,223H189c0,0,11,-90,72,-139c0,0,61,-49,162,-49c0,0,96,0,158,68c0,0,61,68,61,175c0,0,0,112,-64,178c0,0,-64,66,-173,66c0,0,-59,0,-115,-28c0,0,-55,-29,-84,-73L93,480l77,573H727V922H271L225,629l4,3c0,0,89,60,188,60c0,0,169,0,269,-94c0,0,99,-93,99,-253c0,0,0,-165,-103,-269C682,76,579,-28,417,-28Z" 
id="f1_o"
transform="scale(0.001,-0.001)" />

<path d="M424,-28c0,0,-180,0,-272,86c0,0,-92,87,-100,266H192c0,0,12,-126,66,-180c0,0,55,-54,170,-54c0,0,100,0,163,57c0,0,64,57,64,147c0,0,0,94,-61,149c0,0,-52,48,-135,54c0,0,-38,2,-72,2c0,0,-34,0,-45,-3V613c0,0,17,-3,51,-3c0,0,35,0,68,4c0,0,66,8,106,43c0,0,55,45,55,125c0,0,0,77,-58,125c0,0,-58,48,-148,48c0,0,-96,0,-147,-58c0,0,-51,-59,-56,-175H82c0,0,0,168,89,260c0,0,88,93,250,93c0,0,153,0,247,-77c0,0,94,-76,94,-202c0,0,0,-124,-95,-201c0,0,-18,-15,-39,-27c0,0,39,-17,69,-41c0,0,101,-79,101,-214c0,0,0,-151,-105,-246c0,0,-104,-95,-269,-95Z" 
id="f1_m"
transform="scale(0.001,-0.001)" />

<path d="M17,0L389,412L201,800H376L500,518L742,800H904L554,410L750,0H580L448,303L187,0Z" 
id="f2_2j"
transform="scale(0.001,-0.001)" />

<path d="M0,214v74H784V214ZM0,494v72H784V494Z" 
id="f3_x"
transform="scale(0.001,-0.001)" />

<path d="M419,483c0,0,93,0,152,66c0,0,59,66,59,169c0,0,0,103,-59,169c0,0,-59,65,-152,65c0,0,-94,0,-153,-65c0,0,-59,-66,-59,-169c0,0,0,-103,59,-169c0,0,59,-66,153,-66ZM397,-28c0,0,-143,0,-227,75c0,0,-85,77,-91,211H209c0,0,8,-83,57,-128c0,0,49,-45,131,-45c0,0,121,0,186,135c0,0,48,101,62,265C645,485,545,362,397,362c0,0,-150,0,-241,98c0,0,-91,98,-91,258c0,0,0,160,99,258c0,0,99,98,262,98c0,0,173,0,266,-123c0,0,94,-123,94,-349c0,0,0,-303,-101,-467C685,135,583,-28,397,-28Z" 
id="f1_s"
transform="scale(0.001,-0.001)" />

<path d="M424,92c0,0,114,0,170,107c0,0,57,108,56,323c0,0,1,216,-56,324c0,0,-56,107,-170,107c0,0,-112,0,-168,-107c0,0,-56,-108,-57,-324c0,0,1,-215,57,-323c0,0,56,-107,168,-107Zm0,-120c0,0,-176,0,-271,142c0,0,-96,143,-96,408c0,0,0,265,96,409c0,0,95,144,271,144c0,0,178,0,273,-144c0,0,96,-144,96,-409c0,0,0,-265,-96,-408c0,0,-95,-142,-273,-142Z" 
id="f1_j"
transform="scale(0.001,-0.001)" />

<path d="M102,0L329,1097H464L333,467L745,800H921L546,501L769,0H595L429,409L300,306L237,0Z" 
id="f2_26"
transform="scale(0.001,-0.001)" />

<path d="M39,0V0c0,0,0,170,84,277c0,0,85,108,317,236c0,0,113,62,154,115c0,0,41,52,41,134c0,0,0,86,-62,141c0,0,-61,54,-156,54c0,0,-101,0,-158,-68c0,0,-57,-68,-60,-194H67c0,0,-2,178,95,279c0,0,98,101,273,101c0,0,149,0,245,-89c0,0,94,-88,94,-228c0,0,0,-118,-60,-195c0,0,-61,-76,-229,-169C485,394,303,294,237,212c0,0,-28,-36,-46,-81H774V0Z" 
id="f1_l"
transform="scale(0.001,-0.001)" />

<path d="M511,373V863L169,383l-7,-10ZM511,0V258H38V383l496,691H646V373H799V258H646V0Z" 
id="f1_n"
transform="scale(0.001,-0.001)" />

<path d="M393,-20c0,0,-169,0,-252,65c0,0,-83,67,-92,210H178c0,0,10,-85,61,-123c0,0,50,-38,154,-38c0,0,90,0,136,34c0,0,47,35,47,100c0,0,0,42,-31,64c0,0,-30,21,-123,43L283,368c0,0,-112,27,-160,75c0,0,-48,48,-48,135c0,0,0,112,80,178c0,0,81,66,218,66c0,0,140,0,222,-68c0,0,82,-67,88,-187H557c0,0,-6,67,-55,103c0,0,-48,37,-129,37c0,0,-84,0,-127,-29c0,0,-44,-29,-44,-85c0,0,0,-43,31,-65c0,0,30,-21,121,-43L493,452c0,0,117,-28,167,-78c0,0,49,-49,49,-138c0,0,0,-119,-86,-188c0,0,-85,-68,-230,-68Z" 
id="f1_2e"
transform="scale(0.001,-0.001)" />

<path d="M406,93c0,0,97,0,156,73c0,0,59,74,59,195c0,0,0,163,-56,252c0,0,-55,88,-158,88c0,0,-111,0,-162,-72c0,0,-51,-73,-51,-229c0,0,0,-147,55,-227c0,0,55,-80,157,-80ZM621,-315V93l-7,-9C614,84,532,-20,400,-20c0,0,-159,0,-253,118c0,0,-93,119,-93,323c0,0,0,180,90,291c0,0,91,110,237,110c0,0,146,0,231,-124c0,0,10,-14,17,-29V799H755V-315Z" 
id="f1_2c"
transform="scale(0.001,-0.001)" />

<path d="M375,-20c0,0,-136,0,-203,66c0,0,-68,68,-68,204V799H238V284c0,0,0,-101,38,-146c0,0,39,-44,127,-44c0,0,97,0,153,75c0,0,57,75,57,203V799H747V0H620V122c0,0,-14,-22,-30,-41C590,81,504,-20,375,-20Z" 
id="f1_2g"
transform="scale(0.001,-0.001)" />

<path d="M99,0V799H226V681l30,39c0,0,87,102,219,102c0,0,132,0,203,-71c0,0,72,-72,72,-204V0H616V502c0,0,0,105,-41,151c0,0,-40,47,-132,47c0,0,-97,0,-154,-73c0,0,-56,-74,-56,-199V0Z" 
id="f1_29"
transform="scale(0.001,-0.001)" />

<path d="M104,0V799H238V0Zm-2,946v152H239V946Z" 
id="f1_24"
transform="scale(0.001,-0.001)" />

<path d="M292,-9c0,0,-88,0,-124,38c0,0,-36,39,-36,134V689H22V799H132v224H266V799H392V689H266V163c0,0,0,-27,21,-43c0,0,21,-15,57,-15h48V1C392,1,324,-9,292,-9Z" 
id="f1_2f"
transform="scale(0.001,-0.001)" />

<path d="M60,-2V110H833V-2ZM390,171V417H60V529H390V774H503V529H833V417H503V171Z" 
id="f1_3b"
transform="scale(0.001,-0.001)" />

<path d="M432,92c0,0,96,0,156,66c0,0,61,65,61,169c0,0,0,103,-61,169c0,0,-60,66,-156,66c0,0,-95,0,-156,-66c0,0,-61,-66,-61,-169c0,0,0,-104,61,-169c0,0,61,-66,156,-66ZM425,-28c0,0,-176,0,-271,135c0,0,-95,136,-95,388c0,0,0,278,103,429c0,0,103,151,293,151c0,0,142,0,226,-77c0,0,84,-76,90,-211H638c0,0,-8,80,-56,123c0,0,-47,43,-127,43c0,0,-125,0,-192,-119c0,0,-58,-102,-64,-278c0,0,100,127,255,127c0,0,152,0,245,-98c0,0,93,-98,93,-258c0,0,0,-161,-101,-259c0,0,-101,-96,-266,-96Z" 
id="f1_p"
transform="scale(0.001,-0.001)" />

<path d="M0,-123V1415H525v-72H72V-123Z" 
id="f3_4r"
transform="scale(0.001,-0.001)" />

<path d="M478,-123V1343H26v72H550V-123Z" 
id="f3_57"
transform="scale(0.001,-0.001)" />

<path d="M0,-123V1415H72V-123Z" 
id="f3_4s"
transform="scale(0.001,-0.001)" />

<path d="M0,-123V1415H72V-123Z" 
id="f3_58"
transform="scale(0.001,-0.001)" />

<path d="M0,356v74H784V356Z" 
id="f3_h"
transform="scale(0.001,-0.001)" />

<path d="M0,-123V1415H72V-51H525v-72Z" 
id="f3_4t"
transform="scale(0.001,-0.001)" />

<path d="M26,-123v72H478V1415h72V-123Z" 
id="f3_59"
transform="scale(0.001,-0.001)" />

<path d="M144,-381V1146H255V-381Z" 
id="f1_2n"
transform="scale(0.001,-0.001)" />

<path d="M780,449L714,934L435,449ZM22,0L673,1097H839L998,0H839L797,318H359L178,0Z" 
id="f2_10"
transform="scale(0.001,-0.001)" />

<path d="M617,129c0,0,118,0,194,71c0,0,75,70,75,182c0,0,1,59,-55,93c0,0,-56,34,-152,34H368L289,129Zm58,503c0,0,120,0,188,59c0,0,68,58,68,163c0,0,0,57,-50,85c0,0,-50,29,-146,29H462L393,632ZM113,0L340,1097H825c0,0,122,0,191,-55c0,0,69,-55,69,-153c0,0,0,-160,-113,-251c0,0,-35,-26,-77,-46c0,0,27,-12,52,-28c0,0,89,-61,89,-166c0,0,0,-171,-127,-285C909,113,782,0,591,0Z" 
id="f2_11"
transform="scale(0.001,-0.001)" />

<path d="M133,-224v71c0,0,47,8,65,52c0,0,14,33,17,101H133V163H292V27c0,0,0,-114,-36,-172c0,0,-37,-58,-123,-79Z" 
id="f1_f"
transform="scale(0.001,-0.001)" />

<path d="M99,-328c0,0,-46,0,-76,13l25,123c0,0,29,-14,81,-14c0,0,47,0,76,31c0,0,28,31,106,162L185,800H339L415,141L769,800H918L456,0C456,0,329,-216,269,-272c0,0,-61,-56,-170,-56Z" 
id="f2_2k"
transform="scale(0.001,-0.001)" />

<path d="M47,0L58,55l11,55L675,688H237l11,56l11,56H869L857,745L846,690L245,111H740L729,56L718,0Z" 
id="f2_2l"
transform="scale(0.001,-0.001)" />

<path d="M250,0L191,800H336L357,162L653,800H797L819,163l296,637h134L855,0H715L685,627L389,0Z" 
id="f2_2i"
transform="scale(0.001,-0.001)" />

<path d="M583,129c0,0,179,0,304,167c0,0,125,166,125,407c0,0,0,128,-68,196c0,0,-68,69,-193,69H473L299,129ZM124,0L351,1097H777c0,0,187,0,288,-94c0,0,101,-93,101,-267c0,0,0,-317,-174,-526C992,210,818,0,556,0Z" 
id="f2_13"
transform="scale(0.001,-0.001)" />

<path d="M424,94c0,0,107,0,169,83c0,0,63,83,63,223c0,0,0,140,-63,224c0,0,-62,83,-169,83c0,0,-106,0,-168,-83c0,0,-62,-84,-62,-224c0,0,0,-140,62,-223c0,0,62,-83,168,-83Zm0,-114c0,0,-165,0,-268,115C156,95,54,211,54,400c0,0,0,189,102,306c0,0,103,116,268,116c0,0,168,0,270,-116c0,0,102,-117,102,-306c0,0,0,-189,-102,-305C694,95,592,-20,424,-20Z" 
id="f1_2a"
transform="scale(0.001,-0.001)" />

<path d="M118,0V799H246V662c0,0,17,32,36,58c0,0,76,102,187,102c0,0,19,0,38,-6V679l-27,1c0,0,-109,0,-168,-66c0,0,-60,-65,-60,-186V0Z" 
id="f1_2d"
transform="scale(0.001,-0.001)" />

<path d="M131,0L274,688H168l23,112H296l26,125c0,0,20,98,82,143c0,0,62,46,176,46c0,0,33,0,59,-5L609,990c0,0,0,3,-53,3c0,0,-45,0,-70,-25c0,0,-25,-25,-37,-83L431,800H575L553,688H409L266,0Z" 
id="f2_21"
transform="scale(0.001,-0.001)" />

<path d="M365,-315c0,0,-136,187,-199,359c0,0,-62,172,-62,359c0,0,0,186,62,358c0,0,63,172,199,360h92c0,0,-110,-192,-160,-365c0,0,-51,-172,-51,-353c0,0,0,-183,51,-355c0,0,50,-172,160,-363Z" 
id="f1_b"
transform="scale(0.001,-0.001)" />

<path d="M-12,-315c0,0,149,193,235,364c0,0,86,172,123,353c0,0,37,181,23,354c0,0,-15,172,-85,365h92c0,0,97,-188,124,-360c0,0,27,-172,-12,-359C488,402,449,215,351,43c0,0,-97,-171,-272,-358Z" 
id="f2_c"
transform="scale(0.001,-0.001)" />

<path d="M435,0V856c0,0,-48,-47,-127,-93c0,0,-79,-46,-142,-69V824c0,0,113,52,197,128c0,0,85,75,120,146h86V0Z" 
id="f4_l"
transform="scale(0.001,-0.001)" />

<path d="M125,0V1051H268V115H799V0Z" 
id="f0_1c"
transform="scale(0.001,-0.001)" />

<path d="M106,0V620c0,0,0,85,-5,188H228c0,0,6,-138,6,-165h3c0,0,32,103,74,141c0,0,42,38,118,38c0,0,27,0,54,-7V692c0,0,-26,7,-71,7c0,0,-84,0,-128,-72c0,0,-44,-72,-44,-206V0Z" 
id="f0_2e"
transform="scale(0.001,-0.001)" />

<path d="M606,-14c0,0,-164,0,-284,65c0,0,-119,66,-182,189c0,0,-63,123,-63,291c0,0,0,255,137,396c0,0,137,140,386,140c0,0,174,0,283,-59c0,0,109,-59,168,-189L915,779c0,0,-44,90,-123,131c0,0,-79,41,-196,41c0,0,-182,0,-278,-110c0,0,-96,-110,-96,-310c0,0,0,-200,102,-315c0,0,102,-115,282,-115c0,0,103,0,193,31c0,0,89,31,144,85V407H629V526h445V164c0,0,-83,-85,-205,-132c0,0,-121,-46,-263,-46Z" 
id="f0_17"
transform="scale(0.001,-0.001)" />

<path d="M355,-14c0,0,-133,0,-194,65c0,0,-62,66,-62,219V808H234V296c0,0,0,-80,16,-124c0,0,16,-44,50,-64c0,0,34,-19,101,-19c0,0,97,0,153,66c0,0,55,67,55,185V808H744V172c0,0,0,-141,4,-172H621c0,0,0,4,-1,20c0,0,-1,17,-2,38c0,0,-1,21,-3,80h-2C613,138,567,55,506,20c0,0,-61,-34,-151,-34Z" 
id="f0_2h"
transform="scale(0.001,-0.001)" />

<path d="M395,89c0,0,115,0,166,79c0,0,51,79,51,246c0,0,0,160,-51,235c0,0,-51,75,-164,75c0,0,-102,0,-147,-75c0,0,-45,-75,-45,-244c0,0,0,-170,45,-243c0,0,45,-73,145,-73ZM361,-14c0,0,-153,0,-225,102c0,0,-72,103,-72,312c0,0,0,422,297,422c0,0,92,0,153,-33c0,0,61,-34,98,-107h2l-2,90v335H747V166c0,0,0,-126,4,-166H623c0,0,-2,12,-5,55c0,0,-3,44,-3,75h-3c0,0,-37,-78,-98,-111c0,0,-62,-33,-153,-33Z" 
id="f0_20"
transform="scale(0.001,-0.001)" />

<path d="M140,0V163H285V0Z" 
id="f0_i"
transform="scale(0.001,-0.001)" />


</defs>
</svg>