<?xml version="1.0" encoding="UTF-8" standalone="no"?>
<!DOCTYPE svg PUBLIC "-//W3C//DTD SVG 1.1//EN"
"http://www.w3.org/Graphics/SVG/1.1/DTD/svg11.dtd">
<svg viewBox="0 0 811 1133" version="1.1" xmlns="http://www.w3.org/2000/svg" xmlns:xlink="http://www.w3.org/1999/xlink">
<defs>
<style type="text/css"><![CDATA[
.g0_57{
fill: none;
stroke: #000000;
stroke-width: 0.7663334;
stroke-linecap: round;
stroke-linejoin: miter;
}
.g1_57{
fill: none;
stroke: #000000;
stroke-width: 0.15277778;
stroke-linecap: round;
stroke-linejoin: miter;
}
.g2_57{
}
.g3_57{
fill: none;
stroke: #000000;
stroke-width: 0.7665778;
stroke-linecap: round;
stroke-linejoin: miter;
}
.g4_57{
fill: none;
stroke: #000000;
stroke-width: 0.7695111;
stroke-linecap: round;
stroke-linejoin: miter;
}
.g5_57{
fill: none;
stroke: #000000;
stroke-width: 0.75997776;
stroke-linecap: round;
stroke-linejoin: miter;
}
.g6_57{
fill: none;
stroke: #000000;
stroke-width: 0.86362225;
stroke-linecap: round;
stroke-linejoin: miter;
}
.g7_57{
fill: none;
stroke: #000000;
stroke-width: 0.7685333;
stroke-linecap: round;
stroke-linejoin: miter;
}
.g8_57{
fill: none;
stroke: #000000;
stroke-width: 0.7660889;
stroke-linecap: round;
stroke-linejoin: miter;
}
.g9_57{
fill: none;
stroke: #000000;
stroke-width: 0.7670667;
stroke-linecap: round;
stroke-linejoin: miter;
}
.g10_57{
fill: none;
stroke: #000000;
stroke-width: 0.7638889;
stroke-linecap: round;
stroke-linejoin: miter;
}
.g11_57{
fill: none;
stroke: #000000;
stroke-width: 0.7668222;
stroke-linecap: round;
stroke-linejoin: miter;
}
.g12_57{
fill: none;
stroke: #000000;
stroke-width: 0.7604667;
stroke-linecap: round;
stroke-linejoin: miter;
}
.g13_57{
fill: none;
stroke: #000000;
stroke-width: 0.7616889;
stroke-linecap: round;
stroke-linejoin: miter;
}
.g14_57{
fill: none;
stroke: #000000;
stroke-width: 0.76144445;
stroke-linecap: round;
stroke-linejoin: miter;
}
]]></style>
</defs>
<g fill="#D4D4D4" fill-opacity="0.56" >
<use xlink:href="#f0_1f" transform="matrix(50.9,-50.9,50.9,50.9,199.9,924.1)" />
<use xlink:href="#f0_2a" transform="matrix(50.9,-50.9,50.9,50.9,260.4,863.6)" />
<use xlink:href="#f0_28" transform="matrix(50.9,-50.9,50.9,50.9,303.7,820.3)" />
<use xlink:href="#f0_25" transform="matrix(50.9,-50.9,50.9,50.9,320.9,803.1)" />
<use xlink:href="#f0_2a" transform="matrix(50.9,-50.9,50.9,50.9,338.2,785.8)" />
<use xlink:href="#f0_21" transform="matrix(50.9,-50.9,50.9,50.9,381.4,742.5)" />
<use xlink:href="#f0_2k" transform="matrix(50.9,-50.9,50.9,50.9,424.7,699.3)" />
<use xlink:href="#f0_1x" transform="matrix(50.9,-50.9,50.9,50.9,463.6,660.4)" />
<use xlink:href="#f0_29" transform="matrix(50.9,-50.9,50.9,50.9,506.8,617.2)" />
<use xlink:href="#f0_2c" transform="matrix(50.9,-50.9,50.9,50.9,571.6,552.4)" />
<use xlink:href="#f0_2b" transform="matrix(50.9,-50.9,50.9,50.9,614.9,509.1)" />
<use xlink:href="#f0_25" transform="matrix(50.9,-50.9,50.9,50.9,658.1,465.9)" />
<use xlink:href="#f0_2a" transform="matrix(50.9,-50.9,50.9,50.9,675.4,448.6)" />
<use xlink:href="#f0_2g" transform="matrix(50.9,-50.9,50.9,50.9,718.6,405.4)" />
</g>
<g fill="#000000" >
<use xlink:href="#f1_k" transform="matrix(10.4,0,0,10.4,129.2,81.4)" />
<use xlink:href="#f1_m" transform="matrix(10.4,0,0,10.4,138.1,81.4)" />
<use xlink:href="#f1_h" transform="matrix(10.4,0,0,10.4,147.3,81.4)" />
</g>
<path d="M182.3,77.5h88.4" class="g0_57" />
<g fill="#000000" >
<use xlink:href="#f1_l" transform="matrix(7,0,0,7.1,203.3,88.2)" />
<use xlink:href="#f1_l" transform="matrix(7,0,0,7.1,250.4,88.2)" />
<use xlink:href="#f1_k" transform="matrix(10.6,0,0,10.6,222.9,71.2)" />
<use xlink:href="#f1_h" transform="matrix(10.6,0,0,10.6,290.6,81.8)" />
<use xlink:href="#f1_2e" transform="matrix(10.6,0,0,10.6,183,95.5)" />
<use xlink:href="#f1_24" transform="matrix(10.6,0,0,10.6,191.1,95.5)" />
<use xlink:href="#f1_29" transform="matrix(10.6,0,0,10.6,194.7,95.5)" />
<use xlink:href="#f1_1y" transform="matrix(10.6,0,0,10.6,224.9,95.5)" />
<use xlink:href="#f1_2a" transform="matrix(10.6,0,0,10.6,233,95.5)" />
<use xlink:href="#f1_2e" transform="matrix(10.6,0,0,10.6,242,95.5)" />
<use xlink:href="#f2_1z" transform="matrix(10.6,0,0,10.6,272.5,81.8)" />
<use xlink:href="#f2_2j" transform="matrix(10.6,0,0,10.6,281.5,81.8)" />
<use xlink:href="#f2_2j" transform="matrix(10.6,0,0,10.6,213.1,95.5)" />
<use xlink:href="#f2_2j" transform="matrix(10.6,0,0,10.6,260.3,95.5)" />
<use xlink:href="#f3_50" transform="matrix(15.9,0,0,15.9,172.6,87.1)" />
<use xlink:href="#f1_k" transform="matrix(10.4,0,0,10.4,404.2,81.4)" />
<use xlink:href="#f1_n" transform="matrix(10.4,0,0,10.4,413.1,81.4)" />
<use xlink:href="#f1_h" transform="matrix(10.4,0,0,10.4,422.3,81.4)" />
</g>
<path d="M458.6,91.1l1.6,-.9l4,6.5l4.2,-17.1h11.5" class="g1_57" />
<path fill-rule="evenodd" d="M458.5,90.9l2.1,-1.2l3.6,5.4l4,-15.8h11.7V80H468.7l-4.1,16.7h-.8l-4,-6l-1,.7l-.3,-.5Z" class="g2_57" />
<path d="M496.6,91.1l1.6,-.9l4,6.5l4.2,-17.1h32.1" class="g1_57" />
<path fill-rule="evenodd" d="M496.5,90.9l2.1,-1.2l3.6,5.4l4,-15.8h32.3V80H506.7l-4.1,16.7h-.8l-4,-6l-1,.7l-.3,-.5Z" class="g2_57" />
<path d="M457.3,76.9h82.5" class="g3_57" />
<g fill="#000000" >
<use xlink:href="#f1_k" transform="matrix(10.6,0,0,10.6,494.8,70.7)" />
<use xlink:href="#f1_h" transform="matrix(10.6,0,0,10.6,560.1,81.2)" />
<use xlink:href="#f1_k" transform="matrix(10.6,0,0,10.6,531.6,95.4)" />
<use xlink:href="#f2_1z" transform="matrix(10.6,0,0,10.6,541.5,81.2)" />
<use xlink:href="#f2_2j" transform="matrix(10.6,0,0,10.6,550.4,81.2)" />
<use xlink:href="#f2_2j" transform="matrix(10.6,0,0,10.6,469.1,95.4)" />
<use xlink:href="#f2_2j" transform="matrix(10.6,0,0,10.6,507.2,95.4)" />
<use xlink:href="#f3_f" transform="matrix(10.6,0,0,10.6,483.7,95.4)" />
<use xlink:href="#f3_h" transform="matrix(10.6,0,0,10.6,520.8,95.4)" />
<use xlink:href="#f3_50" transform="matrix(15.9,0,0,15.9,447.5,86.6)" />
<use xlink:href="#f1_k" transform="matrix(10.4,0,0,10.4,129.2,155.7)" />
<use xlink:href="#f1_o" transform="matrix(10.4,0,0,10.4,138.1,155.7)" />
<use xlink:href="#f1_h" transform="matrix(10.4,0,0,10.4,147.3,155.7)" />
<use xlink:href="#f1_27" transform="matrix(7,0,0,7.1,198.6,147.8)" />
<use xlink:href="#f1_2a" transform="matrix(7,0,0,7.1,200.9,147.8)" />
<use xlink:href="#f1_22" transform="matrix(7,0,0,7.1,206.9,147.8)" />
<use xlink:href="#f1_h" transform="matrix(10.5,0,0,10.6,246.1,155.1)" />
<use xlink:href="#f2_2j" transform="matrix(6,0,0,6,220.4,143)" />
<use xlink:href="#f2_20" transform="matrix(7,0,0,7.1,213.6,147.8)" />
<use xlink:href="#f2_20" transform="matrix(10.5,0,0,10.6,180.7,155.1)" />
<use xlink:href="#f2_1z" transform="matrix(10.5,0,0,10.6,227.5,155.1)" />
<use xlink:href="#f2_2j" transform="matrix(10.5,0,0,10.6,236.4,155.1)" />
<use xlink:href="#f3_h" transform="matrix(7,0,0,7.1,191.3,147.8)" />
<use xlink:href="#f3_50" transform="matrix(15.9,0,0,15.9,172.6,160.4)" />
<use xlink:href="#f1_k" transform="matrix(10.4,0,0,10.4,404.2,155.7)" />
<use xlink:href="#f1_p" transform="matrix(10.4,0,0,10.4,413.1,155.7)" />
<use xlink:href="#f1_h" transform="matrix(10.4,0,0,10.4,422.3,155.7)" />
</g>
<path d="M457.3,150.1h19.6" class="g4_57" />
<g fill="#000000" >
<use xlink:href="#f1_h" transform="matrix(10.5,0,0,10.4,497.1,154.3)" />
<use xlink:href="#f2_2j" transform="matrix(7,0,0,7,467.5,136.8)" />
<use xlink:href="#f2_2j" transform="matrix(7,0,0,7,467.4,160.6)" />
<use xlink:href="#f2_20" transform="matrix(10.5,0,0,10.4,456.9,143.9)" />
<use xlink:href="#f2_1z" transform="matrix(10.5,0,0,10.4,478.4,154.3)" />
<use xlink:href="#f2_2j" transform="matrix(10.5,0,0,10.4,487.5,154.3)" />
<use xlink:href="#f2_1w" transform="matrix(10.5,0,0,10.4,457.4,167.8)" />
<use xlink:href="#f3_50" transform="matrix(15.7,0,0,15.7,447.5,159.6)" />
<use xlink:href="#f1_k" transform="matrix(10.4,0,0,10.4,129.2,224.6)" />
<use xlink:href="#f1_q" transform="matrix(10.4,0,0,10.4,138.1,224.6)" />
<use xlink:href="#f1_h" transform="matrix(10.4,0,0,10.4,147.3,224.6)" />
<use xlink:href="#f1_l" transform="matrix(10.6,0,0,10.5,181.8,223)" />
<use xlink:href="#f1_h" transform="matrix(10.6,0,0,10.5,234.8,223)" />
<use xlink:href="#f2_2j" transform="matrix(7,0,0,7,191,215.8)" />
<use xlink:href="#f2_2j" transform="matrix(7,0,0,7,209.3,215.8)" />
<use xlink:href="#f2_20" transform="matrix(10.6,0,0,10.5,198.9,223)" />
<use xlink:href="#f2_1z" transform="matrix(10.6,0,0,10.5,216.1,223)" />
<use xlink:href="#f2_2j" transform="matrix(10.6,0,0,10.5,225.1,223)" />
<use xlink:href="#f3_50" transform="matrix(15.8,0,0,15.8,172.7,228.3)" />
<use xlink:href="#f1_k" transform="matrix(10.4,0,0,10.4,404.2,224.6)" />
<use xlink:href="#f1_r" transform="matrix(10.4,0,0,10.4,413.1,224.6)" />
<use xlink:href="#f1_h" transform="matrix(10.4,0,0,10.4,422.3,224.6)" />
</g>
<path d="M458.5,234.3l1.6,-.9l3.9,6.4l4.2,-17h31.9" class="g1_57" />
<path fill-rule="evenodd" d="M458.4,234.1l2.1,-1.2l3.5,5.4l4,-15.9h32.1v.8H468.5l-4.1,16.6h-.8l-3.9,-5.9l-1,.6l-.3,-.4Z" class="g2_57" />
<path d="M457.2,220.1h44.1" class="g5_57" />
<g fill="#000000" >
<use xlink:href="#f1_h" transform="matrix(10.7,0,0,10.6,521.3,224.4)" />
<use xlink:href="#f1_k" transform="matrix(10.7,0,0,10.6,493.1,238.6)" />
<use xlink:href="#f2_2j" transform="matrix(10.7,0,0,10.6,474.4,213.9)" />
<use xlink:href="#f2_1z" transform="matrix(10.7,0,0,10.6,502.9,224.4)" />
<use xlink:href="#f2_2j" transform="matrix(10.7,0,0,10.6,512,224.4)" />
<use xlink:href="#f2_2j" transform="matrix(10.7,0,0,10.6,468.9,238.6)" />
<use xlink:href="#f3_f" transform="matrix(10.6,0,0,10.6,482.1,238.6)" />
<use xlink:href="#f3_50" transform="matrix(15.9,0,0,15.9,447.5,229.8)" />
<use xlink:href="#f1_k" transform="matrix(10.4,0,0,10.4,129.2,302.5)" />
<use xlink:href="#f1_s" transform="matrix(10.4,0,0,10.4,138.1,302.5)" />
<use xlink:href="#f1_h" transform="matrix(10.4,0,0,10.4,147.3,302.5)" />
<use xlink:href="#f3_c" transform="matrix(11.7,0,0,12.8,184.4,318.9)" />
<use xlink:href="#f3_d" transform="matrix(11.7,0,0,12.8,226.2,318.9)" />
</g>
<path d="M183.9,298.9h57.7" class="g6_57" />
<g fill="#000000" >
<use xlink:href="#f3_f" transform="matrix(11.8,0,0,11.8,206.1,321.3)" />
<use xlink:href="#f3_50" transform="matrix(17.7,0,0,17.7,173,309.6)" />
<use xlink:href="#f1_l" transform="matrix(7.9,0,0,7.9,232.1,310.8)" />
<use xlink:href="#f1_h" transform="matrix(11.9,0,0,11.8,264.3,303.7)" />
<use xlink:href="#f1_k" transform="matrix(11.9,0,0,11.8,218.6,321.3)" />
<use xlink:href="#f2_2j" transform="matrix(11.9,0,0,11.8,207.2,292)" />
<use xlink:href="#f2_1z" transform="matrix(11.9,0,0,11.8,243.4,303.7)" />
<use xlink:href="#f2_2j" transform="matrix(11.9,0,0,11.8,253.4,303.7)" />
<use xlink:href="#f2_2j" transform="matrix(11.9,0,0,11.8,191.1,321.3)" />
<use xlink:href="#f1_l" transform="matrix(10.4,0,0,10.4,404.2,302.5)" />
<use xlink:href="#f1_j" transform="matrix(10.4,0,0,10.4,413.1,302.5)" />
<use xlink:href="#f1_h" transform="matrix(10.4,0,0,10.4,422.3,302.5)" />
</g>
<path d="M467.7,280.7l1.1,-.7l2.6,4.2l2.8,-11.1H482" class="g1_57" />
<path fill-rule="evenodd" d="M467.6,280.5l1.4,-.8l2.4,3.6l2.7,-10.5H482v.5h-7.6l-2.8,10.9h-.4l-2.7,-3.8l-.7,.4l-.2,-.3Z" class="g2_57" />
<path d="M460.5,310.8l1.6,-.9l4,6.4l4.2,-16.8h11.6" class="g1_57" />
<path fill-rule="evenodd" d="M460.4,310.6l2.1,-1.2l3.6,5.4L470,299.1h11.9v.8H470.6l-4.2,16.4h-.7l-4,-5.9l-1.1,.7l-.2,-.5Z" class="g2_57" />
<path d="M457.3,296.8h27.6" class="g7_57" />
<g fill="#000000" >
<use xlink:href="#f1_h" transform="matrix(10.5,0,0,10.5,505.1,301)" />
<use xlink:href="#f2_2j" transform="matrix(7,0,0,7,474.8,283.4)" />
<use xlink:href="#f2_20" transform="matrix(10.5,0,0,10.5,457,290.6)" />
<use xlink:href="#f2_1z" transform="matrix(10.5,0,0,10.5,486.5,301)" />
<use xlink:href="#f2_2j" transform="matrix(10.5,0,0,10.5,495.5,301)" />
<use xlink:href="#f2_2j" transform="matrix(10.5,0,0,10.5,471,315.1)" />
<use xlink:href="#f3_50" transform="matrix(15.8,0,0,15.8,447.7,306.3)" />
<use xlink:href="#f1_l" transform="matrix(10.4,0,0,10.4,129.2,373.8)" />
<use xlink:href="#f1_k" transform="matrix(10.4,0,0,10.4,138.1,373.8)" />
<use xlink:href="#f1_h" transform="matrix(10.4,0,0,10.4,147.3,373.8)" />
<use xlink:href="#f1_l" transform="matrix(7,0,0,7,207.4,365)" />
<use xlink:href="#f1_1y" transform="matrix(10.6,0,0,10.5,181.8,372.2)" />
<use xlink:href="#f1_2a" transform="matrix(10.6,0,0,10.5,189.9,372.2)" />
<use xlink:href="#f1_2e" transform="matrix(10.6,0,0,10.5,198.9,372.2)" />
<use xlink:href="#f1_h" transform="matrix(10.6,0,0,10.5,249.4,372.2)" />
<use xlink:href="#f2_1z" transform="matrix(10.6,0,0,10.5,230.9,372.2)" />
<use xlink:href="#f2_2j" transform="matrix(10.6,0,0,10.5,239.9,372.2)" />
<use xlink:href="#f3_1x" transform="matrix(10.5,0,0,10.5,216.9,372.2)" />
<use xlink:href="#f3_50" transform="matrix(15.8,0,0,15.8,172.6,377.6)" />
<use xlink:href="#f1_l" transform="matrix(10.4,0,0,10.4,404.2,373.8)" />
<use xlink:href="#f1_l" transform="matrix(10.4,0,0,10.4,413.1,373.8)" />
<use xlink:href="#f1_h" transform="matrix(10.4,0,0,10.4,422.3,373.8)" />
</g>
<path d="M457.3,368.2h71.9" class="g3_57" />
<g fill="#000000" >
<use xlink:href="#f1_k" transform="matrix(10.4,0,0,10.4,489.4,362.1)" />
<use xlink:href="#f1_h" transform="matrix(10.4,0,0,10.4,551.6,372.4)" />
<use xlink:href="#f1_1y" transform="matrix(10.4,0,0,10.4,470.1,384.6)" />
<use xlink:href="#f1_2a" transform="matrix(10.4,0,0,10.4,478.1,384.6)" />
<use xlink:href="#f1_2e" transform="matrix(10.4,0,0,10.4,487.1,384.6)" />
<use xlink:href="#f1_k" transform="matrix(10.4,0,0,10.4,522,384.6)" />
<use xlink:href="#f2_1z" transform="matrix(10.4,0,0,10.4,533,372.4)" />
<use xlink:href="#f2_2j" transform="matrix(10.4,0,0,10.4,542.1,372.4)" />
<use xlink:href="#f2_2j" transform="matrix(10.4,0,0,10.4,458.2,384.6)" />
<use xlink:href="#f3_1x" transform="matrix(10.4,0,0,10.4,497.1,384.6)" />
<use xlink:href="#f3_f" transform="matrix(10.4,0,0,10.4,511,384.6)" />
<use xlink:href="#f3_50" transform="matrix(15.6,0,0,15.6,447.5,377.6)" />
<use xlink:href="#f1_l" transform="matrix(10.4,0,0,10.4,129.2,442.4)" />
<use xlink:href="#f1_m" transform="matrix(10.4,0,0,10.4,138.1,442.4)" />
<use xlink:href="#f1_h" transform="matrix(10.4,0,0,10.4,147.3,442.4)" />
<use xlink:href="#f3_c" transform="matrix(10.4,0,0,11.6,245.7,438.9)" />
<use xlink:href="#f3_d" transform="matrix(10.4,0,0,11.6,338.9,438.8)" />
<use xlink:href="#f1_2e" transform="matrix(10.5,0,0,10.5,181.7,440.8)" />
<use xlink:href="#f1_20" transform="matrix(10.5,0,0,10.5,189.7,440.8)" />
<use xlink:href="#f1_1y" transform="matrix(10.5,0,0,10.5,198.6,440.8)" />
<use xlink:href="#f1_h" transform="matrix(10.5,0,0,10.5,218.2,440.8)" />
<use xlink:href="#f1_27" transform="matrix(10.5,0,0,10.5,223.1,440.8)" />
<use xlink:href="#f1_2a" transform="matrix(10.5,0,0,10.5,226.6,440.8)" />
<use xlink:href="#f1_22" transform="matrix(10.5,0,0,10.5,235.5,440.8)" />
<use xlink:href="#f1_2e" transform="matrix(10.5,0,0,10.5,251.3,440.8)" />
<use xlink:href="#f1_20" transform="matrix(10.5,0,0,10.5,259.3,440.8)" />
<use xlink:href="#f1_1y" transform="matrix(10.5,0,0,10.5,268.2,440.8)" />
<use xlink:href="#f1_2f" transform="matrix(10.5,0,0,10.5,304.1,440.8)" />
<use xlink:href="#f1_1w" transform="matrix(10.5,0,0,10.5,308.5,440.8)" />
<use xlink:href="#f1_29" transform="matrix(10.5,0,0,10.5,317.4,440.8)" />
<use xlink:href="#f1_h" transform="matrix(10.5,0,0,10.5,365.3,440.8)" />
<use xlink:href="#f2_2j" transform="matrix(10.5,0,0,10.5,208.8,440.8)" />
<use xlink:href="#f2_2j" transform="matrix(10.5,0,0,10.5,278.6,440.8)" />
<use xlink:href="#f2_2j" transform="matrix(10.5,0,0,10.5,328.4,440.8)" />
<use xlink:href="#f2_1z" transform="matrix(10.5,0,0,10.5,347.2,440.8)" />
<use xlink:href="#f2_2j" transform="matrix(10.5,0,0,10.5,356.1,440.8)" />
<use xlink:href="#f3_f" transform="matrix(10.5,0,0,10.5,291.8,440.8)" />
<use xlink:href="#f3_50" transform="matrix(15.7,0,0,15.8,172.6,446.1)" />
<use xlink:href="#f1_l" transform="matrix(10.4,0,0,10.4,404.2,442.4)" />
<use xlink:href="#f1_n" transform="matrix(10.4,0,0,10.4,413.1,442.4)" />
<use xlink:href="#f1_h" transform="matrix(10.4,0,0,10.4,422.3,442.4)" />
</g>
<path d="M457.3,435.7h99.3" class="g8_57" />
<g fill="#000000" >
<use xlink:href="#f1_k" transform="matrix(10.4,0,0,10.4,503.1,429.6)" />
<use xlink:href="#f1_h" transform="matrix(10.4,0,0,10.4,578.9,439.9)" />
<use xlink:href="#f1_1y" transform="matrix(10.4,0,0,10.4,458,452.1)" />
<use xlink:href="#f1_2a" transform="matrix(10.4,0,0,10.4,465.9,452.1)" />
<use xlink:href="#f1_2e" transform="matrix(10.4,0,0,10.4,474.9,452.1)" />
<use xlink:href="#f1_2e" transform="matrix(10.4,0,0,10.4,523.1,452.1)" />
<use xlink:href="#f1_24" transform="matrix(10.4,0,0,10.4,531,452.1)" />
<use xlink:href="#f1_29" transform="matrix(10.4,0,0,10.4,534.5,452.1)" />
<use xlink:href="#f2_1z" transform="matrix(10.4,0,0,10.4,560.4,439.9)" />
<use xlink:href="#f2_2j" transform="matrix(10.4,0,0,10.4,569.4,439.9)" />
<use xlink:href="#f2_2j" transform="matrix(10.4,0,0,10.4,511.3,452.1)" />
<use xlink:href="#f3_1x" transform="matrix(10.4,0,0,10.4,485.1,452.1)" />
<use xlink:href="#f3_f" transform="matrix(10.4,0,0,10.4,498.9,452.1)" />
<use xlink:href="#f3_1x" transform="matrix(10.4,0,0,10.4,545.3,452.1)" />
<use xlink:href="#f3_50" transform="matrix(15.6,0,0,15.6,447.7,445.1)" />
<use xlink:href="#f1_l" transform="matrix(10.4,0,0,10.4,129.2,515.2)" />
<use xlink:href="#f1_o" transform="matrix(10.4,0,0,10.4,138.1,515.2)" />
<use xlink:href="#f1_h" transform="matrix(10.4,0,0,10.4,147.3,515.2)" />
<use xlink:href="#f1_1y" transform="matrix(10.5,0,0,10.5,181.7,513.8)" />
<use xlink:href="#f1_2a" transform="matrix(10.5,0,0,10.5,189.7,513.8)" />
<use xlink:href="#f1_2f" transform="matrix(10.5,0,0,10.5,198.6,513.8)" />
<use xlink:href="#f1_h" transform="matrix(10.5,0,0,10.5,214.8,513.8)" />
<use xlink:href="#f1_27" transform="matrix(10.5,0,0,10.5,219.6,513.8)" />
<use xlink:href="#f1_2a" transform="matrix(10.5,0,0,10.5,223.2,513.8)" />
<use xlink:href="#f1_22" transform="matrix(10.5,0,0,10.5,232.1,513.8)" />
<use xlink:href="#f1_2e" transform="matrix(10.5,0,0,10.5,242.5,513.8)" />
<use xlink:href="#f1_24" transform="matrix(10.5,0,0,10.5,250.5,513.8)" />
<use xlink:href="#f1_29" transform="matrix(10.5,0,0,10.5,254,513.8)" />
<use xlink:href="#f1_h" transform="matrix(10.5,0,0,10.5,296.6,513.8)" />
<use xlink:href="#f2_2j" transform="matrix(10.5,0,0,10.5,205.4,513.8)" />
<use xlink:href="#f2_2j" transform="matrix(10.5,0,0,10.5,264.7,513.8)" />
<use xlink:href="#f2_1z" transform="matrix(10.5,0,0,10.5,278.1,513.8)" />
<use xlink:href="#f2_2j" transform="matrix(10.5,0,0,10.5,287,513.8)" />
<use xlink:href="#f3_50" transform="matrix(15.7,0,0,15.8,172.6,519.1)" />
<use xlink:href="#f1_l" transform="matrix(10.4,0,0,10.4,404.2,515.2)" />
<use xlink:href="#f1_p" transform="matrix(10.4,0,0,10.4,413.1,515.2)" />
<use xlink:href="#f1_h" transform="matrix(10.4,0,0,10.4,422.3,515.2)" />
</g>
<path d="M491.3,510.4h10.1" class="g9_57" />
<g fill="#000000" >
<use xlink:href="#f1_m" transform="matrix(7,0,0,7.1,510.4,494.8)" />
<use xlink:href="#f1_k" transform="matrix(10.6,0,0,10.6,492.6,504.2)" />
<use xlink:href="#f1_h" transform="matrix(10.6,0,0,10.6,537.9,514.7)" />
<use xlink:href="#f1_l" transform="matrix(10.6,0,0,10.6,492.1,527.2)" />
<use xlink:href="#f2_2j" transform="matrix(10.6,0,0,10.6,465.2,514.7)" />
<use xlink:href="#f2_1z" transform="matrix(10.6,0,0,10.6,519.3,514.7)" />
<use xlink:href="#f2_2j" transform="matrix(10.6,0,0,10.6,528.3,514.7)" />
<use xlink:href="#f3_4o" transform="matrix(10.6,0,0,10.6,456.8,505.2)" />
<use xlink:href="#f3_54" transform="matrix(10.6,0,0,10.6,502,505.2)" />
<use xlink:href="#f3_h" transform="matrix(10.6,0,0,10.6,478.8,514.7)" />
<use xlink:href="#f3_4p" transform="matrix(10.6,0,0,10.6,456.8,516.8)" />
<use xlink:href="#f3_55" transform="matrix(10.6,0,0,10.6,502,516.8)" />
<use xlink:href="#f3_4q" transform="matrix(10.6,0,0,10.6,456.8,523.7)" />
<use xlink:href="#f3_56" transform="matrix(10.6,0,0,10.6,502,523.7)" />
<use xlink:href="#f3_50" transform="matrix(15.9,0,0,15.9,447.6,520.1)" />
<use xlink:href="#f1_l" transform="matrix(10.4,0,0,10.4,129.2,585.6)" />
<use xlink:href="#f1_q" transform="matrix(10.4,0,0,10.4,138.1,585.6)" />
<use xlink:href="#f1_h" transform="matrix(10.4,0,0,10.4,147.3,585.6)" />
<use xlink:href="#f3_c" transform="matrix(10.4,0,0,14,194.9,596.9)" />
<use xlink:href="#f3_d" transform="matrix(10.4,0,0,14,270.8,596.8)" />
</g>
<path d="M182.2,579.8h94.1" class="g10_57" />
<g fill="#000000" >
<use xlink:href="#f1_k" transform="matrix(10.4,0,0,10.4,225.5,573.7)" />
<use xlink:href="#f1_h" transform="matrix(10.4,0,0,10.4,296.5,584)" />
<use xlink:href="#f1_l" transform="matrix(10.4,0,0,10.4,200.4,596.3)" />
<use xlink:href="#f1_m" transform="matrix(10.4,0,0,10.4,224.5,596.3)" />
<use xlink:href="#f1_27" transform="matrix(10.4,0,0,10.4,236.9,596.3)" />
<use xlink:href="#f1_2a" transform="matrix(10.4,0,0,10.4,240.5,596.3)" />
<use xlink:href="#f1_22" transform="matrix(10.4,0,0,10.4,249.5,596.3)" />
<use xlink:href="#f2_1z" transform="matrix(10.4,0,0,10.4,277.9,584)" />
<use xlink:href="#f2_2j" transform="matrix(10.4,0,0,10.4,286.9,584)" />
<use xlink:href="#f2_2j" transform="matrix(10.4,0,0,10.4,183.1,596.3)" />
<use xlink:href="#f2_2j" transform="matrix(10.4,0,0,10.4,260.1,596.3)" />
<use xlink:href="#f3_f" transform="matrix(10.5,0,0,10.4,212.3,596.3)" />
<use xlink:href="#f3_50" transform="matrix(15.7,0,0,15.6,172.5,589.3)" />
<use xlink:href="#f1_l" transform="matrix(10.4,0,0,10.4,404.2,585.6)" />
<use xlink:href="#f1_r" transform="matrix(10.4,0,0,10.4,413.1,585.6)" />
<use xlink:href="#f1_h" transform="matrix(10.4,0,0,10.4,422.3,585.6)" />
</g>
<path d="M457.3,578.8H522" class="g11_57" />
<g fill="#000000" >
<use xlink:href="#f1_k" transform="matrix(10.4,0,0,10.4,461.9,572.8)" />
<use xlink:href="#f1_2e" transform="matrix(10.4,0,0,10.4,483.8,572.8)" />
<use xlink:href="#f1_24" transform="matrix(10.4,0,0,10.4,491.7,572.8)" />
<use xlink:href="#f1_29" transform="matrix(10.4,0,0,10.4,495.3,572.8)" />
<use xlink:href="#f1_h" transform="matrix(10.4,0,0,10.4,542.2,583)" />
<use xlink:href="#f1_1y" transform="matrix(10.4,0,0,10.4,483.9,595.3)" />
<use xlink:href="#f1_2a" transform="matrix(10.4,0,0,10.4,491.8,595.3)" />
<use xlink:href="#f1_2e" transform="matrix(10.4,0,0,10.4,500.9,595.3)" />
<use xlink:href="#f2_2j" transform="matrix(10.4,0,0,10.4,506,572.8)" />
<use xlink:href="#f2_1z" transform="matrix(10.4,0,0,10.4,523.6,583)" />
<use xlink:href="#f2_2j" transform="matrix(10.4,0,0,10.4,532.6,583)" />
<use xlink:href="#f2_2j" transform="matrix(10.4,0,0,10.4,458.2,595.3)" />
<use xlink:href="#f2_2j" transform="matrix(10.4,0,0,10.4,511.2,595.3)" />
<use xlink:href="#f3_h" transform="matrix(10.4,0,0,10.4,471.6,572.8)" />
<use xlink:href="#f3_f" transform="matrix(10.4,0,0,10.4,471.5,595.3)" />
<use xlink:href="#f3_50" transform="matrix(15.6,0,0,15.6,447.5,588.3)" />
<use xlink:href="#f1_l" transform="matrix(10.4,0,0,10.4,129.2,659.8)" />
<use xlink:href="#f1_s" transform="matrix(10.4,0,0,10.4,138.1,659.8)" />
<use xlink:href="#f1_h" transform="matrix(10.4,0,0,10.4,147.3,659.8)" />
</g>
<path d="M182.2,656h58.9" class="g12_57" />
<g fill="#000000" >
<use xlink:href="#f1_k" transform="matrix(10.4,0,0,10.4,181.7,649.9)" />
<use xlink:href="#f1_1y" transform="matrix(10.4,0,0,10.4,203.4,649.9)" />
<use xlink:href="#f1_2a" transform="matrix(10.4,0,0,10.4,211.4,649.9)" />
<use xlink:href="#f1_2e" transform="matrix(10.4,0,0,10.4,220.2,649.9)" />
<use xlink:href="#f1_h" transform="matrix(10.4,0,0,10.4,261.2,660.2)" />
<use xlink:href="#f1_2e" transform="matrix(10.4,0,0,10.4,195.7,672.5)" />
<use xlink:href="#f1_24" transform="matrix(10.4,0,0,10.4,203.7,672.5)" />
<use xlink:href="#f1_29" transform="matrix(10.4,0,0,10.4,207.2,672.5)" />
<use xlink:href="#f2_2j" transform="matrix(10.4,0,0,10.4,230.4,649.9)" />
<use xlink:href="#f2_1z" transform="matrix(10.4,0,0,10.4,242.7,660.2)" />
<use xlink:href="#f2_2j" transform="matrix(10.4,0,0,10.4,251.6,660.2)" />
<use xlink:href="#f2_2j" transform="matrix(10.4,0,0,10.4,217.7,672.5)" />
<use xlink:href="#f3_h" transform="matrix(10.4,0,0,10.4,191.4,649.9)" />
<use xlink:href="#f3_50" transform="matrix(15.6,0,0,15.6,172.6,665.5)" />
<use xlink:href="#f1_m" transform="matrix(10.4,0,0,10.4,404.2,659.8)" />
<use xlink:href="#f1_j" transform="matrix(10.4,0,0,10.4,413.1,659.8)" />
<use xlink:href="#f1_h" transform="matrix(10.4,0,0,10.4,422.3,659.8)" />
</g>
<path d="M457.2,655.4h74.7" class="g10_57" />
<g fill="#000000" >
<use xlink:href="#f1_k" transform="matrix(7,0,0,6.9,481,642.2)" />
<use xlink:href="#f1_k" transform="matrix(7,0,0,6.9,525.2,642.2)" />
<use xlink:href="#f1_h" transform="matrix(10.4,0,0,10.4,552,659.6)" />
<use xlink:href="#f2_20" transform="matrix(7,0,0,6.9,468,642.2)" />
<use xlink:href="#f2_2j" transform="matrix(7,0,0,6.9,512,642.2)" />
<use xlink:href="#f2_20" transform="matrix(7,0,0,6.9,478.6,665.9)" />
<use xlink:href="#f2_2j" transform="matrix(7,0,0,6.9,512,665.9)" />
<use xlink:href="#f2_2j" transform="matrix(10.4,0,0,10.4,458.1,649.3)" />
<use xlink:href="#f2_20" transform="matrix(10.4,0,0,10.4,501.4,649.3)" />
<use xlink:href="#f2_1z" transform="matrix(10.4,0,0,10.4,533.4,659.6)" />
<use xlink:href="#f2_2j" transform="matrix(10.4,0,0,10.4,542.4,659.6)" />
<use xlink:href="#f2_2j" transform="matrix(10.4,0,0,10.4,468.7,673.1)" />
<use xlink:href="#f2_20" transform="matrix(10.4,0,0,10.4,501.4,673.1)" />
<use xlink:href="#f3_h" transform="matrix(7,0,0,6.9,475.2,642.2)" />
<use xlink:href="#f3_h" transform="matrix(7,0,0,6.9,519.3,642.2)" />
<use xlink:href="#f3_f" transform="matrix(10.5,0,0,10.4,490.2,649.3)" />
<use xlink:href="#f3_f" transform="matrix(10.5,0,0,10.4,490.2,673.1)" />
<use xlink:href="#f3_50" transform="matrix(15.7,0,0,15.6,447.5,664.9)" />
<use xlink:href="#f1_m" transform="matrix(10.4,0,0,10.4,129.2,739)" />
<use xlink:href="#f1_k" transform="matrix(10.4,0,0,10.4,138.1,739)" />
<use xlink:href="#f1_h" transform="matrix(10.4,0,0,10.4,147.3,739)" />
<use xlink:href="#f3_c" transform="matrix(10.6,0,0,11.6,182.7,726.1)" />
<use xlink:href="#f3_d" transform="matrix(10.6,0,0,11.6,219.7,726)" />
</g>
<path d="M182.2,734.5h42.9" class="g13_57" />
<g fill="#000000" >
<use xlink:href="#f3_c" transform="matrix(10.6,0,0,14.3,227.3,739.4)" />
<use xlink:href="#f3_d" transform="matrix(10.6,0,0,14.3,291.8,739.3)" />
<use xlink:href="#f1_k" transform="matrix(10.6,0,0,10.6,212.8,728.2)" />
<use xlink:href="#f1_27" transform="matrix(10.6,0,0,10.6,258.1,738.7)" />
<use xlink:href="#f1_2a" transform="matrix(10.6,0,0,10.6,261.7,738.7)" />
<use xlink:href="#f1_22" transform="matrix(10.6,0,0,10.6,270.7,738.7)" />
<use xlink:href="#f1_h" transform="matrix(10.6,0,0,10.6,316.4,738.7)" />
<use xlink:href="#f2_2j" transform="matrix(10.6,0,0,10.6,188.5,728.2)" />
<use xlink:href="#f2_2j" transform="matrix(10.6,0,0,10.6,233.1,738.7)" />
<use xlink:href="#f2_2j" transform="matrix(10.6,0,0,10.6,281.2,738.7)" />
<use xlink:href="#f2_1z" transform="matrix(10.6,0,0,10.6,297.7,738.7)" />
<use xlink:href="#f2_2j" transform="matrix(10.6,0,0,10.6,306.8,738.7)" />
<use xlink:href="#f2_2j" transform="matrix(10.6,0,0,10.6,198.8,751.2)" />
<use xlink:href="#f3_f" transform="matrix(10.7,0,0,10.6,201.8,728.2)" />
<use xlink:href="#f3_f" transform="matrix(10.7,0,0,10.6,246.4,738.7)" />
<use xlink:href="#f3_50" transform="matrix(16,0,0,15.9,172.5,744.1)" />
<use xlink:href="#f1_m" transform="matrix(10.4,0,0,10.4,404.2,739)" />
<use xlink:href="#f1_l" transform="matrix(10.4,0,0,10.4,413.1,739)" />
<use xlink:href="#f1_h" transform="matrix(10.4,0,0,10.4,422.3,739)" />
</g>
<path d="M465.4,732.5l1.6,-.9l3.9,6.4l4.2,-16.9h19.7" class="g1_57" />
<path fill-rule="evenodd" d="M465.3,732.3l2.1,-1.2l3.5,5.4l4,-15.8h19.9v.8H475.4L471.3,738h-.8l-3.9,-5.8l-1.1,.6l-.2,-.5Z" class="g2_57" />
<path d="M512.6,746.5l1.6,-.9l3.9,6.3L522.4,735H542" class="g1_57" />
<path fill-rule="evenodd" d="M512.5,746.3l2.1,-1.3l3.5,5.4l4,-15.8H542v.8H522.6l-4.1,16.5h-.8l-3.9,-5.8l-1.1,.6l-.2,-.4Z" class="g2_57" />
<path d="M511.3,732.3h32" class="g14_57" />
<g fill="#000000" >
<use xlink:href="#f1_l" transform="matrix(7,0,0,6.9,552.2,717)" />
<use xlink:href="#f1_k" transform="matrix(10.5,0,0,10.4,523.5,726.2)" />
<use xlink:href="#f1_h" transform="matrix(10.5,0,0,10.4,576.5,736.6)" />
<use xlink:href="#f2_1w" transform="matrix(10.5,0,0,10.4,475,736.6)" />
<use xlink:href="#f2_2j" transform="matrix(10.5,0,0,10.4,483.9,736.6)" />
<use xlink:href="#f2_1z" transform="matrix(10.5,0,0,10.4,557.9,736.6)" />
<use xlink:href="#f2_2j" transform="matrix(10.5,0,0,10.4,566.8,736.6)" />
<use xlink:href="#f2_1w" transform="matrix(10.5,0,0,10.4,522.3,750.5)" />
<use xlink:href="#f2_2j" transform="matrix(10.5,0,0,10.4,531.2,750.5)" />
<use xlink:href="#f3_4o" transform="matrix(10.4,0,0,10.4,456.5,727.2)" />
<use xlink:href="#f3_54" transform="matrix(10.4,0,0,10.4,543.7,727.2)" />
<use xlink:href="#f3_h" transform="matrix(10.4,0,0,10.4,498.6,736.6)" />
<use xlink:href="#f3_4p" transform="matrix(10.4,0,0,10.4,456.5,741.7)" />
<use xlink:href="#f3_55" transform="matrix(10.4,0,0,10.4,543.7,741.7)" />
<use xlink:href="#f3_4q" transform="matrix(10.4,0,0,10.4,456.5,748.5)" />
<use xlink:href="#f3_56" transform="matrix(10.4,0,0,10.4,543.7,748.5)" />
<use xlink:href="#f3_50" transform="matrix(15.7,0,0,15.6,447.4,741.8)" />
<use xlink:href="#f1_m" transform="matrix(10.4,0,0,10.4,129.2,806.9)" />
<use xlink:href="#f1_m" transform="matrix(10.4,0,0,10.4,138.1,806.9)" />
<use xlink:href="#f1_h" transform="matrix(10.4,0,0,10.4,147.3,806.9)" />
</g>
<path d="M190.4,792.3v15.1m40.2,-15.1v15.1" class="g5_57" />
<g fill="#000000" >
<use xlink:href="#f1_j" transform="matrix(7,0,0,6.9,178.9,815)" />
<use xlink:href="#f1_1y" transform="matrix(10.4,0,0,10.4,192.2,805.9)" />
<use xlink:href="#f1_2a" transform="matrix(10.4,0,0,10.4,200.1,805.9)" />
<use xlink:href="#f1_2e" transform="matrix(10.4,0,0,10.4,209.1,805.9)" />
<use xlink:href="#f1_h" transform="matrix(10.4,0,0,10.4,251.4,805.9)" />
<use xlink:href="#f2_2j" transform="matrix(10.4,0,0,10.4,219.2,805.9)" />
<use xlink:href="#f2_1z" transform="matrix(10.4,0,0,10.4,233,805.9)" />
<use xlink:href="#f2_2j" transform="matrix(10.4,0,0,10.4,242,805.9)" />
<use xlink:href="#f3_2c" transform="matrix(7,0,0,6.9,181.5,794)" />
<use xlink:href="#f3_50" transform="matrix(15.6,0,0,15.6,172.6,811.2)" />
<use xlink:href="#f1_m" transform="matrix(10.4,0,0,10.4,129.2,861.9)" />
<use xlink:href="#f1_n" transform="matrix(10.4,0,0,10.4,138.1,861.9)" />
<use xlink:href="#f1_h" transform="matrix(10.4,0,0,10.4,147.3,861.9)" />
<use xlink:href="#f3_1r" transform="matrix(10.3,0,0,11.7,188.4,859.4)" />
<use xlink:href="#f3_1t" transform="matrix(10.3,0,0,11.7,204.9,859.4)" />
<use xlink:href="#f1_l" transform="matrix(7,0,0,6.9,181.4,849)" />
<use xlink:href="#f1_j" transform="matrix(7,0,0,6.9,179,870)" />
<use xlink:href="#f2_2j" transform="matrix(10.4,0,0,10.4,194.3,860.9)" />
<use xlink:href="#f2_1z" transform="matrix(10.4,0,0,10.4,210.3,860.9)" />
<use xlink:href="#f2_2j" transform="matrix(10.4,0,0,10.4,219.4,860.9)" />
<use xlink:href="#f3_50" transform="matrix(15.6,0,0,15.6,172.6,866.2)" />
<use xlink:href="#f1_2i" transform="matrix(10.4,0,0,10.4,240.1,861.9)" />
<use xlink:href="#f1_23" transform="matrix(10.4,0,0,10.4,251.7,861.9)" />
<use xlink:href="#f1_20" transform="matrix(10.4,0,0,10.4,260.5,861.9)" />
<use xlink:href="#f1_2d" transform="matrix(10.4,0,0,10.4,269.4,861.9)" />
<use xlink:href="#f1_20" transform="matrix(10.4,0,0,10.4,274.7,861.9)" />
<use xlink:href="#f1_1q" transform="matrix(10.4,0,0,10.4,290.7,861.9)" />
<use xlink:href="#f1_1s" transform="matrix(10.4,0,0,10.4,302.3,861.9)" />
<use xlink:href="#f1_24" transform="matrix(10.4,0,0,10.4,314.1,861.9)" />
<use xlink:href="#f1_2e" transform="matrix(10.4,0,0,10.4,317.6,861.9)" />
<use xlink:href="#f1_22" transform="matrix(10.4,0,0,10.4,332.7,861.9)" />
<use xlink:href="#f1_2d" transform="matrix(10.4,0,0,10.4,341.6,861.9)" />
<use xlink:href="#f1_20" transform="matrix(10.4,0,0,10.4,346.9,861.9)" />
<use xlink:href="#f1_1w" transform="matrix(10.4,0,0,10.4,355.8,861.9)" />
<use xlink:href="#f1_2f" transform="matrix(10.4,0,0,10.4,364.6,861.9)" />
<use xlink:href="#f1_20" transform="matrix(10.4,0,0,10.4,369.1,861.9)" />
<use xlink:href="#f1_2e" transform="matrix(10.4,0,0,10.4,377.9,861.9)" />
<use xlink:href="#f1_2f" transform="matrix(10.4,0,0,10.4,385.9,861.9)" />
<use xlink:href="#f1_24" transform="matrix(10.4,0,0,10.4,397.5,861.9)" />
<use xlink:href="#f1_29" transform="matrix(10.4,0,0,10.4,401,861.9)" />
<use xlink:href="#f1_2f" transform="matrix(10.4,0,0,10.4,409.9,861.9)" />
<use xlink:href="#f1_20" transform="matrix(10.4,0,0,10.4,414.3,861.9)" />
<use xlink:href="#f1_22" transform="matrix(10.4,0,0,10.4,423.2,861.9)" />
<use xlink:href="#f1_20" transform="matrix(10.4,0,0,10.4,432.1,861.9)" />
<use xlink:href="#f1_2d" transform="matrix(10.4,0,0,10.4,440.9,861.9)" />
<use xlink:href="#f1_21" transform="matrix(10.4,0,0,10.4,453.4,861.9)" />
<use xlink:href="#f1_2g" transform="matrix(10.4,0,0,10.4,457.8,861.9)" />
<use xlink:href="#f1_29" transform="matrix(10.4,0,0,10.4,466.7,861.9)" />
<use xlink:href="#f1_1y" transform="matrix(10.4,0,0,10.4,475.6,861.9)" />
<use xlink:href="#f1_2f" transform="matrix(10.4,0,0,10.4,483.5,861.9)" />
<use xlink:href="#f1_24" transform="matrix(10.4,0,0,10.4,488,861.9)" />
<use xlink:href="#f1_2a" transform="matrix(10.4,0,0,10.4,491.5,861.9)" />
<use xlink:href="#f1_29" transform="matrix(10.4,0,0,10.4,500.4,861.9)" />
<use xlink:href="#f1_h" transform="matrix(10.4,0,0,10.4,509.3,861.9)" />
<use xlink:href="#f4_m" transform="matrix(8,0,0,8,730,1122.4)" />
</g>
<g fill="#0080FF" fill-opacity="0.5" >
<use xlink:href="#f0_1c" transform="matrix(42.3,0,0,42.3,202.9,1095.2)" />
<use xlink:href="#f0_21" transform="matrix(42.3,0,0,42.3,238.8,1095.2)" />
<use xlink:href="#f0_1x" transform="matrix(42.3,0,0,42.3,274.7,1095.2)" />
<use xlink:href="#f0_2e" transform="matrix(42.3,0,0,42.3,310.7,1095.2)" />
<use xlink:href="#f0_2a" transform="matrix(42.3,0,0,42.3,332.2,1095.2)" />
<use xlink:href="#f0_17" transform="matrix(42.3,0,0,42.3,368.1,1095.2)" />
<use xlink:href="#f0_2h" transform="matrix(42.3,0,0,42.3,418.4,1095.2)" />
<use xlink:href="#f0_25" transform="matrix(42.3,0,0,42.3,454.3,1095.2)" />
<use xlink:href="#f0_20" transform="matrix(42.3,0,0,42.3,468.7,1095.2)" />
<use xlink:href="#f0_21" transform="matrix(42.3,0,0,42.3,504.6,1095.2)" />
<use xlink:href="#f0_i" transform="matrix(42.3,0,0,42.3,540.5,1095.2)" />
<use xlink:href="#f0_25" transform="matrix(42.3,0,0,42.3,558.5,1095.2)" />
<use xlink:href="#f0_2a" transform="matrix(42.3,0,0,42.3,572.8,1095.2)" />
</g>
<defs>
<path d="M593,101c0,0,182,0,279,112c0,0,98,113,98,318c0,0,0,196,-98,308c0,0,-98,112,-277,112c0,0,-181,0,-279,-110c0,0,-99,-111,-99,-310c0,0,0,-198,100,-314c0,0,99,-116,276,-116Zm0,-115c0,0,-162,0,-279,65c0,0,-118,66,-180,190c0,0,-62,124,-62,290c0,0,0,252,138,394c0,0,138,142,385,142c0,0,160,0,278,-64c0,0,118,-64,180,-185c0,0,62,-122,62,-287c0,0,0,-165,-63,-289c0,0,-63,-124,-181,-190c0,0,-118,-66,-278,-66Z" 
id="f0_1f"
transform="scale(0.001,-0.001)" />

<path d="M106,0V635c0,0,0,141,-5,173H228c0,0,1,-4,2,-21c0,0,1,-16,2,-37c0,0,1,-22,2,-81h2c0,0,47,84,108,119c0,0,60,34,151,34c0,0,132,0,194,-66c0,0,61,-66,61,-218V0H615V512c0,0,0,80,-15,124c0,0,-16,44,-50,63c0,0,-35,20,-101,20c0,0,-97,0,-153,-67c0,0,-56,-66,-56,-184V0Z" 
id="f0_2a"
transform="scale(0.001,-0.001)" />

<path d="M103,0V1107H237V0Z" 
id="f0_28"
transform="scale(0.001,-0.001)" />

<path d="M102,0V808H236V0Zm0,979v128H236V979Z" 
id="f0_25"
transform="scale(0.001,-0.001)" />

<path d="M643,478c0,0,-11,128,-65,187c0,0,-54,59,-154,59c0,0,-98,0,-155,-66c0,0,-57,-65,-62,-180ZM431,-14c0,0,-179,0,-272,106c0,0,-94,107,-94,317c0,0,0,200,94,307c0,0,93,106,267,106c0,0,356,0,356,-429V375H206c0,0,0,-138,57,-213c0,0,58,-75,168,-75c0,0,87,0,140,35c0,0,53,35,71,88L760,177c0,0,-72,-191,-329,-191Z" 
id="f0_21"
transform="scale(0.001,-0.001)" />

<path d="M17,0L304,415L31,808H179L380,493L580,808H730L457,417L747,0H598L380,331L162,0Z" 
id="f0_2k"
transform="scale(0.001,-0.001)" />

<path d="M339,87c0,0,74,0,132,34c0,0,57,33,90,91c0,0,34,59,34,121v66L448,396c0,0,-95,-2,-144,-19c0,0,-49,-18,-75,-55c0,0,-26,-38,-26,-98c0,0,0,-65,35,-101c0,0,36,-36,101,-36ZM309,-14c0,0,-122,0,-183,64c0,0,-61,64,-61,176c0,0,0,125,82,192c0,0,83,67,266,72l182,3v44c0,0,0,98,-42,141c0,0,-42,43,-132,43c0,0,-90,0,-131,-31c0,0,-41,-31,-49,-98L101,604c0,0,34,218,323,218c0,0,153,0,229,-70c0,0,77,-69,77,-202V202c0,0,0,-59,16,-90c0,0,16,-30,60,-30c0,0,19,0,44,5V4C850,4,799,-7,746,-7c0,0,-75,0,-109,38c0,0,-33,40,-38,124h-4C595,155,543,62,475,24c0,0,-68,-38,-166,-38Z" 
id="f0_1x"
transform="scale(0.001,-0.001)" />

<path d="M106,0V635c0,0,0,141,-5,173H228c0,0,1,-4,2,-21c0,0,1,-16,2,-37c0,0,1,-22,2,-81h2c0,0,44,86,100,120c0,0,56,33,136,33c0,0,92,0,145,-36c0,0,54,-37,75,-117h2c0,0,42,82,101,117c0,0,59,36,143,36c0,0,123,0,178,-66c0,0,56,-67,56,-218V0H1039V512c0,0,0,117,-32,162c0,0,-32,45,-116,45c0,0,-88,0,-136,-66c0,0,-49,-65,-49,-185V0H573V512c0,0,0,117,-32,162c0,0,-32,45,-116,45c0,0,-86,0,-136,-66c0,0,-50,-66,-50,-185V0Z" 
id="f0_29"
transform="scale(0.001,-0.001)" />

<path d="M453,84c0,0,100,0,146,74c0,0,46,73,46,247c0,0,0,169,-46,241c0,0,-45,73,-145,73c0,0,-80,0,-125,-34c0,0,-45,-34,-68,-105c0,0,-24,-71,-24,-186c0,0,0,-159,51,-234c0,0,51,-76,165,-76ZM103,-316V643c0,0,0,124,-5,165H228c0,0,1,-3,3,-22c0,0,1,-18,3,-56c0,0,2,-38,2,-52h3c0,0,36,75,94,110c0,0,59,34,156,34c0,0,149,0,223,-100c0,0,74,-100,74,-314c0,0,0,-422,-297,-422c0,0,-187,0,-251,140h-4c0,0,3,-6,3,-126V-316Z" 
id="f0_2c"
transform="scale(0.001,-0.001)" />

<path d="M420,84c0,0,121,0,173,78c0,0,52,77,52,243c0,0,0,167,-50,243c0,0,-50,76,-167,76c0,0,-118,0,-170,-78c0,0,-53,-77,-53,-241c0,0,0,-160,52,-241c0,0,52,-80,163,-80Zm1,-98c0,0,-176,0,-267,107c0,0,-90,108,-90,312c0,0,0,417,362,417c0,0,185,0,272,-102c0,0,88,-101,88,-315c0,0,0,-212,-94,-316C692,89,599,-14,421,-14Z" 
id="f0_2b"
transform="scale(0.001,-0.001)" />

<path d="M278,-11c0,0,-162,0,-162,182V710H23v98h99l39,181h90V808H400V710H251V200c0,0,0,-58,19,-82c0,0,19,-23,66,-23c0,0,27,0,77,10V6c0,0,-66,-17,-135,-17Z" 
id="f0_2g"
transform="scale(0.001,-0.001)" />

<path d="M406,0V763H155V870h2c16,0,114,2,178,48c0,0,70,51,104,157H549V0Z" 
id="f1_k"
transform="scale(0.001,-0.001)" />

<path d="M424,-28c0,0,-180,0,-272,86c0,0,-92,87,-100,266H192c0,0,12,-126,66,-180c0,0,55,-54,170,-54c0,0,100,0,163,57c0,0,64,57,64,147c0,0,0,94,-61,149c0,0,-52,48,-135,54c0,0,-38,2,-72,2c0,0,-34,0,-45,-3V613c0,0,17,-3,51,-3c0,0,35,0,68,4c0,0,66,8,106,43c0,0,55,45,55,125c0,0,0,77,-58,125c0,0,-58,48,-148,48c0,0,-96,0,-147,-58c0,0,-51,-59,-56,-175H82c0,0,0,168,89,260c0,0,88,93,250,93c0,0,153,0,247,-77c0,0,94,-76,94,-202c0,0,0,-124,-95,-201c0,0,-18,-15,-39,-27c0,0,39,-17,69,-41c0,0,101,-79,101,-214c0,0,0,-151,-105,-246c0,0,-104,-95,-269,-95Z" 
id="f1_m"
transform="scale(0.001,-0.001)" />

<path d="M133,0V162H292V0Z" 
id="f1_h"
transform="scale(0.001,-0.001)" />

<path d="M39,0V0c0,0,0,170,84,277c0,0,85,108,317,236c0,0,113,62,154,115c0,0,41,52,41,134c0,0,0,86,-62,141c0,0,-61,54,-156,54c0,0,-101,0,-158,-68c0,0,-57,-68,-60,-194H67c0,0,-2,178,95,279c0,0,98,101,273,101c0,0,149,0,245,-89c0,0,94,-88,94,-228c0,0,0,-118,-60,-195c0,0,-61,-76,-229,-169C485,394,303,294,237,212c0,0,-28,-36,-46,-81H774V0Z" 
id="f1_l"
transform="scale(0.001,-0.001)" />

<path d="M393,-20c0,0,-169,0,-252,65c0,0,-83,67,-92,210H178c0,0,10,-85,61,-123c0,0,50,-38,154,-38c0,0,90,0,136,34c0,0,47,35,47,100c0,0,0,42,-31,64c0,0,-30,21,-123,43L283,368c0,0,-112,27,-160,75c0,0,-48,48,-48,135c0,0,0,112,80,178c0,0,81,66,218,66c0,0,140,0,222,-68c0,0,82,-67,88,-187H557c0,0,-6,67,-55,103c0,0,-48,37,-129,37c0,0,-84,0,-127,-29c0,0,-44,-29,-44,-85c0,0,0,-43,31,-65c0,0,30,-21,121,-43L493,452c0,0,117,-28,167,-78c0,0,49,-49,49,-138c0,0,0,-119,-86,-188c0,0,-85,-68,-230,-68Z" 
id="f1_2e"
transform="scale(0.001,-0.001)" />

<path d="M104,0V799H238V0Zm-2,946v152H239V946Z" 
id="f1_24"
transform="scale(0.001,-0.001)" />

<path d="M99,0V799H226V681l30,39c0,0,87,102,219,102c0,0,132,0,203,-71c0,0,72,-72,72,-204V0H616V502c0,0,0,105,-41,151c0,0,-40,47,-132,47c0,0,-97,0,-154,-73c0,0,-56,-74,-56,-199V0Z" 
id="f1_29"
transform="scale(0.001,-0.001)" />

<path d="M394,-20c0,0,-159,0,-253,113c0,0,-95,114,-95,307c0,0,0,193,98,308c0,0,98,114,264,114c0,0,144,0,230,-78c0,0,85,-79,91,-217H600c0,0,-8,86,-59,133c0,0,-52,47,-138,47c0,0,-101,0,-159,-82c0,0,-58,-82,-58,-225c0,0,0,-152,54,-229c0,0,53,-77,159,-77c0,0,79,0,132,50c0,0,52,51,69,143H729C729,287,709,137,623,58c0,0,-86,-78,-229,-78Z" 
id="f1_1y"
transform="scale(0.001,-0.001)" />

<path d="M424,94c0,0,107,0,169,83c0,0,63,83,63,223c0,0,0,140,-63,224c0,0,-62,83,-169,83c0,0,-106,0,-168,-83c0,0,-62,-84,-62,-224c0,0,0,-140,62,-223c0,0,62,-83,168,-83Zm0,-114c0,0,-165,0,-268,115C156,95,54,211,54,400c0,0,0,189,102,306c0,0,103,116,268,116c0,0,168,0,270,-116c0,0,102,-117,102,-306c0,0,0,-189,-102,-305C694,95,592,-20,424,-20Z" 
id="f1_2a"
transform="scale(0.001,-0.001)" />

<path d="M431,94c0,0,95,0,170,76c0,0,76,77,101,198c0,0,35,167,-1,250c0,0,-37,84,-144,84c0,0,-128,0,-210,-117c0,0,-81,-117,-81,-302c0,0,0,-90,43,-139c0,0,44,-50,122,-50ZM400,-20c0,0,-126,0,-199,79c0,0,-73,80,-73,219c0,0,0,234,122,390c0,0,122,155,305,155c0,0,144,0,209,-127l8,-16l86,417H993L767,0H638l22,108L642,90C642,90,532,-20,400,-20Z" 
id="f2_1z"
transform="scale(0.001,-0.001)" />

<path d="M17,0L389,412L201,800H376L500,518L742,800H904L554,410L750,0H580L448,303L187,0Z" 
id="f2_2j"
transform="scale(0.001,-0.001)" />

<path d="M238,-163c0,0,-39,0,-63,25c0,0,-25,26,-25,65c0,0,0,34,19,54c0,0,19,19,48,19c0,0,30,0,51,-23c0,0,22,-24,37,-24c0,0,12,0,21,11c0,0,8,10,8,35c0,0,0,30,-7,88c0,0,-27,235,-27,620c0,0,13,411,17,446c0,0,17,139,60,188c0,0,43,48,98,48c0,0,37,0,65,-25c0,0,28,-25,28,-54c0,0,0,-35,-19,-57c0,0,-20,-21,-49,-21c0,0,-26,0,-57,27c0,0,-17,15,-30,15c0,0,-12,0,-21,-11c0,0,-8,-11,-8,-37c0,0,0,-31,6,-108c0,0,28,-306,28,-496c0,0,0,-50,-12,-439c0,0,-6,-219,-67,-296c0,0,-41,-50,-101,-50Z" 
id="f3_50"
transform="scale(0.001,-0.001)" />

<path d="M511,373V863L169,383l-7,-10ZM511,0V258H38V383l496,691H646V373H799V258H646V0Z" 
id="f1_n"
transform="scale(0.001,-0.001)" />

<path d="M355,0V355H0v72H355V784h72V427H782V355H427V0Z" 
id="f3_f"
transform="scale(0.001,-0.001)" />

<path d="M0,356v74H784V356Z" 
id="f3_h"
transform="scale(0.001,-0.001)" />

<path d="M417,-28c0,0,-161,0,-259,79c0,0,-98,81,-109,223H189c0,0,11,-90,72,-139c0,0,61,-49,162,-49c0,0,96,0,158,68c0,0,61,68,61,175c0,0,0,112,-64,178c0,0,-64,66,-173,66c0,0,-59,0,-115,-28c0,0,-55,-29,-84,-73L93,480l77,573H727V922H271L225,629l4,3c0,0,89,60,188,60c0,0,169,0,269,-94c0,0,99,-93,99,-253c0,0,0,-165,-103,-269C682,76,579,-28,417,-28Z" 
id="f1_o"
transform="scale(0.001,-0.001)" />

<path d="M103,0V1097H237V0Z" 
id="f1_27"
transform="scale(0.001,-0.001)" />

<path d="M418,95c0,0,98,0,158,73c0,0,59,73,59,193c0,0,0,170,-54,254c0,0,-54,85,-163,85c0,0,-113,0,-165,-72c0,0,-52,-71,-52,-227c0,0,0,-147,57,-227c0,0,56,-79,160,-79ZM394,-336c0,0,-136,0,-216,62c0,0,-79,63,-96,182H219c0,0,12,-64,57,-98c0,0,45,-35,116,-35c0,0,116,0,176,73c0,0,61,73,61,211V85l-1,-1C628,84,545,-20,412,-20c0,0,-161,0,-256,118c0,0,-94,120,-94,324c0,0,0,179,93,290c0,0,93,110,244,110c0,0,144,0,228,-124l10,-14V799H763V59c0,0,-1,-201,-91,-298c0,0,-91,-97,-278,-97Z" 
id="f1_22"
transform="scale(0.001,-0.001)" />

<path d="M748,462c0,0,3,31,3,63c0,0,0,86,-45,132c0,0,-46,45,-134,45c0,0,-100,0,-180,-85c0,0,-58,-63,-90,-155ZM419,-20c0,0,-136,0,-213,73c0,0,-77,74,-78,206c0,0,0,25,4,58c0,0,4,32,10,63c0,0,44,208,169,326c0,0,125,117,305,117c0,0,128,0,198,-73c0,0,71,-73,71,-207c0,0,1,-100,-24,-189H278l-4,-25c0,0,-3,-30,-3,-55c0,0,0,-90,44,-134c0,0,44,-45,133,-45c0,0,87,0,156,44c0,0,68,45,95,117H830C830,256,782,126,674,52c0,0,-108,-72,-255,-72Z" 
id="f2_20"
transform="scale(0.001,-0.001)" />

<path d="M432,92c0,0,96,0,156,66c0,0,61,65,61,169c0,0,0,103,-61,169c0,0,-60,66,-156,66c0,0,-95,0,-156,-66c0,0,-61,-66,-61,-169c0,0,0,-104,61,-169c0,0,61,-66,156,-66ZM425,-28c0,0,-176,0,-271,135c0,0,-95,136,-95,388c0,0,0,278,103,429c0,0,103,151,293,151c0,0,142,0,226,-77c0,0,84,-76,90,-211H638c0,0,-8,80,-56,123c0,0,-47,43,-127,43c0,0,-125,0,-192,-119c0,0,-58,-102,-64,-278c0,0,100,127,255,127c0,0,152,0,245,-98c0,0,93,-98,93,-258c0,0,0,-161,-101,-259c0,0,-101,-96,-266,-96Z" 
id="f1_p"
transform="scale(0.001,-0.001)" />

<path d="M354,90c0,0,107,0,192,57c0,0,60,41,87,95c0,0,5,12,11,33c0,0,6,20,11,44l18,88c0,0,-62,-26,-132,-37L414,352c0,0,-84,-11,-131,-56c0,0,-47,-45,-47,-113c0,0,0,-44,31,-69c0,0,31,-24,87,-24ZM306,-20c0,0,-99,0,-156,47c0,0,-57,49,-57,134c0,0,1,117,81,198c0,0,80,81,211,98l164,20l70,10c0,0,35,6,59,30c0,0,23,24,31,66l1,2c0,0,13,64,-25,94c0,0,-39,31,-132,31c0,0,-83,0,-137,-37c0,0,-54,-37,-84,-114H210c0,0,46,137,138,201c0,0,92,63,245,63c0,0,149,0,211,-59c0,0,45,-44,44,-116c0,0,1,-30,-6,-63L749,136c0,0,-4,-19,6,-32c0,0,10,-12,30,-12c0,0,6,0,19,1c0,0,12,2,25,5L809,1c0,0,-19,-6,-43,-11c0,0,-22,-5,-36,-5c0,0,-73,0,-100,43c0,0,-16,27,-17,75C612,102,594,85,573,69c0,0,-120,-89,-267,-89Z" 
id="f2_1w"
transform="scale(0.001,-0.001)" />

<path d="M212,0c0,0,51,270,162,500c0,0,109,222,281,422H57v131H799V934C799,934,623,726,515,498C515,498,408,269,362,0Z" 
id="f1_q"
transform="scale(0.001,-0.001)" />

<path d="M424,92c0,0,98,0,161,58c0,0,62,58,62,149c0,0,0,92,-62,151c0,0,-63,58,-161,58c0,0,-98,0,-160,-58c0,0,-63,-59,-63,-151c0,0,0,-91,63,-149c0,0,62,-58,160,-58Zm0,533c0,0,82,0,134,46c0,0,52,45,52,118c0,0,0,72,-52,118c0,0,-52,46,-134,46c0,0,-82,0,-134,-46c0,0,-52,-46,-52,-118c0,0,0,-73,52,-119c0,0,52,-45,134,-45Zm0,-653c0,0,-165,0,-265,90C159,62,59,154,59,305c0,0,0,134,100,216c0,0,35,28,78,47c0,0,-27,15,-52,33c0,0,-90,70,-90,185c0,0,0,130,90,209c0,0,91,80,239,80c0,0,148,0,238,-80c0,0,91,-79,91,-209c0,0,0,-115,-91,-185c0,0,-24,-19,-52,-32c0,0,44,-20,79,-49c0,0,101,-81,101,-215c0,0,0,-151,-101,-243c0,0,-100,-90,-265,-90Z" 
id="f1_r"
transform="scale(0.001,-0.001)" />

<path d="M419,483c0,0,93,0,152,66c0,0,59,66,59,169c0,0,0,103,-59,169c0,0,-59,65,-152,65c0,0,-94,0,-153,-65c0,0,-59,-66,-59,-169c0,0,0,-103,59,-169c0,0,59,-66,153,-66ZM397,-28c0,0,-143,0,-227,75c0,0,-85,77,-91,211H209c0,0,8,-83,57,-128c0,0,49,-45,131,-45c0,0,121,0,186,135c0,0,48,101,62,265C645,485,545,362,397,362c0,0,-150,0,-241,98c0,0,-91,98,-91,258c0,0,0,160,99,258c0,0,99,98,262,98c0,0,173,0,266,-123c0,0,94,-123,94,-349c0,0,0,-303,-101,-467C685,135,583,-28,397,-28Z" 
id="f1_s"
transform="scale(0.001,-0.001)" />

<path d="M412,-328c0,0,-195,96,-303,284C109,-44,0,142,0,365c0,0,0,232,114,422c0,0,114,191,298,273v-31c0,0,-92,-51,-151,-139c0,0,-59,-88,-88,-223c0,0,-29,-136,-29,-282c0,0,0,-167,27,-301c0,0,26,-133,82,-221c0,0,55,-89,159,-159v-32Z" 
id="f3_c"
transform="scale(0.001,-0.001)" />

<path d="M34,-328v32c0,0,92,50,151,138c0,0,59,88,88,222c0,0,29,135,29,283c0,0,0,165,-27,300c0,0,-26,134,-82,222c0,0,-56,89,-159,160v31c0,0,194,-96,303,-284c0,0,108,-187,108,-410c0,0,0,-232,-114,-422c0,0,-114,-191,-297,-272Z" 
id="f3_d"
transform="scale(0.001,-0.001)" />

<path d="M424,92c0,0,114,0,170,107c0,0,57,108,56,323c0,0,1,216,-56,324c0,0,-56,107,-170,107c0,0,-112,0,-168,-107c0,0,-56,-108,-57,-324c0,0,1,-215,57,-323c0,0,56,-107,168,-107Zm0,-120c0,0,-176,0,-271,142c0,0,-96,143,-96,408c0,0,0,265,96,409c0,0,95,144,271,144c0,0,178,0,273,-144c0,0,96,-144,96,-409c0,0,0,-265,-96,-408c0,0,-95,-142,-273,-142Z" 
id="f1_j"
transform="scale(0.001,-0.001)" />

<path d="M316,27c0,0,57,0,105,53c0,0,65,72,125,295c0,0,-40,153,-104,214c0,0,-63,61,-129,61c0,0,-73,0,-122,-80c0,0,-48,-80,-48,-255c0,0,0,-104,20,-163c0,0,21,-60,64,-92c0,0,42,-33,89,-33Zm4,-49c0,0,-165,0,-243,108C77,86,0,196,0,336c0,0,0,164,91,265c0,0,91,102,213,102c0,0,85,0,150,-52c0,0,65,-51,118,-192l65,224H760L662,344c0,0,-9,-32,-30,-100c0,0,29,-115,43,-137c0,0,27,-41,68,-41c0,0,30,0,55,24c0,0,26,25,34,77h30C862,167,852,60,817,19c0,0,-35,-40,-81,-40c0,0,-42,0,-77,34c0,0,-35,36,-62,154c0,0,-33,-65,-65,-99C532,68,488,22,437,0c0,0,-52,-22,-117,-22Z" 
id="f3_1x"
transform="scale(0.001,-0.001)" />

<path d="M649,461c0,0,-6,111,-55,172c0,0,-55,69,-160,69c0,0,-106,0,-170,-79c0,0,-50,-62,-60,-162ZM425,-20c0,0,-169,0,-266,106c0,0,-97,107,-97,297c0,0,0,201,102,320c0,0,103,119,276,119c0,0,157,0,253,-116c0,0,96,-117,96,-306l-1,-48H204c0,0,8,-119,54,-182c0,0,57,-76,180,-76c0,0,77,0,134,43c0,0,58,43,70,110H775C775,247,746,116,656,47c0,0,-90,-67,-231,-67Z" 
id="f1_20"
transform="scale(0.001,-0.001)" />

<path d="M292,-9c0,0,-88,0,-124,38c0,0,-36,39,-36,134V689H22V799H132v224H266V799H392V689H266V163c0,0,0,-27,21,-43c0,0,21,-15,57,-15h48V1C392,1,324,-9,292,-9Z" 
id="f1_2f"
transform="scale(0.001,-0.001)" />

<path d="M335,90c0,0,106,0,179,57c0,0,50,41,67,91c0,0,3,10,4,31c0,0,3,21,3,47v87c0,0,-38,-18,-83,-25L381,360c0,0,-97,-13,-142,-45c0,0,-44,-31,-44,-86c0,0,0,-67,36,-103c0,0,37,-36,104,-36ZM309,-20c0,0,-117,0,-186,61c0,0,-68,63,-68,169c0,0,0,108,64,171c0,0,65,64,189,79l183,23c0,0,22,3,42,8c0,0,26,7,40,27c0,0,15,20,15,51v6c0,0,0,64,-49,101c0,0,-48,36,-135,36c0,0,-83,0,-130,-38c0,0,-46,-39,-56,-115H94c0,0,10,131,92,197c0,0,83,66,238,66c0,0,145,0,222,-63c0,0,76,-63,76,-184V137c0,0,0,-21,12,-33c0,0,12,-12,33,-12c0,0,6,0,18,1c0,0,11,2,25,5V1c0,0,-20,-7,-41,-11c0,0,-22,-5,-37,-5c0,0,-76,0,-110,41c0,0,-22,28,-32,79c0,0,-15,-19,-34,-36c0,0,-101,-89,-247,-89Z" 
id="f1_1w"
transform="scale(0.001,-0.001)" />

<path d="M62,-123V268c0,0,0,230,56,452c0,0,47,190,134,334c0,0,87,144,204,242c0,0,85,73,194,119l18,-16c0,0,-211,-145,-335,-339c0,0,-98,-156,-149,-374c0,0,-50,-218,-50,-403V-123Z" 
id="f3_4o"
transform="scale(0.001,-0.001)" />

<path d="M617,-123V283c0,0,0,236,-63,459c0,0,-63,223,-188,392c0,0,-108,146,-282,265l17,16c0,0,180,-76,320,-248c0,0,139,-172,204,-417c0,0,64,-245,64,-482V-123Z" 
id="f3_54"
transform="scale(0.001,-0.001)" />

<path d="M62,-123V1415h72V-123Z" 
id="f3_4p"
transform="scale(0.001,-0.001)" />

<path d="M617,-123V1415h72V-123Z" 
id="f3_55"
transform="scale(0.001,-0.001)" />

<path d="M650,-123c0,0,-180,75,-319,246c0,0,-140,172,-205,418c0,0,-64,245,-64,481v393h72V1007c0,0,0,-236,63,-459c0,0,63,-223,189,-391c0,0,108,-145,282,-265l-18,-15Z" 
id="f3_4q"
transform="scale(0.001,-0.001)" />

<path d="M101,-123l-17,15c0,0,210,144,334,339c0,0,99,156,149,373c0,0,50,218,50,403v408h72V1022c0,0,0,-230,-56,-451c0,0,-48,-191,-134,-335C499,236,412,92,295,-5c0,0,-84,-73,-194,-118Z" 
id="f3_56"
transform="scale(0.001,-0.001)" />

<path d="M140,-21c0,0,-26,0,-44,17C96,-4,79,13,79,40c0,0,0,19,6,33c0,0,8,20,34,55c0,0,46,60,64,126c0,0,32,114,41,321H190c0,0,-55,0,-81,-18c0,0,-44,-26,-80,-89H0c0,0,42,129,98,178c0,0,43,37,120,37H743V575H562c0,0,-27,-171,-27,-327c0,0,0,-77,27,-110c0,0,27,-33,67,-33c0,0,33,0,56,22c0,0,24,22,31,65h27C743,192,730,74,686,26c0,0,-44,-47,-98,-47c0,0,-58,0,-97,51c0,0,-39,53,-39,198c0,0,0,91,28,347H286c0,0,-23,-390,-56,-494c0,0,-33,-102,-90,-102Z" 
id="f3_2c"
transform="scale(0.001,-0.001)" />

<path d="M0,-302V1034H328V970H119V-238H328v-64Z" 
id="f3_1r"
transform="scale(0.001,-0.001)" />

<path d="M56,-302v64H265V970H56v64H384V-302Z" 
id="f3_1t"
transform="scale(0.001,-0.001)" />

<path d="M248,0L21,799H169L322,163L478,799H627L788,158L950,799h133L857,0H713L548,624L392,0Z" 
id="f1_2i"
transform="scale(0.001,-0.001)" />

<path d="M99,0V1097H233V690l23,30c0,0,87,102,219,102c0,0,132,0,203,-71c0,0,72,-72,72,-204V0H616V514c0,0,0,99,-38,142c0,0,-38,44,-124,44c0,0,-102,0,-162,-73c0,0,-59,-74,-59,-199V0Z" 
id="f1_23"
transform="scale(0.001,-0.001)" />

<path d="M118,0V799H246V662c0,0,17,32,36,58c0,0,76,102,187,102c0,0,19,0,38,-6V679l-27,1c0,0,-109,0,-168,-66c0,0,-60,-65,-60,-186V0Z" 
id="f1_2d"
transform="scale(0.001,-0.001)" />

<path d="M96,-299V1104H382V995H217V-191H382V-299Z" 
id="f1_1q"
transform="scale(0.001,-0.001)" />

<path d="M42,-299v108H207V995H42v109H329V-299Z" 
id="f1_1s"
transform="scale(0.001,-0.001)" />

<path d="M132,0V687H22V799H132V935c0,0,0,88,52,133c0,0,52,45,157,45l59,-3V989l-53,2c0,0,-39,0,-60,-24c0,0,-21,-25,-21,-71V799H400V687H266V0Z" 
id="f1_21"
transform="scale(0.001,-0.001)" />

<path d="M375,-20c0,0,-136,0,-203,66c0,0,-68,68,-68,204V799H238V284c0,0,0,-101,38,-146c0,0,39,-44,127,-44c0,0,97,0,153,75c0,0,57,75,57,203V799H747V0H620V122c0,0,-14,-22,-30,-41C590,81,504,-20,375,-20Z" 
id="f1_2g"
transform="scale(0.001,-0.001)" />

<path d="M46,0c0,0,-2,48,16,93c0,0,27,74,88,146c0,0,61,71,176,165c0,0,178,146,241,232c0,0,63,85,63,161c0,0,0,80,-57,135c0,0,-58,55,-149,55c0,0,-98,0,-156,-59c0,0,-58,-58,-59,-160L71,782c0,0,15,154,107,235c0,0,93,81,249,81c0,0,157,0,249,-87c0,0,92,-88,92,-217c0,0,0,-65,-27,-129c0,0,-27,-63,-89,-133c0,0,-62,-70,-207,-193C445,339,324,238,290,202c0,0,-35,-36,-57,-73H770V0Z" 
id="f4_m"
transform="scale(0.001,-0.001)" />

<path d="M125,0V1051H268V115H799V0Z" 
id="f0_1c"
transform="scale(0.001,-0.001)" />

<path d="M106,0V620c0,0,0,85,-5,188H228c0,0,6,-138,6,-165h3c0,0,32,103,74,141c0,0,42,38,118,38c0,0,27,0,54,-7V692c0,0,-26,7,-71,7c0,0,-84,0,-128,-72c0,0,-44,-72,-44,-206V0Z" 
id="f0_2e"
transform="scale(0.001,-0.001)" />

<path d="M606,-14c0,0,-164,0,-284,65c0,0,-119,66,-182,189c0,0,-63,123,-63,291c0,0,0,255,137,396c0,0,137,140,386,140c0,0,174,0,283,-59c0,0,109,-59,168,-189L915,779c0,0,-44,90,-123,131c0,0,-79,41,-196,41c0,0,-182,0,-278,-110c0,0,-96,-110,-96,-310c0,0,0,-200,102,-315c0,0,102,-115,282,-115c0,0,103,0,193,31c0,0,89,31,144,85V407H629V526h445V164c0,0,-83,-85,-205,-132c0,0,-121,-46,-263,-46Z" 
id="f0_17"
transform="scale(0.001,-0.001)" />

<path d="M355,-14c0,0,-133,0,-194,65c0,0,-62,66,-62,219V808H234V296c0,0,0,-80,16,-124c0,0,16,-44,50,-64c0,0,34,-19,101,-19c0,0,97,0,153,66c0,0,55,67,55,185V808H744V172c0,0,0,-141,4,-172H621c0,0,0,4,-1,20c0,0,-1,17,-2,38c0,0,-1,21,-3,80h-2C613,138,567,55,506,20c0,0,-61,-34,-151,-34Z" 
id="f0_2h"
transform="scale(0.001,-0.001)" />

<path d="M395,89c0,0,115,0,166,79c0,0,51,79,51,246c0,0,0,160,-51,235c0,0,-51,75,-164,75c0,0,-102,0,-147,-75c0,0,-45,-75,-45,-244c0,0,0,-170,45,-243c0,0,45,-73,145,-73ZM361,-14c0,0,-153,0,-225,102c0,0,-72,103,-72,312c0,0,0,422,297,422c0,0,92,0,153,-33c0,0,61,-34,98,-107h2l-2,90v335H747V166c0,0,0,-126,4,-166H623c0,0,-2,12,-5,55c0,0,-3,44,-3,75h-3c0,0,-37,-78,-98,-111c0,0,-62,-33,-153,-33Z" 
id="f0_20"
transform="scale(0.001,-0.001)" />

<path d="M140,0V163H285V0Z" 
id="f0_i"
transform="scale(0.001,-0.001)" />


</defs>
</svg>