<?xml version="1.0" encoding="UTF-8" standalone="no"?>
<!DOCTYPE svg PUBLIC "-//W3C//DTD SVG 1.1//EN"
"http://www.w3.org/Graphics/SVG/1.1/DTD/svg11.dtd">
<svg viewBox="0 0 811 1133" version="1.1" xmlns="http://www.w3.org/2000/svg" xmlns:xlink="http://www.w3.org/1999/xlink">
<defs>
<style type="text/css"><![CDATA[
.g0_58{
fill: none;
stroke: #000000;
stroke-width: 0.15277778;
stroke-linecap: round;
stroke-linejoin: miter;
}
.g1_58{
}
.g2_58{
fill: none;
stroke: #000000;
stroke-width: 0.7619333;
stroke-linecap: round;
stroke-linejoin: miter;
}
.g3_58{
fill: none;
stroke: #000000;
stroke-width: 0.7685333;
stroke-linecap: round;
stroke-linejoin: miter;
}
.g4_58{
fill: none;
stroke: #000000;
stroke-width: 0.7680445;
stroke-linecap: round;
stroke-linejoin: miter;
}
.g5_58{
fill: none;
stroke: #000000;
stroke-width: 0.7602222;
stroke-linecap: round;
stroke-linejoin: miter;
}
.g6_58{
fill: none;
stroke: #000000;
stroke-width: 0.7656;
stroke-linecap: round;
stroke-linejoin: miter;
}
.g7_58{
fill: none;
stroke: #000000;
stroke-width: 0.7638889;
stroke-linecap: round;
stroke-linejoin: miter;
}
.g8_58{
fill: none;
stroke: #000000;
stroke-width: 0.7663334;
stroke-linecap: round;
stroke-linejoin: miter;
}
.g9_58{
fill: none;
stroke: #000000;
stroke-width: 0.7653555;
stroke-linecap: round;
stroke-linejoin: miter;
}
.g10_58{
fill: none;
stroke: #000000;
stroke-width: 0.76584446;
stroke-linecap: round;
stroke-linejoin: miter;
}
.g11_58{
fill: none;
stroke: #000000;
stroke-width: 0.7660889;
stroke-linecap: round;
stroke-linejoin: miter;
}
]]></style>
</defs>
<g fill="#D4D4D4" fill-opacity="0.56" >
<use xlink:href="#f0_1f" transform="matrix(50.9,-50.9,50.9,50.9,199.9,924.1)" />
<use xlink:href="#f0_2a" transform="matrix(50.9,-50.9,50.9,50.9,260.4,863.6)" />
<use xlink:href="#f0_28" transform="matrix(50.9,-50.9,50.9,50.9,303.7,820.3)" />
<use xlink:href="#f0_25" transform="matrix(50.9,-50.9,50.9,50.9,320.9,803.1)" />
<use xlink:href="#f0_2a" transform="matrix(50.9,-50.9,50.9,50.9,338.2,785.8)" />
<use xlink:href="#f0_21" transform="matrix(50.9,-50.9,50.9,50.9,381.4,742.5)" />
<use xlink:href="#f0_2k" transform="matrix(50.9,-50.9,50.9,50.9,424.7,699.3)" />
<use xlink:href="#f0_1x" transform="matrix(50.9,-50.9,50.9,50.9,463.6,660.4)" />
<use xlink:href="#f0_29" transform="matrix(50.9,-50.9,50.9,50.9,506.8,617.2)" />
<use xlink:href="#f0_2c" transform="matrix(50.9,-50.9,50.9,50.9,571.6,552.4)" />
<use xlink:href="#f0_2b" transform="matrix(50.9,-50.9,50.9,50.9,614.9,509.1)" />
<use xlink:href="#f0_25" transform="matrix(50.9,-50.9,50.9,50.9,658.1,465.9)" />
<use xlink:href="#f0_2a" transform="matrix(50.9,-50.9,50.9,50.9,675.4,448.6)" />
<use xlink:href="#f0_2g" transform="matrix(50.9,-50.9,50.9,50.9,718.6,405.4)" />
</g>
<g fill="#000000" >
<use xlink:href="#f1_m" transform="matrix(10.4,0,0,10.4,129.2,74.6)" />
<use xlink:href="#f1_o" transform="matrix(10.4,0,0,10.4,138.1,74.6)" />
<use xlink:href="#f1_h" transform="matrix(10.4,0,0,10.4,147.3,74.6)" />
<use xlink:href="#f2_1r" transform="matrix(10.5,0,0,14.4,196.3,72)" />
<use xlink:href="#f2_1t" transform="matrix(10.5,0,0,14.4,220.7,72)" />
</g>
<path d="M181.7,59.1l1.1,-.6l2.6,4.2l2.8,-11.3h6.5" class="g0_58" />
<path fill-rule="evenodd" d="M181.7,59l1.3,-.9l2.4,3.7l2.7,-10.6h6.6v.5h-6.3l-2.8,11h-.4l-2.7,-3.9l-.7,.4l-.1,-.2Z" class="g1_58" />
<g fill="#000000" >
<use xlink:href="#f1_l" transform="matrix(7.2,0,0,7.1,188.5,61.9)" />
<use xlink:href="#f1_l" transform="matrix(7.2,0,0,7.1,212.6,66.8)" />
<use xlink:href="#f1_j" transform="matrix(7.2,0,0,7.1,178.9,83.4)" />
<use xlink:href="#f3_2j" transform="matrix(10.7,0,0,10.6,202.1,74.1)" />
<use xlink:href="#f3_1z" transform="matrix(10.7,0,0,10.6,226.1,74.1)" />
<use xlink:href="#f3_2j" transform="matrix(10.7,0,0,10.6,235.2,74.1)" />
<use xlink:href="#f2_50" transform="matrix(16,0,0,15.9,172.6,79.5)" />
<use xlink:href="#f1_2i" transform="matrix(10.4,0,0,10.4,255,74.6)" />
<use xlink:href="#f1_23" transform="matrix(10.4,0,0,10.4,266.5,74.6)" />
<use xlink:href="#f1_20" transform="matrix(10.4,0,0,10.4,275.4,74.6)" />
<use xlink:href="#f1_2d" transform="matrix(10.4,0,0,10.4,284.2,74.6)" />
<use xlink:href="#f1_20" transform="matrix(10.4,0,0,10.4,289.5,74.6)" />
<use xlink:href="#f1_1q" transform="matrix(10.4,0,0,10.4,305.6,74.6)" />
<use xlink:href="#f1_1s" transform="matrix(10.4,0,0,10.4,317.1,74.6)" />
<use xlink:href="#f1_24" transform="matrix(10.4,0,0,10.4,328.9,74.6)" />
<use xlink:href="#f1_2e" transform="matrix(10.4,0,0,10.4,332.5,74.6)" />
<use xlink:href="#f1_22" transform="matrix(10.4,0,0,10.4,347.6,74.6)" />
<use xlink:href="#f1_2d" transform="matrix(10.4,0,0,10.4,356.4,74.6)" />
<use xlink:href="#f1_20" transform="matrix(10.4,0,0,10.4,361.8,74.6)" />
<use xlink:href="#f1_1w" transform="matrix(10.4,0,0,10.4,370.6,74.6)" />
<use xlink:href="#f1_2f" transform="matrix(10.4,0,0,10.4,379.5,74.6)" />
<use xlink:href="#f1_20" transform="matrix(10.4,0,0,10.4,383.9,74.6)" />
<use xlink:href="#f1_2e" transform="matrix(10.4,0,0,10.4,392.8,74.6)" />
<use xlink:href="#f1_2f" transform="matrix(10.4,0,0,10.4,400.8,74.6)" />
<use xlink:href="#f1_24" transform="matrix(10.4,0,0,10.4,412.3,74.6)" />
<use xlink:href="#f1_29" transform="matrix(10.4,0,0,10.4,415.9,74.6)" />
<use xlink:href="#f1_2f" transform="matrix(10.4,0,0,10.4,424.8,74.6)" />
<use xlink:href="#f1_20" transform="matrix(10.4,0,0,10.4,429.2,74.6)" />
<use xlink:href="#f1_22" transform="matrix(10.4,0,0,10.4,438.1,74.6)" />
<use xlink:href="#f1_20" transform="matrix(10.4,0,0,10.4,446.9,74.6)" />
<use xlink:href="#f1_2d" transform="matrix(10.4,0,0,10.4,455.8,74.6)" />
<use xlink:href="#f1_21" transform="matrix(10.4,0,0,10.4,468.3,74.6)" />
<use xlink:href="#f1_2g" transform="matrix(10.4,0,0,10.4,472.7,74.6)" />
<use xlink:href="#f1_29" transform="matrix(10.4,0,0,10.4,481.6,74.6)" />
<use xlink:href="#f1_1y" transform="matrix(10.4,0,0,10.4,490.4,74.6)" />
<use xlink:href="#f1_2f" transform="matrix(10.4,0,0,10.4,498.4,74.6)" />
<use xlink:href="#f1_24" transform="matrix(10.4,0,0,10.4,502.8,74.6)" />
<use xlink:href="#f1_2a" transform="matrix(10.4,0,0,10.4,506.4,74.6)" />
<use xlink:href="#f1_29" transform="matrix(10.4,0,0,10.4,515.2,74.6)" />
<use xlink:href="#f1_h" transform="matrix(10.4,0,0,10.4,524.1,74.6)" />
<use xlink:href="#f1_m" transform="matrix(10.4,0,0,10.4,129.2,130.5)" />
<use xlink:href="#f1_p" transform="matrix(10.4,0,0,10.4,138.1,130.5)" />
<use xlink:href="#f1_h" transform="matrix(10.4,0,0,10.4,147.3,130.5)" />
<use xlink:href="#f2_c" transform="matrix(10.5,0,0,11.5,245.3,118.4)" />
<use xlink:href="#f2_d" transform="matrix(10.5,0,0,11.5,261.8,118.3)" />
<use xlink:href="#f2_c" transform="matrix(10.5,0,0,11.5,198.6,141.2)" />
<use xlink:href="#f2_d" transform="matrix(10.5,0,0,11.5,215,141.1)" />
<use xlink:href="#f2_c" transform="matrix(10.4,0,0,11.6,243.1,141.4)" />
<use xlink:href="#f2_d" transform="matrix(10.4,0,0,11.6,308.5,141.3)" />
</g>
<path d="M190,126.7H314" class="g2_58" />
<g fill="#000000" >
<use xlink:href="#f1_h" transform="matrix(10.5,0,0,10.5,334.1,130.9)" />
<use xlink:href="#f3_1x" transform="matrix(7,0,0,7,180.8,118.8)" />
<use xlink:href="#f3_1w" transform="matrix(7,0,0,7,178.5,140.1)" />
<use xlink:href="#f3_21" transform="matrix(10.5,0,0,10.5,236.6,120.5)" />
<use xlink:href="#f3_2j" transform="matrix(10.5,0,0,10.5,251.1,120.5)" />
<use xlink:href="#f3_1z" transform="matrix(10.5,0,0,10.5,315.6,130.9)" />
<use xlink:href="#f3_2j" transform="matrix(10.5,0,0,10.5,324.5,130.9)" />
<use xlink:href="#f3_21" transform="matrix(10.5,0,0,10.5,189.8,143.3)" />
<use xlink:href="#f3_2j" transform="matrix(10.5,0,0,10.5,204.3,143.3)" />
<use xlink:href="#f3_21" transform="matrix(10.5,0,0,10.5,234.5,143.3)" />
<use xlink:href="#f3_1w" transform="matrix(10.5,0,0,10.5,248.2,143.3)" />
<use xlink:href="#f3_1x" transform="matrix(10.5,0,0,10.5,272.4,143.3)" />
<use xlink:href="#f3_2j" transform="matrix(10.5,0,0,10.5,297.9,143.3)" />
<use xlink:href="#f2_f" transform="matrix(10.5,0,0,10.5,223,143.3)" />
<use xlink:href="#f2_f" transform="matrix(10.5,0,0,10.5,260.7,143.3)" />
<use xlink:href="#f2_h" transform="matrix(10.5,0,0,10.5,285.7,143.3)" />
<use xlink:href="#f2_50" transform="matrix(15.7,0,0,15.8,172.5,136.2)" />
<use xlink:href="#f1_m" transform="matrix(10.4,0,0,10.4,404.2,130.5)" />
<use xlink:href="#f1_q" transform="matrix(10.4,0,0,10.4,413.1,130.5)" />
<use xlink:href="#f1_h" transform="matrix(10.4,0,0,10.4,422.3,130.5)" />
</g>
<path d="M470.1,106.4v15.2m13.6,-15.2v15.2m-15.2,4.9h17.3" class="g3_58" />
<g fill="#000000" >
<use xlink:href="#f1_k" transform="matrix(7,0,0,7.1,455.6,118.6)" />
<use xlink:href="#f1_l" transform="matrix(7,0,0,7.1,460.2,140.1)" />
<use xlink:href="#f1_h" transform="matrix(10.6,0,0,10.6,506,130.8)" />
<use xlink:href="#f3_2j" transform="matrix(10.6,0,0,10.6,472.2,120.3)" />
<use xlink:href="#f3_1z" transform="matrix(10.6,0,0,10.6,487.3,130.8)" />
<use xlink:href="#f3_2j" transform="matrix(10.6,0,0,10.6,496.3,130.8)" />
<use xlink:href="#f3_2j" transform="matrix(10.6,0,0,10.6,472.2,143.3)" />
<use xlink:href="#f2_h" transform="matrix(7,0,0,7.1,454.3,140.1)" />
<use xlink:href="#f2_50" transform="matrix(15.8,0,0,15.9,447.7,136.2)" />
<use xlink:href="#f1_m" transform="matrix(10.4,0,0,10.4,129.2,188.3)" />
<use xlink:href="#f1_r" transform="matrix(10.4,0,0,10.4,138.1,188.3)" />
<use xlink:href="#f1_h" transform="matrix(10.4,0,0,10.4,147.3,188.3)" />
</g>
<path d="M204.5,174.4v15m13.6,-15v15" class="g4_58" />
<g fill="#000000" >
<use xlink:href="#f1_k" transform="matrix(7,0,0,7,180.6,176.1)" />
<use xlink:href="#f1_k" transform="matrix(7,0,0,7,185.2,197.4)" />
<use xlink:href="#f1_h" transform="matrix(10.6,0,0,10.5,239.1,188.2)" />
<use xlink:href="#f3_2j" transform="matrix(10.6,0,0,10.5,191.7,188.2)" />
<use xlink:href="#f3_2j" transform="matrix(10.6,0,0,10.5,206.6,188.2)" />
<use xlink:href="#f3_1z" transform="matrix(10.6,0,0,10.5,220.5,188.2)" />
<use xlink:href="#f3_2j" transform="matrix(10.6,0,0,10.5,229.5,188.2)" />
<use xlink:href="#f2_h" transform="matrix(7,0,0,7,179.3,197.4)" />
<use xlink:href="#f2_50" transform="matrix(15.8,0,0,15.8,172.6,193.5)" />
<use xlink:href="#f1_m" transform="matrix(10.4,0,0,10.4,129.2,253)" />
<use xlink:href="#f1_s" transform="matrix(10.4,0,0,10.4,138.1,253)" />
<use xlink:href="#f1_h" transform="matrix(10.4,0,0,10.4,147.3,253)" />
<use xlink:href="#f1_18" transform="matrix(10.4,0,0,10.4,169.9,253)" />
<use xlink:href="#f1_21" transform="matrix(10.4,0,0,10.4,174.4,253)" />
</g>
<path d="M205.4,246.3h40m18.8,0h10.6" class="g5_58" />
<g fill="#000000" >
<use xlink:href="#f1_l" transform="matrix(7,0,0,6.9,237.2,256.8)" />
<use xlink:href="#f1_j" transform="matrix(7,0,0,6.9,194.7,259.6)" />
<use xlink:href="#f1_k" transform="matrix(10.4,0,0,10.4,221.7,240.2)" />
<use xlink:href="#f1_n" transform="matrix(10.4,0,0,10.4,265.1,262.7)" />
<use xlink:href="#f1_k" transform="matrix(10.4,0,0,10.4,204.9,263.9)" />
<use xlink:href="#f3_1w" transform="matrix(7,0,0,6.9,196.7,238.6)" />
<use xlink:href="#f3_2j" transform="matrix(10.4,0,0,10.4,226.8,263.9)" />
<use xlink:href="#f2_2c" transform="matrix(10.4,0,0,10.4,265.1,240.2)" />
<use xlink:href="#f2_x" transform="matrix(10.4,0,0,10.4,250.3,250.5)" />
<use xlink:href="#f2_f" transform="matrix(10.4,0,0,10.4,214.3,263.9)" />
<use xlink:href="#f2_50" transform="matrix(15.6,0,0,15.6,188.4,255.7)" />
<use xlink:href="#f1_f" transform="matrix(10.4,0,0,10.4,278.5,253)" />
<use xlink:href="#f1_2f" transform="matrix(10.4,0,0,10.4,289.9,253)" />
<use xlink:href="#f1_23" transform="matrix(10.4,0,0,10.4,294.3,253)" />
<use xlink:href="#f1_20" transform="matrix(10.4,0,0,10.4,303.2,253)" />
<use xlink:href="#f1_29" transform="matrix(10.4,0,0,10.4,312,253)" />
<use xlink:href="#f1_2i" transform="matrix(10.4,0,0,10.4,327.9,253)" />
<use xlink:href="#f1_23" transform="matrix(10.4,0,0,10.4,339.4,253)" />
<use xlink:href="#f1_1w" transform="matrix(10.4,0,0,10.4,348.3,253)" />
<use xlink:href="#f1_2f" transform="matrix(10.4,0,0,10.4,357.1,253)" />
<use xlink:href="#f1_24" transform="matrix(10.4,0,0,10.4,368.5,253)" />
<use xlink:href="#f1_2e" transform="matrix(10.4,0,0,10.4,372.1,253)" />
<use xlink:href="#f1_2h" transform="matrix(10.4,0,0,10.4,387.2,253)" />
<use xlink:href="#f1_1w" transform="matrix(10.4,0,0,10.4,395.2,253)" />
<use xlink:href="#f1_27" transform="matrix(10.4,0,0,10.4,404,253)" />
<use xlink:href="#f1_2g" transform="matrix(10.4,0,0,10.4,407.6,253)" />
<use xlink:href="#f1_20" transform="matrix(10.4,0,0,10.4,416.4,253)" />
<use xlink:href="#f1_2a" transform="matrix(10.4,0,0,10.4,432.3,253)" />
<use xlink:href="#f1_21" transform="matrix(10.4,0,0,10.4,441.1,253)" />
<use xlink:href="#f3_1w" transform="matrix(10.4,0,0,10.4,451.9,253)" />
<use xlink:href="#f1_h" transform="matrix(10.4,0,0,10.4,460.7,253)" />
<use xlink:href="#f1_n" transform="matrix(10.4,0,0,10.4,129.2,310)" />
<use xlink:href="#f1_j" transform="matrix(10.4,0,0,10.4,138.1,310)" />
<use xlink:href="#f1_h" transform="matrix(10.4,0,0,10.4,147.3,310)" />
<use xlink:href="#f2_c" transform="matrix(10.4,0,0,11.3,197.3,309.2)" />
<use xlink:href="#f2_d" transform="matrix(10.4,0,0,11.3,213.8,309.1)" />
<use xlink:href="#f2_c" transform="matrix(10.4,0,0,11.3,279.9,309.2)" />
<use xlink:href="#f2_d" transform="matrix(10.4,0,0,11.3,296.4,309.1)" />
<use xlink:href="#f1_h" transform="matrix(10.4,0,0,10.4,320.6,311.3)" />
<use xlink:href="#f3_1x" transform="matrix(7,0,0,6.9,181,299.3)" />
<use xlink:href="#f3_1w" transform="matrix(7,0,0,6.9,263.8,299.3)" />
<use xlink:href="#f3_1w" transform="matrix(7,0,0,6.9,178.6,320.3)" />
<use xlink:href="#f3_1x" transform="matrix(7,0,0,6.9,261.5,320.3)" />
<use xlink:href="#f3_21" transform="matrix(10.4,0,0,10.4,188.6,311.3)" />
<use xlink:href="#f3_2j" transform="matrix(10.4,0,0,10.4,203.1,311.3)" />
<use xlink:href="#f3_1z" transform="matrix(10.4,0,0,10.4,219.6,311.3)" />
<use xlink:href="#f3_2j" transform="matrix(10.4,0,0,10.4,228.6,311.3)" />
<use xlink:href="#f3_21" transform="matrix(10.4,0,0,10.4,271.2,311.3)" />
<use xlink:href="#f3_2j" transform="matrix(10.4,0,0,10.4,285.7,311.3)" />
<use xlink:href="#f3_1z" transform="matrix(10.4,0,0,10.4,302.2,311.3)" />
<use xlink:href="#f3_2j" transform="matrix(10.4,0,0,10.4,311.2,311.3)" />
<use xlink:href="#f2_f" transform="matrix(10.4,0,0,10.4,241.9,311.3)" />
<use xlink:href="#f2_50" transform="matrix(15.6,0,0,15.6,172.6,316.5)" />
<use xlink:href="#f2_50" transform="matrix(15.6,0,0,15.6,255.4,316.5)" />
<use xlink:href="#f4_1i" transform="matrix(12,0,0,12,175.6,364.8)" />
<use xlink:href="#f4_17" transform="matrix(12,0,0,12,185.4,364.8)" />
<use xlink:href="#f4_1e" transform="matrix(12,0,0,12,200.3,364.8)" />
<use xlink:href="#f4_1h" transform="matrix(12,0,0,12,216.9,364.8)" />
<use xlink:href="#f4_1j" transform="matrix(12,0,0,12,229.7,364.8)" />
<use xlink:href="#f4_10" transform="matrix(12,0,0,12,251.5,364.8)" />
<use xlink:href="#f4_1d" transform="matrix(12,0,0,12,265.7,364.8)" />
<use xlink:href="#f4_1i" transform="matrix(12,0,0,12,281.2,364.8)" />
<use xlink:href="#f4_1m" transform="matrix(12,0,0,12,291,364.8)" />
<use xlink:href="#f4_14" transform="matrix(12,0,0,12,308.9,364.8)" />
<use xlink:href="#f4_1h" transform="matrix(12,0,0,12,320.1,364.8)" />
<use xlink:href="#f4_1j" transform="matrix(12,0,0,12,343.2,364.8)" />
<use xlink:href="#f4_1o" transform="matrix(12,0,0,12,354.7,364.8)" />
<use xlink:href="#f4_1f" transform="matrix(12,0,0,12,366.9,364.8)" />
<use xlink:href="#f4_14" transform="matrix(12,0,0,12,378.7,364.8)" />
<use xlink:href="#f4_1g" transform="matrix(12,0,0,12,399.9,364.8)" />
<use xlink:href="#f4_1k" transform="matrix(12,0,0,12,416.5,364.8)" />
<use xlink:href="#f4_14" transform="matrix(12,0,0,12,431.4,364.8)" />
<use xlink:href="#f4_1i" transform="matrix(12,0,0,12,442.5,364.8)" />
<use xlink:href="#f4_1j" transform="matrix(12,0,0,12,452.3,364.8)" />
<use xlink:href="#f4_18" transform="matrix(12,0,0,12,463.8,364.8)" />
<use xlink:href="#f4_1e" transform="matrix(12,0,0,12,470.9,364.8)" />
<use xlink:href="#f4_1d" transform="matrix(12,0,0,12,487.5,364.8)" />
<use xlink:href="#f4_1i" transform="matrix(12,0,0,12,503,364.8)" />
<use xlink:href="#f4_b" transform="matrix(12,0,0,12,523.1,364.8)" />
<use xlink:href="#f4_n" transform="matrix(12,0,0,12,532.2,364.8)" />
<use xlink:href="#f4_1c" transform="matrix(12,0,0,12,554.7,364.8)" />
<use xlink:href="#f4_10" transform="matrix(12,0,0,12,572.6,364.8)" />
<use xlink:href="#f4_1h" transform="matrix(12,0,0,12,586.8,364.8)" />
<use xlink:href="#f4_1a" transform="matrix(12,0,0,12,599.6,364.8)" />
<use xlink:href="#f4_1i" transform="matrix(12,0,0,12,613.2,364.8)" />
<use xlink:href="#f4_c" transform="matrix(12,0,0,12,623,364.8)" />
<use xlink:href="#f1_n" transform="matrix(10.4,0,0,10.4,129.2,432.7)" />
<use xlink:href="#f1_k" transform="matrix(10.4,0,0,10.4,138.1,432.7)" />
<use xlink:href="#f1_h" transform="matrix(10.4,0,0,10.4,147.3,432.7)" />
<use xlink:href="#f1_b" transform="matrix(10.4,0,0,10.4,192.5,432.7)" />
<use xlink:href="#f1_24" transform="matrix(10.4,0,0,10.4,197.8,432.7)" />
<use xlink:href="#f1_c" transform="matrix(10.4,0,0,10.4,201.3,432.7)" />
<use xlink:href="#f2_c" transform="matrix(10.5,0,0,16.3,312.7,417.9)" />
<use xlink:href="#f2_d" transform="matrix(10.5,0,0,16.3,376.2,417.9)" />
</g>
<path d="M241.7,427.4H382" class="g6_58" />
<g fill="#000000" >
<use xlink:href="#f1_99" transform="matrix(7.9,0,0,7.9,343.3,411.6)" />
<use xlink:href="#f1_k" transform="matrix(7.9,0,0,7.9,350.2,411.6)" />
<use xlink:href="#f1_l" transform="matrix(7.9,0,0,7.9,366.4,411.6)" />
<use xlink:href="#f1_n" transform="matrix(7.9,0,0,7.9,326.7,439.1)" />
<use xlink:href="#f1_1y" transform="matrix(10.5,0,0,10.5,260.4,421.2)" />
<use xlink:href="#f1_2a" transform="matrix(10.5,0,0,10.5,268.8,421.2)" />
<use xlink:href="#f1_2e" transform="matrix(10.5,0,0,10.5,278.1,421.2)" />
<use xlink:href="#f1_20" transform="matrix(10.5,0,0,10.5,286.4,421.2)" />
<use xlink:href="#f1_1y" transform="matrix(10.5,0,0,10.5,295.7,421.2)" />
<use xlink:href="#f1_2f" transform="matrix(10.5,0,0,10.5,319.9,421.2)" />
<use xlink:href="#f1_1w" transform="matrix(10.5,0,0,10.5,324.7,421.2)" />
<use xlink:href="#f1_29" transform="matrix(10.5,0,0,10.5,334,421.2)" />
<use xlink:href="#f1_h" transform="matrix(10.5,0,0,10.5,404.7,431.7)" />
<use xlink:href="#f1_k" transform="matrix(10.5,0,0,10.5,287.4,448.7)" />
<use xlink:href="#f3_2j" transform="matrix(10.5,0,0,10.5,242.8,421.2)" />
<use xlink:href="#f3_2j" transform="matrix(10.5,0,0,10.5,356,421.2)" />
<use xlink:href="#f3_1z" transform="matrix(10.5,0,0,10.5,385.9,431.7)" />
<use xlink:href="#f3_2j" transform="matrix(10.5,0,0,10.5,395.2,431.7)" />
<use xlink:href="#f3_2j" transform="matrix(10.5,0,0,10.5,316.3,448.7)" />
<use xlink:href="#f2_f" transform="matrix(10.5,0,0,10.5,300.3,448.7)" />
<use xlink:href="#f2_50" transform="matrix(21,0,0,21,227.6,440.2)" />
<use xlink:href="#f1_b" transform="matrix(10.4,0,0,10.4,463.8,432.7)" />
<use xlink:href="#f1_24" transform="matrix(10.4,0,0,10.4,469.1,432.7)" />
<use xlink:href="#f1_24" transform="matrix(10.4,0,0,10.4,472.7,432.7)" />
<use xlink:href="#f1_c" transform="matrix(10.4,0,0,10.4,476.2,432.7)" />
</g>
<path d="M518.1,418l1.6,-.9l4,6.4l4.2,-16.7h38.9" class="g0_58" />
<path fill-rule="evenodd" d="M518,417.9l2.1,-1.2l3.6,5.3l3.9,-15.6h39.2v.8H528.1L524,423.5h-.7l-3.9,-5.8l-1.1,.6l-.3,-.4Z" class="g1_58" />
<path d="M590,418l1.6,-.9l4,6.4l4.2,-16.7h38.6" class="g0_58" />
<path fill-rule="evenodd" d="M589.9,417.9l2.1,-1.2l3.6,5.3l3.9,-15.6h38.9v.8H600l-4.1,16.3h-.7l-3.9,-5.8l-1.1,.6l-.3,-.4Z" class="g1_58" />
<path d="M518,444l1.6,-.9l4,6.4l4.2,-16.7h38.9" class="g0_58" />
<path fill-rule="evenodd" d="M517.9,443.8l2.1,-1.2l3.6,5.3l3.9,-15.5h39.2v.7H528l-4.1,16.4h-.7l-3.9,-5.9l-1.1,.7l-.3,-.5Z" class="g1_58" />
<path d="M590.2,444l1.6,-.9l3.9,6.4l4.2,-16.7h38.7" class="g0_58" />
<path fill-rule="evenodd" d="M590.1,443.8l2.1,-1.2l3.5,5.3l4,-15.5h38.9v.7H600.2l-4.1,16.4h-.8l-3.9,-5.9l-1.1,.7l-.2,-.5Z" class="g1_58" />
<path d="M516.7,428.5H639.8" class="g7_58" />
<g fill="#000000" >
<use xlink:href="#f1_k" transform="matrix(10.5,0,0,10.5,559.8,422.4)" />
<use xlink:href="#f1_k" transform="matrix(10.5,0,0,10.5,631.6,422.4)" />
<use xlink:href="#f1_h" transform="matrix(10.5,0,0,10.5,662.7,432.8)" />
<use xlink:href="#f1_k" transform="matrix(10.5,0,0,10.5,559.7,448.4)" />
<use xlink:href="#f1_k" transform="matrix(10.5,0,0,10.5,631.7,448.4)" />
<use xlink:href="#f3_2j" transform="matrix(10.5,0,0,10.5,528.6,422.4)" />
<use xlink:href="#f3_2j" transform="matrix(10.5,0,0,10.5,600.6,422.4)" />
<use xlink:href="#f3_1z" transform="matrix(10.5,0,0,10.5,643.9,432.8)" />
<use xlink:href="#f3_2j" transform="matrix(10.5,0,0,10.5,653.2,432.8)" />
<use xlink:href="#f3_2j" transform="matrix(10.5,0,0,10.5,528.5,448.4)" />
<use xlink:href="#f3_2j" transform="matrix(10.5,0,0,10.5,600.7,448.4)" />
<use xlink:href="#f2_f" transform="matrix(10.5,0,0,10.5,545.3,422.4)" />
<use xlink:href="#f2_h" transform="matrix(10.5,0,0,10.5,574,422.4)" />
<use xlink:href="#f2_h" transform="matrix(10.5,0,0,10.5,617.3,422.4)" />
<use xlink:href="#f2_f" transform="matrix(10.5,0,0,10.5,545.2,448.4)" />
<use xlink:href="#f2_f" transform="matrix(10.5,0,0,10.5,573.9,448.4)" />
<use xlink:href="#f2_h" transform="matrix(10.5,0,0,10.5,617.5,448.4)" />
<use xlink:href="#f2_50" transform="matrix(21,0,0,21,502.4,441.4)" />
<use xlink:href="#f1_b" transform="matrix(10.4,0,0,10.4,185.3,507.3)" />
<use xlink:href="#f1_24" transform="matrix(10.4,0,0,10.4,190.6,507.3)" />
<use xlink:href="#f1_24" transform="matrix(10.4,0,0,10.4,194.2,507.3)" />
<use xlink:href="#f1_24" transform="matrix(10.4,0,0,10.4,197.7,507.3)" />
<use xlink:href="#f1_c" transform="matrix(10.4,0,0,10.4,201.3,507.3)" />
<use xlink:href="#f2_c" transform="matrix(10.4,0,0,11.4,266.6,520.4)" />
<use xlink:href="#f2_d" transform="matrix(10.4,0,0,11.4,316.3,520.4)" />
<use xlink:href="#f2_c" transform="matrix(10.4,0,0,11.4,349.8,520.4)" />
<use xlink:href="#f2_d" transform="matrix(10.4,0,0,11.4,400.1,520.4)" />
</g>
<path d="M241.7,502.6H405.8" class="g7_58" />
<g fill="#000000" >
<use xlink:href="#f1_k" transform="matrix(10.5,0,0,10.5,320,496.5)" />
<use xlink:href="#f1_h" transform="matrix(10.5,0,0,10.5,428.7,506.9)" />
<use xlink:href="#f1_2e" transform="matrix(10.5,0,0,10.5,242.3,522.5)" />
<use xlink:href="#f1_24" transform="matrix(10.5,0,0,10.5,250.6,522.5)" />
<use xlink:href="#f1_29" transform="matrix(10.5,0,0,10.5,254.4,522.5)" />
<use xlink:href="#f1_2e" transform="matrix(10.5,0,0,10.5,325.6,522.5)" />
<use xlink:href="#f1_24" transform="matrix(10.5,0,0,10.5,333.9,522.5)" />
<use xlink:href="#f1_29" transform="matrix(10.5,0,0,10.5,337.7,522.5)" />
<use xlink:href="#f3_1z" transform="matrix(10.5,0,0,10.5,409.8,506.9)" />
<use xlink:href="#f3_2j" transform="matrix(10.5,0,0,10.5,419.2,506.9)" />
<use xlink:href="#f3_2j" transform="matrix(10.5,0,0,10.5,273.9,522.5)" />
<use xlink:href="#f3_1w" transform="matrix(10.5,0,0,10.5,305.6,522.5)" />
<use xlink:href="#f3_2j" transform="matrix(10.5,0,0,10.5,357.1,522.5)" />
<use xlink:href="#f3_1x" transform="matrix(10.5,0,0,10.5,388.8,522.5)" />
<use xlink:href="#f2_h" transform="matrix(10.5,0,0,10.5,290.6,522.5)" />
<use xlink:href="#f2_h" transform="matrix(10.5,0,0,10.5,373.9,522.5)" />
<use xlink:href="#f2_50" transform="matrix(21,0,0,21,227.4,515.4)" />
<use xlink:href="#f1_b" transform="matrix(10.4,0,0,10.4,459.2,507.3)" />
<use xlink:href="#f1_24" transform="matrix(10.4,0,0,10.4,464.5,507.3)" />
<use xlink:href="#f1_2h" transform="matrix(10.4,0,0,10.4,468.1,507.3)" />
<use xlink:href="#f1_c" transform="matrix(10.4,0,0,10.4,476.1,507.3)" />
<use xlink:href="#f2_c" transform="matrix(10.3,0,0,11.3,546.8,495.1)" />
<use xlink:href="#f2_d" transform="matrix(10.3,0,0,11.3,596.9,495.1)" />
<use xlink:href="#f2_c" transform="matrix(10.3,0,0,11.3,546.9,520.9)" />
<use xlink:href="#f2_d" transform="matrix(10.3,0,0,11.3,596.7,520.9)" />
</g>
<path d="M516.7,503.2h86" class="g8_58" />
<g fill="#000000" >
<use xlink:href="#f1_1y" transform="matrix(10.5,0,0,10.4,517.4,497.1)" />
<use xlink:href="#f1_2a" transform="matrix(10.5,0,0,10.4,525.7,497.1)" />
<use xlink:href="#f1_2e" transform="matrix(10.5,0,0,10.4,535,497.1)" />
<use xlink:href="#f1_h" transform="matrix(10.5,0,0,10.4,625.5,507.4)" />
<use xlink:href="#f1_1y" transform="matrix(10.5,0,0,10.4,517.5,522.9)" />
<use xlink:href="#f1_2a" transform="matrix(10.5,0,0,10.4,525.8,522.9)" />
<use xlink:href="#f1_2e" transform="matrix(10.5,0,0,10.4,535.1,522.9)" />
<use xlink:href="#f3_2j" transform="matrix(10.5,0,0,10.4,554,497.1)" />
<use xlink:href="#f3_1w" transform="matrix(10.5,0,0,10.4,586.1,497.1)" />
<use xlink:href="#f3_1z" transform="matrix(10.5,0,0,10.4,606.6,507.4)" />
<use xlink:href="#f3_2j" transform="matrix(10.5,0,0,10.4,616,507.4)" />
<use xlink:href="#f3_2j" transform="matrix(10.5,0,0,10.4,554.1,522.9)" />
<use xlink:href="#f3_1w" transform="matrix(10.5,0,0,10.4,585.9,522.9)" />
<use xlink:href="#f2_f" transform="matrix(10.4,0,0,10.4,570.8,497.1)" />
<use xlink:href="#f2_h" transform="matrix(10.4,0,0,10.4,570.9,522.9)" />
<use xlink:href="#f2_50" transform="matrix(20.9,0,0,20.8,502.3,515.9)" />
<use xlink:href="#f1_b" transform="matrix(10.4,0,0,10.4,187.9,577.5)" />
<use xlink:href="#f1_2h" transform="matrix(10.4,0,0,10.4,193.2,577.5)" />
<use xlink:href="#f1_c" transform="matrix(10.4,0,0,10.4,201.4,577.5)" />
<use xlink:href="#f1_1y" transform="matrix(10.7,0,0,10.6,241.2,576.9)" />
<use xlink:href="#f1_2a" transform="matrix(10.7,0,0,10.6,249.5,576.9)" />
<use xlink:href="#f1_2e" transform="matrix(10.7,0,0,10.6,258.9,576.9)" />
<use xlink:href="#f1_1y" transform="matrix(10.7,0,0,10.6,285.5,576.9)" />
<use xlink:href="#f1_2a" transform="matrix(10.7,0,0,10.6,293.8,576.9)" />
<use xlink:href="#f1_2e" transform="matrix(10.7,0,0,10.6,303.2,576.9)" />
<use xlink:href="#f1_l" transform="matrix(10.7,0,0,10.6,315.3,576.9)" />
<use xlink:href="#f1_1y" transform="matrix(10.7,0,0,10.6,338.6,576.9)" />
<use xlink:href="#f1_2a" transform="matrix(10.7,0,0,10.6,346.9,576.9)" />
<use xlink:href="#f1_2e" transform="matrix(10.7,0,0,10.6,356.2,576.9)" />
<use xlink:href="#f1_m" transform="matrix(10.7,0,0,10.6,368.4,576.9)" />
<use xlink:href="#f1_h" transform="matrix(10.7,0,0,10.6,413.4,576.9)" />
<use xlink:href="#f3_2j" transform="matrix(10.7,0,0,10.6,271.3,576.9)" />
<use xlink:href="#f3_2j" transform="matrix(10.7,0,0,10.6,324.4,576.9)" />
<use xlink:href="#f3_2j" transform="matrix(10.7,0,0,10.6,377.7,576.9)" />
<use xlink:href="#f3_1z" transform="matrix(10.7,0,0,10.6,394.6,576.9)" />
<use xlink:href="#f3_2j" transform="matrix(10.7,0,0,10.6,403.9,576.9)" />
<use xlink:href="#f2_50" transform="matrix(21.2,0,0,21.2,227.5,585.6)" />
<use xlink:href="#f1_b" transform="matrix(10.4,0,0,10.4,459.2,577.5)" />
<use xlink:href="#f1_2h" transform="matrix(10.4,0,0,10.4,464.5,577.5)" />
<use xlink:href="#f1_24" transform="matrix(10.4,0,0,10.4,472.8,577.5)" />
<use xlink:href="#f1_c" transform="matrix(10.4,0,0,10.4,476.3,577.5)" />
<use xlink:href="#f1_o" transform="matrix(8,0,0,8,542,567.6)" />
<use xlink:href="#f1_1y" transform="matrix(10.7,0,0,10.6,516.1,577.3)" />
<use xlink:href="#f1_2a" transform="matrix(10.7,0,0,10.6,524.3,577.3)" />
<use xlink:href="#f1_2e" transform="matrix(10.7,0,0,10.6,533.5,577.3)" />
<use xlink:href="#f1_h" transform="matrix(10.7,0,0,10.6,590.1,577.3)" />
<use xlink:href="#f3_2j" transform="matrix(10.7,0,0,10.6,554.8,577.3)" />
<use xlink:href="#f3_1z" transform="matrix(10.7,0,0,10.6,571.5,577.3)" />
<use xlink:href="#f3_2j" transform="matrix(10.7,0,0,10.6,580.8,577.3)" />
<use xlink:href="#f2_50" transform="matrix(21.2,0,0,21.2,502.5,585.9)" />
<use xlink:href="#f1_b" transform="matrix(10.4,0,0,10.4,180.7,640.9)" />
<use xlink:href="#f1_2h" transform="matrix(10.4,0,0,10.4,186.1,640.9)" />
<use xlink:href="#f1_24" transform="matrix(10.4,0,0,10.4,194,640.9)" />
<use xlink:href="#f1_24" transform="matrix(10.4,0,0,10.4,197.6,640.9)" />
<use xlink:href="#f1_c" transform="matrix(10.4,0,0,10.4,201.1,640.9)" />
<use xlink:href="#f1_l" transform="matrix(7.9,0,0,8,262.3,631)" />
<use xlink:href="#f1_n" transform="matrix(7.9,0,0,8,315.3,631)" />
<use xlink:href="#f1_2e" transform="matrix(10.7,0,0,10.6,241.3,640.7)" />
<use xlink:href="#f1_24" transform="matrix(10.7,0,0,10.6,249.6,640.7)" />
<use xlink:href="#f1_29" transform="matrix(10.7,0,0,10.6,253.3,640.7)" />
<use xlink:href="#f1_1y" transform="matrix(10.7,0,0,10.6,289.2,640.7)" />
<use xlink:href="#f1_2a" transform="matrix(10.7,0,0,10.6,297.5,640.7)" />
<use xlink:href="#f1_2e" transform="matrix(10.7,0,0,10.6,306.8,640.7)" />
<use xlink:href="#f1_h" transform="matrix(10.7,0,0,10.6,363.7,640.7)" />
<use xlink:href="#f3_2j" transform="matrix(10.7,0,0,10.6,275,640.7)" />
<use xlink:href="#f3_2j" transform="matrix(10.7,0,0,10.6,328,640.7)" />
<use xlink:href="#f3_1z" transform="matrix(10.7,0,0,10.6,344.9,640.7)" />
<use xlink:href="#f3_2j" transform="matrix(10.7,0,0,10.6,354.3,640.7)" />
<use xlink:href="#f2_50" transform="matrix(21.2,0,0,21.2,227.5,649.4)" />
<use xlink:href="#f1_b" transform="matrix(10.4,0,0,10.4,452.3,640.9)" />
<use xlink:href="#f1_2h" transform="matrix(10.4,0,0,10.4,457.6,640.9)" />
<use xlink:href="#f1_24" transform="matrix(10.4,0,0,10.4,465.5,640.9)" />
<use xlink:href="#f1_24" transform="matrix(10.4,0,0,10.4,469.1,640.9)" />
<use xlink:href="#f1_24" transform="matrix(10.4,0,0,10.4,472.6,640.9)" />
<use xlink:href="#f1_c" transform="matrix(10.4,0,0,10.4,476.2,640.9)" />
<use xlink:href="#f1_m" transform="matrix(7.9,0,0,7.9,538.6,631.5)" />
<use xlink:href="#f1_n" transform="matrix(7.9,0,0,7.9,612.6,631.5)" />
<use xlink:href="#f1_1y" transform="matrix(10.6,0,0,10.6,516.1,641.1)" />
<use xlink:href="#f1_2a" transform="matrix(10.6,0,0,10.6,524.4,641.1)" />
<use xlink:href="#f1_2f" transform="matrix(10.6,0,0,10.6,533.7,641.1)" />
<use xlink:href="#f1_1y" transform="matrix(10.6,0,0,10.6,569,641.1)" />
<use xlink:href="#f1_2a" transform="matrix(10.6,0,0,10.6,577.3,641.1)" />
<use xlink:href="#f1_2e" transform="matrix(10.6,0,0,10.6,586.6,641.1)" />
<use xlink:href="#f1_20" transform="matrix(10.6,0,0,10.6,594.9,641.1)" />
<use xlink:href="#f1_1y" transform="matrix(10.6,0,0,10.6,604.2,641.1)" />
<use xlink:href="#f1_h" transform="matrix(10.6,0,0,10.6,664.4,641.1)" />
<use xlink:href="#f3_2j" transform="matrix(10.6,0,0,10.6,551.4,641.1)" />
<use xlink:href="#f3_2j" transform="matrix(10.6,0,0,10.6,628.7,641.1)" />
<use xlink:href="#f3_1z" transform="matrix(10.6,0,0,10.6,645.6,641.1)" />
<use xlink:href="#f3_2j" transform="matrix(10.6,0,0,10.6,654.9,641.1)" />
<use xlink:href="#f2_50" transform="matrix(21.1,0,0,21.1,502.4,649.7)" />
<use xlink:href="#f1_b" transform="matrix(10.4,0,0,10.4,184.2,714.5)" />
<use xlink:href="#f1_24" transform="matrix(10.4,0,0,10.4,189.5,714.5)" />
<use xlink:href="#f1_2j" transform="matrix(10.4,0,0,10.4,193.1,714.5)" />
<use xlink:href="#f1_c" transform="matrix(10.4,0,0,10.4,201.1,714.5)" />
</g>
<path d="M243.1,728.8l1.5,-1.2l4,8.8l4.3,-23.2H412.7" class="g0_58" />
<path fill-rule="evenodd" d="M243,728.6l2.1,-1.6l3.5,7.3l4,-21.5H412.7v.8H253.2L249,736.4h-.8l-4,-8.2l-1,.8l-.2,-.4Z" class="g1_58" />
<path d="M241.7,710.5H414" class="g9_58" />
<g fill="#000000" >
<use xlink:href="#f1_l" transform="matrix(7.8,0,0,7.8,262.4,725.5)" />
<use xlink:href="#f1_l" transform="matrix(7.8,0,0,7.8,295.9,725.5)" />
<use xlink:href="#f1_l" transform="matrix(7.8,0,0,7.8,350.6,725.5)" />
<use xlink:href="#f1_l" transform="matrix(7.8,0,0,7.8,389.1,725.5)" />
<use xlink:href="#f1_2e" transform="matrix(10.4,0,0,10.4,288.1,704.4)" />
<use xlink:href="#f1_24" transform="matrix(10.4,0,0,10.4,296.4,704.4)" />
<use xlink:href="#f1_29" transform="matrix(10.4,0,0,10.4,300.2,704.4)" />
<use xlink:href="#f1_1y" transform="matrix(10.4,0,0,10.4,327.3,704.4)" />
<use xlink:href="#f1_2a" transform="matrix(10.4,0,0,10.4,335.6,704.4)" />
<use xlink:href="#f1_2e" transform="matrix(10.4,0,0,10.4,344.9,704.4)" />
<use xlink:href="#f1_h" transform="matrix(10.4,0,0,10.4,436.5,714.7)" />
<use xlink:href="#f1_2e" transform="matrix(10.4,0,0,10.4,274.8,735)" />
<use xlink:href="#f1_24" transform="matrix(10.4,0,0,10.4,283.1,735)" />
<use xlink:href="#f1_29" transform="matrix(10.4,0,0,10.4,286.9,735)" />
<use xlink:href="#f1_1y" transform="matrix(10.4,0,0,10.4,363.1,735)" />
<use xlink:href="#f1_2a" transform="matrix(10.4,0,0,10.4,371.4,735)" />
<use xlink:href="#f1_2e" transform="matrix(10.4,0,0,10.4,380.7,735)" />
<use xlink:href="#f3_2j" transform="matrix(10.4,0,0,10.4,313.1,704.4)" />
<use xlink:href="#f3_2j" transform="matrix(10.4,0,0,10.4,357.4,704.4)" />
<use xlink:href="#f3_1z" transform="matrix(10.4,0,0,10.4,417.7,714.7)" />
<use xlink:href="#f3_2j" transform="matrix(10.4,0,0,10.4,427,714.7)" />
<use xlink:href="#f3_1w" transform="matrix(10.4,0,0,10.4,252.7,735)" />
<use xlink:href="#f3_2j" transform="matrix(10.4,0,0,10.4,308.5,735)" />
<use xlink:href="#f3_1x" transform="matrix(10.4,0,0,10.4,340.5,735)" />
<use xlink:href="#f3_2j" transform="matrix(10.4,0,0,10.4,401.8,735)" />
<use xlink:href="#f2_f" transform="matrix(10.5,0,0,10.4,325.3,735)" />
<use xlink:href="#f2_50" transform="matrix(20.9,0,0,20.8,227.4,723.2)" />
<use xlink:href="#f1_b" transform="matrix(10.4,0,0,10.4,462.9,714.5)" />
<use xlink:href="#f1_2j" transform="matrix(10.4,0,0,10.4,468.2,714.5)" />
<use xlink:href="#f1_c" transform="matrix(10.4,0,0,10.4,476.4,714.5)" />
<use xlink:href="#f2_c" transform="matrix(10.4,0,0,11.4,605.8,733)" />
<use xlink:href="#f2_d" transform="matrix(10.4,0,0,11.4,655.8,733)" />
</g>
<path d="M513.5,729.4l1.5,-1.3l4,9.3l4.2,-24.3H661.6" class="g0_58" />
<path fill-rule="evenodd" d="M513.3,729.2l2.1,-1.7l3.6,7.7l3.9,-22.5H661.6v.8h-138l-4.2,23.9h-.8l-4,-8.6l-.9,.8l-.4,-.4Z" class="g1_58" />
<path d="M512.1,710.4H662.9" class="g7_58" />
<g fill="#000000" >
<use xlink:href="#f1_m" transform="matrix(7.9,0,0,7.8,549.7,725.5)" />
<use xlink:href="#f1_k" transform="matrix(10.5,0,0,10.4,583.8,704.3)" />
<use xlink:href="#f1_h" transform="matrix(10.5,0,0,10.4,685.8,714.6)" />
<use xlink:href="#f1_1y" transform="matrix(10.5,0,0,10.4,523.7,735)" />
<use xlink:href="#f1_2a" transform="matrix(10.5,0,0,10.4,532,735)" />
<use xlink:href="#f1_2e" transform="matrix(10.5,0,0,10.4,541.3,735)" />
<use xlink:href="#f1_1y" transform="matrix(10.5,0,0,10.4,576.7,735)" />
<use xlink:href="#f1_2a" transform="matrix(10.5,0,0,10.4,585.1,735)" />
<use xlink:href="#f1_2e" transform="matrix(10.5,0,0,10.4,594.4,735)" />
<use xlink:href="#f3_1z" transform="matrix(10.5,0,0,10.4,667,714.6)" />
<use xlink:href="#f3_2j" transform="matrix(10.5,0,0,10.4,676.3,714.6)" />
<use xlink:href="#f3_2j" transform="matrix(10.5,0,0,10.4,562.5,735)" />
<use xlink:href="#f3_2j" transform="matrix(10.5,0,0,10.4,613.3,735)" />
<use xlink:href="#f3_1w" transform="matrix(10.5,0,0,10.4,645.3,735)" />
<use xlink:href="#f2_f" transform="matrix(10.5,0,0,10.4,630.1,735)" />
<use xlink:href="#f2_50" transform="matrix(21,0,0,20.9,497.8,723.1)" />
<use xlink:href="#f1_b" transform="matrix(10.4,0,0,10.4,184.2,801.9)" />
<use xlink:href="#f1_2j" transform="matrix(10.4,0,0,10.4,189.5,801.9)" />
<use xlink:href="#f1_24" transform="matrix(10.4,0,0,10.4,197.8,801.9)" />
<use xlink:href="#f1_c" transform="matrix(10.4,0,0,10.4,201.3,801.9)" />
</g>
<path d="M241.7,797.4H358.6" class="g10_58" />
<g fill="#000000" >
<use xlink:href="#f1_p" transform="matrix(7.9,0,0,7.9,263.6,781.6)" />
<use xlink:href="#f1_p" transform="matrix(7.9,0,0,7.9,334.9,781.6)" />
<use xlink:href="#f1_l" transform="matrix(7.9,0,0,7.9,272.8,809)" />
<use xlink:href="#f1_l" transform="matrix(7.9,0,0,7.9,325.8,809)" />
<use xlink:href="#f1_2e" transform="matrix(10.5,0,0,10.5,242.5,791.2)" />
<use xlink:href="#f1_24" transform="matrix(10.5,0,0,10.5,250.8,791.2)" />
<use xlink:href="#f1_29" transform="matrix(10.5,0,0,10.5,254.6,791.2)" />
<use xlink:href="#f1_1y" transform="matrix(10.5,0,0,10.5,308.8,791.2)" />
<use xlink:href="#f1_2a" transform="matrix(10.5,0,0,10.5,317.2,791.2)" />
<use xlink:href="#f1_2e" transform="matrix(10.5,0,0,10.5,326.5,791.2)" />
<use xlink:href="#f1_h" transform="matrix(10.5,0,0,10.5,381.2,801.6)" />
<use xlink:href="#f1_2e" transform="matrix(10.5,0,0,10.5,251.8,818.7)" />
<use xlink:href="#f1_24" transform="matrix(10.5,0,0,10.5,260.1,818.7)" />
<use xlink:href="#f1_29" transform="matrix(10.5,0,0,10.5,263.9,818.7)" />
<use xlink:href="#f1_1y" transform="matrix(10.5,0,0,10.5,299.7,818.7)" />
<use xlink:href="#f1_2a" transform="matrix(10.5,0,0,10.5,308,818.7)" />
<use xlink:href="#f1_2e" transform="matrix(10.5,0,0,10.5,317.3,818.7)" />
<use xlink:href="#f3_2j" transform="matrix(10.5,0,0,10.5,276.4,791.2)" />
<use xlink:href="#f3_2j" transform="matrix(10.5,0,0,10.5,347.7,791.2)" />
<use xlink:href="#f3_1z" transform="matrix(10.5,0,0,10.5,362.4,801.6)" />
<use xlink:href="#f3_2j" transform="matrix(10.5,0,0,10.5,371.7,801.6)" />
<use xlink:href="#f3_2j" transform="matrix(10.5,0,0,10.5,285.5,818.7)" />
<use xlink:href="#f3_2j" transform="matrix(10.5,0,0,10.5,338.4,818.7)" />
<use xlink:href="#f2_f" transform="matrix(10.5,0,0,10.5,293.1,791.2)" />
<use xlink:href="#f2_50" transform="matrix(21,0,0,21,227.5,810.2)" />
<use xlink:href="#f1_b" transform="matrix(10.4,0,0,10.4,455.7,801.9)" />
<use xlink:href="#f1_2j" transform="matrix(10.4,0,0,10.4,461.1,801.9)" />
<use xlink:href="#f1_24" transform="matrix(10.4,0,0,10.4,469,801.9)" />
<use xlink:href="#f1_24" transform="matrix(10.4,0,0,10.4,472.6,801.9)" />
<use xlink:href="#f1_c" transform="matrix(10.4,0,0,10.4,476.1,801.9)" />
</g>
<path d="M534.3,813.3l1.6,-.9l4,6.3l4.2,-16.8h45.2" class="g0_58" />
<path fill-rule="evenodd" d="M534.2,813.1l2.1,-1.2l3.6,5.3l3.9,-15.6h45.5v.7H544.4l-4.1,16.4h-.8l-3.9,-5.8l-1.1,.6l-.3,-.4Z" class="g1_58" />
<path d="M512.1,797.8h99.3" class="g11_58" />
<g fill="#000000" >
<use xlink:href="#f1_2e" transform="matrix(10.4,0,0,10.4,512.8,791.7)" />
<use xlink:href="#f1_24" transform="matrix(10.4,0,0,10.4,521.1,791.7)" />
<use xlink:href="#f1_29" transform="matrix(10.4,0,0,10.4,524.9,791.7)" />
<use xlink:href="#f1_1y" transform="matrix(10.4,0,0,10.4,570.3,791.7)" />
<use xlink:href="#f1_2a" transform="matrix(10.4,0,0,10.4,578.6,791.7)" />
<use xlink:href="#f1_2e" transform="matrix(10.4,0,0,10.4,587.9,791.7)" />
<use xlink:href="#f1_h" transform="matrix(10.4,0,0,10.4,633.8,802)" />
<use xlink:href="#f1_2e" transform="matrix(10.4,0,0,10.4,544.4,817.4)" />
<use xlink:href="#f1_24" transform="matrix(10.4,0,0,10.4,552.7,817.4)" />
<use xlink:href="#f1_29" transform="matrix(10.4,0,0,10.4,556.5,817.4)" />
<use xlink:href="#f1_l" transform="matrix(10.4,0,0,10.4,569.2,817.4)" />
<use xlink:href="#f3_2j" transform="matrix(10.4,0,0,10.4,537.8,791.7)" />
<use xlink:href="#f3_2j" transform="matrix(10.4,0,0,10.4,600.3,791.7)" />
<use xlink:href="#f3_1z" transform="matrix(10.4,0,0,10.4,615,802)" />
<use xlink:href="#f3_2j" transform="matrix(10.4,0,0,10.4,624.3,802)" />
<use xlink:href="#f3_2j" transform="matrix(10.4,0,0,10.4,578.3,817.4)" />
<use xlink:href="#f2_f" transform="matrix(10.4,0,0,10.4,554.7,791.7)" />
<use xlink:href="#f2_50" transform="matrix(20.8,0,0,20.8,497.9,810.5)" />
<use xlink:href="#f5_n" transform="matrix(8,0,0,8,730,1122.4)" />
</g>
<g fill="#0080FF" fill-opacity="0.5" >
<use xlink:href="#f0_1c" transform="matrix(42.3,0,0,42.3,202.9,1095.2)" />
<use xlink:href="#f0_21" transform="matrix(42.3,0,0,42.3,238.8,1095.2)" />
<use xlink:href="#f0_1x" transform="matrix(42.3,0,0,42.3,274.7,1095.2)" />
<use xlink:href="#f0_2e" transform="matrix(42.3,0,0,42.3,310.7,1095.2)" />
<use xlink:href="#f0_2a" transform="matrix(42.3,0,0,42.3,332.2,1095.2)" />
<use xlink:href="#f0_17" transform="matrix(42.3,0,0,42.3,368.1,1095.2)" />
<use xlink:href="#f0_2h" transform="matrix(42.3,0,0,42.3,418.4,1095.2)" />
<use xlink:href="#f0_25" transform="matrix(42.3,0,0,42.3,454.3,1095.2)" />
<use xlink:href="#f0_20" transform="matrix(42.3,0,0,42.3,468.7,1095.2)" />
<use xlink:href="#f0_21" transform="matrix(42.3,0,0,42.3,504.6,1095.2)" />
<use xlink:href="#f0_i" transform="matrix(42.3,0,0,42.3,540.5,1095.2)" />
<use xlink:href="#f0_25" transform="matrix(42.3,0,0,42.3,558.5,1095.2)" />
<use xlink:href="#f0_2a" transform="matrix(42.3,0,0,42.3,572.8,1095.2)" />
</g>
<defs>
<path d="M593,101c0,0,182,0,279,112c0,0,98,113,98,318c0,0,0,196,-98,308c0,0,-98,112,-277,112c0,0,-181,0,-279,-110c0,0,-99,-111,-99,-310c0,0,0,-198,100,-314c0,0,99,-116,276,-116Zm0,-115c0,0,-162,0,-279,65c0,0,-118,66,-180,190c0,0,-62,124,-62,290c0,0,0,252,138,394c0,0,138,142,385,142c0,0,160,0,278,-64c0,0,118,-64,180,-185c0,0,62,-122,62,-287c0,0,0,-165,-63,-289c0,0,-63,-124,-181,-190c0,0,-118,-66,-278,-66Z" 
id="f0_1f"
transform="scale(0.001,-0.001)" />

<path d="M106,0V635c0,0,0,141,-5,173H228c0,0,1,-4,2,-21c0,0,1,-16,2,-37c0,0,1,-22,2,-81h2c0,0,47,84,108,119c0,0,60,34,151,34c0,0,132,0,194,-66c0,0,61,-66,61,-218V0H615V512c0,0,0,80,-15,124c0,0,-16,44,-50,63c0,0,-35,20,-101,20c0,0,-97,0,-153,-67c0,0,-56,-66,-56,-184V0Z" 
id="f0_2a"
transform="scale(0.001,-0.001)" />

<path d="M103,0V1107H237V0Z" 
id="f0_28"
transform="scale(0.001,-0.001)" />

<path d="M102,0V808H236V0Zm0,979v128H236V979Z" 
id="f0_25"
transform="scale(0.001,-0.001)" />

<path d="M643,478c0,0,-11,128,-65,187c0,0,-54,59,-154,59c0,0,-98,0,-155,-66c0,0,-57,-65,-62,-180ZM431,-14c0,0,-179,0,-272,106c0,0,-94,107,-94,317c0,0,0,200,94,307c0,0,93,106,267,106c0,0,356,0,356,-429V375H206c0,0,0,-138,57,-213c0,0,58,-75,168,-75c0,0,87,0,140,35c0,0,53,35,71,88L760,177c0,0,-72,-191,-329,-191Z" 
id="f0_21"
transform="scale(0.001,-0.001)" />

<path d="M17,0L304,415L31,808H179L380,493L580,808H730L457,417L747,0H598L380,331L162,0Z" 
id="f0_2k"
transform="scale(0.001,-0.001)" />

<path d="M339,87c0,0,74,0,132,34c0,0,57,33,90,91c0,0,34,59,34,121v66L448,396c0,0,-95,-2,-144,-19c0,0,-49,-18,-75,-55c0,0,-26,-38,-26,-98c0,0,0,-65,35,-101c0,0,36,-36,101,-36ZM309,-14c0,0,-122,0,-183,64c0,0,-61,64,-61,176c0,0,0,125,82,192c0,0,83,67,266,72l182,3v44c0,0,0,98,-42,141c0,0,-42,43,-132,43c0,0,-90,0,-131,-31c0,0,-41,-31,-49,-98L101,604c0,0,34,218,323,218c0,0,153,0,229,-70c0,0,77,-69,77,-202V202c0,0,0,-59,16,-90c0,0,16,-30,60,-30c0,0,19,0,44,5V4C850,4,799,-7,746,-7c0,0,-75,0,-109,38c0,0,-33,40,-38,124h-4C595,155,543,62,475,24c0,0,-68,-38,-166,-38Z" 
id="f0_1x"
transform="scale(0.001,-0.001)" />

<path d="M106,0V635c0,0,0,141,-5,173H228c0,0,1,-4,2,-21c0,0,1,-16,2,-37c0,0,1,-22,2,-81h2c0,0,44,86,100,120c0,0,56,33,136,33c0,0,92,0,145,-36c0,0,54,-37,75,-117h2c0,0,42,82,101,117c0,0,59,36,143,36c0,0,123,0,178,-66c0,0,56,-67,56,-218V0H1039V512c0,0,0,117,-32,162c0,0,-32,45,-116,45c0,0,-88,0,-136,-66c0,0,-49,-65,-49,-185V0H573V512c0,0,0,117,-32,162c0,0,-32,45,-116,45c0,0,-86,0,-136,-66c0,0,-50,-66,-50,-185V0Z" 
id="f0_29"
transform="scale(0.001,-0.001)" />

<path d="M453,84c0,0,100,0,146,74c0,0,46,73,46,247c0,0,0,169,-46,241c0,0,-45,73,-145,73c0,0,-80,0,-125,-34c0,0,-45,-34,-68,-105c0,0,-24,-71,-24,-186c0,0,0,-159,51,-234c0,0,51,-76,165,-76ZM103,-316V643c0,0,0,124,-5,165H228c0,0,1,-3,3,-22c0,0,1,-18,3,-56c0,0,2,-38,2,-52h3c0,0,36,75,94,110c0,0,59,34,156,34c0,0,149,0,223,-100c0,0,74,-100,74,-314c0,0,0,-422,-297,-422c0,0,-187,0,-251,140h-4c0,0,3,-6,3,-126V-316Z" 
id="f0_2c"
transform="scale(0.001,-0.001)" />

<path d="M420,84c0,0,121,0,173,78c0,0,52,77,52,243c0,0,0,167,-50,243c0,0,-50,76,-167,76c0,0,-118,0,-170,-78c0,0,-53,-77,-53,-241c0,0,0,-160,52,-241c0,0,52,-80,163,-80Zm1,-98c0,0,-176,0,-267,107c0,0,-90,108,-90,312c0,0,0,417,362,417c0,0,185,0,272,-102c0,0,88,-101,88,-315c0,0,0,-212,-94,-316C692,89,599,-14,421,-14Z" 
id="f0_2b"
transform="scale(0.001,-0.001)" />

<path d="M278,-11c0,0,-162,0,-162,182V710H23v98h99l39,181h90V808H400V710H251V200c0,0,0,-58,19,-82c0,0,19,-23,66,-23c0,0,27,0,77,10V6c0,0,-66,-17,-135,-17Z" 
id="f0_2g"
transform="scale(0.001,-0.001)" />

<path d="M424,-28c0,0,-180,0,-272,86c0,0,-92,87,-100,266H192c0,0,12,-126,66,-180c0,0,55,-54,170,-54c0,0,100,0,163,57c0,0,64,57,64,147c0,0,0,94,-61,149c0,0,-52,48,-135,54c0,0,-38,2,-72,2c0,0,-34,0,-45,-3V613c0,0,17,-3,51,-3c0,0,35,0,68,4c0,0,66,8,106,43c0,0,55,45,55,125c0,0,0,77,-58,125c0,0,-58,48,-148,48c0,0,-96,0,-147,-58c0,0,-51,-59,-56,-175H82c0,0,0,168,89,260c0,0,88,93,250,93c0,0,153,0,247,-77c0,0,94,-76,94,-202c0,0,0,-124,-95,-201c0,0,-18,-15,-39,-27c0,0,39,-17,69,-41c0,0,101,-79,101,-214c0,0,0,-151,-105,-246c0,0,-104,-95,-269,-95Z" 
id="f1_m"
transform="scale(0.001,-0.001)" />

<path d="M417,-28c0,0,-161,0,-259,79c0,0,-98,81,-109,223H189c0,0,11,-90,72,-139c0,0,61,-49,162,-49c0,0,96,0,158,68c0,0,61,68,61,175c0,0,0,112,-64,178c0,0,-64,66,-173,66c0,0,-59,0,-115,-28c0,0,-55,-29,-84,-73L93,480l77,573H727V922H271L225,629l4,3c0,0,89,60,188,60c0,0,169,0,269,-94c0,0,99,-93,99,-253c0,0,0,-165,-103,-269C682,76,579,-28,417,-28Z" 
id="f1_o"
transform="scale(0.001,-0.001)" />

<path d="M133,0V162H292V0Z" 
id="f1_h"
transform="scale(0.001,-0.001)" />

<path d="M0,-302V1034H328V970H119V-238H328v-64Z" 
id="f2_1r"
transform="scale(0.001,-0.001)" />

<path d="M56,-302v64H265V970H56v64H384V-302Z" 
id="f2_1t"
transform="scale(0.001,-0.001)" />

<path d="M39,0V0c0,0,0,170,84,277c0,0,85,108,317,236c0,0,113,62,154,115c0,0,41,52,41,134c0,0,0,86,-62,141c0,0,-61,54,-156,54c0,0,-101,0,-158,-68c0,0,-57,-68,-60,-194H67c0,0,-2,178,95,279c0,0,98,101,273,101c0,0,149,0,245,-89c0,0,94,-88,94,-228c0,0,0,-118,-60,-195c0,0,-61,-76,-229,-169C485,394,303,294,237,212c0,0,-28,-36,-46,-81H774V0Z" 
id="f1_l"
transform="scale(0.001,-0.001)" />

<path d="M424,92c0,0,114,0,170,107c0,0,57,108,56,323c0,0,1,216,-56,324c0,0,-56,107,-170,107c0,0,-112,0,-168,-107c0,0,-56,-108,-57,-324c0,0,1,-215,57,-323c0,0,56,-107,168,-107Zm0,-120c0,0,-176,0,-271,142c0,0,-96,143,-96,408c0,0,0,265,96,409c0,0,95,144,271,144c0,0,178,0,273,-144c0,0,96,-144,96,-409c0,0,0,-265,-96,-408c0,0,-95,-142,-273,-142Z" 
id="f1_j"
transform="scale(0.001,-0.001)" />

<path d="M17,0L389,412L201,800H376L500,518L742,800H904L554,410L750,0H580L448,303L187,0Z" 
id="f3_2j"
transform="scale(0.001,-0.001)" />

<path d="M431,94c0,0,95,0,170,76c0,0,76,77,101,198c0,0,35,167,-1,250c0,0,-37,84,-144,84c0,0,-128,0,-210,-117c0,0,-81,-117,-81,-302c0,0,0,-90,43,-139c0,0,44,-50,122,-50ZM400,-20c0,0,-126,0,-199,79c0,0,-73,80,-73,219c0,0,0,234,122,390c0,0,122,155,305,155c0,0,144,0,209,-127l8,-16l86,417H993L767,0H638l22,108L642,90C642,90,532,-20,400,-20Z" 
id="f3_1z"
transform="scale(0.001,-0.001)" />

<path d="M238,-163c0,0,-39,0,-63,25c0,0,-25,26,-25,65c0,0,0,34,19,54c0,0,19,19,48,19c0,0,30,0,51,-23c0,0,22,-24,37,-24c0,0,12,0,21,11c0,0,8,10,8,35c0,0,0,30,-7,88c0,0,-27,235,-27,620c0,0,13,411,17,446c0,0,17,139,60,188c0,0,43,48,98,48c0,0,37,0,65,-25c0,0,28,-25,28,-54c0,0,0,-35,-19,-57c0,0,-20,-21,-49,-21c0,0,-26,0,-57,27c0,0,-17,15,-30,15c0,0,-12,0,-21,-11c0,0,-8,-11,-8,-37c0,0,0,-31,6,-108c0,0,28,-306,28,-496c0,0,0,-50,-12,-439c0,0,-6,-219,-67,-296c0,0,-41,-50,-101,-50Z" 
id="f2_50"
transform="scale(0.001,-0.001)" />

<path d="M248,0L21,799H169L322,163L478,799H627L788,158L950,799h133L857,0H713L548,624L392,0Z" 
id="f1_2i"
transform="scale(0.001,-0.001)" />

<path d="M99,0V1097H233V690l23,30c0,0,87,102,219,102c0,0,132,0,203,-71c0,0,72,-72,72,-204V0H616V514c0,0,0,99,-38,142c0,0,-38,44,-124,44c0,0,-102,0,-162,-73c0,0,-59,-74,-59,-199V0Z" 
id="f1_23"
transform="scale(0.001,-0.001)" />

<path d="M649,461c0,0,-6,111,-55,172c0,0,-55,69,-160,69c0,0,-106,0,-170,-79c0,0,-50,-62,-60,-162ZM425,-20c0,0,-169,0,-266,106c0,0,-97,107,-97,297c0,0,0,201,102,320c0,0,103,119,276,119c0,0,157,0,253,-116c0,0,96,-117,96,-306l-1,-48H204c0,0,8,-119,54,-182c0,0,57,-76,180,-76c0,0,77,0,134,43c0,0,58,43,70,110H775C775,247,746,116,656,47c0,0,-90,-67,-231,-67Z" 
id="f1_20"
transform="scale(0.001,-0.001)" />

<path d="M118,0V799H246V662c0,0,17,32,36,58c0,0,76,102,187,102c0,0,19,0,38,-6V679l-27,1c0,0,-109,0,-168,-66c0,0,-60,-65,-60,-186V0Z" 
id="f1_2d"
transform="scale(0.001,-0.001)" />

<path d="M96,-299V1104H382V995H217V-191H382V-299Z" 
id="f1_1q"
transform="scale(0.001,-0.001)" />

<path d="M42,-299v108H207V995H42v109H329V-299Z" 
id="f1_1s"
transform="scale(0.001,-0.001)" />

<path d="M104,0V799H238V0Zm-2,946v152H239V946Z" 
id="f1_24"
transform="scale(0.001,-0.001)" />

<path d="M393,-20c0,0,-169,0,-252,65c0,0,-83,67,-92,210H178c0,0,10,-85,61,-123c0,0,50,-38,154,-38c0,0,90,0,136,34c0,0,47,35,47,100c0,0,0,42,-31,64c0,0,-30,21,-123,43L283,368c0,0,-112,27,-160,75c0,0,-48,48,-48,135c0,0,0,112,80,178c0,0,81,66,218,66c0,0,140,0,222,-68c0,0,82,-67,88,-187H557c0,0,-6,67,-55,103c0,0,-48,37,-129,37c0,0,-84,0,-127,-29c0,0,-44,-29,-44,-85c0,0,0,-43,31,-65c0,0,30,-21,121,-43L493,452c0,0,117,-28,167,-78c0,0,49,-49,49,-138c0,0,0,-119,-86,-188c0,0,-85,-68,-230,-68Z" 
id="f1_2e"
transform="scale(0.001,-0.001)" />

<path d="M418,95c0,0,98,0,158,73c0,0,59,73,59,193c0,0,0,170,-54,254c0,0,-54,85,-163,85c0,0,-113,0,-165,-72c0,0,-52,-71,-52,-227c0,0,0,-147,57,-227c0,0,56,-79,160,-79ZM394,-336c0,0,-136,0,-216,62c0,0,-79,63,-96,182H219c0,0,12,-64,57,-98c0,0,45,-35,116,-35c0,0,116,0,176,73c0,0,61,73,61,211V85l-1,-1C628,84,545,-20,412,-20c0,0,-161,0,-256,118c0,0,-94,120,-94,324c0,0,0,179,93,290c0,0,93,110,244,110c0,0,144,0,228,-124l10,-14V799H763V59c0,0,-1,-201,-91,-298c0,0,-91,-97,-278,-97Z" 
id="f1_22"
transform="scale(0.001,-0.001)" />

<path d="M335,90c0,0,106,0,179,57c0,0,50,41,67,91c0,0,3,10,4,31c0,0,3,21,3,47v87c0,0,-38,-18,-83,-25L381,360c0,0,-97,-13,-142,-45c0,0,-44,-31,-44,-86c0,0,0,-67,36,-103c0,0,37,-36,104,-36ZM309,-20c0,0,-117,0,-186,61c0,0,-68,63,-68,169c0,0,0,108,64,171c0,0,65,64,189,79l183,23c0,0,22,3,42,8c0,0,26,7,40,27c0,0,15,20,15,51v6c0,0,0,64,-49,101c0,0,-48,36,-135,36c0,0,-83,0,-130,-38c0,0,-46,-39,-56,-115H94c0,0,10,131,92,197c0,0,83,66,238,66c0,0,145,0,222,-63c0,0,76,-63,76,-184V137c0,0,0,-21,12,-33c0,0,12,-12,33,-12c0,0,6,0,18,1c0,0,11,2,25,5V1c0,0,-20,-7,-41,-11c0,0,-22,-5,-37,-5c0,0,-76,0,-110,41c0,0,-22,28,-32,79c0,0,-15,-19,-34,-36c0,0,-101,-89,-247,-89Z" 
id="f1_1w"
transform="scale(0.001,-0.001)" />

<path d="M292,-9c0,0,-88,0,-124,38c0,0,-36,39,-36,134V689H22V799H132v224H266V799H392V689H266V163c0,0,0,-27,21,-43c0,0,21,-15,57,-15h48V1C392,1,324,-9,292,-9Z" 
id="f1_2f"
transform="scale(0.001,-0.001)" />

<path d="M99,0V799H226V681l30,39c0,0,87,102,219,102c0,0,132,0,203,-71c0,0,72,-72,72,-204V0H616V502c0,0,0,105,-41,151c0,0,-40,47,-132,47c0,0,-97,0,-154,-73c0,0,-56,-74,-56,-199V0Z" 
id="f1_29"
transform="scale(0.001,-0.001)" />

<path d="M132,0V687H22V799H132V935c0,0,0,88,52,133c0,0,52,45,157,45l59,-3V989l-53,2c0,0,-39,0,-60,-24c0,0,-21,-25,-21,-71V799H400V687H266V0Z" 
id="f1_21"
transform="scale(0.001,-0.001)" />

<path d="M375,-20c0,0,-136,0,-203,66c0,0,-68,68,-68,204V799H238V284c0,0,0,-101,38,-146c0,0,39,-44,127,-44c0,0,97,0,153,75c0,0,57,75,57,203V799H747V0H620V122c0,0,-14,-22,-30,-41C590,81,504,-20,375,-20Z" 
id="f1_2g"
transform="scale(0.001,-0.001)" />

<path d="M394,-20c0,0,-159,0,-253,113c0,0,-95,114,-95,307c0,0,0,193,98,308c0,0,98,114,264,114c0,0,144,0,230,-78c0,0,85,-79,91,-217H600c0,0,-8,86,-59,133c0,0,-52,47,-138,47c0,0,-101,0,-159,-82c0,0,-58,-82,-58,-225c0,0,0,-152,54,-229c0,0,53,-77,159,-77c0,0,79,0,132,50c0,0,52,51,69,143H729C729,287,709,137,623,58c0,0,-86,-78,-229,-78Z" 
id="f1_1y"
transform="scale(0.001,-0.001)" />

<path d="M424,94c0,0,107,0,169,83c0,0,63,83,63,223c0,0,0,140,-63,224c0,0,-62,83,-169,83c0,0,-106,0,-168,-83c0,0,-62,-84,-62,-224c0,0,0,-140,62,-223c0,0,62,-83,168,-83Zm0,-114c0,0,-165,0,-268,115C156,95,54,211,54,400c0,0,0,189,102,306c0,0,103,116,268,116c0,0,168,0,270,-116c0,0,102,-117,102,-306c0,0,0,-189,-102,-305C694,95,592,-20,424,-20Z" 
id="f1_2a"
transform="scale(0.001,-0.001)" />

<path d="M432,92c0,0,96,0,156,66c0,0,61,65,61,169c0,0,0,103,-61,169c0,0,-60,66,-156,66c0,0,-95,0,-156,-66c0,0,-61,-66,-61,-169c0,0,0,-104,61,-169c0,0,61,-66,156,-66ZM425,-28c0,0,-176,0,-271,135c0,0,-95,136,-95,388c0,0,0,278,103,429c0,0,103,151,293,151c0,0,142,0,226,-77c0,0,84,-76,90,-211H638c0,0,-8,80,-56,123c0,0,-47,43,-127,43c0,0,-125,0,-192,-119c0,0,-58,-102,-64,-278c0,0,100,127,255,127c0,0,152,0,245,-98c0,0,93,-98,93,-258c0,0,0,-161,-101,-259c0,0,-101,-96,-266,-96Z" 
id="f1_p"
transform="scale(0.001,-0.001)" />

<path d="M412,-328c0,0,-195,96,-303,284C109,-44,0,142,0,365c0,0,0,232,114,422c0,0,114,191,298,273v-31c0,0,-92,-51,-151,-139c0,0,-59,-88,-88,-223c0,0,-29,-136,-29,-282c0,0,0,-167,27,-301c0,0,26,-133,82,-221c0,0,55,-89,159,-159v-32Z" 
id="f2_c"
transform="scale(0.001,-0.001)" />

<path d="M34,-328v32c0,0,92,50,151,138c0,0,59,88,88,222c0,0,29,135,29,283c0,0,0,165,-27,300c0,0,-26,134,-82,222c0,0,-56,89,-159,160v31c0,0,194,-96,303,-284c0,0,108,-187,108,-410c0,0,0,-232,-114,-422c0,0,-114,-191,-297,-272Z" 
id="f2_d"
transform="scale(0.001,-0.001)" />

<path d="M456,95c0,0,130,0,213,121c0,0,82,120,82,310c0,0,0,85,-44,131c0,0,-44,46,-125,46c0,0,-98,0,-174,-90c0,0,-76,-90,-108,-245c0,0,-26,-126,16,-199c0,0,42,-74,140,-74ZM436,-20c0,0,-132,0,-195,108l-5,7L217,0H89L316,1097H450L365,683l10,11c0,0,120,129,262,129c0,0,121,0,190,-77c0,0,69,-77,69,-211c0,0,0,-234,-134,-395C762,140,629,-20,436,-20Z" 
id="f3_1x"
transform="scale(0.001,-0.001)" />

<path d="M354,90c0,0,107,0,192,57c0,0,60,41,87,95c0,0,5,12,11,33c0,0,6,20,11,44l18,88c0,0,-62,-26,-132,-37L414,352c0,0,-84,-11,-131,-56c0,0,-47,-45,-47,-113c0,0,0,-44,31,-69c0,0,31,-24,87,-24ZM306,-20c0,0,-99,0,-156,47c0,0,-57,49,-57,134c0,0,1,117,81,198c0,0,80,81,211,98l164,20l70,10c0,0,35,6,59,30c0,0,23,24,31,66l1,2c0,0,13,64,-25,94c0,0,-39,31,-132,31c0,0,-83,0,-137,-37c0,0,-54,-37,-84,-114H210c0,0,46,137,138,201c0,0,92,63,245,63c0,0,149,0,211,-59c0,0,45,-44,44,-116c0,0,1,-30,-6,-63L749,136c0,0,-4,-19,6,-32c0,0,10,-12,30,-12c0,0,6,0,19,1c0,0,12,2,25,5L809,1c0,0,-19,-6,-43,-11c0,0,-22,-5,-36,-5c0,0,-73,0,-100,43c0,0,-16,27,-17,75C612,102,594,85,573,69c0,0,-120,-89,-267,-89Z" 
id="f3_1w"
transform="scale(0.001,-0.001)" />

<path d="M131,0L274,688H168l23,112H296l26,125c0,0,20,98,82,143c0,0,62,46,176,46c0,0,33,0,59,-5L609,990c0,0,0,3,-53,3c0,0,-45,0,-70,-25c0,0,-25,-25,-37,-83L431,800H575L553,688H409L266,0Z" 
id="f3_21"
transform="scale(0.001,-0.001)" />

<path d="M355,0V355H0v72H355V784h72V427H782V355H427V0Z" 
id="f2_f"
transform="scale(0.001,-0.001)" />

<path d="M0,356v74H784V356Z" 
id="f2_h"
transform="scale(0.001,-0.001)" />

<path d="M212,0c0,0,51,270,162,500c0,0,109,222,281,422H57v131H799V934C799,934,623,726,515,498C515,498,408,269,362,0Z" 
id="f1_q"
transform="scale(0.001,-0.001)" />

<path d="M406,0V763H155V870h2c16,0,114,2,178,48c0,0,70,51,104,157H549V0Z" 
id="f1_k"
transform="scale(0.001,-0.001)" />

<path d="M424,92c0,0,98,0,161,58c0,0,62,58,62,149c0,0,0,92,-62,151c0,0,-63,58,-161,58c0,0,-98,0,-160,-58c0,0,-63,-59,-63,-151c0,0,0,-91,63,-149c0,0,62,-58,160,-58Zm0,533c0,0,82,0,134,46c0,0,52,45,52,118c0,0,0,72,-52,118c0,0,-52,46,-134,46c0,0,-82,0,-134,-46c0,0,-52,-46,-52,-118c0,0,0,-73,52,-119c0,0,52,-45,134,-45Zm0,-653c0,0,-165,0,-265,90C159,62,59,154,59,305c0,0,0,134,100,216c0,0,35,28,78,47c0,0,-27,15,-52,33c0,0,-90,70,-90,185c0,0,0,130,90,209c0,0,91,80,239,80c0,0,148,0,238,-80c0,0,91,-79,91,-209c0,0,0,-115,-91,-185c0,0,-24,-19,-52,-32c0,0,44,-20,79,-49c0,0,101,-81,101,-215c0,0,0,-151,-101,-243c0,0,-100,-90,-265,-90Z" 
id="f1_r"
transform="scale(0.001,-0.001)" />

<path d="M419,483c0,0,93,0,152,66c0,0,59,66,59,169c0,0,0,103,-59,169c0,0,-59,65,-152,65c0,0,-94,0,-153,-65c0,0,-59,-66,-59,-169c0,0,0,-103,59,-169c0,0,59,-66,153,-66ZM397,-28c0,0,-143,0,-227,75c0,0,-85,77,-91,211H209c0,0,8,-83,57,-128c0,0,49,-45,131,-45c0,0,121,0,186,135c0,0,48,101,62,265C645,485,545,362,397,362c0,0,-150,0,-241,98c0,0,-91,98,-91,258c0,0,0,160,99,258c0,0,99,98,262,98c0,0,173,0,266,-123c0,0,94,-123,94,-349c0,0,0,-303,-101,-467C685,135,583,-28,397,-28Z" 
id="f1_s"
transform="scale(0.001,-0.001)" />

<path d="M139,0V1097H287V0Z" 
id="f1_18"
transform="scale(0.001,-0.001)" />

<path d="M511,373V863L169,383l-7,-10ZM511,0V258H38V383l496,691H646V373H799V258H646V0Z" 
id="f1_n"
transform="scale(0.001,-0.001)" />

<path d="M140,-21c0,0,-26,0,-44,17C96,-4,79,13,79,40c0,0,0,19,6,33c0,0,8,20,34,55c0,0,46,60,64,126c0,0,32,114,41,321H190c0,0,-55,0,-81,-18c0,0,-44,-26,-80,-89H0c0,0,42,129,98,178c0,0,43,37,120,37H743V575H562c0,0,-27,-171,-27,-327c0,0,0,-77,27,-110c0,0,27,-33,67,-33c0,0,33,0,56,22c0,0,24,22,31,65h27C743,192,730,74,686,26c0,0,-44,-47,-98,-47c0,0,-58,0,-97,51c0,0,-39,53,-39,198c0,0,0,91,28,347H286c0,0,-23,-390,-56,-494c0,0,-33,-102,-90,-102Z" 
id="f2_2c"
transform="scale(0.001,-0.001)" />

<path d="M0,214v74H784V214ZM0,494v72H784V494Z" 
id="f2_x"
transform="scale(0.001,-0.001)" />

<path d="M133,-224v71c0,0,47,8,65,52c0,0,14,33,17,101H133V163H292V27c0,0,0,-114,-36,-172c0,0,-37,-58,-123,-79Z" 
id="f1_f"
transform="scale(0.001,-0.001)" />

<path d="M310,0L12,799H168L383,145L604,799H752L454,0Z" 
id="f1_2h"
transform="scale(0.001,-0.001)" />

<path d="M103,0V1097H237V0Z" 
id="f1_27"
transform="scale(0.001,-0.001)" />

<path d="M367,-20c0,0,-85,0,-142,12C225,-8,167,2,83,35V332c0,0,41,-55,107,-90c0,0,66,-35,130,-35c0,0,51,0,84,31c0,0,32,31,32,81c0,0,0,49,-23,86c0,0,-22,37,-82,83c0,0,-126,98,-184,181c0,0,-57,82,-57,165c0,0,0,155,106,253c0,0,106,98,272,98c0,0,62,0,133,-13c0,0,71,-13,120,-33V867c0,0,-59,49,-104,70c0,0,-46,20,-94,20c0,0,-47,0,-76,-24c0,0,-29,-25,-29,-63c0,0,0,-41,20,-73c0,0,21,-31,75,-73c0,0,130,-101,189,-189c0,0,59,-87,59,-180c0,0,0,-165,-110,-270C651,85,541,-20,367,-20Z" 
id="f4_1i"
transform="scale(0.001,-0.001)" />

<path d="M99,0c0,0,22,54,32,110c0,0,9,55,9,135V922c0,0,0,81,-10,136c0,0,-9,55,-31,109H489c0,0,-23,-54,-32,-109c0,0,-9,-55,-9,-136V712H790V922c0,0,0,81,-9,136c0,0,-10,55,-32,109h390c0,0,-22,-54,-32,-109c0,0,-9,-55,-9,-136V245c0,0,0,-80,9,-135c0,0,10,-56,32,-110H749c0,0,22,54,32,110c0,0,9,55,9,135V478H448V245c0,0,0,-80,9,-135c0,0,9,-56,32,-110Z" 
id="f4_17"
transform="scale(0.001,-0.001)" />

<path d="M822,206c14,0,28,0,42,1c0,0,53,50,87,150c0,0,34,101,34,210c0,0,0,188,-132,297c0,0,-113,95,-296,95c-13,0,-27,-1,-42,-2c0,0,-53,-49,-86,-150c0,0,-34,-102,-34,-212c0,0,0,-186,132,-295c0,0,114,-94,295,-94ZM690,-20c0,0,-276,0,-452,168C238,148,63,317,63,581c0,0,0,266,175,435c0,0,176,169,452,169c0,0,277,0,452,-169c0,0,175,-169,175,-435c0,0,0,-264,-175,-433c0,0,-175,-168,-452,-168Z" 
id="f4_1e"
transform="scale(0.001,-0.001)" />

<path d="M452,645c0,0,85,0,139,47c0,0,54,47,54,121c0,0,0,66,-51,107c0,0,-51,42,-132,42H442V645ZM93,0c0,0,22,54,32,110c0,0,9,55,9,135V922c0,0,0,81,-9,136c0,0,-10,55,-32,109H498c0,0,215,0,332,-90c0,0,117,-90,117,-256c0,0,0,-159,-129,-253c0,0,-46,-34,-103,-54L902,246c0,0,57,-82,107,-137c0,0,50,-55,115,-109H803c0,0,-30,0,-104,83c0,0,-73,83,-149,202L442,461V246c0,0,0,-81,9,-136c0,0,10,-56,32,-110Z" 
id="f4_1h"
transform="scale(0.001,-0.001)" />

<path d="M289,0c0,0,26,60,37,116c0,0,9,55,9,129V961c0,0,-94,-3,-160,-9c0,0,-116,-13,-188,-44l41,130l41,129H981L946,1042L912,917c0,0,-45,18,-154,32c0,0,-58,8,-115,11V245c0,0,0,-74,11,-129c0,0,10,-56,35,-116Z" 
id="f4_1j"
transform="scale(0.001,-0.001)" />

<path d="M693,499L573,830L462,499ZM-39,0c0,0,33,42,61,97c0,0,30,55,71,148l314,761c0,0,22,51,38,98c0,0,15,47,17,63H721c0,0,2,-16,18,-63c0,0,15,-47,37,-98L1091,245c0,0,41,-95,70,-150c0,0,30,-55,60,-95H849c0,0,3,25,-3,55c0,0,-6,30,-24,80L765,295H393L340,135c0,0,-17,-50,-22,-80c0,0,-5,-30,-2,-55Z" 
id="f4_10"
transform="scale(0.001,-0.001)" />

<path d="M108,0c0,0,22,54,31,110c0,0,10,55,10,135V985L-5,1167H418c0,0,21,-44,54,-99c0,0,34,-55,96,-146L857,495V922c0,0,0,81,-9,136c0,0,-9,55,-32,109h378c0,0,-23,-54,-32,-109c0,0,-9,-55,-9,-136V351c0,0,0,-76,11,-178c0,0,11,-101,27,-173H845c0,0,-7,25,-28,67c0,0,-21,42,-45,78L444,628V245c0,0,0,-80,9,-135c0,0,10,-56,32,-110Z" 
id="f4_1d"
transform="scale(0.001,-0.001)" />

<path d="M324,0L78,922c0,0,-23,85,-44,140c0,0,-22,55,-50,105H376c0,0,-7,-56,-7,-99c0,0,1,-42,11,-89L479,513L610,998c0,0,11,42,21,91c0,0,10,49,13,78H861c0,0,4,-36,12,-85c0,0,9,-50,18,-84L1021,492l115,540c0,0,8,33,6,63c0,0,-1,31,-12,72h378c0,0,-30,-50,-52,-105c0,0,-21,-56,-45,-140L1166,0H925L741,597L565,0Z" 
id="f4_1m"
transform="scale(0.001,-0.001)" />

<path d="M102,0c0,0,22,54,31,110c0,0,10,55,10,135V922c0,0,0,81,-10,136c0,0,-9,55,-31,109H823L766,1041L709,913c0,0,-42,20,-137,36c0,0,-62,9,-121,13V697H798L728,569L657,441c0,0,-45,21,-131,36c0,0,-38,8,-75,11V206c0,0,117,6,201,22c0,0,126,24,239,84L827,156L762,0Z" 
id="f4_14"
transform="scale(0.001,-0.001)" />

<path d="M319,0c0,0,22,54,31,110c0,0,10,55,10,135V518L134,922c0,0,-57,100,-95,155c0,0,-37,55,-71,90H351c0,0,4,-29,12,-53c0,0,7,-24,22,-54L517,787l152,273c0,0,14,25,23,49c0,0,9,24,16,58h354c0,0,-35,-33,-73,-88c0,0,-38,-56,-99,-157L668,536V245c0,0,0,-80,9,-135c0,0,9,-56,32,-110Z" 
id="f4_1o"
transform="scale(0.001,-0.001)" />

<path d="M462,650c0,0,82,0,133,46c0,0,52,47,52,119c0,0,0,65,-48,106c0,0,-49,41,-125,41H452V650ZM103,0c0,0,22,54,32,110c0,0,9,55,9,135V922c0,0,0,81,-10,136c0,0,-9,55,-31,109H505c0,0,212,0,327,-93c0,0,114,-94,114,-268c0,0,0,-166,-127,-264c0,0,-127,-97,-343,-97H452V246c0,0,0,-81,9,-136c0,0,9,-56,32,-110Z" 
id="f4_1f"
transform="scale(0.001,-0.001)" />

<path d="M821,206c13,0,26,0,40,1c0,0,53,33,86,127c0,0,34,94,34,210c0,0,0,198,-131,314c0,0,-114,101,-297,101c-13,0,-27,-1,-40,-2c0,0,-53,-49,-87,-144c0,0,-33,-95,-33,-195c0,0,0,-197,131,-312c0,0,115,-100,297,-100Zm413,-442c-84,0,-186,15,-288,68c0,0,-113,58,-202,151c0,0,-22,-3,-48,-3c-3,0,-6,0,-9,0c0,0,-276,0,-452,168C235,148,60,316,60,581c0,0,0,266,175,435c0,0,176,169,452,169c0,0,277,0,452,-169c0,0,175,-169,175,-435c0,0,0,-265,-176,-433c0,0,-29,-28,-59,-51c0,0,51,-79,111,-141c0,0,104,-109,233,-165c0,0,-78,-27,-189,-27Z" 
id="f4_1g"
transform="scale(0.001,-0.001)" />

<path d="M512,-17c0,0,-191,0,-285,112c0,0,-94,113,-93,341V922c0,0,0,81,-9,136c0,0,-10,55,-32,109H483c0,0,-22,-54,-32,-109c0,0,-9,-56,-9,-136V502c0,0,0,-147,43,-219c0,0,43,-72,130,-72c0,0,85,0,127,62c0,0,42,61,42,187V922c0,0,0,80,-9,136c0,0,-10,55,-32,109h390c0,0,-22,-54,-31,-109c0,0,-10,-55,-10,-136V245c0,0,0,-80,9,-135c0,0,10,-56,32,-110H815l6,86C821,86,703,-17,512,-17Z" 
id="f4_1k"
transform="scale(0.001,-0.001)" />

<path d="M105,0c0,0,22,54,32,110c0,0,9,55,9,135V922c0,0,0,80,-10,135c0,0,-9,55,-31,110H495c0,0,-23,-54,-32,-109c0,0,-9,-55,-9,-136V245c0,0,0,-80,9,-135c0,0,9,-56,32,-110Z" 
id="f4_18"
transform="scale(0.001,-0.001)" />

<path d="M449,-255c0,0,-184,222,-259,382c0,0,-75,160,-75,331c0,0,0,172,75,332c0,0,75,161,259,382H673c0,0,-156,-201,-220,-362c0,0,-64,-160,-64,-352c0,0,0,-192,64,-352c0,0,64,-160,220,-361Z" 
id="f4_b"
transform="scale(0.001,-0.001)" />

<path d="M531,588l1,309L333,598l-7,-10ZM489,0c0,0,9,23,15,78c0,0,6,54,6,111V373H75V599c0,0,135,154,226,273c0,0,89,118,202,290H787L797,588h19c0,0,40,0,80,4c0,0,39,5,58,12V356c0,0,-18,7,-57,12c0,0,-39,5,-77,5H801V189c0,0,0,-57,2,-111c0,0,2,-55,5,-78Z" 
id="f4_n"
transform="scale(0.001,-0.001)" />

<path d="M90,0c0,0,22,54,32,110c0,0,9,55,9,135V996L-14,1167H428c0,0,2,-38,9,-63c0,0,8,-24,24,-44L752,691l296,369c0,0,23,28,33,53c0,0,10,24,11,54h346c0,0,-50,-120,-70,-208c0,0,-20,-88,-20,-184V245c0,0,0,-80,10,-135c0,0,9,-56,31,-110H999c0,0,23,54,32,110c0,0,9,55,9,135V675L741,291h-1L441,681V245c0,0,0,-80,9,-135c0,0,10,-56,32,-110Z" 
id="f4_1c"
transform="scale(0.001,-0.001)" />

<path d="M90,0c0,0,22,54,32,110c0,0,9,55,9,135V922c0,0,0,81,-9,136c0,0,-10,55,-32,109H480c0,0,-22,-54,-32,-109c0,0,-9,-55,-9,-136V739l269,348c0,0,23,27,33,45c0,0,11,18,14,35h396c0,0,-38,-23,-94,-79c0,0,-55,-55,-153,-166L651,635L957,245c0,0,84,-105,135,-160c0,0,51,-55,93,-85H749c0,0,-25,51,-60,107c0,0,-35,55,-95,138L439,463V245c0,0,0,-80,9,-135c0,0,10,-56,32,-110Z" 
id="f4_1a"
transform="scale(0.001,-0.001)" />

<path d="M115,-255c0,0,156,201,220,361c0,0,64,160,64,352c0,0,0,192,-64,352c0,0,-64,161,-220,362H339c0,0,184,-222,259,-383c0,0,75,-160,75,-331c0,0,0,-171,-75,-332c0,0,-75,-160,-259,-381Z" 
id="f4_c"
transform="scale(0.001,-0.001)" />

<path d="M365,-315c0,0,-136,187,-199,359c0,0,-62,172,-62,359c0,0,0,186,62,358c0,0,63,172,199,360h92c0,0,-110,-192,-160,-365c0,0,-51,-172,-51,-353c0,0,0,-183,51,-355c0,0,50,-172,160,-363Z" 
id="f1_b"
transform="scale(0.001,-0.001)" />

<path d="M52,-315c0,0,109,192,160,363c0,0,50,173,50,354c0,0,0,183,-50,355c0,0,-51,173,-160,364h92c0,0,135,-188,198,-360c0,0,63,-172,63,-359c0,0,0,-187,-63,-359c0,0,-63,-171,-198,-358Z" 
id="f1_c"
transform="scale(0.001,-0.001)" />

<path d="M0,368V478H849V368Z" 
id="f1_99"
transform="scale(0.001,-0.001)" />

<path d="M17,0L301,412L32,799H205L389,514L574,799H740L471,410L749,0H581L382,305L186,0Z" 
id="f1_2j"
transform="scale(0.001,-0.001)" />

<path d="M412,-18c0,0,-144,0,-239,85c0,0,-95,86,-108,222l133,18c0,0,24,-114,79,-164c0,0,55,-50,135,-50c0,0,96,0,161,65c0,0,65,66,65,163c0,0,0,92,-61,152c0,0,-60,60,-153,60c0,0,-38,0,-95,-15l15,119c0,0,13,-2,21,-2c0,0,86,0,155,45c0,0,69,44,69,137c0,0,0,74,-50,122c0,0,-50,49,-129,49c0,0,-79,0,-131,-50c0,0,-52,-49,-67,-147L78,815c0,0,25,135,112,209c0,0,87,74,217,74c0,0,89,0,164,-38c0,0,76,-39,116,-105c0,0,40,-66,40,-141c0,0,0,-70,-39,-129c0,0,-38,-58,-112,-92c0,0,97,-22,151,-93c0,0,53,-70,53,-176c0,0,0,-143,-104,-243c0,0,-105,-99,-264,-99Z" 
id="f5_n"
transform="scale(0.001,-0.001)" />

<path d="M125,0V1051H268V115H799V0Z" 
id="f0_1c"
transform="scale(0.001,-0.001)" />

<path d="M106,0V620c0,0,0,85,-5,188H228c0,0,6,-138,6,-165h3c0,0,32,103,74,141c0,0,42,38,118,38c0,0,27,0,54,-7V692c0,0,-26,7,-71,7c0,0,-84,0,-128,-72c0,0,-44,-72,-44,-206V0Z" 
id="f0_2e"
transform="scale(0.001,-0.001)" />

<path d="M606,-14c0,0,-164,0,-284,65c0,0,-119,66,-182,189c0,0,-63,123,-63,291c0,0,0,255,137,396c0,0,137,140,386,140c0,0,174,0,283,-59c0,0,109,-59,168,-189L915,779c0,0,-44,90,-123,131c0,0,-79,41,-196,41c0,0,-182,0,-278,-110c0,0,-96,-110,-96,-310c0,0,0,-200,102,-315c0,0,102,-115,282,-115c0,0,103,0,193,31c0,0,89,31,144,85V407H629V526h445V164c0,0,-83,-85,-205,-132c0,0,-121,-46,-263,-46Z" 
id="f0_17"
transform="scale(0.001,-0.001)" />

<path d="M355,-14c0,0,-133,0,-194,65c0,0,-62,66,-62,219V808H234V296c0,0,0,-80,16,-124c0,0,16,-44,50,-64c0,0,34,-19,101,-19c0,0,97,0,153,66c0,0,55,67,55,185V808H744V172c0,0,0,-141,4,-172H621c0,0,0,4,-1,20c0,0,-1,17,-2,38c0,0,-1,21,-3,80h-2C613,138,567,55,506,20c0,0,-61,-34,-151,-34Z" 
id="f0_2h"
transform="scale(0.001,-0.001)" />

<path d="M395,89c0,0,115,0,166,79c0,0,51,79,51,246c0,0,0,160,-51,235c0,0,-51,75,-164,75c0,0,-102,0,-147,-75c0,0,-45,-75,-45,-244c0,0,0,-170,45,-243c0,0,45,-73,145,-73ZM361,-14c0,0,-153,0,-225,102c0,0,-72,103,-72,312c0,0,0,422,297,422c0,0,92,0,153,-33c0,0,61,-34,98,-107h2l-2,90v335H747V166c0,0,0,-126,4,-166H623c0,0,-2,12,-5,55c0,0,-3,44,-3,75h-3c0,0,-37,-78,-98,-111c0,0,-62,-33,-153,-33Z" 
id="f0_20"
transform="scale(0.001,-0.001)" />

<path d="M140,0V163H285V0Z" 
id="f0_i"
transform="scale(0.001,-0.001)" />


</defs>
</svg>