<?xml version="1.0" encoding="UTF-8" standalone="no"?>
<!DOCTYPE svg PUBLIC "-//W3C//DTD SVG 1.1//EN"
"http://www.w3.org/Graphics/SVG/1.1/DTD/svg11.dtd">
<svg viewBox="0 0 692 1111" version="1.1" xmlns="http://www.w3.org/2000/svg" xmlns:xlink="http://www.w3.org/1999/xlink">
<defs>
<style type="text/css"><![CDATA[
.g0_10{
fill: none;
stroke: #000000;
stroke-width: 0.7638889;
stroke-linecap: round;
stroke-linejoin: miter;
}
.g1_10{
fill: none;
stroke: #000000;
stroke-width: 0.15277778;
stroke-linecap: round;
stroke-linejoin: miter;
}
.g2_10{
}
.g3_10{
fill: none;
stroke: #000000;
stroke-width: 0.76266664;
stroke-linecap: round;
stroke-linejoin: miter;
}
.g4_10{
fill: none;
stroke: #000000;
stroke-width: 0.7643777;
stroke-linecap: round;
stroke-linejoin: miter;
}
.g5_10{
fill: none;
stroke: #000000;
stroke-width: 1.0503472;
stroke-linecap: round;
stroke-linejoin: miter;
}
.g6_10{
fill: none;
stroke: #000000;
stroke-width: 1.0348861;
stroke-linecap: round;
stroke-linejoin: miter;
}
.g7_10{
fill: none;
stroke: #000000;
stroke-width: 1.0318612;
stroke-linecap: round;
stroke-linejoin: miter;
}
]]></style>
</defs>
<g fill="#D4D4D4" fill-opacity="0.56" >
<use xlink:href="#f0_1f" transform="matrix(50.9,-50.9,50.9,50.9,81.1,924.1)" />
<use xlink:href="#f0_2a" transform="matrix(50.9,-50.9,50.9,50.9,141.6,863.6)" />
<use xlink:href="#f0_28" transform="matrix(50.9,-50.9,50.9,50.9,184.9,820.3)" />
<use xlink:href="#f0_25" transform="matrix(50.9,-50.9,50.9,50.9,202.1,803.1)" />
<use xlink:href="#f0_2a" transform="matrix(50.9,-50.9,50.9,50.9,219.4,785.8)" />
<use xlink:href="#f0_21" transform="matrix(50.9,-50.9,50.9,50.9,262.7,742.5)" />
<use xlink:href="#f0_2k" transform="matrix(50.9,-50.9,50.9,50.9,305.9,699.3)" />
<use xlink:href="#f0_1x" transform="matrix(50.9,-50.9,50.9,50.9,344.8,660.4)" />
<use xlink:href="#f0_29" transform="matrix(50.9,-50.9,50.9,50.9,388,617.2)" />
<use xlink:href="#f0_2c" transform="matrix(50.9,-50.9,50.9,50.9,452.8,552.4)" />
<use xlink:href="#f0_2b" transform="matrix(50.9,-50.9,50.9,50.9,496.1,509.1)" />
<use xlink:href="#f0_25" transform="matrix(50.9,-50.9,50.9,50.9,539.3,465.9)" />
<use xlink:href="#f0_2a" transform="matrix(50.9,-50.9,50.9,50.9,556.6,448.6)" />
<use xlink:href="#f0_2g" transform="matrix(50.9,-50.9,50.9,50.9,599.8,405.4)" />
</g>
<g fill="#000000" >
<use xlink:href="#f1_k" transform="matrix(10.4,0,0,10.4,59.8,144.6)" />
<use xlink:href="#f1_o" transform="matrix(10.4,0,0,10.4,68.7,144.6)" />
<use xlink:href="#f1_h" transform="matrix(10.4,0,0,10.4,77.9,144.6)" />
<use xlink:href="#f1_14" transform="matrix(10.4,0,0,10.4,100.5,144.6)" />
<use xlink:href="#f1_2h" transform="matrix(10.4,0,0,10.4,111.4,144.6)" />
<use xlink:href="#f1_1w" transform="matrix(10.4,0,0,10.4,119.3,144.6)" />
<use xlink:href="#f1_27" transform="matrix(10.4,0,0,10.4,128.2,144.6)" />
<use xlink:href="#f1_2g" transform="matrix(10.4,0,0,10.4,131.7,144.6)" />
<use xlink:href="#f1_1w" transform="matrix(10.4,0,0,10.4,140.6,144.6)" />
<use xlink:href="#f1_2f" transform="matrix(10.4,0,0,10.4,149.5,144.6)" />
<use xlink:href="#f1_20" transform="matrix(10.4,0,0,10.4,153.9,144.6)" />
</g>
<path d="M221.9,139.7h10" class="g0_10" />
<path d="M284,153.8l1.5,-.9l4,6.3l4.2,-16.8H309" class="g1_10" />
<path fill-rule="evenodd" d="M283.9,153.6l2.1,-1.2l3.5,5.3l4,-15.7H309v.8H294l-4.1,16.4h-.8l-3.9,-5.9l-1.1,.7l-.2,-.4Z" class="g2_10" />
<path d="M282.6,139.7h27.6" class="g0_10" />
<g fill="#000000" >
<use xlink:href="#f2_4r" transform="matrix(10.5,0,0,10.5,214.8,133.3)" />
<use xlink:href="#f2_57" transform="matrix(10.5,0,0,10.5,319.6,133.3)" />
<use xlink:href="#f2_4o" transform="matrix(10.5,0,0,10.5,274.1,134.6)" />
<use xlink:href="#f2_54" transform="matrix(10.5,0,0,10.5,311,134.6)" />
<use xlink:href="#f2_4s" transform="matrix(10.5,0,0,10.5,214.8,148.8)" />
<use xlink:href="#f2_58" transform="matrix(10.5,0,0,10.5,319.6,148.8)" />
<use xlink:href="#f2_4p" transform="matrix(10.5,0,0,10.5,274.1,149)" />
<use xlink:href="#f2_55" transform="matrix(10.5,0,0,10.5,311,149)" />
<use xlink:href="#f2_4q" transform="matrix(10.5,0,0,10.5,274.1,155.8)" />
<use xlink:href="#f2_56" transform="matrix(10.5,0,0,10.5,311,155.8)" />
<use xlink:href="#f2_4t" transform="matrix(10.5,0,0,10.5,214.8,160.5)" />
<use xlink:href="#f2_59" transform="matrix(10.5,0,0,10.5,319.6,160.5)" />
<use xlink:href="#f1_99" transform="matrix(7,0,0,7,260.2,136.8)" />
<use xlink:href="#f1_k" transform="matrix(7,0,0,7,266.1,136.8)" />
<use xlink:href="#f1_k" transform="matrix(10.5,0,0,10.5,223.2,133.6)" />
<use xlink:href="#f1_m" transform="matrix(10.5,0,0,10.5,292.2,133.6)" />
<use xlink:href="#f1_2f" transform="matrix(10.5,0,0,10.5,190.4,144)" />
<use xlink:href="#f1_1w" transform="matrix(10.5,0,0,10.5,194.9,144)" />
<use xlink:href="#f1_29" transform="matrix(10.5,0,0,10.5,203.8,144)" />
<use xlink:href="#f1_1y" transform="matrix(10.5,0,0,10.5,234.2,144)" />
<use xlink:href="#f1_2a" transform="matrix(10.5,0,0,10.5,242.3,144)" />
<use xlink:href="#f1_2e" transform="matrix(10.5,0,0,10.5,251.2,144)" />
<use xlink:href="#f1_l" transform="matrix(10.5,0,0,10.5,222.7,156.4)" />
<use xlink:href="#f1_k" transform="matrix(10.5,0,0,10.5,293.1,158)" />
<use xlink:href="#f1_k" transform="matrix(10.5,0,0,10.5,302.1,158)" />
<use xlink:href="#f1_k" transform="matrix(10.4,0,0,10.4,59.8,204)" />
<use xlink:href="#f1_p" transform="matrix(10.4,0,0,10.4,68.7,204)" />
<use xlink:href="#f1_h" transform="matrix(10.4,0,0,10.4,77.9,204)" />
<use xlink:href="#f1_1f" transform="matrix(10.4,0,0,10.4,100.5,204)" />
<use xlink:href="#f1_2d" transform="matrix(10.4,0,0,10.4,111.2,204)" />
<use xlink:href="#f1_2a" transform="matrix(10.4,0,0,10.4,116.5,204)" />
<use xlink:href="#f1_2h" transform="matrix(10.4,0,0,10.4,125.4,204)" />
<use xlink:href="#f1_20" transform="matrix(10.4,0,0,10.4,133.3,204)" />
<use xlink:href="#f1_2f" transform="matrix(10.4,0,0,10.4,149.9,204)" />
<use xlink:href="#f1_23" transform="matrix(10.4,0,0,10.4,154.3,204)" />
<use xlink:href="#f1_1w" transform="matrix(10.4,0,0,10.4,163.2,204)" />
<use xlink:href="#f1_2f" transform="matrix(10.4,0,0,10.4,172.1,204)" />
</g>
<path d="M237.1,199.6h108m71.8,0h10.7" class="g3_10" />
<g fill="#000000" >
<use xlink:href="#f2_h" transform="matrix(10.5,0,0,10.5,289.1,193.5)" />
<use xlink:href="#f2_4o" transform="matrix(10.5,0,0,10.5,228.6,194.5)" />
<use xlink:href="#f2_54" transform="matrix(10.5,0,0,10.5,345.6,194.5)" />
<use xlink:href="#f2_4o" transform="matrix(10.5,0,0,10.5,408.3,194.5)" />
<use xlink:href="#f2_54" transform="matrix(10.5,0,0,10.5,428.2,194.5)" />
<use xlink:href="#f2_x" transform="matrix(10.5,0,0,10.5,358,203.9)" />
<use xlink:href="#f2_h" transform="matrix(10.5,0,0,10.5,439.7,203.9)" />
<use xlink:href="#f2_4p" transform="matrix(10.5,0,0,10.5,228.6,206.2)" />
<use xlink:href="#f2_55" transform="matrix(10.5,0,0,10.5,345.6,206.2)" />
<use xlink:href="#f2_4p" transform="matrix(10.5,0,0,10.5,408.3,206.2)" />
<use xlink:href="#f2_55" transform="matrix(10.5,0,0,10.5,428.2,206.2)" />
<use xlink:href="#f2_4q" transform="matrix(10.5,0,0,10.5,228.6,213)" />
<use xlink:href="#f2_56" transform="matrix(10.5,0,0,10.5,345.6,213)" />
<use xlink:href="#f2_4q" transform="matrix(10.5,0,0,10.5,408.3,213)" />
<use xlink:href="#f2_56" transform="matrix(10.5,0,0,10.5,428.2,213)" />
<use xlink:href="#f2_f" transform="matrix(10.5,0,0,10.5,289.4,216.3)" />
<use xlink:href="#f1_99" transform="matrix(7,0,0,7,214.6,196.7)" />
<use xlink:href="#f1_k" transform="matrix(7,0,0,7,220.6,196.7)" />
<use xlink:href="#f1_99" transform="matrix(7,0,0,7,394.3,196.7)" />
<use xlink:href="#f1_k" transform="matrix(7,0,0,7,400.3,196.7)" />
<use xlink:href="#f1_1y" transform="matrix(10.5,0,0,10.5,248.5,193.5)" />
<use xlink:href="#f1_2a" transform="matrix(10.5,0,0,10.5,256.5,193.5)" />
<use xlink:href="#f1_2e" transform="matrix(10.5,0,0,10.5,265.4,193.5)" />
<use xlink:href="#f1_2e" transform="matrix(10.5,0,0,10.5,312.1,193.5)" />
<use xlink:href="#f1_24" transform="matrix(10.5,0,0,10.5,320.1,193.5)" />
<use xlink:href="#f1_29" transform="matrix(10.5,0,0,10.5,323.7,193.5)" />
<use xlink:href="#f1_2f" transform="matrix(10.5,0,0,10.5,191.9,203.9)" />
<use xlink:href="#f1_1w" transform="matrix(10.5,0,0,10.5,196.4,203.9)" />
<use xlink:href="#f1_29" transform="matrix(10.5,0,0,10.5,205.3,203.9)" />
<use xlink:href="#f1_2f" transform="matrix(10.5,0,0,10.5,371.5,203.9)" />
<use xlink:href="#f1_1w" transform="matrix(10.5,0,0,10.5,376,203.9)" />
<use xlink:href="#f1_29" transform="matrix(10.5,0,0,10.5,384.9,203.9)" />
<use xlink:href="#f1_1y" transform="matrix(10.5,0,0,10.5,249,216.3)" />
<use xlink:href="#f1_2a" transform="matrix(10.5,0,0,10.5,257,216.3)" />
<use xlink:href="#f1_2e" transform="matrix(10.5,0,0,10.5,265.9,216.3)" />
<use xlink:href="#f1_2e" transform="matrix(10.5,0,0,10.5,312.1,216.3)" />
<use xlink:href="#f1_24" transform="matrix(10.5,0,0,10.5,320.1,216.3)" />
<use xlink:href="#f1_29" transform="matrix(10.5,0,0,10.5,323.7,216.3)" />
<use xlink:href="#f3_1w" transform="matrix(10.5,0,0,10.5,237.4,193.5)" />
<use xlink:href="#f3_2j" transform="matrix(10.5,0,0,10.5,275.6,193.5)" />
<use xlink:href="#f3_1x" transform="matrix(10.5,0,0,10.5,300.6,193.5)" />
<use xlink:href="#f3_2j" transform="matrix(10.5,0,0,10.5,334.3,193.5)" />
<use xlink:href="#f3_1w" transform="matrix(10.5,0,0,10.5,417.4,193.5)" />
<use xlink:href="#f3_2j" transform="matrix(10.5,0,0,10.5,451.9,203.9)" />
<use xlink:href="#f3_1x" transform="matrix(10.5,0,0,10.5,237.4,216.3)" />
<use xlink:href="#f3_2j" transform="matrix(10.5,0,0,10.5,276.1,216.3)" />
<use xlink:href="#f3_1w" transform="matrix(10.5,0,0,10.5,301.1,216.3)" />
<use xlink:href="#f3_2j" transform="matrix(10.5,0,0,10.5,334.3,216.3)" />
<use xlink:href="#f3_1x" transform="matrix(10.5,0,0,10.5,417.1,216.3)" />
<use xlink:href="#f1_k" transform="matrix(10.4,0,0,10.4,59.8,246)" />
<use xlink:href="#f1_q" transform="matrix(10.4,0,0,10.4,68.7,246)" />
<use xlink:href="#f1_h" transform="matrix(10.4,0,0,10.4,77.9,246)" />
<use xlink:href="#f1_1f" transform="matrix(10.4,0,0,10.4,100.5,246)" />
<use xlink:href="#f1_2d" transform="matrix(10.4,0,0,10.4,111.2,246)" />
<use xlink:href="#f1_2a" transform="matrix(10.4,0,0,10.4,116.5,246)" />
<use xlink:href="#f1_2h" transform="matrix(10.4,0,0,10.4,125.4,246)" />
<use xlink:href="#f1_20" transform="matrix(10.4,0,0,10.4,133.3,246)" />
<use xlink:href="#f1_2f" transform="matrix(10.4,0,0,10.4,149.9,246)" />
<use xlink:href="#f1_23" transform="matrix(10.4,0,0,10.4,154.3,246)" />
<use xlink:href="#f1_1w" transform="matrix(10.4,0,0,10.4,163.2,246)" />
<use xlink:href="#f1_2f" transform="matrix(10.4,0,0,10.4,172.1,246)" />
</g>
<path d="M241.8,278.5h11.6" class="g4_10" />
<g fill="#000000" >
<use xlink:href="#f2_c" transform="matrix(10.4,0,0,13.6,324.7,279.9)" />
<use xlink:href="#f2_d" transform="matrix(10.4,0,0,13.6,378.7,279.9)" />
<use xlink:href="#f2_c" transform="matrix(10.4,0,0,13.6,438.2,279.9)" />
<use xlink:href="#f2_d" transform="matrix(10.4,0,0,13.6,492.2,279.9)" />
<use xlink:href="#f1_k" transform="matrix(6.9,0,0,6.9,163.5,275.5)" />
<use xlink:href="#f1_k" transform="matrix(6.9,0,0,6.9,225.4,275.5)" />
<use xlink:href="#f1_k" transform="matrix(6.9,0,0,6.9,317.1,275.5)" />
<use xlink:href="#f1_l" transform="matrix(6.9,0,0,6.9,370.4,275.5)" />
<use xlink:href="#f1_k" transform="matrix(6.9,0,0,6.9,430.6,275.5)" />
<use xlink:href="#f1_l" transform="matrix(6.9,0,0,6.9,463.4,275.5)" />
<use xlink:href="#f1_k" transform="matrix(10.4,0,0,10.4,243.8,272.4)" />
<use xlink:href="#f1_1y" transform="matrix(10.4,0,0,10.4,102.9,282.7)" />
<use xlink:href="#f1_2a" transform="matrix(10.4,0,0,10.4,110.9,282.7)" />
<use xlink:href="#f1_2f" transform="matrix(10.4,0,0,10.4,119.9,282.7)" />
<use xlink:href="#f1_2f" transform="matrix(10.4,0,0,10.4,135.2,282.7)" />
<use xlink:href="#f1_1w" transform="matrix(10.4,0,0,10.4,139.6,282.7)" />
<use xlink:href="#f1_29" transform="matrix(10.4,0,0,10.4,148.6,282.7)" />
<use xlink:href="#f1_2f" transform="matrix(10.4,0,0,10.4,197,282.7)" />
<use xlink:href="#f1_1w" transform="matrix(10.4,0,0,10.4,201.5,282.7)" />
<use xlink:href="#f1_29" transform="matrix(10.4,0,0,10.4,210.5,282.7)" />
<use xlink:href="#f1_1y" transform="matrix(10.4,0,0,10.4,285.3,282.7)" />
<use xlink:href="#f1_2a" transform="matrix(10.4,0,0,10.4,293.3,282.7)" />
<use xlink:href="#f1_2e" transform="matrix(10.4,0,0,10.4,302.3,282.7)" />
<use xlink:href="#f1_k" transform="matrix(10.4,0,0,10.4,329.1,282.7)" />
<use xlink:href="#f1_l" transform="matrix(10.4,0,0,10.4,350.6,282.7)" />
<use xlink:href="#f1_1y" transform="matrix(10.4,0,0,10.4,398.7,282.7)" />
<use xlink:href="#f1_2a" transform="matrix(10.4,0,0,10.4,406.7,282.7)" />
<use xlink:href="#f1_2e" transform="matrix(10.4,0,0,10.4,415.7,282.7)" />
<use xlink:href="#f1_l" transform="matrix(10.4,0,0,10.4,443.5,282.7)" />
<use xlink:href="#f1_k" transform="matrix(10.4,0,0,10.4,485,282.7)" />
<use xlink:href="#f1_f" transform="matrix(10.4,0,0,10.4,522.7,282.7)" />
<use xlink:href="#f1_j" transform="matrix(10.4,0,0,10.4,563.2,282.7)" />
<use xlink:href="#f3_2j" transform="matrix(10.4,0,0,10.4,171.6,282.7)" />
<use xlink:href="#f3_2j" transform="matrix(10.4,0,0,10.4,360.1,282.7)" />
<use xlink:href="#f3_2j" transform="matrix(10.4,0,0,10.4,453.1,282.7)" />
<use xlink:href="#f3_2j" transform="matrix(10.4,0,0,10.4,536.4,282.7)" />
<use xlink:href="#f3_2j" transform="matrix(10.4,0,0,10.4,242.7,294.9)" />
<use xlink:href="#f2_h" transform="matrix(7,0,0,6.9,157.6,275.5)" />
<use xlink:href="#f2_h" transform="matrix(7,0,0,6.9,219.6,275.5)" />
<use xlink:href="#f2_h" transform="matrix(7,0,0,6.9,311.2,275.5)" />
<use xlink:href="#f2_h" transform="matrix(7,0,0,6.9,424.7,275.5)" />
<use xlink:href="#f2_4u" transform="matrix(10.5,0,0,10.4,126.9,272.1)" />
<use xlink:href="#f2_5a" transform="matrix(10.5,0,0,10.4,262.4,272.1)" />
<use xlink:href="#f2_4o" transform="matrix(10.5,0,0,10.4,233.1,273.3)" />
<use xlink:href="#f2_54" transform="matrix(10.5,0,0,10.4,253.8,273.3)" />
<use xlink:href="#f2_f" transform="matrix(10.5,0,0,10.4,184.7,282.7)" />
<use xlink:href="#f2_f" transform="matrix(10.5,0,0,10.4,273.2,282.7)" />
<use xlink:href="#f2_h" transform="matrix(10.5,0,0,10.4,338.9,282.7)" />
<use xlink:href="#f2_f" transform="matrix(10.5,0,0,10.4,386.7,282.7)" />
<use xlink:href="#f2_h" transform="matrix(10.5,0,0,10.4,474.3,282.7)" />
<use xlink:href="#f2_x" transform="matrix(10.5,0,0,10.4,501.4,282.7)" />
<use xlink:href="#f2_2c" transform="matrix(10.5,0,0,10.4,514.8,282.7)" />
<use xlink:href="#f2_y" transform="matrix(10.5,0,0,10.4,550.6,282.7)" />
<use xlink:href="#f2_4v" transform="matrix(10.5,0,0,10.4,126.9,284.1)" />
<use xlink:href="#f2_5b" transform="matrix(10.5,0,0,10.4,262.4,284.1)" />
<use xlink:href="#f2_4p" transform="matrix(10.5,0,0,10.4,233.1,285)" />
<use xlink:href="#f2_55" transform="matrix(10.5,0,0,10.4,253.8,285)" />
<use xlink:href="#f2_4q" transform="matrix(10.5,0,0,10.4,233.1,291.5)" />
<use xlink:href="#f2_56" transform="matrix(10.5,0,0,10.4,253.8,291.5)" />
<use xlink:href="#f2_4w" transform="matrix(10.5,0,0,10.4,126.9,296.2)" />
<use xlink:href="#f2_5c" transform="matrix(10.5,0,0,10.4,262.4,296.4)" />
<use xlink:href="#f1_k" transform="matrix(10.4,0,0,10.4,59.8,345.9)" />
<use xlink:href="#f1_r" transform="matrix(10.4,0,0,10.4,68.7,345.9)" />
<use xlink:href="#f1_h" transform="matrix(10.4,0,0,10.4,77.9,345.9)" />
<use xlink:href="#f1_1f" transform="matrix(10.4,0,0,10.4,100.5,345.9)" />
<use xlink:href="#f1_2d" transform="matrix(10.4,0,0,10.4,111.2,345.9)" />
<use xlink:href="#f1_2a" transform="matrix(10.4,0,0,10.4,116.5,345.9)" />
<use xlink:href="#f1_2h" transform="matrix(10.4,0,0,10.4,125.4,345.9)" />
<use xlink:href="#f1_20" transform="matrix(10.4,0,0,10.4,133.3,345.9)" />
<use xlink:href="#f1_2f" transform="matrix(10.4,0,0,10.4,149.9,345.9)" />
<use xlink:href="#f1_23" transform="matrix(10.4,0,0,10.4,154.3,345.9)" />
<use xlink:href="#f1_1w" transform="matrix(10.4,0,0,10.4,163.2,345.9)" />
<use xlink:href="#f1_2f" transform="matrix(10.4,0,0,10.4,172.1,345.9)" />
</g>
<path d="M237.2,341h40.3m69.7,0h39.7m69.7,0h38.5" class="g0_10" />
<g fill="#000000" >
<use xlink:href="#f2_h" transform="matrix(10.5,0,0,10.5,252.9,334.8)" />
<use xlink:href="#f2_h" transform="matrix(10.5,0,0,10.5,363.3,334.8)" />
<use xlink:href="#f2_h" transform="matrix(10.5,0,0,10.5,471.8,334.8)" />
<use xlink:href="#f2_4o" transform="matrix(10.5,0,0,10.5,228.6,335.8)" />
<use xlink:href="#f2_54" transform="matrix(10.5,0,0,10.5,278.1,335.8)" />
<use xlink:href="#f2_4o" transform="matrix(10.5,0,0,10.5,338.7,335.8)" />
<use xlink:href="#f2_54" transform="matrix(10.5,0,0,10.5,387.7,335.8)" />
<use xlink:href="#f2_4o" transform="matrix(10.5,0,0,10.5,448.3,335.8)" />
<use xlink:href="#f2_54" transform="matrix(10.5,0,0,10.5,496.1,335.8)" />
<use xlink:href="#f2_f" transform="matrix(10.5,0,0,10.5,289.4,345.2)" />
<use xlink:href="#f2_f" transform="matrix(10.5,0,0,10.5,399,345.2)" />
<use xlink:href="#f2_x" transform="matrix(10.5,0,0,10.5,508.5,345.2)" />
<use xlink:href="#f2_4p" transform="matrix(10.5,0,0,10.5,228.6,347.5)" />
<use xlink:href="#f2_55" transform="matrix(10.5,0,0,10.5,278.1,347.5)" />
<use xlink:href="#f2_4p" transform="matrix(10.5,0,0,10.5,338.7,347.5)" />
<use xlink:href="#f2_55" transform="matrix(10.5,0,0,10.5,387.7,347.5)" />
<use xlink:href="#f2_4p" transform="matrix(10.5,0,0,10.5,448.3,347.5)" />
<use xlink:href="#f2_55" transform="matrix(10.5,0,0,10.5,496.1,347.5)" />
<use xlink:href="#f2_4q" transform="matrix(10.5,0,0,10.5,228.6,354.4)" />
<use xlink:href="#f2_56" transform="matrix(10.5,0,0,10.5,278.1,354.4)" />
<use xlink:href="#f2_4q" transform="matrix(10.5,0,0,10.5,338.7,354.4)" />
<use xlink:href="#f2_56" transform="matrix(10.5,0,0,10.5,387.7,354.4)" />
<use xlink:href="#f2_4q" transform="matrix(10.5,0,0,10.5,448.3,354.4)" />
<use xlink:href="#f2_56" transform="matrix(10.5,0,0,10.5,496.1,354.4)" />
<use xlink:href="#f2_f" transform="matrix(10.5,0,0,10.5,246.2,357.6)" />
<use xlink:href="#f2_f" transform="matrix(10.5,0,0,10.5,356.4,357.6)" />
<use xlink:href="#f2_f" transform="matrix(10.5,0,0,10.5,466,357.6)" />
<use xlink:href="#f1_99" transform="matrix(7,0,0,7,214.6,338)" />
<use xlink:href="#f1_k" transform="matrix(7,0,0,7,220.6,338)" />
<use xlink:href="#f1_99" transform="matrix(7,0,0,7,324.7,338)" />
<use xlink:href="#f1_k" transform="matrix(7,0,0,7,330.6,338)" />
<use xlink:href="#f1_99" transform="matrix(7,0,0,7,434.2,338)" />
<use xlink:href="#f1_k" transform="matrix(7,0,0,7,440.2,338)" />
<use xlink:href="#f1_2f" transform="matrix(10.5,0,0,10.5,191.8,345.2)" />
<use xlink:href="#f1_1w" transform="matrix(10.5,0,0,10.5,196.3,345.2)" />
<use xlink:href="#f1_29" transform="matrix(10.5,0,0,10.5,205.2,345.2)" />
<use xlink:href="#f1_2f" transform="matrix(10.5,0,0,10.5,301.8,345.2)" />
<use xlink:href="#f1_1w" transform="matrix(10.5,0,0,10.5,306.3,345.2)" />
<use xlink:href="#f1_29" transform="matrix(10.5,0,0,10.5,315.2,345.2)" />
<use xlink:href="#f1_2f" transform="matrix(10.5,0,0,10.5,411.3,345.2)" />
<use xlink:href="#f1_1w" transform="matrix(10.5,0,0,10.5,415.7,345.2)" />
<use xlink:href="#f1_29" transform="matrix(10.5,0,0,10.5,424.7,345.2)" />
<use xlink:href="#f1_j" transform="matrix(10.5,0,0,10.5,521.6,345.2)" />
<use xlink:href="#f1_k" transform="matrix(10.5,0,0,10.5,236.7,357.6)" />
<use xlink:href="#f1_k" transform="matrix(10.5,0,0,10.5,346.8,357.6)" />
<use xlink:href="#f1_k" transform="matrix(10.5,0,0,10.5,456.4,357.6)" />
<use xlink:href="#f3_1w" transform="matrix(10.5,0,0,10.5,240.1,334.8)" />
<use xlink:href="#f3_1x" transform="matrix(10.5,0,0,10.5,264.4,334.8)" />
<use xlink:href="#f3_1x" transform="matrix(10.5,0,0,10.5,350,334.8)" />
<use xlink:href="#f3_1y" transform="matrix(10.5,0,0,10.5,374.6,334.8)" />
<use xlink:href="#f3_1y" transform="matrix(10.5,0,0,10.5,459.1,334.8)" />
<use xlink:href="#f3_1w" transform="matrix(10.5,0,0,10.5,483.4,334.8)" />
<use xlink:href="#f3_1w" transform="matrix(10.5,0,0,10.5,258,357.6)" />
<use xlink:href="#f3_1x" transform="matrix(10.5,0,0,10.5,266.9,357.6)" />
<use xlink:href="#f3_1x" transform="matrix(10.5,0,0,10.5,368,357.6)" />
<use xlink:href="#f3_1y" transform="matrix(10.5,0,0,10.5,377,357.6)" />
<use xlink:href="#f3_1y" transform="matrix(10.5,0,0,10.5,477.3,357.6)" />
<use xlink:href="#f3_1w" transform="matrix(10.5,0,0,10.5,485.3,357.6)" />
<use xlink:href="#f1_2i" transform="matrix(10.4,0,0,10.4,540.4,345.9)" />
<use xlink:href="#f1_23" transform="matrix(10.4,0,0,10.4,551.9,345.9)" />
<use xlink:href="#f1_20" transform="matrix(10.4,0,0,10.4,560.7,345.9)" />
<use xlink:href="#f1_2d" transform="matrix(10.4,0,0,10.4,569.6,345.9)" />
<use xlink:href="#f1_20" transform="matrix(10.4,0,0,10.4,574.9,345.9)" />
<use xlink:href="#f3_1w" transform="matrix(10.4,0,0,10.4,591.1,345.9)" />
<use xlink:href="#f3_f" transform="matrix(10.4,0,0,10.4,600,345.9)" />
<use xlink:href="#f3_1x" transform="matrix(10.4,0,0,10.4,612,345.9)" />
<use xlink:href="#f3_f" transform="matrix(10.4,0,0,10.4,620.8,345.9)" />
<use xlink:href="#f3_1y" transform="matrix(10.4,0,0,10.4,100.5,382.8)" />
<use xlink:href="#f1_x" transform="matrix(10.4,0,0,10.4,115.4,382.8)" />
<use xlink:href="#f1_j" transform="matrix(10.4,0,0,10.4,131.5,382.8)" />
<use xlink:href="#f1_k" transform="matrix(10.4,0,0,10.4,59.8,416.7)" />
<use xlink:href="#f1_s" transform="matrix(10.4,0,0,10.4,68.7,416.7)" />
<use xlink:href="#f1_h" transform="matrix(10.4,0,0,10.4,77.9,416.7)" />
<use xlink:href="#f1_1i" transform="matrix(10.4,0,0,10.4,100.5,416.7)" />
<use xlink:href="#f1_2a" transform="matrix(10.4,0,0,10.4,111.2,416.7)" />
<use xlink:href="#f1_27" transform="matrix(10.4,0,0,10.4,120,416.7)" />
<use xlink:href="#f1_2h" transform="matrix(10.4,0,0,10.4,123.6,416.7)" />
<use xlink:href="#f1_20" transform="matrix(10.4,0,0,10.4,131.6,416.7)" />
<use xlink:href="#f1_21" transform="matrix(10.4,0,0,10.4,147.4,416.7)" />
<use xlink:href="#f1_2a" transform="matrix(10.4,0,0,10.4,151.8,416.7)" />
<use xlink:href="#f1_2d" transform="matrix(10.4,0,0,10.4,160.7,416.7)" />
<use xlink:href="#f3_2j" transform="matrix(10.4,0,0,10.4,172.8,416.7)" />
<use xlink:href="#f1_f" transform="matrix(10.4,0,0,10.4,180.8,416.7)" />
<use xlink:href="#f1_l" transform="matrix(10.4,0,0,10.4,192.2,416.7)" />
<use xlink:href="#f1_2f" transform="matrix(10.4,0,0,10.4,208.1,416.7)" />
<use xlink:href="#f1_1w" transform="matrix(10.4,0,0,10.4,212.5,416.7)" />
<use xlink:href="#f1_29" transform="matrix(10.4,0,0,10.4,221.4,416.7)" />
<use xlink:href="#f1_99" transform="matrix(7.4,0,0,7.4,230,411.4)" />
<use xlink:href="#f1_k" transform="matrix(7.4,0,0,7.4,236.3,411.4)" />
<use xlink:href="#f1_b" transform="matrix(10.4,0,0,10.4,242.4,416.7)" />
<use xlink:href="#f1_1y" transform="matrix(10.4,0,0,10.4,247.8,416.7)" />
<use xlink:href="#f1_2a" transform="matrix(10.4,0,0,10.4,255.7,416.7)" />
<use xlink:href="#f1_2e" transform="matrix(10.4,0,0,10.4,264.6,416.7)" />
<use xlink:href="#f3_2j" transform="matrix(10.4,0,0,10.4,279.7,416.7)" />
<use xlink:href="#f1_c" transform="matrix(10.4,0,0,10.4,287.7,416.7)" />
<use xlink:href="#f1_w" transform="matrix(10.4,0,0,10.4,300,416.7)" />
<use xlink:href="#f1_2f" transform="matrix(10.4,0,0,10.4,316.3,416.7)" />
<use xlink:href="#f1_1w" transform="matrix(10.4,0,0,10.4,320.7,416.7)" />
<use xlink:href="#f1_29" transform="matrix(10.4,0,0,10.4,329.6,416.7)" />
<use xlink:href="#f1_99" transform="matrix(7.4,0,0,7.4,338.3,411.4)" />
<use xlink:href="#f1_k" transform="matrix(7.4,0,0,7.4,344.6,411.4)" />
<use xlink:href="#f1_b" transform="matrix(10.4,0,0,10.4,355.7,416.7)" />
<use xlink:href="#f1_l" transform="matrix(10.4,0,0,10.4,361.1,416.7)" />
<use xlink:href="#f1_1y" transform="matrix(10.4,0,0,10.4,376.9,416.7)" />
<use xlink:href="#f1_2a" transform="matrix(10.4,0,0,10.4,384.9,416.7)" />
<use xlink:href="#f1_2e" transform="matrix(10.4,0,0,10.4,393.7,416.7)" />
<use xlink:href="#f1_20" transform="matrix(10.4,0,0,10.4,401.7,416.7)" />
<use xlink:href="#f1_1y" transform="matrix(10.4,0,0,10.4,410.6,416.7)" />
<use xlink:href="#f3_2j" transform="matrix(10.4,0,0,10.4,425.8,416.7)" />
<use xlink:href="#f1_c" transform="matrix(10.4,0,0,10.4,433.8,416.7)" />
<use xlink:href="#f1_l" transform="matrix(10.4,0,0,10.4,59.8,464.9)" />
<use xlink:href="#f1_j" transform="matrix(10.4,0,0,10.4,68.7,464.9)" />
<use xlink:href="#f1_h" transform="matrix(10.4,0,0,10.4,77.9,464.9)" />
<use xlink:href="#f1_14" transform="matrix(10.4,0,0,10.4,100.5,464.9)" />
<use xlink:href="#f1_2j" transform="matrix(10.4,0,0,10.4,111.2,464.9)" />
<use xlink:href="#f1_2b" transform="matrix(10.4,0,0,10.4,119.4,464.9)" />
<use xlink:href="#f1_2d" transform="matrix(10.4,0,0,10.4,128.3,464.9)" />
<use xlink:href="#f1_20" transform="matrix(10.4,0,0,10.4,133.8,464.9)" />
<use xlink:href="#f1_2e" transform="matrix(10.4,0,0,10.4,142.7,464.9)" />
<use xlink:href="#f1_2e" transform="matrix(10.4,0,0,10.4,150.9,464.9)" />
</g>
<path d="M242.7,461.8l1.6,-.9l3.9,6.5l4.2,-17h32" class="g1_10" />
<path fill-rule="evenodd" d="M242.6,461.6l2.1,-1.2l3.5,5.4l4,-15.8h32.2v.7H252.7l-4.1,16.7h-.8l-3.9,-6l-1.1,.7l-.2,-.5Z" class="g2_10" />
<path d="M300.9,461.8l1.6,-.9l4,6.5l4.2,-17h11.4" class="g1_10" />
<path fill-rule="evenodd" d="M300.8,461.6l2.1,-1.2l3.6,5.4L310.4,450h11.7v.7H310.9l-4,16.7h-.8l-4,-6l-1,.7l-.3,-.5Z" class="g2_10" />
<path d="M323.5,460.9l1.6,-1.1l3.9,7.6l4.2,-20.1h39.9" class="g1_10" />
<path fill-rule="evenodd" d="M323.4,460.7l2.1,-1.5l3.5,6.3l4,-18.6h40.1v.8H333.5l-4.1,19.7h-.8l-3.9,-7l-1,.7l-.3,-.4Z" class="g2_10" />
<g fill="#000000" >
<use xlink:href="#f2_c" transform="matrix(10.5,0,0,17.5,226,463.6)" />
<use xlink:href="#f2_d" transform="matrix(10.5,0,0,17.5,374.3,463.6)" />
<use xlink:href="#f2_h" transform="matrix(10.6,0,0,10.6,261.3,466.1)" />
<use xlink:href="#f2_h" transform="matrix(10.6,0,0,10.6,288.3,466.1)" />
<use xlink:href="#f2_h" transform="matrix(10.6,0,0,10.6,342.1,466.1)" />
<use xlink:href="#f1_99" transform="matrix(7,0,0,7.1,212.4,458.8)" />
<use xlink:href="#f1_k" transform="matrix(7,0,0,7.1,218.3,458.8)" />
<use xlink:href="#f1_l" transform="matrix(7,0,0,7.1,364.8,458.8)" />
<use xlink:href="#f1_2e" transform="matrix(10.6,0,0,10.6,191.6,466.1)" />
<use xlink:href="#f1_24" transform="matrix(10.6,0,0,10.6,199.7,466.1)" />
<use xlink:href="#f1_29" transform="matrix(10.6,0,0,10.6,203.3,466.1)" />
<use xlink:href="#f1_k" transform="matrix(10.6,0,0,10.6,251.9,466.1)" />
<use xlink:href="#f1_k" transform="matrix(10.6,0,0,10.6,332.7,466.1)" />
<use xlink:href="#f3_2j" transform="matrix(10.6,0,0,10.6,231.9,466.1)" />
<use xlink:href="#f3_2j" transform="matrix(10.6,0,0,10.6,273.7,466.1)" />
<use xlink:href="#f3_2j" transform="matrix(10.6,0,0,10.6,311.5,466.1)" />
<use xlink:href="#f3_2j" transform="matrix(10.6,0,0,10.6,354.5,466.1)" />
<use xlink:href="#f1_24" transform="matrix(10.4,0,0,10.4,389.8,464.9)" />
<use xlink:href="#f1_29" transform="matrix(10.4,0,0,10.4,393.4,464.9)" />
<use xlink:href="#f1_2e" transform="matrix(10.4,0,0,10.4,409.4,464.9)" />
<use xlink:href="#f1_24" transform="matrix(10.4,0,0,10.4,417.4,464.9)" />
<use xlink:href="#f1_28" transform="matrix(10.4,0,0,10.4,420.9,464.9)" />
<use xlink:href="#f1_2b" transform="matrix(10.4,0,0,10.4,434.2,464.9)" />
<use xlink:href="#f1_27" transform="matrix(10.4,0,0,10.4,443.1,464.9)" />
<use xlink:href="#f1_20" transform="matrix(10.4,0,0,10.4,446.6,464.9)" />
<use xlink:href="#f1_2e" transform="matrix(10.4,0,0,10.4,455.5,464.9)" />
<use xlink:href="#f1_2f" transform="matrix(10.4,0,0,10.4,463.4,464.9)" />
<use xlink:href="#f1_21" transform="matrix(10.4,0,0,10.4,475,464.9)" />
<use xlink:href="#f1_2a" transform="matrix(10.4,0,0,10.4,479.5,464.9)" />
<use xlink:href="#f1_2d" transform="matrix(10.4,0,0,10.4,488.3,464.9)" />
<use xlink:href="#f1_28" transform="matrix(10.4,0,0,10.4,493.6,464.9)" />
<use xlink:href="#f1_h" transform="matrix(10.4,0,0,10.4,506.9,464.9)" />
<use xlink:href="#f1_l" transform="matrix(10.4,0,0,10.4,59.8,503.4)" />
<use xlink:href="#f1_k" transform="matrix(10.4,0,0,10.4,68.7,503.4)" />
<use xlink:href="#f1_h" transform="matrix(10.4,0,0,10.4,77.9,503.4)" />
<use xlink:href="#f1_18" transform="matrix(10.4,0,0,10.4,100.5,503.4)" />
<use xlink:href="#f1_21" transform="matrix(10.4,0,0,10.4,105,503.4)" />
<use xlink:href="#f1_2f" transform="matrix(10.4,0,0,10.4,116.4,503.4)" />
<use xlink:href="#f1_1w" transform="matrix(10.4,0,0,10.4,120.8,503.4)" />
<use xlink:href="#f1_29" transform="matrix(10.4,0,0,10.4,129.7,503.4)" />
<use xlink:href="#f1_99" transform="matrix(7.4,0,0,7.4,138.3,498.1)" />
<use xlink:href="#f1_k" transform="matrix(7.4,0,0,7.4,144.6,498.1)" />
<use xlink:href="#f3_1w" transform="matrix(10.4,0,0,10.4,150.8,503.4)" />
<use xlink:href="#f1_e" transform="matrix(10.4,0,0,10.4,166.5,503.4)" />
<use xlink:href="#f1_2f" transform="matrix(10.4,0,0,10.4,182.9,503.4)" />
<use xlink:href="#f1_1w" transform="matrix(10.4,0,0,10.4,187.3,503.4)" />
<use xlink:href="#f1_29" transform="matrix(10.4,0,0,10.4,196.2,503.4)" />
<use xlink:href="#f1_99" transform="matrix(7.4,0,0,7.4,204.9,498.1)" />
<use xlink:href="#f1_k" transform="matrix(7.4,0,0,7.4,211.2,498.1)" />
<use xlink:href="#f3_1x" transform="matrix(10.4,0,0,10.4,217.3,503.4)" />
<use xlink:href="#f1_e" transform="matrix(10.4,0,0,10.4,233.1,503.4)" />
<use xlink:href="#f1_2f" transform="matrix(10.4,0,0,10.4,249.4,503.4)" />
<use xlink:href="#f1_1w" transform="matrix(10.4,0,0,10.4,253.8,503.4)" />
<use xlink:href="#f1_29" transform="matrix(10.4,0,0,10.4,262.7,503.4)" />
<use xlink:href="#f1_99" transform="matrix(7.4,0,0,7.4,271.4,498.1)" />
<use xlink:href="#f1_k" transform="matrix(7.4,0,0,7.4,277.7,498.1)" />
<use xlink:href="#f3_1y" transform="matrix(10.4,0,0,10.4,283.9,503.4)" />
<use xlink:href="#f1_w" transform="matrix(10.4,0,0,10.4,298.9,503.4)" />
<use xlink:href="#f2_2c" transform="matrix(10.4,0,0,10.4,315.2,503.4)" />
<use xlink:href="#f2_g" transform="matrix(10.4,0,0,10.4,324,503.4)" />
<use xlink:href="#f1_2f" transform="matrix(10.4,0,0,10.4,335.2,503.4)" />
<use xlink:href="#f1_23" transform="matrix(10.4,0,0,10.4,339.6,503.4)" />
<use xlink:href="#f1_20" transform="matrix(10.4,0,0,10.4,348.5,503.4)" />
<use xlink:href="#f1_29" transform="matrix(10.4,0,0,10.4,357.4,503.4)" />
<use xlink:href="#f1_2b" transform="matrix(10.4,0,0,10.4,100.5,537.3)" />
<use xlink:href="#f1_2d" transform="matrix(10.4,0,0,10.4,109.4,537.3)" />
<use xlink:href="#f1_2a" transform="matrix(10.4,0,0,10.4,114.7,537.3)" />
<use xlink:href="#f1_2h" transform="matrix(10.4,0,0,10.4,123.6,537.3)" />
<use xlink:href="#f1_20" transform="matrix(10.4,0,0,10.4,131.6,537.3)" />
<use xlink:href="#f1_2f" transform="matrix(10.4,0,0,10.4,148.3,537.3)" />
<use xlink:href="#f1_23" transform="matrix(10.4,0,0,10.4,152.7,537.3)" />
<use xlink:href="#f1_1w" transform="matrix(10.4,0,0,10.4,161.6,537.3)" />
<use xlink:href="#f1_2f" transform="matrix(10.4,0,0,10.4,170.5,537.3)" />
<use xlink:href="#f3_1w" transform="matrix(10.4,0,0,10.4,189.1,537.3)" />
<use xlink:href="#f3_e" transform="matrix(10.4,0,0,10.4,204.7,537.3)" />
<use xlink:href="#f3_1x" transform="matrix(10.4,0,0,10.4,220.8,537.3)" />
<use xlink:href="#f3_e" transform="matrix(10.4,0,0,10.4,236.3,537.3)" />
<use xlink:href="#f3_1y" transform="matrix(10.4,0,0,10.4,252.4,537.3)" />
<use xlink:href="#f1_w" transform="matrix(10.4,0,0,10.4,274,537.3)" />
<use xlink:href="#f3_1w" transform="matrix(10.4,0,0,10.4,290.1,537.3)" />
<use xlink:href="#f3_1x" transform="matrix(10.4,0,0,10.4,299,537.3)" />
<use xlink:href="#f3_1y" transform="matrix(10.4,0,0,10.4,307.8,537.3)" />
<use xlink:href="#f1_l" transform="matrix(10.4,0,0,10.4,59.8,571.3)" />
<use xlink:href="#f1_l" transform="matrix(10.4,0,0,10.4,68.7,571.3)" />
<use xlink:href="#f1_h" transform="matrix(10.4,0,0,10.4,77.9,571.3)" />
<use xlink:href="#f1_18" transform="matrix(10.4,0,0,10.4,100.5,571.3)" />
<use xlink:href="#f1_21" transform="matrix(10.4,0,0,10.4,105,571.3)" />
<use xlink:href="#f1_2e" transform="matrix(10.4,0,0,10.4,116.4,571.3)" />
<use xlink:href="#f1_24" transform="matrix(10.4,0,0,10.4,124.4,571.3)" />
<use xlink:href="#f1_29" transform="matrix(10.4,0,0,10.4,127.9,571.3)" />
<use xlink:href="#f1_99" transform="matrix(7.4,0,0,7.4,136.7,565.9)" />
<use xlink:href="#f1_k" transform="matrix(7.4,0,0,7.4,143,565.9)" />
<use xlink:href="#f3_2j" transform="matrix(10.4,0,0,10.4,149.1,571.3)" />
<use xlink:href="#f1_x" transform="matrix(10.4,0,0,10.4,164.3,571.3)" />
<use xlink:href="#f1_1y" transform="matrix(10.4,0,0,10.4,180.8,571.3)" />
<use xlink:href="#f1_2a" transform="matrix(10.4,0,0,10.4,188.8,571.3)" />
<use xlink:href="#f1_2e" transform="matrix(10.4,0,0,10.4,197.6,571.3)" />
<use xlink:href="#f1_99" transform="matrix(7.4,0,0,7.4,205.8,565.9)" />
<use xlink:href="#f1_k" transform="matrix(7.4,0,0,7.4,212.1,565.9)" />
<use xlink:href="#f3_2j" transform="matrix(10.4,0,0,10.4,218.2,571.3)" />
<use xlink:href="#f1_f" transform="matrix(10.4,0,0,10.4,226.3,571.3)" />
<use xlink:href="#f1_2f" transform="matrix(10.4,0,0,10.4,237.9,571.3)" />
<use xlink:href="#f1_23" transform="matrix(10.4,0,0,10.4,242.3,571.3)" />
<use xlink:href="#f1_20" transform="matrix(10.4,0,0,10.4,251.2,571.3)" />
<use xlink:href="#f1_29" transform="matrix(10.4,0,0,10.4,260.1,571.3)" />
<use xlink:href="#f3_2j" transform="matrix(10.4,0,0,10.4,275.8,571.3)" />
<use xlink:href="#f1_1x" transform="matrix(10.4,0,0,10.4,291,571.3)" />
<use xlink:href="#f1_20" transform="matrix(10.4,0,0,10.4,299.9,571.3)" />
<use xlink:href="#f1_27" transform="matrix(10.4,0,0,10.4,308.8,571.3)" />
<use xlink:href="#f1_2a" transform="matrix(10.4,0,0,10.4,312.3,571.3)" />
<use xlink:href="#f1_29" transform="matrix(10.4,0,0,10.4,321.2,571.3)" />
<use xlink:href="#f1_22" transform="matrix(10.4,0,0,10.4,330,571.3)" />
<use xlink:href="#f1_2e" transform="matrix(10.4,0,0,10.4,338.9,571.3)" />
<use xlink:href="#f1_2f" transform="matrix(10.4,0,0,10.4,354,571.3)" />
<use xlink:href="#f1_2a" transform="matrix(10.4,0,0,10.4,358.5,571.3)" />
<use xlink:href="#f1_2i" transform="matrix(10.4,0,0,10.4,374.5,571.3)" />
<use xlink:href="#f1_23" transform="matrix(10.4,0,0,10.4,386,571.3)" />
<use xlink:href="#f1_24" transform="matrix(10.4,0,0,10.4,394.9,571.3)" />
<use xlink:href="#f1_1y" transform="matrix(10.4,0,0,10.4,398.4,571.3)" />
<use xlink:href="#f1_23" transform="matrix(10.4,0,0,10.4,406.4,571.3)" />
<use xlink:href="#f1_24" transform="matrix(10.4,0,0,10.4,422.4,571.3)" />
<use xlink:href="#f1_29" transform="matrix(10.4,0,0,10.4,425.9,571.3)" />
<use xlink:href="#f1_2f" transform="matrix(10.4,0,0,10.4,434.8,571.3)" />
<use xlink:href="#f1_20" transform="matrix(10.4,0,0,10.4,439.2,571.3)" />
<use xlink:href="#f1_2d" transform="matrix(10.4,0,0,10.4,448.1,571.3)" />
<use xlink:href="#f1_2h" transform="matrix(10.4,0,0,10.4,453.4,571.3)" />
<use xlink:href="#f1_1w" transform="matrix(10.4,0,0,10.4,461.4,571.3)" />
<use xlink:href="#f1_27" transform="matrix(10.4,0,0,10.4,470.3,571.3)" />
<use xlink:href="#f1_y" transform="matrix(10.4,0,0,10.4,473.8,571.3)" />
<use xlink:href="#f4_10" transform="matrix(14,0,0,14,281.9,623.3)" />
<use xlink:href="#f4_1d" transform="matrix(14,0,0,14,298.5,623.3)" />
<use xlink:href="#f4_1i" transform="matrix(14,0,0,14,316.7,623.3)" />
<use xlink:href="#f4_1m" transform="matrix(14,0,0,14,328.1,623.3)" />
<use xlink:href="#f4_14" transform="matrix(14,0,0,14,349.1,623.3)" />
<use xlink:href="#f4_1h" transform="matrix(14,0,0,14,362.1,623.3)" />
<use xlink:href="#f4_1i" transform="matrix(14,0,0,14,377.2,623.3)" />
<use xlink:href="#f1_k" transform="matrix(10.4,0,0,10.4,68.8,684.7)" />
<use xlink:href="#f1_h" transform="matrix(10.4,0,0,10.4,77.7,684.7)" />
<use xlink:href="#f1_b" transform="matrix(10.4,0,0,10.4,123.1,684.7)" />
<use xlink:href="#f1_24" transform="matrix(10.4,0,0,10.4,128.4,684.7)" />
<use xlink:href="#f1_c" transform="matrix(10.4,0,0,10.4,131.9,684.7)" />
</g>
<path d="M172.8,678h11.3" class="g5_10" />
<g fill="#000000" >
<use xlink:href="#f1_99" transform="matrix(10.4,0,0,10.4,158.5,682.2)" />
<use xlink:href="#f1_m" transform="matrix(10.4,0,0,10.4,174,694.4)" />
<use xlink:href="#f2_2c" transform="matrix(10.5,0,0,10.4,174,671.9)" />
<use xlink:href="#f1_b" transform="matrix(10.4,0,0,10.4,247.8,684.7)" />
<use xlink:href="#f1_24" transform="matrix(10.4,0,0,10.4,253.1,684.7)" />
<use xlink:href="#f1_24" transform="matrix(10.4,0,0,10.4,256.6,684.7)" />
<use xlink:href="#f1_c" transform="matrix(10.4,0,0,10.4,260.2,684.7)" />
</g>
<path d="M286.9,678h11.3" class="g5_10" />
<g fill="#000000" >
<use xlink:href="#f1_p" transform="matrix(10.4,0,0,10.4,288.1,694.5)" />
<use xlink:href="#f2_2c" transform="matrix(10.5,0,0,10.4,288.2,671.9)" />
<use xlink:href="#f1_b" transform="matrix(10.4,0,0,10.4,354.3,684.7)" />
<use xlink:href="#f1_24" transform="matrix(10.4,0,0,10.4,359.6,684.7)" />
<use xlink:href="#f1_24" transform="matrix(10.4,0,0,10.4,363.1,684.7)" />
<use xlink:href="#f1_24" transform="matrix(10.4,0,0,10.4,366.7,684.7)" />
<use xlink:href="#f1_c" transform="matrix(10.4,0,0,10.4,370.2,684.7)" />
</g>
<path d="M396.9,678h21.2" class="g6_10" />
<g fill="#000000" >
<use xlink:href="#f1_99" transform="matrix(10.3,0,0,10.4,398.4,671.9)" />
<use xlink:href="#f1_p" transform="matrix(10.3,0,0,10.4,403.2,694.4)" />
<use xlink:href="#f2_2c" transform="matrix(10.3,0,0,10.4,408.3,671.9)" />
<use xlink:href="#f1_b" transform="matrix(10.4,0,0,10.4,504.4,684.7)" />
<use xlink:href="#f1_24" transform="matrix(10.4,0,0,10.4,509.7,684.7)" />
<use xlink:href="#f1_2h" transform="matrix(10.4,0,0,10.4,513.3,684.7)" />
<use xlink:href="#f1_c" transform="matrix(10.4,0,0,10.4,521.3,684.7)" />
</g>
<path d="M543.6,678h21.2" class="g6_10" />
<g fill="#000000" >
<use xlink:href="#f1_99" transform="matrix(10.3,0,0,10.4,545.1,671.9)" />
<use xlink:href="#f1_p" transform="matrix(10.3,0,0,10.4,549.9,694.4)" />
<use xlink:href="#f2_2c" transform="matrix(10.3,0,0,10.4,554.9,671.9)" />
<use xlink:href="#f1_b" transform="matrix(10.4,0,0,10.4,118.5,748.9)" />
<use xlink:href="#f1_2h" transform="matrix(10.4,0,0,10.4,123.8,748.9)" />
<use xlink:href="#f1_c" transform="matrix(10.4,0,0,10.4,132.1,748.9)" />
</g>
<path d="M158.6,742.2h11.3" class="g5_10" />
<g fill="#000000" >
<use xlink:href="#f1_m" transform="matrix(10.4,0,0,10.4,159.8,758.6)" />
<use xlink:href="#f2_2c" transform="matrix(10.5,0,0,10.4,159.8,736.1)" />
<use xlink:href="#f1_b" transform="matrix(10.4,0,0,10.4,243.2,748.9)" />
<use xlink:href="#f1_2h" transform="matrix(10.4,0,0,10.4,248.5,748.9)" />
<use xlink:href="#f1_24" transform="matrix(10.4,0,0,10.4,256.7,748.9)" />
<use xlink:href="#f1_c" transform="matrix(10.4,0,0,10.4,260.3,748.9)" />
</g>
<path d="M286.9,742.2h20.4" class="g5_10" />
<g fill="#000000" >
<use xlink:href="#f1_l" transform="matrix(10.4,0,0,10.4,287.9,736.1)" />
<use xlink:href="#f1_m" transform="matrix(10.4,0,0,10.4,292.6,758.6)" />
<use xlink:href="#f2_2c" transform="matrix(10.5,0,0,10.4,297.2,736.1)" />
<use xlink:href="#f1_b" transform="matrix(10.4,0,0,10.4,349.7,748.9)" />
<use xlink:href="#f1_2h" transform="matrix(10.4,0,0,10.4,355,748.9)" />
<use xlink:href="#f1_24" transform="matrix(10.4,0,0,10.4,363,748.9)" />
<use xlink:href="#f1_24" transform="matrix(10.4,0,0,10.4,366.5,748.9)" />
<use xlink:href="#f1_c" transform="matrix(10.4,0,0,10.4,370.1,748.9)" />
</g>
<path d="M396.9,742.2H408" class="g7_10" />
<g fill="#000000" >
<use xlink:href="#f1_h" transform="matrix(10.5,0,0,10.4,411.5,746.4)" />
<use xlink:href="#f1_p" transform="matrix(10.5,0,0,10.4,398.1,758.6)" />
<use xlink:href="#f2_2c" transform="matrix(10.4,0,0,10.4,398.1,736.1)" />
<use xlink:href="#f1_l" transform="matrix(10.4,0,0,10.4,68.8,813.1)" />
<use xlink:href="#f1_h" transform="matrix(10.4,0,0,10.4,77.7,813.1)" />
<use xlink:href="#f1_b" transform="matrix(10.4,0,0,10.4,123.1,813.1)" />
<use xlink:href="#f1_24" transform="matrix(10.4,0,0,10.4,128.4,813.1)" />
<use xlink:href="#f1_c" transform="matrix(10.4,0,0,10.4,131.9,813.1)" />
<use xlink:href="#f1_j" transform="matrix(10.4,0,0,10.4,155.5,813.1)" />
<use xlink:href="#f1_b" transform="matrix(10.4,0,0,10.4,247.8,813.1)" />
<use xlink:href="#f1_24" transform="matrix(10.4,0,0,10.4,253.1,813.1)" />
<use xlink:href="#f1_24" transform="matrix(10.4,0,0,10.4,256.6,813.1)" />
<use xlink:href="#f1_c" transform="matrix(10.4,0,0,10.4,260.2,813.1)" />
</g>
<path d="M286.9,806.3h20.8" class="g5_10" />
<g fill="#000000" >
<use xlink:href="#f1_m" transform="matrix(10.4,0,0,10.4,292.9,822.8)" />
<use xlink:href="#f2_h" transform="matrix(10.5,0,0,10.4,288.1,800.3)" />
<use xlink:href="#f2_2c" transform="matrix(10.5,0,0,10.4,297.7,800.3)" />
<use xlink:href="#f1_b" transform="matrix(10.4,0,0,10.4,354.3,813.1)" />
<use xlink:href="#f1_24" transform="matrix(10.4,0,0,10.4,359.6,813.1)" />
<use xlink:href="#f1_24" transform="matrix(10.4,0,0,10.4,363.1,813.1)" />
<use xlink:href="#f1_24" transform="matrix(10.4,0,0,10.4,366.7,813.1)" />
<use xlink:href="#f1_c" transform="matrix(10.4,0,0,10.4,370.2,813.1)" />
</g>
<path d="M410.3,806.3h11.4" class="g5_10" />
<g fill="#000000" >
<use xlink:href="#f1_l" transform="matrix(10.4,0,0,10.4,411.5,822.8)" />
<use xlink:href="#f2_2c" transform="matrix(10.5,0,0,10.4,411.5,800.3)" />
<use xlink:href="#f2_h" transform="matrix(10.5,0,0,10.4,396.6,810.6)" />
<use xlink:href="#f1_b" transform="matrix(10.4,0,0,10.4,504.4,813.1)" />
<use xlink:href="#f1_24" transform="matrix(10.4,0,0,10.4,509.7,813.1)" />
<use xlink:href="#f1_2h" transform="matrix(10.4,0,0,10.4,513.3,813.1)" />
<use xlink:href="#f1_c" transform="matrix(10.4,0,0,10.4,521.3,813.1)" />
</g>
<path d="M543.6,806.3h11.3" class="g5_10" />
<g fill="#000000" >
<use xlink:href="#f1_l" transform="matrix(10.4,0,0,10.4,544.7,822.8)" />
<use xlink:href="#f2_2c" transform="matrix(10.5,0,0,10.4,544.8,800.3)" />
<use xlink:href="#f1_b" transform="matrix(10.4,0,0,10.4,118.5,877.2)" />
<use xlink:href="#f1_2h" transform="matrix(10.4,0,0,10.4,123.8,877.2)" />
<use xlink:href="#f1_c" transform="matrix(10.4,0,0,10.4,132.1,877.2)" />
<use xlink:href="#f2_2c" transform="matrix(10.4,0,0,10.4,155.5,877.2)" />
<use xlink:href="#f1_b" transform="matrix(10.4,0,0,10.4,243.2,877.2)" />
<use xlink:href="#f1_2h" transform="matrix(10.4,0,0,10.4,248.5,877.2)" />
<use xlink:href="#f1_24" transform="matrix(10.4,0,0,10.4,256.7,877.2)" />
<use xlink:href="#f1_c" transform="matrix(10.4,0,0,10.4,260.3,877.2)" />
</g>
<path d="M286.9,870.5h11.3" class="g5_10" />
<g fill="#000000" >
<use xlink:href="#f1_o" transform="matrix(10.4,0,0,10.4,288.1,887)" />
<use xlink:href="#f2_2c" transform="matrix(10.5,0,0,10.4,288.2,864.4)" />
<use xlink:href="#f1_b" transform="matrix(10.4,0,0,10.4,349.7,877.2)" />
<use xlink:href="#f1_2h" transform="matrix(10.4,0,0,10.4,355,877.2)" />
<use xlink:href="#f1_24" transform="matrix(10.4,0,0,10.4,363,877.2)" />
<use xlink:href="#f1_24" transform="matrix(10.4,0,0,10.4,366.5,877.2)" />
<use xlink:href="#f1_c" transform="matrix(10.4,0,0,10.4,370.1,877.2)" />
</g>
<path d="M396.9,870.5h21.2" class="g6_10" />
<g fill="#000000" >
<use xlink:href="#f1_99" transform="matrix(10.3,0,0,10.4,398.4,864.4)" />
<use xlink:href="#f1_p" transform="matrix(10.3,0,0,10.4,403.2,886.9)" />
<use xlink:href="#f2_2c" transform="matrix(10.3,0,0,10.4,408.3,864.4)" />
<use xlink:href="#f1_b" transform="matrix(10.4,0,0,10.4,497.5,877.2)" />
<use xlink:href="#f1_2h" transform="matrix(10.4,0,0,10.4,502.8,877.2)" />
<use xlink:href="#f1_24" transform="matrix(10.4,0,0,10.4,510.7,877.2)" />
<use xlink:href="#f1_24" transform="matrix(10.4,0,0,10.4,514.3,877.2)" />
<use xlink:href="#f1_24" transform="matrix(10.4,0,0,10.4,517.8,877.2)" />
<use xlink:href="#f1_c" transform="matrix(10.4,0,0,10.4,521.4,877.2)" />
</g>
<path d="M543.5,870.5h11.2" class="g7_10" />
<g fill="#000000" >
<use xlink:href="#f1_h" transform="matrix(10.5,0,0,10.4,558.2,874.7)" />
<use xlink:href="#f1_n" transform="matrix(10.5,0,0,10.4,544.7,886.9)" />
<use xlink:href="#f2_2c" transform="matrix(10.4,0,0,10.4,544.7,864.4)" />
<use xlink:href="#f5_n" transform="matrix(12,0,0,12,657.2,1093.6)" />
</g>
<g fill="#0080FF" fill-opacity="0.5" >
<use xlink:href="#f0_1c" transform="matrix(36.1,0,0,36.1,173.2,1081.1)" />
<use xlink:href="#f0_21" transform="matrix(36.1,0,0,36.1,203.9,1081.1)" />
<use xlink:href="#f0_1x" transform="matrix(36.1,0,0,36.1,234.5,1081.1)" />
<use xlink:href="#f0_2e" transform="matrix(36.1,0,0,36.1,265.2,1081.1)" />
<use xlink:href="#f0_2a" transform="matrix(36.1,0,0,36.1,283.6,1081.1)" />
<use xlink:href="#f0_17" transform="matrix(36.1,0,0,36.1,314.2,1081.1)" />
<use xlink:href="#f0_2h" transform="matrix(36.1,0,0,36.1,357.1,1081.1)" />
<use xlink:href="#f0_25" transform="matrix(36.1,0,0,36.1,387.8,1081.1)" />
<use xlink:href="#f0_20" transform="matrix(36.1,0,0,36.1,400.1,1081.1)" />
<use xlink:href="#f0_21" transform="matrix(36.1,0,0,36.1,430.7,1081.1)" />
<use xlink:href="#f0_i" transform="matrix(36.1,0,0,36.1,461.4,1081.1)" />
<use xlink:href="#f0_25" transform="matrix(36.1,0,0,36.1,476.7,1081.1)" />
<use xlink:href="#f0_2a" transform="matrix(36.1,0,0,36.1,489,1081.1)" />
</g>
<defs>
<path d="M593,101c0,0,182,0,279,112c0,0,98,113,98,318c0,0,0,196,-98,308c0,0,-98,112,-277,112c0,0,-181,0,-279,-110c0,0,-99,-111,-99,-310c0,0,0,-198,100,-314c0,0,99,-116,276,-116Zm0,-115c0,0,-162,0,-279,65c0,0,-118,66,-180,190c0,0,-62,124,-62,290c0,0,0,252,138,394c0,0,138,142,385,142c0,0,160,0,278,-64c0,0,118,-64,180,-185c0,0,62,-122,62,-287c0,0,0,-165,-63,-289c0,0,-63,-124,-181,-190c0,0,-118,-66,-278,-66Z" 
id="f0_1f"
transform="scale(0.001,-0.001)" />

<path d="M106,0V635c0,0,0,141,-5,173H228c0,0,1,-4,2,-21c0,0,1,-16,2,-37c0,0,1,-22,2,-81h2c0,0,47,84,108,119c0,0,60,34,151,34c0,0,132,0,194,-66c0,0,61,-66,61,-218V0H615V512c0,0,0,80,-15,124c0,0,-16,44,-50,63c0,0,-35,20,-101,20c0,0,-97,0,-153,-67c0,0,-56,-66,-56,-184V0Z" 
id="f0_2a"
transform="scale(0.001,-0.001)" />

<path d="M103,0V1107H237V0Z" 
id="f0_28"
transform="scale(0.001,-0.001)" />

<path d="M102,0V808H236V0Zm0,979v128H236V979Z" 
id="f0_25"
transform="scale(0.001,-0.001)" />

<path d="M643,478c0,0,-11,128,-65,187c0,0,-54,59,-154,59c0,0,-98,0,-155,-66c0,0,-57,-65,-62,-180ZM431,-14c0,0,-179,0,-272,106c0,0,-94,107,-94,317c0,0,0,200,94,307c0,0,93,106,267,106c0,0,356,0,356,-429V375H206c0,0,0,-138,57,-213c0,0,58,-75,168,-75c0,0,87,0,140,35c0,0,53,35,71,88L760,177c0,0,-72,-191,-329,-191Z" 
id="f0_21"
transform="scale(0.001,-0.001)" />

<path d="M17,0L304,415L31,808H179L380,493L580,808H730L457,417L747,0H598L380,331L162,0Z" 
id="f0_2k"
transform="scale(0.001,-0.001)" />

<path d="M339,87c0,0,74,0,132,34c0,0,57,33,90,91c0,0,34,59,34,121v66L448,396c0,0,-95,-2,-144,-19c0,0,-49,-18,-75,-55c0,0,-26,-38,-26,-98c0,0,0,-65,35,-101c0,0,36,-36,101,-36ZM309,-14c0,0,-122,0,-183,64c0,0,-61,64,-61,176c0,0,0,125,82,192c0,0,83,67,266,72l182,3v44c0,0,0,98,-42,141c0,0,-42,43,-132,43c0,0,-90,0,-131,-31c0,0,-41,-31,-49,-98L101,604c0,0,34,218,323,218c0,0,153,0,229,-70c0,0,77,-69,77,-202V202c0,0,0,-59,16,-90c0,0,16,-30,60,-30c0,0,19,0,44,5V4C850,4,799,-7,746,-7c0,0,-75,0,-109,38c0,0,-33,40,-38,124h-4C595,155,543,62,475,24c0,0,-68,-38,-166,-38Z" 
id="f0_1x"
transform="scale(0.001,-0.001)" />

<path d="M106,0V635c0,0,0,141,-5,173H228c0,0,1,-4,2,-21c0,0,1,-16,2,-37c0,0,1,-22,2,-81h2c0,0,44,86,100,120c0,0,56,33,136,33c0,0,92,0,145,-36c0,0,54,-37,75,-117h2c0,0,42,82,101,117c0,0,59,36,143,36c0,0,123,0,178,-66c0,0,56,-67,56,-218V0H1039V512c0,0,0,117,-32,162c0,0,-32,45,-116,45c0,0,-88,0,-136,-66c0,0,-49,-65,-49,-185V0H573V512c0,0,0,117,-32,162c0,0,-32,45,-116,45c0,0,-86,0,-136,-66c0,0,-50,-66,-50,-185V0Z" 
id="f0_29"
transform="scale(0.001,-0.001)" />

<path d="M453,84c0,0,100,0,146,74c0,0,46,73,46,247c0,0,0,169,-46,241c0,0,-45,73,-145,73c0,0,-80,0,-125,-34c0,0,-45,-34,-68,-105c0,0,-24,-71,-24,-186c0,0,0,-159,51,-234c0,0,51,-76,165,-76ZM103,-316V643c0,0,0,124,-5,165H228c0,0,1,-3,3,-22c0,0,1,-18,3,-56c0,0,2,-38,2,-52h3c0,0,36,75,94,110c0,0,59,34,156,34c0,0,149,0,223,-100c0,0,74,-100,74,-314c0,0,0,-422,-297,-422c0,0,-187,0,-251,140h-4c0,0,3,-6,3,-126V-316Z" 
id="f0_2c"
transform="scale(0.001,-0.001)" />

<path d="M420,84c0,0,121,0,173,78c0,0,52,77,52,243c0,0,0,167,-50,243c0,0,-50,76,-167,76c0,0,-118,0,-170,-78c0,0,-53,-77,-53,-241c0,0,0,-160,52,-241c0,0,52,-80,163,-80Zm1,-98c0,0,-176,0,-267,107c0,0,-90,108,-90,312c0,0,0,417,362,417c0,0,185,0,272,-102c0,0,88,-101,88,-315c0,0,0,-212,-94,-316C692,89,599,-14,421,-14Z" 
id="f0_2b"
transform="scale(0.001,-0.001)" />

<path d="M278,-11c0,0,-162,0,-162,182V710H23v98h99l39,181h90V808H400V710H251V200c0,0,0,-58,19,-82c0,0,19,-23,66,-23c0,0,27,0,77,10V6c0,0,-66,-17,-135,-17Z" 
id="f0_2g"
transform="scale(0.001,-0.001)" />

<path d="M406,0V763H155V870h2c16,0,114,2,178,48c0,0,70,51,104,157H549V0Z" 
id="f1_k"
transform="scale(0.001,-0.001)" />

<path d="M417,-28c0,0,-161,0,-259,79c0,0,-98,81,-109,223H189c0,0,11,-90,72,-139c0,0,61,-49,162,-49c0,0,96,0,158,68c0,0,61,68,61,175c0,0,0,112,-64,178c0,0,-64,66,-173,66c0,0,-59,0,-115,-28c0,0,-55,-29,-84,-73L93,480l77,573H727V922H271L225,629l4,3c0,0,89,60,188,60c0,0,169,0,269,-94c0,0,99,-93,99,-253c0,0,0,-165,-103,-269C682,76,579,-28,417,-28Z" 
id="f1_o"
transform="scale(0.001,-0.001)" />

<path d="M133,0V162H292V0Z" 
id="f1_h"
transform="scale(0.001,-0.001)" />

<path d="M131,0V1097H934V966H280V631H877V500H280V131H942V0Z" 
id="f1_14"
transform="scale(0.001,-0.001)" />

<path d="M310,0L12,799H168L383,145L604,799H752L454,0Z" 
id="f1_2h"
transform="scale(0.001,-0.001)" />

<path d="M335,90c0,0,106,0,179,57c0,0,50,41,67,91c0,0,3,10,4,31c0,0,3,21,3,47v87c0,0,-38,-18,-83,-25L381,360c0,0,-97,-13,-142,-45c0,0,-44,-31,-44,-86c0,0,0,-67,36,-103c0,0,37,-36,104,-36ZM309,-20c0,0,-117,0,-186,61c0,0,-68,63,-68,169c0,0,0,108,64,171c0,0,65,64,189,79l183,23c0,0,22,3,42,8c0,0,26,7,40,27c0,0,15,20,15,51v6c0,0,0,64,-49,101c0,0,-48,36,-135,36c0,0,-83,0,-130,-38c0,0,-46,-39,-56,-115H94c0,0,10,131,92,197c0,0,83,66,238,66c0,0,145,0,222,-63c0,0,76,-63,76,-184V137c0,0,0,-21,12,-33c0,0,12,-12,33,-12c0,0,6,0,18,1c0,0,11,2,25,5V1c0,0,-20,-7,-41,-11c0,0,-22,-5,-37,-5c0,0,-76,0,-110,41c0,0,-22,28,-32,79c0,0,-15,-19,-34,-36c0,0,-101,-89,-247,-89Z" 
id="f1_1w"
transform="scale(0.001,-0.001)" />

<path d="M103,0V1097H237V0Z" 
id="f1_27"
transform="scale(0.001,-0.001)" />

<path d="M375,-20c0,0,-136,0,-203,66c0,0,-68,68,-68,204V799H238V284c0,0,0,-101,38,-146c0,0,39,-44,127,-44c0,0,97,0,153,75c0,0,57,75,57,203V799H747V0H620V122c0,0,-14,-22,-30,-41C590,81,504,-20,375,-20Z" 
id="f1_2g"
transform="scale(0.001,-0.001)" />

<path d="M292,-9c0,0,-88,0,-124,38c0,0,-36,39,-36,134V689H22V799H132v224H266V799H392V689H266V163c0,0,0,-27,21,-43c0,0,21,-15,57,-15h48V1C392,1,324,-9,292,-9Z" 
id="f1_2f"
transform="scale(0.001,-0.001)" />

<path d="M649,461c0,0,-6,111,-55,172c0,0,-55,69,-160,69c0,0,-106,0,-170,-79c0,0,-50,-62,-60,-162ZM425,-20c0,0,-169,0,-266,106c0,0,-97,107,-97,297c0,0,0,201,102,320c0,0,103,119,276,119c0,0,157,0,253,-116c0,0,96,-117,96,-306l-1,-48H204c0,0,8,-119,54,-182c0,0,57,-76,180,-76c0,0,77,0,134,43c0,0,58,43,70,110H775C775,247,746,116,656,47c0,0,-90,-67,-231,-67Z" 
id="f1_20"
transform="scale(0.001,-0.001)" />

<path d="M0,-123V1415H525v-72H72V-123Z" 
id="f2_4r"
transform="scale(0.001,-0.001)" />

<path d="M478,-123V1343H26v72H550V-123Z" 
id="f2_57"
transform="scale(0.001,-0.001)" />

<path d="M62,-123V268c0,0,0,230,56,452c0,0,47,190,134,334c0,0,87,144,204,242c0,0,85,73,194,119l18,-16c0,0,-211,-145,-335,-339c0,0,-98,-156,-149,-374c0,0,-50,-218,-50,-403V-123Z" 
id="f2_4o"
transform="scale(0.001,-0.001)" />

<path d="M617,-123V283c0,0,0,236,-63,459c0,0,-63,223,-188,392c0,0,-108,146,-282,265l17,16c0,0,180,-76,320,-248c0,0,139,-172,204,-417c0,0,64,-245,64,-482V-123Z" 
id="f2_54"
transform="scale(0.001,-0.001)" />

<path d="M0,-123V1415H72V-123Z" 
id="f2_4s"
transform="scale(0.001,-0.001)" />

<path d="M0,-123V1415H72V-123Z" 
id="f2_58"
transform="scale(0.001,-0.001)" />

<path d="M62,-123V1415h72V-123Z" 
id="f2_4p"
transform="scale(0.001,-0.001)" />

<path d="M617,-123V1415h72V-123Z" 
id="f2_55"
transform="scale(0.001,-0.001)" />

<path d="M650,-123c0,0,-180,75,-319,246c0,0,-140,172,-205,418c0,0,-64,245,-64,481v393h72V1007c0,0,0,-236,63,-459c0,0,63,-223,189,-391c0,0,108,-145,282,-265l-18,-15Z" 
id="f2_4q"
transform="scale(0.001,-0.001)" />

<path d="M101,-123l-17,15c0,0,210,144,334,339c0,0,99,156,149,373c0,0,50,218,50,403v408h72V1022c0,0,0,-230,-56,-451c0,0,-48,-191,-134,-335C499,236,412,92,295,-5c0,0,-84,-73,-194,-118Z" 
id="f2_56"
transform="scale(0.001,-0.001)" />

<path d="M0,-123V1415H72V-51H525v-72Z" 
id="f2_4t"
transform="scale(0.001,-0.001)" />

<path d="M26,-123v72H478V1415h72V-123Z" 
id="f2_59"
transform="scale(0.001,-0.001)" />

<path d="M0,368V478H849V368Z" 
id="f1_99"
transform="scale(0.001,-0.001)" />

<path d="M424,-28c0,0,-180,0,-272,86c0,0,-92,87,-100,266H192c0,0,12,-126,66,-180c0,0,55,-54,170,-54c0,0,100,0,163,57c0,0,64,57,64,147c0,0,0,94,-61,149c0,0,-52,48,-135,54c0,0,-38,2,-72,2c0,0,-34,0,-45,-3V613c0,0,17,-3,51,-3c0,0,35,0,68,4c0,0,66,8,106,43c0,0,55,45,55,125c0,0,0,77,-58,125c0,0,-58,48,-148,48c0,0,-96,0,-147,-58c0,0,-51,-59,-56,-175H82c0,0,0,168,89,260c0,0,88,93,250,93c0,0,153,0,247,-77c0,0,94,-76,94,-202c0,0,0,-124,-95,-201c0,0,-18,-15,-39,-27c0,0,39,-17,69,-41c0,0,101,-79,101,-214c0,0,0,-151,-105,-246c0,0,-104,-95,-269,-95Z" 
id="f1_m"
transform="scale(0.001,-0.001)" />

<path d="M99,0V799H226V681l30,39c0,0,87,102,219,102c0,0,132,0,203,-71c0,0,72,-72,72,-204V0H616V502c0,0,0,105,-41,151c0,0,-40,47,-132,47c0,0,-97,0,-154,-73c0,0,-56,-74,-56,-199V0Z" 
id="f1_29"
transform="scale(0.001,-0.001)" />

<path d="M394,-20c0,0,-159,0,-253,113c0,0,-95,114,-95,307c0,0,0,193,98,308c0,0,98,114,264,114c0,0,144,0,230,-78c0,0,85,-79,91,-217H600c0,0,-8,86,-59,133c0,0,-52,47,-138,47c0,0,-101,0,-159,-82c0,0,-58,-82,-58,-225c0,0,0,-152,54,-229c0,0,53,-77,159,-77c0,0,79,0,132,50c0,0,52,51,69,143H729C729,287,709,137,623,58c0,0,-86,-78,-229,-78Z" 
id="f1_1y"
transform="scale(0.001,-0.001)" />

<path d="M424,94c0,0,107,0,169,83c0,0,63,83,63,223c0,0,0,140,-63,224c0,0,-62,83,-169,83c0,0,-106,0,-168,-83c0,0,-62,-84,-62,-224c0,0,0,-140,62,-223c0,0,62,-83,168,-83Zm0,-114c0,0,-165,0,-268,115C156,95,54,211,54,400c0,0,0,189,102,306c0,0,103,116,268,116c0,0,168,0,270,-116c0,0,102,-117,102,-306c0,0,0,-189,-102,-305C694,95,592,-20,424,-20Z" 
id="f1_2a"
transform="scale(0.001,-0.001)" />

<path d="M393,-20c0,0,-169,0,-252,65c0,0,-83,67,-92,210H178c0,0,10,-85,61,-123c0,0,50,-38,154,-38c0,0,90,0,136,34c0,0,47,35,47,100c0,0,0,42,-31,64c0,0,-30,21,-123,43L283,368c0,0,-112,27,-160,75c0,0,-48,48,-48,135c0,0,0,112,80,178c0,0,81,66,218,66c0,0,140,0,222,-68c0,0,82,-67,88,-187H557c0,0,-6,67,-55,103c0,0,-48,37,-129,37c0,0,-84,0,-127,-29c0,0,-44,-29,-44,-85c0,0,0,-43,31,-65c0,0,30,-21,121,-43L493,452c0,0,117,-28,167,-78c0,0,49,-49,49,-138c0,0,0,-119,-86,-188c0,0,-85,-68,-230,-68Z" 
id="f1_2e"
transform="scale(0.001,-0.001)" />

<path d="M39,0V0c0,0,0,170,84,277c0,0,85,108,317,236c0,0,113,62,154,115c0,0,41,52,41,134c0,0,0,86,-62,141c0,0,-61,54,-156,54c0,0,-101,0,-158,-68c0,0,-57,-68,-60,-194H67c0,0,-2,178,95,279c0,0,98,101,273,101c0,0,149,0,245,-89c0,0,94,-88,94,-228c0,0,0,-118,-60,-195c0,0,-61,-76,-229,-169C485,394,303,294,237,212c0,0,-28,-36,-46,-81H774V0Z" 
id="f1_l"
transform="scale(0.001,-0.001)" />

<path d="M432,92c0,0,96,0,156,66c0,0,61,65,61,169c0,0,0,103,-61,169c0,0,-60,66,-156,66c0,0,-95,0,-156,-66c0,0,-61,-66,-61,-169c0,0,0,-104,61,-169c0,0,61,-66,156,-66ZM425,-28c0,0,-176,0,-271,135c0,0,-95,136,-95,388c0,0,0,278,103,429c0,0,103,151,293,151c0,0,142,0,226,-77c0,0,84,-76,90,-211H638c0,0,-8,80,-56,123c0,0,-47,43,-127,43c0,0,-125,0,-192,-119c0,0,-58,-102,-64,-278c0,0,100,127,255,127c0,0,152,0,245,-98c0,0,93,-98,93,-258c0,0,0,-161,-101,-259c0,0,-101,-96,-266,-96Z" 
id="f1_p"
transform="scale(0.001,-0.001)" />

<path d="M575,590c0,0,115,0,169,48c0,0,54,49,54,154c0,0,0,92,-54,135c0,0,-54,43,-169,43H280V590ZM131,0V1097H611c0,0,160,0,249,-80c0,0,90,-80,90,-222c0,0,0,-156,-90,-244c0,0,-89,-88,-249,-88c0,0,-34,0,-82,0c-72,0,-177,0,-249,-1V0Z" 
id="f1_1f"
transform="scale(0.001,-0.001)" />

<path d="M118,0V799H246V662c0,0,17,32,36,58c0,0,76,102,187,102c0,0,19,0,38,-6V679l-27,1c0,0,-109,0,-168,-66c0,0,-60,-65,-60,-186V0Z" 
id="f1_2d"
transform="scale(0.001,-0.001)" />

<path d="M99,0V1097H233V690l23,30c0,0,87,102,219,102c0,0,132,0,203,-71c0,0,72,-72,72,-204V0H616V514c0,0,0,99,-38,142c0,0,-38,44,-124,44c0,0,-102,0,-162,-73c0,0,-59,-74,-59,-199V0Z" 
id="f1_23"
transform="scale(0.001,-0.001)" />

<path d="M0,356v74H784V356Z" 
id="f2_h"
transform="scale(0.001,-0.001)" />

<path d="M0,214v74H784V214ZM0,494v72H784V494Z" 
id="f2_x"
transform="scale(0.001,-0.001)" />

<path d="M355,0V355H0v72H355V784h72V427H782V355H427V0Z" 
id="f2_f"
transform="scale(0.001,-0.001)" />

<path d="M104,0V799H238V0Zm-2,946v152H239V946Z" 
id="f1_24"
transform="scale(0.001,-0.001)" />

<path d="M354,90c0,0,107,0,192,57c0,0,60,41,87,95c0,0,5,12,11,33c0,0,6,20,11,44l18,88c0,0,-62,-26,-132,-37L414,352c0,0,-84,-11,-131,-56c0,0,-47,-45,-47,-113c0,0,0,-44,31,-69c0,0,31,-24,87,-24ZM306,-20c0,0,-99,0,-156,47c0,0,-57,49,-57,134c0,0,1,117,81,198c0,0,80,81,211,98l164,20l70,10c0,0,35,6,59,30c0,0,23,24,31,66l1,2c0,0,13,64,-25,94c0,0,-39,31,-132,31c0,0,-83,0,-137,-37c0,0,-54,-37,-84,-114H210c0,0,46,137,138,201c0,0,92,63,245,63c0,0,149,0,211,-59c0,0,45,-44,44,-116c0,0,1,-30,-6,-63L749,136c0,0,-4,-19,6,-32c0,0,10,-12,30,-12c0,0,6,0,19,1c0,0,12,2,25,5L809,1c0,0,-19,-6,-43,-11c0,0,-22,-5,-36,-5c0,0,-73,0,-100,43c0,0,-16,27,-17,75C612,102,594,85,573,69c0,0,-120,-89,-267,-89Z" 
id="f3_1w"
transform="scale(0.001,-0.001)" />

<path d="M17,0L389,412L201,800H376L500,518L742,800H904L554,410L750,0H580L448,303L187,0Z" 
id="f3_2j"
transform="scale(0.001,-0.001)" />

<path d="M456,95c0,0,130,0,213,121c0,0,82,120,82,310c0,0,0,85,-44,131c0,0,-44,46,-125,46c0,0,-98,0,-174,-90c0,0,-76,-90,-108,-245c0,0,-26,-126,16,-199c0,0,42,-74,140,-74ZM436,-20c0,0,-132,0,-195,108l-5,7L217,0H89L316,1097H450L365,683l10,11c0,0,120,129,262,129c0,0,121,0,190,-77c0,0,69,-77,69,-211c0,0,0,-234,-134,-395C762,140,629,-20,436,-20Z" 
id="f3_1x"
transform="scale(0.001,-0.001)" />

<path d="M212,0c0,0,51,270,162,500c0,0,109,222,281,422H57v131H799V934C799,934,623,726,515,498C515,498,408,269,362,0Z" 
id="f1_q"
transform="scale(0.001,-0.001)" />

<path d="M412,-328c0,0,-195,96,-303,284C109,-44,0,142,0,365c0,0,0,232,114,422c0,0,114,191,298,273v-31c0,0,-92,-51,-151,-139c0,0,-59,-88,-88,-223c0,0,-29,-136,-29,-282c0,0,0,-167,27,-301c0,0,26,-133,82,-221c0,0,55,-89,159,-159v-32Z" 
id="f2_c"
transform="scale(0.001,-0.001)" />

<path d="M34,-328v32c0,0,92,50,151,138c0,0,59,88,88,222c0,0,29,135,29,283c0,0,0,165,-27,300c0,0,-26,134,-82,222c0,0,-56,89,-159,160v31c0,0,194,-96,303,-284c0,0,108,-187,108,-410c0,0,0,-232,-114,-422c0,0,-114,-191,-297,-272Z" 
id="f2_d"
transform="scale(0.001,-0.001)" />

<path d="M133,-224v71c0,0,47,8,65,52c0,0,14,33,17,101H133V163H292V27c0,0,0,-114,-36,-172c0,0,-37,-58,-123,-79Z" 
id="f1_f"
transform="scale(0.001,-0.001)" />

<path d="M424,92c0,0,114,0,170,107c0,0,57,108,56,323c0,0,1,216,-56,324c0,0,-56,107,-170,107c0,0,-112,0,-168,-107c0,0,-56,-108,-57,-324c0,0,1,-215,57,-323c0,0,56,-107,168,-107Zm0,-120c0,0,-176,0,-271,142c0,0,-96,143,-96,408c0,0,0,265,96,409c0,0,95,144,271,144c0,0,178,0,273,-144c0,0,96,-144,96,-409c0,0,0,-265,-96,-408c0,0,-95,-142,-273,-142Z" 
id="f1_j"
transform="scale(0.001,-0.001)" />

<path d="M0,-123V985c0,0,0,202,88,304c0,0,88,101,278,126v-33c0,0,-112,-27,-179,-86c0,0,-67,-59,-91,-136c0,0,-24,-76,-24,-252V-123Z" 
id="f2_4u"
transform="scale(0.001,-0.001)" />

<path d="M313,-123V908c0,0,0,111,-11,190c0,0,-11,80,-46,133c0,0,-35,54,-94,93c0,0,-59,39,-141,58v33c0,0,189,-25,276,-126c0,0,88,-101,88,-304V-123Z" 
id="f2_5a"
transform="scale(0.001,-0.001)" />

<path d="M140,-21c0,0,-26,0,-44,17C96,-4,79,13,79,40c0,0,0,19,6,33c0,0,8,20,34,55c0,0,46,60,64,126c0,0,32,114,41,321H190c0,0,-55,0,-81,-18c0,0,-44,-26,-80,-89H0c0,0,42,129,98,178c0,0,43,37,120,37H743V575H562c0,0,-27,-171,-27,-327c0,0,0,-77,27,-110c0,0,27,-33,67,-33c0,0,33,0,56,22c0,0,24,22,31,65h27C743,192,730,74,686,26c0,0,-44,-47,-98,-47c0,0,-58,0,-97,51c0,0,-39,53,-39,198c0,0,0,91,28,347H286c0,0,-23,-390,-56,-494c0,0,-33,-102,-90,-102Z" 
id="f2_2c"
transform="scale(0.001,-0.001)" />

<path d="M45,0V81L673,391L45,704v80L795,412V374L45,0Z" 
id="f2_y"
transform="scale(0.001,-0.001)" />

<path d="M293,-123V191c0,0,0,200,-67,292c0,0,-67,92,-226,135v57c0,0,159,44,226,135c0,0,67,92,67,292v313h73V1088c0,0,0,-108,-23,-189c0,0,-22,-80,-61,-127c0,0,-39,-46,-95,-75c0,0,-56,-28,-153,-51c0,0,97,-21,157,-52c0,0,61,-31,99,-82c0,0,39,-51,57,-125c0,0,19,-74,19,-180V-123Z" 
id="f2_4v"
transform="scale(0.001,-0.001)" />

<path d="M313,-123V203c0,0,0,108,22,188c0,0,23,81,62,127c0,0,39,47,95,76c0,0,56,29,153,50c0,0,-98,22,-158,53c0,0,-60,32,-99,82c0,0,-39,50,-57,124c0,0,-18,74,-18,181v331h72V1099c0,0,0,-200,67,-291c0,0,68,-92,227,-135V616c0,0,-159,-44,-227,-136c0,0,-67,-92,-67,-292V-123Z" 
id="f2_5b"
transform="scale(0.001,-0.001)" />

<path d="M679,-123c0,0,-190,24,-278,124c0,0,-88,101,-88,305V1415h72V383c0,0,0,-111,12,-191c0,0,11,-79,46,-133c0,0,35,-53,94,-91c0,0,59,-39,142,-58v-33Z" 
id="f2_4w"
transform="scale(0.001,-0.001)" />

<path d="M21,-123v33c0,0,111,26,178,86c0,0,67,58,90,134c0,0,24,77,24,253V1415h72V306c0,0,0,-203,-88,-304C297,2,210,-99,21,-123Z" 
id="f2_5c"
transform="scale(0.001,-0.001)" />

<path d="M424,92c0,0,98,0,161,58c0,0,62,58,62,149c0,0,0,92,-62,151c0,0,-63,58,-161,58c0,0,-98,0,-160,-58c0,0,-63,-59,-63,-151c0,0,0,-91,63,-149c0,0,62,-58,160,-58Zm0,533c0,0,82,0,134,46c0,0,52,45,52,118c0,0,0,72,-52,118c0,0,-52,46,-134,46c0,0,-82,0,-134,-46c0,0,-52,-46,-52,-118c0,0,0,-73,52,-119c0,0,52,-45,134,-45Zm0,-653c0,0,-165,0,-265,90C159,62,59,154,59,305c0,0,0,134,100,216c0,0,35,28,78,47c0,0,-27,15,-52,33c0,0,-90,70,-90,185c0,0,0,130,90,209c0,0,91,80,239,80c0,0,148,0,238,-80c0,0,91,-79,91,-209c0,0,0,-115,-91,-185c0,0,-24,-19,-52,-32c0,0,44,-20,79,-49c0,0,101,-81,101,-215c0,0,0,-151,-101,-243c0,0,-100,-90,-265,-90Z" 
id="f1_r"
transform="scale(0.001,-0.001)" />

<path d="M398,-20c0,0,-133,0,-209,72c0,0,-76,74,-76,202v3c0,0,0,27,4,60c0,0,4,33,10,63c0,0,43,208,168,326c0,0,126,117,306,117c0,0,131,0,192,-75c0,0,49,-61,50,-168l-3,-52H710c0,0,4,87,-33,131c0,0,-37,45,-113,45c0,0,-110,0,-184,-81c0,0,-75,-82,-107,-238c0,0,-6,-28,-9,-56c0,0,-3,-28,-3,-50c0,0,0,-88,43,-136c0,0,43,-48,121,-48c0,0,76,0,137,49c0,0,61,48,92,136H788C788,280,737,138,633,58c0,0,-103,-78,-235,-78Z" 
id="f3_1y"
transform="scale(0.001,-0.001)" />

<path d="M248,0L21,799H169L322,163L478,799H627L788,158L950,799h133L857,0H713L548,624L392,0Z" 
id="f1_2i"
transform="scale(0.001,-0.001)" />

<path d="M86,-226l16,71c0,0,47,8,74,52c0,0,21,34,38,103H135l18,82l17,81H329L295,11c0,0,-23,-106,-70,-158c0,0,-45,-52,-139,-79Z" 
id="f3_f"
transform="scale(0.001,-0.001)" />

<path d="M73,12V133L664,384L73,636V757L819,440V329L73,12Z" 
id="f1_x"
transform="scale(0.001,-0.001)" />

<path d="M419,483c0,0,93,0,152,66c0,0,59,66,59,169c0,0,0,103,-59,169c0,0,-59,65,-152,65c0,0,-94,0,-153,-65c0,0,-59,-66,-59,-169c0,0,0,-103,59,-169c0,0,59,-66,153,-66ZM397,-28c0,0,-143,0,-227,75c0,0,-85,77,-91,211H209c0,0,8,-83,57,-128c0,0,49,-45,131,-45c0,0,121,0,186,135c0,0,48,101,62,265C645,485,545,362,397,362c0,0,-150,0,-241,98c0,0,-91,98,-91,258c0,0,0,160,99,258c0,0,99,98,262,98c0,0,173,0,266,-123c0,0,94,-123,94,-349c0,0,0,-303,-101,-467C685,135,583,-28,397,-28Z" 
id="f1_s"
transform="scale(0.001,-0.001)" />

<path d="M528,-29c0,0,-215,0,-336,99C192,70,75,170,75,342v8H211c0,0,4,-119,87,-184c0,0,83,-65,231,-65c0,0,136,0,207,47c0,0,71,47,71,138c0,0,0,79,-47,118c0,0,-47,37,-187,71L382,520c0,0,-145,34,-207,96c0,0,-62,61,-62,169c0,0,0,158,107,250c0,0,107,92,289,92c0,0,185,0,295,-92c0,0,110,-93,117,-256H784c0,0,-9,104,-81,161c0,0,-72,56,-194,56c0,0,-125,0,-190,-48c0,0,-65,-49,-65,-142c0,0,0,-64,43,-95c0,0,43,-32,174,-62L662,603c0,0,154,-37,220,-108c0,0,65,-71,65,-201c0,0,0,-150,-113,-237c0,0,-113,-86,-306,-86Z" 
id="f1_1i"
transform="scale(0.001,-0.001)" />

<path d="M132,0V687H22V799H132V935c0,0,0,88,52,133c0,0,52,45,157,45l59,-3V989l-53,2c0,0,-39,0,-60,-24c0,0,-21,-25,-21,-71V799H400V687H266V0Z" 
id="f1_21"
transform="scale(0.001,-0.001)" />

<path d="M365,-315c0,0,-136,187,-199,359c0,0,-62,172,-62,359c0,0,0,186,62,358c0,0,63,172,199,360h92c0,0,-110,-192,-160,-365c0,0,-51,-172,-51,-353c0,0,0,-183,51,-355c0,0,50,-172,160,-363Z" 
id="f1_b"
transform="scale(0.001,-0.001)" />

<path d="M52,-315c0,0,109,192,160,363c0,0,50,173,50,354c0,0,0,183,-50,355c0,0,-51,173,-160,364h92c0,0,135,-188,198,-360c0,0,63,-172,63,-359c0,0,0,-187,-63,-359c0,0,-63,-171,-198,-358Z" 
id="f1_c"
transform="scale(0.001,-0.001)" />

<path d="M60,174V286H832V174Zm0,309V595H832V483Z" 
id="f1_w"
transform="scale(0.001,-0.001)" />

<path d="M17,0L301,412L32,799H205L389,514L574,799H740L471,410L749,0H581L382,305L186,0Z" 
id="f1_2j"
transform="scale(0.001,-0.001)" />

<path d="M436,95c0,0,105,0,160,79c0,0,54,80,54,232c0,0,0,150,-52,222c0,0,-52,72,-161,72c0,0,-112,0,-163,-81c0,0,-51,-82,-51,-258c0,0,0,-127,55,-197c0,0,55,-69,158,-69ZM89,-315V799H216V685l7,10c0,0,86,127,228,127c0,0,156,0,248,-108c0,0,91,-107,91,-291c0,0,0,-208,-92,-326C698,97,606,-20,442,-20c0,0,-135,0,-215,102l-4,6V-315Z" 
id="f1_2b"
transform="scale(0.001,-0.001)" />

<path d="M99,0V799H226V680l28,36c0,0,90,106,215,106c0,0,107,0,171,-63c0,0,28,-28,44,-65l21,28c0,0,87,100,208,100c0,0,125,0,194,-68c0,0,68,-68,68,-194V0H1041V515c0,0,0,91,-37,138c0,0,-38,47,-110,47c0,0,-87,0,-139,-68c0,0,-52,-68,-52,-183V0H569V547c0,0,0,75,-34,114c0,0,-34,39,-99,39c0,0,-89,0,-146,-76c0,0,-57,-76,-57,-196V0Z" 
id="f1_28"
transform="scale(0.001,-0.001)" />

<path d="M139,0V1097H287V0Z" 
id="f1_18"
transform="scale(0.001,-0.001)" />

<path d="M390,-1V329H60V441H390V771H503V441H833V329H503V-1Z" 
id="f1_e"
transform="scale(0.001,-0.001)" />

<path d="M0,-253v33c0,0,76,25,118,78c0,0,42,53,42,112c0,0,0,16,-6,24c0,0,-5,6,-14,6c0,0,-5,0,-32,-13c0,0,-14,-7,-30,-7c0,0,-35,0,-56,21C22,1,0,23,0,61c0,0,0,36,28,62c0,0,28,27,68,27c0,0,49,0,88,-43c0,0,38,-43,38,-113c0,0,0,-77,-53,-143c0,0,-54,-66,-169,-104Z" 
id="f2_g"
transform="scale(0.001,-0.001)" />

<path d="M393,0l68,330H130l23,113H484l68,330H665L596,443H927L903,330H573L505,0Z" 
id="f3_e"
transform="scale(0.001,-0.001)" />

<path d="M436,95c0,0,105,0,160,79c0,0,54,80,54,232c0,0,0,150,-52,222c0,0,-52,72,-161,72c0,0,-112,0,-163,-81c0,0,-51,-82,-51,-258c0,0,0,-127,55,-197c0,0,55,-69,158,-69Zm6,-115c0,0,-135,0,-215,102L215,98V0H89V1097H223V695c0,0,87,127,225,127c1,0,2,0,2,0c0,0,157,0,249,-108c0,0,91,-107,91,-291c0,0,0,-208,-92,-326C698,97,606,-20,442,-20Z" 
id="f1_1x"
transform="scale(0.001,-0.001)" />

<path d="M418,95c0,0,98,0,158,73c0,0,59,73,59,193c0,0,0,170,-54,254c0,0,-54,85,-163,85c0,0,-113,0,-165,-72c0,0,-52,-71,-52,-227c0,0,0,-147,57,-227c0,0,56,-79,160,-79ZM394,-336c0,0,-136,0,-216,62c0,0,-79,63,-96,182H219c0,0,12,-64,57,-98c0,0,45,-35,116,-35c0,0,116,0,176,73c0,0,61,73,61,211V85l-1,-1C628,84,545,-20,412,-20c0,0,-161,0,-256,118c0,0,-94,120,-94,324c0,0,0,179,93,290c0,0,93,110,244,110c0,0,144,0,228,-124l10,-14V799H763V59c0,0,-1,-201,-91,-298c0,0,-91,-97,-278,-97Z" 
id="f1_22"
transform="scale(0.001,-0.001)" />

<path d="M344,0V155H494V0Zm9,286c0,0,-3,110,31,187c0,0,33,78,116,152c0,0,59,52,85,97c0,0,25,45,25,98c0,0,0,81,-48,130c0,0,-48,47,-130,47c0,0,-102,0,-152,-55c0,0,-51,-56,-63,-181H86c0,0,8,170,98,262c0,0,91,93,248,93c0,0,143,0,232,-82c0,0,88,-82,88,-214c0,0,0,-77,-38,-145c0,0,-38,-67,-128,-149c0,0,-58,-52,-81,-107c0,0,-23,-55,-21,-133Z" 
id="f1_y"
transform="scale(0.001,-0.001)" />

<path d="M693,499L573,830L462,499ZM-39,0c0,0,33,42,61,97c0,0,30,55,71,148l314,761c0,0,22,51,38,98c0,0,15,47,17,63H721c0,0,2,-16,18,-63c0,0,15,-47,37,-98L1091,245c0,0,41,-95,70,-150c0,0,30,-55,60,-95H849c0,0,3,25,-3,55c0,0,-6,30,-24,80L765,295H393L340,135c0,0,-17,-50,-22,-80c0,0,-5,-30,-2,-55Z" 
id="f4_10"
transform="scale(0.001,-0.001)" />

<path d="M108,0c0,0,22,54,31,110c0,0,10,55,10,135V985L-5,1167H418c0,0,21,-44,54,-99c0,0,34,-55,96,-146L857,495V922c0,0,0,81,-9,136c0,0,-9,55,-32,109h378c0,0,-23,-54,-32,-109c0,0,-9,-55,-9,-136V351c0,0,0,-76,11,-178c0,0,11,-101,27,-173H845c0,0,-7,25,-28,67c0,0,-21,42,-45,78L444,628V245c0,0,0,-80,9,-135c0,0,10,-56,32,-110Z" 
id="f4_1d"
transform="scale(0.001,-0.001)" />

<path d="M367,-20c0,0,-85,0,-142,12C225,-8,167,2,83,35V332c0,0,41,-55,107,-90c0,0,66,-35,130,-35c0,0,51,0,84,31c0,0,32,31,32,81c0,0,0,49,-23,86c0,0,-22,37,-82,83c0,0,-126,98,-184,181c0,0,-57,82,-57,165c0,0,0,155,106,253c0,0,106,98,272,98c0,0,62,0,133,-13c0,0,71,-13,120,-33V867c0,0,-59,49,-104,70c0,0,-46,20,-94,20c0,0,-47,0,-76,-24c0,0,-29,-25,-29,-63c0,0,0,-41,20,-73c0,0,21,-31,75,-73c0,0,130,-101,189,-189c0,0,59,-87,59,-180c0,0,0,-165,-110,-270C651,85,541,-20,367,-20Z" 
id="f4_1i"
transform="scale(0.001,-0.001)" />

<path d="M324,0L78,922c0,0,-23,85,-44,140c0,0,-22,55,-50,105H376c0,0,-7,-56,-7,-99c0,0,1,-42,11,-89L479,513L610,998c0,0,11,42,21,91c0,0,10,49,13,78H861c0,0,4,-36,12,-85c0,0,9,-50,18,-84L1021,492l115,540c0,0,8,33,6,63c0,0,-1,31,-12,72h378c0,0,-30,-50,-52,-105c0,0,-21,-56,-45,-140L1166,0H925L741,597L565,0Z" 
id="f4_1m"
transform="scale(0.001,-0.001)" />

<path d="M102,0c0,0,22,54,31,110c0,0,10,55,10,135V922c0,0,0,81,-10,136c0,0,-9,55,-31,109H823L766,1041L709,913c0,0,-42,20,-137,36c0,0,-62,9,-121,13V697H798L728,569L657,441c0,0,-45,21,-131,36c0,0,-38,8,-75,11V206c0,0,117,6,201,22c0,0,126,24,239,84L827,156L762,0Z" 
id="f4_14"
transform="scale(0.001,-0.001)" />

<path d="M452,645c0,0,85,0,139,47c0,0,54,47,54,121c0,0,0,66,-51,107c0,0,-51,42,-132,42H442V645ZM93,0c0,0,22,54,32,110c0,0,9,55,9,135V922c0,0,0,81,-9,136c0,0,-10,55,-32,109H498c0,0,215,0,332,-90c0,0,117,-90,117,-256c0,0,0,-159,-129,-253c0,0,-46,-34,-103,-54L902,246c0,0,57,-82,107,-137c0,0,50,-55,115,-109H803c0,0,-30,0,-104,83c0,0,-73,83,-149,202L442,461V246c0,0,0,-81,9,-136c0,0,10,-56,32,-110Z" 
id="f4_1h"
transform="scale(0.001,-0.001)" />

<path d="M511,373V863L169,383l-7,-10ZM511,0V258H38V383l496,691H646V373H799V258H646V0Z" 
id="f1_n"
transform="scale(0.001,-0.001)" />

<path d="M412,-18c0,0,-144,0,-239,85c0,0,-95,86,-108,222l133,18c0,0,24,-114,79,-164c0,0,55,-50,135,-50c0,0,96,0,161,65c0,0,65,66,65,163c0,0,0,92,-61,152c0,0,-60,60,-153,60c0,0,-38,0,-95,-15l15,119c0,0,13,-2,21,-2c0,0,86,0,155,45c0,0,69,44,69,137c0,0,0,74,-50,122c0,0,-50,49,-129,49c0,0,-79,0,-131,-50c0,0,-52,-49,-67,-147L78,815c0,0,25,135,112,209c0,0,87,74,217,74c0,0,89,0,164,-38c0,0,76,-39,116,-105c0,0,40,-66,40,-141c0,0,0,-70,-39,-129c0,0,-38,-58,-112,-92c0,0,97,-22,151,-93c0,0,53,-70,53,-176c0,0,0,-143,-104,-243c0,0,-105,-99,-264,-99Z" 
id="f5_n"
transform="scale(0.001,-0.001)" />

<path d="M125,0V1051H268V115H799V0Z" 
id="f0_1c"
transform="scale(0.001,-0.001)" />

<path d="M106,0V620c0,0,0,85,-5,188H228c0,0,6,-138,6,-165h3c0,0,32,103,74,141c0,0,42,38,118,38c0,0,27,0,54,-7V692c0,0,-26,7,-71,7c0,0,-84,0,-128,-72c0,0,-44,-72,-44,-206V0Z" 
id="f0_2e"
transform="scale(0.001,-0.001)" />

<path d="M606,-14c0,0,-164,0,-284,65c0,0,-119,66,-182,189c0,0,-63,123,-63,291c0,0,0,255,137,396c0,0,137,140,386,140c0,0,174,0,283,-59c0,0,109,-59,168,-189L915,779c0,0,-44,90,-123,131c0,0,-79,41,-196,41c0,0,-182,0,-278,-110c0,0,-96,-110,-96,-310c0,0,0,-200,102,-315c0,0,102,-115,282,-115c0,0,103,0,193,31c0,0,89,31,144,85V407H629V526h445V164c0,0,-83,-85,-205,-132c0,0,-121,-46,-263,-46Z" 
id="f0_17"
transform="scale(0.001,-0.001)" />

<path d="M355,-14c0,0,-133,0,-194,65c0,0,-62,66,-62,219V808H234V296c0,0,0,-80,16,-124c0,0,16,-44,50,-64c0,0,34,-19,101,-19c0,0,97,0,153,66c0,0,55,67,55,185V808H744V172c0,0,0,-141,4,-172H621c0,0,0,4,-1,20c0,0,-1,17,-2,38c0,0,-1,21,-3,80h-2C613,138,567,55,506,20c0,0,-61,-34,-151,-34Z" 
id="f0_2h"
transform="scale(0.001,-0.001)" />

<path d="M395,89c0,0,115,0,166,79c0,0,51,79,51,246c0,0,0,160,-51,235c0,0,-51,75,-164,75c0,0,-102,0,-147,-75c0,0,-45,-75,-45,-244c0,0,0,-170,45,-243c0,0,45,-73,145,-73ZM361,-14c0,0,-153,0,-225,102c0,0,-72,103,-72,312c0,0,0,422,297,422c0,0,92,0,153,-33c0,0,61,-34,98,-107h2l-2,90v335H747V166c0,0,0,-126,4,-166H623c0,0,-2,12,-5,55c0,0,-3,44,-3,75h-3c0,0,-37,-78,-98,-111c0,0,-62,-33,-153,-33Z" 
id="f0_20"
transform="scale(0.001,-0.001)" />

<path d="M140,0V163H285V0Z" 
id="f0_i"
transform="scale(0.001,-0.001)" />


</defs>
</svg>