<?xml version="1.0" encoding="UTF-8" standalone="no"?>
<!DOCTYPE svg PUBLIC "-//W3C//DTD SVG 1.1//EN"
"http://www.w3.org/Graphics/SVG/1.1/DTD/svg11.dtd">
<svg viewBox="0 0 734 1106" version="1.1" xmlns="http://www.w3.org/2000/svg" xmlns:xlink="http://www.w3.org/1999/xlink">
<defs>
<style type="text/css"><![CDATA[
.g0_85{
fill: none;
stroke: #000000;
stroke-width: 1.0513556;
stroke-linecap: round;
stroke-linejoin: miter;
}
.g1_85{
fill: none;
stroke: #000000;
stroke-width: 1.0429528;
stroke-linecap: round;
stroke-linejoin: miter;
}
.g2_85{
fill: none;
stroke: #000000;
stroke-width: 1.0483305;
stroke-linecap: round;
stroke-linejoin: miter;
}
.g3_85{
fill: none;
stroke: #000000;
stroke-width: 0.77317774;
stroke-linecap: round;
stroke-linejoin: miter;
}
.g4_85{
fill: none;
stroke: #000000;
stroke-width: 0.7572889;
stroke-linecap: round;
stroke-linejoin: miter;
}
.g5_85{
fill: none;
stroke: #000000;
stroke-width: 0.7653555;
stroke-linecap: round;
stroke-linejoin: miter;
}
.g6_85{
fill: none;
stroke: #000000;
stroke-width: 0.38194445;
stroke-linecap: round;
stroke-linejoin: miter;
}
.g7_85{
fill: none;
stroke: #000000;
stroke-width: 0.7638889;
stroke-linecap: round;
stroke-linejoin: miter;
}
]]></style>
</defs>
<g fill="#D4D4D4" fill-opacity="0.56" >
<use xlink:href="#f0_1f" transform="matrix(50.9,-50.9,50.9,50.9,122.6,924.1)" />
<use xlink:href="#f0_2a" transform="matrix(50.9,-50.9,50.9,50.9,183.2,863.6)" />
<use xlink:href="#f0_28" transform="matrix(50.9,-50.9,50.9,50.9,226.4,820.3)" />
<use xlink:href="#f0_25" transform="matrix(50.9,-50.9,50.9,50.9,243.7,803.1)" />
<use xlink:href="#f0_2a" transform="matrix(50.9,-50.9,50.9,50.9,260.9,785.8)" />
<use xlink:href="#f0_21" transform="matrix(50.9,-50.9,50.9,50.9,304.2,742.5)" />
<use xlink:href="#f0_2k" transform="matrix(50.9,-50.9,50.9,50.9,347.4,699.3)" />
<use xlink:href="#f0_1x" transform="matrix(50.9,-50.9,50.9,50.9,386.3,660.4)" />
<use xlink:href="#f0_29" transform="matrix(50.9,-50.9,50.9,50.9,429.6,617.2)" />
<use xlink:href="#f0_2c" transform="matrix(50.9,-50.9,50.9,50.9,494.4,552.4)" />
<use xlink:href="#f0_2b" transform="matrix(50.9,-50.9,50.9,50.9,537.6,509.1)" />
<use xlink:href="#f0_25" transform="matrix(50.9,-50.9,50.9,50.9,580.8,465.9)" />
<use xlink:href="#f0_2a" transform="matrix(50.9,-50.9,50.9,50.9,598.1,448.6)" />
<use xlink:href="#f0_2g" transform="matrix(50.9,-50.9,50.9,50.9,641.4,405.4)" />
</g>
<g fill="#000000" >
<use xlink:href="#f1_1b" transform="matrix(12,0,0,12,94.8,105.7)" />
<use xlink:href="#f1_1e" transform="matrix(12,0,0,12,105.3,105.7)" />
<use xlink:href="#f1_1d" transform="matrix(12,0,0,12,121.8,105.7)" />
<use xlink:href="#f1_16" transform="matrix(12,0,0,12,137.4,105.7)" />
<use xlink:href="#f1_10" transform="matrix(12,0,0,12,161.8,105.7)" />
<use xlink:href="#f1_1d" transform="matrix(12,0,0,12,176,105.7)" />
<use xlink:href="#f1_1i" transform="matrix(12,0,0,12,191.6,105.7)" />
<use xlink:href="#f1_1m" transform="matrix(12,0,0,12,201.4,105.7)" />
<use xlink:href="#f1_14" transform="matrix(12,0,0,12,219.3,105.7)" />
<use xlink:href="#f1_1h" transform="matrix(12,0,0,12,230.4,105.7)" />
<use xlink:href="#f1_1j" transform="matrix(12,0,0,12,253.4,105.7)" />
<use xlink:href="#f1_1o" transform="matrix(12,0,0,12,264.9,105.7)" />
<use xlink:href="#f1_1f" transform="matrix(12,0,0,12,277,105.7)" />
<use xlink:href="#f1_14" transform="matrix(12,0,0,12,288.9,105.7)" />
<use xlink:href="#f1_1g" transform="matrix(12,0,0,12,310.3,105.7)" />
<use xlink:href="#f1_1k" transform="matrix(12,0,0,12,326.8,105.7)" />
<use xlink:href="#f1_14" transform="matrix(12,0,0,12,341.7,105.7)" />
<use xlink:href="#f1_1i" transform="matrix(12,0,0,12,352.9,105.7)" />
<use xlink:href="#f1_1j" transform="matrix(12,0,0,12,362.7,105.7)" />
<use xlink:href="#f1_18" transform="matrix(12,0,0,12,374.2,105.7)" />
<use xlink:href="#f1_1e" transform="matrix(12,0,0,12,381.3,105.7)" />
<use xlink:href="#f1_1d" transform="matrix(12,0,0,12,397.8,105.7)" />
<use xlink:href="#f1_1i" transform="matrix(12,0,0,12,413.4,105.7)" />
<use xlink:href="#f1_b" transform="matrix(12,0,0,12,433.4,105.7)" />
<use xlink:href="#f1_p" transform="matrix(12,0,0,12,442.6,105.7)" />
<use xlink:href="#f1_1c" transform="matrix(12,0,0,12,464.8,105.7)" />
<use xlink:href="#f1_10" transform="matrix(12,0,0,12,482.7,105.7)" />
<use xlink:href="#f1_1h" transform="matrix(12,0,0,12,496.9,105.7)" />
<use xlink:href="#f1_1a" transform="matrix(12,0,0,12,509.8,105.7)" />
<use xlink:href="#f1_1i" transform="matrix(12,0,0,12,523.3,105.7)" />
<use xlink:href="#f1_14" transform="matrix(12,0,0,12,543.4,105.7)" />
<use xlink:href="#f1_10" transform="matrix(12,0,0,12,554.5,105.7)" />
<use xlink:href="#f1_12" transform="matrix(12,0,0,12,568.7,105.7)" />
<use xlink:href="#f1_17" transform="matrix(12,0,0,12,581.9,105.7)" />
<use xlink:href="#f1_c" transform="matrix(12,0,0,12,596.8,105.7)" />
<use xlink:href="#f2_k" transform="matrix(10.4,0,0,10.4,75.9,145)" />
<use xlink:href="#f2_q" transform="matrix(10.4,0,0,10.4,84.8,145)" />
<use xlink:href="#f2_h" transform="matrix(10.4,0,0,10.4,93.9,145)" />
<use xlink:href="#f2_1i" transform="matrix(10.4,0,0,10.4,116.6,145)" />
<use xlink:href="#f2_2a" transform="matrix(10.4,0,0,10.4,127.2,145)" />
<use xlink:href="#f2_27" transform="matrix(10.4,0,0,10.4,136.1,145)" />
<use xlink:href="#f2_2h" transform="matrix(10.4,0,0,10.4,139.6,145)" />
<use xlink:href="#f2_20" transform="matrix(10.4,0,0,10.4,147.6,145)" />
<use xlink:href="#f2_2f" transform="matrix(10.4,0,0,10.4,164,145)" />
<use xlink:href="#f2_23" transform="matrix(10.4,0,0,10.4,168.4,145)" />
<use xlink:href="#f2_20" transform="matrix(10.4,0,0,10.4,177.3,145)" />
<use xlink:href="#f2_21" transform="matrix(10.4,0,0,10.4,193.7,145)" />
<use xlink:href="#f2_2a" transform="matrix(10.4,0,0,10.4,198.1,145)" />
<use xlink:href="#f2_27" transform="matrix(10.4,0,0,10.4,207,145)" />
<use xlink:href="#f2_27" transform="matrix(10.4,0,0,10.4,210.5,145)" />
<use xlink:href="#f2_2a" transform="matrix(10.4,0,0,10.4,214.1,145)" />
<use xlink:href="#f2_2i" transform="matrix(10.4,0,0,10.4,222.9,145)" />
<use xlink:href="#f2_24" transform="matrix(10.4,0,0,10.4,234.4,145)" />
<use xlink:href="#f2_29" transform="matrix(10.4,0,0,10.4,238,145)" />
<use xlink:href="#f2_22" transform="matrix(10.4,0,0,10.4,246.9,145)" />
<use xlink:href="#f2_1z" transform="matrix(10.4,0,0,10.4,263.4,145)" />
<use xlink:href="#f2_24" transform="matrix(10.4,0,0,10.4,272.3,145)" />
<use xlink:href="#f2_21" transform="matrix(10.4,0,0,10.4,275.8,145)" />
<use xlink:href="#f2_21" transform="matrix(10.4,0,0,10.4,280.3,145)" />
<use xlink:href="#f2_20" transform="matrix(10.4,0,0,10.4,284.7,145)" />
<use xlink:href="#f2_2d" transform="matrix(10.4,0,0,10.4,293.6,145)" />
<use xlink:href="#f2_20" transform="matrix(10.4,0,0,10.4,298.9,145)" />
<use xlink:href="#f2_29" transform="matrix(10.4,0,0,10.4,307.8,145)" />
<use xlink:href="#f2_2f" transform="matrix(10.4,0,0,10.4,316.6,145)" />
<use xlink:href="#f2_24" transform="matrix(10.4,0,0,10.4,321.1,145)" />
<use xlink:href="#f2_1w" transform="matrix(10.4,0,0,10.4,324.6,145)" />
<use xlink:href="#f2_27" transform="matrix(10.4,0,0,10.4,333.5,145)" />
<use xlink:href="#f2_20" transform="matrix(10.4,0,0,10.4,344.5,145)" />
<use xlink:href="#f2_2c" transform="matrix(10.4,0,0,10.4,353.4,145)" />
<use xlink:href="#f2_2g" transform="matrix(10.4,0,0,10.4,362.3,145)" />
<use xlink:href="#f2_1w" transform="matrix(10.4,0,0,10.4,371.1,145)" />
<use xlink:href="#f2_2f" transform="matrix(10.4,0,0,10.4,380,145)" />
<use xlink:href="#f2_24" transform="matrix(10.4,0,0,10.4,384.4,145)" />
<use xlink:href="#f2_2a" transform="matrix(10.4,0,0,10.4,388,145)" />
<use xlink:href="#f2_29" transform="matrix(10.4,0,0,10.4,396.8,145)" />
<use xlink:href="#f2_2e" transform="matrix(10.4,0,0,10.4,405.7,145)" />
<use xlink:href="#f2_t" transform="matrix(10.4,0,0,10.4,421.2,145)" />
<use xlink:href="#f2_b" transform="matrix(10.4,0,0,10.4,139.1,202)" />
<use xlink:href="#f2_24" transform="matrix(10.4,0,0,10.4,144.5,202)" />
<use xlink:href="#f2_c" transform="matrix(10.4,0,0,10.4,148,202)" />
<use xlink:href="#f3_c" transform="matrix(10.5,0,0,14.6,173.9,199.6)" />
<use xlink:href="#f3_d" transform="matrix(10.5,0,0,14.6,269.4,199.6)" />
</g>
<path d="M326.3,194.6h12.3" class="g0_85" />
<g fill="#000000" >
<use xlink:href="#f3_c" transform="matrix(10.5,0,0,14.6,373.3,199.6)" />
<use xlink:href="#f3_d" transform="matrix(10.5,0,0,14.6,469.1,199.6)" />
</g>
<path d="M531.1,194.6h12.3" class="g0_85" />
<g fill="#000000" >
<use xlink:href="#f2_2e" transform="matrix(10.5,0,0,10.5,292.9,198.9)" />
<use xlink:href="#f2_24" transform="matrix(10.5,0,0,10.5,300.9,198.9)" />
<use xlink:href="#f2_29" transform="matrix(10.5,0,0,10.5,304.5,198.9)" />
<use xlink:href="#f2_1y" transform="matrix(10.5,0,0,10.5,492.5,198.9)" />
<use xlink:href="#f2_2a" transform="matrix(10.5,0,0,10.5,500.6,198.9)" />
<use xlink:href="#f2_2e" transform="matrix(10.5,0,0,10.5,509.5,198.9)" />
<use xlink:href="#f4_2k" transform="matrix(10.5,0,0,10.5,327.6,188.4)" />
<use xlink:href="#f4_2k" transform="matrix(10.5,0,0,10.5,532.5,188.4)" />
<use xlink:href="#f4_2j" transform="matrix(10.5,0,0,10.5,180.8,198.9)" />
<use xlink:href="#f4_1z" transform="matrix(10.5,0,0,10.5,194,198.9)" />
<use xlink:href="#f4_2k" transform="matrix(10.5,0,0,10.5,202.9,198.9)" />
<use xlink:href="#f4_2k" transform="matrix(10.5,0,0,10.5,235.4,198.9)" />
<use xlink:href="#f4_1z" transform="matrix(10.5,0,0,10.5,248.8,198.9)" />
<use xlink:href="#f4_2j" transform="matrix(10.5,0,0,10.5,257.8,198.9)" />
<use xlink:href="#f4_2k" transform="matrix(10.5,0,0,10.5,278.4,198.9)" />
<use xlink:href="#f4_2k" transform="matrix(10.5,0,0,10.5,380.2,198.9)" />
<use xlink:href="#f4_1z" transform="matrix(10.5,0,0,10.5,393.6,198.9)" />
<use xlink:href="#f4_2j" transform="matrix(10.5,0,0,10.5,402.6,198.9)" />
<use xlink:href="#f4_2j" transform="matrix(10.5,0,0,10.5,435,198.9)" />
<use xlink:href="#f4_1z" transform="matrix(10.5,0,0,10.5,448.2,198.9)" />
<use xlink:href="#f4_2k" transform="matrix(10.5,0,0,10.5,457.2,198.9)" />
<use xlink:href="#f4_2j" transform="matrix(10.5,0,0,10.5,478.1,198.9)" />
<use xlink:href="#f4_2j" transform="matrix(10.5,0,0,10.5,327.7,211.3)" />
<use xlink:href="#f4_2j" transform="matrix(10.5,0,0,10.5,532.6,211.3)" />
<use xlink:href="#f3_4o" transform="matrix(10.5,0,0,10.5,316.6,189.2)" />
<use xlink:href="#f3_54" transform="matrix(10.5,0,0,10.5,340.3,189.2)" />
<use xlink:href="#f3_4o" transform="matrix(10.5,0,0,10.5,521.5,189.2)" />
<use xlink:href="#f3_54" transform="matrix(10.5,0,0,10.5,545.2,189.2)" />
<use xlink:href="#f3_h" transform="matrix(10.5,0,0,10.5,219.8,198.9)" />
<use xlink:href="#f3_x" transform="matrix(10.5,0,0,10.5,356.5,198.9)" />
<use xlink:href="#f3_f" transform="matrix(10.5,0,0,10.5,419.4,198.9)" />
<use xlink:href="#f3_4p" transform="matrix(10.5,0,0,10.5,316.6,201.4)" />
<use xlink:href="#f3_55" transform="matrix(10.5,0,0,10.5,340.3,201.4)" />
<use xlink:href="#f3_4p" transform="matrix(10.5,0,0,10.5,521.5,201.4)" />
<use xlink:href="#f3_55" transform="matrix(10.5,0,0,10.5,545.2,201.4)" />
<use xlink:href="#f3_4q" transform="matrix(10.5,0,0,10.5,316.6,208)" />
<use xlink:href="#f3_56" transform="matrix(10.5,0,0,10.5,340.3,208)" />
<use xlink:href="#f3_4q" transform="matrix(10.5,0,0,10.5,521.5,208)" />
<use xlink:href="#f3_56" transform="matrix(10.5,0,0,10.5,545.2,208)" />
<use xlink:href="#f2_b" transform="matrix(10.4,0,0,10.4,135.5,268.5)" />
<use xlink:href="#f2_24" transform="matrix(10.4,0,0,10.4,140.8,268.5)" />
<use xlink:href="#f2_24" transform="matrix(10.4,0,0,10.4,144.3,268.5)" />
<use xlink:href="#f2_c" transform="matrix(10.4,0,0,10.4,147.9,268.5)" />
<use xlink:href="#f2_m" transform="matrix(10.4,0,0,10.4,171.6,268.5)" />
<use xlink:href="#f4_20" transform="matrix(10.4,0,0,10.4,180.4,268.5)" />
<use xlink:href="#f4_2j" transform="matrix(7.4,0,0,7.4,189.2,263.2)" />
<use xlink:href="#f2_2f" transform="matrix(10.4,0,0,10.4,201.7,268.5)" />
<use xlink:href="#f2_1w" transform="matrix(10.4,0,0,10.4,206.1,268.5)" />
<use xlink:href="#f2_29" transform="matrix(10.4,0,0,10.4,215,268.5)" />
<use xlink:href="#f4_2k" transform="matrix(10.4,0,0,10.4,230.6,268.5)" />
<use xlink:href="#f4_1z" transform="matrix(10.4,0,0,10.4,245.5,268.5)" />
<use xlink:href="#f4_2j" transform="matrix(10.4,0,0,10.4,254.3,268.5)" />
<use xlink:href="#f2_e" transform="matrix(10.4,0,0,10.4,269.1,268.5)" />
<use xlink:href="#f2_b" transform="matrix(10.4,0,0,10.4,285.4,268.5)" />
<use xlink:href="#f2_k" transform="matrix(10.4,0,0,10.4,290.7,268.5)" />
<use xlink:href="#f2_99" transform="matrix(10.4,0,0,10.4,306.4,268.5)" />
<use xlink:href="#f4_20" transform="matrix(10.4,0,0,10.4,322.1,268.5)" />
<use xlink:href="#f4_2j" transform="matrix(7.4,0,0,7.4,330.9,263.2)" />
<use xlink:href="#f2_c" transform="matrix(10.4,0,0,10.4,336.6,268.5)" />
<use xlink:href="#f2_2e" transform="matrix(10.4,0,0,10.4,348.9,268.5)" />
<use xlink:href="#f2_20" transform="matrix(10.4,0,0,10.4,356.8,268.5)" />
<use xlink:href="#f2_1y" transform="matrix(10.4,0,0,10.4,365.7,268.5)" />
<use xlink:href="#f2_l" transform="matrix(7.4,0,0,7.4,373.8,263.2)" />
<use xlink:href="#f4_2k" transform="matrix(10.4,0,0,10.4,386.8,268.5)" />
<use xlink:href="#f4_1z" transform="matrix(10.4,0,0,10.4,401.9,268.5)" />
<use xlink:href="#f4_2k" transform="matrix(10.4,0,0,10.4,410.7,268.5)" />
<use xlink:href="#f2_w" transform="matrix(10.4,0,0,10.4,425.5,268.5)" />
<use xlink:href="#f2_j" transform="matrix(10.4,0,0,10.4,441.8,268.5)" />
<use xlink:href="#f2_22" transform="matrix(10.4,0,0,10.4,457.4,268.5)" />
<use xlink:href="#f2_24" transform="matrix(10.4,0,0,10.4,466.3,268.5)" />
<use xlink:href="#f2_2h" transform="matrix(10.4,0,0,10.4,469.8,268.5)" />
<use xlink:href="#f2_20" transform="matrix(10.4,0,0,10.4,477.8,268.5)" />
<use xlink:href="#f2_29" transform="matrix(10.4,0,0,10.4,486.7,268.5)" />
<use xlink:href="#f2_2f" transform="matrix(10.4,0,0,10.4,502.5,268.5)" />
<use xlink:href="#f2_23" transform="matrix(10.4,0,0,10.4,507,268.5)" />
<use xlink:href="#f2_1w" transform="matrix(10.4,0,0,10.4,515.8,268.5)" />
<use xlink:href="#f2_2f" transform="matrix(10.4,0,0,10.4,524.7,268.5)" />
</g>
<path d="M574.1,264.2h11.3" class="g1_85" />
<g fill="#000000" >
<use xlink:href="#f2_f" transform="matrix(10.4,0,0,10.4,589,268.4)" />
<use xlink:href="#f2_n" transform="matrix(10.4,0,0,10.4,575.4,280.6)" />
<use xlink:href="#f4_2k" transform="matrix(10.4,0,0,10.4,538.4,268.4)" />
<use xlink:href="#f3_2c" transform="matrix(10.4,0,0,10.4,575.4,258.1)" />
<use xlink:href="#f3_x" transform="matrix(10.4,0,0,10.4,556.6,268.4)" />
<use xlink:href="#f2_2i" transform="matrix(10.4,0,0,10.4,603.2,268.5)" />
<use xlink:href="#f2_23" transform="matrix(10.4,0,0,10.4,614.7,268.5)" />
<use xlink:href="#f2_20" transform="matrix(10.4,0,0,10.4,623.5,268.5)" />
<use xlink:href="#f2_29" transform="matrix(10.4,0,0,10.4,632.4,268.5)" />
<use xlink:href="#f4_2j" transform="matrix(10.4,0,0,10.4,171.6,303.9)" />
<use xlink:href="#f2_w" transform="matrix(10.4,0,0,10.4,186.4,303.9)" />
<use xlink:href="#f2_k" transform="matrix(10.4,0,0,10.4,202.5,303.9)" />
<use xlink:href="#f2_h" transform="matrix(10.4,0,0,10.4,211.4,303.9)" />
<use xlink:href="#f2_b" transform="matrix(10.4,0,0,10.4,132,356)" />
<use xlink:href="#f2_24" transform="matrix(10.4,0,0,10.4,137.3,356)" />
<use xlink:href="#f2_24" transform="matrix(10.4,0,0,10.4,140.8,356)" />
<use xlink:href="#f2_24" transform="matrix(10.4,0,0,10.4,144.4,356)" />
<use xlink:href="#f2_c" transform="matrix(10.4,0,0,10.4,147.9,356)" />
</g>
<path d="M174.6,351.5h20.3" class="g2_85" />
<g fill="#000000" >
<use xlink:href="#f2_l" transform="matrix(7.3,0,0,7.3,345.4,348.6)" />
<use xlink:href="#f2_1y" transform="matrix(10.5,0,0,10.4,232.2,355.8)" />
<use xlink:href="#f2_2a" transform="matrix(10.5,0,0,10.4,240.2,355.8)" />
<use xlink:href="#f2_2f" transform="matrix(10.5,0,0,10.4,249.1,355.8)" />
<use xlink:href="#f2_l" transform="matrix(10.5,0,0,10.4,293.6,355.8)" />
<use xlink:href="#f2_1y" transform="matrix(10.5,0,0,10.4,357.5,355.8)" />
<use xlink:href="#f2_2a" transform="matrix(10.5,0,0,10.4,365.5,355.8)" />
<use xlink:href="#f2_2f" transform="matrix(10.5,0,0,10.4,374.4,355.8)" />
<use xlink:href="#f4_1z" transform="matrix(10.5,0,0,10.4,174.9,345.4)" />
<use xlink:href="#f4_2k" transform="matrix(10.5,0,0,10.4,183.8,345.4)" />
<use xlink:href="#f4_2k" transform="matrix(10.5,0,0,10.4,218,355.8)" />
<use xlink:href="#f4_2j" transform="matrix(10.5,0,0,10.4,258.3,355.8)" />
<use xlink:href="#f4_2j" transform="matrix(10.5,0,0,10.4,302.9,355.8)" />
<use xlink:href="#f4_2j" transform="matrix(10.5,0,0,10.4,335.3,355.8)" />
<use xlink:href="#f4_2j" transform="matrix(10.5,0,0,10.4,383.8,355.8)" />
<use xlink:href="#f4_1z" transform="matrix(10.5,0,0,10.4,175,368.1)" />
<use xlink:href="#f4_2j" transform="matrix(10.5,0,0,10.4,183.9,368.1)" />
<use xlink:href="#f3_f" transform="matrix(10.5,0,0,10.4,202.1,355.8)" />
<use xlink:href="#f3_x" transform="matrix(10.5,0,0,10.4,276.5,355.8)" />
<use xlink:href="#f3_f" transform="matrix(10.5,0,0,10.4,319.4,355.8)" />
<use xlink:href="#f2_22" transform="matrix(10.4,0,0,10.4,404.2,356)" />
<use xlink:href="#f2_24" transform="matrix(10.4,0,0,10.4,413.1,356)" />
<use xlink:href="#f2_2h" transform="matrix(10.4,0,0,10.4,416.7,356)" />
<use xlink:href="#f2_20" transform="matrix(10.4,0,0,10.4,424.6,356)" />
<use xlink:href="#f2_29" transform="matrix(10.4,0,0,10.4,433.5,356)" />
<use xlink:href="#f2_2f" transform="matrix(10.4,0,0,10.4,449.3,356)" />
<use xlink:href="#f2_23" transform="matrix(10.4,0,0,10.4,453.8,356)" />
<use xlink:href="#f2_1w" transform="matrix(10.4,0,0,10.4,462.6,356)" />
<use xlink:href="#f2_2f" transform="matrix(10.4,0,0,10.4,471.5,356)" />
<use xlink:href="#f4_2k" transform="matrix(10.4,0,0,10.4,482.5,356)" />
<use xlink:href="#f2_b" transform="matrix(10.4,0,0,10.4,490.6,356)" />
<use xlink:href="#f2_j" transform="matrix(10.4,0,0,10.4,495.9,356)" />
<use xlink:href="#f2_c" transform="matrix(10.4,0,0,10.4,504.8,356)" />
<use xlink:href="#f2_w" transform="matrix(10.4,0,0,10.4,517.1,356)" />
<use xlink:href="#f2_j" transform="matrix(10.4,0,0,10.4,533.5,356)" />
<use xlink:href="#f2_h" transform="matrix(10.4,0,0,10.4,542.4,356)" />
<use xlink:href="#f5_10" transform="matrix(14,0,0,14,297.9,423.3)" />
<use xlink:href="#f5_1d" transform="matrix(14,0,0,14,314.5,423.3)" />
<use xlink:href="#f5_1i" transform="matrix(14,0,0,14,332.7,423.3)" />
<use xlink:href="#f5_1m" transform="matrix(14,0,0,14,344.2,423.3)" />
<use xlink:href="#f5_14" transform="matrix(14,0,0,14,365.1,423.3)" />
<use xlink:href="#f5_1h" transform="matrix(14,0,0,14,378.2,423.3)" />
<use xlink:href="#f5_1i" transform="matrix(14,0,0,14,393.2,423.3)" />
<use xlink:href="#f6_k" transform="matrix(10.4,0,0,10.4,70.6,464)" />
<use xlink:href="#f6_h" transform="matrix(10.4,0,0,10.4,79.4,464)" />
<use xlink:href="#f2_b" transform="matrix(10.4,0,0,10.4,84,464)" />
<use xlink:href="#f2_24" transform="matrix(10.4,0,0,10.4,89.3,464)" />
<use xlink:href="#f2_c" transform="matrix(10.4,0,0,10.4,92.8,464)" />
<use xlink:href="#f2_2a" transform="matrix(10.4,0,0,10.4,116.6,464)" />
<use xlink:href="#f2_2d" transform="matrix(10.4,0,0,10.4,125.5,464)" />
<use xlink:href="#f2_1z" transform="matrix(10.4,0,0,10.4,130.8,464)" />
<use xlink:href="#f2_20" transform="matrix(10.4,0,0,10.4,139.6,464)" />
<use xlink:href="#f2_2d" transform="matrix(10.4,0,0,10.4,148.5,464)" />
<use xlink:href="#f2_w" transform="matrix(10.4,0,0,10.4,161,464)" />
<use xlink:href="#f2_k" transform="matrix(10.4,0,0,10.4,177.4,464)" />
<use xlink:href="#f2_f" transform="matrix(10.4,0,0,10.4,186.3,464)" />
<use xlink:href="#f2_1z" transform="matrix(10.4,0,0,10.4,212.8,464)" />
<use xlink:href="#f2_20" transform="matrix(10.4,0,0,10.4,221.7,464)" />
<use xlink:href="#f2_22" transform="matrix(10.4,0,0,10.4,230.6,464)" />
<use xlink:href="#f2_2d" transform="matrix(10.4,0,0,10.4,239.4,464)" />
<use xlink:href="#f2_20" transform="matrix(10.4,0,0,10.4,244.8,464)" />
<use xlink:href="#f2_20" transform="matrix(10.4,0,0,10.4,253.6,464)" />
<use xlink:href="#f2_w" transform="matrix(10.4,0,0,10.4,269.8,464)" />
<use xlink:href="#f2_k" transform="matrix(10.4,0,0,10.4,286.5,464)" />
<use xlink:href="#f2_b" transform="matrix(10.4,0,0,10.4,355.5,464)" />
<use xlink:href="#f2_24" transform="matrix(10.4,0,0,10.4,360.8,464)" />
<use xlink:href="#f2_24" transform="matrix(10.4,0,0,10.4,364.3,464)" />
<use xlink:href="#f2_c" transform="matrix(10.4,0,0,10.4,367.9,464)" />
<use xlink:href="#f2_2a" transform="matrix(10.4,0,0,10.4,391.6,464)" />
<use xlink:href="#f2_2d" transform="matrix(10.4,0,0,10.4,400.5,464)" />
<use xlink:href="#f2_1z" transform="matrix(10.4,0,0,10.4,405.8,464)" />
<use xlink:href="#f2_20" transform="matrix(10.4,0,0,10.4,414.6,464)" />
<use xlink:href="#f2_2d" transform="matrix(10.4,0,0,10.4,423.5,464)" />
<use xlink:href="#f2_w" transform="matrix(10.4,0,0,10.4,436,464)" />
<use xlink:href="#f2_l" transform="matrix(10.4,0,0,10.4,452.4,464)" />
<use xlink:href="#f2_f" transform="matrix(10.4,0,0,10.4,461.3,464)" />
<use xlink:href="#f2_1z" transform="matrix(10.4,0,0,10.4,478.7,464)" />
<use xlink:href="#f2_20" transform="matrix(10.4,0,0,10.4,487.5,464)" />
<use xlink:href="#f2_22" transform="matrix(10.4,0,0,10.4,496.4,464)" />
<use xlink:href="#f2_2d" transform="matrix(10.4,0,0,10.4,505.3,464)" />
<use xlink:href="#f2_20" transform="matrix(10.4,0,0,10.4,510.6,464)" />
<use xlink:href="#f2_20" transform="matrix(10.4,0,0,10.4,519.5,464)" />
<use xlink:href="#f2_w" transform="matrix(10.4,0,0,10.4,535.7,464)" />
<use xlink:href="#f2_k" transform="matrix(10.4,0,0,10.4,552.3,464)" />
<use xlink:href="#f2_b" transform="matrix(10.4,0,0,10.4,77,497.9)" />
<use xlink:href="#f2_24" transform="matrix(10.4,0,0,10.4,82.3,497.9)" />
<use xlink:href="#f2_24" transform="matrix(10.4,0,0,10.4,85.8,497.9)" />
<use xlink:href="#f2_24" transform="matrix(10.4,0,0,10.4,89.4,497.9)" />
<use xlink:href="#f2_c" transform="matrix(10.4,0,0,10.4,92.9,497.9)" />
<use xlink:href="#f2_2a" transform="matrix(10.4,0,0,10.4,116.6,497.9)" />
<use xlink:href="#f2_2d" transform="matrix(10.4,0,0,10.4,125.5,497.9)" />
<use xlink:href="#f2_1z" transform="matrix(10.4,0,0,10.4,130.8,497.9)" />
<use xlink:href="#f2_20" transform="matrix(10.4,0,0,10.4,139.6,497.9)" />
<use xlink:href="#f2_2d" transform="matrix(10.4,0,0,10.4,148.5,497.9)" />
<use xlink:href="#f2_w" transform="matrix(10.4,0,0,10.4,161,497.9)" />
<use xlink:href="#f2_n" transform="matrix(10.4,0,0,10.4,177.4,497.9)" />
<use xlink:href="#f2_f" transform="matrix(10.4,0,0,10.4,186.3,497.9)" />
<use xlink:href="#f2_1z" transform="matrix(10.4,0,0,10.4,212.8,497.9)" />
<use xlink:href="#f2_20" transform="matrix(10.4,0,0,10.4,221.7,497.9)" />
<use xlink:href="#f2_22" transform="matrix(10.4,0,0,10.4,230.6,497.9)" />
<use xlink:href="#f2_2d" transform="matrix(10.4,0,0,10.4,239.4,497.9)" />
<use xlink:href="#f2_20" transform="matrix(10.4,0,0,10.4,244.8,497.9)" />
<use xlink:href="#f2_20" transform="matrix(10.4,0,0,10.4,253.6,497.9)" />
<use xlink:href="#f2_w" transform="matrix(10.4,0,0,10.4,269.8,497.9)" />
<use xlink:href="#f2_k" transform="matrix(10.4,0,0,10.4,286.5,497.9)" />
<use xlink:href="#f2_b" transform="matrix(10.4,0,0,10.4,350.9,497.9)" />
<use xlink:href="#f2_24" transform="matrix(10.4,0,0,10.4,356.2,497.9)" />
<use xlink:href="#f2_2h" transform="matrix(10.4,0,0,10.4,359.7,497.9)" />
<use xlink:href="#f2_c" transform="matrix(10.4,0,0,10.4,367.7,497.9)" />
<use xlink:href="#f2_2a" transform="matrix(10.4,0,0,10.4,391.6,497.9)" />
<use xlink:href="#f2_2d" transform="matrix(10.4,0,0,10.4,400.5,497.9)" />
<use xlink:href="#f2_1z" transform="matrix(10.4,0,0,10.4,405.8,497.9)" />
<use xlink:href="#f2_20" transform="matrix(10.4,0,0,10.4,414.6,497.9)" />
<use xlink:href="#f2_2d" transform="matrix(10.4,0,0,10.4,423.5,497.9)" />
<use xlink:href="#f2_w" transform="matrix(10.4,0,0,10.4,436,497.9)" />
<use xlink:href="#f2_o" transform="matrix(10.4,0,0,10.4,452.4,497.9)" />
<use xlink:href="#f2_f" transform="matrix(10.4,0,0,10.4,461.3,497.9)" />
<use xlink:href="#f2_1z" transform="matrix(10.4,0,0,10.4,478.7,497.9)" />
<use xlink:href="#f2_20" transform="matrix(10.4,0,0,10.4,487.5,497.9)" />
<use xlink:href="#f2_22" transform="matrix(10.4,0,0,10.4,496.4,497.9)" />
<use xlink:href="#f2_2d" transform="matrix(10.4,0,0,10.4,505.3,497.9)" />
<use xlink:href="#f2_20" transform="matrix(10.4,0,0,10.4,510.6,497.9)" />
<use xlink:href="#f2_20" transform="matrix(10.4,0,0,10.4,519.5,497.9)" />
<use xlink:href="#f2_24" transform="matrix(10.4,0,0,10.4,535.8,497.9)" />
<use xlink:href="#f2_2e" transform="matrix(10.4,0,0,10.4,539.4,497.9)" />
<use xlink:href="#f2_29" transform="matrix(10.4,0,0,10.4,555.1,497.9)" />
<use xlink:href="#f2_2a" transform="matrix(10.4,0,0,10.4,563.9,497.9)" />
<use xlink:href="#f2_2f" transform="matrix(10.4,0,0,10.4,572.8,497.9)" />
<use xlink:href="#f2_1z" transform="matrix(10.4,0,0,10.4,584.7,497.9)" />
<use xlink:href="#f2_20" transform="matrix(10.4,0,0,10.4,593.6,497.9)" />
<use xlink:href="#f2_21" transform="matrix(10.4,0,0,10.4,602.5,497.9)" />
<use xlink:href="#f2_24" transform="matrix(10.4,0,0,10.4,606.9,497.9)" />
<use xlink:href="#f2_29" transform="matrix(10.4,0,0,10.4,610.5,497.9)" />
<use xlink:href="#f2_20" transform="matrix(10.4,0,0,10.4,619.3,497.9)" />
<use xlink:href="#f2_1z" transform="matrix(10.4,0,0,10.4,628.2,497.9)" />
<use xlink:href="#f2_h" transform="matrix(10.4,0,0,10.4,637.1,497.9)" />
<use xlink:href="#f2_b" transform="matrix(10.4,0,0,10.4,79.6,531.8)" />
<use xlink:href="#f2_2h" transform="matrix(10.4,0,0,10.4,84.9,531.8)" />
<use xlink:href="#f2_c" transform="matrix(10.4,0,0,10.4,93.1,531.8)" />
<use xlink:href="#f2_2a" transform="matrix(10.4,0,0,10.4,116.6,531.8)" />
<use xlink:href="#f2_2d" transform="matrix(10.4,0,0,10.4,125.5,531.8)" />
<use xlink:href="#f2_1z" transform="matrix(10.4,0,0,10.4,130.8,531.8)" />
<use xlink:href="#f2_20" transform="matrix(10.4,0,0,10.4,139.6,531.8)" />
<use xlink:href="#f2_2d" transform="matrix(10.4,0,0,10.4,148.5,531.8)" />
<use xlink:href="#f2_w" transform="matrix(10.4,0,0,10.4,161,531.8)" />
<use xlink:href="#f2_l" transform="matrix(10.4,0,0,10.4,177.4,531.8)" />
<use xlink:href="#f2_f" transform="matrix(10.4,0,0,10.4,186.3,531.8)" />
<use xlink:href="#f2_1z" transform="matrix(10.4,0,0,10.4,212.8,531.8)" />
<use xlink:href="#f2_20" transform="matrix(10.4,0,0,10.4,221.7,531.8)" />
<use xlink:href="#f2_22" transform="matrix(10.4,0,0,10.4,230.6,531.8)" />
<use xlink:href="#f2_2d" transform="matrix(10.4,0,0,10.4,239.4,531.8)" />
<use xlink:href="#f2_20" transform="matrix(10.4,0,0,10.4,244.8,531.8)" />
<use xlink:href="#f2_20" transform="matrix(10.4,0,0,10.4,253.6,531.8)" />
<use xlink:href="#f2_w" transform="matrix(10.4,0,0,10.4,269.8,531.8)" />
<use xlink:href="#f2_l" transform="matrix(10.4,0,0,10.4,286.5,531.8)" />
<use xlink:href="#f2_b" transform="matrix(10.4,0,0,10.4,350.9,531.8)" />
<use xlink:href="#f2_2h" transform="matrix(10.4,0,0,10.4,356.2,531.8)" />
<use xlink:href="#f2_24" transform="matrix(10.4,0,0,10.4,364.4,531.8)" />
<use xlink:href="#f2_c" transform="matrix(10.4,0,0,10.4,368,531.8)" />
<use xlink:href="#f2_2a" transform="matrix(10.4,0,0,10.4,391.6,531.8)" />
<use xlink:href="#f2_2d" transform="matrix(10.4,0,0,10.4,400.5,531.8)" />
<use xlink:href="#f2_1z" transform="matrix(10.4,0,0,10.4,405.8,531.8)" />
<use xlink:href="#f2_20" transform="matrix(10.4,0,0,10.4,414.6,531.8)" />
<use xlink:href="#f2_2d" transform="matrix(10.4,0,0,10.4,423.5,531.8)" />
<use xlink:href="#f2_w" transform="matrix(10.4,0,0,10.4,436,531.8)" />
<use xlink:href="#f2_l" transform="matrix(10.4,0,0,10.4,452.4,531.8)" />
<use xlink:href="#f2_f" transform="matrix(10.4,0,0,10.4,461.3,531.8)" />
<use xlink:href="#f2_1z" transform="matrix(10.4,0,0,10.4,478.7,531.8)" />
<use xlink:href="#f2_20" transform="matrix(10.4,0,0,10.4,487.5,531.8)" />
<use xlink:href="#f2_22" transform="matrix(10.4,0,0,10.4,496.4,531.8)" />
<use xlink:href="#f2_2d" transform="matrix(10.4,0,0,10.4,505.3,531.8)" />
<use xlink:href="#f2_20" transform="matrix(10.4,0,0,10.4,510.6,531.8)" />
<use xlink:href="#f2_20" transform="matrix(10.4,0,0,10.4,519.5,531.8)" />
<use xlink:href="#f2_w" transform="matrix(10.4,0,0,10.4,535.7,531.8)" />
<use xlink:href="#f2_l" transform="matrix(10.4,0,0,10.4,552.3,531.8)" />
<use xlink:href="#f2_b" transform="matrix(10.4,0,0,10.4,72.4,565.7)" />
<use xlink:href="#f2_2h" transform="matrix(10.4,0,0,10.4,77.7,565.7)" />
<use xlink:href="#f2_24" transform="matrix(10.4,0,0,10.4,85.7,565.7)" />
<use xlink:href="#f2_24" transform="matrix(10.4,0,0,10.4,89.2,565.7)" />
<use xlink:href="#f2_c" transform="matrix(10.4,0,0,10.4,92.8,565.7)" />
<use xlink:href="#f2_2a" transform="matrix(10.4,0,0,10.4,116.6,565.7)" />
<use xlink:href="#f2_2d" transform="matrix(10.4,0,0,10.4,125.5,565.7)" />
<use xlink:href="#f2_1z" transform="matrix(10.4,0,0,10.4,130.8,565.7)" />
<use xlink:href="#f2_20" transform="matrix(10.4,0,0,10.4,139.6,565.7)" />
<use xlink:href="#f2_2d" transform="matrix(10.4,0,0,10.4,148.5,565.7)" />
<use xlink:href="#f2_w" transform="matrix(10.4,0,0,10.4,161,565.7)" />
<use xlink:href="#f2_m" transform="matrix(10.4,0,0,10.4,177.4,565.7)" />
<use xlink:href="#f2_f" transform="matrix(10.4,0,0,10.4,186.3,565.7)" />
<use xlink:href="#f2_1z" transform="matrix(10.4,0,0,10.4,212.8,565.7)" />
<use xlink:href="#f2_20" transform="matrix(10.4,0,0,10.4,221.7,565.7)" />
<use xlink:href="#f2_22" transform="matrix(10.4,0,0,10.4,230.6,565.7)" />
<use xlink:href="#f2_2d" transform="matrix(10.4,0,0,10.4,239.4,565.7)" />
<use xlink:href="#f2_20" transform="matrix(10.4,0,0,10.4,244.8,565.7)" />
<use xlink:href="#f2_20" transform="matrix(10.4,0,0,10.4,253.6,565.7)" />
<use xlink:href="#f2_w" transform="matrix(10.4,0,0,10.4,269.8,565.7)" />
<use xlink:href="#f2_l" transform="matrix(10.4,0,0,10.4,286.5,565.7)" />
<use xlink:href="#f2_b" transform="matrix(10.4,0,0,10.4,343.9,565.7)" />
<use xlink:href="#f2_2h" transform="matrix(10.4,0,0,10.4,349.2,565.7)" />
<use xlink:href="#f2_24" transform="matrix(10.4,0,0,10.4,357.2,565.7)" />
<use xlink:href="#f2_24" transform="matrix(10.4,0,0,10.4,360.8,565.7)" />
<use xlink:href="#f2_24" transform="matrix(10.4,0,0,10.4,364.3,565.7)" />
<use xlink:href="#f2_c" transform="matrix(10.4,0,0,10.4,367.8,565.7)" />
<use xlink:href="#f2_2a" transform="matrix(10.4,0,0,10.4,391.6,565.7)" />
<use xlink:href="#f2_2d" transform="matrix(10.4,0,0,10.4,400.5,565.7)" />
<use xlink:href="#f2_1z" transform="matrix(10.4,0,0,10.4,405.8,565.7)" />
<use xlink:href="#f2_20" transform="matrix(10.4,0,0,10.4,414.6,565.7)" />
<use xlink:href="#f2_2d" transform="matrix(10.4,0,0,10.4,423.5,565.7)" />
<use xlink:href="#f2_w" transform="matrix(10.4,0,0,10.4,436,565.7)" />
<use xlink:href="#f2_k" transform="matrix(10.4,0,0,10.4,452.4,565.7)" />
<use xlink:href="#f2_f" transform="matrix(10.4,0,0,10.4,461.3,565.7)" />
<use xlink:href="#f2_1z" transform="matrix(10.4,0,0,10.4,478.7,565.7)" />
<use xlink:href="#f2_20" transform="matrix(10.4,0,0,10.4,487.5,565.7)" />
<use xlink:href="#f2_22" transform="matrix(10.4,0,0,10.4,496.4,565.7)" />
<use xlink:href="#f2_2d" transform="matrix(10.4,0,0,10.4,505.3,565.7)" />
<use xlink:href="#f2_20" transform="matrix(10.4,0,0,10.4,510.6,565.7)" />
<use xlink:href="#f2_20" transform="matrix(10.4,0,0,10.4,519.5,565.7)" />
<use xlink:href="#f2_24" transform="matrix(10.4,0,0,10.4,535.8,565.7)" />
<use xlink:href="#f2_2e" transform="matrix(10.4,0,0,10.4,539.4,565.7)" />
<use xlink:href="#f2_29" transform="matrix(10.4,0,0,10.4,555.1,565.7)" />
<use xlink:href="#f2_2a" transform="matrix(10.4,0,0,10.4,563.9,565.7)" />
<use xlink:href="#f2_2f" transform="matrix(10.4,0,0,10.4,572.8,565.7)" />
<use xlink:href="#f2_1z" transform="matrix(10.4,0,0,10.4,584.7,565.7)" />
<use xlink:href="#f2_20" transform="matrix(10.4,0,0,10.4,593.6,565.7)" />
<use xlink:href="#f2_21" transform="matrix(10.4,0,0,10.4,602.5,565.7)" />
<use xlink:href="#f2_24" transform="matrix(10.4,0,0,10.4,606.9,565.7)" />
<use xlink:href="#f2_29" transform="matrix(10.4,0,0,10.4,610.5,565.7)" />
<use xlink:href="#f2_20" transform="matrix(10.4,0,0,10.4,619.3,565.7)" />
<use xlink:href="#f2_1z" transform="matrix(10.4,0,0,10.4,628.2,565.7)" />
<use xlink:href="#f6_l" transform="matrix(10.4,0,0,10.4,70.6,620.9)" />
<use xlink:href="#f6_h" transform="matrix(10.4,0,0,10.4,79.4,620.9)" />
<use xlink:href="#f2_b" transform="matrix(10.4,0,0,10.4,84,620.9)" />
<use xlink:href="#f2_24" transform="matrix(10.4,0,0,10.4,89.3,620.9)" />
<use xlink:href="#f2_c" transform="matrix(10.4,0,0,10.4,92.8,620.9)" />
</g>
<path d="M155.7,618h20m23.7,0h20m62,-9.4v14.8m15.2,-14.8v14.8" class="g3_85" />
<g fill="#000000" >
<use xlink:href="#f3_x" transform="matrix(10.6,0,0,10.6,137.9,622.3)" />
<use xlink:href="#f3_f" transform="matrix(10.6,0,0,10.6,183,622.3)" />
<use xlink:href="#f3_h" transform="matrix(10.6,0,0,10.6,226.6,622.3)" />
<use xlink:href="#f3_f" transform="matrix(10.6,0,0,10.6,304.5,622.3)" />
<use xlink:href="#f2_p" transform="matrix(8,0,0,7.9,166.5,602.2)" />
<use xlink:href="#f2_m" transform="matrix(8,0,0,7.9,210.1,602.2)" />
<use xlink:href="#f2_l" transform="matrix(10.6,0,0,10.6,242.3,622.3)" />
<use xlink:href="#f2_27" transform="matrix(10.6,0,0,10.6,254.8,622.3)" />
<use xlink:href="#f2_2a" transform="matrix(10.6,0,0,10.6,258.4,622.3)" />
<use xlink:href="#f2_22" transform="matrix(10.6,0,0,10.6,267.5,622.3)" />
<use xlink:href="#f2_p" transform="matrix(10.6,0,0,10.6,161.3,638)" />
<use xlink:href="#f2_p" transform="matrix(10.6,0,0,10.6,205,638)" />
<use xlink:href="#f4_2j" transform="matrix(10.6,0,0,10.6,157.2,611.8)" />
<use xlink:href="#f4_2j" transform="matrix(10.6,0,0,10.6,200.9,611.8)" />
<use xlink:href="#f4_2k" transform="matrix(10.6,0,0,10.6,119.7,622.3)" />
<use xlink:href="#f4_2j" transform="matrix(10.6,0,0,10.6,285,622.3)" />
<use xlink:href="#f4_1y" transform="matrix(10.6,0,0,10.6,320.2,622.3)" />
<use xlink:href="#f2_b" transform="matrix(10.4,0,0,10.4,373.8,620.9)" />
<use xlink:href="#f2_24" transform="matrix(10.4,0,0,10.4,379.1,620.9)" />
<use xlink:href="#f2_24" transform="matrix(10.4,0,0,10.4,382.7,620.9)" />
<use xlink:href="#f2_c" transform="matrix(10.4,0,0,10.4,386.2,620.9)" />
</g>
<path d="M481.8,598.7v21.4m70.9,-21.4v21.4" class="g4_85" />
<g fill="#000000" >
<use xlink:href="#f3_h" transform="matrix(7.9,0,0,7.9,534.1,609.2)" />
<use xlink:href="#f3_x" transform="matrix(10.5,0,0,10.5,430.6,618.8)" />
<use xlink:href="#f3_f" transform="matrix(10.5,0,0,10.5,509.2,618.8)" />
<use xlink:href="#f3_f" transform="matrix(10.5,0,0,10.5,560.5,618.8)" />
<use xlink:href="#f2_27" transform="matrix(10.6,0,0,10.5,447.1,618.8)" />
<use xlink:href="#f2_2a" transform="matrix(10.6,0,0,10.5,450.7,618.8)" />
<use xlink:href="#f2_22" transform="matrix(10.6,0,0,10.5,459.6,618.8)" />
<use xlink:href="#f4_2j" transform="matrix(7.8,0,0,7.9,494.4,609.2)" />
<use xlink:href="#f4_2j" transform="matrix(7.8,0,0,7.9,541.9,609.2)" />
<use xlink:href="#f4_20" transform="matrix(7.8,0,0,7.9,468.3,623.1)" />
<use xlink:href="#f4_2k" transform="matrix(10.6,0,0,10.5,412.7,618.8)" />
<use xlink:href="#f4_20" transform="matrix(10.6,0,0,10.5,484.4,618.8)" />
<use xlink:href="#f4_20" transform="matrix(10.6,0,0,10.5,524.5,618.8)" />
<use xlink:href="#f4_1y" transform="matrix(10.6,0,0,10.5,575.8,618.8)" />
<use xlink:href="#f2_b" transform="matrix(10.4,0,0,10.4,77,686.7)" />
<use xlink:href="#f2_24" transform="matrix(10.4,0,0,10.4,82.3,686.7)" />
<use xlink:href="#f2_24" transform="matrix(10.4,0,0,10.4,85.8,686.7)" />
<use xlink:href="#f2_24" transform="matrix(10.4,0,0,10.4,89.4,686.7)" />
<use xlink:href="#f2_c" transform="matrix(10.4,0,0,10.4,92.9,686.7)" />
</g>
<path d="M155.6,682.6h20.3m64.7,0h38.2" class="g5_85" />
<g fill="#000000" >
<use xlink:href="#f3_f" transform="matrix(7.9,0,0,7.9,262,666.7)" />
<use xlink:href="#f3_x" transform="matrix(10.5,0,0,10.6,137.9,686.9)" />
<use xlink:href="#f3_f" transform="matrix(10.5,0,0,10.6,183.2,686.9)" />
<use xlink:href="#f3_f" transform="matrix(10.5,0,0,10.6,224.4,686.9)" />
<use xlink:href="#f3_f" transform="matrix(10.5,0,0,10.6,286,686.9)" />
<use xlink:href="#f3_f" transform="matrix(10.5,0,0,10.6,257.1,702.6)" />
<use xlink:href="#f2_n" transform="matrix(7.9,0,0,7.9,166.8,666.7)" />
<use xlink:href="#f2_k" transform="matrix(7.9,0,0,7.9,269.8,666.7)" />
<use xlink:href="#f2_h" transform="matrix(10.5,0,0,10.6,309.8,686.9)" />
<use xlink:href="#f2_n" transform="matrix(10.5,0,0,10.6,161.4,702.6)" />
<use xlink:href="#f2_k" transform="matrix(10.5,0,0,10.6,271.8,702.6)" />
<use xlink:href="#f4_20" transform="matrix(7.9,0,0,7.9,253,666.7)" />
<use xlink:href="#f4_2j" transform="matrix(7.9,0,0,7.9,208.5,677.2)" />
<use xlink:href="#f4_2j" transform="matrix(10.5,0,0,10.6,156.6,676.4)" />
<use xlink:href="#f4_2j" transform="matrix(10.5,0,0,10.6,243.3,676.4)" />
<use xlink:href="#f4_2k" transform="matrix(10.5,0,0,10.6,119.5,686.9)" />
<use xlink:href="#f4_20" transform="matrix(10.5,0,0,10.6,198.2,686.9)" />
<use xlink:href="#f4_1y" transform="matrix(10.5,0,0,10.6,301,686.9)" />
<use xlink:href="#f4_20" transform="matrix(10.5,0,0,10.6,240.6,702.6)" />
<use xlink:href="#f2_b" transform="matrix(10.4,0,0,10.4,369.2,686.7)" />
<use xlink:href="#f2_24" transform="matrix(10.4,0,0,10.4,374.5,686.7)" />
<use xlink:href="#f2_2h" transform="matrix(10.4,0,0,10.4,378.1,686.7)" />
<use xlink:href="#f2_c" transform="matrix(10.4,0,0,10.4,386.1,686.7)" />
<use xlink:href="#f2_o" transform="matrix(10.4,0,0,10.4,409.9,686.7)" />
<use xlink:href="#f4_2j" transform="matrix(7.4,0,0,7.4,418.7,681.4)" />
<use xlink:href="#f2_e" transform="matrix(10.4,0,0,10.4,431,686.7)" />
<use xlink:href="#f2_o" transform="matrix(10.4,0,0,10.4,447.1,686.7)" />
<use xlink:href="#f2_99" transform="matrix(7.4,0,0,7.4,460.3,681.4)" />
<use xlink:href="#f4_2k" transform="matrix(7.4,0,0,7.4,466.6,681.4)" />
<use xlink:href="#f2_w" transform="matrix(10.4,0,0,10.4,479,686.7)" />
<use xlink:href="#f4_1y" transform="matrix(10.4,0,0,10.4,495.2,686.7)" />
<use xlink:href="#f2_b" transform="matrix(10.4,0,0,10.4,79.6,731.1)" />
<use xlink:href="#f2_2h" transform="matrix(10.4,0,0,10.4,84.9,731.1)" />
<use xlink:href="#f2_c" transform="matrix(10.4,0,0,10.4,93.1,731.1)" />
<use xlink:href="#f2_l" transform="matrix(10.4,0,0,10.4,116.6,731.1)" />
<use xlink:href="#f2_b" transform="matrix(10.4,0,0,10.4,125.5,731.1)" />
<use xlink:href="#f4_2k" transform="matrix(10.4,0,0,10.4,130.7,731.1)" />
<use xlink:href="#f2_99" transform="matrix(10.4,0,0,10.4,145.6,731.1)" />
<use xlink:href="#f4_2j" transform="matrix(10.4,0,0,10.4,161.1,731.1)" />
<use xlink:href="#f2_c" transform="matrix(10.4,0,0,10.4,169.2,731.1)" />
<use xlink:href="#f2_e" transform="matrix(10.4,0,0,10.4,181.3,731.1)" />
<use xlink:href="#f2_2e" transform="matrix(10.4,0,0,10.4,197.4,731.1)" />
<use xlink:href="#f2_24" transform="matrix(10.4,0,0,10.4,205.4,731.1)" />
<use xlink:href="#f2_29" transform="matrix(10.4,0,0,10.4,208.9,731.1)" />
<use xlink:href="#f2_l" transform="matrix(10.4,0,0,10.4,224.6,731.1)" />
<use xlink:href="#f4_2k" transform="matrix(10.4,0,0,10.4,233.4,731.1)" />
<use xlink:href="#f2_e" transform="matrix(10.4,0,0,10.4,248.2,731.1)" />
<use xlink:href="#f2_2e" transform="matrix(10.4,0,0,10.4,264.3,731.1)" />
<use xlink:href="#f2_24" transform="matrix(10.4,0,0,10.4,272.3,731.1)" />
<use xlink:href="#f2_29" transform="matrix(10.4,0,0,10.4,275.8,731.1)" />
<use xlink:href="#f2_l" transform="matrix(10.4,0,0,10.4,291.5,731.1)" />
<use xlink:href="#f4_2j" transform="matrix(10.4,0,0,10.4,300.3,731.1)" />
<use xlink:href="#f2_w" transform="matrix(10.4,0,0,10.4,315.1,731.1)" />
<use xlink:href="#f4_1y" transform="matrix(10.4,0,0,10.4,331.5,731.1)" />
<use xlink:href="#f2_h" transform="matrix(10.4,0,0,10.4,339.5,731.1)" />
<use xlink:href="#f2_b" transform="matrix(10.4,0,0,10.4,369.2,731.1)" />
<use xlink:href="#f2_2h" transform="matrix(10.4,0,0,10.4,374.5,731.1)" />
<use xlink:href="#f2_24" transform="matrix(10.4,0,0,10.4,382.8,731.1)" />
<use xlink:href="#f2_c" transform="matrix(10.4,0,0,10.4,386.3,731.1)" />
<use xlink:href="#f2_l" transform="matrix(10.4,0,0,10.4,409.9,731.1)" />
<use xlink:href="#f2_27" transform="matrix(10.4,0,0,10.4,423.7,731.1)" />
<use xlink:href="#f2_2a" transform="matrix(10.4,0,0,10.4,427.3,731.1)" />
<use xlink:href="#f2_22" transform="matrix(10.4,0,0,10.4,436.1,731.1)" />
<use xlink:href="#f2_2n" transform="matrix(10.4,0,0,10.4,450,731.1)" />
<use xlink:href="#f2_m" transform="matrix(10.4,0,0,10.4,454.1,731.1)" />
<use xlink:href="#f4_2j" transform="matrix(10.4,0,0,10.4,462.7,731.1)" />
<use xlink:href="#f2_e" transform="matrix(10.4,0,0,10.4,475.7,731.1)" />
<use xlink:href="#f2_k" transform="matrix(10.4,0,0,10.4,490,731.1)" />
<use xlink:href="#f2_2n" transform="matrix(10.4,0,0,10.4,498.9,731.1)" />
<use xlink:href="#f2_e" transform="matrix(10.4,0,0,10.4,508,731.1)" />
<use xlink:href="#f2_m" transform="matrix(10.4,0,0,10.4,522.4,731.1)" />
<use xlink:href="#f2_27" transform="matrix(10.4,0,0,10.4,531.3,731.1)" />
<use xlink:href="#f2_2a" transform="matrix(10.4,0,0,10.4,534.8,731.1)" />
<use xlink:href="#f2_22" transform="matrix(10.4,0,0,10.4,543.7,731.1)" />
<use xlink:href="#f2_2n" transform="matrix(10.4,0,0,10.4,557.5,731.1)" />
<use xlink:href="#f2_k" transform="matrix(10.4,0,0,10.4,561.6,731.1)" />
<use xlink:href="#f2_99" transform="matrix(10.4,0,0,10.4,575.5,731.1)" />
<use xlink:href="#f2_l" transform="matrix(10.4,0,0,10.4,589.3,731.1)" />
<use xlink:href="#f4_2k" transform="matrix(10.4,0,0,10.4,597.8,731.1)" />
<use xlink:href="#f2_2n" transform="matrix(10.4,0,0,10.4,605.9,731.1)" />
<use xlink:href="#f2_w" transform="matrix(10.4,0,0,10.4,615.2,731.1)" />
<use xlink:href="#f4_1y" transform="matrix(10.4,0,0,10.4,628.6,731.1)" />
<use xlink:href="#f2_h" transform="matrix(10.4,0,0,10.4,636.7,731.1)" />
<use xlink:href="#f6_m" transform="matrix(10.4,0,0,10.4,70.6,765)" />
<use xlink:href="#f6_h" transform="matrix(10.4,0,0,10.4,79.4,765)" />
<use xlink:href="#f2_b" transform="matrix(10.4,0,0,10.4,84,765)" />
<use xlink:href="#f2_24" transform="matrix(10.4,0,0,10.4,89.3,765)" />
<use xlink:href="#f2_c" transform="matrix(10.4,0,0,10.4,92.8,765)" />
<use xlink:href="#f4_20" transform="matrix(10.4,0,0,10.4,116.6,765)" />
<use xlink:href="#f2_2e" transform="matrix(7.4,0,0,7.4,125.4,759.7)" />
<use xlink:href="#f2_24" transform="matrix(7.4,0,0,7.4,131.1,759.7)" />
<use xlink:href="#f2_29" transform="matrix(7.4,0,0,7.4,133.6,759.7)" />
<use xlink:href="#f4_2j" transform="matrix(7.4,0,0,7.4,144.8,759.7)" />
<use xlink:href="#f2_b" transform="matrix(10.4,0,0,10.4,373.8,765)" />
<use xlink:href="#f2_24" transform="matrix(10.4,0,0,10.4,379.1,765)" />
<use xlink:href="#f2_24" transform="matrix(10.4,0,0,10.4,382.7,765)" />
<use xlink:href="#f2_c" transform="matrix(10.4,0,0,10.4,386.2,765)" />
<use xlink:href="#f4_20" transform="matrix(10.4,0,0,10.4,409.9,765)" />
<use xlink:href="#f2_2f" transform="matrix(7.4,0,0,7.4,418.7,759.7)" />
<use xlink:href="#f2_1w" transform="matrix(7.4,0,0,7.4,421.9,759.7)" />
<use xlink:href="#f2_29" transform="matrix(7.4,0,0,7.4,428.2,759.7)" />
<use xlink:href="#f4_2j" transform="matrix(7.4,0,0,7.4,439.3,759.7)" />
<use xlink:href="#f2_b" transform="matrix(10.4,0,0,10.4,77,817.1)" />
<use xlink:href="#f2_24" transform="matrix(10.4,0,0,10.4,82.3,817.1)" />
<use xlink:href="#f2_24" transform="matrix(10.4,0,0,10.4,85.8,817.1)" />
<use xlink:href="#f2_24" transform="matrix(10.4,0,0,10.4,89.4,817.1)" />
<use xlink:href="#f2_c" transform="matrix(10.4,0,0,10.4,92.9,817.1)" />
<use xlink:href="#f4_20" transform="matrix(10.4,0,0,10.4,116.6,817.1)" />
<use xlink:href="#f2_99" transform="matrix(7.4,0,0,7.4,125.4,811.7)" />
<use xlink:href="#f2_k" transform="matrix(7.4,0,0,7.4,131.7,811.7)" />
<use xlink:href="#f2_i" transform="matrix(7.4,0,0,7.4,138,811.7)" />
<use xlink:href="#f2_2j" transform="matrix(7.4,0,0,7.4,141.2,811.7)" />
<use xlink:href="#f2_b" transform="matrix(10.4,0,0,10.4,369.2,817.1)" />
<use xlink:href="#f2_24" transform="matrix(10.4,0,0,10.4,374.5,817.1)" />
<use xlink:href="#f2_2h" transform="matrix(10.4,0,0,10.4,378.1,817.1)" />
<use xlink:href="#f2_c" transform="matrix(10.4,0,0,10.4,386.1,817.1)" />
<use xlink:href="#f3_c" transform="matrix(7.9,0,0,10.3,422.5,792)" />
<use xlink:href="#f3_d" transform="matrix(7.9,0,0,10.3,455,792)" />
</g>
<path d="M422.2,796.5h43.6" class="g6_85" />
<g fill="#000000" >
<use xlink:href="#f2_l" transform="matrix(6.3,0,0,6.3,458.9,785.1)" />
<use xlink:href="#f2_27" transform="matrix(7.9,0,0,7.9,427.2,791.7)" />
<use xlink:href="#f2_2a" transform="matrix(7.9,0,0,7.9,429.9,791.7)" />
<use xlink:href="#f2_22" transform="matrix(7.9,0,0,7.9,436.6,791.7)" />
<use xlink:href="#f2_l" transform="matrix(7.9,0,0,7.9,440.7,811.3)" />
<use xlink:href="#f4_2j" transform="matrix(7.9,0,0,7.9,446.5,791.7)" />
<use xlink:href="#f4_20" transform="matrix(10.7,0,0,10.6,411.6,817.9)" />
<use xlink:href="#f2_b" transform="matrix(10.4,0,0,10.4,79.6,876.6)" />
<use xlink:href="#f2_2h" transform="matrix(10.4,0,0,10.4,84.9,876.6)" />
<use xlink:href="#f2_c" transform="matrix(10.4,0,0,10.4,93.1,876.6)" />
</g>
<path d="M119.6,869h20.3" class="g7_85" />
<g fill="#000000" >
<use xlink:href="#f2_m" transform="matrix(7.8,0,0,7.8,130.8,880.6)" />
<use xlink:href="#f2_k" transform="matrix(10.4,0,0,10.4,126.1,862.9)" />
<use xlink:href="#f4_2j" transform="matrix(10.4,0,0,10.4,120.6,890.1)" />
<use xlink:href="#f2_b" transform="matrix(10.4,0,0,10.4,369.2,876.6)" />
<use xlink:href="#f2_2h" transform="matrix(10.4,0,0,10.4,374.5,876.6)" />
<use xlink:href="#f2_24" transform="matrix(10.4,0,0,10.4,382.8,876.6)" />
<use xlink:href="#f2_c" transform="matrix(10.4,0,0,10.4,386.3,876.6)" />
<use xlink:href="#f2_2e" transform="matrix(10.4,0,0,10.4,409.9,876.6)" />
<use xlink:href="#f2_20" transform="matrix(10.4,0,0,10.4,417.9,876.6)" />
<use xlink:href="#f2_1y" transform="matrix(10.4,0,0,10.4,426.8,876.6)" />
<use xlink:href="#f4_2j" transform="matrix(10.4,0,0,10.4,441.8,876.6)" />
<use xlink:href="#f7_r" transform="matrix(12,0,0,12,673.3,1070.2)" />
</g>
<g fill="#0080FF" fill-opacity="0.5" >
<use xlink:href="#f0_1c" transform="matrix(38.3,0,0,38.3,183.6,1079.4)" />
<use xlink:href="#f0_21" transform="matrix(38.3,0,0,38.3,216.1,1079.4)" />
<use xlink:href="#f0_1x" transform="matrix(38.3,0,0,38.3,248.6,1079.4)" />
<use xlink:href="#f0_2e" transform="matrix(38.3,0,0,38.3,281.1,1079.4)" />
<use xlink:href="#f0_2a" transform="matrix(38.3,0,0,38.3,300.6,1079.4)" />
<use xlink:href="#f0_17" transform="matrix(38.3,0,0,38.3,333.1,1079.4)" />
<use xlink:href="#f0_2h" transform="matrix(38.3,0,0,38.3,378.6,1079.4)" />
<use xlink:href="#f0_25" transform="matrix(38.3,0,0,38.3,411.1,1079.4)" />
<use xlink:href="#f0_20" transform="matrix(38.3,0,0,38.3,424,1079.4)" />
<use xlink:href="#f0_21" transform="matrix(38.3,0,0,38.3,456.5,1079.4)" />
<use xlink:href="#f0_i" transform="matrix(38.3,0,0,38.3,489.1,1079.4)" />
<use xlink:href="#f0_25" transform="matrix(38.3,0,0,38.3,505.3,1079.4)" />
<use xlink:href="#f0_2a" transform="matrix(38.3,0,0,38.3,518.3,1079.4)" />
</g>
<defs>
<path d="M593,101c0,0,182,0,279,112c0,0,98,113,98,318c0,0,0,196,-98,308c0,0,-98,112,-277,112c0,0,-181,0,-279,-110c0,0,-99,-111,-99,-310c0,0,0,-198,100,-314c0,0,99,-116,276,-116Zm0,-115c0,0,-162,0,-279,65c0,0,-118,66,-180,190c0,0,-62,124,-62,290c0,0,0,252,138,394c0,0,138,142,385,142c0,0,160,0,278,-64c0,0,118,-64,180,-185c0,0,62,-122,62,-287c0,0,0,-165,-63,-289c0,0,-63,-124,-181,-190c0,0,-118,-66,-278,-66Z" 
id="f0_1f"
transform="scale(0.001,-0.001)" />

<path d="M106,0V635c0,0,0,141,-5,173H228c0,0,1,-4,2,-21c0,0,1,-16,2,-37c0,0,1,-22,2,-81h2c0,0,47,84,108,119c0,0,60,34,151,34c0,0,132,0,194,-66c0,0,61,-66,61,-218V0H615V512c0,0,0,80,-15,124c0,0,-16,44,-50,63c0,0,-35,20,-101,20c0,0,-97,0,-153,-67c0,0,-56,-66,-56,-184V0Z" 
id="f0_2a"
transform="scale(0.001,-0.001)" />

<path d="M103,0V1107H237V0Z" 
id="f0_28"
transform="scale(0.001,-0.001)" />

<path d="M102,0V808H236V0Zm0,979v128H236V979Z" 
id="f0_25"
transform="scale(0.001,-0.001)" />

<path d="M643,478c0,0,-11,128,-65,187c0,0,-54,59,-154,59c0,0,-98,0,-155,-66c0,0,-57,-65,-62,-180ZM431,-14c0,0,-179,0,-272,106c0,0,-94,107,-94,317c0,0,0,200,94,307c0,0,93,106,267,106c0,0,356,0,356,-429V375H206c0,0,0,-138,57,-213c0,0,58,-75,168,-75c0,0,87,0,140,35c0,0,53,35,71,88L760,177c0,0,-72,-191,-329,-191Z" 
id="f0_21"
transform="scale(0.001,-0.001)" />

<path d="M17,0L304,415L31,808H179L380,493L580,808H730L457,417L747,0H598L380,331L162,0Z" 
id="f0_2k"
transform="scale(0.001,-0.001)" />

<path d="M339,87c0,0,74,0,132,34c0,0,57,33,90,91c0,0,34,59,34,121v66L448,396c0,0,-95,-2,-144,-19c0,0,-49,-18,-75,-55c0,0,-26,-38,-26,-98c0,0,0,-65,35,-101c0,0,36,-36,101,-36ZM309,-14c0,0,-122,0,-183,64c0,0,-61,64,-61,176c0,0,0,125,82,192c0,0,83,67,266,72l182,3v44c0,0,0,98,-42,141c0,0,-42,43,-132,43c0,0,-90,0,-131,-31c0,0,-41,-31,-49,-98L101,604c0,0,34,218,323,218c0,0,153,0,229,-70c0,0,77,-69,77,-202V202c0,0,0,-59,16,-90c0,0,16,-30,60,-30c0,0,19,0,44,5V4C850,4,799,-7,746,-7c0,0,-75,0,-109,38c0,0,-33,40,-38,124h-4C595,155,543,62,475,24c0,0,-68,-38,-166,-38Z" 
id="f0_1x"
transform="scale(0.001,-0.001)" />

<path d="M106,0V635c0,0,0,141,-5,173H228c0,0,1,-4,2,-21c0,0,1,-16,2,-37c0,0,1,-22,2,-81h2c0,0,44,86,100,120c0,0,56,33,136,33c0,0,92,0,145,-36c0,0,54,-37,75,-117h2c0,0,42,82,101,117c0,0,59,36,143,36c0,0,123,0,178,-66c0,0,56,-67,56,-218V0H1039V512c0,0,0,117,-32,162c0,0,-32,45,-116,45c0,0,-88,0,-136,-66c0,0,-49,-65,-49,-185V0H573V512c0,0,0,117,-32,162c0,0,-32,45,-116,45c0,0,-86,0,-136,-66c0,0,-50,-66,-50,-185V0Z" 
id="f0_29"
transform="scale(0.001,-0.001)" />

<path d="M453,84c0,0,100,0,146,74c0,0,46,73,46,247c0,0,0,169,-46,241c0,0,-45,73,-145,73c0,0,-80,0,-125,-34c0,0,-45,-34,-68,-105c0,0,-24,-71,-24,-186c0,0,0,-159,51,-234c0,0,51,-76,165,-76ZM103,-316V643c0,0,0,124,-5,165H228c0,0,1,-3,3,-22c0,0,1,-18,3,-56c0,0,2,-38,2,-52h3c0,0,36,75,94,110c0,0,59,34,156,34c0,0,149,0,223,-100c0,0,74,-100,74,-314c0,0,0,-422,-297,-422c0,0,-187,0,-251,140h-4c0,0,3,-6,3,-126V-316Z" 
id="f0_2c"
transform="scale(0.001,-0.001)" />

<path d="M420,84c0,0,121,0,173,78c0,0,52,77,52,243c0,0,0,167,-50,243c0,0,-50,76,-167,76c0,0,-118,0,-170,-78c0,0,-53,-77,-53,-241c0,0,0,-160,52,-241c0,0,52,-80,163,-80Zm1,-98c0,0,-176,0,-267,107c0,0,-90,108,-90,312c0,0,0,417,362,417c0,0,185,0,272,-102c0,0,88,-101,88,-315c0,0,0,-212,-94,-316C692,89,599,-14,421,-14Z" 
id="f0_2b"
transform="scale(0.001,-0.001)" />

<path d="M278,-11c0,0,-162,0,-162,182V710H23v98h99l39,181h90V808H400V710H251V200c0,0,0,-58,19,-82c0,0,19,-23,66,-23c0,0,27,0,77,10V6c0,0,-66,-17,-135,-17Z" 
id="f0_2g"
transform="scale(0.001,-0.001)" />

<path d="M102,0c0,0,22,54,31,110c0,0,10,55,10,135V922c0,0,0,81,-10,136c0,0,-9,55,-31,109H492c0,0,-23,-54,-32,-109c0,0,-9,-55,-9,-136V208c0,0,98,6,169,20c0,0,126,24,238,84L794,156L729,0Z" 
id="f1_1b"
transform="scale(0.001,-0.001)" />

<path d="M822,206c14,0,28,0,42,1c0,0,53,50,87,150c0,0,34,101,34,210c0,0,0,188,-132,297c0,0,-113,95,-296,95c-13,0,-27,-1,-42,-2c0,0,-53,-49,-86,-150c0,0,-34,-102,-34,-212c0,0,0,-186,132,-295c0,0,114,-94,295,-94ZM690,-20c0,0,-276,0,-452,168C238,148,63,317,63,581c0,0,0,266,175,435c0,0,176,169,452,169c0,0,277,0,452,-169c0,0,175,-169,175,-435c0,0,0,-264,-175,-433c0,0,-175,-168,-452,-168Z" 
id="f1_1e"
transform="scale(0.001,-0.001)" />

<path d="M108,0c0,0,22,54,31,110c0,0,10,55,10,135V985L-5,1167H418c0,0,21,-44,54,-99c0,0,34,-55,96,-146L857,495V922c0,0,0,81,-9,136c0,0,-9,55,-32,109h378c0,0,-23,-54,-32,-109c0,0,-9,-55,-9,-136V351c0,0,0,-76,11,-178c0,0,11,-101,27,-173H845c0,0,-7,25,-28,67c0,0,-21,42,-45,78L444,628V245c0,0,0,-80,9,-135c0,0,10,-56,32,-110Z" 
id="f1_1d"
transform="scale(0.001,-0.001)" />

<path d="M713,-20c0,0,-282,0,-462,158C251,138,70,297,70,546c0,0,0,281,186,460c0,0,186,179,477,179c0,0,102,0,165,-10c0,0,63,-11,151,-42V831c0,0,-63,58,-151,92c0,0,-87,34,-172,34c0,0,-142,0,-232,-105c0,0,-91,-105,-91,-270c0,0,0,-165,85,-270c0,0,85,-105,218,-105c0,0,42,1,87,12V373c0,0,0,81,-9,136c0,0,-10,55,-32,110h390c0,0,-22,-55,-32,-110c0,0,-9,-56,-9,-136V170c0,0,0,-32,9,-59c0,0,9,-27,31,-59V46c0,0,-186,-64,-428,-66Z" 
id="f1_16"
transform="scale(0.001,-0.001)" />

<path d="M693,499L573,830L462,499ZM-39,0c0,0,33,42,61,97c0,0,30,55,71,148l314,761c0,0,22,51,38,98c0,0,15,47,17,63H721c0,0,2,-16,18,-63c0,0,15,-47,37,-98L1091,245c0,0,41,-95,70,-150c0,0,30,-55,60,-95H849c0,0,3,25,-3,55c0,0,-6,30,-24,80L765,295H393L340,135c0,0,-17,-50,-22,-80c0,0,-5,-30,-2,-55Z" 
id="f1_10"
transform="scale(0.001,-0.001)" />

<path d="M367,-20c0,0,-85,0,-142,12C225,-8,167,2,83,35V332c0,0,41,-55,107,-90c0,0,66,-35,130,-35c0,0,51,0,84,31c0,0,32,31,32,81c0,0,0,49,-23,86c0,0,-22,37,-82,83c0,0,-126,98,-184,181c0,0,-57,82,-57,165c0,0,0,155,106,253c0,0,106,98,272,98c0,0,62,0,133,-13c0,0,71,-13,120,-33V867c0,0,-59,49,-104,70c0,0,-46,20,-94,20c0,0,-47,0,-76,-24c0,0,-29,-25,-29,-63c0,0,0,-41,20,-73c0,0,21,-31,75,-73c0,0,130,-101,189,-189c0,0,59,-87,59,-180c0,0,0,-165,-110,-270C651,85,541,-20,367,-20Z" 
id="f1_1i"
transform="scale(0.001,-0.001)" />

<path d="M324,0L78,922c0,0,-23,85,-44,140c0,0,-22,55,-50,105H376c0,0,-7,-56,-7,-99c0,0,1,-42,11,-89L479,513L610,998c0,0,11,42,21,91c0,0,10,49,13,78H861c0,0,4,-36,12,-85c0,0,9,-50,18,-84L1021,492l115,540c0,0,8,33,6,63c0,0,-1,31,-12,72h378c0,0,-30,-50,-52,-105c0,0,-21,-56,-45,-140L1166,0H925L741,597L565,0Z" 
id="f1_1m"
transform="scale(0.001,-0.001)" />

<path d="M102,0c0,0,22,54,31,110c0,0,10,55,10,135V922c0,0,0,81,-10,136c0,0,-9,55,-31,109H823L766,1041L709,913c0,0,-42,20,-137,36c0,0,-62,9,-121,13V697H798L728,569L657,441c0,0,-45,21,-131,36c0,0,-38,8,-75,11V206c0,0,117,6,201,22c0,0,126,24,239,84L827,156L762,0Z" 
id="f1_14"
transform="scale(0.001,-0.001)" />

<path d="M452,645c0,0,85,0,139,47c0,0,54,47,54,121c0,0,0,66,-51,107c0,0,-51,42,-132,42H442V645ZM93,0c0,0,22,54,32,110c0,0,9,55,9,135V922c0,0,0,81,-9,136c0,0,-10,55,-32,109H498c0,0,215,0,332,-90c0,0,117,-90,117,-256c0,0,0,-159,-129,-253c0,0,-46,-34,-103,-54L902,246c0,0,57,-82,107,-137c0,0,50,-55,115,-109H803c0,0,-30,0,-104,83c0,0,-73,83,-149,202L442,461V246c0,0,0,-81,9,-136c0,0,10,-56,32,-110Z" 
id="f1_1h"
transform="scale(0.001,-0.001)" />

<path d="M289,0c0,0,26,60,37,116c0,0,9,55,9,129V961c0,0,-94,-3,-160,-9c0,0,-116,-13,-188,-44l41,130l41,129H981L946,1042L912,917c0,0,-45,18,-154,32c0,0,-58,8,-115,11V245c0,0,0,-74,11,-129c0,0,10,-56,35,-116Z" 
id="f1_1j"
transform="scale(0.001,-0.001)" />

<path d="M319,0c0,0,22,54,31,110c0,0,10,55,10,135V518L134,922c0,0,-57,100,-95,155c0,0,-37,55,-71,90H351c0,0,4,-29,12,-53c0,0,7,-24,22,-54L517,787l152,273c0,0,14,25,23,49c0,0,9,24,16,58h354c0,0,-35,-33,-73,-88c0,0,-38,-56,-99,-157L668,536V245c0,0,0,-80,9,-135c0,0,9,-56,32,-110Z" 
id="f1_1o"
transform="scale(0.001,-0.001)" />

<path d="M462,650c0,0,82,0,133,46c0,0,52,47,52,119c0,0,0,65,-48,106c0,0,-49,41,-125,41H452V650ZM103,0c0,0,22,54,32,110c0,0,9,55,9,135V922c0,0,0,81,-10,136c0,0,-9,55,-31,109H505c0,0,212,0,327,-93c0,0,114,-94,114,-268c0,0,0,-166,-127,-264c0,0,-127,-97,-343,-97H452V246c0,0,0,-81,9,-136c0,0,9,-56,32,-110Z" 
id="f1_1f"
transform="scale(0.001,-0.001)" />

<path d="M821,206c13,0,26,0,40,1c0,0,53,33,86,127c0,0,34,94,34,210c0,0,0,198,-131,314c0,0,-114,101,-297,101c-13,0,-27,-1,-40,-2c0,0,-53,-49,-87,-144c0,0,-33,-95,-33,-195c0,0,0,-197,131,-312c0,0,115,-100,297,-100Zm413,-442c-84,0,-186,15,-288,68c0,0,-113,58,-202,151c0,0,-22,-3,-48,-3c-3,0,-6,0,-9,0c0,0,-276,0,-452,168C235,148,60,316,60,581c0,0,0,266,175,435c0,0,176,169,452,169c0,0,277,0,452,-169c0,0,175,-169,175,-435c0,0,0,-265,-176,-433c0,0,-29,-28,-59,-51c0,0,51,-79,111,-141c0,0,104,-109,233,-165c0,0,-78,-27,-189,-27Z" 
id="f1_1g"
transform="scale(0.001,-0.001)" />

<path d="M512,-17c0,0,-191,0,-285,112c0,0,-94,113,-93,341V922c0,0,0,81,-9,136c0,0,-10,55,-32,109H483c0,0,-22,-54,-32,-109c0,0,-9,-56,-9,-136V502c0,0,0,-147,43,-219c0,0,43,-72,130,-72c0,0,85,0,127,62c0,0,42,61,42,187V922c0,0,0,80,-9,136c0,0,-10,55,-32,109h390c0,0,-22,-54,-31,-109c0,0,-10,-55,-10,-136V245c0,0,0,-80,9,-135c0,0,10,-56,32,-110H815l6,86C821,86,703,-17,512,-17Z" 
id="f1_1k"
transform="scale(0.001,-0.001)" />

<path d="M105,0c0,0,22,54,32,110c0,0,9,55,9,135V922c0,0,0,80,-10,135c0,0,-9,55,-31,110H495c0,0,-23,-54,-32,-109c0,0,-9,-55,-9,-136V245c0,0,0,-80,9,-135c0,0,9,-56,32,-110Z" 
id="f1_18"
transform="scale(0.001,-0.001)" />

<path d="M449,-255c0,0,-184,222,-259,382c0,0,-75,160,-75,331c0,0,0,172,75,332c0,0,75,161,259,382H673c0,0,-156,-201,-220,-362c0,0,-64,-160,-64,-352c0,0,0,-192,64,-352c0,0,64,-160,220,-361Z" 
id="f1_b"
transform="scale(0.001,-0.001)" />

<path d="M509,204c0,0,67,0,111,43c0,0,45,42,45,105c0,0,0,66,-44,108c0,0,-43,42,-112,42c0,0,-66,0,-111,-44c0,0,-45,-43,-45,-106c0,0,0,-60,46,-104c0,0,46,-44,110,-44Zm0,-216c0,0,-188,0,-303,102C206,90,91,192,91,360c0,0,0,79,31,163c0,0,31,84,97,185l216,329c0,0,10,14,20,51c0,0,10,36,14,74H854c0,0,-29,-22,-65,-67c0,0,-35,-46,-94,-135L539,723c0,0,21,3,45,3c3,0,5,0,8,0c0,0,141,0,238,-101c0,0,97,-101,97,-247c0,0,0,-183,-111,-287C816,91,706,-12,509,-12Z" 
id="f1_p"
transform="scale(0.001,-0.001)" />

<path d="M90,0c0,0,22,54,32,110c0,0,9,55,9,135V996L-14,1167H428c0,0,2,-38,9,-63c0,0,8,-24,24,-44L752,691l296,369c0,0,23,28,33,53c0,0,10,24,11,54h346c0,0,-50,-120,-70,-208c0,0,-20,-88,-20,-184V245c0,0,0,-80,10,-135c0,0,9,-56,31,-110H999c0,0,23,54,32,110c0,0,9,55,9,135V675L741,291h-1L441,681V245c0,0,0,-80,9,-135c0,0,10,-56,32,-110Z" 
id="f1_1c"
transform="scale(0.001,-0.001)" />

<path d="M90,0c0,0,22,54,32,110c0,0,9,55,9,135V922c0,0,0,81,-9,136c0,0,-10,55,-32,109H480c0,0,-22,-54,-32,-109c0,0,-9,-55,-9,-136V739l269,348c0,0,23,27,33,45c0,0,11,18,14,35h396c0,0,-38,-23,-94,-79c0,0,-55,-55,-153,-166L651,635L957,245c0,0,84,-105,135,-160c0,0,51,-55,93,-85H749c0,0,-25,51,-60,107c0,0,-35,55,-95,138L439,463V245c0,0,0,-80,9,-135c0,0,10,-56,32,-110Z" 
id="f1_1a"
transform="scale(0.001,-0.001)" />

<path d="M650,-20c0,0,-257,0,-421,161C229,141,66,303,66,558c0,0,0,276,179,451c0,0,179,176,460,176c0,0,79,0,141,-8c0,0,62,-8,181,-32V841c0,0,-90,63,-161,88c0,0,-70,24,-163,24c0,0,-134,0,-220,-100c0,0,-85,-100,-85,-257c0,0,0,-178,82,-282c0,0,83,-104,223,-104c0,0,99,0,179,38c0,0,79,38,164,126V70C1046,70,928,17,846,-1c0,0,-82,-19,-196,-19Z" 
id="f1_12"
transform="scale(0.001,-0.001)" />

<path d="M99,0c0,0,22,54,32,110c0,0,9,55,9,135V922c0,0,0,81,-10,136c0,0,-9,55,-31,109H489c0,0,-23,-54,-32,-109c0,0,-9,-55,-9,-136V712H790V922c0,0,0,81,-9,136c0,0,-10,55,-32,109h390c0,0,-22,-54,-32,-109c0,0,-9,-55,-9,-136V245c0,0,0,-80,9,-135c0,0,10,-56,32,-110H749c0,0,22,54,32,110c0,0,9,55,9,135V478H448V245c0,0,0,-80,9,-135c0,0,9,-56,32,-110Z" 
id="f1_17"
transform="scale(0.001,-0.001)" />

<path d="M115,-255c0,0,156,201,220,361c0,0,64,160,64,352c0,0,0,192,-64,352c0,0,-64,161,-220,362H339c0,0,184,-222,259,-383c0,0,75,-160,75,-331c0,0,0,-171,-75,-332c0,0,-75,-160,-259,-381Z" 
id="f1_c"
transform="scale(0.001,-0.001)" />

<path d="M406,0V763H155V870h2c16,0,114,2,178,48c0,0,70,51,104,157H549V0Z" 
id="f2_k"
transform="scale(0.001,-0.001)" />

<path d="M212,0c0,0,51,270,162,500c0,0,109,222,281,422H57v131H799V934C799,934,623,726,515,498C515,498,408,269,362,0Z" 
id="f2_q"
transform="scale(0.001,-0.001)" />

<path d="M133,0V162H292V0Z" 
id="f2_h"
transform="scale(0.001,-0.001)" />

<path d="M528,-29c0,0,-215,0,-336,99C192,70,75,170,75,342v8H211c0,0,4,-119,87,-184c0,0,83,-65,231,-65c0,0,136,0,207,47c0,0,71,47,71,138c0,0,0,79,-47,118c0,0,-47,37,-187,71L382,520c0,0,-145,34,-207,96c0,0,-62,61,-62,169c0,0,0,158,107,250c0,0,107,92,289,92c0,0,185,0,295,-92c0,0,110,-93,117,-256H784c0,0,-9,104,-81,161c0,0,-72,56,-194,56c0,0,-125,0,-190,-48c0,0,-65,-49,-65,-142c0,0,0,-64,43,-95c0,0,43,-32,174,-62L662,603c0,0,154,-37,220,-108c0,0,65,-71,65,-201c0,0,0,-150,-113,-237c0,0,-113,-86,-306,-86Z" 
id="f2_1i"
transform="scale(0.001,-0.001)" />

<path d="M424,94c0,0,107,0,169,83c0,0,63,83,63,223c0,0,0,140,-63,224c0,0,-62,83,-169,83c0,0,-106,0,-168,-83c0,0,-62,-84,-62,-224c0,0,0,-140,62,-223c0,0,62,-83,168,-83Zm0,-114c0,0,-165,0,-268,115C156,95,54,211,54,400c0,0,0,189,102,306c0,0,103,116,268,116c0,0,168,0,270,-116c0,0,102,-117,102,-306c0,0,0,-189,-102,-305C694,95,592,-20,424,-20Z" 
id="f2_2a"
transform="scale(0.001,-0.001)" />

<path d="M103,0V1097H237V0Z" 
id="f2_27"
transform="scale(0.001,-0.001)" />

<path d="M310,0L12,799H168L383,145L604,799H752L454,0Z" 
id="f2_2h"
transform="scale(0.001,-0.001)" />

<path d="M649,461c0,0,-6,111,-55,172c0,0,-55,69,-160,69c0,0,-106,0,-170,-79c0,0,-50,-62,-60,-162ZM425,-20c0,0,-169,0,-266,106c0,0,-97,107,-97,297c0,0,0,201,102,320c0,0,103,119,276,119c0,0,157,0,253,-116c0,0,96,-117,96,-306l-1,-48H204c0,0,8,-119,54,-182c0,0,57,-76,180,-76c0,0,77,0,134,43c0,0,58,43,70,110H775C775,247,746,116,656,47c0,0,-90,-67,-231,-67Z" 
id="f2_20"
transform="scale(0.001,-0.001)" />

<path d="M292,-9c0,0,-88,0,-124,38c0,0,-36,39,-36,134V689H22V799H132v224H266V799H392V689H266V163c0,0,0,-27,21,-43c0,0,21,-15,57,-15h48V1C392,1,324,-9,292,-9Z" 
id="f2_2f"
transform="scale(0.001,-0.001)" />

<path d="M99,0V1097H233V690l23,30c0,0,87,102,219,102c0,0,132,0,203,-71c0,0,72,-72,72,-204V0H616V514c0,0,0,99,-38,142c0,0,-38,44,-124,44c0,0,-102,0,-162,-73c0,0,-59,-74,-59,-199V0Z" 
id="f2_23"
transform="scale(0.001,-0.001)" />

<path d="M132,0V687H22V799H132V935c0,0,0,88,52,133c0,0,52,45,157,45l59,-3V989l-53,2c0,0,-39,0,-60,-24c0,0,-21,-25,-21,-71V799H400V687H266V0Z" 
id="f2_21"
transform="scale(0.001,-0.001)" />

<path d="M248,0L21,799H169L322,163L478,799H627L788,158L950,799h133L857,0H713L548,624L392,0Z" 
id="f2_2i"
transform="scale(0.001,-0.001)" />

<path d="M104,0V799H238V0Zm-2,946v152H239V946Z" 
id="f2_24"
transform="scale(0.001,-0.001)" />

<path d="M99,0V799H226V681l30,39c0,0,87,102,219,102c0,0,132,0,203,-71c0,0,72,-72,72,-204V0H616V502c0,0,0,105,-41,151c0,0,-40,47,-132,47c0,0,-97,0,-154,-73c0,0,-56,-74,-56,-199V0Z" 
id="f2_29"
transform="scale(0.001,-0.001)" />

<path d="M418,95c0,0,98,0,158,73c0,0,59,73,59,193c0,0,0,170,-54,254c0,0,-54,85,-163,85c0,0,-113,0,-165,-72c0,0,-52,-71,-52,-227c0,0,0,-147,57,-227c0,0,56,-79,160,-79ZM394,-336c0,0,-136,0,-216,62c0,0,-79,63,-96,182H219c0,0,12,-64,57,-98c0,0,45,-35,116,-35c0,0,116,0,176,73c0,0,61,73,61,211V85l-1,-1C628,84,545,-20,412,-20c0,0,-161,0,-256,118c0,0,-94,120,-94,324c0,0,0,179,93,290c0,0,93,110,244,110c0,0,144,0,228,-124l10,-14V799H763V59c0,0,-1,-201,-91,-298c0,0,-91,-97,-278,-97Z" 
id="f2_22"
transform="scale(0.001,-0.001)" />

<path d="M411,93c0,0,98,0,158,73c0,0,60,74,60,195c0,0,0,163,-57,252c0,0,-56,88,-161,88c0,0,-113,0,-165,-72c0,0,-52,-72,-52,-229c0,0,0,-147,56,-227c0,0,56,-80,161,-80ZM404,-20c0,0,-161,0,-255,118c0,0,-95,120,-95,324c0,0,0,179,92,290c0,0,91,110,239,110c0,0,147,0,233,-124l11,-15v414H763V0H638V109L621,84C621,84,538,-20,404,-20Z" 
id="f2_1z"
transform="scale(0.001,-0.001)" />

<path d="M118,0V799H246V662c0,0,17,32,36,58c0,0,76,102,187,102c0,0,19,0,38,-6V679l-27,1c0,0,-109,0,-168,-66c0,0,-60,-65,-60,-186V0Z" 
id="f2_2d"
transform="scale(0.001,-0.001)" />

<path d="M335,90c0,0,106,0,179,57c0,0,50,41,67,91c0,0,3,10,4,31c0,0,3,21,3,47v87c0,0,-38,-18,-83,-25L381,360c0,0,-97,-13,-142,-45c0,0,-44,-31,-44,-86c0,0,0,-67,36,-103c0,0,37,-36,104,-36ZM309,-20c0,0,-117,0,-186,61c0,0,-68,63,-68,169c0,0,0,108,64,171c0,0,65,64,189,79l183,23c0,0,22,3,42,8c0,0,26,7,40,27c0,0,15,20,15,51v6c0,0,0,64,-49,101c0,0,-48,36,-135,36c0,0,-83,0,-130,-38c0,0,-46,-39,-56,-115H94c0,0,10,131,92,197c0,0,83,66,238,66c0,0,145,0,222,-63c0,0,76,-63,76,-184V137c0,0,0,-21,12,-33c0,0,12,-12,33,-12c0,0,6,0,18,1c0,0,11,2,25,5V1c0,0,-20,-7,-41,-11c0,0,-22,-5,-37,-5c0,0,-76,0,-110,41c0,0,-22,28,-32,79c0,0,-15,-19,-34,-36c0,0,-101,-89,-247,-89Z" 
id="f2_1w"
transform="scale(0.001,-0.001)" />

<path d="M406,93c0,0,97,0,156,73c0,0,59,74,59,195c0,0,0,163,-56,252c0,0,-55,88,-158,88c0,0,-111,0,-162,-72c0,0,-51,-73,-51,-229c0,0,0,-147,55,-227c0,0,55,-80,157,-80ZM621,-315V93l-7,-9C614,84,532,-20,400,-20c0,0,-159,0,-253,118c0,0,-93,119,-93,323c0,0,0,180,90,291c0,0,91,110,237,110c0,0,146,0,231,-124c0,0,10,-14,17,-29V799H755V-315Z" 
id="f2_2c"
transform="scale(0.001,-0.001)" />

<path d="M375,-20c0,0,-136,0,-203,66c0,0,-68,68,-68,204V799H238V284c0,0,0,-101,38,-146c0,0,39,-44,127,-44c0,0,97,0,153,75c0,0,57,75,57,203V799H747V0H620V122c0,0,-14,-22,-30,-41C590,81,504,-20,375,-20Z" 
id="f2_2g"
transform="scale(0.001,-0.001)" />

<path d="M393,-20c0,0,-169,0,-252,65c0,0,-83,67,-92,210H178c0,0,10,-85,61,-123c0,0,50,-38,154,-38c0,0,90,0,136,34c0,0,47,35,47,100c0,0,0,42,-31,64c0,0,-30,21,-123,43L283,368c0,0,-112,27,-160,75c0,0,-48,48,-48,135c0,0,0,112,80,178c0,0,81,66,218,66c0,0,140,0,222,-68c0,0,82,-67,88,-187H557c0,0,-6,67,-55,103c0,0,-48,37,-129,37c0,0,-84,0,-127,-29c0,0,-44,-29,-44,-85c0,0,0,-43,31,-65c0,0,30,-21,121,-43L493,452c0,0,117,-28,167,-78c0,0,49,-49,49,-138c0,0,0,-119,-86,-188c0,0,-85,-68,-230,-68Z" 
id="f2_2e"
transform="scale(0.001,-0.001)" />

<path d="M133,0V162H292V0Zm0,628V790H292V628Z" 
id="f2_t"
transform="scale(0.001,-0.001)" />

<path d="M365,-315c0,0,-136,187,-199,359c0,0,-62,172,-62,359c0,0,0,186,62,358c0,0,63,172,199,360h92c0,0,-110,-192,-160,-365c0,0,-51,-172,-51,-353c0,0,0,-183,51,-355c0,0,50,-172,160,-363Z" 
id="f2_b"
transform="scale(0.001,-0.001)" />

<path d="M52,-315c0,0,109,192,160,363c0,0,50,173,50,354c0,0,0,183,-50,355c0,0,-51,173,-160,364h92c0,0,135,-188,198,-360c0,0,63,-172,63,-359c0,0,0,-187,-63,-359c0,0,-63,-171,-198,-358Z" 
id="f2_c"
transform="scale(0.001,-0.001)" />

<path d="M412,-328c0,0,-195,96,-303,284C109,-44,0,142,0,365c0,0,0,232,114,422c0,0,114,191,298,273v-31c0,0,-92,-51,-151,-139c0,0,-59,-88,-88,-223c0,0,-29,-136,-29,-282c0,0,0,-167,27,-301c0,0,26,-133,82,-221c0,0,55,-89,159,-159v-32Z" 
id="f3_c"
transform="scale(0.001,-0.001)" />

<path d="M34,-328v32c0,0,92,50,151,138c0,0,59,88,88,222c0,0,29,135,29,283c0,0,0,165,-27,300c0,0,-26,134,-82,222c0,0,-56,89,-159,160v31c0,0,194,-96,303,-284c0,0,108,-187,108,-410c0,0,0,-232,-114,-422c0,0,-114,-191,-297,-272Z" 
id="f3_d"
transform="scale(0.001,-0.001)" />

<path d="M394,-20c0,0,-159,0,-253,113c0,0,-95,114,-95,307c0,0,0,193,98,308c0,0,98,114,264,114c0,0,144,0,230,-78c0,0,85,-79,91,-217H600c0,0,-8,86,-59,133c0,0,-52,47,-138,47c0,0,-101,0,-159,-82c0,0,-58,-82,-58,-225c0,0,0,-152,54,-229c0,0,53,-77,159,-77c0,0,79,0,132,50c0,0,52,51,69,143H729C729,287,709,137,623,58c0,0,-86,-78,-229,-78Z" 
id="f2_1y"
transform="scale(0.001,-0.001)" />

<path d="M99,-328c0,0,-46,0,-76,13l25,123c0,0,29,-14,81,-14c0,0,47,0,76,31c0,0,28,31,106,162L185,800H339L415,141L769,800H918L456,0C456,0,329,-216,269,-272c0,0,-61,-56,-170,-56Z" 
id="f4_2k"
transform="scale(0.001,-0.001)" />

<path d="M17,0L389,412L201,800H376L500,518L742,800H904L554,410L750,0H580L448,303L187,0Z" 
id="f4_2j"
transform="scale(0.001,-0.001)" />

<path d="M431,94c0,0,95,0,170,76c0,0,76,77,101,198c0,0,35,167,-1,250c0,0,-37,84,-144,84c0,0,-128,0,-210,-117c0,0,-81,-117,-81,-302c0,0,0,-90,43,-139c0,0,44,-50,122,-50ZM400,-20c0,0,-126,0,-199,79c0,0,-73,80,-73,219c0,0,0,234,122,390c0,0,122,155,305,155c0,0,144,0,209,-127l8,-16l86,417H993L767,0H638l22,108L642,90C642,90,532,-20,400,-20Z" 
id="f4_1z"
transform="scale(0.001,-0.001)" />

<path d="M62,-123V268c0,0,0,230,56,452c0,0,47,190,134,334c0,0,87,144,204,242c0,0,85,73,194,119l18,-16c0,0,-211,-145,-335,-339c0,0,-98,-156,-149,-374c0,0,-50,-218,-50,-403V-123Z" 
id="f3_4o"
transform="scale(0.001,-0.001)" />

<path d="M617,-123V283c0,0,0,236,-63,459c0,0,-63,223,-188,392c0,0,-108,146,-282,265l17,16c0,0,180,-76,320,-248c0,0,139,-172,204,-417c0,0,64,-245,64,-482V-123Z" 
id="f3_54"
transform="scale(0.001,-0.001)" />

<path d="M0,356v74H784V356Z" 
id="f3_h"
transform="scale(0.001,-0.001)" />

<path d="M0,214v74H784V214ZM0,494v72H784V494Z" 
id="f3_x"
transform="scale(0.001,-0.001)" />

<path d="M355,0V355H0v72H355V784h72V427H782V355H427V0Z" 
id="f3_f"
transform="scale(0.001,-0.001)" />

<path d="M62,-123V1415h72V-123Z" 
id="f3_4p"
transform="scale(0.001,-0.001)" />

<path d="M617,-123V1415h72V-123Z" 
id="f3_55"
transform="scale(0.001,-0.001)" />

<path d="M650,-123c0,0,-180,75,-319,246c0,0,-140,172,-205,418c0,0,-64,245,-64,481v393h72V1007c0,0,0,-236,63,-459c0,0,63,-223,189,-391c0,0,108,-145,282,-265l-18,-15Z" 
id="f3_4q"
transform="scale(0.001,-0.001)" />

<path d="M101,-123l-17,15c0,0,210,144,334,339c0,0,99,156,149,373c0,0,50,218,50,403v408h72V1022c0,0,0,-230,-56,-451c0,0,-48,-191,-134,-335C499,236,412,92,295,-5c0,0,-84,-73,-194,-118Z" 
id="f3_56"
transform="scale(0.001,-0.001)" />

<path d="M424,-28c0,0,-180,0,-272,86c0,0,-92,87,-100,266H192c0,0,12,-126,66,-180c0,0,55,-54,170,-54c0,0,100,0,163,57c0,0,64,57,64,147c0,0,0,94,-61,149c0,0,-52,48,-135,54c0,0,-38,2,-72,2c0,0,-34,0,-45,-3V613c0,0,17,-3,51,-3c0,0,35,0,68,4c0,0,66,8,106,43c0,0,55,45,55,125c0,0,0,77,-58,125c0,0,-58,48,-148,48c0,0,-96,0,-147,-58c0,0,-51,-59,-56,-175H82c0,0,0,168,89,260c0,0,88,93,250,93c0,0,153,0,247,-77c0,0,94,-76,94,-202c0,0,0,-124,-95,-201c0,0,-18,-15,-39,-27c0,0,39,-17,69,-41c0,0,101,-79,101,-214c0,0,0,-151,-105,-246c0,0,-104,-95,-269,-95Z" 
id="f2_m"
transform="scale(0.001,-0.001)" />

<path d="M748,462c0,0,3,31,3,63c0,0,0,86,-45,132c0,0,-46,45,-134,45c0,0,-100,0,-180,-85c0,0,-58,-63,-90,-155ZM419,-20c0,0,-136,0,-213,73c0,0,-77,74,-78,206c0,0,0,25,4,58c0,0,4,32,10,63c0,0,44,208,169,326c0,0,125,117,305,117c0,0,128,0,198,-73c0,0,71,-73,71,-207c0,0,1,-100,-24,-189H278l-4,-25c0,0,-3,-30,-3,-55c0,0,0,-90,44,-134c0,0,44,-45,133,-45c0,0,87,0,156,44c0,0,68,45,95,117H830C830,256,782,126,674,52c0,0,-108,-72,-255,-72Z" 
id="f4_20"
transform="scale(0.001,-0.001)" />

<path d="M390,-1V329H60V441H390V771H503V441H833V329H503V-1Z" 
id="f2_e"
transform="scale(0.001,-0.001)" />

<path d="M0,368V478H849V368Z" 
id="f2_99"
transform="scale(0.001,-0.001)" />

<path d="M39,0V0c0,0,0,170,84,277c0,0,85,108,317,236c0,0,113,62,154,115c0,0,41,52,41,134c0,0,0,86,-62,141c0,0,-61,54,-156,54c0,0,-101,0,-158,-68c0,0,-57,-68,-60,-194H67c0,0,-2,178,95,279c0,0,98,101,273,101c0,0,149,0,245,-89c0,0,94,-88,94,-228c0,0,0,-118,-60,-195c0,0,-61,-76,-229,-169C485,394,303,294,237,212c0,0,-28,-36,-46,-81H774V0Z" 
id="f2_l"
transform="scale(0.001,-0.001)" />

<path d="M60,174V286H832V174Zm0,309V595H832V483Z" 
id="f2_w"
transform="scale(0.001,-0.001)" />

<path d="M424,92c0,0,114,0,170,107c0,0,57,108,56,323c0,0,1,216,-56,324c0,0,-56,107,-170,107c0,0,-112,0,-168,-107c0,0,-56,-108,-57,-324c0,0,1,-215,57,-323c0,0,56,-107,168,-107Zm0,-120c0,0,-176,0,-271,142c0,0,-96,143,-96,408c0,0,0,265,96,409c0,0,95,144,271,144c0,0,178,0,273,-144c0,0,96,-144,96,-409c0,0,0,-265,-96,-408c0,0,-95,-142,-273,-142Z" 
id="f2_j"
transform="scale(0.001,-0.001)" />

<path d="M133,-224v71c0,0,47,8,65,52c0,0,14,33,17,101H133V163H292V27c0,0,0,-114,-36,-172c0,0,-37,-58,-123,-79Z" 
id="f2_f"
transform="scale(0.001,-0.001)" />

<path d="M511,373V863L169,383l-7,-10ZM511,0V258H38V383l496,691H646V373H799V258H646V0Z" 
id="f2_n"
transform="scale(0.001,-0.001)" />

<path d="M140,-21c0,0,-26,0,-44,17C96,-4,79,13,79,40c0,0,0,19,6,33c0,0,8,20,34,55c0,0,46,60,64,126c0,0,32,114,41,321H190c0,0,-55,0,-81,-18c0,0,-44,-26,-80,-89H0c0,0,42,129,98,178c0,0,43,37,120,37H743V575H562c0,0,-27,-171,-27,-327c0,0,0,-77,27,-110c0,0,27,-33,67,-33c0,0,33,0,56,22c0,0,24,22,31,65h27C743,192,730,74,686,26c0,0,-44,-47,-98,-47c0,0,-58,0,-97,51c0,0,-39,53,-39,198c0,0,0,91,28,347H286c0,0,-23,-390,-56,-494c0,0,-33,-102,-90,-102Z" 
id="f3_2c"
transform="scale(0.001,-0.001)" />

<path d="M693,499L573,830L462,499ZM-39,0c0,0,33,42,61,97c0,0,30,55,71,148l314,761c0,0,22,51,38,98c0,0,15,47,17,63H721c0,0,2,-16,18,-63c0,0,15,-47,37,-98L1091,245c0,0,41,-95,70,-150c0,0,30,-55,60,-95H849c0,0,3,25,-3,55c0,0,-6,30,-24,80L765,295H393L340,135c0,0,-17,-50,-22,-80c0,0,-5,-30,-2,-55Z" 
id="f5_10"
transform="scale(0.001,-0.001)" />

<path d="M108,0c0,0,22,54,31,110c0,0,10,55,10,135V985L-5,1167H418c0,0,21,-44,54,-99c0,0,34,-55,96,-146L857,495V922c0,0,0,81,-9,136c0,0,-9,55,-32,109h378c0,0,-23,-54,-32,-109c0,0,-9,-55,-9,-136V351c0,0,0,-76,11,-178c0,0,11,-101,27,-173H845c0,0,-7,25,-28,67c0,0,-21,42,-45,78L444,628V245c0,0,0,-80,9,-135c0,0,10,-56,32,-110Z" 
id="f5_1d"
transform="scale(0.001,-0.001)" />

<path d="M367,-20c0,0,-85,0,-142,12C225,-8,167,2,83,35V332c0,0,41,-55,107,-90c0,0,66,-35,130,-35c0,0,51,0,84,31c0,0,32,31,32,81c0,0,0,49,-23,86c0,0,-22,37,-82,83c0,0,-126,98,-184,181c0,0,-57,82,-57,165c0,0,0,155,106,253c0,0,106,98,272,98c0,0,62,0,133,-13c0,0,71,-13,120,-33V867c0,0,-59,49,-104,70c0,0,-46,20,-94,20c0,0,-47,0,-76,-24c0,0,-29,-25,-29,-63c0,0,0,-41,20,-73c0,0,21,-31,75,-73c0,0,130,-101,189,-189c0,0,59,-87,59,-180c0,0,0,-165,-110,-270C651,85,541,-20,367,-20Z" 
id="f5_1i"
transform="scale(0.001,-0.001)" />

<path d="M324,0L78,922c0,0,-23,85,-44,140c0,0,-22,55,-50,105H376c0,0,-7,-56,-7,-99c0,0,1,-42,11,-89L479,513L610,998c0,0,11,42,21,91c0,0,10,49,13,78H861c0,0,4,-36,12,-85c0,0,9,-50,18,-84L1021,492l115,540c0,0,8,33,6,63c0,0,-1,31,-12,72h378c0,0,-30,-50,-52,-105c0,0,-21,-56,-45,-140L1166,0H925L741,597L565,0Z" 
id="f5_1m"
transform="scale(0.001,-0.001)" />

<path d="M102,0c0,0,22,54,31,110c0,0,10,55,10,135V922c0,0,0,81,-10,136c0,0,-9,55,-31,109H823L766,1041L709,913c0,0,-42,20,-137,36c0,0,-62,9,-121,13V697H798L728,569L657,441c0,0,-45,21,-131,36c0,0,-38,8,-75,11V206c0,0,117,6,201,22c0,0,126,24,239,84L827,156L762,0Z" 
id="f5_14"
transform="scale(0.001,-0.001)" />

<path d="M452,645c0,0,85,0,139,47c0,0,54,47,54,121c0,0,0,66,-51,107c0,0,-51,42,-132,42H442V645ZM93,0c0,0,22,54,32,110c0,0,9,55,9,135V922c0,0,0,81,-9,136c0,0,-10,55,-32,109H498c0,0,215,0,332,-90c0,0,117,-90,117,-256c0,0,0,-159,-129,-253c0,0,-46,-34,-103,-54L902,246c0,0,57,-82,107,-137c0,0,50,-55,115,-109H803c0,0,-30,0,-104,83c0,0,-73,83,-149,202L442,461V246c0,0,0,-81,9,-136c0,0,10,-56,32,-110Z" 
id="f5_1h"
transform="scale(0.001,-0.001)" />

<path d="M367,0V750H106V903c0,0,3,-1,8,-1c26,0,105,4,171,45c0,0,79,49,121,141H581V0Z" 
id="f6_k"
transform="scale(0.001,-0.001)" />

<path d="M98,0V222H327V0Z" 
id="f6_h"
transform="scale(0.001,-0.001)" />

<path d="M417,-28c0,0,-161,0,-259,79c0,0,-98,81,-109,223H189c0,0,11,-90,72,-139c0,0,61,-49,162,-49c0,0,96,0,158,68c0,0,61,68,61,175c0,0,0,112,-64,178c0,0,-64,66,-173,66c0,0,-59,0,-115,-28c0,0,-55,-29,-84,-73L93,480l77,573H727V922H271L225,629l4,3c0,0,89,60,188,60c0,0,169,0,269,-94c0,0,99,-93,99,-253c0,0,0,-165,-103,-269C682,76,579,-28,417,-28Z" 
id="f2_o"
transform="scale(0.001,-0.001)" />

<path d="M39,0V0c0,0,0,149,75,256c0,0,76,107,284,253c0,0,93,65,131,119c0,0,38,54,38,121c0,0,0,72,-42,116c0,0,-42,44,-110,44c0,0,-74,0,-115,-55c0,0,-41,-55,-38,-150H53c0,0,-5,177,93,281c0,0,98,103,270,103c0,0,161,0,263,-95c0,0,101,-96,101,-247c0,0,0,-124,-57,-205c0,0,-58,-81,-217,-183c0,0,-147,-93,-201,-169v-1H780V0Z" 
id="f6_l"
transform="scale(0.001,-0.001)" />

<path d="M432,92c0,0,96,0,156,66c0,0,61,65,61,169c0,0,0,103,-61,169c0,0,-60,66,-156,66c0,0,-95,0,-156,-66c0,0,-61,-66,-61,-169c0,0,0,-104,61,-169c0,0,61,-66,156,-66ZM425,-28c0,0,-176,0,-271,135c0,0,-95,136,-95,388c0,0,0,278,103,429c0,0,103,151,293,151c0,0,142,0,226,-77c0,0,84,-76,90,-211H638c0,0,-8,80,-56,123c0,0,-47,43,-127,43c0,0,-125,0,-192,-119c0,0,-58,-102,-64,-278c0,0,100,127,255,127c0,0,152,0,245,-98c0,0,93,-98,93,-258c0,0,0,-161,-101,-259c0,0,-101,-96,-266,-96Z" 
id="f2_p"
transform="scale(0.001,-0.001)" />

<path d="M398,-20c0,0,-133,0,-209,72c0,0,-76,74,-76,202v3c0,0,0,27,4,60c0,0,4,33,10,63c0,0,43,208,168,326c0,0,126,117,306,117c0,0,131,0,192,-75c0,0,49,-61,50,-168l-3,-52H710c0,0,4,87,-33,131c0,0,-37,45,-113,45c0,0,-110,0,-184,-81c0,0,-75,-82,-107,-238c0,0,-6,-28,-9,-56c0,0,-3,-28,-3,-50c0,0,0,-88,43,-136c0,0,43,-48,121,-48c0,0,76,0,137,49c0,0,61,48,92,136H788C788,280,737,138,633,58c0,0,-103,-78,-235,-78Z" 
id="f4_1y"
transform="scale(0.001,-0.001)" />

<path d="M144,-381V1146H255V-381Z" 
id="f2_2n"
transform="scale(0.001,-0.001)" />

<path d="M415,-27c0,0,-177,0,-274,91c0,0,-98,93,-100,265H249c0,0,2,-92,42,-140c0,0,40,-48,115,-48c0,0,73,0,117,48c0,0,45,49,45,128c0,0,0,70,-45,112c0,0,-39,37,-99,41c0,0,-34,3,-63,3c0,0,-1,0,-4,0c-9,0,-26,0,-32,-2V629c0,0,4,-1,18,-1c5,0,12,0,20,1c0,0,29,1,61,5c0,0,51,6,81,35c0,0,37,36,37,102c0,0,0,64,-37,103c0,0,-36,39,-97,39c0,0,-70,0,-108,-44c0,0,-38,-45,-40,-127H64c0,0,2,166,95,256c0,0,94,90,264,90c0,0,146,0,239,-85c0,0,93,-85,93,-219c0,0,0,-115,-96,-189L630,575c0,0,37,-14,65,-37c0,0,93,-72,93,-218c0,0,0,-160,-101,-254c0,0,-101,-93,-272,-93Z" 
id="f6_m"
transform="scale(0.001,-0.001)" />

<path d="M-24,-29L348,1125H450L77,-29Z" 
id="f2_i"
transform="scale(0.001,-0.001)" />

<path d="M17,0L301,412L32,799H205L389,514L574,799H740L471,410L749,0H581L382,305L186,0Z" 
id="f2_2j"
transform="scale(0.001,-0.001)" />

<path d="M225,0c0,0,2,129,51,312c0,0,48,183,139,352c0,0,91,170,193,286H72v129H780V975C780,975,676,864,573,680C573,680,470,495,414,301C414,301,374,163,363,0Z" 
id="f7_r"
transform="scale(0.001,-0.001)" />

<path d="M125,0V1051H268V115H799V0Z" 
id="f0_1c"
transform="scale(0.001,-0.001)" />

<path d="M106,0V620c0,0,0,85,-5,188H228c0,0,6,-138,6,-165h3c0,0,32,103,74,141c0,0,42,38,118,38c0,0,27,0,54,-7V692c0,0,-26,7,-71,7c0,0,-84,0,-128,-72c0,0,-44,-72,-44,-206V0Z" 
id="f0_2e"
transform="scale(0.001,-0.001)" />

<path d="M606,-14c0,0,-164,0,-284,65c0,0,-119,66,-182,189c0,0,-63,123,-63,291c0,0,0,255,137,396c0,0,137,140,386,140c0,0,174,0,283,-59c0,0,109,-59,168,-189L915,779c0,0,-44,90,-123,131c0,0,-79,41,-196,41c0,0,-182,0,-278,-110c0,0,-96,-110,-96,-310c0,0,0,-200,102,-315c0,0,102,-115,282,-115c0,0,103,0,193,31c0,0,89,31,144,85V407H629V526h445V164c0,0,-83,-85,-205,-132c0,0,-121,-46,-263,-46Z" 
id="f0_17"
transform="scale(0.001,-0.001)" />

<path d="M355,-14c0,0,-133,0,-194,65c0,0,-62,66,-62,219V808H234V296c0,0,0,-80,16,-124c0,0,16,-44,50,-64c0,0,34,-19,101,-19c0,0,97,0,153,66c0,0,55,67,55,185V808H744V172c0,0,0,-141,4,-172H621c0,0,0,4,-1,20c0,0,-1,17,-2,38c0,0,-1,21,-3,80h-2C613,138,567,55,506,20c0,0,-61,-34,-151,-34Z" 
id="f0_2h"
transform="scale(0.001,-0.001)" />

<path d="M395,89c0,0,115,0,166,79c0,0,51,79,51,246c0,0,0,160,-51,235c0,0,-51,75,-164,75c0,0,-102,0,-147,-75c0,0,-45,-75,-45,-244c0,0,0,-170,45,-243c0,0,45,-73,145,-73ZM361,-14c0,0,-153,0,-225,102c0,0,-72,103,-72,312c0,0,0,422,297,422c0,0,92,0,153,-33c0,0,61,-34,98,-107h2l-2,90v335H747V166c0,0,0,-126,4,-166H623c0,0,-2,12,-5,55c0,0,-3,44,-3,75h-3c0,0,-37,-78,-98,-111c0,0,-62,-33,-153,-33Z" 
id="f0_20"
transform="scale(0.001,-0.001)" />

<path d="M140,0V163H285V0Z" 
id="f0_i"
transform="scale(0.001,-0.001)" />


</defs>
</svg>