<?xml version="1.0" encoding="UTF-8" standalone="no"?>
<!DOCTYPE svg PUBLIC "-//W3C//DTD SVG 1.1//EN"
"http://www.w3.org/Graphics/SVG/1.1/DTD/svg11.dtd">
<svg viewBox="0 0 698 1063" version="1.1" xmlns="http://www.w3.org/2000/svg" xmlns:xlink="http://www.w3.org/1999/xlink">
<defs>
<style type="text/css"><![CDATA[
.g0_101{
fill: none;
stroke: #000000;
stroke-width: 0.76511115;
stroke-linecap: round;
stroke-linejoin: miter;
}
.g1_101{
fill: none;
stroke: #000000;
stroke-width: 0.15277778;
stroke-linecap: round;
stroke-linejoin: miter;
}
.g2_101{
}
.g3_101{
fill: none;
stroke: #000000;
stroke-width: 0.7638889;
stroke-linecap: round;
stroke-linejoin: miter;
}
.g4_101{
fill: none;
stroke: #000000;
stroke-width: 0.7831999;
stroke-linecap: round;
stroke-linejoin: miter;
}
.g5_101{
fill: none;
stroke: #000000;
stroke-width: 0.75997776;
stroke-linecap: round;
stroke-linejoin: miter;
}
.g6_101{
fill: none;
stroke: #000000;
stroke-width: 0.7553333;
stroke-linecap: round;
stroke-linejoin: miter;
}
]]></style>
</defs>
<g fill="#D4D4D4" fill-opacity="0.56" >
<use xlink:href="#f0_1f" transform="matrix(50.9,-50.9,50.9,50.9,87.1,924.1)" />
<use xlink:href="#f0_2a" transform="matrix(50.9,-50.9,50.9,50.9,147.6,863.6)" />
<use xlink:href="#f0_28" transform="matrix(50.9,-50.9,50.9,50.9,190.9,820.3)" />
<use xlink:href="#f0_25" transform="matrix(50.9,-50.9,50.9,50.9,208.1,803.1)" />
<use xlink:href="#f0_2a" transform="matrix(50.9,-50.9,50.9,50.9,225.4,785.8)" />
<use xlink:href="#f0_21" transform="matrix(50.9,-50.9,50.9,50.9,268.7,742.5)" />
<use xlink:href="#f0_2k" transform="matrix(50.9,-50.9,50.9,50.9,311.9,699.3)" />
<use xlink:href="#f0_1x" transform="matrix(50.9,-50.9,50.9,50.9,350.8,660.4)" />
<use xlink:href="#f0_29" transform="matrix(50.9,-50.9,50.9,50.9,394,617.2)" />
<use xlink:href="#f0_2c" transform="matrix(50.9,-50.9,50.9,50.9,458.8,552.4)" />
<use xlink:href="#f0_2b" transform="matrix(50.9,-50.9,50.9,50.9,502.1,509.1)" />
<use xlink:href="#f0_25" transform="matrix(50.9,-50.9,50.9,50.9,545.3,465.9)" />
<use xlink:href="#f0_2a" transform="matrix(50.9,-50.9,50.9,50.9,562.6,448.6)" />
<use xlink:href="#f0_2g" transform="matrix(50.9,-50.9,50.9,50.9,605.8,405.4)" />
</g>
<g fill="#000000" >
<use xlink:href="#f1_s" transform="matrix(10.4,0,0,10.4,60.2,120.2)" />
<use xlink:href="#f1_h" transform="matrix(10.4,0,0,10.4,69.1,120.2)" />
<use xlink:href="#f1_1y" transform="matrix(10.4,0,0,10.4,91.9,120.2)" />
<use xlink:href="#f1_2a" transform="matrix(10.4,0,0,10.4,99.9,120.2)" />
<use xlink:href="#f1_2e" transform="matrix(10.4,0,0,10.4,108.8,120.2)" />
<use xlink:href="#f1_99" transform="matrix(7.4,0,0,7.4,116.8,114.9)" />
<use xlink:href="#f1_k" transform="matrix(7.4,0,0,7.4,123.2,114.9)" />
<use xlink:href="#f1_b" transform="matrix(10.4,0,0,10.4,136.8,120.2)" />
<use xlink:href="#f1_p" transform="matrix(10.4,0,0,10.4,142.1,120.2)" />
<use xlink:href="#f1_i" transform="matrix(10.4,0,0,10.4,151,120.2)" />
<use xlink:href="#f1_q" transform="matrix(10.4,0,0,10.4,155.4,120.2)" />
<use xlink:href="#f1_c" transform="matrix(10.4,0,0,10.4,164.3,120.2)" />
<use xlink:href="#f1_h" transform="matrix(10.4,0,0,10.4,169.6,120.2)" />
<use xlink:href="#f1_k" transform="matrix(10.4,0,0,10.4,51.2,173.7)" />
<use xlink:href="#f1_j" transform="matrix(10.4,0,0,10.4,60.1,173.7)" />
<use xlink:href="#f1_h" transform="matrix(10.4,0,0,10.4,69.3,173.7)" />
</g>
<path d="M95,168h11.5m26.6,0h39.3m26.6,0h42" class="g0_101" />
<g fill="#000000" >
<use xlink:href="#f2_2n" transform="matrix(10.4,0,0,11.4,323.4,172.1)" />
<use xlink:href="#f2_2p" transform="matrix(10.4,0,0,11.4,341.9,172.1)" />
<use xlink:href="#f1_k" transform="matrix(10.5,0,0,10.5,165.4,161.8)" />
<use xlink:href="#f1_l" transform="matrix(10.5,0,0,10.5,231.5,161.8)" />
<use xlink:href="#f1_f" transform="matrix(10.5,0,0,10.5,244.7,172.2)" />
<use xlink:href="#f1_j" transform="matrix(10.5,0,0,10.5,332.3,174.1)" />
<use xlink:href="#f3_2j" transform="matrix(10.5,0,0,10.5,96,161.8)" />
<use xlink:href="#f3_2k" transform="matrix(10.5,0,0,10.5,134.2,161.8)" />
<use xlink:href="#f3_2l" transform="matrix(10.5,0,0,10.5,199.8,161.8)" />
<use xlink:href="#f3_1w" transform="matrix(10.5,0,0,10.5,255.6,172.2)" />
<use xlink:href="#f3_1h" transform="matrix(10.5,0,0,10.5,288.7,172.2)" />
<use xlink:href="#f3_1w" transform="matrix(10.5,0,0,10.5,95.9,183)" />
<use xlink:href="#f3_1w" transform="matrix(10.5,0,0,10.5,147.9,183)" />
<use xlink:href="#f3_1w" transform="matrix(10.5,0,0,10.5,215.1,183)" />
<use xlink:href="#f2_h" transform="matrix(10.5,0,0,10.5,150.9,161.8)" />
<use xlink:href="#f2_h" transform="matrix(10.5,0,0,10.5,216,161.8)" />
<use xlink:href="#f2_x" transform="matrix(10.5,0,0,10.5,115.5,172.2)" />
<use xlink:href="#f2_x" transform="matrix(10.5,0,0,10.5,181.3,172.2)" />
<use xlink:href="#f2_40" transform="matrix(10.5,0,0,10.5,272.8,172.2)" />
<use xlink:href="#f2_h" transform="matrix(10.5,0,0,10.5,308.5,172.2)" />
<use xlink:href="#f1_k" transform="matrix(10.4,0,0,10.4,51.2,237.9)" />
<use xlink:href="#f1_k" transform="matrix(10.4,0,0,10.4,60.1,237.9)" />
<use xlink:href="#f1_h" transform="matrix(10.4,0,0,10.4,69.3,237.9)" />
</g>
<path d="M96.3,244l1.6,-.9l3.9,6.4L106,232.7h17.9" class="g1_101" />
<path fill-rule="evenodd" d="M96.2,243.8l2.1,-1.2l3.5,5.4l4,-15.7h18.1v.7H106.3l-4.1,16.5h-.7l-3.9,-5.9l-1.1,.7l-.3,-.5Z" class="g2_101" />
<path d="M95,230h30.1" class="g3_101" />
<g fill="#000000" >
<use xlink:href="#f1_k" transform="matrix(10.7,0,0,10.6,100.5,223.7)" />
<use xlink:href="#f1_j" transform="matrix(10.7,0,0,10.6,109.5,223.7)" />
<use xlink:href="#f1_k" transform="matrix(10.7,0,0,10.6,105.3,248.5)" />
<use xlink:href="#f1_n" transform="matrix(10.7,0,0,10.6,114.4,248.5)" />
<use xlink:href="#f1_k" transform="matrix(10.4,0,0,10.4,344.5,237.9)" />
<use xlink:href="#f1_l" transform="matrix(10.4,0,0,10.4,353.4,237.9)" />
<use xlink:href="#f1_h" transform="matrix(10.4,0,0,10.4,362.6,237.9)" />
<use xlink:href="#f1_99" transform="matrix(10.4,0,0,10.4,385.2,237.9)" />
<use xlink:href="#f1_l" transform="matrix(10.4,0,0,10.4,394.4,237.9)" />
<use xlink:href="#f1_k" transform="matrix(10.4,0,0,10.4,51.2,305.2)" />
<use xlink:href="#f1_m" transform="matrix(10.4,0,0,10.4,60.1,305.2)" />
<use xlink:href="#f1_h" transform="matrix(10.4,0,0,10.4,69.3,305.2)" />
</g>
<path d="M95,299.4h10.6" class="g4_101" />
<g fill="#000000" >
<use xlink:href="#f1_k" transform="matrix(10.5,0,0,10.5,96.5,293.3)" />
<use xlink:href="#f1_p" transform="matrix(10.5,0,0,10.5,95.8,314.4)" />
<use xlink:href="#f1_k" transform="matrix(10.4,0,0,10.4,344.5,305.2)" />
<use xlink:href="#f1_n" transform="matrix(10.4,0,0,10.4,353.4,305.2)" />
<use xlink:href="#f1_h" transform="matrix(10.4,0,0,10.4,362.6,305.2)" />
<use xlink:href="#f3_2j" transform="matrix(10.4,0,0,10.4,385.2,305.2)" />
<use xlink:href="#f1_e" transform="matrix(10.4,0,0,10.4,399.9,305.2)" />
<use xlink:href="#f3_2k" transform="matrix(10.4,0,0,10.4,416,305.2)" />
<use xlink:href="#f1_e" transform="matrix(10.4,0,0,10.4,430.7,305.2)" />
<use xlink:href="#f3_2l" transform="matrix(10.4,0,0,10.4,446.8,305.2)" />
<use xlink:href="#f1_w" transform="matrix(10.4,0,0,10.4,461.5,305.2)" />
<use xlink:href="#f1_k" transform="matrix(10.4,0,0,10.4,477.6,305.2)" />
<use xlink:href="#f1_k" transform="matrix(10.4,0,0,10.4,51.2,351.4)" />
<use xlink:href="#f1_o" transform="matrix(10.4,0,0,10.4,60.1,351.4)" />
<use xlink:href="#f1_h" transform="matrix(10.4,0,0,10.4,69.3,351.4)" />
<use xlink:href="#f1_1d" transform="matrix(10.4,0,0,10.4,91.9,351.4)" />
<use xlink:href="#f1_2a" transform="matrix(10.4,0,0,10.4,103.7,351.4)" />
<use xlink:href="#f1_k" transform="matrix(10.4,0,0,10.4,344.5,351.4)" />
<use xlink:href="#f1_p" transform="matrix(10.4,0,0,10.4,353.4,351.4)" />
<use xlink:href="#f1_h" transform="matrix(10.4,0,0,10.4,362.6,351.4)" />
<use xlink:href="#f1_99" transform="matrix(10.4,0,0,10.4,385.2,351.4)" />
<use xlink:href="#f1_l" transform="matrix(10.4,0,0,10.4,394.1,351.4)" />
<use xlink:href="#f3_2j" transform="matrix(10.4,0,0,10.4,402.8,351.4)" />
<use xlink:href="#f1_e" transform="matrix(10.4,0,0,10.4,417.7,351.4)" />
<use xlink:href="#f3_2k" transform="matrix(10.4,0,0,10.4,433.8,351.4)" />
<use xlink:href="#f1_99" transform="matrix(10.4,0,0,10.4,448.7,351.4)" />
<use xlink:href="#f1_m" transform="matrix(10.4,0,0,10.4,464.5,351.4)" />
<use xlink:href="#f3_2l" transform="matrix(10.4,0,0,10.4,473.2,351.4)" />
<use xlink:href="#f1_w" transform="matrix(10.4,0,0,10.4,488.1,351.4)" />
<use xlink:href="#f1_r" transform="matrix(10.4,0,0,10.4,504.4,351.4)" />
<use xlink:href="#f1_k" transform="matrix(10.4,0,0,10.4,51.2,398.3)" />
<use xlink:href="#f1_q" transform="matrix(10.4,0,0,10.4,60.1,398.3)" />
<use xlink:href="#f1_h" transform="matrix(10.4,0,0,10.4,69.3,398.3)" />
<use xlink:href="#f4_4" transform="matrix(13.8,0,0,10.3,209.4,391.2)" />
<use xlink:href="#f2_c" transform="matrix(10.3,0,0,16.5,126.7,396.4)" />
<use xlink:href="#f2_d" transform="matrix(10.3,0,0,16.5,219.2,396.4)" />
<use xlink:href="#f1_l" transform="matrix(10.4,0,0,10.3,133.6,396.9)" />
<use xlink:href="#f1_l" transform="matrix(10.4,0,0,10.3,199.2,396.9)" />
<use xlink:href="#f1_l" transform="matrix(10.4,0,0,10.3,249.9,396.9)" />
<use xlink:href="#f1_n" transform="matrix(10.4,0,0,10.3,259,396.9)" />
<use xlink:href="#f3_2d" transform="matrix(10.4,0,0,10.3,98.7,396.9)" />
<use xlink:href="#f3_24" transform="matrix(10.4,0,0,10.3,141.8,396.9)" />
<use xlink:href="#f3_25" transform="matrix(10.4,0,0,10.3,171.3,396.9)" />
<use xlink:href="#f3_26" transform="matrix(10.4,0,0,10.3,207.5,396.9)" />
<use xlink:href="#f2_49" transform="matrix(10.4,0,0,10.3,117.4,396.9)" />
<use xlink:href="#f2_f" transform="matrix(10.4,0,0,10.3,154.1,396.9)" />
<use xlink:href="#f2_f" transform="matrix(10.4,0,0,10.3,183.6,396.9)" />
<use xlink:href="#f2_x" transform="matrix(10.4,0,0,10.3,232.6,396.9)" />
<use xlink:href="#f4_23" transform="matrix(10.4,0,0,10.3,94.8,382.6)" />
<use xlink:href="#f4_23" transform="matrix(10.4,0,0,10.3,100.5,382.6)" />
<use xlink:href="#f4_20" transform="matrix(10.4,0,0,10.3,104.7,382.6)" />
<use xlink:href="#f4_4" transform="matrix(10.4,0,0,10.3,142.2,391.2)" />
<use xlink:href="#f4_4" transform="matrix(10.4,0,0,10.3,170.6,391.2)" />
<use xlink:href="#f1_k" transform="matrix(10.4,0,0,10.4,344.5,398.3)" />
<use xlink:href="#f1_r" transform="matrix(10.4,0,0,10.4,353.4,398.3)" />
<use xlink:href="#f1_h" transform="matrix(10.4,0,0,10.4,362.6,398.3)" />
<use xlink:href="#f1_l" transform="matrix(10.4,0,0,10.4,385.2,398.3)" />
<use xlink:href="#f3_2j" transform="matrix(10.4,0,0,10.4,394,398.3)" />
<use xlink:href="#f1_e" transform="matrix(10.4,0,0,10.4,408.9,398.3)" />
<use xlink:href="#f1_m" transform="matrix(10.4,0,0,10.4,425,398.3)" />
<use xlink:href="#f3_2k" transform="matrix(10.4,0,0,10.4,433.8,398.3)" />
<use xlink:href="#f1_e" transform="matrix(10.4,0,0,10.4,448.7,398.3)" />
<use xlink:href="#f1_n" transform="matrix(10.4,0,0,10.4,464.8,398.3)" />
<use xlink:href="#f3_2l" transform="matrix(10.4,0,0,10.4,473.6,398.3)" />
<use xlink:href="#f1_w" transform="matrix(10.4,0,0,10.4,488.5,398.3)" />
<use xlink:href="#f1_l" transform="matrix(10.4,0,0,10.4,504.7,398.3)" />
<use xlink:href="#f1_s" transform="matrix(10.4,0,0,10.4,513.6,398.3)" />
<use xlink:href="#f1_k" transform="matrix(10.4,0,0,10.4,51.2,449.7)" />
<use xlink:href="#f1_s" transform="matrix(10.4,0,0,10.4,60.1,449.7)" />
<use xlink:href="#f1_h" transform="matrix(10.4,0,0,10.4,69.3,449.7)" />
</g>
<path d="M149.7,444.4h16.7" class="g5_101" />
<g fill="#000000" >
<use xlink:href="#f1_k" transform="matrix(7.8,0,0,7.8,129.4,439.1)" />
<use xlink:href="#f1_k" transform="matrix(10.4,0,0,10.4,149.9,438.3)" />
<use xlink:href="#f1_k" transform="matrix(10.4,0,0,10.4,158.8,438.3)" />
<use xlink:href="#f1_1y" transform="matrix(10.4,0,0,10.4,94.5,448.6)" />
<use xlink:href="#f1_2a" transform="matrix(10.4,0,0,10.4,102.5,448.6)" />
<use xlink:href="#f1_2e" transform="matrix(10.4,0,0,10.4,111.3,448.6)" />
<use xlink:href="#f1_l" transform="matrix(10.4,0,0,10.4,150.5,459.3)" />
<use xlink:href="#f1_k" transform="matrix(10.4,0,0,10.4,159.4,459.3)" />
<use xlink:href="#f2_h" transform="matrix(7.8,0,0,7.8,122.9,439.1)" />
<use xlink:href="#f2_4o" transform="matrix(10.4,0,0,10.4,140,439.5)" />
<use xlink:href="#f2_54" transform="matrix(10.4,0,0,10.4,168.1,439.5)" />
<use xlink:href="#f2_4q" transform="matrix(10.4,0,0,10.4,140,455.7)" />
<use xlink:href="#f2_56" transform="matrix(10.4,0,0,10.4,168.1,455.7)" />
<use xlink:href="#f1_l" transform="matrix(10.4,0,0,10.4,344.5,449.7)" />
<use xlink:href="#f1_j" transform="matrix(10.4,0,0,10.4,353.4,449.7)" />
<use xlink:href="#f1_h" transform="matrix(10.4,0,0,10.4,362.6,449.7)" />
<use xlink:href="#f1_j" transform="matrix(10.4,0,0,10.4,385.2,449.7)" />
<use xlink:href="#f1_b" transform="matrix(10.4,0,0,10.4,401.3,449.7)" />
<use xlink:href="#f1_27" transform="matrix(10.4,0,0,10.4,406.6,449.7)" />
<use xlink:href="#f1_24" transform="matrix(10.4,0,0,10.4,410.1,449.7)" />
<use xlink:href="#f1_29" transform="matrix(10.4,0,0,10.4,413.7,449.7)" />
<use xlink:href="#f1_20" transform="matrix(10.4,0,0,10.4,422.5,449.7)" />
<use xlink:href="#f1_24" transform="matrix(10.4,0,0,10.4,438.7,449.7)" />
<use xlink:href="#f1_2e" transform="matrix(10.4,0,0,10.4,442.3,449.7)" />
<use xlink:href="#f1_2b" transform="matrix(10.4,0,0,10.4,457.4,449.7)" />
<use xlink:href="#f1_1w" transform="matrix(10.4,0,0,10.4,466.3,449.7)" />
<use xlink:href="#f1_2d" transform="matrix(10.4,0,0,10.4,475.1,449.7)" />
<use xlink:href="#f1_1w" transform="matrix(10.4,0,0,10.4,480.4,449.7)" />
<use xlink:href="#f1_27" transform="matrix(10.4,0,0,10.4,489.3,449.7)" />
<use xlink:href="#f1_27" transform="matrix(10.4,0,0,10.4,492.8,449.7)" />
<use xlink:href="#f1_20" transform="matrix(10.4,0,0,10.4,496.4,449.7)" />
<use xlink:href="#f1_27" transform="matrix(10.4,0,0,10.4,505.3,449.7)" />
<use xlink:href="#f1_2f" transform="matrix(10.4,0,0,10.4,516.1,449.7)" />
<use xlink:href="#f1_2a" transform="matrix(10.4,0,0,10.4,520.6,449.7)" />
<use xlink:href="#f1_2b" transform="matrix(10.4,0,0,10.4,536.6,449.7)" />
<use xlink:href="#f1_27" transform="matrix(10.4,0,0,10.4,545.5,449.7)" />
<use xlink:href="#f1_1w" transform="matrix(10.4,0,0,10.4,549,449.7)" />
<use xlink:href="#f1_29" transform="matrix(10.4,0,0,10.4,557.9,449.7)" />
<use xlink:href="#f1_20" transform="matrix(10.4,0,0,10.4,566.7,449.7)" />
<use xlink:href="#f1_c" transform="matrix(10.4,0,0,10.4,575.6,449.7)" />
<use xlink:href="#f1_l" transform="matrix(10.4,0,0,10.4,51.2,506.5)" />
<use xlink:href="#f1_k" transform="matrix(10.4,0,0,10.4,60.1,506.5)" />
<use xlink:href="#f1_h" transform="matrix(10.4,0,0,10.4,69.3,506.5)" />
<use xlink:href="#f1_b" transform="matrix(10.4,0,0,10.4,91.9,506.5)" />
<use xlink:href="#f1_99" transform="matrix(10.4,0,0,10.4,97.2,506.5)" />
<use xlink:href="#f1_k" transform="matrix(10.4,0,0,10.4,106.1,506.5)" />
<use xlink:href="#f1_f" transform="matrix(10.4,0,0,10.4,115,506.5)" />
<use xlink:href="#f1_l" transform="matrix(10.4,0,0,10.4,126.5,506.5)" />
<use xlink:href="#f1_f" transform="matrix(10.4,0,0,10.4,135.4,506.5)" />
<use xlink:href="#f1_99" transform="matrix(10.4,0,0,10.4,147.2,506.5)" />
<use xlink:href="#f1_l" transform="matrix(10.4,0,0,10.4,156.1,506.5)" />
<use xlink:href="#f1_c" transform="matrix(10.4,0,0,10.4,164.9,506.5)" />
<use xlink:href="#f1_l" transform="matrix(10.4,0,0,10.4,344.5,506.5)" />
<use xlink:href="#f1_l" transform="matrix(10.4,0,0,10.4,353.4,506.5)" />
<use xlink:href="#f1_h" transform="matrix(10.4,0,0,10.4,362.6,506.5)" />
</g>
<path d="M398.5,511.7l1.6,-.9l3.9,6.4l4.1,-16.9h10" class="g1_101" />
<path fill-rule="evenodd" d="M398.4,511.5l2.1,-1.2l3.5,5.4l3.9,-15.8h10.2v.8h-9.7l-4,16.5h-.8l-3.9,-5.9l-1,.7l-.3,-.5Z" class="g2_101" />
<path d="M388.3,497.6h31" class="g6_101" />
<g fill="#000000" >
<use xlink:href="#f1_k" transform="matrix(10.5,0,0,10.5,394.2,491.4)" />
<use xlink:href="#f1_j" transform="matrix(10.5,0,0,10.5,403.2,491.4)" />
<use xlink:href="#f1_m" transform="matrix(10.5,0,0,10.5,388.9,515.9)" />
<use xlink:href="#f1_m" transform="matrix(10.5,0,0,10.5,408.5,515.9)" />
<use xlink:href="#f1_l" transform="matrix(10.4,0,0,10.4,51.2,552.7)" />
<use xlink:href="#f1_m" transform="matrix(10.4,0,0,10.4,60.1,552.7)" />
<use xlink:href="#f1_h" transform="matrix(10.4,0,0,10.4,69.3,552.7)" />
<use xlink:href="#f5_a" transform="matrix(10.3,0,0,14.2,192.2,551.2)" />
<use xlink:href="#f5_b" transform="matrix(10.3,0,0,14.2,294.5,551.2)" />
<use xlink:href="#f1_p" transform="matrix(10.5,0,0,10.4,199.4,552.4)" />
<use xlink:href="#f1_n" transform="matrix(10.5,0,0,10.4,236.5,552.4)" />
<use xlink:href="#f1_m" transform="matrix(10.5,0,0,10.4,275.4,552.4)" />
<use xlink:href="#f3_2d" transform="matrix(10.5,0,0,10.4,98.7,552.4)" />
<use xlink:href="#f3_2a" transform="matrix(10.5,0,0,10.4,141.9,552.4)" />
<use xlink:href="#f3_24" transform="matrix(10.5,0,0,10.4,207.5,552.4)" />
<use xlink:href="#f3_25" transform="matrix(10.5,0,0,10.4,246.5,552.4)" />
<use xlink:href="#f3_26" transform="matrix(10.5,0,0,10.4,283.5,552.4)" />
<use xlink:href="#f5_v" transform="matrix(10.4,0,0,10.4,118.4,552.4)" />
<use xlink:href="#f5_d" transform="matrix(10.4,0,0,10.4,162.2,552.4)" />
<use xlink:href="#f5_26" transform="matrix(10.4,0,0,10.4,179.9,552.4)" />
<use xlink:href="#f5_d" transform="matrix(10.4,0,0,10.4,218.8,552.4)" />
<use xlink:href="#f5_d" transform="matrix(10.4,0,0,10.4,257.8,552.4)" />
<use xlink:href="#f6_23" transform="matrix(10.4,0,0,10.4,95.2,537.6)" />
<use xlink:href="#f6_23" transform="matrix(10.4,0,0,10.4,101.4,537.6)" />
<use xlink:href="#f6_20" transform="matrix(10.4,0,0,10.4,104.1,537.6)" />
<use xlink:href="#f6_23" transform="matrix(10.4,0,0,10.4,138.4,537.6)" />
<use xlink:href="#f6_23" transform="matrix(10.4,0,0,10.4,144.6,537.6)" />
<use xlink:href="#f6_20" transform="matrix(10.4,0,0,10.4,149.3,537.6)" />
<use xlink:href="#f6_4" transform="matrix(10.4,0,0,10.4,205.7,546.8)" />
<use xlink:href="#f6_4" transform="matrix(10.4,0,0,10.4,243.7,546.8)" />
<use xlink:href="#f6_4" transform="matrix(10.4,0,0,10.4,283.8,546.8)" />
<use xlink:href="#f1_l" transform="matrix(10.4,0,0,10.4,51.2,585.9)" />
<use xlink:href="#f1_n" transform="matrix(10.4,0,0,10.4,60.1,585.9)" />
<use xlink:href="#f1_h" transform="matrix(10.4,0,0,10.4,69.3,585.9)" />
<use xlink:href="#f3_26" transform="matrix(10.4,0,0,10.4,91.9,585.9)" />
<use xlink:href="#f1_w" transform="matrix(10.4,0,0,10.4,106.8,585.9)" />
<use xlink:href="#f1_q" transform="matrix(10.4,0,0,10.4,122.9,585.9)" />
<use xlink:href="#f1_l" transform="matrix(10.4,0,0,10.4,344.5,585.9)" />
<use xlink:href="#f1_o" transform="matrix(10.4,0,0,10.4,353.4,585.9)" />
<use xlink:href="#f1_h" transform="matrix(10.4,0,0,10.4,362.6,585.9)" />
<use xlink:href="#f1_o" transform="matrix(10.4,0,0,10.4,385.2,585.9)" />
<use xlink:href="#f3_2j" transform="matrix(10.4,0,0,10.4,394,585.9)" />
<use xlink:href="#f1_99" transform="matrix(10.4,0,0,10.4,408.9,585.9)" />
<use xlink:href="#f1_q" transform="matrix(10.4,0,0,10.4,424.5,585.9)" />
<use xlink:href="#f3_2k" transform="matrix(10.4,0,0,10.4,433.3,585.9)" />
<use xlink:href="#f1_e" transform="matrix(10.4,0,0,10.4,448.1,585.9)" />
<use xlink:href="#f1_k" transform="matrix(10.4,0,0,10.4,464.4,585.9)" />
<use xlink:href="#f1_k" transform="matrix(10.4,0,0,10.4,473.3,585.9)" />
<use xlink:href="#f3_2l" transform="matrix(10.4,0,0,10.4,482,585.9)" />
<use xlink:href="#f1_e" transform="matrix(10.4,0,0,10.4,496.9,585.9)" />
<use xlink:href="#f1_n" transform="matrix(10.4,0,0,10.4,513,585.9)" />
<use xlink:href="#f1_w" transform="matrix(10.4,0,0,10.4,528.8,585.9)" />
<use xlink:href="#f1_j" transform="matrix(10.4,0,0,10.4,544.9,585.9)" />
<use xlink:href="#f1_h" transform="matrix(10.4,0,0,10.4,553.8,585.9)" />
<use xlink:href="#f1_l" transform="matrix(10.4,0,0,10.4,51.2,625.7)" />
<use xlink:href="#f1_p" transform="matrix(10.4,0,0,10.4,60.1,625.7)" />
<use xlink:href="#f1_h" transform="matrix(10.4,0,0,10.4,69.3,625.7)" />
<use xlink:href="#f4_4" transform="matrix(14.2,0,0,10.7,256,620.8)" />
<use xlink:href="#f2_c" transform="matrix(10.6,0,0,17.1,126.5,626.2)" />
<use xlink:href="#f2_d" transform="matrix(10.6,0,0,17.1,266,626.2)" />
<use xlink:href="#f1_99" transform="matrix(10.7,0,0,10.7,133.9,626.6)" />
<use xlink:href="#f1_o" transform="matrix(10.7,0,0,10.7,143,626.6)" />
<use xlink:href="#f1_k" transform="matrix(10.7,0,0,10.7,152,626.6)" />
<use xlink:href="#f1_99" transform="matrix(10.7,0,0,10.7,174.4,626.6)" />
<use xlink:href="#f1_k" transform="matrix(10.7,0,0,10.7,189.2,626.6)" />
<use xlink:href="#f1_o" transform="matrix(10.7,0,0,10.7,198.2,626.6)" />
<use xlink:href="#f1_o" transform="matrix(10.7,0,0,10.7,236.7,626.6)" />
<use xlink:href="#f1_j" transform="matrix(10.7,0,0,10.7,245.8,626.6)" />
<use xlink:href="#f1_k" transform="matrix(10.7,0,0,10.7,295.4,626.6)" />
<use xlink:href="#f1_q" transform="matrix(10.7,0,0,10.7,304.5,626.6)" />
<use xlink:href="#f1_m" transform="matrix(10.7,0,0,10.7,313.5,626.6)" />
<use xlink:href="#f3_2d" transform="matrix(10.7,0,0,10.7,98.6,626.6)" />
<use xlink:href="#f3_24" transform="matrix(10.7,0,0,10.7,161.9,626.6)" />
<use xlink:href="#f3_25" transform="matrix(10.7,0,0,10.7,208.7,626.6)" />
<use xlink:href="#f3_26" transform="matrix(10.7,0,0,10.7,254.2,626.6)" />
<use xlink:href="#f2_49" transform="matrix(10.7,0,0,10.7,117.3,626.6)" />
<use xlink:href="#f2_f" transform="matrix(10.7,0,0,10.7,220.9,626.6)" />
<use xlink:href="#f2_x" transform="matrix(10.7,0,0,10.7,279.1,626.6)" />
<use xlink:href="#f4_23" transform="matrix(10.7,0,0,10.7,94.7,612)" />
<use xlink:href="#f4_23" transform="matrix(10.7,0,0,10.7,100.4,612)" />
<use xlink:href="#f4_20" transform="matrix(10.7,0,0,10.7,104.6,612)" />
<use xlink:href="#f4_4" transform="matrix(10.7,0,0,10.7,162.1,620.8)" />
<use xlink:href="#f4_4" transform="matrix(10.7,0,0,10.7,207.9,620.8)" />
<use xlink:href="#f1_l" transform="matrix(10.4,0,0,10.4,51.2,666.5)" />
<use xlink:href="#f1_r" transform="matrix(10.4,0,0,10.4,60.1,666.5)" />
<use xlink:href="#f1_h" transform="matrix(10.4,0,0,10.4,69.3,666.5)" />
<use xlink:href="#f4_4" transform="matrix(13.8,0,0,10.3,211.6,662.9)" />
<use xlink:href="#f2_c" transform="matrix(10.3,0,0,16.5,137.2,668.1)" />
<use xlink:href="#f2_d" transform="matrix(10.3,0,0,16.5,221.4,668.1)" />
<use xlink:href="#f4_4" transform="matrix(13.8,0,0,10.3,345.3,662.9)" />
<use xlink:href="#f2_c" transform="matrix(10.3,0,0,16.5,262,668.1)" />
<use xlink:href="#f2_d" transform="matrix(10.3,0,0,16.5,355,668.1)" />
<use xlink:href="#f1_l" transform="matrix(10.4,0,0,10.3,144,668.5)" />
<use xlink:href="#f1_99" transform="matrix(10.4,0,0,10.3,164.8,668.5)" />
<use xlink:href="#f1_l" transform="matrix(10.4,0,0,10.3,268.9,668.5)" />
<use xlink:href="#f1_99" transform="matrix(10.4,0,0,10.3,289.6,668.5)" />
<use xlink:href="#f1_l" transform="matrix(10.4,0,0,10.3,305.7,668.5)" />
<use xlink:href="#f3_2d" transform="matrix(10.4,0,0,10.3,98.7,668.5)" />
<use xlink:href="#f3_24" transform="matrix(10.4,0,0,10.3,152.3,668.5)" />
<use xlink:href="#f3_25" transform="matrix(10.4,0,0,10.3,182.3,668.5)" />
<use xlink:href="#f3_26" transform="matrix(10.4,0,0,10.3,209.7,668.5)" />
<use xlink:href="#f3_24" transform="matrix(10.4,0,0,10.3,277.2,668.5)" />
<use xlink:href="#f3_25" transform="matrix(10.4,0,0,10.3,316,668.5)" />
<use xlink:href="#f3_26" transform="matrix(10.4,0,0,10.3,343.4,668.5)" />
<use xlink:href="#f2_x" transform="matrix(10.4,0,0,10.3,120.1,668.5)" />
<use xlink:href="#f2_f" transform="matrix(10.4,0,0,10.3,194.6,668.5)" />
<use xlink:href="#f2_f" transform="matrix(10.4,0,0,10.3,233,668.5)" />
<use xlink:href="#f2_28" transform="matrix(10.4,0,0,10.3,249,668.5)" />
<use xlink:href="#f2_f" transform="matrix(10.4,0,0,10.3,328.3,668.5)" />
<use xlink:href="#f4_23" transform="matrix(10.4,0,0,10.3,94.8,654.3)" />
<use xlink:href="#f4_23" transform="matrix(10.4,0,0,10.3,100.5,654.3)" />
<use xlink:href="#f4_20" transform="matrix(10.4,0,0,10.3,104.7,654.3)" />
<use xlink:href="#f4_4" transform="matrix(10.4,0,0,10.3,152.6,662.9)" />
<use xlink:href="#f4_4" transform="matrix(10.4,0,0,10.3,181.6,662.9)" />
<use xlink:href="#f4_4" transform="matrix(10.4,0,0,10.3,277.6,662.9)" />
<use xlink:href="#f4_4" transform="matrix(10.4,0,0,10.3,315.3,662.9)" />
<use xlink:href="#f1_1w" transform="matrix(10.4,0,0,10.4,369.1,666.5)" />
<use xlink:href="#f1_29" transform="matrix(10.4,0,0,10.4,378,666.5)" />
<use xlink:href="#f1_1z" transform="matrix(10.4,0,0,10.4,386.8,666.5)" />
</g>
<path d="M412.3,660.8H455m26.8,0h39.4m26.9,0h38.4" class="g3_101" />
<g fill="#000000" >
<use xlink:href="#f1_l" transform="matrix(10.5,0,0,10.5,445.7,654.6)" />
<use xlink:href="#f1_k" transform="matrix(10.5,0,0,10.5,514.4,654.6)" />
<use xlink:href="#f1_k" transform="matrix(10.5,0,0,10.5,579.7,654.6)" />
<use xlink:href="#f1_h" transform="matrix(10.5,0,0,10.5,590.6,665)" />
<use xlink:href="#f1_l" transform="matrix(10.5,0,0,10.5,429.4,675.8)" />
<use xlink:href="#f1_l" transform="matrix(10.5,0,0,10.5,502,675.8)" />
<use xlink:href="#f1_k" transform="matrix(10.5,0,0,10.5,563.7,675.8)" />
<use xlink:href="#f3_2j" transform="matrix(10.5,0,0,10.5,413.3,654.6)" />
<use xlink:href="#f3_2k" transform="matrix(10.5,0,0,10.5,483.1,654.6)" />
<use xlink:href="#f3_2l" transform="matrix(10.5,0,0,10.5,549,654.6)" />
<use xlink:href="#f2_h" transform="matrix(10.5,0,0,10.5,430.2,654.6)" />
<use xlink:href="#f2_f" transform="matrix(10.5,0,0,10.5,499.9,654.6)" />
<use xlink:href="#f2_h" transform="matrix(10.5,0,0,10.5,565.5,654.6)" />
<use xlink:href="#f2_x" transform="matrix(10.5,0,0,10.5,464,665)" />
<use xlink:href="#f2_x" transform="matrix(10.5,0,0,10.5,530.3,665)" />
<use xlink:href="#f2_h" transform="matrix(10.5,0,0,10.5,493.2,675.8)" />
<use xlink:href="#f1_l" transform="matrix(10.4,0,0,10.4,51.2,706.9)" />
<use xlink:href="#f1_s" transform="matrix(10.4,0,0,10.4,60.1,706.9)" />
<use xlink:href="#f1_h" transform="matrix(10.4,0,0,10.4,69.3,706.9)" />
<use xlink:href="#f3_2j" transform="matrix(10.4,0,0,10.4,91.9,706.9)" />
<use xlink:href="#f1_99" transform="matrix(10.4,0,0,10.4,106.8,706.9)" />
<use xlink:href="#f1_l" transform="matrix(10.4,0,0,10.4,122.4,706.9)" />
<use xlink:href="#f3_2k" transform="matrix(10.4,0,0,10.4,131.1,706.9)" />
<use xlink:href="#f1_e" transform="matrix(10.4,0,0,10.4,146,706.9)" />
<use xlink:href="#f1_m" transform="matrix(10.4,0,0,10.4,162.1,706.9)" />
<use xlink:href="#f3_2l" transform="matrix(10.4,0,0,10.4,170.9,706.9)" />
<use xlink:href="#f1_w" transform="matrix(10.4,0,0,10.4,185.8,706.9)" />
<use xlink:href="#f1_k" transform="matrix(10.4,0,0,10.4,201.9,706.9)" />
<use xlink:href="#f1_m" transform="matrix(10.4,0,0,10.4,51.2,753.3)" />
<use xlink:href="#f1_j" transform="matrix(10.4,0,0,10.4,60.1,753.3)" />
<use xlink:href="#f1_h" transform="matrix(10.4,0,0,10.4,69.3,753.3)" />
<use xlink:href="#f4_4" transform="matrix(13.8,0,0,10.3,218.2,746.7)" />
<use xlink:href="#f2_c" transform="matrix(10.3,0,0,16.5,126.9,751.9)" />
<use xlink:href="#f2_d" transform="matrix(10.3,0,0,16.5,228,751.9)" />
<use xlink:href="#f4_4" transform="matrix(13.8,0,0,10.3,468.6,746.7)" />
<use xlink:href="#f2_c" transform="matrix(10.3,0,0,16.5,368.5,751.9)" />
<use xlink:href="#f2_d" transform="matrix(10.3,0,0,16.5,478.3,751.9)" />
<use xlink:href="#f1_r" transform="matrix(10.3,0,0,10.3,133.7,752.3)" />
<use xlink:href="#f1_n" transform="matrix(10.3,0,0,10.3,169.8,752.3)" />
<use xlink:href="#f1_r" transform="matrix(10.3,0,0,10.3,207.8,752.3)" />
<use xlink:href="#f1_k" transform="matrix(10.3,0,0,10.3,254.2,752.3)" />
<use xlink:href="#f1_l" transform="matrix(10.3,0,0,10.3,263.2,752.3)" />
<use xlink:href="#f1_j" transform="matrix(10.3,0,0,10.3,297.5,752.3)" />
<use xlink:href="#f1_2a" transform="matrix(10.3,0,0,10.3,313.8,752.3)" />
<use xlink:href="#f1_2d" transform="matrix(10.3,0,0,10.3,322.8,752.3)" />
<use xlink:href="#f1_n" transform="matrix(10.3,0,0,10.3,384.3,752.3)" />
<use xlink:href="#f1_r" transform="matrix(10.3,0,0,10.3,420.4,752.3)" />
<use xlink:href="#f1_r" transform="matrix(10.3,0,0,10.3,458.2,752.3)" />
<use xlink:href="#f1_k" transform="matrix(10.3,0,0,10.3,504.5,752.3)" />
<use xlink:href="#f1_l" transform="matrix(10.3,0,0,10.3,513.5,752.3)" />
<use xlink:href="#f1_j" transform="matrix(10.3,0,0,10.3,547.8,752.3)" />
<use xlink:href="#f3_2d" transform="matrix(10.3,0,0,10.3,98.9,752.3)" />
<use xlink:href="#f3_24" transform="matrix(10.3,0,0,10.3,142.2,752.3)" />
<use xlink:href="#f3_25" transform="matrix(10.3,0,0,10.3,180.2,752.3)" />
<use xlink:href="#f3_26" transform="matrix(10.3,0,0,10.3,216.3,752.3)" />
<use xlink:href="#f3_2d" transform="matrix(10.3,0,0,10.3,340.6,752.3)" />
<use xlink:href="#f3_24" transform="matrix(10.3,0,0,10.3,392.8,752.3)" />
<use xlink:href="#f3_25" transform="matrix(10.3,0,0,10.3,430.9,752.3)" />
<use xlink:href="#f3_26" transform="matrix(10.3,0,0,10.3,466.7,752.3)" />
<use xlink:href="#f2_49" transform="matrix(10.4,0,0,10.3,117.5,752.3)" />
<use xlink:href="#f2_f" transform="matrix(10.4,0,0,10.3,154.2,752.3)" />
<use xlink:href="#f2_f" transform="matrix(10.4,0,0,10.3,192.2,752.3)" />
<use xlink:href="#f2_f" transform="matrix(10.4,0,0,10.3,239.6,752.3)" />
<use xlink:href="#f2_x" transform="matrix(10.4,0,0,10.3,280.4,752.3)" />
<use xlink:href="#f2_49" transform="matrix(10.4,0,0,10.3,359.3,752.3)" />
<use xlink:href="#f2_h" transform="matrix(10.4,0,0,10.3,375.7,752.3)" />
<use xlink:href="#f2_f" transform="matrix(10.4,0,0,10.3,404.8,752.3)" />
<use xlink:href="#f2_h" transform="matrix(10.4,0,0,10.3,442.9,752.3)" />
<use xlink:href="#f2_f" transform="matrix(10.4,0,0,10.3,490,752.3)" />
<use xlink:href="#f2_x" transform="matrix(10.4,0,0,10.3,530.8,752.3)" />
<use xlink:href="#f4_23" transform="matrix(10.3,0,0,10.3,95,738.1)" />
<use xlink:href="#f4_23" transform="matrix(10.3,0,0,10.3,100.8,738.1)" />
<use xlink:href="#f4_20" transform="matrix(10.3,0,0,10.3,104.9,738.1)" />
<use xlink:href="#f4_23" transform="matrix(10.3,0,0,10.3,336.8,738.1)" />
<use xlink:href="#f4_23" transform="matrix(10.3,0,0,10.3,342.5,738.1)" />
<use xlink:href="#f4_20" transform="matrix(10.3,0,0,10.3,346.6,738.1)" />
<use xlink:href="#f4_4" transform="matrix(10.3,0,0,10.3,142.4,746.7)" />
<use xlink:href="#f4_4" transform="matrix(10.3,0,0,10.3,179.5,746.7)" />
<use xlink:href="#f4_4" transform="matrix(10.3,0,0,10.3,393,746.7)" />
<use xlink:href="#f4_4" transform="matrix(10.3,0,0,10.3,430.1,746.7)" />
<use xlink:href="#f1_m" transform="matrix(10.4,0,0,10.4,51.2,810.1)" />
<use xlink:href="#f1_k" transform="matrix(10.4,0,0,10.4,60.1,810.1)" />
<use xlink:href="#f1_h" transform="matrix(10.4,0,0,10.4,69.3,810.1)" />
<use xlink:href="#f1_b" transform="matrix(10.4,0,0,10.4,91.9,810.1)" />
<use xlink:href="#f1_j" transform="matrix(10.4,0,0,10.4,97.2,810.1)" />
<use xlink:href="#f1_f" transform="matrix(10.4,0,0,10.4,106.1,810.1)" />
<use xlink:href="#f1_99" transform="matrix(10.4,0,0,10.4,117.7,810.1)" />
<use xlink:href="#f1_k" transform="matrix(10.4,0,0,10.4,126.5,810.1)" />
<use xlink:href="#f1_f" transform="matrix(10.4,0,0,10.4,135.4,810.1)" />
<use xlink:href="#f1_99" transform="matrix(10.4,0,0,10.4,147.2,810.1)" />
<use xlink:href="#f1_m" transform="matrix(10.4,0,0,10.4,156.1,810.1)" />
<use xlink:href="#f1_c" transform="matrix(10.4,0,0,10.4,164.9,810.1)" />
<use xlink:href="#f1_m" transform="matrix(10.4,0,0,10.4,344.5,810.1)" />
<use xlink:href="#f1_l" transform="matrix(10.4,0,0,10.4,353.4,810.1)" />
<use xlink:href="#f1_h" transform="matrix(10.4,0,0,10.4,362.6,810.1)" />
</g>
<path d="M388.3,804.3H431m26.8,0h12m26.8,0h42.2" class="g3_101" />
<g fill="#000000" >
<use xlink:href="#f1_l" transform="matrix(10.5,0,0,10.5,421.7,798.2)" />
<use xlink:href="#f1_o" transform="matrix(10.5,0,0,10.5,529.5,798.2)" />
<use xlink:href="#f1_h" transform="matrix(10.5,0,0,10.5,542.9,808.6)" />
<use xlink:href="#f1_k" transform="matrix(10.5,0,0,10.5,405.9,819.3)" />
<use xlink:href="#f1_l" transform="matrix(10.5,0,0,10.5,459.6,819.3)" />
<use xlink:href="#f1_m" transform="matrix(10.5,0,0,10.5,513.5,819.3)" />
<use xlink:href="#f3_2j" transform="matrix(10.5,0,0,10.5,389.3,798.2)" />
<use xlink:href="#f3_2k" transform="matrix(10.5,0,0,10.5,459.1,798.2)" />
<use xlink:href="#f3_2l" transform="matrix(10.5,0,0,10.5,497.5,798.2)" />
<use xlink:href="#f2_h" transform="matrix(10.5,0,0,10.5,406.2,798.2)" />
<use xlink:href="#f2_h" transform="matrix(10.5,0,0,10.5,514,798.2)" />
<use xlink:href="#f2_x" transform="matrix(10.5,0,0,10.5,439.9,808.6)" />
<use xlink:href="#f2_x" transform="matrix(10.5,0,0,10.5,478.8,808.6)" />
<use xlink:href="#f1_m" transform="matrix(10.4,0,0,10.4,51.2,869.9)" />
<use xlink:href="#f1_m" transform="matrix(10.4,0,0,10.4,60.1,869.9)" />
<use xlink:href="#f1_h" transform="matrix(10.4,0,0,10.4,69.3,869.9)" />
</g>
<path d="M104,864.6h19.3m31.2,0h18.1m15.5,0h19.3" class="g3_101" />
<g fill="#000000" >
<use xlink:href="#f1_n" transform="matrix(10.4,0,0,10.4,104.7,858.5)" />
<use xlink:href="#f1_q" transform="matrix(10.4,0,0,10.4,113.7,858.5)" />
<use xlink:href="#f1_k" transform="matrix(10.4,0,0,10.4,154,858.5)" />
<use xlink:href="#f1_r" transform="matrix(10.4,0,0,10.4,163.1,858.5)" />
<use xlink:href="#f1_n" transform="matrix(10.4,0,0,10.4,188.9,858.5)" />
<use xlink:href="#f1_m" transform="matrix(10.4,0,0,10.4,197.9,858.5)" />
<use xlink:href="#f1_f" transform="matrix(10.4,0,0,10.4,127.2,868.8)" />
<use xlink:href="#f1_f" transform="matrix(10.4,0,0,10.4,176.5,868.8)" />
<use xlink:href="#f1_q" transform="matrix(10.4,0,0,10.4,109.2,879.5)" />
<use xlink:href="#f1_q" transform="matrix(10.4,0,0,10.4,159.2,879.5)" />
<use xlink:href="#f1_q" transform="matrix(10.4,0,0,10.4,193.4,879.5)" />
<use xlink:href="#f2_4o" transform="matrix(10.5,0,0,10.4,94.2,859.7)" />
<use xlink:href="#f2_54" transform="matrix(10.5,0,0,10.4,209.2,859.7)" />
<use xlink:href="#f2_h" transform="matrix(10.5,0,0,10.4,138.6,868.8)" />
<use xlink:href="#f2_4q" transform="matrix(10.5,0,0,10.4,94.2,875.9)" />
<use xlink:href="#f2_56" transform="matrix(10.5,0,0,10.4,209.2,875.9)" />
<use xlink:href="#f1_m" transform="matrix(10.4,0,0,10.4,344.5,869.9)" />
<use xlink:href="#f1_n" transform="matrix(10.4,0,0,10.4,353.4,869.9)" />
<use xlink:href="#f1_h" transform="matrix(10.4,0,0,10.4,362.6,869.9)" />
<use xlink:href="#f1_l" transform="matrix(10.4,0,0,10.4,385.2,869.9)" />
<use xlink:href="#f1_s" transform="matrix(10.4,0,0,10.4,394.1,869.9)" />
<use xlink:href="#f3_2j" transform="matrix(10.4,0,0,10.4,402.8,869.9)" />
<use xlink:href="#f1_99" transform="matrix(10.4,0,0,10.4,417.9,869.9)" />
<use xlink:href="#f1_l" transform="matrix(10.4,0,0,10.4,433.7,869.9)" />
<use xlink:href="#f1_q" transform="matrix(10.4,0,0,10.4,442.6,869.9)" />
<use xlink:href="#f3_2k" transform="matrix(10.4,0,0,10.4,451.2,869.9)" />
<use xlink:href="#f1_99" transform="matrix(10.4,0,0,10.4,466.3,869.9)" />
<use xlink:href="#f1_l" transform="matrix(10.4,0,0,10.4,482.3,869.9)" />
<use xlink:href="#f1_l" transform="matrix(10.4,0,0,10.4,491.2,869.9)" />
<use xlink:href="#f3_2l" transform="matrix(10.4,0,0,10.4,499.8,869.9)" />
<use xlink:href="#f1_w" transform="matrix(10.4,0,0,10.4,514.9,869.9)" />
<use xlink:href="#f1_r" transform="matrix(10.4,0,0,10.4,531.3,869.9)" />
<use xlink:href="#f1_o" transform="matrix(10.4,0,0,10.4,540.2,869.9)" />
<use xlink:href="#f1_m" transform="matrix(10.4,0,0,10.4,51.2,910.6)" />
<use xlink:href="#f1_o" transform="matrix(10.4,0,0,10.4,60.1,910.6)" />
<use xlink:href="#f1_h" transform="matrix(10.4,0,0,10.4,69.3,910.6)" />
<use xlink:href="#f1_k" transform="matrix(10.4,0,0,10.4,91.9,910.6)" />
<use xlink:href="#f1_m" transform="matrix(10.4,0,0,10.4,101.1,910.6)" />
<use xlink:href="#f1_m" transform="matrix(10.4,0,0,10.4,344.5,910.6)" />
<use xlink:href="#f1_p" transform="matrix(10.4,0,0,10.4,353.4,910.6)" />
<use xlink:href="#f1_h" transform="matrix(10.4,0,0,10.4,362.6,910.6)" />
<use xlink:href="#f1_q" transform="matrix(10.4,0,0,10.4,385.2,910.6)" />
<use xlink:href="#f3_2k" transform="matrix(10.4,0,0,10.4,394,910.6)" />
<use xlink:href="#f1_e" transform="matrix(10.4,0,0,10.4,408.9,910.6)" />
<use xlink:href="#f1_n" transform="matrix(10.4,0,0,10.4,425,910.6)" />
<use xlink:href="#f3_2l" transform="matrix(10.4,0,0,10.4,433.8,910.6)" />
<use xlink:href="#f1_w" transform="matrix(10.4,0,0,10.4,448.7,910.6)" />
<use xlink:href="#f1_o" transform="matrix(10.4,0,0,10.4,465,910.6)" />
<use xlink:href="#f7_q" transform="matrix(12,0,0,12,661.4,1041.8)" />
</g>
<g fill="#0080FF" fill-opacity="0.5" >
<use xlink:href="#f0_1c" transform="matrix(36.4,0,0,36.4,174.7,1057.1)" />
<use xlink:href="#f0_21" transform="matrix(36.4,0,0,36.4,205.6,1057.1)" />
<use xlink:href="#f0_1x" transform="matrix(36.4,0,0,36.4,236.5,1057.1)" />
<use xlink:href="#f0_2e" transform="matrix(36.4,0,0,36.4,267.5,1057.1)" />
<use xlink:href="#f0_2a" transform="matrix(36.4,0,0,36.4,286,1057.1)" />
<use xlink:href="#f0_17" transform="matrix(36.4,0,0,36.4,316.9,1057.1)" />
<use xlink:href="#f0_2h" transform="matrix(36.4,0,0,36.4,360.2,1057.1)" />
<use xlink:href="#f0_25" transform="matrix(36.4,0,0,36.4,391.2,1057.1)" />
<use xlink:href="#f0_20" transform="matrix(36.4,0,0,36.4,403.5,1057.1)" />
<use xlink:href="#f0_21" transform="matrix(36.4,0,0,36.4,434.5,1057.1)" />
<use xlink:href="#f0_i" transform="matrix(36.4,0,0,36.4,465.4,1057.1)" />
<use xlink:href="#f0_25" transform="matrix(36.4,0,0,36.4,480.9,1057.1)" />
<use xlink:href="#f0_2a" transform="matrix(36.4,0,0,36.4,493.2,1057.1)" />
</g>
<defs>
<path d="M593,101c0,0,182,0,279,112c0,0,98,113,98,318c0,0,0,196,-98,308c0,0,-98,112,-277,112c0,0,-181,0,-279,-110c0,0,-99,-111,-99,-310c0,0,0,-198,100,-314c0,0,99,-116,276,-116Zm0,-115c0,0,-162,0,-279,65c0,0,-118,66,-180,190c0,0,-62,124,-62,290c0,0,0,252,138,394c0,0,138,142,385,142c0,0,160,0,278,-64c0,0,118,-64,180,-185c0,0,62,-122,62,-287c0,0,0,-165,-63,-289c0,0,-63,-124,-181,-190c0,0,-118,-66,-278,-66Z" 
id="f0_1f"
transform="scale(0.001,-0.001)" />

<path d="M106,0V635c0,0,0,141,-5,173H228c0,0,1,-4,2,-21c0,0,1,-16,2,-37c0,0,1,-22,2,-81h2c0,0,47,84,108,119c0,0,60,34,151,34c0,0,132,0,194,-66c0,0,61,-66,61,-218V0H615V512c0,0,0,80,-15,124c0,0,-16,44,-50,63c0,0,-35,20,-101,20c0,0,-97,0,-153,-67c0,0,-56,-66,-56,-184V0Z" 
id="f0_2a"
transform="scale(0.001,-0.001)" />

<path d="M103,0V1107H237V0Z" 
id="f0_28"
transform="scale(0.001,-0.001)" />

<path d="M102,0V808H236V0Zm0,979v128H236V979Z" 
id="f0_25"
transform="scale(0.001,-0.001)" />

<path d="M643,478c0,0,-11,128,-65,187c0,0,-54,59,-154,59c0,0,-98,0,-155,-66c0,0,-57,-65,-62,-180ZM431,-14c0,0,-179,0,-272,106c0,0,-94,107,-94,317c0,0,0,200,94,307c0,0,93,106,267,106c0,0,356,0,356,-429V375H206c0,0,0,-138,57,-213c0,0,58,-75,168,-75c0,0,87,0,140,35c0,0,53,35,71,88L760,177c0,0,-72,-191,-329,-191Z" 
id="f0_21"
transform="scale(0.001,-0.001)" />

<path d="M17,0L304,415L31,808H179L380,493L580,808H730L457,417L747,0H598L380,331L162,0Z" 
id="f0_2k"
transform="scale(0.001,-0.001)" />

<path d="M339,87c0,0,74,0,132,34c0,0,57,33,90,91c0,0,34,59,34,121v66L448,396c0,0,-95,-2,-144,-19c0,0,-49,-18,-75,-55c0,0,-26,-38,-26,-98c0,0,0,-65,35,-101c0,0,36,-36,101,-36ZM309,-14c0,0,-122,0,-183,64c0,0,-61,64,-61,176c0,0,0,125,82,192c0,0,83,67,266,72l182,3v44c0,0,0,98,-42,141c0,0,-42,43,-132,43c0,0,-90,0,-131,-31c0,0,-41,-31,-49,-98L101,604c0,0,34,218,323,218c0,0,153,0,229,-70c0,0,77,-69,77,-202V202c0,0,0,-59,16,-90c0,0,16,-30,60,-30c0,0,19,0,44,5V4C850,4,799,-7,746,-7c0,0,-75,0,-109,38c0,0,-33,40,-38,124h-4C595,155,543,62,475,24c0,0,-68,-38,-166,-38Z" 
id="f0_1x"
transform="scale(0.001,-0.001)" />

<path d="M106,0V635c0,0,0,141,-5,173H228c0,0,1,-4,2,-21c0,0,1,-16,2,-37c0,0,1,-22,2,-81h2c0,0,44,86,100,120c0,0,56,33,136,33c0,0,92,0,145,-36c0,0,54,-37,75,-117h2c0,0,42,82,101,117c0,0,59,36,143,36c0,0,123,0,178,-66c0,0,56,-67,56,-218V0H1039V512c0,0,0,117,-32,162c0,0,-32,45,-116,45c0,0,-88,0,-136,-66c0,0,-49,-65,-49,-185V0H573V512c0,0,0,117,-32,162c0,0,-32,45,-116,45c0,0,-86,0,-136,-66c0,0,-50,-66,-50,-185V0Z" 
id="f0_29"
transform="scale(0.001,-0.001)" />

<path d="M453,84c0,0,100,0,146,74c0,0,46,73,46,247c0,0,0,169,-46,241c0,0,-45,73,-145,73c0,0,-80,0,-125,-34c0,0,-45,-34,-68,-105c0,0,-24,-71,-24,-186c0,0,0,-159,51,-234c0,0,51,-76,165,-76ZM103,-316V643c0,0,0,124,-5,165H228c0,0,1,-3,3,-22c0,0,1,-18,3,-56c0,0,2,-38,2,-52h3c0,0,36,75,94,110c0,0,59,34,156,34c0,0,149,0,223,-100c0,0,74,-100,74,-314c0,0,0,-422,-297,-422c0,0,-187,0,-251,140h-4c0,0,3,-6,3,-126V-316Z" 
id="f0_2c"
transform="scale(0.001,-0.001)" />

<path d="M420,84c0,0,121,0,173,78c0,0,52,77,52,243c0,0,0,167,-50,243c0,0,-50,76,-167,76c0,0,-118,0,-170,-78c0,0,-53,-77,-53,-241c0,0,0,-160,52,-241c0,0,52,-80,163,-80Zm1,-98c0,0,-176,0,-267,107c0,0,-90,108,-90,312c0,0,0,417,362,417c0,0,185,0,272,-102c0,0,88,-101,88,-315c0,0,0,-212,-94,-316C692,89,599,-14,421,-14Z" 
id="f0_2b"
transform="scale(0.001,-0.001)" />

<path d="M278,-11c0,0,-162,0,-162,182V710H23v98h99l39,181h90V808H400V710H251V200c0,0,0,-58,19,-82c0,0,19,-23,66,-23c0,0,27,0,77,10V6c0,0,-66,-17,-135,-17Z" 
id="f0_2g"
transform="scale(0.001,-0.001)" />

<path d="M419,483c0,0,93,0,152,66c0,0,59,66,59,169c0,0,0,103,-59,169c0,0,-59,65,-152,65c0,0,-94,0,-153,-65c0,0,-59,-66,-59,-169c0,0,0,-103,59,-169c0,0,59,-66,153,-66ZM397,-28c0,0,-143,0,-227,75c0,0,-85,77,-91,211H209c0,0,8,-83,57,-128c0,0,49,-45,131,-45c0,0,121,0,186,135c0,0,48,101,62,265C645,485,545,362,397,362c0,0,-150,0,-241,98c0,0,-91,98,-91,258c0,0,0,160,99,258c0,0,99,98,262,98c0,0,173,0,266,-123c0,0,94,-123,94,-349c0,0,0,-303,-101,-467C685,135,583,-28,397,-28Z" 
id="f1_s"
transform="scale(0.001,-0.001)" />

<path d="M133,0V162H292V0Z" 
id="f1_h"
transform="scale(0.001,-0.001)" />

<path d="M394,-20c0,0,-159,0,-253,113c0,0,-95,114,-95,307c0,0,0,193,98,308c0,0,98,114,264,114c0,0,144,0,230,-78c0,0,85,-79,91,-217H600c0,0,-8,86,-59,133c0,0,-52,47,-138,47c0,0,-101,0,-159,-82c0,0,-58,-82,-58,-225c0,0,0,-152,54,-229c0,0,53,-77,159,-77c0,0,79,0,132,50c0,0,52,51,69,143H729C729,287,709,137,623,58c0,0,-86,-78,-229,-78Z" 
id="f1_1y"
transform="scale(0.001,-0.001)" />

<path d="M424,94c0,0,107,0,169,83c0,0,63,83,63,223c0,0,0,140,-63,224c0,0,-62,83,-169,83c0,0,-106,0,-168,-83c0,0,-62,-84,-62,-224c0,0,0,-140,62,-223c0,0,62,-83,168,-83Zm0,-114c0,0,-165,0,-268,115C156,95,54,211,54,400c0,0,0,189,102,306c0,0,103,116,268,116c0,0,168,0,270,-116c0,0,102,-117,102,-306c0,0,0,-189,-102,-305C694,95,592,-20,424,-20Z" 
id="f1_2a"
transform="scale(0.001,-0.001)" />

<path d="M393,-20c0,0,-169,0,-252,65c0,0,-83,67,-92,210H178c0,0,10,-85,61,-123c0,0,50,-38,154,-38c0,0,90,0,136,34c0,0,47,35,47,100c0,0,0,42,-31,64c0,0,-30,21,-123,43L283,368c0,0,-112,27,-160,75c0,0,-48,48,-48,135c0,0,0,112,80,178c0,0,81,66,218,66c0,0,140,0,222,-68c0,0,82,-67,88,-187H557c0,0,-6,67,-55,103c0,0,-48,37,-129,37c0,0,-84,0,-127,-29c0,0,-44,-29,-44,-85c0,0,0,-43,31,-65c0,0,30,-21,121,-43L493,452c0,0,117,-28,167,-78c0,0,49,-49,49,-138c0,0,0,-119,-86,-188c0,0,-85,-68,-230,-68Z" 
id="f1_2e"
transform="scale(0.001,-0.001)" />

<path d="M0,368V478H849V368Z" 
id="f1_99"
transform="scale(0.001,-0.001)" />

<path d="M406,0V763H155V870h2c16,0,114,2,178,48c0,0,70,51,104,157H549V0Z" 
id="f1_k"
transform="scale(0.001,-0.001)" />

<path d="M365,-315c0,0,-136,187,-199,359c0,0,-62,172,-62,359c0,0,0,186,62,358c0,0,63,172,199,360h92c0,0,-110,-192,-160,-365c0,0,-51,-172,-51,-353c0,0,0,-183,51,-355c0,0,50,-172,160,-363Z" 
id="f1_b"
transform="scale(0.001,-0.001)" />

<path d="M432,92c0,0,96,0,156,66c0,0,61,65,61,169c0,0,0,103,-61,169c0,0,-60,66,-156,66c0,0,-95,0,-156,-66c0,0,-61,-66,-61,-169c0,0,0,-104,61,-169c0,0,61,-66,156,-66ZM425,-28c0,0,-176,0,-271,135c0,0,-95,136,-95,388c0,0,0,278,103,429c0,0,103,151,293,151c0,0,142,0,226,-77c0,0,84,-76,90,-211H638c0,0,-8,80,-56,123c0,0,-47,43,-127,43c0,0,-125,0,-192,-119c0,0,-58,-102,-64,-278c0,0,100,127,255,127c0,0,152,0,245,-98c0,0,93,-98,93,-258c0,0,0,-161,-101,-259c0,0,-101,-96,-266,-96Z" 
id="f1_p"
transform="scale(0.001,-0.001)" />

<path d="M-24,-29L348,1125H450L77,-29Z" 
id="f1_i"
transform="scale(0.001,-0.001)" />

<path d="M212,0c0,0,51,270,162,500c0,0,109,222,281,422H57v131H799V934C799,934,623,726,515,498C515,498,408,269,362,0Z" 
id="f1_q"
transform="scale(0.001,-0.001)" />

<path d="M52,-315c0,0,109,192,160,363c0,0,50,173,50,354c0,0,0,183,-50,355c0,0,-51,173,-160,364h92c0,0,135,-188,198,-360c0,0,63,-172,63,-359c0,0,0,-187,-63,-359c0,0,-63,-171,-198,-358Z" 
id="f1_c"
transform="scale(0.001,-0.001)" />

<path d="M424,92c0,0,114,0,170,107c0,0,57,108,56,323c0,0,1,216,-56,324c0,0,-56,107,-170,107c0,0,-112,0,-168,-107c0,0,-56,-108,-57,-324c0,0,1,-215,57,-323c0,0,56,-107,168,-107Zm0,-120c0,0,-176,0,-271,142c0,0,-96,143,-96,408c0,0,0,265,96,409c0,0,95,144,271,144c0,0,178,0,273,-144c0,0,96,-144,96,-409c0,0,0,-265,-96,-408c0,0,-95,-142,-273,-142Z" 
id="f1_j"
transform="scale(0.001,-0.001)" />

<path d="M417,-328c0,0,-125,17,-203,101c0,0,-78,83,-78,189c0,0,0,49,17,120c0,0,17,72,17,108c0,0,0,55,-42,100c0,0,-42,45,-128,61v29c0,0,80,15,125,59c0,0,44,45,44,98c0,0,0,39,-17,110c0,0,-18,71,-18,122c0,0,0,105,79,191c0,0,79,85,203,100v-28c0,0,-85,-15,-129,-65c0,0,-45,-49,-45,-114c0,0,0,-45,15,-117c0,0,15,-72,15,-120c0,0,0,-74,-53,-142c0,0,-53,-68,-158,-106c0,0,107,-44,160,-111c0,0,52,-67,52,-141c0,0,0,-45,-15,-117c0,0,-15,-73,-15,-117c0,0,0,-64,43,-113c0,0,42,-49,131,-71v-26Z" 
id="f2_2n"
transform="scale(0.001,-0.001)" />

<path d="M160,-328v29c0,0,85,15,129,64c0,0,44,48,44,114c0,0,0,45,-14,117c0,0,-15,71,-15,120c0,0,0,73,53,142c0,0,53,68,158,106c0,0,-108,43,-160,110c0,0,-52,67,-52,141c0,0,0,45,15,118c0,0,14,73,14,117c0,0,0,64,-42,113c0,0,-42,49,-131,71v26c0,0,125,-17,203,-101c0,0,78,-84,78,-188c0,0,0,-50,-17,-122c0,0,-17,-72,-17,-109c0,0,0,-54,42,-99c0,0,41,-45,128,-61V351c0,0,-81,-14,-125,-59c0,0,-44,-45,-44,-97c0,0,0,-39,17,-111c0,0,18,-71,18,-121c0,0,0,-105,-79,-190c0,0,-79,-86,-203,-101Z" 
id="f2_2p"
transform="scale(0.001,-0.001)" />

<path d="M39,0V0c0,0,0,170,84,277c0,0,85,108,317,236c0,0,113,62,154,115c0,0,41,52,41,134c0,0,0,86,-62,141c0,0,-61,54,-156,54c0,0,-101,0,-158,-68c0,0,-57,-68,-60,-194H67c0,0,-2,178,95,279c0,0,98,101,273,101c0,0,149,0,245,-89c0,0,94,-88,94,-228c0,0,0,-118,-60,-195c0,0,-61,-76,-229,-169C485,394,303,294,237,212c0,0,-28,-36,-46,-81H774V0Z" 
id="f1_l"
transform="scale(0.001,-0.001)" />

<path d="M133,-224v71c0,0,47,8,65,52c0,0,14,33,17,101H133V163H292V27c0,0,0,-114,-36,-172c0,0,-37,-58,-123,-79Z" 
id="f1_f"
transform="scale(0.001,-0.001)" />

<path d="M17,0L389,412L201,800H376L500,518L742,800H904L554,410L750,0H580L448,303L187,0Z" 
id="f3_2j"
transform="scale(0.001,-0.001)" />

<path d="M99,-328c0,0,-46,0,-76,13l25,123c0,0,29,-14,81,-14c0,0,47,0,76,31c0,0,28,31,106,162L185,800H339L415,141L769,800H918L456,0C456,0,329,-216,269,-272c0,0,-61,-56,-170,-56Z" 
id="f3_2k"
transform="scale(0.001,-0.001)" />

<path d="M47,0L58,55l11,55L675,688H237l11,56l11,56H869L857,745L846,690L245,111H740L729,56L718,0Z" 
id="f3_2l"
transform="scale(0.001,-0.001)" />

<path d="M354,90c0,0,107,0,192,57c0,0,60,41,87,95c0,0,5,12,11,33c0,0,6,20,11,44l18,88c0,0,-62,-26,-132,-37L414,352c0,0,-84,-11,-131,-56c0,0,-47,-45,-47,-113c0,0,0,-44,31,-69c0,0,31,-24,87,-24ZM306,-20c0,0,-99,0,-156,47c0,0,-57,49,-57,134c0,0,1,117,81,198c0,0,80,81,211,98l164,20l70,10c0,0,35,6,59,30c0,0,23,24,31,66l1,2c0,0,13,64,-25,94c0,0,-39,31,-132,31c0,0,-83,0,-137,-37c0,0,-54,-37,-84,-114H210c0,0,46,137,138,201c0,0,92,63,245,63c0,0,149,0,211,-59c0,0,45,-44,44,-116c0,0,1,-30,-6,-63L749,136c0,0,-4,-19,6,-32c0,0,10,-12,30,-12c0,0,6,0,19,1c0,0,12,2,25,5L809,1c0,0,-19,-6,-43,-11c0,0,-22,-5,-36,-5c0,0,-73,0,-100,43c0,0,-16,27,-17,75C612,102,594,85,573,69c0,0,-120,-89,-267,-89Z" 
id="f3_1w"
transform="scale(0.001,-0.001)" />

<path d="M773,597c0,0,120,0,185,67c0,0,65,66,65,188c0,0,0,57,-42,88c0,0,-43,31,-119,31H483L406,597ZM134,0L361,1097H900c0,0,134,0,208,-55c0,0,73,-55,74,-156c0,0,0,-171,-116,-280c0,0,-44,-41,-96,-66c0,0,30,-13,50,-31c0,0,57,-55,35,-179L1020,133c0,0,-9,-48,-3,-70c0,0,6,-21,32,-39L1045,1H865c0,0,-1,30,5,87c0,0,6,58,15,111l14,81c0,0,19,102,-17,147c0,0,-36,44,-134,44H380L283,0Z" 
id="f3_1h"
transform="scale(0.001,-0.001)" />

<path d="M0,356v74H784V356Z" 
id="f2_h"
transform="scale(0.001,-0.001)" />

<path d="M0,214v74H784V214ZM0,494v72H784V494Z" 
id="f2_x"
transform="scale(0.001,-0.001)" />

<path d="M398,0C398,0,266,0,185,39c0,0,-82,39,-133,124C52,163,0,248,0,342c0,0,0,144,103,243c0,0,103,98,292,98H694V611H387c0,0,-99,0,-166,-32c0,0,-68,-32,-105,-88c0,0,-26,-40,-41,-113H694V304H75c0,0,30,-120,103,-176c0,0,73,-56,210,-56H694V0Z" 
id="f2_40"
transform="scale(0.001,-0.001)" />

<path d="M511,373V863L169,383l-7,-10ZM511,0V258H38V383l496,691H646V373H799V258H646V0Z" 
id="f1_n"
transform="scale(0.001,-0.001)" />

<path d="M424,-28c0,0,-180,0,-272,86c0,0,-92,87,-100,266H192c0,0,12,-126,66,-180c0,0,55,-54,170,-54c0,0,100,0,163,57c0,0,64,57,64,147c0,0,0,94,-61,149c0,0,-52,48,-135,54c0,0,-38,2,-72,2c0,0,-34,0,-45,-3V613c0,0,17,-3,51,-3c0,0,35,0,68,4c0,0,66,8,106,43c0,0,55,45,55,125c0,0,0,77,-58,125c0,0,-58,48,-148,48c0,0,-96,0,-147,-58c0,0,-51,-59,-56,-175H82c0,0,0,168,89,260c0,0,88,93,250,93c0,0,153,0,247,-77c0,0,94,-76,94,-202c0,0,0,-124,-95,-201c0,0,-18,-15,-39,-27c0,0,39,-17,69,-41c0,0,101,-79,101,-214c0,0,0,-151,-105,-246c0,0,-104,-95,-269,-95Z" 
id="f1_m"
transform="scale(0.001,-0.001)" />

<path d="M390,-1V329H60V441H390V771H503V441H833V329H503V-1Z" 
id="f1_e"
transform="scale(0.001,-0.001)" />

<path d="M60,174V286H832V174Zm0,309V595H832V483Z" 
id="f1_w"
transform="scale(0.001,-0.001)" />

<path d="M417,-28c0,0,-161,0,-259,79c0,0,-98,81,-109,223H189c0,0,11,-90,72,-139c0,0,61,-49,162,-49c0,0,96,0,158,68c0,0,61,68,61,175c0,0,0,112,-64,178c0,0,-64,66,-173,66c0,0,-59,0,-115,-28c0,0,-55,-29,-84,-73L93,480l77,573H727V922H271L225,629l4,3c0,0,89,60,188,60c0,0,169,0,269,-94c0,0,99,-93,99,-253c0,0,0,-165,-103,-269C682,76,579,-28,417,-28Z" 
id="f1_o"
transform="scale(0.001,-0.001)" />

<path d="M116,0V1097H294L844,205v892H987V0H824L259,895V0Z" 
id="f1_1d"
transform="scale(0.001,-0.001)" />

<path d="M424,92c0,0,98,0,161,58c0,0,62,58,62,149c0,0,0,92,-62,151c0,0,-63,58,-161,58c0,0,-98,0,-160,-58c0,0,-63,-59,-63,-151c0,0,0,-91,63,-149c0,0,62,-58,160,-58Zm0,533c0,0,82,0,134,46c0,0,52,45,52,118c0,0,0,72,-52,118c0,0,-52,46,-134,46c0,0,-82,0,-134,-46c0,0,-52,-46,-52,-118c0,0,0,-73,52,-119c0,0,52,-45,134,-45Zm0,-653c0,0,-165,0,-265,90C159,62,59,154,59,305c0,0,0,134,100,216c0,0,35,28,78,47c0,0,-27,15,-52,33c0,0,-90,70,-90,185c0,0,0,130,90,209c0,0,91,80,239,80c0,0,148,0,238,-80c0,0,91,-79,91,-209c0,0,0,-115,-91,-185c0,0,-24,-19,-52,-32c0,0,44,-20,79,-49c0,0,101,-81,101,-215c0,0,0,-151,-101,-243c0,0,-100,-90,-265,-90Z" 
id="f1_r"
transform="scale(0.001,-0.001)" />

<path d="M17,774l191,256h95L493,774H440L255,932L69,774Z" 
id="f4_4"
transform="scale(0.001,-0.001)" />

<path d="M412,-328c0,0,-195,96,-303,284C109,-44,0,142,0,365c0,0,0,232,114,422c0,0,114,191,298,273v-31c0,0,-92,-51,-151,-139c0,0,-59,-88,-88,-223c0,0,-29,-136,-29,-282c0,0,0,-167,27,-301c0,0,26,-133,82,-221c0,0,55,-89,159,-159v-32Z" 
id="f2_c"
transform="scale(0.001,-0.001)" />

<path d="M34,-328v32c0,0,92,50,151,138c0,0,59,88,88,222c0,0,29,135,29,283c0,0,0,165,-27,300c0,0,-26,134,-82,222c0,0,-56,89,-159,160v31c0,0,194,-96,303,-284c0,0,108,-187,108,-410c0,0,0,-232,-114,-422c0,0,-114,-191,-297,-272Z" 
id="f2_d"
transform="scale(0.001,-0.001)" />

<path d="M118,0L283,800H411L380,652c0,0,35,47,69,81c0,0,92,90,197,90c0,0,20,0,38,-5L653,679H604c0,0,-91,0,-164,-61c0,0,-72,-62,-92,-154L253,0Z" 
id="f3_2d"
transform="scale(0.001,-0.001)" />

<path d="M102,0L267,800H402L237,0ZM300,946l31,151H467L436,946Z" 
id="f3_24"
transform="scale(0.001,-0.001)" />

<path d="M-33,-321c0,0,-31,0,-57,4l25,117h26c0,0,60,0,83,18c0,0,22,18,34,75L265,800H400L213,-107c0,0,-24,-117,-81,-166c0,0,-55,-48,-165,-48ZM298,946l32,151H465L434,946Z" 
id="f3_25"
transform="scale(0.001,-0.001)" />

<path d="M102,0L329,1097H464L333,467L745,800H921L546,501L769,0H595L429,409L300,306L237,0Z" 
id="f3_26"
transform="scale(0.001,-0.001)" />

<path d="M83,308c0,0,-35,0,-59,24c0,0,-24,24,-24,59c0,0,0,34,24,58c0,0,24,24,59,24c0,0,33,0,58,-24c0,0,24,-24,24,-58c0,0,0,-35,-24,-59c0,0,-25,-24,-58,-24Z" 
id="f2_49"
transform="scale(0.001,-0.001)" />

<path d="M355,0V355H0v72H355V784h72V427H782V355H427V0Z" 
id="f2_f"
transform="scale(0.001,-0.001)" />

<path d="M0,-26V27H626V-26Z" 
id="f4_23"
transform="scale(0.001,-0.001)" />

<path d="M413,-106l30,80H0V27H443l-30,80L626,0L413,-106Z" 
id="f4_20"
transform="scale(0.001,-0.001)" />

<path d="M62,-123V268c0,0,0,230,56,452c0,0,47,190,134,334c0,0,87,144,204,242c0,0,85,73,194,119l18,-16c0,0,-211,-145,-335,-339c0,0,-98,-156,-149,-374c0,0,-50,-218,-50,-403V-123Z" 
id="f2_4o"
transform="scale(0.001,-0.001)" />

<path d="M617,-123V283c0,0,0,236,-63,459c0,0,-63,223,-188,392c0,0,-108,146,-282,265l17,16c0,0,180,-76,320,-248c0,0,139,-172,204,-417c0,0,64,-245,64,-482V-123Z" 
id="f2_54"
transform="scale(0.001,-0.001)" />

<path d="M650,-123c0,0,-180,75,-319,246c0,0,-140,172,-205,418c0,0,-64,245,-64,481v393h72V1007c0,0,0,-236,63,-459c0,0,63,-223,189,-391c0,0,108,-145,282,-265l-18,-15Z" 
id="f2_4q"
transform="scale(0.001,-0.001)" />

<path d="M101,-123l-17,15c0,0,210,144,334,339c0,0,99,156,149,373c0,0,50,218,50,403v408h72V1022c0,0,0,-230,-56,-451c0,0,-48,-191,-134,-335C499,236,412,92,295,-5c0,0,-84,-73,-194,-118Z" 
id="f2_56"
transform="scale(0.001,-0.001)" />

<path d="M103,0V1097H237V0Z" 
id="f1_27"
transform="scale(0.001,-0.001)" />

<path d="M104,0V799H238V0Zm-2,946v152H239V946Z" 
id="f1_24"
transform="scale(0.001,-0.001)" />

<path d="M99,0V799H226V681l30,39c0,0,87,102,219,102c0,0,132,0,203,-71c0,0,72,-72,72,-204V0H616V502c0,0,0,105,-41,151c0,0,-40,47,-132,47c0,0,-97,0,-154,-73c0,0,-56,-74,-56,-199V0Z" 
id="f1_29"
transform="scale(0.001,-0.001)" />

<path d="M649,461c0,0,-6,111,-55,172c0,0,-55,69,-160,69c0,0,-106,0,-170,-79c0,0,-50,-62,-60,-162ZM425,-20c0,0,-169,0,-266,106c0,0,-97,107,-97,297c0,0,0,201,102,320c0,0,103,119,276,119c0,0,157,0,253,-116c0,0,96,-117,96,-306l-1,-48H204c0,0,8,-119,54,-182c0,0,57,-76,180,-76c0,0,77,0,134,43c0,0,58,43,70,110H775C775,247,746,116,656,47c0,0,-90,-67,-231,-67Z" 
id="f1_20"
transform="scale(0.001,-0.001)" />

<path d="M436,95c0,0,105,0,160,79c0,0,54,80,54,232c0,0,0,150,-52,222c0,0,-52,72,-161,72c0,0,-112,0,-163,-81c0,0,-51,-82,-51,-258c0,0,0,-127,55,-197c0,0,55,-69,158,-69ZM89,-315V799H216V685l7,10c0,0,86,127,228,127c0,0,156,0,248,-108c0,0,91,-107,91,-291c0,0,0,-208,-92,-326C698,97,606,-20,442,-20c0,0,-135,0,-215,102l-4,6V-315Z" 
id="f1_2b"
transform="scale(0.001,-0.001)" />

<path d="M335,90c0,0,106,0,179,57c0,0,50,41,67,91c0,0,3,10,4,31c0,0,3,21,3,47v87c0,0,-38,-18,-83,-25L381,360c0,0,-97,-13,-142,-45c0,0,-44,-31,-44,-86c0,0,0,-67,36,-103c0,0,37,-36,104,-36ZM309,-20c0,0,-117,0,-186,61c0,0,-68,63,-68,169c0,0,0,108,64,171c0,0,65,64,189,79l183,23c0,0,22,3,42,8c0,0,26,7,40,27c0,0,15,20,15,51v6c0,0,0,64,-49,101c0,0,-48,36,-135,36c0,0,-83,0,-130,-38c0,0,-46,-39,-56,-115H94c0,0,10,131,92,197c0,0,83,66,238,66c0,0,145,0,222,-63c0,0,76,-63,76,-184V137c0,0,0,-21,12,-33c0,0,12,-12,33,-12c0,0,6,0,18,1c0,0,11,2,25,5V1c0,0,-20,-7,-41,-11c0,0,-22,-5,-37,-5c0,0,-76,0,-110,41c0,0,-22,28,-32,79c0,0,-15,-19,-34,-36c0,0,-101,-89,-247,-89Z" 
id="f1_1w"
transform="scale(0.001,-0.001)" />

<path d="M118,0V799H246V662c0,0,17,32,36,58c0,0,76,102,187,102c0,0,19,0,38,-6V679l-27,1c0,0,-109,0,-168,-66c0,0,-60,-65,-60,-186V0Z" 
id="f1_2d"
transform="scale(0.001,-0.001)" />

<path d="M292,-9c0,0,-88,0,-124,38c0,0,-36,39,-36,134V689H22V799H132v224H266V799H392V689H266V163c0,0,0,-27,21,-43c0,0,21,-15,57,-15h48V1C392,1,324,-9,292,-9Z" 
id="f1_2f"
transform="scale(0.001,-0.001)" />

<path d="M492,-381c-11,0,-14,3,-14,3c-87,67,-149,154,-149,154C268,-138,228,-39,228,-39C188,58,169,166,169,166C150,273,150,382,150,382c0,108,19,216,19,216c19,108,59,206,59,206c40,99,101,185,101,185c62,87,149,154,149,154c3,3,14,3,14,3c6,0,11,-5,11,-5c3,-6,3,-10,3,-10c0,-7,-5,-11,-5,-11C428,1051,378,966,378,966C327,880,296,785,296,785C265,689,252,587,252,587C239,484,239,382,239,382c0,-104,13,-206,13,-206C265,75,296,-20,296,-20c31,-95,82,-181,82,-181c50,-85,123,-154,123,-154c5,-5,5,-11,5,-11c0,-4,-3,-10,-3,-10c-5,-5,-11,-5,-11,-5Z" 
id="f5_a"
transform="scale(0.001,-0.001)" />

<path d="M99,-381c-6,0,-10,5,-10,5c-3,6,-3,10,-3,10c0,6,4,11,4,11c74,69,124,154,124,154c50,86,82,181,82,181c31,95,44,196,44,196c13,102,13,206,13,206c0,102,-13,205,-13,205C327,689,296,785,296,785c-32,95,-82,181,-82,181C164,1051,90,1120,90,1120c-4,4,-4,11,-4,11c0,7,3,10,3,10c4,5,10,5,10,5h5c3,0,9,-3,9,-3C200,1076,262,989,262,989C324,903,364,804,364,804c40,-98,59,-206,59,-206C442,490,442,382,442,382C442,273,423,166,423,166C404,58,364,-39,364,-39C324,-138,262,-224,262,-224C200,-311,113,-378,113,-378c-6,-3,-9,-3,-9,-3Z" 
id="f5_b"
transform="scale(0.001,-0.001)" />

<path d="M445,95c0,0,127,0,215,118c0,0,87,119,87,290c0,0,0,97,-46,151c0,0,-46,53,-129,53c0,0,-127,0,-214,-118c0,0,-87,-117,-87,-287c0,0,0,-98,45,-153c0,0,46,-54,129,-54ZM421,-20c0,0,-136,0,-215,81c0,0,-79,82,-79,223c0,0,0,227,136,383c0,0,136,156,333,156c0,0,138,0,217,-79c0,0,79,-80,79,-215v-3c0,0,0,-230,-136,-389C756,137,619,-20,421,-20Z" 
id="f3_2a"
transform="scale(0.001,-0.001)" />

<path d="M116,203c-12,0,-21,10,-21,10c-9,9,-9,21,-9,21c0,12,9,22,9,22c9,9,21,9,21,9h953c13,0,22,-9,22,-9c9,-10,9,-22,9,-22c0,-12,-9,-21,-9,-21c-9,-10,-22,-10,-22,-10Zm0,297c-12,0,-21,9,-21,9c-9,9,-9,21,-9,21c0,13,9,22,9,22c9,9,21,9,21,9h953c13,0,22,-9,22,-9c9,-9,9,-22,9,-22c0,-12,-9,-21,-9,-21c-9,-9,-22,-9,-22,-9Z" 
id="f5_v"
transform="scale(0.001,-0.001)" />

<path d="M593,-126c-12,0,-22,9,-22,9c-9,9,-9,21,-9,21V351H116c-12,0,-21,9,-21,9c-9,9,-9,22,-9,22c0,12,9,21,9,21c9,10,21,10,21,10H562V860c0,12,9,22,9,22c10,9,22,9,22,9c12,0,22,-9,22,-9c9,-10,9,-22,9,-22V413h446c12,0,21,-10,21,-10c9,-9,9,-21,9,-21c0,-12,-9,-22,-9,-22c-9,-9,-21,-9,-21,-9H624V-96c0,-12,-9,-21,-9,-21c-10,-9,-22,-9,-22,-9Z" 
id="f5_d"
transform="scale(0.001,-0.001)" />

<path d="M165,-18c-18,0,-32,9,-32,9C116,2,110,21,110,21c-6,20,11,42,11,42L443,487L185,914c-28,45,-57,79,-57,79c-29,34,-70,34,-70,34c-17,0,-17,16,-17,16c0,17,17,17,17,17c61,0,121,-20,121,-20c59,-20,93,-73,93,-73L798,101C814,72,832,47,832,47C849,21,865,11,865,11c7,-5,7,-11,7,-11c0,-16,-15,-16,-15,-16H785c-4,0,-6,2,-6,2C735,6,710,47,710,47L469,446L205,6C191,-16,170,-18,170,-18c-2,0,-3,0,-5,0Z" 
id="f5_26"
transform="scale(0.001,-0.001)" />

<path d="M0,-29c-11,0,-20,8,-20,8C-30,-12,-30,0,-30,0c0,11,10,20,10,20c9,9,20,9,20,9H626c13,0,22,-9,22,-9c9,-9,9,-20,9,-20c0,-12,-9,-21,-9,-21c-9,-8,-22,-8,-22,-8Z" 
id="f6_23"
transform="scale(0.001,-0.001)" />

<path d="M500,-152c-9,0,-16,4,-16,4c-10,6,-15,17,-15,17c-5,12,2,24,2,24c21,46,52,78,52,78H-1c-12,0,-20,8,-20,8c-9,9,-9,21,-9,21c0,11,10,20,10,20c9,9,20,9,20,9H524c-34,37,-53,78,-53,78c-7,12,-3,24,-3,24c4,11,16,18,16,18c5,1,9,2,13,2c7,0,11,-2,11,-2c11,-4,18,-16,18,-16C542,98,568,71,568,71C593,43,628,26,628,26c6,-3,12,-12,12,-12c8,-16,0,-28,0,-28c-1,-9,-12,-14,-12,-14C594,-45,568,-72,568,-72c-26,-28,-42,-63,-42,-63c-7,-12,-18,-16,-18,-16c-3,-1,-6,-1,-8,-1Z" 
id="f6_20"
transform="scale(0.001,-0.001)" />

<path d="M202,774l-22,31l284,222L750,805L729,774L464,947L202,774Z" 
id="f6_4"
transform="scale(0.001,-0.001)" />

<path d="M620,-14c0,0,-52,0,-93,43c0,0,-41,45,-77,203L384,522L132,0H0L340,703l-12,66c0,0,-23,107,-61,146c0,0,-37,38,-83,38c0,0,-42,0,-74,-30c0,0,-31,-31,-41,-100H43c0,0,2,117,57,187c0,0,40,51,96,51c0,0,50,0,86,-40c0,0,54,-60,88,-213L489,283c0,0,27,-118,62,-153c0,0,33,-36,79,-36c0,0,43,0,71,29c0,0,28,29,33,94h30c0,0,1,-19,1,-29c0,0,0,-98,-49,-158c0,0,-37,-44,-96,-44Z" 
id="f2_28"
transform="scale(0.001,-0.001)" />

<path d="M411,93c0,0,98,0,158,73c0,0,60,74,60,195c0,0,0,163,-57,252c0,0,-56,88,-161,88c0,0,-113,0,-165,-72c0,0,-52,-72,-52,-229c0,0,0,-147,56,-227c0,0,56,-80,161,-80ZM404,-20c0,0,-161,0,-255,118c0,0,-95,120,-95,324c0,0,0,179,92,290c0,0,91,110,239,110c0,0,147,0,233,-124l11,-15v414H763V0H638V109L621,84C621,84,538,-20,404,-20Z" 
id="f1_1z"
transform="scale(0.001,-0.001)" />

<path d="M435,92c0,0,86,0,147,69c0,0,60,68,60,186c0,0,0,114,-60,179c0,0,-60,66,-152,66c0,0,-91,0,-154,-66c0,0,-64,-65,-64,-171c0,0,0,-70,30,-133c0,0,29,-64,82,-97c0,0,52,-33,111,-33Zm3,-110c0,0,-168,0,-274,123C164,105,58,228,58,512c0,0,0,317,117,461c0,0,102,125,275,125c0,0,129,0,212,-72c0,0,82,-72,99,-200L627,815c0,0,-18,79,-51,115c0,0,-54,58,-134,58c0,0,-64,0,-113,-36c0,0,-63,-46,-99,-135c0,0,-37,-89,-38,-253c0,0,48,74,118,110c0,0,70,36,147,36c0,0,135,0,229,-99c0,0,94,-99,94,-256c0,0,0,-103,-44,-191C736,164,691,75,614,28c0,0,-78,-46,-176,-46Z" 
id="f7_q"
transform="scale(0.001,-0.001)" />

<path d="M125,0V1051H268V115H799V0Z" 
id="f0_1c"
transform="scale(0.001,-0.001)" />

<path d="M106,0V620c0,0,0,85,-5,188H228c0,0,6,-138,6,-165h3c0,0,32,103,74,141c0,0,42,38,118,38c0,0,27,0,54,-7V692c0,0,-26,7,-71,7c0,0,-84,0,-128,-72c0,0,-44,-72,-44,-206V0Z" 
id="f0_2e"
transform="scale(0.001,-0.001)" />

<path d="M606,-14c0,0,-164,0,-284,65c0,0,-119,66,-182,189c0,0,-63,123,-63,291c0,0,0,255,137,396c0,0,137,140,386,140c0,0,174,0,283,-59c0,0,109,-59,168,-189L915,779c0,0,-44,90,-123,131c0,0,-79,41,-196,41c0,0,-182,0,-278,-110c0,0,-96,-110,-96,-310c0,0,0,-200,102,-315c0,0,102,-115,282,-115c0,0,103,0,193,31c0,0,89,31,144,85V407H629V526h445V164c0,0,-83,-85,-205,-132c0,0,-121,-46,-263,-46Z" 
id="f0_17"
transform="scale(0.001,-0.001)" />

<path d="M355,-14c0,0,-133,0,-194,65c0,0,-62,66,-62,219V808H234V296c0,0,0,-80,16,-124c0,0,16,-44,50,-64c0,0,34,-19,101,-19c0,0,97,0,153,66c0,0,55,67,55,185V808H744V172c0,0,0,-141,4,-172H621c0,0,0,4,-1,20c0,0,-1,17,-2,38c0,0,-1,21,-3,80h-2C613,138,567,55,506,20c0,0,-61,-34,-151,-34Z" 
id="f0_2h"
transform="scale(0.001,-0.001)" />

<path d="M395,89c0,0,115,0,166,79c0,0,51,79,51,246c0,0,0,160,-51,235c0,0,-51,75,-164,75c0,0,-102,0,-147,-75c0,0,-45,-75,-45,-244c0,0,0,-170,45,-243c0,0,45,-73,145,-73ZM361,-14c0,0,-153,0,-225,102c0,0,-72,103,-72,312c0,0,0,422,297,422c0,0,92,0,153,-33c0,0,61,-34,98,-107h2l-2,90v335H747V166c0,0,0,-126,4,-166H623c0,0,-2,12,-5,55c0,0,-3,44,-3,75h-3c0,0,-37,-78,-98,-111c0,0,-62,-33,-153,-33Z" 
id="f0_20"
transform="scale(0.001,-0.001)" />

<path d="M140,0V163H285V0Z" 
id="f0_i"
transform="scale(0.001,-0.001)" />


</defs>
</svg>