<?xml version="1.0" encoding="UTF-8" standalone="no"?>
<!DOCTYPE svg PUBLIC "-//W3C//DTD SVG 1.1//EN"
"http://www.w3.org/Graphics/SVG/1.1/DTD/svg11.dtd">
<svg viewBox="0 0 696 1067" version="1.1" xmlns="http://www.w3.org/2000/svg" xmlns:xlink="http://www.w3.org/1999/xlink">
<defs>
<style type="text/css"><![CDATA[
.g0_26{
fill: none;
stroke: #000000;
stroke-width: 0.7660889;
stroke-linecap: round;
stroke-linejoin: miter;
}
.g1_26{
fill: none;
stroke: #000000;
stroke-width: 0.7638889;
stroke-linecap: round;
stroke-linejoin: miter;
}
.g2_26{
fill: none;
stroke: #000000;
stroke-width: 0.7663334;
stroke-linecap: round;
stroke-linejoin: miter;
}
.g3_26{
fill: none;
stroke: #000000;
stroke-width: 0.7607111;
stroke-linecap: round;
stroke-linejoin: miter;
}
.g4_26{
fill: none;
stroke: #000000;
stroke-width: 0.7656;
stroke-linecap: round;
stroke-linejoin: miter;
}
]]></style>
</defs>
<g fill="#D4D4D4" fill-opacity="0.56" >
<use xlink:href="#f0_1f" transform="matrix(50.9,-50.9,50.9,50.9,84.5,924.1)" />
<use xlink:href="#f0_2a" transform="matrix(50.9,-50.9,50.9,50.9,145,863.6)" />
<use xlink:href="#f0_28" transform="matrix(50.9,-50.9,50.9,50.9,188.3,820.3)" />
<use xlink:href="#f0_25" transform="matrix(50.9,-50.9,50.9,50.9,205.5,803.1)" />
<use xlink:href="#f0_2a" transform="matrix(50.9,-50.9,50.9,50.9,222.8,785.8)" />
<use xlink:href="#f0_21" transform="matrix(50.9,-50.9,50.9,50.9,266,742.5)" />
<use xlink:href="#f0_2k" transform="matrix(50.9,-50.9,50.9,50.9,309.3,699.3)" />
<use xlink:href="#f0_1x" transform="matrix(50.9,-50.9,50.9,50.9,348.2,660.4)" />
<use xlink:href="#f0_29" transform="matrix(50.9,-50.9,50.9,50.9,391.4,617.2)" />
<use xlink:href="#f0_2c" transform="matrix(50.9,-50.9,50.9,50.9,456.2,552.4)" />
<use xlink:href="#f0_2b" transform="matrix(50.9,-50.9,50.9,50.9,499.5,509.1)" />
<use xlink:href="#f0_25" transform="matrix(50.9,-50.9,50.9,50.9,542.7,465.9)" />
<use xlink:href="#f0_2a" transform="matrix(50.9,-50.9,50.9,50.9,560,448.6)" />
<use xlink:href="#f0_2g" transform="matrix(50.9,-50.9,50.9,50.9,603.2,405.4)" />
</g>
<g fill="#000000" >
<use xlink:href="#f1_k" transform="matrix(10.4,0,0,10.4,68.3,105.9)" />
<use xlink:href="#f1_k" transform="matrix(10.4,0,0,10.4,77.2,105.9)" />
<use xlink:href="#f1_h" transform="matrix(10.4,0,0,10.4,86.3,105.9)" />
<use xlink:href="#f1_15" transform="matrix(10.4,0,0,10.4,109,105.9)" />
<use xlink:href="#f1_24" transform="matrix(10.4,0,0,10.4,118.8,105.9)" />
<use xlink:href="#f1_29" transform="matrix(10.4,0,0,10.4,122.3,105.9)" />
<use xlink:href="#f1_1z" transform="matrix(10.4,0,0,10.4,131.2,105.9)" />
<use xlink:href="#f1_2f" transform="matrix(10.4,0,0,10.4,147.2,105.9)" />
<use xlink:href="#f1_23" transform="matrix(10.4,0,0,10.4,151.6,105.9)" />
<use xlink:href="#f1_20" transform="matrix(10.4,0,0,10.4,160.5,105.9)" />
<use xlink:href="#f1_2h" transform="matrix(10.4,0,0,10.4,176.3,105.9)" />
<use xlink:href="#f1_1w" transform="matrix(10.4,0,0,10.4,184.3,105.9)" />
<use xlink:href="#f1_27" transform="matrix(10.4,0,0,10.4,193.2,105.9)" />
<use xlink:href="#f1_2g" transform="matrix(10.4,0,0,10.4,196.7,105.9)" />
<use xlink:href="#f1_20" transform="matrix(10.4,0,0,10.4,205.6,105.9)" />
<use xlink:href="#f1_2a" transform="matrix(10.4,0,0,10.4,221.6,105.9)" />
<use xlink:href="#f1_21" transform="matrix(10.4,0,0,10.4,230.5,105.9)" />
</g>
<path d="M244.8,76v42.2M373.9,76v42.2" class="g0_26" />
<g fill="#000000" >
<use xlink:href="#f2_1w" transform="matrix(10.5,0,0,10.5,252.7,89.6)" />
<use xlink:href="#f2_24" transform="matrix(10.5,0,0,10.5,283.9,89.6)" />
<use xlink:href="#f2_1x" transform="matrix(10.5,0,0,10.5,287.6,89.6)" />
<use xlink:href="#f2_1y" transform="matrix(10.5,0,0,10.5,325.2,89.6)" />
<use xlink:href="#f2_24" transform="matrix(10.5,0,0,10.5,356.3,89.6)" />
<use xlink:href="#f2_1z" transform="matrix(10.5,0,0,10.5,360.1,89.6)" />
<use xlink:href="#f2_1y" transform="matrix(10.5,0,0,10.5,256.8,113.6)" />
<use xlink:href="#f2_24" transform="matrix(10.5,0,0,10.5,288,113.6)" />
<use xlink:href="#f2_1z" transform="matrix(10.5,0,0,10.5,291.8,113.6)" />
<use xlink:href="#f2_1w" transform="matrix(10.5,0,0,10.5,325.9,113.6)" />
<use xlink:href="#f2_24" transform="matrix(10.5,0,0,10.5,357.1,113.6)" />
<use xlink:href="#f2_1x" transform="matrix(10.5,0,0,10.5,360.8,113.6)" />
<use xlink:href="#f3_f" transform="matrix(10.5,0,0,10.5,268.7,89.6)" />
<use xlink:href="#f3_f" transform="matrix(10.5,0,0,10.5,341.1,89.6)" />
<use xlink:href="#f3_h" transform="matrix(10.5,0,0,10.5,248.3,113.6)" />
<use xlink:href="#f3_f" transform="matrix(10.5,0,0,10.5,272.8,113.6)" />
<use xlink:href="#f3_h" transform="matrix(10.5,0,0,10.5,342.1,113.6)" />
<use xlink:href="#f1_k" transform="matrix(10.4,0,0,10.4,68.3,168.6)" />
<use xlink:href="#f1_l" transform="matrix(10.4,0,0,10.4,77.2,168.6)" />
<use xlink:href="#f1_h" transform="matrix(10.4,0,0,10.4,86.3,168.6)" />
<use xlink:href="#f1_18" transform="matrix(10.4,0,0,10.4,109,168.6)" />
<use xlink:href="#f1_21" transform="matrix(10.4,0,0,10.4,113.4,168.6)" />
</g>
<path d="M128,143.8V186m87.7,-42.2V186" class="g1_26" />
<g fill="#000000" >
<use xlink:href="#f1_l" transform="matrix(10.5,0,0,10.5,131,157.4)" />
<use xlink:href="#f1_o" transform="matrix(10.5,0,0,10.5,172.5,157.4)" />
<use xlink:href="#f1_m" transform="matrix(10.5,0,0,10.5,204.4,157.4)" />
<use xlink:href="#f1_j" transform="matrix(10.5,0,0,10.5,243,169.2)" />
<use xlink:href="#f1_f" transform="matrix(10.5,0,0,10.5,251.3,169.2)" />
<use xlink:href="#f1_21" transform="matrix(10.5,0,0,10.5,262.7,169.2)" />
<use xlink:href="#f1_24" transform="matrix(10.5,0,0,10.5,267.4,169.2)" />
<use xlink:href="#f1_29" transform="matrix(10.5,0,0,10.5,271.2,169.2)" />
<use xlink:href="#f1_1z" transform="matrix(10.5,0,0,10.5,280.5,169.2)" />
<use xlink:href="#f1_h" transform="matrix(10.5,0,0,10.5,306.4,169.2)" />
<use xlink:href="#f1_o" transform="matrix(10.5,0,0,10.5,131,181.5)" />
<use xlink:href="#f1_l" transform="matrix(10.5,0,0,10.5,172.8,181.5)" />
<use xlink:href="#f1_s" transform="matrix(10.5,0,0,10.5,204.3,181.5)" />
<use xlink:href="#f2_2j" transform="matrix(10.5,0,0,10.5,140.1,157.4)" />
<use xlink:href="#f2_2j" transform="matrix(10.5,0,0,10.5,296.9,169.2)" />
<use xlink:href="#f2_2j" transform="matrix(10.5,0,0,10.5,140.3,181.5)" />
<use xlink:href="#f3_f" transform="matrix(10.5,0,0,10.5,156.8,157.4)" />
<use xlink:href="#f3_x" transform="matrix(10.5,0,0,10.5,225.5,169.2)" />
<use xlink:href="#f3_f" transform="matrix(10.5,0,0,10.5,157.1,181.5)" />
<use xlink:href="#f1_k" transform="matrix(10.4,0,0,10.4,68.3,237.5)" />
<use xlink:href="#f1_m" transform="matrix(10.4,0,0,10.4,77.2,237.5)" />
<use xlink:href="#f1_h" transform="matrix(10.4,0,0,10.4,86.3,237.5)" />
<use xlink:href="#f1_15" transform="matrix(10.4,0,0,10.4,109,237.5)" />
<use xlink:href="#f1_2a" transform="matrix(10.4,0,0,10.4,118.8,237.5)" />
<use xlink:href="#f1_2d" transform="matrix(10.4,0,0,10.4,127.6,237.5)" />
<use xlink:href="#f1_2i" transform="matrix(10.4,0,0,10.4,139.9,237.5)" />
<use xlink:href="#f1_23" transform="matrix(10.4,0,0,10.4,151.4,237.5)" />
<use xlink:href="#f1_1w" transform="matrix(10.4,0,0,10.4,160.3,237.5)" />
<use xlink:href="#f1_2f" transform="matrix(10.4,0,0,10.4,169.2,237.5)" />
<use xlink:href="#f1_2h" transform="matrix(10.4,0,0,10.4,180.7,237.5)" />
<use xlink:href="#f1_1w" transform="matrix(10.4,0,0,10.4,188.7,237.5)" />
<use xlink:href="#f1_27" transform="matrix(10.4,0,0,10.4,197.6,237.5)" />
<use xlink:href="#f1_2g" transform="matrix(10.4,0,0,10.4,201.1,237.5)" />
<use xlink:href="#f1_20" transform="matrix(10.4,0,0,10.4,210,237.5)" />
<use xlink:href="#f1_2a" transform="matrix(10.4,0,0,10.4,225.8,237.5)" />
<use xlink:href="#f1_21" transform="matrix(10.4,0,0,10.4,234.7,237.5)" />
<use xlink:href="#f2_26" transform="matrix(10.4,0,0,10.4,245.8,237.5)" />
<use xlink:href="#f1_f" transform="matrix(10.4,0,0,10.4,253.8,237.5)" />
<use xlink:href="#f1_2f" transform="matrix(10.4,0,0,10.4,265.4,237.5)" />
<use xlink:href="#f1_23" transform="matrix(10.4,0,0,10.4,269.9,237.5)" />
<use xlink:href="#f1_20" transform="matrix(10.4,0,0,10.4,278.7,237.5)" />
<use xlink:href="#f1_28" transform="matrix(10.4,0,0,10.4,294.6,237.5)" />
<use xlink:href="#f1_1w" transform="matrix(10.4,0,0,10.4,307.8,237.5)" />
<use xlink:href="#f1_2f" transform="matrix(10.4,0,0,10.4,316.7,237.5)" />
<use xlink:href="#f1_2d" transform="matrix(10.4,0,0,10.4,321.2,237.5)" />
<use xlink:href="#f1_24" transform="matrix(10.4,0,0,10.4,326.5,237.5)" />
<use xlink:href="#f1_2j" transform="matrix(10.4,0,0,10.4,330,237.5)" />
<use xlink:href="#f1_l" transform="matrix(10.5,0,0,10.5,388.2,222.3)" />
<use xlink:href="#f1_m" transform="matrix(10.5,0,0,10.5,355.9,246.4)" />
<use xlink:href="#f1_n" transform="matrix(10.5,0,0,10.5,388.1,246.4)" />
<use xlink:href="#f2_26" transform="matrix(10.5,0,0,10.5,355,222.3)" />
<use xlink:href="#f3_4r" transform="matrix(10.5,0,0,10.5,347.8,223.5)" />
<use xlink:href="#f3_57" transform="matrix(10.5,0,0,10.5,398.7,223.5)" />
<use xlink:href="#f3_4s" transform="matrix(10.5,0,0,10.5,347.8,239)" />
<use xlink:href="#f3_58" transform="matrix(10.5,0,0,10.5,398.7,239)" />
<use xlink:href="#f3_4t" transform="matrix(10.5,0,0,10.5,347.8,249.7)" />
<use xlink:href="#f3_59" transform="matrix(10.5,0,0,10.5,398.7,249.7)" />
<use xlink:href="#f1_23" transform="matrix(10.4,0,0,10.4,416.1,237.5)" />
<use xlink:href="#f1_1w" transform="matrix(10.4,0,0,10.4,425,237.5)" />
<use xlink:href="#f1_2e" transform="matrix(10.4,0,0,10.4,433.8,237.5)" />
<use xlink:href="#f1_29" transform="matrix(10.4,0,0,10.4,448.8,237.5)" />
<use xlink:href="#f1_2a" transform="matrix(10.4,0,0,10.4,457.6,237.5)" />
<use xlink:href="#f1_24" transform="matrix(10.4,0,0,10.4,473.7,237.5)" />
<use xlink:href="#f1_29" transform="matrix(10.4,0,0,10.4,477.2,237.5)" />
<use xlink:href="#f1_2h" transform="matrix(10.4,0,0,10.4,486.1,237.5)" />
<use xlink:href="#f1_20" transform="matrix(10.4,0,0,10.4,494,237.5)" />
<use xlink:href="#f1_2d" transform="matrix(10.4,0,0,10.4,502.9,237.5)" />
<use xlink:href="#f1_2e" transform="matrix(10.4,0,0,10.4,508.2,237.5)" />
<use xlink:href="#f1_20" transform="matrix(10.4,0,0,10.4,516.2,237.5)" />
<use xlink:href="#f1_h" transform="matrix(10.4,0,0,10.4,525.1,237.5)" />
<use xlink:href="#f1_k" transform="matrix(10.4,0,0,10.4,68.3,308.4)" />
<use xlink:href="#f1_n" transform="matrix(10.4,0,0,10.4,77.2,308.4)" />
<use xlink:href="#f1_h" transform="matrix(10.4,0,0,10.4,86.3,308.4)" />
<use xlink:href="#f1_18" transform="matrix(10.4,0,0,10.4,109,308.4)" />
<use xlink:href="#f1_21" transform="matrix(10.4,0,0,10.4,113.4,308.4)" />
<use xlink:href="#f1_2e" transform="matrix(10.5,0,0,10.5,186,297.9)" />
<use xlink:href="#f1_24" transform="matrix(10.5,0,0,10.5,194.3,297.9)" />
<use xlink:href="#f1_29" transform="matrix(10.5,0,0,10.5,198.1,297.9)" />
<use xlink:href="#f1_m" transform="matrix(10.5,0,0,10.5,210.8,297.9)" />
<use xlink:href="#f1_j" transform="matrix(10.5,0,0,10.5,220,297.9)" />
<use xlink:href="#f1_1y" transform="matrix(10.5,0,0,10.5,258.6,297.9)" />
<use xlink:href="#f1_2a" transform="matrix(10.5,0,0,10.5,266.9,297.9)" />
<use xlink:href="#f1_2e" transform="matrix(10.5,0,0,10.5,276.2,297.9)" />
<use xlink:href="#f1_m" transform="matrix(10.5,0,0,10.5,288.3,297.9)" />
<use xlink:href="#f1_j" transform="matrix(10.5,0,0,10.5,297.6,297.9)" />
<use xlink:href="#f1_f" transform="matrix(10.5,0,0,10.5,324.8,309.6)" />
<use xlink:href="#f1_2e" transform="matrix(10.5,0,0,10.5,186,321.9)" />
<use xlink:href="#f1_24" transform="matrix(10.5,0,0,10.5,194.3,321.9)" />
<use xlink:href="#f1_29" transform="matrix(10.5,0,0,10.5,198.1,321.9)" />
<use xlink:href="#f1_p" transform="matrix(10.5,0,0,10.5,210.8,321.9)" />
<use xlink:href="#f1_j" transform="matrix(10.5,0,0,10.5,220,321.9)" />
<use xlink:href="#f1_1y" transform="matrix(10.5,0,0,10.5,258.6,321.9)" />
<use xlink:href="#f1_2a" transform="matrix(10.5,0,0,10.5,266.9,321.9)" />
<use xlink:href="#f1_2e" transform="matrix(10.5,0,0,10.5,276.2,321.9)" />
<use xlink:href="#f1_p" transform="matrix(10.5,0,0,10.5,288.3,321.9)" />
<use xlink:href="#f1_j" transform="matrix(10.5,0,0,10.5,297.6,321.9)" />
<use xlink:href="#f2_10" transform="matrix(10.5,0,0,10.5,127.4,309.6)" />
<use xlink:href="#f3_36" transform="matrix(10.5,0,0,10.5,229.3,297.9)" />
<use xlink:href="#f3_36" transform="matrix(10.5,0,0,10.5,306.9,297.9)" />
<use xlink:href="#f3_4r" transform="matrix(10.5,0,0,10.5,164.7,299)" />
<use xlink:href="#f3_57" transform="matrix(10.5,0,0,10.5,314.9,299)" />
<use xlink:href="#f3_x" transform="matrix(10.5,0,0,10.5,146.8,309.6)" />
<use xlink:href="#f3_4s" transform="matrix(10.5,0,0,10.5,164.7,314.5)" />
<use xlink:href="#f3_58" transform="matrix(10.5,0,0,10.5,314.9,314.5)" />
<use xlink:href="#f3_h" transform="matrix(10.5,0,0,10.5,172.9,321.9)" />
<use xlink:href="#f3_36" transform="matrix(10.5,0,0,10.5,229.3,321.9)" />
<use xlink:href="#f3_36" transform="matrix(10.5,0,0,10.5,306.9,321.9)" />
<use xlink:href="#f3_4t" transform="matrix(10.5,0,0,10.5,164.7,325.3)" />
<use xlink:href="#f3_59" transform="matrix(10.5,0,0,10.5,314.9,325.3)" />
<use xlink:href="#f1_2i" transform="matrix(10.4,0,0,10.4,338.7,308.4)" />
<use xlink:href="#f1_23" transform="matrix(10.4,0,0,10.4,350.2,308.4)" />
<use xlink:href="#f1_1w" transform="matrix(10.4,0,0,10.4,359.1,308.4)" />
<use xlink:href="#f1_2f" transform="matrix(10.4,0,0,10.4,368,308.4)" />
<use xlink:href="#f1_24" transform="matrix(10.4,0,0,10.4,379.2,308.4)" />
<use xlink:href="#f1_2e" transform="matrix(10.4,0,0,10.4,382.7,308.4)" />
<use xlink:href="#f1_2n" transform="matrix(10.4,0,0,10.4,397.5,308.4)" />
<use xlink:href="#f2_10" transform="matrix(10.4,0,0,10.4,401.6,308.4)" />
<use xlink:href="#f1_2n" transform="matrix(10.4,0,0,10.4,412.2,308.4)" />
<use xlink:href="#f1_h" transform="matrix(10.4,0,0,10.4,416.4,308.4)" />
<use xlink:href="#f1_k" transform="matrix(10.4,0,0,10.4,68.3,386.4)" />
<use xlink:href="#f1_o" transform="matrix(10.4,0,0,10.4,77.2,386.4)" />
<use xlink:href="#f1_h" transform="matrix(10.4,0,0,10.4,86.3,386.4)" />
<use xlink:href="#f1_15" transform="matrix(10.4,0,0,10.4,109,386.4)" />
<use xlink:href="#f1_24" transform="matrix(10.4,0,0,10.4,118.8,386.4)" />
<use xlink:href="#f1_29" transform="matrix(10.4,0,0,10.4,122.3,386.4)" />
<use xlink:href="#f1_1z" transform="matrix(10.4,0,0,10.4,131.2,386.4)" />
<use xlink:href="#f1_2f" transform="matrix(10.4,0,0,10.4,147,386.4)" />
<use xlink:href="#f1_23" transform="matrix(10.4,0,0,10.4,151.4,386.4)" />
<use xlink:href="#f1_20" transform="matrix(10.4,0,0,10.4,160.3,386.4)" />
<use xlink:href="#f1_1y" transform="matrix(10.4,0,0,10.4,176.3,386.4)" />
<use xlink:href="#f1_2a" transform="matrix(10.4,0,0,10.4,184.3,386.4)" />
<use xlink:href="#f1_21" transform="matrix(10.4,0,0,10.4,193.2,386.4)" />
<use xlink:href="#f1_1w" transform="matrix(10.4,0,0,10.4,197.6,386.4)" />
<use xlink:href="#f1_1y" transform="matrix(10.4,0,0,10.4,206.5,386.4)" />
<use xlink:href="#f1_2f" transform="matrix(10.4,0,0,10.4,214.4,386.4)" />
<use xlink:href="#f1_2a" transform="matrix(10.4,0,0,10.4,218.9,386.4)" />
<use xlink:href="#f1_2d" transform="matrix(10.4,0,0,10.4,227.7,386.4)" />
<use xlink:href="#f1_2a" transform="matrix(10.4,0,0,10.4,240,386.4)" />
<use xlink:href="#f1_21" transform="matrix(10.4,0,0,10.4,248.9,386.4)" />
<use xlink:href="#f2_1w" transform="matrix(10.4,0,0,10.4,259.9,386.4)" />
<use xlink:href="#f1_k" transform="matrix(7.4,0,0,7.4,268.7,391.7)" />
<use xlink:href="#f1_l" transform="matrix(7.4,0,0,7.4,275,391.7)" />
<use xlink:href="#f1_24" transform="matrix(10.4,0,0,10.4,288.1,386.4)" />
<use xlink:href="#f1_29" transform="matrix(10.4,0,0,10.4,291.7,386.4)" />
</g>
<path d="M311,346.9v66.2M428.6,346.9v66.2" class="g2_26" />
<g fill="#000000" >
<use xlink:href="#f1_l" transform="matrix(10.6,0,0,10.5,324.4,360.5)" />
<use xlink:href="#f1_m" transform="matrix(10.6,0,0,10.5,365.7,360.5)" />
<use xlink:href="#f1_o" transform="matrix(10.6,0,0,10.5,402.3,360.5)" />
<use xlink:href="#f1_p" transform="matrix(10.6,0,0,10.5,324.4,384.6)" />
<use xlink:href="#f1_j" transform="matrix(10.6,0,0,10.5,361,384.6)" />
<use xlink:href="#f1_n" transform="matrix(10.6,0,0,10.5,402.3,384.6)" />
<use xlink:href="#f1_h" transform="matrix(10.6,0,0,10.5,433.2,384.6)" />
<use xlink:href="#f1_k" transform="matrix(10.6,0,0,10.5,325.1,408.6)" />
<use xlink:href="#f1_o" transform="matrix(10.6,0,0,10.5,361,408.6)" />
<use xlink:href="#f1_q" transform="matrix(10.6,0,0,10.5,407,408.6)" />
<use xlink:href="#f3_h" transform="matrix(10.6,0,0,10.5,356.6,360.5)" />
<use xlink:href="#f3_h" transform="matrix(10.6,0,0,10.5,397.9,408.6)" />
<use xlink:href="#f1_k" transform="matrix(10.4,0,0,10.4,68.3,471.8)" />
<use xlink:href="#f1_p" transform="matrix(10.4,0,0,10.4,77.2,471.8)" />
<use xlink:href="#f1_h" transform="matrix(10.4,0,0,10.4,86.3,471.8)" />
<use xlink:href="#f1_15" transform="matrix(10.4,0,0,10.4,109,471.8)" />
<use xlink:href="#f1_24" transform="matrix(10.4,0,0,10.4,118.8,471.8)" />
<use xlink:href="#f1_29" transform="matrix(10.4,0,0,10.4,122.3,471.8)" />
<use xlink:href="#f1_1z" transform="matrix(10.4,0,0,10.4,131.2,471.8)" />
<use xlink:href="#f1_2f" transform="matrix(10.4,0,0,10.4,147,471.8)" />
<use xlink:href="#f1_23" transform="matrix(10.4,0,0,10.4,151.4,471.8)" />
<use xlink:href="#f1_20" transform="matrix(10.4,0,0,10.4,160.3,471.8)" />
<use xlink:href="#f1_28" transform="matrix(10.4,0,0,10.4,176.1,471.8)" />
<use xlink:href="#f1_24" transform="matrix(10.4,0,0,10.4,189.4,471.8)" />
<use xlink:href="#f1_29" transform="matrix(10.4,0,0,10.4,193,471.8)" />
<use xlink:href="#f1_2a" transform="matrix(10.4,0,0,10.4,201.8,471.8)" />
<use xlink:href="#f1_2d" transform="matrix(10.4,0,0,10.4,210.7,471.8)" />
<use xlink:href="#f1_2a" transform="matrix(10.4,0,0,10.4,223.2,471.8)" />
<use xlink:href="#f1_21" transform="matrix(10.4,0,0,10.4,232,471.8)" />
<use xlink:href="#f2_1w" transform="matrix(10.4,0,0,10.4,242.7,471.8)" />
<use xlink:href="#f1_l" transform="matrix(7.4,0,0,7.4,251.5,477.1)" />
<use xlink:href="#f1_m" transform="matrix(7.4,0,0,7.4,257.8,477.1)" />
<use xlink:href="#f1_24" transform="matrix(10.4,0,0,10.4,270.9,471.8)" />
<use xlink:href="#f1_29" transform="matrix(10.4,0,0,10.4,274.4,471.8)" />
</g>
<path d="M293.8,433.8v66.5m88.7,-66.5v66.5" class="g3_26" />
<g fill="#000000" >
<use xlink:href="#f1_k" transform="matrix(10.4,0,0,10.5,303.8,447.6)" />
<use xlink:href="#f1_m" transform="matrix(10.4,0,0,10.5,334,447.6)" />
<use xlink:href="#f1_l" transform="matrix(10.4,0,0,10.5,366.6,447.6)" />
<use xlink:href="#f1_n" transform="matrix(10.4,0,0,10.5,301.3,471.6)" />
<use xlink:href="#f1_o" transform="matrix(10.4,0,0,10.5,334,471.6)" />
<use xlink:href="#f1_p" transform="matrix(10.4,0,0,10.5,366.6,471.6)" />
<use xlink:href="#f1_h" transform="matrix(10.4,0,0,10.5,384.6,471.6)" />
<use xlink:href="#f1_m" transform="matrix(10.4,0,0,10.5,301.3,495.7)" />
<use xlink:href="#f1_o" transform="matrix(10.4,0,0,10.5,334,495.7)" />
<use xlink:href="#f1_l" transform="matrix(10.4,0,0,10.5,366.6,495.7)" />
<use xlink:href="#f3_h" transform="matrix(10.4,0,0,10.5,357.9,447.6)" />
<use xlink:href="#f3_h" transform="matrix(10.4,0,0,10.5,325.3,471.6)" />
<use xlink:href="#f1_k" transform="matrix(10.4,0,0,10.4,68.3,542.2)" />
<use xlink:href="#f1_q" transform="matrix(10.4,0,0,10.4,77.2,542.2)" />
<use xlink:href="#f1_h" transform="matrix(10.4,0,0,10.4,86.3,542.2)" />
<use xlink:href="#f1_15" transform="matrix(10.4,0,0,10.4,109,542.2)" />
<use xlink:href="#f1_24" transform="matrix(10.4,0,0,10.4,118.8,542.2)" />
<use xlink:href="#f1_29" transform="matrix(10.4,0,0,10.4,122.3,542.2)" />
<use xlink:href="#f1_1z" transform="matrix(10.4,0,0,10.4,131.2,542.2)" />
<use xlink:href="#f1_2f" transform="matrix(10.4,0,0,10.4,147,542.2)" />
<use xlink:href="#f1_23" transform="matrix(10.4,0,0,10.4,151.4,542.2)" />
<use xlink:href="#f1_20" transform="matrix(10.4,0,0,10.4,160.3,542.2)" />
<use xlink:href="#f1_2h" transform="matrix(10.4,0,0,10.4,176.3,542.2)" />
<use xlink:href="#f1_1w" transform="matrix(10.4,0,0,10.4,184.3,542.2)" />
<use xlink:href="#f1_27" transform="matrix(10.4,0,0,10.4,193.2,542.2)" />
<use xlink:href="#f1_2g" transform="matrix(10.4,0,0,10.4,196.7,542.2)" />
<use xlink:href="#f1_20" transform="matrix(10.4,0,0,10.4,205.6,542.2)" />
<use xlink:href="#f1_2a" transform="matrix(10.4,0,0,10.4,221.4,542.2)" />
<use xlink:href="#f1_21" transform="matrix(10.4,0,0,10.4,230.3,542.2)" />
<use xlink:href="#f2_1f" transform="matrix(10.4,0,0,10.4,241.2,542.2)" />
<use xlink:href="#f1_f" transform="matrix(10.4,0,0,10.4,251.8,542.2)" />
<use xlink:href="#f1_2e" transform="matrix(10.4,0,0,10.4,263.4,542.2)" />
<use xlink:href="#f1_2g" transform="matrix(10.4,0,0,10.4,271.4,542.2)" />
<use xlink:href="#f1_1y" transform="matrix(10.4,0,0,10.4,280.3,542.2)" />
<use xlink:href="#f1_23" transform="matrix(10.4,0,0,10.4,288.2,542.2)" />
<use xlink:href="#f1_2f" transform="matrix(10.4,0,0,10.4,304.2,542.2)" />
<use xlink:href="#f1_23" transform="matrix(10.4,0,0,10.4,308.7,542.2)" />
<use xlink:href="#f1_1w" transform="matrix(10.4,0,0,10.4,317.5,542.2)" />
<use xlink:href="#f1_2f" transform="matrix(10.4,0,0,10.4,326.4,542.2)" />
<use xlink:href="#f1_2f" transform="matrix(10.4,0,0,10.4,337.8,542.2)" />
<use xlink:href="#f1_23" transform="matrix(10.4,0,0,10.4,342.3,542.2)" />
<use xlink:href="#f1_20" transform="matrix(10.4,0,0,10.4,351.1,542.2)" />
<use xlink:href="#f1_28" transform="matrix(10.4,0,0,10.4,367.1,542.2)" />
<use xlink:href="#f1_1w" transform="matrix(10.4,0,0,10.4,380.4,542.2)" />
<use xlink:href="#f1_2f" transform="matrix(10.4,0,0,10.4,389.3,542.2)" />
<use xlink:href="#f1_2d" transform="matrix(10.4,0,0,10.4,393.7,542.2)" />
<use xlink:href="#f1_24" transform="matrix(10.4,0,0,10.4,399,542.2)" />
<use xlink:href="#f1_2j" transform="matrix(10.4,0,0,10.4,402.6,542.2)" />
<use xlink:href="#f1_k" transform="matrix(10.4,0,0,10.5,435.9,533.8)" />
<use xlink:href="#f1_l" transform="matrix(10.4,0,0,10.5,459.7,533.8)" />
<use xlink:href="#f1_n" transform="matrix(10.4,0,0,10.5,433.4,557.9)" />
<use xlink:href="#f2_1f" transform="matrix(10.4,0,0,10.5,456,557.9)" />
<use xlink:href="#f3_h" transform="matrix(10.5,0,0,10.5,427.1,533.8)" />
<use xlink:href="#f3_4r" transform="matrix(10.5,0,0,10.5,420.1,534.8)" />
<use xlink:href="#f3_57" transform="matrix(10.5,0,0,10.5,468.7,534.8)" />
<use xlink:href="#f3_4s" transform="matrix(10.5,0,0,10.5,420.1,550.3)" />
<use xlink:href="#f3_58" transform="matrix(10.5,0,0,10.5,468.7,550.3)" />
<use xlink:href="#f3_4t" transform="matrix(10.5,0,0,10.5,420.1,561.4)" />
<use xlink:href="#f3_59" transform="matrix(10.5,0,0,10.5,468.7,561.4)" />
<use xlink:href="#f1_24" transform="matrix(10.4,0,0,10.4,485,542.2)" />
<use xlink:href="#f1_2e" transform="matrix(10.4,0,0,10.4,488.6,542.2)" />
<use xlink:href="#f1_2e" transform="matrix(10.4,0,0,10.4,503.7,542.2)" />
<use xlink:href="#f1_24" transform="matrix(10.4,0,0,10.4,511.7,542.2)" />
<use xlink:href="#f1_29" transform="matrix(10.4,0,0,10.4,515.2,542.2)" />
<use xlink:href="#f1_22" transform="matrix(10.4,0,0,10.4,524.1,542.2)" />
<use xlink:href="#f1_2g" transform="matrix(10.4,0,0,10.4,532.9,542.2)" />
<use xlink:href="#f1_27" transform="matrix(10.4,0,0,10.4,541.8,542.2)" />
<use xlink:href="#f1_1w" transform="matrix(10.4,0,0,10.4,545.3,542.2)" />
<use xlink:href="#f1_2d" transform="matrix(10.4,0,0,10.4,554.2,542.2)" />
<use xlink:href="#f1_h" transform="matrix(10.4,0,0,10.4,559.5,542.2)" />
<use xlink:href="#f1_k" transform="matrix(10.4,0,0,10.4,68.3,585.6)" />
<use xlink:href="#f1_r" transform="matrix(10.4,0,0,10.4,77.2,585.6)" />
<use xlink:href="#f1_h" transform="matrix(10.4,0,0,10.4,86.3,585.6)" />
<use xlink:href="#f1_15" transform="matrix(10.4,0,0,10.4,109,585.6)" />
<use xlink:href="#f1_24" transform="matrix(10.4,0,0,10.4,118.8,585.6)" />
<use xlink:href="#f1_29" transform="matrix(10.4,0,0,10.4,122.3,585.6)" />
<use xlink:href="#f1_1z" transform="matrix(10.4,0,0,10.4,131.2,585.6)" />
<use xlink:href="#f1_2f" transform="matrix(10.4,0,0,10.4,148.6,585.6)" />
<use xlink:href="#f1_23" transform="matrix(10.4,0,0,10.4,153.1,585.6)" />
<use xlink:href="#f1_20" transform="matrix(10.4,0,0,10.4,161.9,585.6)" />
<use xlink:href="#f1_2h" transform="matrix(10.4,0,0,10.4,179.3,585.6)" />
<use xlink:href="#f1_1w" transform="matrix(10.4,0,0,10.4,187.2,585.6)" />
<use xlink:href="#f1_27" transform="matrix(10.4,0,0,10.4,196.1,585.6)" />
<use xlink:href="#f1_2g" transform="matrix(10.4,0,0,10.4,199.6,585.6)" />
<use xlink:href="#f1_20" transform="matrix(10.4,0,0,10.4,208.5,585.6)" />
<use xlink:href="#f1_2a" transform="matrix(10.4,0,0,10.4,226,585.6)" />
<use xlink:href="#f1_21" transform="matrix(10.4,0,0,10.4,234.9,585.6)" />
<use xlink:href="#f2_2j" transform="matrix(10.4,0,0,10.4,247.2,585.6)" />
<use xlink:href="#f1_2e" transform="matrix(10.4,0,0,10.4,263.9,585.6)" />
<use xlink:href="#f1_2g" transform="matrix(10.4,0,0,10.4,271.9,585.6)" />
<use xlink:href="#f1_1y" transform="matrix(10.4,0,0,10.4,280.8,585.6)" />
<use xlink:href="#f1_23" transform="matrix(10.4,0,0,10.4,288.7,585.6)" />
<use xlink:href="#f1_2f" transform="matrix(10.4,0,0,10.4,306,585.6)" />
<use xlink:href="#f1_23" transform="matrix(10.4,0,0,10.4,310.5,585.6)" />
<use xlink:href="#f1_1w" transform="matrix(10.4,0,0,10.4,319.3,585.6)" />
<use xlink:href="#f1_2f" transform="matrix(10.4,0,0,10.4,328.2,585.6)" />
<use xlink:href="#f1_2f" transform="matrix(10.4,0,0,10.4,341.3,585.6)" />
<use xlink:href="#f1_23" transform="matrix(10.4,0,0,10.4,345.7,585.6)" />
<use xlink:href="#f1_20" transform="matrix(10.4,0,0,10.4,354.6,585.6)" />
<use xlink:href="#f1_2b" transform="matrix(10.4,0,0,10.4,372,585.6)" />
<use xlink:href="#f1_2a" transform="matrix(10.4,0,0,10.4,380.9,585.6)" />
<use xlink:href="#f1_24" transform="matrix(10.4,0,0,10.4,389.8,585.6)" />
<use xlink:href="#f1_29" transform="matrix(10.4,0,0,10.4,393.3,585.6)" />
<use xlink:href="#f1_2f" transform="matrix(10.4,0,0,10.4,402.2,585.6)" />
<use xlink:href="#f1_2e" transform="matrix(10.4,0,0,10.4,406.6,585.6)" />
<use xlink:href="#f1_b" transform="matrix(10.4,0,0,10.4,423.2,585.6)" />
<use xlink:href="#f1_j" transform="matrix(10.4,0,0,10.4,428.5,585.6)" />
<use xlink:href="#f1_f" transform="matrix(10.4,0,0,10.4,437.4,585.6)" />
<use xlink:href="#f1_l" transform="matrix(10.4,0,0,10.4,450.3,585.6)" />
<use xlink:href="#f1_c" transform="matrix(10.4,0,0,10.4,459.1,585.6)" />
<use xlink:href="#f1_f" transform="matrix(10.4,0,0,10.4,464.4,585.6)" />
<use xlink:href="#f1_b" transform="matrix(10.4,0,0,10.4,477.5,585.6)" />
<use xlink:href="#f1_k" transform="matrix(10.4,0,0,10.4,482.8,585.6)" />
<use xlink:href="#f1_f" transform="matrix(10.4,0,0,10.4,491.7,585.6)" />
<use xlink:href="#f2_2j" transform="matrix(10.4,0,0,10.4,503.9,585.6)" />
<use xlink:href="#f1_c" transform="matrix(10.4,0,0,10.4,512,585.6)" />
<use xlink:href="#f1_1w" transform="matrix(10.4,0,0,10.4,525.9,585.6)" />
<use xlink:href="#f1_29" transform="matrix(10.4,0,0,10.4,534.8,585.6)" />
<use xlink:href="#f1_1z" transform="matrix(10.4,0,0,10.4,543.6,585.6)" />
<use xlink:href="#f1_b" transform="matrix(10.4,0,0,10.4,560.9,585.6)" />
<use xlink:href="#f1_m" transform="matrix(10.4,0,0,10.4,566.3,585.6)" />
<use xlink:href="#f1_f" transform="matrix(10.4,0,0,10.4,575.1,585.6)" />
<use xlink:href="#f1_k" transform="matrix(10.4,0,0,10.4,588.2,585.6)" />
<use xlink:href="#f1_c" transform="matrix(10.4,0,0,10.4,597,585.6)" />
<use xlink:href="#f1_1w" transform="matrix(10.4,0,0,10.4,611,585.6)" />
<use xlink:href="#f1_2d" transform="matrix(10.4,0,0,10.4,619.8,585.6)" />
<use xlink:href="#f1_20" transform="matrix(10.4,0,0,10.4,625.1,585.6)" />
<use xlink:href="#f1_1y" transform="matrix(10.4,0,0,10.4,109,605.8)" />
<use xlink:href="#f1_2a" transform="matrix(10.4,0,0,10.4,117.3,605.8)" />
<use xlink:href="#f1_27" transform="matrix(10.4,0,0,10.4,126.1,605.8)" />
<use xlink:href="#f1_27" transform="matrix(10.4,0,0,10.4,129.7,605.8)" />
<use xlink:href="#f1_24" transform="matrix(10.4,0,0,10.4,133.2,605.8)" />
<use xlink:href="#f1_29" transform="matrix(10.4,0,0,10.4,136.7,605.8)" />
<use xlink:href="#f1_20" transform="matrix(10.4,0,0,10.4,145.6,605.8)" />
<use xlink:href="#f1_1w" transform="matrix(10.4,0,0,10.4,154.5,605.8)" />
<use xlink:href="#f1_2d" transform="matrix(10.4,0,0,10.4,163.4,605.8)" />
<use xlink:href="#f1_h" transform="matrix(10.4,0,0,10.4,168.9,605.8)" />
<use xlink:href="#f1_k" transform="matrix(10.4,0,0,10.4,68.3,639.7)" />
<use xlink:href="#f1_s" transform="matrix(10.4,0,0,10.4,77.2,639.7)" />
<use xlink:href="#f1_h" transform="matrix(10.4,0,0,10.4,86.3,639.7)" />
<use xlink:href="#f1_10" transform="matrix(10.4,0,0,10.4,109,639.7)" />
<use xlink:href="#f1_2d" transform="matrix(10.4,0,0,10.4,119.6,639.7)" />
<use xlink:href="#f1_20" transform="matrix(10.4,0,0,10.4,125,639.7)" />
<use xlink:href="#f1_1w" transform="matrix(10.4,0,0,10.4,133.8,639.7)" />
<use xlink:href="#f1_2a" transform="matrix(10.4,0,0,10.4,148.7,639.7)" />
<use xlink:href="#f1_21" transform="matrix(10.4,0,0,10.4,157.6,639.7)" />
<use xlink:href="#f1_1w" transform="matrix(10.4,0,0,10.4,168.1,639.7)" />
<use xlink:href="#f1_2f" transform="matrix(10.4,0,0,10.4,183,639.7)" />
<use xlink:href="#f1_2d" transform="matrix(10.4,0,0,10.4,187.4,639.7)" />
<use xlink:href="#f1_24" transform="matrix(10.4,0,0,10.4,192.7,639.7)" />
<use xlink:href="#f1_1w" transform="matrix(10.4,0,0,10.4,196.3,639.7)" />
<use xlink:href="#f1_29" transform="matrix(10.4,0,0,10.4,205.2,639.7)" />
<use xlink:href="#f1_22" transform="matrix(10.4,0,0,10.4,214,639.7)" />
<use xlink:href="#f1_27" transform="matrix(10.4,0,0,10.4,222.9,639.7)" />
<use xlink:href="#f1_20" transform="matrix(10.4,0,0,10.4,226.4,639.7)" />
<use xlink:href="#f1_2i" transform="matrix(10.4,0,0,10.4,241.3,639.7)" />
<use xlink:href="#f1_24" transform="matrix(10.4,0,0,10.4,252.9,639.7)" />
<use xlink:href="#f1_2f" transform="matrix(10.4,0,0,10.4,256.4,639.7)" />
<use xlink:href="#f1_23" transform="matrix(10.4,0,0,10.4,260.8,639.7)" />
<use xlink:href="#f1_2h" transform="matrix(10.4,0,0,10.4,275.8,639.7)" />
<use xlink:href="#f1_20" transform="matrix(10.4,0,0,10.4,283.7,639.7)" />
<use xlink:href="#f1_2d" transform="matrix(10.4,0,0,10.4,292.6,639.7)" />
<use xlink:href="#f1_2f" transform="matrix(10.4,0,0,10.4,297.9,639.7)" />
<use xlink:href="#f1_24" transform="matrix(10.4,0,0,10.4,302.3,639.7)" />
<use xlink:href="#f1_1y" transform="matrix(10.4,0,0,10.4,305.9,639.7)" />
<use xlink:href="#f1_20" transform="matrix(10.4,0,0,10.4,313.9,639.7)" />
<use xlink:href="#f1_2e" transform="matrix(10.4,0,0,10.4,322.7,639.7)" />
<use xlink:href="#f1_b" transform="matrix(10.4,0,0,10.4,336.7,639.7)" />
<use xlink:href="#f2_26" transform="matrix(10.4,0,0,10.4,341.3,639.7)" />
<use xlink:href="#f1_f" transform="matrix(10.4,0,0,10.4,349.4,639.7)" />
<use xlink:href="#f1_j" transform="matrix(10.4,0,0,10.4,359.8,639.7)" />
<use xlink:href="#f1_c" transform="matrix(10.4,0,0,10.4,368.7,639.7)" />
<use xlink:href="#f1_f" transform="matrix(10.4,0,0,10.4,374,639.7)" />
<use xlink:href="#f1_b" transform="matrix(10.4,0,0,10.4,384.5,639.7)" />
<use xlink:href="#f1_k" transform="matrix(10.4,0,0,10.4,389.8,639.7)" />
<use xlink:href="#f1_f" transform="matrix(10.4,0,0,10.4,398.7,639.7)" />
<use xlink:href="#f1_k" transform="matrix(10.4,0,0,10.4,409.2,639.7)" />
<use xlink:href="#f1_c" transform="matrix(10.4,0,0,10.4,418,639.7)" />
<use xlink:href="#f1_1w" transform="matrix(10.4,0,0,10.4,429.4,639.7)" />
<use xlink:href="#f1_29" transform="matrix(10.4,0,0,10.4,438.2,639.7)" />
<use xlink:href="#f1_1z" transform="matrix(10.4,0,0,10.4,447.1,639.7)" />
<use xlink:href="#f1_b" transform="matrix(10.4,0,0,10.4,462,639.7)" />
<use xlink:href="#f1_j" transform="matrix(10.4,0,0,10.4,467.3,639.7)" />
<use xlink:href="#f1_f" transform="matrix(10.4,0,0,10.4,476.2,639.7)" />
<use xlink:href="#f1_m" transform="matrix(10.4,0,0,10.4,486.7,639.7)" />
<use xlink:href="#f1_c" transform="matrix(10.4,0,0,10.4,495.6,639.7)" />
<use xlink:href="#f1_24" transform="matrix(10.4,0,0,10.4,506.9,639.7)" />
<use xlink:href="#f1_2e" transform="matrix(10.4,0,0,10.4,510.5,639.7)" />
<use xlink:href="#f1_o" transform="matrix(10.4,0,0,10.4,524.5,639.7)" />
<use xlink:href="#f1_2g" transform="matrix(10.4,0,0,10.4,539.4,639.7)" />
<use xlink:href="#f1_29" transform="matrix(10.4,0,0,10.4,548.3,639.7)" />
<use xlink:href="#f1_24" transform="matrix(10.4,0,0,10.4,557.1,639.7)" />
<use xlink:href="#f1_2f" transform="matrix(10.4,0,0,10.4,560.7,639.7)" />
<use xlink:href="#f1_h" transform="matrix(10.4,0,0,10.4,565.1,639.7)" />
<use xlink:href="#f1_15" transform="matrix(10.4,0,0,10.4,575.6,639.7)" />
<use xlink:href="#f1_24" transform="matrix(10.4,0,0,10.4,585.3,639.7)" />
<use xlink:href="#f1_29" transform="matrix(10.4,0,0,10.4,588.9,639.7)" />
<use xlink:href="#f1_1z" transform="matrix(10.4,0,0,10.4,597.7,639.7)" />
<use xlink:href="#f1_2f" transform="matrix(10.4,0,0,10.4,612.6,639.7)" />
<use xlink:href="#f1_23" transform="matrix(10.4,0,0,10.4,617.1,639.7)" />
<use xlink:href="#f1_20" transform="matrix(10.4,0,0,10.4,625.9,639.7)" />
<use xlink:href="#f1_2h" transform="matrix(10.4,0,0,10.4,109,659.9)" />
<use xlink:href="#f1_1w" transform="matrix(10.4,0,0,10.4,117,659.9)" />
<use xlink:href="#f1_27" transform="matrix(10.4,0,0,10.4,125.9,659.9)" />
<use xlink:href="#f1_2g" transform="matrix(10.4,0,0,10.4,129.4,659.9)" />
<use xlink:href="#f1_20" transform="matrix(10.4,0,0,10.4,138.3,659.9)" />
<use xlink:href="#f1_b" transform="matrix(10.4,0,0,10.4,154.1,659.9)" />
<use xlink:href="#f2_2e" transform="matrix(10.4,0,0,10.4,159.2,659.9)" />
<use xlink:href="#f1_c" transform="matrix(10.4,0,0,10.4,167.3,659.9)" />
<use xlink:href="#f1_2a" transform="matrix(10.4,0,0,10.4,179.6,659.9)" />
<use xlink:href="#f1_21" transform="matrix(10.4,0,0,10.4,188.5,659.9)" />
<use xlink:href="#f2_26" transform="matrix(10.4,0,0,10.4,199.9,659.9)" />
<use xlink:href="#f1_h" transform="matrix(10.4,0,0,10.4,208,659.9)" />
<use xlink:href="#f1_l" transform="matrix(10.4,0,0,10.4,68.3,693.8)" />
<use xlink:href="#f1_j" transform="matrix(10.4,0,0,10.4,77.2,693.8)" />
<use xlink:href="#f1_h" transform="matrix(10.4,0,0,10.4,86.3,693.8)" />
<use xlink:href="#f1_18" transform="matrix(10.4,0,0,10.4,109,693.8)" />
<use xlink:href="#f1_21" transform="matrix(10.4,0,0,10.4,113.4,693.8)" />
<use xlink:href="#f2_10" transform="matrix(10.4,0,0,10.4,124.2,693.8)" />
<use xlink:href="#f1_24" transform="matrix(10.4,0,0,10.4,141.5,693.8)" />
<use xlink:href="#f1_2e" transform="matrix(10.4,0,0,10.4,145,693.8)" />
<use xlink:href="#f1_1w" transform="matrix(10.4,0,0,10.4,159.4,693.8)" />
<use xlink:href="#f1_2e" transform="matrix(10.4,0,0,10.4,174.9,693.8)" />
<use xlink:href="#f1_2c" transform="matrix(10.4,0,0,10.4,182.8,693.8)" />
<use xlink:href="#f1_2g" transform="matrix(10.4,0,0,10.4,191.7,693.8)" />
<use xlink:href="#f1_1w" transform="matrix(10.4,0,0,10.4,200.6,693.8)" />
<use xlink:href="#f1_2d" transform="matrix(10.4,0,0,10.4,209.4,693.8)" />
<use xlink:href="#f1_20" transform="matrix(10.4,0,0,10.4,214.8,693.8)" />
<use xlink:href="#f1_28" transform="matrix(10.4,0,0,10.4,230,693.8)" />
<use xlink:href="#f1_1w" transform="matrix(10.4,0,0,10.4,243.3,693.8)" />
<use xlink:href="#f1_2f" transform="matrix(10.4,0,0,10.4,252.2,693.8)" />
<use xlink:href="#f1_2d" transform="matrix(10.4,0,0,10.4,256.6,693.8)" />
<use xlink:href="#f1_24" transform="matrix(10.4,0,0,10.4,261.9,693.8)" />
<use xlink:href="#f1_2j" transform="matrix(10.4,0,0,10.4,265.5,693.8)" />
<use xlink:href="#f1_2a" transform="matrix(10.4,0,0,10.4,280.1,693.8)" />
<use xlink:href="#f1_21" transform="matrix(10.4,0,0,10.4,288.9,693.8)" />
<use xlink:href="#f1_2a" transform="matrix(10.4,0,0,10.4,299.8,693.8)" />
<use xlink:href="#f1_2d" transform="matrix(10.4,0,0,10.4,308.6,693.8)" />
<use xlink:href="#f1_1z" transform="matrix(10.4,0,0,10.4,314,693.8)" />
<use xlink:href="#f1_20" transform="matrix(10.4,0,0,10.4,322.8,693.8)" />
<use xlink:href="#f1_2d" transform="matrix(10.4,0,0,10.4,331.7,693.8)" />
<use xlink:href="#f1_m" transform="matrix(10.4,0,0,10.4,343.6,693.8)" />
<use xlink:href="#f1_1w" transform="matrix(10.4,0,0,10.4,358.9,693.8)" />
<use xlink:href="#f1_29" transform="matrix(10.4,0,0,10.4,367.8,693.8)" />
<use xlink:href="#f1_1z" transform="matrix(10.4,0,0,10.4,376.6,693.8)" />
<use xlink:href="#f1_2n" transform="matrix(10.4,0,0,10.4,392.1,693.8)" />
<use xlink:href="#f2_10" transform="matrix(10.4,0,0,10.4,395.4,693.8)" />
<use xlink:href="#f1_2n" transform="matrix(10.4,0,0,10.4,406,693.8)" />
<use xlink:href="#f1_w" transform="matrix(10.4,0,0,10.4,416.8,693.8)" />
<use xlink:href="#f1_99" transform="matrix(10.4,0,0,10.4,432.5,693.8)" />
<use xlink:href="#f1_l" transform="matrix(10.4,0,0,10.4,448,693.8)" />
<use xlink:href="#f1_f" transform="matrix(10.4,0,0,10.4,456.8,693.8)" />
<use xlink:href="#f1_21" transform="matrix(10.4,0,0,10.4,467.7,693.8)" />
<use xlink:href="#f1_24" transform="matrix(10.4,0,0,10.4,472.1,693.8)" />
<use xlink:href="#f1_29" transform="matrix(10.4,0,0,10.4,475.7,693.8)" />
<use xlink:href="#f1_1z" transform="matrix(10.4,0,0,10.4,484.5,693.8)" />
<use xlink:href="#f1_2f" transform="matrix(10.4,0,0,10.4,500,693.8)" />
<use xlink:href="#f1_23" transform="matrix(10.4,0,0,10.4,504.4,693.8)" />
<use xlink:href="#f1_20" transform="matrix(10.4,0,0,10.4,513.3,693.8)" />
<use xlink:href="#f1_2h" transform="matrix(10.4,0,0,10.4,528.8,693.8)" />
<use xlink:href="#f1_1w" transform="matrix(10.4,0,0,10.4,536.7,693.8)" />
<use xlink:href="#f1_27" transform="matrix(10.4,0,0,10.4,545.6,693.8)" />
<use xlink:href="#f1_2g" transform="matrix(10.4,0,0,10.4,549.2,693.8)" />
<use xlink:href="#f1_20" transform="matrix(10.4,0,0,10.4,558,693.8)" />
<use xlink:href="#f1_2a" transform="matrix(10.4,0,0,10.4,573.3,693.8)" />
<use xlink:href="#f1_21" transform="matrix(10.4,0,0,10.4,582.2,693.8)" />
<use xlink:href="#f1_2n" transform="matrix(10.4,0,0,10.4,593.2,693.8)" />
<use xlink:href="#f1_99" transform="matrix(10.4,0,0,10.4,597.4,693.8)" />
<use xlink:href="#f1_m" transform="matrix(10.4,0,0,10.4,606.2,693.8)" />
<use xlink:href="#f2_10" transform="matrix(10.4,0,0,10.4,614.3,693.8)" />
<use xlink:href="#f1_2n" transform="matrix(10.4,0,0,10.4,624.9,693.8)" />
<use xlink:href="#f1_h" transform="matrix(10.4,0,0,10.4,629.1,693.8)" />
<use xlink:href="#f1_l" transform="matrix(10.4,0,0,10.4,68.3,727.7)" />
<use xlink:href="#f1_k" transform="matrix(10.4,0,0,10.4,77.2,727.7)" />
<use xlink:href="#f1_h" transform="matrix(10.4,0,0,10.4,86.3,727.7)" />
<use xlink:href="#f1_18" transform="matrix(10.4,0,0,10.4,109,727.7)" />
<use xlink:href="#f1_21" transform="matrix(10.4,0,0,10.4,113.4,727.7)" />
<use xlink:href="#f2_10" transform="matrix(10.4,0,0,10.4,124.4,727.7)" />
<use xlink:href="#f1_w" transform="matrix(10.4,0,0,10.4,141.8,727.7)" />
<use xlink:href="#f1_l" transform="matrix(10.4,0,0,10.4,157.9,727.7)" />
<use xlink:href="#f2_11" transform="matrix(10.4,0,0,10.4,166.8,727.7)" />
<use xlink:href="#f1_2i" transform="matrix(10.4,0,0,10.4,184.2,727.7)" />
<use xlink:href="#f1_23" transform="matrix(10.4,0,0,10.4,195.7,727.7)" />
<use xlink:href="#f1_20" transform="matrix(10.4,0,0,10.4,204.6,727.7)" />
<use xlink:href="#f1_2d" transform="matrix(10.4,0,0,10.4,213.4,727.7)" />
<use xlink:href="#f1_20" transform="matrix(10.4,0,0,10.4,218.7,727.7)" />
<use xlink:href="#f2_10" transform="matrix(10.4,0,0,10.4,234.2,727.7)" />
<use xlink:href="#f1_1w" transform="matrix(10.4,0,0,10.4,251.6,727.7)" />
<use xlink:href="#f1_29" transform="matrix(10.4,0,0,10.4,260.5,727.7)" />
<use xlink:href="#f1_1z" transform="matrix(10.4,0,0,10.4,269.4,727.7)" />
<use xlink:href="#f2_11" transform="matrix(10.4,0,0,10.4,284.8,727.7)" />
<use xlink:href="#f1_1w" transform="matrix(10.4,0,0,10.4,302.2,727.7)" />
<use xlink:href="#f1_2d" transform="matrix(10.4,0,0,10.4,311.1,727.7)" />
<use xlink:href="#f1_20" transform="matrix(10.4,0,0,10.4,316.4,727.7)" />
<use xlink:href="#f1_2e" transform="matrix(10.4,0,0,10.4,332.1,727.7)" />
<use xlink:href="#f1_2c" transform="matrix(10.4,0,0,10.4,340,727.7)" />
<use xlink:href="#f1_2g" transform="matrix(10.4,0,0,10.4,348.9,727.7)" />
<use xlink:href="#f1_1w" transform="matrix(10.4,0,0,10.4,357.8,727.7)" />
<use xlink:href="#f1_2d" transform="matrix(10.4,0,0,10.4,366.7,727.7)" />
<use xlink:href="#f1_20" transform="matrix(10.4,0,0,10.4,372,727.7)" />
<use xlink:href="#f1_28" transform="matrix(10.4,0,0,10.4,387.6,727.7)" />
<use xlink:href="#f1_1w" transform="matrix(10.4,0,0,10.4,400.9,727.7)" />
<use xlink:href="#f1_2f" transform="matrix(10.4,0,0,10.4,409.8,727.7)" />
<use xlink:href="#f1_2d" transform="matrix(10.4,0,0,10.4,414.2,727.7)" />
<use xlink:href="#f1_24" transform="matrix(10.4,0,0,10.4,419.5,727.7)" />
<use xlink:href="#f1_1y" transform="matrix(10.4,0,0,10.4,423,727.7)" />
<use xlink:href="#f1_20" transform="matrix(10.4,0,0,10.4,431,727.7)" />
<use xlink:href="#f1_2e" transform="matrix(10.4,0,0,10.4,439.9,727.7)" />
<use xlink:href="#f1_2a" transform="matrix(10.4,0,0,10.4,454.6,727.7)" />
<use xlink:href="#f1_21" transform="matrix(10.4,0,0,10.4,463.5,727.7)" />
<use xlink:href="#f1_2a" transform="matrix(10.4,0,0,10.4,474.6,727.7)" />
<use xlink:href="#f1_2d" transform="matrix(10.4,0,0,10.4,483.4,727.7)" />
<use xlink:href="#f1_1z" transform="matrix(10.4,0,0,10.4,488.7,727.7)" />
<use xlink:href="#f1_20" transform="matrix(10.4,0,0,10.4,497.6,727.7)" />
<use xlink:href="#f1_2d" transform="matrix(10.4,0,0,10.4,506.5,727.7)" />
<use xlink:href="#f1_m" transform="matrix(10.4,0,0,10.4,518.6,727.7)" />
<use xlink:href="#f1_4r" transform="matrix(10.4,0,0,10.4,534.2,727.7)" />
<use xlink:href="#f1_m" transform="matrix(10.4,0,0,10.4,550.3,727.7)" />
<use xlink:href="#f1_1w" transform="matrix(10.4,0,0,10.4,565.9,727.7)" />
<use xlink:href="#f1_29" transform="matrix(10.4,0,0,10.4,574.8,727.7)" />
<use xlink:href="#f1_1z" transform="matrix(10.4,0,0,10.4,583.7,727.7)" />
<use xlink:href="#f1_2n" transform="matrix(10.4,0,0,10.4,599.3,727.7)" />
<use xlink:href="#f2_11" transform="matrix(10.4,0,0,10.4,602.5,727.7)" />
<use xlink:href="#f1_2n" transform="matrix(10.4,0,0,10.4,613.2,727.7)" />
<use xlink:href="#f1_w" transform="matrix(10.4,0,0,10.4,624.1,727.7)" />
<use xlink:href="#f1_o" transform="matrix(10.4,0,0,10.4,109,747.9)" />
<use xlink:href="#f1_f" transform="matrix(10.4,0,0,10.4,117.9,747.9)" />
<use xlink:href="#f1_2i" transform="matrix(10.4,0,0,10.4,129.3,747.9)" />
<use xlink:href="#f1_23" transform="matrix(10.4,0,0,10.4,140.8,747.9)" />
<use xlink:href="#f1_1w" transform="matrix(10.4,0,0,10.4,149.7,747.9)" />
<use xlink:href="#f1_2f" transform="matrix(10.4,0,0,10.4,158.5,747.9)" />
<use xlink:href="#f1_24" transform="matrix(10.4,0,0,10.4,169.9,747.9)" />
<use xlink:href="#f1_2e" transform="matrix(10.4,0,0,10.4,173.5,747.9)" />
<use xlink:href="#f1_2n" transform="matrix(10.4,0,0,10.4,188.4,747.9)" />
<use xlink:href="#f2_10" transform="matrix(10.4,0,0,10.4,192.4,747.9)" />
<use xlink:href="#f1_2n" transform="matrix(10.4,0,0,10.4,203.1,747.9)" />
<use xlink:href="#f1_y" transform="matrix(10.4,0,0,10.4,207.2,747.9)" />
<use xlink:href="#f1_l" transform="matrix(10.4,0,0,10.4,68.3,781.8)" />
<use xlink:href="#f1_l" transform="matrix(10.4,0,0,10.4,77.2,781.8)" />
<use xlink:href="#f1_h" transform="matrix(10.4,0,0,10.4,86.3,781.8)" />
<use xlink:href="#f1_1m" transform="matrix(10.4,0,0,10.4,109,781.8)" />
<use xlink:href="#f1_23" transform="matrix(10.4,0,0,10.4,124.1,781.8)" />
<use xlink:href="#f1_1w" transform="matrix(10.4,0,0,10.4,132.9,781.8)" />
<use xlink:href="#f1_2f" transform="matrix(10.4,0,0,10.4,141.8,781.8)" />
<use xlink:href="#f1_24" transform="matrix(10.4,0,0,10.4,151.4,781.8)" />
<use xlink:href="#f1_2e" transform="matrix(10.4,0,0,10.4,154.9,781.8)" />
<use xlink:href="#f1_2f" transform="matrix(10.4,0,0,10.4,168,781.8)" />
<use xlink:href="#f1_23" transform="matrix(10.4,0,0,10.4,172.5,781.8)" />
<use xlink:href="#f1_20" transform="matrix(10.4,0,0,10.4,181.3,781.8)" />
<use xlink:href="#f1_29" transform="matrix(10.4,0,0,10.4,195.5,781.8)" />
<use xlink:href="#f1_2g" transform="matrix(10.4,0,0,10.4,204.4,781.8)" />
<use xlink:href="#f1_28" transform="matrix(10.4,0,0,10.4,213.2,781.8)" />
<use xlink:href="#f1_1x" transform="matrix(10.4,0,0,10.4,226.5,781.8)" />
<use xlink:href="#f1_20" transform="matrix(10.4,0,0,10.4,235.4,781.8)" />
<use xlink:href="#f1_2d" transform="matrix(10.4,0,0,10.4,244.3,781.8)" />
<use xlink:href="#f1_2a" transform="matrix(10.4,0,0,10.4,254.7,781.8)" />
<use xlink:href="#f1_21" transform="matrix(10.4,0,0,10.4,263.6,781.8)" />
<use xlink:href="#f1_1w" transform="matrix(10.4,0,0,10.4,273.2,781.8)" />
<use xlink:href="#f1_27" transform="matrix(10.4,0,0,10.4,282,781.8)" />
<use xlink:href="#f1_27" transform="matrix(10.4,0,0,10.4,285.6,781.8)" />
<use xlink:href="#f1_2b" transform="matrix(10.4,0,0,10.4,294.2,781.8)" />
<use xlink:href="#f1_2a" transform="matrix(10.4,0,0,10.4,303.1,781.8)" />
<use xlink:href="#f1_2e" transform="matrix(10.4,0,0,10.4,312,781.8)" />
<use xlink:href="#f1_2e" transform="matrix(10.4,0,0,10.4,319.9,781.8)" />
<use xlink:href="#f1_24" transform="matrix(10.4,0,0,10.4,327.9,781.8)" />
<use xlink:href="#f1_1x" transform="matrix(10.4,0,0,10.4,331.5,781.8)" />
<use xlink:href="#f1_27" transform="matrix(10.4,0,0,10.4,340.3,781.8)" />
<use xlink:href="#f1_20" transform="matrix(10.4,0,0,10.4,343.9,781.8)" />
<use xlink:href="#f1_28" transform="matrix(10.4,0,0,10.4,357.9,781.8)" />
<use xlink:href="#f1_1w" transform="matrix(10.4,0,0,10.4,371.2,781.8)" />
<use xlink:href="#f1_2f" transform="matrix(10.4,0,0,10.4,380,781.8)" />
<use xlink:href="#f1_2d" transform="matrix(10.4,0,0,10.4,384.5,781.8)" />
<use xlink:href="#f1_24" transform="matrix(10.4,0,0,10.4,389.8,781.8)" />
<use xlink:href="#f1_1y" transform="matrix(10.4,0,0,10.4,393.3,781.8)" />
<use xlink:href="#f1_20" transform="matrix(10.4,0,0,10.4,401.3,781.8)" />
<use xlink:href="#f1_2e" transform="matrix(10.4,0,0,10.4,410.2,781.8)" />
<use xlink:href="#f1_2a" transform="matrix(10.4,0,0,10.4,423.4,781.8)" />
<use xlink:href="#f1_21" transform="matrix(10.4,0,0,10.4,432.3,781.8)" />
<use xlink:href="#f1_2a" transform="matrix(10.4,0,0,10.4,441.9,781.8)" />
<use xlink:href="#f1_2d" transform="matrix(10.4,0,0,10.4,450.8,781.8)" />
<use xlink:href="#f1_1z" transform="matrix(10.4,0,0,10.4,456.1,781.8)" />
<use xlink:href="#f1_20" transform="matrix(10.4,0,0,10.4,464.9,781.8)" />
<use xlink:href="#f1_2d" transform="matrix(10.4,0,0,10.4,473.8,781.8)" />
<use xlink:href="#f1_l" transform="matrix(10.4,0,0,10.4,484.2,781.8)" />
<use xlink:href="#f1_4r" transform="matrix(10.4,0,0,10.4,498.3,781.8)" />
<use xlink:href="#f1_m" transform="matrix(10.4,0,0,10.4,512.7,781.8)" />
<use xlink:href="#f1_2i" transform="matrix(10.4,0,0,10.4,526.9,781.8)" />
<use xlink:href="#f1_24" transform="matrix(10.4,0,0,10.4,538.4,781.8)" />
<use xlink:href="#f1_2f" transform="matrix(10.4,0,0,10.4,541.9,781.8)" />
<use xlink:href="#f1_23" transform="matrix(10.4,0,0,10.4,546.4,781.8)" />
<use xlink:href="#f1_20" transform="matrix(10.4,0,0,10.4,560.4,781.8)" />
<use xlink:href="#f1_1w" transform="matrix(10.4,0,0,10.4,569.2,781.8)" />
<use xlink:href="#f1_1y" transform="matrix(10.4,0,0,10.4,578.1,781.8)" />
<use xlink:href="#f1_23" transform="matrix(10.4,0,0,10.4,586.1,781.8)" />
<use xlink:href="#f1_20" transform="matrix(10.4,0,0,10.4,600.1,781.8)" />
<use xlink:href="#f1_29" transform="matrix(10.4,0,0,10.4,609,781.8)" />
<use xlink:href="#f1_2f" transform="matrix(10.4,0,0,10.4,617.8,781.8)" />
<use xlink:href="#f1_2d" transform="matrix(10.4,0,0,10.4,622.3,781.8)" />
<use xlink:href="#f1_2k" transform="matrix(10.4,0,0,10.4,627.6,781.8)" />
<use xlink:href="#f1_j" transform="matrix(10.4,0,0,10.4,109,802)" />
<use xlink:href="#f1_f" transform="matrix(10.4,0,0,10.4,117.9,802)" />
<use xlink:href="#f1_k" transform="matrix(10.4,0,0,10.4,129.3,802)" />
<use xlink:href="#f1_2a" transform="matrix(10.4,0,0,10.4,145.1,802)" />
<use xlink:href="#f1_2d" transform="matrix(10.4,0,0,10.4,154,802)" />
<use xlink:href="#f1_l" transform="matrix(10.4,0,0,10.4,166.3,802)" />
<use xlink:href="#f1_h" transform="matrix(10.4,0,0,10.4,175.1,802)" />
<use xlink:href="#f1_l" transform="matrix(10.4,0,0,10.4,68.3,835.9)" />
<use xlink:href="#f1_m" transform="matrix(10.4,0,0,10.4,77.2,835.9)" />
<use xlink:href="#f1_h" transform="matrix(10.4,0,0,10.4,86.3,835.9)" />
<use xlink:href="#f1_15" transform="matrix(10.4,0,0,10.4,109,835.9)" />
<use xlink:href="#f1_24" transform="matrix(10.4,0,0,10.4,118.8,835.9)" />
<use xlink:href="#f1_29" transform="matrix(10.4,0,0,10.4,122.3,835.9)" />
<use xlink:href="#f1_1z" transform="matrix(10.4,0,0,10.4,131.2,835.9)" />
<use xlink:href="#f1_2f" transform="matrix(10.4,0,0,10.4,147.2,835.9)" />
<use xlink:href="#f1_23" transform="matrix(10.4,0,0,10.4,151.6,835.9)" />
<use xlink:href="#f1_20" transform="matrix(10.4,0,0,10.4,160.5,835.9)" />
<use xlink:href="#f1_1w" transform="matrix(10.4,0,0,10.4,176.3,835.9)" />
<use xlink:href="#f1_2d" transform="matrix(10.4,0,0,10.4,185.2,835.9)" />
<use xlink:href="#f1_20" transform="matrix(10.4,0,0,10.4,190.5,835.9)" />
<use xlink:href="#f1_1w" transform="matrix(10.4,0,0,10.4,199.4,835.9)" />
<use xlink:href="#f1_2a" transform="matrix(10.4,0,0,10.4,215.4,835.9)" />
<use xlink:href="#f1_21" transform="matrix(10.4,0,0,10.4,224.2,835.9)" />
<use xlink:href="#f1_2f" transform="matrix(10.4,0,0,10.4,235.8,835.9)" />
<use xlink:href="#f1_23" transform="matrix(10.4,0,0,10.4,240.3,835.9)" />
<use xlink:href="#f1_20" transform="matrix(10.4,0,0,10.4,249.1,835.9)" />
<use xlink:href="#f1_2f" transform="matrix(10.4,0,0,10.4,265.1,835.9)" />
<use xlink:href="#f1_2d" transform="matrix(10.4,0,0,10.4,269.6,835.9)" />
<use xlink:href="#f1_24" transform="matrix(10.4,0,0,10.4,274.9,835.9)" />
<use xlink:href="#f1_1w" transform="matrix(10.4,0,0,10.4,278.4,835.9)" />
<use xlink:href="#f1_29" transform="matrix(10.4,0,0,10.4,287.3,835.9)" />
<use xlink:href="#f1_22" transform="matrix(10.4,0,0,10.4,296.2,835.9)" />
<use xlink:href="#f1_27" transform="matrix(10.4,0,0,10.4,305,835.9)" />
<use xlink:href="#f1_20" transform="matrix(10.4,0,0,10.4,308.6,835.9)" />
<use xlink:href="#f1_2i" transform="matrix(10.4,0,0,10.4,324.4,835.9)" />
<use xlink:href="#f1_24" transform="matrix(10.4,0,0,10.4,335.9,835.9)" />
<use xlink:href="#f1_2f" transform="matrix(10.4,0,0,10.4,339.5,835.9)" />
<use xlink:href="#f1_23" transform="matrix(10.4,0,0,10.4,343.9,835.9)" />
<use xlink:href="#f1_2h" transform="matrix(10.4,0,0,10.4,359.9,835.9)" />
<use xlink:href="#f1_20" transform="matrix(10.4,0,0,10.4,367.9,835.9)" />
<use xlink:href="#f1_2d" transform="matrix(10.4,0,0,10.4,376.8,835.9)" />
<use xlink:href="#f1_2f" transform="matrix(10.4,0,0,10.4,382.1,835.9)" />
<use xlink:href="#f1_24" transform="matrix(10.4,0,0,10.4,386.5,835.9)" />
<use xlink:href="#f1_1y" transform="matrix(10.4,0,0,10.4,390,835.9)" />
<use xlink:href="#f1_20" transform="matrix(10.4,0,0,10.4,398,835.9)" />
<use xlink:href="#f1_2e" transform="matrix(10.4,0,0,10.4,406.9,835.9)" />
<use xlink:href="#f1_b" transform="matrix(10.4,0,0,10.4,422,835.9)" />
<use xlink:href="#f1_j" transform="matrix(10.4,0,0,10.4,427.3,835.9)" />
<use xlink:href="#f1_f" transform="matrix(10.4,0,0,10.4,436.2,835.9)" />
<use xlink:href="#f1_j" transform="matrix(10.4,0,0,10.4,447.6,835.9)" />
<use xlink:href="#f1_c" transform="matrix(10.4,0,0,10.4,456.5,835.9)" />
<use xlink:href="#f1_f" transform="matrix(10.4,0,0,10.4,461.8,835.9)" />
<use xlink:href="#f1_b" transform="matrix(10.4,0,0,10.4,473.4,835.9)" />
<use xlink:href="#f1_p" transform="matrix(10.4,0,0,10.4,478.7,835.9)" />
<use xlink:href="#f1_f" transform="matrix(10.4,0,0,10.4,487.5,835.9)" />
<use xlink:href="#f1_j" transform="matrix(10.4,0,0,10.4,499.1,835.9)" />
<use xlink:href="#f1_c" transform="matrix(10.4,0,0,10.4,508,835.9)" />
<use xlink:href="#f1_1w" transform="matrix(10.4,0,0,10.4,520.4,835.9)" />
<use xlink:href="#f1_29" transform="matrix(10.4,0,0,10.4,529.3,835.9)" />
<use xlink:href="#f1_1z" transform="matrix(10.4,0,0,10.4,538.2,835.9)" />
<use xlink:href="#f1_b" transform="matrix(10.4,0,0,10.4,554,835.9)" />
<use xlink:href="#f1_n" transform="matrix(10.4,0,0,10.4,559.3,835.9)" />
<use xlink:href="#f1_f" transform="matrix(10.4,0,0,10.4,568.2,835.9)" />
<use xlink:href="#f1_m" transform="matrix(10.4,0,0,10.4,579.8,835.9)" />
<use xlink:href="#f1_c" transform="matrix(10.4,0,0,10.4,588.6,835.9)" />
<use xlink:href="#f1_h" transform="matrix(10.4,0,0,10.4,594,835.9)" />
<use xlink:href="#f1_l" transform="matrix(10.4,0,0,10.4,68.3,889.1)" />
<use xlink:href="#f1_n" transform="matrix(10.4,0,0,10.4,77.2,889.1)" />
<use xlink:href="#f1_h" transform="matrix(10.4,0,0,10.4,86.3,889.1)" />
<use xlink:href="#f1_18" transform="matrix(10.4,0,0,10.4,109,889.1)" />
<use xlink:href="#f1_21" transform="matrix(10.4,0,0,10.4,113.4,889.1)" />
</g>
<path d="M127.9,864.7v42.5m47.7,-42.5v42.5m20,-42.5v42.5m45.3,-42.5v42.5" class="g4_26" />
<g fill="#000000" >
<use xlink:href="#f1_l" transform="matrix(10.5,0,0,10.5,129.7,878.5)" />
<use xlink:href="#f1_n" transform="matrix(10.5,0,0,10.5,165.3,878.5)" />
<use xlink:href="#f1_p" transform="matrix(10.5,0,0,10.5,197.4,878.5)" />
<use xlink:href="#f1_m" transform="matrix(10.5,0,0,10.5,230.5,878.5)" />
<use xlink:href="#f1_f" transform="matrix(10.5,0,0,10.5,243.2,890.2)" />
<use xlink:href="#f1_21" transform="matrix(10.5,0,0,10.5,251.1,890.2)" />
<use xlink:href="#f1_24" transform="matrix(10.5,0,0,10.5,255.6,890.2)" />
<use xlink:href="#f1_29" transform="matrix(10.5,0,0,10.5,259.1,890.2)" />
<use xlink:href="#f1_1z" transform="matrix(10.5,0,0,10.5,268.1,890.2)" />
<use xlink:href="#f1_h" transform="matrix(10.5,0,0,10.5,290.5,890.2)" />
<use xlink:href="#f1_k" transform="matrix(10.5,0,0,10.5,142.5,902.5)" />
<use xlink:href="#f1_l" transform="matrix(10.5,0,0,10.5,197.7,902.5)" />
<use xlink:href="#f1_k" transform="matrix(10.5,0,0,10.5,233.1,902.5)" />
<use xlink:href="#f2_2j" transform="matrix(10.5,0,0,10.5,138.8,878.5)" />
<use xlink:href="#f2_2j" transform="matrix(10.5,0,0,10.5,281.1,890.2)" />
<use xlink:href="#f2_2j" transform="matrix(10.5,0,0,10.5,164.1,902.5)" />
<use xlink:href="#f3_h" transform="matrix(10.5,0,0,10.5,221.8,878.5)" />
<use xlink:href="#f3_x" transform="matrix(10.5,0,0,10.5,181.3,890.2)" />
<use xlink:href="#f3_h" transform="matrix(10.5,0,0,10.5,133.8,902.5)" />
<use xlink:href="#f4_m" transform="matrix(12,0,0,12,665.7,1052.9)" />
</g>
<g fill="#0080FF" fill-opacity="0.5" >
<use xlink:href="#f0_1c" transform="matrix(36.3,0,0,36.3,174,1059.2)" />
<use xlink:href="#f0_21" transform="matrix(36.3,0,0,36.3,204.8,1059.2)" />
<use xlink:href="#f0_1x" transform="matrix(36.3,0,0,36.3,235.7,1059.2)" />
<use xlink:href="#f0_2e" transform="matrix(36.3,0,0,36.3,266.5,1059.2)" />
<use xlink:href="#f0_2a" transform="matrix(36.3,0,0,36.3,284.9,1059.2)" />
<use xlink:href="#f0_17" transform="matrix(36.3,0,0,36.3,315.8,1059.2)" />
<use xlink:href="#f0_2h" transform="matrix(36.3,0,0,36.3,358.9,1059.2)" />
<use xlink:href="#f0_25" transform="matrix(36.3,0,0,36.3,389.7,1059.2)" />
<use xlink:href="#f0_20" transform="matrix(36.3,0,0,36.3,402,1059.2)" />
<use xlink:href="#f0_21" transform="matrix(36.3,0,0,36.3,432.8,1059.2)" />
<use xlink:href="#f0_i" transform="matrix(36.3,0,0,36.3,463.7,1059.2)" />
<use xlink:href="#f0_25" transform="matrix(36.3,0,0,36.3,479.1,1059.2)" />
<use xlink:href="#f0_2a" transform="matrix(36.3,0,0,36.3,491.4,1059.2)" />
</g>
<defs>
<path d="M593,101c0,0,182,0,279,112c0,0,98,113,98,318c0,0,0,196,-98,308c0,0,-98,112,-277,112c0,0,-181,0,-279,-110c0,0,-99,-111,-99,-310c0,0,0,-198,100,-314c0,0,99,-116,276,-116Zm0,-115c0,0,-162,0,-279,65c0,0,-118,66,-180,190c0,0,-62,124,-62,290c0,0,0,252,138,394c0,0,138,142,385,142c0,0,160,0,278,-64c0,0,118,-64,180,-185c0,0,62,-122,62,-287c0,0,0,-165,-63,-289c0,0,-63,-124,-181,-190c0,0,-118,-66,-278,-66Z" 
id="f0_1f"
transform="scale(0.001,-0.001)" />

<path d="M106,0V635c0,0,0,141,-5,173H228c0,0,1,-4,2,-21c0,0,1,-16,2,-37c0,0,1,-22,2,-81h2c0,0,47,84,108,119c0,0,60,34,151,34c0,0,132,0,194,-66c0,0,61,-66,61,-218V0H615V512c0,0,0,80,-15,124c0,0,-16,44,-50,63c0,0,-35,20,-101,20c0,0,-97,0,-153,-67c0,0,-56,-66,-56,-184V0Z" 
id="f0_2a"
transform="scale(0.001,-0.001)" />

<path d="M103,0V1107H237V0Z" 
id="f0_28"
transform="scale(0.001,-0.001)" />

<path d="M102,0V808H236V0Zm0,979v128H236V979Z" 
id="f0_25"
transform="scale(0.001,-0.001)" />

<path d="M643,478c0,0,-11,128,-65,187c0,0,-54,59,-154,59c0,0,-98,0,-155,-66c0,0,-57,-65,-62,-180ZM431,-14c0,0,-179,0,-272,106c0,0,-94,107,-94,317c0,0,0,200,94,307c0,0,93,106,267,106c0,0,356,0,356,-429V375H206c0,0,0,-138,57,-213c0,0,58,-75,168,-75c0,0,87,0,140,35c0,0,53,35,71,88L760,177c0,0,-72,-191,-329,-191Z" 
id="f0_21"
transform="scale(0.001,-0.001)" />

<path d="M17,0L304,415L31,808H179L380,493L580,808H730L457,417L747,0H598L380,331L162,0Z" 
id="f0_2k"
transform="scale(0.001,-0.001)" />

<path d="M339,87c0,0,74,0,132,34c0,0,57,33,90,91c0,0,34,59,34,121v66L448,396c0,0,-95,-2,-144,-19c0,0,-49,-18,-75,-55c0,0,-26,-38,-26,-98c0,0,0,-65,35,-101c0,0,36,-36,101,-36ZM309,-14c0,0,-122,0,-183,64c0,0,-61,64,-61,176c0,0,0,125,82,192c0,0,83,67,266,72l182,3v44c0,0,0,98,-42,141c0,0,-42,43,-132,43c0,0,-90,0,-131,-31c0,0,-41,-31,-49,-98L101,604c0,0,34,218,323,218c0,0,153,0,229,-70c0,0,77,-69,77,-202V202c0,0,0,-59,16,-90c0,0,16,-30,60,-30c0,0,19,0,44,5V4C850,4,799,-7,746,-7c0,0,-75,0,-109,38c0,0,-33,40,-38,124h-4C595,155,543,62,475,24c0,0,-68,-38,-166,-38Z" 
id="f0_1x"
transform="scale(0.001,-0.001)" />

<path d="M106,0V635c0,0,0,141,-5,173H228c0,0,1,-4,2,-21c0,0,1,-16,2,-37c0,0,1,-22,2,-81h2c0,0,44,86,100,120c0,0,56,33,136,33c0,0,92,0,145,-36c0,0,54,-37,75,-117h2c0,0,42,82,101,117c0,0,59,36,143,36c0,0,123,0,178,-66c0,0,56,-67,56,-218V0H1039V512c0,0,0,117,-32,162c0,0,-32,45,-116,45c0,0,-88,0,-136,-66c0,0,-49,-65,-49,-185V0H573V512c0,0,0,117,-32,162c0,0,-32,45,-116,45c0,0,-86,0,-136,-66c0,0,-50,-66,-50,-185V0Z" 
id="f0_29"
transform="scale(0.001,-0.001)" />

<path d="M453,84c0,0,100,0,146,74c0,0,46,73,46,247c0,0,0,169,-46,241c0,0,-45,73,-145,73c0,0,-80,0,-125,-34c0,0,-45,-34,-68,-105c0,0,-24,-71,-24,-186c0,0,0,-159,51,-234c0,0,51,-76,165,-76ZM103,-316V643c0,0,0,124,-5,165H228c0,0,1,-3,3,-22c0,0,1,-18,3,-56c0,0,2,-38,2,-52h3c0,0,36,75,94,110c0,0,59,34,156,34c0,0,149,0,223,-100c0,0,74,-100,74,-314c0,0,0,-422,-297,-422c0,0,-187,0,-251,140h-4c0,0,3,-6,3,-126V-316Z" 
id="f0_2c"
transform="scale(0.001,-0.001)" />

<path d="M420,84c0,0,121,0,173,78c0,0,52,77,52,243c0,0,0,167,-50,243c0,0,-50,76,-167,76c0,0,-118,0,-170,-78c0,0,-53,-77,-53,-241c0,0,0,-160,52,-241c0,0,52,-80,163,-80Zm1,-98c0,0,-176,0,-267,107c0,0,-90,108,-90,312c0,0,0,417,362,417c0,0,185,0,272,-102c0,0,88,-101,88,-315c0,0,0,-212,-94,-316C692,89,599,-14,421,-14Z" 
id="f0_2b"
transform="scale(0.001,-0.001)" />

<path d="M278,-11c0,0,-162,0,-162,182V710H23v98h99l39,181h90V808H400V710H251V200c0,0,0,-58,19,-82c0,0,19,-23,66,-23c0,0,27,0,77,10V6c0,0,-66,-17,-135,-17Z" 
id="f0_2g"
transform="scale(0.001,-0.001)" />

<path d="M406,0V763H155V870h2c16,0,114,2,178,48c0,0,70,51,104,157H549V0Z" 
id="f1_k"
transform="scale(0.001,-0.001)" />

<path d="M133,0V162H292V0Z" 
id="f1_h"
transform="scale(0.001,-0.001)" />

<path d="M131,0V1097H891V966H280V631H814V500H280V0Z" 
id="f1_15"
transform="scale(0.001,-0.001)" />

<path d="M104,0V799H238V0Zm-2,946v152H239V946Z" 
id="f1_24"
transform="scale(0.001,-0.001)" />

<path d="M99,0V799H226V681l30,39c0,0,87,102,219,102c0,0,132,0,203,-71c0,0,72,-72,72,-204V0H616V502c0,0,0,105,-41,151c0,0,-40,47,-132,47c0,0,-97,0,-154,-73c0,0,-56,-74,-56,-199V0Z" 
id="f1_29"
transform="scale(0.001,-0.001)" />

<path d="M411,93c0,0,98,0,158,73c0,0,60,74,60,195c0,0,0,163,-57,252c0,0,-56,88,-161,88c0,0,-113,0,-165,-72c0,0,-52,-72,-52,-229c0,0,0,-147,56,-227c0,0,56,-80,161,-80ZM404,-20c0,0,-161,0,-255,118c0,0,-95,120,-95,324c0,0,0,179,92,290c0,0,91,110,239,110c0,0,147,0,233,-124l11,-15v414H763V0H638V109L621,84C621,84,538,-20,404,-20Z" 
id="f1_1z"
transform="scale(0.001,-0.001)" />

<path d="M292,-9c0,0,-88,0,-124,38c0,0,-36,39,-36,134V689H22V799H132v224H266V799H392V689H266V163c0,0,0,-27,21,-43c0,0,21,-15,57,-15h48V1C392,1,324,-9,292,-9Z" 
id="f1_2f"
transform="scale(0.001,-0.001)" />

<path d="M99,0V1097H233V690l23,30c0,0,87,102,219,102c0,0,132,0,203,-71c0,0,72,-72,72,-204V0H616V514c0,0,0,99,-38,142c0,0,-38,44,-124,44c0,0,-102,0,-162,-73c0,0,-59,-74,-59,-199V0Z" 
id="f1_23"
transform="scale(0.001,-0.001)" />

<path d="M649,461c0,0,-6,111,-55,172c0,0,-55,69,-160,69c0,0,-106,0,-170,-79c0,0,-50,-62,-60,-162ZM425,-20c0,0,-169,0,-266,106c0,0,-97,107,-97,297c0,0,0,201,102,320c0,0,103,119,276,119c0,0,157,0,253,-116c0,0,96,-117,96,-306l-1,-48H204c0,0,8,-119,54,-182c0,0,57,-76,180,-76c0,0,77,0,134,43c0,0,58,43,70,110H775C775,247,746,116,656,47c0,0,-90,-67,-231,-67Z" 
id="f1_20"
transform="scale(0.001,-0.001)" />

<path d="M310,0L12,799H168L383,145L604,799H752L454,0Z" 
id="f1_2h"
transform="scale(0.001,-0.001)" />

<path d="M335,90c0,0,106,0,179,57c0,0,50,41,67,91c0,0,3,10,4,31c0,0,3,21,3,47v87c0,0,-38,-18,-83,-25L381,360c0,0,-97,-13,-142,-45c0,0,-44,-31,-44,-86c0,0,0,-67,36,-103c0,0,37,-36,104,-36ZM309,-20c0,0,-117,0,-186,61c0,0,-68,63,-68,169c0,0,0,108,64,171c0,0,65,64,189,79l183,23c0,0,22,3,42,8c0,0,26,7,40,27c0,0,15,20,15,51v6c0,0,0,64,-49,101c0,0,-48,36,-135,36c0,0,-83,0,-130,-38c0,0,-46,-39,-56,-115H94c0,0,10,131,92,197c0,0,83,66,238,66c0,0,145,0,222,-63c0,0,76,-63,76,-184V137c0,0,0,-21,12,-33c0,0,12,-12,33,-12c0,0,6,0,18,1c0,0,11,2,25,5V1c0,0,-20,-7,-41,-11c0,0,-22,-5,-37,-5c0,0,-76,0,-110,41c0,0,-22,28,-32,79c0,0,-15,-19,-34,-36c0,0,-101,-89,-247,-89Z" 
id="f1_1w"
transform="scale(0.001,-0.001)" />

<path d="M103,0V1097H237V0Z" 
id="f1_27"
transform="scale(0.001,-0.001)" />

<path d="M375,-20c0,0,-136,0,-203,66c0,0,-68,68,-68,204V799H238V284c0,0,0,-101,38,-146c0,0,39,-44,127,-44c0,0,97,0,153,75c0,0,57,75,57,203V799H747V0H620V122c0,0,-14,-22,-30,-41C590,81,504,-20,375,-20Z" 
id="f1_2g"
transform="scale(0.001,-0.001)" />

<path d="M424,94c0,0,107,0,169,83c0,0,63,83,63,223c0,0,0,140,-63,224c0,0,-62,83,-169,83c0,0,-106,0,-168,-83c0,0,-62,-84,-62,-224c0,0,0,-140,62,-223c0,0,62,-83,168,-83Zm0,-114c0,0,-165,0,-268,115C156,95,54,211,54,400c0,0,0,189,102,306c0,0,103,116,268,116c0,0,168,0,270,-116c0,0,102,-117,102,-306c0,0,0,-189,-102,-305C694,95,592,-20,424,-20Z" 
id="f1_2a"
transform="scale(0.001,-0.001)" />

<path d="M132,0V687H22V799H132V935c0,0,0,88,52,133c0,0,52,45,157,45l59,-3V989l-53,2c0,0,-39,0,-60,-24c0,0,-21,-25,-21,-71V799H400V687H266V0Z" 
id="f1_21"
transform="scale(0.001,-0.001)" />

<path d="M354,90c0,0,107,0,192,57c0,0,60,41,87,95c0,0,5,12,11,33c0,0,6,20,11,44l18,88c0,0,-62,-26,-132,-37L414,352c0,0,-84,-11,-131,-56c0,0,-47,-45,-47,-113c0,0,0,-44,31,-69c0,0,31,-24,87,-24ZM306,-20c0,0,-99,0,-156,47c0,0,-57,49,-57,134c0,0,1,117,81,198c0,0,80,81,211,98l164,20l70,10c0,0,35,6,59,30c0,0,23,24,31,66l1,2c0,0,13,64,-25,94c0,0,-39,31,-132,31c0,0,-83,0,-137,-37c0,0,-54,-37,-84,-114H210c0,0,46,137,138,201c0,0,92,63,245,63c0,0,149,0,211,-59c0,0,45,-44,44,-116c0,0,1,-30,-6,-63L749,136c0,0,-4,-19,6,-32c0,0,10,-12,30,-12c0,0,6,0,19,1c0,0,12,2,25,5L809,1c0,0,-19,-6,-43,-11c0,0,-22,-5,-36,-5c0,0,-73,0,-100,43c0,0,-16,27,-17,75C612,102,594,85,573,69c0,0,-120,-89,-267,-89Z" 
id="f2_1w"
transform="scale(0.001,-0.001)" />

<path d="M102,0L267,800H402L237,0ZM300,946l31,151H467L436,946Z" 
id="f2_24"
transform="scale(0.001,-0.001)" />

<path d="M456,95c0,0,130,0,213,121c0,0,82,120,82,310c0,0,0,85,-44,131c0,0,-44,46,-125,46c0,0,-98,0,-174,-90c0,0,-76,-90,-108,-245c0,0,-26,-126,16,-199c0,0,42,-74,140,-74ZM436,-20c0,0,-132,0,-195,108l-5,7L217,0H89L316,1097H450L365,683l10,11c0,0,120,129,262,129c0,0,121,0,190,-77c0,0,69,-77,69,-211c0,0,0,-234,-134,-395C762,140,629,-20,436,-20Z" 
id="f2_1x"
transform="scale(0.001,-0.001)" />

<path d="M398,-20c0,0,-133,0,-209,72c0,0,-76,74,-76,202v3c0,0,0,27,4,60c0,0,4,33,10,63c0,0,43,208,168,326c0,0,126,117,306,117c0,0,131,0,192,-75c0,0,49,-61,50,-168l-3,-52H710c0,0,4,87,-33,131c0,0,-37,45,-113,45c0,0,-110,0,-184,-81c0,0,-75,-82,-107,-238c0,0,-6,-28,-9,-56c0,0,-3,-28,-3,-50c0,0,0,-88,43,-136c0,0,43,-48,121,-48c0,0,76,0,137,49c0,0,61,48,92,136H788C788,280,737,138,633,58c0,0,-103,-78,-235,-78Z" 
id="f2_1y"
transform="scale(0.001,-0.001)" />

<path d="M431,94c0,0,95,0,170,76c0,0,76,77,101,198c0,0,35,167,-1,250c0,0,-37,84,-144,84c0,0,-128,0,-210,-117c0,0,-81,-117,-81,-302c0,0,0,-90,43,-139c0,0,44,-50,122,-50ZM400,-20c0,0,-126,0,-199,79c0,0,-73,80,-73,219c0,0,0,234,122,390c0,0,122,155,305,155c0,0,144,0,209,-127l8,-16l86,417H993L767,0H638l22,108L642,90C642,90,532,-20,400,-20Z" 
id="f2_1z"
transform="scale(0.001,-0.001)" />

<path d="M355,0V355H0v72H355V784h72V427H782V355H427V0Z" 
id="f3_f"
transform="scale(0.001,-0.001)" />

<path d="M0,356v74H784V356Z" 
id="f3_h"
transform="scale(0.001,-0.001)" />

<path d="M39,0V0c0,0,0,170,84,277c0,0,85,108,317,236c0,0,113,62,154,115c0,0,41,52,41,134c0,0,0,86,-62,141c0,0,-61,54,-156,54c0,0,-101,0,-158,-68c0,0,-57,-68,-60,-194H67c0,0,-2,178,95,279c0,0,98,101,273,101c0,0,149,0,245,-89c0,0,94,-88,94,-228c0,0,0,-118,-60,-195c0,0,-61,-76,-229,-169C485,394,303,294,237,212c0,0,-28,-36,-46,-81H774V0Z" 
id="f1_l"
transform="scale(0.001,-0.001)" />

<path d="M139,0V1097H287V0Z" 
id="f1_18"
transform="scale(0.001,-0.001)" />

<path d="M417,-28c0,0,-161,0,-259,79c0,0,-98,81,-109,223H189c0,0,11,-90,72,-139c0,0,61,-49,162,-49c0,0,96,0,158,68c0,0,61,68,61,175c0,0,0,112,-64,178c0,0,-64,66,-173,66c0,0,-59,0,-115,-28c0,0,-55,-29,-84,-73L93,480l77,573H727V922H271L225,629l4,3c0,0,89,60,188,60c0,0,169,0,269,-94c0,0,99,-93,99,-253c0,0,0,-165,-103,-269C682,76,579,-28,417,-28Z" 
id="f1_o"
transform="scale(0.001,-0.001)" />

<path d="M424,-28c0,0,-180,0,-272,86c0,0,-92,87,-100,266H192c0,0,12,-126,66,-180c0,0,55,-54,170,-54c0,0,100,0,163,57c0,0,64,57,64,147c0,0,0,94,-61,149c0,0,-52,48,-135,54c0,0,-38,2,-72,2c0,0,-34,0,-45,-3V613c0,0,17,-3,51,-3c0,0,35,0,68,4c0,0,66,8,106,43c0,0,55,45,55,125c0,0,0,77,-58,125c0,0,-58,48,-148,48c0,0,-96,0,-147,-58c0,0,-51,-59,-56,-175H82c0,0,0,168,89,260c0,0,88,93,250,93c0,0,153,0,247,-77c0,0,94,-76,94,-202c0,0,0,-124,-95,-201c0,0,-18,-15,-39,-27c0,0,39,-17,69,-41c0,0,101,-79,101,-214c0,0,0,-151,-105,-246c0,0,-104,-95,-269,-95Z" 
id="f1_m"
transform="scale(0.001,-0.001)" />

<path d="M424,92c0,0,114,0,170,107c0,0,57,108,56,323c0,0,1,216,-56,324c0,0,-56,107,-170,107c0,0,-112,0,-168,-107c0,0,-56,-108,-57,-324c0,0,1,-215,57,-323c0,0,56,-107,168,-107Zm0,-120c0,0,-176,0,-271,142c0,0,-96,143,-96,408c0,0,0,265,96,409c0,0,95,144,271,144c0,0,178,0,273,-144c0,0,96,-144,96,-409c0,0,0,-265,-96,-408c0,0,-95,-142,-273,-142Z" 
id="f1_j"
transform="scale(0.001,-0.001)" />

<path d="M133,-224v71c0,0,47,8,65,52c0,0,14,33,17,101H133V163H292V27c0,0,0,-114,-36,-172c0,0,-37,-58,-123,-79Z" 
id="f1_f"
transform="scale(0.001,-0.001)" />

<path d="M419,483c0,0,93,0,152,66c0,0,59,66,59,169c0,0,0,103,-59,169c0,0,-59,65,-152,65c0,0,-94,0,-153,-65c0,0,-59,-66,-59,-169c0,0,0,-103,59,-169c0,0,59,-66,153,-66ZM397,-28c0,0,-143,0,-227,75c0,0,-85,77,-91,211H209c0,0,8,-83,57,-128c0,0,49,-45,131,-45c0,0,121,0,186,135c0,0,48,101,62,265C645,485,545,362,397,362c0,0,-150,0,-241,98c0,0,-91,98,-91,258c0,0,0,160,99,258c0,0,99,98,262,98c0,0,173,0,266,-123c0,0,94,-123,94,-349c0,0,0,-303,-101,-467C685,135,583,-28,397,-28Z" 
id="f1_s"
transform="scale(0.001,-0.001)" />

<path d="M17,0L389,412L201,800H376L500,518L742,800H904L554,410L750,0H580L448,303L187,0Z" 
id="f2_2j"
transform="scale(0.001,-0.001)" />

<path d="M0,214v74H784V214ZM0,494v72H784V494Z" 
id="f3_x"
transform="scale(0.001,-0.001)" />

<path d="M118,0V799H246V662c0,0,17,32,36,58c0,0,76,102,187,102c0,0,19,0,38,-6V679l-27,1c0,0,-109,0,-168,-66c0,0,-60,-65,-60,-186V0Z" 
id="f1_2d"
transform="scale(0.001,-0.001)" />

<path d="M248,0L21,799H169L322,163L478,799H627L788,158L950,799h133L857,0H713L548,624L392,0Z" 
id="f1_2i"
transform="scale(0.001,-0.001)" />

<path d="M102,0L329,1097H464L333,467L745,800H921L546,501L769,0H595L429,409L300,306L237,0Z" 
id="f2_26"
transform="scale(0.001,-0.001)" />

<path d="M99,0V799H226V680l28,36c0,0,90,106,215,106c0,0,107,0,171,-63c0,0,28,-28,44,-65l21,28c0,0,87,100,208,100c0,0,125,0,194,-68c0,0,68,-68,68,-194V0H1041V515c0,0,0,91,-37,138c0,0,-38,47,-110,47c0,0,-87,0,-139,-68c0,0,-52,-68,-52,-183V0H569V547c0,0,0,75,-34,114c0,0,-34,39,-99,39c0,0,-89,0,-146,-76c0,0,-57,-76,-57,-196V0Z" 
id="f1_28"
transform="scale(0.001,-0.001)" />

<path d="M17,0L301,412L32,799H205L389,514L574,799H740L471,410L749,0H581L382,305L186,0Z" 
id="f1_2j"
transform="scale(0.001,-0.001)" />

<path d="M511,373V863L169,383l-7,-10ZM511,0V258H38V383l496,691H646V373H799V258H646V0Z" 
id="f1_n"
transform="scale(0.001,-0.001)" />

<path d="M0,-123V1415H525v-72H72V-123Z" 
id="f3_4r"
transform="scale(0.001,-0.001)" />

<path d="M478,-123V1343H26v72H550V-123Z" 
id="f3_57"
transform="scale(0.001,-0.001)" />

<path d="M0,-123V1415H72V-123Z" 
id="f3_4s"
transform="scale(0.001,-0.001)" />

<path d="M0,-123V1415H72V-123Z" 
id="f3_58"
transform="scale(0.001,-0.001)" />

<path d="M0,-123V1415H72V-51H525v-72Z" 
id="f3_4t"
transform="scale(0.001,-0.001)" />

<path d="M26,-123v72H478V1415h72V-123Z" 
id="f3_59"
transform="scale(0.001,-0.001)" />

<path d="M393,-20c0,0,-169,0,-252,65c0,0,-83,67,-92,210H178c0,0,10,-85,61,-123c0,0,50,-38,154,-38c0,0,90,0,136,34c0,0,47,35,47,100c0,0,0,42,-31,64c0,0,-30,21,-123,43L283,368c0,0,-112,27,-160,75c0,0,-48,48,-48,135c0,0,0,112,80,178c0,0,81,66,218,66c0,0,140,0,222,-68c0,0,82,-67,88,-187H557c0,0,-6,67,-55,103c0,0,-48,37,-129,37c0,0,-84,0,-127,-29c0,0,-44,-29,-44,-85c0,0,0,-43,31,-65c0,0,30,-21,121,-43L493,452c0,0,117,-28,167,-78c0,0,49,-49,49,-138c0,0,0,-119,-86,-188c0,0,-85,-68,-230,-68Z" 
id="f1_2e"
transform="scale(0.001,-0.001)" />

<path d="M394,-20c0,0,-159,0,-253,113c0,0,-95,114,-95,307c0,0,0,193,98,308c0,0,98,114,264,114c0,0,144,0,230,-78c0,0,85,-79,91,-217H600c0,0,-8,86,-59,133c0,0,-52,47,-138,47c0,0,-101,0,-159,-82c0,0,-58,-82,-58,-225c0,0,0,-152,54,-229c0,0,53,-77,159,-77c0,0,79,0,132,50c0,0,52,51,69,143H729C729,287,709,137,623,58c0,0,-86,-78,-229,-78Z" 
id="f1_1y"
transform="scale(0.001,-0.001)" />

<path d="M432,92c0,0,96,0,156,66c0,0,61,65,61,169c0,0,0,103,-61,169c0,0,-60,66,-156,66c0,0,-95,0,-156,-66c0,0,-61,-66,-61,-169c0,0,0,-104,61,-169c0,0,61,-66,156,-66ZM425,-28c0,0,-176,0,-271,135c0,0,-95,136,-95,388c0,0,0,278,103,429c0,0,103,151,293,151c0,0,142,0,226,-77c0,0,84,-76,90,-211H638c0,0,-8,80,-56,123c0,0,-47,43,-127,43c0,0,-125,0,-192,-119c0,0,-58,-102,-64,-278c0,0,100,127,255,127c0,0,152,0,245,-98c0,0,93,-98,93,-258c0,0,0,-161,-101,-259c0,0,-101,-96,-266,-96Z" 
id="f1_p"
transform="scale(0.001,-0.001)" />

<path d="M780,449L714,934L435,449ZM22,0L673,1097H839L998,0H839L797,318H359L178,0Z" 
id="f2_10"
transform="scale(0.001,-0.001)" />

<path d="M230,639c0,0,69,0,118,48c0,0,48,49,48,118c0,0,0,69,-48,118c0,0,-49,49,-118,49c0,0,-69,0,-118,-49c0,0,-48,-49,-48,-118c0,0,0,-69,48,-118c0,0,49,-48,118,-48Zm1,-64c0,0,-96,0,-163,67C68,642,1,709,1,804c0,0,0,95,67,162c0,0,67,68,163,68c0,0,94,0,161,-68c0,0,68,-67,68,-162c0,0,0,-95,-68,-162c0,0,-67,-67,-161,-67Z" 
id="f3_36"
transform="scale(0.001,-0.001)" />

<path d="M144,-381V1146H255V-381Z" 
id="f1_2n"
transform="scale(0.001,-0.001)" />

<path d="M212,0c0,0,51,270,162,500c0,0,109,222,281,422H57v131H799V934C799,934,623,726,515,498C515,498,408,269,362,0Z" 
id="f1_q"
transform="scale(0.001,-0.001)" />

<path d="M695,589c0,0,126,0,201,68c0,0,74,69,74,186c0,0,0,59,-46,92c0,0,-46,33,-129,33H480L401,589ZM131,0L358,1097H864c0,0,120,0,189,-64c0,0,69,-64,69,-175c0,0,0,-167,-116,-283c0,0,-115,-115,-282,-115H375L280,0Z" 
id="f2_1f"
transform="scale(0.001,-0.001)" />

<path d="M418,95c0,0,98,0,158,73c0,0,59,73,59,193c0,0,0,170,-54,254c0,0,-54,85,-163,85c0,0,-113,0,-165,-72c0,0,-52,-71,-52,-227c0,0,0,-147,57,-227c0,0,56,-79,160,-79ZM394,-336c0,0,-136,0,-216,62c0,0,-79,63,-96,182H219c0,0,12,-64,57,-98c0,0,45,-35,116,-35c0,0,116,0,176,73c0,0,61,73,61,211V85l-1,-1C628,84,545,-20,412,-20c0,0,-161,0,-256,118c0,0,-94,120,-94,324c0,0,0,179,93,290c0,0,93,110,244,110c0,0,144,0,228,-124l10,-14V799H763V59c0,0,-1,-201,-91,-298c0,0,-91,-97,-278,-97Z" 
id="f1_22"
transform="scale(0.001,-0.001)" />

<path d="M424,92c0,0,98,0,161,58c0,0,62,58,62,149c0,0,0,92,-62,151c0,0,-63,58,-161,58c0,0,-98,0,-160,-58c0,0,-63,-59,-63,-151c0,0,0,-91,63,-149c0,0,62,-58,160,-58Zm0,533c0,0,82,0,134,46c0,0,52,45,52,118c0,0,0,72,-52,118c0,0,-52,46,-134,46c0,0,-82,0,-134,-46c0,0,-52,-46,-52,-118c0,0,0,-73,52,-119c0,0,52,-45,134,-45Zm0,-653c0,0,-165,0,-265,90C159,62,59,154,59,305c0,0,0,134,100,216c0,0,35,28,78,47c0,0,-27,15,-52,33c0,0,-90,70,-90,185c0,0,0,130,90,209c0,0,91,80,239,80c0,0,148,0,238,-80c0,0,91,-79,91,-209c0,0,0,-115,-91,-185c0,0,-24,-19,-52,-32c0,0,44,-20,79,-49c0,0,101,-81,101,-215c0,0,0,-151,-101,-243c0,0,-100,-90,-265,-90Z" 
id="f1_r"
transform="scale(0.001,-0.001)" />

<path d="M436,95c0,0,105,0,160,79c0,0,54,80,54,232c0,0,0,150,-52,222c0,0,-52,72,-161,72c0,0,-112,0,-163,-81c0,0,-51,-82,-51,-258c0,0,0,-127,55,-197c0,0,55,-69,158,-69ZM89,-315V799H216V685l7,10c0,0,86,127,228,127c0,0,156,0,248,-108c0,0,91,-107,91,-291c0,0,0,-208,-92,-326C698,97,606,-20,442,-20c0,0,-135,0,-215,102l-4,6V-315Z" 
id="f1_2b"
transform="scale(0.001,-0.001)" />

<path d="M365,-315c0,0,-136,187,-199,359c0,0,-62,172,-62,359c0,0,0,186,62,358c0,0,63,172,199,360h92c0,0,-110,-192,-160,-365c0,0,-51,-172,-51,-353c0,0,0,-183,51,-355c0,0,50,-172,160,-363Z" 
id="f1_b"
transform="scale(0.001,-0.001)" />

<path d="M52,-315c0,0,109,192,160,363c0,0,50,173,50,354c0,0,0,183,-50,355c0,0,-51,173,-160,364h92c0,0,135,-188,198,-360c0,0,63,-172,63,-359c0,0,0,-187,-63,-359c0,0,-63,-171,-198,-358Z" 
id="f1_c"
transform="scale(0.001,-0.001)" />

<path d="M682,450L513,936L337,450ZM22,0L436,1097H605L999,0H839L728,319H290L175,0Z" 
id="f1_10"
transform="scale(0.001,-0.001)" />

<path d="M391,-20c0,0,-172,0,-244,68c0,0,-50,50,-50,134c0,0,0,34,8,74H235c0,0,-11,-85,31,-123c0,0,43,-38,149,-38c0,0,90,0,144,32c0,0,54,32,66,93c0,0,9,46,-21,69c0,0,-32,24,-133,52L340,376c0,0,-93,25,-127,71c0,0,-22,32,-22,78c0,0,0,23,5,49c0,0,22,110,121,180c0,0,98,69,230,69c0,0,137,0,203,-62c0,0,58,-55,58,-153l-2,-32H676c0,0,7,64,-32,97c0,0,-39,34,-121,34c0,0,-82,0,-131,-30c0,0,-48,-30,-60,-87c0,0,-9,-40,18,-61c0,0,24,-20,109,-43L590,451c0,0,109,-29,149,-82c0,0,27,-35,27,-88c0,0,0,-24,-6,-53C760,228,736,118,634,48c0,0,-103,-68,-243,-68Z" 
id="f2_2e"
transform="scale(0.001,-0.001)" />

<path d="M406,93c0,0,97,0,156,73c0,0,59,74,59,195c0,0,0,163,-56,252c0,0,-55,88,-158,88c0,0,-111,0,-162,-72c0,0,-51,-73,-51,-229c0,0,0,-147,55,-227c0,0,55,-80,157,-80ZM621,-315V93l-7,-9C614,84,532,-20,400,-20c0,0,-159,0,-253,118c0,0,-93,119,-93,323c0,0,0,180,90,291c0,0,91,110,237,110c0,0,146,0,231,-124c0,0,10,-14,17,-29V799H755V-315Z" 
id="f1_2c"
transform="scale(0.001,-0.001)" />

<path d="M60,174V286H832V174Zm0,309V595H832V483Z" 
id="f1_w"
transform="scale(0.001,-0.001)" />

<path d="M0,368V478H849V368Z" 
id="f1_99"
transform="scale(0.001,-0.001)" />

<path d="M617,129c0,0,118,0,194,71c0,0,75,70,75,182c0,0,1,59,-55,93c0,0,-56,34,-152,34H368L289,129Zm58,503c0,0,120,0,188,59c0,0,68,58,68,163c0,0,0,57,-50,85c0,0,-50,29,-146,29H462L393,632ZM113,0L340,1097H825c0,0,122,0,191,-55c0,0,69,-55,69,-153c0,0,0,-160,-113,-251c0,0,-35,-26,-77,-46c0,0,27,-12,52,-28c0,0,89,-61,89,-166c0,0,0,-171,-127,-285C909,113,782,0,591,0Z" 
id="f2_11"
transform="scale(0.001,-0.001)" />

<path d="M139,0L60,78L366,384L60,690l79,79L444,463L750,769l79,-79L523,384L829,78L750,0L444,305L139,0Z" 
id="f1_4r"
transform="scale(0.001,-0.001)" />

<path d="M344,0V155H494V0Zm9,286c0,0,-3,110,31,187c0,0,33,78,116,152c0,0,59,52,85,97c0,0,25,45,25,98c0,0,0,81,-48,130c0,0,-48,47,-130,47c0,0,-102,0,-152,-55c0,0,-51,-56,-63,-181H86c0,0,8,170,98,262c0,0,91,93,248,93c0,0,143,0,232,-82c0,0,88,-82,88,-214c0,0,0,-77,-38,-145c0,0,-38,-67,-128,-149c0,0,-58,-52,-81,-107c0,0,-23,-55,-21,-133Z" 
id="f1_y"
transform="scale(0.001,-0.001)" />

<path d="M312,0L24,1098l80,-1l81,1L380,230c0,0,6,-22,9,-42c0,0,3,-17,3,-26c0,4,1,13,4,28c0,0,4,20,9,40l232,867H804L1035,234c0,0,6,-20,10,-41c0,0,3,-19,3,-29c0,3,1,12,4,28c0,0,3,21,8,42l198,864l80,-1l79,1L1130,0H971L733,849c0,0,-6,21,-11,42c0,0,-4,21,-4,29c0,0,0,-9,-4,-30c0,0,-4,-20,-10,-41L471,0Z" 
id="f1_1m"
transform="scale(0.001,-0.001)" />

<path d="M436,95c0,0,105,0,160,79c0,0,54,80,54,232c0,0,0,150,-52,222c0,0,-52,72,-161,72c0,0,-112,0,-163,-81c0,0,-51,-82,-51,-258c0,0,0,-127,55,-197c0,0,55,-69,158,-69Zm6,-115c0,0,-135,0,-215,102L215,98V0H89V1097H223V695c0,0,87,127,225,127c1,0,2,0,2,0c0,0,157,0,249,-108c0,0,91,-107,91,-291c0,0,0,-208,-92,-326C698,97,606,-20,442,-20Z" 
id="f1_1x"
transform="scale(0.001,-0.001)" />

<path d="M152,-323c-8,0,-38,1,-63,8v125c0,0,30,-11,77,-12c0,0,45,0,76,37c0,0,30,38,69,140l2,12v1L17,799H170L383,139L600,799H747L443,-25c0,0,-70,-184,-125,-241c0,0,-55,-57,-164,-57c0,0,-1,0,-2,0Z" 
id="f1_2k"
transform="scale(0.001,-0.001)" />

<path d="M46,0c0,0,-2,48,16,93c0,0,27,74,88,146c0,0,61,71,176,165c0,0,178,146,241,232c0,0,63,85,63,161c0,0,0,80,-57,135c0,0,-58,55,-149,55c0,0,-98,0,-156,-59c0,0,-58,-58,-59,-160L71,782c0,0,15,154,107,235c0,0,93,81,249,81c0,0,157,0,249,-87c0,0,92,-88,92,-217c0,0,0,-65,-27,-129c0,0,-27,-63,-89,-133c0,0,-62,-70,-207,-193C445,339,324,238,290,202c0,0,-35,-36,-57,-73H770V0Z" 
id="f4_m"
transform="scale(0.001,-0.001)" />

<path d="M125,0V1051H268V115H799V0Z" 
id="f0_1c"
transform="scale(0.001,-0.001)" />

<path d="M106,0V620c0,0,0,85,-5,188H228c0,0,6,-138,6,-165h3c0,0,32,103,74,141c0,0,42,38,118,38c0,0,27,0,54,-7V692c0,0,-26,7,-71,7c0,0,-84,0,-128,-72c0,0,-44,-72,-44,-206V0Z" 
id="f0_2e"
transform="scale(0.001,-0.001)" />

<path d="M606,-14c0,0,-164,0,-284,65c0,0,-119,66,-182,189c0,0,-63,123,-63,291c0,0,0,255,137,396c0,0,137,140,386,140c0,0,174,0,283,-59c0,0,109,-59,168,-189L915,779c0,0,-44,90,-123,131c0,0,-79,41,-196,41c0,0,-182,0,-278,-110c0,0,-96,-110,-96,-310c0,0,0,-200,102,-315c0,0,102,-115,282,-115c0,0,103,0,193,31c0,0,89,31,144,85V407H629V526h445V164c0,0,-83,-85,-205,-132c0,0,-121,-46,-263,-46Z" 
id="f0_17"
transform="scale(0.001,-0.001)" />

<path d="M355,-14c0,0,-133,0,-194,65c0,0,-62,66,-62,219V808H234V296c0,0,0,-80,16,-124c0,0,16,-44,50,-64c0,0,34,-19,101,-19c0,0,97,0,153,66c0,0,55,67,55,185V808H744V172c0,0,0,-141,4,-172H621c0,0,0,4,-1,20c0,0,-1,17,-2,38c0,0,-1,21,-3,80h-2C613,138,567,55,506,20c0,0,-61,-34,-151,-34Z" 
id="f0_2h"
transform="scale(0.001,-0.001)" />

<path d="M395,89c0,0,115,0,166,79c0,0,51,79,51,246c0,0,0,160,-51,235c0,0,-51,75,-164,75c0,0,-102,0,-147,-75c0,0,-45,-75,-45,-244c0,0,0,-170,45,-243c0,0,45,-73,145,-73ZM361,-14c0,0,-153,0,-225,102c0,0,-72,103,-72,312c0,0,0,422,297,422c0,0,92,0,153,-33c0,0,61,-34,98,-107h2l-2,90v335H747V166c0,0,0,-126,4,-166H623c0,0,-2,12,-5,55c0,0,-3,44,-3,75h-3c0,0,-37,-78,-98,-111c0,0,-62,-33,-153,-33Z" 
id="f0_20"
transform="scale(0.001,-0.001)" />

<path d="M140,0V163H285V0Z" 
id="f0_i"
transform="scale(0.001,-0.001)" />


</defs>
</svg>