<?xml version="1.0" encoding="UTF-8" standalone="no"?>
<!DOCTYPE svg PUBLIC "-//W3C//DTD SVG 1.1//EN"
"http://www.w3.org/Graphics/SVG/1.1/DTD/svg11.dtd">
<svg viewBox="0 0 677 1056" version="1.1" xmlns="http://www.w3.org/2000/svg" xmlns:xlink="http://www.w3.org/1999/xlink">
<defs>
<style type="text/css"><![CDATA[
.g0_42{
fill: none;
stroke: #000000;
stroke-width: 0.7704889;
stroke-linecap: round;
stroke-linejoin: miter;
}
.g1_42{
fill: none;
stroke: #000000;
stroke-width: 1.0503472;
stroke-linecap: round;
stroke-linejoin: miter;
}
.g2_42{
fill: none;
stroke: #000000;
stroke-width: 0.7638889;
stroke-linecap: round;
stroke-linejoin: miter;
}
.g3_42{
fill: none;
stroke: #000000;
stroke-width: 0.7680445;
stroke-linecap: round;
stroke-linejoin: miter;
}
.g4_42{
fill: none;
stroke: #000000;
stroke-width: 0.15277778;
stroke-linecap: round;
stroke-linejoin: miter;
}
.g5_42{
}
.g6_42{
fill: none;
stroke: #000000;
stroke-width: 0.75997776;
stroke-linecap: round;
stroke-linejoin: miter;
}
]]></style>
</defs>
<g fill="#D4D4D4" fill-opacity="0.56" >
<use xlink:href="#f0_1f" transform="matrix(50.9,-50.9,50.9,50.9,65.9,924.1)" />
<use xlink:href="#f0_2a" transform="matrix(50.9,-50.9,50.9,50.9,126.4,863.6)" />
<use xlink:href="#f0_28" transform="matrix(50.9,-50.9,50.9,50.9,169.6,820.3)" />
<use xlink:href="#f0_25" transform="matrix(50.9,-50.9,50.9,50.9,186.9,803.1)" />
<use xlink:href="#f0_2a" transform="matrix(50.9,-50.9,50.9,50.9,204.2,785.8)" />
<use xlink:href="#f0_21" transform="matrix(50.9,-50.9,50.9,50.9,247.4,742.5)" />
<use xlink:href="#f0_2k" transform="matrix(50.9,-50.9,50.9,50.9,290.7,699.3)" />
<use xlink:href="#f0_1x" transform="matrix(50.9,-50.9,50.9,50.9,329.6,660.4)" />
<use xlink:href="#f0_29" transform="matrix(50.9,-50.9,50.9,50.9,372.8,617.2)" />
<use xlink:href="#f0_2c" transform="matrix(50.9,-50.9,50.9,50.9,437.6,552.4)" />
<use xlink:href="#f0_2b" transform="matrix(50.9,-50.9,50.9,50.9,480.8,509.1)" />
<use xlink:href="#f0_25" transform="matrix(50.9,-50.9,50.9,50.9,524.1,465.9)" />
<use xlink:href="#f0_2a" transform="matrix(50.9,-50.9,50.9,50.9,541.3,448.6)" />
<use xlink:href="#f0_2g" transform="matrix(50.9,-50.9,50.9,50.9,584.6,405.4)" />
</g>
<g fill="#000000" >
<use xlink:href="#f1_10" transform="matrix(14,0,0,14,263.2,79.2)" />
<use xlink:href="#f1_1d" transform="matrix(14,0,0,14,279.8,79.2)" />
<use xlink:href="#f1_1i" transform="matrix(14,0,0,14,298,79.2)" />
<use xlink:href="#f1_1m" transform="matrix(14,0,0,14,309.5,79.2)" />
<use xlink:href="#f1_14" transform="matrix(14,0,0,14,330.5,79.2)" />
<use xlink:href="#f1_1h" transform="matrix(14,0,0,14,343.5,79.2)" />
<use xlink:href="#f1_1i" transform="matrix(14,0,0,14,358.5,79.2)" />
<use xlink:href="#f2_k" transform="matrix(10.4,0,0,10.4,50.2,120)" />
<use xlink:href="#f2_h" transform="matrix(10.4,0,0,10.4,59.1,120)" />
<use xlink:href="#f3_2j" transform="matrix(10.4,0,0,10.4,81.9,120)" />
<use xlink:href="#f2_w" transform="matrix(10.4,0,0,10.4,96.9,120)" />
<use xlink:href="#f2_99" transform="matrix(10.4,0,0,10.4,113.2,120)" />
<use xlink:href="#f2_q" transform="matrix(10.4,0,0,10.4,122.1,120)" />
<use xlink:href="#f2_i" transform="matrix(10.4,0,0,10.4,131,120)" />
<use xlink:href="#f2_l" transform="matrix(10.4,0,0,10.4,135.4,120)" />
<use xlink:href="#f2_l" transform="matrix(10.4,0,0,10.4,325.2,120)" />
<use xlink:href="#f2_h" transform="matrix(10.4,0,0,10.4,334.1,120)" />
<use xlink:href="#f3_1h" transform="matrix(10.4,0,0,10.4,356.9,120)" />
<use xlink:href="#f2_m" transform="matrix(10.4,0,0,10.4,50.2,154)" />
<use xlink:href="#f2_h" transform="matrix(10.4,0,0,10.4,59.1,154)" />
<use xlink:href="#f2_99" transform="matrix(10.4,0,0,10.4,81.9,154)" />
<use xlink:href="#f2_k" transform="matrix(10.4,0,0,10.4,91.1,154)" />
<use xlink:href="#f2_n" transform="matrix(10.4,0,0,10.4,325.2,154)" />
<use xlink:href="#f2_h" transform="matrix(10.4,0,0,10.4,334.1,154)" />
<use xlink:href="#f3_2j" transform="matrix(10.4,0,0,10.4,356.9,154)" />
<use xlink:href="#f2_w" transform="matrix(10.4,0,0,10.4,371.8,154)" />
<use xlink:href="#f2_p" transform="matrix(10.4,0,0,10.4,387.9,154)" />
<use xlink:href="#f2_f" transform="matrix(10.4,0,0,10.4,396.7,154)" />
<use xlink:href="#f2_q" transform="matrix(10.4,0,0,10.4,407.9,154)" />
<use xlink:href="#f2_o" transform="matrix(10.4,0,0,10.4,50.2,187.9)" />
<use xlink:href="#f2_h" transform="matrix(10.4,0,0,10.4,59.1,187.9)" />
<use xlink:href="#f2_1f" transform="matrix(10.4,0,0,10.4,81.9,187.9)" />
<use xlink:href="#f2_2a" transform="matrix(10.4,0,0,10.4,92.5,187.9)" />
<use xlink:href="#f2_24" transform="matrix(10.4,0,0,10.4,101.4,187.9)" />
<use xlink:href="#f2_29" transform="matrix(10.4,0,0,10.4,105,187.9)" />
<use xlink:href="#f2_2f" transform="matrix(10.4,0,0,10.4,113.8,187.9)" />
<use xlink:href="#f2_2e" transform="matrix(10.4,0,0,10.4,118.3,187.9)" />
<use xlink:href="#f2_2a" transform="matrix(10.4,0,0,10.4,133.2,187.9)" />
<use xlink:href="#f2_21" transform="matrix(10.4,0,0,10.4,142.1,187.9)" />
<use xlink:href="#f2_1z" transform="matrix(10.4,0,0,10.4,153.7,187.9)" />
<use xlink:href="#f2_24" transform="matrix(10.4,0,0,10.4,162.5,187.9)" />
<use xlink:href="#f2_2e" transform="matrix(10.4,0,0,10.4,166.1,187.9)" />
<use xlink:href="#f2_1y" transform="matrix(10.4,0,0,10.4,174,187.9)" />
<use xlink:href="#f2_2a" transform="matrix(10.4,0,0,10.4,182,187.9)" />
<use xlink:href="#f2_29" transform="matrix(10.4,0,0,10.4,190.9,187.9)" />
<use xlink:href="#f2_2f" transform="matrix(10.4,0,0,10.4,199.7,187.9)" />
<use xlink:href="#f2_24" transform="matrix(10.4,0,0,10.4,204.2,187.9)" />
<use xlink:href="#f2_29" transform="matrix(10.4,0,0,10.4,207.7,187.9)" />
<use xlink:href="#f2_2g" transform="matrix(10.4,0,0,10.4,216.6,187.9)" />
<use xlink:href="#f2_24" transform="matrix(10.4,0,0,10.4,225.5,187.9)" />
<use xlink:href="#f2_2f" transform="matrix(10.4,0,0,10.4,229,187.9)" />
<use xlink:href="#f2_2k" transform="matrix(10.4,0,0,10.4,233.4,187.9)" />
<use xlink:href="#f2_2a" transform="matrix(10.4,0,0,10.4,248.4,187.9)" />
<use xlink:href="#f2_21" transform="matrix(10.4,0,0,10.4,257.2,187.9)" />
<use xlink:href="#f3_21" transform="matrix(10.4,0,0,10.4,268.2,187.9)" />
<use xlink:href="#f2_b" transform="matrix(10.4,0,0,10.4,272.6,187.9)" />
<use xlink:href="#f3_2j" transform="matrix(10.4,0,0,10.4,277.9,187.9)" />
<use xlink:href="#f2_c" transform="matrix(10.4,0,0,10.4,286,187.9)" />
<use xlink:href="#f2_1w" transform="matrix(10.4,0,0,10.4,298.4,187.9)" />
<use xlink:href="#f2_2d" transform="matrix(10.4,0,0,10.4,307.3,187.9)" />
<use xlink:href="#f2_20" transform="matrix(10.4,0,0,10.4,312.6,187.9)" />
<use xlink:href="#f2_n" transform="matrix(10.4,0,0,10.4,328.4,187.9)" />
<use xlink:href="#f2_f" transform="matrix(10.4,0,0,10.4,337.3,187.9)" />
<use xlink:href="#f2_o" transform="matrix(10.4,0,0,10.4,348.9,187.9)" />
<use xlink:href="#f2_f" transform="matrix(10.4,0,0,10.4,357.8,187.9)" />
<use xlink:href="#f2_p" transform="matrix(10.4,0,0,10.4,369.3,187.9)" />
<use xlink:href="#f2_f" transform="matrix(10.4,0,0,10.4,378.2,187.9)" />
<use xlink:href="#f2_q" transform="matrix(10.4,0,0,10.4,389.6,187.9)" />
<use xlink:href="#f3_24" transform="matrix(10.4,0,0,10.4,405.1,187.9)" />
<use xlink:href="#f3_h" transform="matrix(10.4,0,0,10.4,408.7,187.9)" />
<use xlink:href="#f3_20" transform="matrix(10.4,0,0,10.4,413.1,187.9)" />
<use xlink:href="#f3_h" transform="matrix(10.4,0,0,10.4,422,187.9)" />
<use xlink:href="#f2_21" transform="matrix(10.4,0,0,10.4,433.4,187.9)" />
<use xlink:href="#f2_2a" transform="matrix(10.4,0,0,10.4,437.8,187.9)" />
<use xlink:href="#f2_2g" transform="matrix(10.4,0,0,10.4,446.7,187.9)" />
<use xlink:href="#f2_2d" transform="matrix(10.4,0,0,10.4,455.5,187.9)" />
<use xlink:href="#f2_2b" transform="matrix(10.4,0,0,10.4,468,187.9)" />
<use xlink:href="#f2_2a" transform="matrix(10.4,0,0,10.4,476.9,187.9)" />
<use xlink:href="#f2_24" transform="matrix(10.4,0,0,10.4,485.7,187.9)" />
<use xlink:href="#f2_29" transform="matrix(10.4,0,0,10.4,489.3,187.9)" />
<use xlink:href="#f2_2f" transform="matrix(10.4,0,0,10.4,498.1,187.9)" />
<use xlink:href="#f2_2e" transform="matrix(10.4,0,0,10.4,502.6,187.9)" />
<use xlink:href="#f2_h" transform="matrix(10.4,0,0,10.4,510.5,187.9)" />
<use xlink:href="#f4_1d" transform="matrix(10.4,0,0,10.4,81.9,217.9)" />
<use xlink:href="#f4_2a" transform="matrix(10.4,0,0,10.4,93.4,217.9)" />
<use xlink:href="#f4_2f" transform="matrix(10.4,0,0,10.4,103.2,217.9)" />
<use xlink:href="#f4_20" transform="matrix(10.4,0,0,10.4,108.5,217.9)" />
<use xlink:href="#f4_t" transform="matrix(10.4,0,0,10.4,124.1,217.9)" />
<use xlink:href="#f2_10" transform="matrix(10.4,0,0,10.4,136.4,217.9)" />
<use xlink:href="#f2_2f" transform="matrix(10.4,0,0,10.4,147,217.9)" />
<use xlink:href="#f3_2j" transform="matrix(10.4,0,0,10.4,158.4,217.9)" />
<use xlink:href="#f2_w" transform="matrix(10.4,0,0,10.4,173.4,217.9)" />
<use xlink:href="#f2_m" transform="matrix(10.4,0,0,10.4,189.5,217.9)" />
<use xlink:href="#f2_f" transform="matrix(10.4,0,0,10.4,198.4,217.9)" />
<use xlink:href="#f3_21" transform="matrix(10.4,0,0,10.4,209.7,217.9)" />
<use xlink:href="#f2_b" transform="matrix(10.4,0,0,10.4,214.1,217.9)" />
<use xlink:href="#f3_2j" transform="matrix(10.4,0,0,10.4,219.4,217.9)" />
<use xlink:href="#f2_c" transform="matrix(10.4,0,0,10.4,227.5,217.9)" />
<use xlink:href="#f2_w" transform="matrix(10.4,0,0,10.4,239.8,217.9)" />
<use xlink:href="#f2_1q" transform="matrix(10.4,0,0,10.4,256,217.9)" />
<use xlink:href="#f3_2j" transform="matrix(10.4,0,0,10.4,260.5,217.9)" />
<use xlink:href="#f2_1s" transform="matrix(10.4,0,0,10.4,268.5,217.9)" />
<use xlink:href="#f2_24" transform="matrix(10.4,0,0,10.4,279.9,217.9)" />
<use xlink:href="#f2_2e" transform="matrix(10.4,0,0,10.4,283.5,217.9)" />
<use xlink:href="#f2_1y" transform="matrix(10.4,0,0,10.4,298.2,217.9)" />
<use xlink:href="#f2_2a" transform="matrix(10.4,0,0,10.4,306.2,217.9)" />
<use xlink:href="#f2_29" transform="matrix(10.4,0,0,10.4,315.1,217.9)" />
<use xlink:href="#f2_2f" transform="matrix(10.4,0,0,10.4,324,217.9)" />
<use xlink:href="#f2_24" transform="matrix(10.4,0,0,10.4,328.4,217.9)" />
<use xlink:href="#f2_29" transform="matrix(10.4,0,0,10.4,331.9,217.9)" />
<use xlink:href="#f2_2g" transform="matrix(10.4,0,0,10.4,340.8,217.9)" />
<use xlink:href="#f2_2a" transform="matrix(10.4,0,0,10.4,349.7,217.9)" />
<use xlink:href="#f2_2g" transform="matrix(10.4,0,0,10.4,358.5,217.9)" />
<use xlink:href="#f2_2e" transform="matrix(10.4,0,0,10.4,367.4,217.9)" />
<use xlink:href="#f2_h" transform="matrix(10.4,0,0,10.4,375.4,217.9)" />
<use xlink:href="#f2_1x" transform="matrix(10.4,0,0,10.4,386.8,217.9)" />
<use xlink:href="#f2_20" transform="matrix(10.4,0,0,10.4,395.6,217.9)" />
<use xlink:href="#f2_1y" transform="matrix(10.4,0,0,10.4,404.5,217.9)" />
<use xlink:href="#f2_1w" transform="matrix(10.4,0,0,10.4,412.5,217.9)" />
<use xlink:href="#f2_2g" transform="matrix(10.4,0,0,10.4,421.4,217.9)" />
<use xlink:href="#f2_2e" transform="matrix(10.4,0,0,10.4,430.2,217.9)" />
<use xlink:href="#f2_20" transform="matrix(10.4,0,0,10.4,438.2,217.9)" />
<use xlink:href="#f5_c" transform="matrix(10.5,0,0,11.5,496.1,214.1)" />
<use xlink:href="#f5_d" transform="matrix(10.5,0,0,11.5,512.5,214.1)" />
<use xlink:href="#f5_c" transform="matrix(10.4,0,0,11.6,568.8,214.4)" />
<use xlink:href="#f5_d" transform="matrix(10.4,0,0,11.6,583.8,214.4)" />
<use xlink:href="#f5_f" transform="matrix(5,0,0,5,480.5,223.3)" />
<use xlink:href="#f5_34" transform="matrix(7,0,0,7,463.4,228.1)" />
<use xlink:href="#f5_x" transform="matrix(10.5,0,0,10.5,521.7,216.2)" />
<use xlink:href="#f5_x" transform="matrix(10.5,0,0,10.5,548,216.2)" />
<use xlink:href="#f2_m" transform="matrix(7,0,0,7,474.3,228.1)" />
<use xlink:href="#f2_27" transform="matrix(10.5,0,0,10.5,461,216.2)" />
<use xlink:href="#f2_24" transform="matrix(10.5,0,0,10.5,464.5,216.2)" />
<use xlink:href="#f2_28" transform="matrix(10.5,0,0,10.5,468.1,216.2)" />
<use xlink:href="#f2_m" transform="matrix(10.5,0,0,10.5,535,216.2)" />
<use xlink:href="#f2_m" transform="matrix(10.5,0,0,10.5,574.8,216.2)" />
<use xlink:href="#f2_h" transform="matrix(10.5,0,0,10.5,590.1,216.2)" />
<use xlink:href="#f3_2j" transform="matrix(7,0,0,7,456.4,228.1)" />
<use xlink:href="#f3_21" transform="matrix(10.5,0,0,10.5,487.5,216.2)" />
<use xlink:href="#f3_2j" transform="matrix(10.5,0,0,10.5,501.9,216.2)" />
<use xlink:href="#f3_21" transform="matrix(10.5,0,0,10.5,560.4,216.2)" />
<use xlink:href="#f2_p" transform="matrix(10.4,0,0,10.4,50.2,274)" />
<use xlink:href="#f2_h" transform="matrix(10.4,0,0,10.4,59.1,274)" />
</g>
<path d="M112.5,269.6h10.4" class="g0_42" />
<g fill="#000000" >
<use xlink:href="#f2_q" transform="matrix(10.4,0,0,10.4,113.3,263.5)" />
<use xlink:href="#f2_h" transform="matrix(10.4,0,0,10.4,124.5,273.8)" />
<use xlink:href="#f2_l" transform="matrix(10.4,0,0,10.4,113.4,286.1)" />
<use xlink:href="#f5_28" transform="matrix(10.5,0,0,10.4,84.7,273.8)" />
<use xlink:href="#f5_x" transform="matrix(10.5,0,0,10.4,98.5,273.8)" />
<use xlink:href="#f2_q" transform="matrix(10.4,0,0,10.4,325.2,274)" />
<use xlink:href="#f2_h" transform="matrix(10.4,0,0,10.4,334.1,274)" />
</g>
<path d="M387.5,269.1h10.4" class="g0_42" />
<g fill="#000000" >
<use xlink:href="#f2_m" transform="matrix(10.4,0,0,10.4,388.2,262.9)" />
<use xlink:href="#f2_h" transform="matrix(10.4,0,0,10.4,399.4,273.3)" />
<use xlink:href="#f2_n" transform="matrix(10.4,0,0,10.4,388.2,285.6)" />
<use xlink:href="#f3_26" transform="matrix(10.4,0,0,10.4,358.9,273.3)" />
<use xlink:href="#f5_x" transform="matrix(10.5,0,0,10.4,373.4,273.3)" />
<use xlink:href="#f2_r" transform="matrix(10.4,0,0,10.4,50.2,322.6)" />
<use xlink:href="#f2_h" transform="matrix(10.4,0,0,10.4,59.1,322.6)" />
<use xlink:href="#f2_99" transform="matrix(10.4,0,0,10.4,81.9,322.6)" />
<use xlink:href="#f2_1y" transform="matrix(10.4,0,0,10.4,90.8,322.6)" />
<use xlink:href="#f2_2a" transform="matrix(10.4,0,0,10.4,98.8,322.6)" />
<use xlink:href="#f2_2f" transform="matrix(10.4,0,0,10.4,107.6,322.6)" />
<use xlink:href="#f3_2j" transform="matrix(10.4,0,0,10.4,119.1,322.6)" />
<use xlink:href="#f2_s" transform="matrix(10.4,0,0,10.4,325.2,322.6)" />
<use xlink:href="#f2_h" transform="matrix(10.4,0,0,10.4,334.1,322.6)" />
<use xlink:href="#f2_k" transform="matrix(10.4,0,0,10.4,356.9,322.6)" />
<use xlink:href="#f2_o" transform="matrix(10.4,0,0,10.4,366.1,322.6)" />
<use xlink:href="#f2_k" transform="matrix(10.4,0,0,10.4,41.2,377.1)" />
<use xlink:href="#f2_j" transform="matrix(10.4,0,0,10.4,50.1,377.1)" />
<use xlink:href="#f2_h" transform="matrix(10.4,0,0,10.4,59.2,377.1)" />
<use xlink:href="#f2_b" transform="matrix(10.4,0,0,10.4,99.9,377.1)" />
<use xlink:href="#f2_24" transform="matrix(10.4,0,0,10.4,105.2,377.1)" />
<use xlink:href="#f2_c" transform="matrix(10.4,0,0,10.4,108.7,377.1)" />
</g>
<path d="M130.8,370.3h52.5" class="g1_42" />
<g fill="#000000" >
<use xlink:href="#f2_m" transform="matrix(7.3,0,0,7.3,208.8,378.9)" />
<use xlink:href="#f2_m" transform="matrix(10.4,0,0,10.4,152.5,364.3)" />
<use xlink:href="#f2_27" transform="matrix(10.4,0,0,10.4,187.3,374.6)" />
<use xlink:href="#f2_2a" transform="matrix(10.4,0,0,10.4,190.9,374.6)" />
<use xlink:href="#f2_22" transform="matrix(10.4,0,0,10.4,199.9,374.6)" />
<use xlink:href="#f2_m" transform="matrix(10.4,0,0,10.4,131.6,386.8)" />
<use xlink:href="#f2_o" transform="matrix(10.4,0,0,10.4,173.4,386.8)" />
<use xlink:href="#f3_20" transform="matrix(10.4,0,0,10.4,220,374.6)" />
<use xlink:href="#f3_2j" transform="matrix(10.4,0,0,10.4,140.9,386.8)" />
<use xlink:href="#f5_f" transform="matrix(10.5,0,0,10.4,157.7,386.8)" />
<use xlink:href="#f2_b" transform="matrix(10.4,0,0,10.4,320.8,377.1)" />
<use xlink:href="#f2_24" transform="matrix(10.4,0,0,10.4,326.1,377.1)" />
<use xlink:href="#f2_24" transform="matrix(10.4,0,0,10.4,329.6,377.1)" />
<use xlink:href="#f2_c" transform="matrix(10.4,0,0,10.4,333.2,377.1)" />
</g>
<path d="M397.4,372.6h11.7" class="g2_42" />
<g fill="#000000" >
<use xlink:href="#f2_l" transform="matrix(5,0,0,5,382.6,372.4)" />
<use xlink:href="#f2_27" transform="matrix(7,0,0,7,368.3,369.5)" />
<use xlink:href="#f2_2a" transform="matrix(7,0,0,7,370.7,369.5)" />
<use xlink:href="#f2_22" transform="matrix(7,0,0,7,376.6,369.5)" />
<use xlink:href="#f2_l" transform="matrix(7,0,0,7,437.2,381.1)" />
<use xlink:href="#f2_k" transform="matrix(10.5,0,0,10.4,399.6,366.5)" />
<use xlink:href="#f2_h" transform="matrix(10.5,0,0,10.4,410.8,376.9)" />
<use xlink:href="#f2_27" transform="matrix(10.5,0,0,10.4,415.7,376.9)" />
<use xlink:href="#f2_2a" transform="matrix(10.5,0,0,10.4,419.3,376.9)" />
<use xlink:href="#f2_22" transform="matrix(10.5,0,0,10.4,428.2,376.9)" />
<use xlink:href="#f2_h" transform="matrix(10.5,0,0,10.4,454.9,376.9)" />
<use xlink:href="#f3_2j" transform="matrix(5,0,0,5,387.1,364.8)" />
<use xlink:href="#f3_20" transform="matrix(10.5,0,0,10.4,358.4,376.9)" />
<use xlink:href="#f3_20" transform="matrix(10.5,0,0,10.4,445.6,376.9)" />
<use xlink:href="#f3_2j" transform="matrix(10.5,0,0,10.4,398.4,389.2)" />
<use xlink:href="#f2_b" transform="matrix(10.4,0,0,10.4,92.7,423.6)" />
<use xlink:href="#f2_24" transform="matrix(10.4,0,0,10.4,98,423.6)" />
<use xlink:href="#f2_24" transform="matrix(10.4,0,0,10.4,101.6,423.6)" />
<use xlink:href="#f2_24" transform="matrix(10.4,0,0,10.4,105.1,423.6)" />
<use xlink:href="#f2_c" transform="matrix(10.4,0,0,10.4,108.7,423.6)" />
<use xlink:href="#f2_p" transform="matrix(10.4,0,0,10.4,127.7,423.6)" />
<use xlink:href="#f2_b" transform="matrix(10.4,0,0,10.4,143.4,423.6)" />
<use xlink:href="#f3_2j" transform="matrix(10.4,0,0,10.4,148.6,423.6)" />
<use xlink:href="#f2_99" transform="matrix(10.4,0,0,10.4,163.7,423.6)" />
<use xlink:href="#f2_k" transform="matrix(10.4,0,0,10.4,179.5,423.6)" />
<use xlink:href="#f2_c" transform="matrix(10.4,0,0,10.4,188.4,423.6)" />
<use xlink:href="#f2_o" transform="matrix(7.4,0,0,7.4,193.6,418.3)" />
<use xlink:href="#f2_b" transform="matrix(10.4,0,0,10.4,316.2,423.6)" />
<use xlink:href="#f2_24" transform="matrix(10.4,0,0,10.4,321.5,423.6)" />
<use xlink:href="#f2_2h" transform="matrix(10.4,0,0,10.4,325.1,423.6)" />
<use xlink:href="#f2_c" transform="matrix(10.4,0,0,10.4,333,423.6)" />
<use xlink:href="#f2_j" transform="matrix(10.4,0,0,10.4,356.9,423.6)" />
<use xlink:href="#f2_b" transform="matrix(10.4,0,0,10.4,95.3,482.7)" />
<use xlink:href="#f2_2h" transform="matrix(10.4,0,0,10.4,100.6,482.7)" />
<use xlink:href="#f2_c" transform="matrix(10.4,0,0,10.4,108.9,482.7)" />
</g>
<path d="M130.8,477.2h10.3" class="g3_42" />
<path d="M169,466.9l1.6,-.9l4,6.4l4.2,-16.8h11.6" class="g4_42" />
<path fill-rule="evenodd" d="M168.9,466.7l2.1,-1.2l3.6,5.3l4,-15.5h11.8v.7H179.1L175,472.4h-.8l-4,-5.9l-1,.6l-.3,-.4Z" class="g5_42" />
<path d="M145.4,493.2l1.6,-1.1l3.9,7.5l4.3,-19.7h40.3" class="g4_42" />
<path fill-rule="evenodd" d="M145.3,493l2.1,-1.4l3.5,6.2l4,-18.3h40.6v.8h-40l-4.2,19.3h-.8l-3.9,-6.9l-1,.7l-.3,-.4Z" class="g5_42" />
<path d="M144,477.2h52.8" class="g3_42" />
<g fill="#000000" >
<use xlink:href="#f2_l" transform="matrix(7,0,0,6.9,160.6,464)" />
<use xlink:href="#f2_q" transform="matrix(7,0,0,6.9,187,491.2)" />
<use xlink:href="#f2_q" transform="matrix(10.4,0,0,10.4,131.6,471.1)" />
<use xlink:href="#f2_h" transform="matrix(10.4,0,0,10.4,198.3,481.4)" />
<use xlink:href="#f2_l" transform="matrix(10.4,0,0,10.4,131.7,493.7)" />
<use xlink:href="#f2_k" transform="matrix(10.4,0,0,10.4,154.4,498.4)" />
<use xlink:href="#f3_2j" transform="matrix(10.4,0,0,10.4,150.1,471.1)" />
<use xlink:href="#f3_2j" transform="matrix(10.4,0,0,10.4,179.5,471.1)" />
<use xlink:href="#f3_2j" transform="matrix(10.4,0,0,10.4,176.5,498.4)" />
<use xlink:href="#f5_h" transform="matrix(10.4,0,0,10.4,164.1,498.4)" />
<use xlink:href="#f2_b" transform="matrix(10.4,0,0,10.4,316.2,482.7)" />
<use xlink:href="#f2_2h" transform="matrix(10.4,0,0,10.4,321.5,482.7)" />
<use xlink:href="#f2_24" transform="matrix(10.4,0,0,10.4,329.8,482.7)" />
<use xlink:href="#f2_c" transform="matrix(10.4,0,0,10.4,333.3,482.7)" />
<use xlink:href="#f5_c" transform="matrix(10.5,0,0,14.9,372.2,496.5)" />
<use xlink:href="#f5_d" transform="matrix(10.5,0,0,14.9,419.1,496.5)" />
</g>
<path d="M360,474.8h72.6" class="g6_42" />
<g fill="#000000" >
<use xlink:href="#f2_l" transform="matrix(7.1,0,0,7.1,424.2,485.4)" />
<use xlink:href="#f2_27" transform="matrix(10.6,0,0,10.6,381.8,468)" />
<use xlink:href="#f2_2a" transform="matrix(10.6,0,0,10.6,385.4,468)" />
<use xlink:href="#f2_22" transform="matrix(10.6,0,0,10.6,394.4,468)" />
<use xlink:href="#f2_o" transform="matrix(10.6,0,0,10.6,412.8,468)" />
<use xlink:href="#f2_h" transform="matrix(10.6,0,0,10.6,434.2,479)" />
<use xlink:href="#f2_27" transform="matrix(10.6,0,0,10.6,377.5,495)" />
<use xlink:href="#f2_2a" transform="matrix(10.6,0,0,10.6,381.1,495)" />
<use xlink:href="#f2_22" transform="matrix(10.6,0,0,10.6,390.1,495)" />
<use xlink:href="#f3_20" transform="matrix(7.1,0,0,7.1,402.4,472.3)" />
<use xlink:href="#f3_20" transform="matrix(7.1,0,0,7.1,398,499.3)" />
<use xlink:href="#f3_2j" transform="matrix(10.6,0,0,10.6,360.9,495)" />
<use xlink:href="#f3_2j" transform="matrix(10.6,0,0,10.6,408.6,495)" />
<use xlink:href="#f5_h" transform="matrix(10.6,0,0,10.6,371.5,468)" />
<use xlink:href="#f2_k" transform="matrix(10.4,0,0,10.4,41.2,539.3)" />
<use xlink:href="#f2_k" transform="matrix(10.4,0,0,10.4,50.1,539.3)" />
<use xlink:href="#f2_h" transform="matrix(10.4,0,0,10.4,59.2,539.3)" />
<use xlink:href="#f2_b" transform="matrix(10.4,0,0,10.4,99.9,539.3)" />
<use xlink:href="#f2_24" transform="matrix(10.4,0,0,10.4,105.2,539.3)" />
<use xlink:href="#f2_c" transform="matrix(10.4,0,0,10.4,108.7,539.3)" />
<use xlink:href="#f2_13" transform="matrix(10.4,0,0,10.4,127.7,539.3)" />
<use xlink:href="#f2_24" transform="matrix(10.4,0,0,10.4,139.5,539.3)" />
<use xlink:href="#f2_2e" transform="matrix(10.4,0,0,10.4,143,539.3)" />
<use xlink:href="#f2_1y" transform="matrix(10.4,0,0,10.4,151.3,539.3)" />
<use xlink:href="#f2_2a" transform="matrix(10.4,0,0,10.4,159.5,539.3)" />
<use xlink:href="#f2_29" transform="matrix(10.4,0,0,10.4,168.4,539.3)" />
<use xlink:href="#f2_2f" transform="matrix(10.4,0,0,10.4,177.3,539.3)" />
<use xlink:href="#f2_24" transform="matrix(10.4,0,0,10.4,181.7,539.3)" />
<use xlink:href="#f2_29" transform="matrix(10.4,0,0,10.4,185.2,539.3)" />
<use xlink:href="#f2_2g" transform="matrix(10.4,0,0,10.4,194.1,539.3)" />
<use xlink:href="#f2_2a" transform="matrix(10.4,0,0,10.4,203,539.3)" />
<use xlink:href="#f2_2g" transform="matrix(10.4,0,0,10.4,211.8,539.3)" />
<use xlink:href="#f2_2e" transform="matrix(10.4,0,0,10.4,220.7,539.3)" />
<use xlink:href="#f2_b" transform="matrix(10.4,0,0,10.4,320.8,539.3)" />
<use xlink:href="#f2_24" transform="matrix(10.4,0,0,10.4,326.1,539.3)" />
<use xlink:href="#f2_24" transform="matrix(10.4,0,0,10.4,329.6,539.3)" />
<use xlink:href="#f2_c" transform="matrix(10.4,0,0,10.4,333.2,539.3)" />
<use xlink:href="#f2_13" transform="matrix(10.4,0,0,10.4,356.9,539.3)" />
<use xlink:href="#f2_24" transform="matrix(10.4,0,0,10.4,368.6,539.3)" />
<use xlink:href="#f2_2e" transform="matrix(10.4,0,0,10.4,372.2,539.3)" />
<use xlink:href="#f2_1y" transform="matrix(10.4,0,0,10.4,380.4,539.3)" />
<use xlink:href="#f2_2a" transform="matrix(10.4,0,0,10.4,388.7,539.3)" />
<use xlink:href="#f2_29" transform="matrix(10.4,0,0,10.4,397.6,539.3)" />
<use xlink:href="#f2_2f" transform="matrix(10.4,0,0,10.4,406.4,539.3)" />
<use xlink:href="#f2_24" transform="matrix(10.4,0,0,10.4,410.9,539.3)" />
<use xlink:href="#f2_29" transform="matrix(10.4,0,0,10.4,414.4,539.3)" />
<use xlink:href="#f2_2g" transform="matrix(10.4,0,0,10.4,423.3,539.3)" />
<use xlink:href="#f2_2a" transform="matrix(10.4,0,0,10.4,432.1,539.3)" />
<use xlink:href="#f2_2g" transform="matrix(10.4,0,0,10.4,441,539.3)" />
<use xlink:href="#f2_2e" transform="matrix(10.4,0,0,10.4,449.9,539.3)" />
<use xlink:href="#f2_b" transform="matrix(10.4,0,0,10.4,92.7,573.2)" />
<use xlink:href="#f2_24" transform="matrix(10.4,0,0,10.4,98,573.2)" />
<use xlink:href="#f2_24" transform="matrix(10.4,0,0,10.4,101.6,573.2)" />
<use xlink:href="#f2_24" transform="matrix(10.4,0,0,10.4,105.1,573.2)" />
<use xlink:href="#f2_c" transform="matrix(10.4,0,0,10.4,108.7,573.2)" />
<use xlink:href="#f2_12" transform="matrix(10.4,0,0,10.4,127.7,573.2)" />
<use xlink:href="#f2_2a" transform="matrix(10.4,0,0,10.4,139.5,573.2)" />
<use xlink:href="#f2_29" transform="matrix(10.4,0,0,10.4,148.4,573.2)" />
<use xlink:href="#f2_2f" transform="matrix(10.4,0,0,10.4,157.2,573.2)" />
<use xlink:href="#f2_24" transform="matrix(10.4,0,0,10.4,161.7,573.2)" />
<use xlink:href="#f2_29" transform="matrix(10.4,0,0,10.4,165.2,573.2)" />
<use xlink:href="#f2_2g" transform="matrix(10.4,0,0,10.4,174.1,573.2)" />
<use xlink:href="#f2_2a" transform="matrix(10.4,0,0,10.4,182.9,573.2)" />
<use xlink:href="#f2_2g" transform="matrix(10.4,0,0,10.4,191.8,573.2)" />
<use xlink:href="#f2_2e" transform="matrix(10.4,0,0,10.4,200.7,573.2)" />
<use xlink:href="#f2_b" transform="matrix(10.4,0,0,10.4,316.2,573.2)" />
<use xlink:href="#f2_24" transform="matrix(10.4,0,0,10.4,321.5,573.2)" />
<use xlink:href="#f2_2h" transform="matrix(10.4,0,0,10.4,325.1,573.2)" />
<use xlink:href="#f2_c" transform="matrix(10.4,0,0,10.4,333,573.2)" />
<use xlink:href="#f2_1y" transform="matrix(10.4,0,0,10.4,356.9,573.2)" />
<use xlink:href="#f2_2a" transform="matrix(10.4,0,0,10.4,365.2,573.2)" />
<use xlink:href="#f2_29" transform="matrix(10.4,0,0,10.4,374,573.2)" />
<use xlink:href="#f2_2f" transform="matrix(10.4,0,0,10.4,382.9,573.2)" />
<use xlink:href="#f2_24" transform="matrix(10.4,0,0,10.4,387.3,573.2)" />
<use xlink:href="#f2_29" transform="matrix(10.4,0,0,10.4,390.9,573.2)" />
<use xlink:href="#f2_2g" transform="matrix(10.4,0,0,10.4,399.7,573.2)" />
<use xlink:href="#f2_2a" transform="matrix(10.4,0,0,10.4,408.6,573.2)" />
<use xlink:href="#f2_2g" transform="matrix(10.4,0,0,10.4,417.5,573.2)" />
<use xlink:href="#f2_2e" transform="matrix(10.4,0,0,10.4,426.3,573.2)" />
<use xlink:href="#f2_b" transform="matrix(10.4,0,0,10.4,95.3,607.2)" />
<use xlink:href="#f2_2h" transform="matrix(10.4,0,0,10.4,100.6,607.2)" />
<use xlink:href="#f2_c" transform="matrix(10.4,0,0,10.4,108.9,607.2)" />
<use xlink:href="#f2_13" transform="matrix(10.4,0,0,10.4,127.7,607.2)" />
<use xlink:href="#f2_24" transform="matrix(10.4,0,0,10.4,139.5,607.2)" />
<use xlink:href="#f2_2e" transform="matrix(10.4,0,0,10.4,143,607.2)" />
<use xlink:href="#f2_1y" transform="matrix(10.4,0,0,10.4,151.3,607.2)" />
<use xlink:href="#f2_2a" transform="matrix(10.4,0,0,10.4,159.5,607.2)" />
<use xlink:href="#f2_29" transform="matrix(10.4,0,0,10.4,168.4,607.2)" />
<use xlink:href="#f2_2f" transform="matrix(10.4,0,0,10.4,177.3,607.2)" />
<use xlink:href="#f2_24" transform="matrix(10.4,0,0,10.4,181.7,607.2)" />
<use xlink:href="#f2_29" transform="matrix(10.4,0,0,10.4,185.2,607.2)" />
<use xlink:href="#f2_2g" transform="matrix(10.4,0,0,10.4,194.1,607.2)" />
<use xlink:href="#f2_2a" transform="matrix(10.4,0,0,10.4,203,607.2)" />
<use xlink:href="#f2_2g" transform="matrix(10.4,0,0,10.4,211.8,607.2)" />
<use xlink:href="#f2_2e" transform="matrix(10.4,0,0,10.4,220.7,607.2)" />
<use xlink:href="#f2_k" transform="matrix(10.4,0,0,10.4,41.2,641.1)" />
<use xlink:href="#f2_l" transform="matrix(10.4,0,0,10.4,50.1,641.1)" />
<use xlink:href="#f2_h" transform="matrix(10.4,0,0,10.4,59.2,641.1)" />
<use xlink:href="#f2_26" transform="matrix(10.4,0,0,10.4,81.9,641.1)" />
<use xlink:href="#f2_w" transform="matrix(10.4,0,0,10.4,96.7,641.1)" />
<use xlink:href="#f2_k" transform="matrix(10.4,0,0,10.4,112.9,641.1)" />
<use xlink:href="#f2_k" transform="matrix(10.4,0,0,10.4,121.8,641.1)" />
<use xlink:href="#f2_k" transform="matrix(10.4,0,0,10.4,316.2,641.1)" />
<use xlink:href="#f2_m" transform="matrix(10.4,0,0,10.4,325.1,641.1)" />
<use xlink:href="#f2_h" transform="matrix(10.4,0,0,10.4,334.2,641.1)" />
<use xlink:href="#f3_1w" transform="matrix(10.4,0,0,10.4,356.9,641.1)" />
<use xlink:href="#f2_w" transform="matrix(10.4,0,0,10.4,372.5,641.1)" />
<use xlink:href="#f2_j" transform="matrix(10.4,0,0,10.4,388.8,641.1)" />
<use xlink:href="#f2_f" transform="matrix(10.4,0,0,10.4,397.6,641.1)" />
<use xlink:href="#f3_1x" transform="matrix(10.4,0,0,10.4,408.8,641.1)" />
<use xlink:href="#f2_w" transform="matrix(10.4,0,0,10.4,424.4,641.1)" />
<use xlink:href="#f2_99" transform="matrix(10.4,0,0,10.4,440.7,641.1)" />
<use xlink:href="#f2_k" transform="matrix(10.4,0,0,10.4,449.5,641.1)" />
<use xlink:href="#f2_h" transform="matrix(10.4,0,0,10.4,458.4,641.1)" />
<use xlink:href="#f2_k" transform="matrix(10.4,0,0,10.4,41.2,675)" />
<use xlink:href="#f2_o" transform="matrix(10.4,0,0,10.4,50.1,675)" />
<use xlink:href="#f2_h" transform="matrix(10.4,0,0,10.4,59.2,675)" />
<use xlink:href="#f3_2b" transform="matrix(10.4,0,0,10.4,81.9,675)" />
<use xlink:href="#f2_x" transform="matrix(10.4,0,0,10.4,97.5,675)" />
<use xlink:href="#f2_k" transform="matrix(10.4,0,0,10.4,113.8,675)" />
<use xlink:href="#f2_h" transform="matrix(10.4,0,0,10.4,122.6,675)" />
<use xlink:href="#f2_k" transform="matrix(10.4,0,0,10.4,316.2,675)" />
<use xlink:href="#f2_p" transform="matrix(10.4,0,0,10.4,325.1,675)" />
<use xlink:href="#f2_h" transform="matrix(10.4,0,0,10.4,334.2,675)" />
<use xlink:href="#f2_j" transform="matrix(10.4,0,0,10.4,356.9,675)" />
<use xlink:href="#f2_k" transform="matrix(10.4,0,0,10.4,41.2,728)" />
<use xlink:href="#f2_q" transform="matrix(10.4,0,0,10.4,50.1,728)" />
<use xlink:href="#f2_h" transform="matrix(10.4,0,0,10.4,59.2,728)" />
</g>
<path d="M86.4,739.2l1.5,-1l3.9,7.4l4.3,-19.7h40" class="g4_42" />
<path fill-rule="evenodd" d="M86.2,739l2.1,-1.4l3.5,6.2l4,-18.2h40.3v.7H96.4l-4.2,19.3h-.7l-4,-6.8l-1,.7l-.3,-.5Z" class="g5_42" />
<path d="M85,723.3h52.3" class="g2_42" />
<g fill="#000000" >
<use xlink:href="#f2_l" transform="matrix(7,0,0,6.9,127.7,737.2)" />
<use xlink:href="#f2_h" transform="matrix(10.4,0,0,10.4,138.9,727.5)" />
<use xlink:href="#f2_k" transform="matrix(10.4,0,0,10.4,95.2,744.4)" />
<use xlink:href="#f3_2j" transform="matrix(10.4,0,0,10.4,111,717.2)" />
<use xlink:href="#f3_2j" transform="matrix(10.4,0,0,10.4,117.2,744.4)" />
<use xlink:href="#f5_h" transform="matrix(10.5,0,0,10.4,101.5,717.2)" />
<use xlink:href="#f5_h" transform="matrix(10.5,0,0,10.4,105,744.4)" />
<use xlink:href="#f2_l" transform="matrix(10.4,0,0,10.4,316.2,728)" />
<use xlink:href="#f2_l" transform="matrix(10.4,0,0,10.4,325.1,728)" />
<use xlink:href="#f2_h" transform="matrix(10.4,0,0,10.4,334.2,728)" />
<use xlink:href="#f2_k" transform="matrix(10.4,0,0,10.4,356.9,728)" />
<use xlink:href="#f2_l" transform="matrix(10.4,0,0,10.4,41.2,782.1)" />
<use xlink:href="#f2_m" transform="matrix(10.4,0,0,10.4,50.1,782.1)" />
<use xlink:href="#f2_h" transform="matrix(10.4,0,0,10.4,59.2,782.1)" />
<use xlink:href="#f2_99" transform="matrix(10.4,0,0,10.4,81.9,782.1)" />
<use xlink:href="#f2_1y" transform="matrix(10.4,0,0,10.4,90.8,782.1)" />
<use xlink:href="#f2_2a" transform="matrix(10.4,0,0,10.4,98.8,782.1)" />
<use xlink:href="#f2_2f" transform="matrix(10.4,0,0,10.4,107.6,782.1)" />
<use xlink:href="#f2_l" transform="matrix(7.4,0,0,7.4,112,776.7)" />
<use xlink:href="#f3_2j" transform="matrix(10.4,0,0,10.4,118.2,782.1)" />
<use xlink:href="#f2_27" transform="matrix(10.4,0,0,10.4,134.2,782.1)" />
<use xlink:href="#f2_2a" transform="matrix(10.4,0,0,10.4,137.7,782.1)" />
<use xlink:href="#f2_22" transform="matrix(10.4,0,0,10.4,146.6,782.1)" />
<use xlink:href="#f3_20" transform="matrix(7.4,0,0,7.4,155.2,787.4)" />
<use xlink:href="#f3_1w" transform="matrix(10.4,0,0,10.4,161.5,782.1)" />
<use xlink:href="#f2_l" transform="matrix(10.4,0,0,10.4,41.2,843.8)" />
<use xlink:href="#f2_n" transform="matrix(10.4,0,0,10.4,50.1,843.8)" />
<use xlink:href="#f2_h" transform="matrix(10.4,0,0,10.4,59.2,843.8)" />
</g>
<path d="M85,835.6h19.7" class="g2_42" />
<g fill="#000000" >
<use xlink:href="#f5_c" transform="matrix(10.4,0,0,14,155.1,829.3)" />
<use xlink:href="#f5_d" transform="matrix(10.4,0,0,14,214.5,829.1)" />
</g>
<path d="M123.5,835.6H344" class="g2_42" />
<g fill="#000000" >
<use xlink:href="#f2_k" transform="matrix(7,0,0,6.9,267.3,821.4)" />
<use xlink:href="#f2_k" transform="matrix(7,0,0,6.9,281.6,846.2)" />
<use xlink:href="#f2_k" transform="matrix(10.4,0,0,10.4,159.2,828.6)" />
<use xlink:href="#f2_27" transform="matrix(10.4,0,0,10.4,180.5,828.6)" />
<use xlink:href="#f2_2a" transform="matrix(10.4,0,0,10.4,184,828.6)" />
<use xlink:href="#f2_22" transform="matrix(10.4,0,0,10.4,193.1,828.6)" />
<use xlink:href="#f2_27" transform="matrix(10.4,0,0,10.4,309.8,828.6)" />
<use xlink:href="#f2_2a" transform="matrix(10.4,0,0,10.4,313.4,828.6)" />
<use xlink:href="#f2_22" transform="matrix(10.4,0,0,10.4,322.4,828.6)" />
<use xlink:href="#f2_h" transform="matrix(10.4,0,0,10.4,345.6,839.9)" />
<use xlink:href="#f2_27" transform="matrix(10.4,0,0,10.4,200.6,853.3)" />
<use xlink:href="#f2_2a" transform="matrix(10.4,0,0,10.4,204.2,853.3)" />
<use xlink:href="#f2_22" transform="matrix(10.4,0,0,10.4,213.2,853.3)" />
<use xlink:href="#f3_2j" transform="matrix(7,0,0,6.9,144.7,821.4)" />
<use xlink:href="#f3_2k" transform="matrix(7,0,0,6.9,254.1,821.4)" />
<use xlink:href="#f3_2j" transform="matrix(7,0,0,6.9,300,821.4)" />
<use xlink:href="#f3_2k" transform="matrix(7,0,0,6.9,190.8,846.2)" />
<use xlink:href="#f3_2j" transform="matrix(7,0,0,6.9,268.4,846.2)" />
<use xlink:href="#f3_2j" transform="matrix(10.4,0,0,10.4,134,828.6)" />
<use xlink:href="#f3_2j" transform="matrix(10.4,0,0,10.4,203.7,828.6)" />
<use xlink:href="#f3_2k" transform="matrix(10.4,0,0,10.4,235.2,828.6)" />
<use xlink:href="#f3_2j" transform="matrix(10.4,0,0,10.4,243.1,828.6)" />
<use xlink:href="#f3_2k" transform="matrix(10.4,0,0,10.4,289.2,828.6)" />
<use xlink:href="#f3_2k" transform="matrix(10.4,0,0,10.4,333.2,828.6)" />
<use xlink:href="#f3_1z" transform="matrix(10.4,0,0,10.4,84.6,829.5)" />
<use xlink:href="#f3_2k" transform="matrix(10.4,0,0,10.4,93.6,829.5)" />
<use xlink:href="#f3_1z" transform="matrix(10.4,0,0,10.4,84.6,852.1)" />
<use xlink:href="#f3_2j" transform="matrix(10.4,0,0,10.4,93.6,852.1)" />
<use xlink:href="#f3_2j" transform="matrix(10.4,0,0,10.4,179.9,853.3)" />
<use xlink:href="#f3_2j" transform="matrix(10.4,0,0,10.4,223.8,853.3)" />
<use xlink:href="#f3_2j" transform="matrix(10.4,0,0,10.4,249.6,853.3)" />
<use xlink:href="#f3_2k" transform="matrix(10.4,0,0,10.4,257.6,853.3)" />
<use xlink:href="#f5_h" transform="matrix(7,0,0,6.9,261.5,821.4)" />
<use xlink:href="#f5_h" transform="matrix(7,0,0,6.9,275.8,846.2)" />
<use xlink:href="#f5_h" transform="matrix(10.5,0,0,10.4,124.5,828.6)" />
<use xlink:href="#f5_f" transform="matrix(10.5,0,0,10.4,168.8,828.6)" />
<use xlink:href="#f5_h" transform="matrix(10.5,0,0,10.4,222.7,828.6)" />
<use xlink:href="#f5_h" transform="matrix(10.5,0,0,10.4,276.7,828.6)" />
<use xlink:href="#f5_x" transform="matrix(10.5,0,0,10.4,109.4,839.9)" />
<use xlink:href="#f5_f" transform="matrix(10.5,0,0,10.4,237.2,853.3)" />
<use xlink:href="#f6_p" transform="matrix(12,0,0,12,638.6,1041.1)" />
</g>
<g fill="#0080FF" fill-opacity="0.5" >
<use xlink:href="#f0_1c" transform="matrix(35.3,0,0,35.3,169.4,1052.8)" />
<use xlink:href="#f0_21" transform="matrix(35.3,0,0,35.3,199.4,1052.8)" />
<use xlink:href="#f0_1x" transform="matrix(35.3,0,0,35.3,229.4,1052.8)" />
<use xlink:href="#f0_2e" transform="matrix(35.3,0,0,35.3,259.4,1052.8)" />
<use xlink:href="#f0_2a" transform="matrix(35.3,0,0,35.3,277.3,1052.8)" />
<use xlink:href="#f0_17" transform="matrix(35.3,0,0,35.3,307.3,1052.8)" />
<use xlink:href="#f0_2h" transform="matrix(35.3,0,0,35.3,349.3,1052.8)" />
<use xlink:href="#f0_25" transform="matrix(35.3,0,0,35.3,379.3,1052.8)" />
<use xlink:href="#f0_20" transform="matrix(35.3,0,0,35.3,391.3,1052.8)" />
<use xlink:href="#f0_21" transform="matrix(35.3,0,0,35.3,421.3,1052.8)" />
<use xlink:href="#f0_i" transform="matrix(35.3,0,0,35.3,451.2,1052.8)" />
<use xlink:href="#f0_25" transform="matrix(35.3,0,0,35.3,466.2,1052.8)" />
<use xlink:href="#f0_2a" transform="matrix(35.3,0,0,35.3,478.2,1052.8)" />
</g>
<defs>
<path d="M593,101c0,0,182,0,279,112c0,0,98,113,98,318c0,0,0,196,-98,308c0,0,-98,112,-277,112c0,0,-181,0,-279,-110c0,0,-99,-111,-99,-310c0,0,0,-198,100,-314c0,0,99,-116,276,-116Zm0,-115c0,0,-162,0,-279,65c0,0,-118,66,-180,190c0,0,-62,124,-62,290c0,0,0,252,138,394c0,0,138,142,385,142c0,0,160,0,278,-64c0,0,118,-64,180,-185c0,0,62,-122,62,-287c0,0,0,-165,-63,-289c0,0,-63,-124,-181,-190c0,0,-118,-66,-278,-66Z" 
id="f0_1f"
transform="scale(0.001,-0.001)" />

<path d="M106,0V635c0,0,0,141,-5,173H228c0,0,1,-4,2,-21c0,0,1,-16,2,-37c0,0,1,-22,2,-81h2c0,0,47,84,108,119c0,0,60,34,151,34c0,0,132,0,194,-66c0,0,61,-66,61,-218V0H615V512c0,0,0,80,-15,124c0,0,-16,44,-50,63c0,0,-35,20,-101,20c0,0,-97,0,-153,-67c0,0,-56,-66,-56,-184V0Z" 
id="f0_2a"
transform="scale(0.001,-0.001)" />

<path d="M103,0V1107H237V0Z" 
id="f0_28"
transform="scale(0.001,-0.001)" />

<path d="M102,0V808H236V0Zm0,979v128H236V979Z" 
id="f0_25"
transform="scale(0.001,-0.001)" />

<path d="M643,478c0,0,-11,128,-65,187c0,0,-54,59,-154,59c0,0,-98,0,-155,-66c0,0,-57,-65,-62,-180ZM431,-14c0,0,-179,0,-272,106c0,0,-94,107,-94,317c0,0,0,200,94,307c0,0,93,106,267,106c0,0,356,0,356,-429V375H206c0,0,0,-138,57,-213c0,0,58,-75,168,-75c0,0,87,0,140,35c0,0,53,35,71,88L760,177c0,0,-72,-191,-329,-191Z" 
id="f0_21"
transform="scale(0.001,-0.001)" />

<path d="M17,0L304,415L31,808H179L380,493L580,808H730L457,417L747,0H598L380,331L162,0Z" 
id="f0_2k"
transform="scale(0.001,-0.001)" />

<path d="M339,87c0,0,74,0,132,34c0,0,57,33,90,91c0,0,34,59,34,121v66L448,396c0,0,-95,-2,-144,-19c0,0,-49,-18,-75,-55c0,0,-26,-38,-26,-98c0,0,0,-65,35,-101c0,0,36,-36,101,-36ZM309,-14c0,0,-122,0,-183,64c0,0,-61,64,-61,176c0,0,0,125,82,192c0,0,83,67,266,72l182,3v44c0,0,0,98,-42,141c0,0,-42,43,-132,43c0,0,-90,0,-131,-31c0,0,-41,-31,-49,-98L101,604c0,0,34,218,323,218c0,0,153,0,229,-70c0,0,77,-69,77,-202V202c0,0,0,-59,16,-90c0,0,16,-30,60,-30c0,0,19,0,44,5V4C850,4,799,-7,746,-7c0,0,-75,0,-109,38c0,0,-33,40,-38,124h-4C595,155,543,62,475,24c0,0,-68,-38,-166,-38Z" 
id="f0_1x"
transform="scale(0.001,-0.001)" />

<path d="M106,0V635c0,0,0,141,-5,173H228c0,0,1,-4,2,-21c0,0,1,-16,2,-37c0,0,1,-22,2,-81h2c0,0,44,86,100,120c0,0,56,33,136,33c0,0,92,0,145,-36c0,0,54,-37,75,-117h2c0,0,42,82,101,117c0,0,59,36,143,36c0,0,123,0,178,-66c0,0,56,-67,56,-218V0H1039V512c0,0,0,117,-32,162c0,0,-32,45,-116,45c0,0,-88,0,-136,-66c0,0,-49,-65,-49,-185V0H573V512c0,0,0,117,-32,162c0,0,-32,45,-116,45c0,0,-86,0,-136,-66c0,0,-50,-66,-50,-185V0Z" 
id="f0_29"
transform="scale(0.001,-0.001)" />

<path d="M453,84c0,0,100,0,146,74c0,0,46,73,46,247c0,0,0,169,-46,241c0,0,-45,73,-145,73c0,0,-80,0,-125,-34c0,0,-45,-34,-68,-105c0,0,-24,-71,-24,-186c0,0,0,-159,51,-234c0,0,51,-76,165,-76ZM103,-316V643c0,0,0,124,-5,165H228c0,0,1,-3,3,-22c0,0,1,-18,3,-56c0,0,2,-38,2,-52h3c0,0,36,75,94,110c0,0,59,34,156,34c0,0,149,0,223,-100c0,0,74,-100,74,-314c0,0,0,-422,-297,-422c0,0,-187,0,-251,140h-4c0,0,3,-6,3,-126V-316Z" 
id="f0_2c"
transform="scale(0.001,-0.001)" />

<path d="M420,84c0,0,121,0,173,78c0,0,52,77,52,243c0,0,0,167,-50,243c0,0,-50,76,-167,76c0,0,-118,0,-170,-78c0,0,-53,-77,-53,-241c0,0,0,-160,52,-241c0,0,52,-80,163,-80Zm1,-98c0,0,-176,0,-267,107c0,0,-90,108,-90,312c0,0,0,417,362,417c0,0,185,0,272,-102c0,0,88,-101,88,-315c0,0,0,-212,-94,-316C692,89,599,-14,421,-14Z" 
id="f0_2b"
transform="scale(0.001,-0.001)" />

<path d="M278,-11c0,0,-162,0,-162,182V710H23v98h99l39,181h90V808H400V710H251V200c0,0,0,-58,19,-82c0,0,19,-23,66,-23c0,0,27,0,77,10V6c0,0,-66,-17,-135,-17Z" 
id="f0_2g"
transform="scale(0.001,-0.001)" />

<path d="M693,499L573,830L462,499ZM-39,0c0,0,33,42,61,97c0,0,30,55,71,148l314,761c0,0,22,51,38,98c0,0,15,47,17,63H721c0,0,2,-16,18,-63c0,0,15,-47,37,-98L1091,245c0,0,41,-95,70,-150c0,0,30,-55,60,-95H849c0,0,3,25,-3,55c0,0,-6,30,-24,80L765,295H393L340,135c0,0,-17,-50,-22,-80c0,0,-5,-30,-2,-55Z" 
id="f1_10"
transform="scale(0.001,-0.001)" />

<path d="M108,0c0,0,22,54,31,110c0,0,10,55,10,135V985L-5,1167H418c0,0,21,-44,54,-99c0,0,34,-55,96,-146L857,495V922c0,0,0,81,-9,136c0,0,-9,55,-32,109h378c0,0,-23,-54,-32,-109c0,0,-9,-55,-9,-136V351c0,0,0,-76,11,-178c0,0,11,-101,27,-173H845c0,0,-7,25,-28,67c0,0,-21,42,-45,78L444,628V245c0,0,0,-80,9,-135c0,0,10,-56,32,-110Z" 
id="f1_1d"
transform="scale(0.001,-0.001)" />

<path d="M367,-20c0,0,-85,0,-142,12C225,-8,167,2,83,35V332c0,0,41,-55,107,-90c0,0,66,-35,130,-35c0,0,51,0,84,31c0,0,32,31,32,81c0,0,0,49,-23,86c0,0,-22,37,-82,83c0,0,-126,98,-184,181c0,0,-57,82,-57,165c0,0,0,155,106,253c0,0,106,98,272,98c0,0,62,0,133,-13c0,0,71,-13,120,-33V867c0,0,-59,49,-104,70c0,0,-46,20,-94,20c0,0,-47,0,-76,-24c0,0,-29,-25,-29,-63c0,0,0,-41,20,-73c0,0,21,-31,75,-73c0,0,130,-101,189,-189c0,0,59,-87,59,-180c0,0,0,-165,-110,-270C651,85,541,-20,367,-20Z" 
id="f1_1i"
transform="scale(0.001,-0.001)" />

<path d="M324,0L78,922c0,0,-23,85,-44,140c0,0,-22,55,-50,105H376c0,0,-7,-56,-7,-99c0,0,1,-42,11,-89L479,513L610,998c0,0,11,42,21,91c0,0,10,49,13,78H861c0,0,4,-36,12,-85c0,0,9,-50,18,-84L1021,492l115,540c0,0,8,33,6,63c0,0,-1,31,-12,72h378c0,0,-30,-50,-52,-105c0,0,-21,-56,-45,-140L1166,0H925L741,597L565,0Z" 
id="f1_1m"
transform="scale(0.001,-0.001)" />

<path d="M102,0c0,0,22,54,31,110c0,0,10,55,10,135V922c0,0,0,81,-10,136c0,0,-9,55,-31,109H823L766,1041L709,913c0,0,-42,20,-137,36c0,0,-62,9,-121,13V697H798L728,569L657,441c0,0,-45,21,-131,36c0,0,-38,8,-75,11V206c0,0,117,6,201,22c0,0,126,24,239,84L827,156L762,0Z" 
id="f1_14"
transform="scale(0.001,-0.001)" />

<path d="M452,645c0,0,85,0,139,47c0,0,54,47,54,121c0,0,0,66,-51,107c0,0,-51,42,-132,42H442V645ZM93,0c0,0,22,54,32,110c0,0,9,55,9,135V922c0,0,0,81,-9,136c0,0,-10,55,-32,109H498c0,0,215,0,332,-90c0,0,117,-90,117,-256c0,0,0,-159,-129,-253c0,0,-46,-34,-103,-54L902,246c0,0,57,-82,107,-137c0,0,50,-55,115,-109H803c0,0,-30,0,-104,83c0,0,-73,83,-149,202L442,461V246c0,0,0,-81,9,-136c0,0,10,-56,32,-110Z" 
id="f1_1h"
transform="scale(0.001,-0.001)" />

<path d="M406,0V763H155V870h2c16,0,114,2,178,48c0,0,70,51,104,157H549V0Z" 
id="f2_k"
transform="scale(0.001,-0.001)" />

<path d="M133,0V162H292V0Z" 
id="f2_h"
transform="scale(0.001,-0.001)" />

<path d="M17,0L389,412L201,800H376L500,518L742,800H904L554,410L750,0H580L448,303L187,0Z" 
id="f3_2j"
transform="scale(0.001,-0.001)" />

<path d="M60,174V286H832V174Zm0,309V595H832V483Z" 
id="f2_w"
transform="scale(0.001,-0.001)" />

<path d="M0,368V478H849V368Z" 
id="f2_99"
transform="scale(0.001,-0.001)" />

<path d="M212,0c0,0,51,270,162,500c0,0,109,222,281,422H57v131H799V934C799,934,623,726,515,498C515,498,408,269,362,0Z" 
id="f2_q"
transform="scale(0.001,-0.001)" />

<path d="M-24,-29L348,1125H450L77,-29Z" 
id="f2_i"
transform="scale(0.001,-0.001)" />

<path d="M39,0V0c0,0,0,170,84,277c0,0,85,108,317,236c0,0,113,62,154,115c0,0,41,52,41,134c0,0,0,86,-62,141c0,0,-61,54,-156,54c0,0,-101,0,-158,-68c0,0,-57,-68,-60,-194H67c0,0,-2,178,95,279c0,0,98,101,273,101c0,0,149,0,245,-89c0,0,94,-88,94,-228c0,0,0,-118,-60,-195c0,0,-61,-76,-229,-169C485,394,303,294,237,212c0,0,-28,-36,-46,-81H774V0Z" 
id="f2_l"
transform="scale(0.001,-0.001)" />

<path d="M773,597c0,0,120,0,185,67c0,0,65,66,65,188c0,0,0,57,-42,88c0,0,-43,31,-119,31H483L406,597ZM134,0L361,1097H900c0,0,134,0,208,-55c0,0,73,-55,74,-156c0,0,0,-171,-116,-280c0,0,-44,-41,-96,-66c0,0,30,-13,50,-31c0,0,57,-55,35,-179L1020,133c0,0,-9,-48,-3,-70c0,0,6,-21,32,-39L1045,1H865c0,0,-1,30,5,87c0,0,6,58,15,111l14,81c0,0,19,102,-17,147c0,0,-36,44,-134,44H380L283,0Z" 
id="f3_1h"
transform="scale(0.001,-0.001)" />

<path d="M424,-28c0,0,-180,0,-272,86c0,0,-92,87,-100,266H192c0,0,12,-126,66,-180c0,0,55,-54,170,-54c0,0,100,0,163,57c0,0,64,57,64,147c0,0,0,94,-61,149c0,0,-52,48,-135,54c0,0,-38,2,-72,2c0,0,-34,0,-45,-3V613c0,0,17,-3,51,-3c0,0,35,0,68,4c0,0,66,8,106,43c0,0,55,45,55,125c0,0,0,77,-58,125c0,0,-58,48,-148,48c0,0,-96,0,-147,-58c0,0,-51,-59,-56,-175H82c0,0,0,168,89,260c0,0,88,93,250,93c0,0,153,0,247,-77c0,0,94,-76,94,-202c0,0,0,-124,-95,-201c0,0,-18,-15,-39,-27c0,0,39,-17,69,-41c0,0,101,-79,101,-214c0,0,0,-151,-105,-246c0,0,-104,-95,-269,-95Z" 
id="f2_m"
transform="scale(0.001,-0.001)" />

<path d="M511,373V863L169,383l-7,-10ZM511,0V258H38V383l496,691H646V373H799V258H646V0Z" 
id="f2_n"
transform="scale(0.001,-0.001)" />

<path d="M432,92c0,0,96,0,156,66c0,0,61,65,61,169c0,0,0,103,-61,169c0,0,-60,66,-156,66c0,0,-95,0,-156,-66c0,0,-61,-66,-61,-169c0,0,0,-104,61,-169c0,0,61,-66,156,-66ZM425,-28c0,0,-176,0,-271,135c0,0,-95,136,-95,388c0,0,0,278,103,429c0,0,103,151,293,151c0,0,142,0,226,-77c0,0,84,-76,90,-211H638c0,0,-8,80,-56,123c0,0,-47,43,-127,43c0,0,-125,0,-192,-119c0,0,-58,-102,-64,-278c0,0,100,127,255,127c0,0,152,0,245,-98c0,0,93,-98,93,-258c0,0,0,-161,-101,-259c0,0,-101,-96,-266,-96Z" 
id="f2_p"
transform="scale(0.001,-0.001)" />

<path d="M133,-224v71c0,0,47,8,65,52c0,0,14,33,17,101H133V163H292V27c0,0,0,-114,-36,-172c0,0,-37,-58,-123,-79Z" 
id="f2_f"
transform="scale(0.001,-0.001)" />

<path d="M417,-28c0,0,-161,0,-259,79c0,0,-98,81,-109,223H189c0,0,11,-90,72,-139c0,0,61,-49,162,-49c0,0,96,0,158,68c0,0,61,68,61,175c0,0,0,112,-64,178c0,0,-64,66,-173,66c0,0,-59,0,-115,-28c0,0,-55,-29,-84,-73L93,480l77,573H727V922H271L225,629l4,3c0,0,89,60,188,60c0,0,169,0,269,-94c0,0,99,-93,99,-253c0,0,0,-165,-103,-269C682,76,579,-28,417,-28Z" 
id="f2_o"
transform="scale(0.001,-0.001)" />

<path d="M575,590c0,0,115,0,169,48c0,0,54,49,54,154c0,0,0,92,-54,135c0,0,-54,43,-169,43H280V590ZM131,0V1097H611c0,0,160,0,249,-80c0,0,90,-80,90,-222c0,0,0,-156,-90,-244c0,0,-89,-88,-249,-88c0,0,-34,0,-82,0c-72,0,-177,0,-249,-1V0Z" 
id="f2_1f"
transform="scale(0.001,-0.001)" />

<path d="M424,94c0,0,107,0,169,83c0,0,63,83,63,223c0,0,0,140,-63,224c0,0,-62,83,-169,83c0,0,-106,0,-168,-83c0,0,-62,-84,-62,-224c0,0,0,-140,62,-223c0,0,62,-83,168,-83Zm0,-114c0,0,-165,0,-268,115C156,95,54,211,54,400c0,0,0,189,102,306c0,0,103,116,268,116c0,0,168,0,270,-116c0,0,102,-117,102,-306c0,0,0,-189,-102,-305C694,95,592,-20,424,-20Z" 
id="f2_2a"
transform="scale(0.001,-0.001)" />

<path d="M104,0V799H238V0Zm-2,946v152H239V946Z" 
id="f2_24"
transform="scale(0.001,-0.001)" />

<path d="M99,0V799H226V681l30,39c0,0,87,102,219,102c0,0,132,0,203,-71c0,0,72,-72,72,-204V0H616V502c0,0,0,105,-41,151c0,0,-40,47,-132,47c0,0,-97,0,-154,-73c0,0,-56,-74,-56,-199V0Z" 
id="f2_29"
transform="scale(0.001,-0.001)" />

<path d="M292,-9c0,0,-88,0,-124,38c0,0,-36,39,-36,134V689H22V799H132v224H266V799H392V689H266V163c0,0,0,-27,21,-43c0,0,21,-15,57,-15h48V1C392,1,324,-9,292,-9Z" 
id="f2_2f"
transform="scale(0.001,-0.001)" />

<path d="M393,-20c0,0,-169,0,-252,65c0,0,-83,67,-92,210H178c0,0,10,-85,61,-123c0,0,50,-38,154,-38c0,0,90,0,136,34c0,0,47,35,47,100c0,0,0,42,-31,64c0,0,-30,21,-123,43L283,368c0,0,-112,27,-160,75c0,0,-48,48,-48,135c0,0,0,112,80,178c0,0,81,66,218,66c0,0,140,0,222,-68c0,0,82,-67,88,-187H557c0,0,-6,67,-55,103c0,0,-48,37,-129,37c0,0,-84,0,-127,-29c0,0,-44,-29,-44,-85c0,0,0,-43,31,-65c0,0,30,-21,121,-43L493,452c0,0,117,-28,167,-78c0,0,49,-49,49,-138c0,0,0,-119,-86,-188c0,0,-85,-68,-230,-68Z" 
id="f2_2e"
transform="scale(0.001,-0.001)" />

<path d="M132,0V687H22V799H132V935c0,0,0,88,52,133c0,0,52,45,157,45l59,-3V989l-53,2c0,0,-39,0,-60,-24c0,0,-21,-25,-21,-71V799H400V687H266V0Z" 
id="f2_21"
transform="scale(0.001,-0.001)" />

<path d="M411,93c0,0,98,0,158,73c0,0,60,74,60,195c0,0,0,163,-57,252c0,0,-56,88,-161,88c0,0,-113,0,-165,-72c0,0,-52,-72,-52,-229c0,0,0,-147,56,-227c0,0,56,-80,161,-80ZM404,-20c0,0,-161,0,-255,118c0,0,-95,120,-95,324c0,0,0,179,92,290c0,0,91,110,239,110c0,0,147,0,233,-124l11,-15v414H763V0H638V109L621,84C621,84,538,-20,404,-20Z" 
id="f2_1z"
transform="scale(0.001,-0.001)" />

<path d="M394,-20c0,0,-159,0,-253,113c0,0,-95,114,-95,307c0,0,0,193,98,308c0,0,98,114,264,114c0,0,144,0,230,-78c0,0,85,-79,91,-217H600c0,0,-8,86,-59,133c0,0,-52,47,-138,47c0,0,-101,0,-159,-82c0,0,-58,-82,-58,-225c0,0,0,-152,54,-229c0,0,53,-77,159,-77c0,0,79,0,132,50c0,0,52,51,69,143H729C729,287,709,137,623,58c0,0,-86,-78,-229,-78Z" 
id="f2_1y"
transform="scale(0.001,-0.001)" />

<path d="M375,-20c0,0,-136,0,-203,66c0,0,-68,68,-68,204V799H238V284c0,0,0,-101,38,-146c0,0,39,-44,127,-44c0,0,97,0,153,75c0,0,57,75,57,203V799H747V0H620V122c0,0,-14,-22,-30,-41C590,81,504,-20,375,-20Z" 
id="f2_2g"
transform="scale(0.001,-0.001)" />

<path d="M152,-323c-8,0,-38,1,-63,8v125c0,0,30,-11,77,-12c0,0,45,0,76,37c0,0,30,38,69,140l2,12v1L17,799H170L383,139L600,799H747L443,-25c0,0,-70,-184,-125,-241c0,0,-55,-57,-164,-57c0,0,-1,0,-2,0Z" 
id="f2_2k"
transform="scale(0.001,-0.001)" />

<path d="M131,0L274,688H168l23,112H296l26,125c0,0,20,98,82,143c0,0,62,46,176,46c0,0,33,0,59,-5L609,990c0,0,0,3,-53,3c0,0,-45,0,-70,-25c0,0,-25,-25,-37,-83L431,800H575L553,688H409L266,0Z" 
id="f3_21"
transform="scale(0.001,-0.001)" />

<path d="M365,-315c0,0,-136,187,-199,359c0,0,-62,172,-62,359c0,0,0,186,62,358c0,0,63,172,199,360h92c0,0,-110,-192,-160,-365c0,0,-51,-172,-51,-353c0,0,0,-183,51,-355c0,0,50,-172,160,-363Z" 
id="f2_b"
transform="scale(0.001,-0.001)" />

<path d="M52,-315c0,0,109,192,160,363c0,0,50,173,50,354c0,0,0,183,-50,355c0,0,-51,173,-160,364h92c0,0,135,-188,198,-360c0,0,63,-172,63,-359c0,0,0,-187,-63,-359c0,0,-63,-171,-198,-358Z" 
id="f2_c"
transform="scale(0.001,-0.001)" />

<path d="M335,90c0,0,106,0,179,57c0,0,50,41,67,91c0,0,3,10,4,31c0,0,3,21,3,47v87c0,0,-38,-18,-83,-25L381,360c0,0,-97,-13,-142,-45c0,0,-44,-31,-44,-86c0,0,0,-67,36,-103c0,0,37,-36,104,-36ZM309,-20c0,0,-117,0,-186,61c0,0,-68,63,-68,169c0,0,0,108,64,171c0,0,65,64,189,79l183,23c0,0,22,3,42,8c0,0,26,7,40,27c0,0,15,20,15,51v6c0,0,0,64,-49,101c0,0,-48,36,-135,36c0,0,-83,0,-130,-38c0,0,-46,-39,-56,-115H94c0,0,10,131,92,197c0,0,83,66,238,66c0,0,145,0,222,-63c0,0,76,-63,76,-184V137c0,0,0,-21,12,-33c0,0,12,-12,33,-12c0,0,6,0,18,1c0,0,11,2,25,5V1c0,0,-20,-7,-41,-11c0,0,-22,-5,-37,-5c0,0,-76,0,-110,41c0,0,-22,28,-32,79c0,0,-15,-19,-34,-36c0,0,-101,-89,-247,-89Z" 
id="f2_1w"
transform="scale(0.001,-0.001)" />

<path d="M118,0V799H246V662c0,0,17,32,36,58c0,0,76,102,187,102c0,0,19,0,38,-6V679l-27,1c0,0,-109,0,-168,-66c0,0,-60,-65,-60,-186V0Z" 
id="f2_2d"
transform="scale(0.001,-0.001)" />

<path d="M649,461c0,0,-6,111,-55,172c0,0,-55,69,-160,69c0,0,-106,0,-170,-79c0,0,-50,-62,-60,-162ZM425,-20c0,0,-169,0,-266,106c0,0,-97,107,-97,297c0,0,0,201,102,320c0,0,103,119,276,119c0,0,157,0,253,-116c0,0,96,-117,96,-306l-1,-48H204c0,0,8,-119,54,-182c0,0,57,-76,180,-76c0,0,77,0,134,43c0,0,58,43,70,110H775C775,247,746,116,656,47c0,0,-90,-67,-231,-67Z" 
id="f2_20"
transform="scale(0.001,-0.001)" />

<path d="M102,0L267,800H402L237,0ZM300,946l31,151H467L436,946Z" 
id="f3_24"
transform="scale(0.001,-0.001)" />

<path d="M133,0l33,162H326L292,0Z" 
id="f3_h"
transform="scale(0.001,-0.001)" />

<path d="M748,462c0,0,3,31,3,63c0,0,0,86,-45,132c0,0,-46,45,-134,45c0,0,-100,0,-180,-85c0,0,-58,-63,-90,-155ZM419,-20c0,0,-136,0,-213,73c0,0,-77,74,-78,206c0,0,0,25,4,58c0,0,4,32,10,63c0,0,44,208,169,326c0,0,125,117,305,117c0,0,128,0,198,-73c0,0,71,-73,71,-207c0,0,1,-100,-24,-189H278l-4,-25c0,0,-3,-30,-3,-55c0,0,0,-90,44,-134c0,0,44,-45,133,-45c0,0,87,0,156,44c0,0,68,45,95,117H830C830,256,782,126,674,52c0,0,-108,-72,-255,-72Z" 
id="f3_20"
transform="scale(0.001,-0.001)" />

<path d="M436,95c0,0,105,0,160,79c0,0,54,80,54,232c0,0,0,150,-52,222c0,0,-52,72,-161,72c0,0,-112,0,-163,-81c0,0,-51,-82,-51,-258c0,0,0,-127,55,-197c0,0,55,-69,158,-69ZM89,-315V799H216V685l7,10c0,0,86,127,228,127c0,0,156,0,248,-108c0,0,91,-107,91,-291c0,0,0,-208,-92,-326C698,97,606,-20,442,-20c0,0,-135,0,-215,102l-4,6V-315Z" 
id="f2_2b"
transform="scale(0.001,-0.001)" />

<path d="M105,0L332,1097H574L856,320l161,777h213L1003,0H776L481,789L319,0Z" 
id="f4_1d"
transform="scale(0.001,-0.001)" />

<path d="M503,158c0,0,97,0,159,64c0,0,61,65,88,193c0,0,5,21,7,42c0,0,2,21,2,38c0,0,0,75,-40,117c0,0,-40,41,-114,41c0,0,-96,0,-158,-65c0,0,-62,-65,-90,-196c0,0,-4,-20,-6,-41c0,0,-3,-20,-2,-37c0,0,0,-74,40,-115c0,0,40,-41,114,-41ZM466,-20c0,0,-157,0,-249,82c0,0,-91,83,-92,226c0,0,0,25,4,56c0,0,3,30,9,59c0,0,41,197,177,314c0,0,136,116,328,116c0,0,157,0,248,-84c0,0,92,-84,92,-229c0,0,0,-25,-4,-57c0,0,-4,-31,-10,-60C969,403,929,207,793,93C793,93,657,-20,466,-20Z" 
id="f4_2a"
transform="scale(0.001,-0.001)" />

<path d="M339,-9c0,0,-116,0,-156,38c0,0,-40,40,-21,135L265,659H154l32,153H297l44,219H555L511,812H640L608,659H479L384,201c0,0,-5,-25,11,-37c0,0,16,-11,58,-11l51,2L471,-5c0,0,-52,-4,-132,-4Z" 
id="f4_2f"
transform="scale(0.001,-0.001)" />

<path d="M692,491l1,28c0,0,0,70,-33,104c0,0,-34,34,-101,34c0,0,-86,0,-143,-66c0,0,-33,-39,-56,-100ZM435,-20c0,0,-159,0,-244,73c0,0,-84,75,-84,216c0,0,0,30,4,64c0,0,4,35,11,70c0,0,41,202,167,316c0,0,126,114,307,114c0,0,153,0,231,-75c0,0,78,-74,78,-219c0,0,0,-36,-4,-77c0,0,-5,-41,-14,-85l-5,-26H325l-1,-10c0,0,-3,-23,-3,-43c0,0,0,-74,38,-111c0,0,37,-36,112,-36c0,0,55,0,99,23c0,0,45,24,64,62H851C851,236,794,117,682,48c0,0,-113,-68,-247,-68Z" 
id="f4_20"
transform="scale(0.001,-0.001)" />

<path d="M140,0l46,222H415L370,0ZM256,559l45,222H530L485,559Z" 
id="f4_t"
transform="scale(0.001,-0.001)" />

<path d="M682,450L513,936L337,450ZM22,0L436,1097H605L999,0H839L728,319H290L175,0Z" 
id="f2_10"
transform="scale(0.001,-0.001)" />

<path d="M96,-299V1104H382V995H217V-191H382V-299Z" 
id="f2_1q"
transform="scale(0.001,-0.001)" />

<path d="M42,-299v108H207V995H42v109H329V-299Z" 
id="f2_1s"
transform="scale(0.001,-0.001)" />

<path d="M436,95c0,0,105,0,160,79c0,0,54,80,54,232c0,0,0,150,-52,222c0,0,-52,72,-161,72c0,0,-112,0,-163,-81c0,0,-51,-82,-51,-258c0,0,0,-127,55,-197c0,0,55,-69,158,-69Zm6,-115c0,0,-135,0,-215,102L215,98V0H89V1097H223V695c0,0,87,127,225,127c1,0,2,0,2,0c0,0,157,0,249,-108c0,0,91,-107,91,-291c0,0,0,-208,-92,-326C698,97,606,-20,442,-20Z" 
id="f2_1x"
transform="scale(0.001,-0.001)" />

<path d="M412,-328c0,0,-195,96,-303,284C109,-44,0,142,0,365c0,0,0,232,114,422c0,0,114,191,298,273v-31c0,0,-92,-51,-151,-139c0,0,-59,-88,-88,-223c0,0,-29,-136,-29,-282c0,0,0,-167,27,-301c0,0,26,-133,82,-221c0,0,55,-89,159,-159v-32Z" 
id="f5_c"
transform="scale(0.001,-0.001)" />

<path d="M34,-328v32c0,0,92,50,151,138c0,0,59,88,88,222c0,0,29,135,29,283c0,0,0,165,-27,300c0,0,-26,134,-82,222c0,0,-56,89,-159,160v31c0,0,194,-96,303,-284c0,0,108,-187,108,-410c0,0,0,-232,-114,-422c0,0,-114,-191,-297,-272Z" 
id="f5_d"
transform="scale(0.001,-0.001)" />

<path d="M355,0V355H0v72H355V784h72V427H782V355H427V0Z" 
id="f5_f"
transform="scale(0.001,-0.001)" />

<path d="M968,-20c0,0,42,100,87,170c0,0,45,70,144,184H56v73H1199c0,0,-106,122,-148,189c0,0,-43,67,-83,166h60c0,0,87,-108,217,-218c0,0,130,-110,206,-154V349c0,0,-99,-56,-217,-159c0,0,-117,-102,-206,-210Z" 
id="f5_34"
transform="scale(0.001,-0.001)" />

<path d="M0,214v74H784V214ZM0,494v72H784V494Z" 
id="f5_x"
transform="scale(0.001,-0.001)" />

<path d="M103,0V1097H237V0Z" 
id="f2_27"
transform="scale(0.001,-0.001)" />

<path d="M99,0V799H226V680l28,36c0,0,90,106,215,106c0,0,107,0,171,-63c0,0,28,-28,44,-65l21,28c0,0,87,100,208,100c0,0,125,0,194,-68c0,0,68,-68,68,-194V0H1041V515c0,0,0,91,-37,138c0,0,-38,47,-110,47c0,0,-87,0,-139,-68c0,0,-52,-68,-52,-183V0H569V547c0,0,0,75,-34,114c0,0,-34,39,-99,39c0,0,-89,0,-146,-76c0,0,-57,-76,-57,-196V0Z" 
id="f2_28"
transform="scale(0.001,-0.001)" />

<path d="M620,-14c0,0,-52,0,-93,43c0,0,-41,45,-77,203L384,522L132,0H0L340,703l-12,66c0,0,-23,107,-61,146c0,0,-37,38,-83,38c0,0,-42,0,-74,-30c0,0,-31,-31,-41,-100H43c0,0,2,117,57,187c0,0,40,51,96,51c0,0,50,0,86,-40c0,0,54,-60,88,-213L489,283c0,0,27,-118,62,-153c0,0,33,-36,79,-36c0,0,43,0,71,29c0,0,28,29,33,94h30c0,0,1,-19,1,-29c0,0,0,-98,-49,-158c0,0,-37,-44,-96,-44Z" 
id="f5_28"
transform="scale(0.001,-0.001)" />

<path d="M102,0L329,1097H464L333,467L745,800H921L546,501L769,0H595L429,409L300,306L237,0Z" 
id="f3_26"
transform="scale(0.001,-0.001)" />

<path d="M424,92c0,0,98,0,161,58c0,0,62,58,62,149c0,0,0,92,-62,151c0,0,-63,58,-161,58c0,0,-98,0,-160,-58c0,0,-63,-59,-63,-151c0,0,0,-91,63,-149c0,0,62,-58,160,-58Zm0,533c0,0,82,0,134,46c0,0,52,45,52,118c0,0,0,72,-52,118c0,0,-52,46,-134,46c0,0,-82,0,-134,-46c0,0,-52,-46,-52,-118c0,0,0,-73,52,-119c0,0,52,-45,134,-45Zm0,-653c0,0,-165,0,-265,90C159,62,59,154,59,305c0,0,0,134,100,216c0,0,35,28,78,47c0,0,-27,15,-52,33c0,0,-90,70,-90,185c0,0,0,130,90,209c0,0,91,80,239,80c0,0,148,0,238,-80c0,0,91,-79,91,-209c0,0,0,-115,-91,-185c0,0,-24,-19,-52,-32c0,0,44,-20,79,-49c0,0,101,-81,101,-215c0,0,0,-151,-101,-243c0,0,-100,-90,-265,-90Z" 
id="f2_r"
transform="scale(0.001,-0.001)" />

<path d="M419,483c0,0,93,0,152,66c0,0,59,66,59,169c0,0,0,103,-59,169c0,0,-59,65,-152,65c0,0,-94,0,-153,-65c0,0,-59,-66,-59,-169c0,0,0,-103,59,-169c0,0,59,-66,153,-66ZM397,-28c0,0,-143,0,-227,75c0,0,-85,77,-91,211H209c0,0,8,-83,57,-128c0,0,49,-45,131,-45c0,0,121,0,186,135c0,0,48,101,62,265C645,485,545,362,397,362c0,0,-150,0,-241,98c0,0,-91,98,-91,258c0,0,0,160,99,258c0,0,99,98,262,98c0,0,173,0,266,-123c0,0,94,-123,94,-349c0,0,0,-303,-101,-467C685,135,583,-28,397,-28Z" 
id="f2_s"
transform="scale(0.001,-0.001)" />

<path d="M424,92c0,0,114,0,170,107c0,0,57,108,56,323c0,0,1,216,-56,324c0,0,-56,107,-170,107c0,0,-112,0,-168,-107c0,0,-56,-108,-57,-324c0,0,1,-215,57,-323c0,0,56,-107,168,-107Zm0,-120c0,0,-176,0,-271,142c0,0,-96,143,-96,408c0,0,0,265,96,409c0,0,95,144,271,144c0,0,178,0,273,-144c0,0,96,-144,96,-409c0,0,0,-265,-96,-408c0,0,-95,-142,-273,-142Z" 
id="f2_j"
transform="scale(0.001,-0.001)" />

<path d="M418,95c0,0,98,0,158,73c0,0,59,73,59,193c0,0,0,170,-54,254c0,0,-54,85,-163,85c0,0,-113,0,-165,-72c0,0,-52,-71,-52,-227c0,0,0,-147,57,-227c0,0,56,-79,160,-79ZM394,-336c0,0,-136,0,-216,62c0,0,-79,63,-96,182H219c0,0,12,-64,57,-98c0,0,45,-35,116,-35c0,0,116,0,176,73c0,0,61,73,61,211V85l-1,-1C628,84,545,-20,412,-20c0,0,-161,0,-256,118c0,0,-94,120,-94,324c0,0,0,179,93,290c0,0,93,110,244,110c0,0,144,0,228,-124l10,-14V799H763V59c0,0,-1,-201,-91,-298c0,0,-91,-97,-278,-97Z" 
id="f2_22"
transform="scale(0.001,-0.001)" />

<path d="M310,0L12,799H168L383,145L604,799H752L454,0Z" 
id="f2_2h"
transform="scale(0.001,-0.001)" />

<path d="M0,356v74H784V356Z" 
id="f5_h"
transform="scale(0.001,-0.001)" />

<path d="M544,127c0,0,160,0,247,110c0,0,87,109,87,311c0,0,0,202,-84,312c0,0,-83,110,-237,110H273V127ZM124,0V1097H575c0,0,209,0,332,-149c0,0,124,-149,124,-400c0,0,0,-251,-127,-399C904,149,778,0,563,0Z" 
id="f2_13"
transform="scale(0.001,-0.001)" />

<path d="M564,-29c0,0,-227,0,-362,155C202,126,67,283,67,548c0,0,0,265,140,422c0,0,140,157,376,157c0,0,186,0,305,-95c0,0,120,-96,144,-263H889c0,0,-21,109,-101,168c0,0,-81,59,-207,59c0,0,-165,0,-263,-121c0,0,-98,-122,-98,-327c0,0,0,-219,91,-333c0,0,91,-114,263,-114c0,0,128,0,212,78c0,0,85,79,113,224h142c0,0,-28,-203,-155,-318C886,85,758,-29,564,-29Z" 
id="f2_12"
transform="scale(0.001,-0.001)" />

<path d="M103,0V1097H237V465L574,799H745L441,503L765,0H590L342,406L237,303V0Z" 
id="f2_26"
transform="scale(0.001,-0.001)" />

<path d="M354,90c0,0,107,0,192,57c0,0,60,41,87,95c0,0,5,12,11,33c0,0,6,20,11,44l18,88c0,0,-62,-26,-132,-37L414,352c0,0,-84,-11,-131,-56c0,0,-47,-45,-47,-113c0,0,0,-44,31,-69c0,0,31,-24,87,-24ZM306,-20c0,0,-99,0,-156,47c0,0,-57,49,-57,134c0,0,1,117,81,198c0,0,80,81,211,98l164,20l70,10c0,0,35,6,59,30c0,0,23,24,31,66l1,2c0,0,13,64,-25,94c0,0,-39,31,-132,31c0,0,-83,0,-137,-37c0,0,-54,-37,-84,-114H210c0,0,46,137,138,201c0,0,92,63,245,63c0,0,149,0,211,-59c0,0,45,-44,44,-116c0,0,1,-30,-6,-63L749,136c0,0,-4,-19,6,-32c0,0,10,-12,30,-12c0,0,6,0,19,1c0,0,12,2,25,5L809,1c0,0,-19,-6,-43,-11c0,0,-22,-5,-36,-5c0,0,-73,0,-100,43c0,0,-16,27,-17,75C612,102,594,85,573,69c0,0,-120,-89,-267,-89Z" 
id="f3_1w"
transform="scale(0.001,-0.001)" />

<path d="M456,95c0,0,130,0,213,121c0,0,82,120,82,310c0,0,0,85,-44,131c0,0,-44,46,-125,46c0,0,-98,0,-174,-90c0,0,-76,-90,-108,-245c0,0,-26,-126,16,-199c0,0,42,-74,140,-74ZM436,-20c0,0,-132,0,-195,108l-5,7L217,0H89L316,1097H450L365,683l10,11c0,0,120,129,262,129c0,0,121,0,190,-77c0,0,69,-77,69,-211c0,0,0,-234,-134,-395C762,140,629,-20,436,-20Z" 
id="f3_1x"
transform="scale(0.001,-0.001)" />

<path d="M454,95c0,0,129,0,212,121c0,0,82,120,82,310c0,0,0,85,-44,131c0,0,-44,46,-124,46c0,0,-98,0,-174,-90c0,0,-76,-90,-108,-245c0,0,-27,-126,16,-199c0,0,42,-74,140,-74ZM22,-315L251,800H378L352,672l21,22c0,0,120,129,262,129c0,0,120,0,189,-77c0,0,69,-77,69,-211c0,0,0,-234,-133,-395C760,140,627,-20,433,-20c0,0,-129,0,-194,106L157,-315Z" 
id="f3_2b"
transform="scale(0.001,-0.001)" />

<path d="M73,12V133L664,384L73,636V757L819,440V329L73,12Z" 
id="f2_x"
transform="scale(0.001,-0.001)" />

<path d="M99,-328c0,0,-46,0,-76,13l25,123c0,0,29,-14,81,-14c0,0,47,0,76,31c0,0,28,31,106,162L185,800H339L415,141L769,800H918L456,0C456,0,329,-216,269,-272c0,0,-61,-56,-170,-56Z" 
id="f3_2k"
transform="scale(0.001,-0.001)" />

<path d="M431,94c0,0,95,0,170,76c0,0,76,77,101,198c0,0,35,167,-1,250c0,0,-37,84,-144,84c0,0,-128,0,-210,-117c0,0,-81,-117,-81,-302c0,0,0,-90,43,-139c0,0,44,-50,122,-50ZM400,-20c0,0,-126,0,-199,79c0,0,-73,80,-73,219c0,0,0,234,122,390c0,0,122,155,305,155c0,0,144,0,209,-127l8,-16l86,417H993L767,0H638l22,108L642,90C642,90,532,-20,400,-20Z" 
id="f3_1z"
transform="scale(0.001,-0.001)" />

<path d="M415,-18c0,0,-149,0,-244,83c0,0,-94,84,-107,222l140,11c0,0,16,-103,73,-154c0,0,56,-52,137,-52c0,0,98,0,165,73c0,0,66,73,66,194c0,0,0,115,-64,182c0,0,-64,66,-169,66c0,0,-65,0,-117,-29c0,0,-52,-30,-82,-77L87,517l106,562H736V951H300L241,657c0,0,99,69,207,69c0,0,143,0,242,-100c0,0,98,-99,98,-255c0,0,0,-149,-86,-257C702,114,597,-18,415,-18Z" 
id="f6_p"
transform="scale(0.001,-0.001)" />

<path d="M125,0V1051H268V115H799V0Z" 
id="f0_1c"
transform="scale(0.001,-0.001)" />

<path d="M106,0V620c0,0,0,85,-5,188H228c0,0,6,-138,6,-165h3c0,0,32,103,74,141c0,0,42,38,118,38c0,0,27,0,54,-7V692c0,0,-26,7,-71,7c0,0,-84,0,-128,-72c0,0,-44,-72,-44,-206V0Z" 
id="f0_2e"
transform="scale(0.001,-0.001)" />

<path d="M606,-14c0,0,-164,0,-284,65c0,0,-119,66,-182,189c0,0,-63,123,-63,291c0,0,0,255,137,396c0,0,137,140,386,140c0,0,174,0,283,-59c0,0,109,-59,168,-189L915,779c0,0,-44,90,-123,131c0,0,-79,41,-196,41c0,0,-182,0,-278,-110c0,0,-96,-110,-96,-310c0,0,0,-200,102,-315c0,0,102,-115,282,-115c0,0,103,0,193,31c0,0,89,31,144,85V407H629V526h445V164c0,0,-83,-85,-205,-132c0,0,-121,-46,-263,-46Z" 
id="f0_17"
transform="scale(0.001,-0.001)" />

<path d="M355,-14c0,0,-133,0,-194,65c0,0,-62,66,-62,219V808H234V296c0,0,0,-80,16,-124c0,0,16,-44,50,-64c0,0,34,-19,101,-19c0,0,97,0,153,66c0,0,55,67,55,185V808H744V172c0,0,0,-141,4,-172H621c0,0,0,4,-1,20c0,0,-1,17,-2,38c0,0,-1,21,-3,80h-2C613,138,567,55,506,20c0,0,-61,-34,-151,-34Z" 
id="f0_2h"
transform="scale(0.001,-0.001)" />

<path d="M395,89c0,0,115,0,166,79c0,0,51,79,51,246c0,0,0,160,-51,235c0,0,-51,75,-164,75c0,0,-102,0,-147,-75c0,0,-45,-75,-45,-244c0,0,0,-170,45,-243c0,0,45,-73,145,-73ZM361,-14c0,0,-153,0,-225,102c0,0,-72,103,-72,312c0,0,0,422,297,422c0,0,92,0,153,-33c0,0,61,-34,98,-107h2l-2,90v335H747V166c0,0,0,-126,4,-166H623c0,0,-2,12,-5,55c0,0,-3,44,-3,75h-3c0,0,-37,-78,-98,-111c0,0,-62,-33,-153,-33Z" 
id="f0_20"
transform="scale(0.001,-0.001)" />

<path d="M140,0V163H285V0Z" 
id="f0_i"
transform="scale(0.001,-0.001)" />


</defs>
</svg>