<?xml version="1.0" encoding="UTF-8" standalone="no"?>
<!DOCTYPE svg PUBLIC "-//W3C//DTD SVG 1.1//EN"
"http://www.w3.org/Graphics/SVG/1.1/DTD/svg11.dtd">
<svg viewBox="0 0 696 1067" version="1.1" xmlns="http://www.w3.org/2000/svg" xmlns:xlink="http://www.w3.org/1999/xlink">
<defs>
<style type="text/css"><![CDATA[
.g0_31{
fill: none;
stroke: #000000;
stroke-width: 0.7638889;
stroke-linecap: round;
stroke-linejoin: miter;
}
]]></style>
</defs>
<g fill="#D4D4D4" fill-opacity="0.56" >
<use xlink:href="#f0_1f" transform="matrix(50.9,-50.9,50.9,50.9,84.5,924.1)" />
<use xlink:href="#f0_2a" transform="matrix(50.9,-50.9,50.9,50.9,145,863.6)" />
<use xlink:href="#f0_28" transform="matrix(50.9,-50.9,50.9,50.9,188.3,820.3)" />
<use xlink:href="#f0_25" transform="matrix(50.9,-50.9,50.9,50.9,205.5,803.1)" />
<use xlink:href="#f0_2a" transform="matrix(50.9,-50.9,50.9,50.9,222.8,785.8)" />
<use xlink:href="#f0_21" transform="matrix(50.9,-50.9,50.9,50.9,266,742.5)" />
<use xlink:href="#f0_2k" transform="matrix(50.9,-50.9,50.9,50.9,309.3,699.3)" />
<use xlink:href="#f0_1x" transform="matrix(50.9,-50.9,50.9,50.9,348.2,660.4)" />
<use xlink:href="#f0_29" transform="matrix(50.9,-50.9,50.9,50.9,391.4,617.2)" />
<use xlink:href="#f0_2c" transform="matrix(50.9,-50.9,50.9,50.9,456.2,552.4)" />
<use xlink:href="#f0_2b" transform="matrix(50.9,-50.9,50.9,50.9,499.5,509.1)" />
<use xlink:href="#f0_25" transform="matrix(50.9,-50.9,50.9,50.9,542.7,465.9)" />
<use xlink:href="#f0_2a" transform="matrix(50.9,-50.9,50.9,50.9,560,448.6)" />
<use xlink:href="#f0_2g" transform="matrix(50.9,-50.9,50.9,50.9,603.2,405.4)" />
</g>
<g fill="#000000" >
<use xlink:href="#f1_p" transform="matrix(10.4,0,0,10.4,68.3,113.9)" />
<use xlink:href="#f1_m" transform="matrix(10.4,0,0,10.4,77.2,113.9)" />
<use xlink:href="#f1_h" transform="matrix(10.4,0,0,10.4,86.3,113.9)" />
<use xlink:href="#f1_18" transform="matrix(10.4,0,0,10.4,109,113.9)" />
<use xlink:href="#f1_21" transform="matrix(10.4,0,0,10.4,113.4,113.9)" />
</g>
<path d="M274.6,93.5H284m-83.1,30.6h9.5" class="g0_31" />
<g fill="#000000" >
<use xlink:href="#f1_l" transform="matrix(7.9,0,0,7.9,276.1,104.7)" />
<use xlink:href="#f1_l" transform="matrix(7.9,0,0,7.9,202.3,135.2)" />
<use xlink:href="#f1_j" transform="matrix(10.5,0,0,10.6,187.8,97.8)" />
<use xlink:href="#f1_2f" transform="matrix(10.5,0,0,10.6,247.6,97.8)" />
<use xlink:href="#f1_1w" transform="matrix(10.5,0,0,10.6,252.4,97.8)" />
<use xlink:href="#f1_29" transform="matrix(10.5,0,0,10.6,261.7,97.8)" />
<use xlink:href="#f1_1w" transform="matrix(10.5,0,0,10.6,300.4,113)" />
<use xlink:href="#f1_29" transform="matrix(10.5,0,0,10.6,309.7,113)" />
<use xlink:href="#f1_1z" transform="matrix(10.5,0,0,10.6,319,113)" />
<use xlink:href="#f1_24" transform="matrix(10.5,0,0,10.6,350,113)" />
<use xlink:href="#f1_2e" transform="matrix(10.5,0,0,10.6,353.8,113)" />
<use xlink:href="#f1_2f" transform="matrix(10.5,0,0,10.6,369.7,113)" />
<use xlink:href="#f1_23" transform="matrix(10.5,0,0,10.6,374.5,113)" />
<use xlink:href="#f1_20" transform="matrix(10.5,0,0,10.6,383.8,113)" />
<use xlink:href="#f1_24" transform="matrix(10.5,0,0,10.6,399.7,113)" />
<use xlink:href="#f1_1z" transform="matrix(10.5,0,0,10.6,403.5,113)" />
<use xlink:href="#f1_20" transform="matrix(10.5,0,0,10.6,412.8,113)" />
<use xlink:href="#f1_29" transform="matrix(10.5,0,0,10.6,422.1,113)" />
<use xlink:href="#f1_2f" transform="matrix(10.5,0,0,10.6,431.4,113)" />
<use xlink:href="#f1_24" transform="matrix(10.5,0,0,10.6,436.2,113)" />
<use xlink:href="#f1_2f" transform="matrix(10.5,0,0,10.6,440,113)" />
<use xlink:href="#f1_2k" transform="matrix(10.5,0,0,10.6,444.8,113)" />
<use xlink:href="#f1_2f" transform="matrix(10.5,0,0,10.6,173.8,128.4)" />
<use xlink:href="#f1_1w" transform="matrix(10.5,0,0,10.6,178.6,128.4)" />
<use xlink:href="#f1_29" transform="matrix(10.5,0,0,10.6,187.9,128.4)" />
<use xlink:href="#f1_j" transform="matrix(10.5,0,0,10.6,254.8,128.4)" />
<use xlink:href="#f2_1x" transform="matrix(7.9,0,0,7.9,275.3,91.6)" />
<use xlink:href="#f2_1x" transform="matrix(7.9,0,0,7.9,201.5,122.2)" />
<use xlink:href="#f2_4r" transform="matrix(10.6,0,0,10.6,165.8,96)" />
<use xlink:href="#f2_57" transform="matrix(10.6,0,0,10.6,286.5,96)" />
<use xlink:href="#f2_h" transform="matrix(10.6,0,0,10.6,234.1,97.8)" />
<use xlink:href="#f2_4s" transform="matrix(10.6,0,0,10.6,165.8,111.6)" />
<use xlink:href="#f2_58" transform="matrix(10.6,0,0,10.6,286.5,111.6)" />
<use xlink:href="#f2_x" transform="matrix(10.6,0,0,10.6,148.1,113)" />
<use xlink:href="#f2_4s" transform="matrix(10.6,0,0,10.6,165.8,126.9)" />
<use xlink:href="#f2_58" transform="matrix(10.6,0,0,10.6,286.5,126.9)" />
<use xlink:href="#f2_4t" transform="matrix(10.6,0,0,10.6,165.8,135.1)" />
<use xlink:href="#f2_59" transform="matrix(10.6,0,0,10.6,286.5,135.1)" />
<use xlink:href="#f3_10" transform="matrix(10.5,0,0,10.6,128.6,113)" />
<use xlink:href="#f4_19" transform="matrix(10.5,0,0,10.6,335.9,113)" />
<use xlink:href="#f1_28" transform="matrix(10.4,0,0,10.4,456.1,113.9)" />
<use xlink:href="#f1_1w" transform="matrix(10.4,0,0,10.4,469.3,113.9)" />
<use xlink:href="#f1_2f" transform="matrix(10.4,0,0,10.4,478.2,113.9)" />
<use xlink:href="#f1_2d" transform="matrix(10.4,0,0,10.4,482.6,113.9)" />
<use xlink:href="#f1_24" transform="matrix(10.4,0,0,10.4,488,113.9)" />
<use xlink:href="#f1_2j" transform="matrix(10.4,0,0,10.4,491.5,113.9)" />
<use xlink:href="#f1_2a" transform="matrix(10.4,0,0,10.4,507.9,113.9)" />
<use xlink:href="#f1_21" transform="matrix(10.4,0,0,10.4,516.8,113.9)" />
<use xlink:href="#f1_2a" transform="matrix(10.4,0,0,10.4,529.5,113.9)" />
<use xlink:href="#f1_2d" transform="matrix(10.4,0,0,10.4,538.3,113.9)" />
<use xlink:href="#f1_1z" transform="matrix(10.4,0,0,10.4,543.6,113.9)" />
<use xlink:href="#f1_20" transform="matrix(10.4,0,0,10.4,552.5,113.9)" />
<use xlink:href="#f1_2d" transform="matrix(10.4,0,0,10.4,561.4,113.9)" />
<use xlink:href="#f1_l" transform="matrix(10.4,0,0,10.4,575.1,113.9)" />
<use xlink:href="#f1_f" transform="matrix(10.4,0,0,10.4,584,113.9)" />
<use xlink:href="#f1_2e" transform="matrix(10.4,0,0,10.4,596.9,113.9)" />
<use xlink:href="#f1_23" transform="matrix(10.4,0,0,10.4,604.8,113.9)" />
<use xlink:href="#f1_2a" transform="matrix(10.4,0,0,10.4,613.7,113.9)" />
<use xlink:href="#f1_2i" transform="matrix(10.4,0,0,10.4,622.6,113.9)" />
<use xlink:href="#f1_2f" transform="matrix(10.4,0,0,10.4,109,147.7)" />
<use xlink:href="#f1_23" transform="matrix(10.4,0,0,10.4,113.4,147.7)" />
<use xlink:href="#f1_1w" transform="matrix(10.4,0,0,10.4,122.3,147.7)" />
<use xlink:href="#f1_2f" transform="matrix(10.4,0,0,10.4,131.2,147.7)" />
<use xlink:href="#f1_f" transform="matrix(10.4,0,0,10.4,135.6,147.7)" />
<use xlink:href="#f2_c" transform="matrix(10.4,0,0,11.2,233.1,198.8)" />
<use xlink:href="#f2_d" transform="matrix(10.4,0,0,11.2,282.7,198.8)" />
<use xlink:href="#f1_1y" transform="matrix(10.5,0,0,10.5,299.9,189.1)" />
<use xlink:href="#f1_2a" transform="matrix(10.5,0,0,10.5,308.2,189.1)" />
<use xlink:href="#f1_2e" transform="matrix(10.5,0,0,10.5,317.4,189.1)" />
<use xlink:href="#f1_2e" transform="matrix(10.5,0,0,10.5,376.3,189.1)" />
<use xlink:href="#f1_24" transform="matrix(10.5,0,0,10.5,384.6,189.1)" />
<use xlink:href="#f1_29" transform="matrix(10.5,0,0,10.5,388.4,189.1)" />
<use xlink:href="#f1_2e" transform="matrix(10.5,0,0,10.5,302.5,213.2)" />
<use xlink:href="#f1_24" transform="matrix(10.5,0,0,10.5,310.8,213.2)" />
<use xlink:href="#f1_29" transform="matrix(10.5,0,0,10.5,314.5,213.2)" />
<use xlink:href="#f1_1y" transform="matrix(10.5,0,0,10.5,367,213.2)" />
<use xlink:href="#f1_2a" transform="matrix(10.5,0,0,10.5,375.3,213.2)" />
<use xlink:href="#f1_2e" transform="matrix(10.5,0,0,10.5,384.6,213.2)" />
<use xlink:href="#f2_1x" transform="matrix(10.5,0,0,10.5,329.4,189.1)" />
<use xlink:href="#f2_h" transform="matrix(10.5,0,0,10.5,363.2,189.1)" />
<use xlink:href="#f2_1x" transform="matrix(10.5,0,0,10.5,400.5,189.1)" />
<use xlink:href="#f2_4r" transform="matrix(10.5,0,0,10.5,292.1,190.3)" />
<use xlink:href="#f2_57" transform="matrix(10.5,0,0,10.5,413,190.3)" />
<use xlink:href="#f2_f" transform="matrix(10.5,0,0,10.5,181,200.9)" />
<use xlink:href="#f2_x" transform="matrix(10.5,0,0,10.5,216.3,200.9)" />
<use xlink:href="#f2_h" transform="matrix(10.5,0,0,10.5,254.3,200.9)" />
<use xlink:href="#f2_4s" transform="matrix(10.5,0,0,10.5,292.1,205.8)" />
<use xlink:href="#f2_58" transform="matrix(10.5,0,0,10.5,413,205.8)" />
<use xlink:href="#f2_1x" transform="matrix(10.5,0,0,10.5,326.7,213.2)" />
<use xlink:href="#f2_1x" transform="matrix(10.5,0,0,10.5,396.5,213.2)" />
<use xlink:href="#f2_4t" transform="matrix(10.5,0,0,10.5,292.1,216.5)" />
<use xlink:href="#f2_59" transform="matrix(10.5,0,0,10.5,413,216.5)" />
<use xlink:href="#f3_10" transform="matrix(10.5,0,0,10.5,196.9,200.9)" />
<use xlink:href="#f3_10" transform="matrix(10.5,0,0,10.5,270,200.9)" />
<use xlink:href="#f4_19" transform="matrix(10.5,0,0,10.5,167.3,200.9)" />
<use xlink:href="#f4_19" transform="matrix(10.5,0,0,10.5,240.6,200.9)" />
<use xlink:href="#f1_p" transform="matrix(10.4,0,0,10.4,68.3,251.2)" />
<use xlink:href="#f1_n" transform="matrix(10.4,0,0,10.4,77.2,251.2)" />
<use xlink:href="#f1_h" transform="matrix(10.4,0,0,10.4,86.3,251.2)" />
<use xlink:href="#f1_1k" transform="matrix(10.4,0,0,10.4,109,251.2)" />
<use xlink:href="#f1_2e" transform="matrix(10.4,0,0,10.4,120.5,251.2)" />
<use xlink:href="#f1_20" transform="matrix(10.4,0,0,10.4,128.5,251.2)" />
<use xlink:href="#f1_28" transform="matrix(10.4,0,0,10.4,144,251.2)" />
<use xlink:href="#f1_1w" transform="matrix(10.4,0,0,10.4,157.3,251.2)" />
<use xlink:href="#f1_2f" transform="matrix(10.4,0,0,10.4,166.1,251.2)" />
<use xlink:href="#f1_2d" transform="matrix(10.4,0,0,10.4,170.6,251.2)" />
<use xlink:href="#f1_24" transform="matrix(10.4,0,0,10.4,175.9,251.2)" />
<use xlink:href="#f1_2j" transform="matrix(10.4,0,0,10.4,179.4,251.2)" />
<use xlink:href="#f1_28" transform="matrix(10.4,0,0,10.4,194.2,251.2)" />
<use xlink:href="#f1_20" transform="matrix(10.4,0,0,10.4,207.5,251.2)" />
<use xlink:href="#f1_2f" transform="matrix(10.4,0,0,10.4,216.3,251.2)" />
<use xlink:href="#f1_23" transform="matrix(10.4,0,0,10.4,220.8,251.2)" />
<use xlink:href="#f1_2a" transform="matrix(10.4,0,0,10.4,229.6,251.2)" />
<use xlink:href="#f1_1z" transform="matrix(10.4,0,0,10.4,238.5,251.2)" />
<use xlink:href="#f1_2f" transform="matrix(10.4,0,0,10.4,254,251.2)" />
<use xlink:href="#f1_2a" transform="matrix(10.4,0,0,10.4,258.4,251.2)" />
<use xlink:href="#f1_2e" transform="matrix(10.4,0,0,10.4,273.9,251.2)" />
<use xlink:href="#f1_2a" transform="matrix(10.4,0,0,10.4,281.8,251.2)" />
<use xlink:href="#f1_27" transform="matrix(10.4,0,0,10.4,290.7,251.2)" />
<use xlink:href="#f1_2h" transform="matrix(10.4,0,0,10.4,294.3,251.2)" />
<use xlink:href="#f1_20" transform="matrix(10.4,0,0,10.4,302.2,251.2)" />
<use xlink:href="#f1_2f" transform="matrix(10.4,0,0,10.4,317.7,251.2)" />
<use xlink:href="#f1_23" transform="matrix(10.4,0,0,10.4,322.1,251.2)" />
<use xlink:href="#f1_20" transform="matrix(10.4,0,0,10.4,331,251.2)" />
<use xlink:href="#f1_21" transform="matrix(10.4,0,0,10.4,346.6,251.2)" />
<use xlink:href="#f1_2a" transform="matrix(10.4,0,0,10.4,351.1,251.2)" />
<use xlink:href="#f1_27" transform="matrix(10.4,0,0,10.4,360,251.2)" />
<use xlink:href="#f1_27" transform="matrix(10.4,0,0,10.4,363.5,251.2)" />
<use xlink:href="#f1_2a" transform="matrix(10.4,0,0,10.4,367,251.2)" />
<use xlink:href="#f1_2i" transform="matrix(10.4,0,0,10.4,375.9,251.2)" />
<use xlink:href="#f1_24" transform="matrix(10.4,0,0,10.4,387.4,251.2)" />
<use xlink:href="#f1_29" transform="matrix(10.4,0,0,10.4,391,251.2)" />
<use xlink:href="#f1_22" transform="matrix(10.4,0,0,10.4,399.8,251.2)" />
<use xlink:href="#f1_2e" transform="matrix(10.4,0,0,10.4,415.3,251.2)" />
<use xlink:href="#f1_2k" transform="matrix(10.4,0,0,10.4,423.3,251.2)" />
<use xlink:href="#f1_2e" transform="matrix(10.4,0,0,10.4,431.2,251.2)" />
<use xlink:href="#f1_2f" transform="matrix(10.4,0,0,10.4,439.2,251.2)" />
<use xlink:href="#f1_20" transform="matrix(10.4,0,0,10.4,443.7,251.2)" />
<use xlink:href="#f1_28" transform="matrix(10.4,0,0,10.4,452.5,251.2)" />
<use xlink:href="#f1_2a" transform="matrix(10.4,0,0,10.4,472.4,251.2)" />
<use xlink:href="#f1_21" transform="matrix(10.4,0,0,10.4,481.3,251.2)" />
<use xlink:href="#f1_20" transform="matrix(10.4,0,0,10.4,492.3,251.2)" />
<use xlink:href="#f1_2c" transform="matrix(10.4,0,0,10.4,501.2,251.2)" />
<use xlink:href="#f1_2g" transform="matrix(10.4,0,0,10.4,510.1,251.2)" />
<use xlink:href="#f1_1w" transform="matrix(10.4,0,0,10.4,518.9,251.2)" />
<use xlink:href="#f1_2f" transform="matrix(10.4,0,0,10.4,527.8,251.2)" />
<use xlink:href="#f1_24" transform="matrix(10.4,0,0,10.4,532.2,251.2)" />
<use xlink:href="#f1_2a" transform="matrix(10.4,0,0,10.4,535.8,251.2)" />
<use xlink:href="#f1_29" transform="matrix(10.4,0,0,10.4,544.6,251.2)" />
<use xlink:href="#f1_2e" transform="matrix(10.4,0,0,10.4,553.5,251.2)" />
<use xlink:href="#f1_t" transform="matrix(10.4,0,0,10.4,568.3,251.2)" />
<use xlink:href="#f1_o" transform="matrix(10.4,0,0,10.4,579.3,251.2)" />
<use xlink:href="#f3_2j" transform="matrix(10.4,0,0,10.4,586.4,251.2)" />
<use xlink:href="#f1_99" transform="matrix(10.4,0,0,10.4,601.1,251.2)" />
<use xlink:href="#f1_q" transform="matrix(10.4,0,0,10.4,616.7,251.2)" />
<use xlink:href="#f3_2k" transform="matrix(10.4,0,0,10.4,625.5,251.2)" />
<use xlink:href="#f1_w" transform="matrix(10.4,0,0,10.4,109,271.4)" />
<use xlink:href="#f1_l" transform="matrix(10.4,0,0,10.4,125.1,271.4)" />
<use xlink:href="#f1_f" transform="matrix(10.4,0,0,10.4,134,271.4)" />
<use xlink:href="#f1_q" transform="matrix(10.4,0,0,10.4,145.2,271.4)" />
<use xlink:href="#f3_2j" transform="matrix(10.4,0,0,10.4,153.9,271.4)" />
<use xlink:href="#f1_99" transform="matrix(10.4,0,0,10.4,168.8,271.4)" />
<use xlink:href="#f1_o" transform="matrix(10.4,0,0,10.4,184.6,271.4)" />
<use xlink:href="#f3_2k" transform="matrix(10.4,0,0,10.4,193.3,271.4)" />
<use xlink:href="#f1_w" transform="matrix(10.4,0,0,10.4,208.2,271.4)" />
<use xlink:href="#f1_m" transform="matrix(10.4,0,0,10.4,224.5,271.4)" />
<use xlink:href="#f1_h" transform="matrix(10.4,0,0,10.4,233.3,271.4)" />
<use xlink:href="#f5_1b" transform="matrix(12,0,0,12,119.1,316.3)" />
<use xlink:href="#f5_1e" transform="matrix(12,0,0,12,129.6,316.3)" />
<use xlink:href="#f5_1d" transform="matrix(12,0,0,12,146.1,316.3)" />
<use xlink:href="#f5_16" transform="matrix(12,0,0,12,161.7,316.3)" />
<use xlink:href="#f5_10" transform="matrix(12,0,0,12,186.1,316.3)" />
<use xlink:href="#f5_1d" transform="matrix(12,0,0,12,200.3,316.3)" />
<use xlink:href="#f5_1i" transform="matrix(12,0,0,12,215.9,316.3)" />
<use xlink:href="#f5_1m" transform="matrix(12,0,0,12,225.7,316.3)" />
<use xlink:href="#f5_14" transform="matrix(12,0,0,12,243.6,316.3)" />
<use xlink:href="#f5_1h" transform="matrix(12,0,0,12,254.7,316.3)" />
<use xlink:href="#f5_1j" transform="matrix(12,0,0,12,277.9,316.3)" />
<use xlink:href="#f5_1o" transform="matrix(12,0,0,12,289.4,316.3)" />
<use xlink:href="#f5_1f" transform="matrix(12,0,0,12,301.5,316.3)" />
<use xlink:href="#f5_14" transform="matrix(12,0,0,12,313.4,316.3)" />
<use xlink:href="#f5_1g" transform="matrix(12,0,0,12,334.6,316.3)" />
<use xlink:href="#f5_1k" transform="matrix(12,0,0,12,351.2,316.3)" />
<use xlink:href="#f5_14" transform="matrix(12,0,0,12,366,316.3)" />
<use xlink:href="#f5_1i" transform="matrix(12,0,0,12,377.2,316.3)" />
<use xlink:href="#f5_1j" transform="matrix(12,0,0,12,387,316.3)" />
<use xlink:href="#f5_18" transform="matrix(12,0,0,12,398.5,316.3)" />
<use xlink:href="#f5_1e" transform="matrix(12,0,0,12,405.6,316.3)" />
<use xlink:href="#f5_1d" transform="matrix(12,0,0,12,422.1,316.3)" />
<use xlink:href="#f5_1i" transform="matrix(12,0,0,12,437.7,316.3)" />
<use xlink:href="#f5_b" transform="matrix(12,0,0,12,457.8,316.3)" />
<use xlink:href="#f5_p" transform="matrix(12,0,0,12,466.9,316.3)" />
<use xlink:href="#f5_1c" transform="matrix(12,0,0,12,489.3,316.3)" />
<use xlink:href="#f5_10" transform="matrix(12,0,0,12,507.2,316.3)" />
<use xlink:href="#f5_1h" transform="matrix(12,0,0,12,521.4,316.3)" />
<use xlink:href="#f5_1a" transform="matrix(12,0,0,12,534.3,316.3)" />
<use xlink:href="#f5_1i" transform="matrix(12,0,0,12,547.8,316.3)" />
<use xlink:href="#f5_c" transform="matrix(12,0,0,12,557.6,316.3)" />
<use xlink:href="#f1_p" transform="matrix(10.4,0,0,10.4,68.3,360)" />
<use xlink:href="#f1_o" transform="matrix(10.4,0,0,10.4,77.2,360)" />
<use xlink:href="#f1_h" transform="matrix(10.4,0,0,10.4,86.5,355.7)" />
<use xlink:href="#f1_1e" transform="matrix(10.4,0,0,10.4,109,355.7)" />
<use xlink:href="#f1_1x" transform="matrix(10.4,0,0,10.4,121.4,355.7)" />
<use xlink:href="#f1_2f" transform="matrix(10.4,0,0,10.4,130.3,355.7)" />
<use xlink:href="#f1_1w" transform="matrix(10.4,0,0,10.4,134.7,355.7)" />
<use xlink:href="#f1_24" transform="matrix(10.4,0,0,10.4,143.6,355.7)" />
<use xlink:href="#f1_29" transform="matrix(10.4,0,0,10.4,147.1,355.7)" />
<use xlink:href="#f1_2f" transform="matrix(10.4,0,0,10.4,160.8,355.7)" />
<use xlink:href="#f1_23" transform="matrix(10.4,0,0,10.4,165.2,355.7)" />
<use xlink:href="#f1_20" transform="matrix(10.4,0,0,10.4,174.1,355.7)" />
<use xlink:href="#f1_24" transform="matrix(10.4,0,0,10.4,187.9,355.7)" />
<use xlink:href="#f1_29" transform="matrix(10.4,0,0,10.4,191.4,355.7)" />
<use xlink:href="#f1_2h" transform="matrix(10.4,0,0,10.4,200.3,355.7)" />
<use xlink:href="#f1_20" transform="matrix(10.4,0,0,10.4,208.3,355.7)" />
<use xlink:href="#f1_2d" transform="matrix(10.4,0,0,10.4,217.1,355.7)" />
<use xlink:href="#f1_2e" transform="matrix(10.4,0,0,10.4,222.4,355.7)" />
<use xlink:href="#f1_20" transform="matrix(10.4,0,0,10.4,230.4,355.7)" />
<use xlink:href="#f1_2a" transform="matrix(10.4,0,0,10.4,244.1,355.7)" />
<use xlink:href="#f1_21" transform="matrix(10.4,0,0,10.4,252.9,355.7)" />
<use xlink:href="#f1_2f" transform="matrix(10.4,0,0,10.4,262.1,355.7)" />
<use xlink:href="#f1_23" transform="matrix(10.4,0,0,10.4,266.6,355.7)" />
<use xlink:href="#f1_20" transform="matrix(10.4,0,0,10.4,275.4,355.7)" />
<use xlink:href="#f1_21" transform="matrix(10.4,0,0,10.4,289.1,355.7)" />
<use xlink:href="#f1_2a" transform="matrix(10.4,0,0,10.4,293.5,355.7)" />
<use xlink:href="#f1_27" transform="matrix(10.4,0,0,10.4,302.4,355.7)" />
<use xlink:href="#f1_27" transform="matrix(10.4,0,0,10.4,305.9,355.7)" />
<use xlink:href="#f1_2a" transform="matrix(10.4,0,0,10.4,309.5,355.7)" />
<use xlink:href="#f1_2i" transform="matrix(10.4,0,0,10.4,318.3,355.7)" />
<use xlink:href="#f1_24" transform="matrix(10.4,0,0,10.4,329.8,355.7)" />
<use xlink:href="#f1_29" transform="matrix(10.4,0,0,10.4,333.4,355.7)" />
<use xlink:href="#f1_22" transform="matrix(10.4,0,0,10.4,342.2,355.7)" />
<use xlink:href="#f1_28" transform="matrix(10.4,0,0,10.4,356.1,355.7)" />
<use xlink:href="#f1_1w" transform="matrix(10.4,0,0,10.4,369.3,355.7)" />
<use xlink:href="#f1_2f" transform="matrix(10.4,0,0,10.4,378.2,355.7)" />
<use xlink:href="#f1_2d" transform="matrix(10.4,0,0,10.4,382.6,355.7)" />
<use xlink:href="#f1_24" transform="matrix(10.4,0,0,10.4,388,355.7)" />
<use xlink:href="#f1_2j" transform="matrix(10.4,0,0,10.4,391.5,355.7)" />
<use xlink:href="#f1_2g" transform="matrix(10.4,0,0,10.4,404.2,355.7)" />
<use xlink:href="#f1_2e" transform="matrix(10.4,0,0,10.4,413.1,355.7)" />
<use xlink:href="#f1_24" transform="matrix(10.4,0,0,10.4,421.1,355.7)" />
<use xlink:href="#f1_29" transform="matrix(10.4,0,0,10.4,424.6,355.7)" />
<use xlink:href="#f1_22" transform="matrix(10.4,0,0,10.4,433.5,355.7)" />
<use xlink:href="#f1_20" transform="matrix(10.4,0,0,10.4,447.1,355.7)" />
<use xlink:href="#f1_27" transform="matrix(10.4,0,0,10.4,456,355.7)" />
<use xlink:href="#f1_20" transform="matrix(10.4,0,0,10.4,459.5,355.7)" />
<use xlink:href="#f1_28" transform="matrix(10.4,0,0,10.4,468.4,355.7)" />
<use xlink:href="#f1_20" transform="matrix(10.4,0,0,10.4,481.7,355.7)" />
<use xlink:href="#f1_29" transform="matrix(10.4,0,0,10.4,490.6,355.7)" />
<use xlink:href="#f1_2f" transform="matrix(10.4,0,0,10.4,499.4,355.7)" />
<use xlink:href="#f1_1w" transform="matrix(10.4,0,0,10.4,503.9,355.7)" />
<use xlink:href="#f1_2d" transform="matrix(10.4,0,0,10.4,512.7,355.7)" />
<use xlink:href="#f1_2k" transform="matrix(10.4,0,0,10.4,518,355.7)" />
<use xlink:href="#f1_2d" transform="matrix(10.4,0,0,10.4,531,355.7)" />
<use xlink:href="#f1_2a" transform="matrix(10.4,0,0,10.4,536.3,355.7)" />
<use xlink:href="#f1_2i" transform="matrix(10.4,0,0,10.4,545.1,355.7)" />
<use xlink:href="#f1_2a" transform="matrix(10.4,0,0,10.4,561.4,355.7)" />
<use xlink:href="#f1_2b" transform="matrix(10.4,0,0,10.4,570.3,355.7)" />
<use xlink:href="#f1_20" transform="matrix(10.4,0,0,10.4,579.2,355.7)" />
<use xlink:href="#f1_2d" transform="matrix(10.4,0,0,10.4,588,355.7)" />
<use xlink:href="#f1_1w" transform="matrix(10.4,0,0,10.4,593.3,355.7)" />
<use xlink:href="#f1_2f" transform="matrix(10.4,0,0,10.4,602.2,355.7)" />
<use xlink:href="#f1_24" transform="matrix(10.4,0,0,10.4,606.6,355.7)" />
<use xlink:href="#f1_2a" transform="matrix(10.4,0,0,10.4,610.2,355.7)" />
<use xlink:href="#f1_29" transform="matrix(10.4,0,0,10.4,619.1,355.7)" />
<use xlink:href="#f1_2e" transform="matrix(10.4,0,0,10.4,627.9,355.7)" />
<use xlink:href="#f1_j" transform="matrix(10.5,0,0,10.5,147.7,386.7)" />
<use xlink:href="#f1_k" transform="matrix(10.5,0,0,10.5,172.1,386.7)" />
<use xlink:href="#f1_l" transform="matrix(10.5,0,0,10.5,195.3,386.7)" />
<use xlink:href="#f1_k" transform="matrix(10.5,0,0,10.5,148.4,410.8)" />
<use xlink:href="#f1_l" transform="matrix(10.5,0,0,10.5,171.6,410.8)" />
<use xlink:href="#f1_m" transform="matrix(10.5,0,0,10.5,195.2,410.8)" />
<use xlink:href="#f1_h" transform="matrix(10.5,0,0,10.5,212.2,410.8)" />
<use xlink:href="#f1_m" transform="matrix(10.5,0,0,10.5,147.7,434.8)" />
<use xlink:href="#f1_k" transform="matrix(10.5,0,0,10.5,172.1,434.8)" />
<use xlink:href="#f1_k" transform="matrix(10.5,0,0,10.5,195.8,434.8)" />
<use xlink:href="#f3_10" transform="matrix(10.5,0,0,10.5,111.8,410.8)" />
<use xlink:href="#f2_4r" transform="matrix(10.5,0,0,10.5,141.1,387.7)" />
<use xlink:href="#f2_57" transform="matrix(10.5,0,0,10.5,204.6,387.7)" />
<use xlink:href="#f2_4s" transform="matrix(10.5,0,0,10.5,141.1,403.2)" />
<use xlink:href="#f2_58" transform="matrix(10.5,0,0,10.5,204.6,403.2)" />
<use xlink:href="#f2_x" transform="matrix(10.5,0,0,10.5,127.2,410.8)" />
<use xlink:href="#f2_4s" transform="matrix(10.5,0,0,10.5,141.1,418.5)" />
<use xlink:href="#f2_58" transform="matrix(10.5,0,0,10.5,204.6,418.5)" />
<use xlink:href="#f2_4s" transform="matrix(10.5,0,0,10.5,141.1,433.7)" />
<use xlink:href="#f2_58" transform="matrix(10.5,0,0,10.5,204.6,433.7)" />
<use xlink:href="#f2_4t" transform="matrix(10.5,0,0,10.5,141.1,438.3)" />
<use xlink:href="#f2_59" transform="matrix(10.5,0,0,10.5,204.6,438.3)" />
<use xlink:href="#f1_p" transform="matrix(10.4,0,0,10.4,68.3,495.8)" />
<use xlink:href="#f1_p" transform="matrix(10.4,0,0,10.4,77.2,495.8)" />
<use xlink:href="#f1_h" transform="matrix(10.4,0,0,10.4,86.3,495.8)" />
<use xlink:href="#f1_1k" transform="matrix(10.4,0,0,10.4,109,495.8)" />
<use xlink:href="#f1_2e" transform="matrix(10.4,0,0,10.4,120.5,495.8)" />
<use xlink:href="#f1_20" transform="matrix(10.4,0,0,10.4,128.5,495.8)" />
<use xlink:href="#f1_2b" transform="matrix(10.4,0,0,10.4,143.6,495.8)" />
<use xlink:href="#f1_2d" transform="matrix(10.4,0,0,10.4,152.5,495.8)" />
<use xlink:href="#f1_2a" transform="matrix(10.4,0,0,10.4,157.8,495.8)" />
<use xlink:href="#f1_1z" transform="matrix(10.4,0,0,10.4,166.7,495.8)" />
<use xlink:href="#f1_2g" transform="matrix(10.4,0,0,10.4,175.5,495.8)" />
<use xlink:href="#f1_1y" transform="matrix(10.4,0,0,10.4,184.4,495.8)" />
<use xlink:href="#f1_2f" transform="matrix(10.4,0,0,10.4,192.4,495.8)" />
<use xlink:href="#f1_k" transform="matrix(10.5,0,0,10.5,215.1,471.1)" />
<use xlink:href="#f1_k" transform="matrix(10.5,0,0,10.5,247.9,471.1)" />
<use xlink:href="#f1_l" transform="matrix(10.5,0,0,10.5,278.7,471.1)" />
<use xlink:href="#f1_l" transform="matrix(10.5,0,0,10.5,314.9,471.1)" />
<use xlink:href="#f1_j" transform="matrix(10.5,0,0,10.5,338.5,471.1)" />
<use xlink:href="#f1_k" transform="matrix(10.5,0,0,10.5,374.1,471.1)" />
<use xlink:href="#f1_j" transform="matrix(10.5,0,0,10.5,212.5,495.1)" />
<use xlink:href="#f1_l" transform="matrix(10.5,0,0,10.5,245.6,495.1)" />
<use xlink:href="#f1_m" transform="matrix(10.5,0,0,10.5,278.5,495.1)" />
<use xlink:href="#f1_s" transform="matrix(10.5,0,0,10.5,314.6,495.1)" />
<use xlink:href="#f1_l" transform="matrix(10.5,0,0,10.5,338.7,495.1)" />
<use xlink:href="#f1_m" transform="matrix(10.5,0,0,10.5,371.6,495.1)" />
<use xlink:href="#f1_m" transform="matrix(10.5,0,0,10.5,212.5,519.2)" />
<use xlink:href="#f1_l" transform="matrix(10.5,0,0,10.5,245.6,519.2)" />
<use xlink:href="#f1_n" transform="matrix(10.5,0,0,10.5,278.5,519.2)" />
<use xlink:href="#f1_p" transform="matrix(10.5,0,0,10.5,314.6,519.2)" />
<use xlink:href="#f1_k" transform="matrix(10.5,0,0,10.5,341,519.2)" />
<use xlink:href="#f1_l" transform="matrix(10.5,0,0,10.5,371.8,519.2)" />
<use xlink:href="#f2_h" transform="matrix(10.5,0,0,10.5,239.2,471.1)" />
<use xlink:href="#f2_h" transform="matrix(10.5,0,0,10.5,306.1,471.1)" />
<use xlink:href="#f2_4r" transform="matrix(10.5,0,0,10.5,205.9,472.1)" />
<use xlink:href="#f2_57" transform="matrix(10.5,0,0,10.5,287.8,472.1)" />
<use xlink:href="#f2_4r" transform="matrix(10.5,0,0,10.5,299,472.1)" />
<use xlink:href="#f2_57" transform="matrix(10.5,0,0,10.5,380.9,472.1)" />
<use xlink:href="#f2_4s" transform="matrix(10.5,0,0,10.5,205.9,487.6)" />
<use xlink:href="#f2_58" transform="matrix(10.5,0,0,10.5,287.8,487.6)" />
<use xlink:href="#f2_4s" transform="matrix(10.5,0,0,10.5,299,487.6)" />
<use xlink:href="#f2_58" transform="matrix(10.5,0,0,10.5,380.9,487.6)" />
<use xlink:href="#f2_h" transform="matrix(10.5,0,0,10.5,269.7,495.1)" />
<use xlink:href="#f2_h" transform="matrix(10.5,0,0,10.5,362.8,495.1)" />
<use xlink:href="#f2_4s" transform="matrix(10.5,0,0,10.5,205.9,502.8)" />
<use xlink:href="#f2_58" transform="matrix(10.5,0,0,10.5,287.8,502.8)" />
<use xlink:href="#f2_4s" transform="matrix(10.5,0,0,10.5,299,502.8)" />
<use xlink:href="#f2_58" transform="matrix(10.5,0,0,10.5,380.9,502.8)" />
<use xlink:href="#f2_4s" transform="matrix(10.5,0,0,10.5,205.9,518.1)" />
<use xlink:href="#f2_58" transform="matrix(10.5,0,0,10.5,287.8,518.1)" />
<use xlink:href="#f2_4s" transform="matrix(10.5,0,0,10.5,299,518.1)" />
<use xlink:href="#f2_58" transform="matrix(10.5,0,0,10.5,380.9,518.1)" />
<use xlink:href="#f2_h" transform="matrix(10.5,0,0,10.5,236.9,519.2)" />
<use xlink:href="#f2_h" transform="matrix(10.5,0,0,10.5,363.1,519.2)" />
<use xlink:href="#f2_4t" transform="matrix(10.5,0,0,10.5,205.9,522.7)" />
<use xlink:href="#f2_59" transform="matrix(10.5,0,0,10.5,287.8,522.7)" />
<use xlink:href="#f2_4t" transform="matrix(10.5,0,0,10.5,299,522.7)" />
<use xlink:href="#f2_59" transform="matrix(10.5,0,0,10.5,380.9,522.7)" />
<use xlink:href="#f1_2f" transform="matrix(10.4,0,0,10.4,397,495.8)" />
<use xlink:href="#f1_2a" transform="matrix(10.4,0,0,10.4,401.5,495.8)" />
<use xlink:href="#f1_2e" transform="matrix(10.4,0,0,10.4,416.7,495.8)" />
<use xlink:href="#f1_2a" transform="matrix(10.4,0,0,10.4,424.7,495.8)" />
<use xlink:href="#f1_27" transform="matrix(10.4,0,0,10.4,433.6,495.8)" />
<use xlink:href="#f1_2h" transform="matrix(10.4,0,0,10.4,437.1,495.8)" />
<use xlink:href="#f1_20" transform="matrix(10.4,0,0,10.4,445.1,495.8)" />
<use xlink:href="#f1_2f" transform="matrix(10.4,0,0,10.4,460.2,495.8)" />
<use xlink:href="#f1_23" transform="matrix(10.4,0,0,10.4,464.6,495.8)" />
<use xlink:href="#f1_20" transform="matrix(10.4,0,0,10.4,473.5,495.8)" />
<use xlink:href="#f1_2e" transform="matrix(10.4,0,0,10.4,488.6,495.8)" />
<use xlink:href="#f1_2k" transform="matrix(10.4,0,0,10.4,496.6,495.8)" />
<use xlink:href="#f1_2e" transform="matrix(10.4,0,0,10.4,504.6,495.8)" />
<use xlink:href="#f1_2f" transform="matrix(10.4,0,0,10.4,512.5,495.8)" />
<use xlink:href="#f1_20" transform="matrix(10.4,0,0,10.4,517,495.8)" />
<use xlink:href="#f1_28" transform="matrix(10.4,0,0,10.4,525.8,495.8)" />
<use xlink:href="#f1_2a" transform="matrix(10.4,0,0,10.4,545.5,495.8)" />
<use xlink:href="#f1_21" transform="matrix(10.4,0,0,10.4,554.4,495.8)" />
<use xlink:href="#f1_20" transform="matrix(10.4,0,0,10.4,565.1,495.8)" />
<use xlink:href="#f1_2c" transform="matrix(10.4,0,0,10.4,573.9,495.8)" />
<use xlink:href="#f1_2g" transform="matrix(10.4,0,0,10.4,582.8,495.8)" />
<use xlink:href="#f1_1w" transform="matrix(10.4,0,0,10.4,591.7,495.8)" />
<use xlink:href="#f1_2f" transform="matrix(10.4,0,0,10.4,600.6,495.8)" />
<use xlink:href="#f1_24" transform="matrix(10.4,0,0,10.4,605,495.8)" />
<use xlink:href="#f1_2a" transform="matrix(10.4,0,0,10.4,608.5,495.8)" />
<use xlink:href="#f1_29" transform="matrix(10.4,0,0,10.4,617.4,495.8)" />
<use xlink:href="#f1_2e" transform="matrix(10.4,0,0,10.4,626.3,495.8)" />
<use xlink:href="#f3_2j" transform="matrix(10.4,0,0,10.4,109,547)" />
<use xlink:href="#f1_99" transform="matrix(10.4,0,0,10.4,123.9,547)" />
<use xlink:href="#f3_2k" transform="matrix(10.4,0,0,10.4,139.4,547)" />
<use xlink:href="#f1_e" transform="matrix(10.4,0,0,10.4,154.3,547)" />
<use xlink:href="#f1_l" transform="matrix(10.4,0,0,10.4,170.4,547)" />
<use xlink:href="#f3_2l" transform="matrix(10.4,0,0,10.4,179.2,547)" />
<use xlink:href="#f1_w" transform="matrix(10.4,0,0,10.4,194.1,547)" />
<use xlink:href="#f1_k" transform="matrix(10.4,0,0,10.4,210.2,547)" />
<use xlink:href="#f1_f" transform="matrix(10.4,0,0,10.4,219,547)" />
<use xlink:href="#f1_l" transform="matrix(10.4,0,0,10.4,230.2,547)" />
<use xlink:href="#f3_2k" transform="matrix(10.4,0,0,10.4,239,547)" />
<use xlink:href="#f1_99" transform="matrix(10.4,0,0,10.4,253.8,547)" />
<use xlink:href="#f1_m" transform="matrix(10.4,0,0,10.4,269.7,547)" />
<use xlink:href="#f3_2l" transform="matrix(10.4,0,0,10.4,278.4,547)" />
<use xlink:href="#f1_w" transform="matrix(10.4,0,0,10.4,293.3,547)" />
<use xlink:href="#f1_k" transform="matrix(10.4,0,0,10.4,309.3,547)" />
<use xlink:href="#f1_f" transform="matrix(10.4,0,0,10.4,318.2,547)" />
<use xlink:href="#f1_m" transform="matrix(10.4,0,0,10.4,329.4,547)" />
<use xlink:href="#f3_2j" transform="matrix(10.4,0,0,10.4,338.2,547)" />
<use xlink:href="#f1_99" transform="matrix(10.4,0,0,10.4,353,547)" />
<use xlink:href="#f1_l" transform="matrix(10.4,0,0,10.4,368.7,547)" />
<use xlink:href="#f3_2k" transform="matrix(10.4,0,0,10.4,377.4,547)" />
<use xlink:href="#f1_e" transform="matrix(10.4,0,0,10.4,392.3,547)" />
<use xlink:href="#f1_n" transform="matrix(10.4,0,0,10.4,408.3,547)" />
<use xlink:href="#f3_2l" transform="matrix(10.4,0,0,10.4,417.2,547)" />
<use xlink:href="#f1_w" transform="matrix(10.4,0,0,10.4,432,547)" />
<use xlink:href="#f1_l" transform="matrix(10.4,0,0,10.4,448.3,547)" />
<use xlink:href="#f1_h" transform="matrix(10.4,0,0,10.4,457.2,547)" />
<use xlink:href="#f1_p" transform="matrix(10.4,0,0,10.4,68.3,585.1)" />
<use xlink:href="#f1_q" transform="matrix(10.4,0,0,10.4,77.2,585.1)" />
<use xlink:href="#f1_h" transform="matrix(10.4,0,0,10.4,86.5,580.9)" />
<use xlink:href="#f1_1i" transform="matrix(10.4,0,0,10.4,109,580.9)" />
<use xlink:href="#f1_2a" transform="matrix(10.4,0,0,10.4,119.6,580.9)" />
<use xlink:href="#f1_27" transform="matrix(10.4,0,0,10.4,128.5,580.9)" />
<use xlink:href="#f1_2h" transform="matrix(10.4,0,0,10.4,132.1,580.9)" />
<use xlink:href="#f1_20" transform="matrix(10.4,0,0,10.4,140,580.9)" />
<use xlink:href="#f1_2f" transform="matrix(10.4,0,0,10.4,155.3,580.9)" />
<use xlink:href="#f1_23" transform="matrix(10.4,0,0,10.4,159.7,580.9)" />
<use xlink:href="#f1_20" transform="matrix(10.4,0,0,10.4,168.6,580.9)" />
<use xlink:href="#f1_21" transform="matrix(10.4,0,0,10.4,184.1,580.9)" />
<use xlink:href="#f1_2a" transform="matrix(10.4,0,0,10.4,188.5,580.9)" />
<use xlink:href="#f1_27" transform="matrix(10.4,0,0,10.4,197.4,580.9)" />
<use xlink:href="#f1_27" transform="matrix(10.4,0,0,10.4,200.9,580.9)" />
<use xlink:href="#f1_2a" transform="matrix(10.4,0,0,10.4,204.5,580.9)" />
<use xlink:href="#f1_2i" transform="matrix(10.4,0,0,10.4,213.3,580.9)" />
<use xlink:href="#f1_24" transform="matrix(10.4,0,0,10.4,224.9,580.9)" />
<use xlink:href="#f1_29" transform="matrix(10.4,0,0,10.4,228.4,580.9)" />
<use xlink:href="#f1_22" transform="matrix(10.4,0,0,10.4,237.3,580.9)" />
<use xlink:href="#f1_2e" transform="matrix(10.4,0,0,10.4,252.5,580.9)" />
<use xlink:href="#f1_2k" transform="matrix(10.4,0,0,10.4,260.5,580.9)" />
<use xlink:href="#f1_2e" transform="matrix(10.4,0,0,10.4,268.5,580.9)" />
<use xlink:href="#f1_2f" transform="matrix(10.4,0,0,10.4,276.5,580.9)" />
<use xlink:href="#f1_20" transform="matrix(10.4,0,0,10.4,280.9,580.9)" />
<use xlink:href="#f1_28" transform="matrix(10.4,0,0,10.4,289.8,580.9)" />
<use xlink:href="#f1_2a" transform="matrix(10.4,0,0,10.4,309.7,580.9)" />
<use xlink:href="#f1_21" transform="matrix(10.4,0,0,10.4,318.5,580.9)" />
<use xlink:href="#f1_20" transform="matrix(10.4,0,0,10.4,329.4,580.9)" />
<use xlink:href="#f1_2c" transform="matrix(10.4,0,0,10.4,338.2,580.9)" />
<use xlink:href="#f1_2g" transform="matrix(10.4,0,0,10.4,347.1,580.9)" />
<use xlink:href="#f1_1w" transform="matrix(10.4,0,0,10.4,356,580.9)" />
<use xlink:href="#f1_2f" transform="matrix(10.4,0,0,10.4,364.8,580.9)" />
<use xlink:href="#f1_24" transform="matrix(10.4,0,0,10.4,369.3,580.9)" />
<use xlink:href="#f1_2a" transform="matrix(10.4,0,0,10.4,372.8,580.9)" />
<use xlink:href="#f1_29" transform="matrix(10.4,0,0,10.4,381.7,580.9)" />
<use xlink:href="#f1_2e" transform="matrix(10.4,0,0,10.4,390.6,580.9)" />
<use xlink:href="#f1_1x" transform="matrix(10.4,0,0,10.4,404.9,580.9)" />
<use xlink:href="#f1_2k" transform="matrix(10.4,0,0,10.4,413.8,580.9)" />
<use xlink:href="#f1_28" transform="matrix(10.4,0,0,10.4,428.4,580.9)" />
<use xlink:href="#f1_1w" transform="matrix(10.4,0,0,10.4,441.7,580.9)" />
<use xlink:href="#f1_2f" transform="matrix(10.4,0,0,10.4,450.5,580.9)" />
<use xlink:href="#f1_2d" transform="matrix(10.4,0,0,10.4,455,580.9)" />
<use xlink:href="#f1_24" transform="matrix(10.4,0,0,10.4,460.3,580.9)" />
<use xlink:href="#f1_2j" transform="matrix(10.4,0,0,10.4,463.8,580.9)" />
<use xlink:href="#f1_28" transform="matrix(10.4,0,0,10.4,478.2,580.9)" />
<use xlink:href="#f1_20" transform="matrix(10.4,0,0,10.4,491.5,580.9)" />
<use xlink:href="#f1_2f" transform="matrix(10.4,0,0,10.4,500.4,580.9)" />
<use xlink:href="#f1_23" transform="matrix(10.4,0,0,10.4,504.8,580.9)" />
<use xlink:href="#f1_2a" transform="matrix(10.4,0,0,10.4,513.7,580.9)" />
<use xlink:href="#f1_1z" transform="matrix(10.4,0,0,10.4,522.5,580.9)" />
<use xlink:href="#f1_f" transform="matrix(10.4,0,0,10.4,531.4,580.9)" />
<use xlink:href="#f1_2i" transform="matrix(10.4,0,0,10.4,542.5,580.9)" />
<use xlink:href="#f1_23" transform="matrix(10.4,0,0,10.4,554,580.9)" />
<use xlink:href="#f1_20" transform="matrix(10.4,0,0,10.4,562.8,580.9)" />
<use xlink:href="#f1_2d" transform="matrix(10.4,0,0,10.4,571.7,580.9)" />
<use xlink:href="#f1_20" transform="matrix(10.4,0,0,10.4,577,580.9)" />
<use xlink:href="#f3_2j" transform="matrix(10.4,0,0,10.4,590.4,580.9)" />
<use xlink:href="#f2_3f" transform="matrix(10.4,0,0,10.4,604.9,580.9)" />
<use xlink:href="#f1_j" transform="matrix(10.4,0,0,10.4,620.3,580.9)" />
<use xlink:href="#f1_f" transform="matrix(10.4,0,0,10.4,629.2,580.9)" />
<use xlink:href="#f3_2k" transform="matrix(10.4,0,0,10.4,109,601)" />
<use xlink:href="#f2_3f" transform="matrix(10.4,0,0,10.4,123.7,601)" />
<use xlink:href="#f1_j" transform="matrix(10.4,0,0,10.4,139.3,601)" />
<use xlink:href="#f1_f" transform="matrix(10.4,0,0,10.4,148.1,601)" />
<use xlink:href="#f3_2l" transform="matrix(10.4,0,0,10.4,159.2,601)" />
<use xlink:href="#f2_3f" transform="matrix(10.4,0,0,10.4,174.1,601)" />
<use xlink:href="#f1_j" transform="matrix(10.4,0,0,10.4,189.7,601)" />
</g>
<path d="M167.1,642.4h11.7m16.5,0h12m16.5,0h11.1m47.7,0h11.7m16.5,0h12m16.5,0h11.1m47.6,0h11.8m16.5,0h12m16.5,0h11" class="g0_31" />
<g fill="#000000" >
<use xlink:href="#f1_l" transform="matrix(10.5,0,0,10.5,168.7,636.2)" />
<use xlink:href="#f1_m" transform="matrix(10.5,0,0,10.5,197,636.2)" />
<use xlink:href="#f1_m" transform="matrix(10.5,0,0,10.5,225.1,636.2)" />
<use xlink:href="#f1_k" transform="matrix(10.5,0,0,10.5,284.9,636.2)" />
<use xlink:href="#f1_k" transform="matrix(10.5,0,0,10.5,313.3,636.2)" />
<use xlink:href="#f1_k" transform="matrix(10.5,0,0,10.5,341.4,636.2)" />
<use xlink:href="#f1_m" transform="matrix(10.5,0,0,10.5,399.9,636.2)" />
<use xlink:href="#f1_k" transform="matrix(10.5,0,0,10.5,429,636.2)" />
<use xlink:href="#f1_l" transform="matrix(10.5,0,0,10.5,456.5,636.2)" />
<use xlink:href="#f1_k" transform="matrix(10.5,0,0,10.5,252.1,646.6)" />
<use xlink:href="#f1_j" transform="matrix(10.5,0,0,10.5,261,646.6)" />
<use xlink:href="#f1_f" transform="matrix(10.5,0,0,10.5,269.3,646.6)" />
<use xlink:href="#f1_k" transform="matrix(10.5,0,0,10.5,367.7,646.6)" />
<use xlink:href="#f1_j" transform="matrix(10.5,0,0,10.5,376.6,646.6)" />
<use xlink:href="#f1_f" transform="matrix(10.5,0,0,10.5,384.9,646.6)" />
<use xlink:href="#f1_k" transform="matrix(10.5,0,0,10.5,483.3,646.6)" />
<use xlink:href="#f1_m" transform="matrix(10.5,0,0,10.5,492.2,646.6)" />
<use xlink:href="#f1_h" transform="matrix(10.5,0,0,10.5,501.1,646.6)" />
<use xlink:href="#f3_2j" transform="matrix(10.5,0,0,10.5,168.1,659)" />
<use xlink:href="#f3_2k" transform="matrix(10.5,0,0,10.5,196.6,659)" />
<use xlink:href="#f3_2l" transform="matrix(10.5,0,0,10.5,224.7,659)" />
<use xlink:href="#f3_2j" transform="matrix(10.5,0,0,10.5,283.8,659)" />
<use xlink:href="#f3_2k" transform="matrix(10.5,0,0,10.5,312.3,659)" />
<use xlink:href="#f3_2l" transform="matrix(10.5,0,0,10.5,340.4,659)" />
<use xlink:href="#f3_2j" transform="matrix(10.5,0,0,10.5,399.4,659)" />
<use xlink:href="#f3_2k" transform="matrix(10.5,0,0,10.5,428,659)" />
<use xlink:href="#f3_2l" transform="matrix(10.5,0,0,10.5,456.1,659)" />
<use xlink:href="#f2_h" transform="matrix(10.5,0,0,10.5,182.8,646.6)" />
<use xlink:href="#f2_f" transform="matrix(10.5,0,0,10.5,211.2,646.6)" />
<use xlink:href="#f2_x" transform="matrix(10.5,0,0,10.5,239.9,646.6)" />
<use xlink:href="#f2_f" transform="matrix(10.5,0,0,10.5,298.3,646.6)" />
<use xlink:href="#f2_f" transform="matrix(10.5,0,0,10.5,326.8,646.6)" />
<use xlink:href="#f2_x" transform="matrix(10.5,0,0,10.5,355.6,646.6)" />
<use xlink:href="#f2_h" transform="matrix(10.5,0,0,10.5,414.2,646.6)" />
<use xlink:href="#f2_f" transform="matrix(10.5,0,0,10.5,442.5,646.6)" />
<use xlink:href="#f2_x" transform="matrix(10.5,0,0,10.5,471.3,646.6)" />
<use xlink:href="#f1_p" transform="matrix(10.4,0,0,10.4,68.3,727.5)" />
<use xlink:href="#f1_r" transform="matrix(10.4,0,0,10.4,77.2,727.5)" />
<use xlink:href="#f1_h" transform="matrix(10.4,0,0,10.4,86.3,727.5)" />
<use xlink:href="#f6_16" transform="matrix(8.4,0,0,8.4,109,727.5)" />
<use xlink:href="#f6_25" transform="matrix(8.4,0,0,8.4,118.7,727.5)" />
<use xlink:href="#f6_2a" transform="matrix(8.4,0,0,8.4,122.2,727.5)" />
<use xlink:href="#f6_20" transform="matrix(8.4,0,0,8.4,131,727.5)" />
<use xlink:href="#f3_10" transform="matrix(10.4,0,0,10.4,146.6,727.5)" />
<use xlink:href="#f1_99" transform="matrix(7.4,0,0,7.4,157.2,722.2)" />
<use xlink:href="#f1_k" transform="matrix(7.4,0,0,7.4,163.5,722.2)" />
<use xlink:href="#f1_f" transform="matrix(10.4,0,0,10.4,169.7,727.5)" />
<use xlink:href="#f1_2i" transform="matrix(10.4,0,0,10.4,181.1,727.5)" />
<use xlink:href="#f1_23" transform="matrix(10.4,0,0,10.4,192.6,727.5)" />
<use xlink:href="#f1_20" transform="matrix(10.4,0,0,10.4,201.5,727.5)" />
<use xlink:href="#f1_2d" transform="matrix(10.4,0,0,10.4,210.3,727.5)" />
<use xlink:href="#f1_20" transform="matrix(10.4,0,0,10.4,215.7,727.5)" />
<use xlink:href="#f1_k" transform="matrix(10.5,0,0,10.5,279.6,703)" />
<use xlink:href="#f1_l" transform="matrix(10.5,0,0,10.5,315.6,703)" />
<use xlink:href="#f1_m" transform="matrix(10.5,0,0,10.5,361.6,703)" />
<use xlink:href="#f1_l" transform="matrix(10.5,0,0,10.5,279,727)" />
<use xlink:href="#f1_m" transform="matrix(10.5,0,0,10.5,315.5,727)" />
<use xlink:href="#f1_l" transform="matrix(10.5,0,0,10.5,357,727)" />
<use xlink:href="#f1_m" transform="matrix(10.5,0,0,10.5,278.9,751.1)" />
<use xlink:href="#f1_m" transform="matrix(10.5,0,0,10.5,320.1,751.1)" />
<use xlink:href="#f1_99" transform="matrix(10.5,0,0,10.5,352.5,751.1)" />
<use xlink:href="#f1_n" transform="matrix(10.5,0,0,10.5,361.8,751.1)" />
<use xlink:href="#f3_10" transform="matrix(10.5,0,0,10.5,234,727)" />
<use xlink:href="#f2_h" transform="matrix(10.5,0,0,10.5,352.5,703)" />
<use xlink:href="#f2_4r" transform="matrix(10.5,0,0,10.5,271.2,704.1)" />
<use xlink:href="#f2_57" transform="matrix(10.5,0,0,10.5,372.6,704.1)" />
<use xlink:href="#f2_4s" transform="matrix(10.5,0,0,10.5,271.2,719.6)" />
<use xlink:href="#f2_58" transform="matrix(10.5,0,0,10.5,372.6,719.6)" />
<use xlink:href="#f2_x" transform="matrix(10.5,0,0,10.5,253.5,727)" />
<use xlink:href="#f2_4s" transform="matrix(10.5,0,0,10.5,271.2,734.9)" />
<use xlink:href="#f2_58" transform="matrix(10.5,0,0,10.5,372.6,734.9)" />
<use xlink:href="#f2_4s" transform="matrix(10.5,0,0,10.5,271.2,750.1)" />
<use xlink:href="#f2_58" transform="matrix(10.5,0,0,10.5,372.6,750.1)" />
<use xlink:href="#f2_h" transform="matrix(10.5,0,0,10.5,311.1,751.1)" />
<use xlink:href="#f2_4t" transform="matrix(10.5,0,0,10.5,271.2,754.4)" />
<use xlink:href="#f2_59" transform="matrix(10.5,0,0,10.5,372.6,754.4)" />
<use xlink:href="#f1_f" transform="matrix(10.4,0,0,10.4,382.5,727.5)" />
<use xlink:href="#f1_23" transform="matrix(10.4,0,0,10.4,393.9,727.5)" />
<use xlink:href="#f1_20" transform="matrix(10.4,0,0,10.4,402.8,727.5)" />
<use xlink:href="#f1_29" transform="matrix(10.4,0,0,10.4,411.7,727.5)" />
<use xlink:href="#f1_1y" transform="matrix(10.4,0,0,10.4,420.6,727.5)" />
<use xlink:href="#f1_20" transform="matrix(10.4,0,0,10.4,428.5,727.5)" />
<use xlink:href="#f1_2e" transform="matrix(10.4,0,0,10.4,444.4,727.5)" />
<use xlink:href="#f1_2a" transform="matrix(10.4,0,0,10.4,452.3,727.5)" />
<use xlink:href="#f1_27" transform="matrix(10.4,0,0,10.4,461.2,727.5)" />
<use xlink:href="#f1_2h" transform="matrix(10.4,0,0,10.4,464.7,727.5)" />
<use xlink:href="#f1_20" transform="matrix(10.4,0,0,10.4,472.7,727.5)" />
<use xlink:href="#f1_2f" transform="matrix(10.4,0,0,10.4,488.4,727.5)" />
<use xlink:href="#f1_23" transform="matrix(10.4,0,0,10.4,492.8,727.5)" />
<use xlink:href="#f1_20" transform="matrix(10.4,0,0,10.4,501.7,727.5)" />
<use xlink:href="#f1_2e" transform="matrix(10.4,0,0,10.4,517.5,727.5)" />
<use xlink:href="#f1_2k" transform="matrix(10.4,0,0,10.4,525.5,727.5)" />
<use xlink:href="#f1_2e" transform="matrix(10.4,0,0,10.4,533.5,727.5)" />
<use xlink:href="#f1_2f" transform="matrix(10.4,0,0,10.4,541.4,727.5)" />
<use xlink:href="#f1_20" transform="matrix(10.4,0,0,10.4,545.9,727.5)" />
<use xlink:href="#f1_28" transform="matrix(10.4,0,0,10.4,554.7,727.5)" />
<use xlink:href="#f1_2a" transform="matrix(10.4,0,0,10.4,575,727.5)" />
<use xlink:href="#f1_21" transform="matrix(10.4,0,0,10.4,583.9,727.5)" />
<use xlink:href="#f1_27" transform="matrix(10.4,0,0,10.4,595.3,727.5)" />
<use xlink:href="#f1_24" transform="matrix(10.4,0,0,10.4,598.8,727.5)" />
<use xlink:href="#f1_29" transform="matrix(10.4,0,0,10.4,602.4,727.5)" />
<use xlink:href="#f1_20" transform="matrix(10.4,0,0,10.4,611.2,727.5)" />
<use xlink:href="#f1_1w" transform="matrix(10.4,0,0,10.4,620.1,727.5)" />
<use xlink:href="#f1_2d" transform="matrix(10.4,0,0,10.4,629,727.5)" />
<use xlink:href="#f1_20" transform="matrix(10.4,0,0,10.4,109,764.8)" />
<use xlink:href="#f1_2c" transform="matrix(10.4,0,0,10.4,117.9,764.8)" />
<use xlink:href="#f1_2g" transform="matrix(10.4,0,0,10.4,126.7,764.8)" />
<use xlink:href="#f1_1w" transform="matrix(10.4,0,0,10.4,135.6,764.8)" />
<use xlink:href="#f1_2f" transform="matrix(10.4,0,0,10.4,144.5,764.8)" />
<use xlink:href="#f1_24" transform="matrix(10.4,0,0,10.4,148.9,764.8)" />
<use xlink:href="#f1_2a" transform="matrix(10.4,0,0,10.4,152.5,764.8)" />
<use xlink:href="#f1_29" transform="matrix(10.4,0,0,10.4,161.3,764.8)" />
<use xlink:href="#f1_2e" transform="matrix(10.4,0,0,10.4,170.2,764.8)" />
<use xlink:href="#f1_t" transform="matrix(10.4,0,0,10.4,186.2,764.8)" />
<use xlink:href="#f3_2j" transform="matrix(10.4,0,0,10.4,154.7,798.7)" />
<use xlink:href="#f1_e" transform="matrix(10.4,0,0,10.4,169.5,798.7)" />
<use xlink:href="#f1_l" transform="matrix(10.4,0,0,10.4,185.6,798.7)" />
<use xlink:href="#f3_2k" transform="matrix(10.4,0,0,10.4,194.4,798.7)" />
<use xlink:href="#f1_99" transform="matrix(10.4,0,0,10.4,209.3,798.7)" />
<use xlink:href="#f1_m" transform="matrix(10.4,0,0,10.4,225.1,798.7)" />
<use xlink:href="#f3_2l" transform="matrix(10.4,0,0,10.4,233.9,798.7)" />
<use xlink:href="#f1_w" transform="matrix(10.4,0,0,10.4,249.6,798.7)" />
<use xlink:href="#f1_99" transform="matrix(10.4,0,0,10.4,265.7,798.7)" />
<use xlink:href="#f1_n" transform="matrix(10.4,0,0,10.4,281.6,798.7)" />
<use xlink:href="#f1_l" transform="matrix(10.4,0,0,10.4,145.3,832.6)" />
<use xlink:href="#f3_2j" transform="matrix(10.4,0,0,10.4,154.1,832.6)" />
<use xlink:href="#f1_e" transform="matrix(10.4,0,0,10.4,169,832.6)" />
<use xlink:href="#f1_m" transform="matrix(10.4,0,0,10.4,185,832.6)" />
<use xlink:href="#f3_2k" transform="matrix(10.4,0,0,10.4,193.9,832.6)" />
<use xlink:href="#f1_e" transform="matrix(10.4,0,0,10.4,208.7,832.6)" />
<use xlink:href="#f1_l" transform="matrix(10.4,0,0,10.4,225,832.6)" />
<use xlink:href="#f3_2l" transform="matrix(10.4,0,0,10.4,233.9,832.6)" />
<use xlink:href="#f1_w" transform="matrix(10.4,0,0,10.4,249.6,832.6)" />
<use xlink:href="#f1_l" transform="matrix(10.4,0,0,10.4,265.7,832.6)" />
<use xlink:href="#f1_m" transform="matrix(10.4,0,0,10.4,146,866.5)" />
<use xlink:href="#f3_2j" transform="matrix(10.4,0,0,10.4,154.8,866.5)" />
<use xlink:href="#f1_99" transform="matrix(10.4,0,0,10.4,169.7,866.5)" />
<use xlink:href="#f1_m" transform="matrix(10.4,0,0,10.4,185.5,866.5)" />
<use xlink:href="#f3_2k" transform="matrix(10.4,0,0,10.4,194.3,866.5)" />
<use xlink:href="#f1_99" transform="matrix(10.4,0,0,10.4,209.3,866.5)" />
<use xlink:href="#f1_n" transform="matrix(10.4,0,0,10.4,225.1,866.5)" />
<use xlink:href="#f3_2l" transform="matrix(10.4,0,0,10.4,233.9,866.5)" />
<use xlink:href="#f1_w" transform="matrix(10.4,0,0,10.4,249.6,866.5)" />
<use xlink:href="#f1_k" transform="matrix(10.4,0,0,10.4,265.9,866.5)" />
<use xlink:href="#f1_k" transform="matrix(10.4,0,0,10.4,274.8,866.5)" />
<use xlink:href="#f7_r" transform="matrix(12,0,0,12,665.7,1052.9)" />
</g>
<g fill="#0080FF" fill-opacity="0.5" >
<use xlink:href="#f0_1c" transform="matrix(36.3,0,0,36.3,174,1059.2)" />
<use xlink:href="#f0_21" transform="matrix(36.3,0,0,36.3,204.8,1059.2)" />
<use xlink:href="#f0_1x" transform="matrix(36.3,0,0,36.3,235.7,1059.2)" />
<use xlink:href="#f0_2e" transform="matrix(36.3,0,0,36.3,266.5,1059.2)" />
<use xlink:href="#f0_2a" transform="matrix(36.3,0,0,36.3,284.9,1059.2)" />
<use xlink:href="#f0_17" transform="matrix(36.3,0,0,36.3,315.8,1059.2)" />
<use xlink:href="#f0_2h" transform="matrix(36.3,0,0,36.3,358.9,1059.2)" />
<use xlink:href="#f0_25" transform="matrix(36.3,0,0,36.3,389.7,1059.2)" />
<use xlink:href="#f0_20" transform="matrix(36.3,0,0,36.3,402,1059.2)" />
<use xlink:href="#f0_21" transform="matrix(36.3,0,0,36.3,432.8,1059.2)" />
<use xlink:href="#f0_i" transform="matrix(36.3,0,0,36.3,463.7,1059.2)" />
<use xlink:href="#f0_25" transform="matrix(36.3,0,0,36.3,479.1,1059.2)" />
<use xlink:href="#f0_2a" transform="matrix(36.3,0,0,36.3,491.4,1059.2)" />
</g>
<defs>
<path d="M593,101c0,0,182,0,279,112c0,0,98,113,98,318c0,0,0,196,-98,308c0,0,-98,112,-277,112c0,0,-181,0,-279,-110c0,0,-99,-111,-99,-310c0,0,0,-198,100,-314c0,0,99,-116,276,-116Zm0,-115c0,0,-162,0,-279,65c0,0,-118,66,-180,190c0,0,-62,124,-62,290c0,0,0,252,138,394c0,0,138,142,385,142c0,0,160,0,278,-64c0,0,118,-64,180,-185c0,0,62,-122,62,-287c0,0,0,-165,-63,-289c0,0,-63,-124,-181,-190c0,0,-118,-66,-278,-66Z" 
id="f0_1f"
transform="scale(0.001,-0.001)" />

<path d="M106,0V635c0,0,0,141,-5,173H228c0,0,1,-4,2,-21c0,0,1,-16,2,-37c0,0,1,-22,2,-81h2c0,0,47,84,108,119c0,0,60,34,151,34c0,0,132,0,194,-66c0,0,61,-66,61,-218V0H615V512c0,0,0,80,-15,124c0,0,-16,44,-50,63c0,0,-35,20,-101,20c0,0,-97,0,-153,-67c0,0,-56,-66,-56,-184V0Z" 
id="f0_2a"
transform="scale(0.001,-0.001)" />

<path d="M103,0V1107H237V0Z" 
id="f0_28"
transform="scale(0.001,-0.001)" />

<path d="M102,0V808H236V0Zm0,979v128H236V979Z" 
id="f0_25"
transform="scale(0.001,-0.001)" />

<path d="M643,478c0,0,-11,128,-65,187c0,0,-54,59,-154,59c0,0,-98,0,-155,-66c0,0,-57,-65,-62,-180ZM431,-14c0,0,-179,0,-272,106c0,0,-94,107,-94,317c0,0,0,200,94,307c0,0,93,106,267,106c0,0,356,0,356,-429V375H206c0,0,0,-138,57,-213c0,0,58,-75,168,-75c0,0,87,0,140,35c0,0,53,35,71,88L760,177c0,0,-72,-191,-329,-191Z" 
id="f0_21"
transform="scale(0.001,-0.001)" />

<path d="M17,0L304,415L31,808H179L380,493L580,808H730L457,417L747,0H598L380,331L162,0Z" 
id="f0_2k"
transform="scale(0.001,-0.001)" />

<path d="M339,87c0,0,74,0,132,34c0,0,57,33,90,91c0,0,34,59,34,121v66L448,396c0,0,-95,-2,-144,-19c0,0,-49,-18,-75,-55c0,0,-26,-38,-26,-98c0,0,0,-65,35,-101c0,0,36,-36,101,-36ZM309,-14c0,0,-122,0,-183,64c0,0,-61,64,-61,176c0,0,0,125,82,192c0,0,83,67,266,72l182,3v44c0,0,0,98,-42,141c0,0,-42,43,-132,43c0,0,-90,0,-131,-31c0,0,-41,-31,-49,-98L101,604c0,0,34,218,323,218c0,0,153,0,229,-70c0,0,77,-69,77,-202V202c0,0,0,-59,16,-90c0,0,16,-30,60,-30c0,0,19,0,44,5V4C850,4,799,-7,746,-7c0,0,-75,0,-109,38c0,0,-33,40,-38,124h-4C595,155,543,62,475,24c0,0,-68,-38,-166,-38Z" 
id="f0_1x"
transform="scale(0.001,-0.001)" />

<path d="M106,0V635c0,0,0,141,-5,173H228c0,0,1,-4,2,-21c0,0,1,-16,2,-37c0,0,1,-22,2,-81h2c0,0,44,86,100,120c0,0,56,33,136,33c0,0,92,0,145,-36c0,0,54,-37,75,-117h2c0,0,42,82,101,117c0,0,59,36,143,36c0,0,123,0,178,-66c0,0,56,-67,56,-218V0H1039V512c0,0,0,117,-32,162c0,0,-32,45,-116,45c0,0,-88,0,-136,-66c0,0,-49,-65,-49,-185V0H573V512c0,0,0,117,-32,162c0,0,-32,45,-116,45c0,0,-86,0,-136,-66c0,0,-50,-66,-50,-185V0Z" 
id="f0_29"
transform="scale(0.001,-0.001)" />

<path d="M453,84c0,0,100,0,146,74c0,0,46,73,46,247c0,0,0,169,-46,241c0,0,-45,73,-145,73c0,0,-80,0,-125,-34c0,0,-45,-34,-68,-105c0,0,-24,-71,-24,-186c0,0,0,-159,51,-234c0,0,51,-76,165,-76ZM103,-316V643c0,0,0,124,-5,165H228c0,0,1,-3,3,-22c0,0,1,-18,3,-56c0,0,2,-38,2,-52h3c0,0,36,75,94,110c0,0,59,34,156,34c0,0,149,0,223,-100c0,0,74,-100,74,-314c0,0,0,-422,-297,-422c0,0,-187,0,-251,140h-4c0,0,3,-6,3,-126V-316Z" 
id="f0_2c"
transform="scale(0.001,-0.001)" />

<path d="M420,84c0,0,121,0,173,78c0,0,52,77,52,243c0,0,0,167,-50,243c0,0,-50,76,-167,76c0,0,-118,0,-170,-78c0,0,-53,-77,-53,-241c0,0,0,-160,52,-241c0,0,52,-80,163,-80Zm1,-98c0,0,-176,0,-267,107c0,0,-90,108,-90,312c0,0,0,417,362,417c0,0,185,0,272,-102c0,0,88,-101,88,-315c0,0,0,-212,-94,-316C692,89,599,-14,421,-14Z" 
id="f0_2b"
transform="scale(0.001,-0.001)" />

<path d="M278,-11c0,0,-162,0,-162,182V710H23v98h99l39,181h90V808H400V710H251V200c0,0,0,-58,19,-82c0,0,19,-23,66,-23c0,0,27,0,77,10V6c0,0,-66,-17,-135,-17Z" 
id="f0_2g"
transform="scale(0.001,-0.001)" />

<path d="M432,92c0,0,96,0,156,66c0,0,61,65,61,169c0,0,0,103,-61,169c0,0,-60,66,-156,66c0,0,-95,0,-156,-66c0,0,-61,-66,-61,-169c0,0,0,-104,61,-169c0,0,61,-66,156,-66ZM425,-28c0,0,-176,0,-271,135c0,0,-95,136,-95,388c0,0,0,278,103,429c0,0,103,151,293,151c0,0,142,0,226,-77c0,0,84,-76,90,-211H638c0,0,-8,80,-56,123c0,0,-47,43,-127,43c0,0,-125,0,-192,-119c0,0,-58,-102,-64,-278c0,0,100,127,255,127c0,0,152,0,245,-98c0,0,93,-98,93,-258c0,0,0,-161,-101,-259c0,0,-101,-96,-266,-96Z" 
id="f1_p"
transform="scale(0.001,-0.001)" />

<path d="M424,-28c0,0,-180,0,-272,86c0,0,-92,87,-100,266H192c0,0,12,-126,66,-180c0,0,55,-54,170,-54c0,0,100,0,163,57c0,0,64,57,64,147c0,0,0,94,-61,149c0,0,-52,48,-135,54c0,0,-38,2,-72,2c0,0,-34,0,-45,-3V613c0,0,17,-3,51,-3c0,0,35,0,68,4c0,0,66,8,106,43c0,0,55,45,55,125c0,0,0,77,-58,125c0,0,-58,48,-148,48c0,0,-96,0,-147,-58c0,0,-51,-59,-56,-175H82c0,0,0,168,89,260c0,0,88,93,250,93c0,0,153,0,247,-77c0,0,94,-76,94,-202c0,0,0,-124,-95,-201c0,0,-18,-15,-39,-27c0,0,39,-17,69,-41c0,0,101,-79,101,-214c0,0,0,-151,-105,-246c0,0,-104,-95,-269,-95Z" 
id="f1_m"
transform="scale(0.001,-0.001)" />

<path d="M133,0V162H292V0Z" 
id="f1_h"
transform="scale(0.001,-0.001)" />

<path d="M139,0V1097H287V0Z" 
id="f1_18"
transform="scale(0.001,-0.001)" />

<path d="M132,0V687H22V799H132V935c0,0,0,88,52,133c0,0,52,45,157,45l59,-3V989l-53,2c0,0,-39,0,-60,-24c0,0,-21,-25,-21,-71V799H400V687H266V0Z" 
id="f1_21"
transform="scale(0.001,-0.001)" />

<path d="M39,0V0c0,0,0,170,84,277c0,0,85,108,317,236c0,0,113,62,154,115c0,0,41,52,41,134c0,0,0,86,-62,141c0,0,-61,54,-156,54c0,0,-101,0,-158,-68c0,0,-57,-68,-60,-194H67c0,0,-2,178,95,279c0,0,98,101,273,101c0,0,149,0,245,-89c0,0,94,-88,94,-228c0,0,0,-118,-60,-195c0,0,-61,-76,-229,-169C485,394,303,294,237,212c0,0,-28,-36,-46,-81H774V0Z" 
id="f1_l"
transform="scale(0.001,-0.001)" />

<path d="M424,92c0,0,114,0,170,107c0,0,57,108,56,323c0,0,1,216,-56,324c0,0,-56,107,-170,107c0,0,-112,0,-168,-107c0,0,-56,-108,-57,-324c0,0,1,-215,57,-323c0,0,56,-107,168,-107Zm0,-120c0,0,-176,0,-271,142c0,0,-96,143,-96,408c0,0,0,265,96,409c0,0,95,144,271,144c0,0,178,0,273,-144c0,0,96,-144,96,-409c0,0,0,-265,-96,-408c0,0,-95,-142,-273,-142Z" 
id="f1_j"
transform="scale(0.001,-0.001)" />

<path d="M292,-9c0,0,-88,0,-124,38c0,0,-36,39,-36,134V689H22V799H132v224H266V799H392V689H266V163c0,0,0,-27,21,-43c0,0,21,-15,57,-15h48V1C392,1,324,-9,292,-9Z" 
id="f1_2f"
transform="scale(0.001,-0.001)" />

<path d="M335,90c0,0,106,0,179,57c0,0,50,41,67,91c0,0,3,10,4,31c0,0,3,21,3,47v87c0,0,-38,-18,-83,-25L381,360c0,0,-97,-13,-142,-45c0,0,-44,-31,-44,-86c0,0,0,-67,36,-103c0,0,37,-36,104,-36ZM309,-20c0,0,-117,0,-186,61c0,0,-68,63,-68,169c0,0,0,108,64,171c0,0,65,64,189,79l183,23c0,0,22,3,42,8c0,0,26,7,40,27c0,0,15,20,15,51v6c0,0,0,64,-49,101c0,0,-48,36,-135,36c0,0,-83,0,-130,-38c0,0,-46,-39,-56,-115H94c0,0,10,131,92,197c0,0,83,66,238,66c0,0,145,0,222,-63c0,0,76,-63,76,-184V137c0,0,0,-21,12,-33c0,0,12,-12,33,-12c0,0,6,0,18,1c0,0,11,2,25,5V1c0,0,-20,-7,-41,-11c0,0,-22,-5,-37,-5c0,0,-76,0,-110,41c0,0,-22,28,-32,79c0,0,-15,-19,-34,-36c0,0,-101,-89,-247,-89Z" 
id="f1_1w"
transform="scale(0.001,-0.001)" />

<path d="M99,0V799H226V681l30,39c0,0,87,102,219,102c0,0,132,0,203,-71c0,0,72,-72,72,-204V0H616V502c0,0,0,105,-41,151c0,0,-40,47,-132,47c0,0,-97,0,-154,-73c0,0,-56,-74,-56,-199V0Z" 
id="f1_29"
transform="scale(0.001,-0.001)" />

<path d="M411,93c0,0,98,0,158,73c0,0,60,74,60,195c0,0,0,163,-57,252c0,0,-56,88,-161,88c0,0,-113,0,-165,-72c0,0,-52,-72,-52,-229c0,0,0,-147,56,-227c0,0,56,-80,161,-80ZM404,-20c0,0,-161,0,-255,118c0,0,-95,120,-95,324c0,0,0,179,92,290c0,0,91,110,239,110c0,0,147,0,233,-124l11,-15v414H763V0H638V109L621,84C621,84,538,-20,404,-20Z" 
id="f1_1z"
transform="scale(0.001,-0.001)" />

<path d="M104,0V799H238V0Zm-2,946v152H239V946Z" 
id="f1_24"
transform="scale(0.001,-0.001)" />

<path d="M393,-20c0,0,-169,0,-252,65c0,0,-83,67,-92,210H178c0,0,10,-85,61,-123c0,0,50,-38,154,-38c0,0,90,0,136,34c0,0,47,35,47,100c0,0,0,42,-31,64c0,0,-30,21,-123,43L283,368c0,0,-112,27,-160,75c0,0,-48,48,-48,135c0,0,0,112,80,178c0,0,81,66,218,66c0,0,140,0,222,-68c0,0,82,-67,88,-187H557c0,0,-6,67,-55,103c0,0,-48,37,-129,37c0,0,-84,0,-127,-29c0,0,-44,-29,-44,-85c0,0,0,-43,31,-65c0,0,30,-21,121,-43L493,452c0,0,117,-28,167,-78c0,0,49,-49,49,-138c0,0,0,-119,-86,-188c0,0,-85,-68,-230,-68Z" 
id="f1_2e"
transform="scale(0.001,-0.001)" />

<path d="M99,0V1097H233V690l23,30c0,0,87,102,219,102c0,0,132,0,203,-71c0,0,72,-72,72,-204V0H616V514c0,0,0,99,-38,142c0,0,-38,44,-124,44c0,0,-102,0,-162,-73c0,0,-59,-74,-59,-199V0Z" 
id="f1_23"
transform="scale(0.001,-0.001)" />

<path d="M649,461c0,0,-6,111,-55,172c0,0,-55,69,-160,69c0,0,-106,0,-170,-79c0,0,-50,-62,-60,-162ZM425,-20c0,0,-169,0,-266,106c0,0,-97,107,-97,297c0,0,0,201,102,320c0,0,103,119,276,119c0,0,157,0,253,-116c0,0,96,-117,96,-306l-1,-48H204c0,0,8,-119,54,-182c0,0,57,-76,180,-76c0,0,77,0,134,43c0,0,58,43,70,110H775C775,247,746,116,656,47c0,0,-90,-67,-231,-67Z" 
id="f1_20"
transform="scale(0.001,-0.001)" />

<path d="M152,-323c-8,0,-38,1,-63,8v125c0,0,30,-11,77,-12c0,0,45,0,76,37c0,0,30,38,69,140l2,12v1L17,799H170L383,139L600,799H747L443,-25c0,0,-70,-184,-125,-241c0,0,-55,-57,-164,-57c0,0,-1,0,-2,0Z" 
id="f1_2k"
transform="scale(0.001,-0.001)" />

<path d="M316,27c0,0,57,0,105,53c0,0,65,72,125,295c0,0,-40,153,-104,214c0,0,-63,61,-129,61c0,0,-73,0,-122,-80c0,0,-48,-80,-48,-255c0,0,0,-104,20,-163c0,0,21,-60,64,-92c0,0,42,-33,89,-33Zm4,-49c0,0,-165,0,-243,108C77,86,0,196,0,336c0,0,0,164,91,265c0,0,91,102,213,102c0,0,85,0,150,-52c0,0,65,-51,118,-192l65,224H760L662,344c0,0,-9,-32,-30,-100c0,0,29,-115,43,-137c0,0,27,-41,68,-41c0,0,30,0,55,24c0,0,26,25,34,77h30C862,167,852,60,817,19c0,0,-35,-40,-81,-40c0,0,-42,0,-77,34c0,0,-35,36,-62,154c0,0,-33,-65,-65,-99C532,68,488,22,437,0c0,0,-52,-22,-117,-22Z" 
id="f2_1x"
transform="scale(0.001,-0.001)" />

<path d="M0,-123V1415H525v-72H72V-123Z" 
id="f2_4r"
transform="scale(0.001,-0.001)" />

<path d="M478,-123V1343H26v72H550V-123Z" 
id="f2_57"
transform="scale(0.001,-0.001)" />

<path d="M0,356v74H784V356Z" 
id="f2_h"
transform="scale(0.001,-0.001)" />

<path d="M0,-123V1415H72V-123Z" 
id="f2_4s"
transform="scale(0.001,-0.001)" />

<path d="M0,-123V1415H72V-123Z" 
id="f2_58"
transform="scale(0.001,-0.001)" />

<path d="M0,214v74H784V214ZM0,494v72H784V494Z" 
id="f2_x"
transform="scale(0.001,-0.001)" />

<path d="M0,-123V1415H72V-51H525v-72Z" 
id="f2_4t"
transform="scale(0.001,-0.001)" />

<path d="M26,-123v72H478V1415h72V-123Z" 
id="f2_59"
transform="scale(0.001,-0.001)" />

<path d="M780,449L714,934L435,449ZM22,0L673,1097H839L998,0H839L797,318H359L178,0Z" 
id="f3_10"
transform="scale(0.001,-0.001)" />

<path d="M-46,0l10,26c0,0,62,2,82,11c0,0,33,13,48,35c0,0,25,36,51,126L318,810c0,0,23,76,23,115c0,0,0,20,-10,33c0,0,-10,13,-29,21c0,0,-20,7,-78,7l9,26H619l-8,-26h-2c-8,0,-48,-1,-69,-12c0,0,-33,-16,-51,-46c0,0,-17,-30,-45,-132L271,185c0,0,-23,-78,-23,-100c0,0,0,-17,9,-29c0,0,9,-12,30,-19c0,0,20,-6,85,-11L364,0Z" 
id="f4_19"
transform="scale(0.001,-0.001)" />

<path d="M99,0V799H226V680l28,36c0,0,90,106,215,106c0,0,107,0,171,-63c0,0,28,-28,44,-65l21,28c0,0,87,100,208,100c0,0,125,0,194,-68c0,0,68,-68,68,-194V0H1041V515c0,0,0,91,-37,138c0,0,-38,47,-110,47c0,0,-87,0,-139,-68c0,0,-52,-68,-52,-183V0H569V547c0,0,0,75,-34,114c0,0,-34,39,-99,39c0,0,-89,0,-146,-76c0,0,-57,-76,-57,-196V0Z" 
id="f1_28"
transform="scale(0.001,-0.001)" />

<path d="M118,0V799H246V662c0,0,17,32,36,58c0,0,76,102,187,102c0,0,19,0,38,-6V679l-27,1c0,0,-109,0,-168,-66c0,0,-60,-65,-60,-186V0Z" 
id="f1_2d"
transform="scale(0.001,-0.001)" />

<path d="M17,0L301,412L32,799H205L389,514L574,799H740L471,410L749,0H581L382,305L186,0Z" 
id="f1_2j"
transform="scale(0.001,-0.001)" />

<path d="M424,94c0,0,107,0,169,83c0,0,63,83,63,223c0,0,0,140,-63,224c0,0,-62,83,-169,83c0,0,-106,0,-168,-83c0,0,-62,-84,-62,-224c0,0,0,-140,62,-223c0,0,62,-83,168,-83Zm0,-114c0,0,-165,0,-268,115C156,95,54,211,54,400c0,0,0,189,102,306c0,0,103,116,268,116c0,0,168,0,270,-116c0,0,102,-117,102,-306c0,0,0,-189,-102,-305C694,95,592,-20,424,-20Z" 
id="f1_2a"
transform="scale(0.001,-0.001)" />

<path d="M133,-224v71c0,0,47,8,65,52c0,0,14,33,17,101H133V163H292V27c0,0,0,-114,-36,-172c0,0,-37,-58,-123,-79Z" 
id="f1_f"
transform="scale(0.001,-0.001)" />

<path d="M248,0L21,799H169L322,163L478,799H627L788,158L950,799h133L857,0H713L548,624L392,0Z" 
id="f1_2i"
transform="scale(0.001,-0.001)" />

<path d="M412,-328c0,0,-195,96,-303,284C109,-44,0,142,0,365c0,0,0,232,114,422c0,0,114,191,298,273v-31c0,0,-92,-51,-151,-139c0,0,-59,-88,-88,-223c0,0,-29,-136,-29,-282c0,0,0,-167,27,-301c0,0,26,-133,82,-221c0,0,55,-89,159,-159v-32Z" 
id="f2_c"
transform="scale(0.001,-0.001)" />

<path d="M34,-328v32c0,0,92,50,151,138c0,0,59,88,88,222c0,0,29,135,29,283c0,0,0,165,-27,300c0,0,-26,134,-82,222c0,0,-56,89,-159,160v31c0,0,194,-96,303,-284c0,0,108,-187,108,-410c0,0,0,-232,-114,-422c0,0,-114,-191,-297,-272Z" 
id="f2_d"
transform="scale(0.001,-0.001)" />

<path d="M394,-20c0,0,-159,0,-253,113c0,0,-95,114,-95,307c0,0,0,193,98,308c0,0,98,114,264,114c0,0,144,0,230,-78c0,0,85,-79,91,-217H600c0,0,-8,86,-59,133c0,0,-52,47,-138,47c0,0,-101,0,-159,-82c0,0,-58,-82,-58,-225c0,0,0,-152,54,-229c0,0,53,-77,159,-77c0,0,79,0,132,50c0,0,52,51,69,143H729C729,287,709,137,623,58c0,0,-86,-78,-229,-78Z" 
id="f1_1y"
transform="scale(0.001,-0.001)" />

<path d="M355,0V355H0v72H355V784h72V427H782V355H427V0Z" 
id="f2_f"
transform="scale(0.001,-0.001)" />

<path d="M511,373V863L169,383l-7,-10ZM511,0V258H38V383l496,691H646V373H799V258H646V0Z" 
id="f1_n"
transform="scale(0.001,-0.001)" />

<path d="M553,-29c0,0,-211,0,-321,109c0,0,-111,110,-111,322v695H270V413c0,0,0,-153,72,-233c0,0,73,-79,211,-79c0,0,139,0,211,79c0,0,72,80,72,233v684H985V402c0,0,0,-203,-115,-318C870,84,756,-29,553,-29Z" 
id="f1_1k"
transform="scale(0.001,-0.001)" />

<path d="M103,0V1097H237V0Z" 
id="f1_27"
transform="scale(0.001,-0.001)" />

<path d="M310,0L12,799H168L383,145L604,799H752L454,0Z" 
id="f1_2h"
transform="scale(0.001,-0.001)" />

<path d="M418,95c0,0,98,0,158,73c0,0,59,73,59,193c0,0,0,170,-54,254c0,0,-54,85,-163,85c0,0,-113,0,-165,-72c0,0,-52,-71,-52,-227c0,0,0,-147,57,-227c0,0,56,-79,160,-79ZM394,-336c0,0,-136,0,-216,62c0,0,-79,63,-96,182H219c0,0,12,-64,57,-98c0,0,45,-35,116,-35c0,0,116,0,176,73c0,0,61,73,61,211V85l-1,-1C628,84,545,-20,412,-20c0,0,-161,0,-256,118c0,0,-94,120,-94,324c0,0,0,179,93,290c0,0,93,110,244,110c0,0,144,0,228,-124l10,-14V799H763V59c0,0,-1,-201,-91,-298c0,0,-91,-97,-278,-97Z" 
id="f1_22"
transform="scale(0.001,-0.001)" />

<path d="M406,93c0,0,97,0,156,73c0,0,59,74,59,195c0,0,0,163,-56,252c0,0,-55,88,-158,88c0,0,-111,0,-162,-72c0,0,-51,-73,-51,-229c0,0,0,-147,55,-227c0,0,55,-80,157,-80ZM621,-315V93l-7,-9C614,84,532,-20,400,-20c0,0,-159,0,-253,118c0,0,-93,119,-93,323c0,0,0,180,90,291c0,0,91,110,237,110c0,0,146,0,231,-124c0,0,10,-14,17,-29V799H755V-315Z" 
id="f1_2c"
transform="scale(0.001,-0.001)" />

<path d="M375,-20c0,0,-136,0,-203,66c0,0,-68,68,-68,204V799H238V284c0,0,0,-101,38,-146c0,0,39,-44,127,-44c0,0,97,0,153,75c0,0,57,75,57,203V799H747V0H620V122c0,0,-14,-22,-30,-41C590,81,504,-20,375,-20Z" 
id="f1_2g"
transform="scale(0.001,-0.001)" />

<path d="M133,0V162H292V0Zm0,628V790H292V628Z" 
id="f1_t"
transform="scale(0.001,-0.001)" />

<path d="M417,-28c0,0,-161,0,-259,79c0,0,-98,81,-109,223H189c0,0,11,-90,72,-139c0,0,61,-49,162,-49c0,0,96,0,158,68c0,0,61,68,61,175c0,0,0,112,-64,178c0,0,-64,66,-173,66c0,0,-59,0,-115,-28c0,0,-55,-29,-84,-73L93,480l77,573H727V922H271L225,629l4,3c0,0,89,60,188,60c0,0,169,0,269,-94c0,0,99,-93,99,-253c0,0,0,-165,-103,-269C682,76,579,-28,417,-28Z" 
id="f1_o"
transform="scale(0.001,-0.001)" />

<path d="M17,0L389,412L201,800H376L500,518L742,800H904L554,410L750,0H580L448,303L187,0Z" 
id="f3_2j"
transform="scale(0.001,-0.001)" />

<path d="M0,368V478H849V368Z" 
id="f1_99"
transform="scale(0.001,-0.001)" />

<path d="M212,0c0,0,51,270,162,500c0,0,109,222,281,422H57v131H799V934C799,934,623,726,515,498C515,498,408,269,362,0Z" 
id="f1_q"
transform="scale(0.001,-0.001)" />

<path d="M99,-328c0,0,-46,0,-76,13l25,123c0,0,29,-14,81,-14c0,0,47,0,76,31c0,0,28,31,106,162L185,800H339L415,141L769,800H918L456,0C456,0,329,-216,269,-272c0,0,-61,-56,-170,-56Z" 
id="f3_2k"
transform="scale(0.001,-0.001)" />

<path d="M60,174V286H832V174Zm0,309V595H832V483Z" 
id="f1_w"
transform="scale(0.001,-0.001)" />

<path d="M102,0c0,0,22,54,31,110c0,0,10,55,10,135V922c0,0,0,81,-10,136c0,0,-9,55,-31,109H492c0,0,-23,-54,-32,-109c0,0,-9,-55,-9,-136V208c0,0,98,6,169,20c0,0,126,24,238,84L794,156L729,0Z" 
id="f5_1b"
transform="scale(0.001,-0.001)" />

<path d="M822,206c14,0,28,0,42,1c0,0,53,50,87,150c0,0,34,101,34,210c0,0,0,188,-132,297c0,0,-113,95,-296,95c-13,0,-27,-1,-42,-2c0,0,-53,-49,-86,-150c0,0,-34,-102,-34,-212c0,0,0,-186,132,-295c0,0,114,-94,295,-94ZM690,-20c0,0,-276,0,-452,168C238,148,63,317,63,581c0,0,0,266,175,435c0,0,176,169,452,169c0,0,277,0,452,-169c0,0,175,-169,175,-435c0,0,0,-264,-175,-433c0,0,-175,-168,-452,-168Z" 
id="f5_1e"
transform="scale(0.001,-0.001)" />

<path d="M108,0c0,0,22,54,31,110c0,0,10,55,10,135V985L-5,1167H418c0,0,21,-44,54,-99c0,0,34,-55,96,-146L857,495V922c0,0,0,81,-9,136c0,0,-9,55,-32,109h378c0,0,-23,-54,-32,-109c0,0,-9,-55,-9,-136V351c0,0,0,-76,11,-178c0,0,11,-101,27,-173H845c0,0,-7,25,-28,67c0,0,-21,42,-45,78L444,628V245c0,0,0,-80,9,-135c0,0,10,-56,32,-110Z" 
id="f5_1d"
transform="scale(0.001,-0.001)" />

<path d="M713,-20c0,0,-282,0,-462,158C251,138,70,297,70,546c0,0,0,281,186,460c0,0,186,179,477,179c0,0,102,0,165,-10c0,0,63,-11,151,-42V831c0,0,-63,58,-151,92c0,0,-87,34,-172,34c0,0,-142,0,-232,-105c0,0,-91,-105,-91,-270c0,0,0,-165,85,-270c0,0,85,-105,218,-105c0,0,42,1,87,12V373c0,0,0,81,-9,136c0,0,-10,55,-32,110h390c0,0,-22,-55,-32,-110c0,0,-9,-56,-9,-136V170c0,0,0,-32,9,-59c0,0,9,-27,31,-59V46c0,0,-186,-64,-428,-66Z" 
id="f5_16"
transform="scale(0.001,-0.001)" />

<path d="M693,499L573,830L462,499ZM-39,0c0,0,33,42,61,97c0,0,30,55,71,148l314,761c0,0,22,51,38,98c0,0,15,47,17,63H721c0,0,2,-16,18,-63c0,0,15,-47,37,-98L1091,245c0,0,41,-95,70,-150c0,0,30,-55,60,-95H849c0,0,3,25,-3,55c0,0,-6,30,-24,80L765,295H393L340,135c0,0,-17,-50,-22,-80c0,0,-5,-30,-2,-55Z" 
id="f5_10"
transform="scale(0.001,-0.001)" />

<path d="M367,-20c0,0,-85,0,-142,12C225,-8,167,2,83,35V332c0,0,41,-55,107,-90c0,0,66,-35,130,-35c0,0,51,0,84,31c0,0,32,31,32,81c0,0,0,49,-23,86c0,0,-22,37,-82,83c0,0,-126,98,-184,181c0,0,-57,82,-57,165c0,0,0,155,106,253c0,0,106,98,272,98c0,0,62,0,133,-13c0,0,71,-13,120,-33V867c0,0,-59,49,-104,70c0,0,-46,20,-94,20c0,0,-47,0,-76,-24c0,0,-29,-25,-29,-63c0,0,0,-41,20,-73c0,0,21,-31,75,-73c0,0,130,-101,189,-189c0,0,59,-87,59,-180c0,0,0,-165,-110,-270C651,85,541,-20,367,-20Z" 
id="f5_1i"
transform="scale(0.001,-0.001)" />

<path d="M324,0L78,922c0,0,-23,85,-44,140c0,0,-22,55,-50,105H376c0,0,-7,-56,-7,-99c0,0,1,-42,11,-89L479,513L610,998c0,0,11,42,21,91c0,0,10,49,13,78H861c0,0,4,-36,12,-85c0,0,9,-50,18,-84L1021,492l115,540c0,0,8,33,6,63c0,0,-1,31,-12,72h378c0,0,-30,-50,-52,-105c0,0,-21,-56,-45,-140L1166,0H925L741,597L565,0Z" 
id="f5_1m"
transform="scale(0.001,-0.001)" />

<path d="M102,0c0,0,22,54,31,110c0,0,10,55,10,135V922c0,0,0,81,-10,136c0,0,-9,55,-31,109H823L766,1041L709,913c0,0,-42,20,-137,36c0,0,-62,9,-121,13V697H798L728,569L657,441c0,0,-45,21,-131,36c0,0,-38,8,-75,11V206c0,0,117,6,201,22c0,0,126,24,239,84L827,156L762,0Z" 
id="f5_14"
transform="scale(0.001,-0.001)" />

<path d="M452,645c0,0,85,0,139,47c0,0,54,47,54,121c0,0,0,66,-51,107c0,0,-51,42,-132,42H442V645ZM93,0c0,0,22,54,32,110c0,0,9,55,9,135V922c0,0,0,81,-9,136c0,0,-10,55,-32,109H498c0,0,215,0,332,-90c0,0,117,-90,117,-256c0,0,0,-159,-129,-253c0,0,-46,-34,-103,-54L902,246c0,0,57,-82,107,-137c0,0,50,-55,115,-109H803c0,0,-30,0,-104,83c0,0,-73,83,-149,202L442,461V246c0,0,0,-81,9,-136c0,0,10,-56,32,-110Z" 
id="f5_1h"
transform="scale(0.001,-0.001)" />

<path d="M289,0c0,0,26,60,37,116c0,0,9,55,9,129V961c0,0,-94,-3,-160,-9c0,0,-116,-13,-188,-44l41,130l41,129H981L946,1042L912,917c0,0,-45,18,-154,32c0,0,-58,8,-115,11V245c0,0,0,-74,11,-129c0,0,10,-56,35,-116Z" 
id="f5_1j"
transform="scale(0.001,-0.001)" />

<path d="M319,0c0,0,22,54,31,110c0,0,10,55,10,135V518L134,922c0,0,-57,100,-95,155c0,0,-37,55,-71,90H351c0,0,4,-29,12,-53c0,0,7,-24,22,-54L517,787l152,273c0,0,14,25,23,49c0,0,9,24,16,58h354c0,0,-35,-33,-73,-88c0,0,-38,-56,-99,-157L668,536V245c0,0,0,-80,9,-135c0,0,9,-56,32,-110Z" 
id="f5_1o"
transform="scale(0.001,-0.001)" />

<path d="M462,650c0,0,82,0,133,46c0,0,52,47,52,119c0,0,0,65,-48,106c0,0,-49,41,-125,41H452V650ZM103,0c0,0,22,54,32,110c0,0,9,55,9,135V922c0,0,0,81,-10,136c0,0,-9,55,-31,109H505c0,0,212,0,327,-93c0,0,114,-94,114,-268c0,0,0,-166,-127,-264c0,0,-127,-97,-343,-97H452V246c0,0,0,-81,9,-136c0,0,9,-56,32,-110Z" 
id="f5_1f"
transform="scale(0.001,-0.001)" />

<path d="M821,206c13,0,26,0,40,1c0,0,53,33,86,127c0,0,34,94,34,210c0,0,0,198,-131,314c0,0,-114,101,-297,101c-13,0,-27,-1,-40,-2c0,0,-53,-49,-87,-144c0,0,-33,-95,-33,-195c0,0,0,-197,131,-312c0,0,115,-100,297,-100Zm413,-442c-84,0,-186,15,-288,68c0,0,-113,58,-202,151c0,0,-22,-3,-48,-3c-3,0,-6,0,-9,0c0,0,-276,0,-452,168C235,148,60,316,60,581c0,0,0,266,175,435c0,0,176,169,452,169c0,0,277,0,452,-169c0,0,175,-169,175,-435c0,0,0,-265,-176,-433c0,0,-29,-28,-59,-51c0,0,51,-79,111,-141c0,0,104,-109,233,-165c0,0,-78,-27,-189,-27Z" 
id="f5_1g"
transform="scale(0.001,-0.001)" />

<path d="M512,-17c0,0,-191,0,-285,112c0,0,-94,113,-93,341V922c0,0,0,81,-9,136c0,0,-10,55,-32,109H483c0,0,-22,-54,-32,-109c0,0,-9,-56,-9,-136V502c0,0,0,-147,43,-219c0,0,43,-72,130,-72c0,0,85,0,127,62c0,0,42,61,42,187V922c0,0,0,80,-9,136c0,0,-10,55,-32,109h390c0,0,-22,-54,-31,-109c0,0,-10,-55,-10,-136V245c0,0,0,-80,9,-135c0,0,10,-56,32,-110H815l6,86C821,86,703,-17,512,-17Z" 
id="f5_1k"
transform="scale(0.001,-0.001)" />

<path d="M105,0c0,0,22,54,32,110c0,0,9,55,9,135V922c0,0,0,80,-10,135c0,0,-9,55,-31,110H495c0,0,-23,-54,-32,-109c0,0,-9,-55,-9,-136V245c0,0,0,-80,9,-135c0,0,9,-56,32,-110Z" 
id="f5_18"
transform="scale(0.001,-0.001)" />

<path d="M449,-255c0,0,-184,222,-259,382c0,0,-75,160,-75,331c0,0,0,172,75,332c0,0,75,161,259,382H673c0,0,-156,-201,-220,-362c0,0,-64,-160,-64,-352c0,0,0,-192,64,-352c0,0,64,-160,220,-361Z" 
id="f5_b"
transform="scale(0.001,-0.001)" />

<path d="M509,204c0,0,67,0,111,43c0,0,45,42,45,105c0,0,0,66,-44,108c0,0,-43,42,-112,42c0,0,-66,0,-111,-44c0,0,-45,-43,-45,-106c0,0,0,-60,46,-104c0,0,46,-44,110,-44Zm0,-216c0,0,-188,0,-303,102C206,90,91,192,91,360c0,0,0,79,31,163c0,0,31,84,97,185l216,329c0,0,10,14,20,51c0,0,10,36,14,74H854c0,0,-29,-22,-65,-67c0,0,-35,-46,-94,-135L539,723c0,0,21,3,45,3c3,0,5,0,8,0c0,0,141,0,238,-101c0,0,97,-101,97,-247c0,0,0,-183,-111,-287C816,91,706,-12,509,-12Z" 
id="f5_p"
transform="scale(0.001,-0.001)" />

<path d="M90,0c0,0,22,54,32,110c0,0,9,55,9,135V996L-14,1167H428c0,0,2,-38,9,-63c0,0,8,-24,24,-44L752,691l296,369c0,0,23,28,33,53c0,0,10,24,11,54h346c0,0,-50,-120,-70,-208c0,0,-20,-88,-20,-184V245c0,0,0,-80,10,-135c0,0,9,-56,31,-110H999c0,0,23,54,32,110c0,0,9,55,9,135V675L741,291h-1L441,681V245c0,0,0,-80,9,-135c0,0,10,-56,32,-110Z" 
id="f5_1c"
transform="scale(0.001,-0.001)" />

<path d="M90,0c0,0,22,54,32,110c0,0,9,55,9,135V922c0,0,0,81,-9,136c0,0,-10,55,-32,109H480c0,0,-22,-54,-32,-109c0,0,-9,-55,-9,-136V739l269,348c0,0,23,27,33,45c0,0,11,18,14,35h396c0,0,-38,-23,-94,-79c0,0,-55,-55,-153,-166L651,635L957,245c0,0,84,-105,135,-160c0,0,51,-55,93,-85H749c0,0,-25,51,-60,107c0,0,-35,55,-95,138L439,463V245c0,0,0,-80,9,-135c0,0,10,-56,32,-110Z" 
id="f5_1a"
transform="scale(0.001,-0.001)" />

<path d="M115,-255c0,0,156,201,220,361c0,0,64,160,64,352c0,0,0,192,-64,352c0,0,-64,161,-220,362H339c0,0,184,-222,259,-383c0,0,75,-160,75,-331c0,0,0,-171,-75,-332c0,0,-75,-160,-259,-381Z" 
id="f5_c"
transform="scale(0.001,-0.001)" />

<path d="M594,101c0,0,171,0,277,123c0,0,105,123,105,324c0,0,0,201,-105,325c0,0,-106,123,-277,123c0,0,-171,0,-277,-123C317,873,212,749,212,548c0,0,0,-201,105,-324c0,0,106,-123,277,-123Zm0,-130c0,0,-239,0,-387,158C207,129,60,288,60,548c0,0,0,260,147,419c0,0,148,160,387,160c0,0,240,0,387,-160c0,0,147,-159,147,-419c0,0,0,-260,-147,-419C981,129,834,-29,594,-29Z" 
id="f1_1e"
transform="scale(0.001,-0.001)" />

<path d="M436,95c0,0,105,0,160,79c0,0,54,80,54,232c0,0,0,150,-52,222c0,0,-52,72,-161,72c0,0,-112,0,-163,-81c0,0,-51,-82,-51,-258c0,0,0,-127,55,-197c0,0,55,-69,158,-69Zm6,-115c0,0,-135,0,-215,102L215,98V0H89V1097H223V695c0,0,87,127,225,127c1,0,2,0,2,0c0,0,157,0,249,-108c0,0,91,-107,91,-291c0,0,0,-208,-92,-326C698,97,606,-20,442,-20Z" 
id="f1_1x"
transform="scale(0.001,-0.001)" />

<path d="M436,95c0,0,105,0,160,79c0,0,54,80,54,232c0,0,0,150,-52,222c0,0,-52,72,-161,72c0,0,-112,0,-163,-81c0,0,-51,-82,-51,-258c0,0,0,-127,55,-197c0,0,55,-69,158,-69ZM89,-315V799H216V685l7,10c0,0,86,127,228,127c0,0,156,0,248,-108c0,0,91,-107,91,-291c0,0,0,-208,-92,-326C698,97,606,-20,442,-20c0,0,-135,0,-215,102l-4,6V-315Z" 
id="f1_2b"
transform="scale(0.001,-0.001)" />

<path d="M406,0V763H155V870h2c16,0,114,2,178,48c0,0,70,51,104,157H549V0Z" 
id="f1_k"
transform="scale(0.001,-0.001)" />

<path d="M419,483c0,0,93,0,152,66c0,0,59,66,59,169c0,0,0,103,-59,169c0,0,-59,65,-152,65c0,0,-94,0,-153,-65c0,0,-59,-66,-59,-169c0,0,0,-103,59,-169c0,0,59,-66,153,-66ZM397,-28c0,0,-143,0,-227,75c0,0,-85,77,-91,211H209c0,0,8,-83,57,-128c0,0,49,-45,131,-45c0,0,121,0,186,135c0,0,48,101,62,265C645,485,545,362,397,362c0,0,-150,0,-241,98c0,0,-91,98,-91,258c0,0,0,160,99,258c0,0,99,98,262,98c0,0,173,0,266,-123c0,0,94,-123,94,-349c0,0,0,-303,-101,-467C685,135,583,-28,397,-28Z" 
id="f1_s"
transform="scale(0.001,-0.001)" />

<path d="M390,-1V329H60V441H390V771H503V441H833V329H503V-1Z" 
id="f1_e"
transform="scale(0.001,-0.001)" />

<path d="M47,0L58,55l11,55L675,688H237l11,56l11,56H869L857,745L846,690L245,111H740L729,56L718,0Z" 
id="f3_2l"
transform="scale(0.001,-0.001)" />

<path d="M528,-29c0,0,-215,0,-336,99C192,70,75,170,75,342v8H211c0,0,4,-119,87,-184c0,0,83,-65,231,-65c0,0,136,0,207,47c0,0,71,47,71,138c0,0,0,79,-47,118c0,0,-47,37,-187,71L382,520c0,0,-145,34,-207,96c0,0,-62,61,-62,169c0,0,0,158,107,250c0,0,107,92,289,92c0,0,185,0,295,-92c0,0,110,-93,117,-256H784c0,0,-9,104,-81,161c0,0,-72,56,-194,56c0,0,-125,0,-190,-48c0,0,-65,-49,-65,-142c0,0,0,-64,43,-95c0,0,43,-32,174,-62L662,603c0,0,154,-37,220,-108c0,0,65,-71,65,-201c0,0,0,-150,-113,-237c0,0,-113,-86,-306,-86Z" 
id="f1_1i"
transform="scale(0.001,-0.001)" />

<path d="M130,0L252,216H0v70H292L410,496H0v70H450L572,783h82L532,566H783V496H492L377,286H783V216H335L213,0Z" 
id="f2_3f"
transform="scale(0.001,-0.001)" />

<path d="M424,92c0,0,98,0,161,58c0,0,62,58,62,149c0,0,0,92,-62,151c0,0,-63,58,-161,58c0,0,-98,0,-160,-58c0,0,-63,-59,-63,-151c0,0,0,-91,63,-149c0,0,62,-58,160,-58Zm0,533c0,0,82,0,134,46c0,0,52,45,52,118c0,0,0,72,-52,118c0,0,-52,46,-134,46c0,0,-82,0,-134,-46c0,0,-52,-46,-52,-118c0,0,0,-73,52,-119c0,0,52,-45,134,-45Zm0,-653c0,0,-165,0,-265,90C159,62,59,154,59,305c0,0,0,134,100,216c0,0,35,28,78,47c0,0,-27,15,-52,33c0,0,-90,70,-90,185c0,0,0,130,90,209c0,0,91,80,239,80c0,0,148,0,238,-80c0,0,91,-79,91,-209c0,0,0,-115,-91,-185c0,0,-24,-19,-52,-32c0,0,44,-20,79,-49c0,0,101,-81,101,-215c0,0,0,-151,-101,-243c0,0,-100,-90,-265,-90Z" 
id="f1_r"
transform="scale(0.001,-0.001)" />

<path d="M160,0c0,0,-22,0,-32,9c0,0,-10,9,-10,22c0,0,0,14,10,23c0,0,10,9,32,9h84V811H160c0,0,-22,0,-32,8c0,0,-10,9,-10,23c0,0,0,14,12,24c0,0,8,7,30,7H850V658c0,0,0,-22,-9,-32c0,0,-9,-10,-22,-10c0,0,-14,0,-23,10c0,0,-9,10,-9,32V811H307V484H533v70c0,0,0,23,9,33c0,0,9,9,23,9c0,0,13,0,22,-9c0,0,8,-10,8,-33V351c0,0,0,-22,-8,-32c0,0,-9,-10,-22,-10c0,0,-14,0,-23,10c0,0,-9,10,-9,32v70H307V63H521c0,0,23,0,32,-9c0,0,10,-9,10,-23c0,0,0,-13,-10,-22c0,0,-9,-9,-32,-9Z" 
id="f6_16"
transform="scale(0.001,-0.001)" />

<path d="M183,0c0,0,-23,0,-32,9c0,0,-10,9,-10,22c0,0,0,14,10,23c0,0,9,9,32,9H429V584H246c0,0,-22,0,-32,9c0,0,-10,8,-10,22c0,0,0,14,10,22c0,0,10,9,32,9H492V63H738c0,0,23,0,33,-9c0,0,9,-9,9,-23c0,0,0,-13,-9,-22C771,9,761,0,738,0ZM397,806V968h93V806Z" 
id="f6_25"
transform="scale(0.001,-0.001)" />

<path d="M124,0c0,0,-22,0,-32,9C92,9,82,18,82,31c0,0,0,14,10,23c0,0,10,9,32,9h70V584H141c0,0,-23,0,-32,9c0,0,-10,8,-10,23c0,0,0,13,10,22c0,0,9,8,32,8H256V551c0,0,66,67,119,92c0,0,53,26,119,26c0,0,72,0,130,-31c0,0,42,-22,76,-74c0,0,34,-52,34,-106V63h53c0,0,22,0,32,-9c0,0,10,-9,10,-23c0,0,0,-13,-10,-22C819,9,809,0,787,0H619c0,0,-23,0,-33,9c0,0,-9,9,-9,22c0,0,0,14,9,23c0,0,10,9,33,9h52V448c0,0,0,66,-48,112c0,0,-48,46,-130,46c0,0,-62,0,-107,-25c0,0,-46,-25,-130,-124V63h70c0,0,22,0,32,-9c0,0,10,-9,10,-23c0,0,0,-13,-10,-22C358,9,348,0,326,0Z" 
id="f6_2a"
transform="scale(0.001,-0.001)" />

<path d="M430,38c0,0,111,0,192,83c0,0,81,82,81,201c0,0,0,120,-81,202c0,0,-81,82,-192,82c0,0,-112,0,-193,-82c0,0,-81,-82,-81,-202c0,0,0,-119,81,-201c0,0,81,-83,193,-83Zm-4,-61c0,0,-86,0,-164,44c0,0,-78,45,-123,128c0,0,-45,84,-45,173c0,0,0,89,45,173c0,0,45,83,123,128c0,0,78,46,164,46c0,0,165,0,277,-149V873H619c0,0,-23,0,-33,9c0,0,-9,9,-9,22c0,0,0,14,9,23c0,0,10,9,33,9H765V63h84c0,0,23,0,33,-9c0,0,9,-9,9,-23c0,0,0,-13,-9,-22C882,9,872,0,849,0H703V125C703,125,594,-23,426,-23Z" 
id="f6_20"
transform="scale(0.001,-0.001)" />

<path d="M225,0c0,0,2,129,51,312c0,0,48,183,139,352c0,0,91,170,193,286H72v129H780V975C780,975,676,864,573,680C573,680,470,495,414,301C414,301,374,163,363,0Z" 
id="f7_r"
transform="scale(0.001,-0.001)" />

<path d="M125,0V1051H268V115H799V0Z" 
id="f0_1c"
transform="scale(0.001,-0.001)" />

<path d="M106,0V620c0,0,0,85,-5,188H228c0,0,6,-138,6,-165h3c0,0,32,103,74,141c0,0,42,38,118,38c0,0,27,0,54,-7V692c0,0,-26,7,-71,7c0,0,-84,0,-128,-72c0,0,-44,-72,-44,-206V0Z" 
id="f0_2e"
transform="scale(0.001,-0.001)" />

<path d="M606,-14c0,0,-164,0,-284,65c0,0,-119,66,-182,189c0,0,-63,123,-63,291c0,0,0,255,137,396c0,0,137,140,386,140c0,0,174,0,283,-59c0,0,109,-59,168,-189L915,779c0,0,-44,90,-123,131c0,0,-79,41,-196,41c0,0,-182,0,-278,-110c0,0,-96,-110,-96,-310c0,0,0,-200,102,-315c0,0,102,-115,282,-115c0,0,103,0,193,31c0,0,89,31,144,85V407H629V526h445V164c0,0,-83,-85,-205,-132c0,0,-121,-46,-263,-46Z" 
id="f0_17"
transform="scale(0.001,-0.001)" />

<path d="M355,-14c0,0,-133,0,-194,65c0,0,-62,66,-62,219V808H234V296c0,0,0,-80,16,-124c0,0,16,-44,50,-64c0,0,34,-19,101,-19c0,0,97,0,153,66c0,0,55,67,55,185V808H744V172c0,0,0,-141,4,-172H621c0,0,0,4,-1,20c0,0,-1,17,-2,38c0,0,-1,21,-3,80h-2C613,138,567,55,506,20c0,0,-61,-34,-151,-34Z" 
id="f0_2h"
transform="scale(0.001,-0.001)" />

<path d="M395,89c0,0,115,0,166,79c0,0,51,79,51,246c0,0,0,160,-51,235c0,0,-51,75,-164,75c0,0,-102,0,-147,-75c0,0,-45,-75,-45,-244c0,0,0,-170,45,-243c0,0,45,-73,145,-73ZM361,-14c0,0,-153,0,-225,102c0,0,-72,103,-72,312c0,0,0,422,297,422c0,0,92,0,153,-33c0,0,61,-34,98,-107h2l-2,90v335H747V166c0,0,0,-126,4,-166H623c0,0,-2,12,-5,55c0,0,-3,44,-3,75h-3c0,0,-37,-78,-98,-111c0,0,-62,-33,-153,-33Z" 
id="f0_20"
transform="scale(0.001,-0.001)" />

<path d="M140,0V163H285V0Z" 
id="f0_i"
transform="scale(0.001,-0.001)" />


</defs>
</svg>