<?xml version="1.0" encoding="UTF-8" standalone="no"?>
<!DOCTYPE svg PUBLIC "-//W3C//DTD SVG 1.1//EN"
"http://www.w3.org/Graphics/SVG/1.1/DTD/svg11.dtd">
<svg viewBox="0 0 811 1133" version="1.1" xmlns="http://www.w3.org/2000/svg" xmlns:xlink="http://www.w3.org/1999/xlink">
<defs>
<style type="text/css"><![CDATA[
.g0_62{
fill: none;
stroke: #000000;
stroke-width: 0.38072222;
stroke-linecap: round;
stroke-linejoin: miter;
}
.g1_62{
fill: none;
stroke: #000000;
stroke-width: 0.3834111;
stroke-linecap: round;
stroke-linejoin: miter;
}
.g2_62{
fill: none;
stroke: #000000;
stroke-width: 0.7663334;
stroke-linecap: round;
stroke-linejoin: miter;
}
.g3_62{
fill: none;
stroke: #000000;
stroke-width: 0.76584446;
stroke-linecap: round;
stroke-linejoin: miter;
}
.g4_62{
fill: none;
stroke: #000000;
stroke-width: 0.38292223;
stroke-linecap: round;
stroke-linejoin: miter;
}
.g5_62{
fill: none;
stroke: #000000;
stroke-width: 0.7638889;
stroke-linecap: round;
stroke-linejoin: miter;
}
.g6_62{
fill: none;
stroke: #000000;
stroke-width: 0.15277778;
stroke-linecap: round;
stroke-linejoin: miter;
}
.g7_62{
}
.g8_62{
fill: none;
stroke: #000000;
stroke-width: 0.38194445;
stroke-linecap: round;
stroke-linejoin: miter;
}
.g9_62{
fill: none;
stroke: #000000;
stroke-width: 0.7616889;
stroke-linecap: round;
stroke-linejoin: miter;
}
]]></style>
</defs>
<g fill="#D4D4D4" fill-opacity="0.56" >
<use xlink:href="#f0_1f" transform="matrix(50.9,-50.9,50.9,50.9,199.9,924.1)" />
<use xlink:href="#f0_2a" transform="matrix(50.9,-50.9,50.9,50.9,260.4,863.6)" />
<use xlink:href="#f0_28" transform="matrix(50.9,-50.9,50.9,50.9,303.7,820.3)" />
<use xlink:href="#f0_25" transform="matrix(50.9,-50.9,50.9,50.9,320.9,803.1)" />
<use xlink:href="#f0_2a" transform="matrix(50.9,-50.9,50.9,50.9,338.2,785.8)" />
<use xlink:href="#f0_21" transform="matrix(50.9,-50.9,50.9,50.9,381.4,742.5)" />
<use xlink:href="#f0_2k" transform="matrix(50.9,-50.9,50.9,50.9,424.7,699.3)" />
<use xlink:href="#f0_1x" transform="matrix(50.9,-50.9,50.9,50.9,463.6,660.4)" />
<use xlink:href="#f0_29" transform="matrix(50.9,-50.9,50.9,50.9,506.8,617.2)" />
<use xlink:href="#f0_2c" transform="matrix(50.9,-50.9,50.9,50.9,571.6,552.4)" />
<use xlink:href="#f0_2b" transform="matrix(50.9,-50.9,50.9,50.9,614.9,509.1)" />
<use xlink:href="#f0_25" transform="matrix(50.9,-50.9,50.9,50.9,658.1,465.9)" />
<use xlink:href="#f0_2a" transform="matrix(50.9,-50.9,50.9,50.9,675.4,448.6)" />
<use xlink:href="#f0_2g" transform="matrix(50.9,-50.9,50.9,50.9,718.6,405.4)" />
</g>
<g fill="#000000" >
<use xlink:href="#f1_b" transform="matrix(10.4,0,0,10.4,185.3,103.6)" />
<use xlink:href="#f1_24" transform="matrix(10.4,0,0,10.4,190.6,103.6)" />
<use xlink:href="#f1_24" transform="matrix(10.4,0,0,10.4,194.2,103.6)" />
<use xlink:href="#f1_24" transform="matrix(10.4,0,0,10.4,197.7,103.6)" />
<use xlink:href="#f1_c" transform="matrix(10.4,0,0,10.4,201.3,103.6)" />
<use xlink:href="#f2_c" transform="matrix(10.4,0,0,11.4,265.7,101.4)" />
<use xlink:href="#f2_d" transform="matrix(10.4,0,0,11.4,338.8,101.4)" />
</g>
<path d="M228.2,67.2h8" class="g0_62" />
<g fill="#000000" >
<use xlink:href="#f1_n" transform="matrix(7.9,0,0,7.8,229,81.9)" />
<use xlink:href="#f1_j" transform="matrix(7.9,0,0,7.8,229,130.4)" />
<use xlink:href="#f1_27" transform="matrix(10.5,0,0,10.4,240.6,103.4)" />
<use xlink:href="#f1_2a" transform="matrix(10.5,0,0,10.4,244.4,103.4)" />
<use xlink:href="#f1_22" transform="matrix(10.5,0,0,10.4,253.7,103.4)" />
<use xlink:href="#f1_k" transform="matrix(10.5,0,0,10.4,271.6,103.4)" />
<use xlink:href="#f1_2f" transform="matrix(10.5,0,0,10.4,300.5,103.4)" />
<use xlink:href="#f1_1w" transform="matrix(10.5,0,0,10.4,305.2,103.4)" />
<use xlink:href="#f1_29" transform="matrix(10.5,0,0,10.4,314.5,103.4)" />
<use xlink:href="#f1_h" transform="matrix(10.5,0,0,10.4,366.1,103.4)" />
<use xlink:href="#f3_2j" transform="matrix(10.5,0,0,10.4,327.4,103.4)" />
<use xlink:href="#f3_1z" transform="matrix(10.5,0,0,10.4,347.4,103.4)" />
<use xlink:href="#f3_2j" transform="matrix(10.5,0,0,10.4,356.7,103.4)" />
<use xlink:href="#f2_2c" transform="matrix(7.9,0,0,7.8,229,62.8)" />
<use xlink:href="#f2_f" transform="matrix(10.5,0,0,10.4,284.5,103.4)" />
<use xlink:href="#f2_50" transform="matrix(20.9,0,0,20.9,227.5,112)" />
<use xlink:href="#f1_b" transform="matrix(10.4,0,0,10.4,482.1,103.6)" />
<use xlink:href="#f1_24" transform="matrix(10.4,0,0,10.4,487.5,103.6)" />
<use xlink:href="#f1_2h" transform="matrix(10.4,0,0,10.4,491,103.6)" />
<use xlink:href="#f1_c" transform="matrix(10.4,0,0,10.4,499,103.6)" />
</g>
<path d="M521.6,67.2h8" class="g1_62" />
<g fill="#000000" >
<use xlink:href="#f1_l" transform="matrix(7.8,0,0,7.8,522.3,81.9)" />
<use xlink:href="#f1_j" transform="matrix(7.8,0,0,7.8,522.2,130.4)" />
<use xlink:href="#f1_27" transform="matrix(10.5,0,0,10.4,533.9,103.4)" />
<use xlink:href="#f1_2a" transform="matrix(10.5,0,0,10.4,537.7,103.4)" />
<use xlink:href="#f1_22" transform="matrix(10.5,0,0,10.4,547.1,103.4)" />
<use xlink:href="#f1_2e" transform="matrix(10.5,0,0,10.4,559.8,103.4)" />
<use xlink:href="#f1_24" transform="matrix(10.5,0,0,10.4,568.2,103.4)" />
<use xlink:href="#f1_29" transform="matrix(10.5,0,0,10.4,572,103.4)" />
<use xlink:href="#f1_h" transform="matrix(10.5,0,0,10.4,620.8,103.4)" />
<use xlink:href="#f3_2j" transform="matrix(10.5,0,0,10.4,585,103.4)" />
<use xlink:href="#f3_1z" transform="matrix(10.5,0,0,10.4,601.9,103.4)" />
<use xlink:href="#f3_2j" transform="matrix(10.5,0,0,10.4,611.2,103.4)" />
<use xlink:href="#f2_2c" transform="matrix(7.9,0,0,7.8,522.2,62.8)" />
<use xlink:href="#f2_50" transform="matrix(20.9,0,0,20.9,520.7,112)" />
<use xlink:href="#f1_b" transform="matrix(10.4,0,0,10.4,187.9,186.8)" />
<use xlink:href="#f1_2h" transform="matrix(10.4,0,0,10.4,193.2,186.8)" />
<use xlink:href="#f1_c" transform="matrix(10.4,0,0,10.4,201.4,186.8)" />
</g>
<path d="M241.7,181.9h77.9" class="g2_62" />
<g fill="#000000" >
<use xlink:href="#f1_l" transform="matrix(7.8,0,0,7.8,296,193.5)" />
<use xlink:href="#f1_j" transform="matrix(7.8,0,0,7.8,228.8,213)" />
<use xlink:href="#f1_2e" transform="matrix(10.5,0,0,10.4,270.2,175.9)" />
<use xlink:href="#f1_24" transform="matrix(10.5,0,0,10.4,278.6,175.9)" />
<use xlink:href="#f1_29" transform="matrix(10.5,0,0,10.4,282.4,175.9)" />
<use xlink:href="#f1_h" transform="matrix(10.5,0,0,10.4,345.8,186.2)" />
<use xlink:href="#f1_k" transform="matrix(10.5,0,0,10.4,241.1,203)" />
<use xlink:href="#f1_1y" transform="matrix(10.5,0,0,10.4,269.9,203)" />
<use xlink:href="#f1_2a" transform="matrix(10.5,0,0,10.4,278.2,203)" />
<use xlink:href="#f1_2e" transform="matrix(10.5,0,0,10.4,287.6,203)" />
<use xlink:href="#f3_2j" transform="matrix(10.5,0,0,10.4,256,175.9)" />
<use xlink:href="#f3_2j" transform="matrix(10.5,0,0,10.4,295.3,175.9)" />
<use xlink:href="#f3_1z" transform="matrix(10.5,0,0,10.4,326.9,186.2)" />
<use xlink:href="#f3_2j" transform="matrix(10.5,0,0,10.4,336.3,186.2)" />
<use xlink:href="#f3_2j" transform="matrix(10.5,0,0,10.4,308.7,203)" />
<use xlink:href="#f2_2c" transform="matrix(7.9,0,0,7.8,228.8,164.5)" />
<use xlink:href="#f2_f" transform="matrix(10.5,0,0,10.4,254.1,203)" />
<use xlink:href="#f2_50" transform="matrix(20.9,0,0,20.8,227.4,194.7)" />
<use xlink:href="#f1_b" transform="matrix(10.4,0,0,10.4,184.2,278.9)" />
<use xlink:href="#f1_2h" transform="matrix(10.4,0,0,10.4,189.5,278.9)" />
<use xlink:href="#f1_24" transform="matrix(10.4,0,0,10.4,197.8,278.9)" />
<use xlink:href="#f1_c" transform="matrix(10.4,0,0,10.4,201.3,278.9)" />
<use xlink:href="#f2_c" transform="matrix(10.4,0,0,11.2,256,277.7)" />
<use xlink:href="#f2_d" transform="matrix(10.4,0,0,11.2,274,277.7)" />
<use xlink:href="#f2_c" transform="matrix(10.4,0,0,11.2,368.3,277.7)" />
<use xlink:href="#f2_d" transform="matrix(10.4,0,0,11.2,386.3,277.7)" />
<use xlink:href="#f1_m" transform="matrix(7.9,0,0,7.9,513,239.7)" />
<use xlink:href="#f1_l" transform="matrix(7.9,0,0,7.9,231,258.1)" />
<use xlink:href="#f1_m" transform="matrix(7.9,0,0,7.9,439.4,270.2)" />
<use xlink:href="#f1_l" transform="matrix(7.9,0,0,7.9,234.5,306.9)" />
<use xlink:href="#f1_l" transform="matrix(10.5,0,0,10.5,462.3,249.3)" />
<use xlink:href="#f1_2i" transform="matrix(10.5,0,0,10.5,543,249.3)" />
<use xlink:href="#f1_23" transform="matrix(10.5,0,0,10.5,554.8,249.3)" />
<use xlink:href="#f1_20" transform="matrix(10.5,0,0,10.5,564.1,249.3)" />
<use xlink:href="#f1_29" transform="matrix(10.5,0,0,10.5,573.5,249.3)" />
<use xlink:href="#f1_l" transform="matrix(10.5,0,0,10.5,605.1,249.3)" />
<use xlink:href="#f1_k" transform="matrix(10.5,0,0,10.5,673.2,249.3)" />
<use xlink:href="#f1_2i" transform="matrix(10.5,0,0,10.5,308.7,279.8)" />
<use xlink:href="#f1_23" transform="matrix(10.5,0,0,10.5,320.6,279.8)" />
<use xlink:href="#f1_20" transform="matrix(10.5,0,0,10.5,329.9,279.8)" />
<use xlink:href="#f1_2d" transform="matrix(10.5,0,0,10.5,339.2,279.8)" />
<use xlink:href="#f1_20" transform="matrix(10.5,0,0,10.5,344.7,279.8)" />
<use xlink:href="#f1_m" transform="matrix(10.5,0,0,10.5,470,279.8)" />
<use xlink:href="#f1_l" transform="matrix(10.5,0,0,10.5,511,279.8)" />
<use xlink:href="#f1_2i" transform="matrix(10.5,0,0,10.5,544.9,279.8)" />
<use xlink:href="#f1_23" transform="matrix(10.5,0,0,10.5,556.7,279.8)" />
<use xlink:href="#f1_20" transform="matrix(10.5,0,0,10.5,566,279.8)" />
<use xlink:href="#f1_29" transform="matrix(10.5,0,0,10.5,575.3,279.8)" />
<use xlink:href="#f1_k" transform="matrix(10.5,0,0,10.5,605.9,279.8)" />
<use xlink:href="#f1_k" transform="matrix(10.5,0,0,10.5,671.5,279.8)" />
<use xlink:href="#f1_m" transform="matrix(10.5,0,0,10.5,465.9,303.8)" />
<use xlink:href="#f1_l" transform="matrix(10.5,0,0,10.5,506.7,303.8)" />
<use xlink:href="#f1_2i" transform="matrix(10.5,0,0,10.5,542.3,303.8)" />
<use xlink:href="#f1_23" transform="matrix(10.5,0,0,10.5,554.1,303.8)" />
<use xlink:href="#f1_20" transform="matrix(10.5,0,0,10.5,563.4,303.8)" />
<use xlink:href="#f1_29" transform="matrix(10.5,0,0,10.5,572.7,303.8)" />
<use xlink:href="#f1_k" transform="matrix(10.5,0,0,10.5,601.3,303.8)" />
<use xlink:href="#f1_l" transform="matrix(10.5,0,0,10.5,667.9,303.8)" />
<use xlink:href="#f1_h" transform="matrix(10.5,0,0,10.5,677.2,303.8)" />
<use xlink:href="#f2_h" transform="matrix(7.9,0,0,7.9,227.8,306.9)" />
<use xlink:href="#f2_4u" transform="matrix(10.5,0,0,10.5,417.1,244)" />
<use xlink:href="#f2_h" transform="matrix(10.5,0,0,10.5,487.6,249.3)" />
<use xlink:href="#f2_h" transform="matrix(10.5,0,0,10.5,589.6,249.3)" />
<use xlink:href="#f2_2t" transform="matrix(10.5,0,0,10.5,622.1,249.3)" />
<use xlink:href="#f2_w" transform="matrix(10.5,0,0,10.5,657,249.3)" />
<use xlink:href="#f2_4x" transform="matrix(10.5,0,0,10.5,417.1,259.5)" />
<use xlink:href="#f2_4x" transform="matrix(10.5,0,0,10.5,417.1,263.5)" />
<use xlink:href="#f2_4v" transform="matrix(10.5,0,0,10.5,417.1,275.5)" />
<use xlink:href="#f2_x" transform="matrix(10.5,0,0,10.5,399.6,279.8)" />
<use xlink:href="#f2_h" transform="matrix(10.5,0,0,10.5,454.6,279.8)" />
<use xlink:href="#f2_f" transform="matrix(10.5,0,0,10.5,495.3,279.8)" />
<use xlink:href="#f2_h" transform="matrix(10.5,0,0,10.5,591.5,279.8)" />
<use xlink:href="#f2_2t" transform="matrix(10.5,0,0,10.5,620.4,279.8)" />
<use xlink:href="#f2_w" transform="matrix(10.5,0,0,10.5,655.3,279.8)" />
<use xlink:href="#f2_4x" transform="matrix(10.5,0,0,10.5,417.1,291.1)" />
<use xlink:href="#f2_h" transform="matrix(10.5,0,0,10.5,491.2,303.8)" />
<use xlink:href="#f2_2t" transform="matrix(10.5,0,0,10.5,615.8,303.8)" />
<use xlink:href="#f2_w" transform="matrix(10.5,0,0,10.5,650.7,303.8)" />
<use xlink:href="#f2_4x" transform="matrix(10.5,0,0,10.5,417.1,304.8)" />
<use xlink:href="#f2_4w" transform="matrix(10.5,0,0,10.5,417.1,307.2)" />
<use xlink:href="#f2_50" transform="matrix(21,0,0,21,229.6,288.3)" />
<use xlink:href="#f3_2j" transform="matrix(10.5,0,0,10.5,472.1,249.3)" />
<use xlink:href="#f3_2j" transform="matrix(10.5,0,0,10.5,503.8,249.3)" />
<use xlink:href="#f3_2j" transform="matrix(10.5,0,0,10.5,640,249.3)" />
<use xlink:href="#f3_21" transform="matrix(10.5,0,0,10.5,245.1,279.8)" />
<use xlink:href="#f3_2j" transform="matrix(10.5,0,0,10.5,263.6,279.8)" />
<use xlink:href="#f3_1z" transform="matrix(10.5,0,0,10.5,282.8,279.8)" />
<use xlink:href="#f3_2j" transform="matrix(10.5,0,0,10.5,292.1,279.8)" />
<use xlink:href="#f3_21" transform="matrix(10.5,0,0,10.5,357.5,279.8)" />
<use xlink:href="#f3_2j" transform="matrix(10.5,0,0,10.5,375.9,279.8)" />
<use xlink:href="#f3_2j" transform="matrix(10.5,0,0,10.5,430.2,279.8)" />
<use xlink:href="#f3_2j" transform="matrix(10.5,0,0,10.5,479.8,279.8)" />
<use xlink:href="#f3_2j" transform="matrix(10.5,0,0,10.5,638.3,279.8)" />
<use xlink:href="#f3_2j" transform="matrix(10.5,0,0,10.5,475.7,303.8)" />
<use xlink:href="#f3_2j" transform="matrix(10.5,0,0,10.5,633.7,303.8)" />
<use xlink:href="#f1_b" transform="matrix(10.4,0,0,10.4,180.7,382.1)" />
<use xlink:href="#f1_2h" transform="matrix(10.4,0,0,10.4,186.1,382.1)" />
<use xlink:href="#f1_24" transform="matrix(10.4,0,0,10.4,194,382.1)" />
<use xlink:href="#f1_24" transform="matrix(10.4,0,0,10.4,197.6,382.1)" />
<use xlink:href="#f1_c" transform="matrix(10.4,0,0,10.4,201.1,382.1)" />
</g>
<path d="M241.7,378.1H358.6" class="g3_62" />
<path d="M228.2,346.1h8.1" class="g4_62" />
<g fill="#000000" >
<use xlink:href="#f1_l" transform="matrix(7.9,0,0,7.8,229.1,360.7)" />
<use xlink:href="#f1_n" transform="matrix(7.9,0,0,7.8,263.5,389.7)" />
<use xlink:href="#f1_n" transform="matrix(7.9,0,0,7.8,334.9,389.7)" />
<use xlink:href="#f1_j" transform="matrix(7.9,0,0,7.8,229,409.2)" />
<use xlink:href="#f1_2e" transform="matrix(10.4,0,0,10.4,267.5,371.9)" />
<use xlink:href="#f1_24" transform="matrix(10.4,0,0,10.4,275.9,371.9)" />
<use xlink:href="#f1_29" transform="matrix(10.4,0,0,10.4,279.6,371.9)" />
<use xlink:href="#f1_1y" transform="matrix(10.4,0,0,10.4,306.8,371.9)" />
<use xlink:href="#f1_2a" transform="matrix(10.4,0,0,10.4,315.1,371.9)" />
<use xlink:href="#f1_2e" transform="matrix(10.4,0,0,10.4,324.4,371.9)" />
<use xlink:href="#f1_h" transform="matrix(10.4,0,0,10.4,381.1,382.3)" />
<use xlink:href="#f1_2e" transform="matrix(10.4,0,0,10.4,242.4,399.2)" />
<use xlink:href="#f1_24" transform="matrix(10.4,0,0,10.4,250.7,399.2)" />
<use xlink:href="#f1_29" transform="matrix(10.4,0,0,10.4,254.5,399.2)" />
<use xlink:href="#f1_1y" transform="matrix(10.4,0,0,10.4,308.7,399.2)" />
<use xlink:href="#f1_2a" transform="matrix(10.4,0,0,10.4,317,399.2)" />
<use xlink:href="#f1_2e" transform="matrix(10.4,0,0,10.4,326.3,399.2)" />
<use xlink:href="#f3_2j" transform="matrix(10.4,0,0,10.4,253.3,371.9)" />
<use xlink:href="#f3_2j" transform="matrix(10.4,0,0,10.4,292.6,371.9)" />
<use xlink:href="#f3_2j" transform="matrix(10.4,0,0,10.4,336.9,371.9)" />
<use xlink:href="#f3_1z" transform="matrix(10.4,0,0,10.4,362.2,382.3)" />
<use xlink:href="#f3_2j" transform="matrix(10.4,0,0,10.4,371.6,382.3)" />
<use xlink:href="#f3_2j" transform="matrix(10.4,0,0,10.4,276.2,399.2)" />
<use xlink:href="#f3_2j" transform="matrix(10.4,0,0,10.4,347.6,399.2)" />
<use xlink:href="#f2_2c" transform="matrix(7.8,0,0,7.8,228.9,341.7)" />
<use xlink:href="#f2_f" transform="matrix(10.5,0,0,10.4,293,399.2)" />
<use xlink:href="#f2_50" transform="matrix(20.9,0,0,20.9,227.5,390.8)" />
<use xlink:href="#f1_b" transform="matrix(10.4,0,0,10.4,177.3,484.7)" />
<use xlink:href="#f1_2h" transform="matrix(10.4,0,0,10.4,182.6,484.7)" />
<use xlink:href="#f1_24" transform="matrix(10.4,0,0,10.4,190.5,484.7)" />
<use xlink:href="#f1_24" transform="matrix(10.4,0,0,10.4,194.1,484.7)" />
<use xlink:href="#f1_24" transform="matrix(10.4,0,0,10.4,197.6,484.7)" />
<use xlink:href="#f1_c" transform="matrix(10.4,0,0,10.4,201.2,484.7)" />
</g>
<path d="M241.7,481.1H401.5" class="g5_62" />
<g fill="#000000" >
<use xlink:href="#f1_l" transform="matrix(7.9,0,0,7.8,251.6,492.7)" />
<use xlink:href="#f1_l" transform="matrix(7.9,0,0,7.8,290.1,492.7)" />
<use xlink:href="#f1_l" transform="matrix(7.9,0,0,7.8,344.9,492.7)" />
<use xlink:href="#f1_l" transform="matrix(7.9,0,0,7.8,378.3,492.7)" />
<use xlink:href="#f1_j" transform="matrix(7.9,0,0,7.8,228.9,512.2)" />
<use xlink:href="#f1_h" transform="matrix(10.4,0,0,10.4,424.4,485.4)" />
<use xlink:href="#f1_1y" transform="matrix(10.4,0,0,10.4,263.9,502.2)" />
<use xlink:href="#f1_2a" transform="matrix(10.4,0,0,10.4,272.2,502.2)" />
<use xlink:href="#f1_2e" transform="matrix(10.4,0,0,10.4,281.5,502.2)" />
<use xlink:href="#f1_2e" transform="matrix(10.4,0,0,10.4,357.2,502.2)" />
<use xlink:href="#f1_24" transform="matrix(10.4,0,0,10.4,365.5,502.2)" />
<use xlink:href="#f1_29" transform="matrix(10.4,0,0,10.4,369.3,502.2)" />
<use xlink:href="#f3_2j" transform="matrix(10.4,0,0,10.4,316.7,475.1)" />
<use xlink:href="#f3_1z" transform="matrix(10.4,0,0,10.4,405.6,485.4)" />
<use xlink:href="#f3_2j" transform="matrix(10.4,0,0,10.4,414.9,485.4)" />
<use xlink:href="#f3_1w" transform="matrix(10.4,0,0,10.4,241.8,502.2)" />
<use xlink:href="#f3_2j" transform="matrix(10.4,0,0,10.4,302.6,502.2)" />
<use xlink:href="#f3_1x" transform="matrix(10.4,0,0,10.4,334.6,502.2)" />
<use xlink:href="#f3_2j" transform="matrix(10.4,0,0,10.4,390.9,502.2)" />
<use xlink:href="#f2_2c" transform="matrix(7.9,0,0,7.8,228.9,463.7)" />
<use xlink:href="#f2_f" transform="matrix(10.5,0,0,10.4,319.4,502.2)" />
<use xlink:href="#f2_50" transform="matrix(20.9,0,0,20.8,227.4,493.9)" />
<use xlink:href="#f1_n" transform="matrix(10.4,0,0,10.4,129.2,555.9)" />
<use xlink:href="#f1_q" transform="matrix(10.4,0,0,10.4,138.1,555.9)" />
<use xlink:href="#f1_h" transform="matrix(10.4,0,0,10.4,147.3,555.9)" />
<use xlink:href="#f1_14" transform="matrix(10.4,0,0,10.4,169.9,555.9)" />
<use xlink:href="#f1_2h" transform="matrix(10.4,0,0,10.4,180.6,555.9)" />
<use xlink:href="#f1_1w" transform="matrix(10.4,0,0,10.4,188.5,555.9)" />
<use xlink:href="#f1_27" transform="matrix(10.4,0,0,10.4,197.4,555.9)" />
<use xlink:href="#f1_2g" transform="matrix(10.4,0,0,10.4,200.9,555.9)" />
<use xlink:href="#f1_1w" transform="matrix(10.4,0,0,10.4,209.8,555.9)" />
<use xlink:href="#f1_2f" transform="matrix(10.4,0,0,10.4,218.7,555.9)" />
<use xlink:href="#f1_20" transform="matrix(10.4,0,0,10.4,223.1,555.9)" />
<use xlink:href="#f1_2f" transform="matrix(10.4,0,0,10.4,239.7,555.9)" />
<use xlink:href="#f1_23" transform="matrix(10.4,0,0,10.4,244.1,555.9)" />
<use xlink:href="#f1_20" transform="matrix(10.4,0,0,10.4,253,555.9)" />
<use xlink:href="#f1_21" transform="matrix(10.4,0,0,10.4,269.7,555.9)" />
<use xlink:href="#f1_2a" transform="matrix(10.4,0,0,10.4,274.2,555.9)" />
<use xlink:href="#f1_27" transform="matrix(10.4,0,0,10.4,283,555.9)" />
<use xlink:href="#f1_27" transform="matrix(10.4,0,0,10.4,286.6,555.9)" />
<use xlink:href="#f1_2a" transform="matrix(10.4,0,0,10.4,290.1,555.9)" />
<use xlink:href="#f1_2i" transform="matrix(10.4,0,0,10.4,299,555.9)" />
<use xlink:href="#f1_24" transform="matrix(10.4,0,0,10.4,310.5,555.9)" />
<use xlink:href="#f1_29" transform="matrix(10.4,0,0,10.4,314,555.9)" />
<use xlink:href="#f1_22" transform="matrix(10.4,0,0,10.4,322.9,555.9)" />
<use xlink:href="#f1_24" transform="matrix(10.4,0,0,10.4,339.5,555.9)" />
<use xlink:href="#f1_29" transform="matrix(10.4,0,0,10.4,343,555.9)" />
<use xlink:href="#f1_2f" transform="matrix(10.4,0,0,10.4,351.9,555.9)" />
<use xlink:href="#f1_20" transform="matrix(10.4,0,0,10.4,356.3,555.9)" />
<use xlink:href="#f1_22" transform="matrix(10.4,0,0,10.4,365.2,555.9)" />
<use xlink:href="#f1_2d" transform="matrix(10.4,0,0,10.4,374.1,555.9)" />
<use xlink:href="#f1_1w" transform="matrix(10.4,0,0,10.4,379.4,555.9)" />
<use xlink:href="#f1_27" transform="matrix(10.4,0,0,10.4,388.2,555.9)" />
<use xlink:href="#f1_2e" transform="matrix(10.4,0,0,10.4,391.8,555.9)" />
<use xlink:href="#f1_b" transform="matrix(10.4,0,0,10.4,192.5,610.9)" />
<use xlink:href="#f1_24" transform="matrix(10.4,0,0,10.4,197.8,610.9)" />
<use xlink:href="#f1_c" transform="matrix(10.4,0,0,10.4,201.3,610.9)" />
</g>
<path d="M290.8,624l1.6,-.9l3.9,6.4l4.3,-17h38" class="g6_62" />
<path fill-rule="evenodd" d="M290.7,623.8l2.1,-1.2l3.5,5.4l4,-15.8h38.3v.7H300.8l-4.1,16.6H296l-3.9,-5.9l-1.1,.6l-.3,-.4Z" class="g7_62" />
<path d="M261.8,608.3h78" class="g5_62" />
<path d="M246.6,616.8l-3.9,12m7.1,-41.4l-3.9,12" class="g8_62" />
<g fill="#000000" >
<use xlink:href="#f1_m" transform="matrix(7.9,0,0,7.9,250.5,596.8)" />
<use xlink:href="#f1_p" transform="matrix(7.9,0,0,7.9,247.3,626.2)" />
<use xlink:href="#f1_k" transform="matrix(10.5,0,0,10.5,261.6,628.2)" />
<use xlink:href="#f1_2f" transform="matrix(10.5,0,0,10.5,301.4,628.2)" />
<use xlink:href="#f1_1w" transform="matrix(10.5,0,0,10.5,306.2,628.2)" />
<use xlink:href="#f1_29" transform="matrix(10.5,0,0,10.5,315.5,628.2)" />
<use xlink:href="#f2_2c" transform="matrix(7.9,0,0,7.9,239.2,596.8)" />
<use xlink:href="#f2_2c" transform="matrix(7.9,0,0,7.9,236,626.2)" />
<use xlink:href="#f2_f" transform="matrix(10.5,0,0,10.5,274.6,628.2)" />
<use xlink:href="#f2_50" transform="matrix(21,0,0,21,227.5,621.2)" />
<use xlink:href="#f3_1z" transform="matrix(10.5,0,0,10.5,291,602.2)" />
<use xlink:href="#f3_2j" transform="matrix(10.5,0,0,10.5,300.3,602.2)" />
<use xlink:href="#f3_2j" transform="matrix(10.5,0,0,10.5,328.2,628.2)" />
<use xlink:href="#f1_b" transform="matrix(10.4,0,0,10.4,463.8,610.9)" />
<use xlink:href="#f1_24" transform="matrix(10.4,0,0,10.4,469.1,610.9)" />
<use xlink:href="#f1_24" transform="matrix(10.4,0,0,10.4,472.7,610.9)" />
<use xlink:href="#f1_c" transform="matrix(10.4,0,0,10.4,476.2,610.9)" />
</g>
<path d="M564.7,606.5h47.8" class="g5_62" />
<g fill="#000000" >
<use xlink:href="#f1_k" transform="matrix(7.9,0,0,7.8,504.5,589.2)" />
<use xlink:href="#f1_k" transform="matrix(7.9,0,0,7.8,544.3,601.2)" />
<use xlink:href="#f1_l" transform="matrix(7.9,0,0,7.8,603.7,618.1)" />
<use xlink:href="#f1_j" transform="matrix(7.9,0,0,7.8,504,637.6)" />
<use xlink:href="#f1_l" transform="matrix(10.4,0,0,10.4,579,600.4)" />
<use xlink:href="#f1_2e" transform="matrix(10.4,0,0,10.4,516.1,610.7)" />
<use xlink:href="#f1_24" transform="matrix(10.4,0,0,10.4,524.4,610.7)" />
<use xlink:href="#f1_29" transform="matrix(10.4,0,0,10.4,528.2,610.7)" />
<use xlink:href="#f1_h" transform="matrix(10.4,0,0,10.4,644.5,610.7)" />
<use xlink:href="#f1_k" transform="matrix(10.4,0,0,10.4,564.2,627.6)" />
<use xlink:href="#f3_2j" transform="matrix(10.4,0,0,10.4,588.1,600.4)" />
<use xlink:href="#f3_1z" transform="matrix(10.4,0,0,10.4,625.6,610.7)" />
<use xlink:href="#f3_2j" transform="matrix(10.4,0,0,10.4,635,610.7)" />
<use xlink:href="#f3_2j" transform="matrix(10.4,0,0,10.4,593.1,627.6)" />
<use xlink:href="#f2_h" transform="matrix(7.9,0,0,7.8,537.6,601.2)" />
<use xlink:href="#f2_4o" transform="matrix(10.5,0,0,10.4,555,601.5)" />
<use xlink:href="#f2_54" transform="matrix(10.5,0,0,10.4,614.3,601.5)" />
<use xlink:href="#f2_4p" transform="matrix(10.5,0,0,10.4,555,617.2)" />
<use xlink:href="#f2_55" transform="matrix(10.5,0,0,10.4,614.3,617.2)" />
<use xlink:href="#f2_4q" transform="matrix(10.5,0,0,10.4,555,624)" />
<use xlink:href="#f2_56" transform="matrix(10.5,0,0,10.4,614.3,624)" />
<use xlink:href="#f2_f" transform="matrix(10.5,0,0,10.4,577.2,627.6)" />
<use xlink:href="#f2_50" transform="matrix(20.9,0,0,20.8,502.4,619.2)" />
<use xlink:href="#f1_b" transform="matrix(10.4,0,0,10.4,185.3,704.2)" />
<use xlink:href="#f1_24" transform="matrix(10.4,0,0,10.4,190.6,704.2)" />
<use xlink:href="#f1_24" transform="matrix(10.4,0,0,10.4,194.2,704.2)" />
<use xlink:href="#f1_24" transform="matrix(10.4,0,0,10.4,197.7,704.2)" />
<use xlink:href="#f1_c" transform="matrix(10.4,0,0,10.4,201.3,704.2)" />
</g>
<path d="M278.7,699.9h63.9" class="g5_62" />
<g fill="#000000" >
<use xlink:href="#f1_k" transform="matrix(7.9,0,0,7.8,230.7,682.6)" />
<use xlink:href="#f1_k" transform="matrix(7.9,0,0,7.8,234.7,730.9)" />
<use xlink:href="#f1_k" transform="matrix(10.4,0,0,10.4,278.2,693.7)" />
<use xlink:href="#f1_2e" transform="matrix(10.4,0,0,10.4,306.9,693.7)" />
<use xlink:href="#f1_24" transform="matrix(10.4,0,0,10.4,315.2,693.7)" />
<use xlink:href="#f1_29" transform="matrix(10.4,0,0,10.4,319,693.7)" />
<use xlink:href="#f1_27" transform="matrix(10.4,0,0,10.4,243.1,704.1)" />
<use xlink:href="#f1_2a" transform="matrix(10.4,0,0,10.4,246.9,704.1)" />
<use xlink:href="#f1_22" transform="matrix(10.4,0,0,10.4,256.2,704.1)" />
<use xlink:href="#f1_h" transform="matrix(10.4,0,0,10.4,374.7,704.1)" />
<use xlink:href="#f1_k" transform="matrix(10.4,0,0,10.4,278.2,719.5)" />
<use xlink:href="#f1_2e" transform="matrix(10.4,0,0,10.4,306.9,719.5)" />
<use xlink:href="#f1_24" transform="matrix(10.4,0,0,10.4,315.2,719.5)" />
<use xlink:href="#f1_29" transform="matrix(10.4,0,0,10.4,319,719.5)" />
<use xlink:href="#f3_2j" transform="matrix(10.4,0,0,10.4,331.9,693.7)" />
<use xlink:href="#f3_1z" transform="matrix(10.4,0,0,10.4,355.8,704.1)" />
<use xlink:href="#f3_2j" transform="matrix(10.4,0,0,10.4,365.1,704.1)" />
<use xlink:href="#f3_2j" transform="matrix(10.4,0,0,10.4,331.9,719.5)" />
<use xlink:href="#f2_h" transform="matrix(7.9,0,0,7.8,228,730.9)" />
<use xlink:href="#f2_f" transform="matrix(10.5,0,0,10.4,291.2,693.7)" />
<use xlink:href="#f2_4o" transform="matrix(10.5,0,0,10.4,268.9,694.9)" />
<use xlink:href="#f2_54" transform="matrix(10.5,0,0,10.4,344.4,694.9)" />
<use xlink:href="#f2_4p" transform="matrix(10.5,0,0,10.4,268.9,709.4)" />
<use xlink:href="#f2_55" transform="matrix(10.5,0,0,10.4,344.4,709.4)" />
<use xlink:href="#f2_4q" transform="matrix(10.5,0,0,10.4,268.9,716.1)" />
<use xlink:href="#f2_56" transform="matrix(10.5,0,0,10.4,344.4,716.1)" />
<use xlink:href="#f2_h" transform="matrix(10.5,0,0,10.4,291.4,719.5)" />
<use xlink:href="#f2_50" transform="matrix(20.9,0,0,20.8,228.7,712.5)" />
<use xlink:href="#f1_b" transform="matrix(10.4,0,0,10.4,459.2,704.2)" />
<use xlink:href="#f1_24" transform="matrix(10.4,0,0,10.4,464.5,704.2)" />
<use xlink:href="#f1_2h" transform="matrix(10.4,0,0,10.4,468.1,704.2)" />
<use xlink:href="#f1_c" transform="matrix(10.4,0,0,10.4,476.1,704.2)" />
</g>
<path d="M516.7,699.4H633.6" class="g3_62" />
<g fill="#000000" >
<use xlink:href="#f1_1y" transform="matrix(7.9,0,0,7.8,563.7,683.7)" />
<use xlink:href="#f1_2a" transform="matrix(7.9,0,0,7.8,570,683.7)" />
<use xlink:href="#f1_2e" transform="matrix(7.9,0,0,7.8,576.9,683.7)" />
<use xlink:href="#f1_1y" transform="matrix(7.9,0,0,7.8,526.7,711)" />
<use xlink:href="#f1_2a" transform="matrix(7.9,0,0,7.8,532.9,711)" />
<use xlink:href="#f1_2e" transform="matrix(7.9,0,0,7.8,539.9,711)" />
<use xlink:href="#f1_1y" transform="matrix(7.9,0,0,7.8,600.7,711)" />
<use xlink:href="#f1_2a" transform="matrix(7.9,0,0,7.8,607,711)" />
<use xlink:href="#f1_2e" transform="matrix(7.9,0,0,7.8,613.9,711)" />
<use xlink:href="#f1_j" transform="matrix(7.9,0,0,7.8,504.1,730.6)" />
<use xlink:href="#f1_h" transform="matrix(10.4,0,0,10.4,656.1,703.6)" />
<use xlink:href="#f3_2j" transform="matrix(7.9,0,0,7.8,586.4,683.7)" />
<use xlink:href="#f3_2j" transform="matrix(7.9,0,0,7.8,549.4,711)" />
<use xlink:href="#f3_2j" transform="matrix(7.9,0,0,7.8,623.4,711)" />
<use xlink:href="#f3_20" transform="matrix(10.4,0,0,10.4,553.4,693.3)" />
<use xlink:href="#f3_1z" transform="matrix(10.4,0,0,10.4,637.2,703.6)" />
<use xlink:href="#f3_2j" transform="matrix(10.4,0,0,10.4,646.5,703.6)" />
<use xlink:href="#f3_20" transform="matrix(10.4,0,0,10.4,516.4,720.5)" />
<use xlink:href="#f3_20" transform="matrix(10.4,0,0,10.4,580,720.5)" />
<use xlink:href="#f2_2c" transform="matrix(7.9,0,0,7.8,504.1,681.9)" />
<use xlink:href="#f2_h" transform="matrix(7.9,0,0,7.8,590.7,711)" />
<use xlink:href="#f2_f" transform="matrix(10.5,0,0,10.4,565.4,720.5)" />
<use xlink:href="#f2_50" transform="matrix(20.9,0,0,20.9,502.5,712.1)" />
<use xlink:href="#f1_b" transform="matrix(10.4,0,0,10.4,187.9,806.3)" />
<use xlink:href="#f1_2h" transform="matrix(10.4,0,0,10.4,193.2,806.3)" />
<use xlink:href="#f1_c" transform="matrix(10.4,0,0,10.4,201.4,806.3)" />
</g>
<path d="M241.6,800.3H348.1" class="g9_62" />
<g fill="#000000" >
<use xlink:href="#f1_j" transform="matrix(7.9,0,0,7.8,229,831.4)" />
<use xlink:href="#f1_2f" transform="matrix(10.5,0,0,10.4,283.9,794.3)" />
<use xlink:href="#f1_1w" transform="matrix(10.5,0,0,10.4,288.7,794.3)" />
<use xlink:href="#f1_29" transform="matrix(10.5,0,0,10.4,298,794.3)" />
<use xlink:href="#f1_h" transform="matrix(10.5,0,0,10.4,370.5,804.6)" />
<use xlink:href="#f1_2e" transform="matrix(10.5,0,0,10.4,242.4,820)" />
<use xlink:href="#f1_20" transform="matrix(10.5,0,0,10.4,250.7,820)" />
<use xlink:href="#f1_1y" transform="matrix(10.5,0,0,10.4,260,820)" />
<use xlink:href="#f1_1y" transform="matrix(10.5,0,0,10.4,290,820)" />
<use xlink:href="#f1_2a" transform="matrix(10.5,0,0,10.4,298.3,820)" />
<use xlink:href="#f1_2e" transform="matrix(10.5,0,0,10.4,307.6,820)" />
<use xlink:href="#f1_20" transform="matrix(10.5,0,0,10.4,315.9,820)" />
<use xlink:href="#f1_1y" transform="matrix(10.5,0,0,10.4,325.2,820)" />
<use xlink:href="#f2_2c" transform="matrix(7.9,0,0,7.8,229,782.9)" />
<use xlink:href="#f2_50" transform="matrix(20.9,0,0,20.8,227.5,813.1)" />
<use xlink:href="#f3_2j" transform="matrix(10.5,0,0,10.4,269.8,794.3)" />
<use xlink:href="#f3_2j" transform="matrix(10.5,0,0,10.4,310.6,794.3)" />
<use xlink:href="#f3_1z" transform="matrix(10.5,0,0,10.4,352.2,804.6)" />
<use xlink:href="#f3_2j" transform="matrix(10.5,0,0,10.4,361.5,804.6)" />
<use xlink:href="#f3_2j" transform="matrix(10.5,0,0,10.4,272.6,820)" />
<use xlink:href="#f3_2j" transform="matrix(10.5,0,0,10.4,337.8,820)" />
<use xlink:href="#f1_b" transform="matrix(10.4,0,0,10.4,459.2,806.3)" />
<use xlink:href="#f1_24" transform="matrix(10.4,0,0,10.4,464.5,806.3)" />
<use xlink:href="#f1_2h" transform="matrix(10.4,0,0,10.4,468.1,806.3)" />
<use xlink:href="#f1_c" transform="matrix(10.4,0,0,10.4,476.1,806.3)" />
</g>
<path d="M532.2,800.9h42.7" class="g5_62" />
<path d="M521.6,807.9l1.5,-2.2l3.9,16.2l4.3,-42.6h44.8" class="g6_62" />
<path fill-rule="evenodd" d="M521.4,807.7l2.1,-3l3.5,13.9l4,-39.7h45.1v.7H531.7l-4.3,42.3h-.7l-4,-15.1l-.9,1.2l-.4,-.3Z" class="g7_62" />
<g fill="#000000" >
<use xlink:href="#f1_h" transform="matrix(10.4,0,0,10.4,593,805.1)" />
<use xlink:href="#f2_h" transform="matrix(7.9,0,0,7.8,502.7,832)" />
<use xlink:href="#f2_h" transform="matrix(10.5,0,0,10.4,548.4,794.8)" />
<use xlink:href="#f2_f" transform="matrix(10.5,0,0,10.4,548.3,820.5)" />
<use xlink:href="#f2_50" transform="matrix(20.9,0,0,20.8,504.7,813.6)" />
<use xlink:href="#f3_1w" transform="matrix(7.9,0,0,7.8,505.8,783.5)" />
<use xlink:href="#f3_1w" transform="matrix(7.9,0,0,7.8,509.6,832)" />
<use xlink:href="#f3_1w" transform="matrix(10.4,0,0,10.4,532.3,794.8)" />
<use xlink:href="#f3_2j" transform="matrix(10.4,0,0,10.4,564,794.8)" />
<use xlink:href="#f3_1z" transform="matrix(10.4,0,0,10.4,574.7,805.1)" />
<use xlink:href="#f3_2j" transform="matrix(10.4,0,0,10.4,584,805.1)" />
<use xlink:href="#f3_1w" transform="matrix(10.4,0,0,10.4,532.2,820.5)" />
<use xlink:href="#f3_2j" transform="matrix(10.4,0,0,10.4,564.2,820.5)" />
<use xlink:href="#f4_r" transform="matrix(8,0,0,8,730,1122.4)" />
</g>
<g fill="#0080FF" fill-opacity="0.5" >
<use xlink:href="#f0_1c" transform="matrix(42.3,0,0,42.3,202.9,1095.2)" />
<use xlink:href="#f0_21" transform="matrix(42.3,0,0,42.3,238.8,1095.2)" />
<use xlink:href="#f0_1x" transform="matrix(42.3,0,0,42.3,274.7,1095.2)" />
<use xlink:href="#f0_2e" transform="matrix(42.3,0,0,42.3,310.7,1095.2)" />
<use xlink:href="#f0_2a" transform="matrix(42.3,0,0,42.3,332.2,1095.2)" />
<use xlink:href="#f0_17" transform="matrix(42.3,0,0,42.3,368.1,1095.2)" />
<use xlink:href="#f0_2h" transform="matrix(42.3,0,0,42.3,418.4,1095.2)" />
<use xlink:href="#f0_25" transform="matrix(42.3,0,0,42.3,454.3,1095.2)" />
<use xlink:href="#f0_20" transform="matrix(42.3,0,0,42.3,468.7,1095.2)" />
<use xlink:href="#f0_21" transform="matrix(42.3,0,0,42.3,504.6,1095.2)" />
<use xlink:href="#f0_i" transform="matrix(42.3,0,0,42.3,540.5,1095.2)" />
<use xlink:href="#f0_25" transform="matrix(42.3,0,0,42.3,558.5,1095.2)" />
<use xlink:href="#f0_2a" transform="matrix(42.3,0,0,42.3,572.8,1095.2)" />
</g>
<defs>
<path d="M593,101c0,0,182,0,279,112c0,0,98,113,98,318c0,0,0,196,-98,308c0,0,-98,112,-277,112c0,0,-181,0,-279,-110c0,0,-99,-111,-99,-310c0,0,0,-198,100,-314c0,0,99,-116,276,-116Zm0,-115c0,0,-162,0,-279,65c0,0,-118,66,-180,190c0,0,-62,124,-62,290c0,0,0,252,138,394c0,0,138,142,385,142c0,0,160,0,278,-64c0,0,118,-64,180,-185c0,0,62,-122,62,-287c0,0,0,-165,-63,-289c0,0,-63,-124,-181,-190c0,0,-118,-66,-278,-66Z" 
id="f0_1f"
transform="scale(0.001,-0.001)" />

<path d="M106,0V635c0,0,0,141,-5,173H228c0,0,1,-4,2,-21c0,0,1,-16,2,-37c0,0,1,-22,2,-81h2c0,0,47,84,108,119c0,0,60,34,151,34c0,0,132,0,194,-66c0,0,61,-66,61,-218V0H615V512c0,0,0,80,-15,124c0,0,-16,44,-50,63c0,0,-35,20,-101,20c0,0,-97,0,-153,-67c0,0,-56,-66,-56,-184V0Z" 
id="f0_2a"
transform="scale(0.001,-0.001)" />

<path d="M103,0V1107H237V0Z" 
id="f0_28"
transform="scale(0.001,-0.001)" />

<path d="M102,0V808H236V0Zm0,979v128H236V979Z" 
id="f0_25"
transform="scale(0.001,-0.001)" />

<path d="M643,478c0,0,-11,128,-65,187c0,0,-54,59,-154,59c0,0,-98,0,-155,-66c0,0,-57,-65,-62,-180ZM431,-14c0,0,-179,0,-272,106c0,0,-94,107,-94,317c0,0,0,200,94,307c0,0,93,106,267,106c0,0,356,0,356,-429V375H206c0,0,0,-138,57,-213c0,0,58,-75,168,-75c0,0,87,0,140,35c0,0,53,35,71,88L760,177c0,0,-72,-191,-329,-191Z" 
id="f0_21"
transform="scale(0.001,-0.001)" />

<path d="M17,0L304,415L31,808H179L380,493L580,808H730L457,417L747,0H598L380,331L162,0Z" 
id="f0_2k"
transform="scale(0.001,-0.001)" />

<path d="M339,87c0,0,74,0,132,34c0,0,57,33,90,91c0,0,34,59,34,121v66L448,396c0,0,-95,-2,-144,-19c0,0,-49,-18,-75,-55c0,0,-26,-38,-26,-98c0,0,0,-65,35,-101c0,0,36,-36,101,-36ZM309,-14c0,0,-122,0,-183,64c0,0,-61,64,-61,176c0,0,0,125,82,192c0,0,83,67,266,72l182,3v44c0,0,0,98,-42,141c0,0,-42,43,-132,43c0,0,-90,0,-131,-31c0,0,-41,-31,-49,-98L101,604c0,0,34,218,323,218c0,0,153,0,229,-70c0,0,77,-69,77,-202V202c0,0,0,-59,16,-90c0,0,16,-30,60,-30c0,0,19,0,44,5V4C850,4,799,-7,746,-7c0,0,-75,0,-109,38c0,0,-33,40,-38,124h-4C595,155,543,62,475,24c0,0,-68,-38,-166,-38Z" 
id="f0_1x"
transform="scale(0.001,-0.001)" />

<path d="M106,0V635c0,0,0,141,-5,173H228c0,0,1,-4,2,-21c0,0,1,-16,2,-37c0,0,1,-22,2,-81h2c0,0,44,86,100,120c0,0,56,33,136,33c0,0,92,0,145,-36c0,0,54,-37,75,-117h2c0,0,42,82,101,117c0,0,59,36,143,36c0,0,123,0,178,-66c0,0,56,-67,56,-218V0H1039V512c0,0,0,117,-32,162c0,0,-32,45,-116,45c0,0,-88,0,-136,-66c0,0,-49,-65,-49,-185V0H573V512c0,0,0,117,-32,162c0,0,-32,45,-116,45c0,0,-86,0,-136,-66c0,0,-50,-66,-50,-185V0Z" 
id="f0_29"
transform="scale(0.001,-0.001)" />

<path d="M453,84c0,0,100,0,146,74c0,0,46,73,46,247c0,0,0,169,-46,241c0,0,-45,73,-145,73c0,0,-80,0,-125,-34c0,0,-45,-34,-68,-105c0,0,-24,-71,-24,-186c0,0,0,-159,51,-234c0,0,51,-76,165,-76ZM103,-316V643c0,0,0,124,-5,165H228c0,0,1,-3,3,-22c0,0,1,-18,3,-56c0,0,2,-38,2,-52h3c0,0,36,75,94,110c0,0,59,34,156,34c0,0,149,0,223,-100c0,0,74,-100,74,-314c0,0,0,-422,-297,-422c0,0,-187,0,-251,140h-4c0,0,3,-6,3,-126V-316Z" 
id="f0_2c"
transform="scale(0.001,-0.001)" />

<path d="M420,84c0,0,121,0,173,78c0,0,52,77,52,243c0,0,0,167,-50,243c0,0,-50,76,-167,76c0,0,-118,0,-170,-78c0,0,-53,-77,-53,-241c0,0,0,-160,52,-241c0,0,52,-80,163,-80Zm1,-98c0,0,-176,0,-267,107c0,0,-90,108,-90,312c0,0,0,417,362,417c0,0,185,0,272,-102c0,0,88,-101,88,-315c0,0,0,-212,-94,-316C692,89,599,-14,421,-14Z" 
id="f0_2b"
transform="scale(0.001,-0.001)" />

<path d="M278,-11c0,0,-162,0,-162,182V710H23v98h99l39,181h90V808H400V710H251V200c0,0,0,-58,19,-82c0,0,19,-23,66,-23c0,0,27,0,77,10V6c0,0,-66,-17,-135,-17Z" 
id="f0_2g"
transform="scale(0.001,-0.001)" />

<path d="M365,-315c0,0,-136,187,-199,359c0,0,-62,172,-62,359c0,0,0,186,62,358c0,0,63,172,199,360h92c0,0,-110,-192,-160,-365c0,0,-51,-172,-51,-353c0,0,0,-183,51,-355c0,0,50,-172,160,-363Z" 
id="f1_b"
transform="scale(0.001,-0.001)" />

<path d="M104,0V799H238V0Zm-2,946v152H239V946Z" 
id="f1_24"
transform="scale(0.001,-0.001)" />

<path d="M52,-315c0,0,109,192,160,363c0,0,50,173,50,354c0,0,0,183,-50,355c0,0,-51,173,-160,364h92c0,0,135,-188,198,-360c0,0,63,-172,63,-359c0,0,0,-187,-63,-359c0,0,-63,-171,-198,-358Z" 
id="f1_c"
transform="scale(0.001,-0.001)" />

<path d="M412,-328c0,0,-195,96,-303,284C109,-44,0,142,0,365c0,0,0,232,114,422c0,0,114,191,298,273v-31c0,0,-92,-51,-151,-139c0,0,-59,-88,-88,-223c0,0,-29,-136,-29,-282c0,0,0,-167,27,-301c0,0,26,-133,82,-221c0,0,55,-89,159,-159v-32Z" 
id="f2_c"
transform="scale(0.001,-0.001)" />

<path d="M34,-328v32c0,0,92,50,151,138c0,0,59,88,88,222c0,0,29,135,29,283c0,0,0,165,-27,300c0,0,-26,134,-82,222c0,0,-56,89,-159,160v31c0,0,194,-96,303,-284c0,0,108,-187,108,-410c0,0,0,-232,-114,-422c0,0,-114,-191,-297,-272Z" 
id="f2_d"
transform="scale(0.001,-0.001)" />

<path d="M511,373V863L169,383l-7,-10ZM511,0V258H38V383l496,691H646V373H799V258H646V0Z" 
id="f1_n"
transform="scale(0.001,-0.001)" />

<path d="M424,92c0,0,114,0,170,107c0,0,57,108,56,323c0,0,1,216,-56,324c0,0,-56,107,-170,107c0,0,-112,0,-168,-107c0,0,-56,-108,-57,-324c0,0,1,-215,57,-323c0,0,56,-107,168,-107Zm0,-120c0,0,-176,0,-271,142c0,0,-96,143,-96,408c0,0,0,265,96,409c0,0,95,144,271,144c0,0,178,0,273,-144c0,0,96,-144,96,-409c0,0,0,-265,-96,-408c0,0,-95,-142,-273,-142Z" 
id="f1_j"
transform="scale(0.001,-0.001)" />

<path d="M103,0V1097H237V0Z" 
id="f1_27"
transform="scale(0.001,-0.001)" />

<path d="M424,94c0,0,107,0,169,83c0,0,63,83,63,223c0,0,0,140,-63,224c0,0,-62,83,-169,83c0,0,-106,0,-168,-83c0,0,-62,-84,-62,-224c0,0,0,-140,62,-223c0,0,62,-83,168,-83Zm0,-114c0,0,-165,0,-268,115C156,95,54,211,54,400c0,0,0,189,102,306c0,0,103,116,268,116c0,0,168,0,270,-116c0,0,102,-117,102,-306c0,0,0,-189,-102,-305C694,95,592,-20,424,-20Z" 
id="f1_2a"
transform="scale(0.001,-0.001)" />

<path d="M418,95c0,0,98,0,158,73c0,0,59,73,59,193c0,0,0,170,-54,254c0,0,-54,85,-163,85c0,0,-113,0,-165,-72c0,0,-52,-71,-52,-227c0,0,0,-147,57,-227c0,0,56,-79,160,-79ZM394,-336c0,0,-136,0,-216,62c0,0,-79,63,-96,182H219c0,0,12,-64,57,-98c0,0,45,-35,116,-35c0,0,116,0,176,73c0,0,61,73,61,211V85l-1,-1C628,84,545,-20,412,-20c0,0,-161,0,-256,118c0,0,-94,120,-94,324c0,0,0,179,93,290c0,0,93,110,244,110c0,0,144,0,228,-124l10,-14V799H763V59c0,0,-1,-201,-91,-298c0,0,-91,-97,-278,-97Z" 
id="f1_22"
transform="scale(0.001,-0.001)" />

<path d="M406,0V763H155V870h2c16,0,114,2,178,48c0,0,70,51,104,157H549V0Z" 
id="f1_k"
transform="scale(0.001,-0.001)" />

<path d="M292,-9c0,0,-88,0,-124,38c0,0,-36,39,-36,134V689H22V799H132v224H266V799H392V689H266V163c0,0,0,-27,21,-43c0,0,21,-15,57,-15h48V1C392,1,324,-9,292,-9Z" 
id="f1_2f"
transform="scale(0.001,-0.001)" />

<path d="M335,90c0,0,106,0,179,57c0,0,50,41,67,91c0,0,3,10,4,31c0,0,3,21,3,47v87c0,0,-38,-18,-83,-25L381,360c0,0,-97,-13,-142,-45c0,0,-44,-31,-44,-86c0,0,0,-67,36,-103c0,0,37,-36,104,-36ZM309,-20c0,0,-117,0,-186,61c0,0,-68,63,-68,169c0,0,0,108,64,171c0,0,65,64,189,79l183,23c0,0,22,3,42,8c0,0,26,7,40,27c0,0,15,20,15,51v6c0,0,0,64,-49,101c0,0,-48,36,-135,36c0,0,-83,0,-130,-38c0,0,-46,-39,-56,-115H94c0,0,10,131,92,197c0,0,83,66,238,66c0,0,145,0,222,-63c0,0,76,-63,76,-184V137c0,0,0,-21,12,-33c0,0,12,-12,33,-12c0,0,6,0,18,1c0,0,11,2,25,5V1c0,0,-20,-7,-41,-11c0,0,-22,-5,-37,-5c0,0,-76,0,-110,41c0,0,-22,28,-32,79c0,0,-15,-19,-34,-36c0,0,-101,-89,-247,-89Z" 
id="f1_1w"
transform="scale(0.001,-0.001)" />

<path d="M99,0V799H226V681l30,39c0,0,87,102,219,102c0,0,132,0,203,-71c0,0,72,-72,72,-204V0H616V502c0,0,0,105,-41,151c0,0,-40,47,-132,47c0,0,-97,0,-154,-73c0,0,-56,-74,-56,-199V0Z" 
id="f1_29"
transform="scale(0.001,-0.001)" />

<path d="M133,0V162H292V0Z" 
id="f1_h"
transform="scale(0.001,-0.001)" />

<path d="M17,0L389,412L201,800H376L500,518L742,800H904L554,410L750,0H580L448,303L187,0Z" 
id="f3_2j"
transform="scale(0.001,-0.001)" />

<path d="M431,94c0,0,95,0,170,76c0,0,76,77,101,198c0,0,35,167,-1,250c0,0,-37,84,-144,84c0,0,-128,0,-210,-117c0,0,-81,-117,-81,-302c0,0,0,-90,43,-139c0,0,44,-50,122,-50ZM400,-20c0,0,-126,0,-199,79c0,0,-73,80,-73,219c0,0,0,234,122,390c0,0,122,155,305,155c0,0,144,0,209,-127l8,-16l86,417H993L767,0H638l22,108L642,90C642,90,532,-20,400,-20Z" 
id="f3_1z"
transform="scale(0.001,-0.001)" />

<path d="M140,-21c0,0,-26,0,-44,17C96,-4,79,13,79,40c0,0,0,19,6,33c0,0,8,20,34,55c0,0,46,60,64,126c0,0,32,114,41,321H190c0,0,-55,0,-81,-18c0,0,-44,-26,-80,-89H0c0,0,42,129,98,178c0,0,43,37,120,37H743V575H562c0,0,-27,-171,-27,-327c0,0,0,-77,27,-110c0,0,27,-33,67,-33c0,0,33,0,56,22c0,0,24,22,31,65h27C743,192,730,74,686,26c0,0,-44,-47,-98,-47c0,0,-58,0,-97,51c0,0,-39,53,-39,198c0,0,0,91,28,347H286c0,0,-23,-390,-56,-494c0,0,-33,-102,-90,-102Z" 
id="f2_2c"
transform="scale(0.001,-0.001)" />

<path d="M355,0V355H0v72H355V784h72V427H782V355H427V0Z" 
id="f2_f"
transform="scale(0.001,-0.001)" />

<path d="M238,-163c0,0,-39,0,-63,25c0,0,-25,26,-25,65c0,0,0,34,19,54c0,0,19,19,48,19c0,0,30,0,51,-23c0,0,22,-24,37,-24c0,0,12,0,21,11c0,0,8,10,8,35c0,0,0,30,-7,88c0,0,-27,235,-27,620c0,0,13,411,17,446c0,0,17,139,60,188c0,0,43,48,98,48c0,0,37,0,65,-25c0,0,28,-25,28,-54c0,0,0,-35,-19,-57c0,0,-20,-21,-49,-21c0,0,-26,0,-57,27c0,0,-17,15,-30,15c0,0,-12,0,-21,-11c0,0,-8,-11,-8,-37c0,0,0,-31,6,-108c0,0,28,-306,28,-496c0,0,0,-50,-12,-439c0,0,-6,-219,-67,-296c0,0,-41,-50,-101,-50Z" 
id="f2_50"
transform="scale(0.001,-0.001)" />

<path d="M310,0L12,799H168L383,145L604,799H752L454,0Z" 
id="f1_2h"
transform="scale(0.001,-0.001)" />

<path d="M39,0V0c0,0,0,170,84,277c0,0,85,108,317,236c0,0,113,62,154,115c0,0,41,52,41,134c0,0,0,86,-62,141c0,0,-61,54,-156,54c0,0,-101,0,-158,-68c0,0,-57,-68,-60,-194H67c0,0,-2,178,95,279c0,0,98,101,273,101c0,0,149,0,245,-89c0,0,94,-88,94,-228c0,0,0,-118,-60,-195c0,0,-61,-76,-229,-169C485,394,303,294,237,212c0,0,-28,-36,-46,-81H774V0Z" 
id="f1_l"
transform="scale(0.001,-0.001)" />

<path d="M393,-20c0,0,-169,0,-252,65c0,0,-83,67,-92,210H178c0,0,10,-85,61,-123c0,0,50,-38,154,-38c0,0,90,0,136,34c0,0,47,35,47,100c0,0,0,42,-31,64c0,0,-30,21,-123,43L283,368c0,0,-112,27,-160,75c0,0,-48,48,-48,135c0,0,0,112,80,178c0,0,81,66,218,66c0,0,140,0,222,-68c0,0,82,-67,88,-187H557c0,0,-6,67,-55,103c0,0,-48,37,-129,37c0,0,-84,0,-127,-29c0,0,-44,-29,-44,-85c0,0,0,-43,31,-65c0,0,30,-21,121,-43L493,452c0,0,117,-28,167,-78c0,0,49,-49,49,-138c0,0,0,-119,-86,-188c0,0,-85,-68,-230,-68Z" 
id="f1_2e"
transform="scale(0.001,-0.001)" />

<path d="M394,-20c0,0,-159,0,-253,113c0,0,-95,114,-95,307c0,0,0,193,98,308c0,0,98,114,264,114c0,0,144,0,230,-78c0,0,85,-79,91,-217H600c0,0,-8,86,-59,133c0,0,-52,47,-138,47c0,0,-101,0,-159,-82c0,0,-58,-82,-58,-225c0,0,0,-152,54,-229c0,0,53,-77,159,-77c0,0,79,0,132,50c0,0,52,51,69,143H729C729,287,709,137,623,58c0,0,-86,-78,-229,-78Z" 
id="f1_1y"
transform="scale(0.001,-0.001)" />

<path d="M424,-28c0,0,-180,0,-272,86c0,0,-92,87,-100,266H192c0,0,12,-126,66,-180c0,0,55,-54,170,-54c0,0,100,0,163,57c0,0,64,57,64,147c0,0,0,94,-61,149c0,0,-52,48,-135,54c0,0,-38,2,-72,2c0,0,-34,0,-45,-3V613c0,0,17,-3,51,-3c0,0,35,0,68,4c0,0,66,8,106,43c0,0,55,45,55,125c0,0,0,77,-58,125c0,0,-58,48,-148,48c0,0,-96,0,-147,-58c0,0,-51,-59,-56,-175H82c0,0,0,168,89,260c0,0,88,93,250,93c0,0,153,0,247,-77c0,0,94,-76,94,-202c0,0,0,-124,-95,-201c0,0,-18,-15,-39,-27c0,0,39,-17,69,-41c0,0,101,-79,101,-214c0,0,0,-151,-105,-246c0,0,-104,-95,-269,-95Z" 
id="f1_m"
transform="scale(0.001,-0.001)" />

<path d="M248,0L21,799H169L322,163L478,799H627L788,158L950,799h133L857,0H713L548,624L392,0Z" 
id="f1_2i"
transform="scale(0.001,-0.001)" />

<path d="M99,0V1097H233V690l23,30c0,0,87,102,219,102c0,0,132,0,203,-71c0,0,72,-72,72,-204V0H616V514c0,0,0,99,-38,142c0,0,-38,44,-124,44c0,0,-102,0,-162,-73c0,0,-59,-74,-59,-199V0Z" 
id="f1_23"
transform="scale(0.001,-0.001)" />

<path d="M649,461c0,0,-6,111,-55,172c0,0,-55,69,-160,69c0,0,-106,0,-170,-79c0,0,-50,-62,-60,-162ZM425,-20c0,0,-169,0,-266,106c0,0,-97,107,-97,297c0,0,0,201,102,320c0,0,103,119,276,119c0,0,157,0,253,-116c0,0,96,-117,96,-306l-1,-48H204c0,0,8,-119,54,-182c0,0,57,-76,180,-76c0,0,77,0,134,43c0,0,58,43,70,110H775C775,247,746,116,656,47c0,0,-90,-67,-231,-67Z" 
id="f1_20"
transform="scale(0.001,-0.001)" />

<path d="M118,0V799H246V662c0,0,17,32,36,58c0,0,76,102,187,102c0,0,19,0,38,-6V679l-27,1c0,0,-109,0,-168,-66c0,0,-60,-65,-60,-186V0Z" 
id="f1_2d"
transform="scale(0.001,-0.001)" />

<path d="M0,356v74H784V356Z" 
id="f2_h"
transform="scale(0.001,-0.001)" />

<path d="M0,-123V985c0,0,0,202,88,304c0,0,88,101,278,126v-33c0,0,-112,-27,-179,-86c0,0,-67,-59,-91,-136c0,0,-24,-76,-24,-252V-123Z" 
id="f2_4u"
transform="scale(0.001,-0.001)" />

<path d="M0,0V72H751V0ZM751,166L0,538v38L751,949V868L123,559L751,247V166Z" 
id="f2_2t"
transform="scale(0.001,-0.001)" />

<path d="M751,0L0,371v39L751,783V702L122,392L751,80V0Z" 
id="f2_w"
transform="scale(0.001,-0.001)" />

<path d="M0,-123V1415H73V-123Z" 
id="f2_4x"
transform="scale(0.001,-0.001)" />

<path d="M293,-123V191c0,0,0,200,-67,292c0,0,-67,92,-226,135v57c0,0,159,44,226,135c0,0,67,92,67,292v313h73V1088c0,0,0,-108,-23,-189c0,0,-22,-80,-61,-127c0,0,-39,-46,-95,-75c0,0,-56,-28,-153,-51c0,0,97,-21,157,-52c0,0,61,-31,99,-82c0,0,39,-51,57,-125c0,0,19,-74,19,-180V-123Z" 
id="f2_4v"
transform="scale(0.001,-0.001)" />

<path d="M0,214v74H784V214ZM0,494v72H784V494Z" 
id="f2_x"
transform="scale(0.001,-0.001)" />

<path d="M679,-123c0,0,-190,24,-278,124c0,0,-88,101,-88,305V1415h72V383c0,0,0,-111,12,-191c0,0,11,-79,46,-133c0,0,35,-53,94,-91c0,0,59,-39,142,-58v-33Z" 
id="f2_4w"
transform="scale(0.001,-0.001)" />

<path d="M131,0L274,688H168l23,112H296l26,125c0,0,20,98,82,143c0,0,62,46,176,46c0,0,33,0,59,-5L609,990c0,0,0,3,-53,3c0,0,-45,0,-70,-25c0,0,-25,-25,-37,-83L431,800H575L553,688H409L266,0Z" 
id="f3_21"
transform="scale(0.001,-0.001)" />

<path d="M354,90c0,0,107,0,192,57c0,0,60,41,87,95c0,0,5,12,11,33c0,0,6,20,11,44l18,88c0,0,-62,-26,-132,-37L414,352c0,0,-84,-11,-131,-56c0,0,-47,-45,-47,-113c0,0,0,-44,31,-69c0,0,31,-24,87,-24ZM306,-20c0,0,-99,0,-156,47c0,0,-57,49,-57,134c0,0,1,117,81,198c0,0,80,81,211,98l164,20l70,10c0,0,35,6,59,30c0,0,23,24,31,66l1,2c0,0,13,64,-25,94c0,0,-39,31,-132,31c0,0,-83,0,-137,-37c0,0,-54,-37,-84,-114H210c0,0,46,137,138,201c0,0,92,63,245,63c0,0,149,0,211,-59c0,0,45,-44,44,-116c0,0,1,-30,-6,-63L749,136c0,0,-4,-19,6,-32c0,0,10,-12,30,-12c0,0,6,0,19,1c0,0,12,2,25,5L809,1c0,0,-19,-6,-43,-11c0,0,-22,-5,-36,-5c0,0,-73,0,-100,43c0,0,-16,27,-17,75C612,102,594,85,573,69c0,0,-120,-89,-267,-89Z" 
id="f3_1w"
transform="scale(0.001,-0.001)" />

<path d="M456,95c0,0,130,0,213,121c0,0,82,120,82,310c0,0,0,85,-44,131c0,0,-44,46,-125,46c0,0,-98,0,-174,-90c0,0,-76,-90,-108,-245c0,0,-26,-126,16,-199c0,0,42,-74,140,-74ZM436,-20c0,0,-132,0,-195,108l-5,7L217,0H89L316,1097H450L365,683l10,11c0,0,120,129,262,129c0,0,121,0,190,-77c0,0,69,-77,69,-211c0,0,0,-234,-134,-395C762,140,629,-20,436,-20Z" 
id="f3_1x"
transform="scale(0.001,-0.001)" />

<path d="M212,0c0,0,51,270,162,500c0,0,109,222,281,422H57v131H799V934C799,934,623,726,515,498C515,498,408,269,362,0Z" 
id="f1_q"
transform="scale(0.001,-0.001)" />

<path d="M131,0V1097H934V966H280V631H877V500H280V131H942V0Z" 
id="f1_14"
transform="scale(0.001,-0.001)" />

<path d="M375,-20c0,0,-136,0,-203,66c0,0,-68,68,-68,204V799H238V284c0,0,0,-101,38,-146c0,0,39,-44,127,-44c0,0,97,0,153,75c0,0,57,75,57,203V799H747V0H620V122c0,0,-14,-22,-30,-41C590,81,504,-20,375,-20Z" 
id="f1_2g"
transform="scale(0.001,-0.001)" />

<path d="M132,0V687H22V799H132V935c0,0,0,88,52,133c0,0,52,45,157,45l59,-3V989l-53,2c0,0,-39,0,-60,-24c0,0,-21,-25,-21,-71V799H400V687H266V0Z" 
id="f1_21"
transform="scale(0.001,-0.001)" />

<path d="M432,92c0,0,96,0,156,66c0,0,61,65,61,169c0,0,0,103,-61,169c0,0,-60,66,-156,66c0,0,-95,0,-156,-66c0,0,-61,-66,-61,-169c0,0,0,-104,61,-169c0,0,61,-66,156,-66ZM425,-28c0,0,-176,0,-271,135c0,0,-95,136,-95,388c0,0,0,278,103,429c0,0,103,151,293,151c0,0,142,0,226,-77c0,0,84,-76,90,-211H638c0,0,-8,80,-56,123c0,0,-47,43,-127,43c0,0,-125,0,-192,-119c0,0,-58,-102,-64,-278c0,0,100,127,255,127c0,0,152,0,245,-98c0,0,93,-98,93,-258c0,0,0,-161,-101,-259c0,0,-101,-96,-266,-96Z" 
id="f1_p"
transform="scale(0.001,-0.001)" />

<path d="M62,-123V268c0,0,0,230,56,452c0,0,47,190,134,334c0,0,87,144,204,242c0,0,85,73,194,119l18,-16c0,0,-211,-145,-335,-339c0,0,-98,-156,-149,-374c0,0,-50,-218,-50,-403V-123Z" 
id="f2_4o"
transform="scale(0.001,-0.001)" />

<path d="M617,-123V283c0,0,0,236,-63,459c0,0,-63,223,-188,392c0,0,-108,146,-282,265l17,16c0,0,180,-76,320,-248c0,0,139,-172,204,-417c0,0,64,-245,64,-482V-123Z" 
id="f2_54"
transform="scale(0.001,-0.001)" />

<path d="M62,-123V1415h72V-123Z" 
id="f2_4p"
transform="scale(0.001,-0.001)" />

<path d="M617,-123V1415h72V-123Z" 
id="f2_55"
transform="scale(0.001,-0.001)" />

<path d="M650,-123c0,0,-180,75,-319,246c0,0,-140,172,-205,418c0,0,-64,245,-64,481v393h72V1007c0,0,0,-236,63,-459c0,0,63,-223,189,-391c0,0,108,-145,282,-265l-18,-15Z" 
id="f2_4q"
transform="scale(0.001,-0.001)" />

<path d="M101,-123l-17,15c0,0,210,144,334,339c0,0,99,156,149,373c0,0,50,218,50,403v408h72V1022c0,0,0,-230,-56,-451c0,0,-48,-191,-134,-335C499,236,412,92,295,-5c0,0,-84,-73,-194,-118Z" 
id="f2_56"
transform="scale(0.001,-0.001)" />

<path d="M748,462c0,0,3,31,3,63c0,0,0,86,-45,132c0,0,-46,45,-134,45c0,0,-100,0,-180,-85c0,0,-58,-63,-90,-155ZM419,-20c0,0,-136,0,-213,73c0,0,-77,74,-78,206c0,0,0,25,4,58c0,0,4,32,10,63c0,0,44,208,169,326c0,0,125,117,305,117c0,0,128,0,198,-73c0,0,71,-73,71,-207c0,0,1,-100,-24,-189H278l-4,-25c0,0,-3,-30,-3,-55c0,0,0,-90,44,-134c0,0,44,-45,133,-45c0,0,87,0,156,44c0,0,68,45,95,117H830C830,256,782,126,674,52c0,0,-108,-72,-255,-72Z" 
id="f3_20"
transform="scale(0.001,-0.001)" />

<path d="M225,0c0,0,2,129,51,312c0,0,48,183,139,352c0,0,91,170,193,286H72v129H780V975C780,975,676,864,573,680C573,680,470,495,414,301C414,301,374,163,363,0Z" 
id="f4_r"
transform="scale(0.001,-0.001)" />

<path d="M125,0V1051H268V115H799V0Z" 
id="f0_1c"
transform="scale(0.001,-0.001)" />

<path d="M106,0V620c0,0,0,85,-5,188H228c0,0,6,-138,6,-165h3c0,0,32,103,74,141c0,0,42,38,118,38c0,0,27,0,54,-7V692c0,0,-26,7,-71,7c0,0,-84,0,-128,-72c0,0,-44,-72,-44,-206V0Z" 
id="f0_2e"
transform="scale(0.001,-0.001)" />

<path d="M606,-14c0,0,-164,0,-284,65c0,0,-119,66,-182,189c0,0,-63,123,-63,291c0,0,0,255,137,396c0,0,137,140,386,140c0,0,174,0,283,-59c0,0,109,-59,168,-189L915,779c0,0,-44,90,-123,131c0,0,-79,41,-196,41c0,0,-182,0,-278,-110c0,0,-96,-110,-96,-310c0,0,0,-200,102,-315c0,0,102,-115,282,-115c0,0,103,0,193,31c0,0,89,31,144,85V407H629V526h445V164c0,0,-83,-85,-205,-132c0,0,-121,-46,-263,-46Z" 
id="f0_17"
transform="scale(0.001,-0.001)" />

<path d="M355,-14c0,0,-133,0,-194,65c0,0,-62,66,-62,219V808H234V296c0,0,0,-80,16,-124c0,0,16,-44,50,-64c0,0,34,-19,101,-19c0,0,97,0,153,66c0,0,55,67,55,185V808H744V172c0,0,0,-141,4,-172H621c0,0,0,4,-1,20c0,0,-1,17,-2,38c0,0,-1,21,-3,80h-2C613,138,567,55,506,20c0,0,-61,-34,-151,-34Z" 
id="f0_2h"
transform="scale(0.001,-0.001)" />

<path d="M395,89c0,0,115,0,166,79c0,0,51,79,51,246c0,0,0,160,-51,235c0,0,-51,75,-164,75c0,0,-102,0,-147,-75c0,0,-45,-75,-45,-244c0,0,0,-170,45,-243c0,0,45,-73,145,-73ZM361,-14c0,0,-153,0,-225,102c0,0,-72,103,-72,312c0,0,0,422,297,422c0,0,92,0,153,-33c0,0,61,-34,98,-107h2l-2,90v335H747V166c0,0,0,-126,4,-166H623c0,0,-2,12,-5,55c0,0,-3,44,-3,75h-3c0,0,-37,-78,-98,-111c0,0,-62,-33,-153,-33Z" 
id="f0_20"
transform="scale(0.001,-0.001)" />

<path d="M140,0V163H285V0Z" 
id="f0_i"
transform="scale(0.001,-0.001)" />


</defs>
</svg>