<?xml version="1.0" encoding="UTF-8" standalone="no"?>
<!DOCTYPE svg PUBLIC "-//W3C//DTD SVG 1.1//EN"
"http://www.w3.org/Graphics/SVG/1.1/DTD/svg11.dtd">
<svg viewBox="0 0 811 1133" version="1.1" xmlns="http://www.w3.org/2000/svg" xmlns:xlink="http://www.w3.org/1999/xlink">
<defs>
<style type="text/css"><![CDATA[
.g0_61{
fill: none;
stroke: #000000;
stroke-width: 0.15277778;
stroke-linecap: round;
stroke-linejoin: miter;
}
.g1_61{
}
.g2_61{
fill: none;
stroke: #000000;
stroke-width: 0.76584446;
stroke-linecap: round;
stroke-linejoin: miter;
}
.g3_61{
fill: none;
stroke: #000000;
stroke-width: 0.7660889;
stroke-linecap: round;
stroke-linejoin: miter;
}
.g4_61{
fill: none;
stroke: #000000;
stroke-width: 0.38304445;
stroke-linecap: round;
stroke-linejoin: miter;
}
.g5_61{
fill: none;
stroke: #000000;
stroke-width: 0.38084444;
stroke-linecap: round;
stroke-linejoin: miter;
}
.g6_61{
fill: none;
stroke: #000000;
stroke-width: 0.7609555;
stroke-linecap: round;
stroke-linejoin: miter;
}
.g7_61{
fill: none;
stroke: #000000;
stroke-width: 0.38194445;
stroke-linecap: round;
stroke-linejoin: miter;
}
.g8_61{
fill: none;
stroke: #000000;
stroke-width: 0.7638889;
stroke-linecap: round;
stroke-linejoin: miter;
}
.g9_61{
fill: none;
stroke: #000000;
stroke-width: 0.38292223;
stroke-linecap: round;
stroke-linejoin: miter;
}
.g10_61{
fill: none;
stroke: #000000;
stroke-width: 0.76144445;
stroke-linecap: round;
stroke-linejoin: miter;
}
.g11_61{
fill: none;
stroke: #000000;
stroke-width: 0.38047776;
stroke-linecap: round;
stroke-linejoin: miter;
}
.g12_61{
fill: none;
stroke: #000000;
stroke-width: 0.7624222;
stroke-linecap: round;
stroke-linejoin: miter;
}
]]></style>
</defs>
<g fill="#D4D4D4" fill-opacity="0.56" >
<use xlink:href="#f0_1f" transform="matrix(50.9,-50.9,50.9,50.9,199.9,924.1)" />
<use xlink:href="#f0_2a" transform="matrix(50.9,-50.9,50.9,50.9,260.4,863.6)" />
<use xlink:href="#f0_28" transform="matrix(50.9,-50.9,50.9,50.9,303.7,820.3)" />
<use xlink:href="#f0_25" transform="matrix(50.9,-50.9,50.9,50.9,320.9,803.1)" />
<use xlink:href="#f0_2a" transform="matrix(50.9,-50.9,50.9,50.9,338.2,785.8)" />
<use xlink:href="#f0_21" transform="matrix(50.9,-50.9,50.9,50.9,381.4,742.5)" />
<use xlink:href="#f0_2k" transform="matrix(50.9,-50.9,50.9,50.9,424.7,699.3)" />
<use xlink:href="#f0_1x" transform="matrix(50.9,-50.9,50.9,50.9,463.6,660.4)" />
<use xlink:href="#f0_29" transform="matrix(50.9,-50.9,50.9,50.9,506.8,617.2)" />
<use xlink:href="#f0_2c" transform="matrix(50.9,-50.9,50.9,50.9,571.6,552.4)" />
<use xlink:href="#f0_2b" transform="matrix(50.9,-50.9,50.9,50.9,614.9,509.1)" />
<use xlink:href="#f0_25" transform="matrix(50.9,-50.9,50.9,50.9,658.1,465.9)" />
<use xlink:href="#f0_2a" transform="matrix(50.9,-50.9,50.9,50.9,675.4,448.6)" />
<use xlink:href="#f0_2g" transform="matrix(50.9,-50.9,50.9,50.9,718.6,405.4)" />
</g>
<g fill="#000000" >
<use xlink:href="#f1_b" transform="matrix(10.4,0,0,10.4,177.3,82)" />
<use xlink:href="#f1_2j" transform="matrix(10.4,0,0,10.4,182.6,82)" />
<use xlink:href="#f1_24" transform="matrix(10.4,0,0,10.4,190.5,82)" />
<use xlink:href="#f1_24" transform="matrix(10.4,0,0,10.4,194.1,82)" />
<use xlink:href="#f1_24" transform="matrix(10.4,0,0,10.4,197.6,82)" />
<use xlink:href="#f1_c" transform="matrix(10.4,0,0,10.4,201.2,82)" />
<use xlink:href="#f2_c" transform="matrix(10.4,0,0,11.4,240.6,78.4)" />
<use xlink:href="#f2_d" transform="matrix(10.4,0,0,11.4,299.4,78.4)" />
</g>
<path d="M309.2,74.1l1.6,-1.2l3.9,8.9L319,58.4h83.3" class="g0_61" />
<path fill-rule="evenodd" d="M309.1,73.9l2.1,-1.6l3.5,7.4l4,-21.7h83.6v.8h-83l-4.2,23h-.8l-3.9,-8.3l-1,.8l-.3,-.4Z" class="g1_61" />
<g fill="#000000" >
<use xlink:href="#f1_l" transform="matrix(7.9,0,0,7.9,393.2,70.8)" />
<use xlink:href="#f1_p" transform="matrix(10.5,0,0,10.5,247.5,80.4)" />
<use xlink:href="#f1_o" transform="matrix(10.5,0,0,10.5,289,80.4)" />
<use xlink:href="#f1_p" transform="matrix(10.5,0,0,10.5,319.3,80.4)" />
<use xlink:href="#f1_h" transform="matrix(10.5,0,0,10.5,419.5,80.4)" />
<use xlink:href="#f2_f" transform="matrix(10.5,0,0,10.5,273.2,80.4)" />
<use xlink:href="#f2_f" transform="matrix(10.5,0,0,10.5,334.8,80.4)" />
<use xlink:href="#f2_h" transform="matrix(10.5,0,0,10.5,367.3,80.4)" />
<use xlink:href="#f2_50" transform="matrix(21,0,0,21,227.2,89)" />
<use xlink:href="#f3_2j" transform="matrix(10.5,0,0,10.5,256.7,80.4)" />
<use xlink:href="#f3_2j" transform="matrix(10.5,0,0,10.5,350.8,80.4)" />
<use xlink:href="#f3_2j" transform="matrix(10.5,0,0,10.5,383,80.4)" />
<use xlink:href="#f3_1z" transform="matrix(10.5,0,0,10.5,401.1,80.4)" />
<use xlink:href="#f3_2j" transform="matrix(10.5,0,0,10.5,410.4,80.4)" />
<use xlink:href="#f1_b" transform="matrix(10.4,0,0,10.4,176.2,151.1)" />
<use xlink:href="#f1_2j" transform="matrix(10.4,0,0,10.4,181.5,151.1)" />
<use xlink:href="#f1_24" transform="matrix(10.4,0,0,10.4,189.4,151.1)" />
<use xlink:href="#f1_2h" transform="matrix(10.4,0,0,10.4,193,151.1)" />
<use xlink:href="#f1_c" transform="matrix(10.4,0,0,10.4,201,151.1)" />
<use xlink:href="#f2_c" transform="matrix(10.4,0,0,11.2,241,144.9)" />
<use xlink:href="#f2_d" transform="matrix(10.4,0,0,11.2,290.5,144.9)" />
</g>
<path d="M310.9,142.8h42.8" class="g2_61" />
<path d="M300.2,149.8l1.5,-2.2l3.9,16.2l4.3,-42.7h45" class="g0_61" />
<path fill-rule="evenodd" d="M300,149.6l2.1,-3l3.5,13.9l4,-39.8h45.3v.8H310.3L306,163.8h-.7l-4,-15.1l-.9,1.2l-.4,-.3Z" class="g1_61" />
<g fill="#000000" >
<use xlink:href="#f1_m" transform="matrix(10.4,0,0,10.4,344,136.7)" />
<use xlink:href="#f1_l" transform="matrix(10.4,0,0,10.4,280,147)" />
<use xlink:href="#f1_h" transform="matrix(10.4,0,0,10.4,371.9,147)" />
<use xlink:href="#f1_m" transform="matrix(10.4,0,0,10.4,343.9,162.5)" />
<use xlink:href="#f2_f" transform="matrix(10.5,0,0,10.4,328.3,136.7)" />
<use xlink:href="#f2_h" transform="matrix(10.5,0,0,10.4,264.6,147)" />
<use xlink:href="#f2_h" transform="matrix(10.5,0,0,10.4,328.5,162.5)" />
<use xlink:href="#f2_50" transform="matrix(20.9,0,0,20.9,227.6,155.5)" />
<use xlink:href="#f3_2j" transform="matrix(10.4,0,0,10.4,311.8,136.7)" />
<use xlink:href="#f3_2j" transform="matrix(10.4,0,0,10.4,248,147)" />
<use xlink:href="#f3_1z" transform="matrix(10.4,0,0,10.4,353.5,147)" />
<use xlink:href="#f3_2j" transform="matrix(10.4,0,0,10.4,362.9,147)" />
<use xlink:href="#f3_2j" transform="matrix(10.4,0,0,10.4,311.9,162.5)" />
<use xlink:href="#f1_b" transform="matrix(10.4,0,0,10.4,179.6,220.4)" />
<use xlink:href="#f1_2j" transform="matrix(10.4,0,0,10.4,185,220.4)" />
<use xlink:href="#f1_2h" transform="matrix(10.4,0,0,10.4,193.2,220.4)" />
<use xlink:href="#f1_c" transform="matrix(10.4,0,0,10.4,201.2,220.4)" />
<use xlink:href="#f2_c" transform="matrix(10.4,0,0,11.4,240.6,216.8)" />
<use xlink:href="#f2_d" transform="matrix(10.4,0,0,11.4,299.2,216.8)" />
</g>
<path d="M309,212.5l1.5,-1.2l4,8.9l4.2,-23.4h92.4" class="g0_61" />
<path fill-rule="evenodd" d="M308.9,212.4l2.1,-1.7l3.5,7.4l4,-21.7h92.6v.8h-92l-4.2,23h-.8l-4,-8.3l-1,.8l-.2,-.3Z" class="g1_61" />
<g fill="#000000" >
<use xlink:href="#f1_l" transform="matrix(7.9,0,0,7.9,329.6,209.3)" />
<use xlink:href="#f1_l" transform="matrix(10.5,0,0,10.5,247.6,218.9)" />
<use xlink:href="#f1_o" transform="matrix(10.5,0,0,10.5,288.8,218.9)" />
<use xlink:href="#f1_n" transform="matrix(10.5,0,0,10.5,360.2,218.9)" />
<use xlink:href="#f1_m" transform="matrix(10.5,0,0,10.5,401.7,218.9)" />
<use xlink:href="#f1_h" transform="matrix(10.5,0,0,10.5,433.5,218.9)" />
<use xlink:href="#f2_h" transform="matrix(10.5,0,0,10.5,273.3,218.9)" />
<use xlink:href="#f2_h" transform="matrix(10.5,0,0,10.5,344.7,218.9)" />
<use xlink:href="#f2_f" transform="matrix(10.5,0,0,10.5,386,218.9)" />
<use xlink:href="#f2_50" transform="matrix(21,0,0,21,227.3,227.4)" />
<use xlink:href="#f3_2j" transform="matrix(10.5,0,0,10.5,256.8,218.9)" />
<use xlink:href="#f3_2j" transform="matrix(10.5,0,0,10.5,319.4,218.9)" />
<use xlink:href="#f3_2j" transform="matrix(10.5,0,0,10.5,369.5,218.9)" />
<use xlink:href="#f3_1z" transform="matrix(10.5,0,0,10.5,415.2,218.9)" />
<use xlink:href="#f3_2j" transform="matrix(10.5,0,0,10.5,424.5,218.9)" />
<use xlink:href="#f1_b" transform="matrix(10.4,0,0,10.4,176.2,282.9)" />
<use xlink:href="#f1_2j" transform="matrix(10.4,0,0,10.4,181.5,282.9)" />
<use xlink:href="#f1_2h" transform="matrix(10.4,0,0,10.4,189.4,282.9)" />
<use xlink:href="#f1_24" transform="matrix(10.4,0,0,10.4,197.7,282.9)" />
<use xlink:href="#f1_c" transform="matrix(10.4,0,0,10.4,201.2,282.9)" />
</g>
<path d="M241.8,275.1l1.6,-1.3l3.9,8.9l4.3,-23.4h92.3" class="g0_61" />
<path fill-rule="evenodd" d="M241.7,274.9l2.1,-1.7l3.5,7.4l4,-21.7h92.6v.8h-92l-4.2,23h-.8L243,274.4l-1,.9l-.3,-.4Z" class="g1_61" />
<g fill="#000000" >
<use xlink:href="#f1_l" transform="matrix(7.9,0,0,7.9,262.5,271.8)" />
<use xlink:href="#f1_n" transform="matrix(10.5,0,0,10.5,293.1,281.4)" />
<use xlink:href="#f1_r" transform="matrix(10.5,0,0,10.5,334.6,281.4)" />
<use xlink:href="#f1_h" transform="matrix(10.5,0,0,10.5,369.8,281.4)" />
<use xlink:href="#f2_h" transform="matrix(10.5,0,0,10.5,277.6,281.4)" />
<use xlink:href="#f2_f" transform="matrix(10.5,0,0,10.5,318.8,281.4)" />
<use xlink:href="#f2_50" transform="matrix(21,0,0,21,227.4,289.9)" />
<use xlink:href="#f3_2j" transform="matrix(10.5,0,0,10.5,252.3,281.4)" />
<use xlink:href="#f3_2j" transform="matrix(10.5,0,0,10.5,302.3,281.4)" />
<use xlink:href="#f3_1z" transform="matrix(10.5,0,0,10.5,351.4,281.4)" />
<use xlink:href="#f3_2j" transform="matrix(10.5,0,0,10.5,360.8,281.4)" />
<use xlink:href="#f1_n" transform="matrix(10.4,0,0,10.4,129.2,332)" />
<use xlink:href="#f1_o" transform="matrix(10.4,0,0,10.4,138.1,332)" />
<use xlink:href="#f1_h" transform="matrix(10.4,0,0,10.4,147.3,332)" />
<use xlink:href="#f1_14" transform="matrix(10.4,0,0,10.4,169.9,332)" />
<use xlink:href="#f1_2h" transform="matrix(10.4,0,0,10.4,180.6,332)" />
<use xlink:href="#f1_1w" transform="matrix(10.4,0,0,10.4,188.5,332)" />
<use xlink:href="#f1_27" transform="matrix(10.4,0,0,10.4,197.4,332)" />
<use xlink:href="#f1_2g" transform="matrix(10.4,0,0,10.4,200.9,332)" />
<use xlink:href="#f1_1w" transform="matrix(10.4,0,0,10.4,209.8,332)" />
<use xlink:href="#f1_2f" transform="matrix(10.4,0,0,10.4,218.7,332)" />
<use xlink:href="#f1_20" transform="matrix(10.4,0,0,10.4,223.1,332)" />
<use xlink:href="#f1_2f" transform="matrix(10.4,0,0,10.4,239.5,332)" />
<use xlink:href="#f1_23" transform="matrix(10.4,0,0,10.4,243.9,332)" />
<use xlink:href="#f1_20" transform="matrix(10.4,0,0,10.4,252.8,332)" />
<use xlink:href="#f1_21" transform="matrix(10.4,0,0,10.4,269.2,332)" />
<use xlink:href="#f1_2a" transform="matrix(10.4,0,0,10.4,273.6,332)" />
<use xlink:href="#f1_27" transform="matrix(10.4,0,0,10.4,282.5,332)" />
<use xlink:href="#f1_27" transform="matrix(10.4,0,0,10.4,286,332)" />
<use xlink:href="#f1_2a" transform="matrix(10.4,0,0,10.4,289.6,332)" />
<use xlink:href="#f1_2i" transform="matrix(10.4,0,0,10.4,298.4,332)" />
<use xlink:href="#f1_24" transform="matrix(10.4,0,0,10.4,309.9,332)" />
<use xlink:href="#f1_29" transform="matrix(10.4,0,0,10.4,313.5,332)" />
<use xlink:href="#f1_22" transform="matrix(10.4,0,0,10.4,322.4,332)" />
<use xlink:href="#f1_1z" transform="matrix(10.4,0,0,10.4,338.7,332)" />
<use xlink:href="#f1_20" transform="matrix(10.4,0,0,10.4,347.6,332)" />
<use xlink:href="#f1_21" transform="matrix(10.4,0,0,10.4,356.5,332)" />
<use xlink:href="#f1_24" transform="matrix(10.4,0,0,10.4,360.9,332)" />
<use xlink:href="#f1_29" transform="matrix(10.4,0,0,10.4,364.5,332)" />
<use xlink:href="#f1_24" transform="matrix(10.4,0,0,10.4,373.3,332)" />
<use xlink:href="#f1_2f" transform="matrix(10.4,0,0,10.4,376.9,332)" />
<use xlink:href="#f1_20" transform="matrix(10.4,0,0,10.4,381.3,332)" />
<use xlink:href="#f1_24" transform="matrix(10.4,0,0,10.4,397.7,332)" />
<use xlink:href="#f1_29" transform="matrix(10.4,0,0,10.4,401.2,332)" />
<use xlink:href="#f1_2f" transform="matrix(10.4,0,0,10.4,410.1,332)" />
<use xlink:href="#f1_20" transform="matrix(10.4,0,0,10.4,414.5,332)" />
<use xlink:href="#f1_22" transform="matrix(10.4,0,0,10.4,423.4,332)" />
<use xlink:href="#f1_2d" transform="matrix(10.4,0,0,10.4,432.3,332)" />
<use xlink:href="#f1_1w" transform="matrix(10.4,0,0,10.4,437.6,332)" />
<use xlink:href="#f1_27" transform="matrix(10.4,0,0,10.4,446.4,332)" />
<use xlink:href="#f1_2e" transform="matrix(10.4,0,0,10.4,450,332)" />
<use xlink:href="#f1_t" transform="matrix(10.4,0,0,10.4,465.5,332)" />
<use xlink:href="#f1_b" transform="matrix(10.4,0,0,10.4,192.5,410.1)" />
<use xlink:href="#f1_24" transform="matrix(10.4,0,0,10.4,197.8,410.1)" />
<use xlink:href="#f1_c" transform="matrix(10.4,0,0,10.4,201.3,410.1)" />
</g>
<path d="M241.7,403.4H341" class="g3_61" />
<path d="M228.2,371.4h8.1" class="g4_61" />
<g fill="#000000" >
<use xlink:href="#f1_n" transform="matrix(7.9,0,0,7.8,229,386)" />
<use xlink:href="#f1_j" transform="matrix(7.9,0,0,7.8,229,434.5)" />
<use xlink:href="#f1_2e" transform="matrix(10.4,0,0,10.4,242.4,397.2)" />
<use xlink:href="#f1_24" transform="matrix(10.4,0,0,10.4,250.7,397.2)" />
<use xlink:href="#f1_29" transform="matrix(10.4,0,0,10.4,254.5,397.2)" />
<use xlink:href="#f1_1y" transform="matrix(10.4,0,0,10.4,299.9,397.2)" />
<use xlink:href="#f1_2a" transform="matrix(10.4,0,0,10.4,308.2,397.2)" />
<use xlink:href="#f1_2e" transform="matrix(10.4,0,0,10.4,317.5,397.2)" />
<use xlink:href="#f1_h" transform="matrix(10.4,0,0,10.4,363.5,407.6)" />
<use xlink:href="#f1_s" transform="matrix(10.4,0,0,10.4,243,423.1)" />
<use xlink:href="#f1_k" transform="matrix(10.4,0,0,10.4,273,423.1)" />
<use xlink:href="#f1_p" transform="matrix(10.4,0,0,10.4,282.3,423.1)" />
<use xlink:href="#f1_2e" transform="matrix(10.4,0,0,10.4,295.3,423.1)" />
<use xlink:href="#f1_24" transform="matrix(10.4,0,0,10.4,303.6,423.1)" />
<use xlink:href="#f1_29" transform="matrix(10.4,0,0,10.4,307.4,423.1)" />
<use xlink:href="#f1_l" transform="matrix(10.4,0,0,10.4,320.1,423.1)" />
<use xlink:href="#f3_2j" transform="matrix(10.4,0,0,10.4,267.4,397.2)" />
<use xlink:href="#f3_2j" transform="matrix(10.4,0,0,10.4,330,397.2)" />
<use xlink:href="#f3_1z" transform="matrix(10.4,0,0,10.4,344.7,407.6)" />
<use xlink:href="#f3_2j" transform="matrix(10.4,0,0,10.4,354,407.6)" />
<use xlink:href="#f3_2j" transform="matrix(10.4,0,0,10.4,329.1,423.1)" />
<use xlink:href="#f2_2c" transform="matrix(7.8,0,0,7.8,228.9,367)" />
<use xlink:href="#f2_f" transform="matrix(10.5,0,0,10.4,284.2,397.2)" />
<use xlink:href="#f2_f" transform="matrix(10.5,0,0,10.4,258.5,423.1)" />
<use xlink:href="#f2_50" transform="matrix(20.9,0,0,20.9,227.4,416.1)" />
<use xlink:href="#f1_b" transform="matrix(10.4,0,0,10.4,463.8,410.1)" />
<use xlink:href="#f1_24" transform="matrix(10.4,0,0,10.4,469.1,410.1)" />
<use xlink:href="#f1_24" transform="matrix(10.4,0,0,10.4,472.7,410.1)" />
<use xlink:href="#f1_c" transform="matrix(10.4,0,0,10.4,476.2,410.1)" />
</g>
<path d="M503.2,373.6h8" class="g5_61" />
<g fill="#000000" >
<use xlink:href="#f1_l" transform="matrix(7.9,0,0,7.8,504,388.2)" />
<use xlink:href="#f1_j" transform="matrix(7.9,0,0,7.8,504,436.7)" />
<use xlink:href="#f1_1y" transform="matrix(10.5,0,0,10.4,516.2,409.8)" />
<use xlink:href="#f1_2a" transform="matrix(10.5,0,0,10.4,524.5,409.8)" />
<use xlink:href="#f1_2e" transform="matrix(10.5,0,0,10.4,533.8,409.8)" />
<use xlink:href="#f1_l" transform="matrix(10.5,0,0,10.4,545.9,409.8)" />
<use xlink:href="#f1_27" transform="matrix(10.5,0,0,10.4,568.6,409.8)" />
<use xlink:href="#f1_2a" transform="matrix(10.5,0,0,10.4,572.3,409.8)" />
<use xlink:href="#f1_22" transform="matrix(10.5,0,0,10.4,581.6,409.8)" />
<use xlink:href="#f1_2e" transform="matrix(10.5,0,0,10.4,594.3,409.8)" />
<use xlink:href="#f1_24" transform="matrix(10.5,0,0,10.4,602.6,409.8)" />
<use xlink:href="#f1_29" transform="matrix(10.5,0,0,10.4,606.4,409.8)" />
<use xlink:href="#f1_h" transform="matrix(10.5,0,0,10.4,653.9,409.8)" />
<use xlink:href="#f3_2j" transform="matrix(10.5,0,0,10.4,555.2,409.8)" />
<use xlink:href="#f3_2j" transform="matrix(10.5,0,0,10.4,619,409.8)" />
<use xlink:href="#f3_1z" transform="matrix(10.5,0,0,10.4,635.6,409.8)" />
<use xlink:href="#f3_2j" transform="matrix(10.5,0,0,10.4,644.9,409.8)" />
<use xlink:href="#f2_2c" transform="matrix(7.9,0,0,7.8,504,369.2)" />
<use xlink:href="#f2_50" transform="matrix(20.9,0,0,20.9,502.4,418.3)" />
<use xlink:href="#f1_b" transform="matrix(10.4,0,0,10.4,185.3,508.8)" />
<use xlink:href="#f1_24" transform="matrix(10.4,0,0,10.4,190.6,508.8)" />
<use xlink:href="#f1_24" transform="matrix(10.4,0,0,10.4,194.2,508.8)" />
<use xlink:href="#f1_24" transform="matrix(10.4,0,0,10.4,197.7,508.8)" />
<use xlink:href="#f1_c" transform="matrix(10.4,0,0,10.4,201.3,508.8)" />
</g>
<path d="M262.9,504.7h47.6" class="g6_61" />
<path d="M252.3,510.4l1.5,-2.6l3.9,19.4L262,476.3h49.7" class="g0_61" />
<path fill-rule="evenodd" d="M252.1,510.3l2.1,-3.6l3.4,16.5l4,-47.3h50.1v.8H262.3l-4.2,50.5h-.8l-4,-18.3l-.8,1.6l-.4,-.2Z" class="g1_61" />
<g fill="#000000" >
<use xlink:href="#f1_k" transform="matrix(8,0,0,7.9,229.4,487.2)" />
<use xlink:href="#f1_l" transform="matrix(8,0,0,7.9,301.3,488.9)" />
<use xlink:href="#f1_l" transform="matrix(8,0,0,7.9,301.5,516.4)" />
<use xlink:href="#f1_j" transform="matrix(8,0,0,7.9,229,536.2)" />
<use xlink:href="#f1_k" transform="matrix(10.6,0,0,10.6,262.5,498.5)" />
<use xlink:href="#f1_h" transform="matrix(10.6,0,0,10.6,334.3,509)" />
<use xlink:href="#f1_k" transform="matrix(10.6,0,0,10.6,262.4,526)" />
<use xlink:href="#f3_2j" transform="matrix(10.6,0,0,10.6,291,498.5)" />
<use xlink:href="#f3_2j" transform="matrix(10.6,0,0,10.6,241.4,509)" />
<use xlink:href="#f3_1z" transform="matrix(10.6,0,0,10.6,315.5,509)" />
<use xlink:href="#f3_2j" transform="matrix(10.6,0,0,10.6,324.8,509)" />
<use xlink:href="#f3_2j" transform="matrix(10.6,0,0,10.6,291.1,526)" />
<use xlink:href="#f2_h" transform="matrix(10.6,0,0,10.6,275.3,498.5)" />
<use xlink:href="#f2_f" transform="matrix(10.6,0,0,10.6,275.2,526)" />
<use xlink:href="#f2_50" transform="matrix(21.1,0,0,21.1,227.4,517.5)" />
<use xlink:href="#f1_b" transform="matrix(10.4,0,0,10.4,459.2,508.8)" />
<use xlink:href="#f1_24" transform="matrix(10.4,0,0,10.4,464.5,508.8)" />
<use xlink:href="#f1_2h" transform="matrix(10.4,0,0,10.4,468.1,508.8)" />
<use xlink:href="#f1_c" transform="matrix(10.4,0,0,10.4,476.1,508.8)" />
<use xlink:href="#f2_c" transform="matrix(10.4,0,0,16,532.2,527.2)" />
<use xlink:href="#f2_d" transform="matrix(10.4,0,0,16,586.8,527.3)" />
</g>
<path d="M602.4,506.1L598.6,518" class="g7_61" />
<path d="M531.9,503.9h80.2" class="g8_61" />
<path d="M512.1,480.8l1.1,-.7l3.1,4.7l3.1,-12.4h7.3" class="g0_61" />
<path fill-rule="evenodd" d="M512,480.6l1.6,-.8l2.7,3.9l2.9,-11.6h7.5v.6h-7.1l-3.1,12.1H516l-3,-4.3l-.9,.4l-.1,-.3Z" class="g1_61" />
<path d="M510.9,472.1l-4.6,14.4" class="g7_61" />
<g fill="#000000" >
<use xlink:href="#f1_k" transform="matrix(7.9,0,0,7.8,501.7,484)" />
<use xlink:href="#f1_l" transform="matrix(7.9,0,0,7.8,519.8,484)" />
<use xlink:href="#f1_k" transform="matrix(7.9,0,0,7.8,575.6,488.2)" />
<use xlink:href="#f1_m" transform="matrix(7.9,0,0,7.8,592.2,515.5)" />
<use xlink:href="#f1_l" transform="matrix(7.9,0,0,7.8,603.3,515.5)" />
<use xlink:href="#f1_l" transform="matrix(7.9,0,0,7.8,577.1,521.3)" />
<use xlink:href="#f1_j" transform="matrix(7.9,0,0,7.8,511.6,535.1)" />
<use xlink:href="#f1_2e" transform="matrix(10.5,0,0,10.4,547.6,497.8)" />
<use xlink:href="#f1_24" transform="matrix(10.5,0,0,10.4,556,497.8)" />
<use xlink:href="#f1_29" transform="matrix(10.5,0,0,10.4,559.7,497.8)" />
<use xlink:href="#f1_h" transform="matrix(10.5,0,0,10.4,635.1,508.1)" />
<use xlink:href="#f1_k" transform="matrix(10.5,0,0,10.4,537.9,530.8)" />
<use xlink:href="#f3_2j" transform="matrix(10.5,0,0,10.4,586.6,497.8)" />
<use xlink:href="#f3_1z" transform="matrix(10.5,0,0,10.4,616.2,508.1)" />
<use xlink:href="#f3_2j" transform="matrix(10.5,0,0,10.4,625.5,508.1)" />
<use xlink:href="#f3_2j" transform="matrix(10.5,0,0,10.4,566.6,530.8)" />
<use xlink:href="#f2_h" transform="matrix(7.9,0,0,7.8,568.9,488.2)" />
<use xlink:href="#f2_h" transform="matrix(10.5,0,0,10.4,550.8,530.8)" />
<use xlink:href="#f2_50" transform="matrix(20.9,0,0,20.9,510,516.6)" />
<use xlink:href="#f1_b" transform="matrix(10.4,0,0,10.4,187.9,612.7)" />
<use xlink:href="#f1_2h" transform="matrix(10.4,0,0,10.4,193.2,612.7)" />
<use xlink:href="#f1_c" transform="matrix(10.4,0,0,10.4,201.4,612.7)" />
</g>
<path d="M241.7,607.8H358.6" class="g2_61" />
<path d="M228.2,575.8h8.1" class="g9_61" />
<g fill="#000000" >
<use xlink:href="#f1_l" transform="matrix(7.9,0,0,7.8,229.1,590.4)" />
<use xlink:href="#f1_n" transform="matrix(7.9,0,0,7.8,263.5,619.4)" />
<use xlink:href="#f1_n" transform="matrix(7.9,0,0,7.8,334.9,619.4)" />
<use xlink:href="#f1_j" transform="matrix(7.9,0,0,7.8,229,639)" />
<use xlink:href="#f1_2e" transform="matrix(10.4,0,0,10.4,278.1,601.7)" />
<use xlink:href="#f1_24" transform="matrix(10.4,0,0,10.4,286.4,601.7)" />
<use xlink:href="#f1_29" transform="matrix(10.4,0,0,10.4,290.2,601.7)" />
<use xlink:href="#f1_l" transform="matrix(10.4,0,0,10.4,302.9,601.7)" />
<use xlink:href="#f1_h" transform="matrix(10.4,0,0,10.4,381.1,612)" />
<use xlink:href="#f1_2e" transform="matrix(10.4,0,0,10.4,242.4,628.9)" />
<use xlink:href="#f1_24" transform="matrix(10.4,0,0,10.4,250.7,628.9)" />
<use xlink:href="#f1_29" transform="matrix(10.4,0,0,10.4,254.5,628.9)" />
<use xlink:href="#f1_1y" transform="matrix(10.4,0,0,10.4,308.7,628.9)" />
<use xlink:href="#f1_2a" transform="matrix(10.4,0,0,10.4,317,628.9)" />
<use xlink:href="#f1_2e" transform="matrix(10.4,0,0,10.4,326.3,628.9)" />
<use xlink:href="#f3_2j" transform="matrix(10.4,0,0,10.4,311.9,601.7)" />
<use xlink:href="#f3_1z" transform="matrix(10.4,0,0,10.4,362.2,612)" />
<use xlink:href="#f3_2j" transform="matrix(10.4,0,0,10.4,371.6,612)" />
<use xlink:href="#f3_2j" transform="matrix(10.4,0,0,10.4,276.2,628.9)" />
<use xlink:href="#f3_2j" transform="matrix(10.4,0,0,10.4,347.6,628.9)" />
<use xlink:href="#f2_2c" transform="matrix(7.8,0,0,7.8,228.9,571.4)" />
<use xlink:href="#f2_f" transform="matrix(10.5,0,0,10.4,293,628.9)" />
<use xlink:href="#f2_50" transform="matrix(20.9,0,0,20.9,227.5,620.5)" />
<use xlink:href="#f1_b" transform="matrix(10.4,0,0,10.4,459.2,612.7)" />
<use xlink:href="#f1_2h" transform="matrix(10.4,0,0,10.4,464.5,612.7)" />
<use xlink:href="#f1_24" transform="matrix(10.4,0,0,10.4,472.8,612.7)" />
<use xlink:href="#f1_c" transform="matrix(10.4,0,0,10.4,476.3,612.7)" />
</g>
<path d="M516.6,608.9h93" class="g10_61" />
<g fill="#000000" >
<use xlink:href="#f1_l" transform="matrix(7.9,0,0,7.8,504.1,591.6)" />
<use xlink:href="#f1_l" transform="matrix(7.9,0,0,7.8,568.9,593.3)" />
<use xlink:href="#f1_l" transform="matrix(7.9,0,0,7.8,528,620.5)" />
<use xlink:href="#f1_k" transform="matrix(7.9,0,0,7.8,504.4,640)" />
<use xlink:href="#f1_o" transform="matrix(10.5,0,0,10.4,549.3,602.8)" />
<use xlink:href="#f1_h" transform="matrix(10.5,0,0,10.4,632.4,613.1)" />
<use xlink:href="#f1_n" transform="matrix(10.5,0,0,10.4,558.6,630)" />
<use xlink:href="#f1_m" transform="matrix(10.5,0,0,10.4,600.3,630)" />
<use xlink:href="#f3_2j" transform="matrix(10.5,0,0,10.4,558.5,602.8)" />
<use xlink:href="#f3_1z" transform="matrix(10.5,0,0,10.4,613.6,613.1)" />
<use xlink:href="#f3_2j" transform="matrix(10.5,0,0,10.4,622.9,613.1)" />
<use xlink:href="#f3_2j" transform="matrix(10.5,0,0,10.4,517.6,630)" />
<use xlink:href="#f3_2j" transform="matrix(10.5,0,0,10.4,567.9,630)" />
<use xlink:href="#f2_f" transform="matrix(10.5,0,0,10.4,543,630)" />
<use xlink:href="#f2_f" transform="matrix(10.5,0,0,10.4,584.6,630)" />
<use xlink:href="#f2_50" transform="matrix(20.9,0,0,20.8,502.4,621.6)" />
<use xlink:href="#f1_b" transform="matrix(10.4,0,0,10.4,180.7,715.4)" />
<use xlink:href="#f1_2h" transform="matrix(10.4,0,0,10.4,186.1,715.4)" />
<use xlink:href="#f1_24" transform="matrix(10.4,0,0,10.4,194,715.4)" />
<use xlink:href="#f1_24" transform="matrix(10.4,0,0,10.4,197.6,715.4)" />
<use xlink:href="#f1_c" transform="matrix(10.4,0,0,10.4,201.1,715.4)" />
</g>
<path d="M241.6,711.4h68.9" class="g6_61" />
<path d="M228.2,679.4h8" class="g11_61" />
<g fill="#000000" >
<use xlink:href="#f1_l" transform="matrix(7.8,0,0,7.8,229.1,694)" />
<use xlink:href="#f1_j" transform="matrix(7.8,0,0,7.8,229,742.5)" />
<use xlink:href="#f1_2e" transform="matrix(10.4,0,0,10.4,274.9,705.2)" />
<use xlink:href="#f1_24" transform="matrix(10.4,0,0,10.4,283.1,705.2)" />
<use xlink:href="#f1_29" transform="matrix(10.4,0,0,10.4,286.9,705.2)" />
<use xlink:href="#f1_h" transform="matrix(10.4,0,0,10.4,333.1,715.6)" />
<use xlink:href="#f1_k" transform="matrix(10.4,0,0,10.4,241.2,731.1)" />
<use xlink:href="#f1_1y" transform="matrix(10.4,0,0,10.4,269.7,731.1)" />
<use xlink:href="#f1_2a" transform="matrix(10.4,0,0,10.4,278,731.1)" />
<use xlink:href="#f1_2e" transform="matrix(10.4,0,0,10.4,287.3,731.1)" />
<use xlink:href="#f3_2j" transform="matrix(10.4,0,0,10.4,242.6,705.2)" />
<use xlink:href="#f3_2j" transform="matrix(10.4,0,0,10.4,299.8,705.2)" />
<use xlink:href="#f3_1z" transform="matrix(10.4,0,0,10.4,314.3,715.6)" />
<use xlink:href="#f3_2j" transform="matrix(10.4,0,0,10.4,323.6,715.6)" />
<use xlink:href="#f3_2j" transform="matrix(10.4,0,0,10.4,299.6,731.1)" />
<use xlink:href="#f2_2c" transform="matrix(7.8,0,0,7.8,229,675)" />
<use xlink:href="#f2_f" transform="matrix(10.4,0,0,10.4,259.2,705.2)" />
<use xlink:href="#f2_f" transform="matrix(10.4,0,0,10.4,254.1,731.1)" />
<use xlink:href="#f2_50" transform="matrix(20.9,0,0,20.9,227.5,724.1)" />
<use xlink:href="#f1_n" transform="matrix(10.4,0,0,10.4,129.2,780.8)" />
<use xlink:href="#f1_p" transform="matrix(10.4,0,0,10.4,138.1,780.8)" />
<use xlink:href="#f1_h" transform="matrix(10.4,0,0,10.4,147.3,780.8)" />
<use xlink:href="#f1_14" transform="matrix(10.4,0,0,10.4,169.9,780.8)" />
<use xlink:href="#f1_2h" transform="matrix(10.4,0,0,10.4,180.6,780.8)" />
<use xlink:href="#f1_1w" transform="matrix(10.4,0,0,10.4,188.5,780.8)" />
<use xlink:href="#f1_27" transform="matrix(10.4,0,0,10.4,197.4,780.8)" />
<use xlink:href="#f1_2g" transform="matrix(10.4,0,0,10.4,200.9,780.8)" />
<use xlink:href="#f1_1w" transform="matrix(10.4,0,0,10.4,209.8,780.8)" />
<use xlink:href="#f1_2f" transform="matrix(10.4,0,0,10.4,218.7,780.8)" />
<use xlink:href="#f1_20" transform="matrix(10.4,0,0,10.4,223.1,780.8)" />
<use xlink:href="#f1_t" transform="matrix(10.4,0,0,10.4,239.7,780.8)" />
<use xlink:href="#f1_b" transform="matrix(10.4,0,0,10.4,192.5,829.8)" />
<use xlink:href="#f1_24" transform="matrix(10.4,0,0,10.4,197.8,829.8)" />
<use xlink:href="#f1_c" transform="matrix(10.4,0,0,10.4,201.3,829.8)" />
</g>
<path d="M250,815.1v14.6m43,-14.6v14.6m24.5,-14.6v14.6M364,815.1v14.6m24.4,-14.6v14.8m46.5,-14.8v14.8" class="g12_61" />
<g fill="#000000" >
<use xlink:href="#f2_2n" transform="matrix(10.5,0,0,13,240.9,827.3)" />
<use xlink:href="#f2_2p" transform="matrix(10.5,0,0,13,437.1,827.3)" />
<use xlink:href="#f1_m" transform="matrix(7.9,0,0,7.8,229,806.9)" />
<use xlink:href="#f1_k" transform="matrix(7.9,0,0,7.8,229.5,855.4)" />
<use xlink:href="#f1_k" transform="matrix(10.5,0,0,10.4,284.2,828.6)" />
<use xlink:href="#f1_l" transform="matrix(10.5,0,0,10.4,352.6,828.6)" />
<use xlink:href="#f1_m" transform="matrix(10.5,0,0,10.4,423.6,828.6)" />
<use xlink:href="#f1_h" transform="matrix(10.5,0,0,10.4,465.9,828.6)" />
<use xlink:href="#f3_2j" transform="matrix(10.5,0,0,10.4,253.3,828.6)" />
<use xlink:href="#f3_2j" transform="matrix(10.5,0,0,10.4,320.7,828.6)" />
<use xlink:href="#f3_2j" transform="matrix(10.5,0,0,10.4,391.7,828.6)" />
<use xlink:href="#f3_1z" transform="matrix(10.5,0,0,10.4,447.6,828.6)" />
<use xlink:href="#f3_2j" transform="matrix(10.5,0,0,10.4,456.9,828.6)" />
<use xlink:href="#f2_h" transform="matrix(10.5,0,0,10.4,269.7,828.6)" />
<use xlink:href="#f2_f" transform="matrix(10.5,0,0,10.4,300.9,828.6)" />
<use xlink:href="#f2_h" transform="matrix(10.5,0,0,10.4,337.2,828.6)" />
<use xlink:href="#f2_f" transform="matrix(10.5,0,0,10.4,371.9,828.6)" />
<use xlink:href="#f2_h" transform="matrix(10.5,0,0,10.4,408.2,828.6)" />
<use xlink:href="#f2_50" transform="matrix(20.9,0,0,20.8,227.5,837)" />
<use xlink:href="#f1_b" transform="matrix(10.4,0,0,10.4,486.7,829.8)" />
<use xlink:href="#f1_24" transform="matrix(10.4,0,0,10.4,492,829.8)" />
<use xlink:href="#f1_24" transform="matrix(10.4,0,0,10.4,495.6,829.8)" />
<use xlink:href="#f1_c" transform="matrix(10.4,0,0,10.4,499.1,829.8)" />
</g>
<path d="M535,825.1h63.9" class="g8_61" />
<g fill="#000000" >
<use xlink:href="#f1_j" transform="matrix(7.9,0,0,7.8,522.3,856.2)" />
<use xlink:href="#f1_h" transform="matrix(10.4,0,0,10.4,621.6,829.3)" />
<use xlink:href="#f1_k" transform="matrix(10.4,0,0,10.4,534.4,844.8)" />
<use xlink:href="#f1_2e" transform="matrix(10.4,0,0,10.4,563.1,844.8)" />
<use xlink:href="#f1_24" transform="matrix(10.4,0,0,10.4,571.4,844.8)" />
<use xlink:href="#f1_29" transform="matrix(10.4,0,0,10.4,575.2,844.8)" />
<use xlink:href="#f3_2j" transform="matrix(10.4,0,0,10.4,562,819)" />
<use xlink:href="#f3_1z" transform="matrix(10.4,0,0,10.4,602.8,829.3)" />
<use xlink:href="#f3_2j" transform="matrix(10.4,0,0,10.4,612.1,829.3)" />
<use xlink:href="#f3_2j" transform="matrix(10.4,0,0,10.4,588.1,844.8)" />
<use xlink:href="#f2_2c" transform="matrix(7.9,0,0,7.8,522.3,807.7)" />
<use xlink:href="#f2_f" transform="matrix(10.5,0,0,10.4,547.4,844.8)" />
<use xlink:href="#f2_50" transform="matrix(20.9,0,0,20.8,520.7,837.8)" />
<use xlink:href="#f4_q" transform="matrix(8,0,0,8,730,1122.4)" />
</g>
<g fill="#0080FF" fill-opacity="0.5" >
<use xlink:href="#f0_1c" transform="matrix(42.3,0,0,42.3,202.9,1095.2)" />
<use xlink:href="#f0_21" transform="matrix(42.3,0,0,42.3,238.8,1095.2)" />
<use xlink:href="#f0_1x" transform="matrix(42.3,0,0,42.3,274.7,1095.2)" />
<use xlink:href="#f0_2e" transform="matrix(42.3,0,0,42.3,310.7,1095.2)" />
<use xlink:href="#f0_2a" transform="matrix(42.3,0,0,42.3,332.2,1095.2)" />
<use xlink:href="#f0_17" transform="matrix(42.3,0,0,42.3,368.1,1095.2)" />
<use xlink:href="#f0_2h" transform="matrix(42.3,0,0,42.3,418.4,1095.2)" />
<use xlink:href="#f0_25" transform="matrix(42.3,0,0,42.3,454.3,1095.2)" />
<use xlink:href="#f0_20" transform="matrix(42.3,0,0,42.3,468.7,1095.2)" />
<use xlink:href="#f0_21" transform="matrix(42.3,0,0,42.3,504.6,1095.2)" />
<use xlink:href="#f0_i" transform="matrix(42.3,0,0,42.3,540.5,1095.2)" />
<use xlink:href="#f0_25" transform="matrix(42.3,0,0,42.3,558.5,1095.2)" />
<use xlink:href="#f0_2a" transform="matrix(42.3,0,0,42.3,572.8,1095.2)" />
</g>
<defs>
<path d="M593,101c0,0,182,0,279,112c0,0,98,113,98,318c0,0,0,196,-98,308c0,0,-98,112,-277,112c0,0,-181,0,-279,-110c0,0,-99,-111,-99,-310c0,0,0,-198,100,-314c0,0,99,-116,276,-116Zm0,-115c0,0,-162,0,-279,65c0,0,-118,66,-180,190c0,0,-62,124,-62,290c0,0,0,252,138,394c0,0,138,142,385,142c0,0,160,0,278,-64c0,0,118,-64,180,-185c0,0,62,-122,62,-287c0,0,0,-165,-63,-289c0,0,-63,-124,-181,-190c0,0,-118,-66,-278,-66Z" 
id="f0_1f"
transform="scale(0.001,-0.001)" />

<path d="M106,0V635c0,0,0,141,-5,173H228c0,0,1,-4,2,-21c0,0,1,-16,2,-37c0,0,1,-22,2,-81h2c0,0,47,84,108,119c0,0,60,34,151,34c0,0,132,0,194,-66c0,0,61,-66,61,-218V0H615V512c0,0,0,80,-15,124c0,0,-16,44,-50,63c0,0,-35,20,-101,20c0,0,-97,0,-153,-67c0,0,-56,-66,-56,-184V0Z" 
id="f0_2a"
transform="scale(0.001,-0.001)" />

<path d="M103,0V1107H237V0Z" 
id="f0_28"
transform="scale(0.001,-0.001)" />

<path d="M102,0V808H236V0Zm0,979v128H236V979Z" 
id="f0_25"
transform="scale(0.001,-0.001)" />

<path d="M643,478c0,0,-11,128,-65,187c0,0,-54,59,-154,59c0,0,-98,0,-155,-66c0,0,-57,-65,-62,-180ZM431,-14c0,0,-179,0,-272,106c0,0,-94,107,-94,317c0,0,0,200,94,307c0,0,93,106,267,106c0,0,356,0,356,-429V375H206c0,0,0,-138,57,-213c0,0,58,-75,168,-75c0,0,87,0,140,35c0,0,53,35,71,88L760,177c0,0,-72,-191,-329,-191Z" 
id="f0_21"
transform="scale(0.001,-0.001)" />

<path d="M17,0L304,415L31,808H179L380,493L580,808H730L457,417L747,0H598L380,331L162,0Z" 
id="f0_2k"
transform="scale(0.001,-0.001)" />

<path d="M339,87c0,0,74,0,132,34c0,0,57,33,90,91c0,0,34,59,34,121v66L448,396c0,0,-95,-2,-144,-19c0,0,-49,-18,-75,-55c0,0,-26,-38,-26,-98c0,0,0,-65,35,-101c0,0,36,-36,101,-36ZM309,-14c0,0,-122,0,-183,64c0,0,-61,64,-61,176c0,0,0,125,82,192c0,0,83,67,266,72l182,3v44c0,0,0,98,-42,141c0,0,-42,43,-132,43c0,0,-90,0,-131,-31c0,0,-41,-31,-49,-98L101,604c0,0,34,218,323,218c0,0,153,0,229,-70c0,0,77,-69,77,-202V202c0,0,0,-59,16,-90c0,0,16,-30,60,-30c0,0,19,0,44,5V4C850,4,799,-7,746,-7c0,0,-75,0,-109,38c0,0,-33,40,-38,124h-4C595,155,543,62,475,24c0,0,-68,-38,-166,-38Z" 
id="f0_1x"
transform="scale(0.001,-0.001)" />

<path d="M106,0V635c0,0,0,141,-5,173H228c0,0,1,-4,2,-21c0,0,1,-16,2,-37c0,0,1,-22,2,-81h2c0,0,44,86,100,120c0,0,56,33,136,33c0,0,92,0,145,-36c0,0,54,-37,75,-117h2c0,0,42,82,101,117c0,0,59,36,143,36c0,0,123,0,178,-66c0,0,56,-67,56,-218V0H1039V512c0,0,0,117,-32,162c0,0,-32,45,-116,45c0,0,-88,0,-136,-66c0,0,-49,-65,-49,-185V0H573V512c0,0,0,117,-32,162c0,0,-32,45,-116,45c0,0,-86,0,-136,-66c0,0,-50,-66,-50,-185V0Z" 
id="f0_29"
transform="scale(0.001,-0.001)" />

<path d="M453,84c0,0,100,0,146,74c0,0,46,73,46,247c0,0,0,169,-46,241c0,0,-45,73,-145,73c0,0,-80,0,-125,-34c0,0,-45,-34,-68,-105c0,0,-24,-71,-24,-186c0,0,0,-159,51,-234c0,0,51,-76,165,-76ZM103,-316V643c0,0,0,124,-5,165H228c0,0,1,-3,3,-22c0,0,1,-18,3,-56c0,0,2,-38,2,-52h3c0,0,36,75,94,110c0,0,59,34,156,34c0,0,149,0,223,-100c0,0,74,-100,74,-314c0,0,0,-422,-297,-422c0,0,-187,0,-251,140h-4c0,0,3,-6,3,-126V-316Z" 
id="f0_2c"
transform="scale(0.001,-0.001)" />

<path d="M420,84c0,0,121,0,173,78c0,0,52,77,52,243c0,0,0,167,-50,243c0,0,-50,76,-167,76c0,0,-118,0,-170,-78c0,0,-53,-77,-53,-241c0,0,0,-160,52,-241c0,0,52,-80,163,-80Zm1,-98c0,0,-176,0,-267,107c0,0,-90,108,-90,312c0,0,0,417,362,417c0,0,185,0,272,-102c0,0,88,-101,88,-315c0,0,0,-212,-94,-316C692,89,599,-14,421,-14Z" 
id="f0_2b"
transform="scale(0.001,-0.001)" />

<path d="M278,-11c0,0,-162,0,-162,182V710H23v98h99l39,181h90V808H400V710H251V200c0,0,0,-58,19,-82c0,0,19,-23,66,-23c0,0,27,0,77,10V6c0,0,-66,-17,-135,-17Z" 
id="f0_2g"
transform="scale(0.001,-0.001)" />

<path d="M365,-315c0,0,-136,187,-199,359c0,0,-62,172,-62,359c0,0,0,186,62,358c0,0,63,172,199,360h92c0,0,-110,-192,-160,-365c0,0,-51,-172,-51,-353c0,0,0,-183,51,-355c0,0,50,-172,160,-363Z" 
id="f1_b"
transform="scale(0.001,-0.001)" />

<path d="M17,0L301,412L32,799H205L389,514L574,799H740L471,410L749,0H581L382,305L186,0Z" 
id="f1_2j"
transform="scale(0.001,-0.001)" />

<path d="M104,0V799H238V0Zm-2,946v152H239V946Z" 
id="f1_24"
transform="scale(0.001,-0.001)" />

<path d="M52,-315c0,0,109,192,160,363c0,0,50,173,50,354c0,0,0,183,-50,355c0,0,-51,173,-160,364h92c0,0,135,-188,198,-360c0,0,63,-172,63,-359c0,0,0,-187,-63,-359c0,0,-63,-171,-198,-358Z" 
id="f1_c"
transform="scale(0.001,-0.001)" />

<path d="M412,-328c0,0,-195,96,-303,284C109,-44,0,142,0,365c0,0,0,232,114,422c0,0,114,191,298,273v-31c0,0,-92,-51,-151,-139c0,0,-59,-88,-88,-223c0,0,-29,-136,-29,-282c0,0,0,-167,27,-301c0,0,26,-133,82,-221c0,0,55,-89,159,-159v-32Z" 
id="f2_c"
transform="scale(0.001,-0.001)" />

<path d="M34,-328v32c0,0,92,50,151,138c0,0,59,88,88,222c0,0,29,135,29,283c0,0,0,165,-27,300c0,0,-26,134,-82,222c0,0,-56,89,-159,160v31c0,0,194,-96,303,-284c0,0,108,-187,108,-410c0,0,0,-232,-114,-422c0,0,-114,-191,-297,-272Z" 
id="f2_d"
transform="scale(0.001,-0.001)" />

<path d="M39,0V0c0,0,0,170,84,277c0,0,85,108,317,236c0,0,113,62,154,115c0,0,41,52,41,134c0,0,0,86,-62,141c0,0,-61,54,-156,54c0,0,-101,0,-158,-68c0,0,-57,-68,-60,-194H67c0,0,-2,178,95,279c0,0,98,101,273,101c0,0,149,0,245,-89c0,0,94,-88,94,-228c0,0,0,-118,-60,-195c0,0,-61,-76,-229,-169C485,394,303,294,237,212c0,0,-28,-36,-46,-81H774V0Z" 
id="f1_l"
transform="scale(0.001,-0.001)" />

<path d="M432,92c0,0,96,0,156,66c0,0,61,65,61,169c0,0,0,103,-61,169c0,0,-60,66,-156,66c0,0,-95,0,-156,-66c0,0,-61,-66,-61,-169c0,0,0,-104,61,-169c0,0,61,-66,156,-66ZM425,-28c0,0,-176,0,-271,135c0,0,-95,136,-95,388c0,0,0,278,103,429c0,0,103,151,293,151c0,0,142,0,226,-77c0,0,84,-76,90,-211H638c0,0,-8,80,-56,123c0,0,-47,43,-127,43c0,0,-125,0,-192,-119c0,0,-58,-102,-64,-278c0,0,100,127,255,127c0,0,152,0,245,-98c0,0,93,-98,93,-258c0,0,0,-161,-101,-259c0,0,-101,-96,-266,-96Z" 
id="f1_p"
transform="scale(0.001,-0.001)" />

<path d="M417,-28c0,0,-161,0,-259,79c0,0,-98,81,-109,223H189c0,0,11,-90,72,-139c0,0,61,-49,162,-49c0,0,96,0,158,68c0,0,61,68,61,175c0,0,0,112,-64,178c0,0,-64,66,-173,66c0,0,-59,0,-115,-28c0,0,-55,-29,-84,-73L93,480l77,573H727V922H271L225,629l4,3c0,0,89,60,188,60c0,0,169,0,269,-94c0,0,99,-93,99,-253c0,0,0,-165,-103,-269C682,76,579,-28,417,-28Z" 
id="f1_o"
transform="scale(0.001,-0.001)" />

<path d="M133,0V162H292V0Z" 
id="f1_h"
transform="scale(0.001,-0.001)" />

<path d="M355,0V355H0v72H355V784h72V427H782V355H427V0Z" 
id="f2_f"
transform="scale(0.001,-0.001)" />

<path d="M0,356v74H784V356Z" 
id="f2_h"
transform="scale(0.001,-0.001)" />

<path d="M238,-163c0,0,-39,0,-63,25c0,0,-25,26,-25,65c0,0,0,34,19,54c0,0,19,19,48,19c0,0,30,0,51,-23c0,0,22,-24,37,-24c0,0,12,0,21,11c0,0,8,10,8,35c0,0,0,30,-7,88c0,0,-27,235,-27,620c0,0,13,411,17,446c0,0,17,139,60,188c0,0,43,48,98,48c0,0,37,0,65,-25c0,0,28,-25,28,-54c0,0,0,-35,-19,-57c0,0,-20,-21,-49,-21c0,0,-26,0,-57,27c0,0,-17,15,-30,15c0,0,-12,0,-21,-11c0,0,-8,-11,-8,-37c0,0,0,-31,6,-108c0,0,28,-306,28,-496c0,0,0,-50,-12,-439c0,0,-6,-219,-67,-296c0,0,-41,-50,-101,-50Z" 
id="f2_50"
transform="scale(0.001,-0.001)" />

<path d="M17,0L389,412L201,800H376L500,518L742,800H904L554,410L750,0H580L448,303L187,0Z" 
id="f3_2j"
transform="scale(0.001,-0.001)" />

<path d="M431,94c0,0,95,0,170,76c0,0,76,77,101,198c0,0,35,167,-1,250c0,0,-37,84,-144,84c0,0,-128,0,-210,-117c0,0,-81,-117,-81,-302c0,0,0,-90,43,-139c0,0,44,-50,122,-50ZM400,-20c0,0,-126,0,-199,79c0,0,-73,80,-73,219c0,0,0,234,122,390c0,0,122,155,305,155c0,0,144,0,209,-127l8,-16l86,417H993L767,0H638l22,108L642,90C642,90,532,-20,400,-20Z" 
id="f3_1z"
transform="scale(0.001,-0.001)" />

<path d="M310,0L12,799H168L383,145L604,799H752L454,0Z" 
id="f1_2h"
transform="scale(0.001,-0.001)" />

<path d="M424,-28c0,0,-180,0,-272,86c0,0,-92,87,-100,266H192c0,0,12,-126,66,-180c0,0,55,-54,170,-54c0,0,100,0,163,57c0,0,64,57,64,147c0,0,0,94,-61,149c0,0,-52,48,-135,54c0,0,-38,2,-72,2c0,0,-34,0,-45,-3V613c0,0,17,-3,51,-3c0,0,35,0,68,4c0,0,66,8,106,43c0,0,55,45,55,125c0,0,0,77,-58,125c0,0,-58,48,-148,48c0,0,-96,0,-147,-58c0,0,-51,-59,-56,-175H82c0,0,0,168,89,260c0,0,88,93,250,93c0,0,153,0,247,-77c0,0,94,-76,94,-202c0,0,0,-124,-95,-201c0,0,-18,-15,-39,-27c0,0,39,-17,69,-41c0,0,101,-79,101,-214c0,0,0,-151,-105,-246c0,0,-104,-95,-269,-95Z" 
id="f1_m"
transform="scale(0.001,-0.001)" />

<path d="M511,373V863L169,383l-7,-10ZM511,0V258H38V383l496,691H646V373H799V258H646V0Z" 
id="f1_n"
transform="scale(0.001,-0.001)" />

<path d="M424,92c0,0,98,0,161,58c0,0,62,58,62,149c0,0,0,92,-62,151c0,0,-63,58,-161,58c0,0,-98,0,-160,-58c0,0,-63,-59,-63,-151c0,0,0,-91,63,-149c0,0,62,-58,160,-58Zm0,533c0,0,82,0,134,46c0,0,52,45,52,118c0,0,0,72,-52,118c0,0,-52,46,-134,46c0,0,-82,0,-134,-46c0,0,-52,-46,-52,-118c0,0,0,-73,52,-119c0,0,52,-45,134,-45Zm0,-653c0,0,-165,0,-265,90C159,62,59,154,59,305c0,0,0,134,100,216c0,0,35,28,78,47c0,0,-27,15,-52,33c0,0,-90,70,-90,185c0,0,0,130,90,209c0,0,91,80,239,80c0,0,148,0,238,-80c0,0,91,-79,91,-209c0,0,0,-115,-91,-185c0,0,-24,-19,-52,-32c0,0,44,-20,79,-49c0,0,101,-81,101,-215c0,0,0,-151,-101,-243c0,0,-100,-90,-265,-90Z" 
id="f1_r"
transform="scale(0.001,-0.001)" />

<path d="M131,0V1097H934V966H280V631H877V500H280V131H942V0Z" 
id="f1_14"
transform="scale(0.001,-0.001)" />

<path d="M335,90c0,0,106,0,179,57c0,0,50,41,67,91c0,0,3,10,4,31c0,0,3,21,3,47v87c0,0,-38,-18,-83,-25L381,360c0,0,-97,-13,-142,-45c0,0,-44,-31,-44,-86c0,0,0,-67,36,-103c0,0,37,-36,104,-36ZM309,-20c0,0,-117,0,-186,61c0,0,-68,63,-68,169c0,0,0,108,64,171c0,0,65,64,189,79l183,23c0,0,22,3,42,8c0,0,26,7,40,27c0,0,15,20,15,51v6c0,0,0,64,-49,101c0,0,-48,36,-135,36c0,0,-83,0,-130,-38c0,0,-46,-39,-56,-115H94c0,0,10,131,92,197c0,0,83,66,238,66c0,0,145,0,222,-63c0,0,76,-63,76,-184V137c0,0,0,-21,12,-33c0,0,12,-12,33,-12c0,0,6,0,18,1c0,0,11,2,25,5V1c0,0,-20,-7,-41,-11c0,0,-22,-5,-37,-5c0,0,-76,0,-110,41c0,0,-22,28,-32,79c0,0,-15,-19,-34,-36c0,0,-101,-89,-247,-89Z" 
id="f1_1w"
transform="scale(0.001,-0.001)" />

<path d="M103,0V1097H237V0Z" 
id="f1_27"
transform="scale(0.001,-0.001)" />

<path d="M375,-20c0,0,-136,0,-203,66c0,0,-68,68,-68,204V799H238V284c0,0,0,-101,38,-146c0,0,39,-44,127,-44c0,0,97,0,153,75c0,0,57,75,57,203V799H747V0H620V122c0,0,-14,-22,-30,-41C590,81,504,-20,375,-20Z" 
id="f1_2g"
transform="scale(0.001,-0.001)" />

<path d="M292,-9c0,0,-88,0,-124,38c0,0,-36,39,-36,134V689H22V799H132v224H266V799H392V689H266V163c0,0,0,-27,21,-43c0,0,21,-15,57,-15h48V1C392,1,324,-9,292,-9Z" 
id="f1_2f"
transform="scale(0.001,-0.001)" />

<path d="M649,461c0,0,-6,111,-55,172c0,0,-55,69,-160,69c0,0,-106,0,-170,-79c0,0,-50,-62,-60,-162ZM425,-20c0,0,-169,0,-266,106c0,0,-97,107,-97,297c0,0,0,201,102,320c0,0,103,119,276,119c0,0,157,0,253,-116c0,0,96,-117,96,-306l-1,-48H204c0,0,8,-119,54,-182c0,0,57,-76,180,-76c0,0,77,0,134,43c0,0,58,43,70,110H775C775,247,746,116,656,47c0,0,-90,-67,-231,-67Z" 
id="f1_20"
transform="scale(0.001,-0.001)" />

<path d="M99,0V1097H233V690l23,30c0,0,87,102,219,102c0,0,132,0,203,-71c0,0,72,-72,72,-204V0H616V514c0,0,0,99,-38,142c0,0,-38,44,-124,44c0,0,-102,0,-162,-73c0,0,-59,-74,-59,-199V0Z" 
id="f1_23"
transform="scale(0.001,-0.001)" />

<path d="M132,0V687H22V799H132V935c0,0,0,88,52,133c0,0,52,45,157,45l59,-3V989l-53,2c0,0,-39,0,-60,-24c0,0,-21,-25,-21,-71V799H400V687H266V0Z" 
id="f1_21"
transform="scale(0.001,-0.001)" />

<path d="M424,94c0,0,107,0,169,83c0,0,63,83,63,223c0,0,0,140,-63,224c0,0,-62,83,-169,83c0,0,-106,0,-168,-83c0,0,-62,-84,-62,-224c0,0,0,-140,62,-223c0,0,62,-83,168,-83Zm0,-114c0,0,-165,0,-268,115C156,95,54,211,54,400c0,0,0,189,102,306c0,0,103,116,268,116c0,0,168,0,270,-116c0,0,102,-117,102,-306c0,0,0,-189,-102,-305C694,95,592,-20,424,-20Z" 
id="f1_2a"
transform="scale(0.001,-0.001)" />

<path d="M248,0L21,799H169L322,163L478,799H627L788,158L950,799h133L857,0H713L548,624L392,0Z" 
id="f1_2i"
transform="scale(0.001,-0.001)" />

<path d="M99,0V799H226V681l30,39c0,0,87,102,219,102c0,0,132,0,203,-71c0,0,72,-72,72,-204V0H616V502c0,0,0,105,-41,151c0,0,-40,47,-132,47c0,0,-97,0,-154,-73c0,0,-56,-74,-56,-199V0Z" 
id="f1_29"
transform="scale(0.001,-0.001)" />

<path d="M418,95c0,0,98,0,158,73c0,0,59,73,59,193c0,0,0,170,-54,254c0,0,-54,85,-163,85c0,0,-113,0,-165,-72c0,0,-52,-71,-52,-227c0,0,0,-147,57,-227c0,0,56,-79,160,-79ZM394,-336c0,0,-136,0,-216,62c0,0,-79,63,-96,182H219c0,0,12,-64,57,-98c0,0,45,-35,116,-35c0,0,116,0,176,73c0,0,61,73,61,211V85l-1,-1C628,84,545,-20,412,-20c0,0,-161,0,-256,118c0,0,-94,120,-94,324c0,0,0,179,93,290c0,0,93,110,244,110c0,0,144,0,228,-124l10,-14V799H763V59c0,0,-1,-201,-91,-298c0,0,-91,-97,-278,-97Z" 
id="f1_22"
transform="scale(0.001,-0.001)" />

<path d="M411,93c0,0,98,0,158,73c0,0,60,74,60,195c0,0,0,163,-57,252c0,0,-56,88,-161,88c0,0,-113,0,-165,-72c0,0,-52,-72,-52,-229c0,0,0,-147,56,-227c0,0,56,-80,161,-80ZM404,-20c0,0,-161,0,-255,118c0,0,-95,120,-95,324c0,0,0,179,92,290c0,0,91,110,239,110c0,0,147,0,233,-124l11,-15v414H763V0H638V109L621,84C621,84,538,-20,404,-20Z" 
id="f1_1z"
transform="scale(0.001,-0.001)" />

<path d="M118,0V799H246V662c0,0,17,32,36,58c0,0,76,102,187,102c0,0,19,0,38,-6V679l-27,1c0,0,-109,0,-168,-66c0,0,-60,-65,-60,-186V0Z" 
id="f1_2d"
transform="scale(0.001,-0.001)" />

<path d="M393,-20c0,0,-169,0,-252,65c0,0,-83,67,-92,210H178c0,0,10,-85,61,-123c0,0,50,-38,154,-38c0,0,90,0,136,34c0,0,47,35,47,100c0,0,0,42,-31,64c0,0,-30,21,-123,43L283,368c0,0,-112,27,-160,75c0,0,-48,48,-48,135c0,0,0,112,80,178c0,0,81,66,218,66c0,0,140,0,222,-68c0,0,82,-67,88,-187H557c0,0,-6,67,-55,103c0,0,-48,37,-129,37c0,0,-84,0,-127,-29c0,0,-44,-29,-44,-85c0,0,0,-43,31,-65c0,0,30,-21,121,-43L493,452c0,0,117,-28,167,-78c0,0,49,-49,49,-138c0,0,0,-119,-86,-188c0,0,-85,-68,-230,-68Z" 
id="f1_2e"
transform="scale(0.001,-0.001)" />

<path d="M133,0V162H292V0Zm0,628V790H292V628Z" 
id="f1_t"
transform="scale(0.001,-0.001)" />

<path d="M424,92c0,0,114,0,170,107c0,0,57,108,56,323c0,0,1,216,-56,324c0,0,-56,107,-170,107c0,0,-112,0,-168,-107c0,0,-56,-108,-57,-324c0,0,1,-215,57,-323c0,0,56,-107,168,-107Zm0,-120c0,0,-176,0,-271,142c0,0,-96,143,-96,408c0,0,0,265,96,409c0,0,95,144,271,144c0,0,178,0,273,-144c0,0,96,-144,96,-409c0,0,0,-265,-96,-408c0,0,-95,-142,-273,-142Z" 
id="f1_j"
transform="scale(0.001,-0.001)" />

<path d="M394,-20c0,0,-159,0,-253,113c0,0,-95,114,-95,307c0,0,0,193,98,308c0,0,98,114,264,114c0,0,144,0,230,-78c0,0,85,-79,91,-217H600c0,0,-8,86,-59,133c0,0,-52,47,-138,47c0,0,-101,0,-159,-82c0,0,-58,-82,-58,-225c0,0,0,-152,54,-229c0,0,53,-77,159,-77c0,0,79,0,132,50c0,0,52,51,69,143H729C729,287,709,137,623,58c0,0,-86,-78,-229,-78Z" 
id="f1_1y"
transform="scale(0.001,-0.001)" />

<path d="M419,483c0,0,93,0,152,66c0,0,59,66,59,169c0,0,0,103,-59,169c0,0,-59,65,-152,65c0,0,-94,0,-153,-65c0,0,-59,-66,-59,-169c0,0,0,-103,59,-169c0,0,59,-66,153,-66ZM397,-28c0,0,-143,0,-227,75c0,0,-85,77,-91,211H209c0,0,8,-83,57,-128c0,0,49,-45,131,-45c0,0,121,0,186,135c0,0,48,101,62,265C645,485,545,362,397,362c0,0,-150,0,-241,98c0,0,-91,98,-91,258c0,0,0,160,99,258c0,0,99,98,262,98c0,0,173,0,266,-123c0,0,94,-123,94,-349c0,0,0,-303,-101,-467C685,135,583,-28,397,-28Z" 
id="f1_s"
transform="scale(0.001,-0.001)" />

<path d="M406,0V763H155V870h2c16,0,114,2,178,48c0,0,70,51,104,157H549V0Z" 
id="f1_k"
transform="scale(0.001,-0.001)" />

<path d="M140,-21c0,0,-26,0,-44,17C96,-4,79,13,79,40c0,0,0,19,6,33c0,0,8,20,34,55c0,0,46,60,64,126c0,0,32,114,41,321H190c0,0,-55,0,-81,-18c0,0,-44,-26,-80,-89H0c0,0,42,129,98,178c0,0,43,37,120,37H743V575H562c0,0,-27,-171,-27,-327c0,0,0,-77,27,-110c0,0,27,-33,67,-33c0,0,33,0,56,22c0,0,24,22,31,65h27C743,192,730,74,686,26c0,0,-44,-47,-98,-47c0,0,-58,0,-97,51c0,0,-39,53,-39,198c0,0,0,91,28,347H286c0,0,-23,-390,-56,-494c0,0,-33,-102,-90,-102Z" 
id="f2_2c"
transform="scale(0.001,-0.001)" />

<path d="M417,-328c0,0,-125,17,-203,101c0,0,-78,83,-78,189c0,0,0,49,17,120c0,0,17,72,17,108c0,0,0,55,-42,100c0,0,-42,45,-128,61v29c0,0,80,15,125,59c0,0,44,45,44,98c0,0,0,39,-17,110c0,0,-18,71,-18,122c0,0,0,105,79,191c0,0,79,85,203,100v-28c0,0,-85,-15,-129,-65c0,0,-45,-49,-45,-114c0,0,0,-45,15,-117c0,0,15,-72,15,-120c0,0,0,-74,-53,-142c0,0,-53,-68,-158,-106c0,0,107,-44,160,-111c0,0,52,-67,52,-141c0,0,0,-45,-15,-117c0,0,-15,-73,-15,-117c0,0,0,-64,43,-113c0,0,42,-49,131,-71v-26Z" 
id="f2_2n"
transform="scale(0.001,-0.001)" />

<path d="M160,-328v29c0,0,85,15,129,64c0,0,44,48,44,114c0,0,0,45,-14,117c0,0,-15,71,-15,120c0,0,0,73,53,142c0,0,53,68,158,106c0,0,-108,43,-160,110c0,0,-52,67,-52,141c0,0,0,45,15,118c0,0,14,73,14,117c0,0,0,64,-42,113c0,0,-42,49,-131,71v26c0,0,125,-17,203,-101c0,0,78,-84,78,-188c0,0,0,-50,-17,-122c0,0,-17,-72,-17,-109c0,0,0,-54,42,-99c0,0,41,-45,128,-61V351c0,0,-81,-14,-125,-59c0,0,-44,-45,-44,-97c0,0,0,-39,17,-111c0,0,18,-71,18,-121c0,0,0,-105,-79,-190c0,0,-79,-86,-203,-101Z" 
id="f2_2p"
transform="scale(0.001,-0.001)" />

<path d="M435,92c0,0,86,0,147,69c0,0,60,68,60,186c0,0,0,114,-60,179c0,0,-60,66,-152,66c0,0,-91,0,-154,-66c0,0,-64,-65,-64,-171c0,0,0,-70,30,-133c0,0,29,-64,82,-97c0,0,52,-33,111,-33Zm3,-110c0,0,-168,0,-274,123C164,105,58,228,58,512c0,0,0,317,117,461c0,0,102,125,275,125c0,0,129,0,212,-72c0,0,82,-72,99,-200L627,815c0,0,-18,79,-51,115c0,0,-54,58,-134,58c0,0,-64,0,-113,-36c0,0,-63,-46,-99,-135c0,0,-37,-89,-38,-253c0,0,48,74,118,110c0,0,70,36,147,36c0,0,135,0,229,-99c0,0,94,-99,94,-256c0,0,0,-103,-44,-191C736,164,691,75,614,28c0,0,-78,-46,-176,-46Z" 
id="f4_q"
transform="scale(0.001,-0.001)" />

<path d="M125,0V1051H268V115H799V0Z" 
id="f0_1c"
transform="scale(0.001,-0.001)" />

<path d="M106,0V620c0,0,0,85,-5,188H228c0,0,6,-138,6,-165h3c0,0,32,103,74,141c0,0,42,38,118,38c0,0,27,0,54,-7V692c0,0,-26,7,-71,7c0,0,-84,0,-128,-72c0,0,-44,-72,-44,-206V0Z" 
id="f0_2e"
transform="scale(0.001,-0.001)" />

<path d="M606,-14c0,0,-164,0,-284,65c0,0,-119,66,-182,189c0,0,-63,123,-63,291c0,0,0,255,137,396c0,0,137,140,386,140c0,0,174,0,283,-59c0,0,109,-59,168,-189L915,779c0,0,-44,90,-123,131c0,0,-79,41,-196,41c0,0,-182,0,-278,-110c0,0,-96,-110,-96,-310c0,0,0,-200,102,-315c0,0,102,-115,282,-115c0,0,103,0,193,31c0,0,89,31,144,85V407H629V526h445V164c0,0,-83,-85,-205,-132c0,0,-121,-46,-263,-46Z" 
id="f0_17"
transform="scale(0.001,-0.001)" />

<path d="M355,-14c0,0,-133,0,-194,65c0,0,-62,66,-62,219V808H234V296c0,0,0,-80,16,-124c0,0,16,-44,50,-64c0,0,34,-19,101,-19c0,0,97,0,153,66c0,0,55,67,55,185V808H744V172c0,0,0,-141,4,-172H621c0,0,0,4,-1,20c0,0,-1,17,-2,38c0,0,-1,21,-3,80h-2C613,138,567,55,506,20c0,0,-61,-34,-151,-34Z" 
id="f0_2h"
transform="scale(0.001,-0.001)" />

<path d="M395,89c0,0,115,0,166,79c0,0,51,79,51,246c0,0,0,160,-51,235c0,0,-51,75,-164,75c0,0,-102,0,-147,-75c0,0,-45,-75,-45,-244c0,0,0,-170,45,-243c0,0,45,-73,145,-73ZM361,-14c0,0,-153,0,-225,102c0,0,-72,103,-72,312c0,0,0,422,297,422c0,0,92,0,153,-33c0,0,61,-34,98,-107h2l-2,90v335H747V166c0,0,0,-126,4,-166H623c0,0,-2,12,-5,55c0,0,-3,44,-3,75h-3c0,0,-37,-78,-98,-111c0,0,-62,-33,-153,-33Z" 
id="f0_20"
transform="scale(0.001,-0.001)" />

<path d="M140,0V163H285V0Z" 
id="f0_i"
transform="scale(0.001,-0.001)" />


</defs>
</svg>