<?xml version="1.0" encoding="UTF-8" standalone="no"?>
<!DOCTYPE svg PUBLIC "-//W3C//DTD SVG 1.1//EN"
"http://www.w3.org/Graphics/SVG/1.1/DTD/svg11.dtd">
<svg viewBox="0 0 734 1106" version="1.1" xmlns="http://www.w3.org/2000/svg" xmlns:xlink="http://www.w3.org/1999/xlink">
<defs>
<style type="text/css"><![CDATA[
.g0_80{
fill: none;
stroke: #000000;
stroke-width: 0.76584446;
stroke-linecap: round;
stroke-linejoin: miter;
}
.g1_80{
fill: none;
stroke: #000000;
stroke-width: 0.7616889;
stroke-linecap: round;
stroke-linejoin: miter;
}
.g2_80{
fill: none;
stroke: #000000;
stroke-width: 0.7638889;
stroke-linecap: round;
stroke-linejoin: miter;
}
.g3_80{
fill: none;
stroke: #000000;
stroke-width: 0.76144445;
stroke-linecap: round;
stroke-linejoin: miter;
}
.g4_80{
fill: none;
stroke: #000000;
stroke-width: 0.7668222;
stroke-linecap: round;
stroke-linejoin: miter;
}
.g5_80{
fill: none;
stroke: #000000;
stroke-width: 0.7619333;
stroke-linecap: round;
stroke-linejoin: miter;
}
]]></style>
</defs>
<g fill="#D4D4D4" fill-opacity="0.56" >
<use xlink:href="#f0_1f" transform="matrix(50.9,-50.9,50.9,50.9,122.6,924.1)" />
<use xlink:href="#f0_2a" transform="matrix(50.9,-50.9,50.9,50.9,183.2,863.6)" />
<use xlink:href="#f0_28" transform="matrix(50.9,-50.9,50.9,50.9,226.4,820.3)" />
<use xlink:href="#f0_25" transform="matrix(50.9,-50.9,50.9,50.9,243.7,803.1)" />
<use xlink:href="#f0_2a" transform="matrix(50.9,-50.9,50.9,50.9,260.9,785.8)" />
<use xlink:href="#f0_21" transform="matrix(50.9,-50.9,50.9,50.9,304.2,742.5)" />
<use xlink:href="#f0_2k" transform="matrix(50.9,-50.9,50.9,50.9,347.4,699.3)" />
<use xlink:href="#f0_1x" transform="matrix(50.9,-50.9,50.9,50.9,386.3,660.4)" />
<use xlink:href="#f0_29" transform="matrix(50.9,-50.9,50.9,50.9,429.6,617.2)" />
<use xlink:href="#f0_2c" transform="matrix(50.9,-50.9,50.9,50.9,494.4,552.4)" />
<use xlink:href="#f0_2b" transform="matrix(50.9,-50.9,50.9,50.9,537.6,509.1)" />
<use xlink:href="#f0_25" transform="matrix(50.9,-50.9,50.9,50.9,580.8,465.9)" />
<use xlink:href="#f0_2a" transform="matrix(50.9,-50.9,50.9,50.9,598.1,448.6)" />
<use xlink:href="#f0_2g" transform="matrix(50.9,-50.9,50.9,50.9,641.4,405.4)" />
</g>
<g fill="#000000" >
<use xlink:href="#f1_l" transform="matrix(10.4,0,0,10.4,84.9,103.9)" />
<use xlink:href="#f1_h" transform="matrix(10.4,0,0,10.4,93.7,103.9)" />
<use xlink:href="#f1_1m" transform="matrix(10.4,0,0,10.4,116.6,103.9)" />
<use xlink:href="#f1_2d" transform="matrix(10.4,0,0,10.4,131.6,103.9)" />
<use xlink:href="#f1_24" transform="matrix(10.4,0,0,10.4,137,103.9)" />
<use xlink:href="#f1_2f" transform="matrix(10.4,0,0,10.4,140.5,103.9)" />
<use xlink:href="#f1_20" transform="matrix(10.4,0,0,10.4,144.9,103.9)" />
<use xlink:href="#f1_2f" transform="matrix(10.4,0,0,10.4,161.5,103.9)" />
<use xlink:href="#f1_23" transform="matrix(10.4,0,0,10.4,165.9,103.9)" />
<use xlink:href="#f1_20" transform="matrix(10.4,0,0,10.4,174.8,103.9)" />
<use xlink:href="#f1_22" transform="matrix(10.4,0,0,10.4,191.2,103.9)" />
<use xlink:href="#f1_20" transform="matrix(10.4,0,0,10.4,200.1,103.9)" />
<use xlink:href="#f1_29" transform="matrix(10.4,0,0,10.4,208.9,103.9)" />
<use xlink:href="#f1_20" transform="matrix(10.4,0,0,10.4,217.8,103.9)" />
<use xlink:href="#f1_2d" transform="matrix(10.4,0,0,10.4,226.7,103.9)" />
<use xlink:href="#f1_1w" transform="matrix(10.4,0,0,10.4,232,103.9)" />
<use xlink:href="#f1_27" transform="matrix(10.4,0,0,10.4,240.8,103.9)" />
<use xlink:href="#f1_2e" transform="matrix(10.4,0,0,10.4,252.1,103.9)" />
<use xlink:href="#f1_2a" transform="matrix(10.4,0,0,10.4,260.1,103.9)" />
<use xlink:href="#f1_27" transform="matrix(10.4,0,0,10.4,268.9,103.9)" />
<use xlink:href="#f1_2g" transform="matrix(10.4,0,0,10.4,272.5,103.9)" />
<use xlink:href="#f1_2f" transform="matrix(10.4,0,0,10.4,281.3,103.9)" />
<use xlink:href="#f1_24" transform="matrix(10.4,0,0,10.4,285.8,103.9)" />
<use xlink:href="#f1_2a" transform="matrix(10.4,0,0,10.4,289.3,103.9)" />
<use xlink:href="#f1_29" transform="matrix(10.4,0,0,10.4,298.2,103.9)" />
<use xlink:href="#f1_2a" transform="matrix(10.4,0,0,10.4,314.8,103.9)" />
<use xlink:href="#f1_21" transform="matrix(10.4,0,0,10.4,323.6,103.9)" />
<use xlink:href="#f1_21" transform="matrix(10.4,0,0,10.4,335.8,103.9)" />
<use xlink:href="#f1_2a" transform="matrix(10.4,0,0,10.4,340.2,103.9)" />
<use xlink:href="#f1_27" transform="matrix(10.4,0,0,10.4,349.1,103.9)" />
<use xlink:href="#f1_27" transform="matrix(10.4,0,0,10.4,352.6,103.9)" />
<use xlink:href="#f1_2a" transform="matrix(10.4,0,0,10.4,356.1,103.9)" />
<use xlink:href="#f1_2i" transform="matrix(10.4,0,0,10.4,365,103.9)" />
<use xlink:href="#f1_24" transform="matrix(10.4,0,0,10.4,376.5,103.9)" />
<use xlink:href="#f1_29" transform="matrix(10.4,0,0,10.4,380.1,103.9)" />
<use xlink:href="#f1_22" transform="matrix(10.4,0,0,10.4,388.9,103.9)" />
<use xlink:href="#f1_1z" transform="matrix(10.4,0,0,10.4,405.3,103.9)" />
<use xlink:href="#f1_24" transform="matrix(10.4,0,0,10.4,414.2,103.9)" />
<use xlink:href="#f1_21" transform="matrix(10.4,0,0,10.4,417.7,103.9)" />
<use xlink:href="#f1_21" transform="matrix(10.4,0,0,10.4,422.2,103.9)" />
<use xlink:href="#f1_20" transform="matrix(10.4,0,0,10.4,426.6,103.9)" />
<use xlink:href="#f1_2d" transform="matrix(10.4,0,0,10.4,435.5,103.9)" />
<use xlink:href="#f1_20" transform="matrix(10.4,0,0,10.4,440.8,103.9)" />
<use xlink:href="#f1_29" transform="matrix(10.4,0,0,10.4,449.6,103.9)" />
<use xlink:href="#f1_2f" transform="matrix(10.4,0,0,10.4,458.5,103.9)" />
<use xlink:href="#f1_24" transform="matrix(10.4,0,0,10.4,462.9,103.9)" />
<use xlink:href="#f1_1w" transform="matrix(10.4,0,0,10.4,466.5,103.9)" />
<use xlink:href="#f1_27" transform="matrix(10.4,0,0,10.4,475.4,103.9)" />
<use xlink:href="#f1_20" transform="matrix(10.4,0,0,10.4,486.6,103.9)" />
<use xlink:href="#f1_2c" transform="matrix(10.4,0,0,10.4,495.5,103.9)" />
<use xlink:href="#f1_2g" transform="matrix(10.4,0,0,10.4,504.3,103.9)" />
<use xlink:href="#f1_1w" transform="matrix(10.4,0,0,10.4,513.2,103.9)" />
<use xlink:href="#f1_2f" transform="matrix(10.4,0,0,10.4,522.1,103.9)" />
<use xlink:href="#f1_24" transform="matrix(10.4,0,0,10.4,526.5,103.9)" />
<use xlink:href="#f1_2a" transform="matrix(10.4,0,0,10.4,530,103.9)" />
<use xlink:href="#f1_29" transform="matrix(10.4,0,0,10.4,538.9,103.9)" />
<use xlink:href="#f1_2e" transform="matrix(10.4,0,0,10.4,547.8,103.9)" />
<use xlink:href="#f1_h" transform="matrix(10.4,0,0,10.4,555.8,103.9)" />
<use xlink:href="#f1_b" transform="matrix(10.4,0,0,10.4,139.1,151.6)" />
<use xlink:href="#f1_24" transform="matrix(10.4,0,0,10.4,144.5,151.6)" />
<use xlink:href="#f1_c" transform="matrix(10.4,0,0,10.4,148,151.6)" />
</g>
<path d="M174.7,147.6h20.1m109.4,0h11.7" class="g0_80" />
<g fill="#000000" >
<use xlink:href="#f1_o" transform="matrix(7.9,0,0,7.9,231.6,142.3)" />
<use xlink:href="#f1_l" transform="matrix(7.9,0,0,7.9,273.1,142.3)" />
<use xlink:href="#f1_l" transform="matrix(10.5,0,0,10.5,305.7,141.5)" />
<use xlink:href="#f1_h" transform="matrix(10.5,0,0,10.5,319.8,151.9)" />
<use xlink:href="#f2_1z" transform="matrix(10.5,0,0,10.5,174.7,141.5)" />
<use xlink:href="#f2_2k" transform="matrix(10.5,0,0,10.5,184,141.5)" />
<use xlink:href="#f2_2j" transform="matrix(10.5,0,0,10.5,221.2,151.9)" />
<use xlink:href="#f2_2j" transform="matrix(10.5,0,0,10.5,262.7,151.9)" />
<use xlink:href="#f2_1z" transform="matrix(10.5,0,0,10.5,174.7,167.5)" />
<use xlink:href="#f2_2j" transform="matrix(10.5,0,0,10.5,184,167.5)" />
<use xlink:href="#f2_2j" transform="matrix(10.5,0,0,10.5,305.1,167.5)" />
<use xlink:href="#f3_x" transform="matrix(10.5,0,0,10.5,203.7,151.9)" />
<use xlink:href="#f3_f" transform="matrix(10.5,0,0,10.5,246.7,151.9)" />
<use xlink:href="#f3_h" transform="matrix(10.5,0,0,10.5,288.1,151.9)" />
<use xlink:href="#f1_b" transform="matrix(10.4,0,0,10.4,410.5,151.6)" />
<use xlink:href="#f1_24" transform="matrix(10.4,0,0,10.4,415.8,151.6)" />
<use xlink:href="#f1_24" transform="matrix(10.4,0,0,10.4,419.3,151.6)" />
<use xlink:href="#f1_c" transform="matrix(10.4,0,0,10.4,422.9,151.6)" />
<use xlink:href="#f1_b" transform="matrix(10.4,0,0,10.4,446.6,151.6)" />
<use xlink:href="#f2_20" transform="matrix(10.4,0,0,10.4,451.9,151.6)" />
<use xlink:href="#f2_2j" transform="matrix(7.4,0,0,7.4,460.7,146.2)" />
<use xlink:href="#f1_e" transform="matrix(10.4,0,0,10.4,470.6,151.6)" />
<use xlink:href="#f2_20" transform="matrix(10.4,0,0,10.4,486.2,151.6)" />
<use xlink:href="#f1_99" transform="matrix(7.4,0,0,7.4,495,146.2)" />
<use xlink:href="#f2_2j" transform="matrix(7.4,0,0,7.4,501.2,146.2)" />
<use xlink:href="#f1_c" transform="matrix(10.4,0,0,10.4,506.9,151.6)" />
<use xlink:href="#f2_1z" transform="matrix(10.4,0,0,10.4,518.5,151.6)" />
<use xlink:href="#f2_2k" transform="matrix(10.4,0,0,10.4,527.3,151.6)" />
<use xlink:href="#f1_w" transform="matrix(10.4,0,0,10.4,541.6,151.6)" />
<use xlink:href="#f1_b" transform="matrix(10.4,0,0,10.4,557.1,151.6)" />
<use xlink:href="#f2_20" transform="matrix(10.4,0,0,10.4,562.5,151.6)" />
<use xlink:href="#f2_2j" transform="matrix(7.4,0,0,7.4,571.3,146.2)" />
<use xlink:href="#f1_99" transform="matrix(10.4,0,0,10.4,583.2,151.6)" />
<use xlink:href="#f2_20" transform="matrix(10.4,0,0,10.4,598.2,151.6)" />
<use xlink:href="#f1_99" transform="matrix(7.4,0,0,7.4,607,146.2)" />
<use xlink:href="#f2_2j" transform="matrix(7.4,0,0,7.4,613.2,146.2)" />
<use xlink:href="#f1_c" transform="matrix(10.4,0,0,10.4,618.9,151.6)" />
<use xlink:href="#f2_1z" transform="matrix(10.4,0,0,10.4,624.2,151.6)" />
<use xlink:href="#f2_2j" transform="matrix(10.4,0,0,10.4,633.1,151.6)" />
<use xlink:href="#f1_b" transform="matrix(10.4,0,0,10.4,132,223.4)" />
<use xlink:href="#f1_24" transform="matrix(10.4,0,0,10.4,137.3,223.4)" />
<use xlink:href="#f1_24" transform="matrix(10.4,0,0,10.4,140.8,223.4)" />
<use xlink:href="#f1_24" transform="matrix(10.4,0,0,10.4,144.4,223.4)" />
<use xlink:href="#f1_c" transform="matrix(10.4,0,0,10.4,147.9,223.4)" />
</g>
<path d="M174.6,218.9h20" class="g1_80" />
<g fill="#000000" >
<use xlink:href="#f1_m" transform="matrix(7.9,0,0,7.9,231.3,213.6)" />
<use xlink:href="#f1_h" transform="matrix(10.5,0,0,10.5,321.6,223.2)" />
<use xlink:href="#f2_2j" transform="matrix(7.9,0,0,7.9,271.4,213.6)" />
<use xlink:href="#f2_20" transform="matrix(7.9,0,0,7.9,312.9,213.6)" />
<use xlink:href="#f2_1z" transform="matrix(10.5,0,0,10.5,174.6,212.8)" />
<use xlink:href="#f2_2k" transform="matrix(10.5,0,0,10.5,183.9,212.8)" />
<use xlink:href="#f2_2j" transform="matrix(10.5,0,0,10.5,220.9,223.2)" />
<use xlink:href="#f2_20" transform="matrix(10.5,0,0,10.5,261,223.2)" />
<use xlink:href="#f2_2j" transform="matrix(10.5,0,0,10.5,303.3,223.2)" />
<use xlink:href="#f2_1z" transform="matrix(10.5,0,0,10.5,174.6,238.8)" />
<use xlink:href="#f2_2j" transform="matrix(10.5,0,0,10.5,183.9,238.8)" />
<use xlink:href="#f3_x" transform="matrix(10.5,0,0,10.5,203.5,223.2)" />
<use xlink:href="#f3_f" transform="matrix(10.5,0,0,10.5,246.4,223.2)" />
<use xlink:href="#f3_f" transform="matrix(10.5,0,0,10.5,287.4,223.2)" />
<use xlink:href="#f1_b" transform="matrix(10.4,0,0,10.4,405.9,223.4)" />
<use xlink:href="#f1_24" transform="matrix(10.4,0,0,10.4,411.2,223.4)" />
<use xlink:href="#f1_2h" transform="matrix(10.4,0,0,10.4,414.7,223.4)" />
<use xlink:href="#f1_c" transform="matrix(10.4,0,0,10.4,422.7,223.4)" />
</g>
<path d="M449.6,218.9h20.1" class="g2_80" />
<g fill="#000000" >
<use xlink:href="#f1_o" transform="matrix(10.5,0,0,10.5,495.8,223.2)" />
<use xlink:href="#f1_h" transform="matrix(10.5,0,0,10.5,530.9,223.2)" />
<use xlink:href="#f2_2j" transform="matrix(7.9,0,0,7.9,505.2,213.6)" />
<use xlink:href="#f2_2k" transform="matrix(7.9,0,0,7.9,523.3,213.6)" />
<use xlink:href="#f2_1z" transform="matrix(10.5,0,0,10.5,449.6,212.8)" />
<use xlink:href="#f2_2k" transform="matrix(10.5,0,0,10.5,458.9,212.8)" />
<use xlink:href="#f2_1z" transform="matrix(10.5,0,0,10.5,449.6,238.8)" />
<use xlink:href="#f2_2j" transform="matrix(10.5,0,0,10.5,458.9,238.8)" />
<use xlink:href="#f3_f" transform="matrix(7.9,0,0,7.9,514.5,213.6)" />
<use xlink:href="#f3_x" transform="matrix(10.5,0,0,10.5,478.6,223.2)" />
<use xlink:href="#f1_b" transform="matrix(10.4,0,0,10.4,134.6,294.6)" />
<use xlink:href="#f1_2h" transform="matrix(10.4,0,0,10.4,139.9,294.6)" />
<use xlink:href="#f1_c" transform="matrix(10.4,0,0,10.4,148.1,294.6)" />
</g>
<path d="M174.6,291.2h20m26.5,0h77.8" class="g3_80" />
<g fill="#000000" >
<use xlink:href="#f1_k" transform="matrix(10.6,0,0,10.6,220.9,285)" />
<use xlink:href="#f1_1y" transform="matrix(10.6,0,0,10.6,249.2,285)" />
<use xlink:href="#f1_2a" transform="matrix(10.6,0,0,10.6,257.5,285)" />
<use xlink:href="#f1_2e" transform="matrix(10.6,0,0,10.6,266.8,285)" />
<use xlink:href="#f1_l" transform="matrix(10.6,0,0,10.6,279,285)" />
<use xlink:href="#f1_h" transform="matrix(10.6,0,0,10.6,302.9,295.5)" />
<use xlink:href="#f1_k" transform="matrix(10.6,0,0,10.6,220.6,311.1)" />
<use xlink:href="#f1_1y" transform="matrix(10.6,0,0,10.6,249.2,311.1)" />
<use xlink:href="#f1_2a" transform="matrix(10.6,0,0,10.6,257.5,311.1)" />
<use xlink:href="#f1_2e" transform="matrix(10.6,0,0,10.6,266.8,311.1)" />
<use xlink:href="#f1_l" transform="matrix(10.6,0,0,10.6,279,311.1)" />
<use xlink:href="#f2_1z" transform="matrix(10.6,0,0,10.6,174.6,285)" />
<use xlink:href="#f2_2k" transform="matrix(10.6,0,0,10.6,183.9,285)" />
<use xlink:href="#f2_2j" transform="matrix(10.6,0,0,10.6,288,285)" />
<use xlink:href="#f2_1z" transform="matrix(10.6,0,0,10.6,174.6,311.1)" />
<use xlink:href="#f2_2j" transform="matrix(10.6,0,0,10.6,183.9,311.1)" />
<use xlink:href="#f2_2k" transform="matrix(10.6,0,0,10.6,288.2,311.1)" />
<use xlink:href="#f3_h" transform="matrix(10.7,0,0,10.6,233.8,285)" />
<use xlink:href="#f3_x" transform="matrix(10.7,0,0,10.6,203.5,295.5)" />
<use xlink:href="#f3_f" transform="matrix(10.7,0,0,10.6,233.6,311.1)" />
<use xlink:href="#f1_b" transform="matrix(10.4,0,0,10.4,405.9,294.6)" />
<use xlink:href="#f1_2h" transform="matrix(10.4,0,0,10.4,411.2,294.6)" />
<use xlink:href="#f1_24" transform="matrix(10.4,0,0,10.4,419.4,294.6)" />
<use xlink:href="#f1_c" transform="matrix(10.4,0,0,10.4,423,294.6)" />
</g>
<path d="M449.7,290.6h20.1m26.7,0h48.3" class="g4_80" />
<g fill="#000000" >
<use xlink:href="#f1_k" transform="matrix(10.6,0,0,10.5,496.1,284.5)" />
<use xlink:href="#f1_l" transform="matrix(10.6,0,0,10.5,524.7,284.5)" />
<use xlink:href="#f1_h" transform="matrix(10.6,0,0,10.5,548.8,294.9)" />
<use xlink:href="#f1_m" transform="matrix(10.6,0,0,10.5,497.3,310.5)" />
<use xlink:href="#f1_k" transform="matrix(10.6,0,0,10.5,537.9,310.5)" />
<use xlink:href="#f2_1z" transform="matrix(10.6,0,0,10.5,449.6,284.5)" />
<use xlink:href="#f2_2k" transform="matrix(10.6,0,0,10.5,459,284.5)" />
<use xlink:href="#f2_2k" transform="matrix(10.6,0,0,10.5,534,284.5)" />
<use xlink:href="#f2_1z" transform="matrix(10.6,0,0,10.5,449.6,310.5)" />
<use xlink:href="#f2_2j" transform="matrix(10.6,0,0,10.5,459,310.5)" />
<use xlink:href="#f2_2j" transform="matrix(10.6,0,0,10.5,506.6,310.5)" />
<use xlink:href="#f3_h" transform="matrix(10.6,0,0,10.5,509.1,284.5)" />
<use xlink:href="#f3_x" transform="matrix(10.6,0,0,10.5,478.7,294.9)" />
<use xlink:href="#f3_f" transform="matrix(10.6,0,0,10.5,523.4,310.5)" />
<use xlink:href="#f1_m" transform="matrix(10.4,0,0,10.4,84.9,352.1)" />
<use xlink:href="#f1_h" transform="matrix(10.4,0,0,10.4,93.7,352.1)" />
<use xlink:href="#f1_1m" transform="matrix(10.4,0,0,10.4,116.6,352.1)" />
<use xlink:href="#f1_2d" transform="matrix(10.4,0,0,10.4,131.6,352.1)" />
<use xlink:href="#f1_24" transform="matrix(10.4,0,0,10.4,137,352.1)" />
<use xlink:href="#f1_2f" transform="matrix(10.4,0,0,10.4,140.5,352.1)" />
<use xlink:href="#f1_20" transform="matrix(10.4,0,0,10.4,144.9,352.1)" />
<use xlink:href="#f1_24" transform="matrix(10.4,0,0,10.4,161.5,352.1)" />
<use xlink:href="#f1_29" transform="matrix(10.4,0,0,10.4,165,352.1)" />
<use xlink:href="#f1_2f" transform="matrix(10.4,0,0,10.4,173.9,352.1)" />
<use xlink:href="#f1_20" transform="matrix(10.4,0,0,10.4,178.4,352.1)" />
<use xlink:href="#f1_22" transform="matrix(10.4,0,0,10.4,187.2,352.1)" />
<use xlink:href="#f1_2d" transform="matrix(10.4,0,0,10.4,196.1,352.1)" />
<use xlink:href="#f1_1w" transform="matrix(10.4,0,0,10.4,201.4,352.1)" />
<use xlink:href="#f1_2f" transform="matrix(10.4,0,0,10.4,210.3,352.1)" />
<use xlink:href="#f1_24" transform="matrix(10.4,0,0,10.4,214.7,352.1)" />
<use xlink:href="#f1_29" transform="matrix(10.4,0,0,10.4,218.2,352.1)" />
<use xlink:href="#f1_22" transform="matrix(10.4,0,0,10.4,227.1,352.1)" />
<use xlink:href="#f1_21" transform="matrix(10.4,0,0,10.4,243.5,352.1)" />
<use xlink:href="#f1_1w" transform="matrix(10.4,0,0,10.4,247.9,352.1)" />
<use xlink:href="#f1_1y" transform="matrix(10.4,0,0,10.4,256.8,352.1)" />
<use xlink:href="#f1_2f" transform="matrix(10.4,0,0,10.4,264.8,352.1)" />
<use xlink:href="#f1_2a" transform="matrix(10.4,0,0,10.4,269.2,352.1)" />
<use xlink:href="#f1_2d" transform="matrix(10.4,0,0,10.4,278.1,352.1)" />
<use xlink:href="#f1_2a" transform="matrix(10.4,0,0,10.4,291.1,352.1)" />
<use xlink:href="#f1_21" transform="matrix(10.4,0,0,10.4,300,352.1)" />
<use xlink:href="#f1_2f" transform="matrix(10.4,0,0,10.4,311.9,352.1)" />
<use xlink:href="#f1_23" transform="matrix(10.4,0,0,10.4,316.3,352.1)" />
<use xlink:href="#f1_20" transform="matrix(10.4,0,0,10.4,325.2,352.1)" />
<use xlink:href="#f1_21" transform="matrix(10.4,0,0,10.4,341.8,352.1)" />
<use xlink:href="#f1_2a" transform="matrix(10.4,0,0,10.4,346.2,352.1)" />
<use xlink:href="#f1_27" transform="matrix(10.4,0,0,10.4,355.1,352.1)" />
<use xlink:href="#f1_27" transform="matrix(10.4,0,0,10.4,358.6,352.1)" />
<use xlink:href="#f1_2a" transform="matrix(10.4,0,0,10.4,362.2,352.1)" />
<use xlink:href="#f1_2i" transform="matrix(10.4,0,0,10.4,371,352.1)" />
<use xlink:href="#f1_24" transform="matrix(10.4,0,0,10.4,382.5,352.1)" />
<use xlink:href="#f1_29" transform="matrix(10.4,0,0,10.4,386.1,352.1)" />
<use xlink:href="#f1_22" transform="matrix(10.4,0,0,10.4,395,352.1)" />
<use xlink:href="#f1_1z" transform="matrix(10.4,0,0,10.4,411.3,352.1)" />
<use xlink:href="#f1_24" transform="matrix(10.4,0,0,10.4,420.2,352.1)" />
<use xlink:href="#f1_21" transform="matrix(10.4,0,0,10.4,423.7,352.1)" />
<use xlink:href="#f1_21" transform="matrix(10.4,0,0,10.4,428.2,352.1)" />
<use xlink:href="#f1_20" transform="matrix(10.4,0,0,10.4,432.6,352.1)" />
<use xlink:href="#f1_2d" transform="matrix(10.4,0,0,10.4,441.5,352.1)" />
<use xlink:href="#f1_20" transform="matrix(10.4,0,0,10.4,446.8,352.1)" />
<use xlink:href="#f1_29" transform="matrix(10.4,0,0,10.4,455.7,352.1)" />
<use xlink:href="#f1_2f" transform="matrix(10.4,0,0,10.4,464.5,352.1)" />
<use xlink:href="#f1_24" transform="matrix(10.4,0,0,10.4,469,352.1)" />
<use xlink:href="#f1_1w" transform="matrix(10.4,0,0,10.4,472.5,352.1)" />
<use xlink:href="#f1_27" transform="matrix(10.4,0,0,10.4,481.4,352.1)" />
<use xlink:href="#f1_20" transform="matrix(10.4,0,0,10.4,492.6,352.1)" />
<use xlink:href="#f1_2c" transform="matrix(10.4,0,0,10.4,501.5,352.1)" />
<use xlink:href="#f1_2g" transform="matrix(10.4,0,0,10.4,510.3,352.1)" />
<use xlink:href="#f1_1w" transform="matrix(10.4,0,0,10.4,519.2,352.1)" />
<use xlink:href="#f1_2f" transform="matrix(10.4,0,0,10.4,528.1,352.1)" />
<use xlink:href="#f1_24" transform="matrix(10.4,0,0,10.4,532.5,352.1)" />
<use xlink:href="#f1_2a" transform="matrix(10.4,0,0,10.4,536.1,352.1)" />
<use xlink:href="#f1_29" transform="matrix(10.4,0,0,10.4,544.9,352.1)" />
<use xlink:href="#f1_2e" transform="matrix(10.4,0,0,10.4,553.8,352.1)" />
<use xlink:href="#f1_b" transform="matrix(10.4,0,0,10.4,139.1,398.7)" />
<use xlink:href="#f1_24" transform="matrix(10.4,0,0,10.4,144.5,398.7)" />
<use xlink:href="#f1_c" transform="matrix(10.4,0,0,10.4,148,398.7)" />
</g>
<path d="M174.6,395.1h19.7" class="g1_80" />
<g fill="#000000" >
<use xlink:href="#f1_1y" transform="matrix(10.5,0,0,10.5,231.6,399.4)" />
<use xlink:href="#f1_2a" transform="matrix(10.5,0,0,10.5,239.6,399.4)" />
<use xlink:href="#f1_2e" transform="matrix(10.5,0,0,10.5,248.5,399.4)" />
<use xlink:href="#f1_2e" transform="matrix(10.5,0,0,10.5,296.2,399.4)" />
<use xlink:href="#f1_24" transform="matrix(10.5,0,0,10.5,304.2,399.4)" />
<use xlink:href="#f1_29" transform="matrix(10.5,0,0,10.5,307.8,399.4)" />
<use xlink:href="#f2_1z" transform="matrix(10.5,0,0,10.5,174.6,388.9)" />
<use xlink:href="#f2_2k" transform="matrix(10.5,0,0,10.5,183.5,388.9)" />
<use xlink:href="#f2_2k" transform="matrix(10.5,0,0,10.5,217.4,399.4)" />
<use xlink:href="#f2_2j" transform="matrix(10.5,0,0,10.5,261,399.4)" />
<use xlink:href="#f2_2j" transform="matrix(10.5,0,0,10.5,320.4,399.4)" />
<use xlink:href="#f2_1z" transform="matrix(10.5,0,0,10.5,174.7,410.1)" />
<use xlink:href="#f2_2j" transform="matrix(10.5,0,0,10.5,183.6,410.1)" />
<use xlink:href="#f3_f" transform="matrix(10.5,0,0,10.5,201.5,399.4)" />
<use xlink:href="#f3_x" transform="matrix(10.5,0,0,10.5,279.2,399.4)" />
<use xlink:href="#f1_b" transform="matrix(10.4,0,0,10.4,135.5,466.7)" />
<use xlink:href="#f1_24" transform="matrix(10.4,0,0,10.4,140.8,466.7)" />
<use xlink:href="#f1_24" transform="matrix(10.4,0,0,10.4,144.3,466.7)" />
<use xlink:href="#f1_c" transform="matrix(10.4,0,0,10.4,147.9,466.7)" />
</g>
<path d="M174.6,460.9h19.8" class="g2_80" />
<g fill="#000000" >
<use xlink:href="#f1_l" transform="matrix(7.9,0,0,7.9,260.2,455.6)" />
<use xlink:href="#f1_2e" transform="matrix(10.5,0,0,10.5,231.7,465.2)" />
<use xlink:href="#f1_20" transform="matrix(10.5,0,0,10.5,239.7,465.2)" />
<use xlink:href="#f1_1y" transform="matrix(10.5,0,0,10.5,248.7,465.2)" />
<use xlink:href="#f1_2e" transform="matrix(10.5,0,0,10.5,308.3,465.2)" />
<use xlink:href="#f1_20" transform="matrix(10.5,0,0,10.5,316.4,465.2)" />
<use xlink:href="#f1_1y" transform="matrix(10.5,0,0,10.5,325.3,465.2)" />
<use xlink:href="#f1_2f" transform="matrix(10.5,0,0,10.5,370.5,465.2)" />
<use xlink:href="#f1_1w" transform="matrix(10.5,0,0,10.5,374.9,465.2)" />
<use xlink:href="#f1_29" transform="matrix(10.5,0,0,10.5,383.9,465.2)" />
<use xlink:href="#f2_1z" transform="matrix(10.5,0,0,10.5,174.5,454.8)" />
<use xlink:href="#f2_2k" transform="matrix(10.5,0,0,10.5,183.4,454.8)" />
<use xlink:href="#f2_2k" transform="matrix(10.5,0,0,10.5,217.5,465.2)" />
<use xlink:href="#f2_2j" transform="matrix(10.5,0,0,10.5,273,465.2)" />
<use xlink:href="#f2_2j" transform="matrix(10.5,0,0,10.5,338.2,465.2)" />
<use xlink:href="#f2_2j" transform="matrix(10.5,0,0,10.5,396.9,465.2)" />
<use xlink:href="#f2_1z" transform="matrix(10.5,0,0,10.5,174.7,476)" />
<use xlink:href="#f2_2j" transform="matrix(10.5,0,0,10.5,183.6,476)" />
<use xlink:href="#f3_f" transform="matrix(10.5,0,0,10.5,201.5,465.2)" />
<use xlink:href="#f3_x" transform="matrix(10.5,0,0,10.5,291.2,465.2)" />
<use xlink:href="#f3_f" transform="matrix(10.5,0,0,10.5,354.7,465.2)" />
<use xlink:href="#f1_b" transform="matrix(10.4,0,0,10.4,132,526.1)" />
<use xlink:href="#f1_24" transform="matrix(10.4,0,0,10.4,137.3,526.1)" />
<use xlink:href="#f1_24" transform="matrix(10.4,0,0,10.4,140.8,526.1)" />
<use xlink:href="#f1_24" transform="matrix(10.4,0,0,10.4,144.4,526.1)" />
<use xlink:href="#f1_c" transform="matrix(10.4,0,0,10.4,147.9,526.1)" />
</g>
<path d="M200.3,520.3H220" class="g3_80" />
<g fill="#000000" >
<use xlink:href="#f1_l" transform="matrix(7.9,0,0,7.9,187.3,515)" />
<use xlink:href="#f1_n" transform="matrix(7.9,0,0,7.9,291.9,515)" />
<use xlink:href="#f1_h" transform="matrix(10.5,0,0,10.5,299.5,524.6)" />
<use xlink:href="#f2_1z" transform="matrix(10.5,0,0,10.5,200.3,514.2)" />
<use xlink:href="#f2_2k" transform="matrix(10.5,0,0,10.5,209.2,514.2)" />
<use xlink:href="#f2_2j" transform="matrix(10.5,0,0,10.5,174.4,524.6)" />
<use xlink:href="#f2_2k" transform="matrix(10.5,0,0,10.5,243.2,524.6)" />
<use xlink:href="#f2_2j" transform="matrix(10.5,0,0,10.5,279,524.6)" />
<use xlink:href="#f2_1z" transform="matrix(10.5,0,0,10.5,200.5,535.4)" />
<use xlink:href="#f2_2j" transform="matrix(10.5,0,0,10.5,209.4,535.4)" />
<use xlink:href="#f3_f" transform="matrix(10.5,0,0,10.5,227.2,524.6)" />
<use xlink:href="#f3_x" transform="matrix(10.5,0,0,10.5,261.6,524.6)" />
<use xlink:href="#f1_b" transform="matrix(10.4,0,0,10.4,405.9,526.1)" />
<use xlink:href="#f1_24" transform="matrix(10.4,0,0,10.4,411.2,526.1)" />
<use xlink:href="#f1_2h" transform="matrix(10.4,0,0,10.4,414.7,526.1)" />
<use xlink:href="#f1_c" transform="matrix(10.4,0,0,10.4,422.7,526.1)" />
</g>
<path d="M463.8,520.3h19.7" class="g5_80" />
<g fill="#000000" >
<use xlink:href="#f1_27" transform="matrix(10.5,0,0,10.5,520.2,524.6)" />
<use xlink:href="#f1_2a" transform="matrix(10.5,0,0,10.5,523.8,524.6)" />
<use xlink:href="#f1_22" transform="matrix(10.5,0,0,10.5,532.7,524.6)" />
<use xlink:href="#f2_1z" transform="matrix(10.5,0,0,10.5,463.7,514.2)" />
<use xlink:href="#f2_2k" transform="matrix(10.5,0,0,10.5,472.7,514.2)" />
<use xlink:href="#f2_2j" transform="matrix(10.5,0,0,10.5,449.4,524.6)" />
<use xlink:href="#f2_2k" transform="matrix(10.5,0,0,10.5,506.6,524.6)" />
<use xlink:href="#f2_2j" transform="matrix(10.5,0,0,10.5,545.6,524.6)" />
<use xlink:href="#f2_2j" transform="matrix(10.5,0,0,10.5,581.2,524.6)" />
<use xlink:href="#f2_2k" transform="matrix(10.5,0,0,10.5,613.6,524.6)" />
<use xlink:href="#f2_1z" transform="matrix(10.5,0,0,10.5,463.9,535.3)" />
<use xlink:href="#f2_2j" transform="matrix(10.5,0,0,10.5,472.8,535.3)" />
<use xlink:href="#f3_f" transform="matrix(10.5,0,0,10.5,490.7,524.6)" />
<use xlink:href="#f3_x" transform="matrix(10.5,0,0,10.5,563.8,524.6)" />
<use xlink:href="#f3_f" transform="matrix(10.5,0,0,10.5,597.6,524.6)" />
<use xlink:href="#f1_b" transform="matrix(10.4,0,0,10.4,134.6,585.9)" />
<use xlink:href="#f1_2h" transform="matrix(10.4,0,0,10.4,139.9,585.9)" />
<use xlink:href="#f1_c" transform="matrix(10.4,0,0,10.4,148.1,585.9)" />
</g>
<path d="M188.8,580.1h19.8" class="g2_80" />
<g fill="#000000" >
<use xlink:href="#f1_m" transform="matrix(7.9,0,0,7.9,289.3,574.8)" />
<use xlink:href="#f1_m" transform="matrix(10.5,0,0,10.5,231.2,584.4)" />
<use xlink:href="#f2_1z" transform="matrix(10.5,0,0,10.5,188.7,573.9)" />
<use xlink:href="#f2_2k" transform="matrix(10.5,0,0,10.5,197.6,573.9)" />
<use xlink:href="#f2_2j" transform="matrix(10.5,0,0,10.5,174.2,584.4)" />
<use xlink:href="#f2_2k" transform="matrix(10.5,0,0,10.5,240.5,584.4)" />
<use xlink:href="#f2_2j" transform="matrix(10.5,0,0,10.5,276.4,584.4)" />
<use xlink:href="#f2_1z" transform="matrix(10.5,0,0,10.5,188.8,595.1)" />
<use xlink:href="#f2_2j" transform="matrix(10.5,0,0,10.5,197.7,595.1)" />
<use xlink:href="#f3_h" transform="matrix(10.5,0,0,10.5,215.7,584.4)" />
<use xlink:href="#f3_x" transform="matrix(10.5,0,0,10.5,258.9,584.4)" />
<use xlink:href="#f1_b" transform="matrix(10.4,0,0,10.4,405.9,585.9)" />
<use xlink:href="#f1_2h" transform="matrix(10.4,0,0,10.4,411.2,585.9)" />
<use xlink:href="#f1_24" transform="matrix(10.4,0,0,10.4,419.4,585.9)" />
<use xlink:href="#f1_c" transform="matrix(10.4,0,0,10.4,423,585.9)" />
</g>
<path d="M449.6,580.1h19.8" class="g2_80" />
<g fill="#000000" >
<use xlink:href="#f1_2f" transform="matrix(10.5,0,0,10.5,507,584.4)" />
<use xlink:href="#f1_1w" transform="matrix(10.5,0,0,10.5,511.5,584.4)" />
<use xlink:href="#f1_29" transform="matrix(10.5,0,0,10.5,520.4,584.4)" />
<use xlink:href="#f1_2e" transform="matrix(10.5,0,0,10.5,568.5,584.4)" />
<use xlink:href="#f1_20" transform="matrix(10.5,0,0,10.5,576.5,584.4)" />
<use xlink:href="#f1_1y" transform="matrix(10.5,0,0,10.5,585.5,584.4)" />
<use xlink:href="#f2_1z" transform="matrix(10.5,0,0,10.5,449.6,573.9)" />
<use xlink:href="#f2_2k" transform="matrix(10.5,0,0,10.5,458.5,573.9)" />
<use xlink:href="#f2_2k" transform="matrix(10.5,0,0,10.5,492.5,584.4)" />
<use xlink:href="#f2_2j" transform="matrix(10.5,0,0,10.5,533.2,584.4)" />
<use xlink:href="#f2_2j" transform="matrix(10.5,0,0,10.5,598.4,584.4)" />
<use xlink:href="#f2_1z" transform="matrix(10.5,0,0,10.5,449.7,595.1)" />
<use xlink:href="#f2_2j" transform="matrix(10.5,0,0,10.5,458.6,595.1)" />
<use xlink:href="#f3_f" transform="matrix(10.5,0,0,10.5,476.6,584.4)" />
<use xlink:href="#f3_x" transform="matrix(10.5,0,0,10.5,551.4,584.4)" />
<use xlink:href="#f1_b" transform="matrix(10.4,0,0,10.4,127.4,652.8)" />
<use xlink:href="#f1_2h" transform="matrix(10.4,0,0,10.4,132.7,652.8)" />
<use xlink:href="#f1_24" transform="matrix(10.4,0,0,10.4,140.7,652.8)" />
<use xlink:href="#f1_24" transform="matrix(10.4,0,0,10.4,144.2,652.8)" />
<use xlink:href="#f1_c" transform="matrix(10.4,0,0,10.4,147.8,652.8)" />
</g>
<path d="M174.6,646.5h19.8m23.4,0h50.7" class="g2_80" />
<g fill="#000000" >
<use xlink:href="#f1_l" transform="matrix(7.8,0,0,7.8,259.3,658)" />
<use xlink:href="#f1_k" transform="matrix(10.4,0,0,10.4,239.5,640.3)" />
<use xlink:href="#f1_2e" transform="matrix(10.4,0,0,10.4,309,650.7)" />
<use xlink:href="#f1_24" transform="matrix(10.4,0,0,10.4,317,650.7)" />
<use xlink:href="#f1_29" transform="matrix(10.4,0,0,10.4,320.5,650.7)" />
<use xlink:href="#f1_k" transform="matrix(10.4,0,0,10.4,217.4,667.5)" />
<use xlink:href="#f3_f" transform="matrix(10.5,0,0,10.4,201.5,650.7)" />
<use xlink:href="#f3_x" transform="matrix(10.5,0,0,10.4,291.8,650.7)" />
<use xlink:href="#f3_f" transform="matrix(10.5,0,0,10.4,230.4,667.5)" />
<use xlink:href="#f2_1z" transform="matrix(10.4,0,0,10.4,174.4,640.3)" />
<use xlink:href="#f2_2k" transform="matrix(10.4,0,0,10.4,183.5,640.3)" />
<use xlink:href="#f2_2k" transform="matrix(10.4,0,0,10.4,273.3,650.7)" />
<use xlink:href="#f2_2j" transform="matrix(10.4,0,0,10.4,333.2,650.7)" />
<use xlink:href="#f2_1z" transform="matrix(10.4,0,0,10.4,174.6,661.3)" />
<use xlink:href="#f2_2j" transform="matrix(10.4,0,0,10.4,183.6,661.3)" />
<use xlink:href="#f2_2j" transform="matrix(10.4,0,0,10.4,246.3,667.5)" />
<use xlink:href="#f1_n" transform="matrix(10.4,0,0,10.4,84.9,705)" />
<use xlink:href="#f1_h" transform="matrix(10.4,0,0,10.4,93.7,705)" />
<use xlink:href="#f1_1m" transform="matrix(10.4,0,0,10.4,116.6,705)" />
<use xlink:href="#f1_2d" transform="matrix(10.4,0,0,10.4,131.6,705)" />
<use xlink:href="#f1_24" transform="matrix(10.4,0,0,10.4,137,705)" />
<use xlink:href="#f1_2f" transform="matrix(10.4,0,0,10.4,140.5,705)" />
<use xlink:href="#f1_20" transform="matrix(10.4,0,0,10.4,144.9,705)" />
<use xlink:href="#f1_2a" transform="matrix(10.4,0,0,10.4,161.1,705)" />
<use xlink:href="#f1_2d" transform="matrix(10.4,0,0,10.4,170,705)" />
<use xlink:href="#f1_1z" transform="matrix(10.4,0,0,10.4,175.3,705)" />
<use xlink:href="#f1_20" transform="matrix(10.4,0,0,10.4,184.2,705)" />
<use xlink:href="#f1_2d" transform="matrix(10.4,0,0,10.4,193.1,705)" />
<use xlink:href="#f1_2a" transform="matrix(10.4,0,0,10.4,205.7,705)" />
<use xlink:href="#f1_21" transform="matrix(10.4,0,0,10.4,214.6,705)" />
<use xlink:href="#f1_2f" transform="matrix(10.4,0,0,10.4,226.3,705)" />
<use xlink:href="#f1_23" transform="matrix(10.4,0,0,10.4,230.8,705)" />
<use xlink:href="#f1_20" transform="matrix(10.4,0,0,10.4,239.6,705)" />
<use xlink:href="#f1_1z" transform="matrix(10.4,0,0,10.4,255.9,705)" />
<use xlink:href="#f1_24" transform="matrix(10.4,0,0,10.4,264.7,705)" />
<use xlink:href="#f1_21" transform="matrix(10.4,0,0,10.4,268.3,705)" />
<use xlink:href="#f1_21" transform="matrix(10.4,0,0,10.4,272.7,705)" />
<use xlink:href="#f1_20" transform="matrix(10.4,0,0,10.4,277.1,705)" />
<use xlink:href="#f1_2d" transform="matrix(10.4,0,0,10.4,286,705)" />
<use xlink:href="#f1_20" transform="matrix(10.4,0,0,10.4,291.3,705)" />
<use xlink:href="#f1_29" transform="matrix(10.4,0,0,10.4,300.2,705)" />
<use xlink:href="#f1_2f" transform="matrix(10.4,0,0,10.4,309,705)" />
<use xlink:href="#f1_24" transform="matrix(10.4,0,0,10.4,313.5,705)" />
<use xlink:href="#f1_1w" transform="matrix(10.4,0,0,10.4,317,705)" />
<use xlink:href="#f1_27" transform="matrix(10.4,0,0,10.4,325.9,705)" />
<use xlink:href="#f1_20" transform="matrix(10.4,0,0,10.4,336.8,705)" />
<use xlink:href="#f1_2c" transform="matrix(10.4,0,0,10.4,345.6,705)" />
<use xlink:href="#f1_2g" transform="matrix(10.4,0,0,10.4,354.5,705)" />
<use xlink:href="#f1_1w" transform="matrix(10.4,0,0,10.4,363.4,705)" />
<use xlink:href="#f1_2f" transform="matrix(10.4,0,0,10.4,372.2,705)" />
<use xlink:href="#f1_24" transform="matrix(10.4,0,0,10.4,376.7,705)" />
<use xlink:href="#f1_2a" transform="matrix(10.4,0,0,10.4,380.2,705)" />
<use xlink:href="#f1_29" transform="matrix(10.4,0,0,10.4,389.1,705)" />
<use xlink:href="#f1_2a" transform="matrix(10.4,0,0,10.4,405.3,705)" />
<use xlink:href="#f1_21" transform="matrix(10.4,0,0,10.4,414.2,705)" />
<use xlink:href="#f1_2f" transform="matrix(10.4,0,0,10.4,425.9,705)" />
<use xlink:href="#f1_23" transform="matrix(10.4,0,0,10.4,430.4,705)" />
<use xlink:href="#f1_20" transform="matrix(10.4,0,0,10.4,439.2,705)" />
<use xlink:href="#f1_21" transform="matrix(10.4,0,0,10.4,455.4,705)" />
<use xlink:href="#f1_1w" transform="matrix(10.4,0,0,10.4,459.9,705)" />
<use xlink:href="#f1_28" transform="matrix(10.4,0,0,10.4,468.7,705)" />
<use xlink:href="#f1_24" transform="matrix(10.4,0,0,10.4,482,705)" />
<use xlink:href="#f1_27" transform="matrix(10.4,0,0,10.4,485.6,705)" />
<use xlink:href="#f1_2k" transform="matrix(10.4,0,0,10.4,489.1,705)" />
<use xlink:href="#f1_2a" transform="matrix(10.4,0,0,10.4,504.4,705)" />
<use xlink:href="#f1_21" transform="matrix(10.4,0,0,10.4,513.3,705)" />
<use xlink:href="#f1_21" transform="matrix(10.4,0,0,10.4,525.1,705)" />
<use xlink:href="#f1_2a" transform="matrix(10.4,0,0,10.4,529.5,705)" />
<use xlink:href="#f1_27" transform="matrix(10.4,0,0,10.4,538.4,705)" />
<use xlink:href="#f1_27" transform="matrix(10.4,0,0,10.4,541.9,705)" />
<use xlink:href="#f1_2a" transform="matrix(10.4,0,0,10.4,545.4,705)" />
<use xlink:href="#f1_2i" transform="matrix(10.4,0,0,10.4,554.3,705)" />
<use xlink:href="#f1_24" transform="matrix(10.4,0,0,10.4,565.8,705)" />
<use xlink:href="#f1_29" transform="matrix(10.4,0,0,10.4,569.4,705)" />
<use xlink:href="#f1_22" transform="matrix(10.4,0,0,10.4,578.2,705)" />
<use xlink:href="#f1_1y" transform="matrix(10.4,0,0,10.4,594.4,705)" />
<use xlink:href="#f1_2g" transform="matrix(10.4,0,0,10.4,602.4,705)" />
<use xlink:href="#f1_2d" transform="matrix(10.4,0,0,10.4,611.3,705)" />
<use xlink:href="#f1_2h" transform="matrix(10.4,0,0,10.4,616.6,705)" />
<use xlink:href="#f1_20" transform="matrix(10.4,0,0,10.4,624.6,705)" />
<use xlink:href="#f1_2e" transform="matrix(10.4,0,0,10.4,633.4,705)" />
<use xlink:href="#f1_b" transform="matrix(10.4,0,0,10.4,139.1,739)" />
<use xlink:href="#f1_24" transform="matrix(10.4,0,0,10.4,144.5,739)" />
<use xlink:href="#f1_c" transform="matrix(10.4,0,0,10.4,148,739)" />
<use xlink:href="#f2_2k" transform="matrix(10.4,0,0,10.4,171.6,739)" />
<use xlink:href="#f1_w" transform="matrix(10.4,0,0,10.4,186.3,739)" />
<use xlink:href="#f2_10" transform="matrix(10.4,0,0,10.4,202.4,739)" />
<use xlink:href="#f2_20" transform="matrix(10.4,0,0,10.4,213,739)" />
<use xlink:href="#f2_2j" transform="matrix(7.4,0,0,7.4,221.8,733.6)" />
<use xlink:href="#f1_e" transform="matrix(10.4,0,0,10.4,234.1,739)" />
<use xlink:href="#f2_11" transform="matrix(10.4,0,0,10.4,250.2,739)" />
<use xlink:href="#f2_20" transform="matrix(10.4,0,0,10.4,260.9,739)" />
<use xlink:href="#f2_2j" transform="matrix(7.4,0,0,7.4,269.7,733.6)" />
<use xlink:href="#f1_e" transform="matrix(7.4,0,0,7.4,280.1,733.6)" />
<use xlink:href="#f2_1y" transform="matrix(7.4,0,0,7.4,291.5,733.6)" />
<use xlink:href="#f1_b" transform="matrix(10.4,0,0,10.4,410.5,739)" />
<use xlink:href="#f1_24" transform="matrix(10.4,0,0,10.4,415.8,739)" />
<use xlink:href="#f1_24" transform="matrix(10.4,0,0,10.4,419.3,739)" />
<use xlink:href="#f1_c" transform="matrix(10.4,0,0,10.4,422.9,739)" />
<use xlink:href="#f2_10" transform="matrix(10.4,0,0,10.4,446.6,739)" />
<use xlink:href="#f2_2k" transform="matrix(10.4,0,0,10.4,457.2,739)" />
<use xlink:href="#f1_w" transform="matrix(10.4,0,0,10.4,471.9,739)" />
<use xlink:href="#f2_11" transform="matrix(10.4,0,0,10.4,488,739)" />
<use xlink:href="#f2_2j" transform="matrix(10.4,0,0,10.4,498.7,739)" />
<use xlink:href="#f1_l" transform="matrix(7.4,0,0,7.4,506.7,733.6)" />
<use xlink:href="#f1_b" transform="matrix(10.4,0,0,10.4,132,772.9)" />
<use xlink:href="#f1_24" transform="matrix(10.4,0,0,10.4,137.3,772.9)" />
<use xlink:href="#f1_24" transform="matrix(10.4,0,0,10.4,140.8,772.9)" />
<use xlink:href="#f1_24" transform="matrix(10.4,0,0,10.4,144.4,772.9)" />
<use xlink:href="#f1_c" transform="matrix(10.4,0,0,10.4,147.9,772.9)" />
<use xlink:href="#f1_b" transform="matrix(10.4,0,0,10.4,171.6,772.9)" />
<use xlink:href="#f2_2j" transform="matrix(10.4,0,0,10.4,176.9,772.9)" />
<use xlink:href="#f2_99" transform="matrix(10.4,0,0,10.4,191.7,772.9)" />
<use xlink:href="#f2_1w" transform="matrix(10.4,0,0,10.4,207.3,772.9)" />
<use xlink:href="#f1_c" transform="matrix(10.4,0,0,10.4,216.1,772.9)" />
<use xlink:href="#f1_l" transform="matrix(7.4,0,0,7.4,221.5,767.6)" />
<use xlink:href="#f1_e" transform="matrix(10.4,0,0,10.4,234.5,772.9)" />
<use xlink:href="#f1_b" transform="matrix(10.4,0,0,10.4,250.6,772.9)" />
<use xlink:href="#f2_2k" transform="matrix(10.4,0,0,10.4,255.9,772.9)" />
<use xlink:href="#f1_99" transform="matrix(10.4,0,0,10.4,270.8,772.9)" />
<use xlink:href="#f2_1x" transform="matrix(10.4,0,0,10.4,286.4,772.9)" />
<use xlink:href="#f1_c" transform="matrix(10.4,0,0,10.4,295.2,772.9)" />
<use xlink:href="#f1_l" transform="matrix(7.4,0,0,7.4,300.5,767.6)" />
<use xlink:href="#f1_w" transform="matrix(10.4,0,0,10.4,313.5,772.9)" />
<use xlink:href="#f1_s" transform="matrix(10.4,0,0,10.4,329.8,772.9)" />
<use xlink:href="#f1_b" transform="matrix(10.4,0,0,10.4,405.9,772.9)" />
<use xlink:href="#f1_24" transform="matrix(10.4,0,0,10.4,411.2,772.9)" />
<use xlink:href="#f1_2h" transform="matrix(10.4,0,0,10.4,414.7,772.9)" />
<use xlink:href="#f1_c" transform="matrix(10.4,0,0,10.4,422.7,772.9)" />
<use xlink:href="#f2_10" transform="matrix(10.4,0,0,10.4,446.6,772.9)" />
<use xlink:href="#f2_2j" transform="matrix(10.4,0,0,10.4,457.2,772.9)" />
<use xlink:href="#f1_e" transform="matrix(10.4,0,0,10.4,471.9,772.9)" />
<use xlink:href="#f2_11" transform="matrix(10.4,0,0,10.4,488,772.9)" />
<use xlink:href="#f2_2k" transform="matrix(10.4,0,0,10.4,498.7,772.9)" />
<use xlink:href="#f1_l" transform="matrix(7.4,0,0,7.4,506.7,767.6)" />
<use xlink:href="#f1_w" transform="matrix(10.4,0,0,10.4,519.6,772.9)" />
<use xlink:href="#f2_11" transform="matrix(10.4,0,0,10.4,535.7,772.9)" />
<use xlink:href="#f2_2j" transform="matrix(10.4,0,0,10.4,546.3,772.9)" />
<use xlink:href="#f1_l" transform="matrix(7.4,0,0,7.4,554.4,767.6)" />
<use xlink:href="#f1_99" transform="matrix(10.4,0,0,10.4,567.2,772.9)" />
<use xlink:href="#f2_10" transform="matrix(10.4,0,0,10.4,582.8,772.9)" />
<use xlink:href="#f2_2k" transform="matrix(10.4,0,0,10.4,593.4,772.9)" />
<use xlink:href="#f1_b" transform="matrix(10.4,0,0,10.4,134.6,829.2)" />
<use xlink:href="#f1_2h" transform="matrix(10.4,0,0,10.4,139.9,829.2)" />
<use xlink:href="#f1_c" transform="matrix(10.4,0,0,10.4,148.1,829.2)" />
</g>
<path d="M174.6,823.5h23.1m23.2,0h23.3" class="g2_80" />
<g fill="#000000" >
<use xlink:href="#f1_l" transform="matrix(7.9,0,0,7.9,188.6,807.8)" />
<use xlink:href="#f1_l" transform="matrix(7.9,0,0,7.9,235.1,807.8)" />
<use xlink:href="#f1_l" transform="matrix(7.9,0,0,7.9,187.9,835.2)" />
<use xlink:href="#f1_l" transform="matrix(7.9,0,0,7.9,234.7,835.2)" />
<use xlink:href="#f1_j" transform="matrix(10.5,0,0,10.5,270.4,827.8)" />
<use xlink:href="#f1_h" transform="matrix(10.5,0,0,10.5,279.3,827.8)" />
<use xlink:href="#f3_h" transform="matrix(10.5,0,0,10.5,204.9,827.8)" />
<use xlink:href="#f3_x" transform="matrix(10.5,0,0,10.5,253.2,827.8)" />
<use xlink:href="#f2_2j" transform="matrix(10.5,0,0,10.5,175.6,817.4)" />
<use xlink:href="#f2_2k" transform="matrix(10.5,0,0,10.5,221.9,817.4)" />
<use xlink:href="#f2_1w" transform="matrix(10.5,0,0,10.5,175.5,844.8)" />
<use xlink:href="#f2_1x" transform="matrix(10.5,0,0,10.5,221.5,844.8)" />
<use xlink:href="#f1_b" transform="matrix(10.4,0,0,10.4,405.9,829.2)" />
<use xlink:href="#f1_2h" transform="matrix(10.4,0,0,10.4,411.2,829.2)" />
<use xlink:href="#f1_24" transform="matrix(10.4,0,0,10.4,419.4,829.2)" />
<use xlink:href="#f1_c" transform="matrix(10.4,0,0,10.4,423,829.2)" />
<use xlink:href="#f2_2k" transform="matrix(10.4,0,0,10.4,446.6,829.2)" />
<use xlink:href="#f1_w" transform="matrix(10.4,0,0,10.4,461.4,829.2)" />
<use xlink:href="#f2_1w" transform="matrix(10.4,0,0,10.4,477.6,829.2)" />
<use xlink:href="#f1_1y" transform="matrix(10.4,0,0,10.4,493.2,829.2)" />
<use xlink:href="#f1_2a" transform="matrix(10.4,0,0,10.4,501.1,829.2)" />
<use xlink:href="#f1_2e" transform="matrix(10.4,0,0,10.4,510,829.2)" />
<use xlink:href="#f1_b" transform="matrix(10.4,0,0,10.4,524.8,829.2)" />
<use xlink:href="#f2_2j" transform="matrix(10.4,0,0,10.4,530.2,829.2)" />
<use xlink:href="#f1_e" transform="matrix(10.4,0,0,10.4,545,829.2)" />
<use xlink:href="#f2_1x" transform="matrix(10.4,0,0,10.4,561.2,829.2)" />
<use xlink:href="#f1_c" transform="matrix(10.4,0,0,10.4,570,829.2)" />
<use xlink:href="#f1_b" transform="matrix(10.4,0,0,10.4,127.4,874.1)" />
<use xlink:href="#f1_2h" transform="matrix(10.4,0,0,10.4,132.7,874.1)" />
<use xlink:href="#f1_24" transform="matrix(10.4,0,0,10.4,140.7,874.1)" />
<use xlink:href="#f1_24" transform="matrix(10.4,0,0,10.4,144.2,874.1)" />
<use xlink:href="#f1_c" transform="matrix(10.4,0,0,10.4,147.8,874.1)" />
<use xlink:href="#f2_2k" transform="matrix(10.4,0,0,10.4,171.6,874.1)" />
<use xlink:href="#f1_w" transform="matrix(10.4,0,0,10.4,186.4,874.1)" />
<use xlink:href="#f2_1w" transform="matrix(10.4,0,0,10.4,202.6,874.1)" />
<use xlink:href="#f1_e" transform="matrix(10.4,0,0,10.4,218.2,874.1)" />
<use xlink:href="#f2_1x" transform="matrix(10.4,0,0,10.4,234.3,874.1)" />
<use xlink:href="#f2_20" transform="matrix(10.4,0,0,10.4,243.2,874.1)" />
<use xlink:href="#f2_2j" transform="matrix(7.4,0,0,7.4,251.9,868.8)" />
<use xlink:href="#f1_e" transform="matrix(7.4,0,0,7.4,257.6,868.8)" />
<use xlink:href="#f2_1y" transform="matrix(7.4,0,0,7.4,264.2,868.8)" />
<use xlink:href="#f4_m" transform="matrix(12,0,0,12,673.3,1070.2)" />
</g>
<g fill="#0080FF" fill-opacity="0.5" >
<use xlink:href="#f0_1c" transform="matrix(38.3,0,0,38.3,183.6,1079.4)" />
<use xlink:href="#f0_21" transform="matrix(38.3,0,0,38.3,216.1,1079.4)" />
<use xlink:href="#f0_1x" transform="matrix(38.3,0,0,38.3,248.6,1079.4)" />
<use xlink:href="#f0_2e" transform="matrix(38.3,0,0,38.3,281.1,1079.4)" />
<use xlink:href="#f0_2a" transform="matrix(38.3,0,0,38.3,300.6,1079.4)" />
<use xlink:href="#f0_17" transform="matrix(38.3,0,0,38.3,333.1,1079.4)" />
<use xlink:href="#f0_2h" transform="matrix(38.3,0,0,38.3,378.6,1079.4)" />
<use xlink:href="#f0_25" transform="matrix(38.3,0,0,38.3,411.1,1079.4)" />
<use xlink:href="#f0_20" transform="matrix(38.3,0,0,38.3,424,1079.4)" />
<use xlink:href="#f0_21" transform="matrix(38.3,0,0,38.3,456.5,1079.4)" />
<use xlink:href="#f0_i" transform="matrix(38.3,0,0,38.3,489.1,1079.4)" />
<use xlink:href="#f0_25" transform="matrix(38.3,0,0,38.3,505.3,1079.4)" />
<use xlink:href="#f0_2a" transform="matrix(38.3,0,0,38.3,518.3,1079.4)" />
</g>
<defs>
<path d="M593,101c0,0,182,0,279,112c0,0,98,113,98,318c0,0,0,196,-98,308c0,0,-98,112,-277,112c0,0,-181,0,-279,-110c0,0,-99,-111,-99,-310c0,0,0,-198,100,-314c0,0,99,-116,276,-116Zm0,-115c0,0,-162,0,-279,65c0,0,-118,66,-180,190c0,0,-62,124,-62,290c0,0,0,252,138,394c0,0,138,142,385,142c0,0,160,0,278,-64c0,0,118,-64,180,-185c0,0,62,-122,62,-287c0,0,0,-165,-63,-289c0,0,-63,-124,-181,-190c0,0,-118,-66,-278,-66Z" 
id="f0_1f"
transform="scale(0.001,-0.001)" />

<path d="M106,0V635c0,0,0,141,-5,173H228c0,0,1,-4,2,-21c0,0,1,-16,2,-37c0,0,1,-22,2,-81h2c0,0,47,84,108,119c0,0,60,34,151,34c0,0,132,0,194,-66c0,0,61,-66,61,-218V0H615V512c0,0,0,80,-15,124c0,0,-16,44,-50,63c0,0,-35,20,-101,20c0,0,-97,0,-153,-67c0,0,-56,-66,-56,-184V0Z" 
id="f0_2a"
transform="scale(0.001,-0.001)" />

<path d="M103,0V1107H237V0Z" 
id="f0_28"
transform="scale(0.001,-0.001)" />

<path d="M102,0V808H236V0Zm0,979v128H236V979Z" 
id="f0_25"
transform="scale(0.001,-0.001)" />

<path d="M643,478c0,0,-11,128,-65,187c0,0,-54,59,-154,59c0,0,-98,0,-155,-66c0,0,-57,-65,-62,-180ZM431,-14c0,0,-179,0,-272,106c0,0,-94,107,-94,317c0,0,0,200,94,307c0,0,93,106,267,106c0,0,356,0,356,-429V375H206c0,0,0,-138,57,-213c0,0,58,-75,168,-75c0,0,87,0,140,35c0,0,53,35,71,88L760,177c0,0,-72,-191,-329,-191Z" 
id="f0_21"
transform="scale(0.001,-0.001)" />

<path d="M17,0L304,415L31,808H179L380,493L580,808H730L457,417L747,0H598L380,331L162,0Z" 
id="f0_2k"
transform="scale(0.001,-0.001)" />

<path d="M339,87c0,0,74,0,132,34c0,0,57,33,90,91c0,0,34,59,34,121v66L448,396c0,0,-95,-2,-144,-19c0,0,-49,-18,-75,-55c0,0,-26,-38,-26,-98c0,0,0,-65,35,-101c0,0,36,-36,101,-36ZM309,-14c0,0,-122,0,-183,64c0,0,-61,64,-61,176c0,0,0,125,82,192c0,0,83,67,266,72l182,3v44c0,0,0,98,-42,141c0,0,-42,43,-132,43c0,0,-90,0,-131,-31c0,0,-41,-31,-49,-98L101,604c0,0,34,218,323,218c0,0,153,0,229,-70c0,0,77,-69,77,-202V202c0,0,0,-59,16,-90c0,0,16,-30,60,-30c0,0,19,0,44,5V4C850,4,799,-7,746,-7c0,0,-75,0,-109,38c0,0,-33,40,-38,124h-4C595,155,543,62,475,24c0,0,-68,-38,-166,-38Z" 
id="f0_1x"
transform="scale(0.001,-0.001)" />

<path d="M106,0V635c0,0,0,141,-5,173H228c0,0,1,-4,2,-21c0,0,1,-16,2,-37c0,0,1,-22,2,-81h2c0,0,44,86,100,120c0,0,56,33,136,33c0,0,92,0,145,-36c0,0,54,-37,75,-117h2c0,0,42,82,101,117c0,0,59,36,143,36c0,0,123,0,178,-66c0,0,56,-67,56,-218V0H1039V512c0,0,0,117,-32,162c0,0,-32,45,-116,45c0,0,-88,0,-136,-66c0,0,-49,-65,-49,-185V0H573V512c0,0,0,117,-32,162c0,0,-32,45,-116,45c0,0,-86,0,-136,-66c0,0,-50,-66,-50,-185V0Z" 
id="f0_29"
transform="scale(0.001,-0.001)" />

<path d="M453,84c0,0,100,0,146,74c0,0,46,73,46,247c0,0,0,169,-46,241c0,0,-45,73,-145,73c0,0,-80,0,-125,-34c0,0,-45,-34,-68,-105c0,0,-24,-71,-24,-186c0,0,0,-159,51,-234c0,0,51,-76,165,-76ZM103,-316V643c0,0,0,124,-5,165H228c0,0,1,-3,3,-22c0,0,1,-18,3,-56c0,0,2,-38,2,-52h3c0,0,36,75,94,110c0,0,59,34,156,34c0,0,149,0,223,-100c0,0,74,-100,74,-314c0,0,0,-422,-297,-422c0,0,-187,0,-251,140h-4c0,0,3,-6,3,-126V-316Z" 
id="f0_2c"
transform="scale(0.001,-0.001)" />

<path d="M420,84c0,0,121,0,173,78c0,0,52,77,52,243c0,0,0,167,-50,243c0,0,-50,76,-167,76c0,0,-118,0,-170,-78c0,0,-53,-77,-53,-241c0,0,0,-160,52,-241c0,0,52,-80,163,-80Zm1,-98c0,0,-176,0,-267,107c0,0,-90,108,-90,312c0,0,0,417,362,417c0,0,185,0,272,-102c0,0,88,-101,88,-315c0,0,0,-212,-94,-316C692,89,599,-14,421,-14Z" 
id="f0_2b"
transform="scale(0.001,-0.001)" />

<path d="M278,-11c0,0,-162,0,-162,182V710H23v98h99l39,181h90V808H400V710H251V200c0,0,0,-58,19,-82c0,0,19,-23,66,-23c0,0,27,0,77,10V6c0,0,-66,-17,-135,-17Z" 
id="f0_2g"
transform="scale(0.001,-0.001)" />

<path d="M39,0V0c0,0,0,170,84,277c0,0,85,108,317,236c0,0,113,62,154,115c0,0,41,52,41,134c0,0,0,86,-62,141c0,0,-61,54,-156,54c0,0,-101,0,-158,-68c0,0,-57,-68,-60,-194H67c0,0,-2,178,95,279c0,0,98,101,273,101c0,0,149,0,245,-89c0,0,94,-88,94,-228c0,0,0,-118,-60,-195c0,0,-61,-76,-229,-169C485,394,303,294,237,212c0,0,-28,-36,-46,-81H774V0Z" 
id="f1_l"
transform="scale(0.001,-0.001)" />

<path d="M133,0V162H292V0Z" 
id="f1_h"
transform="scale(0.001,-0.001)" />

<path d="M312,0L24,1098l80,-1l81,1L380,230c0,0,6,-22,9,-42c0,0,3,-17,3,-26c0,4,1,13,4,28c0,0,4,20,9,40l232,867H804L1035,234c0,0,6,-20,10,-41c0,0,3,-19,3,-29c0,3,1,12,4,28c0,0,3,21,8,42l198,864l80,-1l79,1L1130,0H971L733,849c0,0,-6,21,-11,42c0,0,-4,21,-4,29c0,0,0,-9,-4,-30c0,0,-4,-20,-10,-41L471,0Z" 
id="f1_1m"
transform="scale(0.001,-0.001)" />

<path d="M118,0V799H246V662c0,0,17,32,36,58c0,0,76,102,187,102c0,0,19,0,38,-6V679l-27,1c0,0,-109,0,-168,-66c0,0,-60,-65,-60,-186V0Z" 
id="f1_2d"
transform="scale(0.001,-0.001)" />

<path d="M104,0V799H238V0Zm-2,946v152H239V946Z" 
id="f1_24"
transform="scale(0.001,-0.001)" />

<path d="M292,-9c0,0,-88,0,-124,38c0,0,-36,39,-36,134V689H22V799H132v224H266V799H392V689H266V163c0,0,0,-27,21,-43c0,0,21,-15,57,-15h48V1C392,1,324,-9,292,-9Z" 
id="f1_2f"
transform="scale(0.001,-0.001)" />

<path d="M649,461c0,0,-6,111,-55,172c0,0,-55,69,-160,69c0,0,-106,0,-170,-79c0,0,-50,-62,-60,-162ZM425,-20c0,0,-169,0,-266,106c0,0,-97,107,-97,297c0,0,0,201,102,320c0,0,103,119,276,119c0,0,157,0,253,-116c0,0,96,-117,96,-306l-1,-48H204c0,0,8,-119,54,-182c0,0,57,-76,180,-76c0,0,77,0,134,43c0,0,58,43,70,110H775C775,247,746,116,656,47c0,0,-90,-67,-231,-67Z" 
id="f1_20"
transform="scale(0.001,-0.001)" />

<path d="M99,0V1097H233V690l23,30c0,0,87,102,219,102c0,0,132,0,203,-71c0,0,72,-72,72,-204V0H616V514c0,0,0,99,-38,142c0,0,-38,44,-124,44c0,0,-102,0,-162,-73c0,0,-59,-74,-59,-199V0Z" 
id="f1_23"
transform="scale(0.001,-0.001)" />

<path d="M418,95c0,0,98,0,158,73c0,0,59,73,59,193c0,0,0,170,-54,254c0,0,-54,85,-163,85c0,0,-113,0,-165,-72c0,0,-52,-71,-52,-227c0,0,0,-147,57,-227c0,0,56,-79,160,-79ZM394,-336c0,0,-136,0,-216,62c0,0,-79,63,-96,182H219c0,0,12,-64,57,-98c0,0,45,-35,116,-35c0,0,116,0,176,73c0,0,61,73,61,211V85l-1,-1C628,84,545,-20,412,-20c0,0,-161,0,-256,118c0,0,-94,120,-94,324c0,0,0,179,93,290c0,0,93,110,244,110c0,0,144,0,228,-124l10,-14V799H763V59c0,0,-1,-201,-91,-298c0,0,-91,-97,-278,-97Z" 
id="f1_22"
transform="scale(0.001,-0.001)" />

<path d="M99,0V799H226V681l30,39c0,0,87,102,219,102c0,0,132,0,203,-71c0,0,72,-72,72,-204V0H616V502c0,0,0,105,-41,151c0,0,-40,47,-132,47c0,0,-97,0,-154,-73c0,0,-56,-74,-56,-199V0Z" 
id="f1_29"
transform="scale(0.001,-0.001)" />

<path d="M335,90c0,0,106,0,179,57c0,0,50,41,67,91c0,0,3,10,4,31c0,0,3,21,3,47v87c0,0,-38,-18,-83,-25L381,360c0,0,-97,-13,-142,-45c0,0,-44,-31,-44,-86c0,0,0,-67,36,-103c0,0,37,-36,104,-36ZM309,-20c0,0,-117,0,-186,61c0,0,-68,63,-68,169c0,0,0,108,64,171c0,0,65,64,189,79l183,23c0,0,22,3,42,8c0,0,26,7,40,27c0,0,15,20,15,51v6c0,0,0,64,-49,101c0,0,-48,36,-135,36c0,0,-83,0,-130,-38c0,0,-46,-39,-56,-115H94c0,0,10,131,92,197c0,0,83,66,238,66c0,0,145,0,222,-63c0,0,76,-63,76,-184V137c0,0,0,-21,12,-33c0,0,12,-12,33,-12c0,0,6,0,18,1c0,0,11,2,25,5V1c0,0,-20,-7,-41,-11c0,0,-22,-5,-37,-5c0,0,-76,0,-110,41c0,0,-22,28,-32,79c0,0,-15,-19,-34,-36c0,0,-101,-89,-247,-89Z" 
id="f1_1w"
transform="scale(0.001,-0.001)" />

<path d="M103,0V1097H237V0Z" 
id="f1_27"
transform="scale(0.001,-0.001)" />

<path d="M393,-20c0,0,-169,0,-252,65c0,0,-83,67,-92,210H178c0,0,10,-85,61,-123c0,0,50,-38,154,-38c0,0,90,0,136,34c0,0,47,35,47,100c0,0,0,42,-31,64c0,0,-30,21,-123,43L283,368c0,0,-112,27,-160,75c0,0,-48,48,-48,135c0,0,0,112,80,178c0,0,81,66,218,66c0,0,140,0,222,-68c0,0,82,-67,88,-187H557c0,0,-6,67,-55,103c0,0,-48,37,-129,37c0,0,-84,0,-127,-29c0,0,-44,-29,-44,-85c0,0,0,-43,31,-65c0,0,30,-21,121,-43L493,452c0,0,117,-28,167,-78c0,0,49,-49,49,-138c0,0,0,-119,-86,-188c0,0,-85,-68,-230,-68Z" 
id="f1_2e"
transform="scale(0.001,-0.001)" />

<path d="M424,94c0,0,107,0,169,83c0,0,63,83,63,223c0,0,0,140,-63,224c0,0,-62,83,-169,83c0,0,-106,0,-168,-83c0,0,-62,-84,-62,-224c0,0,0,-140,62,-223c0,0,62,-83,168,-83Zm0,-114c0,0,-165,0,-268,115C156,95,54,211,54,400c0,0,0,189,102,306c0,0,103,116,268,116c0,0,168,0,270,-116c0,0,102,-117,102,-306c0,0,0,-189,-102,-305C694,95,592,-20,424,-20Z" 
id="f1_2a"
transform="scale(0.001,-0.001)" />

<path d="M375,-20c0,0,-136,0,-203,66c0,0,-68,68,-68,204V799H238V284c0,0,0,-101,38,-146c0,0,39,-44,127,-44c0,0,97,0,153,75c0,0,57,75,57,203V799H747V0H620V122c0,0,-14,-22,-30,-41C590,81,504,-20,375,-20Z" 
id="f1_2g"
transform="scale(0.001,-0.001)" />

<path d="M132,0V687H22V799H132V935c0,0,0,88,52,133c0,0,52,45,157,45l59,-3V989l-53,2c0,0,-39,0,-60,-24c0,0,-21,-25,-21,-71V799H400V687H266V0Z" 
id="f1_21"
transform="scale(0.001,-0.001)" />

<path d="M248,0L21,799H169L322,163L478,799H627L788,158L950,799h133L857,0H713L548,624L392,0Z" 
id="f1_2i"
transform="scale(0.001,-0.001)" />

<path d="M411,93c0,0,98,0,158,73c0,0,60,74,60,195c0,0,0,163,-57,252c0,0,-56,88,-161,88c0,0,-113,0,-165,-72c0,0,-52,-72,-52,-229c0,0,0,-147,56,-227c0,0,56,-80,161,-80ZM404,-20c0,0,-161,0,-255,118c0,0,-95,120,-95,324c0,0,0,179,92,290c0,0,91,110,239,110c0,0,147,0,233,-124l11,-15v414H763V0H638V109L621,84C621,84,538,-20,404,-20Z" 
id="f1_1z"
transform="scale(0.001,-0.001)" />

<path d="M406,93c0,0,97,0,156,73c0,0,59,74,59,195c0,0,0,163,-56,252c0,0,-55,88,-158,88c0,0,-111,0,-162,-72c0,0,-51,-73,-51,-229c0,0,0,-147,55,-227c0,0,55,-80,157,-80ZM621,-315V93l-7,-9C614,84,532,-20,400,-20c0,0,-159,0,-253,118c0,0,-93,119,-93,323c0,0,0,180,90,291c0,0,91,110,237,110c0,0,146,0,231,-124c0,0,10,-14,17,-29V799H755V-315Z" 
id="f1_2c"
transform="scale(0.001,-0.001)" />

<path d="M365,-315c0,0,-136,187,-199,359c0,0,-62,172,-62,359c0,0,0,186,62,358c0,0,63,172,199,360h92c0,0,-110,-192,-160,-365c0,0,-51,-172,-51,-353c0,0,0,-183,51,-355c0,0,50,-172,160,-363Z" 
id="f1_b"
transform="scale(0.001,-0.001)" />

<path d="M52,-315c0,0,109,192,160,363c0,0,50,173,50,354c0,0,0,183,-50,355c0,0,-51,173,-160,364h92c0,0,135,-188,198,-360c0,0,63,-172,63,-359c0,0,0,-187,-63,-359c0,0,-63,-171,-198,-358Z" 
id="f1_c"
transform="scale(0.001,-0.001)" />

<path d="M417,-28c0,0,-161,0,-259,79c0,0,-98,81,-109,223H189c0,0,11,-90,72,-139c0,0,61,-49,162,-49c0,0,96,0,158,68c0,0,61,68,61,175c0,0,0,112,-64,178c0,0,-64,66,-173,66c0,0,-59,0,-115,-28c0,0,-55,-29,-84,-73L93,480l77,573H727V922H271L225,629l4,3c0,0,89,60,188,60c0,0,169,0,269,-94c0,0,99,-93,99,-253c0,0,0,-165,-103,-269C682,76,579,-28,417,-28Z" 
id="f1_o"
transform="scale(0.001,-0.001)" />

<path d="M431,94c0,0,95,0,170,76c0,0,76,77,101,198c0,0,35,167,-1,250c0,0,-37,84,-144,84c0,0,-128,0,-210,-117c0,0,-81,-117,-81,-302c0,0,0,-90,43,-139c0,0,44,-50,122,-50ZM400,-20c0,0,-126,0,-199,79c0,0,-73,80,-73,219c0,0,0,234,122,390c0,0,122,155,305,155c0,0,144,0,209,-127l8,-16l86,417H993L767,0H638l22,108L642,90C642,90,532,-20,400,-20Z" 
id="f2_1z"
transform="scale(0.001,-0.001)" />

<path d="M99,-328c0,0,-46,0,-76,13l25,123c0,0,29,-14,81,-14c0,0,47,0,76,31c0,0,28,31,106,162L185,800H339L415,141L769,800H918L456,0C456,0,329,-216,269,-272c0,0,-61,-56,-170,-56Z" 
id="f2_2k"
transform="scale(0.001,-0.001)" />

<path d="M17,0L389,412L201,800H376L500,518L742,800H904L554,410L750,0H580L448,303L187,0Z" 
id="f2_2j"
transform="scale(0.001,-0.001)" />

<path d="M0,214v74H784V214ZM0,494v72H784V494Z" 
id="f3_x"
transform="scale(0.001,-0.001)" />

<path d="M355,0V355H0v72H355V784h72V427H782V355H427V0Z" 
id="f3_f"
transform="scale(0.001,-0.001)" />

<path d="M0,356v74H784V356Z" 
id="f3_h"
transform="scale(0.001,-0.001)" />

<path d="M748,462c0,0,3,31,3,63c0,0,0,86,-45,132c0,0,-46,45,-134,45c0,0,-100,0,-180,-85c0,0,-58,-63,-90,-155ZM419,-20c0,0,-136,0,-213,73c0,0,-77,74,-78,206c0,0,0,25,4,58c0,0,4,32,10,63c0,0,44,208,169,326c0,0,125,117,305,117c0,0,128,0,198,-73c0,0,71,-73,71,-207c0,0,1,-100,-24,-189H278l-4,-25c0,0,-3,-30,-3,-55c0,0,0,-90,44,-134c0,0,44,-45,133,-45c0,0,87,0,156,44c0,0,68,45,95,117H830C830,256,782,126,674,52c0,0,-108,-72,-255,-72Z" 
id="f2_20"
transform="scale(0.001,-0.001)" />

<path d="M390,-1V329H60V441H390V771H503V441H833V329H503V-1Z" 
id="f1_e"
transform="scale(0.001,-0.001)" />

<path d="M0,368V478H849V368Z" 
id="f1_99"
transform="scale(0.001,-0.001)" />

<path d="M60,174V286H832V174Zm0,309V595H832V483Z" 
id="f1_w"
transform="scale(0.001,-0.001)" />

<path d="M424,-28c0,0,-180,0,-272,86c0,0,-92,87,-100,266H192c0,0,12,-126,66,-180c0,0,55,-54,170,-54c0,0,100,0,163,57c0,0,64,57,64,147c0,0,0,94,-61,149c0,0,-52,48,-135,54c0,0,-38,2,-72,2c0,0,-34,0,-45,-3V613c0,0,17,-3,51,-3c0,0,35,0,68,4c0,0,66,8,106,43c0,0,55,45,55,125c0,0,0,77,-58,125c0,0,-58,48,-148,48c0,0,-96,0,-147,-58c0,0,-51,-59,-56,-175H82c0,0,0,168,89,260c0,0,88,93,250,93c0,0,153,0,247,-77c0,0,94,-76,94,-202c0,0,0,-124,-95,-201c0,0,-18,-15,-39,-27c0,0,39,-17,69,-41c0,0,101,-79,101,-214c0,0,0,-151,-105,-246c0,0,-104,-95,-269,-95Z" 
id="f1_m"
transform="scale(0.001,-0.001)" />

<path d="M310,0L12,799H168L383,145L604,799H752L454,0Z" 
id="f1_2h"
transform="scale(0.001,-0.001)" />

<path d="M406,0V763H155V870h2c16,0,114,2,178,48c0,0,70,51,104,157H549V0Z" 
id="f1_k"
transform="scale(0.001,-0.001)" />

<path d="M394,-20c0,0,-159,0,-253,113c0,0,-95,114,-95,307c0,0,0,193,98,308c0,0,98,114,264,114c0,0,144,0,230,-78c0,0,85,-79,91,-217H600c0,0,-8,86,-59,133c0,0,-52,47,-138,47c0,0,-101,0,-159,-82c0,0,-58,-82,-58,-225c0,0,0,-152,54,-229c0,0,53,-77,159,-77c0,0,79,0,132,50c0,0,52,51,69,143H729C729,287,709,137,623,58c0,0,-86,-78,-229,-78Z" 
id="f1_1y"
transform="scale(0.001,-0.001)" />

<path d="M511,373V863L169,383l-7,-10ZM511,0V258H38V383l496,691H646V373H799V258H646V0Z" 
id="f1_n"
transform="scale(0.001,-0.001)" />

<path d="M99,0V799H226V680l28,36c0,0,90,106,215,106c0,0,107,0,171,-63c0,0,28,-28,44,-65l21,28c0,0,87,100,208,100c0,0,125,0,194,-68c0,0,68,-68,68,-194V0H1041V515c0,0,0,91,-37,138c0,0,-38,47,-110,47c0,0,-87,0,-139,-68c0,0,-52,-68,-52,-183V0H569V547c0,0,0,75,-34,114c0,0,-34,39,-99,39c0,0,-89,0,-146,-76c0,0,-57,-76,-57,-196V0Z" 
id="f1_28"
transform="scale(0.001,-0.001)" />

<path d="M152,-323c-8,0,-38,1,-63,8v125c0,0,30,-11,77,-12c0,0,45,0,76,37c0,0,30,38,69,140l2,12v1L17,799H170L383,139L600,799H747L443,-25c0,0,-70,-184,-125,-241c0,0,-55,-57,-164,-57c0,0,-1,0,-2,0Z" 
id="f1_2k"
transform="scale(0.001,-0.001)" />

<path d="M780,449L714,934L435,449ZM22,0L673,1097H839L998,0H839L797,318H359L178,0Z" 
id="f2_10"
transform="scale(0.001,-0.001)" />

<path d="M617,129c0,0,118,0,194,71c0,0,75,70,75,182c0,0,1,59,-55,93c0,0,-56,34,-152,34H368L289,129Zm58,503c0,0,120,0,188,59c0,0,68,58,68,163c0,0,0,57,-50,85c0,0,-50,29,-146,29H462L393,632ZM113,0L340,1097H825c0,0,122,0,191,-55c0,0,69,-55,69,-153c0,0,0,-160,-113,-251c0,0,-35,-26,-77,-46c0,0,27,-12,52,-28c0,0,89,-61,89,-166c0,0,0,-171,-127,-285C909,113,782,0,591,0Z" 
id="f2_11"
transform="scale(0.001,-0.001)" />

<path d="M398,-20c0,0,-133,0,-209,72c0,0,-76,74,-76,202v3c0,0,0,27,4,60c0,0,4,33,10,63c0,0,43,208,168,326c0,0,126,117,306,117c0,0,131,0,192,-75c0,0,49,-61,50,-168l-3,-52H710c0,0,4,87,-33,131c0,0,-37,45,-113,45c0,0,-110,0,-184,-81c0,0,-75,-82,-107,-238c0,0,-6,-28,-9,-56c0,0,-3,-28,-3,-50c0,0,0,-88,43,-136c0,0,43,-48,121,-48c0,0,76,0,137,49c0,0,61,48,92,136H788C788,280,737,138,633,58c0,0,-103,-78,-235,-78Z" 
id="f2_1y"
transform="scale(0.001,-0.001)" />

<path d="M77,369l25,110H950L926,369Z" 
id="f2_99"
transform="scale(0.001,-0.001)" />

<path d="M354,90c0,0,107,0,192,57c0,0,60,41,87,95c0,0,5,12,11,33c0,0,6,20,11,44l18,88c0,0,-62,-26,-132,-37L414,352c0,0,-84,-11,-131,-56c0,0,-47,-45,-47,-113c0,0,0,-44,31,-69c0,0,31,-24,87,-24ZM306,-20c0,0,-99,0,-156,47c0,0,-57,49,-57,134c0,0,1,117,81,198c0,0,80,81,211,98l164,20l70,10c0,0,35,6,59,30c0,0,23,24,31,66l1,2c0,0,13,64,-25,94c0,0,-39,31,-132,31c0,0,-83,0,-137,-37c0,0,-54,-37,-84,-114H210c0,0,46,137,138,201c0,0,92,63,245,63c0,0,149,0,211,-59c0,0,45,-44,44,-116c0,0,1,-30,-6,-63L749,136c0,0,-4,-19,6,-32c0,0,10,-12,30,-12c0,0,6,0,19,1c0,0,12,2,25,5L809,1c0,0,-19,-6,-43,-11c0,0,-22,-5,-36,-5c0,0,-73,0,-100,43c0,0,-16,27,-17,75C612,102,594,85,573,69c0,0,-120,-89,-267,-89Z" 
id="f2_1w"
transform="scale(0.001,-0.001)" />

<path d="M456,95c0,0,130,0,213,121c0,0,82,120,82,310c0,0,0,85,-44,131c0,0,-44,46,-125,46c0,0,-98,0,-174,-90c0,0,-76,-90,-108,-245c0,0,-26,-126,16,-199c0,0,42,-74,140,-74ZM436,-20c0,0,-132,0,-195,108l-5,7L217,0H89L316,1097H450L365,683l10,11c0,0,120,129,262,129c0,0,121,0,190,-77c0,0,69,-77,69,-211c0,0,0,-234,-134,-395C762,140,629,-20,436,-20Z" 
id="f2_1x"
transform="scale(0.001,-0.001)" />

<path d="M419,483c0,0,93,0,152,66c0,0,59,66,59,169c0,0,0,103,-59,169c0,0,-59,65,-152,65c0,0,-94,0,-153,-65c0,0,-59,-66,-59,-169c0,0,0,-103,59,-169c0,0,59,-66,153,-66ZM397,-28c0,0,-143,0,-227,75c0,0,-85,77,-91,211H209c0,0,8,-83,57,-128c0,0,49,-45,131,-45c0,0,121,0,186,135c0,0,48,101,62,265C645,485,545,362,397,362c0,0,-150,0,-241,98c0,0,-91,98,-91,258c0,0,0,160,99,258c0,0,99,98,262,98c0,0,173,0,266,-123c0,0,94,-123,94,-349c0,0,0,-303,-101,-467C685,135,583,-28,397,-28Z" 
id="f1_s"
transform="scale(0.001,-0.001)" />

<path d="M424,92c0,0,114,0,170,107c0,0,57,108,56,323c0,0,1,216,-56,324c0,0,-56,107,-170,107c0,0,-112,0,-168,-107c0,0,-56,-108,-57,-324c0,0,1,-215,57,-323c0,0,56,-107,168,-107Zm0,-120c0,0,-176,0,-271,142c0,0,-96,143,-96,408c0,0,0,265,96,409c0,0,95,144,271,144c0,0,178,0,273,-144c0,0,96,-144,96,-409c0,0,0,-265,-96,-408c0,0,-95,-142,-273,-142Z" 
id="f1_j"
transform="scale(0.001,-0.001)" />

<path d="M46,0c0,0,-2,48,16,93c0,0,27,74,88,146c0,0,61,71,176,165c0,0,178,146,241,232c0,0,63,85,63,161c0,0,0,80,-57,135c0,0,-58,55,-149,55c0,0,-98,0,-156,-59c0,0,-58,-58,-59,-160L71,782c0,0,15,154,107,235c0,0,93,81,249,81c0,0,157,0,249,-87c0,0,92,-88,92,-217c0,0,0,-65,-27,-129c0,0,-27,-63,-89,-133c0,0,-62,-70,-207,-193C445,339,324,238,290,202c0,0,-35,-36,-57,-73H770V0Z" 
id="f4_m"
transform="scale(0.001,-0.001)" />

<path d="M125,0V1051H268V115H799V0Z" 
id="f0_1c"
transform="scale(0.001,-0.001)" />

<path d="M106,0V620c0,0,0,85,-5,188H228c0,0,6,-138,6,-165h3c0,0,32,103,74,141c0,0,42,38,118,38c0,0,27,0,54,-7V692c0,0,-26,7,-71,7c0,0,-84,0,-128,-72c0,0,-44,-72,-44,-206V0Z" 
id="f0_2e"
transform="scale(0.001,-0.001)" />

<path d="M606,-14c0,0,-164,0,-284,65c0,0,-119,66,-182,189c0,0,-63,123,-63,291c0,0,0,255,137,396c0,0,137,140,386,140c0,0,174,0,283,-59c0,0,109,-59,168,-189L915,779c0,0,-44,90,-123,131c0,0,-79,41,-196,41c0,0,-182,0,-278,-110c0,0,-96,-110,-96,-310c0,0,0,-200,102,-315c0,0,102,-115,282,-115c0,0,103,0,193,31c0,0,89,31,144,85V407H629V526h445V164c0,0,-83,-85,-205,-132c0,0,-121,-46,-263,-46Z" 
id="f0_17"
transform="scale(0.001,-0.001)" />

<path d="M355,-14c0,0,-133,0,-194,65c0,0,-62,66,-62,219V808H234V296c0,0,0,-80,16,-124c0,0,16,-44,50,-64c0,0,34,-19,101,-19c0,0,97,0,153,66c0,0,55,67,55,185V808H744V172c0,0,0,-141,4,-172H621c0,0,0,4,-1,20c0,0,-1,17,-2,38c0,0,-1,21,-3,80h-2C613,138,567,55,506,20c0,0,-61,-34,-151,-34Z" 
id="f0_2h"
transform="scale(0.001,-0.001)" />

<path d="M395,89c0,0,115,0,166,79c0,0,51,79,51,246c0,0,0,160,-51,235c0,0,-51,75,-164,75c0,0,-102,0,-147,-75c0,0,-45,-75,-45,-244c0,0,0,-170,45,-243c0,0,45,-73,145,-73ZM361,-14c0,0,-153,0,-225,102c0,0,-72,103,-72,312c0,0,0,422,297,422c0,0,92,0,153,-33c0,0,61,-34,98,-107h2l-2,90v335H747V166c0,0,0,-126,4,-166H623c0,0,-2,12,-5,55c0,0,-3,44,-3,75h-3c0,0,-37,-78,-98,-111c0,0,-62,-33,-153,-33Z" 
id="f0_20"
transform="scale(0.001,-0.001)" />

<path d="M140,0V163H285V0Z" 
id="f0_i"
transform="scale(0.001,-0.001)" />


</defs>
</svg>