<?xml version="1.0" encoding="UTF-8" standalone="no"?>
<!DOCTYPE svg PUBLIC "-//W3C//DTD SVG 1.1//EN"
"http://www.w3.org/Graphics/SVG/1.1/DTD/svg11.dtd">
<svg viewBox="0 0 692 1111" version="1.1" xmlns="http://www.w3.org/2000/svg" xmlns:xlink="http://www.w3.org/1999/xlink">
<defs>
<style type="text/css"><![CDATA[
.g0_8{
fill: none;
stroke: #000000;
stroke-width: 0.15277778;
stroke-linecap: round;
stroke-linejoin: miter;
}
.g1_8{
}
.g2_8{
fill: none;
stroke: #000000;
stroke-width: 0.7668222;
stroke-linecap: round;
stroke-linejoin: miter;
}
.g3_8{
fill: none;
stroke: #000000;
stroke-width: 0.7638889;
stroke-linecap: round;
stroke-linejoin: miter;
}
.g4_8{
fill: none;
stroke: #000000;
stroke-width: 0.7604667;
stroke-linecap: round;
stroke-linejoin: miter;
}
.g5_8{
fill: none;
stroke: #000000;
stroke-width: 0.7670667;
stroke-linecap: round;
stroke-linejoin: miter;
}
.g6_8{
fill: none;
stroke: #000000;
stroke-width: 0.76217777;
stroke-linecap: round;
stroke-linejoin: miter;
}
]]></style>
</defs>
<g fill="#D4D4D4" fill-opacity="0.56" >
<use xlink:href="#f0_1f" transform="matrix(50.9,-50.9,50.9,50.9,81.1,924.1)" />
<use xlink:href="#f0_2a" transform="matrix(50.9,-50.9,50.9,50.9,141.6,863.6)" />
<use xlink:href="#f0_28" transform="matrix(50.9,-50.9,50.9,50.9,184.9,820.3)" />
<use xlink:href="#f0_25" transform="matrix(50.9,-50.9,50.9,50.9,202.1,803.1)" />
<use xlink:href="#f0_2a" transform="matrix(50.9,-50.9,50.9,50.9,219.4,785.8)" />
<use xlink:href="#f0_21" transform="matrix(50.9,-50.9,50.9,50.9,262.7,742.5)" />
<use xlink:href="#f0_2k" transform="matrix(50.9,-50.9,50.9,50.9,305.9,699.3)" />
<use xlink:href="#f0_1x" transform="matrix(50.9,-50.9,50.9,50.9,344.8,660.4)" />
<use xlink:href="#f0_29" transform="matrix(50.9,-50.9,50.9,50.9,388,617.2)" />
<use xlink:href="#f0_2c" transform="matrix(50.9,-50.9,50.9,50.9,452.8,552.4)" />
<use xlink:href="#f0_2b" transform="matrix(50.9,-50.9,50.9,50.9,496.1,509.1)" />
<use xlink:href="#f0_25" transform="matrix(50.9,-50.9,50.9,50.9,539.3,465.9)" />
<use xlink:href="#f0_2a" transform="matrix(50.9,-50.9,50.9,50.9,556.6,448.6)" />
<use xlink:href="#f0_2g" transform="matrix(50.9,-50.9,50.9,50.9,599.8,405.4)" />
</g>
<g fill="#000000" >
<use xlink:href="#f1_1l" transform="matrix(12,0,0,12,80.9,251.3)" />
<use xlink:href="#f1_14" transform="matrix(12,0,0,12,94.8,251.3)" />
<use xlink:href="#f1_1h" transform="matrix(12,0,0,12,105.9,251.3)" />
<use xlink:href="#f1_1o" transform="matrix(12,0,0,12,118.8,251.3)" />
<use xlink:href="#f1_1i" transform="matrix(12,0,0,12,141.2,251.3)" />
<use xlink:href="#f1_17" transform="matrix(12,0,0,12,151,251.3)" />
<use xlink:href="#f1_1e" transform="matrix(12,0,0,12,165.9,251.3)" />
<use xlink:href="#f1_1h" transform="matrix(12,0,0,12,182.5,251.3)" />
<use xlink:href="#f1_1j" transform="matrix(12,0,0,12,195.3,251.3)" />
<use xlink:href="#f1_10" transform="matrix(12,0,0,12,216.9,251.3)" />
<use xlink:href="#f1_1d" transform="matrix(12,0,0,12,231.1,251.3)" />
<use xlink:href="#f1_1i" transform="matrix(12,0,0,12,246.6,251.3)" />
<use xlink:href="#f1_1m" transform="matrix(12,0,0,12,256.5,251.3)" />
<use xlink:href="#f1_14" transform="matrix(12,0,0,12,274.4,251.3)" />
<use xlink:href="#f1_1h" transform="matrix(12,0,0,12,285.5,251.3)" />
<use xlink:href="#f1_1j" transform="matrix(12,0,0,12,308.6,251.3)" />
<use xlink:href="#f1_1o" transform="matrix(12,0,0,12,320.1,251.3)" />
<use xlink:href="#f1_1f" transform="matrix(12,0,0,12,332.3,251.3)" />
<use xlink:href="#f1_14" transform="matrix(12,0,0,12,344.1,251.3)" />
<use xlink:href="#f1_1g" transform="matrix(12,0,0,12,365.6,251.3)" />
<use xlink:href="#f1_1k" transform="matrix(12,0,0,12,382.1,251.3)" />
<use xlink:href="#f1_14" transform="matrix(12,0,0,12,397,251.3)" />
<use xlink:href="#f1_1i" transform="matrix(12,0,0,12,408.1,251.3)" />
<use xlink:href="#f1_1j" transform="matrix(12,0,0,12,418,251.3)" />
<use xlink:href="#f1_18" transform="matrix(12,0,0,12,429.5,251.3)" />
<use xlink:href="#f1_1e" transform="matrix(12,0,0,12,436.5,251.3)" />
<use xlink:href="#f1_1d" transform="matrix(12,0,0,12,453.1,251.3)" />
<use xlink:href="#f1_1i" transform="matrix(12,0,0,12,468.6,251.3)" />
<use xlink:href="#f1_b" transform="matrix(12,0,0,12,488.5,251.3)" />
<use xlink:href="#f1_k" transform="matrix(12,0,0,12,497.7,251.3)" />
<use xlink:href="#f1_1c" transform="matrix(12,0,0,12,520.1,251.3)" />
<use xlink:href="#f1_10" transform="matrix(12,0,0,12,538,251.3)" />
<use xlink:href="#f1_1h" transform="matrix(12,0,0,12,552.2,251.3)" />
<use xlink:href="#f1_1a" transform="matrix(12,0,0,12,565.1,251.3)" />
<use xlink:href="#f1_c" transform="matrix(12,0,0,12,578.6,251.3)" />
<use xlink:href="#f2_k" transform="matrix(10.4,0,0,10.4,68.8,290.5)" />
<use xlink:href="#f2_h" transform="matrix(10.4,0,0,10.4,77.7,290.5)" />
<use xlink:href="#f2_1m" transform="matrix(10.4,0,0,10.4,100.5,290.5)" />
<use xlink:href="#f2_2d" transform="matrix(10.4,0,0,10.4,115.6,290.5)" />
<use xlink:href="#f2_24" transform="matrix(10.4,0,0,10.4,120.9,290.5)" />
<use xlink:href="#f2_2f" transform="matrix(10.4,0,0,10.4,124.5,290.5)" />
<use xlink:href="#f2_20" transform="matrix(10.4,0,0,10.4,128.9,290.5)" />
<use xlink:href="#f2_2f" transform="matrix(10.4,0,0,10.4,145.1,290.5)" />
<use xlink:href="#f2_23" transform="matrix(10.4,0,0,10.4,149.5,290.5)" />
<use xlink:href="#f2_20" transform="matrix(10.4,0,0,10.4,158.4,290.5)" />
<use xlink:href="#f2_2b" transform="matrix(10.4,0,0,10.4,174.6,290.5)" />
<use xlink:href="#f2_2d" transform="matrix(10.4,0,0,10.4,183.5,290.5)" />
<use xlink:href="#f2_24" transform="matrix(10.4,0,0,10.4,188.8,290.5)" />
<use xlink:href="#f2_29" transform="matrix(10.4,0,0,10.4,192.3,290.5)" />
<use xlink:href="#f2_1y" transform="matrix(10.4,0,0,10.4,201.2,290.5)" />
<use xlink:href="#f2_24" transform="matrix(10.4,0,0,10.4,209.2,290.5)" />
<use xlink:href="#f2_2b" transform="matrix(10.4,0,0,10.4,212.7,290.5)" />
<use xlink:href="#f2_1w" transform="matrix(10.4,0,0,10.4,221.6,290.5)" />
<use xlink:href="#f2_27" transform="matrix(10.4,0,0,10.4,230.4,290.5)" />
<use xlink:href="#f2_2h" transform="matrix(10.4,0,0,10.4,241.5,290.5)" />
<use xlink:href="#f2_1w" transform="matrix(10.4,0,0,10.4,249.5,290.5)" />
<use xlink:href="#f2_27" transform="matrix(10.4,0,0,10.4,258.3,290.5)" />
<use xlink:href="#f2_2g" transform="matrix(10.4,0,0,10.4,261.9,290.5)" />
<use xlink:href="#f2_20" transform="matrix(10.4,0,0,10.4,270.8,290.5)" />
<use xlink:href="#f2_2a" transform="matrix(10.4,0,0,10.4,287,290.5)" />
<use xlink:href="#f2_21" transform="matrix(10.4,0,0,10.4,295.8,290.5)" />
<use xlink:href="#f2_b" transform="matrix(10.4,0,0,10.4,123.1,338.6)" />
<use xlink:href="#f2_24" transform="matrix(10.4,0,0,10.4,128.4,338.6)" />
<use xlink:href="#f2_c" transform="matrix(10.4,0,0,10.4,131.9,338.6)" />
</g>
<path d="M214.7,334.1l1.6,-.9l4,6.5l4.2,-17.2h10" class="g0_8" />
<path fill-rule="evenodd" d="M214.6,333.9l2.1,-1.2l3.6,5.4l3.9,-16h10.3v.8h-9.7l-4.2,16.8h-.7l-4,-6l-1.1,.6l-.2,-.4Z" class="g1_8" />
<path d="M241.8,322.1l-6.3,19.8" class="g2_8" />
<g fill="#000000" >
<use xlink:href="#f3_c" transform="matrix(10.6,0,0,16.8,196.9,338.1)" />
<use xlink:href="#f3_d" transform="matrix(10.6,0,0,16.8,252.1,338.1)" />
<use xlink:href="#f2_99" transform="matrix(8.1,0,0,8,179.5,328.6)" />
<use xlink:href="#f2_k" transform="matrix(8.1,0,0,8,186.3,328.6)" />
<use xlink:href="#f2_2e" transform="matrix(10.7,0,0,10.7,158.1,338.3)" />
<use xlink:href="#f2_24" transform="matrix(10.7,0,0,10.7,166.4,338.3)" />
<use xlink:href="#f2_29" transform="matrix(10.7,0,0,10.7,170.2,338.3)" />
<use xlink:href="#f2_99" transform="matrix(10.7,0,0,10.7,204.3,338.3)" />
<use xlink:href="#f2_m" transform="matrix(10.7,0,0,10.7,225,338.3)" />
<use xlink:href="#f2_l" transform="matrix(10.7,0,0,10.7,241.8,338.3)" />
<use xlink:href="#f2_b" transform="matrix(10.4,0,0,10.4,394.4,338.5)" />
<use xlink:href="#f2_24" transform="matrix(10.4,0,0,10.4,399.7,338.5)" />
<use xlink:href="#f2_24" transform="matrix(10.4,0,0,10.4,403.3,338.5)" />
<use xlink:href="#f2_c" transform="matrix(10.4,0,0,10.4,406.8,338.5)" />
</g>
<path d="M484.2,334.5l1.6,-.9l3.9,6.4l4.2,-17.1H504" class="g0_8" />
<path fill-rule="evenodd" d="M484.1,334.3l2.1,-1.3l3.5,5.5l4,-16H504v.7h-9.8L490.1,340h-.7l-4,-5.9l-1.1,.6l-.2,-.4Z" class="g1_8" />
<path d="M511.2,322.5l-6.3,19.7" class="g3_8" />
<g fill="#000000" >
<use xlink:href="#f3_c" transform="matrix(10.7,0,0,16.8,476.8,338.5)" />
<use xlink:href="#f3_d" transform="matrix(10.7,0,0,16.8,521.5,338.5)" />
<use xlink:href="#f2_99" transform="matrix(8,0,0,8,459.4,328.9)" />
<use xlink:href="#f2_k" transform="matrix(8,0,0,8,466.2,328.9)" />
<use xlink:href="#f2_1y" transform="matrix(10.7,0,0,10.7,433,338.7)" />
<use xlink:href="#f2_2a" transform="matrix(10.7,0,0,10.7,441.3,338.7)" />
<use xlink:href="#f2_2e" transform="matrix(10.7,0,0,10.7,450.6,338.7)" />
<use xlink:href="#f2_m" transform="matrix(10.7,0,0,10.7,494.5,338.7)" />
<use xlink:href="#f2_l" transform="matrix(10.7,0,0,10.7,511.2,338.7)" />
<use xlink:href="#f2_h" transform="matrix(10.7,0,0,10.7,529.6,338.7)" />
<use xlink:href="#f2_b" transform="matrix(10.4,0,0,10.4,115.9,394.1)" />
<use xlink:href="#f2_24" transform="matrix(10.4,0,0,10.4,121.3,394.1)" />
<use xlink:href="#f2_24" transform="matrix(10.4,0,0,10.4,124.8,394.1)" />
<use xlink:href="#f2_24" transform="matrix(10.4,0,0,10.4,128.3,394.1)" />
<use xlink:href="#f2_c" transform="matrix(10.4,0,0,10.4,131.9,394.1)" />
</g>
<path d="M224.1,405.1l1.6,-.9l3.9,6.5l4.1,-17.1h10" class="g0_8" />
<path fill-rule="evenodd" d="M224,404.9l2,-1.2l3.6,5.4l3.9,-15.9h10.2v.7H234l-4.1,16.8h-.7l-3.9,-6l-1.1,.7l-.2,-.5Z" class="g1_8" />
<path d="M222.7,389.3H245" class="g4_8" />
<g fill="#000000" >
<use xlink:href="#f2_99" transform="matrix(8,0,0,7.9,181.6,383.9)" />
<use xlink:href="#f2_k" transform="matrix(8,0,0,7.9,188.4,383.9)" />
<use xlink:href="#f2_k" transform="matrix(10.6,0,0,10.6,230.1,383.1)" />
<use xlink:href="#f2_2f" transform="matrix(10.6,0,0,10.6,158.4,393.6)" />
<use xlink:href="#f2_1w" transform="matrix(10.6,0,0,10.6,163.1,393.6)" />
<use xlink:href="#f2_29" transform="matrix(10.6,0,0,10.6,172.4,393.6)" />
<use xlink:href="#f2_99" transform="matrix(10.6,0,0,10.6,208.6,393.6)" />
<use xlink:href="#f2_m" transform="matrix(10.6,0,0,10.6,234.2,409.3)" />
<use xlink:href="#f3_4o" transform="matrix(10.6,0,0,10.6,198.9,384.3)" />
<use xlink:href="#f3_54" transform="matrix(10.6,0,0,10.6,246.6,384.3)" />
<use xlink:href="#f3_4p" transform="matrix(10.6,0,0,10.6,198.9,400.3)" />
<use xlink:href="#f3_55" transform="matrix(10.6,0,0,10.6,246.6,400.3)" />
<use xlink:href="#f3_4q" transform="matrix(10.6,0,0,10.6,198.9,407)" />
<use xlink:href="#f3_56" transform="matrix(10.6,0,0,10.6,246.6,407)" />
<use xlink:href="#f2_b" transform="matrix(10.4,0,0,10.4,389.8,394.1)" />
<use xlink:href="#f2_24" transform="matrix(10.4,0,0,10.4,395.2,394.1)" />
<use xlink:href="#f2_2h" transform="matrix(10.4,0,0,10.4,398.7,394.1)" />
<use xlink:href="#f2_c" transform="matrix(10.4,0,0,10.4,406.7,394.1)" />
<use xlink:href="#f2_1y" transform="matrix(10.4,0,0,10.4,430.5,394.1)" />
<use xlink:href="#f2_2a" transform="matrix(10.4,0,0,10.4,438.5,394.1)" />
<use xlink:href="#f2_2e" transform="matrix(10.4,0,0,10.4,447.4,394.1)" />
<use xlink:href="#f2_20" transform="matrix(10.4,0,0,10.4,455.4,394.1)" />
<use xlink:href="#f2_1y" transform="matrix(10.4,0,0,10.4,464.2,394.1)" />
<use xlink:href="#f2_99" transform="matrix(7.4,0,0,7.4,472.3,388.8)" />
<use xlink:href="#f2_k" transform="matrix(7.4,0,0,7.4,478.7,388.8)" />
<use xlink:href="#f2_b" transform="matrix(10.4,0,0,10.4,492,394.1)" />
<use xlink:href="#f2_99" transform="matrix(10.4,0,0,10.4,497.3,394.1)" />
<use xlink:href="#f2_l" transform="matrix(10.4,0,0,10.4,513.5,394.1)" />
<use xlink:href="#f2_c" transform="matrix(10.4,0,0,10.4,522.3,394.1)" />
<use xlink:href="#f2_h" transform="matrix(10.4,0,0,10.4,527.7,394.1)" />
<use xlink:href="#f2_b" transform="matrix(10.4,0,0,10.4,118.5,464.9)" />
<use xlink:href="#f2_2h" transform="matrix(10.4,0,0,10.4,123.8,464.9)" />
<use xlink:href="#f2_c" transform="matrix(10.4,0,0,10.4,132.1,464.9)" />
</g>
<path d="M209.7,476.4l1.6,-.9l3.9,6.5l4.3,-17.1h10" class="g0_8" />
<path fill-rule="evenodd" d="M209.6,476.2l2.1,-1.2l3.5,5.4l4,-15.9h10.3v.8h-9.7L215.6,482h-.7l-4,-6l-1.1,.7l-.2,-.5Z" class="g1_8" />
<path d="M208.3,460.6h22.5" class="g5_8" />
<g fill="#000000" >
<use xlink:href="#f2_99" transform="matrix(7.9,0,0,7.9,181.1,455.2)" />
<use xlink:href="#f2_k" transform="matrix(7.9,0,0,7.9,188.1,455.2)" />
<use xlink:href="#f2_k" transform="matrix(10.6,0,0,10.6,215.8,454.4)" />
<use xlink:href="#f2_1y" transform="matrix(10.6,0,0,10.6,158.1,464.9)" />
<use xlink:href="#f2_2a" transform="matrix(10.6,0,0,10.6,166.5,464.9)" />
<use xlink:href="#f2_2f" transform="matrix(10.6,0,0,10.6,175.8,464.9)" />
<use xlink:href="#f2_h" transform="matrix(10.6,0,0,10.6,243.7,464.9)" />
<use xlink:href="#f2_m" transform="matrix(10.6,0,0,10.6,220,480.6)" />
<use xlink:href="#f3_4o" transform="matrix(10.6,0,0,10.6,198.6,455.6)" />
<use xlink:href="#f3_54" transform="matrix(10.6,0,0,10.6,232.5,455.6)" />
<use xlink:href="#f3_4p" transform="matrix(10.6,0,0,10.6,198.6,471.7)" />
<use xlink:href="#f3_55" transform="matrix(10.6,0,0,10.6,232.5,471.7)" />
<use xlink:href="#f3_4q" transform="matrix(10.6,0,0,10.6,198.6,478.3)" />
<use xlink:href="#f3_56" transform="matrix(10.6,0,0,10.6,232.5,478.3)" />
<use xlink:href="#f2_b" transform="matrix(10.4,0,0,10.4,389.8,464.9)" />
<use xlink:href="#f2_2h" transform="matrix(10.4,0,0,10.4,395.2,464.9)" />
<use xlink:href="#f2_24" transform="matrix(10.4,0,0,10.4,403.4,464.9)" />
<use xlink:href="#f2_c" transform="matrix(10.4,0,0,10.4,406.9,464.9)" />
<use xlink:href="#f2_2e" transform="matrix(10.4,0,0,10.4,430.5,464.9)" />
<use xlink:href="#f2_20" transform="matrix(10.4,0,0,10.4,438.5,464.9)" />
<use xlink:href="#f2_1y" transform="matrix(10.4,0,0,10.4,447.4,464.9)" />
<use xlink:href="#f2_99" transform="matrix(7.4,0,0,7.4,455.5,459.5)" />
<use xlink:href="#f2_k" transform="matrix(7.4,0,0,7.4,461.8,459.5)" />
<use xlink:href="#f2_b" transform="matrix(10.4,0,0,10.4,474.9,464.9)" />
<use xlink:href="#f2_99" transform="matrix(10.4,0,0,10.4,480.2,464.9)" />
<use xlink:href="#f2_l" transform="matrix(10.4,0,0,10.4,496.2,464.9)" />
<use xlink:href="#f2_c" transform="matrix(10.4,0,0,10.4,505.1,464.9)" />
<use xlink:href="#f2_h" transform="matrix(10.4,0,0,10.4,510.4,464.9)" />
<use xlink:href="#f2_b" transform="matrix(10.4,0,0,10.4,111.3,543.7)" />
<use xlink:href="#f2_2h" transform="matrix(10.4,0,0,10.4,116.7,543.7)" />
<use xlink:href="#f2_24" transform="matrix(10.4,0,0,10.4,124.6,543.7)" />
<use xlink:href="#f2_24" transform="matrix(10.4,0,0,10.4,128.2,543.7)" />
<use xlink:href="#f2_c" transform="matrix(10.4,0,0,10.4,131.7,543.7)" />
</g>
<path d="M216.8,529.3l1.6,-.9l3.9,6.3l4.2,-16.9h10.1" class="g0_8" />
<path fill-rule="evenodd" d="M216.7,529.1l2.1,-1.3l3.5,5.4l4,-15.8h10.3v.8h-9.8l-4.1,16.5H222l-4,-5.8l-1.1,.6l-.2,-.4Z" class="g1_8" />
<path d="M442.3,539.7l1.7,-.9l3.9,6.4l4.2,-17h10" class="g0_8" />
<path fill-rule="evenodd" d="M442.2,539.5l2.1,-1.3l3.6,5.4l3.9,-15.8h10.3v.8h-9.7l-4.1,16.6h-.8l-3.9,-5.9l-1.1,.6l-.3,-.4Z" class="g1_8" />
<path d="M440.6,527.8l-6.2,19.5" class="g3_8" />
<g fill="#000000" >
<use xlink:href="#f3_c" transform="matrix(10.5,0,0,16.6,411.9,543.6)" />
<use xlink:href="#f3_d" transform="matrix(10.5,0,0,16.6,464.2,543.6)" />
<use xlink:href="#f3_h" transform="matrix(7.9,0,0,7.9,178.6,534.2)" />
<use xlink:href="#f3_h" transform="matrix(7.9,0,0,7.9,295.7,534.2)" />
<use xlink:href="#f3_h" transform="matrix(7.9,0,0,7.9,394.8,534.2)" />
<use xlink:href="#f3_4o" transform="matrix(10.5,0,0,10.5,195.8,531.1)" />
<use xlink:href="#f3_54" transform="matrix(10.5,0,0,10.5,239.2,531.1)" />
<use xlink:href="#f3_h" transform="matrix(10.5,0,0,10.5,206.6,533.4)" />
<use xlink:href="#f3_h" transform="matrix(10.5,0,0,10.5,323.7,533.4)" />
<use xlink:href="#f3_4o" transform="matrix(10.5,0,0,10.5,312.9,534.5)" />
<use xlink:href="#f3_54" transform="matrix(10.5,0,0,10.5,341.4,534.5)" />
<use xlink:href="#f3_f" transform="matrix(10.5,0,0,10.5,253.7,543.8)" />
<use xlink:href="#f3_f" transform="matrix(10.5,0,0,10.5,355.9,543.8)" />
<use xlink:href="#f3_h" transform="matrix(10.5,0,0,10.5,419.1,543.8)" />
<use xlink:href="#f3_4p" transform="matrix(10.5,0,0,10.5,195.8,549)" />
<use xlink:href="#f3_55" transform="matrix(10.5,0,0,10.5,239.2,549)" />
<use xlink:href="#f3_4p" transform="matrix(10.5,0,0,10.5,312.9,549.2)" />
<use xlink:href="#f3_55" transform="matrix(10.5,0,0,10.5,341.4,549.2)" />
<use xlink:href="#f3_4q" transform="matrix(10.5,0,0,10.5,195.8,555.8)" />
<use xlink:href="#f3_56" transform="matrix(10.5,0,0,10.5,239.2,555.8)" />
<use xlink:href="#f3_4q" transform="matrix(10.5,0,0,10.5,312.9,555.8)" />
<use xlink:href="#f3_56" transform="matrix(10.5,0,0,10.5,341.4,555.8)" />
<use xlink:href="#f2_k" transform="matrix(7.9,0,0,7.9,185.4,534.2)" />
<use xlink:href="#f2_k" transform="matrix(7.9,0,0,7.9,302.4,534.2)" />
<use xlink:href="#f2_k" transform="matrix(7.9,0,0,7.9,401.6,534.2)" />
<use xlink:href="#f2_m" transform="matrix(10.5,0,0,10.5,226.7,533.4)" />
<use xlink:href="#f2_k" transform="matrix(10.5,0,0,10.5,332.7,533.4)" />
<use xlink:href="#f2_2e" transform="matrix(10.5,0,0,10.5,157.7,543.8)" />
<use xlink:href="#f2_24" transform="matrix(10.5,0,0,10.5,166,543.8)" />
<use xlink:href="#f2_29" transform="matrix(10.5,0,0,10.5,169.8,543.8)" />
<use xlink:href="#f2_1y" transform="matrix(10.5,0,0,10.5,269.4,543.8)" />
<use xlink:href="#f2_2a" transform="matrix(10.5,0,0,10.5,277.8,543.8)" />
<use xlink:href="#f2_2e" transform="matrix(10.5,0,0,10.5,287.1,543.8)" />
<use xlink:href="#f2_2f" transform="matrix(10.5,0,0,10.5,371.9,543.8)" />
<use xlink:href="#f2_1w" transform="matrix(10.5,0,0,10.5,376.7,543.8)" />
<use xlink:href="#f2_29" transform="matrix(10.5,0,0,10.5,386,543.8)" />
<use xlink:href="#f2_k" transform="matrix(10.5,0,0,10.5,428.1,543.8)" />
<use xlink:href="#f2_m" transform="matrix(10.5,0,0,10.5,452.7,543.8)" />
<use xlink:href="#f2_l" transform="matrix(10.5,0,0,10.5,217.2,559.4)" />
<use xlink:href="#f2_l" transform="matrix(10.5,0,0,10.5,326.8,559.4)" />
<use xlink:href="#f2_l" transform="matrix(10.4,0,0,10.4,123.8,597.4)" />
<use xlink:href="#f2_h" transform="matrix(10.4,0,0,10.4,132.7,597.4)" />
<use xlink:href="#f2_1m" transform="matrix(10.4,0,0,10.4,155.5,597.4)" />
<use xlink:href="#f2_23" transform="matrix(10.4,0,0,10.4,170.6,597.4)" />
<use xlink:href="#f2_1w" transform="matrix(10.4,0,0,10.4,179.5,597.4)" />
<use xlink:href="#f2_2f" transform="matrix(10.4,0,0,10.4,188.3,597.4)" />
<use xlink:href="#f2_24" transform="matrix(10.4,0,0,10.4,200.1,597.4)" />
<use xlink:href="#f2_2e" transform="matrix(10.4,0,0,10.4,203.6,597.4)" />
<use xlink:href="#f2_2h" transform="matrix(10.4,0,0,10.4,219,597.4)" />
<use xlink:href="#f2_1w" transform="matrix(10.4,0,0,10.4,226.9,597.4)" />
<use xlink:href="#f2_27" transform="matrix(10.4,0,0,10.4,235.8,597.4)" />
<use xlink:href="#f2_2g" transform="matrix(10.4,0,0,10.4,239.3,597.4)" />
<use xlink:href="#f2_20" transform="matrix(10.4,0,0,10.4,248.2,597.4)" />
<use xlink:href="#f2_2a" transform="matrix(10.4,0,0,10.4,264.6,597.4)" />
<use xlink:href="#f2_21" transform="matrix(10.4,0,0,10.4,273.5,597.4)" />
<use xlink:href="#f2_2f" transform="matrix(10.4,0,0,10.4,285.2,597.4)" />
<use xlink:href="#f2_23" transform="matrix(10.4,0,0,10.4,289.7,597.4)" />
<use xlink:href="#f2_20" transform="matrix(10.4,0,0,10.4,298.5,597.4)" />
<use xlink:href="#f2_21" transform="matrix(10.4,0,0,10.4,314.7,597.4)" />
<use xlink:href="#f2_2a" transform="matrix(10.4,0,0,10.4,319.2,597.4)" />
<use xlink:href="#f2_27" transform="matrix(10.4,0,0,10.4,328,597.4)" />
<use xlink:href="#f2_27" transform="matrix(10.4,0,0,10.4,331.6,597.4)" />
<use xlink:href="#f2_2a" transform="matrix(10.4,0,0,10.4,335.1,597.4)" />
<use xlink:href="#f2_2i" transform="matrix(10.4,0,0,10.4,344,597.4)" />
<use xlink:href="#f2_24" transform="matrix(10.4,0,0,10.4,355.5,597.4)" />
<use xlink:href="#f2_29" transform="matrix(10.4,0,0,10.4,359.1,597.4)" />
<use xlink:href="#f2_22" transform="matrix(10.4,0,0,10.4,367.9,597.4)" />
<use xlink:href="#f2_21" transform="matrix(10.4,0,0,10.4,384.1,597.4)" />
<use xlink:href="#f2_2g" transform="matrix(10.4,0,0,10.4,388.6,597.4)" />
<use xlink:href="#f2_29" transform="matrix(10.4,0,0,10.4,397.4,597.4)" />
<use xlink:href="#f2_1y" transform="matrix(10.4,0,0,10.4,406.3,597.4)" />
<use xlink:href="#f2_2f" transform="matrix(10.4,0,0,10.4,414.3,597.4)" />
<use xlink:href="#f2_24" transform="matrix(10.4,0,0,10.4,418.7,597.4)" />
<use xlink:href="#f2_2a" transform="matrix(10.4,0,0,10.4,422.3,597.4)" />
<use xlink:href="#f2_29" transform="matrix(10.4,0,0,10.4,431.1,597.4)" />
<use xlink:href="#f2_2e" transform="matrix(10.4,0,0,10.4,440,597.4)" />
<use xlink:href="#f2_b" transform="matrix(10.4,0,0,10.4,455.5,597.4)" />
<use xlink:href="#f2_2g" transform="matrix(10.4,0,0,10.4,460.8,597.4)" />
<use xlink:href="#f2_2e" transform="matrix(10.4,0,0,10.4,469.7,597.4)" />
<use xlink:href="#f2_24" transform="matrix(10.4,0,0,10.4,477.6,597.4)" />
<use xlink:href="#f2_29" transform="matrix(10.4,0,0,10.4,481.2,597.4)" />
<use xlink:href="#f2_22" transform="matrix(10.4,0,0,10.4,490,597.4)" />
<use xlink:href="#f2_2b" transform="matrix(10.4,0,0,10.4,506.2,597.4)" />
<use xlink:href="#f2_2d" transform="matrix(10.4,0,0,10.4,515.1,597.4)" />
<use xlink:href="#f2_24" transform="matrix(10.4,0,0,10.4,520.4,597.4)" />
<use xlink:href="#f2_29" transform="matrix(10.4,0,0,10.4,524,597.4)" />
<use xlink:href="#f2_1y" transform="matrix(10.4,0,0,10.4,532.8,597.4)" />
<use xlink:href="#f2_24" transform="matrix(10.4,0,0,10.4,540.8,597.4)" />
<use xlink:href="#f2_2b" transform="matrix(10.4,0,0,10.4,544.4,597.4)" />
<use xlink:href="#f2_1w" transform="matrix(10.4,0,0,10.4,553.2,597.4)" />
<use xlink:href="#f2_27" transform="matrix(10.4,0,0,10.4,562.1,597.4)" />
<use xlink:href="#f2_2h" transform="matrix(10.4,0,0,10.4,573,597.4)" />
<use xlink:href="#f2_1w" transform="matrix(10.4,0,0,10.4,580.9,597.4)" />
<use xlink:href="#f2_27" transform="matrix(10.4,0,0,10.4,589.8,597.4)" />
<use xlink:href="#f2_2g" transform="matrix(10.4,0,0,10.4,593.4,597.4)" />
<use xlink:href="#f2_20" transform="matrix(10.4,0,0,10.4,602.2,597.4)" />
<use xlink:href="#f2_c" transform="matrix(10.4,0,0,10.4,611.1,597.4)" />
<use xlink:href="#f2_h" transform="matrix(10.4,0,0,10.4,616.4,597.4)" />
<use xlink:href="#f2_b" transform="matrix(10.4,0,0,10.4,123.1,656.3)" />
<use xlink:href="#f2_24" transform="matrix(10.4,0,0,10.4,128.4,656.3)" />
<use xlink:href="#f2_c" transform="matrix(10.4,0,0,10.4,131.9,656.3)" />
</g>
<path d="M210,666.9l1.7,-.9l3.9,6.5l4.2,-17.1h10" class="g0_8" />
<path fill-rule="evenodd" d="M210,666.7l2,-1.2l3.6,5.4L219.5,655h10.3v.7H220l-4,16.8h-.8l-3.9,-6l-1.1,.7l-.2,-.5Z" class="g1_8" />
<path d="M208.7,651.1H231" class="g6_8" />
<path d="M318.1,666.9l1.6,-.9l3.9,6.5l4.2,-17.1h10" class="g0_8" />
<path fill-rule="evenodd" d="M318,666.7l2.1,-1.2l3.5,5.4L327.5,655h10.3v.7h-9.7L324,672.5h-.8l-3.9,-6l-1.1,.7l-.2,-.5Z" class="g1_8" />
<path d="M316.7,651.1H339" class="g6_8" />
<g fill="#000000" >
<use xlink:href="#f2_99" transform="matrix(8,0,0,7.9,181.6,645.7)" />
<use xlink:href="#f2_k" transform="matrix(8,0,0,7.9,188.4,645.7)" />
<use xlink:href="#f2_99" transform="matrix(8,0,0,7.9,289.6,645.7)" />
<use xlink:href="#f2_k" transform="matrix(8,0,0,7.9,296.4,645.7)" />
<use xlink:href="#f2_k" transform="matrix(10.6,0,0,10.6,216.1,644.9)" />
<use xlink:href="#f2_l" transform="matrix(10.6,0,0,10.6,323.7,644.9)" />
<use xlink:href="#f2_2f" transform="matrix(10.6,0,0,10.6,158.3,655.4)" />
<use xlink:href="#f2_1w" transform="matrix(10.6,0,0,10.6,163.1,655.4)" />
<use xlink:href="#f2_29" transform="matrix(10.6,0,0,10.6,172.4,655.4)" />
<use xlink:href="#f2_99" transform="matrix(10.6,0,0,10.6,247.4,655.4)" />
<use xlink:href="#f2_2e" transform="matrix(10.6,0,0,10.6,263.4,655.4)" />
<use xlink:href="#f2_20" transform="matrix(10.6,0,0,10.6,271.7,655.4)" />
<use xlink:href="#f2_1y" transform="matrix(10.6,0,0,10.6,281,655.4)" />
<use xlink:href="#f2_h" transform="matrix(10.6,0,0,10.6,351.9,655.4)" />
<use xlink:href="#f2_m" transform="matrix(10.6,0,0,10.6,220.3,671.1)" />
<use xlink:href="#f2_m" transform="matrix(10.6,0,0,10.6,328.3,671.1)" />
<use xlink:href="#f3_4o" transform="matrix(10.6,0,0,10.6,198.9,646.1)" />
<use xlink:href="#f3_54" transform="matrix(10.6,0,0,10.6,232.6,646.1)" />
<use xlink:href="#f3_4o" transform="matrix(10.6,0,0,10.6,306.9,646.1)" />
<use xlink:href="#f3_54" transform="matrix(10.6,0,0,10.6,340.7,646.1)" />
<use xlink:href="#f3_4p" transform="matrix(10.6,0,0,10.6,198.9,662.1)" />
<use xlink:href="#f3_55" transform="matrix(10.6,0,0,10.6,232.6,662.1)" />
<use xlink:href="#f3_4p" transform="matrix(10.6,0,0,10.6,306.9,662.1)" />
<use xlink:href="#f3_55" transform="matrix(10.6,0,0,10.6,340.7,662.1)" />
<use xlink:href="#f3_4q" transform="matrix(10.6,0,0,10.6,198.9,668.8)" />
<use xlink:href="#f3_56" transform="matrix(10.6,0,0,10.6,232.6,668.8)" />
<use xlink:href="#f3_4q" transform="matrix(10.6,0,0,10.6,306.9,668.8)" />
<use xlink:href="#f3_56" transform="matrix(10.6,0,0,10.6,340.7,668.8)" />
<use xlink:href="#f2_b" transform="matrix(10.4,0,0,10.4,376.1,656.3)" />
<use xlink:href="#f2_24" transform="matrix(10.4,0,0,10.4,381.4,656.3)" />
<use xlink:href="#f2_24" transform="matrix(10.4,0,0,10.4,384.9,656.3)" />
<use xlink:href="#f2_c" transform="matrix(10.4,0,0,10.4,388.5,656.3)" />
</g>
<path d="M574.3,640.5l1.7,-.9l3.9,6.4l4.2,-16.9h10" class="g0_8" />
<path fill-rule="evenodd" d="M574.2,640.4l2.1,-1.3l3.6,5.4l3.9,-15.8h10.3v.8h-9.8L580.2,646h-.7l-3.9,-5.8l-1.1,.6l-.3,-.4Z" class="g1_8" />
<path d="M573,650.9h22.3" class="g6_8" />
<g fill="#000000" >
<use xlink:href="#f2_99" transform="matrix(7.9,0,0,7.9,436.1,645.5)" />
<use xlink:href="#f2_k" transform="matrix(7.9,0,0,7.9,443,645.5)" />
<use xlink:href="#f2_99" transform="matrix(7.9,0,0,7.9,546,645.5)" />
<use xlink:href="#f2_k" transform="matrix(7.9,0,0,7.9,552.9,645.5)" />
<use xlink:href="#f2_k" transform="matrix(10.5,0,0,10.5,478.6,644.7)" />
<use xlink:href="#f2_m" transform="matrix(10.5,0,0,10.5,584.6,644.7)" />
<use xlink:href="#f2_2e" transform="matrix(10.5,0,0,10.5,414.8,655.1)" />
<use xlink:href="#f2_24" transform="matrix(10.5,0,0,10.5,423.1,655.1)" />
<use xlink:href="#f2_29" transform="matrix(10.5,0,0,10.5,426.8,655.1)" />
<use xlink:href="#f2_99" transform="matrix(10.5,0,0,10.5,463.1,655.1)" />
<use xlink:href="#f2_99" transform="matrix(10.5,0,0,10.5,503.7,655.1)" />
<use xlink:href="#f2_1y" transform="matrix(10.5,0,0,10.5,519.7,655.1)" />
<use xlink:href="#f2_2a" transform="matrix(10.5,0,0,10.5,528,655.1)" />
<use xlink:href="#f2_2e" transform="matrix(10.5,0,0,10.5,537.3,655.1)" />
<use xlink:href="#f2_h" transform="matrix(10.5,0,0,10.5,608.2,655.1)" />
<use xlink:href="#f2_l" transform="matrix(10.5,0,0,10.5,478.1,670.7)" />
<use xlink:href="#f2_l" transform="matrix(10.5,0,0,10.5,580,670.7)" />
<use xlink:href="#f3_4o" transform="matrix(10.5,0,0,10.5,563.3,642.4)" />
<use xlink:href="#f3_54" transform="matrix(10.5,0,0,10.5,597.1,642.4)" />
<use xlink:href="#f3_4o" transform="matrix(10.5,0,0,10.5,453.4,645.8)" />
<use xlink:href="#f3_54" transform="matrix(10.5,0,0,10.5,489,645.8)" />
<use xlink:href="#f3_4p" transform="matrix(10.5,0,0,10.5,563.3,660.3)" />
<use xlink:href="#f3_55" transform="matrix(10.5,0,0,10.5,597.1,660.3)" />
<use xlink:href="#f3_4p" transform="matrix(10.5,0,0,10.5,453.4,660.5)" />
<use xlink:href="#f3_55" transform="matrix(10.5,0,0,10.5,489,660.5)" />
<use xlink:href="#f3_4q" transform="matrix(10.5,0,0,10.5,453.4,667.1)" />
<use xlink:href="#f3_56" transform="matrix(10.5,0,0,10.5,489,667.1)" />
<use xlink:href="#f3_4q" transform="matrix(10.5,0,0,10.5,563.3,667.1)" />
<use xlink:href="#f3_56" transform="matrix(10.5,0,0,10.5,597.1,667.1)" />
<use xlink:href="#f2_b" transform="matrix(10.4,0,0,10.4,115.9,720.8)" />
<use xlink:href="#f2_24" transform="matrix(10.4,0,0,10.4,121.3,720.8)" />
<use xlink:href="#f2_24" transform="matrix(10.4,0,0,10.4,124.8,720.8)" />
<use xlink:href="#f2_24" transform="matrix(10.4,0,0,10.4,128.3,720.8)" />
<use xlink:href="#f2_c" transform="matrix(10.4,0,0,10.4,131.9,720.8)" />
<use xlink:href="#f2_2f" transform="matrix(10.4,0,0,10.4,155.5,720.8)" />
<use xlink:href="#f2_1w" transform="matrix(10.4,0,0,10.4,160,720.8)" />
<use xlink:href="#f2_29" transform="matrix(10.4,0,0,10.4,168.8,720.8)" />
<use xlink:href="#f2_99" transform="matrix(7.4,0,0,7.4,177.5,715.5)" />
<use xlink:href="#f2_k" transform="matrix(7.4,0,0,7.4,183.9,715.5)" />
<use xlink:href="#f2_b" transform="matrix(10.4,0,0,10.4,197.2,720.8)" />
<use xlink:href="#f2_k" transform="matrix(10.4,0,0,10.4,202.5,720.8)" />
<use xlink:href="#f2_c" transform="matrix(10.4,0,0,10.4,211.3,720.8)" />
<use xlink:href="#f2_99" transform="matrix(10.4,0,0,10.4,223.6,720.8)" />
<use xlink:href="#f2_1y" transform="matrix(10.4,0,0,10.4,239.6,720.8)" />
<use xlink:href="#f2_2a" transform="matrix(10.4,0,0,10.4,247.6,720.8)" />
<use xlink:href="#f2_2f" transform="matrix(10.4,0,0,10.4,256.5,720.8)" />
<use xlink:href="#f2_99" transform="matrix(7.4,0,0,7.4,260.8,715.5)" />
<use xlink:href="#f2_k" transform="matrix(7.4,0,0,7.4,267.1,715.5)" />
<use xlink:href="#f2_b" transform="matrix(10.4,0,0,10.4,280.4,720.8)" />
<use xlink:href="#f2_99" transform="matrix(10.4,0,0,10.4,285.7,720.8)" />
<use xlink:href="#f2_k" transform="matrix(10.4,0,0,10.4,294.6,720.8)" />
<use xlink:href="#f2_c" transform="matrix(10.4,0,0,10.4,303.4,720.8)" />
<use xlink:href="#f2_h" transform="matrix(10.4,0,0,10.4,308.8,720.8)" />
<use xlink:href="#f2_b" transform="matrix(10.4,0,0,10.4,371.5,720.8)" />
<use xlink:href="#f2_24" transform="matrix(10.4,0,0,10.4,376.8,720.8)" />
<use xlink:href="#f2_2h" transform="matrix(10.4,0,0,10.4,380.4,720.8)" />
<use xlink:href="#f2_c" transform="matrix(10.4,0,0,10.4,388.3,720.8)" />
</g>
<path d="M483.3,717.3l1.7,-.9l3.9,6.2l4.2,-16.4h9.7" class="g0_8" />
<path fill-rule="evenodd" d="M483.2,717.1l2.1,-1.2l3.6,5.2l3.9,-15.3h10v.8h-9.5l-4.1,16h-.7l-3.9,-5.7l-1.1,.6l-.3,-.4Z" class="g1_8" />
<g fill="#000000" >
<use xlink:href="#f3_c" transform="matrix(10.3,0,0,14.5,475.8,719.6)" />
<use xlink:href="#f3_d" transform="matrix(10.3,0,0,14.5,504.9,719.6)" />
</g>
<path d="M583.2,717.3l1.6,-.9l3.9,6.2l4.2,-16.4h9.7" class="g0_8" />
<path fill-rule="evenodd" d="M583.1,717.1l2.1,-1.2l3.5,5.2l3.9,-15.3h10v.8h-9.4l-4.1,16h-.8l-3.9,-5.7l-1.1,.6l-.2,-.4Z" class="g1_8" />
<g fill="#000000" >
<use xlink:href="#f3_c" transform="matrix(10.3,0,0,14.5,575.6,719.6)" />
<use xlink:href="#f3_d" transform="matrix(10.3,0,0,14.5,604.6,719.6)" />
<use xlink:href="#f2_99" transform="matrix(7.8,0,0,7.8,458.5,712.1)" />
<use xlink:href="#f2_k" transform="matrix(7.8,0,0,7.8,465.4,712.1)" />
<use xlink:href="#f2_99" transform="matrix(7.8,0,0,7.8,558.3,712.1)" />
<use xlink:href="#f2_k" transform="matrix(7.8,0,0,7.8,565.2,712.1)" />
<use xlink:href="#f2_1y" transform="matrix(10.4,0,0,10.3,414.6,721.6)" />
<use xlink:href="#f2_2a" transform="matrix(10.4,0,0,10.3,422.8,721.6)" />
<use xlink:href="#f2_2e" transform="matrix(10.4,0,0,10.3,432.1,721.6)" />
<use xlink:href="#f2_20" transform="matrix(10.4,0,0,10.3,440.4,721.6)" />
<use xlink:href="#f2_1y" transform="matrix(10.4,0,0,10.3,449.7,721.6)" />
<use xlink:href="#f2_l" transform="matrix(10.4,0,0,10.3,493.4,721.6)" />
<use xlink:href="#f2_2e" transform="matrix(10.4,0,0,10.3,531.9,721.6)" />
<use xlink:href="#f2_20" transform="matrix(10.4,0,0,10.3,540.2,721.6)" />
<use xlink:href="#f2_1y" transform="matrix(10.4,0,0,10.3,549.5,721.6)" />
<use xlink:href="#f2_l" transform="matrix(10.4,0,0,10.3,593.2,721.6)" />
<use xlink:href="#f2_h" transform="matrix(10.4,0,0,10.3,612.8,721.6)" />
<use xlink:href="#f3_f" transform="matrix(10.4,0,0,10.3,516.5,721.6)" />
<use xlink:href="#f2_b" transform="matrix(10.4,0,0,10.4,118.5,758.6)" />
<use xlink:href="#f2_2h" transform="matrix(10.4,0,0,10.4,123.8,758.6)" />
<use xlink:href="#f2_c" transform="matrix(10.4,0,0,10.4,132.1,758.6)" />
<use xlink:href="#f2_2f" transform="matrix(10.4,0,0,10.4,155.5,758.6)" />
<use xlink:href="#f2_1w" transform="matrix(10.4,0,0,10.4,160,758.6)" />
<use xlink:href="#f2_29" transform="matrix(10.4,0,0,10.4,168.8,758.6)" />
<use xlink:href="#f2_99" transform="matrix(7.4,0,0,7.4,177.5,753.2)" />
<use xlink:href="#f2_k" transform="matrix(7.4,0,0,7.4,183.9,753.2)" />
<use xlink:href="#f2_b" transform="matrix(10.4,0,0,10.4,197,758.6)" />
<use xlink:href="#f2_k" transform="matrix(10.4,0,0,10.4,202.3,758.6)" />
<use xlink:href="#f2_c" transform="matrix(10.4,0,0,10.4,211.2,758.6)" />
<use xlink:href="#f2_e" transform="matrix(10.4,0,0,10.4,223.3,758.6)" />
<use xlink:href="#f2_1y" transform="matrix(10.4,0,0,10.4,239.5,758.6)" />
<use xlink:href="#f2_2a" transform="matrix(10.4,0,0,10.4,247.5,758.6)" />
<use xlink:href="#f2_2f" transform="matrix(10.4,0,0,10.4,256.4,758.6)" />
<use xlink:href="#f2_99" transform="matrix(7.4,0,0,7.4,260.8,753.2)" />
<use xlink:href="#f2_k" transform="matrix(7.4,0,0,7.4,267.1,753.2)" />
<use xlink:href="#f2_b" transform="matrix(10.4,0,0,10.4,280.2,758.6)" />
<use xlink:href="#f2_k" transform="matrix(10.4,0,0,10.4,285.5,758.6)" />
<use xlink:href="#f2_c" transform="matrix(10.4,0,0,10.4,294.4,758.6)" />
<use xlink:href="#f2_e" transform="matrix(10.4,0,0,10.4,306.7,758.6)" />
<use xlink:href="#f2_2e" transform="matrix(10.4,0,0,10.4,323,758.6)" />
<use xlink:href="#f2_24" transform="matrix(10.4,0,0,10.4,330.9,758.6)" />
<use xlink:href="#f2_29" transform="matrix(10.4,0,0,10.4,334.5,758.6)" />
<use xlink:href="#f2_99" transform="matrix(7.4,0,0,7.4,343.3,753.2)" />
<use xlink:href="#f2_k" transform="matrix(7.4,0,0,7.4,349.6,753.2)" />
<use xlink:href="#f2_b" transform="matrix(10.4,0,0,10.4,362.7,758.6)" />
<use xlink:href="#f2_k" transform="matrix(10.4,0,0,10.4,368,758.6)" />
<use xlink:href="#f2_c" transform="matrix(10.4,0,0,10.4,376.9,758.6)" />
<use xlink:href="#f2_h" transform="matrix(10.4,0,0,10.4,382.2,758.6)" />
<use xlink:href="#f2_b" transform="matrix(10.4,0,0,10.4,114.8,813.8)" />
<use xlink:href="#f2_2h" transform="matrix(10.4,0,0,10.4,120.2,813.8)" />
<use xlink:href="#f2_24" transform="matrix(10.4,0,0,10.4,128.4,813.8)" />
<use xlink:href="#f2_c" transform="matrix(10.4,0,0,10.4,131.9,813.8)" />
</g>
<path d="M231.4,809h19.7" class="g3_8" />
<g fill="#000000" >
<use xlink:href="#f2_99" transform="matrix(7.9,0,0,7.9,179.5,803.6)" />
<use xlink:href="#f2_k" transform="matrix(7.9,0,0,7.9,186.4,803.6)" />
<use xlink:href="#f2_n" transform="matrix(10.7,0,0,10.6,232.2,802.8)" />
<use xlink:href="#f2_2e" transform="matrix(10.7,0,0,10.6,158.1,813.3)" />
<use xlink:href="#f2_24" transform="matrix(10.7,0,0,10.6,166.4,813.3)" />
<use xlink:href="#f2_29" transform="matrix(10.7,0,0,10.6,170.2,813.3)" />
<use xlink:href="#f2_2e" transform="matrix(10.7,0,0,10.6,206.1,813.3)" />
<use xlink:href="#f2_24" transform="matrix(10.7,0,0,10.6,214.4,813.3)" />
<use xlink:href="#f2_29" transform="matrix(10.7,0,0,10.6,218.2,813.3)" />
<use xlink:href="#f2_h" transform="matrix(10.7,0,0,10.6,264.1,813.3)" />
<use xlink:href="#f2_o" transform="matrix(10.7,0,0,10.6,237,828.9)" />
<use xlink:href="#f3_2c" transform="matrix(10.6,0,0,10.6,241.5,802.8)" />
<use xlink:href="#f3_4o" transform="matrix(10.6,0,0,10.6,196.9,803.9)" />
<use xlink:href="#f3_54" transform="matrix(10.6,0,0,10.6,253,803.9)" />
<use xlink:href="#f3_4p" transform="matrix(10.6,0,0,10.6,196.9,818.9)" />
<use xlink:href="#f3_55" transform="matrix(10.6,0,0,10.6,253,818.9)" />
<use xlink:href="#f3_4q" transform="matrix(10.6,0,0,10.6,196.9,825.5)" />
<use xlink:href="#f3_56" transform="matrix(10.6,0,0,10.6,253,825.5)" />
<use xlink:href="#f2_b" transform="matrix(10.4,0,0,10.4,386.4,813.7)" />
<use xlink:href="#f2_2h" transform="matrix(10.4,0,0,10.4,391.7,813.7)" />
<use xlink:href="#f2_24" transform="matrix(10.4,0,0,10.4,399.6,813.7)" />
<use xlink:href="#f2_24" transform="matrix(10.4,0,0,10.4,403.2,813.7)" />
<use xlink:href="#f2_c" transform="matrix(10.4,0,0,10.4,406.7,813.7)" />
<use xlink:href="#f2_99" transform="matrix(7.9,0,0,7.9,456.7,804.1)" />
<use xlink:href="#f2_k" transform="matrix(7.9,0,0,7.9,463.6,804.1)" />
<use xlink:href="#f2_o" transform="matrix(10.7,0,0,10.6,511.6,803.3)" />
<use xlink:href="#f2_2f" transform="matrix(10.7,0,0,10.6,433.3,813.8)" />
<use xlink:href="#f2_1w" transform="matrix(10.7,0,0,10.6,438.1,813.8)" />
<use xlink:href="#f2_29" transform="matrix(10.7,0,0,10.6,447.4,813.8)" />
<use xlink:href="#f2_2f" transform="matrix(10.7,0,0,10.6,483.6,813.8)" />
<use xlink:href="#f2_1w" transform="matrix(10.7,0,0,10.6,488.4,813.8)" />
<use xlink:href="#f2_29" transform="matrix(10.7,0,0,10.6,497.7,813.8)" />
<use xlink:href="#f2_h" transform="matrix(10.7,0,0,10.6,543.6,813.8)" />
<use xlink:href="#f2_p" transform="matrix(10.7,0,0,10.6,516.4,829.5)" />
<use xlink:href="#f3_2c" transform="matrix(10.6,0,0,10.6,521,803.3)" />
<use xlink:href="#f3_4o" transform="matrix(10.6,0,0,10.6,474.1,804.5)" />
<use xlink:href="#f3_54" transform="matrix(10.6,0,0,10.6,532.5,804.5)" />
<use xlink:href="#f3_4p" transform="matrix(10.6,0,0,10.6,474.1,819.4)" />
<use xlink:href="#f3_55" transform="matrix(10.6,0,0,10.6,532.5,819.4)" />
<use xlink:href="#f3_4q" transform="matrix(10.6,0,0,10.6,474.1,826.1)" />
<use xlink:href="#f3_56" transform="matrix(10.6,0,0,10.6,532.5,826.1)" />
<use xlink:href="#f2_b" transform="matrix(10.4,0,0,10.4,107.9,888.7)" />
<use xlink:href="#f2_2h" transform="matrix(10.4,0,0,10.4,113.2,888.7)" />
<use xlink:href="#f2_24" transform="matrix(10.4,0,0,10.4,121.2,888.7)" />
<use xlink:href="#f2_24" transform="matrix(10.4,0,0,10.4,124.7,888.7)" />
<use xlink:href="#f2_24" transform="matrix(10.4,0,0,10.4,128.2,888.7)" />
<use xlink:href="#f2_c" transform="matrix(10.4,0,0,10.4,131.8,888.7)" />
</g>
<path d="M276.6,884.3h19.8" class="g3_8" />
<g fill="#000000" >
<use xlink:href="#f2_99" transform="matrix(7.8,0,0,7.8,202,879)" />
<use xlink:href="#f2_k" transform="matrix(7.8,0,0,7.8,208.9,879)" />
<use xlink:href="#f2_m" transform="matrix(10.4,0,0,10.4,277.4,878.2)" />
<use xlink:href="#f2_1y" transform="matrix(10.4,0,0,10.4,158,888.5)" />
<use xlink:href="#f2_2a" transform="matrix(10.4,0,0,10.4,166.3,888.5)" />
<use xlink:href="#f2_2e" transform="matrix(10.4,0,0,10.4,175.6,888.5)" />
<use xlink:href="#f2_20" transform="matrix(10.4,0,0,10.4,183.9,888.5)" />
<use xlink:href="#f2_1y" transform="matrix(10.4,0,0,10.4,193.2,888.5)" />
<use xlink:href="#f2_1y" transform="matrix(10.4,0,0,10.4,228.7,888.5)" />
<use xlink:href="#f2_2a" transform="matrix(10.4,0,0,10.4,237,888.5)" />
<use xlink:href="#f2_2e" transform="matrix(10.4,0,0,10.4,246.3,888.5)" />
<use xlink:href="#f2_20" transform="matrix(10.4,0,0,10.4,254.6,888.5)" />
<use xlink:href="#f2_1y" transform="matrix(10.4,0,0,10.4,263.9,888.5)" />
<use xlink:href="#f2_h" transform="matrix(10.4,0,0,10.4,309.3,888.5)" />
<use xlink:href="#f2_n" transform="matrix(10.4,0,0,10.4,282.2,903.9)" />
<use xlink:href="#f3_2c" transform="matrix(10.5,0,0,10.4,286.7,878.2)" />
<use xlink:href="#f3_4o" transform="matrix(10.5,0,0,10.4,219.4,879.3)" />
<use xlink:href="#f3_54" transform="matrix(10.5,0,0,10.4,298.2,879.3)" />
<use xlink:href="#f3_4p" transform="matrix(10.5,0,0,10.4,219.4,893.8)" />
<use xlink:href="#f3_55" transform="matrix(10.5,0,0,10.4,298.2,893.8)" />
<use xlink:href="#f3_4q" transform="matrix(10.5,0,0,10.4,219.4,900.3)" />
<use xlink:href="#f3_56" transform="matrix(10.5,0,0,10.4,298.2,900.3)" />
<use xlink:href="#f1_1i" transform="matrix(12,0,0,12,106.2,956.9)" />
<use xlink:href="#f1_17" transform="matrix(12,0,0,12,116,956.9)" />
<use xlink:href="#f1_1e" transform="matrix(12,0,0,12,130.9,956.9)" />
<use xlink:href="#f1_1h" transform="matrix(12,0,0,12,147.5,956.9)" />
<use xlink:href="#f1_1j" transform="matrix(12,0,0,12,160.3,956.9)" />
<use xlink:href="#f1_10" transform="matrix(12,0,0,12,182.1,956.9)" />
<use xlink:href="#f1_1d" transform="matrix(12,0,0,12,196.3,956.9)" />
<use xlink:href="#f1_1i" transform="matrix(12,0,0,12,211.8,956.9)" />
<use xlink:href="#f1_1m" transform="matrix(12,0,0,12,221.6,956.9)" />
<use xlink:href="#f1_14" transform="matrix(12,0,0,12,239.5,956.9)" />
<use xlink:href="#f1_1h" transform="matrix(12,0,0,12,250.7,956.9)" />
<use xlink:href="#f1_1j" transform="matrix(12,0,0,12,273.8,956.9)" />
<use xlink:href="#f1_1o" transform="matrix(12,0,0,12,285.3,956.9)" />
<use xlink:href="#f1_1f" transform="matrix(12,0,0,12,297.5,956.9)" />
<use xlink:href="#f1_14" transform="matrix(12,0,0,12,309.3,956.9)" />
<use xlink:href="#f1_1g" transform="matrix(12,0,0,12,330.6,956.9)" />
<use xlink:href="#f1_1k" transform="matrix(12,0,0,12,347.1,956.9)" />
<use xlink:href="#f1_14" transform="matrix(12,0,0,12,362,956.9)" />
<use xlink:href="#f1_1i" transform="matrix(12,0,0,12,373.1,956.9)" />
<use xlink:href="#f1_1j" transform="matrix(12,0,0,12,383,956.9)" />
<use xlink:href="#f1_18" transform="matrix(12,0,0,12,394.5,956.9)" />
<use xlink:href="#f1_1e" transform="matrix(12,0,0,12,401.5,956.9)" />
<use xlink:href="#f1_1d" transform="matrix(12,0,0,12,418.1,956.9)" />
<use xlink:href="#f1_1i" transform="matrix(12,0,0,12,433.6,956.9)" />
<use xlink:href="#f1_b" transform="matrix(12,0,0,12,453.7,956.9)" />
<use xlink:href="#f1_n" transform="matrix(12,0,0,12,462.9,956.9)" />
<use xlink:href="#f1_1c" transform="matrix(12,0,0,12,485.3,956.9)" />
<use xlink:href="#f1_10" transform="matrix(12,0,0,12,503.2,956.9)" />
<use xlink:href="#f1_1h" transform="matrix(12,0,0,12,517.4,956.9)" />
<use xlink:href="#f1_1a" transform="matrix(12,0,0,12,530.3,956.9)" />
<use xlink:href="#f1_1i" transform="matrix(12,0,0,12,543.8,956.9)" />
<use xlink:href="#f1_c" transform="matrix(12,0,0,12,553.6,956.9)" />
<use xlink:href="#f2_m" transform="matrix(10.4,0,0,10.4,68.8,1020)" />
<use xlink:href="#f2_h" transform="matrix(10.4,0,0,10.4,77.7,1020)" />
<use xlink:href="#f2_1i" transform="matrix(10.4,0,0,10.4,100.5,1020)" />
<use xlink:href="#f2_23" transform="matrix(10.4,0,0,10.4,111.2,1020)" />
<use xlink:href="#f2_2a" transform="matrix(10.4,0,0,10.4,120,1020)" />
<use xlink:href="#f2_2i" transform="matrix(10.4,0,0,10.4,128.9,1020)" />
<use xlink:href="#f2_2f" transform="matrix(10.4,0,0,10.4,147.2,1020)" />
<use xlink:href="#f2_23" transform="matrix(10.4,0,0,10.4,151.6,1020)" />
<use xlink:href="#f2_1w" transform="matrix(10.4,0,0,10.4,160.5,1020)" />
<use xlink:href="#f2_2f" transform="matrix(10.4,0,0,10.4,169.4,1020)" />
</g>
<path d="M235.8,1005.4l1.6,-.9l3.9,6.4l4.2,-16.8h68.7" class="g0_8" />
<path fill-rule="evenodd" d="M235.7,1005.2l2.1,-1.2l3.5,5.4l4,-15.7h68.9v.7H245.8l-4.1,16.5h-.8L237,1005l-1.1,.7l-.2,-.5Z" class="g1_8" />
<path d="M337.7,1005.4l1.6,-.9l3.9,6.4l4.2,-16.8h68.5" class="g0_8" />
<path fill-rule="evenodd" d="M337.6,1005.2l2.1,-1.2l3.5,5.4l4,-15.7h68.7v.7H347.7l-4.1,16.5h-.7l-4,-5.9l-1.1,.7l-.2,-.5Z" class="g1_8" />
<path d="M235.1,1031.2l1.6,-.9l3.9,6.3l4.2,-16.8h68.7" class="g0_8" />
<path fill-rule="evenodd" d="M235,1031l2.1,-1.2l3.5,5.3l4,-15.7h68.9v.8H245.1l-4.1,16.4h-.8l-3.9,-5.8l-1.1,.6l-.2,-.4Z" class="g1_8" />
<path d="M337.6,1031.2l1.6,-.9l3.9,6.3l4.2,-16.8h69.2" class="g0_8" />
<path fill-rule="evenodd" d="M337.5,1031l2.1,-1.2l3.5,5.3l4,-15.7h69.4v.8H347.6l-4.1,16.4h-.8l-3.9,-5.8l-1.1,.6l-.2,-.4Z" class="g1_8" />
<path d="M233.8,1015.7h184" class="g3_8" />
<g fill="#000000" >
<use xlink:href="#f2_99" transform="matrix(7.9,0,0,7.8,206.6,1010.4)" />
<use xlink:href="#f2_k" transform="matrix(7.9,0,0,7.8,213.6,1010.4)" />
<use xlink:href="#f2_k" transform="matrix(10.4,0,0,10.4,244.7,1009.5)" />
<use xlink:href="#f2_1y" transform="matrix(10.4,0,0,10.4,273.4,1009.5)" />
<use xlink:href="#f2_2a" transform="matrix(10.4,0,0,10.4,281.8,1009.5)" />
<use xlink:href="#f2_2e" transform="matrix(10.4,0,0,10.4,291.1,1009.5)" />
<use xlink:href="#f2_k" transform="matrix(10.4,0,0,10.4,346.8,1009.5)" />
<use xlink:href="#f2_1y" transform="matrix(10.4,0,0,10.4,375.3,1009.5)" />
<use xlink:href="#f2_2a" transform="matrix(10.4,0,0,10.4,383.6,1009.5)" />
<use xlink:href="#f2_2e" transform="matrix(10.4,0,0,10.4,392.9,1009.5)" />
<use xlink:href="#f2_2f" transform="matrix(10.4,0,0,10.4,183.2,1019.9)" />
<use xlink:href="#f2_1w" transform="matrix(10.4,0,0,10.4,188,1019.9)" />
<use xlink:href="#f2_29" transform="matrix(10.4,0,0,10.4,197.3,1019.9)" />
<use xlink:href="#f2_h" transform="matrix(10.4,0,0,10.4,503.5,1019.9)" />
<use xlink:href="#f2_k" transform="matrix(10.4,0,0,10.4,244.1,1035.3)" />
<use xlink:href="#f2_1y" transform="matrix(10.4,0,0,10.4,272.8,1035.3)" />
<use xlink:href="#f2_2a" transform="matrix(10.4,0,0,10.4,281.1,1035.3)" />
<use xlink:href="#f2_2e" transform="matrix(10.4,0,0,10.4,290.4,1035.3)" />
<use xlink:href="#f2_99" transform="matrix(10.4,0,0,10.4,321.1,1035.3)" />
<use xlink:href="#f2_k" transform="matrix(10.4,0,0,10.4,346.7,1035.3)" />
<use xlink:href="#f2_99" transform="matrix(10.4,0,0,10.4,359.9,1035.3)" />
<use xlink:href="#f2_1y" transform="matrix(10.4,0,0,10.4,375.9,1035.3)" />
<use xlink:href="#f2_2a" transform="matrix(10.4,0,0,10.4,384.2,1035.3)" />
<use xlink:href="#f2_2e" transform="matrix(10.4,0,0,10.4,393.5,1035.3)" />
<use xlink:href="#f2_n" transform="matrix(10.4,0,0,10.4,454.6,1035.3)" />
<use xlink:href="#f2_l" transform="matrix(10.4,0,0,10.4,489.4,1035.3)" />
<use xlink:href="#f4_2j" transform="matrix(10.4,0,0,10.4,303.5,1009.5)" />
<use xlink:href="#f4_2j" transform="matrix(10.4,0,0,10.4,405.3,1009.5)" />
<use xlink:href="#f4_2j" transform="matrix(10.4,0,0,10.4,488.8,1009.5)" />
<use xlink:href="#f4_2j" transform="matrix(10.4,0,0,10.4,302.8,1035.3)" />
<use xlink:href="#f4_2j" transform="matrix(10.4,0,0,10.4,406,1035.3)" />
<use xlink:href="#f3_4o" transform="matrix(10.5,0,0,10.4,224,1007.2)" />
<use xlink:href="#f3_54" transform="matrix(10.5,0,0,10.4,419.8,1007.2)" />
<use xlink:href="#f3_f" transform="matrix(10.5,0,0,10.4,257.7,1009.5)" />
<use xlink:href="#f3_f" transform="matrix(10.5,0,0,10.4,321.5,1009.5)" />
<use xlink:href="#f3_h" transform="matrix(10.5,0,0,10.4,359.8,1009.5)" />
<use xlink:href="#f3_2c" transform="matrix(10.5,0,0,10.4,454.7,1009.5)" />
<use xlink:href="#f3_x" transform="matrix(10.5,0,0,10.4,436,1019.9)" />
<use xlink:href="#f3_f" transform="matrix(10.5,0,0,10.4,471.6,1019.9)" />
<use xlink:href="#f3_4p" transform="matrix(10.5,0,0,10.4,224,1025)" />
<use xlink:href="#f3_55" transform="matrix(10.5,0,0,10.4,419.8,1025)" />
<use xlink:href="#f3_4q" transform="matrix(10.5,0,0,10.4,224,1033)" />
<use xlink:href="#f3_56" transform="matrix(10.5,0,0,10.4,419.8,1033)" />
<use xlink:href="#f3_f" transform="matrix(10.5,0,0,10.4,257.1,1035.3)" />
<use xlink:href="#f4_2j" transform="matrix(10.4,0,0,10.4,542.4,1020)" />
<use xlink:href="#f3_40" transform="matrix(10.4,0,0,10.4,557.4,1020)" />
<use xlink:href="#f2_1q" transform="matrix(10.4,0,0,10.4,575.8,1020)" />
<use xlink:href="#f2_j" transform="matrix(10.4,0,0,10.4,580.2,1020)" />
<use xlink:href="#f2_f" transform="matrix(10.4,0,0,10.4,589.1,1020)" />
<use xlink:href="#f3_2c" transform="matrix(10.4,0,0,10.4,600.3,1020)" />
<use xlink:href="#f2_1s" transform="matrix(10.4,0,0,10.4,609.1,1020)" />
<use xlink:href="#f5_12" transform="matrix(13,0,0,13,262.5,139.5)" />
<use xlink:href="#f5_17" transform="matrix(13,0,0,13,276.8,139.5)" />
<use xlink:href="#f5_10" transform="matrix(13,0,0,13,291.1,139.5)" />
<use xlink:href="#f5_1f" transform="matrix(13,0,0,13,305.4,139.5)" />
<use xlink:href="#f5_1j" transform="matrix(13,0,0,13,318.6,139.5)" />
<use xlink:href="#f5_14" transform="matrix(13,0,0,13,330.7,139.5)" />
<use xlink:href="#f5_1h" transform="matrix(13,0,0,13,343.9,139.5)" />
<use xlink:href="#f5_l" transform="matrix(13,0,0,13,366.5,139.5)" />
<use xlink:href="#f5_18" transform="matrix(16,0,0,16,81.2,193.4)" />
<use xlink:href="#f5_1d" transform="matrix(16,0,0,16,88,193.4)" />
<use xlink:href="#f5_1l" transform="matrix(16,0,0,16,105.6,193.4)" />
<use xlink:href="#f5_14" transform="matrix(16,0,0,16,121.9,193.4)" />
<use xlink:href="#f5_1h" transform="matrix(16,0,0,16,138.1,193.4)" />
<use xlink:href="#f5_1i" transform="matrix(16,0,0,16,155.7,193.4)" />
<use xlink:href="#f5_14" transform="matrix(16,0,0,16,172,193.4)" />
<use xlink:href="#f5_1j" transform="matrix(16,0,0,16,198.7,193.4)" />
<use xlink:href="#f5_1h" transform="matrix(16,0,0,16,213.6,193.4)" />
<use xlink:href="#f5_18" transform="matrix(16,0,0,16,231.2,193.4)" />
<use xlink:href="#f5_16" transform="matrix(16,0,0,16,238,193.4)" />
<use xlink:href="#f5_1e" transform="matrix(16,0,0,16,257,193.4)" />
<use xlink:href="#f5_1d" transform="matrix(16,0,0,16,276,193.4)" />
<use xlink:href="#f5_1e" transform="matrix(16,0,0,16,293.6,193.4)" />
<use xlink:href="#f5_1c" transform="matrix(16,0,0,16,312.5,193.4)" />
<use xlink:href="#f5_14" transform="matrix(16,0,0,16,332.8,193.4)" />
<use xlink:href="#f5_1j" transform="matrix(16,0,0,16,349.1,193.4)" />
<use xlink:href="#f5_1h" transform="matrix(16,0,0,16,364,193.4)" />
<use xlink:href="#f5_18" transform="matrix(16,0,0,16,381.6,193.4)" />
<use xlink:href="#f5_12" transform="matrix(16,0,0,16,388.4,193.4)" />
<use xlink:href="#f5_15" transform="matrix(16,0,0,16,416.6,193.4)" />
<use xlink:href="#f5_1k" transform="matrix(16,0,0,16,431.5,193.4)" />
<use xlink:href="#f5_1d" transform="matrix(16,0,0,16,449.1,193.4)" />
<use xlink:href="#f5_12" transform="matrix(16,0,0,16,466.7,193.4)" />
<use xlink:href="#f5_1j" transform="matrix(16,0,0,16,484.3,193.4)" />
<use xlink:href="#f5_18" transform="matrix(16,0,0,16,499.2,193.4)" />
<use xlink:href="#f5_1e" transform="matrix(16,0,0,16,506,193.4)" />
<use xlink:href="#f5_1d" transform="matrix(16,0,0,16,525,193.4)" />
<use xlink:href="#f5_1i" transform="matrix(16,0,0,16,542.6,193.4)" />
<use xlink:href="#f6_l" transform="matrix(12,0,0,12,657.2,1093.6)" />
</g>
<g fill="#0080FF" fill-opacity="0.5" >
<use xlink:href="#f0_1c" transform="matrix(36.1,0,0,36.1,173.2,1081.1)" />
<use xlink:href="#f0_21" transform="matrix(36.1,0,0,36.1,203.9,1081.1)" />
<use xlink:href="#f0_1x" transform="matrix(36.1,0,0,36.1,234.5,1081.1)" />
<use xlink:href="#f0_2e" transform="matrix(36.1,0,0,36.1,265.2,1081.1)" />
<use xlink:href="#f0_2a" transform="matrix(36.1,0,0,36.1,283.6,1081.1)" />
<use xlink:href="#f0_17" transform="matrix(36.1,0,0,36.1,314.2,1081.1)" />
<use xlink:href="#f0_2h" transform="matrix(36.1,0,0,36.1,357.1,1081.1)" />
<use xlink:href="#f0_25" transform="matrix(36.1,0,0,36.1,387.8,1081.1)" />
<use xlink:href="#f0_20" transform="matrix(36.1,0,0,36.1,400.1,1081.1)" />
<use xlink:href="#f0_21" transform="matrix(36.1,0,0,36.1,430.7,1081.1)" />
<use xlink:href="#f0_i" transform="matrix(36.1,0,0,36.1,461.4,1081.1)" />
<use xlink:href="#f0_25" transform="matrix(36.1,0,0,36.1,476.7,1081.1)" />
<use xlink:href="#f0_2a" transform="matrix(36.1,0,0,36.1,489,1081.1)" />
</g>
<defs>
<path d="M593,101c0,0,182,0,279,112c0,0,98,113,98,318c0,0,0,196,-98,308c0,0,-98,112,-277,112c0,0,-181,0,-279,-110c0,0,-99,-111,-99,-310c0,0,0,-198,100,-314c0,0,99,-116,276,-116Zm0,-115c0,0,-162,0,-279,65c0,0,-118,66,-180,190c0,0,-62,124,-62,290c0,0,0,252,138,394c0,0,138,142,385,142c0,0,160,0,278,-64c0,0,118,-64,180,-185c0,0,62,-122,62,-287c0,0,0,-165,-63,-289c0,0,-63,-124,-181,-190c0,0,-118,-66,-278,-66Z" 
id="f0_1f"
transform="scale(0.001,-0.001)" />

<path d="M106,0V635c0,0,0,141,-5,173H228c0,0,1,-4,2,-21c0,0,1,-16,2,-37c0,0,1,-22,2,-81h2c0,0,47,84,108,119c0,0,60,34,151,34c0,0,132,0,194,-66c0,0,61,-66,61,-218V0H615V512c0,0,0,80,-15,124c0,0,-16,44,-50,63c0,0,-35,20,-101,20c0,0,-97,0,-153,-67c0,0,-56,-66,-56,-184V0Z" 
id="f0_2a"
transform="scale(0.001,-0.001)" />

<path d="M103,0V1107H237V0Z" 
id="f0_28"
transform="scale(0.001,-0.001)" />

<path d="M102,0V808H236V0Zm0,979v128H236V979Z" 
id="f0_25"
transform="scale(0.001,-0.001)" />

<path d="M643,478c0,0,-11,128,-65,187c0,0,-54,59,-154,59c0,0,-98,0,-155,-66c0,0,-57,-65,-62,-180ZM431,-14c0,0,-179,0,-272,106c0,0,-94,107,-94,317c0,0,0,200,94,307c0,0,93,106,267,106c0,0,356,0,356,-429V375H206c0,0,0,-138,57,-213c0,0,58,-75,168,-75c0,0,87,0,140,35c0,0,53,35,71,88L760,177c0,0,-72,-191,-329,-191Z" 
id="f0_21"
transform="scale(0.001,-0.001)" />

<path d="M17,0L304,415L31,808H179L380,493L580,808H730L457,417L747,0H598L380,331L162,0Z" 
id="f0_2k"
transform="scale(0.001,-0.001)" />

<path d="M339,87c0,0,74,0,132,34c0,0,57,33,90,91c0,0,34,59,34,121v66L448,396c0,0,-95,-2,-144,-19c0,0,-49,-18,-75,-55c0,0,-26,-38,-26,-98c0,0,0,-65,35,-101c0,0,36,-36,101,-36ZM309,-14c0,0,-122,0,-183,64c0,0,-61,64,-61,176c0,0,0,125,82,192c0,0,83,67,266,72l182,3v44c0,0,0,98,-42,141c0,0,-42,43,-132,43c0,0,-90,0,-131,-31c0,0,-41,-31,-49,-98L101,604c0,0,34,218,323,218c0,0,153,0,229,-70c0,0,77,-69,77,-202V202c0,0,0,-59,16,-90c0,0,16,-30,60,-30c0,0,19,0,44,5V4C850,4,799,-7,746,-7c0,0,-75,0,-109,38c0,0,-33,40,-38,124h-4C595,155,543,62,475,24c0,0,-68,-38,-166,-38Z" 
id="f0_1x"
transform="scale(0.001,-0.001)" />

<path d="M106,0V635c0,0,0,141,-5,173H228c0,0,1,-4,2,-21c0,0,1,-16,2,-37c0,0,1,-22,2,-81h2c0,0,44,86,100,120c0,0,56,33,136,33c0,0,92,0,145,-36c0,0,54,-37,75,-117h2c0,0,42,82,101,117c0,0,59,36,143,36c0,0,123,0,178,-66c0,0,56,-67,56,-218V0H1039V512c0,0,0,117,-32,162c0,0,-32,45,-116,45c0,0,-88,0,-136,-66c0,0,-49,-65,-49,-185V0H573V512c0,0,0,117,-32,162c0,0,-32,45,-116,45c0,0,-86,0,-136,-66c0,0,-50,-66,-50,-185V0Z" 
id="f0_29"
transform="scale(0.001,-0.001)" />

<path d="M453,84c0,0,100,0,146,74c0,0,46,73,46,247c0,0,0,169,-46,241c0,0,-45,73,-145,73c0,0,-80,0,-125,-34c0,0,-45,-34,-68,-105c0,0,-24,-71,-24,-186c0,0,0,-159,51,-234c0,0,51,-76,165,-76ZM103,-316V643c0,0,0,124,-5,165H228c0,0,1,-3,3,-22c0,0,1,-18,3,-56c0,0,2,-38,2,-52h3c0,0,36,75,94,110c0,0,59,34,156,34c0,0,149,0,223,-100c0,0,74,-100,74,-314c0,0,0,-422,-297,-422c0,0,-187,0,-251,140h-4c0,0,3,-6,3,-126V-316Z" 
id="f0_2c"
transform="scale(0.001,-0.001)" />

<path d="M420,84c0,0,121,0,173,78c0,0,52,77,52,243c0,0,0,167,-50,243c0,0,-50,76,-167,76c0,0,-118,0,-170,-78c0,0,-53,-77,-53,-241c0,0,0,-160,52,-241c0,0,52,-80,163,-80Zm1,-98c0,0,-176,0,-267,107c0,0,-90,108,-90,312c0,0,0,417,362,417c0,0,185,0,272,-102c0,0,88,-101,88,-315c0,0,0,-212,-94,-316C692,89,599,-14,421,-14Z" 
id="f0_2b"
transform="scale(0.001,-0.001)" />

<path d="M278,-11c0,0,-162,0,-162,182V710H23v98h99l39,181h90V808H400V710H251V200c0,0,0,-58,19,-82c0,0,19,-23,66,-23c0,0,27,0,77,10V6c0,0,-66,-17,-135,-17Z" 
id="f0_2g"
transform="scale(0.001,-0.001)" />

<path d="M431,0L102,922c0,0,-19,55,-51,110c0,0,-31,56,-86,135H386c0,0,-7,-41,-6,-71c0,0,1,-31,11,-63L581,398l219,635c0,0,12,33,14,63c0,0,3,30,-3,71h378c0,0,-33,-44,-61,-99c0,0,-29,-55,-67,-146L694,0Z" 
id="f1_1l"
transform="scale(0.001,-0.001)" />

<path d="M102,0c0,0,22,54,31,110c0,0,10,55,10,135V922c0,0,0,81,-10,136c0,0,-9,55,-31,109H823L766,1041L709,913c0,0,-42,20,-137,36c0,0,-62,9,-121,13V697H798L728,569L657,441c0,0,-45,21,-131,36c0,0,-38,8,-75,11V206c0,0,117,6,201,22c0,0,126,24,239,84L827,156L762,0Z" 
id="f1_14"
transform="scale(0.001,-0.001)" />

<path d="M452,645c0,0,85,0,139,47c0,0,54,47,54,121c0,0,0,66,-51,107c0,0,-51,42,-132,42H442V645ZM93,0c0,0,22,54,32,110c0,0,9,55,9,135V922c0,0,0,81,-9,136c0,0,-10,55,-32,109H498c0,0,215,0,332,-90c0,0,117,-90,117,-256c0,0,0,-159,-129,-253c0,0,-46,-34,-103,-54L902,246c0,0,57,-82,107,-137c0,0,50,-55,115,-109H803c0,0,-30,0,-104,83c0,0,-73,83,-149,202L442,461V246c0,0,0,-81,9,-136c0,0,10,-56,32,-110Z" 
id="f1_1h"
transform="scale(0.001,-0.001)" />

<path d="M319,0c0,0,22,54,31,110c0,0,10,55,10,135V518L134,922c0,0,-57,100,-95,155c0,0,-37,55,-71,90H351c0,0,4,-29,12,-53c0,0,7,-24,22,-54L517,787l152,273c0,0,14,25,23,49c0,0,9,24,16,58h354c0,0,-35,-33,-73,-88c0,0,-38,-56,-99,-157L668,536V245c0,0,0,-80,9,-135c0,0,9,-56,32,-110Z" 
id="f1_1o"
transform="scale(0.001,-0.001)" />

<path d="M367,-20c0,0,-85,0,-142,12C225,-8,167,2,83,35V332c0,0,41,-55,107,-90c0,0,66,-35,130,-35c0,0,51,0,84,31c0,0,32,31,32,81c0,0,0,49,-23,86c0,0,-22,37,-82,83c0,0,-126,98,-184,181c0,0,-57,82,-57,165c0,0,0,155,106,253c0,0,106,98,272,98c0,0,62,0,133,-13c0,0,71,-13,120,-33V867c0,0,-59,49,-104,70c0,0,-46,20,-94,20c0,0,-47,0,-76,-24c0,0,-29,-25,-29,-63c0,0,0,-41,20,-73c0,0,21,-31,75,-73c0,0,130,-101,189,-189c0,0,59,-87,59,-180c0,0,0,-165,-110,-270C651,85,541,-20,367,-20Z" 
id="f1_1i"
transform="scale(0.001,-0.001)" />

<path d="M99,0c0,0,22,54,32,110c0,0,9,55,9,135V922c0,0,0,81,-10,136c0,0,-9,55,-31,109H489c0,0,-23,-54,-32,-109c0,0,-9,-55,-9,-136V712H790V922c0,0,0,81,-9,136c0,0,-10,55,-32,109h390c0,0,-22,-54,-32,-109c0,0,-9,-55,-9,-136V245c0,0,0,-80,9,-135c0,0,10,-56,32,-110H749c0,0,22,54,32,110c0,0,9,55,9,135V478H448V245c0,0,0,-80,9,-135c0,0,9,-56,32,-110Z" 
id="f1_17"
transform="scale(0.001,-0.001)" />

<path d="M822,206c14,0,28,0,42,1c0,0,53,50,87,150c0,0,34,101,34,210c0,0,0,188,-132,297c0,0,-113,95,-296,95c-13,0,-27,-1,-42,-2c0,0,-53,-49,-86,-150c0,0,-34,-102,-34,-212c0,0,0,-186,132,-295c0,0,114,-94,295,-94ZM690,-20c0,0,-276,0,-452,168C238,148,63,317,63,581c0,0,0,266,175,435c0,0,176,169,452,169c0,0,277,0,452,-169c0,0,175,-169,175,-435c0,0,0,-264,-175,-433c0,0,-175,-168,-452,-168Z" 
id="f1_1e"
transform="scale(0.001,-0.001)" />

<path d="M289,0c0,0,26,60,37,116c0,0,9,55,9,129V961c0,0,-94,-3,-160,-9c0,0,-116,-13,-188,-44l41,130l41,129H981L946,1042L912,917c0,0,-45,18,-154,32c0,0,-58,8,-115,11V245c0,0,0,-74,11,-129c0,0,10,-56,35,-116Z" 
id="f1_1j"
transform="scale(0.001,-0.001)" />

<path d="M693,499L573,830L462,499ZM-39,0c0,0,33,42,61,97c0,0,30,55,71,148l314,761c0,0,22,51,38,98c0,0,15,47,17,63H721c0,0,2,-16,18,-63c0,0,15,-47,37,-98L1091,245c0,0,41,-95,70,-150c0,0,30,-55,60,-95H849c0,0,3,25,-3,55c0,0,-6,30,-24,80L765,295H393L340,135c0,0,-17,-50,-22,-80c0,0,-5,-30,-2,-55Z" 
id="f1_10"
transform="scale(0.001,-0.001)" />

<path d="M108,0c0,0,22,54,31,110c0,0,10,55,10,135V985L-5,1167H418c0,0,21,-44,54,-99c0,0,34,-55,96,-146L857,495V922c0,0,0,81,-9,136c0,0,-9,55,-32,109h378c0,0,-23,-54,-32,-109c0,0,-9,-55,-9,-136V351c0,0,0,-76,11,-178c0,0,11,-101,27,-173H845c0,0,-7,25,-28,67c0,0,-21,42,-45,78L444,628V245c0,0,0,-80,9,-135c0,0,10,-56,32,-110Z" 
id="f1_1d"
transform="scale(0.001,-0.001)" />

<path d="M324,0L78,922c0,0,-23,85,-44,140c0,0,-22,55,-50,105H376c0,0,-7,-56,-7,-99c0,0,1,-42,11,-89L479,513L610,998c0,0,11,42,21,91c0,0,10,49,13,78H861c0,0,4,-36,12,-85c0,0,9,-50,18,-84L1021,492l115,540c0,0,8,33,6,63c0,0,-1,31,-12,72h378c0,0,-30,-50,-52,-105c0,0,-21,-56,-45,-140L1166,0H925L741,597L565,0Z" 
id="f1_1m"
transform="scale(0.001,-0.001)" />

<path d="M462,650c0,0,82,0,133,46c0,0,52,47,52,119c0,0,0,65,-48,106c0,0,-49,41,-125,41H452V650ZM103,0c0,0,22,54,32,110c0,0,9,55,9,135V922c0,0,0,81,-10,136c0,0,-9,55,-31,109H505c0,0,212,0,327,-93c0,0,114,-94,114,-268c0,0,0,-166,-127,-264c0,0,-127,-97,-343,-97H452V246c0,0,0,-81,9,-136c0,0,9,-56,32,-110Z" 
id="f1_1f"
transform="scale(0.001,-0.001)" />

<path d="M821,206c13,0,26,0,40,1c0,0,53,33,86,127c0,0,34,94,34,210c0,0,0,198,-131,314c0,0,-114,101,-297,101c-13,0,-27,-1,-40,-2c0,0,-53,-49,-87,-144c0,0,-33,-95,-33,-195c0,0,0,-197,131,-312c0,0,115,-100,297,-100Zm413,-442c-84,0,-186,15,-288,68c0,0,-113,58,-202,151c0,0,-22,-3,-48,-3c-3,0,-6,0,-9,0c0,0,-276,0,-452,168C235,148,60,316,60,581c0,0,0,266,175,435c0,0,176,169,452,169c0,0,277,0,452,-169c0,0,175,-169,175,-435c0,0,0,-265,-176,-433c0,0,-29,-28,-59,-51c0,0,51,-79,111,-141c0,0,104,-109,233,-165c0,0,-78,-27,-189,-27Z" 
id="f1_1g"
transform="scale(0.001,-0.001)" />

<path d="M512,-17c0,0,-191,0,-285,112c0,0,-94,113,-93,341V922c0,0,0,81,-9,136c0,0,-10,55,-32,109H483c0,0,-22,-54,-32,-109c0,0,-9,-56,-9,-136V502c0,0,0,-147,43,-219c0,0,43,-72,130,-72c0,0,85,0,127,62c0,0,42,61,42,187V922c0,0,0,80,-9,136c0,0,-10,55,-32,109h390c0,0,-22,-54,-31,-109c0,0,-10,-55,-10,-136V245c0,0,0,-80,9,-135c0,0,10,-56,32,-110H815l6,86C821,86,703,-17,512,-17Z" 
id="f1_1k"
transform="scale(0.001,-0.001)" />

<path d="M105,0c0,0,22,54,32,110c0,0,9,55,9,135V922c0,0,0,80,-10,135c0,0,-9,55,-31,110H495c0,0,-23,-54,-32,-109c0,0,-9,-55,-9,-136V245c0,0,0,-80,9,-135c0,0,9,-56,32,-110Z" 
id="f1_18"
transform="scale(0.001,-0.001)" />

<path d="M449,-255c0,0,-184,222,-259,382c0,0,-75,160,-75,331c0,0,0,172,75,332c0,0,75,161,259,382H673c0,0,-156,-201,-220,-362c0,0,-64,-160,-64,-352c0,0,0,-192,64,-352c0,0,64,-160,220,-361Z" 
id="f1_b"
transform="scale(0.001,-0.001)" />

<path d="M335,0c0,0,23,55,32,110c0,0,9,55,9,136V811L199,810v3l443,366V246c0,0,0,-81,10,-136c0,0,9,-56,31,-110Z" 
id="f1_k"
transform="scale(0.001,-0.001)" />

<path d="M90,0c0,0,22,54,32,110c0,0,9,55,9,135V996L-14,1167H428c0,0,2,-38,9,-63c0,0,8,-24,24,-44L752,691l296,369c0,0,23,28,33,53c0,0,10,24,11,54h346c0,0,-50,-120,-70,-208c0,0,-20,-88,-20,-184V245c0,0,0,-80,10,-135c0,0,9,-56,31,-110H999c0,0,23,54,32,110c0,0,9,55,9,135V675L741,291h-1L441,681V245c0,0,0,-80,9,-135c0,0,10,-56,32,-110Z" 
id="f1_1c"
transform="scale(0.001,-0.001)" />

<path d="M90,0c0,0,22,54,32,110c0,0,9,55,9,135V922c0,0,0,81,-9,136c0,0,-10,55,-32,109H480c0,0,-22,-54,-32,-109c0,0,-9,-55,-9,-136V739l269,348c0,0,23,27,33,45c0,0,11,18,14,35h396c0,0,-38,-23,-94,-79c0,0,-55,-55,-153,-166L651,635L957,245c0,0,84,-105,135,-160c0,0,51,-55,93,-85H749c0,0,-25,51,-60,107c0,0,-35,55,-95,138L439,463V245c0,0,0,-80,9,-135c0,0,10,-56,32,-110Z" 
id="f1_1a"
transform="scale(0.001,-0.001)" />

<path d="M115,-255c0,0,156,201,220,361c0,0,64,160,64,352c0,0,0,192,-64,352c0,0,-64,161,-220,362H339c0,0,184,-222,259,-383c0,0,75,-160,75,-331c0,0,0,-171,-75,-332c0,0,-75,-160,-259,-381Z" 
id="f1_c"
transform="scale(0.001,-0.001)" />

<path d="M406,0V763H155V870h2c16,0,114,2,178,48c0,0,70,51,104,157H549V0Z" 
id="f2_k"
transform="scale(0.001,-0.001)" />

<path d="M133,0V162H292V0Z" 
id="f2_h"
transform="scale(0.001,-0.001)" />

<path d="M312,0L24,1098l80,-1l81,1L380,230c0,0,6,-22,9,-42c0,0,3,-17,3,-26c0,4,1,13,4,28c0,0,4,20,9,40l232,867H804L1035,234c0,0,6,-20,10,-41c0,0,3,-19,3,-29c0,3,1,12,4,28c0,0,3,21,8,42l198,864l80,-1l79,1L1130,0H971L733,849c0,0,-6,21,-11,42c0,0,-4,21,-4,29c0,0,0,-9,-4,-30c0,0,-4,-20,-10,-41L471,0Z" 
id="f2_1m"
transform="scale(0.001,-0.001)" />

<path d="M118,0V799H246V662c0,0,17,32,36,58c0,0,76,102,187,102c0,0,19,0,38,-6V679l-27,1c0,0,-109,0,-168,-66c0,0,-60,-65,-60,-186V0Z" 
id="f2_2d"
transform="scale(0.001,-0.001)" />

<path d="M104,0V799H238V0Zm-2,946v152H239V946Z" 
id="f2_24"
transform="scale(0.001,-0.001)" />

<path d="M292,-9c0,0,-88,0,-124,38c0,0,-36,39,-36,134V689H22V799H132v224H266V799H392V689H266V163c0,0,0,-27,21,-43c0,0,21,-15,57,-15h48V1C392,1,324,-9,292,-9Z" 
id="f2_2f"
transform="scale(0.001,-0.001)" />

<path d="M649,461c0,0,-6,111,-55,172c0,0,-55,69,-160,69c0,0,-106,0,-170,-79c0,0,-50,-62,-60,-162ZM425,-20c0,0,-169,0,-266,106c0,0,-97,107,-97,297c0,0,0,201,102,320c0,0,103,119,276,119c0,0,157,0,253,-116c0,0,96,-117,96,-306l-1,-48H204c0,0,8,-119,54,-182c0,0,57,-76,180,-76c0,0,77,0,134,43c0,0,58,43,70,110H775C775,247,746,116,656,47c0,0,-90,-67,-231,-67Z" 
id="f2_20"
transform="scale(0.001,-0.001)" />

<path d="M99,0V1097H233V690l23,30c0,0,87,102,219,102c0,0,132,0,203,-71c0,0,72,-72,72,-204V0H616V514c0,0,0,99,-38,142c0,0,-38,44,-124,44c0,0,-102,0,-162,-73c0,0,-59,-74,-59,-199V0Z" 
id="f2_23"
transform="scale(0.001,-0.001)" />

<path d="M436,95c0,0,105,0,160,79c0,0,54,80,54,232c0,0,0,150,-52,222c0,0,-52,72,-161,72c0,0,-112,0,-163,-81c0,0,-51,-82,-51,-258c0,0,0,-127,55,-197c0,0,55,-69,158,-69ZM89,-315V799H216V685l7,10c0,0,86,127,228,127c0,0,156,0,248,-108c0,0,91,-107,91,-291c0,0,0,-208,-92,-326C698,97,606,-20,442,-20c0,0,-135,0,-215,102l-4,6V-315Z" 
id="f2_2b"
transform="scale(0.001,-0.001)" />

<path d="M99,0V799H226V681l30,39c0,0,87,102,219,102c0,0,132,0,203,-71c0,0,72,-72,72,-204V0H616V502c0,0,0,105,-41,151c0,0,-40,47,-132,47c0,0,-97,0,-154,-73c0,0,-56,-74,-56,-199V0Z" 
id="f2_29"
transform="scale(0.001,-0.001)" />

<path d="M394,-20c0,0,-159,0,-253,113c0,0,-95,114,-95,307c0,0,0,193,98,308c0,0,98,114,264,114c0,0,144,0,230,-78c0,0,85,-79,91,-217H600c0,0,-8,86,-59,133c0,0,-52,47,-138,47c0,0,-101,0,-159,-82c0,0,-58,-82,-58,-225c0,0,0,-152,54,-229c0,0,53,-77,159,-77c0,0,79,0,132,50c0,0,52,51,69,143H729C729,287,709,137,623,58c0,0,-86,-78,-229,-78Z" 
id="f2_1y"
transform="scale(0.001,-0.001)" />

<path d="M335,90c0,0,106,0,179,57c0,0,50,41,67,91c0,0,3,10,4,31c0,0,3,21,3,47v87c0,0,-38,-18,-83,-25L381,360c0,0,-97,-13,-142,-45c0,0,-44,-31,-44,-86c0,0,0,-67,36,-103c0,0,37,-36,104,-36ZM309,-20c0,0,-117,0,-186,61c0,0,-68,63,-68,169c0,0,0,108,64,171c0,0,65,64,189,79l183,23c0,0,22,3,42,8c0,0,26,7,40,27c0,0,15,20,15,51v6c0,0,0,64,-49,101c0,0,-48,36,-135,36c0,0,-83,0,-130,-38c0,0,-46,-39,-56,-115H94c0,0,10,131,92,197c0,0,83,66,238,66c0,0,145,0,222,-63c0,0,76,-63,76,-184V137c0,0,0,-21,12,-33c0,0,12,-12,33,-12c0,0,6,0,18,1c0,0,11,2,25,5V1c0,0,-20,-7,-41,-11c0,0,-22,-5,-37,-5c0,0,-76,0,-110,41c0,0,-22,28,-32,79c0,0,-15,-19,-34,-36c0,0,-101,-89,-247,-89Z" 
id="f2_1w"
transform="scale(0.001,-0.001)" />

<path d="M103,0V1097H237V0Z" 
id="f2_27"
transform="scale(0.001,-0.001)" />

<path d="M310,0L12,799H168L383,145L604,799H752L454,0Z" 
id="f2_2h"
transform="scale(0.001,-0.001)" />

<path d="M375,-20c0,0,-136,0,-203,66c0,0,-68,68,-68,204V799H238V284c0,0,0,-101,38,-146c0,0,39,-44,127,-44c0,0,97,0,153,75c0,0,57,75,57,203V799H747V0H620V122c0,0,-14,-22,-30,-41C590,81,504,-20,375,-20Z" 
id="f2_2g"
transform="scale(0.001,-0.001)" />

<path d="M424,94c0,0,107,0,169,83c0,0,63,83,63,223c0,0,0,140,-63,224c0,0,-62,83,-169,83c0,0,-106,0,-168,-83c0,0,-62,-84,-62,-224c0,0,0,-140,62,-223c0,0,62,-83,168,-83Zm0,-114c0,0,-165,0,-268,115C156,95,54,211,54,400c0,0,0,189,102,306c0,0,103,116,268,116c0,0,168,0,270,-116c0,0,102,-117,102,-306c0,0,0,-189,-102,-305C694,95,592,-20,424,-20Z" 
id="f2_2a"
transform="scale(0.001,-0.001)" />

<path d="M132,0V687H22V799H132V935c0,0,0,88,52,133c0,0,52,45,157,45l59,-3V989l-53,2c0,0,-39,0,-60,-24c0,0,-21,-25,-21,-71V799H400V687H266V0Z" 
id="f2_21"
transform="scale(0.001,-0.001)" />

<path d="M365,-315c0,0,-136,187,-199,359c0,0,-62,172,-62,359c0,0,0,186,62,358c0,0,63,172,199,360h92c0,0,-110,-192,-160,-365c0,0,-51,-172,-51,-353c0,0,0,-183,51,-355c0,0,50,-172,160,-363Z" 
id="f2_b"
transform="scale(0.001,-0.001)" />

<path d="M52,-315c0,0,109,192,160,363c0,0,50,173,50,354c0,0,0,183,-50,355c0,0,-51,173,-160,364h92c0,0,135,-188,198,-360c0,0,63,-172,63,-359c0,0,0,-187,-63,-359c0,0,-63,-171,-198,-358Z" 
id="f2_c"
transform="scale(0.001,-0.001)" />

<path d="M412,-328c0,0,-195,96,-303,284C109,-44,0,142,0,365c0,0,0,232,114,422c0,0,114,191,298,273v-31c0,0,-92,-51,-151,-139c0,0,-59,-88,-88,-223c0,0,-29,-136,-29,-282c0,0,0,-167,27,-301c0,0,26,-133,82,-221c0,0,55,-89,159,-159v-32Z" 
id="f3_c"
transform="scale(0.001,-0.001)" />

<path d="M34,-328v32c0,0,92,50,151,138c0,0,59,88,88,222c0,0,29,135,29,283c0,0,0,165,-27,300c0,0,-26,134,-82,222c0,0,-56,89,-159,160v31c0,0,194,-96,303,-284c0,0,108,-187,108,-410c0,0,0,-232,-114,-422c0,0,-114,-191,-297,-272Z" 
id="f3_d"
transform="scale(0.001,-0.001)" />

<path d="M0,368V478H849V368Z" 
id="f2_99"
transform="scale(0.001,-0.001)" />

<path d="M393,-20c0,0,-169,0,-252,65c0,0,-83,67,-92,210H178c0,0,10,-85,61,-123c0,0,50,-38,154,-38c0,0,90,0,136,34c0,0,47,35,47,100c0,0,0,42,-31,64c0,0,-30,21,-123,43L283,368c0,0,-112,27,-160,75c0,0,-48,48,-48,135c0,0,0,112,80,178c0,0,81,66,218,66c0,0,140,0,222,-68c0,0,82,-67,88,-187H557c0,0,-6,67,-55,103c0,0,-48,37,-129,37c0,0,-84,0,-127,-29c0,0,-44,-29,-44,-85c0,0,0,-43,31,-65c0,0,30,-21,121,-43L493,452c0,0,117,-28,167,-78c0,0,49,-49,49,-138c0,0,0,-119,-86,-188c0,0,-85,-68,-230,-68Z" 
id="f2_2e"
transform="scale(0.001,-0.001)" />

<path d="M424,-28c0,0,-180,0,-272,86c0,0,-92,87,-100,266H192c0,0,12,-126,66,-180c0,0,55,-54,170,-54c0,0,100,0,163,57c0,0,64,57,64,147c0,0,0,94,-61,149c0,0,-52,48,-135,54c0,0,-38,2,-72,2c0,0,-34,0,-45,-3V613c0,0,17,-3,51,-3c0,0,35,0,68,4c0,0,66,8,106,43c0,0,55,45,55,125c0,0,0,77,-58,125c0,0,-58,48,-148,48c0,0,-96,0,-147,-58c0,0,-51,-59,-56,-175H82c0,0,0,168,89,260c0,0,88,93,250,93c0,0,153,0,247,-77c0,0,94,-76,94,-202c0,0,0,-124,-95,-201c0,0,-18,-15,-39,-27c0,0,39,-17,69,-41c0,0,101,-79,101,-214c0,0,0,-151,-105,-246c0,0,-104,-95,-269,-95Z" 
id="f2_m"
transform="scale(0.001,-0.001)" />

<path d="M39,0V0c0,0,0,170,84,277c0,0,85,108,317,236c0,0,113,62,154,115c0,0,41,52,41,134c0,0,0,86,-62,141c0,0,-61,54,-156,54c0,0,-101,0,-158,-68c0,0,-57,-68,-60,-194H67c0,0,-2,178,95,279c0,0,98,101,273,101c0,0,149,0,245,-89c0,0,94,-88,94,-228c0,0,0,-118,-60,-195c0,0,-61,-76,-229,-169C485,394,303,294,237,212c0,0,-28,-36,-46,-81H774V0Z" 
id="f2_l"
transform="scale(0.001,-0.001)" />

<path d="M62,-123V268c0,0,0,230,56,452c0,0,47,190,134,334c0,0,87,144,204,242c0,0,85,73,194,119l18,-16c0,0,-211,-145,-335,-339c0,0,-98,-156,-149,-374c0,0,-50,-218,-50,-403V-123Z" 
id="f3_4o"
transform="scale(0.001,-0.001)" />

<path d="M617,-123V283c0,0,0,236,-63,459c0,0,-63,223,-188,392c0,0,-108,146,-282,265l17,16c0,0,180,-76,320,-248c0,0,139,-172,204,-417c0,0,64,-245,64,-482V-123Z" 
id="f3_54"
transform="scale(0.001,-0.001)" />

<path d="M62,-123V1415h72V-123Z" 
id="f3_4p"
transform="scale(0.001,-0.001)" />

<path d="M617,-123V1415h72V-123Z" 
id="f3_55"
transform="scale(0.001,-0.001)" />

<path d="M650,-123c0,0,-180,75,-319,246c0,0,-140,172,-205,418c0,0,-64,245,-64,481v393h72V1007c0,0,0,-236,63,-459c0,0,63,-223,189,-391c0,0,108,-145,282,-265l-18,-15Z" 
id="f3_4q"
transform="scale(0.001,-0.001)" />

<path d="M101,-123l-17,15c0,0,210,144,334,339c0,0,99,156,149,373c0,0,50,218,50,403v408h72V1022c0,0,0,-230,-56,-451c0,0,-48,-191,-134,-335C499,236,412,92,295,-5c0,0,-84,-73,-194,-118Z" 
id="f3_56"
transform="scale(0.001,-0.001)" />

<path d="M0,356v74H784V356Z" 
id="f3_h"
transform="scale(0.001,-0.001)" />

<path d="M355,0V355H0v72H355V784h72V427H782V355H427V0Z" 
id="f3_f"
transform="scale(0.001,-0.001)" />

<path d="M248,0L21,799H169L322,163L478,799H627L788,158L950,799h133L857,0H713L548,624L392,0Z" 
id="f2_2i"
transform="scale(0.001,-0.001)" />

<path d="M418,95c0,0,98,0,158,73c0,0,59,73,59,193c0,0,0,170,-54,254c0,0,-54,85,-163,85c0,0,-113,0,-165,-72c0,0,-52,-71,-52,-227c0,0,0,-147,57,-227c0,0,56,-79,160,-79ZM394,-336c0,0,-136,0,-216,62c0,0,-79,63,-96,182H219c0,0,12,-64,57,-98c0,0,45,-35,116,-35c0,0,116,0,176,73c0,0,61,73,61,211V85l-1,-1C628,84,545,-20,412,-20c0,0,-161,0,-256,118c0,0,-94,120,-94,324c0,0,0,179,93,290c0,0,93,110,244,110c0,0,144,0,228,-124l10,-14V799H763V59c0,0,-1,-201,-91,-298c0,0,-91,-97,-278,-97Z" 
id="f2_22"
transform="scale(0.001,-0.001)" />

<path d="M390,-1V329H60V441H390V771H503V441H833V329H503V-1Z" 
id="f2_e"
transform="scale(0.001,-0.001)" />

<path d="M511,373V863L169,383l-7,-10ZM511,0V258H38V383l496,691H646V373H799V258H646V0Z" 
id="f2_n"
transform="scale(0.001,-0.001)" />

<path d="M417,-28c0,0,-161,0,-259,79c0,0,-98,81,-109,223H189c0,0,11,-90,72,-139c0,0,61,-49,162,-49c0,0,96,0,158,68c0,0,61,68,61,175c0,0,0,112,-64,178c0,0,-64,66,-173,66c0,0,-59,0,-115,-28c0,0,-55,-29,-84,-73L93,480l77,573H727V922H271L225,629l4,3c0,0,89,60,188,60c0,0,169,0,269,-94c0,0,99,-93,99,-253c0,0,0,-165,-103,-269C682,76,579,-28,417,-28Z" 
id="f2_o"
transform="scale(0.001,-0.001)" />

<path d="M140,-21c0,0,-26,0,-44,17C96,-4,79,13,79,40c0,0,0,19,6,33c0,0,8,20,34,55c0,0,46,60,64,126c0,0,32,114,41,321H190c0,0,-55,0,-81,-18c0,0,-44,-26,-80,-89H0c0,0,42,129,98,178c0,0,43,37,120,37H743V575H562c0,0,-27,-171,-27,-327c0,0,0,-77,27,-110c0,0,27,-33,67,-33c0,0,33,0,56,22c0,0,24,22,31,65h27C743,192,730,74,686,26c0,0,-44,-47,-98,-47c0,0,-58,0,-97,51c0,0,-39,53,-39,198c0,0,0,91,28,347H286c0,0,-23,-390,-56,-494c0,0,-33,-102,-90,-102Z" 
id="f3_2c"
transform="scale(0.001,-0.001)" />

<path d="M432,92c0,0,96,0,156,66c0,0,61,65,61,169c0,0,0,103,-61,169c0,0,-60,66,-156,66c0,0,-95,0,-156,-66c0,0,-61,-66,-61,-169c0,0,0,-104,61,-169c0,0,61,-66,156,-66ZM425,-28c0,0,-176,0,-271,135c0,0,-95,136,-95,388c0,0,0,278,103,429c0,0,103,151,293,151c0,0,142,0,226,-77c0,0,84,-76,90,-211H638c0,0,-8,80,-56,123c0,0,-47,43,-127,43c0,0,-125,0,-192,-119c0,0,-58,-102,-64,-278c0,0,100,127,255,127c0,0,152,0,245,-98c0,0,93,-98,93,-258c0,0,0,-161,-101,-259c0,0,-101,-96,-266,-96Z" 
id="f2_p"
transform="scale(0.001,-0.001)" />

<path d="M531,588l1,309L333,598l-7,-10ZM489,0c0,0,9,23,15,78c0,0,6,54,6,111V373H75V599c0,0,135,154,226,273c0,0,89,118,202,290H787L797,588h19c0,0,40,0,80,4c0,0,39,5,58,12V356c0,0,-18,7,-57,12c0,0,-39,5,-77,5H801V189c0,0,0,-57,2,-111c0,0,2,-55,5,-78Z" 
id="f1_n"
transform="scale(0.001,-0.001)" />

<path d="M528,-29c0,0,-215,0,-336,99C192,70,75,170,75,342v8H211c0,0,4,-119,87,-184c0,0,83,-65,231,-65c0,0,136,0,207,47c0,0,71,47,71,138c0,0,0,79,-47,118c0,0,-47,37,-187,71L382,520c0,0,-145,34,-207,96c0,0,-62,61,-62,169c0,0,0,158,107,250c0,0,107,92,289,92c0,0,185,0,295,-92c0,0,110,-93,117,-256H784c0,0,-9,104,-81,161c0,0,-72,56,-194,56c0,0,-125,0,-190,-48c0,0,-65,-49,-65,-142c0,0,0,-64,43,-95c0,0,43,-32,174,-62L662,603c0,0,154,-37,220,-108c0,0,65,-71,65,-201c0,0,0,-150,-113,-237c0,0,-113,-86,-306,-86Z" 
id="f2_1i"
transform="scale(0.001,-0.001)" />

<path d="M17,0L389,412L201,800H376L500,518L742,800H904L554,410L750,0H580L448,303L187,0Z" 
id="f4_2j"
transform="scale(0.001,-0.001)" />

<path d="M0,214v74H784V214ZM0,494v72H784V494Z" 
id="f3_x"
transform="scale(0.001,-0.001)" />

<path d="M398,0C398,0,266,0,185,39c0,0,-82,39,-133,124C52,163,0,248,0,342c0,0,0,144,103,243c0,0,103,98,292,98H694V611H387c0,0,-99,0,-166,-32c0,0,-68,-32,-105,-88c0,0,-26,-40,-41,-113H694V304H75c0,0,30,-120,103,-176c0,0,73,-56,210,-56H694V0Z" 
id="f3_40"
transform="scale(0.001,-0.001)" />

<path d="M96,-299V1104H382V995H217V-191H382V-299Z" 
id="f2_1q"
transform="scale(0.001,-0.001)" />

<path d="M424,92c0,0,114,0,170,107c0,0,57,108,56,323c0,0,1,216,-56,324c0,0,-56,107,-170,107c0,0,-112,0,-168,-107c0,0,-56,-108,-57,-324c0,0,1,-215,57,-323c0,0,56,-107,168,-107Zm0,-120c0,0,-176,0,-271,142c0,0,-96,143,-96,408c0,0,0,265,96,409c0,0,95,144,271,144c0,0,178,0,273,-144c0,0,96,-144,96,-409c0,0,0,-265,-96,-408c0,0,-95,-142,-273,-142Z" 
id="f2_j"
transform="scale(0.001,-0.001)" />

<path d="M133,-224v71c0,0,47,8,65,52c0,0,14,33,17,101H133V163H292V27c0,0,0,-114,-36,-172c0,0,-37,-58,-123,-79Z" 
id="f2_f"
transform="scale(0.001,-0.001)" />

<path d="M42,-299v108H207V995H42v109H329V-299Z" 
id="f2_1s"
transform="scale(0.001,-0.001)" />

<path d="M571,-29c0,0,-231,0,-367,153C204,124,67,279,67,543c0,0,0,268,137,426c0,0,136,158,367,158c0,0,195,0,324,-105c0,0,128,-106,150,-287H816c0,0,-11,89,-76,142c0,0,-65,52,-166,52c0,0,-128,0,-200,-102c0,0,-73,-102,-73,-283c0,0,0,-176,72,-276c0,0,72,-100,201,-100c0,0,101,0,166,58c0,0,65,58,76,157h229c0,0,-21,-190,-149,-302C896,81,769,-29,571,-29Z" 
id="f5_12"
transform="scale(0.001,-0.001)" />

<path d="M109,0V1097H337V685H767v412H995V0H767V497H337V0Z" 
id="f5_17"
transform="scale(0.001,-0.001)" />

<path d="M695,412L549,853h-1L403,412ZM31,0L419,1097H684L1072,0H829L756,223H339L267,0Z" 
id="f5_10"
transform="scale(0.001,-0.001)" />

<path d="M537,581c0,0,96,0,144,42c0,0,48,43,48,129c0,0,0,78,-48,117c0,0,-48,39,-144,39H345V581ZM116,0V1097H575c0,0,188,0,285,-88c0,0,98,-87,98,-255c0,0,0,-178,-98,-270c0,0,-97,-92,-285,-92c0,0,-21,0,-53,0c-47,0,-119,-1,-177,-2V0Z" 
id="f5_1f"
transform="scale(0.001,-0.001)" />

<path d="M353,0V903H22v194H913V903H582V0Z" 
id="f5_1j"
transform="scale(0.001,-0.001)" />

<path d="M116,0V1097H923V903H345V670H881V481H345V195H948V0Z" 
id="f5_14"
transform="scale(0.001,-0.001)" />

<path d="M611,618c0,0,89,0,134,36c0,0,44,36,44,110c0,0,0,72,-42,108c0,0,-42,36,-127,36H345V618ZM116,0V1097H669c0,0,157,0,253,-84c0,0,96,-84,96,-221c0,0,0,-158,-107,-231c0,0,-28,-20,-64,-33c0,0,20,-8,37,-18c0,0,94,-56,97,-188l6,-180c0,0,1,-53,11,-76c0,0,9,-22,37,-36V1H782c0,0,-9,17,-16,74c0,0,-6,56,-7,121l-1,101c0,0,-2,74,-44,106c0,0,-42,31,-140,31H345V0Z" 
id="f5_1h"
transform="scale(0.001,-0.001)" />

<path d="M39,0V0c0,0,0,149,75,256c0,0,76,107,284,253c0,0,93,65,131,119c0,0,38,54,38,121c0,0,0,72,-42,116c0,0,-42,44,-110,44c0,0,-74,0,-115,-55c0,0,-41,-55,-38,-150H53c0,0,-5,177,93,281c0,0,98,103,270,103c0,0,161,0,263,-95c0,0,101,-96,101,-247c0,0,0,-124,-57,-205c0,0,-58,-81,-217,-183c0,0,-147,-93,-201,-169v-1H780V0Z" 
id="f5_l"
transform="scale(0.001,-0.001)" />

<path d="M98,0V1097H327V0Z" 
id="f5_18"
transform="scale(0.001,-0.001)" />

<path d="M106,0V1097H346L786,327v770h214V0H772L320,790V0Z" 
id="f5_1d"
transform="scale(0.001,-0.001)" />

<path d="M401,0L29,1098l122,-1l121,1L513,259l241,839l117,-1l119,1L618,0Z" 
id="f5_1l"
transform="scale(0.001,-0.001)" />

<path d="M510,-29c0,0,-208,0,-325,95C185,66,68,162,59,339H280c0,0,4,-87,64,-134c0,0,59,-47,166,-47c0,0,109,0,171,36c0,0,61,35,61,98c0,0,0,62,-44,91c0,0,-43,30,-185,61c0,0,-261,58,-348,126c0,0,-88,67,-88,210c0,0,0,160,116,254c0,0,115,93,312,93c0,0,184,0,300,-97c0,0,115,-97,128,-261H710c0,0,-6,78,-68,124c0,0,-63,46,-163,46c0,0,-87,0,-137,-39c0,0,-49,-38,-49,-107c0,0,0,-49,52,-76c0,0,50,-27,215,-64c0,0,239,-54,320,-124c0,0,80,-69,80,-223c0,0,0,-155,-121,-246c0,0,-122,-89,-329,-89Z" 
id="f5_1i"
transform="scale(0.001,-0.001)" />

<path d="M587,-29c0,0,1,0,1,0Zm1,0v0c-7,0,-241,2,-380,153C208,124,67,279,67,543c0,0,0,268,147,426c0,0,146,158,395,158c0,0,200,0,329,-99c0,0,130,-100,151,-270H860c0,0,-9,71,-80,125c0,0,-72,54,-159,54c0,0,-149,0,-233,-104c0,0,-85,-103,-85,-287c0,0,0,-187,81,-284c0,0,81,-97,236,-98c5,0,134,2,208,102c0,0,41,57,60,135v2H630V592h459V0H936L914,142L900,124C900,124,785,-29,588,-29Z" 
id="f5_16"
transform="scale(0.001,-0.001)" />

<path d="M594,164c0,0,140,0,220,101c0,0,79,100,79,279c0,0,0,183,-79,286c0,0,-80,103,-220,103c0,0,-139,0,-219,-103c0,0,-79,-103,-79,-286c0,0,0,-179,79,-279c0,0,79,-101,219,-101Zm0,-193c0,0,-242,0,-384,153C210,124,67,279,67,543c0,0,0,268,143,426c0,0,142,158,384,158c0,0,243,0,385,-158c0,0,143,-158,143,-426c0,0,0,-264,-143,-419C979,124,837,-29,594,-29Z" 
id="f5_1e"
transform="scale(0.001,-0.001)" />

<path d="M106,0V1097H441L641,228l197,869h331V0H955V922L750,0H525L320,943V0Z" 
id="f5_1c"
transform="scale(0.001,-0.001)" />

<path d="M116,0V1097H897V903H345V653H826V464H345V0Z" 
id="f5_15"
transform="scale(0.001,-0.001)" />

<path d="M553,-29c0,0,-226,0,-334,107c0,0,-109,109,-109,335v684H338V405c0,0,0,-118,54,-177c0,0,53,-59,161,-59c0,0,115,0,164,54c0,0,50,54,50,182v692H995V413c0,0,1,-235,-103,-339C892,74,788,-29,553,-29Z" 
id="f5_1k"
transform="scale(0.001,-0.001)" />

<path d="M435,0V856c0,0,-48,-47,-127,-93c0,0,-79,-46,-142,-69V824c0,0,113,52,197,128c0,0,85,75,120,146h86V0Z" 
id="f6_l"
transform="scale(0.001,-0.001)" />

<path d="M125,0V1051H268V115H799V0Z" 
id="f0_1c"
transform="scale(0.001,-0.001)" />

<path d="M106,0V620c0,0,0,85,-5,188H228c0,0,6,-138,6,-165h3c0,0,32,103,74,141c0,0,42,38,118,38c0,0,27,0,54,-7V692c0,0,-26,7,-71,7c0,0,-84,0,-128,-72c0,0,-44,-72,-44,-206V0Z" 
id="f0_2e"
transform="scale(0.001,-0.001)" />

<path d="M606,-14c0,0,-164,0,-284,65c0,0,-119,66,-182,189c0,0,-63,123,-63,291c0,0,0,255,137,396c0,0,137,140,386,140c0,0,174,0,283,-59c0,0,109,-59,168,-189L915,779c0,0,-44,90,-123,131c0,0,-79,41,-196,41c0,0,-182,0,-278,-110c0,0,-96,-110,-96,-310c0,0,0,-200,102,-315c0,0,102,-115,282,-115c0,0,103,0,193,31c0,0,89,31,144,85V407H629V526h445V164c0,0,-83,-85,-205,-132c0,0,-121,-46,-263,-46Z" 
id="f0_17"
transform="scale(0.001,-0.001)" />

<path d="M355,-14c0,0,-133,0,-194,65c0,0,-62,66,-62,219V808H234V296c0,0,0,-80,16,-124c0,0,16,-44,50,-64c0,0,34,-19,101,-19c0,0,97,0,153,66c0,0,55,67,55,185V808H744V172c0,0,0,-141,4,-172H621c0,0,0,4,-1,20c0,0,-1,17,-2,38c0,0,-1,21,-3,80h-2C613,138,567,55,506,20c0,0,-61,-34,-151,-34Z" 
id="f0_2h"
transform="scale(0.001,-0.001)" />

<path d="M395,89c0,0,115,0,166,79c0,0,51,79,51,246c0,0,0,160,-51,235c0,0,-51,75,-164,75c0,0,-102,0,-147,-75c0,0,-45,-75,-45,-244c0,0,0,-170,45,-243c0,0,45,-73,145,-73ZM361,-14c0,0,-153,0,-225,102c0,0,-72,103,-72,312c0,0,0,422,297,422c0,0,92,0,153,-33c0,0,61,-34,98,-107h2l-2,90v335H747V166c0,0,0,-126,4,-166H623c0,0,-2,12,-5,55c0,0,-3,44,-3,75h-3c0,0,-37,-78,-98,-111c0,0,-62,-33,-153,-33Z" 
id="f0_20"
transform="scale(0.001,-0.001)" />

<path d="M140,0V163H285V0Z" 
id="f0_i"
transform="scale(0.001,-0.001)" />


</defs>
</svg>