<?xml version="1.0" encoding="UTF-8" standalone="no"?>
<!DOCTYPE svg PUBLIC "-//W3C//DTD SVG 1.1//EN"
"http://www.w3.org/Graphics/SVG/1.1/DTD/svg11.dtd">
<svg viewBox="0 0 734 1106" version="1.1" xmlns="http://www.w3.org/2000/svg" xmlns:xlink="http://www.w3.org/1999/xlink">
<defs>
<style type="text/css"><![CDATA[
.g0_82{
fill: none;
stroke: #000000;
stroke-width: 0.7638889;
stroke-linecap: round;
stroke-linejoin: miter;
}
.g1_82{
fill: none;
stroke: #000000;
stroke-width: 0.7653555;
stroke-linecap: round;
stroke-linejoin: miter;
}
.g2_82{
fill: none;
stroke: #000000;
stroke-width: 0.15277778;
stroke-linecap: round;
stroke-linejoin: miter;
}
.g3_82{
}
.g4_82{
fill: none;
stroke: #000000;
stroke-width: 0.7624222;
stroke-linecap: round;
stroke-linejoin: miter;
}
.g5_82{
fill: none;
stroke: #000000;
stroke-width: 0.7619333;
stroke-linecap: round;
stroke-linejoin: miter;
}
]]></style>
</defs>
<g fill="#D4D4D4" fill-opacity="0.56" >
<use xlink:href="#f0_1f" transform="matrix(50.9,-50.9,50.9,50.9,122.6,924.1)" />
<use xlink:href="#f0_2a" transform="matrix(50.9,-50.9,50.9,50.9,183.2,863.6)" />
<use xlink:href="#f0_28" transform="matrix(50.9,-50.9,50.9,50.9,226.4,820.3)" />
<use xlink:href="#f0_25" transform="matrix(50.9,-50.9,50.9,50.9,243.7,803.1)" />
<use xlink:href="#f0_2a" transform="matrix(50.9,-50.9,50.9,50.9,260.9,785.8)" />
<use xlink:href="#f0_21" transform="matrix(50.9,-50.9,50.9,50.9,304.2,742.5)" />
<use xlink:href="#f0_2k" transform="matrix(50.9,-50.9,50.9,50.9,347.4,699.3)" />
<use xlink:href="#f0_1x" transform="matrix(50.9,-50.9,50.9,50.9,386.3,660.4)" />
<use xlink:href="#f0_29" transform="matrix(50.9,-50.9,50.9,50.9,429.6,617.2)" />
<use xlink:href="#f0_2c" transform="matrix(50.9,-50.9,50.9,50.9,494.4,552.4)" />
<use xlink:href="#f0_2b" transform="matrix(50.9,-50.9,50.9,50.9,537.6,509.1)" />
<use xlink:href="#f0_25" transform="matrix(50.9,-50.9,50.9,50.9,580.8,465.9)" />
<use xlink:href="#f0_2a" transform="matrix(50.9,-50.9,50.9,50.9,598.1,448.6)" />
<use xlink:href="#f0_2g" transform="matrix(50.9,-50.9,50.9,50.9,641.4,405.4)" />
</g>
<g fill="#000000" >
<use xlink:href="#f1_b" transform="matrix(10.4,0,0,10.4,132,123.3)" />
<use xlink:href="#f1_24" transform="matrix(10.4,0,0,10.4,137.3,123.3)" />
<use xlink:href="#f1_24" transform="matrix(10.4,0,0,10.4,140.8,123.3)" />
<use xlink:href="#f1_24" transform="matrix(10.4,0,0,10.4,144.4,123.3)" />
<use xlink:href="#f1_c" transform="matrix(10.4,0,0,10.4,147.9,123.3)" />
</g>
<path d="M174.6,118.8h20.1m23.4,0h11.7m110.7,0H377" class="g0_82" />
<g fill="#000000" >
<use xlink:href="#f1_k" transform="matrix(10.7,0,0,10.6,220.2,112.6)" />
<use xlink:href="#f1_2e" transform="matrix(10.7,0,0,10.6,341.4,112.6)" />
<use xlink:href="#f1_24" transform="matrix(10.7,0,0,10.6,349.7,112.6)" />
<use xlink:href="#f1_29" transform="matrix(10.7,0,0,10.6,353.5,112.6)" />
<use xlink:href="#f1_h" transform="matrix(10.7,0,0,10.6,233.7,123.1)" />
<use xlink:href="#f1_1y" transform="matrix(10.7,0,0,10.6,277.6,123.1)" />
<use xlink:href="#f1_2a" transform="matrix(10.7,0,0,10.6,285.9,123.1)" />
<use xlink:href="#f1_2e" transform="matrix(10.7,0,0,10.6,295.2,123.1)" />
<use xlink:href="#f1_f" transform="matrix(10.7,0,0,10.6,381.1,123.1)" />
<use xlink:href="#f1_j" transform="matrix(10.7,0,0,10.6,445.1,123.1)" />
<use xlink:href="#f1_h" transform="matrix(10.7,0,0,10.6,454.5,123.1)" />
<use xlink:href="#f2_1z" transform="matrix(10.7,0,0,10.6,174.5,112.6)" />
<use xlink:href="#f2_2j" transform="matrix(10.7,0,0,10.6,183.9,112.6)" />
<use xlink:href="#f2_2j" transform="matrix(10.7,0,0,10.6,366.4,112.6)" />
<use xlink:href="#f2_2k" transform="matrix(10.7,0,0,10.6,241.9,123.1)" />
<use xlink:href="#f2_2j" transform="matrix(10.7,0,0,10.6,307.7,123.1)" />
<use xlink:href="#f2_2j" transform="matrix(10.7,0,0,10.6,409.7,123.1)" />
<use xlink:href="#f2_1z" transform="matrix(10.7,0,0,10.6,174.5,138.8)" />
<use xlink:href="#f2_2k" transform="matrix(10.7,0,0,10.6,183.9,138.8)" />
<use xlink:href="#f2_2j" transform="matrix(10.7,0,0,10.6,219.1,138.8)" />
<use xlink:href="#f2_2j" transform="matrix(10.7,0,0,10.6,354,138.8)" />
<use xlink:href="#f3_f" transform="matrix(10.6,0,0,10.6,201.9,123.1)" />
<use xlink:href="#f3_x" transform="matrix(10.6,0,0,10.6,260.4,123.1)" />
<use xlink:href="#f3_f" transform="matrix(10.6,0,0,10.6,324.5,123.1)" />
<use xlink:href="#f3_y" transform="matrix(10.6,0,0,10.6,428.2,123.1)" />
<use xlink:href="#f1_b" transform="matrix(10.4,0,0,10.4,130.9,198.3)" />
<use xlink:href="#f1_24" transform="matrix(10.4,0,0,10.4,136.2,198.3)" />
<use xlink:href="#f1_2h" transform="matrix(10.4,0,0,10.4,139.7,198.3)" />
<use xlink:href="#f1_c" transform="matrix(10.4,0,0,10.4,147.7,198.3)" />
</g>
<path d="M227.6,194h20.1" class="g0_82" />
<g fill="#000000" >
<use xlink:href="#f1_m" transform="matrix(7.9,0,0,7.9,200.2,188.7)" />
<use xlink:href="#f1_1y" transform="matrix(10.5,0,0,10.5,174.1,198.3)" />
<use xlink:href="#f1_2a" transform="matrix(10.5,0,0,10.5,182.5,198.3)" />
<use xlink:href="#f1_2e" transform="matrix(10.5,0,0,10.5,191.8,198.3)" />
<use xlink:href="#f1_1y" transform="matrix(10.5,0,0,10.5,270.7,198.3)" />
<use xlink:href="#f1_2a" transform="matrix(10.5,0,0,10.5,279,198.3)" />
<use xlink:href="#f1_2e" transform="matrix(10.5,0,0,10.5,288.4,198.3)" />
<use xlink:href="#f1_2e" transform="matrix(10.5,0,0,10.5,336.5,198.3)" />
<use xlink:href="#f1_24" transform="matrix(10.5,0,0,10.5,344.8,198.3)" />
<use xlink:href="#f1_29" transform="matrix(10.5,0,0,10.5,348.6,198.3)" />
<use xlink:href="#f1_h" transform="matrix(10.5,0,0,10.5,371.1,198.3)" />
<use xlink:href="#f2_1z" transform="matrix(10.5,0,0,10.5,227.7,187.8)" />
<use xlink:href="#f2_2k" transform="matrix(10.5,0,0,10.5,237,187.8)" />
<use xlink:href="#f2_2j" transform="matrix(10.5,0,0,10.5,213,198.3)" />
<use xlink:href="#f2_2j" transform="matrix(10.5,0,0,10.5,300.8,198.3)" />
<use xlink:href="#f2_2j" transform="matrix(10.5,0,0,10.5,361.5,198.3)" />
<use xlink:href="#f2_1z" transform="matrix(10.5,0,0,10.5,227.7,213.9)" />
<use xlink:href="#f2_2j" transform="matrix(10.5,0,0,10.5,237,213.9)" />
<use xlink:href="#f3_f" transform="matrix(10.5,0,0,10.5,255,198.3)" />
<use xlink:href="#f3_x" transform="matrix(10.5,0,0,10.5,319.3,198.3)" />
<use xlink:href="#f1_b" transform="matrix(10.4,0,0,10.4,134.6,264.5)" />
<use xlink:href="#f1_2h" transform="matrix(10.4,0,0,10.4,139.9,264.5)" />
<use xlink:href="#f1_c" transform="matrix(10.4,0,0,10.4,148.1,264.5)" />
<use xlink:href="#f3_c" transform="matrix(10.4,0,0,18.6,223.7,265.6)" />
<use xlink:href="#f3_d" transform="matrix(10.4,0,0,18.6,283.5,265.8)" />
<use xlink:href="#f1_m" transform="matrix(7.8,0,0,7.8,273.6,257)" />
<use xlink:href="#f1_j" transform="matrix(10.4,0,0,10.4,336.9,266.5)" />
<use xlink:href="#f3_f" transform="matrix(10.4,0,0,10.4,208.6,266.5)" />
<use xlink:href="#f3_h" transform="matrix(10.4,0,0,10.4,247.6,266.5)" />
<use xlink:href="#f3_x" transform="matrix(10.4,0,0,10.4,319.8,266.5)" />
<use xlink:href="#f2_2k" transform="matrix(10.4,0,0,10.4,174.4,266.5)" />
<use xlink:href="#f2_1z" transform="matrix(10.4,0,0,10.4,182.7,266.5)" />
<use xlink:href="#f2_2j" transform="matrix(10.4,0,0,10.4,192,266.5)" />
<use xlink:href="#f2_2j" transform="matrix(10.4,0,0,10.4,231,266.5)" />
<use xlink:href="#f2_2k" transform="matrix(10.4,0,0,10.4,263.2,266.5)" />
<use xlink:href="#f2_1z" transform="matrix(10.4,0,0,10.4,291.9,266.5)" />
<use xlink:href="#f2_2k" transform="matrix(10.4,0,0,10.4,301.3,266.5)" />
<use xlink:href="#f1_b" transform="matrix(10.4,0,0,10.4,130.9,320.2)" />
<use xlink:href="#f1_2h" transform="matrix(10.4,0,0,10.4,136.2,320.2)" />
<use xlink:href="#f1_24" transform="matrix(10.4,0,0,10.4,144.4,320.2)" />
<use xlink:href="#f1_c" transform="matrix(10.4,0,0,10.4,148,320.2)" />
<use xlink:href="#f3_c" transform="matrix(10.4,0,0,18.6,244.9,321.4)" />
<use xlink:href="#f3_d" transform="matrix(10.4,0,0,18.6,332.2,321.5)" />
<use xlink:href="#f1_m" transform="matrix(7.8,0,0,7.8,262.6,312.7)" />
<use xlink:href="#f1_l" transform="matrix(10.4,0,0,10.4,293.4,322.2)" />
<use xlink:href="#f3_x" transform="matrix(10.4,0,0,10.4,228.3,322.2)" />
<use xlink:href="#f3_f" transform="matrix(10.4,0,0,10.4,277.8,322.2)" />
<use xlink:href="#f2_2k" transform="matrix(7.8,0,0,7.8,193.1,312.7)" />
<use xlink:href="#f2_2k" transform="matrix(7.8,0,0,7.8,321.4,312.7)" />
<use xlink:href="#f2_2k" transform="matrix(10.4,0,0,10.4,174.4,322.2)" />
<use xlink:href="#f2_20" transform="matrix(10.4,0,0,10.4,182.7,322.2)" />
<use xlink:href="#f2_1z" transform="matrix(10.4,0,0,10.4,200.7,322.2)" />
<use xlink:href="#f2_2j" transform="matrix(10.4,0,0,10.4,210,322.2)" />
<use xlink:href="#f2_2k" transform="matrix(10.4,0,0,10.4,252.2,322.2)" />
<use xlink:href="#f2_2j" transform="matrix(10.4,0,0,10.4,302.7,322.2)" />
<use xlink:href="#f2_20" transform="matrix(10.4,0,0,10.4,311,322.2)" />
<use xlink:href="#f2_1z" transform="matrix(10.4,0,0,10.4,340.7,322.2)" />
<use xlink:href="#f2_2k" transform="matrix(10.4,0,0,10.4,350,322.2)" />
<use xlink:href="#f1_q" transform="matrix(10.4,0,0,10.4,84.9,362.9)" />
<use xlink:href="#f1_h" transform="matrix(10.4,0,0,10.4,93.7,362.9)" />
<use xlink:href="#f1_1i" transform="matrix(10.4,0,0,10.4,116.6,362.9)" />
<use xlink:href="#f1_2a" transform="matrix(10.4,0,0,10.4,127.2,362.9)" />
<use xlink:href="#f1_27" transform="matrix(10.4,0,0,10.4,136.1,362.9)" />
<use xlink:href="#f1_2h" transform="matrix(10.4,0,0,10.4,139.6,362.9)" />
<use xlink:href="#f1_20" transform="matrix(10.4,0,0,10.4,147.6,362.9)" />
<use xlink:href="#f1_20" transform="matrix(10.4,0,0,10.4,164,362.9)" />
<use xlink:href="#f1_1w" transform="matrix(10.4,0,0,10.4,172.9,362.9)" />
<use xlink:href="#f1_1y" transform="matrix(10.4,0,0,10.4,181.7,362.9)" />
<use xlink:href="#f1_23" transform="matrix(10.4,0,0,10.4,189.7,362.9)" />
<use xlink:href="#f1_2a" transform="matrix(10.4,0,0,10.4,205.9,362.9)" />
<use xlink:href="#f1_21" transform="matrix(10.4,0,0,10.4,214.8,362.9)" />
<use xlink:href="#f1_2f" transform="matrix(10.4,0,0,10.4,226.7,362.9)" />
<use xlink:href="#f1_23" transform="matrix(10.4,0,0,10.4,231.2,362.9)" />
<use xlink:href="#f1_20" transform="matrix(10.4,0,0,10.4,240,362.9)" />
<use xlink:href="#f1_21" transform="matrix(10.4,0,0,10.4,256.2,362.9)" />
<use xlink:href="#f1_2a" transform="matrix(10.4,0,0,10.4,260.7,362.9)" />
<use xlink:href="#f1_27" transform="matrix(10.4,0,0,10.4,269.5,362.9)" />
<use xlink:href="#f1_27" transform="matrix(10.4,0,0,10.4,273.1,362.9)" />
<use xlink:href="#f1_2a" transform="matrix(10.4,0,0,10.4,276.6,362.9)" />
<use xlink:href="#f1_2i" transform="matrix(10.4,0,0,10.4,285.5,362.9)" />
<use xlink:href="#f1_24" transform="matrix(10.4,0,0,10.4,297,362.9)" />
<use xlink:href="#f1_29" transform="matrix(10.4,0,0,10.4,300.5,362.9)" />
<use xlink:href="#f1_22" transform="matrix(10.4,0,0,10.4,309.4,362.9)" />
<use xlink:href="#f1_1z" transform="matrix(10.4,0,0,10.4,325.8,362.9)" />
<use xlink:href="#f1_24" transform="matrix(10.4,0,0,10.4,334.7,362.9)" />
<use xlink:href="#f1_21" transform="matrix(10.4,0,0,10.4,338.2,362.9)" />
<use xlink:href="#f1_21" transform="matrix(10.4,0,0,10.4,342.6,362.9)" />
<use xlink:href="#f1_20" transform="matrix(10.4,0,0,10.4,347.1,362.9)" />
<use xlink:href="#f1_2d" transform="matrix(10.4,0,0,10.4,355.9,362.9)" />
<use xlink:href="#f1_20" transform="matrix(10.4,0,0,10.4,361.2,362.9)" />
<use xlink:href="#f1_29" transform="matrix(10.4,0,0,10.4,370.1,362.9)" />
<use xlink:href="#f1_2f" transform="matrix(10.4,0,0,10.4,379,362.9)" />
<use xlink:href="#f1_24" transform="matrix(10.4,0,0,10.4,383.4,362.9)" />
<use xlink:href="#f1_1w" transform="matrix(10.4,0,0,10.4,387,362.9)" />
<use xlink:href="#f1_27" transform="matrix(10.4,0,0,10.4,395.8,362.9)" />
<use xlink:href="#f1_20" transform="matrix(10.4,0,0,10.4,406.7,362.9)" />
<use xlink:href="#f1_2c" transform="matrix(10.4,0,0,10.4,415.6,362.9)" />
<use xlink:href="#f1_2g" transform="matrix(10.4,0,0,10.4,424.4,362.9)" />
<use xlink:href="#f1_1w" transform="matrix(10.4,0,0,10.4,433.3,362.9)" />
<use xlink:href="#f1_2f" transform="matrix(10.4,0,0,10.4,442.2,362.9)" />
<use xlink:href="#f1_24" transform="matrix(10.4,0,0,10.4,446.6,362.9)" />
<use xlink:href="#f1_2a" transform="matrix(10.4,0,0,10.4,450.2,362.9)" />
<use xlink:href="#f1_29" transform="matrix(10.4,0,0,10.4,459,362.9)" />
<use xlink:href="#f1_2e" transform="matrix(10.4,0,0,10.4,467.9,362.9)" />
<use xlink:href="#f1_t" transform="matrix(10.4,0,0,10.4,483.4,362.9)" />
<use xlink:href="#f1_b" transform="matrix(10.4,0,0,10.4,139.1,410.4)" />
<use xlink:href="#f1_24" transform="matrix(10.4,0,0,10.4,144.5,410.4)" />
<use xlink:href="#f1_c" transform="matrix(10.4,0,0,10.4,148,410.4)" />
</g>
<path d="M221.8,406.2h20.1m90.1,0h20.1" class="g1_82" />
<g fill="#000000" >
<use xlink:href="#f1_l" transform="matrix(7.9,0,0,7.9,300.8,400.8)" />
<use xlink:href="#f1_l" transform="matrix(10.5,0,0,10.6,268.1,410.5)" />
<use xlink:href="#f1_h" transform="matrix(10.5,0,0,10.6,364.9,410.5)" />
<use xlink:href="#f2_1z" transform="matrix(10.5,0,0,10.6,221.9,400)" />
<use xlink:href="#f2_2k" transform="matrix(10.5,0,0,10.6,231.2,400)" />
<use xlink:href="#f2_1z" transform="matrix(10.5,0,0,10.6,331.9,400)" />
<use xlink:href="#f2_2k" transform="matrix(10.5,0,0,10.6,341.3,400)" />
<use xlink:href="#f2_2k" transform="matrix(10.5,0,0,10.6,174.7,410.5)" />
<use xlink:href="#f2_2j" transform="matrix(10.5,0,0,10.6,207.2,410.5)" />
<use xlink:href="#f2_2k" transform="matrix(10.5,0,0,10.6,290.4,410.5)" />
<use xlink:href="#f2_1z" transform="matrix(10.5,0,0,10.6,221.9,426.2)" />
<use xlink:href="#f2_2j" transform="matrix(10.5,0,0,10.6,231.2,426.2)" />
<use xlink:href="#f2_1z" transform="matrix(10.5,0,0,10.6,331.9,426.2)" />
<use xlink:href="#f2_2j" transform="matrix(10.5,0,0,10.6,341.3,426.2)" />
<use xlink:href="#f3_4o" transform="matrix(10.6,0,0,10.6,280.6,401.1)" />
<use xlink:href="#f3_54" transform="matrix(10.6,0,0,10.6,353.8,401.1)" />
<use xlink:href="#f3_h" transform="matrix(10.6,0,0,10.6,191.5,410.5)" />
<use xlink:href="#f3_x" transform="matrix(10.6,0,0,10.6,250.9,410.5)" />
<use xlink:href="#f3_f" transform="matrix(10.6,0,0,10.6,315.7,410.5)" />
<use xlink:href="#f3_4p" transform="matrix(10.6,0,0,10.6,280.6,416.1)" />
<use xlink:href="#f3_55" transform="matrix(10.6,0,0,10.6,353.8,416.1)" />
<use xlink:href="#f3_4q" transform="matrix(10.6,0,0,10.6,280.6,422.8)" />
<use xlink:href="#f3_56" transform="matrix(10.6,0,0,10.6,353.8,422.8)" />
<use xlink:href="#f1_b" transform="matrix(10.4,0,0,10.4,135.5,453.3)" />
<use xlink:href="#f1_24" transform="matrix(10.4,0,0,10.4,140.8,453.3)" />
<use xlink:href="#f1_24" transform="matrix(10.4,0,0,10.4,144.3,453.3)" />
<use xlink:href="#f1_c" transform="matrix(10.4,0,0,10.4,147.9,453.3)" />
<use xlink:href="#f1_1y" transform="matrix(10.4,0,0,10.4,171.6,453.3)" />
<use xlink:href="#f1_2a" transform="matrix(10.4,0,0,10.4,179.6,453.3)" />
<use xlink:href="#f1_2e" transform="matrix(10.4,0,0,10.4,188.4,453.3)" />
<use xlink:href="#f2_2k" transform="matrix(10.4,0,0,10.4,203.3,453.3)" />
<use xlink:href="#f2_1z" transform="matrix(10.4,0,0,10.4,218.2,453.3)" />
<use xlink:href="#f2_2j" transform="matrix(10.4,0,0,10.4,227,453.3)" />
<use xlink:href="#f1_e" transform="matrix(10.4,0,0,10.4,241.8,453.3)" />
<use xlink:href="#f1_b" transform="matrix(10.4,0,0,10.4,257.9,453.3)" />
<use xlink:href="#f1_k" transform="matrix(10.4,0,0,10.4,263.2,453.3)" />
<use xlink:href="#f1_e" transform="matrix(10.4,0,0,10.4,279,453.3)" />
<use xlink:href="#f1_l" transform="matrix(10.4,0,0,10.4,295.1,453.3)" />
<use xlink:href="#f2_20" transform="matrix(10.4,0,0,10.4,304,453.3)" />
<use xlink:href="#f1_99" transform="matrix(7.4,0,0,7.4,312.8,448)" />
<use xlink:href="#f2_2j" transform="matrix(7.4,0,0,7.4,319,448)" />
<use xlink:href="#f1_c" transform="matrix(10.4,0,0,10.4,324.7,453.3)" />
<use xlink:href="#f1_2e" transform="matrix(10.4,0,0,10.4,336.8,453.3)" />
<use xlink:href="#f1_24" transform="matrix(10.4,0,0,10.4,344.7,453.3)" />
<use xlink:href="#f1_29" transform="matrix(10.4,0,0,10.4,348.3,453.3)" />
<use xlink:href="#f2_2k" transform="matrix(10.4,0,0,10.4,363.9,453.3)" />
<use xlink:href="#f2_1z" transform="matrix(10.4,0,0,10.4,378.8,453.3)" />
<use xlink:href="#f2_2k" transform="matrix(10.4,0,0,10.4,387.6,453.3)" />
<use xlink:href="#f1_w" transform="matrix(10.4,0,0,10.4,402.4,453.3)" />
<use xlink:href="#f1_j" transform="matrix(10.4,0,0,10.4,418.7,453.3)" />
<use xlink:href="#f1_h" transform="matrix(10.4,0,0,10.4,427.6,453.3)" />
<use xlink:href="#f1_b" transform="matrix(10.4,0,0,10.4,132,504.1)" />
<use xlink:href="#f1_24" transform="matrix(10.4,0,0,10.4,137.3,504.1)" />
<use xlink:href="#f1_24" transform="matrix(10.4,0,0,10.4,140.8,504.1)" />
<use xlink:href="#f1_24" transform="matrix(10.4,0,0,10.4,144.4,504.1)" />
<use xlink:href="#f1_c" transform="matrix(10.4,0,0,10.4,147.9,504.1)" />
</g>
<path d="M185.3,499.9l1.5,-1.5l4,10L195,482.1h47.4" class="g2_82" />
<path fill-rule="evenodd" d="M185.1,499.7l2.1,-1.9l3.5,8.3l4,-24.3h47.7v.7H195.3l-4.2,25.9h-.7l-4,-9.3l-.9,.9l-.4,-.3Z" class="g3_82" />
<path d="M294.2,497.5l1.5,-1.2l3.9,8.7l4.3,-22.9h47.2" class="g2_82" />
<path fill-rule="evenodd" d="M294,497.4l2.1,-1.7l3.5,7.2l4,-21.1h47.5v.7H304.2L300,505h-.7l-4,-8.1l-1,.8l-.3,-.3Z" class="g3_82" />
<g fill="#000000" >
<use xlink:href="#f1_l" transform="matrix(7.8,0,0,7.8,233.4,494.4)" />
<use xlink:href="#f1_l" transform="matrix(7.8,0,0,7.8,342,494.4)" />
<use xlink:href="#f1_k" transform="matrix(10.4,0,0,10.4,194.1,503.9)" />
<use xlink:href="#f1_k" transform="matrix(10.4,0,0,10.4,303,503.9)" />
<use xlink:href="#f1_j" transform="matrix(10.4,0,0,10.4,394.6,503.9)" />
<use xlink:href="#f1_h" transform="matrix(10.4,0,0,10.4,403.8,503.9)" />
<use xlink:href="#f2_2j" transform="matrix(10.4,0,0,10.4,174.3,503.9)" />
<use xlink:href="#f2_2k" transform="matrix(10.4,0,0,10.4,223,503.9)" />
<use xlink:href="#f2_1z" transform="matrix(10.4,0,0,10.4,241.1,503.9)" />
<use xlink:href="#f2_2k" transform="matrix(10.4,0,0,10.4,250.4,503.9)" />
<use xlink:href="#f2_2k" transform="matrix(10.4,0,0,10.4,283.2,503.9)" />
<use xlink:href="#f2_2j" transform="matrix(10.4,0,0,10.4,331.6,503.9)" />
<use xlink:href="#f2_1z" transform="matrix(10.4,0,0,10.4,349.7,503.9)" />
<use xlink:href="#f2_2j" transform="matrix(10.4,0,0,10.4,359,503.9)" />
<use xlink:href="#f3_h" transform="matrix(10.4,0,0,10.4,207.1,503.9)" />
<use xlink:href="#f3_f" transform="matrix(10.4,0,0,10.4,267.1,503.9)" />
<use xlink:href="#f3_h" transform="matrix(10.4,0,0,10.4,316,503.9)" />
<use xlink:href="#f3_x" transform="matrix(10.4,0,0,10.4,377.5,503.9)" />
<use xlink:href="#f1_b" transform="matrix(10.4,0,0,10.4,130.9,562)" />
<use xlink:href="#f1_24" transform="matrix(10.4,0,0,10.4,136.2,562)" />
<use xlink:href="#f1_2h" transform="matrix(10.4,0,0,10.4,139.7,562)" />
<use xlink:href="#f1_c" transform="matrix(10.4,0,0,10.4,147.7,562)" />
<use xlink:href="#f3_c" transform="matrix(10.5,0,0,16.2,184.8,558.3)" />
<use xlink:href="#f3_d" transform="matrix(10.5,0,0,16.2,239.4,558.4)" />
<use xlink:href="#f3_c" transform="matrix(10.5,0,0,18.8,247.8,561.1)" />
<use xlink:href="#f3_d" transform="matrix(10.5,0,0,18.8,303.5,561.2)" />
</g>
<path d="M174.8,558.1l1.5,-1.5l4,11.1l4.2,-29.1H309.2" class="g2_82" />
<path fill-rule="evenodd" d="M174.7,558l2.1,-2.1l3.4,9.5l4.1,-27.2H309.2v.7H184.9l-4.2,28.8h-.8l-4,-10.4l-.9,1l-.3,-.3Z" class="g3_82" />
<g fill="#000000" >
<use xlink:href="#f1_l" transform="matrix(7.9,0,0,7.9,229.4,552.3)" />
<use xlink:href="#f1_l" transform="matrix(7.9,0,0,7.9,293.7,552.3)" />
<use xlink:href="#f1_k" transform="matrix(10.5,0,0,10.5,190.3,561.9)" />
<use xlink:href="#f1_k" transform="matrix(10.5,0,0,10.5,253.6,561.9)" />
<use xlink:href="#f1_99" transform="matrix(10.5,0,0,10.5,266.8,561.9)" />
<use xlink:href="#f1_j" transform="matrix(10.5,0,0,10.5,428.8,561.9)" />
<use xlink:href="#f1_h" transform="matrix(10.5,0,0,10.5,438.1,561.9)" />
<use xlink:href="#f2_2j" transform="matrix(10.5,0,0,10.5,219,561.9)" />
<use xlink:href="#f2_2k" transform="matrix(10.5,0,0,10.5,283.3,561.9)" />
<use xlink:href="#f2_1z" transform="matrix(10.5,0,0,10.5,316.6,561.9)" />
<use xlink:href="#f2_2k" transform="matrix(10.5,0,0,10.5,325.9,561.9)" />
<use xlink:href="#f2_2j" transform="matrix(10.5,0,0,10.5,358.6,561.9)" />
<use xlink:href="#f2_2k" transform="matrix(10.5,0,0,10.5,366.9,561.9)" />
<use xlink:href="#f2_1z" transform="matrix(10.5,0,0,10.5,383.8,561.9)" />
<use xlink:href="#f2_2j" transform="matrix(10.5,0,0,10.5,393.1,561.9)" />
<use xlink:href="#f3_h" transform="matrix(10.5,0,0,10.5,203.2,561.9)" />
<use xlink:href="#f3_f" transform="matrix(10.5,0,0,10.5,342.6,561.9)" />
<use xlink:href="#f3_x" transform="matrix(10.5,0,0,10.5,411.6,561.9)" />
<use xlink:href="#f1_b" transform="matrix(10.4,0,0,10.4,134.6,602.9)" />
<use xlink:href="#f1_2h" transform="matrix(10.4,0,0,10.4,139.9,602.9)" />
<use xlink:href="#f1_c" transform="matrix(10.4,0,0,10.4,148.1,602.9)" />
<use xlink:href="#f1_b" transform="matrix(10.4,0,0,10.4,171.6,602.9)" />
<use xlink:href="#f2_2j" transform="matrix(10.4,0,0,10.4,176.9,602.9)" />
<use xlink:href="#f2_2k" transform="matrix(10.4,0,0,10.4,184.9,602.9)" />
<use xlink:href="#f1_l" transform="matrix(7.4,0,0,7.4,193,597.6)" />
<use xlink:href="#f1_e" transform="matrix(10.4,0,0,10.4,205.9,602.9)" />
<use xlink:href="#f2_2j" transform="matrix(10.4,0,0,10.4,222,602.9)" />
<use xlink:href="#f1_c" transform="matrix(10.4,0,0,10.4,230.1,602.9)" />
<use xlink:href="#f2_1z" transform="matrix(10.4,0,0,10.4,242.2,602.9)" />
<use xlink:href="#f2_2j" transform="matrix(10.4,0,0,10.4,251,602.9)" />
<use xlink:href="#f1_e" transform="matrix(10.4,0,0,10.4,265.8,602.9)" />
<use xlink:href="#f1_b" transform="matrix(10.4,0,0,10.4,281.9,602.9)" />
<use xlink:href="#f2_2k" transform="matrix(10.4,0,0,10.4,287.3,602.9)" />
<use xlink:href="#f2_2j" transform="matrix(10.4,0,0,10.4,295.3,602.9)" />
<use xlink:href="#f1_l" transform="matrix(7.4,0,0,7.4,303.4,597.6)" />
<use xlink:href="#f1_e" transform="matrix(10.4,0,0,10.4,316.2,602.9)" />
<use xlink:href="#f2_2k" transform="matrix(10.4,0,0,10.4,332.4,602.9)" />
<use xlink:href="#f1_c" transform="matrix(10.4,0,0,10.4,340.4,602.9)" />
<use xlink:href="#f2_1z" transform="matrix(10.4,0,0,10.4,352.5,602.9)" />
<use xlink:href="#f2_2k" transform="matrix(10.4,0,0,10.4,361.4,602.9)" />
<use xlink:href="#f1_w" transform="matrix(10.4,0,0,10.4,376.2,602.9)" />
<use xlink:href="#f1_j" transform="matrix(10.4,0,0,10.4,392.3,602.9)" />
<use xlink:href="#f1_u" transform="matrix(10.4,0,0,10.4,401.1,602.9)" />
<use xlink:href="#f2_2k" transform="matrix(10.4,0,0,10.4,412.3,602.9)" />
<use xlink:href="#f1_b" transform="matrix(10.4,0,0,10.4,420.4,602.9)" />
<use xlink:href="#f1_j" transform="matrix(10.4,0,0,10.4,425.7,602.9)" />
<use xlink:href="#f1_c" transform="matrix(10.4,0,0,10.4,434.6,602.9)" />
<use xlink:href="#f1_w" transform="matrix(10.4,0,0,10.4,446.6,602.9)" />
<use xlink:href="#f1_k" transform="matrix(10.4,0,0,10.4,462.7,602.9)" />
<use xlink:href="#f1_h" transform="matrix(10.4,0,0,10.4,471.6,602.9)" />
<use xlink:href="#f1_b" transform="matrix(10.4,0,0,10.4,130.9,653)" />
<use xlink:href="#f1_2h" transform="matrix(10.4,0,0,10.4,136.2,653)" />
<use xlink:href="#f1_24" transform="matrix(10.4,0,0,10.4,144.4,653)" />
<use xlink:href="#f1_c" transform="matrix(10.4,0,0,10.4,148,653)" />
</g>
<path d="M174.6,648.3h20.1" class="g4_82" />
<g fill="#000000" >
<use xlink:href="#f1_m" transform="matrix(7.9,0,0,7.9,256.3,643)" />
<use xlink:href="#f1_m" transform="matrix(7.9,0,0,7.9,309.2,643)" />
<use xlink:href="#f1_2e" transform="matrix(10.5,0,0,10.5,235.3,652.6)" />
<use xlink:href="#f1_24" transform="matrix(10.5,0,0,10.5,243.6,652.6)" />
<use xlink:href="#f1_29" transform="matrix(10.5,0,0,10.5,247.4,652.6)" />
<use xlink:href="#f1_1y" transform="matrix(10.5,0,0,10.5,283.3,652.6)" />
<use xlink:href="#f1_2a" transform="matrix(10.5,0,0,10.5,291.5,652.6)" />
<use xlink:href="#f1_2e" transform="matrix(10.5,0,0,10.5,300.8,652.6)" />
<use xlink:href="#f1_h" transform="matrix(10.5,0,0,10.5,395.2,652.6)" />
<use xlink:href="#f2_2j" transform="matrix(7.9,0,0,7.9,386.4,643)" />
<use xlink:href="#f2_1z" transform="matrix(10.5,0,0,10.5,174.6,642.1)" />
<use xlink:href="#f2_2k" transform="matrix(10.5,0,0,10.5,183.9,642.1)" />
<use xlink:href="#f2_2k" transform="matrix(10.5,0,0,10.5,221.2,652.6)" />
<use xlink:href="#f2_2j" transform="matrix(10.5,0,0,10.5,269.1,652.6)" />
<use xlink:href="#f2_2j" transform="matrix(10.5,0,0,10.5,322,652.6)" />
<use xlink:href="#f2_2j" transform="matrix(10.5,0,0,10.5,354.6,652.6)" />
<use xlink:href="#f2_2k" transform="matrix(10.5,0,0,10.5,362.9,652.6)" />
<use xlink:href="#f2_20" transform="matrix(10.5,0,0,10.5,376.1,652.6)" />
<use xlink:href="#f2_1z" transform="matrix(10.5,0,0,10.5,174.6,668.2)" />
<use xlink:href="#f2_2j" transform="matrix(10.5,0,0,10.5,183.9,668.2)" />
<use xlink:href="#f3_x" transform="matrix(10.5,0,0,10.5,203.6,652.6)" />
<use xlink:href="#f3_f" transform="matrix(10.5,0,0,10.5,338.7,652.6)" />
<use xlink:href="#f1_b" transform="matrix(10.4,0,0,10.4,127.4,694.8)" />
<use xlink:href="#f1_2h" transform="matrix(10.4,0,0,10.4,132.7,694.8)" />
<use xlink:href="#f1_24" transform="matrix(10.4,0,0,10.4,140.7,694.8)" />
<use xlink:href="#f1_24" transform="matrix(10.4,0,0,10.4,144.2,694.8)" />
<use xlink:href="#f1_c" transform="matrix(10.4,0,0,10.4,147.8,694.8)" />
<use xlink:href="#f1_2f" transform="matrix(10.4,0,0,10.4,171.6,694.8)" />
<use xlink:href="#f1_1w" transform="matrix(10.4,0,0,10.4,176,694.8)" />
<use xlink:href="#f1_29" transform="matrix(10.4,0,0,10.4,184.9,694.8)" />
<use xlink:href="#f2_2j" transform="matrix(10.4,0,0,10.4,200.4,694.8)" />
<use xlink:href="#f1_2f" transform="matrix(10.4,0,0,10.4,222,694.8)" />
<use xlink:href="#f1_1w" transform="matrix(10.4,0,0,10.4,226.4,694.8)" />
<use xlink:href="#f1_29" transform="matrix(10.4,0,0,10.4,235.3,694.8)" />
<use xlink:href="#f2_2k" transform="matrix(10.4,0,0,10.4,250.8,694.8)" />
<use xlink:href="#f2_1z" transform="matrix(10.4,0,0,10.4,265.8,694.8)" />
<use xlink:href="#f2_2j" transform="matrix(10.4,0,0,10.4,274.7,694.8)" />
<use xlink:href="#f1_e" transform="matrix(10.4,0,0,10.4,289.5,694.8)" />
<use xlink:href="#f1_2e" transform="matrix(10.4,0,0,10.4,305.6,694.8)" />
<use xlink:href="#f1_20" transform="matrix(10.4,0,0,10.4,313.5,694.8)" />
<use xlink:href="#f1_1y" transform="matrix(10.4,0,0,10.4,322.4,694.8)" />
<use xlink:href="#f1_l" transform="matrix(7.4,0,0,7.4,330.5,689.5)" />
<use xlink:href="#f2_2j" transform="matrix(10.4,0,0,10.4,343.6,694.8)" />
<use xlink:href="#f1_2e" transform="matrix(10.4,0,0,10.4,358.6,694.8)" />
<use xlink:href="#f1_20" transform="matrix(10.4,0,0,10.4,366.6,694.8)" />
<use xlink:href="#f1_1y" transform="matrix(10.4,0,0,10.4,375.4,694.8)" />
<use xlink:href="#f1_l" transform="matrix(7.4,0,0,7.4,383.5,689.5)" />
<use xlink:href="#f2_2k" transform="matrix(10.4,0,0,10.4,396.5,694.8)" />
<use xlink:href="#f2_1z" transform="matrix(10.4,0,0,10.4,411.4,694.8)" />
<use xlink:href="#f2_2k" transform="matrix(10.4,0,0,10.4,420.3,694.8)" />
<use xlink:href="#f1_w" transform="matrix(10.4,0,0,10.4,435,694.8)" />
<use xlink:href="#f1_j" transform="matrix(10.4,0,0,10.4,451.3,694.8)" />
<use xlink:href="#f1_r" transform="matrix(10.4,0,0,10.4,84.9,728.7)" />
<use xlink:href="#f1_h" transform="matrix(10.4,0,0,10.4,93.7,728.7)" />
<use xlink:href="#f1_1i" transform="matrix(10.4,0,0,10.4,116.6,728.7)" />
<use xlink:href="#f1_2a" transform="matrix(10.4,0,0,10.4,127.2,728.7)" />
<use xlink:href="#f1_27" transform="matrix(10.4,0,0,10.4,136.1,728.7)" />
<use xlink:href="#f1_2h" transform="matrix(10.4,0,0,10.4,139.6,728.7)" />
<use xlink:href="#f1_20" transform="matrix(10.4,0,0,10.4,147.6,728.7)" />
<use xlink:href="#f1_2f" transform="matrix(10.4,0,0,10.4,164,728.7)" />
<use xlink:href="#f1_23" transform="matrix(10.4,0,0,10.4,168.4,728.7)" />
<use xlink:href="#f1_20" transform="matrix(10.4,0,0,10.4,177.3,728.7)" />
<use xlink:href="#f1_21" transform="matrix(10.4,0,0,10.4,193.7,728.7)" />
<use xlink:href="#f1_2a" transform="matrix(10.4,0,0,10.4,198.1,728.7)" />
<use xlink:href="#f1_27" transform="matrix(10.4,0,0,10.4,207,728.7)" />
<use xlink:href="#f1_27" transform="matrix(10.4,0,0,10.4,210.5,728.7)" />
<use xlink:href="#f1_2a" transform="matrix(10.4,0,0,10.4,214.1,728.7)" />
<use xlink:href="#f1_2i" transform="matrix(10.4,0,0,10.4,222.9,728.7)" />
<use xlink:href="#f1_24" transform="matrix(10.4,0,0,10.4,234.4,728.7)" />
<use xlink:href="#f1_29" transform="matrix(10.4,0,0,10.4,238,728.7)" />
<use xlink:href="#f1_22" transform="matrix(10.4,0,0,10.4,246.9,728.7)" />
<use xlink:href="#f1_1z" transform="matrix(10.4,0,0,10.4,263.4,728.7)" />
<use xlink:href="#f1_24" transform="matrix(10.4,0,0,10.4,272.3,728.7)" />
<use xlink:href="#f1_21" transform="matrix(10.4,0,0,10.4,275.8,728.7)" />
<use xlink:href="#f1_21" transform="matrix(10.4,0,0,10.4,280.3,728.7)" />
<use xlink:href="#f1_20" transform="matrix(10.4,0,0,10.4,284.7,728.7)" />
<use xlink:href="#f1_2d" transform="matrix(10.4,0,0,10.4,293.6,728.7)" />
<use xlink:href="#f1_20" transform="matrix(10.4,0,0,10.4,298.9,728.7)" />
<use xlink:href="#f1_29" transform="matrix(10.4,0,0,10.4,307.8,728.7)" />
<use xlink:href="#f1_2f" transform="matrix(10.4,0,0,10.4,316.6,728.7)" />
<use xlink:href="#f1_24" transform="matrix(10.4,0,0,10.4,321.1,728.7)" />
<use xlink:href="#f1_1w" transform="matrix(10.4,0,0,10.4,324.6,728.7)" />
<use xlink:href="#f1_27" transform="matrix(10.4,0,0,10.4,333.5,728.7)" />
<use xlink:href="#f1_20" transform="matrix(10.4,0,0,10.4,344.5,728.7)" />
<use xlink:href="#f1_2c" transform="matrix(10.4,0,0,10.4,353.4,728.7)" />
<use xlink:href="#f1_2g" transform="matrix(10.4,0,0,10.4,362.3,728.7)" />
<use xlink:href="#f1_1w" transform="matrix(10.4,0,0,10.4,371.1,728.7)" />
<use xlink:href="#f1_2f" transform="matrix(10.4,0,0,10.4,380,728.7)" />
<use xlink:href="#f1_24" transform="matrix(10.4,0,0,10.4,384.4,728.7)" />
<use xlink:href="#f1_2a" transform="matrix(10.4,0,0,10.4,388,728.7)" />
<use xlink:href="#f1_29" transform="matrix(10.4,0,0,10.4,396.8,728.7)" />
<use xlink:href="#f1_2e" transform="matrix(10.4,0,0,10.4,405.7,728.7)" />
<use xlink:href="#f1_t" transform="matrix(10.4,0,0,10.4,421.2,728.7)" />
<use xlink:href="#f1_b" transform="matrix(10.4,0,0,10.4,139.1,758)" />
<use xlink:href="#f1_24" transform="matrix(10.4,0,0,10.4,144.5,758)" />
<use xlink:href="#f1_c" transform="matrix(10.4,0,0,10.4,148,758)" />
<use xlink:href="#f2_2j" transform="matrix(10.4,0,0,10.4,171.6,758)" />
<use xlink:href="#f1_l" transform="matrix(7.4,0,0,7.4,179.7,752.7)" />
<use xlink:href="#f2_2k" transform="matrix(10.4,0,0,10.4,192.7,758)" />
<use xlink:href="#f2_1z" transform="matrix(10.4,0,0,10.4,207.5,758)" />
<use xlink:href="#f2_2j" transform="matrix(10.4,0,0,10.4,216.4,758)" />
<use xlink:href="#f1_99" transform="matrix(10.4,0,0,10.4,231.2,758)" />
<use xlink:href="#f1_b" transform="matrix(10.4,0,0,10.4,246.8,758)" />
<use xlink:href="#f2_2j" transform="matrix(10.4,0,0,10.4,252.1,758)" />
<use xlink:href="#f1_m" transform="matrix(7.4,0,0,7.4,260.1,752.7)" />
<use xlink:href="#f1_e" transform="matrix(10.4,0,0,10.4,273.2,758)" />
<use xlink:href="#f2_2k" transform="matrix(10.4,0,0,10.4,289.3,758)" />
<use xlink:href="#f1_m" transform="matrix(7.4,0,0,7.4,297.4,752.7)" />
<use xlink:href="#f1_c" transform="matrix(10.4,0,0,10.4,303.6,758)" />
<use xlink:href="#f2_1z" transform="matrix(10.4,0,0,10.4,315.7,758)" />
<use xlink:href="#f2_2k" transform="matrix(10.4,0,0,10.4,324.6,758)" />
<use xlink:href="#f1_w" transform="matrix(10.4,0,0,10.4,339.3,758)" />
<use xlink:href="#f1_j" transform="matrix(10.4,0,0,10.4,355.4,758)" />
<use xlink:href="#f1_h" transform="matrix(10.4,0,0,10.4,364.3,758)" />
<use xlink:href="#f1_b" transform="matrix(10.4,0,0,10.4,135.5,810.8)" />
<use xlink:href="#f1_24" transform="matrix(10.4,0,0,10.4,140.8,810.8)" />
<use xlink:href="#f1_24" transform="matrix(10.4,0,0,10.4,144.3,810.8)" />
<use xlink:href="#f1_c" transform="matrix(10.4,0,0,10.4,147.9,810.8)" />
</g>
<path d="M197.6,806.3h20" class="g5_82" />
<g fill="#000000" >
<use xlink:href="#f1_l" transform="matrix(7.9,0,0,7.9,184.8,801)" />
<use xlink:href="#f1_l" transform="matrix(7.9,0,0,7.9,254.4,801)" />
<use xlink:href="#f1_l" transform="matrix(7.9,0,0,7.9,336.7,801)" />
<use xlink:href="#f1_h" transform="matrix(10.5,0,0,10.5,344.5,810.6)" />
<use xlink:href="#f2_1z" transform="matrix(10.5,0,0,10.5,197.7,800.2)" />
<use xlink:href="#f2_2k" transform="matrix(10.5,0,0,10.5,206.9,800.2)" />
<use xlink:href="#f2_2j" transform="matrix(10.5,0,0,10.5,174.4,810.6)" />
<use xlink:href="#f2_2j" transform="matrix(10.5,0,0,10.5,244,810.6)" />
<use xlink:href="#f2_2j" transform="matrix(10.5,0,0,10.5,285.2,810.6)" />
<use xlink:href="#f2_2k" transform="matrix(10.5,0,0,10.5,293.5,810.6)" />
<use xlink:href="#f2_2k" transform="matrix(10.5,0,0,10.5,326.4,810.6)" />
<use xlink:href="#f2_1z" transform="matrix(10.5,0,0,10.5,197.7,826.2)" />
<use xlink:href="#f2_2j" transform="matrix(10.5,0,0,10.5,206.9,826.2)" />
<use xlink:href="#f3_x" transform="matrix(10.5,0,0,10.5,226.6,810.6)" />
<use xlink:href="#f3_f" transform="matrix(10.5,0,0,10.5,269.3,810.6)" />
<use xlink:href="#f3_f" transform="matrix(10.5,0,0,10.5,310.2,810.6)" />
<use xlink:href="#f1_b" transform="matrix(10.4,0,0,10.4,132,871)" />
<use xlink:href="#f1_24" transform="matrix(10.4,0,0,10.4,137.3,871)" />
<use xlink:href="#f1_24" transform="matrix(10.4,0,0,10.4,140.8,871)" />
<use xlink:href="#f1_24" transform="matrix(10.4,0,0,10.4,144.4,871)" />
<use xlink:href="#f1_c" transform="matrix(10.4,0,0,10.4,147.9,871)" />
<use xlink:href="#f3_c" transform="matrix(10.4,0,0,18.7,173.6,870)" />
<use xlink:href="#f3_d" transform="matrix(10.4,0,0,18.7,242.4,870.2)" />
<use xlink:href="#f3_c" transform="matrix(10.4,0,0,11.1,414.3,868.8)" />
<use xlink:href="#f3_d" transform="matrix(10.4,0,0,11.1,427.8,868.8)" />
<use xlink:href="#f1_l" transform="matrix(7.8,0,0,7.8,191.3,861.3)" />
<use xlink:href="#f1_l" transform="matrix(7.8,0,0,7.8,232.6,861.3)" />
<use xlink:href="#f1_l" transform="matrix(10.4,0,0,10.4,292.6,870.8)" />
<use xlink:href="#f1_j" transform="matrix(10.4,0,0,10.4,371.8,870.8)" />
<use xlink:href="#f1_f" transform="matrix(10.4,0,0,10.4,380.1,870.8)" />
<use xlink:href="#f1_k" transform="matrix(10.4,0,0,10.4,419.7,870.8)" />
<use xlink:href="#f1_k" transform="matrix(10.4,0,0,10.4,456.9,870.8)" />
<use xlink:href="#f1_h" transform="matrix(10.4,0,0,10.4,466.2,870.8)" />
<use xlink:href="#f2_2j" transform="matrix(10.4,0,0,10.4,180.8,870.8)" />
<use xlink:href="#f2_2k" transform="matrix(10.4,0,0,10.4,222.2,870.8)" />
<use xlink:href="#f2_1z" transform="matrix(10.4,0,0,10.4,250.8,870.8)" />
<use xlink:href="#f2_2j" transform="matrix(10.4,0,0,10.4,260.1,870.8)" />
<use xlink:href="#f2_2j" transform="matrix(10.4,0,0,10.4,301.6,870.8)" />
<use xlink:href="#f2_2k" transform="matrix(10.4,0,0,10.4,309.9,870.8)" />
<use xlink:href="#f2_1z" transform="matrix(10.4,0,0,10.4,326.8,870.8)" />
<use xlink:href="#f2_2k" transform="matrix(10.4,0,0,10.4,336.1,870.8)" />
<use xlink:href="#f2_2k" transform="matrix(10.4,0,0,10.4,400.3,870.8)" />
<use xlink:href="#f3_h" transform="matrix(10.5,0,0,10.4,206.3,870.8)" />
<use xlink:href="#f3_f" transform="matrix(10.5,0,0,10.4,276.9,870.8)" />
<use xlink:href="#f3_x" transform="matrix(10.5,0,0,10.4,354.6,870.8)" />
<use xlink:href="#f3_x" transform="matrix(10.5,0,0,10.4,441,870.8)" />
<use xlink:href="#f4_o" transform="matrix(12,0,0,12,673.3,1070.2)" />
</g>
<g fill="#0080FF" fill-opacity="0.5" >
<use xlink:href="#f0_1c" transform="matrix(38.3,0,0,38.3,183.6,1079.4)" />
<use xlink:href="#f0_21" transform="matrix(38.3,0,0,38.3,216.1,1079.4)" />
<use xlink:href="#f0_1x" transform="matrix(38.3,0,0,38.3,248.6,1079.4)" />
<use xlink:href="#f0_2e" transform="matrix(38.3,0,0,38.3,281.1,1079.4)" />
<use xlink:href="#f0_2a" transform="matrix(38.3,0,0,38.3,300.6,1079.4)" />
<use xlink:href="#f0_17" transform="matrix(38.3,0,0,38.3,333.1,1079.4)" />
<use xlink:href="#f0_2h" transform="matrix(38.3,0,0,38.3,378.6,1079.4)" />
<use xlink:href="#f0_25" transform="matrix(38.3,0,0,38.3,411.1,1079.4)" />
<use xlink:href="#f0_20" transform="matrix(38.3,0,0,38.3,424,1079.4)" />
<use xlink:href="#f0_21" transform="matrix(38.3,0,0,38.3,456.5,1079.4)" />
<use xlink:href="#f0_i" transform="matrix(38.3,0,0,38.3,489.1,1079.4)" />
<use xlink:href="#f0_25" transform="matrix(38.3,0,0,38.3,505.3,1079.4)" />
<use xlink:href="#f0_2a" transform="matrix(38.3,0,0,38.3,518.3,1079.4)" />
</g>
<defs>
<path d="M593,101c0,0,182,0,279,112c0,0,98,113,98,318c0,0,0,196,-98,308c0,0,-98,112,-277,112c0,0,-181,0,-279,-110c0,0,-99,-111,-99,-310c0,0,0,-198,100,-314c0,0,99,-116,276,-116Zm0,-115c0,0,-162,0,-279,65c0,0,-118,66,-180,190c0,0,-62,124,-62,290c0,0,0,252,138,394c0,0,138,142,385,142c0,0,160,0,278,-64c0,0,118,-64,180,-185c0,0,62,-122,62,-287c0,0,0,-165,-63,-289c0,0,-63,-124,-181,-190c0,0,-118,-66,-278,-66Z" 
id="f0_1f"
transform="scale(0.001,-0.001)" />

<path d="M106,0V635c0,0,0,141,-5,173H228c0,0,1,-4,2,-21c0,0,1,-16,2,-37c0,0,1,-22,2,-81h2c0,0,47,84,108,119c0,0,60,34,151,34c0,0,132,0,194,-66c0,0,61,-66,61,-218V0H615V512c0,0,0,80,-15,124c0,0,-16,44,-50,63c0,0,-35,20,-101,20c0,0,-97,0,-153,-67c0,0,-56,-66,-56,-184V0Z" 
id="f0_2a"
transform="scale(0.001,-0.001)" />

<path d="M103,0V1107H237V0Z" 
id="f0_28"
transform="scale(0.001,-0.001)" />

<path d="M102,0V808H236V0Zm0,979v128H236V979Z" 
id="f0_25"
transform="scale(0.001,-0.001)" />

<path d="M643,478c0,0,-11,128,-65,187c0,0,-54,59,-154,59c0,0,-98,0,-155,-66c0,0,-57,-65,-62,-180ZM431,-14c0,0,-179,0,-272,106c0,0,-94,107,-94,317c0,0,0,200,94,307c0,0,93,106,267,106c0,0,356,0,356,-429V375H206c0,0,0,-138,57,-213c0,0,58,-75,168,-75c0,0,87,0,140,35c0,0,53,35,71,88L760,177c0,0,-72,-191,-329,-191Z" 
id="f0_21"
transform="scale(0.001,-0.001)" />

<path d="M17,0L304,415L31,808H179L380,493L580,808H730L457,417L747,0H598L380,331L162,0Z" 
id="f0_2k"
transform="scale(0.001,-0.001)" />

<path d="M339,87c0,0,74,0,132,34c0,0,57,33,90,91c0,0,34,59,34,121v66L448,396c0,0,-95,-2,-144,-19c0,0,-49,-18,-75,-55c0,0,-26,-38,-26,-98c0,0,0,-65,35,-101c0,0,36,-36,101,-36ZM309,-14c0,0,-122,0,-183,64c0,0,-61,64,-61,176c0,0,0,125,82,192c0,0,83,67,266,72l182,3v44c0,0,0,98,-42,141c0,0,-42,43,-132,43c0,0,-90,0,-131,-31c0,0,-41,-31,-49,-98L101,604c0,0,34,218,323,218c0,0,153,0,229,-70c0,0,77,-69,77,-202V202c0,0,0,-59,16,-90c0,0,16,-30,60,-30c0,0,19,0,44,5V4C850,4,799,-7,746,-7c0,0,-75,0,-109,38c0,0,-33,40,-38,124h-4C595,155,543,62,475,24c0,0,-68,-38,-166,-38Z" 
id="f0_1x"
transform="scale(0.001,-0.001)" />

<path d="M106,0V635c0,0,0,141,-5,173H228c0,0,1,-4,2,-21c0,0,1,-16,2,-37c0,0,1,-22,2,-81h2c0,0,44,86,100,120c0,0,56,33,136,33c0,0,92,0,145,-36c0,0,54,-37,75,-117h2c0,0,42,82,101,117c0,0,59,36,143,36c0,0,123,0,178,-66c0,0,56,-67,56,-218V0H1039V512c0,0,0,117,-32,162c0,0,-32,45,-116,45c0,0,-88,0,-136,-66c0,0,-49,-65,-49,-185V0H573V512c0,0,0,117,-32,162c0,0,-32,45,-116,45c0,0,-86,0,-136,-66c0,0,-50,-66,-50,-185V0Z" 
id="f0_29"
transform="scale(0.001,-0.001)" />

<path d="M453,84c0,0,100,0,146,74c0,0,46,73,46,247c0,0,0,169,-46,241c0,0,-45,73,-145,73c0,0,-80,0,-125,-34c0,0,-45,-34,-68,-105c0,0,-24,-71,-24,-186c0,0,0,-159,51,-234c0,0,51,-76,165,-76ZM103,-316V643c0,0,0,124,-5,165H228c0,0,1,-3,3,-22c0,0,1,-18,3,-56c0,0,2,-38,2,-52h3c0,0,36,75,94,110c0,0,59,34,156,34c0,0,149,0,223,-100c0,0,74,-100,74,-314c0,0,0,-422,-297,-422c0,0,-187,0,-251,140h-4c0,0,3,-6,3,-126V-316Z" 
id="f0_2c"
transform="scale(0.001,-0.001)" />

<path d="M420,84c0,0,121,0,173,78c0,0,52,77,52,243c0,0,0,167,-50,243c0,0,-50,76,-167,76c0,0,-118,0,-170,-78c0,0,-53,-77,-53,-241c0,0,0,-160,52,-241c0,0,52,-80,163,-80Zm1,-98c0,0,-176,0,-267,107c0,0,-90,108,-90,312c0,0,0,417,362,417c0,0,185,0,272,-102c0,0,88,-101,88,-315c0,0,0,-212,-94,-316C692,89,599,-14,421,-14Z" 
id="f0_2b"
transform="scale(0.001,-0.001)" />

<path d="M278,-11c0,0,-162,0,-162,182V710H23v98h99l39,181h90V808H400V710H251V200c0,0,0,-58,19,-82c0,0,19,-23,66,-23c0,0,27,0,77,10V6c0,0,-66,-17,-135,-17Z" 
id="f0_2g"
transform="scale(0.001,-0.001)" />

<path d="M365,-315c0,0,-136,187,-199,359c0,0,-62,172,-62,359c0,0,0,186,62,358c0,0,63,172,199,360h92c0,0,-110,-192,-160,-365c0,0,-51,-172,-51,-353c0,0,0,-183,51,-355c0,0,50,-172,160,-363Z" 
id="f1_b"
transform="scale(0.001,-0.001)" />

<path d="M104,0V799H238V0Zm-2,946v152H239V946Z" 
id="f1_24"
transform="scale(0.001,-0.001)" />

<path d="M52,-315c0,0,109,192,160,363c0,0,50,173,50,354c0,0,0,183,-50,355c0,0,-51,173,-160,364h92c0,0,135,-188,198,-360c0,0,63,-172,63,-359c0,0,0,-187,-63,-359c0,0,-63,-171,-198,-358Z" 
id="f1_c"
transform="scale(0.001,-0.001)" />

<path d="M406,0V763H155V870h2c16,0,114,2,178,48c0,0,70,51,104,157H549V0Z" 
id="f1_k"
transform="scale(0.001,-0.001)" />

<path d="M393,-20c0,0,-169,0,-252,65c0,0,-83,67,-92,210H178c0,0,10,-85,61,-123c0,0,50,-38,154,-38c0,0,90,0,136,34c0,0,47,35,47,100c0,0,0,42,-31,64c0,0,-30,21,-123,43L283,368c0,0,-112,27,-160,75c0,0,-48,48,-48,135c0,0,0,112,80,178c0,0,81,66,218,66c0,0,140,0,222,-68c0,0,82,-67,88,-187H557c0,0,-6,67,-55,103c0,0,-48,37,-129,37c0,0,-84,0,-127,-29c0,0,-44,-29,-44,-85c0,0,0,-43,31,-65c0,0,30,-21,121,-43L493,452c0,0,117,-28,167,-78c0,0,49,-49,49,-138c0,0,0,-119,-86,-188c0,0,-85,-68,-230,-68Z" 
id="f1_2e"
transform="scale(0.001,-0.001)" />

<path d="M99,0V799H226V681l30,39c0,0,87,102,219,102c0,0,132,0,203,-71c0,0,72,-72,72,-204V0H616V502c0,0,0,105,-41,151c0,0,-40,47,-132,47c0,0,-97,0,-154,-73c0,0,-56,-74,-56,-199V0Z" 
id="f1_29"
transform="scale(0.001,-0.001)" />

<path d="M133,0V162H292V0Z" 
id="f1_h"
transform="scale(0.001,-0.001)" />

<path d="M394,-20c0,0,-159,0,-253,113c0,0,-95,114,-95,307c0,0,0,193,98,308c0,0,98,114,264,114c0,0,144,0,230,-78c0,0,85,-79,91,-217H600c0,0,-8,86,-59,133c0,0,-52,47,-138,47c0,0,-101,0,-159,-82c0,0,-58,-82,-58,-225c0,0,0,-152,54,-229c0,0,53,-77,159,-77c0,0,79,0,132,50c0,0,52,51,69,143H729C729,287,709,137,623,58c0,0,-86,-78,-229,-78Z" 
id="f1_1y"
transform="scale(0.001,-0.001)" />

<path d="M424,94c0,0,107,0,169,83c0,0,63,83,63,223c0,0,0,140,-63,224c0,0,-62,83,-169,83c0,0,-106,0,-168,-83c0,0,-62,-84,-62,-224c0,0,0,-140,62,-223c0,0,62,-83,168,-83Zm0,-114c0,0,-165,0,-268,115C156,95,54,211,54,400c0,0,0,189,102,306c0,0,103,116,268,116c0,0,168,0,270,-116c0,0,102,-117,102,-306c0,0,0,-189,-102,-305C694,95,592,-20,424,-20Z" 
id="f1_2a"
transform="scale(0.001,-0.001)" />

<path d="M133,-224v71c0,0,47,8,65,52c0,0,14,33,17,101H133V163H292V27c0,0,0,-114,-36,-172c0,0,-37,-58,-123,-79Z" 
id="f1_f"
transform="scale(0.001,-0.001)" />

<path d="M424,92c0,0,114,0,170,107c0,0,57,108,56,323c0,0,1,216,-56,324c0,0,-56,107,-170,107c0,0,-112,0,-168,-107c0,0,-56,-108,-57,-324c0,0,1,-215,57,-323c0,0,56,-107,168,-107Zm0,-120c0,0,-176,0,-271,142c0,0,-96,143,-96,408c0,0,0,265,96,409c0,0,95,144,271,144c0,0,178,0,273,-144c0,0,96,-144,96,-409c0,0,0,-265,-96,-408c0,0,-95,-142,-273,-142Z" 
id="f1_j"
transform="scale(0.001,-0.001)" />

<path d="M431,94c0,0,95,0,170,76c0,0,76,77,101,198c0,0,35,167,-1,250c0,0,-37,84,-144,84c0,0,-128,0,-210,-117c0,0,-81,-117,-81,-302c0,0,0,-90,43,-139c0,0,44,-50,122,-50ZM400,-20c0,0,-126,0,-199,79c0,0,-73,80,-73,219c0,0,0,234,122,390c0,0,122,155,305,155c0,0,144,0,209,-127l8,-16l86,417H993L767,0H638l22,108L642,90C642,90,532,-20,400,-20Z" 
id="f2_1z"
transform="scale(0.001,-0.001)" />

<path d="M17,0L389,412L201,800H376L500,518L742,800H904L554,410L750,0H580L448,303L187,0Z" 
id="f2_2j"
transform="scale(0.001,-0.001)" />

<path d="M99,-328c0,0,-46,0,-76,13l25,123c0,0,29,-14,81,-14c0,0,47,0,76,31c0,0,28,31,106,162L185,800H339L415,141L769,800H918L456,0C456,0,329,-216,269,-272c0,0,-61,-56,-170,-56Z" 
id="f2_2k"
transform="scale(0.001,-0.001)" />

<path d="M355,0V355H0v72H355V784h72V427H782V355H427V0Z" 
id="f3_f"
transform="scale(0.001,-0.001)" />

<path d="M0,214v74H784V214ZM0,494v72H784V494Z" 
id="f3_x"
transform="scale(0.001,-0.001)" />

<path d="M45,0V81L673,391L45,704v80L795,412V374L45,0Z" 
id="f3_y"
transform="scale(0.001,-0.001)" />

<path d="M310,0L12,799H168L383,145L604,799H752L454,0Z" 
id="f1_2h"
transform="scale(0.001,-0.001)" />

<path d="M424,-28c0,0,-180,0,-272,86c0,0,-92,87,-100,266H192c0,0,12,-126,66,-180c0,0,55,-54,170,-54c0,0,100,0,163,57c0,0,64,57,64,147c0,0,0,94,-61,149c0,0,-52,48,-135,54c0,0,-38,2,-72,2c0,0,-34,0,-45,-3V613c0,0,17,-3,51,-3c0,0,35,0,68,4c0,0,66,8,106,43c0,0,55,45,55,125c0,0,0,77,-58,125c0,0,-58,48,-148,48c0,0,-96,0,-147,-58c0,0,-51,-59,-56,-175H82c0,0,0,168,89,260c0,0,88,93,250,93c0,0,153,0,247,-77c0,0,94,-76,94,-202c0,0,0,-124,-95,-201c0,0,-18,-15,-39,-27c0,0,39,-17,69,-41c0,0,101,-79,101,-214c0,0,0,-151,-105,-246c0,0,-104,-95,-269,-95Z" 
id="f1_m"
transform="scale(0.001,-0.001)" />

<path d="M412,-328c0,0,-195,96,-303,284C109,-44,0,142,0,365c0,0,0,232,114,422c0,0,114,191,298,273v-31c0,0,-92,-51,-151,-139c0,0,-59,-88,-88,-223c0,0,-29,-136,-29,-282c0,0,0,-167,27,-301c0,0,26,-133,82,-221c0,0,55,-89,159,-159v-32Z" 
id="f3_c"
transform="scale(0.001,-0.001)" />

<path d="M34,-328v32c0,0,92,50,151,138c0,0,59,88,88,222c0,0,29,135,29,283c0,0,0,165,-27,300c0,0,-26,134,-82,222c0,0,-56,89,-159,160v31c0,0,194,-96,303,-284c0,0,108,-187,108,-410c0,0,0,-232,-114,-422c0,0,-114,-191,-297,-272Z" 
id="f3_d"
transform="scale(0.001,-0.001)" />

<path d="M0,356v74H784V356Z" 
id="f3_h"
transform="scale(0.001,-0.001)" />

<path d="M39,0V0c0,0,0,170,84,277c0,0,85,108,317,236c0,0,113,62,154,115c0,0,41,52,41,134c0,0,0,86,-62,141c0,0,-61,54,-156,54c0,0,-101,0,-158,-68c0,0,-57,-68,-60,-194H67c0,0,-2,178,95,279c0,0,98,101,273,101c0,0,149,0,245,-89c0,0,94,-88,94,-228c0,0,0,-118,-60,-195c0,0,-61,-76,-229,-169C485,394,303,294,237,212c0,0,-28,-36,-46,-81H774V0Z" 
id="f1_l"
transform="scale(0.001,-0.001)" />

<path d="M748,462c0,0,3,31,3,63c0,0,0,86,-45,132c0,0,-46,45,-134,45c0,0,-100,0,-180,-85c0,0,-58,-63,-90,-155ZM419,-20c0,0,-136,0,-213,73c0,0,-77,74,-78,206c0,0,0,25,4,58c0,0,4,32,10,63c0,0,44,208,169,326c0,0,125,117,305,117c0,0,128,0,198,-73c0,0,71,-73,71,-207c0,0,1,-100,-24,-189H278l-4,-25c0,0,-3,-30,-3,-55c0,0,0,-90,44,-134c0,0,44,-45,133,-45c0,0,87,0,156,44c0,0,68,45,95,117H830C830,256,782,126,674,52c0,0,-108,-72,-255,-72Z" 
id="f2_20"
transform="scale(0.001,-0.001)" />

<path d="M212,0c0,0,51,270,162,500c0,0,109,222,281,422H57v131H799V934C799,934,623,726,515,498C515,498,408,269,362,0Z" 
id="f1_q"
transform="scale(0.001,-0.001)" />

<path d="M528,-29c0,0,-215,0,-336,99C192,70,75,170,75,342v8H211c0,0,4,-119,87,-184c0,0,83,-65,231,-65c0,0,136,0,207,47c0,0,71,47,71,138c0,0,0,79,-47,118c0,0,-47,37,-187,71L382,520c0,0,-145,34,-207,96c0,0,-62,61,-62,169c0,0,0,158,107,250c0,0,107,92,289,92c0,0,185,0,295,-92c0,0,110,-93,117,-256H784c0,0,-9,104,-81,161c0,0,-72,56,-194,56c0,0,-125,0,-190,-48c0,0,-65,-49,-65,-142c0,0,0,-64,43,-95c0,0,43,-32,174,-62L662,603c0,0,154,-37,220,-108c0,0,65,-71,65,-201c0,0,0,-150,-113,-237c0,0,-113,-86,-306,-86Z" 
id="f1_1i"
transform="scale(0.001,-0.001)" />

<path d="M103,0V1097H237V0Z" 
id="f1_27"
transform="scale(0.001,-0.001)" />

<path d="M649,461c0,0,-6,111,-55,172c0,0,-55,69,-160,69c0,0,-106,0,-170,-79c0,0,-50,-62,-60,-162ZM425,-20c0,0,-169,0,-266,106c0,0,-97,107,-97,297c0,0,0,201,102,320c0,0,103,119,276,119c0,0,157,0,253,-116c0,0,96,-117,96,-306l-1,-48H204c0,0,8,-119,54,-182c0,0,57,-76,180,-76c0,0,77,0,134,43c0,0,58,43,70,110H775C775,247,746,116,656,47c0,0,-90,-67,-231,-67Z" 
id="f1_20"
transform="scale(0.001,-0.001)" />

<path d="M335,90c0,0,106,0,179,57c0,0,50,41,67,91c0,0,3,10,4,31c0,0,3,21,3,47v87c0,0,-38,-18,-83,-25L381,360c0,0,-97,-13,-142,-45c0,0,-44,-31,-44,-86c0,0,0,-67,36,-103c0,0,37,-36,104,-36ZM309,-20c0,0,-117,0,-186,61c0,0,-68,63,-68,169c0,0,0,108,64,171c0,0,65,64,189,79l183,23c0,0,22,3,42,8c0,0,26,7,40,27c0,0,15,20,15,51v6c0,0,0,64,-49,101c0,0,-48,36,-135,36c0,0,-83,0,-130,-38c0,0,-46,-39,-56,-115H94c0,0,10,131,92,197c0,0,83,66,238,66c0,0,145,0,222,-63c0,0,76,-63,76,-184V137c0,0,0,-21,12,-33c0,0,12,-12,33,-12c0,0,6,0,18,1c0,0,11,2,25,5V1c0,0,-20,-7,-41,-11c0,0,-22,-5,-37,-5c0,0,-76,0,-110,41c0,0,-22,28,-32,79c0,0,-15,-19,-34,-36c0,0,-101,-89,-247,-89Z" 
id="f1_1w"
transform="scale(0.001,-0.001)" />

<path d="M99,0V1097H233V690l23,30c0,0,87,102,219,102c0,0,132,0,203,-71c0,0,72,-72,72,-204V0H616V514c0,0,0,99,-38,142c0,0,-38,44,-124,44c0,0,-102,0,-162,-73c0,0,-59,-74,-59,-199V0Z" 
id="f1_23"
transform="scale(0.001,-0.001)" />

<path d="M132,0V687H22V799H132V935c0,0,0,88,52,133c0,0,52,45,157,45l59,-3V989l-53,2c0,0,-39,0,-60,-24c0,0,-21,-25,-21,-71V799H400V687H266V0Z" 
id="f1_21"
transform="scale(0.001,-0.001)" />

<path d="M292,-9c0,0,-88,0,-124,38c0,0,-36,39,-36,134V689H22V799H132v224H266V799H392V689H266V163c0,0,0,-27,21,-43c0,0,21,-15,57,-15h48V1C392,1,324,-9,292,-9Z" 
id="f1_2f"
transform="scale(0.001,-0.001)" />

<path d="M248,0L21,799H169L322,163L478,799H627L788,158L950,799h133L857,0H713L548,624L392,0Z" 
id="f1_2i"
transform="scale(0.001,-0.001)" />

<path d="M418,95c0,0,98,0,158,73c0,0,59,73,59,193c0,0,0,170,-54,254c0,0,-54,85,-163,85c0,0,-113,0,-165,-72c0,0,-52,-71,-52,-227c0,0,0,-147,57,-227c0,0,56,-79,160,-79ZM394,-336c0,0,-136,0,-216,62c0,0,-79,63,-96,182H219c0,0,12,-64,57,-98c0,0,45,-35,116,-35c0,0,116,0,176,73c0,0,61,73,61,211V85l-1,-1C628,84,545,-20,412,-20c0,0,-161,0,-256,118c0,0,-94,120,-94,324c0,0,0,179,93,290c0,0,93,110,244,110c0,0,144,0,228,-124l10,-14V799H763V59c0,0,-1,-201,-91,-298c0,0,-91,-97,-278,-97Z" 
id="f1_22"
transform="scale(0.001,-0.001)" />

<path d="M411,93c0,0,98,0,158,73c0,0,60,74,60,195c0,0,0,163,-57,252c0,0,-56,88,-161,88c0,0,-113,0,-165,-72c0,0,-52,-72,-52,-229c0,0,0,-147,56,-227c0,0,56,-80,161,-80ZM404,-20c0,0,-161,0,-255,118c0,0,-95,120,-95,324c0,0,0,179,92,290c0,0,91,110,239,110c0,0,147,0,233,-124l11,-15v414H763V0H638V109L621,84C621,84,538,-20,404,-20Z" 
id="f1_1z"
transform="scale(0.001,-0.001)" />

<path d="M118,0V799H246V662c0,0,17,32,36,58c0,0,76,102,187,102c0,0,19,0,38,-6V679l-27,1c0,0,-109,0,-168,-66c0,0,-60,-65,-60,-186V0Z" 
id="f1_2d"
transform="scale(0.001,-0.001)" />

<path d="M406,93c0,0,97,0,156,73c0,0,59,74,59,195c0,0,0,163,-56,252c0,0,-55,88,-158,88c0,0,-111,0,-162,-72c0,0,-51,-73,-51,-229c0,0,0,-147,55,-227c0,0,55,-80,157,-80ZM621,-315V93l-7,-9C614,84,532,-20,400,-20c0,0,-159,0,-253,118c0,0,-93,119,-93,323c0,0,0,180,90,291c0,0,91,110,237,110c0,0,146,0,231,-124c0,0,10,-14,17,-29V799H755V-315Z" 
id="f1_2c"
transform="scale(0.001,-0.001)" />

<path d="M375,-20c0,0,-136,0,-203,66c0,0,-68,68,-68,204V799H238V284c0,0,0,-101,38,-146c0,0,39,-44,127,-44c0,0,97,0,153,75c0,0,57,75,57,203V799H747V0H620V122c0,0,-14,-22,-30,-41C590,81,504,-20,375,-20Z" 
id="f1_2g"
transform="scale(0.001,-0.001)" />

<path d="M133,0V162H292V0Zm0,628V790H292V628Z" 
id="f1_t"
transform="scale(0.001,-0.001)" />

<path d="M62,-123V268c0,0,0,230,56,452c0,0,47,190,134,334c0,0,87,144,204,242c0,0,85,73,194,119l18,-16c0,0,-211,-145,-335,-339c0,0,-98,-156,-149,-374c0,0,-50,-218,-50,-403V-123Z" 
id="f3_4o"
transform="scale(0.001,-0.001)" />

<path d="M617,-123V283c0,0,0,236,-63,459c0,0,-63,223,-188,392c0,0,-108,146,-282,265l17,16c0,0,180,-76,320,-248c0,0,139,-172,204,-417c0,0,64,-245,64,-482V-123Z" 
id="f3_54"
transform="scale(0.001,-0.001)" />

<path d="M62,-123V1415h72V-123Z" 
id="f3_4p"
transform="scale(0.001,-0.001)" />

<path d="M617,-123V1415h72V-123Z" 
id="f3_55"
transform="scale(0.001,-0.001)" />

<path d="M650,-123c0,0,-180,75,-319,246c0,0,-140,172,-205,418c0,0,-64,245,-64,481v393h72V1007c0,0,0,-236,63,-459c0,0,63,-223,189,-391c0,0,108,-145,282,-265l-18,-15Z" 
id="f3_4q"
transform="scale(0.001,-0.001)" />

<path d="M101,-123l-17,15c0,0,210,144,334,339c0,0,99,156,149,373c0,0,50,218,50,403v408h72V1022c0,0,0,-230,-56,-451c0,0,-48,-191,-134,-335C499,236,412,92,295,-5c0,0,-84,-73,-194,-118Z" 
id="f3_56"
transform="scale(0.001,-0.001)" />

<path d="M390,-1V329H60V441H390V771H503V441H833V329H503V-1Z" 
id="f1_e"
transform="scale(0.001,-0.001)" />

<path d="M0,368V478H849V368Z" 
id="f1_99"
transform="scale(0.001,-0.001)" />

<path d="M60,174V286H832V174Zm0,309V595H832V483Z" 
id="f1_w"
transform="scale(0.001,-0.001)" />

<path d="M133,-225v70c0,0,47,8,65,52c0,0,14,35,16,103H133V162H292V27c0,0,0,-116,-36,-173c0,0,-37,-58,-123,-79Zm0,853V790H292V628Z" 
id="f1_u"
transform="scale(0.001,-0.001)" />

<path d="M424,92c0,0,98,0,161,58c0,0,62,58,62,149c0,0,0,92,-62,151c0,0,-63,58,-161,58c0,0,-98,0,-160,-58c0,0,-63,-59,-63,-151c0,0,0,-91,63,-149c0,0,62,-58,160,-58Zm0,533c0,0,82,0,134,46c0,0,52,45,52,118c0,0,0,72,-52,118c0,0,-52,46,-134,46c0,0,-82,0,-134,-46c0,0,-52,-46,-52,-118c0,0,0,-73,52,-119c0,0,52,-45,134,-45Zm0,-653c0,0,-165,0,-265,90C159,62,59,154,59,305c0,0,0,134,100,216c0,0,35,28,78,47c0,0,-27,15,-52,33c0,0,-90,70,-90,185c0,0,0,130,90,209c0,0,91,80,239,80c0,0,148,0,238,-80c0,0,91,-79,91,-209c0,0,0,-115,-91,-185c0,0,-24,-19,-52,-32c0,0,44,-20,79,-49c0,0,101,-81,101,-215c0,0,0,-151,-101,-243c0,0,-100,-90,-265,-90Z" 
id="f1_r"
transform="scale(0.001,-0.001)" />

<path d="M494,385V878L152,385ZM494,0V262H20V385l498,708H628V385H775V262H628V0Z" 
id="f4_o"
transform="scale(0.001,-0.001)" />

<path d="M125,0V1051H268V115H799V0Z" 
id="f0_1c"
transform="scale(0.001,-0.001)" />

<path d="M106,0V620c0,0,0,85,-5,188H228c0,0,6,-138,6,-165h3c0,0,32,103,74,141c0,0,42,38,118,38c0,0,27,0,54,-7V692c0,0,-26,7,-71,7c0,0,-84,0,-128,-72c0,0,-44,-72,-44,-206V0Z" 
id="f0_2e"
transform="scale(0.001,-0.001)" />

<path d="M606,-14c0,0,-164,0,-284,65c0,0,-119,66,-182,189c0,0,-63,123,-63,291c0,0,0,255,137,396c0,0,137,140,386,140c0,0,174,0,283,-59c0,0,109,-59,168,-189L915,779c0,0,-44,90,-123,131c0,0,-79,41,-196,41c0,0,-182,0,-278,-110c0,0,-96,-110,-96,-310c0,0,0,-200,102,-315c0,0,102,-115,282,-115c0,0,103,0,193,31c0,0,89,31,144,85V407H629V526h445V164c0,0,-83,-85,-205,-132c0,0,-121,-46,-263,-46Z" 
id="f0_17"
transform="scale(0.001,-0.001)" />

<path d="M355,-14c0,0,-133,0,-194,65c0,0,-62,66,-62,219V808H234V296c0,0,0,-80,16,-124c0,0,16,-44,50,-64c0,0,34,-19,101,-19c0,0,97,0,153,66c0,0,55,67,55,185V808H744V172c0,0,0,-141,4,-172H621c0,0,0,4,-1,20c0,0,-1,17,-2,38c0,0,-1,21,-3,80h-2C613,138,567,55,506,20c0,0,-61,-34,-151,-34Z" 
id="f0_2h"
transform="scale(0.001,-0.001)" />

<path d="M395,89c0,0,115,0,166,79c0,0,51,79,51,246c0,0,0,160,-51,235c0,0,-51,75,-164,75c0,0,-102,0,-147,-75c0,0,-45,-75,-45,-244c0,0,0,-170,45,-243c0,0,45,-73,145,-73ZM361,-14c0,0,-153,0,-225,102c0,0,-72,103,-72,312c0,0,0,422,297,422c0,0,92,0,153,-33c0,0,61,-34,98,-107h2l-2,90v335H747V166c0,0,0,-126,4,-166H623c0,0,-2,12,-5,55c0,0,-3,44,-3,75h-3c0,0,-37,-78,-98,-111c0,0,-62,-33,-153,-33Z" 
id="f0_20"
transform="scale(0.001,-0.001)" />

<path d="M140,0V163H285V0Z" 
id="f0_i"
transform="scale(0.001,-0.001)" />


</defs>
</svg>