<?xml version="1.0" encoding="UTF-8" standalone="no"?>
<!DOCTYPE svg PUBLIC "-//W3C//DTD SVG 1.1//EN"
"http://www.w3.org/Graphics/SVG/1.1/DTD/svg11.dtd">
<svg viewBox="0 0 698 1063" version="1.1" xmlns="http://www.w3.org/2000/svg" xmlns:xlink="http://www.w3.org/1999/xlink">
<defs>
<style type="text/css"><![CDATA[
.g0_102{
fill: none;
stroke: #000000;
stroke-width: 0.15277778;
stroke-linecap: round;
stroke-linejoin: miter;
}
.g1_102{
}
.g2_102{
fill: none;
stroke: #000000;
stroke-width: 0.75997776;
stroke-linecap: round;
stroke-linejoin: miter;
}
.g3_102{
fill: none;
stroke: #000000;
stroke-width: 0.7665778;
stroke-linecap: round;
stroke-linejoin: miter;
}
.g4_102{
fill: none;
stroke: #000000;
stroke-width: 0.7526444;
stroke-linecap: round;
stroke-linejoin: miter;
}
.g5_102{
fill: none;
stroke: #000000;
stroke-width: 0.7504445;
stroke-linecap: round;
stroke-linejoin: miter;
}
.g6_102{
fill: none;
stroke: #000000;
stroke-width: 0.7553333;
stroke-linecap: round;
stroke-linejoin: miter;
}
.g7_102{
fill: none;
stroke: #000000;
stroke-width: 0.7506889;
stroke-linecap: round;
stroke-linejoin: miter;
}
]]></style>
</defs>
<g fill="#D4D4D4" fill-opacity="0.56" >
<use xlink:href="#f0_1f" transform="matrix(50.9,-50.9,50.9,50.9,87.1,924.1)" />
<use xlink:href="#f0_2a" transform="matrix(50.9,-50.9,50.9,50.9,147.6,863.6)" />
<use xlink:href="#f0_28" transform="matrix(50.9,-50.9,50.9,50.9,190.9,820.3)" />
<use xlink:href="#f0_25" transform="matrix(50.9,-50.9,50.9,50.9,208.1,803.1)" />
<use xlink:href="#f0_2a" transform="matrix(50.9,-50.9,50.9,50.9,225.4,785.8)" />
<use xlink:href="#f0_21" transform="matrix(50.9,-50.9,50.9,50.9,268.7,742.5)" />
<use xlink:href="#f0_2k" transform="matrix(50.9,-50.9,50.9,50.9,311.9,699.3)" />
<use xlink:href="#f0_1x" transform="matrix(50.9,-50.9,50.9,50.9,350.8,660.4)" />
<use xlink:href="#f0_29" transform="matrix(50.9,-50.9,50.9,50.9,394,617.2)" />
<use xlink:href="#f0_2c" transform="matrix(50.9,-50.9,50.9,50.9,458.8,552.4)" />
<use xlink:href="#f0_2b" transform="matrix(50.9,-50.9,50.9,50.9,502.1,509.1)" />
<use xlink:href="#f0_25" transform="matrix(50.9,-50.9,50.9,50.9,545.3,465.9)" />
<use xlink:href="#f0_2a" transform="matrix(50.9,-50.9,50.9,50.9,562.6,448.6)" />
<use xlink:href="#f0_2g" transform="matrix(50.9,-50.9,50.9,50.9,605.8,405.4)" />
</g>
<g fill="#000000" >
<use xlink:href="#f1_m" transform="matrix(10.4,0,0,10.4,51.4,104.4)" />
<use xlink:href="#f1_q" transform="matrix(10.4,0,0,10.4,60.3,104.4)" />
<use xlink:href="#f1_h" transform="matrix(10.4,0,0,10.4,69.4,104.4)" />
<use xlink:href="#f1_k" transform="matrix(10.4,0,0,10.4,92.1,104.4)" />
<use xlink:href="#f1_m" transform="matrix(10.4,0,0,10.4,344.7,104.4)" />
<use xlink:href="#f1_r" transform="matrix(10.4,0,0,10.4,353.6,104.4)" />
<use xlink:href="#f1_h" transform="matrix(10.4,0,0,10.4,362.8,104.4)" />
<use xlink:href="#f2_2j" transform="matrix(10.4,0,0,10.4,385.4,104.4)" />
<use xlink:href="#f2_99" transform="matrix(10.4,0,0,10.4,400.2,104.4)" />
<use xlink:href="#f1_l" transform="matrix(10.4,0,0,10.4,416,104.4)" />
<use xlink:href="#f1_j" transform="matrix(10.4,0,0,10.4,424.9,104.4)" />
<use xlink:href="#f2_2k" transform="matrix(10.4,0,0,10.4,433.6,104.4)" />
<use xlink:href="#f1_e" transform="matrix(10.4,0,0,10.4,448.5,104.4)" />
<use xlink:href="#f1_l" transform="matrix(10.4,0,0,10.4,464.8,104.4)" />
<use xlink:href="#f1_q" transform="matrix(10.4,0,0,10.4,473.6,104.4)" />
<use xlink:href="#f2_2l" transform="matrix(10.4,0,0,10.4,482.4,104.4)" />
<use xlink:href="#f1_w" transform="matrix(10.4,0,0,10.4,497.5,104.4)" />
<use xlink:href="#f1_k" transform="matrix(10.4,0,0,10.4,513.7,104.4)" />
<use xlink:href="#f1_n" transform="matrix(10.4,0,0,10.4,522.6,104.4)" />
<use xlink:href="#f1_m" transform="matrix(10.4,0,0,10.4,51.4,154.5)" />
<use xlink:href="#f1_s" transform="matrix(10.4,0,0,10.4,60.3,154.5)" />
<use xlink:href="#f1_h" transform="matrix(10.4,0,0,10.4,69.4,154.5)" />
</g>
<path d="M105.2,159.7l1.6,-.9l3.9,6.4l4.2,-16.9h19" class="g0_102" />
<path fill-rule="evenodd" d="M105.1,159.5l2.1,-1.2l3.5,5.4l4,-15.8h19.2v.8H115.2l-4.1,16.5h-.8l-3.9,-5.9l-1,.7l-.3,-.5Z" class="g1_102" />
<path d="M95.1,145.6h40" class="g2_102" />
<g fill="#000000" >
<use xlink:href="#f1_l" transform="matrix(10.4,0,0,10.5,107.5,139.4)" />
<use xlink:href="#f1_k" transform="matrix(10.4,0,0,10.5,116.4,139.4)" />
<use xlink:href="#f1_2g" transform="matrix(10.4,0,0,10.5,139.2,149.9)" />
<use xlink:href="#f1_29" transform="matrix(10.4,0,0,10.5,148.1,149.9)" />
<use xlink:href="#f1_24" transform="matrix(10.4,0,0,10.5,157,149.9)" />
<use xlink:href="#f1_2f" transform="matrix(10.4,0,0,10.5,160.5,149.9)" />
<use xlink:href="#f1_2e" transform="matrix(10.4,0,0,10.5,165,149.9)" />
<use xlink:href="#f1_h" transform="matrix(10.4,0,0,10.5,172.9,149.9)" />
<use xlink:href="#f1_l" transform="matrix(10.4,0,0,10.5,95.9,163.9)" />
<use xlink:href="#f1_l" transform="matrix(10.4,0,0,10.5,115.4,163.9)" />
<use xlink:href="#f1_s" transform="matrix(10.4,0,0,10.5,124.3,163.9)" />
<use xlink:href="#f1_n" transform="matrix(10.4,0,0,10.4,51.4,196.5)" />
<use xlink:href="#f1_j" transform="matrix(10.4,0,0,10.4,60.3,196.5)" />
<use xlink:href="#f1_h" transform="matrix(10.4,0,0,10.4,69.4,196.5)" />
<use xlink:href="#f2_2j" transform="matrix(10.4,0,0,10.4,92.1,196.5)" />
<use xlink:href="#f1_99" transform="matrix(10.4,0,0,10.4,106.9,196.5)" />
<use xlink:href="#f1_l" transform="matrix(10.4,0,0,10.4,122.6,196.5)" />
<use xlink:href="#f2_2k" transform="matrix(10.4,0,0,10.4,131.3,196.5)" />
<use xlink:href="#f1_e" transform="matrix(10.4,0,0,10.4,146.2,196.5)" />
<use xlink:href="#f1_l" transform="matrix(10.4,0,0,10.4,162.3,196.5)" />
<use xlink:href="#f2_2l" transform="matrix(10.4,0,0,10.4,171.1,196.5)" />
<use xlink:href="#f1_w" transform="matrix(10.4,0,0,10.4,186,196.5)" />
<use xlink:href="#f1_j" transform="matrix(10.4,0,0,10.4,202.1,196.5)" />
<use xlink:href="#f1_2a" transform="matrix(10.4,0,0,10.4,217.7,196.5)" />
<use xlink:href="#f1_2d" transform="matrix(10.4,0,0,10.4,226.6,196.5)" />
<use xlink:href="#f2_2j" transform="matrix(10.4,0,0,10.4,238.6,196.5)" />
<use xlink:href="#f1_99" transform="matrix(10.4,0,0,10.4,253.4,196.5)" />
<use xlink:href="#f1_l" transform="matrix(10.4,0,0,10.4,269.1,196.5)" />
<use xlink:href="#f2_2k" transform="matrix(10.4,0,0,10.4,277.8,196.5)" />
<use xlink:href="#f1_e" transform="matrix(10.4,0,0,10.4,292.7,196.5)" />
<use xlink:href="#f1_l" transform="matrix(10.4,0,0,10.4,308.8,196.5)" />
<use xlink:href="#f2_2l" transform="matrix(10.4,0,0,10.4,317.6,196.5)" />
<use xlink:href="#f1_w" transform="matrix(10.4,0,0,10.4,332.4,196.5)" />
<use xlink:href="#f1_p" transform="matrix(10.4,0,0,10.4,348.7,196.5)" />
<use xlink:href="#f1_n" transform="matrix(10.4,0,0,10.4,51.4,253.5)" />
<use xlink:href="#f1_k" transform="matrix(10.4,0,0,10.4,60.3,253.5)" />
<use xlink:href="#f1_h" transform="matrix(10.4,0,0,10.4,69.4,253.5)" />
</g>
<path d="M104.2,245.2h10.1m26.3,0h10.1m32.1,0h10.3" class="g3_102" />
<g fill="#000000" >
<use xlink:href="#f1_k" transform="matrix(10.5,0,0,10.4,105.5,239.1)" />
<use xlink:href="#f1_k" transform="matrix(10.5,0,0,10.4,141.9,239.1)" />
<use xlink:href="#f1_m" transform="matrix(10.5,0,0,10.4,183.6,239.1)" />
<use xlink:href="#f1_f" transform="matrix(10.5,0,0,10.4,118.2,249.4)" />
<use xlink:href="#f1_99" transform="matrix(10.5,0,0,10.4,126.4,249.4)" />
<use xlink:href="#f1_f" transform="matrix(10.5,0,0,10.4,154.6,249.4)" />
<use xlink:href="#f1_99" transform="matrix(10.5,0,0,10.4,166.3,249.4)" />
<use xlink:href="#f1_l" transform="matrix(10.5,0,0,10.4,104.9,260.1)" />
<use xlink:href="#f1_l" transform="matrix(10.5,0,0,10.4,141.4,260.1)" />
<use xlink:href="#f1_l" transform="matrix(10.5,0,0,10.4,183.7,260.1)" />
<use xlink:href="#f3_4o" transform="matrix(10.4,0,0,10.4,94.4,240.2)" />
<use xlink:href="#f3_54" transform="matrix(10.4,0,0,10.4,194.8,240.2)" />
<use xlink:href="#f3_4p" transform="matrix(10.4,0,0,10.4,94.4,253.6)" />
<use xlink:href="#f3_55" transform="matrix(10.4,0,0,10.4,194.8,253.6)" />
<use xlink:href="#f3_4q" transform="matrix(10.4,0,0,10.4,94.4,260.1)" />
<use xlink:href="#f3_56" transform="matrix(10.4,0,0,10.4,194.8,260.1)" />
<use xlink:href="#f1_n" transform="matrix(10.4,0,0,10.4,344.7,253.5)" />
<use xlink:href="#f1_l" transform="matrix(10.4,0,0,10.4,353.6,253.5)" />
<use xlink:href="#f1_h" transform="matrix(10.4,0,0,10.4,362.8,253.5)" />
</g>
<path d="M389.8,258.7l1.6,-.9l3.8,6.4l4.2,-16.9h9.8" class="g0_102" />
<path fill-rule="evenodd" d="M389.7,258.5l2,-1.2l3.5,5.4l3.9,-15.8h10.1v.8h-9.6l-4,16.5h-.8L391,258.3l-1.1,.7l-.2,-.5Z" class="g1_102" />
<path d="M388.4,244.6h22.1" class="g4_102" />
<g fill="#000000" >
<use xlink:href="#f1_k" transform="matrix(10.6,0,0,10.5,395.7,238.4)" />
<use xlink:href="#f1_p" transform="matrix(10.6,0,0,10.5,399.8,262.9)" />
<use xlink:href="#f1_n" transform="matrix(10.4,0,0,10.4,51.4,315.1)" />
<use xlink:href="#f1_m" transform="matrix(10.4,0,0,10.4,60.3,315.1)" />
<use xlink:href="#f1_h" transform="matrix(10.4,0,0,10.4,69.4,315.1)" />
</g>
<path d="M95.1,309.3h17.7" class="g5_102" />
<g fill="#000000" >
<use xlink:href="#f1_k" transform="matrix(10.5,0,0,10.5,94.6,303.2)" />
<use xlink:href="#f1_q" transform="matrix(10.5,0,0,10.5,103.6,303.2)" />
<use xlink:href="#f1_l" transform="matrix(10.5,0,0,10.5,99.8,324.3)" />
<use xlink:href="#f1_n" transform="matrix(10.4,0,0,10.4,344.7,315.1)" />
<use xlink:href="#f1_n" transform="matrix(10.4,0,0,10.4,353.6,315.1)" />
<use xlink:href="#f1_h" transform="matrix(10.4,0,0,10.4,362.8,315.1)" />
<use xlink:href="#f4_4" transform="matrix(13.8,0,0,10.3,529.2,309.8)" />
<use xlink:href="#f3_c" transform="matrix(10.3,0,0,16.5,420.3,315)" />
<use xlink:href="#f3_d" transform="matrix(10.3,0,0,16.5,538.9,315)" />
<use xlink:href="#f1_s" transform="matrix(10.4,0,0,10.3,427,315.4)" />
<use xlink:href="#f1_k" transform="matrix(10.4,0,0,10.3,462.3,315.4)" />
<use xlink:href="#f1_q" transform="matrix(10.4,0,0,10.3,471.3,315.4)" />
<use xlink:href="#f1_l" transform="matrix(10.4,0,0,10.3,509.8,315.4)" />
<use xlink:href="#f1_m" transform="matrix(10.4,0,0,10.3,518.8,315.4)" />
<use xlink:href="#f1_l" transform="matrix(10.4,0,0,10.3,569.7,315.4)" />
<use xlink:href="#f1_j" transform="matrix(10.4,0,0,10.3,578.8,315.4)" />
<use xlink:href="#f2_2d" transform="matrix(10.4,0,0,10.3,392.4,315.4)" />
<use xlink:href="#f2_24" transform="matrix(10.4,0,0,10.3,435.5,315.4)" />
<use xlink:href="#f2_25" transform="matrix(10.4,0,0,10.3,481.8,315.4)" />
<use xlink:href="#f2_26" transform="matrix(10.4,0,0,10.3,527.3,315.4)" />
<use xlink:href="#f3_49" transform="matrix(10.3,0,0,10.3,411,315.4)" />
<use xlink:href="#f3_f" transform="matrix(10.3,0,0,10.3,447.8,315.4)" />
<use xlink:href="#f3_f" transform="matrix(10.3,0,0,10.3,494.1,315.4)" />
<use xlink:href="#f3_x" transform="matrix(10.3,0,0,10.3,552.3,315.4)" />
<use xlink:href="#f4_23" transform="matrix(10.4,0,0,10.3,388.6,301.2)" />
<use xlink:href="#f4_23" transform="matrix(10.4,0,0,10.3,394.3,301.2)" />
<use xlink:href="#f4_20" transform="matrix(10.4,0,0,10.3,398.4,301.2)" />
<use xlink:href="#f4_4" transform="matrix(10.4,0,0,10.3,436,309.8)" />
<use xlink:href="#f4_4" transform="matrix(10.4,0,0,10.3,481.2,309.8)" />
<use xlink:href="#f1_n" transform="matrix(10.4,0,0,10.4,51.4,355.2)" />
<use xlink:href="#f1_o" transform="matrix(10.4,0,0,10.4,60.3,355.2)" />
<use xlink:href="#f1_h" transform="matrix(10.4,0,0,10.4,69.4,355.2)" />
<use xlink:href="#f1_l" transform="matrix(10.4,0,0,10.4,92.1,355.2)" />
<use xlink:href="#f2_2j" transform="matrix(10.4,0,0,10.4,100.9,355.2)" />
<use xlink:href="#f1_99" transform="matrix(10.4,0,0,10.4,115.7,355.2)" />
<use xlink:href="#f1_q" transform="matrix(10.4,0,0,10.4,131.4,355.2)" />
<use xlink:href="#f2_2k" transform="matrix(10.4,0,0,10.4,140.1,355.2)" />
<use xlink:href="#f1_e" transform="matrix(10.4,0,0,10.4,155,355.2)" />
<use xlink:href="#f1_n" transform="matrix(10.4,0,0,10.4,171.3,355.2)" />
<use xlink:href="#f2_2l" transform="matrix(10.4,0,0,10.4,180.1,355.2)" />
<use xlink:href="#f1_e" transform="matrix(10.4,0,0,10.4,194.9,355.2)" />
<use xlink:href="#f1_k" transform="matrix(10.4,0,0,10.4,211,355.2)" />
<use xlink:href="#f1_o" transform="matrix(10.4,0,0,10.4,219.9,355.2)" />
<use xlink:href="#f1_w" transform="matrix(10.4,0,0,10.4,235.7,355.2)" />
<use xlink:href="#f1_j" transform="matrix(10.4,0,0,10.4,251.8,355.2)" />
<use xlink:href="#f1_n" transform="matrix(10.4,0,0,10.4,51.4,402.4)" />
<use xlink:href="#f1_q" transform="matrix(10.4,0,0,10.4,60.3,402.4)" />
<use xlink:href="#f1_h" transform="matrix(10.4,0,0,10.4,69.4,402.4)" />
<use xlink:href="#f2_2j" transform="matrix(10.4,0,0,10.4,92.1,402.4)" />
<use xlink:href="#f2_99" transform="matrix(10.4,0,0,10.4,106.7,402.4)" />
<use xlink:href="#f1_l" transform="matrix(10.4,0,0,10.4,122.3,402.4)" />
<use xlink:href="#f2_2k" transform="matrix(10.4,0,0,10.4,131.1,402.4)" />
<use xlink:href="#f1_e" transform="matrix(10.4,0,0,10.4,146,402.4)" />
<use xlink:href="#f2_2l" transform="matrix(10.4,0,0,10.4,162.1,402.4)" />
<use xlink:href="#f1_w" transform="matrix(10.4,0,0,10.4,177,402.4)" />
<use xlink:href="#f1_j" transform="matrix(10.4,0,0,10.4,193.1,402.4)" />
<use xlink:href="#f1_n" transform="matrix(10.4,0,0,10.4,344.7,402.4)" />
<use xlink:href="#f1_r" transform="matrix(10.4,0,0,10.4,353.6,402.4)" />
<use xlink:href="#f1_h" transform="matrix(10.4,0,0,10.4,362.8,402.4)" />
</g>
<path d="M388.4,396.6h17.8" class="g5_102" />
<g fill="#000000" >
<use xlink:href="#f1_k" transform="matrix(10.5,0,0,10.5,387.9,390.4)" />
<use xlink:href="#f1_p" transform="matrix(10.5,0,0,10.5,396.9,390.4)" />
<use xlink:href="#f1_q" transform="matrix(10.5,0,0,10.5,393,411.6)" />
<use xlink:href="#f1_n" transform="matrix(10.4,0,0,10.4,51.4,458.8)" />
<use xlink:href="#f1_s" transform="matrix(10.4,0,0,10.4,60.3,458.8)" />
<use xlink:href="#f1_h" transform="matrix(10.4,0,0,10.4,69.4,458.8)" />
</g>
<path d="M96.4,464.1l1.6,-.9l3.9,6.4l4.2,-17h18.8" class="g0_102" />
<path fill-rule="evenodd" d="M96.3,463.9l2.1,-1.3l3.5,5.4l3.9,-15.8h19.1v.8H106.4l-4.1,16.6h-.8l-3.8,-5.9l-1.1,.6l-.3,-.4Z" class="g1_102" />
<path d="M95.1,449.9h31" class="g6_102" />
<g fill="#000000" >
<use xlink:href="#f1_r" transform="matrix(10.5,0,0,10.5,106.3,443.8)" />
<use xlink:href="#f1_l" transform="matrix(10.5,0,0,10.5,106.5,468.3)" />
<use xlink:href="#f1_s" transform="matrix(10.5,0,0,10.5,115.5,468.3)" />
<use xlink:href="#f1_o" transform="matrix(10.4,0,0,10.4,344.7,458.8)" />
<use xlink:href="#f1_k" transform="matrix(10.4,0,0,10.4,353.6,458.8)" />
<use xlink:href="#f1_h" transform="matrix(10.4,0,0,10.4,362.8,458.8)" />
</g>
<path d="M427.9,456.6l1.7,-.9l3.9,6.2l4.2,-16.5h9.8" class="g0_102" />
<path fill-rule="evenodd" d="M427.8,456.4l2.1,-1.2l3.6,5.2l4,-15.3h10v.7H438l-4.1,16.1h-.8l-3.9,-5.7l-1.1,.6l-.3,-.4Z" class="g1_102" />
<g fill="#000000" >
<use xlink:href="#f4_4" transform="matrix(13.8,0,0,10.3,506.4,455.2)" />
<use xlink:href="#f3_c" transform="matrix(10.3,0,0,16.5,420.4,460.4)" />
<use xlink:href="#f3_d" transform="matrix(10.3,0,0,16.5,516.2,460.4)" />
<use xlink:href="#f1_l" transform="matrix(10.4,0,0,10.3,438.2,460.8)" />
<use xlink:href="#f1_l" transform="matrix(10.4,0,0,10.3,547,460.8)" />
<use xlink:href="#f2_2d" transform="matrix(10.4,0,0,10.3,392.4,460.8)" />
<use xlink:href="#f2_24" transform="matrix(10.4,0,0,10.3,447.7,460.8)" />
<use xlink:href="#f2_25" transform="matrix(10.4,0,0,10.3,477.1,460.8)" />
<use xlink:href="#f2_26" transform="matrix(10.4,0,0,10.3,504.6,460.8)" />
<use xlink:href="#f3_49" transform="matrix(10.3,0,0,10.3,411.1,460.8)" />
<use xlink:href="#f3_f" transform="matrix(10.3,0,0,10.3,459.9,460.8)" />
<use xlink:href="#f3_f" transform="matrix(10.3,0,0,10.3,489.4,460.8)" />
<use xlink:href="#f3_x" transform="matrix(10.3,0,0,10.3,529.6,460.8)" />
<use xlink:href="#f4_23" transform="matrix(10.3,0,0,10.3,388.5,446.6)" />
<use xlink:href="#f4_23" transform="matrix(10.3,0,0,10.3,394.3,446.6)" />
<use xlink:href="#f4_20" transform="matrix(10.3,0,0,10.3,398.4,446.6)" />
<use xlink:href="#f4_4" transform="matrix(10.3,0,0,10.3,448,455.2)" />
<use xlink:href="#f4_4" transform="matrix(10.3,0,0,10.3,476.5,455.2)" />
<use xlink:href="#f1_o" transform="matrix(10.4,0,0,10.4,51.4,504.8)" />
<use xlink:href="#f1_l" transform="matrix(10.4,0,0,10.4,60.3,504.8)" />
<use xlink:href="#f1_h" transform="matrix(10.4,0,0,10.4,69.4,504.8)" />
<use xlink:href="#f4_4" transform="matrix(14,0,0,10.5,170.7,500.6)" />
</g>
<path d="M190.1,502l1.6,-.9l3.9,6.4l4.2,-16.7h17.8" class="g0_102" />
<path fill-rule="evenodd" d="M190,501.8l2.1,-1.2l3.5,5.3l4,-15.5h18v.7H200.1L196,507.5h-.7l-3.9,-5.9l-1.1,.7l-.3,-.5Z" class="g1_102" />
<g fill="#000000" >
<use xlink:href="#f1_l" transform="matrix(10.4,0,0,10.5,122.5,506.4)" />
<use xlink:href="#f1_m" transform="matrix(10.4,0,0,10.5,160.5,506.4)" />
<use xlink:href="#f1_f" transform="matrix(10.4,0,0,10.5,178.4,506.4)" />
<use xlink:href="#f1_k" transform="matrix(10.4,0,0,10.5,199,506.4)" />
<use xlink:href="#f1_n" transform="matrix(10.4,0,0,10.5,207.9,506.4)" />
<use xlink:href="#f2_24" transform="matrix(10.4,0,0,10.5,94.7,506.4)" />
<use xlink:href="#f2_25" transform="matrix(10.4,0,0,10.5,132.7,506.4)" />
<use xlink:href="#f2_26" transform="matrix(10.4,0,0,10.5,168.9,506.4)" />
<use xlink:href="#f3_f" transform="matrix(10.4,0,0,10.5,106.8,506.4)" />
<use xlink:href="#f3_f" transform="matrix(10.4,0,0,10.5,144.8,506.4)" />
<use xlink:href="#f4_4" transform="matrix(10.4,0,0,10.5,94.9,500.6)" />
<use xlink:href="#f4_4" transform="matrix(10.4,0,0,10.5,132,500.6)" />
<use xlink:href="#f1_o" transform="matrix(10.4,0,0,10.4,51.4,557.1)" />
<use xlink:href="#f1_n" transform="matrix(10.4,0,0,10.4,60.3,557.1)" />
<use xlink:href="#f1_h" transform="matrix(10.4,0,0,10.4,69.4,557.1)" />
</g>
<path d="M302.2,566.3l1.6,-.9l3.8,6.3l4.1,-16.8h27.6" class="g0_102" />
<path fill-rule="evenodd" d="M302.1,566.1l2,-1.3l3.5,5.4l3.9,-15.7h27.8v.8H312l-4,16.4h-.8l-3.8,-5.8l-1.1,.6l-.2,-.4Z" class="g1_102" />
<path d="M300.8,552.3h39.7" class="g7_102" />
<g fill="#000000" >
<use xlink:href="#f1_k" transform="matrix(7.7,0,0,7.8,281,547)" />
<use xlink:href="#f1_n" transform="matrix(10.5,0,0,10.4,316.3,546.2)" />
<use xlink:href="#f1_q" transform="matrix(10.5,0,0,10.4,94.7,556.5)" />
<use xlink:href="#f1_k" transform="matrix(10.5,0,0,10.4,134.4,556.5)" />
<use xlink:href="#f1_m" transform="matrix(10.5,0,0,10.4,143.3,556.5)" />
<use xlink:href="#f1_n" transform="matrix(10.5,0,0,10.4,184.4,556.5)" />
<use xlink:href="#f1_s" transform="matrix(10.5,0,0,10.4,227.6,556.5)" />
<use xlink:href="#f1_f" transform="matrix(10.5,0,0,10.4,235.7,556.5)" />
<use xlink:href="#f1_1y" transform="matrix(10.5,0,0,10.4,246.6,556.5)" />
<use xlink:href="#f1_2a" transform="matrix(10.5,0,0,10.4,254.6,556.5)" />
<use xlink:href="#f1_2e" transform="matrix(10.5,0,0,10.4,263.5,556.5)" />
<use xlink:href="#f1_l" transform="matrix(10.5,0,0,10.4,312.2,570.4)" />
<use xlink:href="#f1_m" transform="matrix(10.5,0,0,10.4,321,570.4)" />
<use xlink:href="#f1_n" transform="matrix(10.5,0,0,10.4,329.9,570.4)" />
<use xlink:href="#f2_2j" transform="matrix(10.5,0,0,10.4,103.8,556.5)" />
<use xlink:href="#f2_2k" transform="matrix(10.5,0,0,10.4,152.6,556.5)" />
<use xlink:href="#f2_2l" transform="matrix(10.5,0,0,10.4,193.3,556.5)" />
<use xlink:href="#f3_h" transform="matrix(7.8,0,0,7.8,274.5,547)" />
<use xlink:href="#f3_4o" transform="matrix(10.4,0,0,10.4,291.2,547.3)" />
<use xlink:href="#f3_54" transform="matrix(10.4,0,0,10.4,342.2,547.3)" />
<use xlink:href="#f3_f" transform="matrix(10.4,0,0,10.4,120.2,556.5)" />
<use xlink:href="#f3_f" transform="matrix(10.4,0,0,10.4,169,556.5)" />
<use xlink:href="#f3_x" transform="matrix(10.4,0,0,10.4,210.9,556.5)" />
<use xlink:href="#f3_4p" transform="matrix(10.4,0,0,10.4,291.2,561.6)" />
<use xlink:href="#f3_55" transform="matrix(10.4,0,0,10.4,342.2,561.6)" />
<use xlink:href="#f3_4q" transform="matrix(10.4,0,0,10.4,291.2,568.1)" />
<use xlink:href="#f3_56" transform="matrix(10.4,0,0,10.4,342.2,568.1)" />
<use xlink:href="#f1_h" transform="matrix(10.4,0,0,10.4,353.3,557.1)" />
<use xlink:href="#f5_r" transform="matrix(12,0,0,12,661.4,1041.8)" />
</g>
<g fill="#0080FF" fill-opacity="0.5" >
<use xlink:href="#f0_1c" transform="matrix(36.4,0,0,36.4,174.7,1057.1)" />
<use xlink:href="#f0_21" transform="matrix(36.4,0,0,36.4,205.6,1057.1)" />
<use xlink:href="#f0_1x" transform="matrix(36.4,0,0,36.4,236.5,1057.1)" />
<use xlink:href="#f0_2e" transform="matrix(36.4,0,0,36.4,267.5,1057.1)" />
<use xlink:href="#f0_2a" transform="matrix(36.4,0,0,36.4,286,1057.1)" />
<use xlink:href="#f0_17" transform="matrix(36.4,0,0,36.4,316.9,1057.1)" />
<use xlink:href="#f0_2h" transform="matrix(36.4,0,0,36.4,360.2,1057.1)" />
<use xlink:href="#f0_25" transform="matrix(36.4,0,0,36.4,391.2,1057.1)" />
<use xlink:href="#f0_20" transform="matrix(36.4,0,0,36.4,403.5,1057.1)" />
<use xlink:href="#f0_21" transform="matrix(36.4,0,0,36.4,434.5,1057.1)" />
<use xlink:href="#f0_i" transform="matrix(36.4,0,0,36.4,465.4,1057.1)" />
<use xlink:href="#f0_25" transform="matrix(36.4,0,0,36.4,480.9,1057.1)" />
<use xlink:href="#f0_2a" transform="matrix(36.4,0,0,36.4,493.2,1057.1)" />
</g>
<defs>
<path d="M593,101c0,0,182,0,279,112c0,0,98,113,98,318c0,0,0,196,-98,308c0,0,-98,112,-277,112c0,0,-181,0,-279,-110c0,0,-99,-111,-99,-310c0,0,0,-198,100,-314c0,0,99,-116,276,-116Zm0,-115c0,0,-162,0,-279,65c0,0,-118,66,-180,190c0,0,-62,124,-62,290c0,0,0,252,138,394c0,0,138,142,385,142c0,0,160,0,278,-64c0,0,118,-64,180,-185c0,0,62,-122,62,-287c0,0,0,-165,-63,-289c0,0,-63,-124,-181,-190c0,0,-118,-66,-278,-66Z" 
id="f0_1f"
transform="scale(0.001,-0.001)" />

<path d="M106,0V635c0,0,0,141,-5,173H228c0,0,1,-4,2,-21c0,0,1,-16,2,-37c0,0,1,-22,2,-81h2c0,0,47,84,108,119c0,0,60,34,151,34c0,0,132,0,194,-66c0,0,61,-66,61,-218V0H615V512c0,0,0,80,-15,124c0,0,-16,44,-50,63c0,0,-35,20,-101,20c0,0,-97,0,-153,-67c0,0,-56,-66,-56,-184V0Z" 
id="f0_2a"
transform="scale(0.001,-0.001)" />

<path d="M103,0V1107H237V0Z" 
id="f0_28"
transform="scale(0.001,-0.001)" />

<path d="M102,0V808H236V0Zm0,979v128H236V979Z" 
id="f0_25"
transform="scale(0.001,-0.001)" />

<path d="M643,478c0,0,-11,128,-65,187c0,0,-54,59,-154,59c0,0,-98,0,-155,-66c0,0,-57,-65,-62,-180ZM431,-14c0,0,-179,0,-272,106c0,0,-94,107,-94,317c0,0,0,200,94,307c0,0,93,106,267,106c0,0,356,0,356,-429V375H206c0,0,0,-138,57,-213c0,0,58,-75,168,-75c0,0,87,0,140,35c0,0,53,35,71,88L760,177c0,0,-72,-191,-329,-191Z" 
id="f0_21"
transform="scale(0.001,-0.001)" />

<path d="M17,0L304,415L31,808H179L380,493L580,808H730L457,417L747,0H598L380,331L162,0Z" 
id="f0_2k"
transform="scale(0.001,-0.001)" />

<path d="M339,87c0,0,74,0,132,34c0,0,57,33,90,91c0,0,34,59,34,121v66L448,396c0,0,-95,-2,-144,-19c0,0,-49,-18,-75,-55c0,0,-26,-38,-26,-98c0,0,0,-65,35,-101c0,0,36,-36,101,-36ZM309,-14c0,0,-122,0,-183,64c0,0,-61,64,-61,176c0,0,0,125,82,192c0,0,83,67,266,72l182,3v44c0,0,0,98,-42,141c0,0,-42,43,-132,43c0,0,-90,0,-131,-31c0,0,-41,-31,-49,-98L101,604c0,0,34,218,323,218c0,0,153,0,229,-70c0,0,77,-69,77,-202V202c0,0,0,-59,16,-90c0,0,16,-30,60,-30c0,0,19,0,44,5V4C850,4,799,-7,746,-7c0,0,-75,0,-109,38c0,0,-33,40,-38,124h-4C595,155,543,62,475,24c0,0,-68,-38,-166,-38Z" 
id="f0_1x"
transform="scale(0.001,-0.001)" />

<path d="M106,0V635c0,0,0,141,-5,173H228c0,0,1,-4,2,-21c0,0,1,-16,2,-37c0,0,1,-22,2,-81h2c0,0,44,86,100,120c0,0,56,33,136,33c0,0,92,0,145,-36c0,0,54,-37,75,-117h2c0,0,42,82,101,117c0,0,59,36,143,36c0,0,123,0,178,-66c0,0,56,-67,56,-218V0H1039V512c0,0,0,117,-32,162c0,0,-32,45,-116,45c0,0,-88,0,-136,-66c0,0,-49,-65,-49,-185V0H573V512c0,0,0,117,-32,162c0,0,-32,45,-116,45c0,0,-86,0,-136,-66c0,0,-50,-66,-50,-185V0Z" 
id="f0_29"
transform="scale(0.001,-0.001)" />

<path d="M453,84c0,0,100,0,146,74c0,0,46,73,46,247c0,0,0,169,-46,241c0,0,-45,73,-145,73c0,0,-80,0,-125,-34c0,0,-45,-34,-68,-105c0,0,-24,-71,-24,-186c0,0,0,-159,51,-234c0,0,51,-76,165,-76ZM103,-316V643c0,0,0,124,-5,165H228c0,0,1,-3,3,-22c0,0,1,-18,3,-56c0,0,2,-38,2,-52h3c0,0,36,75,94,110c0,0,59,34,156,34c0,0,149,0,223,-100c0,0,74,-100,74,-314c0,0,0,-422,-297,-422c0,0,-187,0,-251,140h-4c0,0,3,-6,3,-126V-316Z" 
id="f0_2c"
transform="scale(0.001,-0.001)" />

<path d="M420,84c0,0,121,0,173,78c0,0,52,77,52,243c0,0,0,167,-50,243c0,0,-50,76,-167,76c0,0,-118,0,-170,-78c0,0,-53,-77,-53,-241c0,0,0,-160,52,-241c0,0,52,-80,163,-80Zm1,-98c0,0,-176,0,-267,107c0,0,-90,108,-90,312c0,0,0,417,362,417c0,0,185,0,272,-102c0,0,88,-101,88,-315c0,0,0,-212,-94,-316C692,89,599,-14,421,-14Z" 
id="f0_2b"
transform="scale(0.001,-0.001)" />

<path d="M278,-11c0,0,-162,0,-162,182V710H23v98h99l39,181h90V808H400V710H251V200c0,0,0,-58,19,-82c0,0,19,-23,66,-23c0,0,27,0,77,10V6c0,0,-66,-17,-135,-17Z" 
id="f0_2g"
transform="scale(0.001,-0.001)" />

<path d="M424,-28c0,0,-180,0,-272,86c0,0,-92,87,-100,266H192c0,0,12,-126,66,-180c0,0,55,-54,170,-54c0,0,100,0,163,57c0,0,64,57,64,147c0,0,0,94,-61,149c0,0,-52,48,-135,54c0,0,-38,2,-72,2c0,0,-34,0,-45,-3V613c0,0,17,-3,51,-3c0,0,35,0,68,4c0,0,66,8,106,43c0,0,55,45,55,125c0,0,0,77,-58,125c0,0,-58,48,-148,48c0,0,-96,0,-147,-58c0,0,-51,-59,-56,-175H82c0,0,0,168,89,260c0,0,88,93,250,93c0,0,153,0,247,-77c0,0,94,-76,94,-202c0,0,0,-124,-95,-201c0,0,-18,-15,-39,-27c0,0,39,-17,69,-41c0,0,101,-79,101,-214c0,0,0,-151,-105,-246c0,0,-104,-95,-269,-95Z" 
id="f1_m"
transform="scale(0.001,-0.001)" />

<path d="M212,0c0,0,51,270,162,500c0,0,109,222,281,422H57v131H799V934C799,934,623,726,515,498C515,498,408,269,362,0Z" 
id="f1_q"
transform="scale(0.001,-0.001)" />

<path d="M133,0V162H292V0Z" 
id="f1_h"
transform="scale(0.001,-0.001)" />

<path d="M406,0V763H155V870h2c16,0,114,2,178,48c0,0,70,51,104,157H549V0Z" 
id="f1_k"
transform="scale(0.001,-0.001)" />

<path d="M424,92c0,0,98,0,161,58c0,0,62,58,62,149c0,0,0,92,-62,151c0,0,-63,58,-161,58c0,0,-98,0,-160,-58c0,0,-63,-59,-63,-151c0,0,0,-91,63,-149c0,0,62,-58,160,-58Zm0,533c0,0,82,0,134,46c0,0,52,45,52,118c0,0,0,72,-52,118c0,0,-52,46,-134,46c0,0,-82,0,-134,-46c0,0,-52,-46,-52,-118c0,0,0,-73,52,-119c0,0,52,-45,134,-45Zm0,-653c0,0,-165,0,-265,90C159,62,59,154,59,305c0,0,0,134,100,216c0,0,35,28,78,47c0,0,-27,15,-52,33c0,0,-90,70,-90,185c0,0,0,130,90,209c0,0,91,80,239,80c0,0,148,0,238,-80c0,0,91,-79,91,-209c0,0,0,-115,-91,-185c0,0,-24,-19,-52,-32c0,0,44,-20,79,-49c0,0,101,-81,101,-215c0,0,0,-151,-101,-243c0,0,-100,-90,-265,-90Z" 
id="f1_r"
transform="scale(0.001,-0.001)" />

<path d="M17,0L389,412L201,800H376L500,518L742,800H904L554,410L750,0H580L448,303L187,0Z" 
id="f2_2j"
transform="scale(0.001,-0.001)" />

<path d="M77,369l25,110H950L926,369Z" 
id="f2_99"
transform="scale(0.001,-0.001)" />

<path d="M39,0V0c0,0,0,170,84,277c0,0,85,108,317,236c0,0,113,62,154,115c0,0,41,52,41,134c0,0,0,86,-62,141c0,0,-61,54,-156,54c0,0,-101,0,-158,-68c0,0,-57,-68,-60,-194H67c0,0,-2,178,95,279c0,0,98,101,273,101c0,0,149,0,245,-89c0,0,94,-88,94,-228c0,0,0,-118,-60,-195c0,0,-61,-76,-229,-169C485,394,303,294,237,212c0,0,-28,-36,-46,-81H774V0Z" 
id="f1_l"
transform="scale(0.001,-0.001)" />

<path d="M424,92c0,0,114,0,170,107c0,0,57,108,56,323c0,0,1,216,-56,324c0,0,-56,107,-170,107c0,0,-112,0,-168,-107c0,0,-56,-108,-57,-324c0,0,1,-215,57,-323c0,0,56,-107,168,-107Zm0,-120c0,0,-176,0,-271,142c0,0,-96,143,-96,408c0,0,0,265,96,409c0,0,95,144,271,144c0,0,178,0,273,-144c0,0,96,-144,96,-409c0,0,0,-265,-96,-408c0,0,-95,-142,-273,-142Z" 
id="f1_j"
transform="scale(0.001,-0.001)" />

<path d="M99,-328c0,0,-46,0,-76,13l25,123c0,0,29,-14,81,-14c0,0,47,0,76,31c0,0,28,31,106,162L185,800H339L415,141L769,800H918L456,0C456,0,329,-216,269,-272c0,0,-61,-56,-170,-56Z" 
id="f2_2k"
transform="scale(0.001,-0.001)" />

<path d="M390,-1V329H60V441H390V771H503V441H833V329H503V-1Z" 
id="f1_e"
transform="scale(0.001,-0.001)" />

<path d="M47,0L58,55l11,55L675,688H237l11,56l11,56H869L857,745L846,690L245,111H740L729,56L718,0Z" 
id="f2_2l"
transform="scale(0.001,-0.001)" />

<path d="M60,174V286H832V174Zm0,309V595H832V483Z" 
id="f1_w"
transform="scale(0.001,-0.001)" />

<path d="M511,373V863L169,383l-7,-10ZM511,0V258H38V383l496,691H646V373H799V258H646V0Z" 
id="f1_n"
transform="scale(0.001,-0.001)" />

<path d="M419,483c0,0,93,0,152,66c0,0,59,66,59,169c0,0,0,103,-59,169c0,0,-59,65,-152,65c0,0,-94,0,-153,-65c0,0,-59,-66,-59,-169c0,0,0,-103,59,-169c0,0,59,-66,153,-66ZM397,-28c0,0,-143,0,-227,75c0,0,-85,77,-91,211H209c0,0,8,-83,57,-128c0,0,49,-45,131,-45c0,0,121,0,186,135c0,0,48,101,62,265C645,485,545,362,397,362c0,0,-150,0,-241,98c0,0,-91,98,-91,258c0,0,0,160,99,258c0,0,99,98,262,98c0,0,173,0,266,-123c0,0,94,-123,94,-349c0,0,0,-303,-101,-467C685,135,583,-28,397,-28Z" 
id="f1_s"
transform="scale(0.001,-0.001)" />

<path d="M375,-20c0,0,-136,0,-203,66c0,0,-68,68,-68,204V799H238V284c0,0,0,-101,38,-146c0,0,39,-44,127,-44c0,0,97,0,153,75c0,0,57,75,57,203V799H747V0H620V122c0,0,-14,-22,-30,-41C590,81,504,-20,375,-20Z" 
id="f1_2g"
transform="scale(0.001,-0.001)" />

<path d="M99,0V799H226V681l30,39c0,0,87,102,219,102c0,0,132,0,203,-71c0,0,72,-72,72,-204V0H616V502c0,0,0,105,-41,151c0,0,-40,47,-132,47c0,0,-97,0,-154,-73c0,0,-56,-74,-56,-199V0Z" 
id="f1_29"
transform="scale(0.001,-0.001)" />

<path d="M104,0V799H238V0Zm-2,946v152H239V946Z" 
id="f1_24"
transform="scale(0.001,-0.001)" />

<path d="M292,-9c0,0,-88,0,-124,38c0,0,-36,39,-36,134V689H22V799H132v224H266V799H392V689H266V163c0,0,0,-27,21,-43c0,0,21,-15,57,-15h48V1C392,1,324,-9,292,-9Z" 
id="f1_2f"
transform="scale(0.001,-0.001)" />

<path d="M393,-20c0,0,-169,0,-252,65c0,0,-83,67,-92,210H178c0,0,10,-85,61,-123c0,0,50,-38,154,-38c0,0,90,0,136,34c0,0,47,35,47,100c0,0,0,42,-31,64c0,0,-30,21,-123,43L283,368c0,0,-112,27,-160,75c0,0,-48,48,-48,135c0,0,0,112,80,178c0,0,81,66,218,66c0,0,140,0,222,-68c0,0,82,-67,88,-187H557c0,0,-6,67,-55,103c0,0,-48,37,-129,37c0,0,-84,0,-127,-29c0,0,-44,-29,-44,-85c0,0,0,-43,31,-65c0,0,30,-21,121,-43L493,452c0,0,117,-28,167,-78c0,0,49,-49,49,-138c0,0,0,-119,-86,-188c0,0,-85,-68,-230,-68Z" 
id="f1_2e"
transform="scale(0.001,-0.001)" />

<path d="M0,368V478H849V368Z" 
id="f1_99"
transform="scale(0.001,-0.001)" />

<path d="M424,94c0,0,107,0,169,83c0,0,63,83,63,223c0,0,0,140,-63,224c0,0,-62,83,-169,83c0,0,-106,0,-168,-83c0,0,-62,-84,-62,-224c0,0,0,-140,62,-223c0,0,62,-83,168,-83Zm0,-114c0,0,-165,0,-268,115C156,95,54,211,54,400c0,0,0,189,102,306c0,0,103,116,268,116c0,0,168,0,270,-116c0,0,102,-117,102,-306c0,0,0,-189,-102,-305C694,95,592,-20,424,-20Z" 
id="f1_2a"
transform="scale(0.001,-0.001)" />

<path d="M118,0V799H246V662c0,0,17,32,36,58c0,0,76,102,187,102c0,0,19,0,38,-6V679l-27,1c0,0,-109,0,-168,-66c0,0,-60,-65,-60,-186V0Z" 
id="f1_2d"
transform="scale(0.001,-0.001)" />

<path d="M432,92c0,0,96,0,156,66c0,0,61,65,61,169c0,0,0,103,-61,169c0,0,-60,66,-156,66c0,0,-95,0,-156,-66c0,0,-61,-66,-61,-169c0,0,0,-104,61,-169c0,0,61,-66,156,-66ZM425,-28c0,0,-176,0,-271,135c0,0,-95,136,-95,388c0,0,0,278,103,429c0,0,103,151,293,151c0,0,142,0,226,-77c0,0,84,-76,90,-211H638c0,0,-8,80,-56,123c0,0,-47,43,-127,43c0,0,-125,0,-192,-119c0,0,-58,-102,-64,-278c0,0,100,127,255,127c0,0,152,0,245,-98c0,0,93,-98,93,-258c0,0,0,-161,-101,-259c0,0,-101,-96,-266,-96Z" 
id="f1_p"
transform="scale(0.001,-0.001)" />

<path d="M133,-224v71c0,0,47,8,65,52c0,0,14,33,17,101H133V163H292V27c0,0,0,-114,-36,-172c0,0,-37,-58,-123,-79Z" 
id="f1_f"
transform="scale(0.001,-0.001)" />

<path d="M62,-123V268c0,0,0,230,56,452c0,0,47,190,134,334c0,0,87,144,204,242c0,0,85,73,194,119l18,-16c0,0,-211,-145,-335,-339c0,0,-98,-156,-149,-374c0,0,-50,-218,-50,-403V-123Z" 
id="f3_4o"
transform="scale(0.001,-0.001)" />

<path d="M617,-123V283c0,0,0,236,-63,459c0,0,-63,223,-188,392c0,0,-108,146,-282,265l17,16c0,0,180,-76,320,-248c0,0,139,-172,204,-417c0,0,64,-245,64,-482V-123Z" 
id="f3_54"
transform="scale(0.001,-0.001)" />

<path d="M62,-123V1415h72V-123Z" 
id="f3_4p"
transform="scale(0.001,-0.001)" />

<path d="M617,-123V1415h72V-123Z" 
id="f3_55"
transform="scale(0.001,-0.001)" />

<path d="M650,-123c0,0,-180,75,-319,246c0,0,-140,172,-205,418c0,0,-64,245,-64,481v393h72V1007c0,0,0,-236,63,-459c0,0,63,-223,189,-391c0,0,108,-145,282,-265l-18,-15Z" 
id="f3_4q"
transform="scale(0.001,-0.001)" />

<path d="M101,-123l-17,15c0,0,210,144,334,339c0,0,99,156,149,373c0,0,50,218,50,403v408h72V1022c0,0,0,-230,-56,-451c0,0,-48,-191,-134,-335C499,236,412,92,295,-5c0,0,-84,-73,-194,-118Z" 
id="f3_56"
transform="scale(0.001,-0.001)" />

<path d="M17,774l191,256h95L493,774H440L255,932L69,774Z" 
id="f4_4"
transform="scale(0.001,-0.001)" />

<path d="M412,-328c0,0,-195,96,-303,284C109,-44,0,142,0,365c0,0,0,232,114,422c0,0,114,191,298,273v-31c0,0,-92,-51,-151,-139c0,0,-59,-88,-88,-223c0,0,-29,-136,-29,-282c0,0,0,-167,27,-301c0,0,26,-133,82,-221c0,0,55,-89,159,-159v-32Z" 
id="f3_c"
transform="scale(0.001,-0.001)" />

<path d="M34,-328v32c0,0,92,50,151,138c0,0,59,88,88,222c0,0,29,135,29,283c0,0,0,165,-27,300c0,0,-26,134,-82,222c0,0,-56,89,-159,160v31c0,0,194,-96,303,-284c0,0,108,-187,108,-410c0,0,0,-232,-114,-422c0,0,-114,-191,-297,-272Z" 
id="f3_d"
transform="scale(0.001,-0.001)" />

<path d="M118,0L283,800H411L380,652c0,0,35,47,69,81c0,0,92,90,197,90c0,0,20,0,38,-5L653,679H604c0,0,-91,0,-164,-61c0,0,-72,-62,-92,-154L253,0Z" 
id="f2_2d"
transform="scale(0.001,-0.001)" />

<path d="M102,0L267,800H402L237,0ZM300,946l31,151H467L436,946Z" 
id="f2_24"
transform="scale(0.001,-0.001)" />

<path d="M-33,-321c0,0,-31,0,-57,4l25,117h26c0,0,60,0,83,18c0,0,22,18,34,75L265,800H400L213,-107c0,0,-24,-117,-81,-166c0,0,-55,-48,-165,-48ZM298,946l32,151H465L434,946Z" 
id="f2_25"
transform="scale(0.001,-0.001)" />

<path d="M102,0L329,1097H464L333,467L745,800H921L546,501L769,0H595L429,409L300,306L237,0Z" 
id="f2_26"
transform="scale(0.001,-0.001)" />

<path d="M83,308c0,0,-35,0,-59,24c0,0,-24,24,-24,59c0,0,0,34,24,58c0,0,24,24,59,24c0,0,33,0,58,-24c0,0,24,-24,24,-58c0,0,0,-35,-24,-59c0,0,-25,-24,-58,-24Z" 
id="f3_49"
transform="scale(0.001,-0.001)" />

<path d="M355,0V355H0v72H355V784h72V427H782V355H427V0Z" 
id="f3_f"
transform="scale(0.001,-0.001)" />

<path d="M0,214v74H784V214ZM0,494v72H784V494Z" 
id="f3_x"
transform="scale(0.001,-0.001)" />

<path d="M0,-26V27H626V-26Z" 
id="f4_23"
transform="scale(0.001,-0.001)" />

<path d="M413,-106l30,80H0V27H443l-30,80L626,0L413,-106Z" 
id="f4_20"
transform="scale(0.001,-0.001)" />

<path d="M417,-28c0,0,-161,0,-259,79c0,0,-98,81,-109,223H189c0,0,11,-90,72,-139c0,0,61,-49,162,-49c0,0,96,0,158,68c0,0,61,68,61,175c0,0,0,112,-64,178c0,0,-64,66,-173,66c0,0,-59,0,-115,-28c0,0,-55,-29,-84,-73L93,480l77,573H727V922H271L225,629l4,3c0,0,89,60,188,60c0,0,169,0,269,-94c0,0,99,-93,99,-253c0,0,0,-165,-103,-269C682,76,579,-28,417,-28Z" 
id="f1_o"
transform="scale(0.001,-0.001)" />

<path d="M394,-20c0,0,-159,0,-253,113c0,0,-95,114,-95,307c0,0,0,193,98,308c0,0,98,114,264,114c0,0,144,0,230,-78c0,0,85,-79,91,-217H600c0,0,-8,86,-59,133c0,0,-52,47,-138,47c0,0,-101,0,-159,-82c0,0,-58,-82,-58,-225c0,0,0,-152,54,-229c0,0,53,-77,159,-77c0,0,79,0,132,50c0,0,52,51,69,143H729C729,287,709,137,623,58c0,0,-86,-78,-229,-78Z" 
id="f1_1y"
transform="scale(0.001,-0.001)" />

<path d="M0,356v74H784V356Z" 
id="f3_h"
transform="scale(0.001,-0.001)" />

<path d="M225,0c0,0,2,129,51,312c0,0,48,183,139,352c0,0,91,170,193,286H72v129H780V975C780,975,676,864,573,680C573,680,470,495,414,301C414,301,374,163,363,0Z" 
id="f5_r"
transform="scale(0.001,-0.001)" />

<path d="M125,0V1051H268V115H799V0Z" 
id="f0_1c"
transform="scale(0.001,-0.001)" />

<path d="M106,0V620c0,0,0,85,-5,188H228c0,0,6,-138,6,-165h3c0,0,32,103,74,141c0,0,42,38,118,38c0,0,27,0,54,-7V692c0,0,-26,7,-71,7c0,0,-84,0,-128,-72c0,0,-44,-72,-44,-206V0Z" 
id="f0_2e"
transform="scale(0.001,-0.001)" />

<path d="M606,-14c0,0,-164,0,-284,65c0,0,-119,66,-182,189c0,0,-63,123,-63,291c0,0,0,255,137,396c0,0,137,140,386,140c0,0,174,0,283,-59c0,0,109,-59,168,-189L915,779c0,0,-44,90,-123,131c0,0,-79,41,-196,41c0,0,-182,0,-278,-110c0,0,-96,-110,-96,-310c0,0,0,-200,102,-315c0,0,102,-115,282,-115c0,0,103,0,193,31c0,0,89,31,144,85V407H629V526h445V164c0,0,-83,-85,-205,-132c0,0,-121,-46,-263,-46Z" 
id="f0_17"
transform="scale(0.001,-0.001)" />

<path d="M355,-14c0,0,-133,0,-194,65c0,0,-62,66,-62,219V808H234V296c0,0,0,-80,16,-124c0,0,16,-44,50,-64c0,0,34,-19,101,-19c0,0,97,0,153,66c0,0,55,67,55,185V808H744V172c0,0,0,-141,4,-172H621c0,0,0,4,-1,20c0,0,-1,17,-2,38c0,0,-1,21,-3,80h-2C613,138,567,55,506,20c0,0,-61,-34,-151,-34Z" 
id="f0_2h"
transform="scale(0.001,-0.001)" />

<path d="M395,89c0,0,115,0,166,79c0,0,51,79,51,246c0,0,0,160,-51,235c0,0,-51,75,-164,75c0,0,-102,0,-147,-75c0,0,-45,-75,-45,-244c0,0,0,-170,45,-243c0,0,45,-73,145,-73ZM361,-14c0,0,-153,0,-225,102c0,0,-72,103,-72,312c0,0,0,422,297,422c0,0,92,0,153,-33c0,0,61,-34,98,-107h2l-2,90v335H747V166c0,0,0,-126,4,-166H623c0,0,-2,12,-5,55c0,0,-3,44,-3,75h-3c0,0,-37,-78,-98,-111c0,0,-62,-33,-153,-33Z" 
id="f0_20"
transform="scale(0.001,-0.001)" />

<path d="M140,0V163H285V0Z" 
id="f0_i"
transform="scale(0.001,-0.001)" />


</defs>
</svg>