<?xml version="1.0" encoding="UTF-8" standalone="no"?>
<!DOCTYPE svg PUBLIC "-//W3C//DTD SVG 1.1//EN"
"http://www.w3.org/Graphics/SVG/1.1/DTD/svg11.dtd">
<svg viewBox="0 0 811 1133" version="1.1" xmlns="http://www.w3.org/2000/svg" xmlns:xlink="http://www.w3.org/1999/xlink">
<defs>
<style type="text/css"><![CDATA[
.g0_64{
fill: none;
stroke: #000000;
stroke-width: 1.0527002;
stroke-linecap: round;
stroke-linejoin: miter;
}
.g1_64{
fill: none;
stroke: #000000;
stroke-width: 1.0503472;
stroke-linecap: round;
stroke-linejoin: miter;
}
.g2_64{
fill: none;
stroke: #000000;
stroke-width: 0.7670667;
stroke-linecap: round;
stroke-linejoin: miter;
}
.g3_64{
fill: none;
stroke: #000000;
stroke-width: 0.76584446;
stroke-linecap: round;
stroke-linejoin: miter;
}
.g4_64{
fill: none;
stroke: #000000;
stroke-width: 0.7616889;
stroke-linecap: round;
stroke-linejoin: miter;
}
.g5_64{
fill: none;
stroke: #000000;
stroke-width: 0.7668222;
stroke-linecap: round;
stroke-linejoin: miter;
}
.g6_64{
fill: none;
stroke: #000000;
stroke-width: 0.15277778;
stroke-linecap: round;
stroke-linejoin: miter;
}
.g7_64{
}
.g8_64{
fill: none;
stroke: #000000;
stroke-width: 0.38194445;
stroke-linecap: round;
stroke-linejoin: miter;
}
.g9_64{
fill: none;
stroke: #000000;
stroke-width: 0.7673111;
stroke-linecap: round;
stroke-linejoin: miter;
}
.g10_64{
fill: none;
stroke: #000000;
stroke-width: 0.7609555;
stroke-linecap: round;
stroke-linejoin: miter;
}
]]></style>
</defs>
<g fill="#D4D4D4" fill-opacity="0.56" >
<use xlink:href="#f0_1f" transform="matrix(50.9,-50.9,50.9,50.9,199.9,924.1)" />
<use xlink:href="#f0_2a" transform="matrix(50.9,-50.9,50.9,50.9,260.4,863.6)" />
<use xlink:href="#f0_28" transform="matrix(50.9,-50.9,50.9,50.9,303.7,820.3)" />
<use xlink:href="#f0_25" transform="matrix(50.9,-50.9,50.9,50.9,320.9,803.1)" />
<use xlink:href="#f0_2a" transform="matrix(50.9,-50.9,50.9,50.9,338.2,785.8)" />
<use xlink:href="#f0_21" transform="matrix(50.9,-50.9,50.9,50.9,381.4,742.5)" />
<use xlink:href="#f0_2k" transform="matrix(50.9,-50.9,50.9,50.9,424.7,699.3)" />
<use xlink:href="#f0_1x" transform="matrix(50.9,-50.9,50.9,50.9,463.6,660.4)" />
<use xlink:href="#f0_29" transform="matrix(50.9,-50.9,50.9,50.9,506.8,617.2)" />
<use xlink:href="#f0_2c" transform="matrix(50.9,-50.9,50.9,50.9,571.6,552.4)" />
<use xlink:href="#f0_2b" transform="matrix(50.9,-50.9,50.9,50.9,614.9,509.1)" />
<use xlink:href="#f0_25" transform="matrix(50.9,-50.9,50.9,50.9,658.1,465.9)" />
<use xlink:href="#f0_2a" transform="matrix(50.9,-50.9,50.9,50.9,675.4,448.6)" />
<use xlink:href="#f0_2g" transform="matrix(50.9,-50.9,50.9,50.9,718.6,405.4)" />
</g>
<g fill="#000000" >
<use xlink:href="#f1_b" transform="matrix(10.4,0,0,10.4,180.7,109.3)" />
<use xlink:href="#f1_2h" transform="matrix(10.4,0,0,10.4,186.1,109.3)" />
<use xlink:href="#f1_24" transform="matrix(10.4,0,0,10.4,194,109.3)" />
<use xlink:href="#f1_24" transform="matrix(10.4,0,0,10.4,197.6,109.3)" />
<use xlink:href="#f1_c" transform="matrix(10.4,0,0,10.4,201.1,109.3)" />
</g>
<path d="M280.1,95.4v15.5M295.7,95.4v15.5M349.3,95.4v15.5M364.9,95.4v15.5" class="g0_64" />
<g fill="#000000" >
<use xlink:href="#f2_c" transform="matrix(10.4,0,0,14.2,248.3,108.4)" />
<use xlink:href="#f2_d" transform="matrix(10.4,0,0,14.2,367.5,108.4)" />
</g>
<path d="M236,133.9h7.9M232,77.7h7.9" class="g0_64" />
<g fill="#000000" >
<use xlink:href="#f1_l" transform="matrix(7.4,0,0,7.3,232.9,89.4)" />
<use xlink:href="#f1_99" transform="matrix(7.4,0,0,7.3,228,136.9)" />
<use xlink:href="#f1_l" transform="matrix(7.4,0,0,7.3,236.9,145.6)" />
<use xlink:href="#f1_2e" transform="matrix(10.4,0,0,10.4,255,109.3)" />
<use xlink:href="#f1_24" transform="matrix(10.4,0,0,10.4,263,109.3)" />
<use xlink:href="#f1_29" transform="matrix(10.4,0,0,10.4,266.5,109.3)" />
<use xlink:href="#f1_1y" transform="matrix(10.4,0,0,10.4,318.8,109.3)" />
<use xlink:href="#f1_2a" transform="matrix(10.4,0,0,10.4,326.8,109.3)" />
<use xlink:href="#f1_2e" transform="matrix(10.4,0,0,10.4,335.8,109.3)" />
<use xlink:href="#f3_2j" transform="matrix(10.4,0,0,10.4,283,109.3)" />
<use xlink:href="#f3_2j" transform="matrix(10.4,0,0,10.4,352.2,109.3)" />
<use xlink:href="#f3_1z" transform="matrix(10.4,0,0,10.4,375.6,109.3)" />
<use xlink:href="#f3_2j" transform="matrix(10.4,0,0,10.4,384.7,109.3)" />
<use xlink:href="#f2_2c" transform="matrix(7.4,0,0,7.3,232.9,73.2)" />
<use xlink:href="#f2_2c" transform="matrix(7.4,0,0,7.3,236.9,129.5)" />
<use xlink:href="#f2_h" transform="matrix(10.5,0,0,10.4,303.4,109.3)" />
<use xlink:href="#f2_50" transform="matrix(18.8,0,0,18.8,231.6,116.5)" />
<use xlink:href="#f1_b" transform="matrix(10.4,0,0,10.4,177.3,216.3)" />
<use xlink:href="#f1_2h" transform="matrix(10.4,0,0,10.4,182.6,216.3)" />
<use xlink:href="#f1_24" transform="matrix(10.4,0,0,10.4,190.5,216.3)" />
<use xlink:href="#f1_24" transform="matrix(10.4,0,0,10.4,194.1,216.3)" />
<use xlink:href="#f1_24" transform="matrix(10.4,0,0,10.4,197.6,216.3)" />
<use xlink:href="#f1_c" transform="matrix(10.4,0,0,10.4,201.2,216.3)" />
<use xlink:href="#f2_1r" transform="matrix(10.5,0,0,15.1,239.4,213.4)" />
<use xlink:href="#f2_1t" transform="matrix(10.5,0,0,15.1,266.1,213.4)" />
<use xlink:href="#f2_50" transform="matrix(18.9,0,0,18.9,227.5,222.7)" />
<use xlink:href="#f1_l" transform="matrix(7.3,0,0,7.4,228.8,193.8)" />
<use xlink:href="#f1_l" transform="matrix(7.3,0,0,7.4,256.7,208.3)" />
<use xlink:href="#f1_k" transform="matrix(7.3,0,0,7.4,229.2,237.1)" />
<use xlink:href="#f1_f" transform="matrix(10.4,0,0,10.5,292.3,215.5)" />
<use xlink:href="#f3_2j" transform="matrix(10.4,0,0,10.5,246.4,215.5)" />
<use xlink:href="#f3_1z" transform="matrix(10.4,0,0,10.5,273.8,215.5)" />
<use xlink:href="#f3_2j" transform="matrix(10.4,0,0,10.5,282.7,215.5)" />
<use xlink:href="#f1_2i" transform="matrix(10.4,0,0,10.4,306.5,216.3)" />
<use xlink:href="#f1_23" transform="matrix(10.4,0,0,10.4,318,216.3)" />
<use xlink:href="#f1_20" transform="matrix(10.4,0,0,10.4,326.9,216.3)" />
<use xlink:href="#f1_2d" transform="matrix(10.4,0,0,10.4,335.8,216.3)" />
<use xlink:href="#f1_20" transform="matrix(10.4,0,0,10.4,341.1,216.3)" />
<use xlink:href="#f1_1q" transform="matrix(10.4,0,0,10.4,357.3,216.3)" />
<use xlink:href="#f3_2j" transform="matrix(10.4,0,0,10.4,361.5,216.3)" />
<use xlink:href="#f1_1s" transform="matrix(10.4,0,0,10.4,369.6,216.3)" />
<use xlink:href="#f1_24" transform="matrix(10.4,0,0,10.4,381.3,216.3)" />
<use xlink:href="#f1_2e" transform="matrix(10.4,0,0,10.4,384.9,216.3)" />
<use xlink:href="#f1_22" transform="matrix(10.4,0,0,10.4,400,216.3)" />
<use xlink:href="#f1_2d" transform="matrix(10.4,0,0,10.4,408.9,216.3)" />
<use xlink:href="#f1_20" transform="matrix(10.4,0,0,10.4,414.2,216.3)" />
<use xlink:href="#f1_1w" transform="matrix(10.4,0,0,10.4,423.1,216.3)" />
<use xlink:href="#f1_2f" transform="matrix(10.4,0,0,10.4,431.9,216.3)" />
<use xlink:href="#f1_20" transform="matrix(10.4,0,0,10.4,436.4,216.3)" />
<use xlink:href="#f1_2e" transform="matrix(10.4,0,0,10.4,445.2,216.3)" />
<use xlink:href="#f1_2f" transform="matrix(10.4,0,0,10.4,453.2,216.3)" />
<use xlink:href="#f1_24" transform="matrix(10.4,0,0,10.4,465,216.3)" />
<use xlink:href="#f1_29" transform="matrix(10.4,0,0,10.4,468.5,216.3)" />
<use xlink:href="#f1_2f" transform="matrix(10.4,0,0,10.4,477.4,216.3)" />
<use xlink:href="#f1_20" transform="matrix(10.4,0,0,10.4,481.8,216.3)" />
<use xlink:href="#f1_22" transform="matrix(10.4,0,0,10.4,490.7,216.3)" />
<use xlink:href="#f1_20" transform="matrix(10.4,0,0,10.4,499.6,216.3)" />
<use xlink:href="#f1_2d" transform="matrix(10.4,0,0,10.4,508.4,216.3)" />
<use xlink:href="#f1_21" transform="matrix(10.4,0,0,10.4,521.1,216.3)" />
<use xlink:href="#f1_2g" transform="matrix(10.4,0,0,10.4,525.5,216.3)" />
<use xlink:href="#f1_29" transform="matrix(10.4,0,0,10.4,534.4,216.3)" />
<use xlink:href="#f1_1y" transform="matrix(10.4,0,0,10.4,543.2,216.3)" />
<use xlink:href="#f1_2f" transform="matrix(10.4,0,0,10.4,551.2,216.3)" />
<use xlink:href="#f1_24" transform="matrix(10.4,0,0,10.4,555.6,216.3)" />
<use xlink:href="#f1_2a" transform="matrix(10.4,0,0,10.4,559.2,216.3)" />
<use xlink:href="#f1_29" transform="matrix(10.4,0,0,10.4,568.1,216.3)" />
<use xlink:href="#f1_b" transform="matrix(10.4,0,0,10.4,184.2,321.4)" />
<use xlink:href="#f1_24" transform="matrix(10.4,0,0,10.4,189.5,321.4)" />
<use xlink:href="#f1_2j" transform="matrix(10.4,0,0,10.4,193.1,321.4)" />
<use xlink:href="#f1_c" transform="matrix(10.4,0,0,10.4,201.1,321.4)" />
</g>
<path d="M243.6,307.5v18.9m65.8,-18.9v18.9M229.2,289.8h7.5" class="g1_64" />
<g fill="#000000" >
<use xlink:href="#f1_m" transform="matrix(7.4,0,0,7.3,229.9,285.3)" />
<use xlink:href="#f1_l" transform="matrix(7.4,0,0,7.3,229.9,301.5)" />
<use xlink:href="#f1_k" transform="matrix(7.4,0,0,7.3,234,342.9)" />
<use xlink:href="#f1_2e" transform="matrix(10.5,0,0,10.4,264.1,321.5)" />
<use xlink:href="#f1_24" transform="matrix(10.5,0,0,10.4,272.2,321.5)" />
<use xlink:href="#f1_29" transform="matrix(10.5,0,0,10.4,275.7,321.5)" />
<use xlink:href="#f1_h" transform="matrix(10.5,0,0,10.4,332.3,321.5)" />
<use xlink:href="#f3_2j" transform="matrix(10.5,0,0,10.4,246.7,321.5)" />
<use xlink:href="#f3_2j" transform="matrix(10.5,0,0,10.4,297.1,321.5)" />
<use xlink:href="#f3_1z" transform="matrix(10.5,0,0,10.4,314.1,321.5)" />
<use xlink:href="#f3_2j" transform="matrix(10.5,0,0,10.4,323,321.5)" />
<use xlink:href="#f2_h" transform="matrix(7.4,0,0,7.3,227.8,342.9)" />
<use xlink:href="#f2_2c" transform="matrix(10.5,0,0,10.4,288.3,321.5)" />
<use xlink:href="#f2_50" transform="matrix(18.8,0,0,18.8,228.6,328.6)" />
<use xlink:href="#f4_1b" transform="matrix(12,0,0,12,180,399.5)" />
<use xlink:href="#f4_1e" transform="matrix(12,0,0,12,190.5,399.5)" />
<use xlink:href="#f4_1d" transform="matrix(12,0,0,12,207,399.5)" />
<use xlink:href="#f4_16" transform="matrix(12,0,0,12,222.6,399.5)" />
<use xlink:href="#f4_10" transform="matrix(12,0,0,12,247.1,399.5)" />
<use xlink:href="#f4_1d" transform="matrix(12,0,0,12,261.2,399.5)" />
<use xlink:href="#f4_1i" transform="matrix(12,0,0,12,276.8,399.5)" />
<use xlink:href="#f4_1m" transform="matrix(12,0,0,12,286.6,399.5)" />
<use xlink:href="#f4_14" transform="matrix(12,0,0,12,304.5,399.5)" />
<use xlink:href="#f4_1h" transform="matrix(12,0,0,12,315.7,399.5)" />
<use xlink:href="#f4_1j" transform="matrix(12,0,0,12,338.8,399.5)" />
<use xlink:href="#f4_1o" transform="matrix(12,0,0,12,350.3,399.5)" />
<use xlink:href="#f4_1f" transform="matrix(12,0,0,12,362.4,399.5)" />
<use xlink:href="#f4_14" transform="matrix(12,0,0,12,374.3,399.5)" />
<use xlink:href="#f4_1g" transform="matrix(12,0,0,12,395.5,399.5)" />
<use xlink:href="#f4_1k" transform="matrix(12,0,0,12,412.1,399.5)" />
<use xlink:href="#f4_14" transform="matrix(12,0,0,12,427,399.5)" />
<use xlink:href="#f4_1i" transform="matrix(12,0,0,12,438.1,399.5)" />
<use xlink:href="#f4_1j" transform="matrix(12,0,0,12,447.9,399.5)" />
<use xlink:href="#f4_18" transform="matrix(12,0,0,12,459.4,399.5)" />
<use xlink:href="#f4_1e" transform="matrix(12,0,0,12,466.5,399.5)" />
<use xlink:href="#f4_1d" transform="matrix(12,0,0,12,483.1,399.5)" />
<use xlink:href="#f4_1i" transform="matrix(12,0,0,12,498.6,399.5)" />
<use xlink:href="#f4_b" transform="matrix(12,0,0,12,518.7,399.5)" />
<use xlink:href="#f4_p" transform="matrix(12,0,0,12,527.8,399.5)" />
<use xlink:href="#f4_1c" transform="matrix(12,0,0,12,550.2,399.5)" />
<use xlink:href="#f4_10" transform="matrix(12,0,0,12,568.2,399.5)" />
<use xlink:href="#f4_1h" transform="matrix(12,0,0,12,582.4,399.5)" />
<use xlink:href="#f4_1a" transform="matrix(12,0,0,12,595.2,399.5)" />
<use xlink:href="#f4_1i" transform="matrix(12,0,0,12,608.7,399.5)" />
<use xlink:href="#f4_c" transform="matrix(12,0,0,12,618.5,399.5)" />
<use xlink:href="#f1_p" transform="matrix(10.4,0,0,10.4,129.2,438.9)" />
<use xlink:href="#f1_j" transform="matrix(10.4,0,0,10.4,138.1,438.9)" />
<use xlink:href="#f1_h" transform="matrix(10.4,0,0,10.4,147.3,438.9)" />
<use xlink:href="#f1_14" transform="matrix(10.4,0,0,10.4,169.9,438.9)" />
<use xlink:href="#f1_2h" transform="matrix(10.4,0,0,10.4,180.6,438.9)" />
<use xlink:href="#f1_1w" transform="matrix(10.4,0,0,10.4,188.5,438.9)" />
<use xlink:href="#f1_27" transform="matrix(10.4,0,0,10.4,197.4,438.9)" />
<use xlink:href="#f1_2g" transform="matrix(10.4,0,0,10.4,200.9,438.9)" />
<use xlink:href="#f1_1w" transform="matrix(10.4,0,0,10.4,209.8,438.9)" />
<use xlink:href="#f1_2f" transform="matrix(10.4,0,0,10.4,218.7,438.9)" />
<use xlink:href="#f1_20" transform="matrix(10.4,0,0,10.4,223.1,438.9)" />
<use xlink:href="#f1_2f" transform="matrix(10.4,0,0,10.4,239.5,438.9)" />
<use xlink:href="#f1_23" transform="matrix(10.4,0,0,10.4,243.9,438.9)" />
<use xlink:href="#f1_20" transform="matrix(10.4,0,0,10.4,252.8,438.9)" />
<use xlink:href="#f1_21" transform="matrix(10.4,0,0,10.4,269.2,438.9)" />
<use xlink:href="#f1_2a" transform="matrix(10.4,0,0,10.4,273.6,438.9)" />
<use xlink:href="#f1_27" transform="matrix(10.4,0,0,10.4,282.5,438.9)" />
<use xlink:href="#f1_27" transform="matrix(10.4,0,0,10.4,286,438.9)" />
<use xlink:href="#f1_2a" transform="matrix(10.4,0,0,10.4,289.6,438.9)" />
<use xlink:href="#f1_2i" transform="matrix(10.4,0,0,10.4,298.4,438.9)" />
<use xlink:href="#f1_24" transform="matrix(10.4,0,0,10.4,309.9,438.9)" />
<use xlink:href="#f1_29" transform="matrix(10.4,0,0,10.4,313.5,438.9)" />
<use xlink:href="#f1_22" transform="matrix(10.4,0,0,10.4,322.4,438.9)" />
<use xlink:href="#f1_24" transform="matrix(10.4,0,0,10.4,338.7,438.9)" />
<use xlink:href="#f1_29" transform="matrix(10.4,0,0,10.4,342.3,438.9)" />
<use xlink:href="#f1_2f" transform="matrix(10.4,0,0,10.4,351.1,438.9)" />
<use xlink:href="#f1_20" transform="matrix(10.4,0,0,10.4,355.6,438.9)" />
<use xlink:href="#f1_22" transform="matrix(10.4,0,0,10.4,364.5,438.9)" />
<use xlink:href="#f1_2d" transform="matrix(10.4,0,0,10.4,373.3,438.9)" />
<use xlink:href="#f1_1w" transform="matrix(10.4,0,0,10.4,378.6,438.9)" />
<use xlink:href="#f1_27" transform="matrix(10.4,0,0,10.4,387.5,438.9)" />
<use xlink:href="#f1_2e" transform="matrix(10.4,0,0,10.4,391,438.9)" />
<use xlink:href="#f1_t" transform="matrix(10.4,0,0,10.4,406.5,438.9)" />
<use xlink:href="#f1_b" transform="matrix(10.4,0,0,10.4,192.5,501.1)" />
<use xlink:href="#f1_24" transform="matrix(10.4,0,0,10.4,197.8,501.1)" />
<use xlink:href="#f1_c" transform="matrix(10.4,0,0,10.4,201.3,501.1)" />
</g>
<path d="M241.8,496.1h53.4" class="g2_64" />
<g fill="#000000" >
<use xlink:href="#f1_o" transform="matrix(7.9,0,0,7.9,254,480.4)" />
<use xlink:href="#f1_o" transform="matrix(7.9,0,0,7.9,253.2,507.8)" />
<use xlink:href="#f1_n" transform="matrix(10.6,0,0,10.5,284.9,490)" />
<use xlink:href="#f1_h" transform="matrix(10.6,0,0,10.5,318,500.4)" />
<use xlink:href="#f3_2j" transform="matrix(10.6,0,0,10.5,243.5,490)" />
<use xlink:href="#f3_1z" transform="matrix(10.6,0,0,10.5,299.1,500.4)" />
<use xlink:href="#f3_2j" transform="matrix(10.6,0,0,10.5,308.5,500.4)" />
<use xlink:href="#f3_2j" transform="matrix(10.6,0,0,10.5,242.8,517.4)" />
<use xlink:href="#f3_2j" transform="matrix(10.6,0,0,10.5,284.4,517.4)" />
<use xlink:href="#f2_f" transform="matrix(10.6,0,0,10.5,269.1,490)" />
<use xlink:href="#f2_h" transform="matrix(10.6,0,0,10.5,268.6,517.4)" />
<use xlink:href="#f2_50" transform="matrix(21,0,0,21,227.5,509)" />
<use xlink:href="#f1_b" transform="matrix(10.4,0,0,10.4,463.8,501.1)" />
<use xlink:href="#f1_24" transform="matrix(10.4,0,0,10.4,469.1,501.1)" />
<use xlink:href="#f1_24" transform="matrix(10.4,0,0,10.4,472.7,501.1)" />
<use xlink:href="#f1_c" transform="matrix(10.4,0,0,10.4,476.2,501.1)" />
<use xlink:href="#f2_c" transform="matrix(10.5,0,0,16.3,517.2,514.9)" />
<use xlink:href="#f2_d" transform="matrix(10.5,0,0,16.3,570,515)" />
<use xlink:href="#f2_c" transform="matrix(10.5,0,0,16.3,578.7,514.9)" />
<use xlink:href="#f2_d" transform="matrix(10.5,0,0,16.3,636.5,515)" />
</g>
<path d="M516.7,495.8H642.3" class="g3_64" />
<g fill="#000000" >
<use xlink:href="#f1_l" transform="matrix(7.9,0,0,7.9,595.5,508.8)" />
<use xlink:href="#f1_k" transform="matrix(10.5,0,0,10.6,554.5,518.5)" />
<use xlink:href="#f1_n" transform="matrix(10.5,0,0,10.6,626.2,518.5)" />
<use xlink:href="#f3_1z" transform="matrix(10.5,0,0,10.6,570.4,489.6)" />
<use xlink:href="#f3_2j" transform="matrix(10.5,0,0,10.6,579.7,489.6)" />
<use xlink:href="#f3_1z" transform="matrix(10.5,0,0,10.6,646.7,500.1)" />
<use xlink:href="#f3_2j" transform="matrix(10.5,0,0,10.6,656,500.1)" />
<use xlink:href="#f3_2j" transform="matrix(10.5,0,0,10.6,524.8,518.5)" />
<use xlink:href="#f3_2j" transform="matrix(10.5,0,0,10.6,586.3,518.5)" />
<use xlink:href="#f2_h" transform="matrix(10.5,0,0,10.6,540.3,518.5)" />
<use xlink:href="#f2_f" transform="matrix(10.5,0,0,10.6,610.5,518.5)" />
<use xlink:href="#f2_50" transform="matrix(21.1,0,0,21.2,502.5,508.7)" />
<use xlink:href="#f1_b" transform="matrix(10.4,0,0,10.4,185.3,578.2)" />
<use xlink:href="#f1_24" transform="matrix(10.4,0,0,10.4,190.6,578.2)" />
<use xlink:href="#f1_24" transform="matrix(10.4,0,0,10.4,194.2,578.2)" />
<use xlink:href="#f1_24" transform="matrix(10.4,0,0,10.4,197.7,578.2)" />
<use xlink:href="#f1_c" transform="matrix(10.4,0,0,10.4,201.3,578.2)" />
<use xlink:href="#f2_c" transform="matrix(10.4,0,0,11.2,242.1,591.9)" />
<use xlink:href="#f2_d" transform="matrix(10.4,0,0,11.2,288.1,591.9)" />
<use xlink:href="#f2_c" transform="matrix(10.4,0,0,11.4,296.5,592)" />
<use xlink:href="#f2_d" transform="matrix(10.4,0,0,11.4,346.1,592)" />
</g>
<path d="M241.6,573.5H360.5" class="g4_64" />
<g fill="#000000" >
<use xlink:href="#f1_m" transform="matrix(7.9,0,0,7.9,306.6,557.8)" />
<use xlink:href="#f1_l" transform="matrix(7.9,0,0,7.9,351.6,585.2)" />
<use xlink:href="#f1_l" transform="matrix(10.5,0,0,10.5,287.2,567.4)" />
<use xlink:href="#f1_k" transform="matrix(10.5,0,0,10.5,280.2,594.1)" />
<use xlink:href="#f1_m" transform="matrix(10.5,0,0,10.5,335.9,594.1)" />
<use xlink:href="#f3_2j" transform="matrix(10.5,0,0,10.5,296.2,567.4)" />
<use xlink:href="#f3_1z" transform="matrix(10.5,0,0,10.5,364.5,577.8)" />
<use xlink:href="#f3_2j" transform="matrix(10.5,0,0,10.5,373.7,577.8)" />
<use xlink:href="#f3_2j" transform="matrix(10.5,0,0,10.5,249.1,594.1)" />
<use xlink:href="#f3_2j" transform="matrix(10.5,0,0,10.5,303.8,594.1)" />
<use xlink:href="#f2_f" transform="matrix(10.5,0,0,10.5,265.7,594.1)" />
<use xlink:href="#f2_h" transform="matrix(10.5,0,0,10.5,320.5,594.1)" />
<use xlink:href="#f2_50" transform="matrix(21,0,0,21,227.4,586.3)" />
<use xlink:href="#f1_b" transform="matrix(10.4,0,0,10.4,459.2,578.2)" />
<use xlink:href="#f1_24" transform="matrix(10.4,0,0,10.4,464.5,578.2)" />
<use xlink:href="#f1_2h" transform="matrix(10.4,0,0,10.4,468.1,578.2)" />
<use xlink:href="#f1_c" transform="matrix(10.4,0,0,10.4,476.1,578.2)" />
</g>
<path d="M516.8,573.9h60.5" class="g5_64" />
<g fill="#000000" >
<use xlink:href="#f1_n" transform="matrix(7.9,0,0,7.9,548.2,558.1)" />
<use xlink:href="#f1_n" transform="matrix(7.9,0,0,7.9,528.2,585.6)" />
<use xlink:href="#f1_99" transform="matrix(10.6,0,0,10.5,543.6,595.2)" />
<use xlink:href="#f1_k" transform="matrix(10.6,0,0,10.5,558.4,595.2)" />
<use xlink:href="#f1_p" transform="matrix(10.6,0,0,10.5,567.8,595.2)" />
<use xlink:href="#f3_2j" transform="matrix(10.6,0,0,10.5,537.7,567.7)" />
<use xlink:href="#f3_1z" transform="matrix(10.6,0,0,10.5,581.3,578.2)" />
<use xlink:href="#f3_2j" transform="matrix(10.6,0,0,10.5,590.6,578.2)" />
<use xlink:href="#f3_2j" transform="matrix(10.6,0,0,10.5,517.7,595.2)" />
<use xlink:href="#f2_50" transform="matrix(21,0,0,21,502.4,586.7)" />
<use xlink:href="#f1_b" transform="matrix(10.4,0,0,10.4,187.9,664.2)" />
<use xlink:href="#f1_2h" transform="matrix(10.4,0,0,10.4,193.2,664.2)" />
<use xlink:href="#f1_c" transform="matrix(10.4,0,0,10.4,201.4,664.2)" />
</g>
<path d="M248.3,660.5l1.6,-.9l4,6.4l4.2,-16.9h38.5" class="g6_64" />
<path fill-rule="evenodd" d="M248.2,660.3l2.1,-1.2l3.6,5.3l3.9,-15.7h38.8v.8H258.3L254.2,666h-.7l-3.9,-5.9l-1.1,.6l-.3,-.4Z" class="g7_64" />
<path d="M320.1,660.5l1.6,-.9l3.9,6.4l4.2,-16.9h37.8" class="g6_64" />
<path fill-rule="evenodd" d="M320,660.3l2.1,-1.2l3.5,5.3l4,-15.7h38v.8H330.1L326,666h-.8l-3.9,-5.9l-1.1,.6l-.2,-.4Z" class="g7_64" />
<g fill="#000000" >
<use xlink:href="#f2_c" transform="matrix(10.4,0,0,14.8,240.9,662.9)" />
<use xlink:href="#f2_d" transform="matrix(10.4,0,0,14.8,370.1,662.9)" />
</g>
<path d="M228.2,628.4h8" class="g8_64" />
<g fill="#000000" >
<use xlink:href="#f1_l" transform="matrix(7.9,0,0,7.8,229.1,643.1)" />
<use xlink:href="#f1_j" transform="matrix(7.9,0,0,7.8,229,691.6)" />
<use xlink:href="#f1_2f" transform="matrix(10.5,0,0,10.4,258.9,664.6)" />
<use xlink:href="#f1_1w" transform="matrix(10.5,0,0,10.4,263.7,664.6)" />
<use xlink:href="#f1_29" transform="matrix(10.5,0,0,10.4,273,664.6)" />
<use xlink:href="#f1_1y" transform="matrix(10.5,0,0,10.4,330.5,664.6)" />
<use xlink:href="#f1_2a" transform="matrix(10.5,0,0,10.4,338.8,664.6)" />
<use xlink:href="#f1_2f" transform="matrix(10.5,0,0,10.4,348.1,664.6)" />
<use xlink:href="#f1_h" transform="matrix(10.5,0,0,10.4,397.1,664.6)" />
<use xlink:href="#f3_2j" transform="matrix(10.5,0,0,10.4,285.9,664.6)" />
<use xlink:href="#f3_2j" transform="matrix(10.5,0,0,10.4,357.1,664.6)" />
<use xlink:href="#f3_1z" transform="matrix(10.5,0,0,10.4,378.3,664.6)" />
<use xlink:href="#f3_2j" transform="matrix(10.5,0,0,10.4,387.6,664.6)" />
<use xlink:href="#f2_2c" transform="matrix(7.9,0,0,7.8,229,624)" />
<use xlink:href="#f2_f" transform="matrix(10.5,0,0,10.4,303.9,664.6)" />
<use xlink:href="#f2_50" transform="matrix(20.9,0,0,20.9,227.5,673.1)" />
<use xlink:href="#f1_b" transform="matrix(10.4,0,0,10.4,459.2,664.2)" />
<use xlink:href="#f1_2h" transform="matrix(10.4,0,0,10.4,464.5,664.2)" />
<use xlink:href="#f1_24" transform="matrix(10.4,0,0,10.4,472.8,664.2)" />
<use xlink:href="#f1_c" transform="matrix(10.4,0,0,10.4,476.3,664.2)" />
</g>
<path d="M516.8,659.8h48.1" class="g9_64" />
<g fill="#000000" >
<use xlink:href="#f1_n" transform="matrix(7.8,0,0,7.8,528.1,671.4)" />
<use xlink:href="#f1_k" transform="matrix(10.5,0,0,10.4,536.9,653.7)" />
<use xlink:href="#f1_h" transform="matrix(10.5,0,0,10.4,587.6,664)" />
<use xlink:href="#f1_k" transform="matrix(10.5,0,0,10.4,557.8,680.9)" />
<use xlink:href="#f3_1z" transform="matrix(10.5,0,0,10.4,568.7,664)" />
<use xlink:href="#f3_2j" transform="matrix(10.5,0,0,10.4,578,664)" />
<use xlink:href="#f3_2j" transform="matrix(10.5,0,0,10.4,517.6,680.9)" />
<use xlink:href="#f2_f" transform="matrix(10.5,0,0,10.4,543.3,680.9)" />
<use xlink:href="#f2_50" transform="matrix(20.9,0,0,20.9,502.4,672.5)" />
<use xlink:href="#f1_b" transform="matrix(10.4,0,0,10.4,180.7,747.3)" />
<use xlink:href="#f1_2h" transform="matrix(10.4,0,0,10.4,186.1,747.3)" />
<use xlink:href="#f1_24" transform="matrix(10.4,0,0,10.4,194,747.3)" />
<use xlink:href="#f1_24" transform="matrix(10.4,0,0,10.4,197.6,747.3)" />
<use xlink:href="#f1_c" transform="matrix(10.4,0,0,10.4,201.1,747.3)" />
<use xlink:href="#f2_c" transform="matrix(10.4,0,0,16,242.1,766.5)" />
<use xlink:href="#f2_d" transform="matrix(10.4,0,0,16,296.6,766.6)" />
</g>
<path d="M241.6,743.1h69.2" class="g10_64" />
<g fill="#000000" >
<use xlink:href="#f1_99" transform="matrix(7.8,0,0,7.8,281.3,727.5)" />
<use xlink:href="#f1_k" transform="matrix(7.8,0,0,7.8,288.2,727.5)" />
<use xlink:href="#f1_l" transform="matrix(7.8,0,0,7.8,301.8,754.7)" />
<use xlink:href="#f1_l" transform="matrix(7.8,0,0,7.8,286.8,760.4)" />
<use xlink:href="#f1_j" transform="matrix(7.8,0,0,7.8,229,774.2)" />
<use xlink:href="#f1_2f" transform="matrix(10.4,0,0,10.4,258.1,737)" />
<use xlink:href="#f1_1w" transform="matrix(10.4,0,0,10.4,262.8,737)" />
<use xlink:href="#f1_29" transform="matrix(10.4,0,0,10.4,272.1,737)" />
<use xlink:href="#f1_h" transform="matrix(10.4,0,0,10.4,333.4,747.3)" />
<use xlink:href="#f1_k" transform="matrix(10.4,0,0,10.4,247.7,770)" />
<use xlink:href="#f3_2j" transform="matrix(10.4,0,0,10.4,243.7,737)" />
<use xlink:href="#f3_2j" transform="matrix(10.4,0,0,10.4,299.1,737)" />
<use xlink:href="#f3_1z" transform="matrix(10.4,0,0,10.4,314.6,747.3)" />
<use xlink:href="#f3_2j" transform="matrix(10.4,0,0,10.4,323.9,747.3)" />
<use xlink:href="#f3_2j" transform="matrix(10.4,0,0,10.4,276.4,770)" />
<use xlink:href="#f2_2v" transform="matrix(7.8,0,0,7.8,228,725.8)" />
<use xlink:href="#f2_f" transform="matrix(10.4,0,0,10.4,260.5,770)" />
<use xlink:href="#f2_50" transform="matrix(20.8,0,0,20.8,227.5,755.8)" />
<use xlink:href="#f1_p" transform="matrix(10.4,0,0,10.4,129.2,800.3)" />
<use xlink:href="#f1_k" transform="matrix(10.4,0,0,10.4,138.1,800.3)" />
<use xlink:href="#f1_h" transform="matrix(10.4,0,0,10.4,147.3,800.3)" />
<use xlink:href="#f1_14" transform="matrix(10.4,0,0,10.4,169.9,800.3)" />
<use xlink:href="#f1_2h" transform="matrix(10.4,0,0,10.4,180.6,800.3)" />
<use xlink:href="#f1_1w" transform="matrix(10.4,0,0,10.4,188.5,800.3)" />
<use xlink:href="#f1_27" transform="matrix(10.4,0,0,10.4,197.4,800.3)" />
<use xlink:href="#f1_2g" transform="matrix(10.4,0,0,10.4,200.9,800.3)" />
<use xlink:href="#f1_1w" transform="matrix(10.4,0,0,10.4,209.8,800.3)" />
<use xlink:href="#f1_2f" transform="matrix(10.4,0,0,10.4,218.7,800.3)" />
<use xlink:href="#f1_20" transform="matrix(10.4,0,0,10.4,223.1,800.3)" />
<use xlink:href="#f1_2f" transform="matrix(10.4,0,0,10.4,239.1,800.3)" />
<use xlink:href="#f1_23" transform="matrix(10.4,0,0,10.4,243.6,800.3)" />
<use xlink:href="#f1_20" transform="matrix(10.4,0,0,10.4,252.4,800.3)" />
<use xlink:href="#f1_21" transform="matrix(10.4,0,0,10.4,268.6,800.3)" />
<use xlink:href="#f1_2a" transform="matrix(10.4,0,0,10.4,273.1,800.3)" />
<use xlink:href="#f1_27" transform="matrix(10.4,0,0,10.4,281.9,800.3)" />
<use xlink:href="#f1_27" transform="matrix(10.4,0,0,10.4,285.5,800.3)" />
<use xlink:href="#f1_2a" transform="matrix(10.4,0,0,10.4,289,800.3)" />
<use xlink:href="#f1_2i" transform="matrix(10.4,0,0,10.4,297.9,800.3)" />
<use xlink:href="#f1_24" transform="matrix(10.4,0,0,10.4,309.4,800.3)" />
<use xlink:href="#f1_29" transform="matrix(10.4,0,0,10.4,312.9,800.3)" />
<use xlink:href="#f1_22" transform="matrix(10.4,0,0,10.4,321.8,800.3)" />
<use xlink:href="#f1_24" transform="matrix(10.4,0,0,10.4,337.8,800.3)" />
<use xlink:href="#f1_29" transform="matrix(10.4,0,0,10.4,341.4,800.3)" />
<use xlink:href="#f1_2f" transform="matrix(10.4,0,0,10.4,350.2,800.3)" />
<use xlink:href="#f1_20" transform="matrix(10.4,0,0,10.4,354.7,800.3)" />
<use xlink:href="#f1_22" transform="matrix(10.4,0,0,10.4,363.5,800.3)" />
<use xlink:href="#f1_2d" transform="matrix(10.4,0,0,10.4,372.4,800.3)" />
<use xlink:href="#f1_1w" transform="matrix(10.4,0,0,10.4,377.7,800.3)" />
<use xlink:href="#f1_27" transform="matrix(10.4,0,0,10.4,386.6,800.3)" />
<use xlink:href="#f1_2e" transform="matrix(10.4,0,0,10.4,390.1,800.3)" />
<use xlink:href="#f1_1w" transform="matrix(10.4,0,0,10.4,405.3,800.3)" />
<use xlink:href="#f1_2e" transform="matrix(10.4,0,0,10.4,414.1,800.3)" />
<use xlink:href="#f1_27" transform="matrix(10.4,0,0,10.4,429.4,800.3)" />
<use xlink:href="#f1_24" transform="matrix(10.4,0,0,10.4,433,800.3)" />
<use xlink:href="#f1_28" transform="matrix(10.4,0,0,10.4,436.5,800.3)" />
<use xlink:href="#f1_24" transform="matrix(10.4,0,0,10.4,449.8,800.3)" />
<use xlink:href="#f1_2f" transform="matrix(10.4,0,0,10.4,453.3,800.3)" />
<use xlink:href="#f1_2a" transform="matrix(10.4,0,0,10.4,464.9,800.3)" />
<use xlink:href="#f1_21" transform="matrix(10.4,0,0,10.4,473.8,800.3)" />
<use xlink:href="#f1_2e" transform="matrix(10.4,0,0,10.4,485.6,800.3)" />
<use xlink:href="#f1_2g" transform="matrix(10.4,0,0,10.4,493.5,800.3)" />
<use xlink:href="#f1_28" transform="matrix(10.4,0,0,10.4,502.4,800.3)" />
<use xlink:href="#f1_2e" transform="matrix(10.4,0,0,10.4,515.7,800.3)" />
<use xlink:href="#f1_t" transform="matrix(10.4,0,0,10.4,530.8,800.3)" />
<use xlink:href="#f1_b" transform="matrix(10.4,0,0,10.4,192.5,859.5)" />
<use xlink:href="#f1_24" transform="matrix(10.4,0,0,10.4,197.8,859.5)" />
<use xlink:href="#f1_c" transform="matrix(10.4,0,0,10.4,201.3,859.5)" />
<use xlink:href="#f2_c" transform="matrix(10.4,0,0,11.1,240.9,857.6)" />
<use xlink:href="#f2_d" transform="matrix(10.4,0,0,11.1,295.9,857.6)" />
<use xlink:href="#f1_n" transform="matrix(7.9,0,0,7.8,229,838.2)" />
<use xlink:href="#f1_l" transform="matrix(7.9,0,0,7.8,229.1,886.6)" />
<use xlink:href="#f1_l" transform="matrix(10.4,0,0,10.4,247.6,859.7)" />
<use xlink:href="#f1_k" transform="matrix(10.4,0,0,10.4,287.9,859.7)" />
<use xlink:href="#f1_h" transform="matrix(10.4,0,0,10.4,322.9,859.7)" />
<use xlink:href="#f3_2j" transform="matrix(10.4,0,0,10.4,256.7,859.7)" />
<use xlink:href="#f3_1z" transform="matrix(10.4,0,0,10.4,304,859.7)" />
<use xlink:href="#f3_2j" transform="matrix(10.4,0,0,10.4,313.3,859.7)" />
<use xlink:href="#f2_f" transform="matrix(10.5,0,0,10.4,273.4,859.7)" />
<use xlink:href="#f2_50" transform="matrix(20.9,0,0,20.8,227.4,868.2)" />
<use xlink:href="#f1_b" transform="matrix(10.4,0,0,10.4,463.8,859.5)" />
<use xlink:href="#f1_24" transform="matrix(10.4,0,0,10.4,469.1,859.5)" />
<use xlink:href="#f1_24" transform="matrix(10.4,0,0,10.4,472.7,859.5)" />
<use xlink:href="#f1_c" transform="matrix(10.4,0,0,10.4,476.2,859.5)" />
<use xlink:href="#f2_c" transform="matrix(10.4,0,0,16.2,515.7,856.6)" />
<use xlink:href="#f2_d" transform="matrix(10.4,0,0,16.2,574.5,856.6)" />
<use xlink:href="#f1_l" transform="matrix(7.8,0,0,7.8,504,838.4)" />
<use xlink:href="#f1_l" transform="matrix(7.8,0,0,7.8,533.3,850.4)" />
<use xlink:href="#f1_j" transform="matrix(7.8,0,0,7.8,503.9,886.8)" />
<use xlink:href="#f1_m" transform="matrix(10.5,0,0,10.4,564.1,859.9)" />
<use xlink:href="#f1_h" transform="matrix(10.5,0,0,10.4,601.7,859.9)" />
<use xlink:href="#f3_2j" transform="matrix(10.5,0,0,10.4,522.8,859.9)" />
<use xlink:href="#f3_1z" transform="matrix(10.5,0,0,10.4,582.8,859.9)" />
<use xlink:href="#f3_2j" transform="matrix(10.5,0,0,10.4,592.2,859.9)" />
<use xlink:href="#f2_f" transform="matrix(10.5,0,0,10.4,548.4,859.9)" />
<use xlink:href="#f2_50" transform="matrix(20.9,0,0,20.8,502.4,868.4)" />
<use xlink:href="#f5_t" transform="matrix(8,0,0,8,730,1122.4)" />
</g>
<g fill="#0080FF" fill-opacity="0.5" >
<use xlink:href="#f0_1c" transform="matrix(42.3,0,0,42.3,202.9,1095.2)" />
<use xlink:href="#f0_21" transform="matrix(42.3,0,0,42.3,238.8,1095.2)" />
<use xlink:href="#f0_1x" transform="matrix(42.3,0,0,42.3,274.7,1095.2)" />
<use xlink:href="#f0_2e" transform="matrix(42.3,0,0,42.3,310.7,1095.2)" />
<use xlink:href="#f0_2a" transform="matrix(42.3,0,0,42.3,332.2,1095.2)" />
<use xlink:href="#f0_17" transform="matrix(42.3,0,0,42.3,368.1,1095.2)" />
<use xlink:href="#f0_2h" transform="matrix(42.3,0,0,42.3,418.4,1095.2)" />
<use xlink:href="#f0_25" transform="matrix(42.3,0,0,42.3,454.3,1095.2)" />
<use xlink:href="#f0_20" transform="matrix(42.3,0,0,42.3,468.7,1095.2)" />
<use xlink:href="#f0_21" transform="matrix(42.3,0,0,42.3,504.6,1095.2)" />
<use xlink:href="#f0_i" transform="matrix(42.3,0,0,42.3,540.5,1095.2)" />
<use xlink:href="#f0_25" transform="matrix(42.3,0,0,42.3,558.5,1095.2)" />
<use xlink:href="#f0_2a" transform="matrix(42.3,0,0,42.3,572.8,1095.2)" />
</g>
<defs>
<path d="M593,101c0,0,182,0,279,112c0,0,98,113,98,318c0,0,0,196,-98,308c0,0,-98,112,-277,112c0,0,-181,0,-279,-110c0,0,-99,-111,-99,-310c0,0,0,-198,100,-314c0,0,99,-116,276,-116Zm0,-115c0,0,-162,0,-279,65c0,0,-118,66,-180,190c0,0,-62,124,-62,290c0,0,0,252,138,394c0,0,138,142,385,142c0,0,160,0,278,-64c0,0,118,-64,180,-185c0,0,62,-122,62,-287c0,0,0,-165,-63,-289c0,0,-63,-124,-181,-190c0,0,-118,-66,-278,-66Z" 
id="f0_1f"
transform="scale(0.001,-0.001)" />

<path d="M106,0V635c0,0,0,141,-5,173H228c0,0,1,-4,2,-21c0,0,1,-16,2,-37c0,0,1,-22,2,-81h2c0,0,47,84,108,119c0,0,60,34,151,34c0,0,132,0,194,-66c0,0,61,-66,61,-218V0H615V512c0,0,0,80,-15,124c0,0,-16,44,-50,63c0,0,-35,20,-101,20c0,0,-97,0,-153,-67c0,0,-56,-66,-56,-184V0Z" 
id="f0_2a"
transform="scale(0.001,-0.001)" />

<path d="M103,0V1107H237V0Z" 
id="f0_28"
transform="scale(0.001,-0.001)" />

<path d="M102,0V808H236V0Zm0,979v128H236V979Z" 
id="f0_25"
transform="scale(0.001,-0.001)" />

<path d="M643,478c0,0,-11,128,-65,187c0,0,-54,59,-154,59c0,0,-98,0,-155,-66c0,0,-57,-65,-62,-180ZM431,-14c0,0,-179,0,-272,106c0,0,-94,107,-94,317c0,0,0,200,94,307c0,0,93,106,267,106c0,0,356,0,356,-429V375H206c0,0,0,-138,57,-213c0,0,58,-75,168,-75c0,0,87,0,140,35c0,0,53,35,71,88L760,177c0,0,-72,-191,-329,-191Z" 
id="f0_21"
transform="scale(0.001,-0.001)" />

<path d="M17,0L304,415L31,808H179L380,493L580,808H730L457,417L747,0H598L380,331L162,0Z" 
id="f0_2k"
transform="scale(0.001,-0.001)" />

<path d="M339,87c0,0,74,0,132,34c0,0,57,33,90,91c0,0,34,59,34,121v66L448,396c0,0,-95,-2,-144,-19c0,0,-49,-18,-75,-55c0,0,-26,-38,-26,-98c0,0,0,-65,35,-101c0,0,36,-36,101,-36ZM309,-14c0,0,-122,0,-183,64c0,0,-61,64,-61,176c0,0,0,125,82,192c0,0,83,67,266,72l182,3v44c0,0,0,98,-42,141c0,0,-42,43,-132,43c0,0,-90,0,-131,-31c0,0,-41,-31,-49,-98L101,604c0,0,34,218,323,218c0,0,153,0,229,-70c0,0,77,-69,77,-202V202c0,0,0,-59,16,-90c0,0,16,-30,60,-30c0,0,19,0,44,5V4C850,4,799,-7,746,-7c0,0,-75,0,-109,38c0,0,-33,40,-38,124h-4C595,155,543,62,475,24c0,0,-68,-38,-166,-38Z" 
id="f0_1x"
transform="scale(0.001,-0.001)" />

<path d="M106,0V635c0,0,0,141,-5,173H228c0,0,1,-4,2,-21c0,0,1,-16,2,-37c0,0,1,-22,2,-81h2c0,0,44,86,100,120c0,0,56,33,136,33c0,0,92,0,145,-36c0,0,54,-37,75,-117h2c0,0,42,82,101,117c0,0,59,36,143,36c0,0,123,0,178,-66c0,0,56,-67,56,-218V0H1039V512c0,0,0,117,-32,162c0,0,-32,45,-116,45c0,0,-88,0,-136,-66c0,0,-49,-65,-49,-185V0H573V512c0,0,0,117,-32,162c0,0,-32,45,-116,45c0,0,-86,0,-136,-66c0,0,-50,-66,-50,-185V0Z" 
id="f0_29"
transform="scale(0.001,-0.001)" />

<path d="M453,84c0,0,100,0,146,74c0,0,46,73,46,247c0,0,0,169,-46,241c0,0,-45,73,-145,73c0,0,-80,0,-125,-34c0,0,-45,-34,-68,-105c0,0,-24,-71,-24,-186c0,0,0,-159,51,-234c0,0,51,-76,165,-76ZM103,-316V643c0,0,0,124,-5,165H228c0,0,1,-3,3,-22c0,0,1,-18,3,-56c0,0,2,-38,2,-52h3c0,0,36,75,94,110c0,0,59,34,156,34c0,0,149,0,223,-100c0,0,74,-100,74,-314c0,0,0,-422,-297,-422c0,0,-187,0,-251,140h-4c0,0,3,-6,3,-126V-316Z" 
id="f0_2c"
transform="scale(0.001,-0.001)" />

<path d="M420,84c0,0,121,0,173,78c0,0,52,77,52,243c0,0,0,167,-50,243c0,0,-50,76,-167,76c0,0,-118,0,-170,-78c0,0,-53,-77,-53,-241c0,0,0,-160,52,-241c0,0,52,-80,163,-80Zm1,-98c0,0,-176,0,-267,107c0,0,-90,108,-90,312c0,0,0,417,362,417c0,0,185,0,272,-102c0,0,88,-101,88,-315c0,0,0,-212,-94,-316C692,89,599,-14,421,-14Z" 
id="f0_2b"
transform="scale(0.001,-0.001)" />

<path d="M278,-11c0,0,-162,0,-162,182V710H23v98h99l39,181h90V808H400V710H251V200c0,0,0,-58,19,-82c0,0,19,-23,66,-23c0,0,27,0,77,10V6c0,0,-66,-17,-135,-17Z" 
id="f0_2g"
transform="scale(0.001,-0.001)" />

<path d="M365,-315c0,0,-136,187,-199,359c0,0,-62,172,-62,359c0,0,0,186,62,358c0,0,63,172,199,360h92c0,0,-110,-192,-160,-365c0,0,-51,-172,-51,-353c0,0,0,-183,51,-355c0,0,50,-172,160,-363Z" 
id="f1_b"
transform="scale(0.001,-0.001)" />

<path d="M310,0L12,799H168L383,145L604,799H752L454,0Z" 
id="f1_2h"
transform="scale(0.001,-0.001)" />

<path d="M104,0V799H238V0Zm-2,946v152H239V946Z" 
id="f1_24"
transform="scale(0.001,-0.001)" />

<path d="M52,-315c0,0,109,192,160,363c0,0,50,173,50,354c0,0,0,183,-50,355c0,0,-51,173,-160,364h92c0,0,135,-188,198,-360c0,0,63,-172,63,-359c0,0,0,-187,-63,-359c0,0,-63,-171,-198,-358Z" 
id="f1_c"
transform="scale(0.001,-0.001)" />

<path d="M412,-328c0,0,-195,96,-303,284C109,-44,0,142,0,365c0,0,0,232,114,422c0,0,114,191,298,273v-31c0,0,-92,-51,-151,-139c0,0,-59,-88,-88,-223c0,0,-29,-136,-29,-282c0,0,0,-167,27,-301c0,0,26,-133,82,-221c0,0,55,-89,159,-159v-32Z" 
id="f2_c"
transform="scale(0.001,-0.001)" />

<path d="M34,-328v32c0,0,92,50,151,138c0,0,59,88,88,222c0,0,29,135,29,283c0,0,0,165,-27,300c0,0,-26,134,-82,222c0,0,-56,89,-159,160v31c0,0,194,-96,303,-284c0,0,108,-187,108,-410c0,0,0,-232,-114,-422c0,0,-114,-191,-297,-272Z" 
id="f2_d"
transform="scale(0.001,-0.001)" />

<path d="M39,0V0c0,0,0,170,84,277c0,0,85,108,317,236c0,0,113,62,154,115c0,0,41,52,41,134c0,0,0,86,-62,141c0,0,-61,54,-156,54c0,0,-101,0,-158,-68c0,0,-57,-68,-60,-194H67c0,0,-2,178,95,279c0,0,98,101,273,101c0,0,149,0,245,-89c0,0,94,-88,94,-228c0,0,0,-118,-60,-195c0,0,-61,-76,-229,-169C485,394,303,294,237,212c0,0,-28,-36,-46,-81H774V0Z" 
id="f1_l"
transform="scale(0.001,-0.001)" />

<path d="M0,368V478H849V368Z" 
id="f1_99"
transform="scale(0.001,-0.001)" />

<path d="M393,-20c0,0,-169,0,-252,65c0,0,-83,67,-92,210H178c0,0,10,-85,61,-123c0,0,50,-38,154,-38c0,0,90,0,136,34c0,0,47,35,47,100c0,0,0,42,-31,64c0,0,-30,21,-123,43L283,368c0,0,-112,27,-160,75c0,0,-48,48,-48,135c0,0,0,112,80,178c0,0,81,66,218,66c0,0,140,0,222,-68c0,0,82,-67,88,-187H557c0,0,-6,67,-55,103c0,0,-48,37,-129,37c0,0,-84,0,-127,-29c0,0,-44,-29,-44,-85c0,0,0,-43,31,-65c0,0,30,-21,121,-43L493,452c0,0,117,-28,167,-78c0,0,49,-49,49,-138c0,0,0,-119,-86,-188c0,0,-85,-68,-230,-68Z" 
id="f1_2e"
transform="scale(0.001,-0.001)" />

<path d="M99,0V799H226V681l30,39c0,0,87,102,219,102c0,0,132,0,203,-71c0,0,72,-72,72,-204V0H616V502c0,0,0,105,-41,151c0,0,-40,47,-132,47c0,0,-97,0,-154,-73c0,0,-56,-74,-56,-199V0Z" 
id="f1_29"
transform="scale(0.001,-0.001)" />

<path d="M394,-20c0,0,-159,0,-253,113c0,0,-95,114,-95,307c0,0,0,193,98,308c0,0,98,114,264,114c0,0,144,0,230,-78c0,0,85,-79,91,-217H600c0,0,-8,86,-59,133c0,0,-52,47,-138,47c0,0,-101,0,-159,-82c0,0,-58,-82,-58,-225c0,0,0,-152,54,-229c0,0,53,-77,159,-77c0,0,79,0,132,50c0,0,52,51,69,143H729C729,287,709,137,623,58c0,0,-86,-78,-229,-78Z" 
id="f1_1y"
transform="scale(0.001,-0.001)" />

<path d="M424,94c0,0,107,0,169,83c0,0,63,83,63,223c0,0,0,140,-63,224c0,0,-62,83,-169,83c0,0,-106,0,-168,-83c0,0,-62,-84,-62,-224c0,0,0,-140,62,-223c0,0,62,-83,168,-83Zm0,-114c0,0,-165,0,-268,115C156,95,54,211,54,400c0,0,0,189,102,306c0,0,103,116,268,116c0,0,168,0,270,-116c0,0,102,-117,102,-306c0,0,0,-189,-102,-305C694,95,592,-20,424,-20Z" 
id="f1_2a"
transform="scale(0.001,-0.001)" />

<path d="M17,0L389,412L201,800H376L500,518L742,800H904L554,410L750,0H580L448,303L187,0Z" 
id="f3_2j"
transform="scale(0.001,-0.001)" />

<path d="M431,94c0,0,95,0,170,76c0,0,76,77,101,198c0,0,35,167,-1,250c0,0,-37,84,-144,84c0,0,-128,0,-210,-117c0,0,-81,-117,-81,-302c0,0,0,-90,43,-139c0,0,44,-50,122,-50ZM400,-20c0,0,-126,0,-199,79c0,0,-73,80,-73,219c0,0,0,234,122,390c0,0,122,155,305,155c0,0,144,0,209,-127l8,-16l86,417H993L767,0H638l22,108L642,90C642,90,532,-20,400,-20Z" 
id="f3_1z"
transform="scale(0.001,-0.001)" />

<path d="M140,-21c0,0,-26,0,-44,17C96,-4,79,13,79,40c0,0,0,19,6,33c0,0,8,20,34,55c0,0,46,60,64,126c0,0,32,114,41,321H190c0,0,-55,0,-81,-18c0,0,-44,-26,-80,-89H0c0,0,42,129,98,178c0,0,43,37,120,37H743V575H562c0,0,-27,-171,-27,-327c0,0,0,-77,27,-110c0,0,27,-33,67,-33c0,0,33,0,56,22c0,0,24,22,31,65h27C743,192,730,74,686,26c0,0,-44,-47,-98,-47c0,0,-58,0,-97,51c0,0,-39,53,-39,198c0,0,0,91,28,347H286c0,0,-23,-390,-56,-494c0,0,-33,-102,-90,-102Z" 
id="f2_2c"
transform="scale(0.001,-0.001)" />

<path d="M0,356v74H784V356Z" 
id="f2_h"
transform="scale(0.001,-0.001)" />

<path d="M238,-163c0,0,-39,0,-63,25c0,0,-25,26,-25,65c0,0,0,34,19,54c0,0,19,19,48,19c0,0,30,0,51,-23c0,0,22,-24,37,-24c0,0,12,0,21,11c0,0,8,10,8,35c0,0,0,30,-7,88c0,0,-27,235,-27,620c0,0,13,411,17,446c0,0,17,139,60,188c0,0,43,48,98,48c0,0,37,0,65,-25c0,0,28,-25,28,-54c0,0,0,-35,-19,-57c0,0,-20,-21,-49,-21c0,0,-26,0,-57,27c0,0,-17,15,-30,15c0,0,-12,0,-21,-11c0,0,-8,-11,-8,-37c0,0,0,-31,6,-108c0,0,28,-306,28,-496c0,0,0,-50,-12,-439c0,0,-6,-219,-67,-296c0,0,-41,-50,-101,-50Z" 
id="f2_50"
transform="scale(0.001,-0.001)" />

<path d="M0,-302V1034H328V970H119V-238H328v-64Z" 
id="f2_1r"
transform="scale(0.001,-0.001)" />

<path d="M56,-302v64H265V970H56v64H384V-302Z" 
id="f2_1t"
transform="scale(0.001,-0.001)" />

<path d="M406,0V763H155V870h2c16,0,114,2,178,48c0,0,70,51,104,157H549V0Z" 
id="f1_k"
transform="scale(0.001,-0.001)" />

<path d="M133,-224v71c0,0,47,8,65,52c0,0,14,33,17,101H133V163H292V27c0,0,0,-114,-36,-172c0,0,-37,-58,-123,-79Z" 
id="f1_f"
transform="scale(0.001,-0.001)" />

<path d="M248,0L21,799H169L322,163L478,799H627L788,158L950,799h133L857,0H713L548,624L392,0Z" 
id="f1_2i"
transform="scale(0.001,-0.001)" />

<path d="M99,0V1097H233V690l23,30c0,0,87,102,219,102c0,0,132,0,203,-71c0,0,72,-72,72,-204V0H616V514c0,0,0,99,-38,142c0,0,-38,44,-124,44c0,0,-102,0,-162,-73c0,0,-59,-74,-59,-199V0Z" 
id="f1_23"
transform="scale(0.001,-0.001)" />

<path d="M649,461c0,0,-6,111,-55,172c0,0,-55,69,-160,69c0,0,-106,0,-170,-79c0,0,-50,-62,-60,-162ZM425,-20c0,0,-169,0,-266,106c0,0,-97,107,-97,297c0,0,0,201,102,320c0,0,103,119,276,119c0,0,157,0,253,-116c0,0,96,-117,96,-306l-1,-48H204c0,0,8,-119,54,-182c0,0,57,-76,180,-76c0,0,77,0,134,43c0,0,58,43,70,110H775C775,247,746,116,656,47c0,0,-90,-67,-231,-67Z" 
id="f1_20"
transform="scale(0.001,-0.001)" />

<path d="M118,0V799H246V662c0,0,17,32,36,58c0,0,76,102,187,102c0,0,19,0,38,-6V679l-27,1c0,0,-109,0,-168,-66c0,0,-60,-65,-60,-186V0Z" 
id="f1_2d"
transform="scale(0.001,-0.001)" />

<path d="M96,-299V1104H382V995H217V-191H382V-299Z" 
id="f1_1q"
transform="scale(0.001,-0.001)" />

<path d="M42,-299v108H207V995H42v109H329V-299Z" 
id="f1_1s"
transform="scale(0.001,-0.001)" />

<path d="M418,95c0,0,98,0,158,73c0,0,59,73,59,193c0,0,0,170,-54,254c0,0,-54,85,-163,85c0,0,-113,0,-165,-72c0,0,-52,-71,-52,-227c0,0,0,-147,57,-227c0,0,56,-79,160,-79ZM394,-336c0,0,-136,0,-216,62c0,0,-79,63,-96,182H219c0,0,12,-64,57,-98c0,0,45,-35,116,-35c0,0,116,0,176,73c0,0,61,73,61,211V85l-1,-1C628,84,545,-20,412,-20c0,0,-161,0,-256,118c0,0,-94,120,-94,324c0,0,0,179,93,290c0,0,93,110,244,110c0,0,144,0,228,-124l10,-14V799H763V59c0,0,-1,-201,-91,-298c0,0,-91,-97,-278,-97Z" 
id="f1_22"
transform="scale(0.001,-0.001)" />

<path d="M335,90c0,0,106,0,179,57c0,0,50,41,67,91c0,0,3,10,4,31c0,0,3,21,3,47v87c0,0,-38,-18,-83,-25L381,360c0,0,-97,-13,-142,-45c0,0,-44,-31,-44,-86c0,0,0,-67,36,-103c0,0,37,-36,104,-36ZM309,-20c0,0,-117,0,-186,61c0,0,-68,63,-68,169c0,0,0,108,64,171c0,0,65,64,189,79l183,23c0,0,22,3,42,8c0,0,26,7,40,27c0,0,15,20,15,51v6c0,0,0,64,-49,101c0,0,-48,36,-135,36c0,0,-83,0,-130,-38c0,0,-46,-39,-56,-115H94c0,0,10,131,92,197c0,0,83,66,238,66c0,0,145,0,222,-63c0,0,76,-63,76,-184V137c0,0,0,-21,12,-33c0,0,12,-12,33,-12c0,0,6,0,18,1c0,0,11,2,25,5V1c0,0,-20,-7,-41,-11c0,0,-22,-5,-37,-5c0,0,-76,0,-110,41c0,0,-22,28,-32,79c0,0,-15,-19,-34,-36c0,0,-101,-89,-247,-89Z" 
id="f1_1w"
transform="scale(0.001,-0.001)" />

<path d="M292,-9c0,0,-88,0,-124,38c0,0,-36,39,-36,134V689H22V799H132v224H266V799H392V689H266V163c0,0,0,-27,21,-43c0,0,21,-15,57,-15h48V1C392,1,324,-9,292,-9Z" 
id="f1_2f"
transform="scale(0.001,-0.001)" />

<path d="M132,0V687H22V799H132V935c0,0,0,88,52,133c0,0,52,45,157,45l59,-3V989l-53,2c0,0,-39,0,-60,-24c0,0,-21,-25,-21,-71V799H400V687H266V0Z" 
id="f1_21"
transform="scale(0.001,-0.001)" />

<path d="M375,-20c0,0,-136,0,-203,66c0,0,-68,68,-68,204V799H238V284c0,0,0,-101,38,-146c0,0,39,-44,127,-44c0,0,97,0,153,75c0,0,57,75,57,203V799H747V0H620V122c0,0,-14,-22,-30,-41C590,81,504,-20,375,-20Z" 
id="f1_2g"
transform="scale(0.001,-0.001)" />

<path d="M17,0L301,412L32,799H205L389,514L574,799H740L471,410L749,0H581L382,305L186,0Z" 
id="f1_2j"
transform="scale(0.001,-0.001)" />

<path d="M424,-28c0,0,-180,0,-272,86c0,0,-92,87,-100,266H192c0,0,12,-126,66,-180c0,0,55,-54,170,-54c0,0,100,0,163,57c0,0,64,57,64,147c0,0,0,94,-61,149c0,0,-52,48,-135,54c0,0,-38,2,-72,2c0,0,-34,0,-45,-3V613c0,0,17,-3,51,-3c0,0,35,0,68,4c0,0,66,8,106,43c0,0,55,45,55,125c0,0,0,77,-58,125c0,0,-58,48,-148,48c0,0,-96,0,-147,-58c0,0,-51,-59,-56,-175H82c0,0,0,168,89,260c0,0,88,93,250,93c0,0,153,0,247,-77c0,0,94,-76,94,-202c0,0,0,-124,-95,-201c0,0,-18,-15,-39,-27c0,0,39,-17,69,-41c0,0,101,-79,101,-214c0,0,0,-151,-105,-246c0,0,-104,-95,-269,-95Z" 
id="f1_m"
transform="scale(0.001,-0.001)" />

<path d="M133,0V162H292V0Z" 
id="f1_h"
transform="scale(0.001,-0.001)" />

<path d="M102,0c0,0,22,54,31,110c0,0,10,55,10,135V922c0,0,0,81,-10,136c0,0,-9,55,-31,109H492c0,0,-23,-54,-32,-109c0,0,-9,-55,-9,-136V208c0,0,98,6,169,20c0,0,126,24,238,84L794,156L729,0Z" 
id="f4_1b"
transform="scale(0.001,-0.001)" />

<path d="M822,206c14,0,28,0,42,1c0,0,53,50,87,150c0,0,34,101,34,210c0,0,0,188,-132,297c0,0,-113,95,-296,95c-13,0,-27,-1,-42,-2c0,0,-53,-49,-86,-150c0,0,-34,-102,-34,-212c0,0,0,-186,132,-295c0,0,114,-94,295,-94ZM690,-20c0,0,-276,0,-452,168C238,148,63,317,63,581c0,0,0,266,175,435c0,0,176,169,452,169c0,0,277,0,452,-169c0,0,175,-169,175,-435c0,0,0,-264,-175,-433c0,0,-175,-168,-452,-168Z" 
id="f4_1e"
transform="scale(0.001,-0.001)" />

<path d="M108,0c0,0,22,54,31,110c0,0,10,55,10,135V985L-5,1167H418c0,0,21,-44,54,-99c0,0,34,-55,96,-146L857,495V922c0,0,0,81,-9,136c0,0,-9,55,-32,109h378c0,0,-23,-54,-32,-109c0,0,-9,-55,-9,-136V351c0,0,0,-76,11,-178c0,0,11,-101,27,-173H845c0,0,-7,25,-28,67c0,0,-21,42,-45,78L444,628V245c0,0,0,-80,9,-135c0,0,10,-56,32,-110Z" 
id="f4_1d"
transform="scale(0.001,-0.001)" />

<path d="M713,-20c0,0,-282,0,-462,158C251,138,70,297,70,546c0,0,0,281,186,460c0,0,186,179,477,179c0,0,102,0,165,-10c0,0,63,-11,151,-42V831c0,0,-63,58,-151,92c0,0,-87,34,-172,34c0,0,-142,0,-232,-105c0,0,-91,-105,-91,-270c0,0,0,-165,85,-270c0,0,85,-105,218,-105c0,0,42,1,87,12V373c0,0,0,81,-9,136c0,0,-10,55,-32,110h390c0,0,-22,-55,-32,-110c0,0,-9,-56,-9,-136V170c0,0,0,-32,9,-59c0,0,9,-27,31,-59V46c0,0,-186,-64,-428,-66Z" 
id="f4_16"
transform="scale(0.001,-0.001)" />

<path d="M693,499L573,830L462,499ZM-39,0c0,0,33,42,61,97c0,0,30,55,71,148l314,761c0,0,22,51,38,98c0,0,15,47,17,63H721c0,0,2,-16,18,-63c0,0,15,-47,37,-98L1091,245c0,0,41,-95,70,-150c0,0,30,-55,60,-95H849c0,0,3,25,-3,55c0,0,-6,30,-24,80L765,295H393L340,135c0,0,-17,-50,-22,-80c0,0,-5,-30,-2,-55Z" 
id="f4_10"
transform="scale(0.001,-0.001)" />

<path d="M367,-20c0,0,-85,0,-142,12C225,-8,167,2,83,35V332c0,0,41,-55,107,-90c0,0,66,-35,130,-35c0,0,51,0,84,31c0,0,32,31,32,81c0,0,0,49,-23,86c0,0,-22,37,-82,83c0,0,-126,98,-184,181c0,0,-57,82,-57,165c0,0,0,155,106,253c0,0,106,98,272,98c0,0,62,0,133,-13c0,0,71,-13,120,-33V867c0,0,-59,49,-104,70c0,0,-46,20,-94,20c0,0,-47,0,-76,-24c0,0,-29,-25,-29,-63c0,0,0,-41,20,-73c0,0,21,-31,75,-73c0,0,130,-101,189,-189c0,0,59,-87,59,-180c0,0,0,-165,-110,-270C651,85,541,-20,367,-20Z" 
id="f4_1i"
transform="scale(0.001,-0.001)" />

<path d="M324,0L78,922c0,0,-23,85,-44,140c0,0,-22,55,-50,105H376c0,0,-7,-56,-7,-99c0,0,1,-42,11,-89L479,513L610,998c0,0,11,42,21,91c0,0,10,49,13,78H861c0,0,4,-36,12,-85c0,0,9,-50,18,-84L1021,492l115,540c0,0,8,33,6,63c0,0,-1,31,-12,72h378c0,0,-30,-50,-52,-105c0,0,-21,-56,-45,-140L1166,0H925L741,597L565,0Z" 
id="f4_1m"
transform="scale(0.001,-0.001)" />

<path d="M102,0c0,0,22,54,31,110c0,0,10,55,10,135V922c0,0,0,81,-10,136c0,0,-9,55,-31,109H823L766,1041L709,913c0,0,-42,20,-137,36c0,0,-62,9,-121,13V697H798L728,569L657,441c0,0,-45,21,-131,36c0,0,-38,8,-75,11V206c0,0,117,6,201,22c0,0,126,24,239,84L827,156L762,0Z" 
id="f4_14"
transform="scale(0.001,-0.001)" />

<path d="M452,645c0,0,85,0,139,47c0,0,54,47,54,121c0,0,0,66,-51,107c0,0,-51,42,-132,42H442V645ZM93,0c0,0,22,54,32,110c0,0,9,55,9,135V922c0,0,0,81,-9,136c0,0,-10,55,-32,109H498c0,0,215,0,332,-90c0,0,117,-90,117,-256c0,0,0,-159,-129,-253c0,0,-46,-34,-103,-54L902,246c0,0,57,-82,107,-137c0,0,50,-55,115,-109H803c0,0,-30,0,-104,83c0,0,-73,83,-149,202L442,461V246c0,0,0,-81,9,-136c0,0,10,-56,32,-110Z" 
id="f4_1h"
transform="scale(0.001,-0.001)" />

<path d="M289,0c0,0,26,60,37,116c0,0,9,55,9,129V961c0,0,-94,-3,-160,-9c0,0,-116,-13,-188,-44l41,130l41,129H981L946,1042L912,917c0,0,-45,18,-154,32c0,0,-58,8,-115,11V245c0,0,0,-74,11,-129c0,0,10,-56,35,-116Z" 
id="f4_1j"
transform="scale(0.001,-0.001)" />

<path d="M319,0c0,0,22,54,31,110c0,0,10,55,10,135V518L134,922c0,0,-57,100,-95,155c0,0,-37,55,-71,90H351c0,0,4,-29,12,-53c0,0,7,-24,22,-54L517,787l152,273c0,0,14,25,23,49c0,0,9,24,16,58h354c0,0,-35,-33,-73,-88c0,0,-38,-56,-99,-157L668,536V245c0,0,0,-80,9,-135c0,0,9,-56,32,-110Z" 
id="f4_1o"
transform="scale(0.001,-0.001)" />

<path d="M462,650c0,0,82,0,133,46c0,0,52,47,52,119c0,0,0,65,-48,106c0,0,-49,41,-125,41H452V650ZM103,0c0,0,22,54,32,110c0,0,9,55,9,135V922c0,0,0,81,-10,136c0,0,-9,55,-31,109H505c0,0,212,0,327,-93c0,0,114,-94,114,-268c0,0,0,-166,-127,-264c0,0,-127,-97,-343,-97H452V246c0,0,0,-81,9,-136c0,0,9,-56,32,-110Z" 
id="f4_1f"
transform="scale(0.001,-0.001)" />

<path d="M821,206c13,0,26,0,40,1c0,0,53,33,86,127c0,0,34,94,34,210c0,0,0,198,-131,314c0,0,-114,101,-297,101c-13,0,-27,-1,-40,-2c0,0,-53,-49,-87,-144c0,0,-33,-95,-33,-195c0,0,0,-197,131,-312c0,0,115,-100,297,-100Zm413,-442c-84,0,-186,15,-288,68c0,0,-113,58,-202,151c0,0,-22,-3,-48,-3c-3,0,-6,0,-9,0c0,0,-276,0,-452,168C235,148,60,316,60,581c0,0,0,266,175,435c0,0,176,169,452,169c0,0,277,0,452,-169c0,0,175,-169,175,-435c0,0,0,-265,-176,-433c0,0,-29,-28,-59,-51c0,0,51,-79,111,-141c0,0,104,-109,233,-165c0,0,-78,-27,-189,-27Z" 
id="f4_1g"
transform="scale(0.001,-0.001)" />

<path d="M512,-17c0,0,-191,0,-285,112c0,0,-94,113,-93,341V922c0,0,0,81,-9,136c0,0,-10,55,-32,109H483c0,0,-22,-54,-32,-109c0,0,-9,-56,-9,-136V502c0,0,0,-147,43,-219c0,0,43,-72,130,-72c0,0,85,0,127,62c0,0,42,61,42,187V922c0,0,0,80,-9,136c0,0,-10,55,-32,109h390c0,0,-22,-54,-31,-109c0,0,-10,-55,-10,-136V245c0,0,0,-80,9,-135c0,0,10,-56,32,-110H815l6,86C821,86,703,-17,512,-17Z" 
id="f4_1k"
transform="scale(0.001,-0.001)" />

<path d="M105,0c0,0,22,54,32,110c0,0,9,55,9,135V922c0,0,0,80,-10,135c0,0,-9,55,-31,110H495c0,0,-23,-54,-32,-109c0,0,-9,-55,-9,-136V245c0,0,0,-80,9,-135c0,0,9,-56,32,-110Z" 
id="f4_18"
transform="scale(0.001,-0.001)" />

<path d="M449,-255c0,0,-184,222,-259,382c0,0,-75,160,-75,331c0,0,0,172,75,332c0,0,75,161,259,382H673c0,0,-156,-201,-220,-362c0,0,-64,-160,-64,-352c0,0,0,-192,64,-352c0,0,64,-160,220,-361Z" 
id="f4_b"
transform="scale(0.001,-0.001)" />

<path d="M509,204c0,0,67,0,111,43c0,0,45,42,45,105c0,0,0,66,-44,108c0,0,-43,42,-112,42c0,0,-66,0,-111,-44c0,0,-45,-43,-45,-106c0,0,0,-60,46,-104c0,0,46,-44,110,-44Zm0,-216c0,0,-188,0,-303,102C206,90,91,192,91,360c0,0,0,79,31,163c0,0,31,84,97,185l216,329c0,0,10,14,20,51c0,0,10,36,14,74H854c0,0,-29,-22,-65,-67c0,0,-35,-46,-94,-135L539,723c0,0,21,3,45,3c3,0,5,0,8,0c0,0,141,0,238,-101c0,0,97,-101,97,-247c0,0,0,-183,-111,-287C816,91,706,-12,509,-12Z" 
id="f4_p"
transform="scale(0.001,-0.001)" />

<path d="M90,0c0,0,22,54,32,110c0,0,9,55,9,135V996L-14,1167H428c0,0,2,-38,9,-63c0,0,8,-24,24,-44L752,691l296,369c0,0,23,28,33,53c0,0,10,24,11,54h346c0,0,-50,-120,-70,-208c0,0,-20,-88,-20,-184V245c0,0,0,-80,10,-135c0,0,9,-56,31,-110H999c0,0,23,54,32,110c0,0,9,55,9,135V675L741,291h-1L441,681V245c0,0,0,-80,9,-135c0,0,10,-56,32,-110Z" 
id="f4_1c"
transform="scale(0.001,-0.001)" />

<path d="M90,0c0,0,22,54,32,110c0,0,9,55,9,135V922c0,0,0,81,-9,136c0,0,-10,55,-32,109H480c0,0,-22,-54,-32,-109c0,0,-9,-55,-9,-136V739l269,348c0,0,23,27,33,45c0,0,11,18,14,35h396c0,0,-38,-23,-94,-79c0,0,-55,-55,-153,-166L651,635L957,245c0,0,84,-105,135,-160c0,0,51,-55,93,-85H749c0,0,-25,51,-60,107c0,0,-35,55,-95,138L439,463V245c0,0,0,-80,9,-135c0,0,10,-56,32,-110Z" 
id="f4_1a"
transform="scale(0.001,-0.001)" />

<path d="M115,-255c0,0,156,201,220,361c0,0,64,160,64,352c0,0,0,192,-64,352c0,0,-64,161,-220,362H339c0,0,184,-222,259,-383c0,0,75,-160,75,-331c0,0,0,-171,-75,-332c0,0,-75,-160,-259,-381Z" 
id="f4_c"
transform="scale(0.001,-0.001)" />

<path d="M432,92c0,0,96,0,156,66c0,0,61,65,61,169c0,0,0,103,-61,169c0,0,-60,66,-156,66c0,0,-95,0,-156,-66c0,0,-61,-66,-61,-169c0,0,0,-104,61,-169c0,0,61,-66,156,-66ZM425,-28c0,0,-176,0,-271,135c0,0,-95,136,-95,388c0,0,0,278,103,429c0,0,103,151,293,151c0,0,142,0,226,-77c0,0,84,-76,90,-211H638c0,0,-8,80,-56,123c0,0,-47,43,-127,43c0,0,-125,0,-192,-119c0,0,-58,-102,-64,-278c0,0,100,127,255,127c0,0,152,0,245,-98c0,0,93,-98,93,-258c0,0,0,-161,-101,-259c0,0,-101,-96,-266,-96Z" 
id="f1_p"
transform="scale(0.001,-0.001)" />

<path d="M424,92c0,0,114,0,170,107c0,0,57,108,56,323c0,0,1,216,-56,324c0,0,-56,107,-170,107c0,0,-112,0,-168,-107c0,0,-56,-108,-57,-324c0,0,1,-215,57,-323c0,0,56,-107,168,-107Zm0,-120c0,0,-176,0,-271,142c0,0,-96,143,-96,408c0,0,0,265,96,409c0,0,95,144,271,144c0,0,178,0,273,-144c0,0,96,-144,96,-409c0,0,0,-265,-96,-408c0,0,-95,-142,-273,-142Z" 
id="f1_j"
transform="scale(0.001,-0.001)" />

<path d="M131,0V1097H934V966H280V631H877V500H280V131H942V0Z" 
id="f1_14"
transform="scale(0.001,-0.001)" />

<path d="M103,0V1097H237V0Z" 
id="f1_27"
transform="scale(0.001,-0.001)" />

<path d="M133,0V162H292V0Zm0,628V790H292V628Z" 
id="f1_t"
transform="scale(0.001,-0.001)" />

<path d="M417,-28c0,0,-161,0,-259,79c0,0,-98,81,-109,223H189c0,0,11,-90,72,-139c0,0,61,-49,162,-49c0,0,96,0,158,68c0,0,61,68,61,175c0,0,0,112,-64,178c0,0,-64,66,-173,66c0,0,-59,0,-115,-28c0,0,-55,-29,-84,-73L93,480l77,573H727V922H271L225,629l4,3c0,0,89,60,188,60c0,0,169,0,269,-94c0,0,99,-93,99,-253c0,0,0,-165,-103,-269C682,76,579,-28,417,-28Z" 
id="f1_o"
transform="scale(0.001,-0.001)" />

<path d="M511,373V863L169,383l-7,-10ZM511,0V258H38V383l496,691H646V373H799V258H646V0Z" 
id="f1_n"
transform="scale(0.001,-0.001)" />

<path d="M355,0V355H0v72H355V784h72V427H782V355H427V0Z" 
id="f2_f"
transform="scale(0.001,-0.001)" />

<path d="M213,177c0,0,71,0,125,63c0,0,35,42,88,200c0,0,-37,82,-84,121c0,0,-47,38,-115,38c0,0,-79,0,-133,-55C94,544,41,488,41,395c0,0,0,-99,53,-159c0,0,52,-59,119,-59ZM752,150c0,0,92,0,153,66c0,0,62,66,62,177c0,0,0,109,-65,181c0,0,-65,71,-145,71c0,0,-52,0,-90,-26c0,0,-39,-26,-70,-83c0,0,-18,-34,-78,-190c0,0,56,-117,111,-156c0,0,54,-40,122,-40ZM749,79c0,0,-74,0,-137,54c0,0,-42,36,-114,159c0,0,-48,-92,-105,-133c0,0,-57,-41,-137,-41c0,0,-108,0,-182,77C74,195,0,272,0,394c0,0,0,123,69,198c0,0,68,76,160,76c0,0,64,0,113,-33c0,0,50,-34,106,-138c0,0,50,116,111,162c0,0,60,45,164,45c0,0,121,0,203,-87c0,0,83,-86,83,-224c0,0,0,-137,-81,-225c0,0,-80,-89,-179,-89Z" 
id="f2_2v"
transform="scale(0.001,-0.001)" />

<path d="M99,0V799H226V680l28,36c0,0,90,106,215,106c0,0,107,0,171,-63c0,0,28,-28,44,-65l21,28c0,0,87,100,208,100c0,0,125,0,194,-68c0,0,68,-68,68,-194V0H1041V515c0,0,0,91,-37,138c0,0,-38,47,-110,47c0,0,-87,0,-139,-68c0,0,-52,-68,-52,-183V0H569V547c0,0,0,75,-34,114c0,0,-34,39,-99,39c0,0,-89,0,-146,-76c0,0,-57,-76,-57,-196V0Z" 
id="f1_28"
transform="scale(0.001,-0.001)" />

<path d="M420,489c0,0,93,0,153,65c0,0,60,65,60,181c0,0,0,116,-62,184c0,0,-61,68,-148,68c0,0,-90,0,-156,-74c0,0,-66,-73,-66,-189c0,0,0,-105,63,-170c0,0,63,-65,156,-65ZM391,-18c0,0,-128,0,-209,71c0,0,-82,71,-98,200l129,12c0,0,17,-91,63,-132c0,0,46,-41,118,-41c0,0,62,0,109,28c0,0,47,29,76,76c0,0,30,47,50,128c0,0,20,80,20,164c0,0,0,9,-1,27c0,0,-40,-65,-110,-105c0,0,-69,-39,-151,-39c0,0,-135,0,-229,98c0,0,-94,99,-94,260c0,0,0,166,98,268c0,0,98,101,245,101c0,0,107,0,195,-57c0,0,89,-58,134,-164c0,0,46,-106,46,-308c0,0,0,-209,-45,-334C737,235,691,111,602,46c0,0,-90,-64,-211,-64Z" 
id="f5_t"
transform="scale(0.001,-0.001)" />

<path d="M125,0V1051H268V115H799V0Z" 
id="f0_1c"
transform="scale(0.001,-0.001)" />

<path d="M106,0V620c0,0,0,85,-5,188H228c0,0,6,-138,6,-165h3c0,0,32,103,74,141c0,0,42,38,118,38c0,0,27,0,54,-7V692c0,0,-26,7,-71,7c0,0,-84,0,-128,-72c0,0,-44,-72,-44,-206V0Z" 
id="f0_2e"
transform="scale(0.001,-0.001)" />

<path d="M606,-14c0,0,-164,0,-284,65c0,0,-119,66,-182,189c0,0,-63,123,-63,291c0,0,0,255,137,396c0,0,137,140,386,140c0,0,174,0,283,-59c0,0,109,-59,168,-189L915,779c0,0,-44,90,-123,131c0,0,-79,41,-196,41c0,0,-182,0,-278,-110c0,0,-96,-110,-96,-310c0,0,0,-200,102,-315c0,0,102,-115,282,-115c0,0,103,0,193,31c0,0,89,31,144,85V407H629V526h445V164c0,0,-83,-85,-205,-132c0,0,-121,-46,-263,-46Z" 
id="f0_17"
transform="scale(0.001,-0.001)" />

<path d="M355,-14c0,0,-133,0,-194,65c0,0,-62,66,-62,219V808H234V296c0,0,0,-80,16,-124c0,0,16,-44,50,-64c0,0,34,-19,101,-19c0,0,97,0,153,66c0,0,55,67,55,185V808H744V172c0,0,0,-141,4,-172H621c0,0,0,4,-1,20c0,0,-1,17,-2,38c0,0,-1,21,-3,80h-2C613,138,567,55,506,20c0,0,-61,-34,-151,-34Z" 
id="f0_2h"
transform="scale(0.001,-0.001)" />

<path d="M395,89c0,0,115,0,166,79c0,0,51,79,51,246c0,0,0,160,-51,235c0,0,-51,75,-164,75c0,0,-102,0,-147,-75c0,0,-45,-75,-45,-244c0,0,0,-170,45,-243c0,0,45,-73,145,-73ZM361,-14c0,0,-153,0,-225,102c0,0,-72,103,-72,312c0,0,0,422,297,422c0,0,92,0,153,-33c0,0,61,-34,98,-107h2l-2,90v335H747V166c0,0,0,-126,4,-166H623c0,0,-2,12,-5,55c0,0,-3,44,-3,75h-3c0,0,-37,-78,-98,-111c0,0,-62,-33,-153,-33Z" 
id="f0_20"
transform="scale(0.001,-0.001)" />

<path d="M140,0V163H285V0Z" 
id="f0_i"
transform="scale(0.001,-0.001)" />


</defs>
</svg>