<?xml version="1.0" encoding="UTF-8" standalone="no"?>
<!DOCTYPE svg PUBLIC "-//W3C//DTD SVG 1.1//EN"
"http://www.w3.org/Graphics/SVG/1.1/DTD/svg11.dtd">
<svg viewBox="0 0 697 1056" version="1.1" xmlns="http://www.w3.org/2000/svg" xmlns:xlink="http://www.w3.org/1999/xlink">
<defs>
<style type="text/css"><![CDATA[
.g0_50{
fill: none;
stroke: #000000;
stroke-width: 0.7668222;
stroke-linecap: round;
stroke-linejoin: miter;
}
.g1_50{
fill: none;
stroke: #000000;
stroke-width: 0.76755553;
stroke-linecap: round;
stroke-linejoin: miter;
}
]]></style>
</defs>
<g fill="#D4D4D4" fill-opacity="0.56" >
<use xlink:href="#f0_1f" transform="matrix(50.9,-50.9,50.9,50.9,86.2,924.1)" />
<use xlink:href="#f0_2a" transform="matrix(50.9,-50.9,50.9,50.9,146.7,863.6)" />
<use xlink:href="#f0_28" transform="matrix(50.9,-50.9,50.9,50.9,189.9,820.3)" />
<use xlink:href="#f0_25" transform="matrix(50.9,-50.9,50.9,50.9,207.2,803.1)" />
<use xlink:href="#f0_2a" transform="matrix(50.9,-50.9,50.9,50.9,224.5,785.8)" />
<use xlink:href="#f0_21" transform="matrix(50.9,-50.9,50.9,50.9,267.7,742.5)" />
<use xlink:href="#f0_2k" transform="matrix(50.9,-50.9,50.9,50.9,311,699.3)" />
<use xlink:href="#f0_1x" transform="matrix(50.9,-50.9,50.9,50.9,349.9,660.4)" />
<use xlink:href="#f0_29" transform="matrix(50.9,-50.9,50.9,50.9,393.1,617.2)" />
<use xlink:href="#f0_2c" transform="matrix(50.9,-50.9,50.9,50.9,457.9,552.4)" />
<use xlink:href="#f0_2b" transform="matrix(50.9,-50.9,50.9,50.9,501.1,509.1)" />
<use xlink:href="#f0_25" transform="matrix(50.9,-50.9,50.9,50.9,544.4,465.9)" />
<use xlink:href="#f0_2a" transform="matrix(50.9,-50.9,50.9,50.9,561.7,448.6)" />
<use xlink:href="#f0_2g" transform="matrix(50.9,-50.9,50.9,50.9,604.9,405.4)" />
</g>
<g fill="#000000" >
<use xlink:href="#f1_q" transform="matrix(10.4,0,0,10.4,27.6,84.4)" />
<use xlink:href="#f1_q" transform="matrix(10.4,0,0,10.4,36.4,84.4)" />
<use xlink:href="#f1_h" transform="matrix(10.4,0,0,10.4,45.6,84.4)" />
<use xlink:href="#f1_15" transform="matrix(10.4,0,0,10.4,68.3,84.4)" />
<use xlink:href="#f1_24" transform="matrix(10.4,0,0,10.4,78,84.4)" />
<use xlink:href="#f1_29" transform="matrix(10.4,0,0,10.4,81.6,84.4)" />
<use xlink:href="#f1_1z" transform="matrix(10.4,0,0,10.4,90.4,84.4)" />
<use xlink:href="#f1_2f" transform="matrix(10.4,0,0,10.4,106.8,84.4)" />
<use xlink:href="#f1_23" transform="matrix(10.4,0,0,10.4,111.2,84.4)" />
<use xlink:href="#f1_20" transform="matrix(10.4,0,0,10.4,120.1,84.4)" />
<use xlink:href="#f1_24" transform="matrix(10.4,0,0,10.4,136.5,84.4)" />
<use xlink:href="#f1_29" transform="matrix(10.4,0,0,10.4,140,84.4)" />
<use xlink:href="#f1_2f" transform="matrix(10.4,0,0,10.4,148.9,84.4)" />
<use xlink:href="#f1_20" transform="matrix(10.4,0,0,10.4,153.3,84.4)" />
<use xlink:href="#f1_2d" transform="matrix(10.4,0,0,10.4,162.2,84.4)" />
<use xlink:href="#f1_2h" transform="matrix(10.4,0,0,10.4,167.5,84.4)" />
<use xlink:href="#f1_1w" transform="matrix(10.4,0,0,10.4,175.5,84.4)" />
<use xlink:href="#f1_27" transform="matrix(10.4,0,0,10.4,184.4,84.4)" />
<use xlink:href="#f1_2e" transform="matrix(10.4,0,0,10.4,187.9,84.4)" />
<use xlink:href="#f1_24" transform="matrix(10.4,0,0,10.4,203.4,84.4)" />
<use xlink:href="#f1_29" transform="matrix(10.4,0,0,10.4,206.9,84.4)" />
<use xlink:href="#f1_2i" transform="matrix(10.4,0,0,10.4,223.5,84.4)" />
<use xlink:href="#f1_23" transform="matrix(10.4,0,0,10.4,235,84.4)" />
<use xlink:href="#f1_24" transform="matrix(10.4,0,0,10.4,243.9,84.4)" />
<use xlink:href="#f1_1y" transform="matrix(10.4,0,0,10.4,247.4,84.4)" />
<use xlink:href="#f1_23" transform="matrix(10.4,0,0,10.4,255.4,84.4)" />
<use xlink:href="#f1_2f" transform="matrix(10.4,0,0,10.4,271.8,84.4)" />
<use xlink:href="#f1_23" transform="matrix(10.4,0,0,10.4,276.2,84.4)" />
<use xlink:href="#f1_20" transform="matrix(10.4,0,0,10.4,285.1,84.4)" />
<use xlink:href="#f1_21" transform="matrix(10.4,0,0,10.4,301.5,84.4)" />
<use xlink:href="#f1_2g" transform="matrix(10.4,0,0,10.4,305.9,84.4)" />
<use xlink:href="#f1_29" transform="matrix(10.4,0,0,10.4,314.8,84.4)" />
<use xlink:href="#f1_1y" transform="matrix(10.4,0,0,10.4,323.7,84.4)" />
<use xlink:href="#f1_2f" transform="matrix(10.4,0,0,10.4,331.6,84.4)" />
<use xlink:href="#f1_24" transform="matrix(10.4,0,0,10.4,336.1,84.4)" />
<use xlink:href="#f1_2a" transform="matrix(10.4,0,0,10.4,339.6,84.4)" />
<use xlink:href="#f1_29" transform="matrix(10.4,0,0,10.4,348.5,84.4)" />
<use xlink:href="#f2_21" transform="matrix(10.4,0,0,10.4,363.6,84.4)" />
<use xlink:href="#f1_b" transform="matrix(10.4,0,0,10.4,368,84.4)" />
<use xlink:href="#f2_2j" transform="matrix(10.4,0,0,10.4,373.4,84.4)" />
<use xlink:href="#f1_c" transform="matrix(10.4,0,0,10.4,381.4,84.4)" />
<use xlink:href="#f1_w" transform="matrix(10.4,0,0,10.4,394.3,84.4)" />
<use xlink:href="#f1_l" transform="matrix(10.4,0,0,10.4,411.3,84.4)" />
<use xlink:href="#f2_2j" transform="matrix(10.4,0,0,10.4,420.1,84.4)" />
<use xlink:href="#f1_m" transform="matrix(7.4,0,0,7.4,428.2,79.1)" />
<use xlink:href="#f1_99" transform="matrix(10.4,0,0,10.4,441.9,84.4)" />
<use xlink:href="#f1_k" transform="matrix(10.4,0,0,10.4,458.3,84.4)" />
<use xlink:href="#f1_o" transform="matrix(10.4,0,0,10.4,467.2,84.4)" />
<use xlink:href="#f2_2j" transform="matrix(10.4,0,0,10.4,475.9,84.4)" />
<use xlink:href="#f1_l" transform="matrix(7.4,0,0,7.4,483.9,79.1)" />
<use xlink:href="#f1_e" transform="matrix(10.4,0,0,10.4,497.7,84.4)" />
<use xlink:href="#f1_m" transform="matrix(10.4,0,0,10.4,514.7,84.4)" />
<use xlink:href="#f1_p" transform="matrix(10.4,0,0,10.4,523.6,84.4)" />
<use xlink:href="#f2_2j" transform="matrix(10.4,0,0,10.4,532.3,84.4)" />
<use xlink:href="#f1_e" transform="matrix(10.4,0,0,10.4,547.9,84.4)" />
<use xlink:href="#f1_k" transform="matrix(10.4,0,0,10.4,564.9,84.4)" />
<use xlink:href="#f1_24" transform="matrix(10.4,0,0,10.4,581.3,84.4)" />
<use xlink:href="#f1_2e" transform="matrix(10.4,0,0,10.4,584.9,84.4)" />
<use xlink:href="#f1_2e" transform="matrix(10.4,0,0,10.4,68.3,104.6)" />
<use xlink:href="#f1_2f" transform="matrix(10.4,0,0,10.4,76.2,104.6)" />
<use xlink:href="#f1_2d" transform="matrix(10.4,0,0,10.4,80.7,104.6)" />
<use xlink:href="#f1_24" transform="matrix(10.4,0,0,10.4,86,104.6)" />
<use xlink:href="#f1_1y" transform="matrix(10.4,0,0,10.4,89.5,104.6)" />
<use xlink:href="#f1_2f" transform="matrix(10.4,0,0,10.4,97.5,104.6)" />
<use xlink:href="#f1_27" transform="matrix(10.4,0,0,10.4,101.9,104.6)" />
<use xlink:href="#f1_2k" transform="matrix(10.4,0,0,10.4,105.5,104.6)" />
<use xlink:href="#f1_24" transform="matrix(10.4,0,0,10.4,117.9,104.6)" />
<use xlink:href="#f1_29" transform="matrix(10.4,0,0,10.4,121.4,104.6)" />
<use xlink:href="#f1_1y" transform="matrix(10.4,0,0,10.4,130.3,104.6)" />
<use xlink:href="#f1_2d" transform="matrix(10.4,0,0,10.4,138.3,104.6)" />
<use xlink:href="#f1_20" transform="matrix(10.4,0,0,10.4,143.6,104.6)" />
<use xlink:href="#f1_1w" transform="matrix(10.4,0,0,10.4,152.5,104.6)" />
<use xlink:href="#f1_2e" transform="matrix(10.4,0,0,10.4,161.3,104.6)" />
<use xlink:href="#f1_24" transform="matrix(10.4,0,0,10.4,169.3,104.6)" />
<use xlink:href="#f1_29" transform="matrix(10.4,0,0,10.4,172.8,104.6)" />
<use xlink:href="#f1_22" transform="matrix(10.4,0,0,10.4,181.7,104.6)" />
<use xlink:href="#f1_2a" transform="matrix(10.4,0,0,10.4,195,104.6)" />
<use xlink:href="#f1_2d" transform="matrix(10.4,0,0,10.4,203.9,104.6)" />
<use xlink:href="#f1_1z" transform="matrix(10.4,0,0,10.4,213.6,104.6)" />
<use xlink:href="#f1_20" transform="matrix(10.4,0,0,10.4,222.5,104.6)" />
<use xlink:href="#f1_1y" transform="matrix(10.4,0,0,10.4,231.4,104.6)" />
<use xlink:href="#f1_2d" transform="matrix(10.4,0,0,10.4,239.3,104.6)" />
<use xlink:href="#f1_20" transform="matrix(10.4,0,0,10.4,244.6,104.6)" />
<use xlink:href="#f1_1w" transform="matrix(10.4,0,0,10.4,253.5,104.6)" />
<use xlink:href="#f1_2e" transform="matrix(10.4,0,0,10.4,262.4,104.6)" />
<use xlink:href="#f1_24" transform="matrix(10.4,0,0,10.4,270.4,104.6)" />
<use xlink:href="#f1_29" transform="matrix(10.4,0,0,10.4,273.9,104.6)" />
<use xlink:href="#f1_22" transform="matrix(10.4,0,0,10.4,282.8,104.6)" />
<use xlink:href="#f1_h" transform="matrix(10.4,0,0,10.4,291.6,104.6)" />
<use xlink:href="#f1_10" transform="matrix(10.4,0,0,10.4,300.5,104.6)" />
<use xlink:href="#f1_27" transform="matrix(10.4,0,0,10.4,311.1,104.6)" />
<use xlink:href="#f1_2e" transform="matrix(10.4,0,0,10.4,314.7,104.6)" />
<use xlink:href="#f1_2a" transform="matrix(10.4,0,0,10.4,322.7,104.6)" />
<use xlink:href="#f1_21" transform="matrix(10.4,0,0,10.4,336,104.6)" />
<use xlink:href="#f1_24" transform="matrix(10.4,0,0,10.4,340.4,104.6)" />
<use xlink:href="#f1_29" transform="matrix(10.4,0,0,10.4,343.9,104.6)" />
<use xlink:href="#f1_1z" transform="matrix(10.4,0,0,10.4,352.8,104.6)" />
<use xlink:href="#f1_2f" transform="matrix(10.4,0,0,10.4,366.1,104.6)" />
<use xlink:href="#f1_23" transform="matrix(10.4,0,0,10.4,370.5,104.6)" />
<use xlink:href="#f1_20" transform="matrix(10.4,0,0,10.4,379.4,104.6)" />
<use xlink:href="#f1_2b" transform="matrix(10.4,0,0,10.4,392.7,104.6)" />
<use xlink:href="#f1_2a" transform="matrix(10.4,0,0,10.4,401.6,104.6)" />
<use xlink:href="#f1_24" transform="matrix(10.4,0,0,10.4,410.4,104.6)" />
<use xlink:href="#f1_29" transform="matrix(10.4,0,0,10.4,414,104.6)" />
<use xlink:href="#f1_2f" transform="matrix(10.4,0,0,10.4,422.9,104.6)" />
<use xlink:href="#f1_2e" transform="matrix(10.4,0,0,10.4,427.3,104.6)" />
<use xlink:href="#f1_2a" transform="matrix(10.4,0,0,10.4,439.7,104.6)" />
<use xlink:href="#f1_29" transform="matrix(10.4,0,0,10.4,448.6,104.6)" />
<use xlink:href="#f1_2i" transform="matrix(10.4,0,0,10.4,461.9,104.6)" />
<use xlink:href="#f1_23" transform="matrix(10.4,0,0,10.4,473.4,104.6)" />
<use xlink:href="#f1_24" transform="matrix(10.4,0,0,10.4,482.3,104.6)" />
<use xlink:href="#f1_1y" transform="matrix(10.4,0,0,10.4,485.8,104.6)" />
<use xlink:href="#f1_23" transform="matrix(10.4,0,0,10.4,493.8,104.6)" />
<use xlink:href="#f1_2f" transform="matrix(10.4,0,0,10.4,507.1,104.6)" />
<use xlink:href="#f1_23" transform="matrix(10.4,0,0,10.4,511.5,104.6)" />
<use xlink:href="#f1_20" transform="matrix(10.4,0,0,10.4,520.4,104.6)" />
<use xlink:href="#f1_2f" transform="matrix(10.4,0,0,10.4,533.7,104.6)" />
<use xlink:href="#f1_1w" transform="matrix(10.4,0,0,10.4,538.1,104.6)" />
<use xlink:href="#f1_29" transform="matrix(10.4,0,0,10.4,547,104.6)" />
<use xlink:href="#f1_22" transform="matrix(10.4,0,0,10.4,555.8,104.6)" />
<use xlink:href="#f1_20" transform="matrix(10.4,0,0,10.4,564.7,104.6)" />
<use xlink:href="#f1_29" transform="matrix(10.4,0,0,10.4,573.6,104.6)" />
<use xlink:href="#f1_2f" transform="matrix(10.4,0,0,10.4,582.5,104.6)" />
<use xlink:href="#f1_2e" transform="matrix(10.4,0,0,10.4,586.9,104.6)" />
<use xlink:href="#f1_1w" transform="matrix(10.4,0,0,10.4,68.3,124.7)" />
<use xlink:href="#f1_2d" transform="matrix(10.4,0,0,10.4,77.1,124.7)" />
<use xlink:href="#f1_20" transform="matrix(10.4,0,0,10.4,82.5,124.7)" />
<use xlink:href="#f1_2b" transform="matrix(10.4,0,0,10.4,98.7,124.7)" />
<use xlink:href="#f1_1w" transform="matrix(10.4,0,0,10.4,107.5,124.7)" />
<use xlink:href="#f1_2d" transform="matrix(10.4,0,0,10.4,116.4,124.7)" />
<use xlink:href="#f1_1w" transform="matrix(10.4,0,0,10.4,121.7,124.7)" />
<use xlink:href="#f1_27" transform="matrix(10.4,0,0,10.4,130.6,124.7)" />
<use xlink:href="#f1_27" transform="matrix(10.4,0,0,10.4,134.1,124.7)" />
<use xlink:href="#f1_20" transform="matrix(10.4,0,0,10.4,137.7,124.7)" />
<use xlink:href="#f1_27" transform="matrix(10.4,0,0,10.4,146.5,124.7)" />
<use xlink:href="#f1_2f" transform="matrix(10.4,0,0,10.4,157.4,124.7)" />
<use xlink:href="#f1_2a" transform="matrix(10.4,0,0,10.4,161.8,124.7)" />
<use xlink:href="#f2_2j" transform="matrix(10.4,0,0,10.4,177.4,124.7)" />
<use xlink:href="#f2_g" transform="matrix(10.4,0,0,10.4,185.3,124.7)" />
<use xlink:href="#f1_1w" transform="matrix(10.4,0,0,10.4,190.8,124.7)" />
<use xlink:href="#f1_2j" transform="matrix(10.4,0,0,10.4,199.6,124.7)" />
<use xlink:href="#f1_24" transform="matrix(10.4,0,0,10.4,207.6,124.7)" />
<use xlink:href="#f1_2e" transform="matrix(10.4,0,0,10.4,211.1,124.7)" />
<use xlink:href="#f1_h" transform="matrix(10.4,0,0,10.4,219.1,124.7)" />
<use xlink:href="#f1_q" transform="matrix(10.4,0,0,10.4,27.6,158.7)" />
<use xlink:href="#f1_r" transform="matrix(10.4,0,0,10.4,36.4,158.7)" />
<use xlink:href="#f1_h" transform="matrix(10.4,0,0,10.4,45.6,158.7)" />
<use xlink:href="#f1_10" transform="matrix(10.4,0,0,10.4,68.3,158.7)" />
<use xlink:href="#f1_2e" transform="matrix(10.4,0,0,10.4,84.8,158.7)" />
<use xlink:href="#f1_2a" transform="matrix(10.4,0,0,10.4,92.8,158.7)" />
<use xlink:href="#f1_27" transform="matrix(10.4,0,0,10.4,101.6,158.7)" />
<use xlink:href="#f1_24" transform="matrix(10.4,0,0,10.4,105.2,158.7)" />
<use xlink:href="#f1_1z" transform="matrix(10.4,0,0,10.4,108.7,158.7)" />
<use xlink:href="#f1_24" transform="matrix(10.4,0,0,10.4,123.5,158.7)" />
<use xlink:href="#f1_2e" transform="matrix(10.4,0,0,10.4,127,158.7)" />
<use xlink:href="#f1_21" transform="matrix(10.4,0,0,10.4,141,158.7)" />
<use xlink:href="#f1_2a" transform="matrix(10.4,0,0,10.4,145.4,158.7)" />
<use xlink:href="#f1_2d" transform="matrix(10.4,0,0,10.4,154.3,158.7)" />
<use xlink:href="#f1_28" transform="matrix(10.4,0,0,10.4,159.6,158.7)" />
<use xlink:href="#f1_20" transform="matrix(10.4,0,0,10.4,172.9,158.7)" />
<use xlink:href="#f1_1z" transform="matrix(10.4,0,0,10.4,181.8,158.7)" />
<use xlink:href="#f1_1x" transform="matrix(10.4,0,0,10.4,196.5,158.7)" />
<use xlink:href="#f1_2k" transform="matrix(10.4,0,0,10.4,205.4,158.7)" />
<use xlink:href="#f1_1w" transform="matrix(10.4,0,0,10.4,219.2,158.7)" />
<use xlink:href="#f1_1y" transform="matrix(10.4,0,0,10.4,234,158.7)" />
<use xlink:href="#f1_2k" transform="matrix(10.4,0,0,10.4,242,158.7)" />
<use xlink:href="#f1_27" transform="matrix(10.4,0,0,10.4,249.9,158.7)" />
<use xlink:href="#f1_24" transform="matrix(10.4,0,0,10.4,253.5,158.7)" />
<use xlink:href="#f1_29" transform="matrix(10.4,0,0,10.4,257,158.7)" />
<use xlink:href="#f1_1z" transform="matrix(10.4,0,0,10.4,265.9,158.7)" />
<use xlink:href="#f1_20" transform="matrix(10.4,0,0,10.4,274.7,158.7)" />
<use xlink:href="#f1_2d" transform="matrix(10.4,0,0,10.4,283.6,158.7)" />
<use xlink:href="#f1_2a" transform="matrix(10.4,0,0,10.4,295,158.7)" />
<use xlink:href="#f1_21" transform="matrix(10.4,0,0,10.4,303.8,158.7)" />
<use xlink:href="#f1_2d" transform="matrix(10.4,0,0,10.4,314.1,158.7)" />
<use xlink:href="#f1_1w" transform="matrix(10.4,0,0,10.4,319.5,158.7)" />
<use xlink:href="#f1_1z" transform="matrix(10.4,0,0,10.4,328.3,158.7)" />
<use xlink:href="#f1_24" transform="matrix(10.4,0,0,10.4,337.2,158.7)" />
<use xlink:href="#f1_2g" transform="matrix(10.4,0,0,10.4,340.7,158.7)" />
<use xlink:href="#f1_2e" transform="matrix(10.4,0,0,10.4,349.6,158.7)" />
<use xlink:href="#f2_2d" transform="matrix(10.4,0,0,10.4,362.5,158.7)" />
<use xlink:href="#f1_1w" transform="matrix(10.4,0,0,10.4,373.7,158.7)" />
<use xlink:href="#f1_29" transform="matrix(10.4,0,0,10.4,382.6,158.7)" />
<use xlink:href="#f1_1z" transform="matrix(10.4,0,0,10.4,391.5,158.7)" />
<use xlink:href="#f1_23" transform="matrix(10.4,0,0,10.4,406.4,158.7)" />
<use xlink:href="#f1_20" transform="matrix(10.4,0,0,10.4,415.3,158.7)" />
<use xlink:href="#f1_24" transform="matrix(10.4,0,0,10.4,424.1,158.7)" />
<use xlink:href="#f1_22" transform="matrix(10.4,0,0,10.4,427.7,158.7)" />
<use xlink:href="#f1_23" transform="matrix(10.4,0,0,10.4,436.5,158.7)" />
<use xlink:href="#f1_2f" transform="matrix(10.4,0,0,10.4,445.4,158.7)" />
<use xlink:href="#f2_23" transform="matrix(10.4,0,0,10.4,455.1,158.7)" />
<use xlink:href="#f1_2f" transform="matrix(10.4,0,0,10.4,469.8,158.7)" />
<use xlink:href="#f1_2a" transform="matrix(10.4,0,0,10.4,474.2,158.7)" />
<use xlink:href="#f1_22" transform="matrix(10.4,0,0,10.4,483.1,158.7)" />
<use xlink:href="#f1_20" transform="matrix(10.4,0,0,10.4,492,158.7)" />
<use xlink:href="#f1_2f" transform="matrix(10.4,0,0,10.4,500.8,158.7)" />
<use xlink:href="#f1_23" transform="matrix(10.4,0,0,10.4,505.3,158.7)" />
<use xlink:href="#f1_20" transform="matrix(10.4,0,0,10.4,514.2,158.7)" />
<use xlink:href="#f1_2d" transform="matrix(10.4,0,0,10.4,523,158.7)" />
<use xlink:href="#f1_2i" transform="matrix(10.4,0,0,10.4,534.4,158.7)" />
<use xlink:href="#f1_24" transform="matrix(10.4,0,0,10.4,545.9,158.7)" />
<use xlink:href="#f1_2f" transform="matrix(10.4,0,0,10.4,549.4,158.7)" />
<use xlink:href="#f1_23" transform="matrix(10.4,0,0,10.4,553.9,158.7)" />
<use xlink:href="#f1_2f" transform="matrix(10.4,0,0,10.4,568.6,158.7)" />
<use xlink:href="#f1_2i" transform="matrix(10.4,0,0,10.4,573,158.7)" />
<use xlink:href="#f1_2a" transform="matrix(10.4,0,0,10.4,584.6,158.7)" />
<use xlink:href="#f1_23" transform="matrix(10.4,0,0,10.4,68.3,178.8)" />
<use xlink:href="#f1_20" transform="matrix(10.4,0,0,10.4,77.1,178.8)" />
<use xlink:href="#f1_28" transform="matrix(10.4,0,0,10.4,86,178.8)" />
<use xlink:href="#f1_24" transform="matrix(10.4,0,0,10.4,99.3,178.8)" />
<use xlink:href="#f1_2e" transform="matrix(10.4,0,0,10.4,102.8,178.8)" />
<use xlink:href="#f1_2b" transform="matrix(10.4,0,0,10.4,110.8,178.8)" />
<use xlink:href="#f1_23" transform="matrix(10.4,0,0,10.4,119.7,178.8)" />
<use xlink:href="#f1_20" transform="matrix(10.4,0,0,10.4,128.5,178.8)" />
<use xlink:href="#f1_2d" transform="matrix(10.4,0,0,10.4,137.4,178.8)" />
<use xlink:href="#f1_20" transform="matrix(10.4,0,0,10.4,142.7,178.8)" />
<use xlink:href="#f1_2a" transform="matrix(10.4,0,0,10.4,158.6,178.8)" />
<use xlink:href="#f1_21" transform="matrix(10.4,0,0,10.4,167.4,178.8)" />
<use xlink:href="#f1_2d" transform="matrix(10.4,0,0,10.4,178.8,178.8)" />
<use xlink:href="#f1_1w" transform="matrix(10.4,0,0,10.4,184.2,178.8)" />
<use xlink:href="#f1_1z" transform="matrix(10.4,0,0,10.4,193,178.8)" />
<use xlink:href="#f1_24" transform="matrix(10.4,0,0,10.4,201.9,178.8)" />
<use xlink:href="#f1_2g" transform="matrix(10.4,0,0,10.4,205.4,178.8)" />
<use xlink:href="#f1_2e" transform="matrix(10.4,0,0,10.4,214.3,178.8)" />
<use xlink:href="#f2_2d" transform="matrix(10.4,0,0,10.4,228.5,178.8)" />
<use xlink:href="#f1_1w" transform="matrix(10.4,0,0,10.4,240.8,178.8)" />
<use xlink:href="#f1_2f" transform="matrix(10.4,0,0,10.4,249.7,178.8)" />
<use xlink:href="#f1_2f" transform="matrix(10.4,0,0,10.4,254.1,178.8)" />
<use xlink:href="#f1_1w" transform="matrix(10.4,0,0,10.4,258.5,178.8)" />
<use xlink:href="#f1_1y" transform="matrix(10.4,0,0,10.4,267.4,178.8)" />
<use xlink:href="#f1_23" transform="matrix(10.4,0,0,10.4,275.4,178.8)" />
<use xlink:href="#f1_20" transform="matrix(10.4,0,0,10.4,284.3,178.8)" />
<use xlink:href="#f1_1z" transform="matrix(10.4,0,0,10.4,293.1,178.8)" />
<use xlink:href="#f1_1w" transform="matrix(10.4,0,0,10.4,309,178.8)" />
<use xlink:href="#f1_2f" transform="matrix(10.4,0,0,10.4,317.8,178.8)" />
<use xlink:href="#f1_20" transform="matrix(10.4,0,0,10.4,329.2,178.8)" />
<use xlink:href="#f1_1w" transform="matrix(10.4,0,0,10.4,338.1,178.8)" />
<use xlink:href="#f1_1y" transform="matrix(10.4,0,0,10.4,347,178.8)" />
<use xlink:href="#f1_23" transform="matrix(10.4,0,0,10.4,354.9,178.8)" />
<use xlink:href="#f1_20" transform="matrix(10.4,0,0,10.4,370.8,178.8)" />
<use xlink:href="#f1_29" transform="matrix(10.4,0,0,10.4,379.7,178.8)" />
<use xlink:href="#f1_1z" transform="matrix(10.4,0,0,10.4,388.5,178.8)" />
<use xlink:href="#f1_h" transform="matrix(10.4,0,0,10.4,397.4,178.8)" />
<use xlink:href="#f1_18" transform="matrix(10.4,0,0,10.4,408.8,178.8)" />
<use xlink:href="#f1_2f" transform="matrix(10.4,0,0,10.4,413.2,178.8)" />
<use xlink:href="#f1_2f" transform="matrix(10.4,0,0,10.4,424.8,178.8)" />
<use xlink:href="#f1_23" transform="matrix(10.4,0,0,10.4,429.3,178.8)" />
<use xlink:href="#f1_20" transform="matrix(10.4,0,0,10.4,438.1,178.8)" />
<use xlink:href="#f1_2h" transform="matrix(10.4,0,0,10.4,454,178.8)" />
<use xlink:href="#f1_2a" transform="matrix(10.4,0,0,10.4,461.9,178.8)" />
<use xlink:href="#f1_27" transform="matrix(10.4,0,0,10.4,470.8,178.8)" />
<use xlink:href="#f1_2g" transform="matrix(10.4,0,0,10.4,474.3,178.8)" />
<use xlink:href="#f1_28" transform="matrix(10.4,0,0,10.4,483.2,178.8)" />
<use xlink:href="#f1_20" transform="matrix(10.4,0,0,10.4,496.5,178.8)" />
<use xlink:href="#f1_2a" transform="matrix(10.4,0,0,10.4,512.3,178.8)" />
<use xlink:href="#f1_21" transform="matrix(10.4,0,0,10.4,521.2,178.8)" />
<use xlink:href="#f1_2f" transform="matrix(10.4,0,0,10.4,532.6,178.8)" />
<use xlink:href="#f1_23" transform="matrix(10.4,0,0,10.4,537.1,178.8)" />
<use xlink:href="#f1_20" transform="matrix(10.4,0,0,10.4,545.9,178.8)" />
<use xlink:href="#f1_2e" transform="matrix(10.4,0,0,10.4,561.8,178.8)" />
<use xlink:href="#f1_2a" transform="matrix(10.4,0,0,10.4,569.7,178.8)" />
<use xlink:href="#f1_27" transform="matrix(10.4,0,0,10.4,578.6,178.8)" />
<use xlink:href="#f1_24" transform="matrix(10.4,0,0,10.4,582.1,178.8)" />
<use xlink:href="#f1_1z" transform="matrix(10.4,0,0,10.4,585.7,178.8)" />
<use xlink:href="#f1_24" transform="matrix(10.4,0,0,10.4,68.3,217.7)" />
<use xlink:href="#f1_2e" transform="matrix(10.4,0,0,10.4,71.8,217.7)" />
<use xlink:href="#f1_1y" transform="matrix(10.4,0,0,10.4,86.9,217.7)" />
<use xlink:href="#f1_2a" transform="matrix(10.4,0,0,10.4,94.9,217.7)" />
<use xlink:href="#f1_29" transform="matrix(10.4,0,0,10.4,103.8,217.7)" />
<use xlink:href="#f1_2e" transform="matrix(10.4,0,0,10.4,112.6,217.7)" />
<use xlink:href="#f1_2f" transform="matrix(10.4,0,0,10.4,120.6,217.7)" />
<use xlink:href="#f1_1w" transform="matrix(10.4,0,0,10.4,125.1,217.7)" />
<use xlink:href="#f1_29" transform="matrix(10.4,0,0,10.4,133.9,217.7)" />
<use xlink:href="#f1_2f" transform="matrix(10.4,0,0,10.4,142.8,217.7)" />
<use xlink:href="#f1_1x" transform="matrix(10.4,0,0,10.4,154.4,217.7)" />
<use xlink:href="#f1_2g" transform="matrix(10.4,0,0,10.4,163.2,217.7)" />
<use xlink:href="#f1_2f" transform="matrix(10.4,0,0,10.4,172.1,217.7)" />
<use xlink:href="#f1_2d" transform="matrix(10.4,0,0,10.4,183.9,217.7)" />
<use xlink:href="#f1_1w" transform="matrix(10.4,0,0,10.4,189.2,217.7)" />
<use xlink:href="#f1_1z" transform="matrix(10.4,0,0,10.4,198.1,217.7)" />
<use xlink:href="#f1_24" transform="matrix(10.4,0,0,10.4,206.9,217.7)" />
<use xlink:href="#f1_2g" transform="matrix(10.4,0,0,10.4,210.5,217.7)" />
<use xlink:href="#f1_2e" transform="matrix(10.4,0,0,10.4,219.3,217.7)" />
<use xlink:href="#f2_2d" transform="matrix(10.4,0,0,10.4,234,217.7)" />
<use xlink:href="#f1_24" transform="matrix(10.4,0,0,10.4,246.5,217.7)" />
<use xlink:href="#f1_2e" transform="matrix(10.4,0,0,10.4,250,217.7)" />
<use xlink:href="#f1_24" transform="matrix(10.4,0,0,10.4,265.1,217.7)" />
<use xlink:href="#f1_29" transform="matrix(10.4,0,0,10.4,268.7,217.7)" />
<use xlink:href="#f1_1y" transform="matrix(10.4,0,0,10.4,277.6,217.7)" />
<use xlink:href="#f1_2d" transform="matrix(10.4,0,0,10.4,285.5,217.7)" />
<use xlink:href="#f1_20" transform="matrix(10.4,0,0,10.4,290.8,217.7)" />
<use xlink:href="#f1_1w" transform="matrix(10.4,0,0,10.4,299.7,217.7)" />
<use xlink:href="#f1_2e" transform="matrix(10.4,0,0,10.4,308.6,217.7)" />
<use xlink:href="#f1_24" transform="matrix(10.4,0,0,10.4,316.5,217.7)" />
<use xlink:href="#f1_29" transform="matrix(10.4,0,0,10.4,320.1,217.7)" />
<use xlink:href="#f1_22" transform="matrix(10.4,0,0,10.4,329,217.7)" />
<use xlink:href="#f1_1w" transform="matrix(10.4,0,0,10.4,345,217.7)" />
<use xlink:href="#f1_2f" transform="matrix(10.4,0,0,10.4,353.8,217.7)" />
<use xlink:href="#f1_2f" transform="matrix(10.4,0,0,10.4,365.6,217.7)" />
<use xlink:href="#f1_23" transform="matrix(10.4,0,0,10.4,370.1,217.7)" />
<use xlink:href="#f1_20" transform="matrix(10.4,0,0,10.4,378.9,217.7)" />
<use xlink:href="#f1_2d" transform="matrix(10.4,0,0,10.4,394.9,217.7)" />
<use xlink:href="#f1_1w" transform="matrix(10.4,0,0,10.4,400.2,217.7)" />
<use xlink:href="#f1_2f" transform="matrix(10.4,0,0,10.4,409.1,217.7)" />
<use xlink:href="#f1_20" transform="matrix(10.4,0,0,10.4,413.6,217.7)" />
<use xlink:href="#f1_2a" transform="matrix(10.4,0,0,10.4,429.6,217.7)" />
<use xlink:href="#f1_21" transform="matrix(10.4,0,0,10.4,438.4,217.7)" />
</g>
<path d="M520,204.6l-5.1,15.9" class="g0_50" />
<g fill="#000000" >
<use xlink:href="#f1_k" transform="matrix(10.4,0,0,10.4,458.2,206.7)" />
<use xlink:href="#f1_28" transform="matrix(10.4,0,0,10.4,473.7,217)" />
<use xlink:href="#f1_20" transform="matrix(10.4,0,0,10.4,486.9,217)" />
<use xlink:href="#f1_2f" transform="matrix(10.4,0,0,10.4,496,217)" />
<use xlink:href="#f1_2d" transform="matrix(10.4,0,0,10.4,500.4,217)" />
<use xlink:href="#f1_20" transform="matrix(10.4,0,0,10.4,505.7,217)" />
<use xlink:href="#f1_28" transform="matrix(10.4,0,0,10.4,520.4,217)" />
<use xlink:href="#f1_24" transform="matrix(10.4,0,0,10.4,533.6,217)" />
<use xlink:href="#f1_29" transform="matrix(10.4,0,0,10.4,537.1,217)" />
<use xlink:href="#f1_h" transform="matrix(10.4,0,0,10.4,546.8,217)" />
<use xlink:href="#f1_l" transform="matrix(10.4,0,0,10.4,453,229.2)" />
<use xlink:href="#f3_2c" transform="matrix(10.4,0,0,10.4,462,229.2)" />
<use xlink:href="#f1_17" transform="matrix(10.4,0,0,10.4,560.9,217.7)" />
<use xlink:href="#f1_2a" transform="matrix(10.4,0,0,10.4,572.4,217.7)" />
<use xlink:href="#f1_2i" transform="matrix(10.4,0,0,10.4,581.3,217.7)" />
<use xlink:href="#f1_21" transform="matrix(10.4,0,0,10.4,68.2,252.5)" />
<use xlink:href="#f1_1w" transform="matrix(10.4,0,0,10.4,72.7,252.5)" />
<use xlink:href="#f1_2e" transform="matrix(10.4,0,0,10.4,81.5,252.5)" />
<use xlink:href="#f1_2f" transform="matrix(10.4,0,0,10.4,89.5,252.5)" />
<use xlink:href="#f1_28" transform="matrix(10.4,0,0,10.4,101.1,252.5)" />
<use xlink:href="#f1_2g" transform="matrix(10.4,0,0,10.4,114.4,252.5)" />
<use xlink:href="#f1_2e" transform="matrix(10.4,0,0,10.4,123.2,252.5)" />
<use xlink:href="#f1_2f" transform="matrix(10.4,0,0,10.4,131.2,252.5)" />
<use xlink:href="#f2_23" transform="matrix(10.4,0,0,10.4,142.7,252.5)" />
<use xlink:href="#f1_b" transform="matrix(10.4,0,0,10.4,158.6,252.5)" />
<use xlink:href="#f1_23" transform="matrix(10.4,0,0,10.4,163.9,252.5)" />
<use xlink:href="#f1_20" transform="matrix(10.4,0,0,10.4,172.8,252.5)" />
<use xlink:href="#f1_24" transform="matrix(10.4,0,0,10.4,181.7,252.5)" />
<use xlink:href="#f1_22" transform="matrix(10.4,0,0,10.4,185.2,252.5)" />
<use xlink:href="#f1_23" transform="matrix(10.4,0,0,10.4,194.1,252.5)" />
<use xlink:href="#f1_2f" transform="matrix(10.4,0,0,10.4,202.9,252.5)" />
<use xlink:href="#f1_c" transform="matrix(10.4,0,0,10.4,207.4,252.5)" />
<use xlink:href="#f1_1x" transform="matrix(10.4,0,0,10.4,220,252.5)" />
<use xlink:href="#f1_20" transform="matrix(10.4,0,0,10.4,228.9,252.5)" />
<use xlink:href="#f1_1y" transform="matrix(10.4,0,0,10.4,244.9,252.5)" />
<use xlink:href="#f1_23" transform="matrix(10.4,0,0,10.4,252.9,252.5)" />
<use xlink:href="#f1_1w" transform="matrix(10.4,0,0,10.4,261.8,252.5)" />
<use xlink:href="#f1_29" transform="matrix(10.4,0,0,10.4,270.6,252.5)" />
<use xlink:href="#f1_22" transform="matrix(10.4,0,0,10.4,279.5,252.5)" />
<use xlink:href="#f1_24" transform="matrix(10.4,0,0,10.4,288.4,252.5)" />
<use xlink:href="#f1_29" transform="matrix(10.4,0,0,10.4,291.9,252.5)" />
<use xlink:href="#f1_22" transform="matrix(10.4,0,0,10.4,300.8,252.5)" />
<use xlink:href="#f1_2i" transform="matrix(10.4,0,0,10.4,317,252.5)" />
<use xlink:href="#f1_23" transform="matrix(10.4,0,0,10.4,328.5,252.5)" />
<use xlink:href="#f1_20" transform="matrix(10.4,0,0,10.4,337.4,252.5)" />
<use xlink:href="#f1_29" transform="matrix(10.4,0,0,10.4,346.2,252.5)" />
<use xlink:href="#f2_2d" transform="matrix(10.4,0,0,10.4,361.2,252.5)" />
<use xlink:href="#f1_1w" transform="matrix(10.4,0,0,10.4,373.7,252.5)" />
<use xlink:href="#f1_29" transform="matrix(10.4,0,0,10.4,382.5,252.5)" />
<use xlink:href="#f1_1z" transform="matrix(10.4,0,0,10.4,391.4,252.5)" />
<use xlink:href="#f2_23" transform="matrix(10.4,0,0,10.4,407.4,252.5)" />
<use xlink:href="#f1_1w" transform="matrix(10.4,0,0,10.4,423.4,252.5)" />
<use xlink:href="#f1_2d" transform="matrix(10.4,0,0,10.4,432.2,252.5)" />
<use xlink:href="#f1_20" transform="matrix(10.4,0,0,10.4,437.6,252.5)" />
<use xlink:href="#f1_k" transform="matrix(10.4,0,0,10.4,453.8,252.5)" />
<use xlink:href="#f1_j" transform="matrix(10.4,0,0,10.4,462.6,252.5)" />
<use xlink:href="#f1_28" transform="matrix(10.4,0,0,10.4,478.6,252.5)" />
<use xlink:href="#f1_20" transform="matrix(10.4,0,0,10.4,491.9,252.5)" />
<use xlink:href="#f1_2f" transform="matrix(10.4,0,0,10.4,500.8,252.5)" />
<use xlink:href="#f1_2d" transform="matrix(10.4,0,0,10.4,505.2,252.5)" />
<use xlink:href="#f1_20" transform="matrix(10.4,0,0,10.4,510.5,252.5)" />
<use xlink:href="#f1_2e" transform="matrix(10.4,0,0,10.4,519.4,252.5)" />
<use xlink:href="#f1_h" transform="matrix(10.4,0,0,10.4,527.4,252.5)" />
<use xlink:href="#f1_q" transform="matrix(10.4,0,0,10.4,27.5,286.4)" />
<use xlink:href="#f1_s" transform="matrix(10.4,0,0,10.4,36.4,286.4)" />
<use xlink:href="#f1_h" transform="matrix(10.4,0,0,10.4,45.6,286.4)" />
<use xlink:href="#f1_15" transform="matrix(10.4,0,0,10.4,68.2,286.4)" />
<use xlink:href="#f1_24" transform="matrix(10.4,0,0,10.4,78,286.4)" />
<use xlink:href="#f1_29" transform="matrix(10.4,0,0,10.4,81.5,286.4)" />
<use xlink:href="#f1_1z" transform="matrix(10.4,0,0,10.4,90.4,286.4)" />
<use xlink:href="#f1_2f" transform="matrix(10.4,0,0,10.4,106.6,286.4)" />
<use xlink:href="#f1_23" transform="matrix(10.4,0,0,10.4,111,286.4)" />
<use xlink:href="#f1_20" transform="matrix(10.4,0,0,10.4,119.9,286.4)" />
<use xlink:href="#f1_20" transform="matrix(10.4,0,0,10.4,135.9,286.4)" />
<use xlink:href="#f1_2c" transform="matrix(10.4,0,0,10.4,144.8,286.4)" />
<use xlink:href="#f1_2g" transform="matrix(10.4,0,0,10.4,153.7,286.4)" />
<use xlink:href="#f1_1w" transform="matrix(10.4,0,0,10.4,162.5,286.4)" />
<use xlink:href="#f1_2f" transform="matrix(10.4,0,0,10.4,171.4,286.4)" />
<use xlink:href="#f1_24" transform="matrix(10.4,0,0,10.4,175.8,286.4)" />
<use xlink:href="#f1_2a" transform="matrix(10.4,0,0,10.4,179.4,286.4)" />
<use xlink:href="#f1_29" transform="matrix(10.4,0,0,10.4,188.2,286.4)" />
<use xlink:href="#f1_2a" transform="matrix(10.4,0,0,10.4,204.4,286.4)" />
<use xlink:href="#f1_21" transform="matrix(10.4,0,0,10.4,213.3,286.4)" />
<use xlink:href="#f1_2f" transform="matrix(10.4,0,0,10.4,225.1,286.4)" />
<use xlink:href="#f1_23" transform="matrix(10.4,0,0,10.4,229.5,286.4)" />
<use xlink:href="#f1_20" transform="matrix(10.4,0,0,10.4,238.4,286.4)" />
<use xlink:href="#f1_29" transform="matrix(10.4,0,0,10.4,254.6,286.4)" />
<use xlink:href="#f1_2a" transform="matrix(10.4,0,0,10.4,263.5,286.4)" />
<use xlink:href="#f1_2d" transform="matrix(10.4,0,0,10.4,272.3,286.4)" />
<use xlink:href="#f1_28" transform="matrix(10.4,0,0,10.4,277.6,286.4)" />
<use xlink:href="#f1_1w" transform="matrix(10.4,0,0,10.4,290.9,286.4)" />
<use xlink:href="#f1_27" transform="matrix(10.4,0,0,10.4,299.8,286.4)" />
<use xlink:href="#f1_2f" transform="matrix(10.4,0,0,10.4,310.5,286.4)" />
<use xlink:href="#f1_2a" transform="matrix(10.4,0,0,10.4,314.9,286.4)" />
<use xlink:href="#f1_2f" transform="matrix(10.4,0,0,10.4,331.1,286.4)" />
<use xlink:href="#f1_23" transform="matrix(10.4,0,0,10.4,335.6,286.4)" />
<use xlink:href="#f1_20" transform="matrix(10.4,0,0,10.4,344.4,286.4)" />
<use xlink:href="#f1_1y" transform="matrix(10.4,0,0,10.4,360.6,286.4)" />
<use xlink:href="#f1_2g" transform="matrix(10.4,0,0,10.4,368.6,286.4)" />
<use xlink:href="#f1_2d" transform="matrix(10.4,0,0,10.4,377.5,286.4)" />
<use xlink:href="#f1_2h" transform="matrix(10.4,0,0,10.4,382.8,286.4)" />
<use xlink:href="#f1_20" transform="matrix(10.4,0,0,10.4,390.8,286.4)" />
<use xlink:href="#f2_2j" transform="matrix(10.4,0,0,10.4,68.2,320.4)" />
<use xlink:href="#f1_w" transform="matrix(10.4,0,0,10.4,82.3,320.4)" />
<use xlink:href="#f2_1w" transform="matrix(10.4,0,0,10.4,97.8,320.4)" />
<use xlink:href="#f1_b" transform="matrix(10.4,0,0,10.4,112.6,320.4)" />
<use xlink:href="#f1_1y" transform="matrix(10.4,0,0,10.4,117.9,320.4)" />
<use xlink:href="#f1_2a" transform="matrix(10.4,0,0,10.4,125.9,320.4)" />
<use xlink:href="#f1_2e" transform="matrix(10.4,0,0,10.4,134.8,320.4)" />
<use xlink:href="#f3_2d" transform="matrix(10.4,0,0,10.4,149.1,320.4)" />
<use xlink:href="#f1_e" transform="matrix(10.4,0,0,10.4,163.4,320.4)" />
<use xlink:href="#f3_2d" transform="matrix(10.4,0,0,10.4,179,320.4)" />
<use xlink:href="#f1_2e" transform="matrix(10.4,0,0,10.4,193.3,320.4)" />
<use xlink:href="#f1_24" transform="matrix(10.4,0,0,10.4,201.2,320.4)" />
<use xlink:href="#f1_29" transform="matrix(10.4,0,0,10.4,204.8,320.4)" />
<use xlink:href="#f3_2d" transform="matrix(10.4,0,0,10.4,219.9,320.4)" />
<use xlink:href="#f1_c" transform="matrix(10.4,0,0,10.4,228.1,320.4)" />
<use xlink:href="#f1_u" transform="matrix(10.4,0,0,10.4,239.5,320.4)" />
<use xlink:href="#f2_2k" transform="matrix(10.4,0,0,10.4,249.9,320.4)" />
<use xlink:href="#f1_w" transform="matrix(10.4,0,0,10.4,264.2,320.4)" />
<use xlink:href="#f2_1w" transform="matrix(10.4,0,0,10.4,279.6,320.4)" />
<use xlink:href="#f1_b" transform="matrix(10.4,0,0,10.4,294.5,320.4)" />
<use xlink:href="#f1_2e" transform="matrix(10.4,0,0,10.4,299.8,320.4)" />
<use xlink:href="#f1_24" transform="matrix(10.4,0,0,10.4,307.8,320.4)" />
<use xlink:href="#f1_29" transform="matrix(10.4,0,0,10.4,311.3,320.4)" />
<use xlink:href="#f3_2d" transform="matrix(10.4,0,0,10.4,326.4,320.4)" />
<use xlink:href="#f1_99" transform="matrix(10.4,0,0,10.4,340.7,320.4)" />
<use xlink:href="#f3_2d" transform="matrix(10.4,0,0,10.4,355.7,320.4)" />
<use xlink:href="#f1_1y" transform="matrix(10.4,0,0,10.4,370,320.4)" />
<use xlink:href="#f1_2a" transform="matrix(10.4,0,0,10.4,378,320.4)" />
<use xlink:href="#f1_2e" transform="matrix(10.4,0,0,10.4,386.9,320.4)" />
<use xlink:href="#f3_2d" transform="matrix(10.4,0,0,10.4,401,320.4)" />
<use xlink:href="#f1_c" transform="matrix(10.4,0,0,10.4,409.3,320.4)" />
<use xlink:href="#f1_1w" transform="matrix(10.4,0,0,10.4,420.6,320.4)" />
<use xlink:href="#f1_2f" transform="matrix(10.4,0,0,10.4,429.5,320.4)" />
<use xlink:href="#f1_2f" transform="matrix(10.4,0,0,10.4,440.2,320.4)" />
<use xlink:href="#f1_23" transform="matrix(10.4,0,0,10.4,444.6,320.4)" />
<use xlink:href="#f1_20" transform="matrix(10.4,0,0,10.4,453.5,320.4)" />
<use xlink:href="#f1_2b" transform="matrix(10.4,0,0,10.4,468.4,320.4)" />
<use xlink:href="#f1_2a" transform="matrix(10.4,0,0,10.4,477.2,320.4)" />
<use xlink:href="#f1_24" transform="matrix(10.4,0,0,10.4,486.1,320.4)" />
<use xlink:href="#f1_29" transform="matrix(10.4,0,0,10.4,489.7,320.4)" />
<use xlink:href="#f1_2f" transform="matrix(10.4,0,0,10.4,498.5,320.4)" />
<use xlink:href="#f3_2d" transform="matrix(10.4,0,0,10.4,508.6,320.4)" />
<use xlink:href="#f1_1w" transform="matrix(10.4,0,0,10.4,522.9,320.4)" />
<use xlink:href="#f1_29" transform="matrix(10.4,0,0,10.4,531.8,320.4)" />
<use xlink:href="#f1_1z" transform="matrix(10.4,0,0,10.4,540.7,320.4)" />
<use xlink:href="#f1_2e" transform="matrix(10.4,0,0,10.4,555.8,320.4)" />
<use xlink:href="#f1_23" transform="matrix(10.4,0,0,10.4,563.7,320.4)" />
<use xlink:href="#f1_2a" transform="matrix(10.4,0,0,10.4,572.6,320.4)" />
<use xlink:href="#f1_2i" transform="matrix(10.4,0,0,10.4,581.5,320.4)" />
<use xlink:href="#f1_2f" transform="matrix(10.4,0,0,10.4,68.2,340.5)" />
<use xlink:href="#f1_23" transform="matrix(10.4,0,0,10.4,72.7,340.5)" />
<use xlink:href="#f1_1w" transform="matrix(10.4,0,0,10.4,81.5,340.5)" />
<use xlink:href="#f1_2f" transform="matrix(10.4,0,0,10.4,90.4,340.5)" />
<use xlink:href="#f1_24" transform="matrix(10.4,0,0,10.4,102,340.5)" />
<use xlink:href="#f1_2f" transform="matrix(10.4,0,0,10.4,105.5,340.5)" />
<use xlink:href="#f1_2e" transform="matrix(10.4,0,0,10.4,110,340.5)" />
<use xlink:href="#f1_1z" transform="matrix(10.4,0,0,10.4,125.1,340.5)" />
<use xlink:href="#f1_24" transform="matrix(10.4,0,0,10.4,134,340.5)" />
<use xlink:href="#f1_2e" transform="matrix(10.4,0,0,10.4,137.5,340.5)" />
<use xlink:href="#f1_2f" transform="matrix(10.4,0,0,10.4,145.5,340.5)" />
<use xlink:href="#f1_1w" transform="matrix(10.4,0,0,10.4,149.9,340.5)" />
<use xlink:href="#f1_29" transform="matrix(10.4,0,0,10.4,158.8,340.5)" />
<use xlink:href="#f1_1y" transform="matrix(10.4,0,0,10.4,167.6,340.5)" />
<use xlink:href="#f1_20" transform="matrix(10.4,0,0,10.4,175.6,340.5)" />
<use xlink:href="#f1_21" transform="matrix(10.4,0,0,10.4,191.6,340.5)" />
<use xlink:href="#f1_2d" transform="matrix(10.4,0,0,10.4,196.1,340.5)" />
<use xlink:href="#f1_2a" transform="matrix(10.4,0,0,10.4,201.4,340.5)" />
<use xlink:href="#f1_28" transform="matrix(10.4,0,0,10.4,210.2,340.5)" />
<use xlink:href="#f1_2f" transform="matrix(10.4,0,0,10.4,230.7,340.5)" />
<use xlink:href="#f1_23" transform="matrix(10.4,0,0,10.4,235.1,340.5)" />
<use xlink:href="#f1_20" transform="matrix(10.4,0,0,10.4,244,340.5)" />
<use xlink:href="#f1_2a" transform="matrix(10.4,0,0,10.4,260,340.5)" />
<use xlink:href="#f1_2d" transform="matrix(10.4,0,0,10.4,268.9,340.5)" />
<use xlink:href="#f1_24" transform="matrix(10.4,0,0,10.4,274.2,340.5)" />
<use xlink:href="#f1_22" transform="matrix(10.4,0,0,10.4,277.7,340.5)" />
<use xlink:href="#f1_24" transform="matrix(10.4,0,0,10.4,286.6,340.5)" />
<use xlink:href="#f1_29" transform="matrix(10.4,0,0,10.4,290.1,340.5)" />
<use xlink:href="#f1_24" transform="matrix(10.4,0,0,10.4,306.1,340.5)" />
<use xlink:href="#f1_2e" transform="matrix(10.4,0,0,10.4,309.7,340.5)" />
<use xlink:href="#f1_1w" transform="matrix(10.4,0,0,10.4,324.8,340.5)" />
<use xlink:href="#f1_h" transform="matrix(10.4,0,0,10.4,333.7,340.5)" />
<use xlink:href="#f1_r" transform="matrix(10.4,0,0,10.4,27.5,374.4)" />
<use xlink:href="#f1_j" transform="matrix(10.4,0,0,10.4,36.4,374.4)" />
<use xlink:href="#f1_h" transform="matrix(10.4,0,0,10.4,45.6,374.4)" />
<use xlink:href="#f1_15" transform="matrix(10.4,0,0,10.4,68.2,374.4)" />
<use xlink:href="#f1_2a" transform="matrix(10.4,0,0,10.4,78,374.4)" />
<use xlink:href="#f1_2d" transform="matrix(10.4,0,0,10.4,86.8,374.4)" />
<use xlink:href="#f1_2f" transform="matrix(10.4,0,0,10.4,96.9,374.4)" />
<use xlink:href="#f1_23" transform="matrix(10.4,0,0,10.4,101.4,374.4)" />
<use xlink:href="#f1_20" transform="matrix(10.4,0,0,10.4,110.2,374.4)" />
<use xlink:href="#f1_1y" transform="matrix(10.4,0,0,10.4,124,374.4)" />
<use xlink:href="#f1_2g" transform="matrix(10.4,0,0,10.4,132,374.4)" />
<use xlink:href="#f1_2d" transform="matrix(10.4,0,0,10.4,140.9,374.4)" />
<use xlink:href="#f1_2h" transform="matrix(10.4,0,0,10.4,146.2,374.4)" />
<use xlink:href="#f1_20" transform="matrix(10.4,0,0,10.4,154.2,374.4)" />
<use xlink:href="#f2_2k" transform="matrix(10.4,0,0,10.4,167.6,374.4)" />
<use xlink:href="#f1_w" transform="matrix(10.4,0,0,10.4,180.4,374.4)" />
<use xlink:href="#f1_n" transform="matrix(10.4,0,0,10.4,194.7,374.4)" />
<use xlink:href="#f2_2j" transform="matrix(10.4,0,0,10.4,203.5,374.4)" />
<use xlink:href="#f1_m" transform="matrix(7.4,0,0,7.4,211.6,369.1)" />
<use xlink:href="#f1_99" transform="matrix(10.4,0,0,10.4,222.6,374.4)" />
<use xlink:href="#f1_l" transform="matrix(10.4,0,0,10.4,236.4,374.4)" />
<use xlink:href="#f2_2j" transform="matrix(10.4,0,0,10.4,245.2,374.4)" />
<use xlink:href="#f1_o" transform="matrix(7.4,0,0,7.4,253.2,369.1)" />
<use xlink:href="#f1_f" transform="matrix(10.4,0,0,10.4,259.5,374.4)" />
<use xlink:href="#f1_21" transform="matrix(10.4,0,0,10.4,268.8,374.4)" />
<use xlink:href="#f1_24" transform="matrix(10.4,0,0,10.4,273.3,374.4)" />
<use xlink:href="#f1_29" transform="matrix(10.4,0,0,10.4,276.8,374.4)" />
<use xlink:href="#f1_1z" transform="matrix(10.4,0,0,10.4,285.7,374.4)" />
<use xlink:href="#f1_1w" transform="matrix(10.4,0,0,10.4,299.3,374.4)" />
<use xlink:href="#f1_27" transform="matrix(10.4,0,0,10.4,308.2,374.4)" />
<use xlink:href="#f1_27" transform="matrix(10.4,0,0,10.4,311.7,374.4)" />
<use xlink:href="#f1_2f" transform="matrix(10.4,0,0,10.4,320.2,374.4)" />
<use xlink:href="#f1_23" transform="matrix(10.4,0,0,10.4,324.7,374.4)" />
<use xlink:href="#f1_20" transform="matrix(10.4,0,0,10.4,333.5,374.4)" />
<use xlink:href="#f1_2b" transform="matrix(10.4,0,0,10.4,347.3,374.4)" />
<use xlink:href="#f1_2a" transform="matrix(10.4,0,0,10.4,356.2,374.4)" />
<use xlink:href="#f1_24" transform="matrix(10.4,0,0,10.4,365.1,374.4)" />
<use xlink:href="#f1_29" transform="matrix(10.4,0,0,10.4,368.6,374.4)" />
<use xlink:href="#f1_2f" transform="matrix(10.4,0,0,10.4,377.5,374.4)" />
<use xlink:href="#f1_2e" transform="matrix(10.4,0,0,10.4,381.9,374.4)" />
<use xlink:href="#f1_1w" transform="matrix(10.4,0,0,10.4,394.7,374.4)" />
<use xlink:href="#f1_2f" transform="matrix(10.4,0,0,10.4,403.5,374.4)" />
<use xlink:href="#f1_2i" transform="matrix(10.4,0,0,10.4,412.9,374.4)" />
<use xlink:href="#f1_23" transform="matrix(10.4,0,0,10.4,424.4,374.4)" />
<use xlink:href="#f1_24" transform="matrix(10.4,0,0,10.4,433.3,374.4)" />
<use xlink:href="#f1_1y" transform="matrix(10.4,0,0,10.4,436.8,374.4)" />
<use xlink:href="#f1_23" transform="matrix(10.4,0,0,10.4,444.8,374.4)" />
<use xlink:href="#f1_2f" transform="matrix(10.4,0,0,10.4,458.6,374.4)" />
<use xlink:href="#f1_23" transform="matrix(10.4,0,0,10.4,463.1,374.4)" />
<use xlink:href="#f1_20" transform="matrix(10.4,0,0,10.4,471.9,374.4)" />
<use xlink:href="#f1_2f" transform="matrix(10.4,0,0,10.4,485.6,374.4)" />
<use xlink:href="#f1_1w" transform="matrix(10.4,0,0,10.4,490,374.4)" />
<use xlink:href="#f1_29" transform="matrix(10.4,0,0,10.4,498.9,374.4)" />
<use xlink:href="#f1_22" transform="matrix(10.4,0,0,10.4,507.7,374.4)" />
<use xlink:href="#f1_20" transform="matrix(10.4,0,0,10.4,516.6,374.4)" />
<use xlink:href="#f1_29" transform="matrix(10.4,0,0,10.4,525.5,374.4)" />
<use xlink:href="#f1_2f" transform="matrix(10.4,0,0,10.4,534.3,374.4)" />
<use xlink:href="#f1_2b" transform="matrix(10.4,0,0,10.4,543.7,374.4)" />
<use xlink:href="#f1_1w" transform="matrix(10.4,0,0,10.4,552.6,374.4)" />
<use xlink:href="#f1_2e" transform="matrix(10.4,0,0,10.4,561.5,374.4)" />
<use xlink:href="#f1_2e" transform="matrix(10.4,0,0,10.4,569.4,374.4)" />
<use xlink:href="#f1_20" transform="matrix(10.4,0,0,10.4,577.4,374.4)" />
<use xlink:href="#f1_2e" transform="matrix(10.4,0,0,10.4,586.3,374.4)" />
<use xlink:href="#f1_2f" transform="matrix(10.4,0,0,10.4,68.2,394.6)" />
<use xlink:href="#f1_23" transform="matrix(10.4,0,0,10.4,72.7,394.6)" />
<use xlink:href="#f1_2d" transform="matrix(10.4,0,0,10.4,81.5,394.6)" />
<use xlink:href="#f1_2a" transform="matrix(10.4,0,0,10.4,86.8,394.6)" />
<use xlink:href="#f1_2g" transform="matrix(10.4,0,0,10.4,95.7,394.6)" />
<use xlink:href="#f1_22" transform="matrix(10.4,0,0,10.4,104.6,394.6)" />
<use xlink:href="#f1_23" transform="matrix(10.4,0,0,10.4,113.5,394.6)" />
<use xlink:href="#f1_2f" transform="matrix(10.4,0,0,10.4,130,394.6)" />
<use xlink:href="#f1_23" transform="matrix(10.4,0,0,10.4,134.5,394.6)" />
<use xlink:href="#f1_20" transform="matrix(10.4,0,0,10.4,143.3,394.6)" />
<use xlink:href="#f1_2a" transform="matrix(10.4,0,0,10.4,160.1,394.6)" />
<use xlink:href="#f1_2d" transform="matrix(10.4,0,0,10.4,168.9,394.6)" />
<use xlink:href="#f1_24" transform="matrix(10.4,0,0,10.4,174.3,394.6)" />
<use xlink:href="#f1_22" transform="matrix(10.4,0,0,10.4,177.8,394.6)" />
<use xlink:href="#f1_24" transform="matrix(10.4,0,0,10.4,186.7,394.6)" />
<use xlink:href="#f1_29" transform="matrix(10.4,0,0,10.4,190.2,394.6)" />
<use xlink:href="#f1_h" transform="matrix(10.4,0,0,10.4,199.1,394.6)" />
<use xlink:href="#f1_r" transform="matrix(10.4,0,0,10.4,27.5,428.5)" />
<use xlink:href="#f1_k" transform="matrix(10.4,0,0,10.4,36.4,428.5)" />
<use xlink:href="#f1_h" transform="matrix(10.4,0,0,10.4,45.6,428.5)" />
<use xlink:href="#f1_15" transform="matrix(10.4,0,0,10.4,68.2,428.5)" />
<use xlink:href="#f1_24" transform="matrix(10.4,0,0,10.4,78.1,428.5)" />
<use xlink:href="#f1_29" transform="matrix(10.4,0,0,10.4,81.7,428.5)" />
<use xlink:href="#f1_1z" transform="matrix(10.4,0,0,10.4,90.5,428.5)" />
<use xlink:href="#f1_2f" transform="matrix(10.4,0,0,10.4,108.4,428.5)" />
<use xlink:href="#f1_23" transform="matrix(10.4,0,0,10.4,112.8,428.5)" />
<use xlink:href="#f1_20" transform="matrix(10.4,0,0,10.4,121.7,428.5)" />
<use xlink:href="#f1_20" transform="matrix(10.4,0,0,10.4,139.4,428.5)" />
<use xlink:href="#f1_2c" transform="matrix(10.4,0,0,10.4,148.2,428.5)" />
<use xlink:href="#f1_2g" transform="matrix(10.4,0,0,10.4,157.1,428.5)" />
<use xlink:href="#f1_1w" transform="matrix(10.4,0,0,10.4,166,428.5)" />
<use xlink:href="#f1_2f" transform="matrix(10.4,0,0,10.4,174.8,428.5)" />
<use xlink:href="#f1_24" transform="matrix(10.4,0,0,10.4,179.3,428.5)" />
<use xlink:href="#f1_2a" transform="matrix(10.4,0,0,10.4,182.8,428.5)" />
<use xlink:href="#f1_29" transform="matrix(10.4,0,0,10.4,191.7,428.5)" />
<use xlink:href="#f1_2a" transform="matrix(10.4,0,0,10.4,209.4,428.5)" />
<use xlink:href="#f1_21" transform="matrix(10.4,0,0,10.4,218.2,428.5)" />
<use xlink:href="#f1_2f" transform="matrix(10.4,0,0,10.4,231.5,428.5)" />
<use xlink:href="#f1_23" transform="matrix(10.4,0,0,10.4,235.9,428.5)" />
<use xlink:href="#f1_20" transform="matrix(10.4,0,0,10.4,244.8,428.5)" />
<use xlink:href="#f1_29" transform="matrix(10.4,0,0,10.4,262.5,428.5)" />
<use xlink:href="#f1_2a" transform="matrix(10.4,0,0,10.4,271.3,428.5)" />
<use xlink:href="#f1_2d" transform="matrix(10.4,0,0,10.4,280.2,428.5)" />
<use xlink:href="#f1_28" transform="matrix(10.4,0,0,10.4,285.5,428.5)" />
<use xlink:href="#f1_1w" transform="matrix(10.4,0,0,10.4,298.8,428.5)" />
<use xlink:href="#f1_27" transform="matrix(10.4,0,0,10.4,307.7,428.5)" />
<use xlink:href="#f1_2f" transform="matrix(10.4,0,0,10.4,320,428.5)" />
<use xlink:href="#f1_2a" transform="matrix(10.4,0,0,10.4,324.4,428.5)" />
<use xlink:href="#f1_2f" transform="matrix(10.4,0,0,10.4,342.1,428.5)" />
<use xlink:href="#f1_23" transform="matrix(10.4,0,0,10.4,346.6,428.5)" />
<use xlink:href="#f1_20" transform="matrix(10.4,0,0,10.4,355.4,428.5)" />
<use xlink:href="#f1_1y" transform="matrix(10.4,0,0,10.4,373.3,428.5)" />
<use xlink:href="#f1_2g" transform="matrix(10.4,0,0,10.4,381.2,428.5)" />
<use xlink:href="#f1_2d" transform="matrix(10.4,0,0,10.4,390.1,428.5)" />
<use xlink:href="#f1_2h" transform="matrix(10.4,0,0,10.4,395.4,428.5)" />
<use xlink:href="#f1_20" transform="matrix(10.4,0,0,10.4,403.7,428.5)" />
<use xlink:href="#f2_2j" transform="matrix(10.4,0,0,10.4,423.6,428.5)" />
<use xlink:href="#f1_l" transform="matrix(7.4,0,0,7.4,431.8,423.2)" />
<use xlink:href="#f1_w" transform="matrix(10.4,0,0,10.4,447,428.5)" />
<use xlink:href="#f1_n" transform="matrix(10.4,0,0,10.4,465.3,428.5)" />
<use xlink:href="#f2_2k" transform="matrix(10.4,0,0,10.4,474.3,428.5)" />
<use xlink:href="#f1_2i" transform="matrix(10.4,0,0,10.4,491.4,428.5)" />
<use xlink:href="#f1_23" transform="matrix(10.4,0,0,10.4,502.9,428.5)" />
<use xlink:href="#f1_24" transform="matrix(10.4,0,0,10.4,511.8,428.5)" />
<use xlink:href="#f1_1y" transform="matrix(10.4,0,0,10.4,515.3,428.5)" />
<use xlink:href="#f1_23" transform="matrix(10.4,0,0,10.4,523.3,428.5)" />
<use xlink:href="#f1_2b" transform="matrix(10.4,0,0,10.4,541.1,428.5)" />
<use xlink:href="#f1_1w" transform="matrix(10.4,0,0,10.4,550,428.5)" />
<use xlink:href="#f1_2e" transform="matrix(10.4,0,0,10.4,558.9,428.5)" />
<use xlink:href="#f1_2e" transform="matrix(10.4,0,0,10.4,567.1,428.5)" />
<use xlink:href="#f1_20" transform="matrix(10.4,0,0,10.4,575.1,428.5)" />
<use xlink:href="#f1_2e" transform="matrix(10.4,0,0,10.4,584,428.5)" />
<use xlink:href="#f1_2f" transform="matrix(10.4,0,0,10.4,68.2,448.7)" />
<use xlink:href="#f1_23" transform="matrix(10.4,0,0,10.4,72.7,448.7)" />
<use xlink:href="#f1_2d" transform="matrix(10.4,0,0,10.4,81.5,448.7)" />
<use xlink:href="#f1_2a" transform="matrix(10.4,0,0,10.4,86.8,448.7)" />
<use xlink:href="#f1_2g" transform="matrix(10.4,0,0,10.4,95.7,448.7)" />
<use xlink:href="#f1_22" transform="matrix(10.4,0,0,10.4,104.6,448.7)" />
<use xlink:href="#f1_23" transform="matrix(10.4,0,0,10.4,113.5,448.7)" />
<use xlink:href="#f1_2f" transform="matrix(10.4,0,0,10.4,129.7,448.7)" />
<use xlink:href="#f1_23" transform="matrix(10.4,0,0,10.4,134.1,448.7)" />
<use xlink:href="#f1_20" transform="matrix(10.4,0,0,10.4,143,448.7)" />
<use xlink:href="#f1_2b" transform="matrix(10.4,0,0,10.4,159.2,448.7)" />
<use xlink:href="#f1_2a" transform="matrix(10.4,0,0,10.4,168,448.7)" />
<use xlink:href="#f1_24" transform="matrix(10.4,0,0,10.4,176.9,448.7)" />
<use xlink:href="#f1_29" transform="matrix(10.4,0,0,10.4,180.4,448.7)" />
<use xlink:href="#f1_2f" transform="matrix(10.4,0,0,10.4,189.3,448.7)" />
<use xlink:href="#f1_b" transform="matrix(10.4,0,0,10.4,201.3,448.7)" />
<use xlink:href="#f1_k" transform="matrix(10.4,0,0,10.4,206.6,448.7)" />
<use xlink:href="#f1_f" transform="matrix(10.4,0,0,10.4,215.4,448.7)" />
<use xlink:href="#f1_l" transform="matrix(10.4,0,0,10.4,227.2,448.7)" />
<use xlink:href="#f1_c" transform="matrix(10.4,0,0,10.4,236.1,448.7)" />
<use xlink:href="#f1_h" transform="matrix(10.4,0,0,10.4,241.4,448.7)" />
<use xlink:href="#f1_r" transform="matrix(10.4,0,0,10.4,27.6,501.8)" />
<use xlink:href="#f1_l" transform="matrix(10.4,0,0,10.4,36.4,501.8)" />
<use xlink:href="#f1_h" transform="matrix(10.4,0,0,10.4,45.6,501.8)" />
<use xlink:href="#f1_15" transform="matrix(10.4,0,0,10.4,68.3,501.8)" />
<use xlink:href="#f1_24" transform="matrix(10.4,0,0,10.4,78,501.8)" />
<use xlink:href="#f1_29" transform="matrix(10.4,0,0,10.4,81.6,501.8)" />
<use xlink:href="#f1_1z" transform="matrix(10.4,0,0,10.4,90.4,501.8)" />
<use xlink:href="#f1_2f" transform="matrix(10.4,0,0,10.4,105.3,501.8)" />
<use xlink:href="#f1_23" transform="matrix(10.4,0,0,10.4,109.8,501.8)" />
<use xlink:href="#f1_20" transform="matrix(10.4,0,0,10.4,118.6,501.8)" />
<use xlink:href="#f1_20" transform="matrix(10.4,0,0,10.4,133.4,501.8)" />
<use xlink:href="#f1_2c" transform="matrix(10.4,0,0,10.4,142.3,501.8)" />
<use xlink:href="#f1_2g" transform="matrix(10.4,0,0,10.4,151.1,501.8)" />
<use xlink:href="#f1_1w" transform="matrix(10.4,0,0,10.4,160,501.8)" />
<use xlink:href="#f1_2f" transform="matrix(10.4,0,0,10.4,168.9,501.8)" />
<use xlink:href="#f1_24" transform="matrix(10.4,0,0,10.4,173.3,501.8)" />
<use xlink:href="#f1_2a" transform="matrix(10.4,0,0,10.4,176.8,501.8)" />
<use xlink:href="#f1_29" transform="matrix(10.4,0,0,10.4,185.7,501.8)" />
<use xlink:href="#f1_2a" transform="matrix(10.4,0,0,10.4,200.6,501.8)" />
<use xlink:href="#f1_21" transform="matrix(10.4,0,0,10.4,209.5,501.8)" />
<use xlink:href="#f1_2f" transform="matrix(10.4,0,0,10.4,219.8,501.8)" />
<use xlink:href="#f1_23" transform="matrix(10.4,0,0,10.4,224.2,501.8)" />
<use xlink:href="#f1_20" transform="matrix(10.4,0,0,10.4,233.1,501.8)" />
<use xlink:href="#f1_2f" transform="matrix(10.4,0,0,10.4,248,501.8)" />
<use xlink:href="#f1_1w" transform="matrix(10.4,0,0,10.4,252.4,501.8)" />
<use xlink:href="#f1_29" transform="matrix(10.4,0,0,10.4,261.3,501.8)" />
<use xlink:href="#f1_22" transform="matrix(10.4,0,0,10.4,270.2,501.8)" />
<use xlink:href="#f1_20" transform="matrix(10.4,0,0,10.4,279.1,501.8)" />
<use xlink:href="#f1_29" transform="matrix(10.4,0,0,10.4,287.9,501.8)" />
<use xlink:href="#f1_2f" transform="matrix(10.4,0,0,10.4,296.8,501.8)" />
<use xlink:href="#f1_2e" transform="matrix(10.4,0,0,10.4,301.2,501.8)" />
<use xlink:href="#f1_1w" transform="matrix(10.4,0,0,10.4,315.1,501.8)" />
<use xlink:href="#f1_2f" transform="matrix(10.4,0,0,10.4,323.9,501.8)" />
<use xlink:href="#f1_2f" transform="matrix(10.4,0,0,10.4,334.4,501.8)" />
<use xlink:href="#f1_23" transform="matrix(10.4,0,0,10.4,338.9,501.8)" />
<use xlink:href="#f1_20" transform="matrix(10.4,0,0,10.4,347.7,501.8)" />
<use xlink:href="#f1_2b" transform="matrix(10.4,0,0,10.4,362.6,501.8)" />
<use xlink:href="#f1_2a" transform="matrix(10.4,0,0,10.4,371.5,501.8)" />
<use xlink:href="#f1_24" transform="matrix(10.4,0,0,10.4,380.4,501.8)" />
<use xlink:href="#f1_29" transform="matrix(10.4,0,0,10.4,383.9,501.8)" />
<use xlink:href="#f1_2f" transform="matrix(10.4,0,0,10.4,392.8,501.8)" />
<use xlink:href="#f1_2e" transform="matrix(10.4,0,0,10.4,397.2,501.8)" />
<use xlink:href="#f1_2i" transform="matrix(10.4,0,0,10.4,411.1,501.8)" />
<use xlink:href="#f1_23" transform="matrix(10.4,0,0,10.4,422.6,501.8)" />
<use xlink:href="#f1_20" transform="matrix(10.4,0,0,10.4,431.5,501.8)" />
<use xlink:href="#f1_2d" transform="matrix(10.4,0,0,10.4,440.3,501.8)" />
<use xlink:href="#f1_20" transform="matrix(10.4,0,0,10.4,445.6,501.8)" />
<use xlink:href="#f1_2f" transform="matrix(10.4,0,0,10.4,460.5,501.8)" />
<use xlink:href="#f1_23" transform="matrix(10.4,0,0,10.4,465,501.8)" />
<use xlink:href="#f1_20" transform="matrix(10.4,0,0,10.4,473.9,501.8)" />
<use xlink:href="#f1_1y" transform="matrix(10.4,0,0,10.4,488.6,501.8)" />
<use xlink:href="#f1_2g" transform="matrix(10.4,0,0,10.4,496.6,501.8)" />
<use xlink:href="#f1_2d" transform="matrix(10.4,0,0,10.4,505.4,501.8)" />
<use xlink:href="#f1_2h" transform="matrix(10.4,0,0,10.4,510.7,501.8)" />
<use xlink:href="#f1_20" transform="matrix(10.4,0,0,10.4,518.7,501.8)" />
<use xlink:href="#f1_l" transform="matrix(10.4,0,0,10.4,533.6,501.8)" />
<use xlink:href="#f2_2k" transform="matrix(10.4,0,0,10.4,540.2,501.8)" />
<use xlink:href="#f1_w" transform="matrix(10.4,0,0,10.4,554.3,501.8)" />
<use xlink:href="#f1_m" transform="matrix(10.4,0,0,10.4,569.7,501.8)" />
<use xlink:href="#f2_2j" transform="matrix(10.4,0,0,10.4,578.5,501.8)" />
<use xlink:href="#f1_l" transform="matrix(7.4,0,0,7.4,586.6,496.5)" />
<use xlink:href="#f1_99" transform="matrix(10.4,0,0,10.4,68.3,522)" />
<use xlink:href="#f1_l" transform="matrix(10.4,0,0,10.4,82.6,522)" />
<use xlink:href="#f2_2j" transform="matrix(10.4,0,0,10.4,91.4,522)" />
<use xlink:href="#f1_99" transform="matrix(10.4,0,0,10.4,105.1,522)" />
<use xlink:href="#f1_r" transform="matrix(10.4,0,0,10.4,119.5,522)" />
<use xlink:href="#f1_1y" transform="matrix(10.4,0,0,10.4,134,522)" />
<use xlink:href="#f1_2g" transform="matrix(10.4,0,0,10.4,142,522)" />
<use xlink:href="#f1_2f" transform="matrix(10.4,0,0,10.4,150.9,522)" />
<use xlink:href="#f1_2e" transform="matrix(10.4,0,0,10.4,155.3,522)" />
<use xlink:href="#f1_2f" transform="matrix(10.4,0,0,10.4,168.8,522)" />
<use xlink:href="#f1_23" transform="matrix(10.4,0,0,10.4,173.2,522)" />
<use xlink:href="#f1_20" transform="matrix(10.4,0,0,10.4,182.1,522)" />
<use xlink:href="#f2_2j" transform="matrix(10.4,0,0,10.4,201.9,522)" />
<use xlink:href="#f1_g" transform="matrix(10.4,0,0,10.4,210,522)" />
<use xlink:href="#f1_1w" transform="matrix(10.4,0,0,10.4,215.3,522)" />
<use xlink:href="#f1_2j" transform="matrix(10.4,0,0,10.4,224.2,522)" />
<use xlink:href="#f1_24" transform="matrix(10.4,0,0,10.4,232.2,522)" />
<use xlink:href="#f1_2e" transform="matrix(10.4,0,0,10.4,235.7,522)" />
<use xlink:href="#f1_1w" transform="matrix(10.4,0,0,10.4,249.4,522)" />
<use xlink:href="#f1_29" transform="matrix(10.4,0,0,10.4,258.2,522)" />
<use xlink:href="#f1_1z" transform="matrix(10.4,0,0,10.4,267.1,522)" />
<use xlink:href="#f1_2e" transform="matrix(10.4,0,0,10.4,281.5,522)" />
<use xlink:href="#f1_23" transform="matrix(10.4,0,0,10.4,289.4,522)" />
<use xlink:href="#f1_2a" transform="matrix(10.4,0,0,10.4,298.3,522)" />
<use xlink:href="#f1_2i" transform="matrix(10.4,0,0,10.4,307.2,522)" />
<use xlink:href="#f1_2f" transform="matrix(10.4,0,0,10.4,324.4,522)" />
<use xlink:href="#f1_23" transform="matrix(10.4,0,0,10.4,328.8,522)" />
<use xlink:href="#f1_1w" transform="matrix(10.4,0,0,10.4,337.7,522)" />
<use xlink:href="#f1_2f" transform="matrix(10.4,0,0,10.4,346.5,522)" />
<use xlink:href="#f1_2f" transform="matrix(10.4,0,0,10.4,356.5,522)" />
<use xlink:href="#f1_23" transform="matrix(10.4,0,0,10.4,360.9,522)" />
<use xlink:href="#f1_20" transform="matrix(10.4,0,0,10.4,369.8,522)" />
<use xlink:href="#f1_2k" transform="matrix(10.4,0,0,10.4,378.7,522)" />
<use xlink:href="#f1_28" transform="matrix(10.4,0,0,10.4,392.3,522)" />
<use xlink:href="#f1_1w" transform="matrix(10.4,0,0,10.4,405.6,522)" />
<use xlink:href="#f1_26" transform="matrix(10.4,0,0,10.4,414.5,522)" />
<use xlink:href="#f1_20" transform="matrix(10.4,0,0,10.4,422.4,522)" />
<use xlink:href="#f1_2e" transform="matrix(10.4,0,0,10.4,436.8,522)" />
<use xlink:href="#f1_2g" transform="matrix(10.4,0,0,10.4,444.8,522)" />
<use xlink:href="#f1_2b" transform="matrix(10.4,0,0,10.4,453.7,522)" />
<use xlink:href="#f1_2b" transform="matrix(10.4,0,0,10.4,462.5,522)" />
<use xlink:href="#f1_27" transform="matrix(10.4,0,0,10.4,471.4,522)" />
<use xlink:href="#f1_20" transform="matrix(10.4,0,0,10.4,474.9,522)" />
<use xlink:href="#f1_28" transform="matrix(10.4,0,0,10.4,483.8,522)" />
<use xlink:href="#f1_20" transform="matrix(10.4,0,0,10.4,497.1,522)" />
<use xlink:href="#f1_29" transform="matrix(10.4,0,0,10.4,506,522)" />
<use xlink:href="#f1_2f" transform="matrix(10.4,0,0,10.4,514.8,522)" />
<use xlink:href="#f1_1w" transform="matrix(10.4,0,0,10.4,519.3,522)" />
<use xlink:href="#f1_2d" transform="matrix(10.4,0,0,10.4,528.1,522)" />
<use xlink:href="#f1_2k" transform="matrix(10.4,0,0,10.4,533.4,522)" />
<use xlink:href="#f1_1w" transform="matrix(10.4,0,0,10.4,547.1,522)" />
<use xlink:href="#f1_29" transform="matrix(10.4,0,0,10.4,556,522)" />
<use xlink:href="#f1_22" transform="matrix(10.4,0,0,10.4,564.8,522)" />
<use xlink:href="#f1_27" transform="matrix(10.4,0,0,10.4,573.7,522)" />
<use xlink:href="#f1_20" transform="matrix(10.4,0,0,10.4,577.2,522)" />
<use xlink:href="#f1_2e" transform="matrix(10.4,0,0,10.4,586.1,522)" />
<use xlink:href="#f1_2i" transform="matrix(10.4,0,0,10.4,68.3,542.1)" />
<use xlink:href="#f1_24" transform="matrix(10.4,0,0,10.4,79.8,542.1)" />
<use xlink:href="#f1_2f" transform="matrix(10.4,0,0,10.4,83.3,542.1)" />
<use xlink:href="#f1_23" transform="matrix(10.4,0,0,10.4,87.8,542.1)" />
<use xlink:href="#f1_2f" transform="matrix(10.4,0,0,10.4,103.8,542.1)" />
<use xlink:href="#f1_23" transform="matrix(10.4,0,0,10.4,108.2,542.1)" />
<use xlink:href="#f1_20" transform="matrix(10.4,0,0,10.4,117.1,542.1)" />
<use xlink:href="#f2_2j" transform="matrix(10.4,0,0,10.4,133,542.1)" />
<use xlink:href="#f2_g" transform="matrix(10.4,0,0,10.4,141,542.1)" />
<use xlink:href="#f1_1w" transform="matrix(10.4,0,0,10.4,146.4,542.1)" />
<use xlink:href="#f1_2j" transform="matrix(10.4,0,0,10.4,155.2,542.1)" />
<use xlink:href="#f1_24" transform="matrix(10.4,0,0,10.4,163.2,542.1)" />
<use xlink:href="#f1_2e" transform="matrix(10.4,0,0,10.4,166.8,542.1)" />
<use xlink:href="#f1_h" transform="matrix(10.4,0,0,10.4,174.7,542.1)" />
</g>
<path d="M509.9,575.7h19.7m16.4,0h19.9" class="g1_50" />
<g fill="#000000" >
<use xlink:href="#f1_l" transform="matrix(7,0,0,6.9,521,562.4)" />
<use xlink:href="#f1_l" transform="matrix(7,0,0,6.9,557.3,562.4)" />
<use xlink:href="#f3_x" transform="matrix(10.4,0,0,10.4,570.6,579.9)" />
<use xlink:href="#f1_l" transform="matrix(7,0,0,6.9,557,586.2)" />
<use xlink:href="#f1_k" transform="matrix(10.4,0,0,10.4,582.9,579.9)" />
<use xlink:href="#f2_2j" transform="matrix(10.4,0,0,10.4,510.8,569.6)" />
<use xlink:href="#f2_2k" transform="matrix(10.4,0,0,10.4,546.8,569.6)" />
<use xlink:href="#f2_1w" transform="matrix(10.4,0,0,10.4,510.6,593.3)" />
<use xlink:href="#f1_l" transform="matrix(7,0,0,6.9,520.4,586.2)" />
<use xlink:href="#f2_1x" transform="matrix(10.4,0,0,10.4,546.4,593.3)" />
<use xlink:href="#f3_h" transform="matrix(10.4,0,0,10.4,533.2,579.9)" />
<use xlink:href="#f1_r" transform="matrix(10.4,0,0,10.4,27.6,579)" />
<use xlink:href="#f1_m" transform="matrix(10.4,0,0,10.4,36.4,579)" />
<use xlink:href="#f1_h" transform="matrix(10.4,0,0,10.4,45.6,579)" />
<use xlink:href="#f1_15" transform="matrix(10.4,0,0,10.4,68.3,579)" />
<use xlink:href="#f1_24" transform="matrix(10.4,0,0,10.4,78,579)" />
<use xlink:href="#f1_29" transform="matrix(10.4,0,0,10.4,81.6,579)" />
<use xlink:href="#f1_1z" transform="matrix(10.4,0,0,10.4,90.4,579)" />
<use xlink:href="#f1_2f" transform="matrix(10.4,0,0,10.4,103.7,579)" />
<use xlink:href="#f1_23" transform="matrix(10.4,0,0,10.4,108.2,579)" />
<use xlink:href="#f1_20" transform="matrix(10.4,0,0,10.4,117,579)" />
<use xlink:href="#f1_20" transform="matrix(10.4,0,0,10.4,130.3,579)" />
<use xlink:href="#f1_2c" transform="matrix(10.4,0,0,10.4,139.2,579)" />
<use xlink:href="#f1_2g" transform="matrix(10.4,0,0,10.4,148.1,579)" />
<use xlink:href="#f1_1w" transform="matrix(10.4,0,0,10.4,156.9,579)" />
<use xlink:href="#f1_2f" transform="matrix(10.4,0,0,10.4,165.8,579)" />
<use xlink:href="#f1_24" transform="matrix(10.4,0,0,10.4,170.2,579)" />
<use xlink:href="#f1_2a" transform="matrix(10.4,0,0,10.4,173.8,579)" />
<use xlink:href="#f1_29" transform="matrix(10.4,0,0,10.4,182.7,579)" />
<use xlink:href="#f1_2e" transform="matrix(10.4,0,0,10.4,191.5,579)" />
<use xlink:href="#f1_2a" transform="matrix(10.4,0,0,10.4,203.9,579)" />
<use xlink:href="#f1_21" transform="matrix(10.4,0,0,10.4,212.8,579)" />
<use xlink:href="#f1_2f" transform="matrix(10.4,0,0,10.4,221.7,579)" />
<use xlink:href="#f1_23" transform="matrix(10.4,0,0,10.4,226.1,579)" />
<use xlink:href="#f1_20" transform="matrix(10.4,0,0,10.4,235,579)" />
<use xlink:href="#f1_2f" transform="matrix(10.4,0,0,10.4,248.3,579)" />
<use xlink:href="#f1_1w" transform="matrix(10.4,0,0,10.4,252.7,579)" />
<use xlink:href="#f1_29" transform="matrix(10.4,0,0,10.4,261.6,579)" />
<use xlink:href="#f1_22" transform="matrix(10.4,0,0,10.4,270.4,579)" />
<use xlink:href="#f1_20" transform="matrix(10.4,0,0,10.4,279.3,579)" />
<use xlink:href="#f1_29" transform="matrix(10.4,0,0,10.4,288.2,579)" />
<use xlink:href="#f1_2f" transform="matrix(10.4,0,0,10.4,297,579)" />
<use xlink:href="#f1_1w" transform="matrix(10.4,0,0,10.4,305.9,579)" />
<use xlink:href="#f1_29" transform="matrix(10.4,0,0,10.4,314.8,579)" />
<use xlink:href="#f1_1z" transform="matrix(10.4,0,0,10.4,323.7,579)" />
<use xlink:href="#f1_29" transform="matrix(10.4,0,0,10.4,337,579)" />
<use xlink:href="#f1_2a" transform="matrix(10.4,0,0,10.4,345.8,579)" />
<use xlink:href="#f1_2d" transform="matrix(10.4,0,0,10.4,354.7,579)" />
<use xlink:href="#f1_28" transform="matrix(10.4,0,0,10.4,360,579)" />
<use xlink:href="#f1_1w" transform="matrix(10.4,0,0,10.4,373.3,579)" />
<use xlink:href="#f1_27" transform="matrix(10.4,0,0,10.4,382.2,579)" />
<use xlink:href="#f1_2f" transform="matrix(10.4,0,0,10.4,390.1,579)" />
<use xlink:href="#f1_2a" transform="matrix(10.4,0,0,10.4,394.6,579)" />
<use xlink:href="#f1_2f" transform="matrix(10.4,0,0,10.4,407.9,579)" />
<use xlink:href="#f1_23" transform="matrix(10.4,0,0,10.4,412.3,579)" />
<use xlink:href="#f1_20" transform="matrix(10.4,0,0,10.4,421.2,579)" />
<use xlink:href="#f1_23" transform="matrix(10.4,0,0,10.4,434.5,579)" />
<use xlink:href="#f1_2k" transform="matrix(10.4,0,0,10.4,443.3,579)" />
<use xlink:href="#f1_2b" transform="matrix(10.4,0,0,10.4,451.3,579)" />
<use xlink:href="#f1_20" transform="matrix(10.4,0,0,10.4,460.2,579)" />
<use xlink:href="#f1_2d" transform="matrix(10.4,0,0,10.4,469.1,579)" />
<use xlink:href="#f1_1x" transform="matrix(10.4,0,0,10.4,474.4,579)" />
<use xlink:href="#f1_2a" transform="matrix(10.4,0,0,10.4,483.2,579)" />
<use xlink:href="#f1_27" transform="matrix(10.4,0,0,10.4,492.1,579)" />
<use xlink:href="#f1_1w" transform="matrix(10.4,0,0,10.4,495.6,579)" />
<use xlink:href="#f1_1w" transform="matrix(10.4,0,0,10.4,68.3,607.4)" />
<use xlink:href="#f1_2f" transform="matrix(10.4,0,0,10.4,77.1,607.4)" />
<use xlink:href="#f1_2f" transform="matrix(10.4,0,0,10.4,88.6,607.4)" />
<use xlink:href="#f1_23" transform="matrix(10.4,0,0,10.4,93,607.4)" />
<use xlink:href="#f1_20" transform="matrix(10.4,0,0,10.4,101.9,607.4)" />
<use xlink:href="#f1_2b" transform="matrix(10.4,0,0,10.4,117.9,607.4)" />
<use xlink:href="#f1_2a" transform="matrix(10.4,0,0,10.4,126.7,607.4)" />
<use xlink:href="#f1_24" transform="matrix(10.4,0,0,10.4,135.6,607.4)" />
<use xlink:href="#f1_29" transform="matrix(10.4,0,0,10.4,139.1,607.4)" />
<use xlink:href="#f1_2f" transform="matrix(10.4,0,0,10.4,148,607.4)" />
<use xlink:href="#f1_b" transform="matrix(10.4,0,0,10.4,159.4,607.4)" />
<use xlink:href="#f2_2j" transform="matrix(10.4,0,0,10.4,164.2,607.4)" />
<use xlink:href="#f1_j" transform="matrix(7.4,0,0,7.4,172.2,612.7)" />
<use xlink:href="#f1_f" transform="matrix(10.4,0,0,10.4,178.5,607.4)" />
<use xlink:href="#f2_2k" transform="matrix(10.4,0,0,10.4,190,607.4)" />
<use xlink:href="#f1_j" transform="matrix(7.4,0,0,7.4,198.1,612.7)" />
<use xlink:href="#f1_c" transform="matrix(10.4,0,0,10.4,204.3,607.4)" />
<use xlink:href="#f1_h" transform="matrix(10.4,0,0,10.4,209.6,607.4)" />
<use xlink:href="#f4_r" transform="matrix(12,0,0,12,640.2,964)" />
</g>
<g fill="#0080FF" fill-opacity="0.5" >
<use xlink:href="#f0_1c" transform="matrix(36.4,0,0,36.4,174.4,1053.6)" />
<use xlink:href="#f0_21" transform="matrix(36.4,0,0,36.4,205.3,1053.6)" />
<use xlink:href="#f0_1x" transform="matrix(36.4,0,0,36.4,236.2,1053.6)" />
<use xlink:href="#f0_2e" transform="matrix(36.4,0,0,36.4,267.1,1053.6)" />
<use xlink:href="#f0_2a" transform="matrix(36.4,0,0,36.4,285.6,1053.6)" />
<use xlink:href="#f0_17" transform="matrix(36.4,0,0,36.4,316.5,1053.6)" />
<use xlink:href="#f0_2h" transform="matrix(36.4,0,0,36.4,359.8,1053.6)" />
<use xlink:href="#f0_25" transform="matrix(36.4,0,0,36.4,390.7,1053.6)" />
<use xlink:href="#f0_20" transform="matrix(36.4,0,0,36.4,403,1053.6)" />
<use xlink:href="#f0_21" transform="matrix(36.4,0,0,36.4,433.9,1053.6)" />
<use xlink:href="#f0_i" transform="matrix(36.4,0,0,36.4,464.8,1053.6)" />
<use xlink:href="#f0_25" transform="matrix(36.4,0,0,36.4,480.2,1053.6)" />
<use xlink:href="#f0_2a" transform="matrix(36.4,0,0,36.4,492.6,1053.6)" />
</g>
<defs>
<path d="M593,101c0,0,182,0,279,112c0,0,98,113,98,318c0,0,0,196,-98,308c0,0,-98,112,-277,112c0,0,-181,0,-279,-110c0,0,-99,-111,-99,-310c0,0,0,-198,100,-314c0,0,99,-116,276,-116Zm0,-115c0,0,-162,0,-279,65c0,0,-118,66,-180,190c0,0,-62,124,-62,290c0,0,0,252,138,394c0,0,138,142,385,142c0,0,160,0,278,-64c0,0,118,-64,180,-185c0,0,62,-122,62,-287c0,0,0,-165,-63,-289c0,0,-63,-124,-181,-190c0,0,-118,-66,-278,-66Z" 
id="f0_1f"
transform="scale(0.001,-0.001)" />

<path d="M106,0V635c0,0,0,141,-5,173H228c0,0,1,-4,2,-21c0,0,1,-16,2,-37c0,0,1,-22,2,-81h2c0,0,47,84,108,119c0,0,60,34,151,34c0,0,132,0,194,-66c0,0,61,-66,61,-218V0H615V512c0,0,0,80,-15,124c0,0,-16,44,-50,63c0,0,-35,20,-101,20c0,0,-97,0,-153,-67c0,0,-56,-66,-56,-184V0Z" 
id="f0_2a"
transform="scale(0.001,-0.001)" />

<path d="M103,0V1107H237V0Z" 
id="f0_28"
transform="scale(0.001,-0.001)" />

<path d="M102,0V808H236V0Zm0,979v128H236V979Z" 
id="f0_25"
transform="scale(0.001,-0.001)" />

<path d="M643,478c0,0,-11,128,-65,187c0,0,-54,59,-154,59c0,0,-98,0,-155,-66c0,0,-57,-65,-62,-180ZM431,-14c0,0,-179,0,-272,106c0,0,-94,107,-94,317c0,0,0,200,94,307c0,0,93,106,267,106c0,0,356,0,356,-429V375H206c0,0,0,-138,57,-213c0,0,58,-75,168,-75c0,0,87,0,140,35c0,0,53,35,71,88L760,177c0,0,-72,-191,-329,-191Z" 
id="f0_21"
transform="scale(0.001,-0.001)" />

<path d="M17,0L304,415L31,808H179L380,493L580,808H730L457,417L747,0H598L380,331L162,0Z" 
id="f0_2k"
transform="scale(0.001,-0.001)" />

<path d="M339,87c0,0,74,0,132,34c0,0,57,33,90,91c0,0,34,59,34,121v66L448,396c0,0,-95,-2,-144,-19c0,0,-49,-18,-75,-55c0,0,-26,-38,-26,-98c0,0,0,-65,35,-101c0,0,36,-36,101,-36ZM309,-14c0,0,-122,0,-183,64c0,0,-61,64,-61,176c0,0,0,125,82,192c0,0,83,67,266,72l182,3v44c0,0,0,98,-42,141c0,0,-42,43,-132,43c0,0,-90,0,-131,-31c0,0,-41,-31,-49,-98L101,604c0,0,34,218,323,218c0,0,153,0,229,-70c0,0,77,-69,77,-202V202c0,0,0,-59,16,-90c0,0,16,-30,60,-30c0,0,19,0,44,5V4C850,4,799,-7,746,-7c0,0,-75,0,-109,38c0,0,-33,40,-38,124h-4C595,155,543,62,475,24c0,0,-68,-38,-166,-38Z" 
id="f0_1x"
transform="scale(0.001,-0.001)" />

<path d="M106,0V635c0,0,0,141,-5,173H228c0,0,1,-4,2,-21c0,0,1,-16,2,-37c0,0,1,-22,2,-81h2c0,0,44,86,100,120c0,0,56,33,136,33c0,0,92,0,145,-36c0,0,54,-37,75,-117h2c0,0,42,82,101,117c0,0,59,36,143,36c0,0,123,0,178,-66c0,0,56,-67,56,-218V0H1039V512c0,0,0,117,-32,162c0,0,-32,45,-116,45c0,0,-88,0,-136,-66c0,0,-49,-65,-49,-185V0H573V512c0,0,0,117,-32,162c0,0,-32,45,-116,45c0,0,-86,0,-136,-66c0,0,-50,-66,-50,-185V0Z" 
id="f0_29"
transform="scale(0.001,-0.001)" />

<path d="M453,84c0,0,100,0,146,74c0,0,46,73,46,247c0,0,0,169,-46,241c0,0,-45,73,-145,73c0,0,-80,0,-125,-34c0,0,-45,-34,-68,-105c0,0,-24,-71,-24,-186c0,0,0,-159,51,-234c0,0,51,-76,165,-76ZM103,-316V643c0,0,0,124,-5,165H228c0,0,1,-3,3,-22c0,0,1,-18,3,-56c0,0,2,-38,2,-52h3c0,0,36,75,94,110c0,0,59,34,156,34c0,0,149,0,223,-100c0,0,74,-100,74,-314c0,0,0,-422,-297,-422c0,0,-187,0,-251,140h-4c0,0,3,-6,3,-126V-316Z" 
id="f0_2c"
transform="scale(0.001,-0.001)" />

<path d="M420,84c0,0,121,0,173,78c0,0,52,77,52,243c0,0,0,167,-50,243c0,0,-50,76,-167,76c0,0,-118,0,-170,-78c0,0,-53,-77,-53,-241c0,0,0,-160,52,-241c0,0,52,-80,163,-80Zm1,-98c0,0,-176,0,-267,107c0,0,-90,108,-90,312c0,0,0,417,362,417c0,0,185,0,272,-102c0,0,88,-101,88,-315c0,0,0,-212,-94,-316C692,89,599,-14,421,-14Z" 
id="f0_2b"
transform="scale(0.001,-0.001)" />

<path d="M278,-11c0,0,-162,0,-162,182V710H23v98h99l39,181h90V808H400V710H251V200c0,0,0,-58,19,-82c0,0,19,-23,66,-23c0,0,27,0,77,10V6c0,0,-66,-17,-135,-17Z" 
id="f0_2g"
transform="scale(0.001,-0.001)" />

<path d="M212,0c0,0,51,270,162,500c0,0,109,222,281,422H57v131H799V934C799,934,623,726,515,498C515,498,408,269,362,0Z" 
id="f1_q"
transform="scale(0.001,-0.001)" />

<path d="M133,0V162H292V0Z" 
id="f1_h"
transform="scale(0.001,-0.001)" />

<path d="M131,0V1097H891V966H280V631H814V500H280V0Z" 
id="f1_15"
transform="scale(0.001,-0.001)" />

<path d="M104,0V799H238V0Zm-2,946v152H239V946Z" 
id="f1_24"
transform="scale(0.001,-0.001)" />

<path d="M99,0V799H226V681l30,39c0,0,87,102,219,102c0,0,132,0,203,-71c0,0,72,-72,72,-204V0H616V502c0,0,0,105,-41,151c0,0,-40,47,-132,47c0,0,-97,0,-154,-73c0,0,-56,-74,-56,-199V0Z" 
id="f1_29"
transform="scale(0.001,-0.001)" />

<path d="M411,93c0,0,98,0,158,73c0,0,60,74,60,195c0,0,0,163,-57,252c0,0,-56,88,-161,88c0,0,-113,0,-165,-72c0,0,-52,-72,-52,-229c0,0,0,-147,56,-227c0,0,56,-80,161,-80ZM404,-20c0,0,-161,0,-255,118c0,0,-95,120,-95,324c0,0,0,179,92,290c0,0,91,110,239,110c0,0,147,0,233,-124l11,-15v414H763V0H638V109L621,84C621,84,538,-20,404,-20Z" 
id="f1_1z"
transform="scale(0.001,-0.001)" />

<path d="M292,-9c0,0,-88,0,-124,38c0,0,-36,39,-36,134V689H22V799H132v224H266V799H392V689H266V163c0,0,0,-27,21,-43c0,0,21,-15,57,-15h48V1C392,1,324,-9,292,-9Z" 
id="f1_2f"
transform="scale(0.001,-0.001)" />

<path d="M99,0V1097H233V690l23,30c0,0,87,102,219,102c0,0,132,0,203,-71c0,0,72,-72,72,-204V0H616V514c0,0,0,99,-38,142c0,0,-38,44,-124,44c0,0,-102,0,-162,-73c0,0,-59,-74,-59,-199V0Z" 
id="f1_23"
transform="scale(0.001,-0.001)" />

<path d="M649,461c0,0,-6,111,-55,172c0,0,-55,69,-160,69c0,0,-106,0,-170,-79c0,0,-50,-62,-60,-162ZM425,-20c0,0,-169,0,-266,106c0,0,-97,107,-97,297c0,0,0,201,102,320c0,0,103,119,276,119c0,0,157,0,253,-116c0,0,96,-117,96,-306l-1,-48H204c0,0,8,-119,54,-182c0,0,57,-76,180,-76c0,0,77,0,134,43c0,0,58,43,70,110H775C775,247,746,116,656,47c0,0,-90,-67,-231,-67Z" 
id="f1_20"
transform="scale(0.001,-0.001)" />

<path d="M118,0V799H246V662c0,0,17,32,36,58c0,0,76,102,187,102c0,0,19,0,38,-6V679l-27,1c0,0,-109,0,-168,-66c0,0,-60,-65,-60,-186V0Z" 
id="f1_2d"
transform="scale(0.001,-0.001)" />

<path d="M310,0L12,799H168L383,145L604,799H752L454,0Z" 
id="f1_2h"
transform="scale(0.001,-0.001)" />

<path d="M335,90c0,0,106,0,179,57c0,0,50,41,67,91c0,0,3,10,4,31c0,0,3,21,3,47v87c0,0,-38,-18,-83,-25L381,360c0,0,-97,-13,-142,-45c0,0,-44,-31,-44,-86c0,0,0,-67,36,-103c0,0,37,-36,104,-36ZM309,-20c0,0,-117,0,-186,61c0,0,-68,63,-68,169c0,0,0,108,64,171c0,0,65,64,189,79l183,23c0,0,22,3,42,8c0,0,26,7,40,27c0,0,15,20,15,51v6c0,0,0,64,-49,101c0,0,-48,36,-135,36c0,0,-83,0,-130,-38c0,0,-46,-39,-56,-115H94c0,0,10,131,92,197c0,0,83,66,238,66c0,0,145,0,222,-63c0,0,76,-63,76,-184V137c0,0,0,-21,12,-33c0,0,12,-12,33,-12c0,0,6,0,18,1c0,0,11,2,25,5V1c0,0,-20,-7,-41,-11c0,0,-22,-5,-37,-5c0,0,-76,0,-110,41c0,0,-22,28,-32,79c0,0,-15,-19,-34,-36c0,0,-101,-89,-247,-89Z" 
id="f1_1w"
transform="scale(0.001,-0.001)" />

<path d="M103,0V1097H237V0Z" 
id="f1_27"
transform="scale(0.001,-0.001)" />

<path d="M393,-20c0,0,-169,0,-252,65c0,0,-83,67,-92,210H178c0,0,10,-85,61,-123c0,0,50,-38,154,-38c0,0,90,0,136,34c0,0,47,35,47,100c0,0,0,42,-31,64c0,0,-30,21,-123,43L283,368c0,0,-112,27,-160,75c0,0,-48,48,-48,135c0,0,0,112,80,178c0,0,81,66,218,66c0,0,140,0,222,-68c0,0,82,-67,88,-187H557c0,0,-6,67,-55,103c0,0,-48,37,-129,37c0,0,-84,0,-127,-29c0,0,-44,-29,-44,-85c0,0,0,-43,31,-65c0,0,30,-21,121,-43L493,452c0,0,117,-28,167,-78c0,0,49,-49,49,-138c0,0,0,-119,-86,-188c0,0,-85,-68,-230,-68Z" 
id="f1_2e"
transform="scale(0.001,-0.001)" />

<path d="M248,0L21,799H169L322,163L478,799H627L788,158L950,799h133L857,0H713L548,624L392,0Z" 
id="f1_2i"
transform="scale(0.001,-0.001)" />

<path d="M394,-20c0,0,-159,0,-253,113c0,0,-95,114,-95,307c0,0,0,193,98,308c0,0,98,114,264,114c0,0,144,0,230,-78c0,0,85,-79,91,-217H600c0,0,-8,86,-59,133c0,0,-52,47,-138,47c0,0,-101,0,-159,-82c0,0,-58,-82,-58,-225c0,0,0,-152,54,-229c0,0,53,-77,159,-77c0,0,79,0,132,50c0,0,52,51,69,143H729C729,287,709,137,623,58c0,0,-86,-78,-229,-78Z" 
id="f1_1y"
transform="scale(0.001,-0.001)" />

<path d="M132,0V687H22V799H132V935c0,0,0,88,52,133c0,0,52,45,157,45l59,-3V989l-53,2c0,0,-39,0,-60,-24c0,0,-21,-25,-21,-71V799H400V687H266V0Z" 
id="f1_21"
transform="scale(0.001,-0.001)" />

<path d="M375,-20c0,0,-136,0,-203,66c0,0,-68,68,-68,204V799H238V284c0,0,0,-101,38,-146c0,0,39,-44,127,-44c0,0,97,0,153,75c0,0,57,75,57,203V799H747V0H620V122c0,0,-14,-22,-30,-41C590,81,504,-20,375,-20Z" 
id="f1_2g"
transform="scale(0.001,-0.001)" />

<path d="M424,94c0,0,107,0,169,83c0,0,63,83,63,223c0,0,0,140,-63,224c0,0,-62,83,-169,83c0,0,-106,0,-168,-83c0,0,-62,-84,-62,-224c0,0,0,-140,62,-223c0,0,62,-83,168,-83Zm0,-114c0,0,-165,0,-268,115C156,95,54,211,54,400c0,0,0,189,102,306c0,0,103,116,268,116c0,0,168,0,270,-116c0,0,102,-117,102,-306c0,0,0,-189,-102,-305C694,95,592,-20,424,-20Z" 
id="f1_2a"
transform="scale(0.001,-0.001)" />

<path d="M131,0L274,688H168l23,112H296l26,125c0,0,20,98,82,143c0,0,62,46,176,46c0,0,33,0,59,-5L609,990c0,0,0,3,-53,3c0,0,-45,0,-70,-25c0,0,-25,-25,-37,-83L431,800H575L553,688H409L266,0Z" 
id="f2_21"
transform="scale(0.001,-0.001)" />

<path d="M365,-315c0,0,-136,187,-199,359c0,0,-62,172,-62,359c0,0,0,186,62,358c0,0,63,172,199,360h92c0,0,-110,-192,-160,-365c0,0,-51,-172,-51,-353c0,0,0,-183,51,-355c0,0,50,-172,160,-363Z" 
id="f1_b"
transform="scale(0.001,-0.001)" />

<path d="M17,0L389,412L201,800H376L500,518L742,800H904L554,410L750,0H580L448,303L187,0Z" 
id="f2_2j"
transform="scale(0.001,-0.001)" />

<path d="M52,-315c0,0,109,192,160,363c0,0,50,173,50,354c0,0,0,183,-50,355c0,0,-51,173,-160,364h92c0,0,135,-188,198,-360c0,0,63,-172,63,-359c0,0,0,-187,-63,-359c0,0,-63,-171,-198,-358Z" 
id="f1_c"
transform="scale(0.001,-0.001)" />

<path d="M60,174V286H832V174Zm0,309V595H832V483Z" 
id="f1_w"
transform="scale(0.001,-0.001)" />

<path d="M39,0V0c0,0,0,170,84,277c0,0,85,108,317,236c0,0,113,62,154,115c0,0,41,52,41,134c0,0,0,86,-62,141c0,0,-61,54,-156,54c0,0,-101,0,-158,-68c0,0,-57,-68,-60,-194H67c0,0,-2,178,95,279c0,0,98,101,273,101c0,0,149,0,245,-89c0,0,94,-88,94,-228c0,0,0,-118,-60,-195c0,0,-61,-76,-229,-169C485,394,303,294,237,212c0,0,-28,-36,-46,-81H774V0Z" 
id="f1_l"
transform="scale(0.001,-0.001)" />

<path d="M424,-28c0,0,-180,0,-272,86c0,0,-92,87,-100,266H192c0,0,12,-126,66,-180c0,0,55,-54,170,-54c0,0,100,0,163,57c0,0,64,57,64,147c0,0,0,94,-61,149c0,0,-52,48,-135,54c0,0,-38,2,-72,2c0,0,-34,0,-45,-3V613c0,0,17,-3,51,-3c0,0,35,0,68,4c0,0,66,8,106,43c0,0,55,45,55,125c0,0,0,77,-58,125c0,0,-58,48,-148,48c0,0,-96,0,-147,-58c0,0,-51,-59,-56,-175H82c0,0,0,168,89,260c0,0,88,93,250,93c0,0,153,0,247,-77c0,0,94,-76,94,-202c0,0,0,-124,-95,-201c0,0,-18,-15,-39,-27c0,0,39,-17,69,-41c0,0,101,-79,101,-214c0,0,0,-151,-105,-246c0,0,-104,-95,-269,-95Z" 
id="f1_m"
transform="scale(0.001,-0.001)" />

<path d="M0,368V478H849V368Z" 
id="f1_99"
transform="scale(0.001,-0.001)" />

<path d="M406,0V763H155V870h2c16,0,114,2,178,48c0,0,70,51,104,157H549V0Z" 
id="f1_k"
transform="scale(0.001,-0.001)" />

<path d="M417,-28c0,0,-161,0,-259,79c0,0,-98,81,-109,223H189c0,0,11,-90,72,-139c0,0,61,-49,162,-49c0,0,96,0,158,68c0,0,61,68,61,175c0,0,0,112,-64,178c0,0,-64,66,-173,66c0,0,-59,0,-115,-28c0,0,-55,-29,-84,-73L93,480l77,573H727V922H271L225,629l4,3c0,0,89,60,188,60c0,0,169,0,269,-94c0,0,99,-93,99,-253c0,0,0,-165,-103,-269C682,76,579,-28,417,-28Z" 
id="f1_o"
transform="scale(0.001,-0.001)" />

<path d="M390,-1V329H60V441H390V771H503V441H833V329H503V-1Z" 
id="f1_e"
transform="scale(0.001,-0.001)" />

<path d="M432,92c0,0,96,0,156,66c0,0,61,65,61,169c0,0,0,103,-61,169c0,0,-60,66,-156,66c0,0,-95,0,-156,-66c0,0,-61,-66,-61,-169c0,0,0,-104,61,-169c0,0,61,-66,156,-66ZM425,-28c0,0,-176,0,-271,135c0,0,-95,136,-95,388c0,0,0,278,103,429c0,0,103,151,293,151c0,0,142,0,226,-77c0,0,84,-76,90,-211H638c0,0,-8,80,-56,123c0,0,-47,43,-127,43c0,0,-125,0,-192,-119c0,0,-58,-102,-64,-278c0,0,100,127,255,127c0,0,152,0,245,-98c0,0,93,-98,93,-258c0,0,0,-161,-101,-259c0,0,-101,-96,-266,-96Z" 
id="f1_p"
transform="scale(0.001,-0.001)" />

<path d="M152,-323c-8,0,-38,1,-63,8v125c0,0,30,-11,77,-12c0,0,45,0,76,37c0,0,30,38,69,140l2,12v1L17,799H170L383,139L600,799H747L443,-25c0,0,-70,-184,-125,-241c0,0,-55,-57,-164,-57c0,0,-1,0,-2,0Z" 
id="f1_2k"
transform="scale(0.001,-0.001)" />

<path d="M418,95c0,0,98,0,158,73c0,0,59,73,59,193c0,0,0,170,-54,254c0,0,-54,85,-163,85c0,0,-113,0,-165,-72c0,0,-52,-71,-52,-227c0,0,0,-147,57,-227c0,0,56,-79,160,-79ZM394,-336c0,0,-136,0,-216,62c0,0,-79,63,-96,182H219c0,0,12,-64,57,-98c0,0,45,-35,116,-35c0,0,116,0,176,73c0,0,61,73,61,211V85l-1,-1C628,84,545,-20,412,-20c0,0,-161,0,-256,118c0,0,-94,120,-94,324c0,0,0,179,93,290c0,0,93,110,244,110c0,0,144,0,228,-124l10,-14V799H763V59c0,0,-1,-201,-91,-298c0,0,-91,-97,-278,-97Z" 
id="f1_22"
transform="scale(0.001,-0.001)" />

<path d="M682,450L513,936L337,450ZM22,0L436,1097H605L999,0H839L728,319H290L175,0Z" 
id="f1_10"
transform="scale(0.001,-0.001)" />

<path d="M436,95c0,0,105,0,160,79c0,0,54,80,54,232c0,0,0,150,-52,222c0,0,-52,72,-161,72c0,0,-112,0,-163,-81c0,0,-51,-82,-51,-258c0,0,0,-127,55,-197c0,0,55,-69,158,-69ZM89,-315V799H216V685l7,10c0,0,86,127,228,127c0,0,156,0,248,-108c0,0,91,-107,91,-291c0,0,0,-208,-92,-326C698,97,606,-20,442,-20c0,0,-135,0,-215,102l-4,6V-315Z" 
id="f1_2b"
transform="scale(0.001,-0.001)" />

<path d="M142,355l28,137H545L516,355Z" 
id="f2_g"
transform="scale(0.001,-0.001)" />

<path d="M17,0L301,412L32,799H205L389,514L574,799H740L471,410L749,0H581L382,305L186,0Z" 
id="f1_2j"
transform="scale(0.001,-0.001)" />

<path d="M424,92c0,0,98,0,161,58c0,0,62,58,62,149c0,0,0,92,-62,151c0,0,-63,58,-161,58c0,0,-98,0,-160,-58c0,0,-63,-59,-63,-151c0,0,0,-91,63,-149c0,0,62,-58,160,-58Zm0,533c0,0,82,0,134,46c0,0,52,45,52,118c0,0,0,72,-52,118c0,0,-52,46,-134,46c0,0,-82,0,-134,-46c0,0,-52,-46,-52,-118c0,0,0,-73,52,-119c0,0,52,-45,134,-45Zm0,-653c0,0,-165,0,-265,90C159,62,59,154,59,305c0,0,0,134,100,216c0,0,35,28,78,47c0,0,-27,15,-52,33c0,0,-90,70,-90,185c0,0,0,130,90,209c0,0,91,80,239,80c0,0,148,0,238,-80c0,0,91,-79,91,-209c0,0,0,-115,-91,-185c0,0,-24,-19,-52,-32c0,0,44,-20,79,-49c0,0,101,-81,101,-215c0,0,0,-151,-101,-243c0,0,-100,-90,-265,-90Z" 
id="f1_r"
transform="scale(0.001,-0.001)" />

<path d="M99,0V799H226V680l28,36c0,0,90,106,215,106c0,0,107,0,171,-63c0,0,28,-28,44,-65l21,28c0,0,87,100,208,100c0,0,125,0,194,-68c0,0,68,-68,68,-194V0H1041V515c0,0,0,91,-37,138c0,0,-38,47,-110,47c0,0,-87,0,-139,-68c0,0,-52,-68,-52,-183V0H569V547c0,0,0,75,-34,114c0,0,-34,39,-99,39c0,0,-89,0,-146,-76c0,0,-57,-76,-57,-196V0Z" 
id="f1_28"
transform="scale(0.001,-0.001)" />

<path d="M436,95c0,0,105,0,160,79c0,0,54,80,54,232c0,0,0,150,-52,222c0,0,-52,72,-161,72c0,0,-112,0,-163,-81c0,0,-51,-82,-51,-258c0,0,0,-127,55,-197c0,0,55,-69,158,-69Zm6,-115c0,0,-135,0,-215,102L215,98V0H89V1097H223V695c0,0,87,127,225,127c1,0,2,0,2,0c0,0,157,0,249,-108c0,0,91,-107,91,-291c0,0,0,-208,-92,-326C698,97,606,-20,442,-20Z" 
id="f1_1x"
transform="scale(0.001,-0.001)" />

<path d="M118,0L283,800H411L380,652c0,0,35,47,69,81c0,0,92,90,197,90c0,0,20,0,38,-5L653,679H604c0,0,-91,0,-164,-61c0,0,-72,-62,-92,-154L253,0Z" 
id="f2_2d"
transform="scale(0.001,-0.001)" />

<path d="M99,0L326,1097H461L376,685l27,29c0,0,112,109,239,109c0,0,139,0,194,-69c0,0,55,-70,27,-209L750,0H615L724,524c0,0,18,91,-10,134c0,0,-28,43,-106,43c0,0,-117,0,-189,-77c0,0,-72,-77,-105,-238L234,0Z" 
id="f2_23"
transform="scale(0.001,-0.001)" />

<path d="M139,0V1097H287V0Z" 
id="f1_18"
transform="scale(0.001,-0.001)" />

<path d="M140,-21c0,0,-26,0,-44,17C96,-4,79,13,79,40c0,0,0,19,6,33c0,0,8,20,34,55c0,0,46,60,64,126c0,0,32,114,41,321H190c0,0,-55,0,-81,-18c0,0,-44,-26,-80,-89H0c0,0,42,129,98,178c0,0,43,37,120,37H743V575H562c0,0,-27,-171,-27,-327c0,0,0,-77,27,-110c0,0,27,-33,67,-33c0,0,33,0,56,22c0,0,24,22,31,65h27C743,192,730,74,686,26c0,0,-44,-47,-98,-47c0,0,-58,0,-97,51c0,0,-39,53,-39,198c0,0,0,91,28,347H286c0,0,-23,-390,-56,-494c0,0,-33,-102,-90,-102Z" 
id="f3_2c"
transform="scale(0.001,-0.001)" />

<path d="M118,0V1097H267V646H839v451H988V0H839V515H267V0Z" 
id="f1_17"
transform="scale(0.001,-0.001)" />

<path d="M424,92c0,0,114,0,170,107c0,0,57,108,56,323c0,0,1,216,-56,324c0,0,-56,107,-170,107c0,0,-112,0,-168,-107c0,0,-56,-108,-57,-324c0,0,1,-215,57,-323c0,0,56,-107,168,-107Zm0,-120c0,0,-176,0,-271,142c0,0,-96,143,-96,408c0,0,0,265,96,409c0,0,95,144,271,144c0,0,178,0,273,-144c0,0,96,-144,96,-409c0,0,0,-265,-96,-408c0,0,-95,-142,-273,-142Z" 
id="f1_j"
transform="scale(0.001,-0.001)" />

<path d="M419,483c0,0,93,0,152,66c0,0,59,66,59,169c0,0,0,103,-59,169c0,0,-59,65,-152,65c0,0,-94,0,-153,-65c0,0,-59,-66,-59,-169c0,0,0,-103,59,-169c0,0,59,-66,153,-66ZM397,-28c0,0,-143,0,-227,75c0,0,-85,77,-91,211H209c0,0,8,-83,57,-128c0,0,49,-45,131,-45c0,0,121,0,186,135c0,0,48,101,62,265C645,485,545,362,397,362c0,0,-150,0,-241,98c0,0,-91,98,-91,258c0,0,0,160,99,258c0,0,99,98,262,98c0,0,173,0,266,-123c0,0,94,-123,94,-349c0,0,0,-303,-101,-467C685,135,583,-28,397,-28Z" 
id="f1_s"
transform="scale(0.001,-0.001)" />

<path d="M406,93c0,0,97,0,156,73c0,0,59,74,59,195c0,0,0,163,-56,252c0,0,-55,88,-158,88c0,0,-111,0,-162,-72c0,0,-51,-73,-51,-229c0,0,0,-147,55,-227c0,0,55,-80,157,-80ZM621,-315V93l-7,-9C614,84,532,-20,400,-20c0,0,-159,0,-253,118c0,0,-93,119,-93,323c0,0,0,180,90,291c0,0,91,110,237,110c0,0,146,0,231,-124c0,0,10,-14,17,-29V799H755V-315Z" 
id="f1_2c"
transform="scale(0.001,-0.001)" />

<path d="M354,90c0,0,107,0,192,57c0,0,60,41,87,95c0,0,5,12,11,33c0,0,6,20,11,44l18,88c0,0,-62,-26,-132,-37L414,352c0,0,-84,-11,-131,-56c0,0,-47,-45,-47,-113c0,0,0,-44,31,-69c0,0,31,-24,87,-24ZM306,-20c0,0,-99,0,-156,47c0,0,-57,49,-57,134c0,0,1,117,81,198c0,0,80,81,211,98l164,20l70,10c0,0,35,6,59,30c0,0,23,24,31,66l1,2c0,0,13,64,-25,94c0,0,-39,31,-132,31c0,0,-83,0,-137,-37c0,0,-54,-37,-84,-114H210c0,0,46,137,138,201c0,0,92,63,245,63c0,0,149,0,211,-59c0,0,45,-44,44,-116c0,0,1,-30,-6,-63L749,136c0,0,-4,-19,6,-32c0,0,10,-12,30,-12c0,0,6,0,19,1c0,0,12,2,25,5L809,1c0,0,-19,-6,-43,-11c0,0,-22,-5,-36,-5c0,0,-73,0,-100,43c0,0,-16,27,-17,75C612,102,594,85,573,69c0,0,-120,-89,-267,-89Z" 
id="f2_1w"
transform="scale(0.001,-0.001)" />

<path d="M338,28c0,0,48,0,91,45c0,0,43,45,65,144c0,0,22,99,26,276H143c0,0,3,-133,20,-239c0,0,13,-80,44,-140c0,0,19,-36,54,-61c0,0,36,-25,77,-25ZM522,543c0,0,-1,194,-37,312c0,0,-29,90,-76,129c0,0,-34,28,-79,28c0,0,-51,0,-93,-39c0,0,-43,-40,-65,-132c0,0,-22,-93,-29,-298ZM329,-21c0,0,-68,0,-124,31c0,0,-56,33,-99,95c0,0,-43,62,-66,131C40,236,0,356,0,489c0,0,0,294,119,453c0,0,91,119,217,119c0,0,122,0,209,-115c0,0,121,-160,121,-436c0,0,0,-263,-119,-415C547,95,455,-21,329,-21Z" 
id="f3_2d"
transform="scale(0.001,-0.001)" />

<path d="M133,-225v70c0,0,47,8,65,52c0,0,14,35,16,103H133V162H292V27c0,0,0,-116,-36,-173c0,0,-37,-58,-123,-79Zm0,853V790H292V628Z" 
id="f1_u"
transform="scale(0.001,-0.001)" />

<path d="M99,-328c0,0,-46,0,-76,13l25,123c0,0,29,-14,81,-14c0,0,47,0,76,31c0,0,28,31,106,162L185,800H339L415,141L769,800H918L456,0C456,0,329,-216,269,-272c0,0,-61,-56,-170,-56Z" 
id="f2_2k"
transform="scale(0.001,-0.001)" />

<path d="M511,373V863L169,383l-7,-10ZM511,0V258H38V383l496,691H646V373H799V258H646V0Z" 
id="f1_n"
transform="scale(0.001,-0.001)" />

<path d="M133,-224v71c0,0,47,8,65,52c0,0,14,33,17,101H133V163H292V27c0,0,0,-114,-36,-172c0,0,-37,-58,-123,-79Z" 
id="f1_f"
transform="scale(0.001,-0.001)" />

<path d="M67,354V492H442V354Z" 
id="f1_g"
transform="scale(0.001,-0.001)" />

<path d="M103,0V1097H237V465L574,799H745L441,503L765,0H590L342,406L237,303V0Z" 
id="f1_26"
transform="scale(0.001,-0.001)" />

<path d="M0,214v74H784V214ZM0,494v72H784V494Z" 
id="f3_x"
transform="scale(0.001,-0.001)" />

<path d="M456,95c0,0,130,0,213,121c0,0,82,120,82,310c0,0,0,85,-44,131c0,0,-44,46,-125,46c0,0,-98,0,-174,-90c0,0,-76,-90,-108,-245c0,0,-26,-126,16,-199c0,0,42,-74,140,-74ZM436,-20c0,0,-132,0,-195,108l-5,7L217,0H89L316,1097H450L365,683l10,11c0,0,120,129,262,129c0,0,121,0,190,-77c0,0,69,-77,69,-211c0,0,0,-234,-134,-395C762,140,629,-20,436,-20Z" 
id="f2_1x"
transform="scale(0.001,-0.001)" />

<path d="M0,356v74H784V356Z" 
id="f3_h"
transform="scale(0.001,-0.001)" />

<path d="M225,0c0,0,2,129,51,312c0,0,48,183,139,352c0,0,91,170,193,286H72v129H780V975C780,975,676,864,573,680C573,680,470,495,414,301C414,301,374,163,363,0Z" 
id="f4_r"
transform="scale(0.001,-0.001)" />

<path d="M125,0V1051H268V115H799V0Z" 
id="f0_1c"
transform="scale(0.001,-0.001)" />

<path d="M106,0V620c0,0,0,85,-5,188H228c0,0,6,-138,6,-165h3c0,0,32,103,74,141c0,0,42,38,118,38c0,0,27,0,54,-7V692c0,0,-26,7,-71,7c0,0,-84,0,-128,-72c0,0,-44,-72,-44,-206V0Z" 
id="f0_2e"
transform="scale(0.001,-0.001)" />

<path d="M606,-14c0,0,-164,0,-284,65c0,0,-119,66,-182,189c0,0,-63,123,-63,291c0,0,0,255,137,396c0,0,137,140,386,140c0,0,174,0,283,-59c0,0,109,-59,168,-189L915,779c0,0,-44,90,-123,131c0,0,-79,41,-196,41c0,0,-182,0,-278,-110c0,0,-96,-110,-96,-310c0,0,0,-200,102,-315c0,0,102,-115,282,-115c0,0,103,0,193,31c0,0,89,31,144,85V407H629V526h445V164c0,0,-83,-85,-205,-132c0,0,-121,-46,-263,-46Z" 
id="f0_17"
transform="scale(0.001,-0.001)" />

<path d="M355,-14c0,0,-133,0,-194,65c0,0,-62,66,-62,219V808H234V296c0,0,0,-80,16,-124c0,0,16,-44,50,-64c0,0,34,-19,101,-19c0,0,97,0,153,66c0,0,55,67,55,185V808H744V172c0,0,0,-141,4,-172H621c0,0,0,4,-1,20c0,0,-1,17,-2,38c0,0,-1,21,-3,80h-2C613,138,567,55,506,20c0,0,-61,-34,-151,-34Z" 
id="f0_2h"
transform="scale(0.001,-0.001)" />

<path d="M395,89c0,0,115,0,166,79c0,0,51,79,51,246c0,0,0,160,-51,235c0,0,-51,75,-164,75c0,0,-102,0,-147,-75c0,0,-45,-75,-45,-244c0,0,0,-170,45,-243c0,0,45,-73,145,-73ZM361,-14c0,0,-153,0,-225,102c0,0,-72,103,-72,312c0,0,0,422,297,422c0,0,92,0,153,-33c0,0,61,-34,98,-107h2l-2,90v335H747V166c0,0,0,-126,4,-166H623c0,0,-2,12,-5,55c0,0,-3,44,-3,75h-3c0,0,-37,-78,-98,-111c0,0,-62,-33,-153,-33Z" 
id="f0_20"
transform="scale(0.001,-0.001)" />

<path d="M140,0V163H285V0Z" 
id="f0_i"
transform="scale(0.001,-0.001)" />


</defs>
</svg>