<?xml version="1.0" encoding="UTF-8" standalone="no"?>
<!DOCTYPE svg PUBLIC "-//W3C//DTD SVG 1.1//EN"
"http://www.w3.org/Graphics/SVG/1.1/DTD/svg11.dtd">
<svg viewBox="0 0 725 1102" version="1.1" xmlns="http://www.w3.org/2000/svg" xmlns:xlink="http://www.w3.org/1999/xlink">
<defs>
<style type="text/css"><![CDATA[
.g0_5{
fill: none;
stroke: #000000;
stroke-width: 1.0523639;
stroke-linecap: round;
stroke-linejoin: miter;
}
.g1_5{
fill: none;
stroke: #000000;
stroke-width: 0.7594889;
stroke-linecap: round;
stroke-linejoin: miter;
}
.g2_5{
fill: none;
stroke: #000000;
stroke-width: 0.15277778;
stroke-linecap: round;
stroke-linejoin: miter;
}
.g3_5{
}
.g4_5{
fill: none;
stroke: #000000;
stroke-width: 0.7609555;
stroke-linecap: round;
stroke-linejoin: miter;
}
.g5_5{
fill: none;
stroke: #000000;
stroke-width: 0.7629111;
stroke-linecap: round;
stroke-linejoin: miter;
}
.g6_5{
fill: none;
stroke: #000000;
stroke-width: 0.7653555;
stroke-linecap: round;
stroke-linejoin: miter;
}
]]></style>
</defs>
<g fill="#D4D4D4" fill-opacity="0.56" >
<use xlink:href="#f0_1f" transform="matrix(50.9,-50.9,50.9,50.9,113.7,924.1)" />
<use xlink:href="#f0_2a" transform="matrix(50.9,-50.9,50.9,50.9,174.2,863.6)" />
<use xlink:href="#f0_28" transform="matrix(50.9,-50.9,50.9,50.9,217.4,820.3)" />
<use xlink:href="#f0_25" transform="matrix(50.9,-50.9,50.9,50.9,234.7,803.1)" />
<use xlink:href="#f0_2a" transform="matrix(50.9,-50.9,50.9,50.9,252,785.8)" />
<use xlink:href="#f0_21" transform="matrix(50.9,-50.9,50.9,50.9,295.2,742.5)" />
<use xlink:href="#f0_2k" transform="matrix(50.9,-50.9,50.9,50.9,338.4,699.3)" />
<use xlink:href="#f0_1x" transform="matrix(50.9,-50.9,50.9,50.9,377.3,660.4)" />
<use xlink:href="#f0_29" transform="matrix(50.9,-50.9,50.9,50.9,420.6,617.2)" />
<use xlink:href="#f0_2c" transform="matrix(50.9,-50.9,50.9,50.9,485.4,552.4)" />
<use xlink:href="#f0_2b" transform="matrix(50.9,-50.9,50.9,50.9,528.6,509.1)" />
<use xlink:href="#f0_25" transform="matrix(50.9,-50.9,50.9,50.9,571.9,465.9)" />
<use xlink:href="#f0_2a" transform="matrix(50.9,-50.9,50.9,50.9,589.1,448.6)" />
<use xlink:href="#f0_2g" transform="matrix(50.9,-50.9,50.9,50.9,632.4,405.4)" />
</g>
<g fill="#000000" >
<use xlink:href="#f1_b" transform="matrix(10.4,0,0,10.4,132,113.4)" />
<use xlink:href="#f1_24" transform="matrix(10.4,0,0,10.4,137.3,113.4)" />
<use xlink:href="#f1_24" transform="matrix(10.4,0,0,10.4,140.8,113.4)" />
<use xlink:href="#f1_c" transform="matrix(10.4,0,0,10.4,144.4,113.4)" />
<use xlink:href="#f1_14" transform="matrix(10.4,0,0,10.4,168.1,113.4)" />
<use xlink:href="#f1_2h" transform="matrix(10.4,0,0,10.4,178.7,113.4)" />
<use xlink:href="#f1_20" transform="matrix(10.4,0,0,10.4,186.7,113.4)" />
<use xlink:href="#f1_2d" transform="matrix(10.4,0,0,10.4,195.6,113.4)" />
<use xlink:href="#f1_2k" transform="matrix(10.4,0,0,10.4,200.9,113.4)" />
<use xlink:href="#f1_29" transform="matrix(10.4,0,0,10.4,216,113.4)" />
<use xlink:href="#f1_2a" transform="matrix(10.4,0,0,10.4,224.9,113.4)" />
<use xlink:href="#f1_29" transform="matrix(10.4,0,0,10.4,233.7,113.4)" />
<use xlink:href="#f1_2l" transform="matrix(10.4,0,0,10.4,249.7,113.4)" />
<use xlink:href="#f1_20" transform="matrix(10.4,0,0,10.4,257.7,113.4)" />
<use xlink:href="#f1_2d" transform="matrix(10.4,0,0,10.4,266.6,113.4)" />
<use xlink:href="#f1_2a" transform="matrix(10.4,0,0,10.4,271.9,113.4)" />
<use xlink:href="#f1_20" transform="matrix(10.4,0,0,10.4,287.9,113.4)" />
<use xlink:href="#f1_27" transform="matrix(10.4,0,0,10.4,296.8,113.4)" />
<use xlink:href="#f1_20" transform="matrix(10.4,0,0,10.4,300.3,113.4)" />
<use xlink:href="#f1_28" transform="matrix(10.4,0,0,10.4,309.2,113.4)" />
<use xlink:href="#f1_20" transform="matrix(10.4,0,0,10.4,322.5,113.4)" />
<use xlink:href="#f1_29" transform="matrix(10.4,0,0,10.4,331.3,113.4)" />
<use xlink:href="#f1_2f" transform="matrix(10.4,0,0,10.4,340.2,113.4)" />
<use xlink:href="#f1_2a" transform="matrix(10.4,0,0,10.4,351.8,113.4)" />
<use xlink:href="#f1_21" transform="matrix(10.4,0,0,10.4,360.7,113.4)" />
<use xlink:href="#f1_1g" transform="matrix(10.4,0,0,10.4,372.2,113.4)" />
<use xlink:href="#f1_24" transform="matrix(10.4,0,0,10.4,391.8,113.4)" />
<use xlink:href="#f1_2e" transform="matrix(10.4,0,0,10.4,395.3,113.4)" />
<use xlink:href="#f1_24" transform="matrix(10.4,0,0,10.4,410.5,113.4)" />
<use xlink:href="#f1_29" transform="matrix(10.4,0,0,10.4,414,113.4)" />
<use xlink:href="#f1_2h" transform="matrix(10.4,0,0,10.4,422.9,113.4)" />
<use xlink:href="#f1_20" transform="matrix(10.4,0,0,10.4,430.8,113.4)" />
<use xlink:href="#f1_2d" transform="matrix(10.4,0,0,10.4,439.7,113.4)" />
<use xlink:href="#f1_2f" transform="matrix(10.4,0,0,10.4,445,113.4)" />
<use xlink:href="#f1_24" transform="matrix(10.4,0,0,10.4,449.5,113.4)" />
<use xlink:href="#f1_1x" transform="matrix(10.4,0,0,10.4,453,113.4)" />
<use xlink:href="#f1_27" transform="matrix(10.4,0,0,10.4,461.9,113.4)" />
<use xlink:href="#f1_20" transform="matrix(10.4,0,0,10.4,465.4,113.4)" />
<use xlink:href="#f1_2i" transform="matrix(10.4,0,0,10.4,481.4,113.4)" />
<use xlink:href="#f1_24" transform="matrix(10.4,0,0,10.4,492.9,113.4)" />
<use xlink:href="#f1_2f" transform="matrix(10.4,0,0,10.4,496.5,113.4)" />
<use xlink:href="#f1_23" transform="matrix(10.4,0,0,10.4,500.9,113.4)" />
</g>
<path d="M218.5,154.2h18.9" class="g0_5" />
<g fill="#000000" >
<use xlink:href="#f2_2n" transform="matrix(10.4,0,0,11.9,337.9,156.8)" />
<use xlink:href="#f2_2p" transform="matrix(10.4,0,0,11.9,355.8,156.8)" />
<use xlink:href="#f1_k" transform="matrix(7.3,0,0,7.3,186.1,151.3)" />
<use xlink:href="#f1_k" transform="matrix(10.4,0,0,10.4,218.5,148.1)" />
<use xlink:href="#f1_p" transform="matrix(10.4,0,0,10.4,227.5,148.1)" />
<use xlink:href="#f1_f" transform="matrix(10.4,0,0,10.4,241,158.4)" />
<use xlink:href="#f1_j" transform="matrix(10.4,0,0,10.4,346,158.4)" />
<use xlink:href="#f1_h" transform="matrix(10.4,0,0,10.4,366,158.4)" />
<use xlink:href="#f2_h" transform="matrix(7.3,0,0,7.3,180.1,151.3)" />
<use xlink:href="#f2_x" transform="matrix(10.4,0,0,10.4,200.9,158.4)" />
<use xlink:href="#f2_40" transform="matrix(10.4,0,0,10.4,286.4,158.4)" />
<use xlink:href="#f2_h" transform="matrix(10.4,0,0,10.4,322.7,158.4)" />
<use xlink:href="#f3_1w" transform="matrix(10.4,0,0,10.4,170.1,158.4)" />
<use xlink:href="#f3_1w" transform="matrix(10.4,0,0,10.4,269.1,158.4)" />
<use xlink:href="#f3_1g" transform="matrix(10.4,0,0,10.4,302.1,158.4)" />
<use xlink:href="#f3_1w" transform="matrix(10.4,0,0,10.4,223,170.6)" />
<use xlink:href="#f1_m" transform="matrix(10.4,0,0,10.4,72.4,215.2)" />
<use xlink:href="#f1_k" transform="matrix(10.4,0,0,10.4,81.2,215.2)" />
<use xlink:href="#f1_h" transform="matrix(10.4,0,0,10.4,90.4,215.2)" />
<use xlink:href="#f1_1i" transform="matrix(10.4,0,0,10.4,113.1,215.2)" />
<use xlink:href="#f1_23" transform="matrix(10.4,0,0,10.4,123.7,215.2)" />
<use xlink:href="#f1_2a" transform="matrix(10.4,0,0,10.4,132.6,215.2)" />
<use xlink:href="#f1_2i" transform="matrix(10.4,0,0,10.4,141.5,215.2)" />
<use xlink:href="#f1_2f" transform="matrix(10.4,0,0,10.4,158.8,215.2)" />
<use xlink:href="#f1_23" transform="matrix(10.4,0,0,10.4,163.3,215.2)" />
<use xlink:href="#f1_1w" transform="matrix(10.4,0,0,10.4,172.1,215.2)" />
<use xlink:href="#f1_2f" transform="matrix(10.4,0,0,10.4,181,215.2)" />
<use xlink:href="#f3_21" transform="matrix(10.4,0,0,10.4,191.2,215.2)" />
<use xlink:href="#f1_t" transform="matrix(10.4,0,0,10.4,201.6,215.2)" />
<use xlink:href="#f3_1h" transform="matrix(10.4,0,0,10.4,212.1,215.2)" />
<use xlink:href="#f1_e" transform="matrix(7.4,0,0,7.4,223.6,220.5)" />
<use xlink:href="#f2_34" transform="matrix(10.4,0,0,10.4,236.3,215.2)" />
<use xlink:href="#f3_1h" transform="matrix(10.4,0,0,10.4,258.1,215.2)" />
<use xlink:href="#f1_e" transform="matrix(7.4,0,0,7.4,269.6,220.5)" />
<use xlink:href="#f1_1z" transform="matrix(10.4,0,0,10.4,282.3,215.2)" />
<use xlink:href="#f1_20" transform="matrix(10.4,0,0,10.4,291.2,215.2)" />
<use xlink:href="#f1_21" transform="matrix(10.4,0,0,10.4,300,215.2)" />
<use xlink:href="#f1_24" transform="matrix(10.4,0,0,10.4,304.5,215.2)" />
<use xlink:href="#f1_29" transform="matrix(10.4,0,0,10.4,308,215.2)" />
<use xlink:href="#f1_20" transform="matrix(10.4,0,0,10.4,316.9,215.2)" />
<use xlink:href="#f1_1z" transform="matrix(10.4,0,0,10.4,325.7,215.2)" />
<use xlink:href="#f1_1x" transform="matrix(10.4,0,0,10.4,340.5,215.2)" />
<use xlink:href="#f1_2k" transform="matrix(10.4,0,0,10.4,349.3,215.2)" />
<use xlink:href="#f2_c" transform="matrix(10.4,0,0,11.3,373.2,213.5)" />
<use xlink:href="#f2_d" transform="matrix(10.4,0,0,11.3,389.6,213.4)" />
</g>
<path d="M412.7,211.4h20.4" class="g1_5" />
<g fill="#000000" >
<use xlink:href="#f2_x" transform="matrix(10.4,0,0,10.4,398.9,215.6)" />
<use xlink:href="#f1_k" transform="matrix(10.4,0,0,10.4,419.2,205.3)" />
<use xlink:href="#f1_l" transform="matrix(10.4,0,0,10.4,413.5,227.8)" />
<use xlink:href="#f3_21" transform="matrix(10.4,0,0,10.4,364.7,215.6)" />
<use xlink:href="#f3_2j" transform="matrix(10.4,0,0,10.4,379.2,215.6)" />
<use xlink:href="#f3_2j" transform="matrix(10.4,0,0,10.4,422.5,227.8)" />
<use xlink:href="#f1_24" transform="matrix(10.4,0,0,10.4,443.4,215.2)" />
<use xlink:href="#f1_2e" transform="matrix(10.4,0,0,10.4,447,215.2)" />
<use xlink:href="#f1_1x" transform="matrix(10.4,0,0,10.4,461,215.2)" />
<use xlink:href="#f1_24" transform="matrix(10.4,0,0,10.4,469.9,215.2)" />
<use xlink:href="#f1_25" transform="matrix(10.4,0,0,10.4,473.4,215.2)" />
<use xlink:href="#f1_20" transform="matrix(10.4,0,0,10.4,477,215.2)" />
<use xlink:href="#f1_1y" transform="matrix(10.4,0,0,10.4,485.8,215.2)" />
<use xlink:href="#f1_2f" transform="matrix(10.4,0,0,10.4,493.8,215.2)" />
<use xlink:href="#f1_24" transform="matrix(10.4,0,0,10.4,498.2,215.2)" />
<use xlink:href="#f1_2h" transform="matrix(10.4,0,0,10.4,501.8,215.2)" />
<use xlink:href="#f1_20" transform="matrix(10.4,0,0,10.4,509.7,215.2)" />
<use xlink:href="#f1_2i" transform="matrix(10.4,0,0,10.4,524.7,215.2)" />
<use xlink:href="#f1_23" transform="matrix(10.4,0,0,10.4,536.2,215.2)" />
<use xlink:href="#f1_20" transform="matrix(10.4,0,0,10.4,545,215.2)" />
<use xlink:href="#f1_2d" transform="matrix(10.4,0,0,10.4,553.9,215.2)" />
<use xlink:href="#f1_20" transform="matrix(10.4,0,0,10.4,559.2,215.2)" />
<use xlink:href="#f3_1h" transform="matrix(10.4,0,0,10.4,573.8,215.2)" />
<use xlink:href="#f1_e" transform="matrix(7.4,0,0,7.4,585.3,220.5)" />
<use xlink:href="#f1_24" transform="matrix(10.4,0,0,10.4,598,215.2)" />
<use xlink:href="#f1_2e" transform="matrix(10.4,0,0,10.4,601.5,215.2)" />
<use xlink:href="#f1_2f" transform="matrix(10.4,0,0,10.4,615.6,215.2)" />
<use xlink:href="#f1_23" transform="matrix(10.4,0,0,10.4,620,215.2)" />
<use xlink:href="#f1_20" transform="matrix(10.4,0,0,10.4,628.9,215.2)" />
<use xlink:href="#f1_2e" transform="matrix(10.4,0,0,10.4,113.1,242.1)" />
<use xlink:href="#f1_20" transform="matrix(10.4,0,0,10.4,121.1,242.1)" />
<use xlink:href="#f1_2f" transform="matrix(10.4,0,0,10.4,129.9,242.1)" />
<use xlink:href="#f1_2a" transform="matrix(10.4,0,0,10.4,141.7,242.1)" />
<use xlink:href="#f1_21" transform="matrix(10.4,0,0,10.4,150.6,242.1)" />
<use xlink:href="#f1_1w" transform="matrix(10.4,0,0,10.4,162.3,242.1)" />
<use xlink:href="#f1_27" transform="matrix(10.4,0,0,10.4,171.2,242.1)" />
<use xlink:href="#f1_27" transform="matrix(10.4,0,0,10.4,174.7,242.1)" />
<use xlink:href="#f1_29" transform="matrix(10.4,0,0,10.4,185.6,242.1)" />
<use xlink:href="#f1_2a" transform="matrix(10.4,0,0,10.4,194.5,242.1)" />
<use xlink:href="#f1_29" transform="matrix(10.4,0,0,10.4,203.4,242.1)" />
<use xlink:href="#f1_g" transform="matrix(10.4,0,0,10.4,212.2,242.1)" />
<use xlink:href="#f1_2l" transform="matrix(10.4,0,0,10.4,217.5,242.1)" />
<use xlink:href="#f1_20" transform="matrix(10.4,0,0,10.4,225.5,242.1)" />
<use xlink:href="#f1_2d" transform="matrix(10.4,0,0,10.4,234.4,242.1)" />
<use xlink:href="#f1_2a" transform="matrix(10.4,0,0,10.4,239.7,242.1)" />
<use xlink:href="#f1_2b" transform="matrix(10.4,0,0,10.4,256.1,242.1)" />
<use xlink:href="#f1_2a" transform="matrix(10.4,0,0,10.4,264.9,242.1)" />
<use xlink:href="#f1_2e" transform="matrix(10.4,0,0,10.4,273.8,242.1)" />
<use xlink:href="#f1_24" transform="matrix(10.4,0,0,10.4,281.8,242.1)" />
<use xlink:href="#f1_2f" transform="matrix(10.4,0,0,10.4,285.3,242.1)" />
<use xlink:href="#f1_24" transform="matrix(10.4,0,0,10.4,289.8,242.1)" />
<use xlink:href="#f1_2h" transform="matrix(10.4,0,0,10.4,293.3,242.1)" />
<use xlink:href="#f1_20" transform="matrix(10.4,0,0,10.4,301.3,242.1)" />
<use xlink:href="#f1_2d" transform="matrix(10.4,0,0,10.4,317.5,242.1)" />
<use xlink:href="#f1_20" transform="matrix(10.4,0,0,10.4,322.8,242.1)" />
<use xlink:href="#f1_1w" transform="matrix(10.4,0,0,10.4,331.7,242.1)" />
<use xlink:href="#f1_27" transform="matrix(10.4,0,0,10.4,340.5,242.1)" />
<use xlink:href="#f1_29" transform="matrix(10.4,0,0,10.4,351.4,242.1)" />
<use xlink:href="#f1_2g" transform="matrix(10.4,0,0,10.4,360.3,242.1)" />
<use xlink:href="#f1_28" transform="matrix(10.4,0,0,10.4,369.1,242.1)" />
<use xlink:href="#f1_1x" transform="matrix(10.4,0,0,10.4,382.4,242.1)" />
<use xlink:href="#f1_20" transform="matrix(10.4,0,0,10.4,391.3,242.1)" />
<use xlink:href="#f1_2d" transform="matrix(10.4,0,0,10.4,400.2,242.1)" />
<use xlink:href="#f1_2e" transform="matrix(10.4,0,0,10.4,405.5,242.1)" />
<use xlink:href="#f1_h" transform="matrix(10.4,0,0,10.4,413.5,242.1)" />
<use xlink:href="#f1_m" transform="matrix(10.4,0,0,10.4,72.4,276)" />
<use xlink:href="#f1_l" transform="matrix(10.4,0,0,10.4,81.2,276)" />
<use xlink:href="#f1_h" transform="matrix(10.4,0,0,10.4,90.4,276)" />
<use xlink:href="#f1_12" transform="matrix(10.4,0,0,10.4,113.1,276)" />
<use xlink:href="#f1_2a" transform="matrix(10.4,0,0,10.4,124.6,276)" />
<use xlink:href="#f1_29" transform="matrix(10.4,0,0,10.4,133.5,276)" />
<use xlink:href="#f1_2e" transform="matrix(10.4,0,0,10.4,142.3,276)" />
<use xlink:href="#f1_24" transform="matrix(10.4,0,0,10.4,150.3,276)" />
<use xlink:href="#f1_1z" transform="matrix(10.4,0,0,10.4,153.8,276)" />
<use xlink:href="#f1_20" transform="matrix(10.4,0,0,10.4,162.7,276)" />
<use xlink:href="#f1_2d" transform="matrix(10.4,0,0,10.4,171.6,276)" />
<use xlink:href="#f3_21" transform="matrix(10.4,0,0,10.4,184,276)" />
<use xlink:href="#f1_t" transform="matrix(10.4,0,0,10.4,195.8,276)" />
<use xlink:href="#f3_1h" transform="matrix(10.4,0,0,10.4,207.7,276)" />
<use xlink:href="#f1_e" transform="matrix(7.4,0,0,7.4,219.2,281.4)" />
<use xlink:href="#f2_34" transform="matrix(10.4,0,0,10.4,233.3,276)" />
<use xlink:href="#f1_1q" transform="matrix(10.4,0,0,10.4,256.5,276)" />
<use xlink:href="#f1_99" transform="matrix(10.4,0,0,10.4,260.9,276)" />
<use xlink:href="#f1_o" transform="matrix(10.4,0,0,10.4,269.8,276)" />
<use xlink:href="#f1_f" transform="matrix(10.4,0,0,10.4,278.6,276)" />
<use xlink:href="#f2_2v" transform="matrix(10.4,0,0,10.4,290.4,276)" />
<use xlink:href="#f1_c" transform="matrix(10.4,0,0,10.4,301.7,276)" />
<use xlink:href="#f1_22" transform="matrix(10.4,0,0,10.4,314.6,276)" />
<use xlink:href="#f1_24" transform="matrix(10.4,0,0,10.4,323.4,276)" />
<use xlink:href="#f1_2h" transform="matrix(10.4,0,0,10.4,327,276)" />
<use xlink:href="#f1_20" transform="matrix(10.4,0,0,10.4,334.9,276)" />
<use xlink:href="#f1_29" transform="matrix(10.4,0,0,10.4,343.8,276)" />
<use xlink:href="#f1_1x" transform="matrix(10.4,0,0,10.4,360,276)" />
<use xlink:href="#f1_2k" transform="matrix(10.4,0,0,10.4,368.9,276)" />
<use xlink:href="#f3_21" transform="matrix(10.4,0,0,10.4,384.2,276)" />
<use xlink:href="#f1_b" transform="matrix(10.4,0,0,10.4,388.6,276)" />
<use xlink:href="#f3_2j" transform="matrix(10.4,0,0,10.4,393.9,276)" />
<use xlink:href="#f1_c" transform="matrix(10.4,0,0,10.4,402,276)" />
<use xlink:href="#f1_w" transform="matrix(10.4,0,0,10.4,414.7,276)" />
<use xlink:href="#f1_s" transform="matrix(10.4,0,0,10.4,431.5,276)" />
<use xlink:href="#f3_2j" transform="matrix(10.4,0,0,10.4,440.3,276)" />
<use xlink:href="#f1_l" transform="matrix(7.4,0,0,7.4,448.4,270.7)" />
<use xlink:href="#f1_e" transform="matrix(10.4,0,0,10.4,462,276)" />
<use xlink:href="#f1_p" transform="matrix(10.4,0,0,10.4,478.8,276)" />
<use xlink:href="#f3_2j" transform="matrix(10.4,0,0,10.4,487.6,276)" />
<use xlink:href="#f1_99" transform="matrix(10.4,0,0,10.4,503.2,276)" />
<use xlink:href="#f1_o" transform="matrix(10.4,0,0,10.4,519.4,276)" />
<use xlink:href="#f1_2e" transform="matrix(10.4,0,0,10.4,535.8,276)" />
<use xlink:href="#f1_23" transform="matrix(10.4,0,0,10.4,543.8,276)" />
<use xlink:href="#f1_2a" transform="matrix(10.4,0,0,10.4,552.6,276)" />
<use xlink:href="#f1_2i" transform="matrix(10.4,0,0,10.4,561.5,276)" />
<use xlink:href="#f1_2f" transform="matrix(10.4,0,0,10.4,580.4,276)" />
<use xlink:href="#f1_23" transform="matrix(10.4,0,0,10.4,584.8,276)" />
<use xlink:href="#f1_1w" transform="matrix(10.4,0,0,10.4,593.7,276)" />
<use xlink:href="#f1_2f" transform="matrix(10.4,0,0,10.4,602.5,276)" />
<use xlink:href="#f3_21" transform="matrix(10.4,0,0,10.4,614.1,276)" />
<use xlink:href="#f1_24" transform="matrix(10.4,0,0,10.4,626,276)" />
<use xlink:href="#f1_2e" transform="matrix(10.4,0,0,10.4,629.6,276)" />
<use xlink:href="#f1_24" transform="matrix(10.4,0,0,10.4,113.1,312.9)" />
<use xlink:href="#f1_29" transform="matrix(10.4,0,0,10.4,116.6,312.9)" />
<use xlink:href="#f1_2h" transform="matrix(10.4,0,0,10.4,125.5,312.9)" />
<use xlink:href="#f1_20" transform="matrix(10.4,0,0,10.4,133.5,312.9)" />
<use xlink:href="#f1_2d" transform="matrix(10.4,0,0,10.4,142.3,312.9)" />
<use xlink:href="#f1_2f" transform="matrix(10.4,0,0,10.4,147.6,312.9)" />
<use xlink:href="#f1_24" transform="matrix(10.4,0,0,10.4,152.1,312.9)" />
<use xlink:href="#f1_1x" transform="matrix(10.4,0,0,10.4,155.6,312.9)" />
<use xlink:href="#f1_27" transform="matrix(10.4,0,0,10.4,164.5,312.9)" />
<use xlink:href="#f1_20" transform="matrix(10.4,0,0,10.4,168,312.9)" />
<use xlink:href="#f1_2i" transform="matrix(10.4,0,0,10.4,184.2,312.9)" />
<use xlink:href="#f1_24" transform="matrix(10.4,0,0,10.4,195.7,312.9)" />
<use xlink:href="#f1_2f" transform="matrix(10.4,0,0,10.4,199.3,312.9)" />
<use xlink:href="#f1_23" transform="matrix(10.4,0,0,10.4,203.7,312.9)" />
</g>
<path d="M259.9,297.5l1.7,-.9l3.9,6.4l4.2,-17h35.4" class="g2_5" />
<path fill-rule="evenodd" d="M259.8,297.3l2.1,-1.2l3.6,5.3l3.9,-15.7h35.7v.7H270L265.8,303h-.7l-3.9,-5.9l-1.1,.6l-.3,-.4Z" class="g3_5" />
<path d="M258.6,307.6h68.2" class="g4_5" />
<g fill="#000000" >
<use xlink:href="#f1_k" transform="matrix(7,0,0,6.9,234.6,304.7)" />
<use xlink:href="#f1_p" transform="matrix(10.4,0,0,10.4,295.5,301.5)" />
<use xlink:href="#f1_k" transform="matrix(10.4,0,0,10.4,319.7,301.5)" />
<use xlink:href="#f1_m" transform="matrix(10.4,0,0,10.4,288.3,324.1)" />
<use xlink:href="#f3_2j" transform="matrix(10.4,0,0,10.4,270.4,301.5)" />
<use xlink:href="#f3_21" transform="matrix(10.4,0,0,10.4,221,311.8)" />
<use xlink:href="#f2_h" transform="matrix(7,0,0,6.9,228.8,304.7)" />
<use xlink:href="#f2_f" transform="matrix(10.4,0,0,10.4,283.3,301.5)" />
<use xlink:href="#f2_h" transform="matrix(10.4,0,0,10.4,308.7,301.5)" />
<use xlink:href="#f2_x" transform="matrix(10.4,0,0,10.4,244.9,311.8)" />
<use xlink:href="#f1_h" transform="matrix(10.4,0,0,10.4,330.5,312.9)" />
<use xlink:href="#f1_m" transform="matrix(10.4,0,0,10.4,72.4,355.1)" />
<use xlink:href="#f1_m" transform="matrix(10.4,0,0,10.4,81.2,355.1)" />
<use xlink:href="#f1_h" transform="matrix(10.4,0,0,10.4,90.4,355.1)" />
<use xlink:href="#f1_18" transform="matrix(10.4,0,0,10.4,113.1,355.1)" />
<use xlink:href="#f1_21" transform="matrix(10.4,0,0,10.4,117.5,355.1)" />
<use xlink:href="#f1_9b" transform="matrix(10.4,0,0,10.4,127.6,355.1)" />
<use xlink:href="#f4_d" transform="matrix(10.4,0,0,10.4,131,355.1)" />
<use xlink:href="#f1_9c" transform="matrix(10.4,0,0,10.4,137.3,355.1)" />
<use xlink:href="#f1_24" transform="matrix(10.4,0,0,10.4,146.5,355.1)" />
<use xlink:href="#f1_2e" transform="matrix(10.4,0,0,10.4,150,355.1)" />
<use xlink:href="#f1_1w" transform="matrix(10.4,0,0,10.4,163.9,355.1)" />
<use xlink:href="#f1_1x" transform="matrix(10.4,0,0,10.4,178.4,355.1)" />
<use xlink:href="#f1_24" transform="matrix(10.4,0,0,10.4,187.3,355.1)" />
<use xlink:href="#f1_29" transform="matrix(10.4,0,0,10.4,190.8,355.1)" />
<use xlink:href="#f1_1w" transform="matrix(10.4,0,0,10.4,199.7,355.1)" />
<use xlink:href="#f1_2d" transform="matrix(10.4,0,0,10.4,208.6,355.1)" />
<use xlink:href="#f1_2k" transform="matrix(10.4,0,0,10.4,213.9,355.1)" />
<use xlink:href="#f1_2a" transform="matrix(10.4,0,0,10.4,227.7,355.1)" />
<use xlink:href="#f1_2b" transform="matrix(10.4,0,0,10.4,236.6,355.1)" />
<use xlink:href="#f1_20" transform="matrix(10.4,0,0,10.4,245.5,355.1)" />
<use xlink:href="#f1_2d" transform="matrix(10.4,0,0,10.4,254.3,355.1)" />
<use xlink:href="#f1_1w" transform="matrix(10.4,0,0,10.4,259.6,355.1)" />
<use xlink:href="#f1_2f" transform="matrix(10.4,0,0,10.4,268.5,355.1)" />
<use xlink:href="#f1_24" transform="matrix(10.4,0,0,10.4,273,355.1)" />
<use xlink:href="#f1_2a" transform="matrix(10.4,0,0,10.4,276.5,355.1)" />
<use xlink:href="#f1_29" transform="matrix(10.4,0,0,10.4,285.4,355.1)" />
<use xlink:href="#f1_2a" transform="matrix(10.4,0,0,10.4,299.9,355.1)" />
<use xlink:href="#f1_29" transform="matrix(10.4,0,0,10.4,308.8,355.1)" />
<use xlink:href="#f3_1h" transform="matrix(10.4,0,0,10.4,322.6,355.1)" />
<use xlink:href="#f1_1z" transform="matrix(10.4,0,0,10.4,340,355.1)" />
<use xlink:href="#f1_20" transform="matrix(10.4,0,0,10.4,348.9,355.1)" />
<use xlink:href="#f1_21" transform="matrix(10.4,0,0,10.4,357.8,355.1)" />
<use xlink:href="#f1_24" transform="matrix(10.4,0,0,10.4,362.2,355.1)" />
<use xlink:href="#f1_29" transform="matrix(10.4,0,0,10.4,365.8,355.1)" />
<use xlink:href="#f1_20" transform="matrix(10.4,0,0,10.4,374.6,355.1)" />
<use xlink:href="#f1_1z" transform="matrix(10.4,0,0,10.4,383.5,355.1)" />
<use xlink:href="#f1_1x" transform="matrix(10.4,0,0,10.4,398,355.1)" />
<use xlink:href="#f1_2k" transform="matrix(10.4,0,0,10.4,406.9,355.1)" />
<use xlink:href="#f3_1w" transform="matrix(10.4,0,0,10.4,420.3,355.1)" />
<use xlink:href="#f3_d" transform="matrix(10.4,0,0,10.4,434.9,355.1)" />
<use xlink:href="#f3_1x" transform="matrix(10.4,0,0,10.4,447,355.1)" />
<use xlink:href="#f3_w" transform="matrix(10.4,0,0,10.4,461.5,355.1)" />
<use xlink:href="#f3_1w" transform="matrix(10.4,0,0,10.4,476.7,355.1)" />
<use xlink:href="#f3_e" transform="matrix(10.4,0,0,10.4,491.2,355.1)" />
<use xlink:href="#f3_1x" transform="matrix(10.4,0,0,10.4,506.4,355.1)" />
<use xlink:href="#f3_e" transform="matrix(10.4,0,0,10.4,521,355.1)" />
<use xlink:href="#f3_1w" transform="matrix(10.4,0,0,10.4,536.2,355.1)" />
<use xlink:href="#f3_1x" transform="matrix(10.4,0,0,10.4,545,355.1)" />
<use xlink:href="#f3_h" transform="matrix(10.4,0,0,10.4,553.9,355.1)" />
<use xlink:href="#f1_1f" transform="matrix(10.4,0,0,10.4,563.7,355.1)" />
<use xlink:href="#f1_2d" transform="matrix(10.4,0,0,10.4,574.4,355.1)" />
<use xlink:href="#f1_2a" transform="matrix(10.4,0,0,10.4,579.7,355.1)" />
<use xlink:href="#f1_2h" transform="matrix(10.4,0,0,10.4,588.5,355.1)" />
<use xlink:href="#f1_20" transform="matrix(10.4,0,0,10.4,596.5,355.1)" />
<use xlink:href="#f1_2f" transform="matrix(10.4,0,0,10.4,611.2,355.1)" />
<use xlink:href="#f1_23" transform="matrix(10.4,0,0,10.4,615.7,355.1)" />
<use xlink:href="#f1_1w" transform="matrix(10.4,0,0,10.4,624.5,355.1)" />
<use xlink:href="#f1_2f" transform="matrix(10.4,0,0,10.4,633.4,355.1)" />
<use xlink:href="#f4_d" transform="matrix(10.4,0,0,10.4,113.1,375.2)" />
<use xlink:href="#f1_24" transform="matrix(10.4,0,0,10.4,126.8,375.2)" />
<use xlink:href="#f1_2e" transform="matrix(10.4,0,0,10.4,130.4,375.2)" />
<use xlink:href="#f1_1y" transform="matrix(10.4,0,0,10.4,145.9,375.2)" />
<use xlink:href="#f1_2a" transform="matrix(10.4,0,0,10.4,153.8,375.2)" />
<use xlink:href="#f1_28" transform="matrix(10.4,0,0,10.4,162.7,375.2)" />
<use xlink:href="#f1_28" transform="matrix(10.4,0,0,10.4,176,375.2)" />
<use xlink:href="#f1_2g" transform="matrix(10.4,0,0,10.4,189.3,375.2)" />
<use xlink:href="#f1_2f" transform="matrix(10.4,0,0,10.4,198.1,375.2)" />
<use xlink:href="#f1_1w" transform="matrix(10.4,0,0,10.4,202.6,375.2)" />
<use xlink:href="#f1_2f" transform="matrix(10.4,0,0,10.4,211.4,375.2)" />
<use xlink:href="#f1_24" transform="matrix(10.4,0,0,10.4,215.9,375.2)" />
<use xlink:href="#f1_2h" transform="matrix(10.4,0,0,10.4,219.4,375.2)" />
<use xlink:href="#f1_20" transform="matrix(10.4,0,0,10.4,227.4,375.2)" />
<use xlink:href="#f1_1w" transform="matrix(10.4,0,0,10.4,243.8,375.2)" />
<use xlink:href="#f1_29" transform="matrix(10.4,0,0,10.4,252.6,375.2)" />
<use xlink:href="#f1_1z" transform="matrix(10.4,0,0,10.4,261.5,375.2)" />
<use xlink:href="#f1_1w" transform="matrix(10.4,0,0,10.4,277.9,375.2)" />
<use xlink:href="#f1_2e" transform="matrix(10.4,0,0,10.4,286.8,375.2)" />
<use xlink:href="#f1_2e" transform="matrix(10.4,0,0,10.4,294.7,375.2)" />
<use xlink:href="#f1_2a" transform="matrix(10.4,0,0,10.4,302.7,375.2)" />
<use xlink:href="#f1_1y" transform="matrix(10.4,0,0,10.4,311.6,375.2)" />
<use xlink:href="#f1_24" transform="matrix(10.4,0,0,10.4,319.6,375.2)" />
<use xlink:href="#f1_1w" transform="matrix(10.4,0,0,10.4,323.1,375.2)" />
<use xlink:href="#f1_2f" transform="matrix(10.4,0,0,10.4,332,375.2)" />
<use xlink:href="#f1_24" transform="matrix(10.4,0,0,10.4,336.4,375.2)" />
<use xlink:href="#f1_2h" transform="matrix(10.4,0,0,10.4,339.9,375.2)" />
<use xlink:href="#f1_20" transform="matrix(10.4,0,0,10.4,347.9,375.2)" />
<use xlink:href="#f1_h" transform="matrix(10.4,0,0,10.4,356.8,375.2)" />
<use xlink:href="#f1_15" transform="matrix(10.4,0,0,10.4,368.7,375.2)" />
<use xlink:href="#f1_24" transform="matrix(10.4,0,0,10.4,378.5,375.2)" />
<use xlink:href="#f1_29" transform="matrix(10.4,0,0,10.4,382,375.2)" />
<use xlink:href="#f1_1z" transform="matrix(10.4,0,0,10.4,390.9,375.2)" />
<use xlink:href="#f1_2f" transform="matrix(10.4,0,0,10.4,407.3,375.2)" />
<use xlink:href="#f1_23" transform="matrix(10.4,0,0,10.4,411.7,375.2)" />
<use xlink:href="#f1_20" transform="matrix(10.4,0,0,10.4,420.6,375.2)" />
<use xlink:href="#f1_24" transform="matrix(10.4,0,0,10.4,436.9,375.2)" />
<use xlink:href="#f1_1z" transform="matrix(10.4,0,0,10.4,440.5,375.2)" />
<use xlink:href="#f1_20" transform="matrix(10.4,0,0,10.4,449.4,375.2)" />
<use xlink:href="#f1_29" transform="matrix(10.4,0,0,10.4,458.2,375.2)" />
<use xlink:href="#f1_2f" transform="matrix(10.4,0,0,10.4,467.1,375.2)" />
<use xlink:href="#f1_24" transform="matrix(10.4,0,0,10.4,471.5,375.2)" />
<use xlink:href="#f1_21" transform="matrix(10.4,0,0,10.4,475.1,375.2)" />
<use xlink:href="#f1_2k" transform="matrix(10.4,0,0,10.4,479.5,375.2)" />
<use xlink:href="#f1_20" transform="matrix(10.4,0,0,10.4,495,375.2)" />
<use xlink:href="#f1_27" transform="matrix(10.4,0,0,10.4,503.9,375.2)" />
<use xlink:href="#f1_20" transform="matrix(10.4,0,0,10.4,507.4,375.2)" />
<use xlink:href="#f1_28" transform="matrix(10.4,0,0,10.4,516.3,375.2)" />
<use xlink:href="#f1_20" transform="matrix(10.4,0,0,10.4,529.5,375.2)" />
<use xlink:href="#f1_29" transform="matrix(10.4,0,0,10.4,538.4,375.2)" />
<use xlink:href="#f1_2f" transform="matrix(10.4,0,0,10.4,547.3,375.2)" />
<use xlink:href="#f1_h" transform="matrix(10.4,0,0,10.4,551.7,375.2)" />
<use xlink:href="#f1_10" transform="matrix(10.4,0,0,10.4,563.7,375.2)" />
<use xlink:href="#f1_27" transform="matrix(10.4,0,0,10.4,574.3,375.2)" />
<use xlink:href="#f1_2e" transform="matrix(10.4,0,0,10.4,577.8,375.2)" />
<use xlink:href="#f1_2a" transform="matrix(10.4,0,0,10.4,585.8,375.2)" />
<use xlink:href="#f1_2e" transform="matrix(10.4,0,0,10.4,602.2,375.2)" />
<use xlink:href="#f1_23" transform="matrix(10.4,0,0,10.4,610.2,375.2)" />
<use xlink:href="#f1_2a" transform="matrix(10.4,0,0,10.4,619,375.2)" />
<use xlink:href="#f1_2i" transform="matrix(10.4,0,0,10.4,627.9,375.2)" />
<use xlink:href="#f1_2f" transform="matrix(10.4,0,0,10.4,113.1,395.4)" />
<use xlink:href="#f1_23" transform="matrix(10.4,0,0,10.4,117.5,395.4)" />
<use xlink:href="#f1_1w" transform="matrix(10.4,0,0,10.4,126.4,395.4)" />
<use xlink:href="#f1_2f" transform="matrix(10.4,0,0,10.4,135.3,395.4)" />
<use xlink:href="#f1_20" transform="matrix(10.4,0,0,10.4,146.8,395.4)" />
<use xlink:href="#f1_2h" transform="matrix(10.4,0,0,10.4,155.7,395.4)" />
<use xlink:href="#f1_20" transform="matrix(10.4,0,0,10.4,163.7,395.4)" />
<use xlink:href="#f1_2d" transform="matrix(10.4,0,0,10.4,172.5,395.4)" />
<use xlink:href="#f1_2k" transform="matrix(10.4,0,0,10.4,177.9,395.4)" />
<use xlink:href="#f1_20" transform="matrix(10.4,0,0,10.4,193,395.4)" />
<use xlink:href="#f1_27" transform="matrix(10.4,0,0,10.4,201.8,395.4)" />
<use xlink:href="#f1_20" transform="matrix(10.4,0,0,10.4,205.4,395.4)" />
<use xlink:href="#f1_28" transform="matrix(10.4,0,0,10.4,214.3,395.4)" />
<use xlink:href="#f1_20" transform="matrix(10.4,0,0,10.4,227.5,395.4)" />
<use xlink:href="#f1_29" transform="matrix(10.4,0,0,10.4,236.4,395.4)" />
<use xlink:href="#f1_2f" transform="matrix(10.4,0,0,10.4,245.3,395.4)" />
<use xlink:href="#f1_2a" transform="matrix(10.4,0,0,10.4,257,395.4)" />
<use xlink:href="#f1_21" transform="matrix(10.4,0,0,10.4,265.9,395.4)" />
<use xlink:href="#f3_1h" transform="matrix(10.4,0,0,10.4,276.8,395.4)" />
<use xlink:href="#f1_24" transform="matrix(10.4,0,0,10.4,295.5,395.4)" />
<use xlink:href="#f1_2e" transform="matrix(10.4,0,0,10.4,299,395.4)" />
<use xlink:href="#f1_24" transform="matrix(10.4,0,0,10.4,314.3,395.4)" />
<use xlink:href="#f1_29" transform="matrix(10.4,0,0,10.4,317.9,395.4)" />
<use xlink:href="#f1_2h" transform="matrix(10.4,0,0,10.4,326.8,395.4)" />
<use xlink:href="#f1_20" transform="matrix(10.4,0,0,10.4,334.7,395.4)" />
<use xlink:href="#f1_2d" transform="matrix(10.4,0,0,10.4,343.6,395.4)" />
<use xlink:href="#f1_2f" transform="matrix(10.4,0,0,10.4,348.9,395.4)" />
<use xlink:href="#f1_24" transform="matrix(10.4,0,0,10.4,353.3,395.4)" />
<use xlink:href="#f1_1x" transform="matrix(10.4,0,0,10.4,356.9,395.4)" />
<use xlink:href="#f1_27" transform="matrix(10.4,0,0,10.4,365.8,395.4)" />
<use xlink:href="#f1_20" transform="matrix(10.4,0,0,10.4,369.3,395.4)" />
<use xlink:href="#f1_20" transform="matrix(10.4,0,0,10.4,385.3,395.4)" />
<use xlink:href="#f1_2j" transform="matrix(10.4,0,0,10.4,394.2,395.4)" />
<use xlink:href="#f1_1y" transform="matrix(10.4,0,0,10.4,402.2,395.4)" />
<use xlink:href="#f1_20" transform="matrix(10.4,0,0,10.4,410.1,395.4)" />
<use xlink:href="#f1_2b" transform="matrix(10.4,0,0,10.4,419,395.4)" />
<use xlink:href="#f1_2f" transform="matrix(10.4,0,0,10.4,427.9,395.4)" />
<use xlink:href="#f1_99" transform="matrix(10.4,0,0,10.4,439.6,395.4)" />
<use xlink:href="#f1_k" transform="matrix(10.4,0,0,10.4,448.5,395.4)" />
<use xlink:href="#f1_h" transform="matrix(10.4,0,0,10.4,457.4,395.4)" />
<use xlink:href="#f1_m" transform="matrix(10.4,0,0,10.4,72.4,429.3)" />
<use xlink:href="#f1_n" transform="matrix(10.4,0,0,10.4,81.2,429.3)" />
<use xlink:href="#f1_h" transform="matrix(10.4,0,0,10.4,90.4,429.3)" />
<use xlink:href="#f1_18" transform="matrix(10.4,0,0,10.4,113.1,429.3)" />
<use xlink:href="#f1_21" transform="matrix(10.4,0,0,10.4,117.5,429.3)" />
<use xlink:href="#f3_21" transform="matrix(10.4,0,0,10.4,127.4,429.3)" />
<use xlink:href="#f1_f" transform="matrix(10.4,0,0,10.4,131.8,429.3)" />
<use xlink:href="#f3_22" transform="matrix(10.4,0,0,10.4,141.9,429.3)" />
<use xlink:href="#f1_t" transform="matrix(10.4,0,0,10.4,156.3,429.3)" />
<use xlink:href="#f3_1h" transform="matrix(10.4,0,0,10.4,166.4,429.3)" />
<use xlink:href="#f2_34" transform="matrix(10.4,0,0,10.4,183.5,429.3)" />
<use xlink:href="#f3_1h" transform="matrix(10.4,0,0,10.4,204.9,429.3)" />
<use xlink:href="#f1_1z" transform="matrix(10.4,0,0,10.4,222.2,429.3)" />
<use xlink:href="#f1_20" transform="matrix(10.4,0,0,10.4,231,429.3)" />
<use xlink:href="#f1_21" transform="matrix(10.4,0,0,10.4,239.9,429.3)" />
<use xlink:href="#f1_24" transform="matrix(10.4,0,0,10.4,244.3,429.3)" />
<use xlink:href="#f1_29" transform="matrix(10.4,0,0,10.4,247.9,429.3)" />
<use xlink:href="#f1_20" transform="matrix(10.4,0,0,10.4,256.7,429.3)" />
<use xlink:href="#f1_1z" transform="matrix(10.4,0,0,10.4,265.6,429.3)" />
<use xlink:href="#f1_1x" transform="matrix(10.4,0,0,10.4,280.2,429.3)" />
<use xlink:href="#f1_2k" transform="matrix(10.4,0,0,10.4,289,429.3)" />
<use xlink:href="#f3_21" transform="matrix(10.4,0,0,10.4,302.3,429.3)" />
<use xlink:href="#f1_b" transform="matrix(10.4,0,0,10.4,306.7,429.3)" />
<use xlink:href="#f3_2j" transform="matrix(10.4,0,0,10.4,312,429.3)" />
<use xlink:href="#f1_c" transform="matrix(10.4,0,0,10.4,320.1,429.3)" />
<use xlink:href="#f1_w" transform="matrix(10.4,0,0,10.4,330.9,429.3)" />
<use xlink:href="#f3_2j" transform="matrix(10.4,0,0,10.4,345.9,429.3)" />
<use xlink:href="#f1_l" transform="matrix(7.4,0,0,7.4,354,424)" />
<use xlink:href="#f1_99" transform="matrix(10.4,0,0,10.4,365.9,429.3)" />
<use xlink:href="#f3_2j" transform="matrix(10.4,0,0,10.4,380.4,429.3)" />
<use xlink:href="#f1_1w" transform="matrix(10.4,0,0,10.4,393.9,429.3)" />
<use xlink:href="#f1_29" transform="matrix(10.4,0,0,10.4,402.8,429.3)" />
<use xlink:href="#f1_1z" transform="matrix(10.4,0,0,10.4,411.7,429.3)" />
<use xlink:href="#f3_22" transform="matrix(10.4,0,0,10.4,426,429.3)" />
<use xlink:href="#f1_b" transform="matrix(10.4,0,0,10.4,434.8,429.3)" />
<use xlink:href="#f3_2j" transform="matrix(10.4,0,0,10.4,440.1,429.3)" />
<use xlink:href="#f1_c" transform="matrix(10.4,0,0,10.4,448.2,429.3)" />
<use xlink:href="#f1_w" transform="matrix(10.4,0,0,10.4,459.2,429.3)" />
<use xlink:href="#f3_2j" transform="matrix(10.4,0,0,10.4,474.2,429.3)" />
<use xlink:href="#f1_e" transform="matrix(10.4,0,0,10.4,488,429.3)" />
<use xlink:href="#f1_k" transform="matrix(10.4,0,0,10.4,503,429.3)" />
<use xlink:href="#f1_21" transform="matrix(10.4,0,0,10.4,517.4,429.3)" />
<use xlink:href="#f1_24" transform="matrix(10.4,0,0,10.4,521.8,429.3)" />
<use xlink:href="#f1_29" transform="matrix(10.4,0,0,10.4,525.3,429.3)" />
<use xlink:href="#f1_1z" transform="matrix(10.4,0,0,10.4,534.2,429.3)" />
<use xlink:href="#f1_b" transform="matrix(10.4,0,0,10.4,548.7,429.3)" />
<use xlink:href="#f1_21" transform="matrix(10.4,0,0,10.4,554.1,429.3)" />
<use xlink:href="#f1_2a" transform="matrix(10.4,0,0,10.4,558.5,429.3)" />
<use xlink:href="#f1_22" transform="matrix(10.4,0,0,10.4,567.4,429.3)" />
<use xlink:href="#f1_c" transform="matrix(10.4,0,0,10.4,576.2,429.3)" />
<use xlink:href="#f1_b" transform="matrix(10.4,0,0,10.4,587.2,429.3)" />
<use xlink:href="#f3_2j" transform="matrix(10.4,0,0,10.4,592.1,429.3)" />
<use xlink:href="#f1_c" transform="matrix(10.4,0,0,10.4,600.2,429.3)" />
<use xlink:href="#f1_1w" transform="matrix(10.4,0,0,10.4,611.2,429.3)" />
<use xlink:href="#f1_29" transform="matrix(10.4,0,0,10.4,620.1,429.3)" />
<use xlink:href="#f1_1z" transform="matrix(10.4,0,0,10.4,628.9,429.3)" />
<use xlink:href="#f1_b" transform="matrix(10.4,0,0,10.4,113.1,449.5)" />
<use xlink:href="#f1_22" transform="matrix(10.4,0,0,10.4,118.4,449.5)" />
<use xlink:href="#f1_2a" transform="matrix(10.4,0,0,10.4,127.3,449.5)" />
<use xlink:href="#f1_21" transform="matrix(10.4,0,0,10.4,136.1,449.5)" />
<use xlink:href="#f1_c" transform="matrix(10.4,0,0,10.4,140.6,449.5)" />
<use xlink:href="#f1_b" transform="matrix(10.4,0,0,10.4,153,449.5)" />
<use xlink:href="#f3_2j" transform="matrix(10.4,0,0,10.4,158.2,449.5)" />
<use xlink:href="#f1_c" transform="matrix(10.4,0,0,10.4,166.2,449.5)" />
<use xlink:href="#f1_h" transform="matrix(10.4,0,0,10.4,171.6,449.5)" />
<use xlink:href="#f1_10" transform="matrix(10.4,0,0,10.4,183.3,449.5)" />
<use xlink:href="#f1_2d" transform="matrix(10.4,0,0,10.4,194,449.5)" />
<use xlink:href="#f1_20" transform="matrix(10.4,0,0,10.4,199.3,449.5)" />
<use xlink:href="#f1_2f" transform="matrix(10.4,0,0,10.4,215.3,449.5)" />
<use xlink:href="#f1_23" transform="matrix(10.4,0,0,10.4,219.7,449.5)" />
<use xlink:href="#f1_20" transform="matrix(10.4,0,0,10.4,228.6,449.5)" />
<use xlink:href="#f1_2k" transform="matrix(10.4,0,0,10.4,237.5,449.5)" />
<use xlink:href="#f1_20" transform="matrix(10.4,0,0,10.4,252.8,449.5)" />
<use xlink:href="#f1_2c" transform="matrix(10.4,0,0,10.4,261.6,449.5)" />
<use xlink:href="#f1_2g" transform="matrix(10.4,0,0,10.4,270.5,449.5)" />
<use xlink:href="#f1_1w" transform="matrix(10.4,0,0,10.4,279.4,449.5)" />
<use xlink:href="#f1_27" transform="matrix(10.4,0,0,10.4,288.2,449.5)" />
<use xlink:href="#f1_y" transform="matrix(10.4,0,0,10.4,291.8,449.5)" />
<use xlink:href="#f1_m" transform="matrix(10.4,0,0,10.4,72.4,497)" />
<use xlink:href="#f1_o" transform="matrix(10.4,0,0,10.4,81.2,497)" />
<use xlink:href="#f1_h" transform="matrix(10.4,0,0,10.4,90.4,497)" />
<use xlink:href="#f2_c" transform="matrix(10.4,0,0,11.3,316.4,492.4)" />
<use xlink:href="#f2_d" transform="matrix(10.4,0,0,11.3,332.6,492.4)" />
</g>
<path d="M381,490.2h11.5" class="g5_5" />
<g fill="#000000" >
<use xlink:href="#f2_c" transform="matrix(10.4,0,0,11.3,452,492.4)" />
<use xlink:href="#f2_d" transform="matrix(10.4,0,0,11.3,468.2,492.4)" />
<use xlink:href="#f1_k" transform="matrix(7,0,0,6.9,444.3,487.3)" />
<use xlink:href="#f1_k" transform="matrix(10.4,0,0,10.4,383,484.1)" />
<use xlink:href="#f1_t" transform="matrix(10.4,0,0,10.4,125.1,494.4)" />
<use xlink:href="#f1_1q" transform="matrix(10.4,0,0,10.4,132.5,494.4)" />
<use xlink:href="#f1_k" transform="matrix(10.4,0,0,10.4,136.3,494.4)" />
<use xlink:href="#f1_f" transform="matrix(10.4,0,0,10.4,141.8,494.4)" />
<use xlink:href="#f1_c" transform="matrix(10.4,0,0,10.4,161.5,494.4)" />
<use xlink:href="#f1_1q" transform="matrix(10.4,0,0,10.4,189.5,494.4)" />
<use xlink:href="#f1_l" transform="matrix(10.4,0,0,10.4,194.3,494.4)" />
<use xlink:href="#f1_f" transform="matrix(10.4,0,0,10.4,202.3,494.4)" />
<use xlink:href="#f1_c" transform="matrix(10.4,0,0,10.4,222,494.4)" />
<use xlink:href="#f1_24" transform="matrix(10.4,0,0,10.4,230.4,494.4)" />
<use xlink:href="#f1_2e" transform="matrix(10.4,0,0,10.4,233.9,494.4)" />
<use xlink:href="#f1_22" transform="matrix(10.4,0,0,10.4,245.8,494.4)" />
<use xlink:href="#f1_24" transform="matrix(10.4,0,0,10.4,254.8,494.4)" />
<use xlink:href="#f1_2h" transform="matrix(10.4,0,0,10.4,258.4,494.4)" />
<use xlink:href="#f1_20" transform="matrix(10.4,0,0,10.4,266.3,494.4)" />
<use xlink:href="#f1_29" transform="matrix(10.4,0,0,10.4,275.3,494.4)" />
<use xlink:href="#f1_1x" transform="matrix(10.4,0,0,10.4,287.2,494.4)" />
<use xlink:href="#f1_2k" transform="matrix(10.4,0,0,10.4,296.2,494.4)" />
<use xlink:href="#f1_f" transform="matrix(10.4,0,0,10.4,393.8,494.4)" />
<use xlink:href="#f1_21" transform="matrix(10.4,0,0,10.4,402,494.4)" />
<use xlink:href="#f1_24" transform="matrix(10.4,0,0,10.4,406.4,494.4)" />
<use xlink:href="#f1_29" transform="matrix(10.4,0,0,10.4,409.9,494.4)" />
<use xlink:href="#f1_1z" transform="matrix(10.4,0,0,10.4,418.9,494.4)" />
<use xlink:href="#f1_h" transform="matrix(10.4,0,0,10.4,473.8,494.4)" />
<use xlink:href="#f2_h" transform="matrix(6.9,0,0,6.9,438.4,487.3)" />
<use xlink:href="#f2_2v" transform="matrix(10.4,0,0,10.4,149.7,494.4)" />
<use xlink:href="#f2_34" transform="matrix(10.4,0,0,10.4,170.1,494.4)" />
<use xlink:href="#f2_2v" transform="matrix(10.4,0,0,10.4,210.2,494.4)" />
<use xlink:href="#f2_x" transform="matrix(10.4,0,0,10.4,341.8,494.4)" />
<use xlink:href="#f2_f" transform="matrix(10.4,0,0,10.4,368.2,494.4)" />
<use xlink:href="#f3_21" transform="matrix(10.4,0,0,10.4,114.7,494.4)" />
<use xlink:href="#f3_21" transform="matrix(10.4,0,0,10.4,307.5,494.4)" />
<use xlink:href="#f3_2j" transform="matrix(10.4,0,0,10.4,322.2,494.4)" />
<use xlink:href="#f3_2j" transform="matrix(10.4,0,0,10.4,355.1,494.4)" />
<use xlink:href="#f3_21" transform="matrix(10.4,0,0,10.4,430.5,494.4)" />
<use xlink:href="#f3_2j" transform="matrix(10.4,0,0,10.4,457.7,494.4)" />
<use xlink:href="#f3_2j" transform="matrix(10.4,0,0,10.4,381.9,506.7)" />
<use xlink:href="#f1_m" transform="matrix(10.4,0,0,10.4,72.4,537.5)" />
<use xlink:href="#f1_p" transform="matrix(10.4,0,0,10.4,81.2,537.5)" />
<use xlink:href="#f1_h" transform="matrix(10.4,0,0,10.4,90.4,537.5)" />
<use xlink:href="#f3_21" transform="matrix(10.4,0,0,10.4,113.1,537.5)" />
<use xlink:href="#f1_t" transform="matrix(10.4,0,0,10.4,124.3,537.5)" />
<use xlink:href="#f3_1h" transform="matrix(10.4,0,0,10.4,135.4,537.5)" />
<use xlink:href="#f2_34" transform="matrix(10.4,0,0,10.4,153.8,537.5)" />
<use xlink:href="#f3_1h" transform="matrix(10.4,0,0,10.4,176.3,537.5)" />
<use xlink:href="#f3_f" transform="matrix(10.4,0,0,10.4,187.8,537.5)" />
<use xlink:href="#f3_22" transform="matrix(10.4,0,0,10.4,199.1,537.5)" />
<use xlink:href="#f1_t" transform="matrix(10.4,0,0,10.4,214.6,537.5)" />
<use xlink:href="#f3_1h" transform="matrix(10.4,0,0,10.4,225.8,537.5)" />
<use xlink:href="#f2_34" transform="matrix(10.4,0,0,10.4,244.2,537.5)" />
<use xlink:href="#f3_1h" transform="matrix(10.4,0,0,10.4,266.7,537.5)" />
<use xlink:href="#f1_22" transform="matrix(10.4,0,0,10.4,285,537.5)" />
<use xlink:href="#f1_24" transform="matrix(10.4,0,0,10.4,293.9,537.5)" />
<use xlink:href="#f1_2h" transform="matrix(10.4,0,0,10.4,297.5,537.5)" />
<use xlink:href="#f1_20" transform="matrix(10.4,0,0,10.4,305.4,537.5)" />
<use xlink:href="#f1_29" transform="matrix(10.4,0,0,10.4,314.3,537.5)" />
<use xlink:href="#f1_1x" transform="matrix(10.4,0,0,10.4,329.9,537.5)" />
<use xlink:href="#f1_2k" transform="matrix(10.4,0,0,10.4,338.8,537.5)" />
<use xlink:href="#f3_21" transform="matrix(10.4,0,0,10.4,353.4,537.5)" />
<use xlink:href="#f1_b" transform="matrix(10.4,0,0,10.4,357.8,537.5)" />
<use xlink:href="#f3_2j" transform="matrix(10.4,0,0,10.4,363.1,537.5)" />
<use xlink:href="#f1_c" transform="matrix(10.4,0,0,10.4,371.2,537.5)" />
<use xlink:href="#f1_w" transform="matrix(10.4,0,0,10.4,383.3,537.5)" />
<use xlink:href="#f1_1q" transform="matrix(10.4,0,0,10.4,399.4,537.5)" />
<use xlink:href="#f3_2j" transform="matrix(10.4,0,0,10.4,403.8,537.5)" />
<use xlink:href="#f1_1s" transform="matrix(10.4,0,0,10.4,411.9,537.5)" />
<use xlink:href="#f1_f" transform="matrix(10.4,0,0,10.4,416.3,537.5)" />
<use xlink:href="#f3_22" transform="matrix(10.4,0,0,10.4,427.5,537.5)" />
<use xlink:href="#f1_b" transform="matrix(10.4,0,0,10.4,436.3,537.5)" />
<use xlink:href="#f3_2j" transform="matrix(10.4,0,0,10.4,441.6,537.5)" />
<use xlink:href="#f1_c" transform="matrix(10.4,0,0,10.4,449.7,537.5)" />
<use xlink:href="#f1_w" transform="matrix(10.4,0,0,10.4,461.8,537.5)" />
<use xlink:href="#f1_2n" transform="matrix(10.4,0,0,10.4,477.9,537.5)" />
<use xlink:href="#f3_2j" transform="matrix(10.4,0,0,10.4,482.1,537.5)" />
<use xlink:href="#f1_2n" transform="matrix(10.4,0,0,10.4,490.2,537.5)" />
<use xlink:href="#f1_2f" transform="matrix(10.4,0,0,10.4,501.1,537.5)" />
<use xlink:href="#f1_23" transform="matrix(10.4,0,0,10.4,505.6,537.5)" />
<use xlink:href="#f1_20" transform="matrix(10.4,0,0,10.4,514.4,537.5)" />
<use xlink:href="#f1_29" transform="matrix(10.4,0,0,10.4,523.3,537.5)" />
<use xlink:href="#f1_21" transform="matrix(10.4,0,0,10.4,539.1,537.5)" />
<use xlink:href="#f1_24" transform="matrix(10.4,0,0,10.4,543.6,537.5)" />
<use xlink:href="#f1_29" transform="matrix(10.4,0,0,10.4,547.1,537.5)" />
<use xlink:href="#f1_1z" transform="matrix(10.4,0,0,10.4,556,537.5)" />
<use xlink:href="#f2_c" transform="matrix(10.5,0,0,14.1,170.4,585.1)" />
<use xlink:href="#f2_d" transform="matrix(10.5,0,0,14.1,199.6,585.1)" />
</g>
<path d="M214.8,580.2h19" class="g6_5" />
<g fill="#000000" >
<use xlink:href="#f2_c" transform="matrix(10.5,0,0,14.1,287.2,585.1)" />
<use xlink:href="#f2_d" transform="matrix(10.5,0,0,14.1,318.5,585.1)" />
</g>
<path d="M333.7,580.2h19" class="g6_5" />
<g fill="#000000" >
<use xlink:href="#f2_h" transform="matrix(10.5,0,0,10.5,215.8,574)" />
<use xlink:href="#f2_h" transform="matrix(10.5,0,0,10.5,334.6,574)" />
<use xlink:href="#f2_4o" transform="matrix(10.5,0,0,10.5,206.2,575)" />
<use xlink:href="#f2_54" transform="matrix(10.5,0,0,10.5,234.4,575)" />
<use xlink:href="#f2_4o" transform="matrix(10.5,0,0,10.5,325,575)" />
<use xlink:href="#f2_54" transform="matrix(10.5,0,0,10.5,353.2,575)" />
<use xlink:href="#f2_4p" transform="matrix(10.5,0,0,10.5,206.2,587)" />
<use xlink:href="#f2_55" transform="matrix(10.5,0,0,10.5,234.4,587)" />
<use xlink:href="#f2_4p" transform="matrix(10.5,0,0,10.5,325,587)" />
<use xlink:href="#f2_55" transform="matrix(10.5,0,0,10.5,353.2,587)" />
<use xlink:href="#f2_4q" transform="matrix(10.5,0,0,10.5,206.2,593.6)" />
<use xlink:href="#f2_56" transform="matrix(10.5,0,0,10.5,234.4,593.6)" />
<use xlink:href="#f2_4q" transform="matrix(10.5,0,0,10.5,325,593.6)" />
<use xlink:href="#f2_56" transform="matrix(10.5,0,0,10.5,353.2,593.6)" />
<use xlink:href="#f1_l" transform="matrix(10.5,0,0,10.5,224.5,574)" />
<use xlink:href="#f1_l" transform="matrix(10.5,0,0,10.5,343.4,574)" />
<use xlink:href="#f1_1w" transform="matrix(10.5,0,0,10.5,251.5,584.4)" />
<use xlink:href="#f1_29" transform="matrix(10.5,0,0,10.5,260.4,584.4)" />
<use xlink:href="#f1_1z" transform="matrix(10.5,0,0,10.5,269.4,584.4)" />
<use xlink:href="#f1_h" transform="matrix(10.5,0,0,10.5,361.9,584.4)" />
<use xlink:href="#f1_m" transform="matrix(10.5,0,0,10.5,219.9,596.8)" />
<use xlink:href="#f1_m" transform="matrix(10.5,0,0,10.5,338.8,596.8)" />
<use xlink:href="#f3_21" transform="matrix(10.5,0,0,10.5,175.3,584.4)" />
<use xlink:href="#f3_2a" transform="matrix(10.5,0,0,10.5,179.8,584.4)" />
<use xlink:href="#f3_22" transform="matrix(10.5,0,0,10.5,188.7,584.4)" />
<use xlink:href="#f3_22" transform="matrix(10.5,0,0,10.5,292.7,584.4)" />
<use xlink:href="#f3_2a" transform="matrix(10.5,0,0,10.5,301.7,584.4)" />
<use xlink:href="#f3_21" transform="matrix(10.5,0,0,10.5,310.6,584.4)" />
</g>
<path fill-rule="evenodd" d="M76.4,654.8H619.3v2H76.4v-2Z" class="g3_5" />
<g fill="#000000" >
<use xlink:href="#f5_10" transform="matrix(14,0,0,14,294.4,647.7)" />
<use xlink:href="#f5_1d" transform="matrix(14,0,0,14,311,647.7)" />
<use xlink:href="#f5_1i" transform="matrix(14,0,0,14,329.2,647.7)" />
<use xlink:href="#f5_1m" transform="matrix(14,0,0,14,340.7,647.7)" />
<use xlink:href="#f5_14" transform="matrix(14,0,0,14,361.6,647.7)" />
<use xlink:href="#f5_1h" transform="matrix(14,0,0,14,374.7,647.7)" />
<use xlink:href="#f5_1i" transform="matrix(14,0,0,14,389.7,647.7)" />
<use xlink:href="#f1_k" transform="matrix(10.4,0,0,10.4,81.4,688.5)" />
<use xlink:href="#f1_h" transform="matrix(10.4,0,0,10.4,90.2,688.5)" />
<use xlink:href="#f3_1h" transform="matrix(10.4,0,0,10.4,113.1,688.5)" />
<use xlink:href="#f1_k" transform="matrix(7.4,0,0,7.4,124.6,693.9)" />
<use xlink:href="#f1_t" transform="matrix(10.4,0,0,10.4,138,688.5)" />
<use xlink:href="#f1_24" transform="matrix(10.4,0,0,10.4,149.6,688.5)" />
<use xlink:href="#f1_2e" transform="matrix(10.4,0,0,10.4,153.1,688.5)" />
<use xlink:href="#f1_2g" transform="matrix(10.4,0,0,10.4,168.4,688.5)" />
<use xlink:href="#f1_29" transform="matrix(10.4,0,0,10.4,177.3,688.5)" />
<use xlink:href="#f1_24" transform="matrix(10.4,0,0,10.4,186.2,688.5)" />
<use xlink:href="#f1_2h" transform="matrix(10.4,0,0,10.4,189.7,688.5)" />
<use xlink:href="#f1_20" transform="matrix(10.4,0,0,10.4,197.7,688.5)" />
<use xlink:href="#f1_2d" transform="matrix(10.4,0,0,10.4,206.6,688.5)" />
<use xlink:href="#f1_2e" transform="matrix(10.4,0,0,10.4,211.9,688.5)" />
<use xlink:href="#f1_1w" transform="matrix(10.4,0,0,10.4,219.8,688.5)" />
<use xlink:href="#f1_27" transform="matrix(10.4,0,0,10.4,228.7,688.5)" />
<use xlink:href="#f1_2d" transform="matrix(10.4,0,0,10.4,239.4,688.5)" />
<use xlink:href="#f1_20" transform="matrix(10.4,0,0,10.4,244.7,688.5)" />
<use xlink:href="#f1_27" transform="matrix(10.4,0,0,10.4,253.6,688.5)" />
<use xlink:href="#f1_1w" transform="matrix(10.4,0,0,10.4,257.1,688.5)" />
<use xlink:href="#f1_2f" transform="matrix(10.4,0,0,10.4,266,688.5)" />
<use xlink:href="#f1_24" transform="matrix(10.4,0,0,10.4,270.4,688.5)" />
<use xlink:href="#f1_2a" transform="matrix(10.4,0,0,10.4,274,688.5)" />
<use xlink:href="#f1_29" transform="matrix(10.4,0,0,10.4,282.8,688.5)" />
<use xlink:href="#f1_h" transform="matrix(10.4,0,0,10.4,291.7,688.5)" />
<use xlink:href="#f3_1h" transform="matrix(10.4,0,0,10.4,113.1,722.5)" />
<use xlink:href="#f1_l" transform="matrix(7.4,0,0,7.4,124.6,727.8)" />
<use xlink:href="#f1_t" transform="matrix(10.4,0,0,10.4,138,722.5)" />
<use xlink:href="#f1_24" transform="matrix(10.4,0,0,10.4,149.4,722.5)" />
<use xlink:href="#f1_2e" transform="matrix(10.4,0,0,10.4,153,722.5)" />
<use xlink:href="#f1_20" transform="matrix(10.4,0,0,10.4,168.1,722.5)" />
<use xlink:href="#f1_28" transform="matrix(10.4,0,0,10.4,176.9,722.5)" />
<use xlink:href="#f1_2b" transform="matrix(10.4,0,0,10.4,190.2,722.5)" />
<use xlink:href="#f1_2f" transform="matrix(10.4,0,0,10.4,199.1,722.5)" />
<use xlink:href="#f1_2k" transform="matrix(10.4,0,0,10.4,203.5,722.5)" />
<use xlink:href="#f1_2d" transform="matrix(10.4,0,0,10.4,218.7,722.5)" />
<use xlink:href="#f1_20" transform="matrix(10.4,0,0,10.4,224,722.5)" />
<use xlink:href="#f1_27" transform="matrix(10.4,0,0,10.4,232.8,722.5)" />
<use xlink:href="#f1_1w" transform="matrix(10.4,0,0,10.4,236.4,722.5)" />
<use xlink:href="#f1_2f" transform="matrix(10.4,0,0,10.4,245.2,722.5)" />
<use xlink:href="#f1_24" transform="matrix(10.4,0,0,10.4,249.7,722.5)" />
<use xlink:href="#f1_2a" transform="matrix(10.4,0,0,10.4,253.2,722.5)" />
<use xlink:href="#f1_29" transform="matrix(10.4,0,0,10.4,262.1,722.5)" />
<use xlink:href="#f1_h" transform="matrix(10.4,0,0,10.4,271,722.5)" />
<use xlink:href="#f3_1h" transform="matrix(10.4,0,0,10.4,113.1,756.4)" />
<use xlink:href="#f1_m" transform="matrix(7.4,0,0,7.4,124.6,761.7)" />
<use xlink:href="#f1_t" transform="matrix(10.4,0,0,10.4,138,756.4)" />
<use xlink:href="#f1_24" transform="matrix(10.4,0,0,10.4,149.6,756.4)" />
<use xlink:href="#f1_2e" transform="matrix(10.4,0,0,10.4,153.1,756.4)" />
<use xlink:href="#f1_29" transform="matrix(10.4,0,0,10.4,168.3,756.4)" />
<use xlink:href="#f1_20" transform="matrix(10.4,0,0,10.4,177.1,756.4)" />
<use xlink:href="#f1_24" transform="matrix(10.4,0,0,10.4,186,756.4)" />
<use xlink:href="#f1_2f" transform="matrix(10.4,0,0,10.4,189.5,756.4)" />
<use xlink:href="#f1_23" transform="matrix(10.4,0,0,10.4,194,756.4)" />
<use xlink:href="#f1_20" transform="matrix(10.4,0,0,10.4,202.8,756.4)" />
<use xlink:href="#f1_2d" transform="matrix(10.4,0,0,10.4,211.7,756.4)" />
<use xlink:href="#f1_2g" transform="matrix(10.4,0,0,10.4,224.3,756.4)" />
<use xlink:href="#f1_29" transform="matrix(10.4,0,0,10.4,233.2,756.4)" />
<use xlink:href="#f1_24" transform="matrix(10.4,0,0,10.4,242.1,756.4)" />
<use xlink:href="#f1_2h" transform="matrix(10.4,0,0,10.4,245.6,756.4)" />
<use xlink:href="#f1_20" transform="matrix(10.4,0,0,10.4,253.6,756.4)" />
<use xlink:href="#f1_2d" transform="matrix(10.4,0,0,10.4,262.5,756.4)" />
<use xlink:href="#f1_2e" transform="matrix(10.4,0,0,10.4,267.8,756.4)" />
<use xlink:href="#f1_1w" transform="matrix(10.4,0,0,10.4,275.8,756.4)" />
<use xlink:href="#f1_27" transform="matrix(10.4,0,0,10.4,284.6,756.4)" />
<use xlink:href="#f1_29" transform="matrix(10.4,0,0,10.4,295.3,756.4)" />
<use xlink:href="#f1_2a" transform="matrix(10.4,0,0,10.4,304.2,756.4)" />
<use xlink:href="#f1_2d" transform="matrix(10.4,0,0,10.4,313,756.4)" />
<use xlink:href="#f1_20" transform="matrix(10.4,0,0,10.4,325.5,756.4)" />
<use xlink:href="#f1_28" transform="matrix(10.4,0,0,10.4,334.4,756.4)" />
<use xlink:href="#f1_2b" transform="matrix(10.4,0,0,10.4,347.7,756.4)" />
<use xlink:href="#f1_2f" transform="matrix(10.4,0,0,10.4,356.5,756.4)" />
<use xlink:href="#f1_2k" transform="matrix(10.4,0,0,10.4,361,756.4)" />
<use xlink:href="#f1_h" transform="matrix(10.4,0,0,10.4,368.9,756.4)" />
<use xlink:href="#f1_l" transform="matrix(10.4,0,0,10.4,81.4,790.3)" />
<use xlink:href="#f1_h" transform="matrix(10.4,0,0,10.4,90.2,790.3)" />
<use xlink:href="#f1_1d" transform="matrix(10.4,0,0,10.4,113.1,790.3)" />
<use xlink:href="#f1_2a" transform="matrix(10.4,0,0,10.4,124.6,790.3)" />
<use xlink:href="#f1_f" transform="matrix(10.4,0,0,10.4,133.5,790.3)" />
<use xlink:href="#f3_1h" transform="matrix(10.4,0,0,10.4,144.8,790.3)" />
<use xlink:href="#f1_24" transform="matrix(10.4,0,0,10.4,163.5,790.3)" />
<use xlink:href="#f1_2e" transform="matrix(10.4,0,0,10.4,167,790.3)" />
<use xlink:href="#f1_29" transform="matrix(10.4,0,0,10.4,182,790.3)" />
<use xlink:href="#f1_2a" transform="matrix(10.4,0,0,10.4,190.8,790.3)" />
<use xlink:href="#f1_2f" transform="matrix(10.4,0,0,10.4,199.7,790.3)" />
<use xlink:href="#f1_2d" transform="matrix(10.4,0,0,10.4,211.3,790.3)" />
<use xlink:href="#f1_20" transform="matrix(10.4,0,0,10.4,216.6,790.3)" />
<use xlink:href="#f1_21" transform="matrix(10.4,0,0,10.4,225.5,790.3)" />
<use xlink:href="#f1_27" transform="matrix(10.4,0,0,10.4,229.9,790.3)" />
<use xlink:href="#f1_20" transform="matrix(10.4,0,0,10.4,233.4,790.3)" />
<use xlink:href="#f1_2j" transform="matrix(10.4,0,0,10.4,242.3,790.3)" />
<use xlink:href="#f1_24" transform="matrix(10.4,0,0,10.4,250.3,790.3)" />
<use xlink:href="#f1_2h" transform="matrix(10.4,0,0,10.4,253.8,790.3)" />
<use xlink:href="#f1_20" transform="matrix(10.4,0,0,10.4,261.8,790.3)" />
<use xlink:href="#f1_h" transform="matrix(10.4,0,0,10.4,270.7,790.3)" />
<use xlink:href="#f1_m" transform="matrix(10.4,0,0,10.4,81.4,824.2)" />
<use xlink:href="#f1_h" transform="matrix(10.4,0,0,10.4,90.2,824.2)" />
<use xlink:href="#f1_b" transform="matrix(10.4,0,0,10.4,113.1,824.2)" />
<use xlink:href="#f1_o" transform="matrix(10.4,0,0,10.4,118.4,824.2)" />
<use xlink:href="#f1_f" transform="matrix(10.4,0,0,10.4,127.3,824.2)" />
<use xlink:href="#f1_q" transform="matrix(10.4,0,0,10.4,138.5,824.2)" />
<use xlink:href="#f1_c" transform="matrix(10.4,0,0,10.4,147.3,824.2)" />
<use xlink:href="#f2_41" transform="matrix(10.4,0,0,10.4,159.3,824.2)" />
<use xlink:href="#f3_1h" transform="matrix(10.4,0,0,10.4,177.6,824.2)" />
<use xlink:href="#f1_n" transform="matrix(10.4,0,0,10.4,81.4,858.1)" />
<use xlink:href="#f1_h" transform="matrix(10.4,0,0,10.4,90.2,858.1)" />
<use xlink:href="#f3_22" transform="matrix(10.4,0,0,10.4,113.1,858.1)" />
<use xlink:href="#f3_2a" transform="matrix(10.4,0,0,10.4,121.9,858.1)" />
<use xlink:href="#f3_21" transform="matrix(10.4,0,0,10.4,130.8,858.1)" />
<use xlink:href="#f1_w" transform="matrix(10.4,0,0,10.4,142.1,858.1)" />
<use xlink:href="#f1_2m" transform="matrix(10.4,0,0,10.4,158.3,858.1)" />
<use xlink:href="#f1_b" transform="matrix(10.4,0,0,10.4,163.7,858.1)" />
<use xlink:href="#f1_k" transform="matrix(10.4,0,0,10.4,169,858.1)" />
<use xlink:href="#f1_f" transform="matrix(10.4,0,0,10.4,177.8,858.1)" />
<use xlink:href="#f1_m" transform="matrix(10.4,0,0,10.4,189.2,858.1)" />
<use xlink:href="#f1_c" transform="matrix(10.4,0,0,10.4,198.1,858.1)" />
<use xlink:href="#f1_f" transform="matrix(10.4,0,0,10.4,203.4,858.1)" />
<use xlink:href="#f1_b" transform="matrix(10.4,0,0,10.4,214.8,858.1)" />
<use xlink:href="#f1_m" transform="matrix(10.4,0,0,10.4,220.1,858.1)" />
<use xlink:href="#f1_f" transform="matrix(10.4,0,0,10.4,229,858.1)" />
<use xlink:href="#f1_k" transform="matrix(10.4,0,0,10.4,240.4,858.1)" />
<use xlink:href="#f1_c" transform="matrix(10.4,0,0,10.4,249.3,858.1)" />
<use xlink:href="#f1_2o" transform="matrix(10.4,0,0,10.4,254.6,858.1)" />
<use xlink:href="#f1_o" transform="matrix(10.4,0,0,10.4,81.4,895.5)" />
<use xlink:href="#f1_h" transform="matrix(10.4,0,0,10.4,90.2,895.5)" />
<use xlink:href="#f1_b" transform="matrix(10.4,0,0,10.4,113.1,895.5)" />
<use xlink:href="#f3_21" transform="matrix(10.4,0,0,10.4,118.4,895.5)" />
<use xlink:href="#f3_2a" transform="matrix(10.4,0,0,10.4,122.8,895.5)" />
<use xlink:href="#f3_22" transform="matrix(10.4,0,0,10.4,131.7,895.5)" />
<use xlink:href="#f1_c" transform="matrix(10.4,0,0,10.4,140.4,895.5)" />
<use xlink:href="#f1_b" transform="matrix(10.4,0,0,10.4,145.7,895.5)" />
<use xlink:href="#f3_2j" transform="matrix(10.4,0,0,10.4,151,895.5)" />
<use xlink:href="#f1_c" transform="matrix(10.4,0,0,10.4,159.1,895.5)" />
<use xlink:href="#f1_w" transform="matrix(10.4,0,0,10.4,171,895.5)" />
<use xlink:href="#f3_2j" transform="matrix(10.4,0,0,10.4,187.1,895.5)" />
<use xlink:href="#f2_6" transform="matrix(10.5,0,0,10.5,204.6,896.3)" />
<use xlink:href="#f3_2j" transform="matrix(10.4,0,0,10.4,226,895.5)" />
<use xlink:href="#f2_40" transform="matrix(10.4,0,0,10.4,240.9,895.5)" />
<use xlink:href="#f3_1h" transform="matrix(10.4,0,0,10.4,259,895.5)" />
<use xlink:href="#f6_o" transform="matrix(12,0,0,12,669.8,1079.8)" />
</g>
<g fill="#0080FF" fill-opacity="0.5" >
<use xlink:href="#f0_1c" transform="matrix(37.8,0,0,37.8,181.3,1077.2)" />
<use xlink:href="#f0_21" transform="matrix(37.8,0,0,37.8,213.4,1077.2)" />
<use xlink:href="#f0_1x" transform="matrix(37.8,0,0,37.8,245.5,1077.2)" />
<use xlink:href="#f0_2e" transform="matrix(37.8,0,0,37.8,277.6,1077.2)" />
<use xlink:href="#f0_2a" transform="matrix(37.8,0,0,37.8,296.9,1077.2)" />
<use xlink:href="#f0_17" transform="matrix(37.8,0,0,37.8,329,1077.2)" />
<use xlink:href="#f0_2h" transform="matrix(37.8,0,0,37.8,373.9,1077.2)" />
<use xlink:href="#f0_25" transform="matrix(37.8,0,0,37.8,406,1077.2)" />
<use xlink:href="#f0_20" transform="matrix(37.8,0,0,37.8,418.9,1077.2)" />
<use xlink:href="#f0_21" transform="matrix(37.8,0,0,37.8,451,1077.2)" />
<use xlink:href="#f0_i" transform="matrix(37.8,0,0,37.8,483.1,1077.2)" />
<use xlink:href="#f0_25" transform="matrix(37.8,0,0,37.8,499.1,1077.2)" />
<use xlink:href="#f0_2a" transform="matrix(37.8,0,0,37.8,512,1077.2)" />
</g>
<defs>
<path d="M593,101c0,0,182,0,279,112c0,0,98,113,98,318c0,0,0,196,-98,308c0,0,-98,112,-277,112c0,0,-181,0,-279,-110c0,0,-99,-111,-99,-310c0,0,0,-198,100,-314c0,0,99,-116,276,-116Zm0,-115c0,0,-162,0,-279,65c0,0,-118,66,-180,190c0,0,-62,124,-62,290c0,0,0,252,138,394c0,0,138,142,385,142c0,0,160,0,278,-64c0,0,118,-64,180,-185c0,0,62,-122,62,-287c0,0,0,-165,-63,-289c0,0,-63,-124,-181,-190c0,0,-118,-66,-278,-66Z" 
id="f0_1f"
transform="scale(0.001,-0.001)" />

<path d="M106,0V635c0,0,0,141,-5,173H228c0,0,1,-4,2,-21c0,0,1,-16,2,-37c0,0,1,-22,2,-81h2c0,0,47,84,108,119c0,0,60,34,151,34c0,0,132,0,194,-66c0,0,61,-66,61,-218V0H615V512c0,0,0,80,-15,124c0,0,-16,44,-50,63c0,0,-35,20,-101,20c0,0,-97,0,-153,-67c0,0,-56,-66,-56,-184V0Z" 
id="f0_2a"
transform="scale(0.001,-0.001)" />

<path d="M103,0V1107H237V0Z" 
id="f0_28"
transform="scale(0.001,-0.001)" />

<path d="M102,0V808H236V0Zm0,979v128H236V979Z" 
id="f0_25"
transform="scale(0.001,-0.001)" />

<path d="M643,478c0,0,-11,128,-65,187c0,0,-54,59,-154,59c0,0,-98,0,-155,-66c0,0,-57,-65,-62,-180ZM431,-14c0,0,-179,0,-272,106c0,0,-94,107,-94,317c0,0,0,200,94,307c0,0,93,106,267,106c0,0,356,0,356,-429V375H206c0,0,0,-138,57,-213c0,0,58,-75,168,-75c0,0,87,0,140,35c0,0,53,35,71,88L760,177c0,0,-72,-191,-329,-191Z" 
id="f0_21"
transform="scale(0.001,-0.001)" />

<path d="M17,0L304,415L31,808H179L380,493L580,808H730L457,417L747,0H598L380,331L162,0Z" 
id="f0_2k"
transform="scale(0.001,-0.001)" />

<path d="M339,87c0,0,74,0,132,34c0,0,57,33,90,91c0,0,34,59,34,121v66L448,396c0,0,-95,-2,-144,-19c0,0,-49,-18,-75,-55c0,0,-26,-38,-26,-98c0,0,0,-65,35,-101c0,0,36,-36,101,-36ZM309,-14c0,0,-122,0,-183,64c0,0,-61,64,-61,176c0,0,0,125,82,192c0,0,83,67,266,72l182,3v44c0,0,0,98,-42,141c0,0,-42,43,-132,43c0,0,-90,0,-131,-31c0,0,-41,-31,-49,-98L101,604c0,0,34,218,323,218c0,0,153,0,229,-70c0,0,77,-69,77,-202V202c0,0,0,-59,16,-90c0,0,16,-30,60,-30c0,0,19,0,44,5V4C850,4,799,-7,746,-7c0,0,-75,0,-109,38c0,0,-33,40,-38,124h-4C595,155,543,62,475,24c0,0,-68,-38,-166,-38Z" 
id="f0_1x"
transform="scale(0.001,-0.001)" />

<path d="M106,0V635c0,0,0,141,-5,173H228c0,0,1,-4,2,-21c0,0,1,-16,2,-37c0,0,1,-22,2,-81h2c0,0,44,86,100,120c0,0,56,33,136,33c0,0,92,0,145,-36c0,0,54,-37,75,-117h2c0,0,42,82,101,117c0,0,59,36,143,36c0,0,123,0,178,-66c0,0,56,-67,56,-218V0H1039V512c0,0,0,117,-32,162c0,0,-32,45,-116,45c0,0,-88,0,-136,-66c0,0,-49,-65,-49,-185V0H573V512c0,0,0,117,-32,162c0,0,-32,45,-116,45c0,0,-86,0,-136,-66c0,0,-50,-66,-50,-185V0Z" 
id="f0_29"
transform="scale(0.001,-0.001)" />

<path d="M453,84c0,0,100,0,146,74c0,0,46,73,46,247c0,0,0,169,-46,241c0,0,-45,73,-145,73c0,0,-80,0,-125,-34c0,0,-45,-34,-68,-105c0,0,-24,-71,-24,-186c0,0,0,-159,51,-234c0,0,51,-76,165,-76ZM103,-316V643c0,0,0,124,-5,165H228c0,0,1,-3,3,-22c0,0,1,-18,3,-56c0,0,2,-38,2,-52h3c0,0,36,75,94,110c0,0,59,34,156,34c0,0,149,0,223,-100c0,0,74,-100,74,-314c0,0,0,-422,-297,-422c0,0,-187,0,-251,140h-4c0,0,3,-6,3,-126V-316Z" 
id="f0_2c"
transform="scale(0.001,-0.001)" />

<path d="M420,84c0,0,121,0,173,78c0,0,52,77,52,243c0,0,0,167,-50,243c0,0,-50,76,-167,76c0,0,-118,0,-170,-78c0,0,-53,-77,-53,-241c0,0,0,-160,52,-241c0,0,52,-80,163,-80Zm1,-98c0,0,-176,0,-267,107c0,0,-90,108,-90,312c0,0,0,417,362,417c0,0,185,0,272,-102c0,0,88,-101,88,-315c0,0,0,-212,-94,-316C692,89,599,-14,421,-14Z" 
id="f0_2b"
transform="scale(0.001,-0.001)" />

<path d="M278,-11c0,0,-162,0,-162,182V710H23v98h99l39,181h90V808H400V710H251V200c0,0,0,-58,19,-82c0,0,19,-23,66,-23c0,0,27,0,77,10V6c0,0,-66,-17,-135,-17Z" 
id="f0_2g"
transform="scale(0.001,-0.001)" />

<path d="M365,-315c0,0,-136,187,-199,359c0,0,-62,172,-62,359c0,0,0,186,62,358c0,0,63,172,199,360h92c0,0,-110,-192,-160,-365c0,0,-51,-172,-51,-353c0,0,0,-183,51,-355c0,0,50,-172,160,-363Z" 
id="f1_b"
transform="scale(0.001,-0.001)" />

<path d="M104,0V799H238V0Zm-2,946v152H239V946Z" 
id="f1_24"
transform="scale(0.001,-0.001)" />

<path d="M52,-315c0,0,109,192,160,363c0,0,50,173,50,354c0,0,0,183,-50,355c0,0,-51,173,-160,364h92c0,0,135,-188,198,-360c0,0,63,-172,63,-359c0,0,0,-187,-63,-359c0,0,-63,-171,-198,-358Z" 
id="f1_c"
transform="scale(0.001,-0.001)" />

<path d="M131,0V1097H934V966H280V631H877V500H280V131H942V0Z" 
id="f1_14"
transform="scale(0.001,-0.001)" />

<path d="M310,0L12,799H168L383,145L604,799H752L454,0Z" 
id="f1_2h"
transform="scale(0.001,-0.001)" />

<path d="M649,461c0,0,-6,111,-55,172c0,0,-55,69,-160,69c0,0,-106,0,-170,-79c0,0,-50,-62,-60,-162ZM425,-20c0,0,-169,0,-266,106c0,0,-97,107,-97,297c0,0,0,201,102,320c0,0,103,119,276,119c0,0,157,0,253,-116c0,0,96,-117,96,-306l-1,-48H204c0,0,8,-119,54,-182c0,0,57,-76,180,-76c0,0,77,0,134,43c0,0,58,43,70,110H775C775,247,746,116,656,47c0,0,-90,-67,-231,-67Z" 
id="f1_20"
transform="scale(0.001,-0.001)" />

<path d="M118,0V799H246V662c0,0,17,32,36,58c0,0,76,102,187,102c0,0,19,0,38,-6V679l-27,1c0,0,-109,0,-168,-66c0,0,-60,-65,-60,-186V0Z" 
id="f1_2d"
transform="scale(0.001,-0.001)" />

<path d="M152,-323c-8,0,-38,1,-63,8v125c0,0,30,-11,77,-12c0,0,45,0,76,37c0,0,30,38,69,140l2,12v1L17,799H170L383,139L600,799H747L443,-25c0,0,-70,-184,-125,-241c0,0,-55,-57,-164,-57c0,0,-1,0,-2,0Z" 
id="f1_2k"
transform="scale(0.001,-0.001)" />

<path d="M99,0V799H226V681l30,39c0,0,87,102,219,102c0,0,132,0,203,-71c0,0,72,-72,72,-204V0H616V502c0,0,0,105,-41,151c0,0,-40,47,-132,47c0,0,-97,0,-154,-73c0,0,-56,-74,-56,-199V0Z" 
id="f1_29"
transform="scale(0.001,-0.001)" />

<path d="M424,94c0,0,107,0,169,83c0,0,63,83,63,223c0,0,0,140,-63,224c0,0,-62,83,-169,83c0,0,-106,0,-168,-83c0,0,-62,-84,-62,-224c0,0,0,-140,62,-223c0,0,62,-83,168,-83Zm0,-114c0,0,-165,0,-268,115C156,95,54,211,54,400c0,0,0,189,102,306c0,0,103,116,268,116c0,0,168,0,270,-116c0,0,102,-117,102,-306c0,0,0,-189,-102,-305C694,95,592,-20,424,-20Z" 
id="f1_2a"
transform="scale(0.001,-0.001)" />

<path d="M47,0V105L526,687H83V799H706V695L227,111H717V0Z" 
id="f1_2l"
transform="scale(0.001,-0.001)" />

<path d="M103,0V1097H237V0Z" 
id="f1_27"
transform="scale(0.001,-0.001)" />

<path d="M99,0V799H226V680l28,36c0,0,90,106,215,106c0,0,107,0,171,-63c0,0,28,-28,44,-65l21,28c0,0,87,100,208,100c0,0,125,0,194,-68c0,0,68,-68,68,-194V0H1041V515c0,0,0,91,-37,138c0,0,-38,47,-110,47c0,0,-87,0,-139,-68c0,0,-52,-68,-52,-183V0H569V547c0,0,0,75,-34,114c0,0,-34,39,-99,39c0,0,-89,0,-146,-76c0,0,-57,-76,-57,-196V0Z" 
id="f1_28"
transform="scale(0.001,-0.001)" />

<path d="M292,-9c0,0,-88,0,-124,38c0,0,-36,39,-36,134V689H22V799H132v224H266V799H392V689H266V163c0,0,0,-27,21,-43c0,0,21,-15,57,-15h48V1C392,1,324,-9,292,-9Z" 
id="f1_2f"
transform="scale(0.001,-0.001)" />

<path d="M132,0V687H22V799H132V935c0,0,0,88,52,133c0,0,52,45,157,45l59,-3V989l-53,2c0,0,-39,0,-60,-24c0,0,-21,-25,-21,-71V799H400V687H266V0Z" 
id="f1_21"
transform="scale(0.001,-0.001)" />

<path d="M593,101c0,0,96,1,171,37L647,230l72,89L856,209l14,15c0,0,106,124,106,324c0,0,0,201,-105,325c0,0,-106,123,-277,123c0,0,-171,0,-277,-123C317,873,212,749,212,548c0,0,0,-201,105,-324c0,0,106,-123,276,-123ZM1046,-83L881,45c0,0,-122,-74,-287,-74c0,0,-239,0,-387,158C207,129,60,288,60,548c0,0,0,260,147,419c0,0,148,160,387,160c0,0,240,0,387,-160c0,0,147,-159,147,-419c0,0,0,-260,-147,-419L970,118l31,-24c0,0,110,-88,117,-94l-72,-83Z" 
id="f1_1g"
transform="scale(0.001,-0.001)" />

<path d="M393,-20c0,0,-169,0,-252,65c0,0,-83,67,-92,210H178c0,0,10,-85,61,-123c0,0,50,-38,154,-38c0,0,90,0,136,34c0,0,47,35,47,100c0,0,0,42,-31,64c0,0,-30,21,-123,43L283,368c0,0,-112,27,-160,75c0,0,-48,48,-48,135c0,0,0,112,80,178c0,0,81,66,218,66c0,0,140,0,222,-68c0,0,82,-67,88,-187H557c0,0,-6,67,-55,103c0,0,-48,37,-129,37c0,0,-84,0,-127,-29c0,0,-44,-29,-44,-85c0,0,0,-43,31,-65c0,0,30,-21,121,-43L493,452c0,0,117,-28,167,-78c0,0,49,-49,49,-138c0,0,0,-119,-86,-188c0,0,-85,-68,-230,-68Z" 
id="f1_2e"
transform="scale(0.001,-0.001)" />

<path d="M436,95c0,0,105,0,160,79c0,0,54,80,54,232c0,0,0,150,-52,222c0,0,-52,72,-161,72c0,0,-112,0,-163,-81c0,0,-51,-82,-51,-258c0,0,0,-127,55,-197c0,0,55,-69,158,-69Zm6,-115c0,0,-135,0,-215,102L215,98V0H89V1097H223V695c0,0,87,127,225,127c1,0,2,0,2,0c0,0,157,0,249,-108c0,0,91,-107,91,-291c0,0,0,-208,-92,-326C698,97,606,-20,442,-20Z" 
id="f1_1x"
transform="scale(0.001,-0.001)" />

<path d="M248,0L21,799H169L322,163L478,799H627L788,158L950,799h133L857,0H713L548,624L392,0Z" 
id="f1_2i"
transform="scale(0.001,-0.001)" />

<path d="M99,0V1097H233V690l23,30c0,0,87,102,219,102c0,0,132,0,203,-71c0,0,72,-72,72,-204V0H616V514c0,0,0,99,-38,142c0,0,-38,44,-124,44c0,0,-102,0,-162,-73c0,0,-59,-74,-59,-199V0Z" 
id="f1_23"
transform="scale(0.001,-0.001)" />

<path d="M417,-328c0,0,-125,17,-203,101c0,0,-78,83,-78,189c0,0,0,49,17,120c0,0,17,72,17,108c0,0,0,55,-42,100c0,0,-42,45,-128,61v29c0,0,80,15,125,59c0,0,44,45,44,98c0,0,0,39,-17,110c0,0,-18,71,-18,122c0,0,0,105,79,191c0,0,79,85,203,100v-28c0,0,-85,-15,-129,-65c0,0,-45,-49,-45,-114c0,0,0,-45,15,-117c0,0,15,-72,15,-120c0,0,0,-74,-53,-142c0,0,-53,-68,-158,-106c0,0,107,-44,160,-111c0,0,52,-67,52,-141c0,0,0,-45,-15,-117c0,0,-15,-73,-15,-117c0,0,0,-64,43,-113c0,0,42,-49,131,-71v-26Z" 
id="f2_2n"
transform="scale(0.001,-0.001)" />

<path d="M160,-328v29c0,0,85,15,129,64c0,0,44,48,44,114c0,0,0,45,-14,117c0,0,-15,71,-15,120c0,0,0,73,53,142c0,0,53,68,158,106c0,0,-108,43,-160,110c0,0,-52,67,-52,141c0,0,0,45,15,118c0,0,14,73,14,117c0,0,0,64,-42,113c0,0,-42,49,-131,71v26c0,0,125,-17,203,-101c0,0,78,-84,78,-188c0,0,0,-50,-17,-122c0,0,-17,-72,-17,-109c0,0,0,-54,42,-99c0,0,41,-45,128,-61V351c0,0,-81,-14,-125,-59c0,0,-44,-45,-44,-97c0,0,0,-39,17,-111c0,0,18,-71,18,-121c0,0,0,-105,-79,-190c0,0,-79,-86,-203,-101Z" 
id="f2_2p"
transform="scale(0.001,-0.001)" />

<path d="M406,0V763H155V870h2c16,0,114,2,178,48c0,0,70,51,104,157H549V0Z" 
id="f1_k"
transform="scale(0.001,-0.001)" />

<path d="M432,92c0,0,96,0,156,66c0,0,61,65,61,169c0,0,0,103,-61,169c0,0,-60,66,-156,66c0,0,-95,0,-156,-66c0,0,-61,-66,-61,-169c0,0,0,-104,61,-169c0,0,61,-66,156,-66ZM425,-28c0,0,-176,0,-271,135c0,0,-95,136,-95,388c0,0,0,278,103,429c0,0,103,151,293,151c0,0,142,0,226,-77c0,0,84,-76,90,-211H638c0,0,-8,80,-56,123c0,0,-47,43,-127,43c0,0,-125,0,-192,-119c0,0,-58,-102,-64,-278c0,0,100,127,255,127c0,0,152,0,245,-98c0,0,93,-98,93,-258c0,0,0,-161,-101,-259c0,0,-101,-96,-266,-96Z" 
id="f1_p"
transform="scale(0.001,-0.001)" />

<path d="M133,-224v71c0,0,47,8,65,52c0,0,14,33,17,101H133V163H292V27c0,0,0,-114,-36,-172c0,0,-37,-58,-123,-79Z" 
id="f1_f"
transform="scale(0.001,-0.001)" />

<path d="M424,92c0,0,114,0,170,107c0,0,57,108,56,323c0,0,1,216,-56,324c0,0,-56,107,-170,107c0,0,-112,0,-168,-107c0,0,-56,-108,-57,-324c0,0,1,-215,57,-323c0,0,56,-107,168,-107Zm0,-120c0,0,-176,0,-271,142c0,0,-96,143,-96,408c0,0,0,265,96,409c0,0,95,144,271,144c0,0,178,0,273,-144c0,0,96,-144,96,-409c0,0,0,-265,-96,-408c0,0,-95,-142,-273,-142Z" 
id="f1_j"
transform="scale(0.001,-0.001)" />

<path d="M133,0V162H292V0Z" 
id="f1_h"
transform="scale(0.001,-0.001)" />

<path d="M0,356v74H784V356Z" 
id="f2_h"
transform="scale(0.001,-0.001)" />

<path d="M0,214v74H784V214ZM0,494v72H784V494Z" 
id="f2_x"
transform="scale(0.001,-0.001)" />

<path d="M398,0C398,0,266,0,185,39c0,0,-82,39,-133,124C52,163,0,248,0,342c0,0,0,144,103,243c0,0,103,98,292,98H694V611H387c0,0,-99,0,-166,-32c0,0,-68,-32,-105,-88c0,0,-26,-40,-41,-113H694V304H75c0,0,30,-120,103,-176c0,0,73,-56,210,-56H694V0Z" 
id="f2_40"
transform="scale(0.001,-0.001)" />

<path d="M354,90c0,0,107,0,192,57c0,0,60,41,87,95c0,0,5,12,11,33c0,0,6,20,11,44l18,88c0,0,-62,-26,-132,-37L414,352c0,0,-84,-11,-131,-56c0,0,-47,-45,-47,-113c0,0,0,-44,31,-69c0,0,31,-24,87,-24ZM306,-20c0,0,-99,0,-156,47c0,0,-57,49,-57,134c0,0,1,117,81,198c0,0,80,81,211,98l164,20l70,10c0,0,35,6,59,30c0,0,23,24,31,66l1,2c0,0,13,64,-25,94c0,0,-39,31,-132,31c0,0,-83,0,-137,-37c0,0,-54,-37,-84,-114H210c0,0,46,137,138,201c0,0,92,63,245,63c0,0,149,0,211,-59c0,0,45,-44,44,-116c0,0,1,-30,-6,-63L749,136c0,0,-4,-19,6,-32c0,0,10,-12,30,-12c0,0,6,0,19,1c0,0,12,2,25,5L809,1c0,0,-19,-6,-43,-11c0,0,-22,-5,-36,-5c0,0,-73,0,-100,43c0,0,-16,27,-17,75C612,102,594,85,573,69c0,0,-120,-89,-267,-89Z" 
id="f3_1w"
transform="scale(0.001,-0.001)" />

<path d="M615,99c0,0,92,1,173,35L685,227l92,93L900,209c0,0,33,29,62,64c0,0,144,173,144,414c0,0,0,145,-82,228c0,0,-81,83,-223,83c0,0,-200,0,-343,-171C458,827,314,656,314,418c0,0,-1,-148,80,-234c0,0,81,-85,221,-85ZM1023,-76L889,44c0,0,-135,-73,-300,-73c0,0,-199,0,-314,111c0,0,-115,113,-115,308c0,0,0,310,194,524c0,0,193,213,474,213c0,0,200,0,316,-109c0,0,116,-109,116,-296v-3c0,0,0,-315,-195,-532c0,0,-33,-37,-68,-67L1116,11l-93,-87Z" 
id="f3_1g"
transform="scale(0.001,-0.001)" />

<path d="M424,-28c0,0,-180,0,-272,86c0,0,-92,87,-100,266H192c0,0,12,-126,66,-180c0,0,55,-54,170,-54c0,0,100,0,163,57c0,0,64,57,64,147c0,0,0,94,-61,149c0,0,-52,48,-135,54c0,0,-38,2,-72,2c0,0,-34,0,-45,-3V613c0,0,17,-3,51,-3c0,0,35,0,68,4c0,0,66,8,106,43c0,0,55,45,55,125c0,0,0,77,-58,125c0,0,-58,48,-148,48c0,0,-96,0,-147,-58c0,0,-51,-59,-56,-175H82c0,0,0,168,89,260c0,0,88,93,250,93c0,0,153,0,247,-77c0,0,94,-76,94,-202c0,0,0,-124,-95,-201c0,0,-18,-15,-39,-27c0,0,39,-17,69,-41c0,0,101,-79,101,-214c0,0,0,-151,-105,-246c0,0,-104,-95,-269,-95Z" 
id="f1_m"
transform="scale(0.001,-0.001)" />

<path d="M528,-29c0,0,-215,0,-336,99C192,70,75,170,75,342v8H211c0,0,4,-119,87,-184c0,0,83,-65,231,-65c0,0,136,0,207,47c0,0,71,47,71,138c0,0,0,79,-47,118c0,0,-47,37,-187,71L382,520c0,0,-145,34,-207,96c0,0,-62,61,-62,169c0,0,0,158,107,250c0,0,107,92,289,92c0,0,185,0,295,-92c0,0,110,-93,117,-256H784c0,0,-9,104,-81,161c0,0,-72,56,-194,56c0,0,-125,0,-190,-48c0,0,-65,-49,-65,-142c0,0,0,-64,43,-95c0,0,43,-32,174,-62L662,603c0,0,154,-37,220,-108c0,0,65,-71,65,-201c0,0,0,-150,-113,-237c0,0,-113,-86,-306,-86Z" 
id="f1_1i"
transform="scale(0.001,-0.001)" />

<path d="M335,90c0,0,106,0,179,57c0,0,50,41,67,91c0,0,3,10,4,31c0,0,3,21,3,47v87c0,0,-38,-18,-83,-25L381,360c0,0,-97,-13,-142,-45c0,0,-44,-31,-44,-86c0,0,0,-67,36,-103c0,0,37,-36,104,-36ZM309,-20c0,0,-117,0,-186,61c0,0,-68,63,-68,169c0,0,0,108,64,171c0,0,65,64,189,79l183,23c0,0,22,3,42,8c0,0,26,7,40,27c0,0,15,20,15,51v6c0,0,0,64,-49,101c0,0,-48,36,-135,36c0,0,-83,0,-130,-38c0,0,-46,-39,-56,-115H94c0,0,10,131,92,197c0,0,83,66,238,66c0,0,145,0,222,-63c0,0,76,-63,76,-184V137c0,0,0,-21,12,-33c0,0,12,-12,33,-12c0,0,6,0,18,1c0,0,11,2,25,5V1c0,0,-20,-7,-41,-11c0,0,-22,-5,-37,-5c0,0,-76,0,-110,41c0,0,-22,28,-32,79c0,0,-15,-19,-34,-36c0,0,-101,-89,-247,-89Z" 
id="f1_1w"
transform="scale(0.001,-0.001)" />

<path d="M131,0L274,688H168l23,112H296l26,125c0,0,20,98,82,143c0,0,62,46,176,46c0,0,33,0,59,-5L609,990c0,0,0,3,-53,3c0,0,-45,0,-70,-25c0,0,-25,-25,-37,-83L431,800H575L553,688H409L266,0Z" 
id="f3_21"
transform="scale(0.001,-0.001)" />

<path d="M133,0V162H292V0Zm0,628V790H292V628Z" 
id="f1_t"
transform="scale(0.001,-0.001)" />

<path d="M773,597c0,0,120,0,185,67c0,0,65,66,65,188c0,0,0,57,-42,88c0,0,-43,31,-119,31H483L406,597ZM134,0L361,1097H900c0,0,134,0,208,-55c0,0,73,-55,74,-156c0,0,0,-171,-116,-280c0,0,-44,-41,-96,-66c0,0,30,-13,50,-31c0,0,57,-55,35,-179L1020,133c0,0,-9,-48,-3,-70c0,0,6,-21,32,-39L1045,1H865c0,0,-1,30,5,87c0,0,6,58,15,111l14,81c0,0,19,102,-17,147c0,0,-36,44,-134,44H380L283,0Z" 
id="f3_1h"
transform="scale(0.001,-0.001)" />

<path d="M390,-1V329H60V441H390V771H503V441H833V329H503V-1Z" 
id="f1_e"
transform="scale(0.001,-0.001)" />

<path d="M968,-20c0,0,42,100,87,170c0,0,45,70,144,184H56v73H1199c0,0,-106,122,-148,189c0,0,-43,67,-83,166h60c0,0,87,-108,217,-218c0,0,130,-110,206,-154V349c0,0,-99,-56,-217,-159c0,0,-117,-102,-206,-210Z" 
id="f2_34"
transform="scale(0.001,-0.001)" />

<path d="M411,93c0,0,98,0,158,73c0,0,60,74,60,195c0,0,0,163,-57,252c0,0,-56,88,-161,88c0,0,-113,0,-165,-72c0,0,-52,-72,-52,-229c0,0,0,-147,56,-227c0,0,56,-80,161,-80ZM404,-20c0,0,-161,0,-255,118c0,0,-95,120,-95,324c0,0,0,179,92,290c0,0,91,110,239,110c0,0,147,0,233,-124l11,-15v414H763V0H638V109L621,84C621,84,538,-20,404,-20Z" 
id="f1_1z"
transform="scale(0.001,-0.001)" />

<path d="M412,-328c0,0,-195,96,-303,284C109,-44,0,142,0,365c0,0,0,232,114,422c0,0,114,191,298,273v-31c0,0,-92,-51,-151,-139c0,0,-59,-88,-88,-223c0,0,-29,-136,-29,-282c0,0,0,-167,27,-301c0,0,26,-133,82,-221c0,0,55,-89,159,-159v-32Z" 
id="f2_c"
transform="scale(0.001,-0.001)" />

<path d="M34,-328v32c0,0,92,50,151,138c0,0,59,88,88,222c0,0,29,135,29,283c0,0,0,165,-27,300c0,0,-26,134,-82,222c0,0,-56,89,-159,160v31c0,0,194,-96,303,-284c0,0,108,-187,108,-410c0,0,0,-232,-114,-422c0,0,-114,-191,-297,-272Z" 
id="f2_d"
transform="scale(0.001,-0.001)" />

<path d="M39,0V0c0,0,0,170,84,277c0,0,85,108,317,236c0,0,113,62,154,115c0,0,41,52,41,134c0,0,0,86,-62,141c0,0,-61,54,-156,54c0,0,-101,0,-158,-68c0,0,-57,-68,-60,-194H67c0,0,-2,178,95,279c0,0,98,101,273,101c0,0,149,0,245,-89c0,0,94,-88,94,-228c0,0,0,-118,-60,-195c0,0,-61,-76,-229,-169C485,394,303,294,237,212c0,0,-28,-36,-46,-81H774V0Z" 
id="f1_l"
transform="scale(0.001,-0.001)" />

<path d="M17,0L389,412L201,800H376L500,518L742,800H904L554,410L750,0H580L448,303L187,0Z" 
id="f3_2j"
transform="scale(0.001,-0.001)" />

<path d="M33,-318c0,0,-30,0,-55,4v117H2c0,0,59,0,79,18c0,0,21,19,21,71V799H236V-108c0,0,0,-111,-48,-160c0,0,-48,-50,-155,-50ZM100,946v152H237V946Z" 
id="f1_25"
transform="scale(0.001,-0.001)" />

<path d="M394,-20c0,0,-159,0,-253,113c0,0,-95,114,-95,307c0,0,0,193,98,308c0,0,98,114,264,114c0,0,144,0,230,-78c0,0,85,-79,91,-217H600c0,0,-8,86,-59,133c0,0,-52,47,-138,47c0,0,-101,0,-159,-82c0,0,-58,-82,-58,-225c0,0,0,-152,54,-229c0,0,53,-77,159,-77c0,0,79,0,132,50c0,0,52,51,69,143H729C729,287,709,137,623,58c0,0,-86,-78,-229,-78Z" 
id="f1_1y"
transform="scale(0.001,-0.001)" />

<path d="M67,354V492H442V354Z" 
id="f1_g"
transform="scale(0.001,-0.001)" />

<path d="M436,95c0,0,105,0,160,79c0,0,54,80,54,232c0,0,0,150,-52,222c0,0,-52,72,-161,72c0,0,-112,0,-163,-81c0,0,-51,-82,-51,-258c0,0,0,-127,55,-197c0,0,55,-69,158,-69ZM89,-315V799H216V685l7,10c0,0,86,127,228,127c0,0,156,0,248,-108c0,0,91,-107,91,-291c0,0,0,-208,-92,-326C698,97,606,-20,442,-20c0,0,-135,0,-215,102l-4,6V-315Z" 
id="f1_2b"
transform="scale(0.001,-0.001)" />

<path d="M375,-20c0,0,-136,0,-203,66c0,0,-68,68,-68,204V799H238V284c0,0,0,-101,38,-146c0,0,39,-44,127,-44c0,0,97,0,153,75c0,0,57,75,57,203V799H747V0H620V122c0,0,-14,-22,-30,-41C590,81,504,-20,375,-20Z" 
id="f1_2g"
transform="scale(0.001,-0.001)" />

<path d="M564,-29c0,0,-227,0,-362,155C202,126,67,283,67,548c0,0,0,265,140,422c0,0,140,157,376,157c0,0,186,0,305,-95c0,0,120,-96,144,-263H889c0,0,-21,109,-101,168c0,0,-81,59,-207,59c0,0,-165,0,-263,-121c0,0,-98,-122,-98,-327c0,0,0,-219,91,-333c0,0,91,-114,263,-114c0,0,128,0,212,78c0,0,85,79,113,224h142c0,0,-28,-203,-155,-318C886,85,758,-29,564,-29Z" 
id="f1_12"
transform="scale(0.001,-0.001)" />

<path d="M96,-299V1104H382V995H217V-191H382V-299Z" 
id="f1_1q"
transform="scale(0.001,-0.001)" />

<path d="M0,368V478H849V368Z" 
id="f1_99"
transform="scale(0.001,-0.001)" />

<path d="M417,-28c0,0,-161,0,-259,79c0,0,-98,81,-109,223H189c0,0,11,-90,72,-139c0,0,61,-49,162,-49c0,0,96,0,158,68c0,0,61,68,61,175c0,0,0,112,-64,178c0,0,-64,66,-173,66c0,0,-59,0,-115,-28c0,0,-55,-29,-84,-73L93,480l77,573H727V922H271L225,629l4,3c0,0,89,60,188,60c0,0,169,0,269,-94c0,0,99,-93,99,-253c0,0,0,-165,-103,-269C682,76,579,-28,417,-28Z" 
id="f1_o"
transform="scale(0.001,-0.001)" />

<path d="M213,177c0,0,71,0,125,63c0,0,35,42,88,200c0,0,-37,82,-84,121c0,0,-47,38,-115,38c0,0,-79,0,-133,-55C94,544,41,488,41,395c0,0,0,-99,53,-159c0,0,52,-59,119,-59ZM752,150c0,0,92,0,153,66c0,0,62,66,62,177c0,0,0,109,-65,181c0,0,-65,71,-145,71c0,0,-52,0,-90,-26c0,0,-39,-26,-70,-83c0,0,-18,-34,-78,-190c0,0,56,-117,111,-156c0,0,54,-40,122,-40ZM749,79c0,0,-74,0,-137,54c0,0,-42,36,-114,159c0,0,-48,-92,-105,-133c0,0,-57,-41,-137,-41c0,0,-108,0,-182,77C74,195,0,272,0,394c0,0,0,123,69,198c0,0,68,76,160,76c0,0,64,0,113,-33c0,0,50,-34,106,-138c0,0,50,116,111,162c0,0,60,45,164,45c0,0,121,0,203,-87c0,0,83,-86,83,-224c0,0,0,-137,-81,-225c0,0,-80,-89,-179,-89Z" 
id="f2_2v"
transform="scale(0.001,-0.001)" />

<path d="M418,95c0,0,98,0,158,73c0,0,59,73,59,193c0,0,0,170,-54,254c0,0,-54,85,-163,85c0,0,-113,0,-165,-72c0,0,-52,-71,-52,-227c0,0,0,-147,57,-227c0,0,56,-79,160,-79ZM394,-336c0,0,-136,0,-216,62c0,0,-79,63,-96,182H219c0,0,12,-64,57,-98c0,0,45,-35,116,-35c0,0,116,0,176,73c0,0,61,73,61,211V85l-1,-1C628,84,545,-20,412,-20c0,0,-161,0,-256,118c0,0,-94,120,-94,324c0,0,0,179,93,290c0,0,93,110,244,110c0,0,144,0,228,-124l10,-14V799H763V59c0,0,-1,-201,-91,-298c0,0,-91,-97,-278,-97Z" 
id="f1_22"
transform="scale(0.001,-0.001)" />

<path d="M60,174V286H832V174Zm0,309V595H832V483Z" 
id="f1_w"
transform="scale(0.001,-0.001)" />

<path d="M419,483c0,0,93,0,152,66c0,0,59,66,59,169c0,0,0,103,-59,169c0,0,-59,65,-152,65c0,0,-94,0,-153,-65c0,0,-59,-66,-59,-169c0,0,0,-103,59,-169c0,0,59,-66,153,-66ZM397,-28c0,0,-143,0,-227,75c0,0,-85,77,-91,211H209c0,0,8,-83,57,-128c0,0,49,-45,131,-45c0,0,121,0,186,135c0,0,48,101,62,265C645,485,545,362,397,362c0,0,-150,0,-241,98c0,0,-91,98,-91,258c0,0,0,160,99,258c0,0,99,98,262,98c0,0,173,0,266,-123c0,0,94,-123,94,-349c0,0,0,-303,-101,-467C685,135,583,-28,397,-28Z" 
id="f1_s"
transform="scale(0.001,-0.001)" />

<path d="M355,0V355H0v72H355V784h72V427H782V355H427V0Z" 
id="f2_f"
transform="scale(0.001,-0.001)" />

<path d="M139,0V1097H287V0Z" 
id="f1_18"
transform="scale(0.001,-0.001)" />

<path d="M99,720V856c0,0,0,116,36,174c0,0,37,58,123,79v-70c0,0,-47,-8,-65,-52c0,0,-14,-35,-16,-104h81V720Z" 
id="f1_9b"
transform="scale(0.001,-0.001)" />

<path d="M397,585L300,732L203,586L101,662L206,803L41,853L80,976L242,917l-4,177H364L360,916l161,60L560,852L395,802L500,662L397,585Z" 
id="f4_d"
transform="scale(0.001,-0.001)" />

<path d="M81,708v70c0,0,47,8,65,52c0,0,14,35,16,104H81v163H241V961c0,0,0,-116,-37,-174c0,0,-37,-58,-123,-79Z" 
id="f1_9c"
transform="scale(0.001,-0.001)" />

<path d="M538,658L467,798L339,659l-64,54L409,848L252,898l46,85L452,927l32,171h93L538,927l176,56l11,-86L547,847L624,712L538,658Z" 
id="f3_d"
transform="scale(0.001,-0.001)" />

<path d="M456,95c0,0,130,0,213,121c0,0,82,120,82,310c0,0,0,85,-44,131c0,0,-44,46,-125,46c0,0,-98,0,-174,-90c0,0,-76,-90,-108,-245c0,0,-26,-126,16,-199c0,0,42,-74,140,-74ZM436,-20c0,0,-132,0,-195,108l-5,7L217,0H89L316,1097H450L365,683l10,11c0,0,120,129,262,129c0,0,121,0,190,-77c0,0,69,-77,69,-211c0,0,0,-234,-134,-395C762,140,629,-20,436,-20Z" 
id="f3_1x"
transform="scale(0.001,-0.001)" />

<path d="M96,177l23,112H892L869,177Zm63,307l23,112H955L932,484Z" 
id="f3_w"
transform="scale(0.001,-0.001)" />

<path d="M393,0l68,330H130l23,113H484l68,330H665L596,443H927L903,330H573L505,0Z" 
id="f3_e"
transform="scale(0.001,-0.001)" />

<path d="M133,0l33,162H326L292,0Z" 
id="f3_h"
transform="scale(0.001,-0.001)" />

<path d="M575,590c0,0,115,0,169,48c0,0,54,49,54,154c0,0,0,92,-54,135c0,0,-54,43,-169,43H280V590ZM131,0V1097H611c0,0,160,0,249,-80c0,0,90,-80,90,-222c0,0,0,-156,-90,-244c0,0,-89,-88,-249,-88c0,0,-34,0,-82,0c-72,0,-177,0,-249,-1V0Z" 
id="f1_1f"
transform="scale(0.001,-0.001)" />

<path d="M131,0V1097H891V966H280V631H814V500H280V0Z" 
id="f1_15"
transform="scale(0.001,-0.001)" />

<path d="M682,450L513,936L337,450ZM22,0L436,1097H605L999,0H839L728,319H290L175,0Z" 
id="f1_10"
transform="scale(0.001,-0.001)" />

<path d="M17,0L301,412L32,799H205L389,514L574,799H740L471,410L749,0H581L382,305L186,0Z" 
id="f1_2j"
transform="scale(0.001,-0.001)" />

<path d="M511,373V863L169,383l-7,-10ZM511,0V258H38V383l496,691H646V373H799V258H646V0Z" 
id="f1_n"
transform="scale(0.001,-0.001)" />

<path d="M435,95c0,0,93,0,168,75c0,0,74,75,99,192c0,0,35,167,-1,254c0,0,-36,87,-140,87c0,0,-127,0,-208,-116c0,0,-80,-116,-80,-298c0,0,0,-93,43,-143c0,0,42,-51,119,-51ZM318,-336c0,0,-125,0,-193,65c0,0,-67,64,-61,180H198c0,0,-3,-62,39,-96c0,0,42,-35,119,-35c0,0,116,0,185,67c0,0,69,67,96,204l9,41l-2,-2C644,88,535,-20,404,-20c0,0,-127,0,-198,74c0,0,-70,75,-70,212c0,0,1,240,121,398c0,0,121,159,303,159c0,0,143,0,206,-129l8,-16l25,122H927L772,49c0,0,-39,-191,-153,-288c0,0,-114,-97,-301,-97Z" 
id="f3_22"
transform="scale(0.001,-0.001)" />

<path d="M406,93c0,0,97,0,156,73c0,0,59,74,59,195c0,0,0,163,-56,252c0,0,-55,88,-158,88c0,0,-111,0,-162,-72c0,0,-51,-73,-51,-229c0,0,0,-147,55,-227c0,0,55,-80,157,-80ZM621,-315V93l-7,-9C614,84,532,-20,400,-20c0,0,-159,0,-253,118c0,0,-93,119,-93,323c0,0,0,180,90,291c0,0,91,110,237,110c0,0,146,0,231,-124c0,0,10,-14,17,-29V799H755V-315Z" 
id="f1_2c"
transform="scale(0.001,-0.001)" />

<path d="M344,0V155H494V0Zm9,286c0,0,-3,110,31,187c0,0,33,78,116,152c0,0,59,52,85,97c0,0,25,45,25,98c0,0,0,81,-48,130c0,0,-48,47,-130,47c0,0,-102,0,-152,-55c0,0,-51,-56,-63,-181H86c0,0,8,170,98,262c0,0,91,93,248,93c0,0,143,0,232,-82c0,0,88,-82,88,-214c0,0,0,-77,-38,-145c0,0,-38,-67,-128,-149c0,0,-58,-52,-81,-107c0,0,-23,-55,-21,-133Z" 
id="f1_y"
transform="scale(0.001,-0.001)" />

<path d="M86,-226l16,71c0,0,47,8,74,52c0,0,21,34,38,103H135l18,82l17,81H329L295,11c0,0,-23,-106,-70,-158c0,0,-45,-52,-139,-79Z" 
id="f3_f"
transform="scale(0.001,-0.001)" />

<path d="M42,-299v108H207V995H42v109H329V-299Z" 
id="f1_1s"
transform="scale(0.001,-0.001)" />

<path d="M144,-381V1146H255V-381Z" 
id="f1_2n"
transform="scale(0.001,-0.001)" />

<path d="M62,-123V268c0,0,0,230,56,452c0,0,47,190,134,334c0,0,87,144,204,242c0,0,85,73,194,119l18,-16c0,0,-211,-145,-335,-339c0,0,-98,-156,-149,-374c0,0,-50,-218,-50,-403V-123Z" 
id="f2_4o"
transform="scale(0.001,-0.001)" />

<path d="M617,-123V283c0,0,0,236,-63,459c0,0,-63,223,-188,392c0,0,-108,146,-282,265l17,16c0,0,180,-76,320,-248c0,0,139,-172,204,-417c0,0,64,-245,64,-482V-123Z" 
id="f2_54"
transform="scale(0.001,-0.001)" />

<path d="M62,-123V1415h72V-123Z" 
id="f2_4p"
transform="scale(0.001,-0.001)" />

<path d="M617,-123V1415h72V-123Z" 
id="f2_55"
transform="scale(0.001,-0.001)" />

<path d="M650,-123c0,0,-180,75,-319,246c0,0,-140,172,-205,418c0,0,-64,245,-64,481v393h72V1007c0,0,0,-236,63,-459c0,0,63,-223,189,-391c0,0,108,-145,282,-265l-18,-15Z" 
id="f2_4q"
transform="scale(0.001,-0.001)" />

<path d="M101,-123l-17,15c0,0,210,144,334,339c0,0,99,156,149,373c0,0,50,218,50,403v408h72V1022c0,0,0,-230,-56,-451c0,0,-48,-191,-134,-335C499,236,412,92,295,-5c0,0,-84,-73,-194,-118Z" 
id="f2_56"
transform="scale(0.001,-0.001)" />

<path d="M445,95c0,0,127,0,215,118c0,0,87,119,87,290c0,0,0,97,-46,151c0,0,-46,53,-129,53c0,0,-127,0,-214,-118c0,0,-87,-117,-87,-287c0,0,0,-98,45,-153c0,0,46,-54,129,-54ZM421,-20c0,0,-136,0,-215,81c0,0,-79,82,-79,223c0,0,0,227,136,383c0,0,136,156,333,156c0,0,138,0,217,-79c0,0,79,-80,79,-215v-3c0,0,0,-230,-136,-389C756,137,619,-20,421,-20Z" 
id="f3_2a"
transform="scale(0.001,-0.001)" />

<path d="M693,499L573,830L462,499ZM-39,0c0,0,33,42,61,97c0,0,30,55,71,148l314,761c0,0,22,51,38,98c0,0,15,47,17,63H721c0,0,2,-16,18,-63c0,0,15,-47,37,-98L1091,245c0,0,41,-95,70,-150c0,0,30,-55,60,-95H849c0,0,3,25,-3,55c0,0,-6,30,-24,80L765,295H393L340,135c0,0,-17,-50,-22,-80c0,0,-5,-30,-2,-55Z" 
id="f5_10"
transform="scale(0.001,-0.001)" />

<path d="M108,0c0,0,22,54,31,110c0,0,10,55,10,135V985L-5,1167H418c0,0,21,-44,54,-99c0,0,34,-55,96,-146L857,495V922c0,0,0,81,-9,136c0,0,-9,55,-32,109h378c0,0,-23,-54,-32,-109c0,0,-9,-55,-9,-136V351c0,0,0,-76,11,-178c0,0,11,-101,27,-173H845c0,0,-7,25,-28,67c0,0,-21,42,-45,78L444,628V245c0,0,0,-80,9,-135c0,0,10,-56,32,-110Z" 
id="f5_1d"
transform="scale(0.001,-0.001)" />

<path d="M367,-20c0,0,-85,0,-142,12C225,-8,167,2,83,35V332c0,0,41,-55,107,-90c0,0,66,-35,130,-35c0,0,51,0,84,31c0,0,32,31,32,81c0,0,0,49,-23,86c0,0,-22,37,-82,83c0,0,-126,98,-184,181c0,0,-57,82,-57,165c0,0,0,155,106,253c0,0,106,98,272,98c0,0,62,0,133,-13c0,0,71,-13,120,-33V867c0,0,-59,49,-104,70c0,0,-46,20,-94,20c0,0,-47,0,-76,-24c0,0,-29,-25,-29,-63c0,0,0,-41,20,-73c0,0,21,-31,75,-73c0,0,130,-101,189,-189c0,0,59,-87,59,-180c0,0,0,-165,-110,-270C651,85,541,-20,367,-20Z" 
id="f5_1i"
transform="scale(0.001,-0.001)" />

<path d="M324,0L78,922c0,0,-23,85,-44,140c0,0,-22,55,-50,105H376c0,0,-7,-56,-7,-99c0,0,1,-42,11,-89L479,513L610,998c0,0,11,42,21,91c0,0,10,49,13,78H861c0,0,4,-36,12,-85c0,0,9,-50,18,-84L1021,492l115,540c0,0,8,33,6,63c0,0,-1,31,-12,72h378c0,0,-30,-50,-52,-105c0,0,-21,-56,-45,-140L1166,0H925L741,597L565,0Z" 
id="f5_1m"
transform="scale(0.001,-0.001)" />

<path d="M102,0c0,0,22,54,31,110c0,0,10,55,10,135V922c0,0,0,81,-10,136c0,0,-9,55,-31,109H823L766,1041L709,913c0,0,-42,20,-137,36c0,0,-62,9,-121,13V697H798L728,569L657,441c0,0,-45,21,-131,36c0,0,-38,8,-75,11V206c0,0,117,6,201,22c0,0,126,24,239,84L827,156L762,0Z" 
id="f5_14"
transform="scale(0.001,-0.001)" />

<path d="M452,645c0,0,85,0,139,47c0,0,54,47,54,121c0,0,0,66,-51,107c0,0,-51,42,-132,42H442V645ZM93,0c0,0,22,54,32,110c0,0,9,55,9,135V922c0,0,0,81,-9,136c0,0,-10,55,-32,109H498c0,0,215,0,332,-90c0,0,117,-90,117,-256c0,0,0,-159,-129,-253c0,0,-46,-34,-103,-54L902,246c0,0,57,-82,107,-137c0,0,50,-55,115,-109H803c0,0,-30,0,-104,83c0,0,-73,83,-149,202L442,461V246c0,0,0,-81,9,-136c0,0,10,-56,32,-110Z" 
id="f5_1h"
transform="scale(0.001,-0.001)" />

<path d="M116,0V1097H294L844,205v892H987V0H824L259,895V0Z" 
id="f1_1d"
transform="scale(0.001,-0.001)" />

<path d="M212,0c0,0,51,270,162,500c0,0,109,222,281,422H57v131H799V934C799,934,623,726,515,498C515,498,408,269,362,0Z" 
id="f1_q"
transform="scale(0.001,-0.001)" />

<path d="M187,124L287,304H75c0,0,17,-67,37,-100c0,0,21,-33,75,-80ZM328,378L462,611H387c0,0,-143,0,-217,-61c0,0,-74,-61,-95,-172ZM52,-107L149,59c0,0,-76,63,-105,116C44,175,0,256,0,343c0,0,0,144,103,242c0,0,103,98,293,98H503l68,119h81L585,683H694V611H543L410,378H694V304H368L251,95c0,0,71,-23,137,-23H694V0H397C397,0,282,0,211,28L133,-107Z" 
id="f2_41"
transform="scale(0.001,-0.001)" />

<path d="M420,-303c-39,0,-114,5,-160,39c0,0,-63,48,-63,148V59c0,0,0,145,-34,221c0,0,-34,75,-98,75v90c0,0,64,0,98,75c0,0,34,76,34,221V917c0,0,0,101,63,149c0,0,53,39,154,39c11,0,22,0,33,-1V1000c0,0,-12,1,-28,1c-26,0,-62,-2,-78,-14c0,0,-26,-18,-26,-81V752c0,0,0,-213,-53,-291c0,0,-29,-42,-83,-60c0,0,54,-22,83,-62c0,0,53,-78,53,-291V-105c0,0,0,-62,26,-81c0,0,20,-14,76,-14c9,0,19,1,30,2V-302c0,0,-10,-1,-27,-1Z" 
id="f1_2m"
transform="scale(0.001,-0.001)" />

<path d="M97,-303c-10,0,-21,0,-32,1v104c0,0,12,-1,28,-1c25,0,61,2,77,13c0,0,27,19,27,81V48c0,0,0,213,53,291c0,0,28,40,82,62c0,0,-54,18,-82,60c0,0,-53,78,-53,291V906c0,0,0,63,-27,81c0,0,-20,14,-76,14c-9,0,-19,0,-29,-1v104c0,0,10,1,26,1c39,0,115,-5,160,-39c0,0,64,-48,64,-149V741c0,0,0,-145,33,-221c0,0,34,-75,99,-75V355c0,0,-65,0,-99,-75c0,0,-33,-76,-33,-221V-116c0,0,0,-100,-64,-148c0,0,-53,-39,-154,-39Z" 
id="f1_2o"
transform="scale(0.001,-0.001)" />

<path d="M475,91L710,641H238L475,91ZM434,0L0,1012H78L206,716H742l126,296h76L512,0Z" 
id="f2_6"
transform="scale(0.001,-0.001)" />

<path d="M494,385V878L152,385ZM494,0V262H20V385l498,708H628V385H775V262H628V0Z" 
id="f6_o"
transform="scale(0.001,-0.001)" />

<path d="M125,0V1051H268V115H799V0Z" 
id="f0_1c"
transform="scale(0.001,-0.001)" />

<path d="M106,0V620c0,0,0,85,-5,188H228c0,0,6,-138,6,-165h3c0,0,32,103,74,141c0,0,42,38,118,38c0,0,27,0,54,-7V692c0,0,-26,7,-71,7c0,0,-84,0,-128,-72c0,0,-44,-72,-44,-206V0Z" 
id="f0_2e"
transform="scale(0.001,-0.001)" />

<path d="M606,-14c0,0,-164,0,-284,65c0,0,-119,66,-182,189c0,0,-63,123,-63,291c0,0,0,255,137,396c0,0,137,140,386,140c0,0,174,0,283,-59c0,0,109,-59,168,-189L915,779c0,0,-44,90,-123,131c0,0,-79,41,-196,41c0,0,-182,0,-278,-110c0,0,-96,-110,-96,-310c0,0,0,-200,102,-315c0,0,102,-115,282,-115c0,0,103,0,193,31c0,0,89,31,144,85V407H629V526h445V164c0,0,-83,-85,-205,-132c0,0,-121,-46,-263,-46Z" 
id="f0_17"
transform="scale(0.001,-0.001)" />

<path d="M355,-14c0,0,-133,0,-194,65c0,0,-62,66,-62,219V808H234V296c0,0,0,-80,16,-124c0,0,16,-44,50,-64c0,0,34,-19,101,-19c0,0,97,0,153,66c0,0,55,67,55,185V808H744V172c0,0,0,-141,4,-172H621c0,0,0,4,-1,20c0,0,-1,17,-2,38c0,0,-1,21,-3,80h-2C613,138,567,55,506,20c0,0,-61,-34,-151,-34Z" 
id="f0_2h"
transform="scale(0.001,-0.001)" />

<path d="M395,89c0,0,115,0,166,79c0,0,51,79,51,246c0,0,0,160,-51,235c0,0,-51,75,-164,75c0,0,-102,0,-147,-75c0,0,-45,-75,-45,-244c0,0,0,-170,45,-243c0,0,45,-73,145,-73ZM361,-14c0,0,-153,0,-225,102c0,0,-72,103,-72,312c0,0,0,422,297,422c0,0,92,0,153,-33c0,0,61,-34,98,-107h2l-2,90v335H747V166c0,0,0,-126,4,-166H623c0,0,-2,12,-5,55c0,0,-3,44,-3,75h-3c0,0,-37,-78,-98,-111c0,0,-62,-33,-153,-33Z" 
id="f0_20"
transform="scale(0.001,-0.001)" />

<path d="M140,0V163H285V0Z" 
id="f0_i"
transform="scale(0.001,-0.001)" />


</defs>
</svg>