<?xml version="1.0" encoding="UTF-8" standalone="no"?>
<!DOCTYPE svg PUBLIC "-//W3C//DTD SVG 1.1//EN"
"http://www.w3.org/Graphics/SVG/1.1/DTD/svg11.dtd">
<svg viewBox="0 0 725 1102" version="1.1" xmlns="http://www.w3.org/2000/svg" xmlns:xlink="http://www.w3.org/1999/xlink">
<defs>
<style type="text/css"><![CDATA[
.g0_2{
fill: none;
stroke: #000000;
stroke-width: 0.76486665;
stroke-linecap: round;
stroke-linejoin: miter;
}
]]></style>
</defs>
<g fill="#D4D4D4" fill-opacity="0.56" >
<use xlink:href="#f0_1f" transform="matrix(50.9,-50.9,50.9,50.9,113.7,924.1)" />
<use xlink:href="#f0_2a" transform="matrix(50.9,-50.9,50.9,50.9,174.2,863.6)" />
<use xlink:href="#f0_28" transform="matrix(50.9,-50.9,50.9,50.9,217.4,820.3)" />
<use xlink:href="#f0_25" transform="matrix(50.9,-50.9,50.9,50.9,234.7,803.1)" />
<use xlink:href="#f0_2a" transform="matrix(50.9,-50.9,50.9,50.9,252,785.8)" />
<use xlink:href="#f0_21" transform="matrix(50.9,-50.9,50.9,50.9,295.2,742.5)" />
<use xlink:href="#f0_2k" transform="matrix(50.9,-50.9,50.9,50.9,338.4,699.3)" />
<use xlink:href="#f0_1x" transform="matrix(50.9,-50.9,50.9,50.9,377.3,660.4)" />
<use xlink:href="#f0_29" transform="matrix(50.9,-50.9,50.9,50.9,420.6,617.2)" />
<use xlink:href="#f0_2c" transform="matrix(50.9,-50.9,50.9,50.9,485.4,552.4)" />
<use xlink:href="#f0_2b" transform="matrix(50.9,-50.9,50.9,50.9,528.6,509.1)" />
<use xlink:href="#f0_25" transform="matrix(50.9,-50.9,50.9,50.9,571.9,465.9)" />
<use xlink:href="#f0_2a" transform="matrix(50.9,-50.9,50.9,50.9,589.1,448.6)" />
<use xlink:href="#f0_2g" transform="matrix(50.9,-50.9,50.9,50.9,632.4,405.4)" />
</g>
<g fill="#000000" >
<use xlink:href="#f1_1l" transform="matrix(12,0,0,12,93.5,252.8)" />
<use xlink:href="#f1_14" transform="matrix(12,0,0,12,107.3,252.8)" />
<use xlink:href="#f1_1h" transform="matrix(12,0,0,12,118.5,252.8)" />
<use xlink:href="#f1_1o" transform="matrix(12,0,0,12,131.3,252.8)" />
<use xlink:href="#f1_1i" transform="matrix(12,0,0,12,153.8,252.8)" />
<use xlink:href="#f1_17" transform="matrix(12,0,0,12,163.6,252.8)" />
<use xlink:href="#f1_1e" transform="matrix(12,0,0,12,178.5,252.8)" />
<use xlink:href="#f1_1h" transform="matrix(12,0,0,12,195,252.8)" />
<use xlink:href="#f1_1j" transform="matrix(12,0,0,12,207.9,252.8)" />
<use xlink:href="#f1_10" transform="matrix(12,0,0,12,229.4,252.8)" />
<use xlink:href="#f1_1d" transform="matrix(12,0,0,12,243.6,252.8)" />
<use xlink:href="#f1_1i" transform="matrix(12,0,0,12,259.2,252.8)" />
<use xlink:href="#f1_1m" transform="matrix(12,0,0,12,269,252.8)" />
<use xlink:href="#f1_14" transform="matrix(12,0,0,12,286.9,252.8)" />
<use xlink:href="#f1_1h" transform="matrix(12,0,0,12,298.1,252.8)" />
<use xlink:href="#f1_1j" transform="matrix(12,0,0,12,321.2,252.8)" />
<use xlink:href="#f1_1o" transform="matrix(12,0,0,12,332.7,252.8)" />
<use xlink:href="#f1_1f" transform="matrix(12,0,0,12,344.8,252.8)" />
<use xlink:href="#f1_14" transform="matrix(12,0,0,12,356.7,252.8)" />
<use xlink:href="#f1_1g" transform="matrix(12,0,0,12,378.1,252.8)" />
<use xlink:href="#f1_1k" transform="matrix(12,0,0,12,394.7,252.8)" />
<use xlink:href="#f1_14" transform="matrix(12,0,0,12,409.5,252.8)" />
<use xlink:href="#f1_1i" transform="matrix(12,0,0,12,420.7,252.8)" />
<use xlink:href="#f1_1j" transform="matrix(12,0,0,12,430.5,252.8)" />
<use xlink:href="#f1_18" transform="matrix(12,0,0,12,442,252.8)" />
<use xlink:href="#f1_1e" transform="matrix(12,0,0,12,449.1,252.8)" />
<use xlink:href="#f1_1d" transform="matrix(12,0,0,12,465.6,252.8)" />
<use xlink:href="#f1_1i" transform="matrix(12,0,0,12,481.2,252.8)" />
<use xlink:href="#f1_b" transform="matrix(12,0,0,12,501.1,252.8)" />
<use xlink:href="#f1_k" transform="matrix(12,0,0,12,510.2,252.8)" />
<use xlink:href="#f1_1c" transform="matrix(12,0,0,12,532.7,252.8)" />
<use xlink:href="#f1_10" transform="matrix(12,0,0,12,550.6,252.8)" />
<use xlink:href="#f1_1h" transform="matrix(12,0,0,12,564.8,252.8)" />
<use xlink:href="#f1_1a" transform="matrix(12,0,0,12,577.6,252.8)" />
<use xlink:href="#f1_c" transform="matrix(12,0,0,12,591.1,252.8)" />
<use xlink:href="#f2_k" transform="matrix(10.4,0,0,10.4,81.4,292)" />
<use xlink:href="#f2_h" transform="matrix(10.4,0,0,10.4,90.2,292)" />
<use xlink:href="#f2_18" transform="matrix(10.4,0,0,10.4,113.1,292)" />
<use xlink:href="#f2_21" transform="matrix(10.4,0,0,10.4,117.5,292)" />
<use xlink:href="#f2_10" transform="matrix(10.4,0,0,10.4,130.8,292)" />
<use xlink:href="#f2_24" transform="matrix(10.4,0,0,10.4,150.4,292)" />
<use xlink:href="#f2_2e" transform="matrix(10.4,0,0,10.4,153.9,292)" />
<use xlink:href="#f2_2f" transform="matrix(10.4,0,0,10.4,170.7,292)" />
<use xlink:href="#f2_23" transform="matrix(10.4,0,0,10.4,175.1,292)" />
<use xlink:href="#f2_20" transform="matrix(10.4,0,0,10.4,184,292)" />
<use xlink:href="#f2_2e" transform="matrix(10.4,0,0,10.4,201.7,292)" />
<use xlink:href="#f2_20" transform="matrix(10.4,0,0,10.4,209.9,292)" />
<use xlink:href="#f2_2f" transform="matrix(10.4,0,0,10.4,218.8,292)" />
<use xlink:href="#f2_2a" transform="matrix(10.4,0,0,10.4,232,292)" />
<use xlink:href="#f2_21" transform="matrix(10.4,0,0,10.4,240.9,292)" />
<use xlink:href="#f2_2e" transform="matrix(10.4,0,0,10.4,254.1,292)" />
<use xlink:href="#f2_2f" transform="matrix(10.4,0,0,10.4,262.1,292)" />
<use xlink:href="#f2_2g" transform="matrix(10.4,0,0,10.4,266.5,292)" />
<use xlink:href="#f2_1z" transform="matrix(10.4,0,0,10.4,275.4,292)" />
<use xlink:href="#f2_20" transform="matrix(10.4,0,0,10.4,284.3,292)" />
<use xlink:href="#f2_29" transform="matrix(10.4,0,0,10.4,293.1,292)" />
<use xlink:href="#f2_2f" transform="matrix(10.4,0,0,10.4,302,292)" />
<use xlink:href="#f2_2e" transform="matrix(10.4,0,0,10.4,306.4,292)" />
<use xlink:href="#f2_2a" transform="matrix(10.4,0,0,10.4,323.2,292)" />
<use xlink:href="#f2_21" transform="matrix(10.4,0,0,10.4,332.1,292)" />
<use xlink:href="#f2_1w" transform="matrix(10.4,0,0,10.4,345.5,292)" />
<use xlink:href="#f2_2e" transform="matrix(10.4,0,0,10.4,363.2,292)" />
<use xlink:href="#f2_1y" transform="matrix(10.4,0,0,10.4,371.2,292)" />
<use xlink:href="#f2_23" transform="matrix(10.4,0,0,10.4,379.1,292)" />
<use xlink:href="#f2_2a" transform="matrix(10.4,0,0,10.4,388,292)" />
<use xlink:href="#f2_2a" transform="matrix(10.4,0,0,10.4,396.9,292)" />
<use xlink:href="#f2_27" transform="matrix(10.4,0,0,10.4,405.7,292)" />
<use xlink:href="#f2_2f" transform="matrix(10.4,0,0,10.4,418.1,292)" />
<use xlink:href="#f2_23" transform="matrix(10.4,0,0,10.4,422.5,292)" />
<use xlink:href="#f2_20" transform="matrix(10.4,0,0,10.4,431.4,292)" />
<use xlink:href="#f2_29" transform="matrix(10.4,0,0,10.4,440.3,292)" />
<use xlink:href="#f2_2i" transform="matrix(10.4,0,0,10.4,457.9,292)" />
<use xlink:href="#f2_2d" transform="matrix(10.4,0,0,10.4,469.5,292)" />
<use xlink:href="#f2_24" transform="matrix(10.4,0,0,10.4,474.8,292)" />
<use xlink:href="#f2_2f" transform="matrix(10.4,0,0,10.4,478.3,292)" />
<use xlink:href="#f2_20" transform="matrix(10.4,0,0,10.4,482.7,292)" />
<use xlink:href="#f2_f" transform="matrix(10.4,0,0,10.4,491.6,292)" />
<use xlink:href="#f2_2i" transform="matrix(10.4,0,0,10.4,504.8,292)" />
<use xlink:href="#f2_23" transform="matrix(10.4,0,0,10.4,516.4,292)" />
<use xlink:href="#f2_24" transform="matrix(10.4,0,0,10.4,525.2,292)" />
<use xlink:href="#f2_1y" transform="matrix(10.4,0,0,10.4,528.8,292)" />
<use xlink:href="#f2_23" transform="matrix(10.4,0,0,10.4,536.7,292)" />
<use xlink:href="#f2_2a" transform="matrix(10.4,0,0,10.4,554.4,292)" />
<use xlink:href="#f2_21" transform="matrix(10.4,0,0,10.4,563.3,292)" />
<use xlink:href="#f2_21" transform="matrix(10.4,0,0,10.4,576.5,292)" />
<use xlink:href="#f2_2a" transform="matrix(10.4,0,0,10.4,581,292)" />
<use xlink:href="#f2_27" transform="matrix(10.4,0,0,10.4,589.8,292)" />
<use xlink:href="#f2_27" transform="matrix(10.4,0,0,10.4,593.4,292)" />
<use xlink:href="#f2_2a" transform="matrix(10.4,0,0,10.4,596.9,292)" />
<use xlink:href="#f2_2i" transform="matrix(10.4,0,0,10.4,605.8,292)" />
<use xlink:href="#f2_24" transform="matrix(10.4,0,0,10.4,617.3,292)" />
<use xlink:href="#f2_29" transform="matrix(10.4,0,0,10.4,620.8,292)" />
<use xlink:href="#f2_22" transform="matrix(10.4,0,0,10.4,629.7,292)" />
<use xlink:href="#f2_2d" transform="matrix(10.4,0,0,10.4,113.1,312.2)" />
<use xlink:href="#f2_20" transform="matrix(10.4,0,0,10.4,118.4,312.2)" />
<use xlink:href="#f2_27" transform="matrix(10.4,0,0,10.4,127.3,312.2)" />
<use xlink:href="#f2_1w" transform="matrix(10.4,0,0,10.4,130.8,312.2)" />
<use xlink:href="#f2_2f" transform="matrix(10.4,0,0,10.4,139.7,312.2)" />
<use xlink:href="#f2_24" transform="matrix(10.4,0,0,10.4,144.1,312.2)" />
<use xlink:href="#f2_2a" transform="matrix(10.4,0,0,10.4,147.6,312.2)" />
<use xlink:href="#f2_29" transform="matrix(10.4,0,0,10.4,156.5,312.2)" />
<use xlink:href="#f2_2e" transform="matrix(10.4,0,0,10.4,165.4,312.2)" />
<use xlink:href="#f2_1w" transform="matrix(10.4,0,0,10.4,180.7,312.2)" />
<use xlink:href="#f2_2d" transform="matrix(10.4,0,0,10.4,189.6,312.2)" />
<use xlink:href="#f2_20" transform="matrix(10.4,0,0,10.4,194.9,312.2)" />
<use xlink:href="#f2_h" transform="matrix(10.4,0,0,10.4,203.7,312.2)" />
<use xlink:href="#f2_b" transform="matrix(10.4,0,0,10.4,215.3,312.2)" />
<use xlink:href="#f2_1k" transform="matrix(10.4,0,0,10.4,220.6,312.2)" />
<use xlink:href="#f2_29" transform="matrix(10.4,0,0,10.4,232.2,312.2)" />
<use xlink:href="#f2_24" transform="matrix(10.4,0,0,10.4,241,312.2)" />
<use xlink:href="#f2_2h" transform="matrix(10.4,0,0,10.4,244.6,312.2)" />
<use xlink:href="#f2_20" transform="matrix(10.4,0,0,10.4,252.5,312.2)" />
<use xlink:href="#f2_2d" transform="matrix(10.4,0,0,10.4,261.4,312.2)" />
<use xlink:href="#f2_2e" transform="matrix(10.4,0,0,10.4,266.7,312.2)" />
<use xlink:href="#f2_1w" transform="matrix(10.4,0,0,10.4,274.7,312.2)" />
<use xlink:href="#f2_27" transform="matrix(10.4,0,0,10.4,283.6,312.2)" />
<use xlink:href="#f2_f" transform="matrix(10.4,0,0,10.4,287.1,312.2)" />
<use xlink:href="#f2_14" transform="matrix(10.4,0,0,10.4,298.9,312.2)" />
<use xlink:href="#f2_28" transform="matrix(10.4,0,0,10.4,309.5,312.2)" />
<use xlink:href="#f2_2b" transform="matrix(10.4,0,0,10.4,322.8,312.2)" />
<use xlink:href="#f2_2f" transform="matrix(10.4,0,0,10.4,331.7,312.2)" />
<use xlink:href="#f2_2k" transform="matrix(10.4,0,0,10.4,336.1,312.2)" />
<use xlink:href="#f2_2a" transform="matrix(10.4,0,0,10.4,351.2,312.2)" />
<use xlink:href="#f2_2d" transform="matrix(10.4,0,0,10.4,360.1,312.2)" />
<use xlink:href="#f2_29" transform="matrix(10.4,0,0,10.4,372.7,312.2)" />
<use xlink:href="#f2_20" transform="matrix(10.4,0,0,10.4,381.6,312.2)" />
<use xlink:href="#f2_24" transform="matrix(10.4,0,0,10.4,390.5,312.2)" />
<use xlink:href="#f2_2f" transform="matrix(10.4,0,0,10.4,394,312.2)" />
<use xlink:href="#f2_23" transform="matrix(10.4,0,0,10.4,398.5,312.2)" />
<use xlink:href="#f2_20" transform="matrix(10.4,0,0,10.4,407.3,312.2)" />
<use xlink:href="#f2_2d" transform="matrix(10.4,0,0,10.4,416.2,312.2)" />
<use xlink:href="#f2_2a" transform="matrix(10.4,0,0,10.4,428.8,312.2)" />
<use xlink:href="#f2_21" transform="matrix(10.4,0,0,10.4,437.7,312.2)" />
<use xlink:href="#f2_2f" transform="matrix(10.4,0,0,10.4,449.3,312.2)" />
<use xlink:href="#f2_23" transform="matrix(10.4,0,0,10.4,453.7,312.2)" />
<use xlink:href="#f2_20" transform="matrix(10.4,0,0,10.4,462.6,312.2)" />
<use xlink:href="#f2_2f" transform="matrix(10.4,0,0,10.4,478.8,312.2)" />
<use xlink:href="#f2_2i" transform="matrix(10.4,0,0,10.4,483.2,312.2)" />
<use xlink:href="#f2_2a" transform="matrix(10.4,0,0,10.4,494.7,312.2)" />
<use xlink:href="#f2_c" transform="matrix(10.4,0,0,10.4,503.6,312.2)" />
<use xlink:href="#f2_h" transform="matrix(10.4,0,0,10.4,508.9,312.2)" />
<use xlink:href="#f3_1h" transform="matrix(10.4,0,0,10.4,168.1,346.1)" />
<use xlink:href="#f2_k" transform="matrix(7.4,0,0,7.4,179.6,351.4)" />
<use xlink:href="#f2_w" transform="matrix(10.4,0,0,10.4,192.6,346.1)" />
<use xlink:href="#f2_2m" transform="matrix(10.4,0,0,10.4,208.9,346.1)" />
<use xlink:href="#f2_b" transform="matrix(10.4,0,0,10.4,214.3,346.1)" />
<use xlink:href="#f3_1w" transform="matrix(10.4,0,0,10.4,219.6,346.1)" />
<use xlink:href="#f3_f" transform="matrix(10.4,0,0,10.4,228.5,346.1)" />
<use xlink:href="#f3_1x" transform="matrix(10.4,0,0,10.4,239.9,346.1)" />
<use xlink:href="#f2_c" transform="matrix(10.4,0,0,10.4,248.6,346.1)" />
<use xlink:href="#f2_t" transform="matrix(10.4,0,0,10.4,260.9,346.1)" />
<use xlink:href="#f3_1w" transform="matrix(10.4,0,0,10.4,272.2,346.1)" />
<use xlink:href="#f3_f" transform="matrix(10.4,0,0,10.4,281.1,346.1)" />
<use xlink:href="#f3_1x" transform="matrix(10.4,0,0,10.4,292.5,346.1)" />
<use xlink:href="#f2_1w" transform="matrix(10.4,0,0,10.4,308.2,346.1)" />
<use xlink:href="#f2_2d" transform="matrix(10.4,0,0,10.4,317,346.1)" />
<use xlink:href="#f2_20" transform="matrix(10.4,0,0,10.4,322.3,346.1)" />
<use xlink:href="#f2_1w" transform="matrix(10.4,0,0,10.4,338.2,346.1)" />
<use xlink:href="#f2_22" transform="matrix(10.4,0,0,10.4,347,346.1)" />
<use xlink:href="#f2_20" transform="matrix(10.4,0,0,10.4,355.9,346.1)" />
<use xlink:href="#f2_2e" transform="matrix(10.4,0,0,10.4,364.8,346.1)" />
<use xlink:href="#f2_2a" transform="matrix(10.4,0,0,10.4,379.7,346.1)" />
<use xlink:href="#f2_21" transform="matrix(10.4,0,0,10.4,388.6,346.1)" />
<use xlink:href="#f2_2e" transform="matrix(10.4,0,0,10.4,400,346.1)" />
<use xlink:href="#f2_2f" transform="matrix(10.4,0,0,10.4,408,346.1)" />
<use xlink:href="#f2_2g" transform="matrix(10.4,0,0,10.4,412.4,346.1)" />
<use xlink:href="#f2_1z" transform="matrix(10.4,0,0,10.4,421.3,346.1)" />
<use xlink:href="#f2_20" transform="matrix(10.4,0,0,10.4,430.1,346.1)" />
<use xlink:href="#f2_29" transform="matrix(10.4,0,0,10.4,439,346.1)" />
<use xlink:href="#f2_2f" transform="matrix(10.4,0,0,10.4,447.9,346.1)" />
<use xlink:href="#f2_2e" transform="matrix(10.4,0,0,10.4,452.3,346.1)" />
<use xlink:href="#f2_1w" transform="matrix(10.4,0,0,10.4,467.3,346.1)" />
<use xlink:href="#f2_29" transform="matrix(10.4,0,0,10.4,476.1,346.1)" />
<use xlink:href="#f2_1z" transform="matrix(10.4,0,0,10.4,485,346.1)" />
<use xlink:href="#f2_2n" transform="matrix(10.4,0,0,10.4,500.8,346.1)" />
<use xlink:href="#f3_1w" transform="matrix(10.4,0,0,10.4,504.3,346.1)" />
<use xlink:href="#f3_99" transform="matrix(10.4,0,0,10.4,520.2,346.1)" />
<use xlink:href="#f3_1x" transform="matrix(10.4,0,0,10.4,536,346.1)" />
<use xlink:href="#f2_2n" transform="matrix(10.4,0,0,10.4,544.7,346.1)" />
<use xlink:href="#f4_39" transform="matrix(10.4,0,0,10.4,555.8,346.1)" />
<use xlink:href="#f2_j" transform="matrix(10.4,0,0,10.4,571.6,346.1)" />
<use xlink:href="#f2_2o" transform="matrix(10.4,0,0,10.4,580.5,346.1)" />
<use xlink:href="#f3_1h" transform="matrix(10.4,0,0,10.4,168.1,380)" />
<use xlink:href="#f2_l" transform="matrix(7.4,0,0,7.4,179.6,385.3)" />
<use xlink:href="#f2_w" transform="matrix(10.4,0,0,10.4,192.6,380)" />
<use xlink:href="#f2_2m" transform="matrix(10.4,0,0,10.4,208.9,380)" />
<use xlink:href="#f2_b" transform="matrix(10.4,0,0,10.4,214.3,380)" />
<use xlink:href="#f3_1w" transform="matrix(10.4,0,0,10.4,219.6,380)" />
<use xlink:href="#f3_f" transform="matrix(10.4,0,0,10.4,228.5,380)" />
<use xlink:href="#f3_1x" transform="matrix(10.4,0,0,10.4,239.9,380)" />
<use xlink:href="#f2_c" transform="matrix(10.4,0,0,10.4,248.6,380)" />
<use xlink:href="#f2_t" transform="matrix(10.4,0,0,10.4,260.9,380)" />
<use xlink:href="#f3_1w" transform="matrix(10.4,0,0,10.4,272.2,380)" />
<use xlink:href="#f3_f" transform="matrix(10.4,0,0,10.4,281.1,380)" />
<use xlink:href="#f3_1x" transform="matrix(10.4,0,0,10.4,292.5,380)" />
<use xlink:href="#f2_1w" transform="matrix(10.4,0,0,10.4,308.2,380)" />
<use xlink:href="#f2_2d" transform="matrix(10.4,0,0,10.4,317,380)" />
<use xlink:href="#f2_20" transform="matrix(10.4,0,0,10.4,322.3,380)" />
<use xlink:href="#f2_2i" transform="matrix(10.4,0,0,10.4,338.2,380)" />
<use xlink:href="#f2_20" transform="matrix(10.4,0,0,10.4,349.7,380)" />
<use xlink:href="#f2_24" transform="matrix(10.4,0,0,10.4,358.6,380)" />
<use xlink:href="#f2_22" transform="matrix(10.4,0,0,10.4,362.1,380)" />
<use xlink:href="#f2_23" transform="matrix(10.4,0,0,10.4,371,380)" />
<use xlink:href="#f2_2f" transform="matrix(10.4,0,0,10.4,379.8,380)" />
<use xlink:href="#f2_2e" transform="matrix(10.4,0,0,10.4,384.3,380)" />
<use xlink:href="#f2_2a" transform="matrix(10.4,0,0,10.4,399.2,380)" />
<use xlink:href="#f2_21" transform="matrix(10.4,0,0,10.4,408.1,380)" />
<use xlink:href="#f2_2e" transform="matrix(10.4,0,0,10.4,419.5,380)" />
<use xlink:href="#f2_2f" transform="matrix(10.4,0,0,10.4,427.5,380)" />
<use xlink:href="#f2_2g" transform="matrix(10.4,0,0,10.4,431.9,380)" />
<use xlink:href="#f2_1z" transform="matrix(10.4,0,0,10.4,440.8,380)" />
<use xlink:href="#f2_20" transform="matrix(10.4,0,0,10.4,449.6,380)" />
<use xlink:href="#f2_29" transform="matrix(10.4,0,0,10.4,458.5,380)" />
<use xlink:href="#f2_2f" transform="matrix(10.4,0,0,10.4,467.4,380)" />
<use xlink:href="#f2_2e" transform="matrix(10.4,0,0,10.4,471.8,380)" />
<use xlink:href="#f2_f" transform="matrix(10.4,0,0,10.4,479.8,380)" />
<use xlink:href="#f2_1w" transform="matrix(10.4,0,0,10.4,491.2,380)" />
<use xlink:href="#f2_29" transform="matrix(10.4,0,0,10.4,500.1,380)" />
<use xlink:href="#f2_1z" transform="matrix(10.4,0,0,10.4,508.9,380)" />
<use xlink:href="#f2_2n" transform="matrix(10.4,0,0,10.4,524.8,380)" />
<use xlink:href="#f3_1w" transform="matrix(10.4,0,0,10.4,528.2,380)" />
<use xlink:href="#f3_99" transform="matrix(10.4,0,0,10.4,544,380)" />
<use xlink:href="#f3_1x" transform="matrix(10.4,0,0,10.4,559.8,380)" />
<use xlink:href="#f2_2n" transform="matrix(10.4,0,0,10.4,568.5,380)" />
<use xlink:href="#f2_v" transform="matrix(10.4,0,0,10.4,579.6,380)" />
<use xlink:href="#f2_j" transform="matrix(10.4,0,0,10.4,595.9,380)" />
<use xlink:href="#f2_2o" transform="matrix(10.4,0,0,10.4,604.8,380)" />
<use xlink:href="#f3_1h" transform="matrix(10.4,0,0,10.4,168.1,413.9)" />
<use xlink:href="#f2_m" transform="matrix(7.4,0,0,7.4,179.6,419.2)" />
<use xlink:href="#f2_w" transform="matrix(10.4,0,0,10.4,192.8,413.9)" />
<use xlink:href="#f2_2m" transform="matrix(10.4,0,0,10.4,209.1,413.9)" />
<use xlink:href="#f2_b" transform="matrix(10.4,0,0,10.4,214.5,413.9)" />
<use xlink:href="#f3_1w" transform="matrix(10.4,0,0,10.4,219.8,413.9)" />
<use xlink:href="#f3_f" transform="matrix(10.4,0,0,10.4,228.7,413.9)" />
<use xlink:href="#f3_1x" transform="matrix(10.4,0,0,10.4,240.2,413.9)" />
<use xlink:href="#f2_c" transform="matrix(10.4,0,0,10.4,248.9,413.9)" />
<use xlink:href="#f2_t" transform="matrix(10.4,0,0,10.4,261.2,413.9)" />
<use xlink:href="#f3_1w" transform="matrix(10.4,0,0,10.4,272.8,413.9)" />
<use xlink:href="#f3_f" transform="matrix(10.4,0,0,10.4,281.6,413.9)" />
<use xlink:href="#f3_1x" transform="matrix(10.4,0,0,10.4,292.9,413.9)" />
<use xlink:href="#f2_1w" transform="matrix(10.4,0,0,10.4,308.7,413.9)" />
<use xlink:href="#f2_2d" transform="matrix(10.4,0,0,10.4,317.6,413.9)" />
<use xlink:href="#f2_20" transform="matrix(10.4,0,0,10.4,322.9,413.9)" />
<use xlink:href="#f2_2e" transform="matrix(10.4,0,0,10.4,338.9,413.9)" />
<use xlink:href="#f2_2f" transform="matrix(10.4,0,0,10.4,346.9,413.9)" />
<use xlink:href="#f2_2g" transform="matrix(10.4,0,0,10.4,351.3,413.9)" />
<use xlink:href="#f2_1z" transform="matrix(10.4,0,0,10.4,360.2,413.9)" />
<use xlink:href="#f2_20" transform="matrix(10.4,0,0,10.4,369,413.9)" />
<use xlink:href="#f2_29" transform="matrix(10.4,0,0,10.4,377.9,413.9)" />
<use xlink:href="#f2_2f" transform="matrix(10.4,0,0,10.4,386.8,413.9)" />
<use xlink:href="#f2_2e" transform="matrix(10.4,0,0,10.4,391.2,413.9)" />
<use xlink:href="#f2_2e" transform="matrix(10.4,0,0,10.4,406.2,413.9)" />
<use xlink:href="#f2_2f" transform="matrix(10.4,0,0,10.4,414.1,413.9)" />
<use xlink:href="#f2_2g" transform="matrix(10.4,0,0,10.4,418.6,413.9)" />
<use xlink:href="#f2_1z" transform="matrix(10.4,0,0,10.4,427.4,413.9)" />
<use xlink:href="#f2_2k" transform="matrix(10.4,0,0,10.4,436.3,413.9)" />
<use xlink:href="#f2_24" transform="matrix(10.4,0,0,10.4,444.3,413.9)" />
<use xlink:href="#f2_29" transform="matrix(10.4,0,0,10.4,447.8,413.9)" />
<use xlink:href="#f2_22" transform="matrix(10.4,0,0,10.4,456.7,413.9)" />
<use xlink:href="#f2_24" transform="matrix(10.4,0,0,10.4,472.7,413.9)" />
<use xlink:href="#f2_29" transform="matrix(10.4,0,0,10.4,476.3,413.9)" />
<use xlink:href="#f2_2e" transform="matrix(10.4,0,0,10.4,492.1,413.9)" />
<use xlink:href="#f2_1w" transform="matrix(10.4,0,0,10.4,500.1,413.9)" />
<use xlink:href="#f2_28" transform="matrix(10.4,0,0,10.4,508.9,413.9)" />
<use xlink:href="#f2_20" transform="matrix(10.4,0,0,10.4,522.2,413.9)" />
<use xlink:href="#f2_1y" transform="matrix(10.4,0,0,10.4,538.2,413.9)" />
<use xlink:href="#f2_27" transform="matrix(10.4,0,0,10.4,546.2,413.9)" />
<use xlink:href="#f2_1w" transform="matrix(10.4,0,0,10.4,549.8,413.9)" />
<use xlink:href="#f2_2e" transform="matrix(10.4,0,0,10.4,558.6,413.9)" />
<use xlink:href="#f2_2e" transform="matrix(10.4,0,0,10.4,566.6,413.9)" />
<use xlink:href="#f2_2o" transform="matrix(10.4,0,0,10.4,574.6,413.9)" />
<use xlink:href="#f2_l" transform="matrix(10.4,0,0,10.4,81.4,447.8)" />
<use xlink:href="#f2_h" transform="matrix(10.4,0,0,10.4,90.2,447.8)" />
<use xlink:href="#f2_18" transform="matrix(10.4,0,0,10.4,113.1,447.8)" />
<use xlink:href="#f2_2e" transform="matrix(10.4,0,0,10.4,117.5,447.8)" />
<use xlink:href="#f2_2f" transform="matrix(10.4,0,0,10.4,132.1,447.8)" />
<use xlink:href="#f2_23" transform="matrix(10.4,0,0,10.4,136.5,447.8)" />
<use xlink:href="#f2_20" transform="matrix(10.4,0,0,10.4,145.4,447.8)" />
<use xlink:href="#f2_2d" transform="matrix(10.4,0,0,10.4,160.7,447.8)" />
<use xlink:href="#f2_20" transform="matrix(10.4,0,0,10.4,166,447.8)" />
<use xlink:href="#f2_27" transform="matrix(10.4,0,0,10.4,174.9,447.8)" />
<use xlink:href="#f2_1w" transform="matrix(10.4,0,0,10.4,178.4,447.8)" />
<use xlink:href="#f2_2f" transform="matrix(10.4,0,0,10.4,187.3,447.8)" />
<use xlink:href="#f2_24" transform="matrix(10.4,0,0,10.4,191.7,447.8)" />
<use xlink:href="#f2_2a" transform="matrix(10.4,0,0,10.4,195.2,447.8)" />
<use xlink:href="#f2_29" transform="matrix(10.4,0,0,10.4,204.1,447.8)" />
<use xlink:href="#f3_1h" transform="matrix(10.4,0,0,10.4,219.1,447.8)" />
<use xlink:href="#f2_24" transform="matrix(10.4,0,0,10.4,237.2,447.8)" />
<use xlink:href="#f2_29" transform="matrix(10.4,0,0,10.4,240.7,447.8)" />
<use xlink:href="#f2_2f" transform="matrix(10.4,0,0,10.4,256.2,447.8)" />
<use xlink:href="#f2_23" transform="matrix(10.4,0,0,10.4,260.7,447.8)" />
<use xlink:href="#f2_20" transform="matrix(10.4,0,0,10.4,269.5,447.8)" />
<use xlink:href="#f2_2e" transform="matrix(10.4,0,0,10.4,285,447.8)" />
<use xlink:href="#f2_20" transform="matrix(10.4,0,0,10.4,293,447.8)" />
<use xlink:href="#f2_2f" transform="matrix(10.4,0,0,10.4,301.8,447.8)" />
<use xlink:href="#f3_10" transform="matrix(10.4,0,0,10.4,312.6,447.8)" />
<use xlink:href="#f2_w" transform="matrix(10.4,0,0,10.4,329.8,447.8)" />
<use xlink:href="#f2_2m" transform="matrix(10.4,0,0,10.4,345.7,447.8)" />
<use xlink:href="#f2_k" transform="matrix(10.4,0,0,10.4,351,447.8)" />
<use xlink:href="#f2_f" transform="matrix(10.4,0,0,10.4,359.9,447.8)" />
<use xlink:href="#f2_l" transform="matrix(10.4,0,0,10.4,370.8,447.8)" />
<use xlink:href="#f2_f" transform="matrix(10.4,0,0,10.4,379.6,447.8)" />
<use xlink:href="#f2_m" transform="matrix(10.4,0,0,10.4,390.7,447.8)" />
<use xlink:href="#f2_f" transform="matrix(10.4,0,0,10.4,399.5,447.8)" />
<use xlink:href="#f2_n" transform="matrix(10.4,0,0,10.4,410.6,447.8)" />
<use xlink:href="#f2_f" transform="matrix(10.4,0,0,10.4,419.4,447.8)" />
<use xlink:href="#f2_o" transform="matrix(10.4,0,0,10.4,430.5,447.8)" />
<use xlink:href="#f2_2o" transform="matrix(10.4,0,0,10.4,439.3,447.8)" />
<use xlink:href="#f2_1z" transform="matrix(10.4,0,0,10.4,451.1,447.8)" />
<use xlink:href="#f2_20" transform="matrix(10.4,0,0,10.4,460,447.8)" />
<use xlink:href="#f2_21" transform="matrix(10.4,0,0,10.4,468.8,447.8)" />
<use xlink:href="#f2_24" transform="matrix(10.4,0,0,10.4,473.3,447.8)" />
<use xlink:href="#f2_29" transform="matrix(10.4,0,0,10.4,476.8,447.8)" />
<use xlink:href="#f2_20" transform="matrix(10.4,0,0,10.4,485.7,447.8)" />
<use xlink:href="#f2_1z" transform="matrix(10.4,0,0,10.4,494.5,447.8)" />
<use xlink:href="#f2_1w" transform="matrix(10.4,0,0,10.4,510,447.8)" />
<use xlink:href="#f2_2e" transform="matrix(10.4,0,0,10.4,518.9,447.8)" />
<use xlink:href="#f3_1h" transform="matrix(10.4,0,0,10.4,532.6,447.8)" />
<use xlink:href="#f2_w" transform="matrix(10.4,0,0,10.4,550.7,447.8)" />
<use xlink:href="#f2_2m" transform="matrix(10.4,0,0,10.4,566.6,447.8)" />
<use xlink:href="#f2_b" transform="matrix(10.4,0,0,10.4,572,447.8)" />
<use xlink:href="#f3_1w" transform="matrix(10.4,0,0,10.4,577.3,447.8)" />
<use xlink:href="#f3_f" transform="matrix(10.4,0,0,10.4,586.2,447.8)" />
<use xlink:href="#f3_1x" transform="matrix(10.4,0,0,10.4,597.2,447.8)" />
<use xlink:href="#f2_c" transform="matrix(10.4,0,0,10.4,605.9,447.8)" />
<use xlink:href="#f2_t" transform="matrix(10.4,0,0,10.4,617.8,447.8)" />
<use xlink:href="#f3_1x" transform="matrix(10.4,0,0,10.4,628.8,447.8)" />
<use xlink:href="#f2_w" transform="matrix(10.4,0,0,10.4,113.1,468)" />
<use xlink:href="#f3_1w" transform="matrix(10.4,0,0,10.4,129.4,468)" />
<use xlink:href="#f2_e" transform="matrix(10.4,0,0,10.4,145.2,468)" />
<use xlink:href="#f2_k" transform="matrix(10.4,0,0,10.4,161.6,468)" />
<use xlink:href="#f2_2o" transform="matrix(10.4,0,0,10.4,170.5,468)" />
<use xlink:href="#f2_2d" transform="matrix(10.4,0,0,10.4,182.8,468)" />
<use xlink:href="#f2_20" transform="matrix(10.4,0,0,10.4,188.1,468)" />
<use xlink:href="#f2_21" transform="matrix(10.4,0,0,10.4,197,468)" />
<use xlink:href="#f2_27" transform="matrix(10.4,0,0,10.4,201.4,468)" />
<use xlink:href="#f2_20" transform="matrix(10.4,0,0,10.4,205,468)" />
<use xlink:href="#f2_2j" transform="matrix(10.4,0,0,10.4,213.8,468)" />
<use xlink:href="#f2_24" transform="matrix(10.4,0,0,10.4,221.8,468)" />
<use xlink:href="#f2_2h" transform="matrix(10.4,0,0,10.4,225.3,468)" />
<use xlink:href="#f2_20" transform="matrix(10.4,0,0,10.4,233.3,468)" />
<use xlink:href="#f2_y" transform="matrix(10.4,0,0,10.4,242.2,468)" />
<use xlink:href="#f2_m" transform="matrix(10.4,0,0,10.4,81.4,501.9)" />
<use xlink:href="#f2_h" transform="matrix(10.4,0,0,10.4,90.2,501.9)" />
<use xlink:href="#f2_18" transform="matrix(10.4,0,0,10.4,113.1,501.9)" />
<use xlink:href="#f2_21" transform="matrix(10.4,0,0,10.4,117.5,501.9)" />
<use xlink:href="#f3_1h" transform="matrix(10.4,0,0,10.4,128.7,501.9)" />
<use xlink:href="#f2_f" transform="matrix(10.4,0,0,10.4,140.2,501.9)" />
<use xlink:href="#f2_24" transform="matrix(10.4,0,0,10.4,151.6,501.9)" />
<use xlink:href="#f2_2e" transform="matrix(10.4,0,0,10.4,155.2,501.9)" />
<use xlink:href="#f2_1w" transform="matrix(10.4,0,0,10.4,170.1,501.9)" />
<use xlink:href="#f2_2d" transform="matrix(10.4,0,0,10.4,185.9,501.9)" />
<use xlink:href="#f2_20" transform="matrix(10.4,0,0,10.4,191.3,501.9)" />
<use xlink:href="#f2_27" transform="matrix(10.4,0,0,10.4,200.1,501.9)" />
<use xlink:href="#f2_1w" transform="matrix(10.4,0,0,10.4,203.7,501.9)" />
<use xlink:href="#f2_2f" transform="matrix(10.4,0,0,10.4,212.5,501.9)" />
<use xlink:href="#f2_24" transform="matrix(10.4,0,0,10.4,217,501.9)" />
<use xlink:href="#f2_2a" transform="matrix(10.4,0,0,10.4,220.5,501.9)" />
<use xlink:href="#f2_29" transform="matrix(10.4,0,0,10.4,229.4,501.9)" />
<use xlink:href="#f2_24" transform="matrix(10.4,0,0,10.4,245.2,501.9)" />
<use xlink:href="#f2_29" transform="matrix(10.4,0,0,10.4,248.8,501.9)" />
<use xlink:href="#f2_2e" transform="matrix(10.4,0,0,10.4,264.6,501.9)" />
<use xlink:href="#f2_20" transform="matrix(10.4,0,0,10.4,272.6,501.9)" />
<use xlink:href="#f2_2f" transform="matrix(10.4,0,0,10.4,281.4,501.9)" />
<use xlink:href="#f3_1d" transform="matrix(10.4,0,0,10.4,292.2,501.9)" />
<use xlink:href="#f2_22" transform="matrix(10.4,0,0,10.4,310.7,501.9)" />
<use xlink:href="#f2_24" transform="matrix(10.4,0,0,10.4,319.6,501.9)" />
<use xlink:href="#f2_2h" transform="matrix(10.4,0,0,10.4,323.1,501.9)" />
<use xlink:href="#f2_20" transform="matrix(10.4,0,0,10.4,331.1,501.9)" />
<use xlink:href="#f2_29" transform="matrix(10.4,0,0,10.4,340,501.9)" />
<use xlink:href="#f2_1x" transform="matrix(10.4,0,0,10.4,355.8,501.9)" />
<use xlink:href="#f2_2k" transform="matrix(10.4,0,0,10.4,364.7,501.9)" />
<use xlink:href="#f3_1h" transform="matrix(10.4,0,0,10.4,168.1,535.8)" />
<use xlink:href="#f3_w" transform="matrix(10.4,0,0,10.4,186.4,535.8)" />
<use xlink:href="#f2_2m" transform="matrix(10.4,0,0,10.4,202.6,535.8)" />
<use xlink:href="#f2_b" transform="matrix(10.4,0,0,10.4,207.9,535.8)" />
<use xlink:href="#f3_1w" transform="matrix(10.4,0,0,10.4,213.2,535.8)" />
<use xlink:href="#f2_f" transform="matrix(10.4,0,0,10.4,222,535.8)" />
<use xlink:href="#f3_1x" transform="matrix(10.4,0,0,10.4,233.2,535.8)" />
<use xlink:href="#f3_c" transform="matrix(10.4,0,0,10.4,242,535.8)" />
<use xlink:href="#f2_t" transform="matrix(10.4,0,0,10.4,254.1,535.8)" />
<use xlink:href="#f3_1w" transform="matrix(10.4,0,0,10.4,265.2,535.8)" />
<use xlink:href="#f3_w" transform="matrix(10.4,0,0,10.4,280.9,535.8)" />
<use xlink:href="#f3_1x" transform="matrix(10.4,0,0,10.4,297,535.8)" />
<use xlink:href="#f3_99" transform="matrix(10.4,0,0,10.4,312.6,535.8)" />
<use xlink:href="#f2_m" transform="matrix(10.4,0,0,10.4,328.1,535.8)" />
<use xlink:href="#f2_f" transform="matrix(10.4,0,0,10.4,337,535.8)" />
<use xlink:href="#f3_1x" transform="matrix(10.4,0,0,10.4,348.1,535.8)" />
<use xlink:href="#f2_x" transform="matrix(10.4,0,0,10.4,363.7,535.8)" />
<use xlink:href="#f2_o" transform="matrix(10.4,0,0,10.4,380,535.8)" />
<use xlink:href="#f2_2o" transform="matrix(10.4,0,0,10.4,388.9,535.8)" />
<use xlink:href="#f2_f" transform="matrix(10.4,0,0,10.4,394.2,535.8)" />
<use xlink:href="#f2_2f" transform="matrix(10.4,0,0,10.4,113.1,569.8)" />
<use xlink:href="#f2_23" transform="matrix(10.4,0,0,10.4,117.5,569.8)" />
<use xlink:href="#f2_20" transform="matrix(10.4,0,0,10.4,126.4,569.8)" />
<use xlink:href="#f2_29" transform="matrix(10.4,0,0,10.4,135.3,569.8)" />
<use xlink:href="#f2_1z" transform="matrix(10.4,0,0,10.4,151.3,569.8)" />
<use xlink:href="#f2_2a" transform="matrix(10.4,0,0,10.4,160.1,569.8)" />
<use xlink:href="#f2_20" transform="matrix(10.4,0,0,10.4,169,569.8)" />
<use xlink:href="#f2_2e" transform="matrix(10.4,0,0,10.4,177.9,569.8)" />
<use xlink:href="#f2_20" transform="matrix(10.4,0,0,10.4,193,569.8)" />
<use xlink:href="#f2_27" transform="matrix(10.4,0,0,10.4,201.9,569.8)" />
<use xlink:href="#f2_20" transform="matrix(10.4,0,0,10.4,205.4,569.8)" />
<use xlink:href="#f2_28" transform="matrix(10.4,0,0,10.4,214.3,569.8)" />
<use xlink:href="#f2_20" transform="matrix(10.4,0,0,10.4,227.6,569.8)" />
<use xlink:href="#f2_29" transform="matrix(10.4,0,0,10.4,236.4,569.8)" />
<use xlink:href="#f2_2f" transform="matrix(10.4,0,0,10.4,245.3,569.8)" />
<use xlink:href="#f2_2e" transform="matrix(10.4,0,0,10.4,249.7,569.8)" />
<use xlink:href="#f2_b" transform="matrix(10.4,0,0,10.4,264.9,569.8)" />
<use xlink:href="#f2_o" transform="matrix(10.4,0,0,10.4,270.2,569.8)" />
<use xlink:href="#f2_f" transform="matrix(10.4,0,0,10.4,279,569.8)" />
<use xlink:href="#f2_q" transform="matrix(10.4,0,0,10.4,290.6,569.8)" />
<use xlink:href="#f2_c" transform="matrix(10.4,0,0,10.4,299.5,569.8)" />
<use xlink:href="#f4_40" transform="matrix(10.4,0,0,10.4,311.1,569.8)" />
<use xlink:href="#f2_1h" transform="matrix(10.4,0,0,10.4,329.8,569.8)" />
<use xlink:href="#f2_y" transform="matrix(10.4,0,0,10.4,341.3,569.8)" />
<use xlink:href="#f2_n" transform="matrix(10.4,0,0,10.4,81.4,603.7)" />
<use xlink:href="#f2_h" transform="matrix(10.4,0,0,10.4,90.2,603.7)" />
<use xlink:href="#f2_18" transform="matrix(10.4,0,0,10.4,113.1,603.7)" />
<use xlink:href="#f2_21" transform="matrix(10.4,0,0,10.4,117.5,603.7)" />
<use xlink:href="#f3_21" transform="matrix(10.4,0,0,10.4,128.7,603.7)" />
<use xlink:href="#f2_t" transform="matrix(10.4,0,0,10.4,146.8,603.7)" />
<use xlink:href="#f2_2m" transform="matrix(10.4,0,0,10.4,158.2,603.7)" />
<use xlink:href="#f2_k" transform="matrix(10.4,0,0,10.4,163.5,603.7)" />
<use xlink:href="#f2_f" transform="matrix(10.4,0,0,10.4,172.4,603.7)" />
<use xlink:href="#f2_m" transform="matrix(10.4,0,0,10.4,183.6,603.7)" />
<use xlink:href="#f2_2o" transform="matrix(10.4,0,0,10.4,192.5,603.7)" />
<use xlink:href="#f4_34" transform="matrix(10.4,0,0,10.4,204.6,603.7)" />
<use xlink:href="#f2_2m" transform="matrix(10.4,0,0,10.4,227.1,603.7)" />
<use xlink:href="#f2_k" transform="matrix(10.4,0,0,10.4,232.4,603.7)" />
<use xlink:href="#f2_f" transform="matrix(10.4,0,0,10.4,241.3,603.7)" />
<use xlink:href="#f2_l" transform="matrix(10.4,0,0,10.4,252.7,603.7)" />
<use xlink:href="#f2_f" transform="matrix(10.4,0,0,10.4,261.6,603.7)" />
<use xlink:href="#f2_o" transform="matrix(10.4,0,0,10.4,272.8,603.7)" />
<use xlink:href="#f2_2o" transform="matrix(10.4,0,0,10.4,281.7,603.7)" />
<use xlink:href="#f2_1w" transform="matrix(10.4,0,0,10.4,294,603.7)" />
<use xlink:href="#f2_29" transform="matrix(10.4,0,0,10.4,302.8,603.7)" />
<use xlink:href="#f2_1z" transform="matrix(10.4,0,0,10.4,311.7,603.7)" />
<use xlink:href="#f3_22" transform="matrix(10.4,0,0,10.4,326.9,603.7)" />
<use xlink:href="#f2_t" transform="matrix(10.4,0,0,10.4,342.6,603.7)" />
<use xlink:href="#f2_2m" transform="matrix(10.4,0,0,10.4,353.8,603.7)" />
<use xlink:href="#f2_k" transform="matrix(10.4,0,0,10.4,359.2,603.7)" />
<use xlink:href="#f2_f" transform="matrix(10.4,0,0,10.4,368,603.7)" />
<use xlink:href="#f2_l" transform="matrix(10.4,0,0,10.4,379.4,603.7)" />
<use xlink:href="#f2_f" transform="matrix(10.4,0,0,10.4,388.3,603.7)" />
<use xlink:href="#f2_o" transform="matrix(10.4,0,0,10.4,399.5,603.7)" />
<use xlink:href="#f2_2o" transform="matrix(10.4,0,0,10.4,408.4,603.7)" />
<use xlink:href="#f4_34" transform="matrix(10.4,0,0,10.4,420.4,603.7)" />
<use xlink:href="#f2_2m" transform="matrix(10.4,0,0,10.4,443.1,603.7)" />
<use xlink:href="#f2_k" transform="matrix(10.4,0,0,10.4,448.4,603.7)" />
<use xlink:href="#f2_f" transform="matrix(10.4,0,0,10.4,457.3,603.7)" />
<use xlink:href="#f2_l" transform="matrix(10.4,0,0,10.4,468.5,603.7)" />
<use xlink:href="#f2_f" transform="matrix(10.4,0,0,10.4,477.4,603.7)" />
<use xlink:href="#f2_m" transform="matrix(10.4,0,0,10.4,488.8,603.7)" />
<use xlink:href="#f2_f" transform="matrix(10.4,0,0,10.4,497.6,603.7)" />
<use xlink:href="#f2_n" transform="matrix(10.4,0,0,10.4,508.9,603.7)" />
<use xlink:href="#f2_2o" transform="matrix(10.4,0,0,10.4,517.7,603.7)" />
<use xlink:href="#f2_1x" transform="matrix(10.4,0,0,10.4,530,603.7)" />
<use xlink:href="#f2_20" transform="matrix(10.4,0,0,10.4,538.9,603.7)" />
<use xlink:href="#f2_22" transform="matrix(10.4,0,0,10.4,554.5,603.7)" />
<use xlink:href="#f2_24" transform="matrix(10.4,0,0,10.4,563.4,603.7)" />
<use xlink:href="#f2_2h" transform="matrix(10.4,0,0,10.4,567,603.7)" />
<use xlink:href="#f2_20" transform="matrix(10.4,0,0,10.4,574.9,603.7)" />
<use xlink:href="#f2_29" transform="matrix(10.4,0,0,10.4,583.8,603.7)" />
<use xlink:href="#f2_1x" transform="matrix(10.4,0,0,10.4,599.6,603.7)" />
<use xlink:href="#f2_2k" transform="matrix(10.4,0,0,10.4,608.5,603.7)" />
<use xlink:href="#f3_21" transform="matrix(10.4,0,0,10.4,128.3,637.6)" />
<use xlink:href="#f2_w" transform="matrix(10.4,0,0,10.4,139.5,637.6)" />
<use xlink:href="#f2_2m" transform="matrix(10.4,0,0,10.4,155.8,637.6)" />
<use xlink:href="#f2_b" transform="matrix(10.4,0,0,10.4,161.1,637.6)" />
<use xlink:href="#f2_k" transform="matrix(10.4,0,0,10.4,166.4,637.6)" />
<use xlink:href="#f2_f" transform="matrix(10.4,0,0,10.4,175.3,637.6)" />
<use xlink:href="#f2_l" transform="matrix(10.4,0,0,10.4,186.5,637.6)" />
<use xlink:href="#f2_c" transform="matrix(10.4,0,0,10.4,195.4,637.6)" />
<use xlink:href="#f2_f" transform="matrix(10.4,0,0,10.4,200.7,637.6)" />
<use xlink:href="#f2_b" transform="matrix(10.4,0,0,10.4,212.1,637.6)" />
<use xlink:href="#f2_m" transform="matrix(10.4,0,0,10.4,217.4,637.6)" />
<use xlink:href="#f2_f" transform="matrix(10.4,0,0,10.4,226.2,637.6)" />
<use xlink:href="#f2_o" transform="matrix(10.4,0,0,10.4,237.5,637.6)" />
<use xlink:href="#f2_c" transform="matrix(10.4,0,0,10.4,246.3,637.6)" />
<use xlink:href="#f2_2o" transform="matrix(10.4,0,0,10.4,251.6,637.6)" />
<use xlink:href="#f2_f" transform="matrix(10.4,0,0,10.4,257,637.6)" />
<use xlink:href="#f3_22" transform="matrix(10.4,0,0,10.4,268,637.6)" />
<use xlink:href="#f2_w" transform="matrix(10.4,0,0,10.4,283.6,637.6)" />
<use xlink:href="#f2_2m" transform="matrix(10.4,0,0,10.4,299.9,637.6)" />
<use xlink:href="#f2_b" transform="matrix(10.4,0,0,10.4,305.2,637.6)" />
<use xlink:href="#f2_k" transform="matrix(10.4,0,0,10.4,310.5,637.6)" />
<use xlink:href="#f2_f" transform="matrix(10.4,0,0,10.4,319.4,637.6)" />
<use xlink:href="#f2_m" transform="matrix(10.4,0,0,10.4,330.8,637.6)" />
<use xlink:href="#f2_c" transform="matrix(10.4,0,0,10.4,339.7,637.6)" />
<use xlink:href="#f2_f" transform="matrix(10.4,0,0,10.4,345,637.6)" />
<use xlink:href="#f2_b" transform="matrix(10.4,0,0,10.4,356.2,637.6)" />
<use xlink:href="#f2_l" transform="matrix(10.4,0,0,10.4,361.5,637.6)" />
<use xlink:href="#f2_f" transform="matrix(10.4,0,0,10.4,370.4,637.6)" />
<use xlink:href="#f2_m" transform="matrix(10.4,0,0,10.4,381.8,637.6)" />
<use xlink:href="#f2_c" transform="matrix(10.4,0,0,10.4,390.7,637.6)" />
<use xlink:href="#f2_f" transform="matrix(10.4,0,0,10.4,396,637.6)" />
<use xlink:href="#f2_b" transform="matrix(10.4,0,0,10.4,407.2,637.6)" />
<use xlink:href="#f2_o" transform="matrix(10.4,0,0,10.4,412.5,637.6)" />
<use xlink:href="#f2_f" transform="matrix(10.4,0,0,10.4,421.4,637.6)" />
<use xlink:href="#f2_k" transform="matrix(10.4,0,0,10.4,432.8,637.6)" />
<use xlink:href="#f2_c" transform="matrix(10.4,0,0,10.4,441.6,637.6)" />
<use xlink:href="#f2_2o" transform="matrix(10.4,0,0,10.4,447,637.6)" />
<use xlink:href="#f2_1m" transform="matrix(10.4,0,0,10.4,113.1,671.5)" />
<use xlink:href="#f2_2d" transform="matrix(10.4,0,0,10.4,128.1,671.5)" />
<use xlink:href="#f2_24" transform="matrix(10.4,0,0,10.4,133.4,671.5)" />
<use xlink:href="#f2_2f" transform="matrix(10.4,0,0,10.4,137,671.5)" />
<use xlink:href="#f2_20" transform="matrix(10.4,0,0,10.4,141.4,671.5)" />
<use xlink:href="#f2_1z" transform="matrix(10.4,0,0,10.4,157.6,671.5)" />
<use xlink:href="#f2_2a" transform="matrix(10.4,0,0,10.4,166.5,671.5)" />
<use xlink:href="#f2_2i" transform="matrix(10.4,0,0,10.4,175.4,671.5)" />
<use xlink:href="#f2_29" transform="matrix(10.4,0,0,10.4,186.9,671.5)" />
<use xlink:href="#f2_22" transform="matrix(10.4,0,0,10.4,203.3,671.5)" />
<use xlink:href="#f2_2a" transform="matrix(10.4,0,0,10.4,212.1,671.5)" />
<use xlink:href="#f2_21" transform="matrix(10.4,0,0,10.4,221,671.5)" />
<use xlink:href="#f2_h" transform="matrix(10.4,0,0,10.4,225.4,671.5)" />
<use xlink:href="#f2_o" transform="matrix(10.4,0,0,10.4,81.4,705.4)" />
<use xlink:href="#f2_h" transform="matrix(10.4,0,0,10.4,90.2,705.4)" />
<use xlink:href="#f2_1b" transform="matrix(10.4,0,0,10.4,113.1,705.4)" />
<use xlink:href="#f2_20" transform="matrix(10.4,0,0,10.4,121.9,705.4)" />
<use xlink:href="#f2_2f" transform="matrix(10.4,0,0,10.4,131.1,705.4)" />
<use xlink:href="#f3_22" transform="matrix(10.4,0,0,10.4,149.8,705.4)" />
<use xlink:href="#f3_f" transform="matrix(10.4,0,0,10.4,158.6,705.4)" />
<use xlink:href="#f3_21" transform="matrix(10.4,0,0,10.4,169.8,705.4)" />
<use xlink:href="#f2_t" transform="matrix(10.4,0,0,10.4,181.1,705.4)" />
<use xlink:href="#f3_1h" transform="matrix(10.4,0,0,10.4,192.3,705.4)" />
<use xlink:href="#f4_34" transform="matrix(10.4,0,0,10.4,210.8,705.4)" />
<use xlink:href="#f3_1h" transform="matrix(10.4,0,0,10.4,233.5,705.4)" />
<use xlink:href="#f2_1x" transform="matrix(10.4,0,0,10.4,252.1,705.4)" />
<use xlink:href="#f2_20" transform="matrix(10.4,0,0,10.4,260.9,705.4)" />
<use xlink:href="#f2_1z" transform="matrix(10.4,0,0,10.4,276.6,705.4)" />
<use xlink:href="#f2_20" transform="matrix(10.4,0,0,10.4,285.4,705.4)" />
<use xlink:href="#f2_21" transform="matrix(10.4,0,0,10.4,294.3,705.4)" />
<use xlink:href="#f2_24" transform="matrix(10.4,0,0,10.4,298.7,705.4)" />
<use xlink:href="#f2_29" transform="matrix(10.4,0,0,10.4,302.3,705.4)" />
<use xlink:href="#f2_20" transform="matrix(10.4,0,0,10.4,311.2,705.4)" />
<use xlink:href="#f2_1z" transform="matrix(10.4,0,0,10.4,320,705.4)" />
<use xlink:href="#f2_1x" transform="matrix(10.4,0,0,10.4,335.9,705.4)" />
<use xlink:href="#f2_2k" transform="matrix(10.4,0,0,10.4,344.7,705.4)" />
<use xlink:href="#f4_c" transform="matrix(10.3,0,0,11.3,164.2,748.3)" />
<use xlink:href="#f4_d" transform="matrix(10.3,0,0,11.3,180.7,748.2)" />
</g>
<path d="M203.9,746.2h35.8" class="g0_2" />
<g fill="#000000" >
<use xlink:href="#f4_c" transform="matrix(10.3,0,0,11.3,257,748.3)" />
<use xlink:href="#f4_d" transform="matrix(10.3,0,0,11.3,273.5,748.2)" />
<use xlink:href="#f4_f" transform="matrix(10.4,0,0,10.4,218.2,740.1)" />
<use xlink:href="#f4_x" transform="matrix(10.4,0,0,10.4,189.9,750.4)" />
<use xlink:href="#f4_x" transform="matrix(10.4,0,0,10.4,282.7,750.4)" />
<use xlink:href="#f4_h" transform="matrix(10.4,0,0,10.4,318.9,750.4)" />
<use xlink:href="#f2_l" transform="matrix(10.4,0,0,10.4,230.4,740.1)" />
<use xlink:href="#f2_f" transform="matrix(10.4,0,0,10.4,241.3,750.4)" />
<use xlink:href="#f2_m" transform="matrix(10.4,0,0,10.4,296,750.4)" />
<use xlink:href="#f2_l" transform="matrix(10.4,0,0,10.4,330.9,750.4)" />
<use xlink:href="#f2_h" transform="matrix(10.4,0,0,10.4,339.9,750.4)" />
<use xlink:href="#f2_1m" transform="matrix(10.4,0,0,10.4,347.8,750.4)" />
<use xlink:href="#f2_2d" transform="matrix(10.4,0,0,10.4,362.9,750.4)" />
<use xlink:href="#f2_24" transform="matrix(10.4,0,0,10.4,368.2,750.4)" />
<use xlink:href="#f2_2f" transform="matrix(10.4,0,0,10.4,371.7,750.4)" />
<use xlink:href="#f2_20" transform="matrix(10.4,0,0,10.4,376.2,750.4)" />
<use xlink:href="#f2_21" transform="matrix(10.4,0,0,10.4,389.4,750.4)" />
<use xlink:href="#f2_2a" transform="matrix(10.4,0,0,10.4,393.8,750.4)" />
<use xlink:href="#f2_22" transform="matrix(10.4,0,0,10.4,402.8,750.4)" />
<use xlink:href="#f2_h" transform="matrix(10.4,0,0,10.4,411.9,750.4)" />
<use xlink:href="#f2_m" transform="matrix(10.4,0,0,10.4,217.4,762.6)" />
<use xlink:href="#f3_2j" transform="matrix(10.4,0,0,10.4,204.8,740.1)" />
<use xlink:href="#f3_22" transform="matrix(10.4,0,0,10.4,152.2,750.4)" />
<use xlink:href="#f3_2j" transform="matrix(10.4,0,0,10.4,170,750.4)" />
<use xlink:href="#f3_21" transform="matrix(10.4,0,0,10.4,248.2,750.4)" />
<use xlink:href="#f3_2j" transform="matrix(10.4,0,0,10.4,262.7,750.4)" />
<use xlink:href="#f3_2j" transform="matrix(10.4,0,0,10.4,305.3,750.4)" />
<use xlink:href="#f2_p" transform="matrix(10.4,0,0,10.4,81.4,793.6)" />
<use xlink:href="#f2_h" transform="matrix(10.4,0,0,10.4,90.2,793.6)" />
<use xlink:href="#f2_18" transform="matrix(10.4,0,0,10.4,113.1,793.6)" />
<use xlink:href="#f2_21" transform="matrix(10.4,0,0,10.4,117.5,793.6)" />
<use xlink:href="#f3_21" transform="matrix(10.4,0,0,10.4,149.8,793.6)" />
<use xlink:href="#f3_t" transform="matrix(10.4,0,0,10.4,161,793.6)" />
<use xlink:href="#f3_1h" transform="matrix(10.4,0,0,10.4,172.4,793.6)" />
<use xlink:href="#f5_34" transform="matrix(10.4,0,0,10.4,190.6,793.6)" />
<use xlink:href="#f3_1h" transform="matrix(10.4,0,0,10.4,212.6,793.6)" />
<use xlink:href="#f2_1z" transform="matrix(10.4,0,0,10.4,231.2,793.6)" />
<use xlink:href="#f2_20" transform="matrix(10.4,0,0,10.4,240,793.6)" />
<use xlink:href="#f2_21" transform="matrix(10.4,0,0,10.4,248.9,793.6)" />
<use xlink:href="#f2_24" transform="matrix(10.4,0,0,10.4,253.3,793.6)" />
<use xlink:href="#f2_29" transform="matrix(10.4,0,0,10.4,256.9,793.6)" />
<use xlink:href="#f2_20" transform="matrix(10.4,0,0,10.4,265.7,793.6)" />
<use xlink:href="#f2_1z" transform="matrix(10.4,0,0,10.4,274.6,793.6)" />
<use xlink:href="#f2_1x" transform="matrix(10.4,0,0,10.4,290.4,793.6)" />
<use xlink:href="#f2_2k" transform="matrix(10.4,0,0,10.4,299.3,793.6)" />
<use xlink:href="#f4_c" transform="matrix(10.4,0,0,11.3,160.2,836.5)" />
<use xlink:href="#f4_d" transform="matrix(10.4,0,0,11.3,176.8,836.3)" />
<use xlink:href="#f4_h" transform="matrix(10.4,0,0,10.4,223.3,828.3)" />
<use xlink:href="#f4_x" transform="matrix(10.4,0,0,10.4,186,838.5)" />
<use xlink:href="#f2_l" transform="matrix(10.4,0,0,10.4,200.7,828.3)" />
<use xlink:href="#f2_k" transform="matrix(10.4,0,0,10.4,234.2,828.3)" />
<use xlink:href="#f2_o" transform="matrix(10.4,0,0,10.4,216.2,850.8)" />
<use xlink:href="#f3_2j" transform="matrix(10.4,0,0,10.4,209.8,828.3)" />
<use xlink:href="#f3_21" transform="matrix(10.4,0,0,10.4,151.5,838.5)" />
<use xlink:href="#f3_2j" transform="matrix(10.4,0,0,10.4,166.1,838.5)" />
<use xlink:href="#f2_1x" transform="matrix(10.4,0,0,10.4,113.1,881.8)" />
<use xlink:href="#f2_20" transform="matrix(10.4,0,0,10.4,121.9,881.8)" />
<use xlink:href="#f2_1w" transform="matrix(10.4,0,0,10.4,138.2,881.8)" />
<use xlink:href="#f2_29" transform="matrix(10.4,0,0,10.4,147,881.8)" />
<use xlink:href="#f2_24" transform="matrix(10.4,0,0,10.4,163.2,881.8)" />
<use xlink:href="#f2_29" transform="matrix(10.4,0,0,10.4,166.8,881.8)" />
<use xlink:href="#f2_2h" transform="matrix(10.4,0,0,10.4,175.6,881.8)" />
<use xlink:href="#f2_20" transform="matrix(10.4,0,0,10.4,183.6,881.8)" />
<use xlink:href="#f2_2d" transform="matrix(10.4,0,0,10.4,192.5,881.8)" />
<use xlink:href="#f2_2f" transform="matrix(10.4,0,0,10.4,197.8,881.8)" />
<use xlink:href="#f2_24" transform="matrix(10.4,0,0,10.4,202.2,881.8)" />
<use xlink:href="#f2_1x" transform="matrix(10.4,0,0,10.4,205.8,881.8)" />
<use xlink:href="#f2_27" transform="matrix(10.4,0,0,10.4,214.6,881.8)" />
<use xlink:href="#f2_20" transform="matrix(10.4,0,0,10.4,218.2,881.8)" />
<use xlink:href="#f2_21" transform="matrix(10.4,0,0,10.4,234.4,881.8)" />
<use xlink:href="#f2_2g" transform="matrix(10.4,0,0,10.4,238.8,881.8)" />
<use xlink:href="#f2_29" transform="matrix(10.4,0,0,10.4,247.7,881.8)" />
<use xlink:href="#f2_1y" transform="matrix(10.4,0,0,10.4,256.6,881.8)" />
<use xlink:href="#f2_2f" transform="matrix(10.4,0,0,10.4,264.5,881.8)" />
<use xlink:href="#f2_24" transform="matrix(10.4,0,0,10.4,269,881.8)" />
<use xlink:href="#f2_2a" transform="matrix(10.4,0,0,10.4,272.5,881.8)" />
<use xlink:href="#f2_29" transform="matrix(10.4,0,0,10.4,281.4,881.8)" />
<use xlink:href="#f2_f" transform="matrix(10.4,0,0,10.4,290.2,881.8)" />
<use xlink:href="#f2_2i" transform="matrix(10.4,0,0,10.4,302,881.8)" />
<use xlink:href="#f2_2d" transform="matrix(10.4,0,0,10.4,313.5,881.8)" />
<use xlink:href="#f2_24" transform="matrix(10.4,0,0,10.4,318.8,881.8)" />
<use xlink:href="#f2_2f" transform="matrix(10.4,0,0,10.4,322.4,881.8)" />
<use xlink:href="#f2_20" transform="matrix(10.4,0,0,10.4,326.8,881.8)" />
<use xlink:href="#f3_21" transform="matrix(10.4,0,0,10.4,341.9,881.8)" />
<use xlink:href="#f2_99" transform="matrix(7.4,0,0,7.4,346.3,876.5)" />
<use xlink:href="#f2_k" transform="matrix(7.4,0,0,7.4,352.6,876.5)" />
<use xlink:href="#f2_b" transform="matrix(10.4,0,0,10.4,358.8,881.8)" />
<use xlink:href="#f3_2j" transform="matrix(10.4,0,0,10.4,364.1,881.8)" />
<use xlink:href="#f2_c" transform="matrix(10.4,0,0,10.4,372.1,881.8)" />
<use xlink:href="#f2_h" transform="matrix(10.4,0,0,10.4,377.5,881.8)" />
<use xlink:href="#f2_q" transform="matrix(10.4,0,0,10.4,81.4,933.3)" />
<use xlink:href="#f2_h" transform="matrix(10.4,0,0,10.4,90.2,933.3)" />
<use xlink:href="#f2_18" transform="matrix(10.4,0,0,10.4,113.1,933.3)" />
<use xlink:href="#f2_21" transform="matrix(10.4,0,0,10.4,117.5,933.3)" />
<use xlink:href="#f4_c" transform="matrix(10.3,0,0,11.3,138.9,931.6)" />
<use xlink:href="#f4_d" transform="matrix(10.3,0,0,11.3,155.2,931.6)" />
</g>
<path d="M178.1,929.5h32.3" class="g0_2" />
<g fill="#000000" >
<use xlink:href="#f4_c" transform="matrix(10.3,0,0,11.3,369,931.6)" />
<use xlink:href="#f4_d" transform="matrix(10.3,0,0,11.3,385.3,931.6)" />
<use xlink:href="#f2_k" transform="matrix(10.4,0,0,10.4,262.8,933.7)" />
<use xlink:href="#f2_f" transform="matrix(10.4,0,0,10.4,268.3,933.7)" />
<use xlink:href="#f2_1m" transform="matrix(10.4,0,0,10.4,276.5,933.7)" />
<use xlink:href="#f2_2d" transform="matrix(10.4,0,0,10.4,291.5,933.7)" />
<use xlink:href="#f2_24" transform="matrix(10.4,0,0,10.4,296.8,933.7)" />
<use xlink:href="#f2_2f" transform="matrix(10.4,0,0,10.4,300.4,933.7)" />
<use xlink:href="#f2_20" transform="matrix(10.4,0,0,10.4,304.8,933.7)" />
<use xlink:href="#f2_h" transform="matrix(10.4,0,0,10.4,390.9,933.7)" />
<use xlink:href="#f2_k" transform="matrix(10.4,0,0,10.4,203.3,945.9)" />
<use xlink:href="#f3_2j" transform="matrix(10.4,0,0,10.4,189.4,923.4)" />
<use xlink:href="#f3_21" transform="matrix(10.4,0,0,10.4,130,933.7)" />
<use xlink:href="#f3_2j" transform="matrix(10.4,0,0,10.4,144.7,933.7)" />
<use xlink:href="#f3_2j" transform="matrix(10.4,0,0,10.4,226.4,933.7)" />
<use xlink:href="#f3_21" transform="matrix(10.4,0,0,10.4,342.5,933.7)" />
<use xlink:href="#f3_2a" transform="matrix(10.4,0,0,10.4,347,933.7)" />
<use xlink:href="#f3_21" transform="matrix(10.4,0,0,10.4,359.9,933.7)" />
<use xlink:href="#f3_2j" transform="matrix(10.4,0,0,10.4,374.7,933.7)" />
<use xlink:href="#f3_2j" transform="matrix(10.4,0,0,10.4,179,945.9)" />
<use xlink:href="#f4_x" transform="matrix(10.4,0,0,10.4,164.4,933.7)" />
<use xlink:href="#f4_6" transform="matrix(10.4,0,0,10.4,212.8,933.7)" />
<use xlink:href="#f4_3f" transform="matrix(10.4,0,0,10.4,240.7,933.7)" />
<use xlink:href="#f4_h" transform="matrix(10.4,0,0,10.4,254.1,933.7)" />
<use xlink:href="#f4_f" transform="matrix(10.4,0,0,10.4,192.1,945.9)" />
<use xlink:href="#f2_r" transform="matrix(10.4,0,0,10.4,81.4,983)" />
<use xlink:href="#f2_h" transform="matrix(10.4,0,0,10.4,90.2,983)" />
<use xlink:href="#f2_1b" transform="matrix(10.4,0,0,10.4,113.1,983)" />
<use xlink:href="#f2_20" transform="matrix(10.4,0,0,10.4,121.9,983)" />
<use xlink:href="#f2_2f" transform="matrix(10.4,0,0,10.4,130.8,983)" />
<use xlink:href="#f2_d" transform="matrix(10.4,0,0,10.4,142.4,983)" />
<use xlink:href="#f2_24" transform="matrix(10.4,0,0,10.4,155.7,983)" />
<use xlink:href="#f2_2e" transform="matrix(10.4,0,0,10.4,159.3,983)" />
<use xlink:href="#f2_1w" transform="matrix(10.4,0,0,10.4,174.4,983)" />
<use xlink:href="#f2_11" transform="matrix(10.4,0,0,10.4,190.4,983)" />
<use xlink:href="#f2_24" transform="matrix(10.4,0,0,10.4,201.1,983)" />
<use xlink:href="#f2_29" transform="matrix(10.4,0,0,10.4,204.6,983)" />
<use xlink:href="#f2_1w" transform="matrix(10.4,0,0,10.4,213.5,983)" />
<use xlink:href="#f2_2d" transform="matrix(10.4,0,0,10.4,222.3,983)" />
<use xlink:href="#f2_2k" transform="matrix(10.4,0,0,10.4,227.7,983)" />
<use xlink:href="#f2_2a" transform="matrix(10.4,0,0,10.4,242.8,983)" />
<use xlink:href="#f2_2b" transform="matrix(10.4,0,0,10.4,251.6,983)" />
<use xlink:href="#f2_20" transform="matrix(10.4,0,0,10.4,260.5,983)" />
<use xlink:href="#f2_2d" transform="matrix(10.4,0,0,10.4,269.4,983)" />
<use xlink:href="#f2_1w" transform="matrix(10.4,0,0,10.4,274.7,983)" />
<use xlink:href="#f2_2f" transform="matrix(10.4,0,0,10.4,283.6,983)" />
<use xlink:href="#f2_24" transform="matrix(10.4,0,0,10.4,288,983)" />
<use xlink:href="#f2_2a" transform="matrix(10.4,0,0,10.4,291.5,983)" />
<use xlink:href="#f2_29" transform="matrix(10.4,0,0,10.4,300.4,983)" />
<use xlink:href="#f2_1z" transform="matrix(10.4,0,0,10.4,316.4,983)" />
<use xlink:href="#f2_20" transform="matrix(10.4,0,0,10.4,325.3,983)" />
<use xlink:href="#f2_21" transform="matrix(10.4,0,0,10.4,334.2,983)" />
<use xlink:href="#f2_24" transform="matrix(10.4,0,0,10.4,338.6,983)" />
<use xlink:href="#f2_29" transform="matrix(10.4,0,0,10.4,342.1,983)" />
<use xlink:href="#f2_20" transform="matrix(10.4,0,0,10.4,351,983)" />
<use xlink:href="#f2_1z" transform="matrix(10.4,0,0,10.4,359.9,983)" />
<use xlink:href="#f2_2a" transform="matrix(10.4,0,0,10.4,375.9,983)" />
<use xlink:href="#f2_29" transform="matrix(10.4,0,0,10.4,384.8,983)" />
<use xlink:href="#f3_1h" transform="matrix(10.4,0,0,10.4,399.5,983)" />
<use xlink:href="#f2_f" transform="matrix(10.4,0,0,10.4,411,983)" />
<use xlink:href="#f2_2f" transform="matrix(10.4,0,0,10.4,422.6,983)" />
<use xlink:href="#f2_23" transform="matrix(10.4,0,0,10.4,427,983)" />
<use xlink:href="#f2_20" transform="matrix(10.4,0,0,10.4,435.9,983)" />
<use xlink:href="#f2_29" transform="matrix(10.4,0,0,10.4,444.8,983)" />
<use xlink:href="#f2_24" transform="matrix(10.4,0,0,10.4,460.8,983)" />
<use xlink:href="#f2_21" transform="matrix(10.4,0,0,10.4,464.3,983)" />
<use xlink:href="#f2_b" transform="matrix(10.4,0,0,10.4,135.6,1016.9)" />
<use xlink:href="#f2_24" transform="matrix(10.4,0,0,10.4,140.9,1016.9)" />
<use xlink:href="#f2_c" transform="matrix(10.4,0,0,10.4,144.5,1016.9)" />
<use xlink:href="#f3_1w" transform="matrix(10.4,0,0,10.4,168.1,1016.9)" />
<use xlink:href="#f2_d" transform="matrix(10.4,0,0,10.4,183.7,1016.9)" />
<use xlink:href="#f3_1x" transform="matrix(10.4,0,0,10.4,196.7,1016.9)" />
<use xlink:href="#f2_w" transform="matrix(10.4,0,0,10.4,212.3,1016.9)" />
<use xlink:href="#f3_1w" transform="matrix(10.4,0,0,10.4,228.4,1016.9)" />
<use xlink:href="#f2_e" transform="matrix(10.4,0,0,10.4,244,1016.9)" />
<use xlink:href="#f3_1x" transform="matrix(10.4,0,0,10.4,260.3,1016.9)" />
<use xlink:href="#f2_e" transform="matrix(10.4,0,0,10.4,275.9,1016.9)" />
<use xlink:href="#f3_1w" transform="matrix(10.4,0,0,10.4,292,1016.9)" />
<use xlink:href="#f3_1x" transform="matrix(10.4,0,0,10.4,300.9,1016.9)" />
<use xlink:href="#f2_f" transform="matrix(10.4,0,0,10.4,309.6,1016.9)" />
<use xlink:href="#f2_2i" transform="matrix(10.4,0,0,10.4,320.8,1016.9)" />
<use xlink:href="#f2_2d" transform="matrix(10.4,0,0,10.4,332.4,1016.9)" />
<use xlink:href="#f2_24" transform="matrix(10.4,0,0,10.4,337.7,1016.9)" />
<use xlink:href="#f2_2f" transform="matrix(10.4,0,0,10.4,341.2,1016.9)" />
<use xlink:href="#f2_20" transform="matrix(10.4,0,0,10.4,345.6,1016.9)" />
<use xlink:href="#f2_m" transform="matrix(10.4,0,0,10.4,361.3,1016.9)" />
<use xlink:href="#f2_d" transform="matrix(10.4,0,0,10.4,377.1,1016.9)" />
<use xlink:href="#f2_l" transform="matrix(10.4,0,0,10.4,390.1,1016.9)" />
<use xlink:href="#f6_12" transform="matrix(13,0,0,13,290.4,125.7)" />
<use xlink:href="#f6_17" transform="matrix(13,0,0,13,304.7,125.7)" />
<use xlink:href="#f6_10" transform="matrix(13,0,0,13,319,125.7)" />
<use xlink:href="#f6_1f" transform="matrix(13,0,0,13,333.3,125.7)" />
<use xlink:href="#f6_1j" transform="matrix(13,0,0,13,346.5,125.7)" />
<use xlink:href="#f6_14" transform="matrix(13,0,0,13,358.6,125.7)" />
<use xlink:href="#f6_1h" transform="matrix(13,0,0,13,371.8,125.7)" />
<use xlink:href="#f6_k" transform="matrix(13,0,0,13,394.3,125.7)" />
<use xlink:href="#f6_1h" transform="matrix(16,0,0,16,169.7,179.6)" />
<use xlink:href="#f6_14" transform="matrix(16,0,0,16,187.3,179.6)" />
<use xlink:href="#f6_1b" transform="matrix(16,0,0,16,203.6,179.6)" />
<use xlink:href="#f6_10" transform="matrix(16,0,0,16,218.5,179.6)" />
<use xlink:href="#f6_1j" transform="matrix(16,0,0,16,236.1,179.6)" />
<use xlink:href="#f6_18" transform="matrix(16,0,0,16,251,179.6)" />
<use xlink:href="#f6_1e" transform="matrix(16,0,0,16,257.8,179.6)" />
<use xlink:href="#f6_1d" transform="matrix(16,0,0,16,276.7,179.6)" />
<use xlink:href="#f6_1i" transform="matrix(16,0,0,16,294.3,179.6)" />
<use xlink:href="#f6_10" transform="matrix(16,0,0,16,320.9,179.6)" />
<use xlink:href="#f6_1d" transform="matrix(16,0,0,16,338.5,179.6)" />
<use xlink:href="#f6_13" transform="matrix(16,0,0,16,356.1,179.6)" />
<use xlink:href="#f6_15" transform="matrix(16,0,0,16,384,179.6)" />
<use xlink:href="#f6_1k" transform="matrix(16,0,0,16,398.9,179.6)" />
<use xlink:href="#f6_1d" transform="matrix(16,0,0,16,416.5,179.6)" />
<use xlink:href="#f6_12" transform="matrix(16,0,0,16,434.1,179.6)" />
<use xlink:href="#f6_1j" transform="matrix(16,0,0,16,451.7,179.6)" />
<use xlink:href="#f6_18" transform="matrix(16,0,0,16,466.6,179.6)" />
<use xlink:href="#f6_1e" transform="matrix(16,0,0,16,473.4,179.6)" />
<use xlink:href="#f6_1d" transform="matrix(16,0,0,16,492.3,179.6)" />
<use xlink:href="#f6_1i" transform="matrix(16,0,0,16,509.9,179.6)" />
<use xlink:href="#f7_l" transform="matrix(12,0,0,12,669.8,1079.8)" />
</g>
<g fill="#0080FF" fill-opacity="0.5" >
<use xlink:href="#f0_1c" transform="matrix(37.8,0,0,37.8,181.3,1077.2)" />
<use xlink:href="#f0_21" transform="matrix(37.8,0,0,37.8,213.4,1077.2)" />
<use xlink:href="#f0_1x" transform="matrix(37.8,0,0,37.8,245.5,1077.2)" />
<use xlink:href="#f0_2e" transform="matrix(37.8,0,0,37.8,277.6,1077.2)" />
<use xlink:href="#f0_2a" transform="matrix(37.8,0,0,37.8,296.9,1077.2)" />
<use xlink:href="#f0_17" transform="matrix(37.8,0,0,37.8,329,1077.2)" />
<use xlink:href="#f0_2h" transform="matrix(37.8,0,0,37.8,373.9,1077.2)" />
<use xlink:href="#f0_25" transform="matrix(37.8,0,0,37.8,406,1077.2)" />
<use xlink:href="#f0_20" transform="matrix(37.8,0,0,37.8,418.9,1077.2)" />
<use xlink:href="#f0_21" transform="matrix(37.8,0,0,37.8,451,1077.2)" />
<use xlink:href="#f0_i" transform="matrix(37.8,0,0,37.8,483.1,1077.2)" />
<use xlink:href="#f0_25" transform="matrix(37.8,0,0,37.8,499.1,1077.2)" />
<use xlink:href="#f0_2a" transform="matrix(37.8,0,0,37.8,512,1077.2)" />
</g>
<defs>
<path d="M593,101c0,0,182,0,279,112c0,0,98,113,98,318c0,0,0,196,-98,308c0,0,-98,112,-277,112c0,0,-181,0,-279,-110c0,0,-99,-111,-99,-310c0,0,0,-198,100,-314c0,0,99,-116,276,-116Zm0,-115c0,0,-162,0,-279,65c0,0,-118,66,-180,190c0,0,-62,124,-62,290c0,0,0,252,138,394c0,0,138,142,385,142c0,0,160,0,278,-64c0,0,118,-64,180,-185c0,0,62,-122,62,-287c0,0,0,-165,-63,-289c0,0,-63,-124,-181,-190c0,0,-118,-66,-278,-66Z" 
id="f0_1f"
transform="scale(0.001,-0.001)" />

<path d="M106,0V635c0,0,0,141,-5,173H228c0,0,1,-4,2,-21c0,0,1,-16,2,-37c0,0,1,-22,2,-81h2c0,0,47,84,108,119c0,0,60,34,151,34c0,0,132,0,194,-66c0,0,61,-66,61,-218V0H615V512c0,0,0,80,-15,124c0,0,-16,44,-50,63c0,0,-35,20,-101,20c0,0,-97,0,-153,-67c0,0,-56,-66,-56,-184V0Z" 
id="f0_2a"
transform="scale(0.001,-0.001)" />

<path d="M103,0V1107H237V0Z" 
id="f0_28"
transform="scale(0.001,-0.001)" />

<path d="M102,0V808H236V0Zm0,979v128H236V979Z" 
id="f0_25"
transform="scale(0.001,-0.001)" />

<path d="M643,478c0,0,-11,128,-65,187c0,0,-54,59,-154,59c0,0,-98,0,-155,-66c0,0,-57,-65,-62,-180ZM431,-14c0,0,-179,0,-272,106c0,0,-94,107,-94,317c0,0,0,200,94,307c0,0,93,106,267,106c0,0,356,0,356,-429V375H206c0,0,0,-138,57,-213c0,0,58,-75,168,-75c0,0,87,0,140,35c0,0,53,35,71,88L760,177c0,0,-72,-191,-329,-191Z" 
id="f0_21"
transform="scale(0.001,-0.001)" />

<path d="M17,0L304,415L31,808H179L380,493L580,808H730L457,417L747,0H598L380,331L162,0Z" 
id="f0_2k"
transform="scale(0.001,-0.001)" />

<path d="M339,87c0,0,74,0,132,34c0,0,57,33,90,91c0,0,34,59,34,121v66L448,396c0,0,-95,-2,-144,-19c0,0,-49,-18,-75,-55c0,0,-26,-38,-26,-98c0,0,0,-65,35,-101c0,0,36,-36,101,-36ZM309,-14c0,0,-122,0,-183,64c0,0,-61,64,-61,176c0,0,0,125,82,192c0,0,83,67,266,72l182,3v44c0,0,0,98,-42,141c0,0,-42,43,-132,43c0,0,-90,0,-131,-31c0,0,-41,-31,-49,-98L101,604c0,0,34,218,323,218c0,0,153,0,229,-70c0,0,77,-69,77,-202V202c0,0,0,-59,16,-90c0,0,16,-30,60,-30c0,0,19,0,44,5V4C850,4,799,-7,746,-7c0,0,-75,0,-109,38c0,0,-33,40,-38,124h-4C595,155,543,62,475,24c0,0,-68,-38,-166,-38Z" 
id="f0_1x"
transform="scale(0.001,-0.001)" />

<path d="M106,0V635c0,0,0,141,-5,173H228c0,0,1,-4,2,-21c0,0,1,-16,2,-37c0,0,1,-22,2,-81h2c0,0,44,86,100,120c0,0,56,33,136,33c0,0,92,0,145,-36c0,0,54,-37,75,-117h2c0,0,42,82,101,117c0,0,59,36,143,36c0,0,123,0,178,-66c0,0,56,-67,56,-218V0H1039V512c0,0,0,117,-32,162c0,0,-32,45,-116,45c0,0,-88,0,-136,-66c0,0,-49,-65,-49,-185V0H573V512c0,0,0,117,-32,162c0,0,-32,45,-116,45c0,0,-86,0,-136,-66c0,0,-50,-66,-50,-185V0Z" 
id="f0_29"
transform="scale(0.001,-0.001)" />

<path d="M453,84c0,0,100,0,146,74c0,0,46,73,46,247c0,0,0,169,-46,241c0,0,-45,73,-145,73c0,0,-80,0,-125,-34c0,0,-45,-34,-68,-105c0,0,-24,-71,-24,-186c0,0,0,-159,51,-234c0,0,51,-76,165,-76ZM103,-316V643c0,0,0,124,-5,165H228c0,0,1,-3,3,-22c0,0,1,-18,3,-56c0,0,2,-38,2,-52h3c0,0,36,75,94,110c0,0,59,34,156,34c0,0,149,0,223,-100c0,0,74,-100,74,-314c0,0,0,-422,-297,-422c0,0,-187,0,-251,140h-4c0,0,3,-6,3,-126V-316Z" 
id="f0_2c"
transform="scale(0.001,-0.001)" />

<path d="M420,84c0,0,121,0,173,78c0,0,52,77,52,243c0,0,0,167,-50,243c0,0,-50,76,-167,76c0,0,-118,0,-170,-78c0,0,-53,-77,-53,-241c0,0,0,-160,52,-241c0,0,52,-80,163,-80Zm1,-98c0,0,-176,0,-267,107c0,0,-90,108,-90,312c0,0,0,417,362,417c0,0,185,0,272,-102c0,0,88,-101,88,-315c0,0,0,-212,-94,-316C692,89,599,-14,421,-14Z" 
id="f0_2b"
transform="scale(0.001,-0.001)" />

<path d="M278,-11c0,0,-162,0,-162,182V710H23v98h99l39,181h90V808H400V710H251V200c0,0,0,-58,19,-82c0,0,19,-23,66,-23c0,0,27,0,77,10V6c0,0,-66,-17,-135,-17Z" 
id="f0_2g"
transform="scale(0.001,-0.001)" />

<path d="M431,0L102,922c0,0,-19,55,-51,110c0,0,-31,56,-86,135H386c0,0,-7,-41,-6,-71c0,0,1,-31,11,-63L581,398l219,635c0,0,12,33,14,63c0,0,3,30,-3,71h378c0,0,-33,-44,-61,-99c0,0,-29,-55,-67,-146L694,0Z" 
id="f1_1l"
transform="scale(0.001,-0.001)" />

<path d="M102,0c0,0,22,54,31,110c0,0,10,55,10,135V922c0,0,0,81,-10,136c0,0,-9,55,-31,109H823L766,1041L709,913c0,0,-42,20,-137,36c0,0,-62,9,-121,13V697H798L728,569L657,441c0,0,-45,21,-131,36c0,0,-38,8,-75,11V206c0,0,117,6,201,22c0,0,126,24,239,84L827,156L762,0Z" 
id="f1_14"
transform="scale(0.001,-0.001)" />

<path d="M452,645c0,0,85,0,139,47c0,0,54,47,54,121c0,0,0,66,-51,107c0,0,-51,42,-132,42H442V645ZM93,0c0,0,22,54,32,110c0,0,9,55,9,135V922c0,0,0,81,-9,136c0,0,-10,55,-32,109H498c0,0,215,0,332,-90c0,0,117,-90,117,-256c0,0,0,-159,-129,-253c0,0,-46,-34,-103,-54L902,246c0,0,57,-82,107,-137c0,0,50,-55,115,-109H803c0,0,-30,0,-104,83c0,0,-73,83,-149,202L442,461V246c0,0,0,-81,9,-136c0,0,10,-56,32,-110Z" 
id="f1_1h"
transform="scale(0.001,-0.001)" />

<path d="M319,0c0,0,22,54,31,110c0,0,10,55,10,135V518L134,922c0,0,-57,100,-95,155c0,0,-37,55,-71,90H351c0,0,4,-29,12,-53c0,0,7,-24,22,-54L517,787l152,273c0,0,14,25,23,49c0,0,9,24,16,58h354c0,0,-35,-33,-73,-88c0,0,-38,-56,-99,-157L668,536V245c0,0,0,-80,9,-135c0,0,9,-56,32,-110Z" 
id="f1_1o"
transform="scale(0.001,-0.001)" />

<path d="M367,-20c0,0,-85,0,-142,12C225,-8,167,2,83,35V332c0,0,41,-55,107,-90c0,0,66,-35,130,-35c0,0,51,0,84,31c0,0,32,31,32,81c0,0,0,49,-23,86c0,0,-22,37,-82,83c0,0,-126,98,-184,181c0,0,-57,82,-57,165c0,0,0,155,106,253c0,0,106,98,272,98c0,0,62,0,133,-13c0,0,71,-13,120,-33V867c0,0,-59,49,-104,70c0,0,-46,20,-94,20c0,0,-47,0,-76,-24c0,0,-29,-25,-29,-63c0,0,0,-41,20,-73c0,0,21,-31,75,-73c0,0,130,-101,189,-189c0,0,59,-87,59,-180c0,0,0,-165,-110,-270C651,85,541,-20,367,-20Z" 
id="f1_1i"
transform="scale(0.001,-0.001)" />

<path d="M99,0c0,0,22,54,32,110c0,0,9,55,9,135V922c0,0,0,81,-10,136c0,0,-9,55,-31,109H489c0,0,-23,-54,-32,-109c0,0,-9,-55,-9,-136V712H790V922c0,0,0,81,-9,136c0,0,-10,55,-32,109h390c0,0,-22,-54,-32,-109c0,0,-9,-55,-9,-136V245c0,0,0,-80,9,-135c0,0,10,-56,32,-110H749c0,0,22,54,32,110c0,0,9,55,9,135V478H448V245c0,0,0,-80,9,-135c0,0,9,-56,32,-110Z" 
id="f1_17"
transform="scale(0.001,-0.001)" />

<path d="M822,206c14,0,28,0,42,1c0,0,53,50,87,150c0,0,34,101,34,210c0,0,0,188,-132,297c0,0,-113,95,-296,95c-13,0,-27,-1,-42,-2c0,0,-53,-49,-86,-150c0,0,-34,-102,-34,-212c0,0,0,-186,132,-295c0,0,114,-94,295,-94ZM690,-20c0,0,-276,0,-452,168C238,148,63,317,63,581c0,0,0,266,175,435c0,0,176,169,452,169c0,0,277,0,452,-169c0,0,175,-169,175,-435c0,0,0,-264,-175,-433c0,0,-175,-168,-452,-168Z" 
id="f1_1e"
transform="scale(0.001,-0.001)" />

<path d="M289,0c0,0,26,60,37,116c0,0,9,55,9,129V961c0,0,-94,-3,-160,-9c0,0,-116,-13,-188,-44l41,130l41,129H981L946,1042L912,917c0,0,-45,18,-154,32c0,0,-58,8,-115,11V245c0,0,0,-74,11,-129c0,0,10,-56,35,-116Z" 
id="f1_1j"
transform="scale(0.001,-0.001)" />

<path d="M693,499L573,830L462,499ZM-39,0c0,0,33,42,61,97c0,0,30,55,71,148l314,761c0,0,22,51,38,98c0,0,15,47,17,63H721c0,0,2,-16,18,-63c0,0,15,-47,37,-98L1091,245c0,0,41,-95,70,-150c0,0,30,-55,60,-95H849c0,0,3,25,-3,55c0,0,-6,30,-24,80L765,295H393L340,135c0,0,-17,-50,-22,-80c0,0,-5,-30,-2,-55Z" 
id="f1_10"
transform="scale(0.001,-0.001)" />

<path d="M108,0c0,0,22,54,31,110c0,0,10,55,10,135V985L-5,1167H418c0,0,21,-44,54,-99c0,0,34,-55,96,-146L857,495V922c0,0,0,81,-9,136c0,0,-9,55,-32,109h378c0,0,-23,-54,-32,-109c0,0,-9,-55,-9,-136V351c0,0,0,-76,11,-178c0,0,11,-101,27,-173H845c0,0,-7,25,-28,67c0,0,-21,42,-45,78L444,628V245c0,0,0,-80,9,-135c0,0,10,-56,32,-110Z" 
id="f1_1d"
transform="scale(0.001,-0.001)" />

<path d="M324,0L78,922c0,0,-23,85,-44,140c0,0,-22,55,-50,105H376c0,0,-7,-56,-7,-99c0,0,1,-42,11,-89L479,513L610,998c0,0,11,42,21,91c0,0,10,49,13,78H861c0,0,4,-36,12,-85c0,0,9,-50,18,-84L1021,492l115,540c0,0,8,33,6,63c0,0,-1,31,-12,72h378c0,0,-30,-50,-52,-105c0,0,-21,-56,-45,-140L1166,0H925L741,597L565,0Z" 
id="f1_1m"
transform="scale(0.001,-0.001)" />

<path d="M462,650c0,0,82,0,133,46c0,0,52,47,52,119c0,0,0,65,-48,106c0,0,-49,41,-125,41H452V650ZM103,0c0,0,22,54,32,110c0,0,9,55,9,135V922c0,0,0,81,-10,136c0,0,-9,55,-31,109H505c0,0,212,0,327,-93c0,0,114,-94,114,-268c0,0,0,-166,-127,-264c0,0,-127,-97,-343,-97H452V246c0,0,0,-81,9,-136c0,0,9,-56,32,-110Z" 
id="f1_1f"
transform="scale(0.001,-0.001)" />

<path d="M821,206c13,0,26,0,40,1c0,0,53,33,86,127c0,0,34,94,34,210c0,0,0,198,-131,314c0,0,-114,101,-297,101c-13,0,-27,-1,-40,-2c0,0,-53,-49,-87,-144c0,0,-33,-95,-33,-195c0,0,0,-197,131,-312c0,0,115,-100,297,-100Zm413,-442c-84,0,-186,15,-288,68c0,0,-113,58,-202,151c0,0,-22,-3,-48,-3c-3,0,-6,0,-9,0c0,0,-276,0,-452,168C235,148,60,316,60,581c0,0,0,266,175,435c0,0,176,169,452,169c0,0,277,0,452,-169c0,0,175,-169,175,-435c0,0,0,-265,-176,-433c0,0,-29,-28,-59,-51c0,0,51,-79,111,-141c0,0,104,-109,233,-165c0,0,-78,-27,-189,-27Z" 
id="f1_1g"
transform="scale(0.001,-0.001)" />

<path d="M512,-17c0,0,-191,0,-285,112c0,0,-94,113,-93,341V922c0,0,0,81,-9,136c0,0,-10,55,-32,109H483c0,0,-22,-54,-32,-109c0,0,-9,-56,-9,-136V502c0,0,0,-147,43,-219c0,0,43,-72,130,-72c0,0,85,0,127,62c0,0,42,61,42,187V922c0,0,0,80,-9,136c0,0,-10,55,-32,109h390c0,0,-22,-54,-31,-109c0,0,-10,-55,-10,-136V245c0,0,0,-80,9,-135c0,0,10,-56,32,-110H815l6,86C821,86,703,-17,512,-17Z" 
id="f1_1k"
transform="scale(0.001,-0.001)" />

<path d="M105,0c0,0,22,54,32,110c0,0,9,55,9,135V922c0,0,0,80,-10,135c0,0,-9,55,-31,110H495c0,0,-23,-54,-32,-109c0,0,-9,-55,-9,-136V245c0,0,0,-80,9,-135c0,0,9,-56,32,-110Z" 
id="f1_18"
transform="scale(0.001,-0.001)" />

<path d="M449,-255c0,0,-184,222,-259,382c0,0,-75,160,-75,331c0,0,0,172,75,332c0,0,75,161,259,382H673c0,0,-156,-201,-220,-362c0,0,-64,-160,-64,-352c0,0,0,-192,64,-352c0,0,64,-160,220,-361Z" 
id="f1_b"
transform="scale(0.001,-0.001)" />

<path d="M335,0c0,0,23,55,32,110c0,0,9,55,9,136V811L199,810v3l443,366V246c0,0,0,-81,10,-136c0,0,9,-56,31,-110Z" 
id="f1_k"
transform="scale(0.001,-0.001)" />

<path d="M90,0c0,0,22,54,32,110c0,0,9,55,9,135V996L-14,1167H428c0,0,2,-38,9,-63c0,0,8,-24,24,-44L752,691l296,369c0,0,23,28,33,53c0,0,10,24,11,54h346c0,0,-50,-120,-70,-208c0,0,-20,-88,-20,-184V245c0,0,0,-80,10,-135c0,0,9,-56,31,-110H999c0,0,23,54,32,110c0,0,9,55,9,135V675L741,291h-1L441,681V245c0,0,0,-80,9,-135c0,0,10,-56,32,-110Z" 
id="f1_1c"
transform="scale(0.001,-0.001)" />

<path d="M90,0c0,0,22,54,32,110c0,0,9,55,9,135V922c0,0,0,81,-9,136c0,0,-10,55,-32,109H480c0,0,-22,-54,-32,-109c0,0,-9,-55,-9,-136V739l269,348c0,0,23,27,33,45c0,0,11,18,14,35h396c0,0,-38,-23,-94,-79c0,0,-55,-55,-153,-166L651,635L957,245c0,0,84,-105,135,-160c0,0,51,-55,93,-85H749c0,0,-25,51,-60,107c0,0,-35,55,-95,138L439,463V245c0,0,0,-80,9,-135c0,0,10,-56,32,-110Z" 
id="f1_1a"
transform="scale(0.001,-0.001)" />

<path d="M115,-255c0,0,156,201,220,361c0,0,64,160,64,352c0,0,0,192,-64,352c0,0,-64,161,-220,362H339c0,0,184,-222,259,-383c0,0,75,-160,75,-331c0,0,0,-171,-75,-332c0,0,-75,-160,-259,-381Z" 
id="f1_c"
transform="scale(0.001,-0.001)" />

<path d="M406,0V763H155V870h2c16,0,114,2,178,48c0,0,70,51,104,157H549V0Z" 
id="f2_k"
transform="scale(0.001,-0.001)" />

<path d="M133,0V162H292V0Z" 
id="f2_h"
transform="scale(0.001,-0.001)" />

<path d="M139,0V1097H287V0Z" 
id="f2_18"
transform="scale(0.001,-0.001)" />

<path d="M132,0V687H22V799H132V935c0,0,0,88,52,133c0,0,52,45,157,45l59,-3V989l-53,2c0,0,-39,0,-60,-24c0,0,-21,-25,-21,-71V799H400V687H266V0Z" 
id="f2_21"
transform="scale(0.001,-0.001)" />

<path d="M682,450L513,936L337,450ZM22,0L436,1097H605L999,0H839L728,319H290L175,0Z" 
id="f2_10"
transform="scale(0.001,-0.001)" />

<path d="M104,0V799H238V0Zm-2,946v152H239V946Z" 
id="f2_24"
transform="scale(0.001,-0.001)" />

<path d="M393,-20c0,0,-169,0,-252,65c0,0,-83,67,-92,210H178c0,0,10,-85,61,-123c0,0,50,-38,154,-38c0,0,90,0,136,34c0,0,47,35,47,100c0,0,0,42,-31,64c0,0,-30,21,-123,43L283,368c0,0,-112,27,-160,75c0,0,-48,48,-48,135c0,0,0,112,80,178c0,0,81,66,218,66c0,0,140,0,222,-68c0,0,82,-67,88,-187H557c0,0,-6,67,-55,103c0,0,-48,37,-129,37c0,0,-84,0,-127,-29c0,0,-44,-29,-44,-85c0,0,0,-43,31,-65c0,0,30,-21,121,-43L493,452c0,0,117,-28,167,-78c0,0,49,-49,49,-138c0,0,0,-119,-86,-188c0,0,-85,-68,-230,-68Z" 
id="f2_2e"
transform="scale(0.001,-0.001)" />

<path d="M292,-9c0,0,-88,0,-124,38c0,0,-36,39,-36,134V689H22V799H132v224H266V799H392V689H266V163c0,0,0,-27,21,-43c0,0,21,-15,57,-15h48V1C392,1,324,-9,292,-9Z" 
id="f2_2f"
transform="scale(0.001,-0.001)" />

<path d="M99,0V1097H233V690l23,30c0,0,87,102,219,102c0,0,132,0,203,-71c0,0,72,-72,72,-204V0H616V514c0,0,0,99,-38,142c0,0,-38,44,-124,44c0,0,-102,0,-162,-73c0,0,-59,-74,-59,-199V0Z" 
id="f2_23"
transform="scale(0.001,-0.001)" />

<path d="M649,461c0,0,-6,111,-55,172c0,0,-55,69,-160,69c0,0,-106,0,-170,-79c0,0,-50,-62,-60,-162ZM425,-20c0,0,-169,0,-266,106c0,0,-97,107,-97,297c0,0,0,201,102,320c0,0,103,119,276,119c0,0,157,0,253,-116c0,0,96,-117,96,-306l-1,-48H204c0,0,8,-119,54,-182c0,0,57,-76,180,-76c0,0,77,0,134,43c0,0,58,43,70,110H775C775,247,746,116,656,47c0,0,-90,-67,-231,-67Z" 
id="f2_20"
transform="scale(0.001,-0.001)" />

<path d="M424,94c0,0,107,0,169,83c0,0,63,83,63,223c0,0,0,140,-63,224c0,0,-62,83,-169,83c0,0,-106,0,-168,-83c0,0,-62,-84,-62,-224c0,0,0,-140,62,-223c0,0,62,-83,168,-83Zm0,-114c0,0,-165,0,-268,115C156,95,54,211,54,400c0,0,0,189,102,306c0,0,103,116,268,116c0,0,168,0,270,-116c0,0,102,-117,102,-306c0,0,0,-189,-102,-305C694,95,592,-20,424,-20Z" 
id="f2_2a"
transform="scale(0.001,-0.001)" />

<path d="M375,-20c0,0,-136,0,-203,66c0,0,-68,68,-68,204V799H238V284c0,0,0,-101,38,-146c0,0,39,-44,127,-44c0,0,97,0,153,75c0,0,57,75,57,203V799H747V0H620V122c0,0,-14,-22,-30,-41C590,81,504,-20,375,-20Z" 
id="f2_2g"
transform="scale(0.001,-0.001)" />

<path d="M411,93c0,0,98,0,158,73c0,0,60,74,60,195c0,0,0,163,-57,252c0,0,-56,88,-161,88c0,0,-113,0,-165,-72c0,0,-52,-72,-52,-229c0,0,0,-147,56,-227c0,0,56,-80,161,-80ZM404,-20c0,0,-161,0,-255,118c0,0,-95,120,-95,324c0,0,0,179,92,290c0,0,91,110,239,110c0,0,147,0,233,-124l11,-15v414H763V0H638V109L621,84C621,84,538,-20,404,-20Z" 
id="f2_1z"
transform="scale(0.001,-0.001)" />

<path d="M99,0V799H226V681l30,39c0,0,87,102,219,102c0,0,132,0,203,-71c0,0,72,-72,72,-204V0H616V502c0,0,0,105,-41,151c0,0,-40,47,-132,47c0,0,-97,0,-154,-73c0,0,-56,-74,-56,-199V0Z" 
id="f2_29"
transform="scale(0.001,-0.001)" />

<path d="M335,90c0,0,106,0,179,57c0,0,50,41,67,91c0,0,3,10,4,31c0,0,3,21,3,47v87c0,0,-38,-18,-83,-25L381,360c0,0,-97,-13,-142,-45c0,0,-44,-31,-44,-86c0,0,0,-67,36,-103c0,0,37,-36,104,-36ZM309,-20c0,0,-117,0,-186,61c0,0,-68,63,-68,169c0,0,0,108,64,171c0,0,65,64,189,79l183,23c0,0,22,3,42,8c0,0,26,7,40,27c0,0,15,20,15,51v6c0,0,0,64,-49,101c0,0,-48,36,-135,36c0,0,-83,0,-130,-38c0,0,-46,-39,-56,-115H94c0,0,10,131,92,197c0,0,83,66,238,66c0,0,145,0,222,-63c0,0,76,-63,76,-184V137c0,0,0,-21,12,-33c0,0,12,-12,33,-12c0,0,6,0,18,1c0,0,11,2,25,5V1c0,0,-20,-7,-41,-11c0,0,-22,-5,-37,-5c0,0,-76,0,-110,41c0,0,-22,28,-32,79c0,0,-15,-19,-34,-36c0,0,-101,-89,-247,-89Z" 
id="f2_1w"
transform="scale(0.001,-0.001)" />

<path d="M394,-20c0,0,-159,0,-253,113c0,0,-95,114,-95,307c0,0,0,193,98,308c0,0,98,114,264,114c0,0,144,0,230,-78c0,0,85,-79,91,-217H600c0,0,-8,86,-59,133c0,0,-52,47,-138,47c0,0,-101,0,-159,-82c0,0,-58,-82,-58,-225c0,0,0,-152,54,-229c0,0,53,-77,159,-77c0,0,79,0,132,50c0,0,52,51,69,143H729C729,287,709,137,623,58c0,0,-86,-78,-229,-78Z" 
id="f2_1y"
transform="scale(0.001,-0.001)" />

<path d="M103,0V1097H237V0Z" 
id="f2_27"
transform="scale(0.001,-0.001)" />

<path d="M248,0L21,799H169L322,163L478,799H627L788,158L950,799h133L857,0H713L548,624L392,0Z" 
id="f2_2i"
transform="scale(0.001,-0.001)" />

<path d="M118,0V799H246V662c0,0,17,32,36,58c0,0,76,102,187,102c0,0,19,0,38,-6V679l-27,1c0,0,-109,0,-168,-66c0,0,-60,-65,-60,-186V0Z" 
id="f2_2d"
transform="scale(0.001,-0.001)" />

<path d="M133,-224v71c0,0,47,8,65,52c0,0,14,33,17,101H133V163H292V27c0,0,0,-114,-36,-172c0,0,-37,-58,-123,-79Z" 
id="f2_f"
transform="scale(0.001,-0.001)" />

<path d="M418,95c0,0,98,0,158,73c0,0,59,73,59,193c0,0,0,170,-54,254c0,0,-54,85,-163,85c0,0,-113,0,-165,-72c0,0,-52,-71,-52,-227c0,0,0,-147,57,-227c0,0,56,-79,160,-79ZM394,-336c0,0,-136,0,-216,62c0,0,-79,63,-96,182H219c0,0,12,-64,57,-98c0,0,45,-35,116,-35c0,0,116,0,176,73c0,0,61,73,61,211V85l-1,-1C628,84,545,-20,412,-20c0,0,-161,0,-256,118c0,0,-94,120,-94,324c0,0,0,179,93,290c0,0,93,110,244,110c0,0,144,0,228,-124l10,-14V799H763V59c0,0,-1,-201,-91,-298c0,0,-91,-97,-278,-97Z" 
id="f2_22"
transform="scale(0.001,-0.001)" />

<path d="M365,-315c0,0,-136,187,-199,359c0,0,-62,172,-62,359c0,0,0,186,62,358c0,0,63,172,199,360h92c0,0,-110,-192,-160,-365c0,0,-51,-172,-51,-353c0,0,0,-183,51,-355c0,0,50,-172,160,-363Z" 
id="f2_b"
transform="scale(0.001,-0.001)" />

<path d="M553,-29c0,0,-211,0,-321,109c0,0,-111,110,-111,322v695H270V413c0,0,0,-153,72,-233c0,0,73,-79,211,-79c0,0,139,0,211,79c0,0,72,80,72,233v684H985V402c0,0,0,-203,-115,-318C870,84,756,-29,553,-29Z" 
id="f2_1k"
transform="scale(0.001,-0.001)" />

<path d="M310,0L12,799H168L383,145L604,799H752L454,0Z" 
id="f2_2h"
transform="scale(0.001,-0.001)" />

<path d="M131,0V1097H934V966H280V631H877V500H280V131H942V0Z" 
id="f2_14"
transform="scale(0.001,-0.001)" />

<path d="M99,0V799H226V680l28,36c0,0,90,106,215,106c0,0,107,0,171,-63c0,0,28,-28,44,-65l21,28c0,0,87,100,208,100c0,0,125,0,194,-68c0,0,68,-68,68,-194V0H1041V515c0,0,0,91,-37,138c0,0,-38,47,-110,47c0,0,-87,0,-139,-68c0,0,-52,-68,-52,-183V0H569V547c0,0,0,75,-34,114c0,0,-34,39,-99,39c0,0,-89,0,-146,-76c0,0,-57,-76,-57,-196V0Z" 
id="f2_28"
transform="scale(0.001,-0.001)" />

<path d="M436,95c0,0,105,0,160,79c0,0,54,80,54,232c0,0,0,150,-52,222c0,0,-52,72,-161,72c0,0,-112,0,-163,-81c0,0,-51,-82,-51,-258c0,0,0,-127,55,-197c0,0,55,-69,158,-69ZM89,-315V799H216V685l7,10c0,0,86,127,228,127c0,0,156,0,248,-108c0,0,91,-107,91,-291c0,0,0,-208,-92,-326C698,97,606,-20,442,-20c0,0,-135,0,-215,102l-4,6V-315Z" 
id="f2_2b"
transform="scale(0.001,-0.001)" />

<path d="M152,-323c-8,0,-38,1,-63,8v125c0,0,30,-11,77,-12c0,0,45,0,76,37c0,0,30,38,69,140l2,12v1L17,799H170L383,139L600,799H747L443,-25c0,0,-70,-184,-125,-241c0,0,-55,-57,-164,-57c0,0,-1,0,-2,0Z" 
id="f2_2k"
transform="scale(0.001,-0.001)" />

<path d="M52,-315c0,0,109,192,160,363c0,0,50,173,50,354c0,0,0,183,-50,355c0,0,-51,173,-160,364h92c0,0,135,-188,198,-360c0,0,63,-172,63,-359c0,0,0,-187,-63,-359c0,0,-63,-171,-198,-358Z" 
id="f2_c"
transform="scale(0.001,-0.001)" />

<path d="M773,597c0,0,120,0,185,67c0,0,65,66,65,188c0,0,0,57,-42,88c0,0,-43,31,-119,31H483L406,597ZM134,0L361,1097H900c0,0,134,0,208,-55c0,0,73,-55,74,-156c0,0,0,-171,-116,-280c0,0,-44,-41,-96,-66c0,0,30,-13,50,-31c0,0,57,-55,35,-179L1020,133c0,0,-9,-48,-3,-70c0,0,6,-21,32,-39L1045,1H865c0,0,-1,30,5,87c0,0,6,58,15,111l14,81c0,0,19,102,-17,147c0,0,-36,44,-134,44H380L283,0Z" 
id="f3_1h"
transform="scale(0.001,-0.001)" />

<path d="M60,174V286H832V174Zm0,309V595H832V483Z" 
id="f2_w"
transform="scale(0.001,-0.001)" />

<path d="M420,-303c-39,0,-114,5,-160,39c0,0,-63,48,-63,148V59c0,0,0,145,-34,221c0,0,-34,75,-98,75v90c0,0,64,0,98,75c0,0,34,76,34,221V917c0,0,0,101,63,149c0,0,53,39,154,39c11,0,22,0,33,-1V1000c0,0,-12,1,-28,1c-26,0,-62,-2,-78,-14c0,0,-26,-18,-26,-81V752c0,0,0,-213,-53,-291c0,0,-29,-42,-83,-60c0,0,54,-22,83,-62c0,0,53,-78,53,-291V-105c0,0,0,-62,26,-81c0,0,20,-14,76,-14c9,0,19,1,30,2V-302c0,0,-10,-1,-27,-1Z" 
id="f2_2m"
transform="scale(0.001,-0.001)" />

<path d="M354,90c0,0,107,0,192,57c0,0,60,41,87,95c0,0,5,12,11,33c0,0,6,20,11,44l18,88c0,0,-62,-26,-132,-37L414,352c0,0,-84,-11,-131,-56c0,0,-47,-45,-47,-113c0,0,0,-44,31,-69c0,0,31,-24,87,-24ZM306,-20c0,0,-99,0,-156,47c0,0,-57,49,-57,134c0,0,1,117,81,198c0,0,80,81,211,98l164,20l70,10c0,0,35,6,59,30c0,0,23,24,31,66l1,2c0,0,13,64,-25,94c0,0,-39,31,-132,31c0,0,-83,0,-137,-37c0,0,-54,-37,-84,-114H210c0,0,46,137,138,201c0,0,92,63,245,63c0,0,149,0,211,-59c0,0,45,-44,44,-116c0,0,1,-30,-6,-63L749,136c0,0,-4,-19,6,-32c0,0,10,-12,30,-12c0,0,6,0,19,1c0,0,12,2,25,5L809,1c0,0,-19,-6,-43,-11c0,0,-22,-5,-36,-5c0,0,-73,0,-100,43c0,0,-16,27,-17,75C612,102,594,85,573,69c0,0,-120,-89,-267,-89Z" 
id="f3_1w"
transform="scale(0.001,-0.001)" />

<path d="M86,-226l16,71c0,0,47,8,74,52c0,0,21,34,38,103H135l18,82l17,81H329L295,11c0,0,-23,-106,-70,-158c0,0,-45,-52,-139,-79Z" 
id="f3_f"
transform="scale(0.001,-0.001)" />

<path d="M456,95c0,0,130,0,213,121c0,0,82,120,82,310c0,0,0,85,-44,131c0,0,-44,46,-125,46c0,0,-98,0,-174,-90c0,0,-76,-90,-108,-245c0,0,-26,-126,16,-199c0,0,42,-74,140,-74ZM436,-20c0,0,-132,0,-195,108l-5,7L217,0H89L316,1097H450L365,683l10,11c0,0,120,129,262,129c0,0,121,0,190,-77c0,0,69,-77,69,-211c0,0,0,-234,-134,-395C762,140,629,-20,436,-20Z" 
id="f3_1x"
transform="scale(0.001,-0.001)" />

<path d="M133,0V162H292V0Zm0,628V790H292V628Z" 
id="f2_t"
transform="scale(0.001,-0.001)" />

<path d="M144,-381V1146H255V-381Z" 
id="f2_2n"
transform="scale(0.001,-0.001)" />

<path d="M77,369l25,110H950L926,369Z" 
id="f3_99"
transform="scale(0.001,-0.001)" />

<path d="M45,0V72H795V0Zm0,166v82L673,558L45,870v81L795,578V540L45,166Z" 
id="f4_39"
transform="scale(0.001,-0.001)" />

<path d="M424,92c0,0,114,0,170,107c0,0,57,108,56,323c0,0,1,216,-56,324c0,0,-56,107,-170,107c0,0,-112,0,-168,-107c0,0,-56,-108,-57,-324c0,0,1,-215,57,-323c0,0,56,-107,168,-107Zm0,-120c0,0,-176,0,-271,142c0,0,-96,143,-96,408c0,0,0,265,96,409c0,0,95,144,271,144c0,0,178,0,273,-144c0,0,96,-144,96,-409c0,0,0,-265,-96,-408c0,0,-95,-142,-273,-142Z" 
id="f2_j"
transform="scale(0.001,-0.001)" />

<path d="M97,-303c-10,0,-21,0,-32,1v104c0,0,12,-1,28,-1c25,0,61,2,77,13c0,0,27,19,27,81V48c0,0,0,213,53,291c0,0,28,40,82,62c0,0,-54,18,-82,60c0,0,-53,78,-53,291V906c0,0,0,63,-27,81c0,0,-20,14,-76,14c-9,0,-19,0,-29,-1v104c0,0,10,1,26,1c39,0,115,-5,160,-39c0,0,64,-48,64,-149V741c0,0,0,-145,33,-221c0,0,34,-75,99,-75V355c0,0,-65,0,-99,-75c0,0,-33,-76,-33,-221V-116c0,0,0,-100,-64,-148c0,0,-53,-39,-154,-39Z" 
id="f2_2o"
transform="scale(0.001,-0.001)" />

<path d="M39,0V0c0,0,0,170,84,277c0,0,85,108,317,236c0,0,113,62,154,115c0,0,41,52,41,134c0,0,0,86,-62,141c0,0,-61,54,-156,54c0,0,-101,0,-158,-68c0,0,-57,-68,-60,-194H67c0,0,-2,178,95,279c0,0,98,101,273,101c0,0,149,0,245,-89c0,0,94,-88,94,-228c0,0,0,-118,-60,-195c0,0,-61,-76,-229,-169C485,394,303,294,237,212c0,0,-28,-36,-46,-81H774V0Z" 
id="f2_l"
transform="scale(0.001,-0.001)" />

<path d="M819,12L73,329V440L819,757V636L228,384L819,133V12Z" 
id="f2_v"
transform="scale(0.001,-0.001)" />

<path d="M424,-28c0,0,-180,0,-272,86c0,0,-92,87,-100,266H192c0,0,12,-126,66,-180c0,0,55,-54,170,-54c0,0,100,0,163,57c0,0,64,57,64,147c0,0,0,94,-61,149c0,0,-52,48,-135,54c0,0,-38,2,-72,2c0,0,-34,0,-45,-3V613c0,0,17,-3,51,-3c0,0,35,0,68,4c0,0,66,8,106,43c0,0,55,45,55,125c0,0,0,77,-58,125c0,0,-58,48,-148,48c0,0,-96,0,-147,-58c0,0,-51,-59,-56,-175H82c0,0,0,168,89,260c0,0,88,93,250,93c0,0,153,0,247,-77c0,0,94,-76,94,-202c0,0,0,-124,-95,-201c0,0,-18,-15,-39,-27c0,0,39,-17,69,-41c0,0,101,-79,101,-214c0,0,0,-151,-105,-246c0,0,-104,-95,-269,-95Z" 
id="f2_m"
transform="scale(0.001,-0.001)" />

<path d="M780,449L714,934L435,449ZM22,0L673,1097H839L998,0H839L797,318H359L178,0Z" 
id="f3_10"
transform="scale(0.001,-0.001)" />

<path d="M511,373V863L169,383l-7,-10ZM511,0V258H38V383l496,691H646V373H799V258H646V0Z" 
id="f2_n"
transform="scale(0.001,-0.001)" />

<path d="M417,-28c0,0,-161,0,-259,79c0,0,-98,81,-109,223H189c0,0,11,-90,72,-139c0,0,61,-49,162,-49c0,0,96,0,158,68c0,0,61,68,61,175c0,0,0,112,-64,178c0,0,-64,66,-173,66c0,0,-59,0,-115,-28c0,0,-55,-29,-84,-73L93,480l77,573H727V922H271L225,629l4,3c0,0,89,60,188,60c0,0,169,0,269,-94c0,0,99,-93,99,-253c0,0,0,-165,-103,-269C682,76,579,-28,417,-28Z" 
id="f2_o"
transform="scale(0.001,-0.001)" />

<path d="M390,-1V329H60V441H390V771H503V441H833V329H503V-1Z" 
id="f2_e"
transform="scale(0.001,-0.001)" />

<path d="M17,0L301,412L32,799H205L389,514L574,799H740L471,410L749,0H581L382,305L186,0Z" 
id="f2_2j"
transform="scale(0.001,-0.001)" />

<path d="M344,0V155H494V0Zm9,286c0,0,-3,110,31,187c0,0,33,78,116,152c0,0,59,52,85,97c0,0,25,45,25,98c0,0,0,81,-48,130c0,0,-48,47,-130,47c0,0,-102,0,-152,-55c0,0,-51,-56,-63,-181H86c0,0,8,170,98,262c0,0,91,93,248,93c0,0,143,0,232,-82c0,0,88,-82,88,-214c0,0,0,-77,-38,-145c0,0,-38,-67,-128,-149c0,0,-58,-52,-81,-107c0,0,-23,-55,-21,-133Z" 
id="f2_y"
transform="scale(0.001,-0.001)" />

<path d="M116,0L343,1097H517L886,205l185,892h143L987,0H818L444,895L259,0Z" 
id="f3_1d"
transform="scale(0.001,-0.001)" />

<path d="M436,95c0,0,105,0,160,79c0,0,54,80,54,232c0,0,0,150,-52,222c0,0,-52,72,-161,72c0,0,-112,0,-163,-81c0,0,-51,-82,-51,-258c0,0,0,-127,55,-197c0,0,55,-69,158,-69Zm6,-115c0,0,-135,0,-215,102L215,98V0H89V1097H223V695c0,0,87,127,225,127c1,0,2,0,2,0c0,0,157,0,249,-108c0,0,91,-107,91,-291c0,0,0,-208,-92,-326C698,97,606,-20,442,-20Z" 
id="f2_1x"
transform="scale(0.001,-0.001)" />

<path d="M96,177l23,112H892L869,177Zm63,307l23,112H955L932,484Z" 
id="f3_w"
transform="scale(0.001,-0.001)" />

<path d="M-12,-315c0,0,149,193,235,364c0,0,86,172,123,353c0,0,37,181,23,354c0,0,-15,172,-85,365h92c0,0,97,-188,124,-360c0,0,27,-172,-12,-359C488,402,449,215,351,43c0,0,-97,-171,-272,-358Z" 
id="f3_c"
transform="scale(0.001,-0.001)" />

<path d="M73,12V133L664,384L73,636V757L819,440V329L73,12Z" 
id="f2_x"
transform="scale(0.001,-0.001)" />

<path d="M212,0c0,0,51,270,162,500c0,0,109,222,281,422H57v131H799V934C799,934,623,726,515,498C515,498,408,269,362,0Z" 
id="f2_q"
transform="scale(0.001,-0.001)" />

<path d="M398,0C398,0,266,0,185,39c0,0,-82,39,-133,124C52,163,0,248,0,342c0,0,0,144,103,243c0,0,103,98,292,98H694V611H387c0,0,-99,0,-166,-32c0,0,-68,-32,-105,-88c0,0,-26,-40,-41,-113H694V304H75c0,0,30,-120,103,-176c0,0,73,-56,210,-56H694V0Z" 
id="f4_40"
transform="scale(0.001,-0.001)" />

<path d="M650,601c0,0,103,0,151,46c0,0,48,45,48,143c0,0,0,95,-51,139c0,0,-50,44,-159,44H283V601ZM134,0V1097H644c0,0,175,0,266,-76c0,0,91,-75,91,-222c0,0,0,-144,-94,-225c0,0,-24,-20,-52,-36l25,-12c0,0,100,-57,103,-193l6,-200c0,0,2,-50,13,-71c0,0,11,-22,43,-38V1H862c0,0,-5,13,-11,70c0,0,-6,57,-9,126l-3,87c0,0,-3,102,-50,146c0,0,-47,43,-154,43H283V0Z" 
id="f2_1h"
transform="scale(0.001,-0.001)" />

<path d="M131,0L274,688H168l23,112H296l26,125c0,0,20,98,82,143c0,0,62,46,176,46c0,0,33,0,59,-5L609,990c0,0,0,3,-53,3c0,0,-45,0,-70,-25c0,0,-25,-25,-37,-83L431,800H575L553,688H409L266,0Z" 
id="f3_21"
transform="scale(0.001,-0.001)" />

<path d="M968,-20c0,0,42,100,87,170c0,0,45,70,144,184H56v73H1199c0,0,-106,122,-148,189c0,0,-43,67,-83,166h60c0,0,87,-108,217,-218c0,0,130,-110,206,-154V349c0,0,-99,-56,-217,-159c0,0,-117,-102,-206,-210Z" 
id="f4_34"
transform="scale(0.001,-0.001)" />

<path d="M435,95c0,0,93,0,168,75c0,0,74,75,99,192c0,0,35,167,-1,254c0,0,-36,87,-140,87c0,0,-127,0,-208,-116c0,0,-80,-116,-80,-298c0,0,0,-93,43,-143c0,0,42,-51,119,-51ZM318,-336c0,0,-125,0,-193,65c0,0,-67,64,-61,180H198c0,0,-3,-62,39,-96c0,0,42,-35,119,-35c0,0,116,0,185,67c0,0,69,67,96,204l9,41l-2,-2C644,88,535,-20,404,-20c0,0,-127,0,-198,74c0,0,-70,75,-70,212c0,0,1,240,121,398c0,0,121,159,303,159c0,0,143,0,206,-129l8,-16l25,122H927L772,49c0,0,-39,-191,-153,-288c0,0,-114,-97,-301,-97Z" 
id="f3_22"
transform="scale(0.001,-0.001)" />

<path d="M312,0L24,1098l80,-1l81,1L380,230c0,0,6,-22,9,-42c0,0,3,-17,3,-26c0,4,1,13,4,28c0,0,4,20,9,40l232,867H804L1035,234c0,0,6,-20,10,-41c0,0,3,-19,3,-29c0,3,1,12,4,28c0,0,3,21,8,42l198,864l80,-1l79,1L1130,0H971L733,849c0,0,-6,21,-11,42c0,0,-4,21,-4,29c0,0,0,-9,-4,-30c0,0,-4,-20,-10,-41L471,0Z" 
id="f2_1m"
transform="scale(0.001,-0.001)" />

<path d="M116,0V1097H265V131H820V0Z" 
id="f2_1b"
transform="scale(0.001,-0.001)" />

<path d="M412,-328c0,0,-195,96,-303,284C109,-44,0,142,0,365c0,0,0,232,114,422c0,0,114,191,298,273v-31c0,0,-92,-51,-151,-139c0,0,-59,-88,-88,-223c0,0,-29,-136,-29,-282c0,0,0,-167,27,-301c0,0,26,-133,82,-221c0,0,55,-89,159,-159v-32Z" 
id="f4_c"
transform="scale(0.001,-0.001)" />

<path d="M34,-328v32c0,0,92,50,151,138c0,0,59,88,88,222c0,0,29,135,29,283c0,0,0,165,-27,300c0,0,-26,134,-82,222c0,0,-56,89,-159,160v31c0,0,194,-96,303,-284c0,0,108,-187,108,-410c0,0,0,-232,-114,-422c0,0,-114,-191,-297,-272Z" 
id="f4_d"
transform="scale(0.001,-0.001)" />

<path d="M355,0V355H0v72H355V784h72V427H782V355H427V0Z" 
id="f4_f"
transform="scale(0.001,-0.001)" />

<path d="M0,214v74H784V214ZM0,494v72H784V494Z" 
id="f4_x"
transform="scale(0.001,-0.001)" />

<path d="M0,356v74H784V356Z" 
id="f4_h"
transform="scale(0.001,-0.001)" />

<path d="M17,0L389,412L201,800H376L500,518L742,800H904L554,410L750,0H580L448,303L187,0Z" 
id="f3_2j"
transform="scale(0.001,-0.001)" />

<path d="M432,92c0,0,96,0,156,66c0,0,61,65,61,169c0,0,0,103,-61,169c0,0,-60,66,-156,66c0,0,-95,0,-156,-66c0,0,-61,-66,-61,-169c0,0,0,-104,61,-169c0,0,61,-66,156,-66ZM425,-28c0,0,-176,0,-271,135c0,0,-95,136,-95,388c0,0,0,278,103,429c0,0,103,151,293,151c0,0,142,0,226,-77c0,0,84,-76,90,-211H638c0,0,-8,80,-56,123c0,0,-47,43,-127,43c0,0,-125,0,-192,-119c0,0,-58,-102,-64,-278c0,0,100,127,255,127c0,0,152,0,245,-98c0,0,93,-98,93,-258c0,0,0,-161,-101,-259c0,0,-101,-96,-266,-96Z" 
id="f2_p"
transform="scale(0.001,-0.001)" />

<path d="M133,0l33,162H326L292,0ZM263,629l33,162H456L422,629Z" 
id="f3_t"
transform="scale(0.001,-0.001)" />

<path d="M968,-20c0,0,42,100,87,170c0,0,45,70,144,184H56v73H1199c0,0,-106,122,-148,189c0,0,-43,67,-83,166h60c0,0,87,-108,217,-218c0,0,130,-110,206,-154V349c0,0,-99,-56,-217,-159c0,0,-117,-102,-206,-210Z" 
id="f5_34"
transform="scale(0.001,-0.001)" />

<path d="M0,368V478H849V368Z" 
id="f2_99"
transform="scale(0.001,-0.001)" />

<path d="M445,95c0,0,127,0,215,118c0,0,87,119,87,290c0,0,0,97,-46,151c0,0,-46,53,-129,53c0,0,-127,0,-214,-118c0,0,-87,-117,-87,-287c0,0,0,-98,45,-153c0,0,46,-54,129,-54ZM421,-20c0,0,-136,0,-215,81c0,0,-79,82,-79,223c0,0,0,227,136,383c0,0,136,156,333,156c0,0,138,0,217,-79c0,0,79,-80,79,-215v-3c0,0,0,-230,-136,-389C756,137,619,-20,421,-20Z" 
id="f3_2a"
transform="scale(0.001,-0.001)" />

<path d="M475,91L710,641H238L475,91ZM434,0L0,1012H78L206,716H742l126,296h76L512,0Z" 
id="f4_6"
transform="scale(0.001,-0.001)" />

<path d="M130,0L252,216H0v70H292L410,496H0v70H450L572,783h82L532,566H783V496H492L377,286H783V216H335L213,0Z" 
id="f4_3f"
transform="scale(0.001,-0.001)" />

<path d="M424,92c0,0,98,0,161,58c0,0,62,58,62,149c0,0,0,92,-62,151c0,0,-63,58,-161,58c0,0,-98,0,-160,-58c0,0,-63,-59,-63,-151c0,0,0,-91,63,-149c0,0,62,-58,160,-58Zm0,533c0,0,82,0,134,46c0,0,52,45,52,118c0,0,0,72,-52,118c0,0,-52,46,-134,46c0,0,-82,0,-134,-46c0,0,-52,-46,-52,-118c0,0,0,-73,52,-119c0,0,52,-45,134,-45Zm0,-653c0,0,-165,0,-265,90C159,62,59,154,59,305c0,0,0,134,100,216c0,0,35,28,78,47c0,0,-27,15,-52,33c0,0,-90,70,-90,185c0,0,0,130,90,209c0,0,91,80,239,80c0,0,148,0,238,-80c0,0,91,-79,91,-209c0,0,0,-115,-91,-185c0,0,-24,-19,-52,-32c0,0,44,-20,79,-49c0,0,101,-81,101,-215c0,0,0,-151,-101,-243c0,0,-100,-90,-265,-90Z" 
id="f2_r"
transform="scale(0.001,-0.001)" />

<path d="M394,657L295,803L196,658l-75,54L229,851L60,898l28,88L255,927l-6,176h93L337,927l166,59l29,-88L362,849L470,712L394,657Z" 
id="f2_d"
transform="scale(0.001,-0.001)" />

<path d="M564,127c0,0,128,0,187,49c0,0,60,49,60,155c0,0,0,93,-62,136c0,0,-62,42,-195,42H262V127ZM527,630c0,0,121,0,177,43c0,0,56,44,56,138c0,0,0,82,-52,121c0,0,-51,38,-162,38H262V630ZM113,0V1097H595c0,0,141,0,227,-72c0,0,85,-72,85,-190c0,0,0,-137,-101,-214c0,0,-23,-17,-50,-30c0,0,54,-20,95,-49c0,0,107,-78,107,-217c0,0,0,-153,-105,-239C853,86,749,0,562,0Z" 
id="f2_11"
transform="scale(0.001,-0.001)" />

<path d="M571,-29c0,0,-231,0,-367,153C204,124,67,279,67,543c0,0,0,268,137,426c0,0,136,158,367,158c0,0,195,0,324,-105c0,0,128,-106,150,-287H816c0,0,-11,89,-76,142c0,0,-65,52,-166,52c0,0,-128,0,-200,-102c0,0,-73,-102,-73,-283c0,0,0,-176,72,-276c0,0,72,-100,201,-100c0,0,101,0,166,58c0,0,65,58,76,157h229c0,0,-21,-190,-149,-302C896,81,769,-29,571,-29Z" 
id="f6_12"
transform="scale(0.001,-0.001)" />

<path d="M109,0V1097H337V685H767v412H995V0H767V497H337V0Z" 
id="f6_17"
transform="scale(0.001,-0.001)" />

<path d="M695,412L549,853h-1L403,412ZM31,0L419,1097H684L1072,0H829L756,223H339L267,0Z" 
id="f6_10"
transform="scale(0.001,-0.001)" />

<path d="M537,581c0,0,96,0,144,42c0,0,48,43,48,129c0,0,0,78,-48,117c0,0,-48,39,-144,39H345V581ZM116,0V1097H575c0,0,188,0,285,-88c0,0,98,-87,98,-255c0,0,0,-178,-98,-270c0,0,-97,-92,-285,-92c0,0,-21,0,-53,0c-47,0,-119,-1,-177,-2V0Z" 
id="f6_1f"
transform="scale(0.001,-0.001)" />

<path d="M353,0V903H22v194H913V903H582V0Z" 
id="f6_1j"
transform="scale(0.001,-0.001)" />

<path d="M116,0V1097H923V903H345V670H881V481H345V195H948V0Z" 
id="f6_14"
transform="scale(0.001,-0.001)" />

<path d="M611,618c0,0,89,0,134,36c0,0,44,36,44,110c0,0,0,72,-42,108c0,0,-42,36,-127,36H345V618ZM116,0V1097H669c0,0,157,0,253,-84c0,0,96,-84,96,-221c0,0,0,-158,-107,-231c0,0,-28,-20,-64,-33c0,0,20,-8,37,-18c0,0,94,-56,97,-188l6,-180c0,0,1,-53,11,-76c0,0,9,-22,37,-36V1H782c0,0,-9,17,-16,74c0,0,-6,56,-7,121l-1,101c0,0,-2,74,-44,106c0,0,-42,31,-140,31H345V0Z" 
id="f6_1h"
transform="scale(0.001,-0.001)" />

<path d="M367,0V750H106V903c0,0,3,-1,8,-1c26,0,105,4,171,45c0,0,79,49,121,141H581V0Z" 
id="f6_k"
transform="scale(0.001,-0.001)" />

<path d="M116,0V1097H345V195H891V0Z" 
id="f6_1b"
transform="scale(0.001,-0.001)" />

<path d="M98,0V1097H327V0Z" 
id="f6_18"
transform="scale(0.001,-0.001)" />

<path d="M594,164c0,0,140,0,220,101c0,0,79,100,79,279c0,0,0,183,-79,286c0,0,-80,103,-220,103c0,0,-139,0,-219,-103c0,0,-79,-103,-79,-286c0,0,0,-179,79,-279c0,0,79,-101,219,-101Zm0,-193c0,0,-242,0,-384,153C210,124,67,279,67,543c0,0,0,268,143,426c0,0,142,158,384,158c0,0,243,0,385,-158c0,0,143,-158,143,-426c0,0,0,-264,-143,-419C979,124,837,-29,594,-29Z" 
id="f6_1e"
transform="scale(0.001,-0.001)" />

<path d="M106,0V1097H346L786,327v770h214V0H772L320,790V0Z" 
id="f6_1d"
transform="scale(0.001,-0.001)" />

<path d="M510,-29c0,0,-208,0,-325,95C185,66,68,162,59,339H280c0,0,4,-87,64,-134c0,0,59,-47,166,-47c0,0,109,0,171,36c0,0,61,35,61,98c0,0,0,62,-44,91c0,0,-43,30,-185,61c0,0,-261,58,-348,126c0,0,-88,67,-88,210c0,0,0,160,116,254c0,0,115,93,312,93c0,0,184,0,300,-97c0,0,115,-97,128,-261H710c0,0,-6,78,-68,124c0,0,-63,46,-163,46c0,0,-87,0,-137,-39c0,0,-49,-38,-49,-107c0,0,0,-49,52,-76c0,0,50,-27,215,-64c0,0,239,-54,320,-124c0,0,80,-69,80,-223c0,0,0,-155,-121,-246c0,0,-122,-89,-329,-89Z" 
id="f6_1i"
transform="scale(0.001,-0.001)" />

<path d="M538,189c0,0,140,0,210,94c0,0,69,95,69,283c0,0,0,171,-64,257c0,0,-65,85,-196,85H345V189ZM116,0V1097H585c0,0,226,0,344,-133c0,0,117,-133,117,-389c0,0,0,-282,-122,-428C924,147,802,0,567,0Z" 
id="f6_13"
transform="scale(0.001,-0.001)" />

<path d="M116,0V1097H897V903H345V653H826V464H345V0Z" 
id="f6_15"
transform="scale(0.001,-0.001)" />

<path d="M553,-29c0,0,-226,0,-334,107c0,0,-109,109,-109,335v684H338V405c0,0,0,-118,54,-177c0,0,53,-59,161,-59c0,0,115,0,164,54c0,0,50,54,50,182v692H995V413c0,0,1,-235,-103,-339C892,74,788,-29,553,-29Z" 
id="f6_1k"
transform="scale(0.001,-0.001)" />

<path d="M435,0V856c0,0,-48,-47,-127,-93c0,0,-79,-46,-142,-69V824c0,0,113,52,197,128c0,0,85,75,120,146h86V0Z" 
id="f7_l"
transform="scale(0.001,-0.001)" />

<path d="M125,0V1051H268V115H799V0Z" 
id="f0_1c"
transform="scale(0.001,-0.001)" />

<path d="M106,0V620c0,0,0,85,-5,188H228c0,0,6,-138,6,-165h3c0,0,32,103,74,141c0,0,42,38,118,38c0,0,27,0,54,-7V692c0,0,-26,7,-71,7c0,0,-84,0,-128,-72c0,0,-44,-72,-44,-206V0Z" 
id="f0_2e"
transform="scale(0.001,-0.001)" />

<path d="M606,-14c0,0,-164,0,-284,65c0,0,-119,66,-182,189c0,0,-63,123,-63,291c0,0,0,255,137,396c0,0,137,140,386,140c0,0,174,0,283,-59c0,0,109,-59,168,-189L915,779c0,0,-44,90,-123,131c0,0,-79,41,-196,41c0,0,-182,0,-278,-110c0,0,-96,-110,-96,-310c0,0,0,-200,102,-315c0,0,102,-115,282,-115c0,0,103,0,193,31c0,0,89,31,144,85V407H629V526h445V164c0,0,-83,-85,-205,-132c0,0,-121,-46,-263,-46Z" 
id="f0_17"
transform="scale(0.001,-0.001)" />

<path d="M355,-14c0,0,-133,0,-194,65c0,0,-62,66,-62,219V808H234V296c0,0,0,-80,16,-124c0,0,16,-44,50,-64c0,0,34,-19,101,-19c0,0,97,0,153,66c0,0,55,67,55,185V808H744V172c0,0,0,-141,4,-172H621c0,0,0,4,-1,20c0,0,-1,17,-2,38c0,0,-1,21,-3,80h-2C613,138,567,55,506,20c0,0,-61,-34,-151,-34Z" 
id="f0_2h"
transform="scale(0.001,-0.001)" />

<path d="M395,89c0,0,115,0,166,79c0,0,51,79,51,246c0,0,0,160,-51,235c0,0,-51,75,-164,75c0,0,-102,0,-147,-75c0,0,-45,-75,-45,-244c0,0,0,-170,45,-243c0,0,45,-73,145,-73ZM361,-14c0,0,-153,0,-225,102c0,0,-72,103,-72,312c0,0,0,422,297,422c0,0,92,0,153,-33c0,0,61,-34,98,-107h2l-2,90v335H747V166c0,0,0,-126,4,-166H623c0,0,-2,12,-5,55c0,0,-3,44,-3,75h-3c0,0,-37,-78,-98,-111c0,0,-62,-33,-153,-33Z" 
id="f0_20"
transform="scale(0.001,-0.001)" />

<path d="M140,0V163H285V0Z" 
id="f0_i"
transform="scale(0.001,-0.001)" />


</defs>
</svg>